<?xml version="1.0" encoding="utf-8" standalone="no"?>
<!DOCTYPE svg PUBLIC "-//W3C//DTD SVG 1.1//EN"
  "http://www.w3.org/Graphics/SVG/1.1/DTD/svg11.dtd">
<svg xmlns:xlink="http://www.w3.org/1999/xlink" width="576pt" height="432pt" viewBox="0 0 576 432" xmlns="http://www.w3.org/2000/svg" version="1.1">
 <metadata>
  <rdf:RDF xmlns:dc="http://purl.org/dc/elements/1.1/" xmlns:cc="http://creativecommons.org/ns#" xmlns:rdf="http://www.w3.org/1999/02/22-rdf-syntax-ns#">
   <cc:Work>
    <dc:type rdf:resource="http://purl.org/dc/dcmitype/StillImage"/>
    <dc:date>2025-02-12T21:12:02.009339</dc:date>
    <dc:format>image/svg+xml</dc:format>
    <dc:creator>
     <cc:Agent>
      <dc:title>Matplotlib v3.10.0, https://matplotlib.org/</dc:title>
     </cc:Agent>
    </dc:creator>
   </cc:Work>
  </rdf:RDF>
 </metadata>
 <defs>
  <style type="text/css">*{stroke-linejoin: round; stroke-linecap: butt}</style>
 </defs>
 <g id="figure_1">
  <g id="patch_1">
   <path d="M 0 432 
L 576 432 
L 576 0 
L 0 0 
z
" style="fill: #ffffff"/>
  </g>
  <g id="axes_1">
   <g id="patch_2">
    <path d="M 47.961178 398.64351 
L 572.99976 398.64351 
L 572.99976 18.118365 
L 47.961178 18.118365 
L 47.961178 398.64351 
z
" style="fill: none; opacity: 0"/>
   </g>
   <g id="patch_3">
    <path d="M 47.961178 364.092299 
L 47.961178 52.669576 
" style="fill: none; stroke: #000000; stroke-width: 0.8; stroke-linejoin: miter; stroke-linecap: square"/>
   </g>
   <g id="LineCollection_1">
    <path d="M 336.578478 18.118365 
L 336.578478 398.64351 
" clip-path="url(#pf67bd6cdc7)" style="fill: none; stroke-dasharray: 3.7,1.6; stroke-dashoffset: 0; stroke: #000000"/>
    <path d="M 424.141916 18.118365 
L 424.141916 398.64351 
" clip-path="url(#pf67bd6cdc7)" style="fill: none; stroke-dasharray: 3.7,1.6; stroke-dashoffset: 0; stroke: #000000"/>
   </g>
   <g id="matplotlib.axis_1">
    <g id="xtick_1">
     <g id="line2d_1">
      <defs>
       <path id="m71af0b5231" d="M 0 0 
L 0 3.5 
" style="stroke: #000000; stroke-width: 0.8"/>
      </defs>
      <g>
       <use xlink:href="#m71af0b5231" x="73.888164" y="398.64351" style="stroke: #000000; stroke-width: 0.8"/>
      </g>
     </g>
     <g id="text_1">
      <!-- −0.2 -->
      <g transform="translate(61.746758 413.241947) scale(0.1 -0.1)">
       <defs>
        <path id="DejaVuSans-2212" d="M 678 2272 
L 4684 2272 
L 4684 1741 
L 678 1741 
L 678 2272 
z
" transform="scale(0.015625)"/>
        <path id="DejaVuSans-30" d="M 2034 4250 
Q 1547 4250 1301 3770 
Q 1056 3291 1056 2328 
Q 1056 1369 1301 889 
Q 1547 409 2034 409 
Q 2525 409 2770 889 
Q 3016 1369 3016 2328 
Q 3016 3291 2770 3770 
Q 2525 4250 2034 4250 
z
M 2034 4750 
Q 2819 4750 3233 4129 
Q 3647 3509 3647 2328 
Q 3647 1150 3233 529 
Q 2819 -91 2034 -91 
Q 1250 -91 836 529 
Q 422 1150 422 2328 
Q 422 3509 836 4129 
Q 1250 4750 2034 4750 
z
" transform="scale(0.015625)"/>
        <path id="DejaVuSans-2e" d="M 684 794 
L 1344 794 
L 1344 0 
L 684 0 
L 684 794 
z
" transform="scale(0.015625)"/>
        <path id="DejaVuSans-32" d="M 1228 531 
L 3431 531 
L 3431 0 
L 469 0 
L 469 531 
Q 828 903 1448 1529 
Q 2069 2156 2228 2338 
Q 2531 2678 2651 2914 
Q 2772 3150 2772 3378 
Q 2772 3750 2511 3984 
Q 2250 4219 1831 4219 
Q 1534 4219 1204 4116 
Q 875 4013 500 3803 
L 500 4441 
Q 881 4594 1212 4672 
Q 1544 4750 1819 4750 
Q 2544 4750 2975 4387 
Q 3406 4025 3406 3419 
Q 3406 3131 3298 2873 
Q 3191 2616 2906 2266 
Q 2828 2175 2409 1742 
Q 1991 1309 1228 531 
z
" transform="scale(0.015625)"/>
       </defs>
       <use xlink:href="#DejaVuSans-2212"/>
       <use xlink:href="#DejaVuSans-30" transform="translate(83.789062 0)"/>
       <use xlink:href="#DejaVuSans-2e" transform="translate(147.412109 0)"/>
       <use xlink:href="#DejaVuSans-32" transform="translate(179.199219 0)"/>
      </g>
     </g>
    </g>
    <g id="xtick_2">
     <g id="line2d_2">
      <g>
       <use xlink:href="#m71af0b5231" x="161.451602" y="398.64351" style="stroke: #000000; stroke-width: 0.8"/>
      </g>
     </g>
     <g id="text_2">
      <!-- 0.0 -->
      <g transform="translate(153.50004 413.241947) scale(0.1 -0.1)">
       <use xlink:href="#DejaVuSans-30"/>
       <use xlink:href="#DejaVuSans-2e" transform="translate(63.623047 0)"/>
       <use xlink:href="#DejaVuSans-30" transform="translate(95.410156 0)"/>
      </g>
     </g>
    </g>
    <g id="xtick_3">
     <g id="line2d_3">
      <g>
       <use xlink:href="#m71af0b5231" x="249.01504" y="398.64351" style="stroke: #000000; stroke-width: 0.8"/>
      </g>
     </g>
     <g id="text_3">
      <!-- 0.2 -->
      <g transform="translate(241.063477 413.241947) scale(0.1 -0.1)">
       <use xlink:href="#DejaVuSans-30"/>
       <use xlink:href="#DejaVuSans-2e" transform="translate(63.623047 0)"/>
       <use xlink:href="#DejaVuSans-32" transform="translate(95.410156 0)"/>
      </g>
     </g>
    </g>
    <g id="xtick_4">
     <g id="line2d_4">
      <g>
       <use xlink:href="#m71af0b5231" x="336.578478" y="398.64351" style="stroke: #000000; stroke-width: 0.8"/>
      </g>
     </g>
     <g id="text_4">
      <!-- 0.4 -->
      <g transform="translate(328.626915 413.241947) scale(0.1 -0.1)">
       <defs>
        <path id="DejaVuSans-34" d="M 2419 4116 
L 825 1625 
L 2419 1625 
L 2419 4116 
z
M 2253 4666 
L 3047 4666 
L 3047 1625 
L 3713 1625 
L 3713 1100 
L 3047 1100 
L 3047 0 
L 2419 0 
L 2419 1100 
L 313 1100 
L 313 1709 
L 2253 4666 
z
" transform="scale(0.015625)"/>
       </defs>
       <use xlink:href="#DejaVuSans-30"/>
       <use xlink:href="#DejaVuSans-2e" transform="translate(63.623047 0)"/>
       <use xlink:href="#DejaVuSans-34" transform="translate(95.410156 0)"/>
      </g>
     </g>
    </g>
    <g id="xtick_5">
     <g id="line2d_5">
      <g>
       <use xlink:href="#m71af0b5231" x="424.141916" y="398.64351" style="stroke: #000000; stroke-width: 0.8"/>
      </g>
     </g>
     <g id="text_5">
      <!-- 0.6 -->
      <g transform="translate(416.190353 413.241947) scale(0.1 -0.1)">
       <defs>
        <path id="DejaVuSans-36" d="M 2113 2584 
Q 1688 2584 1439 2293 
Q 1191 2003 1191 1497 
Q 1191 994 1439 701 
Q 1688 409 2113 409 
Q 2538 409 2786 701 
Q 3034 994 3034 1497 
Q 3034 2003 2786 2293 
Q 2538 2584 2113 2584 
z
M 3366 4563 
L 3366 3988 
Q 3128 4100 2886 4159 
Q 2644 4219 2406 4219 
Q 1781 4219 1451 3797 
Q 1122 3375 1075 2522 
Q 1259 2794 1537 2939 
Q 1816 3084 2150 3084 
Q 2853 3084 3261 2657 
Q 3669 2231 3669 1497 
Q 3669 778 3244 343 
Q 2819 -91 2113 -91 
Q 1303 -91 875 529 
Q 447 1150 447 2328 
Q 447 3434 972 4092 
Q 1497 4750 2381 4750 
Q 2619 4750 2861 4703 
Q 3103 4656 3366 4563 
z
" transform="scale(0.015625)"/>
       </defs>
       <use xlink:href="#DejaVuSans-30"/>
       <use xlink:href="#DejaVuSans-2e" transform="translate(63.623047 0)"/>
       <use xlink:href="#DejaVuSans-36" transform="translate(95.410156 0)"/>
      </g>
     </g>
    </g>
    <g id="xtick_6">
     <g id="line2d_6">
      <g>
       <use xlink:href="#m71af0b5231" x="511.705353" y="398.64351" style="stroke: #000000; stroke-width: 0.8"/>
      </g>
     </g>
     <g id="text_6">
      <!-- 0.8 -->
      <g transform="translate(503.753791 413.241947) scale(0.1 -0.1)">
       <defs>
        <path id="DejaVuSans-38" d="M 2034 2216 
Q 1584 2216 1326 1975 
Q 1069 1734 1069 1313 
Q 1069 891 1326 650 
Q 1584 409 2034 409 
Q 2484 409 2743 651 
Q 3003 894 3003 1313 
Q 3003 1734 2745 1975 
Q 2488 2216 2034 2216 
z
M 1403 2484 
Q 997 2584 770 2862 
Q 544 3141 544 3541 
Q 544 4100 942 4425 
Q 1341 4750 2034 4750 
Q 2731 4750 3128 4425 
Q 3525 4100 3525 3541 
Q 3525 3141 3298 2862 
Q 3072 2584 2669 2484 
Q 3125 2378 3379 2068 
Q 3634 1759 3634 1313 
Q 3634 634 3220 271 
Q 2806 -91 2034 -91 
Q 1263 -91 848 271 
Q 434 634 434 1313 
Q 434 1759 690 2068 
Q 947 2378 1403 2484 
z
M 1172 3481 
Q 1172 3119 1398 2916 
Q 1625 2713 2034 2713 
Q 2441 2713 2670 2916 
Q 2900 3119 2900 3481 
Q 2900 3844 2670 4047 
Q 2441 4250 2034 4250 
Q 1625 4250 1398 4047 
Q 1172 3844 1172 3481 
z
" transform="scale(0.015625)"/>
       </defs>
       <use xlink:href="#DejaVuSans-30"/>
       <use xlink:href="#DejaVuSans-2e" transform="translate(63.623047 0)"/>
       <use xlink:href="#DejaVuSans-38" transform="translate(95.410156 0)"/>
      </g>
     </g>
    </g>
    <g id="text_7">
     <!-- Time (s) -->
     <g transform="translate(290.151563 426.920073) scale(0.1 -0.1)">
      <defs>
       <path id="DejaVuSans-54" d="M -19 4666 
L 3928 4666 
L 3928 4134 
L 2272 4134 
L 2272 0 
L 1638 0 
L 1638 4134 
L -19 4134 
L -19 4666 
z
" transform="scale(0.015625)"/>
       <path id="DejaVuSans-69" d="M 603 3500 
L 1178 3500 
L 1178 0 
L 603 0 
L 603 3500 
z
M 603 4863 
L 1178 4863 
L 1178 4134 
L 603 4134 
L 603 4863 
z
" transform="scale(0.015625)"/>
       <path id="DejaVuSans-6d" d="M 3328 2828 
Q 3544 3216 3844 3400 
Q 4144 3584 4550 3584 
Q 5097 3584 5394 3201 
Q 5691 2819 5691 2113 
L 5691 0 
L 5113 0 
L 5113 2094 
Q 5113 2597 4934 2840 
Q 4756 3084 4391 3084 
Q 3944 3084 3684 2787 
Q 3425 2491 3425 1978 
L 3425 0 
L 2847 0 
L 2847 2094 
Q 2847 2600 2669 2842 
Q 2491 3084 2119 3084 
Q 1678 3084 1418 2786 
Q 1159 2488 1159 1978 
L 1159 0 
L 581 0 
L 581 3500 
L 1159 3500 
L 1159 2956 
Q 1356 3278 1631 3431 
Q 1906 3584 2284 3584 
Q 2666 3584 2933 3390 
Q 3200 3197 3328 2828 
z
" transform="scale(0.015625)"/>
       <path id="DejaVuSans-65" d="M 3597 1894 
L 3597 1613 
L 953 1613 
Q 991 1019 1311 708 
Q 1631 397 2203 397 
Q 2534 397 2845 478 
Q 3156 559 3463 722 
L 3463 178 
Q 3153 47 2828 -22 
Q 2503 -91 2169 -91 
Q 1331 -91 842 396 
Q 353 884 353 1716 
Q 353 2575 817 3079 
Q 1281 3584 2069 3584 
Q 2775 3584 3186 3129 
Q 3597 2675 3597 1894 
z
M 3022 2063 
Q 3016 2534 2758 2815 
Q 2500 3097 2075 3097 
Q 1594 3097 1305 2825 
Q 1016 2553 972 2059 
L 3022 2063 
z
" transform="scale(0.015625)"/>
       <path id="DejaVuSans-20" transform="scale(0.015625)"/>
       <path id="DejaVuSans-28" d="M 1984 4856 
Q 1566 4138 1362 3434 
Q 1159 2731 1159 2009 
Q 1159 1288 1364 580 
Q 1569 -128 1984 -844 
L 1484 -844 
Q 1016 -109 783 600 
Q 550 1309 550 2009 
Q 550 2706 781 3412 
Q 1013 4119 1484 4856 
L 1984 4856 
z
" transform="scale(0.015625)"/>
       <path id="DejaVuSans-73" d="M 2834 3397 
L 2834 2853 
Q 2591 2978 2328 3040 
Q 2066 3103 1784 3103 
Q 1356 3103 1142 2972 
Q 928 2841 928 2578 
Q 928 2378 1081 2264 
Q 1234 2150 1697 2047 
L 1894 2003 
Q 2506 1872 2764 1633 
Q 3022 1394 3022 966 
Q 3022 478 2636 193 
Q 2250 -91 1575 -91 
Q 1294 -91 989 -36 
Q 684 19 347 128 
L 347 722 
Q 666 556 975 473 
Q 1284 391 1588 391 
Q 1994 391 2212 530 
Q 2431 669 2431 922 
Q 2431 1156 2273 1281 
Q 2116 1406 1581 1522 
L 1381 1569 
Q 847 1681 609 1914 
Q 372 2147 372 2553 
Q 372 3047 722 3315 
Q 1072 3584 1716 3584 
Q 2034 3584 2315 3537 
Q 2597 3491 2834 3397 
z
" transform="scale(0.015625)"/>
       <path id="DejaVuSans-29" d="M 513 4856 
L 1013 4856 
Q 1481 4119 1714 3412 
Q 1947 2706 1947 2009 
Q 1947 1309 1714 600 
Q 1481 -109 1013 -844 
L 513 -844 
Q 928 -128 1133 580 
Q 1338 1288 1338 2009 
Q 1338 2731 1133 3434 
Q 928 4138 513 4856 
z
" transform="scale(0.015625)"/>
      </defs>
      <use xlink:href="#DejaVuSans-54"/>
      <use xlink:href="#DejaVuSans-69" transform="translate(57.958984 0)"/>
      <use xlink:href="#DejaVuSans-6d" transform="translate(85.742188 0)"/>
      <use xlink:href="#DejaVuSans-65" transform="translate(183.154297 0)"/>
      <use xlink:href="#DejaVuSans-20" transform="translate(244.677734 0)"/>
      <use xlink:href="#DejaVuSans-28" transform="translate(276.464844 0)"/>
      <use xlink:href="#DejaVuSans-73" transform="translate(315.478516 0)"/>
      <use xlink:href="#DejaVuSans-29" transform="translate(367.578125 0)"/>
     </g>
    </g>
   </g>
   <g id="matplotlib.axis_2">
    <g id="ytick_1">
     <g id="line2d_7">
      <defs>
       <path id="mbec030e55a" d="M 0 0 
L -3.5 0 
" style="stroke: #000000; stroke-width: 0.8"/>
      </defs>
      <g>
       <use xlink:href="#mbec030e55a" x="47.961178" y="364.092299" style="stroke: #000000; stroke-width: 0.8"/>
      </g>
     </g>
     <g id="text_8">
      <!-- −7.5 -->
      <g transform="translate(16.678365 367.891517) scale(0.1 -0.1)">
       <defs>
        <path id="DejaVuSans-37" d="M 525 4666 
L 3525 4666 
L 3525 4397 
L 1831 0 
L 1172 0 
L 2766 4134 
L 525 4134 
L 525 4666 
z
" transform="scale(0.015625)"/>
        <path id="DejaVuSans-35" d="M 691 4666 
L 3169 4666 
L 3169 4134 
L 1269 4134 
L 1269 2991 
Q 1406 3038 1543 3061 
Q 1681 3084 1819 3084 
Q 2600 3084 3056 2656 
Q 3513 2228 3513 1497 
Q 3513 744 3044 326 
Q 2575 -91 1722 -91 
Q 1428 -91 1123 -41 
Q 819 9 494 109 
L 494 744 
Q 775 591 1075 516 
Q 1375 441 1709 441 
Q 2250 441 2565 725 
Q 2881 1009 2881 1497 
Q 2881 1984 2565 2268 
Q 2250 2553 1709 2553 
Q 1456 2553 1204 2497 
Q 953 2441 691 2322 
L 691 4666 
z
" transform="scale(0.015625)"/>
       </defs>
       <use xlink:href="#DejaVuSans-2212"/>
       <use xlink:href="#DejaVuSans-37" transform="translate(83.789062 0)"/>
       <use xlink:href="#DejaVuSans-2e" transform="translate(147.412109 0)"/>
       <use xlink:href="#DejaVuSans-35" transform="translate(179.199219 0)"/>
      </g>
     </g>
    </g>
    <g id="ytick_2">
     <g id="line2d_8">
      <g>
       <use xlink:href="#mbec030e55a" x="47.961178" y="312.188512" style="stroke: #000000; stroke-width: 0.8"/>
      </g>
     </g>
     <g id="text_9">
      <!-- −5.0 -->
      <g transform="translate(16.678365 315.98773) scale(0.1 -0.1)">
       <use xlink:href="#DejaVuSans-2212"/>
       <use xlink:href="#DejaVuSans-35" transform="translate(83.789062 0)"/>
       <use xlink:href="#DejaVuSans-2e" transform="translate(147.412109 0)"/>
       <use xlink:href="#DejaVuSans-30" transform="translate(179.199219 0)"/>
      </g>
     </g>
    </g>
    <g id="ytick_3">
     <g id="line2d_9">
      <g>
       <use xlink:href="#mbec030e55a" x="47.961178" y="260.284725" style="stroke: #000000; stroke-width: 0.8"/>
      </g>
     </g>
     <g id="text_10">
      <!-- −2.5 -->
      <g transform="translate(16.678365 264.083943) scale(0.1 -0.1)">
       <use xlink:href="#DejaVuSans-2212"/>
       <use xlink:href="#DejaVuSans-32" transform="translate(83.789062 0)"/>
       <use xlink:href="#DejaVuSans-2e" transform="translate(147.412109 0)"/>
       <use xlink:href="#DejaVuSans-35" transform="translate(179.199219 0)"/>
      </g>
     </g>
    </g>
    <g id="ytick_4">
     <g id="line2d_10">
      <g>
       <use xlink:href="#mbec030e55a" x="47.961178" y="208.380937" style="stroke: #000000; stroke-width: 0.8"/>
      </g>
     </g>
     <g id="text_11">
      <!-- 0.0 -->
      <g transform="translate(25.058053 212.180156) scale(0.1 -0.1)">
       <use xlink:href="#DejaVuSans-30"/>
       <use xlink:href="#DejaVuSans-2e" transform="translate(63.623047 0)"/>
       <use xlink:href="#DejaVuSans-30" transform="translate(95.410156 0)"/>
      </g>
     </g>
    </g>
    <g id="ytick_5">
     <g id="line2d_11">
      <g>
       <use xlink:href="#mbec030e55a" x="47.961178" y="156.47715" style="stroke: #000000; stroke-width: 0.8"/>
      </g>
     </g>
     <g id="text_12">
      <!-- 2.5 -->
      <g transform="translate(25.058053 160.276369) scale(0.1 -0.1)">
       <use xlink:href="#DejaVuSans-32"/>
       <use xlink:href="#DejaVuSans-2e" transform="translate(63.623047 0)"/>
       <use xlink:href="#DejaVuSans-35" transform="translate(95.410156 0)"/>
      </g>
     </g>
    </g>
    <g id="ytick_6">
     <g id="line2d_12">
      <g>
       <use xlink:href="#mbec030e55a" x="47.961178" y="104.573363" style="stroke: #000000; stroke-width: 0.8"/>
      </g>
     </g>
     <g id="text_13">
      <!-- 5.0 -->
      <g transform="translate(25.058053 108.372582) scale(0.1 -0.1)">
       <use xlink:href="#DejaVuSans-35"/>
       <use xlink:href="#DejaVuSans-2e" transform="translate(63.623047 0)"/>
       <use xlink:href="#DejaVuSans-30" transform="translate(95.410156 0)"/>
      </g>
     </g>
    </g>
    <g id="ytick_7">
     <g id="line2d_13">
      <g>
       <use xlink:href="#mbec030e55a" x="47.961178" y="52.669576" style="stroke: #000000; stroke-width: 0.8"/>
      </g>
     </g>
     <g id="text_14">
      <!-- 7.5 -->
      <g transform="translate(25.058053 56.468795) scale(0.1 -0.1)">
       <use xlink:href="#DejaVuSans-37"/>
       <use xlink:href="#DejaVuSans-2e" transform="translate(63.623047 0)"/>
       <use xlink:href="#DejaVuSans-35" transform="translate(95.410156 0)"/>
      </g>
     </g>
    </g>
    <g id="text_15">
     <!-- µV -->
     <g transform="translate(10.598678 214.9825) rotate(-90) scale(0.1 -0.1)">
      <defs>
       <path id="DejaVuSans-b5" d="M 544 -1331 
L 544 3500 
L 1119 3500 
L 1119 1325 
Q 1119 872 1334 640 
Q 1550 409 1972 409 
Q 2434 409 2667 671 
Q 2900 934 2900 1459 
L 2900 3500 
L 3475 3500 
L 3475 806 
Q 3475 619 3529 530 
Q 3584 441 3700 441 
Q 3728 441 3778 458 
Q 3828 475 3916 513 
L 3916 50 
Q 3788 -22 3673 -56 
Q 3559 -91 3450 -91 
Q 3234 -91 3106 31 
Q 2978 153 2931 403 
Q 2775 156 2548 32 
Q 2322 -91 2016 -91 
Q 1697 -91 1473 31 
Q 1250 153 1119 397 
L 1119 -1331 
L 544 -1331 
z
" transform="scale(0.015625)"/>
       <path id="DejaVuSans-56" d="M 1831 0 
L 50 4666 
L 709 4666 
L 2188 738 
L 3669 4666 
L 4325 4666 
L 2547 0 
L 1831 0 
z
" transform="scale(0.015625)"/>
      </defs>
      <use xlink:href="#DejaVuSans-b5"/>
      <use xlink:href="#DejaVuSans-56" transform="translate(63.623047 0)"/>
     </g>
    </g>
   </g>
   <g id="patch_4">
    <path d="M 73.888164 398.64351 
L 511.705353 398.64351 
" style="fill: none; stroke: #000000; stroke-width: 0.8; stroke-linejoin: miter; stroke-linecap: square"/>
   </g>
   <g id="patch_5">
    <path d="M 47.961178 208.380937 
L 572.99976 208.380937 
" style="fill: none; stroke: #000000; stroke-width: 0.8; stroke-linejoin: miter; stroke-linecap: square"/>
   </g>
   <g id="text_16">
    <!-- lks LPP: CPz, Cz, Pz (mean) -->
    <g transform="translate(229.505781 12.118365) scale(0.12 -0.12)">
     <defs>
      <path id="DejaVuSans-6c" d="M 603 4863 
L 1178 4863 
L 1178 0 
L 603 0 
L 603 4863 
z
" transform="scale(0.015625)"/>
      <path id="DejaVuSans-6b" d="M 581 4863 
L 1159 4863 
L 1159 1991 
L 2875 3500 
L 3609 3500 
L 1753 1863 
L 3688 0 
L 2938 0 
L 1159 1709 
L 1159 0 
L 581 0 
L 581 4863 
z
" transform="scale(0.015625)"/>
      <path id="DejaVuSans-4c" d="M 628 4666 
L 1259 4666 
L 1259 531 
L 3531 531 
L 3531 0 
L 628 0 
L 628 4666 
z
" transform="scale(0.015625)"/>
      <path id="DejaVuSans-50" d="M 1259 4147 
L 1259 2394 
L 2053 2394 
Q 2494 2394 2734 2622 
Q 2975 2850 2975 3272 
Q 2975 3691 2734 3919 
Q 2494 4147 2053 4147 
L 1259 4147 
z
M 628 4666 
L 2053 4666 
Q 2838 4666 3239 4311 
Q 3641 3956 3641 3272 
Q 3641 2581 3239 2228 
Q 2838 1875 2053 1875 
L 1259 1875 
L 1259 0 
L 628 0 
L 628 4666 
z
" transform="scale(0.015625)"/>
      <path id="DejaVuSans-3a" d="M 750 794 
L 1409 794 
L 1409 0 
L 750 0 
L 750 794 
z
M 750 3309 
L 1409 3309 
L 1409 2516 
L 750 2516 
L 750 3309 
z
" transform="scale(0.015625)"/>
      <path id="DejaVuSans-43" d="M 4122 4306 
L 4122 3641 
Q 3803 3938 3442 4084 
Q 3081 4231 2675 4231 
Q 1875 4231 1450 3742 
Q 1025 3253 1025 2328 
Q 1025 1406 1450 917 
Q 1875 428 2675 428 
Q 3081 428 3442 575 
Q 3803 722 4122 1019 
L 4122 359 
Q 3791 134 3420 21 
Q 3050 -91 2638 -91 
Q 1578 -91 968 557 
Q 359 1206 359 2328 
Q 359 3453 968 4101 
Q 1578 4750 2638 4750 
Q 3056 4750 3426 4639 
Q 3797 4528 4122 4306 
z
" transform="scale(0.015625)"/>
      <path id="DejaVuSans-7a" d="M 353 3500 
L 3084 3500 
L 3084 2975 
L 922 459 
L 3084 459 
L 3084 0 
L 275 0 
L 275 525 
L 2438 3041 
L 353 3041 
L 353 3500 
z
" transform="scale(0.015625)"/>
      <path id="DejaVuSans-2c" d="M 750 794 
L 1409 794 
L 1409 256 
L 897 -744 
L 494 -744 
L 750 256 
L 750 794 
z
" transform="scale(0.015625)"/>
      <path id="DejaVuSans-61" d="M 2194 1759 
Q 1497 1759 1228 1600 
Q 959 1441 959 1056 
Q 959 750 1161 570 
Q 1363 391 1709 391 
Q 2188 391 2477 730 
Q 2766 1069 2766 1631 
L 2766 1759 
L 2194 1759 
z
M 3341 1997 
L 3341 0 
L 2766 0 
L 2766 531 
Q 2569 213 2275 61 
Q 1981 -91 1556 -91 
Q 1019 -91 701 211 
Q 384 513 384 1019 
Q 384 1609 779 1909 
Q 1175 2209 1959 2209 
L 2766 2209 
L 2766 2266 
Q 2766 2663 2505 2880 
Q 2244 3097 1772 3097 
Q 1472 3097 1187 3025 
Q 903 2953 641 2809 
L 641 3341 
Q 956 3463 1253 3523 
Q 1550 3584 1831 3584 
Q 2591 3584 2966 3190 
Q 3341 2797 3341 1997 
z
" transform="scale(0.015625)"/>
      <path id="DejaVuSans-6e" d="M 3513 2113 
L 3513 0 
L 2938 0 
L 2938 2094 
Q 2938 2591 2744 2837 
Q 2550 3084 2163 3084 
Q 1697 3084 1428 2787 
Q 1159 2491 1159 1978 
L 1159 0 
L 581 0 
L 581 3500 
L 1159 3500 
L 1159 2956 
Q 1366 3272 1645 3428 
Q 1925 3584 2291 3584 
Q 2894 3584 3203 3211 
Q 3513 2838 3513 2113 
z
" transform="scale(0.015625)"/>
     </defs>
     <use xlink:href="#DejaVuSans-6c"/>
     <use xlink:href="#DejaVuSans-6b" transform="translate(27.783203 0)"/>
     <use xlink:href="#DejaVuSans-73" transform="translate(85.693359 0)"/>
     <use xlink:href="#DejaVuSans-20" transform="translate(137.792969 0)"/>
     <use xlink:href="#DejaVuSans-4c" transform="translate(169.580078 0)"/>
     <use xlink:href="#DejaVuSans-50" transform="translate(225.292969 0)"/>
     <use xlink:href="#DejaVuSans-50" transform="translate(285.595703 0)"/>
     <use xlink:href="#DejaVuSans-3a" transform="translate(345.898438 0)"/>
     <use xlink:href="#DejaVuSans-20" transform="translate(379.589844 0)"/>
     <use xlink:href="#DejaVuSans-43" transform="translate(411.376953 0)"/>
     <use xlink:href="#DejaVuSans-50" transform="translate(481.201172 0)"/>
     <use xlink:href="#DejaVuSans-7a" transform="translate(541.503906 0)"/>
     <use xlink:href="#DejaVuSans-2c" transform="translate(593.994141 0)"/>
     <use xlink:href="#DejaVuSans-20" transform="translate(625.78125 0)"/>
     <use xlink:href="#DejaVuSans-43" transform="translate(657.568359 0)"/>
     <use xlink:href="#DejaVuSans-7a" transform="translate(727.392578 0)"/>
     <use xlink:href="#DejaVuSans-2c" transform="translate(779.882812 0)"/>
     <use xlink:href="#DejaVuSans-20" transform="translate(811.669922 0)"/>
     <use xlink:href="#DejaVuSans-50" transform="translate(843.457031 0)"/>
     <use xlink:href="#DejaVuSans-7a" transform="translate(903.759766 0)"/>
     <use xlink:href="#DejaVuSans-20" transform="translate(956.25 0)"/>
     <use xlink:href="#DejaVuSans-28" transform="translate(988.037109 0)"/>
     <use xlink:href="#DejaVuSans-6d" transform="translate(1027.050781 0)"/>
     <use xlink:href="#DejaVuSans-65" transform="translate(1124.462891 0)"/>
     <use xlink:href="#DejaVuSans-61" transform="translate(1185.986328 0)"/>
     <use xlink:href="#DejaVuSans-6e" transform="translate(1247.265625 0)"/>
     <use xlink:href="#DejaVuSans-29" transform="translate(1310.644531 0)"/>
    </g>
   </g>
   <g id="legend_1">
    <g id="patch_6">
     <path d="M 54.961178 55.75274 
L 136.103365 55.75274 
Q 138.103365 55.75274 138.103365 53.75274 
L 138.103365 25.118365 
Q 138.103365 23.118365 136.103365 23.118365 
L 54.961178 23.118365 
Q 52.961178 23.118365 52.961178 25.118365 
L 52.961178 53.75274 
Q 52.961178 55.75274 54.961178 55.75274 
z
" style="fill: #ffffff; opacity: 0.8; stroke: #cccccc; stroke-linejoin: miter"/>
    </g>
    <g id="line2d_14">
     <path d="M 56.961178 31.216803 
L 66.961178 31.216803 
L 76.961178 31.216803 
" style="fill: none; stroke: #1f77b4; stroke-width: 1.5; stroke-linecap: square"/>
    </g>
    <g id="text_17">
     <!-- eerie -->
     <g transform="translate(84.961178 34.716803) scale(0.1 -0.1)">
      <defs>
       <path id="DejaVuSans-72" d="M 2631 2963 
Q 2534 3019 2420 3045 
Q 2306 3072 2169 3072 
Q 1681 3072 1420 2755 
Q 1159 2438 1159 1844 
L 1159 0 
L 581 0 
L 581 3500 
L 1159 3500 
L 1159 2956 
Q 1341 3275 1631 3429 
Q 1922 3584 2338 3584 
Q 2397 3584 2469 3576 
Q 2541 3569 2628 3553 
L 2631 2963 
z
" transform="scale(0.015625)"/>
      </defs>
      <use xlink:href="#DejaVuSans-65"/>
      <use xlink:href="#DejaVuSans-65" transform="translate(61.523438 0)"/>
      <use xlink:href="#DejaVuSans-72" transform="translate(123.046875 0)"/>
      <use xlink:href="#DejaVuSans-69" transform="translate(164.160156 0)"/>
      <use xlink:href="#DejaVuSans-65" transform="translate(191.943359 0)"/>
     </g>
    </g>
    <g id="line2d_15">
     <path d="M 56.961178 45.894928 
L 66.961178 45.894928 
L 76.961178 45.894928 
" style="fill: none; stroke: #ff7f0e; stroke-width: 1.5; stroke-linecap: square"/>
    </g>
    <g id="text_18">
     <!-- non_eerie -->
     <g transform="translate(84.961178 49.394928) scale(0.1 -0.1)">
      <defs>
       <path id="DejaVuSans-6f" d="M 1959 3097 
Q 1497 3097 1228 2736 
Q 959 2375 959 1747 
Q 959 1119 1226 758 
Q 1494 397 1959 397 
Q 2419 397 2687 759 
Q 2956 1122 2956 1747 
Q 2956 2369 2687 2733 
Q 2419 3097 1959 3097 
z
M 1959 3584 
Q 2709 3584 3137 3096 
Q 3566 2609 3566 1747 
Q 3566 888 3137 398 
Q 2709 -91 1959 -91 
Q 1206 -91 779 398 
Q 353 888 353 1747 
Q 353 2609 779 3096 
Q 1206 3584 1959 3584 
z
" transform="scale(0.015625)"/>
       <path id="DejaVuSans-5f" d="M 3263 -1063 
L 3263 -1509 
L -63 -1509 
L -63 -1063 
L 3263 -1063 
z
" transform="scale(0.015625)"/>
      </defs>
      <use xlink:href="#DejaVuSans-6e"/>
      <use xlink:href="#DejaVuSans-6f" transform="translate(63.378906 0)"/>
      <use xlink:href="#DejaVuSans-6e" transform="translate(124.560547 0)"/>
      <use xlink:href="#DejaVuSans-5f" transform="translate(187.939453 0)"/>
      <use xlink:href="#DejaVuSans-65" transform="translate(237.939453 0)"/>
      <use xlink:href="#DejaVuSans-65" transform="translate(299.462891 0)"/>
      <use xlink:href="#DejaVuSans-72" transform="translate(360.986328 0)"/>
      <use xlink:href="#DejaVuSans-69" transform="translate(402.099609 0)"/>
      <use xlink:href="#DejaVuSans-65" transform="translate(429.882812 0)"/>
     </g>
    </g>
   </g>
   <g id="line2d_16">
    <path d="M 47.961178 192.255444 
L 49.671401 190.905817 
L 51.381624 187.16618 
L 53.091848 185.441948 
L 54.802071 189.204347 
L 56.512294 198.564687 
L 58.222518 209.980417 
L 59.932741 218.286668 
L 61.642965 219.455622 
L 63.353188 212.70896 
L 66.773635 189.871565 
L 68.483858 184.410222 
L 70.194082 187.287281 
L 71.904305 197.078865 
L 73.614528 208.990378 
L 75.324752 217.117374 
L 77.034975 217.597231 
L 78.745199 210.714735 
L 80.455422 200.714572 
L 82.165645 193.533917 
L 83.875869 193.250406 
L 85.586092 199.952723 
L 87.296316 209.783121 
L 89.006539 217.273269 
L 90.716762 218.561661 
L 92.426986 213.080991 
L 95.847433 193.178174 
L 97.557656 185.917092 
L 99.267879 183.466688 
L 100.978103 186.319791 
L 102.688326 193.875571 
L 106.108773 214.842306 
L 107.818996 221.460437 
L 109.52922 221.469616 
L 111.239443 214.942956 
L 112.949667 205.644017 
L 114.65989 199.355666 
L 116.370113 200.687964 
L 118.080337 209.964768 
L 119.79056 222.675857 
L 121.500784 232.228074 
L 123.211007 234.10899 
L 124.92123 228.975062 
L 126.631454 222.256127 
L 128.341677 220.403723 
L 130.0519 226.608899 
L 133.472347 250.443847 
L 135.182571 256.366655 
L 136.892794 254.626183 
L 140.313241 241.44003 
L 142.023464 238.045833 
L 143.733688 237.379989 
L 145.443911 236.1571 
L 147.154134 231.492934 
L 148.864358 223.702994 
L 150.574581 216.527791 
L 152.284805 214.787336 
L 153.995028 220.843888 
L 157.415475 244.8918 
L 159.125698 251.849801 
L 160.835922 251.275945 
L 164.256368 240.0131 
L 165.966592 239.821875 
L 167.676815 246.472531 
L 169.387039 257.125025 
L 171.097262 266.185744 
L 172.807485 268.634073 
L 174.517709 262.936491 
L 177.938156 240.648805 
L 179.648379 234.872158 
L 181.358602 236.775718 
L 183.068826 244.872585 
L 184.779049 254.918697 
L 186.489273 262.524618 
L 188.199496 265.486208 
L 189.909719 264.56578 
L 191.619943 262.409254 
L 193.330166 261.121316 
L 195.04039 260.575622 
L 196.750613 258.357309 
L 198.460836 251.587347 
L 200.17106 239.529696 
L 201.881283 224.699362 
L 203.591507 211.891838 
L 205.30173 205.355303 
L 207.011953 205.988094 
L 208.722177 210.79466 
L 210.4324 214.641789 
L 212.142623 213.538485 
L 213.852847 207.027844 
L 215.56307 197.872747 
L 217.273294 189.731365 
L 218.983517 184.335375 
L 220.69374 180.670911 
L 222.403964 176.538457 
L 224.114187 171.043079 
L 225.824411 166.113029 
L 227.534634 165.350504 
L 229.244857 171.001512 
L 232.665304 191.689719 
L 234.375528 195.246475 
L 236.085751 188.921223 
L 237.795974 174.231932 
L 239.506198 156.460444 
L 241.216421 141.114458 
L 242.926645 130.699648 
L 246.347091 117.469212 
L 248.057315 108.937094 
L 251.477762 88.774161 
L 253.187985 81.603806 
L 254.898208 77.185623 
L 256.608432 73.7237 
L 258.318655 69.34436 
L 260.028879 63.990689 
L 261.739102 59.907849 
L 263.449325 59.961008 
L 265.159549 65.348736 
L 268.579996 82.817659 
L 270.290219 87.529474 
L 272.000442 87.737079 
L 273.710666 85.994229 
L 275.420889 86.115153 
L 277.131113 90.30312 
L 278.841336 97.461011 
L 280.551559 103.789349 
L 282.261783 105.530649 
L 283.972006 101.903839 
L 285.68223 95.864615 
L 287.392453 92.443356 
L 289.102676 95.30219 
L 290.8129 104.232863 
L 292.523123 115.36186 
L 294.233346 123.770798 
L 295.94357 127.133903 
L 297.653793 127.416671 
L 299.364017 129.454059 
L 301.07424 137.409879 
L 302.784463 151.37778 
L 304.494687 167.080847 
L 306.20491 178.738699 
L 307.915134 183.132592 
L 309.625357 181.927758 
L 311.33558 180.278472 
L 313.045804 182.991326 
L 314.756027 190.878878 
L 316.466251 200.056405 
L 318.176474 204.944689 
L 319.886697 202.394827 
L 321.596921 194.028553 
L 323.307144 185.072285 
L 325.017368 180.458424 
L 326.727591 181.453259 
L 328.437814 184.990847 
L 330.148038 186.26307 
L 331.858261 182.273933 
L 333.568485 173.629839 
L 335.278708 163.71826 
L 336.988931 155.836155 
L 338.699155 150.836391 
L 340.409378 147.009382 
L 342.119602 141.616645 
L 343.829825 133.047822 
L 345.540048 121.735039 
L 347.250272 109.421347 
L 348.960495 98.193906 
L 350.670719 89.490631 
L 352.380942 84.078458 
L 354.091165 82.199264 
L 355.801389 83.342635 
L 357.511612 86.024646 
L 359.221836 87.784722 
L 360.932059 86.212722 
L 362.642282 80.489909 
L 364.352506 72.159299 
L 366.062729 64.615305 
L 367.772953 61.047887 
L 369.483176 62.303468 
L 371.193399 66.308052 
L 372.903623 69.140391 
L 374.613846 67.316024 
L 376.324069 59.641767 
L 378.034293 47.601852 
L 379.744516 34.499187 
L 381.45474 23.813098 
L 383.164963 18.118365 
L 384.875186 18.512269 
L 386.58541 24.443509 
L 390.005857 44.027583 
L 391.71608 51.497561 
L 393.426303 54.460423 
L 395.136527 53.048495 
L 396.84675 49.304193 
L 398.556974 45.842758 
L 400.267197 44.216009 
L 401.97742 44.203605 
L 403.687644 44.473771 
L 407.108091 43.877198 
L 408.818314 45.383584 
L 410.528537 50.104148 
L 413.948984 64.987354 
L 415.659208 69.554671 
L 417.369431 69.573334 
L 419.079654 65.977181 
L 420.789878 61.392172 
L 422.500101 58.272877 
L 424.210325 57.430159 
L 425.920548 57.857845 
L 427.630771 58.107334 
L 431.051218 57.259846 
L 432.761442 58.276664 
L 434.471665 61.152692 
L 436.181888 64.901131 
L 437.892112 67.660253 
L 439.602335 68.197794 
L 441.312559 67.083784 
L 443.022782 66.496735 
L 444.733005 69.018326 
L 446.443229 75.790219 
L 449.863676 95.075412 
L 451.573899 100.730696 
L 453.284122 100.349699 
L 454.994346 94.500763 
L 456.704569 86.254331 
L 458.414792 79.894646 
L 460.125016 78.849958 
L 461.835239 84.150524 
L 463.545463 94.106481 
L 465.255686 105.263633 
L 466.965909 114.1685 
L 468.676133 118.740868 
L 470.386356 118.746235 
L 472.09658 115.379591 
L 475.517026 105.612184 
L 477.22725 102.447328 
L 478.937473 101.950767 
L 480.647697 104.342046 
L 482.35792 108.411881 
L 484.068143 111.614945 
L 485.778367 111.038965 
L 487.48859 105.289951 
L 489.198814 96.123923 
L 490.909037 88.202372 
L 492.61926 86.819719 
L 494.329484 94.604505 
L 497.749931 124.802821 
L 499.460154 134.315063 
L 501.170377 134.727883 
L 502.880601 128.444259 
L 504.590824 121.732268 
L 506.301048 120.812769 
L 508.011271 128.057485 
L 511.431718 154.441288 
L 513.141941 163.741556 
L 514.852165 167.241934 
L 516.562388 166.31312 
L 519.982835 160.936056 
L 521.693058 159.363175 
L 523.403282 159.08813 
L 525.113505 160.568795 
L 526.823728 164.317495 
L 528.533952 170.274488 
L 530.244175 177.11288 
L 531.954399 182.728256 
L 533.664622 185.411162 
L 535.374845 184.770646 
L 537.085069 181.866705 
L 540.505515 174.617154 
L 543.925962 168.076647 
L 545.636186 165.645962 
L 547.346409 165.305233 
L 549.056632 168.12911 
L 550.766856 174.00593 
L 552.477079 181.305073 
L 554.187303 187.892766 
L 555.897526 192.311035 
L 557.607749 194.271967 
L 559.317973 194.0718 
L 561.028196 191.452553 
L 562.73842 185.389886 
L 564.448643 175.142844 
L 566.158866 161.983755 
L 567.86909 149.947029 
L 569.579313 144.324451 
L 571.289537 148.66649 
L 572.99976 162.142827 
L 572.99976 162.142827 
" style="fill: none; stroke: #1f77b4; stroke-width: 1.5; stroke-linecap: square"/>
   </g>
   <g id="line2d_17">
    <path d="M 47.961178 188.376141 
L 51.381624 195.139833 
L 53.091848 196.378139 
L 54.802071 195.271285 
L 56.512294 193.404933 
L 58.222518 192.980456 
L 59.932741 195.304839 
L 61.642965 200.013151 
L 63.353188 205.355637 
L 65.063411 209.280116 
L 66.773635 210.596489 
L 68.483858 209.429081 
L 71.904305 204.387762 
L 73.614528 202.725733 
L 75.324752 202.014287 
L 78.745199 201.640283 
L 82.165645 200.913546 
L 83.875869 201.076645 
L 85.586092 202.27763 
L 87.296316 204.730446 
L 90.716762 211.506487 
L 92.426986 213.754687 
L 94.137209 213.987621 
L 95.847433 212.158226 
L 97.557656 209.276165 
L 99.267879 207.016986 
L 100.978103 206.871992 
L 102.688326 209.266961 
L 106.108773 217.227449 
L 107.818996 219.560484 
L 109.52922 219.811221 
L 111.239443 218.655287 
L 112.949667 217.259986 
L 114.65989 216.392811 
L 116.370113 215.937737 
L 118.080337 215.245102 
L 121.500784 212.53901 
L 123.211007 212.136938 
L 124.92123 213.600004 
L 126.631454 216.734448 
L 128.341677 220.211475 
L 130.0519 222.412341 
L 131.762124 222.645008 
L 133.472347 221.723304 
L 135.182571 221.45375 
L 136.892794 223.364527 
L 138.603017 227.577146 
L 140.313241 232.633719 
L 142.023464 236.413708 
L 143.733688 237.422035 
L 145.443911 235.554672 
L 147.154134 231.907652 
L 148.864358 227.970041 
L 150.574581 224.828153 
L 152.284805 222.939259 
L 153.995028 222.402987 
L 155.705251 223.236131 
L 157.415475 225.307956 
L 159.125698 228.02407 
L 160.835922 230.245502 
L 162.546145 230.821109 
L 164.256368 229.433976 
L 165.966592 227.086421 
L 167.676815 225.727866 
L 169.387039 226.993177 
L 171.097262 230.982296 
L 172.807485 235.982729 
L 174.517709 239.481412 
L 176.227932 239.82614 
L 177.938156 237.352096 
L 179.648379 234.17688 
L 181.358602 232.784479 
L 183.068826 234.364599 
L 186.489273 241.93076 
L 188.199496 243.837012 
L 189.909719 243.32466 
L 191.619943 241.397357 
L 193.330166 239.670174 
L 195.04039 239.109603 
L 196.750613 239.392152 
L 198.460836 239.281467 
L 200.17106 237.630995 
L 201.881283 234.225337 
L 205.30173 225.487225 
L 207.011953 221.8487 
L 208.722177 218.635705 
L 210.4324 215.035214 
L 212.142623 210.308609 
L 213.852847 204.25198 
L 215.56307 197.200389 
L 220.69374 174.608594 
L 222.403964 168.285394 
L 224.114187 164.17903 
L 225.824411 163.43343 
L 227.534634 166.342618 
L 230.955081 177.400138 
L 232.665304 180.768194 
L 234.375528 180.693511 
L 236.085751 177.788849 
L 237.795974 173.81826 
L 241.216421 166.820926 
L 242.926645 161.914394 
L 244.636868 153.436278 
L 246.347091 140.688776 
L 249.767538 109.762176 
L 251.477762 97.426836 
L 253.187985 89.375024 
L 254.898208 84.936471 
L 256.608432 82.487211 
L 258.318655 80.823456 
L 260.028879 79.927238 
L 261.739102 80.574514 
L 263.449325 83.385703 
L 265.159549 88.077392 
L 268.579996 98.711197 
L 270.290219 102.982691 
L 273.710666 110.769804 
L 275.420889 115.591719 
L 277.131113 121.238211 
L 280.551559 133.114692 
L 282.261783 138.031441 
L 283.972006 141.267358 
L 285.68223 142.144784 
L 287.392453 140.484385 
L 290.8129 133.687275 
L 292.523123 132.379203 
L 294.233346 134.47206 
L 295.94357 139.769284 
L 299.364017 153.421677 
L 301.07424 158.678854 
L 304.494687 166.673285 
L 306.20491 171.57793 
L 309.625357 183.425672 
L 311.33558 187.865628 
L 313.045804 189.785504 
L 314.756027 189.13163 
L 316.466251 186.80349 
L 318.176474 184.0661 
L 319.886697 181.932913 
L 321.596921 180.809717 
L 323.307144 180.473034 
L 325.017368 180.408177 
L 326.727591 180.194119 
L 328.437814 179.79607 
L 330.148038 179.590767 
L 331.858261 180.107375 
L 333.568485 181.641429 
L 336.988931 186.381148 
L 338.699155 188.131554 
L 340.409378 188.862204 
L 343.829825 188.721531 
L 345.540048 188.96046 
L 348.960495 190.134891 
L 350.670719 190.347202 
L 354.091165 189.996728 
L 355.801389 189.816074 
L 357.511612 189.249287 
L 359.221836 187.522236 
L 360.932059 184.186163 
L 364.352506 175.465244 
L 366.062729 172.903035 
L 367.772953 172.539058 
L 369.483176 173.4579 
L 371.193399 173.853821 
L 372.903623 172.226056 
L 374.613846 168.377458 
L 376.324069 163.46293 
L 378.034293 159.197964 
L 379.744516 156.741142 
L 381.45474 156.103352 
L 383.164963 156.39755 
L 384.875186 156.569847 
L 386.58541 156.093235 
L 390.005857 154.014835 
L 391.71608 153.288009 
L 393.426303 153.017934 
L 395.136527 153.094838 
L 396.84675 153.284468 
L 398.556974 153.261793 
L 400.267197 152.680638 
L 401.97742 151.297238 
L 403.687644 149.174449 
L 405.397867 146.757133 
L 407.108091 144.634555 
L 408.818314 143.146708 
L 412.238761 141.037091 
L 413.948984 139.691449 
L 415.659208 138.571839 
L 417.369431 138.786413 
L 419.079654 141.283937 
L 420.789878 145.98656 
L 422.500101 151.542459 
L 424.210325 156.024263 
L 425.920548 158.110493 
L 427.630771 157.924287 
L 429.340995 156.916658 
L 431.051218 156.866523 
L 432.761442 158.703011 
L 434.471665 162.080298 
L 436.181888 165.846747 
L 437.892112 169.023871 
L 439.602335 171.400102 
L 443.022782 175.281029 
L 444.733005 176.897456 
L 446.443229 177.541308 
L 448.153452 176.812592 
L 449.863676 175.181536 
L 451.573899 173.991656 
L 453.284122 174.663203 
L 454.994346 177.730706 
L 458.414792 186.968008 
L 460.125016 189.633706 
L 461.835239 189.550504 
L 463.545463 187.105868 
L 465.255686 183.646848 
L 466.965909 180.733411 
L 468.676133 179.564863 
L 470.386356 180.729098 
L 472.09658 184.164649 
L 473.806803 189.275504 
L 475.517026 195.003237 
L 477.22725 199.974459 
L 478.937473 202.786715 
L 480.647697 202.452935 
L 482.35792 198.869322 
L 484.068143 193.029967 
L 485.778367 186.769272 
L 487.48859 182.111765 
L 489.198814 180.494665 
L 490.909037 182.159804 
L 492.61926 186.078251 
L 494.329484 190.468688 
L 496.039707 193.647483 
L 497.749931 194.833692 
L 501.170377 194.103645 
L 502.880601 195.089007 
L 504.590824 198.072301 
L 506.301048 202.276693 
L 508.011271 205.908875 
L 509.721494 207.225627 
L 511.431718 205.627047 
L 514.852165 198.882928 
L 516.562388 197.829197 
L 518.272611 199.658645 
L 521.693058 207.245872 
L 523.403282 209.555998 
L 525.113505 209.968088 
L 528.533952 208.619251 
L 530.244175 208.636066 
L 531.954399 209.123057 
L 533.664622 209.473961 
L 537.085069 209.316928 
L 538.795292 209.834978 
L 540.505515 211.089771 
L 542.215739 212.182935 
L 543.925962 211.590783 
L 545.636186 208.251501 
L 549.056632 196.666969 
L 550.766856 193.061092 
L 552.477079 193.398806 
L 554.187303 197.280908 
L 555.897526 202.45323 
L 557.607749 206.104736 
L 559.317973 206.372663 
L 561.028196 203.193616 
L 564.448643 193.184593 
L 566.158866 190.181158 
L 567.86909 189.854851 
L 569.579313 192.132826 
L 571.289537 196.428463 
L 572.99976 201.873499 
L 572.99976 201.873499 
" style="fill: none; stroke: #ff7f0e; stroke-width: 1.5; stroke-linecap: square"/>
   </g>
  </g>
  <g id="axes_2">
   <g id="PathCollection_1">
    <defs>
     <path id="C0_0_90a3faba7b" d="M 0 1.118034 
C 0.296506 1.118034 0.580908 1.000231 0.790569 0.790569 
C 1.000231 0.580908 1.118034 0.296506 1.118034 -0 
C 1.118034 -0.296506 1.000231 -0.580908 0.790569 -0.790569 
C 0.580908 -1.000231 0.296506 -1.118034 0 -1.118034 
C -0.296506 -1.118034 -0.580908 -1.000231 -0.790569 -0.790569 
C -1.000231 -0.580908 -1.118034 -0.296506 -1.118034 0 
C -1.118034 0.296506 -1.000231 0.580908 -0.790569 0.790569 
C -0.580908 1.000231 -0.296506 1.118034 0 1.118034 
z
"/>
    </defs>
    <g clip-path="url(#pd35993a7e0)">
     <use xlink:href="#C0_0_90a3faba7b" x="520.230657" y="76.413034" style="stroke: #000000"/>
    </g>
    <g clip-path="url(#pd35993a7e0)">
     <use xlink:href="#C0_0_90a3faba7b" x="520.173391" y="85.798847" style="stroke: #000000"/>
    </g>
    <g clip-path="url(#pd35993a7e0)">
     <use xlink:href="#C0_0_90a3faba7b" x="520.268501" y="66.305375" style="stroke: #000000"/>
    </g>
   </g>
   <g id="matplotlib.axis_3"/>
   <g id="matplotlib.axis_4"/>
   <g id="line2d_18">
    <path d="M 559.993821 73.636051 
L 559.916151 71.16458 
L 559.683451 68.702863 
L 559.296637 66.260616 
L 558.757236 63.847476 
L 558.067377 61.472966 
L 557.229783 59.146459 
L 556.247759 56.877136 
L 555.125181 54.673953 
L 553.866479 52.545604 
L 552.476621 50.50049 
L 550.961092 48.546681 
L 549.325872 46.691888 
L 547.577416 44.943432 
L 545.722623 43.308212 
L 543.768814 41.792683 
L 541.7237 40.402824 
L 539.595351 39.144122 
L 537.392168 38.021544 
L 535.122844 37.03952 
L 532.796337 36.201926 
L 530.421828 35.512068 
L 528.008688 34.972667 
L 525.56644 34.585853 
L 523.104723 34.353152 
L 520.633253 34.275483 
L 518.161782 34.353152 
L 515.700066 34.585853 
L 513.257818 34.972667 
L 510.844678 35.512068 
L 508.470169 36.201926 
L 506.143662 37.03952 
L 503.874338 38.021544 
L 501.671155 39.144122 
L 499.542806 40.402824 
L 497.497692 41.792683 
L 495.543883 43.308212 
L 493.68909 44.943432 
L 491.940634 46.691888 
L 490.305414 48.546681 
L 488.789885 50.50049 
L 487.400026 52.545604 
L 486.141325 54.673953 
L 485.018747 56.877136 
L 484.036723 59.146459 
L 483.199129 61.472966 
L 482.50927 63.847476 
L 481.969869 66.260616 
L 481.583055 68.702863 
L 481.350354 71.16458 
L 481.272685 73.636051 
L 481.350354 76.107521 
L 481.583055 78.569238 
L 481.969869 81.011486 
L 482.50927 83.424626 
L 483.199129 85.799135 
L 484.036723 88.125642 
L 485.018747 90.394965 
L 486.141325 92.598149 
L 487.400026 94.726498 
L 488.789885 96.771612 
L 490.305414 98.725421 
L 491.940634 100.580213 
L 493.68909 102.32867 
L 495.543883 103.963889 
L 497.497692 105.479419 
L 499.542806 106.869277 
L 501.671155 108.127979 
L 503.874338 109.250557 
L 506.143662 110.232581 
L 508.470169 111.070175 
L 510.844678 111.760034 
L 513.257818 112.299434 
L 515.700066 112.686249 
L 518.161782 112.918949 
L 520.633253 112.996618 
L 523.104723 112.918949 
L 525.56644 112.686249 
L 528.008688 112.299434 
L 530.421828 111.760034 
L 532.796337 111.070175 
L 535.122844 110.232581 
L 537.392168 109.250557 
L 539.595351 108.127979 
L 541.7237 106.869277 
L 543.768814 105.479419 
L 545.722623 103.963889 
L 547.577416 102.32867 
L 549.325872 100.580213 
L 550.961092 98.725421 
L 552.476621 96.771612 
L 553.866479 94.726498 
L 555.125181 92.598149 
L 556.247759 90.394965 
L 557.229783 88.125642 
L 558.067377 85.799135 
L 558.757236 83.424626 
L 559.296637 81.011486 
L 559.683451 78.569238 
L 559.916151 76.107521 
L 559.993821 73.636051 
" style="fill: none; stroke: #000000; stroke-linecap: square"/>
   </g>
   <g id="line2d_19">
    <path d="M 512.389595 35.148437 
L 520.633253 28.371398 
L 528.876911 35.148437 
" style="fill: none; stroke: #000000; stroke-linecap: square"/>
   </g>
   <g id="line2d_20">
    <path d="M 481.508849 69.267028 
L 480.485474 67.535163 
L 479.855705 67.472186 
L 478.918923 67.763454 
L 477.97427 69.267028 
L 478.12384 74.069017 
L 477.572792 80.972861 
L 478.753609 83.972136 
L 480.485474 84.531056 
L 482.138618 83.074715 
" style="fill: none; stroke: #000000; stroke-linecap: square"/>
   </g>
   <g id="line2d_21">
    <path d="M 559.757657 69.267028 
L 560.781032 67.535163 
L 561.410801 67.472186 
L 562.347582 67.763454 
L 563.292236 69.267028 
L 563.142666 74.069017 
L 563.693714 80.972861 
L 562.512897 83.972136 
L 560.781032 84.531056 
L 559.127888 83.074715 
" style="fill: none; stroke: #000000; stroke-linecap: square"/>
   </g>
  </g>
 </g>
 <defs>
  <clipPath id="pf67bd6cdc7">
   <rect x="47.961178" y="18.118365" width="525.038583" height="380.525145"/>
  </clipPath>
  <clipPath id="pd35993a7e0">
   <rect x="473.266746" y="24.140137" width="94.733014" height="93.087742"/>
  </clipPath>
 </defs>
</svg>
