<?xml version="1.0" encoding="utf-8" standalone="no"?>
<!DOCTYPE svg PUBLIC "-//W3C//DTD SVG 1.1//EN"
  "http://www.w3.org/Graphics/SVG/1.1/DTD/svg11.dtd">
<svg xmlns:xlink="http://www.w3.org/1999/xlink" width="576pt" height="432pt" viewBox="0 0 576 432" xmlns="http://www.w3.org/2000/svg" version="1.1">
 <metadata>
  <rdf:RDF xmlns:dc="http://purl.org/dc/elements/1.1/" xmlns:cc="http://creativecommons.org/ns#" xmlns:rdf="http://www.w3.org/1999/02/22-rdf-syntax-ns#">
   <cc:Work>
    <dc:type rdf:resource="http://purl.org/dc/dcmitype/StillImage"/>
    <dc:date>2025-02-12T21:12:23.738159</dc:date>
    <dc:format>image/svg+xml</dc:format>
    <dc:creator>
     <cc:Agent>
      <dc:title>Matplotlib v3.10.0, https://matplotlib.org/</dc:title>
     </cc:Agent>
    </dc:creator>
   </cc:Work>
  </rdf:RDF>
 </metadata>
 <defs>
  <style type="text/css">*{stroke-linejoin: round; stroke-linecap: butt}</style>
 </defs>
 <g id="figure_1">
  <g id="patch_1">
   <path d="M 0 432 
L 576 432 
L 576 0 
L 0 0 
z
" style="fill: #ffffff"/>
  </g>
  <g id="axes_1">
   <g id="patch_2">
    <path d="M 47.961178 398.64351 
L 572.99976 398.64351 
L 572.99976 18.118365 
L 47.961178 18.118365 
L 47.961178 398.64351 
z
" style="fill: none; opacity: 0"/>
   </g>
   <g id="patch_3">
    <path d="M 47.961178 351.267315 
L 47.961178 65.49456 
" style="fill: none; stroke: #000000; stroke-width: 0.8; stroke-linejoin: miter; stroke-linecap: square"/>
   </g>
   <g id="LineCollection_1">
    <path d="M 192.098805 18.118365 
L 192.098805 398.64351 
" clip-path="url(#pdc5b7d850c)" style="fill: none; stroke-dasharray: 3.7,1.6; stroke-dashoffset: 0; stroke: #000000"/>
    <path d="M 218.367837 18.118365 
L 218.367837 398.64351 
" clip-path="url(#pdc5b7d850c)" style="fill: none; stroke-dasharray: 3.7,1.6; stroke-dashoffset: 0; stroke: #000000"/>
   </g>
   <g id="matplotlib.axis_1">
    <g id="xtick_1">
     <g id="line2d_1">
      <defs>
       <path id="m842f25241f" d="M 0 0 
L 0 3.5 
" style="stroke: #000000; stroke-width: 0.8"/>
      </defs>
      <g>
       <use xlink:href="#m842f25241f" x="73.888164" y="398.64351" style="stroke: #000000; stroke-width: 0.8"/>
      </g>
     </g>
     <g id="text_1">
      <!-- −0.20 -->
      <g transform="translate(58.565508 413.241947) scale(0.1 -0.1)">
       <defs>
        <path id="DejaVuSans-2212" d="M 678 2272 
L 4684 2272 
L 4684 1741 
L 678 1741 
L 678 2272 
z
" transform="scale(0.015625)"/>
        <path id="DejaVuSans-30" d="M 2034 4250 
Q 1547 4250 1301 3770 
Q 1056 3291 1056 2328 
Q 1056 1369 1301 889 
Q 1547 409 2034 409 
Q 2525 409 2770 889 
Q 3016 1369 3016 2328 
Q 3016 3291 2770 3770 
Q 2525 4250 2034 4250 
z
M 2034 4750 
Q 2819 4750 3233 4129 
Q 3647 3509 3647 2328 
Q 3647 1150 3233 529 
Q 2819 -91 2034 -91 
Q 1250 -91 836 529 
Q 422 1150 422 2328 
Q 422 3509 836 4129 
Q 1250 4750 2034 4750 
z
" transform="scale(0.015625)"/>
        <path id="DejaVuSans-2e" d="M 684 794 
L 1344 794 
L 1344 0 
L 684 0 
L 684 794 
z
" transform="scale(0.015625)"/>
        <path id="DejaVuSans-32" d="M 1228 531 
L 3431 531 
L 3431 0 
L 469 0 
L 469 531 
Q 828 903 1448 1529 
Q 2069 2156 2228 2338 
Q 2531 2678 2651 2914 
Q 2772 3150 2772 3378 
Q 2772 3750 2511 3984 
Q 2250 4219 1831 4219 
Q 1534 4219 1204 4116 
Q 875 4013 500 3803 
L 500 4441 
Q 881 4594 1212 4672 
Q 1544 4750 1819 4750 
Q 2544 4750 2975 4387 
Q 3406 4025 3406 3419 
Q 3406 3131 3298 2873 
Q 3191 2616 2906 2266 
Q 2828 2175 2409 1742 
Q 1991 1309 1228 531 
z
" transform="scale(0.015625)"/>
       </defs>
       <use xlink:href="#DejaVuSans-2212"/>
       <use xlink:href="#DejaVuSans-30" transform="translate(83.789062 0)"/>
       <use xlink:href="#DejaVuSans-2e" transform="translate(147.412109 0)"/>
       <use xlink:href="#DejaVuSans-32" transform="translate(179.199219 0)"/>
       <use xlink:href="#DejaVuSans-30" transform="translate(242.822266 0)"/>
      </g>
     </g>
    </g>
    <g id="xtick_2">
     <g id="line2d_2">
      <g>
       <use xlink:href="#m842f25241f" x="161.451602" y="398.64351" style="stroke: #000000; stroke-width: 0.8"/>
      </g>
     </g>
     <g id="text_2">
      <!-- 0.00 -->
      <g transform="translate(150.31879 413.241947) scale(0.1 -0.1)">
       <use xlink:href="#DejaVuSans-30"/>
       <use xlink:href="#DejaVuSans-2e" transform="translate(63.623047 0)"/>
       <use xlink:href="#DejaVuSans-30" transform="translate(95.410156 0)"/>
       <use xlink:href="#DejaVuSans-30" transform="translate(159.033203 0)"/>
      </g>
     </g>
    </g>
    <g id="xtick_3">
     <g id="line2d_3">
      <g>
       <use xlink:href="#m842f25241f" x="192.098805" y="398.64351" style="stroke: #000000; stroke-width: 0.8"/>
      </g>
     </g>
     <g id="text_3">
      <!-- 0.07 -->
      <g transform="translate(180.965993 413.241947) scale(0.1 -0.1)">
       <defs>
        <path id="DejaVuSans-37" d="M 525 4666 
L 3525 4666 
L 3525 4397 
L 1831 0 
L 1172 0 
L 2766 4134 
L 525 4134 
L 525 4666 
z
" transform="scale(0.015625)"/>
       </defs>
       <use xlink:href="#DejaVuSans-30"/>
       <use xlink:href="#DejaVuSans-2e" transform="translate(63.623047 0)"/>
       <use xlink:href="#DejaVuSans-30" transform="translate(95.410156 0)"/>
       <use xlink:href="#DejaVuSans-37" transform="translate(159.033203 0)"/>
      </g>
     </g>
    </g>
    <g id="xtick_4">
     <g id="line2d_4">
      <g>
       <use xlink:href="#m842f25241f" x="218.367837" y="398.64351" style="stroke: #000000; stroke-width: 0.8"/>
      </g>
     </g>
     <g id="text_4">
      <!-- 0.13 -->
      <g transform="translate(207.235024 413.241947) scale(0.1 -0.1)">
       <defs>
        <path id="DejaVuSans-31" d="M 794 531 
L 1825 531 
L 1825 4091 
L 703 3866 
L 703 4441 
L 1819 4666 
L 2450 4666 
L 2450 531 
L 3481 531 
L 3481 0 
L 794 0 
L 794 531 
z
" transform="scale(0.015625)"/>
        <path id="DejaVuSans-33" d="M 2597 2516 
Q 3050 2419 3304 2112 
Q 3559 1806 3559 1356 
Q 3559 666 3084 287 
Q 2609 -91 1734 -91 
Q 1441 -91 1130 -33 
Q 819 25 488 141 
L 488 750 
Q 750 597 1062 519 
Q 1375 441 1716 441 
Q 2309 441 2620 675 
Q 2931 909 2931 1356 
Q 2931 1769 2642 2001 
Q 2353 2234 1838 2234 
L 1294 2234 
L 1294 2753 
L 1863 2753 
Q 2328 2753 2575 2939 
Q 2822 3125 2822 3475 
Q 2822 3834 2567 4026 
Q 2313 4219 1838 4219 
Q 1578 4219 1281 4162 
Q 984 4106 628 3988 
L 628 4550 
Q 988 4650 1302 4700 
Q 1616 4750 1894 4750 
Q 2613 4750 3031 4423 
Q 3450 4097 3450 3541 
Q 3450 3153 3228 2886 
Q 3006 2619 2597 2516 
z
" transform="scale(0.015625)"/>
       </defs>
       <use xlink:href="#DejaVuSans-30"/>
       <use xlink:href="#DejaVuSans-2e" transform="translate(63.623047 0)"/>
       <use xlink:href="#DejaVuSans-31" transform="translate(95.410156 0)"/>
       <use xlink:href="#DejaVuSans-33" transform="translate(159.033203 0)"/>
      </g>
     </g>
    </g>
    <g id="xtick_5">
     <g id="line2d_5">
      <g>
       <use xlink:href="#m842f25241f" x="249.01504" y="398.64351" style="stroke: #000000; stroke-width: 0.8"/>
      </g>
     </g>
     <g id="text_5">
      <!-- 0.20 -->
      <g transform="translate(237.882227 413.241947) scale(0.1 -0.1)">
       <use xlink:href="#DejaVuSans-30"/>
       <use xlink:href="#DejaVuSans-2e" transform="translate(63.623047 0)"/>
       <use xlink:href="#DejaVuSans-32" transform="translate(95.410156 0)"/>
       <use xlink:href="#DejaVuSans-30" transform="translate(159.033203 0)"/>
      </g>
     </g>
    </g>
    <g id="xtick_6">
     <g id="line2d_6">
      <g>
       <use xlink:href="#m842f25241f" x="336.578478" y="398.64351" style="stroke: #000000; stroke-width: 0.8"/>
      </g>
     </g>
     <g id="text_6">
      <!-- 0.40 -->
      <g transform="translate(325.445665 413.241947) scale(0.1 -0.1)">
       <defs>
        <path id="DejaVuSans-34" d="M 2419 4116 
L 825 1625 
L 2419 1625 
L 2419 4116 
z
M 2253 4666 
L 3047 4666 
L 3047 1625 
L 3713 1625 
L 3713 1100 
L 3047 1100 
L 3047 0 
L 2419 0 
L 2419 1100 
L 313 1100 
L 313 1709 
L 2253 4666 
z
" transform="scale(0.015625)"/>
       </defs>
       <use xlink:href="#DejaVuSans-30"/>
       <use xlink:href="#DejaVuSans-2e" transform="translate(63.623047 0)"/>
       <use xlink:href="#DejaVuSans-34" transform="translate(95.410156 0)"/>
       <use xlink:href="#DejaVuSans-30" transform="translate(159.033203 0)"/>
      </g>
     </g>
    </g>
    <g id="xtick_7">
     <g id="line2d_7">
      <g>
       <use xlink:href="#m842f25241f" x="424.141916" y="398.64351" style="stroke: #000000; stroke-width: 0.8"/>
      </g>
     </g>
     <g id="text_7">
      <!-- 0.60 -->
      <g transform="translate(413.009103 413.241947) scale(0.1 -0.1)">
       <defs>
        <path id="DejaVuSans-36" d="M 2113 2584 
Q 1688 2584 1439 2293 
Q 1191 2003 1191 1497 
Q 1191 994 1439 701 
Q 1688 409 2113 409 
Q 2538 409 2786 701 
Q 3034 994 3034 1497 
Q 3034 2003 2786 2293 
Q 2538 2584 2113 2584 
z
M 3366 4563 
L 3366 3988 
Q 3128 4100 2886 4159 
Q 2644 4219 2406 4219 
Q 1781 4219 1451 3797 
Q 1122 3375 1075 2522 
Q 1259 2794 1537 2939 
Q 1816 3084 2150 3084 
Q 2853 3084 3261 2657 
Q 3669 2231 3669 1497 
Q 3669 778 3244 343 
Q 2819 -91 2113 -91 
Q 1303 -91 875 529 
Q 447 1150 447 2328 
Q 447 3434 972 4092 
Q 1497 4750 2381 4750 
Q 2619 4750 2861 4703 
Q 3103 4656 3366 4563 
z
" transform="scale(0.015625)"/>
       </defs>
       <use xlink:href="#DejaVuSans-30"/>
       <use xlink:href="#DejaVuSans-2e" transform="translate(63.623047 0)"/>
       <use xlink:href="#DejaVuSans-36" transform="translate(95.410156 0)"/>
       <use xlink:href="#DejaVuSans-30" transform="translate(159.033203 0)"/>
      </g>
     </g>
    </g>
    <g id="xtick_8">
     <g id="line2d_8">
      <g>
       <use xlink:href="#m842f25241f" x="511.705353" y="398.64351" style="stroke: #000000; stroke-width: 0.8"/>
      </g>
     </g>
     <g id="text_8">
      <!-- 0.80 -->
      <g transform="translate(500.572541 413.241947) scale(0.1 -0.1)">
       <defs>
        <path id="DejaVuSans-38" d="M 2034 2216 
Q 1584 2216 1326 1975 
Q 1069 1734 1069 1313 
Q 1069 891 1326 650 
Q 1584 409 2034 409 
Q 2484 409 2743 651 
Q 3003 894 3003 1313 
Q 3003 1734 2745 1975 
Q 2488 2216 2034 2216 
z
M 1403 2484 
Q 997 2584 770 2862 
Q 544 3141 544 3541 
Q 544 4100 942 4425 
Q 1341 4750 2034 4750 
Q 2731 4750 3128 4425 
Q 3525 4100 3525 3541 
Q 3525 3141 3298 2862 
Q 3072 2584 2669 2484 
Q 3125 2378 3379 2068 
Q 3634 1759 3634 1313 
Q 3634 634 3220 271 
Q 2806 -91 2034 -91 
Q 1263 -91 848 271 
Q 434 634 434 1313 
Q 434 1759 690 2068 
Q 947 2378 1403 2484 
z
M 1172 3481 
Q 1172 3119 1398 2916 
Q 1625 2713 2034 2713 
Q 2441 2713 2670 2916 
Q 2900 3119 2900 3481 
Q 2900 3844 2670 4047 
Q 2441 4250 2034 4250 
Q 1625 4250 1398 4047 
Q 1172 3844 1172 3481 
z
" transform="scale(0.015625)"/>
       </defs>
       <use xlink:href="#DejaVuSans-30"/>
       <use xlink:href="#DejaVuSans-2e" transform="translate(63.623047 0)"/>
       <use xlink:href="#DejaVuSans-38" transform="translate(95.410156 0)"/>
       <use xlink:href="#DejaVuSans-30" transform="translate(159.033203 0)"/>
      </g>
     </g>
    </g>
    <g id="text_9">
     <!-- Time (s) -->
     <g transform="translate(290.151563 426.920073) scale(0.1 -0.1)">
      <defs>
       <path id="DejaVuSans-54" d="M -19 4666 
L 3928 4666 
L 3928 4134 
L 2272 4134 
L 2272 0 
L 1638 0 
L 1638 4134 
L -19 4134 
L -19 4666 
z
" transform="scale(0.015625)"/>
       <path id="DejaVuSans-69" d="M 603 3500 
L 1178 3500 
L 1178 0 
L 603 0 
L 603 3500 
z
M 603 4863 
L 1178 4863 
L 1178 4134 
L 603 4134 
L 603 4863 
z
" transform="scale(0.015625)"/>
       <path id="DejaVuSans-6d" d="M 3328 2828 
Q 3544 3216 3844 3400 
Q 4144 3584 4550 3584 
Q 5097 3584 5394 3201 
Q 5691 2819 5691 2113 
L 5691 0 
L 5113 0 
L 5113 2094 
Q 5113 2597 4934 2840 
Q 4756 3084 4391 3084 
Q 3944 3084 3684 2787 
Q 3425 2491 3425 1978 
L 3425 0 
L 2847 0 
L 2847 2094 
Q 2847 2600 2669 2842 
Q 2491 3084 2119 3084 
Q 1678 3084 1418 2786 
Q 1159 2488 1159 1978 
L 1159 0 
L 581 0 
L 581 3500 
L 1159 3500 
L 1159 2956 
Q 1356 3278 1631 3431 
Q 1906 3584 2284 3584 
Q 2666 3584 2933 3390 
Q 3200 3197 3328 2828 
z
" transform="scale(0.015625)"/>
       <path id="DejaVuSans-65" d="M 3597 1894 
L 3597 1613 
L 953 1613 
Q 991 1019 1311 708 
Q 1631 397 2203 397 
Q 2534 397 2845 478 
Q 3156 559 3463 722 
L 3463 178 
Q 3153 47 2828 -22 
Q 2503 -91 2169 -91 
Q 1331 -91 842 396 
Q 353 884 353 1716 
Q 353 2575 817 3079 
Q 1281 3584 2069 3584 
Q 2775 3584 3186 3129 
Q 3597 2675 3597 1894 
z
M 3022 2063 
Q 3016 2534 2758 2815 
Q 2500 3097 2075 3097 
Q 1594 3097 1305 2825 
Q 1016 2553 972 2059 
L 3022 2063 
z
" transform="scale(0.015625)"/>
       <path id="DejaVuSans-20" transform="scale(0.015625)"/>
       <path id="DejaVuSans-28" d="M 1984 4856 
Q 1566 4138 1362 3434 
Q 1159 2731 1159 2009 
Q 1159 1288 1364 580 
Q 1569 -128 1984 -844 
L 1484 -844 
Q 1016 -109 783 600 
Q 550 1309 550 2009 
Q 550 2706 781 3412 
Q 1013 4119 1484 4856 
L 1984 4856 
z
" transform="scale(0.015625)"/>
       <path id="DejaVuSans-73" d="M 2834 3397 
L 2834 2853 
Q 2591 2978 2328 3040 
Q 2066 3103 1784 3103 
Q 1356 3103 1142 2972 
Q 928 2841 928 2578 
Q 928 2378 1081 2264 
Q 1234 2150 1697 2047 
L 1894 2003 
Q 2506 1872 2764 1633 
Q 3022 1394 3022 966 
Q 3022 478 2636 193 
Q 2250 -91 1575 -91 
Q 1294 -91 989 -36 
Q 684 19 347 128 
L 347 722 
Q 666 556 975 473 
Q 1284 391 1588 391 
Q 1994 391 2212 530 
Q 2431 669 2431 922 
Q 2431 1156 2273 1281 
Q 2116 1406 1581 1522 
L 1381 1569 
Q 847 1681 609 1914 
Q 372 2147 372 2553 
Q 372 3047 722 3315 
Q 1072 3584 1716 3584 
Q 2034 3584 2315 3537 
Q 2597 3491 2834 3397 
z
" transform="scale(0.015625)"/>
       <path id="DejaVuSans-29" d="M 513 4856 
L 1013 4856 
Q 1481 4119 1714 3412 
Q 1947 2706 1947 2009 
Q 1947 1309 1714 600 
Q 1481 -109 1013 -844 
L 513 -844 
Q 928 -128 1133 580 
Q 1338 1288 1338 2009 
Q 1338 2731 1133 3434 
Q 928 4138 513 4856 
z
" transform="scale(0.015625)"/>
      </defs>
      <use xlink:href="#DejaVuSans-54"/>
      <use xlink:href="#DejaVuSans-69" transform="translate(57.958984 0)"/>
      <use xlink:href="#DejaVuSans-6d" transform="translate(85.742188 0)"/>
      <use xlink:href="#DejaVuSans-65" transform="translate(183.154297 0)"/>
      <use xlink:href="#DejaVuSans-20" transform="translate(244.677734 0)"/>
      <use xlink:href="#DejaVuSans-28" transform="translate(276.464844 0)"/>
      <use xlink:href="#DejaVuSans-73" transform="translate(315.478516 0)"/>
      <use xlink:href="#DejaVuSans-29" transform="translate(367.578125 0)"/>
     </g>
    </g>
   </g>
   <g id="matplotlib.axis_2">
    <g id="ytick_1">
     <g id="line2d_9">
      <defs>
       <path id="m483f881dc9" d="M 0 0 
L -3.5 0 
" style="stroke: #000000; stroke-width: 0.8"/>
      </defs>
      <g>
       <use xlink:href="#m483f881dc9" x="47.961178" y="351.267315" style="stroke: #000000; stroke-width: 0.8"/>
      </g>
     </g>
     <g id="text_10">
      <!-- −7.5 -->
      <g transform="translate(16.678365 355.066534) scale(0.1 -0.1)">
       <defs>
        <path id="DejaVuSans-35" d="M 691 4666 
L 3169 4666 
L 3169 4134 
L 1269 4134 
L 1269 2991 
Q 1406 3038 1543 3061 
Q 1681 3084 1819 3084 
Q 2600 3084 3056 2656 
Q 3513 2228 3513 1497 
Q 3513 744 3044 326 
Q 2575 -91 1722 -91 
Q 1428 -91 1123 -41 
Q 819 9 494 109 
L 494 744 
Q 775 591 1075 516 
Q 1375 441 1709 441 
Q 2250 441 2565 725 
Q 2881 1009 2881 1497 
Q 2881 1984 2565 2268 
Q 2250 2553 1709 2553 
Q 1456 2553 1204 2497 
Q 953 2441 691 2322 
L 691 4666 
z
" transform="scale(0.015625)"/>
       </defs>
       <use xlink:href="#DejaVuSans-2212"/>
       <use xlink:href="#DejaVuSans-37" transform="translate(83.789062 0)"/>
       <use xlink:href="#DejaVuSans-2e" transform="translate(147.412109 0)"/>
       <use xlink:href="#DejaVuSans-35" transform="translate(179.199219 0)"/>
      </g>
     </g>
    </g>
    <g id="ytick_2">
     <g id="line2d_10">
      <g>
       <use xlink:href="#m483f881dc9" x="47.961178" y="303.638523" style="stroke: #000000; stroke-width: 0.8"/>
      </g>
     </g>
     <g id="text_11">
      <!-- −5.0 -->
      <g transform="translate(16.678365 307.437741) scale(0.1 -0.1)">
       <use xlink:href="#DejaVuSans-2212"/>
       <use xlink:href="#DejaVuSans-35" transform="translate(83.789062 0)"/>
       <use xlink:href="#DejaVuSans-2e" transform="translate(147.412109 0)"/>
       <use xlink:href="#DejaVuSans-30" transform="translate(179.199219 0)"/>
      </g>
     </g>
    </g>
    <g id="ytick_3">
     <g id="line2d_11">
      <g>
       <use xlink:href="#m483f881dc9" x="47.961178" y="256.00973" style="stroke: #000000; stroke-width: 0.8"/>
      </g>
     </g>
     <g id="text_12">
      <!-- −2.5 -->
      <g transform="translate(16.678365 259.808949) scale(0.1 -0.1)">
       <use xlink:href="#DejaVuSans-2212"/>
       <use xlink:href="#DejaVuSans-32" transform="translate(83.789062 0)"/>
       <use xlink:href="#DejaVuSans-2e" transform="translate(147.412109 0)"/>
       <use xlink:href="#DejaVuSans-35" transform="translate(179.199219 0)"/>
      </g>
     </g>
    </g>
    <g id="ytick_4">
     <g id="line2d_12">
      <g>
       <use xlink:href="#m483f881dc9" x="47.961178" y="208.380937" style="stroke: #000000; stroke-width: 0.8"/>
      </g>
     </g>
     <g id="text_13">
      <!-- 0.0 -->
      <g transform="translate(25.058053 212.180156) scale(0.1 -0.1)">
       <use xlink:href="#DejaVuSans-30"/>
       <use xlink:href="#DejaVuSans-2e" transform="translate(63.623047 0)"/>
       <use xlink:href="#DejaVuSans-30" transform="translate(95.410156 0)"/>
      </g>
     </g>
    </g>
    <g id="ytick_5">
     <g id="line2d_13">
      <g>
       <use xlink:href="#m483f881dc9" x="47.961178" y="160.752145" style="stroke: #000000; stroke-width: 0.8"/>
      </g>
     </g>
     <g id="text_14">
      <!-- 2.5 -->
      <g transform="translate(25.058053 164.551364) scale(0.1 -0.1)">
       <use xlink:href="#DejaVuSans-32"/>
       <use xlink:href="#DejaVuSans-2e" transform="translate(63.623047 0)"/>
       <use xlink:href="#DejaVuSans-35" transform="translate(95.410156 0)"/>
      </g>
     </g>
    </g>
    <g id="ytick_6">
     <g id="line2d_14">
      <g>
       <use xlink:href="#m483f881dc9" x="47.961178" y="113.123352" style="stroke: #000000; stroke-width: 0.8"/>
      </g>
     </g>
     <g id="text_15">
      <!-- 5.0 -->
      <g transform="translate(25.058053 116.922571) scale(0.1 -0.1)">
       <use xlink:href="#DejaVuSans-35"/>
       <use xlink:href="#DejaVuSans-2e" transform="translate(63.623047 0)"/>
       <use xlink:href="#DejaVuSans-30" transform="translate(95.410156 0)"/>
      </g>
     </g>
    </g>
    <g id="ytick_7">
     <g id="line2d_15">
      <g>
       <use xlink:href="#m483f881dc9" x="47.961178" y="65.49456" style="stroke: #000000; stroke-width: 0.8"/>
      </g>
     </g>
     <g id="text_16">
      <!-- 7.5 -->
      <g transform="translate(25.058053 69.293778) scale(0.1 -0.1)">
       <use xlink:href="#DejaVuSans-37"/>
       <use xlink:href="#DejaVuSans-2e" transform="translate(63.623047 0)"/>
       <use xlink:href="#DejaVuSans-35" transform="translate(95.410156 0)"/>
      </g>
     </g>
    </g>
    <g id="text_17">
     <!-- µV -->
     <g transform="translate(10.598678 214.9825) rotate(-90) scale(0.1 -0.1)">
      <defs>
       <path id="DejaVuSans-b5" d="M 544 -1331 
L 544 3500 
L 1119 3500 
L 1119 1325 
Q 1119 872 1334 640 
Q 1550 409 1972 409 
Q 2434 409 2667 671 
Q 2900 934 2900 1459 
L 2900 3500 
L 3475 3500 
L 3475 806 
Q 3475 619 3529 530 
Q 3584 441 3700 441 
Q 3728 441 3778 458 
Q 3828 475 3916 513 
L 3916 50 
Q 3788 -22 3673 -56 
Q 3559 -91 3450 -91 
Q 3234 -91 3106 31 
Q 2978 153 2931 403 
Q 2775 156 2548 32 
Q 2322 -91 2016 -91 
Q 1697 -91 1473 31 
Q 1250 153 1119 397 
L 1119 -1331 
L 544 -1331 
z
" transform="scale(0.015625)"/>
       <path id="DejaVuSans-56" d="M 1831 0 
L 50 4666 
L 709 4666 
L 2188 738 
L 3669 4666 
L 4325 4666 
L 2547 0 
L 1831 0 
z
" transform="scale(0.015625)"/>
      </defs>
      <use xlink:href="#DejaVuSans-b5"/>
      <use xlink:href="#DejaVuSans-56" transform="translate(63.623047 0)"/>
     </g>
    </g>
   </g>
   <g id="patch_4">
    <path d="M 73.888164 398.64351 
L 511.705353 398.64351 
" style="fill: none; stroke: #000000; stroke-width: 0.8; stroke-linejoin: miter; stroke-linecap: square"/>
   </g>
   <g id="patch_5">
    <path d="M 47.961178 208.380937 
L 572.99976 208.380937 
" style="fill: none; stroke: #000000; stroke-width: 0.8; stroke-linejoin: miter; stroke-linecap: square"/>
   </g>
   <g id="text_18">
    <!-- rto N100: F4, FC4, F3, FC3 (mean) -->
    <g transform="translate(207.715469 12.118365) scale(0.12 -0.12)">
     <defs>
      <path id="DejaVuSans-72" d="M 2631 2963 
Q 2534 3019 2420 3045 
Q 2306 3072 2169 3072 
Q 1681 3072 1420 2755 
Q 1159 2438 1159 1844 
L 1159 0 
L 581 0 
L 581 3500 
L 1159 3500 
L 1159 2956 
Q 1341 3275 1631 3429 
Q 1922 3584 2338 3584 
Q 2397 3584 2469 3576 
Q 2541 3569 2628 3553 
L 2631 2963 
z
" transform="scale(0.015625)"/>
      <path id="DejaVuSans-74" d="M 1172 4494 
L 1172 3500 
L 2356 3500 
L 2356 3053 
L 1172 3053 
L 1172 1153 
Q 1172 725 1289 603 
Q 1406 481 1766 481 
L 2356 481 
L 2356 0 
L 1766 0 
Q 1100 0 847 248 
Q 594 497 594 1153 
L 594 3053 
L 172 3053 
L 172 3500 
L 594 3500 
L 594 4494 
L 1172 4494 
z
" transform="scale(0.015625)"/>
      <path id="DejaVuSans-6f" d="M 1959 3097 
Q 1497 3097 1228 2736 
Q 959 2375 959 1747 
Q 959 1119 1226 758 
Q 1494 397 1959 397 
Q 2419 397 2687 759 
Q 2956 1122 2956 1747 
Q 2956 2369 2687 2733 
Q 2419 3097 1959 3097 
z
M 1959 3584 
Q 2709 3584 3137 3096 
Q 3566 2609 3566 1747 
Q 3566 888 3137 398 
Q 2709 -91 1959 -91 
Q 1206 -91 779 398 
Q 353 888 353 1747 
Q 353 2609 779 3096 
Q 1206 3584 1959 3584 
z
" transform="scale(0.015625)"/>
      <path id="DejaVuSans-4e" d="M 628 4666 
L 1478 4666 
L 3547 763 
L 3547 4666 
L 4159 4666 
L 4159 0 
L 3309 0 
L 1241 3903 
L 1241 0 
L 628 0 
L 628 4666 
z
" transform="scale(0.015625)"/>
      <path id="DejaVuSans-3a" d="M 750 794 
L 1409 794 
L 1409 0 
L 750 0 
L 750 794 
z
M 750 3309 
L 1409 3309 
L 1409 2516 
L 750 2516 
L 750 3309 
z
" transform="scale(0.015625)"/>
      <path id="DejaVuSans-46" d="M 628 4666 
L 3309 4666 
L 3309 4134 
L 1259 4134 
L 1259 2759 
L 3109 2759 
L 3109 2228 
L 1259 2228 
L 1259 0 
L 628 0 
L 628 4666 
z
" transform="scale(0.015625)"/>
      <path id="DejaVuSans-2c" d="M 750 794 
L 1409 794 
L 1409 256 
L 897 -744 
L 494 -744 
L 750 256 
L 750 794 
z
" transform="scale(0.015625)"/>
      <path id="DejaVuSans-43" d="M 4122 4306 
L 4122 3641 
Q 3803 3938 3442 4084 
Q 3081 4231 2675 4231 
Q 1875 4231 1450 3742 
Q 1025 3253 1025 2328 
Q 1025 1406 1450 917 
Q 1875 428 2675 428 
Q 3081 428 3442 575 
Q 3803 722 4122 1019 
L 4122 359 
Q 3791 134 3420 21 
Q 3050 -91 2638 -91 
Q 1578 -91 968 557 
Q 359 1206 359 2328 
Q 359 3453 968 4101 
Q 1578 4750 2638 4750 
Q 3056 4750 3426 4639 
Q 3797 4528 4122 4306 
z
" transform="scale(0.015625)"/>
      <path id="DejaVuSans-61" d="M 2194 1759 
Q 1497 1759 1228 1600 
Q 959 1441 959 1056 
Q 959 750 1161 570 
Q 1363 391 1709 391 
Q 2188 391 2477 730 
Q 2766 1069 2766 1631 
L 2766 1759 
L 2194 1759 
z
M 3341 1997 
L 3341 0 
L 2766 0 
L 2766 531 
Q 2569 213 2275 61 
Q 1981 -91 1556 -91 
Q 1019 -91 701 211 
Q 384 513 384 1019 
Q 384 1609 779 1909 
Q 1175 2209 1959 2209 
L 2766 2209 
L 2766 2266 
Q 2766 2663 2505 2880 
Q 2244 3097 1772 3097 
Q 1472 3097 1187 3025 
Q 903 2953 641 2809 
L 641 3341 
Q 956 3463 1253 3523 
Q 1550 3584 1831 3584 
Q 2591 3584 2966 3190 
Q 3341 2797 3341 1997 
z
" transform="scale(0.015625)"/>
      <path id="DejaVuSans-6e" d="M 3513 2113 
L 3513 0 
L 2938 0 
L 2938 2094 
Q 2938 2591 2744 2837 
Q 2550 3084 2163 3084 
Q 1697 3084 1428 2787 
Q 1159 2491 1159 1978 
L 1159 0 
L 581 0 
L 581 3500 
L 1159 3500 
L 1159 2956 
Q 1366 3272 1645 3428 
Q 1925 3584 2291 3584 
Q 2894 3584 3203 3211 
Q 3513 2838 3513 2113 
z
" transform="scale(0.015625)"/>
     </defs>
     <use xlink:href="#DejaVuSans-72"/>
     <use xlink:href="#DejaVuSans-74" transform="translate(41.113281 0)"/>
     <use xlink:href="#DejaVuSans-6f" transform="translate(80.322266 0)"/>
     <use xlink:href="#DejaVuSans-20" transform="translate(141.503906 0)"/>
     <use xlink:href="#DejaVuSans-4e" transform="translate(173.291016 0)"/>
     <use xlink:href="#DejaVuSans-31" transform="translate(248.095703 0)"/>
     <use xlink:href="#DejaVuSans-30" transform="translate(311.71875 0)"/>
     <use xlink:href="#DejaVuSans-30" transform="translate(375.341797 0)"/>
     <use xlink:href="#DejaVuSans-3a" transform="translate(438.964844 0)"/>
     <use xlink:href="#DejaVuSans-20" transform="translate(472.65625 0)"/>
     <use xlink:href="#DejaVuSans-46" transform="translate(504.443359 0)"/>
     <use xlink:href="#DejaVuSans-34" transform="translate(561.962891 0)"/>
     <use xlink:href="#DejaVuSans-2c" transform="translate(625.585938 0)"/>
     <use xlink:href="#DejaVuSans-20" transform="translate(657.373047 0)"/>
     <use xlink:href="#DejaVuSans-46" transform="translate(689.160156 0)"/>
     <use xlink:href="#DejaVuSans-43" transform="translate(746.679688 0)"/>
     <use xlink:href="#DejaVuSans-34" transform="translate(816.503906 0)"/>
     <use xlink:href="#DejaVuSans-2c" transform="translate(880.126953 0)"/>
     <use xlink:href="#DejaVuSans-20" transform="translate(911.914062 0)"/>
     <use xlink:href="#DejaVuSans-46" transform="translate(943.701172 0)"/>
     <use xlink:href="#DejaVuSans-33" transform="translate(1001.220703 0)"/>
     <use xlink:href="#DejaVuSans-2c" transform="translate(1064.84375 0)"/>
     <use xlink:href="#DejaVuSans-20" transform="translate(1096.630859 0)"/>
     <use xlink:href="#DejaVuSans-46" transform="translate(1128.417969 0)"/>
     <use xlink:href="#DejaVuSans-43" transform="translate(1185.9375 0)"/>
     <use xlink:href="#DejaVuSans-33" transform="translate(1255.761719 0)"/>
     <use xlink:href="#DejaVuSans-20" transform="translate(1319.384766 0)"/>
     <use xlink:href="#DejaVuSans-28" transform="translate(1351.171875 0)"/>
     <use xlink:href="#DejaVuSans-6d" transform="translate(1390.185547 0)"/>
     <use xlink:href="#DejaVuSans-65" transform="translate(1487.597656 0)"/>
     <use xlink:href="#DejaVuSans-61" transform="translate(1549.121094 0)"/>
     <use xlink:href="#DejaVuSans-6e" transform="translate(1610.400391 0)"/>
     <use xlink:href="#DejaVuSans-29" transform="translate(1673.779297 0)"/>
    </g>
   </g>
   <g id="legend_1">
    <g id="patch_6">
     <path d="M 54.961178 55.75274 
L 136.103365 55.75274 
Q 138.103365 55.75274 138.103365 53.75274 
L 138.103365 25.118365 
Q 138.103365 23.118365 136.103365 23.118365 
L 54.961178 23.118365 
Q 52.961178 23.118365 52.961178 25.118365 
L 52.961178 53.75274 
Q 52.961178 55.75274 54.961178 55.75274 
z
" style="fill: #ffffff; opacity: 0.8; stroke: #cccccc; stroke-linejoin: miter"/>
    </g>
    <g id="line2d_16">
     <path d="M 56.961178 31.216803 
L 66.961178 31.216803 
L 76.961178 31.216803 
" style="fill: none; stroke: #1f77b4; stroke-width: 1.5; stroke-linecap: square"/>
    </g>
    <g id="text_19">
     <!-- eerie -->
     <g transform="translate(84.961178 34.716803) scale(0.1 -0.1)">
      <use xlink:href="#DejaVuSans-65"/>
      <use xlink:href="#DejaVuSans-65" transform="translate(61.523438 0)"/>
      <use xlink:href="#DejaVuSans-72" transform="translate(123.046875 0)"/>
      <use xlink:href="#DejaVuSans-69" transform="translate(164.160156 0)"/>
      <use xlink:href="#DejaVuSans-65" transform="translate(191.943359 0)"/>
     </g>
    </g>
    <g id="line2d_17">
     <path d="M 56.961178 45.894928 
L 66.961178 45.894928 
L 76.961178 45.894928 
" style="fill: none; stroke: #ff7f0e; stroke-width: 1.5; stroke-linecap: square"/>
    </g>
    <g id="text_20">
     <!-- non_eerie -->
     <g transform="translate(84.961178 49.394928) scale(0.1 -0.1)">
      <defs>
       <path id="DejaVuSans-5f" d="M 3263 -1063 
L 3263 -1509 
L -63 -1509 
L -63 -1063 
L 3263 -1063 
z
" transform="scale(0.015625)"/>
      </defs>
      <use xlink:href="#DejaVuSans-6e"/>
      <use xlink:href="#DejaVuSans-6f" transform="translate(63.378906 0)"/>
      <use xlink:href="#DejaVuSans-6e" transform="translate(124.560547 0)"/>
      <use xlink:href="#DejaVuSans-5f" transform="translate(187.939453 0)"/>
      <use xlink:href="#DejaVuSans-65" transform="translate(237.939453 0)"/>
      <use xlink:href="#DejaVuSans-65" transform="translate(299.462891 0)"/>
      <use xlink:href="#DejaVuSans-72" transform="translate(360.986328 0)"/>
      <use xlink:href="#DejaVuSans-69" transform="translate(402.099609 0)"/>
      <use xlink:href="#DejaVuSans-65" transform="translate(429.882812 0)"/>
     </g>
    </g>
   </g>
   <g id="line2d_18">
    <path d="M 47.961178 215.994579 
L 49.671401 211.940797 
L 51.381624 208.263858 
L 53.091848 207.295999 
L 54.802071 208.100168 
L 56.512294 207.818308 
L 58.222518 204.494116 
L 59.932741 199.3166 
L 61.642965 196.020962 
L 63.353188 197.991362 
L 65.063411 205.151747 
L 66.773635 213.291364 
L 68.483858 216.654627 
L 70.194082 211.991659 
L 73.614528 190.574511 
L 75.324752 186.153855 
L 77.034975 189.915771 
L 78.745199 198.117195 
L 80.455422 204.029037 
L 82.165645 202.702207 
L 83.875869 194.48991 
L 85.586092 184.943492 
L 87.296316 180.992624 
L 89.006539 186.311321 
L 90.716762 199.056175 
L 92.426986 213.191466 
L 94.137209 222.394951 
L 95.847433 223.77069 
L 97.557656 218.8522 
L 99.267879 211.850462 
L 100.978103 206.621206 
L 102.688326 204.696292 
L 104.39855 205.410041 
L 106.108773 207.424882 
L 107.818996 210.194099 
L 109.52922 214.104744 
L 111.239443 219.475811 
L 112.949667 225.484134 
L 114.65989 230.048548 
L 116.370113 230.950094 
L 118.080337 227.242404 
L 119.79056 220.073909 
L 121.500784 212.143699 
L 123.211007 206.319299 
L 124.92123 204.376649 
L 126.631454 206.447886 
L 128.341677 211.286838 
L 130.0519 216.9397 
L 131.762124 221.317738 
L 133.472347 222.604952 
L 135.182571 219.725893 
L 136.892794 212.784255 
L 140.313241 194.369106 
L 142.023464 188.456216 
L 143.733688 187.177612 
L 145.443911 190.071035 
L 148.864358 200.356687 
L 150.574581 204.496766 
L 155.705251 214.48088 
L 157.415475 216.123879 
L 159.125698 214.276185 
L 160.835922 208.183229 
L 162.546145 199.402125 
L 164.256368 191.486905 
L 165.966592 188.105596 
L 167.676815 190.815665 
L 169.387039 198.037973 
L 171.097262 205.86085 
L 172.807485 210.289444 
L 174.517709 209.398557 
L 176.227932 204.032013 
L 177.938156 196.871511 
L 179.648379 190.453491 
L 181.358602 185.833949 
L 183.068826 182.558804 
L 184.779049 179.732486 
L 186.489273 177.174942 
L 188.199496 175.699489 
L 189.909719 176.267732 
L 191.619943 178.867085 
L 193.330166 181.969581 
L 195.04039 183.345896 
L 196.750613 181.704556 
L 198.460836 178.068866 
L 200.17106 175.581947 
L 201.881283 177.731041 
L 203.591507 186.163614 
L 207.011953 213.048567 
L 208.722177 222.497487 
L 210.4324 224.707996 
L 212.142623 219.640907 
L 213.852847 209.604501 
L 217.273294 184.311353 
L 218.983517 170.490969 
L 220.69374 155.085656 
L 227.534634 86.572228 
L 232.665304 41.388543 
L 234.375528 28.879252 
L 236.085751 21.008925 
L 237.795974 18.752296 
L 239.506198 20.47604 
L 241.216421 22.629955 
L 242.926645 22.285102 
L 244.636868 19.604393 
L 246.347091 18.118365 
L 248.057315 22.268459 
L 249.767538 33.673043 
L 251.477762 49.099853 
L 253.187985 61.863005 
L 254.898208 65.996866 
L 256.608432 60.469599 
L 258.318655 50.16388 
L 260.028879 42.938131 
L 261.739102 44.769164 
L 263.449325 56.278648 
L 265.159549 72.906162 
L 266.869772 88.428045 
L 268.579996 99.007451 
L 270.290219 104.936217 
L 272.000442 109.050376 
L 273.710666 113.748717 
L 275.420889 118.921069 
L 277.131113 122.455964 
L 278.841336 122.632399 
L 282.261783 117.676619 
L 283.972006 118.516215 
L 285.68223 123.567476 
L 287.392453 131.068176 
L 289.102676 137.811216 
L 290.8129 141.483894 
L 292.523123 142.06561 
L 294.233346 141.299134 
L 295.94357 141.057271 
L 297.653793 142.037332 
L 299.364017 143.864902 
L 301.07424 146.278735 
L 302.784463 150.058376 
L 304.494687 156.629657 
L 306.20491 166.56757 
L 307.915134 178.217435 
L 309.625357 187.886957 
L 311.33558 191.857981 
L 313.045804 189.063991 
L 314.756027 182.215836 
L 316.466251 176.489275 
L 318.176474 176.480338 
L 319.886697 183.248503 
L 321.596921 193.697261 
L 323.307144 202.669837 
L 325.017368 206.250643 
L 326.727591 204.202293 
L 328.437814 199.763265 
L 330.148038 197.25927 
L 331.858261 199.290867 
L 333.568485 205.235563 
L 335.278708 212.158384 
L 336.988931 217.068615 
L 338.699155 218.800692 
L 340.409378 218.265652 
L 343.829825 215.782166 
L 345.540048 213.682001 
L 347.250272 209.309846 
L 348.960495 202.08498 
L 352.380942 183.906764 
L 354.091165 176.258542 
L 357.511612 163.686506 
L 359.221836 156.133189 
L 364.352506 129.490044 
L 366.062729 123.316285 
L 367.772953 119.020944 
L 369.483176 115.97097 
L 371.193399 113.87518 
L 372.903623 112.986476 
L 374.613846 113.446264 
L 376.324069 114.43212 
L 378.034293 114.078714 
L 379.744516 110.658441 
L 381.45474 104.11484 
L 383.164963 96.646702 
L 384.875186 91.639517 
L 386.58541 91.502814 
L 388.295633 95.925133 
L 390.005857 102.048739 
L 391.71608 106.536788 
L 393.426303 107.981996 
L 395.136527 107.84342 
L 396.84675 109.112191 
L 398.556974 113.596974 
L 400.267197 120.165945 
L 401.97742 125.189494 
L 403.687644 125.173079 
L 405.397867 119.537515 
L 407.108091 111.40165 
L 408.818314 105.65114 
L 410.528537 105.512055 
L 413.948984 114.947599 
L 415.659208 115.087593 
L 417.369431 108.677267 
L 419.079654 98.487495 
L 420.789878 90.098503 
L 422.500101 88.256062 
L 424.210325 93.819589 
L 425.920548 103.350905 
L 427.630771 111.57627 
L 429.340995 114.928086 
L 431.051218 113.490766 
L 432.761442 110.369535 
L 434.471665 109.131514 
L 436.181888 111.427974 
L 437.892112 116.332567 
L 439.602335 121.672633 
L 441.312559 126.030722 
L 443.022782 129.616286 
L 444.733005 133.632792 
L 448.153452 144.172929 
L 449.863676 148.223895 
L 451.573899 149.736814 
L 453.284122 149.200218 
L 454.994346 148.38721 
L 456.704569 148.919092 
L 460.125016 153.110992 
L 461.835239 153.655601 
L 463.545463 152.032221 
L 465.255686 149.427235 
L 466.965909 147.87698 
L 468.676133 148.642826 
L 470.386356 151.334645 
L 472.09658 154.438953 
L 473.806803 156.757945 
L 475.517026 158.528089 
L 477.22725 161.045771 
L 478.937473 165.288581 
L 480.647697 170.639885 
L 482.35792 174.861605 
L 484.068143 175.692989 
L 485.778367 172.797448 
L 487.48859 168.480595 
L 489.198814 166.534281 
L 490.909037 169.762299 
L 492.61926 178.096775 
L 494.329484 188.520104 
L 496.039707 196.861494 
L 497.749931 200.426633 
L 499.460154 199.517277 
L 501.170377 196.881261 
L 502.880601 195.828023 
L 504.590824 198.115953 
L 506.301048 203.096499 
L 508.011271 208.498486 
L 509.721494 212.133242 
L 511.431718 213.321065 
L 513.141941 213.159291 
L 514.852165 213.589084 
L 516.562388 215.94159 
L 518.272611 220.09072 
L 519.982835 224.582087 
L 521.693058 227.554784 
L 523.403282 227.836133 
L 525.113505 225.513357 
L 528.533952 217.81098 
L 530.244175 215.141729 
L 531.954399 214.285556 
L 533.664622 215.375266 
L 535.374845 218.198151 
L 537.085069 222.2906 
L 538.795292 226.784651 
L 540.505515 230.426454 
L 542.215739 231.972916 
L 543.925962 230.830881 
L 545.636186 227.533817 
L 547.346409 223.569439 
L 549.056632 220.584961 
L 550.766856 219.39891 
L 552.477079 219.456833 
L 554.187303 219.40053 
L 555.897526 218.182861 
L 557.607749 216.019133 
L 559.317973 214.454775 
L 561.028196 215.191862 
L 562.73842 218.722363 
L 564.448643 223.822334 
L 566.158866 228.256692 
L 567.86909 230.365982 
L 569.579313 230.189584 
L 571.289537 229.355042 
L 572.99976 229.647569 
L 572.99976 229.647569 
" style="fill: none; stroke: #1f77b4; stroke-width: 1.5; stroke-linecap: square"/>
   </g>
   <g id="line2d_19">
    <path d="M 47.961178 212.217283 
L 49.671401 210.14158 
L 51.381624 207.660109 
L 53.091848 206.190208 
L 54.802071 206.387642 
L 56.512294 207.699478 
L 58.222518 208.725031 
L 59.932741 208.253721 
L 61.642965 206.195264 
L 63.353188 203.755484 
L 65.063411 202.665689 
L 66.773635 203.960977 
L 68.483858 207.234647 
L 70.194082 210.818019 
L 71.904305 212.862239 
L 73.614528 212.624143 
L 75.324752 211.012621 
L 77.034975 210.035215 
L 78.745199 211.470992 
L 80.455422 215.639856 
L 82.165645 221.06514 
L 83.875869 225.234683 
L 85.586092 226.073137 
L 87.296316 223.099456 
L 90.716762 211.925526 
L 92.426986 207.994243 
L 94.137209 206.529944 
L 95.847433 206.952168 
L 97.557656 208.071711 
L 99.267879 208.993215 
L 100.978103 209.503877 
L 106.108773 210.642479 
L 107.818996 210.33077 
L 109.52922 209.059879 
L 112.949667 205.008738 
L 114.65989 203.611251 
L 116.370113 203.011671 
L 118.080337 202.778063 
L 119.79056 202.248335 
L 121.500784 201.125345 
L 123.211007 199.720421 
L 124.92123 198.73753 
L 126.631454 198.755732 
L 128.341677 199.807719 
L 133.472347 204.669516 
L 135.182571 205.784129 
L 136.892794 206.412996 
L 138.603017 206.301635 
L 140.313241 205.256981 
L 142.023464 203.546219 
L 143.733688 202.087897 
L 145.443911 202.025467 
L 147.154134 203.97796 
L 150.574581 210.967227 
L 152.284805 213.013162 
L 153.995028 213.031105 
L 155.705251 211.796174 
L 157.415475 210.789685 
L 159.125698 210.997421 
L 160.835922 212.14276 
L 162.546145 212.886719 
L 164.256368 211.925193 
L 165.966592 209.103054 
L 167.676815 205.580477 
L 169.387039 202.99822 
L 171.097262 202.253748 
L 174.517709 203.513885 
L 176.227932 202.892932 
L 177.938156 200.880593 
L 179.648379 198.459402 
L 181.358602 196.911225 
L 183.068826 196.895761 
L 184.779049 198.078824 
L 186.489273 199.549185 
L 188.199496 200.574269 
L 189.909719 201.045964 
L 191.619943 201.373906 
L 193.330166 202.026212 
L 195.04039 203.200783 
L 196.750613 204.943151 
L 198.460836 207.460222 
L 200.17106 211.218232 
L 201.881283 216.602828 
L 205.30173 230.376247 
L 207.011953 235.790116 
L 208.722177 237.903911 
L 210.4324 235.763903 
L 212.142623 229.335069 
L 213.852847 219.080528 
L 215.56307 205.410743 
L 217.273294 188.501498 
L 218.983517 168.589842 
L 224.114187 102.124288 
L 225.824411 83.652058 
L 227.534634 69.232088 
L 229.244857 58.992865 
L 230.955081 52.474261 
L 232.665304 48.972712 
L 234.375528 47.736858 
L 236.085751 47.961115 
L 239.506198 49.630478 
L 241.216421 50.28846 
L 242.926645 51.189748 
L 244.636868 52.913115 
L 246.347091 55.612718 
L 248.057315 58.721229 
L 249.767538 61.226115 
L 251.477762 62.47491 
L 253.187985 62.867862 
L 254.898208 63.848554 
L 256.608432 67.085384 
L 258.318655 73.37706 
L 260.028879 82.060572 
L 261.739102 91.461772 
L 263.449325 100.013214 
L 268.579996 121.620317 
L 270.290219 130.508378 
L 272.000442 140.129671 
L 273.710666 149.083938 
L 275.420889 156.140157 
L 277.131113 160.962268 
L 278.841336 164.072327 
L 280.551559 166.215249 
L 282.261783 167.713809 
L 283.972006 168.424281 
L 285.68223 168.252541 
L 287.392453 167.712589 
L 289.102676 167.906197 
L 290.8129 169.821792 
L 292.523123 173.48588 
L 294.233346 177.661809 
L 295.94357 180.433805 
L 297.653793 180.349005 
L 299.364017 177.328115 
L 301.07424 172.744963 
L 302.784463 168.603095 
L 304.494687 166.445416 
L 306.20491 166.650234 
L 307.915134 168.424007 
L 309.625357 170.376618 
L 311.33558 171.239744 
L 313.045804 170.343797 
L 314.756027 167.784901 
L 318.176474 160.963723 
L 319.886697 158.866195 
L 321.596921 158.618988 
L 323.307144 160.131528 
L 326.727591 165.191221 
L 328.437814 167.221562 
L 330.148038 168.915019 
L 331.858261 171.021044 
L 333.568485 174.221197 
L 335.278708 178.576904 
L 338.699155 188.10014 
L 340.409378 192.114305 
L 343.829825 199.768098 
L 345.540048 203.952365 
L 347.250272 207.482924 
L 348.960495 209.045171 
L 350.670719 207.943017 
L 354.091165 202.017077 
L 355.801389 201.409467 
L 357.511612 203.925055 
L 359.221836 208.365369 
L 360.932059 212.163551 
L 362.642282 213.012998 
L 364.352506 210.366447 
L 366.062729 205.7626 
L 367.772953 201.72126 
L 369.483176 200.044742 
L 371.193399 200.721967 
L 372.903623 202.136369 
L 374.613846 202.376214 
L 376.324069 200.654167 
L 378.034293 197.796431 
L 379.744516 195.535476 
L 381.45474 195.135938 
L 383.164963 196.491898 
L 384.875186 198.3119 
L 386.58541 199.243297 
L 388.295633 198.986702 
L 390.005857 198.552182 
L 391.71608 199.474044 
L 393.426303 202.589962 
L 396.84675 211.912694 
L 398.556974 214.770256 
L 400.267197 215.324883 
L 401.97742 214.373089 
L 403.687644 213.275322 
L 405.397867 212.838772 
L 407.108091 212.755094 
L 408.818314 211.993605 
L 410.528537 209.830187 
L 412.238761 206.647029 
L 413.948984 203.824631 
L 415.659208 202.794772 
L 417.369431 203.966026 
L 419.079654 206.364391 
L 420.789878 208.28589 
L 422.500101 208.525632 
L 424.210325 207.214139 
L 425.920548 205.653755 
L 427.630771 205.313139 
L 429.340995 206.723401 
L 431.051218 209.084302 
L 432.761442 210.917575 
L 434.471665 211.136785 
L 436.181888 209.804466 
L 437.892112 207.990019 
L 439.602335 206.928021 
L 441.312559 207.128688 
L 443.022782 208.122951 
L 444.733005 208.972208 
L 446.443229 209.050875 
L 449.863676 208.019791 
L 451.573899 208.091776 
L 453.284122 208.516163 
L 454.994346 208.391266 
L 456.704569 206.71687 
L 458.414792 203.116066 
L 461.835239 193.199517 
L 463.545463 189.4714 
L 465.255686 187.725244 
L 466.965909 187.949335 
L 468.676133 189.563063 
L 472.09658 193.76961 
L 473.806803 194.976382 
L 475.517026 194.911984 
L 477.22725 193.391173 
L 478.937473 190.703873 
L 480.647697 187.677066 
L 482.35792 185.387186 
L 484.068143 184.61057 
L 485.778367 185.26444 
L 487.48859 186.301834 
L 489.198814 186.268435 
L 490.909037 184.155852 
L 492.61926 180.074384 
L 494.329484 175.270229 
L 496.039707 171.325697 
L 497.749931 169.177162 
L 499.460154 168.568772 
L 501.170377 168.367388 
L 502.880601 167.502475 
L 506.301048 163.916295 
L 508.011271 162.916092 
L 509.721494 163.074906 
L 511.431718 163.690628 
L 513.141941 163.568874 
L 514.852165 162.056276 
L 516.562388 159.735787 
L 518.272611 158.11658 
L 519.982835 158.527987 
L 521.693058 160.997256 
L 523.403282 164.041656 
L 525.113505 165.596423 
L 526.823728 164.451519 
L 530.244175 157.799937 
L 531.954399 156.478534 
L 533.664622 158.113223 
L 537.085069 165.611602 
L 538.795292 167.900895 
L 540.505515 168.407021 
L 542.215739 168.183849 
L 543.925962 168.622294 
L 545.636186 170.353002 
L 547.346409 172.805263 
L 549.056632 174.714583 
L 550.766856 175.132243 
L 552.477079 174.096196 
L 554.187303 172.535888 
L 555.897526 171.494983 
L 557.607749 171.324473 
L 559.317973 171.46001 
L 561.028196 170.941699 
L 562.73842 169.249199 
L 564.448643 166.846219 
L 566.158866 164.952931 
L 567.86909 164.737425 
L 569.579313 166.519232 
L 572.99976 172.280018 
L 572.99976 172.280018 
" style="fill: none; stroke: #ff7f0e; stroke-width: 1.5; stroke-linecap: square"/>
   </g>
  </g>
  <g id="axes_2">
   <g id="PathCollection_1">
    <defs>
     <path id="C0_0_3fd2380e45" d="M 0 1.118034 
C 0.296506 1.118034 0.580908 1.000231 0.790569 0.790569 
C 1.000231 0.580908 1.118034 0.296506 1.118034 -0 
C 1.118034 -0.296506 1.000231 -0.580908 0.790569 -0.790569 
C 0.580908 -1.000231 0.296506 -1.118034 0 -1.118034 
C -0.296506 -1.118034 -0.580908 -1.000231 -0.790569 -0.790569 
C -1.000231 -0.580908 -1.118034 -0.296506 -1.118034 0 
C -1.118034 0.296506 -1.000231 0.580908 -0.790569 0.790569 
C -0.580908 1.000231 -0.296506 1.118034 0 1.118034 
z
"/>
    </defs>
    <g clip-path="url(#pb5621bafe9)">
     <use xlink:href="#C0_0_3fd2380e45" x="535.952649" y="46.992139" style="stroke: #000000"/>
    </g>
    <g clip-path="url(#pb5621bafe9)">
     <use xlink:href="#C0_0_3fd2380e45" x="538.13171" y="56.979838" style="stroke: #000000"/>
    </g>
    <g clip-path="url(#pb5621bafe9)">
     <use xlink:href="#C0_0_3fd2380e45" x="504.888598" y="47.29179" style="stroke: #000000"/>
    </g>
    <g clip-path="url(#pb5621bafe9)">
     <use xlink:href="#C0_0_3fd2380e45" x="502.766586" y="57.132529" style="stroke: #000000"/>
    </g>
   </g>
   <g id="matplotlib.axis_3"/>
   <g id="matplotlib.axis_4"/>
   <g id="line2d_20">
    <path d="M 559.993821 73.636051 
L 559.916151 71.16458 
L 559.683451 68.702863 
L 559.296637 66.260616 
L 558.757236 63.847476 
L 558.067377 61.472966 
L 557.229783 59.146459 
L 556.247759 56.877136 
L 555.125181 54.673953 
L 553.866479 52.545604 
L 552.476621 50.50049 
L 550.961092 48.546681 
L 549.325872 46.691888 
L 547.577416 44.943432 
L 545.722623 43.308212 
L 543.768814 41.792683 
L 541.7237 40.402824 
L 539.595351 39.144122 
L 537.392168 38.021544 
L 535.122844 37.03952 
L 532.796337 36.201926 
L 530.421828 35.512068 
L 528.008688 34.972667 
L 525.56644 34.585853 
L 523.104723 34.353152 
L 520.633253 34.275483 
L 518.161782 34.353152 
L 515.700066 34.585853 
L 513.257818 34.972667 
L 510.844678 35.512068 
L 508.470169 36.201926 
L 506.143662 37.03952 
L 503.874338 38.021544 
L 501.671155 39.144122 
L 499.542806 40.402824 
L 497.497692 41.792683 
L 495.543883 43.308212 
L 493.68909 44.943432 
L 491.940634 46.691888 
L 490.305414 48.546681 
L 488.789885 50.50049 
L 487.400026 52.545604 
L 486.141325 54.673953 
L 485.018747 56.877136 
L 484.036723 59.146459 
L 483.199129 61.472966 
L 482.50927 63.847476 
L 481.969869 66.260616 
L 481.583055 68.702863 
L 481.350354 71.16458 
L 481.272685 73.636051 
L 481.350354 76.107521 
L 481.583055 78.569238 
L 481.969869 81.011486 
L 482.50927 83.424626 
L 483.199129 85.799135 
L 484.036723 88.125642 
L 485.018747 90.394965 
L 486.141325 92.598149 
L 487.400026 94.726498 
L 488.789885 96.771612 
L 490.305414 98.725421 
L 491.940634 100.580213 
L 493.68909 102.32867 
L 495.543883 103.963889 
L 497.497692 105.479419 
L 499.542806 106.869277 
L 501.671155 108.127979 
L 503.874338 109.250557 
L 506.143662 110.232581 
L 508.470169 111.070175 
L 510.844678 111.760034 
L 513.257818 112.299434 
L 515.700066 112.686249 
L 518.161782 112.918949 
L 520.633253 112.996618 
L 523.104723 112.918949 
L 525.56644 112.686249 
L 528.008688 112.299434 
L 530.421828 111.760034 
L 532.796337 111.070175 
L 535.122844 110.232581 
L 537.392168 109.250557 
L 539.595351 108.127979 
L 541.7237 106.869277 
L 543.768814 105.479419 
L 545.722623 103.963889 
L 547.577416 102.32867 
L 549.325872 100.580213 
L 550.961092 98.725421 
L 552.476621 96.771612 
L 553.866479 94.726498 
L 555.125181 92.598149 
L 556.247759 90.394965 
L 557.229783 88.125642 
L 558.067377 85.799135 
L 558.757236 83.424626 
L 559.296637 81.011486 
L 559.683451 78.569238 
L 559.916151 76.107521 
L 559.993821 73.636051 
" style="fill: none; stroke: #000000; stroke-linecap: square"/>
   </g>
   <g id="line2d_21">
    <path d="M 512.389595 35.148437 
L 520.633253 28.371398 
L 528.876911 35.148437 
" style="fill: none; stroke: #000000; stroke-linecap: square"/>
   </g>
   <g id="line2d_22">
    <path d="M 481.508849 69.267028 
L 480.485474 67.535163 
L 479.855705 67.472186 
L 478.918923 67.763454 
L 477.97427 69.267028 
L 478.12384 74.069017 
L 477.572792 80.972861 
L 478.753609 83.972136 
L 480.485474 84.531056 
L 482.138618 83.074715 
" style="fill: none; stroke: #000000; stroke-linecap: square"/>
   </g>
   <g id="line2d_23">
    <path d="M 559.757657 69.267028 
L 560.781032 67.535163 
L 561.410801 67.472186 
L 562.347582 67.763454 
L 563.292236 69.267028 
L 563.142666 74.069017 
L 563.693714 80.972861 
L 562.512897 83.972136 
L 560.781032 84.531056 
L 559.127888 83.074715 
" style="fill: none; stroke: #000000; stroke-linecap: square"/>
   </g>
  </g>
 </g>
 <defs>
  <clipPath id="pdc5b7d850c">
   <rect x="47.961178" y="18.118365" width="525.038583" height="380.525145"/>
  </clipPath>
  <clipPath id="pb5621bafe9">
   <rect x="473.266746" y="24.140137" width="94.733014" height="93.087742"/>
  </clipPath>
 </defs>
</svg>
