<?xml version="1.0" encoding="utf-8" standalone="no"?>
<!DOCTYPE svg PUBLIC "-//W3C//DTD SVG 1.1//EN"
  "http://www.w3.org/Graphics/SVG/1.1/DTD/svg11.dtd">
<svg xmlns:xlink="http://www.w3.org/1999/xlink" width="576pt" height="432pt" viewBox="0 0 576 432" xmlns="http://www.w3.org/2000/svg" version="1.1">
 <metadata>
  <rdf:RDF xmlns:dc="http://purl.org/dc/elements/1.1/" xmlns:cc="http://creativecommons.org/ns#" xmlns:rdf="http://www.w3.org/1999/02/22-rdf-syntax-ns#">
   <cc:Work>
    <dc:type rdf:resource="http://purl.org/dc/dcmitype/StillImage"/>
    <dc:date>2025-02-14T14:31:51.392500</dc:date>
    <dc:format>image/svg+xml</dc:format>
    <dc:creator>
     <cc:Agent>
      <dc:title>Matplotlib v3.10.0, https://matplotlib.org/</dc:title>
     </cc:Agent>
    </dc:creator>
   </cc:Work>
  </rdf:RDF>
 </metadata>
 <defs>
  <style type="text/css">*{stroke-linejoin: round; stroke-linecap: butt}</style>
 </defs>
 <g id="figure_1">
  <g id="patch_1">
   <path d="M 0 432 
L 576 432 
L 576 0 
L 0 0 
z
" style="fill: #ffffff"/>
  </g>
  <g id="axes_1">
   <g id="patch_2">
    <path d="M 54.323678 398.64351 
L 572.99976 398.64351 
L 572.99976 18.118365 
L 54.323678 18.118365 
L 54.323678 398.64351 
z
" style="fill: none; opacity: 0"/>
   </g>
   <g id="patch_3">
    <path d="M 54.323678 396.020682 
L 54.323678 20.741193 
" style="fill: none; stroke: #000000; stroke-width: 0.8; stroke-linejoin: miter; stroke-linecap: square"/>
   </g>
   <g id="LineCollection_1">
    <path d="M 218.340205 18.118365 
L 218.340205 398.64351 
" clip-path="url(#p971c39f05e)" style="fill: none; stroke-dasharray: 3.7,1.6; stroke-dashoffset: 0; stroke: #000000"/>
    <path d="M 261.591371 18.118365 
L 261.591371 398.64351 
" clip-path="url(#p971c39f05e)" style="fill: none; stroke-dasharray: 3.7,1.6; stroke-dashoffset: 0; stroke: #000000"/>
   </g>
   <g id="matplotlib.axis_1">
    <g id="xtick_1">
     <g id="line2d_1">
      <defs>
       <path id="m5252827c6e" d="M 0 0 
L 0 3.5 
" style="stroke: #000000; stroke-width: 0.8"/>
      </defs>
      <g>
       <use xlink:href="#m5252827c6e" x="79.936477" y="398.64351" style="stroke: #000000; stroke-width: 0.8"/>
      </g>
     </g>
     <g id="text_1">
      <!-- −0.20 -->
      <g transform="translate(64.613821 413.241947) scale(0.1 -0.1)">
       <defs>
        <path id="DejaVuSans-2212" d="M 678 2272 
L 4684 2272 
L 4684 1741 
L 678 1741 
L 678 2272 
z
" transform="scale(0.015625)"/>
        <path id="DejaVuSans-30" d="M 2034 4250 
Q 1547 4250 1301 3770 
Q 1056 3291 1056 2328 
Q 1056 1369 1301 889 
Q 1547 409 2034 409 
Q 2525 409 2770 889 
Q 3016 1369 3016 2328 
Q 3016 3291 2770 3770 
Q 2525 4250 2034 4250 
z
M 2034 4750 
Q 2819 4750 3233 4129 
Q 3647 3509 3647 2328 
Q 3647 1150 3233 529 
Q 2819 -91 2034 -91 
Q 1250 -91 836 529 
Q 422 1150 422 2328 
Q 422 3509 836 4129 
Q 1250 4750 2034 4750 
z
" transform="scale(0.015625)"/>
        <path id="DejaVuSans-2e" d="M 684 794 
L 1344 794 
L 1344 0 
L 684 0 
L 684 794 
z
" transform="scale(0.015625)"/>
        <path id="DejaVuSans-32" d="M 1228 531 
L 3431 531 
L 3431 0 
L 469 0 
L 469 531 
Q 828 903 1448 1529 
Q 2069 2156 2228 2338 
Q 2531 2678 2651 2914 
Q 2772 3150 2772 3378 
Q 2772 3750 2511 3984 
Q 2250 4219 1831 4219 
Q 1534 4219 1204 4116 
Q 875 4013 500 3803 
L 500 4441 
Q 881 4594 1212 4672 
Q 1544 4750 1819 4750 
Q 2544 4750 2975 4387 
Q 3406 4025 3406 3419 
Q 3406 3131 3298 2873 
Q 3191 2616 2906 2266 
Q 2828 2175 2409 1742 
Q 1991 1309 1228 531 
z
" transform="scale(0.015625)"/>
       </defs>
       <use xlink:href="#DejaVuSans-2212"/>
       <use xlink:href="#DejaVuSans-30" transform="translate(83.789062 0)"/>
       <use xlink:href="#DejaVuSans-2e" transform="translate(147.412109 0)"/>
       <use xlink:href="#DejaVuSans-32" transform="translate(179.199219 0)"/>
       <use xlink:href="#DejaVuSans-30" transform="translate(242.822266 0)"/>
      </g>
     </g>
    </g>
    <g id="xtick_2">
     <g id="line2d_2">
      <g>
       <use xlink:href="#m5252827c6e" x="166.438807" y="398.64351" style="stroke: #000000; stroke-width: 0.8"/>
      </g>
     </g>
     <g id="text_2">
      <!-- 0.00 -->
      <g transform="translate(155.305995 413.241947) scale(0.1 -0.1)">
       <use xlink:href="#DejaVuSans-30"/>
       <use xlink:href="#DejaVuSans-2e" transform="translate(63.623047 0)"/>
       <use xlink:href="#DejaVuSans-30" transform="translate(95.410156 0)"/>
       <use xlink:href="#DejaVuSans-30" transform="translate(159.033203 0)"/>
      </g>
     </g>
    </g>
    <g id="xtick_3">
     <g id="line2d_3">
      <g>
       <use xlink:href="#m5252827c6e" x="218.340205" y="398.64351" style="stroke: #000000; stroke-width: 0.8"/>
      </g>
     </g>
     <g id="text_3">
      <!-- 0.12 -->
      <g transform="translate(207.207393 413.241947) scale(0.1 -0.1)">
       <defs>
        <path id="DejaVuSans-31" d="M 794 531 
L 1825 531 
L 1825 4091 
L 703 3866 
L 703 4441 
L 1819 4666 
L 2450 4666 
L 2450 531 
L 3481 531 
L 3481 0 
L 794 0 
L 794 531 
z
" transform="scale(0.015625)"/>
       </defs>
       <use xlink:href="#DejaVuSans-30"/>
       <use xlink:href="#DejaVuSans-2e" transform="translate(63.623047 0)"/>
       <use xlink:href="#DejaVuSans-31" transform="translate(95.410156 0)"/>
       <use xlink:href="#DejaVuSans-32" transform="translate(159.033203 0)"/>
      </g>
     </g>
    </g>
    <g id="xtick_4">
     <g id="line2d_4">
      <g>
       <use xlink:href="#m5252827c6e" x="252.941138" y="398.64351" style="stroke: #000000; stroke-width: 0.8"/>
      </g>
     </g>
     <g id="text_4">
      <!-- 0.20 -->
      <g transform="translate(241.808325 413.241947) scale(0.1 -0.1)">
       <use xlink:href="#DejaVuSans-30"/>
       <use xlink:href="#DejaVuSans-2e" transform="translate(63.623047 0)"/>
       <use xlink:href="#DejaVuSans-32" transform="translate(95.410156 0)"/>
       <use xlink:href="#DejaVuSans-30" transform="translate(159.033203 0)"/>
      </g>
     </g>
    </g>
    <g id="xtick_5">
     <g id="line2d_5">
      <g>
       <use xlink:href="#m5252827c6e" x="261.591371" y="398.64351" style="stroke: #000000; stroke-width: 0.8"/>
      </g>
     </g>
     <g id="text_5">
      <!-- 0.22 -->
      <g transform="translate(250.458558 413.241947) scale(0.1 -0.1)">
       <use xlink:href="#DejaVuSans-30"/>
       <use xlink:href="#DejaVuSans-2e" transform="translate(63.623047 0)"/>
       <use xlink:href="#DejaVuSans-32" transform="translate(95.410156 0)"/>
       <use xlink:href="#DejaVuSans-32" transform="translate(159.033203 0)"/>
      </g>
     </g>
    </g>
    <g id="xtick_6">
     <g id="line2d_6">
      <g>
       <use xlink:href="#m5252827c6e" x="339.443468" y="398.64351" style="stroke: #000000; stroke-width: 0.8"/>
      </g>
     </g>
     <g id="text_6">
      <!-- 0.40 -->
      <g transform="translate(328.310655 413.241947) scale(0.1 -0.1)">
       <defs>
        <path id="DejaVuSans-34" d="M 2419 4116 
L 825 1625 
L 2419 1625 
L 2419 4116 
z
M 2253 4666 
L 3047 4666 
L 3047 1625 
L 3713 1625 
L 3713 1100 
L 3047 1100 
L 3047 0 
L 2419 0 
L 2419 1100 
L 313 1100 
L 313 1709 
L 2253 4666 
z
" transform="scale(0.015625)"/>
       </defs>
       <use xlink:href="#DejaVuSans-30"/>
       <use xlink:href="#DejaVuSans-2e" transform="translate(63.623047 0)"/>
       <use xlink:href="#DejaVuSans-34" transform="translate(95.410156 0)"/>
       <use xlink:href="#DejaVuSans-30" transform="translate(159.033203 0)"/>
      </g>
     </g>
    </g>
    <g id="xtick_7">
     <g id="line2d_7">
      <g>
       <use xlink:href="#m5252827c6e" x="425.945798" y="398.64351" style="stroke: #000000; stroke-width: 0.8"/>
      </g>
     </g>
     <g id="text_7">
      <!-- 0.60 -->
      <g transform="translate(414.812986 413.241947) scale(0.1 -0.1)">
       <defs>
        <path id="DejaVuSans-36" d="M 2113 2584 
Q 1688 2584 1439 2293 
Q 1191 2003 1191 1497 
Q 1191 994 1439 701 
Q 1688 409 2113 409 
Q 2538 409 2786 701 
Q 3034 994 3034 1497 
Q 3034 2003 2786 2293 
Q 2538 2584 2113 2584 
z
M 3366 4563 
L 3366 3988 
Q 3128 4100 2886 4159 
Q 2644 4219 2406 4219 
Q 1781 4219 1451 3797 
Q 1122 3375 1075 2522 
Q 1259 2794 1537 2939 
Q 1816 3084 2150 3084 
Q 2853 3084 3261 2657 
Q 3669 2231 3669 1497 
Q 3669 778 3244 343 
Q 2819 -91 2113 -91 
Q 1303 -91 875 529 
Q 447 1150 447 2328 
Q 447 3434 972 4092 
Q 1497 4750 2381 4750 
Q 2619 4750 2861 4703 
Q 3103 4656 3366 4563 
z
" transform="scale(0.015625)"/>
       </defs>
       <use xlink:href="#DejaVuSans-30"/>
       <use xlink:href="#DejaVuSans-2e" transform="translate(63.623047 0)"/>
       <use xlink:href="#DejaVuSans-36" transform="translate(95.410156 0)"/>
       <use xlink:href="#DejaVuSans-30" transform="translate(159.033203 0)"/>
      </g>
     </g>
    </g>
    <g id="xtick_8">
     <g id="line2d_8">
      <g>
       <use xlink:href="#m5252827c6e" x="512.448129" y="398.64351" style="stroke: #000000; stroke-width: 0.8"/>
      </g>
     </g>
     <g id="text_8">
      <!-- 0.80 -->
      <g transform="translate(501.315316 413.241947) scale(0.1 -0.1)">
       <defs>
        <path id="DejaVuSans-38" d="M 2034 2216 
Q 1584 2216 1326 1975 
Q 1069 1734 1069 1313 
Q 1069 891 1326 650 
Q 1584 409 2034 409 
Q 2484 409 2743 651 
Q 3003 894 3003 1313 
Q 3003 1734 2745 1975 
Q 2488 2216 2034 2216 
z
M 1403 2484 
Q 997 2584 770 2862 
Q 544 3141 544 3541 
Q 544 4100 942 4425 
Q 1341 4750 2034 4750 
Q 2731 4750 3128 4425 
Q 3525 4100 3525 3541 
Q 3525 3141 3298 2862 
Q 3072 2584 2669 2484 
Q 3125 2378 3379 2068 
Q 3634 1759 3634 1313 
Q 3634 634 3220 271 
Q 2806 -91 2034 -91 
Q 1263 -91 848 271 
Q 434 634 434 1313 
Q 434 1759 690 2068 
Q 947 2378 1403 2484 
z
M 1172 3481 
Q 1172 3119 1398 2916 
Q 1625 2713 2034 2713 
Q 2441 2713 2670 2916 
Q 2900 3119 2900 3481 
Q 2900 3844 2670 4047 
Q 2441 4250 2034 4250 
Q 1625 4250 1398 4047 
Q 1172 3844 1172 3481 
z
" transform="scale(0.015625)"/>
       </defs>
       <use xlink:href="#DejaVuSans-30"/>
       <use xlink:href="#DejaVuSans-2e" transform="translate(63.623047 0)"/>
       <use xlink:href="#DejaVuSans-38" transform="translate(95.410156 0)"/>
       <use xlink:href="#DejaVuSans-30" transform="translate(159.033203 0)"/>
      </g>
     </g>
    </g>
    <g id="text_9">
     <!-- Time (s) -->
     <g transform="translate(293.332812 426.920073) scale(0.1 -0.1)">
      <defs>
       <path id="DejaVuSans-54" d="M -19 4666 
L 3928 4666 
L 3928 4134 
L 2272 4134 
L 2272 0 
L 1638 0 
L 1638 4134 
L -19 4134 
L -19 4666 
z
" transform="scale(0.015625)"/>
       <path id="DejaVuSans-69" d="M 603 3500 
L 1178 3500 
L 1178 0 
L 603 0 
L 603 3500 
z
M 603 4863 
L 1178 4863 
L 1178 4134 
L 603 4134 
L 603 4863 
z
" transform="scale(0.015625)"/>
       <path id="DejaVuSans-6d" d="M 3328 2828 
Q 3544 3216 3844 3400 
Q 4144 3584 4550 3584 
Q 5097 3584 5394 3201 
Q 5691 2819 5691 2113 
L 5691 0 
L 5113 0 
L 5113 2094 
Q 5113 2597 4934 2840 
Q 4756 3084 4391 3084 
Q 3944 3084 3684 2787 
Q 3425 2491 3425 1978 
L 3425 0 
L 2847 0 
L 2847 2094 
Q 2847 2600 2669 2842 
Q 2491 3084 2119 3084 
Q 1678 3084 1418 2786 
Q 1159 2488 1159 1978 
L 1159 0 
L 581 0 
L 581 3500 
L 1159 3500 
L 1159 2956 
Q 1356 3278 1631 3431 
Q 1906 3584 2284 3584 
Q 2666 3584 2933 3390 
Q 3200 3197 3328 2828 
z
" transform="scale(0.015625)"/>
       <path id="DejaVuSans-65" d="M 3597 1894 
L 3597 1613 
L 953 1613 
Q 991 1019 1311 708 
Q 1631 397 2203 397 
Q 2534 397 2845 478 
Q 3156 559 3463 722 
L 3463 178 
Q 3153 47 2828 -22 
Q 2503 -91 2169 -91 
Q 1331 -91 842 396 
Q 353 884 353 1716 
Q 353 2575 817 3079 
Q 1281 3584 2069 3584 
Q 2775 3584 3186 3129 
Q 3597 2675 3597 1894 
z
M 3022 2063 
Q 3016 2534 2758 2815 
Q 2500 3097 2075 3097 
Q 1594 3097 1305 2825 
Q 1016 2553 972 2059 
L 3022 2063 
z
" transform="scale(0.015625)"/>
       <path id="DejaVuSans-20" transform="scale(0.015625)"/>
       <path id="DejaVuSans-28" d="M 1984 4856 
Q 1566 4138 1362 3434 
Q 1159 2731 1159 2009 
Q 1159 1288 1364 580 
Q 1569 -128 1984 -844 
L 1484 -844 
Q 1016 -109 783 600 
Q 550 1309 550 2009 
Q 550 2706 781 3412 
Q 1013 4119 1484 4856 
L 1984 4856 
z
" transform="scale(0.015625)"/>
       <path id="DejaVuSans-73" d="M 2834 3397 
L 2834 2853 
Q 2591 2978 2328 3040 
Q 2066 3103 1784 3103 
Q 1356 3103 1142 2972 
Q 928 2841 928 2578 
Q 928 2378 1081 2264 
Q 1234 2150 1697 2047 
L 1894 2003 
Q 2506 1872 2764 1633 
Q 3022 1394 3022 966 
Q 3022 478 2636 193 
Q 2250 -91 1575 -91 
Q 1294 -91 989 -36 
Q 684 19 347 128 
L 347 722 
Q 666 556 975 473 
Q 1284 391 1588 391 
Q 1994 391 2212 530 
Q 2431 669 2431 922 
Q 2431 1156 2273 1281 
Q 2116 1406 1581 1522 
L 1381 1569 
Q 847 1681 609 1914 
Q 372 2147 372 2553 
Q 372 3047 722 3315 
Q 1072 3584 1716 3584 
Q 2034 3584 2315 3537 
Q 2597 3491 2834 3397 
z
" transform="scale(0.015625)"/>
       <path id="DejaVuSans-29" d="M 513 4856 
L 1013 4856 
Q 1481 4119 1714 3412 
Q 1947 2706 1947 2009 
Q 1947 1309 1714 600 
Q 1481 -109 1013 -844 
L 513 -844 
Q 928 -128 1133 580 
Q 1338 1288 1338 2009 
Q 1338 2731 1133 3434 
Q 928 4138 513 4856 
z
" transform="scale(0.015625)"/>
      </defs>
      <use xlink:href="#DejaVuSans-54"/>
      <use xlink:href="#DejaVuSans-69" transform="translate(57.958984 0)"/>
      <use xlink:href="#DejaVuSans-6d" transform="translate(85.742188 0)"/>
      <use xlink:href="#DejaVuSans-65" transform="translate(183.154297 0)"/>
      <use xlink:href="#DejaVuSans-20" transform="translate(244.677734 0)"/>
      <use xlink:href="#DejaVuSans-28" transform="translate(276.464844 0)"/>
      <use xlink:href="#DejaVuSans-73" transform="translate(315.478516 0)"/>
      <use xlink:href="#DejaVuSans-29" transform="translate(367.578125 0)"/>
     </g>
    </g>
   </g>
   <g id="matplotlib.axis_2">
    <g id="ytick_1">
     <g id="line2d_9">
      <defs>
       <path id="m641007a7c5" d="M 0 0 
L -3.5 0 
" style="stroke: #000000; stroke-width: 0.8"/>
      </defs>
      <g>
       <use xlink:href="#m641007a7c5" x="54.323678" y="396.020682" style="stroke: #000000; stroke-width: 0.8"/>
      </g>
     </g>
     <g id="text_10">
      <!-- −10.0 -->
      <g transform="translate(16.678365 399.819901) scale(0.1 -0.1)">
       <use xlink:href="#DejaVuSans-2212"/>
       <use xlink:href="#DejaVuSans-31" transform="translate(83.789062 0)"/>
       <use xlink:href="#DejaVuSans-30" transform="translate(147.412109 0)"/>
       <use xlink:href="#DejaVuSans-2e" transform="translate(211.035156 0)"/>
       <use xlink:href="#DejaVuSans-30" transform="translate(242.822266 0)"/>
      </g>
     </g>
    </g>
    <g id="ytick_2">
     <g id="line2d_10">
      <g>
       <use xlink:href="#m641007a7c5" x="54.323678" y="349.110746" style="stroke: #000000; stroke-width: 0.8"/>
      </g>
     </g>
     <g id="text_11">
      <!-- −7.5 -->
      <g transform="translate(23.040865 352.909965) scale(0.1 -0.1)">
       <defs>
        <path id="DejaVuSans-37" d="M 525 4666 
L 3525 4666 
L 3525 4397 
L 1831 0 
L 1172 0 
L 2766 4134 
L 525 4134 
L 525 4666 
z
" transform="scale(0.015625)"/>
        <path id="DejaVuSans-35" d="M 691 4666 
L 3169 4666 
L 3169 4134 
L 1269 4134 
L 1269 2991 
Q 1406 3038 1543 3061 
Q 1681 3084 1819 3084 
Q 2600 3084 3056 2656 
Q 3513 2228 3513 1497 
Q 3513 744 3044 326 
Q 2575 -91 1722 -91 
Q 1428 -91 1123 -41 
Q 819 9 494 109 
L 494 744 
Q 775 591 1075 516 
Q 1375 441 1709 441 
Q 2250 441 2565 725 
Q 2881 1009 2881 1497 
Q 2881 1984 2565 2268 
Q 2250 2553 1709 2553 
Q 1456 2553 1204 2497 
Q 953 2441 691 2322 
L 691 4666 
z
" transform="scale(0.015625)"/>
       </defs>
       <use xlink:href="#DejaVuSans-2212"/>
       <use xlink:href="#DejaVuSans-37" transform="translate(83.789062 0)"/>
       <use xlink:href="#DejaVuSans-2e" transform="translate(147.412109 0)"/>
       <use xlink:href="#DejaVuSans-35" transform="translate(179.199219 0)"/>
      </g>
     </g>
    </g>
    <g id="ytick_3">
     <g id="line2d_11">
      <g>
       <use xlink:href="#m641007a7c5" x="54.323678" y="302.20081" style="stroke: #000000; stroke-width: 0.8"/>
      </g>
     </g>
     <g id="text_12">
      <!-- −5.0 -->
      <g transform="translate(23.040865 306.000028) scale(0.1 -0.1)">
       <use xlink:href="#DejaVuSans-2212"/>
       <use xlink:href="#DejaVuSans-35" transform="translate(83.789062 0)"/>
       <use xlink:href="#DejaVuSans-2e" transform="translate(147.412109 0)"/>
       <use xlink:href="#DejaVuSans-30" transform="translate(179.199219 0)"/>
      </g>
     </g>
    </g>
    <g id="ytick_4">
     <g id="line2d_12">
      <g>
       <use xlink:href="#m641007a7c5" x="54.323678" y="255.290874" style="stroke: #000000; stroke-width: 0.8"/>
      </g>
     </g>
     <g id="text_13">
      <!-- −2.5 -->
      <g transform="translate(23.040865 259.090092) scale(0.1 -0.1)">
       <use xlink:href="#DejaVuSans-2212"/>
       <use xlink:href="#DejaVuSans-32" transform="translate(83.789062 0)"/>
       <use xlink:href="#DejaVuSans-2e" transform="translate(147.412109 0)"/>
       <use xlink:href="#DejaVuSans-35" transform="translate(179.199219 0)"/>
      </g>
     </g>
    </g>
    <g id="ytick_5">
     <g id="line2d_13">
      <g>
       <use xlink:href="#m641007a7c5" x="54.323678" y="208.380937" style="stroke: #000000; stroke-width: 0.8"/>
      </g>
     </g>
     <g id="text_14">
      <!-- 0.0 -->
      <g transform="translate(31.420552 212.180156) scale(0.1 -0.1)">
       <use xlink:href="#DejaVuSans-30"/>
       <use xlink:href="#DejaVuSans-2e" transform="translate(63.623047 0)"/>
       <use xlink:href="#DejaVuSans-30" transform="translate(95.410156 0)"/>
      </g>
     </g>
    </g>
    <g id="ytick_6">
     <g id="line2d_14">
      <g>
       <use xlink:href="#m641007a7c5" x="54.323678" y="161.471001" style="stroke: #000000; stroke-width: 0.8"/>
      </g>
     </g>
     <g id="text_15">
      <!-- 2.5 -->
      <g transform="translate(31.420552 165.27022) scale(0.1 -0.1)">
       <use xlink:href="#DejaVuSans-32"/>
       <use xlink:href="#DejaVuSans-2e" transform="translate(63.623047 0)"/>
       <use xlink:href="#DejaVuSans-35" transform="translate(95.410156 0)"/>
      </g>
     </g>
    </g>
    <g id="ytick_7">
     <g id="line2d_15">
      <g>
       <use xlink:href="#m641007a7c5" x="54.323678" y="114.561065" style="stroke: #000000; stroke-width: 0.8"/>
      </g>
     </g>
     <g id="text_16">
      <!-- 5.0 -->
      <g transform="translate(31.420552 118.360284) scale(0.1 -0.1)">
       <use xlink:href="#DejaVuSans-35"/>
       <use xlink:href="#DejaVuSans-2e" transform="translate(63.623047 0)"/>
       <use xlink:href="#DejaVuSans-30" transform="translate(95.410156 0)"/>
      </g>
     </g>
    </g>
    <g id="ytick_8">
     <g id="line2d_16">
      <g>
       <use xlink:href="#m641007a7c5" x="54.323678" y="67.651129" style="stroke: #000000; stroke-width: 0.8"/>
      </g>
     </g>
     <g id="text_17">
      <!-- 7.5 -->
      <g transform="translate(31.420552 71.450348) scale(0.1 -0.1)">
       <use xlink:href="#DejaVuSans-37"/>
       <use xlink:href="#DejaVuSans-2e" transform="translate(63.623047 0)"/>
       <use xlink:href="#DejaVuSans-35" transform="translate(95.410156 0)"/>
      </g>
     </g>
    </g>
    <g id="ytick_9">
     <g id="line2d_17">
      <g>
       <use xlink:href="#m641007a7c5" x="54.323678" y="20.741193" style="stroke: #000000; stroke-width: 0.8"/>
      </g>
     </g>
     <g id="text_18">
      <!-- 10.0 -->
      <g transform="translate(25.058053 24.540412) scale(0.1 -0.1)">
       <use xlink:href="#DejaVuSans-31"/>
       <use xlink:href="#DejaVuSans-30" transform="translate(63.623047 0)"/>
       <use xlink:href="#DejaVuSans-2e" transform="translate(127.246094 0)"/>
       <use xlink:href="#DejaVuSans-30" transform="translate(159.033203 0)"/>
      </g>
     </g>
    </g>
    <g id="text_19">
     <!-- µV -->
     <g transform="translate(10.598677 214.9825) rotate(-90) scale(0.1 -0.1)">
      <defs>
       <path id="DejaVuSans-b5" d="M 544 -1331 
L 544 3500 
L 1119 3500 
L 1119 1325 
Q 1119 872 1334 640 
Q 1550 409 1972 409 
Q 2434 409 2667 671 
Q 2900 934 2900 1459 
L 2900 3500 
L 3475 3500 
L 3475 806 
Q 3475 619 3529 530 
Q 3584 441 3700 441 
Q 3728 441 3778 458 
Q 3828 475 3916 513 
L 3916 50 
Q 3788 -22 3673 -56 
Q 3559 -91 3450 -91 
Q 3234 -91 3106 31 
Q 2978 153 2931 403 
Q 2775 156 2548 32 
Q 2322 -91 2016 -91 
Q 1697 -91 1473 31 
Q 1250 153 1119 397 
L 1119 -1331 
L 544 -1331 
z
" transform="scale(0.015625)"/>
       <path id="DejaVuSans-56" d="M 1831 0 
L 50 4666 
L 709 4666 
L 2188 738 
L 3669 4666 
L 4325 4666 
L 2547 0 
L 1831 0 
z
" transform="scale(0.015625)"/>
      </defs>
      <use xlink:href="#DejaVuSans-b5"/>
      <use xlink:href="#DejaVuSans-56" transform="translate(63.623047 0)"/>
     </g>
    </g>
   </g>
   <g id="patch_4">
    <path d="M 79.936477 398.64351 
L 512.448129 398.64351 
" style="fill: none; stroke: #000000; stroke-width: 0.8; stroke-linejoin: miter; stroke-linecap: square"/>
   </g>
   <g id="patch_5">
    <path d="M 54.323678 208.380937 
L 572.99976 208.380937 
" style="fill: none; stroke: #000000; stroke-width: 0.8; stroke-linejoin: miter; stroke-linecap: square"/>
   </g>
   <g id="text_20">
    <!-- F3, F7 (median) -->
    <g transform="translate(266.230781 12.118365) scale(0.12 -0.12)">
     <defs>
      <path id="DejaVuSans-46" d="M 628 4666 
L 3309 4666 
L 3309 4134 
L 1259 4134 
L 1259 2759 
L 3109 2759 
L 3109 2228 
L 1259 2228 
L 1259 0 
L 628 0 
L 628 4666 
z
" transform="scale(0.015625)"/>
      <path id="DejaVuSans-33" d="M 2597 2516 
Q 3050 2419 3304 2112 
Q 3559 1806 3559 1356 
Q 3559 666 3084 287 
Q 2609 -91 1734 -91 
Q 1441 -91 1130 -33 
Q 819 25 488 141 
L 488 750 
Q 750 597 1062 519 
Q 1375 441 1716 441 
Q 2309 441 2620 675 
Q 2931 909 2931 1356 
Q 2931 1769 2642 2001 
Q 2353 2234 1838 2234 
L 1294 2234 
L 1294 2753 
L 1863 2753 
Q 2328 2753 2575 2939 
Q 2822 3125 2822 3475 
Q 2822 3834 2567 4026 
Q 2313 4219 1838 4219 
Q 1578 4219 1281 4162 
Q 984 4106 628 3988 
L 628 4550 
Q 988 4650 1302 4700 
Q 1616 4750 1894 4750 
Q 2613 4750 3031 4423 
Q 3450 4097 3450 3541 
Q 3450 3153 3228 2886 
Q 3006 2619 2597 2516 
z
" transform="scale(0.015625)"/>
      <path id="DejaVuSans-2c" d="M 750 794 
L 1409 794 
L 1409 256 
L 897 -744 
L 494 -744 
L 750 256 
L 750 794 
z
" transform="scale(0.015625)"/>
      <path id="DejaVuSans-64" d="M 2906 2969 
L 2906 4863 
L 3481 4863 
L 3481 0 
L 2906 0 
L 2906 525 
Q 2725 213 2448 61 
Q 2172 -91 1784 -91 
Q 1150 -91 751 415 
Q 353 922 353 1747 
Q 353 2572 751 3078 
Q 1150 3584 1784 3584 
Q 2172 3584 2448 3432 
Q 2725 3281 2906 2969 
z
M 947 1747 
Q 947 1113 1208 752 
Q 1469 391 1925 391 
Q 2381 391 2643 752 
Q 2906 1113 2906 1747 
Q 2906 2381 2643 2742 
Q 2381 3103 1925 3103 
Q 1469 3103 1208 2742 
Q 947 2381 947 1747 
z
" transform="scale(0.015625)"/>
      <path id="DejaVuSans-61" d="M 2194 1759 
Q 1497 1759 1228 1600 
Q 959 1441 959 1056 
Q 959 750 1161 570 
Q 1363 391 1709 391 
Q 2188 391 2477 730 
Q 2766 1069 2766 1631 
L 2766 1759 
L 2194 1759 
z
M 3341 1997 
L 3341 0 
L 2766 0 
L 2766 531 
Q 2569 213 2275 61 
Q 1981 -91 1556 -91 
Q 1019 -91 701 211 
Q 384 513 384 1019 
Q 384 1609 779 1909 
Q 1175 2209 1959 2209 
L 2766 2209 
L 2766 2266 
Q 2766 2663 2505 2880 
Q 2244 3097 1772 3097 
Q 1472 3097 1187 3025 
Q 903 2953 641 2809 
L 641 3341 
Q 956 3463 1253 3523 
Q 1550 3584 1831 3584 
Q 2591 3584 2966 3190 
Q 3341 2797 3341 1997 
z
" transform="scale(0.015625)"/>
      <path id="DejaVuSans-6e" d="M 3513 2113 
L 3513 0 
L 2938 0 
L 2938 2094 
Q 2938 2591 2744 2837 
Q 2550 3084 2163 3084 
Q 1697 3084 1428 2787 
Q 1159 2491 1159 1978 
L 1159 0 
L 581 0 
L 581 3500 
L 1159 3500 
L 1159 2956 
Q 1366 3272 1645 3428 
Q 1925 3584 2291 3584 
Q 2894 3584 3203 3211 
Q 3513 2838 3513 2113 
z
" transform="scale(0.015625)"/>
     </defs>
     <use xlink:href="#DejaVuSans-46"/>
     <use xlink:href="#DejaVuSans-33" transform="translate(57.519531 0)"/>
     <use xlink:href="#DejaVuSans-2c" transform="translate(121.142578 0)"/>
     <use xlink:href="#DejaVuSans-20" transform="translate(152.929688 0)"/>
     <use xlink:href="#DejaVuSans-46" transform="translate(184.716797 0)"/>
     <use xlink:href="#DejaVuSans-37" transform="translate(242.236328 0)"/>
     <use xlink:href="#DejaVuSans-20" transform="translate(305.859375 0)"/>
     <use xlink:href="#DejaVuSans-28" transform="translate(337.646484 0)"/>
     <use xlink:href="#DejaVuSans-6d" transform="translate(376.660156 0)"/>
     <use xlink:href="#DejaVuSans-65" transform="translate(474.072266 0)"/>
     <use xlink:href="#DejaVuSans-64" transform="translate(535.595703 0)"/>
     <use xlink:href="#DejaVuSans-69" transform="translate(599.072266 0)"/>
     <use xlink:href="#DejaVuSans-61" transform="translate(626.855469 0)"/>
     <use xlink:href="#DejaVuSans-6e" transform="translate(688.134766 0)"/>
     <use xlink:href="#DejaVuSans-29" transform="translate(751.513672 0)"/>
    </g>
   </g>
   <g id="legend_1">
    <g id="patch_6">
     <path d="M 61.323678 55.75274 
L 142.465865 55.75274 
Q 144.465865 55.75274 144.465865 53.75274 
L 144.465865 25.118365 
Q 144.465865 23.118365 142.465865 23.118365 
L 61.323678 23.118365 
Q 59.323678 23.118365 59.323678 25.118365 
L 59.323678 53.75274 
Q 59.323678 55.75274 61.323678 55.75274 
z
" style="fill: #ffffff; opacity: 0.8; stroke: #cccccc; stroke-linejoin: miter"/>
    </g>
    <g id="line2d_18">
     <path d="M 63.323678 31.216803 
L 73.323678 31.216803 
L 83.323678 31.216803 
" style="fill: none; stroke: #1f77b4; stroke-width: 1.5; stroke-linecap: square"/>
    </g>
    <g id="text_21">
     <!-- eerie -->
     <g transform="translate(91.323678 34.716803) scale(0.1 -0.1)">
      <defs>
       <path id="DejaVuSans-72" d="M 2631 2963 
Q 2534 3019 2420 3045 
Q 2306 3072 2169 3072 
Q 1681 3072 1420 2755 
Q 1159 2438 1159 1844 
L 1159 0 
L 581 0 
L 581 3500 
L 1159 3500 
L 1159 2956 
Q 1341 3275 1631 3429 
Q 1922 3584 2338 3584 
Q 2397 3584 2469 3576 
Q 2541 3569 2628 3553 
L 2631 2963 
z
" transform="scale(0.015625)"/>
      </defs>
      <use xlink:href="#DejaVuSans-65"/>
      <use xlink:href="#DejaVuSans-65" transform="translate(61.523438 0)"/>
      <use xlink:href="#DejaVuSans-72" transform="translate(123.046875 0)"/>
      <use xlink:href="#DejaVuSans-69" transform="translate(164.160156 0)"/>
      <use xlink:href="#DejaVuSans-65" transform="translate(191.943359 0)"/>
     </g>
    </g>
    <g id="line2d_19">
     <path d="M 63.323678 45.894928 
L 73.323678 45.894928 
L 83.323678 45.894928 
" style="fill: none; stroke: #ff7f0e; stroke-width: 1.5; stroke-linecap: square"/>
    </g>
    <g id="text_22">
     <!-- non_eerie -->
     <g transform="translate(91.323678 49.394928) scale(0.1 -0.1)">
      <defs>
       <path id="DejaVuSans-6f" d="M 1959 3097 
Q 1497 3097 1228 2736 
Q 959 2375 959 1747 
Q 959 1119 1226 758 
Q 1494 397 1959 397 
Q 2419 397 2687 759 
Q 2956 1122 2956 1747 
Q 2956 2369 2687 2733 
Q 2419 3097 1959 3097 
z
M 1959 3584 
Q 2709 3584 3137 3096 
Q 3566 2609 3566 1747 
Q 3566 888 3137 398 
Q 2709 -91 1959 -91 
Q 1206 -91 779 398 
Q 353 888 353 1747 
Q 353 2609 779 3096 
Q 1206 3584 1959 3584 
z
" transform="scale(0.015625)"/>
       <path id="DejaVuSans-5f" d="M 3263 -1063 
L 3263 -1509 
L -63 -1509 
L -63 -1063 
L 3263 -1063 
z
" transform="scale(0.015625)"/>
      </defs>
      <use xlink:href="#DejaVuSans-6e"/>
      <use xlink:href="#DejaVuSans-6f" transform="translate(63.378906 0)"/>
      <use xlink:href="#DejaVuSans-6e" transform="translate(124.560547 0)"/>
      <use xlink:href="#DejaVuSans-5f" transform="translate(187.939453 0)"/>
      <use xlink:href="#DejaVuSans-65" transform="translate(237.939453 0)"/>
      <use xlink:href="#DejaVuSans-65" transform="translate(299.462891 0)"/>
      <use xlink:href="#DejaVuSans-72" transform="translate(360.986328 0)"/>
      <use xlink:href="#DejaVuSans-69" transform="translate(402.099609 0)"/>
      <use xlink:href="#DejaVuSans-65" transform="translate(429.882812 0)"/>
     </g>
    </g>
   </g>
   <g id="line2d_20">
    <path d="M 54.323678 220.750884 
L 56.013176 223.507237 
L 57.702675 223.19463 
L 59.392173 219.891147 
L 61.081672 215.341363 
L 62.771171 211.886018 
L 64.460669 210.994399 
L 66.150168 212.38339 
L 67.839667 214.260527 
L 69.529165 214.533863 
L 71.218664 212.176512 
L 74.597661 203.341313 
L 76.28716 200.550634 
L 77.976658 200.153604 
L 79.666157 201.300758 
L 81.355656 202.198229 
L 83.045154 201.291087 
L 84.734653 198.265408 
L 86.424152 194.257706 
L 88.11365 191.184753 
L 89.803149 190.584874 
L 91.492648 192.711381 
L 93.182146 196.397397 
L 94.871645 199.757083 
L 96.561144 201.315643 
L 98.250642 200.856409 
L 99.940141 199.507873 
L 101.629639 199.009118 
L 103.319138 200.659053 
L 105.008637 204.597298 
L 108.387634 214.811126 
L 110.077133 218.436472 
L 111.766631 220.335848 
L 113.45613 220.831887 
L 115.145629 220.445228 
L 116.835127 219.485938 
L 118.524626 218.013742 
L 120.214124 216.076753 
L 121.903623 213.920235 
L 123.593122 211.954391 
L 125.28262 210.46295 
L 130.351116 207.2574 
L 132.040615 206.266505 
L 133.730114 206.059112 
L 135.419612 207.152979 
L 138.79861 211.276192 
L 140.488108 211.464402 
L 142.177607 208.781869 
L 143.867105 203.524691 
L 145.556604 197.420122 
L 147.246103 192.769302 
L 148.935601 191.195303 
L 150.6251 192.742689 
L 152.314599 195.902258 
L 154.004097 198.497553 
L 155.693596 198.925439 
L 157.383095 196.980173 
L 159.072593 193.783789 
L 160.762092 190.977817 
L 162.45159 189.717682 
L 164.141089 190.075 
L 165.830588 191.181505 
L 167.520086 191.976257 
L 169.209585 192.014084 
L 170.899084 191.801791 
L 172.588582 192.446288 
L 174.278081 194.835814 
L 175.96758 198.873987 
L 177.657078 203.343257 
L 179.346577 206.521432 
L 181.036076 207.189716 
L 182.725574 205.370339 
L 184.415073 202.285043 
L 186.104571 199.525483 
L 187.79407 198.002428 
L 189.483569 197.372948 
L 191.173067 196.373585 
L 192.862566 193.842345 
L 194.552065 189.665011 
L 196.241563 184.979213 
L 197.931062 181.442111 
L 199.620561 180.154534 
L 201.310059 181.035165 
L 204.689056 185.298913 
L 206.378555 187.507052 
L 208.068054 190.342286 
L 209.757552 194.386544 
L 211.447051 199.133138 
L 213.13655 202.624267 
L 214.826048 202.152921 
L 216.515547 195.633966 
L 218.205046 182.730302 
L 219.894544 164.941364 
L 226.652539 84.026025 
L 228.342037 65.176766 
L 230.031536 48.038074 
L 231.721035 34.175759 
L 233.410533 24.945745 
L 235.100032 20.538941 
L 236.789531 19.67044 
L 238.479029 20.175038 
L 240.168528 20.191497 
L 243.547525 18.118365 
L 245.237024 18.911876 
L 246.926522 23.248779 
L 248.616021 31.752926 
L 250.30552 43.76166 
L 258.753013 113.301376 
L 262.13201 139.251376 
L 263.821509 150.951338 
L 265.511008 160.656085 
L 267.200506 167.758573 
L 268.890005 172.23657 
L 270.579503 174.628476 
L 272.269002 175.749833 
L 273.958501 176.319589 
L 277.337498 177.248956 
L 279.026997 177.869978 
L 280.716495 178.697642 
L 284.095493 180.82306 
L 285.784991 181.447155 
L 287.47449 181.041849 
L 289.163988 179.258065 
L 290.853487 176.22396 
L 294.232484 168.822638 
L 297.611482 162.232149 
L 299.30098 158.491268 
L 300.990479 153.720562 
L 302.679978 147.882731 
L 307.748474 129.054508 
L 309.437972 122.763846 
L 311.127471 115.3753 
L 312.816969 106.278343 
L 316.195967 85.256182 
L 317.885465 76.595513 
L 319.574964 71.254902 
L 321.264463 69.50847 
L 322.953961 70.334766 
L 324.64346 72.041283 
L 326.332959 73.195945 
L 328.022457 73.285736 
L 329.711956 72.75457 
L 331.401454 72.475528 
L 333.090953 73.106556 
L 334.780452 74.781427 
L 336.46995 77.254758 
L 338.159449 80.274388 
L 339.848948 83.784863 
L 341.538446 87.807908 
L 344.917444 96.254631 
L 346.606942 99.441283 
L 348.296441 101.320632 
L 349.98594 102.112346 
L 351.675438 102.534395 
L 353.364937 103.311882 
L 356.743934 106.111845 
L 358.433433 106.864222 
L 360.122931 106.247457 
L 361.81243 104.069563 
L 363.501929 100.566046 
L 365.191427 96.13138 
L 370.259923 80.7655 
L 371.949422 76.55469 
L 373.63892 73.705792 
L 375.328419 72.21971 
L 378.707416 70.650758 
L 380.396915 69.21443 
L 382.086414 67.458589 
L 383.775912 66.216244 
L 385.465411 66.156861 
L 388.844408 68.087303 
L 390.533907 67.855692 
L 392.223406 66.037458 
L 393.912904 63.491202 
L 395.602403 61.88028 
L 397.291901 62.604288 
L 398.9814 65.859536 
L 402.360397 75.006655 
L 404.049896 78.194764 
L 405.739395 80.128944 
L 407.428893 81.677654 
L 409.118392 83.735173 
L 410.807891 86.535657 
L 412.497389 89.608474 
L 414.186888 92.286566 
L 415.876386 94.284167 
L 419.255384 97.530302 
L 426.013378 105.337947 
L 427.702877 106.997971 
L 431.081874 110.691388 
L 432.771373 111.931433 
L 434.460872 111.954853 
L 436.15037 110.820589 
L 437.839869 109.525581 
L 439.529367 109.500629 
L 441.218866 111.655695 
L 442.908365 115.636238 
L 444.597863 119.913772 
L 446.287362 122.771384 
L 447.976861 123.498718 
L 449.666359 122.875351 
L 451.355858 122.585418 
L 453.045357 123.934738 
L 456.424354 129.859184 
L 458.113852 131.234964 
L 459.803351 130.197521 
L 463.182348 124.992528 
L 464.871847 124.149814 
L 466.561346 125.306022 
L 468.250844 127.523954 
L 469.940343 129.479112 
L 471.629842 130.508533 
L 473.31934 131.019314 
L 475.008839 132.018996 
L 476.698338 134.185562 
L 480.077335 140.403839 
L 481.766833 142.678002 
L 485.145831 145.597056 
L 486.835329 148.358327 
L 488.524828 153.047025 
L 493.593324 171.670238 
L 495.282823 175.645093 
L 496.972321 177.843673 
L 498.66182 178.85991 
L 500.351318 179.563259 
L 502.040817 180.732301 
L 503.730316 182.836196 
L 505.419814 185.896541 
L 508.798812 192.814987 
L 510.48831 195.201166 
L 512.177809 196.35811 
L 515.556806 197.02655 
L 517.246305 198.252651 
L 518.935804 200.57825 
L 520.625302 203.452557 
L 522.314801 205.891869 
L 524.004299 207.130441 
L 525.693798 207.074253 
L 529.072795 205.401844 
L 530.762294 204.898603 
L 534.141291 204.374716 
L 535.83079 203.799992 
L 539.209787 202.270856 
L 542.588784 200.8323 
L 544.278283 199.615649 
L 545.967782 197.851322 
L 547.65728 195.793752 
L 549.346779 193.911362 
L 551.036278 192.56844 
L 552.725776 191.832137 
L 554.415275 191.557982 
L 556.104774 191.663348 
L 557.794272 192.326856 
L 559.483771 193.846382 
L 561.17327 196.284374 
L 562.862768 199.198314 
L 564.552267 201.748737 
L 566.241765 203.193286 
L 567.931264 203.393296 
L 569.620763 202.942803 
L 571.310261 202.789463 
L 572.99976 203.604709 
L 572.99976 203.604709 
" style="fill: none; stroke: #1f77b4; stroke-width: 1.5; stroke-linecap: square"/>
   </g>
   <g id="line2d_21">
    <path d="M 54.323678 196.465654 
L 56.013176 199.509807 
L 57.702675 203.171746 
L 59.392173 206.491193 
L 61.081672 208.950043 
L 62.771171 210.63307 
L 66.150168 213.273021 
L 67.839667 214.419682 
L 69.529165 214.925041 
L 71.218664 214.310043 
L 72.908163 212.522999 
L 74.597661 210.115225 
L 76.28716 208.025828 
L 77.976658 207.080626 
L 79.666157 207.524581 
L 83.045154 210.115717 
L 84.734653 210.339995 
L 86.424152 209.174246 
L 89.803149 204.654848 
L 91.492648 203.096302 
L 93.182146 202.811283 
L 94.871645 203.729285 
L 98.250642 207.032315 
L 99.940141 208.287434 
L 101.629639 208.894814 
L 103.319138 208.894855 
L 108.387634 207.681128 
L 110.077133 207.660633 
L 113.45613 208.25882 
L 115.145629 208.329296 
L 116.835127 207.893042 
L 118.524626 206.951892 
L 120.214124 205.780798 
L 121.903623 204.830243 
L 123.593122 204.528553 
L 125.28262 205.131923 
L 126.972119 206.643562 
L 128.661618 208.835117 
L 130.351116 211.304443 
L 132.040615 213.521587 
L 133.730114 214.931356 
L 135.419612 215.124087 
L 137.109111 214.046209 
L 140.488108 210.16566 
L 142.177607 209.022599 
L 143.867105 209.119453 
L 145.556604 210.217858 
L 147.246103 211.549318 
L 148.935601 212.262826 
L 150.6251 211.929719 
L 152.314599 210.749501 
L 154.004097 209.312866 
L 155.693596 208.111692 
L 157.383095 207.16518 
L 159.072593 206.071665 
L 160.762092 204.4319 
L 164.141089 200.280784 
L 165.830588 199.146853 
L 167.520086 199.249839 
L 170.899084 201.006857 
L 172.588582 200.89215 
L 174.278081 199.757228 
L 175.96758 198.400308 
L 177.657078 197.988073 
L 179.346577 199.225196 
L 182.725574 204.37078 
L 184.415073 205.580127 
L 186.104571 204.631792 
L 187.79407 201.875633 
L 189.483569 198.559425 
L 191.173067 196.095141 
L 192.862566 195.335292 
L 194.552065 196.266118 
L 196.241563 198.237127 
L 199.620561 202.648182 
L 201.310059 204.806261 
L 202.999558 207.440081 
L 204.689056 211.02749 
L 206.378555 215.735053 
L 209.757552 226.498517 
L 211.447051 230.252026 
L 213.13655 230.898124 
L 214.826048 227.074679 
L 216.515547 218.037147 
L 218.205046 203.916761 
L 219.894544 185.682163 
L 223.273542 142.83571 
L 226.652539 100.324339 
L 228.342037 81.35424 
L 230.031536 64.754825 
L 231.721035 51.157245 
L 233.410533 41.067519 
L 235.100032 34.611848 
L 236.789531 31.387629 
L 238.479029 30.534423 
L 240.168528 31.092945 
L 241.858027 32.472129 
L 243.547525 34.794671 
L 245.237024 38.897845 
L 246.926522 45.912015 
L 248.616021 56.589767 
L 250.30552 70.73946 
L 253.684517 103.547962 
L 255.374016 118.28706 
L 257.063514 130.225145 
L 258.753013 139.46864 
L 260.442512 146.942754 
L 263.821509 159.834465 
L 265.511008 165.240877 
L 267.200506 169.265445 
L 268.890005 171.887026 
L 270.579503 173.978031 
L 272.269002 176.92792 
L 273.958501 181.741984 
L 277.337498 194.957942 
L 279.026997 199.904741 
L 280.716495 201.720094 
L 282.405994 200.456038 
L 285.784991 194.411645 
L 287.47449 192.31841 
L 290.853487 189.695392 
L 292.542986 187.600386 
L 295.921983 182.143108 
L 297.611482 180.193831 
L 299.30098 178.849327 
L 300.990479 177.07866 
L 302.679978 173.590082 
L 304.369476 167.7105 
L 306.058975 159.853851 
L 309.437972 142.790297 
L 311.127471 135.131217 
L 314.506468 121.119951 
L 316.195967 114.817372 
L 317.885465 109.992041 
L 319.574964 107.522808 
L 321.264463 107.475977 
L 322.953961 108.838481 
L 324.64346 110.056232 
L 326.332959 110.021517 
L 328.022457 108.76808 
L 329.711956 107.368778 
L 331.401454 107.093061 
L 333.090953 108.491739 
L 336.46995 113.64038 
L 338.159449 115.295508 
L 339.848948 115.815256 
L 343.227945 115.5311 
L 346.606942 115.723495 
L 348.296441 115.626853 
L 349.98594 115.375275 
L 351.675438 115.330636 
L 355.054435 116.226802 
L 356.743934 115.76076 
L 358.433433 113.15806 
L 360.122931 107.93963 
L 363.501929 93.87122 
L 365.191427 88.916553 
L 366.880926 87.141598 
L 368.570425 88.118889 
L 370.259923 90.13351 
L 371.949422 91.137421 
L 373.63892 89.842065 
L 375.328419 86.317537 
L 377.017918 81.735322 
L 378.707416 77.504275 
L 380.396915 74.373102 
L 383.775912 69.762719 
L 385.465411 66.63753 
L 388.844408 58.670574 
L 390.533907 55.515582 
L 392.223406 53.718769 
L 393.912904 53.036949 
L 397.291901 52.45248 
L 398.9814 52.111718 
L 400.670899 52.268665 
L 402.360397 53.292598 
L 404.049896 54.926082 
L 405.739395 56.320841 
L 407.428893 56.630937 
L 409.118392 55.678437 
L 410.807891 54.156583 
L 412.497389 53.177711 
L 414.186888 53.45646 
L 417.565885 56.276558 
L 419.255384 56.958797 
L 420.944882 56.632723 
L 422.634381 55.978892 
L 424.32388 56.092468 
L 426.013378 57.720464 
L 427.702877 60.792801 
L 429.392376 64.517561 
L 431.081874 67.891401 
L 432.771373 70.192169 
L 434.460872 71.173272 
L 436.15037 70.973572 
L 437.839869 69.947675 
L 439.529367 68.646504 
L 441.218866 67.81765 
L 442.908365 68.269133 
L 444.597863 70.518619 
L 446.287362 74.402738 
L 447.976861 79.012527 
L 449.666359 83.082979 
L 451.355858 85.661544 
L 453.045357 86.647756 
L 454.734855 86.785752 
L 456.424354 87.170038 
L 458.113852 88.607794 
L 459.803351 91.307127 
L 461.49285 94.990813 
L 464.871847 103.790043 
L 468.250844 113.068648 
L 469.940343 117.37064 
L 471.629842 121.233476 
L 475.008839 128.516642 
L 478.387836 136.844273 
L 480.077335 140.430601 
L 481.766833 142.519433 
L 483.456332 142.892116 
L 485.145831 142.296006 
L 486.835329 142.09541 
L 488.524828 143.428932 
L 490.214327 146.479099 
L 493.593324 154.082008 
L 495.282823 156.887903 
L 496.972321 159.171325 
L 498.66182 161.80293 
L 500.351318 165.375474 
L 503.730316 173.712172 
L 505.419814 176.806742 
L 507.109313 178.910566 
L 508.798812 180.709449 
L 512.177809 185.124797 
L 513.867308 186.437197 
L 515.556806 185.543864 
L 517.246305 182.220912 
L 518.935804 177.823418 
L 520.625302 174.727291 
L 522.314801 174.904412 
L 524.004299 178.648204 
L 525.693798 184.333692 
L 527.383297 189.456869 
L 529.072795 192.22779 
L 530.762294 192.618815 
L 532.451793 192.178127 
L 534.141291 192.797217 
L 535.83079 195.317946 
L 537.520289 198.982982 
L 539.209787 202.038129 
L 540.899286 203.021335 
L 542.588784 201.808953 
L 544.278283 199.708101 
L 545.967782 198.574955 
L 547.65728 199.630504 
L 549.346779 202.729386 
L 551.036278 206.546838 
L 552.725776 209.479629 
L 554.415275 210.629458 
L 556.104774 210.242532 
L 557.794272 209.395715 
L 559.483771 209.18078 
L 561.17327 209.990101 
L 562.862768 211.341296 
L 564.552267 212.333339 
L 566.241765 212.378997 
L 567.931264 211.680442 
L 569.620763 211.133699 
L 571.310261 211.726073 
L 572.99976 213.829889 
L 572.99976 213.829889 
" style="fill: none; stroke: #ff7f0e; stroke-width: 1.5; stroke-linecap: square"/>
   </g>
  </g>
  <g id="axes_2">
   <g id="PathCollection_1">
    <defs>
     <path id="C0_0_b45155cea3" d="M 0 1.118034 
C 0.296506 1.118034 0.580908 1.000231 0.790569 0.790569 
C 1.000231 0.580908 1.118034 0.296506 1.118034 -0 
C 1.118034 -0.296506 1.000231 -0.580908 0.790569 -0.790569 
C 0.580908 -1.000231 0.296506 -1.118034 0 -1.118034 
C -0.296506 -1.118034 -0.580908 -1.000231 -0.790569 -0.790569 
C -1.000231 -0.580908 -1.118034 -0.296506 -1.118034 0 
C -1.118034 0.296506 -1.000231 0.580908 -0.790569 0.790569 
C -0.580908 1.000231 -0.296506 1.118034 0 1.118034 
z
"/>
    </defs>
    <g clip-path="url(#p1a62217ac2)">
     <use xlink:href="#C0_0_b45155cea3" x="494.73898" y="47.302772" style="stroke: #000000"/>
    </g>
    <g clip-path="url(#p1a62217ac2)">
     <use xlink:href="#C0_0_b45155cea3" x="504.884898" y="47.290418" style="stroke: #000000"/>
    </g>
   </g>
   <g id="matplotlib.axis_3"/>
   <g id="matplotlib.axis_4"/>
   <g id="line2d_22">
    <path d="M 559.993351 73.636224 
L 559.915677 71.164608 
L 559.682963 68.702747 
L 559.296126 66.260356 
L 558.756694 63.847075 
L 558.066795 61.472426 
L 557.229152 59.145783 
L 556.24707 56.876327 
L 555.124426 54.673014 
L 553.865651 52.54454 
L 552.475711 50.499306 
L 550.960092 48.545383 
L 549.324777 46.690481 
L 547.576218 44.941922 
L 545.721317 43.306607 
L 543.767393 41.790989 
L 541.722159 40.401049 
L 539.593685 39.142273 
L 537.390373 38.019629 
L 535.120917 37.037548 
L 532.794273 36.199905 
L 530.419625 35.510005 
L 528.006343 34.970573 
L 525.563952 34.583736 
L 523.102091 34.351022 
L 520.630476 34.273348 
L 518.15886 34.351022 
L 515.696999 34.583736 
L 513.254608 34.970573 
L 510.841326 35.510005 
L 508.466678 36.199905 
L 506.140035 37.037548 
L 503.870578 38.019629 
L 501.667266 39.142273 
L 499.538792 40.401049 
L 497.493558 41.790989 
L 495.539634 43.306607 
L 493.684733 44.941922 
L 491.936174 46.690481 
L 490.300859 48.545383 
L 488.78524 50.499306 
L 487.395301 52.54454 
L 486.136525 54.673014 
L 485.013881 56.876327 
L 484.031799 59.145783 
L 483.194156 61.472426 
L 482.504257 63.847075 
L 481.964825 66.260356 
L 481.577988 68.702747 
L 481.345274 71.164608 
L 481.2676 73.636224 
L 481.345274 76.107839 
L 481.577988 78.5697 
L 481.964825 81.012091 
L 482.504257 83.425373 
L 483.194156 85.800021 
L 484.031799 88.126665 
L 485.013881 90.396121 
L 486.136525 92.599434 
L 487.395301 94.727907 
L 488.78524 96.773142 
L 490.300859 98.727065 
L 491.936174 100.581966 
L 493.684733 102.330525 
L 495.539634 103.965841 
L 497.493558 105.481459 
L 499.538792 106.871399 
L 501.667266 108.130175 
L 503.870578 109.252818 
L 506.140035 110.2349 
L 508.466678 111.072543 
L 510.841326 111.762442 
L 513.254608 112.301875 
L 515.696999 112.688711 
L 518.15886 112.921426 
L 520.630476 112.999099 
L 523.102091 112.921426 
L 525.563952 112.688711 
L 528.006343 112.301875 
L 530.419625 111.762442 
L 532.794273 111.072543 
L 535.120917 110.2349 
L 537.390373 109.252818 
L 539.593685 108.130175 
L 541.722159 106.871399 
L 543.767393 105.481459 
L 545.721317 103.965841 
L 547.576218 102.330525 
L 549.324777 100.581966 
L 550.960092 98.727065 
L 552.475711 96.773142 
L 553.865651 94.727907 
L 555.124426 92.599434 
L 556.24707 90.396121 
L 557.229152 88.126665 
L 558.066795 85.800021 
L 558.756694 83.425373 
L 559.296126 81.012091 
L 559.682963 78.5697 
L 559.915677 76.107839 
L 559.993351 73.636224 
" style="fill: none; stroke: #000000; stroke-linecap: square"/>
   </g>
   <g id="line2d_23">
    <path d="M 512.386334 35.146354 
L 520.630476 28.368917 
L 528.874617 35.146354 
" style="fill: none; stroke: #000000; stroke-linecap: square"/>
   </g>
   <g id="line2d_24">
    <path d="M 481.503777 69.266945 
L 480.480343 67.534978 
L 479.850537 67.471997 
L 478.9137 67.763283 
L 477.968991 69.266945 
L 478.11857 74.069215 
L 477.56749 80.973464 
L 478.748376 83.972915 
L 480.480343 84.531868 
L 482.133583 83.075441 
" style="fill: none; stroke: #000000; stroke-linecap: square"/>
   </g>
   <g id="line2d_25">
    <path d="M 559.757174 69.266945 
L 560.780609 67.534978 
L 561.410415 67.471997 
L 562.347251 67.763283 
L 563.29196 69.266945 
L 563.142381 74.069215 
L 563.693461 80.973464 
L 562.512575 83.972915 
L 560.780609 84.531868 
L 559.127368 83.075441 
" style="fill: none; stroke: #000000; stroke-linecap: square"/>
   </g>
  </g>
 </g>
 <defs>
  <clipPath id="p971c39f05e">
   <rect x="54.323678" y="18.118365" width="518.676083" height="380.525145"/>
  </clipPath>
  <clipPath id="p1a62217ac2">
   <rect x="473.261191" y="24.137408" width="94.738569" height="93.093201"/>
  </clipPath>
 </defs>
</svg>
