<?xml version="1.0" encoding="utf-8" standalone="no"?>
<!DOCTYPE svg PUBLIC "-//W3C//DTD SVG 1.1//EN"
  "http://www.w3.org/Graphics/SVG/1.1/DTD/svg11.dtd">
<svg xmlns:xlink="http://www.w3.org/1999/xlink" width="576pt" height="432pt" viewBox="0 0 576 432" xmlns="http://www.w3.org/2000/svg" version="1.1">
 <metadata>
  <rdf:RDF xmlns:dc="http://purl.org/dc/elements/1.1/" xmlns:cc="http://creativecommons.org/ns#" xmlns:rdf="http://www.w3.org/1999/02/22-rdf-syntax-ns#">
   <cc:Work>
    <dc:type rdf:resource="http://purl.org/dc/dcmitype/StillImage"/>
    <dc:date>2025-02-20T17:24:42.365629</dc:date>
    <dc:format>image/svg+xml</dc:format>
    <dc:creator>
     <cc:Agent>
      <dc:title>Matplotlib v3.10.0, https://matplotlib.org/</dc:title>
     </cc:Agent>
    </dc:creator>
   </cc:Work>
  </rdf:RDF>
 </metadata>
 <defs>
  <style type="text/css">*{stroke-linejoin: round; stroke-linecap: butt}</style>
 </defs>
 <g id="figure_1">
  <g id="patch_1">
   <path d="M 0 432 
L 576 432 
L 576 0 
L 0 0 
z
" style="fill: #ffffff"/>
  </g>
  <g id="axes_1">
   <g id="patch_2">
    <path d="M 38.420552 398.64351 
L 561.866948 398.64351 
L 561.866948 18.118365 
L 38.420552 18.118365 
L 38.420552 398.64351 
z
" style="fill: none; opacity: 0"/>
   </g>
   <g id="patch_3">
    <path d="M 38.420552 383.87678 
L 38.420552 32.885095 
" style="fill: none; stroke: #000000; stroke-width: 0.8; stroke-linejoin: miter; stroke-linecap: square"/>
   </g>
   <g id="LineCollection_1">
    <path d="M 178.206081 18.118365 
L 178.206081 398.64351 
" clip-path="url(#pbd0da2874d)" style="fill: none; stroke-dasharray: 3.7,1.6; stroke-dashoffset: 0; stroke: #000000"/>
    <path d="M 221.803907 18.118365 
L 221.803907 398.64351 
" clip-path="url(#pbd0da2874d)" style="fill: none; stroke-dasharray: 3.7,1.6; stroke-dashoffset: 0; stroke: #000000"/>
   </g>
   <g id="matplotlib.axis_1">
    <g id="xtick_1">
     <g id="line2d_1">
      <defs>
       <path id="m8a3c521635" d="M 0 0 
L 0 3.5 
" style="stroke: #000000; stroke-width: 0.8"/>
      </defs>
      <g>
       <use xlink:href="#m8a3c521635" x="38.693039" y="398.64351" style="stroke: #000000; stroke-width: 0.8"/>
      </g>
     </g>
     <g id="text_1">
      <!-- −0.20 -->
      <g transform="translate(23.370383 413.241947) scale(0.1 -0.1)">
       <defs>
        <path id="DejaVuSans-2212" d="M 678 2272 
L 4684 2272 
L 4684 1741 
L 678 1741 
L 678 2272 
z
" transform="scale(0.015625)"/>
        <path id="DejaVuSans-30" d="M 2034 4250 
Q 1547 4250 1301 3770 
Q 1056 3291 1056 2328 
Q 1056 1369 1301 889 
Q 1547 409 2034 409 
Q 2525 409 2770 889 
Q 3016 1369 3016 2328 
Q 3016 3291 2770 3770 
Q 2525 4250 2034 4250 
z
M 2034 4750 
Q 2819 4750 3233 4129 
Q 3647 3509 3647 2328 
Q 3647 1150 3233 529 
Q 2819 -91 2034 -91 
Q 1250 -91 836 529 
Q 422 1150 422 2328 
Q 422 3509 836 4129 
Q 1250 4750 2034 4750 
z
" transform="scale(0.015625)"/>
        <path id="DejaVuSans-2e" d="M 684 794 
L 1344 794 
L 1344 0 
L 684 0 
L 684 794 
z
" transform="scale(0.015625)"/>
        <path id="DejaVuSans-32" d="M 1228 531 
L 3431 531 
L 3431 0 
L 469 0 
L 469 531 
Q 828 903 1448 1529 
Q 2069 2156 2228 2338 
Q 2531 2678 2651 2914 
Q 2772 3150 2772 3378 
Q 2772 3750 2511 3984 
Q 2250 4219 1831 4219 
Q 1534 4219 1204 4116 
Q 875 4013 500 3803 
L 500 4441 
Q 881 4594 1212 4672 
Q 1544 4750 1819 4750 
Q 2544 4750 2975 4387 
Q 3406 4025 3406 3419 
Q 3406 3131 3298 2873 
Q 3191 2616 2906 2266 
Q 2828 2175 2409 1742 
Q 1991 1309 1228 531 
z
" transform="scale(0.015625)"/>
       </defs>
       <use xlink:href="#DejaVuSans-2212"/>
       <use xlink:href="#DejaVuSans-30" transform="translate(83.789062 0)"/>
       <use xlink:href="#DejaVuSans-2e" transform="translate(147.412109 0)"/>
       <use xlink:href="#DejaVuSans-32" transform="translate(179.199219 0)"/>
       <use xlink:href="#DejaVuSans-30" transform="translate(242.822266 0)"/>
      </g>
     </g>
    </g>
    <g id="xtick_2">
     <g id="line2d_2">
      <g>
       <use xlink:href="#m8a3c521635" x="125.88869" y="398.64351" style="stroke: #000000; stroke-width: 0.8"/>
      </g>
     </g>
     <g id="text_2">
      <!-- 0.00 -->
      <g transform="translate(114.755878 413.241947) scale(0.1 -0.1)">
       <use xlink:href="#DejaVuSans-30"/>
       <use xlink:href="#DejaVuSans-2e" transform="translate(63.623047 0)"/>
       <use xlink:href="#DejaVuSans-30" transform="translate(95.410156 0)"/>
       <use xlink:href="#DejaVuSans-30" transform="translate(159.033203 0)"/>
      </g>
     </g>
    </g>
    <g id="xtick_3">
     <g id="line2d_3">
      <g>
       <use xlink:href="#m8a3c521635" x="178.206081" y="398.64351" style="stroke: #000000; stroke-width: 0.8"/>
      </g>
     </g>
     <g id="text_3">
      <!-- 0.12 -->
      <g transform="translate(167.073269 413.241947) scale(0.1 -0.1)">
       <defs>
        <path id="DejaVuSans-31" d="M 794 531 
L 1825 531 
L 1825 4091 
L 703 3866 
L 703 4441 
L 1819 4666 
L 2450 4666 
L 2450 531 
L 3481 531 
L 3481 0 
L 794 0 
L 794 531 
z
" transform="scale(0.015625)"/>
       </defs>
       <use xlink:href="#DejaVuSans-30"/>
       <use xlink:href="#DejaVuSans-2e" transform="translate(63.623047 0)"/>
       <use xlink:href="#DejaVuSans-31" transform="translate(95.410156 0)"/>
       <use xlink:href="#DejaVuSans-32" transform="translate(159.033203 0)"/>
      </g>
     </g>
    </g>
    <g id="xtick_4">
     <g id="line2d_4">
      <g>
       <use xlink:href="#m8a3c521635" x="213.084342" y="398.64351" style="stroke: #000000; stroke-width: 0.8"/>
      </g>
     </g>
     <g id="text_4">
      <!-- 0.20 -->
      <g transform="translate(201.951529 413.241947) scale(0.1 -0.1)">
       <use xlink:href="#DejaVuSans-30"/>
       <use xlink:href="#DejaVuSans-2e" transform="translate(63.623047 0)"/>
       <use xlink:href="#DejaVuSans-32" transform="translate(95.410156 0)"/>
       <use xlink:href="#DejaVuSans-30" transform="translate(159.033203 0)"/>
      </g>
     </g>
    </g>
    <g id="xtick_5">
     <g id="line2d_5">
      <g>
       <use xlink:href="#m8a3c521635" x="221.803907" y="398.64351" style="stroke: #000000; stroke-width: 0.8"/>
      </g>
     </g>
     <g id="text_5">
      <!-- 0.22 -->
      <g transform="translate(210.671094 413.241947) scale(0.1 -0.1)">
       <use xlink:href="#DejaVuSans-30"/>
       <use xlink:href="#DejaVuSans-2e" transform="translate(63.623047 0)"/>
       <use xlink:href="#DejaVuSans-32" transform="translate(95.410156 0)"/>
       <use xlink:href="#DejaVuSans-32" transform="translate(159.033203 0)"/>
      </g>
     </g>
    </g>
    <g id="xtick_6">
     <g id="line2d_6">
      <g>
       <use xlink:href="#m8a3c521635" x="300.279993" y="398.64351" style="stroke: #000000; stroke-width: 0.8"/>
      </g>
     </g>
     <g id="text_6">
      <!-- 0.40 -->
      <g transform="translate(289.147181 413.241947) scale(0.1 -0.1)">
       <defs>
        <path id="DejaVuSans-34" d="M 2419 4116 
L 825 1625 
L 2419 1625 
L 2419 4116 
z
M 2253 4666 
L 3047 4666 
L 3047 1625 
L 3713 1625 
L 3713 1100 
L 3047 1100 
L 3047 0 
L 2419 0 
L 2419 1100 
L 313 1100 
L 313 1709 
L 2253 4666 
z
" transform="scale(0.015625)"/>
       </defs>
       <use xlink:href="#DejaVuSans-30"/>
       <use xlink:href="#DejaVuSans-2e" transform="translate(63.623047 0)"/>
       <use xlink:href="#DejaVuSans-34" transform="translate(95.410156 0)"/>
       <use xlink:href="#DejaVuSans-30" transform="translate(159.033203 0)"/>
      </g>
     </g>
    </g>
    <g id="xtick_7">
     <g id="line2d_7">
      <g>
       <use xlink:href="#m8a3c521635" x="387.475645" y="398.64351" style="stroke: #000000; stroke-width: 0.8"/>
      </g>
     </g>
     <g id="text_7">
      <!-- 0.60 -->
      <g transform="translate(376.342832 413.241947) scale(0.1 -0.1)">
       <defs>
        <path id="DejaVuSans-36" d="M 2113 2584 
Q 1688 2584 1439 2293 
Q 1191 2003 1191 1497 
Q 1191 994 1439 701 
Q 1688 409 2113 409 
Q 2538 409 2786 701 
Q 3034 994 3034 1497 
Q 3034 2003 2786 2293 
Q 2538 2584 2113 2584 
z
M 3366 4563 
L 3366 3988 
Q 3128 4100 2886 4159 
Q 2644 4219 2406 4219 
Q 1781 4219 1451 3797 
Q 1122 3375 1075 2522 
Q 1259 2794 1537 2939 
Q 1816 3084 2150 3084 
Q 2853 3084 3261 2657 
Q 3669 2231 3669 1497 
Q 3669 778 3244 343 
Q 2819 -91 2113 -91 
Q 1303 -91 875 529 
Q 447 1150 447 2328 
Q 447 3434 972 4092 
Q 1497 4750 2381 4750 
Q 2619 4750 2861 4703 
Q 3103 4656 3366 4563 
z
" transform="scale(0.015625)"/>
       </defs>
       <use xlink:href="#DejaVuSans-30"/>
       <use xlink:href="#DejaVuSans-2e" transform="translate(63.623047 0)"/>
       <use xlink:href="#DejaVuSans-36" transform="translate(95.410156 0)"/>
       <use xlink:href="#DejaVuSans-30" transform="translate(159.033203 0)"/>
      </g>
     </g>
    </g>
    <g id="xtick_8">
     <g id="line2d_8">
      <g>
       <use xlink:href="#m8a3c521635" x="474.671296" y="398.64351" style="stroke: #000000; stroke-width: 0.8"/>
      </g>
     </g>
     <g id="text_8">
      <!-- 0.80 -->
      <g transform="translate(463.538484 413.241947) scale(0.1 -0.1)">
       <defs>
        <path id="DejaVuSans-38" d="M 2034 2216 
Q 1584 2216 1326 1975 
Q 1069 1734 1069 1313 
Q 1069 891 1326 650 
Q 1584 409 2034 409 
Q 2484 409 2743 651 
Q 3003 894 3003 1313 
Q 3003 1734 2745 1975 
Q 2488 2216 2034 2216 
z
M 1403 2484 
Q 997 2584 770 2862 
Q 544 3141 544 3541 
Q 544 4100 942 4425 
Q 1341 4750 2034 4750 
Q 2731 4750 3128 4425 
Q 3525 4100 3525 3541 
Q 3525 3141 3298 2862 
Q 3072 2584 2669 2484 
Q 3125 2378 3379 2068 
Q 3634 1759 3634 1313 
Q 3634 634 3220 271 
Q 2806 -91 2034 -91 
Q 1263 -91 848 271 
Q 434 634 434 1313 
Q 434 1759 690 2068 
Q 947 2378 1403 2484 
z
M 1172 3481 
Q 1172 3119 1398 2916 
Q 1625 2713 2034 2713 
Q 2441 2713 2670 2916 
Q 2900 3119 2900 3481 
Q 2900 3844 2670 4047 
Q 2441 4250 2034 4250 
Q 1625 4250 1398 4047 
Q 1172 3844 1172 3481 
z
" transform="scale(0.015625)"/>
       </defs>
       <use xlink:href="#DejaVuSans-30"/>
       <use xlink:href="#DejaVuSans-2e" transform="translate(63.623047 0)"/>
       <use xlink:href="#DejaVuSans-38" transform="translate(95.410156 0)"/>
       <use xlink:href="#DejaVuSans-30" transform="translate(159.033203 0)"/>
      </g>
     </g>
    </g>
    <g id="xtick_9">
     <g id="line2d_9">
      <g>
       <use xlink:href="#m8a3c521635" x="561.866948" y="398.64351" style="stroke: #000000; stroke-width: 0.8"/>
      </g>
     </g>
     <g id="text_9">
      <!-- 1.00 -->
      <g transform="translate(550.734135 413.241947) scale(0.1 -0.1)">
       <use xlink:href="#DejaVuSans-31"/>
       <use xlink:href="#DejaVuSans-2e" transform="translate(63.623047 0)"/>
       <use xlink:href="#DejaVuSans-30" transform="translate(95.410156 0)"/>
       <use xlink:href="#DejaVuSans-30" transform="translate(159.033203 0)"/>
      </g>
     </g>
    </g>
    <g id="text_10">
     <!-- Time (s) -->
     <g transform="translate(279.814844 426.920073) scale(0.1 -0.1)">
      <defs>
       <path id="DejaVuSans-54" d="M -19 4666 
L 3928 4666 
L 3928 4134 
L 2272 4134 
L 2272 0 
L 1638 0 
L 1638 4134 
L -19 4134 
L -19 4666 
z
" transform="scale(0.015625)"/>
       <path id="DejaVuSans-69" d="M 603 3500 
L 1178 3500 
L 1178 0 
L 603 0 
L 603 3500 
z
M 603 4863 
L 1178 4863 
L 1178 4134 
L 603 4134 
L 603 4863 
z
" transform="scale(0.015625)"/>
       <path id="DejaVuSans-6d" d="M 3328 2828 
Q 3544 3216 3844 3400 
Q 4144 3584 4550 3584 
Q 5097 3584 5394 3201 
Q 5691 2819 5691 2113 
L 5691 0 
L 5113 0 
L 5113 2094 
Q 5113 2597 4934 2840 
Q 4756 3084 4391 3084 
Q 3944 3084 3684 2787 
Q 3425 2491 3425 1978 
L 3425 0 
L 2847 0 
L 2847 2094 
Q 2847 2600 2669 2842 
Q 2491 3084 2119 3084 
Q 1678 3084 1418 2786 
Q 1159 2488 1159 1978 
L 1159 0 
L 581 0 
L 581 3500 
L 1159 3500 
L 1159 2956 
Q 1356 3278 1631 3431 
Q 1906 3584 2284 3584 
Q 2666 3584 2933 3390 
Q 3200 3197 3328 2828 
z
" transform="scale(0.015625)"/>
       <path id="DejaVuSans-65" d="M 3597 1894 
L 3597 1613 
L 953 1613 
Q 991 1019 1311 708 
Q 1631 397 2203 397 
Q 2534 397 2845 478 
Q 3156 559 3463 722 
L 3463 178 
Q 3153 47 2828 -22 
Q 2503 -91 2169 -91 
Q 1331 -91 842 396 
Q 353 884 353 1716 
Q 353 2575 817 3079 
Q 1281 3584 2069 3584 
Q 2775 3584 3186 3129 
Q 3597 2675 3597 1894 
z
M 3022 2063 
Q 3016 2534 2758 2815 
Q 2500 3097 2075 3097 
Q 1594 3097 1305 2825 
Q 1016 2553 972 2059 
L 3022 2063 
z
" transform="scale(0.015625)"/>
       <path id="DejaVuSans-20" transform="scale(0.015625)"/>
       <path id="DejaVuSans-28" d="M 1984 4856 
Q 1566 4138 1362 3434 
Q 1159 2731 1159 2009 
Q 1159 1288 1364 580 
Q 1569 -128 1984 -844 
L 1484 -844 
Q 1016 -109 783 600 
Q 550 1309 550 2009 
Q 550 2706 781 3412 
Q 1013 4119 1484 4856 
L 1984 4856 
z
" transform="scale(0.015625)"/>
       <path id="DejaVuSans-73" d="M 2834 3397 
L 2834 2853 
Q 2591 2978 2328 3040 
Q 2066 3103 1784 3103 
Q 1356 3103 1142 2972 
Q 928 2841 928 2578 
Q 928 2378 1081 2264 
Q 1234 2150 1697 2047 
L 1894 2003 
Q 2506 1872 2764 1633 
Q 3022 1394 3022 966 
Q 3022 478 2636 193 
Q 2250 -91 1575 -91 
Q 1294 -91 989 -36 
Q 684 19 347 128 
L 347 722 
Q 666 556 975 473 
Q 1284 391 1588 391 
Q 1994 391 2212 530 
Q 2431 669 2431 922 
Q 2431 1156 2273 1281 
Q 2116 1406 1581 1522 
L 1381 1569 
Q 847 1681 609 1914 
Q 372 2147 372 2553 
Q 372 3047 722 3315 
Q 1072 3584 1716 3584 
Q 2034 3584 2315 3537 
Q 2597 3491 2834 3397 
z
" transform="scale(0.015625)"/>
       <path id="DejaVuSans-29" d="M 513 4856 
L 1013 4856 
Q 1481 4119 1714 3412 
Q 1947 2706 1947 2009 
Q 1947 1309 1714 600 
Q 1481 -109 1013 -844 
L 513 -844 
Q 928 -128 1133 580 
Q 1338 1288 1338 2009 
Q 1338 2731 1133 3434 
Q 928 4138 513 4856 
z
" transform="scale(0.015625)"/>
      </defs>
      <use xlink:href="#DejaVuSans-54"/>
      <use xlink:href="#DejaVuSans-69" transform="translate(57.958984 0)"/>
      <use xlink:href="#DejaVuSans-6d" transform="translate(85.742188 0)"/>
      <use xlink:href="#DejaVuSans-65" transform="translate(183.154297 0)"/>
      <use xlink:href="#DejaVuSans-20" transform="translate(244.677734 0)"/>
      <use xlink:href="#DejaVuSans-28" transform="translate(276.464844 0)"/>
      <use xlink:href="#DejaVuSans-73" transform="translate(315.478516 0)"/>
      <use xlink:href="#DejaVuSans-29" transform="translate(367.578125 0)"/>
     </g>
    </g>
   </g>
   <g id="matplotlib.axis_2">
    <g id="ytick_1">
     <g id="line2d_10">
      <defs>
       <path id="m5d592e0e47" d="M 0 0 
L -3.5 0 
" style="stroke: #000000; stroke-width: 0.8"/>
      </defs>
      <g>
       <use xlink:href="#m5d592e0e47" x="38.420552" y="383.87678" style="stroke: #000000; stroke-width: 0.8"/>
      </g>
     </g>
     <g id="text_11">
      <!-- −6 -->
      <g transform="translate(16.678365 387.675999) scale(0.1 -0.1)">
       <use xlink:href="#DejaVuSans-2212"/>
       <use xlink:href="#DejaVuSans-36" transform="translate(83.789062 0)"/>
      </g>
     </g>
    </g>
    <g id="ytick_2">
     <g id="line2d_11">
      <g>
       <use xlink:href="#m5d592e0e47" x="38.420552" y="325.378166" style="stroke: #000000; stroke-width: 0.8"/>
      </g>
     </g>
     <g id="text_12">
      <!-- −4 -->
      <g transform="translate(16.678365 329.177385) scale(0.1 -0.1)">
       <use xlink:href="#DejaVuSans-2212"/>
       <use xlink:href="#DejaVuSans-34" transform="translate(83.789062 0)"/>
      </g>
     </g>
    </g>
    <g id="ytick_3">
     <g id="line2d_12">
      <g>
       <use xlink:href="#m5d592e0e47" x="38.420552" y="266.879552" style="stroke: #000000; stroke-width: 0.8"/>
      </g>
     </g>
     <g id="text_13">
      <!-- −2 -->
      <g transform="translate(16.678365 270.678771) scale(0.1 -0.1)">
       <use xlink:href="#DejaVuSans-2212"/>
       <use xlink:href="#DejaVuSans-32" transform="translate(83.789062 0)"/>
      </g>
     </g>
    </g>
    <g id="ytick_4">
     <g id="line2d_13">
      <g>
       <use xlink:href="#m5d592e0e47" x="38.420552" y="208.380938" style="stroke: #000000; stroke-width: 0.8"/>
      </g>
     </g>
     <g id="text_14">
      <!-- 0 -->
      <g transform="translate(25.058052 212.180156) scale(0.1 -0.1)">
       <use xlink:href="#DejaVuSans-30"/>
      </g>
     </g>
    </g>
    <g id="ytick_5">
     <g id="line2d_14">
      <g>
       <use xlink:href="#m5d592e0e47" x="38.420552" y="149.882323" style="stroke: #000000; stroke-width: 0.8"/>
      </g>
     </g>
     <g id="text_15">
      <!-- 2 -->
      <g transform="translate(25.058052 153.681542) scale(0.1 -0.1)">
       <use xlink:href="#DejaVuSans-32"/>
      </g>
     </g>
    </g>
    <g id="ytick_6">
     <g id="line2d_15">
      <g>
       <use xlink:href="#m5d592e0e47" x="38.420552" y="91.383709" style="stroke: #000000; stroke-width: 0.8"/>
      </g>
     </g>
     <g id="text_16">
      <!-- 4 -->
      <g transform="translate(25.058052 95.182928) scale(0.1 -0.1)">
       <use xlink:href="#DejaVuSans-34"/>
      </g>
     </g>
    </g>
    <g id="ytick_7">
     <g id="line2d_16">
      <g>
       <use xlink:href="#m5d592e0e47" x="38.420552" y="32.885095" style="stroke: #000000; stroke-width: 0.8"/>
      </g>
     </g>
     <g id="text_17">
      <!-- 6 -->
      <g transform="translate(25.058052 36.684313) scale(0.1 -0.1)">
       <use xlink:href="#DejaVuSans-36"/>
      </g>
     </g>
    </g>
    <g id="text_18">
     <!-- µV -->
     <g transform="translate(10.598677 214.9825) rotate(-90) scale(0.1 -0.1)">
      <defs>
       <path id="DejaVuSans-b5" d="M 544 -1331 
L 544 3500 
L 1119 3500 
L 1119 1325 
Q 1119 872 1334 640 
Q 1550 409 1972 409 
Q 2434 409 2667 671 
Q 2900 934 2900 1459 
L 2900 3500 
L 3475 3500 
L 3475 806 
Q 3475 619 3529 530 
Q 3584 441 3700 441 
Q 3728 441 3778 458 
Q 3828 475 3916 513 
L 3916 50 
Q 3788 -22 3673 -56 
Q 3559 -91 3450 -91 
Q 3234 -91 3106 31 
Q 2978 153 2931 403 
Q 2775 156 2548 32 
Q 2322 -91 2016 -91 
Q 1697 -91 1473 31 
Q 1250 153 1119 397 
L 1119 -1331 
L 544 -1331 
z
" transform="scale(0.015625)"/>
       <path id="DejaVuSans-56" d="M 1831 0 
L 50 4666 
L 709 4666 
L 2188 738 
L 3669 4666 
L 4325 4666 
L 2547 0 
L 1831 0 
z
" transform="scale(0.015625)"/>
      </defs>
      <use xlink:href="#DejaVuSans-b5"/>
      <use xlink:href="#DejaVuSans-56" transform="translate(63.623047 0)"/>
     </g>
    </g>
   </g>
   <g id="patch_4">
    <path d="M 38.693039 398.64351 
L 561.866948 398.64351 
" style="fill: none; stroke: #000000; stroke-width: 0.8; stroke-linejoin: miter; stroke-linecap: square"/>
   </g>
   <g id="patch_5">
    <path d="M 38.420552 208.380938 
L 561.866948 208.380938 
" style="fill: none; stroke: #000000; stroke-width: 0.8; stroke-linejoin: miter; stroke-linecap: square"/>
   </g>
   <g id="text_19">
    <!-- F3, F7 (median) -->
    <g transform="translate(252.712813 12.118365) scale(0.12 -0.12)">
     <defs>
      <path id="DejaVuSans-46" d="M 628 4666 
L 3309 4666 
L 3309 4134 
L 1259 4134 
L 1259 2759 
L 3109 2759 
L 3109 2228 
L 1259 2228 
L 1259 0 
L 628 0 
L 628 4666 
z
" transform="scale(0.015625)"/>
      <path id="DejaVuSans-33" d="M 2597 2516 
Q 3050 2419 3304 2112 
Q 3559 1806 3559 1356 
Q 3559 666 3084 287 
Q 2609 -91 1734 -91 
Q 1441 -91 1130 -33 
Q 819 25 488 141 
L 488 750 
Q 750 597 1062 519 
Q 1375 441 1716 441 
Q 2309 441 2620 675 
Q 2931 909 2931 1356 
Q 2931 1769 2642 2001 
Q 2353 2234 1838 2234 
L 1294 2234 
L 1294 2753 
L 1863 2753 
Q 2328 2753 2575 2939 
Q 2822 3125 2822 3475 
Q 2822 3834 2567 4026 
Q 2313 4219 1838 4219 
Q 1578 4219 1281 4162 
Q 984 4106 628 3988 
L 628 4550 
Q 988 4650 1302 4700 
Q 1616 4750 1894 4750 
Q 2613 4750 3031 4423 
Q 3450 4097 3450 3541 
Q 3450 3153 3228 2886 
Q 3006 2619 2597 2516 
z
" transform="scale(0.015625)"/>
      <path id="DejaVuSans-2c" d="M 750 794 
L 1409 794 
L 1409 256 
L 897 -744 
L 494 -744 
L 750 256 
L 750 794 
z
" transform="scale(0.015625)"/>
      <path id="DejaVuSans-37" d="M 525 4666 
L 3525 4666 
L 3525 4397 
L 1831 0 
L 1172 0 
L 2766 4134 
L 525 4134 
L 525 4666 
z
" transform="scale(0.015625)"/>
      <path id="DejaVuSans-64" d="M 2906 2969 
L 2906 4863 
L 3481 4863 
L 3481 0 
L 2906 0 
L 2906 525 
Q 2725 213 2448 61 
Q 2172 -91 1784 -91 
Q 1150 -91 751 415 
Q 353 922 353 1747 
Q 353 2572 751 3078 
Q 1150 3584 1784 3584 
Q 2172 3584 2448 3432 
Q 2725 3281 2906 2969 
z
M 947 1747 
Q 947 1113 1208 752 
Q 1469 391 1925 391 
Q 2381 391 2643 752 
Q 2906 1113 2906 1747 
Q 2906 2381 2643 2742 
Q 2381 3103 1925 3103 
Q 1469 3103 1208 2742 
Q 947 2381 947 1747 
z
" transform="scale(0.015625)"/>
      <path id="DejaVuSans-61" d="M 2194 1759 
Q 1497 1759 1228 1600 
Q 959 1441 959 1056 
Q 959 750 1161 570 
Q 1363 391 1709 391 
Q 2188 391 2477 730 
Q 2766 1069 2766 1631 
L 2766 1759 
L 2194 1759 
z
M 3341 1997 
L 3341 0 
L 2766 0 
L 2766 531 
Q 2569 213 2275 61 
Q 1981 -91 1556 -91 
Q 1019 -91 701 211 
Q 384 513 384 1019 
Q 384 1609 779 1909 
Q 1175 2209 1959 2209 
L 2766 2209 
L 2766 2266 
Q 2766 2663 2505 2880 
Q 2244 3097 1772 3097 
Q 1472 3097 1187 3025 
Q 903 2953 641 2809 
L 641 3341 
Q 956 3463 1253 3523 
Q 1550 3584 1831 3584 
Q 2591 3584 2966 3190 
Q 3341 2797 3341 1997 
z
" transform="scale(0.015625)"/>
      <path id="DejaVuSans-6e" d="M 3513 2113 
L 3513 0 
L 2938 0 
L 2938 2094 
Q 2938 2591 2744 2837 
Q 2550 3084 2163 3084 
Q 1697 3084 1428 2787 
Q 1159 2491 1159 1978 
L 1159 0 
L 581 0 
L 581 3500 
L 1159 3500 
L 1159 2956 
Q 1366 3272 1645 3428 
Q 1925 3584 2291 3584 
Q 2894 3584 3203 3211 
Q 3513 2838 3513 2113 
z
" transform="scale(0.015625)"/>
     </defs>
     <use xlink:href="#DejaVuSans-46"/>
     <use xlink:href="#DejaVuSans-33" transform="translate(57.519531 0)"/>
     <use xlink:href="#DejaVuSans-2c" transform="translate(121.142578 0)"/>
     <use xlink:href="#DejaVuSans-20" transform="translate(152.929688 0)"/>
     <use xlink:href="#DejaVuSans-46" transform="translate(184.716797 0)"/>
     <use xlink:href="#DejaVuSans-37" transform="translate(242.236328 0)"/>
     <use xlink:href="#DejaVuSans-20" transform="translate(305.859375 0)"/>
     <use xlink:href="#DejaVuSans-28" transform="translate(337.646484 0)"/>
     <use xlink:href="#DejaVuSans-6d" transform="translate(376.660156 0)"/>
     <use xlink:href="#DejaVuSans-65" transform="translate(474.072266 0)"/>
     <use xlink:href="#DejaVuSans-64" transform="translate(535.595703 0)"/>
     <use xlink:href="#DejaVuSans-69" transform="translate(599.072266 0)"/>
     <use xlink:href="#DejaVuSans-61" transform="translate(626.855469 0)"/>
     <use xlink:href="#DejaVuSans-6e" transform="translate(688.134766 0)"/>
     <use xlink:href="#DejaVuSans-29" transform="translate(751.513672 0)"/>
    </g>
   </g>
   <g id="legend_1">
    <g id="patch_6">
     <path d="M 45.420552 55.75274 
L 126.56274 55.75274 
Q 128.56274 55.75274 128.56274 53.75274 
L 128.56274 25.118365 
Q 128.56274 23.118365 126.56274 23.118365 
L 45.420552 23.118365 
Q 43.420552 23.118365 43.420552 25.118365 
L 43.420552 53.75274 
Q 43.420552 55.75274 45.420552 55.75274 
z
" style="fill: #ffffff; opacity: 0.8; stroke: #cccccc; stroke-linejoin: miter"/>
    </g>
    <g id="line2d_17">
     <path d="M 47.420552 31.216803 
L 57.420552 31.216803 
L 67.420552 31.216803 
" style="fill: none; stroke: #1f77b4; stroke-width: 1.5; stroke-linecap: square"/>
    </g>
    <g id="text_20">
     <!-- eerie -->
     <g transform="translate(75.420552 34.716803) scale(0.1 -0.1)">
      <defs>
       <path id="DejaVuSans-72" d="M 2631 2963 
Q 2534 3019 2420 3045 
Q 2306 3072 2169 3072 
Q 1681 3072 1420 2755 
Q 1159 2438 1159 1844 
L 1159 0 
L 581 0 
L 581 3500 
L 1159 3500 
L 1159 2956 
Q 1341 3275 1631 3429 
Q 1922 3584 2338 3584 
Q 2397 3584 2469 3576 
Q 2541 3569 2628 3553 
L 2631 2963 
z
" transform="scale(0.015625)"/>
      </defs>
      <use xlink:href="#DejaVuSans-65"/>
      <use xlink:href="#DejaVuSans-65" transform="translate(61.523438 0)"/>
      <use xlink:href="#DejaVuSans-72" transform="translate(123.046875 0)"/>
      <use xlink:href="#DejaVuSans-69" transform="translate(164.160156 0)"/>
      <use xlink:href="#DejaVuSans-65" transform="translate(191.943359 0)"/>
     </g>
    </g>
    <g id="line2d_18">
     <path d="M 47.420552 45.894928 
L 57.420552 45.894928 
L 67.420552 45.894928 
" style="fill: none; stroke: #ff7f0e; stroke-width: 1.5; stroke-linecap: square"/>
    </g>
    <g id="text_21">
     <!-- non_eerie -->
     <g transform="translate(75.420552 49.394928) scale(0.1 -0.1)">
      <defs>
       <path id="DejaVuSans-6f" d="M 1959 3097 
Q 1497 3097 1228 2736 
Q 959 2375 959 1747 
Q 959 1119 1226 758 
Q 1494 397 1959 397 
Q 2419 397 2687 759 
Q 2956 1122 2956 1747 
Q 2956 2369 2687 2733 
Q 2419 3097 1959 3097 
z
M 1959 3584 
Q 2709 3584 3137 3096 
Q 3566 2609 3566 1747 
Q 3566 888 3137 398 
Q 2709 -91 1959 -91 
Q 1206 -91 779 398 
Q 353 888 353 1747 
Q 353 2609 779 3096 
Q 1206 3584 1959 3584 
z
" transform="scale(0.015625)"/>
       <path id="DejaVuSans-5f" d="M 3263 -1063 
L 3263 -1509 
L -63 -1509 
L -63 -1063 
L 3263 -1063 
z
" transform="scale(0.015625)"/>
      </defs>
      <use xlink:href="#DejaVuSans-6e"/>
      <use xlink:href="#DejaVuSans-6f" transform="translate(63.378906 0)"/>
      <use xlink:href="#DejaVuSans-6e" transform="translate(124.560547 0)"/>
      <use xlink:href="#DejaVuSans-5f" transform="translate(187.939453 0)"/>
      <use xlink:href="#DejaVuSans-65" transform="translate(237.939453 0)"/>
      <use xlink:href="#DejaVuSans-65" transform="translate(299.462891 0)"/>
      <use xlink:href="#DejaVuSans-72" transform="translate(360.986328 0)"/>
      <use xlink:href="#DejaVuSans-69" transform="translate(402.099609 0)"/>
      <use xlink:href="#DejaVuSans-65" transform="translate(429.882812 0)"/>
     </g>
    </g>
   </g>
   <g id="FillBetweenPolyCollection_1">
    <defs>
     <path id="m7d34b39bb7" d="M 38.420552 -216.736766 
L 38.420552 -204.885116 
L 40.123593 -210.584345 
L 41.826633 -211.285554 
L 43.529673 -206.006601 
L 45.232713 -197.471933 
L 46.935753 -189.909776 
L 48.638793 -186.508825 
L 50.341833 -189.917367 
L 52.044873 -198.475869 
L 53.747913 -207.637073 
L 55.450953 -213.093537 
L 57.153993 -213.776459 
L 58.857033 -212.312463 
L 60.560073 -210.567759 
L 62.263113 -210.362495 
L 63.966154 -211.617631 
L 65.669194 -213.110988 
L 67.372234 -212.706129 
L 69.075274 -210.153057 
L 70.778314 -207.091247 
L 72.481354 -206.759351 
L 74.184394 -208.849235 
L 75.887434 -209.953733 
L 77.590474 -207.561402 
L 79.293514 -201.307682 
L 80.996554 -193.168304 
L 82.699594 -188.929399 
L 84.402634 -193.009899 
L 86.105674 -204.888748 
L 87.808714 -219.205319 
L 89.511755 -230.741281 
L 91.214795 -235.891838 
L 92.917835 -234.883289 
L 94.620875 -231.640499 
L 96.323915 -231.188651 
L 98.026955 -234.284151 
L 99.729995 -238.020017 
L 101.433035 -237.621995 
L 103.136075 -232.132434 
L 104.839115 -224.0237 
L 106.542155 -218.390241 
L 108.245195 -219.507755 
L 109.948235 -227.528256 
L 111.651275 -238.546812 
L 113.354315 -246.496517 
L 115.057356 -248.011547 
L 116.760396 -244.803871 
L 118.463436 -239.65022 
L 120.166476 -237.404429 
L 121.869516 -238.89043 
L 123.572556 -242.351648 
L 125.275596 -243.293337 
L 126.978636 -239.862256 
L 128.681676 -234.435534 
L 130.384716 -231.343794 
L 132.087756 -234.037878 
L 133.790796 -242.182425 
L 135.493836 -252.41814 
L 137.196876 -259.507758 
L 138.899916 -259.596345 
L 140.602957 -253.306511 
L 142.305997 -244.865918 
L 144.009037 -239.328496 
L 145.712077 -239.434737 
L 147.415117 -244.938612 
L 149.118157 -251.944159 
L 150.821197 -257.164895 
L 152.524237 -257.553033 
L 154.227277 -253.114746 
L 155.930317 -246.487733 
L 157.633357 -240.702906 
L 159.336397 -238.950954 
L 161.039437 -241.294769 
L 162.742477 -245.534298 
L 164.445517 -247.83665 
L 166.148558 -245.759004 
L 167.851598 -239.894899 
L 169.554638 -232.002586 
L 171.257678 -224.96657 
L 172.960718 -220.809897 
L 174.663758 -219.473975 
L 176.366798 -218.918216 
L 178.069838 -218.197179 
L 179.772878 -218.352005 
L 181.475918 -222.732645 
L 183.178958 -234.893068 
L 184.881998 -256.120976 
L 186.585038 -284.228459 
L 188.288078 -313.465804 
L 189.991118 -338.250368 
L 191.694159 -355.668622 
L 193.397199 -366.127674 
L 195.100239 -371.836836 
L 196.803279 -375.358526 
L 198.506319 -376.478719 
L 200.209359 -374.343752 
L 201.912399 -368.647504 
L 203.615439 -359.349248 
L 205.318479 -348.833876 
L 207.021519 -339.206743 
L 208.724559 -332.677969 
L 210.427599 -328.635898 
L 212.130639 -326.300184 
L 213.833679 -323.613825 
L 215.536719 -319.437722 
L 217.23976 -315.240175 
L 218.9428 -311.192428 
L 220.64584 -306.999181 
L 222.34888 -301.939942 
L 224.05192 -296.594319 
L 225.75496 -289.810095 
L 227.458 -281.635723 
L 229.16104 -274.067179 
L 230.86408 -268.877147 
L 232.56712 -266.8649 
L 234.27016 -266.645245 
L 235.9732 -265.993115 
L 237.67624 -262.763779 
L 239.37928 -257.338742 
L 241.08232 -251.212847 
L 242.785361 -246.708092 
L 244.488401 -245.684787 
L 246.191441 -247.462642 
L 247.894481 -251.77515 
L 249.597521 -256.030941 
L 251.300561 -259.035792 
L 253.003601 -261.393538 
L 254.706641 -264.979084 
L 256.409681 -271.106434 
L 258.112721 -279.20816 
L 259.815761 -287.348364 
L 261.518801 -293.295883 
L 263.221841 -295.552659 
L 264.924881 -294.710757 
L 266.627921 -294.651367 
L 268.330962 -298.131182 
L 270.034002 -305.948795 
L 271.737042 -317.033941 
L 273.440082 -327.399565 
L 275.143122 -333.46012 
L 276.846162 -334.115195 
L 278.549202 -332.551941 
L 280.252242 -332.276133 
L 281.955282 -335.094557 
L 283.658322 -340.151261 
L 285.361362 -343.962046 
L 287.064402 -341.852715 
L 288.767442 -331.83326 
L 290.470482 -316.217727 
L 292.173522 -300.85154 
L 293.876563 -290.000269 
L 295.579603 -286.654105 
L 297.282643 -288.49822 
L 298.985683 -291.681029 
L 300.688723 -292.336682 
L 302.391763 -288.620433 
L 304.094803 -283.136242 
L 305.797843 -279.569715 
L 307.500883 -280.010864 
L 309.203923 -284.565567 
L 310.906963 -290.686207 
L 312.610003 -295.629252 
L 314.313043 -299.536539 
L 316.016083 -304.682032 
L 317.719123 -314.057719 
L 319.422164 -328.647321 
L 321.125204 -346.324746 
L 322.828244 -361.089289 
L 324.531284 -367.279743 
L 326.234324 -363.290164 
L 327.937364 -352.696685 
L 329.640404 -343.415314 
L 331.343444 -342.607874 
L 333.046484 -353.058845 
L 334.749524 -369.618539 
L 336.452564 -383.890369 
L 338.155604 -389.053949 
L 339.858644 -382.278215 
L 341.561684 -368.483242 
L 343.264724 -355.643472 
L 344.967765 -351.691179 
L 346.670805 -356.985352 
L 348.373845 -368.008286 
L 350.076885 -376.94613 
L 351.779925 -378.65746 
L 353.482965 -374.157512 
L 355.186005 -368.828939 
L 356.889045 -367.989276 
L 358.592085 -373.898867 
L 360.295125 -384.092744 
L 361.998165 -393.018748 
L 363.701205 -394.818241 
L 365.404245 -389.481846 
L 367.107285 -379.546718 
L 368.810326 -371.091335 
L 370.513366 -369.007403 
L 372.216406 -373.974288 
L 373.919446 -381.538112 
L 375.622486 -387.250897 
L 377.325526 -389.306998 
L 379.028566 -387.869411 
L 380.731606 -384.815877 
L 382.434646 -382.995369 
L 384.137686 -382.1662 
L 385.840726 -380.654477 
L 387.543766 -376.585064 
L 389.246806 -370.434575 
L 390.949846 -365.792795 
L 392.652886 -365.540699 
L 394.355927 -371.063267 
L 396.058967 -378.601516 
L 397.762007 -383.718037 
L 399.465047 -381.615495 
L 401.168087 -375.286575 
L 402.871127 -368.269839 
L 404.574167 -364.805941 
L 406.277207 -365.09527 
L 407.980247 -365.412243 
L 409.683287 -359.721856 
L 411.386327 -346.595627 
L 413.089367 -330.455363 
L 414.792407 -319.044726 
L 416.495447 -318.19802 
L 418.198487 -327.15397 
L 419.901528 -338.819549 
L 421.604568 -343.83202 
L 423.307608 -337.722455 
L 425.010648 -323.972465 
L 426.713688 -311.778245 
L 428.416728 -309.95366 
L 430.119768 -320.691098 
L 431.822808 -338.089622 
L 433.525848 -351.326276 
L 435.228888 -351.927676 
L 436.931928 -340.675328 
L 438.634968 -325.350429 
L 440.338008 -315.102349 
L 442.041048 -315.484469 
L 443.744088 -323.700906 
L 445.447129 -333.716769 
L 447.150169 -338.785302 
L 448.853209 -336.915991 
L 450.556249 -330.309795 
L 452.259289 -322.755103 
L 453.962329 -316.242718 
L 455.665369 -309.55378 
L 457.368409 -300.98254 
L 459.071449 -289.46451 
L 460.774489 -278.243712 
L 462.477529 -272.11208 
L 464.180569 -272.843619 
L 465.883609 -280.975205 
L 467.586649 -292.071549 
L 469.289689 -300.52011 
L 470.99273 -304.400212 
L 472.69577 -306.050713 
L 474.39881 -308.143847 
L 476.10185 -312.328201 
L 477.80489 -316.966486 
L 479.50793 -317.194247 
L 481.21097 -310.704503 
L 482.91401 -298.301965 
L 484.61705 -284.926086 
L 486.32009 -276.479757 
L 488.02313 -275.728784 
L 489.72617 -280.950402 
L 491.42921 -287.549134 
L 493.13225 -290.955927 
L 494.83529 -289.654622 
L 496.538331 -285.781881 
L 498.241371 -283.047131 
L 499.944411 -283.509259 
L 501.647451 -286.220666 
L 503.350491 -289.129947 
L 505.053531 -289.918525 
L 506.756571 -288.484641 
L 508.459611 -285.953701 
L 510.162651 -284.006873 
L 511.865691 -282.959234 
L 513.568731 -282.395224 
L 515.271771 -282.595077 
L 516.974811 -283.292614 
L 518.677851 -286.079891 
L 520.380891 -291.463312 
L 522.083932 -298.494254 
L 523.786972 -302.956473 
L 525.490012 -301.415594 
L 527.193052 -293.066741 
L 528.896092 -281.515863 
L 530.599132 -272.613739 
L 532.302172 -271.244259 
L 534.005212 -278.517425 
L 535.708252 -291.302814 
L 537.411292 -302.292744 
L 539.114332 -306.658664 
L 540.817372 -302.255144 
L 542.520412 -292.883935 
L 544.223452 -285.036036 
L 545.926492 -285.08457 
L 547.629533 -294.263278 
L 549.332573 -308.948559 
L 551.035613 -322.985212 
L 552.738653 -330.527288 
L 554.441693 -328.971346 
L 556.144733 -319.537942 
L 557.847773 -306.355362 
L 559.550813 -293.992669 
L 561.253853 -285.889535 
L 561.253853 -303.627224 
L 561.253853 -303.627224 
L 559.550813 -311.621885 
L 557.847773 -323.463855 
L 556.144733 -336.332746 
L 554.441693 -345.459407 
L 552.738653 -347.249316 
L 551.035613 -340.125326 
L 549.332573 -326.499939 
L 547.629533 -311.730007 
L 545.926492 -302.353474 
L 544.223452 -302.123804 
L 542.520412 -309.259047 
L 540.817372 -319.175398 
L 539.114332 -324.631499 
L 537.411292 -321.539559 
L 535.708252 -310.762016 
L 534.005212 -297.953876 
L 532.302172 -289.69783 
L 530.599132 -290.900987 
L 528.896092 -300.273343 
L 527.193052 -312.151892 
L 525.490012 -320.352492 
L 523.786972 -322.752811 
L 522.083932 -318.929922 
L 520.380891 -312.012248 
L 518.677851 -306.067194 
L 516.974811 -302.744188 
L 515.271771 -301.746042 
L 513.568731 -302.119498 
L 511.865691 -302.221192 
L 510.162651 -303.09878 
L 508.459611 -304.976404 
L 506.756571 -307.448564 
L 505.053531 -308.948224 
L 503.350491 -308.202079 
L 501.647451 -305.467943 
L 499.944411 -302.626163 
L 498.241371 -302.045281 
L 496.538331 -304.446523 
L 494.83529 -308.573393 
L 493.13225 -310.386504 
L 491.42921 -307.921315 
L 489.72617 -301.71317 
L 488.02313 -296.226328 
L 486.32009 -296.50481 
L 484.61705 -304.158596 
L 482.91401 -316.741998 
L 481.21097 -329.059171 
L 479.50793 -335.982883 
L 477.80489 -336.103636 
L 476.10185 -332.583789 
L 474.39881 -328.600294 
L 472.69577 -326.439712 
L 470.99273 -324.939466 
L 469.289689 -321.082935 
L 467.586649 -312.702083 
L 465.883609 -301.586168 
L 464.180569 -292.570357 
L 462.477529 -290.309229 
L 460.774489 -296.464565 
L 459.071449 -308.072873 
L 457.368409 -320.543807 
L 455.665369 -330.166997 
L 453.962329 -336.488895 
L 452.259289 -341.500553 
L 450.556249 -347.601762 
L 448.853209 -353.305843 
L 447.150169 -355.257745 
L 445.447129 -350.877159 
L 443.744088 -342.466285 
L 442.041048 -335.079311 
L 440.338008 -335.322324 
L 438.634968 -345.496892 
L 436.931928 -359.826569 
L 435.228888 -370.983343 
L 433.525848 -370.721482 
L 431.822808 -358.876498 
L 430.119768 -342.613996 
L 428.416728 -331.881013 
L 426.713688 -333.537346 
L 425.010648 -346.206018 
L 423.307608 -360.010926 
L 421.604568 -365.814143 
L 419.901528 -359.658511 
L 418.198487 -346.406592 
L 416.495447 -335.861417 
L 414.792407 -336.648313 
L 413.089367 -348.745527 
L 411.386327 -365.781984 
L 409.683287 -379.376926 
L 407.980247 -385.274669 
L 406.277207 -384.652455 
L 404.574167 -383.78953 
L 402.871127 -386.972088 
L 401.168087 -393.879864 
L 399.465047 -400.809906 
L 397.762007 -403.526018 
L 396.058967 -399.650824 
L 394.355927 -392.008454 
L 392.652886 -385.730015 
L 390.949846 -384.60961 
L 389.246806 -389.079477 
L 387.543766 -395.370345 
L 385.840726 -400.879608 
L 384.137686 -403.202433 
L 382.434646 -403.631654 
L 380.731606 -404.736617 
L 379.028566 -406.572605 
L 377.325526 -407.505698 
L 375.622486 -404.773642 
L 373.919446 -398.325115 
L 372.216406 -390.765662 
L 370.513366 -386.999136 
L 368.810326 -389.741429 
L 367.107285 -398.118551 
L 365.404245 -408.099265 
L 363.701205 -413.881635 
L 361.998165 -411.929331 
L 360.295125 -402.4397 
L 358.592085 -391.905742 
L 356.889045 -385.670468 
L 355.186005 -387.017063 
L 353.482965 -392.710064 
L 351.779925 -396.385527 
L 350.076885 -394.406158 
L 348.373845 -385.735567 
L 346.670805 -375.373095 
L 344.967765 -370.106446 
L 343.264724 -373.875783 
L 341.561684 -386.124225 
L 339.858644 -399.471314 
L 338.155604 -405.591664 
L 336.452564 -400.310199 
L 334.749524 -386.171811 
L 333.046484 -370.337212 
L 331.343444 -361.041906 
L 329.640404 -362.388731 
L 327.937364 -371.541078 
L 326.234324 -381.651533 
L 324.531284 -384.856189 
L 322.828244 -377.782701 
L 321.125204 -362.837926 
L 319.422164 -345.263411 
L 317.719123 -330.808055 
L 316.016083 -322.238138 
L 314.313043 -318.170023 
L 312.610003 -314.592187 
L 310.906963 -309.600802 
L 309.203923 -303.307555 
L 307.500883 -298.461855 
L 305.797843 -297.838944 
L 304.094803 -301.32968 
L 302.391763 -306.708602 
L 300.688723 -309.747061 
L 298.985683 -309.039445 
L 297.282643 -305.586701 
L 295.579603 -303.475785 
L 293.876563 -306.881014 
L 292.173522 -317.807573 
L 290.470482 -333.377029 
L 288.767442 -348.456241 
L 287.064402 -357.978423 
L 285.361362 -360.209063 
L 283.658322 -356.45674 
L 281.955282 -351.333646 
L 280.252242 -348.371631 
L 278.549202 -348.579546 
L 276.846162 -350.083096 
L 275.143122 -348.681672 
L 273.440082 -342.955724 
L 271.737042 -333.067488 
L 270.034002 -322.399706 
L 268.330962 -314.675762 
L 266.627921 -310.778001 
L 264.924881 -310.986125 
L 263.221841 -311.711039 
L 261.518801 -309.91151 
L 259.815761 -304.522236 
L 258.112721 -296.186093 
L 256.409681 -287.520979 
L 254.706641 -281.168282 
L 253.003601 -276.961955 
L 251.300561 -274.302499 
L 249.597521 -271.659409 
L 247.894481 -267.495066 
L 246.191441 -263.488589 
L 244.488401 -261.337956 
L 242.785361 -262.449648 
L 241.08232 -266.765453 
L 239.37928 -273.01915 
L 237.67624 -278.264865 
L 235.9732 -281.308777 
L 234.27016 -282.004552 
L 232.56712 -282.532181 
L 230.86408 -284.136032 
L 229.16104 -288.540003 
L 227.458 -295.462921 
L 225.75496 -304.159981 
L 224.05192 -311.946031 
L 222.34888 -317.795728 
L 220.64584 -321.684517 
L 218.9428 -325.583942 
L 217.23976 -330.206501 
L 215.536719 -335.149461 
L 213.833679 -338.87395 
L 212.130639 -341.259805 
L 210.427599 -343.366787 
L 208.724559 -346.789943 
L 207.021519 -353.141377 
L 205.318479 -362.078408 
L 203.615439 -372.670281 
L 201.912399 -382.256767 
L 200.209359 -387.935801 
L 198.506319 -389.692405 
L 196.803279 -388.624315 
L 195.100239 -385.977703 
L 193.397199 -380.888702 
L 191.694159 -369.92543 
L 189.991118 -351.653784 
L 188.288078 -326.368851 
L 186.585038 -297.349973 
L 184.881998 -270.199382 
L 183.178958 -249.081936 
L 181.475918 -237.426491 
L 179.772878 -233.250461 
L 178.069838 -233.216588 
L 176.366798 -233.552709 
L 174.663758 -233.461719 
L 172.960718 -234.444713 
L 171.257678 -238.60602 
L 169.554638 -245.643861 
L 167.851598 -253.448795 
L 166.148558 -258.968689 
L 164.445517 -260.00004 
L 162.742477 -257.218556 
L 161.039437 -253.48794 
L 159.336397 -252.255757 
L 157.633357 -254.978093 
L 155.930317 -261.028552 
L 154.227277 -267.527167 
L 152.524237 -270.95186 
L 150.821197 -269.443757 
L 149.118157 -263.175023 
L 147.415117 -255.805804 
L 145.712077 -250.99446 
L 144.009037 -251.879002 
L 142.305997 -257.880538 
L 140.602957 -266.090681 
L 138.899916 -271.561853 
L 137.196876 -271.247647 
L 135.493836 -264.70767 
L 133.790796 -254.596694 
L 132.087756 -246.427555 
L 130.384716 -244.404898 
L 128.681676 -248.150772 
L 126.978636 -253.904108 
L 125.275596 -257.096585 
L 123.572556 -256.596518 
L 121.869516 -253.013854 
L 120.166476 -249.982076 
L 118.463436 -251.195971 
L 116.760396 -255.925781 
L 115.057356 -260.178872 
L 113.354315 -258.641612 
L 111.651275 -250.569508 
L 109.948235 -239.004222 
L 108.245195 -230.151693 
L 106.542155 -228.76078 
L 104.839115 -234.860567 
L 103.136075 -243.332275 
L 101.433035 -248.253683 
L 99.729995 -247.419064 
L 98.026955 -243.434123 
L 96.323915 -240.489584 
L 94.620875 -241.312061 
L 92.917835 -244.882713 
L 91.214795 -246.839824 
L 89.511755 -241.986238 
L 87.808714 -229.558072 
L 86.105674 -214.244866 
L 84.402634 -202.965963 
L 82.699594 -199.803479 
L 80.996554 -204.250712 
L 79.293514 -212.641183 
L 77.590474 -218.986295 
L 75.887434 -220.474533 
L 74.184394 -218.670882 
L 72.481354 -216.804788 
L 70.778314 -217.206058 
L 69.075274 -219.971437 
L 67.372234 -222.928213 
L 65.669194 -224.547387 
L 63.966154 -223.561817 
L 62.263113 -221.919002 
L 60.560073 -222.339617 
L 58.857033 -225.340003 
L 57.153993 -227.61148 
L 55.450953 -225.605209 
L 53.747913 -218.747541 
L 52.044873 -209.19205 
L 50.341833 -200.704767 
L 48.638793 -197.21693 
L 46.935753 -200.41818 
L 45.232713 -208.644056 
L 43.529673 -216.989691 
L 41.826633 -221.851855 
L 40.123593 -221.493707 
L 38.420552 -216.736766 
z
" style="stroke: #1f77b4; stroke-opacity: 0.3"/>
    </defs>
    <g>
     <use xlink:href="#m7d34b39bb7" x="0" y="432" style="fill: #1f77b4; fill-opacity: 0.3; stroke: #1f77b4; stroke-opacity: 0.3"/>
    </g>
   </g>
   <g id="FillBetweenPolyCollection_2">
    <defs>
     <path id="maadb890081" d="M 38.420552 -215.353221 
L 38.420552 -206.692695 
L 40.123593 -207.58388 
L 41.826633 -201.868914 
L 43.529673 -192.855897 
L 45.232713 -185.729637 
L 46.935753 -183.933311 
L 48.638793 -189.318258 
L 50.341833 -199.192033 
L 52.044873 -209.160229 
L 53.747913 -215.637996 
L 55.450953 -217.436971 
L 57.153993 -216.319054 
L 58.857033 -214.914752 
L 60.560073 -214.318745 
L 62.263113 -213.235485 
L 63.966154 -210.875964 
L 65.669194 -207.569821 
L 67.372234 -205.054936 
L 69.075274 -205.533915 
L 70.778314 -209.875151 
L 72.481354 -216.083283 
L 74.184394 -220.727831 
L 75.887434 -219.851402 
L 77.590474 -213.367412 
L 79.293514 -205.574393 
L 80.996554 -201.569456 
L 82.699594 -204.649153 
L 84.402634 -213.322668 
L 86.105674 -222.464503 
L 87.808714 -226.633867 
L 89.511755 -223.670914 
L 91.214795 -215.837927 
L 92.917835 -208.645366 
L 94.620875 -207.114385 
L 96.323915 -212.934139 
L 98.026955 -223.545723 
L 99.729995 -233.883882 
L 101.433035 -240.198843 
L 103.136075 -241.583085 
L 104.839115 -240.651828 
L 106.542155 -240.065575 
L 108.245195 -241.932936 
L 109.948235 -245.75877 
L 111.651275 -249.217265 
L 113.354315 -250.273152 
L 115.057356 -248.69945 
L 116.760396 -245.837454 
L 118.463436 -243.089481 
L 120.166476 -240.923422 
L 121.869516 -238.448319 
L 123.572556 -233.411006 
L 125.275596 -225.274207 
L 126.978636 -216.311094 
L 128.681676 -210.961875 
L 130.384716 -212.56999 
L 132.087756 -220.815318 
L 133.790796 -232.194667 
L 135.493836 -240.428249 
L 137.196876 -240.758816 
L 138.899916 -233.389235 
L 140.602957 -224.411422 
L 142.305997 -220.657596 
L 144.009037 -226.457048 
L 145.712077 -239.573873 
L 147.415117 -253.391841 
L 149.118157 -259.84019 
L 150.821197 -255.88414 
L 152.524237 -245.45751 
L 154.227277 -236.686663 
L 155.930317 -235.528929 
L 157.633357 -242.479959 
L 159.336397 -252.298624 
L 161.039437 -257.858853 
L 162.742477 -255.372203 
L 164.445517 -246.028451 
L 166.148558 -235.369542 
L 167.851598 -228.958202 
L 169.554638 -228.343406 
L 171.257678 -231.542838 
L 172.960718 -234.617574 
L 174.663758 -235.903153 
L 176.366798 -235.704275 
L 178.069838 -236.894955 
L 179.772878 -242.012762 
L 181.475918 -251.217801 
L 183.178958 -262.265999 
L 184.881998 -273.558848 
L 186.585038 -284.117239 
L 188.288078 -295.110134 
L 189.991118 -308.667717 
L 191.694159 -326.172691 
L 193.397199 -346.585727 
L 195.100239 -366.961481 
L 196.803279 -383.572988 
L 198.506319 -393.392174 
L 200.209359 -394.948543 
L 201.912399 -389.28046 
L 203.615439 -379.03841 
L 205.318479 -367.746923 
L 207.021519 -358.084504 
L 208.724559 -351.939229 
L 210.427599 -348.45634 
L 212.130639 -346.326376 
L 213.833679 -342.996857 
L 215.536719 -337.231556 
L 217.23976 -328.746823 
L 218.9428 -318.688978 
L 220.64584 -307.949269 
L 222.34888 -296.577474 
L 224.05192 -283.745923 
L 225.75496 -269.040623 
L 227.458 -253.755509 
L 229.16104 -240.113652 
L 230.86408 -230.846455 
L 232.56712 -225.270182 
L 234.27016 -221.864904 
L 235.9732 -218.047478 
L 237.67624 -212.797313 
L 239.37928 -207.404124 
L 241.08232 -205.551368 
L 242.785361 -209.663843 
L 244.488401 -220.213123 
L 246.191441 -234.178656 
L 247.894481 -247.09982 
L 249.597521 -255.750006 
L 251.300561 -259.278109 
L 253.003601 -259.737359 
L 254.706641 -260.482737 
L 256.409681 -263.289746 
L 258.112721 -267.876242 
L 259.815761 -272.503631 
L 261.518801 -274.916991 
L 263.221841 -274.949035 
L 264.924881 -274.369103 
L 266.627921 -276.035897 
L 268.330962 -281.673009 
L 270.034002 -291.933972 
L 271.737042 -304.299679 
L 273.440082 -315.035709 
L 275.143122 -321.094641 
L 276.846162 -321.281429 
L 278.549202 -317.486063 
L 280.252242 -312.912256 
L 281.955282 -311.291463 
L 283.658322 -313.600412 
L 285.361362 -319.313781 
L 287.064402 -324.136131 
L 288.767442 -325.528869 
L 290.470482 -322.291324 
L 292.173522 -314.854975 
L 293.876563 -305.336126 
L 295.579603 -295.705131 
L 297.282643 -287.523753 
L 298.985683 -281.76622 
L 300.688723 -279.525896 
L 302.391763 -280.950857 
L 304.094803 -286.534633 
L 305.797843 -294.383008 
L 307.500883 -301.75759 
L 309.203923 -305.621264 
L 310.906963 -304.930806 
L 312.610003 -301.198296 
L 314.313043 -297.483265 
L 316.016083 -297.295359 
L 317.719123 -301.854751 
L 319.422164 -310.377585 
L 321.125204 -319.990325 
L 322.828244 -328.814832 
L 324.531284 -336.273866 
L 326.234324 -342.262402 
L 327.937364 -346.173847 
L 329.640404 -348.04588 
L 331.343444 -346.806616 
L 333.046484 -344.355776 
L 334.749524 -343.538912 
L 336.452564 -346.930145 
L 338.155604 -354.779501 
L 339.858644 -363.830686 
L 341.561684 -369.992674 
L 343.264724 -370.101452 
L 344.967765 -365.081084 
L 346.670805 -359.567226 
L 348.373845 -358.801223 
L 350.076885 -364.508321 
L 351.779925 -373.756741 
L 353.482965 -382.460886 
L 355.186005 -386.55026 
L 356.889045 -385.589561 
L 358.592085 -382.589907 
L 360.295125 -381.565042 
L 361.998165 -384.135992 
L 363.701205 -388.546145 
L 365.404245 -392.403422 
L 367.107285 -392.976632 
L 368.810326 -389.272041 
L 370.513366 -383.859645 
L 372.216406 -378.316697 
L 373.919446 -374.429737 
L 375.622486 -372.277292 
L 377.325526 -371.174159 
L 379.028566 -371.29675 
L 380.731606 -373.388464 
L 382.434646 -377.421835 
L 384.137686 -381.883039 
L 385.840726 -385.318977 
L 387.543766 -386.72782 
L 389.246806 -385.845908 
L 390.949846 -383.968911 
L 392.652886 -383.6175 
L 394.355927 -386.102062 
L 396.058967 -390.381595 
L 397.762007 -394.63239 
L 399.465047 -395.966079 
L 401.168087 -392.328291 
L 402.871127 -384.659506 
L 404.574167 -375.902589 
L 406.277207 -370.132473 
L 407.980247 -369.505183 
L 409.683287 -373.925121 
L 411.386327 -380.208571 
L 413.089367 -384.574211 
L 414.792407 -383.758583 
L 416.495447 -376.748785 
L 418.198487 -366.714739 
L 419.901528 -358.9133 
L 421.604568 -357.0176 
L 423.307608 -361.492794 
L 425.010648 -369.324519 
L 426.713688 -375.625042 
L 428.416728 -377.048346 
L 430.119768 -373.519047 
L 431.822808 -368.804818 
L 433.525848 -366.709403 
L 435.228888 -367.747197 
L 436.931928 -369.682364 
L 438.634968 -368.503763 
L 440.338008 -362.321387 
L 442.041048 -352.90987 
L 443.744088 -343.836448 
L 445.447129 -339.245432 
L 447.150169 -339.022267 
L 448.853209 -340.589253 
L 450.556249 -340.017328 
L 452.259289 -335.993049 
L 453.962329 -330.815781 
L 455.665369 -327.806759 
L 457.368409 -328.398653 
L 459.071449 -331.20139 
L 460.774489 -333.196717 
L 462.477529 -331.300176 
L 464.180569 -326.55569 
L 465.883609 -322.873903 
L 467.586649 -323.468549 
L 469.289689 -329.502698 
L 470.99273 -336.810555 
L 472.69577 -339.852434 
L 474.39881 -335.914117 
L 476.10185 -326.245073 
L 477.80489 -316.473685 
L 479.50793 -311.573547 
L 481.21097 -313.229962 
L 482.91401 -318.932887 
L 484.61705 -323.873139 
L 486.32009 -324.371656 
L 488.02313 -321.05643 
L 489.72617 -316.336408 
L 491.42921 -313.559176 
L 493.13225 -314.56882 
L 494.83529 -317.341544 
L 496.538331 -319.33685 
L 498.241371 -319.439612 
L 499.944411 -317.135646 
L 501.647451 -314.082455 
L 503.350491 -311.061361 
L 505.053531 -308.815538 
L 506.756571 -307.663633 
L 508.459611 -308.103343 
L 510.162651 -310.739777 
L 511.865691 -314.388904 
L 513.568731 -318.075625 
L 515.271771 -319.866156 
L 516.974811 -317.703205 
L 518.677851 -312.849172 
L 520.380891 -307.534289 
L 522.083932 -304.095808 
L 523.786972 -304.494046 
L 525.490012 -307.853169 
L 527.193052 -312.391717 
L 528.896092 -315.952164 
L 530.599132 -317.39489 
L 532.302172 -317.360125 
L 534.005212 -315.42302 
L 535.708252 -312.864949 
L 537.411292 -310.492787 
L 539.114332 -309.552005 
L 540.817372 -311.213093 
L 542.520412 -316.508122 
L 544.223452 -324.705431 
L 545.926492 -333.088259 
L 547.629533 -337.928812 
L 549.332573 -337.334726 
L 551.035613 -332.66195 
L 552.738653 -327.720407 
L 554.441693 -325.633428 
L 556.144733 -326.797633 
L 557.847773 -329.159491 
L 559.550813 -329.479476 
L 561.253853 -325.682747 
L 561.253853 -343.339275 
L 561.253853 -343.339275 
L 559.550813 -346.675978 
L 557.847773 -345.514081 
L 556.144733 -342.784722 
L 554.441693 -341.380046 
L 552.738653 -343.677916 
L 551.035613 -348.856694 
L 549.332573 -353.202213 
L 547.629533 -353.453965 
L 545.926492 -348.594472 
L 544.223452 -340.3992 
L 542.520412 -332.228308 
L 540.817372 -327.293779 
L 539.114332 -325.76213 
L 537.411292 -326.849016 
L 535.708252 -328.868035 
L 534.005212 -331.194808 
L 532.302172 -332.993749 
L 530.599132 -333.477874 
L 528.896092 -332.503029 
L 527.193052 -329.314166 
L 525.490012 -324.992111 
L 523.786972 -321.050943 
L 522.083932 -320.549371 
L 520.380891 -323.363614 
L 518.677851 -328.616158 
L 516.974811 -333.505488 
L 515.271771 -335.59736 
L 513.568731 -334.329365 
L 511.865691 -330.727467 
L 510.162651 -326.951655 
L 508.459611 -324.55607 
L 506.756571 -324.03223 
L 505.053531 -324.896713 
L 503.350491 -326.98448 
L 501.647451 -330.077787 
L 499.944411 -333.243867 
L 498.241371 -335.506468 
L 496.538331 -334.956253 
L 494.83529 -332.049083 
L 493.13225 -328.434705 
L 491.42921 -327.215541 
L 489.72617 -329.661019 
L 488.02313 -334.071794 
L 486.32009 -337.776794 
L 484.61705 -337.742363 
L 482.91401 -333.299453 
L 481.21097 -327.89497 
L 479.50793 -326.239537 
L 477.80489 -331.117173 
L 476.10185 -340.895013 
L 474.39881 -350.495446 
L 472.69577 -354.556535 
L 470.99273 -351.55111 
L 469.289689 -344.461543 
L 467.586649 -338.504858 
L 465.883609 -337.385063 
L 464.180569 -340.836078 
L 462.477529 -345.352085 
L 460.774489 -347.595778 
L 459.071449 -345.957381 
L 457.368409 -343.210157 
L 455.665369 -343.022897 
L 453.962329 -346.218313 
L 452.259289 -350.929636 
L 450.556249 -354.618937 
L 448.853209 -355.162688 
L 447.150169 -353.704124 
L 445.447129 -354.005581 
L 443.744088 -358.845192 
L 442.041048 -367.700482 
L 440.338008 -376.893394 
L 438.634968 -383.021156 
L 436.931928 -383.964288 
L 435.228888 -382.228476 
L 433.525848 -381.376846 
L 431.822808 -383.831586 
L 430.119768 -388.379713 
L 428.416728 -391.379427 
L 426.713688 -390.044074 
L 425.010648 -384.075556 
L 423.307608 -376.478452 
L 421.604568 -372.084045 
L 419.901528 -373.953911 
L 418.198487 -381.677935 
L 416.495447 -391.192053 
L 414.792407 -397.924491 
L 413.089367 -399.083209 
L 411.386327 -394.791047 
L 409.683287 -388.457728 
L 407.980247 -384.919329 
L 406.277207 -386.206628 
L 404.574167 -392.277396 
L 402.871127 -400.753954 
L 401.168087 -407.813615 
L 399.465047 -410.863752 
L 397.762007 -409.66287 
L 396.058967 -405.523879 
L 394.355927 -400.95942 
L 392.652886 -398.771191 
L 390.949846 -399.295404 
L 389.246806 -400.751027 
L 387.543766 -401.415632 
L 385.840726 -399.901823 
L 384.137686 -396.348179 
L 382.434646 -392.082601 
L 380.731606 -388.687144 
L 379.028566 -386.996313 
L 377.325526 -386.632806 
L 375.622486 -387.24272 
L 373.919446 -388.955428 
L 372.216406 -392.292391 
L 370.513366 -397.519116 
L 368.810326 -402.955086 
L 367.107285 -406.508641 
L 365.404245 -406.704819 
L 363.701205 -403.184297 
L 361.998165 -398.818812 
L 360.295125 -396.038548 
L 358.592085 -396.819846 
L 356.889045 -399.767771 
L 355.186005 -400.743062 
L 353.482965 -396.425303 
L 351.779925 -387.800839 
L 350.076885 -378.614868 
L 348.373845 -373.901985 
L 346.670805 -374.871512 
L 344.967765 -380.537116 
L 343.264724 -385.3593 
L 341.561684 -385.414606 
L 339.858644 -379.262624 
L 338.155604 -369.853374 
L 336.452564 -361.821265 
L 334.749524 -358.418279 
L 333.046484 -359.926265 
L 331.343444 -362.702756 
L 329.640404 -363.672133 
L 327.937364 -361.690866 
L 326.234324 -357.165176 
L 324.531284 -350.19759 
L 322.828244 -342.097735 
L 321.125204 -333.100342 
L 319.422164 -323.998616 
L 317.719123 -316.427838 
L 316.016083 -312.277097 
L 314.313043 -312.479148 
L 312.610003 -315.883565 
L 310.906963 -319.536217 
L 309.203923 -319.678413 
L 307.500883 -315.275069 
L 305.797843 -307.929944 
L 304.094803 -300.305908 
L 302.391763 -295.470716 
L 300.688723 -294.458975 
L 298.985683 -297.16865 
L 297.282643 -302.738754 
L 295.579603 -309.905474 
L 293.876563 -318.752005 
L 292.173522 -327.828613 
L 290.470482 -335.459024 
L 288.767442 -338.985911 
L 287.064402 -337.851593 
L 285.361362 -332.934367 
L 283.658322 -327.169242 
L 281.955282 -324.333878 
L 280.252242 -325.888455 
L 278.549202 -330.532933 
L 276.846162 -334.57339 
L 275.143122 -334.434631 
L 273.440082 -328.567239 
L 271.737042 -318.041595 
L 270.034002 -305.449741 
L 268.330962 -295.239344 
L 266.627921 -289.313563 
L 264.924881 -287.778362 
L 263.221841 -288.624403 
L 261.518801 -288.524281 
L 259.815761 -285.831113 
L 258.112721 -280.901755 
L 256.409681 -276.128735 
L 254.706641 -273.02866 
L 253.003601 -272.475729 
L 251.300561 -272.306372 
L 249.597521 -269.120282 
L 247.894481 -260.58976 
L 246.191441 -247.488734 
L 244.488401 -233.51244 
L 242.785361 -223.20911 
L 241.08232 -219.475129 
L 239.37928 -221.387521 
L 237.67624 -226.470935 
L 235.9732 -230.921797 
L 234.27016 -234.457532 
L 232.56712 -237.717496 
L 230.86408 -243.807372 
L 229.16104 -254.179109 
L 227.458 -268.230776 
L 225.75496 -283.11718 
L 224.05192 -297.3143 
L 222.34888 -309.766936 
L 220.64584 -320.829201 
L 218.9428 -331.646327 
L 217.23976 -341.638092 
L 215.536719 -350.276865 
L 213.833679 -355.976187 
L 212.130639 -359.045014 
L 210.427599 -361.087548 
L 208.724559 -364.393231 
L 207.021519 -370.683016 
L 205.318479 -380.435449 
L 203.615439 -391.685665 
L 201.912399 -401.515614 
L 200.209359 -406.722319 
L 198.506319 -405.177539 
L 196.803279 -395.47202 
L 195.100239 -379.08954 
L 193.397199 -358.767563 
L 191.694159 -338.10165 
L 189.991118 -320.078782 
L 188.288078 -305.88802 
L 186.585038 -294.555534 
L 184.881998 -284.373173 
L 183.178958 -273.522611 
L 181.475918 -262.270741 
L 179.772878 -253.458208 
L 178.069838 -248.587355 
L 176.366798 -247.290664 
L 174.663758 -247.310795 
L 172.960718 -246.005854 
L 171.257678 -242.531025 
L 169.554638 -239.000493 
L 167.851598 -239.432832 
L 166.148558 -246.175218 
L 164.445517 -256.959601 
L 162.742477 -266.469073 
L 161.039437 -268.9903 
L 159.336397 -263.390674 
L 157.633357 -253.353475 
L 155.930317 -245.948807 
L 154.227277 -246.817552 
L 152.524237 -255.673526 
L 150.821197 -266.299538 
L 149.118157 -270.394745 
L 147.415117 -264.76001 
L 145.712077 -251.506885 
L 144.009037 -237.811901 
L 142.305997 -231.20234 
L 140.602957 -234.302523 
L 138.899916 -242.743038 
L 137.196876 -249.591412 
L 135.493836 -248.980229 
L 133.790796 -241.096662 
L 132.087756 -229.749171 
L 130.384716 -221.541898 
L 128.681676 -220.442572 
L 126.978636 -225.99252 
L 125.275596 -234.356632 
L 123.572556 -241.573423 
L 121.869516 -246.464786 
L 120.166476 -249.403073 
L 118.463436 -251.816973 
L 116.760396 -254.652021 
L 115.057356 -257.570309 
L 113.354315 -258.603806 
L 111.651275 -257.12215 
L 109.948235 -253.727275 
L 108.245195 -250.22807 
L 106.542155 -248.448771 
L 104.839115 -248.59685 
L 103.136075 -249.229855 
L 101.433035 -247.282793 
L 99.729995 -240.866136 
L 98.026955 -230.827051 
L 96.323915 -220.847438 
L 94.620875 -215.266707 
L 92.917835 -216.716845 
L 91.214795 -223.990876 
L 89.511755 -232.206528 
L 87.808714 -235.729201 
L 86.105674 -231.565103 
L 84.402634 -222.106411 
L 82.699594 -213.024998 
L 80.996554 -209.543877 
L 79.293514 -213.405525 
L 77.590474 -221.366345 
L 75.887434 -227.906528 
L 74.184394 -228.864123 
L 72.481354 -224.261775 
L 70.778314 -217.320495 
L 69.075274 -212.514035 
L 67.372234 -211.979662 
L 65.669194 -215.272812 
L 63.966154 -219.004736 
L 62.263113 -221.297853 
L 60.560073 -222.341917 
L 58.857033 -223.328456 
L 57.153993 -224.866976 
L 55.450953 -225.634634 
L 53.747913 -223.580679 
L 52.044873 -217.559956 
L 50.341833 -208.045267 
L 48.638793 -198.258959 
L 46.935753 -192.785962 
L 45.232713 -194.370661 
L 43.529673 -201.581956 
L 41.826633 -210.545686 
L 40.123593 -216.155932 
L 38.420552 -215.353221 
z
" style="stroke: #ff7f0e; stroke-opacity: 0.3"/>
    </defs>
    <g>
     <use xlink:href="#maadb890081" x="0" y="432" style="fill: #ff7f0e; fill-opacity: 0.3; stroke: #ff7f0e; stroke-opacity: 0.3"/>
    </g>
   </g>
   <g id="line2d_19">
    <path d="M 38.420552 221.054216 
L 40.123593 215.950653 
L 41.826633 215.435574 
L 43.529673 220.381978 
L 46.935753 237.049467 
L 48.638793 240.403995 
L 50.341833 237.010942 
L 52.044873 228.415867 
L 53.747913 218.833689 
L 55.450953 212.474414 
L 57.153993 211.053908 
L 58.857033 213.081708 
L 60.560073 215.408202 
L 62.263113 215.770928 
L 63.966154 214.345092 
L 65.669194 213.176477 
L 67.372234 214.125461 
L 70.778314 219.726966 
L 72.481354 220.133925 
L 74.184394 218.243144 
L 75.887434 216.655182 
L 77.590474 218.595545 
L 79.293514 225.034756 
L 80.996554 233.140384 
L 82.699594 237.578709 
L 84.402634 234.049991 
L 86.105674 222.487303 
L 87.808714 207.495253 
L 89.511755 195.475664 
L 91.214795 190.543568 
L 92.917835 192.013738 
L 94.620875 195.436535 
L 96.323915 196.24576 
L 98.026955 193.285719 
L 99.729995 189.494821 
L 101.433035 189.251679 
L 103.136075 194.50428 
L 104.839115 202.748417 
L 106.542155 208.508164 
L 108.245195 207.227973 
L 109.948235 198.695412 
L 111.651275 187.346977 
L 113.354315 179.167408 
L 115.057356 177.648176 
L 116.760396 181.639612 
L 118.463436 186.66229 
L 120.166476 188.505054 
L 121.869516 186.283574 
L 123.572556 182.791218 
L 125.275596 181.933035 
L 126.978636 185.335217 
L 128.681676 190.901159 
L 130.384716 194.199198 
L 132.087756 191.748633 
L 133.790796 183.601183 
L 135.493836 173.514249 
L 137.196876 166.641343 
L 138.899916 166.349794 
L 140.602957 172.22549 
L 142.305997 180.491738 
L 144.009037 186.366889 
L 145.712077 186.740032 
L 147.415117 181.720117 
L 149.118157 174.307212 
L 150.821197 168.56894 
L 152.524237 167.486303 
L 154.227277 171.443698 
L 155.930317 178.17082 
L 157.633357 184.122206 
L 159.336397 186.432753 
L 161.039437 184.583766 
L 162.742477 180.671069 
L 164.445517 178.114576 
L 166.148558 179.576338 
L 167.851598 185.341892 
L 169.554638 193.261665 
L 171.257678 200.209387 
L 172.960718 204.232835 
L 174.663758 205.586691 
L 176.366798 205.976682 
L 178.069838 206.582175 
L 179.772878 206.361882 
L 181.475918 202.036663 
L 183.178958 190.018749 
L 184.881998 168.989782 
L 189.991118 87.084107 
L 191.694159 69.265095 
L 193.397199 58.620102 
L 195.100239 52.900571 
L 196.803279 49.878795 
L 198.506319 48.90776 
L 200.209359 50.813821 
L 201.912399 56.5478 
L 203.615439 65.743041 
L 205.318479 76.371133 
L 207.021519 85.768001 
L 208.724559 92.204472 
L 210.427599 95.773001 
L 212.130639 98.024893 
L 213.833679 100.709516 
L 215.536719 104.561346 
L 218.9428 113.552411 
L 222.34888 121.837708 
L 224.05192 127.456168 
L 225.75496 134.86069 
L 227.458 143.218693 
L 229.16104 150.677019 
L 230.86408 155.534086 
L 232.56712 157.393841 
L 234.27016 157.585082 
L 235.9732 158.353107 
L 237.67624 161.428238 
L 239.37928 166.874819 
L 241.08232 173.012111 
L 242.785361 177.451063 
L 244.488401 178.509724 
L 246.191441 176.209083 
L 249.597521 168.130826 
L 251.300561 165.183773 
L 253.003601 162.607687 
L 254.706641 158.807401 
L 256.409681 152.573126 
L 259.815761 136.059436 
L 261.518801 130.349198 
L 263.221841 128.406393 
L 264.924881 129.086298 
L 266.627921 129.328664 
L 268.330962 125.991815 
L 270.034002 117.928319 
L 271.737042 106.931593 
L 273.440082 96.738073 
L 275.143122 90.703263 
L 276.846162 89.627552 
L 278.549202 91.236986 
L 280.252242 91.839149 
L 281.955282 89.075815 
L 283.658322 83.856124 
L 285.361362 80.061941 
L 287.064402 82.106507 
L 288.767442 91.904849 
L 292.173522 123.02273 
L 293.876563 133.76238 
L 295.579603 137.126542 
L 297.282643 134.85272 
L 298.985683 131.375304 
L 300.688723 130.802542 
L 302.391763 134.31747 
L 304.094803 139.79281 
L 305.797843 143.532432 
L 307.500883 142.972962 
L 309.203923 138.347035 
L 310.906963 132.143384 
L 312.610003 126.925671 
L 314.313043 123.108485 
L 316.016083 118.384599 
L 317.719123 109.465998 
L 319.422164 94.990347 
L 321.125204 77.443567 
L 322.828244 62.510463 
L 324.531284 55.921684 
L 326.234324 59.61449 
L 327.937364 69.924847 
L 329.640404 79.173052 
L 331.343444 80.065933 
L 333.046484 70.2357 
L 334.749524 53.904011 
L 336.452564 39.523642 
L 338.155604 34.645767 
L 339.858644 41.347868 
L 341.561684 55.007494 
L 343.264724 67.276431 
L 344.967765 71.27605 
L 346.670805 65.693405 
L 348.373845 55.072266 
L 350.076885 46.429776 
L 351.779925 44.491169 
L 353.482965 48.722292 
L 355.186005 54.143 
L 356.889045 55.006878 
L 358.592085 48.930811 
L 360.295125 38.541432 
L 361.998165 29.697941 
L 363.701205 27.599326 
L 365.404245 33.351236 
L 367.107285 43.344788 
L 368.810326 51.666066 
L 370.513366 53.893725 
L 372.216406 49.59881 
L 373.919446 42.110865 
L 375.622486 35.918479 
L 377.325526 33.629794 
L 379.028566 34.765393 
L 380.731606 36.934785 
L 382.434646 38.26585 
L 384.137686 39.04505 
L 385.840726 41.153508 
L 387.543766 45.935649 
L 389.246806 52.256703 
L 390.949846 56.754553 
L 392.652886 56.235157 
L 394.355927 50.430329 
L 396.058967 42.801569 
L 397.762007 38.396759 
L 399.465047 40.232478 
L 402.871127 54.15757 
L 404.574167 57.459812 
L 406.277207 56.793492 
L 407.980247 56.576605 
L 409.683287 62.304179 
L 411.386327 75.695953 
L 413.089367 92.379843 
L 414.792407 104.236673 
L 416.495447 105.050711 
L 418.198487 95.382717 
L 419.901528 82.842246 
L 421.604568 77.090658 
L 423.307608 82.981999 
L 425.010648 96.979645 
L 426.713688 109.397793 
L 428.416728 111.188283 
L 430.119768 100.32053 
L 431.822808 83.311307 
L 433.525848 70.785902 
L 435.228888 70.257431 
L 436.931928 81.355297 
L 438.634968 96.544656 
L 440.338008 106.627959 
L 442.041048 106.747682 
L 443.744088 98.914525 
L 445.447129 89.643946 
L 447.150169 84.975083 
L 448.853209 86.837947 
L 450.556249 92.897975 
L 452.259289 99.618567 
L 453.962329 105.509783 
L 455.665369 111.932362 
L 457.368409 121.061894 
L 460.774489 144.397938 
L 462.477529 150.685568 
L 464.180569 148.954838 
L 465.883609 140.409599 
L 467.586649 129.576105 
L 469.289689 121.205747 
L 470.99273 117.162894 
L 472.69577 115.688136 
L 474.39881 113.601229 
L 477.80489 105.374255 
L 479.50793 105.285738 
L 481.21097 111.994996 
L 484.61705 137.331959 
L 486.32009 145.382563 
L 488.02313 145.760979 
L 489.72617 140.332388 
L 491.42921 133.955252 
L 493.13225 131.029224 
L 494.83529 132.717863 
L 496.538331 136.682031 
L 498.241371 139.406285 
L 499.944411 138.936618 
L 503.350491 133.234034 
L 505.053531 132.554153 
L 506.756571 134.163719 
L 508.459611 136.652666 
L 510.162651 138.505188 
L 511.865691 139.300423 
L 513.568731 139.572648 
L 515.271771 139.696149 
L 516.974811 138.95346 
L 518.677851 135.959357 
L 520.380891 130.183607 
L 522.083932 123.342813 
L 523.786972 119.099436 
L 525.490012 120.919885 
L 527.193052 129.440191 
L 528.896092 141.244763 
L 530.599132 150.363793 
L 532.302172 151.608628 
L 534.005212 143.863761 
L 535.708252 131.039135 
L 537.411292 119.929578 
L 539.114332 116.230632 
L 540.817372 121.174336 
L 542.520412 130.796328 
L 544.223452 138.314291 
L 545.926492 138.140068 
L 547.629533 128.958084 
L 551.035613 100.47828 
L 552.738653 93.131649 
L 554.441693 94.760937 
L 556.144733 104.041028 
L 559.550813 129.230167 
L 561.253853 137.144338 
L 561.253853 137.144338 
" style="fill: none; stroke: #1f77b4; stroke-width: 1.5; stroke-linecap: square"/>
   </g>
   <g id="line2d_20">
    <path d="M 38.420552 220.738964 
L 40.123593 219.896709 
L 41.826633 225.55713 
L 43.529673 234.674403 
L 45.232713 242.148827 
L 46.935753 243.709897 
L 48.638793 238.315059 
L 52.044873 218.696183 
L 53.747913 212.457061 
L 55.450953 210.639802 
L 57.153993 211.596619 
L 58.857033 212.996464 
L 60.560073 213.79107 
L 62.263113 214.725447 
L 63.966154 217.01523 
L 65.669194 220.594235 
L 67.372234 223.460675 
L 69.075274 223.017081 
L 70.778314 218.386799 
L 72.481354 211.701905 
L 74.184394 207.169649 
L 75.887434 208.180419 
L 77.590474 214.62511 
L 79.293514 222.499932 
L 80.996554 226.3952 
L 82.699594 223.176658 
L 86.105674 205.039496 
L 87.808714 200.888751 
L 89.511755 204.085491 
L 91.214795 212.090461 
L 92.917835 219.335378 
L 94.620875 220.83932 
L 96.323915 215.146893 
L 99.729995 194.743439 
L 101.433035 188.421147 
L 103.136075 186.687883 
L 104.839115 187.479881 
L 106.542155 187.804953 
L 108.245195 185.882454 
L 111.651275 178.705089 
L 113.354315 177.413509 
L 115.057356 178.764606 
L 118.463436 184.437575 
L 120.166476 186.698761 
L 121.869516 189.450273 
L 123.572556 194.423292 
L 125.275596 202.157712 
L 126.978636 210.7015 
L 128.681676 216.105953 
L 130.384716 214.872274 
L 132.087756 206.678522 
L 133.790796 195.409817 
L 135.493836 187.273858 
L 137.196876 186.86039 
L 138.899916 193.807186 
L 140.602957 202.594086 
L 142.305997 205.971769 
L 144.009037 199.873871 
L 147.415117 172.93185 
L 149.118157 166.856251 
L 150.821197 170.969095 
L 152.524237 181.327804 
L 154.227277 190.146672 
L 155.930317 191.218785 
L 157.633357 184.065714 
L 159.336397 174.020183 
L 161.039437 168.257426 
L 162.742477 170.863996 
L 164.445517 180.324529 
L 166.148558 191.098582 
L 167.851598 197.73143 
L 169.554638 198.331837 
L 172.960718 191.660506 
L 174.663758 190.475193 
L 176.366798 190.646669 
L 178.069838 189.347359 
L 179.772878 184.215261 
L 181.475918 175.147098 
L 184.881998 153.0202 
L 186.585038 142.633752 
L 188.288078 131.495062 
L 189.991118 117.510687 
L 191.694159 99.650938 
L 195.100239 58.736834 
L 196.803279 42.403484 
L 198.506319 32.894719 
L 200.209359 31.281482 
L 201.912399 36.659571 
L 203.615439 46.587368 
L 205.318479 57.840955 
L 207.021519 67.462913 
L 208.724559 73.800803 
L 210.427599 77.094287 
L 212.130639 79.184944 
L 213.833679 82.417318 
L 215.536719 88.292113 
L 217.23976 96.794196 
L 220.64584 117.566996 
L 222.34888 128.854905 
L 224.05192 141.490236 
L 229.16104 184.591735 
L 230.86408 194.59167 
L 232.56712 200.47409 
L 235.9732 207.385389 
L 239.37928 217.348154 
L 241.08232 219.369088 
L 242.785361 215.389214 
L 244.488401 204.984517 
L 246.191441 190.999986 
L 247.894481 177.976447 
L 249.597521 169.482805 
L 251.300561 166.202894 
L 253.003601 165.915081 
L 254.706641 165.339183 
L 256.409681 162.45529 
L 259.815761 152.876187 
L 261.518801 150.317163 
L 263.221841 150.257008 
L 264.924881 150.891437 
L 266.627921 149.341038 
L 268.330962 143.446455 
L 270.034002 133.161821 
L 271.737042 120.820817 
L 273.440082 110.111194 
L 275.143122 104.19119 
L 276.846162 104.05324 
L 278.549202 107.948462 
L 280.252242 112.362511 
L 281.955282 113.927717 
L 283.658322 111.297661 
L 285.361362 105.89631 
L 287.064402 100.921698 
L 288.767442 99.48854 
L 290.470482 102.955242 
L 292.173522 110.496437 
L 295.579603 129.237449 
L 297.282643 136.995692 
L 298.985683 142.488603 
L 300.688723 144.994588 
L 302.391763 143.730592 
L 304.094803 138.564003 
L 307.500883 123.445096 
L 309.203923 119.297828 
L 310.906963 119.727942 
L 314.313043 126.956005 
L 316.016083 127.198545 
L 317.719123 122.824383 
L 319.422164 114.8404 
L 322.828244 96.524298 
L 324.531284 88.782469 
L 326.234324 82.430756 
L 327.937364 77.967692 
L 329.640404 76.232627 
L 331.343444 77.407393 
L 333.046484 79.979321 
L 334.749524 80.941521 
L 336.452564 77.602665 
L 338.155604 69.763016 
L 339.858644 60.492378 
L 341.561684 54.35541 
L 343.264724 54.254813 
L 344.967765 59.171567 
L 346.670805 64.623763 
L 348.373845 65.669942 
L 350.076885 60.37945 
L 351.779925 51.053843 
L 353.482965 42.477054 
L 355.186005 38.452369 
L 356.889045 39.307239 
L 358.592085 42.089372 
L 360.295125 43.071943 
L 361.998165 40.581324 
L 363.701205 35.991463 
L 365.404245 32.38216 
L 367.107285 32.210344 
L 368.810326 35.696503 
L 372.216406 46.323976 
L 373.919446 50.035387 
L 375.622486 52.171069 
L 377.325526 53.058319 
L 379.028566 52.692927 
L 380.731606 50.716536 
L 382.434646 47.102748 
L 384.137686 42.758293 
L 385.840726 39.293032 
L 387.543766 38.027371 
L 389.246806 38.968295 
L 390.949846 40.599378 
L 392.652886 40.811292 
L 394.355927 38.373829 
L 397.762007 29.735363 
L 399.465047 28.568546 
L 401.168087 31.974905 
L 402.871127 39.292864 
L 404.574167 47.723414 
L 406.277207 53.673376 
L 407.980247 54.624141 
L 409.683287 50.558165 
L 411.386327 44.253179 
L 413.089367 39.942829 
L 414.792407 41.022394 
L 416.495447 47.954689 
L 418.198487 57.749337 
L 419.901528 65.549463 
L 421.604568 67.45108 
L 423.307608 62.953396 
L 425.010648 55.241236 
L 426.713688 49.101673 
L 428.416728 47.792777 
L 430.119768 51.016738 
L 431.822808 55.510372 
L 433.525848 57.784064 
L 435.228888 56.911782 
L 436.931928 55.21984 
L 438.634968 56.394987 
L 440.338008 62.413994 
L 443.744088 80.588684 
L 445.447129 85.338865 
L 447.150169 85.662785 
L 448.853209 84.316461 
L 450.556249 84.815427 
L 452.259289 88.517517 
L 453.962329 93.578556 
L 455.665369 96.717247 
L 457.368409 96.154009 
L 459.071449 93.304226 
L 460.774489 91.615596 
L 462.477529 93.580935 
L 464.180569 98.334729 
L 465.883609 102.088211 
L 467.586649 101.135928 
L 469.289689 95.133317 
L 470.99273 87.871469 
L 472.69577 84.754356 
L 474.39881 88.829279 
L 477.80489 108.287051 
L 479.50793 113.145532 
L 481.21097 111.366857 
L 482.91401 105.721702 
L 484.61705 101.068158 
L 486.32009 100.72709 
L 488.02313 104.444764 
L 489.72617 109.140188 
L 491.42921 111.505957 
L 493.13225 110.400844 
L 494.83529 107.297331 
L 496.538331 104.76267 
L 498.241371 104.54403 
L 499.944411 106.662285 
L 503.350491 113.052833 
L 505.053531 115.252462 
L 506.756571 116.167579 
L 508.459611 115.458648 
L 510.162651 112.954003 
L 513.568731 105.608785 
L 515.271771 104.276179 
L 516.974811 106.376389 
L 518.677851 111.276489 
L 520.380891 116.630167 
L 522.083932 119.69926 
L 523.786972 119.09578 
L 525.490012 115.501345 
L 527.193052 110.9878 
L 528.896092 107.603255 
L 530.599132 106.288468 
L 532.302172 106.850776 
L 534.005212 108.630067 
L 537.411292 113.262588 
L 539.114332 114.31527 
L 540.817372 112.667657 
L 542.520412 107.396234 
L 545.926492 91.20583 
L 547.629533 86.396316 
L 549.332573 86.719913 
L 551.035613 91.09482 
L 552.738653 96.117737 
L 554.441693 98.447125 
L 556.144733 97.204268 
L 557.847773 94.533486 
L 559.550813 93.889369 
L 561.253853 97.30553 
L 561.253853 97.30553 
" style="fill: none; stroke: #ff7f0e; stroke-width: 1.5; stroke-linecap: square"/>
   </g>
  </g>
  <g id="axes_2">
   <g id="PathCollection_1">
    <defs>
     <path id="C0_0_310a4eff60" d="M 0 1.118034 
C 0.296506 1.118034 0.580908 1.000231 0.790569 0.790569 
C 1.000231 0.580908 1.118034 0.296506 1.118034 -0 
C 1.118034 -0.296506 1.000231 -0.580908 0.790569 -0.790569 
C 0.580908 -1.000231 0.296506 -1.118034 0 -1.118034 
C -0.296506 -1.118034 -0.580908 -1.000231 -0.790569 -0.790569 
C -1.000231 -0.580908 -1.118034 -0.296506 -1.118034 0 
C -1.118034 0.296506 -1.000231 0.580908 -0.790569 0.790569 
C -0.580908 1.000231 -0.296506 1.118034 0 1.118034 
z
"/>
    </defs>
    <g clip-path="url(#p241d309fb4)">
     <use xlink:href="#C0_0_310a4eff60" x="483.593862" y="47.298845" style="stroke: #000000"/>
    </g>
    <g clip-path="url(#p241d309fb4)">
     <use xlink:href="#C0_0_310a4eff60" x="493.741484" y="47.286489" style="stroke: #000000"/>
    </g>
   </g>
   <g id="matplotlib.axis_3"/>
   <g id="matplotlib.axis_4"/>
   <g id="line2d_21">
    <path d="M 548.859194 73.63672 
L 548.781507 71.164689 
L 548.548754 68.702415 
L 548.161852 66.259613 
L 547.622329 63.845926 
L 546.932314 61.470879 
L 546.09453 59.143845 
L 545.112284 56.874007 
L 543.989451 54.670325 
L 542.730464 52.541494 
L 541.340291 50.495916 
L 539.824418 48.541664 
L 538.188828 46.686451 
L 536.439975 44.937599 
L 534.584762 43.302008 
L 532.630511 41.786136 
L 530.584933 40.395962 
L 528.456102 39.136975 
L 526.252419 38.014143 
L 523.982582 37.031896 
L 521.655547 36.194112 
L 519.2805 35.504097 
L 516.866813 34.964574 
L 514.424012 34.577673 
L 511.961737 34.344919 
L 509.489707 34.267233 
L 507.017676 34.344919 
L 504.555402 34.577673 
L 502.1126 34.964574 
L 499.698913 35.504097 
L 497.323866 36.194112 
L 494.996832 37.031896 
L 492.726994 38.014143 
L 490.523312 39.136975 
L 488.394481 40.395962 
L 486.348903 41.786136 
L 484.394651 43.302008 
L 482.539438 44.937599 
L 480.790586 46.686451 
L 479.154995 48.541664 
L 477.639123 50.495916 
L 476.248949 52.541494 
L 474.989962 54.670325 
L 473.86713 56.874007 
L 472.884883 59.143845 
L 472.047099 61.470879 
L 471.357084 63.845926 
L 470.817561 66.259613 
L 470.43066 68.702415 
L 470.197906 71.164689 
L 470.12022 73.63672 
L 470.197906 76.10875 
L 470.43066 78.571025 
L 470.817561 81.013826 
L 471.357084 83.427513 
L 472.047099 85.80256 
L 472.884883 88.129595 
L 473.86713 90.399432 
L 474.989962 92.603115 
L 476.248949 94.731946 
L 477.639123 96.777524 
L 479.154995 98.731775 
L 480.790586 100.586988 
L 482.539438 102.335841 
L 484.394651 103.971431 
L 486.348903 105.487304 
L 488.394481 106.877477 
L 490.523312 108.136464 
L 492.726994 109.259297 
L 494.996832 110.241543 
L 497.323866 111.079327 
L 499.698913 111.769342 
L 502.1126 112.308865 
L 504.555402 112.695767 
L 507.017676 112.92852 
L 509.489707 113.006207 
L 511.961737 112.92852 
L 514.424012 112.695767 
L 516.866813 112.308865 
L 519.2805 111.769342 
L 521.655547 111.079327 
L 523.982582 110.241543 
L 526.252419 109.259297 
L 528.456102 108.136464 
L 530.584933 106.877477 
L 532.630511 105.487304 
L 534.584762 103.971431 
L 536.439975 102.335841 
L 538.188828 100.586988 
L 539.824418 98.731775 
L 541.340291 96.777524 
L 542.730464 94.731946 
L 543.989451 92.603115 
L 545.112284 90.399432 
L 546.09453 88.129595 
L 546.932314 85.80256 
L 547.622329 83.427513 
L 548.161852 81.013826 
L 548.548754 78.571025 
L 548.781507 76.10875 
L 548.859194 73.63672 
" style="fill: none; stroke: #000000; stroke-linecap: square"/>
   </g>
   <g id="line2d_22">
    <path d="M 501.244181 35.140385 
L 509.489707 28.361809 
L 517.735233 35.140385 
" style="fill: none; stroke: #000000; stroke-linecap: square"/>
   </g>
   <g id="line2d_23">
    <path d="M 470.356436 69.266707 
L 469.33283 67.534449 
L 468.702918 67.471458 
L 467.765924 67.762792 
L 466.821057 69.266707 
L 466.970661 74.069784 
L 466.419488 80.975192 
L 467.600572 83.975147 
L 469.33283 84.534194 
L 470.986348 83.077523 
" style="fill: none; stroke: #000000; stroke-linecap: square"/>
   </g>
   <g id="line2d_24">
    <path d="M 548.622977 69.266707 
L 549.646584 67.534449 
L 550.276495 67.471458 
L 551.213489 67.762792 
L 552.158357 69.266707 
L 552.008753 74.069784 
L 552.559926 80.975192 
L 551.378841 83.975147 
L 549.646584 84.534194 
L 547.993065 83.077523 
" style="fill: none; stroke: #000000; stroke-linecap: square"/>
   </g>
  </g>
 </g>
 <defs>
  <clipPath id="pbd0da2874d">
   <rect x="38.420552" y="18.118365" width="523.446395" height="380.525145"/>
  </clipPath>
  <clipPath id="p241d309fb4">
   <rect x="462.112466" y="24.12959" width="94.754482" height="93.108837"/>
  </clipPath>
 </defs>
</svg>
