<?xml version="1.0" encoding="utf-8" standalone="no"?>
<!DOCTYPE svg PUBLIC "-//W3C//DTD SVG 1.1//EN"
  "http://www.w3.org/Graphics/SVG/1.1/DTD/svg11.dtd">
<svg xmlns:xlink="http://www.w3.org/1999/xlink" width="576pt" height="432pt" viewBox="0 0 576 432" xmlns="http://www.w3.org/2000/svg" version="1.1">
 <metadata>
  <rdf:RDF xmlns:dc="http://purl.org/dc/elements/1.1/" xmlns:cc="http://creativecommons.org/ns#" xmlns:rdf="http://www.w3.org/1999/02/22-rdf-syntax-ns#">
   <cc:Work>
    <dc:type rdf:resource="http://purl.org/dc/dcmitype/StillImage"/>
    <dc:date>2025-02-17T18:07:39.621488</dc:date>
    <dc:format>image/svg+xml</dc:format>
    <dc:creator>
     <cc:Agent>
      <dc:title>Matplotlib v3.10.0, https://matplotlib.org/</dc:title>
     </cc:Agent>
    </dc:creator>
   </cc:Work>
  </rdf:RDF>
 </metadata>
 <defs>
  <style type="text/css">*{stroke-linejoin: round; stroke-linecap: butt}</style>
 </defs>
 <g id="figure_1">
  <g id="patch_1">
   <path d="M 0 432 
L 576 432 
L 576 0 
L 0 0 
z
" style="fill: #ffffff"/>
  </g>
  <g id="axes_1">
   <g id="patch_2">
    <path d="M 44.783053 398.64351 
L 561.866947 398.64351 
L 561.866947 18.118365 
L 44.783053 18.118365 
L 44.783053 398.64351 
z
" style="fill: none; opacity: 0"/>
   </g>
   <g id="patch_3">
    <path d="M 44.783053 349.17849 
L 44.783053 67.583385 
" style="fill: none; stroke: #000000; stroke-width: 0.8; stroke-linejoin: miter; stroke-linecap: square"/>
   </g>
   <g id="LineCollection_1">
    <path d="M 346.527481 18.118365 
L 346.527481 398.64351 
" clip-path="url(#p5977e6ff45)" style="fill: none; stroke-dasharray: 3.7,1.6; stroke-dashoffset: 0; stroke: #000000"/>
    <path d="M 454.197214 18.118365 
L 454.197214 398.64351 
" clip-path="url(#p5977e6ff45)" style="fill: none; stroke-dasharray: 3.7,1.6; stroke-dashoffset: 0; stroke: #000000"/>
   </g>
   <g id="matplotlib.axis_1">
    <g id="xtick_1">
     <g id="line2d_1">
      <defs>
       <path id="m7a824e0e66" d="M 0 0 
L 0 3.5 
" style="stroke: #000000; stroke-width: 0.8"/>
      </defs>
      <g>
       <use xlink:href="#m7a824e0e66" x="45.052227" y="398.64351" style="stroke: #000000; stroke-width: 0.8"/>
      </g>
     </g>
     <g id="text_1">
      <!-- −0.20 -->
      <g transform="translate(29.729571 413.241947) scale(0.1 -0.1)">
       <defs>
        <path id="DejaVuSans-2212" d="M 678 2272 
L 4684 2272 
L 4684 1741 
L 678 1741 
L 678 2272 
z
" transform="scale(0.015625)"/>
        <path id="DejaVuSans-30" d="M 2034 4250 
Q 1547 4250 1301 3770 
Q 1056 3291 1056 2328 
Q 1056 1369 1301 889 
Q 1547 409 2034 409 
Q 2525 409 2770 889 
Q 3016 1369 3016 2328 
Q 3016 3291 2770 3770 
Q 2525 4250 2034 4250 
z
M 2034 4750 
Q 2819 4750 3233 4129 
Q 3647 3509 3647 2328 
Q 3647 1150 3233 529 
Q 2819 -91 2034 -91 
Q 1250 -91 836 529 
Q 422 1150 422 2328 
Q 422 3509 836 4129 
Q 1250 4750 2034 4750 
z
" transform="scale(0.015625)"/>
        <path id="DejaVuSans-2e" d="M 684 794 
L 1344 794 
L 1344 0 
L 684 0 
L 684 794 
z
" transform="scale(0.015625)"/>
        <path id="DejaVuSans-32" d="M 1228 531 
L 3431 531 
L 3431 0 
L 469 0 
L 469 531 
Q 828 903 1448 1529 
Q 2069 2156 2228 2338 
Q 2531 2678 2651 2914 
Q 2772 3150 2772 3378 
Q 2772 3750 2511 3984 
Q 2250 4219 1831 4219 
Q 1534 4219 1204 4116 
Q 875 4013 500 3803 
L 500 4441 
Q 881 4594 1212 4672 
Q 1544 4750 1819 4750 
Q 2544 4750 2975 4387 
Q 3406 4025 3406 3419 
Q 3406 3131 3298 2873 
Q 3191 2616 2906 2266 
Q 2828 2175 2409 1742 
Q 1991 1309 1228 531 
z
" transform="scale(0.015625)"/>
       </defs>
       <use xlink:href="#DejaVuSans-2212"/>
       <use xlink:href="#DejaVuSans-30" transform="translate(83.789062 0)"/>
       <use xlink:href="#DejaVuSans-2e" transform="translate(147.412109 0)"/>
       <use xlink:href="#DejaVuSans-32" transform="translate(179.199219 0)"/>
       <use xlink:href="#DejaVuSans-30" transform="translate(242.822266 0)"/>
      </g>
     </g>
    </g>
    <g id="xtick_2">
     <g id="line2d_2">
      <g>
       <use xlink:href="#m7a824e0e66" x="131.188014" y="398.64351" style="stroke: #000000; stroke-width: 0.8"/>
      </g>
     </g>
     <g id="text_2">
      <!-- 0.00 -->
      <g transform="translate(120.055201 413.241947) scale(0.1 -0.1)">
       <use xlink:href="#DejaVuSans-30"/>
       <use xlink:href="#DejaVuSans-2e" transform="translate(63.623047 0)"/>
       <use xlink:href="#DejaVuSans-30" transform="translate(95.410156 0)"/>
       <use xlink:href="#DejaVuSans-30" transform="translate(159.033203 0)"/>
      </g>
     </g>
    </g>
    <g id="xtick_3">
     <g id="line2d_3">
      <g>
       <use xlink:href="#m7a824e0e66" x="217.3238" y="398.64351" style="stroke: #000000; stroke-width: 0.8"/>
      </g>
     </g>
     <g id="text_3">
      <!-- 0.20 -->
      <g transform="translate(206.190988 413.241947) scale(0.1 -0.1)">
       <use xlink:href="#DejaVuSans-30"/>
       <use xlink:href="#DejaVuSans-2e" transform="translate(63.623047 0)"/>
       <use xlink:href="#DejaVuSans-32" transform="translate(95.410156 0)"/>
       <use xlink:href="#DejaVuSans-30" transform="translate(159.033203 0)"/>
      </g>
     </g>
    </g>
    <g id="xtick_4">
     <g id="line2d_4">
      <g>
       <use xlink:href="#m7a824e0e66" x="303.459587" y="398.64351" style="stroke: #000000; stroke-width: 0.8"/>
      </g>
     </g>
     <g id="text_4">
      <!-- 0.40 -->
      <g transform="translate(292.326775 413.241947) scale(0.1 -0.1)">
       <defs>
        <path id="DejaVuSans-34" d="M 2419 4116 
L 825 1625 
L 2419 1625 
L 2419 4116 
z
M 2253 4666 
L 3047 4666 
L 3047 1625 
L 3713 1625 
L 3713 1100 
L 3047 1100 
L 3047 0 
L 2419 0 
L 2419 1100 
L 313 1100 
L 313 1709 
L 2253 4666 
z
" transform="scale(0.015625)"/>
       </defs>
       <use xlink:href="#DejaVuSans-30"/>
       <use xlink:href="#DejaVuSans-2e" transform="translate(63.623047 0)"/>
       <use xlink:href="#DejaVuSans-34" transform="translate(95.410156 0)"/>
       <use xlink:href="#DejaVuSans-30" transform="translate(159.033203 0)"/>
      </g>
     </g>
    </g>
    <g id="xtick_5">
     <g id="line2d_5">
      <g>
       <use xlink:href="#m7a824e0e66" x="346.527481" y="398.64351" style="stroke: #000000; stroke-width: 0.8"/>
      </g>
     </g>
     <g id="text_5">
      <!-- 0.50 -->
      <g transform="translate(335.394668 413.241947) scale(0.1 -0.1)">
       <defs>
        <path id="DejaVuSans-35" d="M 691 4666 
L 3169 4666 
L 3169 4134 
L 1269 4134 
L 1269 2991 
Q 1406 3038 1543 3061 
Q 1681 3084 1819 3084 
Q 2600 3084 3056 2656 
Q 3513 2228 3513 1497 
Q 3513 744 3044 326 
Q 2575 -91 1722 -91 
Q 1428 -91 1123 -41 
Q 819 9 494 109 
L 494 744 
Q 775 591 1075 516 
Q 1375 441 1709 441 
Q 2250 441 2565 725 
Q 2881 1009 2881 1497 
Q 2881 1984 2565 2268 
Q 2250 2553 1709 2553 
Q 1456 2553 1204 2497 
Q 953 2441 691 2322 
L 691 4666 
z
" transform="scale(0.015625)"/>
       </defs>
       <use xlink:href="#DejaVuSans-30"/>
       <use xlink:href="#DejaVuSans-2e" transform="translate(63.623047 0)"/>
       <use xlink:href="#DejaVuSans-35" transform="translate(95.410156 0)"/>
       <use xlink:href="#DejaVuSans-30" transform="translate(159.033203 0)"/>
      </g>
     </g>
    </g>
    <g id="xtick_6">
     <g id="line2d_6">
      <g>
       <use xlink:href="#m7a824e0e66" x="389.595374" y="398.64351" style="stroke: #000000; stroke-width: 0.8"/>
      </g>
     </g>
     <g id="text_6">
      <!-- 0.60 -->
      <g transform="translate(378.462561 413.241947) scale(0.1 -0.1)">
       <defs>
        <path id="DejaVuSans-36" d="M 2113 2584 
Q 1688 2584 1439 2293 
Q 1191 2003 1191 1497 
Q 1191 994 1439 701 
Q 1688 409 2113 409 
Q 2538 409 2786 701 
Q 3034 994 3034 1497 
Q 3034 2003 2786 2293 
Q 2538 2584 2113 2584 
z
M 3366 4563 
L 3366 3988 
Q 3128 4100 2886 4159 
Q 2644 4219 2406 4219 
Q 1781 4219 1451 3797 
Q 1122 3375 1075 2522 
Q 1259 2794 1537 2939 
Q 1816 3084 2150 3084 
Q 2853 3084 3261 2657 
Q 3669 2231 3669 1497 
Q 3669 778 3244 343 
Q 2819 -91 2113 -91 
Q 1303 -91 875 529 
Q 447 1150 447 2328 
Q 447 3434 972 4092 
Q 1497 4750 2381 4750 
Q 2619 4750 2861 4703 
Q 3103 4656 3366 4563 
z
" transform="scale(0.015625)"/>
       </defs>
       <use xlink:href="#DejaVuSans-30"/>
       <use xlink:href="#DejaVuSans-2e" transform="translate(63.623047 0)"/>
       <use xlink:href="#DejaVuSans-36" transform="translate(95.410156 0)"/>
       <use xlink:href="#DejaVuSans-30" transform="translate(159.033203 0)"/>
      </g>
     </g>
    </g>
    <g id="xtick_7">
     <g id="line2d_7">
      <g>
       <use xlink:href="#m7a824e0e66" x="454.197214" y="398.64351" style="stroke: #000000; stroke-width: 0.8"/>
      </g>
     </g>
     <g id="text_7">
      <!-- 0.75 -->
      <g transform="translate(443.064402 413.241947) scale(0.1 -0.1)">
       <defs>
        <path id="DejaVuSans-37" d="M 525 4666 
L 3525 4666 
L 3525 4397 
L 1831 0 
L 1172 0 
L 2766 4134 
L 525 4134 
L 525 4666 
z
" transform="scale(0.015625)"/>
       </defs>
       <use xlink:href="#DejaVuSans-30"/>
       <use xlink:href="#DejaVuSans-2e" transform="translate(63.623047 0)"/>
       <use xlink:href="#DejaVuSans-37" transform="translate(95.410156 0)"/>
       <use xlink:href="#DejaVuSans-35" transform="translate(159.033203 0)"/>
      </g>
     </g>
    </g>
    <g id="xtick_8">
     <g id="line2d_8">
      <g>
       <use xlink:href="#m7a824e0e66" x="475.731161" y="398.64351" style="stroke: #000000; stroke-width: 0.8"/>
      </g>
     </g>
     <g id="text_8">
      <!-- 0.80 -->
      <g transform="translate(464.598348 413.241947) scale(0.1 -0.1)">
       <defs>
        <path id="DejaVuSans-38" d="M 2034 2216 
Q 1584 2216 1326 1975 
Q 1069 1734 1069 1313 
Q 1069 891 1326 650 
Q 1584 409 2034 409 
Q 2484 409 2743 651 
Q 3003 894 3003 1313 
Q 3003 1734 2745 1975 
Q 2488 2216 2034 2216 
z
M 1403 2484 
Q 997 2584 770 2862 
Q 544 3141 544 3541 
Q 544 4100 942 4425 
Q 1341 4750 2034 4750 
Q 2731 4750 3128 4425 
Q 3525 4100 3525 3541 
Q 3525 3141 3298 2862 
Q 3072 2584 2669 2484 
Q 3125 2378 3379 2068 
Q 3634 1759 3634 1313 
Q 3634 634 3220 271 
Q 2806 -91 2034 -91 
Q 1263 -91 848 271 
Q 434 634 434 1313 
Q 434 1759 690 2068 
Q 947 2378 1403 2484 
z
M 1172 3481 
Q 1172 3119 1398 2916 
Q 1625 2713 2034 2713 
Q 2441 2713 2670 2916 
Q 2900 3119 2900 3481 
Q 2900 3844 2670 4047 
Q 2441 4250 2034 4250 
Q 1625 4250 1398 4047 
Q 1172 3844 1172 3481 
z
" transform="scale(0.015625)"/>
       </defs>
       <use xlink:href="#DejaVuSans-30"/>
       <use xlink:href="#DejaVuSans-2e" transform="translate(63.623047 0)"/>
       <use xlink:href="#DejaVuSans-38" transform="translate(95.410156 0)"/>
       <use xlink:href="#DejaVuSans-30" transform="translate(159.033203 0)"/>
      </g>
     </g>
    </g>
    <g id="xtick_9">
     <g id="line2d_9">
      <g>
       <use xlink:href="#m7a824e0e66" x="561.866947" y="398.64351" style="stroke: #000000; stroke-width: 0.8"/>
      </g>
     </g>
     <g id="text_9">
      <!-- 1.00 -->
      <g transform="translate(550.734135 413.241947) scale(0.1 -0.1)">
       <defs>
        <path id="DejaVuSans-31" d="M 794 531 
L 1825 531 
L 1825 4091 
L 703 3866 
L 703 4441 
L 1819 4666 
L 2450 4666 
L 2450 531 
L 3481 531 
L 3481 0 
L 794 0 
L 794 531 
z
" transform="scale(0.015625)"/>
       </defs>
       <use xlink:href="#DejaVuSans-31"/>
       <use xlink:href="#DejaVuSans-2e" transform="translate(63.623047 0)"/>
       <use xlink:href="#DejaVuSans-30" transform="translate(95.410156 0)"/>
       <use xlink:href="#DejaVuSans-30" transform="translate(159.033203 0)"/>
      </g>
     </g>
    </g>
    <g id="text_10">
     <!-- Time (s) -->
     <g transform="translate(282.996094 426.920073) scale(0.1 -0.1)">
      <defs>
       <path id="DejaVuSans-54" d="M -19 4666 
L 3928 4666 
L 3928 4134 
L 2272 4134 
L 2272 0 
L 1638 0 
L 1638 4134 
L -19 4134 
L -19 4666 
z
" transform="scale(0.015625)"/>
       <path id="DejaVuSans-69" d="M 603 3500 
L 1178 3500 
L 1178 0 
L 603 0 
L 603 3500 
z
M 603 4863 
L 1178 4863 
L 1178 4134 
L 603 4134 
L 603 4863 
z
" transform="scale(0.015625)"/>
       <path id="DejaVuSans-6d" d="M 3328 2828 
Q 3544 3216 3844 3400 
Q 4144 3584 4550 3584 
Q 5097 3584 5394 3201 
Q 5691 2819 5691 2113 
L 5691 0 
L 5113 0 
L 5113 2094 
Q 5113 2597 4934 2840 
Q 4756 3084 4391 3084 
Q 3944 3084 3684 2787 
Q 3425 2491 3425 1978 
L 3425 0 
L 2847 0 
L 2847 2094 
Q 2847 2600 2669 2842 
Q 2491 3084 2119 3084 
Q 1678 3084 1418 2786 
Q 1159 2488 1159 1978 
L 1159 0 
L 581 0 
L 581 3500 
L 1159 3500 
L 1159 2956 
Q 1356 3278 1631 3431 
Q 1906 3584 2284 3584 
Q 2666 3584 2933 3390 
Q 3200 3197 3328 2828 
z
" transform="scale(0.015625)"/>
       <path id="DejaVuSans-65" d="M 3597 1894 
L 3597 1613 
L 953 1613 
Q 991 1019 1311 708 
Q 1631 397 2203 397 
Q 2534 397 2845 478 
Q 3156 559 3463 722 
L 3463 178 
Q 3153 47 2828 -22 
Q 2503 -91 2169 -91 
Q 1331 -91 842 396 
Q 353 884 353 1716 
Q 353 2575 817 3079 
Q 1281 3584 2069 3584 
Q 2775 3584 3186 3129 
Q 3597 2675 3597 1894 
z
M 3022 2063 
Q 3016 2534 2758 2815 
Q 2500 3097 2075 3097 
Q 1594 3097 1305 2825 
Q 1016 2553 972 2059 
L 3022 2063 
z
" transform="scale(0.015625)"/>
       <path id="DejaVuSans-20" transform="scale(0.015625)"/>
       <path id="DejaVuSans-28" d="M 1984 4856 
Q 1566 4138 1362 3434 
Q 1159 2731 1159 2009 
Q 1159 1288 1364 580 
Q 1569 -128 1984 -844 
L 1484 -844 
Q 1016 -109 783 600 
Q 550 1309 550 2009 
Q 550 2706 781 3412 
Q 1013 4119 1484 4856 
L 1984 4856 
z
" transform="scale(0.015625)"/>
       <path id="DejaVuSans-73" d="M 2834 3397 
L 2834 2853 
Q 2591 2978 2328 3040 
Q 2066 3103 1784 3103 
Q 1356 3103 1142 2972 
Q 928 2841 928 2578 
Q 928 2378 1081 2264 
Q 1234 2150 1697 2047 
L 1894 2003 
Q 2506 1872 2764 1633 
Q 3022 1394 3022 966 
Q 3022 478 2636 193 
Q 2250 -91 1575 -91 
Q 1294 -91 989 -36 
Q 684 19 347 128 
L 347 722 
Q 666 556 975 473 
Q 1284 391 1588 391 
Q 1994 391 2212 530 
Q 2431 669 2431 922 
Q 2431 1156 2273 1281 
Q 2116 1406 1581 1522 
L 1381 1569 
Q 847 1681 609 1914 
Q 372 2147 372 2553 
Q 372 3047 722 3315 
Q 1072 3584 1716 3584 
Q 2034 3584 2315 3537 
Q 2597 3491 2834 3397 
z
" transform="scale(0.015625)"/>
       <path id="DejaVuSans-29" d="M 513 4856 
L 1013 4856 
Q 1481 4119 1714 3412 
Q 1947 2706 1947 2009 
Q 1947 1309 1714 600 
Q 1481 -109 1013 -844 
L 513 -844 
Q 928 -128 1133 580 
Q 1338 1288 1338 2009 
Q 1338 2731 1133 3434 
Q 928 4138 513 4856 
z
" transform="scale(0.015625)"/>
      </defs>
      <use xlink:href="#DejaVuSans-54"/>
      <use xlink:href="#DejaVuSans-69" transform="translate(57.958984 0)"/>
      <use xlink:href="#DejaVuSans-6d" transform="translate(85.742188 0)"/>
      <use xlink:href="#DejaVuSans-65" transform="translate(183.154297 0)"/>
      <use xlink:href="#DejaVuSans-20" transform="translate(244.677734 0)"/>
      <use xlink:href="#DejaVuSans-28" transform="translate(276.464844 0)"/>
      <use xlink:href="#DejaVuSans-73" transform="translate(315.478516 0)"/>
      <use xlink:href="#DejaVuSans-29" transform="translate(367.578125 0)"/>
     </g>
    </g>
   </g>
   <g id="matplotlib.axis_2">
    <g id="ytick_1">
     <g id="line2d_10">
      <defs>
       <path id="m9748d95884" d="M 0 0 
L -3.5 0 
" style="stroke: #000000; stroke-width: 0.8"/>
      </defs>
      <g>
       <use xlink:href="#m9748d95884" x="44.783053" y="349.17849" style="stroke: #000000; stroke-width: 0.8"/>
      </g>
     </g>
     <g id="text_11">
      <!-- −10 -->
      <g transform="translate(16.678365 352.977709) scale(0.1 -0.1)">
       <use xlink:href="#DejaVuSans-2212"/>
       <use xlink:href="#DejaVuSans-31" transform="translate(83.789062 0)"/>
       <use xlink:href="#DejaVuSans-30" transform="translate(147.412109 0)"/>
      </g>
     </g>
    </g>
    <g id="ytick_2">
     <g id="line2d_11">
      <g>
       <use xlink:href="#m9748d95884" x="44.783053" y="278.779714" style="stroke: #000000; stroke-width: 0.8"/>
      </g>
     </g>
     <g id="text_12">
      <!-- −5 -->
      <g transform="translate(23.040865 282.578933) scale(0.1 -0.1)">
       <use xlink:href="#DejaVuSans-2212"/>
       <use xlink:href="#DejaVuSans-35" transform="translate(83.789062 0)"/>
      </g>
     </g>
    </g>
    <g id="ytick_3">
     <g id="line2d_12">
      <g>
       <use xlink:href="#m9748d95884" x="44.783053" y="208.380937" style="stroke: #000000; stroke-width: 0.8"/>
      </g>
     </g>
     <g id="text_13">
      <!-- 0 -->
      <g transform="translate(31.420553 212.180156) scale(0.1 -0.1)">
       <use xlink:href="#DejaVuSans-30"/>
      </g>
     </g>
    </g>
    <g id="ytick_4">
     <g id="line2d_13">
      <g>
       <use xlink:href="#m9748d95884" x="44.783053" y="137.982161" style="stroke: #000000; stroke-width: 0.8"/>
      </g>
     </g>
     <g id="text_14">
      <!-- 5 -->
      <g transform="translate(31.420553 141.78138) scale(0.1 -0.1)">
       <use xlink:href="#DejaVuSans-35"/>
      </g>
     </g>
    </g>
    <g id="ytick_5">
     <g id="line2d_14">
      <g>
       <use xlink:href="#m9748d95884" x="44.783053" y="67.583385" style="stroke: #000000; stroke-width: 0.8"/>
      </g>
     </g>
     <g id="text_15">
      <!-- 10 -->
      <g transform="translate(25.058053 71.382604) scale(0.1 -0.1)">
       <use xlink:href="#DejaVuSans-31"/>
       <use xlink:href="#DejaVuSans-30" transform="translate(63.623047 0)"/>
      </g>
     </g>
    </g>
    <g id="text_16">
     <!-- µV -->
     <g transform="translate(10.598678 214.9825) rotate(-90) scale(0.1 -0.1)">
      <defs>
       <path id="DejaVuSans-b5" d="M 544 -1331 
L 544 3500 
L 1119 3500 
L 1119 1325 
Q 1119 872 1334 640 
Q 1550 409 1972 409 
Q 2434 409 2667 671 
Q 2900 934 2900 1459 
L 2900 3500 
L 3475 3500 
L 3475 806 
Q 3475 619 3529 530 
Q 3584 441 3700 441 
Q 3728 441 3778 458 
Q 3828 475 3916 513 
L 3916 50 
Q 3788 -22 3673 -56 
Q 3559 -91 3450 -91 
Q 3234 -91 3106 31 
Q 2978 153 2931 403 
Q 2775 156 2548 32 
Q 2322 -91 2016 -91 
Q 1697 -91 1473 31 
Q 1250 153 1119 397 
L 1119 -1331 
L 544 -1331 
z
" transform="scale(0.015625)"/>
       <path id="DejaVuSans-56" d="M 1831 0 
L 50 4666 
L 709 4666 
L 2188 738 
L 3669 4666 
L 4325 4666 
L 2547 0 
L 1831 0 
z
" transform="scale(0.015625)"/>
      </defs>
      <use xlink:href="#DejaVuSans-b5"/>
      <use xlink:href="#DejaVuSans-56" transform="translate(63.623047 0)"/>
     </g>
    </g>
   </g>
   <g id="patch_4">
    <path d="M 45.052227 398.64351 
L 561.866947 398.64351 
" style="fill: none; stroke: #000000; stroke-width: 0.8; stroke-linejoin: miter; stroke-linecap: square"/>
   </g>
   <g id="patch_5">
    <path d="M 44.783052 208.380937 
L 561.866947 208.380937 
" style="fill: none; stroke: #000000; stroke-width: 0.8; stroke-linejoin: miter; stroke-linecap: square"/>
   </g>
   <g id="text_17">
    <!-- P3, Pz, P4 (median) -->
    <g transform="translate(244.979687 12.118365) scale(0.12 -0.12)">
     <defs>
      <path id="DejaVuSans-50" d="M 1259 4147 
L 1259 2394 
L 2053 2394 
Q 2494 2394 2734 2622 
Q 2975 2850 2975 3272 
Q 2975 3691 2734 3919 
Q 2494 4147 2053 4147 
L 1259 4147 
z
M 628 4666 
L 2053 4666 
Q 2838 4666 3239 4311 
Q 3641 3956 3641 3272 
Q 3641 2581 3239 2228 
Q 2838 1875 2053 1875 
L 1259 1875 
L 1259 0 
L 628 0 
L 628 4666 
z
" transform="scale(0.015625)"/>
      <path id="DejaVuSans-33" d="M 2597 2516 
Q 3050 2419 3304 2112 
Q 3559 1806 3559 1356 
Q 3559 666 3084 287 
Q 2609 -91 1734 -91 
Q 1441 -91 1130 -33 
Q 819 25 488 141 
L 488 750 
Q 750 597 1062 519 
Q 1375 441 1716 441 
Q 2309 441 2620 675 
Q 2931 909 2931 1356 
Q 2931 1769 2642 2001 
Q 2353 2234 1838 2234 
L 1294 2234 
L 1294 2753 
L 1863 2753 
Q 2328 2753 2575 2939 
Q 2822 3125 2822 3475 
Q 2822 3834 2567 4026 
Q 2313 4219 1838 4219 
Q 1578 4219 1281 4162 
Q 984 4106 628 3988 
L 628 4550 
Q 988 4650 1302 4700 
Q 1616 4750 1894 4750 
Q 2613 4750 3031 4423 
Q 3450 4097 3450 3541 
Q 3450 3153 3228 2886 
Q 3006 2619 2597 2516 
z
" transform="scale(0.015625)"/>
      <path id="DejaVuSans-2c" d="M 750 794 
L 1409 794 
L 1409 256 
L 897 -744 
L 494 -744 
L 750 256 
L 750 794 
z
" transform="scale(0.015625)"/>
      <path id="DejaVuSans-7a" d="M 353 3500 
L 3084 3500 
L 3084 2975 
L 922 459 
L 3084 459 
L 3084 0 
L 275 0 
L 275 525 
L 2438 3041 
L 353 3041 
L 353 3500 
z
" transform="scale(0.015625)"/>
      <path id="DejaVuSans-64" d="M 2906 2969 
L 2906 4863 
L 3481 4863 
L 3481 0 
L 2906 0 
L 2906 525 
Q 2725 213 2448 61 
Q 2172 -91 1784 -91 
Q 1150 -91 751 415 
Q 353 922 353 1747 
Q 353 2572 751 3078 
Q 1150 3584 1784 3584 
Q 2172 3584 2448 3432 
Q 2725 3281 2906 2969 
z
M 947 1747 
Q 947 1113 1208 752 
Q 1469 391 1925 391 
Q 2381 391 2643 752 
Q 2906 1113 2906 1747 
Q 2906 2381 2643 2742 
Q 2381 3103 1925 3103 
Q 1469 3103 1208 2742 
Q 947 2381 947 1747 
z
" transform="scale(0.015625)"/>
      <path id="DejaVuSans-61" d="M 2194 1759 
Q 1497 1759 1228 1600 
Q 959 1441 959 1056 
Q 959 750 1161 570 
Q 1363 391 1709 391 
Q 2188 391 2477 730 
Q 2766 1069 2766 1631 
L 2766 1759 
L 2194 1759 
z
M 3341 1997 
L 3341 0 
L 2766 0 
L 2766 531 
Q 2569 213 2275 61 
Q 1981 -91 1556 -91 
Q 1019 -91 701 211 
Q 384 513 384 1019 
Q 384 1609 779 1909 
Q 1175 2209 1959 2209 
L 2766 2209 
L 2766 2266 
Q 2766 2663 2505 2880 
Q 2244 3097 1772 3097 
Q 1472 3097 1187 3025 
Q 903 2953 641 2809 
L 641 3341 
Q 956 3463 1253 3523 
Q 1550 3584 1831 3584 
Q 2591 3584 2966 3190 
Q 3341 2797 3341 1997 
z
" transform="scale(0.015625)"/>
      <path id="DejaVuSans-6e" d="M 3513 2113 
L 3513 0 
L 2938 0 
L 2938 2094 
Q 2938 2591 2744 2837 
Q 2550 3084 2163 3084 
Q 1697 3084 1428 2787 
Q 1159 2491 1159 1978 
L 1159 0 
L 581 0 
L 581 3500 
L 1159 3500 
L 1159 2956 
Q 1366 3272 1645 3428 
Q 1925 3584 2291 3584 
Q 2894 3584 3203 3211 
Q 3513 2838 3513 2113 
z
" transform="scale(0.015625)"/>
     </defs>
     <use xlink:href="#DejaVuSans-50"/>
     <use xlink:href="#DejaVuSans-33" transform="translate(60.302734 0)"/>
     <use xlink:href="#DejaVuSans-2c" transform="translate(123.925781 0)"/>
     <use xlink:href="#DejaVuSans-20" transform="translate(155.712891 0)"/>
     <use xlink:href="#DejaVuSans-50" transform="translate(187.5 0)"/>
     <use xlink:href="#DejaVuSans-7a" transform="translate(247.802734 0)"/>
     <use xlink:href="#DejaVuSans-2c" transform="translate(300.292969 0)"/>
     <use xlink:href="#DejaVuSans-20" transform="translate(332.080078 0)"/>
     <use xlink:href="#DejaVuSans-50" transform="translate(363.867188 0)"/>
     <use xlink:href="#DejaVuSans-34" transform="translate(424.169922 0)"/>
     <use xlink:href="#DejaVuSans-20" transform="translate(487.792969 0)"/>
     <use xlink:href="#DejaVuSans-28" transform="translate(519.580078 0)"/>
     <use xlink:href="#DejaVuSans-6d" transform="translate(558.59375 0)"/>
     <use xlink:href="#DejaVuSans-65" transform="translate(656.005859 0)"/>
     <use xlink:href="#DejaVuSans-64" transform="translate(717.529297 0)"/>
     <use xlink:href="#DejaVuSans-69" transform="translate(781.005859 0)"/>
     <use xlink:href="#DejaVuSans-61" transform="translate(808.789062 0)"/>
     <use xlink:href="#DejaVuSans-6e" transform="translate(870.068359 0)"/>
     <use xlink:href="#DejaVuSans-29" transform="translate(933.447266 0)"/>
    </g>
   </g>
   <g id="legend_1">
    <g id="patch_6">
     <path d="M 51.783053 55.75274 
L 132.92524 55.75274 
Q 134.92524 55.75274 134.92524 53.75274 
L 134.92524 25.118365 
Q 134.92524 23.118365 132.92524 23.118365 
L 51.783053 23.118365 
Q 49.783053 23.118365 49.783053 25.118365 
L 49.783053 53.75274 
Q 49.783053 55.75274 51.783053 55.75274 
z
" style="fill: #ffffff; opacity: 0.8; stroke: #cccccc; stroke-linejoin: miter"/>
    </g>
    <g id="line2d_15">
     <path d="M 53.783053 31.216803 
L 63.783053 31.216803 
L 73.783052 31.216803 
" style="fill: none; stroke: #1f77b4; stroke-width: 1.5; stroke-linecap: square"/>
    </g>
    <g id="text_18">
     <!-- eerie -->
     <g transform="translate(81.783052 34.716803) scale(0.1 -0.1)">
      <defs>
       <path id="DejaVuSans-72" d="M 2631 2963 
Q 2534 3019 2420 3045 
Q 2306 3072 2169 3072 
Q 1681 3072 1420 2755 
Q 1159 2438 1159 1844 
L 1159 0 
L 581 0 
L 581 3500 
L 1159 3500 
L 1159 2956 
Q 1341 3275 1631 3429 
Q 1922 3584 2338 3584 
Q 2397 3584 2469 3576 
Q 2541 3569 2628 3553 
L 2631 2963 
z
" transform="scale(0.015625)"/>
      </defs>
      <use xlink:href="#DejaVuSans-65"/>
      <use xlink:href="#DejaVuSans-65" transform="translate(61.523438 0)"/>
      <use xlink:href="#DejaVuSans-72" transform="translate(123.046875 0)"/>
      <use xlink:href="#DejaVuSans-69" transform="translate(164.160156 0)"/>
      <use xlink:href="#DejaVuSans-65" transform="translate(191.943359 0)"/>
     </g>
    </g>
    <g id="line2d_16">
     <path d="M 53.783053 45.894928 
L 63.783053 45.894928 
L 73.783052 45.894928 
" style="fill: none; stroke: #ff7f0e; stroke-width: 1.5; stroke-linecap: square"/>
    </g>
    <g id="text_19">
     <!-- non_eerie -->
     <g transform="translate(81.783052 49.394928) scale(0.1 -0.1)">
      <defs>
       <path id="DejaVuSans-6f" d="M 1959 3097 
Q 1497 3097 1228 2736 
Q 959 2375 959 1747 
Q 959 1119 1226 758 
Q 1494 397 1959 397 
Q 2419 397 2687 759 
Q 2956 1122 2956 1747 
Q 2956 2369 2687 2733 
Q 2419 3097 1959 3097 
z
M 1959 3584 
Q 2709 3584 3137 3096 
Q 3566 2609 3566 1747 
Q 3566 888 3137 398 
Q 2709 -91 1959 -91 
Q 1206 -91 779 398 
Q 353 888 353 1747 
Q 353 2609 779 3096 
Q 1206 3584 1959 3584 
z
" transform="scale(0.015625)"/>
       <path id="DejaVuSans-5f" d="M 3263 -1063 
L 3263 -1509 
L -63 -1509 
L -63 -1063 
L 3263 -1063 
z
" transform="scale(0.015625)"/>
      </defs>
      <use xlink:href="#DejaVuSans-6e"/>
      <use xlink:href="#DejaVuSans-6f" transform="translate(63.378906 0)"/>
      <use xlink:href="#DejaVuSans-6e" transform="translate(124.560547 0)"/>
      <use xlink:href="#DejaVuSans-5f" transform="translate(187.939453 0)"/>
      <use xlink:href="#DejaVuSans-65" transform="translate(237.939453 0)"/>
      <use xlink:href="#DejaVuSans-65" transform="translate(299.462891 0)"/>
      <use xlink:href="#DejaVuSans-72" transform="translate(360.986328 0)"/>
      <use xlink:href="#DejaVuSans-69" transform="translate(402.099609 0)"/>
      <use xlink:href="#DejaVuSans-65" transform="translate(429.882812 0)"/>
     </g>
    </g>
   </g>
   <g id="FillBetweenPolyCollection_1">
    <defs>
     <path id="mffd8fee278" d="M 44.783052 -226.076641 
L 44.783052 -218.9944 
L 46.465392 -219.012267 
L 48.147732 -218.888803 
L 49.830071 -219.935677 
L 51.512411 -222.176529 
L 53.19475 -225.009729 
L 54.87709 -226.917147 
L 56.55943 -228.233593 
L 58.241769 -228.838083 
L 59.924109 -229.18201 
L 61.606448 -229.830972 
L 63.288788 -230.743231 
L 64.971128 -231.687677 
L 66.653467 -231.443593 
L 68.335807 -228.999878 
L 70.018146 -224.770607 
L 71.700486 -220.477364 
L 73.382825 -218.105106 
L 75.065165 -218.289289 
L 76.747505 -219.599573 
L 78.429844 -220.570716 
L 80.112184 -219.482855 
L 81.794523 -216.708057 
L 83.476863 -213.647602 
L 85.159203 -211.934857 
L 86.841542 -212.024096 
L 88.523882 -213.364046 
L 90.206221 -214.626957 
L 91.888561 -214.240784 
L 93.5709 -212.748623 
L 95.25324 -211.48476 
L 96.93558 -212.21853 
L 98.617919 -215.006648 
L 100.300259 -218.541736 
L 101.982598 -220.788511 
L 103.664938 -221.069732 
L 105.347278 -219.277891 
L 107.029617 -217.510363 
L 108.711957 -217.844154 
L 110.394296 -221.285289 
L 112.076636 -226.262865 
L 113.758976 -230.199018 
L 115.441315 -231.027434 
L 117.123655 -228.629103 
L 118.805994 -224.131675 
L 120.488334 -220.043182 
L 122.170673 -217.169793 
L 123.853013 -215.710617 
L 125.535353 -214.829175 
L 127.217692 -213.891692 
L 128.900032 -212.093394 
L 130.582371 -209.244245 
L 132.264711 -206.403719 
L 133.947051 -204.963455 
L 135.62939 -204.690795 
L 137.31173 -204.691288 
L 138.994069 -204.222008 
L 140.676409 -203.17439 
L 142.358748 -202.47381 
L 144.041088 -202.664432 
L 145.723428 -203.772251 
L 147.405767 -204.686485 
L 149.088107 -204.618734 
L 150.770446 -203.573666 
L 152.452786 -201.397938 
L 154.135126 -198.991041 
L 155.817465 -198.281986 
L 157.499805 -200.249668 
L 159.182144 -204.592177 
L 160.864484 -210.159145 
L 162.546823 -215.42998 
L 164.229163 -220.206765 
L 165.911503 -225.944697 
L 167.593842 -234.548606 
L 169.276182 -246.799786 
L 170.958521 -261.901727 
L 172.640861 -276.949454 
L 174.323201 -288.93118 
L 176.00554 -296.200913 
L 177.68788 -300.540256 
L 179.370219 -304.841996 
L 181.052559 -311.163212 
L 182.734899 -320.294407 
L 184.417238 -330.274852 
L 186.099578 -337.507437 
L 187.781917 -339.527994 
L 189.464257 -335.265632 
L 191.146596 -328.017871 
L 192.828936 -321.188072 
L 194.511276 -314.320722 
L 196.193615 -308.025413 
L 197.875955 -301.737928 
L 199.558294 -296.054439 
L 201.240634 -290.735697 
L 202.922974 -286.758781 
L 204.605313 -285.009576 
L 206.287653 -285.709497 
L 207.969992 -288.557232 
L 209.652332 -292.237194 
L 211.334671 -296.208412 
L 213.017011 -299.525577 
L 214.699351 -301.990518 
L 216.38169 -303.508097 
L 218.06403 -304.067122 
L 219.746369 -303.935756 
L 221.428709 -304.072914 
L 223.111049 -304.808813 
L 224.793388 -306.643991 
L 226.475728 -310.975668 
L 228.158067 -317.765421 
L 229.840407 -327.265136 
L 231.522746 -337.708706 
L 233.205086 -347.659044 
L 234.887426 -355.665595 
L 236.569765 -361.382898 
L 238.252105 -365.334705 
L 239.934444 -368.208938 
L 241.616784 -369.768521 
L 243.299124 -370.234946 
L 244.981463 -369.990975 
L 246.663803 -369.159175 
L 248.346142 -368.441932 
L 250.028482 -367.960002 
L 251.710822 -368.456226 
L 253.393161 -369.161768 
L 255.075501 -369.559157 
L 256.75784 -368.853458 
L 258.44018 -366.205031 
L 260.122519 -361.310479 
L 261.804859 -354.912927 
L 263.487199 -348.042226 
L 265.169538 -341.646062 
L 266.851878 -336.693726 
L 268.534217 -333.406352 
L 270.216557 -332.104918 
L 271.898897 -333.025958 
L 273.581236 -335.719875 
L 275.263576 -339.140117 
L 276.945915 -342.314941 
L 278.628255 -344.283294 
L 280.310594 -344.815647 
L 281.992934 -344.319205 
L 283.675274 -343.004062 
L 285.357613 -342.442605 
L 287.039953 -343.588661 
L 288.722292 -346.592255 
L 290.404632 -351.146322 
L 292.086972 -355.869334 
L 293.769311 -359.457446 
L 295.451651 -361.613067 
L 297.13399 -362.671114 
L 298.81633 -362.815674 
L 300.498669 -362.871851 
L 302.181009 -364.015694 
L 303.863349 -366.222023 
L 305.545688 -369.85571 
L 307.228028 -373.886556 
L 308.910367 -377.404914 
L 310.592707 -380.142775 
L 312.275047 -381.804131 
L 313.957386 -382.838799 
L 315.639726 -384.617525 
L 317.322065 -388.069425 
L 319.004405 -392.860746 
L 320.686745 -397.915684 
L 322.369084 -401.767319 
L 324.051424 -403.795403 
L 325.733763 -403.879411 
L 327.416103 -402.579309 
L 329.098442 -400.385918 
L 330.780782 -398.112884 
L 332.463122 -396.649156 
L 334.145461 -395.844536 
L 335.827801 -395.727532 
L 337.51014 -395.45669 
L 339.19248 -394.539488 
L 340.87482 -393.087354 
L 342.557159 -391.782581 
L 344.239499 -391.050284 
L 345.921838 -391.442764 
L 347.604178 -393.273839 
L 349.286517 -395.904315 
L 350.968857 -397.850698 
L 352.651197 -398.300324 
L 354.333536 -396.147194 
L 356.015876 -392.050684 
L 357.698215 -386.78986 
L 359.380555 -382.161344 
L 361.062895 -378.822893 
L 362.745234 -376.782041 
L 364.427574 -375.31569 
L 366.109913 -372.502111 
L 367.792253 -367.36664 
L 369.474593 -360.346014 
L 371.156932 -352.506716 
L 372.839272 -344.745925 
L 374.521611 -338.931073 
L 376.203951 -335.25936 
L 377.88629 -333.351048 
L 379.56863 -331.48093 
L 381.25097 -329.204959 
L 382.933309 -325.214254 
L 384.615649 -320.02777 
L 386.297988 -314.560696 
L 387.980328 -310.003272 
L 389.662668 -306.836752 
L 391.345007 -305.632125 
L 393.027347 -305.843158 
L 394.709686 -306.636745 
L 396.392026 -306.993122 
L 398.074365 -306.415144 
L 399.756705 -303.782573 
L 401.439045 -299.153925 
L 403.121384 -293.330634 
L 404.803724 -287.490179 
L 406.486063 -282.725797 
L 408.168403 -279.941028 
L 409.850743 -278.678293 
L 411.533082 -277.97986 
L 413.215422 -276.569667 
L 414.897761 -273.608565 
L 416.580101 -269.649419 
L 418.26244 -265.808848 
L 419.94478 -263.506303 
L 421.62712 -263.176523 
L 423.309459 -264.333587 
L 424.991799 -265.718048 
L 426.674138 -266.469382 
L 428.356478 -265.489714 
L 430.038818 -263.422311 
L 431.721157 -260.706764 
L 433.403497 -258.467325 
L 435.085836 -256.679379 
L 436.768176 -255.185816 
L 438.450516 -254.354337 
L 440.132855 -253.689707 
L 441.815195 -253.576495 
L 443.497534 -253.693655 
L 445.179874 -253.212479 
L 446.862213 -251.859713 
L 448.544553 -249.026062 
L 450.226893 -245.793769 
L 451.909232 -242.799265 
L 453.591572 -240.908348 
L 455.273911 -239.864488 
L 456.956251 -239.085769 
L 458.638591 -237.208285 
L 460.32093 -233.836752 
L 462.00327 -229.199692 
L 463.685609 -224.536716 
L 465.367949 -221.109968 
L 467.050288 -219.272368 
L 468.732628 -218.76158 
L 470.414968 -218.87483 
L 472.097307 -219.350986 
L 473.779647 -219.184226 
L 475.461986 -217.971383 
L 477.144326 -215.946942 
L 478.826666 -213.058255 
L 480.509005 -209.09572 
L 482.191345 -204.597087 
L 483.873684 -200.14483 
L 485.556024 -196.492854 
L 487.238363 -194.398521 
L 488.920703 -193.291197 
L 490.603043 -192.038534 
L 492.285382 -190.21555 
L 493.967722 -188.112292 
L 495.650061 -186.305671 
L 497.332401 -186.349946 
L 499.014741 -188.480355 
L 500.69708 -191.298295 
L 502.37942 -192.51695 
L 504.061759 -190.802521 
L 505.744099 -186.042275 
L 507.426439 -179.637997 
L 509.108778 -174.462248 
L 510.791118 -172.883617 
L 512.473457 -174.711917 
L 514.155797 -178.332774 
L 515.838136 -181.010398 
L 517.520476 -181.193962 
L 519.202816 -179.140974 
L 520.885155 -175.497639 
L 522.567495 -172.418458 
L 524.249834 -170.653795 
L 525.932174 -170.015322 
L 527.614514 -169.610345 
L 529.296853 -168.96922 
L 530.979193 -168.61709 
L 532.661532 -168.928732 
L 534.343872 -169.897671 
L 536.026211 -171.181361 
L 537.708551 -171.400737 
L 539.390891 -169.565397 
L 541.07323 -165.861941 
L 542.75557 -161.196681 
L 544.437909 -157.358093 
L 546.120249 -155.191669 
L 547.802589 -154.979545 
L 549.484928 -154.687334 
L 551.167268 -152.995958 
L 552.849607 -149.491614 
L 554.531947 -145.567471 
L 556.214286 -142.989547 
L 557.896626 -143.342541 
L 559.578966 -146.057977 
L 561.261305 -149.402291 
L 561.261305 -159.509388 
L 561.261305 -159.509388 
L 559.578966 -156.12379 
L 557.896626 -153.413252 
L 556.214286 -153.198484 
L 554.531947 -155.799504 
L 552.849607 -159.91278 
L 551.167268 -163.5253 
L 549.484928 -165.335809 
L 547.802589 -165.558763 
L 546.120249 -165.847876 
L 544.437909 -167.519958 
L 542.75557 -170.752694 
L 541.07323 -174.729627 
L 539.390891 -178.266323 
L 537.708551 -180.033238 
L 536.026211 -179.892959 
L 534.343872 -178.862221 
L 532.661532 -177.9331 
L 530.979193 -177.79793 
L 529.296853 -178.163235 
L 527.614514 -178.695655 
L 525.932174 -179.240591 
L 524.249834 -180.04353 
L 522.567495 -181.992673 
L 520.885155 -185.152706 
L 519.202816 -188.646133 
L 517.520476 -191.038572 
L 515.838136 -190.760502 
L 514.155797 -188.026995 
L 512.473457 -184.842741 
L 510.791118 -182.941498 
L 509.108778 -184.698271 
L 507.426439 -189.642617 
L 505.744099 -195.99463 
L 504.061759 -201.069985 
L 502.37942 -202.974391 
L 500.69708 -201.884499 
L 499.014741 -198.909967 
L 497.332401 -196.771329 
L 495.650061 -196.554506 
L 493.967722 -197.883714 
L 492.285382 -199.863376 
L 490.603043 -201.519716 
L 488.920703 -202.773366 
L 487.238363 -203.979325 
L 485.556024 -206.575137 
L 483.873684 -210.631277 
L 482.191345 -215.645342 
L 480.509005 -220.289386 
L 478.826666 -223.865745 
L 477.144326 -226.410751 
L 475.461986 -228.088301 
L 473.779647 -229.487346 
L 472.097307 -230.07569 
L 470.414968 -230.020703 
L 468.732628 -229.886365 
L 467.050288 -230.31141 
L 465.367949 -231.952873 
L 463.685609 -235.196287 
L 462.00327 -239.911182 
L 460.32093 -244.739472 
L 458.638591 -248.379252 
L 456.956251 -250.547712 
L 455.273911 -251.79617 
L 453.591572 -252.765488 
L 451.909232 -254.398917 
L 450.226893 -256.966595 
L 448.544553 -260.398203 
L 446.862213 -263.559346 
L 445.179874 -265.202805 
L 443.497534 -265.662513 
L 441.815195 -265.522753 
L 440.132855 -265.372502 
L 438.450516 -265.770909 
L 436.768176 -266.768448 
L 435.085836 -268.10434 
L 433.403497 -270.052998 
L 431.721157 -272.576455 
L 430.038818 -275.34478 
L 428.356478 -277.646158 
L 426.674138 -278.598511 
L 424.991799 -278.004507 
L 423.309459 -276.355204 
L 421.62712 -275.167785 
L 419.94478 -275.419591 
L 418.26244 -277.507282 
L 416.580101 -280.94135 
L 414.897761 -284.770089 
L 413.215422 -287.602898 
L 411.533082 -289.013401 
L 409.850743 -289.679578 
L 408.168403 -290.956043 
L 406.486063 -293.792345 
L 404.803724 -298.474481 
L 403.121384 -304.218677 
L 401.439045 -309.910574 
L 399.756705 -314.440382 
L 398.074365 -316.968802 
L 396.392026 -317.886335 
L 394.709686 -317.706997 
L 393.027347 -317.168995 
L 391.345007 -316.951403 
L 389.662668 -318.064237 
L 387.980328 -321.184225 
L 386.297988 -326.000972 
L 384.615649 -331.638015 
L 382.933309 -337.006392 
L 381.25097 -340.948635 
L 379.56863 -343.478036 
L 377.88629 -345.558175 
L 376.203951 -347.95979 
L 374.521611 -351.611591 
L 372.839272 -357.310986 
L 371.156932 -364.874499 
L 369.474593 -373.054043 
L 367.792253 -380.249666 
L 366.109913 -385.238302 
L 364.427574 -387.996493 
L 362.745234 -389.543011 
L 361.062895 -391.480758 
L 359.380555 -394.735038 
L 357.698215 -399.323639 
L 356.015876 -404.695526 
L 354.333536 -408.957244 
L 352.651197 -410.919402 
L 350.968857 -410.324482 
L 349.286517 -407.804707 
L 347.604178 -404.828889 
L 345.921838 -402.924086 
L 344.239499 -402.524883 
L 342.557159 -403.205758 
L 340.87482 -404.500227 
L 339.19248 -406.143459 
L 337.51014 -407.186493 
L 335.827801 -407.43252 
L 334.145461 -407.435337 
L 332.463122 -407.618602 
L 330.780782 -408.621023 
L 329.098442 -410.22844 
L 327.416103 -412.099937 
L 325.733763 -413.598991 
L 324.051424 -413.881635 
L 322.369084 -412.09198 
L 320.686745 -408.192748 
L 319.004405 -403.164033 
L 317.322065 -398.090381 
L 315.639726 -394.474122 
L 313.957386 -392.669706 
L 312.275047 -391.862391 
L 310.592707 -390.648994 
L 308.910367 -387.920782 
L 307.228028 -384.129045 
L 305.545688 -380.11492 
L 303.863349 -376.457603 
L 302.181009 -373.923016 
L 300.498669 -372.728584 
L 298.81633 -372.463396 
L 297.13399 -372.253298 
L 295.451651 -371.460085 
L 293.769311 -369.340359 
L 292.086972 -365.924394 
L 290.404632 -361.601911 
L 288.722292 -357.167124 
L 287.039953 -354.303015 
L 285.357613 -353.213873 
L 283.675274 -353.560354 
L 281.992934 -354.259015 
L 280.310594 -354.369482 
L 278.628255 -353.414887 
L 276.945915 -351.069892 
L 275.263576 -347.560176 
L 273.581236 -343.921902 
L 271.898897 -341.131174 
L 270.216557 -339.850696 
L 268.534217 -341.096729 
L 266.851878 -344.474428 
L 265.169538 -349.581126 
L 263.487199 -356.222452 
L 261.804859 -363.230872 
L 260.122519 -369.790812 
L 258.44018 -374.712773 
L 256.75784 -377.483692 
L 255.075501 -378.419467 
L 253.393161 -378.183807 
L 251.710822 -377.633903 
L 250.028482 -377.284409 
L 248.346142 -377.682705 
L 246.663803 -378.31697 
L 244.981463 -378.982004 
L 243.299124 -379.190251 
L 241.616784 -378.662933 
L 239.934444 -376.961846 
L 238.252105 -374.229186 
L 236.569765 -370.357245 
L 234.887426 -364.66806 
L 233.205086 -356.504961 
L 231.522746 -346.630324 
L 229.840407 -336.188623 
L 228.158067 -326.860607 
L 226.475728 -320.406357 
L 224.793388 -316.020995 
L 223.111049 -313.902061 
L 221.428709 -312.977728 
L 219.746369 -312.723073 
L 218.06403 -312.656768 
L 216.38169 -312.198611 
L 214.699351 -310.689779 
L 213.017011 -308.275594 
L 211.334671 -304.884268 
L 209.652332 -301.125104 
L 207.969992 -297.312387 
L 206.287653 -294.644924 
L 204.605313 -293.993096 
L 202.922974 -295.635635 
L 201.240634 -299.407515 
L 199.558294 -304.551859 
L 197.875955 -310.294174 
L 196.193615 -316.529569 
L 194.511276 -322.905028 
L 192.828936 -329.861181 
L 191.146596 -336.603486 
L 189.464257 -344.034882 
L 187.781917 -348.518595 
L 186.099578 -346.499606 
L 184.417238 -339.256915 
L 182.734899 -329.204737 
L 181.052559 -320.180022 
L 179.370219 -313.871145 
L 177.68788 -309.793181 
L 176.00554 -305.338987 
L 174.323201 -298.060867 
L 172.640861 -286.138708 
L 170.958521 -270.519463 
L 169.276182 -255.160908 
L 167.593842 -242.435601 
L 165.911503 -233.642478 
L 164.229163 -228.01248 
L 162.546823 -223.32843 
L 160.864484 -218.044178 
L 159.182144 -212.547976 
L 157.499805 -208.16174 
L 155.817465 -205.998973 
L 154.135126 -206.637509 
L 152.452786 -209.111366 
L 150.770446 -211.165927 
L 149.088107 -212.295659 
L 147.405767 -212.294947 
L 145.723428 -211.145981 
L 144.041088 -210.125154 
L 142.358748 -210.128053 
L 140.676409 -211.038296 
L 138.994069 -212.05425 
L 137.31173 -212.476919 
L 135.62939 -212.250934 
L 133.947051 -212.229215 
L 132.264711 -213.295101 
L 130.582371 -215.982674 
L 128.900032 -218.629799 
L 127.217692 -220.072053 
L 125.535353 -220.908435 
L 123.853013 -221.929466 
L 122.170673 -223.43 
L 120.488334 -226.263926 
L 118.805994 -230.246482 
L 117.123655 -234.595982 
L 115.441315 -236.923238 
L 113.758976 -236.135539 
L 112.076636 -232.325531 
L 110.394296 -227.193813 
L 108.711957 -223.521605 
L 107.029617 -222.930458 
L 105.347278 -224.691723 
L 103.664938 -226.767247 
L 101.982598 -226.487554 
L 100.300259 -224.188386 
L 98.617919 -220.650224 
L 96.93558 -217.957858 
L 95.25324 -217.515733 
L 93.5709 -219.020841 
L 91.888561 -220.738099 
L 90.206221 -220.861881 
L 88.523882 -219.549145 
L 86.841542 -218.25564 
L 85.159203 -218.117437 
L 83.476863 -219.848578 
L 81.794523 -222.87725 
L 80.112184 -225.337995 
L 78.429844 -226.208801 
L 76.747505 -225.298735 
L 75.065165 -224.236568 
L 73.382825 -224.374974 
L 71.700486 -226.978514 
L 70.018146 -231.053203 
L 68.335807 -235.428928 
L 66.653467 -238.397602 
L 64.971128 -239.323643 
L 63.288788 -238.48041 
L 61.606448 -237.093903 
L 59.924109 -235.962559 
L 58.241769 -235.441354 
L 56.55943 -234.934372 
L 54.87709 -233.8089 
L 53.19475 -232.020403 
L 51.512411 -229.6832 
L 49.830071 -227.61987 
L 48.147732 -226.594529 
L 46.465392 -226.326889 
L 44.783052 -226.076641 
z
" style="stroke: #1f77b4; stroke-opacity: 0.3"/>
    </defs>
    <g>
     <use xlink:href="#mffd8fee278" x="0" y="432" style="fill: #1f77b4; fill-opacity: 0.3; stroke: #1f77b4; stroke-opacity: 0.3"/>
    </g>
   </g>
   <g id="FillBetweenPolyCollection_2">
    <defs>
     <path id="mee867250cd" d="M 44.783052 -250.521273 
L 44.783052 -243.787825 
L 46.465392 -240.011325 
L 48.147732 -236.76182 
L 49.830071 -234.483648 
L 51.512411 -232.445567 
L 53.19475 -230.769394 
L 54.87709 -228.407106 
L 56.55943 -225.382538 
L 58.241769 -222.23989 
L 59.924109 -219.744162 
L 61.606448 -218.038939 
L 63.288788 -217.265597 
L 64.971128 -217.277296 
L 66.653467 -217.537505 
L 68.335807 -218.14016 
L 70.018146 -218.83617 
L 71.700486 -219.357347 
L 73.382825 -219.71999 
L 75.065165 -219.499563 
L 76.747505 -219.448994 
L 78.429844 -219.693806 
L 80.112184 -220.579921 
L 81.794523 -222.864546 
L 83.476863 -226.518095 
L 85.159203 -230.392366 
L 86.841542 -233.61957 
L 88.523882 -235.224633 
L 90.206221 -234.257599 
L 91.888561 -230.711462 
L 93.5709 -225.907761 
L 95.25324 -221.155548 
L 96.93558 -217.950707 
L 98.617919 -216.959457 
L 100.300259 -217.281304 
L 101.982598 -218.293411 
L 103.664938 -218.721427 
L 105.347278 -217.947166 
L 107.029617 -216.284498 
L 108.711957 -214.134041 
L 110.394296 -212.059649 
L 112.076636 -210.521115 
L 113.758976 -209.752619 
L 115.441315 -209.946586 
L 117.123655 -211.351368 
L 118.805994 -212.758302 
L 120.488334 -214.008506 
L 122.170673 -215.25535 
L 123.853013 -216.03022 
L 125.535353 -216.463026 
L 127.217692 -216.745818 
L 128.900032 -216.625851 
L 130.582371 -215.785715 
L 132.264711 -213.822708 
L 133.947051 -210.914328 
L 135.62939 -207.554507 
L 137.31173 -204.947334 
L 138.994069 -203.471511 
L 140.676409 -203.313118 
L 142.358748 -203.618971 
L 144.041088 -203.158021 
L 145.723428 -201.578573 
L 147.405767 -199.099951 
L 149.088107 -196.905803 
L 150.770446 -196.255255 
L 152.452786 -197.388073 
L 154.135126 -199.798945 
L 155.817465 -202.371741 
L 157.499805 -203.985139 
L 159.182144 -204.821664 
L 160.864484 -205.314976 
L 162.546823 -206.607822 
L 164.229163 -209.557993 
L 165.911503 -214.935055 
L 167.593842 -224.247517 
L 169.276182 -237.071239 
L 170.958521 -251.028902 
L 172.640861 -265.634981 
L 174.323201 -280.166135 
L 176.00554 -293.435112 
L 177.68788 -304.214512 
L 179.370219 -312.636251 
L 181.052559 -319.352938 
L 182.734899 -325.817761 
L 184.417238 -332.8657 
L 186.099578 -340.358184 
L 187.781917 -346.848951 
L 189.464257 -349.251147 
L 191.146596 -346.969241 
L 192.828936 -342.537086 
L 194.511276 -336.753512 
L 196.193615 -328.724419 
L 197.875955 -318.833551 
L 199.558294 -308.993126 
L 201.240634 -301.464069 
L 202.922974 -297.861427 
L 204.605313 -298.093847 
L 206.287653 -300.961059 
L 207.969992 -304.457333 
L 209.652332 -306.926571 
L 211.334671 -307.654117 
L 213.017011 -307.232563 
L 214.699351 -306.749804 
L 216.38169 -307.080957 
L 218.06403 -308.421946 
L 219.746369 -310.789922 
L 221.428709 -315.480123 
L 223.111049 -322.047811 
L 224.793388 -327.908112 
L 226.475728 -333.974371 
L 228.158067 -339.863566 
L 229.840407 -345.637536 
L 231.522746 -350.666046 
L 233.205086 -354.534667 
L 234.887426 -357.162138 
L 236.569765 -359.446658 
L 238.252105 -361.953803 
L 239.934444 -364.327817 
L 241.616784 -366.030216 
L 243.299124 -365.914749 
L 244.981463 -363.257546 
L 246.663803 -359.993426 
L 248.346142 -357.211086 
L 250.028482 -355.430903 
L 251.710822 -354.20232 
L 253.393161 -352.782937 
L 255.075501 -352.065695 
L 256.75784 -351.193897 
L 258.44018 -349.671274 
L 260.122519 -347.316508 
L 261.804859 -344.092643 
L 263.487199 -340.453833 
L 265.169538 -337.348746 
L 266.851878 -335.403057 
L 268.534217 -334.470149 
L 270.216557 -334.214337 
L 271.898897 -334.893378 
L 273.581236 -335.935401 
L 275.263576 -336.765907 
L 276.945915 -337.30589 
L 278.628255 -338.271784 
L 280.310594 -340.02629 
L 281.992934 -342.549653 
L 283.675274 -345.324333 
L 285.357613 -347.455724 
L 287.039953 -348.677492 
L 288.722292 -349.05397 
L 290.404632 -349.208476 
L 292.086972 -349.505831 
L 293.769311 -349.759872 
L 295.451651 -350.55287 
L 297.13399 -351.868724 
L 298.81633 -354.367682 
L 300.498669 -358.097124 
L 302.181009 -362.961186 
L 303.863349 -367.904 
L 305.545688 -371.846829 
L 307.228028 -373.761721 
L 308.910367 -373.765809 
L 310.592707 -371.842691 
L 312.275047 -368.879135 
L 313.957386 -366.055672 
L 315.639726 -363.769454 
L 317.322065 -361.995547 
L 319.004405 -360.437178 
L 320.686745 -359.444636 
L 322.369084 -359.168122 
L 324.051424 -358.76602 
L 325.733763 -357.904308 
L 327.416103 -356.743079 
L 329.098442 -355.264518 
L 330.780782 -354.437776 
L 332.463122 -355.050168 
L 334.145461 -357.15101 
L 335.827801 -359.559425 
L 337.51014 -361.227494 
L 339.19248 -361.484983 
L 340.87482 -361.313494 
L 342.557159 -361.458801 
L 344.239499 -362.89647 
L 345.921838 -365.650021 
L 347.604178 -368.671716 
L 349.286517 -370.837368 
L 350.968857 -371.356313 
L 352.651197 -370.620113 
L 354.333536 -369.139591 
L 356.015876 -367.771094 
L 357.698215 -367.205302 
L 359.380555 -367.003714 
L 361.062895 -366.512035 
L 362.745234 -365.22659 
L 364.427574 -362.829495 
L 366.109913 -359.8534 
L 367.792253 -356.712287 
L 369.474593 -353.841689 
L 371.156932 -351.136345 
L 372.839272 -348.68094 
L 374.521611 -345.768982 
L 376.203951 -342.256603 
L 377.88629 -337.854795 
L 379.56863 -333.010261 
L 381.25097 -328.376958 
L 382.933309 -324.626148 
L 384.615649 -321.658719 
L 386.297988 -318.77507 
L 387.980328 -314.953918 
L 389.662668 -310.113451 
L 391.345007 -304.743284 
L 393.027347 -299.896192 
L 394.709686 -296.737033 
L 396.392026 -295.667217 
L 398.074365 -295.858368 
L 399.756705 -295.783143 
L 401.439045 -293.841397 
L 403.121384 -290.324646 
L 404.803724 -286.034927 
L 406.486063 -282.977543 
L 408.168403 -281.933995 
L 409.850743 -282.114963 
L 411.533082 -281.933343 
L 413.215422 -279.762982 
L 414.897761 -275.360049 
L 416.580101 -270.31577 
L 418.26244 -266.251188 
L 419.94478 -264.001578 
L 421.62712 -263.004573 
L 423.309459 -261.978319 
L 424.991799 -259.664735 
L 426.674138 -255.834545 
L 428.356478 -252.177984 
L 430.038818 -250.21088 
L 431.721157 -250.829657 
L 433.403497 -253.620577 
L 435.085836 -256.916309 
L 436.768176 -259.171366 
L 438.450516 -259.772348 
L 440.132855 -258.398546 
L 441.815195 -255.934675 
L 443.497534 -252.840936 
L 445.179874 -249.881818 
L 446.862213 -247.407483 
L 448.544553 -244.764514 
L 450.226893 -242.695755 
L 451.909232 -241.14454 
L 453.591572 -239.822407 
L 455.273911 -238.80794 
L 456.956251 -238.045414 
L 458.638591 -237.404421 
L 460.32093 -236.88601 
L 462.00327 -236.748877 
L 463.685609 -236.876193 
L 465.367949 -237.044013 
L 467.050288 -237.039922 
L 468.732628 -236.779937 
L 470.414968 -236.23551 
L 472.097307 -235.169461 
L 473.779647 -234.087235 
L 475.461986 -233.22066 
L 477.144326 -232.962129 
L 478.826666 -233.574338 
L 480.509005 -234.397053 
L 482.191345 -234.755283 
L 483.873684 -233.96141 
L 485.556024 -231.299109 
L 487.238363 -227.079493 
L 488.920703 -221.902744 
L 490.603043 -217.309138 
L 492.285382 -214.511139 
L 493.967722 -213.905344 
L 495.650061 -214.164706 
L 497.332401 -214.071184 
L 499.014741 -212.964049 
L 500.69708 -211.324363 
L 502.37942 -210.083039 
L 504.061759 -210.454658 
L 505.744099 -212.137357 
L 507.426439 -214.702796 
L 509.108778 -216.738885 
L 510.791118 -217.309948 
L 512.473457 -216.714765 
L 514.155797 -216.268124 
L 515.838136 -216.099497 
L 517.520476 -216.867392 
L 519.202816 -218.209814 
L 520.885155 -218.945118 
L 522.567495 -218.439383 
L 524.249834 -216.807253 
L 525.932174 -214.951508 
L 527.614514 -213.083079 
L 529.296853 -211.435356 
L 530.979193 -209.530483 
L 532.661532 -207.454917 
L 534.343872 -204.990777 
L 536.026211 -202.432786 
L 537.708551 -200.456244 
L 539.390891 -198.878473 
L 541.07323 -197.457703 
L 542.75557 -195.661351 
L 544.437909 -193.631331 
L 546.120249 -191.26997 
L 547.802589 -190.474622 
L 549.484928 -191.087245 
L 551.167268 -193.094169 
L 552.849607 -195.235568 
L 554.531947 -196.244113 
L 556.214286 -194.585085 
L 557.896626 -191.202655 
L 559.578966 -187.341093 
L 561.261305 -184.433844 
L 561.261305 -192.765599 
L 561.261305 -192.765599 
L 559.578966 -195.54221 
L 557.896626 -199.465935 
L 556.214286 -203.07998 
L 554.531947 -204.608675 
L 552.849607 -203.636444 
L 551.167268 -201.395348 
L 549.484928 -199.251722 
L 547.802589 -198.516827 
L 546.120249 -199.496862 
L 544.437909 -201.618947 
L 542.75557 -203.80545 
L 541.07323 -205.691686 
L 539.390891 -207.112043 
L 537.708551 -208.692585 
L 536.026211 -210.747139 
L 534.343872 -213.131671 
L 532.661532 -215.603529 
L 530.979193 -217.719342 
L 529.296853 -219.521097 
L 527.614514 -221.209819 
L 525.932174 -223.321907 
L 524.249834 -225.352661 
L 522.567495 -227.04955 
L 520.885155 -227.457509 
L 519.202816 -226.643184 
L 517.520476 -225.371572 
L 515.838136 -224.782137 
L 514.155797 -224.845757 
L 512.473457 -225.397634 
L 510.791118 -225.698763 
L 509.108778 -224.736096 
L 507.426439 -222.426553 
L 505.744099 -219.796106 
L 504.061759 -218.22161 
L 502.37942 -218.106717 
L 500.69708 -219.424394 
L 499.014741 -221.118216 
L 497.332401 -221.81322 
L 495.650061 -221.584611 
L 493.967722 -221.416129 
L 492.285382 -222.229886 
L 490.603043 -225.518904 
L 488.920703 -230.415113 
L 487.238363 -235.854382 
L 485.556024 -240.028315 
L 483.873684 -242.456823 
L 482.191345 -243.083704 
L 480.509005 -242.688413 
L 478.826666 -241.951875 
L 477.144326 -241.237281 
L 475.461986 -241.467826 
L 473.779647 -242.094648 
L 472.097307 -243.117119 
L 470.414968 -244.008626 
L 468.732628 -244.472017 
L 467.050288 -245.125821 
L 465.367949 -245.378386 
L 463.685609 -245.317903 
L 462.00327 -245.232102 
L 460.32093 -245.203424 
L 458.638591 -245.772387 
L 456.956251 -246.461023 
L 455.273911 -247.258565 
L 453.591572 -248.24483 
L 451.909232 -249.62901 
L 450.226893 -251.322509 
L 448.544553 -253.629608 
L 446.862213 -256.359294 
L 445.179874 -259.004862 
L 443.497534 -261.900004 
L 441.815195 -264.624052 
L 440.132855 -267.135887 
L 438.450516 -268.505772 
L 436.768176 -268.047373 
L 435.085836 -265.868528 
L 433.403497 -262.617687 
L 431.721157 -260.02761 
L 430.038818 -259.518002 
L 428.356478 -261.562526 
L 426.674138 -265.124828 
L 424.991799 -268.629036 
L 423.309459 -270.66893 
L 421.62712 -271.45921 
L 419.94478 -272.245318 
L 418.26244 -274.596384 
L 416.580101 -278.789295 
L 414.897761 -284.074005 
L 413.215422 -288.506307 
L 411.533082 -290.855254 
L 409.850743 -291.058953 
L 408.168403 -290.720593 
L 406.486063 -291.705261 
L 404.803724 -294.55495 
L 403.121384 -298.470752 
L 401.439045 -301.860065 
L 399.756705 -303.785839 
L 398.074365 -304.032059 
L 396.392026 -303.950813 
L 394.709686 -304.935733 
L 393.027347 -307.806005 
L 391.345007 -312.618193 
L 389.662668 -318.096086 
L 387.980328 -323.097103 
L 386.297988 -327.217705 
L 384.615649 -330.368077 
L 382.933309 -333.427838 
L 381.25097 -336.970996 
L 379.56863 -341.273122 
L 377.88629 -345.98186 
L 376.203951 -350.358949 
L 374.521611 -353.994463 
L 372.839272 -357.105884 
L 371.156932 -359.651488 
L 369.474593 -362.288987 
L 367.792253 -365.204866 
L 366.109913 -368.296051 
L 364.427574 -371.108842 
L 362.745234 -373.40378 
L 361.062895 -374.712632 
L 359.380555 -375.203464 
L 357.698215 -375.547901 
L 356.015876 -376.075425 
L 354.333536 -377.489443 
L 352.651197 -379.130683 
L 350.968857 -380.119509 
L 349.286517 -379.657515 
L 347.604178 -377.668539 
L 345.921838 -374.747992 
L 344.239499 -372.005795 
L 342.557159 -370.593155 
L 340.87482 -370.172375 
L 339.19248 -370.217274 
L 337.51014 -369.662208 
L 335.827801 -367.637575 
L 334.145461 -365.323924 
L 332.463122 -363.350754 
L 330.780782 -362.941398 
L 329.098442 -363.875034 
L 327.416103 -365.382299 
L 325.733763 -366.653052 
L 324.051424 -367.368653 
L 322.369084 -368.003941 
L 320.686745 -368.622162 
L 319.004405 -369.790952 
L 317.322065 -371.10227 
L 315.639726 -372.738741 
L 313.957386 -374.957039 
L 312.275047 -377.945116 
L 310.592707 -380.893521 
L 308.910367 -382.752909 
L 307.228028 -382.961563 
L 305.545688 -381.051762 
L 303.863349 -377.143198 
L 302.181009 -372.187915 
L 300.498669 -367.312187 
L 298.81633 -363.16142 
L 297.13399 -360.54967 
L 295.451651 -359.048618 
L 293.769311 -358.255827 
L 292.086972 -357.89957 
L 290.404632 -357.721242 
L 288.722292 -357.773239 
L 287.039953 -357.371347 
L 285.357613 -356.090549 
L 283.675274 -353.808882 
L 281.992934 -350.852662 
L 280.310594 -348.118525 
L 278.628255 -346.127033 
L 276.945915 -345.162517 
L 275.263576 -344.469416 
L 273.581236 -343.440944 
L 271.898897 -342.032984 
L 270.216557 -340.934596 
L 268.534217 -340.930593 
L 266.851878 -341.734491 
L 265.169538 -343.679216 
L 263.487199 -346.852925 
L 261.804859 -350.629039 
L 260.122519 -354.146585 
L 258.44018 -356.771829 
L 256.75784 -358.695658 
L 255.075501 -359.569817 
L 253.393161 -360.298799 
L 251.710822 -361.66812 
L 250.028482 -363.086517 
L 248.346142 -364.926852 
L 246.663803 -367.756662 
L 244.981463 -370.769385 
L 243.299124 -373.435959 
L 241.616784 -373.38968 
L 239.934444 -371.728005 
L 238.252105 -369.491909 
L 236.569765 -367.2618 
L 234.887426 -365.295745 
L 233.205086 -362.711554 
L 231.522746 -358.976842 
L 229.840407 -353.821403 
L 228.158067 -347.752985 
L 226.475728 -341.608428 
L 224.793388 -335.411523 
L 223.111049 -329.406866 
L 221.428709 -323.099678 
L 219.746369 -318.774146 
L 218.06403 -316.506117 
L 216.38169 -315.086425 
L 214.699351 -314.652036 
L 213.017011 -314.932258 
L 211.334671 -315.251673 
L 209.652332 -314.290407 
L 207.969992 -311.649439 
L 206.287653 -308.010631 
L 204.605313 -304.971811 
L 202.922974 -304.819608 
L 201.240634 -308.732251 
L 199.558294 -316.48043 
L 197.875955 -326.437205 
L 196.193615 -336.487445 
L 194.511276 -344.598254 
L 192.828936 -350.11329 
L 191.146596 -354.576584 
L 189.464257 -356.476539 
L 187.781917 -353.840625 
L 186.099578 -347.490326 
L 184.417238 -340.235741 
L 182.734899 -333.257452 
L 181.052559 -326.906921 
L 179.370219 -320.01407 
L 177.68788 -311.405495 
L 176.00554 -300.355495 
L 174.323201 -286.984963 
L 172.640861 -272.309232 
L 170.958521 -257.698378 
L 169.276182 -243.815798 
L 167.593842 -230.965299 
L 165.911503 -221.841183 
L 164.229163 -216.351649 
L 162.546823 -213.651604 
L 160.864484 -212.208946 
L 159.182144 -211.432994 
L 157.499805 -210.477752 
L 155.817465 -208.779221 
L 154.135126 -206.162604 
L 152.452786 -203.814534 
L 150.770446 -202.888472 
L 149.088107 -203.766677 
L 147.405767 -205.892482 
L 145.723428 -208.424549 
L 144.041088 -210.110588 
L 142.358748 -210.454073 
L 140.676409 -210.071114 
L 138.994069 -210.256796 
L 137.31173 -211.499687 
L 135.62939 -213.911462 
L 133.947051 -216.898176 
L 132.264711 -219.532373 
L 130.582371 -221.127731 
L 128.900032 -222.011153 
L 127.217692 -221.828768 
L 125.535353 -221.328266 
L 123.853013 -220.964598 
L 122.170673 -220.240793 
L 120.488334 -219.152973 
L 118.805994 -217.931504 
L 117.123655 -216.415013 
L 115.441315 -215.216708 
L 113.758976 -215.160746 
L 112.076636 -215.897307 
L 110.394296 -217.295534 
L 108.711957 -219.110051 
L 107.029617 -221.188522 
L 105.347278 -222.683264 
L 103.664938 -223.326138 
L 101.982598 -222.969416 
L 100.300259 -222.036893 
L 98.617919 -221.693032 
L 96.93558 -222.832281 
L 95.25324 -225.89195 
L 93.5709 -230.432583 
L 91.888561 -235.231915 
L 90.206221 -238.777922 
L 88.523882 -239.926815 
L 86.841542 -238.377589 
L 85.159203 -235.1253 
L 83.476863 -231.057692 
L 81.794523 -227.40261 
L 80.112184 -225.148988 
L 78.429844 -224.388995 
L 76.747505 -224.185044 
L 75.065165 -224.374424 
L 73.382825 -224.525142 
L 71.700486 -224.212115 
L 70.018146 -223.771649 
L 68.335807 -223.302579 
L 66.653467 -222.873066 
L 64.971128 -222.799936 
L 63.288788 -223.063614 
L 61.606448 -224.132404 
L 59.924109 -225.800149 
L 58.241769 -228.22555 
L 56.55943 -231.105913 
L 54.87709 -234.212515 
L 53.19475 -236.825968 
L 51.512411 -238.667211 
L 49.830071 -240.542517 
L 48.147732 -243.038537 
L 46.465392 -246.511086 
L 44.783052 -250.521273 
z
" style="stroke: #ff7f0e; stroke-opacity: 0.3"/>
    </defs>
    <g>
     <use xlink:href="#mee867250cd" x="0" y="432" style="fill: #ff7f0e; fill-opacity: 0.3; stroke: #ff7f0e; stroke-opacity: 0.3"/>
    </g>
   </g>
   <g id="line2d_17">
    <path d="M 44.783052 209.462565 
L 48.147732 209.348722 
L 49.830071 208.293308 
L 51.512411 206.119766 
L 53.19475 203.53785 
L 54.87709 201.622799 
L 56.55943 200.368555 
L 58.241769 199.839596 
L 59.924109 199.451907 
L 61.606448 198.553908 
L 63.288788 197.314827 
L 64.971128 196.433305 
L 66.653467 197.069432 
L 68.335807 199.798554 
L 71.700486 208.379819 
L 73.382825 210.835829 
L 75.065165 210.870905 
L 76.747505 209.58894 
L 78.429844 208.683218 
L 80.112184 209.577995 
L 81.794523 212.157048 
L 83.476863 215.215969 
L 85.159203 216.944041 
L 86.841542 216.84515 
L 90.206221 214.280503 
L 91.888561 214.56109 
L 93.5709 216.133231 
L 95.25324 217.499855 
L 96.93558 216.88259 
L 98.617919 214.144382 
L 100.300259 210.590856 
L 101.982598 208.312654 
L 103.664938 208.075729 
L 107.029617 211.877111 
L 108.711957 211.41129 
L 110.394296 207.83312 
L 112.076636 202.799891 
L 113.758976 198.970398 
L 115.441315 198.106321 
L 117.123655 200.442284 
L 118.805994 204.872718 
L 120.488334 208.927121 
L 122.170673 211.721969 
L 123.853013 213.17598 
L 127.217692 215.037281 
L 128.900032 216.728293 
L 132.264711 222.122058 
L 133.947051 223.353553 
L 135.62939 223.487317 
L 137.31173 223.393566 
L 138.994069 223.829982 
L 140.676409 224.861808 
L 142.358748 225.646535 
L 144.041088 225.588253 
L 147.405767 223.604641 
L 149.088107 223.551522 
L 150.770446 224.589004 
L 152.452786 226.716931 
L 154.135126 229.108862 
L 155.817465 229.897755 
L 157.499805 227.862104 
L 159.182144 223.338322 
L 162.546823 212.660576 
L 164.229163 207.957328 
L 165.911503 202.249582 
L 167.593842 193.576045 
L 169.276182 181.078272 
L 172.640861 150.4474 
L 174.323201 138.482648 
L 176.00554 131.161654 
L 179.370219 122.655631 
L 181.052559 116.296339 
L 182.734899 107.217401 
L 184.417238 97.194543 
L 186.099578 89.879919 
L 187.781917 87.88859 
L 189.464257 92.193453 
L 191.146596 99.625782 
L 196.193615 119.737107 
L 197.875955 125.941552 
L 199.558294 131.702943 
L 201.240634 136.901266 
L 202.922974 140.733737 
L 204.605313 142.455631 
L 206.287653 141.794543 
L 207.969992 139.075097 
L 213.017011 128.068172 
L 214.699351 125.592989 
L 216.38169 124.071407 
L 218.06403 123.573932 
L 219.746369 123.573697 
L 221.428709 123.430393 
L 223.111049 122.52694 
L 224.793388 120.545145 
L 226.475728 116.252563 
L 228.158067 109.665931 
L 229.840407 100.282665 
L 233.205086 79.944102 
L 234.887426 71.771316 
L 236.569765 66.06415 
L 238.252105 62.179256 
L 239.934444 59.423924 
L 241.616784 57.699045 
L 243.299124 57.24686 
L 244.981463 57.450605 
L 248.346142 58.89346 
L 250.028482 59.293094 
L 251.710822 58.964412 
L 253.393161 58.348303 
L 255.075501 57.970017 
L 256.75784 58.787169 
L 258.44018 61.538113 
L 260.122519 66.423128 
L 261.804859 72.893426 
L 263.487199 79.835789 
L 265.169538 86.293204 
L 266.851878 91.342472 
L 268.534217 94.675664 
L 270.216557 96.001803 
L 271.898897 94.996557 
L 273.581236 92.230669 
L 276.945915 85.325022 
L 278.628255 83.07773 
L 280.310594 82.348272 
L 281.992934 82.684016 
L 283.675274 83.71577 
L 285.357613 84.226021 
L 287.039953 83.077499 
L 288.722292 80.130702 
L 292.086972 71.048778 
L 293.769311 67.518205 
L 295.451651 65.369214 
L 297.13399 64.455714 
L 300.498669 64.016632 
L 302.181009 63.00437 
L 303.863349 60.662347 
L 305.545688 56.943494 
L 307.228028 52.82352 
L 308.910367 49.159113 
L 310.592707 46.499725 
L 312.275047 45.125831 
L 313.957386 44.242521 
L 315.639726 42.448181 
L 317.322065 38.890573 
L 320.686745 28.845027 
L 322.369084 24.919078 
L 324.051424 23.080116 
L 325.733763 23.268724 
L 327.416103 24.690998 
L 330.780782 28.700691 
L 332.463122 29.977011 
L 334.145461 30.481987 
L 335.827801 30.511009 
L 337.51014 30.6736 
L 339.19248 31.60245 
L 342.557159 34.502623 
L 344.239499 35.327864 
L 345.921838 34.806523 
L 347.604178 32.834922 
L 349.286517 30.020375 
L 350.968857 27.723709 
L 352.651197 27.230717 
L 354.333536 29.30188 
L 356.015876 33.582787 
L 357.698215 38.889408 
L 359.380555 43.551511 
L 361.062895 46.756929 
L 362.745234 48.632795 
L 364.427574 50.233416 
L 366.109913 53.05558 
L 367.792253 58.083166 
L 369.474593 65.194358 
L 372.839272 80.912185 
L 374.521611 86.730117 
L 376.203951 90.411409 
L 377.88629 92.558343 
L 379.56863 94.33468 
L 381.25097 96.848599 
L 382.933309 100.789707 
L 387.980328 116.199705 
L 389.662668 119.190145 
L 391.345007 120.373141 
L 393.027347 120.255416 
L 394.709686 119.625039 
L 396.392026 119.303762 
L 398.074365 120.173731 
L 399.756705 122.786324 
L 401.439045 127.284538 
L 404.803724 138.842791 
L 406.486063 143.56156 
L 408.168403 146.449397 
L 409.850743 147.718349 
L 411.533082 148.368247 
L 413.215422 149.737175 
L 414.897761 152.674863 
L 416.580101 156.550275 
L 418.26244 160.119461 
L 419.94478 162.34924 
L 421.62712 162.612919 
L 423.309459 161.385841 
L 424.991799 159.851797 
L 426.674138 159.271454 
L 428.356478 160.340698 
L 430.038818 162.667239 
L 431.721157 165.311426 
L 433.403497 167.681382 
L 435.085836 169.586212 
L 436.768176 171.02275 
L 438.450516 172.01405 
L 440.132855 172.530734 
L 441.815195 172.573056 
L 443.497534 172.473619 
L 445.179874 172.883122 
L 446.862213 174.419964 
L 448.544553 177.254341 
L 450.226893 180.617535 
L 451.909232 183.417426 
L 453.591572 185.197628 
L 456.956251 187.118122 
L 458.638591 189.202295 
L 460.32093 192.759275 
L 463.685609 202.12384 
L 465.367949 205.556641 
L 467.050288 207.245265 
L 468.732628 207.634636 
L 472.097307 207.252943 
L 473.779647 207.648188 
L 475.461986 208.90994 
L 477.144326 210.836502 
L 478.826666 213.520816 
L 480.509005 217.113892 
L 483.873684 226.458368 
L 485.556024 230.298607 
L 487.238363 232.680575 
L 490.603043 235.141303 
L 492.285382 236.884255 
L 493.967722 239.01552 
L 495.650061 240.606258 
L 497.332401 240.430176 
L 499.014741 238.230553 
L 500.69708 235.39123 
L 502.37942 234.184759 
L 504.061759 236.074194 
L 505.744099 241.052172 
L 507.426439 247.358131 
L 509.108778 252.461332 
L 510.791118 254.002046 
L 512.473457 252.249574 
L 514.155797 248.913806 
L 515.838136 246.089568 
L 517.520476 245.77 
L 519.202816 247.998752 
L 520.885155 251.520343 
L 522.567495 254.69371 
L 524.249834 256.601378 
L 525.932174 257.349396 
L 527.614514 257.712933 
L 529.296853 258.343933 
L 530.979193 258.80095 
L 532.661532 258.582707 
L 534.343872 257.647057 
L 536.026211 256.451222 
L 537.708551 256.316955 
L 539.390891 258.093487 
L 541.07323 261.716571 
L 542.75557 266.075654 
L 544.437909 269.673984 
L 546.120249 271.521593 
L 549.484928 271.936154 
L 551.167268 273.658196 
L 552.849607 277.124909 
L 554.531947 281.165968 
L 556.214286 283.795612 
L 557.896626 283.592921 
L 559.578966 280.857227 
L 561.261305 277.389529 
L 561.261305 277.389529 
" style="fill: none; stroke: #1f77b4; stroke-width: 1.5; stroke-linecap: square"/>
   </g>
   <g id="line2d_18">
    <path d="M 44.783052 184.775055 
L 46.465392 188.640394 
L 48.147732 192.004748 
L 49.830071 194.47162 
L 53.19475 198.281413 
L 54.87709 200.668666 
L 58.241769 206.692339 
L 59.924109 209.12538 
L 61.606448 210.861148 
L 63.288788 211.816286 
L 64.971128 211.987753 
L 66.653467 211.842075 
L 71.700486 210.241057 
L 73.382825 209.901989 
L 76.747505 210.271089 
L 78.429844 210.094361 
L 80.112184 209.190432 
L 81.794523 206.876745 
L 83.476863 203.223284 
L 85.159203 199.20591 
L 86.841542 195.987609 
L 88.523882 194.413293 
L 90.206221 195.431141 
L 91.888561 199.02718 
L 95.25324 208.460676 
L 96.93558 211.556294 
L 98.617919 212.603616 
L 100.300259 212.261046 
L 101.982598 211.324281 
L 103.664938 210.914236 
L 105.347278 211.629531 
L 107.029617 213.21331 
L 110.394296 217.334732 
L 112.076636 218.803401 
L 113.758976 219.574417 
L 115.441315 219.414599 
L 117.123655 218.20324 
L 118.805994 216.720367 
L 122.170673 214.322706 
L 123.853013 213.553149 
L 127.217692 212.666647 
L 128.900032 212.632201 
L 130.582371 213.530163 
L 132.264711 215.335892 
L 133.947051 218.168333 
L 135.62939 221.329892 
L 137.31173 223.876769 
L 138.994069 225.204368 
L 140.676409 225.327506 
L 142.358748 224.975888 
L 144.041088 225.311694 
L 145.723428 226.941246 
L 147.405767 229.433615 
L 149.088107 231.612625 
L 150.770446 232.487683 
L 152.452786 231.515721 
L 154.135126 229.095732 
L 155.817465 226.439268 
L 157.499805 224.737115 
L 159.182144 223.826922 
L 160.864484 223.153956 
L 162.546823 221.845576 
L 164.229163 219.051866 
L 165.911503 213.690004 
L 167.593842 204.443223 
L 169.276182 191.665964 
L 172.640861 163.172019 
L 174.323201 148.575852 
L 176.00554 135.279596 
L 177.68788 124.279716 
L 179.370219 115.760721 
L 184.417238 95.413041 
L 186.099578 88.012029 
L 187.781917 81.566882 
L 189.464257 79.034386 
L 191.146596 81.080006 
L 192.828936 85.652965 
L 194.511276 91.266491 
L 196.193615 99.376065 
L 199.558294 119.278388 
L 201.240634 126.864951 
L 202.922974 130.616362 
L 204.605313 130.392494 
L 206.287653 127.490499 
L 207.969992 123.928687 
L 209.652332 121.40558 
L 211.334671 120.561176 
L 214.699351 121.202683 
L 216.38169 120.829645 
L 218.06403 119.465248 
L 219.746369 117.095971 
L 221.428709 112.602511 
L 223.111049 106.212621 
L 226.475728 94.252738 
L 229.840407 82.186248 
L 231.522746 77.115232 
L 233.205086 73.440348 
L 234.887426 70.862322 
L 238.252105 66.326473 
L 239.934444 63.958167 
L 241.616784 62.238035 
L 243.299124 62.255427 
L 244.981463 64.916901 
L 246.663803 68.148584 
L 248.346142 70.957585 
L 250.028482 72.687816 
L 253.393161 75.27349 
L 255.075501 76.060373 
L 256.75784 76.998133 
L 258.44018 78.702866 
L 260.122519 81.324337 
L 261.804859 84.700866 
L 263.487199 88.371172 
L 265.169538 91.474663 
L 266.851878 93.411399 
L 268.534217 94.278999 
L 270.216557 94.365238 
L 271.898897 93.467011 
L 273.581236 92.205738 
L 275.263576 91.365037 
L 276.945915 90.796169 
L 278.628255 89.882586 
L 280.310594 88.002103 
L 281.992934 85.390365 
L 283.675274 82.570652 
L 285.357613 80.373026 
L 287.039953 79.068004 
L 288.722292 78.667404 
L 290.404632 78.605466 
L 292.086972 78.366723 
L 293.769311 77.98468 
L 295.451651 77.247825 
L 297.13399 75.843905 
L 298.81633 73.280434 
L 300.498669 69.344474 
L 303.863349 59.571224 
L 305.545688 55.705436 
L 307.228028 53.755337 
L 308.910367 53.837248 
L 310.592707 55.630964 
L 313.957386 61.389259 
L 315.639726 63.646203 
L 317.322065 65.426413 
L 319.004405 66.891896 
L 320.686745 67.961555 
L 324.051424 68.935662 
L 325.733763 69.662287 
L 327.416103 70.93375 
L 329.098442 72.431048 
L 330.780782 73.246507 
L 332.463122 72.683701 
L 334.145461 70.725625 
L 335.827801 68.375747 
L 337.51014 66.644579 
L 339.19248 66.169942 
L 340.87482 66.367286 
L 342.557159 66.084713 
L 344.239499 64.545423 
L 347.604178 58.851777 
L 349.286517 56.798681 
L 350.968857 56.299052 
L 352.651197 57.245446 
L 354.333536 58.78859 
L 356.015876 60.117912 
L 357.698215 60.755441 
L 359.380555 60.95821 
L 361.062895 61.437661 
L 362.745234 62.740071 
L 364.427574 64.979397 
L 366.109913 67.854162 
L 369.474593 73.875132 
L 374.521611 81.877485 
L 376.203951 85.542742 
L 377.88629 89.92951 
L 381.25097 99.202335 
L 382.933309 102.869883 
L 386.297988 109.037669 
L 387.980328 113.045531 
L 389.662668 117.962249 
L 391.345007 123.354744 
L 393.027347 128.226325 
L 394.709686 131.310735 
L 396.392026 132.347053 
L 398.074365 132.143593 
L 399.756705 132.328777 
L 401.439045 134.211706 
L 403.121384 137.682406 
L 404.803724 141.705019 
L 406.486063 144.630133 
L 408.168403 145.665155 
L 409.850743 145.452652 
L 411.533082 145.66093 
L 413.215422 147.865205 
L 414.897761 152.219301 
L 416.580101 157.332918 
L 418.26244 161.459062 
L 419.94478 163.848193 
L 423.309459 165.588324 
L 424.991799 167.808279 
L 428.356478 175.095129 
L 430.038818 177.096119 
L 431.721157 176.608591 
L 433.403497 173.950837 
L 435.085836 170.70679 
L 436.768176 168.417474 
L 438.450516 167.874723 
L 440.132855 169.151719 
L 441.815195 171.60743 
L 445.179874 177.575253 
L 448.544553 182.842348 
L 450.226893 184.951752 
L 451.909232 186.58405 
L 453.591572 187.874212 
L 455.273911 188.860089 
L 458.638591 190.422925 
L 460.32093 190.942184 
L 462.00327 191.03784 
L 465.367949 190.858187 
L 467.050288 190.994772 
L 468.732628 191.364994 
L 470.414968 191.958604 
L 473.779647 194.069645 
L 475.461986 194.855941 
L 477.144326 195.02451 
L 478.826666 194.411033 
L 480.509005 193.601258 
L 482.191345 193.234642 
L 483.873684 193.955537 
L 485.556024 196.519135 
L 487.238363 200.769673 
L 488.920703 206.038512 
L 490.603043 210.774439 
L 492.285382 213.708473 
L 493.967722 214.439336 
L 497.332401 214.190493 
L 499.014741 215.048437 
L 500.69708 216.73062 
L 502.37942 217.986102 
L 504.061759 217.789744 
L 505.744099 216.106753 
L 507.426439 213.458726 
L 509.108778 211.274231 
L 510.791118 210.557764 
L 512.473457 210.941166 
L 514.155797 211.514939 
L 515.838136 211.580404 
L 517.520476 210.876675 
L 519.202816 209.523752 
L 520.885155 208.720224 
L 522.567495 209.150118 
L 524.249834 210.788779 
L 527.614514 214.775559 
L 530.979193 218.24636 
L 532.661532 220.368292 
L 536.026211 225.433251 
L 537.708551 227.530327 
L 539.390891 229.109261 
L 541.07323 230.50927 
L 542.75557 232.27769 
L 546.120249 236.509828 
L 547.802589 237.453799 
L 549.484928 236.760539 
L 552.849607 232.552358 
L 554.531947 231.615283 
L 556.214286 233.103176 
L 557.896626 236.584157 
L 559.578966 240.477804 
L 561.261305 243.287025 
L 561.261305 243.287025 
" style="fill: none; stroke: #ff7f0e; stroke-width: 1.5; stroke-linecap: square"/>
   </g>
  </g>
  <g id="axes_2">
   <g id="PathCollection_1">
    <defs>
     <path id="C0_0_270d373b7e" d="M 0 1.118034 
C 0.296506 1.118034 0.580908 1.000231 0.790569 0.790569 
C 1.000231 0.580908 1.118034 0.296506 1.118034 -0 
C 1.118034 -0.296506 1.000231 -0.580908 0.790569 -0.790569 
C 0.580908 -1.000231 0.296506 -1.118034 0 -1.118034 
C -0.296506 -1.118034 -0.580908 -1.000231 -0.790569 -0.790569 
C -1.000231 -0.580908 -1.118034 -0.296506 -1.118034 0 
C -1.118034 0.296506 -1.000231 0.580908 -0.790569 0.790569 
C -0.580908 1.000231 -0.296506 1.118034 0 1.118034 
z
"/>
    </defs>
    <g clip-path="url(#pa11a221f55)">
     <use xlink:href="#C0_0_270d373b7e" x="494.018443" y="86.068197" style="stroke: #000000"/>
    </g>
    <g clip-path="url(#pa11a221f55)">
     <use xlink:href="#C0_0_270d373b7e" x="524.547135" y="86.07817" style="stroke: #000000"/>
    </g>
    <g clip-path="url(#pa11a221f55)">
     <use xlink:href="#C0_0_270d373b7e" x="509.035125" y="85.80057" style="stroke: #000000"/>
    </g>
   </g>
   <g id="matplotlib.axis_3"/>
   <g id="matplotlib.axis_4"/>
   <g id="line2d_19">
    <path d="M 548.860095 73.636387 
L 548.782417 71.164635 
L 548.54969 68.702638 
L 548.162832 66.260111 
L 547.623369 63.846696 
L 546.933432 61.471916 
L 546.095742 59.145144 
L 545.113607 56.875562 
L 543.990901 54.672127 
L 542.732055 52.543535 
L 541.342038 50.498188 
L 539.826336 48.544156 
L 538.19093 46.689152 
L 536.442274 44.940496 
L 534.58727 43.30509 
L 532.633238 41.789388 
L 530.587891 40.399371 
L 528.459299 39.140526 
L 526.255865 38.017819 
L 523.986282 37.035684 
L 521.65951 36.197994 
L 519.28473 35.508057 
L 516.871315 34.968594 
L 514.428789 34.581736 
L 511.966791 34.349009 
L 509.495039 34.271331 
L 507.023286 34.349009 
L 504.561289 34.581736 
L 502.118763 34.968594 
L 499.705347 35.508057 
L 497.330567 36.197994 
L 495.003795 37.035684 
L 492.734213 38.017819 
L 490.530778 39.140526 
L 488.402187 40.399371 
L 486.356839 41.789388 
L 484.402808 43.30509 
L 482.547803 44.940496 
L 480.799148 46.689152 
L 479.163742 48.544156 
L 477.648039 50.498188 
L 476.258022 52.543535 
L 474.999177 54.672127 
L 473.876471 56.875562 
L 472.894335 59.145144 
L 472.056645 61.471916 
L 471.366708 63.846696 
L 470.827246 66.260111 
L 470.440388 68.702638 
L 470.20766 71.164635 
L 470.129982 73.636387 
L 470.20766 76.10814 
L 470.440388 78.570137 
L 470.827246 81.012663 
L 471.366708 83.426079 
L 472.056645 85.800859 
L 472.894335 88.127631 
L 473.876471 90.397213 
L 474.999177 92.600648 
L 476.258022 94.729239 
L 477.648039 96.774587 
L 479.163742 98.728619 
L 480.799148 100.583623 
L 482.547803 102.332278 
L 484.402808 103.967685 
L 486.356839 105.483387 
L 488.402187 106.873404 
L 490.530778 108.132249 
L 492.734213 109.254955 
L 495.003795 110.237091 
L 497.330567 111.074781 
L 499.705347 111.764718 
L 502.118763 112.30418 
L 504.561289 112.691038 
L 507.023286 112.923766 
L 509.495039 113.001444 
L 511.966791 112.923766 
L 514.428789 112.691038 
L 516.871315 112.30418 
L 519.28473 111.764718 
L 521.65951 111.074781 
L 523.986282 110.237091 
L 526.255865 109.254955 
L 528.459299 108.132249 
L 530.587891 106.873404 
L 532.633238 105.483387 
L 534.58727 103.967685 
L 536.442274 102.332278 
L 538.19093 100.583623 
L 539.826336 98.728619 
L 541.342038 96.774587 
L 542.732055 94.729239 
L 543.990901 92.600648 
L 545.113607 90.397213 
L 546.095742 88.127631 
L 546.933432 85.800859 
L 547.623369 83.426079 
L 548.162832 81.012663 
L 548.54969 78.570137 
L 548.782417 76.10814 
L 548.860095 73.636387 
" style="fill: none; stroke: #000000; stroke-linecap: square"/>
   </g>
   <g id="line2d_20">
    <path d="M 501.250441 35.144385 
L 509.495039 28.366573 
L 517.739637 35.144385 
" style="fill: none; stroke: #000000; stroke-linecap: square"/>
   </g>
   <g id="line2d_21">
    <path d="M 470.366173 69.266866 
L 469.342681 67.534804 
L 468.71284 67.47182 
L 467.775952 67.763121 
L 466.831191 69.266866 
L 466.980778 74.069403 
L 466.429667 80.974034 
L 467.610619 83.973651 
L 469.342681 84.532635 
L 470.996014 83.076128 
" style="fill: none; stroke: #000000; stroke-linecap: square"/>
   </g>
   <g id="line2d_22">
    <path d="M 548.623905 69.266866 
L 549.647396 67.534804 
L 550.277237 67.47182 
L 551.214125 67.763121 
L 552.158887 69.266866 
L 552.0093 74.069403 
L 552.56041 80.974034 
L 551.379459 83.973651 
L 549.647396 84.532635 
L 547.994064 83.076128 
" style="fill: none; stroke: #000000; stroke-linecap: square"/>
   </g>
  </g>
 </g>
 <defs>
  <clipPath id="p5977e6ff45">
   <rect x="44.783053" y="18.118365" width="517.083895" height="380.525145"/>
  </clipPath>
  <clipPath id="pa11a221f55">
   <rect x="462.12313" y="24.134829" width="94.743817" height="93.098358"/>
  </clipPath>
 </defs>
</svg>
