<?xml version="1.0" encoding="utf-8" standalone="no"?>
<!DOCTYPE svg PUBLIC "-//W3C//DTD SVG 1.1//EN"
  "http://www.w3.org/Graphics/SVG/1.1/DTD/svg11.dtd">
<svg xmlns:xlink="http://www.w3.org/1999/xlink" width="576pt" height="432pt" viewBox="0 0 576 432" xmlns="http://www.w3.org/2000/svg" version="1.1">
 <metadata>
  <rdf:RDF xmlns:dc="http://purl.org/dc/elements/1.1/" xmlns:cc="http://creativecommons.org/ns#" xmlns:rdf="http://www.w3.org/1999/02/22-rdf-syntax-ns#">
   <cc:Work>
    <dc:type rdf:resource="http://purl.org/dc/dcmitype/StillImage"/>
    <dc:date>2025-02-17T18:08:07.331088</dc:date>
    <dc:format>image/svg+xml</dc:format>
    <dc:creator>
     <cc:Agent>
      <dc:title>Matplotlib v3.10.0, https://matplotlib.org/</dc:title>
     </cc:Agent>
    </dc:creator>
   </cc:Work>
  </rdf:RDF>
 </metadata>
 <defs>
  <style type="text/css">*{stroke-linejoin: round; stroke-linecap: butt}</style>
 </defs>
 <g id="figure_1">
  <g id="patch_1">
   <path d="M 0 432 
L 576 432 
L 576 0 
L 0 0 
z
" style="fill: #ffffff"/>
  </g>
  <g id="axes_1">
   <g id="patch_2">
    <path d="M 38.420552 398.64351 
L 561.866948 398.64351 
L 561.866948 18.118365 
L 38.420552 18.118365 
L 38.420552 398.64351 
z
" style="fill: none; opacity: 0"/>
   </g>
   <g id="patch_3">
    <path d="M 38.420552 381.0142 
L 38.420552 35.747675 
" style="fill: none; stroke: #000000; stroke-width: 0.8; stroke-linejoin: miter; stroke-linecap: square"/>
   </g>
   <g id="LineCollection_1">
    <path d="M 191.285429 18.118365 
L 191.285429 398.64351 
" clip-path="url(#pe49714ed32)" style="fill: none; stroke-dasharray: 3.7,1.6; stroke-dashoffset: 0; stroke: #000000"/>
    <path d="M 226.163689 18.118365 
L 226.163689 398.64351 
" clip-path="url(#pe49714ed32)" style="fill: none; stroke-dasharray: 3.7,1.6; stroke-dashoffset: 0; stroke: #000000"/>
   </g>
   <g id="matplotlib.axis_1">
    <g id="xtick_1">
     <g id="line2d_1">
      <defs>
       <path id="mb5bf246510" d="M 0 0 
L 0 3.5 
" style="stroke: #000000; stroke-width: 0.8"/>
      </defs>
      <g>
       <use xlink:href="#mb5bf246510" x="38.693039" y="398.64351" style="stroke: #000000; stroke-width: 0.8"/>
      </g>
     </g>
     <g id="text_1">
      <!-- −0.20 -->
      <g transform="translate(23.370383 413.241947) scale(0.1 -0.1)">
       <defs>
        <path id="DejaVuSans-2212" d="M 678 2272 
L 4684 2272 
L 4684 1741 
L 678 1741 
L 678 2272 
z
" transform="scale(0.015625)"/>
        <path id="DejaVuSans-30" d="M 2034 4250 
Q 1547 4250 1301 3770 
Q 1056 3291 1056 2328 
Q 1056 1369 1301 889 
Q 1547 409 2034 409 
Q 2525 409 2770 889 
Q 3016 1369 3016 2328 
Q 3016 3291 2770 3770 
Q 2525 4250 2034 4250 
z
M 2034 4750 
Q 2819 4750 3233 4129 
Q 3647 3509 3647 2328 
Q 3647 1150 3233 529 
Q 2819 -91 2034 -91 
Q 1250 -91 836 529 
Q 422 1150 422 2328 
Q 422 3509 836 4129 
Q 1250 4750 2034 4750 
z
" transform="scale(0.015625)"/>
        <path id="DejaVuSans-2e" d="M 684 794 
L 1344 794 
L 1344 0 
L 684 0 
L 684 794 
z
" transform="scale(0.015625)"/>
        <path id="DejaVuSans-32" d="M 1228 531 
L 3431 531 
L 3431 0 
L 469 0 
L 469 531 
Q 828 903 1448 1529 
Q 2069 2156 2228 2338 
Q 2531 2678 2651 2914 
Q 2772 3150 2772 3378 
Q 2772 3750 2511 3984 
Q 2250 4219 1831 4219 
Q 1534 4219 1204 4116 
Q 875 4013 500 3803 
L 500 4441 
Q 881 4594 1212 4672 
Q 1544 4750 1819 4750 
Q 2544 4750 2975 4387 
Q 3406 4025 3406 3419 
Q 3406 3131 3298 2873 
Q 3191 2616 2906 2266 
Q 2828 2175 2409 1742 
Q 1991 1309 1228 531 
z
" transform="scale(0.015625)"/>
       </defs>
       <use xlink:href="#DejaVuSans-2212"/>
       <use xlink:href="#DejaVuSans-30" transform="translate(83.789062 0)"/>
       <use xlink:href="#DejaVuSans-2e" transform="translate(147.412109 0)"/>
       <use xlink:href="#DejaVuSans-32" transform="translate(179.199219 0)"/>
       <use xlink:href="#DejaVuSans-30" transform="translate(242.822266 0)"/>
      </g>
     </g>
    </g>
    <g id="xtick_2">
     <g id="line2d_2">
      <g>
       <use xlink:href="#mb5bf246510" x="125.88869" y="398.64351" style="stroke: #000000; stroke-width: 0.8"/>
      </g>
     </g>
     <g id="text_2">
      <!-- 0.00 -->
      <g transform="translate(114.755878 413.241947) scale(0.1 -0.1)">
       <use xlink:href="#DejaVuSans-30"/>
       <use xlink:href="#DejaVuSans-2e" transform="translate(63.623047 0)"/>
       <use xlink:href="#DejaVuSans-30" transform="translate(95.410156 0)"/>
       <use xlink:href="#DejaVuSans-30" transform="translate(159.033203 0)"/>
      </g>
     </g>
    </g>
    <g id="xtick_3">
     <g id="line2d_3">
      <g>
       <use xlink:href="#mb5bf246510" x="191.285429" y="398.64351" style="stroke: #000000; stroke-width: 0.8"/>
      </g>
     </g>
     <g id="text_3">
      <!-- 0.15 -->
      <g transform="translate(180.152616 413.241947) scale(0.1 -0.1)">
       <defs>
        <path id="DejaVuSans-31" d="M 794 531 
L 1825 531 
L 1825 4091 
L 703 3866 
L 703 4441 
L 1819 4666 
L 2450 4666 
L 2450 531 
L 3481 531 
L 3481 0 
L 794 0 
L 794 531 
z
" transform="scale(0.015625)"/>
        <path id="DejaVuSans-35" d="M 691 4666 
L 3169 4666 
L 3169 4134 
L 1269 4134 
L 1269 2991 
Q 1406 3038 1543 3061 
Q 1681 3084 1819 3084 
Q 2600 3084 3056 2656 
Q 3513 2228 3513 1497 
Q 3513 744 3044 326 
Q 2575 -91 1722 -91 
Q 1428 -91 1123 -41 
Q 819 9 494 109 
L 494 744 
Q 775 591 1075 516 
Q 1375 441 1709 441 
Q 2250 441 2565 725 
Q 2881 1009 2881 1497 
Q 2881 1984 2565 2268 
Q 2250 2553 1709 2553 
Q 1456 2553 1204 2497 
Q 953 2441 691 2322 
L 691 4666 
z
" transform="scale(0.015625)"/>
       </defs>
       <use xlink:href="#DejaVuSans-30"/>
       <use xlink:href="#DejaVuSans-2e" transform="translate(63.623047 0)"/>
       <use xlink:href="#DejaVuSans-31" transform="translate(95.410156 0)"/>
       <use xlink:href="#DejaVuSans-35" transform="translate(159.033203 0)"/>
      </g>
     </g>
    </g>
    <g id="xtick_4">
     <g id="line2d_4">
      <g>
       <use xlink:href="#mb5bf246510" x="213.084342" y="398.64351" style="stroke: #000000; stroke-width: 0.8"/>
      </g>
     </g>
     <g id="text_4">
      <!-- 0.20 -->
      <g transform="translate(201.951529 413.241947) scale(0.1 -0.1)">
       <use xlink:href="#DejaVuSans-30"/>
       <use xlink:href="#DejaVuSans-2e" transform="translate(63.623047 0)"/>
       <use xlink:href="#DejaVuSans-32" transform="translate(95.410156 0)"/>
       <use xlink:href="#DejaVuSans-30" transform="translate(159.033203 0)"/>
      </g>
     </g>
    </g>
    <g id="xtick_5">
     <g id="line2d_5">
      <g>
       <use xlink:href="#mb5bf246510" x="226.163689" y="398.64351" style="stroke: #000000; stroke-width: 0.8"/>
      </g>
     </g>
     <g id="text_5">
      <!-- 0.23 -->
      <g transform="translate(215.030877 413.241947) scale(0.1 -0.1)">
       <defs>
        <path id="DejaVuSans-33" d="M 2597 2516 
Q 3050 2419 3304 2112 
Q 3559 1806 3559 1356 
Q 3559 666 3084 287 
Q 2609 -91 1734 -91 
Q 1441 -91 1130 -33 
Q 819 25 488 141 
L 488 750 
Q 750 597 1062 519 
Q 1375 441 1716 441 
Q 2309 441 2620 675 
Q 2931 909 2931 1356 
Q 2931 1769 2642 2001 
Q 2353 2234 1838 2234 
L 1294 2234 
L 1294 2753 
L 1863 2753 
Q 2328 2753 2575 2939 
Q 2822 3125 2822 3475 
Q 2822 3834 2567 4026 
Q 2313 4219 1838 4219 
Q 1578 4219 1281 4162 
Q 984 4106 628 3988 
L 628 4550 
Q 988 4650 1302 4700 
Q 1616 4750 1894 4750 
Q 2613 4750 3031 4423 
Q 3450 4097 3450 3541 
Q 3450 3153 3228 2886 
Q 3006 2619 2597 2516 
z
" transform="scale(0.015625)"/>
       </defs>
       <use xlink:href="#DejaVuSans-30"/>
       <use xlink:href="#DejaVuSans-2e" transform="translate(63.623047 0)"/>
       <use xlink:href="#DejaVuSans-32" transform="translate(95.410156 0)"/>
       <use xlink:href="#DejaVuSans-33" transform="translate(159.033203 0)"/>
      </g>
     </g>
    </g>
    <g id="xtick_6">
     <g id="line2d_6">
      <g>
       <use xlink:href="#mb5bf246510" x="300.279993" y="398.64351" style="stroke: #000000; stroke-width: 0.8"/>
      </g>
     </g>
     <g id="text_6">
      <!-- 0.40 -->
      <g transform="translate(289.147181 413.241947) scale(0.1 -0.1)">
       <defs>
        <path id="DejaVuSans-34" d="M 2419 4116 
L 825 1625 
L 2419 1625 
L 2419 4116 
z
M 2253 4666 
L 3047 4666 
L 3047 1625 
L 3713 1625 
L 3713 1100 
L 3047 1100 
L 3047 0 
L 2419 0 
L 2419 1100 
L 313 1100 
L 313 1709 
L 2253 4666 
z
" transform="scale(0.015625)"/>
       </defs>
       <use xlink:href="#DejaVuSans-30"/>
       <use xlink:href="#DejaVuSans-2e" transform="translate(63.623047 0)"/>
       <use xlink:href="#DejaVuSans-34" transform="translate(95.410156 0)"/>
       <use xlink:href="#DejaVuSans-30" transform="translate(159.033203 0)"/>
      </g>
     </g>
    </g>
    <g id="xtick_7">
     <g id="line2d_7">
      <g>
       <use xlink:href="#mb5bf246510" x="387.475645" y="398.64351" style="stroke: #000000; stroke-width: 0.8"/>
      </g>
     </g>
     <g id="text_7">
      <!-- 0.60 -->
      <g transform="translate(376.342832 413.241947) scale(0.1 -0.1)">
       <defs>
        <path id="DejaVuSans-36" d="M 2113 2584 
Q 1688 2584 1439 2293 
Q 1191 2003 1191 1497 
Q 1191 994 1439 701 
Q 1688 409 2113 409 
Q 2538 409 2786 701 
Q 3034 994 3034 1497 
Q 3034 2003 2786 2293 
Q 2538 2584 2113 2584 
z
M 3366 4563 
L 3366 3988 
Q 3128 4100 2886 4159 
Q 2644 4219 2406 4219 
Q 1781 4219 1451 3797 
Q 1122 3375 1075 2522 
Q 1259 2794 1537 2939 
Q 1816 3084 2150 3084 
Q 2853 3084 3261 2657 
Q 3669 2231 3669 1497 
Q 3669 778 3244 343 
Q 2819 -91 2113 -91 
Q 1303 -91 875 529 
Q 447 1150 447 2328 
Q 447 3434 972 4092 
Q 1497 4750 2381 4750 
Q 2619 4750 2861 4703 
Q 3103 4656 3366 4563 
z
" transform="scale(0.015625)"/>
       </defs>
       <use xlink:href="#DejaVuSans-30"/>
       <use xlink:href="#DejaVuSans-2e" transform="translate(63.623047 0)"/>
       <use xlink:href="#DejaVuSans-36" transform="translate(95.410156 0)"/>
       <use xlink:href="#DejaVuSans-30" transform="translate(159.033203 0)"/>
      </g>
     </g>
    </g>
    <g id="xtick_8">
     <g id="line2d_8">
      <g>
       <use xlink:href="#mb5bf246510" x="474.671296" y="398.64351" style="stroke: #000000; stroke-width: 0.8"/>
      </g>
     </g>
     <g id="text_8">
      <!-- 0.80 -->
      <g transform="translate(463.538484 413.241947) scale(0.1 -0.1)">
       <defs>
        <path id="DejaVuSans-38" d="M 2034 2216 
Q 1584 2216 1326 1975 
Q 1069 1734 1069 1313 
Q 1069 891 1326 650 
Q 1584 409 2034 409 
Q 2484 409 2743 651 
Q 3003 894 3003 1313 
Q 3003 1734 2745 1975 
Q 2488 2216 2034 2216 
z
M 1403 2484 
Q 997 2584 770 2862 
Q 544 3141 544 3541 
Q 544 4100 942 4425 
Q 1341 4750 2034 4750 
Q 2731 4750 3128 4425 
Q 3525 4100 3525 3541 
Q 3525 3141 3298 2862 
Q 3072 2584 2669 2484 
Q 3125 2378 3379 2068 
Q 3634 1759 3634 1313 
Q 3634 634 3220 271 
Q 2806 -91 2034 -91 
Q 1263 -91 848 271 
Q 434 634 434 1313 
Q 434 1759 690 2068 
Q 947 2378 1403 2484 
z
M 1172 3481 
Q 1172 3119 1398 2916 
Q 1625 2713 2034 2713 
Q 2441 2713 2670 2916 
Q 2900 3119 2900 3481 
Q 2900 3844 2670 4047 
Q 2441 4250 2034 4250 
Q 1625 4250 1398 4047 
Q 1172 3844 1172 3481 
z
" transform="scale(0.015625)"/>
       </defs>
       <use xlink:href="#DejaVuSans-30"/>
       <use xlink:href="#DejaVuSans-2e" transform="translate(63.623047 0)"/>
       <use xlink:href="#DejaVuSans-38" transform="translate(95.410156 0)"/>
       <use xlink:href="#DejaVuSans-30" transform="translate(159.033203 0)"/>
      </g>
     </g>
    </g>
    <g id="xtick_9">
     <g id="line2d_9">
      <g>
       <use xlink:href="#mb5bf246510" x="561.866948" y="398.64351" style="stroke: #000000; stroke-width: 0.8"/>
      </g>
     </g>
     <g id="text_9">
      <!-- 1.00 -->
      <g transform="translate(550.734135 413.241947) scale(0.1 -0.1)">
       <use xlink:href="#DejaVuSans-31"/>
       <use xlink:href="#DejaVuSans-2e" transform="translate(63.623047 0)"/>
       <use xlink:href="#DejaVuSans-30" transform="translate(95.410156 0)"/>
       <use xlink:href="#DejaVuSans-30" transform="translate(159.033203 0)"/>
      </g>
     </g>
    </g>
    <g id="text_10">
     <!-- Time (s) -->
     <g transform="translate(279.814844 426.920073) scale(0.1 -0.1)">
      <defs>
       <path id="DejaVuSans-54" d="M -19 4666 
L 3928 4666 
L 3928 4134 
L 2272 4134 
L 2272 0 
L 1638 0 
L 1638 4134 
L -19 4134 
L -19 4666 
z
" transform="scale(0.015625)"/>
       <path id="DejaVuSans-69" d="M 603 3500 
L 1178 3500 
L 1178 0 
L 603 0 
L 603 3500 
z
M 603 4863 
L 1178 4863 
L 1178 4134 
L 603 4134 
L 603 4863 
z
" transform="scale(0.015625)"/>
       <path id="DejaVuSans-6d" d="M 3328 2828 
Q 3544 3216 3844 3400 
Q 4144 3584 4550 3584 
Q 5097 3584 5394 3201 
Q 5691 2819 5691 2113 
L 5691 0 
L 5113 0 
L 5113 2094 
Q 5113 2597 4934 2840 
Q 4756 3084 4391 3084 
Q 3944 3084 3684 2787 
Q 3425 2491 3425 1978 
L 3425 0 
L 2847 0 
L 2847 2094 
Q 2847 2600 2669 2842 
Q 2491 3084 2119 3084 
Q 1678 3084 1418 2786 
Q 1159 2488 1159 1978 
L 1159 0 
L 581 0 
L 581 3500 
L 1159 3500 
L 1159 2956 
Q 1356 3278 1631 3431 
Q 1906 3584 2284 3584 
Q 2666 3584 2933 3390 
Q 3200 3197 3328 2828 
z
" transform="scale(0.015625)"/>
       <path id="DejaVuSans-65" d="M 3597 1894 
L 3597 1613 
L 953 1613 
Q 991 1019 1311 708 
Q 1631 397 2203 397 
Q 2534 397 2845 478 
Q 3156 559 3463 722 
L 3463 178 
Q 3153 47 2828 -22 
Q 2503 -91 2169 -91 
Q 1331 -91 842 396 
Q 353 884 353 1716 
Q 353 2575 817 3079 
Q 1281 3584 2069 3584 
Q 2775 3584 3186 3129 
Q 3597 2675 3597 1894 
z
M 3022 2063 
Q 3016 2534 2758 2815 
Q 2500 3097 2075 3097 
Q 1594 3097 1305 2825 
Q 1016 2553 972 2059 
L 3022 2063 
z
" transform="scale(0.015625)"/>
       <path id="DejaVuSans-20" transform="scale(0.015625)"/>
       <path id="DejaVuSans-28" d="M 1984 4856 
Q 1566 4138 1362 3434 
Q 1159 2731 1159 2009 
Q 1159 1288 1364 580 
Q 1569 -128 1984 -844 
L 1484 -844 
Q 1016 -109 783 600 
Q 550 1309 550 2009 
Q 550 2706 781 3412 
Q 1013 4119 1484 4856 
L 1984 4856 
z
" transform="scale(0.015625)"/>
       <path id="DejaVuSans-73" d="M 2834 3397 
L 2834 2853 
Q 2591 2978 2328 3040 
Q 2066 3103 1784 3103 
Q 1356 3103 1142 2972 
Q 928 2841 928 2578 
Q 928 2378 1081 2264 
Q 1234 2150 1697 2047 
L 1894 2003 
Q 2506 1872 2764 1633 
Q 3022 1394 3022 966 
Q 3022 478 2636 193 
Q 2250 -91 1575 -91 
Q 1294 -91 989 -36 
Q 684 19 347 128 
L 347 722 
Q 666 556 975 473 
Q 1284 391 1588 391 
Q 1994 391 2212 530 
Q 2431 669 2431 922 
Q 2431 1156 2273 1281 
Q 2116 1406 1581 1522 
L 1381 1569 
Q 847 1681 609 1914 
Q 372 2147 372 2553 
Q 372 3047 722 3315 
Q 1072 3584 1716 3584 
Q 2034 3584 2315 3537 
Q 2597 3491 2834 3397 
z
" transform="scale(0.015625)"/>
       <path id="DejaVuSans-29" d="M 513 4856 
L 1013 4856 
Q 1481 4119 1714 3412 
Q 1947 2706 1947 2009 
Q 1947 1309 1714 600 
Q 1481 -109 1013 -844 
L 513 -844 
Q 928 -128 1133 580 
Q 1338 1288 1338 2009 
Q 1338 2731 1133 3434 
Q 928 4138 513 4856 
z
" transform="scale(0.015625)"/>
      </defs>
      <use xlink:href="#DejaVuSans-54"/>
      <use xlink:href="#DejaVuSans-69" transform="translate(57.958984 0)"/>
      <use xlink:href="#DejaVuSans-6d" transform="translate(85.742188 0)"/>
      <use xlink:href="#DejaVuSans-65" transform="translate(183.154297 0)"/>
      <use xlink:href="#DejaVuSans-20" transform="translate(244.677734 0)"/>
      <use xlink:href="#DejaVuSans-28" transform="translate(276.464844 0)"/>
      <use xlink:href="#DejaVuSans-73" transform="translate(315.478516 0)"/>
      <use xlink:href="#DejaVuSans-29" transform="translate(367.578125 0)"/>
     </g>
    </g>
   </g>
   <g id="matplotlib.axis_2">
    <g id="ytick_1">
     <g id="line2d_10">
      <defs>
       <path id="mf243de06f7" d="M 0 0 
L -3.5 0 
" style="stroke: #000000; stroke-width: 0.8"/>
      </defs>
      <g>
       <use xlink:href="#mf243de06f7" x="38.420552" y="381.0142" style="stroke: #000000; stroke-width: 0.8"/>
      </g>
     </g>
     <g id="text_11">
      <!-- −6 -->
      <g transform="translate(16.678365 384.813418) scale(0.1 -0.1)">
       <use xlink:href="#DejaVuSans-2212"/>
       <use xlink:href="#DejaVuSans-36" transform="translate(83.789062 0)"/>
      </g>
     </g>
    </g>
    <g id="ytick_2">
     <g id="line2d_11">
      <g>
       <use xlink:href="#mf243de06f7" x="38.420552" y="323.469779" style="stroke: #000000; stroke-width: 0.8"/>
      </g>
     </g>
     <g id="text_12">
      <!-- −4 -->
      <g transform="translate(16.678365 327.268998) scale(0.1 -0.1)">
       <use xlink:href="#DejaVuSans-2212"/>
       <use xlink:href="#DejaVuSans-34" transform="translate(83.789062 0)"/>
      </g>
     </g>
    </g>
    <g id="ytick_3">
     <g id="line2d_12">
      <g>
       <use xlink:href="#mf243de06f7" x="38.420552" y="265.925358" style="stroke: #000000; stroke-width: 0.8"/>
      </g>
     </g>
     <g id="text_13">
      <!-- −2 -->
      <g transform="translate(16.678365 269.724577) scale(0.1 -0.1)">
       <use xlink:href="#DejaVuSans-2212"/>
       <use xlink:href="#DejaVuSans-32" transform="translate(83.789062 0)"/>
      </g>
     </g>
    </g>
    <g id="ytick_4">
     <g id="line2d_13">
      <g>
       <use xlink:href="#mf243de06f7" x="38.420552" y="208.380938" style="stroke: #000000; stroke-width: 0.8"/>
      </g>
     </g>
     <g id="text_14">
      <!-- 0 -->
      <g transform="translate(25.058052 212.180156) scale(0.1 -0.1)">
       <use xlink:href="#DejaVuSans-30"/>
      </g>
     </g>
    </g>
    <g id="ytick_5">
     <g id="line2d_14">
      <g>
       <use xlink:href="#mf243de06f7" x="38.420552" y="150.836517" style="stroke: #000000; stroke-width: 0.8"/>
      </g>
     </g>
     <g id="text_15">
      <!-- 2 -->
      <g transform="translate(25.058052 154.635736) scale(0.1 -0.1)">
       <use xlink:href="#DejaVuSans-32"/>
      </g>
     </g>
    </g>
    <g id="ytick_6">
     <g id="line2d_15">
      <g>
       <use xlink:href="#mf243de06f7" x="38.420552" y="93.292096" style="stroke: #000000; stroke-width: 0.8"/>
      </g>
     </g>
     <g id="text_16">
      <!-- 4 -->
      <g transform="translate(25.058052 97.091315) scale(0.1 -0.1)">
       <use xlink:href="#DejaVuSans-34"/>
      </g>
     </g>
    </g>
    <g id="ytick_7">
     <g id="line2d_16">
      <g>
       <use xlink:href="#mf243de06f7" x="38.420552" y="35.747675" style="stroke: #000000; stroke-width: 0.8"/>
      </g>
     </g>
     <g id="text_17">
      <!-- 6 -->
      <g transform="translate(25.058052 39.546894) scale(0.1 -0.1)">
       <use xlink:href="#DejaVuSans-36"/>
      </g>
     </g>
    </g>
    <g id="text_18">
     <!-- µV -->
     <g transform="translate(10.598677 214.9825) rotate(-90) scale(0.1 -0.1)">
      <defs>
       <path id="DejaVuSans-b5" d="M 544 -1331 
L 544 3500 
L 1119 3500 
L 1119 1325 
Q 1119 872 1334 640 
Q 1550 409 1972 409 
Q 2434 409 2667 671 
Q 2900 934 2900 1459 
L 2900 3500 
L 3475 3500 
L 3475 806 
Q 3475 619 3529 530 
Q 3584 441 3700 441 
Q 3728 441 3778 458 
Q 3828 475 3916 513 
L 3916 50 
Q 3788 -22 3673 -56 
Q 3559 -91 3450 -91 
Q 3234 -91 3106 31 
Q 2978 153 2931 403 
Q 2775 156 2548 32 
Q 2322 -91 2016 -91 
Q 1697 -91 1473 31 
Q 1250 153 1119 397 
L 1119 -1331 
L 544 -1331 
z
" transform="scale(0.015625)"/>
       <path id="DejaVuSans-56" d="M 1831 0 
L 50 4666 
L 709 4666 
L 2188 738 
L 3669 4666 
L 4325 4666 
L 2547 0 
L 1831 0 
z
" transform="scale(0.015625)"/>
      </defs>
      <use xlink:href="#DejaVuSans-b5"/>
      <use xlink:href="#DejaVuSans-56" transform="translate(63.623047 0)"/>
     </g>
    </g>
   </g>
   <g id="patch_4">
    <path d="M 38.693039 398.64351 
L 561.866948 398.64351 
" style="fill: none; stroke: #000000; stroke-width: 0.8; stroke-linejoin: miter; stroke-linecap: square"/>
   </g>
   <g id="patch_5">
    <path d="M 38.420552 208.380938 
L 561.866948 208.380938 
" style="fill: none; stroke: #000000; stroke-width: 0.8; stroke-linejoin: miter; stroke-linecap: square"/>
   </g>
   <g id="text_19">
    <!-- Fz, FCz, Cz, CPz, Pz (median) -->
    <g transform="translate(213.356562 12.118365) scale(0.12 -0.12)">
     <defs>
      <path id="DejaVuSans-46" d="M 628 4666 
L 3309 4666 
L 3309 4134 
L 1259 4134 
L 1259 2759 
L 3109 2759 
L 3109 2228 
L 1259 2228 
L 1259 0 
L 628 0 
L 628 4666 
z
" transform="scale(0.015625)"/>
      <path id="DejaVuSans-7a" d="M 353 3500 
L 3084 3500 
L 3084 2975 
L 922 459 
L 3084 459 
L 3084 0 
L 275 0 
L 275 525 
L 2438 3041 
L 353 3041 
L 353 3500 
z
" transform="scale(0.015625)"/>
      <path id="DejaVuSans-2c" d="M 750 794 
L 1409 794 
L 1409 256 
L 897 -744 
L 494 -744 
L 750 256 
L 750 794 
z
" transform="scale(0.015625)"/>
      <path id="DejaVuSans-43" d="M 4122 4306 
L 4122 3641 
Q 3803 3938 3442 4084 
Q 3081 4231 2675 4231 
Q 1875 4231 1450 3742 
Q 1025 3253 1025 2328 
Q 1025 1406 1450 917 
Q 1875 428 2675 428 
Q 3081 428 3442 575 
Q 3803 722 4122 1019 
L 4122 359 
Q 3791 134 3420 21 
Q 3050 -91 2638 -91 
Q 1578 -91 968 557 
Q 359 1206 359 2328 
Q 359 3453 968 4101 
Q 1578 4750 2638 4750 
Q 3056 4750 3426 4639 
Q 3797 4528 4122 4306 
z
" transform="scale(0.015625)"/>
      <path id="DejaVuSans-50" d="M 1259 4147 
L 1259 2394 
L 2053 2394 
Q 2494 2394 2734 2622 
Q 2975 2850 2975 3272 
Q 2975 3691 2734 3919 
Q 2494 4147 2053 4147 
L 1259 4147 
z
M 628 4666 
L 2053 4666 
Q 2838 4666 3239 4311 
Q 3641 3956 3641 3272 
Q 3641 2581 3239 2228 
Q 2838 1875 2053 1875 
L 1259 1875 
L 1259 0 
L 628 0 
L 628 4666 
z
" transform="scale(0.015625)"/>
      <path id="DejaVuSans-64" d="M 2906 2969 
L 2906 4863 
L 3481 4863 
L 3481 0 
L 2906 0 
L 2906 525 
Q 2725 213 2448 61 
Q 2172 -91 1784 -91 
Q 1150 -91 751 415 
Q 353 922 353 1747 
Q 353 2572 751 3078 
Q 1150 3584 1784 3584 
Q 2172 3584 2448 3432 
Q 2725 3281 2906 2969 
z
M 947 1747 
Q 947 1113 1208 752 
Q 1469 391 1925 391 
Q 2381 391 2643 752 
Q 2906 1113 2906 1747 
Q 2906 2381 2643 2742 
Q 2381 3103 1925 3103 
Q 1469 3103 1208 2742 
Q 947 2381 947 1747 
z
" transform="scale(0.015625)"/>
      <path id="DejaVuSans-61" d="M 2194 1759 
Q 1497 1759 1228 1600 
Q 959 1441 959 1056 
Q 959 750 1161 570 
Q 1363 391 1709 391 
Q 2188 391 2477 730 
Q 2766 1069 2766 1631 
L 2766 1759 
L 2194 1759 
z
M 3341 1997 
L 3341 0 
L 2766 0 
L 2766 531 
Q 2569 213 2275 61 
Q 1981 -91 1556 -91 
Q 1019 -91 701 211 
Q 384 513 384 1019 
Q 384 1609 779 1909 
Q 1175 2209 1959 2209 
L 2766 2209 
L 2766 2266 
Q 2766 2663 2505 2880 
Q 2244 3097 1772 3097 
Q 1472 3097 1187 3025 
Q 903 2953 641 2809 
L 641 3341 
Q 956 3463 1253 3523 
Q 1550 3584 1831 3584 
Q 2591 3584 2966 3190 
Q 3341 2797 3341 1997 
z
" transform="scale(0.015625)"/>
      <path id="DejaVuSans-6e" d="M 3513 2113 
L 3513 0 
L 2938 0 
L 2938 2094 
Q 2938 2591 2744 2837 
Q 2550 3084 2163 3084 
Q 1697 3084 1428 2787 
Q 1159 2491 1159 1978 
L 1159 0 
L 581 0 
L 581 3500 
L 1159 3500 
L 1159 2956 
Q 1366 3272 1645 3428 
Q 1925 3584 2291 3584 
Q 2894 3584 3203 3211 
Q 3513 2838 3513 2113 
z
" transform="scale(0.015625)"/>
     </defs>
     <use xlink:href="#DejaVuSans-46"/>
     <use xlink:href="#DejaVuSans-7a" transform="translate(57.519531 0)"/>
     <use xlink:href="#DejaVuSans-2c" transform="translate(110.009766 0)"/>
     <use xlink:href="#DejaVuSans-20" transform="translate(141.796875 0)"/>
     <use xlink:href="#DejaVuSans-46" transform="translate(173.583984 0)"/>
     <use xlink:href="#DejaVuSans-43" transform="translate(231.103516 0)"/>
     <use xlink:href="#DejaVuSans-7a" transform="translate(300.927734 0)"/>
     <use xlink:href="#DejaVuSans-2c" transform="translate(353.417969 0)"/>
     <use xlink:href="#DejaVuSans-20" transform="translate(385.205078 0)"/>
     <use xlink:href="#DejaVuSans-43" transform="translate(416.992188 0)"/>
     <use xlink:href="#DejaVuSans-7a" transform="translate(486.816406 0)"/>
     <use xlink:href="#DejaVuSans-2c" transform="translate(539.306641 0)"/>
     <use xlink:href="#DejaVuSans-20" transform="translate(571.09375 0)"/>
     <use xlink:href="#DejaVuSans-43" transform="translate(602.880859 0)"/>
     <use xlink:href="#DejaVuSans-50" transform="translate(672.705078 0)"/>
     <use xlink:href="#DejaVuSans-7a" transform="translate(733.007812 0)"/>
     <use xlink:href="#DejaVuSans-2c" transform="translate(785.498047 0)"/>
     <use xlink:href="#DejaVuSans-20" transform="translate(817.285156 0)"/>
     <use xlink:href="#DejaVuSans-50" transform="translate(849.072266 0)"/>
     <use xlink:href="#DejaVuSans-7a" transform="translate(909.375 0)"/>
     <use xlink:href="#DejaVuSans-20" transform="translate(961.865234 0)"/>
     <use xlink:href="#DejaVuSans-28" transform="translate(993.652344 0)"/>
     <use xlink:href="#DejaVuSans-6d" transform="translate(1032.666016 0)"/>
     <use xlink:href="#DejaVuSans-65" transform="translate(1130.078125 0)"/>
     <use xlink:href="#DejaVuSans-64" transform="translate(1191.601562 0)"/>
     <use xlink:href="#DejaVuSans-69" transform="translate(1255.078125 0)"/>
     <use xlink:href="#DejaVuSans-61" transform="translate(1282.861328 0)"/>
     <use xlink:href="#DejaVuSans-6e" transform="translate(1344.140625 0)"/>
     <use xlink:href="#DejaVuSans-29" transform="translate(1407.519531 0)"/>
    </g>
   </g>
   <g id="legend_1">
    <g id="patch_6">
     <path d="M 45.420552 55.75274 
L 126.56274 55.75274 
Q 128.56274 55.75274 128.56274 53.75274 
L 128.56274 25.118365 
Q 128.56274 23.118365 126.56274 23.118365 
L 45.420552 23.118365 
Q 43.420552 23.118365 43.420552 25.118365 
L 43.420552 53.75274 
Q 43.420552 55.75274 45.420552 55.75274 
z
" style="fill: #ffffff; opacity: 0.8; stroke: #cccccc; stroke-linejoin: miter"/>
    </g>
    <g id="line2d_17">
     <path d="M 47.420552 31.216803 
L 57.420552 31.216803 
L 67.420552 31.216803 
" style="fill: none; stroke: #1f77b4; stroke-width: 1.5; stroke-linecap: square"/>
    </g>
    <g id="text_20">
     <!-- eerie -->
     <g transform="translate(75.420552 34.716803) scale(0.1 -0.1)">
      <defs>
       <path id="DejaVuSans-72" d="M 2631 2963 
Q 2534 3019 2420 3045 
Q 2306 3072 2169 3072 
Q 1681 3072 1420 2755 
Q 1159 2438 1159 1844 
L 1159 0 
L 581 0 
L 581 3500 
L 1159 3500 
L 1159 2956 
Q 1341 3275 1631 3429 
Q 1922 3584 2338 3584 
Q 2397 3584 2469 3576 
Q 2541 3569 2628 3553 
L 2631 2963 
z
" transform="scale(0.015625)"/>
      </defs>
      <use xlink:href="#DejaVuSans-65"/>
      <use xlink:href="#DejaVuSans-65" transform="translate(61.523438 0)"/>
      <use xlink:href="#DejaVuSans-72" transform="translate(123.046875 0)"/>
      <use xlink:href="#DejaVuSans-69" transform="translate(164.160156 0)"/>
      <use xlink:href="#DejaVuSans-65" transform="translate(191.943359 0)"/>
     </g>
    </g>
    <g id="line2d_18">
     <path d="M 47.420552 45.894928 
L 57.420552 45.894928 
L 67.420552 45.894928 
" style="fill: none; stroke: #ff7f0e; stroke-width: 1.5; stroke-linecap: square"/>
    </g>
    <g id="text_21">
     <!-- non_eerie -->
     <g transform="translate(75.420552 49.394928) scale(0.1 -0.1)">
      <defs>
       <path id="DejaVuSans-6f" d="M 1959 3097 
Q 1497 3097 1228 2736 
Q 959 2375 959 1747 
Q 959 1119 1226 758 
Q 1494 397 1959 397 
Q 2419 397 2687 759 
Q 2956 1122 2956 1747 
Q 2956 2369 2687 2733 
Q 2419 3097 1959 3097 
z
M 1959 3584 
Q 2709 3584 3137 3096 
Q 3566 2609 3566 1747 
Q 3566 888 3137 398 
Q 2709 -91 1959 -91 
Q 1206 -91 779 398 
Q 353 888 353 1747 
Q 353 2609 779 3096 
Q 1206 3584 1959 3584 
z
" transform="scale(0.015625)"/>
       <path id="DejaVuSans-5f" d="M 3263 -1063 
L 3263 -1509 
L -63 -1509 
L -63 -1063 
L 3263 -1063 
z
" transform="scale(0.015625)"/>
      </defs>
      <use xlink:href="#DejaVuSans-6e"/>
      <use xlink:href="#DejaVuSans-6f" transform="translate(63.378906 0)"/>
      <use xlink:href="#DejaVuSans-6e" transform="translate(124.560547 0)"/>
      <use xlink:href="#DejaVuSans-5f" transform="translate(187.939453 0)"/>
      <use xlink:href="#DejaVuSans-65" transform="translate(237.939453 0)"/>
      <use xlink:href="#DejaVuSans-65" transform="translate(299.462891 0)"/>
      <use xlink:href="#DejaVuSans-72" transform="translate(360.986328 0)"/>
      <use xlink:href="#DejaVuSans-69" transform="translate(402.099609 0)"/>
      <use xlink:href="#DejaVuSans-65" transform="translate(429.882812 0)"/>
     </g>
    </g>
   </g>
   <g id="FillBetweenPolyCollection_1">
    <defs>
     <path id="m182f76bc25" d="M 38.420552 -214.743658 
L 38.420552 -201.107501 
L 40.123593 -210.889704 
L 41.826633 -221.31606 
L 43.529673 -227.870797 
L 45.232713 -227.703215 
L 46.935753 -220.380706 
L 48.638793 -209.524749 
L 50.341833 -200.723818 
L 52.044873 -199.013432 
L 53.747913 -204.331713 
L 55.450953 -214.223681 
L 57.153993 -223.629379 
L 58.857033 -229.062232 
L 60.560073 -228.454631 
L 62.263113 -223.006215 
L 63.966154 -215.609987 
L 65.669194 -210.297957 
L 67.372234 -208.325471 
L 69.075274 -210.318004 
L 70.778314 -216.47816 
L 72.481354 -222.700299 
L 74.184394 -226.361661 
L 75.887434 -224.889286 
L 77.590474 -218.764564 
L 79.293514 -209.489533 
L 80.996554 -201.321623 
L 82.699594 -196.346204 
L 84.402634 -196.082837 
L 86.105674 -201.881406 
L 87.808714 -210.557034 
L 89.511755 -219.149689 
L 91.214795 -226.563087 
L 92.917835 -230.615729 
L 94.620875 -231.115715 
L 96.323915 -227.479316 
L 98.026955 -220.159178 
L 99.729995 -215.162442 
L 101.433035 -213.584319 
L 103.136075 -217.07014 
L 104.839115 -225.403233 
L 106.542155 -234.301568 
L 108.245195 -238.948968 
L 109.948235 -237.755345 
L 111.651275 -229.292517 
L 113.354315 -217.971966 
L 115.057356 -209.898963 
L 116.760396 -208.078026 
L 118.463436 -211.635328 
L 120.166476 -217.846603 
L 121.869516 -221.603568 
L 123.572556 -221.724491 
L 125.275596 -218.171722 
L 126.978636 -217.728979 
L 128.681676 -221.604917 
L 130.384716 -229.64634 
L 132.087756 -239.054352 
L 133.790796 -245.092618 
L 135.493836 -242.703123 
L 137.196876 -233.728994 
L 138.899916 -222.515056 
L 140.602957 -213.438604 
L 142.305997 -208.090467 
L 144.009037 -206.650741 
L 145.712077 -207.910796 
L 147.415117 -209.357367 
L 149.118157 -208.26671 
L 150.821197 -206.068137 
L 152.524237 -202.085754 
L 154.227277 -196.837896 
L 155.930317 -191.350274 
L 157.633357 -187.999147 
L 159.336397 -188.939704 
L 161.039437 -195.132251 
L 162.742477 -203.895373 
L 164.445517 -209.302236 
L 166.148558 -209.197023 
L 167.851598 -201.509062 
L 169.554638 -190.084502 
L 171.257678 -180.830406 
L 172.960718 -179.702893 
L 174.663758 -187.710564 
L 176.366798 -203.00712 
L 178.069838 -218.959591 
L 179.772878 -228.508472 
L 181.475918 -230.211208 
L 183.178958 -229.836837 
L 184.881998 -232.479756 
L 186.585038 -241.662684 
L 188.288078 -258.153796 
L 189.991118 -280.151577 
L 191.694159 -303.403424 
L 193.397199 -323.19017 
L 195.100239 -339.537364 
L 196.803279 -352.307892 
L 198.506319 -362.662358 
L 200.209359 -371.642864 
L 201.912399 -379.510581 
L 203.615439 -385.633492 
L 205.318479 -390.339064 
L 207.021519 -393.003429 
L 208.724559 -393.033324 
L 210.427599 -387.788643 
L 212.130639 -378.182943 
L 213.833679 -366.661811 
L 215.536719 -353.774001 
L 217.23976 -343.336388 
L 218.9428 -335.591316 
L 220.64584 -329.222059 
L 222.34888 -319.455378 
L 224.05192 -305.172896 
L 225.75496 -288.080772 
L 227.458 -272.035223 
L 229.16104 -260.093713 
L 230.86408 -254.488865 
L 232.56712 -253.219219 
L 234.27016 -254.325094 
L 235.9732 -255.326188 
L 237.67624 -253.264944 
L 239.37928 -247.100753 
L 241.08232 -238.835065 
L 242.785361 -230.25049 
L 244.488401 -222.867206 
L 246.191441 -217.092026 
L 247.894481 -214.47425 
L 249.597521 -215.04932 
L 251.300561 -219.345609 
L 253.003601 -224.036749 
L 254.706641 -227.71335 
L 256.409681 -229.955422 
L 258.112721 -231.238589 
L 259.815761 -234.747033 
L 261.518801 -243.003413 
L 263.221841 -253.906069 
L 264.924881 -266.346903 
L 266.627921 -276.319726 
L 268.330962 -281.476148 
L 270.034002 -281.481832 
L 271.737042 -281.512208 
L 273.440082 -284.172829 
L 275.143122 -289.9949 
L 276.846162 -296.630531 
L 278.549202 -302.322781 
L 280.252242 -304.714389 
L 281.955282 -303.423808 
L 283.658322 -301.864393 
L 285.361362 -302.060496 
L 287.064402 -303.881444 
L 288.767442 -306.10853 
L 290.470482 -308.109782 
L 292.173522 -308.05053 
L 293.876563 -305.981945 
L 295.579603 -302.225512 
L 297.282643 -297.92377 
L 298.985683 -292.999643 
L 300.688723 -287.124646 
L 302.391763 -280.941912 
L 304.094803 -275.97062 
L 305.797843 -273.585864 
L 307.500883 -277.251612 
L 309.203923 -286.451464 
L 310.906963 -298.940433 
L 312.610003 -309.10472 
L 314.313043 -313.887537 
L 316.016083 -312.193358 
L 317.719123 -305.240752 
L 319.422164 -295.294165 
L 321.125204 -285.830387 
L 322.828244 -279.258758 
L 324.531284 -276.115364 
L 326.234324 -275.53005 
L 327.937364 -275.317085 
L 329.640404 -273.477216 
L 331.343444 -269.586114 
L 333.046484 -262.344222 
L 334.749524 -252.919022 
L 336.452564 -243.875751 
L 338.155604 -238.858681 
L 339.858644 -239.833618 
L 341.561684 -245.831094 
L 343.264724 -254.415613 
L 344.967765 -261.543401 
L 346.670805 -265.668444 
L 348.373845 -267.790752 
L 350.076885 -267.887405 
L 351.779925 -268.454355 
L 353.482965 -271.231022 
L 355.186005 -274.910662 
L 356.889045 -278.512908 
L 358.592085 -280.501391 
L 360.295125 -280.636122 
L 361.998165 -280.476509 
L 363.701205 -281.488353 
L 365.404245 -284.447245 
L 367.107285 -288.607918 
L 368.810326 -292.065697 
L 370.513366 -293.875654 
L 372.216406 -295.317408 
L 373.919446 -298.336079 
L 375.622486 -303.079578 
L 377.325526 -307.455979 
L 379.028566 -309.922334 
L 380.731606 -308.64953 
L 382.434646 -304.451787 
L 384.137686 -299.928818 
L 385.840726 -298.196291 
L 387.543766 -299.487994 
L 389.246806 -302.7186 
L 390.949846 -306.368658 
L 392.652886 -308.561641 
L 394.355927 -310.71108 
L 396.058967 -311.821945 
L 397.762007 -312.048263 
L 399.465047 -311.85296 
L 401.168087 -308.928954 
L 402.871127 -302.45034 
L 404.574167 -293.429754 
L 406.277207 -285.481937 
L 407.980247 -281.118401 
L 409.683287 -281.572643 
L 411.386327 -284.876478 
L 413.089367 -289.150745 
L 414.792407 -290.819152 
L 416.495447 -289.490026 
L 418.198487 -286.561226 
L 419.901528 -284.117466 
L 421.604568 -284.081738 
L 423.307608 -285.165999 
L 425.010648 -286.014365 
L 426.713688 -283.972336 
L 428.416728 -279.617742 
L 430.119768 -272.155116 
L 431.822808 -265.340546 
L 433.525848 -260.850118 
L 435.228888 -259.925403 
L 436.931928 -261.103766 
L 438.634968 -263.112467 
L 440.338008 -264.591506 
L 442.041048 -265.005224 
L 443.744088 -264.977205 
L 445.447129 -266.155008 
L 447.150169 -268.141984 
L 448.853209 -271.03512 
L 450.556249 -273.382459 
L 452.259289 -274.119236 
L 453.962329 -272.483278 
L 455.665369 -269.649446 
L 457.368409 -267.753547 
L 459.071449 -266.925266 
L 460.774489 -268.042162 
L 462.477529 -270.458867 
L 464.180569 -270.832798 
L 465.883609 -267.669394 
L 467.586649 -260.442434 
L 469.289689 -251.958602 
L 470.99273 -247.558269 
L 472.69577 -249.651105 
L 474.39881 -257.817518 
L 476.10185 -268.332969 
L 477.80489 -273.595607 
L 479.50793 -270.624795 
L 481.21097 -260.961654 
L 482.91401 -250.117303 
L 484.61705 -244.045119 
L 486.32009 -246.475603 
L 488.02313 -255.73162 
L 489.72617 -266.648128 
L 491.42921 -272.915295 
L 493.13225 -273.286532 
L 494.83529 -270.349073 
L 496.538331 -266.997748 
L 498.241371 -267.255621 
L 499.944411 -269.385265 
L 501.647451 -271.949952 
L 503.350491 -271.44454 
L 505.053531 -267.614628 
L 506.756571 -262.478915 
L 508.459611 -260.956352 
L 510.162651 -265.72075 
L 511.865691 -274.867326 
L 513.568731 -284.464745 
L 515.271771 -288.338609 
L 516.974811 -283.273837 
L 518.677851 -271.240734 
L 520.380891 -258.077032 
L 522.083932 -249.414946 
L 523.786972 -248.470514 
L 525.490012 -253.513062 
L 527.193052 -259.934336 
L 528.896092 -263.322832 
L 530.599132 -260.277257 
L 532.302172 -253.420389 
L 534.005212 -247.732793 
L 535.708252 -245.555882 
L 537.411292 -248.068228 
L 539.114332 -252.784855 
L 540.817372 -256.456637 
L 542.520412 -255.883685 
L 544.223452 -251.228976 
L 545.926492 -244.869659 
L 547.629533 -239.563595 
L 549.332573 -236.730495 
L 551.035613 -235.693474 
L 552.738653 -234.085331 
L 554.441693 -231.439752 
L 556.144733 -226.863435 
L 557.847773 -222.394505 
L 559.550813 -218.706452 
L 561.253853 -216.918518 
L 561.253853 -240.228945 
L 561.253853 -240.228945 
L 559.550813 -241.619363 
L 557.847773 -245.604874 
L 556.144733 -250.179254 
L 554.441693 -254.34353 
L 552.738653 -256.421894 
L 551.035613 -257.55883 
L 549.332573 -259.007231 
L 547.629533 -262.478176 
L 545.926492 -267.958534 
L 544.223452 -274.876804 
L 542.520412 -279.698234 
L 540.817372 -281.050207 
L 539.114332 -277.024672 
L 537.411292 -271.551249 
L 535.708252 -268.754467 
L 534.005212 -270.956846 
L 532.302172 -276.984968 
L 530.599132 -284.672917 
L 528.896092 -288.111066 
L 527.193052 -285.084082 
L 525.490012 -277.995699 
L 523.786972 -272.55845 
L 522.083932 -273.366367 
L 520.380891 -282.569061 
L 518.677851 -295.725818 
L 516.974811 -307.4053 
L 515.271771 -311.97112 
L 513.568731 -308.505614 
L 511.865691 -299.111071 
L 510.162651 -290.246095 
L 508.459611 -286.828092 
L 506.756571 -288.466062 
L 505.053531 -293.165212 
L 503.350491 -296.852535 
L 501.647451 -296.374957 
L 499.944411 -293.630188 
L 498.241371 -291.312501 
L 496.538331 -291.352405 
L 494.83529 -295.152677 
L 493.13225 -298.833659 
L 491.42921 -297.818623 
L 489.72617 -290.238449 
L 488.02313 -278.783141 
L 486.32009 -269.454882 
L 484.61705 -267.087661 
L 482.91401 -273.549995 
L 481.21097 -284.424643 
L 479.50793 -293.949659 
L 477.80489 -296.846926 
L 476.10185 -291.425465 
L 474.39881 -281.519605 
L 472.69577 -274.068916 
L 470.99273 -272.823829 
L 469.289689 -277.939332 
L 467.586649 -285.93756 
L 465.883609 -293.029514 
L 464.180569 -296.864303 
L 462.477529 -296.825943 
L 460.774489 -295.095591 
L 459.071449 -294.847515 
L 457.368409 -296.246869 
L 455.665369 -298.532972 
L 453.962329 -301.526925 
L 452.259289 -302.837959 
L 450.556249 -301.830287 
L 448.853209 -298.799266 
L 447.150169 -295.166418 
L 445.447129 -293.02527 
L 443.744088 -292.276836 
L 442.041048 -292.697735 
L 440.338008 -292.660548 
L 438.634968 -292.30802 
L 436.931928 -291.522326 
L 435.228888 -291.086702 
L 433.525848 -292.221545 
L 431.822808 -296.295011 
L 430.119768 -302.143806 
L 428.416728 -308.310666 
L 426.713688 -311.838045 
L 425.010648 -313.501578 
L 423.307608 -313.23707 
L 421.604568 -313.119518 
L 419.901528 -313.817984 
L 418.198487 -315.828374 
L 416.495447 -318.20681 
L 414.792407 -319.128841 
L 413.089367 -316.777032 
L 411.386327 -312.679608 
L 409.683287 -310.018227 
L 407.980247 -310.992487 
L 406.277207 -315.72616 
L 404.574167 -323.7729 
L 402.871127 -332.05784 
L 401.168087 -337.859661 
L 399.465047 -341.10693 
L 397.762007 -340.813604 
L 396.058967 -340.986143 
L 394.355927 -341.415553 
L 392.652886 -340.342113 
L 390.949846 -337.678858 
L 389.246806 -333.070837 
L 387.543766 -328.713841 
L 385.840726 -326.447163 
L 384.137686 -327.321029 
L 382.434646 -331.460176 
L 380.731606 -336.533994 
L 379.028566 -338.736754 
L 377.325526 -336.930671 
L 375.622486 -333.105493 
L 373.919446 -328.251597 
L 372.216406 -324.627723 
L 370.513366 -321.898921 
L 368.810326 -318.731155 
L 367.107285 -315.08211 
L 365.404245 -310.64926 
L 363.701205 -308.07899 
L 361.998165 -307.491844 
L 360.295125 -308.969404 
L 358.592085 -309.546153 
L 356.889045 -308.617589 
L 355.186005 -305.93728 
L 353.482965 -301.904239 
L 351.779925 -298.308541 
L 350.076885 -297.094105 
L 348.373845 -295.992367 
L 346.670805 -293.144551 
L 344.967765 -287.943184 
L 343.264724 -280.006795 
L 341.561684 -271.527699 
L 339.858644 -265.333376 
L 338.155604 -264.31212 
L 336.452564 -269.427001 
L 334.749524 -278.211849 
L 333.046484 -287.668701 
L 331.343444 -295.625332 
L 329.640404 -300.199816 
L 327.937364 -302.445235 
L 326.234324 -303.440545 
L 324.531284 -303.819706 
L 322.828244 -306.90024 
L 321.125204 -313.120776 
L 319.422164 -322.44919 
L 317.719123 -331.734445 
L 316.016083 -338.261244 
L 314.313043 -339.595798 
L 312.610003 -335.612389 
L 310.906963 -325.335415 
L 309.203923 -312.890655 
L 307.500883 -302.946259 
L 305.797843 -298.231168 
L 304.094803 -299.997182 
L 302.391763 -305.04314 
L 300.688723 -311.329725 
L 298.985683 -317.096416 
L 297.282643 -322.327953 
L 295.579603 -326.691895 
L 293.876563 -330.66006 
L 292.173522 -333.722852 
L 290.470482 -334.277629 
L 288.767442 -333.385255 
L 287.064402 -331.522448 
L 285.361362 -330.520182 
L 283.658322 -330.390941 
L 281.955282 -332.033305 
L 280.252242 -332.569712 
L 278.549202 -329.471974 
L 276.846162 -323.292177 
L 275.143122 -316.583003 
L 273.440082 -311.207782 
L 271.737042 -308.67357 
L 270.034002 -308.490383 
L 268.330962 -307.219518 
L 266.627921 -301.954832 
L 264.924881 -291.712753 
L 263.221841 -279.834425 
L 261.518801 -269.538644 
L 259.815761 -262.275841 
L 258.112721 -258.505202 
L 256.409681 -256.785215 
L 254.706641 -253.507866 
L 253.003601 -249.081362 
L 251.300561 -244.10993 
L 249.597521 -240.198402 
L 247.894481 -239.702332 
L 246.191441 -242.528737 
L 244.488401 -248.045066 
L 242.785361 -255.774591 
L 241.08232 -263.640402 
L 239.37928 -271.0759 
L 237.67624 -276.481812 
L 235.9732 -278.549693 
L 234.27016 -278.480018 
L 232.56712 -278.08467 
L 230.86408 -279.87383 
L 229.16104 -285.073477 
L 227.458 -296.203045 
L 225.75496 -311.546453 
L 224.05192 -327.626809 
L 222.34888 -341.401901 
L 220.64584 -352.112088 
L 218.9428 -359.749583 
L 217.23976 -367.610832 
L 215.536719 -378.547959 
L 213.833679 -390.700519 
L 212.130639 -401.418833 
L 210.427599 -409.340623 
L 208.724559 -413.638977 
L 207.021519 -413.881635 
L 205.318479 -411.129352 
L 203.615439 -406.023879 
L 201.912399 -399.959718 
L 200.209359 -392.604075 
L 198.506319 -383.383108 
L 196.803279 -373.235296 
L 195.100239 -360.516156 
L 193.397199 -344.550969 
L 191.694159 -325.212995 
L 189.991118 -302.11726 
L 188.288078 -279.441092 
L 186.585038 -261.178354 
L 184.881998 -251.463363 
L 183.178958 -248.27256 
L 181.475918 -248.618196 
L 179.772878 -246.19034 
L 178.069838 -236.731023 
L 176.366798 -222.278082 
L 174.663758 -207.162147 
L 172.960718 -198.802763 
L 171.257678 -199.150348 
L 169.554638 -207.442932 
L 167.851598 -218.727858 
L 166.148558 -226.639823 
L 164.445517 -227.931758 
L 162.742477 -222.790892 
L 161.039437 -214.788262 
L 159.336397 -209.767613 
L 157.633357 -209.205753 
L 155.930317 -211.727741 
L 154.227277 -216.035233 
L 152.524237 -220.106506 
L 150.821197 -222.303296 
L 149.118157 -223.382627 
L 147.415117 -223.412299 
L 145.712077 -221.979806 
L 144.009037 -221.160136 
L 142.305997 -222.729179 
L 140.602957 -228.528586 
L 138.899916 -238.266269 
L 137.196876 -249.138438 
L 135.493836 -257.109897 
L 133.790796 -259.293026 
L 132.087756 -254.23791 
L 130.384716 -245.017503 
L 128.681676 -236.649809 
L 126.978636 -232.430552 
L 125.275596 -232.8355 
L 123.572556 -236.016207 
L 121.869516 -235.806377 
L 120.166476 -231.742839 
L 118.463436 -224.76355 
L 116.760396 -220.697286 
L 115.057356 -222.124508 
L 113.354315 -229.776827 
L 111.651275 -240.522095 
L 109.948235 -248.498453 
L 108.245195 -250.110461 
L 106.542155 -245.195707 
L 104.839115 -236.118375 
L 103.136075 -227.059113 
L 101.433035 -223.683405 
L 99.729995 -225.916113 
L 98.026955 -231.191186 
L 96.323915 -238.704847 
L 94.620875 -242.918885 
L 92.917835 -242.492961 
L 91.214795 -238.149777 
L 89.511755 -230.586225 
L 87.808714 -221.806177 
L 86.105674 -213.402049 
L 84.402634 -207.117353 
L 82.699594 -206.999017 
L 80.996554 -211.297262 
L 79.293514 -219.299831 
L 77.590474 -229.298377 
L 75.887434 -236.031232 
L 74.184394 -237.301347 
L 72.481354 -233.432827 
L 70.778314 -226.644274 
L 69.075274 -220.380147 
L 67.372234 -218.809724 
L 65.669194 -221.839027 
L 63.966154 -227.692819 
L 62.263113 -234.867801 
L 60.560073 -239.534244 
L 58.857033 -239.727564 
L 57.153993 -234.710853 
L 55.450953 -226.006287 
L 53.747913 -216.838079 
L 52.044873 -212.66446 
L 50.341833 -215.519223 
L 48.638793 -224.475365 
L 46.935753 -235.096148 
L 45.232713 -242.182296 
L 43.529673 -242.275659 
L 41.826633 -235.172173 
L 40.123593 -224.142862 
L 38.420552 -214.743658 
z
" style="stroke: #1f77b4; stroke-opacity: 0.3"/>
    </defs>
    <g>
     <use xlink:href="#m182f76bc25" x="0" y="432" style="fill: #1f77b4; fill-opacity: 0.3; stroke: #1f77b4; stroke-opacity: 0.3"/>
    </g>
   </g>
   <g id="FillBetweenPolyCollection_2">
    <defs>
     <path id="m8071a43d1b" d="M 38.420552 -231.134928 
L 38.420552 -223.897808 
L 40.123593 -229.012293 
L 41.826633 -236.113177 
L 43.529673 -240.95417 
L 45.232713 -241.41642 
L 46.935753 -237.518267 
L 48.638793 -231.149052 
L 50.341833 -226.30603 
L 52.044873 -224.908082 
L 53.747913 -227.253724 
L 55.450953 -231.635618 
L 57.153993 -234.472348 
L 58.857033 -233.898479 
L 60.560073 -229.500517 
L 62.263113 -223.219868 
L 63.966154 -218.232528 
L 65.669194 -216.091495 
L 67.372234 -216.236729 
L 69.075274 -217.035531 
L 70.778314 -216.775081 
L 72.481354 -215.409482 
L 74.184394 -213.375732 
L 75.887434 -211.242139 
L 77.590474 -209.971257 
L 79.293514 -210.271759 
L 80.996554 -211.364421 
L 82.699594 -212.690183 
L 84.402634 -215.069779 
L 86.105674 -217.931732 
L 87.808714 -221.028684 
L 89.511755 -223.502061 
L 91.214795 -224.320733 
L 92.917835 -222.730552 
L 94.620875 -219.664637 
L 96.323915 -216.914021 
L 98.026955 -215.832953 
L 99.729995 -216.770917 
L 101.433035 -218.935525 
L 103.136075 -220.700133 
L 104.839115 -221.116637 
L 106.542155 -220.072547 
L 108.245195 -219.5489 
L 109.948235 -220.26921 
L 111.651275 -221.532791 
L 113.354315 -222.275856 
L 115.057356 -221.193903 
L 116.760396 -217.497533 
L 118.463436 -212.133407 
L 120.166476 -207.717512 
L 121.869516 -206.543973 
L 123.572556 -208.854333 
L 125.275596 -213.376241 
L 126.978636 -217.78484 
L 128.681676 -220.031743 
L 130.384716 -218.425592 
L 132.087756 -214.341509 
L 133.790796 -210.21173 
L 135.493836 -207.062754 
L 137.196876 -205.384941 
L 138.899916 -204.82397 
L 140.602957 -204.199349 
L 142.305997 -202.92069 
L 144.009037 -201.327372 
L 145.712077 -199.690389 
L 147.415117 -198.747639 
L 149.118157 -198.513473 
L 150.821197 -198.78238 
L 152.524237 -199.068844 
L 154.227277 -199.261978 
L 155.930317 -199.957495 
L 157.633357 -200.970968 
L 159.336397 -203.134768 
L 161.039437 -204.313839 
L 162.742477 -203.541271 
L 164.445517 -200.287026 
L 166.148558 -193.799014 
L 167.851598 -185.875481 
L 169.554638 -178.107986 
L 171.257678 -172.681154 
L 172.960718 -170.748559 
L 174.663758 -171.554189 
L 176.366798 -174.988485 
L 178.069838 -180.016942 
L 179.772878 -185.849616 
L 181.475918 -191.925968 
L 183.178958 -199.378826 
L 184.881998 -210.195045 
L 186.585038 -224.799491 
L 188.288078 -242.732442 
L 189.991118 -262.467387 
L 191.694159 -282.043344 
L 193.397199 -300.328788 
L 195.100239 -317.262773 
L 196.803279 -333.905716 
L 198.506319 -350.698187 
L 200.209359 -367.423724 
L 201.912399 -382.228239 
L 203.615439 -393.125362 
L 205.318479 -398.917018 
L 207.021519 -400.037091 
L 208.724559 -397.903716 
L 210.427599 -394.071223 
L 212.130639 -388.51268 
L 213.833679 -382.020523 
L 215.536719 -375.336919 
L 217.23976 -368.047154 
L 218.9428 -359.568796 
L 220.64584 -350.421986 
L 222.34888 -340.225694 
L 224.05192 -326.705149 
L 225.75496 -311.602299 
L 227.458 -294.917043 
L 229.16104 -278.164228 
L 230.86408 -262.110885 
L 232.56712 -248.470133 
L 234.27016 -237.657095 
L 235.9732 -230.308347 
L 237.67624 -225.894244 
L 239.37928 -223.338723 
L 241.08232 -222.205942 
L 242.785361 -221.890331 
L 244.488401 -221.967676 
L 246.191441 -221.68925 
L 247.894481 -220.671607 
L 249.597521 -219.556921 
L 251.300561 -218.647476 
L 253.003601 -219.200271 
L 254.706641 -221.991732 
L 256.409681 -226.688638 
L 258.112721 -232.833023 
L 259.815761 -239.093824 
L 261.518801 -244.49647 
L 263.221841 -248.15387 
L 264.924881 -250.264186 
L 266.627921 -251.776174 
L 268.330962 -253.693288 
L 270.034002 -256.255837 
L 271.737042 -258.985576 
L 273.440082 -261.980991 
L 275.143122 -264.698849 
L 276.846162 -267.598766 
L 278.549202 -271.448518 
L 280.252242 -276.16963 
L 281.955282 -281.476552 
L 283.658322 -286.207948 
L 285.361362 -289.223394 
L 287.064402 -289.965728 
L 288.767442 -288.563758 
L 290.470482 -285.50868 
L 292.173522 -280.58336 
L 293.876563 -275.708991 
L 295.579603 -271.504992 
L 297.282643 -268.779147 
L 298.985683 -269.240322 
L 300.688723 -272.940371 
L 302.391763 -279.236821 
L 304.094803 -286.228064 
L 305.797843 -290.522849 
L 307.500883 -290.905282 
L 309.203923 -286.931309 
L 310.906963 -280.769226 
L 312.610003 -274.77823 
L 314.313043 -271.748203 
L 316.016083 -272.05606 
L 317.719123 -273.759055 
L 319.422164 -274.782177 
L 321.125204 -274.762153 
L 322.828244 -273.397487 
L 324.531284 -271.767287 
L 326.234324 -270.934087 
L 327.937364 -270.659057 
L 329.640404 -269.688909 
L 331.343444 -267.200223 
L 333.046484 -262.446774 
L 334.749524 -257.466578 
L 336.452564 -254.48596 
L 338.155604 -255.480544 
L 339.858644 -260.081777 
L 341.561684 -266.15764 
L 343.264724 -270.556829 
L 344.967765 -271.781156 
L 346.670805 -269.341745 
L 348.373845 -265.347145 
L 350.076885 -261.768078 
L 351.779925 -260.399066 
L 353.482965 -261.094933 
L 355.186005 -261.977463 
L 356.889045 -261.716468 
L 358.592085 -259.450284 
L 360.295125 -256.277555 
L 361.998165 -254.100009 
L 363.701205 -255.260726 
L 365.404245 -259.841663 
L 367.107285 -267.463038 
L 368.810326 -275.038164 
L 370.513366 -280.52466 
L 372.216406 -282.705117 
L 373.919446 -281.384518 
L 375.622486 -278.935148 
L 377.325526 -276.458233 
L 379.028566 -275.518242 
L 380.731606 -275.584816 
L 382.434646 -276.461848 
L 384.137686 -275.812722 
L 385.840726 -273.552489 
L 387.543766 -270.330448 
L 389.246806 -267.48832 
L 390.949846 -266.089386 
L 392.652886 -265.864298 
L 394.355927 -265.562112 
L 396.058967 -264.258078 
L 397.762007 -260.641449 
L 399.465047 -255.225501 
L 401.168087 -250.170026 
L 402.871127 -246.932131 
L 404.574167 -245.211682 
L 406.277207 -244.24024 
L 407.980247 -242.922423 
L 409.683287 -240.895678 
L 411.386327 -238.452553 
L 413.089367 -236.666886 
L 414.792407 -236.219905 
L 416.495447 -237.120138 
L 418.198487 -237.658146 
L 419.901528 -237.748275 
L 421.604568 -237.49695 
L 423.307608 -237.620695 
L 425.010648 -239.16958 
L 426.713688 -241.573564 
L 428.416728 -243.020652 
L 430.119768 -242.67543 
L 431.822808 -239.693397 
L 433.525848 -234.579064 
L 435.228888 -229.054413 
L 436.931928 -224.961186 
L 438.634968 -222.312671 
L 440.338008 -220.541092 
L 442.041048 -218.864569 
L 443.744088 -216.598747 
L 445.447129 -213.931677 
L 447.150169 -211.795869 
L 448.853209 -209.993237 
L 450.556249 -209.101787 
L 452.259289 -209.345881 
L 453.962329 -209.900854 
L 455.665369 -211.308577 
L 457.368409 -213.631118 
L 459.071449 -215.874324 
L 460.774489 -217.232869 
L 462.477529 -216.908954 
L 464.180569 -213.742297 
L 465.883609 -208.212731 
L 467.586649 -201.894621 
L 469.289689 -195.791793 
L 470.99273 -191.584948 
L 472.69577 -189.092256 
L 474.39881 -187.900754 
L 476.10185 -186.977556 
L 477.80489 -185.395739 
L 479.50793 -183.288262 
L 481.21097 -181.417469 
L 482.91401 -179.812179 
L 484.61705 -178.838209 
L 486.32009 -178.56743 
L 488.02313 -179.428435 
L 489.72617 -181.605651 
L 491.42921 -184.153921 
L 493.13225 -186.7956 
L 494.83529 -189.197407 
L 496.538331 -191.979469 
L 498.241371 -194.751143 
L 499.944411 -197.390864 
L 501.647451 -199.302715 
L 503.350491 -200.188153 
L 505.053531 -199.049311 
L 506.756571 -195.575291 
L 508.459611 -190.859531 
L 510.162651 -185.705389 
L 511.865691 -182.115676 
L 513.568731 -180.288263 
L 515.271771 -180.062175 
L 516.974811 -180.081062 
L 518.677851 -179.412806 
L 520.380891 -178.187655 
L 522.083932 -176.457926 
L 523.786972 -175.390426 
L 525.490012 -175.908283 
L 527.193052 -177.84144 
L 528.896092 -180.487667 
L 530.599132 -183.329536 
L 532.302172 -185.534909 
L 534.005212 -187.117878 
L 535.708252 -188.119538 
L 537.411292 -188.54458 
L 539.114332 -188.037198 
L 540.817372 -186.025072 
L 542.520412 -182.930479 
L 544.223452 -179.704472 
L 545.926492 -177.297777 
L 547.629533 -176.267988 
L 549.332573 -176.204727 
L 551.035613 -176.998086 
L 552.738653 -178.490869 
L 554.441693 -179.483853 
L 556.144733 -180.129457 
L 557.847773 -180.393476 
L 559.550813 -179.671726 
L 561.253853 -178.058756 
L 561.253853 -190.143256 
L 561.253853 -190.143256 
L 559.550813 -191.895408 
L 557.847773 -192.375138 
L 556.144733 -191.875491 
L 554.441693 -191.113365 
L 552.738653 -189.749482 
L 551.035613 -188.462386 
L 549.332573 -187.83963 
L 547.629533 -187.575184 
L 545.926492 -188.331042 
L 544.223452 -190.275505 
L 542.520412 -192.947118 
L 540.817372 -196.00021 
L 539.114332 -198.131767 
L 537.411292 -199.078782 
L 535.708252 -199.091846 
L 534.005212 -198.285109 
L 532.302172 -196.580996 
L 530.599132 -194.175776 
L 528.896092 -191.335944 
L 527.193052 -188.44771 
L 525.490012 -186.539869 
L 523.786972 -186.293577 
L 522.083932 -187.289584 
L 520.380891 -189.118392 
L 518.677851 -190.475429 
L 516.974811 -190.73896 
L 515.271771 -190.510887 
L 513.568731 -190.61767 
L 511.865691 -192.232739 
L 510.162651 -195.978352 
L 508.459611 -201.244019 
L 506.756571 -206.302004 
L 505.053531 -209.783694 
L 503.350491 -210.842026 
L 501.647451 -209.838092 
L 499.944411 -208.025879 
L 498.241371 -205.892656 
L 496.538331 -203.397985 
L 494.83529 -200.975976 
L 493.13225 -198.134895 
L 491.42921 -195.356571 
L 489.72617 -192.380394 
L 488.02313 -190.281011 
L 486.32009 -189.092758 
L 484.61705 -189.223274 
L 482.91401 -190.286828 
L 481.21097 -192.217933 
L 479.50793 -194.372915 
L 477.80489 -196.744821 
L 476.10185 -198.518855 
L 474.39881 -199.382121 
L 472.69577 -200.654614 
L 470.99273 -202.863692 
L 469.289689 -207.037818 
L 467.586649 -213.221464 
L 465.883609 -219.895844 
L 464.180569 -225.724385 
L 462.477529 -229.223722 
L 460.774489 -229.717051 
L 459.071449 -228.298512 
L 457.368409 -225.874004 
L 455.665369 -223.539587 
L 453.962329 -221.821765 
L 452.259289 -220.69314 
L 450.556249 -220.590169 
L 448.853209 -221.100048 
L 447.150169 -222.86907 
L 445.447129 -225.135481 
L 443.744088 -227.98096 
L 442.041048 -230.204487 
L 440.338008 -231.646323 
L 438.634968 -233.238732 
L 436.931928 -235.791838 
L 435.228888 -239.710068 
L 433.525848 -244.911156 
L 431.822808 -249.892493 
L 430.119768 -252.749591 
L 428.416728 -253.173978 
L 426.713688 -251.834214 
L 425.010648 -249.898168 
L 423.307608 -248.681109 
L 421.604568 -248.874418 
L 419.901528 -249.064863 
L 418.198487 -249.132373 
L 416.495447 -248.498773 
L 414.792407 -247.524508 
L 413.089367 -247.57057 
L 411.386327 -249.615289 
L 409.683287 -252.384466 
L 407.980247 -254.874205 
L 406.277207 -256.413685 
L 404.574167 -257.246073 
L 402.871127 -258.947102 
L 401.168087 -262.474714 
L 399.465047 -267.482572 
L 397.762007 -272.971596 
L 396.058967 -276.714163 
L 394.355927 -278.391608 
L 392.652886 -278.652449 
L 390.949846 -278.705341 
L 389.246806 -280.030784 
L 387.543766 -282.84515 
L 385.840726 -285.920066 
L 384.137686 -287.9684 
L 382.434646 -288.688183 
L 380.731606 -288.274767 
L 379.028566 -288.427949 
L 377.325526 -289.734108 
L 375.622486 -292.213704 
L 373.919446 -294.824566 
L 372.216406 -295.844828 
L 370.513366 -293.539747 
L 368.810326 -287.99169 
L 367.107285 -280.377234 
L 365.404245 -273.227305 
L 363.701205 -268.908764 
L 361.998165 -267.843892 
L 360.295125 -269.839713 
L 358.592085 -272.883015 
L 356.889045 -275.060517 
L 355.186005 -275.185228 
L 353.482965 -273.935016 
L 351.779925 -273.1972 
L 350.076885 -274.650663 
L 348.373845 -278.205815 
L 346.670805 -282.16953 
L 344.967765 -284.151584 
L 343.264724 -282.630378 
L 341.561684 -278.207708 
L 339.858644 -272.448312 
L 338.155604 -267.879055 
L 336.452564 -267.104813 
L 334.749524 -270.364058 
L 333.046484 -275.251543 
L 331.343444 -279.746317 
L 329.640404 -282.560866 
L 327.937364 -283.342446 
L 326.234324 -283.80359 
L 324.531284 -284.491035 
L 322.828244 -286.073445 
L 321.125204 -287.44633 
L 319.422164 -287.495442 
L 317.719123 -286.35049 
L 316.016083 -284.595137 
L 314.313043 -284.439897 
L 312.610003 -287.293784 
L 310.906963 -293.110485 
L 309.203923 -299.32683 
L 307.500883 -302.932202 
L 305.797843 -302.648023 
L 304.094803 -298.407387 
L 302.391763 -291.539305 
L 300.688723 -285.192888 
L 298.985683 -281.051758 
L 297.282643 -280.04679 
L 295.579603 -282.276049 
L 293.876563 -286.518231 
L 292.173522 -291.478424 
L 290.470482 -296.59282 
L 288.767442 -300.184556 
L 287.064402 -301.962404 
L 285.361362 -301.220034 
L 283.658322 -298.026048 
L 281.955282 -292.955168 
L 280.252242 -287.63077 
L 278.549202 -282.649915 
L 276.846162 -278.842875 
L 275.143122 -275.822897 
L 273.440082 -273.21759 
L 271.737042 -270.414603 
L 270.034002 -267.696524 
L 268.330962 -264.954627 
L 266.627921 -263.161407 
L 264.924881 -261.565399 
L 263.221841 -259.18179 
L 261.518801 -255.288647 
L 259.815761 -249.889905 
L 258.112721 -243.774588 
L 256.409681 -237.874422 
L 254.706641 -233.357895 
L 253.003601 -230.489974 
L 251.300561 -229.947132 
L 249.597521 -230.696766 
L 247.894481 -231.467501 
L 246.191441 -232.072442 
L 244.488401 -232.45293 
L 242.785361 -232.207872 
L 241.08232 -232.421053 
L 239.37928 -233.415788 
L 237.67624 -236.31345 
L 235.9732 -240.991624 
L 234.27016 -248.268841 
L 232.56712 -259.028284 
L 230.86408 -272.750084 
L 229.16104 -288.276609 
L 227.458 -304.929506 
L 225.75496 -321.468536 
L 224.05192 -336.856965 
L 222.34888 -350.515409 
L 220.64584 -360.914373 
L 218.9428 -369.826704 
L 217.23976 -378.143026 
L 215.536719 -385.739344 
L 213.833679 -392.627491 
L 212.130639 -399.081681 
L 210.427599 -404.559829 
L 208.724559 -408.542689 
L 207.021519 -410.976159 
L 205.318479 -409.944565 
L 203.615439 -404.063967 
L 201.912399 -392.815508 
L 200.209359 -377.757324 
L 198.506319 -361.101262 
L 196.803279 -344.481418 
L 195.100239 -328.040858 
L 193.397199 -311.204971 
L 191.694159 -292.583962 
L 189.991118 -272.502767 
L 188.288078 -252.10048 
L 186.585038 -234.112984 
L 184.881998 -219.406859 
L 183.178958 -208.542024 
L 181.475918 -201.055923 
L 179.772878 -194.867026 
L 178.069838 -188.925737 
L 176.366798 -183.757476 
L 174.663758 -180.104124 
L 172.960718 -179.409008 
L 171.257678 -181.252808 
L 169.554638 -186.675358 
L 167.851598 -194.849905 
L 166.148558 -203.025633 
L 164.445517 -209.226686 
L 162.742477 -212.349148 
L 161.039437 -213.17306 
L 159.336397 -211.982954 
L 157.633357 -209.731311 
L 155.930317 -208.470793 
L 154.227277 -207.861614 
L 152.524237 -207.392168 
L 150.821197 -206.836279 
L 149.118157 -206.59515 
L 147.415117 -206.610543 
L 145.712077 -207.30012 
L 144.009037 -208.87671 
L 142.305997 -210.588473 
L 140.602957 -211.932845 
L 138.899916 -212.488035 
L 137.196876 -212.98241 
L 135.493836 -214.379435 
L 133.790796 -217.150281 
L 132.087756 -221.55349 
L 130.384716 -225.560155 
L 128.681676 -226.932717 
L 126.978636 -224.642444 
L 125.275596 -220.463215 
L 123.572556 -215.891337 
L 121.869516 -213.479851 
L 120.166476 -214.478344 
L 118.463436 -218.506382 
L 116.760396 -223.360318 
L 115.057356 -227.01597 
L 113.354315 -228.552649 
L 111.651275 -228.269808 
L 109.948235 -226.969527 
L 108.245195 -226.212223 
L 106.542155 -226.334463 
L 104.839115 -226.963849 
L 103.136075 -226.223894 
L 101.433035 -224.566155 
L 99.729995 -222.718572 
L 98.026955 -221.898452 
L 96.323915 -222.791249 
L 94.620875 -225.344059 
L 92.917835 -228.21138 
L 91.214795 -229.721203 
L 89.511755 -229.198472 
L 87.808714 -226.962192 
L 86.105674 -223.68531 
L 84.402634 -220.375821 
L 82.699594 -217.424907 
L 80.996554 -215.809629 
L 79.293514 -215.200536 
L 77.590474 -215.51266 
L 75.887434 -217.042173 
L 74.184394 -219.095898 
L 72.481354 -221.065539 
L 70.778314 -222.472403 
L 69.075274 -222.474039 
L 67.372234 -221.637004 
L 65.669194 -221.361494 
L 63.966154 -223.597173 
L 62.263113 -228.341056 
L 60.560073 -234.713274 
L 58.857033 -239.624051 
L 57.153993 -240.796917 
L 55.450953 -237.951169 
L 53.747913 -233.329608 
L 52.044873 -230.795873 
L 50.341833 -232.22716 
L 48.638793 -237.162314 
L 46.935753 -243.782117 
L 45.232713 -247.95062 
L 43.529673 -247.488563 
L 41.826633 -242.690214 
L 40.123593 -236.053821 
L 38.420552 -231.134928 
z
" style="stroke: #ff7f0e; stroke-opacity: 0.3"/>
    </defs>
    <g>
     <use xlink:href="#m8071a43d1b" x="0" y="432" style="fill: #ff7f0e; fill-opacity: 0.3; stroke: #ff7f0e; stroke-opacity: 0.3"/>
    </g>
   </g>
   <g id="line2d_19">
    <path d="M 38.420552 224.182341 
L 40.123593 214.568552 
L 41.826633 203.799163 
L 43.529673 196.849568 
L 45.232713 197.108777 
L 46.935753 204.226037 
L 48.638793 214.891626 
L 50.341833 224.053386 
L 52.044873 226.295534 
L 53.747913 221.643446 
L 57.153993 202.733411 
L 58.857033 197.454985 
L 60.560073 197.965752 
L 62.263113 203.123773 
L 63.966154 210.42382 
L 65.669194 215.783605 
L 67.372234 218.463574 
L 69.075274 216.854223 
L 72.481354 203.975167 
L 74.184394 200.158393 
L 75.887434 201.532501 
L 77.590474 207.947679 
L 79.293514 217.488306 
L 80.996554 225.595607 
L 82.699594 230.189363 
L 84.402634 230.221725 
L 86.105674 224.533853 
L 89.511755 207.144793 
L 91.214795 199.894085 
L 92.917835 195.771 
L 94.620875 195.052641 
L 96.323915 198.885388 
L 98.026955 206.221245 
L 99.729995 211.386861 
L 101.433035 213.417467 
L 103.136075 210.108592 
L 106.542155 192.157817 
L 108.245195 187.274173 
L 109.948235 188.790106 
L 111.651275 197.226319 
L 113.354315 208.186917 
L 115.057356 216.143847 
L 116.760396 217.528809 
L 118.463436 213.709564 
L 120.166476 207.114838 
L 121.869516 203.402979 
L 123.572556 203.302908 
L 125.275596 206.506073 
L 126.978636 207.056343 
L 128.681676 202.958169 
L 130.384716 194.644136 
L 132.087756 185.332379 
L 133.790796 179.913002 
L 135.493836 182.316845 
L 137.196876 190.727748 
L 138.899916 201.713477 
L 140.602957 211.121053 
L 142.305997 216.661733 
L 144.009037 218.180028 
L 145.712077 217.276711 
L 147.415117 215.899423 
L 149.118157 216.331683 
L 150.821197 217.872373 
L 152.524237 221.116706 
L 154.227277 225.629006 
L 155.930317 230.780267 
L 157.633357 233.500689 
L 159.336397 232.367201 
L 161.039437 226.730292 
L 162.742477 218.437294 
L 164.445517 213.191259 
L 166.148558 213.81752 
L 167.851598 221.806528 
L 169.554638 233.106123 
L 171.257678 241.841772 
L 172.960718 242.714985 
L 174.663758 234.081407 
L 178.069838 203.706847 
L 179.772878 194.364455 
L 181.475918 192.47196 
L 183.178958 192.765858 
L 184.881998 189.855855 
L 186.585038 180.30377 
L 188.288078 163.101722 
L 191.694159 117.500782 
L 193.397199 97.994091 
L 195.100239 81.721958 
L 196.803279 68.87581 
L 198.506319 58.573073 
L 200.209359 49.573105 
L 201.912399 41.877272 
L 203.615439 35.816603 
L 205.318479 31.004535 
L 207.021519 28.176681 
L 208.724559 28.46534 
L 210.427599 33.064099 
L 212.130639 41.646853 
L 213.833679 52.794245 
L 215.536719 65.25104 
L 217.23976 76.004678 
L 218.9428 84.05717 
L 220.64584 91.425444 
L 222.34888 101.786837 
L 224.05192 115.575895 
L 227.458 147.748412 
L 229.16104 159.256671 
L 230.86408 164.787403 
L 232.56712 166.145812 
L 235.9732 164.947147 
L 237.67624 166.71513 
L 239.37928 172.344264 
L 241.08232 179.949344 
L 242.785361 188.323274 
L 244.488401 195.962195 
L 246.191441 201.778042 
L 247.894481 204.388537 
L 249.597521 203.7693 
L 251.300561 199.565658 
L 253.003601 194.477686 
L 254.706641 190.699697 
L 256.409681 188.089705 
L 258.112721 186.415475 
L 259.815761 182.716279 
L 261.518801 175.213729 
L 263.221841 164.720365 
L 264.924881 152.614418 
L 266.627921 142.453818 
L 268.330962 137.353245 
L 270.034002 136.771227 
L 271.737042 136.654215 
L 273.440082 134.22527 
L 275.143122 128.780834 
L 276.846162 122.066445 
L 278.549202 116.073026 
L 280.252242 113.604844 
L 281.955282 114.61915 
L 283.658322 116.191722 
L 285.361362 116.106094 
L 287.064402 114.614834 
L 288.767442 112.171496 
L 290.470482 110.510905 
L 292.173522 111.09282 
L 293.876563 113.624507 
L 295.579603 117.586961 
L 297.282643 122.032712 
L 298.985683 127.051304 
L 304.094803 144.22271 
L 305.797843 146.037639 
L 307.500883 142.11464 
L 309.203923 132.576271 
L 310.906963 120.295333 
L 312.610003 109.909062 
L 314.313043 104.789899 
L 316.016083 106.509289 
L 317.719123 113.542339 
L 321.125204 132.238331 
L 322.828244 138.66845 
L 324.531284 141.914789 
L 327.937364 143.100335 
L 329.640404 144.915573 
L 331.343444 149.418165 
L 333.046484 157.040592 
L 334.749524 166.540353 
L 336.452564 175.240022 
L 338.155604 180.154431 
L 339.858644 179.247603 
L 341.561684 173.419425 
L 343.264724 164.806544 
L 344.967765 157.330622 
L 346.670805 152.682217 
L 348.373845 150.25331 
L 350.076885 149.526406 
L 351.779925 148.605338 
L 353.482965 145.648378 
L 355.186005 141.5637 
L 356.889045 138.401612 
L 358.592085 137.086826 
L 360.295125 137.506635 
L 361.998165 138.046161 
L 363.701205 137.386429 
L 365.404245 134.550419 
L 367.107285 130.493009 
L 368.810326 126.956455 
L 370.513366 124.460673 
L 372.216406 122.248848 
L 373.919446 118.945794 
L 377.325526 109.864795 
L 379.028566 107.648307 
L 380.731606 109.386936 
L 382.434646 113.971593 
L 384.137686 118.186963 
L 385.840726 119.732772 
L 387.543766 118.035278 
L 390.949846 110.131348 
L 392.652886 107.624432 
L 394.355927 106.234048 
L 397.762007 105.346804 
L 399.465047 105.250111 
L 401.168087 108.607417 
L 402.871127 114.681789 
L 404.574167 123.270005 
L 406.277207 131.115033 
L 407.980247 135.649589 
L 409.683287 135.900517 
L 411.386327 132.785926 
L 413.089367 128.590088 
L 414.792407 126.720546 
L 416.495447 127.756446 
L 419.901528 133.071755 
L 421.604568 133.569119 
L 423.307608 132.548934 
L 425.010648 132.269897 
L 426.713688 133.990939 
L 428.416728 138.450574 
L 431.822808 151.960203 
L 433.525848 156.35161 
L 435.228888 157.194358 
L 436.931928 156.075481 
L 438.634968 154.528585 
L 440.338008 153.825358 
L 442.041048 153.629279 
L 443.744088 153.739415 
L 445.447129 152.72518 
L 447.150169 150.602866 
L 448.853209 147.397059 
L 450.556249 144.735541 
L 452.259289 143.867794 
L 453.962329 145.33526 
L 455.665369 148.175952 
L 457.368409 150.159685 
L 459.071449 151.345807 
L 460.774489 150.841527 
L 462.477529 148.896246 
L 464.180569 148.745118 
L 465.883609 152.137916 
L 467.586649 159.160671 
L 469.289689 167.527339 
L 470.99273 172.141078 
L 472.69577 170.385198 
L 474.39881 162.469902 
L 476.10185 152.351884 
L 477.80489 147.133055 
L 479.50793 149.883438 
L 481.21097 159.545151 
L 482.91401 170.609474 
L 484.61705 176.713607 
L 486.32009 174.266656 
L 488.02313 164.940326 
L 489.72617 153.870165 
L 491.42921 146.875336 
L 493.13225 146.214198 
L 496.538331 152.956942 
L 498.241371 153.024057 
L 499.944411 150.492033 
L 501.647451 147.650426 
L 503.350491 147.698289 
L 505.053531 151.534988 
L 506.756571 156.434994 
L 508.459611 158.040168 
L 510.162651 153.92179 
L 513.568731 135.433808 
L 515.271771 131.732232 
L 516.974811 136.679916 
L 518.677851 148.536281 
L 520.380891 161.789707 
L 522.083932 170.626325 
L 523.786972 171.510741 
L 525.490012 166.145947 
L 527.193052 159.514782 
L 528.896092 156.177322 
L 530.599132 159.361172 
L 532.302172 166.614882 
L 534.005212 172.728931 
L 535.708252 174.869761 
L 537.411292 172.239134 
L 539.114332 167.37116 
L 540.817372 163.542508 
L 542.520412 164.148411 
L 544.223452 168.916485 
L 545.926492 175.57321 
L 547.629533 180.936871 
L 549.332573 184.084214 
L 551.035613 185.12339 
L 552.738653 186.494508 
L 554.441693 188.879326 
L 556.144733 193.079446 
L 557.847773 197.705233 
L 559.550813 201.575498 
L 561.253853 203.1859 
L 561.253853 203.1859 
" style="fill: none; stroke: #1f77b4; stroke-width: 1.5; stroke-linecap: square"/>
   </g>
   <g id="line2d_20">
    <path d="M 38.420552 204.52311 
L 40.123593 199.567915 
L 41.826633 192.690959 
L 43.529673 187.847115 
L 45.232713 187.313943 
L 46.935753 191.371583 
L 48.638793 197.803818 
L 50.341833 202.727927 
L 52.044873 204.127534 
L 53.747913 201.658688 
L 55.450953 197.189522 
L 57.153993 194.257696 
L 58.857033 195.177871 
L 60.560073 199.864996 
L 62.263113 206.158616 
L 63.966154 211.017919 
L 65.669194 213.194856 
L 67.372234 213.013839 
L 69.075274 212.181601 
L 70.778314 212.276317 
L 72.481354 213.735884 
L 75.887434 217.96388 
L 77.590474 219.322923 
L 79.293514 219.315937 
L 80.996554 218.421656 
L 82.699594 217.000819 
L 84.402634 214.302897 
L 87.808714 207.965364 
L 89.511755 205.629395 
L 91.214795 205.000975 
L 92.917835 206.522005 
L 94.620875 209.516704 
L 96.323915 212.164645 
L 98.026955 213.189783 
L 99.729995 212.197291 
L 101.433035 210.170091 
L 103.136075 208.50555 
L 104.839115 207.969011 
L 106.542155 208.785267 
L 108.245195 209.147467 
L 109.948235 208.401331 
L 111.651275 207.128611 
L 113.354315 206.548047 
L 115.057356 207.832207 
L 116.760396 211.623071 
L 118.463436 216.789728 
L 120.166476 220.989299 
L 121.869516 221.989756 
L 123.572556 219.608362 
L 126.978636 210.773776 
L 128.681676 208.505404 
L 130.384716 210.027935 
L 132.087756 214.034259 
L 133.790796 218.34054 
L 135.493836 221.313423 
L 137.196876 222.797194 
L 138.899916 223.413995 
L 140.602957 223.88165 
L 142.305997 225.15426 
L 145.712077 228.500619 
L 147.415117 229.352138 
L 149.118157 229.461375 
L 154.227277 228.486972 
L 155.930317 227.934435 
L 157.633357 226.773655 
L 159.336397 224.610995 
L 161.039437 223.412572 
L 162.742477 224.234321 
L 164.445517 227.456325 
L 166.148558 233.708756 
L 169.554638 249.600315 
L 171.257678 255.090516 
L 172.960718 257.018695 
L 174.663758 256.190655 
L 176.366798 252.634229 
L 178.069838 247.591471 
L 181.475918 235.482689 
L 183.178958 227.970371 
L 184.881998 217.157941 
L 186.585038 202.438751 
L 188.288078 184.484209 
L 191.694159 144.57842 
L 193.397199 126.169707 
L 200.209359 59.447582 
L 201.912399 44.512566 
L 203.615439 33.328697 
L 205.318479 27.556065 
L 207.021519 26.580067 
L 208.724559 28.738658 
L 210.427599 32.701228 
L 212.130639 38.133502 
L 215.536719 51.579137 
L 217.23976 59.10428 
L 218.9428 67.341477 
L 220.64584 76.313318 
L 222.34888 86.616309 
L 224.05192 100.212728 
L 225.75496 115.44497 
L 230.86408 164.723126 
L 232.56712 178.333146 
L 234.27016 189.039028 
L 235.9732 196.403123 
L 237.67624 200.984813 
L 239.37928 203.720114 
L 241.08232 204.810459 
L 242.785361 205.125788 
L 244.488401 204.939529 
L 246.191441 205.303515 
L 249.597521 206.939662 
L 251.300561 207.787244 
L 253.003601 207.242687 
L 254.706641 204.381302 
L 256.409681 199.751363 
L 259.815761 187.434531 
L 261.518801 182.172467 
L 263.221841 178.483367 
L 264.924881 176.171593 
L 266.627921 174.496864 
L 268.330962 172.598148 
L 270.034002 170.111108 
L 276.846162 158.877118 
L 278.549202 154.986806 
L 280.252242 150.156852 
L 281.955282 144.853756 
L 283.658322 139.991073 
L 285.361362 136.842145 
L 287.064402 135.988617 
L 288.767442 137.500559 
L 290.470482 140.951514 
L 293.876563 150.860069 
L 295.579603 154.993091 
L 297.282643 157.498748 
L 298.985683 156.82534 
L 300.688723 152.864237 
L 304.094803 139.636534 
L 305.797843 135.398193 
L 307.500883 135.138427 
L 309.203923 138.952926 
L 312.610003 150.891822 
L 314.313043 153.896635 
L 316.016083 153.75978 
L 317.719123 151.898209 
L 319.422164 150.643509 
L 321.125204 150.694201 
L 324.531284 153.82289 
L 326.234324 154.654796 
L 327.937364 154.948824 
L 329.640404 155.813683 
L 331.343444 158.468963 
L 333.046484 162.942103 
L 334.749524 167.875331 
L 336.452564 170.941583 
L 338.155604 170.024027 
L 339.858644 165.519841 
L 341.561684 159.578971 
L 343.264724 155.088412 
L 344.967765 153.950348 
L 346.670805 156.167801 
L 348.373845 160.141478 
L 350.076885 163.718989 
L 351.779925 165.206084 
L 353.482965 164.467328 
L 355.186005 163.38888 
L 356.889045 163.607095 
L 358.592085 165.696584 
L 360.295125 168.757712 
L 361.998165 170.900977 
L 363.701205 169.992043 
L 365.404245 165.435067 
L 368.810326 150.520263 
L 370.513366 144.981339 
L 372.216406 142.805748 
L 373.919446 143.804533 
L 377.325526 148.748558 
L 379.028566 149.937989 
L 380.731606 149.959344 
L 382.434646 149.487723 
L 384.137686 150.020056 
L 385.840726 152.182543 
L 387.543766 155.38523 
L 389.246806 158.187947 
L 390.949846 159.593181 
L 394.355927 159.976287 
L 396.058967 161.379249 
L 397.762007 165.111226 
L 401.168087 175.692217 
L 402.871127 179.097935 
L 404.574167 180.732999 
L 406.277207 181.630173 
L 407.980247 183.02024 
L 409.683287 185.354443 
L 411.386327 188.014399 
L 413.089367 189.92331 
L 414.792407 190.191382 
L 416.495447 189.240943 
L 418.198487 188.638364 
L 419.901528 188.518539 
L 421.604568 188.788393 
L 423.307608 188.733161 
L 425.010648 187.40791 
L 426.713688 185.23925 
L 428.416728 183.764571 
L 430.119768 184.217662 
L 431.822808 187.274329 
L 435.228888 197.642971 
L 436.931928 201.528806 
L 438.634968 204.201456 
L 440.338008 205.930779 
L 442.041048 207.461535 
L 443.744088 209.584102 
L 445.447129 212.294397 
L 447.150169 214.661728 
L 448.853209 216.337076 
L 450.556249 217.147006 
L 452.259289 216.993101 
L 453.962329 216.080181 
L 455.665369 214.485394 
L 459.071449 209.973094 
L 460.774489 208.638623 
L 462.477529 209.023151 
L 464.180569 212.322674 
L 465.883609 217.923141 
L 467.586649 224.493589 
L 469.289689 230.41307 
L 470.99273 234.624074 
L 472.69577 236.988915 
L 474.39881 238.301303 
L 476.10185 239.316589 
L 477.80489 240.882598 
L 481.21097 245.131155 
L 482.91401 246.876695 
L 484.61705 247.892333 
L 486.32009 248.158831 
L 488.02313 247.211479 
L 489.72617 245.028457 
L 496.538331 234.250652 
L 498.241371 231.607482 
L 499.944411 229.19446 
L 501.647451 227.289301 
L 503.350491 226.35008 
L 505.053531 227.429814 
L 506.756571 230.819782 
L 510.162651 240.892679 
L 511.865691 244.739286 
L 513.568731 246.46192 
L 515.271771 246.574862 
L 516.974811 246.518867 
L 518.677851 246.960622 
L 520.380891 248.254344 
L 522.083932 250.023431 
L 523.786972 251.175927 
L 525.490012 250.816362 
L 527.193052 248.823126 
L 530.599132 243.315128 
L 532.302172 241.044623 
L 534.005212 239.283885 
L 535.708252 238.399445 
L 537.411292 238.192977 
L 539.114332 238.957902 
L 540.817372 241.081992 
L 544.223452 246.925546 
L 545.926492 249.125678 
L 547.629533 250.023918 
L 549.332573 249.952046 
L 551.035613 249.21567 
L 554.441693 246.82196 
L 556.144733 245.998926 
L 557.847773 245.629457 
L 559.550813 246.190805 
L 561.253853 247.762049 
L 561.253853 247.762049 
" style="fill: none; stroke: #ff7f0e; stroke-width: 1.5; stroke-linecap: square"/>
   </g>
  </g>
  <g id="axes_2">
   <g id="PathCollection_1">
    <defs>
     <path id="C0_0_0f4c7fb859" d="M 0 1.118034 
C 0.296506 1.118034 0.580908 1.000231 0.790569 0.790569 
C 1.000231 0.580908 1.118034 0.296506 1.118034 -0 
C 1.118034 -0.296506 1.000231 -0.580908 0.790569 -0.790569 
C 0.580908 -1.000231 0.296506 -1.118034 0 -1.118034 
C -0.296506 -1.118034 -0.580908 -1.000231 -0.790569 -0.790569 
C -1.000231 -0.580908 -1.118034 -0.296506 -1.118034 0 
C -1.118034 0.296506 -1.000231 0.580908 -0.790569 0.790569 
C -0.580908 1.000231 -0.296506 1.118034 0 1.118034 
z
"/>
    </defs>
    <g clip-path="url(#pd2e15bae48)">
     <use xlink:href="#C0_0_0f4c7fb859" x="509.133998" y="46.646445" style="stroke: #000000"/>
    </g>
    <g clip-path="url(#pd2e15bae48)">
     <use xlink:href="#C0_0_0f4c7fb859" x="509.14188" y="56.275977" style="stroke: #000000"/>
    </g>
    <g clip-path="url(#pd2e15bae48)">
     <use xlink:href="#C0_0_0f4c7fb859" x="509.08702" y="76.414332" style="stroke: #000000"/>
    </g>
    <g clip-path="url(#pd2e15bae48)">
     <use xlink:href="#C0_0_0f4c7fb859" x="509.029741" y="85.802272" style="stroke: #000000"/>
    </g>
    <g clip-path="url(#pd2e15bae48)">
     <use xlink:href="#C0_0_0f4c7fb859" x="509.124872" y="66.304383" style="stroke: #000000"/>
    </g>
   </g>
   <g id="matplotlib.axis_3"/>
   <g id="matplotlib.axis_4"/>
   <g id="line2d_21">
    <path d="M 548.859194 73.63672 
L 548.781507 71.164689 
L 548.548754 68.702415 
L 548.161852 66.259613 
L 547.622329 63.845926 
L 546.932314 61.470879 
L 546.09453 59.143845 
L 545.112284 56.874007 
L 543.989451 54.670325 
L 542.730464 52.541494 
L 541.340291 50.495916 
L 539.824418 48.541664 
L 538.188828 46.686451 
L 536.439975 44.937599 
L 534.584762 43.302008 
L 532.630511 41.786136 
L 530.584933 40.395962 
L 528.456102 39.136975 
L 526.252419 38.014143 
L 523.982582 37.031896 
L 521.655547 36.194112 
L 519.2805 35.504097 
L 516.866813 34.964574 
L 514.424012 34.577673 
L 511.961737 34.344919 
L 509.489707 34.267233 
L 507.017676 34.344919 
L 504.555402 34.577673 
L 502.1126 34.964574 
L 499.698913 35.504097 
L 497.323866 36.194112 
L 494.996832 37.031896 
L 492.726994 38.014143 
L 490.523312 39.136975 
L 488.394481 40.395962 
L 486.348903 41.786136 
L 484.394651 43.302008 
L 482.539438 44.937599 
L 480.790586 46.686451 
L 479.154995 48.541664 
L 477.639123 50.495916 
L 476.248949 52.541494 
L 474.989962 54.670325 
L 473.86713 56.874007 
L 472.884883 59.143845 
L 472.047099 61.470879 
L 471.357084 63.845926 
L 470.817561 66.259613 
L 470.43066 68.702415 
L 470.197906 71.164689 
L 470.12022 73.63672 
L 470.197906 76.10875 
L 470.43066 78.571025 
L 470.817561 81.013826 
L 471.357084 83.427513 
L 472.047099 85.80256 
L 472.884883 88.129595 
L 473.86713 90.399432 
L 474.989962 92.603115 
L 476.248949 94.731946 
L 477.639123 96.777524 
L 479.154995 98.731775 
L 480.790586 100.586988 
L 482.539438 102.335841 
L 484.394651 103.971431 
L 486.348903 105.487304 
L 488.394481 106.877477 
L 490.523312 108.136464 
L 492.726994 109.259297 
L 494.996832 110.241543 
L 497.323866 111.079327 
L 499.698913 111.769342 
L 502.1126 112.308865 
L 504.555402 112.695767 
L 507.017676 112.92852 
L 509.489707 113.006207 
L 511.961737 112.92852 
L 514.424012 112.695767 
L 516.866813 112.308865 
L 519.2805 111.769342 
L 521.655547 111.079327 
L 523.982582 110.241543 
L 526.252419 109.259297 
L 528.456102 108.136464 
L 530.584933 106.877477 
L 532.630511 105.487304 
L 534.584762 103.971431 
L 536.439975 102.335841 
L 538.188828 100.586988 
L 539.824418 98.731775 
L 541.340291 96.777524 
L 542.730464 94.731946 
L 543.989451 92.603115 
L 545.112284 90.399432 
L 546.09453 88.129595 
L 546.932314 85.80256 
L 547.622329 83.427513 
L 548.161852 81.013826 
L 548.548754 78.571025 
L 548.781507 76.10875 
L 548.859194 73.63672 
" style="fill: none; stroke: #000000; stroke-linecap: square"/>
   </g>
   <g id="line2d_22">
    <path d="M 501.244181 35.140385 
L 509.489707 28.361809 
L 517.735233 35.140385 
" style="fill: none; stroke: #000000; stroke-linecap: square"/>
   </g>
   <g id="line2d_23">
    <path d="M 470.356436 69.266707 
L 469.33283 67.534449 
L 468.702918 67.471458 
L 467.765924 67.762792 
L 466.821057 69.266707 
L 466.970661 74.069784 
L 466.419488 80.975192 
L 467.600572 83.975147 
L 469.33283 84.534194 
L 470.986348 83.077523 
" style="fill: none; stroke: #000000; stroke-linecap: square"/>
   </g>
   <g id="line2d_24">
    <path d="M 548.622977 69.266707 
L 549.646584 67.534449 
L 550.276495 67.471458 
L 551.213489 67.762792 
L 552.158357 69.266707 
L 552.008753 74.069784 
L 552.559926 80.975192 
L 551.378841 83.975147 
L 549.646584 84.534194 
L 547.993065 83.077523 
" style="fill: none; stroke: #000000; stroke-linecap: square"/>
   </g>
  </g>
 </g>
 <defs>
  <clipPath id="pe49714ed32">
   <rect x="38.420552" y="18.118365" width="523.446395" height="380.525145"/>
  </clipPath>
  <clipPath id="pd2e15bae48">
   <rect x="462.112466" y="24.12959" width="94.754482" height="93.108837"/>
  </clipPath>
 </defs>
</svg>
