<?xml version="1.0" encoding="utf-8" standalone="no"?>
<!DOCTYPE svg PUBLIC "-//W3C//DTD SVG 1.1//EN"
  "http://www.w3.org/Graphics/SVG/1.1/DTD/svg11.dtd">
<svg xmlns:xlink="http://www.w3.org/1999/xlink" width="576pt" height="432pt" viewBox="0 0 576 432" xmlns="http://www.w3.org/2000/svg" version="1.1">
 <metadata>
  <rdf:RDF xmlns:dc="http://purl.org/dc/elements/1.1/" xmlns:cc="http://creativecommons.org/ns#" xmlns:rdf="http://www.w3.org/1999/02/22-rdf-syntax-ns#">
   <cc:Work>
    <dc:type rdf:resource="http://purl.org/dc/dcmitype/StillImage"/>
    <dc:date>2025-02-20T17:23:15.292256</dc:date>
    <dc:format>image/svg+xml</dc:format>
    <dc:creator>
     <cc:Agent>
      <dc:title>Matplotlib v3.10.0, https://matplotlib.org/</dc:title>
     </cc:Agent>
    </dc:creator>
   </cc:Work>
  </rdf:RDF>
 </metadata>
 <defs>
  <style type="text/css">*{stroke-linejoin: round; stroke-linecap: butt}</style>
 </defs>
 <g id="figure_1">
  <g id="patch_1">
   <path d="M 0 432 
L 576 432 
L 576 0 
L 0 0 
z
" style="fill: #ffffff"/>
  </g>
  <g id="axes_1">
   <g id="patch_2">
    <path d="M 44.783053 398.64351 
L 561.866947 398.64351 
L 561.866947 18.118365 
L 44.783053 18.118365 
L 44.783053 398.64351 
z
" style="fill: none; opacity: 0"/>
   </g>
   <g id="patch_3">
    <path d="M 44.783053 382.996006 
L 44.783053 33.765869 
" style="fill: none; stroke: #000000; stroke-width: 0.8; stroke-linejoin: miter; stroke-linecap: square"/>
   </g>
   <g id="LineCollection_1">
    <path d="M 195.789854 18.118365 
L 195.789854 398.64351 
" clip-path="url(#p069fbf4380)" style="fill: none; stroke-dasharray: 3.7,1.6; stroke-dashoffset: 0; stroke: #000000"/>
    <path d="M 230.244168 18.118365 
L 230.244168 398.64351 
" clip-path="url(#p069fbf4380)" style="fill: none; stroke-dasharray: 3.7,1.6; stroke-dashoffset: 0; stroke: #000000"/>
   </g>
   <g id="matplotlib.axis_1">
    <g id="xtick_1">
     <g id="line2d_1">
      <defs>
       <path id="me102ac37b7" d="M 0 0 
L 0 3.5 
" style="stroke: #000000; stroke-width: 0.8"/>
      </defs>
      <g>
       <use xlink:href="#me102ac37b7" x="45.052227" y="398.64351" style="stroke: #000000; stroke-width: 0.8"/>
      </g>
     </g>
     <g id="text_1">
      <!-- −0.20 -->
      <g transform="translate(29.729571 413.241947) scale(0.1 -0.1)">
       <defs>
        <path id="DejaVuSans-2212" d="M 678 2272 
L 4684 2272 
L 4684 1741 
L 678 1741 
L 678 2272 
z
" transform="scale(0.015625)"/>
        <path id="DejaVuSans-30" d="M 2034 4250 
Q 1547 4250 1301 3770 
Q 1056 3291 1056 2328 
Q 1056 1369 1301 889 
Q 1547 409 2034 409 
Q 2525 409 2770 889 
Q 3016 1369 3016 2328 
Q 3016 3291 2770 3770 
Q 2525 4250 2034 4250 
z
M 2034 4750 
Q 2819 4750 3233 4129 
Q 3647 3509 3647 2328 
Q 3647 1150 3233 529 
Q 2819 -91 2034 -91 
Q 1250 -91 836 529 
Q 422 1150 422 2328 
Q 422 3509 836 4129 
Q 1250 4750 2034 4750 
z
" transform="scale(0.015625)"/>
        <path id="DejaVuSans-2e" d="M 684 794 
L 1344 794 
L 1344 0 
L 684 0 
L 684 794 
z
" transform="scale(0.015625)"/>
        <path id="DejaVuSans-32" d="M 1228 531 
L 3431 531 
L 3431 0 
L 469 0 
L 469 531 
Q 828 903 1448 1529 
Q 2069 2156 2228 2338 
Q 2531 2678 2651 2914 
Q 2772 3150 2772 3378 
Q 2772 3750 2511 3984 
Q 2250 4219 1831 4219 
Q 1534 4219 1204 4116 
Q 875 4013 500 3803 
L 500 4441 
Q 881 4594 1212 4672 
Q 1544 4750 1819 4750 
Q 2544 4750 2975 4387 
Q 3406 4025 3406 3419 
Q 3406 3131 3298 2873 
Q 3191 2616 2906 2266 
Q 2828 2175 2409 1742 
Q 1991 1309 1228 531 
z
" transform="scale(0.015625)"/>
       </defs>
       <use xlink:href="#DejaVuSans-2212"/>
       <use xlink:href="#DejaVuSans-30" transform="translate(83.789062 0)"/>
       <use xlink:href="#DejaVuSans-2e" transform="translate(147.412109 0)"/>
       <use xlink:href="#DejaVuSans-32" transform="translate(179.199219 0)"/>
       <use xlink:href="#DejaVuSans-30" transform="translate(242.822266 0)"/>
      </g>
     </g>
    </g>
    <g id="xtick_2">
     <g id="line2d_2">
      <g>
       <use xlink:href="#me102ac37b7" x="131.188014" y="398.64351" style="stroke: #000000; stroke-width: 0.8"/>
      </g>
     </g>
     <g id="text_2">
      <!-- 0.00 -->
      <g transform="translate(120.055201 413.241947) scale(0.1 -0.1)">
       <use xlink:href="#DejaVuSans-30"/>
       <use xlink:href="#DejaVuSans-2e" transform="translate(63.623047 0)"/>
       <use xlink:href="#DejaVuSans-30" transform="translate(95.410156 0)"/>
       <use xlink:href="#DejaVuSans-30" transform="translate(159.033203 0)"/>
      </g>
     </g>
    </g>
    <g id="xtick_3">
     <g id="line2d_3">
      <g>
       <use xlink:href="#me102ac37b7" x="195.789854" y="398.64351" style="stroke: #000000; stroke-width: 0.8"/>
      </g>
     </g>
     <g id="text_3">
      <!-- 0.15 -->
      <g transform="translate(184.657041 413.241947) scale(0.1 -0.1)">
       <defs>
        <path id="DejaVuSans-31" d="M 794 531 
L 1825 531 
L 1825 4091 
L 703 3866 
L 703 4441 
L 1819 4666 
L 2450 4666 
L 2450 531 
L 3481 531 
L 3481 0 
L 794 0 
L 794 531 
z
" transform="scale(0.015625)"/>
        <path id="DejaVuSans-35" d="M 691 4666 
L 3169 4666 
L 3169 4134 
L 1269 4134 
L 1269 2991 
Q 1406 3038 1543 3061 
Q 1681 3084 1819 3084 
Q 2600 3084 3056 2656 
Q 3513 2228 3513 1497 
Q 3513 744 3044 326 
Q 2575 -91 1722 -91 
Q 1428 -91 1123 -41 
Q 819 9 494 109 
L 494 744 
Q 775 591 1075 516 
Q 1375 441 1709 441 
Q 2250 441 2565 725 
Q 2881 1009 2881 1497 
Q 2881 1984 2565 2268 
Q 2250 2553 1709 2553 
Q 1456 2553 1204 2497 
Q 953 2441 691 2322 
L 691 4666 
z
" transform="scale(0.015625)"/>
       </defs>
       <use xlink:href="#DejaVuSans-30"/>
       <use xlink:href="#DejaVuSans-2e" transform="translate(63.623047 0)"/>
       <use xlink:href="#DejaVuSans-31" transform="translate(95.410156 0)"/>
       <use xlink:href="#DejaVuSans-35" transform="translate(159.033203 0)"/>
      </g>
     </g>
    </g>
    <g id="xtick_4">
     <g id="line2d_4">
      <g>
       <use xlink:href="#me102ac37b7" x="217.3238" y="398.64351" style="stroke: #000000; stroke-width: 0.8"/>
      </g>
     </g>
     <g id="text_4">
      <!-- 0.20 -->
      <g transform="translate(206.190988 413.241947) scale(0.1 -0.1)">
       <use xlink:href="#DejaVuSans-30"/>
       <use xlink:href="#DejaVuSans-2e" transform="translate(63.623047 0)"/>
       <use xlink:href="#DejaVuSans-32" transform="translate(95.410156 0)"/>
       <use xlink:href="#DejaVuSans-30" transform="translate(159.033203 0)"/>
      </g>
     </g>
    </g>
    <g id="xtick_5">
     <g id="line2d_5">
      <g>
       <use xlink:href="#me102ac37b7" x="230.244168" y="398.64351" style="stroke: #000000; stroke-width: 0.8"/>
      </g>
     </g>
     <g id="text_5">
      <!-- 0.23 -->
      <g transform="translate(219.111356 413.241947) scale(0.1 -0.1)">
       <defs>
        <path id="DejaVuSans-33" d="M 2597 2516 
Q 3050 2419 3304 2112 
Q 3559 1806 3559 1356 
Q 3559 666 3084 287 
Q 2609 -91 1734 -91 
Q 1441 -91 1130 -33 
Q 819 25 488 141 
L 488 750 
Q 750 597 1062 519 
Q 1375 441 1716 441 
Q 2309 441 2620 675 
Q 2931 909 2931 1356 
Q 2931 1769 2642 2001 
Q 2353 2234 1838 2234 
L 1294 2234 
L 1294 2753 
L 1863 2753 
Q 2328 2753 2575 2939 
Q 2822 3125 2822 3475 
Q 2822 3834 2567 4026 
Q 2313 4219 1838 4219 
Q 1578 4219 1281 4162 
Q 984 4106 628 3988 
L 628 4550 
Q 988 4650 1302 4700 
Q 1616 4750 1894 4750 
Q 2613 4750 3031 4423 
Q 3450 4097 3450 3541 
Q 3450 3153 3228 2886 
Q 3006 2619 2597 2516 
z
" transform="scale(0.015625)"/>
       </defs>
       <use xlink:href="#DejaVuSans-30"/>
       <use xlink:href="#DejaVuSans-2e" transform="translate(63.623047 0)"/>
       <use xlink:href="#DejaVuSans-32" transform="translate(95.410156 0)"/>
       <use xlink:href="#DejaVuSans-33" transform="translate(159.033203 0)"/>
      </g>
     </g>
    </g>
    <g id="xtick_6">
     <g id="line2d_6">
      <g>
       <use xlink:href="#me102ac37b7" x="303.459587" y="398.64351" style="stroke: #000000; stroke-width: 0.8"/>
      </g>
     </g>
     <g id="text_6">
      <!-- 0.40 -->
      <g transform="translate(292.326775 413.241947) scale(0.1 -0.1)">
       <defs>
        <path id="DejaVuSans-34" d="M 2419 4116 
L 825 1625 
L 2419 1625 
L 2419 4116 
z
M 2253 4666 
L 3047 4666 
L 3047 1625 
L 3713 1625 
L 3713 1100 
L 3047 1100 
L 3047 0 
L 2419 0 
L 2419 1100 
L 313 1100 
L 313 1709 
L 2253 4666 
z
" transform="scale(0.015625)"/>
       </defs>
       <use xlink:href="#DejaVuSans-30"/>
       <use xlink:href="#DejaVuSans-2e" transform="translate(63.623047 0)"/>
       <use xlink:href="#DejaVuSans-34" transform="translate(95.410156 0)"/>
       <use xlink:href="#DejaVuSans-30" transform="translate(159.033203 0)"/>
      </g>
     </g>
    </g>
    <g id="xtick_7">
     <g id="line2d_7">
      <g>
       <use xlink:href="#me102ac37b7" x="389.595374" y="398.64351" style="stroke: #000000; stroke-width: 0.8"/>
      </g>
     </g>
     <g id="text_7">
      <!-- 0.60 -->
      <g transform="translate(378.462561 413.241947) scale(0.1 -0.1)">
       <defs>
        <path id="DejaVuSans-36" d="M 2113 2584 
Q 1688 2584 1439 2293 
Q 1191 2003 1191 1497 
Q 1191 994 1439 701 
Q 1688 409 2113 409 
Q 2538 409 2786 701 
Q 3034 994 3034 1497 
Q 3034 2003 2786 2293 
Q 2538 2584 2113 2584 
z
M 3366 4563 
L 3366 3988 
Q 3128 4100 2886 4159 
Q 2644 4219 2406 4219 
Q 1781 4219 1451 3797 
Q 1122 3375 1075 2522 
Q 1259 2794 1537 2939 
Q 1816 3084 2150 3084 
Q 2853 3084 3261 2657 
Q 3669 2231 3669 1497 
Q 3669 778 3244 343 
Q 2819 -91 2113 -91 
Q 1303 -91 875 529 
Q 447 1150 447 2328 
Q 447 3434 972 4092 
Q 1497 4750 2381 4750 
Q 2619 4750 2861 4703 
Q 3103 4656 3366 4563 
z
" transform="scale(0.015625)"/>
       </defs>
       <use xlink:href="#DejaVuSans-30"/>
       <use xlink:href="#DejaVuSans-2e" transform="translate(63.623047 0)"/>
       <use xlink:href="#DejaVuSans-36" transform="translate(95.410156 0)"/>
       <use xlink:href="#DejaVuSans-30" transform="translate(159.033203 0)"/>
      </g>
     </g>
    </g>
    <g id="xtick_8">
     <g id="line2d_8">
      <g>
       <use xlink:href="#me102ac37b7" x="475.731161" y="398.64351" style="stroke: #000000; stroke-width: 0.8"/>
      </g>
     </g>
     <g id="text_8">
      <!-- 0.80 -->
      <g transform="translate(464.598348 413.241947) scale(0.1 -0.1)">
       <defs>
        <path id="DejaVuSans-38" d="M 2034 2216 
Q 1584 2216 1326 1975 
Q 1069 1734 1069 1313 
Q 1069 891 1326 650 
Q 1584 409 2034 409 
Q 2484 409 2743 651 
Q 3003 894 3003 1313 
Q 3003 1734 2745 1975 
Q 2488 2216 2034 2216 
z
M 1403 2484 
Q 997 2584 770 2862 
Q 544 3141 544 3541 
Q 544 4100 942 4425 
Q 1341 4750 2034 4750 
Q 2731 4750 3128 4425 
Q 3525 4100 3525 3541 
Q 3525 3141 3298 2862 
Q 3072 2584 2669 2484 
Q 3125 2378 3379 2068 
Q 3634 1759 3634 1313 
Q 3634 634 3220 271 
Q 2806 -91 2034 -91 
Q 1263 -91 848 271 
Q 434 634 434 1313 
Q 434 1759 690 2068 
Q 947 2378 1403 2484 
z
M 1172 3481 
Q 1172 3119 1398 2916 
Q 1625 2713 2034 2713 
Q 2441 2713 2670 2916 
Q 2900 3119 2900 3481 
Q 2900 3844 2670 4047 
Q 2441 4250 2034 4250 
Q 1625 4250 1398 4047 
Q 1172 3844 1172 3481 
z
" transform="scale(0.015625)"/>
       </defs>
       <use xlink:href="#DejaVuSans-30"/>
       <use xlink:href="#DejaVuSans-2e" transform="translate(63.623047 0)"/>
       <use xlink:href="#DejaVuSans-38" transform="translate(95.410156 0)"/>
       <use xlink:href="#DejaVuSans-30" transform="translate(159.033203 0)"/>
      </g>
     </g>
    </g>
    <g id="xtick_9">
     <g id="line2d_9">
      <g>
       <use xlink:href="#me102ac37b7" x="561.866947" y="398.64351" style="stroke: #000000; stroke-width: 0.8"/>
      </g>
     </g>
     <g id="text_9">
      <!-- 1.00 -->
      <g transform="translate(550.734135 413.241947) scale(0.1 -0.1)">
       <use xlink:href="#DejaVuSans-31"/>
       <use xlink:href="#DejaVuSans-2e" transform="translate(63.623047 0)"/>
       <use xlink:href="#DejaVuSans-30" transform="translate(95.410156 0)"/>
       <use xlink:href="#DejaVuSans-30" transform="translate(159.033203 0)"/>
      </g>
     </g>
    </g>
    <g id="text_10">
     <!-- Time (s) -->
     <g transform="translate(282.996094 426.920073) scale(0.1 -0.1)">
      <defs>
       <path id="DejaVuSans-54" d="M -19 4666 
L 3928 4666 
L 3928 4134 
L 2272 4134 
L 2272 0 
L 1638 0 
L 1638 4134 
L -19 4134 
L -19 4666 
z
" transform="scale(0.015625)"/>
       <path id="DejaVuSans-69" d="M 603 3500 
L 1178 3500 
L 1178 0 
L 603 0 
L 603 3500 
z
M 603 4863 
L 1178 4863 
L 1178 4134 
L 603 4134 
L 603 4863 
z
" transform="scale(0.015625)"/>
       <path id="DejaVuSans-6d" d="M 3328 2828 
Q 3544 3216 3844 3400 
Q 4144 3584 4550 3584 
Q 5097 3584 5394 3201 
Q 5691 2819 5691 2113 
L 5691 0 
L 5113 0 
L 5113 2094 
Q 5113 2597 4934 2840 
Q 4756 3084 4391 3084 
Q 3944 3084 3684 2787 
Q 3425 2491 3425 1978 
L 3425 0 
L 2847 0 
L 2847 2094 
Q 2847 2600 2669 2842 
Q 2491 3084 2119 3084 
Q 1678 3084 1418 2786 
Q 1159 2488 1159 1978 
L 1159 0 
L 581 0 
L 581 3500 
L 1159 3500 
L 1159 2956 
Q 1356 3278 1631 3431 
Q 1906 3584 2284 3584 
Q 2666 3584 2933 3390 
Q 3200 3197 3328 2828 
z
" transform="scale(0.015625)"/>
       <path id="DejaVuSans-65" d="M 3597 1894 
L 3597 1613 
L 953 1613 
Q 991 1019 1311 708 
Q 1631 397 2203 397 
Q 2534 397 2845 478 
Q 3156 559 3463 722 
L 3463 178 
Q 3153 47 2828 -22 
Q 2503 -91 2169 -91 
Q 1331 -91 842 396 
Q 353 884 353 1716 
Q 353 2575 817 3079 
Q 1281 3584 2069 3584 
Q 2775 3584 3186 3129 
Q 3597 2675 3597 1894 
z
M 3022 2063 
Q 3016 2534 2758 2815 
Q 2500 3097 2075 3097 
Q 1594 3097 1305 2825 
Q 1016 2553 972 2059 
L 3022 2063 
z
" transform="scale(0.015625)"/>
       <path id="DejaVuSans-20" transform="scale(0.015625)"/>
       <path id="DejaVuSans-28" d="M 1984 4856 
Q 1566 4138 1362 3434 
Q 1159 2731 1159 2009 
Q 1159 1288 1364 580 
Q 1569 -128 1984 -844 
L 1484 -844 
Q 1016 -109 783 600 
Q 550 1309 550 2009 
Q 550 2706 781 3412 
Q 1013 4119 1484 4856 
L 1984 4856 
z
" transform="scale(0.015625)"/>
       <path id="DejaVuSans-73" d="M 2834 3397 
L 2834 2853 
Q 2591 2978 2328 3040 
Q 2066 3103 1784 3103 
Q 1356 3103 1142 2972 
Q 928 2841 928 2578 
Q 928 2378 1081 2264 
Q 1234 2150 1697 2047 
L 1894 2003 
Q 2506 1872 2764 1633 
Q 3022 1394 3022 966 
Q 3022 478 2636 193 
Q 2250 -91 1575 -91 
Q 1294 -91 989 -36 
Q 684 19 347 128 
L 347 722 
Q 666 556 975 473 
Q 1284 391 1588 391 
Q 1994 391 2212 530 
Q 2431 669 2431 922 
Q 2431 1156 2273 1281 
Q 2116 1406 1581 1522 
L 1381 1569 
Q 847 1681 609 1914 
Q 372 2147 372 2553 
Q 372 3047 722 3315 
Q 1072 3584 1716 3584 
Q 2034 3584 2315 3537 
Q 2597 3491 2834 3397 
z
" transform="scale(0.015625)"/>
       <path id="DejaVuSans-29" d="M 513 4856 
L 1013 4856 
Q 1481 4119 1714 3412 
Q 1947 2706 1947 2009 
Q 1947 1309 1714 600 
Q 1481 -109 1013 -844 
L 513 -844 
Q 928 -128 1133 580 
Q 1338 1288 1338 2009 
Q 1338 2731 1133 3434 
Q 928 4138 513 4856 
z
" transform="scale(0.015625)"/>
      </defs>
      <use xlink:href="#DejaVuSans-54"/>
      <use xlink:href="#DejaVuSans-69" transform="translate(57.958984 0)"/>
      <use xlink:href="#DejaVuSans-6d" transform="translate(85.742188 0)"/>
      <use xlink:href="#DejaVuSans-65" transform="translate(183.154297 0)"/>
      <use xlink:href="#DejaVuSans-20" transform="translate(244.677734 0)"/>
      <use xlink:href="#DejaVuSans-28" transform="translate(276.464844 0)"/>
      <use xlink:href="#DejaVuSans-73" transform="translate(315.478516 0)"/>
      <use xlink:href="#DejaVuSans-29" transform="translate(367.578125 0)"/>
     </g>
    </g>
   </g>
   <g id="matplotlib.axis_2">
    <g id="ytick_1">
     <g id="line2d_10">
      <defs>
       <path id="mbed4ce56b8" d="M 0 0 
L -3.5 0 
" style="stroke: #000000; stroke-width: 0.8"/>
      </defs>
      <g>
       <use xlink:href="#mbed4ce56b8" x="44.783053" y="382.996006" style="stroke: #000000; stroke-width: 0.8"/>
      </g>
     </g>
     <g id="text_11">
      <!-- −15 -->
      <g transform="translate(16.678365 386.795224) scale(0.1 -0.1)">
       <use xlink:href="#DejaVuSans-2212"/>
       <use xlink:href="#DejaVuSans-31" transform="translate(83.789062 0)"/>
       <use xlink:href="#DejaVuSans-35" transform="translate(147.412109 0)"/>
      </g>
     </g>
    </g>
    <g id="ytick_2">
     <g id="line2d_11">
      <g>
       <use xlink:href="#mbed4ce56b8" x="44.783053" y="324.790983" style="stroke: #000000; stroke-width: 0.8"/>
      </g>
     </g>
     <g id="text_12">
      <!-- −10 -->
      <g transform="translate(16.678365 328.590202) scale(0.1 -0.1)">
       <use xlink:href="#DejaVuSans-2212"/>
       <use xlink:href="#DejaVuSans-31" transform="translate(83.789062 0)"/>
       <use xlink:href="#DejaVuSans-30" transform="translate(147.412109 0)"/>
      </g>
     </g>
    </g>
    <g id="ytick_3">
     <g id="line2d_12">
      <g>
       <use xlink:href="#mbed4ce56b8" x="44.783053" y="266.58596" style="stroke: #000000; stroke-width: 0.8"/>
      </g>
     </g>
     <g id="text_13">
      <!-- −5 -->
      <g transform="translate(23.040865 270.385179) scale(0.1 -0.1)">
       <use xlink:href="#DejaVuSans-2212"/>
       <use xlink:href="#DejaVuSans-35" transform="translate(83.789062 0)"/>
      </g>
     </g>
    </g>
    <g id="ytick_4">
     <g id="line2d_13">
      <g>
       <use xlink:href="#mbed4ce56b8" x="44.783053" y="208.380937" style="stroke: #000000; stroke-width: 0.8"/>
      </g>
     </g>
     <g id="text_14">
      <!-- 0 -->
      <g transform="translate(31.420553 212.180156) scale(0.1 -0.1)">
       <use xlink:href="#DejaVuSans-30"/>
      </g>
     </g>
    </g>
    <g id="ytick_5">
     <g id="line2d_14">
      <g>
       <use xlink:href="#mbed4ce56b8" x="44.783053" y="150.175915" style="stroke: #000000; stroke-width: 0.8"/>
      </g>
     </g>
     <g id="text_15">
      <!-- 5 -->
      <g transform="translate(31.420553 153.975134) scale(0.1 -0.1)">
       <use xlink:href="#DejaVuSans-35"/>
      </g>
     </g>
    </g>
    <g id="ytick_6">
     <g id="line2d_15">
      <g>
       <use xlink:href="#mbed4ce56b8" x="44.783053" y="91.970892" style="stroke: #000000; stroke-width: 0.8"/>
      </g>
     </g>
     <g id="text_16">
      <!-- 10 -->
      <g transform="translate(25.058053 95.770111) scale(0.1 -0.1)">
       <use xlink:href="#DejaVuSans-31"/>
       <use xlink:href="#DejaVuSans-30" transform="translate(63.623047 0)"/>
      </g>
     </g>
    </g>
    <g id="ytick_7">
     <g id="line2d_16">
      <g>
       <use xlink:href="#mbed4ce56b8" x="44.783053" y="33.765869" style="stroke: #000000; stroke-width: 0.8"/>
      </g>
     </g>
     <g id="text_17">
      <!-- 15 -->
      <g transform="translate(25.058053 37.565088) scale(0.1 -0.1)">
       <use xlink:href="#DejaVuSans-31"/>
       <use xlink:href="#DejaVuSans-35" transform="translate(63.623047 0)"/>
      </g>
     </g>
    </g>
    <g id="text_18">
     <!-- µV -->
     <g transform="translate(10.598678 214.9825) rotate(-90) scale(0.1 -0.1)">
      <defs>
       <path id="DejaVuSans-b5" d="M 544 -1331 
L 544 3500 
L 1119 3500 
L 1119 1325 
Q 1119 872 1334 640 
Q 1550 409 1972 409 
Q 2434 409 2667 671 
Q 2900 934 2900 1459 
L 2900 3500 
L 3475 3500 
L 3475 806 
Q 3475 619 3529 530 
Q 3584 441 3700 441 
Q 3728 441 3778 458 
Q 3828 475 3916 513 
L 3916 50 
Q 3788 -22 3673 -56 
Q 3559 -91 3450 -91 
Q 3234 -91 3106 31 
Q 2978 153 2931 403 
Q 2775 156 2548 32 
Q 2322 -91 2016 -91 
Q 1697 -91 1473 31 
Q 1250 153 1119 397 
L 1119 -1331 
L 544 -1331 
z
" transform="scale(0.015625)"/>
       <path id="DejaVuSans-56" d="M 1831 0 
L 50 4666 
L 709 4666 
L 2188 738 
L 3669 4666 
L 4325 4666 
L 2547 0 
L 1831 0 
z
" transform="scale(0.015625)"/>
      </defs>
      <use xlink:href="#DejaVuSans-b5"/>
      <use xlink:href="#DejaVuSans-56" transform="translate(63.623047 0)"/>
     </g>
    </g>
   </g>
   <g id="patch_4">
    <path d="M 45.052227 398.64351 
L 561.866947 398.64351 
" style="fill: none; stroke: #000000; stroke-width: 0.8; stroke-linejoin: miter; stroke-linecap: square"/>
   </g>
   <g id="patch_5">
    <path d="M 44.783052 208.380937 
L 561.866947 208.380937 
" style="fill: none; stroke: #000000; stroke-width: 0.8; stroke-linejoin: miter; stroke-linecap: square"/>
   </g>
   <g id="text_19">
    <!-- Fz, FCz, Cz, CPz, Pz (median) -->
    <g transform="translate(216.537812 12.118365) scale(0.12 -0.12)">
     <defs>
      <path id="DejaVuSans-46" d="M 628 4666 
L 3309 4666 
L 3309 4134 
L 1259 4134 
L 1259 2759 
L 3109 2759 
L 3109 2228 
L 1259 2228 
L 1259 0 
L 628 0 
L 628 4666 
z
" transform="scale(0.015625)"/>
      <path id="DejaVuSans-7a" d="M 353 3500 
L 3084 3500 
L 3084 2975 
L 922 459 
L 3084 459 
L 3084 0 
L 275 0 
L 275 525 
L 2438 3041 
L 353 3041 
L 353 3500 
z
" transform="scale(0.015625)"/>
      <path id="DejaVuSans-2c" d="M 750 794 
L 1409 794 
L 1409 256 
L 897 -744 
L 494 -744 
L 750 256 
L 750 794 
z
" transform="scale(0.015625)"/>
      <path id="DejaVuSans-43" d="M 4122 4306 
L 4122 3641 
Q 3803 3938 3442 4084 
Q 3081 4231 2675 4231 
Q 1875 4231 1450 3742 
Q 1025 3253 1025 2328 
Q 1025 1406 1450 917 
Q 1875 428 2675 428 
Q 3081 428 3442 575 
Q 3803 722 4122 1019 
L 4122 359 
Q 3791 134 3420 21 
Q 3050 -91 2638 -91 
Q 1578 -91 968 557 
Q 359 1206 359 2328 
Q 359 3453 968 4101 
Q 1578 4750 2638 4750 
Q 3056 4750 3426 4639 
Q 3797 4528 4122 4306 
z
" transform="scale(0.015625)"/>
      <path id="DejaVuSans-50" d="M 1259 4147 
L 1259 2394 
L 2053 2394 
Q 2494 2394 2734 2622 
Q 2975 2850 2975 3272 
Q 2975 3691 2734 3919 
Q 2494 4147 2053 4147 
L 1259 4147 
z
M 628 4666 
L 2053 4666 
Q 2838 4666 3239 4311 
Q 3641 3956 3641 3272 
Q 3641 2581 3239 2228 
Q 2838 1875 2053 1875 
L 1259 1875 
L 1259 0 
L 628 0 
L 628 4666 
z
" transform="scale(0.015625)"/>
      <path id="DejaVuSans-64" d="M 2906 2969 
L 2906 4863 
L 3481 4863 
L 3481 0 
L 2906 0 
L 2906 525 
Q 2725 213 2448 61 
Q 2172 -91 1784 -91 
Q 1150 -91 751 415 
Q 353 922 353 1747 
Q 353 2572 751 3078 
Q 1150 3584 1784 3584 
Q 2172 3584 2448 3432 
Q 2725 3281 2906 2969 
z
M 947 1747 
Q 947 1113 1208 752 
Q 1469 391 1925 391 
Q 2381 391 2643 752 
Q 2906 1113 2906 1747 
Q 2906 2381 2643 2742 
Q 2381 3103 1925 3103 
Q 1469 3103 1208 2742 
Q 947 2381 947 1747 
z
" transform="scale(0.015625)"/>
      <path id="DejaVuSans-61" d="M 2194 1759 
Q 1497 1759 1228 1600 
Q 959 1441 959 1056 
Q 959 750 1161 570 
Q 1363 391 1709 391 
Q 2188 391 2477 730 
Q 2766 1069 2766 1631 
L 2766 1759 
L 2194 1759 
z
M 3341 1997 
L 3341 0 
L 2766 0 
L 2766 531 
Q 2569 213 2275 61 
Q 1981 -91 1556 -91 
Q 1019 -91 701 211 
Q 384 513 384 1019 
Q 384 1609 779 1909 
Q 1175 2209 1959 2209 
L 2766 2209 
L 2766 2266 
Q 2766 2663 2505 2880 
Q 2244 3097 1772 3097 
Q 1472 3097 1187 3025 
Q 903 2953 641 2809 
L 641 3341 
Q 956 3463 1253 3523 
Q 1550 3584 1831 3584 
Q 2591 3584 2966 3190 
Q 3341 2797 3341 1997 
z
" transform="scale(0.015625)"/>
      <path id="DejaVuSans-6e" d="M 3513 2113 
L 3513 0 
L 2938 0 
L 2938 2094 
Q 2938 2591 2744 2837 
Q 2550 3084 2163 3084 
Q 1697 3084 1428 2787 
Q 1159 2491 1159 1978 
L 1159 0 
L 581 0 
L 581 3500 
L 1159 3500 
L 1159 2956 
Q 1366 3272 1645 3428 
Q 1925 3584 2291 3584 
Q 2894 3584 3203 3211 
Q 3513 2838 3513 2113 
z
" transform="scale(0.015625)"/>
     </defs>
     <use xlink:href="#DejaVuSans-46"/>
     <use xlink:href="#DejaVuSans-7a" transform="translate(57.519531 0)"/>
     <use xlink:href="#DejaVuSans-2c" transform="translate(110.009766 0)"/>
     <use xlink:href="#DejaVuSans-20" transform="translate(141.796875 0)"/>
     <use xlink:href="#DejaVuSans-46" transform="translate(173.583984 0)"/>
     <use xlink:href="#DejaVuSans-43" transform="translate(231.103516 0)"/>
     <use xlink:href="#DejaVuSans-7a" transform="translate(300.927734 0)"/>
     <use xlink:href="#DejaVuSans-2c" transform="translate(353.417969 0)"/>
     <use xlink:href="#DejaVuSans-20" transform="translate(385.205078 0)"/>
     <use xlink:href="#DejaVuSans-43" transform="translate(416.992188 0)"/>
     <use xlink:href="#DejaVuSans-7a" transform="translate(486.816406 0)"/>
     <use xlink:href="#DejaVuSans-2c" transform="translate(539.306641 0)"/>
     <use xlink:href="#DejaVuSans-20" transform="translate(571.09375 0)"/>
     <use xlink:href="#DejaVuSans-43" transform="translate(602.880859 0)"/>
     <use xlink:href="#DejaVuSans-50" transform="translate(672.705078 0)"/>
     <use xlink:href="#DejaVuSans-7a" transform="translate(733.007812 0)"/>
     <use xlink:href="#DejaVuSans-2c" transform="translate(785.498047 0)"/>
     <use xlink:href="#DejaVuSans-20" transform="translate(817.285156 0)"/>
     <use xlink:href="#DejaVuSans-50" transform="translate(849.072266 0)"/>
     <use xlink:href="#DejaVuSans-7a" transform="translate(909.375 0)"/>
     <use xlink:href="#DejaVuSans-20" transform="translate(961.865234 0)"/>
     <use xlink:href="#DejaVuSans-28" transform="translate(993.652344 0)"/>
     <use xlink:href="#DejaVuSans-6d" transform="translate(1032.666016 0)"/>
     <use xlink:href="#DejaVuSans-65" transform="translate(1130.078125 0)"/>
     <use xlink:href="#DejaVuSans-64" transform="translate(1191.601562 0)"/>
     <use xlink:href="#DejaVuSans-69" transform="translate(1255.078125 0)"/>
     <use xlink:href="#DejaVuSans-61" transform="translate(1282.861328 0)"/>
     <use xlink:href="#DejaVuSans-6e" transform="translate(1344.140625 0)"/>
     <use xlink:href="#DejaVuSans-29" transform="translate(1407.519531 0)"/>
    </g>
   </g>
   <g id="legend_1">
    <g id="patch_6">
     <path d="M 51.783053 55.75274 
L 132.92524 55.75274 
Q 134.92524 55.75274 134.92524 53.75274 
L 134.92524 25.118365 
Q 134.92524 23.118365 132.92524 23.118365 
L 51.783053 23.118365 
Q 49.783053 23.118365 49.783053 25.118365 
L 49.783053 53.75274 
Q 49.783053 55.75274 51.783053 55.75274 
z
" style="fill: #ffffff; opacity: 0.8; stroke: #cccccc; stroke-linejoin: miter"/>
    </g>
    <g id="line2d_17">
     <path d="M 53.783053 31.216803 
L 63.783053 31.216803 
L 73.783052 31.216803 
" style="fill: none; stroke: #1f77b4; stroke-width: 1.5; stroke-linecap: square"/>
    </g>
    <g id="text_20">
     <!-- eerie -->
     <g transform="translate(81.783052 34.716803) scale(0.1 -0.1)">
      <defs>
       <path id="DejaVuSans-72" d="M 2631 2963 
Q 2534 3019 2420 3045 
Q 2306 3072 2169 3072 
Q 1681 3072 1420 2755 
Q 1159 2438 1159 1844 
L 1159 0 
L 581 0 
L 581 3500 
L 1159 3500 
L 1159 2956 
Q 1341 3275 1631 3429 
Q 1922 3584 2338 3584 
Q 2397 3584 2469 3576 
Q 2541 3569 2628 3553 
L 2631 2963 
z
" transform="scale(0.015625)"/>
      </defs>
      <use xlink:href="#DejaVuSans-65"/>
      <use xlink:href="#DejaVuSans-65" transform="translate(61.523438 0)"/>
      <use xlink:href="#DejaVuSans-72" transform="translate(123.046875 0)"/>
      <use xlink:href="#DejaVuSans-69" transform="translate(164.160156 0)"/>
      <use xlink:href="#DejaVuSans-65" transform="translate(191.943359 0)"/>
     </g>
    </g>
    <g id="line2d_18">
     <path d="M 53.783053 45.894928 
L 63.783053 45.894928 
L 73.783052 45.894928 
" style="fill: none; stroke: #ff7f0e; stroke-width: 1.5; stroke-linecap: square"/>
    </g>
    <g id="text_21">
     <!-- non_eerie -->
     <g transform="translate(81.783052 49.394928) scale(0.1 -0.1)">
      <defs>
       <path id="DejaVuSans-6f" d="M 1959 3097 
Q 1497 3097 1228 2736 
Q 959 2375 959 1747 
Q 959 1119 1226 758 
Q 1494 397 1959 397 
Q 2419 397 2687 759 
Q 2956 1122 2956 1747 
Q 2956 2369 2687 2733 
Q 2419 3097 1959 3097 
z
M 1959 3584 
Q 2709 3584 3137 3096 
Q 3566 2609 3566 1747 
Q 3566 888 3137 398 
Q 2709 -91 1959 -91 
Q 1206 -91 779 398 
Q 353 888 353 1747 
Q 353 2609 779 3096 
Q 1206 3584 1959 3584 
z
" transform="scale(0.015625)"/>
       <path id="DejaVuSans-5f" d="M 3263 -1063 
L 3263 -1509 
L -63 -1509 
L -63 -1063 
L 3263 -1063 
z
" transform="scale(0.015625)"/>
      </defs>
      <use xlink:href="#DejaVuSans-6e"/>
      <use xlink:href="#DejaVuSans-6f" transform="translate(63.378906 0)"/>
      <use xlink:href="#DejaVuSans-6e" transform="translate(124.560547 0)"/>
      <use xlink:href="#DejaVuSans-5f" transform="translate(187.939453 0)"/>
      <use xlink:href="#DejaVuSans-65" transform="translate(237.939453 0)"/>
      <use xlink:href="#DejaVuSans-65" transform="translate(299.462891 0)"/>
      <use xlink:href="#DejaVuSans-72" transform="translate(360.986328 0)"/>
      <use xlink:href="#DejaVuSans-69" transform="translate(402.099609 0)"/>
      <use xlink:href="#DejaVuSans-65" transform="translate(429.882812 0)"/>
     </g>
    </g>
   </g>
   <g id="FillBetweenPolyCollection_1">
    <defs>
     <path id="m53838c3cdb" d="M 44.783052 -243.818143 
L 44.783052 -236.531867 
L 46.465392 -235.405303 
L 48.147732 -232.002699 
L 49.830071 -228.584567 
L 51.512411 -227.321161 
L 53.19475 -229.01644 
L 54.87709 -233.886862 
L 56.55943 -238.392252 
L 58.241769 -239.262821 
L 59.924109 -235.416168 
L 61.606448 -228.408991 
L 63.288788 -220.939375 
L 64.971128 -215.410081 
L 66.653467 -213.889488 
L 68.335807 -215.367216 
L 70.018146 -217.398821 
L 71.700486 -218.471857 
L 73.382825 -217.423467 
L 75.065165 -215.060936 
L 76.747505 -212.847277 
L 78.429844 -211.485969 
L 80.112184 -211.220196 
L 81.794523 -211.220016 
L 83.476863 -210.936776 
L 85.159203 -210.832211 
L 86.841542 -211.274597 
L 88.523882 -213.011944 
L 90.206221 -216.031698 
L 91.888561 -219.617955 
L 93.5709 -222.8828 
L 95.25324 -225.307977 
L 96.93558 -225.957222 
L 98.617919 -224.527116 
L 100.300259 -221.052507 
L 101.982598 -216.456374 
L 103.664938 -212.036781 
L 105.347278 -209.542753 
L 107.029617 -209.743478 
L 108.711957 -212.706489 
L 110.394296 -217.019721 
L 112.076636 -220.793395 
L 113.758976 -223.429041 
L 115.441315 -224.354989 
L 117.123655 -224.11137 
L 118.805994 -223.738758 
L 120.488334 -224.088911 
L 122.170673 -224.957533 
L 123.853013 -224.713882 
L 125.535353 -223.301433 
L 127.217692 -220.756324 
L 128.900032 -217.801569 
L 130.582371 -216.435616 
L 132.264711 -217.028003 
L 133.947051 -219.218714 
L 135.62939 -221.306351 
L 137.31173 -221.471785 
L 138.994069 -219.526703 
L 140.676409 -216.282995 
L 142.358748 -213.364409 
L 144.041088 -211.972061 
L 145.723428 -212.308354 
L 147.405767 -213.529811 
L 149.088107 -214.787213 
L 150.770446 -215.377365 
L 152.452786 -215.054357 
L 154.135126 -214.306931 
L 155.817465 -213.897766 
L 157.499805 -214.100478 
L 159.182144 -214.804354 
L 160.864484 -216.187911 
L 162.546823 -218.257129 
L 164.229163 -221.015449 
L 165.911503 -224.182134 
L 167.593842 -226.977459 
L 169.276182 -228.400091 
L 170.958521 -228.310145 
L 172.640861 -225.695481 
L 174.323201 -221.428176 
L 176.00554 -216.356711 
L 177.68788 -211.503848 
L 179.370219 -207.688172 
L 181.052559 -205.164723 
L 182.734899 -203.274258 
L 184.417238 -201.021472 
L 186.099578 -198.006661 
L 187.781917 -195.817438 
L 189.464257 -195.249873 
L 191.146596 -198.29213 
L 192.828936 -206.417098 
L 194.511276 -219.589842 
L 196.193615 -238.325208 
L 197.875955 -262.8037 
L 199.558294 -289.461621 
L 201.240634 -316.466533 
L 202.922974 -340.99381 
L 204.605313 -360.946384 
L 206.287653 -376.265273 
L 207.969992 -387.628491 
L 209.652332 -395.90744 
L 211.334671 -401.538161 
L 213.017011 -404.842456 
L 214.699351 -405.628123 
L 216.38169 -404.112012 
L 218.06403 -401.055665 
L 219.746369 -397.622326 
L 221.428709 -394.067313 
L 223.111049 -391.036695 
L 224.793388 -387.961117 
L 226.475728 -383.99433 
L 228.158067 -378.654785 
L 229.840407 -371.937196 
L 231.522746 -364.179542 
L 233.205086 -355.582438 
L 234.887426 -347.71445 
L 236.569765 -341.898603 
L 238.252105 -336.764319 
L 239.934444 -332.271546 
L 241.616784 -327.669872 
L 243.299124 -322.214482 
L 244.981463 -316.511367 
L 246.663803 -310.865409 
L 248.346142 -306.218663 
L 250.028482 -302.835589 
L 251.710822 -301.262894 
L 253.393161 -301.729773 
L 255.075501 -303.444092 
L 256.75784 -305.43831 
L 258.44018 -306.807657 
L 260.122519 -306.797348 
L 261.804859 -304.985838 
L 263.487199 -302.437701 
L 265.169538 -300.201307 
L 266.851878 -298.432276 
L 268.534217 -297.337201 
L 270.216557 -296.280819 
L 271.898897 -295.142449 
L 273.581236 -293.495033 
L 275.263576 -291.825209 
L 276.945915 -290.367683 
L 278.628255 -289.164572 
L 280.310594 -287.741921 
L 281.992934 -285.480182 
L 283.675274 -282.734416 
L 285.357613 -280.024746 
L 287.039953 -278.141214 
L 288.722292 -277.125545 
L 290.404632 -277.708188 
L 292.086972 -278.738732 
L 293.769311 -278.500029 
L 295.451651 -276.511801 
L 297.13399 -272.924843 
L 298.81633 -268.322777 
L 300.498669 -264.336815 
L 302.181009 -261.799664 
L 303.863349 -260.961509 
L 305.545688 -260.363876 
L 307.228028 -260.026733 
L 308.910367 -259.805951 
L 310.592707 -260.455323 
L 312.275047 -262.179031 
L 313.957386 -265.324349 
L 315.639726 -269.546406 
L 317.322065 -274.063165 
L 319.004405 -278.163403 
L 320.686745 -281.951416 
L 322.369084 -284.574237 
L 324.051424 -286.149643 
L 325.733763 -286.588038 
L 327.416103 -286.517734 
L 329.098442 -286.322634 
L 330.780782 -287.621441 
L 332.463122 -291.123184 
L 334.145461 -295.916437 
L 335.827801 -301.349676 
L 337.51014 -306.184093 
L 339.19248 -309.018605 
L 340.87482 -310.101923 
L 342.557159 -309.813811 
L 344.239499 -308.964878 
L 345.921838 -308.65283 
L 347.604178 -309.564647 
L 349.286517 -311.830728 
L 350.968857 -314.47574 
L 352.651197 -317.421254 
L 354.333536 -320.951868 
L 356.015876 -324.348146 
L 357.698215 -327.317756 
L 359.380555 -329.348644 
L 361.062895 -330.292422 
L 362.745234 -330.465573 
L 364.427574 -330.984838 
L 366.109913 -332.101954 
L 367.792253 -333.694296 
L 369.474593 -335.008588 
L 371.156932 -335.39124 
L 372.839272 -334.417753 
L 374.521611 -332.056292 
L 376.203951 -329.920142 
L 377.88629 -328.350929 
L 379.56863 -327.986701 
L 381.25097 -328.631288 
L 382.933309 -329.537793 
L 384.615649 -330.591453 
L 386.297988 -332.486471 
L 387.980328 -335.393215 
L 389.662668 -339.274258 
L 391.345007 -342.599001 
L 393.027347 -344.500096 
L 394.709686 -344.388397 
L 396.392026 -342.077006 
L 398.074365 -339.089328 
L 399.756705 -337.126794 
L 401.439045 -336.257142 
L 403.121384 -335.993472 
L 404.803724 -334.992269 
L 406.486063 -332.526474 
L 408.168403 -328.671623 
L 409.850743 -324.357797 
L 411.533082 -321.272353 
L 413.215422 -319.925371 
L 414.897761 -319.634337 
L 416.580101 -319.116548 
L 418.26244 -317.010941 
L 419.94478 -313.882576 
L 421.62712 -310.488355 
L 423.309459 -308.16128 
L 424.991799 -307.926778 
L 426.674138 -308.704212 
L 428.356478 -309.322298 
L 430.038818 -308.381947 
L 431.721157 -304.598619 
L 433.403497 -299.659615 
L 435.085836 -295.289009 
L 436.768176 -292.843369 
L 438.450516 -292.897978 
L 440.132855 -294.216097 
L 441.815195 -295.655796 
L 443.497534 -295.051244 
L 445.179874 -292.415467 
L 446.862213 -287.439291 
L 448.544553 -282.091624 
L 450.226893 -278.107495 
L 451.909232 -276.408877 
L 453.591572 -276.709516 
L 455.273911 -278.031665 
L 456.956251 -278.884841 
L 458.638591 -279.459195 
L 460.32093 -279.324511 
L 462.00327 -278.701507 
L 463.685609 -279.264054 
L 465.367949 -280.554305 
L 467.050288 -282.552784 
L 468.732628 -284.92351 
L 470.414968 -286.869057 
L 472.097307 -287.814296 
L 473.779647 -287.605268 
L 475.461986 -285.501677 
L 477.144326 -282.185408 
L 478.826666 -278.142309 
L 480.509005 -274.180424 
L 482.191345 -271.400579 
L 483.873684 -269.641793 
L 485.556024 -268.073867 
L 487.238363 -266.725 
L 488.920703 -265.066957 
L 490.603043 -263.163606 
L 492.285382 -262.105889 
L 493.967722 -263.103506 
L 495.650061 -265.937812 
L 497.332401 -269.483802 
L 499.014741 -272.232571 
L 500.69708 -273.163164 
L 502.37942 -272.219394 
L 504.061759 -269.645569 
L 505.744099 -267.274893 
L 507.426439 -265.710585 
L 509.108778 -266.238341 
L 510.791118 -268.492333 
L 512.473457 -271.306666 
L 514.155797 -273.485306 
L 515.838136 -273.904327 
L 517.520476 -271.290883 
L 519.202816 -265.996807 
L 520.885155 -258.986166 
L 522.567495 -252.6806 
L 524.249834 -248.776705 
L 525.932174 -248.226371 
L 527.614514 -250.967043 
L 529.296853 -255.203415 
L 530.979193 -259.272153 
L 532.661532 -262.286829 
L 534.343872 -264.033316 
L 536.026211 -265.252253 
L 537.708551 -266.636543 
L 539.390891 -267.627251 
L 541.07323 -268.03483 
L 542.75557 -267.007627 
L 544.437909 -264.188038 
L 546.120249 -260.141174 
L 547.802589 -255.682779 
L 549.484928 -252.719643 
L 551.167268 -251.652669 
L 552.849607 -251.980627 
L 554.531947 -252.662237 
L 556.214286 -252.671686 
L 557.896626 -251.758567 
L 559.578966 -250.041007 
L 561.261305 -247.810157 
L 561.261305 -257.96778 
L 561.261305 -257.96778 
L 559.578966 -259.913614 
L 557.896626 -261.452049 
L 556.214286 -262.374643 
L 554.531947 -262.094362 
L 552.849607 -261.30245 
L 551.167268 -261.002508 
L 549.484928 -262.320708 
L 547.802589 -265.638053 
L 546.120249 -270.433738 
L 544.437909 -274.804922 
L 542.75557 -277.745695 
L 541.07323 -278.571027 
L 539.390891 -277.777671 
L 537.708551 -276.296369 
L 536.026211 -275.029204 
L 534.343872 -274.153863 
L 532.661532 -272.801441 
L 530.979193 -270.093036 
L 529.296853 -266.347966 
L 527.614514 -262.025206 
L 525.932174 -258.887997 
L 524.249834 -258.998858 
L 522.567495 -262.615213 
L 520.885155 -268.717583 
L 519.202816 -275.540926 
L 517.520476 -281.182363 
L 515.838136 -283.996948 
L 514.155797 -283.74548 
L 512.473457 -281.542358 
L 510.791118 -278.505805 
L 509.108778 -276.254235 
L 507.426439 -275.75628 
L 505.744099 -277.356928 
L 504.061759 -279.874131 
L 502.37942 -282.594966 
L 500.69708 -283.837398 
L 499.014741 -282.844501 
L 497.332401 -280.029215 
L 495.650061 -276.327608 
L 493.967722 -273.523085 
L 492.285382 -272.687813 
L 490.603043 -273.763008 
L 488.920703 -275.691713 
L 487.238363 -277.047978 
L 485.556024 -278.311709 
L 483.873684 -279.747625 
L 482.191345 -281.605597 
L 480.509005 -284.511891 
L 478.826666 -288.652097 
L 477.144326 -292.889867 
L 475.461986 -295.931809 
L 473.779647 -297.762374 
L 472.097307 -297.67418 
L 470.414968 -296.798493 
L 468.732628 -295.232953 
L 467.050288 -292.892521 
L 465.367949 -290.930343 
L 463.685609 -289.443903 
L 462.00327 -289.023289 
L 460.32093 -289.598429 
L 458.638591 -289.849955 
L 456.956251 -289.684219 
L 455.273911 -288.908877 
L 453.591572 -287.432858 
L 451.909232 -287.071337 
L 450.226893 -288.831604 
L 448.544553 -292.478236 
L 446.862213 -297.462172 
L 445.179874 -302.007625 
L 443.497534 -304.846929 
L 441.815195 -305.326718 
L 440.132855 -303.60299 
L 438.450516 -302.207818 
L 436.768176 -302.09854 
L 435.085836 -304.539955 
L 433.403497 -308.848091 
L 431.721157 -313.898999 
L 430.038818 -318.005389 
L 428.356478 -318.995047 
L 426.674138 -318.727201 
L 424.991799 -317.965075 
L 423.309459 -318.315484 
L 421.62712 -320.656741 
L 419.94478 -323.94964 
L 418.26244 -326.956585 
L 416.580101 -328.868079 
L 414.897761 -329.439042 
L 413.215422 -329.734622 
L 411.533082 -330.715908 
L 409.850743 -333.891483 
L 408.168403 -338.248387 
L 406.486063 -342.432376 
L 404.803724 -345.092776 
L 403.121384 -346.067253 
L 401.439045 -346.111291 
L 399.756705 -346.777499 
L 398.074365 -348.594073 
L 396.392026 -351.39073 
L 394.709686 -353.348728 
L 393.027347 -353.576823 
L 391.345007 -351.639247 
L 389.662668 -348.190377 
L 387.980328 -344.298087 
L 386.297988 -341.1867 
L 384.615649 -339.489698 
L 382.933309 -338.804784 
L 381.25097 -337.8646 
L 379.56863 -337.239365 
L 377.88629 -337.69679 
L 376.203951 -339.381556 
L 374.521611 -341.49972 
L 372.839272 -343.659287 
L 371.156932 -344.440991 
L 369.474593 -344.101857 
L 367.792253 -342.833984 
L 366.109913 -341.310631 
L 364.427574 -339.916841 
L 362.745234 -339.381568 
L 361.062895 -339.276066 
L 359.380555 -338.426673 
L 357.698215 -336.895727 
L 356.015876 -334.236109 
L 354.333536 -330.93195 
L 352.651197 -327.359769 
L 350.968857 -324.157427 
L 349.286517 -321.090969 
L 347.604178 -318.66333 
L 345.921838 -317.565644 
L 344.239499 -317.904408 
L 342.557159 -319.0017 
L 340.87482 -319.49969 
L 339.19248 -318.505284 
L 337.51014 -315.710262 
L 335.827801 -311.156045 
L 334.145461 -305.94454 
L 332.463122 -301.166051 
L 330.780782 -297.538349 
L 329.098442 -296.135256 
L 327.416103 -295.929156 
L 325.733763 -295.775201 
L 324.051424 -295.028234 
L 322.369084 -293.369531 
L 320.686745 -290.839417 
L 319.004405 -287.212168 
L 317.322065 -283.200125 
L 315.639726 -278.318491 
L 313.957386 -273.943315 
L 312.275047 -270.992339 
L 310.592707 -269.283397 
L 308.910367 -268.561764 
L 307.228028 -268.622405 
L 305.545688 -268.834078 
L 303.863349 -269.304502 
L 302.181009 -270.10345 
L 300.498669 -272.626504 
L 298.81633 -276.742526 
L 297.13399 -281.593421 
L 295.451651 -285.515169 
L 293.769311 -287.904649 
L 292.086972 -288.212325 
L 290.404632 -286.904668 
L 288.722292 -286.402128 
L 287.039953 -287.22262 
L 285.357613 -289.163013 
L 283.675274 -291.718814 
L 281.992934 -294.636098 
L 280.310594 -296.882881 
L 278.628255 -298.391885 
L 276.945915 -299.857752 
L 275.263576 -301.603623 
L 273.581236 -303.399091 
L 271.898897 -304.858871 
L 270.216557 -305.593393 
L 268.534217 -306.287113 
L 266.851878 -307.246315 
L 265.169538 -308.968848 
L 263.487199 -311.092652 
L 261.804859 -313.507259 
L 260.122519 -315.5017 
L 258.44018 -315.806142 
L 256.75784 -314.51203 
L 255.075501 -312.484956 
L 253.393161 -310.584532 
L 251.710822 -309.898651 
L 250.028482 -311.13974 
L 248.346142 -314.256843 
L 246.663803 -318.683791 
L 244.981463 -324.835619 
L 243.299124 -330.789849 
L 241.616784 -336.230161 
L 239.934444 -340.802133 
L 238.252105 -345.195287 
L 236.569765 -350.147898 
L 234.887426 -356.063145 
L 233.205086 -363.625412 
L 231.522746 -372.456535 
L 229.840407 -380.615815 
L 228.158067 -387.663165 
L 226.475728 -393.033009 
L 224.793388 -396.749491 
L 223.111049 -399.609452 
L 221.428709 -402.520804 
L 219.746369 -405.798911 
L 218.06403 -409.032243 
L 216.38169 -412.165247 
L 214.699351 -413.881635 
L 213.017011 -413.299189 
L 211.334671 -410.181579 
L 209.652332 -404.399821 
L 207.969992 -396.210845 
L 206.287653 -385.04452 
L 204.605313 -370.201187 
L 202.922974 -350.483746 
L 201.240634 -326.658809 
L 199.558294 -300.12852 
L 197.875955 -273.68191 
L 196.193615 -249.080782 
L 194.511276 -229.840104 
L 192.828936 -216.097844 
L 191.146596 -207.537825 
L 189.464257 -204.346687 
L 187.781917 -204.567183 
L 186.099578 -206.369432 
L 184.417238 -208.967917 
L 182.734899 -211.024771 
L 181.052559 -212.882319 
L 179.370219 -215.390933 
L 177.68788 -219.194744 
L 176.00554 -223.93374 
L 174.323201 -228.643613 
L 172.640861 -232.330184 
L 170.958521 -235.150031 
L 169.276182 -235.679389 
L 167.593842 -234.660932 
L 165.911503 -231.802903 
L 164.229163 -228.453903 
L 162.546823 -225.685812 
L 160.864484 -223.693378 
L 159.182144 -222.36798 
L 157.499805 -221.798648 
L 155.817465 -221.74183 
L 154.135126 -222.20396 
L 152.452786 -222.7296 
L 150.770446 -222.838433 
L 149.088107 -222.303221 
L 147.405767 -221.304539 
L 145.723428 -220.224653 
L 144.041088 -219.973038 
L 142.358748 -221.099446 
L 140.676409 -223.699601 
L 138.994069 -226.775604 
L 137.31173 -228.686595 
L 135.62939 -228.361086 
L 133.947051 -225.874884 
L 132.264711 -223.134746 
L 130.582371 -222.399081 
L 128.900032 -223.759304 
L 127.217692 -227.169014 
L 125.535353 -230.037535 
L 123.853013 -231.589408 
L 122.170673 -231.546243 
L 120.488334 -230.336032 
L 118.805994 -229.964826 
L 117.123655 -230.501447 
L 115.441315 -230.720519 
L 113.758976 -229.854263 
L 112.076636 -227.320068 
L 110.394296 -223.485111 
L 108.711957 -219.038118 
L 107.029617 -215.756993 
L 105.347278 -215.396562 
L 103.664938 -217.734878 
L 101.982598 -222.07323 
L 100.300259 -226.523593 
L 98.617919 -229.737143 
L 96.93558 -230.842571 
L 95.25324 -230.019058 
L 93.5709 -227.635176 
L 91.888561 -224.484535 
L 90.206221 -221.10067 
L 88.523882 -218.070526 
L 86.841542 -216.378374 
L 85.159203 -215.855171 
L 83.476863 -216.025819 
L 81.794523 -216.59805 
L 80.112184 -217.025964 
L 78.429844 -217.374208 
L 76.747505 -218.762602 
L 75.065165 -220.877594 
L 73.382825 -222.991498 
L 71.700486 -224.125013 
L 70.018146 -223.25437 
L 68.335807 -221.605019 
L 66.653467 -220.335585 
L 64.971128 -221.613325 
L 63.288788 -226.856054 
L 61.606448 -234.446148 
L 59.924109 -241.504106 
L 58.241769 -245.227716 
L 56.55943 -244.306053 
L 54.87709 -240.221262 
L 53.19475 -235.808103 
L 51.512411 -234.814529 
L 49.830071 -236.523808 
L 48.147732 -240.019793 
L 46.465392 -243.254329 
L 44.783052 -243.818143 
z
" style="stroke: #1f77b4; stroke-opacity: 0.3"/>
    </defs>
    <g>
     <use xlink:href="#m53838c3cdb" x="0" y="432" style="fill: #1f77b4; fill-opacity: 0.3; stroke: #1f77b4; stroke-opacity: 0.3"/>
    </g>
   </g>
   <g id="FillBetweenPolyCollection_2">
    <defs>
     <path id="m7781db63cd" d="M 44.783052 -241.831726 
L 44.783052 -237.395881 
L 46.465392 -237.290016 
L 48.147732 -235.932352 
L 49.830071 -233.947977 
L 51.512411 -231.585504 
L 53.19475 -229.662703 
L 54.87709 -228.402106 
L 56.55943 -227.73258 
L 58.241769 -227.549837 
L 59.924109 -227.159649 
L 61.606448 -226.432632 
L 63.288788 -225.320698 
L 64.971128 -223.974752 
L 66.653467 -222.413458 
L 68.335807 -220.046603 
L 70.018146 -216.944818 
L 71.700486 -213.994801 
L 73.382825 -211.378369 
L 75.065165 -210.369307 
L 76.747505 -211.394221 
L 78.429844 -214.129469 
L 80.112184 -217.080099 
L 81.794523 -219.054006 
L 83.476863 -219.205702 
L 85.159203 -218.011532 
L 86.841542 -216.593397 
L 88.523882 -216.600426 
L 90.206221 -217.778803 
L 91.888561 -220.16766 
L 93.5709 -221.818319 
L 95.25324 -221.645431 
L 96.93558 -219.730513 
L 98.617919 -216.816596 
L 100.300259 -214.011781 
L 101.982598 -211.994977 
L 103.664938 -211.144509 
L 105.347278 -211.732207 
L 107.029617 -212.942886 
L 108.711957 -214.216669 
L 110.394296 -215.440415 
L 112.076636 -217.005861 
L 113.758976 -218.756317 
L 115.441315 -220.543792 
L 117.123655 -222.032529 
L 118.805994 -223.278652 
L 120.488334 -224.457531 
L 122.170673 -226.042471 
L 123.853013 -228.216851 
L 125.535353 -230.344267 
L 127.217692 -231.792417 
L 128.900032 -231.660146 
L 130.582371 -229.472108 
L 132.264711 -225.930751 
L 133.947051 -221.882886 
L 135.62939 -218.308281 
L 137.31173 -215.619143 
L 138.994069 -213.889609 
L 140.676409 -212.796638 
L 142.358748 -212.716786 
L 144.041088 -213.655061 
L 145.723428 -215.916993 
L 147.405767 -219.032973 
L 149.088107 -222.656777 
L 150.770446 -225.729396 
L 152.452786 -227.231324 
L 154.135126 -227.419759 
L 155.817465 -226.184597 
L 157.499805 -224.294291 
L 159.182144 -222.724863 
L 160.864484 -222.081182 
L 162.546823 -222.670983 
L 164.229163 -224.468232 
L 165.911503 -226.131663 
L 167.593842 -227.27971 
L 169.276182 -227.994441 
L 170.958521 -227.184612 
L 172.640861 -224.828277 
L 174.323201 -220.505244 
L 176.00554 -215.256464 
L 177.68788 -208.6044 
L 179.370219 -202.372243 
L 181.052559 -196.886973 
L 182.734899 -192.418783 
L 184.417238 -189.307932 
L 186.099578 -187.517222 
L 187.781917 -188.291818 
L 189.464257 -192.189428 
L 191.146596 -200.541049 
L 192.828936 -213.786004 
L 194.511276 -232.370446 
L 196.193615 -255.337889 
L 197.875955 -280.529223 
L 199.558294 -305.720401 
L 201.240634 -328.598838 
L 202.922974 -348.150218 
L 204.605313 -364.397858 
L 206.287653 -377.338634 
L 207.969992 -387.0889 
L 209.652332 -393.896464 
L 211.334671 -397.225338 
L 213.017011 -397.739887 
L 214.699351 -397.026575 
L 216.38169 -396.761156 
L 218.06403 -397.732629 
L 219.746369 -399.345905 
L 221.428709 -400.308256 
L 223.111049 -398.928538 
L 224.793388 -394.278327 
L 226.475728 -386.726551 
L 228.158067 -378.203456 
L 229.840407 -370.760503 
L 231.522746 -365.441932 
L 233.205086 -362.085164 
L 234.887426 -359.063031 
L 236.569765 -354.202139 
L 238.252105 -347.218838 
L 239.934444 -338.968121 
L 241.616784 -330.829634 
L 243.299124 -324.302505 
L 244.981463 -319.84436 
L 246.663803 -316.607294 
L 248.346142 -313.899405 
L 250.028482 -310.838835 
L 251.710822 -307.727368 
L 253.393161 -305.779314 
L 255.075501 -304.712849 
L 256.75784 -304.178033 
L 258.44018 -303.415706 
L 260.122519 -301.377754 
L 261.804859 -297.989702 
L 263.487199 -294.909404 
L 265.169538 -293.869297 
L 266.851878 -294.425252 
L 268.534217 -295.513913 
L 270.216557 -295.462701 
L 271.898897 -293.227862 
L 273.581236 -289.13977 
L 275.263576 -283.27508 
L 276.945915 -277.074904 
L 278.628255 -272.170804 
L 280.310594 -269.524767 
L 281.992934 -268.973926 
L 283.675274 -269.652489 
L 285.357613 -270.668238 
L 287.039953 -271.451629 
L 288.722292 -271.861669 
L 290.404632 -271.693408 
L 292.086972 -271.242407 
L 293.769311 -270.635676 
L 295.451651 -269.701231 
L 297.13399 -268.402527 
L 298.81633 -266.593912 
L 300.498669 -265.019187 
L 302.181009 -263.70902 
L 303.863349 -262.835284 
L 305.545688 -262.422775 
L 307.228028 -262.975139 
L 308.910367 -264.075888 
L 310.592707 -265.43703 
L 312.275047 -266.667526 
L 313.957386 -267.945932 
L 315.639726 -269.358815 
L 317.322065 -270.699178 
L 319.004405 -271.774427 
L 320.686745 -272.312179 
L 322.369084 -272.973693 
L 324.051424 -274.38882 
L 325.733763 -277.023842 
L 327.416103 -280.949423 
L 329.098442 -285.855323 
L 330.780782 -291.533282 
L 332.463122 -297.151717 
L 334.145461 -302.082605 
L 335.827801 -306.113331 
L 337.51014 -308.894899 
L 339.19248 -310.342726 
L 340.87482 -310.476125 
L 342.557159 -309.599308 
L 344.239499 -308.360581 
L 345.921838 -307.76438 
L 347.604178 -308.500179 
L 349.286517 -310.494665 
L 350.968857 -313.00294 
L 352.651197 -315.289425 
L 354.333536 -316.847042 
L 356.015876 -317.424119 
L 357.698215 -317.289038 
L 359.380555 -317.314658 
L 361.062895 -317.363158 
L 362.745234 -317.308982 
L 364.427574 -317.411448 
L 366.109913 -317.68122 
L 367.792253 -318.783144 
L 369.474593 -321.44496 
L 371.156932 -325.348545 
L 372.839272 -329.833565 
L 374.521611 -333.299446 
L 376.203951 -334.33077 
L 377.88629 -332.886547 
L 379.56863 -330.001754 
L 381.25097 -327.37829 
L 382.933309 -326.048904 
L 384.615649 -326.744588 
L 386.297988 -328.35346 
L 387.980328 -329.291869 
L 389.662668 -328.696655 
L 391.345007 -326.598254 
L 393.027347 -324.240738 
L 394.709686 -322.903149 
L 396.392026 -322.919424 
L 398.074365 -323.431123 
L 399.756705 -323.716768 
L 401.439045 -323.13016 
L 403.121384 -321.760191 
L 404.803724 -320.297292 
L 406.486063 -319.885723 
L 408.168403 -320.515523 
L 409.850743 -321.376784 
L 411.533082 -321.482048 
L 413.215422 -320.187509 
L 414.897761 -317.727454 
L 416.580101 -314.856704 
L 418.26244 -312.627177 
L 419.94478 -311.016664 
L 421.62712 -309.857485 
L 423.309459 -308.19779 
L 424.991799 -305.945679 
L 426.674138 -303.309056 
L 428.356478 -300.915812 
L 430.038818 -299.683829 
L 431.721157 -299.484206 
L 433.403497 -299.098956 
L 435.085836 -297.490903 
L 436.768176 -294.242331 
L 438.450516 -290.091831 
L 440.132855 -286.856879 
L 441.815195 -285.547355 
L 443.497534 -286.55045 
L 445.179874 -289.017268 
L 446.862213 -291.438691 
L 448.544553 -292.873318 
L 450.226893 -292.988965 
L 451.909232 -292.36487 
L 453.591572 -291.473017 
L 455.273911 -290.743225 
L 456.956251 -290.349374 
L 458.638591 -289.573057 
L 460.32093 -288.402454 
L 462.00327 -286.969337 
L 463.685609 -285.995784 
L 465.367949 -285.336881 
L 467.050288 -284.690385 
L 468.732628 -283.454751 
L 470.414968 -281.548228 
L 472.097307 -279.152932 
L 473.779647 -277.386805 
L 475.461986 -277.109426 
L 477.144326 -278.186749 
L 478.826666 -279.462073 
L 480.509005 -280.010533 
L 482.191345 -279.091484 
L 483.873684 -277.339321 
L 485.556024 -276.399381 
L 487.238363 -277.058606 
L 488.920703 -279.523532 
L 490.603043 -283.0065 
L 492.285382 -285.780691 
L 493.967722 -287.236857 
L 495.650061 -286.864821 
L 497.332401 -285.823083 
L 499.014741 -285.089783 
L 500.69708 -284.983745 
L 502.37942 -285.08744 
L 504.061759 -284.660005 
L 505.744099 -283.469042 
L 507.426439 -281.44461 
L 509.108778 -279.628755 
L 510.791118 -278.923718 
L 512.473457 -279.390568 
L 514.155797 -280.405137 
L 515.838136 -281.219804 
L 517.520476 -281.599082 
L 519.202816 -281.817954 
L 520.885155 -282.136578 
L 522.567495 -282.712515 
L 524.249834 -283.361501 
L 525.932174 -283.519468 
L 527.614514 -282.92813 
L 529.296853 -282.286383 
L 530.979193 -282.338181 
L 532.661532 -283.606324 
L 534.343872 -285.52296 
L 536.026211 -286.702324 
L 537.708551 -285.862287 
L 539.390891 -282.996531 
L 541.07323 -279.4929 
L 542.75557 -276.714241 
L 544.437909 -275.978743 
L 546.120249 -276.79522 
L 547.802589 -277.53341 
L 549.484928 -276.381186 
L 551.167268 -273.353814 
L 552.849607 -269.886021 
L 554.531947 -268.059067 
L 556.214286 -268.842756 
L 557.896626 -271.835794 
L 559.578966 -275.387924 
L 561.261305 -277.374351 
L 561.261305 -284.205282 
L 561.261305 -284.205282 
L 559.578966 -282.365142 
L 557.896626 -278.923144 
L 556.214286 -275.869432 
L 554.531947 -275.173347 
L 552.849607 -277.151123 
L 551.167268 -280.619913 
L 549.484928 -283.6183 
L 547.802589 -284.844871 
L 546.120249 -284.327832 
L 544.437909 -283.472904 
L 542.75557 -284.044641 
L 541.07323 -286.501973 
L 539.390891 -289.796153 
L 537.708551 -292.460736 
L 536.026211 -293.341346 
L 534.343872 -292.345234 
L 532.661532 -290.67683 
L 530.979193 -289.385639 
L 529.296853 -289.138736 
L 527.614514 -289.590398 
L 525.932174 -290.075736 
L 524.249834 -290.032213 
L 522.567495 -289.319589 
L 520.885155 -288.833044 
L 519.202816 -288.692582 
L 517.520476 -288.574572 
L 515.838136 -288.042252 
L 514.155797 -287.031657 
L 512.473457 -285.856594 
L 510.791118 -285.314541 
L 509.108778 -286.017238 
L 507.426439 -287.839665 
L 505.744099 -289.790572 
L 504.061759 -291.225772 
L 502.37942 -291.637509 
L 500.69708 -291.343067 
L 499.014741 -291.332768 
L 497.332401 -292.030385 
L 495.650061 -293.074937 
L 493.967722 -293.466335 
L 492.285382 -292.233681 
L 490.603043 -289.583876 
L 488.920703 -286.482918 
L 487.238363 -284.017579 
L 485.556024 -283.223397 
L 483.873684 -284.030293 
L 482.191345 -285.598847 
L 480.509005 -286.349107 
L 478.826666 -285.901397 
L 477.144326 -284.689371 
L 475.461986 -283.67545 
L 473.779647 -283.960116 
L 472.097307 -285.635109 
L 470.414968 -287.970194 
L 468.732628 -289.941265 
L 467.050288 -291.014866 
L 465.367949 -291.557596 
L 463.685609 -292.043309 
L 462.00327 -293.291059 
L 460.32093 -294.913805 
L 458.638591 -296.153418 
L 456.956251 -296.985322 
L 455.273911 -297.268919 
L 453.591572 -297.796687 
L 451.909232 -298.673322 
L 450.226893 -299.230052 
L 448.544553 -299.048004 
L 446.862213 -297.658048 
L 445.179874 -295.255588 
L 443.497534 -292.81932 
L 441.815195 -291.94545 
L 440.132855 -293.264958 
L 438.450516 -296.628884 
L 436.768176 -300.611022 
L 435.085836 -303.555396 
L 433.403497 -305.059031 
L 431.721157 -305.444608 
L 430.038818 -305.611133 
L 428.356478 -306.785635 
L 426.674138 -309.217023 
L 424.991799 -312.021509 
L 423.309459 -314.246977 
L 421.62712 -315.737282 
L 419.94478 -316.924043 
L 418.26244 -318.523309 
L 416.580101 -320.833575 
L 414.897761 -323.705015 
L 413.215422 -326.332177 
L 411.533082 -327.823056 
L 409.850743 -327.780245 
L 408.168403 -326.690743 
L 406.486063 -325.992469 
L 404.803724 -326.587632 
L 403.121384 -328.192155 
L 401.439045 -329.755378 
L 399.756705 -330.425403 
L 398.074365 -329.985271 
L 396.392026 -329.365055 
L 394.709686 -329.246091 
L 393.027347 -330.602692 
L 391.345007 -332.729159 
L 389.662668 -334.624872 
L 387.980328 -335.19064 
L 386.297988 -334.107048 
L 384.615649 -332.655733 
L 382.933309 -332.04571 
L 381.25097 -333.216212 
L 379.56863 -336.073867 
L 377.88629 -339.111144 
L 376.203951 -340.64726 
L 374.521611 -339.40663 
L 372.839272 -335.757374 
L 371.156932 -331.120152 
L 369.474593 -327.205697 
L 367.792253 -324.913118 
L 366.109913 -324.059477 
L 364.427574 -324.068354 
L 362.745234 -323.849944 
L 361.062895 -323.666799 
L 359.380555 -323.637796 
L 357.698215 -323.560285 
L 356.015876 -323.711453 
L 354.333536 -323.276116 
L 352.651197 -321.742874 
L 350.968857 -319.565093 
L 349.286517 -316.981269 
L 347.604178 -315.017459 
L 345.921838 -314.224072 
L 344.239499 -314.704402 
L 342.557159 -315.78808 
L 340.87482 -316.698528 
L 339.19248 -316.732142 
L 337.51014 -315.637454 
L 335.827801 -313.013337 
L 334.145461 -308.928743 
L 332.463122 -303.857343 
L 330.780782 -298.044644 
L 329.098442 -292.153306 
L 327.416103 -286.931044 
L 325.733763 -282.855966 
L 324.051424 -280.1839 
L 322.369084 -278.957175 
L 320.686745 -278.320805 
L 319.004405 -277.65818 
L 317.322065 -276.516964 
L 315.639726 -275.138852 
L 313.957386 -273.661552 
L 312.275047 -272.358506 
L 310.592707 -271.444067 
L 308.910367 -270.431153 
L 307.228028 -269.552615 
L 305.545688 -269.188633 
L 303.863349 -269.452834 
L 302.181009 -270.088905 
L 300.498669 -271.129405 
L 298.81633 -272.572126 
L 297.13399 -274.194016 
L 295.451651 -275.556925 
L 293.769311 -276.622855 
L 292.086972 -277.364334 
L 290.404632 -277.762976 
L 288.722292 -277.873356 
L 287.039953 -277.529078 
L 285.357613 -276.729859 
L 283.675274 -275.665542 
L 281.992934 -274.832413 
L 280.310594 -275.325478 
L 278.628255 -278.044041 
L 276.945915 -282.997764 
L 275.263576 -289.387888 
L 273.581236 -295.173273 
L 271.898897 -299.149271 
L 270.216557 -301.270473 
L 268.534217 -301.391993 
L 266.851878 -300.255782 
L 265.169538 -299.833146 
L 263.487199 -300.993893 
L 261.804859 -304.114012 
L 260.122519 -307.333593 
L 258.44018 -309.217062 
L 256.75784 -310.015638 
L 255.075501 -310.349106 
L 253.393161 -311.33065 
L 251.710822 -313.26186 
L 250.028482 -316.252883 
L 248.346142 -319.301409 
L 246.663803 -322.040324 
L 244.981463 -325.338795 
L 243.299124 -329.980081 
L 241.616784 -336.526999 
L 239.934444 -344.623001 
L 238.252105 -353.104554 
L 236.569765 -360.301483 
L 234.887426 -365.189097 
L 233.205086 -368.079189 
L 231.522746 -371.321948 
L 229.840407 -376.47515 
L 228.158067 -383.716694 
L 226.475728 -392.18811 
L 224.793388 -399.64609 
L 223.111049 -404.291951 
L 221.428709 -405.772996 
L 219.746369 -404.863951 
L 218.06403 -403.375771 
L 216.38169 -402.765641 
L 214.699351 -403.131353 
L 213.017011 -403.709995 
L 211.334671 -402.938613 
L 209.652332 -399.630423 
L 207.969992 -393.127764 
L 206.287653 -383.764375 
L 204.605313 -371.148308 
L 202.922974 -354.995855 
L 201.240634 -335.721523 
L 199.558294 -312.943183 
L 197.875955 -287.815302 
L 196.193615 -262.213442 
L 194.511276 -238.723732 
L 192.828936 -219.779899 
L 191.146596 -206.231241 
L 189.464257 -197.766004 
L 187.781917 -193.764892 
L 186.099578 -193.004528 
L 184.417238 -194.644847 
L 182.734899 -197.800917 
L 181.052559 -202.267709 
L 179.370219 -207.786868 
L 177.68788 -214.156088 
L 176.00554 -220.637369 
L 174.323201 -225.857535 
L 172.640861 -230.004473 
L 170.958521 -232.380566 
L 169.276182 -233.296261 
L 167.593842 -232.637638 
L 165.911503 -231.45712 
L 164.229163 -229.934118 
L 162.546823 -228.352083 
L 160.864484 -227.853884 
L 159.182144 -228.57044 
L 157.499805 -230.051135 
L 155.817465 -231.828565 
L 154.135126 -232.84351 
L 152.452786 -232.404425 
L 150.770446 -230.858201 
L 149.088107 -227.8948 
L 147.405767 -224.310591 
L 145.723428 -221.158125 
L 144.041088 -218.827279 
L 142.358748 -217.898149 
L 140.676409 -217.927914 
L 138.994069 -219.277046 
L 137.31173 -221.171674 
L 135.62939 -223.765281 
L 133.947051 -227.068482 
L 132.264711 -230.776021 
L 130.582371 -233.951824 
L 128.900032 -235.925059 
L 127.217692 -236.179868 
L 125.535353 -234.76986 
L 123.853013 -232.624271 
L 122.170673 -230.40471 
L 120.488334 -228.750877 
L 118.805994 -227.421876 
L 117.123655 -226.029865 
L 115.441315 -224.41189 
L 113.758976 -222.643657 
L 112.076636 -221.02283 
L 110.394296 -219.596547 
L 108.711957 -218.3883 
L 107.029617 -217.268037 
L 105.347278 -216.005701 
L 103.664938 -215.290522 
L 101.982598 -215.974871 
L 100.300259 -217.897601 
L 98.617919 -220.73496 
L 96.93558 -223.772759 
L 95.25324 -225.793074 
L 93.5709 -225.819846 
L 91.888561 -223.963533 
L 90.206221 -221.514831 
L 88.523882 -220.176356 
L 86.841542 -220.334206 
L 85.159203 -221.942516 
L 83.476863 -223.453241 
L 81.794523 -223.419243 
L 80.112184 -221.440294 
L 78.429844 -218.430269 
L 76.747505 -215.628699 
L 75.065165 -214.568729 
L 73.382825 -215.679192 
L 71.700486 -218.184595 
L 70.018146 -221.037858 
L 68.335807 -224.036893 
L 66.653467 -226.632317 
L 64.971128 -228.429526 
L 63.288788 -230.015412 
L 61.606448 -231.241702 
L 59.924109 -231.904448 
L 58.241769 -232.199007 
L 56.55943 -232.519952 
L 54.87709 -233.123314 
L 53.19475 -234.38083 
L 51.512411 -236.237815 
L 49.830071 -238.507363 
L 48.147732 -240.408954 
L 46.465392 -241.64563 
L 44.783052 -241.831726 
z
" style="stroke: #ff7f0e; stroke-opacity: 0.3"/>
    </defs>
    <g>
     <use xlink:href="#m7781db63cd" x="0" y="432" style="fill: #ff7f0e; fill-opacity: 0.3; stroke: #ff7f0e; stroke-opacity: 0.3"/>
    </g>
   </g>
   <g id="line2d_19">
    <path d="M 44.783052 191.650317 
L 46.465392 192.535303 
L 49.830071 199.352715 
L 51.512411 200.945773 
L 53.19475 199.594078 
L 54.87709 194.925166 
L 56.55943 190.677976 
L 58.241769 189.840071 
L 59.924109 193.534308 
L 61.606448 200.549444 
L 63.288788 208.173602 
L 64.971128 213.521186 
L 66.653467 214.931461 
L 68.335807 213.49736 
L 70.018146 211.681755 
L 71.700486 210.691276 
L 73.382825 211.813545 
L 76.747505 216.184237 
L 78.429844 217.604121 
L 80.112184 217.992555 
L 81.794523 218.219194 
L 83.476863 218.581262 
L 85.159203 218.688852 
L 86.841542 218.171842 
L 88.523882 216.476622 
L 90.206221 213.505496 
L 93.5709 206.733316 
L 95.25324 204.348285 
L 96.93558 203.572825 
L 98.617919 204.896304 
L 100.300259 208.136796 
L 103.664938 217.074225 
L 105.347278 219.508255 
L 107.029617 219.237327 
L 108.711957 216.128122 
L 110.394296 211.740099 
L 112.076636 207.890693 
L 113.758976 205.325142 
L 115.441315 204.519637 
L 118.805994 205.141965 
L 120.488334 204.797035 
L 122.170673 203.848718 
L 123.853013 203.858343 
L 125.535353 205.377745 
L 127.217692 208.09515 
L 128.900032 211.223604 
L 130.582371 212.566157 
L 132.264711 211.818901 
L 133.947051 209.382705 
L 135.62939 207.169095 
L 137.31173 206.954398 
L 138.994069 208.795759 
L 140.676409 211.932754 
L 142.358748 214.656853 
L 144.041088 215.993328 
L 145.723428 215.710593 
L 149.088107 213.44865 
L 150.770446 212.954562 
L 152.452786 213.140364 
L 154.135126 213.757815 
L 155.817465 214.162104 
L 157.499805 214.098943 
L 159.182144 213.450155 
L 160.864484 212.084216 
L 162.546823 209.995253 
L 164.229163 207.178571 
L 165.911503 203.95675 
L 167.593842 201.100985 
L 169.276182 199.855036 
L 170.958521 200.200857 
L 172.640861 203.009692 
L 174.323201 207.049035 
L 177.68788 216.644878 
L 179.370219 220.391727 
L 181.052559 222.895994 
L 182.734899 224.699925 
L 184.417238 226.95879 
L 186.099578 229.770769 
L 187.781917 231.823504 
L 189.464257 232.187898 
L 191.146596 229.018589 
L 192.828936 220.814171 
L 194.511276 207.384708 
L 196.193615 188.326901 
L 197.875955 163.934141 
L 201.240634 110.433391 
L 202.922974 86.264275 
L 204.605313 66.340028 
L 206.287653 51.234999 
L 207.969992 39.978164 
L 209.652332 31.858269 
L 211.334671 26.190216 
L 213.017011 23.007566 
L 214.699351 22.298164 
L 216.38169 23.891083 
L 219.746369 30.290175 
L 221.428709 33.630176 
L 224.793388 39.603836 
L 226.475728 43.57347 
L 228.158067 48.914549 
L 229.840407 55.744864 
L 231.522746 63.75879 
L 233.205086 72.332608 
L 234.887426 80.071031 
L 236.569765 85.963328 
L 238.252105 90.974601 
L 241.616784 99.989024 
L 244.981463 111.202816 
L 246.663803 117.160669 
L 248.346142 121.710395 
L 250.028482 124.994805 
L 251.710822 126.37578 
L 253.393161 125.862669 
L 255.075501 124.015371 
L 256.75784 121.950374 
L 258.44018 120.697562 
L 260.122519 120.776863 
L 261.804859 122.700275 
L 263.487199 125.208356 
L 265.169538 127.393238 
L 266.851878 129.048153 
L 268.534217 130.024376 
L 270.216557 130.846242 
L 271.898897 131.858808 
L 273.581236 133.451973 
L 276.945915 136.918126 
L 278.628255 138.18123 
L 280.310594 139.62831 
L 281.992934 141.900028 
L 285.357613 147.307458 
L 287.039953 149.259118 
L 288.722292 150.133805 
L 290.404632 149.57499 
L 292.086972 148.440921 
L 293.769311 148.670903 
L 295.451651 150.723843 
L 297.13399 154.640025 
L 298.81633 159.343516 
L 300.498669 163.516802 
L 302.181009 166.094108 
L 303.863349 166.919129 
L 307.228028 167.625988 
L 308.910367 167.708704 
L 310.592707 167.169304 
L 312.275047 165.505751 
L 313.957386 162.452912 
L 319.004405 149.378208 
L 320.686745 145.638945 
L 322.369084 143.082735 
L 324.051424 141.478706 
L 325.733763 140.847189 
L 327.416103 140.854556 
L 329.098442 140.744222 
L 330.780782 139.37758 
L 332.463122 135.843851 
L 334.145461 131.080843 
L 335.827801 125.760996 
L 337.51014 121.048691 
L 339.19248 118.133492 
L 340.87482 117.147163 
L 342.557159 117.605531 
L 344.239499 118.526177 
L 345.921838 118.848022 
L 347.604178 117.825718 
L 349.286517 115.399829 
L 350.968857 112.630822 
L 352.651197 109.503225 
L 356.015876 102.65376 
L 357.698215 99.824202 
L 359.380555 98.092077 
L 361.062895 97.238637 
L 362.745234 97.046833 
L 364.427574 96.591643 
L 366.109913 95.411615 
L 367.792253 93.833764 
L 369.474593 92.536047 
L 371.156932 92.227893 
L 372.839272 93.105653 
L 376.203951 97.500025 
L 377.88629 99.038955 
L 379.56863 99.421151 
L 381.25097 98.825663 
L 384.615649 96.978127 
L 386.297988 95.166559 
L 387.980328 92.228849 
L 389.662668 88.36532 
L 391.345007 84.827792 
L 393.027347 82.885504 
L 394.709686 83.167359 
L 396.392026 85.283896 
L 398.074365 88.071476 
L 399.756705 90.07258 
L 401.439045 90.759467 
L 403.121384 91.025583 
L 404.803724 92.01916 
L 406.486063 94.560395 
L 408.168403 98.58585 
L 409.850743 102.975062 
L 411.533082 106.04672 
L 413.215422 107.232637 
L 414.897761 107.431644 
L 416.580101 108.055977 
L 418.26244 110.051902 
L 419.94478 113.198466 
L 421.62712 116.609647 
L 423.309459 118.858714 
L 424.991799 119.11769 
L 426.674138 118.400527 
L 428.356478 117.859182 
L 430.038818 118.902485 
L 431.721157 122.740072 
L 433.403497 127.72188 
L 435.085836 132.10412 
L 436.768176 134.590078 
L 438.450516 134.49398 
L 441.815195 131.579347 
L 443.497534 132.089691 
L 445.179874 134.785754 
L 446.862213 139.506902 
L 448.544553 144.715978 
L 450.226893 148.516643 
L 451.909232 150.267329 
L 453.591572 149.892273 
L 455.273911 148.591661 
L 456.956251 147.695488 
L 458.638591 147.286616 
L 460.32093 147.532478 
L 462.00327 148.17347 
L 463.685609 147.708579 
L 465.367949 146.38323 
L 467.050288 144.392278 
L 468.732628 141.975266 
L 470.414968 140.119486 
L 472.097307 139.189723 
L 473.779647 139.345231 
L 475.461986 141.242081 
L 477.144326 144.463718 
L 480.509005 152.574038 
L 482.191345 155.502579 
L 483.873684 157.41706 
L 485.556024 158.837028 
L 487.238363 160.071471 
L 488.920703 161.733035 
L 490.603043 163.674538 
L 492.285382 164.721257 
L 493.967722 163.804086 
L 495.650061 160.952016 
L 497.332401 157.303499 
L 499.014741 154.518822 
L 500.69708 153.610153 
L 502.37942 154.727796 
L 505.744099 159.671977 
L 507.426439 161.236737 
L 509.108778 160.775222 
L 510.791118 158.598194 
L 512.473457 155.706238 
L 514.155797 153.455277 
L 515.838136 153.073575 
L 517.520476 155.809792 
L 519.202816 161.380592 
L 520.885155 168.331445 
L 522.567495 174.487179 
L 524.249834 178.236562 
L 525.932174 178.54652 
L 527.614514 175.723908 
L 530.979193 167.41455 
L 532.661532 164.565617 
L 534.343872 162.938533 
L 537.708551 160.536429 
L 539.390891 159.215553 
L 541.07323 158.543859 
L 542.75557 159.457814 
L 544.437909 162.422364 
L 547.802589 171.316334 
L 549.484928 174.472221 
L 551.167268 175.659656 
L 552.849607 175.375445 
L 554.531947 174.60238 
L 556.214286 174.433288 
L 557.896626 175.334343 
L 559.578966 177.076573 
L 561.261305 179.096472 
L 561.261305 179.096472 
" style="fill: none; stroke: #1f77b4; stroke-width: 1.5; stroke-linecap: square"/>
   </g>
   <g id="line2d_20">
    <path d="M 44.783052 192.434568 
L 46.465392 192.554979 
L 48.147732 193.852745 
L 49.830071 195.849979 
L 51.512411 198.156499 
L 53.19475 200.001776 
L 54.87709 201.249619 
L 56.55943 201.917955 
L 59.924109 202.521706 
L 61.606448 203.194837 
L 63.288788 204.405817 
L 64.971128 205.873255 
L 66.653467 207.527032 
L 68.335807 210.025226 
L 71.700486 216.011327 
L 73.382825 218.599156 
L 75.065165 219.583058 
L 76.747505 218.484638 
L 78.429844 215.713849 
L 80.112184 212.712682 
L 81.794523 210.785985 
L 83.476863 210.728365 
L 85.159203 212.044475 
L 86.841542 213.534243 
L 88.523882 213.567508 
L 90.206221 212.338761 
L 91.888561 209.974777 
L 93.5709 208.221648 
L 95.25324 208.293358 
L 96.93558 210.210091 
L 100.300259 216.062728 
L 101.982598 217.974719 
L 103.664938 218.726535 
L 105.347278 218.12886 
L 108.711957 215.742049 
L 110.394296 214.479857 
L 112.076636 212.970451 
L 115.441315 209.452057 
L 117.123655 207.916339 
L 120.488334 205.388233 
L 122.170673 203.767883 
L 125.535353 199.393 
L 127.217692 198.042528 
L 128.900032 198.291951 
L 130.582371 200.309757 
L 132.264711 203.707832 
L 133.947051 207.535616 
L 135.62939 211.021814 
L 137.31173 213.639194 
L 138.994069 215.444766 
L 140.676409 216.698539 
L 142.358748 216.744993 
L 144.041088 215.780998 
L 145.723428 213.468784 
L 147.405767 210.333944 
L 149.088107 206.727778 
L 150.770446 203.710647 
L 152.452786 202.182157 
L 154.135126 201.912837 
L 155.817465 202.990418 
L 157.499805 204.818932 
L 159.182144 206.363764 
L 160.864484 207.063539 
L 162.546823 206.481641 
L 165.911503 203.198271 
L 167.593842 202.020983 
L 169.276182 201.308383 
L 170.958521 202.129921 
L 172.640861 204.489355 
L 174.323201 208.686583 
L 176.00554 213.947613 
L 179.370219 226.806241 
L 181.052559 232.318816 
L 182.734899 236.746037 
L 184.417238 239.916037 
L 186.099578 241.600416 
L 187.781917 240.857221 
L 189.464257 236.880387 
L 191.146596 228.545413 
L 192.828936 215.140819 
L 194.511276 196.406246 
L 196.193615 173.185445 
L 199.558294 122.666697 
L 201.240634 99.852586 
L 202.922974 80.417961 
L 204.605313 64.28045 
L 206.287653 51.477925 
L 207.969992 41.913161 
L 209.652332 35.258276 
L 211.334671 31.933061 
L 213.017011 31.263758 
L 214.699351 31.895214 
L 216.38169 32.24873 
L 218.06403 31.527527 
L 219.746369 30.003026 
L 221.428709 29.027258 
L 223.111049 30.4395 
L 224.793388 35.08171 
L 226.475728 42.595336 
L 228.158067 50.98096 
L 229.840407 58.315978 
L 231.522746 63.5503 
L 233.205086 66.836141 
L 234.887426 69.815552 
L 236.569765 74.663254 
L 238.252105 81.788076 
L 241.616784 98.23748 
L 243.299124 104.767315 
L 244.981463 109.308094 
L 246.663803 112.540175 
L 250.028482 118.425973 
L 251.710822 121.48882 
L 253.393161 123.487999 
L 255.075501 124.510373 
L 256.75784 124.951794 
L 258.44018 125.713571 
L 260.122519 127.635945 
L 263.487199 133.902778 
L 265.169538 135.063455 
L 266.851878 134.52849 
L 268.534217 133.500747 
L 270.216557 133.63554 
L 271.898897 135.764178 
L 273.581236 139.787387 
L 275.263576 145.658119 
L 276.945915 152.036199 
L 278.628255 157.0131 
L 280.310594 159.702995 
L 281.992934 160.193971 
L 283.675274 159.405787 
L 285.357613 158.349059 
L 287.039953 157.515433 
L 288.722292 157.122768 
L 290.404632 157.207759 
L 292.086972 157.639238 
L 293.769311 158.371667 
L 295.451651 159.354948 
L 297.13399 160.701894 
L 298.81633 162.433455 
L 300.498669 163.984613 
L 302.181009 165.12984 
L 303.863349 165.882316 
L 305.545688 166.153309 
L 307.228028 165.695755 
L 308.910367 164.712165 
L 310.592707 163.543284 
L 312.275047 162.524488 
L 313.957386 161.190165 
L 317.322065 158.231752 
L 319.004405 157.165279 
L 322.369084 155.938017 
L 324.051424 154.701992 
L 325.733763 152.109128 
L 327.416103 148.127328 
L 329.098442 143.054057 
L 332.463122 131.537997 
L 334.145461 126.571499 
L 335.827801 122.531253 
L 337.51014 119.757176 
L 339.19248 118.496864 
L 340.87482 118.39456 
L 342.557159 119.27314 
L 344.239499 120.426308 
L 345.921838 120.973539 
L 347.604178 120.223759 
L 349.286517 118.245536 
L 350.968857 115.695035 
L 352.651197 113.362717 
L 354.333536 111.842895 
L 356.015876 111.375413 
L 357.698215 111.511496 
L 362.745234 111.46482 
L 366.109913 111.203207 
L 367.792253 110.170011 
L 369.474593 107.672666 
L 371.156932 103.749959 
L 372.839272 99.171416 
L 374.521611 95.607683 
L 376.203951 94.422229 
L 377.88629 95.912175 
L 381.25097 101.693712 
L 382.933309 102.945802 
L 384.615649 102.297502 
L 386.297988 100.740196 
L 387.980328 99.750956 
L 389.662668 100.321145 
L 391.345007 102.260923 
L 393.027347 104.477764 
L 394.709686 105.892539 
L 396.392026 105.839751 
L 398.074365 105.257617 
L 399.756705 104.861544 
L 401.439045 105.522366 
L 404.803724 108.483891 
L 406.486063 109.003276 
L 408.168403 108.341344 
L 409.850743 107.406812 
L 411.533082 107.32435 
L 413.215422 108.754943 
L 414.897761 111.271947 
L 416.580101 114.106664 
L 418.26244 116.418048 
L 419.94478 117.959623 
L 421.62712 119.117658 
L 423.309459 120.670937 
L 424.991799 122.922485 
L 426.674138 125.661078 
L 428.356478 128.053788 
L 430.038818 129.272512 
L 431.721157 129.461499 
L 433.403497 129.843973 
L 435.085836 131.380652 
L 436.768176 134.417762 
L 438.450516 138.491229 
L 440.132855 141.811639 
L 441.815195 143.138671 
L 443.497534 142.176761 
L 446.862213 137.299867 
L 448.544553 135.935947 
L 450.226893 135.825419 
L 451.909232 136.42273 
L 453.591572 137.256819 
L 455.273911 137.879461 
L 456.956251 138.231685 
L 458.638591 138.966461 
L 460.32093 140.242699 
L 462.00327 141.744352 
L 463.685609 142.915799 
L 467.050288 144.079267 
L 468.732628 145.17526 
L 470.414968 147.153559 
L 472.097307 149.496919 
L 473.779647 151.22794 
L 475.461986 151.509509 
L 477.144326 150.538048 
L 478.826666 149.284331 
L 480.509005 148.799513 
L 482.191345 149.645937 
L 483.873684 151.30322 
L 485.556024 152.269853 
L 487.238363 151.534638 
L 488.920703 149.009377 
L 490.603043 145.689194 
L 492.285382 142.93064 
L 493.967722 141.581181 
L 495.650061 141.949407 
L 497.332401 143.042625 
L 499.014741 143.764485 
L 500.69708 143.841907 
L 502.37942 143.654925 
L 504.061759 144.077533 
L 505.744099 145.40533 
L 507.426439 147.350099 
L 509.108778 149.044844 
L 510.791118 149.764307 
L 512.473457 149.340134 
L 514.155797 148.269333 
L 515.838136 147.35093 
L 517.520476 146.935758 
L 519.202816 146.800556 
L 520.885155 146.507026 
L 524.249834 145.328663 
L 525.932174 145.232864 
L 529.296853 146.345131 
L 530.979193 146.182946 
L 532.661532 144.94286 
L 534.343872 143.145152 
L 536.026211 142.082525 
L 537.708551 142.912564 
L 539.390891 145.664645 
L 541.07323 149.1288 
L 542.75557 151.645448 
L 544.437909 152.254633 
L 546.120249 151.43467 
L 547.802589 150.803208 
L 549.484928 151.917349 
L 551.167268 154.938226 
L 552.849607 158.447563 
L 554.531947 160.412788 
L 556.214286 159.629986 
L 557.896626 156.563962 
L 559.578966 153.108481 
L 561.261305 151.208362 
L 561.261305 151.208362 
" style="fill: none; stroke: #ff7f0e; stroke-width: 1.5; stroke-linecap: square"/>
   </g>
  </g>
  <g id="axes_2">
   <g id="PathCollection_1">
    <defs>
     <path id="C0_0_e294011bbb" d="M 0 1.118034 
C 0.296506 1.118034 0.580908 1.000231 0.790569 0.790569 
C 1.000231 0.580908 1.118034 0.296506 1.118034 -0 
C 1.118034 -0.296506 1.000231 -0.580908 0.790569 -0.790569 
C 0.580908 -1.000231 0.296506 -1.118034 0 -1.118034 
C -0.296506 -1.118034 -0.580908 -1.000231 -0.790569 -0.790569 
C -1.000231 -0.580908 -1.118034 -0.296506 -1.118034 0 
C -1.118034 0.296506 -1.000231 0.580908 -0.790569 0.790569 
C -0.580908 1.000231 -0.296506 1.118034 0 1.118034 
z
"/>
    </defs>
    <g clip-path="url(#p4bb644624e)">
     <use xlink:href="#C0_0_e294011bbb" x="509.13937" y="46.64915" style="stroke: #000000"/>
    </g>
    <g clip-path="url(#p4bb644624e)">
     <use xlink:href="#C0_0_e294011bbb" x="509.147251" y="56.277599" style="stroke: #000000"/>
    </g>
    <g clip-path="url(#p4bb644624e)">
     <use xlink:href="#C0_0_e294011bbb" x="509.092397" y="76.413687" style="stroke: #000000"/>
    </g>
    <g clip-path="url(#p4bb644624e)">
     <use xlink:href="#C0_0_e294011bbb" x="509.035125" y="85.80057" style="stroke: #000000"/>
    </g>
    <g clip-path="url(#p4bb644624e)">
     <use xlink:href="#C0_0_e294011bbb" x="509.130245" y="66.304876" style="stroke: #000000"/>
    </g>
   </g>
   <g id="matplotlib.axis_3"/>
   <g id="matplotlib.axis_4"/>
   <g id="line2d_21">
    <path d="M 548.860095 73.636387 
L 548.782417 71.164635 
L 548.54969 68.702638 
L 548.162832 66.260111 
L 547.623369 63.846696 
L 546.933432 61.471916 
L 546.095742 59.145144 
L 545.113607 56.875562 
L 543.990901 54.672127 
L 542.732055 52.543535 
L 541.342038 50.498188 
L 539.826336 48.544156 
L 538.19093 46.689152 
L 536.442274 44.940496 
L 534.58727 43.30509 
L 532.633238 41.789388 
L 530.587891 40.399371 
L 528.459299 39.140526 
L 526.255865 38.017819 
L 523.986282 37.035684 
L 521.65951 36.197994 
L 519.28473 35.508057 
L 516.871315 34.968594 
L 514.428789 34.581736 
L 511.966791 34.349009 
L 509.495039 34.271331 
L 507.023286 34.349009 
L 504.561289 34.581736 
L 502.118763 34.968594 
L 499.705347 35.508057 
L 497.330567 36.197994 
L 495.003795 37.035684 
L 492.734213 38.017819 
L 490.530778 39.140526 
L 488.402187 40.399371 
L 486.356839 41.789388 
L 484.402808 43.30509 
L 482.547803 44.940496 
L 480.799148 46.689152 
L 479.163742 48.544156 
L 477.648039 50.498188 
L 476.258022 52.543535 
L 474.999177 54.672127 
L 473.876471 56.875562 
L 472.894335 59.145144 
L 472.056645 61.471916 
L 471.366708 63.846696 
L 470.827246 66.260111 
L 470.440388 68.702638 
L 470.20766 71.164635 
L 470.129982 73.636387 
L 470.20766 76.10814 
L 470.440388 78.570137 
L 470.827246 81.012663 
L 471.366708 83.426079 
L 472.056645 85.800859 
L 472.894335 88.127631 
L 473.876471 90.397213 
L 474.999177 92.600648 
L 476.258022 94.729239 
L 477.648039 96.774587 
L 479.163742 98.728619 
L 480.799148 100.583623 
L 482.547803 102.332278 
L 484.402808 103.967685 
L 486.356839 105.483387 
L 488.402187 106.873404 
L 490.530778 108.132249 
L 492.734213 109.254955 
L 495.003795 110.237091 
L 497.330567 111.074781 
L 499.705347 111.764718 
L 502.118763 112.30418 
L 504.561289 112.691038 
L 507.023286 112.923766 
L 509.495039 113.001444 
L 511.966791 112.923766 
L 514.428789 112.691038 
L 516.871315 112.30418 
L 519.28473 111.764718 
L 521.65951 111.074781 
L 523.986282 110.237091 
L 526.255865 109.254955 
L 528.459299 108.132249 
L 530.587891 106.873404 
L 532.633238 105.483387 
L 534.58727 103.967685 
L 536.442274 102.332278 
L 538.19093 100.583623 
L 539.826336 98.728619 
L 541.342038 96.774587 
L 542.732055 94.729239 
L 543.990901 92.600648 
L 545.113607 90.397213 
L 546.095742 88.127631 
L 546.933432 85.800859 
L 547.623369 83.426079 
L 548.162832 81.012663 
L 548.54969 78.570137 
L 548.782417 76.10814 
L 548.860095 73.636387 
" style="fill: none; stroke: #000000; stroke-linecap: square"/>
   </g>
   <g id="line2d_22">
    <path d="M 501.250441 35.144385 
L 509.495039 28.366573 
L 517.739637 35.144385 
" style="fill: none; stroke: #000000; stroke-linecap: square"/>
   </g>
   <g id="line2d_23">
    <path d="M 470.366173 69.266866 
L 469.342681 67.534804 
L 468.71284 67.47182 
L 467.775952 67.763121 
L 466.831191 69.266866 
L 466.980778 74.069403 
L 466.429667 80.974034 
L 467.610619 83.973651 
L 469.342681 84.532635 
L 470.996014 83.076128 
" style="fill: none; stroke: #000000; stroke-linecap: square"/>
   </g>
   <g id="line2d_24">
    <path d="M 548.623905 69.266866 
L 549.647396 67.534804 
L 550.277237 67.47182 
L 551.214125 67.763121 
L 552.158887 69.266866 
L 552.0093 74.069403 
L 552.56041 80.974034 
L 551.379459 83.973651 
L 549.647396 84.532635 
L 547.994064 83.076128 
" style="fill: none; stroke: #000000; stroke-linecap: square"/>
   </g>
  </g>
 </g>
 <defs>
  <clipPath id="p069fbf4380">
   <rect x="44.783053" y="18.118365" width="517.083895" height="380.525145"/>
  </clipPath>
  <clipPath id="p4bb644624e">
   <rect x="462.12313" y="24.134829" width="94.743817" height="93.098358"/>
  </clipPath>
 </defs>
</svg>
