<?xml version="1.0" encoding="utf-8" standalone="no"?>
<!DOCTYPE svg PUBLIC "-//W3C//DTD SVG 1.1//EN"
  "http://www.w3.org/Graphics/SVG/1.1/DTD/svg11.dtd">
<svg xmlns:xlink="http://www.w3.org/1999/xlink" width="576pt" height="432pt" viewBox="0 0 576 432" xmlns="http://www.w3.org/2000/svg" version="1.1">
 <metadata>
  <rdf:RDF xmlns:dc="http://purl.org/dc/elements/1.1/" xmlns:cc="http://creativecommons.org/ns#" xmlns:rdf="http://www.w3.org/1999/02/22-rdf-syntax-ns#">
   <cc:Work>
    <dc:type rdf:resource="http://purl.org/dc/dcmitype/StillImage"/>
    <dc:date>2025-02-12T21:11:53.952812</dc:date>
    <dc:format>image/svg+xml</dc:format>
    <dc:creator>
     <cc:Agent>
      <dc:title>Matplotlib v3.10.0, https://matplotlib.org/</dc:title>
     </cc:Agent>
    </dc:creator>
   </cc:Work>
  </rdf:RDF>
 </metadata>
 <defs>
  <style type="text/css">*{stroke-linejoin: round; stroke-linecap: butt}</style>
 </defs>
 <g id="figure_1">
  <g id="patch_1">
   <path d="M 0 432 
L 576 432 
L 576 0 
L 0 0 
z
" style="fill: #ffffff"/>
  </g>
  <g id="axes_1">
   <g id="patch_2">
    <path d="M 38.420552 398.64351 
L 572.99976 398.64351 
L 572.99976 18.118365 
L 38.420552 18.118365 
L 38.420552 398.64351 
z
" style="fill: none; opacity: 0"/>
   </g>
   <g id="patch_3">
    <path d="M 38.420552 342.565246 
L 38.420552 74.196629 
" style="fill: none; stroke: #000000; stroke-width: 0.8; stroke-linejoin: miter; stroke-linecap: square"/>
   </g>
   <g id="LineCollection_1">
    <path d="M 185.177346 18.118365 
L 185.177346 398.64351 
" clip-path="url(#pe370eb4176)" style="fill: none; stroke-dasharray: 3.7,1.6; stroke-dashoffset: 0; stroke: #000000"/>
    <path d="M 225.296906 18.118365 
L 225.296906 398.64351 
" clip-path="url(#pe370eb4176)" style="fill: none; stroke-dasharray: 3.7,1.6; stroke-dashoffset: 0; stroke: #000000"/>
   </g>
   <g id="matplotlib.axis_1">
    <g id="xtick_1">
     <g id="line2d_1">
      <defs>
       <path id="m133d85b020" d="M 0 0 
L 0 3.5 
" style="stroke: #000000; stroke-width: 0.8"/>
      </defs>
      <g>
       <use xlink:href="#m133d85b020" x="64.818666" y="398.64351" style="stroke: #000000; stroke-width: 0.8"/>
      </g>
     </g>
     <g id="text_1">
      <!-- −0.20 -->
      <g transform="translate(49.49601 413.241947) scale(0.1 -0.1)">
       <defs>
        <path id="DejaVuSans-2212" d="M 678 2272 
L 4684 2272 
L 4684 1741 
L 678 1741 
L 678 2272 
z
" transform="scale(0.015625)"/>
        <path id="DejaVuSans-30" d="M 2034 4250 
Q 1547 4250 1301 3770 
Q 1056 3291 1056 2328 
Q 1056 1369 1301 889 
Q 1547 409 2034 409 
Q 2525 409 2770 889 
Q 3016 1369 3016 2328 
Q 3016 3291 2770 3770 
Q 2525 4250 2034 4250 
z
M 2034 4750 
Q 2819 4750 3233 4129 
Q 3647 3509 3647 2328 
Q 3647 1150 3233 529 
Q 2819 -91 2034 -91 
Q 1250 -91 836 529 
Q 422 1150 422 2328 
Q 422 3509 836 4129 
Q 1250 4750 2034 4750 
z
" transform="scale(0.015625)"/>
        <path id="DejaVuSans-2e" d="M 684 794 
L 1344 794 
L 1344 0 
L 684 0 
L 684 794 
z
" transform="scale(0.015625)"/>
        <path id="DejaVuSans-32" d="M 1228 531 
L 3431 531 
L 3431 0 
L 469 0 
L 469 531 
Q 828 903 1448 1529 
Q 2069 2156 2228 2338 
Q 2531 2678 2651 2914 
Q 2772 3150 2772 3378 
Q 2772 3750 2511 3984 
Q 2250 4219 1831 4219 
Q 1534 4219 1204 4116 
Q 875 4013 500 3803 
L 500 4441 
Q 881 4594 1212 4672 
Q 1544 4750 1819 4750 
Q 2544 4750 2975 4387 
Q 3406 4025 3406 3419 
Q 3406 3131 3298 2873 
Q 3191 2616 2906 2266 
Q 2828 2175 2409 1742 
Q 1991 1309 1228 531 
z
" transform="scale(0.015625)"/>
       </defs>
       <use xlink:href="#DejaVuSans-2212"/>
       <use xlink:href="#DejaVuSans-30" transform="translate(83.789062 0)"/>
       <use xlink:href="#DejaVuSans-2e" transform="translate(147.412109 0)"/>
       <use xlink:href="#DejaVuSans-32" transform="translate(179.199219 0)"/>
       <use xlink:href="#DejaVuSans-30" transform="translate(242.822266 0)"/>
      </g>
     </g>
    </g>
    <g id="xtick_2">
     <g id="line2d_2">
      <g>
       <use xlink:href="#m133d85b020" x="153.973244" y="398.64351" style="stroke: #000000; stroke-width: 0.8"/>
      </g>
     </g>
     <g id="text_2">
      <!-- 0.00 -->
      <g transform="translate(142.840431 413.241947) scale(0.1 -0.1)">
       <use xlink:href="#DejaVuSans-30"/>
       <use xlink:href="#DejaVuSans-2e" transform="translate(63.623047 0)"/>
       <use xlink:href="#DejaVuSans-30" transform="translate(95.410156 0)"/>
       <use xlink:href="#DejaVuSans-30" transform="translate(159.033203 0)"/>
      </g>
     </g>
    </g>
    <g id="xtick_3">
     <g id="line2d_3">
      <g>
       <use xlink:href="#m133d85b020" x="185.177346" y="398.64351" style="stroke: #000000; stroke-width: 0.8"/>
      </g>
     </g>
     <g id="text_3">
      <!-- 0.07 -->
      <g transform="translate(174.044534 413.241947) scale(0.1 -0.1)">
       <defs>
        <path id="DejaVuSans-37" d="M 525 4666 
L 3525 4666 
L 3525 4397 
L 1831 0 
L 1172 0 
L 2766 4134 
L 525 4134 
L 525 4666 
z
" transform="scale(0.015625)"/>
       </defs>
       <use xlink:href="#DejaVuSans-30"/>
       <use xlink:href="#DejaVuSans-2e" transform="translate(63.623047 0)"/>
       <use xlink:href="#DejaVuSans-30" transform="translate(95.410156 0)"/>
       <use xlink:href="#DejaVuSans-37" transform="translate(159.033203 0)"/>
      </g>
     </g>
    </g>
    <g id="xtick_4">
     <g id="line2d_4">
      <g>
       <use xlink:href="#m133d85b020" x="225.296906" y="398.64351" style="stroke: #000000; stroke-width: 0.8"/>
      </g>
     </g>
     <g id="text_4">
      <!-- 0.16 -->
      <g transform="translate(214.164094 413.241947) scale(0.1 -0.1)">
       <defs>
        <path id="DejaVuSans-31" d="M 794 531 
L 1825 531 
L 1825 4091 
L 703 3866 
L 703 4441 
L 1819 4666 
L 2450 4666 
L 2450 531 
L 3481 531 
L 3481 0 
L 794 0 
L 794 531 
z
" transform="scale(0.015625)"/>
        <path id="DejaVuSans-36" d="M 2113 2584 
Q 1688 2584 1439 2293 
Q 1191 2003 1191 1497 
Q 1191 994 1439 701 
Q 1688 409 2113 409 
Q 2538 409 2786 701 
Q 3034 994 3034 1497 
Q 3034 2003 2786 2293 
Q 2538 2584 2113 2584 
z
M 3366 4563 
L 3366 3988 
Q 3128 4100 2886 4159 
Q 2644 4219 2406 4219 
Q 1781 4219 1451 3797 
Q 1122 3375 1075 2522 
Q 1259 2794 1537 2939 
Q 1816 3084 2150 3084 
Q 2853 3084 3261 2657 
Q 3669 2231 3669 1497 
Q 3669 778 3244 343 
Q 2819 -91 2113 -91 
Q 1303 -91 875 529 
Q 447 1150 447 2328 
Q 447 3434 972 4092 
Q 1497 4750 2381 4750 
Q 2619 4750 2861 4703 
Q 3103 4656 3366 4563 
z
" transform="scale(0.015625)"/>
       </defs>
       <use xlink:href="#DejaVuSans-30"/>
       <use xlink:href="#DejaVuSans-2e" transform="translate(63.623047 0)"/>
       <use xlink:href="#DejaVuSans-31" transform="translate(95.410156 0)"/>
       <use xlink:href="#DejaVuSans-36" transform="translate(159.033203 0)"/>
      </g>
     </g>
    </g>
    <g id="xtick_5">
     <g id="line2d_5">
      <g>
       <use xlink:href="#m133d85b020" x="243.127822" y="398.64351" style="stroke: #000000; stroke-width: 0.8"/>
      </g>
     </g>
     <g id="text_5">
      <!-- 0.20 -->
      <g transform="translate(231.995009 413.241947) scale(0.1 -0.1)">
       <use xlink:href="#DejaVuSans-30"/>
       <use xlink:href="#DejaVuSans-2e" transform="translate(63.623047 0)"/>
       <use xlink:href="#DejaVuSans-32" transform="translate(95.410156 0)"/>
       <use xlink:href="#DejaVuSans-30" transform="translate(159.033203 0)"/>
      </g>
     </g>
    </g>
    <g id="xtick_6">
     <g id="line2d_6">
      <g>
       <use xlink:href="#m133d85b020" x="332.2824" y="398.64351" style="stroke: #000000; stroke-width: 0.8"/>
      </g>
     </g>
     <g id="text_6">
      <!-- 0.40 -->
      <g transform="translate(321.149587 413.241947) scale(0.1 -0.1)">
       <defs>
        <path id="DejaVuSans-34" d="M 2419 4116 
L 825 1625 
L 2419 1625 
L 2419 4116 
z
M 2253 4666 
L 3047 4666 
L 3047 1625 
L 3713 1625 
L 3713 1100 
L 3047 1100 
L 3047 0 
L 2419 0 
L 2419 1100 
L 313 1100 
L 313 1709 
L 2253 4666 
z
" transform="scale(0.015625)"/>
       </defs>
       <use xlink:href="#DejaVuSans-30"/>
       <use xlink:href="#DejaVuSans-2e" transform="translate(63.623047 0)"/>
       <use xlink:href="#DejaVuSans-34" transform="translate(95.410156 0)"/>
       <use xlink:href="#DejaVuSans-30" transform="translate(159.033203 0)"/>
      </g>
     </g>
    </g>
    <g id="xtick_7">
     <g id="line2d_7">
      <g>
       <use xlink:href="#m133d85b020" x="421.436978" y="398.64351" style="stroke: #000000; stroke-width: 0.8"/>
      </g>
     </g>
     <g id="text_7">
      <!-- 0.60 -->
      <g transform="translate(410.304165 413.241947) scale(0.1 -0.1)">
       <use xlink:href="#DejaVuSans-30"/>
       <use xlink:href="#DejaVuSans-2e" transform="translate(63.623047 0)"/>
       <use xlink:href="#DejaVuSans-36" transform="translate(95.410156 0)"/>
       <use xlink:href="#DejaVuSans-30" transform="translate(159.033203 0)"/>
      </g>
     </g>
    </g>
    <g id="xtick_8">
     <g id="line2d_8">
      <g>
       <use xlink:href="#m133d85b020" x="510.591555" y="398.64351" style="stroke: #000000; stroke-width: 0.8"/>
      </g>
     </g>
     <g id="text_8">
      <!-- 0.80 -->
      <g transform="translate(499.458743 413.241947) scale(0.1 -0.1)">
       <defs>
        <path id="DejaVuSans-38" d="M 2034 2216 
Q 1584 2216 1326 1975 
Q 1069 1734 1069 1313 
Q 1069 891 1326 650 
Q 1584 409 2034 409 
Q 2484 409 2743 651 
Q 3003 894 3003 1313 
Q 3003 1734 2745 1975 
Q 2488 2216 2034 2216 
z
M 1403 2484 
Q 997 2584 770 2862 
Q 544 3141 544 3541 
Q 544 4100 942 4425 
Q 1341 4750 2034 4750 
Q 2731 4750 3128 4425 
Q 3525 4100 3525 3541 
Q 3525 3141 3298 2862 
Q 3072 2584 2669 2484 
Q 3125 2378 3379 2068 
Q 3634 1759 3634 1313 
Q 3634 634 3220 271 
Q 2806 -91 2034 -91 
Q 1263 -91 848 271 
Q 434 634 434 1313 
Q 434 1759 690 2068 
Q 947 2378 1403 2484 
z
M 1172 3481 
Q 1172 3119 1398 2916 
Q 1625 2713 2034 2713 
Q 2441 2713 2670 2916 
Q 2900 3119 2900 3481 
Q 2900 3844 2670 4047 
Q 2441 4250 2034 4250 
Q 1625 4250 1398 4047 
Q 1172 3844 1172 3481 
z
" transform="scale(0.015625)"/>
       </defs>
       <use xlink:href="#DejaVuSans-30"/>
       <use xlink:href="#DejaVuSans-2e" transform="translate(63.623047 0)"/>
       <use xlink:href="#DejaVuSans-38" transform="translate(95.410156 0)"/>
       <use xlink:href="#DejaVuSans-30" transform="translate(159.033203 0)"/>
      </g>
     </g>
    </g>
    <g id="text_9">
     <!-- Time (s) -->
     <g transform="translate(285.38125 426.920073) scale(0.1 -0.1)">
      <defs>
       <path id="DejaVuSans-54" d="M -19 4666 
L 3928 4666 
L 3928 4134 
L 2272 4134 
L 2272 0 
L 1638 0 
L 1638 4134 
L -19 4134 
L -19 4666 
z
" transform="scale(0.015625)"/>
       <path id="DejaVuSans-69" d="M 603 3500 
L 1178 3500 
L 1178 0 
L 603 0 
L 603 3500 
z
M 603 4863 
L 1178 4863 
L 1178 4134 
L 603 4134 
L 603 4863 
z
" transform="scale(0.015625)"/>
       <path id="DejaVuSans-6d" d="M 3328 2828 
Q 3544 3216 3844 3400 
Q 4144 3584 4550 3584 
Q 5097 3584 5394 3201 
Q 5691 2819 5691 2113 
L 5691 0 
L 5113 0 
L 5113 2094 
Q 5113 2597 4934 2840 
Q 4756 3084 4391 3084 
Q 3944 3084 3684 2787 
Q 3425 2491 3425 1978 
L 3425 0 
L 2847 0 
L 2847 2094 
Q 2847 2600 2669 2842 
Q 2491 3084 2119 3084 
Q 1678 3084 1418 2786 
Q 1159 2488 1159 1978 
L 1159 0 
L 581 0 
L 581 3500 
L 1159 3500 
L 1159 2956 
Q 1356 3278 1631 3431 
Q 1906 3584 2284 3584 
Q 2666 3584 2933 3390 
Q 3200 3197 3328 2828 
z
" transform="scale(0.015625)"/>
       <path id="DejaVuSans-65" d="M 3597 1894 
L 3597 1613 
L 953 1613 
Q 991 1019 1311 708 
Q 1631 397 2203 397 
Q 2534 397 2845 478 
Q 3156 559 3463 722 
L 3463 178 
Q 3153 47 2828 -22 
Q 2503 -91 2169 -91 
Q 1331 -91 842 396 
Q 353 884 353 1716 
Q 353 2575 817 3079 
Q 1281 3584 2069 3584 
Q 2775 3584 3186 3129 
Q 3597 2675 3597 1894 
z
M 3022 2063 
Q 3016 2534 2758 2815 
Q 2500 3097 2075 3097 
Q 1594 3097 1305 2825 
Q 1016 2553 972 2059 
L 3022 2063 
z
" transform="scale(0.015625)"/>
       <path id="DejaVuSans-20" transform="scale(0.015625)"/>
       <path id="DejaVuSans-28" d="M 1984 4856 
Q 1566 4138 1362 3434 
Q 1159 2731 1159 2009 
Q 1159 1288 1364 580 
Q 1569 -128 1984 -844 
L 1484 -844 
Q 1016 -109 783 600 
Q 550 1309 550 2009 
Q 550 2706 781 3412 
Q 1013 4119 1484 4856 
L 1984 4856 
z
" transform="scale(0.015625)"/>
       <path id="DejaVuSans-73" d="M 2834 3397 
L 2834 2853 
Q 2591 2978 2328 3040 
Q 2066 3103 1784 3103 
Q 1356 3103 1142 2972 
Q 928 2841 928 2578 
Q 928 2378 1081 2264 
Q 1234 2150 1697 2047 
L 1894 2003 
Q 2506 1872 2764 1633 
Q 3022 1394 3022 966 
Q 3022 478 2636 193 
Q 2250 -91 1575 -91 
Q 1294 -91 989 -36 
Q 684 19 347 128 
L 347 722 
Q 666 556 975 473 
Q 1284 391 1588 391 
Q 1994 391 2212 530 
Q 2431 669 2431 922 
Q 2431 1156 2273 1281 
Q 2116 1406 1581 1522 
L 1381 1569 
Q 847 1681 609 1914 
Q 372 2147 372 2553 
Q 372 3047 722 3315 
Q 1072 3584 1716 3584 
Q 2034 3584 2315 3537 
Q 2597 3491 2834 3397 
z
" transform="scale(0.015625)"/>
       <path id="DejaVuSans-29" d="M 513 4856 
L 1013 4856 
Q 1481 4119 1714 3412 
Q 1947 2706 1947 2009 
Q 1947 1309 1714 600 
Q 1481 -109 1013 -844 
L 513 -844 
Q 928 -128 1133 580 
Q 1338 1288 1338 2009 
Q 1338 2731 1133 3434 
Q 928 4138 513 4856 
z
" transform="scale(0.015625)"/>
      </defs>
      <use xlink:href="#DejaVuSans-54"/>
      <use xlink:href="#DejaVuSans-69" transform="translate(57.958984 0)"/>
      <use xlink:href="#DejaVuSans-6d" transform="translate(85.742188 0)"/>
      <use xlink:href="#DejaVuSans-65" transform="translate(183.154297 0)"/>
      <use xlink:href="#DejaVuSans-20" transform="translate(244.677734 0)"/>
      <use xlink:href="#DejaVuSans-28" transform="translate(276.464844 0)"/>
      <use xlink:href="#DejaVuSans-73" transform="translate(315.478516 0)"/>
      <use xlink:href="#DejaVuSans-29" transform="translate(367.578125 0)"/>
     </g>
    </g>
   </g>
   <g id="matplotlib.axis_2">
    <g id="ytick_1">
     <g id="line2d_9">
      <defs>
       <path id="ma7e7f1fad3" d="M 0 0 
L -3.5 0 
" style="stroke: #000000; stroke-width: 0.8"/>
      </defs>
      <g>
       <use xlink:href="#ma7e7f1fad3" x="38.420552" y="342.565246" style="stroke: #000000; stroke-width: 0.8"/>
      </g>
     </g>
     <g id="text_10">
      <!-- −4 -->
      <g transform="translate(16.678365 346.364465) scale(0.1 -0.1)">
       <use xlink:href="#DejaVuSans-2212"/>
       <use xlink:href="#DejaVuSans-34" transform="translate(83.789062 0)"/>
      </g>
     </g>
    </g>
    <g id="ytick_2">
     <g id="line2d_10">
      <g>
       <use xlink:href="#ma7e7f1fad3" x="38.420552" y="275.473092" style="stroke: #000000; stroke-width: 0.8"/>
      </g>
     </g>
     <g id="text_11">
      <!-- −2 -->
      <g transform="translate(16.678365 279.272311) scale(0.1 -0.1)">
       <use xlink:href="#DejaVuSans-2212"/>
       <use xlink:href="#DejaVuSans-32" transform="translate(83.789062 0)"/>
      </g>
     </g>
    </g>
    <g id="ytick_3">
     <g id="line2d_11">
      <g>
       <use xlink:href="#ma7e7f1fad3" x="38.420552" y="208.380937" style="stroke: #000000; stroke-width: 0.8"/>
      </g>
     </g>
     <g id="text_12">
      <!-- 0 -->
      <g transform="translate(25.058052 212.180156) scale(0.1 -0.1)">
       <use xlink:href="#DejaVuSans-30"/>
      </g>
     </g>
    </g>
    <g id="ytick_4">
     <g id="line2d_12">
      <g>
       <use xlink:href="#ma7e7f1fad3" x="38.420552" y="141.288783" style="stroke: #000000; stroke-width: 0.8"/>
      </g>
     </g>
     <g id="text_13">
      <!-- 2 -->
      <g transform="translate(25.058052 145.088002) scale(0.1 -0.1)">
       <use xlink:href="#DejaVuSans-32"/>
      </g>
     </g>
    </g>
    <g id="ytick_5">
     <g id="line2d_13">
      <g>
       <use xlink:href="#ma7e7f1fad3" x="38.420552" y="74.196629" style="stroke: #000000; stroke-width: 0.8"/>
      </g>
     </g>
     <g id="text_14">
      <!-- 4 -->
      <g transform="translate(25.058052 77.995848) scale(0.1 -0.1)">
       <use xlink:href="#DejaVuSans-34"/>
      </g>
     </g>
    </g>
    <g id="text_15">
     <!-- µV -->
     <g transform="translate(10.598677 214.9825) rotate(-90) scale(0.1 -0.1)">
      <defs>
       <path id="DejaVuSans-b5" d="M 544 -1331 
L 544 3500 
L 1119 3500 
L 1119 1325 
Q 1119 872 1334 640 
Q 1550 409 1972 409 
Q 2434 409 2667 671 
Q 2900 934 2900 1459 
L 2900 3500 
L 3475 3500 
L 3475 806 
Q 3475 619 3529 530 
Q 3584 441 3700 441 
Q 3728 441 3778 458 
Q 3828 475 3916 513 
L 3916 50 
Q 3788 -22 3673 -56 
Q 3559 -91 3450 -91 
Q 3234 -91 3106 31 
Q 2978 153 2931 403 
Q 2775 156 2548 32 
Q 2322 -91 2016 -91 
Q 1697 -91 1473 31 
Q 1250 153 1119 397 
L 1119 -1331 
L 544 -1331 
z
" transform="scale(0.015625)"/>
       <path id="DejaVuSans-56" d="M 1831 0 
L 50 4666 
L 709 4666 
L 2188 738 
L 3669 4666 
L 4325 4666 
L 2547 0 
L 1831 0 
z
" transform="scale(0.015625)"/>
      </defs>
      <use xlink:href="#DejaVuSans-b5"/>
      <use xlink:href="#DejaVuSans-56" transform="translate(63.623047 0)"/>
     </g>
    </g>
   </g>
   <g id="patch_4">
    <path d="M 64.818666 398.64351 
L 510.591555 398.64351 
" style="fill: none; stroke: #000000; stroke-width: 0.8; stroke-linejoin: miter; stroke-linecap: square"/>
   </g>
   <g id="patch_5">
    <path d="M 38.420552 208.380937 
L 572.99976 208.380937 
" style="fill: none; stroke: #000000; stroke-width: 0.8; stroke-linejoin: miter; stroke-linecap: square"/>
   </g>
   <g id="text_16">
    <!-- hjk P100: Oz, O1, O2 (mean) -->
    <g transform="translate(219.675781 12.118365) scale(0.12 -0.12)">
     <defs>
      <path id="DejaVuSans-68" d="M 3513 2113 
L 3513 0 
L 2938 0 
L 2938 2094 
Q 2938 2591 2744 2837 
Q 2550 3084 2163 3084 
Q 1697 3084 1428 2787 
Q 1159 2491 1159 1978 
L 1159 0 
L 581 0 
L 581 4863 
L 1159 4863 
L 1159 2956 
Q 1366 3272 1645 3428 
Q 1925 3584 2291 3584 
Q 2894 3584 3203 3211 
Q 3513 2838 3513 2113 
z
" transform="scale(0.015625)"/>
      <path id="DejaVuSans-6a" d="M 603 3500 
L 1178 3500 
L 1178 -63 
Q 1178 -731 923 -1031 
Q 669 -1331 103 -1331 
L -116 -1331 
L -116 -844 
L 38 -844 
Q 366 -844 484 -692 
Q 603 -541 603 -63 
L 603 3500 
z
M 603 4863 
L 1178 4863 
L 1178 4134 
L 603 4134 
L 603 4863 
z
" transform="scale(0.015625)"/>
      <path id="DejaVuSans-6b" d="M 581 4863 
L 1159 4863 
L 1159 1991 
L 2875 3500 
L 3609 3500 
L 1753 1863 
L 3688 0 
L 2938 0 
L 1159 1709 
L 1159 0 
L 581 0 
L 581 4863 
z
" transform="scale(0.015625)"/>
      <path id="DejaVuSans-50" d="M 1259 4147 
L 1259 2394 
L 2053 2394 
Q 2494 2394 2734 2622 
Q 2975 2850 2975 3272 
Q 2975 3691 2734 3919 
Q 2494 4147 2053 4147 
L 1259 4147 
z
M 628 4666 
L 2053 4666 
Q 2838 4666 3239 4311 
Q 3641 3956 3641 3272 
Q 3641 2581 3239 2228 
Q 2838 1875 2053 1875 
L 1259 1875 
L 1259 0 
L 628 0 
L 628 4666 
z
" transform="scale(0.015625)"/>
      <path id="DejaVuSans-3a" d="M 750 794 
L 1409 794 
L 1409 0 
L 750 0 
L 750 794 
z
M 750 3309 
L 1409 3309 
L 1409 2516 
L 750 2516 
L 750 3309 
z
" transform="scale(0.015625)"/>
      <path id="DejaVuSans-4f" d="M 2522 4238 
Q 1834 4238 1429 3725 
Q 1025 3213 1025 2328 
Q 1025 1447 1429 934 
Q 1834 422 2522 422 
Q 3209 422 3611 934 
Q 4013 1447 4013 2328 
Q 4013 3213 3611 3725 
Q 3209 4238 2522 4238 
z
M 2522 4750 
Q 3503 4750 4090 4092 
Q 4678 3434 4678 2328 
Q 4678 1225 4090 567 
Q 3503 -91 2522 -91 
Q 1538 -91 948 565 
Q 359 1222 359 2328 
Q 359 3434 948 4092 
Q 1538 4750 2522 4750 
z
" transform="scale(0.015625)"/>
      <path id="DejaVuSans-7a" d="M 353 3500 
L 3084 3500 
L 3084 2975 
L 922 459 
L 3084 459 
L 3084 0 
L 275 0 
L 275 525 
L 2438 3041 
L 353 3041 
L 353 3500 
z
" transform="scale(0.015625)"/>
      <path id="DejaVuSans-2c" d="M 750 794 
L 1409 794 
L 1409 256 
L 897 -744 
L 494 -744 
L 750 256 
L 750 794 
z
" transform="scale(0.015625)"/>
      <path id="DejaVuSans-61" d="M 2194 1759 
Q 1497 1759 1228 1600 
Q 959 1441 959 1056 
Q 959 750 1161 570 
Q 1363 391 1709 391 
Q 2188 391 2477 730 
Q 2766 1069 2766 1631 
L 2766 1759 
L 2194 1759 
z
M 3341 1997 
L 3341 0 
L 2766 0 
L 2766 531 
Q 2569 213 2275 61 
Q 1981 -91 1556 -91 
Q 1019 -91 701 211 
Q 384 513 384 1019 
Q 384 1609 779 1909 
Q 1175 2209 1959 2209 
L 2766 2209 
L 2766 2266 
Q 2766 2663 2505 2880 
Q 2244 3097 1772 3097 
Q 1472 3097 1187 3025 
Q 903 2953 641 2809 
L 641 3341 
Q 956 3463 1253 3523 
Q 1550 3584 1831 3584 
Q 2591 3584 2966 3190 
Q 3341 2797 3341 1997 
z
" transform="scale(0.015625)"/>
      <path id="DejaVuSans-6e" d="M 3513 2113 
L 3513 0 
L 2938 0 
L 2938 2094 
Q 2938 2591 2744 2837 
Q 2550 3084 2163 3084 
Q 1697 3084 1428 2787 
Q 1159 2491 1159 1978 
L 1159 0 
L 581 0 
L 581 3500 
L 1159 3500 
L 1159 2956 
Q 1366 3272 1645 3428 
Q 1925 3584 2291 3584 
Q 2894 3584 3203 3211 
Q 3513 2838 3513 2113 
z
" transform="scale(0.015625)"/>
     </defs>
     <use xlink:href="#DejaVuSans-68"/>
     <use xlink:href="#DejaVuSans-6a" transform="translate(63.378906 0)"/>
     <use xlink:href="#DejaVuSans-6b" transform="translate(91.162109 0)"/>
     <use xlink:href="#DejaVuSans-20" transform="translate(149.072266 0)"/>
     <use xlink:href="#DejaVuSans-50" transform="translate(180.859375 0)"/>
     <use xlink:href="#DejaVuSans-31" transform="translate(241.162109 0)"/>
     <use xlink:href="#DejaVuSans-30" transform="translate(304.785156 0)"/>
     <use xlink:href="#DejaVuSans-30" transform="translate(368.408203 0)"/>
     <use xlink:href="#DejaVuSans-3a" transform="translate(432.03125 0)"/>
     <use xlink:href="#DejaVuSans-20" transform="translate(465.722656 0)"/>
     <use xlink:href="#DejaVuSans-4f" transform="translate(497.509766 0)"/>
     <use xlink:href="#DejaVuSans-7a" transform="translate(576.220703 0)"/>
     <use xlink:href="#DejaVuSans-2c" transform="translate(628.710938 0)"/>
     <use xlink:href="#DejaVuSans-20" transform="translate(660.498047 0)"/>
     <use xlink:href="#DejaVuSans-4f" transform="translate(692.285156 0)"/>
     <use xlink:href="#DejaVuSans-31" transform="translate(770.996094 0)"/>
     <use xlink:href="#DejaVuSans-2c" transform="translate(834.619141 0)"/>
     <use xlink:href="#DejaVuSans-20" transform="translate(866.40625 0)"/>
     <use xlink:href="#DejaVuSans-4f" transform="translate(898.193359 0)"/>
     <use xlink:href="#DejaVuSans-32" transform="translate(976.904297 0)"/>
     <use xlink:href="#DejaVuSans-20" transform="translate(1040.527344 0)"/>
     <use xlink:href="#DejaVuSans-28" transform="translate(1072.314453 0)"/>
     <use xlink:href="#DejaVuSans-6d" transform="translate(1111.328125 0)"/>
     <use xlink:href="#DejaVuSans-65" transform="translate(1208.740234 0)"/>
     <use xlink:href="#DejaVuSans-61" transform="translate(1270.263672 0)"/>
     <use xlink:href="#DejaVuSans-6e" transform="translate(1331.542969 0)"/>
     <use xlink:href="#DejaVuSans-29" transform="translate(1394.921875 0)"/>
    </g>
   </g>
   <g id="legend_1">
    <g id="patch_6">
     <path d="M 45.420552 55.75274 
L 126.56274 55.75274 
Q 128.56274 55.75274 128.56274 53.75274 
L 128.56274 25.118365 
Q 128.56274 23.118365 126.56274 23.118365 
L 45.420552 23.118365 
Q 43.420552 23.118365 43.420552 25.118365 
L 43.420552 53.75274 
Q 43.420552 55.75274 45.420552 55.75274 
z
" style="fill: #ffffff; opacity: 0.8; stroke: #cccccc; stroke-linejoin: miter"/>
    </g>
    <g id="line2d_14">
     <path d="M 47.420552 31.216803 
L 57.420552 31.216803 
L 67.420552 31.216803 
" style="fill: none; stroke: #1f77b4; stroke-width: 1.5; stroke-linecap: square"/>
    </g>
    <g id="text_17">
     <!-- eerie -->
     <g transform="translate(75.420552 34.716803) scale(0.1 -0.1)">
      <defs>
       <path id="DejaVuSans-72" d="M 2631 2963 
Q 2534 3019 2420 3045 
Q 2306 3072 2169 3072 
Q 1681 3072 1420 2755 
Q 1159 2438 1159 1844 
L 1159 0 
L 581 0 
L 581 3500 
L 1159 3500 
L 1159 2956 
Q 1341 3275 1631 3429 
Q 1922 3584 2338 3584 
Q 2397 3584 2469 3576 
Q 2541 3569 2628 3553 
L 2631 2963 
z
" transform="scale(0.015625)"/>
      </defs>
      <use xlink:href="#DejaVuSans-65"/>
      <use xlink:href="#DejaVuSans-65" transform="translate(61.523438 0)"/>
      <use xlink:href="#DejaVuSans-72" transform="translate(123.046875 0)"/>
      <use xlink:href="#DejaVuSans-69" transform="translate(164.160156 0)"/>
      <use xlink:href="#DejaVuSans-65" transform="translate(191.943359 0)"/>
     </g>
    </g>
    <g id="line2d_15">
     <path d="M 47.420552 45.894928 
L 57.420552 45.894928 
L 67.420552 45.894928 
" style="fill: none; stroke: #ff7f0e; stroke-width: 1.5; stroke-linecap: square"/>
    </g>
    <g id="text_18">
     <!-- non_eerie -->
     <g transform="translate(75.420552 49.394928) scale(0.1 -0.1)">
      <defs>
       <path id="DejaVuSans-6f" d="M 1959 3097 
Q 1497 3097 1228 2736 
Q 959 2375 959 1747 
Q 959 1119 1226 758 
Q 1494 397 1959 397 
Q 2419 397 2687 759 
Q 2956 1122 2956 1747 
Q 2956 2369 2687 2733 
Q 2419 3097 1959 3097 
z
M 1959 3584 
Q 2709 3584 3137 3096 
Q 3566 2609 3566 1747 
Q 3566 888 3137 398 
Q 2709 -91 1959 -91 
Q 1206 -91 779 398 
Q 353 888 353 1747 
Q 353 2609 779 3096 
Q 1206 3584 1959 3584 
z
" transform="scale(0.015625)"/>
       <path id="DejaVuSans-5f" d="M 3263 -1063 
L 3263 -1509 
L -63 -1509 
L -63 -1063 
L 3263 -1063 
z
" transform="scale(0.015625)"/>
      </defs>
      <use xlink:href="#DejaVuSans-6e"/>
      <use xlink:href="#DejaVuSans-6f" transform="translate(63.378906 0)"/>
      <use xlink:href="#DejaVuSans-6e" transform="translate(124.560547 0)"/>
      <use xlink:href="#DejaVuSans-5f" transform="translate(187.939453 0)"/>
      <use xlink:href="#DejaVuSans-65" transform="translate(237.939453 0)"/>
      <use xlink:href="#DejaVuSans-65" transform="translate(299.462891 0)"/>
      <use xlink:href="#DejaVuSans-72" transform="translate(360.986328 0)"/>
      <use xlink:href="#DejaVuSans-69" transform="translate(402.099609 0)"/>
      <use xlink:href="#DejaVuSans-65" transform="translate(429.882812 0)"/>
     </g>
    </g>
   </g>
   <g id="line2d_16">
    <path d="M 38.420552 161.923164 
L 40.161853 170.445995 
L 41.903153 177.320765 
L 43.644454 180.313031 
L 45.385754 178.87213 
L 47.127054 174.767228 
L 48.868355 171.293574 
L 50.609655 171.363412 
L 52.350955 175.637484 
L 54.092256 182.037861 
L 55.833556 187.062683 
L 57.574856 188.096398 
L 59.316157 185.092461 
L 61.057457 180.529589 
L 62.798757 177.809503 
L 64.540058 179.148163 
L 66.281358 184.497405 
L 68.022658 191.87812 
L 69.763959 198.657383 
L 71.505259 202.801187 
L 73.24656 203.391506 
L 74.98786 200.614933 
L 78.470461 190.337489 
L 80.211761 187.532831 
L 81.953061 189.535047 
L 83.694362 196.957648 
L 85.435662 207.623584 
L 87.176962 217.078009 
L 88.918263 220.82722 
L 90.659563 217.104375 
L 92.400863 208.399225 
L 94.142164 200.405795 
L 95.883464 198.795877 
L 97.624764 205.876967 
L 101.107365 233.234107 
L 102.848665 242.510799 
L 104.589966 244.783123 
L 106.331266 241.644237 
L 108.072567 236.956052 
L 109.813867 234.269418 
L 111.555167 235.080259 
L 113.296468 238.757891 
L 118.520369 253.389001 
L 120.261669 257.498127 
L 122.002969 260.768536 
L 123.74427 262.590612 
L 125.48557 262.466125 
L 127.22687 260.523096 
L 130.709471 254.868098 
L 132.450771 253.1719 
L 134.192072 252.739974 
L 135.933372 253.208475 
L 139.415973 255.018221 
L 141.157273 256.135333 
L 142.898574 257.780069 
L 144.639874 260.319068 
L 146.381174 263.909456 
L 151.605075 277.196539 
L 153.346376 280.814406 
L 155.087676 283.888046 
L 156.828976 286.594025 
L 158.570277 288.678127 
L 160.311577 289.288663 
L 162.052877 287.491238 
L 163.794178 283.33051 
L 165.535478 278.59415 
L 167.276778 276.30334 
L 169.018079 278.928552 
L 170.759379 286.384383 
L 172.500679 295.425581 
L 174.24198 301.22188 
L 175.98328 300.384266 
L 177.724581 293.437735 
L 179.465881 284.609275 
L 181.207181 278.911623 
L 182.948482 278.455263 
L 184.689782 280.63291 
L 186.431082 279.870869 
L 188.172383 271.664295 
L 189.913683 255.896496 
L 191.654983 236.932977 
L 193.396284 220.335396 
L 195.137584 208.728758 
L 196.878884 200.063077 
L 198.620185 189.674724 
L 200.361485 174.634041 
L 202.102785 156.7908 
L 203.844086 142.165485 
L 205.585386 137.016707 
L 207.326686 143.58218 
L 209.067987 158.772799 
L 210.809287 176.576426 
L 212.550588 192.413782 
L 216.033188 220.175771 
L 217.774489 238.135022 
L 221.257089 279.929198 
L 222.99839 294.676231 
L 224.73969 301.467147 
L 226.48099 302.590883 
L 228.222291 303.061534 
L 229.963591 306.877123 
L 231.704891 314.060696 
L 233.446192 320.673299 
L 235.187492 321.595974 
L 236.928792 313.959522 
L 238.670093 298.75469 
L 242.152693 260.701887 
L 243.893994 243.607905 
L 247.376595 213.764462 
L 249.117895 200.012911 
L 250.859195 187.927048 
L 252.600496 178.438017 
L 254.341796 171.381545 
L 259.565697 153.304415 
L 261.306997 149.053265 
L 263.048298 148.818467 
L 264.789598 153.283564 
L 268.272199 167.810753 
L 270.013499 171.89393 
L 271.754799 172.717889 
L 273.4961 172.483882 
L 275.2374 174.106104 
L 276.9787 178.946831 
L 278.720001 185.770678 
L 280.461301 191.700472 
L 282.202602 194.359928 
L 283.943902 193.589027 
L 285.685202 191.451393 
L 287.426503 190.617853 
L 289.167803 192.492046 
L 292.650404 200.242148 
L 294.391704 202.404659 
L 296.133004 202.665601 
L 297.874305 202.37789 
L 299.615605 203.371468 
L 301.356905 206.714651 
L 303.098206 212.126364 
L 304.839506 218.115265 
L 306.580806 222.817276 
L 308.322107 224.802075 
L 310.063407 223.634663 
L 311.804707 220.108838 
L 313.546008 216.013901 
L 315.287308 213.504158 
L 317.028609 214.152266 
L 318.769909 218.023354 
L 320.511209 223.509455 
L 322.25251 228.120305 
L 323.99381 229.919251 
L 325.73511 228.627178 
L 332.700312 215.991768 
L 334.441612 211.205444 
L 337.924213 199.084999 
L 339.665513 196.008551 
L 341.406813 196.94437 
L 343.148114 200.642354 
L 344.889414 204.075607 
L 346.630714 204.73999 
L 350.113315 200.40837 
L 351.854616 201.06156 
L 353.595916 205.480563 
L 355.337216 211.347421 
L 357.078517 214.792968 
L 358.819817 213.399921 
L 360.561117 208.319798 
L 362.302418 203.699348 
L 364.043718 203.787003 
L 365.785018 209.853012 
L 367.526319 219.12118 
L 369.267619 226.565472 
L 371.008919 228.012746 
L 372.75022 222.471215 
L 374.49152 212.282827 
L 376.23282 201.355599 
L 377.974121 193.104461 
L 379.715421 189.200689 
L 381.456721 189.487087 
L 383.198022 192.605549 
L 384.939322 196.407706 
L 386.680623 198.435198 
L 388.421923 196.686547 
L 390.163223 190.701043 
L 391.904524 182.363146 
L 393.645824 175.383772 
L 395.387124 173.326546 
L 397.128425 177.200464 
L 398.869725 184.351705 
L 400.611025 189.807258 
L 402.352326 189.371038 
L 404.093626 182.531086 
L 405.834926 173.012707 
L 407.576227 166.467597 
L 409.317527 166.928032 
L 411.058827 174.33078 
L 412.800128 184.858016 
L 414.541428 193.644645 
L 416.282728 197.891687 
L 418.024029 198.324138 
L 419.765329 198.158318 
L 421.50663 200.627761 
L 423.24793 206.836505 
L 424.98923 215.180591 
L 426.730531 222.573918 
L 428.471831 226.366788 
L 430.213131 225.860878 
L 431.954432 222.760776 
L 433.695732 220.459203 
L 435.437032 222.627453 
L 437.178333 231.644729 
L 438.919633 247.335549 
L 442.402234 285.220476 
L 444.143534 298.241274 
L 445.884834 303.704691 
L 447.626135 302.799946 
L 449.367435 299.234727 
L 451.108735 297.055387 
L 452.850036 298.488322 
L 454.591336 303.126795 
L 456.332637 308.804085 
L 458.073937 313.363609 
L 459.815237 315.953723 
L 461.556538 316.966697 
L 463.297838 317.056698 
L 465.039138 316.311221 
L 466.780439 314.465452 
L 468.521739 311.835785 
L 470.263039 309.849296 
L 472.00434 310.440232 
L 473.74564 314.446777 
L 475.48694 320.433216 
L 477.228241 325.215411 
L 478.969541 325.946416 
L 480.710841 322.357736 
L 482.452142 317.207145 
L 484.193442 314.409925 
L 485.934742 316.215864 
L 489.417343 326.570857 
L 491.158644 328.010137 
L 492.899944 325.040409 
L 494.641244 319.887279 
L 496.382545 315.689363 
L 498.123845 313.98838 
L 499.865145 313.803089 
L 501.606446 312.952584 
L 503.347746 310.469894 
L 505.089046 307.779574 
L 506.830347 307.644102 
L 508.571647 311.705809 
L 512.054248 325.555381 
L 513.795548 329.015572 
L 515.536848 328.877206 
L 517.278149 327.69299 
L 519.019449 328.613991 
L 520.760749 332.677838 
L 522.50205 337.86397 
L 524.24335 340.798053 
L 525.984651 339.831239 
L 527.725951 336.807843 
L 529.467251 336.042122 
L 531.208552 341.102897 
L 532.949852 351.858387 
L 534.691152 364.147408 
L 536.432453 372.290575 
L 538.173753 372.765724 
L 539.915053 366.458028 
L 541.656354 357.89449 
L 543.397654 352.3496 
L 545.138954 352.757136 
L 546.880255 358.483457 
L 548.621555 366.361825 
L 550.362855 372.820086 
L 552.104156 375.65005 
L 553.845456 374.430771 
L 555.586756 369.943216 
L 559.069357 356.726249 
L 560.810658 351.325735 
L 562.551958 349.057213 
L 564.293258 350.91054 
L 566.034559 356.420311 
L 567.775859 363.561138 
L 569.517159 369.694258 
L 571.25846 372.986423 
L 572.99976 373.361357 
L 572.99976 373.361357 
" style="fill: none; stroke: #1f77b4; stroke-width: 1.5; stroke-linecap: square"/>
   </g>
   <g id="line2d_17">
    <path d="M 38.420552 197.592556 
L 40.161853 193.314912 
L 41.903153 186.903203 
L 43.644454 181.60467 
L 45.385754 178.943779 
L 47.127054 178.418854 
L 48.868355 178.51263 
L 50.609655 178.168848 
L 52.350955 177.645246 
L 54.092256 178.201511 
L 55.833556 181.091176 
L 57.574856 186.650347 
L 61.057457 200.945826 
L 62.798757 205.51897 
L 64.540058 205.979428 
L 66.281358 201.981853 
L 69.763959 187.616786 
L 71.505259 183.506087 
L 73.24656 184.829225 
L 74.98786 191.375026 
L 76.72916 200.249325 
L 78.470461 207.328649 
L 80.211761 209.562403 
L 81.953061 206.7643 
L 83.694362 201.747133 
L 85.435662 198.577174 
L 87.176962 200.102691 
L 88.918263 206.353632 
L 90.659563 214.744628 
L 92.400863 221.809012 
L 94.142164 225.154451 
L 95.883464 224.446544 
L 97.624764 221.029455 
L 99.366065 216.798818 
L 101.107365 213.304943 
L 102.848665 211.467963 
L 104.589966 211.801162 
L 106.331266 214.522202 
L 108.072567 219.389732 
L 111.555167 231.869405 
L 113.296468 237.224138 
L 115.037768 241.273788 
L 116.779068 244.346001 
L 118.520369 246.928316 
L 120.261669 248.994146 
L 122.002969 249.879144 
L 123.74427 248.84817 
L 125.48557 245.904844 
L 127.22687 242.197763 
L 128.968171 239.619615 
L 130.709471 239.892675 
L 132.450771 243.720759 
L 134.192072 250.57694 
L 137.674672 267.412921 
L 139.415973 274.026144 
L 141.157273 277.786399 
L 142.898574 278.404018 
L 144.639874 276.670976 
L 146.381174 274.328776 
L 148.122475 273.295729 
L 149.863775 274.524204 
L 151.605075 277.231562 
L 153.346376 279.280771 
L 155.087676 278.616078 
L 156.828976 274.974594 
L 158.570277 270.487709 
L 160.311577 268.497723 
L 162.052877 271.2564 
L 163.794178 278.107297 
L 165.535478 285.571923 
L 167.276778 289.448035 
L 169.018079 287.552275 
L 170.759379 281.184097 
L 172.500679 274.278787 
L 174.24198 270.872896 
L 175.98328 272.586449 
L 179.465881 282.747882 
L 181.207181 283.969369 
L 182.948482 279.896855 
L 184.689782 271.30285 
L 188.172383 248.63424 
L 193.396284 214.593048 
L 195.137584 201.862292 
L 196.878884 187.751106 
L 202.102785 141.990442 
L 203.844086 130.385658 
L 205.585386 124.142535 
L 207.326686 124.945802 
L 209.067987 133.173046 
L 210.809287 147.609027 
L 214.291888 185.232304 
L 216.033188 203.745133 
L 217.774489 220.639695 
L 224.73969 283.18607 
L 226.48099 297.080174 
L 228.222291 307.021076 
L 229.963591 311.406184 
L 231.704891 310.121791 
L 233.446192 304.611436 
L 235.187492 296.900553 
L 236.928792 288.1855 
L 238.670093 277.931779 
L 240.411393 264.253402 
L 242.152693 245.623506 
L 245.635294 199.416095 
L 247.376595 180.642591 
L 249.117895 170.411916 
L 250.859195 169.021078 
L 254.341796 176.457164 
L 256.083096 176.225182 
L 257.824397 172.193885 
L 259.565697 167.746869 
L 261.306997 166.82343 
L 263.048298 170.896059 
L 264.789598 177.930093 
L 266.530898 184.005567 
L 268.272199 186.283753 
L 270.013499 185.003099 
L 271.754799 182.979213 
L 273.4961 183.011168 
L 275.2374 185.318913 
L 276.9787 187.128289 
L 278.720001 184.821738 
L 280.461301 176.937809 
L 282.202602 165.639004 
L 283.943902 155.486353 
L 285.685202 150.416601 
L 287.426503 151.244209 
L 290.909103 159.405666 
L 292.650404 160.973337 
L 294.391704 160.9067 
L 296.133004 161.733185 
L 297.874305 165.448084 
L 299.615605 171.883696 
L 301.356905 179.04581 
L 303.098206 184.931655 
L 306.580806 193.522711 
L 308.322107 199.656433 
L 310.063407 208.105439 
L 311.804707 217.239885 
L 313.546008 224.444083 
L 315.287308 228.135248 
L 317.028609 229.065073 
L 318.769909 229.851603 
L 320.511209 233.084876 
L 322.25251 239.464628 
L 323.99381 247.281247 
L 325.73511 253.652423 
L 327.476411 256.52532 
L 329.217711 255.974598 
L 330.959011 253.978489 
L 332.700312 252.75468 
L 334.441612 252.864602 
L 336.182912 252.635833 
L 337.924213 249.34594 
L 339.665513 241.480211 
L 341.406813 230.506602 
L 343.148114 220.713527 
L 344.889414 217.053484 
L 346.630714 222.102127 
L 348.372015 234.182572 
L 350.113315 247.971326 
L 351.854616 257.399149 
L 353.595916 259.176157 
L 355.337216 254.58316 
L 357.078517 248.326727 
L 358.819817 245.230844 
L 360.561117 246.966401 
L 362.302418 251.124243 
L 364.043718 253.217595 
L 365.785018 250.124026 
L 367.526319 242.414335 
L 369.267619 233.91063 
L 371.008919 228.84092 
L 372.75022 228.758668 
L 374.49152 231.552614 
L 376.23282 233.241864 
L 377.974121 231.075212 
L 379.715421 225.444929 
L 381.456721 219.236147 
L 383.198022 215.182475 
L 384.939322 213.454369 
L 386.680623 211.469109 
L 388.421923 206.200631 
L 390.163223 197.142114 
L 391.904524 187.422519 
L 393.645824 181.957029 
L 395.387124 183.828884 
L 398.869725 199.53484 
L 400.611025 201.51278 
L 402.352326 194.931897 
L 404.093626 182.972113 
L 405.834926 172.789875 
L 407.576227 171.043874 
L 409.317527 179.62295 
L 412.800128 208.504681 
L 414.541428 216.045062 
L 416.282728 216.597584 
L 418.024029 214.673612 
L 419.765329 216.417358 
L 421.50663 225.290178 
L 424.98923 254.764993 
L 426.730531 264.916877 
L 428.471831 268.381059 
L 430.213131 267.613587 
L 431.954432 267.313539 
L 433.695732 270.97761 
L 435.437032 278.623596 
L 437.178333 287.16466 
L 438.919633 293.001129 
L 440.660933 294.737672 
L 442.402234 294.075348 
L 444.143534 294.287586 
L 445.884834 297.567109 
L 449.367435 309.176143 
L 451.108735 312.496013 
L 454.591336 314.130333 
L 456.332637 318.053662 
L 458.073937 326.113946 
L 459.815237 336.00712 
L 461.556538 343.373803 
L 463.297838 344.85241 
L 465.039138 340.668222 
L 466.780439 334.757902 
L 468.521739 332.203128 
L 470.263039 335.775624 
L 473.74564 352.577184 
L 475.48694 356.953331 
L 477.228241 356.027333 
L 478.969541 352.436907 
L 480.710841 350.391024 
L 482.452142 352.394966 
L 485.934742 362.465775 
L 487.676043 364.331445 
L 489.417343 363.00939 
L 491.158644 361.078627 
L 492.899944 361.473177 
L 494.641244 364.80763 
L 496.382545 368.656401 
L 498.123845 369.393994 
L 499.865145 365.223767 
L 501.606446 357.952052 
L 503.347746 351.983229 
L 505.089046 351.275509 
L 506.830347 356.547089 
L 508.571647 364.829176 
L 510.312947 371.564136 
L 512.054248 373.536481 
L 513.795548 370.540244 
L 517.278149 359.06282 
L 519.019449 354.675227 
L 520.760749 351.641601 
L 522.50205 349.541022 
L 524.24335 348.572952 
L 525.984651 349.519451 
L 527.725951 352.859834 
L 531.208552 363.155607 
L 532.949852 366.775844 
L 534.691152 368.128007 
L 536.432453 367.766651 
L 538.173753 366.893043 
L 539.915053 366.628646 
L 541.656354 367.746402 
L 543.397654 370.806302 
L 545.138954 376.117538 
L 548.621555 389.699273 
L 550.362855 392.617028 
L 552.104156 389.20852 
L 553.845456 379.687592 
L 555.586756 368.082673 
L 557.328057 360.628144 
L 559.069357 362.12206 
L 560.810658 372.603187 
L 562.551958 386.827553 
L 564.293258 397.245026 
L 566.034559 398.64351 
L 567.775859 391.266311 
L 569.517159 380.180851 
L 571.25846 371.515026 
L 572.99976 368.414853 
L 572.99976 368.414853 
" style="fill: none; stroke: #ff7f0e; stroke-width: 1.5; stroke-linecap: square"/>
   </g>
  </g>
  <g id="axes_2">
   <g id="PathCollection_1">
    <defs>
     <path id="C0_0_1131aaf7cb" d="M 0 1.118034 
C 0.296506 1.118034 0.580908 1.000231 0.790569 0.790569 
C 1.000231 0.580908 1.118034 0.296506 1.118034 -0 
C 1.118034 -0.296506 1.000231 -0.580908 0.790569 -0.790569 
C 0.580908 -1.000231 0.296506 -1.118034 0 -1.118034 
C -0.296506 -1.118034 -0.580908 -1.000231 -0.790569 -0.790569 
C -1.000231 -0.580908 -1.118034 -0.296506 -1.118034 0 
C -1.118034 0.296506 -1.000231 0.580908 -0.790569 0.790569 
C -0.580908 1.000231 -0.296506 1.118034 0 1.118034 
z
"/>
    </defs>
    <g clip-path="url(#p050b4cf9f8)">
     <use xlink:href="#C0_0_1131aaf7cb" x="510.704418" y="98.953072" style="stroke: #000000"/>
    </g>
    <g clip-path="url(#p050b4cf9f8)">
     <use xlink:href="#C0_0_1131aaf7cb" x="519.993383" y="99.039763" style="stroke: #000000"/>
    </g>
    <g clip-path="url(#p050b4cf9f8)">
     <use xlink:href="#C0_0_1131aaf7cb" x="529.302376" y="98.864322" style="stroke: #000000"/>
    </g>
   </g>
   <g id="matplotlib.axis_3"/>
   <g id="matplotlib.axis_4"/>
   <g id="line2d_18">
    <path d="M 559.992528 73.636527 
L 559.914846 71.164658 
L 559.682108 68.702544 
L 559.295231 66.259901 
L 558.755743 63.846371 
L 558.065773 61.471479 
L 557.228044 59.144596 
L 556.245861 56.874906 
L 555.123102 54.671367 
L 553.864197 52.542675 
L 552.474114 50.49723 
L 550.95834 48.543105 
L 549.322856 46.688013 
L 547.574117 44.939275 
L 545.719025 43.303791 
L 543.764901 41.788017 
L 541.719456 40.397934 
L 539.590764 39.139029 
L 537.387224 38.016269 
L 535.117535 37.034087 
L 532.790652 36.196358 
L 530.415759 35.506387 
L 528.002229 34.9669 
L 525.559587 34.580023 
L 523.097473 34.347285 
L 520.625603 34.269603 
L 518.153734 34.347285 
L 515.691619 34.580023 
L 513.248977 34.9669 
L 510.835447 35.506387 
L 508.460555 36.196358 
L 506.133672 37.034087 
L 503.863982 38.016269 
L 501.660443 39.139029 
L 499.53175 40.397934 
L 497.486306 41.788017 
L 495.532181 43.303791 
L 493.677089 44.939275 
L 491.92835 46.688013 
L 490.292867 48.543105 
L 488.777092 50.49723 
L 487.38701 52.542675 
L 486.128104 54.671367 
L 485.005345 56.874906 
L 484.023163 59.144596 
L 483.185433 61.471479 
L 482.495463 63.846371 
L 481.955975 66.259901 
L 481.569099 68.702544 
L 481.336361 71.164658 
L 481.258679 73.636527 
L 481.336361 76.108397 
L 481.569099 78.570511 
L 481.955975 81.013153 
L 482.495463 83.426683 
L 483.185433 85.801576 
L 484.023163 88.128459 
L 485.005345 90.398149 
L 486.128104 92.601688 
L 487.38701 94.73038 
L 488.777092 96.775825 
L 490.292867 98.729949 
L 491.92835 100.585042 
L 493.677089 102.33378 
L 495.532181 103.969264 
L 497.486306 105.485038 
L 499.53175 106.875121 
L 501.660443 108.134026 
L 503.863982 109.256786 
L 506.133672 110.238968 
L 508.460555 111.076697 
L 510.835447 111.766667 
L 513.248977 112.306155 
L 515.691619 112.693032 
L 518.153734 112.92577 
L 520.625603 113.003452 
L 523.097473 112.92577 
L 525.559587 112.693032 
L 528.002229 112.306155 
L 530.415759 111.766667 
L 532.790652 111.076697 
L 535.117535 110.238968 
L 537.387224 109.256786 
L 539.590764 108.134026 
L 541.719456 106.875121 
L 543.764901 105.485038 
L 545.719025 103.969264 
L 547.574117 102.33378 
L 549.322856 100.585042 
L 550.95834 98.729949 
L 552.474114 96.775825 
L 553.864197 94.73038 
L 555.123102 92.601688 
L 556.245861 90.398149 
L 557.228044 88.128459 
L 558.065773 85.801576 
L 558.755743 83.426683 
L 559.295231 81.013153 
L 559.682108 78.570511 
L 559.914846 76.108397 
L 559.992528 73.636527 
" style="fill: none; stroke: #000000; stroke-linecap: square"/>
   </g>
   <g id="line2d_19">
    <path d="M 512.380614 35.142698 
L 520.625603 28.364564 
L 528.870593 35.142698 
" style="fill: none; stroke: #000000; stroke-linecap: square"/>
   </g>
   <g id="line2d_20">
    <path d="M 481.49488 69.266799 
L 480.47134 67.534654 
L 479.84147 67.471667 
L 478.904537 67.762982 
L 477.959731 69.266799 
L 478.109325 74.069564 
L 477.558188 80.974522 
L 478.739196 83.974282 
L 480.47134 84.533292 
L 482.124751 83.076716 
" style="fill: none; stroke: #000000; stroke-linecap: square"/>
   </g>
   <g id="line2d_21">
    <path d="M 559.756326 69.266799 
L 560.779866 67.534654 
L 561.409737 67.471667 
L 562.34667 67.762982 
L 563.291476 69.266799 
L 563.141882 74.069564 
L 563.693018 80.974522 
L 562.512011 83.974282 
L 560.779866 84.533292 
L 559.126455 83.076716 
" style="fill: none; stroke: #000000; stroke-linecap: square"/>
   </g>
  </g>
 </g>
 <defs>
  <clipPath id="pe370eb4176">
   <rect x="38.420552" y="18.118365" width="534.579207" height="380.525145"/>
  </clipPath>
  <clipPath id="p050b4cf9f8">
   <rect x="473.251446" y="24.13262" width="94.748314" height="93.102776"/>
  </clipPath>
 </defs>
</svg>
