<?xml version="1.0" encoding="utf-8" standalone="no"?>
<!DOCTYPE svg PUBLIC "-//W3C//DTD SVG 1.1//EN"
  "http://www.w3.org/Graphics/SVG/1.1/DTD/svg11.dtd">
<svg xmlns:xlink="http://www.w3.org/1999/xlink" width="576pt" height="432pt" viewBox="0 0 576 432" xmlns="http://www.w3.org/2000/svg" version="1.1">
 <metadata>
  <rdf:RDF xmlns:dc="http://purl.org/dc/elements/1.1/" xmlns:cc="http://creativecommons.org/ns#" xmlns:rdf="http://www.w3.org/1999/02/22-rdf-syntax-ns#">
   <cc:Work>
    <dc:type rdf:resource="http://purl.org/dc/dcmitype/StillImage"/>
    <dc:date>2025-02-17T18:06:22.316026</dc:date>
    <dc:format>image/svg+xml</dc:format>
    <dc:creator>
     <cc:Agent>
      <dc:title>Matplotlib v3.10.0, https://matplotlib.org/</dc:title>
     </cc:Agent>
    </dc:creator>
   </cc:Work>
  </rdf:RDF>
 </metadata>
 <defs>
  <style type="text/css">*{stroke-linejoin: round; stroke-linecap: butt}</style>
 </defs>
 <g id="figure_1">
  <g id="patch_1">
   <path d="M 0 432 
L 576 432 
L 576 0 
L 0 0 
z
" style="fill: #ffffff"/>
  </g>
  <g id="axes_1">
   <g id="patch_2">
    <path d="M 38.420552 398.64351 
L 561.866948 398.64351 
L 561.866948 18.118365 
L 38.420552 18.118365 
L 38.420552 398.64351 
z
" style="fill: none; opacity: 0"/>
   </g>
   <g id="patch_3">
    <path d="M 38.420552 382.622278 
L 38.420552 34.139597 
" style="fill: none; stroke: #000000; stroke-width: 0.8; stroke-linejoin: miter; stroke-linecap: square"/>
   </g>
   <g id="LineCollection_1">
    <path d="M 278.48108 18.118365 
L 278.48108 398.64351 
" clip-path="url(#pa5110e7a65)" style="fill: none; stroke-dasharray: 3.7,1.6; stroke-dashoffset: 0; stroke: #000000"/>
    <path d="M 365.676732 18.118365 
L 365.676732 398.64351 
" clip-path="url(#pa5110e7a65)" style="fill: none; stroke-dasharray: 3.7,1.6; stroke-dashoffset: 0; stroke: #000000"/>
   </g>
   <g id="matplotlib.axis_1">
    <g id="xtick_1">
     <g id="line2d_1">
      <defs>
       <path id="m3c2cfb649c" d="M 0 0 
L 0 3.5 
" style="stroke: #000000; stroke-width: 0.8"/>
      </defs>
      <g>
       <use xlink:href="#m3c2cfb649c" x="38.693039" y="398.64351" style="stroke: #000000; stroke-width: 0.8"/>
      </g>
     </g>
     <g id="text_1">
      <!-- −0.20 -->
      <g transform="translate(23.370383 413.241947) scale(0.1 -0.1)">
       <defs>
        <path id="DejaVuSans-2212" d="M 678 2272 
L 4684 2272 
L 4684 1741 
L 678 1741 
L 678 2272 
z
" transform="scale(0.015625)"/>
        <path id="DejaVuSans-30" d="M 2034 4250 
Q 1547 4250 1301 3770 
Q 1056 3291 1056 2328 
Q 1056 1369 1301 889 
Q 1547 409 2034 409 
Q 2525 409 2770 889 
Q 3016 1369 3016 2328 
Q 3016 3291 2770 3770 
Q 2525 4250 2034 4250 
z
M 2034 4750 
Q 2819 4750 3233 4129 
Q 3647 3509 3647 2328 
Q 3647 1150 3233 529 
Q 2819 -91 2034 -91 
Q 1250 -91 836 529 
Q 422 1150 422 2328 
Q 422 3509 836 4129 
Q 1250 4750 2034 4750 
z
" transform="scale(0.015625)"/>
        <path id="DejaVuSans-2e" d="M 684 794 
L 1344 794 
L 1344 0 
L 684 0 
L 684 794 
z
" transform="scale(0.015625)"/>
        <path id="DejaVuSans-32" d="M 1228 531 
L 3431 531 
L 3431 0 
L 469 0 
L 469 531 
Q 828 903 1448 1529 
Q 2069 2156 2228 2338 
Q 2531 2678 2651 2914 
Q 2772 3150 2772 3378 
Q 2772 3750 2511 3984 
Q 2250 4219 1831 4219 
Q 1534 4219 1204 4116 
Q 875 4013 500 3803 
L 500 4441 
Q 881 4594 1212 4672 
Q 1544 4750 1819 4750 
Q 2544 4750 2975 4387 
Q 3406 4025 3406 3419 
Q 3406 3131 3298 2873 
Q 3191 2616 2906 2266 
Q 2828 2175 2409 1742 
Q 1991 1309 1228 531 
z
" transform="scale(0.015625)"/>
       </defs>
       <use xlink:href="#DejaVuSans-2212"/>
       <use xlink:href="#DejaVuSans-30" transform="translate(83.789062 0)"/>
       <use xlink:href="#DejaVuSans-2e" transform="translate(147.412109 0)"/>
       <use xlink:href="#DejaVuSans-32" transform="translate(179.199219 0)"/>
       <use xlink:href="#DejaVuSans-30" transform="translate(242.822266 0)"/>
      </g>
     </g>
    </g>
    <g id="xtick_2">
     <g id="line2d_2">
      <g>
       <use xlink:href="#m3c2cfb649c" x="125.88869" y="398.64351" style="stroke: #000000; stroke-width: 0.8"/>
      </g>
     </g>
     <g id="text_2">
      <!-- 0.00 -->
      <g transform="translate(114.755878 413.241947) scale(0.1 -0.1)">
       <use xlink:href="#DejaVuSans-30"/>
       <use xlink:href="#DejaVuSans-2e" transform="translate(63.623047 0)"/>
       <use xlink:href="#DejaVuSans-30" transform="translate(95.410156 0)"/>
       <use xlink:href="#DejaVuSans-30" transform="translate(159.033203 0)"/>
      </g>
     </g>
    </g>
    <g id="xtick_3">
     <g id="line2d_3">
      <g>
       <use xlink:href="#m3c2cfb649c" x="213.084342" y="398.64351" style="stroke: #000000; stroke-width: 0.8"/>
      </g>
     </g>
     <g id="text_3">
      <!-- 0.20 -->
      <g transform="translate(201.951529 413.241947) scale(0.1 -0.1)">
       <use xlink:href="#DejaVuSans-30"/>
       <use xlink:href="#DejaVuSans-2e" transform="translate(63.623047 0)"/>
       <use xlink:href="#DejaVuSans-32" transform="translate(95.410156 0)"/>
       <use xlink:href="#DejaVuSans-30" transform="translate(159.033203 0)"/>
      </g>
     </g>
    </g>
    <g id="xtick_4">
     <g id="line2d_4">
      <g>
       <use xlink:href="#m3c2cfb649c" x="278.48108" y="398.64351" style="stroke: #000000; stroke-width: 0.8"/>
      </g>
     </g>
     <g id="text_4">
      <!-- 0.35 -->
      <g transform="translate(267.348268 413.241947) scale(0.1 -0.1)">
       <defs>
        <path id="DejaVuSans-33" d="M 2597 2516 
Q 3050 2419 3304 2112 
Q 3559 1806 3559 1356 
Q 3559 666 3084 287 
Q 2609 -91 1734 -91 
Q 1441 -91 1130 -33 
Q 819 25 488 141 
L 488 750 
Q 750 597 1062 519 
Q 1375 441 1716 441 
Q 2309 441 2620 675 
Q 2931 909 2931 1356 
Q 2931 1769 2642 2001 
Q 2353 2234 1838 2234 
L 1294 2234 
L 1294 2753 
L 1863 2753 
Q 2328 2753 2575 2939 
Q 2822 3125 2822 3475 
Q 2822 3834 2567 4026 
Q 2313 4219 1838 4219 
Q 1578 4219 1281 4162 
Q 984 4106 628 3988 
L 628 4550 
Q 988 4650 1302 4700 
Q 1616 4750 1894 4750 
Q 2613 4750 3031 4423 
Q 3450 4097 3450 3541 
Q 3450 3153 3228 2886 
Q 3006 2619 2597 2516 
z
" transform="scale(0.015625)"/>
        <path id="DejaVuSans-35" d="M 691 4666 
L 3169 4666 
L 3169 4134 
L 1269 4134 
L 1269 2991 
Q 1406 3038 1543 3061 
Q 1681 3084 1819 3084 
Q 2600 3084 3056 2656 
Q 3513 2228 3513 1497 
Q 3513 744 3044 326 
Q 2575 -91 1722 -91 
Q 1428 -91 1123 -41 
Q 819 9 494 109 
L 494 744 
Q 775 591 1075 516 
Q 1375 441 1709 441 
Q 2250 441 2565 725 
Q 2881 1009 2881 1497 
Q 2881 1984 2565 2268 
Q 2250 2553 1709 2553 
Q 1456 2553 1204 2497 
Q 953 2441 691 2322 
L 691 4666 
z
" transform="scale(0.015625)"/>
       </defs>
       <use xlink:href="#DejaVuSans-30"/>
       <use xlink:href="#DejaVuSans-2e" transform="translate(63.623047 0)"/>
       <use xlink:href="#DejaVuSans-33" transform="translate(95.410156 0)"/>
       <use xlink:href="#DejaVuSans-35" transform="translate(159.033203 0)"/>
      </g>
     </g>
    </g>
    <g id="xtick_5">
     <g id="line2d_5">
      <g>
       <use xlink:href="#m3c2cfb649c" x="300.279993" y="398.64351" style="stroke: #000000; stroke-width: 0.8"/>
      </g>
     </g>
     <g id="text_5">
      <!-- 0.40 -->
      <g transform="translate(289.147181 413.241947) scale(0.1 -0.1)">
       <defs>
        <path id="DejaVuSans-34" d="M 2419 4116 
L 825 1625 
L 2419 1625 
L 2419 4116 
z
M 2253 4666 
L 3047 4666 
L 3047 1625 
L 3713 1625 
L 3713 1100 
L 3047 1100 
L 3047 0 
L 2419 0 
L 2419 1100 
L 313 1100 
L 313 1709 
L 2253 4666 
z
" transform="scale(0.015625)"/>
       </defs>
       <use xlink:href="#DejaVuSans-30"/>
       <use xlink:href="#DejaVuSans-2e" transform="translate(63.623047 0)"/>
       <use xlink:href="#DejaVuSans-34" transform="translate(95.410156 0)"/>
       <use xlink:href="#DejaVuSans-30" transform="translate(159.033203 0)"/>
      </g>
     </g>
    </g>
    <g id="xtick_6">
     <g id="line2d_6">
      <g>
       <use xlink:href="#m3c2cfb649c" x="365.676732" y="398.64351" style="stroke: #000000; stroke-width: 0.8"/>
      </g>
     </g>
     <g id="text_6">
      <!-- 0.55 -->
      <g transform="translate(354.543919 413.241947) scale(0.1 -0.1)">
       <use xlink:href="#DejaVuSans-30"/>
       <use xlink:href="#DejaVuSans-2e" transform="translate(63.623047 0)"/>
       <use xlink:href="#DejaVuSans-35" transform="translate(95.410156 0)"/>
       <use xlink:href="#DejaVuSans-35" transform="translate(159.033203 0)"/>
      </g>
     </g>
    </g>
    <g id="xtick_7">
     <g id="line2d_7">
      <g>
       <use xlink:href="#m3c2cfb649c" x="387.475645" y="398.64351" style="stroke: #000000; stroke-width: 0.8"/>
      </g>
     </g>
     <g id="text_7">
      <!-- 0.60 -->
      <g transform="translate(376.342832 413.241947) scale(0.1 -0.1)">
       <defs>
        <path id="DejaVuSans-36" d="M 2113 2584 
Q 1688 2584 1439 2293 
Q 1191 2003 1191 1497 
Q 1191 994 1439 701 
Q 1688 409 2113 409 
Q 2538 409 2786 701 
Q 3034 994 3034 1497 
Q 3034 2003 2786 2293 
Q 2538 2584 2113 2584 
z
M 3366 4563 
L 3366 3988 
Q 3128 4100 2886 4159 
Q 2644 4219 2406 4219 
Q 1781 4219 1451 3797 
Q 1122 3375 1075 2522 
Q 1259 2794 1537 2939 
Q 1816 3084 2150 3084 
Q 2853 3084 3261 2657 
Q 3669 2231 3669 1497 
Q 3669 778 3244 343 
Q 2819 -91 2113 -91 
Q 1303 -91 875 529 
Q 447 1150 447 2328 
Q 447 3434 972 4092 
Q 1497 4750 2381 4750 
Q 2619 4750 2861 4703 
Q 3103 4656 3366 4563 
z
" transform="scale(0.015625)"/>
       </defs>
       <use xlink:href="#DejaVuSans-30"/>
       <use xlink:href="#DejaVuSans-2e" transform="translate(63.623047 0)"/>
       <use xlink:href="#DejaVuSans-36" transform="translate(95.410156 0)"/>
       <use xlink:href="#DejaVuSans-30" transform="translate(159.033203 0)"/>
      </g>
     </g>
    </g>
    <g id="xtick_8">
     <g id="line2d_8">
      <g>
       <use xlink:href="#m3c2cfb649c" x="474.671296" y="398.64351" style="stroke: #000000; stroke-width: 0.8"/>
      </g>
     </g>
     <g id="text_8">
      <!-- 0.80 -->
      <g transform="translate(463.538484 413.241947) scale(0.1 -0.1)">
       <defs>
        <path id="DejaVuSans-38" d="M 2034 2216 
Q 1584 2216 1326 1975 
Q 1069 1734 1069 1313 
Q 1069 891 1326 650 
Q 1584 409 2034 409 
Q 2484 409 2743 651 
Q 3003 894 3003 1313 
Q 3003 1734 2745 1975 
Q 2488 2216 2034 2216 
z
M 1403 2484 
Q 997 2584 770 2862 
Q 544 3141 544 3541 
Q 544 4100 942 4425 
Q 1341 4750 2034 4750 
Q 2731 4750 3128 4425 
Q 3525 4100 3525 3541 
Q 3525 3141 3298 2862 
Q 3072 2584 2669 2484 
Q 3125 2378 3379 2068 
Q 3634 1759 3634 1313 
Q 3634 634 3220 271 
Q 2806 -91 2034 -91 
Q 1263 -91 848 271 
Q 434 634 434 1313 
Q 434 1759 690 2068 
Q 947 2378 1403 2484 
z
M 1172 3481 
Q 1172 3119 1398 2916 
Q 1625 2713 2034 2713 
Q 2441 2713 2670 2916 
Q 2900 3119 2900 3481 
Q 2900 3844 2670 4047 
Q 2441 4250 2034 4250 
Q 1625 4250 1398 4047 
Q 1172 3844 1172 3481 
z
" transform="scale(0.015625)"/>
       </defs>
       <use xlink:href="#DejaVuSans-30"/>
       <use xlink:href="#DejaVuSans-2e" transform="translate(63.623047 0)"/>
       <use xlink:href="#DejaVuSans-38" transform="translate(95.410156 0)"/>
       <use xlink:href="#DejaVuSans-30" transform="translate(159.033203 0)"/>
      </g>
     </g>
    </g>
    <g id="xtick_9">
     <g id="line2d_9">
      <g>
       <use xlink:href="#m3c2cfb649c" x="561.866948" y="398.64351" style="stroke: #000000; stroke-width: 0.8"/>
      </g>
     </g>
     <g id="text_9">
      <!-- 1.00 -->
      <g transform="translate(550.734135 413.241947) scale(0.1 -0.1)">
       <defs>
        <path id="DejaVuSans-31" d="M 794 531 
L 1825 531 
L 1825 4091 
L 703 3866 
L 703 4441 
L 1819 4666 
L 2450 4666 
L 2450 531 
L 3481 531 
L 3481 0 
L 794 0 
L 794 531 
z
" transform="scale(0.015625)"/>
       </defs>
       <use xlink:href="#DejaVuSans-31"/>
       <use xlink:href="#DejaVuSans-2e" transform="translate(63.623047 0)"/>
       <use xlink:href="#DejaVuSans-30" transform="translate(95.410156 0)"/>
       <use xlink:href="#DejaVuSans-30" transform="translate(159.033203 0)"/>
      </g>
     </g>
    </g>
    <g id="text_10">
     <!-- Time (s) -->
     <g transform="translate(279.814844 426.920073) scale(0.1 -0.1)">
      <defs>
       <path id="DejaVuSans-54" d="M -19 4666 
L 3928 4666 
L 3928 4134 
L 2272 4134 
L 2272 0 
L 1638 0 
L 1638 4134 
L -19 4134 
L -19 4666 
z
" transform="scale(0.015625)"/>
       <path id="DejaVuSans-69" d="M 603 3500 
L 1178 3500 
L 1178 0 
L 603 0 
L 603 3500 
z
M 603 4863 
L 1178 4863 
L 1178 4134 
L 603 4134 
L 603 4863 
z
" transform="scale(0.015625)"/>
       <path id="DejaVuSans-6d" d="M 3328 2828 
Q 3544 3216 3844 3400 
Q 4144 3584 4550 3584 
Q 5097 3584 5394 3201 
Q 5691 2819 5691 2113 
L 5691 0 
L 5113 0 
L 5113 2094 
Q 5113 2597 4934 2840 
Q 4756 3084 4391 3084 
Q 3944 3084 3684 2787 
Q 3425 2491 3425 1978 
L 3425 0 
L 2847 0 
L 2847 2094 
Q 2847 2600 2669 2842 
Q 2491 3084 2119 3084 
Q 1678 3084 1418 2786 
Q 1159 2488 1159 1978 
L 1159 0 
L 581 0 
L 581 3500 
L 1159 3500 
L 1159 2956 
Q 1356 3278 1631 3431 
Q 1906 3584 2284 3584 
Q 2666 3584 2933 3390 
Q 3200 3197 3328 2828 
z
" transform="scale(0.015625)"/>
       <path id="DejaVuSans-65" d="M 3597 1894 
L 3597 1613 
L 953 1613 
Q 991 1019 1311 708 
Q 1631 397 2203 397 
Q 2534 397 2845 478 
Q 3156 559 3463 722 
L 3463 178 
Q 3153 47 2828 -22 
Q 2503 -91 2169 -91 
Q 1331 -91 842 396 
Q 353 884 353 1716 
Q 353 2575 817 3079 
Q 1281 3584 2069 3584 
Q 2775 3584 3186 3129 
Q 3597 2675 3597 1894 
z
M 3022 2063 
Q 3016 2534 2758 2815 
Q 2500 3097 2075 3097 
Q 1594 3097 1305 2825 
Q 1016 2553 972 2059 
L 3022 2063 
z
" transform="scale(0.015625)"/>
       <path id="DejaVuSans-20" transform="scale(0.015625)"/>
       <path id="DejaVuSans-28" d="M 1984 4856 
Q 1566 4138 1362 3434 
Q 1159 2731 1159 2009 
Q 1159 1288 1364 580 
Q 1569 -128 1984 -844 
L 1484 -844 
Q 1016 -109 783 600 
Q 550 1309 550 2009 
Q 550 2706 781 3412 
Q 1013 4119 1484 4856 
L 1984 4856 
z
" transform="scale(0.015625)"/>
       <path id="DejaVuSans-73" d="M 2834 3397 
L 2834 2853 
Q 2591 2978 2328 3040 
Q 2066 3103 1784 3103 
Q 1356 3103 1142 2972 
Q 928 2841 928 2578 
Q 928 2378 1081 2264 
Q 1234 2150 1697 2047 
L 1894 2003 
Q 2506 1872 2764 1633 
Q 3022 1394 3022 966 
Q 3022 478 2636 193 
Q 2250 -91 1575 -91 
Q 1294 -91 989 -36 
Q 684 19 347 128 
L 347 722 
Q 666 556 975 473 
Q 1284 391 1588 391 
Q 1994 391 2212 530 
Q 2431 669 2431 922 
Q 2431 1156 2273 1281 
Q 2116 1406 1581 1522 
L 1381 1569 
Q 847 1681 609 1914 
Q 372 2147 372 2553 
Q 372 3047 722 3315 
Q 1072 3584 1716 3584 
Q 2034 3584 2315 3537 
Q 2597 3491 2834 3397 
z
" transform="scale(0.015625)"/>
       <path id="DejaVuSans-29" d="M 513 4856 
L 1013 4856 
Q 1481 4119 1714 3412 
Q 1947 2706 1947 2009 
Q 1947 1309 1714 600 
Q 1481 -109 1013 -844 
L 513 -844 
Q 928 -128 1133 580 
Q 1338 1288 1338 2009 
Q 1338 2731 1133 3434 
Q 928 4138 513 4856 
z
" transform="scale(0.015625)"/>
      </defs>
      <use xlink:href="#DejaVuSans-54"/>
      <use xlink:href="#DejaVuSans-69" transform="translate(57.958984 0)"/>
      <use xlink:href="#DejaVuSans-6d" transform="translate(85.742188 0)"/>
      <use xlink:href="#DejaVuSans-65" transform="translate(183.154297 0)"/>
      <use xlink:href="#DejaVuSans-20" transform="translate(244.677734 0)"/>
      <use xlink:href="#DejaVuSans-28" transform="translate(276.464844 0)"/>
      <use xlink:href="#DejaVuSans-73" transform="translate(315.478516 0)"/>
      <use xlink:href="#DejaVuSans-29" transform="translate(367.578125 0)"/>
     </g>
    </g>
   </g>
   <g id="matplotlib.axis_2">
    <g id="ytick_1">
     <g id="line2d_10">
      <defs>
       <path id="mb7d7e25d7d" d="M 0 0 
L -3.5 0 
" style="stroke: #000000; stroke-width: 0.8"/>
      </defs>
      <g>
       <use xlink:href="#mb7d7e25d7d" x="38.420552" y="382.622278" style="stroke: #000000; stroke-width: 0.8"/>
      </g>
     </g>
     <g id="text_11">
      <!-- −8 -->
      <g transform="translate(16.678365 386.421497) scale(0.1 -0.1)">
       <use xlink:href="#DejaVuSans-2212"/>
       <use xlink:href="#DejaVuSans-38" transform="translate(83.789062 0)"/>
      </g>
     </g>
    </g>
    <g id="ytick_2">
     <g id="line2d_11">
      <g>
       <use xlink:href="#mb7d7e25d7d" x="38.420552" y="339.061943" style="stroke: #000000; stroke-width: 0.8"/>
      </g>
     </g>
     <g id="text_12">
      <!-- −6 -->
      <g transform="translate(16.678365 342.861162) scale(0.1 -0.1)">
       <use xlink:href="#DejaVuSans-2212"/>
       <use xlink:href="#DejaVuSans-36" transform="translate(83.789062 0)"/>
      </g>
     </g>
    </g>
    <g id="ytick_3">
     <g id="line2d_12">
      <g>
       <use xlink:href="#mb7d7e25d7d" x="38.420552" y="295.501608" style="stroke: #000000; stroke-width: 0.8"/>
      </g>
     </g>
     <g id="text_13">
      <!-- −4 -->
      <g transform="translate(16.678365 299.300827) scale(0.1 -0.1)">
       <use xlink:href="#DejaVuSans-2212"/>
       <use xlink:href="#DejaVuSans-34" transform="translate(83.789062 0)"/>
      </g>
     </g>
    </g>
    <g id="ytick_4">
     <g id="line2d_13">
      <g>
       <use xlink:href="#mb7d7e25d7d" x="38.420552" y="251.941273" style="stroke: #000000; stroke-width: 0.8"/>
      </g>
     </g>
     <g id="text_14">
      <!-- −2 -->
      <g transform="translate(16.678365 255.740491) scale(0.1 -0.1)">
       <use xlink:href="#DejaVuSans-2212"/>
       <use xlink:href="#DejaVuSans-32" transform="translate(83.789062 0)"/>
      </g>
     </g>
    </g>
    <g id="ytick_5">
     <g id="line2d_14">
      <g>
       <use xlink:href="#mb7d7e25d7d" x="38.420552" y="208.380937" style="stroke: #000000; stroke-width: 0.8"/>
      </g>
     </g>
     <g id="text_15">
      <!-- 0 -->
      <g transform="translate(25.058052 212.180156) scale(0.1 -0.1)">
       <use xlink:href="#DejaVuSans-30"/>
      </g>
     </g>
    </g>
    <g id="ytick_6">
     <g id="line2d_15">
      <g>
       <use xlink:href="#mb7d7e25d7d" x="38.420552" y="164.820602" style="stroke: #000000; stroke-width: 0.8"/>
      </g>
     </g>
     <g id="text_16">
      <!-- 2 -->
      <g transform="translate(25.058052 168.619821) scale(0.1 -0.1)">
       <use xlink:href="#DejaVuSans-32"/>
      </g>
     </g>
    </g>
    <g id="ytick_7">
     <g id="line2d_16">
      <g>
       <use xlink:href="#mb7d7e25d7d" x="38.420552" y="121.260267" style="stroke: #000000; stroke-width: 0.8"/>
      </g>
     </g>
     <g id="text_17">
      <!-- 4 -->
      <g transform="translate(25.058052 125.059486) scale(0.1 -0.1)">
       <use xlink:href="#DejaVuSans-34"/>
      </g>
     </g>
    </g>
    <g id="ytick_8">
     <g id="line2d_17">
      <g>
       <use xlink:href="#mb7d7e25d7d" x="38.420552" y="77.699932" style="stroke: #000000; stroke-width: 0.8"/>
      </g>
     </g>
     <g id="text_18">
      <!-- 6 -->
      <g transform="translate(25.058052 81.499151) scale(0.1 -0.1)">
       <use xlink:href="#DejaVuSans-36"/>
      </g>
     </g>
    </g>
    <g id="ytick_9">
     <g id="line2d_18">
      <g>
       <use xlink:href="#mb7d7e25d7d" x="38.420552" y="34.139597" style="stroke: #000000; stroke-width: 0.8"/>
      </g>
     </g>
     <g id="text_19">
      <!-- 8 -->
      <g transform="translate(25.058052 37.938816) scale(0.1 -0.1)">
       <use xlink:href="#DejaVuSans-38"/>
      </g>
     </g>
    </g>
    <g id="text_20">
     <!-- µV -->
     <g transform="translate(10.598677 214.9825) rotate(-90) scale(0.1 -0.1)">
      <defs>
       <path id="DejaVuSans-b5" d="M 544 -1331 
L 544 3500 
L 1119 3500 
L 1119 1325 
Q 1119 872 1334 640 
Q 1550 409 1972 409 
Q 2434 409 2667 671 
Q 2900 934 2900 1459 
L 2900 3500 
L 3475 3500 
L 3475 806 
Q 3475 619 3529 530 
Q 3584 441 3700 441 
Q 3728 441 3778 458 
Q 3828 475 3916 513 
L 3916 50 
Q 3788 -22 3673 -56 
Q 3559 -91 3450 -91 
Q 3234 -91 3106 31 
Q 2978 153 2931 403 
Q 2775 156 2548 32 
Q 2322 -91 2016 -91 
Q 1697 -91 1473 31 
Q 1250 153 1119 397 
L 1119 -1331 
L 544 -1331 
z
" transform="scale(0.015625)"/>
       <path id="DejaVuSans-56" d="M 1831 0 
L 50 4666 
L 709 4666 
L 2188 738 
L 3669 4666 
L 4325 4666 
L 2547 0 
L 1831 0 
z
" transform="scale(0.015625)"/>
      </defs>
      <use xlink:href="#DejaVuSans-b5"/>
      <use xlink:href="#DejaVuSans-56" transform="translate(63.623047 0)"/>
     </g>
    </g>
   </g>
   <g id="patch_4">
    <path d="M 38.693039 398.64351 
L 561.866948 398.64351 
" style="fill: none; stroke: #000000; stroke-width: 0.8; stroke-linejoin: miter; stroke-linecap: square"/>
   </g>
   <g id="patch_5">
    <path d="M 38.420552 208.380937 
L 561.866948 208.380937 
" style="fill: none; stroke: #000000; stroke-width: 0.8; stroke-linejoin: miter; stroke-linecap: square"/>
   </g>
   <g id="text_21">
    <!-- CPz, CP4, CP3, Pz, P4, P3 (median) -->
    <g transform="translate(196.150625 12.118365) scale(0.12 -0.12)">
     <defs>
      <path id="DejaVuSans-43" d="M 4122 4306 
L 4122 3641 
Q 3803 3938 3442 4084 
Q 3081 4231 2675 4231 
Q 1875 4231 1450 3742 
Q 1025 3253 1025 2328 
Q 1025 1406 1450 917 
Q 1875 428 2675 428 
Q 3081 428 3442 575 
Q 3803 722 4122 1019 
L 4122 359 
Q 3791 134 3420 21 
Q 3050 -91 2638 -91 
Q 1578 -91 968 557 
Q 359 1206 359 2328 
Q 359 3453 968 4101 
Q 1578 4750 2638 4750 
Q 3056 4750 3426 4639 
Q 3797 4528 4122 4306 
z
" transform="scale(0.015625)"/>
      <path id="DejaVuSans-50" d="M 1259 4147 
L 1259 2394 
L 2053 2394 
Q 2494 2394 2734 2622 
Q 2975 2850 2975 3272 
Q 2975 3691 2734 3919 
Q 2494 4147 2053 4147 
L 1259 4147 
z
M 628 4666 
L 2053 4666 
Q 2838 4666 3239 4311 
Q 3641 3956 3641 3272 
Q 3641 2581 3239 2228 
Q 2838 1875 2053 1875 
L 1259 1875 
L 1259 0 
L 628 0 
L 628 4666 
z
" transform="scale(0.015625)"/>
      <path id="DejaVuSans-7a" d="M 353 3500 
L 3084 3500 
L 3084 2975 
L 922 459 
L 3084 459 
L 3084 0 
L 275 0 
L 275 525 
L 2438 3041 
L 353 3041 
L 353 3500 
z
" transform="scale(0.015625)"/>
      <path id="DejaVuSans-2c" d="M 750 794 
L 1409 794 
L 1409 256 
L 897 -744 
L 494 -744 
L 750 256 
L 750 794 
z
" transform="scale(0.015625)"/>
      <path id="DejaVuSans-64" d="M 2906 2969 
L 2906 4863 
L 3481 4863 
L 3481 0 
L 2906 0 
L 2906 525 
Q 2725 213 2448 61 
Q 2172 -91 1784 -91 
Q 1150 -91 751 415 
Q 353 922 353 1747 
Q 353 2572 751 3078 
Q 1150 3584 1784 3584 
Q 2172 3584 2448 3432 
Q 2725 3281 2906 2969 
z
M 947 1747 
Q 947 1113 1208 752 
Q 1469 391 1925 391 
Q 2381 391 2643 752 
Q 2906 1113 2906 1747 
Q 2906 2381 2643 2742 
Q 2381 3103 1925 3103 
Q 1469 3103 1208 2742 
Q 947 2381 947 1747 
z
" transform="scale(0.015625)"/>
      <path id="DejaVuSans-61" d="M 2194 1759 
Q 1497 1759 1228 1600 
Q 959 1441 959 1056 
Q 959 750 1161 570 
Q 1363 391 1709 391 
Q 2188 391 2477 730 
Q 2766 1069 2766 1631 
L 2766 1759 
L 2194 1759 
z
M 3341 1997 
L 3341 0 
L 2766 0 
L 2766 531 
Q 2569 213 2275 61 
Q 1981 -91 1556 -91 
Q 1019 -91 701 211 
Q 384 513 384 1019 
Q 384 1609 779 1909 
Q 1175 2209 1959 2209 
L 2766 2209 
L 2766 2266 
Q 2766 2663 2505 2880 
Q 2244 3097 1772 3097 
Q 1472 3097 1187 3025 
Q 903 2953 641 2809 
L 641 3341 
Q 956 3463 1253 3523 
Q 1550 3584 1831 3584 
Q 2591 3584 2966 3190 
Q 3341 2797 3341 1997 
z
" transform="scale(0.015625)"/>
      <path id="DejaVuSans-6e" d="M 3513 2113 
L 3513 0 
L 2938 0 
L 2938 2094 
Q 2938 2591 2744 2837 
Q 2550 3084 2163 3084 
Q 1697 3084 1428 2787 
Q 1159 2491 1159 1978 
L 1159 0 
L 581 0 
L 581 3500 
L 1159 3500 
L 1159 2956 
Q 1366 3272 1645 3428 
Q 1925 3584 2291 3584 
Q 2894 3584 3203 3211 
Q 3513 2838 3513 2113 
z
" transform="scale(0.015625)"/>
     </defs>
     <use xlink:href="#DejaVuSans-43"/>
     <use xlink:href="#DejaVuSans-50" transform="translate(69.824219 0)"/>
     <use xlink:href="#DejaVuSans-7a" transform="translate(130.126953 0)"/>
     <use xlink:href="#DejaVuSans-2c" transform="translate(182.617188 0)"/>
     <use xlink:href="#DejaVuSans-20" transform="translate(214.404297 0)"/>
     <use xlink:href="#DejaVuSans-43" transform="translate(246.191406 0)"/>
     <use xlink:href="#DejaVuSans-50" transform="translate(316.015625 0)"/>
     <use xlink:href="#DejaVuSans-34" transform="translate(376.318359 0)"/>
     <use xlink:href="#DejaVuSans-2c" transform="translate(439.941406 0)"/>
     <use xlink:href="#DejaVuSans-20" transform="translate(471.728516 0)"/>
     <use xlink:href="#DejaVuSans-43" transform="translate(503.515625 0)"/>
     <use xlink:href="#DejaVuSans-50" transform="translate(573.339844 0)"/>
     <use xlink:href="#DejaVuSans-33" transform="translate(633.642578 0)"/>
     <use xlink:href="#DejaVuSans-2c" transform="translate(697.265625 0)"/>
     <use xlink:href="#DejaVuSans-20" transform="translate(729.052734 0)"/>
     <use xlink:href="#DejaVuSans-50" transform="translate(760.839844 0)"/>
     <use xlink:href="#DejaVuSans-7a" transform="translate(821.142578 0)"/>
     <use xlink:href="#DejaVuSans-2c" transform="translate(873.632812 0)"/>
     <use xlink:href="#DejaVuSans-20" transform="translate(905.419922 0)"/>
     <use xlink:href="#DejaVuSans-50" transform="translate(937.207031 0)"/>
     <use xlink:href="#DejaVuSans-34" transform="translate(997.509766 0)"/>
     <use xlink:href="#DejaVuSans-2c" transform="translate(1061.132812 0)"/>
     <use xlink:href="#DejaVuSans-20" transform="translate(1092.919922 0)"/>
     <use xlink:href="#DejaVuSans-50" transform="translate(1124.707031 0)"/>
     <use xlink:href="#DejaVuSans-33" transform="translate(1185.009766 0)"/>
     <use xlink:href="#DejaVuSans-20" transform="translate(1248.632812 0)"/>
     <use xlink:href="#DejaVuSans-28" transform="translate(1280.419922 0)"/>
     <use xlink:href="#DejaVuSans-6d" transform="translate(1319.433594 0)"/>
     <use xlink:href="#DejaVuSans-65" transform="translate(1416.845703 0)"/>
     <use xlink:href="#DejaVuSans-64" transform="translate(1478.369141 0)"/>
     <use xlink:href="#DejaVuSans-69" transform="translate(1541.845703 0)"/>
     <use xlink:href="#DejaVuSans-61" transform="translate(1569.628906 0)"/>
     <use xlink:href="#DejaVuSans-6e" transform="translate(1630.908203 0)"/>
     <use xlink:href="#DejaVuSans-29" transform="translate(1694.287109 0)"/>
    </g>
   </g>
   <g id="legend_1">
    <g id="patch_6">
     <path d="M 45.420552 55.75274 
L 126.56274 55.75274 
Q 128.56274 55.75274 128.56274 53.75274 
L 128.56274 25.118365 
Q 128.56274 23.118365 126.56274 23.118365 
L 45.420552 23.118365 
Q 43.420552 23.118365 43.420552 25.118365 
L 43.420552 53.75274 
Q 43.420552 55.75274 45.420552 55.75274 
z
" style="fill: #ffffff; opacity: 0.8; stroke: #cccccc; stroke-linejoin: miter"/>
    </g>
    <g id="line2d_19">
     <path d="M 47.420552 31.216803 
L 57.420552 31.216803 
L 67.420552 31.216803 
" style="fill: none; stroke: #1f77b4; stroke-width: 1.5; stroke-linecap: square"/>
    </g>
    <g id="text_22">
     <!-- eerie -->
     <g transform="translate(75.420552 34.716803) scale(0.1 -0.1)">
      <defs>
       <path id="DejaVuSans-72" d="M 2631 2963 
Q 2534 3019 2420 3045 
Q 2306 3072 2169 3072 
Q 1681 3072 1420 2755 
Q 1159 2438 1159 1844 
L 1159 0 
L 581 0 
L 581 3500 
L 1159 3500 
L 1159 2956 
Q 1341 3275 1631 3429 
Q 1922 3584 2338 3584 
Q 2397 3584 2469 3576 
Q 2541 3569 2628 3553 
L 2631 2963 
z
" transform="scale(0.015625)"/>
      </defs>
      <use xlink:href="#DejaVuSans-65"/>
      <use xlink:href="#DejaVuSans-65" transform="translate(61.523438 0)"/>
      <use xlink:href="#DejaVuSans-72" transform="translate(123.046875 0)"/>
      <use xlink:href="#DejaVuSans-69" transform="translate(164.160156 0)"/>
      <use xlink:href="#DejaVuSans-65" transform="translate(191.943359 0)"/>
     </g>
    </g>
    <g id="line2d_20">
     <path d="M 47.420552 45.894928 
L 57.420552 45.894928 
L 67.420552 45.894928 
" style="fill: none; stroke: #ff7f0e; stroke-width: 1.5; stroke-linecap: square"/>
    </g>
    <g id="text_23">
     <!-- non_eerie -->
     <g transform="translate(75.420552 49.394928) scale(0.1 -0.1)">
      <defs>
       <path id="DejaVuSans-6f" d="M 1959 3097 
Q 1497 3097 1228 2736 
Q 959 2375 959 1747 
Q 959 1119 1226 758 
Q 1494 397 1959 397 
Q 2419 397 2687 759 
Q 2956 1122 2956 1747 
Q 2956 2369 2687 2733 
Q 2419 3097 1959 3097 
z
M 1959 3584 
Q 2709 3584 3137 3096 
Q 3566 2609 3566 1747 
Q 3566 888 3137 398 
Q 2709 -91 1959 -91 
Q 1206 -91 779 398 
Q 353 888 353 1747 
Q 353 2609 779 3096 
Q 1206 3584 1959 3584 
z
" transform="scale(0.015625)"/>
       <path id="DejaVuSans-5f" d="M 3263 -1063 
L 3263 -1509 
L -63 -1509 
L -63 -1063 
L 3263 -1063 
z
" transform="scale(0.015625)"/>
      </defs>
      <use xlink:href="#DejaVuSans-6e"/>
      <use xlink:href="#DejaVuSans-6f" transform="translate(63.378906 0)"/>
      <use xlink:href="#DejaVuSans-6e" transform="translate(124.560547 0)"/>
      <use xlink:href="#DejaVuSans-5f" transform="translate(187.939453 0)"/>
      <use xlink:href="#DejaVuSans-65" transform="translate(237.939453 0)"/>
      <use xlink:href="#DejaVuSans-65" transform="translate(299.462891 0)"/>
      <use xlink:href="#DejaVuSans-72" transform="translate(360.986328 0)"/>
      <use xlink:href="#DejaVuSans-69" transform="translate(402.099609 0)"/>
      <use xlink:href="#DejaVuSans-65" transform="translate(429.882812 0)"/>
     </g>
    </g>
   </g>
   <g id="FillBetweenPolyCollection_1">
    <defs>
     <path id="m28a4388520" d="M 38.420552 -260.961103 
L 38.420552 -250.461532 
L 40.123593 -243.445151 
L 41.826633 -236.344266 
L 43.529673 -232.226856 
L 45.232713 -233.217501 
L 46.935753 -237.915617 
L 48.638793 -242.59036 
L 50.341833 -243.202398 
L 52.044873 -238.845587 
L 53.747913 -231.68731 
L 55.450953 -225.140093 
L 57.153993 -222.042812 
L 58.857033 -222.009586 
L 60.560073 -222.935405 
L 62.263113 -223.979202 
L 63.966154 -225.45432 
L 65.669194 -227.015887 
L 67.372234 -230.184212 
L 69.075274 -234.152111 
L 70.778314 -236.492336 
L 72.481354 -234.913988 
L 74.184394 -228.280873 
L 75.887434 -219.205865 
L 77.590474 -210.416945 
L 79.293514 -204.544849 
L 80.996554 -203.360534 
L 82.699594 -205.111416 
L 84.402634 -208.020924 
L 86.105674 -210.624521 
L 87.808714 -213.383413 
L 89.511755 -216.882018 
L 91.214795 -221.744031 
L 92.917835 -226.73569 
L 94.620875 -229.865872 
L 96.323915 -229.003183 
L 98.026955 -223.607685 
L 99.729995 -215.119255 
L 101.433035 -205.843336 
L 103.136075 -197.89949 
L 104.839115 -193.186457 
L 106.542155 -192.83109 
L 108.245195 -197.54307 
L 109.948235 -205.986159 
L 111.651275 -215.641863 
L 113.354315 -221.990535 
L 115.057356 -221.965456 
L 116.760396 -216.130255 
L 118.463436 -207.069015 
L 120.166476 -199.803218 
L 121.869516 -197.367034 
L 123.572556 -199.829151 
L 125.275596 -203.595762 
L 126.978636 -204.529695 
L 128.681676 -200.688641 
L 130.384716 -193.965245 
L 132.087756 -188.89254 
L 133.790796 -190.083427 
L 135.493836 -197.45884 
L 137.196876 -207.39085 
L 138.899916 -214.616601 
L 140.602957 -215.197551 
L 142.305997 -208.802066 
L 144.009037 -198.911647 
L 145.712077 -191.357857 
L 147.415117 -189.349088 
L 149.118157 -192.679934 
L 150.821197 -198.956132 
L 152.524237 -205.376175 
L 154.227277 -208.792202 
L 155.930317 -206.891188 
L 157.633357 -201.604793 
L 159.336397 -196.317205 
L 161.039437 -195.070232 
L 162.742477 -199.99788 
L 164.445517 -212.808753 
L 166.148558 -231.845486 
L 167.851598 -253.499228 
L 169.554638 -274.908987 
L 171.257678 -295.808803 
L 172.960718 -316.494581 
L 174.663758 -339.111748 
L 176.366798 -363.113261 
L 178.069838 -384.576675 
L 179.772878 -397.949738 
L 181.475918 -399.073235 
L 183.178958 -388.729303 
L 184.881998 -370.961365 
L 186.585038 -351.235449 
L 188.288078 -333.809538 
L 189.991118 -320.428544 
L 191.694159 -309.582206 
L 193.397199 -299.488445 
L 195.100239 -289.114267 
L 196.803279 -279.904062 
L 198.506319 -275.241804 
L 200.209359 -276.241807 
L 201.912399 -280.964186 
L 203.615439 -285.91842 
L 205.318479 -289.488558 
L 207.021519 -292.026355 
L 208.724559 -296.540311 
L 210.427599 -304.108529 
L 212.130639 -315.176822 
L 213.833679 -326.843317 
L 215.536719 -335.930855 
L 217.23976 -338.82773 
L 218.9428 -336.62735 
L 220.64584 -332.670876 
L 222.34888 -331.757821 
L 224.05192 -336.320324 
L 225.75496 -344.553228 
L 227.458 -352.437568 
L 229.16104 -355.258803 
L 230.86408 -351.809156 
L 232.56712 -342.809189 
L 234.27016 -332.370024 
L 235.9732 -322.142022 
L 237.67624 -314.912056 
L 239.37928 -310.119576 
L 241.08232 -307.434037 
L 242.785361 -306.161283 
L 244.488401 -305.157262 
L 246.191441 -303.625421 
L 247.894481 -302.637241 
L 249.597521 -302.766073 
L 251.300561 -304.61154 
L 253.003601 -307.328947 
L 254.706641 -311.18082 
L 256.409681 -315.209053 
L 258.112721 -318.657678 
L 259.815761 -322.121141 
L 261.518801 -327.111946 
L 263.221841 -334.251286 
L 264.924881 -343.420369 
L 266.627921 -351.483797 
L 268.330962 -356.063183 
L 270.034002 -354.594099 
L 271.737042 -347.862481 
L 273.440082 -338.508278 
L 275.143122 -331.765475 
L 276.846162 -329.1987 
L 278.549202 -330.111497 
L 280.252242 -331.554429 
L 281.955282 -330.53528 
L 283.658322 -326.818411 
L 285.361362 -322.328307 
L 287.064402 -318.957467 
L 288.767442 -317.488544 
L 290.470482 -316.070594 
L 292.173522 -312.799667 
L 293.876563 -307.530837 
L 295.579603 -301.592636 
L 297.282643 -297.817352 
L 298.985683 -297.866832 
L 300.688723 -300.073954 
L 302.391763 -302.390644 
L 304.094803 -302.60833 
L 305.797843 -301.120938 
L 307.500883 -301.248584 
L 309.203923 -304.303067 
L 310.906963 -311.041833 
L 312.610003 -317.760381 
L 314.313043 -320.909119 
L 316.016083 -320.288823 
L 317.719123 -317.914001 
L 319.422164 -316.78365 
L 321.125204 -318.742934 
L 322.828244 -322.247243 
L 324.531284 -325.05279 
L 326.234324 -325.830586 
L 327.937364 -326.066208 
L 329.640404 -329.828985 
L 331.343444 -339.294572 
L 333.046484 -353.617092 
L 334.749524 -368.210824 
L 336.452564 -377.976597 
L 338.155604 -380.665818 
L 339.858644 -378.023341 
L 341.561684 -375.401953 
L 343.264724 -376.133266 
L 344.967765 -379.995105 
L 346.670805 -384.765919 
L 348.373845 -387.512793 
L 350.076885 -387.106575 
L 351.779925 -386.005036 
L 353.482965 -386.299291 
L 355.186005 -389.456848 
L 356.889045 -393.490821 
L 358.592085 -394.517108 
L 360.295125 -390.950502 
L 361.998165 -383.151003 
L 363.701205 -374.819731 
L 365.404245 -370.757814 
L 367.107285 -372.313145 
L 368.810326 -378.654106 
L 370.513366 -386.37164 
L 372.216406 -393.107886 
L 373.919446 -397.139651 
L 375.622486 -397.557845 
L 377.325526 -395.912427 
L 379.028566 -393.844609 
L 380.731606 -392.746692 
L 382.434646 -392.620448 
L 384.137686 -391.516254 
L 385.840726 -389.063737 
L 387.543766 -385.270775 
L 389.246806 -380.270403 
L 390.949846 -375.934801 
L 392.652886 -372.502135 
L 394.355927 -370.625979 
L 396.058967 -368.940116 
L 397.762007 -365.854212 
L 399.465047 -360.241823 
L 401.168087 -353.335594 
L 402.871127 -346.779713 
L 404.574167 -342.349046 
L 406.277207 -340.88792 
L 407.980247 -341.321213 
L 409.683287 -340.929932 
L 411.386327 -337.192545 
L 413.089367 -331.125554 
L 414.792407 -324.292591 
L 416.495447 -319.954156 
L 418.198487 -318.381857 
L 419.901528 -318.29082 
L 421.604568 -317.612897 
L 423.307608 -314.474396 
L 425.010648 -308.609383 
L 426.713688 -302.4745 
L 428.416728 -297.702491 
L 430.119768 -295.952907 
L 431.822808 -295.859477 
L 433.525848 -295.530735 
L 435.228888 -293.024087 
L 436.931928 -287.145712 
L 438.634968 -278.286438 
L 440.338008 -268.647159 
L 442.041048 -260.855932 
L 443.744088 -256.460183 
L 445.447129 -255.937478 
L 447.150169 -258.885002 
L 448.853209 -262.861688 
L 450.556249 -266.97297 
L 452.259289 -269.851478 
L 453.962329 -271.50592 
L 455.665369 -272.299945 
L 457.368409 -272.09193 
L 459.071449 -270.850619 
L 460.774489 -269.074283 
L 462.477529 -266.313952 
L 464.180569 -262.537801 
L 465.883609 -259.124908 
L 467.586649 -255.865839 
L 469.289689 -253.083225 
L 470.99273 -250.408191 
L 472.69577 -247.176539 
L 474.39881 -242.733 
L 476.10185 -237.642166 
L 477.80489 -234.064307 
L 479.50793 -232.463118 
L 481.21097 -232.201905 
L 482.91401 -233.031834 
L 484.61705 -234.642051 
L 486.32009 -238.029938 
L 488.02313 -242.424829 
L 489.72617 -247.239176 
L 491.42921 -251.85691 
L 493.13225 -254.335865 
L 494.83529 -253.238619 
L 496.538331 -248.037024 
L 498.241371 -239.201622 
L 499.944411 -229.905383 
L 501.647451 -222.263238 
L 503.350491 -217.536138 
L 505.053531 -216.220412 
L 506.756571 -217.251757 
L 508.459611 -218.268369 
L 510.162651 -217.537148 
L 511.865691 -215.088474 
L 513.568731 -214.440257 
L 515.271771 -217.621513 
L 516.974811 -224.537438 
L 518.677851 -232.553496 
L 520.380891 -237.410642 
L 522.083932 -236.136132 
L 523.786972 -229.747361 
L 525.490012 -221.679137 
L 527.193052 -216.341517 
L 528.896092 -216.123239 
L 530.599132 -219.610169 
L 532.302172 -222.851967 
L 534.005212 -222.331217 
L 535.708252 -218.071493 
L 537.411292 -212.503579 
L 539.114332 -209.405081 
L 540.817372 -210.536787 
L 542.520412 -214.229907 
L 544.223452 -217.031437 
L 545.926492 -215.349971 
L 547.629533 -208.593838 
L 549.332573 -199.103142 
L 551.035613 -191.601765 
L 552.738653 -188.631531 
L 554.441693 -190.56468 
L 556.144733 -195.073166 
L 557.847773 -198.801056 
L 559.550813 -199.445885 
L 561.253853 -196.2138 
L 561.253853 -213.033403 
L 561.253853 -213.033403 
L 559.550813 -216.829457 
L 557.847773 -215.907767 
L 556.144733 -211.367226 
L 554.441693 -206.402943 
L 552.738653 -204.365009 
L 551.035613 -207.709415 
L 549.332573 -215.195438 
L 547.629533 -224.00819 
L 545.926492 -230.853623 
L 544.223452 -233.14485 
L 542.520412 -231.22319 
L 540.817372 -227.278884 
L 539.114332 -225.765966 
L 537.411292 -228.327785 
L 535.708252 -233.50466 
L 534.005212 -237.899999 
L 532.302172 -238.450981 
L 530.599132 -235.551162 
L 528.896092 -232.037536 
L 527.193052 -232.02203 
L 525.490012 -237.252584 
L 523.786972 -245.375299 
L 522.083932 -252.313525 
L 520.380891 -253.473422 
L 518.677851 -248.742024 
L 516.974811 -241.162247 
L 515.271771 -233.915173 
L 513.568731 -230.476445 
L 511.865691 -230.530121 
L 510.162651 -232.507472 
L 508.459611 -234.250087 
L 506.756571 -233.979938 
L 505.053531 -232.281507 
L 503.350491 -232.540239 
L 501.647451 -236.484916 
L 499.944411 -244.173464 
L 498.241371 -253.847734 
L 496.538331 -262.493102 
L 494.83529 -267.804363 
L 493.13225 -269.484005 
L 491.42921 -267.561117 
L 489.72617 -262.951952 
L 488.02313 -257.551269 
L 486.32009 -252.601516 
L 484.61705 -249.439486 
L 482.91401 -247.73677 
L 481.21097 -247.356302 
L 479.50793 -248.229834 
L 477.80489 -250.468213 
L 476.10185 -253.864461 
L 474.39881 -257.89186 
L 472.69577 -262.266911 
L 470.99273 -265.750267 
L 469.289689 -268.54768 
L 467.586649 -271.259496 
L 465.883609 -273.953582 
L 464.180569 -276.870484 
L 462.477529 -279.996159 
L 460.774489 -282.547257 
L 459.071449 -284.618593 
L 457.368409 -285.774934 
L 455.665369 -285.900152 
L 453.962329 -285.063231 
L 452.259289 -283.401478 
L 450.556249 -280.6055 
L 448.853209 -277.138965 
L 447.150169 -273.483756 
L 445.447129 -270.620087 
L 443.744088 -271.028495 
L 442.041048 -275.335342 
L 440.338008 -282.658069 
L 438.634968 -291.616522 
L 436.931928 -300.570004 
L 435.228888 -306.626501 
L 433.525848 -309.518648 
L 431.822808 -309.886321 
L 430.119768 -309.904935 
L 428.416728 -312.100948 
L 426.713688 -317.368417 
L 425.010648 -324.12664 
L 423.307608 -330.576816 
L 421.604568 -334.73629 
L 419.901528 -336.079313 
L 418.198487 -336.233106 
L 416.495447 -337.340667 
L 414.792407 -341.696965 
L 413.089367 -348.186281 
L 411.386327 -354.39124 
L 409.683287 -358.019263 
L 407.980247 -359.088728 
L 406.277207 -359.315714 
L 404.574167 -360.847339 
L 402.871127 -364.954409 
L 401.168087 -371.066092 
L 399.465047 -378.223817 
L 397.762007 -383.460008 
L 396.058967 -386.659345 
L 394.355927 -388.327126 
L 392.652886 -390.541455 
L 390.949846 -394.047207 
L 389.246806 -398.159474 
L 387.543766 -402.643105 
L 385.840726 -405.8719 
L 384.137686 -408.078188 
L 382.434646 -408.98336 
L 380.731606 -409.289568 
L 379.028566 -409.93217 
L 377.325526 -411.830884 
L 375.622486 -413.83726 
L 373.919446 -413.881635 
L 372.216406 -410.208185 
L 370.513366 -403.399145 
L 368.810326 -394.895606 
L 367.107285 -388.60867 
L 365.404245 -386.911613 
L 363.701205 -391.457042 
L 361.998165 -399.974072 
L 360.295125 -408.729786 
L 358.592085 -413.138407 
L 356.889045 -412.336683 
L 355.186005 -407.897895 
L 353.482965 -404.156043 
L 351.779925 -403.16793 
L 350.076885 -404.294264 
L 348.373845 -404.766468 
L 346.670805 -402.058089 
L 344.967765 -396.677934 
L 343.264724 -392.269389 
L 341.561684 -391.559574 
L 339.858644 -394.524197 
L 338.155604 -397.248547 
L 336.452564 -395.098756 
L 334.749524 -385.259231 
L 333.046484 -370.315321 
L 331.343444 -355.397312 
L 329.640404 -345.793196 
L 327.937364 -342.34169 
L 326.234324 -342.401479 
L 324.531284 -341.925444 
L 322.828244 -338.748432 
L 321.125204 -335.070374 
L 319.422164 -333.10903 
L 317.719123 -334.30031 
L 316.016083 -336.327686 
L 314.313043 -336.586243 
L 312.610003 -332.703696 
L 310.906963 -326.026907 
L 309.203923 -319.487216 
L 307.500883 -316.157687 
L 305.797843 -316.006586 
L 304.094803 -317.22278 
L 302.391763 -317.229003 
L 300.688723 -315.24859 
L 298.985683 -312.869911 
L 297.282643 -312.532285 
L 295.579603 -315.64749 
L 293.876563 -321.398753 
L 292.173522 -327.093956 
L 290.470482 -330.310633 
L 288.767442 -331.339654 
L 287.064402 -332.23008 
L 285.361362 -334.957196 
L 283.658322 -339.14054 
L 281.955282 -342.788557 
L 280.252242 -344.579295 
L 278.549202 -344.232245 
L 276.846162 -343.810325 
L 275.143122 -346.487659 
L 273.440082 -353.135644 
L 271.737042 -362.258637 
L 270.034002 -369.084162 
L 268.330962 -370.436232 
L 266.627921 -366.363079 
L 264.924881 -357.94646 
L 263.221841 -348.741437 
L 261.518801 -341.290805 
L 259.815761 -336.016683 
L 258.112721 -331.929433 
L 256.409681 -328.072074 
L 254.706641 -323.973051 
L 253.003601 -320.00082 
L 251.300561 -317.028773 
L 249.597521 -315.918887 
L 247.894481 -316.236401 
L 246.191441 -317.866338 
L 244.488401 -319.040631 
L 242.785361 -319.515768 
L 241.08232 -319.960884 
L 239.37928 -321.751105 
L 237.67624 -326.607289 
L 235.9732 -335.220503 
L 234.27016 -346.302039 
L 232.56712 -357.308076 
L 230.86408 -366.141468 
L 229.16104 -369.078896 
L 227.458 -366.095253 
L 225.75496 -358.436255 
L 224.05192 -350.577516 
L 222.34888 -345.972995 
L 220.64584 -346.529803 
L 218.9428 -350.57408 
L 217.23976 -352.737482 
L 215.536719 -349.244974 
L 213.833679 -340.274727 
L 212.130639 -328.64886 
L 210.427599 -318.144686 
L 208.724559 -310.493516 
L 207.021519 -306.345788 
L 205.318479 -303.227689 
L 203.615439 -299.430135 
L 201.912399 -294.358522 
L 200.209359 -289.521061 
L 198.506319 -288.700494 
L 196.803279 -293.650477 
L 195.100239 -303.000327 
L 193.397199 -313.364105 
L 191.694159 -323.146531 
L 189.991118 -333.792223 
L 188.288078 -347.350907 
L 186.585038 -364.780957 
L 184.881998 -384.026234 
L 183.178958 -401.805966 
L 181.475918 -412.440567 
L 179.772878 -411.279473 
L 178.069838 -398.457335 
L 176.366798 -377.333804 
L 174.663758 -353.548746 
L 172.960718 -330.863709 
L 171.257678 -309.627041 
L 169.554638 -288.379106 
L 167.851598 -266.188432 
L 166.148558 -244.024357 
L 164.445517 -225.086231 
L 162.742477 -212.272978 
L 161.039437 -207.010752 
L 159.336397 -208.152532 
L 157.633357 -212.872771 
L 155.930317 -217.534814 
L 154.227277 -218.782459 
L 152.524237 -215.798181 
L 150.821197 -209.218318 
L 149.118157 -202.472222 
L 147.415117 -199.293452 
L 145.712077 -201.957854 
L 144.009037 -210.155108 
L 142.305997 -219.664528 
L 140.602957 -226.155234 
L 138.899916 -225.30096 
L 137.196876 -217.65813 
L 135.493836 -206.960495 
L 133.790796 -199.308464 
L 132.087756 -198.020986 
L 130.384716 -202.95212 
L 128.681676 -209.827083 
L 126.978636 -213.675923 
L 125.275596 -212.728771 
L 123.572556 -208.68123 
L 121.869516 -206.012577 
L 120.166476 -208.734183 
L 118.463436 -216.390147 
L 116.760396 -225.700966 
L 115.057356 -231.757662 
L 113.354315 -231.078751 
L 111.651275 -223.926391 
L 109.948235 -214.345526 
L 108.245195 -205.41745 
L 106.542155 -200.572988 
L 104.839115 -200.669693 
L 103.136075 -205.59643 
L 101.433035 -214.534308 
L 99.729995 -224.240873 
L 98.026955 -232.319265 
L 96.323915 -237.529628 
L 94.620875 -238.69921 
L 92.917835 -236.066024 
L 91.214795 -230.73904 
L 89.511755 -225.155782 
L 87.808714 -220.992771 
L 86.105674 -217.783545 
L 84.402634 -215.325529 
L 82.699594 -212.838034 
L 80.996554 -211.492416 
L 79.293514 -213.183045 
L 77.590474 -219.002525 
L 75.887434 -228.004349 
L 74.184394 -237.05161 
L 72.481354 -243.197726 
L 70.778314 -244.122814 
L 69.075274 -241.344937 
L 67.372234 -237.409021 
L 65.669194 -234.341182 
L 63.966154 -232.558032 
L 62.263113 -231.459072 
L 60.560073 -230.572642 
L 58.857033 -229.734934 
L 57.153993 -230.167535 
L 55.450953 -234.270184 
L 53.747913 -241.554666 
L 52.044873 -248.810931 
L 50.341833 -252.842434 
L 48.638793 -252.083539 
L 46.935753 -247.961285 
L 45.232713 -243.480476 
L 43.529673 -242.778625 
L 41.826633 -246.567731 
L 40.123593 -253.706277 
L 38.420552 -260.961103 
z
" style="stroke: #1f77b4; stroke-opacity: 0.3"/>
    </defs>
    <g>
     <use xlink:href="#m28a4388520" x="0" y="432" style="fill: #1f77b4; fill-opacity: 0.3; stroke: #1f77b4; stroke-opacity: 0.3"/>
    </g>
   </g>
   <g id="FillBetweenPolyCollection_2">
    <defs>
     <path id="mbb9e119446" d="M 38.420552 -269.536884 
L 38.420552 -263.261844 
L 40.123593 -262.362573 
L 41.826633 -256.884983 
L 43.529673 -248.128636 
L 45.232713 -239.476551 
L 46.935753 -234.084306 
L 48.638793 -232.991295 
L 50.341833 -234.877993 
L 52.044873 -237.189455 
L 53.747913 -237.9738 
L 55.450953 -236.691033 
L 57.153993 -233.783129 
L 58.857033 -230.640187 
L 60.560073 -228.781103 
L 62.263113 -228.96171 
L 63.966154 -230.95828 
L 65.669194 -233.46069 
L 67.372234 -235.008962 
L 69.075274 -234.395876 
L 70.778314 -231.695637 
L 72.481354 -228.434264 
L 74.184394 -225.627508 
L 75.887434 -223.788903 
L 77.590474 -222.986782 
L 79.293514 -222.705968 
L 80.996554 -221.697183 
L 82.699594 -219.102573 
L 84.402634 -215.506659 
L 86.105674 -212.332663 
L 87.808714 -211.211552 
L 89.511755 -211.88148 
L 91.214795 -213.902005 
L 92.917835 -215.593418 
L 94.620875 -215.698497 
L 96.323915 -214.447277 
L 98.026955 -212.669179 
L 99.729995 -210.940833 
L 101.433035 -209.857323 
L 103.136075 -209.463589 
L 104.839115 -209.324526 
L 106.542155 -208.693844 
L 108.245195 -207.505155 
L 109.948235 -206.517668 
L 111.651275 -206.535027 
L 113.354315 -207.410841 
L 115.057356 -208.234568 
L 116.760396 -208.124008 
L 118.463436 -206.177629 
L 120.166476 -202.10387 
L 121.869516 -197.152626 
L 123.572556 -192.338893 
L 125.275596 -189.175829 
L 126.978636 -188.242086 
L 128.681676 -189.34757 
L 130.384716 -191.378607 
L 132.087756 -193.096485 
L 133.790796 -193.30153 
L 135.493836 -192.082899 
L 137.196876 -190.098506 
L 138.899916 -188.576865 
L 140.602957 -188.108242 
L 142.305997 -188.109924 
L 144.009037 -187.827394 
L 145.712077 -185.805938 
L 147.415117 -182.16447 
L 149.118157 -177.925473 
L 150.821197 -174.987543 
L 152.524237 -174.466571 
L 154.227277 -176.664263 
L 155.930317 -180.320331 
L 157.633357 -183.714658 
L 159.336397 -186.095534 
L 161.039437 -188.262783 
L 162.742477 -193.267658 
L 164.445517 -203.611032 
L 166.148558 -219.791266 
L 167.851598 -239.993207 
L 169.554638 -261.498798 
L 171.257678 -282.051512 
L 172.960718 -300.048617 
L 174.663758 -315.669475 
L 176.366798 -329.570728 
L 178.069838 -342.42687 
L 179.772878 -353.382431 
L 181.475918 -361.362629 
L 183.178958 -365.016187 
L 184.881998 -363.383823 
L 186.585038 -356.249139 
L 188.288078 -343.722326 
L 189.991118 -328.328261 
L 191.694159 -312.507688 
L 193.397199 -298.324065 
L 195.100239 -287.325288 
L 196.803279 -279.119078 
L 198.506319 -273.788482 
L 200.209359 -270.88938 
L 201.912399 -269.209455 
L 203.615439 -267.20284 
L 205.318479 -264.5661 
L 207.021519 -262.853876 
L 208.724559 -263.626162 
L 210.427599 -268.042484 
L 212.130639 -275.837956 
L 213.833679 -286.071669 
L 215.536719 -296.949281 
L 217.23976 -306.274634 
L 218.9428 -312.769702 
L 220.64584 -315.974278 
L 222.34888 -316.933608 
L 224.05192 -317.178955 
L 225.75496 -318.154657 
L 227.458 -320.6315 
L 229.16104 -324.401864 
L 230.86408 -328.453062 
L 232.56712 -331.058418 
L 234.27016 -330.695683 
L 235.9732 -327.482137 
L 237.67624 -322.432756 
L 239.37928 -317.725279 
L 241.08232 -314.9866 
L 242.785361 -314.159882 
L 244.488401 -313.882467 
L 246.191441 -311.556473 
L 247.894481 -306.18054 
L 249.597521 -298.880841 
L 251.300561 -292.500422 
L 253.003601 -289.787949 
L 254.706641 -291.419821 
L 256.409681 -295.806629 
L 258.112721 -300.249266 
L 259.815761 -302.330797 
L 261.518801 -302.130866 
L 263.221841 -301.747259 
L 264.924881 -303.908506 
L 266.627921 -309.461928 
L 268.330962 -315.960459 
L 270.034002 -319.102336 
L 271.737042 -316.322995 
L 273.440082 -308.482031 
L 275.143122 -299.493963 
L 276.846162 -294.407574 
L 278.549202 -295.170721 
L 280.252242 -300.416243 
L 281.955282 -306.107708 
L 283.658322 -307.99749 
L 285.361362 -305.33021 
L 287.064402 -299.409303 
L 288.767442 -294.732192 
L 290.470482 -294.377154 
L 292.173522 -298.591849 
L 293.876563 -305.349066 
L 295.579603 -311.026689 
L 297.282643 -313.479141 
L 298.985683 -312.522448 
L 300.688723 -309.579933 
L 302.391763 -306.368156 
L 304.094803 -303.571314 
L 305.797843 -301.692474 
L 307.500883 -300.438318 
L 309.203923 -299.553961 
L 310.906963 -299.159242 
L 312.610003 -298.699311 
L 314.313043 -296.697257 
L 316.016083 -292.533259 
L 317.719123 -286.00574 
L 319.422164 -278.801824 
L 321.125204 -274.132668 
L 322.828244 -274.826783 
L 324.531284 -281.319744 
L 326.234324 -290.810058 
L 327.937364 -299.075054 
L 329.640404 -302.305226 
L 331.343444 -299.624794 
L 333.046484 -293.602825 
L 334.749524 -288.876952 
L 336.452564 -288.79508 
L 338.155604 -293.563382 
L 339.858644 -300.495936 
L 341.561684 -304.917504 
L 343.264724 -304.664121 
L 344.967765 -299.908389 
L 346.670805 -293.146287 
L 348.373845 -288.492075 
L 350.076885 -288.057952 
L 351.779925 -291.349571 
L 353.482965 -295.893443 
L 355.186005 -299.546156 
L 356.889045 -299.901704 
L 358.592085 -297.791187 
L 360.295125 -294.28563 
L 361.998165 -291.014953 
L 363.701205 -288.713489 
L 365.404245 -287.558834 
L 367.107285 -286.840942 
L 368.810326 -286.409462 
L 370.513366 -286.467922 
L 372.216406 -287.653151 
L 373.919446 -289.903201 
L 375.622486 -292.703977 
L 377.325526 -295.160492 
L 379.028566 -296.472906 
L 380.731606 -296.942951 
L 382.434646 -297.059763 
L 384.137686 -297.70248 
L 385.840726 -299.312215 
L 387.543766 -301.278679 
L 389.246806 -302.562262 
L 390.949846 -302.860568 
L 392.652886 -301.857902 
L 394.355927 -300.453794 
L 396.058967 -299.529165 
L 397.762007 -300.043051 
L 399.465047 -301.765964 
L 401.168087 -304.041344 
L 402.871127 -305.5785 
L 404.574167 -305.247872 
L 406.277207 -303.334967 
L 407.980247 -300.234207 
L 409.683287 -296.552856 
L 411.386327 -292.558582 
L 413.089367 -288.518515 
L 414.792407 -284.66393 
L 416.495447 -281.361357 
L 418.198487 -279.452301 
L 419.901528 -279.25973 
L 421.604568 -280.397821 
L 423.307608 -282.001232 
L 425.010648 -283.339374 
L 426.713688 -283.634849 
L 428.416728 -282.846807 
L 430.119768 -280.855608 
L 431.822808 -278.522447 
L 433.525848 -276.434663 
L 435.228888 -274.343938 
L 436.931928 -272.123861 
L 438.634968 -270.077606 
L 440.338008 -268.448152 
L 442.041048 -267.546574 
L 443.744088 -267.063035 
L 445.447129 -266.350992 
L 447.150169 -264.484238 
L 448.853209 -261.211437 
L 450.556249 -256.90192 
L 452.259289 -253.040375 
L 453.962329 -251.045024 
L 455.665369 -252.106764 
L 457.368409 -255.084974 
L 459.071449 -257.781403 
L 460.774489 -257.891839 
L 462.477529 -254.940767 
L 464.180569 -249.153597 
L 465.883609 -242.475506 
L 467.586649 -236.952291 
L 469.289689 -234.032334 
L 470.99273 -233.350029 
L 472.69577 -233.791521 
L 474.39881 -233.895293 
L 476.10185 -233.164879 
L 477.80489 -231.770312 
L 479.50793 -230.148848 
L 481.21097 -229.086531 
L 482.91401 -228.307594 
L 484.61705 -227.791914 
L 486.32009 -226.750592 
L 488.02313 -224.482083 
L 489.72617 -221.459021 
L 491.42921 -217.901186 
L 493.13225 -214.884668 
L 494.83529 -213.886321 
L 496.538331 -214.899237 
L 498.241371 -217.807824 
L 499.944411 -221.097175 
L 501.647451 -223.715451 
L 503.350491 -224.777286 
L 505.053531 -224.479518 
L 506.756571 -223.057162 
L 508.459611 -221.586107 
L 510.162651 -220.544085 
L 511.865691 -219.85783 
L 513.568731 -219.23077 
L 515.271771 -217.90636 
L 516.974811 -216.256932 
L 518.677851 -214.714146 
L 520.380891 -213.434951 
L 522.083932 -212.556116 
L 523.786972 -211.756538 
L 525.490012 -211.784624 
L 527.193052 -212.920698 
L 528.896092 -215.510259 
L 530.599132 -218.855785 
L 532.302172 -221.58966 
L 534.005212 -221.449383 
L 535.708252 -217.801114 
L 537.411292 -211.208149 
L 539.114332 -203.978249 
L 540.817372 -199.368176 
L 542.520412 -199.010263 
L 544.223452 -202.357558 
L 545.926492 -206.532421 
L 547.629533 -207.987999 
L 549.332573 -204.657261 
L 551.035613 -197.515808 
L 552.738653 -188.913622 
L 554.441693 -182.427609 
L 556.144733 -179.861667 
L 557.847773 -181.097861 
L 559.550813 -184.275163 
L 561.253853 -187.789108 
L 561.253853 -196.185367 
L 561.253853 -196.185367 
L 559.550813 -192.665643 
L 557.847773 -189.294535 
L 556.144733 -188.000328 
L 554.441693 -190.73564 
L 552.738653 -197.380412 
L 551.035613 -206.118407 
L 549.332573 -213.524693 
L 547.629533 -216.991789 
L 545.926492 -215.694266 
L 544.223452 -211.576304 
L 542.520412 -208.239255 
L 540.817372 -208.51062 
L 539.114332 -213.001157 
L 537.411292 -220.056459 
L 535.708252 -226.46242 
L 534.005212 -229.819004 
L 532.302172 -229.730125 
L 530.599132 -227.173745 
L 528.896092 -224.086086 
L 527.193052 -221.693108 
L 525.490012 -220.731322 
L 523.786972 -220.563051 
L 522.083932 -220.799629 
L 520.380891 -221.524473 
L 518.677851 -222.802167 
L 516.974811 -224.557453 
L 515.271771 -226.414476 
L 513.568731 -227.738895 
L 511.865691 -228.538033 
L 510.162651 -228.848675 
L 508.459611 -229.628762 
L 506.756571 -231.04466 
L 505.053531 -232.616776 
L 503.350491 -233.402036 
L 501.647451 -232.483147 
L 499.944411 -229.787494 
L 498.241371 -226.282609 
L 496.538331 -223.206787 
L 494.83529 -222.068311 
L 493.13225 -223.194817 
L 491.42921 -225.981706 
L 489.72617 -229.583388 
L 488.02313 -232.832682 
L 486.32009 -235.090824 
L 484.61705 -236.585718 
L 482.91401 -237.408104 
L 481.21097 -238.331727 
L 479.50793 -239.240776 
L 477.80489 -240.309226 
L 476.10185 -241.337753 
L 474.39881 -241.833002 
L 472.69577 -241.876176 
L 470.99273 -241.792549 
L 469.289689 -242.669457 
L 467.586649 -245.486475 
L 465.883609 -250.769501 
L 464.180569 -257.481289 
L 462.477529 -263.18834 
L 460.774489 -266.273234 
L 459.071449 -266.055544 
L 457.368409 -263.735624 
L 455.665369 -261.100978 
L 453.962329 -260.071096 
L 452.259289 -261.618222 
L 450.556249 -265.433238 
L 448.853209 -269.922642 
L 447.150169 -273.265471 
L 445.447129 -275.172143 
L 443.744088 -276.150706 
L 442.041048 -276.548971 
L 440.338008 -277.408752 
L 438.634968 -279.052501 
L 436.931928 -281.179691 
L 435.228888 -283.47674 
L 433.525848 -285.514941 
L 431.822808 -287.540166 
L 430.119768 -289.444054 
L 428.416728 -291.166403 
L 426.713688 -292.046672 
L 425.010648 -291.813593 
L 423.307608 -290.418032 
L 421.604568 -288.71188 
L 419.901528 -287.642702 
L 418.198487 -288.062052 
L 416.495447 -290.163344 
L 414.792407 -293.435864 
L 413.089367 -297.505971 
L 411.386327 -301.698987 
L 409.683287 -305.710819 
L 407.980247 -309.43618 
L 406.277207 -312.555987 
L 404.574167 -314.560875 
L 402.871127 -314.757149 
L 401.168087 -313.315876 
L 399.465047 -311.004179 
L 397.762007 -309.40727 
L 396.058967 -309.115118 
L 394.355927 -310.314094 
L 392.652886 -311.908055 
L 390.949846 -312.877489 
L 389.246806 -312.42539 
L 387.543766 -310.89655 
L 385.840726 -308.701035 
L 384.137686 -306.968699 
L 382.434646 -306.087588 
L 380.731606 -305.676343 
L 379.028566 -304.942264 
L 377.325526 -303.414395 
L 375.622486 -301.148661 
L 373.919446 -298.633698 
L 372.216406 -296.654871 
L 370.513366 -295.539908 
L 368.810326 -295.558688 
L 367.107285 -295.935013 
L 365.404245 -296.697447 
L 363.701205 -297.845994 
L 361.998165 -299.944958 
L 360.295125 -303.238113 
L 358.592085 -306.695129 
L 356.889045 -308.754832 
L 355.186005 -308.342103 
L 353.482965 -304.880404 
L 351.779925 -299.847521 
L 350.076885 -296.284046 
L 348.373845 -296.517387 
L 346.670805 -301.190641 
L 344.967765 -307.987311 
L 343.264724 -313.118593 
L 341.561684 -313.843532 
L 339.858644 -309.799082 
L 338.155604 -303.248631 
L 336.452564 -298.356576 
L 334.749524 -298.028158 
L 333.046484 -302.463417 
L 331.343444 -308.266557 
L 329.640404 -311.211729 
L 327.937364 -308.22205 
L 326.234324 -300.267808 
L 324.531284 -290.699929 
L 322.828244 -283.985864 
L 321.125204 -282.916506 
L 319.422164 -287.324762 
L 317.719123 -294.771101 
L 316.016083 -301.866465 
L 314.313043 -306.612484 
L 312.610003 -308.561248 
L 310.906963 -308.92811 
L 309.203923 -308.909763 
L 307.500883 -309.119137 
L 305.797843 -310.133529 
L 304.094803 -312.045982 
L 302.391763 -315.069502 
L 300.688723 -318.796156 
L 298.985683 -322.097495 
L 297.282643 -323.411932 
L 295.579603 -320.969904 
L 293.876563 -315.358472 
L 292.173522 -308.517573 
L 290.470482 -303.977386 
L 288.767442 -304.119863 
L 287.064402 -308.738827 
L 285.361362 -314.407894 
L 283.658322 -317.221464 
L 281.955282 -315.248653 
L 280.252242 -309.776485 
L 278.549202 -304.569 
L 276.846162 -303.855443 
L 275.143122 -309.026341 
L 273.440082 -317.847598 
L 271.737042 -325.56165 
L 270.034002 -328.32061 
L 268.330962 -325.139174 
L 266.627921 -318.822729 
L 264.924881 -313.204913 
L 263.221841 -310.607138 
L 261.518801 -310.844957 
L 259.815761 -310.77992 
L 258.112721 -308.463956 
L 256.409681 -303.908218 
L 254.706641 -299.315007 
L 253.003601 -297.828729 
L 251.300561 -300.63644 
L 249.597521 -307.068298 
L 247.894481 -314.110243 
L 246.191441 -319.385718 
L 244.488401 -321.766282 
L 242.785361 -322.265147 
L 241.08232 -323.229965 
L 239.37928 -325.963024 
L 237.67624 -330.514105 
L 235.9732 -335.465008 
L 234.27016 -338.490552 
L 232.56712 -338.769661 
L 230.86408 -336.316648 
L 229.16104 -332.510183 
L 227.458 -328.846411 
L 225.75496 -326.101335 
L 224.05192 -324.999084 
L 222.34888 -324.514248 
L 220.64584 -323.32094 
L 218.9428 -319.713066 
L 217.23976 -313.147886 
L 215.536719 -304.161173 
L 213.833679 -293.556466 
L 212.130639 -283.52005 
L 210.427599 -275.71683 
L 208.724559 -271.278433 
L 207.021519 -270.33603 
L 205.318479 -271.886012 
L 203.615439 -274.543644 
L 201.912399 -276.698781 
L 200.209359 -278.490362 
L 198.506319 -281.411656 
L 196.803279 -286.835021 
L 195.100239 -294.942048 
L 193.397199 -306.095211 
L 191.694159 -320.270274 
L 189.991118 -336.053495 
L 188.288078 -351.52613 
L 186.585038 -363.769738 
L 184.881998 -370.873289 
L 183.178958 -372.613849 
L 181.475918 -369.049347 
L 179.772878 -361.09571 
L 178.069838 -349.694831 
L 176.366798 -336.605221 
L 174.663758 -322.371063 
L 172.960718 -306.820535 
L 171.257678 -289.04389 
L 169.554638 -268.592431 
L 167.851598 -247.149451 
L 166.148558 -226.909096 
L 164.445517 -210.594989 
L 162.742477 -199.7622 
L 161.039437 -194.631357 
L 159.336397 -192.451576 
L 157.633357 -190.574841 
L 155.930317 -187.421676 
L 154.227277 -183.647417 
L 152.524237 -181.271486 
L 150.821197 -181.810773 
L 149.118157 -185.057184 
L 147.415117 -189.298229 
L 145.712077 -193.000698 
L 144.009037 -194.649915 
L 142.305997 -194.783402 
L 140.602957 -194.493994 
L 138.899916 -194.876127 
L 137.196876 -196.24786 
L 135.493836 -198.206456 
L 133.790796 -199.432553 
L 132.087756 -199.01598 
L 130.384716 -197.304292 
L 128.681676 -195.138383 
L 126.978636 -194.120685 
L 125.275596 -195.105236 
L 123.572556 -198.31858 
L 121.869516 -202.670324 
L 120.166476 -207.283193 
L 118.463436 -210.98172 
L 116.760396 -212.923641 
L 115.057356 -213.150526 
L 113.354315 -212.200998 
L 111.651275 -211.339695 
L 109.948235 -211.272923 
L 108.245195 -212.189204 
L 106.542155 -213.465988 
L 104.839115 -214.151642 
L 103.136075 -214.230644 
L 101.433035 -214.579754 
L 99.729995 -215.824401 
L 98.026955 -217.586706 
L 96.323915 -219.064864 
L 94.620875 -220.386491 
L 92.917835 -220.689626 
L 91.214795 -219.461222 
L 89.511755 -217.373825 
L 87.808714 -216.662287 
L 86.105674 -217.723112 
L 84.402634 -220.613458 
L 82.699594 -223.915935 
L 80.996554 -226.284988 
L 79.293514 -227.584929 
L 77.590474 -227.92625 
L 75.887434 -228.721382 
L 74.184394 -230.572259 
L 72.481354 -233.37454 
L 70.778314 -236.638472 
L 69.075274 -239.184109 
L 67.372234 -240.022246 
L 65.669194 -238.688939 
L 63.966154 -236.042822 
L 62.263113 -234.09993 
L 60.560073 -233.894586 
L 58.857033 -235.600957 
L 57.153993 -238.67816 
L 55.450953 -241.761346 
L 53.747913 -243.249469 
L 52.044873 -242.249423 
L 50.341833 -239.904533 
L 48.638793 -238.210719 
L 46.935753 -239.263013 
L 45.232713 -244.56989 
L 43.529673 -253.141621 
L 41.826633 -262.224206 
L 40.123593 -268.265619 
L 38.420552 -269.536884 
z
" style="stroke: #ff7f0e; stroke-opacity: 0.3"/>
    </defs>
    <g>
     <use xlink:href="#mbb9e119446" x="0" y="432" style="fill: #ff7f0e; fill-opacity: 0.3; stroke: #ff7f0e; stroke-opacity: 0.3"/>
    </g>
   </g>
   <g id="line2d_21">
    <path d="M 38.420552 176.410581 
L 41.826633 190.592806 
L 43.529673 194.473448 
L 45.232713 193.669106 
L 48.638793 184.71134 
L 50.341833 183.795248 
L 52.044873 187.947051 
L 55.450953 202.133156 
L 57.153993 205.817344 
L 58.857033 206.217517 
L 62.263113 204.232448 
L 63.966154 203.064225 
L 65.669194 201.335184 
L 67.372234 198.19467 
L 69.075274 194.203647 
L 70.778314 191.647932 
L 72.481354 192.967192 
L 74.184394 199.304835 
L 77.590474 217.270678 
L 79.293514 223.09864 
L 80.996554 224.607905 
L 82.699594 223.081993 
L 86.105674 217.921371 
L 87.808714 214.980875 
L 89.511755 210.93365 
L 92.917835 200.536233 
L 94.620875 197.637869 
L 96.323915 198.749845 
L 98.026955 204.076085 
L 99.729995 212.398746 
L 101.433035 221.886802 
L 103.136075 230.163932 
L 104.839115 234.936632 
L 106.542155 235.112617 
L 108.245195 230.377392 
L 109.948235 221.840108 
L 111.651275 212.250173 
L 113.354315 205.541025 
L 115.057356 205.180035 
L 116.760396 211.312413 
L 118.463436 220.382153 
L 120.166476 227.787383 
L 121.869516 230.264634 
L 123.572556 227.681075 
L 125.275596 223.839401 
L 126.978636 222.856507 
L 128.681676 226.71273 
L 130.384716 233.483424 
L 132.087756 238.403809 
L 133.790796 237.230096 
L 135.493836 229.609258 
L 137.196876 219.310153 
L 138.899916 211.814779 
L 140.602957 211.199166 
L 142.305997 217.762517 
L 144.009037 227.541061 
L 145.712077 235.331938 
L 147.415117 237.520554 
L 149.118157 234.329455 
L 152.524237 221.46489 
L 154.227277 218.304443 
L 155.930317 219.810338 
L 159.336397 229.698097 
L 161.039437 230.95262 
L 162.742477 225.763879 
L 164.445517 213.047201 
L 166.148558 194.351784 
L 171.257678 129.389547 
L 172.960718 108.314018 
L 178.069838 40.627922 
L 179.772878 27.518628 
L 181.475918 26.295672 
L 183.178958 36.736734 
L 184.881998 54.524969 
L 186.585038 74.028431 
L 188.288078 91.236013 
L 189.991118 104.762396 
L 191.694159 115.579964 
L 196.803279 145.217659 
L 198.506319 150.095894 
L 200.209359 149.141324 
L 203.615439 139.211907 
L 205.318479 135.774092 
L 207.021519 132.829972 
L 208.724559 128.568565 
L 210.427599 120.891207 
L 212.130639 110.074379 
L 213.833679 98.349517 
L 215.536719 89.513786 
L 217.23976 86.442403 
L 218.9428 88.697867 
L 220.64584 92.520665 
L 222.34888 93.237735 
L 224.05192 88.61733 
L 225.75496 80.425211 
L 227.458 72.82923 
L 229.16104 69.825358 
L 230.86408 73.142807 
L 232.56712 81.938699 
L 235.9732 103.548611 
L 237.67624 111.455247 
L 239.37928 116.142185 
L 241.08232 118.361482 
L 242.785361 119.358478 
L 244.488401 120.201941 
L 247.894481 122.710627 
L 249.597521 122.723461 
L 251.300561 121.201705 
L 253.003601 118.261205 
L 259.815761 103.202982 
L 261.518801 98.05688 
L 263.221841 90.613749 
L 264.924881 81.608545 
L 266.627921 73.262013 
L 268.330962 68.885942 
L 270.034002 70.390255 
L 271.737042 77.277418 
L 273.440082 86.407447 
L 275.143122 93.240408 
L 276.846162 95.83707 
L 278.549202 95.137155 
L 280.252242 94.285086 
L 281.955282 95.665451 
L 283.658322 99.378332 
L 285.361362 103.662402 
L 287.064402 106.594907 
L 288.767442 107.837586 
L 290.470482 108.906986 
L 292.173522 112.082792 
L 293.876563 117.573692 
L 295.579603 123.555315 
L 297.282643 127.007079 
L 298.985683 126.794183 
L 300.688723 124.451984 
L 302.391763 122.441045 
L 304.094803 122.453094 
L 305.797843 123.728151 
L 307.500883 123.669848 
L 309.203923 120.28936 
L 312.610003 106.992768 
L 314.313043 103.389183 
L 316.016083 103.6994 
L 317.719123 105.918641 
L 319.422164 107.009481 
L 321.125204 105.180396 
L 322.828244 101.518577 
L 324.531284 98.676974 
L 326.234324 98.064032 
L 327.937364 97.890807 
L 329.640404 94.370325 
L 331.343444 84.692659 
L 334.749524 55.538857 
L 336.452564 45.835321 
L 338.155604 43.496591 
L 341.561684 48.952388 
L 343.264724 48.183588 
L 344.967765 43.676597 
L 346.670805 38.591029 
L 348.373845 36.083743 
L 350.076885 36.505076 
L 351.779925 37.646662 
L 353.482965 36.90591 
L 355.186005 33.335562 
L 356.889045 29.214804 
L 358.592085 28.187136 
L 360.295125 32.434568 
L 363.701205 49.020695 
L 365.404245 53.332822 
L 367.107285 51.698625 
L 368.810326 45.202512 
L 370.513366 37.009163 
L 372.216406 30.249456 
L 373.919446 26.567356 
L 375.622486 26.288359 
L 377.325526 28.081402 
L 379.028566 30.13155 
L 380.731606 31.103043 
L 382.434646 31.343697 
L 384.137686 32.320558 
L 385.840726 34.63076 
L 387.543766 38.23269 
L 390.949846 47.109912 
L 392.652886 50.402194 
L 394.355927 52.371765 
L 396.058967 54.135161 
L 397.762007 57.367249 
L 399.465047 62.752816 
L 402.871127 76.332176 
L 404.574167 80.625712 
L 406.277207 81.981274 
L 407.980247 81.881125 
L 409.683287 82.756747 
L 411.386327 86.306635 
L 413.089367 92.346817 
L 414.792407 98.927751 
L 416.495447 103.336588 
L 418.198487 104.861178 
L 419.901528 104.985991 
L 421.604568 105.967911 
L 423.307608 109.55618 
L 425.010648 115.59135 
L 426.713688 122.131735 
L 428.416728 127.200557 
L 430.119768 129.345839 
L 431.822808 129.314964 
L 433.525848 129.476518 
L 435.228888 132.058627 
L 436.931928 138.084668 
L 440.338008 156.329026 
L 442.041048 163.843968 
L 443.744088 168.076461 
L 445.447129 168.566822 
L 447.150169 166.056989 
L 450.556249 158.348137 
L 452.259289 155.558658 
L 453.962329 153.880956 
L 455.665369 153.164118 
L 457.368409 153.347996 
L 459.071449 154.446796 
L 460.774489 156.402526 
L 462.477529 159.186012 
L 465.883609 165.616421 
L 470.99273 174.181733 
L 472.69577 177.584725 
L 476.10185 186.121915 
L 477.80489 189.69366 
L 479.50793 191.813885 
L 481.21097 192.312284 
L 482.91401 191.714638 
L 484.61705 189.969536 
L 486.32009 186.709578 
L 488.02313 182.130871 
L 489.72617 176.87977 
L 491.42921 172.34051 
L 493.13225 170.121546 
L 494.83529 171.480191 
L 496.538331 176.773154 
L 498.241371 185.401618 
L 499.944411 194.951909 
L 501.647451 202.673999 
L 503.350491 206.944636 
L 505.053531 207.632599 
L 506.756571 206.425239 
L 508.459611 205.897 
L 510.162651 207.183347 
L 511.865691 209.125565 
L 513.568731 209.561233 
L 515.271771 206.264814 
L 516.974811 199.096577 
L 518.677851 191.189014 
L 520.380891 186.424604 
L 522.083932 187.682913 
L 523.786972 194.401042 
L 525.490012 202.587158 
L 527.193052 207.962328 
L 528.896092 208.053652 
L 530.599132 204.578716 
L 532.302172 201.447733 
L 534.005212 201.965739 
L 535.708252 206.195591 
L 537.411292 211.505614 
L 539.114332 214.416364 
L 540.817372 213.157195 
L 542.520412 209.477065 
L 544.223452 206.96429 
L 545.926492 208.91046 
L 547.629533 215.671255 
L 549.332573 224.688762 
L 551.035613 232.29026 
L 552.738653 235.426789 
L 554.441693 233.540219 
L 556.144733 228.727669 
L 557.847773 224.551763 
L 559.550813 223.904518 
L 561.253853 227.355091 
L 561.253853 227.355091 
" style="fill: none; stroke: #1f77b4; stroke-width: 1.5; stroke-linecap: square"/>
   </g>
   <g id="line2d_22">
    <path d="M 38.420552 165.617655 
L 40.123593 166.679317 
L 41.826633 172.436944 
L 45.232713 189.971751 
L 46.935753 195.335386 
L 48.638793 196.421675 
L 50.341833 194.632586 
L 52.044873 192.281731 
L 53.747913 191.385606 
L 55.450953 192.745186 
L 58.857033 198.761034 
L 60.560073 200.580592 
L 62.263113 200.471683 
L 63.966154 198.528868 
L 65.669194 196.041744 
L 67.372234 194.578032 
L 69.075274 195.256401 
L 70.778314 197.814936 
L 72.481354 201.070974 
L 74.184394 203.897621 
L 75.887434 205.758528 
L 77.590474 206.560781 
L 79.293514 206.93686 
L 80.996554 208.071515 
L 82.699594 210.559386 
L 84.402634 213.906425 
L 86.105674 216.903792 
L 87.808714 218.092031 
L 89.511755 217.350439 
L 91.214795 215.418639 
L 92.917835 213.937556 
L 94.620875 213.957176 
L 96.323915 215.144397 
L 99.729995 218.683336 
L 101.433035 219.796798 
L 103.136075 220.110119 
L 104.839115 220.261652 
L 106.542155 220.890037 
L 108.245195 222.0976 
L 109.948235 223.052193 
L 111.651275 223.072266 
L 115.057356 221.304434 
L 116.760396 221.491985 
L 118.463436 223.483309 
L 120.166476 227.307685 
L 123.572556 236.700995 
L 125.275596 239.804032 
L 126.978636 240.794775 
L 128.681676 239.725845 
L 130.384716 237.661885 
L 132.087756 235.975424 
L 133.790796 235.706673 
L 135.493836 236.9377 
L 137.196876 238.941673 
L 138.899916 240.365335 
L 140.602957 240.767705 
L 142.305997 240.560874 
L 144.009037 240.806875 
L 145.712077 242.708789 
L 147.415117 246.416381 
L 149.118157 250.655771 
L 150.821197 253.661528 
L 152.524237 254.108778 
L 154.227277 251.7915 
L 155.930317 248.131925 
L 157.633357 244.911 
L 161.039437 240.635794 
L 162.742477 235.546871 
L 164.445517 224.949546 
L 166.148558 208.626551 
L 169.554638 167.071205 
L 171.257678 146.616995 
L 172.960718 128.69272 
L 174.663758 113.119823 
L 176.366798 99.053533 
L 178.069838 85.993262 
L 179.772878 74.777127 
L 181.475918 66.823465 
L 183.178958 63.328656 
L 184.881998 64.909065 
L 186.585038 71.949744 
L 188.288078 84.328949 
L 193.397199 129.692099 
L 195.100239 140.781821 
L 196.803279 148.975337 
L 198.506319 154.402679 
L 200.209359 157.342809 
L 201.912399 159.018435 
L 203.615439 161.078269 
L 205.318479 163.703044 
L 207.021519 165.324101 
L 208.724559 164.45863 
L 210.427599 160.05538 
L 212.130639 152.245734 
L 217.23976 122.172072 
L 218.9428 115.729533 
L 220.64584 112.298347 
L 222.34888 111.234284 
L 224.05192 110.934462 
L 225.75496 109.899349 
L 227.458 107.305937 
L 230.86408 99.53009 
L 232.56712 97.071601 
L 234.27016 97.374225 
L 235.9732 100.561661 
L 239.37928 110.290776 
L 241.08232 113.026745 
L 242.785361 113.771954 
L 244.488401 114.17411 
L 246.191441 116.491775 
L 247.894481 121.788375 
L 249.597521 128.986259 
L 251.300561 135.390813 
L 253.003601 138.293453 
L 254.706641 136.736246 
L 258.112721 127.703707 
L 259.815761 125.430328 
L 261.518801 125.599145 
L 263.221841 125.886323 
L 264.924881 123.489004 
L 266.627921 117.852859 
L 268.330962 111.459598 
L 270.034002 108.342262 
L 271.737042 111.097712 
L 273.440082 118.836809 
L 275.143122 127.655772 
L 276.846162 132.841068 
L 278.549202 132.155042 
L 280.252242 126.986312 
L 281.955282 121.345873 
L 283.658322 119.347917 
L 285.361362 122.193927 
L 287.064402 127.910875 
L 288.767442 132.586031 
L 290.470482 132.950953 
L 292.173522 128.563575 
L 293.876563 121.798946 
L 295.579603 116.044287 
L 297.282643 113.661649 
L 298.985683 114.790807 
L 300.688723 117.943932 
L 302.391763 121.450609 
L 304.094803 124.304627 
L 305.797843 126.231858 
L 307.500883 127.376817 
L 309.203923 127.964867 
L 310.906963 128.178145 
L 312.610003 128.5749 
L 314.313043 130.545924 
L 316.016083 134.963081 
L 317.719123 141.722646 
L 319.422164 148.988501 
L 321.125204 153.496973 
L 322.828244 152.640655 
L 324.531284 146.090574 
L 326.234324 136.610596 
L 327.937364 128.461097 
L 329.640404 125.360785 
L 331.343444 128.185533 
L 333.046484 134.068217 
L 334.749524 138.631183 
L 336.452564 138.536535 
L 338.155604 133.652452 
L 339.858644 126.985161 
L 341.561684 122.661473 
L 343.264724 123.10106 
L 344.967765 128.103622 
L 346.670805 134.821782 
L 348.373845 139.503318 
L 350.076885 139.892175 
L 351.779925 136.483226 
L 353.482965 131.655924 
L 355.186005 128.185568 
L 356.889045 127.593693 
L 358.592085 129.713657 
L 361.998165 136.62341 
L 363.701205 138.883263 
L 365.404245 140.051151 
L 367.107285 140.710294 
L 368.810326 141.078682 
L 370.513366 140.922711 
L 372.216406 139.810305 
L 373.919446 137.745989 
L 375.622486 135.076627 
L 377.325526 132.699797 
L 379.028566 131.229477 
L 380.731606 130.693945 
L 382.434646 130.439915 
L 384.137686 129.690739 
L 385.840726 128.115519 
L 387.543766 126.07456 
L 389.246806 124.531259 
L 390.949846 124.201148 
L 392.652886 125.226056 
L 394.355927 126.81024 
L 396.058967 127.759696 
L 397.762007 127.344558 
L 399.465047 125.614344 
L 401.168087 123.404917 
L 402.871127 121.992285 
L 404.574167 122.220023 
L 406.277207 124.158783 
L 407.980247 127.277452 
L 411.386327 134.850409 
L 414.792407 142.787623 
L 416.495447 146.194587 
L 418.198487 148.210398 
L 419.901528 148.54253 
L 421.604568 147.485567 
L 423.307608 145.831206 
L 425.010648 144.491184 
L 426.713688 144.1595 
L 428.416728 145.078046 
L 430.119768 146.898324 
L 438.634968 157.39483 
L 440.338008 159.026286 
L 442.041048 159.955744 
L 443.744088 160.404831 
L 445.447129 161.170138 
L 447.150169 163.064107 
L 448.853209 166.462122 
L 450.556249 170.839413 
L 452.259289 174.688036 
L 453.962329 176.39922 
L 455.665369 175.43377 
L 457.368409 172.663689 
L 459.071449 170.110177 
L 460.774489 169.810864 
L 462.477529 172.823836 
L 464.180569 178.609067 
L 465.883609 185.367849 
L 467.586649 190.803331 
L 469.289689 193.700089 
L 470.99273 194.468769 
L 472.69577 194.245837 
L 474.39881 194.138005 
L 476.10185 194.752074 
L 477.80489 195.969584 
L 479.50793 197.33877 
L 481.21097 198.371409 
L 484.61705 199.805043 
L 486.32009 201.036858 
L 488.02313 203.285752 
L 489.72617 206.500637 
L 491.42921 210.053235 
L 493.13225 212.921392 
L 494.83529 214.029624 
L 496.538331 212.975838 
L 498.241371 210.070529 
L 499.944411 206.612757 
L 501.647451 203.95424 
L 503.350491 202.97039 
L 505.053531 203.625608 
L 508.459611 206.576648 
L 510.162651 207.400781 
L 511.865691 207.860962 
L 513.568731 208.485819 
L 515.271771 209.727996 
L 518.677851 213.097055 
L 520.380891 214.427077 
L 522.083932 215.268806 
L 523.786972 215.759388 
L 525.490012 215.649712 
L 527.193052 214.602677 
L 528.896092 212.176602 
L 530.599132 208.982087 
L 532.302172 206.3737 
L 534.005212 206.292803 
L 535.708252 209.798521 
L 537.411292 216.32392 
L 539.114332 223.44468 
L 540.817372 228.009028 
L 542.520412 228.259595 
L 544.223452 224.902307 
L 545.926492 220.793153 
L 547.629533 219.419211 
L 549.332573 222.811437 
L 551.035613 230.173888 
L 552.738653 238.728663 
L 554.441693 245.278035 
L 556.144733 247.917978 
L 557.847773 246.684541 
L 561.253853 239.890999 
L 561.253853 239.890999 
" style="fill: none; stroke: #ff7f0e; stroke-width: 1.5; stroke-linecap: square"/>
   </g>
  </g>
  <g id="axes_2">
   <g id="PathCollection_1">
    <defs>
     <path id="C0_0_6943f6dcf2" d="M 0 1.118034 
C 0.296506 1.118034 0.580908 1.000231 0.790569 0.790569 
C 1.000231 0.580908 1.118034 0.296506 1.118034 -0 
C 1.118034 -0.296506 1.000231 -0.580908 0.790569 -0.790569 
C 0.580908 -1.000231 0.296506 -1.118034 0 -1.118034 
C -0.296506 -1.118034 -0.580908 -1.000231 -0.790569 -0.790569 
C -1.000231 -0.580908 -1.118034 -0.296506 -1.118034 0 
C -1.118034 0.296506 -1.000231 0.580908 -0.790569 0.790569 
C -0.580908 1.000231 -0.296506 1.118034 0 1.118034 
z
"/>
    </defs>
    <g clip-path="url(#pba50554e14)">
     <use xlink:href="#C0_0_6943f6dcf2" x="509.08702" y="76.414332" style="stroke: #000000"/>
    </g>
    <g clip-path="url(#pba50554e14)">
     <use xlink:href="#C0_0_6943f6dcf2" x="527.444646" y="76.964593" style="stroke: #000000"/>
    </g>
    <g clip-path="url(#pba50554e14)">
     <use xlink:href="#C0_0_6943f6dcf2" x="491.303194" y="76.941291" style="stroke: #000000"/>
    </g>
    <g clip-path="url(#pba50554e14)">
     <use xlink:href="#C0_0_6943f6dcf2" x="494.011369" y="86.069929" style="stroke: #000000"/>
    </g>
    <g clip-path="url(#pba50554e14)">
     <use xlink:href="#C0_0_6943f6dcf2" x="524.543497" y="86.079903" style="stroke: #000000"/>
    </g>
    <g clip-path="url(#pba50554e14)">
     <use xlink:href="#C0_0_6943f6dcf2" x="509.029741" y="85.802272" style="stroke: #000000"/>
    </g>
   </g>
   <g id="matplotlib.axis_3"/>
   <g id="matplotlib.axis_4"/>
   <g id="line2d_23">
    <path d="M 548.859194 73.63672 
L 548.781507 71.164689 
L 548.548754 68.702415 
L 548.161852 66.259613 
L 547.622329 63.845926 
L 546.932314 61.470879 
L 546.09453 59.143845 
L 545.112284 56.874007 
L 543.989451 54.670325 
L 542.730464 52.541494 
L 541.340291 50.495916 
L 539.824418 48.541664 
L 538.188828 46.686451 
L 536.439975 44.937599 
L 534.584762 43.302008 
L 532.630511 41.786136 
L 530.584933 40.395962 
L 528.456102 39.136975 
L 526.252419 38.014143 
L 523.982582 37.031896 
L 521.655547 36.194112 
L 519.2805 35.504097 
L 516.866813 34.964574 
L 514.424012 34.577673 
L 511.961737 34.344919 
L 509.489707 34.267233 
L 507.017676 34.344919 
L 504.555402 34.577673 
L 502.1126 34.964574 
L 499.698913 35.504097 
L 497.323866 36.194112 
L 494.996832 37.031896 
L 492.726994 38.014143 
L 490.523312 39.136975 
L 488.394481 40.395962 
L 486.348903 41.786136 
L 484.394651 43.302008 
L 482.539438 44.937599 
L 480.790586 46.686451 
L 479.154995 48.541664 
L 477.639123 50.495916 
L 476.248949 52.541494 
L 474.989962 54.670325 
L 473.86713 56.874007 
L 472.884883 59.143845 
L 472.047099 61.470879 
L 471.357084 63.845926 
L 470.817561 66.259613 
L 470.43066 68.702415 
L 470.197906 71.164689 
L 470.12022 73.63672 
L 470.197906 76.10875 
L 470.43066 78.571025 
L 470.817561 81.013826 
L 471.357084 83.427513 
L 472.047099 85.80256 
L 472.884883 88.129595 
L 473.86713 90.399432 
L 474.989962 92.603115 
L 476.248949 94.731946 
L 477.639123 96.777524 
L 479.154995 98.731775 
L 480.790586 100.586988 
L 482.539438 102.335841 
L 484.394651 103.971431 
L 486.348903 105.487304 
L 488.394481 106.877477 
L 490.523312 108.136464 
L 492.726994 109.259297 
L 494.996832 110.241543 
L 497.323866 111.079327 
L 499.698913 111.769342 
L 502.1126 112.308865 
L 504.555402 112.695767 
L 507.017676 112.92852 
L 509.489707 113.006207 
L 511.961737 112.92852 
L 514.424012 112.695767 
L 516.866813 112.308865 
L 519.2805 111.769342 
L 521.655547 111.079327 
L 523.982582 110.241543 
L 526.252419 109.259297 
L 528.456102 108.136464 
L 530.584933 106.877477 
L 532.630511 105.487304 
L 534.584762 103.971431 
L 536.439975 102.335841 
L 538.188828 100.586988 
L 539.824418 98.731775 
L 541.340291 96.777524 
L 542.730464 94.731946 
L 543.989451 92.603115 
L 545.112284 90.399432 
L 546.09453 88.129595 
L 546.932314 85.80256 
L 547.622329 83.427513 
L 548.161852 81.013826 
L 548.548754 78.571025 
L 548.781507 76.10875 
L 548.859194 73.63672 
" style="fill: none; stroke: #000000; stroke-linecap: square"/>
   </g>
   <g id="line2d_24">
    <path d="M 501.244181 35.140385 
L 509.489707 28.361809 
L 517.735233 35.140385 
" style="fill: none; stroke: #000000; stroke-linecap: square"/>
   </g>
   <g id="line2d_25">
    <path d="M 470.356436 69.266707 
L 469.33283 67.534449 
L 468.702918 67.471458 
L 467.765924 67.762792 
L 466.821057 69.266707 
L 466.970661 74.069784 
L 466.419488 80.975192 
L 467.600572 83.975147 
L 469.33283 84.534194 
L 470.986348 83.077523 
" style="fill: none; stroke: #000000; stroke-linecap: square"/>
   </g>
   <g id="line2d_26">
    <path d="M 548.622977 69.266707 
L 549.646584 67.534449 
L 550.276495 67.471458 
L 551.213489 67.762792 
L 552.158357 69.266707 
L 552.008753 74.069784 
L 552.559926 80.975192 
L 551.378841 83.975147 
L 549.646584 84.534194 
L 547.993065 83.077523 
" style="fill: none; stroke: #000000; stroke-linecap: square"/>
   </g>
  </g>
 </g>
 <defs>
  <clipPath id="pa5110e7a65">
   <rect x="38.420552" y="18.118365" width="523.446395" height="380.525145"/>
  </clipPath>
  <clipPath id="pba50554e14">
   <rect x="462.112466" y="24.12959" width="94.754482" height="93.108837"/>
  </clipPath>
 </defs>
</svg>
