<?xml version="1.0" encoding="utf-8" standalone="no"?>
<!DOCTYPE svg PUBLIC "-//W3C//DTD SVG 1.1//EN"
  "http://www.w3.org/Graphics/SVG/1.1/DTD/svg11.dtd">
<svg xmlns:xlink="http://www.w3.org/1999/xlink" width="576pt" height="432pt" viewBox="0 0 576 432" xmlns="http://www.w3.org/2000/svg" version="1.1">
 <metadata>
  <rdf:RDF xmlns:dc="http://purl.org/dc/elements/1.1/" xmlns:cc="http://creativecommons.org/ns#" xmlns:rdf="http://www.w3.org/1999/02/22-rdf-syntax-ns#">
   <cc:Work>
    <dc:type rdf:resource="http://purl.org/dc/dcmitype/StillImage"/>
    <dc:date>2025-02-17T18:04:45.470978</dc:date>
    <dc:format>image/svg+xml</dc:format>
    <dc:creator>
     <cc:Agent>
      <dc:title>Matplotlib v3.10.0, https://matplotlib.org/</dc:title>
     </cc:Agent>
    </dc:creator>
   </cc:Work>
  </rdf:RDF>
 </metadata>
 <defs>
  <style type="text/css">*{stroke-linejoin: round; stroke-linecap: butt}</style>
 </defs>
 <g id="figure_1">
  <g id="patch_1">
   <path d="M 0 432 
L 576 432 
L 576 0 
L 0 0 
z
" style="fill: #ffffff"/>
  </g>
  <g id="axes_1">
   <g id="patch_2">
    <path d="M 44.783053 398.64351 
L 561.866947 398.64351 
L 561.866947 18.118365 
L 44.783053 18.118365 
L 44.783053 398.64351 
z
" style="fill: none; opacity: 0"/>
   </g>
   <g id="patch_3">
    <path d="M 44.783053 351.061883 
L 44.783053 65.699992 
" style="fill: none; stroke: #000000; stroke-width: 0.8; stroke-linejoin: miter; stroke-linecap: square"/>
   </g>
   <g id="LineCollection_1">
    <path d="M 195.789854 18.118365 
L 195.789854 398.64351 
" clip-path="url(#p48c5b491f1)" style="fill: none; stroke-dasharray: 3.7,1.6; stroke-dashoffset: 0; stroke: #000000"/>
    <path d="M 230.244168 18.118365 
L 230.244168 398.64351 
" clip-path="url(#p48c5b491f1)" style="fill: none; stroke-dasharray: 3.7,1.6; stroke-dashoffset: 0; stroke: #000000"/>
   </g>
   <g id="matplotlib.axis_1">
    <g id="xtick_1">
     <g id="line2d_1">
      <defs>
       <path id="m28007c4f0d" d="M 0 0 
L 0 3.5 
" style="stroke: #000000; stroke-width: 0.8"/>
      </defs>
      <g>
       <use xlink:href="#m28007c4f0d" x="45.052227" y="398.64351" style="stroke: #000000; stroke-width: 0.8"/>
      </g>
     </g>
     <g id="text_1">
      <!-- −0.20 -->
      <g transform="translate(29.729571 413.241947) scale(0.1 -0.1)">
       <defs>
        <path id="DejaVuSans-2212" d="M 678 2272 
L 4684 2272 
L 4684 1741 
L 678 1741 
L 678 2272 
z
" transform="scale(0.015625)"/>
        <path id="DejaVuSans-30" d="M 2034 4250 
Q 1547 4250 1301 3770 
Q 1056 3291 1056 2328 
Q 1056 1369 1301 889 
Q 1547 409 2034 409 
Q 2525 409 2770 889 
Q 3016 1369 3016 2328 
Q 3016 3291 2770 3770 
Q 2525 4250 2034 4250 
z
M 2034 4750 
Q 2819 4750 3233 4129 
Q 3647 3509 3647 2328 
Q 3647 1150 3233 529 
Q 2819 -91 2034 -91 
Q 1250 -91 836 529 
Q 422 1150 422 2328 
Q 422 3509 836 4129 
Q 1250 4750 2034 4750 
z
" transform="scale(0.015625)"/>
        <path id="DejaVuSans-2e" d="M 684 794 
L 1344 794 
L 1344 0 
L 684 0 
L 684 794 
z
" transform="scale(0.015625)"/>
        <path id="DejaVuSans-32" d="M 1228 531 
L 3431 531 
L 3431 0 
L 469 0 
L 469 531 
Q 828 903 1448 1529 
Q 2069 2156 2228 2338 
Q 2531 2678 2651 2914 
Q 2772 3150 2772 3378 
Q 2772 3750 2511 3984 
Q 2250 4219 1831 4219 
Q 1534 4219 1204 4116 
Q 875 4013 500 3803 
L 500 4441 
Q 881 4594 1212 4672 
Q 1544 4750 1819 4750 
Q 2544 4750 2975 4387 
Q 3406 4025 3406 3419 
Q 3406 3131 3298 2873 
Q 3191 2616 2906 2266 
Q 2828 2175 2409 1742 
Q 1991 1309 1228 531 
z
" transform="scale(0.015625)"/>
       </defs>
       <use xlink:href="#DejaVuSans-2212"/>
       <use xlink:href="#DejaVuSans-30" transform="translate(83.789062 0)"/>
       <use xlink:href="#DejaVuSans-2e" transform="translate(147.412109 0)"/>
       <use xlink:href="#DejaVuSans-32" transform="translate(179.199219 0)"/>
       <use xlink:href="#DejaVuSans-30" transform="translate(242.822266 0)"/>
      </g>
     </g>
    </g>
    <g id="xtick_2">
     <g id="line2d_2">
      <g>
       <use xlink:href="#m28007c4f0d" x="131.188014" y="398.64351" style="stroke: #000000; stroke-width: 0.8"/>
      </g>
     </g>
     <g id="text_2">
      <!-- 0.00 -->
      <g transform="translate(120.055201 413.241947) scale(0.1 -0.1)">
       <use xlink:href="#DejaVuSans-30"/>
       <use xlink:href="#DejaVuSans-2e" transform="translate(63.623047 0)"/>
       <use xlink:href="#DejaVuSans-30" transform="translate(95.410156 0)"/>
       <use xlink:href="#DejaVuSans-30" transform="translate(159.033203 0)"/>
      </g>
     </g>
    </g>
    <g id="xtick_3">
     <g id="line2d_3">
      <g>
       <use xlink:href="#m28007c4f0d" x="195.789854" y="398.64351" style="stroke: #000000; stroke-width: 0.8"/>
      </g>
     </g>
     <g id="text_3">
      <!-- 0.15 -->
      <g transform="translate(184.657041 413.241947) scale(0.1 -0.1)">
       <defs>
        <path id="DejaVuSans-31" d="M 794 531 
L 1825 531 
L 1825 4091 
L 703 3866 
L 703 4441 
L 1819 4666 
L 2450 4666 
L 2450 531 
L 3481 531 
L 3481 0 
L 794 0 
L 794 531 
z
" transform="scale(0.015625)"/>
        <path id="DejaVuSans-35" d="M 691 4666 
L 3169 4666 
L 3169 4134 
L 1269 4134 
L 1269 2991 
Q 1406 3038 1543 3061 
Q 1681 3084 1819 3084 
Q 2600 3084 3056 2656 
Q 3513 2228 3513 1497 
Q 3513 744 3044 326 
Q 2575 -91 1722 -91 
Q 1428 -91 1123 -41 
Q 819 9 494 109 
L 494 744 
Q 775 591 1075 516 
Q 1375 441 1709 441 
Q 2250 441 2565 725 
Q 2881 1009 2881 1497 
Q 2881 1984 2565 2268 
Q 2250 2553 1709 2553 
Q 1456 2553 1204 2497 
Q 953 2441 691 2322 
L 691 4666 
z
" transform="scale(0.015625)"/>
       </defs>
       <use xlink:href="#DejaVuSans-30"/>
       <use xlink:href="#DejaVuSans-2e" transform="translate(63.623047 0)"/>
       <use xlink:href="#DejaVuSans-31" transform="translate(95.410156 0)"/>
       <use xlink:href="#DejaVuSans-35" transform="translate(159.033203 0)"/>
      </g>
     </g>
    </g>
    <g id="xtick_4">
     <g id="line2d_4">
      <g>
       <use xlink:href="#m28007c4f0d" x="217.3238" y="398.64351" style="stroke: #000000; stroke-width: 0.8"/>
      </g>
     </g>
     <g id="text_4">
      <!-- 0.20 -->
      <g transform="translate(206.190988 413.241947) scale(0.1 -0.1)">
       <use xlink:href="#DejaVuSans-30"/>
       <use xlink:href="#DejaVuSans-2e" transform="translate(63.623047 0)"/>
       <use xlink:href="#DejaVuSans-32" transform="translate(95.410156 0)"/>
       <use xlink:href="#DejaVuSans-30" transform="translate(159.033203 0)"/>
      </g>
     </g>
    </g>
    <g id="xtick_5">
     <g id="line2d_5">
      <g>
       <use xlink:href="#m28007c4f0d" x="230.244168" y="398.64351" style="stroke: #000000; stroke-width: 0.8"/>
      </g>
     </g>
     <g id="text_5">
      <!-- 0.23 -->
      <g transform="translate(219.111356 413.241947) scale(0.1 -0.1)">
       <defs>
        <path id="DejaVuSans-33" d="M 2597 2516 
Q 3050 2419 3304 2112 
Q 3559 1806 3559 1356 
Q 3559 666 3084 287 
Q 2609 -91 1734 -91 
Q 1441 -91 1130 -33 
Q 819 25 488 141 
L 488 750 
Q 750 597 1062 519 
Q 1375 441 1716 441 
Q 2309 441 2620 675 
Q 2931 909 2931 1356 
Q 2931 1769 2642 2001 
Q 2353 2234 1838 2234 
L 1294 2234 
L 1294 2753 
L 1863 2753 
Q 2328 2753 2575 2939 
Q 2822 3125 2822 3475 
Q 2822 3834 2567 4026 
Q 2313 4219 1838 4219 
Q 1578 4219 1281 4162 
Q 984 4106 628 3988 
L 628 4550 
Q 988 4650 1302 4700 
Q 1616 4750 1894 4750 
Q 2613 4750 3031 4423 
Q 3450 4097 3450 3541 
Q 3450 3153 3228 2886 
Q 3006 2619 2597 2516 
z
" transform="scale(0.015625)"/>
       </defs>
       <use xlink:href="#DejaVuSans-30"/>
       <use xlink:href="#DejaVuSans-2e" transform="translate(63.623047 0)"/>
       <use xlink:href="#DejaVuSans-32" transform="translate(95.410156 0)"/>
       <use xlink:href="#DejaVuSans-33" transform="translate(159.033203 0)"/>
      </g>
     </g>
    </g>
    <g id="xtick_6">
     <g id="line2d_6">
      <g>
       <use xlink:href="#m28007c4f0d" x="303.459587" y="398.64351" style="stroke: #000000; stroke-width: 0.8"/>
      </g>
     </g>
     <g id="text_6">
      <!-- 0.40 -->
      <g transform="translate(292.326775 413.241947) scale(0.1 -0.1)">
       <defs>
        <path id="DejaVuSans-34" d="M 2419 4116 
L 825 1625 
L 2419 1625 
L 2419 4116 
z
M 2253 4666 
L 3047 4666 
L 3047 1625 
L 3713 1625 
L 3713 1100 
L 3047 1100 
L 3047 0 
L 2419 0 
L 2419 1100 
L 313 1100 
L 313 1709 
L 2253 4666 
z
" transform="scale(0.015625)"/>
       </defs>
       <use xlink:href="#DejaVuSans-30"/>
       <use xlink:href="#DejaVuSans-2e" transform="translate(63.623047 0)"/>
       <use xlink:href="#DejaVuSans-34" transform="translate(95.410156 0)"/>
       <use xlink:href="#DejaVuSans-30" transform="translate(159.033203 0)"/>
      </g>
     </g>
    </g>
    <g id="xtick_7">
     <g id="line2d_7">
      <g>
       <use xlink:href="#m28007c4f0d" x="389.595374" y="398.64351" style="stroke: #000000; stroke-width: 0.8"/>
      </g>
     </g>
     <g id="text_7">
      <!-- 0.60 -->
      <g transform="translate(378.462561 413.241947) scale(0.1 -0.1)">
       <defs>
        <path id="DejaVuSans-36" d="M 2113 2584 
Q 1688 2584 1439 2293 
Q 1191 2003 1191 1497 
Q 1191 994 1439 701 
Q 1688 409 2113 409 
Q 2538 409 2786 701 
Q 3034 994 3034 1497 
Q 3034 2003 2786 2293 
Q 2538 2584 2113 2584 
z
M 3366 4563 
L 3366 3988 
Q 3128 4100 2886 4159 
Q 2644 4219 2406 4219 
Q 1781 4219 1451 3797 
Q 1122 3375 1075 2522 
Q 1259 2794 1537 2939 
Q 1816 3084 2150 3084 
Q 2853 3084 3261 2657 
Q 3669 2231 3669 1497 
Q 3669 778 3244 343 
Q 2819 -91 2113 -91 
Q 1303 -91 875 529 
Q 447 1150 447 2328 
Q 447 3434 972 4092 
Q 1497 4750 2381 4750 
Q 2619 4750 2861 4703 
Q 3103 4656 3366 4563 
z
" transform="scale(0.015625)"/>
       </defs>
       <use xlink:href="#DejaVuSans-30"/>
       <use xlink:href="#DejaVuSans-2e" transform="translate(63.623047 0)"/>
       <use xlink:href="#DejaVuSans-36" transform="translate(95.410156 0)"/>
       <use xlink:href="#DejaVuSans-30" transform="translate(159.033203 0)"/>
      </g>
     </g>
    </g>
    <g id="xtick_8">
     <g id="line2d_8">
      <g>
       <use xlink:href="#m28007c4f0d" x="475.731161" y="398.64351" style="stroke: #000000; stroke-width: 0.8"/>
      </g>
     </g>
     <g id="text_8">
      <!-- 0.80 -->
      <g transform="translate(464.598348 413.241947) scale(0.1 -0.1)">
       <defs>
        <path id="DejaVuSans-38" d="M 2034 2216 
Q 1584 2216 1326 1975 
Q 1069 1734 1069 1313 
Q 1069 891 1326 650 
Q 1584 409 2034 409 
Q 2484 409 2743 651 
Q 3003 894 3003 1313 
Q 3003 1734 2745 1975 
Q 2488 2216 2034 2216 
z
M 1403 2484 
Q 997 2584 770 2862 
Q 544 3141 544 3541 
Q 544 4100 942 4425 
Q 1341 4750 2034 4750 
Q 2731 4750 3128 4425 
Q 3525 4100 3525 3541 
Q 3525 3141 3298 2862 
Q 3072 2584 2669 2484 
Q 3125 2378 3379 2068 
Q 3634 1759 3634 1313 
Q 3634 634 3220 271 
Q 2806 -91 2034 -91 
Q 1263 -91 848 271 
Q 434 634 434 1313 
Q 434 1759 690 2068 
Q 947 2378 1403 2484 
z
M 1172 3481 
Q 1172 3119 1398 2916 
Q 1625 2713 2034 2713 
Q 2441 2713 2670 2916 
Q 2900 3119 2900 3481 
Q 2900 3844 2670 4047 
Q 2441 4250 2034 4250 
Q 1625 4250 1398 4047 
Q 1172 3844 1172 3481 
z
" transform="scale(0.015625)"/>
       </defs>
       <use xlink:href="#DejaVuSans-30"/>
       <use xlink:href="#DejaVuSans-2e" transform="translate(63.623047 0)"/>
       <use xlink:href="#DejaVuSans-38" transform="translate(95.410156 0)"/>
       <use xlink:href="#DejaVuSans-30" transform="translate(159.033203 0)"/>
      </g>
     </g>
    </g>
    <g id="xtick_9">
     <g id="line2d_9">
      <g>
       <use xlink:href="#m28007c4f0d" x="561.866947" y="398.64351" style="stroke: #000000; stroke-width: 0.8"/>
      </g>
     </g>
     <g id="text_9">
      <!-- 1.00 -->
      <g transform="translate(550.734135 413.241947) scale(0.1 -0.1)">
       <use xlink:href="#DejaVuSans-31"/>
       <use xlink:href="#DejaVuSans-2e" transform="translate(63.623047 0)"/>
       <use xlink:href="#DejaVuSans-30" transform="translate(95.410156 0)"/>
       <use xlink:href="#DejaVuSans-30" transform="translate(159.033203 0)"/>
      </g>
     </g>
    </g>
    <g id="text_10">
     <!-- Time (s) -->
     <g transform="translate(282.996094 426.920073) scale(0.1 -0.1)">
      <defs>
       <path id="DejaVuSans-54" d="M -19 4666 
L 3928 4666 
L 3928 4134 
L 2272 4134 
L 2272 0 
L 1638 0 
L 1638 4134 
L -19 4134 
L -19 4666 
z
" transform="scale(0.015625)"/>
       <path id="DejaVuSans-69" d="M 603 3500 
L 1178 3500 
L 1178 0 
L 603 0 
L 603 3500 
z
M 603 4863 
L 1178 4863 
L 1178 4134 
L 603 4134 
L 603 4863 
z
" transform="scale(0.015625)"/>
       <path id="DejaVuSans-6d" d="M 3328 2828 
Q 3544 3216 3844 3400 
Q 4144 3584 4550 3584 
Q 5097 3584 5394 3201 
Q 5691 2819 5691 2113 
L 5691 0 
L 5113 0 
L 5113 2094 
Q 5113 2597 4934 2840 
Q 4756 3084 4391 3084 
Q 3944 3084 3684 2787 
Q 3425 2491 3425 1978 
L 3425 0 
L 2847 0 
L 2847 2094 
Q 2847 2600 2669 2842 
Q 2491 3084 2119 3084 
Q 1678 3084 1418 2786 
Q 1159 2488 1159 1978 
L 1159 0 
L 581 0 
L 581 3500 
L 1159 3500 
L 1159 2956 
Q 1356 3278 1631 3431 
Q 1906 3584 2284 3584 
Q 2666 3584 2933 3390 
Q 3200 3197 3328 2828 
z
" transform="scale(0.015625)"/>
       <path id="DejaVuSans-65" d="M 3597 1894 
L 3597 1613 
L 953 1613 
Q 991 1019 1311 708 
Q 1631 397 2203 397 
Q 2534 397 2845 478 
Q 3156 559 3463 722 
L 3463 178 
Q 3153 47 2828 -22 
Q 2503 -91 2169 -91 
Q 1331 -91 842 396 
Q 353 884 353 1716 
Q 353 2575 817 3079 
Q 1281 3584 2069 3584 
Q 2775 3584 3186 3129 
Q 3597 2675 3597 1894 
z
M 3022 2063 
Q 3016 2534 2758 2815 
Q 2500 3097 2075 3097 
Q 1594 3097 1305 2825 
Q 1016 2553 972 2059 
L 3022 2063 
z
" transform="scale(0.015625)"/>
       <path id="DejaVuSans-20" transform="scale(0.015625)"/>
       <path id="DejaVuSans-28" d="M 1984 4856 
Q 1566 4138 1362 3434 
Q 1159 2731 1159 2009 
Q 1159 1288 1364 580 
Q 1569 -128 1984 -844 
L 1484 -844 
Q 1016 -109 783 600 
Q 550 1309 550 2009 
Q 550 2706 781 3412 
Q 1013 4119 1484 4856 
L 1984 4856 
z
" transform="scale(0.015625)"/>
       <path id="DejaVuSans-73" d="M 2834 3397 
L 2834 2853 
Q 2591 2978 2328 3040 
Q 2066 3103 1784 3103 
Q 1356 3103 1142 2972 
Q 928 2841 928 2578 
Q 928 2378 1081 2264 
Q 1234 2150 1697 2047 
L 1894 2003 
Q 2506 1872 2764 1633 
Q 3022 1394 3022 966 
Q 3022 478 2636 193 
Q 2250 -91 1575 -91 
Q 1294 -91 989 -36 
Q 684 19 347 128 
L 347 722 
Q 666 556 975 473 
Q 1284 391 1588 391 
Q 1994 391 2212 530 
Q 2431 669 2431 922 
Q 2431 1156 2273 1281 
Q 2116 1406 1581 1522 
L 1381 1569 
Q 847 1681 609 1914 
Q 372 2147 372 2553 
Q 372 3047 722 3315 
Q 1072 3584 1716 3584 
Q 2034 3584 2315 3537 
Q 2597 3491 2834 3397 
z
" transform="scale(0.015625)"/>
       <path id="DejaVuSans-29" d="M 513 4856 
L 1013 4856 
Q 1481 4119 1714 3412 
Q 1947 2706 1947 2009 
Q 1947 1309 1714 600 
Q 1481 -109 1013 -844 
L 513 -844 
Q 928 -128 1133 580 
Q 1338 1288 1338 2009 
Q 1338 2731 1133 3434 
Q 928 4138 513 4856 
z
" transform="scale(0.015625)"/>
      </defs>
      <use xlink:href="#DejaVuSans-54"/>
      <use xlink:href="#DejaVuSans-69" transform="translate(57.958984 0)"/>
      <use xlink:href="#DejaVuSans-6d" transform="translate(85.742188 0)"/>
      <use xlink:href="#DejaVuSans-65" transform="translate(183.154297 0)"/>
      <use xlink:href="#DejaVuSans-20" transform="translate(244.677734 0)"/>
      <use xlink:href="#DejaVuSans-28" transform="translate(276.464844 0)"/>
      <use xlink:href="#DejaVuSans-73" transform="translate(315.478516 0)"/>
      <use xlink:href="#DejaVuSans-29" transform="translate(367.578125 0)"/>
     </g>
    </g>
   </g>
   <g id="matplotlib.axis_2">
    <g id="ytick_1">
     <g id="line2d_10">
      <defs>
       <path id="m4421fdf68a" d="M 0 0 
L -3.5 0 
" style="stroke: #000000; stroke-width: 0.8"/>
      </defs>
      <g>
       <use xlink:href="#m4421fdf68a" x="44.783053" y="351.061883" style="stroke: #000000; stroke-width: 0.8"/>
      </g>
     </g>
     <g id="text_11">
      <!-- −10 -->
      <g transform="translate(16.678365 354.861101) scale(0.1 -0.1)">
       <use xlink:href="#DejaVuSans-2212"/>
       <use xlink:href="#DejaVuSans-31" transform="translate(83.789062 0)"/>
       <use xlink:href="#DejaVuSans-30" transform="translate(147.412109 0)"/>
      </g>
     </g>
    </g>
    <g id="ytick_2">
     <g id="line2d_11">
      <g>
       <use xlink:href="#m4421fdf68a" x="44.783053" y="279.72141" style="stroke: #000000; stroke-width: 0.8"/>
      </g>
     </g>
     <g id="text_12">
      <!-- −5 -->
      <g transform="translate(23.040865 283.520629) scale(0.1 -0.1)">
       <use xlink:href="#DejaVuSans-2212"/>
       <use xlink:href="#DejaVuSans-35" transform="translate(83.789062 0)"/>
      </g>
     </g>
    </g>
    <g id="ytick_3">
     <g id="line2d_12">
      <g>
       <use xlink:href="#m4421fdf68a" x="44.783053" y="208.380937" style="stroke: #000000; stroke-width: 0.8"/>
      </g>
     </g>
     <g id="text_13">
      <!-- 0 -->
      <g transform="translate(31.420553 212.180156) scale(0.1 -0.1)">
       <use xlink:href="#DejaVuSans-30"/>
      </g>
     </g>
    </g>
    <g id="ytick_4">
     <g id="line2d_13">
      <g>
       <use xlink:href="#m4421fdf68a" x="44.783053" y="137.040465" style="stroke: #000000; stroke-width: 0.8"/>
      </g>
     </g>
     <g id="text_14">
      <!-- 5 -->
      <g transform="translate(31.420553 140.839684) scale(0.1 -0.1)">
       <use xlink:href="#DejaVuSans-35"/>
      </g>
     </g>
    </g>
    <g id="ytick_5">
     <g id="line2d_14">
      <g>
       <use xlink:href="#m4421fdf68a" x="44.783053" y="65.699992" style="stroke: #000000; stroke-width: 0.8"/>
      </g>
     </g>
     <g id="text_15">
      <!-- 10 -->
      <g transform="translate(25.058053 69.499211) scale(0.1 -0.1)">
       <use xlink:href="#DejaVuSans-31"/>
       <use xlink:href="#DejaVuSans-30" transform="translate(63.623047 0)"/>
      </g>
     </g>
    </g>
    <g id="text_16">
     <!-- µV -->
     <g transform="translate(10.598678 214.9825) rotate(-90) scale(0.1 -0.1)">
      <defs>
       <path id="DejaVuSans-b5" d="M 544 -1331 
L 544 3500 
L 1119 3500 
L 1119 1325 
Q 1119 872 1334 640 
Q 1550 409 1972 409 
Q 2434 409 2667 671 
Q 2900 934 2900 1459 
L 2900 3500 
L 3475 3500 
L 3475 806 
Q 3475 619 3529 530 
Q 3584 441 3700 441 
Q 3728 441 3778 458 
Q 3828 475 3916 513 
L 3916 50 
Q 3788 -22 3673 -56 
Q 3559 -91 3450 -91 
Q 3234 -91 3106 31 
Q 2978 153 2931 403 
Q 2775 156 2548 32 
Q 2322 -91 2016 -91 
Q 1697 -91 1473 31 
Q 1250 153 1119 397 
L 1119 -1331 
L 544 -1331 
z
" transform="scale(0.015625)"/>
       <path id="DejaVuSans-56" d="M 1831 0 
L 50 4666 
L 709 4666 
L 2188 738 
L 3669 4666 
L 4325 4666 
L 2547 0 
L 1831 0 
z
" transform="scale(0.015625)"/>
      </defs>
      <use xlink:href="#DejaVuSans-b5"/>
      <use xlink:href="#DejaVuSans-56" transform="translate(63.623047 0)"/>
     </g>
    </g>
   </g>
   <g id="patch_4">
    <path d="M 45.052227 398.64351 
L 561.866947 398.64351 
" style="fill: none; stroke: #000000; stroke-width: 0.8; stroke-linejoin: miter; stroke-linecap: square"/>
   </g>
   <g id="patch_5">
    <path d="M 44.783052 208.380937 
L 561.866947 208.380937 
" style="fill: none; stroke: #000000; stroke-width: 0.8; stroke-linejoin: miter; stroke-linecap: square"/>
   </g>
   <g id="text_17">
    <!-- Fz, FCz, CPz (median) -->
    <g transform="translate(238.270937 12.118365) scale(0.12 -0.12)">
     <defs>
      <path id="DejaVuSans-46" d="M 628 4666 
L 3309 4666 
L 3309 4134 
L 1259 4134 
L 1259 2759 
L 3109 2759 
L 3109 2228 
L 1259 2228 
L 1259 0 
L 628 0 
L 628 4666 
z
" transform="scale(0.015625)"/>
      <path id="DejaVuSans-7a" d="M 353 3500 
L 3084 3500 
L 3084 2975 
L 922 459 
L 3084 459 
L 3084 0 
L 275 0 
L 275 525 
L 2438 3041 
L 353 3041 
L 353 3500 
z
" transform="scale(0.015625)"/>
      <path id="DejaVuSans-2c" d="M 750 794 
L 1409 794 
L 1409 256 
L 897 -744 
L 494 -744 
L 750 256 
L 750 794 
z
" transform="scale(0.015625)"/>
      <path id="DejaVuSans-43" d="M 4122 4306 
L 4122 3641 
Q 3803 3938 3442 4084 
Q 3081 4231 2675 4231 
Q 1875 4231 1450 3742 
Q 1025 3253 1025 2328 
Q 1025 1406 1450 917 
Q 1875 428 2675 428 
Q 3081 428 3442 575 
Q 3803 722 4122 1019 
L 4122 359 
Q 3791 134 3420 21 
Q 3050 -91 2638 -91 
Q 1578 -91 968 557 
Q 359 1206 359 2328 
Q 359 3453 968 4101 
Q 1578 4750 2638 4750 
Q 3056 4750 3426 4639 
Q 3797 4528 4122 4306 
z
" transform="scale(0.015625)"/>
      <path id="DejaVuSans-50" d="M 1259 4147 
L 1259 2394 
L 2053 2394 
Q 2494 2394 2734 2622 
Q 2975 2850 2975 3272 
Q 2975 3691 2734 3919 
Q 2494 4147 2053 4147 
L 1259 4147 
z
M 628 4666 
L 2053 4666 
Q 2838 4666 3239 4311 
Q 3641 3956 3641 3272 
Q 3641 2581 3239 2228 
Q 2838 1875 2053 1875 
L 1259 1875 
L 1259 0 
L 628 0 
L 628 4666 
z
" transform="scale(0.015625)"/>
      <path id="DejaVuSans-64" d="M 2906 2969 
L 2906 4863 
L 3481 4863 
L 3481 0 
L 2906 0 
L 2906 525 
Q 2725 213 2448 61 
Q 2172 -91 1784 -91 
Q 1150 -91 751 415 
Q 353 922 353 1747 
Q 353 2572 751 3078 
Q 1150 3584 1784 3584 
Q 2172 3584 2448 3432 
Q 2725 3281 2906 2969 
z
M 947 1747 
Q 947 1113 1208 752 
Q 1469 391 1925 391 
Q 2381 391 2643 752 
Q 2906 1113 2906 1747 
Q 2906 2381 2643 2742 
Q 2381 3103 1925 3103 
Q 1469 3103 1208 2742 
Q 947 2381 947 1747 
z
" transform="scale(0.015625)"/>
      <path id="DejaVuSans-61" d="M 2194 1759 
Q 1497 1759 1228 1600 
Q 959 1441 959 1056 
Q 959 750 1161 570 
Q 1363 391 1709 391 
Q 2188 391 2477 730 
Q 2766 1069 2766 1631 
L 2766 1759 
L 2194 1759 
z
M 3341 1997 
L 3341 0 
L 2766 0 
L 2766 531 
Q 2569 213 2275 61 
Q 1981 -91 1556 -91 
Q 1019 -91 701 211 
Q 384 513 384 1019 
Q 384 1609 779 1909 
Q 1175 2209 1959 2209 
L 2766 2209 
L 2766 2266 
Q 2766 2663 2505 2880 
Q 2244 3097 1772 3097 
Q 1472 3097 1187 3025 
Q 903 2953 641 2809 
L 641 3341 
Q 956 3463 1253 3523 
Q 1550 3584 1831 3584 
Q 2591 3584 2966 3190 
Q 3341 2797 3341 1997 
z
" transform="scale(0.015625)"/>
      <path id="DejaVuSans-6e" d="M 3513 2113 
L 3513 0 
L 2938 0 
L 2938 2094 
Q 2938 2591 2744 2837 
Q 2550 3084 2163 3084 
Q 1697 3084 1428 2787 
Q 1159 2491 1159 1978 
L 1159 0 
L 581 0 
L 581 3500 
L 1159 3500 
L 1159 2956 
Q 1366 3272 1645 3428 
Q 1925 3584 2291 3584 
Q 2894 3584 3203 3211 
Q 3513 2838 3513 2113 
z
" transform="scale(0.015625)"/>
     </defs>
     <use xlink:href="#DejaVuSans-46"/>
     <use xlink:href="#DejaVuSans-7a" transform="translate(57.519531 0)"/>
     <use xlink:href="#DejaVuSans-2c" transform="translate(110.009766 0)"/>
     <use xlink:href="#DejaVuSans-20" transform="translate(141.796875 0)"/>
     <use xlink:href="#DejaVuSans-46" transform="translate(173.583984 0)"/>
     <use xlink:href="#DejaVuSans-43" transform="translate(231.103516 0)"/>
     <use xlink:href="#DejaVuSans-7a" transform="translate(300.927734 0)"/>
     <use xlink:href="#DejaVuSans-2c" transform="translate(353.417969 0)"/>
     <use xlink:href="#DejaVuSans-20" transform="translate(385.205078 0)"/>
     <use xlink:href="#DejaVuSans-43" transform="translate(416.992188 0)"/>
     <use xlink:href="#DejaVuSans-50" transform="translate(486.816406 0)"/>
     <use xlink:href="#DejaVuSans-7a" transform="translate(547.119141 0)"/>
     <use xlink:href="#DejaVuSans-20" transform="translate(599.609375 0)"/>
     <use xlink:href="#DejaVuSans-28" transform="translate(631.396484 0)"/>
     <use xlink:href="#DejaVuSans-6d" transform="translate(670.410156 0)"/>
     <use xlink:href="#DejaVuSans-65" transform="translate(767.822266 0)"/>
     <use xlink:href="#DejaVuSans-64" transform="translate(829.345703 0)"/>
     <use xlink:href="#DejaVuSans-69" transform="translate(892.822266 0)"/>
     <use xlink:href="#DejaVuSans-61" transform="translate(920.605469 0)"/>
     <use xlink:href="#DejaVuSans-6e" transform="translate(981.884766 0)"/>
     <use xlink:href="#DejaVuSans-29" transform="translate(1045.263672 0)"/>
    </g>
   </g>
   <g id="legend_1">
    <g id="patch_6">
     <path d="M 51.783053 55.75274 
L 132.92524 55.75274 
Q 134.92524 55.75274 134.92524 53.75274 
L 134.92524 25.118365 
Q 134.92524 23.118365 132.92524 23.118365 
L 51.783053 23.118365 
Q 49.783053 23.118365 49.783053 25.118365 
L 49.783053 53.75274 
Q 49.783053 55.75274 51.783053 55.75274 
z
" style="fill: #ffffff; opacity: 0.8; stroke: #cccccc; stroke-linejoin: miter"/>
    </g>
    <g id="line2d_15">
     <path d="M 53.783053 31.216803 
L 63.783053 31.216803 
L 73.783052 31.216803 
" style="fill: none; stroke: #1f77b4; stroke-width: 1.5; stroke-linecap: square"/>
    </g>
    <g id="text_18">
     <!-- eerie -->
     <g transform="translate(81.783052 34.716803) scale(0.1 -0.1)">
      <defs>
       <path id="DejaVuSans-72" d="M 2631 2963 
Q 2534 3019 2420 3045 
Q 2306 3072 2169 3072 
Q 1681 3072 1420 2755 
Q 1159 2438 1159 1844 
L 1159 0 
L 581 0 
L 581 3500 
L 1159 3500 
L 1159 2956 
Q 1341 3275 1631 3429 
Q 1922 3584 2338 3584 
Q 2397 3584 2469 3576 
Q 2541 3569 2628 3553 
L 2631 2963 
z
" transform="scale(0.015625)"/>
      </defs>
      <use xlink:href="#DejaVuSans-65"/>
      <use xlink:href="#DejaVuSans-65" transform="translate(61.523438 0)"/>
      <use xlink:href="#DejaVuSans-72" transform="translate(123.046875 0)"/>
      <use xlink:href="#DejaVuSans-69" transform="translate(164.160156 0)"/>
      <use xlink:href="#DejaVuSans-65" transform="translate(191.943359 0)"/>
     </g>
    </g>
    <g id="line2d_16">
     <path d="M 53.783053 45.894928 
L 63.783053 45.894928 
L 73.783052 45.894928 
" style="fill: none; stroke: #ff7f0e; stroke-width: 1.5; stroke-linecap: square"/>
    </g>
    <g id="text_19">
     <!-- non_eerie -->
     <g transform="translate(81.783052 49.394928) scale(0.1 -0.1)">
      <defs>
       <path id="DejaVuSans-6f" d="M 1959 3097 
Q 1497 3097 1228 2736 
Q 959 2375 959 1747 
Q 959 1119 1226 758 
Q 1494 397 1959 397 
Q 2419 397 2687 759 
Q 2956 1122 2956 1747 
Q 2956 2369 2687 2733 
Q 2419 3097 1959 3097 
z
M 1959 3584 
Q 2709 3584 3137 3096 
Q 3566 2609 3566 1747 
Q 3566 888 3137 398 
Q 2709 -91 1959 -91 
Q 1206 -91 779 398 
Q 353 888 353 1747 
Q 353 2609 779 3096 
Q 1206 3584 1959 3584 
z
" transform="scale(0.015625)"/>
       <path id="DejaVuSans-5f" d="M 3263 -1063 
L 3263 -1509 
L -63 -1509 
L -63 -1063 
L 3263 -1063 
z
" transform="scale(0.015625)"/>
      </defs>
      <use xlink:href="#DejaVuSans-6e"/>
      <use xlink:href="#DejaVuSans-6f" transform="translate(63.378906 0)"/>
      <use xlink:href="#DejaVuSans-6e" transform="translate(124.560547 0)"/>
      <use xlink:href="#DejaVuSans-5f" transform="translate(187.939453 0)"/>
      <use xlink:href="#DejaVuSans-65" transform="translate(237.939453 0)"/>
      <use xlink:href="#DejaVuSans-65" transform="translate(299.462891 0)"/>
      <use xlink:href="#DejaVuSans-72" transform="translate(360.986328 0)"/>
      <use xlink:href="#DejaVuSans-69" transform="translate(402.099609 0)"/>
      <use xlink:href="#DejaVuSans-65" transform="translate(429.882812 0)"/>
     </g>
    </g>
   </g>
   <g id="FillBetweenPolyCollection_1">
    <defs>
     <path id="m2d02d97d9f" d="M 44.783052 -221.971734 
L 44.783052 -211.198276 
L 46.465392 -214.837374 
L 48.147732 -218.343117 
L 49.830071 -220.646207 
L 51.512411 -221.219079 
L 53.19475 -220.523997 
L 54.87709 -218.989194 
L 56.55943 -217.739693 
L 58.241769 -216.718721 
L 59.924109 -216.458544 
L 61.606448 -216.244364 
L 63.288788 -217.014901 
L 64.971128 -218.242796 
L 66.653467 -220.694094 
L 68.335807 -223.64121 
L 70.018146 -225.705824 
L 71.700486 -225.026128 
L 73.382825 -221.838388 
L 75.065165 -217.24458 
L 76.747505 -213.452663 
L 78.429844 -211.829549 
L 80.112184 -213.586686 
L 81.794523 -217.118692 
L 83.476863 -221.123583 
L 85.159203 -224.770197 
L 86.841542 -227.438104 
L 88.523882 -229.607323 
L 90.206221 -231.480725 
L 91.888561 -233.161983 
L 93.5709 -234.24766 
L 95.25324 -234.204284 
L 96.93558 -234.105546 
L 98.617919 -233.605211 
L 100.300259 -232.819373 
L 101.982598 -231.649389 
L 103.664938 -230.099325 
L 105.347278 -227.817418 
L 107.029617 -225.459211 
L 108.711957 -224.127373 
L 110.394296 -223.806411 
L 112.076636 -224.06598 
L 113.758976 -223.119193 
L 115.441315 -219.720107 
L 117.123655 -213.602305 
L 118.805994 -206.044227 
L 120.488334 -199.66474 
L 122.170673 -196.510371 
L 123.853013 -196.608336 
L 125.535353 -197.757936 
L 127.217692 -196.791906 
L 128.900032 -192.86739 
L 130.582371 -187.019095 
L 132.264711 -182.245666 
L 133.947051 -181.791947 
L 135.62939 -185.762763 
L 137.31173 -192.621966 
L 138.994069 -199.474596 
L 140.676409 -203.168125 
L 142.358748 -203.322087 
L 144.041088 -201.145369 
L 145.723428 -198.826697 
L 147.405767 -197.506943 
L 149.088107 -198.19596 
L 150.770446 -199.43765 
L 152.452786 -200.53911 
L 154.135126 -201.653173 
L 155.817465 -202.722793 
L 157.499805 -204.30407 
L 159.182144 -205.976188 
L 160.864484 -207.039998 
L 162.546823 -206.983799 
L 164.229163 -206.492367 
L 165.911503 -205.775193 
L 167.593842 -205.591579 
L 169.276182 -206.395991 
L 170.958521 -207.320215 
L 172.640861 -207.389688 
L 174.323201 -205.222977 
L 176.00554 -199.637005 
L 177.68788 -190.98036 
L 179.370219 -181.088343 
L 181.052559 -171.914347 
L 182.734899 -166.260902 
L 184.417238 -165.085399 
L 186.099578 -170.056659 
L 187.781917 -181.401996 
L 189.464257 -198.691468 
L 191.146596 -221.66868 
L 192.828936 -249.613223 
L 194.511276 -280.090994 
L 196.193615 -310.003357 
L 197.875955 -335.712845 
L 199.558294 -355.88192 
L 201.240634 -370.187025 
L 202.922974 -378.311177 
L 204.605313 -381.271119 
L 206.287653 -380.601966 
L 207.969992 -377.666581 
L 209.652332 -373.419026 
L 211.334671 -370.597059 
L 213.017011 -369.419093 
L 214.699351 -370.623865 
L 216.38169 -373.253421 
L 218.06403 -377.843074 
L 219.746369 -383.532432 
L 221.428709 -388.7143 
L 223.111049 -392.218725 
L 224.793388 -393.39438 
L 226.475728 -391.840262 
L 228.158067 -386.922304 
L 229.840407 -378.694554 
L 231.522746 -366.325314 
L 233.205086 -350.834238 
L 234.887426 -332.787314 
L 236.569765 -314.420373 
L 238.252105 -298.160036 
L 239.934444 -284.34131 
L 241.616784 -273.588335 
L 243.299124 -265.269722 
L 244.981463 -258.486652 
L 246.663803 -252.82373 
L 248.346142 -248.602587 
L 250.028482 -247.121187 
L 251.710822 -249.061987 
L 253.393161 -254.30558 
L 255.075501 -262.51096 
L 256.75784 -271.686383 
L 258.44018 -282.742306 
L 260.122519 -293.97208 
L 261.804859 -303.754466 
L 263.487199 -312.878853 
L 265.169538 -320.163787 
L 266.851878 -326.28036 
L 268.534217 -330.871011 
L 270.216557 -334.560728 
L 271.898897 -337.236592 
L 273.581236 -338.307947 
L 275.263576 -338.176518 
L 276.945915 -336.936646 
L 278.628255 -334.850859 
L 280.310594 -331.855567 
L 281.992934 -329.278511 
L 283.675274 -328.148181 
L 285.357613 -329.995602 
L 287.039953 -334.741866 
L 288.722292 -341.082776 
L 290.404632 -347.836449 
L 292.086972 -354.380477 
L 293.769311 -360.539395 
L 295.451651 -366.343983 
L 297.13399 -372.00465 
L 298.81633 -376.813324 
L 300.498669 -380.042854 
L 302.181009 -381.932406 
L 303.863349 -382.734855 
L 305.545688 -383.488916 
L 307.228028 -385.088352 
L 308.910367 -387.474041 
L 310.592707 -390.698457 
L 312.275047 -393.288526 
L 313.957386 -393.788966 
L 315.639726 -391.56592 
L 317.322065 -386.643112 
L 319.004405 -379.743959 
L 320.686745 -372.113669 
L 322.369084 -364.193422 
L 324.051424 -355.702116 
L 325.733763 -347.67641 
L 327.416103 -340.082666 
L 329.098442 -334.45826 
L 330.780782 -330.449944 
L 332.463122 -328.163553 
L 334.145461 -326.939663 
L 335.827801 -327.298868 
L 337.51014 -329.041056 
L 339.19248 -332.496307 
L 340.87482 -337.418259 
L 342.557159 -343.06325 
L 344.239499 -347.688518 
L 345.921838 -349.832259 
L 347.604178 -348.730776 
L 349.286517 -345.470994 
L 350.968857 -341.20653 
L 352.651197 -337.703365 
L 354.333536 -336.532767 
L 356.015876 -337.199745 
L 357.698215 -337.799146 
L 359.380555 -336.895255 
L 361.062895 -333.526851 
L 362.745234 -327.821515 
L 364.427574 -320.973178 
L 366.109913 -315.509062 
L 367.792253 -311.969785 
L 369.474593 -310.766743 
L 371.156932 -311.187051 
L 372.839272 -311.710066 
L 374.521611 -310.819611 
L 376.203951 -309.542736 
L 377.88629 -309.177676 
L 379.56863 -309.891626 
L 381.25097 -312.066535 
L 382.933309 -314.709039 
L 384.615649 -316.992415 
L 386.297988 -318.306734 
L 387.980328 -319.456665 
L 389.662668 -321.497364 
L 391.345007 -325.41012 
L 393.027347 -331.040102 
L 394.709686 -337.906069 
L 396.392026 -344.176765 
L 398.074365 -348.7904 
L 399.756705 -350.870232 
L 401.439045 -351.151972 
L 403.121384 -350.782528 
L 404.803724 -349.873771 
L 406.486063 -348.577778 
L 408.168403 -347.075228 
L 409.850743 -345.232091 
L 411.533082 -342.992003 
L 413.215422 -341.016282 
L 414.897761 -339.88526 
L 416.580101 -339.378165 
L 418.26244 -339.125981 
L 419.94478 -337.99716 
L 421.62712 -336.025207 
L 423.309459 -332.637039 
L 424.991799 -328.224859 
L 426.674138 -324.49113 
L 428.356478 -321.936565 
L 430.038818 -321.839537 
L 431.721157 -323.703381 
L 433.403497 -326.444912 
L 435.085836 -329.13956 
L 436.768176 -331.667159 
L 438.450516 -332.617015 
L 440.132855 -332.566521 
L 441.815195 -331.676348 
L 443.497534 -330.710255 
L 445.179874 -330.150203 
L 446.862213 -329.742751 
L 448.544553 -329.482131 
L 450.226893 -328.493786 
L 451.909232 -327.090094 
L 453.591572 -325.569455 
L 455.273911 -325.080987 
L 456.956251 -326.586194 
L 458.638591 -330.118311 
L 460.32093 -335.283779 
L 462.00327 -340.811423 
L 463.685609 -344.989962 
L 465.367949 -348.022547 
L 467.050288 -349.451558 
L 468.732628 -349.487699 
L 470.414968 -348.902538 
L 472.097307 -347.661732 
L 473.779647 -345.972395 
L 475.461986 -343.039937 
L 477.144326 -338.802778 
L 478.826666 -333.315652 
L 480.509005 -327.470793 
L 482.191345 -322.974027 
L 483.873684 -320.561916 
L 485.556024 -320.61997 
L 487.238363 -322.087289 
L 488.920703 -323.695466 
L 490.603043 -324.579371 
L 492.285382 -325.075724 
L 493.967722 -325.025032 
L 495.650061 -324.78455 
L 497.332401 -323.431252 
L 499.014741 -320.665046 
L 500.69708 -316.133647 
L 502.37942 -310.640812 
L 504.061759 -305.333627 
L 505.744099 -300.835459 
L 507.426439 -297.804767 
L 509.108778 -296.789406 
L 510.791118 -297.284068 
L 512.473457 -298.753888 
L 514.155797 -301.621054 
L 515.838136 -305.052581 
L 517.520476 -309.031407 
L 519.202816 -312.624668 
L 520.885155 -315.406414 
L 522.567495 -316.544344 
L 524.249834 -315.192788 
L 525.932174 -312.516007 
L 527.614514 -309.212545 
L 529.296853 -306.625017 
L 530.979193 -305.635506 
L 532.661532 -306.153136 
L 534.343872 -308.112521 
L 536.026211 -310.374701 
L 537.708551 -311.99266 
L 539.390891 -312.615086 
L 541.07323 -311.857312 
L 542.75557 -309.66452 
L 544.437909 -308.430754 
L 546.120249 -307.622886 
L 547.802589 -306.519199 
L 549.484928 -305.077636 
L 551.167268 -301.900544 
L 552.849607 -297.167444 
L 554.531947 -292.063772 
L 556.214286 -287.650002 
L 557.896626 -284.426226 
L 559.578966 -282.407092 
L 561.261305 -281.494908 
L 561.261305 -299.687459 
L 561.261305 -299.687459 
L 559.578966 -301.751733 
L 557.896626 -304.216714 
L 556.214286 -307.638493 
L 554.531947 -311.602293 
L 552.849607 -315.651838 
L 551.167268 -319.824096 
L 549.484928 -322.856591 
L 547.802589 -325.168711 
L 546.120249 -326.837266 
L 544.437909 -327.874809 
L 542.75557 -329.075824 
L 541.07323 -330.231241 
L 539.390891 -330.525273 
L 537.708551 -329.316077 
L 536.026211 -327.59808 
L 534.343872 -325.216419 
L 532.661532 -323.42243 
L 530.979193 -322.733119 
L 529.296853 -323.747036 
L 527.614514 -326.214271 
L 525.932174 -329.509918 
L 524.249834 -332.294264 
L 522.567495 -333.569967 
L 520.885155 -332.712902 
L 519.202816 -330.480652 
L 517.520476 -326.62698 
L 515.838136 -322.541247 
L 514.155797 -318.622186 
L 512.473457 -315.092289 
L 510.791118 -313.271651 
L 509.108778 -312.927256 
L 507.426439 -314.251426 
L 505.744099 -317.12131 
L 504.061759 -321.410603 
L 502.37942 -326.718238 
L 500.69708 -331.787308 
L 499.014741 -335.552916 
L 497.332401 -338.05528 
L 495.650061 -339.375231 
L 493.967722 -339.763763 
L 492.285382 -340.146054 
L 490.603043 -339.454425 
L 488.920703 -338.757486 
L 487.238363 -337.041244 
L 485.556024 -335.173064 
L 483.873684 -334.345425 
L 482.191345 -336.120436 
L 480.509005 -340.429143 
L 478.826666 -346.089438 
L 477.144326 -351.563958 
L 475.461986 -357.037578 
L 473.779647 -361.023647 
L 472.097307 -363.781143 
L 470.414968 -366.071948 
L 468.732628 -366.52022 
L 467.050288 -365.840161 
L 465.367949 -363.842603 
L 463.685609 -360.740178 
L 462.00327 -356.758302 
L 460.32093 -352.166189 
L 458.638591 -347.869347 
L 456.956251 -344.674214 
L 455.273911 -343.699405 
L 453.591572 -344.401501 
L 451.909232 -345.904524 
L 450.226893 -346.956375 
L 448.544553 -347.775999 
L 446.862213 -347.773248 
L 445.179874 -347.963376 
L 443.497534 -348.371479 
L 441.815195 -349.084243 
L 440.132855 -349.715412 
L 438.450516 -349.564685 
L 436.768176 -348.008783 
L 435.085836 -345.363505 
L 433.403497 -342.442309 
L 431.721157 -340.082567 
L 430.038818 -339.351252 
L 428.356478 -340.35137 
L 426.674138 -342.783309 
L 424.991799 -345.976954 
L 423.309459 -349.328102 
L 421.62712 -352.332439 
L 419.94478 -353.962205 
L 418.26244 -354.436191 
L 416.580101 -354.409981 
L 414.897761 -354.87187 
L 413.215422 -356.134371 
L 411.533082 -357.98847 
L 409.850743 -360.176523 
L 408.168403 -362.383351 
L 406.486063 -364.023099 
L 404.803724 -365.561323 
L 403.121384 -366.513789 
L 401.439045 -367.125903 
L 399.756705 -366.985759 
L 398.074365 -365.145822 
L 396.392026 -361.341769 
L 394.709686 -355.769328 
L 393.027347 -349.468547 
L 391.345007 -344.317117 
L 389.662668 -341.488008 
L 387.980328 -340.077487 
L 386.297988 -338.945174 
L 384.615649 -337.58585 
L 382.933309 -334.941636 
L 381.25097 -331.578958 
L 379.56863 -328.993833 
L 377.88629 -328.051937 
L 376.203951 -328.529733 
L 374.521611 -329.361262 
L 372.839272 -329.380225 
L 371.156932 -329.12177 
L 369.474593 -329.051552 
L 367.792253 -330.513505 
L 366.109913 -333.971067 
L 364.427574 -339.336194 
L 362.745234 -345.549721 
L 361.062895 -351.219123 
L 359.380555 -354.432258 
L 357.698215 -355.10744 
L 356.015876 -354.282609 
L 354.333536 -353.625301 
L 352.651197 -354.654741 
L 350.968857 -357.377717 
L 349.286517 -361.459923 
L 347.604178 -364.558317 
L 345.921838 -365.329911 
L 344.239499 -364.047619 
L 342.557159 -360.456313 
L 340.87482 -356.109227 
L 339.19248 -352.063984 
L 337.51014 -348.861655 
L 335.827801 -346.819416 
L 334.145461 -346.538793 
L 332.463122 -347.404521 
L 330.780782 -348.748053 
L 329.098442 -352.080069 
L 327.416103 -357.580564 
L 325.733763 -364.746679 
L 324.051424 -373.283862 
L 322.369084 -381.917403 
L 320.686745 -390.112625 
L 319.004405 -397.678114 
L 317.322065 -404.110902 
L 315.639726 -408.95388 
L 313.957386 -411.052699 
L 312.275047 -410.995996 
L 310.592707 -408.945253 
L 308.910367 -405.693821 
L 307.228028 -402.773065 
L 305.545688 -400.800593 
L 303.863349 -399.652747 
L 302.181009 -397.988969 
L 300.498669 -395.35476 
L 298.81633 -390.963805 
L 297.13399 -385.563066 
L 295.451651 -379.415677 
L 293.769311 -373.191092 
L 292.086972 -367.243797 
L 290.404632 -360.81941 
L 288.722292 -354.425006 
L 287.039953 -348.345097 
L 285.357613 -343.679206 
L 283.675274 -341.435996 
L 281.992934 -342.890866 
L 280.310594 -346.334778 
L 278.628255 -350.425844 
L 276.945915 -353.140271 
L 275.263576 -354.618676 
L 273.581236 -354.44031 
L 271.898897 -352.893089 
L 270.216557 -349.966421 
L 268.534217 -345.788828 
L 266.851878 -340.275963 
L 265.169538 -333.872848 
L 263.487199 -326.855775 
L 261.804859 -318.421002 
L 260.122519 -308.806176 
L 258.44018 -297.269 
L 256.75784 -285.584262 
L 255.075501 -276.053785 
L 253.393161 -268.093784 
L 251.710822 -263.100502 
L 250.028482 -261.621685 
L 248.346142 -263.337666 
L 246.663803 -266.925224 
L 244.981463 -272.180916 
L 243.299124 -278.968631 
L 241.616784 -287.701518 
L 239.934444 -299.04825 
L 238.252105 -313.290896 
L 236.569765 -329.867596 
L 234.887426 -347.81158 
L 233.205086 -365.36203 
L 231.522746 -380.630309 
L 229.840407 -392.712224 
L 228.158067 -401.110421 
L 226.475728 -405.862289 
L 224.793388 -407.219089 
L 223.111049 -405.873191 
L 221.428709 -402.771086 
L 219.746369 -397.676217 
L 218.06403 -391.475311 
L 216.38169 -387.122525 
L 214.699351 -384.520275 
L 213.017011 -383.437737 
L 211.334671 -384.905242 
L 209.652332 -388.583077 
L 207.969992 -393.262822 
L 206.287653 -396.758723 
L 204.605313 -397.425831 
L 202.922974 -394.145117 
L 201.240634 -385.218504 
L 199.558294 -370.887985 
L 197.875955 -351.104717 
L 196.193615 -325.955477 
L 194.511276 -296.938267 
L 192.828936 -266.669481 
L 191.146596 -237.849654 
L 189.464257 -213.881837 
L 187.781917 -195.443415 
L 186.099578 -183.919983 
L 184.417238 -178.76607 
L 182.734899 -179.399931 
L 181.052559 -184.404167 
L 179.370219 -192.907008 
L 177.68788 -202.40702 
L 176.00554 -211.111434 
L 174.323201 -217.277214 
L 172.640861 -219.996792 
L 170.958521 -220.271178 
L 169.276182 -219.353972 
L 167.593842 -218.786101 
L 165.911503 -219.019661 
L 164.229163 -219.891976 
L 162.546823 -219.973744 
L 160.864484 -219.54563 
L 159.182144 -218.305927 
L 157.499805 -216.648213 
L 155.817465 -215.43072 
L 154.135126 -214.498222 
L 152.452786 -213.362128 
L 150.770446 -212.171283 
L 149.088107 -210.713241 
L 147.405767 -209.522643 
L 145.723428 -210.244758 
L 144.041088 -212.168175 
L 142.358748 -214.234637 
L 140.676409 -214.103682 
L 138.994069 -210.43685 
L 137.31173 -203.583218 
L 135.62939 -196.566473 
L 133.947051 -192.663538 
L 132.264711 -192.984052 
L 130.582371 -197.391608 
L 128.900032 -202.737836 
L 127.217692 -206.056627 
L 125.535353 -206.928544 
L 123.853013 -206.031532 
L 122.170673 -206.334298 
L 120.488334 -209.594815 
L 118.805994 -215.890255 
L 117.123655 -223.059831 
L 115.441315 -228.512353 
L 113.758976 -231.694983 
L 112.076636 -232.483189 
L 110.394296 -232.6389 
L 108.711957 -233.520091 
L 107.029617 -235.73306 
L 105.347278 -238.30769 
L 103.664938 -239.918452 
L 101.982598 -240.463951 
L 100.300259 -241.118626 
L 98.617919 -242.12436 
L 96.93558 -243.044139 
L 95.25324 -243.635809 
L 93.5709 -244.013116 
L 91.888561 -242.946874 
L 90.206221 -241.121518 
L 88.523882 -239.109467 
L 86.841542 -236.541466 
L 85.159203 -233.4169 
L 83.476863 -229.209828 
L 81.794523 -225.243593 
L 80.112184 -222.095474 
L 78.429844 -220.998861 
L 76.747505 -222.803748 
L 75.065165 -226.62151 
L 73.382825 -231.049799 
L 71.700486 -234.174818 
L 70.018146 -234.821827 
L 68.335807 -233.153488 
L 66.653467 -230.624672 
L 64.971128 -228.236046 
L 63.288788 -226.714019 
L 61.606448 -226.22686 
L 59.924109 -226.529726 
L 58.241769 -227.034934 
L 56.55943 -227.920754 
L 54.87709 -229.201234 
L 53.19475 -230.937714 
L 51.512411 -231.566336 
L 49.830071 -230.878618 
L 48.147732 -228.765715 
L 46.465392 -225.549562 
L 44.783052 -221.971734 
z
" style="stroke: #1f77b4; stroke-opacity: 0.3"/>
    </defs>
    <g>
     <use xlink:href="#m2d02d97d9f" x="0" y="432" style="fill: #1f77b4; fill-opacity: 0.3; stroke: #1f77b4; stroke-opacity: 0.3"/>
    </g>
   </g>
   <g id="FillBetweenPolyCollection_2">
    <defs>
     <path id="m606c6edf50" d="M 44.783052 -234.040187 
L 44.783052 -229.156472 
L 46.465392 -230.829076 
L 48.147732 -232.673229 
L 49.830071 -233.884301 
L 51.512411 -233.824993 
L 53.19475 -232.410371 
L 54.87709 -230.025782 
L 56.55943 -227.936134 
L 58.241769 -226.939359 
L 59.924109 -227.311563 
L 61.606448 -228.465273 
L 63.288788 -229.779024 
L 64.971128 -230.355818 
L 66.653467 -230.289927 
L 68.335807 -229.875757 
L 70.018146 -229.625469 
L 71.700486 -229.824474 
L 73.382825 -230.015056 
L 75.065165 -229.299539 
L 76.747505 -227.221563 
L 78.429844 -223.642923 
L 80.112184 -219.769893 
L 81.794523 -216.913702 
L 83.476863 -216.152328 
L 85.159203 -217.405581 
L 86.841542 -219.67139 
L 88.523882 -221.427883 
L 90.206221 -221.427013 
L 91.888561 -219.962536 
L 93.5709 -217.989096 
L 95.25324 -216.917579 
L 96.93558 -217.348654 
L 98.617919 -218.598789 
L 100.300259 -219.594238 
L 101.982598 -219.332155 
L 103.664938 -217.413994 
L 105.347278 -214.665338 
L 107.029617 -212.29242 
L 108.711957 -211.049834 
L 110.394296 -211.460042 
L 112.076636 -213.03825 
L 113.758976 -215.121395 
L 115.441315 -216.964563 
L 117.123655 -218.21752 
L 118.805994 -218.971865 
L 120.488334 -219.193785 
L 122.170673 -218.685026 
L 123.853013 -217.330019 
L 125.535353 -215.204524 
L 127.217692 -212.856177 
L 128.900032 -210.671793 
L 130.582371 -209.004608 
L 132.264711 -207.960588 
L 133.947051 -207.353914 
L 135.62939 -206.564812 
L 137.31173 -205.13549 
L 138.994069 -203.43251 
L 140.676409 -202.154909 
L 142.358748 -201.714977 
L 144.041088 -202.146556 
L 145.723428 -202.909858 
L 147.405767 -203.393929 
L 149.088107 -202.876983 
L 150.770446 -201.54545 
L 152.452786 -199.675032 
L 154.135126 -198.386278 
L 155.817465 -198.277962 
L 157.499805 -199.085246 
L 159.182144 -200.149279 
L 160.864484 -201.137147 
L 162.546823 -201.55348 
L 164.229163 -201.572284 
L 165.911503 -201.247066 
L 167.593842 -200.393395 
L 169.276182 -198.671546 
L 170.958521 -195.572571 
L 172.640861 -190.997854 
L 174.323201 -185.21878 
L 176.00554 -178.988688 
L 177.68788 -173.198463 
L 179.370219 -168.403974 
L 181.052559 -165.439102 
L 182.734899 -164.808974 
L 184.417238 -168.020857 
L 186.099578 -176.73197 
L 187.781917 -192.974945 
L 189.464257 -216.918988 
L 191.146596 -246.209593 
L 192.828936 -276.966991 
L 194.511276 -305.871668 
L 196.193615 -331.001628 
L 197.875955 -351.437909 
L 199.558294 -366.891633 
L 201.240634 -377.422343 
L 202.922974 -383.117185 
L 204.605313 -384.827544 
L 206.287653 -384.288154 
L 207.969992 -383.535531 
L 209.652332 -383.978404 
L 211.334671 -385.782727 
L 213.017011 -388.13425 
L 214.699351 -389.948302 
L 216.38169 -390.76238 
L 218.06403 -391.168584 
L 219.746369 -393.312039 
L 221.428709 -398.024928 
L 223.111049 -403.766737 
L 224.793388 -407.618453 
L 226.475728 -407.161912 
L 228.158067 -401.723401 
L 229.840407 -392.140708 
L 231.522746 -379.925639 
L 233.205086 -366.602908 
L 234.887426 -352.607465 
L 236.569765 -338.092273 
L 238.252105 -322.906693 
L 239.934444 -307.668088 
L 241.616784 -293.253278 
L 243.299124 -280.958702 
L 244.981463 -272.03701 
L 246.663803 -266.537922 
L 248.346142 -263.758359 
L 250.028482 -262.915971 
L 251.710822 -263.639674 
L 253.393161 -265.913212 
L 255.075501 -269.198242 
L 256.75784 -273.639247 
L 258.44018 -278.686747 
L 260.122519 -283.950211 
L 261.804859 -289.511907 
L 263.487199 -295.437002 
L 265.169538 -301.770862 
L 266.851878 -308.096096 
L 268.534217 -313.617128 
L 270.216557 -318.051936 
L 271.898897 -321.510262 
L 273.581236 -324.835295 
L 275.263576 -328.395338 
L 276.945915 -332.044172 
L 278.628255 -334.881087 
L 280.310594 -335.687537 
L 281.992934 -334.940037 
L 283.675274 -333.761105 
L 285.357613 -333.627873 
L 287.039953 -334.910288 
L 288.722292 -337.09022 
L 290.404632 -338.95464 
L 292.086972 -339.15075 
L 293.769311 -337.772362 
L 295.451651 -336.238306 
L 297.13399 -336.408649 
L 298.81633 -338.669653 
L 300.498669 -342.213016 
L 302.181009 -345.425306 
L 303.863349 -346.512697 
L 305.545688 -345.56266 
L 307.228028 -343.603516 
L 308.910367 -341.87286 
L 310.592707 -340.91175 
L 312.275047 -339.712336 
L 313.957386 -336.895717 
L 315.639726 -331.41635 
L 317.322065 -323.204327 
L 319.004405 -313.860846 
L 320.686745 -305.346235 
L 322.369084 -298.518271 
L 324.051424 -293.352123 
L 325.733763 -288.851293 
L 327.416103 -283.713219 
L 329.098442 -277.905213 
L 330.780782 -272.150352 
L 332.463122 -268.144245 
L 334.145461 -267.19389 
L 335.827801 -269.598734 
L 337.51014 -274.704995 
L 339.19248 -280.85796 
L 340.87482 -286.490947 
L 342.557159 -291.293213 
L 344.239499 -295.595571 
L 345.921838 -299.4858 
L 347.604178 -302.950022 
L 349.286517 -305.238757 
L 350.968857 -305.78584 
L 352.651197 -304.830277 
L 354.333536 -303.261613 
L 356.015876 -302.366814 
L 357.698215 -302.870524 
L 359.380555 -304.403333 
L 361.062895 -305.407447 
L 362.745234 -304.36288 
L 364.427574 -300.897783 
L 366.109913 -295.92472 
L 367.792253 -291.228291 
L 369.474593 -288.099143 
L 371.156932 -286.613066 
L 372.839272 -285.95252 
L 374.521611 -284.969051 
L 376.203951 -283.179994 
L 377.88629 -281.122295 
L 379.56863 -280.331943 
L 381.25097 -281.949422 
L 382.933309 -286.518434 
L 384.615649 -292.910826 
L 386.297988 -299.467143 
L 387.980328 -304.74167 
L 389.662668 -308.235231 
L 391.345007 -310.320245 
L 393.027347 -311.512228 
L 394.709686 -312.44623 
L 396.392026 -313.49884 
L 398.074365 -314.854228 
L 399.756705 -316.431988 
L 401.439045 -317.78361 
L 403.121384 -318.935891 
L 404.803724 -319.709103 
L 406.486063 -320.558351 
L 408.168403 -321.858363 
L 409.850743 -323.972312 
L 411.533082 -326.46723 
L 413.215422 -328.799779 
L 414.897761 -330.120442 
L 416.580101 -329.773514 
L 418.26244 -327.699398 
L 419.94478 -325.067542 
L 421.62712 -323.18193 
L 423.309459 -322.679501 
L 424.991799 -323.385311 
L 426.674138 -324.291447 
L 428.356478 -324.090714 
L 430.038818 -322.517289 
L 431.721157 -319.912498 
L 433.403497 -316.845202 
L 435.085836 -314.232954 
L 436.768176 -312.22 
L 438.450516 -310.967105 
L 440.132855 -309.770165 
L 441.815195 -308.452987 
L 443.497534 -306.938778 
L 445.179874 -305.287707 
L 446.862213 -303.829345 
L 448.544553 -302.699935 
L 450.226893 -302.060909 
L 451.909232 -301.929464 
L 453.591572 -302.303785 
L 455.273911 -303.008658 
L 456.956251 -303.789263 
L 458.638591 -303.974598 
L 460.32093 -303.500434 
L 462.00327 -302.015794 
L 463.685609 -300.082293 
L 465.367949 -298.291569 
L 467.050288 -297.587092 
L 468.732628 -298.162553 
L 470.414968 -299.733856 
L 472.097307 -301.446261 
L 473.779647 -302.083402 
L 475.461986 -300.871563 
L 477.144326 -297.96414 
L 478.826666 -294.529385 
L 480.509005 -291.891043 
L 482.191345 -291.183389 
L 483.873684 -292.397799 
L 485.556024 -294.523959 
L 487.238363 -296.014106 
L 488.920703 -295.749127 
L 490.603043 -293.65942 
L 492.285382 -290.592113 
L 493.967722 -287.656848 
L 495.650061 -285.589695 
L 497.332401 -284.691183 
L 499.014741 -284.481753 
L 500.69708 -284.940454 
L 502.37942 -285.434876 
L 504.061759 -285.616881 
L 505.744099 -284.923 
L 507.426439 -283.160103 
L 509.108778 -280.456347 
L 510.791118 -277.07032 
L 512.473457 -273.839219 
L 514.155797 -271.906406 
L 515.838136 -271.755294 
L 517.520476 -272.96071 
L 519.202816 -274.102339 
L 520.885155 -274.03319 
L 522.567495 -272.705305 
L 524.249834 -270.73931 
L 525.932174 -269.638319 
L 527.614514 -270.027023 
L 529.296853 -271.513949 
L 530.979193 -272.904606 
L 532.661532 -273.473584 
L 534.343872 -273.094608 
L 536.026211 -273.010774 
L 537.708551 -274.452388 
L 539.390891 -278.10378 
L 541.07323 -282.656698 
L 542.75557 -286.181835 
L 544.437909 -286.942751 
L 546.120249 -284.655768 
L 547.802589 -280.200817 
L 549.484928 -275.493852 
L 551.167268 -271.846781 
L 552.849607 -269.746434 
L 554.531947 -268.500738 
L 556.214286 -267.229415 
L 557.896626 -265.667689 
L 559.578966 -263.950943 
L 561.261305 -262.398537 
L 561.261305 -269.065274 
L 561.261305 -269.065274 
L 559.578966 -270.559567 
L 557.896626 -272.44728 
L 556.214286 -274.297695 
L 554.531947 -275.649078 
L 552.849607 -276.886988 
L 551.167268 -278.95499 
L 549.484928 -282.500228 
L 547.802589 -287.28749 
L 546.120249 -291.844754 
L 544.437909 -294.228321 
L 542.75557 -293.33917 
L 541.07323 -289.754699 
L 539.390891 -285.085661 
L 537.708551 -281.49226 
L 536.026211 -280.119182 
L 534.343872 -280.311223 
L 532.661532 -280.877671 
L 530.979193 -280.392496 
L 529.296853 -279.062225 
L 527.614514 -277.530352 
L 525.932174 -277.003402 
L 524.249834 -277.966845 
L 522.567495 -279.744039 
L 520.885155 -281.027472 
L 519.202816 -280.972246 
L 517.520476 -279.753619 
L 515.838136 -278.561942 
L 514.155797 -278.727312 
L 512.473457 -280.879101 
L 510.791118 -284.226872 
L 509.108778 -287.698523 
L 507.426439 -290.433832 
L 505.744099 -292.05777 
L 504.061759 -292.509545 
L 502.37942 -292.313167 
L 500.69708 -291.833783 
L 499.014741 -291.46654 
L 497.332401 -291.536109 
L 495.650061 -292.383744 
L 493.967722 -294.242529 
L 492.285382 -297.308402 
L 490.603043 -300.459074 
L 488.920703 -302.672565 
L 487.238363 -302.961 
L 485.556024 -301.609367 
L 483.873684 -299.545804 
L 482.191345 -298.376235 
L 480.509005 -298.961103 
L 478.826666 -301.348567 
L 477.144326 -304.730441 
L 475.461986 -307.64634 
L 473.779647 -309.056384 
L 472.097307 -308.48875 
L 470.414968 -306.725899 
L 468.732628 -305.085145 
L 467.050288 -304.529624 
L 465.367949 -305.036119 
L 463.685609 -306.685975 
L 462.00327 -308.633551 
L 460.32093 -309.955653 
L 458.638591 -310.418222 
L 456.956251 -310.150258 
L 455.273911 -309.32362 
L 453.591572 -308.51226 
L 451.909232 -308.106468 
L 450.226893 -308.212666 
L 448.544553 -308.76062 
L 446.862213 -309.93254 
L 445.179874 -311.511972 
L 443.497534 -313.176812 
L 441.815195 -314.848823 
L 440.132855 -316.094547 
L 438.450516 -317.274176 
L 436.768176 -318.47286 
L 435.085836 -320.483182 
L 433.403497 -323.178649 
L 431.721157 -326.149094 
L 430.038818 -328.722251 
L 428.356478 -330.271672 
L 426.674138 -330.409043 
L 424.991799 -329.573429 
L 423.309459 -328.892231 
L 421.62712 -329.450779 
L 419.94478 -331.555241 
L 418.26244 -334.403177 
L 416.580101 -336.533706 
L 414.897761 -336.90268 
L 413.215422 -335.621588 
L 411.533082 -333.16256 
L 409.850743 -330.510551 
L 408.168403 -328.271722 
L 406.486063 -326.7819 
L 404.803724 -326.067807 
L 403.121384 -325.308007 
L 401.439045 -324.200586 
L 399.756705 -322.946156 
L 398.074365 -321.441402 
L 396.392026 -320.185388 
L 394.709686 -319.190116 
L 393.027347 -318.376746 
L 391.345007 -317.317118 
L 389.662668 -315.140412 
L 387.980328 -311.44384 
L 386.297988 -305.918328 
L 384.615649 -299.34621 
L 382.933309 -292.974857 
L 381.25097 -288.470524 
L 379.56863 -286.797821 
L 377.88629 -287.576558 
L 376.203951 -289.57913 
L 374.521611 -291.320554 
L 372.839272 -292.296069 
L 371.156932 -292.884774 
L 369.474593 -294.351582 
L 367.792253 -297.35494 
L 366.109913 -301.917217 
L 364.427574 -306.707577 
L 362.745234 -310.108901 
L 361.062895 -311.092129 
L 359.380555 -310.121866 
L 357.698215 -308.745082 
L 356.015876 -308.288801 
L 354.333536 -309.285648 
L 352.651197 -311.162664 
L 350.968857 -312.349458 
L 349.286517 -311.881864 
L 347.604178 -309.580325 
L 345.921838 -306.197657 
L 344.239499 -302.259606 
L 342.557159 -298.023876 
L 340.87482 -293.20769 
L 339.19248 -287.444771 
L 337.51014 -281.189924 
L 335.827801 -276.061017 
L 334.145461 -273.672879 
L 332.463122 -274.531459 
L 330.780782 -278.41048 
L 329.098442 -284.172177 
L 327.416103 -290.055155 
L 325.733763 -295.209722 
L 324.051424 -299.854066 
L 322.369084 -305.212891 
L 320.686745 -312.24158 
L 319.004405 -320.975382 
L 317.322065 -330.398876 
L 315.639726 -338.638984 
L 313.957386 -344.148774 
L 312.275047 -346.807895 
L 310.592707 -348.041378 
L 308.910367 -349.122104 
L 307.228028 -350.912214 
L 305.545688 -353.023301 
L 303.863349 -354.01867 
L 302.181009 -352.843563 
L 300.498669 -349.756023 
L 298.81633 -346.119612 
L 297.13399 -343.719693 
L 295.451651 -343.337962 
L 293.769311 -344.612513 
L 292.086972 -345.972624 
L 290.404632 -345.982746 
L 288.722292 -344.368879 
L 287.039953 -342.082652 
L 285.357613 -340.796819 
L 283.675274 -340.835736 
L 281.992934 -341.796564 
L 280.310594 -342.339698 
L 278.628255 -341.385396 
L 276.945915 -338.39664 
L 275.263576 -334.761086 
L 273.581236 -331.371864 
L 271.898897 -328.327538 
L 270.216557 -324.84007 
L 268.534217 -320.318266 
L 266.851878 -314.534999 
L 265.169538 -307.982651 
L 263.487199 -301.465868 
L 261.804859 -295.51957 
L 260.122519 -290.0713 
L 258.44018 -284.999429 
L 256.75784 -279.804081 
L 255.075501 -275.428013 
L 253.393161 -271.992866 
L 251.710822 -269.654996 
L 250.028482 -268.908936 
L 248.346142 -269.762651 
L 246.663803 -272.662156 
L 244.981463 -278.318665 
L 243.299124 -287.281382 
L 241.616784 -299.454441 
L 239.934444 -313.939042 
L 238.252105 -329.045289 
L 236.569765 -343.963276 
L 234.887426 -358.344274 
L 233.205086 -372.287122 
L 231.522746 -385.737968 
L 229.840407 -397.982115 
L 228.158067 -407.808633 
L 226.475728 -413.377983 
L 224.793388 -413.881635 
L 223.111049 -409.92232 
L 221.428709 -404.064424 
L 219.746369 -399.183599 
L 218.06403 -396.982125 
L 216.38169 -396.549231 
L 214.699351 -395.865756 
L 213.017011 -394.174523 
L 211.334671 -391.674406 
L 209.652332 -389.875731 
L 207.969992 -389.615228 
L 206.287653 -390.4578 
L 204.605313 -391.224318 
L 202.922974 -389.613828 
L 201.240634 -384.106697 
L 199.558294 -373.646972 
L 197.875955 -358.220148 
L 196.193615 -338.085039 
L 194.511276 -313.294043 
L 192.828936 -284.475289 
L 191.146596 -253.549322 
L 189.464257 -223.553107 
L 187.781917 -198.807856 
L 186.099578 -182.196804 
L 184.417238 -173.427184 
L 182.734899 -170.252264 
L 181.052559 -170.670891 
L 179.370219 -173.637578 
L 177.68788 -178.653405 
L 176.00554 -184.43313 
L 174.323201 -190.747202 
L 172.640861 -196.592536 
L 170.958521 -201.250097 
L 169.276182 -204.411575 
L 167.593842 -206.069516 
L 165.911503 -206.866265 
L 164.229163 -207.08735 
L 162.546823 -206.942943 
L 160.864484 -206.467661 
L 159.182144 -205.52507 
L 157.499805 -204.365106 
L 155.817465 -203.425712 
L 154.135126 -203.433305 
L 152.452786 -204.543674 
L 150.770446 -206.311922 
L 149.088107 -207.728067 
L 147.405767 -208.213008 
L 145.723428 -207.702848 
L 144.041088 -206.954308 
L 142.358748 -206.565255 
L 140.676409 -207.095311 
L 138.994069 -208.374495 
L 137.31173 -209.955882 
L 135.62939 -211.244279 
L 133.947051 -211.85882 
L 132.264711 -212.445965 
L 130.582371 -213.370587 
L 128.900032 -214.908293 
L 127.217692 -216.994005 
L 125.535353 -219.210293 
L 123.853013 -221.204815 
L 122.170673 -222.580106 
L 120.488334 -222.981211 
L 118.805994 -222.718411 
L 117.123655 -221.987365 
L 115.441315 -220.806399 
L 113.758976 -219.022281 
L 112.076636 -216.907099 
L 110.394296 -215.183244 
L 108.711957 -214.802275 
L 107.029617 -215.870334 
L 105.347278 -218.269694 
L 103.664938 -221.100354 
L 101.982598 -223.090223 
L 100.300259 -223.258359 
L 98.617919 -222.040115 
L 96.93558 -220.537471 
L 95.25324 -220.124527 
L 93.5709 -221.303661 
L 91.888561 -223.535438 
L 90.206221 -225.148554 
L 88.523882 -225.068118 
L 86.841542 -223.229863 
L 85.159203 -220.756935 
L 83.476863 -219.296373 
L 81.794523 -220.060722 
L 80.112184 -222.942572 
L 78.429844 -226.965101 
L 76.747505 -230.642669 
L 75.065165 -232.829067 
L 73.382825 -233.634714 
L 71.700486 -233.591524 
L 70.018146 -233.448409 
L 68.335807 -233.652767 
L 66.653467 -234.062873 
L 64.971128 -234.011913 
L 63.288788 -233.41445 
L 61.606448 -232.218317 
L 59.924109 -231.151482 
L 58.241769 -230.898914 
L 56.55943 -231.917821 
L 54.87709 -234.03914 
L 53.19475 -236.326604 
L 51.512411 -237.845491 
L 49.830071 -238.095365 
L 48.147732 -237.129751 
L 46.465392 -235.573072 
L 44.783052 -234.040187 
z
" style="stroke: #ff7f0e; stroke-opacity: 0.3"/>
    </defs>
    <g>
     <use xlink:href="#m606c6edf50" x="0" y="432" style="fill: #ff7f0e; fill-opacity: 0.3; stroke: #ff7f0e; stroke-opacity: 0.3"/>
    </g>
   </g>
   <g id="line2d_17">
    <path d="M 44.783052 215.482354 
L 48.147732 208.380526 
L 49.830071 206.261767 
L 51.512411 205.604952 
L 53.19475 206.220173 
L 54.87709 207.684333 
L 56.55943 208.991476 
L 58.241769 209.936 
L 59.924109 210.449992 
L 61.606448 210.609578 
L 63.288788 210.033936 
L 64.971128 208.707095 
L 66.653467 206.374389 
L 68.335807 203.516131 
L 70.018146 201.713944 
L 71.700486 202.305743 
L 73.382825 205.662483 
L 75.065165 210.052094 
L 76.747505 213.884709 
L 78.429844 215.564541 
L 80.112184 214.130617 
L 81.794523 210.782694 
L 85.159203 202.937461 
L 86.841542 200.05624 
L 88.523882 197.650635 
L 90.206221 195.612658 
L 91.888561 193.777643 
L 93.5709 192.751467 
L 95.25324 192.993086 
L 96.93558 193.422292 
L 98.617919 194.128478 
L 100.300259 195.067157 
L 101.982598 195.869259 
L 103.664938 196.957444 
L 105.347278 198.882083 
L 107.029617 201.308 
L 108.711957 203.04679 
L 110.394296 203.694528 
L 112.076636 203.713679 
L 113.758976 204.731592 
L 115.441315 207.922924 
L 117.123655 213.665925 
L 118.805994 221.145538 
L 120.488334 227.473644 
L 122.170673 230.638061 
L 123.853013 230.635115 
L 125.535353 229.617373 
L 127.217692 230.485737 
L 128.900032 234.10982 
L 130.582371 239.840753 
L 132.264711 244.527383 
L 133.947051 244.872186 
L 135.62939 240.913847 
L 138.994069 226.945445 
L 140.676409 223.290899 
L 142.358748 223.209648 
L 145.723428 227.575628 
L 147.405767 228.477317 
L 149.088107 227.529308 
L 150.770446 226.158474 
L 155.817465 222.804136 
L 157.499805 221.350506 
L 159.182144 219.749374 
L 160.864484 218.695363 
L 162.546823 218.406872 
L 164.229163 218.801053 
L 165.911503 219.546083 
L 167.593842 219.812026 
L 169.276182 219.17085 
L 170.958521 218.279708 
L 172.640861 218.348508 
L 174.323201 220.947375 
L 176.00554 226.796279 
L 177.68788 235.4676 
L 179.370219 245.119126 
L 181.052559 253.701026 
L 182.734899 259.105739 
L 184.417238 259.870223 
L 186.099578 255.059818 
L 187.781917 243.61326 
L 189.464257 225.950141 
L 191.146596 202.282962 
L 192.828936 174.066971 
L 196.193615 114.181196 
L 197.875955 88.878844 
L 199.558294 68.832551 
L 201.240634 54.45361 
L 202.922974 45.952598 
L 204.605313 42.690442 
L 206.287653 43.27384 
L 207.969992 46.748366 
L 209.652332 51.19003 
L 211.334671 54.555051 
L 213.017011 55.733216 
L 214.699351 54.617811 
L 216.38169 51.927563 
L 218.06403 47.381942 
L 219.746369 41.437238 
L 221.428709 36.225005 
L 223.111049 32.952989 
L 224.793388 31.669717 
L 226.475728 33.05503 
L 228.158067 37.908965 
L 229.840407 46.183539 
L 231.522746 58.387166 
L 233.205086 73.997212 
L 238.252105 126.238979 
L 239.934444 140.277067 
L 241.616784 151.320744 
L 243.299124 159.937398 
L 244.981463 166.688195 
L 246.663803 172.222851 
L 248.346142 175.971769 
L 250.028482 177.605596 
L 251.710822 175.795116 
L 253.393161 170.640955 
L 255.075501 162.770707 
L 256.75784 153.233446 
L 260.122519 130.483326 
L 261.804859 120.843755 
L 263.487199 112.181803 
L 265.169538 105.087046 
L 266.851878 98.894384 
L 268.534217 93.818852 
L 270.216557 89.903209 
L 271.898897 87.105499 
L 273.581236 85.597302 
L 275.263576 85.516061 
L 276.945915 86.975501 
L 278.628255 89.520733 
L 280.310594 92.959219 
L 281.992934 95.955742 
L 283.675274 97.153766 
L 285.357613 95.232829 
L 287.039953 90.548335 
L 290.404632 77.73107 
L 293.769311 65.205179 
L 297.13399 53.269114 
L 298.81633 48.123799 
L 300.498669 44.395229 
L 302.181009 42.004854 
L 303.863349 40.730454 
L 305.545688 39.819695 
L 307.228028 38.052852 
L 308.910367 35.25783 
L 310.592707 32.084378 
L 312.275047 29.884261 
L 313.957386 29.502065 
L 315.639726 31.719631 
L 317.322065 36.400379 
L 319.004405 43.281809 
L 322.369084 58.909029 
L 325.733763 75.553987 
L 327.416103 82.969006 
L 329.098442 88.648647 
L 330.780782 92.303679 
L 332.463122 94.324606 
L 334.145461 95.217974 
L 335.827801 94.794894 
L 337.51014 93.007771 
L 339.19248 89.732225 
L 340.87482 85.113012 
L 342.557159 80.079259 
L 344.239499 75.95872 
L 345.921838 74.136797 
L 347.604178 75.151947 
L 349.286517 78.378188 
L 350.968857 82.61584 
L 352.651197 85.850265 
L 354.333536 86.993634 
L 357.698215 85.626178 
L 359.380555 86.422892 
L 361.062895 89.797445 
L 362.745234 95.468666 
L 364.427574 101.986375 
L 366.109913 107.443454 
L 367.792253 110.867924 
L 369.474593 112.081736 
L 372.839272 111.641143 
L 374.521611 112.001634 
L 376.203951 113.016059 
L 377.88629 113.476889 
L 379.56863 112.590571 
L 381.25097 110.22005 
L 382.933309 107.18651 
L 384.615649 104.679409 
L 386.297988 103.171334 
L 387.980328 102.037298 
L 389.662668 100.265248 
L 391.345007 96.920043 
L 393.027347 91.72716 
L 394.709686 85.289075 
L 396.392026 79.361203 
L 398.074365 75.262943 
L 399.756705 73.33969 
L 401.439045 73.045058 
L 403.121384 73.61614 
L 404.803724 74.579196 
L 406.486063 75.872577 
L 408.168403 77.527837 
L 413.215422 83.661014 
L 414.897761 84.76079 
L 418.26244 85.428404 
L 419.94478 86.169177 
L 421.62712 88.058073 
L 423.309459 91.250696 
L 424.991799 95.145166 
L 426.674138 98.562254 
L 428.356478 100.9252 
L 430.038818 101.412984 
L 431.721157 100.110675 
L 433.403497 97.584086 
L 436.768176 91.890384 
L 438.450516 90.629175 
L 440.132855 90.517881 
L 441.815195 91.265164 
L 443.497534 92.186211 
L 445.179874 92.74899 
L 448.544553 93.357318 
L 450.226893 94.218404 
L 453.591572 97.139 
L 455.273911 97.677267 
L 456.956251 96.404441 
L 458.638591 93.027813 
L 460.32093 88.379924 
L 462.00327 83.211174 
L 463.685609 79.035266 
L 465.367949 75.894859 
L 467.050288 74.17149 
L 468.732628 73.977883 
L 470.414968 74.630467 
L 472.097307 76.273849 
L 473.779647 78.646943 
L 475.461986 82.079433 
L 477.144326 86.878402 
L 480.509005 98.085293 
L 482.191345 102.334214 
L 483.873684 104.482693 
L 485.556024 104.178325 
L 488.920703 100.904545 
L 490.603043 99.963523 
L 492.285382 99.388051 
L 493.967722 99.384381 
L 495.650061 99.863172 
L 497.332401 101.129315 
L 499.014741 103.70422 
L 500.69708 107.805639 
L 504.061759 118.661013 
L 505.744099 123.078712 
L 507.426439 125.96021 
L 509.108778 127.111681 
L 510.791118 126.586296 
L 512.473457 124.732308 
L 514.155797 121.546295 
L 517.520476 113.817138 
L 519.202816 110.010322 
L 520.885155 107.485522 
L 522.567495 106.691709 
L 524.249834 108.116137 
L 525.932174 110.772856 
L 527.614514 114.031881 
L 529.296853 116.657874 
L 530.979193 117.680828 
L 532.661532 117.025173 
L 534.343872 115.159471 
L 536.026211 112.71664 
L 537.708551 110.99049 
L 539.390891 110.167069 
L 541.07323 110.819621 
L 542.75557 112.408029 
L 544.437909 113.558616 
L 546.120249 114.488798 
L 547.802589 115.808959 
L 549.484928 117.769727 
L 551.167268 120.838732 
L 552.849607 125.067757 
L 554.531947 129.655034 
L 556.214286 133.72208 
L 557.896626 137.048922 
L 559.578966 139.414415 
L 561.261305 141.28957 
L 561.261305 141.28957 
" style="fill: none; stroke: #1f77b4; stroke-width: 1.5; stroke-linecap: square"/>
   </g>
   <g id="line2d_18">
    <path d="M 44.783052 200.383753 
L 48.147732 197.093446 
L 49.830071 195.973054 
L 51.512411 196.103226 
L 53.19475 197.559355 
L 54.87709 199.893228 
L 56.55943 202.025551 
L 58.241769 203.030384 
L 59.924109 202.684771 
L 61.606448 201.601864 
L 63.288788 200.382611 
L 64.971128 199.753422 
L 66.653467 199.805688 
L 68.335807 200.218106 
L 70.018146 200.380066 
L 71.700486 200.183122 
L 73.382825 200.131782 
L 75.065165 200.89728 
L 76.747505 203.038877 
L 78.429844 206.684242 
L 80.112184 210.641337 
L 81.794523 213.509946 
L 83.476863 214.275433 
L 85.159203 212.909221 
L 86.841542 210.567883 
L 88.523882 208.746392 
L 90.206221 208.747163 
L 91.888561 210.308385 
L 93.5709 212.351515 
L 95.25324 213.462814 
L 96.93558 213.090866 
L 98.617919 211.700297 
L 100.300259 210.613321 
L 101.982598 210.813374 
L 103.664938 212.755992 
L 105.347278 215.548323 
L 107.029617 217.926892 
L 108.711957 219.098491 
L 110.394296 218.766302 
L 112.076636 217.074001 
L 113.758976 214.983864 
L 115.441315 213.152477 
L 117.123655 211.853096 
L 118.805994 211.119626 
L 120.488334 210.87891 
L 122.170673 211.329154 
L 123.853013 212.659198 
L 125.535353 214.757362 
L 128.900032 219.243746 
L 130.582371 220.788256 
L 132.264711 221.759987 
L 133.947051 222.308793 
L 135.62939 223.035368 
L 137.31173 224.363107 
L 138.994069 226.06568 
L 140.676409 227.327201 
L 142.358748 227.812939 
L 144.041088 227.390122 
L 145.723428 226.606819 
L 147.405767 226.155596 
L 149.088107 226.658566 
L 150.770446 228.045329 
L 152.452786 229.892868 
L 154.135126 231.066162 
L 155.817465 231.111137 
L 157.499805 230.28271 
L 159.182144 229.158541 
L 160.864484 228.212002 
L 162.546823 227.739839 
L 164.229163 227.668038 
L 165.911503 227.886563 
L 167.593842 228.693815 
L 169.276182 230.372497 
L 170.958521 233.481484 
L 172.640861 238.145899 
L 176.00554 250.218475 
L 177.68788 256.068936 
L 179.370219 260.96349 
L 181.052559 263.989429 
L 182.734899 264.528695 
L 184.417238 261.318814 
L 186.099578 252.496529 
L 187.781917 236.045997 
L 189.464257 211.728796 
L 194.511276 122.368992 
L 196.193615 97.419856 
L 197.875955 77.15863 
L 199.558294 61.703086 
L 201.240634 51.229483 
L 202.922974 45.62548 
L 204.605313 43.99647 
L 206.287653 44.547275 
L 207.969992 45.3922 
L 209.652332 45.075722 
L 211.334671 43.262329 
L 213.017011 40.8648 
L 214.699351 39.072088 
L 216.38169 38.401578 
L 218.06403 37.911964 
L 219.746369 35.73592 
L 221.428709 30.887475 
L 223.111049 25.068245 
L 224.793388 21.114573 
L 226.475728 21.639099 
L 228.158067 27.179087 
L 229.840407 36.90892 
L 231.522746 49.118519 
L 234.887426 76.498023 
L 238.252105 105.983797 
L 241.616784 135.642242 
L 243.299124 147.905757 
L 244.981463 156.882328 
L 246.663803 162.446243 
L 248.346142 165.245939 
L 250.028482 166.117561 
L 251.710822 165.392775 
L 253.393161 163.126453 
L 255.075501 159.690012 
L 256.75784 155.219814 
L 260.122519 144.987445 
L 261.804859 139.477192 
L 263.487199 133.512042 
L 266.851878 120.609617 
L 268.534217 114.939593 
L 270.216557 110.489047 
L 276.945915 96.623004 
L 278.628255 93.799294 
L 280.310594 92.874393 
L 281.992934 93.491994 
L 283.675274 94.593072 
L 285.357613 94.761595 
L 287.039953 93.408622 
L 288.722292 91.151655 
L 290.404632 89.382087 
L 292.086972 89.312375 
L 295.451651 92.051633 
L 297.13399 91.812718 
L 298.81633 89.484532 
L 300.498669 85.869159 
L 302.181009 82.758949 
L 303.863349 81.672758 
L 305.545688 82.669991 
L 307.228028 84.671524 
L 308.910367 86.433774 
L 310.592707 87.470328 
L 312.275047 88.680251 
L 313.957386 91.442886 
L 315.639726 96.974975 
L 317.322065 105.161045 
L 319.004405 114.551155 
L 320.686745 123.207823 
L 322.369084 130.099879 
L 324.051424 135.338591 
L 325.733763 139.981611 
L 327.416103 145.102118 
L 330.780782 156.720879 
L 332.463122 160.636955 
L 334.145461 161.566554 
L 335.827801 159.16373 
L 337.51014 154.039214 
L 340.87482 142.061623 
L 342.557159 137.219567 
L 344.239499 132.989196 
L 345.921838 129.069678 
L 347.604178 125.681755 
L 349.286517 123.441424 
L 350.968857 122.927781 
L 352.651197 123.996114 
L 354.333536 125.699707 
L 356.015876 126.663579 
L 357.698215 126.13846 
L 359.380555 124.651397 
L 361.062895 123.677503 
L 362.745234 124.687824 
L 364.427574 128.102326 
L 367.792253 137.692647 
L 369.474593 140.785281 
L 371.156932 142.239719 
L 372.839272 142.841796 
L 374.521611 143.791349 
L 376.203951 145.56687 
L 377.88629 147.533988 
L 379.56863 148.329956 
L 381.25097 146.653949 
L 382.933309 142.182261 
L 386.297988 129.201699 
L 387.980328 123.784692 
L 389.662668 120.174284 
L 391.345007 118.09209 
L 393.027347 116.977052 
L 396.392026 115.198015 
L 398.074365 113.897241 
L 401.439045 111.029564 
L 403.121384 109.907743 
L 406.486063 108.321787 
L 408.168403 106.951478 
L 409.850743 104.813674 
L 413.215422 99.801887 
L 414.897761 98.463935 
L 416.580101 98.843176 
L 418.26244 100.918182 
L 419.94478 103.654444 
L 421.62712 105.661115 
L 423.309459 106.194701 
L 424.991799 105.523098 
L 426.674138 104.662974 
L 428.356478 104.798713 
L 430.038818 106.304498 
L 431.721157 108.949872 
L 433.403497 111.977534 
L 435.085836 114.610107 
L 436.768176 116.572694 
L 441.815195 120.282646 
L 446.862213 125.046896 
L 448.544553 126.192769 
L 450.226893 126.801605 
L 451.909232 126.880671 
L 453.591572 126.469911 
L 456.956251 124.935112 
L 458.638591 124.697172 
L 460.32093 125.183832 
L 462.00327 126.610897 
L 463.685609 128.57966 
L 465.367949 130.291045 
L 467.050288 131.003869 
L 468.732628 130.374045 
L 472.097307 126.989523 
L 473.779647 126.368543 
L 475.461986 127.637697 
L 477.144326 130.498905 
L 478.826666 133.872751 
L 480.509005 136.366937 
L 482.191345 137.096396 
L 483.873684 135.96819 
L 485.556024 133.920045 
L 487.238363 132.445079 
L 488.920703 132.754564 
L 490.603043 134.878051 
L 493.967722 140.988151 
L 495.650061 142.937714 
L 497.332401 143.756458 
L 499.014741 143.826828 
L 504.061759 142.897536 
L 505.744099 143.476684 
L 507.426439 145.164057 
L 509.108778 147.912197 
L 512.473457 154.641093 
L 514.155797 156.680795 
L 515.838136 156.83192 
L 519.202816 154.53255 
L 520.885155 154.527972 
L 522.567495 155.867266 
L 524.249834 157.741501 
L 525.932174 158.785222 
L 527.614514 158.291213 
L 530.979193 155.260986 
L 532.661532 154.758058 
L 534.343872 155.194524 
L 536.026211 155.391754 
L 537.708551 153.955191 
L 539.390891 150.353425 
L 541.07323 145.732946 
L 542.75557 142.123795 
L 544.437909 141.293583 
L 546.120249 143.680274 
L 549.484928 152.958142 
L 551.167268 156.587885 
L 552.849607 158.727499 
L 556.214286 161.307114 
L 557.896626 162.946817 
L 559.578966 164.77754 
L 561.261305 166.319967 
L 561.261305 166.319967 
" style="fill: none; stroke: #ff7f0e; stroke-width: 1.5; stroke-linecap: square"/>
   </g>
  </g>
  <g id="axes_2">
   <g id="PathCollection_1">
    <defs>
     <path id="C0_0_532ba42e7c" d="M 0 1.118034 
C 0.296506 1.118034 0.580908 1.000231 0.790569 0.790569 
C 1.000231 0.580908 1.118034 0.296506 1.118034 -0 
C 1.118034 -0.296506 1.000231 -0.580908 0.790569 -0.790569 
C 0.580908 -1.000231 0.296506 -1.118034 0 -1.118034 
C -0.296506 -1.118034 -0.580908 -1.000231 -0.790569 -0.790569 
C -1.000231 -0.580908 -1.118034 -0.296506 -1.118034 0 
C -1.118034 0.296506 -1.000231 0.580908 -0.790569 0.790569 
C -0.580908 1.000231 -0.296506 1.118034 0 1.118034 
z
"/>
    </defs>
    <g clip-path="url(#p4d2e5b1090)">
     <use xlink:href="#C0_0_532ba42e7c" x="509.13937" y="46.64915" style="stroke: #000000"/>
    </g>
    <g clip-path="url(#p4d2e5b1090)">
     <use xlink:href="#C0_0_532ba42e7c" x="509.147251" y="56.277599" style="stroke: #000000"/>
    </g>
    <g clip-path="url(#p4d2e5b1090)">
     <use xlink:href="#C0_0_532ba42e7c" x="509.092397" y="76.413687" style="stroke: #000000"/>
    </g>
   </g>
   <g id="matplotlib.axis_3"/>
   <g id="matplotlib.axis_4"/>
   <g id="line2d_19">
    <path d="M 548.860095 73.636387 
L 548.782417 71.164635 
L 548.54969 68.702638 
L 548.162832 66.260111 
L 547.623369 63.846696 
L 546.933432 61.471916 
L 546.095742 59.145144 
L 545.113607 56.875562 
L 543.990901 54.672127 
L 542.732055 52.543535 
L 541.342038 50.498188 
L 539.826336 48.544156 
L 538.19093 46.689152 
L 536.442274 44.940496 
L 534.58727 43.30509 
L 532.633238 41.789388 
L 530.587891 40.399371 
L 528.459299 39.140526 
L 526.255865 38.017819 
L 523.986282 37.035684 
L 521.65951 36.197994 
L 519.28473 35.508057 
L 516.871315 34.968594 
L 514.428789 34.581736 
L 511.966791 34.349009 
L 509.495039 34.271331 
L 507.023286 34.349009 
L 504.561289 34.581736 
L 502.118763 34.968594 
L 499.705347 35.508057 
L 497.330567 36.197994 
L 495.003795 37.035684 
L 492.734213 38.017819 
L 490.530778 39.140526 
L 488.402187 40.399371 
L 486.356839 41.789388 
L 484.402808 43.30509 
L 482.547803 44.940496 
L 480.799148 46.689152 
L 479.163742 48.544156 
L 477.648039 50.498188 
L 476.258022 52.543535 
L 474.999177 54.672127 
L 473.876471 56.875562 
L 472.894335 59.145144 
L 472.056645 61.471916 
L 471.366708 63.846696 
L 470.827246 66.260111 
L 470.440388 68.702638 
L 470.20766 71.164635 
L 470.129982 73.636387 
L 470.20766 76.10814 
L 470.440388 78.570137 
L 470.827246 81.012663 
L 471.366708 83.426079 
L 472.056645 85.800859 
L 472.894335 88.127631 
L 473.876471 90.397213 
L 474.999177 92.600648 
L 476.258022 94.729239 
L 477.648039 96.774587 
L 479.163742 98.728619 
L 480.799148 100.583623 
L 482.547803 102.332278 
L 484.402808 103.967685 
L 486.356839 105.483387 
L 488.402187 106.873404 
L 490.530778 108.132249 
L 492.734213 109.254955 
L 495.003795 110.237091 
L 497.330567 111.074781 
L 499.705347 111.764718 
L 502.118763 112.30418 
L 504.561289 112.691038 
L 507.023286 112.923766 
L 509.495039 113.001444 
L 511.966791 112.923766 
L 514.428789 112.691038 
L 516.871315 112.30418 
L 519.28473 111.764718 
L 521.65951 111.074781 
L 523.986282 110.237091 
L 526.255865 109.254955 
L 528.459299 108.132249 
L 530.587891 106.873404 
L 532.633238 105.483387 
L 534.58727 103.967685 
L 536.442274 102.332278 
L 538.19093 100.583623 
L 539.826336 98.728619 
L 541.342038 96.774587 
L 542.732055 94.729239 
L 543.990901 92.600648 
L 545.113607 90.397213 
L 546.095742 88.127631 
L 546.933432 85.800859 
L 547.623369 83.426079 
L 548.162832 81.012663 
L 548.54969 78.570137 
L 548.782417 76.10814 
L 548.860095 73.636387 
" style="fill: none; stroke: #000000; stroke-linecap: square"/>
   </g>
   <g id="line2d_20">
    <path d="M 501.250441 35.144385 
L 509.495039 28.366573 
L 517.739637 35.144385 
" style="fill: none; stroke: #000000; stroke-linecap: square"/>
   </g>
   <g id="line2d_21">
    <path d="M 470.366173 69.266866 
L 469.342681 67.534804 
L 468.71284 67.47182 
L 467.775952 67.763121 
L 466.831191 69.266866 
L 466.980778 74.069403 
L 466.429667 80.974034 
L 467.610619 83.973651 
L 469.342681 84.532635 
L 470.996014 83.076128 
" style="fill: none; stroke: #000000; stroke-linecap: square"/>
   </g>
   <g id="line2d_22">
    <path d="M 548.623905 69.266866 
L 549.647396 67.534804 
L 550.277237 67.47182 
L 551.214125 67.763121 
L 552.158887 69.266866 
L 552.0093 74.069403 
L 552.56041 80.974034 
L 551.379459 83.973651 
L 549.647396 84.532635 
L 547.994064 83.076128 
" style="fill: none; stroke: #000000; stroke-linecap: square"/>
   </g>
  </g>
 </g>
 <defs>
  <clipPath id="p48c5b491f1">
   <rect x="44.783053" y="18.118365" width="517.083895" height="380.525145"/>
  </clipPath>
  <clipPath id="p4d2e5b1090">
   <rect x="462.12313" y="24.134829" width="94.743817" height="93.098358"/>
  </clipPath>
 </defs>
</svg>
