<?xml version="1.0" encoding="utf-8" standalone="no"?>
<!DOCTYPE svg PUBLIC "-//W3C//DTD SVG 1.1//EN"
  "http://www.w3.org/Graphics/SVG/1.1/DTD/svg11.dtd">
<svg xmlns:xlink="http://www.w3.org/1999/xlink" width="576pt" height="432pt" viewBox="0 0 576 432" xmlns="http://www.w3.org/2000/svg" version="1.1">
 <metadata>
  <rdf:RDF xmlns:dc="http://purl.org/dc/elements/1.1/" xmlns:cc="http://creativecommons.org/ns#" xmlns:rdf="http://www.w3.org/1999/02/22-rdf-syntax-ns#">
   <cc:Work>
    <dc:type rdf:resource="http://purl.org/dc/dcmitype/StillImage"/>
    <dc:date>2025-02-17T18:04:46.382570</dc:date>
    <dc:format>image/svg+xml</dc:format>
    <dc:creator>
     <cc:Agent>
      <dc:title>Matplotlib v3.10.0, https://matplotlib.org/</dc:title>
     </cc:Agent>
    </dc:creator>
   </cc:Work>
  </rdf:RDF>
 </metadata>
 <defs>
  <style type="text/css">*{stroke-linejoin: round; stroke-linecap: butt}</style>
 </defs>
 <g id="figure_1">
  <g id="patch_1">
   <path d="M 0 432 
L 576 432 
L 576 0 
L 0 0 
z
" style="fill: #ffffff"/>
  </g>
  <g id="axes_1">
   <g id="patch_2">
    <path d="M 44.783053 398.64351 
L 561.866947 398.64351 
L 561.866947 18.118365 
L 44.783053 18.118365 
L 44.783053 398.64351 
z
" style="fill: none; opacity: 0"/>
   </g>
   <g id="patch_3">
    <path d="M 44.783053 343.545827 
L 44.783053 73.216048 
" style="fill: none; stroke: #000000; stroke-width: 0.8; stroke-linejoin: miter; stroke-linecap: square"/>
   </g>
   <g id="LineCollection_1">
    <path d="M 281.92564 18.118365 
L 281.92564 398.64351 
" clip-path="url(#p5d02c8ae84)" style="fill: none; stroke-dasharray: 3.7,1.6; stroke-dashoffset: 0; stroke: #000000"/>
    <path d="M 368.061427 18.118365 
L 368.061427 398.64351 
" clip-path="url(#p5d02c8ae84)" style="fill: none; stroke-dasharray: 3.7,1.6; stroke-dashoffset: 0; stroke: #000000"/>
   </g>
   <g id="matplotlib.axis_1">
    <g id="xtick_1">
     <g id="line2d_1">
      <defs>
       <path id="mc2257cec59" d="M 0 0 
L 0 3.5 
" style="stroke: #000000; stroke-width: 0.8"/>
      </defs>
      <g>
       <use xlink:href="#mc2257cec59" x="45.052227" y="398.64351" style="stroke: #000000; stroke-width: 0.8"/>
      </g>
     </g>
     <g id="text_1">
      <!-- −0.20 -->
      <g transform="translate(29.729571 413.241947) scale(0.1 -0.1)">
       <defs>
        <path id="DejaVuSans-2212" d="M 678 2272 
L 4684 2272 
L 4684 1741 
L 678 1741 
L 678 2272 
z
" transform="scale(0.015625)"/>
        <path id="DejaVuSans-30" d="M 2034 4250 
Q 1547 4250 1301 3770 
Q 1056 3291 1056 2328 
Q 1056 1369 1301 889 
Q 1547 409 2034 409 
Q 2525 409 2770 889 
Q 3016 1369 3016 2328 
Q 3016 3291 2770 3770 
Q 2525 4250 2034 4250 
z
M 2034 4750 
Q 2819 4750 3233 4129 
Q 3647 3509 3647 2328 
Q 3647 1150 3233 529 
Q 2819 -91 2034 -91 
Q 1250 -91 836 529 
Q 422 1150 422 2328 
Q 422 3509 836 4129 
Q 1250 4750 2034 4750 
z
" transform="scale(0.015625)"/>
        <path id="DejaVuSans-2e" d="M 684 794 
L 1344 794 
L 1344 0 
L 684 0 
L 684 794 
z
" transform="scale(0.015625)"/>
        <path id="DejaVuSans-32" d="M 1228 531 
L 3431 531 
L 3431 0 
L 469 0 
L 469 531 
Q 828 903 1448 1529 
Q 2069 2156 2228 2338 
Q 2531 2678 2651 2914 
Q 2772 3150 2772 3378 
Q 2772 3750 2511 3984 
Q 2250 4219 1831 4219 
Q 1534 4219 1204 4116 
Q 875 4013 500 3803 
L 500 4441 
Q 881 4594 1212 4672 
Q 1544 4750 1819 4750 
Q 2544 4750 2975 4387 
Q 3406 4025 3406 3419 
Q 3406 3131 3298 2873 
Q 3191 2616 2906 2266 
Q 2828 2175 2409 1742 
Q 1991 1309 1228 531 
z
" transform="scale(0.015625)"/>
       </defs>
       <use xlink:href="#DejaVuSans-2212"/>
       <use xlink:href="#DejaVuSans-30" transform="translate(83.789062 0)"/>
       <use xlink:href="#DejaVuSans-2e" transform="translate(147.412109 0)"/>
       <use xlink:href="#DejaVuSans-32" transform="translate(179.199219 0)"/>
       <use xlink:href="#DejaVuSans-30" transform="translate(242.822266 0)"/>
      </g>
     </g>
    </g>
    <g id="xtick_2">
     <g id="line2d_2">
      <g>
       <use xlink:href="#mc2257cec59" x="131.188014" y="398.64351" style="stroke: #000000; stroke-width: 0.8"/>
      </g>
     </g>
     <g id="text_2">
      <!-- 0.00 -->
      <g transform="translate(120.055201 413.241947) scale(0.1 -0.1)">
       <use xlink:href="#DejaVuSans-30"/>
       <use xlink:href="#DejaVuSans-2e" transform="translate(63.623047 0)"/>
       <use xlink:href="#DejaVuSans-30" transform="translate(95.410156 0)"/>
       <use xlink:href="#DejaVuSans-30" transform="translate(159.033203 0)"/>
      </g>
     </g>
    </g>
    <g id="xtick_3">
     <g id="line2d_3">
      <g>
       <use xlink:href="#mc2257cec59" x="217.3238" y="398.64351" style="stroke: #000000; stroke-width: 0.8"/>
      </g>
     </g>
     <g id="text_3">
      <!-- 0.20 -->
      <g transform="translate(206.190988 413.241947) scale(0.1 -0.1)">
       <use xlink:href="#DejaVuSans-30"/>
       <use xlink:href="#DejaVuSans-2e" transform="translate(63.623047 0)"/>
       <use xlink:href="#DejaVuSans-32" transform="translate(95.410156 0)"/>
       <use xlink:href="#DejaVuSans-30" transform="translate(159.033203 0)"/>
      </g>
     </g>
    </g>
    <g id="xtick_4">
     <g id="line2d_4">
      <g>
       <use xlink:href="#mc2257cec59" x="281.92564" y="398.64351" style="stroke: #000000; stroke-width: 0.8"/>
      </g>
     </g>
     <g id="text_4">
      <!-- 0.35 -->
      <g transform="translate(270.792828 413.241947) scale(0.1 -0.1)">
       <defs>
        <path id="DejaVuSans-33" d="M 2597 2516 
Q 3050 2419 3304 2112 
Q 3559 1806 3559 1356 
Q 3559 666 3084 287 
Q 2609 -91 1734 -91 
Q 1441 -91 1130 -33 
Q 819 25 488 141 
L 488 750 
Q 750 597 1062 519 
Q 1375 441 1716 441 
Q 2309 441 2620 675 
Q 2931 909 2931 1356 
Q 2931 1769 2642 2001 
Q 2353 2234 1838 2234 
L 1294 2234 
L 1294 2753 
L 1863 2753 
Q 2328 2753 2575 2939 
Q 2822 3125 2822 3475 
Q 2822 3834 2567 4026 
Q 2313 4219 1838 4219 
Q 1578 4219 1281 4162 
Q 984 4106 628 3988 
L 628 4550 
Q 988 4650 1302 4700 
Q 1616 4750 1894 4750 
Q 2613 4750 3031 4423 
Q 3450 4097 3450 3541 
Q 3450 3153 3228 2886 
Q 3006 2619 2597 2516 
z
" transform="scale(0.015625)"/>
        <path id="DejaVuSans-35" d="M 691 4666 
L 3169 4666 
L 3169 4134 
L 1269 4134 
L 1269 2991 
Q 1406 3038 1543 3061 
Q 1681 3084 1819 3084 
Q 2600 3084 3056 2656 
Q 3513 2228 3513 1497 
Q 3513 744 3044 326 
Q 2575 -91 1722 -91 
Q 1428 -91 1123 -41 
Q 819 9 494 109 
L 494 744 
Q 775 591 1075 516 
Q 1375 441 1709 441 
Q 2250 441 2565 725 
Q 2881 1009 2881 1497 
Q 2881 1984 2565 2268 
Q 2250 2553 1709 2553 
Q 1456 2553 1204 2497 
Q 953 2441 691 2322 
L 691 4666 
z
" transform="scale(0.015625)"/>
       </defs>
       <use xlink:href="#DejaVuSans-30"/>
       <use xlink:href="#DejaVuSans-2e" transform="translate(63.623047 0)"/>
       <use xlink:href="#DejaVuSans-33" transform="translate(95.410156 0)"/>
       <use xlink:href="#DejaVuSans-35" transform="translate(159.033203 0)"/>
      </g>
     </g>
    </g>
    <g id="xtick_5">
     <g id="line2d_5">
      <g>
       <use xlink:href="#mc2257cec59" x="303.459587" y="398.64351" style="stroke: #000000; stroke-width: 0.8"/>
      </g>
     </g>
     <g id="text_5">
      <!-- 0.40 -->
      <g transform="translate(292.326775 413.241947) scale(0.1 -0.1)">
       <defs>
        <path id="DejaVuSans-34" d="M 2419 4116 
L 825 1625 
L 2419 1625 
L 2419 4116 
z
M 2253 4666 
L 3047 4666 
L 3047 1625 
L 3713 1625 
L 3713 1100 
L 3047 1100 
L 3047 0 
L 2419 0 
L 2419 1100 
L 313 1100 
L 313 1709 
L 2253 4666 
z
" transform="scale(0.015625)"/>
       </defs>
       <use xlink:href="#DejaVuSans-30"/>
       <use xlink:href="#DejaVuSans-2e" transform="translate(63.623047 0)"/>
       <use xlink:href="#DejaVuSans-34" transform="translate(95.410156 0)"/>
       <use xlink:href="#DejaVuSans-30" transform="translate(159.033203 0)"/>
      </g>
     </g>
    </g>
    <g id="xtick_6">
     <g id="line2d_6">
      <g>
       <use xlink:href="#mc2257cec59" x="368.061427" y="398.64351" style="stroke: #000000; stroke-width: 0.8"/>
      </g>
     </g>
     <g id="text_6">
      <!-- 0.55 -->
      <g transform="translate(356.928615 413.241947) scale(0.1 -0.1)">
       <use xlink:href="#DejaVuSans-30"/>
       <use xlink:href="#DejaVuSans-2e" transform="translate(63.623047 0)"/>
       <use xlink:href="#DejaVuSans-35" transform="translate(95.410156 0)"/>
       <use xlink:href="#DejaVuSans-35" transform="translate(159.033203 0)"/>
      </g>
     </g>
    </g>
    <g id="xtick_7">
     <g id="line2d_7">
      <g>
       <use xlink:href="#mc2257cec59" x="389.595374" y="398.64351" style="stroke: #000000; stroke-width: 0.8"/>
      </g>
     </g>
     <g id="text_7">
      <!-- 0.60 -->
      <g transform="translate(378.462561 413.241947) scale(0.1 -0.1)">
       <defs>
        <path id="DejaVuSans-36" d="M 2113 2584 
Q 1688 2584 1439 2293 
Q 1191 2003 1191 1497 
Q 1191 994 1439 701 
Q 1688 409 2113 409 
Q 2538 409 2786 701 
Q 3034 994 3034 1497 
Q 3034 2003 2786 2293 
Q 2538 2584 2113 2584 
z
M 3366 4563 
L 3366 3988 
Q 3128 4100 2886 4159 
Q 2644 4219 2406 4219 
Q 1781 4219 1451 3797 
Q 1122 3375 1075 2522 
Q 1259 2794 1537 2939 
Q 1816 3084 2150 3084 
Q 2853 3084 3261 2657 
Q 3669 2231 3669 1497 
Q 3669 778 3244 343 
Q 2819 -91 2113 -91 
Q 1303 -91 875 529 
Q 447 1150 447 2328 
Q 447 3434 972 4092 
Q 1497 4750 2381 4750 
Q 2619 4750 2861 4703 
Q 3103 4656 3366 4563 
z
" transform="scale(0.015625)"/>
       </defs>
       <use xlink:href="#DejaVuSans-30"/>
       <use xlink:href="#DejaVuSans-2e" transform="translate(63.623047 0)"/>
       <use xlink:href="#DejaVuSans-36" transform="translate(95.410156 0)"/>
       <use xlink:href="#DejaVuSans-30" transform="translate(159.033203 0)"/>
      </g>
     </g>
    </g>
    <g id="xtick_8">
     <g id="line2d_8">
      <g>
       <use xlink:href="#mc2257cec59" x="475.731161" y="398.64351" style="stroke: #000000; stroke-width: 0.8"/>
      </g>
     </g>
     <g id="text_8">
      <!-- 0.80 -->
      <g transform="translate(464.598348 413.241947) scale(0.1 -0.1)">
       <defs>
        <path id="DejaVuSans-38" d="M 2034 2216 
Q 1584 2216 1326 1975 
Q 1069 1734 1069 1313 
Q 1069 891 1326 650 
Q 1584 409 2034 409 
Q 2484 409 2743 651 
Q 3003 894 3003 1313 
Q 3003 1734 2745 1975 
Q 2488 2216 2034 2216 
z
M 1403 2484 
Q 997 2584 770 2862 
Q 544 3141 544 3541 
Q 544 4100 942 4425 
Q 1341 4750 2034 4750 
Q 2731 4750 3128 4425 
Q 3525 4100 3525 3541 
Q 3525 3141 3298 2862 
Q 3072 2584 2669 2484 
Q 3125 2378 3379 2068 
Q 3634 1759 3634 1313 
Q 3634 634 3220 271 
Q 2806 -91 2034 -91 
Q 1263 -91 848 271 
Q 434 634 434 1313 
Q 434 1759 690 2068 
Q 947 2378 1403 2484 
z
M 1172 3481 
Q 1172 3119 1398 2916 
Q 1625 2713 2034 2713 
Q 2441 2713 2670 2916 
Q 2900 3119 2900 3481 
Q 2900 3844 2670 4047 
Q 2441 4250 2034 4250 
Q 1625 4250 1398 4047 
Q 1172 3844 1172 3481 
z
" transform="scale(0.015625)"/>
       </defs>
       <use xlink:href="#DejaVuSans-30"/>
       <use xlink:href="#DejaVuSans-2e" transform="translate(63.623047 0)"/>
       <use xlink:href="#DejaVuSans-38" transform="translate(95.410156 0)"/>
       <use xlink:href="#DejaVuSans-30" transform="translate(159.033203 0)"/>
      </g>
     </g>
    </g>
    <g id="xtick_9">
     <g id="line2d_9">
      <g>
       <use xlink:href="#mc2257cec59" x="561.866947" y="398.64351" style="stroke: #000000; stroke-width: 0.8"/>
      </g>
     </g>
     <g id="text_9">
      <!-- 1.00 -->
      <g transform="translate(550.734135 413.241947) scale(0.1 -0.1)">
       <defs>
        <path id="DejaVuSans-31" d="M 794 531 
L 1825 531 
L 1825 4091 
L 703 3866 
L 703 4441 
L 1819 4666 
L 2450 4666 
L 2450 531 
L 3481 531 
L 3481 0 
L 794 0 
L 794 531 
z
" transform="scale(0.015625)"/>
       </defs>
       <use xlink:href="#DejaVuSans-31"/>
       <use xlink:href="#DejaVuSans-2e" transform="translate(63.623047 0)"/>
       <use xlink:href="#DejaVuSans-30" transform="translate(95.410156 0)"/>
       <use xlink:href="#DejaVuSans-30" transform="translate(159.033203 0)"/>
      </g>
     </g>
    </g>
    <g id="text_10">
     <!-- Time (s) -->
     <g transform="translate(282.996094 426.920073) scale(0.1 -0.1)">
      <defs>
       <path id="DejaVuSans-54" d="M -19 4666 
L 3928 4666 
L 3928 4134 
L 2272 4134 
L 2272 0 
L 1638 0 
L 1638 4134 
L -19 4134 
L -19 4666 
z
" transform="scale(0.015625)"/>
       <path id="DejaVuSans-69" d="M 603 3500 
L 1178 3500 
L 1178 0 
L 603 0 
L 603 3500 
z
M 603 4863 
L 1178 4863 
L 1178 4134 
L 603 4134 
L 603 4863 
z
" transform="scale(0.015625)"/>
       <path id="DejaVuSans-6d" d="M 3328 2828 
Q 3544 3216 3844 3400 
Q 4144 3584 4550 3584 
Q 5097 3584 5394 3201 
Q 5691 2819 5691 2113 
L 5691 0 
L 5113 0 
L 5113 2094 
Q 5113 2597 4934 2840 
Q 4756 3084 4391 3084 
Q 3944 3084 3684 2787 
Q 3425 2491 3425 1978 
L 3425 0 
L 2847 0 
L 2847 2094 
Q 2847 2600 2669 2842 
Q 2491 3084 2119 3084 
Q 1678 3084 1418 2786 
Q 1159 2488 1159 1978 
L 1159 0 
L 581 0 
L 581 3500 
L 1159 3500 
L 1159 2956 
Q 1356 3278 1631 3431 
Q 1906 3584 2284 3584 
Q 2666 3584 2933 3390 
Q 3200 3197 3328 2828 
z
" transform="scale(0.015625)"/>
       <path id="DejaVuSans-65" d="M 3597 1894 
L 3597 1613 
L 953 1613 
Q 991 1019 1311 708 
Q 1631 397 2203 397 
Q 2534 397 2845 478 
Q 3156 559 3463 722 
L 3463 178 
Q 3153 47 2828 -22 
Q 2503 -91 2169 -91 
Q 1331 -91 842 396 
Q 353 884 353 1716 
Q 353 2575 817 3079 
Q 1281 3584 2069 3584 
Q 2775 3584 3186 3129 
Q 3597 2675 3597 1894 
z
M 3022 2063 
Q 3016 2534 2758 2815 
Q 2500 3097 2075 3097 
Q 1594 3097 1305 2825 
Q 1016 2553 972 2059 
L 3022 2063 
z
" transform="scale(0.015625)"/>
       <path id="DejaVuSans-20" transform="scale(0.015625)"/>
       <path id="DejaVuSans-28" d="M 1984 4856 
Q 1566 4138 1362 3434 
Q 1159 2731 1159 2009 
Q 1159 1288 1364 580 
Q 1569 -128 1984 -844 
L 1484 -844 
Q 1016 -109 783 600 
Q 550 1309 550 2009 
Q 550 2706 781 3412 
Q 1013 4119 1484 4856 
L 1984 4856 
z
" transform="scale(0.015625)"/>
       <path id="DejaVuSans-73" d="M 2834 3397 
L 2834 2853 
Q 2591 2978 2328 3040 
Q 2066 3103 1784 3103 
Q 1356 3103 1142 2972 
Q 928 2841 928 2578 
Q 928 2378 1081 2264 
Q 1234 2150 1697 2047 
L 1894 2003 
Q 2506 1872 2764 1633 
Q 3022 1394 3022 966 
Q 3022 478 2636 193 
Q 2250 -91 1575 -91 
Q 1294 -91 989 -36 
Q 684 19 347 128 
L 347 722 
Q 666 556 975 473 
Q 1284 391 1588 391 
Q 1994 391 2212 530 
Q 2431 669 2431 922 
Q 2431 1156 2273 1281 
Q 2116 1406 1581 1522 
L 1381 1569 
Q 847 1681 609 1914 
Q 372 2147 372 2553 
Q 372 3047 722 3315 
Q 1072 3584 1716 3584 
Q 2034 3584 2315 3537 
Q 2597 3491 2834 3397 
z
" transform="scale(0.015625)"/>
       <path id="DejaVuSans-29" d="M 513 4856 
L 1013 4856 
Q 1481 4119 1714 3412 
Q 1947 2706 1947 2009 
Q 1947 1309 1714 600 
Q 1481 -109 1013 -844 
L 513 -844 
Q 928 -128 1133 580 
Q 1338 1288 1338 2009 
Q 1338 2731 1133 3434 
Q 928 4138 513 4856 
z
" transform="scale(0.015625)"/>
      </defs>
      <use xlink:href="#DejaVuSans-54"/>
      <use xlink:href="#DejaVuSans-69" transform="translate(57.958984 0)"/>
      <use xlink:href="#DejaVuSans-6d" transform="translate(85.742188 0)"/>
      <use xlink:href="#DejaVuSans-65" transform="translate(183.154297 0)"/>
      <use xlink:href="#DejaVuSans-20" transform="translate(244.677734 0)"/>
      <use xlink:href="#DejaVuSans-28" transform="translate(276.464844 0)"/>
      <use xlink:href="#DejaVuSans-73" transform="translate(315.478516 0)"/>
      <use xlink:href="#DejaVuSans-29" transform="translate(367.578125 0)"/>
     </g>
    </g>
   </g>
   <g id="matplotlib.axis_2">
    <g id="ytick_1">
     <g id="line2d_10">
      <defs>
       <path id="m115353c393" d="M 0 0 
L -3.5 0 
" style="stroke: #000000; stroke-width: 0.8"/>
      </defs>
      <g>
       <use xlink:href="#m115353c393" x="44.783053" y="343.545827" style="stroke: #000000; stroke-width: 0.8"/>
      </g>
     </g>
     <g id="text_11">
      <!-- −10 -->
      <g transform="translate(16.678365 347.345046) scale(0.1 -0.1)">
       <use xlink:href="#DejaVuSans-2212"/>
       <use xlink:href="#DejaVuSans-31" transform="translate(83.789062 0)"/>
       <use xlink:href="#DejaVuSans-30" transform="translate(147.412109 0)"/>
      </g>
     </g>
    </g>
    <g id="ytick_2">
     <g id="line2d_11">
      <g>
       <use xlink:href="#m115353c393" x="44.783053" y="275.963382" style="stroke: #000000; stroke-width: 0.8"/>
      </g>
     </g>
     <g id="text_12">
      <!-- −5 -->
      <g transform="translate(23.040865 279.762601) scale(0.1 -0.1)">
       <use xlink:href="#DejaVuSans-2212"/>
       <use xlink:href="#DejaVuSans-35" transform="translate(83.789062 0)"/>
      </g>
     </g>
    </g>
    <g id="ytick_3">
     <g id="line2d_12">
      <g>
       <use xlink:href="#m115353c393" x="44.783053" y="208.380937" style="stroke: #000000; stroke-width: 0.8"/>
      </g>
     </g>
     <g id="text_13">
      <!-- 0 -->
      <g transform="translate(31.420553 212.180156) scale(0.1 -0.1)">
       <use xlink:href="#DejaVuSans-30"/>
      </g>
     </g>
    </g>
    <g id="ytick_4">
     <g id="line2d_13">
      <g>
       <use xlink:href="#m115353c393" x="44.783053" y="140.798493" style="stroke: #000000; stroke-width: 0.8"/>
      </g>
     </g>
     <g id="text_14">
      <!-- 5 -->
      <g transform="translate(31.420553 144.597712) scale(0.1 -0.1)">
       <use xlink:href="#DejaVuSans-35"/>
      </g>
     </g>
    </g>
    <g id="ytick_5">
     <g id="line2d_14">
      <g>
       <use xlink:href="#m115353c393" x="44.783053" y="73.216048" style="stroke: #000000; stroke-width: 0.8"/>
      </g>
     </g>
     <g id="text_15">
      <!-- 10 -->
      <g transform="translate(25.058053 77.015267) scale(0.1 -0.1)">
       <use xlink:href="#DejaVuSans-31"/>
       <use xlink:href="#DejaVuSans-30" transform="translate(63.623047 0)"/>
      </g>
     </g>
    </g>
    <g id="text_16">
     <!-- µV -->
     <g transform="translate(10.598678 214.9825) rotate(-90) scale(0.1 -0.1)">
      <defs>
       <path id="DejaVuSans-b5" d="M 544 -1331 
L 544 3500 
L 1119 3500 
L 1119 1325 
Q 1119 872 1334 640 
Q 1550 409 1972 409 
Q 2434 409 2667 671 
Q 2900 934 2900 1459 
L 2900 3500 
L 3475 3500 
L 3475 806 
Q 3475 619 3529 530 
Q 3584 441 3700 441 
Q 3728 441 3778 458 
Q 3828 475 3916 513 
L 3916 50 
Q 3788 -22 3673 -56 
Q 3559 -91 3450 -91 
Q 3234 -91 3106 31 
Q 2978 153 2931 403 
Q 2775 156 2548 32 
Q 2322 -91 2016 -91 
Q 1697 -91 1473 31 
Q 1250 153 1119 397 
L 1119 -1331 
L 544 -1331 
z
" transform="scale(0.015625)"/>
       <path id="DejaVuSans-56" d="M 1831 0 
L 50 4666 
L 709 4666 
L 2188 738 
L 3669 4666 
L 4325 4666 
L 2547 0 
L 1831 0 
z
" transform="scale(0.015625)"/>
      </defs>
      <use xlink:href="#DejaVuSans-b5"/>
      <use xlink:href="#DejaVuSans-56" transform="translate(63.623047 0)"/>
     </g>
    </g>
   </g>
   <g id="patch_4">
    <path d="M 45.052227 398.64351 
L 561.866947 398.64351 
" style="fill: none; stroke: #000000; stroke-width: 0.8; stroke-linejoin: miter; stroke-linecap: square"/>
   </g>
   <g id="patch_5">
    <path d="M 44.783052 208.380937 
L 561.866947 208.380937 
" style="fill: none; stroke: #000000; stroke-width: 0.8; stroke-linejoin: miter; stroke-linecap: square"/>
   </g>
   <g id="text_17">
    <!-- CPz, CP4, P4 (median) -->
    <g transform="translate(236.600312 12.118365) scale(0.12 -0.12)">
     <defs>
      <path id="DejaVuSans-43" d="M 4122 4306 
L 4122 3641 
Q 3803 3938 3442 4084 
Q 3081 4231 2675 4231 
Q 1875 4231 1450 3742 
Q 1025 3253 1025 2328 
Q 1025 1406 1450 917 
Q 1875 428 2675 428 
Q 3081 428 3442 575 
Q 3803 722 4122 1019 
L 4122 359 
Q 3791 134 3420 21 
Q 3050 -91 2638 -91 
Q 1578 -91 968 557 
Q 359 1206 359 2328 
Q 359 3453 968 4101 
Q 1578 4750 2638 4750 
Q 3056 4750 3426 4639 
Q 3797 4528 4122 4306 
z
" transform="scale(0.015625)"/>
      <path id="DejaVuSans-50" d="M 1259 4147 
L 1259 2394 
L 2053 2394 
Q 2494 2394 2734 2622 
Q 2975 2850 2975 3272 
Q 2975 3691 2734 3919 
Q 2494 4147 2053 4147 
L 1259 4147 
z
M 628 4666 
L 2053 4666 
Q 2838 4666 3239 4311 
Q 3641 3956 3641 3272 
Q 3641 2581 3239 2228 
Q 2838 1875 2053 1875 
L 1259 1875 
L 1259 0 
L 628 0 
L 628 4666 
z
" transform="scale(0.015625)"/>
      <path id="DejaVuSans-7a" d="M 353 3500 
L 3084 3500 
L 3084 2975 
L 922 459 
L 3084 459 
L 3084 0 
L 275 0 
L 275 525 
L 2438 3041 
L 353 3041 
L 353 3500 
z
" transform="scale(0.015625)"/>
      <path id="DejaVuSans-2c" d="M 750 794 
L 1409 794 
L 1409 256 
L 897 -744 
L 494 -744 
L 750 256 
L 750 794 
z
" transform="scale(0.015625)"/>
      <path id="DejaVuSans-64" d="M 2906 2969 
L 2906 4863 
L 3481 4863 
L 3481 0 
L 2906 0 
L 2906 525 
Q 2725 213 2448 61 
Q 2172 -91 1784 -91 
Q 1150 -91 751 415 
Q 353 922 353 1747 
Q 353 2572 751 3078 
Q 1150 3584 1784 3584 
Q 2172 3584 2448 3432 
Q 2725 3281 2906 2969 
z
M 947 1747 
Q 947 1113 1208 752 
Q 1469 391 1925 391 
Q 2381 391 2643 752 
Q 2906 1113 2906 1747 
Q 2906 2381 2643 2742 
Q 2381 3103 1925 3103 
Q 1469 3103 1208 2742 
Q 947 2381 947 1747 
z
" transform="scale(0.015625)"/>
      <path id="DejaVuSans-61" d="M 2194 1759 
Q 1497 1759 1228 1600 
Q 959 1441 959 1056 
Q 959 750 1161 570 
Q 1363 391 1709 391 
Q 2188 391 2477 730 
Q 2766 1069 2766 1631 
L 2766 1759 
L 2194 1759 
z
M 3341 1997 
L 3341 0 
L 2766 0 
L 2766 531 
Q 2569 213 2275 61 
Q 1981 -91 1556 -91 
Q 1019 -91 701 211 
Q 384 513 384 1019 
Q 384 1609 779 1909 
Q 1175 2209 1959 2209 
L 2766 2209 
L 2766 2266 
Q 2766 2663 2505 2880 
Q 2244 3097 1772 3097 
Q 1472 3097 1187 3025 
Q 903 2953 641 2809 
L 641 3341 
Q 956 3463 1253 3523 
Q 1550 3584 1831 3584 
Q 2591 3584 2966 3190 
Q 3341 2797 3341 1997 
z
" transform="scale(0.015625)"/>
      <path id="DejaVuSans-6e" d="M 3513 2113 
L 3513 0 
L 2938 0 
L 2938 2094 
Q 2938 2591 2744 2837 
Q 2550 3084 2163 3084 
Q 1697 3084 1428 2787 
Q 1159 2491 1159 1978 
L 1159 0 
L 581 0 
L 581 3500 
L 1159 3500 
L 1159 2956 
Q 1366 3272 1645 3428 
Q 1925 3584 2291 3584 
Q 2894 3584 3203 3211 
Q 3513 2838 3513 2113 
z
" transform="scale(0.015625)"/>
     </defs>
     <use xlink:href="#DejaVuSans-43"/>
     <use xlink:href="#DejaVuSans-50" transform="translate(69.824219 0)"/>
     <use xlink:href="#DejaVuSans-7a" transform="translate(130.126953 0)"/>
     <use xlink:href="#DejaVuSans-2c" transform="translate(182.617188 0)"/>
     <use xlink:href="#DejaVuSans-20" transform="translate(214.404297 0)"/>
     <use xlink:href="#DejaVuSans-43" transform="translate(246.191406 0)"/>
     <use xlink:href="#DejaVuSans-50" transform="translate(316.015625 0)"/>
     <use xlink:href="#DejaVuSans-34" transform="translate(376.318359 0)"/>
     <use xlink:href="#DejaVuSans-2c" transform="translate(439.941406 0)"/>
     <use xlink:href="#DejaVuSans-20" transform="translate(471.728516 0)"/>
     <use xlink:href="#DejaVuSans-50" transform="translate(503.515625 0)"/>
     <use xlink:href="#DejaVuSans-34" transform="translate(563.818359 0)"/>
     <use xlink:href="#DejaVuSans-20" transform="translate(627.441406 0)"/>
     <use xlink:href="#DejaVuSans-28" transform="translate(659.228516 0)"/>
     <use xlink:href="#DejaVuSans-6d" transform="translate(698.242188 0)"/>
     <use xlink:href="#DejaVuSans-65" transform="translate(795.654297 0)"/>
     <use xlink:href="#DejaVuSans-64" transform="translate(857.177734 0)"/>
     <use xlink:href="#DejaVuSans-69" transform="translate(920.654297 0)"/>
     <use xlink:href="#DejaVuSans-61" transform="translate(948.4375 0)"/>
     <use xlink:href="#DejaVuSans-6e" transform="translate(1009.716797 0)"/>
     <use xlink:href="#DejaVuSans-29" transform="translate(1073.095703 0)"/>
    </g>
   </g>
   <g id="legend_1">
    <g id="patch_6">
     <path d="M 51.783053 55.75274 
L 132.92524 55.75274 
Q 134.92524 55.75274 134.92524 53.75274 
L 134.92524 25.118365 
Q 134.92524 23.118365 132.92524 23.118365 
L 51.783053 23.118365 
Q 49.783053 23.118365 49.783053 25.118365 
L 49.783053 53.75274 
Q 49.783053 55.75274 51.783053 55.75274 
z
" style="fill: #ffffff; opacity: 0.8; stroke: #cccccc; stroke-linejoin: miter"/>
    </g>
    <g id="line2d_15">
     <path d="M 53.783053 31.216803 
L 63.783053 31.216803 
L 73.783052 31.216803 
" style="fill: none; stroke: #1f77b4; stroke-width: 1.5; stroke-linecap: square"/>
    </g>
    <g id="text_18">
     <!-- eerie -->
     <g transform="translate(81.783052 34.716803) scale(0.1 -0.1)">
      <defs>
       <path id="DejaVuSans-72" d="M 2631 2963 
Q 2534 3019 2420 3045 
Q 2306 3072 2169 3072 
Q 1681 3072 1420 2755 
Q 1159 2438 1159 1844 
L 1159 0 
L 581 0 
L 581 3500 
L 1159 3500 
L 1159 2956 
Q 1341 3275 1631 3429 
Q 1922 3584 2338 3584 
Q 2397 3584 2469 3576 
Q 2541 3569 2628 3553 
L 2631 2963 
z
" transform="scale(0.015625)"/>
      </defs>
      <use xlink:href="#DejaVuSans-65"/>
      <use xlink:href="#DejaVuSans-65" transform="translate(61.523438 0)"/>
      <use xlink:href="#DejaVuSans-72" transform="translate(123.046875 0)"/>
      <use xlink:href="#DejaVuSans-69" transform="translate(164.160156 0)"/>
      <use xlink:href="#DejaVuSans-65" transform="translate(191.943359 0)"/>
     </g>
    </g>
    <g id="line2d_16">
     <path d="M 53.783053 45.894928 
L 63.783053 45.894928 
L 73.783052 45.894928 
" style="fill: none; stroke: #ff7f0e; stroke-width: 1.5; stroke-linecap: square"/>
    </g>
    <g id="text_19">
     <!-- non_eerie -->
     <g transform="translate(81.783052 49.394928) scale(0.1 -0.1)">
      <defs>
       <path id="DejaVuSans-6f" d="M 1959 3097 
Q 1497 3097 1228 2736 
Q 959 2375 959 1747 
Q 959 1119 1226 758 
Q 1494 397 1959 397 
Q 2419 397 2687 759 
Q 2956 1122 2956 1747 
Q 2956 2369 2687 2733 
Q 2419 3097 1959 3097 
z
M 1959 3584 
Q 2709 3584 3137 3096 
Q 3566 2609 3566 1747 
Q 3566 888 3137 398 
Q 2709 -91 1959 -91 
Q 1206 -91 779 398 
Q 353 888 353 1747 
Q 353 2609 779 3096 
Q 1206 3584 1959 3584 
z
" transform="scale(0.015625)"/>
       <path id="DejaVuSans-5f" d="M 3263 -1063 
L 3263 -1509 
L -63 -1509 
L -63 -1063 
L 3263 -1063 
z
" transform="scale(0.015625)"/>
      </defs>
      <use xlink:href="#DejaVuSans-6e"/>
      <use xlink:href="#DejaVuSans-6f" transform="translate(63.378906 0)"/>
      <use xlink:href="#DejaVuSans-6e" transform="translate(124.560547 0)"/>
      <use xlink:href="#DejaVuSans-5f" transform="translate(187.939453 0)"/>
      <use xlink:href="#DejaVuSans-65" transform="translate(237.939453 0)"/>
      <use xlink:href="#DejaVuSans-65" transform="translate(299.462891 0)"/>
      <use xlink:href="#DejaVuSans-72" transform="translate(360.986328 0)"/>
      <use xlink:href="#DejaVuSans-69" transform="translate(402.099609 0)"/>
      <use xlink:href="#DejaVuSans-65" transform="translate(429.882812 0)"/>
     </g>
    </g>
   </g>
   <g id="FillBetweenPolyCollection_1">
    <defs>
     <path id="md01e7f1484" d="M 44.783052 -234.827378 
L 44.783052 -220.441491 
L 46.465392 -218.900732 
L 48.147732 -218.342245 
L 49.830071 -219.177411 
L 51.512411 -220.403778 
L 53.19475 -221.429849 
L 54.87709 -221.933537 
L 56.55943 -221.492502 
L 58.241769 -220.318017 
L 59.924109 -218.39229 
L 61.606448 -216.839533 
L 63.288788 -216.776813 
L 64.971128 -217.556673 
L 66.653467 -219.188702 
L 68.335807 -220.563072 
L 70.018146 -221.151352 
L 71.700486 -220.289856 
L 73.382825 -218.772048 
L 75.065165 -217.505899 
L 76.747505 -217.139789 
L 78.429844 -218.158964 
L 80.112184 -221.056154 
L 81.794523 -225.812146 
L 83.476863 -231.055347 
L 85.159203 -235.100349 
L 86.841542 -236.895634 
L 88.523882 -235.367701 
L 90.206221 -231.679899 
L 91.888561 -227.283907 
L 93.5709 -224.242594 
L 95.25324 -222.963423 
L 96.93558 -223.833082 
L 98.617919 -225.396777 
L 100.300259 -226.71823 
L 101.982598 -226.017994 
L 103.664938 -222.956717 
L 105.347278 -219.498198 
L 107.029617 -217.379994 
L 108.711957 -217.861848 
L 110.394296 -220.396466 
L 112.076636 -222.800988 
L 113.758976 -222.258034 
L 115.441315 -217.944863 
L 117.123655 -210.897629 
L 118.805994 -203.589747 
L 120.488334 -198.904418 
L 122.170673 -198.00896 
L 123.853013 -199.301331 
L 125.535353 -200.450379 
L 127.217692 -199.206339 
L 128.900032 -195.538114 
L 130.582371 -190.043854 
L 132.264711 -185.865295 
L 133.947051 -185.239418 
L 135.62939 -188.484888 
L 137.31173 -193.530584 
L 138.994069 -197.820085 
L 140.676409 -199.285917 
L 142.358748 -197.496808 
L 144.041088 -193.692307 
L 145.723428 -189.258023 
L 147.405767 -185.860705 
L 149.088107 -184.536482 
L 150.770446 -185.332898 
L 152.452786 -188.183385 
L 154.135126 -192.559978 
L 155.817465 -196.757346 
L 157.499805 -199.350372 
L 159.182144 -198.787503 
L 160.864484 -195.324661 
L 162.546823 -190.219805 
L 164.229163 -185.010914 
L 165.911503 -181.677059 
L 167.593842 -180.055915 
L 169.276182 -180.422599 
L 170.958521 -182.083765 
L 172.640861 -183.815827 
L 174.323201 -184.897727 
L 176.00554 -185.102723 
L 177.68788 -184.4055 
L 179.370219 -182.83297 
L 181.052559 -180.795996 
L 182.734899 -179.547296 
L 184.417238 -179.18356 
L 186.099578 -180.908233 
L 187.781917 -186.003383 
L 189.464257 -197.2679 
L 191.146596 -212.686355 
L 192.828936 -231.51469 
L 194.511276 -251.795046 
L 196.193615 -269.947756 
L 197.875955 -284.581648 
L 199.558294 -294.907071 
L 201.240634 -301.186992 
L 202.922974 -303.399912 
L 204.605313 -302.003292 
L 206.287653 -297.395756 
L 207.969992 -289.823415 
L 209.652332 -281.096735 
L 211.334671 -273.749476 
L 213.017011 -270.95781 
L 214.699351 -274.79735 
L 216.38169 -285.15834 
L 218.06403 -300.43654 
L 219.746369 -317.055031 
L 221.428709 -332.763916 
L 223.111049 -346.135451 
L 224.793388 -355.363142 
L 226.475728 -359.983307 
L 228.158067 -360.688831 
L 229.840407 -358.427614 
L 231.522746 -352.35622 
L 233.205086 -341.401881 
L 234.887426 -327.482848 
L 236.569765 -311.966644 
L 238.252105 -296.880163 
L 239.934444 -283.80056 
L 241.616784 -272.54804 
L 243.299124 -263.507464 
L 244.981463 -255.406258 
L 246.663803 -247.78131 
L 248.346142 -241.811176 
L 250.028482 -237.960283 
L 251.710822 -237.950367 
L 253.393161 -242.789949 
L 255.075501 -252.477645 
L 256.75784 -266.050527 
L 258.44018 -282.167451 
L 260.122519 -299.423622 
L 261.804859 -315.890773 
L 263.487199 -331.352639 
L 265.169538 -345.127203 
L 266.851878 -356.98949 
L 268.534217 -365.840579 
L 270.216557 -370.034045 
L 271.898897 -370.309181 
L 273.581236 -366.540004 
L 275.263576 -358.988207 
L 276.945915 -348.093205 
L 278.628255 -336.682131 
L 280.310594 -326.765249 
L 281.992934 -319.110973 
L 283.675274 -314.343549 
L 285.357613 -312.248076 
L 287.039953 -312.005523 
L 288.722292 -312.353552 
L 290.404632 -312.783798 
L 292.086972 -313.203307 
L 293.769311 -314.648237 
L 295.451651 -317.65183 
L 297.13399 -322.427831 
L 298.81633 -327.869566 
L 300.498669 -332.969347 
L 302.181009 -337.243083 
L 303.863349 -341.132408 
L 305.545688 -345.857247 
L 307.228028 -351.28405 
L 308.910367 -356.807109 
L 310.592707 -361.486337 
L 312.275047 -363.701134 
L 313.957386 -363.285289 
L 315.639726 -361.888684 
L 317.322065 -361.498618 
L 319.004405 -362.95239 
L 320.686745 -365.349736 
L 322.369084 -366.950082 
L 324.051424 -366.741039 
L 325.733763 -364.204975 
L 327.416103 -360.494675 
L 329.098442 -357.377414 
L 330.780782 -355.73526 
L 332.463122 -355.448113 
L 334.145461 -355.473728 
L 335.827801 -355.828925 
L 337.51014 -356.689001 
L 339.19248 -359.491926 
L 340.87482 -365.202893 
L 342.557159 -372.578886 
L 344.239499 -380.043274 
L 345.921838 -385.726715 
L 347.604178 -388.577071 
L 349.286517 -388.868099 
L 350.968857 -389.21705 
L 352.651197 -390.297087 
L 354.333536 -392.590105 
L 356.015876 -395.150945 
L 357.698215 -396.978155 
L 359.380555 -396.938876 
L 361.062895 -394.025071 
L 362.745234 -389.695201 
L 364.427574 -385.501081 
L 366.109913 -382.617142 
L 367.792253 -381.880374 
L 369.474593 -382.630614 
L 371.156932 -382.647645 
L 372.839272 -380.823311 
L 374.521611 -376.746089 
L 376.203951 -371.083752 
L 377.88629 -366.254665 
L 379.56863 -363.175466 
L 381.25097 -362.187934 
L 382.933309 -363.021415 
L 384.615649 -363.118782 
L 386.297988 -361.792787 
L 387.980328 -360.28577 
L 389.662668 -359.202148 
L 391.345007 -360.944956 
L 393.027347 -365.81894 
L 394.709686 -372.613625 
L 396.392026 -379.081709 
L 398.074365 -383.553712 
L 399.756705 -385.486427 
L 401.439045 -385.450771 
L 403.121384 -384.436952 
L 404.803724 -382.83343 
L 406.486063 -380.309586 
L 408.168403 -376.749637 
L 409.850743 -373.165583 
L 411.533082 -370.144632 
L 413.215422 -368.355394 
L 414.897761 -367.822077 
L 416.580101 -368.172993 
L 418.26244 -367.339746 
L 419.94478 -363.3184 
L 421.62712 -356.547225 
L 423.309459 -348.597002 
L 424.991799 -342.009858 
L 426.674138 -338.455722 
L 428.356478 -337.93469 
L 430.038818 -339.274004 
L 431.721157 -340.932237 
L 433.403497 -341.968265 
L 435.085836 -342.909026 
L 436.768176 -343.077651 
L 438.450516 -342.654876 
L 440.132855 -342.358411 
L 441.815195 -342.401351 
L 443.497534 -341.9204 
L 445.179874 -340.701792 
L 446.862213 -338.737339 
L 448.544553 -336.002883 
L 450.226893 -332.88927 
L 451.909232 -329.804502 
L 453.591572 -327.25174 
L 455.273911 -325.743301 
L 456.956251 -324.846282 
L 458.638591 -325.006605 
L 460.32093 -326.120629 
L 462.00327 -327.888566 
L 463.685609 -329.163466 
L 465.367949 -329.921036 
L 467.050288 -329.654181 
L 468.732628 -327.977114 
L 470.414968 -325.459833 
L 472.097307 -322.080236 
L 473.779647 -318.116779 
L 475.461986 -314.254481 
L 477.144326 -309.690605 
L 478.826666 -305.279583 
L 480.509005 -301.13613 
L 482.191345 -298.038485 
L 483.873684 -296.431549 
L 485.556024 -296.532506 
L 487.238363 -297.82755 
L 488.920703 -299.808784 
L 490.603043 -302.509811 
L 492.285382 -306.271708 
L 493.967722 -309.429587 
L 495.650061 -311.294221 
L 497.332401 -310.098498 
L 499.014741 -305.817721 
L 500.69708 -298.403803 
L 502.37942 -289.421691 
L 504.061759 -280.92965 
L 505.744099 -273.81868 
L 507.426439 -269.330328 
L 509.108778 -268.021265 
L 510.791118 -268.977467 
L 512.473457 -271.334898 
L 514.155797 -274.47315 
L 515.838136 -278.161171 
L 517.520476 -280.635524 
L 519.202816 -282.339487 
L 520.885155 -282.985496 
L 522.567495 -282.036148 
L 524.249834 -280.067455 
L 525.932174 -278.571617 
L 527.614514 -278.34178 
L 529.296853 -279.237951 
L 530.979193 -280.566977 
L 532.661532 -282.505904 
L 534.343872 -283.884407 
L 536.026211 -284.911005 
L 537.708551 -285.618156 
L 539.390891 -286.298596 
L 541.07323 -286.409515 
L 542.75557 -284.844924 
L 544.437909 -282.156084 
L 546.120249 -278.582713 
L 547.802589 -274.393421 
L 549.484928 -270.055974 
L 551.167268 -265.683816 
L 552.849607 -262.856038 
L 554.531947 -261.02471 
L 556.214286 -258.808375 
L 557.896626 -256.243926 
L 559.578966 -253.432551 
L 561.261305 -251.140807 
L 561.261305 -268.004903 
L 561.261305 -268.004903 
L 559.578966 -271.350806 
L 557.896626 -274.378974 
L 556.214286 -277.204855 
L 554.531947 -279.600133 
L 552.849607 -281.349582 
L 551.167268 -283.727482 
L 549.484928 -288.047174 
L 547.802589 -292.796316 
L 546.120249 -297.068877 
L 544.437909 -300.209305 
L 542.75557 -301.968233 
L 541.07323 -302.944393 
L 539.390891 -303.313349 
L 537.708551 -302.960164 
L 536.026211 -302.093439 
L 534.343872 -301.393628 
L 532.661532 -299.958518 
L 530.979193 -298.042745 
L 529.296853 -296.39765 
L 527.614514 -295.809024 
L 525.932174 -296.552282 
L 524.249834 -298.238482 
L 522.567495 -300.123728 
L 520.885155 -300.988514 
L 519.202816 -300.688625 
L 517.520476 -298.862197 
L 515.838136 -296.062369 
L 514.155797 -292.4288 
L 512.473457 -289.000669 
L 510.791118 -286.237691 
L 509.108778 -285.286288 
L 507.426439 -287.107498 
L 505.744099 -291.182792 
L 504.061759 -297.538132 
L 502.37942 -305.437958 
L 500.69708 -313.766311 
L 499.014741 -320.632199 
L 497.332401 -325.085397 
L 495.650061 -326.534873 
L 493.967722 -324.936157 
L 492.285382 -321.650925 
L 490.603043 -318.588396 
L 488.920703 -315.288275 
L 487.238363 -313.077275 
L 485.556024 -311.439057 
L 483.873684 -311.393497 
L 482.191345 -313.143164 
L 480.509005 -316.078187 
L 478.826666 -320.136304 
L 477.144326 -324.73556 
L 475.461986 -329.680856 
L 473.779647 -334.28921 
L 472.097307 -338.572484 
L 470.414968 -342.098626 
L 468.732628 -344.712217 
L 467.050288 -345.904069 
L 465.367949 -345.693277 
L 463.685609 -344.596412 
L 462.00327 -343.194348 
L 460.32093 -341.932603 
L 458.638591 -340.975803 
L 456.956251 -340.608499 
L 455.273911 -340.792097 
L 453.591572 -342.292156 
L 451.909232 -344.687919 
L 450.226893 -347.5637 
L 448.544553 -350.770356 
L 446.862213 -353.63661 
L 445.179874 -355.649889 
L 443.497534 -356.944617 
L 441.815195 -357.46302 
L 440.132855 -357.597384 
L 438.450516 -357.458408 
L 436.768176 -357.535439 
L 435.085836 -356.768206 
L 433.403497 -355.580998 
L 431.721157 -354.466015 
L 430.038818 -353.096359 
L 428.356478 -352.527255 
L 426.674138 -353.670983 
L 424.991799 -357.539598 
L 423.309459 -364.120132 
L 421.62712 -371.799583 
L 419.94478 -378.486248 
L 418.26244 -382.450264 
L 416.580101 -383.044472 
L 414.897761 -382.320429 
L 413.215422 -382.406337 
L 411.533082 -384.284896 
L 409.850743 -388.114301 
L 408.168403 -392.927413 
L 406.486063 -396.978125 
L 404.803724 -399.773982 
L 403.121384 -401.632267 
L 401.439045 -402.817442 
L 399.756705 -402.996865 
L 398.074365 -401.568269 
L 396.392026 -397.396948 
L 394.709686 -391.052876 
L 393.027347 -384.625903 
L 391.345007 -380.134508 
L 389.662668 -379.049731 
L 387.980328 -380.265892 
L 386.297988 -381.992488 
L 384.615649 -383.296648 
L 382.933309 -383.015804 
L 381.25097 -382.463013 
L 379.56863 -383.711307 
L 377.88629 -387.105851 
L 376.203951 -392.073663 
L 374.521611 -397.361127 
L 372.839272 -401.277639 
L 371.156932 -402.007642 
L 369.474593 -401.036569 
L 367.792253 -399.306289 
L 366.109913 -399.527123 
L 364.427574 -401.997882 
L 362.745234 -406.509716 
L 361.062895 -410.732205 
L 359.380555 -413.637405 
L 357.698215 -413.881635 
L 356.015876 -411.910892 
L 354.333536 -409.201465 
L 352.651197 -406.626055 
L 350.968857 -404.607174 
L 349.286517 -404.075486 
L 347.604178 -403.167358 
L 345.921838 -400.963427 
L 344.239499 -396.325511 
L 342.557159 -389.848609 
L 340.87482 -383.030683 
L 339.19248 -377.812093 
L 337.51014 -374.92833 
L 335.827801 -374.044881 
L 334.145461 -373.706184 
L 332.463122 -373.634972 
L 330.780782 -373.607146 
L 329.098442 -374.80577 
L 327.416103 -377.034658 
L 325.733763 -379.649028 
L 324.051424 -381.448582 
L 322.369084 -381.932848 
L 320.686745 -380.829486 
L 319.004405 -379.172831 
L 317.322065 -378.803154 
L 315.639726 -379.500084 
L 313.957386 -380.931859 
L 312.275047 -381.26872 
L 310.592707 -379.716687 
L 308.910367 -375.173531 
L 307.228028 -369.509143 
L 305.545688 -363.536665 
L 303.863349 -358.737657 
L 302.181009 -354.793254 
L 300.498669 -350.517377 
L 298.81633 -345.387488 
L 297.13399 -339.765554 
L 295.451651 -334.692039 
L 293.769311 -331.347815 
L 292.086972 -329.33284 
L 290.404632 -328.692171 
L 288.722292 -328.515893 
L 287.039953 -328.2441 
L 285.357613 -328.192925 
L 283.675274 -329.597213 
L 281.992934 -333.933327 
L 280.310594 -341.481275 
L 278.628255 -351.472022 
L 276.945915 -362.761405 
L 275.263576 -373.442707 
L 273.581236 -381.379568 
L 271.898897 -385.508726 
L 270.216557 -385.365824 
L 268.534217 -380.847757 
L 266.851878 -372.720667 
L 265.169538 -361.013513 
L 263.487199 -347.621858 
L 261.804859 -332.613591 
L 260.122519 -316.832228 
L 258.44018 -299.85563 
L 256.75784 -283.975788 
L 255.075501 -270.614678 
L 253.393161 -260.867344 
L 251.710822 -255.776085 
L 250.028482 -255.45289 
L 248.346142 -259.023692 
L 246.663803 -264.485246 
L 244.981463 -271.957764 
L 243.299124 -280.123743 
L 241.616784 -289.04697 
L 239.934444 -299.33636 
L 238.252105 -312.017895 
L 236.569765 -327.285585 
L 234.887426 -343.3411 
L 233.205086 -358.21845 
L 231.522746 -369.531392 
L 229.840407 -376.357362 
L 228.158067 -378.753632 
L 226.475728 -377.696419 
L 224.793388 -372.686236 
L 223.111049 -363.369764 
L 221.428709 -349.864517 
L 219.746369 -333.480178 
L 218.06403 -316.135739 
L 216.38169 -300.533403 
L 214.699351 -289.812528 
L 213.017011 -285.862276 
L 211.334671 -288.381781 
L 209.652332 -295.652356 
L 207.969992 -304.337556 
L 206.287653 -311.967338 
L 204.605313 -316.742038 
L 202.922974 -318.13129 
L 201.240634 -315.908986 
L 199.558294 -310.025834 
L 197.875955 -300.224965 
L 196.193615 -286.677765 
L 194.511276 -269.076408 
L 192.828936 -249.040265 
L 191.146596 -230.162987 
L 189.464257 -214.503614 
L 187.781917 -202.853982 
L 186.099578 -196.353905 
L 184.417238 -193.598045 
L 182.734899 -192.993895 
L 181.052559 -193.926267 
L 179.370219 -195.579781 
L 177.68788 -196.476786 
L 176.00554 -196.88169 
L 174.323201 -196.501352 
L 172.640861 -195.502781 
L 170.958521 -193.779335 
L 169.276182 -192.282637 
L 167.593842 -192.250227 
L 165.911503 -193.564514 
L 164.229163 -196.830267 
L 162.546823 -201.635669 
L 160.864484 -206.737623 
L 159.182144 -210.46337 
L 157.499805 -211.190493 
L 155.817465 -209.13309 
L 154.135126 -205.539867 
L 152.452786 -201.896553 
L 150.770446 -199.25452 
L 149.088107 -198.297175 
L 147.405767 -199.308303 
L 145.723428 -202.337914 
L 144.041088 -206.843488 
L 142.358748 -210.531952 
L 140.676409 -212.331445 
L 138.994069 -211.107997 
L 137.31173 -207.13986 
L 135.62939 -202.34598 
L 133.947051 -199.160314 
L 132.264711 -199.609133 
L 130.582371 -202.877416 
L 128.900032 -207.443145 
L 127.217692 -210.570878 
L 125.535353 -211.271515 
L 123.853013 -209.883522 
L 122.170673 -208.576839 
L 120.488334 -210.132392 
L 118.805994 -215.318407 
L 117.123655 -222.713449 
L 115.441315 -229.03304 
L 113.758976 -232.090074 
L 112.076636 -231.791654 
L 110.394296 -228.851522 
L 108.711957 -226.423009 
L 107.029617 -226.462228 
L 105.347278 -229.346721 
L 103.664938 -233.342907 
L 101.982598 -236.654299 
L 100.300259 -237.768994 
L 98.617919 -236.718268 
L 96.93558 -234.685925 
L 95.25324 -233.326266 
L 93.5709 -234.58842 
L 91.888561 -237.780947 
L 90.206221 -242.058219 
L 88.523882 -245.773705 
L 86.841542 -246.805428 
L 85.159203 -244.567765 
L 83.476863 -240.334898 
L 81.794523 -235.366215 
L 80.112184 -230.813871 
L 78.429844 -227.870727 
L 76.747505 -226.830485 
L 75.065165 -227.999041 
L 73.382825 -230.179484 
L 71.700486 -231.777778 
L 70.018146 -231.902184 
L 68.335807 -230.755003 
L 66.653467 -229.420042 
L 64.971128 -228.752829 
L 63.288788 -228.240422 
L 61.606448 -228.416615 
L 59.924109 -229.00284 
L 58.241769 -230.214828 
L 56.55943 -231.430151 
L 54.87709 -231.990208 
L 53.19475 -231.840436 
L 51.512411 -231.568613 
L 49.830071 -231.119989 
L 48.147732 -231.341907 
L 46.465392 -232.694554 
L 44.783052 -234.827378 
z
" style="stroke: #1f77b4; stroke-opacity: 0.3"/>
    </defs>
    <g>
     <use xlink:href="#md01e7f1484" x="0" y="432" style="fill: #1f77b4; fill-opacity: 0.3; stroke: #1f77b4; stroke-opacity: 0.3"/>
    </g>
   </g>
   <g id="FillBetweenPolyCollection_2">
    <defs>
     <path id="m66bf78d2f3" d="M 44.783052 -239.796663 
L 44.783052 -234.672583 
L 46.465392 -235.827187 
L 48.147732 -237.006215 
L 49.830071 -237.233286 
L 51.512411 -236.640056 
L 53.19475 -235.370463 
L 54.87709 -234.11454 
L 56.55943 -233.713112 
L 58.241769 -234.430332 
L 59.924109 -235.596964 
L 61.606448 -236.425152 
L 63.288788 -236.299636 
L 64.971128 -234.864863 
L 66.653467 -232.496476 
L 68.335807 -230.317733 
L 70.018146 -229.373341 
L 71.700486 -229.289759 
L 73.382825 -229.137191 
L 75.065165 -227.782875 
L 76.747505 -224.587527 
L 78.429844 -219.838141 
L 80.112184 -215.126066 
L 81.794523 -212.371857 
L 83.476863 -212.790079 
L 85.159203 -215.983691 
L 86.841542 -220.324538 
L 88.523882 -223.843396 
L 90.206221 -224.697696 
L 91.888561 -222.857695 
L 93.5709 -219.804949 
L 95.25324 -217.10716 
L 96.93558 -216.030595 
L 98.617919 -216.47412 
L 100.300259 -217.498009 
L 101.982598 -217.482215 
L 103.664938 -215.704841 
L 105.347278 -212.557291 
L 107.029617 -209.573329 
L 108.711957 -208.01988 
L 110.394296 -208.635732 
L 112.076636 -210.784414 
L 113.758976 -213.482889 
L 115.441315 -215.305148 
L 117.123655 -215.617564 
L 118.805994 -214.697139 
L 120.488334 -213.17059 
L 122.170673 -211.663817 
L 123.853013 -210.585146 
L 125.535353 -209.968796 
L 127.217692 -209.291722 
L 128.900032 -208.481766 
L 130.582371 -207.878161 
L 132.264711 -207.130276 
L 133.947051 -206.350843 
L 135.62939 -204.765559 
L 137.31173 -202.003051 
L 138.994069 -198.025671 
L 140.676409 -193.894063 
L 142.358748 -190.129161 
L 144.041088 -187.715119 
L 145.723428 -186.509933 
L 147.405767 -185.661152 
L 149.088107 -184.605353 
L 150.770446 -183.303948 
L 152.452786 -182.615898 
L 154.135126 -183.589896 
L 155.817465 -186.416089 
L 157.499805 -190.072157 
L 159.182144 -192.851914 
L 160.864484 -193.554592 
L 162.546823 -192.040726 
L 164.229163 -188.711299 
L 165.911503 -184.882854 
L 167.593842 -181.524388 
L 169.276182 -179.18301 
L 170.958521 -177.482092 
L 172.640861 -176.35025 
L 174.323201 -175.173618 
L 176.00554 -174.131264 
L 177.68788 -173.748582 
L 179.370219 -173.733329 
L 181.052559 -173.741709 
L 182.734899 -173.783956 
L 184.417238 -174.853177 
L 186.099578 -179.235468 
L 187.781917 -189.504182 
L 189.464257 -204.993628 
L 191.146596 -224.432201 
L 192.828936 -245.368319 
L 194.511276 -265.252388 
L 196.193615 -281.891413 
L 197.875955 -294.177142 
L 199.558294 -301.195012 
L 201.240634 -303.258681 
L 202.922974 -301.388325 
L 204.605313 -297.37154 
L 206.287653 -293.129702 
L 207.969992 -290.572867 
L 209.652332 -290.586026 
L 211.334671 -292.981529 
L 213.017011 -296.77438 
L 214.699351 -301.595474 
L 216.38169 -307.496282 
L 218.06403 -315.176765 
L 219.746369 -325.281611 
L 221.428709 -337.29191 
L 223.111049 -349.492273 
L 224.793388 -359.895789 
L 226.475728 -366.543704 
L 228.158067 -368.571661 
L 229.840407 -366.153944 
L 231.522746 -360.623456 
L 233.205086 -353.464862 
L 234.887426 -344.716768 
L 236.569765 -333.445561 
L 238.252105 -319.265896 
L 239.934444 -303.468093 
L 241.616784 -288.654202 
L 243.299124 -276.534661 
L 244.981463 -267.350058 
L 246.663803 -261.342599 
L 248.346142 -258.265062 
L 250.028482 -258.097394 
L 251.710822 -260.481252 
L 253.393161 -265.319791 
L 255.075501 -271.908034 
L 256.75784 -280.018431 
L 258.44018 -289.401345 
L 260.122519 -300.21816 
L 261.804859 -311.730089 
L 263.487199 -323.400342 
L 265.169538 -334.536666 
L 266.851878 -343.90777 
L 268.534217 -350.43246 
L 270.216557 -353.543597 
L 271.898897 -354.030635 
L 273.581236 -352.825592 
L 275.263576 -350.929301 
L 276.945915 -348.124852 
L 278.628255 -343.850628 
L 280.310594 -337.817221 
L 281.992934 -330.430311 
L 283.675274 -323.384626 
L 285.357613 -318.388048 
L 287.039953 -316.137791 
L 288.722292 -315.702181 
L 290.404632 -315.0989 
L 292.086972 -313.024485 
L 293.769311 -309.204326 
L 295.451651 -305.447673 
L 297.13399 -303.784048 
L 298.81633 -305.395644 
L 300.498669 -309.218055 
L 302.181009 -313.32046 
L 303.863349 -316.205212 
L 305.545688 -317.47351 
L 307.228028 -318.014362 
L 308.910367 -318.98487 
L 310.592707 -320.797979 
L 312.275047 -322.824206 
L 313.957386 -323.597387 
L 315.639726 -321.932947 
L 317.322065 -317.751016 
L 319.004405 -312.091254 
L 320.686745 -306.543312 
L 322.369084 -301.852827 
L 324.051424 -298.289982 
L 325.733763 -295.02584 
L 327.416103 -291.454576 
L 329.098442 -287.468173 
L 330.780782 -284.194472 
L 332.463122 -283.06895 
L 334.145461 -285.522278 
L 335.827801 -291.291933 
L 337.51014 -298.703499 
L 339.19248 -306.25395 
L 340.87482 -312.596897 
L 342.557159 -317.679919 
L 344.239499 -321.898982 
L 345.921838 -325.79264 
L 347.604178 -329.312963 
L 349.286517 -331.809862 
L 350.968857 -332.94452 
L 352.651197 -332.731834 
L 354.333536 -332.117225 
L 356.015876 -331.962263 
L 357.698215 -333.328701 
L 359.380555 -335.615184 
L 361.062895 -337.498386 
L 362.745234 -337.685009 
L 364.427574 -335.577214 
L 366.109913 -331.900779 
L 367.792253 -327.891417 
L 369.474593 -325.006091 
L 371.156932 -323.337756 
L 372.839272 -321.683934 
L 374.521611 -319.338229 
L 376.203951 -316.056066 
L 377.88629 -312.320757 
L 379.56863 -309.517633 
L 381.25097 -308.739775 
L 382.933309 -310.530413 
L 384.615649 -314.052304 
L 386.297988 -317.648571 
L 387.980328 -320.406513 
L 389.662668 -321.836924 
L 391.345007 -321.971045 
L 393.027347 -321.25546 
L 394.709686 -320.39892 
L 396.392026 -320.123709 
L 398.074365 -320.994295 
L 399.756705 -323.207401 
L 401.439045 -325.816168 
L 403.121384 -327.737544 
L 404.803724 -328.423303 
L 406.486063 -327.438827 
L 408.168403 -325.631789 
L 409.850743 -324.102919 
L 411.533082 -323.515431 
L 413.215422 -323.685932 
L 414.897761 -323.857676 
L 416.580101 -323.166759 
L 418.26244 -321.169471 
L 419.94478 -318.495691 
L 421.62712 -316.02592 
L 423.309459 -314.49857 
L 424.991799 -314.030697 
L 426.674138 -313.646736 
L 428.356478 -312.602996 
L 430.038818 -310.136609 
L 431.721157 -306.662948 
L 433.403497 -302.991075 
L 435.085836 -299.589105 
L 436.768176 -296.685044 
L 438.450516 -294.289721 
L 440.132855 -292.128428 
L 441.815195 -290.344243 
L 443.497534 -289.229341 
L 445.179874 -288.648489 
L 446.862213 -288.56606 
L 448.544553 -288.381609 
L 450.226893 -287.909457 
L 451.909232 -286.935353 
L 453.591572 -285.836435 
L 455.273911 -285.107717 
L 456.956251 -284.561019 
L 458.638591 -284.072895 
L 460.32093 -282.679386 
L 462.00327 -280.427775 
L 463.685609 -277.539717 
L 465.367949 -275.181923 
L 467.050288 -273.852604 
L 468.732628 -274.131392 
L 470.414968 -275.596143 
L 472.097307 -277.134167 
L 473.779647 -277.75445 
L 475.461986 -276.760329 
L 477.144326 -274.101745 
L 478.826666 -271.021413 
L 480.509005 -268.704532 
L 482.191345 -267.851833 
L 483.873684 -268.427159 
L 485.556024 -269.692482 
L 487.238363 -270.672574 
L 488.920703 -270.478265 
L 490.603043 -269.113039 
L 492.285382 -266.581779 
L 493.967722 -263.622482 
L 495.650061 -261.020665 
L 497.332401 -258.856013 
L 499.014741 -257.481756 
L 500.69708 -257.051318 
L 502.37942 -257.021582 
L 504.061759 -256.890312 
L 505.744099 -256.116232 
L 507.426439 -254.124931 
L 509.108778 -251.439004 
L 510.791118 -248.246178 
L 512.473457 -245.227903 
L 514.155797 -243.411042 
L 515.838136 -243.118684 
L 517.520476 -243.927786 
L 519.202816 -244.696496 
L 520.885155 -244.385179 
L 522.567495 -242.885953 
L 524.249834 -240.699477 
L 525.932174 -239.036363 
L 527.614514 -238.60401 
L 529.296853 -239.460336 
L 530.979193 -240.622977 
L 532.661532 -241.463528 
L 534.343872 -241.689458 
L 536.026211 -241.790856 
L 537.708551 -242.713062 
L 539.390891 -244.826122 
L 541.07323 -247.650458 
L 542.75557 -249.516365 
L 544.437909 -249.378816 
L 546.120249 -247.151823 
L 547.802589 -243.589984 
L 549.484928 -239.993334 
L 551.167268 -237.612638 
L 552.849607 -236.086851 
L 554.531947 -234.99643 
L 556.214286 -233.368021 
L 557.896626 -231.085633 
L 559.578966 -228.164299 
L 561.261305 -225.080451 
L 561.261305 -231.532197 
L 561.261305 -231.532197 
L 559.578966 -234.564381 
L 557.896626 -237.472502 
L 556.214286 -239.812277 
L 554.531947 -241.399232 
L 552.849607 -242.470031 
L 551.167268 -244.105132 
L 549.484928 -246.627166 
L 547.802589 -250.323472 
L 546.120249 -253.935052 
L 544.437909 -256.375062 
L 542.75557 -256.577156 
L 541.07323 -254.734724 
L 539.390891 -252.002803 
L 537.708551 -249.895142 
L 536.026211 -248.975398 
L 534.343872 -249.031198 
L 532.661532 -248.813462 
L 530.979193 -248.067435 
L 529.296853 -246.90017 
L 527.614514 -246.18557 
L 525.932174 -246.63202 
L 524.249834 -248.357595 
L 522.567495 -250.369334 
L 520.885155 -251.772135 
L 519.202816 -251.87162 
L 517.520476 -250.801715 
L 515.838136 -249.83625 
L 514.155797 -250.122977 
L 512.473457 -252.06913 
L 510.791118 -255.240446 
L 509.108778 -258.669643 
L 507.426439 -261.46521 
L 505.744099 -263.382085 
L 504.061759 -264.112493 
L 502.37942 -264.18221 
L 500.69708 -264.178428 
L 499.014741 -264.703788 
L 497.332401 -265.857464 
L 495.650061 -267.983736 
L 493.967722 -270.709889 
L 492.285382 -273.550565 
L 490.603043 -275.918278 
L 488.920703 -277.355844 
L 487.238363 -277.633699 
L 485.556024 -276.804296 
L 483.873684 -275.675768 
L 482.191345 -275.197602 
L 480.509005 -276.148483 
L 478.826666 -278.565909 
L 477.144326 -281.524398 
L 475.461986 -283.91076 
L 473.779647 -284.865672 
L 472.097307 -284.229094 
L 470.414968 -282.473577 
L 468.732628 -280.937447 
L 467.050288 -280.806477 
L 465.367949 -282.173266 
L 463.685609 -284.579735 
L 462.00327 -287.309543 
L 460.32093 -289.460144 
L 458.638591 -290.575698 
L 456.956251 -291.146295 
L 455.273911 -291.58993 
L 453.591572 -292.444632 
L 451.909232 -293.650188 
L 450.226893 -294.706928 
L 448.544553 -295.450474 
L 446.862213 -295.57641 
L 445.179874 -295.506476 
L 443.497534 -295.952391 
L 441.815195 -297.147076 
L 440.132855 -299.027607 
L 438.450516 -301.29626 
L 436.768176 -303.880192 
L 435.085836 -306.848913 
L 433.403497 -310.230521 
L 431.721157 -313.738235 
L 430.038818 -316.981578 
L 428.356478 -319.219096 
L 426.674138 -320.134973 
L 424.991799 -320.345541 
L 423.309459 -320.830606 
L 421.62712 -322.323697 
L 419.94478 -324.946642 
L 418.26244 -327.855274 
L 416.580101 -329.97821 
L 414.897761 -330.834014 
L 413.215422 -330.709891 
L 411.533082 -330.55113 
L 409.850743 -331.111536 
L 408.168403 -332.538772 
L 406.486063 -334.343889 
L 404.803724 -335.322215 
L 403.121384 -334.628632 
L 401.439045 -332.342041 
L 399.756705 -329.629077 
L 398.074365 -327.39864 
L 396.392026 -326.560828 
L 394.709686 -326.798061 
L 393.027347 -327.850489 
L 391.345007 -328.644753 
L 389.662668 -328.349517 
L 387.980328 -326.900276 
L 386.297988 -324.127224 
L 384.615649 -320.547316 
L 382.933309 -317.295758 
L 381.25097 -315.750926 
L 379.56863 -316.531895 
L 377.88629 -319.35026 
L 376.203951 -322.966351 
L 374.521611 -326.180765 
L 372.839272 -328.375264 
L 371.156932 -330.09255 
L 369.474593 -332.081601 
L 367.792253 -335.141318 
L 366.109913 -339.198423 
L 364.427574 -342.937517 
L 362.745234 -344.912289 
L 361.062895 -344.766955 
L 359.380555 -342.910299 
L 357.698215 -340.610001 
L 356.015876 -339.436409 
L 354.333536 -339.659563 
L 352.651197 -340.521944 
L 350.968857 -340.68938 
L 349.286517 -339.573136 
L 347.604178 -336.814308 
L 345.921838 -333.077198 
L 344.239499 -329.18222 
L 342.557159 -324.575353 
L 340.87482 -319.285136 
L 339.19248 -312.834527 
L 337.51014 -305.242143 
L 335.827801 -297.929616 
L 334.145461 -292.290232 
L 332.463122 -289.913303 
L 330.780782 -290.977441 
L 329.098442 -294.441615 
L 327.416103 -298.542496 
L 325.733763 -302.081969 
L 324.051424 -305.419464 
L 322.369084 -309.032002 
L 320.686745 -313.637309 
L 319.004405 -319.242438 
L 317.322065 -324.980253 
L 315.639726 -329.115715 
L 313.957386 -330.643271 
L 312.275047 -329.964906 
L 310.592707 -327.868652 
L 308.910367 -326.089242 
L 307.228028 -325.005984 
L 305.545688 -324.548705 
L 303.863349 -323.252813 
L 302.181009 -320.512985 
L 300.498669 -316.529693 
L 298.81633 -312.748293 
L 297.13399 -311.118679 
L 295.451651 -312.745439 
L 293.769311 -316.567113 
L 292.086972 -320.285698 
L 290.404632 -322.230267 
L 288.722292 -322.641929 
L 287.039953 -323.262506 
L 285.357613 -325.609466 
L 283.675274 -330.925944 
L 281.992934 -338.139809 
L 280.310594 -345.519756 
L 278.628255 -351.383375 
L 276.945915 -355.40407 
L 275.263576 -358.049171 
L 273.581236 -359.971345 
L 271.898897 -361.343462 
L 270.216557 -360.964303 
L 268.534217 -357.936795 
L 266.851878 -351.453861 
L 265.169538 -342.000313 
L 263.487199 -330.736412 
L 261.804859 -318.849451 
L 260.122519 -307.226797 
L 258.44018 -296.638286 
L 256.75784 -287.208016 
L 255.075501 -278.999056 
L 253.393161 -272.312449 
L 251.710822 -267.446044 
L 250.028482 -264.783311 
L 248.346142 -264.864797 
L 246.663803 -267.981442 
L 244.981463 -274.009362 
L 243.299124 -283.410214 
L 241.616784 -295.63974 
L 239.934444 -310.37449 
L 238.252105 -325.994683 
L 236.569765 -339.802307 
L 234.887426 -350.982937 
L 233.205086 -359.802123 
L 231.522746 -367.13882 
L 229.840407 -372.756822 
L 228.158067 -375.328301 
L 226.475728 -373.348814 
L 224.793388 -366.473213 
L 223.111049 -355.909711 
L 221.428709 -343.59592 
L 219.746369 -331.50346 
L 218.06403 -321.444579 
L 216.38169 -313.706128 
L 214.699351 -307.752735 
L 213.017011 -302.852191 
L 211.334671 -298.889916 
L 209.652332 -296.444833 
L 207.969992 -296.498681 
L 206.287653 -299.099745 
L 204.605313 -303.440242 
L 202.922974 -307.602079 
L 201.240634 -309.440671 
L 199.558294 -307.362547 
L 197.875955 -300.402574 
L 196.193615 -288.204063 
L 194.511276 -271.574361 
L 192.828936 -251.703739 
L 191.146596 -230.64261 
L 189.464257 -210.860324 
L 187.781917 -195.014155 
L 186.099578 -184.563091 
L 184.417238 -180.316805 
L 182.734899 -179.392191 
L 181.052559 -179.393178 
L 179.370219 -179.552598 
L 177.68788 -179.405701 
L 176.00554 -179.528064 
L 174.323201 -180.308673 
L 172.640861 -181.457116 
L 170.958521 -182.895039 
L 169.276182 -184.710881 
L 167.593842 -187.150388 
L 165.911503 -190.474255 
L 164.229163 -194.158005 
L 162.546823 -197.3225 
L 160.864484 -198.923209 
L 159.182144 -198.272105 
L 157.499805 -195.493488 
L 155.817465 -191.71557 
L 154.135126 -188.793941 
L 152.452786 -187.607078 
L 150.770446 -188.121668 
L 149.088107 -189.460246 
L 147.405767 -190.544194 
L 145.723428 -191.406679 
L 144.041088 -192.534478 
L 142.358748 -195.033292 
L 140.676409 -198.933325 
L 138.994069 -203.226459 
L 137.31173 -207.132464 
L 135.62939 -210.001762 
L 133.947051 -211.528625 
L 132.264711 -212.18487 
L 130.582371 -212.772825 
L 128.900032 -213.406305 
L 127.217692 -214.14375 
L 125.535353 -214.90615 
L 123.853013 -215.446909 
L 122.170673 -216.302277 
L 120.488334 -217.444401 
L 118.805994 -218.6572 
L 117.123655 -219.692541 
L 115.441315 -219.611301 
L 113.758976 -217.701318 
L 112.076636 -214.674198 
L 110.394296 -212.306926 
L 108.711957 -211.73225 
L 107.029617 -213.657238 
L 105.347278 -216.975457 
L 103.664938 -220.245304 
L 101.982598 -221.975784 
L 100.300259 -221.875098 
L 98.617919 -220.754052 
L 96.93558 -220.02607 
L 95.25324 -221.036469 
L 93.5709 -223.796796 
L 91.888561 -226.875873 
L 90.206221 -228.705694 
L 88.523882 -227.742516 
L 86.841542 -224.180103 
L 85.159203 -219.725856 
L 83.476863 -216.577318 
L 81.794523 -216.259586 
L 80.112184 -219.023231 
L 78.429844 -223.820558 
L 76.747505 -228.589166 
L 75.065165 -231.832682 
L 73.382825 -233.181802 
L 71.700486 -233.397722 
L 70.018146 -233.503314 
L 68.335807 -234.601827 
L 66.653467 -236.884023 
L 64.971128 -239.352616 
L 63.288788 -240.835353 
L 61.606448 -240.903842 
L 59.924109 -239.974605 
L 58.241769 -238.706152 
L 56.55943 -238.019122 
L 54.87709 -238.3021 
L 53.19475 -239.497956 
L 51.512411 -240.687909 
L 49.830071 -241.404665 
L 48.147732 -241.35457 
L 46.465392 -240.538435 
L 44.783052 -239.796663 
z
" style="stroke: #ff7f0e; stroke-opacity: 0.3"/>
    </defs>
    <g>
     <use xlink:href="#m66bf78d2f3" x="0" y="432" style="fill: #ff7f0e; fill-opacity: 0.3; stroke: #ff7f0e; stroke-opacity: 0.3"/>
    </g>
   </g>
   <g id="line2d_17">
    <path d="M 44.783052 204.182334 
L 46.465392 206.059855 
L 48.147732 206.876015 
L 49.830071 206.759419 
L 53.19475 205.291401 
L 54.87709 204.897319 
L 56.55943 205.421183 
L 58.241769 206.674232 
L 59.924109 208.224902 
L 61.606448 209.314207 
L 63.288788 209.405822 
L 64.971128 208.743784 
L 66.653467 207.505641 
L 68.335807 206.096825 
L 70.018146 205.273561 
L 71.700486 205.715268 
L 73.382825 207.219758 
L 75.065165 208.933771 
L 76.747505 209.713734 
L 78.429844 208.767578 
L 80.112184 205.907938 
L 81.794523 201.343863 
L 83.476863 196.369633 
L 85.159203 192.245751 
L 86.841542 190.338574 
L 88.523882 191.65455 
L 90.206221 195.409546 
L 91.888561 199.665507 
L 93.5709 202.941963 
L 95.25324 204.08016 
L 96.93558 202.978921 
L 98.617919 200.916271 
L 100.300259 199.731365 
L 101.982598 200.744152 
L 103.664938 204.029585 
L 105.347278 207.629309 
L 107.029617 210.053338 
L 108.711957 209.900991 
L 110.394296 207.477743 
L 112.076636 204.812513 
L 113.758976 204.825139 
L 115.441315 208.636398 
L 117.123655 215.384185 
L 118.805994 222.613368 
L 120.488334 227.467798 
L 122.170673 228.699308 
L 125.535353 226.257896 
L 127.217692 227.246532 
L 128.900032 230.810289 
L 130.582371 235.825764 
L 132.264711 239.526442 
L 133.947051 239.911792 
L 135.62939 236.686482 
L 137.31173 231.758813 
L 138.994069 227.624314 
L 140.676409 226.196541 
L 142.358748 228.064905 
L 144.041088 231.941694 
L 145.723428 236.279996 
L 147.405767 239.464662 
L 149.088107 240.706474 
L 150.770446 239.80752 
L 152.452786 237.001409 
L 155.817465 229.213054 
L 157.499805 226.951211 
L 159.182144 227.634468 
L 160.864484 231.217605 
L 164.229163 241.20092 
L 165.911503 244.630061 
L 167.593842 246.019764 
L 169.276182 245.745545 
L 170.958521 244.204165 
L 172.640861 242.490125 
L 174.323201 241.478943 
L 176.00554 241.128914 
L 177.68788 241.73254 
L 179.370219 242.988505 
L 181.052559 244.57129 
L 182.734899 245.610232 
L 184.417238 245.611825 
L 186.099578 243.528509 
L 187.781917 237.676079 
L 189.464257 226.357495 
L 191.146596 210.628252 
L 192.828936 192.045566 
L 194.511276 171.96984 
L 196.193615 154.010408 
L 197.875955 139.789808 
L 199.558294 129.719252 
L 201.240634 123.63267 
L 202.922974 121.287688 
L 204.605313 122.554122 
L 206.287653 127.370849 
L 207.969992 134.949845 
L 209.652332 143.591387 
L 211.334671 150.683051 
L 213.017011 153.319115 
L 214.699351 149.398865 
L 216.38169 138.882487 
L 218.06403 123.627934 
L 221.428709 90.794483 
L 223.111049 77.470241 
L 224.793388 68.157748 
L 226.475728 63.336844 
L 228.158067 62.418024 
L 229.840407 64.904247 
L 231.522746 71.325643 
L 233.205086 82.159363 
L 234.887426 96.430897 
L 238.252105 127.594405 
L 239.934444 140.590543 
L 241.616784 151.257124 
L 243.299124 160.39928 
L 244.981463 168.448673 
L 246.663803 175.70291 
L 248.346142 181.582044 
L 250.028482 185.19202 
L 251.710822 185.048399 
L 253.393161 180.144084 
L 255.075501 170.358118 
L 256.75784 156.962905 
L 258.44018 141.037216 
L 261.804859 107.86187 
L 263.487199 92.540706 
L 265.169538 78.891688 
L 266.851878 67.150637 
L 268.534217 58.701153 
L 270.216557 54.307862 
L 271.898897 54.132206 
L 273.581236 58.111667 
L 275.263576 65.893019 
L 276.945915 76.471999 
L 278.628255 87.985058 
L 280.310594 98.142797 
L 281.992934 105.865365 
L 283.675274 110.297834 
L 285.357613 112.14155 
L 287.039953 112.251302 
L 292.086972 110.963791 
L 293.769311 109.275321 
L 295.451651 105.921052 
L 297.13399 100.954814 
L 298.81633 95.251752 
L 300.498669 90.205086 
L 305.545688 77.095982 
L 308.910367 65.640936 
L 310.592707 61.270992 
L 312.275047 59.418155 
L 313.957386 59.785357 
L 315.639726 61.132498 
L 317.322065 61.934089 
L 319.004405 61.092687 
L 320.686745 58.971324 
L 322.369084 57.421799 
L 324.051424 57.865359 
L 325.733763 60.17462 
L 327.416103 63.332894 
L 329.098442 66.137542 
L 330.780782 67.629884 
L 332.463122 67.764226 
L 335.827801 67.214013 
L 337.51014 66.173718 
L 339.19248 63.315999 
L 340.87482 57.968807 
L 344.239499 43.734751 
L 345.921838 38.522116 
L 347.604178 35.971908 
L 349.286517 35.161205 
L 350.968857 34.699768 
L 352.651197 33.311675 
L 354.333536 31.008266 
L 356.015876 28.210671 
L 357.698215 26.392456 
L 359.380555 26.542382 
L 361.062895 29.370933 
L 364.427574 38.03925 
L 366.109913 40.653845 
L 367.792253 41.050458 
L 369.474593 40.008929 
L 371.156932 39.427652 
L 372.839272 40.887226 
L 374.521611 44.861251 
L 376.203951 50.358171 
L 377.88629 55.440342 
L 379.56863 58.665837 
L 381.25097 59.584619 
L 382.933309 58.937799 
L 384.615649 58.778516 
L 386.297988 59.910232 
L 387.980328 61.829172 
L 389.662668 63.059174 
L 391.345007 61.513386 
L 393.027347 56.824105 
L 396.392026 43.715612 
L 398.074365 39.447929 
L 399.756705 37.66955 
L 401.439045 37.736279 
L 403.121384 39.033472 
L 404.803724 40.807323 
L 406.486063 43.420806 
L 408.168403 47.180513 
L 409.850743 51.386465 
L 411.533082 54.787608 
L 413.215422 56.669837 
L 414.897761 56.933365 
L 416.580101 56.471859 
L 418.26244 57.361077 
L 419.94478 61.218302 
L 421.62712 67.999125 
L 423.309459 75.918526 
L 424.991799 82.457698 
L 426.674138 86.212683 
L 428.356478 86.867708 
L 430.038818 85.768666 
L 431.721157 84.315443 
L 433.403497 83.032297 
L 435.085836 81.987255 
L 436.768176 81.605114 
L 440.132855 81.980992 
L 441.815195 82.169432 
L 443.497534 82.775015 
L 445.179874 83.932703 
L 446.862213 85.787565 
L 448.544553 88.528013 
L 451.909232 94.686617 
L 453.591572 97.145767 
L 455.273911 98.726018 
L 456.956251 99.344082 
L 458.638591 99.154568 
L 460.32093 98.24165 
L 463.685609 95.355781 
L 465.367949 94.31042 
L 467.050288 94.340655 
L 468.732628 95.580695 
L 470.414968 98.014022 
L 472.097307 101.498396 
L 475.461986 110.022987 
L 478.826666 119.107054 
L 480.509005 123.269819 
L 482.191345 126.374071 
L 483.873684 128.107699 
L 485.556024 128.145702 
L 487.238363 126.678388 
L 488.920703 124.469612 
L 490.603043 121.426074 
L 492.285382 117.909473 
L 493.967722 114.760069 
L 495.650061 113.130842 
L 497.332401 114.4558 
L 499.014741 118.841554 
L 500.69708 126.054872 
L 504.061759 143.014155 
L 505.744099 149.742421 
L 507.426439 153.89071 
L 509.108778 155.323051 
L 510.791118 154.52003 
L 512.473457 151.965869 
L 515.838136 145.056755 
L 517.520476 142.268126 
L 519.202816 140.505855 
L 520.885155 140.05246 
L 522.567495 140.928639 
L 524.249834 142.687375 
L 525.932174 144.237892 
L 527.614514 144.814938 
L 529.296853 144.265764 
L 530.979193 142.832496 
L 532.661532 140.916725 
L 534.343872 139.447398 
L 536.026211 138.400107 
L 537.708551 137.562455 
L 539.390891 137.195331 
L 541.07323 137.350288 
L 542.75557 138.540364 
L 544.437909 140.917968 
L 546.120249 144.398199 
L 547.802589 148.587781 
L 549.484928 153.196607 
L 551.167268 157.478939 
L 552.849607 160.201774 
L 554.531947 162.06734 
L 556.214286 164.294384 
L 557.896626 167.000927 
L 561.261305 172.694118 
L 561.261305 172.694118 
" style="fill: none; stroke: #1f77b4; stroke-width: 1.5; stroke-linecap: square"/>
   </g>
   <g id="line2d_18">
    <path d="M 44.783052 194.852311 
L 48.147732 192.891309 
L 49.830071 192.702695 
L 51.512411 193.352126 
L 54.87709 195.790137 
L 56.55943 196.136823 
L 58.241769 195.456003 
L 59.924109 194.216848 
L 61.606448 193.280051 
L 63.288788 193.429197 
L 64.971128 194.897523 
L 66.653467 197.309949 
L 68.335807 199.472806 
L 70.018146 200.540948 
L 73.382825 200.778163 
L 75.065165 202.104234 
L 76.747505 205.383458 
L 80.112184 214.952866 
L 81.794523 217.684248 
L 83.476863 217.295181 
L 85.159203 214.136718 
L 86.841542 209.750572 
L 88.523882 206.27565 
L 90.206221 205.367272 
L 91.888561 207.189015 
L 93.5709 210.231792 
L 95.25324 212.943058 
L 96.93558 214.029645 
L 98.617919 213.472762 
L 100.300259 212.401318 
L 101.982598 212.31423 
L 103.664938 214.101744 
L 107.029617 220.508248 
L 108.711957 222.192071 
L 110.394296 221.559365 
L 112.076636 219.272648 
L 113.758976 216.423578 
L 115.441315 214.553412 
L 117.123655 214.326593 
L 118.805994 215.338118 
L 122.170673 217.98886 
L 123.853013 218.901802 
L 127.217692 220.23907 
L 133.947051 223.104084 
L 135.62939 224.68648 
L 137.31173 227.474442 
L 138.994069 231.339229 
L 140.676409 235.554343 
L 142.358748 239.36795 
L 144.041088 241.850952 
L 145.723428 243.107858 
L 147.405767 243.934345 
L 149.088107 245.018372 
L 150.770446 246.305464 
L 152.452786 246.925945 
L 154.135126 245.849709 
L 155.817465 242.957554 
L 157.499805 239.244817 
L 159.182144 236.462546 
L 160.864484 235.733381 
L 162.546823 237.297201 
L 164.229163 240.543888 
L 165.911503 244.298725 
L 167.593842 247.623866 
L 169.276182 250.101589 
L 170.958521 251.862873 
L 174.323201 254.244193 
L 176.00554 255.125599 
L 177.68788 255.320058 
L 182.734899 255.344312 
L 184.417238 254.369516 
L 186.099578 250.036229 
L 187.781917 239.772081 
L 189.464257 224.105535 
L 191.146596 204.491618 
L 194.511276 163.56792 
L 196.193615 146.915297 
L 197.875955 134.7552 
L 199.558294 127.708807 
L 201.240634 125.603414 
L 202.922974 127.469512 
L 206.287653 135.860034 
L 207.969992 138.449566 
L 209.652332 138.460346 
L 211.334671 136.086174 
L 213.017011 132.154058 
L 214.699351 127.286736 
L 216.38169 121.344328 
L 218.06403 113.58909 
L 219.746369 103.494818 
L 223.111049 79.132821 
L 224.793388 68.652859 
L 226.475728 61.905063 
L 228.158067 59.944424 
L 229.840407 62.426047 
L 231.522746 67.982073 
L 233.205086 75.235753 
L 234.887426 84.103159 
L 236.569765 95.383624 
L 238.252105 109.394316 
L 241.616784 139.798683 
L 243.299124 152.029835 
L 244.981463 161.242744 
L 246.663803 167.299202 
L 248.346142 170.315475 
L 250.028482 170.471672 
L 251.710822 167.996775 
L 253.393161 163.18898 
L 255.075501 156.556778 
L 256.75784 148.482004 
L 258.44018 139.024514 
L 260.122519 128.338669 
L 265.169538 93.597318 
L 266.851878 84.11251 
L 268.534217 77.629211 
L 270.216557 74.506145 
L 271.898897 74.191911 
L 273.581236 75.497903 
L 275.263576 77.489996 
L 276.945915 80.233649 
L 278.628255 84.366748 
L 280.310594 90.405974 
L 283.675274 104.896031 
L 285.357613 110.018392 
L 287.039953 112.369447 
L 290.404632 113.260826 
L 292.086972 115.311881 
L 295.451651 122.878441 
L 297.13399 124.397588 
L 298.81633 122.860146 
L 300.498669 119.129732 
L 302.181009 115.116119 
L 303.863349 112.273148 
L 305.545688 110.994764 
L 307.228028 110.429405 
L 308.910367 109.418328 
L 312.275047 105.63063 
L 313.957386 104.947851 
L 315.639726 106.555862 
L 317.322065 110.706036 
L 320.686745 122.016483 
L 322.369084 126.624127 
L 324.051424 130.263187 
L 325.733763 133.507766 
L 327.416103 137.10729 
L 329.098442 141.167501 
L 330.780782 144.588472 
L 332.463122 145.628459 
L 334.145461 143.19788 
L 335.827801 137.54651 
L 339.19248 122.571899 
L 340.87482 116.152893 
L 342.557159 110.983751 
L 344.239499 106.585841 
L 345.921838 102.630011 
L 347.604178 99.03455 
L 349.286517 96.387633 
L 350.968857 95.167107 
L 352.651197 95.414233 
L 354.333536 96.231719 
L 356.015876 96.437756 
L 357.698215 95.223649 
L 359.380555 92.965304 
L 361.062895 91.046409 
L 362.745234 90.834726 
L 364.427574 92.905104 
L 366.109913 96.61525 
L 367.792253 100.638516 
L 369.474593 103.613531 
L 371.156932 105.470379 
L 372.839272 107.134381 
L 374.521611 109.427704 
L 376.203951 112.679601 
L 377.88629 116.343481 
L 379.56863 119.086168 
L 381.25097 119.879538 
L 382.933309 118.203803 
L 384.615649 114.87872 
L 386.297988 111.259032 
L 387.980328 108.44009 
L 389.662668 106.934635 
L 391.345007 106.697152 
L 393.027347 107.416445 
L 394.709686 108.336229 
L 396.392026 108.615226 
L 398.074365 107.717198 
L 399.756705 105.558889 
L 401.439045 102.931916 
L 403.121384 100.828949 
L 404.803724 100.148214 
L 406.486063 101.021988 
L 408.168403 102.813923 
L 409.850743 104.322976 
L 411.533082 104.946313 
L 414.897761 104.68178 
L 416.580101 105.473499 
L 418.26244 107.546025 
L 419.94478 110.401119 
L 421.62712 112.952483 
L 423.309459 114.430432 
L 424.991799 114.916126 
L 426.674138 115.202884 
L 428.356478 116.210342 
L 430.038818 118.533862 
L 431.721157 121.890126 
L 433.403497 125.543165 
L 435.085836 128.864807 
L 436.768176 131.747417 
L 438.450516 134.243504 
L 440.132855 136.470209 
L 441.815195 138.27288 
L 443.497534 139.460626 
L 445.179874 139.997894 
L 448.544553 140.114341 
L 450.226893 140.716335 
L 455.273911 143.615155 
L 458.638591 144.68812 
L 460.32093 145.971735 
L 462.00327 148.171782 
L 463.685609 150.938974 
L 465.367949 153.393867 
L 467.050288 154.730719 
L 468.732628 154.462714 
L 472.097307 151.209731 
L 473.779647 150.628326 
L 475.461986 151.706924 
L 477.144326 154.248353 
L 478.826666 157.250121 
L 480.509005 159.606645 
L 482.191345 160.515427 
L 483.873684 159.984342 
L 485.556024 158.769799 
L 487.238363 157.894156 
L 488.920703 158.136517 
L 490.603043 159.631442 
L 492.285382 162.10444 
L 495.650061 167.678075 
L 497.332401 169.763963 
L 499.014741 171.103109 
L 500.69708 171.579379 
L 502.37942 171.548101 
L 504.061759 171.63159 
L 505.744099 172.415412 
L 507.426439 174.216592 
L 509.108778 176.993213 
L 510.791118 180.337989 
L 512.473457 183.400597 
L 514.155797 185.319581 
L 515.838136 185.627554 
L 519.202816 183.88231 
L 520.885155 184.068474 
L 522.567495 185.574473 
L 524.249834 187.652135 
L 525.932174 189.278128 
L 527.614514 189.658651 
L 529.296853 188.869979 
L 530.979193 187.668461 
L 532.661532 186.864593 
L 536.026211 186.58536 
L 537.708551 185.65179 
L 539.390891 183.517225 
L 541.07323 180.772302 
L 542.75557 178.911927 
L 544.437909 179.036526 
L 546.120249 181.444067 
L 549.484928 188.731733 
L 551.167268 191.248011 
L 552.849607 192.79153 
L 554.531947 193.913586 
L 556.214286 195.441313 
L 557.896626 197.786157 
L 561.261305 203.739537 
L 561.261305 203.739537 
" style="fill: none; stroke: #ff7f0e; stroke-width: 1.5; stroke-linecap: square"/>
   </g>
  </g>
  <g id="axes_2">
   <g id="PathCollection_1">
    <defs>
     <path id="C0_0_0e38a203d5" d="M 0 1.118034 
C 0.296506 1.118034 0.580908 1.000231 0.790569 0.790569 
C 1.000231 0.580908 1.118034 0.296506 1.118034 -0 
C 1.118034 -0.296506 1.000231 -0.580908 0.790569 -0.790569 
C 0.580908 -1.000231 0.296506 -1.118034 0 -1.118034 
C -0.296506 -1.118034 -0.580908 -1.000231 -0.790569 -0.790569 
C -1.000231 -0.580908 -1.118034 -0.296506 -1.118034 0 
C -1.118034 0.296506 -1.000231 0.580908 -0.790569 0.790569 
C -0.580908 1.000231 -0.296506 1.118034 0 1.118034 
z
"/>
    </defs>
    <g clip-path="url(#p3ae9c3f7d2)">
     <use xlink:href="#C0_0_0e38a203d5" x="509.092397" y="76.413687" style="stroke: #000000"/>
    </g>
    <g clip-path="url(#p3ae9c3f7d2)">
     <use xlink:href="#C0_0_0e38a203d5" x="527.447957" y="76.963886" style="stroke: #000000"/>
    </g>
    <g clip-path="url(#p3ae9c3f7d2)">
     <use xlink:href="#C0_0_0e38a203d5" x="524.547135" y="86.07817" style="stroke: #000000"/>
    </g>
   </g>
   <g id="matplotlib.axis_3"/>
   <g id="matplotlib.axis_4"/>
   <g id="line2d_19">
    <path d="M 548.860095 73.636387 
L 548.782417 71.164635 
L 548.54969 68.702638 
L 548.162832 66.260111 
L 547.623369 63.846696 
L 546.933432 61.471916 
L 546.095742 59.145144 
L 545.113607 56.875562 
L 543.990901 54.672127 
L 542.732055 52.543535 
L 541.342038 50.498188 
L 539.826336 48.544156 
L 538.19093 46.689152 
L 536.442274 44.940496 
L 534.58727 43.30509 
L 532.633238 41.789388 
L 530.587891 40.399371 
L 528.459299 39.140526 
L 526.255865 38.017819 
L 523.986282 37.035684 
L 521.65951 36.197994 
L 519.28473 35.508057 
L 516.871315 34.968594 
L 514.428789 34.581736 
L 511.966791 34.349009 
L 509.495039 34.271331 
L 507.023286 34.349009 
L 504.561289 34.581736 
L 502.118763 34.968594 
L 499.705347 35.508057 
L 497.330567 36.197994 
L 495.003795 37.035684 
L 492.734213 38.017819 
L 490.530778 39.140526 
L 488.402187 40.399371 
L 486.356839 41.789388 
L 484.402808 43.30509 
L 482.547803 44.940496 
L 480.799148 46.689152 
L 479.163742 48.544156 
L 477.648039 50.498188 
L 476.258022 52.543535 
L 474.999177 54.672127 
L 473.876471 56.875562 
L 472.894335 59.145144 
L 472.056645 61.471916 
L 471.366708 63.846696 
L 470.827246 66.260111 
L 470.440388 68.702638 
L 470.20766 71.164635 
L 470.129982 73.636387 
L 470.20766 76.10814 
L 470.440388 78.570137 
L 470.827246 81.012663 
L 471.366708 83.426079 
L 472.056645 85.800859 
L 472.894335 88.127631 
L 473.876471 90.397213 
L 474.999177 92.600648 
L 476.258022 94.729239 
L 477.648039 96.774587 
L 479.163742 98.728619 
L 480.799148 100.583623 
L 482.547803 102.332278 
L 484.402808 103.967685 
L 486.356839 105.483387 
L 488.402187 106.873404 
L 490.530778 108.132249 
L 492.734213 109.254955 
L 495.003795 110.237091 
L 497.330567 111.074781 
L 499.705347 111.764718 
L 502.118763 112.30418 
L 504.561289 112.691038 
L 507.023286 112.923766 
L 509.495039 113.001444 
L 511.966791 112.923766 
L 514.428789 112.691038 
L 516.871315 112.30418 
L 519.28473 111.764718 
L 521.65951 111.074781 
L 523.986282 110.237091 
L 526.255865 109.254955 
L 528.459299 108.132249 
L 530.587891 106.873404 
L 532.633238 105.483387 
L 534.58727 103.967685 
L 536.442274 102.332278 
L 538.19093 100.583623 
L 539.826336 98.728619 
L 541.342038 96.774587 
L 542.732055 94.729239 
L 543.990901 92.600648 
L 545.113607 90.397213 
L 546.095742 88.127631 
L 546.933432 85.800859 
L 547.623369 83.426079 
L 548.162832 81.012663 
L 548.54969 78.570137 
L 548.782417 76.10814 
L 548.860095 73.636387 
" style="fill: none; stroke: #000000; stroke-linecap: square"/>
   </g>
   <g id="line2d_20">
    <path d="M 501.250441 35.144385 
L 509.495039 28.366573 
L 517.739637 35.144385 
" style="fill: none; stroke: #000000; stroke-linecap: square"/>
   </g>
   <g id="line2d_21">
    <path d="M 470.366173 69.266866 
L 469.342681 67.534804 
L 468.71284 67.47182 
L 467.775952 67.763121 
L 466.831191 69.266866 
L 466.980778 74.069403 
L 466.429667 80.974034 
L 467.610619 83.973651 
L 469.342681 84.532635 
L 470.996014 83.076128 
" style="fill: none; stroke: #000000; stroke-linecap: square"/>
   </g>
   <g id="line2d_22">
    <path d="M 548.623905 69.266866 
L 549.647396 67.534804 
L 550.277237 67.47182 
L 551.214125 67.763121 
L 552.158887 69.266866 
L 552.0093 74.069403 
L 552.56041 80.974034 
L 551.379459 83.973651 
L 549.647396 84.532635 
L 547.994064 83.076128 
" style="fill: none; stroke: #000000; stroke-linecap: square"/>
   </g>
  </g>
 </g>
 <defs>
  <clipPath id="p5d02c8ae84">
   <rect x="44.783053" y="18.118365" width="517.083895" height="380.525145"/>
  </clipPath>
  <clipPath id="p3ae9c3f7d2">
   <rect x="462.12313" y="24.134829" width="94.743817" height="93.098358"/>
  </clipPath>
 </defs>
</svg>
