<?xml version="1.0" encoding="utf-8" standalone="no"?>
<!DOCTYPE svg PUBLIC "-//W3C//DTD SVG 1.1//EN"
  "http://www.w3.org/Graphics/SVG/1.1/DTD/svg11.dtd">
<svg xmlns:xlink="http://www.w3.org/1999/xlink" width="576pt" height="432pt" viewBox="0 0 576 432" xmlns="http://www.w3.org/2000/svg" version="1.1">
 <metadata>
  <rdf:RDF xmlns:dc="http://purl.org/dc/elements/1.1/" xmlns:cc="http://creativecommons.org/ns#" xmlns:rdf="http://www.w3.org/1999/02/22-rdf-syntax-ns#">
   <cc:Work>
    <dc:type rdf:resource="http://purl.org/dc/dcmitype/StillImage"/>
    <dc:date>2025-02-20T17:26:02.928501</dc:date>
    <dc:format>image/svg+xml</dc:format>
    <dc:creator>
     <cc:Agent>
      <dc:title>Matplotlib v3.10.0, https://matplotlib.org/</dc:title>
     </cc:Agent>
    </dc:creator>
   </cc:Work>
  </rdf:RDF>
 </metadata>
 <defs>
  <style type="text/css">*{stroke-linejoin: round; stroke-linecap: butt}</style>
 </defs>
 <g id="figure_1">
  <g id="patch_1">
   <path d="M 0 432 
L 576 432 
L 576 0 
L 0 0 
z
" style="fill: #ffffff"/>
  </g>
  <g id="axes_1">
   <g id="patch_2">
    <path d="M 47.961178 398.64351 
L 561.866947 398.64351 
L 561.866947 18.118365 
L 47.961178 18.118365 
L 47.961178 398.64351 
z
" style="fill: none; opacity: 0"/>
   </g>
   <g id="patch_3">
    <path d="M 47.961178 357.649149 
L 47.961178 59.112726 
" style="fill: none; stroke: #000000; stroke-width: 0.8; stroke-linejoin: miter; stroke-linecap: square"/>
   </g>
   <g id="LineCollection_1">
    <path d="M 189.479216 18.118365 
L 189.479216 398.64351 
" clip-path="url(#p17ce0834de)" style="fill: none; stroke-dasharray: 3.7,1.6; stroke-dashoffset: 0; stroke: #000000"/>
    <path d="M 219.441447 18.118365 
L 219.441447 398.64351 
" clip-path="url(#p17ce0834de)" style="fill: none; stroke-dasharray: 3.7,1.6; stroke-dashoffset: 0; stroke: #000000"/>
   </g>
   <g id="matplotlib.axis_1">
    <g id="xtick_1">
     <g id="line2d_1">
      <defs>
       <path id="m3268c165c1" d="M 0 0 
L 0 3.5 
" style="stroke: #000000; stroke-width: 0.8"/>
      </defs>
      <g>
       <use xlink:href="#m3268c165c1" x="48.228697" y="398.64351" style="stroke: #000000; stroke-width: 0.8"/>
      </g>
     </g>
     <g id="text_1">
      <!-- −0.20 -->
      <g transform="translate(32.906041 413.241947) scale(0.1 -0.1)">
       <defs>
        <path id="DejaVuSans-2212" d="M 678 2272 
L 4684 2272 
L 4684 1741 
L 678 1741 
L 678 2272 
z
" transform="scale(0.015625)"/>
        <path id="DejaVuSans-30" d="M 2034 4250 
Q 1547 4250 1301 3770 
Q 1056 3291 1056 2328 
Q 1056 1369 1301 889 
Q 1547 409 2034 409 
Q 2525 409 2770 889 
Q 3016 1369 3016 2328 
Q 3016 3291 2770 3770 
Q 2525 4250 2034 4250 
z
M 2034 4750 
Q 2819 4750 3233 4129 
Q 3647 3509 3647 2328 
Q 3647 1150 3233 529 
Q 2819 -91 2034 -91 
Q 1250 -91 836 529 
Q 422 1150 422 2328 
Q 422 3509 836 4129 
Q 1250 4750 2034 4750 
z
" transform="scale(0.015625)"/>
        <path id="DejaVuSans-2e" d="M 684 794 
L 1344 794 
L 1344 0 
L 684 0 
L 684 794 
z
" transform="scale(0.015625)"/>
        <path id="DejaVuSans-32" d="M 1228 531 
L 3431 531 
L 3431 0 
L 469 0 
L 469 531 
Q 828 903 1448 1529 
Q 2069 2156 2228 2338 
Q 2531 2678 2651 2914 
Q 2772 3150 2772 3378 
Q 2772 3750 2511 3984 
Q 2250 4219 1831 4219 
Q 1534 4219 1204 4116 
Q 875 4013 500 3803 
L 500 4441 
Q 881 4594 1212 4672 
Q 1544 4750 1819 4750 
Q 2544 4750 2975 4387 
Q 3406 4025 3406 3419 
Q 3406 3131 3298 2873 
Q 3191 2616 2906 2266 
Q 2828 2175 2409 1742 
Q 1991 1309 1228 531 
z
" transform="scale(0.015625)"/>
       </defs>
       <use xlink:href="#DejaVuSans-2212"/>
       <use xlink:href="#DejaVuSans-30" transform="translate(83.789062 0)"/>
       <use xlink:href="#DejaVuSans-2e" transform="translate(147.412109 0)"/>
       <use xlink:href="#DejaVuSans-32" transform="translate(179.199219 0)"/>
       <use xlink:href="#DejaVuSans-30" transform="translate(242.822266 0)"/>
      </g>
     </g>
    </g>
    <g id="xtick_2">
     <g id="line2d_2">
      <g>
       <use xlink:href="#m3268c165c1" x="133.835072" y="398.64351" style="stroke: #000000; stroke-width: 0.8"/>
      </g>
     </g>
     <g id="text_2">
      <!-- 0.00 -->
      <g transform="translate(122.70226 413.241947) scale(0.1 -0.1)">
       <use xlink:href="#DejaVuSans-30"/>
       <use xlink:href="#DejaVuSans-2e" transform="translate(63.623047 0)"/>
       <use xlink:href="#DejaVuSans-30" transform="translate(95.410156 0)"/>
       <use xlink:href="#DejaVuSans-30" transform="translate(159.033203 0)"/>
      </g>
     </g>
    </g>
    <g id="xtick_3">
     <g id="line2d_3">
      <g>
       <use xlink:href="#m3268c165c1" x="189.479216" y="398.64351" style="stroke: #000000; stroke-width: 0.8"/>
      </g>
     </g>
     <g id="text_3">
      <!-- 0.13 -->
      <g transform="translate(178.346404 413.241947) scale(0.1 -0.1)">
       <defs>
        <path id="DejaVuSans-31" d="M 794 531 
L 1825 531 
L 1825 4091 
L 703 3866 
L 703 4441 
L 1819 4666 
L 2450 4666 
L 2450 531 
L 3481 531 
L 3481 0 
L 794 0 
L 794 531 
z
" transform="scale(0.015625)"/>
        <path id="DejaVuSans-33" d="M 2597 2516 
Q 3050 2419 3304 2112 
Q 3559 1806 3559 1356 
Q 3559 666 3084 287 
Q 2609 -91 1734 -91 
Q 1441 -91 1130 -33 
Q 819 25 488 141 
L 488 750 
Q 750 597 1062 519 
Q 1375 441 1716 441 
Q 2309 441 2620 675 
Q 2931 909 2931 1356 
Q 2931 1769 2642 2001 
Q 2353 2234 1838 2234 
L 1294 2234 
L 1294 2753 
L 1863 2753 
Q 2328 2753 2575 2939 
Q 2822 3125 2822 3475 
Q 2822 3834 2567 4026 
Q 2313 4219 1838 4219 
Q 1578 4219 1281 4162 
Q 984 4106 628 3988 
L 628 4550 
Q 988 4650 1302 4700 
Q 1616 4750 1894 4750 
Q 2613 4750 3031 4423 
Q 3450 4097 3450 3541 
Q 3450 3153 3228 2886 
Q 3006 2619 2597 2516 
z
" transform="scale(0.015625)"/>
       </defs>
       <use xlink:href="#DejaVuSans-30"/>
       <use xlink:href="#DejaVuSans-2e" transform="translate(63.623047 0)"/>
       <use xlink:href="#DejaVuSans-31" transform="translate(95.410156 0)"/>
       <use xlink:href="#DejaVuSans-33" transform="translate(159.033203 0)"/>
      </g>
     </g>
    </g>
    <g id="xtick_4">
     <g id="line2d_4">
      <g>
       <use xlink:href="#m3268c165c1" x="219.441447" y="398.64351" style="stroke: #000000; stroke-width: 0.8"/>
      </g>
     </g>
     <g id="text_4">
      <!-- 0.20 -->
      <g transform="translate(208.308635 413.241947) scale(0.1 -0.1)">
       <use xlink:href="#DejaVuSans-30"/>
       <use xlink:href="#DejaVuSans-2e" transform="translate(63.623047 0)"/>
       <use xlink:href="#DejaVuSans-32" transform="translate(95.410156 0)"/>
       <use xlink:href="#DejaVuSans-30" transform="translate(159.033203 0)"/>
      </g>
     </g>
    </g>
    <g id="xtick_5">
     <g id="line2d_5">
      <g>
       <use xlink:href="#m3268c165c1" x="219.441447" y="398.64351" style="stroke: #000000; stroke-width: 0.8"/>
      </g>
     </g>
     <g id="text_5">
      <!-- 0.20 -->
      <g transform="translate(208.308635 413.241947) scale(0.1 -0.1)">
       <use xlink:href="#DejaVuSans-30"/>
       <use xlink:href="#DejaVuSans-2e" transform="translate(63.623047 0)"/>
       <use xlink:href="#DejaVuSans-32" transform="translate(95.410156 0)"/>
       <use xlink:href="#DejaVuSans-30" transform="translate(159.033203 0)"/>
      </g>
     </g>
    </g>
    <g id="xtick_6">
     <g id="line2d_6">
      <g>
       <use xlink:href="#m3268c165c1" x="305.047822" y="398.64351" style="stroke: #000000; stroke-width: 0.8"/>
      </g>
     </g>
     <g id="text_6">
      <!-- 0.40 -->
      <g transform="translate(293.91501 413.241947) scale(0.1 -0.1)">
       <defs>
        <path id="DejaVuSans-34" d="M 2419 4116 
L 825 1625 
L 2419 1625 
L 2419 4116 
z
M 2253 4666 
L 3047 4666 
L 3047 1625 
L 3713 1625 
L 3713 1100 
L 3047 1100 
L 3047 0 
L 2419 0 
L 2419 1100 
L 313 1100 
L 313 1709 
L 2253 4666 
z
" transform="scale(0.015625)"/>
       </defs>
       <use xlink:href="#DejaVuSans-30"/>
       <use xlink:href="#DejaVuSans-2e" transform="translate(63.623047 0)"/>
       <use xlink:href="#DejaVuSans-34" transform="translate(95.410156 0)"/>
       <use xlink:href="#DejaVuSans-30" transform="translate(159.033203 0)"/>
      </g>
     </g>
    </g>
    <g id="xtick_7">
     <g id="line2d_7">
      <g>
       <use xlink:href="#m3268c165c1" x="390.654197" y="398.64351" style="stroke: #000000; stroke-width: 0.8"/>
      </g>
     </g>
     <g id="text_7">
      <!-- 0.60 -->
      <g transform="translate(379.521385 413.241947) scale(0.1 -0.1)">
       <defs>
        <path id="DejaVuSans-36" d="M 2113 2584 
Q 1688 2584 1439 2293 
Q 1191 2003 1191 1497 
Q 1191 994 1439 701 
Q 1688 409 2113 409 
Q 2538 409 2786 701 
Q 3034 994 3034 1497 
Q 3034 2003 2786 2293 
Q 2538 2584 2113 2584 
z
M 3366 4563 
L 3366 3988 
Q 3128 4100 2886 4159 
Q 2644 4219 2406 4219 
Q 1781 4219 1451 3797 
Q 1122 3375 1075 2522 
Q 1259 2794 1537 2939 
Q 1816 3084 2150 3084 
Q 2853 3084 3261 2657 
Q 3669 2231 3669 1497 
Q 3669 778 3244 343 
Q 2819 -91 2113 -91 
Q 1303 -91 875 529 
Q 447 1150 447 2328 
Q 447 3434 972 4092 
Q 1497 4750 2381 4750 
Q 2619 4750 2861 4703 
Q 3103 4656 3366 4563 
z
" transform="scale(0.015625)"/>
       </defs>
       <use xlink:href="#DejaVuSans-30"/>
       <use xlink:href="#DejaVuSans-2e" transform="translate(63.623047 0)"/>
       <use xlink:href="#DejaVuSans-36" transform="translate(95.410156 0)"/>
       <use xlink:href="#DejaVuSans-30" transform="translate(159.033203 0)"/>
      </g>
     </g>
    </g>
    <g id="xtick_8">
     <g id="line2d_8">
      <g>
       <use xlink:href="#m3268c165c1" x="476.260572" y="398.64351" style="stroke: #000000; stroke-width: 0.8"/>
      </g>
     </g>
     <g id="text_8">
      <!-- 0.80 -->
      <g transform="translate(465.12776 413.241947) scale(0.1 -0.1)">
       <defs>
        <path id="DejaVuSans-38" d="M 2034 2216 
Q 1584 2216 1326 1975 
Q 1069 1734 1069 1313 
Q 1069 891 1326 650 
Q 1584 409 2034 409 
Q 2484 409 2743 651 
Q 3003 894 3003 1313 
Q 3003 1734 2745 1975 
Q 2488 2216 2034 2216 
z
M 1403 2484 
Q 997 2584 770 2862 
Q 544 3141 544 3541 
Q 544 4100 942 4425 
Q 1341 4750 2034 4750 
Q 2731 4750 3128 4425 
Q 3525 4100 3525 3541 
Q 3525 3141 3298 2862 
Q 3072 2584 2669 2484 
Q 3125 2378 3379 2068 
Q 3634 1759 3634 1313 
Q 3634 634 3220 271 
Q 2806 -91 2034 -91 
Q 1263 -91 848 271 
Q 434 634 434 1313 
Q 434 1759 690 2068 
Q 947 2378 1403 2484 
z
M 1172 3481 
Q 1172 3119 1398 2916 
Q 1625 2713 2034 2713 
Q 2441 2713 2670 2916 
Q 2900 3119 2900 3481 
Q 2900 3844 2670 4047 
Q 2441 4250 2034 4250 
Q 1625 4250 1398 4047 
Q 1172 3844 1172 3481 
z
" transform="scale(0.015625)"/>
       </defs>
       <use xlink:href="#DejaVuSans-30"/>
       <use xlink:href="#DejaVuSans-2e" transform="translate(63.623047 0)"/>
       <use xlink:href="#DejaVuSans-38" transform="translate(95.410156 0)"/>
       <use xlink:href="#DejaVuSans-30" transform="translate(159.033203 0)"/>
      </g>
     </g>
    </g>
    <g id="xtick_9">
     <g id="line2d_9">
      <g>
       <use xlink:href="#m3268c165c1" x="561.866947" y="398.64351" style="stroke: #000000; stroke-width: 0.8"/>
      </g>
     </g>
     <g id="text_9">
      <!-- 1.00 -->
      <g transform="translate(550.734135 413.241947) scale(0.1 -0.1)">
       <use xlink:href="#DejaVuSans-31"/>
       <use xlink:href="#DejaVuSans-2e" transform="translate(63.623047 0)"/>
       <use xlink:href="#DejaVuSans-30" transform="translate(95.410156 0)"/>
       <use xlink:href="#DejaVuSans-30" transform="translate(159.033203 0)"/>
      </g>
     </g>
    </g>
    <g id="text_10">
     <!-- Time (s) -->
     <g transform="translate(284.585156 426.920073) scale(0.1 -0.1)">
      <defs>
       <path id="DejaVuSans-54" d="M -19 4666 
L 3928 4666 
L 3928 4134 
L 2272 4134 
L 2272 0 
L 1638 0 
L 1638 4134 
L -19 4134 
L -19 4666 
z
" transform="scale(0.015625)"/>
       <path id="DejaVuSans-69" d="M 603 3500 
L 1178 3500 
L 1178 0 
L 603 0 
L 603 3500 
z
M 603 4863 
L 1178 4863 
L 1178 4134 
L 603 4134 
L 603 4863 
z
" transform="scale(0.015625)"/>
       <path id="DejaVuSans-6d" d="M 3328 2828 
Q 3544 3216 3844 3400 
Q 4144 3584 4550 3584 
Q 5097 3584 5394 3201 
Q 5691 2819 5691 2113 
L 5691 0 
L 5113 0 
L 5113 2094 
Q 5113 2597 4934 2840 
Q 4756 3084 4391 3084 
Q 3944 3084 3684 2787 
Q 3425 2491 3425 1978 
L 3425 0 
L 2847 0 
L 2847 2094 
Q 2847 2600 2669 2842 
Q 2491 3084 2119 3084 
Q 1678 3084 1418 2786 
Q 1159 2488 1159 1978 
L 1159 0 
L 581 0 
L 581 3500 
L 1159 3500 
L 1159 2956 
Q 1356 3278 1631 3431 
Q 1906 3584 2284 3584 
Q 2666 3584 2933 3390 
Q 3200 3197 3328 2828 
z
" transform="scale(0.015625)"/>
       <path id="DejaVuSans-65" d="M 3597 1894 
L 3597 1613 
L 953 1613 
Q 991 1019 1311 708 
Q 1631 397 2203 397 
Q 2534 397 2845 478 
Q 3156 559 3463 722 
L 3463 178 
Q 3153 47 2828 -22 
Q 2503 -91 2169 -91 
Q 1331 -91 842 396 
Q 353 884 353 1716 
Q 353 2575 817 3079 
Q 1281 3584 2069 3584 
Q 2775 3584 3186 3129 
Q 3597 2675 3597 1894 
z
M 3022 2063 
Q 3016 2534 2758 2815 
Q 2500 3097 2075 3097 
Q 1594 3097 1305 2825 
Q 1016 2553 972 2059 
L 3022 2063 
z
" transform="scale(0.015625)"/>
       <path id="DejaVuSans-20" transform="scale(0.015625)"/>
       <path id="DejaVuSans-28" d="M 1984 4856 
Q 1566 4138 1362 3434 
Q 1159 2731 1159 2009 
Q 1159 1288 1364 580 
Q 1569 -128 1984 -844 
L 1484 -844 
Q 1016 -109 783 600 
Q 550 1309 550 2009 
Q 550 2706 781 3412 
Q 1013 4119 1484 4856 
L 1984 4856 
z
" transform="scale(0.015625)"/>
       <path id="DejaVuSans-73" d="M 2834 3397 
L 2834 2853 
Q 2591 2978 2328 3040 
Q 2066 3103 1784 3103 
Q 1356 3103 1142 2972 
Q 928 2841 928 2578 
Q 928 2378 1081 2264 
Q 1234 2150 1697 2047 
L 1894 2003 
Q 2506 1872 2764 1633 
Q 3022 1394 3022 966 
Q 3022 478 2636 193 
Q 2250 -91 1575 -91 
Q 1294 -91 989 -36 
Q 684 19 347 128 
L 347 722 
Q 666 556 975 473 
Q 1284 391 1588 391 
Q 1994 391 2212 530 
Q 2431 669 2431 922 
Q 2431 1156 2273 1281 
Q 2116 1406 1581 1522 
L 1381 1569 
Q 847 1681 609 1914 
Q 372 2147 372 2553 
Q 372 3047 722 3315 
Q 1072 3584 1716 3584 
Q 2034 3584 2315 3537 
Q 2597 3491 2834 3397 
z
" transform="scale(0.015625)"/>
       <path id="DejaVuSans-29" d="M 513 4856 
L 1013 4856 
Q 1481 4119 1714 3412 
Q 1947 2706 1947 2009 
Q 1947 1309 1714 600 
Q 1481 -109 1013 -844 
L 513 -844 
Q 928 -128 1133 580 
Q 1338 1288 1338 2009 
Q 1338 2731 1133 3434 
Q 928 4138 513 4856 
z
" transform="scale(0.015625)"/>
      </defs>
      <use xlink:href="#DejaVuSans-54"/>
      <use xlink:href="#DejaVuSans-69" transform="translate(57.958984 0)"/>
      <use xlink:href="#DejaVuSans-6d" transform="translate(85.742188 0)"/>
      <use xlink:href="#DejaVuSans-65" transform="translate(183.154297 0)"/>
      <use xlink:href="#DejaVuSans-20" transform="translate(244.677734 0)"/>
      <use xlink:href="#DejaVuSans-28" transform="translate(276.464844 0)"/>
      <use xlink:href="#DejaVuSans-73" transform="translate(315.478516 0)"/>
      <use xlink:href="#DejaVuSans-29" transform="translate(367.578125 0)"/>
     </g>
    </g>
   </g>
   <g id="matplotlib.axis_2">
    <g id="ytick_1">
     <g id="line2d_10">
      <defs>
       <path id="mf73906b186" d="M 0 0 
L -3.5 0 
" style="stroke: #000000; stroke-width: 0.8"/>
      </defs>
      <g>
       <use xlink:href="#mf73906b186" x="47.961178" y="357.649149" style="stroke: #000000; stroke-width: 0.8"/>
      </g>
     </g>
     <g id="text_11">
      <!-- −7.5 -->
      <g transform="translate(16.678365 361.448367) scale(0.1 -0.1)">
       <defs>
        <path id="DejaVuSans-37" d="M 525 4666 
L 3525 4666 
L 3525 4397 
L 1831 0 
L 1172 0 
L 2766 4134 
L 525 4134 
L 525 4666 
z
" transform="scale(0.015625)"/>
        <path id="DejaVuSans-35" d="M 691 4666 
L 3169 4666 
L 3169 4134 
L 1269 4134 
L 1269 2991 
Q 1406 3038 1543 3061 
Q 1681 3084 1819 3084 
Q 2600 3084 3056 2656 
Q 3513 2228 3513 1497 
Q 3513 744 3044 326 
Q 2575 -91 1722 -91 
Q 1428 -91 1123 -41 
Q 819 9 494 109 
L 494 744 
Q 775 591 1075 516 
Q 1375 441 1709 441 
Q 2250 441 2565 725 
Q 2881 1009 2881 1497 
Q 2881 1984 2565 2268 
Q 2250 2553 1709 2553 
Q 1456 2553 1204 2497 
Q 953 2441 691 2322 
L 691 4666 
z
" transform="scale(0.015625)"/>
       </defs>
       <use xlink:href="#DejaVuSans-2212"/>
       <use xlink:href="#DejaVuSans-37" transform="translate(83.789062 0)"/>
       <use xlink:href="#DejaVuSans-2e" transform="translate(147.412109 0)"/>
       <use xlink:href="#DejaVuSans-35" transform="translate(179.199219 0)"/>
      </g>
     </g>
    </g>
    <g id="ytick_2">
     <g id="line2d_11">
      <g>
       <use xlink:href="#mf73906b186" x="47.961178" y="307.893078" style="stroke: #000000; stroke-width: 0.8"/>
      </g>
     </g>
     <g id="text_12">
      <!-- −5.0 -->
      <g transform="translate(16.678365 311.692297) scale(0.1 -0.1)">
       <use xlink:href="#DejaVuSans-2212"/>
       <use xlink:href="#DejaVuSans-35" transform="translate(83.789062 0)"/>
       <use xlink:href="#DejaVuSans-2e" transform="translate(147.412109 0)"/>
       <use xlink:href="#DejaVuSans-30" transform="translate(179.199219 0)"/>
      </g>
     </g>
    </g>
    <g id="ytick_3">
     <g id="line2d_12">
      <g>
       <use xlink:href="#mf73906b186" x="47.961178" y="258.137008" style="stroke: #000000; stroke-width: 0.8"/>
      </g>
     </g>
     <g id="text_13">
      <!-- −2.5 -->
      <g transform="translate(16.678365 261.936227) scale(0.1 -0.1)">
       <use xlink:href="#DejaVuSans-2212"/>
       <use xlink:href="#DejaVuSans-32" transform="translate(83.789062 0)"/>
       <use xlink:href="#DejaVuSans-2e" transform="translate(147.412109 0)"/>
       <use xlink:href="#DejaVuSans-35" transform="translate(179.199219 0)"/>
      </g>
     </g>
    </g>
    <g id="ytick_4">
     <g id="line2d_13">
      <g>
       <use xlink:href="#mf73906b186" x="47.961178" y="208.380937" style="stroke: #000000; stroke-width: 0.8"/>
      </g>
     </g>
     <g id="text_14">
      <!-- 0.0 -->
      <g transform="translate(25.058053 212.180156) scale(0.1 -0.1)">
       <use xlink:href="#DejaVuSans-30"/>
       <use xlink:href="#DejaVuSans-2e" transform="translate(63.623047 0)"/>
       <use xlink:href="#DejaVuSans-30" transform="translate(95.410156 0)"/>
      </g>
     </g>
    </g>
    <g id="ytick_5">
     <g id="line2d_14">
      <g>
       <use xlink:href="#mf73906b186" x="47.961178" y="158.624867" style="stroke: #000000; stroke-width: 0.8"/>
      </g>
     </g>
     <g id="text_15">
      <!-- 2.5 -->
      <g transform="translate(25.058053 162.424086) scale(0.1 -0.1)">
       <use xlink:href="#DejaVuSans-32"/>
       <use xlink:href="#DejaVuSans-2e" transform="translate(63.623047 0)"/>
       <use xlink:href="#DejaVuSans-35" transform="translate(95.410156 0)"/>
      </g>
     </g>
    </g>
    <g id="ytick_6">
     <g id="line2d_15">
      <g>
       <use xlink:href="#mf73906b186" x="47.961178" y="108.868797" style="stroke: #000000; stroke-width: 0.8"/>
      </g>
     </g>
     <g id="text_16">
      <!-- 5.0 -->
      <g transform="translate(25.058053 112.668015) scale(0.1 -0.1)">
       <use xlink:href="#DejaVuSans-35"/>
       <use xlink:href="#DejaVuSans-2e" transform="translate(63.623047 0)"/>
       <use xlink:href="#DejaVuSans-30" transform="translate(95.410156 0)"/>
      </g>
     </g>
    </g>
    <g id="ytick_7">
     <g id="line2d_16">
      <g>
       <use xlink:href="#mf73906b186" x="47.961178" y="59.112726" style="stroke: #000000; stroke-width: 0.8"/>
      </g>
     </g>
     <g id="text_17">
      <!-- 7.5 -->
      <g transform="translate(25.058053 62.911945) scale(0.1 -0.1)">
       <use xlink:href="#DejaVuSans-37"/>
       <use xlink:href="#DejaVuSans-2e" transform="translate(63.623047 0)"/>
       <use xlink:href="#DejaVuSans-35" transform="translate(95.410156 0)"/>
      </g>
     </g>
    </g>
    <g id="text_18">
     <!-- µV -->
     <g transform="translate(10.598678 214.9825) rotate(-90) scale(0.1 -0.1)">
      <defs>
       <path id="DejaVuSans-b5" d="M 544 -1331 
L 544 3500 
L 1119 3500 
L 1119 1325 
Q 1119 872 1334 640 
Q 1550 409 1972 409 
Q 2434 409 2667 671 
Q 2900 934 2900 1459 
L 2900 3500 
L 3475 3500 
L 3475 806 
Q 3475 619 3529 530 
Q 3584 441 3700 441 
Q 3728 441 3778 458 
Q 3828 475 3916 513 
L 3916 50 
Q 3788 -22 3673 -56 
Q 3559 -91 3450 -91 
Q 3234 -91 3106 31 
Q 2978 153 2931 403 
Q 2775 156 2548 32 
Q 2322 -91 2016 -91 
Q 1697 -91 1473 31 
Q 1250 153 1119 397 
L 1119 -1331 
L 544 -1331 
z
" transform="scale(0.015625)"/>
       <path id="DejaVuSans-56" d="M 1831 0 
L 50 4666 
L 709 4666 
L 2188 738 
L 3669 4666 
L 4325 4666 
L 2547 0 
L 1831 0 
z
" transform="scale(0.015625)"/>
      </defs>
      <use xlink:href="#DejaVuSans-b5"/>
      <use xlink:href="#DejaVuSans-56" transform="translate(63.623047 0)"/>
     </g>
    </g>
   </g>
   <g id="patch_4">
    <path d="M 48.228697 398.64351 
L 561.866947 398.64351 
" style="fill: none; stroke: #000000; stroke-width: 0.8; stroke-linejoin: miter; stroke-linecap: square"/>
   </g>
   <g id="patch_5">
    <path d="M 47.961178 208.380937 
L 561.866947 208.380937 
" style="fill: none; stroke: #000000; stroke-width: 0.8; stroke-linejoin: miter; stroke-linecap: square"/>
   </g>
   <g id="text_19">
    <!-- P7, P8 (median) -->
    <g transform="translate(257.149375 12.118365) scale(0.12 -0.12)">
     <defs>
      <path id="DejaVuSans-50" d="M 1259 4147 
L 1259 2394 
L 2053 2394 
Q 2494 2394 2734 2622 
Q 2975 2850 2975 3272 
Q 2975 3691 2734 3919 
Q 2494 4147 2053 4147 
L 1259 4147 
z
M 628 4666 
L 2053 4666 
Q 2838 4666 3239 4311 
Q 3641 3956 3641 3272 
Q 3641 2581 3239 2228 
Q 2838 1875 2053 1875 
L 1259 1875 
L 1259 0 
L 628 0 
L 628 4666 
z
" transform="scale(0.015625)"/>
      <path id="DejaVuSans-2c" d="M 750 794 
L 1409 794 
L 1409 256 
L 897 -744 
L 494 -744 
L 750 256 
L 750 794 
z
" transform="scale(0.015625)"/>
      <path id="DejaVuSans-64" d="M 2906 2969 
L 2906 4863 
L 3481 4863 
L 3481 0 
L 2906 0 
L 2906 525 
Q 2725 213 2448 61 
Q 2172 -91 1784 -91 
Q 1150 -91 751 415 
Q 353 922 353 1747 
Q 353 2572 751 3078 
Q 1150 3584 1784 3584 
Q 2172 3584 2448 3432 
Q 2725 3281 2906 2969 
z
M 947 1747 
Q 947 1113 1208 752 
Q 1469 391 1925 391 
Q 2381 391 2643 752 
Q 2906 1113 2906 1747 
Q 2906 2381 2643 2742 
Q 2381 3103 1925 3103 
Q 1469 3103 1208 2742 
Q 947 2381 947 1747 
z
" transform="scale(0.015625)"/>
      <path id="DejaVuSans-61" d="M 2194 1759 
Q 1497 1759 1228 1600 
Q 959 1441 959 1056 
Q 959 750 1161 570 
Q 1363 391 1709 391 
Q 2188 391 2477 730 
Q 2766 1069 2766 1631 
L 2766 1759 
L 2194 1759 
z
M 3341 1997 
L 3341 0 
L 2766 0 
L 2766 531 
Q 2569 213 2275 61 
Q 1981 -91 1556 -91 
Q 1019 -91 701 211 
Q 384 513 384 1019 
Q 384 1609 779 1909 
Q 1175 2209 1959 2209 
L 2766 2209 
L 2766 2266 
Q 2766 2663 2505 2880 
Q 2244 3097 1772 3097 
Q 1472 3097 1187 3025 
Q 903 2953 641 2809 
L 641 3341 
Q 956 3463 1253 3523 
Q 1550 3584 1831 3584 
Q 2591 3584 2966 3190 
Q 3341 2797 3341 1997 
z
" transform="scale(0.015625)"/>
      <path id="DejaVuSans-6e" d="M 3513 2113 
L 3513 0 
L 2938 0 
L 2938 2094 
Q 2938 2591 2744 2837 
Q 2550 3084 2163 3084 
Q 1697 3084 1428 2787 
Q 1159 2491 1159 1978 
L 1159 0 
L 581 0 
L 581 3500 
L 1159 3500 
L 1159 2956 
Q 1366 3272 1645 3428 
Q 1925 3584 2291 3584 
Q 2894 3584 3203 3211 
Q 3513 2838 3513 2113 
z
" transform="scale(0.015625)"/>
     </defs>
     <use xlink:href="#DejaVuSans-50"/>
     <use xlink:href="#DejaVuSans-37" transform="translate(60.302734 0)"/>
     <use xlink:href="#DejaVuSans-2c" transform="translate(123.925781 0)"/>
     <use xlink:href="#DejaVuSans-20" transform="translate(155.712891 0)"/>
     <use xlink:href="#DejaVuSans-50" transform="translate(187.5 0)"/>
     <use xlink:href="#DejaVuSans-38" transform="translate(247.802734 0)"/>
     <use xlink:href="#DejaVuSans-20" transform="translate(311.425781 0)"/>
     <use xlink:href="#DejaVuSans-28" transform="translate(343.212891 0)"/>
     <use xlink:href="#DejaVuSans-6d" transform="translate(382.226562 0)"/>
     <use xlink:href="#DejaVuSans-65" transform="translate(479.638672 0)"/>
     <use xlink:href="#DejaVuSans-64" transform="translate(541.162109 0)"/>
     <use xlink:href="#DejaVuSans-69" transform="translate(604.638672 0)"/>
     <use xlink:href="#DejaVuSans-61" transform="translate(632.421875 0)"/>
     <use xlink:href="#DejaVuSans-6e" transform="translate(693.701172 0)"/>
     <use xlink:href="#DejaVuSans-29" transform="translate(757.080078 0)"/>
    </g>
   </g>
   <g id="legend_1">
    <g id="patch_6">
     <path d="M 54.961178 55.75274 
L 136.103365 55.75274 
Q 138.103365 55.75274 138.103365 53.75274 
L 138.103365 25.118365 
Q 138.103365 23.118365 136.103365 23.118365 
L 54.961178 23.118365 
Q 52.961178 23.118365 52.961178 25.118365 
L 52.961178 53.75274 
Q 52.961178 55.75274 54.961178 55.75274 
z
" style="fill: #ffffff; opacity: 0.8; stroke: #cccccc; stroke-linejoin: miter"/>
    </g>
    <g id="line2d_17">
     <path d="M 56.961178 31.216803 
L 66.961178 31.216803 
L 76.961178 31.216803 
" style="fill: none; stroke: #1f77b4; stroke-width: 1.5; stroke-linecap: square"/>
    </g>
    <g id="text_20">
     <!-- eerie -->
     <g transform="translate(84.961178 34.716803) scale(0.1 -0.1)">
      <defs>
       <path id="DejaVuSans-72" d="M 2631 2963 
Q 2534 3019 2420 3045 
Q 2306 3072 2169 3072 
Q 1681 3072 1420 2755 
Q 1159 2438 1159 1844 
L 1159 0 
L 581 0 
L 581 3500 
L 1159 3500 
L 1159 2956 
Q 1341 3275 1631 3429 
Q 1922 3584 2338 3584 
Q 2397 3584 2469 3576 
Q 2541 3569 2628 3553 
L 2631 2963 
z
" transform="scale(0.015625)"/>
      </defs>
      <use xlink:href="#DejaVuSans-65"/>
      <use xlink:href="#DejaVuSans-65" transform="translate(61.523438 0)"/>
      <use xlink:href="#DejaVuSans-72" transform="translate(123.046875 0)"/>
      <use xlink:href="#DejaVuSans-69" transform="translate(164.160156 0)"/>
      <use xlink:href="#DejaVuSans-65" transform="translate(191.943359 0)"/>
     </g>
    </g>
    <g id="line2d_18">
     <path d="M 56.961178 45.894928 
L 66.961178 45.894928 
L 76.961178 45.894928 
" style="fill: none; stroke: #ff7f0e; stroke-width: 1.5; stroke-linecap: square"/>
    </g>
    <g id="text_21">
     <!-- non_eerie -->
     <g transform="translate(84.961178 49.394928) scale(0.1 -0.1)">
      <defs>
       <path id="DejaVuSans-6f" d="M 1959 3097 
Q 1497 3097 1228 2736 
Q 959 2375 959 1747 
Q 959 1119 1226 758 
Q 1494 397 1959 397 
Q 2419 397 2687 759 
Q 2956 1122 2956 1747 
Q 2956 2369 2687 2733 
Q 2419 3097 1959 3097 
z
M 1959 3584 
Q 2709 3584 3137 3096 
Q 3566 2609 3566 1747 
Q 3566 888 3137 398 
Q 2709 -91 1959 -91 
Q 1206 -91 779 398 
Q 353 888 353 1747 
Q 353 2609 779 3096 
Q 1206 3584 1959 3584 
z
" transform="scale(0.015625)"/>
       <path id="DejaVuSans-5f" d="M 3263 -1063 
L 3263 -1509 
L -63 -1509 
L -63 -1063 
L 3263 -1063 
z
" transform="scale(0.015625)"/>
      </defs>
      <use xlink:href="#DejaVuSans-6e"/>
      <use xlink:href="#DejaVuSans-6f" transform="translate(63.378906 0)"/>
      <use xlink:href="#DejaVuSans-6e" transform="translate(124.560547 0)"/>
      <use xlink:href="#DejaVuSans-5f" transform="translate(187.939453 0)"/>
      <use xlink:href="#DejaVuSans-65" transform="translate(237.939453 0)"/>
      <use xlink:href="#DejaVuSans-65" transform="translate(299.462891 0)"/>
      <use xlink:href="#DejaVuSans-72" transform="translate(360.986328 0)"/>
      <use xlink:href="#DejaVuSans-69" transform="translate(402.099609 0)"/>
      <use xlink:href="#DejaVuSans-65" transform="translate(429.882812 0)"/>
     </g>
    </g>
   </g>
   <g id="FillBetweenPolyCollection_1">
    <defs>
     <path id="mf1fb1cf523" d="M 47.961178 -251.883514 
L 47.961178 -244.492966 
L 49.633177 -250.933395 
L 51.305177 -254.913797 
L 52.977176 -255.850685 
L 54.649176 -254.590086 
L 56.321175 -252.264577 
L 57.993175 -249.105694 
L 59.665174 -244.333459 
L 61.337174 -238.360047 
L 63.009173 -232.258593 
L 64.681173 -228.128511 
L 66.353172 -227.807658 
L 68.025172 -230.509783 
L 69.697171 -233.768333 
L 71.369171 -234.740212 
L 73.04117 -232.043285 
L 74.71317 -226.714855 
L 76.385169 -221.081005 
L 78.057169 -217.860713 
L 79.729168 -217.949885 
L 81.401168 -219.871707 
L 83.073167 -221.846373 
L 84.745167 -222.59418 
L 86.417166 -222.27194 
L 88.089166 -222.693346 
L 89.761165 -224.920213 
L 91.433165 -228.746928 
L 93.105164 -231.968977 
L 94.777164 -232.388527 
L 96.449163 -228.490659 
L 98.121163 -221.485392 
L 99.793162 -213.038604 
L 101.465162 -205.624724 
L 103.137161 -200.773414 
L 104.809161 -198.996898 
L 106.48116 -199.879861 
L 108.15316 -202.357527 
L 109.825159 -205.017869 
L 111.497159 -206.904552 
L 113.169158 -207.65659 
L 114.841158 -207.490371 
L 116.513157 -207.408 
L 118.185157 -207.397664 
L 119.857157 -207.56935 
L 121.529156 -206.904996 
L 123.201156 -204.442918 
L 124.873155 -199.917643 
L 126.545155 -194.983577 
L 128.217154 -191.592898 
L 129.889154 -191.788753 
L 131.561153 -195.411189 
L 133.233153 -200.665011 
L 134.905152 -204.307282 
L 136.577152 -204.996422 
L 138.249151 -203.235992 
L 139.921151 -201.199227 
L 141.59315 -201.628238 
L 143.26515 -204.993235 
L 144.937149 -209.302583 
L 146.609149 -211.786104 
L 148.281148 -210.665266 
L 149.953148 -206.17212 
L 151.625147 -200.716231 
L 153.297147 -197.201488 
L 154.969146 -196.950879 
L 156.641146 -198.91078 
L 158.313145 -200.276232 
L 159.985145 -199.448733 
L 161.657144 -196.232462 
L 163.329144 -192.131994 
L 165.001143 -190.08753 
L 166.673143 -190.701495 
L 168.345142 -193.648545 
L 170.017142 -198.017676 
L 171.689141 -202.34717 
L 173.361141 -206.461538 
L 175.03314 -210.588104 
L 176.70514 -214.782613 
L 178.377139 -218.940103 
L 180.049139 -221.349948 
L 181.721138 -220.317271 
L 183.393138 -214.810405 
L 185.065137 -204.354584 
L 186.737137 -189.548761 
L 188.409137 -171.604217 
L 190.081136 -151.895437 
L 191.753136 -131.786314 
L 193.425135 -112.173978 
L 195.097135 -93.589024 
L 196.769134 -75.854351 
L 198.441134 -59.129877 
L 200.113133 -45.034889 
L 201.785133 -35.903098 
L 203.457132 -33.35649 
L 205.129132 -38.259706 
L 206.801131 -48.830422 
L 208.473131 -62.166526 
L 210.14513 -75.140608 
L 211.81713 -85.981578 
L 213.489129 -95.355711 
L 215.161129 -105.516447 
L 216.833128 -118.37605 
L 218.505128 -134.777724 
L 220.177127 -153.320367 
L 221.849127 -170.933971 
L 223.521126 -185.833185 
L 225.193126 -197.688587 
L 226.865125 -207.99602 
L 228.537125 -218.715377 
L 230.209124 -231.076234 
L 231.881124 -244.930528 
L 233.553123 -259.056336 
L 235.225123 -272.458863 
L 236.897122 -283.834678 
L 238.569122 -292.100834 
L 240.241121 -296.30523 
L 241.913121 -296.785423 
L 243.58512 -294.027922 
L 245.25712 -289.528704 
L 246.929119 -285.953917 
L 248.601119 -284.099358 
L 250.273118 -284.237863 
L 251.945118 -284.157447 
L 253.617117 -281.512525 
L 255.289117 -274.929121 
L 256.961116 -265.480277 
L 258.633116 -255.272149 
L 260.305116 -247.238467 
L 261.977115 -242.626705 
L 263.649115 -239.675206 
L 265.321114 -235.955436 
L 266.993114 -229.901029 
L 268.665113 -222.337679 
L 270.337113 -215.718589 
L 272.009112 -212.212056 
L 273.681112 -212.873017 
L 275.353111 -215.780672 
L 277.025111 -218.060677 
L 278.69711 -217.917656 
L 280.36911 -215.348188 
L 282.041109 -213.061787 
L 283.713109 -213.795812 
L 285.385108 -218.538259 
L 287.057108 -225.889075 
L 288.729107 -232.797579 
L 290.401107 -236.493929 
L 292.073106 -236.72919 
L 293.745106 -235.717805 
L 295.417105 -235.874658 
L 297.089105 -239.118287 
L 298.761104 -244.820548 
L 300.433104 -250.788206 
L 302.105103 -254.288644 
L 303.777103 -254.151509 
L 305.449102 -251.758728 
L 307.121102 -249.290473 
L 308.793101 -248.459444 
L 310.465101 -249.051469 
L 312.1371 -249.696237 
L 313.8091 -249.059194 
L 315.481099 -246.157321 
L 317.153099 -241.727525 
L 318.825098 -237.551768 
L 320.497098 -234.267754 
L 322.169097 -232.429873 
L 323.841097 -231.217399 
L 325.513096 -230.256466 
L 327.185096 -229.130704 
L 328.857096 -228.134648 
L 330.529095 -227.458269 
L 332.201095 -227.251859 
L 333.873094 -226.636201 
L 335.545094 -225.210152 
L 337.217093 -223.36214 
L 338.889093 -222.218283 
L 340.561092 -222.7646 
L 342.233092 -225.602792 
L 343.905091 -229.220265 
L 345.577091 -231.413344 
L 347.24909 -230.524232 
L 348.92109 -225.692388 
L 350.593089 -218.735743 
L 352.265089 -211.69742 
L 353.937088 -206.820625 
L 355.609088 -204.917284 
L 357.281087 -205.253352 
L 358.953087 -206.06232 
L 360.625086 -206.590525 
L 362.297086 -205.876441 
L 363.969085 -204.179476 
L 365.641085 -201.114835 
L 367.313084 -197.543534 
L 368.985084 -193.664656 
L 370.657083 -190.004214 
L 372.329083 -186.919144 
L 374.001082 -184.584791 
L 375.673082 -183.194051 
L 377.345081 -182.766278 
L 379.017081 -182.928335 
L 380.68908 -183.502401 
L 382.36108 -183.799568 
L 384.033079 -183.64787 
L 385.705079 -182.853441 
L 387.377078 -181.477583 
L 389.049078 -180.246866 
L 390.721077 -179.920817 
L 392.393077 -180.986947 
L 394.065076 -183.35835 
L 395.737076 -185.605648 
L 397.409076 -186.539735 
L 399.081075 -185.089186 
L 400.753075 -181.762864 
L 402.425074 -178.403921 
L 404.097074 -176.937648 
L 405.769073 -178.386815 
L 407.441073 -181.512579 
L 409.113072 -184.015545 
L 410.785072 -184.407165 
L 412.457071 -182.043941 
L 414.129071 -178.38765 
L 415.80107 -175.124809 
L 417.47307 -174.477614 
L 419.145069 -176.579013 
L 420.817069 -180.199872 
L 422.489068 -183.09753 
L 424.161068 -184.010999 
L 425.833067 -182.997002 
L 427.505067 -181.171517 
L 429.177066 -180.160863 
L 430.849066 -180.377227 
L 432.521065 -181.109069 
L 434.193065 -181.667356 
L 435.865064 -181.0618 
L 437.537064 -179.133178 
L 439.209063 -176.272726 
L 440.881063 -173.117064 
L 442.553062 -170.551338 
L 444.225062 -168.572745 
L 445.897061 -167.139182 
L 447.569061 -166.408503 
L 449.24106 -166.625941 
L 450.91306 -167.887399 
L 452.585059 -169.351164 
L 454.257059 -170.828993 
L 455.929058 -171.300314 
L 457.601058 -170.334488 
L 459.273057 -167.973059 
L 460.945057 -165.028726 
L 462.617056 -162.531781 
L 464.289056 -162.03121 
L 465.961055 -163.945395 
L 467.633055 -167.65973 
L 469.305055 -171.378957 
L 470.977054 -173.420634 
L 472.649054 -172.637543 
L 474.321053 -169.82046 
L 475.993053 -166.264765 
L 477.665052 -164.323066 
L 479.337052 -165.317773 
L 481.009051 -168.557339 
L 482.681051 -172.472605 
L 484.35305 -175.649065 
L 486.02505 -177.082595 
L 487.697049 -177.177702 
L 489.369049 -177.407012 
L 491.041048 -178.996875 
L 492.713048 -182.435903 
L 494.385047 -187.129217 
L 496.057047 -190.658469 
L 497.729046 -191.457241 
L 499.401046 -188.255725 
L 501.073045 -182.49973 
L 502.745045 -176.366095 
L 504.417044 -172.285756 
L 506.089044 -171.550668 
L 507.761043 -173.833908 
L 509.433043 -177.228145 
L 511.105042 -179.120825 
L 512.777042 -178.103882 
L 514.449041 -174.990287 
L 516.121041 -171.216306 
L 517.79304 -168.757996 
L 519.46504 -168.46999 
L 521.137039 -169.786083 
L 522.809039 -172.40652 
L 524.481038 -175.421501 
L 526.153038 -178.735377 
L 527.825037 -182.864351 
L 529.497037 -187.617271 
L 531.169036 -191.909296 
L 532.841036 -193.96719 
L 534.513035 -192.896444 
L 536.185035 -189.290808 
L 537.857035 -184.401094 
L 539.529034 -180.483811 
L 541.201034 -178.930005 
L 542.873033 -179.390229 
L 544.545033 -180.719439 
L 546.217032 -181.070606 
L 547.889032 -179.32886 
L 549.561031 -175.6959 
L 551.233031 -170.921451 
L 552.90503 -166.237417 
L 554.57703 -162.197409 
L 556.249029 -159.094574 
L 557.921029 -157.197505 
L 559.593028 -156.326428 
L 561.265028 -157.292332 
L 561.265028 -169.089239 
L 561.265028 -169.089239 
L 559.593028 -168.224627 
L 557.921029 -169.071006 
L 556.249029 -171.0512 
L 554.57703 -173.705467 
L 552.90503 -177.256088 
L 551.233031 -181.806663 
L 549.561031 -186.574924 
L 547.889032 -190.240902 
L 546.217032 -192.297365 
L 544.545033 -192.263475 
L 542.873033 -191.301462 
L 541.201034 -191.058387 
L 539.529034 -193.157263 
L 537.857035 -197.696699 
L 536.185035 -202.788359 
L 534.513035 -206.380845 
L 532.841036 -206.592379 
L 531.169036 -203.781164 
L 529.497037 -199.122802 
L 527.825037 -194.399513 
L 526.153038 -190.32702 
L 524.481038 -187.464591 
L 522.809039 -184.915267 
L 521.137039 -182.415612 
L 519.46504 -180.729069 
L 517.79304 -180.948575 
L 516.121041 -183.390544 
L 514.449041 -187.15811 
L 512.777042 -190.225397 
L 511.105042 -190.690851 
L 509.433043 -188.430203 
L 507.761043 -184.991374 
L 506.089044 -182.374563 
L 504.417044 -183.071485 
L 502.745045 -187.512153 
L 501.073045 -194.087225 
L 499.401046 -200.17527 
L 497.729046 -203.611468 
L 496.057047 -203.08759 
L 494.385047 -199.580882 
L 492.713048 -194.908728 
L 491.041048 -190.989954 
L 489.369049 -188.957571 
L 487.697049 -188.432434 
L 486.02505 -188.008002 
L 484.35305 -186.190259 
L 482.681051 -182.932225 
L 481.009051 -178.966238 
L 479.337052 -175.799436 
L 477.665052 -175.216021 
L 475.993053 -177.255791 
L 474.321053 -180.569044 
L 472.649054 -183.571331 
L 470.977054 -184.505621 
L 469.305055 -182.76356 
L 467.633055 -178.781761 
L 465.961055 -174.716278 
L 464.289056 -172.878955 
L 462.617056 -173.667162 
L 460.945057 -176.412633 
L 459.273057 -180.02199 
L 457.601058 -182.790796 
L 455.929058 -183.705607 
L 454.257059 -182.952946 
L 452.585059 -181.261377 
L 450.91306 -179.57134 
L 449.24106 -178.72449 
L 447.569061 -178.837609 
L 445.897061 -179.388379 
L 444.225062 -180.162981 
L 442.553062 -181.543706 
L 440.881063 -183.487162 
L 439.209063 -185.91699 
L 437.537064 -188.544268 
L 435.865064 -190.752898 
L 434.193065 -191.673316 
L 432.521065 -191.273657 
L 430.849066 -190.492789 
L 429.177066 -190.170316 
L 427.505067 -191.258479 
L 425.833067 -193.053623 
L 424.161068 -194.034076 
L 422.489068 -192.734548 
L 420.817069 -189.607213 
L 419.145069 -186.082455 
L 417.47307 -184.106504 
L 415.80107 -185.085408 
L 414.129071 -188.873497 
L 412.457071 -193.281541 
L 410.785072 -195.990765 
L 409.113072 -195.050334 
L 407.441073 -191.951436 
L 405.769073 -188.515565 
L 404.097074 -187.326345 
L 402.425074 -188.588343 
L 400.753075 -191.873572 
L 399.081075 -195.167244 
L 397.409076 -196.750894 
L 395.737076 -196.034149 
L 394.065076 -193.804158 
L 392.393077 -191.315001 
L 390.721077 -189.972394 
L 389.049078 -190.352021 
L 387.377078 -191.540482 
L 385.705079 -193.208403 
L 384.033079 -194.232878 
L 382.36108 -194.448838 
L 380.68908 -194.019757 
L 379.017081 -193.456564 
L 377.345081 -193.537107 
L 375.673082 -194.378076 
L 374.001082 -196.176166 
L 372.329083 -198.799354 
L 370.657083 -201.952224 
L 368.985084 -205.346506 
L 367.313084 -209.01677 
L 365.641085 -212.484173 
L 363.969085 -215.695768 
L 362.297086 -218.035051 
L 360.625086 -218.759496 
L 358.953087 -218.025184 
L 357.281087 -216.385519 
L 355.609088 -215.889787 
L 353.937088 -217.843523 
L 352.265089 -223.107993 
L 350.593089 -230.430237 
L 348.92109 -237.376838 
L 347.24909 -242.265972 
L 345.577091 -242.976965 
L 343.905091 -240.600702 
L 342.233092 -236.827173 
L 340.561092 -234.027256 
L 338.889093 -233.218122 
L 337.217093 -234.242038 
L 335.545094 -235.987668 
L 333.873094 -237.357931 
L 332.201095 -238.083704 
L 330.529095 -238.44796 
L 328.857096 -238.895843 
L 327.185096 -239.864578 
L 325.513096 -241.118566 
L 323.841097 -242.275421 
L 322.169097 -243.127297 
L 320.497098 -244.942723 
L 318.825098 -248.135171 
L 317.153099 -252.381655 
L 315.481099 -256.633971 
L 313.8091 -259.388663 
L 312.1371 -259.765316 
L 310.465101 -258.905562 
L 308.793101 -258.321141 
L 307.121102 -259.606005 
L 305.449102 -262.337597 
L 303.777103 -264.758764 
L 302.105103 -264.784415 
L 300.433104 -261.450949 
L 298.761104 -255.903167 
L 297.089105 -250.275361 
L 295.417105 -246.850805 
L 293.745106 -246.793807 
L 292.073106 -247.972417 
L 290.401107 -247.306227 
L 288.729107 -243.071743 
L 287.057108 -236.2528 
L 285.385108 -229.489581 
L 283.713109 -225.244793 
L 282.041109 -224.696577 
L 280.36911 -226.90875 
L 278.69711 -229.053776 
L 277.025111 -228.740763 
L 275.353111 -226.092812 
L 273.681112 -223.244908 
L 272.009112 -223.259372 
L 270.337113 -227.262837 
L 268.665113 -234.559003 
L 266.993114 -242.378398 
L 265.321114 -248.471547 
L 263.649115 -252.285265 
L 261.977115 -255.413078 
L 260.305116 -260.112292 
L 258.633116 -267.930297 
L 256.961116 -277.922669 
L 255.289117 -287.431212 
L 253.617117 -294.038139 
L 251.945118 -296.630175 
L 250.273118 -296.461155 
L 248.601119 -296.012889 
L 246.929119 -297.248066 
L 245.25712 -300.541097 
L 243.58512 -304.645958 
L 241.913121 -307.397829 
L 240.241121 -307.340772 
L 238.569122 -303.603838 
L 236.897122 -295.873026 
L 235.225123 -285.001179 
L 233.553123 -271.767042 
L 231.881124 -257.609168 
L 230.209124 -244.098974 
L 228.537125 -231.949242 
L 226.865125 -221.188275 
L 225.193126 -210.382685 
L 223.521126 -198.036353 
L 221.849127 -182.752917 
L 220.177127 -164.756761 
L 218.505128 -146.46715 
L 216.833128 -130.009023 
L 215.161129 -117.002582 
L 213.489129 -106.949659 
L 211.81713 -97.436098 
L 210.14513 -86.190642 
L 208.473131 -72.999519 
L 206.801131 -59.616646 
L 205.129132 -49.026344 
L 203.457132 -44.334764 
L 201.785133 -46.96191 
L 200.113133 -56.086154 
L 198.441134 -69.934928 
L 196.769134 -86.876779 
L 195.097135 -105.315804 
L 193.425135 -124.762489 
L 191.753136 -144.68171 
L 190.081136 -164.798557 
L 188.409137 -184.245957 
L 186.737137 -202.154207 
L 185.065137 -216.64476 
L 183.393138 -226.639798 
L 181.721138 -231.244404 
L 180.049139 -231.802337 
L 178.377139 -229.037624 
L 176.70514 -224.784761 
L 175.03314 -220.178126 
L 173.361141 -215.865792 
L 171.689141 -211.352025 
L 170.017142 -206.657345 
L 168.345142 -201.918282 
L 166.673143 -198.923195 
L 165.001143 -198.723867 
L 163.329144 -201.132094 
L 161.657144 -205.077833 
L 159.985145 -208.695943 
L 158.313145 -209.750193 
L 156.641146 -208.575977 
L 154.969146 -206.902803 
L 153.297147 -206.910752 
L 151.625147 -210.231296 
L 149.953148 -215.487836 
L 148.281148 -219.875267 
L 146.609149 -221.120825 
L 144.937149 -218.619958 
L 143.26515 -214.302013 
L 141.59315 -210.856888 
L 139.921151 -210.320556 
L 138.249151 -211.942875 
L 136.577152 -213.366825 
L 134.905152 -212.189068 
L 133.233153 -208.206076 
L 131.561153 -202.869278 
L 129.889154 -199.256004 
L 128.217154 -199.19481 
L 126.545155 -202.434879 
L 124.873155 -207.302236 
L 123.201156 -211.42776 
L 121.529156 -213.601889 
L 119.857157 -213.94219 
L 118.185157 -213.497014 
L 116.513157 -213.518064 
L 114.841158 -213.834384 
L 113.169158 -214.031589 
L 111.497159 -213.289064 
L 109.825159 -211.402584 
L 108.15316 -208.810049 
L 106.48116 -206.284728 
L 104.809161 -205.173851 
L 103.137161 -206.572345 
L 101.465162 -211.341006 
L 99.793162 -219.122952 
L 98.121163 -227.885838 
L 96.449163 -234.957425 
L 94.777164 -238.44325 
L 93.105164 -237.987269 
L 91.433165 -234.743349 
L 89.761165 -231.094048 
L 88.089166 -229.041183 
L 86.417166 -228.942651 
L 84.745167 -229.657148 
L 83.073167 -229.168822 
L 81.401168 -226.913416 
L 79.729168 -224.270708 
L 78.057169 -223.559563 
L 76.385169 -226.599412 
L 74.71317 -232.476216 
L 73.04117 -238.494764 
L 71.369171 -241.52908 
L 69.697171 -240.618094 
L 68.025172 -236.993334 
L 66.353172 -234.144165 
L 64.681173 -234.634659 
L 63.009173 -238.608188 
L 61.337174 -244.841874 
L 59.665174 -251.030657 
L 57.993175 -256.197335 
L 56.321175 -259.914825 
L 54.649176 -262.393246 
L 52.977176 -263.419515 
L 51.305177 -262.414933 
L 49.633177 -258.301585 
L 47.961178 -251.883514 
z
" style="stroke: #1f77b4; stroke-opacity: 0.3"/>
    </defs>
    <g>
     <use xlink:href="#mf1fb1cf523" x="0" y="432" style="fill: #1f77b4; fill-opacity: 0.3; stroke: #1f77b4; stroke-opacity: 0.3"/>
    </g>
   </g>
   <g id="FillBetweenPolyCollection_2">
    <defs>
     <path id="m07fc91444d" d="M 47.961178 -242.464529 
L 47.961178 -236.957956 
L 49.633177 -236.538371 
L 51.305177 -237.656438 
L 52.977176 -240.033066 
L 54.649176 -242.716202 
L 56.321175 -244.430355 
L 57.993175 -244.714803 
L 59.665174 -243.490728 
L 61.337174 -240.979459 
L 63.009173 -237.87404 
L 64.681173 -235.298578 
L 66.353172 -233.602241 
L 68.025172 -233.012638 
L 69.697171 -233.414229 
L 71.369171 -234.493942 
L 73.04117 -235.706832 
L 74.71317 -236.605833 
L 76.385169 -236.847475 
L 78.057169 -236.137335 
L 79.729168 -234.188922 
L 81.401168 -230.832393 
L 83.073167 -226.673114 
L 84.745167 -222.853334 
L 86.417166 -220.259499 
L 88.089166 -219.190976 
L 89.761165 -219.688842 
L 91.433165 -221.066256 
L 93.105164 -222.19771 
L 94.777164 -222.04396 
L 96.449163 -220.508011 
L 98.121163 -218.333672 
L 99.793162 -216.965698 
L 101.465162 -217.069634 
L 103.137161 -218.75736 
L 104.809161 -221.277487 
L 106.48116 -223.373738 
L 108.15316 -224.03508 
L 109.825159 -222.955851 
L 111.497159 -220.674026 
L 113.169158 -217.757007 
L 114.841158 -213.910323 
L 116.513157 -208.724187 
L 118.185157 -202.272567 
L 119.857157 -195.556358 
L 121.529156 -190.123497 
L 123.201156 -187.097432 
L 124.873155 -186.98819 
L 126.545155 -189.04138 
L 128.217154 -191.722589 
L 129.889154 -193.521184 
L 131.561153 -193.890847 
L 133.233153 -193.341738 
L 134.905152 -193.07183 
L 136.577152 -193.471241 
L 138.249151 -193.940711 
L 139.921151 -193.823842 
L 141.59315 -192.305535 
L 143.26515 -189.803529 
L 144.937149 -187.460136 
L 146.609149 -186.551749 
L 148.281148 -187.174621 
L 149.953148 -188.757658 
L 151.625147 -190.128728 
L 153.297147 -190.055716 
L 154.969146 -188.241637 
L 156.641146 -185.639829 
L 158.313145 -183.073877 
L 159.985145 -181.345271 
L 161.657144 -180.864216 
L 163.329144 -181.280141 
L 165.001143 -182.566006 
L 166.673143 -184.762795 
L 168.345142 -188.436553 
L 170.017142 -193.756427 
L 171.689141 -200.528055 
L 173.361141 -208.067226 
L 175.03314 -215.394415 
L 176.70514 -221.271673 
L 178.377139 -224.973662 
L 180.049139 -225.605028 
L 181.721138 -223.064868 
L 183.393138 -217.160665 
L 185.065137 -207.234446 
L 186.737137 -193.355469 
L 188.409137 -174.91235 
L 190.081136 -153.094817 
L 191.753136 -129.506292 
L 193.425135 -106.493188 
L 195.097135 -85.814716 
L 196.769134 -69.371132 
L 198.441134 -57.246303 
L 200.113133 -49.328985 
L 201.785133 -44.504827 
L 203.457132 -42.348577 
L 205.129132 -42.812189 
L 206.801131 -46.010755 
L 208.473131 -52.244779 
L 210.14513 -61.847748 
L 211.81713 -74.692793 
L 213.489129 -89.983127 
L 215.161129 -106.768986 
L 216.833128 -124.511752 
L 218.505128 -142.460386 
L 220.177127 -160.150929 
L 221.849127 -177.497145 
L 223.521126 -194.263684 
L 225.193126 -210.398417 
L 226.865125 -225.233862 
L 228.537125 -238.48329 
L 230.209124 -249.890428 
L 231.881124 -259.80212 
L 233.553123 -268.955987 
L 235.225123 -277.96551 
L 236.897122 -286.858619 
L 238.569122 -294.825552 
L 240.241121 -300.42265 
L 241.913121 -302.949296 
L 243.58512 -302.520448 
L 245.25712 -300.24777 
L 246.929119 -297.915159 
L 248.601119 -296.309136 
L 250.273118 -295.071782 
L 251.945118 -292.992745 
L 253.617117 -288.89019 
L 255.289117 -282.039228 
L 256.961116 -272.923078 
L 258.633116 -262.539173 
L 260.305116 -251.853911 
L 261.977115 -241.285461 
L 263.649115 -231.278391 
L 265.321114 -222.303193 
L 266.993114 -214.886405 
L 268.665113 -210.087088 
L 270.337113 -207.980748 
L 272.009112 -208.050579 
L 273.681112 -209.091295 
L 275.353111 -209.874501 
L 277.025111 -209.291244 
L 278.69711 -207.501139 
L 280.36911 -205.238558 
L 282.041109 -203.852063 
L 283.713109 -204.514331 
L 285.385108 -207.687161 
L 287.057108 -213.033818 
L 288.729107 -219.186723 
L 290.401107 -224.892352 
L 292.073106 -228.349557 
L 293.745106 -228.938612 
L 295.417105 -226.705219 
L 297.089105 -222.753224 
L 298.761104 -218.733275 
L 300.433104 -215.906602 
L 302.105103 -214.980893 
L 303.777103 -215.774165 
L 305.449102 -217.502902 
L 307.121102 -219.505285 
L 308.793101 -221.497344 
L 310.465101 -223.583971 
L 312.1371 -225.949144 
L 313.8091 -228.801712 
L 315.481099 -231.596869 
L 317.153099 -233.470304 
L 318.825098 -233.445178 
L 320.497098 -231.257941 
L 322.169097 -227.24962 
L 323.841097 -222.708776 
L 325.513096 -219.194736 
L 327.185096 -217.62689 
L 328.857096 -217.916909 
L 330.529095 -218.576606 
L 332.201095 -218.1768 
L 333.873094 -215.380059 
L 335.545094 -210.042541 
L 337.217093 -203.329374 
L 338.889093 -196.946319 
L 340.561092 -192.612423 
L 342.233092 -190.843177 
L 343.905091 -191.16244 
L 345.577091 -192.498246 
L 347.24909 -193.881568 
L 348.92109 -194.92213 
L 350.593089 -195.584718 
L 352.265089 -195.860009 
L 353.937088 -195.195575 
L 355.609088 -193.237203 
L 357.281087 -189.917659 
L 358.953087 -185.831351 
L 360.625086 -182.175926 
L 362.297086 -180.02635 
L 363.969085 -179.57491 
L 365.641085 -179.907752 
L 367.313084 -179.570308 
L 368.985084 -177.584032 
L 370.657083 -174.298411 
L 372.329083 -171.274351 
L 374.001082 -170.065735 
L 375.673082 -171.163066 
L 377.345081 -173.1992 
L 379.017081 -173.644987 
L 380.68908 -171.302319 
L 382.36108 -166.082093 
L 384.033079 -159.974639 
L 385.705079 -155.821263 
L 387.377078 -155.609006 
L 389.049078 -159.070178 
L 390.721077 -164.494517 
L 392.393077 -169.224289 
L 394.065076 -171.484411 
L 395.737076 -170.849358 
L 397.409076 -168.251105 
L 399.081075 -165.251736 
L 400.753075 -163.149493 
L 402.425074 -162.143396 
L 404.097074 -162.052526 
L 405.769073 -161.941343 
L 407.441073 -160.867642 
L 409.113072 -158.644993 
L 410.785072 -155.237916 
L 412.457071 -151.440288 
L 414.129071 -148.221046 
L 415.80107 -146.814565 
L 417.47307 -147.546473 
L 419.145069 -150.06441 
L 420.817069 -152.676716 
L 422.489068 -154.085211 
L 424.161068 -153.816472 
L 425.833067 -152.194124 
L 427.505067 -150.462269 
L 429.177066 -149.828191 
L 430.849066 -150.706641 
L 432.521065 -152.167376 
L 434.193065 -153.160886 
L 435.865064 -152.671861 
L 437.537064 -151.068593 
L 439.209063 -149.12937 
L 440.881063 -148.047785 
L 442.553062 -148.452573 
L 444.225062 -149.897342 
L 445.897061 -151.172776 
L 447.569061 -151.611562 
L 449.24106 -150.906215 
L 450.91306 -149.707355 
L 452.585059 -149.345427 
L 454.257059 -150.477088 
L 455.929058 -153.004768 
L 457.601058 -156.016176 
L 459.273057 -158.031275 
L 460.945057 -157.916476 
L 462.617056 -155.301386 
L 464.289056 -150.291539 
L 465.961055 -144.741851 
L 467.633055 -140.303792 
L 469.305055 -138.22928 
L 470.977054 -139.201757 
L 472.649054 -142.630064 
L 474.321053 -147.599476 
L 475.993053 -152.59278 
L 477.665052 -156.768614 
L 479.337052 -159.982869 
L 481.009051 -162.955466 
L 482.681051 -166.275626 
L 484.35305 -169.835575 
L 486.02505 -173.384117 
L 487.697049 -175.789946 
L 489.369049 -176.390124 
L 491.041048 -175.131473 
L 492.713048 -172.584473 
L 494.385047 -169.939679 
L 496.057047 -168.650794 
L 497.729046 -169.041466 
L 499.401046 -171.044432 
L 501.073045 -173.727859 
L 502.745045 -175.797193 
L 504.417044 -175.900537 
L 506.089044 -174.073327 
L 507.761043 -171.10515 
L 509.433043 -168.531018 
L 511.105042 -167.81594 
L 512.777042 -169.540777 
L 514.449041 -172.847644 
L 516.121041 -175.902912 
L 517.79304 -177.107953 
L 519.46504 -175.886446 
L 521.137039 -172.983673 
L 522.809039 -170.145156 
L 524.481038 -168.670042 
L 526.153038 -168.796042 
L 527.825037 -169.654755 
L 529.497037 -169.619234 
L 531.169036 -167.799826 
L 532.841036 -164.336713 
L 534.513035 -160.814698 
L 536.185035 -158.780561 
L 537.857035 -159.362784 
L 539.529034 -162.011569 
L 541.201034 -165.526824 
L 542.873033 -168.153517 
L 544.545033 -168.698537 
L 546.217032 -167.401416 
L 547.889032 -165.708243 
L 549.561031 -165.197628 
L 551.233031 -166.637739 
L 552.90503 -169.732673 
L 554.57703 -173.313714 
L 556.249029 -175.332575 
L 557.921029 -174.807852 
L 559.593028 -172.081634 
L 561.265028 -168.936439 
L 561.265028 -175.584131 
L 561.265028 -175.584131 
L 559.593028 -178.475567 
L 557.921029 -181.157239 
L 556.249029 -181.657439 
L 554.57703 -179.633436 
L 552.90503 -176.282312 
L 551.233031 -173.239901 
L 549.561031 -171.952246 
L 547.889032 -172.784773 
L 546.217032 -174.57954 
L 544.545033 -175.765101 
L 542.873033 -175.141302 
L 541.201034 -172.532038 
L 539.529034 -169.077528 
L 537.857035 -166.325429 
L 536.185035 -165.686826 
L 534.513035 -167.560981 
L 532.841036 -171.010987 
L 531.169036 -174.352123 
L 529.497037 -176.123294 
L 527.825037 -176.051471 
L 526.153038 -175.258886 
L 524.481038 -175.138833 
L 522.809039 -176.573618 
L 521.137039 -179.348784 
L 519.46504 -182.211514 
L 517.79304 -183.332523 
L 516.121041 -182.221759 
L 514.449041 -179.161656 
L 512.777042 -176.357333 
L 511.105042 -174.914177 
L 509.433043 -175.601595 
L 507.761043 -178.160305 
L 506.089044 -180.848643 
L 504.417044 -182.526331 
L 502.745045 -182.083965 
L 501.073045 -180.138805 
L 499.401046 -177.506091 
L 497.729046 -175.503852 
L 496.057047 -175.15412 
L 494.385047 -176.556515 
L 492.713048 -179.017011 
L 491.041048 -181.440475 
L 489.369049 -182.902862 
L 487.697049 -182.22969 
L 486.02505 -179.675 
L 484.35305 -175.984587 
L 482.681051 -172.29066 
L 481.009051 -169.023209 
L 479.337052 -166.113455 
L 477.665052 -162.927546 
L 475.993053 -158.952479 
L 474.321053 -154.173226 
L 472.649054 -149.271967 
L 470.977054 -145.598567 
L 469.305055 -144.539143 
L 467.633055 -146.680743 
L 465.961055 -151.297216 
L 464.289056 -156.902101 
L 462.617056 -161.744572 
L 460.945057 -164.544307 
L 459.273057 -164.685019 
L 457.601058 -162.656009 
L 455.929058 -159.746715 
L 454.257059 -157.294478 
L 452.585059 -156.336667 
L 450.91306 -156.767683 
L 449.24106 -157.749613 
L 447.569061 -158.317073 
L 445.897061 -157.628406 
L 444.225062 -156.057907 
L 442.553062 -154.520425 
L 440.881063 -154.091556 
L 439.209063 -155.257252 
L 437.537064 -157.411313 
L 435.865064 -159.322699 
L 434.193065 -159.858337 
L 432.521065 -158.915445 
L 430.849066 -157.316487 
L 429.177066 -156.38838 
L 427.505067 -156.849257 
L 425.833067 -158.415784 
L 424.161068 -159.954253 
L 422.489068 -160.273657 
L 420.817069 -158.888124 
L 419.145069 -156.354969 
L 417.47307 -154.010158 
L 415.80107 -153.295598 
L 414.129071 -154.686218 
L 412.457071 -157.854381 
L 410.785072 -161.652751 
L 409.113072 -165.068887 
L 407.441073 -167.235379 
L 405.769073 -168.153714 
L 404.097074 -168.33285 
L 402.425074 -168.542251 
L 400.753075 -169.530115 
L 399.081075 -171.785318 
L 397.409076 -174.992504 
L 395.737076 -177.617263 
L 394.065076 -178.29408 
L 392.393077 -176.220844 
L 390.721077 -171.515594 
L 389.049078 -166.024474 
L 387.377078 -162.448963 
L 385.705079 -162.704567 
L 384.033079 -166.57718 
L 382.36108 -172.560673 
L 380.68908 -177.753262 
L 379.017081 -180.248966 
L 377.345081 -179.7104 
L 375.673082 -177.898763 
L 374.001082 -176.982299 
L 372.329083 -178.03341 
L 370.657083 -180.853645 
L 368.985084 -183.856739 
L 367.313084 -185.963194 
L 365.641085 -186.377531 
L 363.969085 -185.928269 
L 362.297086 -186.311275 
L 360.625086 -188.531195 
L 358.953087 -192.399705 
L 357.281087 -196.725114 
L 355.609088 -200.215971 
L 353.937088 -202.307111 
L 352.265089 -202.805033 
L 350.593089 -202.510943 
L 348.92109 -201.618688 
L 347.24909 -200.311701 
L 345.577091 -198.829463 
L 343.905091 -197.54642 
L 342.233092 -197.343547 
L 340.561092 -199.117662 
L 338.889093 -203.320795 
L 337.217093 -209.741537 
L 335.545094 -216.263264 
L 333.873094 -221.662953 
L 332.201095 -224.572264 
L 330.529095 -225.230006 
L 328.857096 -224.615745 
L 327.185096 -224.568076 
L 325.513096 -226.180426 
L 323.841097 -229.632291 
L 322.169097 -234.166655 
L 320.497098 -237.985202 
L 318.825098 -240.33625 
L 317.153099 -240.296086 
L 315.481099 -238.38873 
L 313.8091 -235.340745 
L 312.1371 -232.262002 
L 310.465101 -229.898525 
L 308.793101 -228.17561 
L 307.121102 -226.376896 
L 305.449102 -224.607111 
L 303.777103 -222.970935 
L 302.105103 -221.914254 
L 300.433104 -222.519943 
L 298.761104 -225.163801 
L 297.089105 -229.139974 
L 295.417105 -233.135943 
L 293.745106 -235.598076 
L 292.073106 -235.115014 
L 290.401107 -231.63406 
L 288.729107 -225.918947 
L 287.057108 -219.563126 
L 285.385108 -214.350571 
L 283.713109 -211.323569 
L 282.041109 -210.83217 
L 280.36911 -212.201308 
L 278.69711 -214.412156 
L 277.025111 -216.143162 
L 275.353111 -216.70186 
L 273.681112 -215.99961 
L 272.009112 -214.767335 
L 270.337113 -214.692139 
L 268.665113 -216.763856 
L 266.993114 -221.597273 
L 265.321114 -228.906823 
L 263.649115 -238.031565 
L 261.977115 -248.26451 
L 260.305116 -258.818704 
L 258.633116 -269.649872 
L 256.961116 -280.061205 
L 255.289117 -289.131557 
L 253.617117 -295.815776 
L 251.945118 -299.866627 
L 250.273118 -301.842669 
L 248.601119 -302.981906 
L 246.929119 -304.499951 
L 245.25712 -306.744419 
L 243.58512 -308.818401 
L 241.913121 -309.394143 
L 240.241121 -307.084668 
L 238.569122 -301.668236 
L 236.897122 -293.796141 
L 235.225123 -284.914111 
L 233.553123 -275.905722 
L 231.881124 -266.899322 
L 230.209124 -256.994842 
L 228.537125 -245.605222 
L 226.865125 -232.393349 
L 225.193126 -217.557469 
L 223.521126 -201.45018 
L 221.849127 -184.646403 
L 220.177127 -167.459565 
L 218.505128 -149.882177 
L 216.833128 -131.986107 
L 215.161129 -114.085552 
L 213.489129 -97.165357 
L 211.81713 -82.06158 
L 210.14513 -69.416859 
L 208.473131 -59.777961 
L 206.801131 -53.460985 
L 205.129132 -50.292593 
L 203.457132 -49.857035 
L 201.785133 -51.804074 
L 200.113133 -56.320028 
L 198.441134 -64.29667 
L 196.769134 -76.403565 
L 195.097135 -92.99818 
L 193.425135 -113.85817 
L 191.753136 -137.21135 
L 190.081136 -160.856806 
L 188.409137 -182.472002 
L 186.737137 -200.313951 
L 185.065137 -214.145503 
L 183.393138 -223.795885 
L 181.721138 -229.656665 
L 180.049139 -232.049803 
L 178.377139 -231.23422 
L 176.70514 -227.574615 
L 175.03314 -221.545345 
L 173.361141 -214.019335 
L 171.689141 -206.479247 
L 170.017142 -199.937561 
L 168.345142 -194.784213 
L 166.673143 -191.086228 
L 165.001143 -188.750588 
L 163.329144 -187.241733 
L 161.657144 -186.627343 
L 159.985145 -187.19842 
L 158.313145 -189.025142 
L 156.641146 -191.850931 
L 154.969146 -194.597508 
L 153.297147 -196.223583 
L 151.625147 -196.076493 
L 149.953148 -194.607429 
L 148.281148 -192.951079 
L 146.609149 -192.218111 
L 144.937149 -193.155931 
L 143.26515 -195.47212 
L 141.59315 -197.890512 
L 139.921151 -199.156159 
L 138.249151 -199.039008 
L 136.577152 -198.384068 
L 134.905152 -198.0115 
L 133.233153 -198.337011 
L 131.561153 -198.800403 
L 129.889154 -198.371331 
L 128.217154 -196.539031 
L 126.545155 -193.818214 
L 124.873155 -191.519093 
L 123.201156 -191.424481 
L 121.529156 -194.467492 
L 119.857157 -200.045077 
L 118.185157 -206.818791 
L 116.513157 -213.020051 
L 114.841158 -217.984598 
L 113.169158 -221.937065 
L 111.497159 -225.029553 
L 109.825159 -227.044394 
L 108.15316 -227.90814 
L 106.48116 -227.250382 
L 104.809161 -225.245388 
L 103.137161 -222.885358 
L 101.465162 -221.163435 
L 99.793162 -221.168595 
L 98.121163 -222.713442 
L 96.449163 -224.673265 
L 94.777164 -226.101226 
L 93.105164 -226.258267 
L 91.433165 -225.248415 
L 89.761165 -223.848365 
L 88.089166 -223.263371 
L 86.417166 -224.517998 
L 84.745167 -227.46913 
L 83.073167 -231.367712 
L 81.401168 -235.382151 
L 79.729168 -238.7312 
L 78.057169 -240.878241 
L 76.385169 -241.581323 
L 74.71317 -241.107831 
L 73.04117 -239.834705 
L 71.369171 -238.482301 
L 69.697171 -237.719279 
L 68.025172 -237.511394 
L 66.353172 -238.257017 
L 64.681173 -240.021358 
L 63.009173 -242.508624 
L 61.337174 -245.484471 
L 59.665174 -248.194011 
L 57.993175 -249.80665 
L 56.321175 -249.587275 
L 54.649176 -247.73921 
L 52.977176 -245.17137 
L 51.305177 -242.883389 
L 49.633177 -241.877029 
L 47.961178 -242.464529 
z
" style="stroke: #ff7f0e; stroke-opacity: 0.3"/>
    </defs>
    <g>
     <use xlink:href="#m07fc91444d" x="0" y="432" style="fill: #ff7f0e; fill-opacity: 0.3; stroke: #ff7f0e; stroke-opacity: 0.3"/>
    </g>
   </g>
   <g id="line2d_19">
    <path d="M 47.961178 183.881341 
L 49.633177 177.344037 
L 51.305177 173.26365 
L 52.977176 172.314919 
L 54.649176 173.622471 
L 56.321175 176.118774 
L 57.993175 179.576368 
L 59.665174 184.397658 
L 63.009173 196.742357 
L 64.681173 200.793129 
L 66.353172 201.176133 
L 68.025172 198.367176 
L 69.697171 194.901836 
L 71.369171 193.840607 
L 73.04117 196.709417 
L 76.385169 208.22292 
L 78.057169 211.297242 
L 79.729168 210.920293 
L 81.401168 208.51253 
L 83.073167 206.355502 
L 84.745167 205.763888 
L 86.417166 206.212366 
L 88.089166 206.016301 
L 89.761165 203.891432 
L 91.433165 200.225661 
L 93.105164 197.008292 
L 94.777164 196.605212 
L 96.449163 200.273784 
L 98.121163 207.412463 
L 99.793162 215.956269 
L 101.465162 223.494079 
L 103.137161 228.319412 
L 104.809161 229.937133 
L 106.48116 228.910875 
L 109.825159 223.730296 
L 111.497159 221.843922 
L 113.169158 221.152301 
L 114.841158 221.353633 
L 116.513157 221.7087 
L 118.185157 221.652592 
L 119.857157 221.361593 
L 121.529156 221.81163 
L 123.201156 224.086693 
L 124.873155 228.344129 
L 126.545155 233.263536 
L 128.217154 236.56409 
L 129.889154 236.402726 
L 131.561153 232.721261 
L 133.233153 227.501218 
L 134.905152 223.578762 
L 136.577152 222.711744 
L 139.921151 226.177671 
L 141.59315 225.717177 
L 143.26515 222.397324 
L 144.937149 217.983377 
L 146.609149 215.375012 
L 148.281148 216.512626 
L 149.953148 220.954699 
L 151.625147 226.228444 
L 153.297147 229.563013 
L 154.969146 229.809214 
L 156.641146 228.09794 
L 158.313145 226.83381 
L 159.985145 227.869958 
L 161.657144 231.225622 
L 163.329144 235.174533 
L 165.001143 237.529984 
L 166.673143 237.047273 
L 168.345142 233.989568 
L 176.70514 212.211379 
L 178.377139 208.087784 
L 180.049139 205.535041 
L 181.721138 206.1979 
L 183.393138 211.376298 
L 185.065137 221.514191 
L 186.737137 236.111439 
L 188.409137 253.965517 
L 195.097135 332.503529 
L 196.769134 350.688744 
L 198.441134 367.462504 
L 200.113133 381.454934 
L 201.785133 390.630127 
L 203.457132 393.128148 
L 205.129132 388.371524 
L 206.801131 377.772951 
L 210.14513 351.283543 
L 211.81713 340.293148 
L 213.489129 330.823298 
L 215.161129 320.676244 
L 216.833128 307.692316 
L 218.505128 291.287359 
L 221.849127 255.194876 
L 223.521126 240.0969 
L 225.193126 227.974192 
L 228.537125 206.777395 
L 230.209124 194.519401 
L 235.225123 153.181375 
L 236.897122 142.107682 
L 238.569122 134.216235 
L 240.241121 130.105434 
L 241.913121 129.851182 
L 243.58512 132.66766 
L 245.25712 136.857703 
L 246.929119 140.365764 
L 248.601119 141.847644 
L 250.273118 141.612325 
L 251.945118 141.595726 
L 253.617117 144.204597 
L 255.289117 150.707111 
L 258.633116 170.185087 
L 260.305116 178.044828 
L 261.977115 182.884371 
L 263.649115 185.986504 
L 265.321114 189.733791 
L 266.993114 195.70094 
L 268.665113 203.357045 
L 270.337113 210.32509 
L 272.009112 214.064173 
L 273.681112 213.751873 
L 275.353111 210.934242 
L 277.025111 208.478125 
L 278.69711 208.496374 
L 282.041109 213.138447 
L 283.713109 212.632287 
L 285.385108 208.097332 
L 288.729107 193.969662 
L 290.401107 190.031318 
L 292.073106 189.574656 
L 293.745106 190.704802 
L 295.417105 190.539381 
L 297.089105 187.302892 
L 300.433104 175.722463 
L 302.105103 172.369946 
L 303.777103 172.504103 
L 307.121102 177.680043 
L 308.793101 178.745404 
L 310.465101 178.144366 
L 312.1371 177.299027 
L 313.8091 177.929527 
L 315.481099 180.757595 
L 318.825098 189.381523 
L 320.497098 192.472695 
L 322.169097 194.154798 
L 325.513096 196.059258 
L 328.857096 198.42163 
L 330.529095 199.106193 
L 332.201095 199.457922 
L 333.873094 200.053911 
L 335.545094 201.356762 
L 337.217093 203.092598 
L 338.889093 204.193599 
L 340.561092 203.508026 
L 342.233092 200.774376 
L 343.905091 197.165791 
L 345.577091 194.830907 
L 347.24909 195.703122 
L 348.92109 200.306576 
L 352.265089 214.558979 
L 353.937088 219.640008 
L 355.609088 221.67471 
L 357.281087 221.252671 
L 358.953087 219.911671 
L 360.625086 219.181703 
L 362.297086 219.896816 
L 363.969085 222.057429 
L 365.641085 225.191563 
L 370.657083 235.946662 
L 372.329083 239.106913 
L 374.001082 241.649505 
L 375.673082 243.318234 
L 377.345081 244.007447 
L 379.017081 243.876975 
L 382.36108 242.881107 
L 384.033079 243.022324 
L 385.705079 243.953146 
L 387.377078 245.414226 
L 389.049078 246.689591 
L 390.721077 246.939466 
L 392.393077 245.686765 
L 395.737076 240.985514 
L 397.409076 240.219876 
L 399.081075 241.781191 
L 402.425074 248.426573 
L 404.097074 249.811936 
L 405.769073 248.430422 
L 407.441073 245.194229 
L 409.113072 242.291342 
L 410.785072 241.790336 
L 412.457071 244.273492 
L 414.129071 248.417737 
L 415.80107 251.839888 
L 417.47307 252.636883 
L 419.145069 250.548687 
L 420.817069 247.003745 
L 422.489068 244.07736 
L 424.161068 243.122871 
L 425.833067 244.054706 
L 427.505067 245.674924 
L 429.177066 246.663191 
L 430.849066 246.491879 
L 432.521065 245.675444 
L 434.193065 245.254932 
L 435.865064 246.018159 
L 437.537064 248.061541 
L 440.881063 253.621181 
L 442.553062 255.91742 
L 444.225062 257.60706 
L 445.897061 258.751363 
L 447.569061 259.346391 
L 449.24106 259.234781 
L 450.91306 258.301981 
L 454.257059 255.185527 
L 455.929058 254.526342 
L 457.601058 255.465322 
L 459.273057 258.022216 
L 460.945057 261.337224 
L 462.617056 263.952507 
L 464.289056 264.514172 
L 465.961055 262.525529 
L 469.305055 254.936504 
L 470.977054 252.94143 
L 472.649054 253.710247 
L 474.321053 256.700375 
L 475.993053 260.166004 
L 477.665052 262.096889 
L 479.337052 261.340085 
L 481.009051 258.210122 
L 482.681051 254.182241 
L 484.35305 250.942839 
L 486.02505 249.385036 
L 489.369049 248.771408 
L 491.041048 246.952599 
L 492.713048 243.235136 
L 494.385047 238.612983 
L 496.057047 235.079268 
L 497.729046 234.560041 
L 499.401046 237.793212 
L 502.745045 250.132317 
L 504.417044 254.331535 
L 506.089044 254.975229 
L 507.761043 252.570529 
L 509.433043 249.160434 
L 511.105042 247.127328 
L 512.777042 247.796278 
L 514.449041 250.797593 
L 516.121041 254.454493 
L 517.79304 256.923591 
L 519.46504 257.285567 
L 521.137039 255.802823 
L 522.809039 253.3604 
L 524.481038 250.560316 
L 526.153038 247.326398 
L 527.825037 243.275757 
L 529.497037 238.516913 
L 531.169036 234.094796 
L 532.841036 231.637623 
L 534.513035 232.324957 
L 536.185035 235.957461 
L 537.857035 240.907417 
L 539.529034 244.989451 
L 541.201034 246.780786 
L 542.873033 246.39367 
L 544.545033 245.257643 
L 546.217032 245.12134 
L 547.889032 247.01161 
L 549.561031 250.800679 
L 552.90503 260.140567 
L 554.57703 263.990544 
L 556.249029 266.911867 
L 557.921029 268.858503 
L 559.593028 269.591757 
L 561.265028 268.707534 
L 561.265028 268.707534 
" style="fill: none; stroke: #1f77b4; stroke-width: 1.5; stroke-linecap: square"/>
   </g>
   <g id="line2d_20">
    <path d="M 47.961178 192.309677 
L 49.633177 192.839078 
L 51.305177 191.765656 
L 52.977176 189.436787 
L 54.649176 186.80397 
L 56.321175 184.976848 
L 57.993175 184.71626 
L 59.665174 186.144615 
L 61.337174 188.757829 
L 63.009173 191.73217 
L 64.681173 194.30338 
L 66.353172 195.990514 
L 68.025172 196.654071 
L 69.697171 196.396496 
L 71.369171 195.474792 
L 73.04117 194.248514 
L 74.71317 193.16883 
L 76.385169 192.752439 
L 78.057169 193.469058 
L 79.729168 195.573393 
L 81.401168 198.945849 
L 84.745167 206.906538 
L 86.417166 209.675394 
L 88.089166 210.749579 
L 89.761165 210.219622 
L 91.433165 208.860743 
L 93.105164 207.799022 
L 94.777164 207.937096 
L 96.449163 209.412455 
L 98.121163 211.490892 
L 99.793162 212.966559 
L 101.465162 212.901681 
L 103.137161 211.215248 
L 104.809161 208.741159 
L 106.48116 206.719955 
L 108.15316 206.071523 
L 109.825159 207.00167 
L 111.497159 209.16233 
L 113.169158 212.182147 
L 114.841158 216.082265 
L 116.513157 221.15007 
L 121.529156 239.65256 
L 123.201156 242.736313 
L 124.873155 242.786873 
L 126.545155 240.605082 
L 128.217154 237.863692 
L 129.889154 236.065315 
L 131.561153 235.699562 
L 133.233153 236.153894 
L 134.905152 236.413612 
L 136.577152 235.999986 
L 138.249151 235.360511 
L 139.921151 235.461034 
L 141.59315 236.91679 
L 144.937149 241.70081 
L 146.609149 242.692143 
L 148.281148 241.970689 
L 149.953148 240.242926 
L 151.625147 238.834469 
L 153.297147 238.851074 
L 154.969146 240.54815 
L 158.313145 245.924533 
L 159.985145 247.691515 
L 161.657144 248.254084 
L 163.329144 247.73477 
L 165.001143 246.313203 
L 166.673143 243.934809 
L 168.345142 240.294121 
L 170.017142 235.101906 
L 171.689141 228.438853 
L 175.03314 213.565751 
L 176.70514 207.569415 
L 178.377139 203.880678 
L 180.049139 203.109024 
L 181.721138 205.571307 
L 183.393138 211.515359 
L 185.065137 221.282424 
L 186.737137 235.230897 
L 188.409137 253.388548 
L 190.081136 275.04495 
L 193.425135 321.805598 
L 195.097135 342.464937 
L 196.769134 359.058349 
L 198.441134 371.129118 
L 200.113133 379.118103 
L 201.785133 383.836176 
L 203.457132 385.910707 
L 205.129132 385.492398 
L 206.801131 382.316105 
L 208.473131 376.005366 
L 210.14513 366.396375 
L 211.81713 353.701903 
L 213.489129 338.499996 
L 216.833128 303.865882 
L 221.849127 251.055575 
L 225.193126 218.160315 
L 226.865125 203.222524 
L 228.537125 189.963239 
L 230.209124 178.575426 
L 231.881124 168.712322 
L 236.897122 141.71365 
L 238.569122 133.839219 
L 240.241121 128.270297 
L 241.913121 125.845113 
L 243.58512 126.333618 
L 246.929119 130.765479 
L 248.601119 132.342149 
L 250.273118 133.531765 
L 251.945118 135.548465 
L 253.617117 139.662193 
L 255.289117 146.424267 
L 256.961116 155.462628 
L 263.649115 197.369995 
L 265.321114 206.40589 
L 266.993114 213.687835 
L 268.665113 218.503648 
L 270.337113 220.605706 
L 272.009112 220.519021 
L 273.681112 219.448843 
L 275.353111 218.747772 
L 277.025111 219.292515 
L 278.69711 221.100773 
L 280.36911 223.337236 
L 282.041109 224.734019 
L 283.713109 224.137252 
L 285.385108 221.015355 
L 287.057108 215.717736 
L 288.729107 209.413854 
L 290.401107 203.745995 
L 292.073106 200.251803 
L 293.745106 199.75808 
L 295.417105 202.061433 
L 298.761104 209.988309 
L 300.433104 212.66582 
L 302.105103 213.462337 
L 303.777103 212.635508 
L 305.449102 210.927511 
L 310.465101 205.281985 
L 312.1371 202.887457 
L 315.481099 197.123747 
L 317.153099 195.202195 
L 318.825098 195.165065 
L 320.497098 197.39058 
L 322.169097 201.377592 
L 323.841097 205.853906 
L 325.513096 209.361174 
L 327.185096 210.971068 
L 328.857096 210.835556 
L 330.529095 210.170823 
L 332.201095 210.644357 
L 333.873094 213.496018 
L 335.545094 218.825822 
L 338.889093 231.773454 
L 340.561092 236.097287 
L 342.233092 237.905944 
L 343.905091 237.652888 
L 345.577091 236.337047 
L 347.24909 234.864769 
L 348.92109 233.681637 
L 350.593089 232.892859 
L 352.265089 232.628588 
L 353.937088 233.282494 
L 355.609088 235.31554 
L 357.281087 238.770571 
L 358.953087 242.949059 
L 360.625086 246.624127 
L 362.297086 248.748618 
L 363.969085 249.192856 
L 365.641085 248.910991 
L 367.313084 249.333344 
L 368.985084 251.324158 
L 370.657083 254.481441 
L 372.329083 257.344415 
L 374.001082 258.428034 
L 375.673082 257.413962 
L 377.345081 255.578523 
L 379.017081 255.07794 
L 380.68908 257.51071 
L 382.36108 262.727769 
L 384.033079 268.725408 
L 385.705079 272.769543 
L 387.377078 272.97792 
L 389.049078 269.410082 
L 390.721077 263.958214 
L 392.393077 259.192536 
L 394.065076 256.99472 
L 395.737076 257.740641 
L 397.409076 260.426408 
L 399.081075 263.486049 
L 400.753075 265.688369 
L 402.425074 266.645603 
L 405.769073 266.859446 
L 407.441073 267.783596 
L 409.113072 270.004449 
L 410.785072 273.415716 
L 412.457071 277.282649 
L 414.129071 280.466782 
L 415.80107 281.906909 
L 417.47307 281.184553 
L 419.145069 278.860381 
L 420.817069 276.260802 
L 422.489068 274.783453 
L 424.161068 275.084735 
L 427.505067 278.329424 
L 429.177066 278.851057 
L 430.849066 277.946392 
L 432.521065 276.384492 
L 434.193065 275.422405 
L 435.865064 275.913399 
L 437.537064 277.709129 
L 439.209063 279.75743 
L 440.881063 280.85477 
L 442.553062 280.456705 
L 445.897061 277.544611 
L 447.569061 277.038695 
L 449.24106 277.665556 
L 450.91306 278.731249 
L 452.585059 279.129731 
L 454.257059 278.067251 
L 455.929058 275.57942 
L 457.601058 272.600667 
L 459.273057 270.554478 
L 460.945057 270.690619 
L 462.617056 273.49701 
L 464.289056 278.422245 
L 465.961055 284.052354 
L 467.633055 288.609375 
L 469.305055 290.647541 
L 470.977054 289.61634 
L 472.649054 286.020761 
L 475.993053 276.216938 
L 477.665052 272.167726 
L 479.337052 268.964441 
L 481.009051 266.03447 
L 482.681051 262.787208 
L 486.02505 255.633787 
L 487.697049 253.195323 
L 489.369049 252.556 
L 491.041048 253.793205 
L 494.385047 258.726714 
L 496.057047 260.096503 
L 497.729046 259.702777 
L 499.401046 257.714346 
L 501.073045 255.083601 
L 502.745045 253.114889 
L 504.417044 252.864899 
L 506.089044 254.579433 
L 507.761043 257.455518 
L 509.433043 259.990871 
L 511.105042 260.744831 
L 512.777042 259.181918 
L 516.121041 253.072043 
L 517.79304 251.847906 
L 519.46504 253.012324 
L 522.809039 258.674802 
L 524.481038 260.168337 
L 526.153038 260.017699 
L 527.825037 259.194232 
L 529.497037 259.202989 
L 531.169036 261.016808 
L 534.513035 267.835267 
L 536.185035 269.756076 
L 537.857035 269.1643 
L 539.529034 266.407642 
L 541.201034 262.914427 
L 542.873033 260.379581 
L 544.545033 259.821266 
L 546.217032 261.035882 
L 547.889032 262.767225 
L 549.561031 263.442278 
L 551.233031 262.093381 
L 552.90503 258.997561 
L 554.57703 255.574681 
L 556.249029 253.609203 
L 557.921029 254.170645 
L 559.593028 256.865535 
L 561.265028 259.9608 
L 561.265028 259.9608 
" style="fill: none; stroke: #ff7f0e; stroke-width: 1.5; stroke-linecap: square"/>
   </g>
  </g>
  <g id="axes_2">
   <g id="PathCollection_1">
    <defs>
     <path id="C0_0_3a289129ac" d="M 0 1.118034 
C 0.296506 1.118034 0.580908 1.000231 0.790569 0.790569 
C 1.000231 0.580908 1.118034 0.296506 1.118034 -0 
C 1.118034 -0.296506 1.000231 -0.580908 0.790569 -0.790569 
C 0.580908 -1.000231 0.296506 -1.118034 0 -1.118034 
C -0.296506 -1.118034 -0.580908 -1.000231 -0.790569 -0.790569 
C -1.000231 -0.580908 -1.118034 -0.296506 -1.118034 0 
C -1.118034 0.296506 -1.000231 0.580908 -0.790569 0.790569 
C -0.580908 1.000231 -0.296506 1.118034 0 1.118034 
z
"/>
    </defs>
    <g clip-path="url(#p62e7006f2c)">
     <use xlink:href="#C0_0_3a289129ac" x="485.058303" y="87.466398" style="stroke: #000000"/>
    </g>
    <g clip-path="url(#p62e7006f2c)">
     <use xlink:href="#C0_0_3a289129ac" x="532.706594" y="87.438796" style="stroke: #000000"/>
    </g>
   </g>
   <g id="matplotlib.axis_3"/>
   <g id="matplotlib.axis_4"/>
   <g id="line2d_21">
    <path d="M 548.861908 73.635719 
L 548.784248 71.164526 
L 548.551573 68.703086 
L 548.164802 66.261113 
L 547.625462 63.848244 
L 546.935681 61.474002 
L 546.098181 59.147756 
L 545.116268 56.878688 
L 543.993816 54.675752 
L 542.735255 52.547643 
L 541.345553 50.502758 
L 539.830194 48.549169 
L 538.195158 46.694585 
L 536.446899 44.946325 
L 534.592314 43.311289 
L 532.638725 41.79593 
L 530.593841 40.406228 
L 528.465731 39.147667 
L 526.262795 38.025216 
L 523.993727 37.043302 
L 521.667482 36.205802 
L 519.293239 35.516021 
L 516.88037 34.976681 
L 514.438397 34.58991 
L 511.976957 34.357236 
L 509.505764 34.279575 
L 507.034572 34.357236 
L 504.573132 34.58991 
L 502.131159 34.976681 
L 499.71829 35.516021 
L 497.344047 36.205802 
L 495.017802 37.043302 
L 492.748734 38.025216 
L 490.545798 39.147667 
L 488.417688 40.406228 
L 486.372804 41.79593 
L 484.419214 43.311289 
L 482.56463 44.946325 
L 480.816371 46.694585 
L 479.181335 48.549169 
L 477.665976 50.502758 
L 476.276273 52.547643 
L 475.017713 54.675752 
L 473.895261 56.878688 
L 472.913348 59.147756 
L 472.075848 61.474002 
L 471.386067 63.848244 
L 470.846726 66.261113 
L 470.459956 68.703086 
L 470.227281 71.164526 
L 470.149621 73.635719 
L 470.227281 76.106912 
L 470.459956 78.568352 
L 470.846726 81.010325 
L 471.386067 83.423194 
L 472.075848 85.797436 
L 472.913348 88.123682 
L 473.895261 90.39275 
L 475.017713 92.595686 
L 476.276273 94.723795 
L 477.665976 96.76868 
L 479.181335 98.722269 
L 480.816371 100.576853 
L 482.56463 102.325113 
L 484.419214 103.960149 
L 486.372804 105.475508 
L 488.417688 106.86521 
L 490.545798 108.12377 
L 492.748734 109.246222 
L 495.017802 110.228136 
L 497.344047 111.065636 
L 499.71829 111.755417 
L 502.131159 112.294757 
L 504.573132 112.681527 
L 507.034572 112.914202 
L 509.505764 112.991862 
L 511.976957 112.914202 
L 514.438397 112.681527 
L 516.88037 112.294757 
L 519.293239 111.755417 
L 521.667482 111.065636 
L 523.993727 110.228136 
L 526.262795 109.246222 
L 528.465731 108.12377 
L 530.593841 106.86521 
L 532.638725 105.475508 
L 534.592314 103.960149 
L 536.446899 102.325113 
L 538.195158 100.576853 
L 539.830194 98.722269 
L 541.345553 96.76868 
L 542.735255 94.723795 
L 543.993816 92.595686 
L 545.116268 90.39275 
L 546.098181 88.123682 
L 546.935681 85.797436 
L 547.625462 83.423194 
L 548.164802 81.010325 
L 548.551573 78.568352 
L 548.784248 76.106912 
L 548.861908 73.635719 
" style="fill: none; stroke: #000000; stroke-linecap: square"/>
   </g>
   <g id="line2d_22">
    <path d="M 501.263033 35.152431 
L 509.505764 28.376154 
L 517.748496 35.152431 
" style="fill: none; stroke: #000000; stroke-linecap: square"/>
   </g>
   <g id="line2d_23">
    <path d="M 470.385758 69.267187 
L 469.362498 67.535517 
L 468.7328 67.472547 
L 467.796124 67.763782 
L 466.851576 69.267187 
L 467.001129 74.068636 
L 466.450143 80.971704 
L 467.630828 83.970642 
L 469.362498 84.529499 
L 471.015456 83.073322 
" style="fill: none; stroke: #000000; stroke-linecap: square"/>
   </g>
   <g id="line2d_24">
    <path d="M 548.625771 69.267187 
L 549.649031 67.535517 
L 550.278729 67.472547 
L 551.215405 67.763782 
L 552.159953 69.267187 
L 552.010399 74.068636 
L 552.561385 80.971704 
L 551.380701 83.970642 
L 549.649031 84.529499 
L 547.996073 83.073322 
" style="fill: none; stroke: #000000; stroke-linecap: square"/>
   </g>
  </g>
 </g>
 <defs>
  <clipPath id="p17ce0834de">
   <rect x="47.961178" y="18.118365" width="513.90577" height="380.525145"/>
  </clipPath>
  <clipPath id="p62e7006f2c">
   <rect x="462.144581" y="24.145368" width="94.722366" height="93.077279"/>
  </clipPath>
 </defs>
</svg>
