<?xml version="1.0" encoding="utf-8" standalone="no"?>
<!DOCTYPE svg PUBLIC "-//W3C//DTD SVG 1.1//EN"
  "http://www.w3.org/Graphics/SVG/1.1/DTD/svg11.dtd">
<svg xmlns:xlink="http://www.w3.org/1999/xlink" width="576pt" height="432pt" viewBox="0 0 576 432" xmlns="http://www.w3.org/2000/svg" version="1.1">
 <metadata>
  <rdf:RDF xmlns:dc="http://purl.org/dc/elements/1.1/" xmlns:cc="http://creativecommons.org/ns#" xmlns:rdf="http://www.w3.org/1999/02/22-rdf-syntax-ns#">
   <cc:Work>
    <dc:type rdf:resource="http://purl.org/dc/dcmitype/StillImage"/>
    <dc:date>2025-02-20T17:24:22.748870</dc:date>
    <dc:format>image/svg+xml</dc:format>
    <dc:creator>
     <cc:Agent>
      <dc:title>Matplotlib v3.10.0, https://matplotlib.org/</dc:title>
     </cc:Agent>
    </dc:creator>
   </cc:Work>
  </rdf:RDF>
 </metadata>
 <defs>
  <style type="text/css">*{stroke-linejoin: round; stroke-linecap: butt}</style>
 </defs>
 <g id="figure_1">
  <g id="patch_1">
   <path d="M 0 432 
L 576 432 
L 576 0 
L 0 0 
z
" style="fill: #ffffff"/>
  </g>
  <g id="axes_1">
   <g id="patch_2">
    <path d="M 54.323678 398.64351 
L 561.866948 398.64351 
L 561.866948 18.118365 
L 54.323678 18.118365 
L 54.323678 398.64351 
z
" style="fill: none; opacity: 0"/>
   </g>
   <g id="patch_3">
    <path d="M 54.323678 388.46302 
L 54.323678 28.298855 
" style="fill: none; stroke: #000000; stroke-width: 0.8; stroke-linejoin: miter; stroke-linecap: square"/>
   </g>
   <g id="LineCollection_1">
    <path d="M 287.090789 18.118365 
L 287.090789 398.64351 
" clip-path="url(#p81f331a910)" style="fill: none; stroke-dasharray: 3.7,1.6; stroke-dashoffset: 0; stroke: #000000"/>
    <path d="M 371.637299 18.118365 
L 371.637299 398.64351 
" clip-path="url(#p81f331a910)" style="fill: none; stroke-dasharray: 3.7,1.6; stroke-dashoffset: 0; stroke: #000000"/>
   </g>
   <g id="matplotlib.axis_1">
    <g id="xtick_1">
     <g id="line2d_1">
      <defs>
       <path id="mf7830cc535" d="M 0 0 
L 0 3.5 
" style="stroke: #000000; stroke-width: 0.8"/>
      </defs>
      <g>
       <use xlink:href="#mf7830cc535" x="54.587885" y="398.64351" style="stroke: #000000; stroke-width: 0.8"/>
      </g>
     </g>
     <g id="text_1">
      <!-- −0.20 -->
      <g transform="translate(39.265229 413.241947) scale(0.1 -0.1)">
       <defs>
        <path id="DejaVuSans-2212" d="M 678 2272 
L 4684 2272 
L 4684 1741 
L 678 1741 
L 678 2272 
z
" transform="scale(0.015625)"/>
        <path id="DejaVuSans-30" d="M 2034 4250 
Q 1547 4250 1301 3770 
Q 1056 3291 1056 2328 
Q 1056 1369 1301 889 
Q 1547 409 2034 409 
Q 2525 409 2770 889 
Q 3016 1369 3016 2328 
Q 3016 3291 2770 3770 
Q 2525 4250 2034 4250 
z
M 2034 4750 
Q 2819 4750 3233 4129 
Q 3647 3509 3647 2328 
Q 3647 1150 3233 529 
Q 2819 -91 2034 -91 
Q 1250 -91 836 529 
Q 422 1150 422 2328 
Q 422 3509 836 4129 
Q 1250 4750 2034 4750 
z
" transform="scale(0.015625)"/>
        <path id="DejaVuSans-2e" d="M 684 794 
L 1344 794 
L 1344 0 
L 684 0 
L 684 794 
z
" transform="scale(0.015625)"/>
        <path id="DejaVuSans-32" d="M 1228 531 
L 3431 531 
L 3431 0 
L 469 0 
L 469 531 
Q 828 903 1448 1529 
Q 2069 2156 2228 2338 
Q 2531 2678 2651 2914 
Q 2772 3150 2772 3378 
Q 2772 3750 2511 3984 
Q 2250 4219 1831 4219 
Q 1534 4219 1204 4116 
Q 875 4013 500 3803 
L 500 4441 
Q 881 4594 1212 4672 
Q 1544 4750 1819 4750 
Q 2544 4750 2975 4387 
Q 3406 4025 3406 3419 
Q 3406 3131 3298 2873 
Q 3191 2616 2906 2266 
Q 2828 2175 2409 1742 
Q 1991 1309 1228 531 
z
" transform="scale(0.015625)"/>
       </defs>
       <use xlink:href="#DejaVuSans-2212"/>
       <use xlink:href="#DejaVuSans-30" transform="translate(83.789062 0)"/>
       <use xlink:href="#DejaVuSans-2e" transform="translate(147.412109 0)"/>
       <use xlink:href="#DejaVuSans-32" transform="translate(179.199219 0)"/>
       <use xlink:href="#DejaVuSans-30" transform="translate(242.822266 0)"/>
      </g>
     </g>
    </g>
    <g id="xtick_2">
     <g id="line2d_2">
      <g>
       <use xlink:href="#mf7830cc535" x="139.134396" y="398.64351" style="stroke: #000000; stroke-width: 0.8"/>
      </g>
     </g>
     <g id="text_2">
      <!-- 0.00 -->
      <g transform="translate(128.001583 413.241947) scale(0.1 -0.1)">
       <use xlink:href="#DejaVuSans-30"/>
       <use xlink:href="#DejaVuSans-2e" transform="translate(63.623047 0)"/>
       <use xlink:href="#DejaVuSans-30" transform="translate(95.410156 0)"/>
       <use xlink:href="#DejaVuSans-30" transform="translate(159.033203 0)"/>
      </g>
     </g>
    </g>
    <g id="xtick_3">
     <g id="line2d_3">
      <g>
       <use xlink:href="#mf7830cc535" x="223.680906" y="398.64351" style="stroke: #000000; stroke-width: 0.8"/>
      </g>
     </g>
     <g id="text_3">
      <!-- 0.20 -->
      <g transform="translate(212.548094 413.241947) scale(0.1 -0.1)">
       <use xlink:href="#DejaVuSans-30"/>
       <use xlink:href="#DejaVuSans-2e" transform="translate(63.623047 0)"/>
       <use xlink:href="#DejaVuSans-32" transform="translate(95.410156 0)"/>
       <use xlink:href="#DejaVuSans-30" transform="translate(159.033203 0)"/>
      </g>
     </g>
    </g>
    <g id="xtick_4">
     <g id="line2d_4">
      <g>
       <use xlink:href="#mf7830cc535" x="287.090789" y="398.64351" style="stroke: #000000; stroke-width: 0.8"/>
      </g>
     </g>
     <g id="text_4">
      <!-- 0.35 -->
      <g transform="translate(275.957976 413.241947) scale(0.1 -0.1)">
       <defs>
        <path id="DejaVuSans-33" d="M 2597 2516 
Q 3050 2419 3304 2112 
Q 3559 1806 3559 1356 
Q 3559 666 3084 287 
Q 2609 -91 1734 -91 
Q 1441 -91 1130 -33 
Q 819 25 488 141 
L 488 750 
Q 750 597 1062 519 
Q 1375 441 1716 441 
Q 2309 441 2620 675 
Q 2931 909 2931 1356 
Q 2931 1769 2642 2001 
Q 2353 2234 1838 2234 
L 1294 2234 
L 1294 2753 
L 1863 2753 
Q 2328 2753 2575 2939 
Q 2822 3125 2822 3475 
Q 2822 3834 2567 4026 
Q 2313 4219 1838 4219 
Q 1578 4219 1281 4162 
Q 984 4106 628 3988 
L 628 4550 
Q 988 4650 1302 4700 
Q 1616 4750 1894 4750 
Q 2613 4750 3031 4423 
Q 3450 4097 3450 3541 
Q 3450 3153 3228 2886 
Q 3006 2619 2597 2516 
z
" transform="scale(0.015625)"/>
        <path id="DejaVuSans-35" d="M 691 4666 
L 3169 4666 
L 3169 4134 
L 1269 4134 
L 1269 2991 
Q 1406 3038 1543 3061 
Q 1681 3084 1819 3084 
Q 2600 3084 3056 2656 
Q 3513 2228 3513 1497 
Q 3513 744 3044 326 
Q 2575 -91 1722 -91 
Q 1428 -91 1123 -41 
Q 819 9 494 109 
L 494 744 
Q 775 591 1075 516 
Q 1375 441 1709 441 
Q 2250 441 2565 725 
Q 2881 1009 2881 1497 
Q 2881 1984 2565 2268 
Q 2250 2553 1709 2553 
Q 1456 2553 1204 2497 
Q 953 2441 691 2322 
L 691 4666 
z
" transform="scale(0.015625)"/>
       </defs>
       <use xlink:href="#DejaVuSans-30"/>
       <use xlink:href="#DejaVuSans-2e" transform="translate(63.623047 0)"/>
       <use xlink:href="#DejaVuSans-33" transform="translate(95.410156 0)"/>
       <use xlink:href="#DejaVuSans-35" transform="translate(159.033203 0)"/>
      </g>
     </g>
    </g>
    <g id="xtick_5">
     <g id="line2d_5">
      <g>
       <use xlink:href="#mf7830cc535" x="308.227416" y="398.64351" style="stroke: #000000; stroke-width: 0.8"/>
      </g>
     </g>
     <g id="text_5">
      <!-- 0.40 -->
      <g transform="translate(297.094604 413.241947) scale(0.1 -0.1)">
       <defs>
        <path id="DejaVuSans-34" d="M 2419 4116 
L 825 1625 
L 2419 1625 
L 2419 4116 
z
M 2253 4666 
L 3047 4666 
L 3047 1625 
L 3713 1625 
L 3713 1100 
L 3047 1100 
L 3047 0 
L 2419 0 
L 2419 1100 
L 313 1100 
L 313 1709 
L 2253 4666 
z
" transform="scale(0.015625)"/>
       </defs>
       <use xlink:href="#DejaVuSans-30"/>
       <use xlink:href="#DejaVuSans-2e" transform="translate(63.623047 0)"/>
       <use xlink:href="#DejaVuSans-34" transform="translate(95.410156 0)"/>
       <use xlink:href="#DejaVuSans-30" transform="translate(159.033203 0)"/>
      </g>
     </g>
    </g>
    <g id="xtick_6">
     <g id="line2d_6">
      <g>
       <use xlink:href="#mf7830cc535" x="371.637299" y="398.64351" style="stroke: #000000; stroke-width: 0.8"/>
      </g>
     </g>
     <g id="text_6">
      <!-- 0.55 -->
      <g transform="translate(360.504487 413.241947) scale(0.1 -0.1)">
       <use xlink:href="#DejaVuSans-30"/>
       <use xlink:href="#DejaVuSans-2e" transform="translate(63.623047 0)"/>
       <use xlink:href="#DejaVuSans-35" transform="translate(95.410156 0)"/>
       <use xlink:href="#DejaVuSans-35" transform="translate(159.033203 0)"/>
      </g>
     </g>
    </g>
    <g id="xtick_7">
     <g id="line2d_7">
      <g>
       <use xlink:href="#mf7830cc535" x="392.773927" y="398.64351" style="stroke: #000000; stroke-width: 0.8"/>
      </g>
     </g>
     <g id="text_7">
      <!-- 0.60 -->
      <g transform="translate(381.641114 413.241947) scale(0.1 -0.1)">
       <defs>
        <path id="DejaVuSans-36" d="M 2113 2584 
Q 1688 2584 1439 2293 
Q 1191 2003 1191 1497 
Q 1191 994 1439 701 
Q 1688 409 2113 409 
Q 2538 409 2786 701 
Q 3034 994 3034 1497 
Q 3034 2003 2786 2293 
Q 2538 2584 2113 2584 
z
M 3366 4563 
L 3366 3988 
Q 3128 4100 2886 4159 
Q 2644 4219 2406 4219 
Q 1781 4219 1451 3797 
Q 1122 3375 1075 2522 
Q 1259 2794 1537 2939 
Q 1816 3084 2150 3084 
Q 2853 3084 3261 2657 
Q 3669 2231 3669 1497 
Q 3669 778 3244 343 
Q 2819 -91 2113 -91 
Q 1303 -91 875 529 
Q 447 1150 447 2328 
Q 447 3434 972 4092 
Q 1497 4750 2381 4750 
Q 2619 4750 2861 4703 
Q 3103 4656 3366 4563 
z
" transform="scale(0.015625)"/>
       </defs>
       <use xlink:href="#DejaVuSans-30"/>
       <use xlink:href="#DejaVuSans-2e" transform="translate(63.623047 0)"/>
       <use xlink:href="#DejaVuSans-36" transform="translate(95.410156 0)"/>
       <use xlink:href="#DejaVuSans-30" transform="translate(159.033203 0)"/>
      </g>
     </g>
    </g>
    <g id="xtick_8">
     <g id="line2d_8">
      <g>
       <use xlink:href="#mf7830cc535" x="477.320437" y="398.64351" style="stroke: #000000; stroke-width: 0.8"/>
      </g>
     </g>
     <g id="text_8">
      <!-- 0.80 -->
      <g transform="translate(466.187625 413.241947) scale(0.1 -0.1)">
       <defs>
        <path id="DejaVuSans-38" d="M 2034 2216 
Q 1584 2216 1326 1975 
Q 1069 1734 1069 1313 
Q 1069 891 1326 650 
Q 1584 409 2034 409 
Q 2484 409 2743 651 
Q 3003 894 3003 1313 
Q 3003 1734 2745 1975 
Q 2488 2216 2034 2216 
z
M 1403 2484 
Q 997 2584 770 2862 
Q 544 3141 544 3541 
Q 544 4100 942 4425 
Q 1341 4750 2034 4750 
Q 2731 4750 3128 4425 
Q 3525 4100 3525 3541 
Q 3525 3141 3298 2862 
Q 3072 2584 2669 2484 
Q 3125 2378 3379 2068 
Q 3634 1759 3634 1313 
Q 3634 634 3220 271 
Q 2806 -91 2034 -91 
Q 1263 -91 848 271 
Q 434 634 434 1313 
Q 434 1759 690 2068 
Q 947 2378 1403 2484 
z
M 1172 3481 
Q 1172 3119 1398 2916 
Q 1625 2713 2034 2713 
Q 2441 2713 2670 2916 
Q 2900 3119 2900 3481 
Q 2900 3844 2670 4047 
Q 2441 4250 2034 4250 
Q 1625 4250 1398 4047 
Q 1172 3844 1172 3481 
z
" transform="scale(0.015625)"/>
       </defs>
       <use xlink:href="#DejaVuSans-30"/>
       <use xlink:href="#DejaVuSans-2e" transform="translate(63.623047 0)"/>
       <use xlink:href="#DejaVuSans-38" transform="translate(95.410156 0)"/>
       <use xlink:href="#DejaVuSans-30" transform="translate(159.033203 0)"/>
      </g>
     </g>
    </g>
    <g id="xtick_9">
     <g id="line2d_9">
      <g>
       <use xlink:href="#mf7830cc535" x="561.866948" y="398.64351" style="stroke: #000000; stroke-width: 0.8"/>
      </g>
     </g>
     <g id="text_9">
      <!-- 1.00 -->
      <g transform="translate(550.734135 413.241947) scale(0.1 -0.1)">
       <defs>
        <path id="DejaVuSans-31" d="M 794 531 
L 1825 531 
L 1825 4091 
L 703 3866 
L 703 4441 
L 1819 4666 
L 2450 4666 
L 2450 531 
L 3481 531 
L 3481 0 
L 794 0 
L 794 531 
z
" transform="scale(0.015625)"/>
       </defs>
       <use xlink:href="#DejaVuSans-31"/>
       <use xlink:href="#DejaVuSans-2e" transform="translate(63.623047 0)"/>
       <use xlink:href="#DejaVuSans-30" transform="translate(95.410156 0)"/>
       <use xlink:href="#DejaVuSans-30" transform="translate(159.033203 0)"/>
      </g>
     </g>
    </g>
    <g id="text_10">
     <!-- Time (s) -->
     <g transform="translate(287.766406 426.920073) scale(0.1 -0.1)">
      <defs>
       <path id="DejaVuSans-54" d="M -19 4666 
L 3928 4666 
L 3928 4134 
L 2272 4134 
L 2272 0 
L 1638 0 
L 1638 4134 
L -19 4134 
L -19 4666 
z
" transform="scale(0.015625)"/>
       <path id="DejaVuSans-69" d="M 603 3500 
L 1178 3500 
L 1178 0 
L 603 0 
L 603 3500 
z
M 603 4863 
L 1178 4863 
L 1178 4134 
L 603 4134 
L 603 4863 
z
" transform="scale(0.015625)"/>
       <path id="DejaVuSans-6d" d="M 3328 2828 
Q 3544 3216 3844 3400 
Q 4144 3584 4550 3584 
Q 5097 3584 5394 3201 
Q 5691 2819 5691 2113 
L 5691 0 
L 5113 0 
L 5113 2094 
Q 5113 2597 4934 2840 
Q 4756 3084 4391 3084 
Q 3944 3084 3684 2787 
Q 3425 2491 3425 1978 
L 3425 0 
L 2847 0 
L 2847 2094 
Q 2847 2600 2669 2842 
Q 2491 3084 2119 3084 
Q 1678 3084 1418 2786 
Q 1159 2488 1159 1978 
L 1159 0 
L 581 0 
L 581 3500 
L 1159 3500 
L 1159 2956 
Q 1356 3278 1631 3431 
Q 1906 3584 2284 3584 
Q 2666 3584 2933 3390 
Q 3200 3197 3328 2828 
z
" transform="scale(0.015625)"/>
       <path id="DejaVuSans-65" d="M 3597 1894 
L 3597 1613 
L 953 1613 
Q 991 1019 1311 708 
Q 1631 397 2203 397 
Q 2534 397 2845 478 
Q 3156 559 3463 722 
L 3463 178 
Q 3153 47 2828 -22 
Q 2503 -91 2169 -91 
Q 1331 -91 842 396 
Q 353 884 353 1716 
Q 353 2575 817 3079 
Q 1281 3584 2069 3584 
Q 2775 3584 3186 3129 
Q 3597 2675 3597 1894 
z
M 3022 2063 
Q 3016 2534 2758 2815 
Q 2500 3097 2075 3097 
Q 1594 3097 1305 2825 
Q 1016 2553 972 2059 
L 3022 2063 
z
" transform="scale(0.015625)"/>
       <path id="DejaVuSans-20" transform="scale(0.015625)"/>
       <path id="DejaVuSans-28" d="M 1984 4856 
Q 1566 4138 1362 3434 
Q 1159 2731 1159 2009 
Q 1159 1288 1364 580 
Q 1569 -128 1984 -844 
L 1484 -844 
Q 1016 -109 783 600 
Q 550 1309 550 2009 
Q 550 2706 781 3412 
Q 1013 4119 1484 4856 
L 1984 4856 
z
" transform="scale(0.015625)"/>
       <path id="DejaVuSans-73" d="M 2834 3397 
L 2834 2853 
Q 2591 2978 2328 3040 
Q 2066 3103 1784 3103 
Q 1356 3103 1142 2972 
Q 928 2841 928 2578 
Q 928 2378 1081 2264 
Q 1234 2150 1697 2047 
L 1894 2003 
Q 2506 1872 2764 1633 
Q 3022 1394 3022 966 
Q 3022 478 2636 193 
Q 2250 -91 1575 -91 
Q 1294 -91 989 -36 
Q 684 19 347 128 
L 347 722 
Q 666 556 975 473 
Q 1284 391 1588 391 
Q 1994 391 2212 530 
Q 2431 669 2431 922 
Q 2431 1156 2273 1281 
Q 2116 1406 1581 1522 
L 1381 1569 
Q 847 1681 609 1914 
Q 372 2147 372 2553 
Q 372 3047 722 3315 
Q 1072 3584 1716 3584 
Q 2034 3584 2315 3537 
Q 2597 3491 2834 3397 
z
" transform="scale(0.015625)"/>
       <path id="DejaVuSans-29" d="M 513 4856 
L 1013 4856 
Q 1481 4119 1714 3412 
Q 1947 2706 1947 2009 
Q 1947 1309 1714 600 
Q 1481 -109 1013 -844 
L 513 -844 
Q 928 -128 1133 580 
Q 1338 1288 1338 2009 
Q 1338 2731 1133 3434 
Q 928 4138 513 4856 
z
" transform="scale(0.015625)"/>
      </defs>
      <use xlink:href="#DejaVuSans-54"/>
      <use xlink:href="#DejaVuSans-69" transform="translate(57.958984 0)"/>
      <use xlink:href="#DejaVuSans-6d" transform="translate(85.742188 0)"/>
      <use xlink:href="#DejaVuSans-65" transform="translate(183.154297 0)"/>
      <use xlink:href="#DejaVuSans-20" transform="translate(244.677734 0)"/>
      <use xlink:href="#DejaVuSans-28" transform="translate(276.464844 0)"/>
      <use xlink:href="#DejaVuSans-73" transform="translate(315.478516 0)"/>
      <use xlink:href="#DejaVuSans-29" transform="translate(367.578125 0)"/>
     </g>
    </g>
   </g>
   <g id="matplotlib.axis_2">
    <g id="ytick_1">
     <g id="line2d_10">
      <defs>
       <path id="m3941a141bb" d="M 0 0 
L -3.5 0 
" style="stroke: #000000; stroke-width: 0.8"/>
      </defs>
      <g>
       <use xlink:href="#m3941a141bb" x="54.323678" y="388.46302" style="stroke: #000000; stroke-width: 0.8"/>
      </g>
     </g>
     <g id="text_11">
      <!-- −10.0 -->
      <g transform="translate(16.678365 392.262239) scale(0.1 -0.1)">
       <use xlink:href="#DejaVuSans-2212"/>
       <use xlink:href="#DejaVuSans-31" transform="translate(83.789062 0)"/>
       <use xlink:href="#DejaVuSans-30" transform="translate(147.412109 0)"/>
       <use xlink:href="#DejaVuSans-2e" transform="translate(211.035156 0)"/>
       <use xlink:href="#DejaVuSans-30" transform="translate(242.822266 0)"/>
      </g>
     </g>
    </g>
    <g id="ytick_2">
     <g id="line2d_11">
      <g>
       <use xlink:href="#m3941a141bb" x="54.323678" y="343.442499" style="stroke: #000000; stroke-width: 0.8"/>
      </g>
     </g>
     <g id="text_12">
      <!-- −7.5 -->
      <g transform="translate(23.040865 347.241718) scale(0.1 -0.1)">
       <defs>
        <path id="DejaVuSans-37" d="M 525 4666 
L 3525 4666 
L 3525 4397 
L 1831 0 
L 1172 0 
L 2766 4134 
L 525 4134 
L 525 4666 
z
" transform="scale(0.015625)"/>
       </defs>
       <use xlink:href="#DejaVuSans-2212"/>
       <use xlink:href="#DejaVuSans-37" transform="translate(83.789062 0)"/>
       <use xlink:href="#DejaVuSans-2e" transform="translate(147.412109 0)"/>
       <use xlink:href="#DejaVuSans-35" transform="translate(179.199219 0)"/>
      </g>
     </g>
    </g>
    <g id="ytick_3">
     <g id="line2d_12">
      <g>
       <use xlink:href="#m3941a141bb" x="54.323678" y="298.421979" style="stroke: #000000; stroke-width: 0.8"/>
      </g>
     </g>
     <g id="text_13">
      <!-- −5.0 -->
      <g transform="translate(23.040865 302.221198) scale(0.1 -0.1)">
       <use xlink:href="#DejaVuSans-2212"/>
       <use xlink:href="#DejaVuSans-35" transform="translate(83.789062 0)"/>
       <use xlink:href="#DejaVuSans-2e" transform="translate(147.412109 0)"/>
       <use xlink:href="#DejaVuSans-30" transform="translate(179.199219 0)"/>
      </g>
     </g>
    </g>
    <g id="ytick_4">
     <g id="line2d_13">
      <g>
       <use xlink:href="#m3941a141bb" x="54.323678" y="253.401458" style="stroke: #000000; stroke-width: 0.8"/>
      </g>
     </g>
     <g id="text_14">
      <!-- −2.5 -->
      <g transform="translate(23.040865 257.200677) scale(0.1 -0.1)">
       <use xlink:href="#DejaVuSans-2212"/>
       <use xlink:href="#DejaVuSans-32" transform="translate(83.789062 0)"/>
       <use xlink:href="#DejaVuSans-2e" transform="translate(147.412109 0)"/>
       <use xlink:href="#DejaVuSans-35" transform="translate(179.199219 0)"/>
      </g>
     </g>
    </g>
    <g id="ytick_5">
     <g id="line2d_14">
      <g>
       <use xlink:href="#m3941a141bb" x="54.323678" y="208.380937" style="stroke: #000000; stroke-width: 0.8"/>
      </g>
     </g>
     <g id="text_15">
      <!-- 0.0 -->
      <g transform="translate(31.420552 212.180156) scale(0.1 -0.1)">
       <use xlink:href="#DejaVuSans-30"/>
       <use xlink:href="#DejaVuSans-2e" transform="translate(63.623047 0)"/>
       <use xlink:href="#DejaVuSans-30" transform="translate(95.410156 0)"/>
      </g>
     </g>
    </g>
    <g id="ytick_6">
     <g id="line2d_15">
      <g>
       <use xlink:href="#m3941a141bb" x="54.323678" y="163.360417" style="stroke: #000000; stroke-width: 0.8"/>
      </g>
     </g>
     <g id="text_16">
      <!-- 2.5 -->
      <g transform="translate(31.420552 167.159636) scale(0.1 -0.1)">
       <use xlink:href="#DejaVuSans-32"/>
       <use xlink:href="#DejaVuSans-2e" transform="translate(63.623047 0)"/>
       <use xlink:href="#DejaVuSans-35" transform="translate(95.410156 0)"/>
      </g>
     </g>
    </g>
    <g id="ytick_7">
     <g id="line2d_16">
      <g>
       <use xlink:href="#m3941a141bb" x="54.323678" y="118.339896" style="stroke: #000000; stroke-width: 0.8"/>
      </g>
     </g>
     <g id="text_17">
      <!-- 5.0 -->
      <g transform="translate(31.420552 122.139115) scale(0.1 -0.1)">
       <use xlink:href="#DejaVuSans-35"/>
       <use xlink:href="#DejaVuSans-2e" transform="translate(63.623047 0)"/>
       <use xlink:href="#DejaVuSans-30" transform="translate(95.410156 0)"/>
      </g>
     </g>
    </g>
    <g id="ytick_8">
     <g id="line2d_17">
      <g>
       <use xlink:href="#m3941a141bb" x="54.323678" y="73.319376" style="stroke: #000000; stroke-width: 0.8"/>
      </g>
     </g>
     <g id="text_18">
      <!-- 7.5 -->
      <g transform="translate(31.420552 77.118594) scale(0.1 -0.1)">
       <use xlink:href="#DejaVuSans-37"/>
       <use xlink:href="#DejaVuSans-2e" transform="translate(63.623047 0)"/>
       <use xlink:href="#DejaVuSans-35" transform="translate(95.410156 0)"/>
      </g>
     </g>
    </g>
    <g id="ytick_9">
     <g id="line2d_18">
      <g>
       <use xlink:href="#m3941a141bb" x="54.323678" y="28.298855" style="stroke: #000000; stroke-width: 0.8"/>
      </g>
     </g>
     <g id="text_19">
      <!-- 10.0 -->
      <g transform="translate(25.058053 32.098074) scale(0.1 -0.1)">
       <use xlink:href="#DejaVuSans-31"/>
       <use xlink:href="#DejaVuSans-30" transform="translate(63.623047 0)"/>
       <use xlink:href="#DejaVuSans-2e" transform="translate(127.246094 0)"/>
       <use xlink:href="#DejaVuSans-30" transform="translate(159.033203 0)"/>
      </g>
     </g>
    </g>
    <g id="text_20">
     <!-- µV -->
     <g transform="translate(10.598677 214.9825) rotate(-90) scale(0.1 -0.1)">
      <defs>
       <path id="DejaVuSans-b5" d="M 544 -1331 
L 544 3500 
L 1119 3500 
L 1119 1325 
Q 1119 872 1334 640 
Q 1550 409 1972 409 
Q 2434 409 2667 671 
Q 2900 934 2900 1459 
L 2900 3500 
L 3475 3500 
L 3475 806 
Q 3475 619 3529 530 
Q 3584 441 3700 441 
Q 3728 441 3778 458 
Q 3828 475 3916 513 
L 3916 50 
Q 3788 -22 3673 -56 
Q 3559 -91 3450 -91 
Q 3234 -91 3106 31 
Q 2978 153 2931 403 
Q 2775 156 2548 32 
Q 2322 -91 2016 -91 
Q 1697 -91 1473 31 
Q 1250 153 1119 397 
L 1119 -1331 
L 544 -1331 
z
" transform="scale(0.015625)"/>
       <path id="DejaVuSans-56" d="M 1831 0 
L 50 4666 
L 709 4666 
L 2188 738 
L 3669 4666 
L 4325 4666 
L 2547 0 
L 1831 0 
z
" transform="scale(0.015625)"/>
      </defs>
      <use xlink:href="#DejaVuSans-b5"/>
      <use xlink:href="#DejaVuSans-56" transform="translate(63.623047 0)"/>
     </g>
    </g>
   </g>
   <g id="patch_4">
    <path d="M 54.587885 398.64351 
L 561.866948 398.64351 
" style="fill: none; stroke: #000000; stroke-width: 0.8; stroke-linejoin: miter; stroke-linecap: square"/>
   </g>
   <g id="patch_5">
    <path d="M 54.323677 208.380937 
L 561.866948 208.380937 
" style="fill: none; stroke: #000000; stroke-width: 0.8; stroke-linejoin: miter; stroke-linecap: square"/>
   </g>
   <g id="text_21">
    <!-- CPz, CP4, CP3, Pz, P4, P3 (median) -->
    <g transform="translate(204.102187 12.118365) scale(0.12 -0.12)">
     <defs>
      <path id="DejaVuSans-43" d="M 4122 4306 
L 4122 3641 
Q 3803 3938 3442 4084 
Q 3081 4231 2675 4231 
Q 1875 4231 1450 3742 
Q 1025 3253 1025 2328 
Q 1025 1406 1450 917 
Q 1875 428 2675 428 
Q 3081 428 3442 575 
Q 3803 722 4122 1019 
L 4122 359 
Q 3791 134 3420 21 
Q 3050 -91 2638 -91 
Q 1578 -91 968 557 
Q 359 1206 359 2328 
Q 359 3453 968 4101 
Q 1578 4750 2638 4750 
Q 3056 4750 3426 4639 
Q 3797 4528 4122 4306 
z
" transform="scale(0.015625)"/>
      <path id="DejaVuSans-50" d="M 1259 4147 
L 1259 2394 
L 2053 2394 
Q 2494 2394 2734 2622 
Q 2975 2850 2975 3272 
Q 2975 3691 2734 3919 
Q 2494 4147 2053 4147 
L 1259 4147 
z
M 628 4666 
L 2053 4666 
Q 2838 4666 3239 4311 
Q 3641 3956 3641 3272 
Q 3641 2581 3239 2228 
Q 2838 1875 2053 1875 
L 1259 1875 
L 1259 0 
L 628 0 
L 628 4666 
z
" transform="scale(0.015625)"/>
      <path id="DejaVuSans-7a" d="M 353 3500 
L 3084 3500 
L 3084 2975 
L 922 459 
L 3084 459 
L 3084 0 
L 275 0 
L 275 525 
L 2438 3041 
L 353 3041 
L 353 3500 
z
" transform="scale(0.015625)"/>
      <path id="DejaVuSans-2c" d="M 750 794 
L 1409 794 
L 1409 256 
L 897 -744 
L 494 -744 
L 750 256 
L 750 794 
z
" transform="scale(0.015625)"/>
      <path id="DejaVuSans-64" d="M 2906 2969 
L 2906 4863 
L 3481 4863 
L 3481 0 
L 2906 0 
L 2906 525 
Q 2725 213 2448 61 
Q 2172 -91 1784 -91 
Q 1150 -91 751 415 
Q 353 922 353 1747 
Q 353 2572 751 3078 
Q 1150 3584 1784 3584 
Q 2172 3584 2448 3432 
Q 2725 3281 2906 2969 
z
M 947 1747 
Q 947 1113 1208 752 
Q 1469 391 1925 391 
Q 2381 391 2643 752 
Q 2906 1113 2906 1747 
Q 2906 2381 2643 2742 
Q 2381 3103 1925 3103 
Q 1469 3103 1208 2742 
Q 947 2381 947 1747 
z
" transform="scale(0.015625)"/>
      <path id="DejaVuSans-61" d="M 2194 1759 
Q 1497 1759 1228 1600 
Q 959 1441 959 1056 
Q 959 750 1161 570 
Q 1363 391 1709 391 
Q 2188 391 2477 730 
Q 2766 1069 2766 1631 
L 2766 1759 
L 2194 1759 
z
M 3341 1997 
L 3341 0 
L 2766 0 
L 2766 531 
Q 2569 213 2275 61 
Q 1981 -91 1556 -91 
Q 1019 -91 701 211 
Q 384 513 384 1019 
Q 384 1609 779 1909 
Q 1175 2209 1959 2209 
L 2766 2209 
L 2766 2266 
Q 2766 2663 2505 2880 
Q 2244 3097 1772 3097 
Q 1472 3097 1187 3025 
Q 903 2953 641 2809 
L 641 3341 
Q 956 3463 1253 3523 
Q 1550 3584 1831 3584 
Q 2591 3584 2966 3190 
Q 3341 2797 3341 1997 
z
" transform="scale(0.015625)"/>
      <path id="DejaVuSans-6e" d="M 3513 2113 
L 3513 0 
L 2938 0 
L 2938 2094 
Q 2938 2591 2744 2837 
Q 2550 3084 2163 3084 
Q 1697 3084 1428 2787 
Q 1159 2491 1159 1978 
L 1159 0 
L 581 0 
L 581 3500 
L 1159 3500 
L 1159 2956 
Q 1366 3272 1645 3428 
Q 1925 3584 2291 3584 
Q 2894 3584 3203 3211 
Q 3513 2838 3513 2113 
z
" transform="scale(0.015625)"/>
     </defs>
     <use xlink:href="#DejaVuSans-43"/>
     <use xlink:href="#DejaVuSans-50" transform="translate(69.824219 0)"/>
     <use xlink:href="#DejaVuSans-7a" transform="translate(130.126953 0)"/>
     <use xlink:href="#DejaVuSans-2c" transform="translate(182.617188 0)"/>
     <use xlink:href="#DejaVuSans-20" transform="translate(214.404297 0)"/>
     <use xlink:href="#DejaVuSans-43" transform="translate(246.191406 0)"/>
     <use xlink:href="#DejaVuSans-50" transform="translate(316.015625 0)"/>
     <use xlink:href="#DejaVuSans-34" transform="translate(376.318359 0)"/>
     <use xlink:href="#DejaVuSans-2c" transform="translate(439.941406 0)"/>
     <use xlink:href="#DejaVuSans-20" transform="translate(471.728516 0)"/>
     <use xlink:href="#DejaVuSans-43" transform="translate(503.515625 0)"/>
     <use xlink:href="#DejaVuSans-50" transform="translate(573.339844 0)"/>
     <use xlink:href="#DejaVuSans-33" transform="translate(633.642578 0)"/>
     <use xlink:href="#DejaVuSans-2c" transform="translate(697.265625 0)"/>
     <use xlink:href="#DejaVuSans-20" transform="translate(729.052734 0)"/>
     <use xlink:href="#DejaVuSans-50" transform="translate(760.839844 0)"/>
     <use xlink:href="#DejaVuSans-7a" transform="translate(821.142578 0)"/>
     <use xlink:href="#DejaVuSans-2c" transform="translate(873.632812 0)"/>
     <use xlink:href="#DejaVuSans-20" transform="translate(905.419922 0)"/>
     <use xlink:href="#DejaVuSans-50" transform="translate(937.207031 0)"/>
     <use xlink:href="#DejaVuSans-34" transform="translate(997.509766 0)"/>
     <use xlink:href="#DejaVuSans-2c" transform="translate(1061.132812 0)"/>
     <use xlink:href="#DejaVuSans-20" transform="translate(1092.919922 0)"/>
     <use xlink:href="#DejaVuSans-50" transform="translate(1124.707031 0)"/>
     <use xlink:href="#DejaVuSans-33" transform="translate(1185.009766 0)"/>
     <use xlink:href="#DejaVuSans-20" transform="translate(1248.632812 0)"/>
     <use xlink:href="#DejaVuSans-28" transform="translate(1280.419922 0)"/>
     <use xlink:href="#DejaVuSans-6d" transform="translate(1319.433594 0)"/>
     <use xlink:href="#DejaVuSans-65" transform="translate(1416.845703 0)"/>
     <use xlink:href="#DejaVuSans-64" transform="translate(1478.369141 0)"/>
     <use xlink:href="#DejaVuSans-69" transform="translate(1541.845703 0)"/>
     <use xlink:href="#DejaVuSans-61" transform="translate(1569.628906 0)"/>
     <use xlink:href="#DejaVuSans-6e" transform="translate(1630.908203 0)"/>
     <use xlink:href="#DejaVuSans-29" transform="translate(1694.287109 0)"/>
    </g>
   </g>
   <g id="legend_1">
    <g id="patch_6">
     <path d="M 61.323678 55.75274 
L 142.465865 55.75274 
Q 144.465865 55.75274 144.465865 53.75274 
L 144.465865 25.118365 
Q 144.465865 23.118365 142.465865 23.118365 
L 61.323678 23.118365 
Q 59.323678 23.118365 59.323678 25.118365 
L 59.323678 53.75274 
Q 59.323678 55.75274 61.323678 55.75274 
z
" style="fill: #ffffff; opacity: 0.8; stroke: #cccccc; stroke-linejoin: miter"/>
    </g>
    <g id="line2d_19">
     <path d="M 63.323678 31.216803 
L 73.323678 31.216803 
L 83.323678 31.216803 
" style="fill: none; stroke: #1f77b4; stroke-width: 1.5; stroke-linecap: square"/>
    </g>
    <g id="text_22">
     <!-- eerie -->
     <g transform="translate(91.323678 34.716803) scale(0.1 -0.1)">
      <defs>
       <path id="DejaVuSans-72" d="M 2631 2963 
Q 2534 3019 2420 3045 
Q 2306 3072 2169 3072 
Q 1681 3072 1420 2755 
Q 1159 2438 1159 1844 
L 1159 0 
L 581 0 
L 581 3500 
L 1159 3500 
L 1159 2956 
Q 1341 3275 1631 3429 
Q 1922 3584 2338 3584 
Q 2397 3584 2469 3576 
Q 2541 3569 2628 3553 
L 2631 2963 
z
" transform="scale(0.015625)"/>
      </defs>
      <use xlink:href="#DejaVuSans-65"/>
      <use xlink:href="#DejaVuSans-65" transform="translate(61.523438 0)"/>
      <use xlink:href="#DejaVuSans-72" transform="translate(123.046875 0)"/>
      <use xlink:href="#DejaVuSans-69" transform="translate(164.160156 0)"/>
      <use xlink:href="#DejaVuSans-65" transform="translate(191.943359 0)"/>
     </g>
    </g>
    <g id="line2d_20">
     <path d="M 63.323678 45.894928 
L 73.323678 45.894928 
L 83.323678 45.894928 
" style="fill: none; stroke: #ff7f0e; stroke-width: 1.5; stroke-linecap: square"/>
    </g>
    <g id="text_23">
     <!-- non_eerie -->
     <g transform="translate(91.323678 49.394928) scale(0.1 -0.1)">
      <defs>
       <path id="DejaVuSans-6f" d="M 1959 3097 
Q 1497 3097 1228 2736 
Q 959 2375 959 1747 
Q 959 1119 1226 758 
Q 1494 397 1959 397 
Q 2419 397 2687 759 
Q 2956 1122 2956 1747 
Q 2956 2369 2687 2733 
Q 2419 3097 1959 3097 
z
M 1959 3584 
Q 2709 3584 3137 3096 
Q 3566 2609 3566 1747 
Q 3566 888 3137 398 
Q 2709 -91 1959 -91 
Q 1206 -91 779 398 
Q 353 888 353 1747 
Q 353 2609 779 3096 
Q 1206 3584 1959 3584 
z
" transform="scale(0.015625)"/>
       <path id="DejaVuSans-5f" d="M 3263 -1063 
L 3263 -1509 
L -63 -1509 
L -63 -1063 
L 3263 -1063 
z
" transform="scale(0.015625)"/>
      </defs>
      <use xlink:href="#DejaVuSans-6e"/>
      <use xlink:href="#DejaVuSans-6f" transform="translate(63.378906 0)"/>
      <use xlink:href="#DejaVuSans-6e" transform="translate(124.560547 0)"/>
      <use xlink:href="#DejaVuSans-5f" transform="translate(187.939453 0)"/>
      <use xlink:href="#DejaVuSans-65" transform="translate(237.939453 0)"/>
      <use xlink:href="#DejaVuSans-65" transform="translate(299.462891 0)"/>
      <use xlink:href="#DejaVuSans-72" transform="translate(360.986328 0)"/>
      <use xlink:href="#DejaVuSans-69" transform="translate(402.099609 0)"/>
      <use xlink:href="#DejaVuSans-65" transform="translate(429.882812 0)"/>
     </g>
    </g>
   </g>
   <g id="FillBetweenPolyCollection_1">
    <defs>
     <path id="m04389648e4" d="M 54.323677 -276.302324 
L 54.323677 -247.743721 
L 55.974977 -252.076065 
L 57.626276 -251.043733 
L 59.277575 -247.845344 
L 60.928874 -244.3492 
L 62.580173 -243.446871 
L 64.231472 -244.177106 
L 65.882771 -244.410506 
L 67.53407 -241.974715 
L 69.185369 -235.395328 
L 70.836668 -226.939365 
L 72.487967 -220.068142 
L 74.139266 -216.139126 
L 75.790565 -215.493278 
L 77.441864 -215.305847 
L 79.093163 -215.642342 
L 80.744462 -217.10628 
L 82.395761 -219.828848 
L 84.04706 -225.002963 
L 85.698359 -230.521388 
L 87.349658 -234.516579 
L 89.000957 -234.066064 
L 90.652256 -227.272228 
L 92.303555 -215.430676 
L 93.954854 -203.252971 
L 95.606153 -195.993932 
L 97.257452 -194.702854 
L 98.908751 -198.711705 
L 100.56005 -205.318287 
L 102.211349 -210.416367 
L 103.862648 -211.780835 
L 105.513947 -210.634642 
L 107.165246 -207.503364 
L 108.816546 -203.119328 
L 110.467845 -198.699423 
L 112.119144 -195.761565 
L 113.770443 -194.55913 
L 115.421742 -195.723991 
L 117.073041 -198.156069 
L 118.72434 -198.262211 
L 120.375639 -195.513919 
L 122.026938 -191.492072 
L 123.678237 -187.360588 
L 125.329536 -184.065419 
L 126.980835 -181.475687 
L 128.632134 -181.286771 
L 130.283433 -183.675375 
L 131.934732 -187.001601 
L 133.586031 -191.248126 
L 135.23733 -193.224652 
L 136.888629 -192.890727 
L 138.539928 -188.015472 
L 140.191227 -181.489286 
L 141.842526 -173.271977 
L 143.493825 -164.490453 
L 145.145124 -158.272312 
L 146.796423 -155.996515 
L 148.447722 -154.907212 
L 150.099021 -152.494505 
L 151.75032 -145.517917 
L 153.401619 -135.722034 
L 155.052918 -127.039469 
L 156.704217 -122.938908 
L 158.355516 -126.897866 
L 160.006815 -137.013777 
L 161.658114 -149.002586 
L 163.309414 -159.607686 
L 164.960713 -166.941928 
L 166.612012 -173.019705 
L 168.263311 -178.814189 
L 169.91461 -183.968921 
L 171.565909 -185.96932 
L 173.217208 -182.895831 
L 174.868507 -173.173431 
L 176.519806 -159.376475 
L 178.171105 -146.890766 
L 179.822404 -137.835901 
L 181.473703 -133.963052 
L 183.125002 -131.7589 
L 184.776301 -130.410905 
L 186.4276 -129.652961 
L 188.078899 -131.944493 
L 189.730198 -139.437922 
L 191.381497 -152.398722 
L 193.032796 -167.881139 
L 194.684095 -180.676403 
L 196.335394 -187.058455 
L 197.986693 -188.799057 
L 199.637992 -189.532332 
L 201.289291 -193.022693 
L 202.94059 -197.737697 
L 204.591889 -199.710809 
L 206.243188 -195.313324 
L 207.894487 -184.857453 
L 209.545786 -170.095235 
L 211.197085 -158.226555 
L 212.848384 -152.319384 
L 214.499683 -154.62877 
L 216.150982 -164.278868 
L 217.802282 -174.410516 
L 219.453581 -184.621333 
L 221.10488 -194.010413 
L 222.756179 -204.99732 
L 224.407478 -220.200659 
L 226.058777 -238.874143 
L 227.710076 -260.573193 
L 229.361375 -278.535232 
L 231.012674 -294.432366 
L 232.663973 -309.038214 
L 234.315272 -323.734134 
L 235.966571 -338.568541 
L 237.61787 -350.141857 
L 239.269169 -355.424153 
L 240.920468 -353.440049 
L 242.571767 -347.210813 
L 244.223066 -342.534 
L 245.874365 -341.323411 
L 247.525664 -345.123116 
L 249.176963 -351.195891 
L 250.828262 -356.334012 
L 252.479561 -356.246557 
L 254.13086 -348.233667 
L 255.782159 -335.175796 
L 257.433458 -320.666387 
L 259.084757 -309.457256 
L 260.736056 -302.985899 
L 262.387355 -299.926554 
L 264.038654 -298.083101 
L 265.689953 -293.331338 
L 267.341252 -283.643274 
L 268.992551 -270.148805 
L 270.64385 -255.836427 
L 272.29515 -241.401612 
L 273.946449 -232.853364 
L 275.597748 -229.696577 
L 277.249047 -229.764288 
L 278.900346 -233.452194 
L 280.551645 -236.476542 
L 282.202944 -238.841526 
L 283.854243 -238.506155 
L 285.505542 -238.16776 
L 287.156841 -240.55229 
L 288.80814 -244.751305 
L 290.459439 -250.653824 
L 292.110738 -256.069538 
L 293.762037 -259.754208 
L 295.413336 -262.70921 
L 297.064635 -263.919145 
L 298.715934 -265.793681 
L 300.367233 -268.424328 
L 302.018532 -271.343911 
L 303.669831 -274.422947 
L 305.32113 -276.621275 
L 306.972429 -277.027125 
L 308.623728 -275.056853 
L 310.275027 -269.939359 
L 311.926326 -266.992975 
L 313.577625 -268.966863 
L 315.228924 -276.233871 
L 316.880223 -288.743691 
L 318.531522 -303.01185 
L 320.182821 -315.259474 
L 321.83412 -324.543837 
L 323.485419 -330.728352 
L 325.136718 -335.855156 
L 326.788018 -342.463002 
L 328.439317 -352.657357 
L 330.090616 -361.97685 
L 331.741915 -366.48282 
L 333.393214 -368.069468 
L 335.044513 -366.193368 
L 336.695812 -361.440632 
L 338.347111 -354.079204 
L 339.99841 -347.164831 
L 341.649709 -341.90663 
L 343.301008 -337.545612 
L 344.952307 -337.001908 
L 346.603606 -338.907067 
L 348.254905 -343.103255 
L 349.906204 -347.124904 
L 351.557503 -347.543077 
L 353.208802 -343.780638 
L 354.860101 -338.245807 
L 356.5114 -335.044872 
L 358.162699 -336.917227 
L 359.813998 -342.201772 
L 361.465297 -347.329674 
L 363.116596 -350.120442 
L 364.767895 -348.876982 
L 366.419194 -345.829013 
L 368.070493 -343.127365 
L 369.721792 -341.845806 
L 371.373091 -342.261948 
L 373.02439 -341.355237 
L 374.675689 -336.925335 
L 376.326988 -332.677154 
L 377.978287 -330.446701 
L 379.629586 -333.210747 
L 381.280886 -340.893573 
L 382.932185 -350.464184 
L 384.583484 -357.841425 
L 386.234783 -360.765822 
L 387.886082 -359.532209 
L 389.537381 -356.720354 
L 391.18868 -354.806313 
L 392.839979 -352.649835 
L 394.491278 -348.517691 
L 396.142577 -341.082218 
L 397.793876 -333.612729 
L 399.445175 -329.286087 
L 401.096474 -329.479937 
L 402.747773 -333.406451 
L 404.399072 -337.542019 
L 406.050371 -337.774374 
L 407.70167 -333.205619 
L 409.352969 -326.635057 
L 411.004268 -321.25394 
L 412.655567 -319.613106 
L 414.306866 -320.860135 
L 415.958165 -320.422434 
L 417.609464 -314.063754 
L 419.260763 -302.131816 
L 420.912062 -288.575241 
L 422.563361 -278.790269 
L 424.21466 -275.791631 
L 425.865959 -279.480142 
L 427.517258 -286.035 
L 429.168557 -289.897951 
L 430.819856 -290.083004 
L 432.471155 -286.77576 
L 434.122455 -282.129867 
L 435.773754 -276.922594 
L 437.425053 -270.984443 
L 439.076352 -264.492855 
L 440.727651 -259.418571 
L 442.37895 -256.092639 
L 444.030249 -255.820997 
L 445.681548 -259.137079 
L 447.332847 -263.527576 
L 448.984146 -265.559383 
L 450.635445 -263.002116 
L 452.286744 -254.731682 
L 453.938043 -243.996061 
L 455.589342 -235.363622 
L 457.240641 -229.130719 
L 458.89194 -227.359473 
L 460.543239 -229.338423 
L 462.194538 -233.969387 
L 463.845837 -240.570343 
L 465.497136 -248.525883 
L 467.148435 -256.660905 
L 468.799734 -264.41461 
L 470.451033 -272.349802 
L 472.102332 -278.026798 
L 473.753631 -281.428196 
L 475.40493 -282.625498 
L 477.056229 -281.743691 
L 478.707528 -279.065635 
L 480.358827 -272.783052 
L 482.010126 -262.586978 
L 483.661425 -251.021295 
L 485.312724 -240.262467 
L 486.964023 -235.080002 
L 488.615323 -234.849876 
L 490.266622 -235.633933 
L 491.917921 -234.076502 
L 493.56922 -226.965276 
L 495.220519 -216.005534 
L 496.871818 -203.495043 
L 498.523117 -194.953671 
L 500.174416 -193.128413 
L 501.825715 -197.34335 
L 503.477014 -204.105998 
L 505.128313 -208.153607 
L 506.779612 -207.468463 
L 508.430911 -205.199582 
L 510.08221 -202.093462 
L 511.733509 -201.608195 
L 513.384808 -202.834397 
L 515.036107 -206.280815 
L 516.687406 -210.273153 
L 518.338705 -213.018595 
L 519.990004 -213.54509 
L 521.641303 -212.558496 
L 523.292602 -209.867797 
L 524.943901 -204.21095 
L 526.5952 -193.975619 
L 528.246499 -180.375085 
L 529.897798 -165.164023 
L 531.549097 -153.129579 
L 533.200396 -146.921453 
L 534.851695 -147.293388 
L 536.502994 -150.789489 
L 538.154293 -152.565857 
L 539.805592 -149.830158 
L 541.456891 -144.898454 
L 543.108191 -140.467727 
L 544.75949 -139.742123 
L 546.410789 -142.654106 
L 548.062088 -148.010443 
L 549.713387 -153.607493 
L 551.364686 -156.854317 
L 553.015985 -154.837924 
L 554.667284 -148.858792 
L 556.318583 -140.692098 
L 557.969882 -130.928737 
L 559.621181 -121.413134 
L 561.27248 -114.435277 
L 561.27248 -151.954539 
L 561.27248 -151.954539 
L 559.621181 -154.157723 
L 557.969882 -159.61641 
L 556.318583 -167.758334 
L 554.667284 -176.275164 
L 553.015985 -183.794406 
L 551.364686 -187.604471 
L 549.713387 -185.412212 
L 548.062088 -179.10209 
L 546.410789 -173.381313 
L 544.75949 -170.275416 
L 543.108191 -171.949341 
L 541.456891 -177.788022 
L 539.805592 -184.010624 
L 538.154293 -186.079694 
L 536.502994 -184.47175 
L 534.851695 -181.561345 
L 533.200396 -181.87161 
L 531.549097 -188.566924 
L 529.897798 -200.240975 
L 528.246499 -214.883551 
L 526.5952 -228.687559 
L 524.943901 -239.082723 
L 523.292602 -244.551359 
L 521.641303 -246.514345 
L 519.990004 -247.149331 
L 518.338705 -247.66999 
L 516.687406 -246.110762 
L 515.036107 -242.444697 
L 513.384808 -239.535311 
L 511.733509 -238.29842 
L 510.08221 -240.605887 
L 508.430911 -245.314738 
L 506.779612 -249.480662 
L 505.128313 -249.810909 
L 503.477014 -244.739736 
L 501.825715 -238.053601 
L 500.174416 -233.846167 
L 498.523117 -235.961125 
L 496.871818 -245.546151 
L 495.220519 -258.631472 
L 493.56922 -269.284981 
L 491.917921 -273.47857 
L 490.266622 -271.821996 
L 488.615323 -267.819521 
L 486.964023 -265.829385 
L 485.312724 -268.995615 
L 483.661425 -278.984296 
L 482.010126 -291.60343 
L 480.358827 -302.92248 
L 478.707528 -310.570598 
L 477.056229 -314.390288 
L 475.40493 -314.592394 
L 473.753631 -312.476977 
L 472.102332 -310.017068 
L 470.451033 -306.623399 
L 468.799734 -301.87069 
L 467.148435 -295.90909 
L 465.497136 -288.393673 
L 463.845837 -281.077357 
L 462.194538 -274.387496 
L 460.543239 -268.798926 
L 458.89194 -266.402892 
L 457.240641 -267.697912 
L 455.589342 -273.351768 
L 453.938043 -283.211531 
L 452.286744 -294.268638 
L 450.635445 -301.554396 
L 448.984146 -304.991939 
L 447.332847 -304.258051 
L 445.681548 -301.249908 
L 444.030249 -298.609442 
L 442.37895 -298.031817 
L 440.727651 -300.236283 
L 439.076352 -302.471072 
L 437.425053 -306.591106 
L 435.773754 -311.124308 
L 434.122455 -316.665718 
L 432.471155 -322.787945 
L 430.819856 -326.840163 
L 429.168557 -327.691236 
L 427.517258 -324.391278 
L 425.865959 -317.502895 
L 424.21466 -312.397828 
L 422.563361 -312.832435 
L 420.912062 -322.269066 
L 419.260763 -337.463292 
L 417.609464 -350.372959 
L 415.958165 -356.40711 
L 414.306866 -356.569831 
L 412.655567 -354.259409 
L 411.004268 -354.546857 
L 409.352969 -359.775675 
L 407.70167 -367.158565 
L 406.050371 -373.861153 
L 404.399072 -376.554941 
L 402.747773 -374.478778 
L 401.096474 -370.301586 
L 399.445175 -369.737635 
L 397.793876 -373.491551 
L 396.142577 -379.874328 
L 394.491278 -385.713046 
L 392.839979 -389.293033 
L 391.18868 -390.76628 
L 389.537381 -392.170774 
L 387.886082 -394.462895 
L 386.234783 -396.142831 
L 384.583484 -394.173762 
L 382.932185 -388.024691 
L 381.280886 -379.188225 
L 379.629586 -371.045517 
L 377.978287 -367.549177 
L 376.326988 -370.27365 
L 374.675689 -375.808446 
L 373.02439 -380.981592 
L 371.373091 -382.486742 
L 369.721792 -382.405483 
L 368.070493 -382.207175 
L 366.419194 -384.180348 
L 364.767895 -387.529732 
L 363.116596 -388.488977 
L 361.465297 -386.167379 
L 359.813998 -380.918943 
L 358.162699 -376.68211 
L 356.5114 -376.213755 
L 354.860101 -380.208607 
L 353.208802 -386.155602 
L 351.557503 -390.911806 
L 349.906204 -390.175631 
L 348.254905 -384.642421 
L 346.603606 -377.055895 
L 344.952307 -371.398546 
L 343.301008 -371.090524 
L 341.649709 -376.864552 
L 339.99841 -385.575287 
L 338.347111 -395.379804 
L 336.695812 -404.981001 
L 335.044513 -411.826646 
L 333.393214 -413.881635 
L 331.741915 -411.641493 
L 330.090616 -406.951168 
L 328.439317 -397.899743 
L 326.788018 -388.126271 
L 325.136718 -380.461354 
L 323.485419 -373.827925 
L 321.83412 -366.975762 
L 320.182821 -358.770083 
L 318.531522 -349.491323 
L 316.880223 -337.161733 
L 315.228924 -324.842094 
L 313.577625 -316.192178 
L 311.926326 -311.96832 
L 310.275027 -313.349203 
L 308.623728 -316.231485 
L 306.972429 -319.332874 
L 305.32113 -318.803966 
L 303.669831 -315.689237 
L 302.018532 -310.746464 
L 300.367233 -305.546685 
L 298.715934 -299.986037 
L 297.064635 -296.531951 
L 295.413336 -294.826176 
L 293.762037 -292.680036 
L 292.110738 -288.911023 
L 290.459439 -282.939998 
L 288.80814 -276.482526 
L 287.156841 -273.002335 
L 285.505542 -271.834415 
L 283.854243 -272.025215 
L 282.202944 -271.776736 
L 280.551645 -269.620155 
L 278.900346 -266.686697 
L 277.249047 -263.11297 
L 275.597748 -263.561894 
L 273.946449 -268.339995 
L 272.29515 -279.067807 
L 270.64385 -293.202635 
L 268.992551 -309.300306 
L 267.341252 -322.652918 
L 265.689953 -332.123108 
L 264.038654 -336.765712 
L 262.387355 -337.942669 
L 260.736056 -340.037405 
L 259.084757 -344.9193 
L 257.433458 -354.257358 
L 255.782159 -366.803568 
L 254.13086 -379.336484 
L 252.479561 -386.895188 
L 250.828262 -388.28876 
L 249.176963 -383.913521 
L 247.525664 -377.444656 
L 245.874365 -374.139142 
L 244.223066 -376.142386 
L 242.571767 -381.448793 
L 240.920468 -385.675289 
L 239.269169 -387.125458 
L 237.61787 -382.911432 
L 235.966571 -374.337766 
L 234.315272 -363.282654 
L 232.663973 -351.442732 
L 231.012674 -337.83829 
L 229.361375 -322.046533 
L 227.710076 -303.041563 
L 226.058777 -280.425075 
L 224.407478 -259.635649 
L 222.756179 -241.747681 
L 221.10488 -228.934247 
L 219.453581 -218.622404 
L 217.802282 -208.307422 
L 216.150982 -198.550539 
L 214.499683 -190.358221 
L 212.848384 -188.008342 
L 211.197085 -194.920323 
L 209.545786 -208.355305 
L 207.894487 -223.756451 
L 206.243188 -235.073743 
L 204.591889 -238.505508 
L 202.94059 -236.04486 
L 201.289291 -230.961085 
L 199.637992 -226.676994 
L 197.986693 -223.939186 
L 196.335394 -220.989293 
L 194.684095 -213.276029 
L 193.032796 -200.201684 
L 191.381497 -184.809983 
L 189.730198 -171.997167 
L 188.078899 -164.203739 
L 186.4276 -161.328422 
L 184.776301 -162.471224 
L 183.125002 -165.069902 
L 181.473703 -167.641937 
L 179.822404 -171.189768 
L 178.171105 -178.709228 
L 176.519806 -189.518359 
L 174.868507 -201.63393 
L 173.217208 -210.873166 
L 171.565909 -214.721811 
L 169.91461 -213.295601 
L 168.263311 -208.01998 
L 166.612012 -201.098399 
L 164.960713 -194.440664 
L 163.309414 -187.613471 
L 161.658114 -178.305804 
L 160.006815 -169.523177 
L 158.355516 -164.121897 
L 156.704217 -164.162763 
L 155.052918 -168.578089 
L 153.401619 -177.000662 
L 151.75032 -186.242025 
L 150.099021 -192.496741 
L 148.447722 -193.871416 
L 146.796423 -194.00076 
L 145.145124 -196.365765 
L 143.493825 -201.339026 
L 141.842526 -209.347496 
L 140.191227 -216.635069 
L 138.539928 -221.277015 
L 136.888629 -222.887298 
L 135.23733 -220.353529 
L 133.586031 -215.307559 
L 131.934732 -209.159324 
L 130.283433 -205.227353 
L 128.632134 -204.085785 
L 126.980835 -205.490006 
L 125.329536 -209.681185 
L 123.678237 -215.29534 
L 122.026938 -220.097572 
L 120.375639 -221.101811 
L 118.72434 -219.79106 
L 117.073041 -217.717257 
L 115.421742 -215.695049 
L 113.770443 -214.299512 
L 112.119144 -214.467477 
L 110.467845 -216.293949 
L 108.816546 -219.508848 
L 107.165246 -223.907916 
L 105.513947 -228.425772 
L 103.862648 -231.271781 
L 102.211349 -232.253654 
L 100.56005 -230.04581 
L 98.908751 -225.795593 
L 97.257452 -222.174695 
L 95.606153 -222.735066 
L 93.954854 -228.582532 
L 92.303555 -238.529607 
L 90.652256 -248.643382 
L 89.000957 -255.717448 
L 87.349658 -257.652287 
L 85.698359 -253.695888 
L 84.04706 -248.11665 
L 82.395761 -242.15819 
L 80.744462 -238.470586 
L 79.093163 -236.720418 
L 77.441864 -236.985482 
L 75.790565 -238.420151 
L 74.139266 -240.930435 
L 72.487967 -245.757488 
L 70.836668 -253.396998 
L 69.185369 -260.386936 
L 67.53407 -266.662726 
L 65.882771 -270.003279 
L 64.231472 -270.951543 
L 62.580173 -270.078269 
L 60.928874 -270.90546 
L 59.277575 -273.503258 
L 57.626276 -276.462381 
L 55.974977 -279.161639 
L 54.323677 -276.302324 
z
" style="stroke: #1f77b4; stroke-opacity: 0.3"/>
    </defs>
    <g>
     <use xlink:href="#m04389648e4" x="0" y="432" style="fill: #1f77b4; fill-opacity: 0.3; stroke: #1f77b4; stroke-opacity: 0.3"/>
    </g>
   </g>
   <g id="FillBetweenPolyCollection_2">
    <defs>
     <path id="m2a191d30ab" d="M 54.323677 -234.946243 
L 54.323677 -230.709019 
L 55.974977 -228.447702 
L 57.626276 -226.965009 
L 59.277575 -226.369487 
L 60.928874 -226.758897 
L 62.580173 -227.641239 
L 64.231472 -228.270224 
L 65.882771 -228.16329 
L 67.53407 -227.405684 
L 69.185369 -226.076872 
L 70.836668 -224.868709 
L 72.487967 -224.289362 
L 74.139266 -224.778479 
L 75.790565 -226.246668 
L 77.441864 -228.347538 
L 79.093163 -230.087071 
L 80.744462 -230.845895 
L 82.395761 -230.208541 
L 84.04706 -228.456472 
L 85.698359 -225.994639 
L 87.349658 -223.799892 
L 89.000957 -222.182127 
L 90.652256 -221.445753 
L 92.303555 -221.265038 
L 93.954854 -221.548326 
L 95.606153 -221.905846 
L 97.257452 -222.412808 
L 98.908751 -223.020992 
L 100.56005 -223.630954 
L 102.211349 -224.335443 
L 103.862648 -225.38042 
L 105.513947 -226.322657 
L 107.165246 -226.86723 
L 108.816546 -226.215545 
L 110.467845 -224.121034 
L 112.119144 -221.107029 
L 113.770443 -218.086634 
L 115.421742 -216.34991 
L 117.073041 -216.870662 
L 118.72434 -219.388106 
L 120.375639 -222.587091 
L 122.026938 -224.191522 
L 123.678237 -222.981149 
L 125.329536 -219.188046 
L 126.980835 -214.486045 
L 128.632134 -210.641257 
L 130.283433 -208.495887 
L 131.934732 -207.78918 
L 133.586031 -207.186568 
L 135.23733 -205.788933 
L 136.888629 -203.386707 
L 138.539928 -201.083284 
L 140.191227 -200.107929 
L 141.842526 -200.756916 
L 143.493825 -202.233307 
L 145.145124 -203.226862 
L 146.796423 -202.689303 
L 148.447722 -200.58307 
L 150.099021 -197.959128 
L 151.75032 -196.32384 
L 153.401619 -196.373458 
L 155.052918 -197.87451 
L 156.704217 -199.563142 
L 158.355516 -200.435456 
L 160.006815 -200.231126 
L 161.658114 -199.245784 
L 163.309414 -198.044046 
L 164.960713 -196.78055 
L 166.612012 -195.299328 
L 168.263311 -192.999332 
L 169.91461 -189.394725 
L 171.565909 -184.453566 
L 173.217208 -178.449049 
L 174.868507 -172.137425 
L 176.519806 -166.475808 
L 178.171105 -162.067023 
L 179.822404 -158.766632 
L 181.473703 -156.839732 
L 183.125002 -156.772187 
L 184.776301 -159.244959 
L 186.4276 -164.741755 
L 188.078899 -173.180367 
L 189.730198 -184.303329 
L 191.381497 -197.270364 
L 193.032796 -210.450837 
L 194.684095 -222.580551 
L 196.335394 -233.160227 
L 197.986693 -242.222023 
L 199.637992 -250.577824 
L 201.289291 -257.835247 
L 202.94059 -262.604956 
L 204.591889 -262.891905 
L 206.243188 -258.559748 
L 207.894487 -250.41784 
L 209.545786 -240.355405 
L 211.197085 -230.837379 
L 212.848384 -224.586659 
L 214.499683 -223.006212 
L 216.150982 -226.441085 
L 217.802282 -233.491958 
L 219.453581 -242.548881 
L 221.10488 -252.724877 
L 222.756179 -263.608842 
L 224.407478 -275.488985 
L 226.058777 -289.082852 
L 227.710076 -304.332135 
L 229.361375 -320.112362 
L 231.012674 -334.825756 
L 232.663973 -346.577436 
L 234.315272 -354.112975 
L 235.966571 -357.110945 
L 237.61787 -356.583182 
L 239.269169 -353.946983 
L 240.920468 -351.093225 
L 242.571767 -348.940578 
L 244.223066 -347.858746 
L 245.874365 -347.301701 
L 247.525664 -345.908704 
L 249.176963 -342.70829 
L 250.828262 -337.31035 
L 252.479561 -330.641467 
L 254.13086 -323.887161 
L 255.782159 -318.135082 
L 257.433458 -313.79277 
L 259.084757 -310.322442 
L 260.736056 -306.593579 
L 262.387355 -301.758194 
L 264.038654 -295.565288 
L 265.689953 -288.558537 
L 267.341252 -281.7238 
L 268.992551 -276.000762 
L 270.64385 -272.106536 
L 272.29515 -270.251388 
L 273.946449 -270.412037 
L 275.597748 -272.221114 
L 277.249047 -275.100495 
L 278.900346 -278.154104 
L 280.551645 -280.666045 
L 282.202944 -281.924103 
L 283.854243 -282.110869 
L 285.505542 -281.251651 
L 287.156841 -279.873942 
L 288.80814 -278.215031 
L 290.459439 -276.792761 
L 292.110738 -275.661393 
L 293.762037 -274.908468 
L 295.413336 -274.710469 
L 297.064635 -275.119121 
L 298.715934 -276.321277 
L 300.367233 -277.960546 
L 302.018532 -279.561207 
L 303.669831 -280.764113 
L 305.32113 -281.699483 
L 306.972429 -283.042824 
L 308.623728 -285.619596 
L 310.275027 -289.797653 
L 311.926326 -295.135352 
L 313.577625 -300.682649 
L 315.228924 -305.153702 
L 316.880223 -308.152419 
L 318.531522 -309.617733 
L 320.182821 -310.860018 
L 321.83412 -312.751737 
L 323.485419 -315.86802 
L 325.136718 -319.727809 
L 326.788018 -323.335859 
L 328.439317 -326.133812 
L 330.090616 -328.71214 
L 331.741915 -331.614199 
L 333.393214 -335.605719 
L 335.044513 -340.458032 
L 336.695812 -345.052699 
L 338.347111 -347.629088 
L 339.99841 -347.027715 
L 341.649709 -343.350913 
L 343.301008 -337.922587 
L 344.952307 -332.819396 
L 346.603606 -329.212653 
L 348.254905 -327.051406 
L 349.906204 -325.657607 
L 351.557503 -323.862905 
L 353.208802 -320.918206 
L 354.860101 -317.203895 
L 356.5114 -313.973531 
L 358.162699 -312.057581 
L 359.813998 -311.725481 
L 361.465297 -312.211552 
L 363.116596 -312.817656 
L 364.767895 -313.307799 
L 366.419194 -313.878102 
L 368.070493 -315.312576 
L 369.721792 -317.50951 
L 371.373091 -319.46897 
L 373.02439 -319.838163 
L 374.675689 -317.853011 
L 376.326988 -313.864237 
L 377.978287 -308.986339 
L 379.629586 -304.803546 
L 381.280886 -302.586996 
L 382.932185 -302.133568 
L 384.583484 -302.425649 
L 386.234783 -302.486522 
L 387.886082 -302.089941 
L 389.537381 -301.017949 
L 391.18868 -299.596061 
L 392.839979 -298.359619 
L 394.491278 -297.400162 
L 396.142577 -296.554985 
L 397.793876 -295.592441 
L 399.445175 -294.468336 
L 401.096474 -293.099889 
L 402.747773 -291.087733 
L 404.399072 -288.373825 
L 406.050371 -284.301174 
L 407.70167 -279.642391 
L 409.352969 -275.524295 
L 411.004268 -273.600879 
L 412.655567 -274.856805 
L 414.306866 -279.132791 
L 415.958165 -285.062333 
L 417.609464 -290.476792 
L 419.260763 -293.406397 
L 420.912062 -292.806962 
L 422.563361 -288.592462 
L 424.21466 -282.143316 
L 425.865959 -275.63534 
L 427.517258 -270.51363 
L 429.168557 -267.777375 
L 430.819856 -267.329957 
L 432.471155 -268.160736 
L 434.122455 -268.907405 
L 435.773754 -268.32957 
L 437.425053 -266.14559 
L 439.076352 -262.827553 
L 440.727651 -259.323774 
L 442.37895 -256.573873 
L 444.030249 -255.595284 
L 445.681548 -256.618502 
L 447.332847 -259.273445 
L 448.984146 -262.643484 
L 450.635445 -265.667359 
L 452.286744 -267.79748 
L 453.938043 -268.1921 
L 455.589342 -266.871774 
L 457.240641 -264.145605 
L 458.89194 -260.636766 
L 460.543239 -257.04563 
L 462.194538 -254.150417 
L 463.845837 -252.507084 
L 465.497136 -252.222238 
L 467.148435 -252.982147 
L 468.799734 -254.257043 
L 470.451033 -255.073373 
L 472.102332 -254.877695 
L 473.753631 -253.151805 
L 475.40493 -250.466883 
L 477.056229 -247.799642 
L 478.707528 -246.461811 
L 480.358827 -247.061298 
L 482.010126 -249.078814 
L 483.661425 -251.044584 
L 485.312724 -251.205341 
L 486.964023 -249.05496 
L 488.615323 -245.126657 
L 490.266622 -241.120127 
L 491.917921 -238.460578 
L 493.56922 -237.80977 
L 495.220519 -238.186211 
L 496.871818 -238.122998 
L 498.523117 -236.266612 
L 500.174416 -232.526894 
L 501.825715 -228.087526 
L 503.477014 -223.791807 
L 505.128313 -220.485358 
L 506.779612 -218.016326 
L 508.430911 -215.752929 
L 510.08221 -213.364054 
L 511.733509 -211.526428 
L 513.384808 -211.048705 
L 515.036107 -212.199074 
L 516.687406 -214.43464 
L 518.338705 -216.265077 
L 519.990004 -216.134208 
L 521.641303 -213.393157 
L 523.292602 -208.343539 
L 524.943901 -202.634395 
L 526.5952 -197.814534 
L 528.246499 -194.415122 
L 529.897798 -191.872189 
L 531.549097 -189.331174 
L 533.200396 -186.132061 
L 534.851695 -182.070407 
L 536.502994 -177.712888 
L 538.154293 -173.830935 
L 539.805592 -171.024214 
L 541.456891 -169.501287 
L 543.108191 -169.147046 
L 544.75949 -169.464578 
L 546.410789 -170.135949 
L 548.062088 -170.590903 
L 549.713387 -170.620188 
L 551.364686 -169.718621 
L 553.015985 -167.73799 
L 554.667284 -164.868552 
L 556.318583 -161.222794 
L 557.969882 -157.203654 
L 559.621181 -153.256718 
L 561.27248 -149.910696 
L 561.27248 -155.056669 
L 561.27248 -155.056669 
L 559.621181 -158.400308 
L 557.969882 -162.331294 
L 556.318583 -166.472677 
L 554.667284 -170.270561 
L 553.015985 -173.154158 
L 551.364686 -174.864592 
L 549.713387 -175.484215 
L 548.062088 -175.254721 
L 546.410789 -174.717228 
L 544.75949 -174.242391 
L 543.108191 -174.052863 
L 541.456891 -174.486362 
L 539.805592 -175.981466 
L 538.154293 -178.714141 
L 536.502994 -182.57217 
L 534.851695 -186.973822 
L 533.200396 -191.033002 
L 531.549097 -194.287102 
L 529.897798 -196.787682 
L 528.246499 -199.347867 
L 526.5952 -202.900781 
L 524.943901 -207.748839 
L 523.292602 -213.341802 
L 521.641303 -218.123256 
L 519.990004 -220.869771 
L 518.338705 -221.195701 
L 516.687406 -219.496155 
L 515.036107 -217.451755 
L 513.384808 -216.538115 
L 511.733509 -217.183721 
L 510.08221 -219.018075 
L 508.430911 -221.379553 
L 506.779612 -223.670708 
L 505.128313 -226.094105 
L 503.477014 -229.422506 
L 501.825715 -233.669159 
L 500.174416 -238.196812 
L 498.523117 -241.814838 
L 496.871818 -243.681514 
L 495.220519 -243.694337 
L 493.56922 -243.201241 
L 491.917921 -243.905435 
L 490.266622 -246.51893 
L 488.615323 -250.506065 
L 486.964023 -254.373079 
L 485.312724 -256.415236 
L 483.661425 -256.077988 
L 482.010126 -254.111412 
L 480.358827 -252.154499 
L 478.707528 -251.701963 
L 477.056229 -253.107156 
L 475.40493 -255.779447 
L 473.753631 -258.60459 
L 472.102332 -260.396585 
L 470.451033 -260.565268 
L 468.799734 -259.495685 
L 467.148435 -258.196848 
L 465.497136 -257.387399 
L 463.845837 -257.625874 
L 462.194538 -259.219994 
L 460.543239 -262.1183 
L 458.89194 -265.728084 
L 457.240641 -269.307039 
L 455.589342 -271.982297 
L 453.938043 -273.23611 
L 452.286744 -272.712964 
L 450.635445 -270.653969 
L 448.984146 -267.745487 
L 447.332847 -264.501881 
L 445.681548 -262.089242 
L 444.030249 -261.170773 
L 442.37895 -262.259148 
L 440.727651 -265.119195 
L 439.076352 -268.722647 
L 437.425053 -271.936279 
L 435.773754 -273.987632 
L 434.122455 -274.373116 
L 432.471155 -273.450602 
L 430.819856 -272.634035 
L 429.168557 -273.064994 
L 427.517258 -275.759458 
L 425.865959 -280.725902 
L 424.21466 -287.215621 
L 422.563361 -293.635293 
L 420.912062 -298.017382 
L 419.260763 -298.71995 
L 417.609464 -295.876267 
L 415.958165 -290.516866 
L 414.306866 -284.758751 
L 412.655567 -280.705694 
L 411.004268 -279.689112 
L 409.352969 -281.527561 
L 407.70167 -285.633951 
L 406.050371 -290.388418 
L 404.399072 -294.27497 
L 402.747773 -296.957218 
L 401.096474 -298.832006 
L 399.445175 -300.210188 
L 397.793876 -301.480821 
L 396.142577 -302.607781 
L 394.491278 -303.461707 
L 392.839979 -304.371931 
L 391.18868 -305.379253 
L 389.537381 -306.500433 
L 387.886082 -307.470138 
L 386.234783 -307.960271 
L 384.583484 -307.847715 
L 382.932185 -307.71384 
L 381.280886 -308.343363 
L 379.629586 -310.594349 
L 377.978287 -314.717739 
L 376.326988 -319.600903 
L 374.675689 -323.464905 
L 373.02439 -325.315434 
L 371.373091 -324.895682 
L 369.721792 -323.034298 
L 368.070493 -321.004544 
L 366.419194 -319.530127 
L 364.767895 -318.79032 
L 363.116596 -318.393044 
L 361.465297 -317.837753 
L 359.813998 -317.353706 
L 358.162699 -317.75527 
L 356.5114 -319.652509 
L 354.860101 -322.924309 
L 353.208802 -326.588482 
L 351.557503 -329.632634 
L 349.906204 -331.558491 
L 348.254905 -332.923922 
L 346.603606 -334.900932 
L 344.952307 -338.480529 
L 343.301008 -343.545654 
L 341.649709 -348.813754 
L 339.99841 -352.340464 
L 338.347111 -353.001657 
L 336.695812 -350.6454 
L 335.044513 -346.230501 
L 333.393214 -341.329835 
L 331.741915 -337.347751 
L 330.090616 -334.279927 
L 328.439317 -331.579938 
L 326.788018 -328.564733 
L 325.136718 -325.02799 
L 323.485419 -321.597215 
L 321.83412 -318.622197 
L 320.182821 -316.493977 
L 318.531522 -315.069564 
L 316.880223 -313.308589 
L 315.228924 -310.144163 
L 313.577625 -305.574612 
L 311.926326 -300.283574 
L 310.275027 -295.062751 
L 308.623728 -291.071943 
L 306.972429 -288.545932 
L 305.32113 -287.08954 
L 303.669831 -285.856367 
L 302.018532 -284.5498 
L 300.367233 -282.995212 
L 298.715934 -281.405801 
L 297.064635 -280.116842 
L 295.413336 -279.685614 
L 293.762037 -279.966117 
L 292.110738 -280.819404 
L 290.459439 -282.091277 
L 288.80814 -283.48092 
L 287.156841 -285.057447 
L 285.505542 -286.502649 
L 283.854243 -287.434434 
L 282.202944 -287.534284 
L 280.551645 -286.243991 
L 278.900346 -283.735425 
L 277.249047 -280.681808 
L 275.597748 -277.86764 
L 273.946449 -276.064429 
L 272.29515 -275.959272 
L 270.64385 -277.721491 
L 268.992551 -281.466855 
L 267.341252 -286.985418 
L 265.689953 -293.805331 
L 264.038654 -300.85861 
L 262.387355 -307.079645 
L 260.736056 -311.941682 
L 259.084757 -315.543212 
L 257.433458 -318.940875 
L 255.782159 -323.221692 
L 254.13086 -329.011978 
L 252.479561 -335.617304 
L 250.828262 -342.147843 
L 249.176963 -347.364649 
L 247.525664 -350.626567 
L 245.874365 -352.1207 
L 244.223066 -352.821904 
L 242.571767 -353.877023 
L 240.920468 -355.989866 
L 239.269169 -358.801873 
L 237.61787 -361.390417 
L 235.966571 -361.988149 
L 234.315272 -358.978527 
L 232.663973 -351.376112 
L 231.012674 -339.629251 
L 229.361375 -325.073558 
L 227.710076 -309.387788 
L 226.058777 -294.169054 
L 224.407478 -280.610909 
L 222.756179 -268.642157 
L 221.10488 -257.825343 
L 219.453581 -247.784325 
L 217.802282 -238.869118 
L 216.150982 -231.952937 
L 214.499683 -228.634463 
L 212.848384 -229.839866 
L 211.197085 -235.930315 
L 209.545786 -245.197363 
L 207.894487 -255.074085 
L 206.243188 -263.077622 
L 204.591889 -267.402513 
L 202.94059 -267.229849 
L 201.289291 -262.72858 
L 199.637992 -255.401745 
L 197.986693 -247.05358 
L 196.335394 -237.949846 
L 194.684095 -227.388156 
L 193.032796 -215.257412 
L 191.381497 -202.1804 
L 189.730198 -189.389739 
L 188.078899 -178.332194 
L 186.4276 -169.94212 
L 184.776301 -164.529365 
L 183.125002 -162.073344 
L 181.473703 -162.011116 
L 179.822404 -163.814983 
L 178.171105 -166.988253 
L 176.519806 -171.409804 
L 174.868507 -177.056395 
L 173.217208 -183.121294 
L 171.565909 -189.091476 
L 169.91461 -194.011215 
L 168.263311 -197.667626 
L 166.612012 -199.952847 
L 164.960713 -201.363348 
L 163.309414 -202.571944 
L 161.658114 -203.699245 
L 160.006815 -204.623422 
L 158.355516 -204.957129 
L 156.704217 -203.99575 
L 155.052918 -202.328193 
L 153.401619 -200.915885 
L 151.75032 -200.933613 
L 150.099021 -202.677439 
L 148.447722 -205.258981 
L 146.796423 -207.292208 
L 145.145124 -207.633165 
L 143.493825 -206.43818 
L 141.842526 -204.761434 
L 140.191227 -203.845676 
L 138.539928 -204.674488 
L 136.888629 -206.953903 
L 135.23733 -209.443684 
L 133.586031 -211.005323 
L 131.934732 -211.553473 
L 130.283433 -212.272263 
L 128.632134 -214.382569 
L 126.980835 -218.124502 
L 125.329536 -222.830639 
L 123.678237 -226.502619 
L 122.026938 -227.65548 
L 120.375639 -226.085622 
L 118.72434 -222.88164 
L 117.073041 -220.261656 
L 115.421742 -219.575568 
L 113.770443 -221.203977 
L 112.119144 -224.350692 
L 110.467845 -227.397474 
L 108.816546 -229.496238 
L 107.165246 -230.158148 
L 105.513947 -229.650215 
L 103.862648 -228.846269 
L 102.211349 -227.86734 
L 100.56005 -227.040416 
L 98.908751 -226.349254 
L 97.257452 -225.855695 
L 95.606153 -225.288723 
L 93.954854 -224.948957 
L 92.303555 -224.783593 
L 90.652256 -224.886369 
L 89.000957 -225.676578 
L 87.349658 -227.312953 
L 85.698359 -229.545106 
L 84.04706 -231.906548 
L 82.395761 -233.637497 
L 80.744462 -234.239071 
L 79.093163 -233.56697 
L 77.441864 -231.862188 
L 75.790565 -229.933696 
L 74.139266 -228.623168 
L 72.487967 -228.280644 
L 70.836668 -228.850002 
L 69.185369 -230.000366 
L 67.53407 -231.145147 
L 65.882771 -231.91468 
L 64.231472 -232.147957 
L 62.580173 -231.596115 
L 60.928874 -230.845148 
L 59.277575 -230.491132 
L 57.626276 -231.127015 
L 55.974977 -232.660372 
L 54.323677 -234.946243 
z
" style="stroke: #ff7f0e; stroke-opacity: 0.3"/>
    </defs>
    <g>
     <use xlink:href="#m2a191d30ab" x="0" y="432" style="fill: #ff7f0e; fill-opacity: 0.3; stroke: #ff7f0e; stroke-opacity: 0.3"/>
    </g>
   </g>
   <g id="line2d_21">
    <path d="M 54.323677 170.311066 
L 55.974977 166.170234 
L 57.626276 167.900406 
L 59.277575 171.559312 
L 60.928874 174.725014 
L 62.580173 175.205335 
L 64.231472 174.237694 
L 65.882771 174.431399 
L 67.53407 177.546954 
L 69.185369 184.134755 
L 70.836668 191.806389 
L 72.487967 198.848123 
L 74.139266 203.056727 
L 75.790565 204.78622 
L 77.441864 205.568846 
L 79.093163 205.714122 
L 80.744462 204.394655 
L 82.395761 201.291253 
L 85.698359 189.76858 
L 87.349658 185.856647 
L 89.000957 186.958769 
L 90.652256 193.837067 
L 93.954854 215.748092 
L 95.606153 222.666548 
L 97.257452 223.655423 
L 98.908751 219.824966 
L 100.56005 214.363052 
L 102.211349 210.699922 
L 103.862648 210.097414 
L 105.513947 212.172278 
L 107.165246 216.174192 
L 108.816546 220.627833 
L 110.467845 224.501008 
L 112.119144 227.011813 
L 113.770443 227.684144 
L 115.421742 226.398359 
L 117.073041 224.175271 
L 118.72434 222.856195 
L 120.375639 223.546948 
L 122.026938 226.298734 
L 125.329536 235.264857 
L 126.980835 238.451711 
L 128.632134 239.105521 
L 130.283433 237.551427 
L 131.934732 234.059712 
L 133.586031 229.174266 
L 135.23733 225.338774 
L 136.888629 224.189193 
L 138.539928 227.317081 
L 140.191227 233.0012 
L 143.493825 248.875947 
L 145.145124 254.196227 
L 146.796423 256.095052 
L 148.447722 256.449662 
L 150.099021 258.500943 
L 151.75032 264.760545 
L 153.401619 274.356399 
L 155.052918 283.26539 
L 156.704217 287.935061 
L 158.355516 286.319546 
L 160.006815 278.437861 
L 161.658114 267.971986 
L 163.309414 258.271763 
L 164.960713 251.206372 
L 168.263311 238.909978 
L 169.91461 233.963114 
L 171.565909 231.713304 
L 173.217208 235.00944 
L 174.868507 244.818737 
L 176.519806 257.750711 
L 178.171105 269.705136 
L 179.822404 277.947607 
L 181.473703 281.688456 
L 183.125002 283.752608 
L 184.776301 285.519778 
L 186.4276 286.446609 
L 188.078899 284.005862 
L 189.730198 276.470258 
L 191.381497 263.495037 
L 193.032796 248.097673 
L 194.684095 235.182382 
L 196.335394 227.797926 
L 197.986693 225.346277 
L 199.637992 223.676007 
L 201.289291 220.004346 
L 202.94059 214.904247 
L 204.591889 212.123217 
L 206.243188 215.902444 
L 207.894487 227.306853 
L 209.545786 242.498245 
L 211.197085 255.342989 
L 212.848384 261.569234 
L 214.499683 259.092398 
L 216.150982 250.515547 
L 221.10488 220.528519 
L 222.756179 208.53307 
L 224.407478 192.341206 
L 226.058777 172.568848 
L 227.710076 150.778133 
L 229.361375 132.151989 
L 231.012674 116.034563 
L 234.315272 88.936951 
L 235.966571 75.904588 
L 237.61787 65.342635 
L 239.269169 60.840826 
L 240.920468 62.739491 
L 242.571767 67.463524 
L 244.223066 72.544103 
L 245.874365 74.136594 
L 247.525664 70.632199 
L 249.176963 64.376194 
L 250.828262 59.678066 
L 252.479561 60.463587 
L 254.13086 68.260333 
L 257.433458 94.537907 
L 259.084757 104.688114 
L 260.736056 109.945249 
L 262.387355 112.429941 
L 264.038654 114.146733 
L 265.689953 118.928259 
L 267.341252 128.514071 
L 268.992551 141.920666 
L 270.64385 157.322848 
L 272.29515 171.606225 
L 273.946449 181.28733 
L 275.597748 185.522071 
L 277.249047 185.409095 
L 280.551645 178.895949 
L 282.202944 176.608877 
L 283.854243 176.047222 
L 285.505542 176.195187 
L 287.156841 174.646584 
L 288.80814 170.753441 
L 290.459439 164.976711 
L 292.110738 159.647782 
L 293.762037 155.78997 
L 295.413336 153.11179 
L 297.064635 151.214833 
L 298.715934 148.698868 
L 300.367233 144.736241 
L 302.018532 140.475815 
L 303.669831 136.64253 
L 305.32113 134.094191 
L 306.972429 133.704487 
L 308.623728 136.221448 
L 310.275027 139.82188 
L 311.926326 141.369906 
L 313.577625 138.536306 
L 315.228924 130.378143 
L 320.182821 94.161254 
L 321.83412 85.758687 
L 325.136718 73.722509 
L 326.788018 66.319135 
L 328.439317 56.659914 
L 330.090616 47.715477 
L 331.741915 42.608954 
L 333.393214 40.826122 
L 335.044513 42.721204 
L 336.695812 48.847967 
L 339.99841 65.857713 
L 341.649709 73.114709 
L 343.301008 77.619152 
L 344.952307 77.805459 
L 346.603606 74.34784 
L 348.254905 68.384785 
L 349.906204 63.714837 
L 351.557503 63.244812 
L 353.208802 67.468917 
L 354.860101 72.873988 
L 356.5114 76.175666 
L 358.162699 75.036101 
L 361.465297 65.053829 
L 363.116596 62.598818 
L 364.767895 63.779339 
L 366.419194 66.936486 
L 368.070493 69.32306 
L 369.721792 69.975723 
L 371.373091 70.027162 
L 373.02439 71.747 
L 374.675689 75.833646 
L 376.326988 80.573997 
L 377.978287 82.761055 
L 379.629586 79.922212 
L 381.280886 72.108374 
L 382.932185 62.74945 
L 384.583484 55.984483 
L 386.234783 53.461711 
L 387.886082 54.764948 
L 389.537381 57.091931 
L 392.839979 60.398097 
L 394.491278 64.147955 
L 397.793876 77.411349 
L 399.445175 81.626796 
L 401.096474 81.390635 
L 402.747773 77.604872 
L 404.399072 74.767761 
L 406.050371 76.131028 
L 407.70167 81.726501 
L 409.352969 88.693382 
L 411.004268 93.834796 
L 412.655567 94.937713 
L 414.306866 93.314297 
L 415.958165 93.591322 
L 417.609464 99.93065 
L 419.260763 112.196456 
L 420.912062 126.211978 
L 422.563361 135.949631 
L 424.21466 138.021064 
L 425.865959 133.452803 
L 427.517258 126.921388 
L 429.168557 122.921358 
L 430.819856 123.153703 
L 432.471155 126.922374 
L 437.425053 143.205996 
L 439.076352 148.38538 
L 440.727651 152.279109 
L 442.37895 154.793163 
L 444.030249 154.641167 
L 445.681548 151.670733 
L 447.332847 147.898169 
L 448.984146 146.528346 
L 450.635445 149.600024 
L 452.286744 157.628903 
L 453.938043 168.30621 
L 455.589342 177.717057 
L 457.240641 183.610487 
L 458.89194 185.45428 
L 460.543239 183.143932 
L 462.194538 177.808405 
L 463.845837 170.67691 
L 467.148435 154.96668 
L 468.799734 148.113216 
L 470.451033 142.095557 
L 472.102332 137.497261 
L 473.753631 134.702865 
L 475.40493 133.216327 
L 477.056229 133.540834 
L 478.707528 136.80138 
L 480.358827 144.041596 
L 482.010126 154.995936 
L 483.661425 167.252081 
L 485.312724 177.245418 
L 486.964023 181.441644 
L 488.615323 180.512412 
L 490.266622 178.238793 
L 491.917921 178.211711 
L 493.56922 183.480175 
L 495.220519 194.214367 
L 496.871818 206.518783 
L 498.523117 215.717677 
L 500.174416 218.04742 
L 501.825715 214.058215 
L 503.477014 207.024198 
L 505.128313 202.1317 
L 506.779612 202.361196 
L 508.430911 206.040525 
L 510.08221 210.18722 
L 511.733509 211.85054 
L 513.384808 209.956799 
L 516.687406 202.898613 
L 518.338705 201.27067 
L 519.990004 201.225288 
L 521.641303 202.143049 
L 523.292602 204.965054 
L 524.943901 210.854347 
L 526.5952 220.635795 
L 528.246499 234.291639 
L 529.897798 249.236758 
L 531.549097 261.312057 
L 533.200396 267.789987 
L 534.851695 268.1557 
L 536.502994 265.227702 
L 538.154293 263.144014 
L 539.805592 265.344543 
L 543.108191 275.512367 
L 544.75949 276.651472 
L 546.410789 273.832299 
L 549.713387 262.480269 
L 551.364686 260.039077 
L 553.015985 262.754607 
L 554.667284 269.607898 
L 557.969882 286.780693 
L 559.621181 293.882571 
L 561.27248 298.384135 
L 561.27248 298.384135 
" style="fill: none; stroke: #1f77b4; stroke-width: 1.5; stroke-linecap: square"/>
   </g>
   <g id="line2d_22">
    <path d="M 54.323677 199.178427 
L 55.974977 201.444381 
L 57.626276 202.967402 
L 59.277575 203.522402 
L 60.928874 203.129852 
L 62.580173 202.328958 
L 64.231472 201.757421 
L 65.882771 201.899599 
L 67.53407 202.6981 
L 70.836668 205.139838 
L 72.487967 205.73984 
L 74.139266 205.328174 
L 75.790565 203.871717 
L 77.441864 201.835883 
L 79.093163 200.099011 
L 80.744462 199.391725 
L 82.395761 200.024182 
L 84.04706 201.829207 
L 87.349658 206.51909 
L 89.000957 208.129933 
L 90.652256 208.881707 
L 92.303555 208.996823 
L 93.954854 208.787969 
L 95.606153 208.421687 
L 98.908751 207.367159 
L 102.211349 205.928585 
L 105.513947 203.988801 
L 107.165246 203.443307 
L 108.816546 204.127229 
L 110.467845 206.19861 
L 113.770443 212.315901 
L 115.421742 213.979992 
L 117.073041 213.386493 
L 118.72434 210.827795 
L 120.375639 207.670162 
L 122.026938 206.090635 
L 123.678237 207.278413 
L 125.329536 211.063805 
L 126.980835 215.765586 
L 128.632134 219.566186 
L 130.283433 221.67837 
L 131.934732 222.387977 
L 133.586031 222.947365 
L 135.23733 224.458341 
L 138.539928 229.155384 
L 140.191227 230.064778 
L 141.842526 229.288491 
L 143.493825 227.673071 
L 145.145124 226.584675 
L 146.796423 227.084892 
L 148.447722 229.203079 
L 150.099021 231.791199 
L 151.75032 233.468467 
L 153.401619 233.448418 
L 155.052918 231.936046 
L 156.704217 230.201064 
L 158.355516 229.328373 
L 160.006815 229.587456 
L 161.658114 230.570002 
L 164.960713 233.025826 
L 166.612012 234.492164 
L 168.263311 236.742047 
L 169.91461 240.331896 
L 171.565909 245.310827 
L 176.519806 263.141647 
L 178.171105 267.547059 
L 179.822404 270.75408 
L 181.473703 272.63903 
L 183.125002 272.688925 
L 184.776301 270.173529 
L 186.4276 264.726885 
L 188.078899 256.226893 
L 189.730198 245.08459 
L 194.684095 206.979996 
L 196.335394 196.451442 
L 197.986693 187.31138 
L 199.637992 179.03167 
L 201.289291 171.725061 
L 202.94059 167.133254 
L 204.591889 166.909555 
L 206.243188 171.174153 
L 207.894487 179.214618 
L 211.197085 198.615465 
L 212.848384 204.7258 
L 214.499683 206.128516 
L 216.150982 202.793415 
L 217.802282 195.861036 
L 219.453581 186.825529 
L 221.10488 176.76945 
L 222.756179 165.925646 
L 224.407478 153.924492 
L 226.058777 140.294412 
L 231.012674 94.652477 
L 232.663973 82.905733 
L 234.315272 75.402359 
L 235.966571 72.371551 
L 237.61787 72.939054 
L 239.269169 75.490125 
L 240.920468 78.400645 
L 242.571767 80.571708 
L 244.223066 81.632995 
L 245.874365 82.24851 
L 247.525664 83.687015 
L 249.176963 86.907712 
L 250.828262 92.15831 
L 254.13086 105.552028 
L 255.782159 111.321726 
L 257.433458 115.611926 
L 259.084757 119.009064 
L 260.736056 122.668179 
L 262.387355 127.462684 
L 264.038654 133.705357 
L 267.341252 147.539558 
L 268.992551 153.197397 
L 270.64385 157.08495 
L 272.29515 158.906458 
L 273.946449 158.731218 
L 275.597748 156.902442 
L 277.249047 154.105646 
L 278.900346 151.082041 
L 280.551645 148.587355 
L 282.202944 147.249376 
L 283.854243 147.200996 
L 285.505542 148.113473 
L 288.80814 151.076631 
L 290.459439 152.506929 
L 292.110738 153.665398 
L 293.762037 154.479179 
L 295.413336 154.792185 
L 297.064635 154.365163 
L 298.715934 153.164682 
L 302.018532 149.834715 
L 303.669831 148.519926 
L 305.32113 147.444685 
L 306.972429 146.037291 
L 308.623728 143.480488 
L 310.275027 139.417526 
L 313.577625 128.736164 
L 315.228924 124.186075 
L 316.880223 121.165619 
L 318.531522 119.512844 
L 320.182821 118.210589 
L 321.83412 116.210273 
L 323.485419 113.189193 
L 326.788018 106.03023 
L 328.439317 103.119004 
L 330.090616 100.507813 
L 331.741915 97.497033 
L 333.393214 93.469973 
L 336.695812 84.162791 
L 338.347111 81.693302 
L 339.99841 82.334549 
L 341.649709 85.913748 
L 344.952307 96.33123 
L 346.603606 99.973535 
L 348.254905 102.002452 
L 349.906204 103.331876 
L 351.557503 105.199357 
L 353.208802 108.203724 
L 354.860101 111.9093 
L 356.5114 115.163015 
L 358.162699 117.0613 
L 359.813998 117.447769 
L 364.767895 115.863609 
L 366.419194 115.15501 
L 368.070493 113.758546 
L 369.721792 111.660513 
L 371.373091 109.758588 
L 373.02439 109.37895 
L 374.675689 111.262323 
L 376.326988 115.185753 
L 377.978287 120.045078 
L 379.629586 124.186193 
L 381.280886 126.482711 
L 382.932185 127.014577 
L 386.234783 126.691185 
L 387.886082 127.143656 
L 389.537381 128.191183 
L 391.18868 129.48919 
L 392.839979 130.605046 
L 397.793876 133.499272 
L 399.445175 134.66502 
L 401.096474 136.026641 
L 402.747773 137.859094 
L 404.399072 140.632433 
L 406.050371 144.634281 
L 407.70167 149.32386 
L 409.352969 153.439094 
L 411.004268 155.415766 
L 412.655567 154.267951 
L 414.306866 150.104306 
L 415.958165 144.243246 
L 417.609464 138.862914 
L 419.260763 135.868228 
L 420.912062 136.525241 
L 422.563361 140.804194 
L 425.865959 153.738678 
L 427.517258 158.809538 
L 429.168557 161.52249 
L 430.819856 161.970396 
L 434.122455 160.252192 
L 435.773754 160.74634 
L 437.425053 162.889945 
L 440.727651 169.767145 
L 442.37895 172.576979 
L 444.030249 173.664324 
L 445.681548 172.6908 
L 447.332847 170.082167 
L 448.984146 166.758761 
L 450.635445 163.769821 
L 452.286744 161.699849 
L 453.938043 161.229206 
L 455.589342 162.498669 
L 457.240641 165.253337 
L 460.543239 172.444538 
L 462.194538 175.26664 
L 463.845837 176.909748 
L 465.497136 177.186087 
L 467.148435 176.382672 
L 468.799734 175.096112 
L 470.451033 174.135773 
L 472.102332 174.347313 
L 473.753631 176.141385 
L 477.056229 181.589091 
L 478.707528 182.933738 
L 480.358827 182.385162 
L 483.661425 178.507446 
L 485.312724 178.225933 
L 486.964023 180.292799 
L 490.266622 188.134903 
L 491.917921 190.765174 
L 493.56922 191.474226 
L 495.220519 191.053088 
L 496.871818 191.09563 
L 498.523117 192.93144 
L 500.174416 196.610824 
L 501.825715 201.174347 
L 503.477014 205.410185 
L 505.128313 208.724892 
L 508.430911 213.522956 
L 510.08221 215.837166 
L 511.733509 217.660711 
L 513.384808 218.237977 
L 515.036107 217.165781 
L 516.687406 215.00624 
L 518.338705 213.289781 
L 519.990004 213.49153 
L 521.641303 216.254888 
L 523.292602 221.17777 
L 524.943901 226.816537 
L 526.5952 231.648923 
L 528.246499 235.133771 
L 531.549097 240.161707 
L 533.200396 243.363489 
L 534.851695 247.416076 
L 536.502994 251.816831 
L 538.154293 255.694588 
L 539.805592 258.465589 
L 541.456891 259.932643 
L 543.108191 260.349403 
L 544.75949 260.101114 
L 548.062088 259.089874 
L 549.713387 258.954447 
L 551.364686 259.714259 
L 553.015985 261.53457 
L 554.667284 264.413404 
L 556.318583 268.125497 
L 559.621181 276.180968 
L 561.27248 279.520443 
L 561.27248 279.520443 
" style="fill: none; stroke: #ff7f0e; stroke-width: 1.5; stroke-linecap: square"/>
   </g>
  </g>
  <g id="axes_2">
   <g id="PathCollection_1">
    <defs>
     <path id="C0_0_388c31ba5e" d="M 0 1.118034 
C 0.296506 1.118034 0.580908 1.000231 0.790569 0.790569 
C 1.000231 0.580908 1.118034 0.296506 1.118034 -0 
C 1.118034 -0.296506 1.000231 -0.580908 0.790569 -0.790569 
C 0.580908 -1.000231 0.296506 -1.118034 0 -1.118034 
C -0.296506 -1.118034 -0.580908 -1.000231 -0.790569 -0.790569 
C -1.000231 -0.580908 -1.118034 -0.296506 -1.118034 0 
C -1.118034 0.296506 -1.000231 0.580908 -0.790569 0.790569 
C -0.580908 1.000231 -0.296506 1.118034 0 1.118034 
z
"/>
    </defs>
    <g clip-path="url(#pa02fcd3962)">
     <use xlink:href="#C0_0_388c31ba5e" x="509.100419" y="76.412725" style="stroke: #000000"/>
    </g>
    <g clip-path="url(#pa02fcd3962)">
     <use xlink:href="#C0_0_388c31ba5e" x="527.452898" y="76.962832" style="stroke: #000000"/>
    </g>
    <g clip-path="url(#pa02fcd3962)">
     <use xlink:href="#C0_0_388c31ba5e" x="491.321581" y="76.939536" style="stroke: #000000"/>
    </g>
    <g clip-path="url(#pa02fcd3962)">
     <use xlink:href="#C0_0_388c31ba5e" x="494.028997" y="86.065614" style="stroke: #000000"/>
    </g>
    <g clip-path="url(#pa02fcd3962)">
     <use xlink:href="#C0_0_388c31ba5e" x="524.552562" y="86.075585" style="stroke: #000000"/>
    </g>
    <g clip-path="url(#pa02fcd3962)">
     <use xlink:href="#C0_0_388c31ba5e" x="509.043157" y="85.798032" style="stroke: #000000"/>
    </g>
   </g>
   <g id="matplotlib.axis_3"/>
   <g id="matplotlib.axis_4"/>
   <g id="line2d_23">
    <path d="M 548.86144 73.635892 
L 548.783775 71.164554 
L 548.551086 68.70297 
L 548.164293 66.260854 
L 547.624922 63.847844 
L 546.9351 61.473463 
L 546.097551 59.147081 
L 545.11558 56.87788 
L 543.993063 54.674816 
L 542.734429 52.546582 
L 541.344645 50.501577 
L 539.829197 48.547874 
L 538.194066 46.693181 
L 536.445704 44.944819 
L 534.591011 43.309688 
L 532.637308 41.79424 
L 530.592304 40.404456 
L 528.46407 39.145822 
L 526.261005 38.023305 
L 523.991804 37.041334 
L 521.665422 36.203785 
L 519.291041 35.513964 
L 516.878031 34.974592 
L 514.435915 34.587799 
L 511.974331 34.35511 
L 509.502994 34.277446 
L 507.031656 34.35511 
L 504.570072 34.587799 
L 502.127956 34.974592 
L 499.714946 35.513964 
L 497.340565 36.203785 
L 495.014183 37.041334 
L 492.744982 38.023305 
L 490.541918 39.145822 
L 488.413684 40.404456 
L 486.368679 41.79424 
L 484.414976 43.309688 
L 482.560283 44.944819 
L 480.811921 46.693181 
L 479.17679 48.547874 
L 477.661342 50.501577 
L 476.271558 52.546582 
L 475.012924 54.674816 
L 473.890407 56.87788 
L 472.908436 59.147081 
L 472.070887 61.473463 
L 471.381065 63.847844 
L 470.841694 66.260854 
L 470.454901 68.70297 
L 470.222212 71.164554 
L 470.144548 73.635892 
L 470.222212 76.107229 
L 470.454901 78.568813 
L 470.841694 81.010929 
L 471.381065 83.423939 
L 472.070887 85.79832 
L 472.908436 88.124702 
L 473.890407 90.393903 
L 475.012924 92.596968 
L 476.271558 94.725202 
L 477.661342 96.770206 
L 479.17679 98.723909 
L 480.811921 100.578602 
L 482.560283 102.326964 
L 484.414976 103.962095 
L 486.368679 105.477543 
L 488.413684 106.867327 
L 490.541918 108.125961 
L 492.744982 109.248478 
L 495.014183 110.230449 
L 497.340565 111.067998 
L 499.714946 111.75782 
L 502.127956 112.297191 
L 504.570072 112.683985 
L 507.031656 112.916673 
L 509.502994 112.994338 
L 511.974331 112.916673 
L 514.435915 112.683985 
L 516.878031 112.297191 
L 519.291041 111.75782 
L 521.665422 111.067998 
L 523.991804 110.230449 
L 526.261005 109.248478 
L 528.46407 108.125961 
L 530.592304 106.867327 
L 532.637308 105.477543 
L 534.591011 103.962095 
L 536.445704 102.326964 
L 538.194066 100.578602 
L 539.829197 98.723909 
L 541.344645 96.770206 
L 542.734429 94.725202 
L 543.993063 92.596968 
L 545.11558 90.393903 
L 546.097551 88.124702 
L 546.9351 85.79832 
L 547.624922 83.423939 
L 548.164293 81.010929 
L 548.551086 78.568813 
L 548.783775 76.107229 
L 548.86144 73.635892 
" style="fill: none; stroke: #000000; stroke-linecap: square"/>
   </g>
   <g id="line2d_24">
    <path d="M 501.25978 35.150353 
L 509.502994 28.373679 
L 517.746207 35.150353 
" style="fill: none; stroke: #000000; stroke-linecap: square"/>
   </g>
   <g id="line2d_25">
    <path d="M 470.380698 69.267104 
L 469.357379 67.535332 
L 468.727643 67.472359 
L 467.790912 67.763611 
L 466.84631 69.267104 
L 466.995872 74.068834 
L 466.444854 80.972306 
L 467.625607 83.97142 
L 469.357379 84.530309 
L 471.010433 83.074047 
" style="fill: none; stroke: #000000; stroke-linecap: square"/>
   </g>
   <g id="line2d_26">
    <path d="M 548.625289 69.267104 
L 549.648608 67.535332 
L 550.278344 67.472359 
L 551.215075 67.763611 
L 552.159677 69.267104 
L 552.010115 74.068834 
L 552.561134 80.972306 
L 551.38038 83.97142 
L 549.648608 84.530309 
L 547.995554 83.074047 
" style="fill: none; stroke: #000000; stroke-linecap: square"/>
   </g>
  </g>
 </g>
 <defs>
  <clipPath id="p81f331a910">
   <rect x="54.323678" y="18.118365" width="507.54327" height="380.525145"/>
  </clipPath>
  <clipPath id="pa02fcd3962">
   <rect x="462.13904" y="24.142646" width="94.727908" height="93.082725"/>
  </clipPath>
 </defs>
</svg>
