<?xml version="1.0" encoding="utf-8" standalone="no"?>
<!DOCTYPE svg PUBLIC "-//W3C//DTD SVG 1.1//EN"
  "http://www.w3.org/Graphics/SVG/1.1/DTD/svg11.dtd">
<svg xmlns:xlink="http://www.w3.org/1999/xlink" width="576pt" height="432pt" viewBox="0 0 576 432" xmlns="http://www.w3.org/2000/svg" version="1.1">
 <metadata>
  <rdf:RDF xmlns:dc="http://purl.org/dc/elements/1.1/" xmlns:cc="http://creativecommons.org/ns#" xmlns:rdf="http://www.w3.org/1999/02/22-rdf-syntax-ns#">
   <cc:Work>
    <dc:type rdf:resource="http://purl.org/dc/dcmitype/StillImage"/>
    <dc:date>2025-02-20T17:25:33.790623</dc:date>
    <dc:format>image/svg+xml</dc:format>
    <dc:creator>
     <cc:Agent>
      <dc:title>Matplotlib v3.10.0, https://matplotlib.org/</dc:title>
     </cc:Agent>
    </dc:creator>
   </cc:Work>
  </rdf:RDF>
 </metadata>
 <defs>
  <style type="text/css">*{stroke-linejoin: round; stroke-linecap: butt}</style>
 </defs>
 <g id="figure_1">
  <g id="patch_1">
   <path d="M 0 432 
L 576 432 
L 576 0 
L 0 0 
z
" style="fill: #ffffff"/>
  </g>
  <g id="axes_1">
   <g id="patch_2">
    <path d="M 47.961178 398.64351 
L 561.866947 398.64351 
L 561.866947 18.118365 
L 47.961178 18.118365 
L 47.961178 398.64351 
z
" style="fill: none; opacity: 0"/>
   </g>
   <g id="patch_3">
    <path d="M 47.961178 352.901959 
L 47.961178 63.859916 
" style="fill: none; stroke: #000000; stroke-width: 0.8; stroke-linejoin: miter; stroke-linecap: square"/>
   </g>
   <g id="LineCollection_1">
    <path d="M 219.441447 18.118365 
L 219.441447 398.64351 
" clip-path="url(#p0821771995)" style="fill: none; stroke-dasharray: 3.7,1.6; stroke-dashoffset: 0; stroke: #000000"/>
    <path d="M 283.646229 18.118365 
L 283.646229 398.64351 
" clip-path="url(#p0821771995)" style="fill: none; stroke-dasharray: 3.7,1.6; stroke-dashoffset: 0; stroke: #000000"/>
   </g>
   <g id="matplotlib.axis_1">
    <g id="xtick_1">
     <g id="line2d_1">
      <defs>
       <path id="m6ecd01fad4" d="M 0 0 
L 0 3.5 
" style="stroke: #000000; stroke-width: 0.8"/>
      </defs>
      <g>
       <use xlink:href="#m6ecd01fad4" x="48.228697" y="398.64351" style="stroke: #000000; stroke-width: 0.8"/>
      </g>
     </g>
     <g id="text_1">
      <!-- −0.20 -->
      <g transform="translate(32.906041 413.241947) scale(0.1 -0.1)">
       <defs>
        <path id="DejaVuSans-2212" d="M 678 2272 
L 4684 2272 
L 4684 1741 
L 678 1741 
L 678 2272 
z
" transform="scale(0.015625)"/>
        <path id="DejaVuSans-30" d="M 2034 4250 
Q 1547 4250 1301 3770 
Q 1056 3291 1056 2328 
Q 1056 1369 1301 889 
Q 1547 409 2034 409 
Q 2525 409 2770 889 
Q 3016 1369 3016 2328 
Q 3016 3291 2770 3770 
Q 2525 4250 2034 4250 
z
M 2034 4750 
Q 2819 4750 3233 4129 
Q 3647 3509 3647 2328 
Q 3647 1150 3233 529 
Q 2819 -91 2034 -91 
Q 1250 -91 836 529 
Q 422 1150 422 2328 
Q 422 3509 836 4129 
Q 1250 4750 2034 4750 
z
" transform="scale(0.015625)"/>
        <path id="DejaVuSans-2e" d="M 684 794 
L 1344 794 
L 1344 0 
L 684 0 
L 684 794 
z
" transform="scale(0.015625)"/>
        <path id="DejaVuSans-32" d="M 1228 531 
L 3431 531 
L 3431 0 
L 469 0 
L 469 531 
Q 828 903 1448 1529 
Q 2069 2156 2228 2338 
Q 2531 2678 2651 2914 
Q 2772 3150 2772 3378 
Q 2772 3750 2511 3984 
Q 2250 4219 1831 4219 
Q 1534 4219 1204 4116 
Q 875 4013 500 3803 
L 500 4441 
Q 881 4594 1212 4672 
Q 1544 4750 1819 4750 
Q 2544 4750 2975 4387 
Q 3406 4025 3406 3419 
Q 3406 3131 3298 2873 
Q 3191 2616 2906 2266 
Q 2828 2175 2409 1742 
Q 1991 1309 1228 531 
z
" transform="scale(0.015625)"/>
       </defs>
       <use xlink:href="#DejaVuSans-2212"/>
       <use xlink:href="#DejaVuSans-30" transform="translate(83.789062 0)"/>
       <use xlink:href="#DejaVuSans-2e" transform="translate(147.412109 0)"/>
       <use xlink:href="#DejaVuSans-32" transform="translate(179.199219 0)"/>
       <use xlink:href="#DejaVuSans-30" transform="translate(242.822266 0)"/>
      </g>
     </g>
    </g>
    <g id="xtick_2">
     <g id="line2d_2">
      <g>
       <use xlink:href="#m6ecd01fad4" x="133.835072" y="398.64351" style="stroke: #000000; stroke-width: 0.8"/>
      </g>
     </g>
     <g id="text_2">
      <!-- 0.00 -->
      <g transform="translate(122.70226 413.241947) scale(0.1 -0.1)">
       <use xlink:href="#DejaVuSans-30"/>
       <use xlink:href="#DejaVuSans-2e" transform="translate(63.623047 0)"/>
       <use xlink:href="#DejaVuSans-30" transform="translate(95.410156 0)"/>
       <use xlink:href="#DejaVuSans-30" transform="translate(159.033203 0)"/>
      </g>
     </g>
    </g>
    <g id="xtick_3">
     <g id="line2d_3">
      <g>
       <use xlink:href="#m6ecd01fad4" x="219.441447" y="398.64351" style="stroke: #000000; stroke-width: 0.8"/>
      </g>
     </g>
     <g id="text_3">
      <!-- 0.20 -->
      <g transform="translate(208.308635 413.241947) scale(0.1 -0.1)">
       <use xlink:href="#DejaVuSans-30"/>
       <use xlink:href="#DejaVuSans-2e" transform="translate(63.623047 0)"/>
       <use xlink:href="#DejaVuSans-32" transform="translate(95.410156 0)"/>
       <use xlink:href="#DejaVuSans-30" transform="translate(159.033203 0)"/>
      </g>
     </g>
    </g>
    <g id="xtick_4">
     <g id="line2d_4">
      <g>
       <use xlink:href="#m6ecd01fad4" x="219.441447" y="398.64351" style="stroke: #000000; stroke-width: 0.8"/>
      </g>
     </g>
     <g id="text_4">
      <!-- 0.20 -->
      <g transform="translate(208.308635 413.241947) scale(0.1 -0.1)">
       <use xlink:href="#DejaVuSans-30"/>
       <use xlink:href="#DejaVuSans-2e" transform="translate(63.623047 0)"/>
       <use xlink:href="#DejaVuSans-32" transform="translate(95.410156 0)"/>
       <use xlink:href="#DejaVuSans-30" transform="translate(159.033203 0)"/>
      </g>
     </g>
    </g>
    <g id="xtick_5">
     <g id="line2d_5">
      <g>
       <use xlink:href="#m6ecd01fad4" x="283.646229" y="398.64351" style="stroke: #000000; stroke-width: 0.8"/>
      </g>
     </g>
     <g id="text_5">
      <!-- 0.35 -->
      <g transform="translate(272.513416 413.241947) scale(0.1 -0.1)">
       <defs>
        <path id="DejaVuSans-33" d="M 2597 2516 
Q 3050 2419 3304 2112 
Q 3559 1806 3559 1356 
Q 3559 666 3084 287 
Q 2609 -91 1734 -91 
Q 1441 -91 1130 -33 
Q 819 25 488 141 
L 488 750 
Q 750 597 1062 519 
Q 1375 441 1716 441 
Q 2309 441 2620 675 
Q 2931 909 2931 1356 
Q 2931 1769 2642 2001 
Q 2353 2234 1838 2234 
L 1294 2234 
L 1294 2753 
L 1863 2753 
Q 2328 2753 2575 2939 
Q 2822 3125 2822 3475 
Q 2822 3834 2567 4026 
Q 2313 4219 1838 4219 
Q 1578 4219 1281 4162 
Q 984 4106 628 3988 
L 628 4550 
Q 988 4650 1302 4700 
Q 1616 4750 1894 4750 
Q 2613 4750 3031 4423 
Q 3450 4097 3450 3541 
Q 3450 3153 3228 2886 
Q 3006 2619 2597 2516 
z
" transform="scale(0.015625)"/>
        <path id="DejaVuSans-35" d="M 691 4666 
L 3169 4666 
L 3169 4134 
L 1269 4134 
L 1269 2991 
Q 1406 3038 1543 3061 
Q 1681 3084 1819 3084 
Q 2600 3084 3056 2656 
Q 3513 2228 3513 1497 
Q 3513 744 3044 326 
Q 2575 -91 1722 -91 
Q 1428 -91 1123 -41 
Q 819 9 494 109 
L 494 744 
Q 775 591 1075 516 
Q 1375 441 1709 441 
Q 2250 441 2565 725 
Q 2881 1009 2881 1497 
Q 2881 1984 2565 2268 
Q 2250 2553 1709 2553 
Q 1456 2553 1204 2497 
Q 953 2441 691 2322 
L 691 4666 
z
" transform="scale(0.015625)"/>
       </defs>
       <use xlink:href="#DejaVuSans-30"/>
       <use xlink:href="#DejaVuSans-2e" transform="translate(63.623047 0)"/>
       <use xlink:href="#DejaVuSans-33" transform="translate(95.410156 0)"/>
       <use xlink:href="#DejaVuSans-35" transform="translate(159.033203 0)"/>
      </g>
     </g>
    </g>
    <g id="xtick_6">
     <g id="line2d_6">
      <g>
       <use xlink:href="#m6ecd01fad4" x="305.047822" y="398.64351" style="stroke: #000000; stroke-width: 0.8"/>
      </g>
     </g>
     <g id="text_6">
      <!-- 0.40 -->
      <g transform="translate(293.91501 413.241947) scale(0.1 -0.1)">
       <defs>
        <path id="DejaVuSans-34" d="M 2419 4116 
L 825 1625 
L 2419 1625 
L 2419 4116 
z
M 2253 4666 
L 3047 4666 
L 3047 1625 
L 3713 1625 
L 3713 1100 
L 3047 1100 
L 3047 0 
L 2419 0 
L 2419 1100 
L 313 1100 
L 313 1709 
L 2253 4666 
z
" transform="scale(0.015625)"/>
       </defs>
       <use xlink:href="#DejaVuSans-30"/>
       <use xlink:href="#DejaVuSans-2e" transform="translate(63.623047 0)"/>
       <use xlink:href="#DejaVuSans-34" transform="translate(95.410156 0)"/>
       <use xlink:href="#DejaVuSans-30" transform="translate(159.033203 0)"/>
      </g>
     </g>
    </g>
    <g id="xtick_7">
     <g id="line2d_7">
      <g>
       <use xlink:href="#m6ecd01fad4" x="390.654197" y="398.64351" style="stroke: #000000; stroke-width: 0.8"/>
      </g>
     </g>
     <g id="text_7">
      <!-- 0.60 -->
      <g transform="translate(379.521385 413.241947) scale(0.1 -0.1)">
       <defs>
        <path id="DejaVuSans-36" d="M 2113 2584 
Q 1688 2584 1439 2293 
Q 1191 2003 1191 1497 
Q 1191 994 1439 701 
Q 1688 409 2113 409 
Q 2538 409 2786 701 
Q 3034 994 3034 1497 
Q 3034 2003 2786 2293 
Q 2538 2584 2113 2584 
z
M 3366 4563 
L 3366 3988 
Q 3128 4100 2886 4159 
Q 2644 4219 2406 4219 
Q 1781 4219 1451 3797 
Q 1122 3375 1075 2522 
Q 1259 2794 1537 2939 
Q 1816 3084 2150 3084 
Q 2853 3084 3261 2657 
Q 3669 2231 3669 1497 
Q 3669 778 3244 343 
Q 2819 -91 2113 -91 
Q 1303 -91 875 529 
Q 447 1150 447 2328 
Q 447 3434 972 4092 
Q 1497 4750 2381 4750 
Q 2619 4750 2861 4703 
Q 3103 4656 3366 4563 
z
" transform="scale(0.015625)"/>
       </defs>
       <use xlink:href="#DejaVuSans-30"/>
       <use xlink:href="#DejaVuSans-2e" transform="translate(63.623047 0)"/>
       <use xlink:href="#DejaVuSans-36" transform="translate(95.410156 0)"/>
       <use xlink:href="#DejaVuSans-30" transform="translate(159.033203 0)"/>
      </g>
     </g>
    </g>
    <g id="xtick_8">
     <g id="line2d_8">
      <g>
       <use xlink:href="#m6ecd01fad4" x="476.260572" y="398.64351" style="stroke: #000000; stroke-width: 0.8"/>
      </g>
     </g>
     <g id="text_8">
      <!-- 0.80 -->
      <g transform="translate(465.12776 413.241947) scale(0.1 -0.1)">
       <defs>
        <path id="DejaVuSans-38" d="M 2034 2216 
Q 1584 2216 1326 1975 
Q 1069 1734 1069 1313 
Q 1069 891 1326 650 
Q 1584 409 2034 409 
Q 2484 409 2743 651 
Q 3003 894 3003 1313 
Q 3003 1734 2745 1975 
Q 2488 2216 2034 2216 
z
M 1403 2484 
Q 997 2584 770 2862 
Q 544 3141 544 3541 
Q 544 4100 942 4425 
Q 1341 4750 2034 4750 
Q 2731 4750 3128 4425 
Q 3525 4100 3525 3541 
Q 3525 3141 3298 2862 
Q 3072 2584 2669 2484 
Q 3125 2378 3379 2068 
Q 3634 1759 3634 1313 
Q 3634 634 3220 271 
Q 2806 -91 2034 -91 
Q 1263 -91 848 271 
Q 434 634 434 1313 
Q 434 1759 690 2068 
Q 947 2378 1403 2484 
z
M 1172 3481 
Q 1172 3119 1398 2916 
Q 1625 2713 2034 2713 
Q 2441 2713 2670 2916 
Q 2900 3119 2900 3481 
Q 2900 3844 2670 4047 
Q 2441 4250 2034 4250 
Q 1625 4250 1398 4047 
Q 1172 3844 1172 3481 
z
" transform="scale(0.015625)"/>
       </defs>
       <use xlink:href="#DejaVuSans-30"/>
       <use xlink:href="#DejaVuSans-2e" transform="translate(63.623047 0)"/>
       <use xlink:href="#DejaVuSans-38" transform="translate(95.410156 0)"/>
       <use xlink:href="#DejaVuSans-30" transform="translate(159.033203 0)"/>
      </g>
     </g>
    </g>
    <g id="xtick_9">
     <g id="line2d_9">
      <g>
       <use xlink:href="#m6ecd01fad4" x="561.866947" y="398.64351" style="stroke: #000000; stroke-width: 0.8"/>
      </g>
     </g>
     <g id="text_9">
      <!-- 1.00 -->
      <g transform="translate(550.734135 413.241947) scale(0.1 -0.1)">
       <defs>
        <path id="DejaVuSans-31" d="M 794 531 
L 1825 531 
L 1825 4091 
L 703 3866 
L 703 4441 
L 1819 4666 
L 2450 4666 
L 2450 531 
L 3481 531 
L 3481 0 
L 794 0 
L 794 531 
z
" transform="scale(0.015625)"/>
       </defs>
       <use xlink:href="#DejaVuSans-31"/>
       <use xlink:href="#DejaVuSans-2e" transform="translate(63.623047 0)"/>
       <use xlink:href="#DejaVuSans-30" transform="translate(95.410156 0)"/>
       <use xlink:href="#DejaVuSans-30" transform="translate(159.033203 0)"/>
      </g>
     </g>
    </g>
    <g id="text_10">
     <!-- Time (s) -->
     <g transform="translate(284.585156 426.920073) scale(0.1 -0.1)">
      <defs>
       <path id="DejaVuSans-54" d="M -19 4666 
L 3928 4666 
L 3928 4134 
L 2272 4134 
L 2272 0 
L 1638 0 
L 1638 4134 
L -19 4134 
L -19 4666 
z
" transform="scale(0.015625)"/>
       <path id="DejaVuSans-69" d="M 603 3500 
L 1178 3500 
L 1178 0 
L 603 0 
L 603 3500 
z
M 603 4863 
L 1178 4863 
L 1178 4134 
L 603 4134 
L 603 4863 
z
" transform="scale(0.015625)"/>
       <path id="DejaVuSans-6d" d="M 3328 2828 
Q 3544 3216 3844 3400 
Q 4144 3584 4550 3584 
Q 5097 3584 5394 3201 
Q 5691 2819 5691 2113 
L 5691 0 
L 5113 0 
L 5113 2094 
Q 5113 2597 4934 2840 
Q 4756 3084 4391 3084 
Q 3944 3084 3684 2787 
Q 3425 2491 3425 1978 
L 3425 0 
L 2847 0 
L 2847 2094 
Q 2847 2600 2669 2842 
Q 2491 3084 2119 3084 
Q 1678 3084 1418 2786 
Q 1159 2488 1159 1978 
L 1159 0 
L 581 0 
L 581 3500 
L 1159 3500 
L 1159 2956 
Q 1356 3278 1631 3431 
Q 1906 3584 2284 3584 
Q 2666 3584 2933 3390 
Q 3200 3197 3328 2828 
z
" transform="scale(0.015625)"/>
       <path id="DejaVuSans-65" d="M 3597 1894 
L 3597 1613 
L 953 1613 
Q 991 1019 1311 708 
Q 1631 397 2203 397 
Q 2534 397 2845 478 
Q 3156 559 3463 722 
L 3463 178 
Q 3153 47 2828 -22 
Q 2503 -91 2169 -91 
Q 1331 -91 842 396 
Q 353 884 353 1716 
Q 353 2575 817 3079 
Q 1281 3584 2069 3584 
Q 2775 3584 3186 3129 
Q 3597 2675 3597 1894 
z
M 3022 2063 
Q 3016 2534 2758 2815 
Q 2500 3097 2075 3097 
Q 1594 3097 1305 2825 
Q 1016 2553 972 2059 
L 3022 2063 
z
" transform="scale(0.015625)"/>
       <path id="DejaVuSans-20" transform="scale(0.015625)"/>
       <path id="DejaVuSans-28" d="M 1984 4856 
Q 1566 4138 1362 3434 
Q 1159 2731 1159 2009 
Q 1159 1288 1364 580 
Q 1569 -128 1984 -844 
L 1484 -844 
Q 1016 -109 783 600 
Q 550 1309 550 2009 
Q 550 2706 781 3412 
Q 1013 4119 1484 4856 
L 1984 4856 
z
" transform="scale(0.015625)"/>
       <path id="DejaVuSans-73" d="M 2834 3397 
L 2834 2853 
Q 2591 2978 2328 3040 
Q 2066 3103 1784 3103 
Q 1356 3103 1142 2972 
Q 928 2841 928 2578 
Q 928 2378 1081 2264 
Q 1234 2150 1697 2047 
L 1894 2003 
Q 2506 1872 2764 1633 
Q 3022 1394 3022 966 
Q 3022 478 2636 193 
Q 2250 -91 1575 -91 
Q 1294 -91 989 -36 
Q 684 19 347 128 
L 347 722 
Q 666 556 975 473 
Q 1284 391 1588 391 
Q 1994 391 2212 530 
Q 2431 669 2431 922 
Q 2431 1156 2273 1281 
Q 2116 1406 1581 1522 
L 1381 1569 
Q 847 1681 609 1914 
Q 372 2147 372 2553 
Q 372 3047 722 3315 
Q 1072 3584 1716 3584 
Q 2034 3584 2315 3537 
Q 2597 3491 2834 3397 
z
" transform="scale(0.015625)"/>
       <path id="DejaVuSans-29" d="M 513 4856 
L 1013 4856 
Q 1481 4119 1714 3412 
Q 1947 2706 1947 2009 
Q 1947 1309 1714 600 
Q 1481 -109 1013 -844 
L 513 -844 
Q 928 -128 1133 580 
Q 1338 1288 1338 2009 
Q 1338 2731 1133 3434 
Q 928 4138 513 4856 
z
" transform="scale(0.015625)"/>
      </defs>
      <use xlink:href="#DejaVuSans-54"/>
      <use xlink:href="#DejaVuSans-69" transform="translate(57.958984 0)"/>
      <use xlink:href="#DejaVuSans-6d" transform="translate(85.742188 0)"/>
      <use xlink:href="#DejaVuSans-65" transform="translate(183.154297 0)"/>
      <use xlink:href="#DejaVuSans-20" transform="translate(244.677734 0)"/>
      <use xlink:href="#DejaVuSans-28" transform="translate(276.464844 0)"/>
      <use xlink:href="#DejaVuSans-73" transform="translate(315.478516 0)"/>
      <use xlink:href="#DejaVuSans-29" transform="translate(367.578125 0)"/>
     </g>
    </g>
   </g>
   <g id="matplotlib.axis_2">
    <g id="ytick_1">
     <g id="line2d_10">
      <defs>
       <path id="m591277d4a1" d="M 0 0 
L -3.5 0 
" style="stroke: #000000; stroke-width: 0.8"/>
      </defs>
      <g>
       <use xlink:href="#m591277d4a1" x="47.961178" y="352.901959" style="stroke: #000000; stroke-width: 0.8"/>
      </g>
     </g>
     <g id="text_11">
      <!-- −7.5 -->
      <g transform="translate(16.678365 356.701178) scale(0.1 -0.1)">
       <defs>
        <path id="DejaVuSans-37" d="M 525 4666 
L 3525 4666 
L 3525 4397 
L 1831 0 
L 1172 0 
L 2766 4134 
L 525 4134 
L 525 4666 
z
" transform="scale(0.015625)"/>
       </defs>
       <use xlink:href="#DejaVuSans-2212"/>
       <use xlink:href="#DejaVuSans-37" transform="translate(83.789062 0)"/>
       <use xlink:href="#DejaVuSans-2e" transform="translate(147.412109 0)"/>
       <use xlink:href="#DejaVuSans-35" transform="translate(179.199219 0)"/>
      </g>
     </g>
    </g>
    <g id="ytick_2">
     <g id="line2d_11">
      <g>
       <use xlink:href="#m591277d4a1" x="47.961178" y="304.728285" style="stroke: #000000; stroke-width: 0.8"/>
      </g>
     </g>
     <g id="text_12">
      <!-- −5.0 -->
      <g transform="translate(16.678365 308.527504) scale(0.1 -0.1)">
       <use xlink:href="#DejaVuSans-2212"/>
       <use xlink:href="#DejaVuSans-35" transform="translate(83.789062 0)"/>
       <use xlink:href="#DejaVuSans-2e" transform="translate(147.412109 0)"/>
       <use xlink:href="#DejaVuSans-30" transform="translate(179.199219 0)"/>
      </g>
     </g>
    </g>
    <g id="ytick_3">
     <g id="line2d_12">
      <g>
       <use xlink:href="#m591277d4a1" x="47.961178" y="256.554611" style="stroke: #000000; stroke-width: 0.8"/>
      </g>
     </g>
     <g id="text_13">
      <!-- −2.5 -->
      <g transform="translate(16.678365 260.35383) scale(0.1 -0.1)">
       <use xlink:href="#DejaVuSans-2212"/>
       <use xlink:href="#DejaVuSans-32" transform="translate(83.789062 0)"/>
       <use xlink:href="#DejaVuSans-2e" transform="translate(147.412109 0)"/>
       <use xlink:href="#DejaVuSans-35" transform="translate(179.199219 0)"/>
      </g>
     </g>
    </g>
    <g id="ytick_4">
     <g id="line2d_13">
      <g>
       <use xlink:href="#m591277d4a1" x="47.961178" y="208.380937" style="stroke: #000000; stroke-width: 0.8"/>
      </g>
     </g>
     <g id="text_14">
      <!-- 0.0 -->
      <g transform="translate(25.058053 212.180156) scale(0.1 -0.1)">
       <use xlink:href="#DejaVuSans-30"/>
       <use xlink:href="#DejaVuSans-2e" transform="translate(63.623047 0)"/>
       <use xlink:href="#DejaVuSans-30" transform="translate(95.410156 0)"/>
      </g>
     </g>
    </g>
    <g id="ytick_5">
     <g id="line2d_14">
      <g>
       <use xlink:href="#m591277d4a1" x="47.961178" y="160.207264" style="stroke: #000000; stroke-width: 0.8"/>
      </g>
     </g>
     <g id="text_15">
      <!-- 2.5 -->
      <g transform="translate(25.058053 164.006482) scale(0.1 -0.1)">
       <use xlink:href="#DejaVuSans-32"/>
       <use xlink:href="#DejaVuSans-2e" transform="translate(63.623047 0)"/>
       <use xlink:href="#DejaVuSans-35" transform="translate(95.410156 0)"/>
      </g>
     </g>
    </g>
    <g id="ytick_6">
     <g id="line2d_15">
      <g>
       <use xlink:href="#m591277d4a1" x="47.961178" y="112.03359" style="stroke: #000000; stroke-width: 0.8"/>
      </g>
     </g>
     <g id="text_16">
      <!-- 5.0 -->
      <g transform="translate(25.058053 115.832809) scale(0.1 -0.1)">
       <use xlink:href="#DejaVuSans-35"/>
       <use xlink:href="#DejaVuSans-2e" transform="translate(63.623047 0)"/>
       <use xlink:href="#DejaVuSans-30" transform="translate(95.410156 0)"/>
      </g>
     </g>
    </g>
    <g id="ytick_7">
     <g id="line2d_16">
      <g>
       <use xlink:href="#m591277d4a1" x="47.961178" y="63.859916" style="stroke: #000000; stroke-width: 0.8"/>
      </g>
     </g>
     <g id="text_17">
      <!-- 7.5 -->
      <g transform="translate(25.058053 67.659135) scale(0.1 -0.1)">
       <use xlink:href="#DejaVuSans-37"/>
       <use xlink:href="#DejaVuSans-2e" transform="translate(63.623047 0)"/>
       <use xlink:href="#DejaVuSans-35" transform="translate(95.410156 0)"/>
      </g>
     </g>
    </g>
    <g id="text_18">
     <!-- µV -->
     <g transform="translate(10.598678 214.9825) rotate(-90) scale(0.1 -0.1)">
      <defs>
       <path id="DejaVuSans-b5" d="M 544 -1331 
L 544 3500 
L 1119 3500 
L 1119 1325 
Q 1119 872 1334 640 
Q 1550 409 1972 409 
Q 2434 409 2667 671 
Q 2900 934 2900 1459 
L 2900 3500 
L 3475 3500 
L 3475 806 
Q 3475 619 3529 530 
Q 3584 441 3700 441 
Q 3728 441 3778 458 
Q 3828 475 3916 513 
L 3916 50 
Q 3788 -22 3673 -56 
Q 3559 -91 3450 -91 
Q 3234 -91 3106 31 
Q 2978 153 2931 403 
Q 2775 156 2548 32 
Q 2322 -91 2016 -91 
Q 1697 -91 1473 31 
Q 1250 153 1119 397 
L 1119 -1331 
L 544 -1331 
z
" transform="scale(0.015625)"/>
       <path id="DejaVuSans-56" d="M 1831 0 
L 50 4666 
L 709 4666 
L 2188 738 
L 3669 4666 
L 4325 4666 
L 2547 0 
L 1831 0 
z
" transform="scale(0.015625)"/>
      </defs>
      <use xlink:href="#DejaVuSans-b5"/>
      <use xlink:href="#DejaVuSans-56" transform="translate(63.623047 0)"/>
     </g>
    </g>
   </g>
   <g id="patch_4">
    <path d="M 48.228697 398.64351 
L 561.866947 398.64351 
" style="fill: none; stroke: #000000; stroke-width: 0.8; stroke-linejoin: miter; stroke-linecap: square"/>
   </g>
   <g id="patch_5">
    <path d="M 47.961178 208.380937 
L 561.866947 208.380937 
" style="fill: none; stroke: #000000; stroke-width: 0.8; stroke-linejoin: miter; stroke-linecap: square"/>
   </g>
   <g id="text_19">
    <!-- Fz, FCz, Cz, CPz, Pz (median) -->
    <g transform="translate(218.126875 12.118365) scale(0.12 -0.12)">
     <defs>
      <path id="DejaVuSans-46" d="M 628 4666 
L 3309 4666 
L 3309 4134 
L 1259 4134 
L 1259 2759 
L 3109 2759 
L 3109 2228 
L 1259 2228 
L 1259 0 
L 628 0 
L 628 4666 
z
" transform="scale(0.015625)"/>
      <path id="DejaVuSans-7a" d="M 353 3500 
L 3084 3500 
L 3084 2975 
L 922 459 
L 3084 459 
L 3084 0 
L 275 0 
L 275 525 
L 2438 3041 
L 353 3041 
L 353 3500 
z
" transform="scale(0.015625)"/>
      <path id="DejaVuSans-2c" d="M 750 794 
L 1409 794 
L 1409 256 
L 897 -744 
L 494 -744 
L 750 256 
L 750 794 
z
" transform="scale(0.015625)"/>
      <path id="DejaVuSans-43" d="M 4122 4306 
L 4122 3641 
Q 3803 3938 3442 4084 
Q 3081 4231 2675 4231 
Q 1875 4231 1450 3742 
Q 1025 3253 1025 2328 
Q 1025 1406 1450 917 
Q 1875 428 2675 428 
Q 3081 428 3442 575 
Q 3803 722 4122 1019 
L 4122 359 
Q 3791 134 3420 21 
Q 3050 -91 2638 -91 
Q 1578 -91 968 557 
Q 359 1206 359 2328 
Q 359 3453 968 4101 
Q 1578 4750 2638 4750 
Q 3056 4750 3426 4639 
Q 3797 4528 4122 4306 
z
" transform="scale(0.015625)"/>
      <path id="DejaVuSans-50" d="M 1259 4147 
L 1259 2394 
L 2053 2394 
Q 2494 2394 2734 2622 
Q 2975 2850 2975 3272 
Q 2975 3691 2734 3919 
Q 2494 4147 2053 4147 
L 1259 4147 
z
M 628 4666 
L 2053 4666 
Q 2838 4666 3239 4311 
Q 3641 3956 3641 3272 
Q 3641 2581 3239 2228 
Q 2838 1875 2053 1875 
L 1259 1875 
L 1259 0 
L 628 0 
L 628 4666 
z
" transform="scale(0.015625)"/>
      <path id="DejaVuSans-64" d="M 2906 2969 
L 2906 4863 
L 3481 4863 
L 3481 0 
L 2906 0 
L 2906 525 
Q 2725 213 2448 61 
Q 2172 -91 1784 -91 
Q 1150 -91 751 415 
Q 353 922 353 1747 
Q 353 2572 751 3078 
Q 1150 3584 1784 3584 
Q 2172 3584 2448 3432 
Q 2725 3281 2906 2969 
z
M 947 1747 
Q 947 1113 1208 752 
Q 1469 391 1925 391 
Q 2381 391 2643 752 
Q 2906 1113 2906 1747 
Q 2906 2381 2643 2742 
Q 2381 3103 1925 3103 
Q 1469 3103 1208 2742 
Q 947 2381 947 1747 
z
" transform="scale(0.015625)"/>
      <path id="DejaVuSans-61" d="M 2194 1759 
Q 1497 1759 1228 1600 
Q 959 1441 959 1056 
Q 959 750 1161 570 
Q 1363 391 1709 391 
Q 2188 391 2477 730 
Q 2766 1069 2766 1631 
L 2766 1759 
L 2194 1759 
z
M 3341 1997 
L 3341 0 
L 2766 0 
L 2766 531 
Q 2569 213 2275 61 
Q 1981 -91 1556 -91 
Q 1019 -91 701 211 
Q 384 513 384 1019 
Q 384 1609 779 1909 
Q 1175 2209 1959 2209 
L 2766 2209 
L 2766 2266 
Q 2766 2663 2505 2880 
Q 2244 3097 1772 3097 
Q 1472 3097 1187 3025 
Q 903 2953 641 2809 
L 641 3341 
Q 956 3463 1253 3523 
Q 1550 3584 1831 3584 
Q 2591 3584 2966 3190 
Q 3341 2797 3341 1997 
z
" transform="scale(0.015625)"/>
      <path id="DejaVuSans-6e" d="M 3513 2113 
L 3513 0 
L 2938 0 
L 2938 2094 
Q 2938 2591 2744 2837 
Q 2550 3084 2163 3084 
Q 1697 3084 1428 2787 
Q 1159 2491 1159 1978 
L 1159 0 
L 581 0 
L 581 3500 
L 1159 3500 
L 1159 2956 
Q 1366 3272 1645 3428 
Q 1925 3584 2291 3584 
Q 2894 3584 3203 3211 
Q 3513 2838 3513 2113 
z
" transform="scale(0.015625)"/>
     </defs>
     <use xlink:href="#DejaVuSans-46"/>
     <use xlink:href="#DejaVuSans-7a" transform="translate(57.519531 0)"/>
     <use xlink:href="#DejaVuSans-2c" transform="translate(110.009766 0)"/>
     <use xlink:href="#DejaVuSans-20" transform="translate(141.796875 0)"/>
     <use xlink:href="#DejaVuSans-46" transform="translate(173.583984 0)"/>
     <use xlink:href="#DejaVuSans-43" transform="translate(231.103516 0)"/>
     <use xlink:href="#DejaVuSans-7a" transform="translate(300.927734 0)"/>
     <use xlink:href="#DejaVuSans-2c" transform="translate(353.417969 0)"/>
     <use xlink:href="#DejaVuSans-20" transform="translate(385.205078 0)"/>
     <use xlink:href="#DejaVuSans-43" transform="translate(416.992188 0)"/>
     <use xlink:href="#DejaVuSans-7a" transform="translate(486.816406 0)"/>
     <use xlink:href="#DejaVuSans-2c" transform="translate(539.306641 0)"/>
     <use xlink:href="#DejaVuSans-20" transform="translate(571.09375 0)"/>
     <use xlink:href="#DejaVuSans-43" transform="translate(602.880859 0)"/>
     <use xlink:href="#DejaVuSans-50" transform="translate(672.705078 0)"/>
     <use xlink:href="#DejaVuSans-7a" transform="translate(733.007812 0)"/>
     <use xlink:href="#DejaVuSans-2c" transform="translate(785.498047 0)"/>
     <use xlink:href="#DejaVuSans-20" transform="translate(817.285156 0)"/>
     <use xlink:href="#DejaVuSans-50" transform="translate(849.072266 0)"/>
     <use xlink:href="#DejaVuSans-7a" transform="translate(909.375 0)"/>
     <use xlink:href="#DejaVuSans-20" transform="translate(961.865234 0)"/>
     <use xlink:href="#DejaVuSans-28" transform="translate(993.652344 0)"/>
     <use xlink:href="#DejaVuSans-6d" transform="translate(1032.666016 0)"/>
     <use xlink:href="#DejaVuSans-65" transform="translate(1130.078125 0)"/>
     <use xlink:href="#DejaVuSans-64" transform="translate(1191.601562 0)"/>
     <use xlink:href="#DejaVuSans-69" transform="translate(1255.078125 0)"/>
     <use xlink:href="#DejaVuSans-61" transform="translate(1282.861328 0)"/>
     <use xlink:href="#DejaVuSans-6e" transform="translate(1344.140625 0)"/>
     <use xlink:href="#DejaVuSans-29" transform="translate(1407.519531 0)"/>
    </g>
   </g>
   <g id="legend_1">
    <g id="patch_6">
     <path d="M 54.961178 55.75274 
L 136.103365 55.75274 
Q 138.103365 55.75274 138.103365 53.75274 
L 138.103365 25.118365 
Q 138.103365 23.118365 136.103365 23.118365 
L 54.961178 23.118365 
Q 52.961178 23.118365 52.961178 25.118365 
L 52.961178 53.75274 
Q 52.961178 55.75274 54.961178 55.75274 
z
" style="fill: #ffffff; opacity: 0.8; stroke: #cccccc; stroke-linejoin: miter"/>
    </g>
    <g id="line2d_17">
     <path d="M 56.961178 31.216803 
L 66.961178 31.216803 
L 76.961178 31.216803 
" style="fill: none; stroke: #1f77b4; stroke-width: 1.5; stroke-linecap: square"/>
    </g>
    <g id="text_20">
     <!-- eerie -->
     <g transform="translate(84.961178 34.716803) scale(0.1 -0.1)">
      <defs>
       <path id="DejaVuSans-72" d="M 2631 2963 
Q 2534 3019 2420 3045 
Q 2306 3072 2169 3072 
Q 1681 3072 1420 2755 
Q 1159 2438 1159 1844 
L 1159 0 
L 581 0 
L 581 3500 
L 1159 3500 
L 1159 2956 
Q 1341 3275 1631 3429 
Q 1922 3584 2338 3584 
Q 2397 3584 2469 3576 
Q 2541 3569 2628 3553 
L 2631 2963 
z
" transform="scale(0.015625)"/>
      </defs>
      <use xlink:href="#DejaVuSans-65"/>
      <use xlink:href="#DejaVuSans-65" transform="translate(61.523438 0)"/>
      <use xlink:href="#DejaVuSans-72" transform="translate(123.046875 0)"/>
      <use xlink:href="#DejaVuSans-69" transform="translate(164.160156 0)"/>
      <use xlink:href="#DejaVuSans-65" transform="translate(191.943359 0)"/>
     </g>
    </g>
    <g id="line2d_18">
     <path d="M 56.961178 45.894928 
L 66.961178 45.894928 
L 76.961178 45.894928 
" style="fill: none; stroke: #ff7f0e; stroke-width: 1.5; stroke-linecap: square"/>
    </g>
    <g id="text_21">
     <!-- non_eerie -->
     <g transform="translate(84.961178 49.394928) scale(0.1 -0.1)">
      <defs>
       <path id="DejaVuSans-6f" d="M 1959 3097 
Q 1497 3097 1228 2736 
Q 959 2375 959 1747 
Q 959 1119 1226 758 
Q 1494 397 1959 397 
Q 2419 397 2687 759 
Q 2956 1122 2956 1747 
Q 2956 2369 2687 2733 
Q 2419 3097 1959 3097 
z
M 1959 3584 
Q 2709 3584 3137 3096 
Q 3566 2609 3566 1747 
Q 3566 888 3137 398 
Q 2709 -91 1959 -91 
Q 1206 -91 779 398 
Q 353 888 353 1747 
Q 353 2609 779 3096 
Q 1206 3584 1959 3584 
z
" transform="scale(0.015625)"/>
       <path id="DejaVuSans-5f" d="M 3263 -1063 
L 3263 -1509 
L -63 -1509 
L -63 -1063 
L 3263 -1063 
z
" transform="scale(0.015625)"/>
      </defs>
      <use xlink:href="#DejaVuSans-6e"/>
      <use xlink:href="#DejaVuSans-6f" transform="translate(63.378906 0)"/>
      <use xlink:href="#DejaVuSans-6e" transform="translate(124.560547 0)"/>
      <use xlink:href="#DejaVuSans-5f" transform="translate(187.939453 0)"/>
      <use xlink:href="#DejaVuSans-65" transform="translate(237.939453 0)"/>
      <use xlink:href="#DejaVuSans-65" transform="translate(299.462891 0)"/>
      <use xlink:href="#DejaVuSans-72" transform="translate(360.986328 0)"/>
      <use xlink:href="#DejaVuSans-69" transform="translate(402.099609 0)"/>
      <use xlink:href="#DejaVuSans-65" transform="translate(429.882812 0)"/>
     </g>
    </g>
   </g>
   <g id="FillBetweenPolyCollection_1">
    <defs>
     <path id="mc64f1485b3" d="M 47.961178 -257.70487 
L 47.961178 -238.032564 
L 49.633177 -229.994287 
L 51.305177 -220.235551 
L 52.977176 -212.195833 
L 54.649176 -206.479681 
L 56.321175 -204.474235 
L 57.993175 -203.852812 
L 59.665174 -202.476171 
L 61.337174 -200.628336 
L 63.009173 -198.220435 
L 64.681173 -194.302123 
L 66.353172 -188.758171 
L 68.025172 -182.969807 
L 69.697171 -177.143605 
L 71.369171 -172.666915 
L 73.04117 -171.145678 
L 74.71317 -173.449057 
L 76.385169 -181.118896 
L 78.057169 -191.205334 
L 79.729168 -199.59633 
L 81.401168 -204.050986 
L 83.073167 -204.844335 
L 84.745167 -205.324915 
L 86.417166 -208.086922 
L 88.089166 -214.176884 
L 89.761165 -222.940185 
L 91.433165 -228.636362 
L 93.105164 -229.17949 
L 94.777164 -224.819862 
L 96.449163 -219.888951 
L 98.121163 -218.704056 
L 99.793162 -224.200906 
L 101.465162 -235.532896 
L 103.137161 -248.676471 
L 104.809161 -255.701646 
L 106.48116 -253.514339 
L 108.15316 -245.596378 
L 109.825159 -236.165384 
L 111.497159 -230.77996 
L 113.169158 -229.834476 
L 114.841158 -231.664235 
L 116.513157 -232.02399 
L 118.185157 -230.572235 
L 119.857157 -228.031605 
L 121.529156 -225.145359 
L 123.201156 -224.17583 
L 124.873155 -225.334803 
L 126.545155 -228.071216 
L 128.217154 -230.280495 
L 129.889154 -229.718514 
L 131.561153 -226.82232 
L 133.233153 -222.090737 
L 134.905152 -216.857984 
L 136.577152 -212.511701 
L 138.249151 -209.215356 
L 139.921151 -207.837617 
L 141.59315 -208.956686 
L 143.26515 -212.834447 
L 144.937149 -218.610044 
L 146.609149 -223.836043 
L 148.281148 -228.065253 
L 149.953148 -231.08019 
L 151.625147 -233.741552 
L 153.297147 -236.352798 
L 154.969146 -238.878136 
L 156.641146 -238.941101 
L 158.313145 -237.032377 
L 159.985145 -231.712134 
L 161.657144 -224.172823 
L 163.329144 -218.199598 
L 165.001143 -216.104019 
L 166.673143 -219.52312 
L 168.345142 -224.669012 
L 170.017142 -229.599688 
L 171.689141 -235.239683 
L 173.361141 -238.96376 
L 175.03314 -242.135893 
L 176.70514 -244.35255 
L 178.377139 -243.7576 
L 180.049139 -238.996598 
L 181.721138 -229.523806 
L 183.393138 -217.360078 
L 185.065137 -203.657394 
L 186.737137 -191.704517 
L 188.409137 -183.149465 
L 190.081136 -178.308624 
L 191.753136 -177.151 
L 193.425135 -179.656759 
L 195.097135 -188.037011 
L 196.769134 -201.078849 
L 198.441134 -218.005383 
L 200.113133 -234.577721 
L 201.785133 -246.023971 
L 203.457132 -251.194091 
L 205.129132 -251.535082 
L 206.801131 -253.374579 
L 208.473131 -259.177404 
L 210.14513 -269.886555 
L 211.81713 -283.816099 
L 213.489129 -297.164694 
L 215.161129 -307.228797 
L 216.833128 -313.584581 
L 218.505128 -318.732948 
L 220.177127 -324.739042 
L 221.849127 -333.41094 
L 223.521126 -343.479936 
L 225.193126 -351.879429 
L 226.865125 -357.693985 
L 228.537125 -360.285073 
L 230.209124 -359.330238 
L 231.881124 -355.134314 
L 233.553123 -349.439114 
L 235.225123 -345.963559 
L 236.897122 -343.73712 
L 238.569122 -344.460249 
L 240.241121 -347.042892 
L 241.913121 -349.259417 
L 243.58512 -350.698895 
L 245.25712 -349.53102 
L 246.929119 -344.383681 
L 248.601119 -337.697378 
L 250.273118 -331.936594 
L 251.945118 -328.569723 
L 253.617117 -326.80724 
L 255.289117 -325.608249 
L 256.961116 -324.830624 
L 258.633116 -325.219611 
L 260.305116 -326.911783 
L 261.977115 -330.027081 
L 263.649115 -335.198045 
L 265.321114 -340.741975 
L 266.993114 -345.977608 
L 268.665113 -349.728 
L 270.337113 -351.553805 
L 272.009112 -352.424549 
L 273.681112 -352.037723 
L 275.353111 -352.706115 
L 277.025111 -354.550846 
L 278.69711 -357.27476 
L 280.36911 -360.623064 
L 282.041109 -361.83046 
L 283.713109 -361.980694 
L 285.385108 -360.877954 
L 287.057108 -358.264687 
L 288.729107 -352.873006 
L 290.401107 -343.853569 
L 292.073106 -330.939762 
L 293.745106 -315.125689 
L 295.417105 -300.272462 
L 297.089105 -288.963055 
L 298.761104 -281.499141 
L 300.433104 -277.274295 
L 302.105103 -272.778891 
L 303.777103 -266.833656 
L 305.449102 -258.987344 
L 307.121102 -248.692164 
L 308.793101 -238.630048 
L 310.465101 -230.319101 
L 312.1371 -222.939672 
L 313.8091 -216.617172 
L 315.481099 -210.777804 
L 317.153099 -207.693753 
L 318.825098 -207.885586 
L 320.497098 -213.849288 
L 322.169097 -224.31161 
L 323.841097 -237.665026 
L 325.513096 -250.366524 
L 327.185096 -259.889078 
L 328.857096 -265.065835 
L 330.529095 -266.919013 
L 332.201095 -269.185188 
L 333.873094 -274.45548 
L 335.545094 -283.516084 
L 337.217093 -296.072307 
L 338.889093 -309.654119 
L 340.561092 -323.653009 
L 342.233092 -337.256906 
L 343.905091 -349.699288 
L 345.577091 -361.412265 
L 347.24909 -369.983882 
L 348.92109 -374.917746 
L 350.593089 -375.80036 
L 352.265089 -374.878991 
L 353.937088 -375.32194 
L 355.609088 -377.73781 
L 357.281087 -381.484333 
L 358.953087 -384.001575 
L 360.625086 -382.142366 
L 362.297086 -376.89472 
L 363.969085 -368.959696 
L 365.641085 -361.658741 
L 367.313084 -356.818416 
L 368.985084 -357.309801 
L 370.657083 -360.336669 
L 372.329083 -362.448069 
L 374.001082 -360.891039 
L 375.673082 -356.988586 
L 377.345081 -353.745447 
L 379.017081 -352.293368 
L 380.68908 -353.865845 
L 382.36108 -354.944648 
L 384.033079 -352.23267 
L 385.705079 -345.58513 
L 387.377078 -336.068491 
L 389.049078 -325.79563 
L 390.721077 -320.031534 
L 392.393077 -319.697777 
L 394.065076 -323.356766 
L 395.737076 -327.733384 
L 397.409076 -331.061167 
L 399.081075 -333.38201 
L 400.753075 -334.932113 
L 402.425074 -336.667544 
L 404.097074 -339.154885 
L 405.769073 -342.060215 
L 407.441073 -343.895164 
L 409.113072 -343.040071 
L 410.785072 -338.624611 
L 412.457071 -331.368481 
L 414.129071 -322.943669 
L 415.80107 -315.599869 
L 417.47307 -310.653053 
L 419.145069 -309.818612 
L 420.817069 -310.058414 
L 422.489068 -310.031618 
L 424.161068 -308.313117 
L 425.833067 -304.218394 
L 427.505067 -297.60862 
L 429.177066 -289.350325 
L 430.849066 -282.565381 
L 432.521065 -279.023713 
L 434.193065 -278.871675 
L 435.865064 -281.44152 
L 437.537064 -283.132416 
L 439.209063 -281.323309 
L 440.881063 -275.532269 
L 442.553062 -266.96499 
L 444.225062 -258.503471 
L 445.897061 -252.438791 
L 447.569061 -250.158336 
L 449.24106 -250.608309 
L 450.91306 -251.46638 
L 452.585059 -251.68733 
L 454.257059 -251.259385 
L 455.929058 -249.976384 
L 457.601058 -249.581496 
L 459.273057 -249.631325 
L 460.945057 -250.426624 
L 462.617056 -249.341534 
L 464.289056 -245.085306 
L 465.961055 -238.268737 
L 467.633055 -230.669594 
L 469.305055 -225.83563 
L 470.977054 -225.333027 
L 472.649054 -228.20679 
L 474.321053 -232.018237 
L 475.993053 -233.278647 
L 477.665052 -232.235988 
L 479.337052 -229.569686 
L 481.009051 -226.04159 
L 482.681051 -223.709524 
L 484.35305 -223.542735 
L 486.02505 -224.367331 
L 487.697049 -225.178643 
L 489.369049 -224.232592 
L 491.041048 -222.621153 
L 492.713048 -221.240671 
L 494.385047 -222.773326 
L 496.057047 -225.503179 
L 497.729046 -229.349935 
L 499.401046 -232.100981 
L 501.073045 -232.655305 
L 502.745045 -229.857539 
L 504.417044 -226.167812 
L 506.089044 -223.508897 
L 507.761043 -222.969622 
L 509.433043 -225.547841 
L 511.105042 -229.535352 
L 512.777042 -232.525838 
L 514.449041 -232.283058 
L 516.121041 -229.95336 
L 517.79304 -226.395614 
L 519.46504 -222.783245 
L 521.137039 -220.492275 
L 522.809039 -218.929344 
L 524.481038 -216.702786 
L 526.153038 -214.616139 
L 527.825037 -212.557914 
L 529.497037 -212.225168 
L 531.169036 -212.952425 
L 532.841036 -215.997125 
L 534.513035 -219.651843 
L 536.185035 -223.563088 
L 537.857035 -226.215129 
L 539.529034 -227.550442 
L 541.201034 -226.816489 
L 542.873033 -224.260531 
L 544.545033 -220.222418 
L 546.217032 -216.747663 
L 547.889032 -215.585333 
L 549.561031 -216.533517 
L 551.233031 -219.552107 
L 552.90503 -221.931973 
L 554.57703 -222.071632 
L 556.249029 -218.486495 
L 557.921029 -211.378777 
L 559.593028 -204.221888 
L 561.265028 -200.161418 
L 561.265028 -227.777142 
L 561.265028 -227.777142 
L 559.593028 -232.12227 
L 557.921029 -239.450998 
L 556.249029 -246.180126 
L 554.57703 -250.247847 
L 552.90503 -250.536474 
L 551.233031 -248.778351 
L 549.561031 -247.102106 
L 547.889032 -247.158505 
L 546.217032 -249.440781 
L 544.545033 -252.641867 
L 542.873033 -255.580085 
L 541.201034 -256.823523 
L 539.529034 -256.967263 
L 537.857035 -254.932737 
L 536.185035 -251.629661 
L 534.513035 -247.360262 
L 532.841036 -242.766556 
L 531.169036 -239.385143 
L 529.497037 -238.292052 
L 527.825037 -238.904504 
L 526.153038 -241.052073 
L 524.481038 -243.382038 
L 522.809039 -245.998411 
L 521.137039 -247.209341 
L 519.46504 -249.1993 
L 517.79304 -252.740086 
L 516.121041 -257.021351 
L 514.449041 -259.996309 
L 512.777042 -260.443774 
L 511.105042 -257.938013 
L 509.433043 -254.430527 
L 507.761043 -251.518434 
L 506.089044 -251.016492 
L 504.417044 -253.255563 
L 502.745045 -257.777386 
L 501.073045 -261.160152 
L 499.401046 -260.655087 
L 497.729046 -257.886359 
L 496.057047 -253.012835 
L 494.385047 -249.891264 
L 492.713048 -248.512774 
L 491.041048 -248.91865 
L 489.369049 -250.571736 
L 487.697049 -251.29436 
L 486.02505 -250.950056 
L 484.35305 -250.135144 
L 482.681051 -250.052641 
L 481.009051 -252.829665 
L 479.337052 -256.216353 
L 477.665052 -257.752069 
L 475.993053 -256.861131 
L 474.321053 -253.800653 
L 472.649054 -249.757655 
L 470.977054 -247.469877 
L 469.305055 -247.911179 
L 467.633055 -253.064349 
L 465.961055 -260.86066 
L 464.289056 -267.355847 
L 462.617056 -271.264233 
L 460.945057 -272.085139 
L 459.273057 -271.302951 
L 457.601058 -271.727039 
L 455.929058 -272.202413 
L 454.257059 -272.816884 
L 452.585059 -272.581584 
L 450.91306 -272.094036 
L 449.24106 -271.431823 
L 447.569061 -271.360292 
L 445.897061 -273.766297 
L 444.225062 -279.902525 
L 442.553062 -288.519311 
L 440.881063 -297.380107 
L 439.209063 -303.095239 
L 437.537064 -304.781056 
L 435.865064 -302.948622 
L 434.193065 -300.659721 
L 432.521065 -301.163379 
L 430.849066 -304.589925 
L 429.177066 -310.727994 
L 427.505067 -318.829777 
L 425.833067 -325.883142 
L 424.161068 -330.261843 
L 422.489068 -332.071524 
L 420.817069 -331.781289 
L 419.145069 -332.156949 
L 417.47307 -333.392011 
L 415.80107 -337.817354 
L 414.129071 -345.533667 
L 412.457071 -354.143857 
L 410.785072 -361.799391 
L 409.113072 -366.094774 
L 407.441073 -366.450995 
L 405.769073 -364.679957 
L 404.097074 -360.909454 
L 402.425074 -358.421932 
L 400.753075 -356.838135 
L 399.081075 -356.119503 
L 397.409076 -354.01259 
L 395.737076 -350.651288 
L 394.065076 -346.840473 
L 392.393077 -344.170133 
L 390.721077 -344.766832 
L 389.049078 -350.536815 
L 387.377078 -360.729072 
L 385.705079 -370.406221 
L 384.033079 -377.2749 
L 382.36108 -379.799604 
L 380.68908 -378.722405 
L 379.017081 -377.053315 
L 377.345081 -377.408548 
L 375.673082 -380.222193 
L 374.001082 -383.882776 
L 372.329083 -385.718396 
L 370.657083 -384.962467 
L 368.985084 -383.34617 
L 367.313084 -384.248995 
L 365.641085 -389.778433 
L 363.969085 -397.776675 
L 362.297086 -406.185321 
L 360.625086 -412.095609 
L 358.953087 -413.881635 
L 357.281087 -411.6721 
L 355.609088 -408.398352 
L 353.937088 -407.35049 
L 352.265089 -408.328941 
L 350.593089 -410.268535 
L 348.92109 -409.684128 
L 347.24909 -404.139103 
L 345.577091 -394.225645 
L 343.905091 -381.146642 
L 342.233092 -366.831237 
L 340.561092 -352.446773 
L 338.889093 -338.647516 
L 337.217093 -324.724937 
L 335.545094 -311.945188 
L 333.873094 -301.820333 
L 332.201095 -295.636475 
L 330.529095 -292.143351 
L 328.857096 -289.3532 
L 327.185096 -283.548637 
L 325.513096 -273.758618 
L 323.841097 -260.769284 
L 322.169097 -247.229379 
L 320.497098 -236.697007 
L 318.825098 -231.416317 
L 317.153099 -231.562627 
L 315.481099 -234.79683 
L 313.8091 -240.907685 
L 312.1371 -247.021447 
L 310.465101 -254.155552 
L 308.793101 -261.679382 
L 307.121102 -272.173157 
L 305.449102 -282.347494 
L 303.777103 -291.082321 
L 302.105103 -297.34289 
L 300.433104 -301.050554 
L 298.761104 -305.42113 
L 297.089105 -312.788172 
L 295.417105 -324.667935 
L 293.745106 -340.489325 
L 292.073106 -357.172561 
L 290.401107 -370.967666 
L 288.729107 -380.348362 
L 287.057108 -385.840931 
L 285.385108 -387.663122 
L 283.713109 -388.054525 
L 282.041109 -387.59974 
L 280.36911 -385.436783 
L 278.69711 -381.825782 
L 277.025111 -378.607456 
L 275.353111 -375.709675 
L 273.681112 -374.332677 
L 272.009112 -373.956394 
L 270.337113 -372.866046 
L 268.665113 -371.573518 
L 266.993114 -367.892592 
L 265.321114 -362.938038 
L 263.649115 -357.258573 
L 261.977115 -352.292356 
L 260.305116 -348.885309 
L 258.633116 -347.164801 
L 256.961116 -346.51861 
L 255.289117 -348.08604 
L 253.617117 -350.871606 
L 251.945118 -353.915042 
L 250.273118 -358.24422 
L 248.601119 -363.565667 
L 246.929119 -368.076154 
L 245.25712 -371.366664 
L 243.58512 -372.502068 
L 241.913121 -371.689462 
L 240.241121 -369.248519 
L 238.569122 -366.886205 
L 236.897122 -367.00066 
L 235.225123 -369.9929 
L 233.553123 -374.517992 
L 231.881124 -380.959846 
L 230.209124 -385.44704 
L 228.537125 -387.017187 
L 226.865125 -384.368493 
L 225.193126 -377.706394 
L 223.521126 -368.069945 
L 221.849127 -357.800595 
L 220.177127 -349.269111 
L 218.505128 -344.321861 
L 216.833128 -340.267443 
L 215.161129 -334.792405 
L 213.489129 -325.355979 
L 211.81713 -311.592323 
L 210.14513 -298.00022 
L 208.473131 -287.033315 
L 206.801131 -281.538791 
L 205.129132 -280.772247 
L 203.457132 -280.250602 
L 201.785133 -275.115547 
L 200.113133 -263.358719 
L 198.441134 -246.942019 
L 196.769134 -229.077374 
L 195.097135 -214.785565 
L 193.425135 -205.922656 
L 191.753136 -202.591718 
L 190.081136 -203.255771 
L 188.409137 -207.469458 
L 186.737137 -215.466553 
L 185.065137 -227.88366 
L 183.393138 -241.374542 
L 181.721138 -254.886036 
L 180.049139 -265.654844 
L 178.377139 -270.917396 
L 176.70514 -271.595525 
L 175.03314 -268.982191 
L 173.361141 -265.436371 
L 171.689141 -260.614539 
L 170.017142 -254.256136 
L 168.345142 -248.739206 
L 166.673143 -242.900038 
L 165.001143 -239.651548 
L 163.329144 -241.339941 
L 161.657144 -246.675984 
L 159.985145 -254.701857 
L 158.313145 -260.719185 
L 156.641146 -263.277849 
L 154.969146 -262.72197 
L 153.297147 -259.857801 
L 151.625147 -256.234986 
L 149.953148 -253.431329 
L 148.281148 -250.106665 
L 146.609149 -246.245456 
L 144.937149 -240.986946 
L 143.26515 -235.443826 
L 141.59315 -231.955147 
L 139.921151 -230.552132 
L 138.249151 -231.678181 
L 136.577152 -234.666012 
L 134.905152 -238.036821 
L 133.233153 -242.965672 
L 131.561153 -246.78608 
L 129.889154 -248.991633 
L 128.217154 -247.817316 
L 126.545155 -244.155033 
L 124.873155 -240.574758 
L 123.201156 -239.575252 
L 121.529156 -241.419773 
L 119.857157 -244.971774 
L 118.185157 -248.528495 
L 116.513157 -249.776701 
L 114.841158 -247.934871 
L 113.169158 -245.172129 
L 111.497159 -245.146523 
L 109.825159 -249.574611 
L 108.15316 -258.275047 
L 106.48116 -265.780886 
L 104.809161 -267.907862 
L 103.137161 -262.386071 
L 101.465162 -251.360991 
L 99.793162 -241.237144 
L 98.121163 -235.696436 
L 96.449163 -236.671701 
L 94.777164 -241.982834 
L 93.105164 -247.295467 
L 91.433165 -248.004757 
L 89.761165 -243.158869 
L 88.089166 -234.28271 
L 86.417166 -226.005869 
L 84.745167 -221.135687 
L 83.073167 -219.278214 
L 81.401168 -218.575553 
L 79.729168 -214.013117 
L 78.057169 -205.752692 
L 76.385169 -195.871314 
L 74.71317 -188.425281 
L 73.04117 -186.139666 
L 71.369171 -187.889214 
L 69.697171 -192.38631 
L 68.025172 -198.960119 
L 66.353172 -204.642628 
L 64.681173 -210.130046 
L 63.009173 -214.365997 
L 61.337174 -217.672244 
L 59.665174 -219.747917 
L 57.993175 -221.522362 
L 56.321175 -222.029088 
L 54.649176 -224.313872 
L 52.977176 -229.838852 
L 51.305177 -238.430932 
L 49.633177 -248.971206 
L 47.961178 -257.70487 
z
" style="stroke: #1f77b4; stroke-opacity: 0.3"/>
    </defs>
    <g>
     <use xlink:href="#mc64f1485b3" x="0" y="432" style="fill: #1f77b4; fill-opacity: 0.3; stroke: #1f77b4; stroke-opacity: 0.3"/>
    </g>
   </g>
   <g id="FillBetweenPolyCollection_2">
    <defs>
     <path id="mf0be5879e0" d="M 47.961178 -231.707397 
L 47.961178 -228.137218 
L 49.633177 -228.923932 
L 51.305177 -229.45261 
L 52.977176 -229.893156 
L 54.649176 -230.510439 
L 56.321175 -230.961139 
L 57.993175 -231.053163 
L 59.665174 -230.554399 
L 61.337174 -229.457179 
L 63.009173 -228.098486 
L 64.681173 -226.942407 
L 66.353172 -226.283774 
L 68.025172 -226.172615 
L 69.697171 -225.915733 
L 71.369171 -225.061792 
L 73.04117 -223.198442 
L 74.71317 -220.728896 
L 76.385169 -218.612214 
L 78.057169 -217.690196 
L 79.729168 -218.285758 
L 81.401168 -220.425502 
L 83.073167 -223.412459 
L 84.745167 -226.165821 
L 86.417166 -227.872475 
L 88.089166 -228.757936 
L 89.761165 -229.070392 
L 91.433165 -228.993973 
L 93.105164 -228.61966 
L 94.777164 -227.916291 
L 96.449163 -226.814685 
L 98.121163 -225.366899 
L 99.793162 -224.063012 
L 101.465162 -223.337419 
L 103.137161 -223.224827 
L 104.809161 -223.01627 
L 106.48116 -221.967714 
L 108.15316 -219.597876 
L 109.825159 -216.6686 
L 111.497159 -214.503684 
L 113.169158 -213.845612 
L 114.841158 -214.846936 
L 116.513157 -216.785979 
L 118.185157 -218.068515 
L 119.857157 -217.885597 
L 121.529156 -216.000544 
L 123.201156 -213.103841 
L 124.873155 -210.447874 
L 126.545155 -208.897203 
L 128.217154 -208.42538 
L 129.889154 -208.575195 
L 131.561153 -208.813565 
L 133.233153 -208.777411 
L 134.905152 -208.658066 
L 136.577152 -208.868051 
L 138.249151 -209.551829 
L 139.921151 -210.321128 
L 141.59315 -210.257067 
L 143.26515 -209.119398 
L 144.937149 -206.557872 
L 146.609149 -203.303112 
L 148.281148 -200.441267 
L 149.953148 -198.619002 
L 151.625147 -198.256823 
L 153.297147 -199.160182 
L 154.969146 -200.399349 
L 156.641146 -201.617912 
L 158.313145 -202.601925 
L 159.985145 -203.864522 
L 161.657144 -205.658423 
L 163.329144 -208.173194 
L 165.001143 -211.46721 
L 166.673143 -214.716378 
L 168.345142 -217.702144 
L 170.017142 -219.85446 
L 171.689141 -220.811888 
L 173.361141 -220.636671 
L 175.03314 -218.88927 
L 176.70514 -215.072396 
L 178.377139 -208.693337 
L 180.049139 -199.798908 
L 181.721138 -188.815419 
L 183.393138 -176.853058 
L 185.065137 -165.591358 
L 186.737137 -156.249553 
L 188.409137 -150.258997 
L 190.081136 -147.807006 
L 191.753136 -148.773293 
L 193.425135 -152.65008 
L 195.097135 -159.580629 
L 196.769134 -169.737845 
L 198.441134 -182.626594 
L 200.113133 -197.944075 
L 201.785133 -214.967936 
L 203.457132 -232.042023 
L 205.129132 -248.187621 
L 206.801131 -262.978785 
L 208.473131 -276.864705 
L 210.14513 -290.096784 
L 211.81713 -302.668251 
L 213.489129 -313.766218 
L 215.161129 -322.055642 
L 216.833128 -326.60248 
L 218.505128 -327.405435 
L 220.177127 -325.87103 
L 221.849127 -323.705202 
L 223.521126 -322.041834 
L 225.193126 -321.415417 
L 226.865125 -321.688028 
L 228.537125 -321.707502 
L 230.209124 -320.774855 
L 231.881124 -318.678279 
L 233.553123 -316.580037 
L 235.225123 -314.392619 
L 236.897122 -311.939073 
L 238.569122 -308.929685 
L 240.241121 -305.674997 
L 241.913121 -303.093757 
L 243.58512 -302.164004 
L 245.25712 -303.196596 
L 246.929119 -305.407496 
L 248.601119 -307.600472 
L 250.273118 -309.027061 
L 251.945118 -309.281436 
L 253.617117 -309.136131 
L 255.289117 -309.878282 
L 256.961116 -312.098136 
L 258.633116 -315.320751 
L 260.305116 -318.988539 
L 261.977115 -322.841888 
L 263.649115 -327.272232 
L 265.321114 -332.48617 
L 266.993114 -338.565915 
L 268.665113 -344.484528 
L 270.337113 -349.066188 
L 272.009112 -350.878614 
L 273.681112 -349.851237 
L 275.353111 -346.989167 
L 277.025111 -343.463227 
L 278.69711 -340.042427 
L 280.36911 -336.038084 
L 282.041109 -330.729642 
L 283.713109 -323.816159 
L 285.385108 -315.720654 
L 287.057108 -308.044894 
L 288.729107 -302.122099 
L 290.401107 -298.443302 
L 292.073106 -296.080702 
L 293.745106 -293.926201 
L 295.417105 -290.891219 
L 297.089105 -286.61695 
L 298.761104 -281.232965 
L 300.433104 -275.211028 
L 302.105103 -268.457066 
L 303.777103 -260.827981 
L 305.449102 -251.977849 
L 307.121102 -242.669674 
L 308.793101 -234.042825 
L 310.465101 -226.724093 
L 312.1371 -220.795249 
L 313.8091 -215.894827 
L 315.481099 -211.104108 
L 317.153099 -206.036567 
L 318.825098 -200.887513 
L 320.497098 -196.498104 
L 322.169097 -193.793643 
L 323.841097 -193.222481 
L 325.513096 -195.170406 
L 327.185096 -199.062874 
L 328.857096 -204.380315 
L 330.529095 -209.916194 
L 332.201095 -214.907431 
L 333.873094 -218.947002 
L 335.545094 -222.176478 
L 337.217093 -224.887966 
L 338.889093 -227.818697 
L 340.561092 -231.668663 
L 342.233092 -236.518232 
L 343.905091 -241.910849 
L 345.577091 -247.027418 
L 347.24909 -251.138461 
L 348.92109 -253.606539 
L 350.593089 -254.593752 
L 352.265089 -254.703837 
L 353.937088 -254.68586 
L 355.609088 -254.868476 
L 357.281087 -255.621286 
L 358.953087 -256.87412 
L 360.625086 -258.379771 
L 362.297086 -259.417047 
L 363.969085 -259.421404 
L 365.641085 -258.002125 
L 367.313084 -255.583173 
L 368.985084 -252.882989 
L 370.657083 -251.023019 
L 372.329083 -250.517776 
L 374.001082 -251.408392 
L 375.673082 -252.602719 
L 377.345081 -252.994723 
L 379.017081 -251.973108 
L 380.68908 -250.074753 
L 382.36108 -248.673004 
L 384.033079 -249.068716 
L 385.705079 -251.437115 
L 387.377078 -254.762583 
L 389.049078 -257.203882 
L 390.721077 -257.64605 
L 392.393077 -256.400473 
L 394.065076 -254.982013 
L 395.737076 -255.114019 
L 397.409076 -257.870082 
L 399.081075 -262.692483 
L 400.753075 -267.900765 
L 402.425074 -271.701231 
L 404.097074 -272.896556 
L 405.769073 -271.641448 
L 407.441073 -269.206376 
L 409.113072 -266.927813 
L 410.785072 -265.465936 
L 412.457071 -265.25016 
L 414.129071 -265.672282 
L 415.80107 -266.168347 
L 417.47307 -266.289406 
L 419.145069 -266.08394 
L 420.817069 -265.544705 
L 422.489068 -264.86996 
L 424.161068 -264.122133 
L 425.833067 -263.402283 
L 427.505067 -263.186762 
L 429.177066 -263.188199 
L 430.849066 -263.127575 
L 432.521065 -262.872812 
L 434.193065 -261.967896 
L 435.865064 -260.647199 
L 437.537064 -259.356917 
L 439.209063 -258.474986 
L 440.881063 -258.038415 
L 442.553062 -258.036785 
L 444.225062 -257.803533 
L 445.897061 -257.170999 
L 447.569061 -256.372261 
L 449.24106 -255.927043 
L 450.91306 -255.958725 
L 452.585059 -256.388228 
L 454.257059 -256.774865 
L 455.929058 -256.629346 
L 457.601058 -255.959556 
L 459.273057 -255.39155 
L 460.945057 -255.858683 
L 462.617056 -257.638279 
L 464.289056 -260.377301 
L 465.961055 -262.717519 
L 467.633055 -263.259183 
L 469.305055 -261.534516 
L 470.977054 -258.147053 
L 472.649054 -254.732473 
L 474.321053 -252.874587 
L 475.993053 -253.244311 
L 477.665052 -255.081704 
L 479.337052 -256.837481 
L 481.009051 -257.056666 
L 482.681051 -255.36794 
L 484.35305 -252.647983 
L 486.02505 -250.532145 
L 487.697049 -250.03571 
L 489.369049 -251.01737 
L 491.041048 -252.776678 
L 492.713048 -254.447915 
L 494.385047 -255.190802 
L 496.057047 -254.881536 
L 497.729046 -254.350332 
L 499.401046 -254.148644 
L 501.073045 -254.785504 
L 502.745045 -255.95736 
L 504.417044 -257.186977 
L 506.089044 -258.041133 
L 507.761043 -258.249806 
L 509.433043 -257.975272 
L 511.105042 -257.636802 
L 512.777042 -257.77455 
L 514.449041 -258.308786 
L 516.121041 -259.462219 
L 517.79304 -260.808744 
L 519.46504 -261.880977 
L 521.137039 -262.181386 
L 522.809039 -261.627036 
L 524.481038 -260.599293 
L 526.153038 -259.128971 
L 527.825037 -257.557813 
L 529.497037 -256.372787 
L 531.169036 -255.494434 
L 532.841036 -254.693713 
L 534.513035 -253.670434 
L 536.185035 -252.601687 
L 537.857035 -251.744702 
L 539.529034 -251.196255 
L 541.201034 -250.690014 
L 542.873033 -249.501636 
L 544.545033 -246.962717 
L 546.217032 -243.111149 
L 547.889032 -238.363772 
L 549.561031 -233.740202 
L 551.233031 -229.972095 
L 552.90503 -227.619995 
L 554.57703 -226.733876 
L 556.249029 -226.692745 
L 557.921029 -226.94521 
L 559.593028 -226.869128 
L 561.265028 -226.20822 
L 561.265028 -231.225283 
L 561.265028 -231.225283 
L 559.593028 -231.871523 
L 557.921029 -231.923095 
L 556.249029 -231.683092 
L 554.57703 -231.629661 
L 552.90503 -232.525187 
L 551.233031 -234.915413 
L 549.561031 -238.77151 
L 547.889032 -243.553021 
L 546.217032 -248.338453 
L 544.545033 -252.241402 
L 542.873033 -254.696549 
L 541.201034 -255.820105 
L 539.529034 -256.337381 
L 537.857035 -256.952288 
L 536.185035 -257.810865 
L 534.513035 -258.785697 
L 532.841036 -259.78451 
L 531.169036 -260.714632 
L 529.497037 -261.584283 
L 527.825037 -262.769505 
L 526.153038 -264.284065 
L 524.481038 -265.791546 
L 522.809039 -266.908021 
L 521.137039 -267.42554 
L 519.46504 -266.950711 
L 517.79304 -265.902295 
L 516.121041 -264.580447 
L 514.449041 -263.537855 
L 512.777042 -262.956884 
L 511.105042 -262.871699 
L 509.433043 -263.186426 
L 507.761043 -263.495709 
L 506.089044 -263.276765 
L 504.417044 -262.406841 
L 502.745045 -261.071809 
L 501.073045 -259.91715 
L 499.401046 -259.341322 
L 497.729046 -259.472287 
L 496.057047 -260.099321 
L 494.385047 -260.406651 
L 492.713048 -259.68245 
L 491.041048 -258.008642 
L 489.369049 -256.119423 
L 487.697049 -254.994418 
L 486.02505 -255.470365 
L 484.35305 -257.566365 
L 482.681051 -260.247034 
L 481.009051 -262.012708 
L 479.337052 -261.96763 
L 477.665052 -260.353335 
L 475.993053 -258.549107 
L 474.321053 -258.278699 
L 472.649054 -260.190581 
L 470.977054 -263.638406 
L 469.305055 -267.071152 
L 467.633055 -268.809276 
L 465.961055 -268.175289 
L 464.289056 -265.765246 
L 462.617056 -262.968028 
L 460.945057 -261.041084 
L 459.273057 -260.460039 
L 457.601058 -260.953276 
L 455.929058 -261.67493 
L 454.257059 -261.878698 
L 452.585059 -261.541357 
L 450.91306 -261.083114 
L 449.24106 -260.96104 
L 447.569061 -261.516465 
L 445.897061 -262.333546 
L 444.225062 -262.978221 
L 442.553062 -263.258092 
L 440.881063 -263.390475 
L 439.209063 -263.844306 
L 437.537064 -264.801414 
L 435.865064 -266.141529 
L 434.193065 -267.457699 
L 432.521065 -268.378452 
L 430.849066 -268.696866 
L 429.177066 -268.732588 
L 427.505067 -268.739322 
L 425.833067 -268.93153 
L 424.161068 -269.751464 
L 422.489068 -270.615509 
L 420.817069 -271.461482 
L 419.145069 -271.973403 
L 417.47307 -272.183183 
L 415.80107 -272.057404 
L 414.129071 -271.556601 
L 412.457071 -271.090411 
L 410.785072 -271.135126 
L 409.113072 -272.429252 
L 407.441073 -274.744848 
L 405.769073 -277.214458 
L 404.097074 -278.433974 
L 402.425074 -277.150697 
L 400.753075 -273.338179 
L 399.081075 -268.012233 
L 397.409076 -263.145524 
L 395.737076 -260.363765 
L 394.065076 -260.261528 
L 392.393077 -261.727629 
L 390.721077 -262.963727 
L 389.049078 -262.59759 
L 387.377078 -260.169571 
L 385.705079 -256.966478 
L 384.033079 -254.518567 
L 382.36108 -254.093573 
L 380.68908 -255.381628 
L 379.017081 -257.291383 
L 377.345081 -258.35287 
L 375.673082 -258.095924 
L 374.001082 -256.966137 
L 372.329083 -256.177574 
L 370.657083 -256.621698 
L 368.985084 -258.53272 
L 367.313084 -261.16377 
L 365.641085 -263.478304 
L 363.969085 -264.862154 
L 362.297086 -264.923975 
L 360.625086 -263.878699 
L 358.953087 -262.455063 
L 357.281087 -261.250693 
L 355.609088 -260.540499 
L 353.937088 -260.329911 
L 352.265089 -260.330691 
L 350.593089 -260.085469 
L 348.92109 -259.122843 
L 347.24909 -256.753755 
L 345.577091 -252.717941 
L 343.905091 -247.629593 
L 342.233092 -242.153146 
L 340.561092 -237.191585 
L 338.889093 -233.245983 
L 337.217093 -230.200603 
L 335.545094 -227.313643 
L 333.873094 -224.045876 
L 332.201095 -220.065595 
L 330.529095 -215.060733 
L 328.857096 -209.392222 
L 327.185096 -204.208826 
L 325.513096 -200.344832 
L 323.841097 -198.437811 
L 322.169097 -199.011572 
L 320.497098 -201.619172 
L 318.825098 -205.905756 
L 317.153099 -211.028513 
L 315.481099 -216.112904 
L 313.8091 -220.86187 
L 312.1371 -225.728002 
L 310.465101 -231.702431 
L 308.793101 -239.154489 
L 307.121102 -247.919705 
L 305.449102 -257.162046 
L 303.777103 -265.866181 
L 302.105103 -273.44023 
L 300.433104 -280.019858 
L 298.761104 -285.969503 
L 297.089105 -291.35302 
L 295.417105 -295.646285 
L 293.745106 -298.801199 
L 292.073106 -301.191901 
L 290.401107 -303.529895 
L 288.729107 -307.268148 
L 287.057108 -313.174392 
L 285.385108 -320.789383 
L 283.713109 -328.82798 
L 282.041109 -335.871745 
L 280.36911 -341.108146 
L 278.69711 -345.112016 
L 277.025111 -348.622617 
L 275.353111 -352.110813 
L 273.681112 -354.82314 
L 272.009112 -355.883633 
L 270.337113 -354.062837 
L 268.665113 -349.5164 
L 266.993114 -343.585691 
L 265.321114 -337.399462 
L 263.649115 -332.134037 
L 261.977115 -327.726993 
L 260.305116 -323.853417 
L 258.633116 -320.175979 
L 256.961116 -316.953874 
L 255.289117 -314.730603 
L 253.617117 -314.012364 
L 251.945118 -314.158639 
L 250.273118 -313.981487 
L 248.601119 -312.639804 
L 246.929119 -310.471568 
L 245.25712 -308.266358 
L 243.58512 -307.096432 
L 241.913121 -308.003471 
L 240.241121 -310.56411 
L 238.569122 -313.841706 
L 236.897122 -316.990895 
L 235.225123 -319.61236 
L 233.553123 -321.813354 
L 231.881124 -323.933337 
L 230.209124 -325.948529 
L 228.537125 -326.862499 
L 226.865125 -326.865469 
L 225.193126 -326.525498 
L 223.521126 -327.08549 
L 221.849127 -328.691289 
L 220.177127 -330.891447 
L 218.505128 -332.485178 
L 216.833128 -331.750548 
L 215.161129 -327.362876 
L 213.489129 -319.12823 
L 211.81713 -308.04931 
L 210.14513 -295.463676 
L 208.473131 -282.052707 
L 206.801131 -268.115708 
L 205.129132 -253.348993 
L 203.457132 -237.329533 
L 201.785133 -220.279517 
L 200.113133 -203.313312 
L 198.441134 -187.812803 
L 196.769134 -174.893977 
L 195.097135 -164.733592 
L 193.425135 -157.673326 
L 191.753136 -153.70709 
L 190.081136 -152.660207 
L 188.409137 -155.091473 
L 186.737137 -161.11674 
L 185.065137 -170.402045 
L 183.393138 -181.847407 
L 181.721138 -193.702087 
L 180.049139 -204.625598 
L 178.377139 -213.468013 
L 176.70514 -219.759923 
L 175.03314 -223.378041 
L 173.361141 -225.171384 
L 171.689141 -225.32592 
L 170.017142 -224.232121 
L 168.345142 -222.100615 
L 166.673143 -219.098656 
L 165.001143 -215.773357 
L 163.329144 -212.413641 
L 161.657144 -209.799735 
L 159.985145 -207.951785 
L 158.313145 -206.732556 
L 156.641146 -205.880873 
L 154.969146 -204.742409 
L 153.297147 -203.589454 
L 151.625147 -202.769688 
L 149.953148 -203.020575 
L 148.281148 -204.659022 
L 146.609149 -207.538913 
L 144.937149 -210.806237 
L 143.26515 -213.389013 
L 141.59315 -214.517708 
L 139.921151 -214.466225 
L 138.249151 -213.688673 
L 136.577152 -213.054105 
L 134.905152 -212.830804 
L 133.233153 -212.991447 
L 131.561153 -212.97659 
L 129.889154 -212.540719 
L 128.217154 -212.199147 
L 126.545155 -212.440554 
L 124.873155 -213.875552 
L 123.201156 -216.478452 
L 121.529156 -219.323351 
L 119.857157 -221.148364 
L 118.185157 -221.309323 
L 116.513157 -219.965577 
L 114.841158 -218.035276 
L 113.169158 -216.918987 
L 111.497159 -217.560286 
L 109.825159 -219.722242 
L 108.15316 -222.589836 
L 106.48116 -224.94339 
L 104.809161 -226.047219 
L 103.137161 -226.218468 
L 101.465162 -226.291869 
L 99.793162 -227.008064 
L 98.121163 -228.299713 
L 96.449163 -229.735585 
L 94.777164 -230.770934 
L 93.105164 -231.491652 
L 91.433165 -231.902254 
L 89.761165 -232.007273 
L 88.089166 -231.621181 
L 86.417166 -230.771379 
L 84.745167 -229.149654 
L 83.073167 -226.596891 
L 81.401168 -223.647138 
L 79.729168 -221.562537 
L 78.057169 -221.015182 
L 76.385169 -221.952816 
L 74.71317 -224.104438 
L 73.04117 -226.525016 
L 71.369171 -228.366156 
L 69.697171 -229.299175 
L 68.025172 -229.669954 
L 66.353172 -229.828979 
L 64.681173 -230.549226 
L 63.009173 -231.701978 
L 61.337174 -233.049917 
L 59.665174 -234.090607 
L 57.993175 -234.484601 
L 56.321175 -234.377394 
L 54.649176 -233.960932 
L 52.977176 -233.426696 
L 51.305177 -233.029375 
L 49.633177 -232.437853 
L 47.961178 -231.707397 
z
" style="stroke: #ff7f0e; stroke-opacity: 0.3"/>
    </defs>
    <g>
     <use xlink:href="#mf0be5879e0" x="0" y="432" style="fill: #ff7f0e; fill-opacity: 0.3; stroke: #ff7f0e; stroke-opacity: 0.3"/>
    </g>
   </g>
   <g id="line2d_19">
    <path d="M 47.961178 184.194984 
L 49.633177 192.656856 
L 51.305177 202.766076 
L 52.977176 211.298329 
L 54.649176 216.782458 
L 56.321175 218.963297 
L 57.993175 219.54036 
L 59.665174 220.839396 
L 61.337174 222.701435 
L 63.009173 225.649375 
L 64.681173 229.680603 
L 68.025172 240.778898 
L 69.697171 246.97506 
L 71.369171 251.585639 
L 73.04117 253.368438 
L 74.71317 251.088229 
L 76.385169 243.373846 
L 78.057169 233.265978 
L 79.729168 225.004614 
L 81.401168 220.506427 
L 83.073167 219.702958 
L 84.745167 218.572545 
L 86.417166 214.767862 
L 88.089166 207.668517 
L 89.761165 198.873645 
L 91.433165 193.512975 
L 93.105164 193.50047 
L 96.449163 203.672825 
L 98.121163 204.721254 
L 99.793162 199.250556 
L 101.465162 188.423407 
L 103.137161 176.482483 
L 104.809161 170.150303 
L 106.48116 172.356701 
L 108.15316 180.261124 
L 109.825159 189.224168 
L 111.497159 194.074559 
L 113.169158 194.524265 
L 114.841158 192.065984 
L 116.513157 191.076505 
L 118.185157 192.518898 
L 119.857157 195.55655 
L 121.529156 198.847387 
L 123.201156 200.269058 
L 124.873155 199.137981 
L 126.545155 195.960954 
L 128.217154 193.05433 
L 129.889154 192.915223 
L 131.561153 195.410371 
L 133.233153 199.690486 
L 134.905152 204.578794 
L 136.577152 208.502124 
L 138.249151 211.697289 
L 139.921151 212.704895 
L 141.59315 211.564844 
L 143.26515 207.950609 
L 146.609149 197.118022 
L 148.281148 193.004136 
L 151.625147 187.013526 
L 153.297147 183.908766 
L 154.969146 181.250331 
L 156.641146 180.848482 
L 158.313145 183.08869 
L 159.985145 188.623194 
L 161.657144 196.356948 
L 163.329144 202.103424 
L 165.001143 203.933167 
L 166.673143 201.114811 
L 170.017142 190.302169 
L 171.689141 184.300601 
L 173.361141 179.992956 
L 175.03314 176.724089 
L 176.70514 174.422574 
L 178.377139 175.141945 
L 180.049139 180.196292 
L 181.721138 190.228128 
L 185.065137 216.894518 
L 186.737137 228.536094 
L 188.409137 236.69687 
L 190.081136 241.072246 
L 191.753136 242.278305 
L 193.425135 239.604397 
L 195.097135 231.194939 
L 196.769134 217.605557 
L 200.113133 183.840841 
L 201.785133 172.066801 
L 203.457132 166.762631 
L 205.129132 165.927593 
L 206.801131 164.5917 
L 208.473131 159.152904 
L 210.14513 148.558568 
L 213.489129 121.151974 
L 215.161129 111.105053 
L 216.833128 105.048197 
L 218.505128 100.557922 
L 220.177127 94.919473 
L 221.849127 86.305258 
L 223.521126 76.141889 
L 225.193126 67.020968 
L 226.865125 60.56271 
L 228.537125 58.006332 
L 230.209124 59.588046 
L 231.881124 64.287721 
L 233.553123 70.037847 
L 235.225123 74.578317 
L 236.897122 76.815295 
L 238.569122 76.475962 
L 241.913121 71.653615 
L 243.58512 70.438904 
L 245.25712 71.640361 
L 246.929119 75.817135 
L 250.273118 86.931041 
L 251.945118 91.012597 
L 253.617117 93.396698 
L 255.289117 95.27675 
L 256.961116 96.228503 
L 258.633116 95.55982 
L 260.305116 93.812523 
L 261.977115 90.394435 
L 263.649115 85.550876 
L 265.321114 80.013066 
L 266.993114 74.974871 
L 268.665113 71.161223 
L 270.337113 69.432028 
L 272.009112 68.784399 
L 273.681112 68.66966 
L 275.353111 67.805604 
L 277.025111 65.566132 
L 280.36911 59.378391 
L 282.041109 57.546123 
L 283.713109 57.042952 
L 285.385108 57.898073 
L 287.057108 60.145656 
L 288.729107 65.272048 
L 290.401107 74.452254 
L 292.073106 87.848398 
L 295.417105 119.568285 
L 297.089105 131.26002 
L 298.761104 138.897 
L 302.105103 147.429089 
L 303.777103 153.172162 
L 305.449102 161.527724 
L 308.793101 182.166516 
L 310.465101 190.480351 
L 312.1371 197.427815 
L 313.8091 203.780279 
L 315.481099 209.502577 
L 317.153099 212.693692 
L 318.825098 212.628182 
L 320.497098 207.128564 
L 322.169097 196.469948 
L 325.513096 170.059898 
L 327.185096 160.328892 
L 328.857096 154.969106 
L 332.201095 149.382671 
L 333.873094 143.635578 
L 335.545094 134.075822 
L 337.217093 121.525489 
L 342.233092 79.93159 
L 343.905091 66.447568 
L 345.577091 54.364982 
L 347.24909 44.892665 
L 348.92109 39.765882 
L 350.593089 38.782035 
L 352.265089 40.154738 
L 353.937088 40.503085 
L 355.609088 38.712677 
L 357.281087 35.27881 
L 358.953087 33.168792 
L 360.625086 34.79637 
L 362.297086 40.456267 
L 363.969085 48.973033 
L 365.641085 56.789557 
L 367.313084 61.336842 
L 368.985084 61.439757 
L 370.657083 59.215744 
L 372.329083 58.061006 
L 374.001082 60.052662 
L 375.673082 63.944767 
L 377.345081 66.974624 
L 379.017081 67.862497 
L 380.68908 66.177922 
L 382.36108 65.008985 
L 384.033079 67.53025 
L 385.705079 74.090471 
L 389.049078 93.778981 
L 390.721077 99.523117 
L 392.393077 100.169778 
L 394.065076 97.056482 
L 395.737076 93.074662 
L 397.409076 89.733388 
L 399.081075 87.696276 
L 402.425074 84.97193 
L 404.097074 82.336654 
L 405.769073 78.918521 
L 407.441073 76.885633 
L 409.113072 77.436547 
L 410.785072 81.800363 
L 412.457071 89.047768 
L 414.129071 97.737191 
L 415.80107 105.18189 
L 417.47307 109.8522 
L 419.145069 111.031443 
L 422.489068 110.959726 
L 424.161068 112.83092 
L 425.833067 117.217171 
L 427.505067 124.222117 
L 429.177066 132.35279 
L 430.849066 138.852135 
L 432.521065 142.108478 
L 434.193065 142.254921 
L 435.865064 140.016582 
L 437.537064 138.272137 
L 439.209063 140.009673 
L 440.881063 145.808111 
L 444.225062 162.926516 
L 445.897061 168.833543 
L 447.569061 171.222981 
L 449.24106 171.03411 
L 450.91306 170.352813 
L 452.585059 169.960712 
L 454.257059 170.088127 
L 455.929058 171.102446 
L 457.601058 171.943446 
L 459.273057 171.981833 
L 460.945057 171.434163 
L 462.617056 172.276299 
L 464.289056 176.091795 
L 465.961055 182.70243 
L 467.633055 190.298295 
L 469.305055 195.294099 
L 470.977054 195.777728 
L 472.649054 193.097202 
L 474.321053 189.369719 
L 475.993053 187.24187 
L 477.665052 187.444524 
L 479.337052 189.654284 
L 481.009051 193.052169 
L 482.681051 195.700236 
L 484.35305 196.013539 
L 486.02505 195.142097 
L 487.697049 194.655373 
L 489.369049 195.546719 
L 491.041048 196.96527 
L 492.713048 197.923166 
L 494.385047 196.573509 
L 496.057047 193.583973 
L 497.729046 189.41576 
L 499.401046 186.439181 
L 501.073045 185.943318 
L 502.745045 188.571014 
L 504.417044 192.598198 
L 506.089044 195.218346 
L 507.761043 195.270273 
L 509.433043 192.591985 
L 511.105042 188.996581 
L 512.777042 186.210609 
L 514.449041 186.322029 
L 516.121041 188.969067 
L 519.46504 196.448455 
L 521.137039 198.517725 
L 522.809039 199.946143 
L 526.153038 204.752296 
L 527.825037 206.601826 
L 529.497037 207.05692 
L 531.169036 205.917681 
L 532.841036 203.010984 
L 536.185035 194.840933 
L 537.857035 191.478644 
L 539.529034 189.770753 
L 541.201034 190.076834 
L 542.873033 192.095231 
L 546.217032 198.890729 
L 547.889032 200.605229 
L 549.561031 200.235984 
L 552.90503 195.828245 
L 554.57703 195.911198 
L 556.249029 199.900518 
L 559.593028 213.997725 
L 561.265028 218.05907 
L 561.265028 218.05907 
" style="fill: none; stroke: #1f77b4; stroke-width: 1.5; stroke-linecap: square"/>
   </g>
   <g id="line2d_20">
    <path d="M 47.961178 202.074096 
L 49.633177 201.329802 
L 51.305177 200.769258 
L 52.977176 200.348017 
L 54.649176 199.80071 
L 56.321175 199.387706 
L 57.993175 199.297676 
L 59.665174 199.748618 
L 61.337174 200.81287 
L 63.009173 202.145225 
L 64.681173 203.258516 
L 66.353172 203.912498 
L 68.025172 204.035568 
L 69.697171 204.347582 
L 71.369171 205.242816 
L 73.04117 207.095142 
L 74.71317 209.556253 
L 76.385169 211.695464 
L 78.057169 212.623052 
L 79.729168 212.042622 
L 81.401168 209.91381 
L 83.073167 207.007926 
L 84.745167 204.384675 
L 86.417166 202.667335 
L 88.089166 201.835955 
L 89.761165 201.460064 
L 91.433165 201.54276 
L 93.105164 201.952956 
L 94.777164 202.632668 
L 96.449163 203.698436 
L 98.121163 205.15103 
L 99.793162 206.441773 
L 101.465162 207.156263 
L 103.137161 207.251953 
L 104.809161 207.48208 
L 106.48116 208.578335 
L 108.15316 210.892539 
L 109.825159 213.759484 
L 111.497159 215.947835 
L 113.169158 216.619764 
L 114.841158 215.605541 
L 116.513157 213.646047 
L 118.185157 212.303861 
L 119.857157 212.452143 
L 121.529156 214.287734 
L 123.201156 217.181714 
L 124.873155 219.835436 
L 126.545155 221.35738 
L 128.217154 221.706096 
L 131.561153 221.099994 
L 133.233153 221.119475 
L 134.905152 221.263302 
L 136.577152 220.998788 
L 138.249151 220.3575 
L 139.921151 219.593919 
L 141.59315 219.60532 
L 143.26515 220.781951 
L 144.937149 223.36219 
L 146.609149 226.583124 
L 148.281148 229.432422 
L 149.953148 231.118371 
L 151.625147 231.381715 
L 153.297147 230.553641 
L 156.641146 228.217084 
L 158.313145 227.307441 
L 159.985145 226.094174 
L 161.657144 224.258874 
L 163.329144 221.663352 
L 166.673143 215.093088 
L 168.345142 212.127306 
L 170.017142 209.939655 
L 171.689141 208.927997 
L 173.361141 209.111913 
L 175.03314 210.866294 
L 176.70514 214.563855 
L 178.377139 220.890072 
L 180.049139 229.781635 
L 181.721138 240.716406 
L 185.065137 263.992686 
L 186.737137 273.30686 
L 188.409137 279.402007 
L 190.081136 281.825624 
L 191.753136 280.868466 
L 193.425135 276.940792 
L 195.097135 269.948652 
L 196.769134 259.749449 
L 198.441134 246.84123 
L 200.113133 231.407231 
L 205.129132 181.199058 
L 208.473131 152.563266 
L 211.81713 126.675375 
L 213.489129 115.590733 
L 215.161129 107.305606 
L 216.833128 102.820677 
L 218.505128 102.04363 
L 220.177127 103.634376 
L 221.849127 105.815485 
L 223.521126 107.525427 
L 225.193126 108.099265 
L 226.865125 107.788149 
L 228.537125 107.788193 
L 230.209124 108.700943 
L 233.553123 112.875352 
L 235.225123 115.029152 
L 236.897122 117.565651 
L 240.241121 123.936581 
L 241.913121 126.469857 
L 243.58512 127.373711 
L 245.25712 126.296854 
L 248.601119 121.913321 
L 250.273118 120.581213 
L 251.945118 120.372436 
L 253.617117 120.458627 
L 255.289117 119.694531 
L 256.961116 117.487912 
L 258.633116 114.212773 
L 261.977115 106.677934 
L 263.649115 102.343878 
L 265.321114 97.108821 
L 268.665113 85.079456 
L 270.337113 80.503602 
L 272.009112 78.663227 
L 273.681112 79.656776 
L 275.353111 82.486477 
L 278.69711 89.451731 
L 280.36911 93.411468 
L 282.041109 98.667097 
L 283.713109 105.651367 
L 287.057108 121.347132 
L 288.729107 127.252348 
L 290.401107 131.053084 
L 293.745106 135.663722 
L 295.417105 138.763016 
L 297.089105 143.047764 
L 298.761104 148.401796 
L 300.433104 154.357029 
L 302.105103 161.033852 
L 303.777103 168.68446 
L 308.793101 195.385501 
L 310.465101 202.817102 
L 312.1371 208.761441 
L 320.497098 233.098009 
L 322.169097 235.718148 
L 323.841097 236.22651 
L 325.513096 234.330626 
L 327.185096 230.397077 
L 332.201095 214.501419 
L 333.873094 210.428506 
L 335.545094 207.196891 
L 337.217093 204.394605 
L 338.889093 201.365715 
L 340.561092 197.49419 
L 342.233092 192.565659 
L 345.577091 181.969711 
L 347.24909 177.971727 
L 348.92109 175.567891 
L 350.593089 174.596734 
L 355.609088 174.315789 
L 357.281087 173.597535 
L 358.953087 172.348598 
L 360.625086 170.850445 
L 362.297086 169.823561 
L 363.969085 169.881008 
L 365.641085 171.325818 
L 367.313084 173.758408 
L 368.985084 176.405831 
L 370.657083 178.302745 
L 372.329083 178.736124 
L 374.001082 177.863381 
L 375.673082 176.639256 
L 377.345081 176.332096 
L 379.017081 177.384253 
L 380.68908 179.280133 
L 382.36108 180.644284 
L 384.033079 180.219368 
L 385.705079 177.762558 
L 387.377078 174.473433 
L 389.049078 172.03544 
L 390.721077 171.576616 
L 392.393077 172.842701 
L 394.065076 174.297877 
L 395.737076 174.124856 
L 397.409076 171.390852 
L 399.081075 166.555822 
L 400.753075 161.297854 
L 402.425074 157.517925 
L 404.097074 156.313209 
L 405.769073 157.584806 
L 407.441073 160.070782 
L 409.113072 162.348275 
L 410.785072 163.690034 
L 412.457071 163.870602 
L 415.80107 162.922917 
L 417.47307 162.761248 
L 419.145069 162.958452 
L 420.817069 163.428154 
L 425.833067 165.805815 
L 427.505067 166.04167 
L 430.849066 166.086659 
L 432.521065 166.348587 
L 434.193065 167.209623 
L 437.537064 169.876793 
L 439.209063 170.816838 
L 440.881063 171.263887 
L 442.553062 171.340436 
L 444.225062 171.608841 
L 445.897061 172.215302 
L 447.569061 172.979067 
L 449.24106 173.477843 
L 450.91306 173.440813 
L 454.257059 172.697936 
L 455.929058 172.827647 
L 457.601058 173.474188 
L 459.273057 173.953891 
L 460.945057 173.442903 
L 462.617056 171.613917 
L 464.289056 168.881066 
L 465.961055 166.51842 
L 467.633055 165.950777 
L 469.305055 167.729835 
L 472.649054 174.564577 
L 474.321053 176.408814 
L 475.993053 176.071005 
L 479.337052 172.587236 
L 481.009051 172.514599 
L 482.681051 174.248499 
L 484.35305 176.939594 
L 486.02505 179.019649 
L 487.697049 179.594925 
L 489.369049 178.566385 
L 491.041048 176.679391 
L 492.713048 175.001903 
L 494.385047 174.260249 
L 496.057047 174.562732 
L 497.729046 175.122749 
L 499.401046 175.227394 
L 501.073045 174.632159 
L 504.417044 172.198098 
L 506.089044 171.3351 
L 507.761043 171.146449 
L 511.105042 171.68149 
L 512.777042 171.571746 
L 514.449041 170.959064 
L 516.121041 169.872424 
L 517.79304 168.56392 
L 519.46504 167.518951 
L 521.137039 167.149845 
L 522.809039 167.659417 
L 524.481038 168.774712 
L 527.825037 171.786659 
L 529.497037 172.954465 
L 532.841036 174.686471 
L 536.185035 176.738943 
L 537.857035 177.598126 
L 541.201034 178.737277 
L 542.873033 179.935938 
L 544.545033 182.399613 
L 546.217032 186.227356 
L 549.561031 195.742615 
L 551.233031 199.539402 
L 552.90503 201.84612 
L 554.57703 202.761732 
L 556.249029 202.780062 
L 557.921029 202.509516 
L 559.593028 202.586546 
L 561.265028 203.173763 
L 561.265028 203.173763 
" style="fill: none; stroke: #ff7f0e; stroke-width: 1.5; stroke-linecap: square"/>
   </g>
  </g>
  <g id="axes_2">
   <g id="PathCollection_1">
    <defs>
     <path id="C0_0_779ec4cb8f" d="M 0 1.118034 
C 0.296506 1.118034 0.580908 1.000231 0.790569 0.790569 
C 1.000231 0.580908 1.118034 0.296506 1.118034 -0 
C 1.118034 -0.296506 1.000231 -0.580908 0.790569 -0.790569 
C 0.580908 -1.000231 0.296506 -1.118034 0 -1.118034 
C -0.296506 -1.118034 -0.580908 -1.000231 -0.790569 -0.790569 
C -1.000231 -0.580908 -1.118034 -0.296506 -1.118034 0 
C -1.118034 0.296506 -1.000231 0.580908 -0.790569 0.790569 
C -0.580908 1.000231 -0.296506 1.118034 0 1.118034 
z
"/>
    </defs>
    <g clip-path="url(#p8a62c7db3d)">
     <use xlink:href="#C0_0_779ec4cb8f" x="509.150176" y="46.654592" style="stroke: #000000"/>
    </g>
    <g clip-path="url(#p8a62c7db3d)">
     <use xlink:href="#C0_0_779ec4cb8f" x="509.158055" y="56.280861" style="stroke: #000000"/>
    </g>
    <g clip-path="url(#p8a62c7db3d)">
     <use xlink:href="#C0_0_779ec4cb8f" x="509.103214" y="76.41239" style="stroke: #000000"/>
    </g>
    <g clip-path="url(#p8a62c7db3d)">
     <use xlink:href="#C0_0_779ec4cb8f" x="509.045954" y="85.797148" style="stroke: #000000"/>
    </g>
    <g clip-path="url(#p8a62c7db3d)">
     <use xlink:href="#C0_0_779ec4cb8f" x="509.141054" y="66.305867" style="stroke: #000000"/>
    </g>
   </g>
   <g id="matplotlib.axis_3"/>
   <g id="matplotlib.axis_4"/>
   <g id="line2d_21">
    <path d="M 548.861908 73.635719 
L 548.784248 71.164526 
L 548.551573 68.703086 
L 548.164802 66.261113 
L 547.625462 63.848244 
L 546.935681 61.474002 
L 546.098181 59.147756 
L 545.116268 56.878688 
L 543.993816 54.675752 
L 542.735255 52.547643 
L 541.345553 50.502758 
L 539.830194 48.549169 
L 538.195158 46.694585 
L 536.446899 44.946325 
L 534.592314 43.311289 
L 532.638725 41.79593 
L 530.593841 40.406228 
L 528.465731 39.147667 
L 526.262795 38.025216 
L 523.993727 37.043302 
L 521.667482 36.205802 
L 519.293239 35.516021 
L 516.88037 34.976681 
L 514.438397 34.58991 
L 511.976957 34.357236 
L 509.505764 34.279575 
L 507.034572 34.357236 
L 504.573132 34.58991 
L 502.131159 34.976681 
L 499.71829 35.516021 
L 497.344047 36.205802 
L 495.017802 37.043302 
L 492.748734 38.025216 
L 490.545798 39.147667 
L 488.417688 40.406228 
L 486.372804 41.79593 
L 484.419214 43.311289 
L 482.56463 44.946325 
L 480.816371 46.694585 
L 479.181335 48.549169 
L 477.665976 50.502758 
L 476.276273 52.547643 
L 475.017713 54.675752 
L 473.895261 56.878688 
L 472.913348 59.147756 
L 472.075848 61.474002 
L 471.386067 63.848244 
L 470.846726 66.261113 
L 470.459956 68.703086 
L 470.227281 71.164526 
L 470.149621 73.635719 
L 470.227281 76.106912 
L 470.459956 78.568352 
L 470.846726 81.010325 
L 471.386067 83.423194 
L 472.075848 85.797436 
L 472.913348 88.123682 
L 473.895261 90.39275 
L 475.017713 92.595686 
L 476.276273 94.723795 
L 477.665976 96.76868 
L 479.181335 98.722269 
L 480.816371 100.576853 
L 482.56463 102.325113 
L 484.419214 103.960149 
L 486.372804 105.475508 
L 488.417688 106.86521 
L 490.545798 108.12377 
L 492.748734 109.246222 
L 495.017802 110.228136 
L 497.344047 111.065636 
L 499.71829 111.755417 
L 502.131159 112.294757 
L 504.573132 112.681527 
L 507.034572 112.914202 
L 509.505764 112.991862 
L 511.976957 112.914202 
L 514.438397 112.681527 
L 516.88037 112.294757 
L 519.293239 111.755417 
L 521.667482 111.065636 
L 523.993727 110.228136 
L 526.262795 109.246222 
L 528.465731 108.12377 
L 530.593841 106.86521 
L 532.638725 105.475508 
L 534.592314 103.960149 
L 536.446899 102.325113 
L 538.195158 100.576853 
L 539.830194 98.722269 
L 541.345553 96.76868 
L 542.735255 94.723795 
L 543.993816 92.595686 
L 545.116268 90.39275 
L 546.098181 88.123682 
L 546.935681 85.797436 
L 547.625462 83.423194 
L 548.164802 81.010325 
L 548.551573 78.568352 
L 548.784248 76.106912 
L 548.861908 73.635719 
" style="fill: none; stroke: #000000; stroke-linecap: square"/>
   </g>
   <g id="line2d_22">
    <path d="M 501.263033 35.152431 
L 509.505764 28.376154 
L 517.748496 35.152431 
" style="fill: none; stroke: #000000; stroke-linecap: square"/>
   </g>
   <g id="line2d_23">
    <path d="M 470.385758 69.267187 
L 469.362498 67.535517 
L 468.7328 67.472547 
L 467.796124 67.763782 
L 466.851576 69.267187 
L 467.001129 74.068636 
L 466.450143 80.971704 
L 467.630828 83.970642 
L 469.362498 84.529499 
L 471.015456 83.073322 
" style="fill: none; stroke: #000000; stroke-linecap: square"/>
   </g>
   <g id="line2d_24">
    <path d="M 548.625771 69.267187 
L 549.649031 67.535517 
L 550.278729 67.472547 
L 551.215405 67.763782 
L 552.159953 69.267187 
L 552.010399 74.068636 
L 552.561385 80.971704 
L 551.380701 83.970642 
L 549.649031 84.529499 
L 547.996073 83.073322 
" style="fill: none; stroke: #000000; stroke-linecap: square"/>
   </g>
  </g>
 </g>
 <defs>
  <clipPath id="p0821771995">
   <rect x="47.961178" y="18.118365" width="513.90577" height="380.525145"/>
  </clipPath>
  <clipPath id="p8a62c7db3d">
   <rect x="462.144581" y="24.145368" width="94.722366" height="93.077279"/>
  </clipPath>
 </defs>
</svg>
