<?xml version="1.0" encoding="utf-8" standalone="no"?>
<!DOCTYPE svg PUBLIC "-//W3C//DTD SVG 1.1//EN"
  "http://www.w3.org/Graphics/SVG/1.1/DTD/svg11.dtd">
<svg xmlns:xlink="http://www.w3.org/1999/xlink" width="576pt" height="432pt" viewBox="0 0 576 432" xmlns="http://www.w3.org/2000/svg" version="1.1">
 <metadata>
  <rdf:RDF xmlns:dc="http://purl.org/dc/elements/1.1/" xmlns:cc="http://creativecommons.org/ns#" xmlns:rdf="http://www.w3.org/1999/02/22-rdf-syntax-ns#">
   <cc:Work>
    <dc:type rdf:resource="http://purl.org/dc/dcmitype/StillImage"/>
    <dc:date>2025-02-20T17:25:38.991597</dc:date>
    <dc:format>image/svg+xml</dc:format>
    <dc:creator>
     <cc:Agent>
      <dc:title>Matplotlib v3.10.0, https://matplotlib.org/</dc:title>
     </cc:Agent>
    </dc:creator>
   </cc:Work>
  </rdf:RDF>
 </metadata>
 <defs>
  <style type="text/css">*{stroke-linejoin: round; stroke-linecap: butt}</style>
 </defs>
 <g id="figure_1">
  <g id="patch_1">
   <path d="M 0 432 
L 576 432 
L 576 0 
L 0 0 
z
" style="fill: #ffffff"/>
  </g>
  <g id="axes_1">
   <g id="patch_2">
    <path d="M 54.323678 398.64351 
L 561.866948 398.64351 
L 561.866948 18.118365 
L 54.323678 18.118365 
L 54.323678 398.64351 
z
" style="fill: none; opacity: 0"/>
   </g>
   <g id="patch_3">
    <path d="M 54.323678 385.588835 
L 54.323678 31.17304 
" style="fill: none; stroke: #000000; stroke-width: 0.8; stroke-linejoin: miter; stroke-linecap: square"/>
   </g>
   <g id="LineCollection_1">
    <path d="M 168.725674 18.118365 
L 168.725674 398.64351 
" clip-path="url(#p7e7e85c281)" style="fill: none; stroke-dasharray: 3.7,1.6; stroke-dashoffset: 0; stroke: #000000"/>
    <path d="M 194.089627 18.118365 
L 194.089627 398.64351 
" clip-path="url(#p7e7e85c281)" style="fill: none; stroke-dasharray: 3.7,1.6; stroke-dashoffset: 0; stroke: #000000"/>
   </g>
   <g id="matplotlib.axis_1">
    <g id="xtick_1">
     <g id="line2d_1">
      <defs>
       <path id="m48d6164aba" d="M 0 0 
L 0 3.5 
" style="stroke: #000000; stroke-width: 0.8"/>
      </defs>
      <g>
       <use xlink:href="#m48d6164aba" x="54.587885" y="398.64351" style="stroke: #000000; stroke-width: 0.8"/>
      </g>
     </g>
     <g id="text_1">
      <!-- −0.20 -->
      <g transform="translate(39.265229 413.241947) scale(0.1 -0.1)">
       <defs>
        <path id="DejaVuSans-2212" d="M 678 2272 
L 4684 2272 
L 4684 1741 
L 678 1741 
L 678 2272 
z
" transform="scale(0.015625)"/>
        <path id="DejaVuSans-30" d="M 2034 4250 
Q 1547 4250 1301 3770 
Q 1056 3291 1056 2328 
Q 1056 1369 1301 889 
Q 1547 409 2034 409 
Q 2525 409 2770 889 
Q 3016 1369 3016 2328 
Q 3016 3291 2770 3770 
Q 2525 4250 2034 4250 
z
M 2034 4750 
Q 2819 4750 3233 4129 
Q 3647 3509 3647 2328 
Q 3647 1150 3233 529 
Q 2819 -91 2034 -91 
Q 1250 -91 836 529 
Q 422 1150 422 2328 
Q 422 3509 836 4129 
Q 1250 4750 2034 4750 
z
" transform="scale(0.015625)"/>
        <path id="DejaVuSans-2e" d="M 684 794 
L 1344 794 
L 1344 0 
L 684 0 
L 684 794 
z
" transform="scale(0.015625)"/>
        <path id="DejaVuSans-32" d="M 1228 531 
L 3431 531 
L 3431 0 
L 469 0 
L 469 531 
Q 828 903 1448 1529 
Q 2069 2156 2228 2338 
Q 2531 2678 2651 2914 
Q 2772 3150 2772 3378 
Q 2772 3750 2511 3984 
Q 2250 4219 1831 4219 
Q 1534 4219 1204 4116 
Q 875 4013 500 3803 
L 500 4441 
Q 881 4594 1212 4672 
Q 1544 4750 1819 4750 
Q 2544 4750 2975 4387 
Q 3406 4025 3406 3419 
Q 3406 3131 3298 2873 
Q 3191 2616 2906 2266 
Q 2828 2175 2409 1742 
Q 1991 1309 1228 531 
z
" transform="scale(0.015625)"/>
       </defs>
       <use xlink:href="#DejaVuSans-2212"/>
       <use xlink:href="#DejaVuSans-30" transform="translate(83.789062 0)"/>
       <use xlink:href="#DejaVuSans-2e" transform="translate(147.412109 0)"/>
       <use xlink:href="#DejaVuSans-32" transform="translate(179.199219 0)"/>
       <use xlink:href="#DejaVuSans-30" transform="translate(242.822266 0)"/>
      </g>
     </g>
    </g>
    <g id="xtick_2">
     <g id="line2d_2">
      <g>
       <use xlink:href="#m48d6164aba" x="139.134396" y="398.64351" style="stroke: #000000; stroke-width: 0.8"/>
      </g>
     </g>
     <g id="text_2">
      <!-- 0.00 -->
      <g transform="translate(128.001583 413.241947) scale(0.1 -0.1)">
       <use xlink:href="#DejaVuSans-30"/>
       <use xlink:href="#DejaVuSans-2e" transform="translate(63.623047 0)"/>
       <use xlink:href="#DejaVuSans-30" transform="translate(95.410156 0)"/>
       <use xlink:href="#DejaVuSans-30" transform="translate(159.033203 0)"/>
      </g>
     </g>
    </g>
    <g id="xtick_3">
     <g id="line2d_3">
      <g>
       <use xlink:href="#m48d6164aba" x="168.725674" y="398.64351" style="stroke: #000000; stroke-width: 0.8"/>
      </g>
     </g>
     <g id="text_3">
      <!-- 0.07 -->
      <g transform="translate(157.592862 413.241947) scale(0.1 -0.1)">
       <defs>
        <path id="DejaVuSans-37" d="M 525 4666 
L 3525 4666 
L 3525 4397 
L 1831 0 
L 1172 0 
L 2766 4134 
L 525 4134 
L 525 4666 
z
" transform="scale(0.015625)"/>
       </defs>
       <use xlink:href="#DejaVuSans-30"/>
       <use xlink:href="#DejaVuSans-2e" transform="translate(63.623047 0)"/>
       <use xlink:href="#DejaVuSans-30" transform="translate(95.410156 0)"/>
       <use xlink:href="#DejaVuSans-37" transform="translate(159.033203 0)"/>
      </g>
     </g>
    </g>
    <g id="xtick_4">
     <g id="line2d_4">
      <g>
       <use xlink:href="#m48d6164aba" x="194.089627" y="398.64351" style="stroke: #000000; stroke-width: 0.8"/>
      </g>
     </g>
     <g id="text_4">
      <!-- 0.13 -->
      <g transform="translate(182.956815 413.241947) scale(0.1 -0.1)">
       <defs>
        <path id="DejaVuSans-31" d="M 794 531 
L 1825 531 
L 1825 4091 
L 703 3866 
L 703 4441 
L 1819 4666 
L 2450 4666 
L 2450 531 
L 3481 531 
L 3481 0 
L 794 0 
L 794 531 
z
" transform="scale(0.015625)"/>
        <path id="DejaVuSans-33" d="M 2597 2516 
Q 3050 2419 3304 2112 
Q 3559 1806 3559 1356 
Q 3559 666 3084 287 
Q 2609 -91 1734 -91 
Q 1441 -91 1130 -33 
Q 819 25 488 141 
L 488 750 
Q 750 597 1062 519 
Q 1375 441 1716 441 
Q 2309 441 2620 675 
Q 2931 909 2931 1356 
Q 2931 1769 2642 2001 
Q 2353 2234 1838 2234 
L 1294 2234 
L 1294 2753 
L 1863 2753 
Q 2328 2753 2575 2939 
Q 2822 3125 2822 3475 
Q 2822 3834 2567 4026 
Q 2313 4219 1838 4219 
Q 1578 4219 1281 4162 
Q 984 4106 628 3988 
L 628 4550 
Q 988 4650 1302 4700 
Q 1616 4750 1894 4750 
Q 2613 4750 3031 4423 
Q 3450 4097 3450 3541 
Q 3450 3153 3228 2886 
Q 3006 2619 2597 2516 
z
" transform="scale(0.015625)"/>
       </defs>
       <use xlink:href="#DejaVuSans-30"/>
       <use xlink:href="#DejaVuSans-2e" transform="translate(63.623047 0)"/>
       <use xlink:href="#DejaVuSans-31" transform="translate(95.410156 0)"/>
       <use xlink:href="#DejaVuSans-33" transform="translate(159.033203 0)"/>
      </g>
     </g>
    </g>
    <g id="xtick_5">
     <g id="line2d_5">
      <g>
       <use xlink:href="#m48d6164aba" x="223.680906" y="398.64351" style="stroke: #000000; stroke-width: 0.8"/>
      </g>
     </g>
     <g id="text_5">
      <!-- 0.20 -->
      <g transform="translate(212.548094 413.241947) scale(0.1 -0.1)">
       <use xlink:href="#DejaVuSans-30"/>
       <use xlink:href="#DejaVuSans-2e" transform="translate(63.623047 0)"/>
       <use xlink:href="#DejaVuSans-32" transform="translate(95.410156 0)"/>
       <use xlink:href="#DejaVuSans-30" transform="translate(159.033203 0)"/>
      </g>
     </g>
    </g>
    <g id="xtick_6">
     <g id="line2d_6">
      <g>
       <use xlink:href="#m48d6164aba" x="308.227416" y="398.64351" style="stroke: #000000; stroke-width: 0.8"/>
      </g>
     </g>
     <g id="text_6">
      <!-- 0.40 -->
      <g transform="translate(297.094604 413.241947) scale(0.1 -0.1)">
       <defs>
        <path id="DejaVuSans-34" d="M 2419 4116 
L 825 1625 
L 2419 1625 
L 2419 4116 
z
M 2253 4666 
L 3047 4666 
L 3047 1625 
L 3713 1625 
L 3713 1100 
L 3047 1100 
L 3047 0 
L 2419 0 
L 2419 1100 
L 313 1100 
L 313 1709 
L 2253 4666 
z
" transform="scale(0.015625)"/>
       </defs>
       <use xlink:href="#DejaVuSans-30"/>
       <use xlink:href="#DejaVuSans-2e" transform="translate(63.623047 0)"/>
       <use xlink:href="#DejaVuSans-34" transform="translate(95.410156 0)"/>
       <use xlink:href="#DejaVuSans-30" transform="translate(159.033203 0)"/>
      </g>
     </g>
    </g>
    <g id="xtick_7">
     <g id="line2d_7">
      <g>
       <use xlink:href="#m48d6164aba" x="392.773927" y="398.64351" style="stroke: #000000; stroke-width: 0.8"/>
      </g>
     </g>
     <g id="text_7">
      <!-- 0.60 -->
      <g transform="translate(381.641114 413.241947) scale(0.1 -0.1)">
       <defs>
        <path id="DejaVuSans-36" d="M 2113 2584 
Q 1688 2584 1439 2293 
Q 1191 2003 1191 1497 
Q 1191 994 1439 701 
Q 1688 409 2113 409 
Q 2538 409 2786 701 
Q 3034 994 3034 1497 
Q 3034 2003 2786 2293 
Q 2538 2584 2113 2584 
z
M 3366 4563 
L 3366 3988 
Q 3128 4100 2886 4159 
Q 2644 4219 2406 4219 
Q 1781 4219 1451 3797 
Q 1122 3375 1075 2522 
Q 1259 2794 1537 2939 
Q 1816 3084 2150 3084 
Q 2853 3084 3261 2657 
Q 3669 2231 3669 1497 
Q 3669 778 3244 343 
Q 2819 -91 2113 -91 
Q 1303 -91 875 529 
Q 447 1150 447 2328 
Q 447 3434 972 4092 
Q 1497 4750 2381 4750 
Q 2619 4750 2861 4703 
Q 3103 4656 3366 4563 
z
" transform="scale(0.015625)"/>
       </defs>
       <use xlink:href="#DejaVuSans-30"/>
       <use xlink:href="#DejaVuSans-2e" transform="translate(63.623047 0)"/>
       <use xlink:href="#DejaVuSans-36" transform="translate(95.410156 0)"/>
       <use xlink:href="#DejaVuSans-30" transform="translate(159.033203 0)"/>
      </g>
     </g>
    </g>
    <g id="xtick_8">
     <g id="line2d_8">
      <g>
       <use xlink:href="#m48d6164aba" x="477.320437" y="398.64351" style="stroke: #000000; stroke-width: 0.8"/>
      </g>
     </g>
     <g id="text_8">
      <!-- 0.80 -->
      <g transform="translate(466.187625 413.241947) scale(0.1 -0.1)">
       <defs>
        <path id="DejaVuSans-38" d="M 2034 2216 
Q 1584 2216 1326 1975 
Q 1069 1734 1069 1313 
Q 1069 891 1326 650 
Q 1584 409 2034 409 
Q 2484 409 2743 651 
Q 3003 894 3003 1313 
Q 3003 1734 2745 1975 
Q 2488 2216 2034 2216 
z
M 1403 2484 
Q 997 2584 770 2862 
Q 544 3141 544 3541 
Q 544 4100 942 4425 
Q 1341 4750 2034 4750 
Q 2731 4750 3128 4425 
Q 3525 4100 3525 3541 
Q 3525 3141 3298 2862 
Q 3072 2584 2669 2484 
Q 3125 2378 3379 2068 
Q 3634 1759 3634 1313 
Q 3634 634 3220 271 
Q 2806 -91 2034 -91 
Q 1263 -91 848 271 
Q 434 634 434 1313 
Q 434 1759 690 2068 
Q 947 2378 1403 2484 
z
M 1172 3481 
Q 1172 3119 1398 2916 
Q 1625 2713 2034 2713 
Q 2441 2713 2670 2916 
Q 2900 3119 2900 3481 
Q 2900 3844 2670 4047 
Q 2441 4250 2034 4250 
Q 1625 4250 1398 4047 
Q 1172 3844 1172 3481 
z
" transform="scale(0.015625)"/>
       </defs>
       <use xlink:href="#DejaVuSans-30"/>
       <use xlink:href="#DejaVuSans-2e" transform="translate(63.623047 0)"/>
       <use xlink:href="#DejaVuSans-38" transform="translate(95.410156 0)"/>
       <use xlink:href="#DejaVuSans-30" transform="translate(159.033203 0)"/>
      </g>
     </g>
    </g>
    <g id="xtick_9">
     <g id="line2d_9">
      <g>
       <use xlink:href="#m48d6164aba" x="561.866948" y="398.64351" style="stroke: #000000; stroke-width: 0.8"/>
      </g>
     </g>
     <g id="text_9">
      <!-- 1.00 -->
      <g transform="translate(550.734135 413.241947) scale(0.1 -0.1)">
       <use xlink:href="#DejaVuSans-31"/>
       <use xlink:href="#DejaVuSans-2e" transform="translate(63.623047 0)"/>
       <use xlink:href="#DejaVuSans-30" transform="translate(95.410156 0)"/>
       <use xlink:href="#DejaVuSans-30" transform="translate(159.033203 0)"/>
      </g>
     </g>
    </g>
    <g id="text_10">
     <!-- Time (s) -->
     <g transform="translate(287.766406 426.920073) scale(0.1 -0.1)">
      <defs>
       <path id="DejaVuSans-54" d="M -19 4666 
L 3928 4666 
L 3928 4134 
L 2272 4134 
L 2272 0 
L 1638 0 
L 1638 4134 
L -19 4134 
L -19 4666 
z
" transform="scale(0.015625)"/>
       <path id="DejaVuSans-69" d="M 603 3500 
L 1178 3500 
L 1178 0 
L 603 0 
L 603 3500 
z
M 603 4863 
L 1178 4863 
L 1178 4134 
L 603 4134 
L 603 4863 
z
" transform="scale(0.015625)"/>
       <path id="DejaVuSans-6d" d="M 3328 2828 
Q 3544 3216 3844 3400 
Q 4144 3584 4550 3584 
Q 5097 3584 5394 3201 
Q 5691 2819 5691 2113 
L 5691 0 
L 5113 0 
L 5113 2094 
Q 5113 2597 4934 2840 
Q 4756 3084 4391 3084 
Q 3944 3084 3684 2787 
Q 3425 2491 3425 1978 
L 3425 0 
L 2847 0 
L 2847 2094 
Q 2847 2600 2669 2842 
Q 2491 3084 2119 3084 
Q 1678 3084 1418 2786 
Q 1159 2488 1159 1978 
L 1159 0 
L 581 0 
L 581 3500 
L 1159 3500 
L 1159 2956 
Q 1356 3278 1631 3431 
Q 1906 3584 2284 3584 
Q 2666 3584 2933 3390 
Q 3200 3197 3328 2828 
z
" transform="scale(0.015625)"/>
       <path id="DejaVuSans-65" d="M 3597 1894 
L 3597 1613 
L 953 1613 
Q 991 1019 1311 708 
Q 1631 397 2203 397 
Q 2534 397 2845 478 
Q 3156 559 3463 722 
L 3463 178 
Q 3153 47 2828 -22 
Q 2503 -91 2169 -91 
Q 1331 -91 842 396 
Q 353 884 353 1716 
Q 353 2575 817 3079 
Q 1281 3584 2069 3584 
Q 2775 3584 3186 3129 
Q 3597 2675 3597 1894 
z
M 3022 2063 
Q 3016 2534 2758 2815 
Q 2500 3097 2075 3097 
Q 1594 3097 1305 2825 
Q 1016 2553 972 2059 
L 3022 2063 
z
" transform="scale(0.015625)"/>
       <path id="DejaVuSans-20" transform="scale(0.015625)"/>
       <path id="DejaVuSans-28" d="M 1984 4856 
Q 1566 4138 1362 3434 
Q 1159 2731 1159 2009 
Q 1159 1288 1364 580 
Q 1569 -128 1984 -844 
L 1484 -844 
Q 1016 -109 783 600 
Q 550 1309 550 2009 
Q 550 2706 781 3412 
Q 1013 4119 1484 4856 
L 1984 4856 
z
" transform="scale(0.015625)"/>
       <path id="DejaVuSans-73" d="M 2834 3397 
L 2834 2853 
Q 2591 2978 2328 3040 
Q 2066 3103 1784 3103 
Q 1356 3103 1142 2972 
Q 928 2841 928 2578 
Q 928 2378 1081 2264 
Q 1234 2150 1697 2047 
L 1894 2003 
Q 2506 1872 2764 1633 
Q 3022 1394 3022 966 
Q 3022 478 2636 193 
Q 2250 -91 1575 -91 
Q 1294 -91 989 -36 
Q 684 19 347 128 
L 347 722 
Q 666 556 975 473 
Q 1284 391 1588 391 
Q 1994 391 2212 530 
Q 2431 669 2431 922 
Q 2431 1156 2273 1281 
Q 2116 1406 1581 1522 
L 1381 1569 
Q 847 1681 609 1914 
Q 372 2147 372 2553 
Q 372 3047 722 3315 
Q 1072 3584 1716 3584 
Q 2034 3584 2315 3537 
Q 2597 3491 2834 3397 
z
" transform="scale(0.015625)"/>
       <path id="DejaVuSans-29" d="M 513 4856 
L 1013 4856 
Q 1481 4119 1714 3412 
Q 1947 2706 1947 2009 
Q 1947 1309 1714 600 
Q 1481 -109 1013 -844 
L 513 -844 
Q 928 -128 1133 580 
Q 1338 1288 1338 2009 
Q 1338 2731 1133 3434 
Q 928 4138 513 4856 
z
" transform="scale(0.015625)"/>
      </defs>
      <use xlink:href="#DejaVuSans-54"/>
      <use xlink:href="#DejaVuSans-69" transform="translate(57.958984 0)"/>
      <use xlink:href="#DejaVuSans-6d" transform="translate(85.742188 0)"/>
      <use xlink:href="#DejaVuSans-65" transform="translate(183.154297 0)"/>
      <use xlink:href="#DejaVuSans-20" transform="translate(244.677734 0)"/>
      <use xlink:href="#DejaVuSans-28" transform="translate(276.464844 0)"/>
      <use xlink:href="#DejaVuSans-73" transform="translate(315.478516 0)"/>
      <use xlink:href="#DejaVuSans-29" transform="translate(367.578125 0)"/>
     </g>
    </g>
   </g>
   <g id="matplotlib.axis_2">
    <g id="ytick_1">
     <g id="line2d_10">
      <defs>
       <path id="m2525087b40" d="M 0 0 
L -3.5 0 
" style="stroke: #000000; stroke-width: 0.8"/>
      </defs>
      <g>
       <use xlink:href="#m2525087b40" x="54.323678" y="385.588835" style="stroke: #000000; stroke-width: 0.8"/>
      </g>
     </g>
     <g id="text_11">
      <!-- −10.0 -->
      <g transform="translate(16.678365 389.388054) scale(0.1 -0.1)">
       <use xlink:href="#DejaVuSans-2212"/>
       <use xlink:href="#DejaVuSans-31" transform="translate(83.789062 0)"/>
       <use xlink:href="#DejaVuSans-30" transform="translate(147.412109 0)"/>
       <use xlink:href="#DejaVuSans-2e" transform="translate(211.035156 0)"/>
       <use xlink:href="#DejaVuSans-30" transform="translate(242.822266 0)"/>
      </g>
     </g>
    </g>
    <g id="ytick_2">
     <g id="line2d_11">
      <g>
       <use xlink:href="#m2525087b40" x="54.323678" y="341.286861" style="stroke: #000000; stroke-width: 0.8"/>
      </g>
     </g>
     <g id="text_12">
      <!-- −7.5 -->
      <g transform="translate(23.040865 345.086079) scale(0.1 -0.1)">
       <defs>
        <path id="DejaVuSans-35" d="M 691 4666 
L 3169 4666 
L 3169 4134 
L 1269 4134 
L 1269 2991 
Q 1406 3038 1543 3061 
Q 1681 3084 1819 3084 
Q 2600 3084 3056 2656 
Q 3513 2228 3513 1497 
Q 3513 744 3044 326 
Q 2575 -91 1722 -91 
Q 1428 -91 1123 -41 
Q 819 9 494 109 
L 494 744 
Q 775 591 1075 516 
Q 1375 441 1709 441 
Q 2250 441 2565 725 
Q 2881 1009 2881 1497 
Q 2881 1984 2565 2268 
Q 2250 2553 1709 2553 
Q 1456 2553 1204 2497 
Q 953 2441 691 2322 
L 691 4666 
z
" transform="scale(0.015625)"/>
       </defs>
       <use xlink:href="#DejaVuSans-2212"/>
       <use xlink:href="#DejaVuSans-37" transform="translate(83.789062 0)"/>
       <use xlink:href="#DejaVuSans-2e" transform="translate(147.412109 0)"/>
       <use xlink:href="#DejaVuSans-35" transform="translate(179.199219 0)"/>
      </g>
     </g>
    </g>
    <g id="ytick_3">
     <g id="line2d_12">
      <g>
       <use xlink:href="#m2525087b40" x="54.323678" y="296.984886" style="stroke: #000000; stroke-width: 0.8"/>
      </g>
     </g>
     <g id="text_13">
      <!-- −5.0 -->
      <g transform="translate(23.040865 300.784105) scale(0.1 -0.1)">
       <use xlink:href="#DejaVuSans-2212"/>
       <use xlink:href="#DejaVuSans-35" transform="translate(83.789062 0)"/>
       <use xlink:href="#DejaVuSans-2e" transform="translate(147.412109 0)"/>
       <use xlink:href="#DejaVuSans-30" transform="translate(179.199219 0)"/>
      </g>
     </g>
    </g>
    <g id="ytick_4">
     <g id="line2d_13">
      <g>
       <use xlink:href="#m2525087b40" x="54.323678" y="252.682912" style="stroke: #000000; stroke-width: 0.8"/>
      </g>
     </g>
     <g id="text_14">
      <!-- −2.5 -->
      <g transform="translate(23.040865 256.482131) scale(0.1 -0.1)">
       <use xlink:href="#DejaVuSans-2212"/>
       <use xlink:href="#DejaVuSans-32" transform="translate(83.789062 0)"/>
       <use xlink:href="#DejaVuSans-2e" transform="translate(147.412109 0)"/>
       <use xlink:href="#DejaVuSans-35" transform="translate(179.199219 0)"/>
      </g>
     </g>
    </g>
    <g id="ytick_5">
     <g id="line2d_14">
      <g>
       <use xlink:href="#m2525087b40" x="54.323678" y="208.380937" style="stroke: #000000; stroke-width: 0.8"/>
      </g>
     </g>
     <g id="text_15">
      <!-- 0.0 -->
      <g transform="translate(31.420552 212.180156) scale(0.1 -0.1)">
       <use xlink:href="#DejaVuSans-30"/>
       <use xlink:href="#DejaVuSans-2e" transform="translate(63.623047 0)"/>
       <use xlink:href="#DejaVuSans-30" transform="translate(95.410156 0)"/>
      </g>
     </g>
    </g>
    <g id="ytick_6">
     <g id="line2d_15">
      <g>
       <use xlink:href="#m2525087b40" x="54.323678" y="164.078963" style="stroke: #000000; stroke-width: 0.8"/>
      </g>
     </g>
     <g id="text_16">
      <!-- 2.5 -->
      <g transform="translate(31.420552 167.878182) scale(0.1 -0.1)">
       <use xlink:href="#DejaVuSans-32"/>
       <use xlink:href="#DejaVuSans-2e" transform="translate(63.623047 0)"/>
       <use xlink:href="#DejaVuSans-35" transform="translate(95.410156 0)"/>
      </g>
     </g>
    </g>
    <g id="ytick_7">
     <g id="line2d_16">
      <g>
       <use xlink:href="#m2525087b40" x="54.323678" y="119.776989" style="stroke: #000000; stroke-width: 0.8"/>
      </g>
     </g>
     <g id="text_17">
      <!-- 5.0 -->
      <g transform="translate(31.420552 123.576207) scale(0.1 -0.1)">
       <use xlink:href="#DejaVuSans-35"/>
       <use xlink:href="#DejaVuSans-2e" transform="translate(63.623047 0)"/>
       <use xlink:href="#DejaVuSans-30" transform="translate(95.410156 0)"/>
      </g>
     </g>
    </g>
    <g id="ytick_8">
     <g id="line2d_17">
      <g>
       <use xlink:href="#m2525087b40" x="54.323678" y="75.475014" style="stroke: #000000; stroke-width: 0.8"/>
      </g>
     </g>
     <g id="text_18">
      <!-- 7.5 -->
      <g transform="translate(31.420552 79.274233) scale(0.1 -0.1)">
       <use xlink:href="#DejaVuSans-37"/>
       <use xlink:href="#DejaVuSans-2e" transform="translate(63.623047 0)"/>
       <use xlink:href="#DejaVuSans-35" transform="translate(95.410156 0)"/>
      </g>
     </g>
    </g>
    <g id="ytick_9">
     <g id="line2d_18">
      <g>
       <use xlink:href="#m2525087b40" x="54.323678" y="31.17304" style="stroke: #000000; stroke-width: 0.8"/>
      </g>
     </g>
     <g id="text_19">
      <!-- 10.0 -->
      <g transform="translate(25.058053 34.972259) scale(0.1 -0.1)">
       <use xlink:href="#DejaVuSans-31"/>
       <use xlink:href="#DejaVuSans-30" transform="translate(63.623047 0)"/>
       <use xlink:href="#DejaVuSans-2e" transform="translate(127.246094 0)"/>
       <use xlink:href="#DejaVuSans-30" transform="translate(159.033203 0)"/>
      </g>
     </g>
    </g>
    <g id="text_20">
     <!-- µV -->
     <g transform="translate(10.598677 214.9825) rotate(-90) scale(0.1 -0.1)">
      <defs>
       <path id="DejaVuSans-b5" d="M 544 -1331 
L 544 3500 
L 1119 3500 
L 1119 1325 
Q 1119 872 1334 640 
Q 1550 409 1972 409 
Q 2434 409 2667 671 
Q 2900 934 2900 1459 
L 2900 3500 
L 3475 3500 
L 3475 806 
Q 3475 619 3529 530 
Q 3584 441 3700 441 
Q 3728 441 3778 458 
Q 3828 475 3916 513 
L 3916 50 
Q 3788 -22 3673 -56 
Q 3559 -91 3450 -91 
Q 3234 -91 3106 31 
Q 2978 153 2931 403 
Q 2775 156 2548 32 
Q 2322 -91 2016 -91 
Q 1697 -91 1473 31 
Q 1250 153 1119 397 
L 1119 -1331 
L 544 -1331 
z
" transform="scale(0.015625)"/>
       <path id="DejaVuSans-56" d="M 1831 0 
L 50 4666 
L 709 4666 
L 2188 738 
L 3669 4666 
L 4325 4666 
L 2547 0 
L 1831 0 
z
" transform="scale(0.015625)"/>
      </defs>
      <use xlink:href="#DejaVuSans-b5"/>
      <use xlink:href="#DejaVuSans-56" transform="translate(63.623047 0)"/>
     </g>
    </g>
   </g>
   <g id="patch_4">
    <path d="M 54.587885 398.64351 
L 561.866948 398.64351 
" style="fill: none; stroke: #000000; stroke-width: 0.8; stroke-linejoin: miter; stroke-linecap: square"/>
   </g>
   <g id="patch_5">
    <path d="M 54.323677 208.380938 
L 561.866948 208.380938 
" style="fill: none; stroke: #000000; stroke-width: 0.8; stroke-linejoin: miter; stroke-linecap: square"/>
   </g>
   <g id="text_21">
    <!-- F4, FC4, F3, FC3 (median) -->
    <g transform="translate(230.120625 12.118365) scale(0.12 -0.12)">
     <defs>
      <path id="DejaVuSans-46" d="M 628 4666 
L 3309 4666 
L 3309 4134 
L 1259 4134 
L 1259 2759 
L 3109 2759 
L 3109 2228 
L 1259 2228 
L 1259 0 
L 628 0 
L 628 4666 
z
" transform="scale(0.015625)"/>
      <path id="DejaVuSans-2c" d="M 750 794 
L 1409 794 
L 1409 256 
L 897 -744 
L 494 -744 
L 750 256 
L 750 794 
z
" transform="scale(0.015625)"/>
      <path id="DejaVuSans-43" d="M 4122 4306 
L 4122 3641 
Q 3803 3938 3442 4084 
Q 3081 4231 2675 4231 
Q 1875 4231 1450 3742 
Q 1025 3253 1025 2328 
Q 1025 1406 1450 917 
Q 1875 428 2675 428 
Q 3081 428 3442 575 
Q 3803 722 4122 1019 
L 4122 359 
Q 3791 134 3420 21 
Q 3050 -91 2638 -91 
Q 1578 -91 968 557 
Q 359 1206 359 2328 
Q 359 3453 968 4101 
Q 1578 4750 2638 4750 
Q 3056 4750 3426 4639 
Q 3797 4528 4122 4306 
z
" transform="scale(0.015625)"/>
      <path id="DejaVuSans-64" d="M 2906 2969 
L 2906 4863 
L 3481 4863 
L 3481 0 
L 2906 0 
L 2906 525 
Q 2725 213 2448 61 
Q 2172 -91 1784 -91 
Q 1150 -91 751 415 
Q 353 922 353 1747 
Q 353 2572 751 3078 
Q 1150 3584 1784 3584 
Q 2172 3584 2448 3432 
Q 2725 3281 2906 2969 
z
M 947 1747 
Q 947 1113 1208 752 
Q 1469 391 1925 391 
Q 2381 391 2643 752 
Q 2906 1113 2906 1747 
Q 2906 2381 2643 2742 
Q 2381 3103 1925 3103 
Q 1469 3103 1208 2742 
Q 947 2381 947 1747 
z
" transform="scale(0.015625)"/>
      <path id="DejaVuSans-61" d="M 2194 1759 
Q 1497 1759 1228 1600 
Q 959 1441 959 1056 
Q 959 750 1161 570 
Q 1363 391 1709 391 
Q 2188 391 2477 730 
Q 2766 1069 2766 1631 
L 2766 1759 
L 2194 1759 
z
M 3341 1997 
L 3341 0 
L 2766 0 
L 2766 531 
Q 2569 213 2275 61 
Q 1981 -91 1556 -91 
Q 1019 -91 701 211 
Q 384 513 384 1019 
Q 384 1609 779 1909 
Q 1175 2209 1959 2209 
L 2766 2209 
L 2766 2266 
Q 2766 2663 2505 2880 
Q 2244 3097 1772 3097 
Q 1472 3097 1187 3025 
Q 903 2953 641 2809 
L 641 3341 
Q 956 3463 1253 3523 
Q 1550 3584 1831 3584 
Q 2591 3584 2966 3190 
Q 3341 2797 3341 1997 
z
" transform="scale(0.015625)"/>
      <path id="DejaVuSans-6e" d="M 3513 2113 
L 3513 0 
L 2938 0 
L 2938 2094 
Q 2938 2591 2744 2837 
Q 2550 3084 2163 3084 
Q 1697 3084 1428 2787 
Q 1159 2491 1159 1978 
L 1159 0 
L 581 0 
L 581 3500 
L 1159 3500 
L 1159 2956 
Q 1366 3272 1645 3428 
Q 1925 3584 2291 3584 
Q 2894 3584 3203 3211 
Q 3513 2838 3513 2113 
z
" transform="scale(0.015625)"/>
     </defs>
     <use xlink:href="#DejaVuSans-46"/>
     <use xlink:href="#DejaVuSans-34" transform="translate(57.519531 0)"/>
     <use xlink:href="#DejaVuSans-2c" transform="translate(121.142578 0)"/>
     <use xlink:href="#DejaVuSans-20" transform="translate(152.929688 0)"/>
     <use xlink:href="#DejaVuSans-46" transform="translate(184.716797 0)"/>
     <use xlink:href="#DejaVuSans-43" transform="translate(242.236328 0)"/>
     <use xlink:href="#DejaVuSans-34" transform="translate(312.060547 0)"/>
     <use xlink:href="#DejaVuSans-2c" transform="translate(375.683594 0)"/>
     <use xlink:href="#DejaVuSans-20" transform="translate(407.470703 0)"/>
     <use xlink:href="#DejaVuSans-46" transform="translate(439.257812 0)"/>
     <use xlink:href="#DejaVuSans-33" transform="translate(496.777344 0)"/>
     <use xlink:href="#DejaVuSans-2c" transform="translate(560.400391 0)"/>
     <use xlink:href="#DejaVuSans-20" transform="translate(592.1875 0)"/>
     <use xlink:href="#DejaVuSans-46" transform="translate(623.974609 0)"/>
     <use xlink:href="#DejaVuSans-43" transform="translate(681.494141 0)"/>
     <use xlink:href="#DejaVuSans-33" transform="translate(751.318359 0)"/>
     <use xlink:href="#DejaVuSans-20" transform="translate(814.941406 0)"/>
     <use xlink:href="#DejaVuSans-28" transform="translate(846.728516 0)"/>
     <use xlink:href="#DejaVuSans-6d" transform="translate(885.742188 0)"/>
     <use xlink:href="#DejaVuSans-65" transform="translate(983.154297 0)"/>
     <use xlink:href="#DejaVuSans-64" transform="translate(1044.677734 0)"/>
     <use xlink:href="#DejaVuSans-69" transform="translate(1108.154297 0)"/>
     <use xlink:href="#DejaVuSans-61" transform="translate(1135.9375 0)"/>
     <use xlink:href="#DejaVuSans-6e" transform="translate(1197.216797 0)"/>
     <use xlink:href="#DejaVuSans-29" transform="translate(1260.595703 0)"/>
    </g>
   </g>
   <g id="legend_1">
    <g id="patch_6">
     <path d="M 61.323678 55.75274 
L 142.465865 55.75274 
Q 144.465865 55.75274 144.465865 53.75274 
L 144.465865 25.118365 
Q 144.465865 23.118365 142.465865 23.118365 
L 61.323678 23.118365 
Q 59.323678 23.118365 59.323678 25.118365 
L 59.323678 53.75274 
Q 59.323678 55.75274 61.323678 55.75274 
z
" style="fill: #ffffff; opacity: 0.8; stroke: #cccccc; stroke-linejoin: miter"/>
    </g>
    <g id="line2d_19">
     <path d="M 63.323678 31.216803 
L 73.323678 31.216803 
L 83.323678 31.216803 
" style="fill: none; stroke: #1f77b4; stroke-width: 1.5; stroke-linecap: square"/>
    </g>
    <g id="text_22">
     <!-- eerie -->
     <g transform="translate(91.323678 34.716803) scale(0.1 -0.1)">
      <defs>
       <path id="DejaVuSans-72" d="M 2631 2963 
Q 2534 3019 2420 3045 
Q 2306 3072 2169 3072 
Q 1681 3072 1420 2755 
Q 1159 2438 1159 1844 
L 1159 0 
L 581 0 
L 581 3500 
L 1159 3500 
L 1159 2956 
Q 1341 3275 1631 3429 
Q 1922 3584 2338 3584 
Q 2397 3584 2469 3576 
Q 2541 3569 2628 3553 
L 2631 2963 
z
" transform="scale(0.015625)"/>
      </defs>
      <use xlink:href="#DejaVuSans-65"/>
      <use xlink:href="#DejaVuSans-65" transform="translate(61.523438 0)"/>
      <use xlink:href="#DejaVuSans-72" transform="translate(123.046875 0)"/>
      <use xlink:href="#DejaVuSans-69" transform="translate(164.160156 0)"/>
      <use xlink:href="#DejaVuSans-65" transform="translate(191.943359 0)"/>
     </g>
    </g>
    <g id="line2d_20">
     <path d="M 63.323678 45.894928 
L 73.323678 45.894928 
L 83.323678 45.894928 
" style="fill: none; stroke: #ff7f0e; stroke-width: 1.5; stroke-linecap: square"/>
    </g>
    <g id="text_23">
     <!-- non_eerie -->
     <g transform="translate(91.323678 49.394928) scale(0.1 -0.1)">
      <defs>
       <path id="DejaVuSans-6f" d="M 1959 3097 
Q 1497 3097 1228 2736 
Q 959 2375 959 1747 
Q 959 1119 1226 758 
Q 1494 397 1959 397 
Q 2419 397 2687 759 
Q 2956 1122 2956 1747 
Q 2956 2369 2687 2733 
Q 2419 3097 1959 3097 
z
M 1959 3584 
Q 2709 3584 3137 3096 
Q 3566 2609 3566 1747 
Q 3566 888 3137 398 
Q 2709 -91 1959 -91 
Q 1206 -91 779 398 
Q 353 888 353 1747 
Q 353 2609 779 3096 
Q 1206 3584 1959 3584 
z
" transform="scale(0.015625)"/>
       <path id="DejaVuSans-5f" d="M 3263 -1063 
L 3263 -1509 
L -63 -1509 
L -63 -1063 
L 3263 -1063 
z
" transform="scale(0.015625)"/>
      </defs>
      <use xlink:href="#DejaVuSans-6e"/>
      <use xlink:href="#DejaVuSans-6f" transform="translate(63.378906 0)"/>
      <use xlink:href="#DejaVuSans-6e" transform="translate(124.560547 0)"/>
      <use xlink:href="#DejaVuSans-5f" transform="translate(187.939453 0)"/>
      <use xlink:href="#DejaVuSans-65" transform="translate(237.939453 0)"/>
      <use xlink:href="#DejaVuSans-65" transform="translate(299.462891 0)"/>
      <use xlink:href="#DejaVuSans-72" transform="translate(360.986328 0)"/>
      <use xlink:href="#DejaVuSans-69" transform="translate(402.099609 0)"/>
      <use xlink:href="#DejaVuSans-65" transform="translate(429.882812 0)"/>
     </g>
    </g>
   </g>
   <g id="FillBetweenPolyCollection_1">
    <defs>
     <path id="m1b79b8fadb" d="M 54.323677 -257.221633 
L 54.323677 -235.375283 
L 55.974977 -238.465078 
L 57.626276 -234.622175 
L 59.277575 -227.257484 
L 60.928874 -223.884356 
L 62.580173 -226.554863 
L 64.231472 -235.681484 
L 65.882771 -244.511151 
L 67.53407 -246.984958 
L 69.185369 -241.051606 
L 70.836668 -229.137946 
L 72.487967 -217.154585 
L 74.139266 -210.03444 
L 75.790565 -209.519735 
L 77.441864 -214.094938 
L 79.093163 -217.917416 
L 80.744462 -218.446316 
L 82.395761 -215.126654 
L 84.04706 -210.027178 
L 85.698359 -205.701357 
L 87.349658 -203.572232 
L 89.000957 -201.936914 
L 90.652256 -199.295884 
L 92.303555 -194.067453 
L 93.954854 -189.332977 
L 95.606153 -187.175586 
L 97.257452 -190.11781 
L 98.908751 -197.18512 
L 100.56005 -206.095407 
L 102.211349 -214.372365 
L 103.862648 -218.012368 
L 105.513947 -216.492217 
L 107.165246 -211.906196 
L 108.816546 -207.300838 
L 110.467845 -204.811247 
L 112.119144 -207.083623 
L 113.770443 -213.550654 
L 115.421742 -221.124281 
L 117.073041 -228.76984 
L 118.72434 -235.211328 
L 120.375639 -237.812965 
L 122.026938 -237.409441 
L 123.678237 -234.315178 
L 125.329536 -229.558899 
L 126.980835 -222.257501 
L 128.632134 -212.949259 
L 130.283433 -205.139661 
L 131.934732 -198.531603 
L 133.586031 -193.9335 
L 135.23733 -192.437753 
L 136.888629 -195.855033 
L 138.539928 -203.53513 
L 140.191227 -213.585873 
L 141.842526 -222.315805 
L 143.493825 -225.626495 
L 145.145124 -223.378905 
L 146.796423 -217.708998 
L 148.447722 -211.404731 
L 150.099021 -207.640133 
L 151.75032 -208.311687 
L 153.401619 -212.507378 
L 155.052918 -218.402747 
L 156.704217 -225.480951 
L 158.355516 -231.683926 
L 160.006815 -237.129521 
L 161.658114 -241.73794 
L 163.309414 -245.015925 
L 164.960713 -245.059257 
L 166.612012 -243.265299 
L 168.263311 -239.988357 
L 169.91461 -236.484144 
L 171.565909 -235.155826 
L 173.217208 -237.463962 
L 174.868507 -240.884284 
L 176.519806 -243.141002 
L 178.171105 -241.690321 
L 179.822404 -234.323223 
L 181.473703 -224.304618 
L 183.125002 -212.028936 
L 184.776301 -203.2067 
L 186.4276 -199.975032 
L 188.078899 -202.936744 
L 189.730198 -211.111895 
L 191.381497 -221.481662 
L 193.032796 -233.530537 
L 194.684095 -246.566316 
L 196.335394 -259.85817 
L 197.986693 -274.869552 
L 199.637992 -291.720498 
L 201.289291 -307.852879 
L 202.94059 -323.630525 
L 204.591889 -339.361967 
L 206.243188 -353.583828 
L 207.894487 -365.627498 
L 209.545786 -374.212368 
L 211.197085 -377.825015 
L 212.848384 -377.3354 
L 214.499683 -375.135571 
L 216.150982 -372.831872 
L 217.802282 -375.442266 
L 219.453581 -380.109819 
L 221.10488 -382.539902 
L 222.756179 -377.687089 
L 224.407478 -364.868976 
L 226.058777 -348.979664 
L 227.710076 -337.680396 
L 229.361375 -335.667332 
L 231.012674 -342.989775 
L 232.663973 -353.779099 
L 234.315272 -360.350263 
L 235.966571 -358.091592 
L 237.61787 -346.350786 
L 239.269169 -329.979369 
L 240.920468 -314.761892 
L 242.571767 -305.177289 
L 244.223066 -300.671677 
L 245.874365 -298.108302 
L 247.525664 -294.863876 
L 249.176963 -291.437068 
L 250.828262 -288.732239 
L 252.479561 -288.653219 
L 254.13086 -291.309152 
L 255.782159 -294.172457 
L 257.433458 -293.734491 
L 259.084757 -288.576755 
L 260.736056 -281.101804 
L 262.387355 -273.36263 
L 264.038654 -267.166519 
L 265.689953 -263.487776 
L 267.341252 -263.563141 
L 268.992551 -263.554654 
L 270.64385 -262.116487 
L 272.29515 -260.522955 
L 273.946449 -257.896409 
L 275.597748 -253.672811 
L 277.249047 -245.423368 
L 278.900346 -233.104096 
L 280.551645 -219.682367 
L 282.202944 -208.753713 
L 283.854243 -204.191696 
L 285.505542 -204.956418 
L 287.156841 -210.109654 
L 288.80814 -213.943726 
L 290.459439 -212.365134 
L 292.110738 -206.476029 
L 293.762037 -199.470727 
L 295.413336 -194.69648 
L 297.064635 -193.532906 
L 298.715934 -196.467058 
L 300.367233 -201.923269 
L 302.018532 -205.560266 
L 303.669831 -204.225687 
L 305.32113 -199.315046 
L 306.972429 -193.022377 
L 308.623728 -189.572604 
L 310.275027 -189.269374 
L 311.926326 -193.255605 
L 313.577625 -199.009765 
L 315.228924 -206.18952 
L 316.880223 -213.127907 
L 318.531522 -219.527388 
L 320.182821 -225.151265 
L 321.83412 -230.515345 
L 323.485419 -235.519371 
L 325.136718 -239.543249 
L 326.788018 -242.885184 
L 328.439317 -247.76858 
L 330.090616 -253.995752 
L 331.741915 -261.343075 
L 333.393214 -269.539311 
L 335.044513 -276.969281 
L 336.695812 -282.16905 
L 338.347111 -285.105321 
L 339.99841 -287.171404 
L 341.649709 -287.424889 
L 343.301008 -286.906077 
L 344.952307 -286.362831 
L 346.603606 -287.052963 
L 348.254905 -290.080472 
L 349.906204 -297.494939 
L 351.557503 -306.50746 
L 353.208802 -313.976532 
L 354.860101 -316.675517 
L 356.5114 -312.393547 
L 358.162699 -303.988108 
L 359.813998 -295.62295 
L 361.465297 -290.986719 
L 363.116596 -291.089806 
L 364.767895 -294.135674 
L 366.419194 -295.295019 
L 368.070493 -290.498627 
L 369.721792 -279.517431 
L 371.373091 -269.500452 
L 373.02439 -264.925749 
L 374.675689 -266.766755 
L 376.326988 -275.018604 
L 377.978287 -282.896554 
L 379.629586 -286.204529 
L 381.280886 -284.223657 
L 382.932185 -279.568082 
L 384.583484 -278.325055 
L 386.234783 -283.680806 
L 387.886082 -293.792326 
L 389.537381 -304.460797 
L 391.18868 -307.720445 
L 392.839979 -303.243909 
L 394.491278 -293.879151 
L 396.142577 -285.855432 
L 397.793876 -282.188483 
L 399.445175 -283.530647 
L 401.096474 -286.995976 
L 402.747773 -288.604278 
L 404.399072 -287.569102 
L 406.050371 -283.888793 
L 407.70167 -279.847679 
L 409.352969 -276.514473 
L 411.004268 -273.848029 
L 412.655567 -270.259829 
L 414.306866 -264.84575 
L 415.958165 -258.188995 
L 417.609464 -252.149991 
L 419.260763 -249.002009 
L 420.912062 -249.195795 
L 422.563361 -248.859802 
L 424.21466 -247.981653 
L 425.865959 -245.476146 
L 427.517258 -242.715777 
L 429.168557 -241.018478 
L 430.819856 -243.24082 
L 432.471155 -246.039421 
L 434.122455 -248.356469 
L 435.773754 -247.867003 
L 437.425053 -245.401628 
L 439.076352 -242.349128 
L 440.727651 -239.79977 
L 442.37895 -238.454481 
L 444.030249 -237.524325 
L 445.681548 -235.093669 
L 447.332847 -231.78045 
L 448.984146 -229.852499 
L 450.635445 -229.752225 
L 452.286744 -233.260067 
L 453.938043 -237.83514 
L 455.589342 -240.947242 
L 457.240641 -239.333353 
L 458.89194 -233.729738 
L 460.543239 -226.044129 
L 462.194538 -219.915556 
L 463.845837 -216.61007 
L 465.497136 -216.16141 
L 467.148435 -215.870638 
L 468.799734 -213.418254 
L 470.451033 -208.275687 
L 472.102332 -201.377262 
L 473.753631 -195.933627 
L 475.40493 -193.139172 
L 477.056229 -193.060882 
L 478.707528 -192.908304 
L 480.358827 -191.851106 
L 482.010126 -189.030439 
L 483.661425 -185.128343 
L 485.312724 -182.020417 
L 486.964023 -181.010543 
L 488.615323 -182.411983 
L 490.266622 -185.785339 
L 491.917921 -189.317994 
L 493.56922 -191.597792 
L 495.220519 -193.798164 
L 496.871818 -193.977883 
L 498.523117 -191.536531 
L 500.174416 -187.831359 
L 501.825715 -183.714829 
L 503.477014 -179.910648 
L 505.128313 -178.506451 
L 506.779612 -180.688444 
L 508.430911 -184.960212 
L 510.08221 -191.077553 
L 511.733509 -196.670583 
L 513.384808 -200.221698 
L 515.036107 -201.666716 
L 516.687406 -201.559623 
L 518.338705 -202.335501 
L 519.990004 -204.696426 
L 521.641303 -208.192678 
L 523.292602 -210.812487 
L 524.943901 -209.560558 
L 526.5952 -204.821721 
L 528.246499 -199.057261 
L 529.897798 -194.22381 
L 531.549097 -191.999338 
L 533.200396 -193.656481 
L 534.851695 -194.812633 
L 536.502994 -195.015572 
L 538.154293 -192.890261 
L 539.805592 -190.418316 
L 541.456891 -191.573752 
L 543.108191 -198.399556 
L 544.75949 -207.3165 
L 546.410789 -216.80937 
L 548.062088 -221.308789 
L 549.713387 -220.08598 
L 551.364686 -215.957044 
L 553.015985 -213.255483 
L 554.667284 -215.571795 
L 556.318583 -220.694971 
L 557.969882 -226.351355 
L 559.621181 -229.477068 
L 561.27248 -227.932105 
L 561.27248 -261.510298 
L 561.27248 -261.510298 
L 559.621181 -263.115819 
L 557.969882 -261.580459 
L 556.318583 -258.308246 
L 554.667284 -254.023176 
L 553.015985 -251.089712 
L 551.364686 -251.178363 
L 549.713387 -252.292951 
L 548.062088 -252.432545 
L 546.410789 -248.466478 
L 544.75949 -240.965906 
L 543.108191 -233.046799 
L 541.456891 -227.4056 
L 539.805592 -225.516958 
L 538.154293 -226.931014 
L 536.502994 -229.021805 
L 534.851695 -229.770966 
L 533.200396 -229.237923 
L 531.549097 -229.085645 
L 529.897798 -231.42201 
L 528.246499 -234.995614 
L 526.5952 -239.104829 
L 524.943901 -241.968803 
L 523.292602 -241.699578 
L 521.641303 -237.716261 
L 519.990004 -233.755242 
L 518.338705 -230.09761 
L 516.687406 -227.526688 
L 515.036107 -226.110842 
L 513.384808 -224.60216 
L 511.733509 -222.439614 
L 510.08221 -218.527762 
L 508.430911 -213.726893 
L 506.779612 -210.669112 
L 505.128313 -209.386821 
L 503.477014 -210.488815 
L 501.825715 -213.863262 
L 500.174416 -216.644117 
L 498.523117 -220.018975 
L 496.871818 -222.838271 
L 495.220519 -223.238582 
L 493.56922 -222.020338 
L 491.917921 -219.030585 
L 490.266622 -215.882776 
L 488.615323 -213.228328 
L 486.964023 -212.113459 
L 485.312724 -213.174255 
L 483.661425 -216.306882 
L 482.010126 -220.06122 
L 480.358827 -223.554022 
L 478.707528 -225.381624 
L 477.056229 -225.152643 
L 475.40493 -224.748136 
L 473.753631 -227.219172 
L 472.102332 -232.232009 
L 470.451033 -238.672741 
L 468.799734 -244.400833 
L 467.148435 -246.765148 
L 465.497136 -245.505496 
L 463.845837 -244.710373 
L 462.194538 -247.180697 
L 460.543239 -254.064591 
L 458.89194 -262.717921 
L 457.240641 -270.200845 
L 455.589342 -272.848961 
L 453.938043 -268.504433 
L 452.286744 -262.404217 
L 450.635445 -257.827699 
L 448.984146 -258.109303 
L 447.332847 -262.234246 
L 445.681548 -267.670024 
L 444.030249 -272.133671 
L 442.37895 -275.132181 
L 440.727651 -277.683204 
L 439.076352 -280.931436 
L 437.425053 -284.37699 
L 435.773754 -287.038374 
L 434.122455 -287.696443 
L 432.471155 -284.383142 
L 430.819856 -280.038683 
L 429.168557 -276.328934 
L 427.517258 -276.212984 
L 425.865959 -278.28665 
L 424.21466 -280.673425 
L 422.563361 -281.603413 
L 420.912062 -281.913316 
L 419.260763 -282.23032 
L 417.609464 -284.774452 
L 415.958165 -290.056764 
L 414.306866 -295.331767 
L 412.655567 -300.905134 
L 411.004268 -305.134786 
L 409.352969 -308.30627 
L 407.70167 -312.146861 
L 406.050371 -316.503742 
L 404.399072 -320.153856 
L 402.747773 -322.151516 
L 401.096474 -321.414751 
L 399.445175 -318.440458 
L 397.793876 -317.254525 
L 396.142577 -319.870031 
L 394.491278 -327.641117 
L 392.839979 -336.79786 
L 391.18868 -341.136359 
L 389.537381 -337.684187 
L 387.886082 -328.41964 
L 386.234783 -318.244437 
L 384.583484 -312.285563 
L 382.932185 -312.924017 
L 381.280886 -316.863935 
L 379.629586 -319.639191 
L 377.978287 -317.237508 
L 376.326988 -309.405392 
L 374.675689 -301.694044 
L 373.02439 -298.137865 
L 371.373091 -300.450121 
L 369.721792 -308.745822 
L 368.070493 -319.732421 
L 366.419194 -327.710524 
L 364.767895 -330.008514 
L 363.116596 -328.491849 
L 361.465297 -327.475217 
L 359.813998 -330.421974 
L 358.162699 -336.229941 
L 356.5114 -343.301259 
L 354.860101 -346.09682 
L 353.208802 -344.524522 
L 351.557503 -338.89701 
L 349.906204 -331.983364 
L 348.254905 -325.883285 
L 346.603606 -322.531881 
L 344.952307 -322.219332 
L 343.301008 -322.937815 
L 341.649709 -324.12174 
L 339.99841 -324.259939 
L 338.347111 -322.578225 
L 336.695812 -320.14589 
L 335.044513 -314.904216 
L 333.393214 -307.145032 
L 331.741915 -296.769896 
L 330.090616 -288.005632 
L 328.439317 -279.641822 
L 326.788018 -273.249294 
L 325.136718 -267.879447 
L 323.485419 -263.68824 
L 321.83412 -257.839639 
L 320.182821 -251.6702 
L 318.531522 -245.623368 
L 316.880223 -239.037905 
L 315.228924 -232.009572 
L 313.577625 -226.668337 
L 311.926326 -222.585174 
L 310.275027 -221.66473 
L 308.623728 -223.045238 
L 306.972429 -226.631241 
L 305.32113 -231.563316 
L 303.669831 -235.580272 
L 302.018532 -236.368604 
L 300.367233 -231.163399 
L 298.715934 -224.648338 
L 297.064635 -221.761737 
L 295.413336 -222.499518 
L 293.762037 -227.168026 
L 292.110738 -235.380974 
L 290.459439 -242.946522 
L 288.80814 -245.570905 
L 287.156841 -242.36731 
L 285.505542 -237.194573 
L 283.854243 -235.668602 
L 282.202944 -239.959885 
L 280.551645 -250.662981 
L 278.900346 -264.507917 
L 277.249047 -277.161546 
L 275.597748 -285.768291 
L 273.946449 -291.315506 
L 272.29515 -294.284334 
L 270.64385 -296.582317 
L 268.992551 -298.619767 
L 267.341252 -298.93306 
L 265.689953 -299.364914 
L 264.038654 -301.277631 
L 262.387355 -306.945397 
L 260.736056 -313.715545 
L 259.084757 -320.232332 
L 257.433458 -324.453615 
L 255.782159 -324.502474 
L 254.13086 -321.395643 
L 252.479561 -317.743536 
L 250.828262 -317.818849 
L 249.176963 -320.873768 
L 247.525664 -324.794418 
L 245.874365 -328.469521 
L 244.223066 -331.206852 
L 242.571767 -334.793615 
L 240.920468 -344.552546 
L 239.269169 -359.717834 
L 237.61787 -377.323664 
L 235.966571 -390.654528 
L 234.315272 -394.338965 
L 232.663973 -387.653391 
L 231.012674 -375.362371 
L 229.361375 -365.973818 
L 227.710076 -367.473542 
L 226.058777 -379.117463 
L 224.407478 -395.482991 
L 222.756179 -408.288411 
L 221.10488 -413.881635 
L 219.453581 -411.815123 
L 217.802282 -407.112441 
L 216.150982 -404.450068 
L 214.499683 -405.546932 
L 212.848384 -408.01472 
L 211.197085 -409.747062 
L 209.545786 -406.003759 
L 207.894487 -397.234893 
L 206.243188 -384.868337 
L 204.591889 -369.969762 
L 202.94059 -354.096498 
L 201.289291 -339.295697 
L 199.637992 -324.819887 
L 197.986693 -309.231832 
L 196.335394 -292.618606 
L 194.684095 -276.791053 
L 193.032796 -260.979298 
L 191.381497 -247.637599 
L 189.730198 -238.122563 
L 188.078899 -231.753928 
L 186.4276 -229.368618 
L 184.776301 -232.008521 
L 183.125002 -239.504601 
L 181.473703 -250.016203 
L 179.822404 -260.149154 
L 178.171105 -266.473019 
L 176.519806 -268.313484 
L 174.868507 -266.342245 
L 173.217208 -263.412133 
L 171.565909 -261.265044 
L 169.91461 -262.185763 
L 168.263311 -265.257675 
L 166.612012 -267.215584 
L 164.960713 -267.975364 
L 163.309414 -267.532083 
L 161.658114 -265.621669 
L 160.006815 -262.674803 
L 158.355516 -257.950952 
L 156.704217 -251.017091 
L 155.052918 -243.765355 
L 153.401619 -237.076795 
L 151.75032 -232.291544 
L 150.099021 -231.248232 
L 148.447722 -234.503704 
L 146.796423 -240.610455 
L 145.145124 -245.903521 
L 143.493825 -248.118439 
L 141.842526 -243.187749 
L 140.191227 -232.841362 
L 138.539928 -222.246785 
L 136.888629 -214.503196 
L 135.23733 -211.761226 
L 133.586031 -213.128348 
L 131.934732 -217.385648 
L 130.283433 -223.328184 
L 128.632134 -230.780026 
L 126.980835 -239.061338 
L 125.329536 -246.237557 
L 123.678237 -252.295694 
L 122.026938 -256.234215 
L 120.375639 -256.374625 
L 118.72434 -251.378208 
L 117.073041 -242.268585 
L 115.421742 -232.953062 
L 113.770443 -225.31068 
L 112.119144 -220.081197 
L 110.467845 -218.621578 
L 108.816546 -221.671588 
L 107.165246 -226.511272 
L 105.513947 -231.388176 
L 103.862648 -233.314463 
L 102.211349 -230.062878 
L 100.56005 -221.968145 
L 98.908751 -212.3939 
L 97.257452 -204.455182 
L 95.606153 -201.413962 
L 93.954854 -202.957234 
L 92.303555 -207.156927 
L 90.652256 -212.038261 
L 89.000957 -215.311485 
L 87.349658 -218.663785 
L 85.698359 -221.809942 
L 84.04706 -226.469333 
L 82.395761 -230.52673 
L 80.744462 -232.564172 
L 79.093163 -231.069177 
L 77.441864 -226.524781 
L 75.790565 -222.572462 
L 74.139266 -224.536533 
L 72.487967 -233.508952 
L 70.836668 -247.040342 
L 69.185369 -260.569891 
L 67.53407 -267.585574 
L 65.882771 -264.557585 
L 64.231472 -254.817555 
L 62.580173 -245.926089 
L 60.928874 -243.775032 
L 59.277575 -248.463695 
L 57.626276 -256.346497 
L 55.974977 -260.693418 
L 54.323677 -257.221633 
z
" style="stroke: #1f77b4; stroke-opacity: 0.3"/>
    </defs>
    <g>
     <use xlink:href="#m1b79b8fadb" x="0" y="432" style="fill: #1f77b4; fill-opacity: 0.3; stroke: #1f77b4; stroke-opacity: 0.3"/>
    </g>
   </g>
   <g id="FillBetweenPolyCollection_2">
    <defs>
     <path id="m2536e142cd" d="M 54.323677 -219.459979 
L 54.323677 -215.079301 
L 55.974977 -215.128996 
L 57.626276 -214.829834 
L 59.277575 -213.202865 
L 60.928874 -209.949711 
L 62.580173 -205.981462 
L 64.231472 -202.938222 
L 65.882771 -202.564727 
L 67.53407 -205.288691 
L 69.185369 -209.970169 
L 70.836668 -215.044153 
L 72.487967 -218.928604 
L 74.139266 -220.833232 
L 75.790565 -220.87896 
L 77.441864 -219.865351 
L 79.093163 -218.86438 
L 80.744462 -218.384399 
L 82.395761 -218.300889 
L 84.04706 -218.611556 
L 85.698359 -219.459868 
L 87.349658 -221.036148 
L 89.000957 -223.042182 
L 90.652256 -225.196274 
L 92.303555 -227.170812 
L 93.954854 -228.298095 
L 95.606153 -228.949309 
L 97.257452 -229.561728 
L 98.908751 -230.156386 
L 100.56005 -230.983523 
L 102.211349 -231.649483 
L 103.862648 -231.68131 
L 105.513947 -230.882937 
L 107.165246 -229.475679 
L 108.816546 -228.323352 
L 110.467845 -227.486458 
L 112.119144 -226.758144 
L 113.770443 -226.052303 
L 115.421742 -225.45205 
L 117.073041 -225.344092 
L 118.72434 -226.008368 
L 120.375639 -227.601278 
L 122.026938 -229.406466 
L 123.678237 -230.219581 
L 125.329536 -228.880216 
L 126.980835 -225.841312 
L 128.632134 -222.300456 
L 130.283433 -219.910619 
L 131.934732 -219.540242 
L 133.586031 -220.571135 
L 135.23733 -221.744885 
L 136.888629 -221.679987 
L 138.539928 -220.30365 
L 140.191227 -219.314794 
L 141.842526 -220.204326 
L 143.493825 -222.927662 
L 145.145124 -226.188995 
L 146.796423 -228.619997 
L 148.447722 -229.513783 
L 150.099021 -229.258416 
L 151.75032 -228.870293 
L 153.401619 -229.592347 
L 155.052918 -231.612871 
L 156.704217 -233.880421 
L 158.355516 -235.059153 
L 160.006815 -234.648045 
L 161.658114 -233.064678 
L 163.309414 -231.108749 
L 164.960713 -229.612572 
L 166.612012 -228.743856 
L 168.263311 -228.038457 
L 169.91461 -227.078613 
L 171.565909 -225.914079 
L 173.217208 -224.294808 
L 174.868507 -221.909439 
L 176.519806 -218.507508 
L 178.171105 -213.457508 
L 179.822404 -207.168999 
L 181.473703 -200.797514 
L 183.125002 -196.183247 
L 184.776301 -194.531801 
L 186.4276 -196.846556 
L 188.078899 -203.017275 
L 189.730198 -212.337308 
L 191.381497 -224.686056 
L 193.032796 -239.941344 
L 194.684095 -258.229892 
L 196.335394 -278.589462 
L 197.986693 -299.92339 
L 199.637992 -319.689532 
L 201.289291 -336.287457 
L 202.94059 -348.9296 
L 204.591889 -357.531416 
L 206.243188 -363.117122 
L 207.894487 -366.455359 
L 209.545786 -367.895061 
L 211.197085 -367.997454 
L 212.848384 -367.368647 
L 214.499683 -366.666857 
L 216.150982 -366.268395 
L 217.802282 -366.025339 
L 219.453581 -365.155161 
L 221.10488 -363.41771 
L 222.756179 -361.070293 
L 224.407478 -358.605208 
L 226.058777 -356.753088 
L 227.710076 -355.872802 
L 229.361375 -354.806476 
L 231.012674 -351.931196 
L 232.663973 -346.622574 
L 234.315272 -339.066368 
L 235.966571 -330.871167 
L 237.61787 -323.566996 
L 239.269169 -317.528845 
L 240.920468 -311.713506 
L 242.571767 -304.985511 
L 244.223066 -296.808804 
L 245.874365 -287.48101 
L 247.525664 -278.645669 
L 249.176963 -271.413115 
L 250.828262 -266.48902 
L 252.479561 -263.262228 
L 254.13086 -261.331396 
L 255.782159 -260.114725 
L 257.433458 -259.724329 
L 259.084757 -259.945798 
L 260.736056 -260.465465 
L 262.387355 -260.281112 
L 264.038654 -258.615812 
L 265.689953 -255.101662 
L 267.341252 -250.758804 
L 268.992551 -247.11075 
L 270.64385 -246.015584 
L 272.29515 -247.921273 
L 273.946449 -251.628009 
L 275.597748 -255.222097 
L 277.249047 -257.452825 
L 278.900346 -258.010205 
L 280.551645 -257.330549 
L 282.202944 -256.450127 
L 283.854243 -256.358362 
L 285.505542 -257.136647 
L 287.156841 -258.937262 
L 288.80814 -261.351301 
L 290.459439 -263.976021 
L 292.110738 -266.22926 
L 293.762037 -267.459841 
L 295.413336 -267.505077 
L 297.064635 -266.482197 
L 298.715934 -264.597415 
L 300.367233 -262.383372 
L 302.018532 -259.850662 
L 303.669831 -256.984374 
L 305.32113 -253.542027 
L 306.972429 -249.636021 
L 308.623728 -245.63381 
L 310.275027 -241.930884 
L 311.926326 -238.673126 
L 313.577625 -235.291483 
L 315.228924 -231.180225 
L 316.880223 -226.645862 
L 318.531522 -222.69584 
L 320.182821 -220.843713 
L 321.83412 -221.701893 
L 323.485419 -224.574196 
L 325.136718 -227.583972 
L 326.788018 -228.696102 
L 328.439317 -226.720154 
L 330.090616 -222.682549 
L 331.741915 -219.236095 
L 333.393214 -218.713523 
L 335.044513 -221.676531 
L 336.695812 -226.427867 
L 338.347111 -230.547427 
L 339.99841 -232.085692 
L 341.649709 -231.16968 
L 343.301008 -229.600086 
L 344.952307 -229.048987 
L 346.603606 -230.432515 
L 348.254905 -232.841537 
L 349.906204 -234.808505 
L 351.557503 -234.83925 
L 353.208802 -233.009316 
L 354.860101 -230.855154 
L 356.5114 -229.822193 
L 358.162699 -230.391911 
L 359.813998 -231.296969 
L 361.465297 -230.747409 
L 363.116596 -228.004342 
L 364.767895 -223.694317 
L 366.419194 -219.663562 
L 368.070493 -217.432773 
L 369.721792 -217.639695 
L 371.373091 -219.048106 
L 373.02439 -219.961236 
L 374.675689 -220.04525 
L 376.326988 -219.503593 
L 377.978287 -220.036344 
L 379.629586 -222.338466 
L 381.280886 -225.98121 
L 382.932185 -229.348825 
L 384.583484 -230.624931 
L 386.234783 -229.246448 
L 387.886082 -226.464096 
L 389.537381 -224.009234 
L 391.18868 -223.72299 
L 392.839979 -225.312714 
L 394.491278 -227.480279 
L 396.142577 -228.445946 
L 397.793876 -227.397444 
L 399.445175 -225.082418 
L 401.096474 -223.116074 
L 402.747773 -222.722648 
L 404.399072 -223.847599 
L 406.050371 -225.588378 
L 407.70167 -226.906159 
L 409.352969 -227.165985 
L 411.004268 -226.364377 
L 412.655567 -225.298352 
L 414.306866 -224.863828 
L 415.958165 -225.069436 
L 417.609464 -225.205086 
L 419.260763 -224.983018 
L 420.912062 -224.472113 
L 422.563361 -225.227349 
L 424.21466 -227.66997 
L 425.865959 -231.611107 
L 427.517258 -236.500629 
L 429.168557 -240.858044 
L 430.819856 -243.602319 
L 432.471155 -244.401093 
L 434.122455 -244.028857 
L 435.773754 -242.892973 
L 437.425053 -241.374286 
L 439.076352 -239.849732 
L 440.727651 -238.67702 
L 442.37895 -238.374561 
L 444.030249 -239.273863 
L 445.681548 -241.572557 
L 447.332847 -244.575271 
L 448.984146 -247.151542 
L 450.635445 -247.927689 
L 452.286744 -246.792005 
L 453.938043 -244.913837 
L 455.589342 -243.752738 
L 457.240641 -244.405562 
L 458.89194 -247.064766 
L 460.543239 -251.125698 
L 462.194538 -254.697044 
L 463.845837 -256.606173 
L 465.497136 -257.109776 
L 467.148435 -257.452225 
L 468.799734 -258.841852 
L 470.451033 -260.961027 
L 472.102332 -263.236581 
L 473.753631 -264.677739 
L 475.40493 -264.934767 
L 477.056229 -264.163408 
L 478.707528 -263.995654 
L 480.358827 -265.434489 
L 482.010126 -267.857531 
L 483.661425 -269.969212 
L 485.312724 -270.27576 
L 486.964023 -268.417307 
L 488.615323 -265.492088 
L 490.266622 -263.658968 
L 491.917921 -264.215984 
L 493.56922 -267.187731 
L 495.220519 -270.922589 
L 496.871818 -273.44642 
L 498.523117 -273.102295 
L 500.174416 -270.266819 
L 501.825715 -266.791294 
L 503.477014 -264.088148 
L 505.128313 -262.695624 
L 506.779612 -262.202338 
L 508.430911 -261.576327 
L 510.08221 -259.958892 
L 511.733509 -257.759849 
L 513.384808 -255.860702 
L 515.036107 -254.966865 
L 516.687406 -255.148312 
L 518.338705 -255.634311 
L 519.990004 -255.894263 
L 521.641303 -255.886677 
L 523.292602 -255.940423 
L 524.943901 -256.757341 
L 526.5952 -258.758177 
L 528.246499 -261.158399 
L 529.897798 -262.627002 
L 531.549097 -262.091153 
L 533.200396 -259.526717 
L 534.851695 -255.777285 
L 536.502994 -252.555704 
L 538.154293 -250.668658 
L 539.805592 -250.2531 
L 541.456891 -250.479342 
L 543.108191 -250.19759 
L 544.75949 -248.638249 
L 546.410789 -246.089368 
L 548.062088 -244.002117 
L 549.713387 -243.482606 
L 551.364686 -244.875573 
L 553.015985 -247.274522 
L 554.667284 -249.218443 
L 556.318583 -249.560413 
L 557.969882 -247.828545 
L 559.621181 -244.591988 
L 561.27248 -241.889608 
L 561.27248 -248.419541 
L 561.27248 -248.419541 
L 559.621181 -251.062107 
L 557.969882 -254.183185 
L 556.318583 -255.975568 
L 554.667284 -255.584891 
L 553.015985 -253.494994 
L 551.364686 -251.240846 
L 549.713387 -249.976501 
L 548.062088 -250.411642 
L 546.410789 -252.454002 
L 544.75949 -254.86506 
L 543.108191 -256.500498 
L 541.456891 -256.8692 
L 539.805592 -256.651253 
L 538.154293 -257.147836 
L 536.502994 -259.124318 
L 534.851695 -262.390414 
L 533.200396 -266.323364 
L 531.549097 -268.947407 
L 529.897798 -269.595023 
L 528.246499 -268.075717 
L 526.5952 -265.554783 
L 524.943901 -263.312365 
L 523.292602 -262.252914 
L 521.641303 -262.167143 
L 519.990004 -262.255836 
L 518.338705 -262.070301 
L 516.687406 -261.533238 
L 515.036107 -261.349014 
L 513.384808 -262.062643 
L 511.733509 -263.947398 
L 510.08221 -266.156463 
L 508.430911 -267.71953 
L 506.779612 -268.494926 
L 505.128313 -269.104744 
L 503.477014 -270.531532 
L 501.825715 -273.238885 
L 500.174416 -276.775575 
L 498.523117 -279.627017 
L 496.871818 -279.888791 
L 495.220519 -277.587896 
L 493.56922 -273.914669 
L 491.917921 -270.90164 
L 490.266622 -270.480371 
L 488.615323 -272.243853 
L 486.964023 -275.042129 
L 485.312724 -276.725781 
L 483.661425 -276.292121 
L 482.010126 -274.163966 
L 480.358827 -271.696214 
L 478.707528 -270.42046 
L 477.056229 -270.579966 
L 475.40493 -271.365133 
L 473.753631 -271.282002 
L 472.102332 -269.813272 
L 470.451033 -267.468294 
L 468.799734 -265.162133 
L 467.148435 -263.886387 
L 465.497136 -263.652911 
L 463.845837 -263.122796 
L 462.194538 -261.230722 
L 460.543239 -257.716508 
L 458.89194 -253.839358 
L 457.240641 -251.177883 
L 455.589342 -250.511355 
L 453.938043 -251.647378 
L 452.286744 -253.523732 
L 450.635445 -254.662986 
L 448.984146 -253.987252 
L 447.332847 -251.369749 
L 445.681548 -248.218389 
L 444.030249 -245.838463 
L 442.37895 -244.872026 
L 440.727651 -245.152224 
L 439.076352 -246.32346 
L 437.425053 -247.709348 
L 435.773754 -249.180351 
L 434.122455 -250.476533 
L 432.471155 -250.900591 
L 430.819856 -250.222843 
L 429.168557 -247.416565 
L 427.517258 -242.931101 
L 425.865959 -237.848389 
L 424.21466 -233.610267 
L 422.563361 -231.17943 
L 420.912062 -230.635169 
L 419.260763 -231.229324 
L 417.609464 -231.708349 
L 415.958165 -231.683837 
L 414.306866 -231.630845 
L 412.655567 -232.055506 
L 411.004268 -233.06221 
L 409.352969 -233.755081 
L 407.70167 -233.424337 
L 406.050371 -232.007808 
L 404.399072 -230.16741 
L 402.747773 -228.969684 
L 401.096474 -229.468578 
L 399.445175 -231.46291 
L 397.793876 -233.828173 
L 396.142577 -234.88876 
L 394.491278 -233.856201 
L 392.839979 -231.690666 
L 391.18868 -230.076634 
L 389.537381 -230.422163 
L 387.886082 -232.77137 
L 386.234783 -235.515358 
L 384.583484 -236.713922 
L 382.932185 -235.25379 
L 381.280886 -231.802841 
L 379.629586 -228.125703 
L 377.978287 -225.906287 
L 376.326988 -225.506801 
L 374.675689 -226.255358 
L 373.02439 -226.463826 
L 371.373091 -225.699544 
L 369.721792 -224.389948 
L 368.070493 -224.274715 
L 366.419194 -226.5516 
L 364.767895 -230.383602 
L 363.116596 -234.478457 
L 361.465297 -237.127993 
L 359.813998 -237.694705 
L 358.162699 -236.673904 
L 356.5114 -236.086816 
L 354.860101 -237.228844 
L 353.208802 -239.425712 
L 351.557503 -241.327808 
L 349.906204 -241.120159 
L 348.254905 -239.006513 
L 346.603606 -236.404863 
L 344.952307 -234.961052 
L 343.301008 -235.482553 
L 341.649709 -237.190406 
L 339.99841 -238.066811 
L 338.347111 -236.488467 
L 336.695812 -232.393329 
L 335.044513 -227.758749 
L 333.393214 -224.853853 
L 331.741915 -225.453847 
L 330.090616 -228.986276 
L 328.439317 -233.075173 
L 326.788018 -235.101307 
L 325.136718 -234.143789 
L 323.485419 -231.031682 
L 321.83412 -228.148353 
L 320.182821 -227.310784 
L 318.531522 -229.1439 
L 316.880223 -232.90594 
L 315.228924 -237.234275 
L 313.577625 -241.211689 
L 311.926326 -244.615741 
L 310.275027 -248.010237 
L 308.623728 -251.752538 
L 306.972429 -255.576213 
L 305.32113 -259.444334 
L 303.669831 -262.818274 
L 302.018532 -265.565595 
L 300.367233 -267.937094 
L 298.715934 -270.148258 
L 297.064635 -272.107758 
L 295.413336 -273.381175 
L 293.762037 -273.516052 
L 292.110738 -272.288237 
L 290.459439 -269.993213 
L 288.80814 -267.364261 
L 287.156841 -264.892067 
L 285.505542 -263.219024 
L 283.854243 -262.502178 
L 282.202944 -262.548506 
L 280.551645 -263.257373 
L 278.900346 -263.864428 
L 277.249047 -263.255438 
L 275.597748 -260.92296 
L 273.946449 -257.194665 
L 272.29515 -253.601974 
L 270.64385 -251.735916 
L 268.992551 -252.779725 
L 267.341252 -256.374616 
L 265.689953 -260.867785 
L 264.038654 -264.562024 
L 262.387355 -266.25093 
L 260.736056 -266.392718 
L 259.084757 -265.731855 
L 257.433458 -265.370945 
L 255.782159 -265.810567 
L 254.13086 -266.97151 
L 252.479561 -268.887705 
L 250.828262 -272.100227 
L 249.176963 -277.189789 
L 247.525664 -284.456028 
L 245.874365 -293.286182 
L 244.223066 -302.5944 
L 242.571767 -310.735104 
L 240.920468 -317.447061 
L 239.269169 -323.280756 
L 237.61787 -329.406858 
L 235.966571 -336.757582 
L 234.315272 -344.821022 
L 232.663973 -352.54167 
L 231.012674 -357.820586 
L 229.361375 -360.79121 
L 227.710076 -362.122705 
L 226.058777 -363.174783 
L 224.407478 -364.852558 
L 222.756179 -367.11229 
L 221.10488 -369.526009 
L 219.453581 -371.231747 
L 217.802282 -371.896949 
L 216.150982 -372.03828 
L 214.499683 -372.383478 
L 212.848384 -373.057441 
L 211.197085 -373.540253 
L 209.545786 -373.417419 
L 207.894487 -371.899565 
L 206.243188 -368.530603 
L 204.591889 -362.851634 
L 202.94059 -354.321325 
L 201.289291 -341.864136 
L 199.637992 -325.298066 
L 197.986693 -305.605093 
L 196.335394 -284.389327 
L 194.684095 -263.918274 
L 193.032796 -245.682022 
L 191.381497 -230.45184 
L 189.730198 -218.222148 
L 188.078899 -208.725625 
L 186.4276 -202.539093 
L 184.776301 -199.97176 
L 183.125002 -201.390726 
L 181.473703 -205.928106 
L 179.822404 -212.312731 
L 178.171105 -218.586962 
L 176.519806 -223.594486 
L 174.868507 -227.111116 
L 173.217208 -229.599825 
L 171.565909 -231.208191 
L 169.91461 -232.291095 
L 168.263311 -233.237303 
L 166.612012 -233.909514 
L 164.960713 -234.714693 
L 163.309414 -236.022948 
L 161.658114 -237.801311 
L 160.006815 -239.420972 
L 158.355516 -239.808123 
L 156.704217 -238.681432 
L 155.052918 -236.464592 
L 153.401619 -234.535591 
L 151.75032 -233.747778 
L 150.099021 -234.042658 
L 148.447722 -234.302811 
L 146.796423 -233.330621 
L 145.145124 -230.878506 
L 143.493825 -227.567457 
L 141.842526 -224.837118 
L 140.191227 -223.846685 
L 138.539928 -224.718684 
L 136.888629 -225.893631 
L 135.23733 -225.870808 
L 133.586031 -224.515019 
L 131.934732 -223.25475 
L 130.283433 -223.559356 
L 128.632134 -225.930443 
L 126.980835 -229.359579 
L 125.329536 -232.458211 
L 123.678237 -233.765645 
L 122.026938 -232.927475 
L 120.375639 -231.120034 
L 118.72434 -229.485877 
L 117.073041 -228.754291 
L 115.421742 -229.050265 
L 113.770443 -229.599917 
L 112.119144 -230.202813 
L 110.467845 -230.842512 
L 108.816546 -231.701565 
L 107.165246 -232.893859 
L 105.513947 -234.260075 
L 103.862648 -235.189105 
L 102.211349 -235.167224 
L 100.56005 -234.367197 
L 98.908751 -233.331213 
L 97.257452 -232.719968 
L 95.606153 -232.287627 
L 93.954854 -231.78844 
L 92.303555 -230.646598 
L 90.652256 -228.640858 
L 89.000957 -226.462412 
L 87.349658 -224.550889 
L 85.698359 -223.042228 
L 84.04706 -222.121415 
L 82.395761 -221.686814 
L 80.744462 -221.738917 
L 79.093163 -222.231227 
L 77.441864 -223.196072 
L 75.790565 -224.283803 
L 74.139266 -224.287646 
L 72.487967 -222.551728 
L 70.836668 -218.851781 
L 69.185369 -213.799248 
L 67.53407 -209.077513 
L 65.882771 -206.36367 
L 64.231472 -206.790428 
L 62.580173 -209.927827 
L 60.928874 -214.022559 
L 59.277575 -217.51336 
L 57.626276 -219.335734 
L 55.974977 -219.567303 
L 54.323677 -219.459979 
z
" style="stroke: #ff7f0e; stroke-opacity: 0.3"/>
    </defs>
    <g>
     <use xlink:href="#m2536e142cd" x="0" y="432" style="fill: #ff7f0e; fill-opacity: 0.3; stroke: #ff7f0e; stroke-opacity: 0.3"/>
    </g>
   </g>
   <g id="line2d_21">
    <path d="M 54.323677 185.942401 
L 55.974977 182.635276 
L 57.626276 186.851867 
L 59.277575 194.092538 
L 60.928874 198.166866 
L 62.580173 195.504968 
L 65.882771 177.388287 
L 67.53407 174.418629 
L 69.185369 181.004678 
L 72.487967 206.701693 
L 74.139266 214.781726 
L 75.790565 215.904288 
L 79.093163 207.454631 
L 80.744462 206.417594 
L 82.395761 209.185417 
L 85.698359 218.508244 
L 87.349658 221.195809 
L 89.000957 223.457174 
L 90.652256 226.415854 
L 93.954854 235.532283 
L 95.606153 237.352641 
L 97.257452 234.379348 
L 98.908751 226.968506 
L 100.56005 217.792711 
L 102.211349 209.517145 
L 103.862648 205.990136 
L 105.513947 207.737468 
L 108.816546 217.72453 
L 110.467845 220.324183 
L 112.119144 218.440049 
L 113.770443 212.788004 
L 115.421742 205.276548 
L 118.72434 188.901061 
L 120.375639 184.8757 
L 122.026938 185.323985 
L 123.678237 188.85785 
L 125.329536 194.296502 
L 126.980835 201.492489 
L 128.632134 210.085138 
L 130.283433 217.766104 
L 131.934732 223.768731 
L 133.586031 228.331344 
L 135.23733 229.90912 
L 136.888629 226.65718 
L 138.539928 218.973702 
L 140.191227 208.556435 
L 141.842526 199.005823 
L 143.493825 194.782577 
L 145.145124 197.026196 
L 146.796423 202.643918 
L 148.447722 208.869576 
L 150.099021 212.40909 
L 151.75032 211.749033 
L 153.401619 207.383415 
L 155.052918 201.021237 
L 156.704217 193.720007 
L 158.355516 187.332881 
L 160.006815 182.435169 
L 161.658114 178.561032 
L 163.309414 175.984658 
L 164.960713 175.318635 
L 166.612012 176.595013 
L 169.91461 182.337624 
L 171.565909 183.358298 
L 173.217208 181.40142 
L 174.868507 178.198087 
L 176.519806 175.875709 
L 178.171105 177.879994 
L 179.822404 184.755769 
L 183.125002 206.5391 
L 184.776301 214.559532 
L 186.4276 217.342519 
L 188.078899 214.792984 
L 189.730198 207.453267 
L 191.381497 197.159774 
L 193.032796 184.37608 
L 196.335394 155.699418 
L 199.637992 123.650137 
L 206.243188 63.277005 
L 207.894487 51.026445 
L 209.545786 42.324658 
L 211.197085 38.666705 
L 212.848384 39.624352 
L 214.499683 41.62059 
L 216.150982 43.228399 
L 217.802282 40.54577 
L 219.453581 35.804289 
L 221.10488 33.563198 
L 222.756179 38.74871 
L 224.407478 51.554413 
L 226.058777 67.48063 
L 227.710076 78.832217 
L 229.361375 80.664234 
L 231.012674 72.320596 
L 232.663973 60.799979 
L 234.315272 54.086229 
L 235.966571 57.104393 
L 237.61787 69.757665 
L 239.269169 86.658106 
L 240.920468 101.791841 
L 242.571767 111.403205 
L 244.223066 115.558805 
L 245.874365 118.297842 
L 247.525664 121.793215 
L 249.176963 125.797381 
L 250.828262 128.451802 
L 252.479561 128.449757 
L 255.782159 122.243757 
L 257.433458 122.504491 
L 259.084757 127.062465 
L 262.387355 141.662483 
L 264.038654 147.72883 
L 265.689953 150.382337 
L 268.992551 150.838593 
L 270.64385 152.239325 
L 272.29515 154.309323 
L 273.946449 157.044954 
L 275.597748 161.863356 
L 277.249047 170.606996 
L 278.900346 182.9735 
L 280.551645 196.80298 
L 282.202944 207.290791 
L 283.854243 211.727821 
L 285.505542 210.456713 
L 287.156841 205.681124 
L 288.80814 202.45238 
L 290.459439 204.572282 
L 292.110738 210.910137 
L 293.762037 218.626652 
L 295.413336 223.373495 
L 297.064635 224.082452 
L 298.715934 221.157739 
L 300.367233 215.533469 
L 302.018532 211.373997 
L 303.669831 212.234309 
L 305.32113 216.913507 
L 306.972429 222.391062 
L 308.623728 226.016118 
L 310.275027 226.648566 
L 311.926326 224.174439 
L 313.577625 219.319044 
L 315.228924 213.122794 
L 318.531522 199.752412 
L 321.83412 187.965442 
L 323.485419 182.827575 
L 325.136718 178.636454 
L 326.788018 173.989722 
L 328.439317 167.952555 
L 330.090616 160.853794 
L 331.741915 152.625035 
L 333.393214 143.668066 
L 335.044513 135.901373 
L 336.695812 130.963873 
L 338.347111 128.067202 
L 339.99841 126.282465 
L 341.649709 125.953494 
L 343.301008 126.903746 
L 344.952307 127.451792 
L 346.603606 126.98506 
L 348.254905 123.597266 
L 349.906204 117.096224 
L 351.557503 109.247699 
L 353.208802 103.043563 
L 354.860101 101.156668 
L 356.5114 104.905648 
L 359.813998 119.043697 
L 361.465297 122.486313 
L 363.116596 121.889075 
L 364.767895 119.44076 
L 366.419194 120.144914 
L 368.070493 126.842617 
L 369.721792 137.639749 
L 371.373091 146.922926 
L 373.02439 150.548608 
L 374.675689 147.564486 
L 377.978287 132.244052 
L 379.629586 129.259257 
L 381.280886 131.866687 
L 382.932185 136.150788 
L 384.583484 136.691338 
L 386.234783 130.761092 
L 389.537381 110.927796 
L 391.18868 107.521981 
L 392.839979 112.226244 
L 394.491278 121.459323 
L 396.142577 129.782801 
L 397.793876 132.899051 
L 399.445175 131.457775 
L 401.096474 128.04752 
L 402.747773 126.434998 
L 404.399072 127.958167 
L 406.050371 131.763423 
L 407.70167 136.049451 
L 409.352969 139.487437 
L 411.004268 142.6615 
L 412.655567 146.694914 
L 414.306866 151.801198 
L 415.958165 157.831782 
L 417.609464 163.439205 
L 419.260763 166.207114 
L 422.563361 166.562283 
L 424.21466 167.694498 
L 427.517258 172.804763 
L 429.168557 172.955591 
L 430.819856 169.948683 
L 432.471155 166.102712 
L 434.122455 163.667651 
L 435.773754 164.046494 
L 437.425053 166.599024 
L 439.076352 170.017004 
L 440.727651 173.137875 
L 444.030249 177.444499 
L 445.681548 180.791804 
L 447.332847 184.926423 
L 448.984146 188.066984 
L 450.635445 188.080125 
L 452.286744 183.75473 
L 453.938043 178.419148 
L 455.589342 174.970025 
L 457.240641 177.218433 
L 458.89194 183.970872 
L 460.543239 192.070692 
L 462.194538 198.376713 
L 463.845837 200.922242 
L 465.497136 200.656039 
L 467.148435 200.227717 
L 468.799734 202.495928 
L 470.451033 207.914318 
L 472.102332 214.624022 
L 473.753631 219.936403 
L 475.40493 222.432028 
L 477.056229 222.462648 
L 478.707528 222.623313 
L 480.358827 224.282077 
L 482.010126 227.690773 
L 483.661425 231.613058 
L 485.312724 234.641442 
L 486.964023 235.841646 
L 488.615323 234.586884 
L 493.56922 225.334109 
L 495.220519 223.589644 
L 496.871818 224.028629 
L 498.523117 226.922895 
L 503.477014 237.297231 
L 505.128313 238.572695 
L 506.779612 236.884399 
L 508.430911 233.029628 
L 510.08221 227.480286 
L 511.733509 222.610999 
L 513.384808 219.574733 
L 515.036107 218.129059 
L 516.687406 217.397377 
L 518.338705 215.77461 
L 519.990004 212.836281 
L 521.641303 209.018334 
L 523.292602 205.774972 
L 524.943901 206.093879 
L 526.5952 209.802574 
L 528.246499 214.746252 
L 529.897798 219.19862 
L 531.549097 221.604193 
L 533.200396 220.923704 
L 534.851695 219.951122 
L 536.502994 220.219897 
L 539.805592 224.292774 
L 541.456891 222.944435 
L 543.108191 216.738036 
L 546.410789 199.684391 
L 548.062088 195.145568 
L 549.713387 195.682774 
L 551.364686 198.384863 
L 553.015985 199.764182 
L 554.667284 197.128197 
L 557.969882 187.703818 
L 559.621181 185.842037 
L 561.27248 187.462311 
L 561.27248 187.462311 
" style="fill: none; stroke: #1f77b4; stroke-width: 1.5; stroke-linecap: square"/>
   </g>
   <g id="line2d_22">
    <path d="M 54.323677 214.647089 
L 55.974977 214.616752 
L 57.626276 214.858425 
L 59.277575 216.520131 
L 60.928874 219.859756 
L 62.580173 223.976484 
L 64.231472 227.078633 
L 65.882771 227.480047 
L 67.53407 224.818873 
L 69.185369 220.146116 
L 70.836668 215.063738 
L 72.487967 211.315467 
L 74.139266 209.541605 
L 75.790565 209.48219 
L 79.093163 211.454921 
L 80.744462 211.952051 
L 82.395761 212.046471 
L 84.04706 211.673927 
L 85.698359 210.808957 
L 87.349658 209.313148 
L 89.000957 207.381427 
L 90.652256 205.157758 
L 92.303555 203.145405 
L 93.954854 201.943806 
L 98.908751 200.259794 
L 100.56005 199.349139 
L 102.211349 198.577482 
L 103.862648 198.593303 
L 105.513947 199.40376 
L 107.165246 200.756822 
L 108.816546 201.935758 
L 110.467845 202.805642 
L 113.770443 204.123484 
L 115.421742 204.688007 
L 117.073041 204.90933 
L 118.72434 204.233328 
L 120.375639 202.621286 
L 122.026938 200.779207 
L 123.678237 199.938479 
L 125.329536 201.24124 
L 126.980835 204.30604 
L 128.632134 207.881424 
L 130.283433 210.221183 
L 131.934732 210.602399 
L 135.23733 208.207348 
L 136.888629 208.192759 
L 138.539928 209.447651 
L 140.191227 210.3806 
L 141.842526 209.49311 
L 143.493825 206.77134 
L 145.145124 203.475889 
L 146.796423 201.000643 
L 148.447722 200.099883 
L 151.75032 200.67183 
L 153.401619 199.912646 
L 155.052918 197.922795 
L 156.704217 195.722439 
L 158.355516 194.600657 
L 160.006815 195.059632 
L 161.658114 196.677253 
L 163.309414 198.566402 
L 164.960713 199.918377 
L 166.612012 200.725094 
L 168.263311 201.36059 
L 169.91461 202.287972 
L 171.565909 203.496159 
L 173.217208 205.157443 
L 174.868507 207.564776 
L 176.519806 210.953548 
L 178.171105 215.895683 
L 181.473703 228.598465 
L 183.125002 233.225701 
L 184.776301 234.74355 
L 186.4276 232.297116 
L 188.078899 226.15946 
L 189.730198 216.723492 
L 191.381497 204.404543 
L 193.032796 189.125854 
L 194.684095 170.871464 
L 199.637992 109.475718 
L 201.289291 92.957773 
L 202.94059 80.484014 
L 204.591889 71.872623 
L 206.243188 66.235611 
L 207.894487 62.873065 
L 209.545786 61.391873 
L 211.197085 61.291304 
L 214.499683 62.544923 
L 217.802282 63.109326 
L 219.453581 63.881399 
L 221.10488 65.569154 
L 224.407478 70.316913 
L 226.058777 72.098664 
L 227.710076 73.061324 
L 229.361375 74.208759 
L 231.012674 77.092003 
L 232.663973 82.434817 
L 234.315272 89.992952 
L 235.966571 98.187778 
L 237.61787 105.537607 
L 242.571767 124.163603 
L 244.223066 132.397027 
L 247.525664 150.452487 
L 249.176963 157.697746 
L 250.828262 162.70488 
L 252.479561 165.909951 
L 254.13086 167.867538 
L 255.782159 169.014238 
L 257.433458 169.439038 
L 259.084757 169.137933 
L 260.736056 168.555435 
L 262.387355 168.662023 
L 264.038654 170.404536 
L 265.689953 174.024972 
L 267.341252 178.439192 
L 268.992551 182.038698 
L 270.64385 183.072007 
L 272.29515 181.235747 
L 275.597748 173.94743 
L 277.249047 171.66529 
L 278.900346 171.10425 
L 280.551645 171.739344 
L 282.202944 172.589986 
L 283.854243 172.654199 
L 285.505542 171.840414 
L 287.156841 170.127589 
L 292.110738 162.720979 
L 293.762037 161.497264 
L 295.413336 161.589153 
L 297.064635 162.720146 
L 298.715934 164.635354 
L 302.018532 169.380852 
L 303.669831 172.172402 
L 305.32113 175.53866 
L 310.275027 187.048716 
L 313.577625 193.819984 
L 315.228924 197.801593 
L 316.880223 202.244277 
L 318.531522 206.079776 
L 320.182821 207.8939 
L 321.83412 207.060038 
L 325.136718 201.10564 
L 326.788018 200.073189 
L 328.439317 202.102384 
L 330.090616 206.122808 
L 331.741915 209.638798 
L 333.393214 210.186949 
L 335.044513 207.254068 
L 336.695812 202.531474 
L 338.347111 198.433838 
L 339.99841 196.862266 
L 341.649709 197.774834 
L 343.301008 199.448526 
L 344.952307 199.976927 
L 346.603606 198.544772 
L 348.254905 196.015936 
L 349.906204 194.038735 
L 351.557503 193.997173 
L 353.208802 195.786157 
L 354.860101 197.937692 
L 356.5114 198.981432 
L 358.162699 198.508673 
L 359.813998 197.541806 
L 361.465297 198.055999 
L 363.116596 200.812175 
L 366.419194 209.037795 
L 368.070493 211.251492 
L 369.721792 211.077748 
L 371.373091 209.721261 
L 373.02439 208.729446 
L 374.675689 208.796848 
L 376.326988 209.358325 
L 377.978287 209.006068 
L 379.629586 206.740292 
L 382.932185 199.640034 
L 384.583484 198.26472 
L 386.234783 199.565373 
L 387.886082 202.337322 
L 389.537381 204.727915 
L 391.18868 205.030584 
L 392.839979 203.44094 
L 394.491278 201.256829 
L 396.142577 200.280999 
L 397.793876 201.340868 
L 399.445175 203.703856 
L 401.096474 205.683097 
L 402.747773 206.143546 
L 404.399072 204.995715 
L 406.050371 203.228912 
L 407.70167 201.912547 
L 409.352969 201.645709 
L 411.004268 202.35842 
L 412.655567 203.35263 
L 414.306866 203.776765 
L 417.609464 203.673096 
L 420.912062 204.531193 
L 422.563361 203.894162 
L 424.21466 201.433694 
L 425.865959 197.237586 
L 427.517258 192.205005 
L 429.168557 187.823734 
L 430.819856 185.069225 
L 432.471155 184.297978 
L 434.122455 184.745359 
L 435.773754 185.947396 
L 439.076352 188.962456 
L 440.727651 190.187672 
L 442.37895 190.574307 
L 444.030249 189.603744 
L 445.681548 187.259958 
L 447.332847 184.113335 
L 448.984146 181.561168 
L 450.635445 180.810532 
L 452.286744 181.947016 
L 453.938043 183.881025 
L 455.589342 184.933173 
L 457.240641 184.215282 
L 458.89194 181.514882 
L 460.543239 177.61976 
L 462.194538 174.106365 
L 463.845837 172.181438 
L 465.497136 171.624665 
L 467.148435 171.342211 
L 468.799734 170.024979 
L 472.102332 165.509488 
L 473.753631 164.008029 
L 475.40493 163.914327 
L 477.056229 164.697705 
L 478.707528 164.867526 
L 480.358827 163.472564 
L 482.010126 161.000974 
L 483.661425 158.887743 
L 485.312724 158.499234 
L 486.964023 160.258903 
L 488.615323 163.131482 
L 490.266622 165.02934 
L 491.917921 164.494731 
L 493.56922 161.50402 
L 495.220519 157.7968 
L 496.871818 155.383581 
L 498.523117 155.665281 
L 500.174416 158.52277 
L 501.825715 162.080427 
L 503.477014 164.770306 
L 505.128313 166.237413 
L 508.430911 167.383218 
L 510.08221 169.013598 
L 511.733509 171.215087 
L 513.384808 173.108639 
L 515.036107 173.914664 
L 516.687406 173.652895 
L 518.338705 173.081561 
L 519.990004 172.797983 
L 521.641303 172.940634 
L 523.292602 172.935496 
L 524.943901 172.011243 
L 526.5952 169.885899 
L 528.246499 167.409085 
L 529.897798 165.896916 
L 531.549097 166.464233 
L 533.200396 169.172986 
L 534.851695 172.953794 
L 536.502994 176.270881 
L 538.154293 178.196079 
L 539.805592 178.626673 
L 541.456891 178.44916 
L 543.108191 178.74904 
L 544.75949 180.312258 
L 546.410789 182.78785 
L 548.062088 184.880627 
L 549.713387 185.394542 
L 551.364686 184.052865 
L 553.015985 181.711469 
L 554.667284 179.69119 
L 556.318583 179.288723 
L 557.969882 181.083146 
L 559.621181 184.203781 
L 561.27248 186.909113 
L 561.27248 186.909113 
" style="fill: none; stroke: #ff7f0e; stroke-width: 1.5; stroke-linecap: square"/>
   </g>
  </g>
  <g id="axes_2">
   <g id="PathCollection_1">
    <defs>
     <path id="C0_0_4872d134be" d="M 0 1.118034 
C 0.296506 1.118034 0.580908 1.000231 0.790569 0.790569 
C 1.000231 0.580908 1.118034 0.296506 1.118034 -0 
C 1.118034 -0.296506 1.000231 -0.580908 0.790569 -0.790569 
C 0.580908 -1.000231 0.296506 -1.118034 0 -1.118034 
C -0.296506 -1.118034 -0.580908 -1.000231 -0.790569 -0.790569 
C -1.000231 -0.580908 -1.118034 -0.296506 -1.118034 0 
C -1.118034 0.296506 -1.000231 0.580908 -0.790569 0.790569 
C -0.580908 1.000231 -0.296506 1.118034 0 1.118034 
z
"/>
    </defs>
    <g clip-path="url(#pd0e6c0ddd4)">
     <use xlink:href="#C0_0_4872d134be" x="524.821564" y="46.993416" style="stroke: #000000"/>
    </g>
    <g clip-path="url(#pd0e6c0ddd4)">
     <use xlink:href="#C0_0_4872d134be" x="527.000508" y="56.980577" style="stroke: #000000"/>
    </g>
    <g clip-path="url(#pd0e6c0ddd4)">
     <use xlink:href="#C0_0_4872d134be" x="493.759188" y="47.29305" style="stroke: #000000"/>
    </g>
    <g clip-path="url(#pd0e6c0ddd4)">
     <use xlink:href="#C0_0_4872d134be" x="491.63729" y="57.13326" style="stroke: #000000"/>
    </g>
   </g>
   <g id="matplotlib.axis_3"/>
   <g id="matplotlib.axis_4"/>
   <g id="line2d_23">
    <path d="M 548.86144 73.635892 
L 548.783775 71.164554 
L 548.551086 68.70297 
L 548.164293 66.260854 
L 547.624922 63.847844 
L 546.9351 61.473463 
L 546.097551 59.147081 
L 545.11558 56.87788 
L 543.993063 54.674816 
L 542.734429 52.546582 
L 541.344645 50.501577 
L 539.829197 48.547874 
L 538.194066 46.693181 
L 536.445704 44.944819 
L 534.591011 43.309688 
L 532.637308 41.79424 
L 530.592304 40.404456 
L 528.46407 39.145822 
L 526.261005 38.023305 
L 523.991804 37.041334 
L 521.665422 36.203785 
L 519.291041 35.513964 
L 516.878031 34.974592 
L 514.435915 34.587799 
L 511.974331 34.35511 
L 509.502994 34.277446 
L 507.031656 34.35511 
L 504.570072 34.587799 
L 502.127956 34.974592 
L 499.714946 35.513964 
L 497.340565 36.203785 
L 495.014183 37.041334 
L 492.744982 38.023305 
L 490.541918 39.145822 
L 488.413684 40.404456 
L 486.368679 41.79424 
L 484.414976 43.309688 
L 482.560283 44.944819 
L 480.811921 46.693181 
L 479.17679 48.547874 
L 477.661342 50.501577 
L 476.271558 52.546582 
L 475.012924 54.674816 
L 473.890407 56.87788 
L 472.908436 59.147081 
L 472.070887 61.473463 
L 471.381065 63.847844 
L 470.841694 66.260854 
L 470.454901 68.70297 
L 470.222212 71.164554 
L 470.144548 73.635892 
L 470.222212 76.107229 
L 470.454901 78.568813 
L 470.841694 81.010929 
L 471.381065 83.423939 
L 472.070887 85.79832 
L 472.908436 88.124702 
L 473.890407 90.393903 
L 475.012924 92.596968 
L 476.271558 94.725202 
L 477.661342 96.770206 
L 479.17679 98.723909 
L 480.811921 100.578602 
L 482.560283 102.326964 
L 484.414976 103.962095 
L 486.368679 105.477543 
L 488.413684 106.867327 
L 490.541918 108.125961 
L 492.744982 109.248478 
L 495.014183 110.230449 
L 497.340565 111.067998 
L 499.714946 111.75782 
L 502.127956 112.297191 
L 504.570072 112.683985 
L 507.031656 112.916673 
L 509.502994 112.994338 
L 511.974331 112.916673 
L 514.435915 112.683985 
L 516.878031 112.297191 
L 519.291041 111.75782 
L 521.665422 111.067998 
L 523.991804 110.230449 
L 526.261005 109.248478 
L 528.46407 108.125961 
L 530.592304 106.867327 
L 532.637308 105.477543 
L 534.591011 103.962095 
L 536.445704 102.326964 
L 538.194066 100.578602 
L 539.829197 98.723909 
L 541.344645 96.770206 
L 542.734429 94.725202 
L 543.993063 92.596968 
L 545.11558 90.393903 
L 546.097551 88.124702 
L 546.9351 85.79832 
L 547.624922 83.423939 
L 548.164293 81.010929 
L 548.551086 78.568813 
L 548.783775 76.107229 
L 548.86144 73.635892 
" style="fill: none; stroke: #000000; stroke-linecap: square"/>
   </g>
   <g id="line2d_24">
    <path d="M 501.25978 35.150353 
L 509.502994 28.373679 
L 517.746207 35.150353 
" style="fill: none; stroke: #000000; stroke-linecap: square"/>
   </g>
   <g id="line2d_25">
    <path d="M 470.380698 69.267104 
L 469.357379 67.535332 
L 468.727643 67.472359 
L 467.790912 67.763611 
L 466.84631 69.267104 
L 466.995872 74.068834 
L 466.444854 80.972306 
L 467.625607 83.97142 
L 469.357379 84.530309 
L 471.010433 83.074047 
" style="fill: none; stroke: #000000; stroke-linecap: square"/>
   </g>
   <g id="line2d_26">
    <path d="M 548.625289 69.267104 
L 549.648608 67.535332 
L 550.278344 67.472359 
L 551.215075 67.763611 
L 552.159677 69.267104 
L 552.010115 74.068834 
L 552.561134 80.972306 
L 551.38038 83.97142 
L 549.648608 84.530309 
L 547.995554 83.074047 
" style="fill: none; stroke: #000000; stroke-linecap: square"/>
   </g>
  </g>
 </g>
 <defs>
  <clipPath id="p7e7e85c281">
   <rect x="54.323678" y="18.118365" width="507.54327" height="380.525145"/>
  </clipPath>
  <clipPath id="pd0e6c0ddd4">
   <rect x="462.13904" y="24.142646" width="94.727908" height="93.082725"/>
  </clipPath>
 </defs>
</svg>
