<?xml version="1.0" encoding="utf-8" standalone="no"?>
<!DOCTYPE svg PUBLIC "-//W3C//DTD SVG 1.1//EN"
  "http://www.w3.org/Graphics/SVG/1.1/DTD/svg11.dtd">
<svg xmlns:xlink="http://www.w3.org/1999/xlink" width="576pt" height="432pt" viewBox="0 0 576 432" xmlns="http://www.w3.org/2000/svg" version="1.1">
 <metadata>
  <rdf:RDF xmlns:dc="http://purl.org/dc/elements/1.1/" xmlns:cc="http://creativecommons.org/ns#" xmlns:rdf="http://www.w3.org/1999/02/22-rdf-syntax-ns#">
   <cc:Work>
    <dc:type rdf:resource="http://purl.org/dc/dcmitype/StillImage"/>
    <dc:date>2025-02-12T21:11:59.907755</dc:date>
    <dc:format>image/svg+xml</dc:format>
    <dc:creator>
     <cc:Agent>
      <dc:title>Matplotlib v3.10.0, https://matplotlib.org/</dc:title>
     </cc:Agent>
    </dc:creator>
   </cc:Work>
  </rdf:RDF>
 </metadata>
 <defs>
  <style type="text/css">*{stroke-linejoin: round; stroke-linecap: butt}</style>
 </defs>
 <g id="figure_1">
  <g id="patch_1">
   <path d="M 0 432 
L 576 432 
L 576 0 
L 0 0 
z
" style="fill: #ffffff"/>
  </g>
  <g id="axes_1">
   <g id="patch_2">
    <path d="M 38.420552 398.64351 
L 572.99976 398.64351 
L 572.99976 18.118365 
L 38.420552 18.118365 
L 38.420552 398.64351 
z
" style="fill: none; opacity: 0"/>
   </g>
   <g id="patch_3">
    <path d="M 38.420552 335.913768 
L 38.420552 80.848107 
" style="fill: none; stroke: #000000; stroke-width: 0.8; stroke-linejoin: miter; stroke-linecap: square"/>
   </g>
   <g id="LineCollection_1">
    <path d="M 185.177346 18.118365 
L 185.177346 398.64351 
" clip-path="url(#p0798836b9b)" style="fill: none; stroke-dasharray: 3.7,1.6; stroke-dashoffset: 0; stroke: #000000"/>
    <path d="M 225.296906 18.118365 
L 225.296906 398.64351 
" clip-path="url(#p0798836b9b)" style="fill: none; stroke-dasharray: 3.7,1.6; stroke-dashoffset: 0; stroke: #000000"/>
   </g>
   <g id="matplotlib.axis_1">
    <g id="xtick_1">
     <g id="line2d_1">
      <defs>
       <path id="m7a23e08b7c" d="M 0 0 
L 0 3.5 
" style="stroke: #000000; stroke-width: 0.8"/>
      </defs>
      <g>
       <use xlink:href="#m7a23e08b7c" x="64.818666" y="398.64351" style="stroke: #000000; stroke-width: 0.8"/>
      </g>
     </g>
     <g id="text_1">
      <!-- −0.20 -->
      <g transform="translate(49.49601 413.241947) scale(0.1 -0.1)">
       <defs>
        <path id="DejaVuSans-2212" d="M 678 2272 
L 4684 2272 
L 4684 1741 
L 678 1741 
L 678 2272 
z
" transform="scale(0.015625)"/>
        <path id="DejaVuSans-30" d="M 2034 4250 
Q 1547 4250 1301 3770 
Q 1056 3291 1056 2328 
Q 1056 1369 1301 889 
Q 1547 409 2034 409 
Q 2525 409 2770 889 
Q 3016 1369 3016 2328 
Q 3016 3291 2770 3770 
Q 2525 4250 2034 4250 
z
M 2034 4750 
Q 2819 4750 3233 4129 
Q 3647 3509 3647 2328 
Q 3647 1150 3233 529 
Q 2819 -91 2034 -91 
Q 1250 -91 836 529 
Q 422 1150 422 2328 
Q 422 3509 836 4129 
Q 1250 4750 2034 4750 
z
" transform="scale(0.015625)"/>
        <path id="DejaVuSans-2e" d="M 684 794 
L 1344 794 
L 1344 0 
L 684 0 
L 684 794 
z
" transform="scale(0.015625)"/>
        <path id="DejaVuSans-32" d="M 1228 531 
L 3431 531 
L 3431 0 
L 469 0 
L 469 531 
Q 828 903 1448 1529 
Q 2069 2156 2228 2338 
Q 2531 2678 2651 2914 
Q 2772 3150 2772 3378 
Q 2772 3750 2511 3984 
Q 2250 4219 1831 4219 
Q 1534 4219 1204 4116 
Q 875 4013 500 3803 
L 500 4441 
Q 881 4594 1212 4672 
Q 1544 4750 1819 4750 
Q 2544 4750 2975 4387 
Q 3406 4025 3406 3419 
Q 3406 3131 3298 2873 
Q 3191 2616 2906 2266 
Q 2828 2175 2409 1742 
Q 1991 1309 1228 531 
z
" transform="scale(0.015625)"/>
       </defs>
       <use xlink:href="#DejaVuSans-2212"/>
       <use xlink:href="#DejaVuSans-30" transform="translate(83.789062 0)"/>
       <use xlink:href="#DejaVuSans-2e" transform="translate(147.412109 0)"/>
       <use xlink:href="#DejaVuSans-32" transform="translate(179.199219 0)"/>
       <use xlink:href="#DejaVuSans-30" transform="translate(242.822266 0)"/>
      </g>
     </g>
    </g>
    <g id="xtick_2">
     <g id="line2d_2">
      <g>
       <use xlink:href="#m7a23e08b7c" x="153.973244" y="398.64351" style="stroke: #000000; stroke-width: 0.8"/>
      </g>
     </g>
     <g id="text_2">
      <!-- 0.00 -->
      <g transform="translate(142.840431 413.241947) scale(0.1 -0.1)">
       <use xlink:href="#DejaVuSans-30"/>
       <use xlink:href="#DejaVuSans-2e" transform="translate(63.623047 0)"/>
       <use xlink:href="#DejaVuSans-30" transform="translate(95.410156 0)"/>
       <use xlink:href="#DejaVuSans-30" transform="translate(159.033203 0)"/>
      </g>
     </g>
    </g>
    <g id="xtick_3">
     <g id="line2d_3">
      <g>
       <use xlink:href="#m7a23e08b7c" x="185.177346" y="398.64351" style="stroke: #000000; stroke-width: 0.8"/>
      </g>
     </g>
     <g id="text_3">
      <!-- 0.07 -->
      <g transform="translate(174.044534 413.241947) scale(0.1 -0.1)">
       <defs>
        <path id="DejaVuSans-37" d="M 525 4666 
L 3525 4666 
L 3525 4397 
L 1831 0 
L 1172 0 
L 2766 4134 
L 525 4134 
L 525 4666 
z
" transform="scale(0.015625)"/>
       </defs>
       <use xlink:href="#DejaVuSans-30"/>
       <use xlink:href="#DejaVuSans-2e" transform="translate(63.623047 0)"/>
       <use xlink:href="#DejaVuSans-30" transform="translate(95.410156 0)"/>
       <use xlink:href="#DejaVuSans-37" transform="translate(159.033203 0)"/>
      </g>
     </g>
    </g>
    <g id="xtick_4">
     <g id="line2d_4">
      <g>
       <use xlink:href="#m7a23e08b7c" x="225.296906" y="398.64351" style="stroke: #000000; stroke-width: 0.8"/>
      </g>
     </g>
     <g id="text_4">
      <!-- 0.16 -->
      <g transform="translate(214.164094 413.241947) scale(0.1 -0.1)">
       <defs>
        <path id="DejaVuSans-31" d="M 794 531 
L 1825 531 
L 1825 4091 
L 703 3866 
L 703 4441 
L 1819 4666 
L 2450 4666 
L 2450 531 
L 3481 531 
L 3481 0 
L 794 0 
L 794 531 
z
" transform="scale(0.015625)"/>
        <path id="DejaVuSans-36" d="M 2113 2584 
Q 1688 2584 1439 2293 
Q 1191 2003 1191 1497 
Q 1191 994 1439 701 
Q 1688 409 2113 409 
Q 2538 409 2786 701 
Q 3034 994 3034 1497 
Q 3034 2003 2786 2293 
Q 2538 2584 2113 2584 
z
M 3366 4563 
L 3366 3988 
Q 3128 4100 2886 4159 
Q 2644 4219 2406 4219 
Q 1781 4219 1451 3797 
Q 1122 3375 1075 2522 
Q 1259 2794 1537 2939 
Q 1816 3084 2150 3084 
Q 2853 3084 3261 2657 
Q 3669 2231 3669 1497 
Q 3669 778 3244 343 
Q 2819 -91 2113 -91 
Q 1303 -91 875 529 
Q 447 1150 447 2328 
Q 447 3434 972 4092 
Q 1497 4750 2381 4750 
Q 2619 4750 2861 4703 
Q 3103 4656 3366 4563 
z
" transform="scale(0.015625)"/>
       </defs>
       <use xlink:href="#DejaVuSans-30"/>
       <use xlink:href="#DejaVuSans-2e" transform="translate(63.623047 0)"/>
       <use xlink:href="#DejaVuSans-31" transform="translate(95.410156 0)"/>
       <use xlink:href="#DejaVuSans-36" transform="translate(159.033203 0)"/>
      </g>
     </g>
    </g>
    <g id="xtick_5">
     <g id="line2d_5">
      <g>
       <use xlink:href="#m7a23e08b7c" x="243.127822" y="398.64351" style="stroke: #000000; stroke-width: 0.8"/>
      </g>
     </g>
     <g id="text_5">
      <!-- 0.20 -->
      <g transform="translate(231.995009 413.241947) scale(0.1 -0.1)">
       <use xlink:href="#DejaVuSans-30"/>
       <use xlink:href="#DejaVuSans-2e" transform="translate(63.623047 0)"/>
       <use xlink:href="#DejaVuSans-32" transform="translate(95.410156 0)"/>
       <use xlink:href="#DejaVuSans-30" transform="translate(159.033203 0)"/>
      </g>
     </g>
    </g>
    <g id="xtick_6">
     <g id="line2d_6">
      <g>
       <use xlink:href="#m7a23e08b7c" x="332.2824" y="398.64351" style="stroke: #000000; stroke-width: 0.8"/>
      </g>
     </g>
     <g id="text_6">
      <!-- 0.40 -->
      <g transform="translate(321.149587 413.241947) scale(0.1 -0.1)">
       <defs>
        <path id="DejaVuSans-34" d="M 2419 4116 
L 825 1625 
L 2419 1625 
L 2419 4116 
z
M 2253 4666 
L 3047 4666 
L 3047 1625 
L 3713 1625 
L 3713 1100 
L 3047 1100 
L 3047 0 
L 2419 0 
L 2419 1100 
L 313 1100 
L 313 1709 
L 2253 4666 
z
" transform="scale(0.015625)"/>
       </defs>
       <use xlink:href="#DejaVuSans-30"/>
       <use xlink:href="#DejaVuSans-2e" transform="translate(63.623047 0)"/>
       <use xlink:href="#DejaVuSans-34" transform="translate(95.410156 0)"/>
       <use xlink:href="#DejaVuSans-30" transform="translate(159.033203 0)"/>
      </g>
     </g>
    </g>
    <g id="xtick_7">
     <g id="line2d_7">
      <g>
       <use xlink:href="#m7a23e08b7c" x="421.436978" y="398.64351" style="stroke: #000000; stroke-width: 0.8"/>
      </g>
     </g>
     <g id="text_7">
      <!-- 0.60 -->
      <g transform="translate(410.304165 413.241947) scale(0.1 -0.1)">
       <use xlink:href="#DejaVuSans-30"/>
       <use xlink:href="#DejaVuSans-2e" transform="translate(63.623047 0)"/>
       <use xlink:href="#DejaVuSans-36" transform="translate(95.410156 0)"/>
       <use xlink:href="#DejaVuSans-30" transform="translate(159.033203 0)"/>
      </g>
     </g>
    </g>
    <g id="xtick_8">
     <g id="line2d_8">
      <g>
       <use xlink:href="#m7a23e08b7c" x="510.591555" y="398.64351" style="stroke: #000000; stroke-width: 0.8"/>
      </g>
     </g>
     <g id="text_8">
      <!-- 0.80 -->
      <g transform="translate(499.458743 413.241947) scale(0.1 -0.1)">
       <defs>
        <path id="DejaVuSans-38" d="M 2034 2216 
Q 1584 2216 1326 1975 
Q 1069 1734 1069 1313 
Q 1069 891 1326 650 
Q 1584 409 2034 409 
Q 2484 409 2743 651 
Q 3003 894 3003 1313 
Q 3003 1734 2745 1975 
Q 2488 2216 2034 2216 
z
M 1403 2484 
Q 997 2584 770 2862 
Q 544 3141 544 3541 
Q 544 4100 942 4425 
Q 1341 4750 2034 4750 
Q 2731 4750 3128 4425 
Q 3525 4100 3525 3541 
Q 3525 3141 3298 2862 
Q 3072 2584 2669 2484 
Q 3125 2378 3379 2068 
Q 3634 1759 3634 1313 
Q 3634 634 3220 271 
Q 2806 -91 2034 -91 
Q 1263 -91 848 271 
Q 434 634 434 1313 
Q 434 1759 690 2068 
Q 947 2378 1403 2484 
z
M 1172 3481 
Q 1172 3119 1398 2916 
Q 1625 2713 2034 2713 
Q 2441 2713 2670 2916 
Q 2900 3119 2900 3481 
Q 2900 3844 2670 4047 
Q 2441 4250 2034 4250 
Q 1625 4250 1398 4047 
Q 1172 3844 1172 3481 
z
" transform="scale(0.015625)"/>
       </defs>
       <use xlink:href="#DejaVuSans-30"/>
       <use xlink:href="#DejaVuSans-2e" transform="translate(63.623047 0)"/>
       <use xlink:href="#DejaVuSans-38" transform="translate(95.410156 0)"/>
       <use xlink:href="#DejaVuSans-30" transform="translate(159.033203 0)"/>
      </g>
     </g>
    </g>
    <g id="text_9">
     <!-- Time (s) -->
     <g transform="translate(285.38125 426.920073) scale(0.1 -0.1)">
      <defs>
       <path id="DejaVuSans-54" d="M -19 4666 
L 3928 4666 
L 3928 4134 
L 2272 4134 
L 2272 0 
L 1638 0 
L 1638 4134 
L -19 4134 
L -19 4666 
z
" transform="scale(0.015625)"/>
       <path id="DejaVuSans-69" d="M 603 3500 
L 1178 3500 
L 1178 0 
L 603 0 
L 603 3500 
z
M 603 4863 
L 1178 4863 
L 1178 4134 
L 603 4134 
L 603 4863 
z
" transform="scale(0.015625)"/>
       <path id="DejaVuSans-6d" d="M 3328 2828 
Q 3544 3216 3844 3400 
Q 4144 3584 4550 3584 
Q 5097 3584 5394 3201 
Q 5691 2819 5691 2113 
L 5691 0 
L 5113 0 
L 5113 2094 
Q 5113 2597 4934 2840 
Q 4756 3084 4391 3084 
Q 3944 3084 3684 2787 
Q 3425 2491 3425 1978 
L 3425 0 
L 2847 0 
L 2847 2094 
Q 2847 2600 2669 2842 
Q 2491 3084 2119 3084 
Q 1678 3084 1418 2786 
Q 1159 2488 1159 1978 
L 1159 0 
L 581 0 
L 581 3500 
L 1159 3500 
L 1159 2956 
Q 1356 3278 1631 3431 
Q 1906 3584 2284 3584 
Q 2666 3584 2933 3390 
Q 3200 3197 3328 2828 
z
" transform="scale(0.015625)"/>
       <path id="DejaVuSans-65" d="M 3597 1894 
L 3597 1613 
L 953 1613 
Q 991 1019 1311 708 
Q 1631 397 2203 397 
Q 2534 397 2845 478 
Q 3156 559 3463 722 
L 3463 178 
Q 3153 47 2828 -22 
Q 2503 -91 2169 -91 
Q 1331 -91 842 396 
Q 353 884 353 1716 
Q 353 2575 817 3079 
Q 1281 3584 2069 3584 
Q 2775 3584 3186 3129 
Q 3597 2675 3597 1894 
z
M 3022 2063 
Q 3016 2534 2758 2815 
Q 2500 3097 2075 3097 
Q 1594 3097 1305 2825 
Q 1016 2553 972 2059 
L 3022 2063 
z
" transform="scale(0.015625)"/>
       <path id="DejaVuSans-20" transform="scale(0.015625)"/>
       <path id="DejaVuSans-28" d="M 1984 4856 
Q 1566 4138 1362 3434 
Q 1159 2731 1159 2009 
Q 1159 1288 1364 580 
Q 1569 -128 1984 -844 
L 1484 -844 
Q 1016 -109 783 600 
Q 550 1309 550 2009 
Q 550 2706 781 3412 
Q 1013 4119 1484 4856 
L 1984 4856 
z
" transform="scale(0.015625)"/>
       <path id="DejaVuSans-73" d="M 2834 3397 
L 2834 2853 
Q 2591 2978 2328 3040 
Q 2066 3103 1784 3103 
Q 1356 3103 1142 2972 
Q 928 2841 928 2578 
Q 928 2378 1081 2264 
Q 1234 2150 1697 2047 
L 1894 2003 
Q 2506 1872 2764 1633 
Q 3022 1394 3022 966 
Q 3022 478 2636 193 
Q 2250 -91 1575 -91 
Q 1294 -91 989 -36 
Q 684 19 347 128 
L 347 722 
Q 666 556 975 473 
Q 1284 391 1588 391 
Q 1994 391 2212 530 
Q 2431 669 2431 922 
Q 2431 1156 2273 1281 
Q 2116 1406 1581 1522 
L 1381 1569 
Q 847 1681 609 1914 
Q 372 2147 372 2553 
Q 372 3047 722 3315 
Q 1072 3584 1716 3584 
Q 2034 3584 2315 3537 
Q 2597 3491 2834 3397 
z
" transform="scale(0.015625)"/>
       <path id="DejaVuSans-29" d="M 513 4856 
L 1013 4856 
Q 1481 4119 1714 3412 
Q 1947 2706 1947 2009 
Q 1947 1309 1714 600 
Q 1481 -109 1013 -844 
L 513 -844 
Q 928 -128 1133 580 
Q 1338 1288 1338 2009 
Q 1338 2731 1133 3434 
Q 928 4138 513 4856 
z
" transform="scale(0.015625)"/>
      </defs>
      <use xlink:href="#DejaVuSans-54"/>
      <use xlink:href="#DejaVuSans-69" transform="translate(57.958984 0)"/>
      <use xlink:href="#DejaVuSans-6d" transform="translate(85.742188 0)"/>
      <use xlink:href="#DejaVuSans-65" transform="translate(183.154297 0)"/>
      <use xlink:href="#DejaVuSans-20" transform="translate(244.677734 0)"/>
      <use xlink:href="#DejaVuSans-28" transform="translate(276.464844 0)"/>
      <use xlink:href="#DejaVuSans-73" transform="translate(315.478516 0)"/>
      <use xlink:href="#DejaVuSans-29" transform="translate(367.578125 0)"/>
     </g>
    </g>
   </g>
   <g id="matplotlib.axis_2">
    <g id="ytick_1">
     <g id="line2d_9">
      <defs>
       <path id="mfa5d96c4b5" d="M 0 0 
L -3.5 0 
" style="stroke: #000000; stroke-width: 0.8"/>
      </defs>
      <g>
       <use xlink:href="#mfa5d96c4b5" x="38.420552" y="335.913768" style="stroke: #000000; stroke-width: 0.8"/>
      </g>
     </g>
     <g id="text_10">
      <!-- −4 -->
      <g transform="translate(16.678365 339.712986) scale(0.1 -0.1)">
       <use xlink:href="#DejaVuSans-2212"/>
       <use xlink:href="#DejaVuSans-34" transform="translate(83.789062 0)"/>
      </g>
     </g>
    </g>
    <g id="ytick_2">
     <g id="line2d_10">
      <g>
       <use xlink:href="#mfa5d96c4b5" x="38.420552" y="272.147353" style="stroke: #000000; stroke-width: 0.8"/>
      </g>
     </g>
     <g id="text_11">
      <!-- −2 -->
      <g transform="translate(16.678365 275.946571) scale(0.1 -0.1)">
       <use xlink:href="#DejaVuSans-2212"/>
       <use xlink:href="#DejaVuSans-32" transform="translate(83.789062 0)"/>
      </g>
     </g>
    </g>
    <g id="ytick_3">
     <g id="line2d_11">
      <g>
       <use xlink:href="#mfa5d96c4b5" x="38.420552" y="208.380937" style="stroke: #000000; stroke-width: 0.8"/>
      </g>
     </g>
     <g id="text_12">
      <!-- 0 -->
      <g transform="translate(25.058052 212.180156) scale(0.1 -0.1)">
       <use xlink:href="#DejaVuSans-30"/>
      </g>
     </g>
    </g>
    <g id="ytick_4">
     <g id="line2d_12">
      <g>
       <use xlink:href="#mfa5d96c4b5" x="38.420552" y="144.614522" style="stroke: #000000; stroke-width: 0.8"/>
      </g>
     </g>
     <g id="text_13">
      <!-- 2 -->
      <g transform="translate(25.058052 148.413741) scale(0.1 -0.1)">
       <use xlink:href="#DejaVuSans-32"/>
      </g>
     </g>
    </g>
    <g id="ytick_5">
     <g id="line2d_13">
      <g>
       <use xlink:href="#mfa5d96c4b5" x="38.420552" y="80.848107" style="stroke: #000000; stroke-width: 0.8"/>
      </g>
     </g>
     <g id="text_14">
      <!-- 4 -->
      <g transform="translate(25.058052 84.647326) scale(0.1 -0.1)">
       <use xlink:href="#DejaVuSans-34"/>
      </g>
     </g>
    </g>
    <g id="text_15">
     <!-- µV -->
     <g transform="translate(10.598677 214.9825) rotate(-90) scale(0.1 -0.1)">
      <defs>
       <path id="DejaVuSans-b5" d="M 544 -1331 
L 544 3500 
L 1119 3500 
L 1119 1325 
Q 1119 872 1334 640 
Q 1550 409 1972 409 
Q 2434 409 2667 671 
Q 2900 934 2900 1459 
L 2900 3500 
L 3475 3500 
L 3475 806 
Q 3475 619 3529 530 
Q 3584 441 3700 441 
Q 3728 441 3778 458 
Q 3828 475 3916 513 
L 3916 50 
Q 3788 -22 3673 -56 
Q 3559 -91 3450 -91 
Q 3234 -91 3106 31 
Q 2978 153 2931 403 
Q 2775 156 2548 32 
Q 2322 -91 2016 -91 
Q 1697 -91 1473 31 
Q 1250 153 1119 397 
L 1119 -1331 
L 544 -1331 
z
" transform="scale(0.015625)"/>
       <path id="DejaVuSans-56" d="M 1831 0 
L 50 4666 
L 709 4666 
L 2188 738 
L 3669 4666 
L 4325 4666 
L 2547 0 
L 1831 0 
z
" transform="scale(0.015625)"/>
      </defs>
      <use xlink:href="#DejaVuSans-b5"/>
      <use xlink:href="#DejaVuSans-56" transform="translate(63.623047 0)"/>
     </g>
    </g>
   </g>
   <g id="patch_4">
    <path d="M 64.818666 398.64351 
L 510.591555 398.64351 
" style="fill: none; stroke: #000000; stroke-width: 0.8; stroke-linejoin: miter; stroke-linecap: square"/>
   </g>
   <g id="patch_5">
    <path d="M 38.420552 208.380937 
L 572.99976 208.380937 
" style="fill: none; stroke: #000000; stroke-width: 0.8; stroke-linejoin: miter; stroke-linecap: square"/>
   </g>
   <g id="text_16">
    <!-- jkz P100: Oz, O1, O2 (mean) -->
    <g transform="translate(220.329219 12.118365) scale(0.12 -0.12)">
     <defs>
      <path id="DejaVuSans-6a" d="M 603 3500 
L 1178 3500 
L 1178 -63 
Q 1178 -731 923 -1031 
Q 669 -1331 103 -1331 
L -116 -1331 
L -116 -844 
L 38 -844 
Q 366 -844 484 -692 
Q 603 -541 603 -63 
L 603 3500 
z
M 603 4863 
L 1178 4863 
L 1178 4134 
L 603 4134 
L 603 4863 
z
" transform="scale(0.015625)"/>
      <path id="DejaVuSans-6b" d="M 581 4863 
L 1159 4863 
L 1159 1991 
L 2875 3500 
L 3609 3500 
L 1753 1863 
L 3688 0 
L 2938 0 
L 1159 1709 
L 1159 0 
L 581 0 
L 581 4863 
z
" transform="scale(0.015625)"/>
      <path id="DejaVuSans-7a" d="M 353 3500 
L 3084 3500 
L 3084 2975 
L 922 459 
L 3084 459 
L 3084 0 
L 275 0 
L 275 525 
L 2438 3041 
L 353 3041 
L 353 3500 
z
" transform="scale(0.015625)"/>
      <path id="DejaVuSans-50" d="M 1259 4147 
L 1259 2394 
L 2053 2394 
Q 2494 2394 2734 2622 
Q 2975 2850 2975 3272 
Q 2975 3691 2734 3919 
Q 2494 4147 2053 4147 
L 1259 4147 
z
M 628 4666 
L 2053 4666 
Q 2838 4666 3239 4311 
Q 3641 3956 3641 3272 
Q 3641 2581 3239 2228 
Q 2838 1875 2053 1875 
L 1259 1875 
L 1259 0 
L 628 0 
L 628 4666 
z
" transform="scale(0.015625)"/>
      <path id="DejaVuSans-3a" d="M 750 794 
L 1409 794 
L 1409 0 
L 750 0 
L 750 794 
z
M 750 3309 
L 1409 3309 
L 1409 2516 
L 750 2516 
L 750 3309 
z
" transform="scale(0.015625)"/>
      <path id="DejaVuSans-4f" d="M 2522 4238 
Q 1834 4238 1429 3725 
Q 1025 3213 1025 2328 
Q 1025 1447 1429 934 
Q 1834 422 2522 422 
Q 3209 422 3611 934 
Q 4013 1447 4013 2328 
Q 4013 3213 3611 3725 
Q 3209 4238 2522 4238 
z
M 2522 4750 
Q 3503 4750 4090 4092 
Q 4678 3434 4678 2328 
Q 4678 1225 4090 567 
Q 3503 -91 2522 -91 
Q 1538 -91 948 565 
Q 359 1222 359 2328 
Q 359 3434 948 4092 
Q 1538 4750 2522 4750 
z
" transform="scale(0.015625)"/>
      <path id="DejaVuSans-2c" d="M 750 794 
L 1409 794 
L 1409 256 
L 897 -744 
L 494 -744 
L 750 256 
L 750 794 
z
" transform="scale(0.015625)"/>
      <path id="DejaVuSans-61" d="M 2194 1759 
Q 1497 1759 1228 1600 
Q 959 1441 959 1056 
Q 959 750 1161 570 
Q 1363 391 1709 391 
Q 2188 391 2477 730 
Q 2766 1069 2766 1631 
L 2766 1759 
L 2194 1759 
z
M 3341 1997 
L 3341 0 
L 2766 0 
L 2766 531 
Q 2569 213 2275 61 
Q 1981 -91 1556 -91 
Q 1019 -91 701 211 
Q 384 513 384 1019 
Q 384 1609 779 1909 
Q 1175 2209 1959 2209 
L 2766 2209 
L 2766 2266 
Q 2766 2663 2505 2880 
Q 2244 3097 1772 3097 
Q 1472 3097 1187 3025 
Q 903 2953 641 2809 
L 641 3341 
Q 956 3463 1253 3523 
Q 1550 3584 1831 3584 
Q 2591 3584 2966 3190 
Q 3341 2797 3341 1997 
z
" transform="scale(0.015625)"/>
      <path id="DejaVuSans-6e" d="M 3513 2113 
L 3513 0 
L 2938 0 
L 2938 2094 
Q 2938 2591 2744 2837 
Q 2550 3084 2163 3084 
Q 1697 3084 1428 2787 
Q 1159 2491 1159 1978 
L 1159 0 
L 581 0 
L 581 3500 
L 1159 3500 
L 1159 2956 
Q 1366 3272 1645 3428 
Q 1925 3584 2291 3584 
Q 2894 3584 3203 3211 
Q 3513 2838 3513 2113 
z
" transform="scale(0.015625)"/>
     </defs>
     <use xlink:href="#DejaVuSans-6a"/>
     <use xlink:href="#DejaVuSans-6b" transform="translate(27.783203 0)"/>
     <use xlink:href="#DejaVuSans-7a" transform="translate(85.693359 0)"/>
     <use xlink:href="#DejaVuSans-20" transform="translate(138.183594 0)"/>
     <use xlink:href="#DejaVuSans-50" transform="translate(169.970703 0)"/>
     <use xlink:href="#DejaVuSans-31" transform="translate(230.273438 0)"/>
     <use xlink:href="#DejaVuSans-30" transform="translate(293.896484 0)"/>
     <use xlink:href="#DejaVuSans-30" transform="translate(357.519531 0)"/>
     <use xlink:href="#DejaVuSans-3a" transform="translate(421.142578 0)"/>
     <use xlink:href="#DejaVuSans-20" transform="translate(454.833984 0)"/>
     <use xlink:href="#DejaVuSans-4f" transform="translate(486.621094 0)"/>
     <use xlink:href="#DejaVuSans-7a" transform="translate(565.332031 0)"/>
     <use xlink:href="#DejaVuSans-2c" transform="translate(617.822266 0)"/>
     <use xlink:href="#DejaVuSans-20" transform="translate(649.609375 0)"/>
     <use xlink:href="#DejaVuSans-4f" transform="translate(681.396484 0)"/>
     <use xlink:href="#DejaVuSans-31" transform="translate(760.107422 0)"/>
     <use xlink:href="#DejaVuSans-2c" transform="translate(823.730469 0)"/>
     <use xlink:href="#DejaVuSans-20" transform="translate(855.517578 0)"/>
     <use xlink:href="#DejaVuSans-4f" transform="translate(887.304688 0)"/>
     <use xlink:href="#DejaVuSans-32" transform="translate(966.015625 0)"/>
     <use xlink:href="#DejaVuSans-20" transform="translate(1029.638672 0)"/>
     <use xlink:href="#DejaVuSans-28" transform="translate(1061.425781 0)"/>
     <use xlink:href="#DejaVuSans-6d" transform="translate(1100.439453 0)"/>
     <use xlink:href="#DejaVuSans-65" transform="translate(1197.851562 0)"/>
     <use xlink:href="#DejaVuSans-61" transform="translate(1259.375 0)"/>
     <use xlink:href="#DejaVuSans-6e" transform="translate(1320.654297 0)"/>
     <use xlink:href="#DejaVuSans-29" transform="translate(1384.033203 0)"/>
    </g>
   </g>
   <g id="legend_1">
    <g id="patch_6">
     <path d="M 45.420552 55.75274 
L 126.56274 55.75274 
Q 128.56274 55.75274 128.56274 53.75274 
L 128.56274 25.118365 
Q 128.56274 23.118365 126.56274 23.118365 
L 45.420552 23.118365 
Q 43.420552 23.118365 43.420552 25.118365 
L 43.420552 53.75274 
Q 43.420552 55.75274 45.420552 55.75274 
z
" style="fill: #ffffff; opacity: 0.8; stroke: #cccccc; stroke-linejoin: miter"/>
    </g>
    <g id="line2d_14">
     <path d="M 47.420552 31.216803 
L 57.420552 31.216803 
L 67.420552 31.216803 
" style="fill: none; stroke: #1f77b4; stroke-width: 1.5; stroke-linecap: square"/>
    </g>
    <g id="text_17">
     <!-- eerie -->
     <g transform="translate(75.420552 34.716803) scale(0.1 -0.1)">
      <defs>
       <path id="DejaVuSans-72" d="M 2631 2963 
Q 2534 3019 2420 3045 
Q 2306 3072 2169 3072 
Q 1681 3072 1420 2755 
Q 1159 2438 1159 1844 
L 1159 0 
L 581 0 
L 581 3500 
L 1159 3500 
L 1159 2956 
Q 1341 3275 1631 3429 
Q 1922 3584 2338 3584 
Q 2397 3584 2469 3576 
Q 2541 3569 2628 3553 
L 2631 2963 
z
" transform="scale(0.015625)"/>
      </defs>
      <use xlink:href="#DejaVuSans-65"/>
      <use xlink:href="#DejaVuSans-65" transform="translate(61.523438 0)"/>
      <use xlink:href="#DejaVuSans-72" transform="translate(123.046875 0)"/>
      <use xlink:href="#DejaVuSans-69" transform="translate(164.160156 0)"/>
      <use xlink:href="#DejaVuSans-65" transform="translate(191.943359 0)"/>
     </g>
    </g>
    <g id="line2d_15">
     <path d="M 47.420552 45.894928 
L 57.420552 45.894928 
L 67.420552 45.894928 
" style="fill: none; stroke: #ff7f0e; stroke-width: 1.5; stroke-linecap: square"/>
    </g>
    <g id="text_18">
     <!-- non_eerie -->
     <g transform="translate(75.420552 49.394928) scale(0.1 -0.1)">
      <defs>
       <path id="DejaVuSans-6f" d="M 1959 3097 
Q 1497 3097 1228 2736 
Q 959 2375 959 1747 
Q 959 1119 1226 758 
Q 1494 397 1959 397 
Q 2419 397 2687 759 
Q 2956 1122 2956 1747 
Q 2956 2369 2687 2733 
Q 2419 3097 1959 3097 
z
M 1959 3584 
Q 2709 3584 3137 3096 
Q 3566 2609 3566 1747 
Q 3566 888 3137 398 
Q 2709 -91 1959 -91 
Q 1206 -91 779 398 
Q 353 888 353 1747 
Q 353 2609 779 3096 
Q 1206 3584 1959 3584 
z
" transform="scale(0.015625)"/>
       <path id="DejaVuSans-5f" d="M 3263 -1063 
L 3263 -1509 
L -63 -1509 
L -63 -1063 
L 3263 -1063 
z
" transform="scale(0.015625)"/>
      </defs>
      <use xlink:href="#DejaVuSans-6e"/>
      <use xlink:href="#DejaVuSans-6f" transform="translate(63.378906 0)"/>
      <use xlink:href="#DejaVuSans-6e" transform="translate(124.560547 0)"/>
      <use xlink:href="#DejaVuSans-5f" transform="translate(187.939453 0)"/>
      <use xlink:href="#DejaVuSans-65" transform="translate(237.939453 0)"/>
      <use xlink:href="#DejaVuSans-65" transform="translate(299.462891 0)"/>
      <use xlink:href="#DejaVuSans-72" transform="translate(360.986328 0)"/>
      <use xlink:href="#DejaVuSans-69" transform="translate(402.099609 0)"/>
      <use xlink:href="#DejaVuSans-65" transform="translate(429.882812 0)"/>
     </g>
    </g>
   </g>
   <g id="line2d_16">
    <path d="M 38.420552 189.918162 
L 40.161853 186.555089 
L 41.903153 185.365149 
L 43.644454 185.650903 
L 47.127054 187.427984 
L 48.868355 187.878771 
L 50.609655 187.602467 
L 52.350955 186.600881 
L 54.092256 185.446359 
L 55.833556 185.245308 
L 57.574856 186.783335 
L 59.316157 189.542373 
L 61.057457 191.577316 
L 62.798757 190.69959 
L 64.540058 186.472547 
L 66.281358 181.296014 
L 68.022658 179.541959 
L 69.763959 184.697518 
L 71.505259 196.542845 
L 73.24656 210.572332 
L 74.98786 220.424537 
L 76.72916 221.974631 
L 78.470461 216.082077 
L 80.211761 208.009461 
L 81.953061 203.671091 
L 83.694362 205.493757 
L 85.435662 210.991136 
L 87.176962 215.061201 
L 88.918263 214.208776 
L 90.659563 209.38129 
L 92.400863 205.187784 
L 94.142164 206.229063 
L 95.883464 213.299097 
L 97.624764 222.735402 
L 99.366065 229.288565 
L 101.107365 230.335161 
L 102.848665 228.058268 
L 104.589966 227.684866 
L 106.331266 233.19483 
L 109.813867 253.725194 
L 111.555167 256.626603 
L 113.296468 249.649091 
L 116.779068 222.171855 
L 118.520369 214.518543 
L 120.261669 214.220487 
L 122.002969 217.719242 
L 123.74427 219.960335 
L 125.48557 218.581351 
L 127.22687 215.747464 
L 128.968171 216.245821 
L 130.709471 223.446916 
L 134.192072 249.469723 
L 135.933372 256.869436 
L 137.674672 255.549276 
L 139.415973 247.610314 
L 141.157273 238.595016 
L 142.898574 233.79795 
L 144.639874 235.067263 
L 146.381174 240.110581 
L 148.122475 244.62793 
L 149.863775 245.368244 
L 151.605075 242.09911 
L 153.346376 237.267471 
L 155.087676 233.757253 
L 156.828976 232.750118 
L 158.570277 232.962584 
L 160.311577 231.836998 
L 162.052877 227.65323 
L 163.794178 221.074813 
L 165.535478 215.145082 
L 167.276778 213.574164 
L 169.018079 218.388051 
L 170.759379 228.404304 
L 172.500679 239.524573 
L 174.24198 246.75407 
L 175.98328 246.821454 
L 177.724581 240.045524 
L 179.465881 230.178397 
L 181.207181 222.330667 
L 182.948482 220.071959 
L 184.689782 223.371504 
L 186.431082 228.654981 
L 188.172383 230.747504 
L 189.913683 225.707555 
L 191.654983 212.703569 
L 193.396284 193.886525 
L 196.878884 152.276164 
L 198.620185 133.624259 
L 200.361485 117.092878 
L 202.102785 103.530253 
L 203.844086 95.448825 
L 205.585386 96.537008 
L 207.326686 109.856098 
L 209.067987 135.659522 
L 210.809287 170.436085 
L 212.550588 208.072532 
L 214.291888 242.450469 
L 216.033188 270.094359 
L 217.774489 291.252347 
L 219.515789 308.591258 
L 221.257089 324.512466 
L 222.99839 338.70961 
L 224.73969 347.862204 
L 226.48099 347.625813 
L 228.222291 335.665368 
L 229.963591 313.536971 
L 233.446192 259.214064 
L 235.187492 235.970112 
L 236.928792 216.40754 
L 240.411393 181.942631 
L 242.152693 168.251643 
L 243.893994 161.607321 
L 245.635294 164.937782 
L 247.376595 177.205763 
L 249.117895 193.20286 
L 250.859195 206.402351 
L 252.600496 212.957474 
L 254.341796 214.013327 
L 256.083096 214.511517 
L 257.824397 219.457885 
L 259.565697 230.284026 
L 261.306997 244.123685 
L 263.048298 256.274614 
L 264.789598 263.744131 
L 266.530898 267.073963 
L 268.272199 269.159061 
L 270.013499 272.304478 
L 271.754799 276.159683 
L 273.4961 278.227064 
L 275.2374 276.46861 
L 276.9787 271.729437 
L 278.720001 267.818061 
L 280.461301 268.903585 
L 282.202602 276.292126 
L 283.943902 287.112225 
L 285.685202 296.035632 
L 287.426503 298.773151 
L 289.167803 294.855956 
L 290.909103 287.717386 
L 292.650404 282.204767 
L 294.391704 281.399845 
L 296.133004 285.083267 
L 297.874305 290.534569 
L 299.615605 294.849604 
L 301.356905 296.78953 
L 303.098206 296.964612 
L 304.839506 296.537322 
L 306.580806 295.718296 
L 308.322107 293.501686 
L 310.063407 288.678883 
L 313.546008 273.706723 
L 315.287308 268.929603 
L 317.028609 269.470952 
L 318.769909 275.211274 
L 320.511209 283.150378 
L 322.25251 288.867652 
L 323.99381 288.870685 
L 325.73511 282.584552 
L 327.476411 272.77646 
L 329.217711 264.240804 
L 330.959011 261.341094 
L 332.700312 265.606492 
L 336.182912 283.452773 
L 337.924213 286.571089 
L 339.665513 281.453156 
L 341.406813 269.855895 
L 343.148114 257.140652 
L 344.889414 249.350519 
L 346.630714 249.706299 
L 348.372015 256.478237 
L 350.113315 263.845592 
L 351.854616 265.404554 
L 353.595916 258.275332 
L 355.337216 245.257306 
L 357.078517 233.334958 
L 358.819817 229.381316 
L 360.561117 235.695926 
L 362.302418 248.284187 
L 364.043718 259.229289 
L 365.785018 261.693997 
L 367.526319 254.286496 
L 369.267619 241.885141 
L 371.008919 232.353352 
L 372.75022 231.430754 
L 374.49152 239.058898 
L 376.23282 249.753226 
L 377.974121 256.434015 
L 379.715421 255.1593 
L 381.456721 247.396408 
L 383.198022 238.613672 
L 384.939322 234.246644 
L 386.680623 235.942179 
L 388.421923 240.850521 
L 390.163223 243.952697 
L 391.904524 241.833894 
L 393.645824 235.114133 
L 395.387124 227.884138 
L 397.128425 224.80746 
L 398.869725 227.740473 
L 400.611025 234.507299 
L 402.352326 240.43887 
L 404.093626 241.60478 
L 405.834926 237.414696 
L 407.576227 230.887069 
L 409.317527 226.469435 
L 411.058827 226.9392 
L 412.800128 231.649749 
L 414.541428 237.164654 
L 416.282728 239.703553 
L 418.024029 237.676386 
L 419.765329 232.344994 
L 421.50663 226.496832 
L 423.24793 222.244211 
L 424.98923 219.810611 
L 426.730531 218.200544 
L 428.471831 216.849158 
L 430.213131 216.715217 
L 431.954432 219.530217 
L 433.695732 225.824145 
L 435.437032 233.524426 
L 437.178333 238.618479 
L 438.919633 237.961988 
L 440.660933 231.989657 
L 442.402234 225.176993 
L 444.143534 223.211843 
L 445.884834 228.743869 
L 447.626135 239.06701 
L 449.367435 247.553527 
L 451.108735 248.275418 
L 452.850036 240.451813 
L 454.591336 229.36005 
L 456.332637 222.757697 
L 458.073937 225.276365 
L 461.556538 244.946322 
L 463.297838 247.650552 
L 465.039138 241.093945 
L 466.780439 230.087057 
L 468.521739 223.11057 
L 470.263039 226.483068 
L 472.00434 240.109985 
L 473.74564 257.514837 
L 475.48694 270.025469 
L 477.228241 271.960413 
L 478.969541 263.520651 
L 480.710841 249.823737 
L 482.452142 237.225576 
L 484.193442 229.830021 
L 485.934742 228.127519 
L 487.676043 230.137438 
L 489.417343 233.666947 
L 491.158644 237.716322 
L 492.899944 242.413912 
L 496.382545 253.344945 
L 498.123845 257.305374 
L 499.865145 258.691878 
L 501.606446 257.922138 
L 503.347746 256.893635 
L 505.089046 257.929254 
L 506.830347 262.343479 
L 508.571647 269.523197 
L 510.312947 277.267028 
L 512.054248 283.008083 
L 513.795548 285.206736 
L 515.536848 284.080195 
L 517.278149 281.291317 
L 519.019449 279.031629 
L 520.760749 279.049988 
L 522.50205 282.1132 
L 524.24335 287.967254 
L 527.725951 303.416856 
L 529.467251 309.884326 
L 531.208552 313.784618 
L 532.949852 314.84758 
L 534.691152 313.991875 
L 536.432453 312.856638 
L 538.173753 312.763288 
L 539.915053 313.810118 
L 541.656354 314.63822 
L 543.397654 313.332064 
L 545.138954 308.936505 
L 548.621555 296.128809 
L 550.362855 292.291702 
L 552.104156 291.195429 
L 553.845456 290.971751 
L 555.586756 288.965398 
L 557.328057 284.004189 
L 559.069357 277.742557 
L 560.810658 273.877181 
L 562.551958 275.615456 
L 564.293258 283.322469 
L 566.034559 293.978137 
L 567.775859 303.028904 
L 569.517159 307.237999 
L 571.25846 306.569661 
L 572.99976 303.773991 
L 572.99976 303.773991 
" style="fill: none; stroke: #1f77b4; stroke-width: 1.5; stroke-linecap: square"/>
   </g>
   <g id="line2d_17">
    <path d="M 38.420552 180.631613 
L 40.161853 183.244784 
L 41.903153 187.422128 
L 43.644454 189.77652 
L 45.385754 186.772508 
L 47.127054 177.812925 
L 48.868355 166.665555 
L 50.609655 159.897384 
L 52.350955 162.952514 
L 54.092256 176.599827 
L 55.833556 195.98399 
L 57.574856 213.150937 
L 59.316157 221.529017 
L 61.057457 219.552834 
L 64.540058 203.572342 
L 66.281358 201.501112 
L 68.022658 205.492213 
L 69.763959 211.415463 
L 71.505259 213.738765 
L 73.24656 209.558029 
L 76.72916 192.327079 
L 78.470461 189.552731 
L 80.211761 193.528117 
L 81.953061 200.669902 
L 83.694362 205.149743 
L 85.435662 203.096092 
L 88.918263 187.557052 
L 90.659563 185.123416 
L 92.400863 190.513375 
L 95.883464 211.602598 
L 97.624764 217.827606 
L 99.366065 219.837318 
L 101.107365 221.310309 
L 102.848665 226.139923 
L 106.331266 243.788756 
L 108.072567 247.660113 
L 109.813867 243.635221 
L 113.296468 223.881222 
L 115.037768 219.835027 
L 116.779068 223.800856 
L 120.261669 242.6254 
L 122.002969 247.553423 
L 123.74427 246.445853 
L 125.48557 240.891538 
L 127.22687 233.79446 
L 128.968171 227.486377 
L 130.709471 223.10357 
L 132.450771 221.154742 
L 134.192072 222.326091 
L 135.933372 227.415979 
L 137.674672 236.429428 
L 139.415973 247.69358 
L 141.157273 258.058075 
L 142.898574 264.351356 
L 144.639874 265.182083 
L 146.381174 261.929472 
L 148.122475 258.060722 
L 149.863775 257.175939 
L 151.605075 260.906992 
L 153.346376 267.839171 
L 155.087676 274.151231 
L 156.828976 275.707787 
L 158.570277 270.58364 
L 162.052877 250.443174 
L 163.794178 245.935379 
L 165.535478 250.108223 
L 167.276778 261.467469 
L 169.018079 274.45611 
L 170.759379 282.570747 
L 172.500679 282.273177 
L 174.24198 275.294371 
L 175.98328 267.582617 
L 177.724581 265.421668 
L 179.465881 271.191611 
L 181.207181 281.652805 
L 182.948482 290.082553 
L 184.689782 290.709199 
L 186.431082 282.364936 
L 189.913683 255.86981 
L 191.654983 246.688018 
L 193.396284 240.055688 
L 195.137584 231.363526 
L 196.878884 216.284762 
L 198.620185 194.010543 
L 200.361485 167.930333 
L 202.102785 143.733831 
L 203.844086 126.553499 
L 205.585386 119.177823 
L 207.326686 122.410378 
L 209.067987 136.35123 
L 210.809287 161.093194 
L 212.550588 196.001631 
L 217.774489 324.86736 
L 219.515789 358.027708 
L 221.257089 380.827453 
L 222.99839 393.83392 
L 224.73969 398.64351 
L 226.48099 396.224993 
L 228.222291 386.624057 
L 229.963591 370.104641 
L 231.704891 348.456198 
L 233.446192 325.142711 
L 235.187492 303.819256 
L 236.928792 286.457481 
L 238.670093 272.567992 
L 242.152693 248.324166 
L 243.893994 237.361683 
L 245.635294 229.430159 
L 247.376595 226.066854 
L 249.117895 226.76313 
L 250.859195 228.999123 
L 252.600496 230.119624 
L 254.341796 229.513335 
L 256.083096 229.282753 
L 257.824397 232.813956 
L 259.565697 242.196344 
L 261.306997 256.406225 
L 263.048298 271.778529 
L 264.789598 284.386711 
L 266.530898 292.695639 
L 268.272199 298.470934 
L 270.013499 305.398388 
L 271.754799 316.412121 
L 275.2374 346.760422 
L 276.9787 358.047618 
L 278.720001 362.158697 
L 280.461301 359.443846 
L 282.202602 353.345729 
L 283.943902 348.202243 
L 285.685202 346.647105 
L 287.426503 348.394662 
L 289.167803 350.918028 
L 290.909103 351.58347 
L 292.650404 349.641044 
L 294.391704 346.639261 
L 296.133004 345.168584 
L 297.874305 346.860687 
L 299.615605 351.186673 
L 301.356905 355.920719 
L 303.098206 358.925784 
L 304.839506 359.837336 
L 306.580806 360.083662 
L 308.322107 361.336692 
L 310.063407 363.524012 
L 311.804707 364.308864 
L 313.546008 360.596237 
L 315.287308 351.203547 
L 317.028609 338.69957 
L 318.769909 328.505144 
L 320.511209 325.803538 
L 322.25251 332.115906 
L 323.99381 344.028267 
L 325.73511 355.144708 
L 327.476411 360.012681 
L 329.217711 357.319154 
L 330.959011 350.149782 
L 332.700312 343.453089 
L 334.441612 340.590169 
L 336.182912 341.467517 
L 337.924213 343.350856 
L 339.665513 343.356829 
L 341.406813 340.636616 
L 343.148114 336.647414 
L 344.889414 333.67463 
L 346.630714 332.985047 
L 348.372015 334.093248 
L 350.113315 335.474343 
L 351.854616 335.789473 
L 353.595916 334.636706 
L 355.337216 332.367412 
L 357.078517 329.459626 
L 360.561117 323.235083 
L 362.302418 321.2753 
L 364.043718 321.431312 
L 365.785018 324.045061 
L 367.526319 328.037896 
L 369.267619 331.1318 
L 371.008919 331.121479 
L 372.75022 327.457104 
L 374.49152 321.719 
L 376.23282 316.664311 
L 377.974121 314.417589 
L 379.715421 315.130727 
L 381.456721 316.968283 
L 383.198022 317.436395 
L 384.939322 314.907111 
L 386.680623 309.428788 
L 390.163223 295.789146 
L 391.904524 291.162012 
L 393.645824 289.565774 
L 395.387124 291.362958 
L 397.128425 296.186949 
L 400.611025 309.389776 
L 402.352326 314.167797 
L 404.093626 316.453649 
L 407.576227 317.667863 
L 409.317527 319.458158 
L 411.058827 322.042025 
L 412.800128 323.585725 
L 414.541428 322.159531 
L 416.282728 317.323932 
L 418.024029 310.780714 
L 419.765329 305.383827 
L 421.50663 303.263079 
L 423.24793 304.423363 
L 424.98923 306.80757 
L 426.730531 307.808433 
L 428.471831 306.061695 
L 431.954432 298.319932 
L 433.695732 296.188853 
L 435.437032 296.404283 
L 438.919633 299.654293 
L 440.660933 299.986535 
L 442.402234 298.929803 
L 444.143534 297.190556 
L 445.884834 295.807489 
L 447.626135 295.606098 
L 449.367435 296.932309 
L 451.108735 299.630553 
L 456.332637 310.20791 
L 458.073937 312.992217 
L 463.297838 320.275125 
L 465.039138 321.691377 
L 466.780439 321.026591 
L 468.521739 317.608763 
L 470.263039 311.869258 
L 472.00434 305.285202 
L 473.74564 299.577443 
L 475.48694 295.654719 
L 477.228241 293.225909 
L 478.969541 291.391556 
L 480.710841 289.871333 
L 482.452142 289.676235 
L 484.193442 292.496444 
L 485.934742 299.179287 
L 487.676043 308.368332 
L 489.417343 316.589168 
L 491.158644 320.12024 
L 492.899944 317.429087 
L 496.382545 304.030574 
L 498.123845 302.582867 
L 499.865145 308.076676 
L 501.606446 318.764632 
L 503.347746 330.615524 
L 505.089046 339.898122 
L 506.830347 345.239248 
L 508.571647 347.721707 
L 512.054248 350.727636 
L 513.795548 351.189234 
L 515.536848 348.963514 
L 517.278149 343.357906 
L 519.019449 335.906159 
L 520.760749 329.904803 
L 522.50205 328.480445 
L 524.24335 332.552063 
L 525.984651 340.000777 
L 527.725951 346.588601 
L 529.467251 348.140953 
L 531.208552 342.791557 
L 532.949852 331.956267 
L 534.691152 319.648352 
L 536.432453 310.506813 
L 538.173753 307.573057 
L 539.915053 310.900702 
L 541.656354 317.689782 
L 543.397654 323.877437 
L 545.138954 326.259085 
L 546.880255 324.149491 
L 548.621555 319.611518 
L 550.362855 316.121407 
L 552.104156 316.474189 
L 553.845456 321.137665 
L 555.586756 328.017383 
L 557.328057 333.733811 
L 559.069357 335.507518 
L 560.810658 332.677737 
L 562.551958 326.755422 
L 564.293258 320.36088 
L 566.034559 315.769009 
L 567.775859 313.990636 
L 569.517159 314.767091 
L 571.25846 317.080267 
L 572.99976 319.70763 
L 572.99976 319.70763 
" style="fill: none; stroke: #ff7f0e; stroke-width: 1.5; stroke-linecap: square"/>
   </g>
  </g>
  <g id="axes_2">
   <g id="PathCollection_1">
    <defs>
     <path id="C0_0_28181148b7" d="M 0 1.118034 
C 0.296506 1.118034 0.580908 1.000231 0.790569 0.790569 
C 1.000231 0.580908 1.118034 0.296506 1.118034 -0 
C 1.118034 -0.296506 1.000231 -0.580908 0.790569 -0.790569 
C 0.580908 -1.000231 0.296506 -1.118034 0 -1.118034 
C -0.296506 -1.118034 -0.580908 -1.000231 -0.790569 -0.790569 
C -1.000231 -0.580908 -1.118034 -0.296506 -1.118034 0 
C -1.118034 0.296506 -1.000231 0.580908 -0.790569 0.790569 
C -0.580908 1.000231 -0.296506 1.118034 0 1.118034 
z
"/>
    </defs>
    <g clip-path="url(#p165b8f97d0)">
     <use xlink:href="#C0_0_28181148b7" x="510.704418" y="98.953072" style="stroke: #000000"/>
    </g>
    <g clip-path="url(#p165b8f97d0)">
     <use xlink:href="#C0_0_28181148b7" x="519.993383" y="99.039763" style="stroke: #000000"/>
    </g>
    <g clip-path="url(#p165b8f97d0)">
     <use xlink:href="#C0_0_28181148b7" x="529.302376" y="98.864322" style="stroke: #000000"/>
    </g>
   </g>
   <g id="matplotlib.axis_3"/>
   <g id="matplotlib.axis_4"/>
   <g id="line2d_18">
    <path d="M 559.992528 73.636527 
L 559.914846 71.164658 
L 559.682108 68.702544 
L 559.295231 66.259901 
L 558.755743 63.846371 
L 558.065773 61.471479 
L 557.228044 59.144596 
L 556.245861 56.874906 
L 555.123102 54.671367 
L 553.864197 52.542675 
L 552.474114 50.49723 
L 550.95834 48.543105 
L 549.322856 46.688013 
L 547.574117 44.939275 
L 545.719025 43.303791 
L 543.764901 41.788017 
L 541.719456 40.397934 
L 539.590764 39.139029 
L 537.387224 38.016269 
L 535.117535 37.034087 
L 532.790652 36.196358 
L 530.415759 35.506387 
L 528.002229 34.9669 
L 525.559587 34.580023 
L 523.097473 34.347285 
L 520.625603 34.269603 
L 518.153734 34.347285 
L 515.691619 34.580023 
L 513.248977 34.9669 
L 510.835447 35.506387 
L 508.460555 36.196358 
L 506.133672 37.034087 
L 503.863982 38.016269 
L 501.660443 39.139029 
L 499.53175 40.397934 
L 497.486306 41.788017 
L 495.532181 43.303791 
L 493.677089 44.939275 
L 491.92835 46.688013 
L 490.292867 48.543105 
L 488.777092 50.49723 
L 487.38701 52.542675 
L 486.128104 54.671367 
L 485.005345 56.874906 
L 484.023163 59.144596 
L 483.185433 61.471479 
L 482.495463 63.846371 
L 481.955975 66.259901 
L 481.569099 68.702544 
L 481.336361 71.164658 
L 481.258679 73.636527 
L 481.336361 76.108397 
L 481.569099 78.570511 
L 481.955975 81.013153 
L 482.495463 83.426683 
L 483.185433 85.801576 
L 484.023163 88.128459 
L 485.005345 90.398149 
L 486.128104 92.601688 
L 487.38701 94.73038 
L 488.777092 96.775825 
L 490.292867 98.729949 
L 491.92835 100.585042 
L 493.677089 102.33378 
L 495.532181 103.969264 
L 497.486306 105.485038 
L 499.53175 106.875121 
L 501.660443 108.134026 
L 503.863982 109.256786 
L 506.133672 110.238968 
L 508.460555 111.076697 
L 510.835447 111.766667 
L 513.248977 112.306155 
L 515.691619 112.693032 
L 518.153734 112.92577 
L 520.625603 113.003452 
L 523.097473 112.92577 
L 525.559587 112.693032 
L 528.002229 112.306155 
L 530.415759 111.766667 
L 532.790652 111.076697 
L 535.117535 110.238968 
L 537.387224 109.256786 
L 539.590764 108.134026 
L 541.719456 106.875121 
L 543.764901 105.485038 
L 545.719025 103.969264 
L 547.574117 102.33378 
L 549.322856 100.585042 
L 550.95834 98.729949 
L 552.474114 96.775825 
L 553.864197 94.73038 
L 555.123102 92.601688 
L 556.245861 90.398149 
L 557.228044 88.128459 
L 558.065773 85.801576 
L 558.755743 83.426683 
L 559.295231 81.013153 
L 559.682108 78.570511 
L 559.914846 76.108397 
L 559.992528 73.636527 
" style="fill: none; stroke: #000000; stroke-linecap: square"/>
   </g>
   <g id="line2d_19">
    <path d="M 512.380614 35.142698 
L 520.625603 28.364564 
L 528.870593 35.142698 
" style="fill: none; stroke: #000000; stroke-linecap: square"/>
   </g>
   <g id="line2d_20">
    <path d="M 481.49488 69.266799 
L 480.47134 67.534654 
L 479.84147 67.471667 
L 478.904537 67.762982 
L 477.959731 69.266799 
L 478.109325 74.069564 
L 477.558188 80.974522 
L 478.739196 83.974282 
L 480.47134 84.533292 
L 482.124751 83.076716 
" style="fill: none; stroke: #000000; stroke-linecap: square"/>
   </g>
   <g id="line2d_21">
    <path d="M 559.756326 69.266799 
L 560.779866 67.534654 
L 561.409737 67.471667 
L 562.34667 67.762982 
L 563.291476 69.266799 
L 563.141882 74.069564 
L 563.693018 80.974522 
L 562.512011 83.974282 
L 560.779866 84.533292 
L 559.126455 83.076716 
" style="fill: none; stroke: #000000; stroke-linecap: square"/>
   </g>
  </g>
 </g>
 <defs>
  <clipPath id="p0798836b9b">
   <rect x="38.420552" y="18.118365" width="534.579207" height="380.525145"/>
  </clipPath>
  <clipPath id="p165b8f97d0">
   <rect x="473.251446" y="24.13262" width="94.748314" height="93.102776"/>
  </clipPath>
 </defs>
</svg>
