<?xml version="1.0" encoding="utf-8" standalone="no"?>
<!DOCTYPE svg PUBLIC "-//W3C//DTD SVG 1.1//EN"
  "http://www.w3.org/Graphics/SVG/1.1/DTD/svg11.dtd">
<svg xmlns:xlink="http://www.w3.org/1999/xlink" width="576pt" height="432pt" viewBox="0 0 576 432" xmlns="http://www.w3.org/2000/svg" version="1.1">
 <metadata>
  <rdf:RDF xmlns:dc="http://purl.org/dc/elements/1.1/" xmlns:cc="http://creativecommons.org/ns#" xmlns:rdf="http://www.w3.org/1999/02/22-rdf-syntax-ns#">
   <cc:Work>
    <dc:type rdf:resource="http://purl.org/dc/dcmitype/StillImage"/>
    <dc:date>2025-02-20T17:27:05.938987</dc:date>
    <dc:format>image/svg+xml</dc:format>
    <dc:creator>
     <cc:Agent>
      <dc:title>Matplotlib v3.10.0, https://matplotlib.org/</dc:title>
     </cc:Agent>
    </dc:creator>
   </cc:Work>
  </rdf:RDF>
 </metadata>
 <defs>
  <style type="text/css">*{stroke-linejoin: round; stroke-linecap: butt}</style>
 </defs>
 <g id="figure_1">
  <g id="patch_1">
   <path d="M 0 432 
L 576 432 
L 576 0 
L 0 0 
z
" style="fill: #ffffff"/>
  </g>
  <g id="axes_1">
   <g id="patch_2">
    <path d="M 38.420552 398.64351 
L 561.866948 398.64351 
L 561.866948 18.118365 
L 38.420552 18.118365 
L 38.420552 398.64351 
z
" style="fill: none; opacity: 0"/>
   </g>
   <g id="patch_3">
    <path d="M 38.420552 346.498183 
L 38.420552 70.263692 
" style="fill: none; stroke: #000000; stroke-width: 0.8; stroke-linejoin: miter; stroke-linecap: square"/>
   </g>
   <g id="LineCollection_1">
    <path d="M 343.877819 18.118365 
L 343.877819 398.64351 
" clip-path="url(#pdeecd3e9ec)" style="fill: none; stroke-dasharray: 3.7,1.6; stroke-dashoffset: 0; stroke: #000000"/>
    <path d="M 452.872383 18.118365 
L 452.872383 398.64351 
" clip-path="url(#pdeecd3e9ec)" style="fill: none; stroke-dasharray: 3.7,1.6; stroke-dashoffset: 0; stroke: #000000"/>
   </g>
   <g id="matplotlib.axis_1">
    <g id="xtick_1">
     <g id="line2d_1">
      <defs>
       <path id="m54f70eea55" d="M 0 0 
L 0 3.5 
" style="stroke: #000000; stroke-width: 0.8"/>
      </defs>
      <g>
       <use xlink:href="#m54f70eea55" x="38.693039" y="398.64351" style="stroke: #000000; stroke-width: 0.8"/>
      </g>
     </g>
     <g id="text_1">
      <!-- −0.20 -->
      <g transform="translate(23.370383 413.241947) scale(0.1 -0.1)">
       <defs>
        <path id="DejaVuSans-2212" d="M 678 2272 
L 4684 2272 
L 4684 1741 
L 678 1741 
L 678 2272 
z
" transform="scale(0.015625)"/>
        <path id="DejaVuSans-30" d="M 2034 4250 
Q 1547 4250 1301 3770 
Q 1056 3291 1056 2328 
Q 1056 1369 1301 889 
Q 1547 409 2034 409 
Q 2525 409 2770 889 
Q 3016 1369 3016 2328 
Q 3016 3291 2770 3770 
Q 2525 4250 2034 4250 
z
M 2034 4750 
Q 2819 4750 3233 4129 
Q 3647 3509 3647 2328 
Q 3647 1150 3233 529 
Q 2819 -91 2034 -91 
Q 1250 -91 836 529 
Q 422 1150 422 2328 
Q 422 3509 836 4129 
Q 1250 4750 2034 4750 
z
" transform="scale(0.015625)"/>
        <path id="DejaVuSans-2e" d="M 684 794 
L 1344 794 
L 1344 0 
L 684 0 
L 684 794 
z
" transform="scale(0.015625)"/>
        <path id="DejaVuSans-32" d="M 1228 531 
L 3431 531 
L 3431 0 
L 469 0 
L 469 531 
Q 828 903 1448 1529 
Q 2069 2156 2228 2338 
Q 2531 2678 2651 2914 
Q 2772 3150 2772 3378 
Q 2772 3750 2511 3984 
Q 2250 4219 1831 4219 
Q 1534 4219 1204 4116 
Q 875 4013 500 3803 
L 500 4441 
Q 881 4594 1212 4672 
Q 1544 4750 1819 4750 
Q 2544 4750 2975 4387 
Q 3406 4025 3406 3419 
Q 3406 3131 3298 2873 
Q 3191 2616 2906 2266 
Q 2828 2175 2409 1742 
Q 1991 1309 1228 531 
z
" transform="scale(0.015625)"/>
       </defs>
       <use xlink:href="#DejaVuSans-2212"/>
       <use xlink:href="#DejaVuSans-30" transform="translate(83.789062 0)"/>
       <use xlink:href="#DejaVuSans-2e" transform="translate(147.412109 0)"/>
       <use xlink:href="#DejaVuSans-32" transform="translate(179.199219 0)"/>
       <use xlink:href="#DejaVuSans-30" transform="translate(242.822266 0)"/>
      </g>
     </g>
    </g>
    <g id="xtick_2">
     <g id="line2d_2">
      <g>
       <use xlink:href="#m54f70eea55" x="125.88869" y="398.64351" style="stroke: #000000; stroke-width: 0.8"/>
      </g>
     </g>
     <g id="text_2">
      <!-- 0.00 -->
      <g transform="translate(114.755878 413.241947) scale(0.1 -0.1)">
       <use xlink:href="#DejaVuSans-30"/>
       <use xlink:href="#DejaVuSans-2e" transform="translate(63.623047 0)"/>
       <use xlink:href="#DejaVuSans-30" transform="translate(95.410156 0)"/>
       <use xlink:href="#DejaVuSans-30" transform="translate(159.033203 0)"/>
      </g>
     </g>
    </g>
    <g id="xtick_3">
     <g id="line2d_3">
      <g>
       <use xlink:href="#m54f70eea55" x="213.084342" y="398.64351" style="stroke: #000000; stroke-width: 0.8"/>
      </g>
     </g>
     <g id="text_3">
      <!-- 0.20 -->
      <g transform="translate(201.951529 413.241947) scale(0.1 -0.1)">
       <use xlink:href="#DejaVuSans-30"/>
       <use xlink:href="#DejaVuSans-2e" transform="translate(63.623047 0)"/>
       <use xlink:href="#DejaVuSans-32" transform="translate(95.410156 0)"/>
       <use xlink:href="#DejaVuSans-30" transform="translate(159.033203 0)"/>
      </g>
     </g>
    </g>
    <g id="xtick_4">
     <g id="line2d_4">
      <g>
       <use xlink:href="#m54f70eea55" x="300.279993" y="398.64351" style="stroke: #000000; stroke-width: 0.8"/>
      </g>
     </g>
     <g id="text_4">
      <!-- 0.40 -->
      <g transform="translate(289.147181 413.241947) scale(0.1 -0.1)">
       <defs>
        <path id="DejaVuSans-34" d="M 2419 4116 
L 825 1625 
L 2419 1625 
L 2419 4116 
z
M 2253 4666 
L 3047 4666 
L 3047 1625 
L 3713 1625 
L 3713 1100 
L 3047 1100 
L 3047 0 
L 2419 0 
L 2419 1100 
L 313 1100 
L 313 1709 
L 2253 4666 
z
" transform="scale(0.015625)"/>
       </defs>
       <use xlink:href="#DejaVuSans-30"/>
       <use xlink:href="#DejaVuSans-2e" transform="translate(63.623047 0)"/>
       <use xlink:href="#DejaVuSans-34" transform="translate(95.410156 0)"/>
       <use xlink:href="#DejaVuSans-30" transform="translate(159.033203 0)"/>
      </g>
     </g>
    </g>
    <g id="xtick_5">
     <g id="line2d_5">
      <g>
       <use xlink:href="#m54f70eea55" x="343.877819" y="398.64351" style="stroke: #000000; stroke-width: 0.8"/>
      </g>
     </g>
     <g id="text_5">
      <!-- 0.50 -->
      <g transform="translate(332.745006 413.241947) scale(0.1 -0.1)">
       <defs>
        <path id="DejaVuSans-35" d="M 691 4666 
L 3169 4666 
L 3169 4134 
L 1269 4134 
L 1269 2991 
Q 1406 3038 1543 3061 
Q 1681 3084 1819 3084 
Q 2600 3084 3056 2656 
Q 3513 2228 3513 1497 
Q 3513 744 3044 326 
Q 2575 -91 1722 -91 
Q 1428 -91 1123 -41 
Q 819 9 494 109 
L 494 744 
Q 775 591 1075 516 
Q 1375 441 1709 441 
Q 2250 441 2565 725 
Q 2881 1009 2881 1497 
Q 2881 1984 2565 2268 
Q 2250 2553 1709 2553 
Q 1456 2553 1204 2497 
Q 953 2441 691 2322 
L 691 4666 
z
" transform="scale(0.015625)"/>
       </defs>
       <use xlink:href="#DejaVuSans-30"/>
       <use xlink:href="#DejaVuSans-2e" transform="translate(63.623047 0)"/>
       <use xlink:href="#DejaVuSans-35" transform="translate(95.410156 0)"/>
       <use xlink:href="#DejaVuSans-30" transform="translate(159.033203 0)"/>
      </g>
     </g>
    </g>
    <g id="xtick_6">
     <g id="line2d_6">
      <g>
       <use xlink:href="#m54f70eea55" x="387.475645" y="398.64351" style="stroke: #000000; stroke-width: 0.8"/>
      </g>
     </g>
     <g id="text_6">
      <!-- 0.60 -->
      <g transform="translate(376.342832 413.241947) scale(0.1 -0.1)">
       <defs>
        <path id="DejaVuSans-36" d="M 2113 2584 
Q 1688 2584 1439 2293 
Q 1191 2003 1191 1497 
Q 1191 994 1439 701 
Q 1688 409 2113 409 
Q 2538 409 2786 701 
Q 3034 994 3034 1497 
Q 3034 2003 2786 2293 
Q 2538 2584 2113 2584 
z
M 3366 4563 
L 3366 3988 
Q 3128 4100 2886 4159 
Q 2644 4219 2406 4219 
Q 1781 4219 1451 3797 
Q 1122 3375 1075 2522 
Q 1259 2794 1537 2939 
Q 1816 3084 2150 3084 
Q 2853 3084 3261 2657 
Q 3669 2231 3669 1497 
Q 3669 778 3244 343 
Q 2819 -91 2113 -91 
Q 1303 -91 875 529 
Q 447 1150 447 2328 
Q 447 3434 972 4092 
Q 1497 4750 2381 4750 
Q 2619 4750 2861 4703 
Q 3103 4656 3366 4563 
z
" transform="scale(0.015625)"/>
       </defs>
       <use xlink:href="#DejaVuSans-30"/>
       <use xlink:href="#DejaVuSans-2e" transform="translate(63.623047 0)"/>
       <use xlink:href="#DejaVuSans-36" transform="translate(95.410156 0)"/>
       <use xlink:href="#DejaVuSans-30" transform="translate(159.033203 0)"/>
      </g>
     </g>
    </g>
    <g id="xtick_7">
     <g id="line2d_7">
      <g>
       <use xlink:href="#m54f70eea55" x="452.872383" y="398.64351" style="stroke: #000000; stroke-width: 0.8"/>
      </g>
     </g>
     <g id="text_7">
      <!-- 0.75 -->
      <g transform="translate(441.739571 413.241947) scale(0.1 -0.1)">
       <defs>
        <path id="DejaVuSans-37" d="M 525 4666 
L 3525 4666 
L 3525 4397 
L 1831 0 
L 1172 0 
L 2766 4134 
L 525 4134 
L 525 4666 
z
" transform="scale(0.015625)"/>
       </defs>
       <use xlink:href="#DejaVuSans-30"/>
       <use xlink:href="#DejaVuSans-2e" transform="translate(63.623047 0)"/>
       <use xlink:href="#DejaVuSans-37" transform="translate(95.410156 0)"/>
       <use xlink:href="#DejaVuSans-35" transform="translate(159.033203 0)"/>
      </g>
     </g>
    </g>
    <g id="xtick_8">
     <g id="line2d_8">
      <g>
       <use xlink:href="#m54f70eea55" x="474.671296" y="398.64351" style="stroke: #000000; stroke-width: 0.8"/>
      </g>
     </g>
     <g id="text_8">
      <!-- 0.80 -->
      <g transform="translate(463.538484 413.241947) scale(0.1 -0.1)">
       <defs>
        <path id="DejaVuSans-38" d="M 2034 2216 
Q 1584 2216 1326 1975 
Q 1069 1734 1069 1313 
Q 1069 891 1326 650 
Q 1584 409 2034 409 
Q 2484 409 2743 651 
Q 3003 894 3003 1313 
Q 3003 1734 2745 1975 
Q 2488 2216 2034 2216 
z
M 1403 2484 
Q 997 2584 770 2862 
Q 544 3141 544 3541 
Q 544 4100 942 4425 
Q 1341 4750 2034 4750 
Q 2731 4750 3128 4425 
Q 3525 4100 3525 3541 
Q 3525 3141 3298 2862 
Q 3072 2584 2669 2484 
Q 3125 2378 3379 2068 
Q 3634 1759 3634 1313 
Q 3634 634 3220 271 
Q 2806 -91 2034 -91 
Q 1263 -91 848 271 
Q 434 634 434 1313 
Q 434 1759 690 2068 
Q 947 2378 1403 2484 
z
M 1172 3481 
Q 1172 3119 1398 2916 
Q 1625 2713 2034 2713 
Q 2441 2713 2670 2916 
Q 2900 3119 2900 3481 
Q 2900 3844 2670 4047 
Q 2441 4250 2034 4250 
Q 1625 4250 1398 4047 
Q 1172 3844 1172 3481 
z
" transform="scale(0.015625)"/>
       </defs>
       <use xlink:href="#DejaVuSans-30"/>
       <use xlink:href="#DejaVuSans-2e" transform="translate(63.623047 0)"/>
       <use xlink:href="#DejaVuSans-38" transform="translate(95.410156 0)"/>
       <use xlink:href="#DejaVuSans-30" transform="translate(159.033203 0)"/>
      </g>
     </g>
    </g>
    <g id="xtick_9">
     <g id="line2d_9">
      <g>
       <use xlink:href="#m54f70eea55" x="561.866948" y="398.64351" style="stroke: #000000; stroke-width: 0.8"/>
      </g>
     </g>
     <g id="text_9">
      <!-- 1.00 -->
      <g transform="translate(550.734135 413.241947) scale(0.1 -0.1)">
       <defs>
        <path id="DejaVuSans-31" d="M 794 531 
L 1825 531 
L 1825 4091 
L 703 3866 
L 703 4441 
L 1819 4666 
L 2450 4666 
L 2450 531 
L 3481 531 
L 3481 0 
L 794 0 
L 794 531 
z
" transform="scale(0.015625)"/>
       </defs>
       <use xlink:href="#DejaVuSans-31"/>
       <use xlink:href="#DejaVuSans-2e" transform="translate(63.623047 0)"/>
       <use xlink:href="#DejaVuSans-30" transform="translate(95.410156 0)"/>
       <use xlink:href="#DejaVuSans-30" transform="translate(159.033203 0)"/>
      </g>
     </g>
    </g>
    <g id="text_10">
     <!-- Time (s) -->
     <g transform="translate(279.814844 426.920073) scale(0.1 -0.1)">
      <defs>
       <path id="DejaVuSans-54" d="M -19 4666 
L 3928 4666 
L 3928 4134 
L 2272 4134 
L 2272 0 
L 1638 0 
L 1638 4134 
L -19 4134 
L -19 4666 
z
" transform="scale(0.015625)"/>
       <path id="DejaVuSans-69" d="M 603 3500 
L 1178 3500 
L 1178 0 
L 603 0 
L 603 3500 
z
M 603 4863 
L 1178 4863 
L 1178 4134 
L 603 4134 
L 603 4863 
z
" transform="scale(0.015625)"/>
       <path id="DejaVuSans-6d" d="M 3328 2828 
Q 3544 3216 3844 3400 
Q 4144 3584 4550 3584 
Q 5097 3584 5394 3201 
Q 5691 2819 5691 2113 
L 5691 0 
L 5113 0 
L 5113 2094 
Q 5113 2597 4934 2840 
Q 4756 3084 4391 3084 
Q 3944 3084 3684 2787 
Q 3425 2491 3425 1978 
L 3425 0 
L 2847 0 
L 2847 2094 
Q 2847 2600 2669 2842 
Q 2491 3084 2119 3084 
Q 1678 3084 1418 2786 
Q 1159 2488 1159 1978 
L 1159 0 
L 581 0 
L 581 3500 
L 1159 3500 
L 1159 2956 
Q 1356 3278 1631 3431 
Q 1906 3584 2284 3584 
Q 2666 3584 2933 3390 
Q 3200 3197 3328 2828 
z
" transform="scale(0.015625)"/>
       <path id="DejaVuSans-65" d="M 3597 1894 
L 3597 1613 
L 953 1613 
Q 991 1019 1311 708 
Q 1631 397 2203 397 
Q 2534 397 2845 478 
Q 3156 559 3463 722 
L 3463 178 
Q 3153 47 2828 -22 
Q 2503 -91 2169 -91 
Q 1331 -91 842 396 
Q 353 884 353 1716 
Q 353 2575 817 3079 
Q 1281 3584 2069 3584 
Q 2775 3584 3186 3129 
Q 3597 2675 3597 1894 
z
M 3022 2063 
Q 3016 2534 2758 2815 
Q 2500 3097 2075 3097 
Q 1594 3097 1305 2825 
Q 1016 2553 972 2059 
L 3022 2063 
z
" transform="scale(0.015625)"/>
       <path id="DejaVuSans-20" transform="scale(0.015625)"/>
       <path id="DejaVuSans-28" d="M 1984 4856 
Q 1566 4138 1362 3434 
Q 1159 2731 1159 2009 
Q 1159 1288 1364 580 
Q 1569 -128 1984 -844 
L 1484 -844 
Q 1016 -109 783 600 
Q 550 1309 550 2009 
Q 550 2706 781 3412 
Q 1013 4119 1484 4856 
L 1984 4856 
z
" transform="scale(0.015625)"/>
       <path id="DejaVuSans-73" d="M 2834 3397 
L 2834 2853 
Q 2591 2978 2328 3040 
Q 2066 3103 1784 3103 
Q 1356 3103 1142 2972 
Q 928 2841 928 2578 
Q 928 2378 1081 2264 
Q 1234 2150 1697 2047 
L 1894 2003 
Q 2506 1872 2764 1633 
Q 3022 1394 3022 966 
Q 3022 478 2636 193 
Q 2250 -91 1575 -91 
Q 1294 -91 989 -36 
Q 684 19 347 128 
L 347 722 
Q 666 556 975 473 
Q 1284 391 1588 391 
Q 1994 391 2212 530 
Q 2431 669 2431 922 
Q 2431 1156 2273 1281 
Q 2116 1406 1581 1522 
L 1381 1569 
Q 847 1681 609 1914 
Q 372 2147 372 2553 
Q 372 3047 722 3315 
Q 1072 3584 1716 3584 
Q 2034 3584 2315 3537 
Q 2597 3491 2834 3397 
z
" transform="scale(0.015625)"/>
       <path id="DejaVuSans-29" d="M 513 4856 
L 1013 4856 
Q 1481 4119 1714 3412 
Q 1947 2706 1947 2009 
Q 1947 1309 1714 600 
Q 1481 -109 1013 -844 
L 513 -844 
Q 928 -128 1133 580 
Q 1338 1288 1338 2009 
Q 1338 2731 1133 3434 
Q 928 4138 513 4856 
z
" transform="scale(0.015625)"/>
      </defs>
      <use xlink:href="#DejaVuSans-54"/>
      <use xlink:href="#DejaVuSans-69" transform="translate(57.958984 0)"/>
      <use xlink:href="#DejaVuSans-6d" transform="translate(85.742188 0)"/>
      <use xlink:href="#DejaVuSans-65" transform="translate(183.154297 0)"/>
      <use xlink:href="#DejaVuSans-20" transform="translate(244.677734 0)"/>
      <use xlink:href="#DejaVuSans-28" transform="translate(276.464844 0)"/>
      <use xlink:href="#DejaVuSans-73" transform="translate(315.478516 0)"/>
      <use xlink:href="#DejaVuSans-29" transform="translate(367.578125 0)"/>
     </g>
    </g>
   </g>
   <g id="matplotlib.axis_2">
    <g id="ytick_1">
     <g id="line2d_10">
      <defs>
       <path id="m1e7978d848" d="M 0 0 
L -3.5 0 
" style="stroke: #000000; stroke-width: 0.8"/>
      </defs>
      <g>
       <use xlink:href="#m1e7978d848" x="38.420552" y="346.498183" style="stroke: #000000; stroke-width: 0.8"/>
      </g>
     </g>
     <g id="text_11">
      <!-- −4 -->
      <g transform="translate(16.678365 350.297402) scale(0.1 -0.1)">
       <use xlink:href="#DejaVuSans-2212"/>
       <use xlink:href="#DejaVuSans-34" transform="translate(83.789062 0)"/>
      </g>
     </g>
    </g>
    <g id="ytick_2">
     <g id="line2d_11">
      <g>
       <use xlink:href="#m1e7978d848" x="38.420552" y="277.43956" style="stroke: #000000; stroke-width: 0.8"/>
      </g>
     </g>
     <g id="text_12">
      <!-- −2 -->
      <g transform="translate(16.678365 281.238779) scale(0.1 -0.1)">
       <use xlink:href="#DejaVuSans-2212"/>
       <use xlink:href="#DejaVuSans-32" transform="translate(83.789062 0)"/>
      </g>
     </g>
    </g>
    <g id="ytick_3">
     <g id="line2d_12">
      <g>
       <use xlink:href="#m1e7978d848" x="38.420552" y="208.380937" style="stroke: #000000; stroke-width: 0.8"/>
      </g>
     </g>
     <g id="text_13">
      <!-- 0 -->
      <g transform="translate(25.058052 212.180156) scale(0.1 -0.1)">
       <use xlink:href="#DejaVuSans-30"/>
      </g>
     </g>
    </g>
    <g id="ytick_4">
     <g id="line2d_13">
      <g>
       <use xlink:href="#m1e7978d848" x="38.420552" y="139.322315" style="stroke: #000000; stroke-width: 0.8"/>
      </g>
     </g>
     <g id="text_14">
      <!-- 2 -->
      <g transform="translate(25.058052 143.121533) scale(0.1 -0.1)">
       <use xlink:href="#DejaVuSans-32"/>
      </g>
     </g>
    </g>
    <g id="ytick_5">
     <g id="line2d_14">
      <g>
       <use xlink:href="#m1e7978d848" x="38.420552" y="70.263692" style="stroke: #000000; stroke-width: 0.8"/>
      </g>
     </g>
     <g id="text_15">
      <!-- 4 -->
      <g transform="translate(25.058052 74.06291) scale(0.1 -0.1)">
       <use xlink:href="#DejaVuSans-34"/>
      </g>
     </g>
    </g>
    <g id="text_16">
     <!-- µV -->
     <g transform="translate(10.598677 214.9825) rotate(-90) scale(0.1 -0.1)">
      <defs>
       <path id="DejaVuSans-b5" d="M 544 -1331 
L 544 3500 
L 1119 3500 
L 1119 1325 
Q 1119 872 1334 640 
Q 1550 409 1972 409 
Q 2434 409 2667 671 
Q 2900 934 2900 1459 
L 2900 3500 
L 3475 3500 
L 3475 806 
Q 3475 619 3529 530 
Q 3584 441 3700 441 
Q 3728 441 3778 458 
Q 3828 475 3916 513 
L 3916 50 
Q 3788 -22 3673 -56 
Q 3559 -91 3450 -91 
Q 3234 -91 3106 31 
Q 2978 153 2931 403 
Q 2775 156 2548 32 
Q 2322 -91 2016 -91 
Q 1697 -91 1473 31 
Q 1250 153 1119 397 
L 1119 -1331 
L 544 -1331 
z
" transform="scale(0.015625)"/>
       <path id="DejaVuSans-56" d="M 1831 0 
L 50 4666 
L 709 4666 
L 2188 738 
L 3669 4666 
L 4325 4666 
L 2547 0 
L 1831 0 
z
" transform="scale(0.015625)"/>
      </defs>
      <use xlink:href="#DejaVuSans-b5"/>
      <use xlink:href="#DejaVuSans-56" transform="translate(63.623047 0)"/>
     </g>
    </g>
   </g>
   <g id="patch_4">
    <path d="M 38.693039 398.64351 
L 561.866948 398.64351 
" style="fill: none; stroke: #000000; stroke-width: 0.8; stroke-linejoin: miter; stroke-linecap: square"/>
   </g>
   <g id="patch_5">
    <path d="M 38.420552 208.380937 
L 561.866948 208.380937 
" style="fill: none; stroke: #000000; stroke-width: 0.8; stroke-linejoin: miter; stroke-linecap: square"/>
   </g>
   <g id="text_17">
    <!-- P3, Pz, P4 (median) -->
    <g transform="translate(241.798438 12.118365) scale(0.12 -0.12)">
     <defs>
      <path id="DejaVuSans-50" d="M 1259 4147 
L 1259 2394 
L 2053 2394 
Q 2494 2394 2734 2622 
Q 2975 2850 2975 3272 
Q 2975 3691 2734 3919 
Q 2494 4147 2053 4147 
L 1259 4147 
z
M 628 4666 
L 2053 4666 
Q 2838 4666 3239 4311 
Q 3641 3956 3641 3272 
Q 3641 2581 3239 2228 
Q 2838 1875 2053 1875 
L 1259 1875 
L 1259 0 
L 628 0 
L 628 4666 
z
" transform="scale(0.015625)"/>
      <path id="DejaVuSans-33" d="M 2597 2516 
Q 3050 2419 3304 2112 
Q 3559 1806 3559 1356 
Q 3559 666 3084 287 
Q 2609 -91 1734 -91 
Q 1441 -91 1130 -33 
Q 819 25 488 141 
L 488 750 
Q 750 597 1062 519 
Q 1375 441 1716 441 
Q 2309 441 2620 675 
Q 2931 909 2931 1356 
Q 2931 1769 2642 2001 
Q 2353 2234 1838 2234 
L 1294 2234 
L 1294 2753 
L 1863 2753 
Q 2328 2753 2575 2939 
Q 2822 3125 2822 3475 
Q 2822 3834 2567 4026 
Q 2313 4219 1838 4219 
Q 1578 4219 1281 4162 
Q 984 4106 628 3988 
L 628 4550 
Q 988 4650 1302 4700 
Q 1616 4750 1894 4750 
Q 2613 4750 3031 4423 
Q 3450 4097 3450 3541 
Q 3450 3153 3228 2886 
Q 3006 2619 2597 2516 
z
" transform="scale(0.015625)"/>
      <path id="DejaVuSans-2c" d="M 750 794 
L 1409 794 
L 1409 256 
L 897 -744 
L 494 -744 
L 750 256 
L 750 794 
z
" transform="scale(0.015625)"/>
      <path id="DejaVuSans-7a" d="M 353 3500 
L 3084 3500 
L 3084 2975 
L 922 459 
L 3084 459 
L 3084 0 
L 275 0 
L 275 525 
L 2438 3041 
L 353 3041 
L 353 3500 
z
" transform="scale(0.015625)"/>
      <path id="DejaVuSans-64" d="M 2906 2969 
L 2906 4863 
L 3481 4863 
L 3481 0 
L 2906 0 
L 2906 525 
Q 2725 213 2448 61 
Q 2172 -91 1784 -91 
Q 1150 -91 751 415 
Q 353 922 353 1747 
Q 353 2572 751 3078 
Q 1150 3584 1784 3584 
Q 2172 3584 2448 3432 
Q 2725 3281 2906 2969 
z
M 947 1747 
Q 947 1113 1208 752 
Q 1469 391 1925 391 
Q 2381 391 2643 752 
Q 2906 1113 2906 1747 
Q 2906 2381 2643 2742 
Q 2381 3103 1925 3103 
Q 1469 3103 1208 2742 
Q 947 2381 947 1747 
z
" transform="scale(0.015625)"/>
      <path id="DejaVuSans-61" d="M 2194 1759 
Q 1497 1759 1228 1600 
Q 959 1441 959 1056 
Q 959 750 1161 570 
Q 1363 391 1709 391 
Q 2188 391 2477 730 
Q 2766 1069 2766 1631 
L 2766 1759 
L 2194 1759 
z
M 3341 1997 
L 3341 0 
L 2766 0 
L 2766 531 
Q 2569 213 2275 61 
Q 1981 -91 1556 -91 
Q 1019 -91 701 211 
Q 384 513 384 1019 
Q 384 1609 779 1909 
Q 1175 2209 1959 2209 
L 2766 2209 
L 2766 2266 
Q 2766 2663 2505 2880 
Q 2244 3097 1772 3097 
Q 1472 3097 1187 3025 
Q 903 2953 641 2809 
L 641 3341 
Q 956 3463 1253 3523 
Q 1550 3584 1831 3584 
Q 2591 3584 2966 3190 
Q 3341 2797 3341 1997 
z
" transform="scale(0.015625)"/>
      <path id="DejaVuSans-6e" d="M 3513 2113 
L 3513 0 
L 2938 0 
L 2938 2094 
Q 2938 2591 2744 2837 
Q 2550 3084 2163 3084 
Q 1697 3084 1428 2787 
Q 1159 2491 1159 1978 
L 1159 0 
L 581 0 
L 581 3500 
L 1159 3500 
L 1159 2956 
Q 1366 3272 1645 3428 
Q 1925 3584 2291 3584 
Q 2894 3584 3203 3211 
Q 3513 2838 3513 2113 
z
" transform="scale(0.015625)"/>
     </defs>
     <use xlink:href="#DejaVuSans-50"/>
     <use xlink:href="#DejaVuSans-33" transform="translate(60.302734 0)"/>
     <use xlink:href="#DejaVuSans-2c" transform="translate(123.925781 0)"/>
     <use xlink:href="#DejaVuSans-20" transform="translate(155.712891 0)"/>
     <use xlink:href="#DejaVuSans-50" transform="translate(187.5 0)"/>
     <use xlink:href="#DejaVuSans-7a" transform="translate(247.802734 0)"/>
     <use xlink:href="#DejaVuSans-2c" transform="translate(300.292969 0)"/>
     <use xlink:href="#DejaVuSans-20" transform="translate(332.080078 0)"/>
     <use xlink:href="#DejaVuSans-50" transform="translate(363.867188 0)"/>
     <use xlink:href="#DejaVuSans-34" transform="translate(424.169922 0)"/>
     <use xlink:href="#DejaVuSans-20" transform="translate(487.792969 0)"/>
     <use xlink:href="#DejaVuSans-28" transform="translate(519.580078 0)"/>
     <use xlink:href="#DejaVuSans-6d" transform="translate(558.59375 0)"/>
     <use xlink:href="#DejaVuSans-65" transform="translate(656.005859 0)"/>
     <use xlink:href="#DejaVuSans-64" transform="translate(717.529297 0)"/>
     <use xlink:href="#DejaVuSans-69" transform="translate(781.005859 0)"/>
     <use xlink:href="#DejaVuSans-61" transform="translate(808.789062 0)"/>
     <use xlink:href="#DejaVuSans-6e" transform="translate(870.068359 0)"/>
     <use xlink:href="#DejaVuSans-29" transform="translate(933.447266 0)"/>
    </g>
   </g>
   <g id="legend_1">
    <g id="patch_6">
     <path d="M 45.420552 55.75274 
L 126.56274 55.75274 
Q 128.56274 55.75274 128.56274 53.75274 
L 128.56274 25.118365 
Q 128.56274 23.118365 126.56274 23.118365 
L 45.420552 23.118365 
Q 43.420552 23.118365 43.420552 25.118365 
L 43.420552 53.75274 
Q 43.420552 55.75274 45.420552 55.75274 
z
" style="fill: #ffffff; opacity: 0.8; stroke: #cccccc; stroke-linejoin: miter"/>
    </g>
    <g id="line2d_15">
     <path d="M 47.420552 31.216803 
L 57.420552 31.216803 
L 67.420552 31.216803 
" style="fill: none; stroke: #1f77b4; stroke-width: 1.5; stroke-linecap: square"/>
    </g>
    <g id="text_18">
     <!-- eerie -->
     <g transform="translate(75.420552 34.716803) scale(0.1 -0.1)">
      <defs>
       <path id="DejaVuSans-72" d="M 2631 2963 
Q 2534 3019 2420 3045 
Q 2306 3072 2169 3072 
Q 1681 3072 1420 2755 
Q 1159 2438 1159 1844 
L 1159 0 
L 581 0 
L 581 3500 
L 1159 3500 
L 1159 2956 
Q 1341 3275 1631 3429 
Q 1922 3584 2338 3584 
Q 2397 3584 2469 3576 
Q 2541 3569 2628 3553 
L 2631 2963 
z
" transform="scale(0.015625)"/>
      </defs>
      <use xlink:href="#DejaVuSans-65"/>
      <use xlink:href="#DejaVuSans-65" transform="translate(61.523438 0)"/>
      <use xlink:href="#DejaVuSans-72" transform="translate(123.046875 0)"/>
      <use xlink:href="#DejaVuSans-69" transform="translate(164.160156 0)"/>
      <use xlink:href="#DejaVuSans-65" transform="translate(191.943359 0)"/>
     </g>
    </g>
    <g id="line2d_16">
     <path d="M 47.420552 45.894928 
L 57.420552 45.894928 
L 67.420552 45.894928 
" style="fill: none; stroke: #ff7f0e; stroke-width: 1.5; stroke-linecap: square"/>
    </g>
    <g id="text_19">
     <!-- non_eerie -->
     <g transform="translate(75.420552 49.394928) scale(0.1 -0.1)">
      <defs>
       <path id="DejaVuSans-6f" d="M 1959 3097 
Q 1497 3097 1228 2736 
Q 959 2375 959 1747 
Q 959 1119 1226 758 
Q 1494 397 1959 397 
Q 2419 397 2687 759 
Q 2956 1122 2956 1747 
Q 2956 2369 2687 2733 
Q 2419 3097 1959 3097 
z
M 1959 3584 
Q 2709 3584 3137 3096 
Q 3566 2609 3566 1747 
Q 3566 888 3137 398 
Q 2709 -91 1959 -91 
Q 1206 -91 779 398 
Q 353 888 353 1747 
Q 353 2609 779 3096 
Q 1206 3584 1959 3584 
z
" transform="scale(0.015625)"/>
       <path id="DejaVuSans-5f" d="M 3263 -1063 
L 3263 -1509 
L -63 -1509 
L -63 -1063 
L 3263 -1063 
z
" transform="scale(0.015625)"/>
      </defs>
      <use xlink:href="#DejaVuSans-6e"/>
      <use xlink:href="#DejaVuSans-6f" transform="translate(63.378906 0)"/>
      <use xlink:href="#DejaVuSans-6e" transform="translate(124.560547 0)"/>
      <use xlink:href="#DejaVuSans-5f" transform="translate(187.939453 0)"/>
      <use xlink:href="#DejaVuSans-65" transform="translate(237.939453 0)"/>
      <use xlink:href="#DejaVuSans-65" transform="translate(299.462891 0)"/>
      <use xlink:href="#DejaVuSans-72" transform="translate(360.986328 0)"/>
      <use xlink:href="#DejaVuSans-69" transform="translate(402.099609 0)"/>
      <use xlink:href="#DejaVuSans-65" transform="translate(429.882812 0)"/>
     </g>
    </g>
   </g>
   <g id="FillBetweenPolyCollection_1">
    <defs>
     <path id="m4b01f01202" d="M 38.420552 -234.753757 
L 38.420552 -217.041596 
L 40.123593 -230.100941 
L 41.826633 -242.457083 
L 43.529673 -248.477764 
L 45.232713 -246.182943 
L 46.935753 -236.42696 
L 48.638793 -223.829637 
L 50.341833 -213.2974 
L 52.044873 -209.219171 
L 53.747913 -211.415642 
L 55.450953 -217.32424 
L 57.153993 -224.410192 
L 58.857033 -229.594507 
L 60.560073 -229.635683 
L 62.263113 -224.298036 
L 63.966154 -216.530677 
L 65.669194 -210.408461 
L 67.372234 -209.346052 
L 69.075274 -213.107935 
L 70.778314 -219.040314 
L 72.481354 -223.461834 
L 74.184394 -224.133817 
L 75.887434 -218.473862 
L 77.590474 -207.950624 
L 79.293514 -197.60262 
L 80.996554 -191.934908 
L 82.699594 -192.55323 
L 84.402634 -198.962778 
L 86.105674 -208.343984 
L 87.808714 -216.309268 
L 89.511755 -219.895061 
L 91.214795 -219.74832 
L 92.917835 -217.964164 
L 94.620875 -217.427823 
L 96.323915 -217.831338 
L 98.026955 -218.4377 
L 99.729995 -218.315564 
L 101.433035 -219.081649 
L 103.136075 -221.298598 
L 104.839115 -226.912243 
L 106.542155 -233.898311 
L 108.245195 -237.960656 
L 109.948235 -235.502545 
L 111.651275 -224.772827 
L 113.354315 -210.129765 
L 115.057356 -196.366793 
L 116.760396 -188.891005 
L 118.463436 -190.419373 
L 120.166476 -197.67115 
L 121.869516 -204.976869 
L 123.572556 -207.746537 
L 125.275596 -206.022763 
L 126.978636 -203.500085 
L 128.681676 -204.857831 
L 130.384716 -211.027283 
L 132.087756 -219.479497 
L 133.790796 -224.50595 
L 135.493836 -222.686528 
L 137.196876 -212.438066 
L 138.899916 -199.059243 
L 140.602957 -187.247514 
L 142.305997 -181.85507 
L 144.009037 -181.831818 
L 145.712077 -183.607988 
L 147.415117 -182.954964 
L 149.118157 -178.248171 
L 150.821197 -169.453752 
L 152.524237 -159.569819 
L 154.227277 -150.252138 
L 155.930317 -145.200226 
L 157.633357 -147.387044 
L 159.336397 -156.416126 
L 161.039437 -171.155179 
L 162.742477 -188.720237 
L 164.445517 -204.205165 
L 166.148558 -213.926472 
L 167.851598 -217.70052 
L 169.554638 -218.724263 
L 171.257678 -221.748644 
L 172.960718 -230.172161 
L 174.663758 -245.214046 
L 176.366798 -262.152815 
L 178.069838 -274.96993 
L 179.772878 -278.823415 
L 181.475918 -273.881972 
L 183.178958 -264.328898 
L 184.881998 -255.355662 
L 186.585038 -251.219661 
L 188.288078 -252.853722 
L 189.991118 -258.016978 
L 191.694159 -261.46185 
L 193.397199 -261.059788 
L 195.100239 -257.775621 
L 196.803279 -254.172774 
L 198.506319 -252.602351 
L 200.209359 -253.811535 
L 201.912399 -257.750675 
L 203.615439 -262.615064 
L 205.318479 -268.196018 
L 207.021519 -273.675317 
L 208.724559 -278.356974 
L 210.427599 -280.864811 
L 212.130639 -281.646244 
L 213.833679 -280.213728 
L 215.536719 -279.007752 
L 217.23976 -280.417029 
L 218.9428 -284.833754 
L 220.64584 -289.588476 
L 222.34888 -292.926803 
L 224.05192 -292.278119 
L 225.75496 -286.942718 
L 227.458 -279.926153 
L 229.16104 -273.285867 
L 230.86408 -269.243596 
L 232.56712 -267.793765 
L 234.27016 -268.175313 
L 235.9732 -269.13117 
L 237.67624 -269.023211 
L 239.37928 -267.242666 
L 241.08232 -264.218434 
L 242.785361 -257.629187 
L 244.488401 -249.022196 
L 246.191441 -239.922539 
L 247.894481 -234.518521 
L 249.597521 -234.618145 
L 251.300561 -240.747504 
L 253.003601 -251.731666 
L 254.706641 -263.894292 
L 256.409681 -275.188696 
L 258.112721 -284.435147 
L 259.815761 -293.079913 
L 261.518801 -304.476954 
L 263.221841 -319.22586 
L 264.924881 -334.919963 
L 266.627921 -350.1814 
L 268.330962 -360.220112 
L 270.034002 -365.344871 
L 271.737042 -368.216056 
L 273.440082 -370.487813 
L 275.143122 -375.287787 
L 276.846162 -380.77284 
L 278.549202 -383.855461 
L 280.252242 -381.709514 
L 281.955282 -373.796473 
L 283.658322 -362.808142 
L 285.361362 -353.689331 
L 287.064402 -348.005996 
L 288.767442 -346.030395 
L 290.470482 -346.793442 
L 292.173522 -346.201274 
L 293.876563 -343.130706 
L 295.579603 -337.254131 
L 297.282643 -329.97253 
L 298.985683 -322.333595 
L 300.688723 -313.823998 
L 302.391763 -304.971218 
L 304.094803 -297.190187 
L 305.797843 -293.728003 
L 307.500883 -295.490164 
L 309.203923 -301.981826 
L 310.906963 -311.20144 
L 312.610003 -319.575508 
L 314.313043 -321.644038 
L 316.016083 -317.536751 
L 317.719123 -307.322285 
L 319.422164 -295.368864 
L 321.125204 -285.521552 
L 322.828244 -280.359063 
L 324.531284 -279.127076 
L 326.234324 -280.089861 
L 327.937364 -279.947478 
L 329.640404 -277.916764 
L 331.343444 -272.382619 
L 333.046484 -264.835271 
L 334.749524 -255.911216 
L 336.452564 -248.214009 
L 338.155604 -243.629013 
L 339.858644 -242.895322 
L 341.561684 -246.672538 
L 343.264724 -253.624542 
L 344.967765 -260.555381 
L 346.670805 -264.135103 
L 348.373845 -263.92382 
L 350.076885 -261.279558 
L 351.779925 -259.005235 
L 353.482965 -259.284726 
L 355.186005 -262.94471 
L 356.889045 -268.728165 
L 358.592085 -273.452948 
L 360.295125 -275.59919 
L 361.998165 -275.980801 
L 363.701205 -274.970686 
L 365.404245 -274.248027 
L 367.107285 -275.130887 
L 368.810326 -276.762555 
L 370.513366 -278.246637 
L 372.216406 -279.968105 
L 373.919446 -281.667589 
L 375.622486 -283.254884 
L 377.325526 -283.959619 
L 379.028566 -281.497678 
L 380.731606 -276.185144 
L 382.434646 -268.902041 
L 384.137686 -263.283294 
L 385.840726 -261.409506 
L 387.543766 -263.849796 
L 389.246806 -268.043198 
L 390.949846 -270.596072 
L 392.652886 -269.92094 
L 394.355927 -266.153467 
L 396.058967 -261.220327 
L 397.762007 -256.85965 
L 399.465047 -254.790086 
L 401.168087 -254.181204 
L 402.871127 -252.957566 
L 404.574167 -250.541363 
L 406.277207 -247.465741 
L 407.980247 -245.407348 
L 409.683287 -244.350389 
L 411.386327 -245.145579 
L 413.089367 -246.121915 
L 414.792407 -244.851482 
L 416.495447 -241.814748 
L 418.198487 -239.521115 
L 419.901528 -239.236835 
L 421.604568 -241.317334 
L 423.307608 -244.889515 
L 425.010648 -247.201097 
L 426.713688 -244.26394 
L 428.416728 -237.22544 
L 430.119768 -227.069419 
L 431.822808 -217.649284 
L 433.525848 -211.511336 
L 435.228888 -208.769066 
L 436.931928 -209.184761 
L 438.634968 -210.504322 
L 440.338008 -211.691714 
L 442.041048 -214.087367 
L 443.744088 -218.509381 
L 445.447129 -224.847488 
L 447.150169 -232.237229 
L 448.853209 -240.465073 
L 450.556249 -246.906222 
L 452.259289 -249.858668 
L 453.962329 -247.024159 
L 455.665369 -239.343574 
L 457.368409 -230.60107 
L 459.071449 -224.40486 
L 460.774489 -222.466149 
L 462.477529 -223.565239 
L 464.180569 -224.809485 
L 465.883609 -221.444612 
L 467.586649 -212.301596 
L 469.289689 -201.365703 
L 470.99273 -194.117301 
L 472.69577 -195.814322 
L 474.39881 -205.646865 
L 476.10185 -218.144532 
L 477.80489 -224.904206 
L 479.50793 -220.74963 
L 481.21097 -208.133233 
L 482.91401 -194.323996 
L 484.61705 -189.21156 
L 486.32009 -195.232938 
L 488.02313 -209.039143 
L 489.72617 -221.93779 
L 491.42921 -228.024678 
L 493.13225 -223.739284 
L 494.83529 -213.303029 
L 496.538331 -204.019861 
L 498.241371 -200.067478 
L 499.944411 -201.396844 
L 501.647451 -203.899142 
L 503.350491 -203.8437 
L 505.053531 -199.857813 
L 506.756571 -195.260408 
L 508.459611 -193.45847 
L 510.162651 -197.472071 
L 511.865691 -206.0554 
L 513.568731 -214.022355 
L 515.271771 -216.291026 
L 516.974811 -211.642115 
L 518.677851 -202.701431 
L 520.380891 -193.51183 
L 522.083932 -187.062466 
L 523.786972 -184.506552 
L 525.490012 -185.316501 
L 527.193052 -186.461926 
L 528.896092 -186.217666 
L 530.599132 -184.076087 
L 532.302172 -180.477312 
L 534.005212 -176.914694 
L 535.708252 -175.47992 
L 537.411292 -175.772212 
L 539.114332 -176.61142 
L 540.817372 -176.824184 
L 542.520412 -176.254295 
L 544.223452 -174.844133 
L 545.926492 -174.299043 
L 547.629533 -174.550829 
L 549.332573 -176.427161 
L 551.035613 -177.549027 
L 552.738653 -176.240664 
L 554.441693 -171.816916 
L 556.144733 -163.830424 
L 557.847773 -155.329846 
L 559.550813 -149.741325 
L 561.253853 -148.709559 
L 561.253853 -171.819838 
L 561.253853 -171.819838 
L 559.550813 -172.273622 
L 557.847773 -177.488152 
L 556.144733 -185.392111 
L 554.441693 -193.615621 
L 552.738653 -198.846076 
L 551.035613 -200.455228 
L 549.332573 -199.053045 
L 547.629533 -196.660178 
L 545.926492 -195.436495 
L 544.223452 -196.314841 
L 542.520412 -198.579154 
L 540.817372 -200.082567 
L 539.114332 -200.384306 
L 537.411292 -200.094851 
L 535.708252 -199.621143 
L 534.005212 -200.416083 
L 532.302172 -203.089148 
L 530.599132 -206.840598 
L 528.896092 -209.260958 
L 527.193052 -209.498967 
L 525.490012 -207.818804 
L 523.786972 -206.732241 
L 522.083932 -209.732533 
L 520.380891 -216.421576 
L 518.677851 -226.429204 
L 516.974811 -235.647499 
L 515.271771 -240.438398 
L 513.568731 -237.836239 
L 511.865691 -229.769058 
L 510.162651 -221.301063 
L 508.459611 -217.50728 
L 506.756571 -219.574928 
L 505.053531 -224.463889 
L 503.350491 -228.509826 
L 501.647451 -228.759209 
L 499.944411 -226.480599 
L 498.241371 -225.807332 
L 496.538331 -230.166315 
L 494.83529 -240.275679 
L 493.13225 -250.352837 
L 491.42921 -253.61546 
L 489.72617 -247.402876 
L 488.02313 -233.789549 
L 486.32009 -220.152655 
L 484.61705 -214.171292 
L 482.91401 -220.007085 
L 481.21097 -233.760667 
L 479.50793 -246.79388 
L 477.80489 -250.841248 
L 476.10185 -244.602543 
L 474.39881 -232.285482 
L 472.69577 -223.040686 
L 470.99273 -221.755582 
L 469.289689 -228.530856 
L 467.586649 -239.113296 
L 465.883609 -248.100351 
L 464.180569 -251.980828 
L 462.477529 -251.232943 
L 460.774489 -250.607113 
L 459.071449 -253.464625 
L 457.368409 -260.605374 
L 455.665369 -270.56836 
L 453.962329 -278.969096 
L 452.259289 -281.669446 
L 450.556249 -278.377204 
L 448.853209 -271.563926 
L 447.150169 -263.379978 
L 445.447129 -255.816421 
L 443.744088 -249.722945 
L 442.041048 -245.336725 
L 440.338008 -243.279877 
L 438.634968 -242.701726 
L 436.931928 -242.315708 
L 435.228888 -242.080631 
L 433.525848 -244.202788 
L 431.822808 -250.075865 
L 430.119768 -258.121584 
L 428.416728 -265.67158 
L 426.713688 -271.438936 
L 425.010648 -273.707833 
L 423.307608 -272.389238 
L 421.604568 -269.272732 
L 419.901528 -267.336722 
L 418.198487 -268.20917 
L 416.495447 -270.602034 
L 414.792407 -273.974496 
L 413.089367 -275.286255 
L 411.386327 -275.148392 
L 409.683287 -275.361564 
L 407.980247 -276.749895 
L 406.277207 -279.27589 
L 404.574167 -281.717142 
L 402.871127 -283.239661 
L 401.168087 -283.264092 
L 399.465047 -284.169363 
L 397.762007 -286.368672 
L 396.058967 -291.592595 
L 394.355927 -297.765946 
L 392.652886 -302.418385 
L 390.949846 -303.085438 
L 389.246806 -300.01947 
L 387.543766 -295.248147 
L 385.840726 -292.610282 
L 384.137686 -294.950016 
L 382.434646 -301.658742 
L 380.731606 -309.72453 
L 379.028566 -315.139835 
L 377.325526 -317.563022 
L 375.622486 -317.248318 
L 373.919446 -315.311709 
L 372.216406 -313.08678 
L 370.513366 -311.055729 
L 368.810326 -308.781893 
L 367.107285 -306.887593 
L 365.404245 -305.776534 
L 363.701205 -305.916858 
L 361.998165 -306.579654 
L 360.295125 -306.232367 
L 358.592085 -304.190551 
L 356.889045 -299.586315 
L 355.186005 -294.530151 
L 353.482965 -290.589093 
L 351.779925 -289.359965 
L 350.076885 -289.937065 
L 348.373845 -291.609569 
L 346.670805 -291.930893 
L 344.967765 -288.874816 
L 343.264724 -282.550942 
L 341.561684 -275.860418 
L 339.858644 -272.314872 
L 338.155604 -272.778827 
L 336.452564 -277.454779 
L 334.749524 -285.19653 
L 333.046484 -293.704736 
L 331.343444 -301.810686 
L 329.640404 -307.177631 
L 327.937364 -310.080397 
L 326.234324 -310.283313 
L 324.531284 -309.070742 
L 322.828244 -309.617296 
L 321.125204 -314.436751 
L 319.422164 -324.684011 
L 317.719123 -336.993968 
L 316.016083 -347.142332 
L 314.313043 -351.018387 
L 312.610003 -347.689186 
L 310.906963 -338.780406 
L 309.203923 -328.391876 
L 307.500883 -321.628568 
L 305.797843 -321.099762 
L 304.094803 -325.762041 
L 302.391763 -334.593174 
L 300.688723 -342.884308 
L 298.985683 -350.557214 
L 297.282643 -357.52713 
L 295.579603 -363.810173 
L 293.876563 -369.137782 
L 292.173522 -372.620332 
L 290.470482 -373.741265 
L 288.767442 -373.301092 
L 287.064402 -374.809271 
L 285.361362 -380.829851 
L 283.658322 -390.943013 
L 281.955282 -402.614944 
L 280.252242 -411.404254 
L 278.549202 -413.881635 
L 276.846162 -411.025901 
L 275.143122 -405.03452 
L 273.440082 -400.263665 
L 271.737042 -398.105226 
L 270.034002 -396.800884 
L 268.330962 -392.084083 
L 266.627921 -381.379497 
L 264.924881 -366.499369 
L 263.221841 -349.949869 
L 261.518801 -334.480965 
L 259.815761 -321.454189 
L 258.112721 -312.468479 
L 256.409681 -303.847159 
L 254.706641 -293.292796 
L 253.003601 -281.459221 
L 251.300561 -270.523893 
L 249.597521 -263.33535 
L 247.894481 -262.845902 
L 246.191441 -268.010896 
L 244.488401 -277.241085 
L 242.785361 -287.333661 
L 241.08232 -293.768236 
L 239.37928 -297.387306 
L 237.67624 -297.863395 
L 235.9732 -296.458741 
L 234.27016 -293.973647 
L 232.56712 -291.395353 
L 230.86408 -291.871325 
L 229.16104 -295.546105 
L 227.458 -302.61528 
L 225.75496 -309.370946 
L 224.05192 -314.702369 
L 222.34888 -316.922206 
L 220.64584 -314.598008 
L 218.9428 -309.300582 
L 217.23976 -303.840685 
L 215.536719 -301.242966 
L 213.833679 -301.65307 
L 212.130639 -302.562328 
L 210.427599 -301.757515 
L 208.724559 -299.293225 
L 207.021519 -294.837098 
L 205.318479 -290.055981 
L 203.615439 -284.959548 
L 201.912399 -281.146375 
L 200.209359 -278.228118 
L 198.506319 -276.905322 
L 196.803279 -277.850442 
L 195.100239 -280.793035 
L 193.397199 -283.33194 
L 191.694159 -282.966001 
L 189.991118 -278.54163 
L 188.288078 -272.901826 
L 186.585038 -271.418562 
L 184.881998 -275.599241 
L 183.178958 -284.650866 
L 181.475918 -293.76949 
L 179.772878 -298.316619 
L 178.069838 -294.201846 
L 176.366798 -281.845308 
L 174.663758 -265.783969 
L 172.960718 -251.181629 
L 171.257678 -241.963763 
L 169.554638 -237.856799 
L 167.851598 -236.184357 
L 166.148558 -232.388726 
L 164.445517 -222.822683 
L 162.742477 -207.058222 
L 161.039437 -190.045404 
L 159.336397 -175.445358 
L 157.633357 -166.667374 
L 155.930317 -164.21836 
L 154.227277 -168.617158 
L 152.524237 -178.287713 
L 150.821197 -187.981134 
L 149.118157 -195.679729 
L 147.415117 -198.994888 
L 145.712077 -198.964126 
L 144.009037 -197.716145 
L 142.305997 -198.354157 
L 140.602957 -203.652385 
L 138.899916 -215.175898 
L 137.196876 -227.842171 
L 135.493836 -237.249229 
L 133.790796 -238.982668 
L 132.087756 -234.154437 
L 130.384716 -226.248113 
L 128.681676 -219.981862 
L 126.978636 -218.900269 
L 125.275596 -221.407358 
L 123.572556 -222.997203 
L 121.869516 -219.85795 
L 120.166476 -212.370019 
L 118.463436 -204.753196 
L 116.760396 -202.149345 
L 115.057356 -209.00516 
L 113.354315 -223.102594 
L 111.651275 -238.096805 
L 109.948235 -249.028222 
L 108.245195 -251.558153 
L 106.542155 -246.991405 
L 104.839115 -238.636369 
L 103.136075 -232.287651 
L 101.433035 -230.280927 
L 99.729995 -230.605309 
L 98.026955 -231.108378 
L 96.323915 -230.521496 
L 94.620875 -229.905884 
L 92.917835 -230.715973 
L 91.214795 -232.63496 
L 89.511755 -232.964908 
L 87.808714 -229.574521 
L 86.105674 -221.916581 
L 84.402634 -211.386129 
L 82.699594 -203.474488 
L 80.996554 -202.220529 
L 79.293514 -208.411939 
L 77.590474 -219.794219 
L 75.887434 -230.791336 
L 74.184394 -237.771769 
L 72.481354 -237.686297 
L 70.778314 -232.198569 
L 69.075274 -224.854007 
L 67.372234 -221.033282 
L 65.669194 -223.032444 
L 63.966154 -229.263049 
L 62.263113 -236.427057 
L 60.560073 -241.65836 
L 58.857033 -242.107905 
L 57.153993 -237.717528 
L 55.450953 -231.170042 
L 53.747913 -224.923747 
L 52.044873 -223.045617 
L 50.341833 -227.646095 
L 48.638793 -238.712601 
L 46.935753 -250.943009 
L 45.232713 -260.219103 
L 43.529673 -262.954312 
L 41.826633 -257.179248 
L 40.123593 -246.478805 
L 38.420552 -234.753757 
z
" style="stroke: #1f77b4; stroke-opacity: 0.3"/>
    </defs>
    <g>
     <use xlink:href="#m4b01f01202" x="0" y="432" style="fill: #1f77b4; fill-opacity: 0.3; stroke: #1f77b4; stroke-opacity: 0.3"/>
    </g>
   </g>
   <g id="FillBetweenPolyCollection_2">
    <defs>
     <path id="m2b4196836e" d="M 38.420552 -256.961625 
L 38.420552 -249.073788 
L 40.123593 -252.932338 
L 41.826633 -257.158136 
L 43.529673 -259.529949 
L 45.232713 -257.395083 
L 46.935753 -251.101576 
L 48.638793 -243.085895 
L 50.341833 -237.082165 
L 52.044873 -235.577486 
L 53.747913 -238.35554 
L 55.450953 -242.857861 
L 57.153993 -245.549399 
L 58.857033 -243.665005 
L 60.560073 -236.860948 
L 62.263113 -227.854544 
L 63.966154 -220.86488 
L 65.669194 -218.085571 
L 67.372234 -219.097514 
L 69.075274 -222.113905 
L 70.778314 -223.832985 
L 72.481354 -223.348391 
L 74.184394 -220.839717 
L 75.887434 -218.157192 
L 77.590474 -215.696864 
L 79.293514 -213.755426 
L 80.996554 -211.520705 
L 82.699594 -209.11434 
L 84.402634 -207.059737 
L 86.105674 -206.635087 
L 87.808714 -208.471296 
L 89.511755 -211.487946 
L 91.214795 -214.258762 
L 92.917835 -215.279739 
L 94.620875 -214.660494 
L 96.323915 -213.606793 
L 98.026955 -213.332348 
L 99.729995 -214.359032 
L 101.433035 -216.282912 
L 103.136075 -217.935233 
L 104.839115 -218.29781 
L 106.542155 -217.292624 
L 108.245195 -216.68516 
L 109.948235 -216.673061 
L 111.651275 -216.947968 
L 113.354315 -216.16612 
L 115.057356 -212.510257 
L 116.760396 -205.002093 
L 118.463436 -195.177685 
L 120.166476 -186.040309 
L 121.869516 -181.411423 
L 123.572556 -181.933 
L 125.275596 -185.880216 
L 126.978636 -191.097183 
L 128.681676 -193.841806 
L 130.384716 -192.842921 
L 132.087756 -188.880469 
L 133.790796 -184.491188 
L 135.493836 -180.876824 
L 137.196876 -177.706462 
L 138.899916 -174.308524 
L 140.602957 -170.474616 
L 142.305997 -166.395334 
L 144.009037 -162.758517 
L 145.712077 -160.244008 
L 147.415117 -159.549606 
L 149.118157 -159.860437 
L 150.821197 -159.178912 
L 152.524237 -157.715737 
L 154.227277 -156.810346 
L 155.930317 -158.356654 
L 157.633357 -163.23484 
L 159.336397 -171.183626 
L 161.039437 -180.421593 
L 162.742477 -187.857682 
L 164.445517 -192.29687 
L 166.148558 -194.085117 
L 167.851598 -195.513304 
L 169.554638 -198.935642 
L 171.257678 -205.849124 
L 172.960718 -215.172455 
L 174.663758 -224.585813 
L 176.366798 -232.037328 
L 178.069838 -235.26664 
L 179.772878 -235.180284 
L 181.475918 -233.54838 
L 183.178958 -232.475216 
L 184.881998 -232.477823 
L 186.585038 -234.381649 
L 188.288078 -237.12283 
L 189.991118 -239.993942 
L 191.694159 -243.144652 
L 193.397199 -246.001517 
L 195.100239 -249.17483 
L 196.803279 -253.405415 
L 198.506319 -258.659144 
L 200.209359 -263.891822 
L 201.912399 -268.552839 
L 203.615439 -271.859041 
L 205.318479 -273.812463 
L 207.021519 -275.482678 
L 208.724559 -278.111281 
L 210.427599 -282.609823 
L 212.130639 -288.188788 
L 213.833679 -293.427071 
L 215.536719 -297.279559 
L 217.23976 -299.095614 
L 218.9428 -299.628232 
L 220.64584 -300.307602 
L 222.34888 -300.609532 
L 224.05192 -299.484176 
L 225.75496 -295.820927 
L 227.458 -289.24152 
L 229.16104 -281.137726 
L 230.86408 -272.566449 
L 232.56712 -265.288692 
L 234.27016 -260.074545 
L 235.9732 -256.41395 
L 237.67624 -253.711518 
L 239.37928 -251.196191 
L 241.08232 -248.928973 
L 242.785361 -247.334476 
L 244.488401 -246.351371 
L 246.191441 -246.568525 
L 247.894481 -247.424906 
L 249.597521 -248.694916 
L 251.300561 -250.976069 
L 253.003601 -255.11091 
L 254.706641 -262.083038 
L 256.409681 -271.780495 
L 258.112721 -283.346507 
L 259.815761 -295.222308 
L 261.518801 -306.176533 
L 263.221841 -315.903312 
L 264.924881 -324.545092 
L 266.627921 -332.840283 
L 268.330962 -341.087459 
L 270.034002 -348.470332 
L 271.737042 -354.254588 
L 273.440082 -358.193382 
L 275.143122 -360.951762 
L 276.846162 -363.020679 
L 278.549202 -364.772885 
L 280.252242 -365.787424 
L 281.955282 -365.526534 
L 283.658322 -363.342236 
L 285.361362 -358.53748 
L 287.064402 -350.898148 
L 288.767442 -341.67238 
L 290.470482 -331.288689 
L 292.173522 -320.179243 
L 293.876563 -309.999659 
L 295.579603 -300.729025 
L 297.282643 -294.394215 
L 298.985683 -291.068515 
L 300.688723 -290.840746 
L 302.391763 -292.631338 
L 304.094803 -294.242356 
L 305.797843 -293.384552 
L 307.500883 -289.179905 
L 309.203923 -283.030406 
L 310.906963 -276.515459 
L 312.610003 -271.837025 
L 314.313043 -269.829642 
L 316.016083 -271.056907 
L 317.719123 -273.802462 
L 319.422164 -275.683619 
L 321.125204 -275.589645 
L 322.828244 -273.315356 
L 324.531284 -270.095014 
L 326.234324 -267.987145 
L 327.937364 -267.293575 
L 329.640404 -267.47073 
L 331.343444 -266.637294 
L 333.046484 -263.522089 
L 334.749524 -259.275871 
L 336.452564 -256.412155 
L 338.155604 -257.126089 
L 339.858644 -261.495771 
L 341.561684 -267.877715 
L 343.264724 -272.889976 
L 344.967765 -274.755073 
L 346.670805 -272.315193 
L 348.373845 -268.311697 
L 350.076885 -265.460314 
L 351.779925 -265.417381 
L 353.482965 -267.554887 
L 355.186005 -269.790765 
L 356.889045 -269.683971 
L 358.592085 -266.676908 
L 360.295125 -262.136434 
L 361.998165 -258.040355 
L 363.701205 -256.940267 
L 365.404245 -259.567771 
L 367.107285 -264.597809 
L 368.810326 -269.409959 
L 370.513366 -271.849538 
L 372.216406 -270.469793 
L 373.919446 -265.971223 
L 375.622486 -259.743513 
L 377.325526 -254.5109 
L 379.028566 -251.401679 
L 380.731606 -249.884648 
L 382.434646 -248.886221 
L 384.137686 -246.937505 
L 385.840726 -243.662757 
L 387.543766 -239.754811 
L 389.246806 -236.793251 
L 390.949846 -235.637449 
L 392.652886 -235.160779 
L 394.355927 -233.708459 
L 396.058967 -230.338544 
L 397.762007 -224.542064 
L 399.465047 -217.714351 
L 401.168087 -211.492344 
L 402.871127 -207.36435 
L 404.574167 -204.467335 
L 406.277207 -201.683568 
L 407.980247 -197.688255 
L 409.683287 -193.011026 
L 411.386327 -188.687886 
L 413.089367 -185.91388 
L 414.792407 -185.131435 
L 416.495447 -185.54346 
L 418.198487 -186.319513 
L 419.901528 -186.223943 
L 421.604568 -185.750544 
L 423.307608 -185.933359 
L 425.010648 -187.523918 
L 426.713688 -190.395511 
L 428.416728 -193.333384 
L 430.119768 -194.433321 
L 431.822808 -191.805522 
L 433.525848 -186.270259 
L 435.228888 -179.283169 
L 436.931928 -172.313619 
L 438.634968 -166.48294 
L 440.338008 -162.027297 
L 442.041048 -158.920671 
L 443.744088 -156.742362 
L 445.447129 -155.287819 
L 447.150169 -154.451546 
L 448.853209 -153.737089 
L 450.556249 -153.405648 
L 452.259289 -152.951546 
L 453.962329 -151.873144 
L 455.665369 -151.248999 
L 457.368409 -151.681429 
L 459.071449 -153.032351 
L 460.774489 -154.311804 
L 462.477529 -154.137539 
L 464.180569 -151.776431 
L 465.883609 -147.74341 
L 467.586649 -142.034408 
L 469.289689 -136.855308 
L 470.99273 -132.418069 
L 472.69577 -129.236195 
L 474.39881 -126.780559 
L 476.10185 -124.77866 
L 477.80489 -123.079126 
L 479.50793 -121.315415 
L 481.21097 -120.155086 
L 482.91401 -119.325254 
L 484.61705 -118.908875 
L 486.32009 -118.513147 
L 488.02313 -118.839662 
L 489.72617 -119.643585 
L 491.42921 -121.250555 
L 493.13225 -123.151051 
L 494.83529 -125.722705 
L 496.538331 -129.271579 
L 498.241371 -133.298727 
L 499.944411 -137.07088 
L 501.647451 -140.113417 
L 503.350491 -141.144031 
L 505.053531 -139.089476 
L 506.756571 -133.806568 
L 508.459611 -126.73938 
L 510.162651 -119.122046 
L 511.865691 -113.774907 
L 513.568731 -111.728879 
L 515.271771 -112.58463 
L 516.974811 -114.22503 
L 518.677851 -114.83965 
L 520.380891 -113.006731 
L 522.083932 -108.905552 
L 523.786972 -104.273568 
L 525.490012 -101.022589 
L 527.193052 -100.33372 
L 528.896092 -102.794426 
L 530.599132 -108.436327 
L 532.302172 -115.341327 
L 534.005212 -121.445311 
L 535.708252 -125.144498 
L 537.411292 -125.724046 
L 539.114332 -122.839438 
L 540.817372 -117.625388 
L 542.520412 -112.390508 
L 544.223452 -108.721849 
L 545.926492 -107.831908 
L 547.629533 -109.268073 
L 549.332573 -111.92948 
L 551.035613 -114.694771 
L 552.738653 -117.012729 
L 554.441693 -118.558496 
L 556.144733 -118.845713 
L 557.847773 -117.763227 
L 559.550813 -115.171639 
L 561.253853 -111.424248 
L 561.253853 -124.039727 
L 561.253853 -124.039727 
L 559.550813 -127.859063 
L 557.847773 -130.659185 
L 556.144733 -131.685874 
L 554.441693 -130.890388 
L 552.738653 -128.847199 
L 551.035613 -126.159852 
L 549.332573 -123.414099 
L 547.629533 -120.847223 
L 545.926492 -119.77682 
L 544.223452 -120.51901 
L 542.520412 -123.998016 
L 540.817372 -129.174309 
L 539.114332 -134.49227 
L 537.411292 -137.389791 
L 535.708252 -136.996923 
L 534.005212 -133.357275 
L 532.302172 -126.95685 
L 530.599132 -119.798591 
L 528.896092 -113.992137 
L 527.193052 -111.621763 
L 525.490012 -112.557845 
L 523.786972 -115.867308 
L 522.083932 -120.797408 
L 520.380891 -125.075665 
L 518.677851 -126.473369 
L 516.974811 -125.598118 
L 515.271771 -123.712314 
L 513.568731 -122.765714 
L 511.865691 -124.519594 
L 510.162651 -130.106413 
L 508.459611 -137.601361 
L 506.756571 -145.054452 
L 505.053531 -150.439612 
L 503.350491 -152.60544 
L 501.647451 -151.769478 
L 499.944411 -148.905847 
L 498.241371 -145.105676 
L 496.538331 -141.341379 
L 494.83529 -137.893019 
L 493.13225 -134.819848 
L 491.42921 -132.316753 
L 489.72617 -130.619851 
L 488.02313 -129.848051 
L 486.32009 -129.800239 
L 484.61705 -130.49737 
L 482.91401 -131.462217 
L 481.21097 -132.416288 
L 479.50793 -133.487538 
L 477.80489 -134.713322 
L 476.10185 -136.306437 
L 474.39881 -138.614435 
L 472.69577 -141.259673 
L 470.99273 -144.829153 
L 469.289689 -149.333309 
L 467.586649 -155.04392 
L 465.883609 -160.52464 
L 464.180569 -164.447242 
L 462.477529 -166.704772 
L 460.774489 -167.149084 
L 459.071449 -165.992769 
L 457.368409 -164.425189 
L 455.665369 -163.807161 
L 453.962329 -164.341122 
L 452.259289 -165.001405 
L 450.556249 -165.283795 
L 448.853209 -165.878142 
L 447.150169 -166.663881 
L 445.447129 -167.540267 
L 443.744088 -168.877471 
L 442.041048 -171.039521 
L 440.338008 -174.011317 
L 438.634968 -178.204576 
L 436.931928 -183.811008 
L 435.228888 -190.618272 
L 433.525848 -197.559819 
L 431.822808 -203.038576 
L 430.119768 -205.524812 
L 428.416728 -204.920926 
L 426.713688 -202.560592 
L 425.010648 -200.024959 
L 423.307608 -198.541502 
L 421.604568 -198.325768 
L 419.901528 -198.896246 
L 418.198487 -198.484818 
L 416.495447 -197.557233 
L 414.792407 -196.771846 
L 413.089367 -197.119363 
L 411.386327 -199.738839 
L 409.683287 -204.42607 
L 407.980247 -209.177194 
L 406.277207 -213.289966 
L 404.574167 -216.255403 
L 402.871127 -219.013493 
L 401.168087 -223.330471 
L 399.465047 -229.126981 
L 397.762007 -235.896227 
L 396.058967 -241.533549 
L 394.355927 -245.007595 
L 392.652886 -246.302628 
L 390.949846 -246.839879 
L 389.246806 -248.353708 
L 387.543766 -251.318295 
L 385.840726 -255.180685 
L 384.137686 -258.432599 
L 382.434646 -260.391458 
L 380.731606 -261.161375 
L 379.028566 -262.541975 
L 377.325526 -265.601675 
L 375.622486 -270.869822 
L 373.919446 -276.763159 
L 372.216406 -281.479732 
L 370.513366 -282.881917 
L 368.810326 -280.789812 
L 367.107285 -276.26596 
L 365.404245 -271.630961 
L 363.701205 -269.186683 
L 361.998165 -270.294016 
L 360.295125 -274.232687 
L 358.592085 -278.991495 
L 356.889045 -282.017757 
L 355.186005 -281.941466 
L 353.482965 -279.813779 
L 351.779925 -277.852501 
L 350.076885 -278.225572 
L 348.373845 -280.852507 
L 346.670805 -284.778733 
L 344.967765 -286.861679 
L 343.264724 -285.176508 
L 341.561684 -280.10947 
L 339.858644 -273.892809 
L 338.155604 -269.315435 
L 336.452564 -268.341269 
L 334.749524 -271.244005 
L 333.046484 -275.510354 
L 331.343444 -278.562858 
L 329.640404 -279.992149 
L 327.937364 -280.114316 
L 326.234324 -280.502826 
L 324.531284 -282.395877 
L 322.828244 -285.444899 
L 321.125204 -287.891452 
L 319.422164 -287.956999 
L 317.719123 -285.681285 
L 316.016083 -282.986775 
L 314.313043 -282.01808 
L 312.610003 -283.854427 
L 310.906963 -288.58548 
L 309.203923 -295.096776 
L 307.500883 -301.207842 
L 305.797843 -305.447625 
L 304.094803 -306.357209 
L 302.391763 -304.776612 
L 300.688723 -303.070525 
L 298.985683 -303.306752 
L 297.282643 -306.594092 
L 295.579603 -312.975925 
L 293.876563 -321.869698 
L 292.173522 -332.455097 
L 290.470482 -343.398742 
L 288.767442 -353.595067 
L 287.064402 -362.988536 
L 285.361362 -370.318161 
L 283.658322 -375.275537 
L 281.955282 -377.42623 
L 280.252242 -377.829215 
L 278.549202 -377.055284 
L 276.846162 -375.368857 
L 275.143122 -373.299535 
L 273.440082 -370.305012 
L 271.737042 -366.237094 
L 270.034002 -360.139717 
L 268.330962 -352.778491 
L 266.627921 -344.695324 
L 264.924881 -336.61993 
L 263.221841 -328.203554 
L 261.518801 -318.554 
L 259.815761 -307.565861 
L 258.112721 -295.690181 
L 256.409681 -284.135736 
L 254.706641 -273.953036 
L 253.003601 -266.765011 
L 251.300561 -262.413259 
L 249.597521 -260.257007 
L 247.894481 -259.134092 
L 246.191441 -258.500115 
L 244.488401 -258.677197 
L 242.785361 -259.730861 
L 241.08232 -261.666774 
L 239.37928 -263.963213 
L 237.67624 -266.16389 
L 235.9732 -268.44979 
L 234.27016 -271.608631 
L 232.56712 -276.427839 
L 230.86408 -283.55435 
L 229.16104 -292.296069 
L 227.458 -300.801232 
L 225.75496 -307.221489 
L 224.05192 -310.847814 
L 222.34888 -312.140671 
L 220.64584 -312.082662 
L 218.9428 -311.4719 
L 217.23976 -310.649188 
L 215.536719 -308.464725 
L 213.833679 -304.370027 
L 212.130639 -298.849228 
L 210.427599 -293.066225 
L 208.724559 -288.788194 
L 207.021519 -286.654017 
L 205.318479 -285.139075 
L 203.615439 -283.51918 
L 201.912399 -280.144976 
L 200.209359 -275.341581 
L 198.506319 -269.714825 
L 196.803279 -264.443461 
L 195.100239 -260.233668 
L 193.397199 -256.797642 
L 191.694159 -253.837285 
L 189.991118 -250.679606 
L 188.288078 -247.543577 
L 186.585038 -244.46597 
L 184.881998 -242.232163 
L 183.178958 -242.392537 
L 181.475918 -243.472978 
L 179.772878 -244.901554 
L 178.069838 -244.70817 
L 176.366798 -241.392314 
L 174.663758 -234.372319 
L 172.960718 -224.938102 
L 171.257678 -215.439632 
L 169.554638 -208.206242 
L 167.851598 -204.604002 
L 166.148558 -203.120521 
L 164.445517 -201.589781 
L 162.742477 -197.070759 
L 161.039437 -189.437637 
L 159.336397 -180.112838 
L 157.633357 -172.042547 
L 155.930317 -167.19603 
L 154.227277 -166.035965 
L 152.524237 -167.294773 
L 150.821197 -168.831422 
L 149.118157 -169.126789 
L 147.415117 -168.526308 
L 145.712077 -168.754925 
L 144.009037 -170.672579 
L 142.305997 -174.097669 
L 140.602957 -178.135488 
L 138.899916 -182.047814 
L 137.196876 -185.312382 
L 135.493836 -188.328209 
L 133.790796 -192.067821 
L 132.087756 -196.688255 
L 130.384716 -200.403736 
L 128.681676 -201.187018 
L 126.978636 -198.290002 
L 125.275596 -192.904641 
L 123.572556 -188.728086 
L 121.869516 -188.077466 
L 120.166476 -192.472859 
L 118.463436 -201.174937 
L 116.760396 -210.998347 
L 115.057356 -218.298733 
L 113.354315 -222.032633 
L 111.651275 -222.869734 
L 109.948235 -222.930517 
L 108.245195 -223.085157 
L 106.542155 -223.625111 
L 104.839115 -224.370029 
L 103.136075 -223.690625 
L 101.433035 -222.176141 
L 99.729995 -220.469283 
L 98.026955 -219.330549 
L 96.323915 -219.339048 
L 94.620875 -220.095584 
L 92.917835 -220.601543 
L 91.214795 -219.626308 
L 89.511755 -217.156967 
L 87.808714 -214.264882 
L 86.105674 -212.402286 
L 84.402634 -212.529604 
L 82.699594 -214.080331 
L 80.996554 -216.292164 
L 79.293514 -218.618116 
L 77.590474 -221.163537 
L 75.887434 -224.151995 
L 74.184394 -226.860436 
L 72.481354 -228.915401 
L 70.778314 -229.112577 
L 69.075274 -227.532327 
L 67.372234 -224.911957 
L 65.669194 -223.775791 
L 63.966154 -226.375668 
L 62.263113 -232.944325 
L 60.560073 -241.849434 
L 58.857033 -249.153648 
L 57.153993 -251.748425 
L 55.450953 -249.438496 
L 53.747913 -244.827089 
L 52.044873 -241.882249 
L 50.341833 -243.481255 
L 48.638793 -249.624286 
L 46.935753 -257.807639 
L 45.232713 -264.125869 
L 43.529673 -266.558547 
L 41.826633 -264.619416 
L 40.123593 -260.669064 
L 38.420552 -256.961625 
z
" style="stroke: #ff7f0e; stroke-opacity: 0.3"/>
    </defs>
    <g>
     <use xlink:href="#m2b4196836e" x="0" y="432" style="fill: #ff7f0e; fill-opacity: 0.3; stroke: #ff7f0e; stroke-opacity: 0.3"/>
    </g>
   </g>
   <g id="line2d_17">
    <path d="M 38.420552 206.101891 
L 41.826633 182.186765 
L 43.529673 176.201519 
L 45.232713 178.595578 
L 46.935753 188.21231 
L 48.638793 200.654364 
L 50.341833 211.347624 
L 52.044873 215.834253 
L 53.747913 213.946717 
L 55.450953 207.915305 
L 57.153993 201.192642 
L 58.857033 196.348258 
L 60.560073 196.50352 
L 62.263113 201.600264 
L 63.966154 209.170526 
L 65.669194 215.284607 
L 67.372234 216.630614 
L 69.075274 212.966083 
L 70.778314 206.237531 
L 72.481354 201.228631 
L 74.184394 201.04203 
L 75.887434 207.480343 
L 79.293514 228.870398 
L 80.996554 234.906954 
L 82.699594 233.892451 
L 84.402634 226.837091 
L 86.105674 216.897732 
L 87.808714 208.898723 
L 89.511755 205.298652 
L 91.214795 205.714884 
L 92.917835 207.528177 
L 94.620875 208.24748 
L 96.323915 207.878814 
L 98.026955 207.393778 
L 99.729995 207.64974 
L 101.433035 207.396967 
L 103.136075 205.138097 
L 104.839115 199.164238 
L 106.542155 191.524737 
L 108.245195 187.245295 
L 109.948235 189.768777 
L 111.651275 200.477212 
L 115.057356 229.224642 
L 116.760396 236.363694 
L 118.463436 234.499187 
L 121.869516 219.938671 
L 123.572556 217.015429 
L 125.275596 218.420703 
L 126.978636 220.858456 
L 128.681676 219.586871 
L 130.384716 213.405588 
L 132.087756 205.164754 
L 133.790796 200.348845 
L 135.493836 202.270871 
L 137.196876 212.196852 
L 138.899916 225.396084 
L 140.602957 236.837834 
L 142.305997 242.297872 
L 144.009037 242.576314 
L 145.712077 240.898821 
L 147.415117 241.148473 
L 149.118157 245.205294 
L 150.821197 253.422934 
L 152.524237 263.370491 
L 154.227277 272.654331 
L 155.930317 277.35782 
L 157.633357 275.096612 
L 159.336397 266.252403 
L 161.039437 251.858523 
L 162.742477 234.347536 
L 164.445517 218.619943 
L 166.148558 208.949484 
L 167.851598 204.960054 
L 169.554638 203.415508 
L 171.257678 200.018045 
L 172.960718 191.426216 
L 174.663758 176.620594 
L 176.366798 159.994194 
L 178.069838 147.471078 
L 179.772878 143.411085 
L 181.475918 148.282965 
L 184.881998 166.498544 
L 186.585038 170.515222 
L 188.288078 168.958725 
L 189.991118 163.374155 
L 191.694159 159.646584 
L 193.397199 159.715407 
L 195.100239 162.799763 
L 196.803279 166.245822 
L 198.506319 167.612683 
L 200.209359 166.33015 
L 201.912399 162.957927 
L 203.615439 158.241803 
L 205.318479 152.766574 
L 207.021519 147.706289 
L 208.724559 143.271899 
L 210.427599 140.651627 
L 212.130639 139.92854 
L 213.833679 140.962133 
L 215.536719 141.661436 
L 217.23976 139.916324 
L 218.9428 135.214403 
L 220.64584 130.156337 
L 222.34888 127.27653 
L 224.05192 128.535828 
L 225.75496 133.807034 
L 229.16104 147.852683 
L 230.86408 151.711614 
L 232.56712 152.483001 
L 235.9732 150.052314 
L 237.67624 149.344994 
L 239.37928 150.340321 
L 241.08232 153.294277 
L 242.785361 159.908705 
L 246.191441 178.064976 
L 247.894481 183.500091 
L 249.597521 183.310107 
L 251.300561 176.73917 
L 253.003601 165.801266 
L 254.706641 153.630583 
L 256.409681 142.773604 
L 259.815761 124.903049 
L 261.518801 113.114793 
L 266.627921 66.415932 
L 268.330962 55.970011 
L 270.034002 51.044328 
L 273.440082 46.71915 
L 275.143122 42.042797 
L 276.846162 36.719542 
L 278.549202 33.510744 
L 280.252242 35.855447 
L 281.955282 43.95854 
L 283.658322 54.929409 
L 285.361362 64.692861 
L 287.064402 70.819361 
L 288.767442 72.580828 
L 290.470482 72.038113 
L 292.173522 72.689895 
L 293.876563 75.919038 
L 295.579603 81.459929 
L 297.282643 88.257618 
L 298.985683 95.757062 
L 304.094803 120.799606 
L 305.797843 125.051337 
L 307.500883 123.65173 
L 309.203923 117.097508 
L 310.906963 107.281262 
L 312.610003 98.612312 
L 314.313043 95.539343 
L 316.016083 99.836698 
L 317.719123 110.140344 
L 319.422164 122.256568 
L 321.125204 132.23098 
L 322.828244 137.466816 
L 324.531284 138.106157 
L 326.234324 136.96727 
L 327.937364 137.182991 
L 329.640404 139.696702 
L 331.343444 145.137139 
L 333.046484 152.886716 
L 334.749524 161.731245 
L 336.452564 169.643893 
L 338.155604 174.277519 
L 339.858644 174.752053 
L 341.561684 171.014542 
L 344.967765 157.527659 
L 346.670805 153.99289 
L 348.373845 154.44868 
L 350.076885 156.754024 
L 351.779925 158.058244 
L 353.482965 157.112831 
L 355.186005 153.176802 
L 356.889045 147.899837 
L 358.592085 143.236341 
L 360.295125 141.050296 
L 361.998165 141.073692 
L 363.701205 141.827586 
L 365.404245 142.153471 
L 367.107285 141.401114 
L 368.810326 139.700003 
L 373.919446 133.796017 
L 375.622486 132.213813 
L 377.325526 131.457405 
L 379.028566 133.731852 
L 380.731606 139.288023 
L 382.434646 146.839366 
L 384.137686 153.159826 
L 385.840726 155.055296 
L 387.543766 152.420149 
L 389.246806 148.084267 
L 390.949846 145.294537 
L 392.652886 146.151591 
L 394.355927 150.245729 
L 396.058967 155.750625 
L 397.762007 160.355338 
L 399.465047 162.455254 
L 401.168087 162.955948 
L 402.871127 163.886076 
L 404.574167 166.126292 
L 406.277207 168.937342 
L 407.980247 171.27169 
L 409.683287 172.118493 
L 411.386327 171.928322 
L 413.089367 171.571373 
L 414.792407 172.92385 
L 416.495447 175.951469 
L 418.198487 178.32178 
L 419.901528 178.719312 
L 421.604568 176.710443 
L 423.307608 173.375433 
L 425.010648 171.811013 
L 426.713688 174.434936 
L 428.416728 181.017399 
L 431.822808 198.746968 
L 433.525848 205.028006 
L 435.228888 207.398458 
L 436.931928 206.736113 
L 440.338008 204.292325 
L 442.041048 202.205803 
L 443.744088 197.990927 
L 445.447129 191.857603 
L 447.150169 184.372494 
L 448.853209 176.16642 
L 450.556249 169.602886 
L 452.259289 166.650017 
L 453.962329 169.3621 
L 455.665369 177.470601 
L 457.368409 186.896704 
L 459.071449 193.526675 
L 460.774489 195.855734 
L 464.180569 194.032235 
L 465.883609 197.649928 
L 467.586649 206.725245 
L 469.289689 217.377481 
L 470.99273 224.352015 
L 472.69577 222.748265 
L 474.39881 213.224642 
L 476.10185 200.863563 
L 477.80489 194.312338 
L 479.50793 198.476392 
L 482.91401 224.701706 
L 484.61705 230.367618 
L 486.32009 224.354098 
L 489.72617 197.192466 
L 491.42921 191.188627 
L 493.13225 195.1839 
L 496.538331 215.193885 
L 498.241371 219.295488 
L 499.944411 218.265775 
L 501.647451 215.962524 
L 503.350491 216.110972 
L 505.053531 220.177057 
L 506.756571 224.989767 
L 508.459611 226.62664 
L 510.162651 222.641134 
L 513.568731 206.185601 
L 515.271771 203.787932 
L 516.974811 208.40019 
L 518.677851 217.439633 
L 520.380891 227.212091 
L 522.083932 233.940627 
L 523.786972 236.73688 
L 525.490012 235.802619 
L 527.193052 234.25503 
L 528.896092 234.430485 
L 530.599132 236.718921 
L 532.302172 240.431469 
L 534.005212 243.576258 
L 535.708252 244.835192 
L 537.411292 244.449429 
L 539.114332 243.763654 
L 540.817372 243.98152 
L 542.520412 245.338988 
L 544.223452 247.006837 
L 545.926492 247.55157 
L 547.629533 246.85565 
L 549.332573 244.959818 
L 551.035613 243.71296 
L 552.738653 244.830404 
L 554.441693 249.67691 
L 557.847773 265.836795 
L 559.550813 271.338131 
L 561.253853 271.985336 
L 561.253853 271.985336 
" style="fill: none; stroke: #1f77b4; stroke-width: 1.5; stroke-linecap: square"/>
   </g>
   <g id="line2d_18">
    <path d="M 38.420552 178.968662 
L 40.123593 175.193688 
L 41.826633 171.131265 
L 43.529673 168.948409 
L 45.232713 171.200029 
L 46.935753 177.502465 
L 48.638793 185.550199 
L 50.341833 191.554111 
L 52.044873 193.113889 
L 53.747913 190.379391 
L 55.450953 185.816915 
L 57.153993 183.300338 
L 58.857033 185.575591 
L 60.560073 192.62287 
L 62.263113 201.601607 
L 63.966154 208.411434 
L 65.669194 211.092081 
L 67.372234 209.938857 
L 69.075274 207.168783 
L 70.778314 205.496462 
L 72.481354 205.854991 
L 74.184394 208.017422 
L 77.590474 213.475318 
L 82.699594 220.424724 
L 84.402634 222.149949 
L 86.105674 222.430665 
L 87.808714 220.693591 
L 89.511755 217.734002 
L 91.214795 215.157463 
L 92.917835 214.154595 
L 94.620875 214.62077 
L 96.323915 215.555919 
L 98.026955 215.724366 
L 99.729995 214.581325 
L 101.433035 212.718593 
L 103.136075 211.112822 
L 104.839115 210.732194 
L 106.542155 211.565443 
L 108.245195 212.141294 
L 109.948235 212.255773 
L 111.651275 212.151855 
L 113.354315 212.923767 
L 115.057356 216.612253 
L 116.760396 224.044106 
L 118.463436 233.857431 
L 120.166476 242.734378 
L 121.869516 247.33473 
L 123.572556 246.699649 
L 125.275596 242.549964 
L 126.978636 237.22135 
L 128.681676 234.461574 
L 130.384716 235.403054 
L 132.087756 239.147603 
L 133.790796 243.623677 
L 135.493836 247.307653 
L 138.899916 253.759494 
L 142.305997 261.793007 
L 144.009037 265.306017 
L 145.712077 267.42854 
L 147.415117 267.836812 
L 149.118157 267.508143 
L 150.821197 268.037535 
L 152.524237 269.534958 
L 154.227277 270.590202 
L 155.930317 269.27739 
L 157.633357 264.382979 
L 159.336397 256.399552 
L 161.039437 247.196864 
L 162.742477 239.625091 
L 164.445517 235.122663 
L 166.148558 233.390658 
L 167.851598 231.907986 
L 169.554638 228.462868 
L 171.257678 221.526506 
L 174.663758 202.544416 
L 176.366798 195.241659 
L 178.069838 191.986538 
L 179.772878 191.981694 
L 181.475918 193.553027 
L 183.178958 194.707163 
L 184.881998 194.677825 
L 186.585038 192.616098 
L 189.991118 186.824444 
L 191.694159 183.593526 
L 193.397199 180.700969 
L 195.100239 177.462704 
L 196.803279 173.192242 
L 201.912399 157.682804 
L 203.615439 154.319174 
L 205.318479 152.458182 
L 207.021519 151.029986 
L 208.724559 148.505843 
L 210.427599 144.183034 
L 213.833679 133.205285 
L 215.536719 129.33361 
L 217.23976 127.282089 
L 218.9428 126.473368 
L 220.64584 125.887087 
L 222.34888 125.592886 
L 224.05192 126.683789 
L 225.75496 130.394653 
L 227.458 136.938044 
L 230.86408 154.018791 
L 232.56712 161.159446 
L 234.27016 166.257153 
L 235.9732 169.586393 
L 237.67624 172.190458 
L 241.08232 176.793641 
L 242.785361 178.558699 
L 244.488401 179.449648 
L 246.191441 179.321207 
L 247.894481 178.612131 
L 249.597521 177.378793 
L 251.300561 175.365591 
L 253.003601 171.243806 
L 254.706641 164.167619 
L 256.409681 154.289986 
L 261.518801 119.747044 
L 263.221841 110.102827 
L 266.627921 93.257655 
L 268.330962 85.176988 
L 270.034002 77.749288 
L 271.737042 71.920353 
L 273.440082 67.790326 
L 275.143122 64.884934 
L 276.846162 62.930305 
L 278.549202 61.258558 
L 280.252242 60.285816 
L 281.955282 60.620134 
L 283.658322 62.817983 
L 285.361362 67.732538 
L 287.064402 75.248292 
L 288.767442 84.385276 
L 292.173522 105.587167 
L 293.876563 116.122334 
L 295.579603 125.178911 
L 297.282643 131.667316 
L 298.985683 134.987951 
L 300.688723 135.210604 
L 302.391763 133.415716 
L 304.094803 131.811388 
L 305.797843 132.666419 
L 307.500883 136.817292 
L 310.906963 149.401632 
L 312.610003 154.124818 
L 314.313043 155.972459 
L 316.016083 155.004853 
L 317.719123 152.329165 
L 319.422164 150.259442 
L 321.125204 150.337225 
L 322.828244 152.739099 
L 324.531284 155.866786 
L 326.234324 157.691477 
L 327.937364 158.124655 
L 329.640404 158.127066 
L 331.343444 159.374159 
L 333.046484 162.521826 
L 334.749524 166.696027 
L 336.452564 169.608801 
L 338.155604 168.808844 
L 339.858644 164.296111 
L 341.561684 157.946026 
L 343.264724 152.848565 
L 344.967765 151.187369 
L 346.670805 153.452557 
L 348.373845 157.479732 
L 350.076885 160.31321 
L 351.779925 160.554046 
L 353.482965 158.513152 
L 355.186005 156.248332 
L 356.889045 156.20485 
L 358.592085 159.191897 
L 360.295125 163.815816 
L 361.998165 167.823443 
L 363.701205 169.000718 
L 365.404245 166.499536 
L 368.810326 156.970502 
L 370.513366 154.713671 
L 372.216406 156.160219 
L 373.919446 160.780221 
L 375.622486 166.807046 
L 377.325526 172.038398 
L 379.028566 175.136884 
L 380.731606 176.50979 
L 382.434646 177.369315 
L 384.137686 179.287223 
L 385.840726 182.576697 
L 387.543766 186.450751 
L 389.246806 189.439402 
L 390.949846 190.771123 
L 392.652886 191.318373 
L 394.355927 192.631402 
L 396.058967 196.109776 
L 397.762007 201.82194 
L 399.465047 208.639665 
L 401.168087 214.790564 
L 402.871127 219.010292 
L 406.277207 224.694626 
L 407.980247 228.489074 
L 411.386327 237.715559 
L 413.089367 240.454458 
L 414.792407 241.012191 
L 418.198487 239.595051 
L 419.901528 239.59197 
L 421.604568 240.062492 
L 423.307608 239.890115 
L 425.010648 238.280559 
L 428.416728 232.850266 
L 430.119768 232.057069 
L 431.822808 234.590309 
L 433.525848 240.053235 
L 436.931928 253.952097 
L 438.634968 259.633739 
L 440.338008 263.956873 
L 442.041048 267.089379 
L 443.744088 269.238774 
L 445.447129 270.657026 
L 447.150169 271.5065 
L 448.853209 272.113267 
L 452.259289 272.941703 
L 453.962329 273.762641 
L 455.665369 274.368876 
L 457.368409 273.795063 
L 459.071449 272.335611 
L 460.774489 271.146916 
L 462.477529 271.460784 
L 464.180569 273.813561 
L 465.883609 277.870707 
L 469.289689 288.912817 
L 470.99273 293.373392 
L 472.69577 296.785911 
L 474.39881 299.308677 
L 476.10185 301.445996 
L 477.80489 303.243021 
L 479.50793 304.681631 
L 481.21097 305.832277 
L 482.91401 306.728118 
L 484.61705 307.402616 
L 486.32009 307.756724 
L 488.02313 307.627178 
L 489.72617 306.864541 
L 491.42921 305.284447 
L 493.13225 303.160624 
L 494.83529 300.323527 
L 496.538331 296.856705 
L 499.944411 289.206731 
L 501.647451 286.161059 
L 503.350491 285.173497 
L 505.053531 287.248311 
L 506.756571 292.563734 
L 510.162651 307.442375 
L 511.865691 312.818281 
L 513.568731 314.696595 
L 515.271771 313.806441 
L 516.974811 312.117337 
L 518.677851 311.416512 
L 520.380891 313.096087 
L 522.083932 317.212255 
L 523.786972 321.931871 
L 525.490012 325.300996 
L 527.193052 326.129705 
L 528.896092 323.470052 
L 530.599132 317.819051 
L 532.302172 310.906472 
L 534.005212 304.684408 
L 535.708252 300.984394 
L 537.411292 300.627749 
L 539.114332 303.518232 
L 542.520412 313.867144 
L 544.223452 317.564678 
L 545.926492 318.525169 
L 547.629533 317.182592 
L 549.332573 314.595506 
L 551.035613 311.707637 
L 552.738653 309.105216 
L 554.441693 307.29155 
L 556.144733 306.808101 
L 557.847773 307.949875 
L 559.550813 310.746735 
L 561.253853 314.667346 
L 561.253853 314.667346 
" style="fill: none; stroke: #ff7f0e; stroke-width: 1.5; stroke-linecap: square"/>
   </g>
  </g>
  <g id="axes_2">
   <g id="PathCollection_1">
    <defs>
     <path id="C0_0_d39c41309b" d="M 0 1.118034 
C 0.296506 1.118034 0.580908 1.000231 0.790569 0.790569 
C 1.000231 0.580908 1.118034 0.296506 1.118034 -0 
C 1.118034 -0.296506 1.000231 -0.580908 0.790569 -0.790569 
C 0.580908 -1.000231 0.296506 -1.118034 0 -1.118034 
C -0.296506 -1.118034 -0.580908 -1.000231 -0.790569 -0.790569 
C -1.000231 -0.580908 -1.118034 -0.296506 -1.118034 0 
C -1.118034 0.296506 -1.000231 0.580908 -0.790569 0.790569 
C -0.580908 1.000231 -0.296506 1.118034 0 1.118034 
z
"/>
    </defs>
    <g clip-path="url(#pa6587a0de2)">
     <use xlink:href="#C0_0_d39c41309b" x="494.022182" y="86.067282" style="stroke: #000000"/>
    </g>
    <g clip-path="url(#pa6587a0de2)">
     <use xlink:href="#C0_0_d39c41309b" x="524.549058" y="86.077255" style="stroke: #000000"/>
    </g>
    <g clip-path="url(#pa6587a0de2)">
     <use xlink:href="#C0_0_d39c41309b" x="509.03797" y="85.799671" style="stroke: #000000"/>
    </g>
   </g>
   <g id="matplotlib.axis_3"/>
   <g id="matplotlib.axis_4"/>
   <g id="line2d_19">
    <path d="M 548.860571 73.636212 
L 548.782898 71.164606 
L 548.550185 68.702755 
L 548.163349 66.260375 
L 547.623919 63.847103 
L 546.934023 61.472464 
L 546.096383 59.14583 
L 545.114306 56.876383 
L 543.991666 54.673079 
L 542.732896 52.544615 
L 541.342962 50.499389 
L 539.82735 48.545473 
L 538.192041 46.690579 
L 536.443489 44.942028 
L 534.588595 43.306719 
L 532.63468 41.791107 
L 530.589454 40.401173 
L 528.460989 39.142402 
L 526.257685 38.019763 
L 523.988238 37.037685 
L 521.661605 36.200045 
L 519.286966 35.510149 
L 516.873694 34.970719 
L 514.431313 34.583884 
L 511.969462 34.35117 
L 509.497857 34.273497 
L 507.026251 34.35117 
L 504.5644 34.583884 
L 502.12202 34.970719 
L 499.708748 35.510149 
L 497.334109 36.200045 
L 495.007475 37.037685 
L 492.738028 38.019763 
L 490.534724 39.142402 
L 488.40626 40.401173 
L 486.361034 41.791107 
L 484.407118 43.306719 
L 482.552224 44.942028 
L 480.803673 46.690579 
L 479.168364 48.545473 
L 477.652752 50.499389 
L 476.262818 52.544615 
L 475.004047 54.673079 
L 473.881408 56.876383 
L 472.89933 59.14583 
L 472.061691 61.472464 
L 471.371794 63.847103 
L 470.832364 66.260375 
L 470.445529 68.702755 
L 470.212815 71.164606 
L 470.135142 73.636212 
L 470.212815 76.107817 
L 470.445529 78.569668 
L 470.832364 81.012049 
L 471.371794 83.425321 
L 472.061691 85.799959 
L 472.89933 88.126593 
L 473.881408 90.39604 
L 475.004047 92.599344 
L 476.262818 94.727809 
L 477.652752 96.773035 
L 479.168364 98.72695 
L 480.803673 100.581844 
L 482.552224 102.330396 
L 484.407118 103.965705 
L 486.361034 105.481317 
L 488.40626 106.871251 
L 490.534724 108.130021 
L 492.738028 109.252661 
L 495.007475 110.234738 
L 497.334109 111.072378 
L 499.708748 111.762274 
L 502.12202 112.301704 
L 504.5644 112.68854 
L 507.026251 112.921253 
L 509.497857 112.998926 
L 511.969462 112.921253 
L 514.431313 112.68854 
L 516.873694 112.301704 
L 519.286966 111.762274 
L 521.661605 111.072378 
L 523.988238 110.234738 
L 526.257685 109.252661 
L 528.460989 108.130021 
L 530.589454 106.871251 
L 532.63468 105.481317 
L 534.588595 103.965705 
L 536.443489 102.330396 
L 538.192041 100.581844 
L 539.82735 98.72695 
L 541.342962 96.773035 
L 542.732896 94.727809 
L 543.991666 92.599344 
L 545.114306 90.39604 
L 546.096383 88.126593 
L 546.934023 85.799959 
L 547.623919 83.425321 
L 548.163349 81.012049 
L 548.550185 78.569668 
L 548.782898 76.107817 
L 548.860571 73.636212 
" style="fill: none; stroke: #000000; stroke-linecap: square"/>
   </g>
   <g id="line2d_20">
    <path d="M 501.253749 35.146499 
L 509.497857 28.36909 
L 517.741964 35.146499 
" style="fill: none; stroke: #000000; stroke-linecap: square"/>
   </g>
   <g id="line2d_21">
    <path d="M 470.371318 69.26695 
L 469.347888 67.534991 
L 468.718084 67.472011 
L 467.781252 67.763295 
L 466.836547 69.26695 
L 466.986125 74.069202 
L 466.435047 80.973422 
L 467.615928 83.972861 
L 469.347888 84.531811 
L 471.001122 83.075391 
" style="fill: none; stroke: #000000; stroke-linecap: square"/>
   </g>
   <g id="line2d_22">
    <path d="M 548.624395 69.26695 
L 549.647826 67.534991 
L 550.277629 67.472011 
L 551.214462 67.763295 
L 552.159167 69.26695 
L 552.009589 74.069202 
L 552.560667 80.973422 
L 551.379785 83.972861 
L 549.647826 84.531811 
L 547.994592 83.075391 
" style="fill: none; stroke: #000000; stroke-linecap: square"/>
   </g>
  </g>
 </g>
 <defs>
  <clipPath id="pdeecd3e9ec">
   <rect x="38.420552" y="18.118365" width="523.446395" height="380.525145"/>
  </clipPath>
  <clipPath id="pa6587a0de2">
   <rect x="462.128766" y="24.137598" width="94.738182" height="93.09282"/>
  </clipPath>
 </defs>
</svg>
