<?xml version="1.0" encoding="utf-8" standalone="no"?>
<!DOCTYPE svg PUBLIC "-//W3C//DTD SVG 1.1//EN"
  "http://www.w3.org/Graphics/SVG/1.1/DTD/svg11.dtd">
<svg xmlns:xlink="http://www.w3.org/1999/xlink" width="576pt" height="432pt" viewBox="0 0 576 432" xmlns="http://www.w3.org/2000/svg" version="1.1">
 <metadata>
  <rdf:RDF xmlns:dc="http://purl.org/dc/elements/1.1/" xmlns:cc="http://creativecommons.org/ns#" xmlns:rdf="http://www.w3.org/1999/02/22-rdf-syntax-ns#">
   <cc:Work>
    <dc:type rdf:resource="http://purl.org/dc/dcmitype/StillImage"/>
    <dc:date>2025-02-17T18:04:58.374968</dc:date>
    <dc:format>image/svg+xml</dc:format>
    <dc:creator>
     <cc:Agent>
      <dc:title>Matplotlib v3.10.0, https://matplotlib.org/</dc:title>
     </cc:Agent>
    </dc:creator>
   </cc:Work>
  </rdf:RDF>
 </metadata>
 <defs>
  <style type="text/css">*{stroke-linejoin: round; stroke-linecap: butt}</style>
 </defs>
 <g id="figure_1">
  <g id="patch_1">
   <path d="M 0 432 
L 576 432 
L 576 0 
L 0 0 
z
" style="fill: #ffffff"/>
  </g>
  <g id="axes_1">
   <g id="patch_2">
    <path d="M 38.420552 398.64351 
L 561.866948 398.64351 
L 561.866948 18.118365 
L 38.420552 18.118365 
L 38.420552 398.64351 
z
" style="fill: none; opacity: 0"/>
   </g>
   <g id="patch_3">
    <path d="M 38.420552 381.782651 
L 38.420552 34.979224 
" style="fill: none; stroke: #000000; stroke-width: 0.8; stroke-linejoin: miter; stroke-linecap: square"/>
   </g>
   <g id="LineCollection_1">
    <path d="M 191.285429 18.118365 
L 191.285429 398.64351 
" clip-path="url(#p20da4e1688)" style="fill: none; stroke-dasharray: 3.7,1.6; stroke-dashoffset: 0; stroke: #000000"/>
    <path d="M 226.163689 18.118365 
L 226.163689 398.64351 
" clip-path="url(#p20da4e1688)" style="fill: none; stroke-dasharray: 3.7,1.6; stroke-dashoffset: 0; stroke: #000000"/>
   </g>
   <g id="matplotlib.axis_1">
    <g id="xtick_1">
     <g id="line2d_1">
      <defs>
       <path id="mb6276c6428" d="M 0 0 
L 0 3.5 
" style="stroke: #000000; stroke-width: 0.8"/>
      </defs>
      <g>
       <use xlink:href="#mb6276c6428" x="38.693039" y="398.64351" style="stroke: #000000; stroke-width: 0.8"/>
      </g>
     </g>
     <g id="text_1">
      <!-- −0.20 -->
      <g transform="translate(23.370383 413.241947) scale(0.1 -0.1)">
       <defs>
        <path id="DejaVuSans-2212" d="M 678 2272 
L 4684 2272 
L 4684 1741 
L 678 1741 
L 678 2272 
z
" transform="scale(0.015625)"/>
        <path id="DejaVuSans-30" d="M 2034 4250 
Q 1547 4250 1301 3770 
Q 1056 3291 1056 2328 
Q 1056 1369 1301 889 
Q 1547 409 2034 409 
Q 2525 409 2770 889 
Q 3016 1369 3016 2328 
Q 3016 3291 2770 3770 
Q 2525 4250 2034 4250 
z
M 2034 4750 
Q 2819 4750 3233 4129 
Q 3647 3509 3647 2328 
Q 3647 1150 3233 529 
Q 2819 -91 2034 -91 
Q 1250 -91 836 529 
Q 422 1150 422 2328 
Q 422 3509 836 4129 
Q 1250 4750 2034 4750 
z
" transform="scale(0.015625)"/>
        <path id="DejaVuSans-2e" d="M 684 794 
L 1344 794 
L 1344 0 
L 684 0 
L 684 794 
z
" transform="scale(0.015625)"/>
        <path id="DejaVuSans-32" d="M 1228 531 
L 3431 531 
L 3431 0 
L 469 0 
L 469 531 
Q 828 903 1448 1529 
Q 2069 2156 2228 2338 
Q 2531 2678 2651 2914 
Q 2772 3150 2772 3378 
Q 2772 3750 2511 3984 
Q 2250 4219 1831 4219 
Q 1534 4219 1204 4116 
Q 875 4013 500 3803 
L 500 4441 
Q 881 4594 1212 4672 
Q 1544 4750 1819 4750 
Q 2544 4750 2975 4387 
Q 3406 4025 3406 3419 
Q 3406 3131 3298 2873 
Q 3191 2616 2906 2266 
Q 2828 2175 2409 1742 
Q 1991 1309 1228 531 
z
" transform="scale(0.015625)"/>
       </defs>
       <use xlink:href="#DejaVuSans-2212"/>
       <use xlink:href="#DejaVuSans-30" transform="translate(83.789062 0)"/>
       <use xlink:href="#DejaVuSans-2e" transform="translate(147.412109 0)"/>
       <use xlink:href="#DejaVuSans-32" transform="translate(179.199219 0)"/>
       <use xlink:href="#DejaVuSans-30" transform="translate(242.822266 0)"/>
      </g>
     </g>
    </g>
    <g id="xtick_2">
     <g id="line2d_2">
      <g>
       <use xlink:href="#mb6276c6428" x="125.88869" y="398.64351" style="stroke: #000000; stroke-width: 0.8"/>
      </g>
     </g>
     <g id="text_2">
      <!-- 0.00 -->
      <g transform="translate(114.755878 413.241947) scale(0.1 -0.1)">
       <use xlink:href="#DejaVuSans-30"/>
       <use xlink:href="#DejaVuSans-2e" transform="translate(63.623047 0)"/>
       <use xlink:href="#DejaVuSans-30" transform="translate(95.410156 0)"/>
       <use xlink:href="#DejaVuSans-30" transform="translate(159.033203 0)"/>
      </g>
     </g>
    </g>
    <g id="xtick_3">
     <g id="line2d_3">
      <g>
       <use xlink:href="#mb6276c6428" x="191.285429" y="398.64351" style="stroke: #000000; stroke-width: 0.8"/>
      </g>
     </g>
     <g id="text_3">
      <!-- 0.15 -->
      <g transform="translate(180.152616 413.241947) scale(0.1 -0.1)">
       <defs>
        <path id="DejaVuSans-31" d="M 794 531 
L 1825 531 
L 1825 4091 
L 703 3866 
L 703 4441 
L 1819 4666 
L 2450 4666 
L 2450 531 
L 3481 531 
L 3481 0 
L 794 0 
L 794 531 
z
" transform="scale(0.015625)"/>
        <path id="DejaVuSans-35" d="M 691 4666 
L 3169 4666 
L 3169 4134 
L 1269 4134 
L 1269 2991 
Q 1406 3038 1543 3061 
Q 1681 3084 1819 3084 
Q 2600 3084 3056 2656 
Q 3513 2228 3513 1497 
Q 3513 744 3044 326 
Q 2575 -91 1722 -91 
Q 1428 -91 1123 -41 
Q 819 9 494 109 
L 494 744 
Q 775 591 1075 516 
Q 1375 441 1709 441 
Q 2250 441 2565 725 
Q 2881 1009 2881 1497 
Q 2881 1984 2565 2268 
Q 2250 2553 1709 2553 
Q 1456 2553 1204 2497 
Q 953 2441 691 2322 
L 691 4666 
z
" transform="scale(0.015625)"/>
       </defs>
       <use xlink:href="#DejaVuSans-30"/>
       <use xlink:href="#DejaVuSans-2e" transform="translate(63.623047 0)"/>
       <use xlink:href="#DejaVuSans-31" transform="translate(95.410156 0)"/>
       <use xlink:href="#DejaVuSans-35" transform="translate(159.033203 0)"/>
      </g>
     </g>
    </g>
    <g id="xtick_4">
     <g id="line2d_4">
      <g>
       <use xlink:href="#mb6276c6428" x="213.084342" y="398.64351" style="stroke: #000000; stroke-width: 0.8"/>
      </g>
     </g>
     <g id="text_4">
      <!-- 0.20 -->
      <g transform="translate(201.951529 413.241947) scale(0.1 -0.1)">
       <use xlink:href="#DejaVuSans-30"/>
       <use xlink:href="#DejaVuSans-2e" transform="translate(63.623047 0)"/>
       <use xlink:href="#DejaVuSans-32" transform="translate(95.410156 0)"/>
       <use xlink:href="#DejaVuSans-30" transform="translate(159.033203 0)"/>
      </g>
     </g>
    </g>
    <g id="xtick_5">
     <g id="line2d_5">
      <g>
       <use xlink:href="#mb6276c6428" x="226.163689" y="398.64351" style="stroke: #000000; stroke-width: 0.8"/>
      </g>
     </g>
     <g id="text_5">
      <!-- 0.23 -->
      <g transform="translate(215.030877 413.241947) scale(0.1 -0.1)">
       <defs>
        <path id="DejaVuSans-33" d="M 2597 2516 
Q 3050 2419 3304 2112 
Q 3559 1806 3559 1356 
Q 3559 666 3084 287 
Q 2609 -91 1734 -91 
Q 1441 -91 1130 -33 
Q 819 25 488 141 
L 488 750 
Q 750 597 1062 519 
Q 1375 441 1716 441 
Q 2309 441 2620 675 
Q 2931 909 2931 1356 
Q 2931 1769 2642 2001 
Q 2353 2234 1838 2234 
L 1294 2234 
L 1294 2753 
L 1863 2753 
Q 2328 2753 2575 2939 
Q 2822 3125 2822 3475 
Q 2822 3834 2567 4026 
Q 2313 4219 1838 4219 
Q 1578 4219 1281 4162 
Q 984 4106 628 3988 
L 628 4550 
Q 988 4650 1302 4700 
Q 1616 4750 1894 4750 
Q 2613 4750 3031 4423 
Q 3450 4097 3450 3541 
Q 3450 3153 3228 2886 
Q 3006 2619 2597 2516 
z
" transform="scale(0.015625)"/>
       </defs>
       <use xlink:href="#DejaVuSans-30"/>
       <use xlink:href="#DejaVuSans-2e" transform="translate(63.623047 0)"/>
       <use xlink:href="#DejaVuSans-32" transform="translate(95.410156 0)"/>
       <use xlink:href="#DejaVuSans-33" transform="translate(159.033203 0)"/>
      </g>
     </g>
    </g>
    <g id="xtick_6">
     <g id="line2d_6">
      <g>
       <use xlink:href="#mb6276c6428" x="300.279993" y="398.64351" style="stroke: #000000; stroke-width: 0.8"/>
      </g>
     </g>
     <g id="text_6">
      <!-- 0.40 -->
      <g transform="translate(289.147181 413.241947) scale(0.1 -0.1)">
       <defs>
        <path id="DejaVuSans-34" d="M 2419 4116 
L 825 1625 
L 2419 1625 
L 2419 4116 
z
M 2253 4666 
L 3047 4666 
L 3047 1625 
L 3713 1625 
L 3713 1100 
L 3047 1100 
L 3047 0 
L 2419 0 
L 2419 1100 
L 313 1100 
L 313 1709 
L 2253 4666 
z
" transform="scale(0.015625)"/>
       </defs>
       <use xlink:href="#DejaVuSans-30"/>
       <use xlink:href="#DejaVuSans-2e" transform="translate(63.623047 0)"/>
       <use xlink:href="#DejaVuSans-34" transform="translate(95.410156 0)"/>
       <use xlink:href="#DejaVuSans-30" transform="translate(159.033203 0)"/>
      </g>
     </g>
    </g>
    <g id="xtick_7">
     <g id="line2d_7">
      <g>
       <use xlink:href="#mb6276c6428" x="387.475645" y="398.64351" style="stroke: #000000; stroke-width: 0.8"/>
      </g>
     </g>
     <g id="text_7">
      <!-- 0.60 -->
      <g transform="translate(376.342832 413.241947) scale(0.1 -0.1)">
       <defs>
        <path id="DejaVuSans-36" d="M 2113 2584 
Q 1688 2584 1439 2293 
Q 1191 2003 1191 1497 
Q 1191 994 1439 701 
Q 1688 409 2113 409 
Q 2538 409 2786 701 
Q 3034 994 3034 1497 
Q 3034 2003 2786 2293 
Q 2538 2584 2113 2584 
z
M 3366 4563 
L 3366 3988 
Q 3128 4100 2886 4159 
Q 2644 4219 2406 4219 
Q 1781 4219 1451 3797 
Q 1122 3375 1075 2522 
Q 1259 2794 1537 2939 
Q 1816 3084 2150 3084 
Q 2853 3084 3261 2657 
Q 3669 2231 3669 1497 
Q 3669 778 3244 343 
Q 2819 -91 2113 -91 
Q 1303 -91 875 529 
Q 447 1150 447 2328 
Q 447 3434 972 4092 
Q 1497 4750 2381 4750 
Q 2619 4750 2861 4703 
Q 3103 4656 3366 4563 
z
" transform="scale(0.015625)"/>
       </defs>
       <use xlink:href="#DejaVuSans-30"/>
       <use xlink:href="#DejaVuSans-2e" transform="translate(63.623047 0)"/>
       <use xlink:href="#DejaVuSans-36" transform="translate(95.410156 0)"/>
       <use xlink:href="#DejaVuSans-30" transform="translate(159.033203 0)"/>
      </g>
     </g>
    </g>
    <g id="xtick_8">
     <g id="line2d_8">
      <g>
       <use xlink:href="#mb6276c6428" x="474.671296" y="398.64351" style="stroke: #000000; stroke-width: 0.8"/>
      </g>
     </g>
     <g id="text_8">
      <!-- 0.80 -->
      <g transform="translate(463.538484 413.241947) scale(0.1 -0.1)">
       <defs>
        <path id="DejaVuSans-38" d="M 2034 2216 
Q 1584 2216 1326 1975 
Q 1069 1734 1069 1313 
Q 1069 891 1326 650 
Q 1584 409 2034 409 
Q 2484 409 2743 651 
Q 3003 894 3003 1313 
Q 3003 1734 2745 1975 
Q 2488 2216 2034 2216 
z
M 1403 2484 
Q 997 2584 770 2862 
Q 544 3141 544 3541 
Q 544 4100 942 4425 
Q 1341 4750 2034 4750 
Q 2731 4750 3128 4425 
Q 3525 4100 3525 3541 
Q 3525 3141 3298 2862 
Q 3072 2584 2669 2484 
Q 3125 2378 3379 2068 
Q 3634 1759 3634 1313 
Q 3634 634 3220 271 
Q 2806 -91 2034 -91 
Q 1263 -91 848 271 
Q 434 634 434 1313 
Q 434 1759 690 2068 
Q 947 2378 1403 2484 
z
M 1172 3481 
Q 1172 3119 1398 2916 
Q 1625 2713 2034 2713 
Q 2441 2713 2670 2916 
Q 2900 3119 2900 3481 
Q 2900 3844 2670 4047 
Q 2441 4250 2034 4250 
Q 1625 4250 1398 4047 
Q 1172 3844 1172 3481 
z
" transform="scale(0.015625)"/>
       </defs>
       <use xlink:href="#DejaVuSans-30"/>
       <use xlink:href="#DejaVuSans-2e" transform="translate(63.623047 0)"/>
       <use xlink:href="#DejaVuSans-38" transform="translate(95.410156 0)"/>
       <use xlink:href="#DejaVuSans-30" transform="translate(159.033203 0)"/>
      </g>
     </g>
    </g>
    <g id="xtick_9">
     <g id="line2d_9">
      <g>
       <use xlink:href="#mb6276c6428" x="561.866948" y="398.64351" style="stroke: #000000; stroke-width: 0.8"/>
      </g>
     </g>
     <g id="text_9">
      <!-- 1.00 -->
      <g transform="translate(550.734135 413.241947) scale(0.1 -0.1)">
       <use xlink:href="#DejaVuSans-31"/>
       <use xlink:href="#DejaVuSans-2e" transform="translate(63.623047 0)"/>
       <use xlink:href="#DejaVuSans-30" transform="translate(95.410156 0)"/>
       <use xlink:href="#DejaVuSans-30" transform="translate(159.033203 0)"/>
      </g>
     </g>
    </g>
    <g id="text_10">
     <!-- Time (s) -->
     <g transform="translate(279.814844 426.920073) scale(0.1 -0.1)">
      <defs>
       <path id="DejaVuSans-54" d="M -19 4666 
L 3928 4666 
L 3928 4134 
L 2272 4134 
L 2272 0 
L 1638 0 
L 1638 4134 
L -19 4134 
L -19 4666 
z
" transform="scale(0.015625)"/>
       <path id="DejaVuSans-69" d="M 603 3500 
L 1178 3500 
L 1178 0 
L 603 0 
L 603 3500 
z
M 603 4863 
L 1178 4863 
L 1178 4134 
L 603 4134 
L 603 4863 
z
" transform="scale(0.015625)"/>
       <path id="DejaVuSans-6d" d="M 3328 2828 
Q 3544 3216 3844 3400 
Q 4144 3584 4550 3584 
Q 5097 3584 5394 3201 
Q 5691 2819 5691 2113 
L 5691 0 
L 5113 0 
L 5113 2094 
Q 5113 2597 4934 2840 
Q 4756 3084 4391 3084 
Q 3944 3084 3684 2787 
Q 3425 2491 3425 1978 
L 3425 0 
L 2847 0 
L 2847 2094 
Q 2847 2600 2669 2842 
Q 2491 3084 2119 3084 
Q 1678 3084 1418 2786 
Q 1159 2488 1159 1978 
L 1159 0 
L 581 0 
L 581 3500 
L 1159 3500 
L 1159 2956 
Q 1356 3278 1631 3431 
Q 1906 3584 2284 3584 
Q 2666 3584 2933 3390 
Q 3200 3197 3328 2828 
z
" transform="scale(0.015625)"/>
       <path id="DejaVuSans-65" d="M 3597 1894 
L 3597 1613 
L 953 1613 
Q 991 1019 1311 708 
Q 1631 397 2203 397 
Q 2534 397 2845 478 
Q 3156 559 3463 722 
L 3463 178 
Q 3153 47 2828 -22 
Q 2503 -91 2169 -91 
Q 1331 -91 842 396 
Q 353 884 353 1716 
Q 353 2575 817 3079 
Q 1281 3584 2069 3584 
Q 2775 3584 3186 3129 
Q 3597 2675 3597 1894 
z
M 3022 2063 
Q 3016 2534 2758 2815 
Q 2500 3097 2075 3097 
Q 1594 3097 1305 2825 
Q 1016 2553 972 2059 
L 3022 2063 
z
" transform="scale(0.015625)"/>
       <path id="DejaVuSans-20" transform="scale(0.015625)"/>
       <path id="DejaVuSans-28" d="M 1984 4856 
Q 1566 4138 1362 3434 
Q 1159 2731 1159 2009 
Q 1159 1288 1364 580 
Q 1569 -128 1984 -844 
L 1484 -844 
Q 1016 -109 783 600 
Q 550 1309 550 2009 
Q 550 2706 781 3412 
Q 1013 4119 1484 4856 
L 1984 4856 
z
" transform="scale(0.015625)"/>
       <path id="DejaVuSans-73" d="M 2834 3397 
L 2834 2853 
Q 2591 2978 2328 3040 
Q 2066 3103 1784 3103 
Q 1356 3103 1142 2972 
Q 928 2841 928 2578 
Q 928 2378 1081 2264 
Q 1234 2150 1697 2047 
L 1894 2003 
Q 2506 1872 2764 1633 
Q 3022 1394 3022 966 
Q 3022 478 2636 193 
Q 2250 -91 1575 -91 
Q 1294 -91 989 -36 
Q 684 19 347 128 
L 347 722 
Q 666 556 975 473 
Q 1284 391 1588 391 
Q 1994 391 2212 530 
Q 2431 669 2431 922 
Q 2431 1156 2273 1281 
Q 2116 1406 1581 1522 
L 1381 1569 
Q 847 1681 609 1914 
Q 372 2147 372 2553 
Q 372 3047 722 3315 
Q 1072 3584 1716 3584 
Q 2034 3584 2315 3537 
Q 2597 3491 2834 3397 
z
" transform="scale(0.015625)"/>
       <path id="DejaVuSans-29" d="M 513 4856 
L 1013 4856 
Q 1481 4119 1714 3412 
Q 1947 2706 1947 2009 
Q 1947 1309 1714 600 
Q 1481 -109 1013 -844 
L 513 -844 
Q 928 -128 1133 580 
Q 1338 1288 1338 2009 
Q 1338 2731 1133 3434 
Q 928 4138 513 4856 
z
" transform="scale(0.015625)"/>
      </defs>
      <use xlink:href="#DejaVuSans-54"/>
      <use xlink:href="#DejaVuSans-69" transform="translate(57.958984 0)"/>
      <use xlink:href="#DejaVuSans-6d" transform="translate(85.742188 0)"/>
      <use xlink:href="#DejaVuSans-65" transform="translate(183.154297 0)"/>
      <use xlink:href="#DejaVuSans-20" transform="translate(244.677734 0)"/>
      <use xlink:href="#DejaVuSans-28" transform="translate(276.464844 0)"/>
      <use xlink:href="#DejaVuSans-73" transform="translate(315.478516 0)"/>
      <use xlink:href="#DejaVuSans-29" transform="translate(367.578125 0)"/>
     </g>
    </g>
   </g>
   <g id="matplotlib.axis_2">
    <g id="ytick_1">
     <g id="line2d_10">
      <defs>
       <path id="m20e713e3fe" d="M 0 0 
L -3.5 0 
" style="stroke: #000000; stroke-width: 0.8"/>
      </defs>
      <g>
       <use xlink:href="#m20e713e3fe" x="38.420552" y="381.782651" style="stroke: #000000; stroke-width: 0.8"/>
      </g>
     </g>
     <g id="text_11">
      <!-- −8 -->
      <g transform="translate(16.678365 385.58187) scale(0.1 -0.1)">
       <use xlink:href="#DejaVuSans-2212"/>
       <use xlink:href="#DejaVuSans-38" transform="translate(83.789062 0)"/>
      </g>
     </g>
    </g>
    <g id="ytick_2">
     <g id="line2d_11">
      <g>
       <use xlink:href="#m20e713e3fe" x="38.420552" y="338.432223" style="stroke: #000000; stroke-width: 0.8"/>
      </g>
     </g>
     <g id="text_12">
      <!-- −6 -->
      <g transform="translate(16.678365 342.231442) scale(0.1 -0.1)">
       <use xlink:href="#DejaVuSans-2212"/>
       <use xlink:href="#DejaVuSans-36" transform="translate(83.789062 0)"/>
      </g>
     </g>
    </g>
    <g id="ytick_3">
     <g id="line2d_12">
      <g>
       <use xlink:href="#m20e713e3fe" x="38.420552" y="295.081794" style="stroke: #000000; stroke-width: 0.8"/>
      </g>
     </g>
     <g id="text_13">
      <!-- −4 -->
      <g transform="translate(16.678365 298.881013) scale(0.1 -0.1)">
       <use xlink:href="#DejaVuSans-2212"/>
       <use xlink:href="#DejaVuSans-34" transform="translate(83.789062 0)"/>
      </g>
     </g>
    </g>
    <g id="ytick_4">
     <g id="line2d_13">
      <g>
       <use xlink:href="#m20e713e3fe" x="38.420552" y="251.731366" style="stroke: #000000; stroke-width: 0.8"/>
      </g>
     </g>
     <g id="text_14">
      <!-- −2 -->
      <g transform="translate(16.678365 255.530585) scale(0.1 -0.1)">
       <use xlink:href="#DejaVuSans-2212"/>
       <use xlink:href="#DejaVuSans-32" transform="translate(83.789062 0)"/>
      </g>
     </g>
    </g>
    <g id="ytick_5">
     <g id="line2d_14">
      <g>
       <use xlink:href="#m20e713e3fe" x="38.420552" y="208.380937" style="stroke: #000000; stroke-width: 0.8"/>
      </g>
     </g>
     <g id="text_15">
      <!-- 0 -->
      <g transform="translate(25.058052 212.180156) scale(0.1 -0.1)">
       <use xlink:href="#DejaVuSans-30"/>
      </g>
     </g>
    </g>
    <g id="ytick_6">
     <g id="line2d_15">
      <g>
       <use xlink:href="#m20e713e3fe" x="38.420552" y="165.030509" style="stroke: #000000; stroke-width: 0.8"/>
      </g>
     </g>
     <g id="text_16">
      <!-- 2 -->
      <g transform="translate(25.058052 168.829728) scale(0.1 -0.1)">
       <use xlink:href="#DejaVuSans-32"/>
      </g>
     </g>
    </g>
    <g id="ytick_7">
     <g id="line2d_16">
      <g>
       <use xlink:href="#m20e713e3fe" x="38.420552" y="121.680081" style="stroke: #000000; stroke-width: 0.8"/>
      </g>
     </g>
     <g id="text_17">
      <!-- 4 -->
      <g transform="translate(25.058052 125.479299) scale(0.1 -0.1)">
       <use xlink:href="#DejaVuSans-34"/>
      </g>
     </g>
    </g>
    <g id="ytick_8">
     <g id="line2d_17">
      <g>
       <use xlink:href="#m20e713e3fe" x="38.420552" y="78.329652" style="stroke: #000000; stroke-width: 0.8"/>
      </g>
     </g>
     <g id="text_18">
      <!-- 6 -->
      <g transform="translate(25.058052 82.128871) scale(0.1 -0.1)">
       <use xlink:href="#DejaVuSans-36"/>
      </g>
     </g>
    </g>
    <g id="ytick_9">
     <g id="line2d_18">
      <g>
       <use xlink:href="#m20e713e3fe" x="38.420552" y="34.979224" style="stroke: #000000; stroke-width: 0.8"/>
      </g>
     </g>
     <g id="text_19">
      <!-- 8 -->
      <g transform="translate(25.058052 38.778442) scale(0.1 -0.1)">
       <use xlink:href="#DejaVuSans-38"/>
      </g>
     </g>
    </g>
    <g id="text_20">
     <!-- µV -->
     <g transform="translate(10.598677 214.9825) rotate(-90) scale(0.1 -0.1)">
      <defs>
       <path id="DejaVuSans-b5" d="M 544 -1331 
L 544 3500 
L 1119 3500 
L 1119 1325 
Q 1119 872 1334 640 
Q 1550 409 1972 409 
Q 2434 409 2667 671 
Q 2900 934 2900 1459 
L 2900 3500 
L 3475 3500 
L 3475 806 
Q 3475 619 3529 530 
Q 3584 441 3700 441 
Q 3728 441 3778 458 
Q 3828 475 3916 513 
L 3916 50 
Q 3788 -22 3673 -56 
Q 3559 -91 3450 -91 
Q 3234 -91 3106 31 
Q 2978 153 2931 403 
Q 2775 156 2548 32 
Q 2322 -91 2016 -91 
Q 1697 -91 1473 31 
Q 1250 153 1119 397 
L 1119 -1331 
L 544 -1331 
z
" transform="scale(0.015625)"/>
       <path id="DejaVuSans-56" d="M 1831 0 
L 50 4666 
L 709 4666 
L 2188 738 
L 3669 4666 
L 4325 4666 
L 2547 0 
L 1831 0 
z
" transform="scale(0.015625)"/>
      </defs>
      <use xlink:href="#DejaVuSans-b5"/>
      <use xlink:href="#DejaVuSans-56" transform="translate(63.623047 0)"/>
     </g>
    </g>
   </g>
   <g id="patch_4">
    <path d="M 38.693039 398.64351 
L 561.866948 398.64351 
" style="fill: none; stroke: #000000; stroke-width: 0.8; stroke-linejoin: miter; stroke-linecap: square"/>
   </g>
   <g id="patch_5">
    <path d="M 38.420552 208.380937 
L 561.866948 208.380937 
" style="fill: none; stroke: #000000; stroke-width: 0.8; stroke-linejoin: miter; stroke-linecap: square"/>
   </g>
   <g id="text_21">
    <!-- Fz, FCz, Cz, CPz, Pz (median) -->
    <g transform="translate(213.356562 12.118365) scale(0.12 -0.12)">
     <defs>
      <path id="DejaVuSans-46" d="M 628 4666 
L 3309 4666 
L 3309 4134 
L 1259 4134 
L 1259 2759 
L 3109 2759 
L 3109 2228 
L 1259 2228 
L 1259 0 
L 628 0 
L 628 4666 
z
" transform="scale(0.015625)"/>
      <path id="DejaVuSans-7a" d="M 353 3500 
L 3084 3500 
L 3084 2975 
L 922 459 
L 3084 459 
L 3084 0 
L 275 0 
L 275 525 
L 2438 3041 
L 353 3041 
L 353 3500 
z
" transform="scale(0.015625)"/>
      <path id="DejaVuSans-2c" d="M 750 794 
L 1409 794 
L 1409 256 
L 897 -744 
L 494 -744 
L 750 256 
L 750 794 
z
" transform="scale(0.015625)"/>
      <path id="DejaVuSans-43" d="M 4122 4306 
L 4122 3641 
Q 3803 3938 3442 4084 
Q 3081 4231 2675 4231 
Q 1875 4231 1450 3742 
Q 1025 3253 1025 2328 
Q 1025 1406 1450 917 
Q 1875 428 2675 428 
Q 3081 428 3442 575 
Q 3803 722 4122 1019 
L 4122 359 
Q 3791 134 3420 21 
Q 3050 -91 2638 -91 
Q 1578 -91 968 557 
Q 359 1206 359 2328 
Q 359 3453 968 4101 
Q 1578 4750 2638 4750 
Q 3056 4750 3426 4639 
Q 3797 4528 4122 4306 
z
" transform="scale(0.015625)"/>
      <path id="DejaVuSans-50" d="M 1259 4147 
L 1259 2394 
L 2053 2394 
Q 2494 2394 2734 2622 
Q 2975 2850 2975 3272 
Q 2975 3691 2734 3919 
Q 2494 4147 2053 4147 
L 1259 4147 
z
M 628 4666 
L 2053 4666 
Q 2838 4666 3239 4311 
Q 3641 3956 3641 3272 
Q 3641 2581 3239 2228 
Q 2838 1875 2053 1875 
L 1259 1875 
L 1259 0 
L 628 0 
L 628 4666 
z
" transform="scale(0.015625)"/>
      <path id="DejaVuSans-64" d="M 2906 2969 
L 2906 4863 
L 3481 4863 
L 3481 0 
L 2906 0 
L 2906 525 
Q 2725 213 2448 61 
Q 2172 -91 1784 -91 
Q 1150 -91 751 415 
Q 353 922 353 1747 
Q 353 2572 751 3078 
Q 1150 3584 1784 3584 
Q 2172 3584 2448 3432 
Q 2725 3281 2906 2969 
z
M 947 1747 
Q 947 1113 1208 752 
Q 1469 391 1925 391 
Q 2381 391 2643 752 
Q 2906 1113 2906 1747 
Q 2906 2381 2643 2742 
Q 2381 3103 1925 3103 
Q 1469 3103 1208 2742 
Q 947 2381 947 1747 
z
" transform="scale(0.015625)"/>
      <path id="DejaVuSans-61" d="M 2194 1759 
Q 1497 1759 1228 1600 
Q 959 1441 959 1056 
Q 959 750 1161 570 
Q 1363 391 1709 391 
Q 2188 391 2477 730 
Q 2766 1069 2766 1631 
L 2766 1759 
L 2194 1759 
z
M 3341 1997 
L 3341 0 
L 2766 0 
L 2766 531 
Q 2569 213 2275 61 
Q 1981 -91 1556 -91 
Q 1019 -91 701 211 
Q 384 513 384 1019 
Q 384 1609 779 1909 
Q 1175 2209 1959 2209 
L 2766 2209 
L 2766 2266 
Q 2766 2663 2505 2880 
Q 2244 3097 1772 3097 
Q 1472 3097 1187 3025 
Q 903 2953 641 2809 
L 641 3341 
Q 956 3463 1253 3523 
Q 1550 3584 1831 3584 
Q 2591 3584 2966 3190 
Q 3341 2797 3341 1997 
z
" transform="scale(0.015625)"/>
      <path id="DejaVuSans-6e" d="M 3513 2113 
L 3513 0 
L 2938 0 
L 2938 2094 
Q 2938 2591 2744 2837 
Q 2550 3084 2163 3084 
Q 1697 3084 1428 2787 
Q 1159 2491 1159 1978 
L 1159 0 
L 581 0 
L 581 3500 
L 1159 3500 
L 1159 2956 
Q 1366 3272 1645 3428 
Q 1925 3584 2291 3584 
Q 2894 3584 3203 3211 
Q 3513 2838 3513 2113 
z
" transform="scale(0.015625)"/>
     </defs>
     <use xlink:href="#DejaVuSans-46"/>
     <use xlink:href="#DejaVuSans-7a" transform="translate(57.519531 0)"/>
     <use xlink:href="#DejaVuSans-2c" transform="translate(110.009766 0)"/>
     <use xlink:href="#DejaVuSans-20" transform="translate(141.796875 0)"/>
     <use xlink:href="#DejaVuSans-46" transform="translate(173.583984 0)"/>
     <use xlink:href="#DejaVuSans-43" transform="translate(231.103516 0)"/>
     <use xlink:href="#DejaVuSans-7a" transform="translate(300.927734 0)"/>
     <use xlink:href="#DejaVuSans-2c" transform="translate(353.417969 0)"/>
     <use xlink:href="#DejaVuSans-20" transform="translate(385.205078 0)"/>
     <use xlink:href="#DejaVuSans-43" transform="translate(416.992188 0)"/>
     <use xlink:href="#DejaVuSans-7a" transform="translate(486.816406 0)"/>
     <use xlink:href="#DejaVuSans-2c" transform="translate(539.306641 0)"/>
     <use xlink:href="#DejaVuSans-20" transform="translate(571.09375 0)"/>
     <use xlink:href="#DejaVuSans-43" transform="translate(602.880859 0)"/>
     <use xlink:href="#DejaVuSans-50" transform="translate(672.705078 0)"/>
     <use xlink:href="#DejaVuSans-7a" transform="translate(733.007812 0)"/>
     <use xlink:href="#DejaVuSans-2c" transform="translate(785.498047 0)"/>
     <use xlink:href="#DejaVuSans-20" transform="translate(817.285156 0)"/>
     <use xlink:href="#DejaVuSans-50" transform="translate(849.072266 0)"/>
     <use xlink:href="#DejaVuSans-7a" transform="translate(909.375 0)"/>
     <use xlink:href="#DejaVuSans-20" transform="translate(961.865234 0)"/>
     <use xlink:href="#DejaVuSans-28" transform="translate(993.652344 0)"/>
     <use xlink:href="#DejaVuSans-6d" transform="translate(1032.666016 0)"/>
     <use xlink:href="#DejaVuSans-65" transform="translate(1130.078125 0)"/>
     <use xlink:href="#DejaVuSans-64" transform="translate(1191.601562 0)"/>
     <use xlink:href="#DejaVuSans-69" transform="translate(1255.078125 0)"/>
     <use xlink:href="#DejaVuSans-61" transform="translate(1282.861328 0)"/>
     <use xlink:href="#DejaVuSans-6e" transform="translate(1344.140625 0)"/>
     <use xlink:href="#DejaVuSans-29" transform="translate(1407.519531 0)"/>
    </g>
   </g>
   <g id="legend_1">
    <g id="patch_6">
     <path d="M 45.420552 55.75274 
L 126.56274 55.75274 
Q 128.56274 55.75274 128.56274 53.75274 
L 128.56274 25.118365 
Q 128.56274 23.118365 126.56274 23.118365 
L 45.420552 23.118365 
Q 43.420552 23.118365 43.420552 25.118365 
L 43.420552 53.75274 
Q 43.420552 55.75274 45.420552 55.75274 
z
" style="fill: #ffffff; opacity: 0.8; stroke: #cccccc; stroke-linejoin: miter"/>
    </g>
    <g id="line2d_19">
     <path d="M 47.420552 31.216803 
L 57.420552 31.216803 
L 67.420552 31.216803 
" style="fill: none; stroke: #1f77b4; stroke-width: 1.5; stroke-linecap: square"/>
    </g>
    <g id="text_22">
     <!-- eerie -->
     <g transform="translate(75.420552 34.716803) scale(0.1 -0.1)">
      <defs>
       <path id="DejaVuSans-72" d="M 2631 2963 
Q 2534 3019 2420 3045 
Q 2306 3072 2169 3072 
Q 1681 3072 1420 2755 
Q 1159 2438 1159 1844 
L 1159 0 
L 581 0 
L 581 3500 
L 1159 3500 
L 1159 2956 
Q 1341 3275 1631 3429 
Q 1922 3584 2338 3584 
Q 2397 3584 2469 3576 
Q 2541 3569 2628 3553 
L 2631 2963 
z
" transform="scale(0.015625)"/>
      </defs>
      <use xlink:href="#DejaVuSans-65"/>
      <use xlink:href="#DejaVuSans-65" transform="translate(61.523438 0)"/>
      <use xlink:href="#DejaVuSans-72" transform="translate(123.046875 0)"/>
      <use xlink:href="#DejaVuSans-69" transform="translate(164.160156 0)"/>
      <use xlink:href="#DejaVuSans-65" transform="translate(191.943359 0)"/>
     </g>
    </g>
    <g id="line2d_20">
     <path d="M 47.420552 45.894928 
L 57.420552 45.894928 
L 67.420552 45.894928 
" style="fill: none; stroke: #ff7f0e; stroke-width: 1.5; stroke-linecap: square"/>
    </g>
    <g id="text_23">
     <!-- non_eerie -->
     <g transform="translate(75.420552 49.394928) scale(0.1 -0.1)">
      <defs>
       <path id="DejaVuSans-6f" d="M 1959 3097 
Q 1497 3097 1228 2736 
Q 959 2375 959 1747 
Q 959 1119 1226 758 
Q 1494 397 1959 397 
Q 2419 397 2687 759 
Q 2956 1122 2956 1747 
Q 2956 2369 2687 2733 
Q 2419 3097 1959 3097 
z
M 1959 3584 
Q 2709 3584 3137 3096 
Q 3566 2609 3566 1747 
Q 3566 888 3137 398 
Q 2709 -91 1959 -91 
Q 1206 -91 779 398 
Q 353 888 353 1747 
Q 353 2609 779 3096 
Q 1206 3584 1959 3584 
z
" transform="scale(0.015625)"/>
       <path id="DejaVuSans-5f" d="M 3263 -1063 
L 3263 -1509 
L -63 -1509 
L -63 -1063 
L 3263 -1063 
z
" transform="scale(0.015625)"/>
      </defs>
      <use xlink:href="#DejaVuSans-6e"/>
      <use xlink:href="#DejaVuSans-6f" transform="translate(63.378906 0)"/>
      <use xlink:href="#DejaVuSans-6e" transform="translate(124.560547 0)"/>
      <use xlink:href="#DejaVuSans-5f" transform="translate(187.939453 0)"/>
      <use xlink:href="#DejaVuSans-65" transform="translate(237.939453 0)"/>
      <use xlink:href="#DejaVuSans-65" transform="translate(299.462891 0)"/>
      <use xlink:href="#DejaVuSans-72" transform="translate(360.986328 0)"/>
      <use xlink:href="#DejaVuSans-69" transform="translate(402.099609 0)"/>
      <use xlink:href="#DejaVuSans-65" transform="translate(429.882812 0)"/>
     </g>
    </g>
   </g>
   <g id="FillBetweenPolyCollection_1">
    <defs>
     <path id="ma7e8926b0b" d="M 38.420552 -268.933658 
L 38.420552 -250.76923 
L 40.123593 -254.633356 
L 41.826633 -254.903326 
L 43.529673 -251.577259 
L 45.232713 -246.26136 
L 46.935753 -242.075691 
L 48.638793 -240.061042 
L 50.341833 -239.520409 
L 52.044873 -238.611228 
L 53.747913 -235.627153 
L 55.450953 -232.720484 
L 57.153993 -229.729437 
L 58.857033 -226.975883 
L 60.560073 -224.052922 
L 62.263113 -220.682908 
L 63.966154 -217.413561 
L 65.669194 -212.878207 
L 67.372234 -207.816536 
L 69.075274 -202.831008 
L 70.778314 -198.731277 
L 72.481354 -197.183469 
L 74.184394 -196.572301 
L 75.887434 -198.053144 
L 77.590474 -201.587705 
L 79.293514 -207.922678 
L 80.996554 -216.337222 
L 82.699594 -222.656216 
L 84.402634 -223.518726 
L 86.105674 -220.808413 
L 87.808714 -215.511928 
L 89.511755 -212.199292 
L 91.214795 -213.773349 
L 92.917835 -222.090216 
L 94.620875 -232.190095 
L 96.323915 -238.049809 
L 98.026955 -234.644486 
L 99.729995 -222.464609 
L 101.433035 -206.784444 
L 103.136075 -194.14937 
L 104.839115 -188.723394 
L 106.542155 -191.387384 
L 108.245195 -196.185905 
L 109.948235 -197.451106 
L 111.651275 -192.761755 
L 113.354315 -183.596815 
L 115.057356 -175.160543 
L 116.760396 -173.655313 
L 118.463436 -181.140378 
L 120.166476 -194.533033 
L 121.869516 -205.693439 
L 123.572556 -210.981527 
L 125.275596 -208.209596 
L 126.978636 -201.462976 
L 128.681676 -196.316246 
L 130.384716 -195.687362 
L 132.087756 -197.197911 
L 133.790796 -198.967755 
L 135.493836 -196.549548 
L 137.196876 -190.004933 
L 138.899916 -183.027758 
L 140.602957 -179.233648 
L 142.305997 -179.372858 
L 144.009037 -182.097244 
L 145.712077 -183.705001 
L 147.415117 -183.612827 
L 149.118157 -182.916399 
L 150.821197 -184.607751 
L 152.524237 -190.614217 
L 154.227277 -197.259672 
L 155.930317 -202.01129 
L 157.633357 -201.089879 
L 159.336397 -193.443934 
L 161.039437 -183.658453 
L 162.742477 -176.854729 
L 164.445517 -175.79633 
L 166.148558 -179.799006 
L 167.851598 -183.66727 
L 169.554638 -184.248556 
L 171.257678 -179.68851 
L 172.960718 -172.625101 
L 174.663758 -165.980923 
L 176.366798 -162.75973 
L 178.069838 -162.130878 
L 179.772878 -163.973212 
L 181.475918 -165.773433 
L 183.178958 -168.135978 
L 184.881998 -171.250889 
L 186.585038 -176.238123 
L 188.288078 -180.193626 
L 189.991118 -183.943312 
L 191.694159 -187.364742 
L 193.397199 -190.077572 
L 195.100239 -195.003441 
L 196.803279 -201.685926 
L 198.506319 -209.159485 
L 200.209359 -214.512121 
L 201.912399 -214.962329 
L 203.615439 -210.270968 
L 205.318479 -205.666029 
L 207.021519 -204.905848 
L 208.724559 -211.727469 
L 210.427599 -226.006356 
L 212.130639 -243.958952 
L 213.833679 -258.718085 
L 215.536719 -268.450323 
L 217.23976 -272.494435 
L 218.9428 -272.63066 
L 220.64584 -275.428897 
L 222.34888 -282.174274 
L 224.05192 -294.347277 
L 225.75496 -307.960915 
L 227.458 -321.075917 
L 229.16104 -329.721769 
L 230.86408 -333.144607 
L 232.56712 -331.294288 
L 234.27016 -325.452595 
L 235.9732 -318.720212 
L 237.67624 -313.491144 
L 239.37928 -308.791083 
L 241.08232 -304.223241 
L 242.785361 -296.62818 
L 244.488401 -284.469763 
L 246.191441 -269.005246 
L 247.894481 -252.467384 
L 249.597521 -237.180885 
L 251.300561 -225.8327 
L 253.003601 -219.854774 
L 254.706641 -216.522755 
L 256.409681 -214.028349 
L 258.112721 -211.436031 
L 259.815761 -206.787752 
L 261.518801 -200.667655 
L 263.221841 -196.66707 
L 264.924881 -191.767583 
L 266.627921 -189.286238 
L 268.330962 -188.821742 
L 270.034002 -189.168978 
L 271.737042 -189.845484 
L 273.440082 -188.074951 
L 275.143122 -184.060494 
L 276.846162 -181.600974 
L 278.549202 -180.234802 
L 280.252242 -180.953747 
L 281.955282 -182.738994 
L 283.658322 -184.287097 
L 285.361362 -186.791767 
L 287.064402 -190.889233 
L 288.767442 -195.961007 
L 290.470482 -202.701834 
L 292.173522 -208.102274 
L 293.876563 -212.609717 
L 295.579603 -214.669811 
L 297.282643 -215.471064 
L 298.985683 -216.048696 
L 300.688723 -217.880215 
L 302.391763 -221.367229 
L 304.094803 -225.961703 
L 305.797843 -232.039013 
L 307.500883 -237.662563 
L 309.203923 -241.682931 
L 310.906963 -244.144967 
L 312.610003 -247.960136 
L 314.313043 -254.48121 
L 316.016083 -264.267163 
L 317.719123 -276.063028 
L 319.422164 -289.784227 
L 321.125204 -301.351839 
L 322.828244 -311.132646 
L 324.531284 -318.344981 
L 326.234324 -327.210113 
L 327.937364 -335.530164 
L 329.640404 -341.899564 
L 331.343444 -348.265566 
L 333.046484 -352.963514 
L 334.749524 -356.525754 
L 336.452564 -360.260013 
L 338.155604 -364.593523 
L 339.858644 -369.04253 
L 341.561684 -372.559599 
L 343.264724 -374.725 
L 344.967765 -376.205102 
L 346.670805 -377.098332 
L 348.373845 -378.281029 
L 350.076885 -379.353765 
L 351.779925 -380.29853 
L 353.482965 -380.912556 
L 355.186005 -381.709059 
L 356.889045 -383.474851 
L 358.592085 -385.749896 
L 360.295125 -387.082521 
L 361.998165 -387.107642 
L 363.701205 -385.261947 
L 365.404245 -382.568906 
L 367.107285 -379.747615 
L 368.810326 -378.881398 
L 370.513366 -379.927626 
L 372.216406 -380.844553 
L 373.919446 -379.322683 
L 375.622486 -373.361244 
L 377.325526 -363.645311 
L 379.028566 -354.352096 
L 380.731606 -348.083985 
L 382.434646 -347.816897 
L 384.137686 -351.145259 
L 385.840726 -354.193944 
L 387.543766 -353.271034 
L 389.246806 -347.182804 
L 390.949846 -340.467853 
L 392.652886 -338.125994 
L 394.355927 -342.484492 
L 396.058967 -352.781402 
L 397.762007 -362.126909 
L 399.465047 -365.14825 
L 401.168087 -360.536108 
L 402.871127 -351.421734 
L 404.574167 -342.190383 
L 406.277207 -338.439601 
L 407.980247 -342.223388 
L 409.683287 -349.3016 
L 411.386327 -353.544742 
L 413.089367 -353.129524 
L 414.792407 -348.64112 
L 416.495447 -343.993089 
L 418.198487 -343.119416 
L 419.901528 -345.904201 
L 421.604568 -348.36871 
L 423.307608 -346.570004 
L 425.010648 -339.535076 
L 426.713688 -330.203596 
L 428.416728 -323.179475 
L 430.119768 -322.043343 
L 431.822808 -326.130186 
L 433.525848 -331.508976 
L 435.228888 -335.142037 
L 436.931928 -333.589222 
L 438.634968 -328.945731 
L 440.338008 -322.282279 
L 442.041048 -316.644285 
L 443.744088 -313.180467 
L 445.447129 -309.995995 
L 447.150169 -305.387574 
L 448.853209 -298.024255 
L 450.556249 -289.990332 
L 452.259289 -282.869448 
L 453.962329 -278.138531 
L 455.665369 -276.368619 
L 457.368409 -276.089326 
L 459.071449 -275.672793 
L 460.774489 -272.4074 
L 462.477529 -268.415307 
L 464.180569 -265.38885 
L 465.883609 -265.157507 
L 467.586649 -268.391651 
L 469.289689 -273.569816 
L 470.99273 -278.056885 
L 472.69577 -279.359582 
L 474.39881 -276.175693 
L 476.10185 -269.856403 
L 477.80489 -262.593428 
L 479.50793 -258.32048 
L 481.21097 -257.204634 
L 482.91401 -258.972016 
L 484.61705 -261.923058 
L 486.32009 -263.049033 
L 488.02313 -260.666372 
L 489.72617 -254.8296 
L 491.42921 -247.057268 
L 493.13225 -238.861969 
L 494.83529 -231.479608 
L 496.538331 -224.979317 
L 498.241371 -221.766854 
L 499.944411 -219.944489 
L 501.647451 -219.839966 
L 503.350491 -221.664001 
L 505.053531 -223.186249 
L 506.756571 -226.630163 
L 508.459611 -228.015515 
L 510.162651 -225.49943 
L 511.865691 -222.649558 
L 513.568731 -219.849864 
L 515.271771 -217.934508 
L 516.974811 -218.369816 
L 518.677851 -222.122772 
L 520.380891 -227.434635 
L 522.083932 -232.850245 
L 523.786972 -234.729502 
L 525.490012 -233.638616 
L 527.193052 -230.19285 
L 528.896092 -226.983749 
L 530.599132 -224.74033 
L 532.302172 -225.0037 
L 534.005212 -227.657013 
L 535.708252 -230.406832 
L 537.411292 -230.074628 
L 539.114332 -227.712197 
L 540.817372 -224.497962 
L 542.520412 -222.39342 
L 544.223452 -222.411451 
L 545.926492 -224.699554 
L 547.629533 -228.20348 
L 549.332573 -230.475977 
L 551.035613 -230.660588 
L 552.738653 -229.765191 
L 554.441693 -228.907344 
L 556.144733 -229.560766 
L 557.847773 -230.631075 
L 559.550813 -230.622931 
L 561.253853 -227.994986 
L 561.253853 -259.583053 
L 561.253853 -259.583053 
L 559.550813 -261.959949 
L 557.847773 -261.778186 
L 556.144733 -260.686069 
L 554.441693 -260.52395 
L 552.738653 -261.347777 
L 551.035613 -261.854459 
L 549.332573 -261.156709 
L 547.629533 -257.734019 
L 545.926492 -252.90842 
L 544.223452 -249.879259 
L 542.520412 -250.076958 
L 540.817372 -253.015394 
L 539.114332 -256.05701 
L 537.411292 -257.228765 
L 535.708252 -255.340919 
L 534.005212 -250.931461 
L 532.302172 -247.576358 
L 530.599132 -246.710879 
L 528.896092 -249.348501 
L 527.193052 -253.716595 
L 525.490012 -257.824965 
L 523.786972 -259.107581 
L 522.083932 -256.885521 
L 520.380891 -251.239913 
L 518.677851 -246.204707 
L 516.974811 -243.776409 
L 515.271771 -244.616581 
L 513.568731 -248.080401 
L 511.865691 -251.439226 
L 510.162651 -254.175525 
L 508.459611 -255.30346 
L 506.756571 -254.674317 
L 505.053531 -253.647669 
L 503.350491 -253.596824 
L 501.647451 -252.710923 
L 499.944411 -251.705775 
L 498.241371 -253.078162 
L 496.538331 -255.631669 
L 494.83529 -261.333742 
L 493.13225 -268.263255 
L 491.42921 -277.116736 
L 489.72617 -285.879866 
L 488.02313 -292.015434 
L 486.32009 -293.870309 
L 484.61705 -292.118493 
L 482.91401 -289.123277 
L 481.21097 -287.577194 
L 479.50793 -289.57424 
L 477.80489 -295.174117 
L 476.10185 -302.141737 
L 474.39881 -307.791873 
L 472.69577 -310.12169 
L 470.99273 -309.220383 
L 469.289689 -304.670969 
L 467.586649 -299.234525 
L 465.883609 -296.03395 
L 464.180569 -296.080205 
L 462.477529 -298.611278 
L 460.774489 -301.271369 
L 459.071449 -304.250132 
L 457.368409 -305.397856 
L 455.665369 -306.540653 
L 453.962329 -308.828183 
L 452.259289 -313.628737 
L 450.556249 -321.22704 
L 448.853209 -329.006659 
L 447.150169 -335.958635 
L 445.447129 -340.176416 
L 443.744088 -343.54998 
L 442.041048 -347.851005 
L 440.338008 -354.125365 
L 438.634968 -360.726181 
L 436.931928 -365.138139 
L 435.228888 -365.524983 
L 433.525848 -361.208872 
L 431.822808 -354.939467 
L 430.119768 -350.699245 
L 428.416728 -352.13282 
L 426.713688 -358.621029 
L 425.010648 -367.358068 
L 423.307608 -374.072328 
L 421.604568 -375.907994 
L 419.901528 -373.352237 
L 418.198487 -370.449011 
L 416.495447 -371.394843 
L 414.792407 -376.17243 
L 413.089367 -380.518991 
L 411.386327 -380.909492 
L 409.683287 -376.955038 
L 407.980247 -370.419521 
L 406.277207 -367.895804 
L 404.574167 -372.783758 
L 402.871127 -383.053834 
L 401.168087 -392.693773 
L 399.465047 -396.147041 
L 397.762007 -391.273575 
L 396.058967 -380.613043 
L 394.355927 -371.008067 
L 392.652886 -367.350239 
L 390.949846 -370.824093 
L 389.246806 -379.252648 
L 387.543766 -385.64553 
L 385.840726 -385.808373 
L 384.137686 -381.509856 
L 382.434646 -376.552503 
L 380.731606 -375.952457 
L 379.028566 -382.724512 
L 377.325526 -393.03663 
L 375.622486 -402.709342 
L 373.919446 -408.428307 
L 372.216406 -410.290727 
L 370.513366 -408.657796 
L 368.810326 -407.050947 
L 367.107285 -407.653563 
L 365.404245 -409.663775 
L 363.701205 -412.249982 
L 361.998165 -413.372508 
L 360.295125 -413.881635 
L 358.592085 -412.901172 
L 356.889045 -411.688574 
L 355.186005 -410.94058 
L 353.482965 -410.094417 
L 351.779925 -408.897755 
L 350.076885 -407.507338 
L 348.373845 -406.329096 
L 346.670805 -405.142627 
L 344.967765 -404.796972 
L 343.264724 -403.985218 
L 341.561684 -403.425567 
L 339.858644 -400.786541 
L 338.155604 -396.460187 
L 336.452564 -392.603395 
L 334.749524 -388.363816 
L 333.046484 -383.235349 
L 331.343444 -377.69758 
L 329.640404 -371.561582 
L 327.937364 -364.696382 
L 326.234324 -356.832578 
L 324.531284 -347.86197 
L 322.828244 -340.009523 
L 321.125204 -329.228559 
L 319.422164 -317.587677 
L 317.719123 -304.143532 
L 316.016083 -292.183748 
L 314.313043 -281.344307 
L 312.610003 -274.114612 
L 310.906963 -269.77724 
L 309.203923 -267.047988 
L 307.500883 -262.507317 
L 305.797843 -256.646148 
L 304.094803 -250.433869 
L 302.391763 -245.639443 
L 300.688723 -242.786698 
L 298.985683 -241.099652 
L 297.282643 -240.60834 
L 295.579603 -238.952947 
L 293.876563 -236.036458 
L 292.173522 -230.585971 
L 290.470482 -225.474544 
L 288.767442 -219.134803 
L 287.064402 -214.606374 
L 285.361362 -212.317638 
L 283.658322 -211.15446 
L 281.955282 -208.51511 
L 280.252242 -205.634255 
L 278.549202 -205.235519 
L 276.846162 -206.325316 
L 275.143122 -209.370815 
L 273.440082 -212.710804 
L 271.737042 -214.973335 
L 270.034002 -214.67057 
L 268.330962 -214.241296 
L 266.627921 -214.921588 
L 264.924881 -217.591156 
L 263.221841 -223.120165 
L 261.518801 -228.183971 
L 259.815761 -234.375334 
L 258.112721 -238.662945 
L 256.409681 -241.145872 
L 254.706641 -243.054571 
L 253.003601 -246.512817 
L 251.300561 -252.692654 
L 249.597521 -264.253104 
L 247.894481 -279.369356 
L 246.191441 -296.13545 
L 244.488401 -310.9654 
L 242.785361 -323.373916 
L 241.08232 -330.392456 
L 239.37928 -334.959336 
L 237.67624 -338.891749 
L 235.9732 -343.881464 
L 234.27016 -350.853098 
L 232.56712 -357.344745 
L 230.86408 -359.607201 
L 229.16104 -355.90843 
L 227.458 -346.040797 
L 225.75496 -331.755244 
L 224.05192 -317.72035 
L 222.34888 -306.515907 
L 220.64584 -301.446206 
L 218.9428 -299.668872 
L 217.23976 -299.690042 
L 215.536719 -294.9929 
L 213.833679 -284.367888 
L 212.130639 -267.650102 
L 210.427599 -249.309911 
L 208.724559 -235.383878 
L 207.021519 -229.604454 
L 205.318479 -231.668888 
L 203.615439 -237.222016 
L 201.912399 -242.08779 
L 200.209359 -241.844631 
L 198.506319 -236.095668 
L 196.803279 -227.596022 
L 195.100239 -220.076622 
L 193.397199 -215.006543 
L 191.694159 -211.809368 
L 189.991118 -208.543076 
L 188.288078 -204.607401 
L 186.585038 -200.172252 
L 184.881998 -195.797848 
L 183.178958 -193.188362 
L 181.475918 -191.434329 
L 179.772878 -189.300788 
L 178.069838 -186.732899 
L 176.366798 -187.093456 
L 174.663758 -190.594229 
L 172.960718 -198.342611 
L 171.257678 -205.613377 
L 169.554638 -209.463468 
L 167.851598 -207.618611 
L 166.148558 -202.669707 
L 164.445517 -198.06818 
L 162.742477 -199.598225 
L 161.039437 -207.300704 
L 159.336397 -217.795411 
L 157.633357 -225.327706 
L 155.930317 -225.625273 
L 154.227277 -220.30418 
L 152.524237 -213.912431 
L 150.821197 -208.622242 
L 149.118157 -207.384388 
L 147.415117 -208.244129 
L 145.712077 -208.290591 
L 144.009037 -205.595718 
L 142.305997 -202.688358 
L 140.602957 -202.504741 
L 138.899916 -206.298969 
L 137.196876 -213.722663 
L 135.493836 -220.424577 
L 133.790796 -222.051294 
L 132.087756 -219.314681 
L 130.384716 -217.077085 
L 128.681676 -217.000592 
L 126.978636 -221.539453 
L 125.275596 -227.747052 
L 123.572556 -229.651337 
L 121.869516 -223.341861 
L 120.166476 -212.198639 
L 118.463436 -199.392648 
L 116.760396 -191.96999 
L 115.057356 -193.825589 
L 113.354315 -202.431185 
L 111.651275 -212.220739 
L 109.948235 -216.848616 
L 108.245195 -214.941583 
L 106.542155 -209.717271 
L 104.839115 -206.536017 
L 103.136075 -210.331781 
L 101.433035 -221.821553 
L 99.729995 -237.270414 
L 98.026955 -250.237608 
L 96.323915 -254.22885 
L 94.620875 -248.547222 
L 92.917835 -238.896434 
L 91.214795 -230.403938 
L 89.511755 -227.525638 
L 87.808714 -230.244106 
L 86.105674 -235.441894 
L 84.402634 -238.226259 
L 82.699594 -236.430006 
L 80.996554 -230.177584 
L 79.293514 -223.226335 
L 77.590474 -218.123121 
L 75.887434 -215.040709 
L 74.184394 -214.36065 
L 72.481354 -213.940126 
L 70.778314 -214.751257 
L 69.075274 -217.72089 
L 67.372234 -222.534314 
L 65.669194 -228.481203 
L 63.966154 -233.595921 
L 62.263113 -237.339798 
L 60.560073 -240.450665 
L 58.857033 -243.865693 
L 57.153993 -248.724028 
L 55.450953 -253.91043 
L 53.747913 -257.936512 
L 52.044873 -259.860388 
L 50.341833 -259.816987 
L 48.638793 -259.698021 
L 46.935753 -259.852114 
L 45.232713 -263.283064 
L 43.529673 -268.656575 
L 41.826633 -272.752772 
L 40.123593 -273.208473 
L 38.420552 -268.933658 
z
" style="stroke: #1f77b4; stroke-opacity: 0.3"/>
    </defs>
    <g>
     <use xlink:href="#ma7e8926b0b" x="0" y="432" style="fill: #1f77b4; fill-opacity: 0.3; stroke: #1f77b4; stroke-opacity: 0.3"/>
    </g>
   </g>
   <g id="FillBetweenPolyCollection_2">
    <defs>
     <path id="mc211bbcccf" d="M 38.420552 -240.9422 
L 38.420552 -235.347612 
L 40.123593 -232.413049 
L 41.826633 -231.401768 
L 43.529673 -232.851913 
L 45.232713 -235.607436 
L 46.935753 -238.228558 
L 48.638793 -239.96366 
L 50.341833 -241.209953 
L 52.044873 -241.460053 
L 53.747913 -241.387673 
L 55.450953 -240.706412 
L 57.153993 -238.989016 
L 58.857033 -235.96947 
L 60.560073 -232.446549 
L 62.263113 -229.300758 
L 63.966154 -226.893181 
L 65.669194 -225.816243 
L 67.372234 -225.661201 
L 69.075274 -225.273753 
L 70.778314 -223.804754 
L 72.481354 -220.826711 
L 74.184394 -216.802822 
L 75.887434 -213.151118 
L 77.590474 -210.946482 
L 79.293514 -210.848726 
L 80.996554 -212.909126 
L 82.699594 -216.378402 
L 84.402634 -219.732177 
L 86.105674 -222.000596 
L 87.808714 -223.042949 
L 89.511755 -223.247317 
L 91.214795 -222.888645 
L 92.917835 -222.614746 
L 94.620875 -221.889431 
L 96.323915 -220.395834 
L 98.026955 -217.681338 
L 99.729995 -214.080741 
L 101.433035 -210.664224 
L 103.136075 -208.584064 
L 104.839115 -208.134831 
L 106.542155 -208.347908 
L 108.245195 -208.59563 
L 109.948235 -207.594899 
L 111.651275 -205.954583 
L 113.354315 -204.467026 
L 115.057356 -204.455546 
L 116.760396 -206.915991 
L 118.463436 -210.641505 
L 120.166476 -214.142041 
L 121.869516 -215.534679 
L 123.572556 -214.305175 
L 125.275596 -210.79202 
L 126.978636 -205.866645 
L 128.681676 -200.76373 
L 130.384716 -196.280653 
L 132.087756 -192.736041 
L 133.790796 -190.364146 
L 135.493836 -188.795771 
L 137.196876 -187.69349 
L 138.899916 -186.217185 
L 140.602957 -183.913776 
L 142.305997 -180.505435 
L 144.009037 -176.589101 
L 145.712077 -173.026859 
L 147.415117 -171.038221 
L 149.118157 -170.631299 
L 150.821197 -171.704124 
L 152.524237 -173.833812 
L 154.227277 -176.530799 
L 155.930317 -179.92453 
L 157.633357 -184.155058 
L 159.336397 -188.860358 
L 161.039437 -193.228809 
L 162.742477 -195.828821 
L 164.445517 -195.282429 
L 166.148558 -191.88148 
L 167.851598 -186.80184 
L 169.554638 -182.19518 
L 171.257678 -179.498394 
L 172.960718 -178.856374 
L 174.663758 -179.483364 
L 176.366798 -179.60084 
L 178.069838 -178.400103 
L 179.772878 -176.811634 
L 181.475918 -176.825705 
L 183.178958 -180.211188 
L 184.881998 -186.505699 
L 186.585038 -194.550899 
L 188.288078 -202.956887 
L 189.991118 -210.837464 
L 191.694159 -218.40858 
L 193.397199 -227.128092 
L 195.100239 -237.266468 
L 196.803279 -248.088511 
L 198.506319 -257.508377 
L 200.209359 -263.350292 
L 201.912399 -264.617424 
L 203.615439 -261.879501 
L 205.318479 -258.131975 
L 207.021519 -256.419007 
L 208.724559 -259.484807 
L 210.427599 -267.131822 
L 212.130639 -278.286052 
L 213.833679 -290.354331 
L 215.536719 -299.859905 
L 217.23976 -305.46264 
L 218.9428 -309.083669 
L 220.64584 -312.664355 
L 222.34888 -318.588284 
L 224.05192 -326.120899 
L 225.75496 -332.943393 
L 227.458 -337.86669 
L 229.16104 -340.395255 
L 230.86408 -341.068565 
L 232.56712 -340.758347 
L 234.27016 -339.6867 
L 235.9732 -337.331954 
L 237.67624 -333.52624 
L 239.37928 -328.158796 
L 241.08232 -321.35882 
L 242.785361 -313.720886 
L 244.488401 -305.697791 
L 246.191441 -297.00595 
L 247.894481 -287.939683 
L 249.597521 -277.79894 
L 251.300561 -266.891757 
L 253.003601 -255.514872 
L 254.706641 -244.625789 
L 256.409681 -235.001241 
L 258.112721 -227.374805 
L 259.815761 -221.571048 
L 261.518801 -217.634908 
L 263.221841 -214.348941 
L 264.924881 -211.168331 
L 266.627921 -208.337519 
L 268.330962 -206.458504 
L 270.034002 -205.832551 
L 271.737042 -206.235761 
L 273.440082 -207.073268 
L 275.143122 -207.370789 
L 276.846162 -206.57042 
L 278.549202 -205.196219 
L 280.252242 -205.047111 
L 281.955282 -206.725769 
L 283.658322 -209.084814 
L 285.361362 -210.935231 
L 287.064402 -211.518955 
L 288.767442 -211.401235 
L 290.470482 -212.746083 
L 292.173522 -217.167441 
L 293.876563 -225.565358 
L 295.579603 -236.932559 
L 297.282643 -249.134729 
L 298.985683 -259.716562 
L 300.688723 -267.243156 
L 302.391763 -272.461398 
L 304.094803 -276.68229 
L 305.797843 -282.122468 
L 307.500883 -289.494896 
L 309.203923 -298.052848 
L 310.906963 -306.013725 
L 312.610003 -311.339213 
L 314.313043 -313.544864 
L 316.016083 -312.787741 
L 317.719123 -310.20828 
L 319.422164 -308.020817 
L 321.125204 -307.379072 
L 322.828244 -308.450155 
L 324.531284 -310.802516 
L 326.234324 -313.56237 
L 327.937364 -315.154248 
L 329.640404 -314.877893 
L 331.343444 -312.663573 
L 333.046484 -309.351288 
L 334.749524 -306.837151 
L 336.452564 -306.451597 
L 338.155604 -308.316169 
L 339.858644 -311.541265 
L 341.561684 -314.494646 
L 343.264724 -315.681743 
L 344.967765 -315.008704 
L 346.670805 -313.345519 
L 348.373845 -311.856563 
L 350.076885 -312.048966 
L 351.779925 -313.86175 
L 353.482965 -316.338254 
L 355.186005 -318.110072 
L 356.889045 -317.761118 
L 358.592085 -315.079002 
L 360.295125 -310.579634 
L 361.998165 -305.319419 
L 363.701205 -301.218673 
L 365.404245 -299.939663 
L 367.107285 -301.895287 
L 368.810326 -306.954325 
L 370.513366 -313.317848 
L 372.216406 -319.124457 
L 373.919446 -322.491279 
L 375.622486 -322.828864 
L 377.325526 -321.243434 
L 379.028566 -319.583644 
L 380.731606 -319.240473 
L 382.434646 -321.062066 
L 384.137686 -324.206824 
L 385.840726 -326.802892 
L 387.543766 -327.738831 
L 389.246806 -326.811471 
L 390.949846 -325.108709 
L 392.652886 -324.076171 
L 394.355927 -324.723068 
L 396.058967 -327.049357 
L 397.762007 -330.048894 
L 399.465047 -332.048148 
L 401.168087 -332.095881 
L 402.871127 -330.358255 
L 404.574167 -327.634998 
L 406.277207 -325.234165 
L 407.980247 -324.328674 
L 409.683287 -325.102918 
L 411.386327 -327.219581 
L 413.089367 -329.870646 
L 414.792407 -332.077362 
L 416.495447 -333.16009 
L 418.198487 -332.902056 
L 419.901528 -331.854358 
L 421.604568 -330.564749 
L 423.307608 -329.669525 
L 425.010648 -329.992786 
L 426.713688 -331.219512 
L 428.416728 -332.474406 
L 430.119768 -332.715411 
L 431.822808 -331.536845 
L 433.525848 -328.830103 
L 435.228888 -325.61283 
L 436.931928 -323.692104 
L 438.634968 -323.272459 
L 440.338008 -324.051006 
L 442.041048 -324.929637 
L 443.744088 -324.071596 
L 445.447129 -321.205423 
L 447.150169 -317.63591 
L 448.853209 -314.510113 
L 450.556249 -313.343101 
L 452.259289 -313.980324 
L 453.962329 -315.379255 
L 455.665369 -315.731192 
L 457.368409 -313.913973 
L 459.071449 -309.942184 
L 460.774489 -304.589283 
L 462.477529 -299.742176 
L 464.180569 -296.485483 
L 465.883609 -294.685191 
L 467.586649 -293.87432 
L 469.289689 -293.36538 
L 470.99273 -292.277286 
L 472.69577 -290.642527 
L 474.39881 -289.278641 
L 476.10185 -288.580536 
L 477.80489 -288.573215 
L 479.50793 -288.964838 
L 481.21097 -289.329972 
L 482.91401 -289.146295 
L 484.61705 -288.807388 
L 486.32009 -288.124563 
L 488.02313 -287.562339 
L 489.72617 -286.956726 
L 491.42921 -285.824049 
L 493.13225 -283.644736 
L 494.83529 -281.01217 
L 496.538331 -278.137686 
L 498.241371 -275.622171 
L 499.944411 -273.956936 
L 501.647451 -273.116837 
L 503.350491 -272.891852 
L 505.053531 -272.873958 
L 506.756571 -272.727028 
L 508.459611 -272.542174 
L 510.162651 -272.055346 
L 511.865691 -271.186394 
L 513.568731 -269.971548 
L 515.271771 -268.826324 
L 516.974811 -268.189898 
L 518.677851 -268.463813 
L 520.380891 -270.486768 
L 522.083932 -273.756238 
L 523.786972 -277.345719 
L 525.490012 -280.302852 
L 527.193052 -281.79244 
L 528.896092 -282.068821 
L 530.599132 -281.516325 
L 532.302172 -280.938227 
L 534.005212 -280.789043 
L 535.708252 -280.88969 
L 537.411292 -280.728949 
L 539.114332 -280.178841 
L 540.817372 -279.370561 
L 542.520412 -278.89862 
L 544.223452 -279.190898 
L 545.926492 -280.412613 
L 547.629533 -282.103671 
L 549.332573 -283.971294 
L 551.035613 -285.447505 
L 552.738653 -286.018947 
L 554.441693 -285.670366 
L 556.144733 -284.401119 
L 557.847773 -282.681056 
L 559.550813 -280.739161 
L 561.253853 -279.482329 
L 561.253853 -287.583803 
L 561.253853 -287.583803 
L 559.550813 -288.909575 
L 557.847773 -290.595099 
L 556.144733 -292.362238 
L 554.441693 -293.659176 
L 552.738653 -293.951414 
L 551.035613 -293.366485 
L 549.332573 -292.009114 
L 547.629533 -290.033102 
L 545.926492 -287.951217 
L 544.223452 -286.397217 
L 542.520412 -285.981424 
L 540.817372 -286.405485 
L 539.114332 -287.241487 
L 537.411292 -287.86265 
L 535.708252 -288.13935 
L 534.005212 -288.269891 
L 532.302172 -288.469664 
L 530.599132 -288.992058 
L 528.896092 -289.508451 
L 527.193052 -289.416599 
L 525.490012 -288.12447 
L 523.786972 -285.412037 
L 522.083932 -281.876069 
L 520.380891 -278.663337 
L 518.677851 -276.687998 
L 516.974811 -276.328724 
L 515.271771 -276.964055 
L 513.568731 -278.094357 
L 511.865691 -279.171027 
L 510.162651 -280.147589 
L 508.459611 -280.670538 
L 506.756571 -280.830718 
L 505.053531 -281.008637 
L 503.350491 -281.06179 
L 501.647451 -281.318117 
L 499.944411 -282.395018 
L 498.241371 -284.100922 
L 496.538331 -286.608183 
L 494.83529 -289.373133 
L 493.13225 -291.996466 
L 491.42921 -294.121252 
L 489.72617 -295.35829 
L 488.02313 -296.067947 
L 486.32009 -296.647896 
L 484.61705 -297.300108 
L 482.91401 -297.691701 
L 481.21097 -297.705477 
L 479.50793 -297.346847 
L 477.80489 -296.920139 
L 476.10185 -296.960838 
L 474.39881 -297.672335 
L 472.69577 -298.843973 
L 470.99273 -300.044699 
L 469.289689 -301.124731 
L 467.586649 -301.827078 
L 465.883609 -302.97333 
L 464.180569 -304.97253 
L 462.477529 -308.402762 
L 460.774489 -313.126142 
L 459.071449 -317.977208 
L 457.368409 -321.591083 
L 455.665369 -323.405188 
L 453.962329 -323.12505 
L 452.259289 -321.974776 
L 450.556249 -321.680345 
L 448.853209 -322.99027 
L 447.150169 -325.875658 
L 445.447129 -329.411951 
L 443.744088 -332.129456 
L 442.041048 -332.727175 
L 440.338008 -331.705587 
L 438.634968 -330.850622 
L 436.931928 -331.202599 
L 435.228888 -333.191336 
L 433.525848 -336.469228 
L 431.822808 -339.355326 
L 430.119768 -340.64025 
L 428.416728 -340.367554 
L 426.713688 -338.986628 
L 425.010648 -337.677914 
L 423.307608 -337.315269 
L 421.604568 -337.997954 
L 419.901528 -339.384528 
L 418.198487 -340.383809 
L 416.495447 -340.600421 
L 414.792407 -339.498824 
L 413.089367 -337.363997 
L 411.386327 -334.793606 
L 409.683287 -332.699973 
L 407.980247 -332.062525 
L 406.277207 -332.946319 
L 404.574167 -335.278607 
L 402.871127 -337.82916 
L 401.168087 -339.326596 
L 399.465047 -339.34786 
L 397.762007 -337.30572 
L 396.058967 -334.402854 
L 394.355927 -332.099004 
L 392.652886 -331.463562 
L 390.949846 -332.488492 
L 389.246806 -334.037549 
L 387.543766 -334.926816 
L 385.840726 -334.026264 
L 384.137686 -331.515127 
L 382.434646 -328.613483 
L 380.731606 -326.947374 
L 379.028566 -327.365554 
L 377.325526 -328.932088 
L 375.622486 -330.32389 
L 373.919446 -329.913878 
L 372.216406 -326.55255 
L 370.513366 -320.947308 
L 368.810326 -314.641851 
L 367.107285 -309.581955 
L 365.404245 -307.502227 
L 363.701205 -308.744008 
L 361.998165 -312.859962 
L 360.295125 -317.983166 
L 358.592085 -322.398164 
L 356.889045 -324.980721 
L 355.186005 -325.344654 
L 353.482965 -323.611551 
L 351.779925 -321.064538 
L 350.076885 -319.327647 
L 348.373845 -319.186269 
L 346.670805 -320.792834 
L 344.967765 -322.644007 
L 343.264724 -323.361779 
L 341.561684 -322.204535 
L 339.858644 -319.367191 
L 338.155604 -316.132629 
L 336.452564 -314.137666 
L 334.749524 -314.432148 
L 333.046484 -316.803399 
L 331.343444 -319.903029 
L 329.640404 -322.118535 
L 327.937364 -322.430836 
L 326.234324 -320.757505 
L 324.531284 -318.220147 
L 322.828244 -315.871395 
L 321.125204 -314.985403 
L 319.422164 -315.682285 
L 317.719123 -317.924242 
L 316.016083 -320.518111 
L 314.313043 -321.459576 
L 312.610003 -319.224616 
L 310.906963 -313.549886 
L 309.203923 -305.616843 
L 307.500883 -297.110371 
L 305.797843 -289.850602 
L 304.094803 -284.500365 
L 302.391763 -279.989743 
L 300.688723 -274.600373 
L 298.985683 -266.772713 
L 297.282643 -256.209896 
L 295.579603 -244.139183 
L 293.876563 -233.05351 
L 292.173522 -224.776451 
L 290.470482 -220.135216 
L 288.767442 -218.699396 
L 287.064402 -218.629072 
L 285.361362 -217.845336 
L 283.658322 -215.96 
L 281.955282 -213.38858 
L 280.252242 -211.911303 
L 278.549202 -212.240789 
L 276.846162 -213.82189 
L 275.143122 -214.668002 
L 273.440082 -214.526892 
L 271.737042 -213.900392 
L 270.034002 -213.437239 
L 268.330962 -213.926237 
L 266.627921 -215.656045 
L 264.924881 -218.417381 
L 263.221841 -221.676432 
L 261.518801 -224.997371 
L 259.815761 -229.046844 
L 258.112721 -234.920995 
L 256.409681 -242.482028 
L 254.706641 -252.163458 
L 253.003601 -262.938518 
L 251.300561 -274.319766 
L 249.597521 -285.310011 
L 247.894481 -295.555675 
L 246.191441 -304.698058 
L 244.488401 -313.128158 
L 242.785361 -321.162763 
L 241.08232 -329.01165 
L 239.37928 -335.741413 
L 237.67624 -341.148783 
L 235.9732 -345.065444 
L 234.27016 -347.424102 
L 232.56712 -348.529567 
L 230.86408 -349.013067 
L 229.16104 -348.215027 
L 227.458 -345.668332 
L 225.75496 -340.714509 
L 224.05192 -333.432303 
L 222.34888 -325.731856 
L 220.64584 -319.539627 
L 218.9428 -315.568134 
L 217.23976 -311.919324 
L 215.536719 -306.472156 
L 213.833679 -297.514517 
L 212.130639 -285.631636 
L 210.427599 -274.610618 
L 208.724559 -267.145269 
L 207.021519 -264.151433 
L 205.318479 -265.694108 
L 203.615439 -269.445408 
L 201.912399 -272.469936 
L 200.209359 -271.560973 
L 198.506319 -265.771425 
L 196.803279 -256.390234 
L 195.100239 -245.530125 
L 193.397199 -235.262097 
L 191.694159 -226.510948 
L 189.991118 -218.662934 
L 188.288078 -210.475258 
L 186.585038 -201.741829 
L 184.881998 -193.385352 
L 183.178958 -186.916745 
L 181.475918 -183.617797 
L 179.772878 -183.705159 
L 178.069838 -185.424175 
L 176.366798 -186.742837 
L 174.663758 -186.619755 
L 172.960718 -185.948182 
L 171.257678 -186.539117 
L 169.554638 -189.165509 
L 167.851598 -193.772116 
L 166.148558 -198.919376 
L 164.445517 -202.225842 
L 162.742477 -202.842765 
L 161.039437 -200.360887 
L 159.336397 -196.077213 
L 157.633357 -191.286853 
L 155.930317 -186.972309 
L 154.227277 -183.434475 
L 152.524237 -180.637764 
L 150.821197 -178.333364 
L 149.118157 -176.972682 
L 147.415117 -177.210961 
L 145.712077 -179.210353 
L 144.009037 -182.892806 
L 142.305997 -186.772647 
L 140.602957 -189.960949 
L 138.899916 -192.245066 
L 137.196876 -193.697785 
L 135.493836 -194.875868 
L 133.790796 -196.598691 
L 132.087756 -198.863641 
L 130.384716 -202.094034 
L 128.681676 -206.224921 
L 126.978636 -210.958418 
L 125.275596 -215.75782 
L 123.572556 -219.107143 
L 121.869516 -220.203653 
L 120.166476 -218.965969 
L 118.463436 -215.591776 
L 116.760396 -211.959889 
L 115.057356 -209.621331 
L 113.354315 -209.426523 
L 111.651275 -210.77893 
L 109.948235 -212.349976 
L 108.245195 -213.210285 
L 106.542155 -213.006302 
L 104.839115 -212.483622 
L 103.136075 -212.799123 
L 101.433035 -214.747182 
L 99.729995 -218.270297 
L 98.026955 -221.874104 
L 96.323915 -224.695902 
L 94.620875 -226.218949 
L 92.917835 -226.864811 
L 91.214795 -227.068441 
L 89.511755 -227.253486 
L 87.808714 -227.083674 
L 86.105674 -226.062179 
L 84.402634 -223.693564 
L 82.699594 -220.38204 
L 80.996554 -216.874438 
L 79.293514 -214.825326 
L 77.590474 -214.775486 
L 75.887434 -217.066923 
L 74.184394 -220.754445 
L 72.481354 -224.808757 
L 70.778314 -227.71854 
L 69.075274 -229.063095 
L 67.372234 -229.348847 
L 65.669194 -229.561001 
L 63.966154 -230.686234 
L 62.263113 -233.38203 
L 60.560073 -236.780745 
L 58.857033 -240.464495 
L 57.153993 -243.476802 
L 55.450953 -245.422652 
L 53.747913 -246.235853 
L 52.044873 -246.575819 
L 50.341833 -246.406211 
L 48.638793 -245.36416 
L 46.935753 -243.77034 
L 45.232713 -241.098325 
L 43.529673 -238.304333 
L 41.826633 -236.838918 
L 40.123593 -237.89776 
L 38.420552 -240.9422 
z
" style="stroke: #ff7f0e; stroke-opacity: 0.3"/>
    </defs>
    <g>
     <use xlink:href="#mc211bbcccf" x="0" y="432" style="fill: #ff7f0e; fill-opacity: 0.3; stroke: #ff7f0e; stroke-opacity: 0.3"/>
    </g>
   </g>
   <g id="line2d_21">
    <path d="M 38.420552 172.525093 
L 40.123593 168.416461 
L 41.826633 168.182856 
L 43.529673 171.969461 
L 45.232713 177.315064 
L 46.935753 181.078854 
L 48.638793 182.192284 
L 50.341833 182.476832 
L 52.044873 183.123567 
L 53.747913 185.5493 
L 55.450953 188.934453 
L 58.857033 196.679247 
L 60.560073 199.962287 
L 62.263113 202.981498 
L 63.966154 206.540355 
L 65.669194 211.314776 
L 67.372234 216.672431 
L 69.075274 221.30224 
L 70.778314 224.689848 
L 72.481354 226.031825 
L 74.184394 226.129906 
L 75.887434 225.265347 
L 77.590474 222.136051 
L 79.293514 216.64292 
L 80.996554 208.840006 
L 82.699594 202.423998 
L 84.402634 200.928028 
L 86.105674 203.57109 
L 87.808714 208.992372 
L 89.511755 212.148906 
L 91.214795 210.091827 
L 92.917835 201.662104 
L 94.620875 191.484488 
L 96.323915 185.842126 
L 98.026955 189.417509 
L 99.729995 201.980933 
L 101.433035 217.534203 
L 103.136075 229.880172 
L 104.839115 234.576099 
L 106.542155 231.506705 
L 108.245195 226.30315 
L 109.948235 224.543461 
L 111.651275 229.123646 
L 113.354315 238.497292 
L 115.057356 247.098107 
L 116.760396 248.799829 
L 118.463436 241.215903 
L 120.166476 228.404448 
L 121.869516 217.285682 
L 123.572556 211.63514 
L 125.275596 214.091098 
L 126.978636 220.637392 
L 128.681676 225.456848 
L 130.384716 225.731595 
L 133.790796 221.596829 
L 135.493836 223.662874 
L 137.196876 230.328764 
L 138.899916 237.617661 
L 140.602957 241.577875 
L 142.305997 241.061069 
L 144.009037 238.091888 
L 145.712077 235.927588 
L 147.415117 236.017404 
L 149.118157 236.758762 
L 150.821197 235.329427 
L 152.524237 229.86687 
L 154.227277 223.180884 
L 155.930317 218.354539 
L 157.633357 219.029993 
L 159.336397 226.386699 
L 161.039437 236.542915 
L 162.742477 243.879653 
L 164.445517 245.093095 
L 166.148558 240.801414 
L 167.851598 236.202259 
L 169.554638 235.011839 
L 171.257678 239.251409 
L 174.663758 253.519534 
L 176.366798 256.847551 
L 178.069838 257.574984 
L 183.178958 251.682822 
L 184.881998 248.886784 
L 186.585038 244.049039 
L 188.288078 239.688747 
L 189.991118 235.902806 
L 191.694159 232.457019 
L 193.397199 229.590398 
L 195.100239 224.711113 
L 196.803279 217.62611 
L 198.506319 209.641079 
L 200.209359 204.099694 
L 201.912399 203.853458 
L 203.615439 208.291789 
L 205.318479 213.819673 
L 207.021519 215.222506 
L 208.724559 208.837329 
L 210.427599 194.571756 
L 212.130639 176.45789 
L 213.833679 160.518217 
L 215.536719 150.153553 
L 217.23976 146.097868 
L 218.9428 145.784019 
L 220.64584 143.780479 
L 222.34888 137.831426 
L 224.05192 126.140124 
L 227.458 98.17204 
L 229.16104 89.165191 
L 230.86408 86.141522 
L 232.56712 88.180043 
L 234.27016 94.272463 
L 235.9732 100.929134 
L 237.67624 106.208801 
L 239.37928 110.540624 
L 241.08232 115.291987 
L 242.785361 122.607262 
L 244.488401 134.630072 
L 246.191441 149.73248 
L 247.894481 166.2993 
L 249.597521 181.24416 
L 251.300561 192.682291 
L 253.003601 198.848527 
L 254.706641 202.356513 
L 256.409681 204.58707 
L 258.112721 207.268125 
L 259.815761 211.865633 
L 261.518801 217.806309 
L 263.221841 222.481401 
L 264.924881 227.851751 
L 266.627921 230.679028 
L 268.330962 231.092792 
L 271.737042 229.978594 
L 273.440082 231.841226 
L 275.143122 235.304417 
L 276.846162 238.194053 
L 278.549202 239.698354 
L 280.252242 239.076346 
L 283.658322 234.383993 
L 285.361362 232.378368 
L 287.064402 229.148797 
L 288.767442 224.685827 
L 290.470482 218.289848 
L 292.173522 212.80078 
L 293.876563 207.824824 
L 295.579603 205.327154 
L 297.282643 203.907518 
L 298.985683 203.319965 
L 300.688723 201.897231 
L 302.391763 198.834345 
L 304.094803 193.944219 
L 307.500883 181.785731 
L 309.203923 177.673761 
L 310.906963 175.07639 
L 312.610003 170.829338 
L 314.313043 164.202705 
L 316.016083 154.072612 
L 317.719123 141.988804 
L 319.422164 128.229776 
L 321.125204 116.450592 
L 322.828244 106.379163 
L 324.531284 98.672542 
L 326.234324 90.043331 
L 327.937364 82.404666 
L 331.343444 69.332569 
L 333.046484 64.11281 
L 334.749524 59.388769 
L 338.155604 51.377481 
L 339.858644 47.123955 
L 341.561684 44.001326 
L 343.264724 42.686037 
L 344.967765 41.698803 
L 346.670805 40.912195 
L 351.779925 36.704913 
L 353.482965 35.866889 
L 355.186005 35.216564 
L 356.889045 34.194052 
L 358.592085 32.465251 
L 360.295125 31.596398 
L 361.998165 31.643664 
L 363.701205 33.392074 
L 365.404245 36.004123 
L 367.107285 38.251804 
L 368.810326 38.921852 
L 372.216406 36.505168 
L 373.919446 38.209853 
L 375.622486 43.977226 
L 379.028566 63.888564 
L 380.731606 70.224418 
L 382.434646 70.235744 
L 384.137686 66.213422 
L 385.840726 62.5884 
L 387.543766 62.747746 
L 389.246806 68.94267 
L 390.949846 76.403139 
L 392.652886 79.241193 
L 394.355927 75.004161 
L 397.762007 55.343374 
L 399.465047 51.568098 
L 401.168087 55.68945 
L 404.574167 75.038236 
L 406.277207 78.876642 
L 407.980247 75.718004 
L 409.683287 69.245005 
L 411.386327 64.777245 
L 413.089367 65.044999 
L 414.792407 69.324183 
L 416.495447 73.943145 
L 418.198487 75.013899 
L 419.901528 72.388036 
L 421.604568 70.148489 
L 423.307608 71.952443 
L 425.010648 78.7646 
L 426.713688 87.763957 
L 428.416728 94.547222 
L 430.119768 95.880328 
L 431.822808 91.781831 
L 433.525848 85.938785 
L 435.228888 82.045982 
L 436.931928 82.918267 
L 438.634968 87.287143 
L 440.338008 93.768966 
L 442.041048 99.506891 
L 443.744088 103.369393 
L 445.447129 106.79928 
L 447.150169 111.467006 
L 448.853209 118.61942 
L 450.556249 126.813106 
L 452.259289 133.907287 
L 453.962329 138.660937 
L 455.665369 140.806545 
L 457.368409 141.401818 
L 459.071449 142.320853 
L 462.477529 148.596929 
L 464.180569 151.273696 
L 465.883609 151.441149 
L 467.586649 148.38128 
L 469.289689 142.986034 
L 470.99273 138.477168 
L 472.69577 137.456282 
L 474.39881 140.371836 
L 476.10185 146.563207 
L 477.80489 153.62675 
L 479.50793 158.474895 
L 481.21097 160.334727 
L 482.91401 158.54776 
L 484.61705 155.487444 
L 486.32009 153.971321 
L 488.02313 156.147841 
L 489.72617 161.83899 
L 494.83529 186.108679 
L 496.538331 191.950565 
L 498.241371 195.146974 
L 499.944411 196.567332 
L 501.647451 195.930302 
L 503.350491 194.286545 
L 505.053531 193.006051 
L 506.756571 191.137754 
L 508.459611 190.421519 
L 510.162651 192.196283 
L 511.865691 195.00526 
L 513.568731 198.180597 
L 515.271771 201.112908 
L 516.974811 201.282547 
L 518.677851 198.191905 
L 520.380891 193.229155 
L 522.083932 187.655551 
L 523.786972 185.294485 
L 525.490012 186.449112 
L 528.896092 194.216319 
L 530.599132 196.76867 
L 532.302172 196.217879 
L 534.005212 192.924384 
L 535.708252 189.263706 
L 537.411292 188.510612 
L 539.114332 190.508794 
L 540.817372 193.529559 
L 542.520412 196.060514 
L 544.223452 196.02658 
L 545.926492 193.43685 
L 547.629533 189.667964 
L 549.332573 186.718126 
L 551.035613 185.922286 
L 554.441693 187.612501 
L 556.144733 187.114341 
L 557.847773 186.264006 
L 559.550813 186.027227 
L 561.253853 188.644062 
L 561.253853 188.644062 
" style="fill: none; stroke: #1f77b4; stroke-width: 1.5; stroke-linecap: square"/>
   </g>
   <g id="line2d_22">
    <path d="M 38.420552 193.809477 
L 40.123593 196.780676 
L 41.826633 197.759204 
L 43.529673 196.387248 
L 46.935753 190.937856 
L 48.638793 189.194329 
L 50.341833 188.066394 
L 52.044873 187.870894 
L 53.747913 188.074951 
L 55.450953 188.898329 
L 57.153993 190.76148 
L 58.857033 193.736682 
L 62.263113 200.686981 
L 63.966154 203.232717 
L 65.669194 204.337936 
L 69.075274 204.858385 
L 70.778314 206.285353 
L 72.481354 209.243792 
L 74.184394 213.25958 
L 75.887434 216.939697 
L 77.590474 219.191834 
L 79.293514 219.150286 
L 80.996554 217.106631 
L 84.402634 210.297146 
L 86.105674 208.011905 
L 87.808714 207.006914 
L 89.511755 206.831412 
L 92.917835 207.207082 
L 94.620875 207.886786 
L 96.323915 209.396722 
L 98.026955 212.240161 
L 101.433035 219.358858 
L 103.136075 221.397852 
L 104.839115 221.83559 
L 108.245195 221.160754 
L 109.948235 222.019584 
L 111.651275 223.639655 
L 113.354315 225.064475 
L 115.057356 224.916178 
L 116.760396 222.495965 
L 118.463436 218.840093 
L 120.166476 215.454267 
L 121.869516 214.11106 
L 123.572556 215.304098 
L 125.275596 218.795436 
L 128.681676 228.512268 
L 130.384716 232.827253 
L 132.087756 236.122297 
L 133.790796 238.417321 
L 135.493836 240.075448 
L 137.196876 241.298191 
L 138.899916 242.734214 
L 140.602957 245.01606 
L 142.305997 248.322719 
L 144.009037 252.24044 
L 145.712077 255.853399 
L 147.415117 257.850738 
L 149.118157 258.13174 
L 150.821197 256.865981 
L 152.524237 254.649522 
L 154.227277 251.949764 
L 155.930317 248.530453 
L 157.633357 244.311597 
L 159.336397 239.602587 
L 161.039437 235.254952 
L 162.742477 232.686972 
L 164.445517 233.21552 
L 166.148558 236.628351 
L 167.851598 241.770095 
L 169.554638 246.348469 
L 171.257678 248.952089 
L 172.960718 249.526669 
L 174.663758 248.907836 
L 176.366798 248.869255 
L 178.069838 250.10486 
L 179.772878 251.775416 
L 181.475918 251.879391 
L 183.178958 248.517523 
L 184.881998 242.102935 
L 193.397199 200.788095 
L 195.100239 190.682617 
L 196.803279 179.79093 
L 198.506319 170.320652 
L 200.209359 164.528619 
L 201.912399 163.49345 
L 203.615439 166.324524 
L 205.318479 170.196884 
L 207.021519 171.812105 
L 208.724559 168.808613 
L 210.427599 161.116965 
L 212.130639 149.963011 
L 213.833679 137.956003 
L 215.536719 128.725673 
L 217.23976 123.200711 
L 220.64584 115.777458 
L 222.34888 109.76495 
L 224.05192 102.144655 
L 225.75496 95.093565 
L 227.458 90.113258 
L 229.16104 87.58518 
L 230.86408 86.884708 
L 232.56712 87.254288 
L 234.27016 88.400731 
L 235.9732 90.647328 
L 237.67624 94.494021 
L 239.37928 99.893837 
L 241.08232 106.68836 
L 244.488401 122.536828 
L 247.894481 140.315073 
L 249.597521 150.367045 
L 254.706641 183.51074 
L 256.409681 193.199697 
L 258.112721 200.751289 
L 259.815761 206.57233 
L 261.518801 210.666687 
L 264.924881 217.168475 
L 266.627921 219.889963 
L 268.330962 221.661936 
L 270.034002 222.308634 
L 271.737042 221.98732 
L 273.440082 221.24365 
L 275.143122 220.971184 
L 276.846162 221.733689 
L 278.549202 223.135042 
L 280.252242 223.423381 
L 281.955282 221.868557 
L 283.658322 219.3633 
L 285.361362 217.492126 
L 287.064402 216.846129 
L 288.767442 216.875703 
L 290.470482 215.431299 
L 292.173522 210.92253 
L 293.876563 202.634394 
L 295.579603 191.426825 
L 297.282643 179.258532 
L 298.985683 168.739326 
L 300.688723 161.056277 
L 302.391763 155.731451 
L 304.094803 151.383496 
L 305.797843 145.982225 
L 307.500883 138.730432 
L 309.203923 130.196588 
L 310.906963 122.262734 
L 312.610003 116.695374 
L 314.313043 114.465763 
L 316.016083 115.379949 
L 317.719123 117.969993 
L 319.422164 120.207202 
L 321.125204 120.869974 
L 322.828244 119.899731 
L 324.531284 117.596457 
L 326.234324 114.923579 
L 327.937364 113.23081 
L 329.640404 113.528514 
L 331.343444 115.816909 
L 333.046484 119.036565 
L 334.749524 121.461487 
L 336.452564 121.782421 
L 338.155604 119.815226 
L 339.858644 116.565919 
L 341.561684 113.658318 
L 343.264724 112.451437 
L 344.967765 113.168326 
L 346.670805 114.966206 
L 348.373845 116.436328 
L 350.076885 116.330171 
L 351.779925 114.536007 
L 353.482965 112.025193 
L 355.186005 110.256079 
L 356.889045 110.587298 
L 358.592085 113.268738 
L 360.295125 117.724237 
L 361.998165 122.922791 
L 363.701205 127.055127 
L 365.404245 128.308281 
L 367.107285 126.248825 
L 368.810326 121.190849 
L 370.513366 114.831223 
L 372.216406 109.203043 
L 373.919446 105.89478 
L 375.622486 105.486049 
L 379.028566 108.521262 
L 380.731606 108.7847 
L 382.434646 107.05677 
L 384.137686 104.115256 
L 385.840726 101.610759 
L 387.543766 100.683441 
L 389.246806 101.586628 
L 390.949846 103.150191 
L 392.652886 104.133927 
L 394.355927 103.579871 
L 396.058967 101.337614 
L 397.762007 98.395694 
L 399.465047 96.381411 
L 401.168087 96.302443 
L 402.871127 97.931232 
L 404.574167 100.496261 
L 406.277207 102.768097 
L 407.980247 103.668756 
L 409.683287 102.893172 
L 411.386327 100.929 
L 413.089367 98.35054 
L 414.792407 96.130352 
L 416.495447 94.963479 
L 418.198487 95.199613 
L 419.901528 96.258278 
L 421.604568 97.660695 
L 423.307608 98.463568 
L 425.010648 98.123596 
L 428.416728 95.481184 
L 430.119768 95.241935 
L 431.822808 96.506054 
L 433.525848 99.384068 
L 435.228888 102.604902 
L 436.931928 104.575882 
L 438.634968 104.961379 
L 442.041048 103.062688 
L 443.744088 103.810777 
L 445.447129 106.590436 
L 447.150169 110.173928 
L 448.853209 113.216154 
L 450.556249 114.466605 
L 452.259289 113.971281 
L 453.962329 112.75001 
L 455.665369 112.411429 
L 457.368409 114.187168 
L 459.071449 117.987463 
L 462.477529 127.9609 
L 464.180569 131.310027 
L 465.883609 133.218271 
L 467.586649 134.147638 
L 469.289689 134.745619 
L 470.99273 135.756115 
L 474.39881 138.529257 
L 476.10185 139.254258 
L 477.80489 139.260883 
L 481.21097 138.493139 
L 482.91401 138.49777 
L 484.61705 138.876826 
L 486.32009 139.497426 
L 488.02313 139.983607 
L 489.72617 140.630596 
L 491.42921 141.828263 
L 493.13225 143.942023 
L 498.241371 151.844737 
L 499.944411 153.599565 
L 501.647451 154.509278 
L 503.350491 154.798035 
L 505.053531 154.84298 
L 508.459611 155.241354 
L 510.162651 155.758692 
L 511.865691 156.674464 
L 515.271771 159.028095 
L 516.974811 159.761053 
L 518.677851 159.452279 
L 520.380891 157.397827 
L 522.083932 154.075781 
L 523.786972 150.452708 
L 525.490012 147.642157 
L 527.193052 146.275793 
L 528.896092 146.13094 
L 532.302172 147.113892 
L 537.411292 147.547751 
L 539.114332 148.162081 
L 540.817372 148.975096 
L 542.520412 149.451283 
L 544.223452 149.065775 
L 545.926492 147.724935 
L 549.332573 143.838392 
L 551.035613 142.432573 
L 552.738653 141.887322 
L 554.441693 142.279625 
L 556.144733 143.561097 
L 559.550813 147.186918 
L 561.253853 148.480109 
L 561.253853 148.480109 
" style="fill: none; stroke: #ff7f0e; stroke-width: 1.5; stroke-linecap: square"/>
   </g>
  </g>
  <g id="axes_2">
   <g id="PathCollection_1">
    <defs>
     <path id="C0_0_ce076da7e6" d="M 0 1.118034 
C 0.296506 1.118034 0.580908 1.000231 0.790569 0.790569 
C 1.000231 0.580908 1.118034 0.296506 1.118034 -0 
C 1.118034 -0.296506 1.000231 -0.580908 0.790569 -0.790569 
C 0.580908 -1.000231 0.296506 -1.118034 0 -1.118034 
C -0.296506 -1.118034 -0.580908 -1.000231 -0.790569 -0.790569 
C -1.000231 -0.580908 -1.118034 -0.296506 -1.118034 0 
C -1.118034 0.296506 -1.000231 0.580908 -0.790569 0.790569 
C -0.580908 1.000231 -0.296506 1.118034 0 1.118034 
z
"/>
    </defs>
    <g clip-path="url(#p0fa55bb3ea)">
     <use xlink:href="#C0_0_ce076da7e6" x="509.133998" y="46.646445" style="stroke: #000000"/>
    </g>
    <g clip-path="url(#p0fa55bb3ea)">
     <use xlink:href="#C0_0_ce076da7e6" x="509.14188" y="56.275977" style="stroke: #000000"/>
    </g>
    <g clip-path="url(#p0fa55bb3ea)">
     <use xlink:href="#C0_0_ce076da7e6" x="509.08702" y="76.414332" style="stroke: #000000"/>
    </g>
    <g clip-path="url(#p0fa55bb3ea)">
     <use xlink:href="#C0_0_ce076da7e6" x="509.029741" y="85.802272" style="stroke: #000000"/>
    </g>
    <g clip-path="url(#p0fa55bb3ea)">
     <use xlink:href="#C0_0_ce076da7e6" x="509.124872" y="66.304383" style="stroke: #000000"/>
    </g>
   </g>
   <g id="matplotlib.axis_3"/>
   <g id="matplotlib.axis_4"/>
   <g id="line2d_23">
    <path d="M 548.859194 73.63672 
L 548.781507 71.164689 
L 548.548754 68.702415 
L 548.161852 66.259613 
L 547.622329 63.845926 
L 546.932314 61.470879 
L 546.09453 59.143845 
L 545.112284 56.874007 
L 543.989451 54.670325 
L 542.730464 52.541494 
L 541.340291 50.495916 
L 539.824418 48.541664 
L 538.188828 46.686451 
L 536.439975 44.937599 
L 534.584762 43.302008 
L 532.630511 41.786136 
L 530.584933 40.395962 
L 528.456102 39.136975 
L 526.252419 38.014143 
L 523.982582 37.031896 
L 521.655547 36.194112 
L 519.2805 35.504097 
L 516.866813 34.964574 
L 514.424012 34.577673 
L 511.961737 34.344919 
L 509.489707 34.267233 
L 507.017676 34.344919 
L 504.555402 34.577673 
L 502.1126 34.964574 
L 499.698913 35.504097 
L 497.323866 36.194112 
L 494.996832 37.031896 
L 492.726994 38.014143 
L 490.523312 39.136975 
L 488.394481 40.395962 
L 486.348903 41.786136 
L 484.394651 43.302008 
L 482.539438 44.937599 
L 480.790586 46.686451 
L 479.154995 48.541664 
L 477.639123 50.495916 
L 476.248949 52.541494 
L 474.989962 54.670325 
L 473.86713 56.874007 
L 472.884883 59.143845 
L 472.047099 61.470879 
L 471.357084 63.845926 
L 470.817561 66.259613 
L 470.43066 68.702415 
L 470.197906 71.164689 
L 470.12022 73.63672 
L 470.197906 76.10875 
L 470.43066 78.571025 
L 470.817561 81.013826 
L 471.357084 83.427513 
L 472.047099 85.80256 
L 472.884883 88.129595 
L 473.86713 90.399432 
L 474.989962 92.603115 
L 476.248949 94.731946 
L 477.639123 96.777524 
L 479.154995 98.731775 
L 480.790586 100.586988 
L 482.539438 102.335841 
L 484.394651 103.971431 
L 486.348903 105.487304 
L 488.394481 106.877477 
L 490.523312 108.136464 
L 492.726994 109.259297 
L 494.996832 110.241543 
L 497.323866 111.079327 
L 499.698913 111.769342 
L 502.1126 112.308865 
L 504.555402 112.695767 
L 507.017676 112.92852 
L 509.489707 113.006207 
L 511.961737 112.92852 
L 514.424012 112.695767 
L 516.866813 112.308865 
L 519.2805 111.769342 
L 521.655547 111.079327 
L 523.982582 110.241543 
L 526.252419 109.259297 
L 528.456102 108.136464 
L 530.584933 106.877477 
L 532.630511 105.487304 
L 534.584762 103.971431 
L 536.439975 102.335841 
L 538.188828 100.586988 
L 539.824418 98.731775 
L 541.340291 96.777524 
L 542.730464 94.731946 
L 543.989451 92.603115 
L 545.112284 90.399432 
L 546.09453 88.129595 
L 546.932314 85.80256 
L 547.622329 83.427513 
L 548.161852 81.013826 
L 548.548754 78.571025 
L 548.781507 76.10875 
L 548.859194 73.63672 
" style="fill: none; stroke: #000000; stroke-linecap: square"/>
   </g>
   <g id="line2d_24">
    <path d="M 501.244181 35.140385 
L 509.489707 28.361809 
L 517.735233 35.140385 
" style="fill: none; stroke: #000000; stroke-linecap: square"/>
   </g>
   <g id="line2d_25">
    <path d="M 470.356436 69.266707 
L 469.33283 67.534449 
L 468.702918 67.471458 
L 467.765924 67.762792 
L 466.821057 69.266707 
L 466.970661 74.069784 
L 466.419488 80.975192 
L 467.600572 83.975147 
L 469.33283 84.534194 
L 470.986348 83.077523 
" style="fill: none; stroke: #000000; stroke-linecap: square"/>
   </g>
   <g id="line2d_26">
    <path d="M 548.622977 69.266707 
L 549.646584 67.534449 
L 550.276495 67.471458 
L 551.213489 67.762792 
L 552.158357 69.266707 
L 552.008753 74.069784 
L 552.559926 80.975192 
L 551.378841 83.975147 
L 549.646584 84.534194 
L 547.993065 83.077523 
" style="fill: none; stroke: #000000; stroke-linecap: square"/>
   </g>
  </g>
 </g>
 <defs>
  <clipPath id="p20da4e1688">
   <rect x="38.420552" y="18.118365" width="523.446395" height="380.525145"/>
  </clipPath>
  <clipPath id="p0fa55bb3ea">
   <rect x="462.112466" y="24.12959" width="94.754482" height="93.108837"/>
  </clipPath>
 </defs>
</svg>
