<?xml version="1.0" encoding="utf-8" standalone="no"?>
<!DOCTYPE svg PUBLIC "-//W3C//DTD SVG 1.1//EN"
  "http://www.w3.org/Graphics/SVG/1.1/DTD/svg11.dtd">
<svg xmlns:xlink="http://www.w3.org/1999/xlink" width="576pt" height="432pt" viewBox="0 0 576 432" xmlns="http://www.w3.org/2000/svg" version="1.1">
 <metadata>
  <rdf:RDF xmlns:dc="http://purl.org/dc/elements/1.1/" xmlns:cc="http://creativecommons.org/ns#" xmlns:rdf="http://www.w3.org/1999/02/22-rdf-syntax-ns#">
   <cc:Work>
    <dc:type rdf:resource="http://purl.org/dc/dcmitype/StillImage"/>
    <dc:date>2025-02-12T21:12:41.473152</dc:date>
    <dc:format>image/svg+xml</dc:format>
    <dc:creator>
     <cc:Agent>
      <dc:title>Matplotlib v3.10.0, https://matplotlib.org/</dc:title>
     </cc:Agent>
    </dc:creator>
   </cc:Work>
  </rdf:RDF>
 </metadata>
 <defs>
  <style type="text/css">*{stroke-linejoin: round; stroke-linecap: butt}</style>
 </defs>
 <g id="figure_1">
  <g id="patch_1">
   <path d="M 0 432 
L 576 432 
L 576 0 
L 0 0 
z
" style="fill: #ffffff"/>
  </g>
  <g id="axes_1">
   <g id="patch_2">
    <path d="M 38.420552 398.64351 
L 572.99976 398.64351 
L 572.99976 18.118365 
L 38.420552 18.118365 
L 38.420552 398.64351 
z
" style="fill: none; opacity: 0"/>
   </g>
   <g id="patch_3">
    <path d="M 38.420552 396.93774 
L 38.420552 19.824135 
" style="fill: none; stroke: #000000; stroke-width: 0.8; stroke-linejoin: miter; stroke-linecap: square"/>
   </g>
   <g id="LineCollection_1">
    <path d="M 376.859689 18.118365 
L 376.859689 398.64351 
" clip-path="url(#p256bf4f844)" style="fill: none; stroke-dasharray: 3.7,1.6; stroke-dashoffset: 0; stroke: #000000"/>
    <path d="M 488.302911 18.118365 
L 488.302911 398.64351 
" clip-path="url(#p256bf4f844)" style="fill: none; stroke-dasharray: 3.7,1.6; stroke-dashoffset: 0; stroke: #000000"/>
   </g>
   <g id="matplotlib.axis_1">
    <g id="xtick_1">
     <g id="line2d_1">
      <defs>
       <path id="mf4c68b7038" d="M 0 0 
L 0 3.5 
" style="stroke: #000000; stroke-width: 0.8"/>
      </defs>
      <g>
       <use xlink:href="#mf4c68b7038" x="64.818666" y="398.64351" style="stroke: #000000; stroke-width: 0.8"/>
      </g>
     </g>
     <g id="text_1">
      <!-- −0.20 -->
      <g transform="translate(49.49601 413.241947) scale(0.1 -0.1)">
       <defs>
        <path id="DejaVuSans-2212" d="M 678 2272 
L 4684 2272 
L 4684 1741 
L 678 1741 
L 678 2272 
z
" transform="scale(0.015625)"/>
        <path id="DejaVuSans-30" d="M 2034 4250 
Q 1547 4250 1301 3770 
Q 1056 3291 1056 2328 
Q 1056 1369 1301 889 
Q 1547 409 2034 409 
Q 2525 409 2770 889 
Q 3016 1369 3016 2328 
Q 3016 3291 2770 3770 
Q 2525 4250 2034 4250 
z
M 2034 4750 
Q 2819 4750 3233 4129 
Q 3647 3509 3647 2328 
Q 3647 1150 3233 529 
Q 2819 -91 2034 -91 
Q 1250 -91 836 529 
Q 422 1150 422 2328 
Q 422 3509 836 4129 
Q 1250 4750 2034 4750 
z
" transform="scale(0.015625)"/>
        <path id="DejaVuSans-2e" d="M 684 794 
L 1344 794 
L 1344 0 
L 684 0 
L 684 794 
z
" transform="scale(0.015625)"/>
        <path id="DejaVuSans-32" d="M 1228 531 
L 3431 531 
L 3431 0 
L 469 0 
L 469 531 
Q 828 903 1448 1529 
Q 2069 2156 2228 2338 
Q 2531 2678 2651 2914 
Q 2772 3150 2772 3378 
Q 2772 3750 2511 3984 
Q 2250 4219 1831 4219 
Q 1534 4219 1204 4116 
Q 875 4013 500 3803 
L 500 4441 
Q 881 4594 1212 4672 
Q 1544 4750 1819 4750 
Q 2544 4750 2975 4387 
Q 3406 4025 3406 3419 
Q 3406 3131 3298 2873 
Q 3191 2616 2906 2266 
Q 2828 2175 2409 1742 
Q 1991 1309 1228 531 
z
" transform="scale(0.015625)"/>
       </defs>
       <use xlink:href="#DejaVuSans-2212"/>
       <use xlink:href="#DejaVuSans-30" transform="translate(83.789062 0)"/>
       <use xlink:href="#DejaVuSans-2e" transform="translate(147.412109 0)"/>
       <use xlink:href="#DejaVuSans-32" transform="translate(179.199219 0)"/>
       <use xlink:href="#DejaVuSans-30" transform="translate(242.822266 0)"/>
      </g>
     </g>
    </g>
    <g id="xtick_2">
     <g id="line2d_2">
      <g>
       <use xlink:href="#mf4c68b7038" x="153.973244" y="398.64351" style="stroke: #000000; stroke-width: 0.8"/>
      </g>
     </g>
     <g id="text_2">
      <!-- 0.00 -->
      <g transform="translate(142.840431 413.241947) scale(0.1 -0.1)">
       <use xlink:href="#DejaVuSans-30"/>
       <use xlink:href="#DejaVuSans-2e" transform="translate(63.623047 0)"/>
       <use xlink:href="#DejaVuSans-30" transform="translate(95.410156 0)"/>
       <use xlink:href="#DejaVuSans-30" transform="translate(159.033203 0)"/>
      </g>
     </g>
    </g>
    <g id="xtick_3">
     <g id="line2d_3">
      <g>
       <use xlink:href="#mf4c68b7038" x="243.127822" y="398.64351" style="stroke: #000000; stroke-width: 0.8"/>
      </g>
     </g>
     <g id="text_3">
      <!-- 0.20 -->
      <g transform="translate(231.995009 413.241947) scale(0.1 -0.1)">
       <use xlink:href="#DejaVuSans-30"/>
       <use xlink:href="#DejaVuSans-2e" transform="translate(63.623047 0)"/>
       <use xlink:href="#DejaVuSans-32" transform="translate(95.410156 0)"/>
       <use xlink:href="#DejaVuSans-30" transform="translate(159.033203 0)"/>
      </g>
     </g>
    </g>
    <g id="xtick_4">
     <g id="line2d_4">
      <g>
       <use xlink:href="#mf4c68b7038" x="332.2824" y="398.64351" style="stroke: #000000; stroke-width: 0.8"/>
      </g>
     </g>
     <g id="text_4">
      <!-- 0.40 -->
      <g transform="translate(321.149587 413.241947) scale(0.1 -0.1)">
       <defs>
        <path id="DejaVuSans-34" d="M 2419 4116 
L 825 1625 
L 2419 1625 
L 2419 4116 
z
M 2253 4666 
L 3047 4666 
L 3047 1625 
L 3713 1625 
L 3713 1100 
L 3047 1100 
L 3047 0 
L 2419 0 
L 2419 1100 
L 313 1100 
L 313 1709 
L 2253 4666 
z
" transform="scale(0.015625)"/>
       </defs>
       <use xlink:href="#DejaVuSans-30"/>
       <use xlink:href="#DejaVuSans-2e" transform="translate(63.623047 0)"/>
       <use xlink:href="#DejaVuSans-34" transform="translate(95.410156 0)"/>
       <use xlink:href="#DejaVuSans-30" transform="translate(159.033203 0)"/>
      </g>
     </g>
    </g>
    <g id="xtick_5">
     <g id="line2d_5">
      <g>
       <use xlink:href="#mf4c68b7038" x="376.859689" y="398.64351" style="stroke: #000000; stroke-width: 0.8"/>
      </g>
     </g>
     <g id="text_5">
      <!-- 0.50 -->
      <g transform="translate(365.726876 413.241947) scale(0.1 -0.1)">
       <defs>
        <path id="DejaVuSans-35" d="M 691 4666 
L 3169 4666 
L 3169 4134 
L 1269 4134 
L 1269 2991 
Q 1406 3038 1543 3061 
Q 1681 3084 1819 3084 
Q 2600 3084 3056 2656 
Q 3513 2228 3513 1497 
Q 3513 744 3044 326 
Q 2575 -91 1722 -91 
Q 1428 -91 1123 -41 
Q 819 9 494 109 
L 494 744 
Q 775 591 1075 516 
Q 1375 441 1709 441 
Q 2250 441 2565 725 
Q 2881 1009 2881 1497 
Q 2881 1984 2565 2268 
Q 2250 2553 1709 2553 
Q 1456 2553 1204 2497 
Q 953 2441 691 2322 
L 691 4666 
z
" transform="scale(0.015625)"/>
       </defs>
       <use xlink:href="#DejaVuSans-30"/>
       <use xlink:href="#DejaVuSans-2e" transform="translate(63.623047 0)"/>
       <use xlink:href="#DejaVuSans-35" transform="translate(95.410156 0)"/>
       <use xlink:href="#DejaVuSans-30" transform="translate(159.033203 0)"/>
      </g>
     </g>
    </g>
    <g id="xtick_6">
     <g id="line2d_6">
      <g>
       <use xlink:href="#mf4c68b7038" x="421.436978" y="398.64351" style="stroke: #000000; stroke-width: 0.8"/>
      </g>
     </g>
     <g id="text_6">
      <!-- 0.60 -->
      <g transform="translate(410.304165 413.241947) scale(0.1 -0.1)">
       <defs>
        <path id="DejaVuSans-36" d="M 2113 2584 
Q 1688 2584 1439 2293 
Q 1191 2003 1191 1497 
Q 1191 994 1439 701 
Q 1688 409 2113 409 
Q 2538 409 2786 701 
Q 3034 994 3034 1497 
Q 3034 2003 2786 2293 
Q 2538 2584 2113 2584 
z
M 3366 4563 
L 3366 3988 
Q 3128 4100 2886 4159 
Q 2644 4219 2406 4219 
Q 1781 4219 1451 3797 
Q 1122 3375 1075 2522 
Q 1259 2794 1537 2939 
Q 1816 3084 2150 3084 
Q 2853 3084 3261 2657 
Q 3669 2231 3669 1497 
Q 3669 778 3244 343 
Q 2819 -91 2113 -91 
Q 1303 -91 875 529 
Q 447 1150 447 2328 
Q 447 3434 972 4092 
Q 1497 4750 2381 4750 
Q 2619 4750 2861 4703 
Q 3103 4656 3366 4563 
z
" transform="scale(0.015625)"/>
       </defs>
       <use xlink:href="#DejaVuSans-30"/>
       <use xlink:href="#DejaVuSans-2e" transform="translate(63.623047 0)"/>
       <use xlink:href="#DejaVuSans-36" transform="translate(95.410156 0)"/>
       <use xlink:href="#DejaVuSans-30" transform="translate(159.033203 0)"/>
      </g>
     </g>
    </g>
    <g id="xtick_7">
     <g id="line2d_7">
      <g>
       <use xlink:href="#mf4c68b7038" x="488.302911" y="398.64351" style="stroke: #000000; stroke-width: 0.8"/>
      </g>
     </g>
     <g id="text_7">
      <!-- 0.75 -->
      <g transform="translate(477.170098 413.241947) scale(0.1 -0.1)">
       <defs>
        <path id="DejaVuSans-37" d="M 525 4666 
L 3525 4666 
L 3525 4397 
L 1831 0 
L 1172 0 
L 2766 4134 
L 525 4134 
L 525 4666 
z
" transform="scale(0.015625)"/>
       </defs>
       <use xlink:href="#DejaVuSans-30"/>
       <use xlink:href="#DejaVuSans-2e" transform="translate(63.623047 0)"/>
       <use xlink:href="#DejaVuSans-37" transform="translate(95.410156 0)"/>
       <use xlink:href="#DejaVuSans-35" transform="translate(159.033203 0)"/>
      </g>
     </g>
    </g>
    <g id="xtick_8">
     <g id="line2d_8">
      <g>
       <use xlink:href="#mf4c68b7038" x="510.591555" y="398.64351" style="stroke: #000000; stroke-width: 0.8"/>
      </g>
     </g>
     <g id="text_8">
      <!-- 0.80 -->
      <g transform="translate(499.458743 413.241947) scale(0.1 -0.1)">
       <defs>
        <path id="DejaVuSans-38" d="M 2034 2216 
Q 1584 2216 1326 1975 
Q 1069 1734 1069 1313 
Q 1069 891 1326 650 
Q 1584 409 2034 409 
Q 2484 409 2743 651 
Q 3003 894 3003 1313 
Q 3003 1734 2745 1975 
Q 2488 2216 2034 2216 
z
M 1403 2484 
Q 997 2584 770 2862 
Q 544 3141 544 3541 
Q 544 4100 942 4425 
Q 1341 4750 2034 4750 
Q 2731 4750 3128 4425 
Q 3525 4100 3525 3541 
Q 3525 3141 3298 2862 
Q 3072 2584 2669 2484 
Q 3125 2378 3379 2068 
Q 3634 1759 3634 1313 
Q 3634 634 3220 271 
Q 2806 -91 2034 -91 
Q 1263 -91 848 271 
Q 434 634 434 1313 
Q 434 1759 690 2068 
Q 947 2378 1403 2484 
z
M 1172 3481 
Q 1172 3119 1398 2916 
Q 1625 2713 2034 2713 
Q 2441 2713 2670 2916 
Q 2900 3119 2900 3481 
Q 2900 3844 2670 4047 
Q 2441 4250 2034 4250 
Q 1625 4250 1398 4047 
Q 1172 3844 1172 3481 
z
" transform="scale(0.015625)"/>
       </defs>
       <use xlink:href="#DejaVuSans-30"/>
       <use xlink:href="#DejaVuSans-2e" transform="translate(63.623047 0)"/>
       <use xlink:href="#DejaVuSans-38" transform="translate(95.410156 0)"/>
       <use xlink:href="#DejaVuSans-30" transform="translate(159.033203 0)"/>
      </g>
     </g>
    </g>
    <g id="text_9">
     <!-- Time (s) -->
     <g transform="translate(285.38125 426.920073) scale(0.1 -0.1)">
      <defs>
       <path id="DejaVuSans-54" d="M -19 4666 
L 3928 4666 
L 3928 4134 
L 2272 4134 
L 2272 0 
L 1638 0 
L 1638 4134 
L -19 4134 
L -19 4666 
z
" transform="scale(0.015625)"/>
       <path id="DejaVuSans-69" d="M 603 3500 
L 1178 3500 
L 1178 0 
L 603 0 
L 603 3500 
z
M 603 4863 
L 1178 4863 
L 1178 4134 
L 603 4134 
L 603 4863 
z
" transform="scale(0.015625)"/>
       <path id="DejaVuSans-6d" d="M 3328 2828 
Q 3544 3216 3844 3400 
Q 4144 3584 4550 3584 
Q 5097 3584 5394 3201 
Q 5691 2819 5691 2113 
L 5691 0 
L 5113 0 
L 5113 2094 
Q 5113 2597 4934 2840 
Q 4756 3084 4391 3084 
Q 3944 3084 3684 2787 
Q 3425 2491 3425 1978 
L 3425 0 
L 2847 0 
L 2847 2094 
Q 2847 2600 2669 2842 
Q 2491 3084 2119 3084 
Q 1678 3084 1418 2786 
Q 1159 2488 1159 1978 
L 1159 0 
L 581 0 
L 581 3500 
L 1159 3500 
L 1159 2956 
Q 1356 3278 1631 3431 
Q 1906 3584 2284 3584 
Q 2666 3584 2933 3390 
Q 3200 3197 3328 2828 
z
" transform="scale(0.015625)"/>
       <path id="DejaVuSans-65" d="M 3597 1894 
L 3597 1613 
L 953 1613 
Q 991 1019 1311 708 
Q 1631 397 2203 397 
Q 2534 397 2845 478 
Q 3156 559 3463 722 
L 3463 178 
Q 3153 47 2828 -22 
Q 2503 -91 2169 -91 
Q 1331 -91 842 396 
Q 353 884 353 1716 
Q 353 2575 817 3079 
Q 1281 3584 2069 3584 
Q 2775 3584 3186 3129 
Q 3597 2675 3597 1894 
z
M 3022 2063 
Q 3016 2534 2758 2815 
Q 2500 3097 2075 3097 
Q 1594 3097 1305 2825 
Q 1016 2553 972 2059 
L 3022 2063 
z
" transform="scale(0.015625)"/>
       <path id="DejaVuSans-20" transform="scale(0.015625)"/>
       <path id="DejaVuSans-28" d="M 1984 4856 
Q 1566 4138 1362 3434 
Q 1159 2731 1159 2009 
Q 1159 1288 1364 580 
Q 1569 -128 1984 -844 
L 1484 -844 
Q 1016 -109 783 600 
Q 550 1309 550 2009 
Q 550 2706 781 3412 
Q 1013 4119 1484 4856 
L 1984 4856 
z
" transform="scale(0.015625)"/>
       <path id="DejaVuSans-73" d="M 2834 3397 
L 2834 2853 
Q 2591 2978 2328 3040 
Q 2066 3103 1784 3103 
Q 1356 3103 1142 2972 
Q 928 2841 928 2578 
Q 928 2378 1081 2264 
Q 1234 2150 1697 2047 
L 1894 2003 
Q 2506 1872 2764 1633 
Q 3022 1394 3022 966 
Q 3022 478 2636 193 
Q 2250 -91 1575 -91 
Q 1294 -91 989 -36 
Q 684 19 347 128 
L 347 722 
Q 666 556 975 473 
Q 1284 391 1588 391 
Q 1994 391 2212 530 
Q 2431 669 2431 922 
Q 2431 1156 2273 1281 
Q 2116 1406 1581 1522 
L 1381 1569 
Q 847 1681 609 1914 
Q 372 2147 372 2553 
Q 372 3047 722 3315 
Q 1072 3584 1716 3584 
Q 2034 3584 2315 3537 
Q 2597 3491 2834 3397 
z
" transform="scale(0.015625)"/>
       <path id="DejaVuSans-29" d="M 513 4856 
L 1013 4856 
Q 1481 4119 1714 3412 
Q 1947 2706 1947 2009 
Q 1947 1309 1714 600 
Q 1481 -109 1013 -844 
L 513 -844 
Q 928 -128 1133 580 
Q 1338 1288 1338 2009 
Q 1338 2731 1133 3434 
Q 928 4138 513 4856 
z
" transform="scale(0.015625)"/>
      </defs>
      <use xlink:href="#DejaVuSans-54"/>
      <use xlink:href="#DejaVuSans-69" transform="translate(57.958984 0)"/>
      <use xlink:href="#DejaVuSans-6d" transform="translate(85.742188 0)"/>
      <use xlink:href="#DejaVuSans-65" transform="translate(183.154297 0)"/>
      <use xlink:href="#DejaVuSans-20" transform="translate(244.677734 0)"/>
      <use xlink:href="#DejaVuSans-28" transform="translate(276.464844 0)"/>
      <use xlink:href="#DejaVuSans-73" transform="translate(315.478516 0)"/>
      <use xlink:href="#DejaVuSans-29" transform="translate(367.578125 0)"/>
     </g>
    </g>
   </g>
   <g id="matplotlib.axis_2">
    <g id="ytick_1">
     <g id="line2d_9">
      <defs>
       <path id="me1e2b7edf0" d="M 0 0 
L -3.5 0 
" style="stroke: #000000; stroke-width: 0.8"/>
      </defs>
      <g>
       <use xlink:href="#me1e2b7edf0" x="38.420552" y="396.93774" style="stroke: #000000; stroke-width: 0.8"/>
      </g>
     </g>
     <g id="text_10">
      <!-- −8 -->
      <g transform="translate(16.678365 400.736959) scale(0.1 -0.1)">
       <use xlink:href="#DejaVuSans-2212"/>
       <use xlink:href="#DejaVuSans-38" transform="translate(83.789062 0)"/>
      </g>
     </g>
    </g>
    <g id="ytick_2">
     <g id="line2d_10">
      <g>
       <use xlink:href="#me1e2b7edf0" x="38.420552" y="349.79854" style="stroke: #000000; stroke-width: 0.8"/>
      </g>
     </g>
     <g id="text_11">
      <!-- −6 -->
      <g transform="translate(16.678365 353.597758) scale(0.1 -0.1)">
       <use xlink:href="#DejaVuSans-2212"/>
       <use xlink:href="#DejaVuSans-36" transform="translate(83.789062 0)"/>
      </g>
     </g>
    </g>
    <g id="ytick_3">
     <g id="line2d_11">
      <g>
       <use xlink:href="#me1e2b7edf0" x="38.420552" y="302.659339" style="stroke: #000000; stroke-width: 0.8"/>
      </g>
     </g>
     <g id="text_12">
      <!-- −4 -->
      <g transform="translate(16.678365 306.458558) scale(0.1 -0.1)">
       <use xlink:href="#DejaVuSans-2212"/>
       <use xlink:href="#DejaVuSans-34" transform="translate(83.789062 0)"/>
      </g>
     </g>
    </g>
    <g id="ytick_4">
     <g id="line2d_12">
      <g>
       <use xlink:href="#me1e2b7edf0" x="38.420552" y="255.520138" style="stroke: #000000; stroke-width: 0.8"/>
      </g>
     </g>
     <g id="text_13">
      <!-- −2 -->
      <g transform="translate(16.678365 259.319357) scale(0.1 -0.1)">
       <use xlink:href="#DejaVuSans-2212"/>
       <use xlink:href="#DejaVuSans-32" transform="translate(83.789062 0)"/>
      </g>
     </g>
    </g>
    <g id="ytick_5">
     <g id="line2d_13">
      <g>
       <use xlink:href="#me1e2b7edf0" x="38.420552" y="208.380937" style="stroke: #000000; stroke-width: 0.8"/>
      </g>
     </g>
     <g id="text_14">
      <!-- 0 -->
      <g transform="translate(25.058052 212.180156) scale(0.1 -0.1)">
       <use xlink:href="#DejaVuSans-30"/>
      </g>
     </g>
    </g>
    <g id="ytick_6">
     <g id="line2d_14">
      <g>
       <use xlink:href="#me1e2b7edf0" x="38.420552" y="161.241737" style="stroke: #000000; stroke-width: 0.8"/>
      </g>
     </g>
     <g id="text_15">
      <!-- 2 -->
      <g transform="translate(25.058052 165.040956) scale(0.1 -0.1)">
       <use xlink:href="#DejaVuSans-32"/>
      </g>
     </g>
    </g>
    <g id="ytick_7">
     <g id="line2d_15">
      <g>
       <use xlink:href="#me1e2b7edf0" x="38.420552" y="114.102536" style="stroke: #000000; stroke-width: 0.8"/>
      </g>
     </g>
     <g id="text_16">
      <!-- 4 -->
      <g transform="translate(25.058052 117.901755) scale(0.1 -0.1)">
       <use xlink:href="#DejaVuSans-34"/>
      </g>
     </g>
    </g>
    <g id="ytick_8">
     <g id="line2d_16">
      <g>
       <use xlink:href="#me1e2b7edf0" x="38.420552" y="66.963335" style="stroke: #000000; stroke-width: 0.8"/>
      </g>
     </g>
     <g id="text_17">
      <!-- 6 -->
      <g transform="translate(25.058052 70.762554) scale(0.1 -0.1)">
       <use xlink:href="#DejaVuSans-36"/>
      </g>
     </g>
    </g>
    <g id="ytick_9">
     <g id="line2d_17">
      <g>
       <use xlink:href="#me1e2b7edf0" x="38.420552" y="19.824135" style="stroke: #000000; stroke-width: 0.8"/>
      </g>
     </g>
     <g id="text_18">
      <!-- 8 -->
      <g transform="translate(25.058052 23.623353) scale(0.1 -0.1)">
       <use xlink:href="#DejaVuSans-38"/>
      </g>
     </g>
    </g>
    <g id="text_19">
     <!-- µV -->
     <g transform="translate(10.598677 214.9825) rotate(-90) scale(0.1 -0.1)">
      <defs>
       <path id="DejaVuSans-b5" d="M 544 -1331 
L 544 3500 
L 1119 3500 
L 1119 1325 
Q 1119 872 1334 640 
Q 1550 409 1972 409 
Q 2434 409 2667 671 
Q 2900 934 2900 1459 
L 2900 3500 
L 3475 3500 
L 3475 806 
Q 3475 619 3529 530 
Q 3584 441 3700 441 
Q 3728 441 3778 458 
Q 3828 475 3916 513 
L 3916 50 
Q 3788 -22 3673 -56 
Q 3559 -91 3450 -91 
Q 3234 -91 3106 31 
Q 2978 153 2931 403 
Q 2775 156 2548 32 
Q 2322 -91 2016 -91 
Q 1697 -91 1473 31 
Q 1250 153 1119 397 
L 1119 -1331 
L 544 -1331 
z
" transform="scale(0.015625)"/>
       <path id="DejaVuSans-56" d="M 1831 0 
L 50 4666 
L 709 4666 
L 2188 738 
L 3669 4666 
L 4325 4666 
L 2547 0 
L 1831 0 
z
" transform="scale(0.015625)"/>
      </defs>
      <use xlink:href="#DejaVuSans-b5"/>
      <use xlink:href="#DejaVuSans-56" transform="translate(63.623047 0)"/>
     </g>
    </g>
   </g>
   <g id="patch_4">
    <path d="M 64.818666 398.64351 
L 510.591555 398.64351 
" style="fill: none; stroke: #000000; stroke-width: 0.8; stroke-linejoin: miter; stroke-linecap: square"/>
   </g>
   <g id="patch_5">
    <path d="M 38.420552 208.380938 
L 572.99976 208.380938 
" style="fill: none; stroke: #000000; stroke-width: 0.8; stroke-linejoin: miter; stroke-linecap: square"/>
   </g>
   <g id="text_20">
    <!-- wdf P600: P3, Pz, P4 (mean) -->
    <g transform="translate(221.107344 12.118365) scale(0.12 -0.12)">
     <defs>
      <path id="DejaVuSans-77" d="M 269 3500 
L 844 3500 
L 1563 769 
L 2278 3500 
L 2956 3500 
L 3675 769 
L 4391 3500 
L 4966 3500 
L 4050 0 
L 3372 0 
L 2619 2869 
L 1863 0 
L 1184 0 
L 269 3500 
z
" transform="scale(0.015625)"/>
      <path id="DejaVuSans-64" d="M 2906 2969 
L 2906 4863 
L 3481 4863 
L 3481 0 
L 2906 0 
L 2906 525 
Q 2725 213 2448 61 
Q 2172 -91 1784 -91 
Q 1150 -91 751 415 
Q 353 922 353 1747 
Q 353 2572 751 3078 
Q 1150 3584 1784 3584 
Q 2172 3584 2448 3432 
Q 2725 3281 2906 2969 
z
M 947 1747 
Q 947 1113 1208 752 
Q 1469 391 1925 391 
Q 2381 391 2643 752 
Q 2906 1113 2906 1747 
Q 2906 2381 2643 2742 
Q 2381 3103 1925 3103 
Q 1469 3103 1208 2742 
Q 947 2381 947 1747 
z
" transform="scale(0.015625)"/>
      <path id="DejaVuSans-66" d="M 2375 4863 
L 2375 4384 
L 1825 4384 
Q 1516 4384 1395 4259 
Q 1275 4134 1275 3809 
L 1275 3500 
L 2222 3500 
L 2222 3053 
L 1275 3053 
L 1275 0 
L 697 0 
L 697 3053 
L 147 3053 
L 147 3500 
L 697 3500 
L 697 3744 
Q 697 4328 969 4595 
Q 1241 4863 1831 4863 
L 2375 4863 
z
" transform="scale(0.015625)"/>
      <path id="DejaVuSans-50" d="M 1259 4147 
L 1259 2394 
L 2053 2394 
Q 2494 2394 2734 2622 
Q 2975 2850 2975 3272 
Q 2975 3691 2734 3919 
Q 2494 4147 2053 4147 
L 1259 4147 
z
M 628 4666 
L 2053 4666 
Q 2838 4666 3239 4311 
Q 3641 3956 3641 3272 
Q 3641 2581 3239 2228 
Q 2838 1875 2053 1875 
L 1259 1875 
L 1259 0 
L 628 0 
L 628 4666 
z
" transform="scale(0.015625)"/>
      <path id="DejaVuSans-3a" d="M 750 794 
L 1409 794 
L 1409 0 
L 750 0 
L 750 794 
z
M 750 3309 
L 1409 3309 
L 1409 2516 
L 750 2516 
L 750 3309 
z
" transform="scale(0.015625)"/>
      <path id="DejaVuSans-33" d="M 2597 2516 
Q 3050 2419 3304 2112 
Q 3559 1806 3559 1356 
Q 3559 666 3084 287 
Q 2609 -91 1734 -91 
Q 1441 -91 1130 -33 
Q 819 25 488 141 
L 488 750 
Q 750 597 1062 519 
Q 1375 441 1716 441 
Q 2309 441 2620 675 
Q 2931 909 2931 1356 
Q 2931 1769 2642 2001 
Q 2353 2234 1838 2234 
L 1294 2234 
L 1294 2753 
L 1863 2753 
Q 2328 2753 2575 2939 
Q 2822 3125 2822 3475 
Q 2822 3834 2567 4026 
Q 2313 4219 1838 4219 
Q 1578 4219 1281 4162 
Q 984 4106 628 3988 
L 628 4550 
Q 988 4650 1302 4700 
Q 1616 4750 1894 4750 
Q 2613 4750 3031 4423 
Q 3450 4097 3450 3541 
Q 3450 3153 3228 2886 
Q 3006 2619 2597 2516 
z
" transform="scale(0.015625)"/>
      <path id="DejaVuSans-2c" d="M 750 794 
L 1409 794 
L 1409 256 
L 897 -744 
L 494 -744 
L 750 256 
L 750 794 
z
" transform="scale(0.015625)"/>
      <path id="DejaVuSans-7a" d="M 353 3500 
L 3084 3500 
L 3084 2975 
L 922 459 
L 3084 459 
L 3084 0 
L 275 0 
L 275 525 
L 2438 3041 
L 353 3041 
L 353 3500 
z
" transform="scale(0.015625)"/>
      <path id="DejaVuSans-61" d="M 2194 1759 
Q 1497 1759 1228 1600 
Q 959 1441 959 1056 
Q 959 750 1161 570 
Q 1363 391 1709 391 
Q 2188 391 2477 730 
Q 2766 1069 2766 1631 
L 2766 1759 
L 2194 1759 
z
M 3341 1997 
L 3341 0 
L 2766 0 
L 2766 531 
Q 2569 213 2275 61 
Q 1981 -91 1556 -91 
Q 1019 -91 701 211 
Q 384 513 384 1019 
Q 384 1609 779 1909 
Q 1175 2209 1959 2209 
L 2766 2209 
L 2766 2266 
Q 2766 2663 2505 2880 
Q 2244 3097 1772 3097 
Q 1472 3097 1187 3025 
Q 903 2953 641 2809 
L 641 3341 
Q 956 3463 1253 3523 
Q 1550 3584 1831 3584 
Q 2591 3584 2966 3190 
Q 3341 2797 3341 1997 
z
" transform="scale(0.015625)"/>
      <path id="DejaVuSans-6e" d="M 3513 2113 
L 3513 0 
L 2938 0 
L 2938 2094 
Q 2938 2591 2744 2837 
Q 2550 3084 2163 3084 
Q 1697 3084 1428 2787 
Q 1159 2491 1159 1978 
L 1159 0 
L 581 0 
L 581 3500 
L 1159 3500 
L 1159 2956 
Q 1366 3272 1645 3428 
Q 1925 3584 2291 3584 
Q 2894 3584 3203 3211 
Q 3513 2838 3513 2113 
z
" transform="scale(0.015625)"/>
     </defs>
     <use xlink:href="#DejaVuSans-77"/>
     <use xlink:href="#DejaVuSans-64" transform="translate(81.787109 0)"/>
     <use xlink:href="#DejaVuSans-66" transform="translate(145.263672 0)"/>
     <use xlink:href="#DejaVuSans-20" transform="translate(180.46875 0)"/>
     <use xlink:href="#DejaVuSans-50" transform="translate(212.255859 0)"/>
     <use xlink:href="#DejaVuSans-36" transform="translate(272.558594 0)"/>
     <use xlink:href="#DejaVuSans-30" transform="translate(336.181641 0)"/>
     <use xlink:href="#DejaVuSans-30" transform="translate(399.804688 0)"/>
     <use xlink:href="#DejaVuSans-3a" transform="translate(463.427734 0)"/>
     <use xlink:href="#DejaVuSans-20" transform="translate(497.119141 0)"/>
     <use xlink:href="#DejaVuSans-50" transform="translate(528.90625 0)"/>
     <use xlink:href="#DejaVuSans-33" transform="translate(589.208984 0)"/>
     <use xlink:href="#DejaVuSans-2c" transform="translate(652.832031 0)"/>
     <use xlink:href="#DejaVuSans-20" transform="translate(684.619141 0)"/>
     <use xlink:href="#DejaVuSans-50" transform="translate(716.40625 0)"/>
     <use xlink:href="#DejaVuSans-7a" transform="translate(776.708984 0)"/>
     <use xlink:href="#DejaVuSans-2c" transform="translate(829.199219 0)"/>
     <use xlink:href="#DejaVuSans-20" transform="translate(860.986328 0)"/>
     <use xlink:href="#DejaVuSans-50" transform="translate(892.773438 0)"/>
     <use xlink:href="#DejaVuSans-34" transform="translate(953.076172 0)"/>
     <use xlink:href="#DejaVuSans-20" transform="translate(1016.699219 0)"/>
     <use xlink:href="#DejaVuSans-28" transform="translate(1048.486328 0)"/>
     <use xlink:href="#DejaVuSans-6d" transform="translate(1087.5 0)"/>
     <use xlink:href="#DejaVuSans-65" transform="translate(1184.912109 0)"/>
     <use xlink:href="#DejaVuSans-61" transform="translate(1246.435547 0)"/>
     <use xlink:href="#DejaVuSans-6e" transform="translate(1307.714844 0)"/>
     <use xlink:href="#DejaVuSans-29" transform="translate(1371.09375 0)"/>
    </g>
   </g>
   <g id="legend_1">
    <g id="patch_6">
     <path d="M 45.420552 55.75274 
L 126.56274 55.75274 
Q 128.56274 55.75274 128.56274 53.75274 
L 128.56274 25.118365 
Q 128.56274 23.118365 126.56274 23.118365 
L 45.420552 23.118365 
Q 43.420552 23.118365 43.420552 25.118365 
L 43.420552 53.75274 
Q 43.420552 55.75274 45.420552 55.75274 
z
" style="fill: #ffffff; opacity: 0.8; stroke: #cccccc; stroke-linejoin: miter"/>
    </g>
    <g id="line2d_18">
     <path d="M 47.420552 31.216803 
L 57.420552 31.216803 
L 67.420552 31.216803 
" style="fill: none; stroke: #1f77b4; stroke-width: 1.5; stroke-linecap: square"/>
    </g>
    <g id="text_21">
     <!-- eerie -->
     <g transform="translate(75.420552 34.716803) scale(0.1 -0.1)">
      <defs>
       <path id="DejaVuSans-72" d="M 2631 2963 
Q 2534 3019 2420 3045 
Q 2306 3072 2169 3072 
Q 1681 3072 1420 2755 
Q 1159 2438 1159 1844 
L 1159 0 
L 581 0 
L 581 3500 
L 1159 3500 
L 1159 2956 
Q 1341 3275 1631 3429 
Q 1922 3584 2338 3584 
Q 2397 3584 2469 3576 
Q 2541 3569 2628 3553 
L 2631 2963 
z
" transform="scale(0.015625)"/>
      </defs>
      <use xlink:href="#DejaVuSans-65"/>
      <use xlink:href="#DejaVuSans-65" transform="translate(61.523438 0)"/>
      <use xlink:href="#DejaVuSans-72" transform="translate(123.046875 0)"/>
      <use xlink:href="#DejaVuSans-69" transform="translate(164.160156 0)"/>
      <use xlink:href="#DejaVuSans-65" transform="translate(191.943359 0)"/>
     </g>
    </g>
    <g id="line2d_19">
     <path d="M 47.420552 45.894928 
L 57.420552 45.894928 
L 67.420552 45.894928 
" style="fill: none; stroke: #ff7f0e; stroke-width: 1.5; stroke-linecap: square"/>
    </g>
    <g id="text_22">
     <!-- non_eerie -->
     <g transform="translate(75.420552 49.394928) scale(0.1 -0.1)">
      <defs>
       <path id="DejaVuSans-6f" d="M 1959 3097 
Q 1497 3097 1228 2736 
Q 959 2375 959 1747 
Q 959 1119 1226 758 
Q 1494 397 1959 397 
Q 2419 397 2687 759 
Q 2956 1122 2956 1747 
Q 2956 2369 2687 2733 
Q 2419 3097 1959 3097 
z
M 1959 3584 
Q 2709 3584 3137 3096 
Q 3566 2609 3566 1747 
Q 3566 888 3137 398 
Q 2709 -91 1959 -91 
Q 1206 -91 779 398 
Q 353 888 353 1747 
Q 353 2609 779 3096 
Q 1206 3584 1959 3584 
z
" transform="scale(0.015625)"/>
       <path id="DejaVuSans-5f" d="M 3263 -1063 
L 3263 -1509 
L -63 -1509 
L -63 -1063 
L 3263 -1063 
z
" transform="scale(0.015625)"/>
      </defs>
      <use xlink:href="#DejaVuSans-6e"/>
      <use xlink:href="#DejaVuSans-6f" transform="translate(63.378906 0)"/>
      <use xlink:href="#DejaVuSans-6e" transform="translate(124.560547 0)"/>
      <use xlink:href="#DejaVuSans-5f" transform="translate(187.939453 0)"/>
      <use xlink:href="#DejaVuSans-65" transform="translate(237.939453 0)"/>
      <use xlink:href="#DejaVuSans-65" transform="translate(299.462891 0)"/>
      <use xlink:href="#DejaVuSans-72" transform="translate(360.986328 0)"/>
      <use xlink:href="#DejaVuSans-69" transform="translate(402.099609 0)"/>
      <use xlink:href="#DejaVuSans-65" transform="translate(429.882812 0)"/>
     </g>
    </g>
   </g>
   <g id="line2d_20">
    <path d="M 38.420552 197.034333 
L 40.161853 193.921824 
L 41.903153 191.126236 
L 43.644454 190.074625 
L 45.385754 190.789157 
L 47.127054 192.377819 
L 48.868355 193.807918 
L 50.609655 194.327672 
L 52.350955 193.483562 
L 54.092256 191.109358 
L 57.574856 183.657825 
L 59.316157 181.23453 
L 61.057457 181.862198 
L 62.798757 186.154431 
L 66.281358 200.441477 
L 68.022658 205.527173 
L 69.763959 206.978911 
L 71.505259 205.290168 
L 73.24656 202.553903 
L 74.98786 201.221705 
L 76.72916 202.7705 
L 78.470461 207.002309 
L 80.211761 212.341388 
L 81.953061 216.806045 
L 83.694362 219.055934 
L 85.435662 218.851989 
L 87.176962 216.846773 
L 92.400863 208.228877 
L 94.142164 205.856206 
L 95.883464 204.305767 
L 97.624764 204.180463 
L 99.366065 205.916385 
L 101.107365 209.372003 
L 104.589966 217.897126 
L 106.331266 221.032847 
L 108.072567 223.152205 
L 109.813867 224.999817 
L 111.555167 227.441221 
L 113.296468 230.770175 
L 115.037768 234.358488 
L 116.779068 236.946134 
L 118.520369 237.419907 
L 120.261669 235.500623 
L 123.74427 228.331493 
L 125.48557 226.061092 
L 127.22687 226.019856 
L 128.968171 228.163466 
L 132.450771 235.070951 
L 134.192072 237.220054 
L 135.933372 237.302346 
L 137.674672 235.458051 
L 139.415973 232.88896 
L 141.157273 231.497723 
L 142.898574 233.062675 
L 144.639874 238.248583 
L 148.122475 253.651865 
L 149.863775 258.437142 
L 151.605075 258.653087 
L 153.346376 254.806369 
L 155.087676 249.424544 
L 156.828976 245.719353 
L 158.570277 245.846953 
L 160.311577 249.804333 
L 162.052877 255.596911 
L 163.794178 260.490486 
L 165.535478 262.599999 
L 167.276778 261.869679 
L 169.018079 259.92153 
L 170.759379 258.955708 
L 172.500679 260.434614 
L 174.24198 264.333046 
L 175.98328 269.272965 
L 177.724581 273.365678 
L 179.465881 275.221339 
L 181.207181 274.603083 
L 182.948482 272.400081 
L 184.689782 269.918163 
L 186.431082 267.976479 
L 188.172383 266.252162 
L 189.913683 263.247217 
L 191.654983 257.030094 
L 193.396284 246.373837 
L 195.137584 231.693042 
L 196.878884 215.189226 
L 198.620185 199.967297 
L 200.361485 188.540768 
L 202.102785 181.591029 
L 203.844086 177.773769 
L 205.585386 174.683425 
L 207.326686 170.499852 
L 209.067987 165.142346 
L 210.809287 160.229477 
L 212.550588 157.851078 
L 214.291888 159.012439 
L 216.033188 162.827754 
L 217.774489 166.969936 
L 219.515789 169.060716 
L 221.257089 168.008047 
L 222.99839 164.421884 
L 224.73969 159.901403 
L 226.48099 155.794703 
L 229.963591 148.660392 
L 231.704891 143.575934 
L 233.446192 136.360315 
L 235.187492 127.131612 
L 238.670093 105.442645 
L 242.152693 83.942387 
L 243.893994 74.763436 
L 245.635294 67.693127 
L 247.376595 63.456107 
L 249.117895 62.270624 
L 250.859195 63.656076 
L 252.600496 66.609419 
L 254.341796 70.028571 
L 256.083096 73.114687 
L 257.824397 75.542116 
L 259.565697 77.326907 
L 261.306997 78.615656 
L 263.048298 79.506669 
L 264.789598 79.981515 
L 266.530898 79.863841 
L 268.272199 78.837148 
L 270.013499 76.501767 
L 271.754799 72.614623 
L 273.4961 67.403742 
L 275.2374 61.717254 
L 276.9787 56.851701 
L 278.720001 54.027081 
L 280.461301 53.746264 
L 282.202602 55.415016 
L 283.943902 57.558148 
L 285.685202 58.450917 
L 287.426503 56.937332 
L 289.167803 52.910911 
L 294.391704 36.153655 
L 296.133004 32.423214 
L 297.874305 29.883037 
L 301.356905 25.894718 
L 304.839506 21.195386 
L 306.580806 19.259129 
L 308.322107 18.21414 
L 310.063407 18.118365 
L 317.028609 19.961006 
L 318.769909 21.435813 
L 320.511209 24.388622 
L 323.99381 32.853905 
L 325.73511 35.86238 
L 327.476411 36.832912 
L 329.217711 36.196719 
L 330.959011 35.357053 
L 332.700312 35.732108 
L 334.441612 37.802714 
L 336.182912 40.81205 
L 337.924213 43.384542 
L 339.665513 44.579822 
L 343.148114 44.473115 
L 344.889414 45.367879 
L 346.630714 47.486836 
L 348.372015 50.004061 
L 350.113315 51.697944 
L 351.854616 51.914884 
L 355.337216 50.052164 
L 357.078517 50.020789 
L 358.819817 51.219544 
L 360.561117 53.264395 
L 362.302418 55.639766 
L 364.043718 58.236059 
L 365.785018 61.35267 
L 367.526319 65.2385 
L 369.267619 69.560141 
L 371.008919 73.316595 
L 372.75022 75.316006 
L 374.49152 74.895016 
L 376.23282 72.29002 
L 381.456721 60.70652 
L 384.939322 54.015736 
L 386.680623 50.979158 
L 388.421923 48.884181 
L 390.163223 48.62334 
L 391.904524 50.692629 
L 393.645824 54.731858 
L 395.387124 59.560419 
L 397.128425 63.721267 
L 398.869725 66.198015 
L 400.611025 66.863657 
L 402.352326 66.377138 
L 405.834926 64.872551 
L 407.576227 63.813114 
L 409.317527 61.538731 
L 411.058827 57.461159 
L 414.541428 46.385607 
L 416.282728 42.623266 
L 418.024029 41.973711 
L 419.765329 44.509129 
L 421.50663 49.100441 
L 423.24793 54.156976 
L 424.98923 58.55274 
L 428.471831 65.703357 
L 430.213131 69.859183 
L 435.437032 84.816684 
L 437.178333 88.503219 
L 438.919633 91.16623 
L 442.402234 95.122166 
L 445.884834 99.18131 
L 447.626135 101.44133 
L 449.367435 104.061392 
L 451.108735 107.242665 
L 456.332637 118.35357 
L 458.073937 121.253674 
L 461.556538 126.186092 
L 463.297838 129.445519 
L 465.039138 133.930079 
L 466.780439 139.712878 
L 472.00434 160.019702 
L 473.74564 165.318705 
L 475.48694 168.934044 
L 477.228241 170.914261 
L 478.969541 171.806201 
L 480.710841 172.402412 
L 482.452142 173.332475 
L 484.193442 174.76105 
L 487.676043 178.305357 
L 489.417343 180.498242 
L 491.158644 183.652536 
L 492.899944 188.221038 
L 496.382545 199.561406 
L 498.123845 203.662307 
L 499.865145 205.394314 
L 501.606446 205.268705 
L 503.347746 204.921146 
L 505.089046 206.130615 
L 506.830347 209.62403 
L 508.571647 214.551246 
L 510.312947 218.976357 
L 512.054248 221.100919 
L 513.795548 220.358313 
L 517.278149 214.974465 
L 519.019449 213.818009 
L 520.760749 214.878024 
L 522.50205 217.721471 
L 525.984651 224.931882 
L 532.949852 237.846326 
L 534.691152 241.343546 
L 536.432453 244.421004 
L 538.173753 246.526032 
L 539.915053 247.205524 
L 541.656354 246.281738 
L 543.397654 244.000938 
L 545.138954 241.183075 
L 546.880255 239.115302 
L 548.621555 239.161714 
L 550.362855 242.127651 
L 552.104156 247.703181 
L 553.845456 254.411261 
L 555.586756 260.200266 
L 557.328057 263.49884 
L 559.069357 264.109486 
L 560.810658 263.3205 
L 562.551958 263.100524 
L 564.293258 264.758953 
L 567.775859 271.307757 
L 569.517159 272.777611 
L 571.25846 272.017906 
L 572.99976 270.531461 
L 572.99976 270.531461 
" style="fill: none; stroke: #1f77b4; stroke-width: 1.5; stroke-linecap: square"/>
   </g>
   <g id="line2d_21">
    <path d="M 38.420552 189.604448 
L 40.161853 190.372886 
L 43.644454 193.839711 
L 45.385754 194.817051 
L 48.868355 195.531168 
L 50.609655 196.290513 
L 52.350955 197.367848 
L 54.092256 198.248692 
L 55.833556 198.516936 
L 57.574856 198.30497 
L 59.316157 198.26909 
L 61.057457 199.150247 
L 62.798757 201.246729 
L 66.281358 207.132495 
L 68.022658 209.252283 
L 69.763959 209.994012 
L 71.505259 209.220797 
L 73.24656 207.144688 
L 76.72916 201.428174 
L 78.470461 199.576701 
L 80.211761 199.619712 
L 81.953061 201.897667 
L 83.694362 205.854173 
L 85.435662 210.096003 
L 87.176962 212.985719 
L 88.918263 213.473318 
L 90.659563 211.636628 
L 92.400863 208.631562 
L 94.142164 206.046892 
L 95.883464 205.071784 
L 97.624764 205.952161 
L 101.107365 210.272396 
L 102.848665 211.952646 
L 106.331266 214.153567 
L 108.072567 216.06914 
L 109.813867 219.122344 
L 111.555167 222.879436 
L 113.296468 226.281218 
L 115.037768 228.227268 
L 116.779068 228.262198 
L 120.261669 225.691348 
L 122.002969 225.663022 
L 123.74427 227.179427 
L 125.48557 229.287532 
L 127.22687 230.364547 
L 128.968171 229.219648 
L 130.709471 225.973079 
L 132.450771 222.061376 
L 134.192072 219.301716 
L 135.933372 218.681811 
L 137.674672 219.800437 
L 139.415973 221.384866 
L 142.898574 223.573929 
L 144.639874 226.012449 
L 146.381174 231.250972 
L 148.122475 239.29986 
L 149.863775 248.303089 
L 151.605075 255.361643 
L 153.346376 258.137101 
L 155.087676 256.153703 
L 156.828976 250.946847 
L 158.570277 245.109539 
L 160.311577 240.957301 
L 162.052877 239.611639 
L 163.794178 240.97709 
L 165.535478 244.258545 
L 169.018079 252.683096 
L 170.759379 255.991953 
L 172.500679 257.684318 
L 174.24198 257.482119 
L 175.98328 255.782499 
L 177.724581 253.575501 
L 179.465881 251.927766 
L 181.207181 251.386787 
L 182.948482 251.730747 
L 184.689782 252.281489 
L 186.431082 252.458226 
L 188.172383 252.101244 
L 189.913683 251.290733 
L 191.654983 249.819277 
L 193.396284 246.871238 
L 195.137584 241.305278 
L 196.878884 232.435269 
L 198.620185 220.806857 
L 200.361485 208.226463 
L 202.102785 196.9574 
L 203.844086 188.553055 
L 205.585386 183.036167 
L 207.326686 178.977588 
L 209.067987 174.436878 
L 210.809287 168.164064 
L 214.291888 152.383894 
L 216.033188 146.176183 
L 217.774489 142.973221 
L 219.515789 142.91412 
L 221.257089 145.139196 
L 224.73969 151.495415 
L 226.48099 153.943661 
L 228.222291 155.472872 
L 229.963591 155.796844 
L 231.704891 154.314677 
L 233.446192 150.207278 
L 235.187492 142.93583 
L 236.928792 132.779006 
L 240.411393 109.46348 
L 242.152693 99.954302 
L 243.893994 93.397793 
L 245.635294 89.579163 
L 247.376595 87.418266 
L 249.117895 85.693142 
L 250.859195 83.710932 
L 252.600496 81.523939 
L 254.341796 79.71344 
L 256.083096 78.879196 
L 257.824397 79.242348 
L 259.565697 80.574853 
L 263.048298 84.051751 
L 264.789598 85.141527 
L 266.530898 85.297334 
L 268.272199 84.355055 
L 270.013499 82.458293 
L 271.754799 80.098245 
L 273.4961 77.957528 
L 275.2374 76.546811 
L 278.720001 74.995649 
L 280.461301 73.041138 
L 282.202602 69.257432 
L 283.943902 63.875911 
L 285.685202 58.075424 
L 287.426503 53.374916 
L 289.167803 50.765741 
L 290.909103 50.180612 
L 294.391704 51.097706 
L 296.133004 50.956913 
L 297.874305 50.535943 
L 299.615605 50.466546 
L 301.356905 50.937704 
L 303.098206 51.249044 
L 304.839506 50.078247 
L 306.580806 46.393396 
L 308.322107 40.358934 
L 310.063407 33.565367 
L 311.804707 28.364769 
L 313.546008 26.552219 
L 315.287308 28.33027 
L 317.028609 32.156411 
L 318.769909 35.645416 
L 320.511209 36.960285 
L 322.25251 35.872058 
L 323.99381 33.895038 
L 325.73511 33.359222 
L 327.476411 36.050185 
L 329.217711 42.214823 
L 332.700312 58.634395 
L 334.441612 64.890946 
L 336.182912 68.623307 
L 337.924213 70.377838 
L 339.665513 71.211545 
L 341.406813 71.87798 
L 343.148114 72.418566 
L 344.889414 72.370361 
L 346.630714 71.390979 
L 348.372015 69.761299 
L 350.113315 68.378711 
L 351.854616 68.243906 
L 353.595916 69.815374 
L 355.337216 72.726285 
L 357.078517 76.000976 
L 358.819817 78.628958 
L 360.561117 80.09463 
L 362.302418 80.534938 
L 364.043718 80.517852 
L 365.785018 80.683033 
L 367.526319 81.461378 
L 369.267619 83.007027 
L 371.008919 85.195076 
L 372.75022 87.66072 
L 374.49152 89.874339 
L 376.23282 91.27073 
L 377.974121 91.524643 
L 379.715421 90.809601 
L 381.456721 89.802514 
L 383.198022 89.336907 
L 384.939322 89.895043 
L 386.680623 91.298401 
L 388.421923 92.853915 
L 390.163223 93.878461 
L 391.904524 94.200153 
L 395.387124 94.23555 
L 397.128425 94.37411 
L 398.869725 93.999894 
L 400.611025 92.43073 
L 402.352326 89.599789 
L 404.093626 86.427032 
L 405.834926 84.383556 
L 407.576227 84.504566 
L 409.317527 86.587285 
L 411.058827 89.239893 
L 412.800128 90.863111 
L 414.541428 90.86699 
L 416.282728 90.178302 
L 418.024029 90.59582 
L 419.765329 93.477221 
L 421.50663 98.625836 
L 423.24793 104.267845 
L 424.98923 108.212345 
L 426.730531 109.340515 
L 428.471831 108.323805 
L 430.213131 107.114 
L 431.954432 107.541979 
L 433.695732 110.062112 
L 435.437032 113.577621 
L 437.178333 116.382615 
L 438.919633 117.481029 
L 440.660933 117.333232 
L 442.402234 117.493561 
L 444.143534 119.474807 
L 445.884834 123.726711 
L 449.367435 135.234462 
L 451.108735 140.275988 
L 452.850036 144.768773 
L 454.591336 149.657722 
L 456.332637 155.764484 
L 459.815237 170.288273 
L 461.556538 176.117946 
L 463.297838 179.448347 
L 465.039138 180.183928 
L 466.780439 179.165895 
L 468.521739 177.64883 
L 470.263039 176.730435 
L 472.00434 177.050413 
L 473.74564 178.769744 
L 475.48694 181.713266 
L 478.969541 189.250309 
L 480.710841 192.410204 
L 482.452142 194.388992 
L 484.193442 195.21133 
L 485.934742 195.559715 
L 487.676043 196.537314 
L 489.417343 199.128563 
L 491.158644 203.604798 
L 494.641244 215.162139 
L 496.382545 219.906307 
L 498.123845 223.117137 
L 499.865145 225.172018 
L 501.606446 227.021471 
L 503.347746 229.58763 
L 505.089046 233.232242 
L 508.571647 241.56145 
L 510.312947 244.350707 
L 512.054248 245.481549 
L 513.795548 245.247288 
L 515.536848 244.492027 
L 517.278149 244.11822 
L 519.019449 244.574832 
L 520.760749 245.61226 
L 522.50205 246.475965 
L 524.24335 246.426154 
L 525.984651 245.260637 
L 527.725951 243.519184 
L 529.467251 242.241734 
L 531.208552 242.452512 
L 532.949852 244.673514 
L 534.691152 248.782481 
L 536.432453 254.226943 
L 541.656354 272.512335 
L 543.397654 277.494362 
L 545.138954 280.933269 
L 546.880255 282.344884 
L 548.621555 281.720835 
L 550.362855 279.605851 
L 557.328057 268.46748 
L 559.069357 264.950658 
L 560.810658 261.135741 
L 562.551958 257.993749 
L 564.293258 256.743178 
L 566.034559 258.086177 
L 567.775859 261.673901 
L 569.517159 266.242388 
L 571.25846 270.318589 
L 572.99976 273.063801 
L 572.99976 273.063801 
" style="fill: none; stroke: #ff7f0e; stroke-width: 1.5; stroke-linecap: square"/>
   </g>
  </g>
  <g id="axes_2">
   <g id="PathCollection_1">
    <defs>
     <path id="C0_0_113921d1dd" d="M 0 1.118034 
C 0.296506 1.118034 0.580908 1.000231 0.790569 0.790569 
C 1.000231 0.580908 1.118034 0.296506 1.118034 -0 
C 1.118034 -0.296506 1.000231 -0.580908 0.790569 -0.790569 
C 0.580908 -1.000231 0.296506 -1.118034 0 -1.118034 
C -0.296506 -1.118034 -0.580908 -1.000231 -0.790569 -0.790569 
C -1.000231 -0.580908 -1.118034 -0.296506 -1.118034 0 
C -1.118034 0.296506 -1.000231 0.580908 -0.790569 0.790569 
C -0.580908 1.000231 -0.296506 1.118034 0 1.118034 
z
"/>
    </defs>
    <g clip-path="url(#p5e005d6493)">
     <use xlink:href="#C0_0_113921d1dd" x="505.137683" y="86.07152" style="stroke: #000000"/>
    </g>
    <g clip-path="url(#p5e005d6493)">
     <use xlink:href="#C0_0_113921d1dd" x="535.672968" y="86.081495" style="stroke: #000000"/>
    </g>
    <g clip-path="url(#p5e005d6493)">
     <use xlink:href="#C0_0_113921d1dd" x="520.157608" y="85.803835" style="stroke: #000000"/>
    </g>
   </g>
   <g id="matplotlib.axis_3"/>
   <g id="matplotlib.axis_4"/>
   <g id="line2d_22">
    <path d="M 559.991178 73.637025 
L 559.913484 71.164739 
L 559.680706 68.70221 
L 559.293765 66.259156 
L 558.754186 63.845219 
L 558.064099 61.469927 
L 557.226229 59.142652 
L 556.243881 56.87258 
L 555.120932 54.668669 
L 553.861815 52.539618 
L 552.471498 50.493829 
L 550.955468 48.539375 
L 549.319709 46.68397 
L 547.570676 44.934937 
L 545.715271 43.299178 
L 543.760817 41.783148 
L 541.715028 40.392831 
L 539.585977 39.133714 
L 537.382067 38.010765 
L 535.111994 37.028417 
L 532.78472 36.190547 
L 530.409427 35.50046 
L 527.99549 34.960882 
L 525.552436 34.57394 
L 523.089907 34.341162 
L 520.617621 34.263468 
L 518.145335 34.341162 
L 515.682806 34.57394 
L 513.239752 34.960882 
L 510.825816 35.50046 
L 508.450523 36.190547 
L 506.123248 37.028417 
L 503.853176 38.010765 
L 501.649265 39.133714 
L 499.520214 40.392831 
L 497.474425 41.783148 
L 495.519971 43.299178 
L 493.664567 44.934937 
L 491.915533 46.68397 
L 490.279774 48.539375 
L 488.763744 50.493829 
L 487.373427 52.539618 
L 486.11431 54.668669 
L 484.991361 56.87258 
L 484.009014 59.142652 
L 483.171143 61.469927 
L 482.481057 63.845219 
L 481.941478 66.259156 
L 481.554536 68.70221 
L 481.321759 71.164739 
L 481.244064 73.637025 
L 481.321759 76.109311 
L 481.554536 78.57184 
L 481.941478 81.014894 
L 482.481057 83.42883 
L 483.171143 85.804123 
L 484.009014 88.131398 
L 484.991361 90.40147 
L 486.11431 92.605381 
L 487.373427 94.734432 
L 488.763744 96.780221 
L 490.279774 98.734675 
L 491.915533 100.59008 
L 493.664567 102.339113 
L 495.519971 103.974872 
L 497.474425 105.490902 
L 499.520214 106.881219 
L 501.649265 108.140336 
L 503.853176 109.263285 
L 506.123248 110.245633 
L 508.450523 111.083503 
L 510.825816 111.773589 
L 513.239752 112.313168 
L 515.682806 112.70011 
L 518.145335 112.932887 
L 520.617621 113.010582 
L 523.089907 112.932887 
L 525.552436 112.70011 
L 527.99549 112.313168 
L 530.409427 111.773589 
L 532.78472 111.083503 
L 535.111994 110.245633 
L 537.382067 109.263285 
L 539.585977 108.140336 
L 541.715028 106.881219 
L 543.760817 105.490902 
L 545.715271 103.974872 
L 547.570676 102.339113 
L 549.319709 100.59008 
L 550.955468 98.734675 
L 552.471498 96.780221 
L 553.861815 94.734432 
L 555.120932 92.605381 
L 556.243881 90.40147 
L 557.226229 88.131398 
L 558.064099 85.804123 
L 558.754186 83.42883 
L 559.293765 81.014894 
L 559.680706 78.57184 
L 559.913484 76.109311 
L 559.991178 73.637025 
" style="fill: none; stroke: #000000; stroke-linecap: square"/>
   </g>
   <g id="line2d_23">
    <path d="M 512.371243 35.13671 
L 520.617621 28.357434 
L 528.864 35.13671 
" style="fill: none; stroke: #000000; stroke-linecap: square"/>
   </g>
   <g id="line2d_24">
    <path d="M 481.480305 69.26656 
L 480.456593 67.534124 
L 479.826616 67.471126 
L 478.889525 67.76249 
L 477.94456 69.26656 
L 478.094179 74.070134 
L 477.54295 80.976256 
L 478.724156 83.976521 
L 480.456593 84.535626 
L 482.110282 83.078804 
" style="fill: none; stroke: #000000; stroke-linecap: square"/>
   </g>
   <g id="line2d_25">
    <path d="M 559.754937 69.26656 
L 560.77865 67.534124 
L 561.408627 67.471126 
L 562.345717 67.76249 
L 563.290683 69.26656 
L 563.141063 74.070134 
L 563.692293 80.976256 
L 562.511086 83.976521 
L 560.77865 84.535626 
L 559.12496 83.078804 
" style="fill: none; stroke: #000000; stroke-linecap: square"/>
   </g>
  </g>
 </g>
 <defs>
  <clipPath id="p256bf4f844">
   <rect x="38.420552" y="18.118365" width="534.579207" height="380.525145"/>
  </clipPath>
  <clipPath id="p5e005d6493">
   <rect x="473.235482" y="24.124777" width="94.764278" height="93.118463"/>
  </clipPath>
 </defs>
</svg>
