<?xml version="1.0" encoding="utf-8" standalone="no"?>
<!DOCTYPE svg PUBLIC "-//W3C//DTD SVG 1.1//EN"
  "http://www.w3.org/Graphics/SVG/1.1/DTD/svg11.dtd">
<svg xmlns:xlink="http://www.w3.org/1999/xlink" width="576pt" height="432pt" viewBox="0 0 576 432" xmlns="http://www.w3.org/2000/svg" version="1.1">
 <metadata>
  <rdf:RDF xmlns:dc="http://purl.org/dc/elements/1.1/" xmlns:cc="http://creativecommons.org/ns#" xmlns:rdf="http://www.w3.org/1999/02/22-rdf-syntax-ns#">
   <cc:Work>
    <dc:type rdf:resource="http://purl.org/dc/dcmitype/StillImage"/>
    <dc:date>2025-02-14T14:06:34.937643</dc:date>
    <dc:format>image/svg+xml</dc:format>
    <dc:creator>
     <cc:Agent>
      <dc:title>Matplotlib v3.10.0, https://matplotlib.org/</dc:title>
     </cc:Agent>
    </dc:creator>
   </cc:Work>
  </rdf:RDF>
 </metadata>
 <defs>
  <style type="text/css">*{stroke-linejoin: round; stroke-linecap: butt}</style>
 </defs>
 <g id="figure_1">
  <g id="patch_1">
   <path d="M 0 432 
L 576 432 
L 576 0 
L 0 0 
z
" style="fill: #ffffff"/>
  </g>
  <g id="axes_1">
   <g id="patch_2">
    <path d="M 38.420552 398.64351 
L 572.99976 398.64351 
L 572.99976 18.118365 
L 38.420552 18.118365 
L 38.420552 398.64351 
z
" style="fill: none; opacity: 0"/>
   </g>
   <g id="patch_3">
    <path d="M 38.420552 345.870115 
L 38.420552 70.89176 
" style="fill: none; stroke: #000000; stroke-width: 0.8; stroke-linejoin: miter; stroke-linecap: square"/>
   </g>
   <g id="LineCollection_1">
    <path d="M 185.177346 18.118365 
L 185.177346 398.64351 
" clip-path="url(#p6363546482)" style="fill: none; stroke-dasharray: 3.7,1.6; stroke-dashoffset: 0; stroke: #000000"/>
    <path d="M 225.296906 18.118365 
L 225.296906 398.64351 
" clip-path="url(#p6363546482)" style="fill: none; stroke-dasharray: 3.7,1.6; stroke-dashoffset: 0; stroke: #000000"/>
   </g>
   <g id="matplotlib.axis_1">
    <g id="xtick_1">
     <g id="line2d_1">
      <defs>
       <path id="ma73c448f91" d="M 0 0 
L 0 3.5 
" style="stroke: #000000; stroke-width: 0.8"/>
      </defs>
      <g>
       <use xlink:href="#ma73c448f91" x="64.818666" y="398.64351" style="stroke: #000000; stroke-width: 0.8"/>
      </g>
     </g>
     <g id="text_1">
      <!-- −0.20 -->
      <g transform="translate(49.49601 413.241947) scale(0.1 -0.1)">
       <defs>
        <path id="DejaVuSans-2212" d="M 678 2272 
L 4684 2272 
L 4684 1741 
L 678 1741 
L 678 2272 
z
" transform="scale(0.015625)"/>
        <path id="DejaVuSans-30" d="M 2034 4250 
Q 1547 4250 1301 3770 
Q 1056 3291 1056 2328 
Q 1056 1369 1301 889 
Q 1547 409 2034 409 
Q 2525 409 2770 889 
Q 3016 1369 3016 2328 
Q 3016 3291 2770 3770 
Q 2525 4250 2034 4250 
z
M 2034 4750 
Q 2819 4750 3233 4129 
Q 3647 3509 3647 2328 
Q 3647 1150 3233 529 
Q 2819 -91 2034 -91 
Q 1250 -91 836 529 
Q 422 1150 422 2328 
Q 422 3509 836 4129 
Q 1250 4750 2034 4750 
z
" transform="scale(0.015625)"/>
        <path id="DejaVuSans-2e" d="M 684 794 
L 1344 794 
L 1344 0 
L 684 0 
L 684 794 
z
" transform="scale(0.015625)"/>
        <path id="DejaVuSans-32" d="M 1228 531 
L 3431 531 
L 3431 0 
L 469 0 
L 469 531 
Q 828 903 1448 1529 
Q 2069 2156 2228 2338 
Q 2531 2678 2651 2914 
Q 2772 3150 2772 3378 
Q 2772 3750 2511 3984 
Q 2250 4219 1831 4219 
Q 1534 4219 1204 4116 
Q 875 4013 500 3803 
L 500 4441 
Q 881 4594 1212 4672 
Q 1544 4750 1819 4750 
Q 2544 4750 2975 4387 
Q 3406 4025 3406 3419 
Q 3406 3131 3298 2873 
Q 3191 2616 2906 2266 
Q 2828 2175 2409 1742 
Q 1991 1309 1228 531 
z
" transform="scale(0.015625)"/>
       </defs>
       <use xlink:href="#DejaVuSans-2212"/>
       <use xlink:href="#DejaVuSans-30" transform="translate(83.789062 0)"/>
       <use xlink:href="#DejaVuSans-2e" transform="translate(147.412109 0)"/>
       <use xlink:href="#DejaVuSans-32" transform="translate(179.199219 0)"/>
       <use xlink:href="#DejaVuSans-30" transform="translate(242.822266 0)"/>
      </g>
     </g>
    </g>
    <g id="xtick_2">
     <g id="line2d_2">
      <g>
       <use xlink:href="#ma73c448f91" x="153.973244" y="398.64351" style="stroke: #000000; stroke-width: 0.8"/>
      </g>
     </g>
     <g id="text_2">
      <!-- 0.00 -->
      <g transform="translate(142.840431 413.241947) scale(0.1 -0.1)">
       <use xlink:href="#DejaVuSans-30"/>
       <use xlink:href="#DejaVuSans-2e" transform="translate(63.623047 0)"/>
       <use xlink:href="#DejaVuSans-30" transform="translate(95.410156 0)"/>
       <use xlink:href="#DejaVuSans-30" transform="translate(159.033203 0)"/>
      </g>
     </g>
    </g>
    <g id="xtick_3">
     <g id="line2d_3">
      <g>
       <use xlink:href="#ma73c448f91" x="185.177346" y="398.64351" style="stroke: #000000; stroke-width: 0.8"/>
      </g>
     </g>
     <g id="text_3">
      <!-- 0.07 -->
      <g transform="translate(174.044534 413.241947) scale(0.1 -0.1)">
       <defs>
        <path id="DejaVuSans-37" d="M 525 4666 
L 3525 4666 
L 3525 4397 
L 1831 0 
L 1172 0 
L 2766 4134 
L 525 4134 
L 525 4666 
z
" transform="scale(0.015625)"/>
       </defs>
       <use xlink:href="#DejaVuSans-30"/>
       <use xlink:href="#DejaVuSans-2e" transform="translate(63.623047 0)"/>
       <use xlink:href="#DejaVuSans-30" transform="translate(95.410156 0)"/>
       <use xlink:href="#DejaVuSans-37" transform="translate(159.033203 0)"/>
      </g>
     </g>
    </g>
    <g id="xtick_4">
     <g id="line2d_4">
      <g>
       <use xlink:href="#ma73c448f91" x="225.296906" y="398.64351" style="stroke: #000000; stroke-width: 0.8"/>
      </g>
     </g>
     <g id="text_4">
      <!-- 0.16 -->
      <g transform="translate(214.164094 413.241947) scale(0.1 -0.1)">
       <defs>
        <path id="DejaVuSans-31" d="M 794 531 
L 1825 531 
L 1825 4091 
L 703 3866 
L 703 4441 
L 1819 4666 
L 2450 4666 
L 2450 531 
L 3481 531 
L 3481 0 
L 794 0 
L 794 531 
z
" transform="scale(0.015625)"/>
        <path id="DejaVuSans-36" d="M 2113 2584 
Q 1688 2584 1439 2293 
Q 1191 2003 1191 1497 
Q 1191 994 1439 701 
Q 1688 409 2113 409 
Q 2538 409 2786 701 
Q 3034 994 3034 1497 
Q 3034 2003 2786 2293 
Q 2538 2584 2113 2584 
z
M 3366 4563 
L 3366 3988 
Q 3128 4100 2886 4159 
Q 2644 4219 2406 4219 
Q 1781 4219 1451 3797 
Q 1122 3375 1075 2522 
Q 1259 2794 1537 2939 
Q 1816 3084 2150 3084 
Q 2853 3084 3261 2657 
Q 3669 2231 3669 1497 
Q 3669 778 3244 343 
Q 2819 -91 2113 -91 
Q 1303 -91 875 529 
Q 447 1150 447 2328 
Q 447 3434 972 4092 
Q 1497 4750 2381 4750 
Q 2619 4750 2861 4703 
Q 3103 4656 3366 4563 
z
" transform="scale(0.015625)"/>
       </defs>
       <use xlink:href="#DejaVuSans-30"/>
       <use xlink:href="#DejaVuSans-2e" transform="translate(63.623047 0)"/>
       <use xlink:href="#DejaVuSans-31" transform="translate(95.410156 0)"/>
       <use xlink:href="#DejaVuSans-36" transform="translate(159.033203 0)"/>
      </g>
     </g>
    </g>
    <g id="xtick_5">
     <g id="line2d_5">
      <g>
       <use xlink:href="#ma73c448f91" x="243.127822" y="398.64351" style="stroke: #000000; stroke-width: 0.8"/>
      </g>
     </g>
     <g id="text_5">
      <!-- 0.20 -->
      <g transform="translate(231.995009 413.241947) scale(0.1 -0.1)">
       <use xlink:href="#DejaVuSans-30"/>
       <use xlink:href="#DejaVuSans-2e" transform="translate(63.623047 0)"/>
       <use xlink:href="#DejaVuSans-32" transform="translate(95.410156 0)"/>
       <use xlink:href="#DejaVuSans-30" transform="translate(159.033203 0)"/>
      </g>
     </g>
    </g>
    <g id="xtick_6">
     <g id="line2d_6">
      <g>
       <use xlink:href="#ma73c448f91" x="332.2824" y="398.64351" style="stroke: #000000; stroke-width: 0.8"/>
      </g>
     </g>
     <g id="text_6">
      <!-- 0.40 -->
      <g transform="translate(321.149587 413.241947) scale(0.1 -0.1)">
       <defs>
        <path id="DejaVuSans-34" d="M 2419 4116 
L 825 1625 
L 2419 1625 
L 2419 4116 
z
M 2253 4666 
L 3047 4666 
L 3047 1625 
L 3713 1625 
L 3713 1100 
L 3047 1100 
L 3047 0 
L 2419 0 
L 2419 1100 
L 313 1100 
L 313 1709 
L 2253 4666 
z
" transform="scale(0.015625)"/>
       </defs>
       <use xlink:href="#DejaVuSans-30"/>
       <use xlink:href="#DejaVuSans-2e" transform="translate(63.623047 0)"/>
       <use xlink:href="#DejaVuSans-34" transform="translate(95.410156 0)"/>
       <use xlink:href="#DejaVuSans-30" transform="translate(159.033203 0)"/>
      </g>
     </g>
    </g>
    <g id="xtick_7">
     <g id="line2d_7">
      <g>
       <use xlink:href="#ma73c448f91" x="421.436978" y="398.64351" style="stroke: #000000; stroke-width: 0.8"/>
      </g>
     </g>
     <g id="text_7">
      <!-- 0.60 -->
      <g transform="translate(410.304165 413.241947) scale(0.1 -0.1)">
       <use xlink:href="#DejaVuSans-30"/>
       <use xlink:href="#DejaVuSans-2e" transform="translate(63.623047 0)"/>
       <use xlink:href="#DejaVuSans-36" transform="translate(95.410156 0)"/>
       <use xlink:href="#DejaVuSans-30" transform="translate(159.033203 0)"/>
      </g>
     </g>
    </g>
    <g id="xtick_8">
     <g id="line2d_8">
      <g>
       <use xlink:href="#ma73c448f91" x="510.591555" y="398.64351" style="stroke: #000000; stroke-width: 0.8"/>
      </g>
     </g>
     <g id="text_8">
      <!-- 0.80 -->
      <g transform="translate(499.458743 413.241947) scale(0.1 -0.1)">
       <defs>
        <path id="DejaVuSans-38" d="M 2034 2216 
Q 1584 2216 1326 1975 
Q 1069 1734 1069 1313 
Q 1069 891 1326 650 
Q 1584 409 2034 409 
Q 2484 409 2743 651 
Q 3003 894 3003 1313 
Q 3003 1734 2745 1975 
Q 2488 2216 2034 2216 
z
M 1403 2484 
Q 997 2584 770 2862 
Q 544 3141 544 3541 
Q 544 4100 942 4425 
Q 1341 4750 2034 4750 
Q 2731 4750 3128 4425 
Q 3525 4100 3525 3541 
Q 3525 3141 3298 2862 
Q 3072 2584 2669 2484 
Q 3125 2378 3379 2068 
Q 3634 1759 3634 1313 
Q 3634 634 3220 271 
Q 2806 -91 2034 -91 
Q 1263 -91 848 271 
Q 434 634 434 1313 
Q 434 1759 690 2068 
Q 947 2378 1403 2484 
z
M 1172 3481 
Q 1172 3119 1398 2916 
Q 1625 2713 2034 2713 
Q 2441 2713 2670 2916 
Q 2900 3119 2900 3481 
Q 2900 3844 2670 4047 
Q 2441 4250 2034 4250 
Q 1625 4250 1398 4047 
Q 1172 3844 1172 3481 
z
" transform="scale(0.015625)"/>
       </defs>
       <use xlink:href="#DejaVuSans-30"/>
       <use xlink:href="#DejaVuSans-2e" transform="translate(63.623047 0)"/>
       <use xlink:href="#DejaVuSans-38" transform="translate(95.410156 0)"/>
       <use xlink:href="#DejaVuSans-30" transform="translate(159.033203 0)"/>
      </g>
     </g>
    </g>
    <g id="text_9">
     <!-- Time (s) -->
     <g transform="translate(285.38125 426.920073) scale(0.1 -0.1)">
      <defs>
       <path id="DejaVuSans-54" d="M -19 4666 
L 3928 4666 
L 3928 4134 
L 2272 4134 
L 2272 0 
L 1638 0 
L 1638 4134 
L -19 4134 
L -19 4666 
z
" transform="scale(0.015625)"/>
       <path id="DejaVuSans-69" d="M 603 3500 
L 1178 3500 
L 1178 0 
L 603 0 
L 603 3500 
z
M 603 4863 
L 1178 4863 
L 1178 4134 
L 603 4134 
L 603 4863 
z
" transform="scale(0.015625)"/>
       <path id="DejaVuSans-6d" d="M 3328 2828 
Q 3544 3216 3844 3400 
Q 4144 3584 4550 3584 
Q 5097 3584 5394 3201 
Q 5691 2819 5691 2113 
L 5691 0 
L 5113 0 
L 5113 2094 
Q 5113 2597 4934 2840 
Q 4756 3084 4391 3084 
Q 3944 3084 3684 2787 
Q 3425 2491 3425 1978 
L 3425 0 
L 2847 0 
L 2847 2094 
Q 2847 2600 2669 2842 
Q 2491 3084 2119 3084 
Q 1678 3084 1418 2786 
Q 1159 2488 1159 1978 
L 1159 0 
L 581 0 
L 581 3500 
L 1159 3500 
L 1159 2956 
Q 1356 3278 1631 3431 
Q 1906 3584 2284 3584 
Q 2666 3584 2933 3390 
Q 3200 3197 3328 2828 
z
" transform="scale(0.015625)"/>
       <path id="DejaVuSans-65" d="M 3597 1894 
L 3597 1613 
L 953 1613 
Q 991 1019 1311 708 
Q 1631 397 2203 397 
Q 2534 397 2845 478 
Q 3156 559 3463 722 
L 3463 178 
Q 3153 47 2828 -22 
Q 2503 -91 2169 -91 
Q 1331 -91 842 396 
Q 353 884 353 1716 
Q 353 2575 817 3079 
Q 1281 3584 2069 3584 
Q 2775 3584 3186 3129 
Q 3597 2675 3597 1894 
z
M 3022 2063 
Q 3016 2534 2758 2815 
Q 2500 3097 2075 3097 
Q 1594 3097 1305 2825 
Q 1016 2553 972 2059 
L 3022 2063 
z
" transform="scale(0.015625)"/>
       <path id="DejaVuSans-20" transform="scale(0.015625)"/>
       <path id="DejaVuSans-28" d="M 1984 4856 
Q 1566 4138 1362 3434 
Q 1159 2731 1159 2009 
Q 1159 1288 1364 580 
Q 1569 -128 1984 -844 
L 1484 -844 
Q 1016 -109 783 600 
Q 550 1309 550 2009 
Q 550 2706 781 3412 
Q 1013 4119 1484 4856 
L 1984 4856 
z
" transform="scale(0.015625)"/>
       <path id="DejaVuSans-73" d="M 2834 3397 
L 2834 2853 
Q 2591 2978 2328 3040 
Q 2066 3103 1784 3103 
Q 1356 3103 1142 2972 
Q 928 2841 928 2578 
Q 928 2378 1081 2264 
Q 1234 2150 1697 2047 
L 1894 2003 
Q 2506 1872 2764 1633 
Q 3022 1394 3022 966 
Q 3022 478 2636 193 
Q 2250 -91 1575 -91 
Q 1294 -91 989 -36 
Q 684 19 347 128 
L 347 722 
Q 666 556 975 473 
Q 1284 391 1588 391 
Q 1994 391 2212 530 
Q 2431 669 2431 922 
Q 2431 1156 2273 1281 
Q 2116 1406 1581 1522 
L 1381 1569 
Q 847 1681 609 1914 
Q 372 2147 372 2553 
Q 372 3047 722 3315 
Q 1072 3584 1716 3584 
Q 2034 3584 2315 3537 
Q 2597 3491 2834 3397 
z
" transform="scale(0.015625)"/>
       <path id="DejaVuSans-29" d="M 513 4856 
L 1013 4856 
Q 1481 4119 1714 3412 
Q 1947 2706 1947 2009 
Q 1947 1309 1714 600 
Q 1481 -109 1013 -844 
L 513 -844 
Q 928 -128 1133 580 
Q 1338 1288 1338 2009 
Q 1338 2731 1133 3434 
Q 928 4138 513 4856 
z
" transform="scale(0.015625)"/>
      </defs>
      <use xlink:href="#DejaVuSans-54"/>
      <use xlink:href="#DejaVuSans-69" transform="translate(57.958984 0)"/>
      <use xlink:href="#DejaVuSans-6d" transform="translate(85.742188 0)"/>
      <use xlink:href="#DejaVuSans-65" transform="translate(183.154297 0)"/>
      <use xlink:href="#DejaVuSans-20" transform="translate(244.677734 0)"/>
      <use xlink:href="#DejaVuSans-28" transform="translate(276.464844 0)"/>
      <use xlink:href="#DejaVuSans-73" transform="translate(315.478516 0)"/>
      <use xlink:href="#DejaVuSans-29" transform="translate(367.578125 0)"/>
     </g>
    </g>
   </g>
   <g id="matplotlib.axis_2">
    <g id="ytick_1">
     <g id="line2d_9">
      <defs>
       <path id="m083f872a55" d="M 0 0 
L -3.5 0 
" style="stroke: #000000; stroke-width: 0.8"/>
      </defs>
      <g>
       <use xlink:href="#m083f872a55" x="38.420552" y="345.870115" style="stroke: #000000; stroke-width: 0.8"/>
      </g>
     </g>
     <g id="text_10">
      <!-- −2 -->
      <g transform="translate(16.678365 349.669333) scale(0.1 -0.1)">
       <use xlink:href="#DejaVuSans-2212"/>
       <use xlink:href="#DejaVuSans-32" transform="translate(83.789062 0)"/>
      </g>
     </g>
    </g>
    <g id="ytick_2">
     <g id="line2d_10">
      <g>
       <use xlink:href="#m083f872a55" x="38.420552" y="277.125526" style="stroke: #000000; stroke-width: 0.8"/>
      </g>
     </g>
     <g id="text_11">
      <!-- −1 -->
      <g transform="translate(16.678365 280.924745) scale(0.1 -0.1)">
       <use xlink:href="#DejaVuSans-2212"/>
       <use xlink:href="#DejaVuSans-31" transform="translate(83.789062 0)"/>
      </g>
     </g>
    </g>
    <g id="ytick_3">
     <g id="line2d_11">
      <g>
       <use xlink:href="#m083f872a55" x="38.420552" y="208.380937" style="stroke: #000000; stroke-width: 0.8"/>
      </g>
     </g>
     <g id="text_12">
      <!-- 0 -->
      <g transform="translate(25.058052 212.180156) scale(0.1 -0.1)">
       <use xlink:href="#DejaVuSans-30"/>
      </g>
     </g>
    </g>
    <g id="ytick_4">
     <g id="line2d_12">
      <g>
       <use xlink:href="#m083f872a55" x="38.420552" y="139.636349" style="stroke: #000000; stroke-width: 0.8"/>
      </g>
     </g>
     <g id="text_13">
      <!-- 1 -->
      <g transform="translate(25.058052 143.435568) scale(0.1 -0.1)">
       <use xlink:href="#DejaVuSans-31"/>
      </g>
     </g>
    </g>
    <g id="ytick_5">
     <g id="line2d_13">
      <g>
       <use xlink:href="#m083f872a55" x="38.420552" y="70.89176" style="stroke: #000000; stroke-width: 0.8"/>
      </g>
     </g>
     <g id="text_14">
      <!-- 2 -->
      <g transform="translate(25.058052 74.690979) scale(0.1 -0.1)">
       <use xlink:href="#DejaVuSans-32"/>
      </g>
     </g>
    </g>
    <g id="text_15">
     <!-- µV -->
     <g transform="translate(10.598677 214.9825) rotate(-90) scale(0.1 -0.1)">
      <defs>
       <path id="DejaVuSans-b5" d="M 544 -1331 
L 544 3500 
L 1119 3500 
L 1119 1325 
Q 1119 872 1334 640 
Q 1550 409 1972 409 
Q 2434 409 2667 671 
Q 2900 934 2900 1459 
L 2900 3500 
L 3475 3500 
L 3475 806 
Q 3475 619 3529 530 
Q 3584 441 3700 441 
Q 3728 441 3778 458 
Q 3828 475 3916 513 
L 3916 50 
Q 3788 -22 3673 -56 
Q 3559 -91 3450 -91 
Q 3234 -91 3106 31 
Q 2978 153 2931 403 
Q 2775 156 2548 32 
Q 2322 -91 2016 -91 
Q 1697 -91 1473 31 
Q 1250 153 1119 397 
L 1119 -1331 
L 544 -1331 
z
" transform="scale(0.015625)"/>
       <path id="DejaVuSans-56" d="M 1831 0 
L 50 4666 
L 709 4666 
L 2188 738 
L 3669 4666 
L 4325 4666 
L 2547 0 
L 1831 0 
z
" transform="scale(0.015625)"/>
      </defs>
      <use xlink:href="#DejaVuSans-b5"/>
      <use xlink:href="#DejaVuSans-56" transform="translate(63.623047 0)"/>
     </g>
    </g>
   </g>
   <g id="patch_4">
    <path d="M 64.818666 398.64351 
L 510.591555 398.64351 
" style="fill: none; stroke: #000000; stroke-width: 0.8; stroke-linejoin: miter; stroke-linecap: square"/>
   </g>
   <g id="patch_5">
    <path d="M 38.420552 208.380937 
L 572.99976 208.380937 
" style="fill: none; stroke: #000000; stroke-width: 0.8; stroke-linejoin: miter; stroke-linecap: square"/>
   </g>
   <g id="text_16">
    <!-- Oz, O1, O2 (median) -->
    <g transform="translate(244.048906 12.118365) scale(0.12 -0.12)">
     <defs>
      <path id="DejaVuSans-4f" d="M 2522 4238 
Q 1834 4238 1429 3725 
Q 1025 3213 1025 2328 
Q 1025 1447 1429 934 
Q 1834 422 2522 422 
Q 3209 422 3611 934 
Q 4013 1447 4013 2328 
Q 4013 3213 3611 3725 
Q 3209 4238 2522 4238 
z
M 2522 4750 
Q 3503 4750 4090 4092 
Q 4678 3434 4678 2328 
Q 4678 1225 4090 567 
Q 3503 -91 2522 -91 
Q 1538 -91 948 565 
Q 359 1222 359 2328 
Q 359 3434 948 4092 
Q 1538 4750 2522 4750 
z
" transform="scale(0.015625)"/>
      <path id="DejaVuSans-7a" d="M 353 3500 
L 3084 3500 
L 3084 2975 
L 922 459 
L 3084 459 
L 3084 0 
L 275 0 
L 275 525 
L 2438 3041 
L 353 3041 
L 353 3500 
z
" transform="scale(0.015625)"/>
      <path id="DejaVuSans-2c" d="M 750 794 
L 1409 794 
L 1409 256 
L 897 -744 
L 494 -744 
L 750 256 
L 750 794 
z
" transform="scale(0.015625)"/>
      <path id="DejaVuSans-64" d="M 2906 2969 
L 2906 4863 
L 3481 4863 
L 3481 0 
L 2906 0 
L 2906 525 
Q 2725 213 2448 61 
Q 2172 -91 1784 -91 
Q 1150 -91 751 415 
Q 353 922 353 1747 
Q 353 2572 751 3078 
Q 1150 3584 1784 3584 
Q 2172 3584 2448 3432 
Q 2725 3281 2906 2969 
z
M 947 1747 
Q 947 1113 1208 752 
Q 1469 391 1925 391 
Q 2381 391 2643 752 
Q 2906 1113 2906 1747 
Q 2906 2381 2643 2742 
Q 2381 3103 1925 3103 
Q 1469 3103 1208 2742 
Q 947 2381 947 1747 
z
" transform="scale(0.015625)"/>
      <path id="DejaVuSans-61" d="M 2194 1759 
Q 1497 1759 1228 1600 
Q 959 1441 959 1056 
Q 959 750 1161 570 
Q 1363 391 1709 391 
Q 2188 391 2477 730 
Q 2766 1069 2766 1631 
L 2766 1759 
L 2194 1759 
z
M 3341 1997 
L 3341 0 
L 2766 0 
L 2766 531 
Q 2569 213 2275 61 
Q 1981 -91 1556 -91 
Q 1019 -91 701 211 
Q 384 513 384 1019 
Q 384 1609 779 1909 
Q 1175 2209 1959 2209 
L 2766 2209 
L 2766 2266 
Q 2766 2663 2505 2880 
Q 2244 3097 1772 3097 
Q 1472 3097 1187 3025 
Q 903 2953 641 2809 
L 641 3341 
Q 956 3463 1253 3523 
Q 1550 3584 1831 3584 
Q 2591 3584 2966 3190 
Q 3341 2797 3341 1997 
z
" transform="scale(0.015625)"/>
      <path id="DejaVuSans-6e" d="M 3513 2113 
L 3513 0 
L 2938 0 
L 2938 2094 
Q 2938 2591 2744 2837 
Q 2550 3084 2163 3084 
Q 1697 3084 1428 2787 
Q 1159 2491 1159 1978 
L 1159 0 
L 581 0 
L 581 3500 
L 1159 3500 
L 1159 2956 
Q 1366 3272 1645 3428 
Q 1925 3584 2291 3584 
Q 2894 3584 3203 3211 
Q 3513 2838 3513 2113 
z
" transform="scale(0.015625)"/>
     </defs>
     <use xlink:href="#DejaVuSans-4f"/>
     <use xlink:href="#DejaVuSans-7a" transform="translate(78.710938 0)"/>
     <use xlink:href="#DejaVuSans-2c" transform="translate(131.201172 0)"/>
     <use xlink:href="#DejaVuSans-20" transform="translate(162.988281 0)"/>
     <use xlink:href="#DejaVuSans-4f" transform="translate(194.775391 0)"/>
     <use xlink:href="#DejaVuSans-31" transform="translate(273.486328 0)"/>
     <use xlink:href="#DejaVuSans-2c" transform="translate(337.109375 0)"/>
     <use xlink:href="#DejaVuSans-20" transform="translate(368.896484 0)"/>
     <use xlink:href="#DejaVuSans-4f" transform="translate(400.683594 0)"/>
     <use xlink:href="#DejaVuSans-32" transform="translate(479.394531 0)"/>
     <use xlink:href="#DejaVuSans-20" transform="translate(543.017578 0)"/>
     <use xlink:href="#DejaVuSans-28" transform="translate(574.804688 0)"/>
     <use xlink:href="#DejaVuSans-6d" transform="translate(613.818359 0)"/>
     <use xlink:href="#DejaVuSans-65" transform="translate(711.230469 0)"/>
     <use xlink:href="#DejaVuSans-64" transform="translate(772.753906 0)"/>
     <use xlink:href="#DejaVuSans-69" transform="translate(836.230469 0)"/>
     <use xlink:href="#DejaVuSans-61" transform="translate(864.013672 0)"/>
     <use xlink:href="#DejaVuSans-6e" transform="translate(925.292969 0)"/>
     <use xlink:href="#DejaVuSans-29" transform="translate(988.671875 0)"/>
    </g>
   </g>
   <g id="legend_1">
    <g id="patch_6">
     <path d="M 45.420552 55.75274 
L 126.56274 55.75274 
Q 128.56274 55.75274 128.56274 53.75274 
L 128.56274 25.118365 
Q 128.56274 23.118365 126.56274 23.118365 
L 45.420552 23.118365 
Q 43.420552 23.118365 43.420552 25.118365 
L 43.420552 53.75274 
Q 43.420552 55.75274 45.420552 55.75274 
z
" style="fill: #ffffff; opacity: 0.8; stroke: #cccccc; stroke-linejoin: miter"/>
    </g>
    <g id="line2d_14">
     <path d="M 47.420552 31.216803 
L 57.420552 31.216803 
L 67.420552 31.216803 
" style="fill: none; stroke: #1f77b4; stroke-width: 1.5; stroke-linecap: square"/>
    </g>
    <g id="text_17">
     <!-- eerie -->
     <g transform="translate(75.420552 34.716803) scale(0.1 -0.1)">
      <defs>
       <path id="DejaVuSans-72" d="M 2631 2963 
Q 2534 3019 2420 3045 
Q 2306 3072 2169 3072 
Q 1681 3072 1420 2755 
Q 1159 2438 1159 1844 
L 1159 0 
L 581 0 
L 581 3500 
L 1159 3500 
L 1159 2956 
Q 1341 3275 1631 3429 
Q 1922 3584 2338 3584 
Q 2397 3584 2469 3576 
Q 2541 3569 2628 3553 
L 2631 2963 
z
" transform="scale(0.015625)"/>
      </defs>
      <use xlink:href="#DejaVuSans-65"/>
      <use xlink:href="#DejaVuSans-65" transform="translate(61.523438 0)"/>
      <use xlink:href="#DejaVuSans-72" transform="translate(123.046875 0)"/>
      <use xlink:href="#DejaVuSans-69" transform="translate(164.160156 0)"/>
      <use xlink:href="#DejaVuSans-65" transform="translate(191.943359 0)"/>
     </g>
    </g>
    <g id="line2d_15">
     <path d="M 47.420552 45.894928 
L 57.420552 45.894928 
L 67.420552 45.894928 
" style="fill: none; stroke: #ff7f0e; stroke-width: 1.5; stroke-linecap: square"/>
    </g>
    <g id="text_18">
     <!-- non_eerie -->
     <g transform="translate(75.420552 49.394928) scale(0.1 -0.1)">
      <defs>
       <path id="DejaVuSans-6f" d="M 1959 3097 
Q 1497 3097 1228 2736 
Q 959 2375 959 1747 
Q 959 1119 1226 758 
Q 1494 397 1959 397 
Q 2419 397 2687 759 
Q 2956 1122 2956 1747 
Q 2956 2369 2687 2733 
Q 2419 3097 1959 3097 
z
M 1959 3584 
Q 2709 3584 3137 3096 
Q 3566 2609 3566 1747 
Q 3566 888 3137 398 
Q 2709 -91 1959 -91 
Q 1206 -91 779 398 
Q 353 888 353 1747 
Q 353 2609 779 3096 
Q 1206 3584 1959 3584 
z
" transform="scale(0.015625)"/>
       <path id="DejaVuSans-5f" d="M 3263 -1063 
L 3263 -1509 
L -63 -1509 
L -63 -1063 
L 3263 -1063 
z
" transform="scale(0.015625)"/>
      </defs>
      <use xlink:href="#DejaVuSans-6e"/>
      <use xlink:href="#DejaVuSans-6f" transform="translate(63.378906 0)"/>
      <use xlink:href="#DejaVuSans-6e" transform="translate(124.560547 0)"/>
      <use xlink:href="#DejaVuSans-5f" transform="translate(187.939453 0)"/>
      <use xlink:href="#DejaVuSans-65" transform="translate(237.939453 0)"/>
      <use xlink:href="#DejaVuSans-65" transform="translate(299.462891 0)"/>
      <use xlink:href="#DejaVuSans-72" transform="translate(360.986328 0)"/>
      <use xlink:href="#DejaVuSans-69" transform="translate(402.099609 0)"/>
      <use xlink:href="#DejaVuSans-65" transform="translate(429.882812 0)"/>
     </g>
    </g>
   </g>
   <g id="line2d_16">
    <path d="M 38.420552 182.60564 
L 40.161853 179.294373 
L 43.644454 168.995085 
L 45.385754 176.692928 
L 47.127054 194.909083 
L 48.868355 216.330185 
L 50.609655 229.549153 
L 52.350955 229.790481 
L 54.092256 215.230273 
L 55.833556 196.181517 
L 57.574856 184.543678 
L 59.316157 186.162192 
L 61.057457 198.56406 
L 62.798757 218.97277 
L 64.540058 234.140671 
L 66.281358 239.334632 
L 68.022658 238.58315 
L 69.763959 240.772847 
L 71.505259 244.948038 
L 73.24656 249.856246 
L 74.98786 248.567311 
L 76.72916 236.171357 
L 80.211761 193.794497 
L 81.953061 182.716793 
L 83.694362 187.440616 
L 87.176962 218.16801 
L 88.918263 222.275768 
L 90.659563 212.496725 
L 92.400863 195.601106 
L 94.142164 183.144176 
L 95.883464 183.629889 
L 97.624764 195.295351 
L 99.366065 212.531721 
L 101.107365 222.697766 
L 102.848665 218.443634 
L 106.331266 189.498901 
L 108.072567 182.271809 
L 109.813867 189.717228 
L 111.555167 209.59162 
L 113.296468 231.787577 
L 115.037768 247.384195 
L 116.779068 250.169315 
L 118.520369 239.856145 
L 120.261669 221.038554 
L 122.002969 200.734936 
L 123.74427 185.569266 
L 125.48557 179.537176 
L 127.22687 182.803124 
L 128.968171 191.170688 
L 130.709471 200.909729 
L 132.450771 209.891489 
L 134.192072 214.449149 
L 135.933372 217.456692 
L 137.674672 219.624611 
L 141.157273 221.621739 
L 142.898574 221.060728 
L 144.639874 217.732314 
L 148.122475 210.080094 
L 149.863775 210.012597 
L 151.605075 211.188993 
L 153.346376 209.250154 
L 155.087676 201.76255 
L 156.828976 188.083818 
L 158.570277 177.445238 
L 160.311577 176.713816 
L 162.052877 188.914454 
L 163.794178 209.303878 
L 165.535478 225.933206 
L 167.276778 233.094814 
L 169.018079 229.126748 
L 170.759379 219.748795 
L 172.500679 213.812441 
L 174.24198 216.890022 
L 177.724581 236.838944 
L 179.465881 236.705862 
L 181.207181 223.229848 
L 182.948482 201.477653 
L 184.689782 181.507362 
L 186.431082 172.541599 
L 188.172383 176.080985 
L 189.913683 186.16236 
L 191.654983 193.205318 
L 193.396284 190.134517 
L 195.137584 176.737125 
L 196.878884 159.474989 
L 198.620185 146.89829 
L 200.361485 143.973138 
L 202.102785 149.048793 
L 203.844086 156.009818 
L 205.585386 159.043856 
L 207.326686 158.031514 
L 209.067987 158.083014 
L 210.809287 166.762965 
L 212.550588 187.919202 
L 216.033188 249.95807 
L 217.774489 274.163376 
L 219.515789 288.116993 
L 222.99839 301.955183 
L 224.73969 312.197173 
L 226.48099 325.024878 
L 228.222291 336.305941 
L 229.963591 342.950763 
L 231.704891 345.666446 
L 233.446192 347.318481 
L 235.187492 350.073394 
L 236.928792 351.404755 
L 238.670093 343.564132 
L 240.411393 321.707058 
L 242.152693 288.49466 
L 243.893994 251.740481 
L 245.635294 220.142015 
L 247.376595 202.258588 
L 249.117895 194.81262 
L 250.859195 191.712936 
L 252.600496 189.947944 
L 254.341796 187.803376 
L 256.083096 183.899897 
L 257.824397 189.896233 
L 259.565697 204.688809 
L 261.306997 222.237207 
L 263.048298 234.705532 
L 264.789598 237.203729 
L 266.530898 231.462018 
L 268.272199 224.526302 
L 270.013499 223.490144 
L 271.754799 230.375341 
L 275.2374 248.319596 
L 276.9787 247.969267 
L 278.720001 241.668183 
L 280.461301 236.194583 
L 282.202602 238.586144 
L 283.943902 250.926621 
L 285.685202 270.657437 
L 287.426503 286.754148 
L 289.167803 287.797683 
L 290.909103 277.224978 
L 292.650404 261.076721 
L 294.391704 249.08149 
L 296.133004 249.426779 
L 297.874305 266.000162 
L 299.615605 294.026295 
L 301.356905 325.285059 
L 303.098206 350.829683 
L 304.839506 365.25627 
L 306.580806 368.289371 
L 308.322107 362.569053 
L 311.804707 345.059553 
L 313.546008 333.978018 
L 315.287308 319.768705 
L 317.028609 301.597055 
L 320.511209 257.031464 
L 322.25251 240.086463 
L 323.99381 231.407838 
L 325.73511 231.210352 
L 327.476411 236.770077 
L 329.217711 243.579472 
L 330.959011 247.459304 
L 332.700312 247.070646 
L 334.441612 240.159893 
L 337.924213 216.960774 
L 339.665513 209.086133 
L 341.406813 208.801357 
L 343.148114 213.458025 
L 344.889414 219.817412 
L 346.630714 224.355899 
L 348.372015 224.914855 
L 350.113315 221.639868 
L 353.595916 210.99924 
L 357.078517 201.625042 
L 358.819817 195.795035 
L 360.561117 188.847603 
L 364.043718 168.506669 
L 365.785018 161.643687 
L 367.526319 159.274991 
L 369.267619 159.238768 
L 371.008919 157.860755 
L 372.75022 153.001625 
L 374.49152 146.368519 
L 376.23282 144.035482 
L 377.974121 150.316438 
L 379.715421 164.738631 
L 381.456721 182.862875 
L 383.198022 197.635748 
L 384.939322 203.775452 
L 386.680623 201.273073 
L 388.421923 195.72033 
L 390.163223 194.818576 
L 391.904524 203.210305 
L 395.387124 235.606075 
L 397.128425 244.693564 
L 398.869725 243.209642 
L 402.352326 224.915182 
L 404.093626 220.588006 
L 405.834926 221.531294 
L 407.576227 223.070956 
L 409.317527 220.66628 
L 411.058827 212.70952 
L 412.800128 201.563267 
L 414.541428 194.752338 
L 416.282728 196.870134 
L 418.024029 205.279538 
L 419.765329 211.571813 
L 421.50663 207.850804 
L 423.24793 193.062987 
L 424.98923 174.698353 
L 426.730531 164.015343 
L 428.471831 168.344851 
L 430.213131 185.862544 
L 431.954432 206.815027 
L 433.695732 220.11621 
L 435.437032 220.394044 
L 437.178333 210.626857 
L 438.919633 198.836175 
L 440.660933 191.529717 
L 442.402234 189.581844 
L 444.143534 188.81484 
L 445.884834 186.629646 
L 447.626135 180.194624 
L 449.367435 172.540809 
L 451.108735 168.497436 
L 452.850036 168.331133 
L 454.591336 174.555007 
L 456.332637 182.545763 
L 458.073937 183.926859 
L 459.815237 180.320219 
L 461.556538 175.075865 
L 463.297838 172.350272 
L 465.039138 174.246264 
L 466.780439 179.672594 
L 468.521739 185.477224 
L 470.263039 188.790951 
L 472.00434 188.41432 
L 473.74564 185.554307 
L 475.48694 180.825403 
L 477.228241 174.721915 
L 478.969541 170.241038 
L 480.710841 169.31446 
L 482.452142 172.467073 
L 484.193442 179.444494 
L 485.934742 188.254156 
L 487.676043 196.053707 
L 489.417343 200.721741 
L 491.158644 202.405605 
L 492.899944 203.44939 
L 494.641244 206.586228 
L 496.382545 212.86859 
L 498.123845 220.804379 
L 499.865145 225.178963 
L 503.347746 232.595361 
L 505.089046 235.056213 
L 506.830347 238.293124 
L 508.571647 243.462582 
L 510.312947 249.15563 
L 512.054248 253.545212 
L 513.795548 254.872124 
L 515.536848 258.985295 
L 519.019449 274.609461 
L 520.760749 277.726254 
L 522.50205 275.697472 
L 524.24335 265.876849 
L 525.984651 252.319066 
L 527.725951 243.282822 
L 529.467251 243.577031 
L 531.208552 252.454592 
L 532.949852 264.255733 
L 534.691152 273.390716 
L 536.432453 277.341236 
L 538.173753 276.83541 
L 539.915053 274.793774 
L 541.656354 273.472874 
L 543.397654 272.646703 
L 545.138954 270.457607 
L 546.880255 265.570719 
L 550.362855 252.299736 
L 552.104156 247.290759 
L 553.845456 245.795708 
L 555.586756 244.642942 
L 557.328057 242.555524 
L 559.069357 241.603055 
L 560.810658 241.32412 
L 562.551958 244.037193 
L 564.293258 250.800436 
L 566.034559 258.47218 
L 567.775859 263.070069 
L 569.517159 262.843464 
L 571.25846 258.629539 
L 572.99976 253.451223 
L 572.99976 253.451223 
" style="fill: none; stroke: #1f77b4; stroke-width: 1.5; stroke-linecap: square"/>
   </g>
   <g id="line2d_17">
    <path d="M 38.420552 206.277097 
L 40.161853 209.262948 
L 41.903153 208.737839 
L 45.385754 201.420192 
L 47.127054 198.977034 
L 48.868355 198.08587 
L 50.609655 200.026867 
L 54.092256 207.821713 
L 55.833556 211.439877 
L 57.574856 213.434433 
L 59.316157 214.199127 
L 61.057457 213.054393 
L 62.798757 210.769038 
L 64.540058 209.348878 
L 66.281358 208.566732 
L 68.022658 207.32589 
L 69.763959 204.17977 
L 73.24656 198.562334 
L 74.98786 198.161783 
L 76.72916 199.22891 
L 78.470461 201.172454 
L 80.211761 203.338144 
L 81.953061 207.177744 
L 83.694362 208.36833 
L 85.435662 208.283944 
L 88.918263 207.764232 
L 90.659563 207.342095 
L 94.142164 204.744137 
L 95.883464 204.127237 
L 97.624764 203.770008 
L 99.366065 203.654005 
L 101.107365 204.561657 
L 102.848665 207.630617 
L 104.589966 212.830156 
L 106.331266 219.676568 
L 108.072567 224.909818 
L 109.813867 225.996659 
L 111.555167 222.096942 
L 115.037768 207.198704 
L 116.779068 205.413782 
L 118.520369 208.233145 
L 120.261669 213.359468 
L 122.002969 217.978829 
L 123.74427 218.6906 
L 125.48557 215.411924 
L 127.22687 211.015519 
L 128.968171 208.794318 
L 130.709471 209.991956 
L 134.192072 217.059059 
L 135.933372 215.992798 
L 137.674672 213.696186 
L 139.415973 213.098551 
L 141.157273 215.987388 
L 142.898574 222.255619 
L 144.639874 229.394266 
L 146.381174 236.053207 
L 148.122475 239.746807 
L 149.863775 241.496231 
L 151.605075 242.190209 
L 153.346376 243.847832 
L 156.828976 249.946512 
L 158.570277 250.746138 
L 160.311577 247.915356 
L 162.052877 242.119183 
L 165.535478 228.240429 
L 167.276778 222.995617 
L 169.018079 220.43465 
L 170.759379 221.1982 
L 172.500679 225.665312 
L 174.24198 233.646121 
L 177.724581 254.270936 
L 179.465881 261.68951 
L 181.207181 263.912511 
L 182.948482 260.682953 
L 186.431082 246.89838 
L 188.172383 243.136064 
L 189.913683 243.48513 
L 191.654983 245.629855 
L 193.396284 244.772178 
L 195.137584 236.03537 
L 196.878884 217.514533 
L 200.361485 168.330055 
L 202.102785 151.113672 
L 203.844086 147.888174 
L 205.585386 158.619831 
L 207.326686 178.133364 
L 209.067987 199.580112 
L 210.809287 218.773244 
L 212.550588 236.22957 
L 214.291888 256.857483 
L 216.033188 283.069693 
L 219.515789 344.006814 
L 221.257089 367.748247 
L 222.99839 381.899089 
L 224.73969 386.569659 
L 226.48099 388.32282 
L 228.222291 391.474668 
L 229.963591 395.702593 
L 231.704891 398.64351 
L 233.446192 395.460498 
L 235.187492 381.672383 
L 236.928792 358.241738 
L 242.152693 275.848835 
L 245.635294 227.098961 
L 247.376595 205.386683 
L 249.117895 187.328677 
L 250.859195 177.304958 
L 252.600496 177.372961 
L 254.341796 184.896084 
L 256.083096 193.699065 
L 257.824397 198.277011 
L 261.306997 197.482263 
L 263.048298 204.095464 
L 264.789598 221.636049 
L 268.272199 272.29994 
L 270.013499 287.389589 
L 271.754799 289.56439 
L 273.4961 282.453081 
L 275.2374 273.714874 
L 276.9787 269.52258 
L 278.720001 270.467522 
L 280.461301 271.639734 
L 282.202602 266.6632 
L 283.943902 252.874998 
L 285.685202 233.662679 
L 287.426503 216.70506 
L 289.167803 209.214143 
L 290.909103 214.044574 
L 292.650404 227.891142 
L 294.391704 243.516142 
L 296.133004 254.809925 
L 297.874305 259.248217 
L 299.615605 262.24206 
L 301.356905 266.085234 
L 303.098206 275.012405 
L 304.839506 289.044787 
L 306.580806 305.122357 
L 308.322107 318.080298 
L 310.063407 324.826491 
L 311.804707 325.931771 
L 313.546008 322.785425 
L 315.287308 314.892505 
L 318.769909 294.138727 
L 320.511209 286.059431 
L 322.25251 281.517115 
L 323.99381 278.362283 
L 325.73511 275.89443 
L 327.476411 272.053257 
L 329.217711 266.498968 
L 330.959011 261.529964 
L 332.700312 254.517514 
L 334.441612 249.107745 
L 336.182912 246.813103 
L 337.924213 247.694941 
L 339.665513 252.581554 
L 341.406813 260.887438 
L 343.148114 272.585016 
L 344.889414 285.683813 
L 346.630714 294.511224 
L 348.372015 294.781481 
L 350.113315 287.113334 
L 351.854616 275.007502 
L 353.595916 264.167888 
L 355.337216 256.247269 
L 357.078517 254.068805 
L 358.819817 254.349259 
L 360.561117 253.563599 
L 362.302418 249.936963 
L 364.043718 244.599747 
L 365.785018 240.458885 
L 367.526319 239.32087 
L 369.267619 240.893083 
L 371.008919 241.800554 
L 372.75022 236.685047 
L 374.49152 228.762776 
L 376.23282 222.54299 
L 377.974121 219.092438 
L 379.715421 221.726684 
L 381.456721 226.352381 
L 383.198022 229.682224 
L 384.939322 228.768353 
L 386.680623 223.900655 
L 388.421923 217.945874 
L 390.163223 215.54614 
L 391.904524 218.114788 
L 393.645824 222.998744 
L 395.387124 227.267684 
L 397.128425 228.815645 
L 398.869725 228.543588 
L 400.611025 230.479072 
L 402.352326 236.676933 
L 404.093626 245.522383 
L 405.834926 252.959949 
L 407.576227 254.515135 
L 409.317527 248.599259 
L 411.058827 237.893876 
L 412.800128 227.997478 
L 414.541428 224.762636 
L 416.282728 227.136562 
L 418.024029 232.223155 
L 419.765329 236.087897 
L 421.50663 236.556796 
L 423.24793 235.444474 
L 424.98923 235.486376 
L 426.730531 239.323812 
L 428.471831 246.679351 
L 430.213131 254.704239 
L 431.954432 260.046001 
L 433.695732 261.084231 
L 435.437032 258.780684 
L 437.178333 255.679867 
L 438.919633 254.206439 
L 440.660933 255.410247 
L 442.402234 259.049535 
L 444.143534 264.332845 
L 445.884834 270.167002 
L 447.626135 275.451536 
L 449.367435 279.241964 
L 451.108735 281.137795 
L 452.850036 281.391343 
L 454.591336 281.183505 
L 456.332637 281.251752 
L 458.073937 282.172324 
L 459.815237 285.671493 
L 461.556538 290.622462 
L 463.297838 292.638486 
L 465.039138 290.222879 
L 468.521739 278.995366 
L 470.263039 277.011089 
L 472.00434 278.332201 
L 473.74564 281.103898 
L 475.48694 282.39977 
L 477.228241 280.912474 
L 478.969541 277.940843 
L 480.710841 276.226125 
L 482.452142 277.507209 
L 484.193442 279.632598 
L 485.934742 281.066118 
L 487.676043 279.814086 
L 489.417343 274.457109 
L 491.158644 266.741446 
L 492.899944 262.676402 
L 494.641244 265.676172 
L 496.382545 275.365163 
L 498.123845 288.099672 
L 499.865145 297.49282 
L 501.606446 299.73858 
L 503.347746 294.500382 
L 505.089046 284.416029 
L 506.830347 273.158548 
L 508.571647 263.919454 
L 510.312947 258.152241 
L 512.054248 254.438079 
L 513.795548 253.578032 
L 515.536848 255.036663 
L 517.278149 257.733823 
L 519.019449 259.769888 
L 520.760749 258.914177 
L 522.50205 255.125612 
L 525.984651 241.789118 
L 527.725951 239.131943 
L 529.467251 243.670085 
L 531.208552 254.95951 
L 532.949852 268.881352 
L 534.691152 279.714914 
L 536.432453 282.501535 
L 538.173753 278.904114 
L 539.915053 272.337853 
L 541.656354 267.57342 
L 543.397654 268.652809 
L 546.880255 278.578014 
L 548.621555 280.216055 
L 550.362855 278.008475 
L 552.104156 273.749872 
L 553.845456 270.456704 
L 555.586756 268.423571 
L 557.328057 268.219113 
L 559.069357 267.684447 
L 560.810658 265.566275 
L 562.551958 262.178689 
L 564.293258 259.045676 
L 566.034559 257.390365 
L 569.517159 256.89409 
L 572.99976 254.563252 
L 572.99976 254.563252 
" style="fill: none; stroke: #ff7f0e; stroke-width: 1.5; stroke-linecap: square"/>
   </g>
  </g>
  <g id="axes_2">
   <g id="PathCollection_1">
    <defs>
     <path id="C0_0_1c4b866899" d="M 0 1.118034 
C 0.296506 1.118034 0.580908 1.000231 0.790569 0.790569 
C 1.000231 0.580908 1.118034 0.296506 1.118034 -0 
C 1.118034 -0.296506 1.000231 -0.580908 0.790569 -0.790569 
C 0.580908 -1.000231 0.296506 -1.118034 0 -1.118034 
C -0.296506 -1.118034 -0.580908 -1.000231 -0.790569 -0.790569 
C -1.000231 -0.580908 -1.118034 -0.296506 -1.118034 0 
C -1.118034 0.296506 -1.000231 0.580908 -0.790569 0.790569 
C -0.580908 1.000231 -0.296506 1.118034 0 1.118034 
z
"/>
    </defs>
    <g clip-path="url(#p16c60c2609)">
     <use xlink:href="#C0_0_1c4b866899" x="510.694764" y="98.957835" style="stroke: #000000"/>
    </g>
    <g clip-path="url(#p16c60c2609)">
     <use xlink:href="#C0_0_1c4b866899" x="519.985294" y="99.044541" style="stroke: #000000"/>
    </g>
    <g clip-path="url(#p16c60c2609)">
     <use xlink:href="#C0_0_1c4b866899" x="529.295856" y="98.86907" style="stroke: #000000"/>
    </g>
   </g>
   <g id="matplotlib.axis_3"/>
   <g id="matplotlib.axis_4"/>
   <g id="line2d_18">
    <path d="M 559.991178 73.637025 
L 559.913484 71.164739 
L 559.680706 68.70221 
L 559.293765 66.259156 
L 558.754186 63.845219 
L 558.064099 61.469927 
L 557.226229 59.142652 
L 556.243881 56.87258 
L 555.120932 54.668669 
L 553.861815 52.539618 
L 552.471498 50.493829 
L 550.955468 48.539375 
L 549.319709 46.68397 
L 547.570676 44.934937 
L 545.715271 43.299178 
L 543.760817 41.783148 
L 541.715028 40.392831 
L 539.585977 39.133714 
L 537.382067 38.010765 
L 535.111994 37.028417 
L 532.78472 36.190547 
L 530.409427 35.50046 
L 527.99549 34.960882 
L 525.552436 34.57394 
L 523.089907 34.341162 
L 520.617621 34.263468 
L 518.145335 34.341162 
L 515.682806 34.57394 
L 513.239752 34.960882 
L 510.825816 35.50046 
L 508.450523 36.190547 
L 506.123248 37.028417 
L 503.853176 38.010765 
L 501.649265 39.133714 
L 499.520214 40.392831 
L 497.474425 41.783148 
L 495.519971 43.299178 
L 493.664567 44.934937 
L 491.915533 46.68397 
L 490.279774 48.539375 
L 488.763744 50.493829 
L 487.373427 52.539618 
L 486.11431 54.668669 
L 484.991361 56.87258 
L 484.009014 59.142652 
L 483.171143 61.469927 
L 482.481057 63.845219 
L 481.941478 66.259156 
L 481.554536 68.70221 
L 481.321759 71.164739 
L 481.244064 73.637025 
L 481.321759 76.109311 
L 481.554536 78.57184 
L 481.941478 81.014894 
L 482.481057 83.42883 
L 483.171143 85.804123 
L 484.009014 88.131398 
L 484.991361 90.40147 
L 486.11431 92.605381 
L 487.373427 94.734432 
L 488.763744 96.780221 
L 490.279774 98.734675 
L 491.915533 100.59008 
L 493.664567 102.339113 
L 495.519971 103.974872 
L 497.474425 105.490902 
L 499.520214 106.881219 
L 501.649265 108.140336 
L 503.853176 109.263285 
L 506.123248 110.245633 
L 508.450523 111.083503 
L 510.825816 111.773589 
L 513.239752 112.313168 
L 515.682806 112.70011 
L 518.145335 112.932887 
L 520.617621 113.010582 
L 523.089907 112.932887 
L 525.552436 112.70011 
L 527.99549 112.313168 
L 530.409427 111.773589 
L 532.78472 111.083503 
L 535.111994 110.245633 
L 537.382067 109.263285 
L 539.585977 108.140336 
L 541.715028 106.881219 
L 543.760817 105.490902 
L 545.715271 103.974872 
L 547.570676 102.339113 
L 549.319709 100.59008 
L 550.955468 98.734675 
L 552.471498 96.780221 
L 553.861815 94.734432 
L 555.120932 92.605381 
L 556.243881 90.40147 
L 557.226229 88.131398 
L 558.064099 85.804123 
L 558.754186 83.42883 
L 559.293765 81.014894 
L 559.680706 78.57184 
L 559.913484 76.109311 
L 559.991178 73.637025 
" style="fill: none; stroke: #000000; stroke-linecap: square"/>
   </g>
   <g id="line2d_19">
    <path d="M 512.371243 35.13671 
L 520.617621 28.357434 
L 528.864 35.13671 
" style="fill: none; stroke: #000000; stroke-linecap: square"/>
   </g>
   <g id="line2d_20">
    <path d="M 481.480305 69.26656 
L 480.456593 67.534124 
L 479.826616 67.471126 
L 478.889525 67.76249 
L 477.94456 69.26656 
L 478.094179 74.070134 
L 477.54295 80.976256 
L 478.724156 83.976521 
L 480.456593 84.535626 
L 482.110282 83.078804 
" style="fill: none; stroke: #000000; stroke-linecap: square"/>
   </g>
   <g id="line2d_21">
    <path d="M 559.754937 69.26656 
L 560.77865 67.534124 
L 561.408627 67.471126 
L 562.345717 67.76249 
L 563.290683 69.26656 
L 563.141063 74.070134 
L 563.692293 80.976256 
L 562.511086 83.976521 
L 560.77865 84.535626 
L 559.12496 83.078804 
" style="fill: none; stroke: #000000; stroke-linecap: square"/>
   </g>
  </g>
 </g>
 <defs>
  <clipPath id="p6363546482">
   <rect x="38.420552" y="18.118365" width="534.579207" height="380.525145"/>
  </clipPath>
  <clipPath id="p16c60c2609">
   <rect x="473.235482" y="24.124777" width="94.764278" height="93.118463"/>
  </clipPath>
 </defs>
</svg>
