<?xml version="1.0" encoding="utf-8" standalone="no"?>
<!DOCTYPE svg PUBLIC "-//W3C//DTD SVG 1.1//EN"
  "http://www.w3.org/Graphics/SVG/1.1/DTD/svg11.dtd">
<svg xmlns:xlink="http://www.w3.org/1999/xlink" width="576pt" height="432pt" viewBox="0 0 576 432" xmlns="http://www.w3.org/2000/svg" version="1.1">
 <metadata>
  <rdf:RDF xmlns:dc="http://purl.org/dc/elements/1.1/" xmlns:cc="http://creativecommons.org/ns#" xmlns:rdf="http://www.w3.org/1999/02/22-rdf-syntax-ns#">
   <cc:Work>
    <dc:type rdf:resource="http://purl.org/dc/dcmitype/StillImage"/>
    <dc:date>2025-02-12T21:12:50.655455</dc:date>
    <dc:format>image/svg+xml</dc:format>
    <dc:creator>
     <cc:Agent>
      <dc:title>Matplotlib v3.10.0, https://matplotlib.org/</dc:title>
     </cc:Agent>
    </dc:creator>
   </cc:Work>
  </rdf:RDF>
 </metadata>
 <defs>
  <style type="text/css">*{stroke-linejoin: round; stroke-linecap: butt}</style>
 </defs>
 <g id="figure_1">
  <g id="patch_1">
   <path d="M 0 432 
L 576 432 
L 576 0 
L 0 0 
z
" style="fill: #ffffff"/>
  </g>
  <g id="axes_1">
   <g id="patch_2">
    <path d="M 54.323678 398.64351 
L 572.99976 398.64351 
L 572.99976 18.118365 
L 54.323678 18.118365 
L 54.323678 398.64351 
z
" style="fill: none; opacity: 0"/>
   </g>
   <g id="patch_3">
    <path d="M 54.323678 382.272129 
L 54.323678 34.489746 
" style="fill: none; stroke: #000000; stroke-width: 0.8; stroke-linejoin: miter; stroke-linecap: square"/>
   </g>
   <g id="LineCollection_1">
    <path d="M 382.694633 18.118365 
L 382.694633 398.64351 
" clip-path="url(#p036c152b19)" style="fill: none; stroke-dasharray: 3.7,1.6; stroke-dashoffset: 0; stroke: #000000"/>
    <path d="M 490.822546 18.118365 
L 490.822546 398.64351 
" clip-path="url(#p036c152b19)" style="fill: none; stroke-dasharray: 3.7,1.6; stroke-dashoffset: 0; stroke: #000000"/>
   </g>
   <g id="matplotlib.axis_1">
    <g id="xtick_1">
     <g id="line2d_1">
      <defs>
       <path id="m9bbf05d53d" d="M 0 0 
L 0 3.5 
" style="stroke: #000000; stroke-width: 0.8"/>
      </defs>
      <g>
       <use xlink:href="#m9bbf05d53d" x="79.936477" y="398.64351" style="stroke: #000000; stroke-width: 0.8"/>
      </g>
     </g>
     <g id="text_1">
      <!-- −0.20 -->
      <g transform="translate(64.613821 413.241947) scale(0.1 -0.1)">
       <defs>
        <path id="DejaVuSans-2212" d="M 678 2272 
L 4684 2272 
L 4684 1741 
L 678 1741 
L 678 2272 
z
" transform="scale(0.015625)"/>
        <path id="DejaVuSans-30" d="M 2034 4250 
Q 1547 4250 1301 3770 
Q 1056 3291 1056 2328 
Q 1056 1369 1301 889 
Q 1547 409 2034 409 
Q 2525 409 2770 889 
Q 3016 1369 3016 2328 
Q 3016 3291 2770 3770 
Q 2525 4250 2034 4250 
z
M 2034 4750 
Q 2819 4750 3233 4129 
Q 3647 3509 3647 2328 
Q 3647 1150 3233 529 
Q 2819 -91 2034 -91 
Q 1250 -91 836 529 
Q 422 1150 422 2328 
Q 422 3509 836 4129 
Q 1250 4750 2034 4750 
z
" transform="scale(0.015625)"/>
        <path id="DejaVuSans-2e" d="M 684 794 
L 1344 794 
L 1344 0 
L 684 0 
L 684 794 
z
" transform="scale(0.015625)"/>
        <path id="DejaVuSans-32" d="M 1228 531 
L 3431 531 
L 3431 0 
L 469 0 
L 469 531 
Q 828 903 1448 1529 
Q 2069 2156 2228 2338 
Q 2531 2678 2651 2914 
Q 2772 3150 2772 3378 
Q 2772 3750 2511 3984 
Q 2250 4219 1831 4219 
Q 1534 4219 1204 4116 
Q 875 4013 500 3803 
L 500 4441 
Q 881 4594 1212 4672 
Q 1544 4750 1819 4750 
Q 2544 4750 2975 4387 
Q 3406 4025 3406 3419 
Q 3406 3131 3298 2873 
Q 3191 2616 2906 2266 
Q 2828 2175 2409 1742 
Q 1991 1309 1228 531 
z
" transform="scale(0.015625)"/>
       </defs>
       <use xlink:href="#DejaVuSans-2212"/>
       <use xlink:href="#DejaVuSans-30" transform="translate(83.789062 0)"/>
       <use xlink:href="#DejaVuSans-2e" transform="translate(147.412109 0)"/>
       <use xlink:href="#DejaVuSans-32" transform="translate(179.199219 0)"/>
       <use xlink:href="#DejaVuSans-30" transform="translate(242.822266 0)"/>
      </g>
     </g>
    </g>
    <g id="xtick_2">
     <g id="line2d_2">
      <g>
       <use xlink:href="#m9bbf05d53d" x="166.438807" y="398.64351" style="stroke: #000000; stroke-width: 0.8"/>
      </g>
     </g>
     <g id="text_2">
      <!-- 0.00 -->
      <g transform="translate(155.305995 413.241947) scale(0.1 -0.1)">
       <use xlink:href="#DejaVuSans-30"/>
       <use xlink:href="#DejaVuSans-2e" transform="translate(63.623047 0)"/>
       <use xlink:href="#DejaVuSans-30" transform="translate(95.410156 0)"/>
       <use xlink:href="#DejaVuSans-30" transform="translate(159.033203 0)"/>
      </g>
     </g>
    </g>
    <g id="xtick_3">
     <g id="line2d_3">
      <g>
       <use xlink:href="#m9bbf05d53d" x="252.941138" y="398.64351" style="stroke: #000000; stroke-width: 0.8"/>
      </g>
     </g>
     <g id="text_3">
      <!-- 0.20 -->
      <g transform="translate(241.808325 413.241947) scale(0.1 -0.1)">
       <use xlink:href="#DejaVuSans-30"/>
       <use xlink:href="#DejaVuSans-2e" transform="translate(63.623047 0)"/>
       <use xlink:href="#DejaVuSans-32" transform="translate(95.410156 0)"/>
       <use xlink:href="#DejaVuSans-30" transform="translate(159.033203 0)"/>
      </g>
     </g>
    </g>
    <g id="xtick_4">
     <g id="line2d_4">
      <g>
       <use xlink:href="#m9bbf05d53d" x="339.443468" y="398.64351" style="stroke: #000000; stroke-width: 0.8"/>
      </g>
     </g>
     <g id="text_4">
      <!-- 0.40 -->
      <g transform="translate(328.310655 413.241947) scale(0.1 -0.1)">
       <defs>
        <path id="DejaVuSans-34" d="M 2419 4116 
L 825 1625 
L 2419 1625 
L 2419 4116 
z
M 2253 4666 
L 3047 4666 
L 3047 1625 
L 3713 1625 
L 3713 1100 
L 3047 1100 
L 3047 0 
L 2419 0 
L 2419 1100 
L 313 1100 
L 313 1709 
L 2253 4666 
z
" transform="scale(0.015625)"/>
       </defs>
       <use xlink:href="#DejaVuSans-30"/>
       <use xlink:href="#DejaVuSans-2e" transform="translate(63.623047 0)"/>
       <use xlink:href="#DejaVuSans-34" transform="translate(95.410156 0)"/>
       <use xlink:href="#DejaVuSans-30" transform="translate(159.033203 0)"/>
      </g>
     </g>
    </g>
    <g id="xtick_5">
     <g id="line2d_5">
      <g>
       <use xlink:href="#m9bbf05d53d" x="382.694633" y="398.64351" style="stroke: #000000; stroke-width: 0.8"/>
      </g>
     </g>
     <g id="text_5">
      <!-- 0.50 -->
      <g transform="translate(371.561821 413.241947) scale(0.1 -0.1)">
       <defs>
        <path id="DejaVuSans-35" d="M 691 4666 
L 3169 4666 
L 3169 4134 
L 1269 4134 
L 1269 2991 
Q 1406 3038 1543 3061 
Q 1681 3084 1819 3084 
Q 2600 3084 3056 2656 
Q 3513 2228 3513 1497 
Q 3513 744 3044 326 
Q 2575 -91 1722 -91 
Q 1428 -91 1123 -41 
Q 819 9 494 109 
L 494 744 
Q 775 591 1075 516 
Q 1375 441 1709 441 
Q 2250 441 2565 725 
Q 2881 1009 2881 1497 
Q 2881 1984 2565 2268 
Q 2250 2553 1709 2553 
Q 1456 2553 1204 2497 
Q 953 2441 691 2322 
L 691 4666 
z
" transform="scale(0.015625)"/>
       </defs>
       <use xlink:href="#DejaVuSans-30"/>
       <use xlink:href="#DejaVuSans-2e" transform="translate(63.623047 0)"/>
       <use xlink:href="#DejaVuSans-35" transform="translate(95.410156 0)"/>
       <use xlink:href="#DejaVuSans-30" transform="translate(159.033203 0)"/>
      </g>
     </g>
    </g>
    <g id="xtick_6">
     <g id="line2d_6">
      <g>
       <use xlink:href="#m9bbf05d53d" x="425.945798" y="398.64351" style="stroke: #000000; stroke-width: 0.8"/>
      </g>
     </g>
     <g id="text_6">
      <!-- 0.60 -->
      <g transform="translate(414.812986 413.241947) scale(0.1 -0.1)">
       <defs>
        <path id="DejaVuSans-36" d="M 2113 2584 
Q 1688 2584 1439 2293 
Q 1191 2003 1191 1497 
Q 1191 994 1439 701 
Q 1688 409 2113 409 
Q 2538 409 2786 701 
Q 3034 994 3034 1497 
Q 3034 2003 2786 2293 
Q 2538 2584 2113 2584 
z
M 3366 4563 
L 3366 3988 
Q 3128 4100 2886 4159 
Q 2644 4219 2406 4219 
Q 1781 4219 1451 3797 
Q 1122 3375 1075 2522 
Q 1259 2794 1537 2939 
Q 1816 3084 2150 3084 
Q 2853 3084 3261 2657 
Q 3669 2231 3669 1497 
Q 3669 778 3244 343 
Q 2819 -91 2113 -91 
Q 1303 -91 875 529 
Q 447 1150 447 2328 
Q 447 3434 972 4092 
Q 1497 4750 2381 4750 
Q 2619 4750 2861 4703 
Q 3103 4656 3366 4563 
z
" transform="scale(0.015625)"/>
       </defs>
       <use xlink:href="#DejaVuSans-30"/>
       <use xlink:href="#DejaVuSans-2e" transform="translate(63.623047 0)"/>
       <use xlink:href="#DejaVuSans-36" transform="translate(95.410156 0)"/>
       <use xlink:href="#DejaVuSans-30" transform="translate(159.033203 0)"/>
      </g>
     </g>
    </g>
    <g id="xtick_7">
     <g id="line2d_7">
      <g>
       <use xlink:href="#m9bbf05d53d" x="490.822546" y="398.64351" style="stroke: #000000; stroke-width: 0.8"/>
      </g>
     </g>
     <g id="text_7">
      <!-- 0.75 -->
      <g transform="translate(479.689734 413.241947) scale(0.1 -0.1)">
       <defs>
        <path id="DejaVuSans-37" d="M 525 4666 
L 3525 4666 
L 3525 4397 
L 1831 0 
L 1172 0 
L 2766 4134 
L 525 4134 
L 525 4666 
z
" transform="scale(0.015625)"/>
       </defs>
       <use xlink:href="#DejaVuSans-30"/>
       <use xlink:href="#DejaVuSans-2e" transform="translate(63.623047 0)"/>
       <use xlink:href="#DejaVuSans-37" transform="translate(95.410156 0)"/>
       <use xlink:href="#DejaVuSans-35" transform="translate(159.033203 0)"/>
      </g>
     </g>
    </g>
    <g id="xtick_8">
     <g id="line2d_8">
      <g>
       <use xlink:href="#m9bbf05d53d" x="512.448129" y="398.64351" style="stroke: #000000; stroke-width: 0.8"/>
      </g>
     </g>
     <g id="text_8">
      <!-- 0.80 -->
      <g transform="translate(501.315316 413.241947) scale(0.1 -0.1)">
       <defs>
        <path id="DejaVuSans-38" d="M 2034 2216 
Q 1584 2216 1326 1975 
Q 1069 1734 1069 1313 
Q 1069 891 1326 650 
Q 1584 409 2034 409 
Q 2484 409 2743 651 
Q 3003 894 3003 1313 
Q 3003 1734 2745 1975 
Q 2488 2216 2034 2216 
z
M 1403 2484 
Q 997 2584 770 2862 
Q 544 3141 544 3541 
Q 544 4100 942 4425 
Q 1341 4750 2034 4750 
Q 2731 4750 3128 4425 
Q 3525 4100 3525 3541 
Q 3525 3141 3298 2862 
Q 3072 2584 2669 2484 
Q 3125 2378 3379 2068 
Q 3634 1759 3634 1313 
Q 3634 634 3220 271 
Q 2806 -91 2034 -91 
Q 1263 -91 848 271 
Q 434 634 434 1313 
Q 434 1759 690 2068 
Q 947 2378 1403 2484 
z
M 1172 3481 
Q 1172 3119 1398 2916 
Q 1625 2713 2034 2713 
Q 2441 2713 2670 2916 
Q 2900 3119 2900 3481 
Q 2900 3844 2670 4047 
Q 2441 4250 2034 4250 
Q 1625 4250 1398 4047 
Q 1172 3844 1172 3481 
z
" transform="scale(0.015625)"/>
       </defs>
       <use xlink:href="#DejaVuSans-30"/>
       <use xlink:href="#DejaVuSans-2e" transform="translate(63.623047 0)"/>
       <use xlink:href="#DejaVuSans-38" transform="translate(95.410156 0)"/>
       <use xlink:href="#DejaVuSans-30" transform="translate(159.033203 0)"/>
      </g>
     </g>
    </g>
    <g id="text_9">
     <!-- Time (s) -->
     <g transform="translate(293.332812 426.920073) scale(0.1 -0.1)">
      <defs>
       <path id="DejaVuSans-54" d="M -19 4666 
L 3928 4666 
L 3928 4134 
L 2272 4134 
L 2272 0 
L 1638 0 
L 1638 4134 
L -19 4134 
L -19 4666 
z
" transform="scale(0.015625)"/>
       <path id="DejaVuSans-69" d="M 603 3500 
L 1178 3500 
L 1178 0 
L 603 0 
L 603 3500 
z
M 603 4863 
L 1178 4863 
L 1178 4134 
L 603 4134 
L 603 4863 
z
" transform="scale(0.015625)"/>
       <path id="DejaVuSans-6d" d="M 3328 2828 
Q 3544 3216 3844 3400 
Q 4144 3584 4550 3584 
Q 5097 3584 5394 3201 
Q 5691 2819 5691 2113 
L 5691 0 
L 5113 0 
L 5113 2094 
Q 5113 2597 4934 2840 
Q 4756 3084 4391 3084 
Q 3944 3084 3684 2787 
Q 3425 2491 3425 1978 
L 3425 0 
L 2847 0 
L 2847 2094 
Q 2847 2600 2669 2842 
Q 2491 3084 2119 3084 
Q 1678 3084 1418 2786 
Q 1159 2488 1159 1978 
L 1159 0 
L 581 0 
L 581 3500 
L 1159 3500 
L 1159 2956 
Q 1356 3278 1631 3431 
Q 1906 3584 2284 3584 
Q 2666 3584 2933 3390 
Q 3200 3197 3328 2828 
z
" transform="scale(0.015625)"/>
       <path id="DejaVuSans-65" d="M 3597 1894 
L 3597 1613 
L 953 1613 
Q 991 1019 1311 708 
Q 1631 397 2203 397 
Q 2534 397 2845 478 
Q 3156 559 3463 722 
L 3463 178 
Q 3153 47 2828 -22 
Q 2503 -91 2169 -91 
Q 1331 -91 842 396 
Q 353 884 353 1716 
Q 353 2575 817 3079 
Q 1281 3584 2069 3584 
Q 2775 3584 3186 3129 
Q 3597 2675 3597 1894 
z
M 3022 2063 
Q 3016 2534 2758 2815 
Q 2500 3097 2075 3097 
Q 1594 3097 1305 2825 
Q 1016 2553 972 2059 
L 3022 2063 
z
" transform="scale(0.015625)"/>
       <path id="DejaVuSans-20" transform="scale(0.015625)"/>
       <path id="DejaVuSans-28" d="M 1984 4856 
Q 1566 4138 1362 3434 
Q 1159 2731 1159 2009 
Q 1159 1288 1364 580 
Q 1569 -128 1984 -844 
L 1484 -844 
Q 1016 -109 783 600 
Q 550 1309 550 2009 
Q 550 2706 781 3412 
Q 1013 4119 1484 4856 
L 1984 4856 
z
" transform="scale(0.015625)"/>
       <path id="DejaVuSans-73" d="M 2834 3397 
L 2834 2853 
Q 2591 2978 2328 3040 
Q 2066 3103 1784 3103 
Q 1356 3103 1142 2972 
Q 928 2841 928 2578 
Q 928 2378 1081 2264 
Q 1234 2150 1697 2047 
L 1894 2003 
Q 2506 1872 2764 1633 
Q 3022 1394 3022 966 
Q 3022 478 2636 193 
Q 2250 -91 1575 -91 
Q 1294 -91 989 -36 
Q 684 19 347 128 
L 347 722 
Q 666 556 975 473 
Q 1284 391 1588 391 
Q 1994 391 2212 530 
Q 2431 669 2431 922 
Q 2431 1156 2273 1281 
Q 2116 1406 1581 1522 
L 1381 1569 
Q 847 1681 609 1914 
Q 372 2147 372 2553 
Q 372 3047 722 3315 
Q 1072 3584 1716 3584 
Q 2034 3584 2315 3537 
Q 2597 3491 2834 3397 
z
" transform="scale(0.015625)"/>
       <path id="DejaVuSans-29" d="M 513 4856 
L 1013 4856 
Q 1481 4119 1714 3412 
Q 1947 2706 1947 2009 
Q 1947 1309 1714 600 
Q 1481 -109 1013 -844 
L 513 -844 
Q 928 -128 1133 580 
Q 1338 1288 1338 2009 
Q 1338 2731 1133 3434 
Q 928 4138 513 4856 
z
" transform="scale(0.015625)"/>
      </defs>
      <use xlink:href="#DejaVuSans-54"/>
      <use xlink:href="#DejaVuSans-69" transform="translate(57.958984 0)"/>
      <use xlink:href="#DejaVuSans-6d" transform="translate(85.742188 0)"/>
      <use xlink:href="#DejaVuSans-65" transform="translate(183.154297 0)"/>
      <use xlink:href="#DejaVuSans-20" transform="translate(244.677734 0)"/>
      <use xlink:href="#DejaVuSans-28" transform="translate(276.464844 0)"/>
      <use xlink:href="#DejaVuSans-73" transform="translate(315.478516 0)"/>
      <use xlink:href="#DejaVuSans-29" transform="translate(367.578125 0)"/>
     </g>
    </g>
   </g>
   <g id="matplotlib.axis_2">
    <g id="ytick_1">
     <g id="line2d_9">
      <defs>
       <path id="m67c8dbf5ea" d="M 0 0 
L -3.5 0 
" style="stroke: #000000; stroke-width: 0.8"/>
      </defs>
      <g>
       <use xlink:href="#m67c8dbf5ea" x="54.323678" y="382.272129" style="stroke: #000000; stroke-width: 0.8"/>
      </g>
     </g>
     <g id="text_10">
      <!-- −10.0 -->
      <g transform="translate(16.678365 386.071348) scale(0.1 -0.1)">
       <defs>
        <path id="DejaVuSans-31" d="M 794 531 
L 1825 531 
L 1825 4091 
L 703 3866 
L 703 4441 
L 1819 4666 
L 2450 4666 
L 2450 531 
L 3481 531 
L 3481 0 
L 794 0 
L 794 531 
z
" transform="scale(0.015625)"/>
       </defs>
       <use xlink:href="#DejaVuSans-2212"/>
       <use xlink:href="#DejaVuSans-31" transform="translate(83.789062 0)"/>
       <use xlink:href="#DejaVuSans-30" transform="translate(147.412109 0)"/>
       <use xlink:href="#DejaVuSans-2e" transform="translate(211.035156 0)"/>
       <use xlink:href="#DejaVuSans-30" transform="translate(242.822266 0)"/>
      </g>
     </g>
    </g>
    <g id="ytick_2">
     <g id="line2d_10">
      <g>
       <use xlink:href="#m67c8dbf5ea" x="54.323678" y="338.799331" style="stroke: #000000; stroke-width: 0.8"/>
      </g>
     </g>
     <g id="text_11">
      <!-- −7.5 -->
      <g transform="translate(23.040865 342.59855) scale(0.1 -0.1)">
       <use xlink:href="#DejaVuSans-2212"/>
       <use xlink:href="#DejaVuSans-37" transform="translate(83.789062 0)"/>
       <use xlink:href="#DejaVuSans-2e" transform="translate(147.412109 0)"/>
       <use xlink:href="#DejaVuSans-35" transform="translate(179.199219 0)"/>
      </g>
     </g>
    </g>
    <g id="ytick_3">
     <g id="line2d_11">
      <g>
       <use xlink:href="#m67c8dbf5ea" x="54.323678" y="295.326533" style="stroke: #000000; stroke-width: 0.8"/>
      </g>
     </g>
     <g id="text_12">
      <!-- −5.0 -->
      <g transform="translate(23.040865 299.125752) scale(0.1 -0.1)">
       <use xlink:href="#DejaVuSans-2212"/>
       <use xlink:href="#DejaVuSans-35" transform="translate(83.789062 0)"/>
       <use xlink:href="#DejaVuSans-2e" transform="translate(147.412109 0)"/>
       <use xlink:href="#DejaVuSans-30" transform="translate(179.199219 0)"/>
      </g>
     </g>
    </g>
    <g id="ytick_4">
     <g id="line2d_12">
      <g>
       <use xlink:href="#m67c8dbf5ea" x="54.323678" y="251.853735" style="stroke: #000000; stroke-width: 0.8"/>
      </g>
     </g>
     <g id="text_13">
      <!-- −2.5 -->
      <g transform="translate(23.040865 255.652954) scale(0.1 -0.1)">
       <use xlink:href="#DejaVuSans-2212"/>
       <use xlink:href="#DejaVuSans-32" transform="translate(83.789062 0)"/>
       <use xlink:href="#DejaVuSans-2e" transform="translate(147.412109 0)"/>
       <use xlink:href="#DejaVuSans-35" transform="translate(179.199219 0)"/>
      </g>
     </g>
    </g>
    <g id="ytick_5">
     <g id="line2d_13">
      <g>
       <use xlink:href="#m67c8dbf5ea" x="54.323678" y="208.380937" style="stroke: #000000; stroke-width: 0.8"/>
      </g>
     </g>
     <g id="text_14">
      <!-- 0.0 -->
      <g transform="translate(31.420552 212.180156) scale(0.1 -0.1)">
       <use xlink:href="#DejaVuSans-30"/>
       <use xlink:href="#DejaVuSans-2e" transform="translate(63.623047 0)"/>
       <use xlink:href="#DejaVuSans-30" transform="translate(95.410156 0)"/>
      </g>
     </g>
    </g>
    <g id="ytick_6">
     <g id="line2d_14">
      <g>
       <use xlink:href="#m67c8dbf5ea" x="54.323678" y="164.90814" style="stroke: #000000; stroke-width: 0.8"/>
      </g>
     </g>
     <g id="text_15">
      <!-- 2.5 -->
      <g transform="translate(31.420552 168.707358) scale(0.1 -0.1)">
       <use xlink:href="#DejaVuSans-32"/>
       <use xlink:href="#DejaVuSans-2e" transform="translate(63.623047 0)"/>
       <use xlink:href="#DejaVuSans-35" transform="translate(95.410156 0)"/>
      </g>
     </g>
    </g>
    <g id="ytick_7">
     <g id="line2d_15">
      <g>
       <use xlink:href="#m67c8dbf5ea" x="54.323678" y="121.435342" style="stroke: #000000; stroke-width: 0.8"/>
      </g>
     </g>
     <g id="text_16">
      <!-- 5.0 -->
      <g transform="translate(31.420552 125.23456) scale(0.1 -0.1)">
       <use xlink:href="#DejaVuSans-35"/>
       <use xlink:href="#DejaVuSans-2e" transform="translate(63.623047 0)"/>
       <use xlink:href="#DejaVuSans-30" transform="translate(95.410156 0)"/>
      </g>
     </g>
    </g>
    <g id="ytick_8">
     <g id="line2d_16">
      <g>
       <use xlink:href="#m67c8dbf5ea" x="54.323678" y="77.962544" style="stroke: #000000; stroke-width: 0.8"/>
      </g>
     </g>
     <g id="text_17">
      <!-- 7.5 -->
      <g transform="translate(31.420552 81.761762) scale(0.1 -0.1)">
       <use xlink:href="#DejaVuSans-37"/>
       <use xlink:href="#DejaVuSans-2e" transform="translate(63.623047 0)"/>
       <use xlink:href="#DejaVuSans-35" transform="translate(95.410156 0)"/>
      </g>
     </g>
    </g>
    <g id="ytick_9">
     <g id="line2d_17">
      <g>
       <use xlink:href="#m67c8dbf5ea" x="54.323678" y="34.489746" style="stroke: #000000; stroke-width: 0.8"/>
      </g>
     </g>
     <g id="text_18">
      <!-- 10.0 -->
      <g transform="translate(25.058053 38.288964) scale(0.1 -0.1)">
       <use xlink:href="#DejaVuSans-31"/>
       <use xlink:href="#DejaVuSans-30" transform="translate(63.623047 0)"/>
       <use xlink:href="#DejaVuSans-2e" transform="translate(127.246094 0)"/>
       <use xlink:href="#DejaVuSans-30" transform="translate(159.033203 0)"/>
      </g>
     </g>
    </g>
    <g id="text_19">
     <!-- µV -->
     <g transform="translate(10.598677 214.9825) rotate(-90) scale(0.1 -0.1)">
      <defs>
       <path id="DejaVuSans-b5" d="M 544 -1331 
L 544 3500 
L 1119 3500 
L 1119 1325 
Q 1119 872 1334 640 
Q 1550 409 1972 409 
Q 2434 409 2667 671 
Q 2900 934 2900 1459 
L 2900 3500 
L 3475 3500 
L 3475 806 
Q 3475 619 3529 530 
Q 3584 441 3700 441 
Q 3728 441 3778 458 
Q 3828 475 3916 513 
L 3916 50 
Q 3788 -22 3673 -56 
Q 3559 -91 3450 -91 
Q 3234 -91 3106 31 
Q 2978 153 2931 403 
Q 2775 156 2548 32 
Q 2322 -91 2016 -91 
Q 1697 -91 1473 31 
Q 1250 153 1119 397 
L 1119 -1331 
L 544 -1331 
z
" transform="scale(0.015625)"/>
       <path id="DejaVuSans-56" d="M 1831 0 
L 50 4666 
L 709 4666 
L 2188 738 
L 3669 4666 
L 4325 4666 
L 2547 0 
L 1831 0 
z
" transform="scale(0.015625)"/>
      </defs>
      <use xlink:href="#DejaVuSans-b5"/>
      <use xlink:href="#DejaVuSans-56" transform="translate(63.623047 0)"/>
     </g>
    </g>
   </g>
   <g id="patch_4">
    <path d="M 79.936477 398.64351 
L 512.448129 398.64351 
" style="fill: none; stroke: #000000; stroke-width: 0.8; stroke-linejoin: miter; stroke-linecap: square"/>
   </g>
   <g id="patch_5">
    <path d="M 54.323678 208.380937 
L 572.99976 208.380937 
" style="fill: none; stroke: #000000; stroke-width: 0.8; stroke-linejoin: miter; stroke-linecap: square"/>
   </g>
   <g id="text_20">
    <!-- zar P600: P3, Pz, P4 (mean) -->
    <g transform="translate(230.594531 12.118365) scale(0.12 -0.12)">
     <defs>
      <path id="DejaVuSans-7a" d="M 353 3500 
L 3084 3500 
L 3084 2975 
L 922 459 
L 3084 459 
L 3084 0 
L 275 0 
L 275 525 
L 2438 3041 
L 353 3041 
L 353 3500 
z
" transform="scale(0.015625)"/>
      <path id="DejaVuSans-61" d="M 2194 1759 
Q 1497 1759 1228 1600 
Q 959 1441 959 1056 
Q 959 750 1161 570 
Q 1363 391 1709 391 
Q 2188 391 2477 730 
Q 2766 1069 2766 1631 
L 2766 1759 
L 2194 1759 
z
M 3341 1997 
L 3341 0 
L 2766 0 
L 2766 531 
Q 2569 213 2275 61 
Q 1981 -91 1556 -91 
Q 1019 -91 701 211 
Q 384 513 384 1019 
Q 384 1609 779 1909 
Q 1175 2209 1959 2209 
L 2766 2209 
L 2766 2266 
Q 2766 2663 2505 2880 
Q 2244 3097 1772 3097 
Q 1472 3097 1187 3025 
Q 903 2953 641 2809 
L 641 3341 
Q 956 3463 1253 3523 
Q 1550 3584 1831 3584 
Q 2591 3584 2966 3190 
Q 3341 2797 3341 1997 
z
" transform="scale(0.015625)"/>
      <path id="DejaVuSans-72" d="M 2631 2963 
Q 2534 3019 2420 3045 
Q 2306 3072 2169 3072 
Q 1681 3072 1420 2755 
Q 1159 2438 1159 1844 
L 1159 0 
L 581 0 
L 581 3500 
L 1159 3500 
L 1159 2956 
Q 1341 3275 1631 3429 
Q 1922 3584 2338 3584 
Q 2397 3584 2469 3576 
Q 2541 3569 2628 3553 
L 2631 2963 
z
" transform="scale(0.015625)"/>
      <path id="DejaVuSans-50" d="M 1259 4147 
L 1259 2394 
L 2053 2394 
Q 2494 2394 2734 2622 
Q 2975 2850 2975 3272 
Q 2975 3691 2734 3919 
Q 2494 4147 2053 4147 
L 1259 4147 
z
M 628 4666 
L 2053 4666 
Q 2838 4666 3239 4311 
Q 3641 3956 3641 3272 
Q 3641 2581 3239 2228 
Q 2838 1875 2053 1875 
L 1259 1875 
L 1259 0 
L 628 0 
L 628 4666 
z
" transform="scale(0.015625)"/>
      <path id="DejaVuSans-3a" d="M 750 794 
L 1409 794 
L 1409 0 
L 750 0 
L 750 794 
z
M 750 3309 
L 1409 3309 
L 1409 2516 
L 750 2516 
L 750 3309 
z
" transform="scale(0.015625)"/>
      <path id="DejaVuSans-33" d="M 2597 2516 
Q 3050 2419 3304 2112 
Q 3559 1806 3559 1356 
Q 3559 666 3084 287 
Q 2609 -91 1734 -91 
Q 1441 -91 1130 -33 
Q 819 25 488 141 
L 488 750 
Q 750 597 1062 519 
Q 1375 441 1716 441 
Q 2309 441 2620 675 
Q 2931 909 2931 1356 
Q 2931 1769 2642 2001 
Q 2353 2234 1838 2234 
L 1294 2234 
L 1294 2753 
L 1863 2753 
Q 2328 2753 2575 2939 
Q 2822 3125 2822 3475 
Q 2822 3834 2567 4026 
Q 2313 4219 1838 4219 
Q 1578 4219 1281 4162 
Q 984 4106 628 3988 
L 628 4550 
Q 988 4650 1302 4700 
Q 1616 4750 1894 4750 
Q 2613 4750 3031 4423 
Q 3450 4097 3450 3541 
Q 3450 3153 3228 2886 
Q 3006 2619 2597 2516 
z
" transform="scale(0.015625)"/>
      <path id="DejaVuSans-2c" d="M 750 794 
L 1409 794 
L 1409 256 
L 897 -744 
L 494 -744 
L 750 256 
L 750 794 
z
" transform="scale(0.015625)"/>
      <path id="DejaVuSans-6e" d="M 3513 2113 
L 3513 0 
L 2938 0 
L 2938 2094 
Q 2938 2591 2744 2837 
Q 2550 3084 2163 3084 
Q 1697 3084 1428 2787 
Q 1159 2491 1159 1978 
L 1159 0 
L 581 0 
L 581 3500 
L 1159 3500 
L 1159 2956 
Q 1366 3272 1645 3428 
Q 1925 3584 2291 3584 
Q 2894 3584 3203 3211 
Q 3513 2838 3513 2113 
z
" transform="scale(0.015625)"/>
     </defs>
     <use xlink:href="#DejaVuSans-7a"/>
     <use xlink:href="#DejaVuSans-61" transform="translate(52.490234 0)"/>
     <use xlink:href="#DejaVuSans-72" transform="translate(113.769531 0)"/>
     <use xlink:href="#DejaVuSans-20" transform="translate(154.882812 0)"/>
     <use xlink:href="#DejaVuSans-50" transform="translate(186.669922 0)"/>
     <use xlink:href="#DejaVuSans-36" transform="translate(246.972656 0)"/>
     <use xlink:href="#DejaVuSans-30" transform="translate(310.595703 0)"/>
     <use xlink:href="#DejaVuSans-30" transform="translate(374.21875 0)"/>
     <use xlink:href="#DejaVuSans-3a" transform="translate(437.841797 0)"/>
     <use xlink:href="#DejaVuSans-20" transform="translate(471.533203 0)"/>
     <use xlink:href="#DejaVuSans-50" transform="translate(503.320312 0)"/>
     <use xlink:href="#DejaVuSans-33" transform="translate(563.623047 0)"/>
     <use xlink:href="#DejaVuSans-2c" transform="translate(627.246094 0)"/>
     <use xlink:href="#DejaVuSans-20" transform="translate(659.033203 0)"/>
     <use xlink:href="#DejaVuSans-50" transform="translate(690.820312 0)"/>
     <use xlink:href="#DejaVuSans-7a" transform="translate(751.123047 0)"/>
     <use xlink:href="#DejaVuSans-2c" transform="translate(803.613281 0)"/>
     <use xlink:href="#DejaVuSans-20" transform="translate(835.400391 0)"/>
     <use xlink:href="#DejaVuSans-50" transform="translate(867.1875 0)"/>
     <use xlink:href="#DejaVuSans-34" transform="translate(927.490234 0)"/>
     <use xlink:href="#DejaVuSans-20" transform="translate(991.113281 0)"/>
     <use xlink:href="#DejaVuSans-28" transform="translate(1022.900391 0)"/>
     <use xlink:href="#DejaVuSans-6d" transform="translate(1061.914062 0)"/>
     <use xlink:href="#DejaVuSans-65" transform="translate(1159.326172 0)"/>
     <use xlink:href="#DejaVuSans-61" transform="translate(1220.849609 0)"/>
     <use xlink:href="#DejaVuSans-6e" transform="translate(1282.128906 0)"/>
     <use xlink:href="#DejaVuSans-29" transform="translate(1345.507812 0)"/>
    </g>
   </g>
   <g id="legend_1">
    <g id="patch_6">
     <path d="M 61.323678 55.75274 
L 142.465865 55.75274 
Q 144.465865 55.75274 144.465865 53.75274 
L 144.465865 25.118365 
Q 144.465865 23.118365 142.465865 23.118365 
L 61.323678 23.118365 
Q 59.323678 23.118365 59.323678 25.118365 
L 59.323678 53.75274 
Q 59.323678 55.75274 61.323678 55.75274 
z
" style="fill: #ffffff; opacity: 0.8; stroke: #cccccc; stroke-linejoin: miter"/>
    </g>
    <g id="line2d_18">
     <path d="M 63.323678 31.216803 
L 73.323678 31.216803 
L 83.323678 31.216803 
" style="fill: none; stroke: #1f77b4; stroke-width: 1.5; stroke-linecap: square"/>
    </g>
    <g id="text_21">
     <!-- eerie -->
     <g transform="translate(91.323678 34.716803) scale(0.1 -0.1)">
      <use xlink:href="#DejaVuSans-65"/>
      <use xlink:href="#DejaVuSans-65" transform="translate(61.523438 0)"/>
      <use xlink:href="#DejaVuSans-72" transform="translate(123.046875 0)"/>
      <use xlink:href="#DejaVuSans-69" transform="translate(164.160156 0)"/>
      <use xlink:href="#DejaVuSans-65" transform="translate(191.943359 0)"/>
     </g>
    </g>
    <g id="line2d_19">
     <path d="M 63.323678 45.894928 
L 73.323678 45.894928 
L 83.323678 45.894928 
" style="fill: none; stroke: #ff7f0e; stroke-width: 1.5; stroke-linecap: square"/>
    </g>
    <g id="text_22">
     <!-- non_eerie -->
     <g transform="translate(91.323678 49.394928) scale(0.1 -0.1)">
      <defs>
       <path id="DejaVuSans-6f" d="M 1959 3097 
Q 1497 3097 1228 2736 
Q 959 2375 959 1747 
Q 959 1119 1226 758 
Q 1494 397 1959 397 
Q 2419 397 2687 759 
Q 2956 1122 2956 1747 
Q 2956 2369 2687 2733 
Q 2419 3097 1959 3097 
z
M 1959 3584 
Q 2709 3584 3137 3096 
Q 3566 2609 3566 1747 
Q 3566 888 3137 398 
Q 2709 -91 1959 -91 
Q 1206 -91 779 398 
Q 353 888 353 1747 
Q 353 2609 779 3096 
Q 1206 3584 1959 3584 
z
" transform="scale(0.015625)"/>
       <path id="DejaVuSans-5f" d="M 3263 -1063 
L 3263 -1509 
L -63 -1509 
L -63 -1063 
L 3263 -1063 
z
" transform="scale(0.015625)"/>
      </defs>
      <use xlink:href="#DejaVuSans-6e"/>
      <use xlink:href="#DejaVuSans-6f" transform="translate(63.378906 0)"/>
      <use xlink:href="#DejaVuSans-6e" transform="translate(124.560547 0)"/>
      <use xlink:href="#DejaVuSans-5f" transform="translate(187.939453 0)"/>
      <use xlink:href="#DejaVuSans-65" transform="translate(237.939453 0)"/>
      <use xlink:href="#DejaVuSans-65" transform="translate(299.462891 0)"/>
      <use xlink:href="#DejaVuSans-72" transform="translate(360.986328 0)"/>
      <use xlink:href="#DejaVuSans-69" transform="translate(402.099609 0)"/>
      <use xlink:href="#DejaVuSans-65" transform="translate(429.882812 0)"/>
     </g>
    </g>
   </g>
   <g id="line2d_20">
    <path d="M 54.323678 185.255308 
L 56.013176 181.135453 
L 57.702675 180.321901 
L 59.392173 183.47697 
L 61.081672 189.476731 
L 62.771171 196.023647 
L 64.460669 200.970594 
L 66.150168 203.513412 
L 67.839667 204.509809 
L 69.529165 205.720014 
L 71.218664 208.485418 
L 74.597661 217.330469 
L 76.28716 220.357771 
L 77.976658 220.889363 
L 79.666157 219.223913 
L 81.355656 216.621102 
L 83.045154 214.37098 
L 84.734653 213.013882 
L 86.424152 212.209594 
L 88.11365 211.244004 
L 89.803149 209.692568 
L 93.182146 205.772037 
L 94.871645 204.177683 
L 98.250642 201.376021 
L 99.940141 199.766372 
L 101.629639 198.444775 
L 103.319138 198.170516 
L 105.008637 199.415217 
L 106.698135 201.882125 
L 108.387634 204.594477 
L 110.077133 206.553835 
L 111.766631 207.47186 
L 113.45613 207.973742 
L 115.145629 209.090731 
L 116.835127 211.390175 
L 118.524626 214.412709 
L 120.214124 216.863175 
L 121.903623 217.543495 
L 123.593122 216.290494 
L 125.28262 214.228917 
L 126.972119 213.081547 
L 128.661618 214.037342 
L 130.351116 216.964379 
L 132.040615 220.546053 
L 133.730114 223.24505 
L 135.419612 224.296351 
L 137.109111 224.060337 
L 138.79861 223.53614 
L 140.488108 223.449147 
L 142.177607 223.672286 
L 143.867105 223.41932 
L 145.556604 221.979533 
L 148.935601 216.673283 
L 150.6251 214.902365 
L 152.314599 214.783823 
L 154.004097 216.138429 
L 157.383095 220.503603 
L 159.072593 222.807297 
L 160.762092 225.51231 
L 164.141089 232.428815 
L 165.830588 235.154065 
L 167.520086 235.888159 
L 169.209585 234.294102 
L 170.899084 231.300944 
L 172.588582 228.830318 
L 174.278081 228.832249 
L 175.96758 232.187063 
L 177.657078 238.205705 
L 179.346577 244.95205 
L 181.036076 250.2408 
L 182.725574 252.754204 
L 184.415073 252.538293 
L 186.104571 250.636955 
L 191.173067 243.214235 
L 194.552065 237.297278 
L 196.241563 235.486722 
L 197.931062 236.157073 
L 199.620561 239.762166 
L 202.999558 250.502379 
L 204.689056 253.454926 
L 206.378555 253.442846 
L 209.757552 249.346097 
L 211.447051 248.256065 
L 213.13655 247.898596 
L 214.826048 246.883608 
L 216.515547 244.103661 
L 218.205046 239.953204 
L 219.894544 236.363955 
L 221.584043 235.550141 
L 223.273542 238.38974 
L 226.652539 249.268601 
L 228.342037 253.206434 
L 231.721035 257.934077 
L 233.410533 261.585468 
L 235.100032 265.961226 
L 236.789531 268.229658 
L 238.479029 264.817802 
L 240.168528 253.720717 
L 241.858027 235.952932 
L 245.237024 194.480347 
L 246.926522 176.284028 
L 250.30552 142.159282 
L 253.684517 103.583144 
L 255.374016 87.050823 
L 257.063514 76.598853 
L 258.753013 73.021387 
L 260.442512 74.121875 
L 262.13201 76.082535 
L 263.821509 75.90464 
L 267.200506 70.729839 
L 268.890005 71.700509 
L 270.579503 78.454415 
L 272.269002 90.665604 
L 275.647999 120.963539 
L 277.337498 134.442445 
L 280.716495 158.840323 
L 285.784991 200.198445 
L 287.47449 210.257799 
L 289.163988 215.426234 
L 290.853487 215.695759 
L 292.542986 212.284517 
L 294.232484 206.753054 
L 295.921983 200.170183 
L 297.611482 192.926941 
L 304.369476 162.189949 
L 306.058975 156.213177 
L 309.437972 145.799217 
L 312.816969 135.938509 
L 314.506468 132.065135 
L 316.195967 129.220885 
L 317.885465 126.849768 
L 319.574964 123.939504 
L 321.264463 119.677127 
L 322.953961 113.98242 
L 326.332959 101.225839 
L 329.711956 90.095846 
L 334.780452 73.531772 
L 336.46995 70.051292 
L 338.159449 69.314207 
L 339.848948 71.237255 
L 341.538446 74.580716 
L 343.227945 77.550319 
L 344.917444 78.665419 
L 346.606942 77.41458 
L 348.296441 74.319869 
L 351.675438 66.82967 
L 353.364937 63.960843 
L 355.054435 61.79076 
L 356.743934 59.813765 
L 358.433433 57.350105 
L 360.122931 53.917768 
L 361.81243 49.492668 
L 363.501929 44.599419 
L 365.191427 40.090305 
L 366.880926 36.654666 
L 368.570425 34.366499 
L 370.259923 32.58004 
L 371.949422 30.329622 
L 373.63892 27.06428 
L 375.328419 23.148865 
L 377.017918 19.743972 
L 378.707416 18.118365 
L 380.396915 18.880593 
L 382.086414 21.68246 
L 387.15491 33.537029 
L 388.844408 37.586471 
L 390.533907 42.104671 
L 392.223406 47.17079 
L 395.602403 58.187577 
L 400.670899 75.074914 
L 402.360397 78.952323 
L 404.049896 80.055396 
L 405.739395 77.769214 
L 407.428893 72.809202 
L 409.118392 67.092916 
L 410.807891 62.849247 
L 412.497389 61.428525 
L 414.186888 62.614487 
L 415.876386 64.958107 
L 417.565885 66.77227 
L 419.255384 67.089102 
L 420.944882 65.969878 
L 424.32388 62.172848 
L 426.013378 60.544039 
L 427.702877 59.467289 
L 429.392376 59.392579 
L 431.081874 61.063291 
L 432.771373 65.144735 
L 434.460872 71.683608 
L 439.529367 95.668179 
L 441.218866 101.540337 
L 442.908365 106.212547 
L 446.287362 114.84596 
L 453.045357 133.871268 
L 454.734855 137.465696 
L 456.424354 139.470587 
L 458.113852 139.074187 
L 459.803351 135.940105 
L 463.182348 125.314726 
L 464.871847 121.854791 
L 466.561346 121.915216 
L 468.250844 125.432165 
L 469.940343 130.691008 
L 471.629842 135.268294 
L 473.31934 137.402209 
L 475.008839 136.887551 
L 476.698338 134.966127 
L 478.387836 133.355754 
L 480.077335 133.111123 
L 481.766833 134.110849 
L 483.456332 135.450931 
L 485.145831 136.315554 
L 486.835329 136.656424 
L 488.524828 137.193917 
L 490.214327 138.837169 
L 491.903825 142.061457 
L 493.593324 146.703629 
L 495.282823 152.291034 
L 496.972321 158.507668 
L 498.66182 165.346366 
L 502.040817 180.836108 
L 503.730316 188.674118 
L 505.419814 195.754242 
L 507.109313 201.86592 
L 510.48831 212.454566 
L 512.177809 217.178393 
L 513.867308 220.569184 
L 515.556806 221.371185 
L 517.246305 218.858833 
L 518.935804 213.535217 
L 520.625302 207.070874 
L 522.314801 201.470219 
L 524.004299 198.035968 
L 525.693798 196.864835 
L 527.383297 197.14033 
L 529.072795 197.976933 
L 530.762294 199.070953 
L 532.451793 200.717859 
L 534.141291 203.279971 
L 537.520289 209.763311 
L 539.209787 211.949844 
L 540.899286 212.754899 
L 544.278283 212.374032 
L 545.967782 212.607104 
L 547.65728 213.103789 
L 549.346779 213.111288 
L 551.036278 212.092237 
L 552.725776 210.394821 
L 554.415275 209.287792 
L 556.104774 210.222138 
L 557.794272 213.818838 
L 561.17327 224.965621 
L 562.862768 228.946737 
L 564.552267 230.455887 
L 566.241765 229.895895 
L 567.931264 228.310995 
L 569.620763 226.472717 
L 571.310261 224.396334 
L 572.99976 221.610877 
L 572.99976 221.610877 
" style="fill: none; stroke: #1f77b4; stroke-width: 1.5; stroke-linecap: square"/>
   </g>
   <g id="line2d_21">
    <path d="M 54.323678 198.081974 
L 56.013176 195.490958 
L 59.392173 186.836648 
L 61.081672 184.748454 
L 62.771171 185.390001 
L 64.460669 187.598998 
L 66.150168 189.567415 
L 67.839667 190.314388 
L 69.529165 190.344947 
L 71.218664 191.003475 
L 72.908163 193.096926 
L 74.597661 196.044051 
L 76.28716 198.266177 
L 77.976658 198.519708 
L 81.355656 195.791282 
L 83.045154 196.714671 
L 84.734653 200.708926 
L 88.11365 212.597013 
L 89.803149 216.595006 
L 91.492648 218.667517 
L 93.182146 220.33551 
L 94.871645 223.399446 
L 96.561144 228.422611 
L 98.250642 234.110197 
L 99.940141 238.060675 
L 101.629639 238.35656 
L 103.319138 234.86258 
L 105.008637 229.359697 
L 106.698135 224.458831 
L 108.387634 222.03655 
L 110.077133 222.255722 
L 111.766631 223.678882 
L 113.45613 224.370013 
L 115.145629 223.15438 
L 116.835127 220.219837 
L 118.524626 216.795292 
L 120.214124 214.18371 
L 121.903623 212.892201 
L 123.593122 212.409733 
L 125.28262 211.68279 
L 126.972119 209.92774 
L 128.661618 207.155088 
L 130.351116 204.124435 
L 132.040615 201.82925 
L 133.730114 200.908587 
L 135.419612 201.387734 
L 137.109111 202.82217 
L 142.177607 208.560742 
L 147.246103 214.46032 
L 148.935601 216.668369 
L 152.314599 221.55046 
L 154.004097 223.636675 
L 155.693596 224.760514 
L 157.383095 224.545065 
L 159.072593 223.110033 
L 160.762092 221.084465 
L 162.45159 219.260405 
L 164.141089 218.068195 
L 165.830588 217.31575 
L 167.520086 216.439606 
L 169.209585 215.061501 
L 170.899084 213.466293 
L 172.588582 212.620424 
L 174.278081 213.655048 
L 175.96758 217.146376 
L 177.657078 222.719553 
L 179.346577 229.19642 
L 181.036076 235.139176 
L 182.725574 239.429953 
L 184.415073 241.570468 
L 186.104571 241.654986 
L 187.79407 240.217649 
L 189.483569 238.08423 
L 191.173067 236.271098 
L 192.862566 235.757625 
L 194.552065 237.04731 
L 196.241563 239.79902 
L 197.931062 242.842462 
L 199.620561 244.738154 
L 201.310059 244.675058 
L 202.999558 243.03028 
L 204.689056 241.144466 
L 206.378555 240.370327 
L 208.068054 241.028282 
L 209.757552 242.040159 
L 211.447051 241.609785 
L 213.13655 238.496806 
L 214.826048 232.977337 
L 216.515547 226.766954 
L 218.205046 221.984993 
L 219.894544 219.93198 
L 221.584043 220.592835 
L 223.273542 223.151846 
L 224.96304 226.972167 
L 226.652539 232.119916 
L 228.342037 238.949252 
L 231.721035 254.968986 
L 233.410533 259.950562 
L 235.100032 259.961772 
L 236.789531 254.583575 
L 238.479029 245.262435 
L 243.547525 211.469958 
L 245.237024 198.676315 
L 246.926522 183.977381 
L 250.30552 153.074171 
L 251.995018 140.498181 
L 253.684517 130.609008 
L 255.374016 121.935468 
L 257.063514 112.587552 
L 260.442512 91.368698 
L 262.13201 83.654633 
L 263.821509 80.997182 
L 265.511008 83.622338 
L 267.200506 89.69078 
L 268.890005 96.629031 
L 270.579503 102.843841 
L 272.269002 108.537547 
L 273.958501 115.140819 
L 275.647999 123.954855 
L 277.337498 135.090952 
L 280.716495 159.524245 
L 282.405994 170.318027 
L 284.095493 179.598444 
L 285.784991 187.464349 
L 287.47449 193.797226 
L 289.163988 198.129537 
L 290.853487 200.047036 
L 292.542986 199.659554 
L 294.232484 197.654786 
L 295.921983 194.837941 
L 297.611482 191.538267 
L 299.30098 187.452326 
L 300.990479 182.091509 
L 306.058975 162.109016 
L 307.748474 157.615926 
L 309.437972 154.886848 
L 311.127471 152.982188 
L 312.816969 150.661997 
L 314.506468 147.126272 
L 316.195967 142.384618 
L 319.574964 131.876697 
L 321.264463 127.21856 
L 322.953961 123.08463 
L 329.711956 107.603689 
L 333.090953 99.220346 
L 334.780452 95.66413 
L 336.46995 93.39185 
L 338.159449 92.808915 
L 339.848948 93.650404 
L 341.538446 94.935851 
L 343.227945 95.485831 
L 344.917444 94.657628 
L 348.296441 90.953519 
L 349.98594 90.224211 
L 351.675438 90.793131 
L 353.364937 91.782349 
L 355.054435 91.831459 
L 356.743934 90.172591 
L 358.433433 87.377599 
L 360.122931 85.223372 
L 361.81243 85.676653 
L 363.501929 89.614495 
L 366.880926 103.14598 
L 368.570425 108.218099 
L 370.259923 110.229432 
L 371.949422 109.713844 
L 373.63892 108.427348 
L 375.328419 108.215025 
L 377.017918 109.985308 
L 378.707416 113.394405 
L 380.396915 117.349086 
L 382.086414 120.838483 
L 383.775912 123.497209 
L 385.465411 125.523551 
L 387.15491 127.153872 
L 388.844408 128.181232 
L 390.533907 127.967234 
L 392.223406 125.975072 
L 395.602403 118.727874 
L 397.291901 116.646138 
L 398.9814 117.64847 
L 400.670899 121.85012 
L 402.360397 127.828414 
L 404.049896 133.319142 
L 405.739395 136.349043 
L 407.428893 136.221508 
L 409.118392 133.721345 
L 410.807891 130.513745 
L 412.497389 128.14936 
L 414.186888 127.26809 
L 415.876386 127.488878 
L 417.565885 127.929388 
L 419.255384 127.972883 
L 420.944882 127.755286 
L 422.634381 128.085241 
L 424.32388 129.85723 
L 426.013378 133.399058 
L 429.392376 142.93622 
L 431.081874 146.564491 
L 432.771373 148.569488 
L 434.460872 149.480874 
L 436.15037 150.553879 
L 437.839869 153.055032 
L 439.529367 157.533198 
L 444.597863 175.153577 
L 446.287362 178.80556 
L 447.976861 180.767873 
L 449.666359 181.429173 
L 451.355858 181.082571 
L 453.045357 179.685676 
L 454.734855 177.055992 
L 458.113852 169.520029 
L 459.803351 166.793758 
L 461.49285 166.312928 
L 463.182348 168.26787 
L 466.561346 175.452521 
L 468.250844 178.315507 
L 471.629842 182.678586 
L 473.31934 186.091199 
L 475.008839 190.820909 
L 476.698338 195.925938 
L 478.387836 199.916413 
L 480.077335 201.76208 
L 481.766833 201.666556 
L 483.456332 201.026445 
L 485.145831 201.62465 
L 486.835329 204.610972 
L 488.524828 209.886431 
L 491.903825 222.392719 
L 493.593324 227.207501 
L 495.282823 230.630313 
L 496.972321 233.166991 
L 500.351318 237.639374 
L 502.040817 239.573794 
L 503.730316 240.714575 
L 505.419814 240.613415 
L 507.109313 239.130667 
L 508.798812 236.503648 
L 512.177809 229.938674 
L 513.867308 227.347726 
L 515.556806 226.234111 
L 517.246305 227.334685 
L 518.935804 231.0887 
L 520.625302 237.298111 
L 524.004299 252.075005 
L 525.693798 256.96686 
L 527.383297 258.453235 
L 529.072795 256.828504 
L 530.762294 253.711029 
L 532.451793 251.194263 
L 534.141291 250.656206 
L 535.83079 251.953862 
L 537.520289 253.597266 
L 539.209787 253.81615 
L 540.899286 251.798371 
L 544.278283 244.860639 
L 545.967782 242.962431 
L 549.346779 242.101723 
L 551.036278 239.912536 
L 552.725776 235.226117 
L 554.415275 229.064376 
L 556.104774 223.615556 
L 557.794272 220.781271 
L 559.483771 220.941723 
L 561.17327 222.79851 
L 562.862768 224.400313 
L 564.552267 224.565452 
L 566.241765 223.630414 
L 567.931264 222.994588 
L 569.620763 223.844955 
L 572.99976 228.264128 
L 572.99976 228.264128 
" style="fill: none; stroke: #ff7f0e; stroke-width: 1.5; stroke-linecap: square"/>
   </g>
  </g>
  <g id="axes_2">
   <g id="PathCollection_1">
    <defs>
     <path id="C0_0_1197cd805b" d="M 0 1.118034 
C 0.296506 1.118034 0.580908 1.000231 0.790569 0.790569 
C 1.000231 0.580908 1.118034 0.296506 1.118034 -0 
C 1.118034 -0.296506 1.000231 -0.580908 0.790569 -0.790569 
C 0.580908 -1.000231 0.296506 -1.118034 0 -1.118034 
C -0.296506 -1.118034 -0.580908 -1.000231 -0.790569 -0.790569 
C -1.000231 -0.580908 -1.118034 -0.296506 -1.118034 0 
C -1.118034 0.296506 -1.000231 0.580908 -0.790569 0.790569 
C -0.580908 1.000231 -0.296506 1.118034 0 1.118034 
z
"/>
    </defs>
    <g clip-path="url(#p36b63c3960)">
     <use xlink:href="#C0_0_1197cd805b" x="505.154737" y="86.067345" style="stroke: #000000"/>
    </g>
    <g clip-path="url(#p36b63c3960)">
     <use xlink:href="#C0_0_1197cd805b" x="535.681738" y="86.077318" style="stroke: #000000"/>
    </g>
    <g clip-path="url(#p36b63c3960)">
     <use xlink:href="#C0_0_1197cd805b" x="520.170587" y="85.799733" style="stroke: #000000"/>
    </g>
   </g>
   <g id="matplotlib.axis_3"/>
   <g id="matplotlib.axis_4"/>
   <g id="line2d_22">
    <path d="M 559.993351 73.636224 
L 559.915677 71.164608 
L 559.682963 68.702747 
L 559.296126 66.260356 
L 558.756694 63.847075 
L 558.066795 61.472426 
L 557.229152 59.145783 
L 556.24707 56.876327 
L 555.124426 54.673014 
L 553.865651 52.54454 
L 552.475711 50.499306 
L 550.960092 48.545383 
L 549.324777 46.690481 
L 547.576218 44.941922 
L 545.721317 43.306607 
L 543.767393 41.790989 
L 541.722159 40.401049 
L 539.593685 39.142273 
L 537.390373 38.019629 
L 535.120917 37.037548 
L 532.794273 36.199905 
L 530.419625 35.510005 
L 528.006343 34.970573 
L 525.563952 34.583736 
L 523.102091 34.351022 
L 520.630476 34.273348 
L 518.15886 34.351022 
L 515.696999 34.583736 
L 513.254608 34.970573 
L 510.841326 35.510005 
L 508.466678 36.199905 
L 506.140035 37.037548 
L 503.870578 38.019629 
L 501.667266 39.142273 
L 499.538792 40.401049 
L 497.493558 41.790989 
L 495.539634 43.306607 
L 493.684733 44.941922 
L 491.936174 46.690481 
L 490.300859 48.545383 
L 488.78524 50.499306 
L 487.395301 52.54454 
L 486.136525 54.673014 
L 485.013881 56.876327 
L 484.031799 59.145783 
L 483.194156 61.472426 
L 482.504257 63.847075 
L 481.964825 66.260356 
L 481.577988 68.702747 
L 481.345274 71.164608 
L 481.2676 73.636224 
L 481.345274 76.107839 
L 481.577988 78.5697 
L 481.964825 81.012091 
L 482.504257 83.425373 
L 483.194156 85.800021 
L 484.031799 88.126665 
L 485.013881 90.396121 
L 486.136525 92.599434 
L 487.395301 94.727907 
L 488.78524 96.773142 
L 490.300859 98.727065 
L 491.936174 100.581966 
L 493.684733 102.330525 
L 495.539634 103.965841 
L 497.493558 105.481459 
L 499.538792 106.871399 
L 501.667266 108.130175 
L 503.870578 109.252818 
L 506.140035 110.2349 
L 508.466678 111.072543 
L 510.841326 111.762442 
L 513.254608 112.301875 
L 515.696999 112.688711 
L 518.15886 112.921426 
L 520.630476 112.999099 
L 523.102091 112.921426 
L 525.563952 112.688711 
L 528.006343 112.301875 
L 530.419625 111.762442 
L 532.794273 111.072543 
L 535.120917 110.2349 
L 537.390373 109.252818 
L 539.593685 108.130175 
L 541.722159 106.871399 
L 543.767393 105.481459 
L 545.721317 103.965841 
L 547.576218 102.330525 
L 549.324777 100.581966 
L 550.960092 98.727065 
L 552.475711 96.773142 
L 553.865651 94.727907 
L 555.124426 92.599434 
L 556.24707 90.396121 
L 557.229152 88.126665 
L 558.066795 85.800021 
L 558.756694 83.425373 
L 559.296126 81.012091 
L 559.682963 78.5697 
L 559.915677 76.107839 
L 559.993351 73.636224 
" style="fill: none; stroke: #000000; stroke-linecap: square"/>
   </g>
   <g id="line2d_23">
    <path d="M 512.386334 35.146354 
L 520.630476 28.368917 
L 528.874617 35.146354 
" style="fill: none; stroke: #000000; stroke-linecap: square"/>
   </g>
   <g id="line2d_24">
    <path d="M 481.503777 69.266945 
L 480.480343 67.534978 
L 479.850537 67.471997 
L 478.9137 67.763283 
L 477.968991 69.266945 
L 478.11857 74.069215 
L 477.56749 80.973464 
L 478.748376 83.972915 
L 480.480343 84.531868 
L 482.133583 83.075441 
" style="fill: none; stroke: #000000; stroke-linecap: square"/>
   </g>
   <g id="line2d_25">
    <path d="M 559.757174 69.266945 
L 560.780609 67.534978 
L 561.410415 67.471997 
L 562.347251 67.763283 
L 563.29196 69.266945 
L 563.142381 74.069215 
L 563.693461 80.973464 
L 562.512575 83.972915 
L 560.780609 84.531868 
L 559.127368 83.075441 
" style="fill: none; stroke: #000000; stroke-linecap: square"/>
   </g>
  </g>
 </g>
 <defs>
  <clipPath id="p036c152b19">
   <rect x="54.323678" y="18.118365" width="518.676083" height="380.525145"/>
  </clipPath>
  <clipPath id="p36b63c3960">
   <rect x="473.261191" y="24.137408" width="94.738569" height="93.093201"/>
  </clipPath>
 </defs>
</svg>
