<?xml version="1.0" encoding="utf-8" standalone="no"?>
<!DOCTYPE svg PUBLIC "-//W3C//DTD SVG 1.1//EN"
  "http://www.w3.org/Graphics/SVG/1.1/DTD/svg11.dtd">
<svg xmlns:xlink="http://www.w3.org/1999/xlink" width="576pt" height="432pt" viewBox="0 0 576 432" xmlns="http://www.w3.org/2000/svg" version="1.1">
 <metadata>
  <rdf:RDF xmlns:dc="http://purl.org/dc/elements/1.1/" xmlns:cc="http://creativecommons.org/ns#" xmlns:rdf="http://www.w3.org/1999/02/22-rdf-syntax-ns#">
   <cc:Work>
    <dc:type rdf:resource="http://purl.org/dc/dcmitype/StillImage"/>
    <dc:date>2025-02-14T14:31:20.911365</dc:date>
    <dc:format>image/svg+xml</dc:format>
    <dc:creator>
     <cc:Agent>
      <dc:title>Matplotlib v3.10.0, https://matplotlib.org/</dc:title>
     </cc:Agent>
    </dc:creator>
   </cc:Work>
  </rdf:RDF>
 </metadata>
 <defs>
  <style type="text/css">*{stroke-linejoin: round; stroke-linecap: butt}</style>
 </defs>
 <g id="figure_1">
  <g id="patch_1">
   <path d="M 0 432 
L 576 432 
L 576 0 
L 0 0 
z
" style="fill: #ffffff"/>
  </g>
  <g id="axes_1">
   <g id="patch_2">
    <path d="M 54.323678 398.64351 
L 572.99976 398.64351 
L 572.99976 18.118365 
L 54.323678 18.118365 
L 54.323678 398.64351 
z
" style="fill: none; opacity: 0"/>
   </g>
   <g id="patch_3">
    <path d="M 54.323678 393.568497 
L 54.323678 23.193378 
" style="fill: none; stroke: #000000; stroke-width: 0.8; stroke-linejoin: miter; stroke-linecap: square"/>
   </g>
   <g id="LineCollection_1">
    <path d="M 196.714623 18.118365 
L 196.714623 398.64351 
" clip-path="url(#pc4b6f41417)" style="fill: none; stroke-dasharray: 3.7,1.6; stroke-dashoffset: 0; stroke: #000000"/>
    <path d="M 222.665322 18.118365 
L 222.665322 398.64351 
" clip-path="url(#pc4b6f41417)" style="fill: none; stroke-dasharray: 3.7,1.6; stroke-dashoffset: 0; stroke: #000000"/>
   </g>
   <g id="matplotlib.axis_1">
    <g id="xtick_1">
     <g id="line2d_1">
      <defs>
       <path id="m1f1600f214" d="M 0 0 
L 0 3.5 
" style="stroke: #000000; stroke-width: 0.8"/>
      </defs>
      <g>
       <use xlink:href="#m1f1600f214" x="79.936477" y="398.64351" style="stroke: #000000; stroke-width: 0.8"/>
      </g>
     </g>
     <g id="text_1">
      <!-- −0.20 -->
      <g transform="translate(64.613821 413.241947) scale(0.1 -0.1)">
       <defs>
        <path id="DejaVuSans-2212" d="M 678 2272 
L 4684 2272 
L 4684 1741 
L 678 1741 
L 678 2272 
z
" transform="scale(0.015625)"/>
        <path id="DejaVuSans-30" d="M 2034 4250 
Q 1547 4250 1301 3770 
Q 1056 3291 1056 2328 
Q 1056 1369 1301 889 
Q 1547 409 2034 409 
Q 2525 409 2770 889 
Q 3016 1369 3016 2328 
Q 3016 3291 2770 3770 
Q 2525 4250 2034 4250 
z
M 2034 4750 
Q 2819 4750 3233 4129 
Q 3647 3509 3647 2328 
Q 3647 1150 3233 529 
Q 2819 -91 2034 -91 
Q 1250 -91 836 529 
Q 422 1150 422 2328 
Q 422 3509 836 4129 
Q 1250 4750 2034 4750 
z
" transform="scale(0.015625)"/>
        <path id="DejaVuSans-2e" d="M 684 794 
L 1344 794 
L 1344 0 
L 684 0 
L 684 794 
z
" transform="scale(0.015625)"/>
        <path id="DejaVuSans-32" d="M 1228 531 
L 3431 531 
L 3431 0 
L 469 0 
L 469 531 
Q 828 903 1448 1529 
Q 2069 2156 2228 2338 
Q 2531 2678 2651 2914 
Q 2772 3150 2772 3378 
Q 2772 3750 2511 3984 
Q 2250 4219 1831 4219 
Q 1534 4219 1204 4116 
Q 875 4013 500 3803 
L 500 4441 
Q 881 4594 1212 4672 
Q 1544 4750 1819 4750 
Q 2544 4750 2975 4387 
Q 3406 4025 3406 3419 
Q 3406 3131 3298 2873 
Q 3191 2616 2906 2266 
Q 2828 2175 2409 1742 
Q 1991 1309 1228 531 
z
" transform="scale(0.015625)"/>
       </defs>
       <use xlink:href="#DejaVuSans-2212"/>
       <use xlink:href="#DejaVuSans-30" transform="translate(83.789062 0)"/>
       <use xlink:href="#DejaVuSans-2e" transform="translate(147.412109 0)"/>
       <use xlink:href="#DejaVuSans-32" transform="translate(179.199219 0)"/>
       <use xlink:href="#DejaVuSans-30" transform="translate(242.822266 0)"/>
      </g>
     </g>
    </g>
    <g id="xtick_2">
     <g id="line2d_2">
      <g>
       <use xlink:href="#m1f1600f214" x="166.438807" y="398.64351" style="stroke: #000000; stroke-width: 0.8"/>
      </g>
     </g>
     <g id="text_2">
      <!-- 0.00 -->
      <g transform="translate(155.305995 413.241947) scale(0.1 -0.1)">
       <use xlink:href="#DejaVuSans-30"/>
       <use xlink:href="#DejaVuSans-2e" transform="translate(63.623047 0)"/>
       <use xlink:href="#DejaVuSans-30" transform="translate(95.410156 0)"/>
       <use xlink:href="#DejaVuSans-30" transform="translate(159.033203 0)"/>
      </g>
     </g>
    </g>
    <g id="xtick_3">
     <g id="line2d_3">
      <g>
       <use xlink:href="#m1f1600f214" x="196.714623" y="398.64351" style="stroke: #000000; stroke-width: 0.8"/>
      </g>
     </g>
     <g id="text_3">
      <!-- 0.07 -->
      <g transform="translate(185.58181 413.241947) scale(0.1 -0.1)">
       <defs>
        <path id="DejaVuSans-37" d="M 525 4666 
L 3525 4666 
L 3525 4397 
L 1831 0 
L 1172 0 
L 2766 4134 
L 525 4134 
L 525 4666 
z
" transform="scale(0.015625)"/>
       </defs>
       <use xlink:href="#DejaVuSans-30"/>
       <use xlink:href="#DejaVuSans-2e" transform="translate(63.623047 0)"/>
       <use xlink:href="#DejaVuSans-30" transform="translate(95.410156 0)"/>
       <use xlink:href="#DejaVuSans-37" transform="translate(159.033203 0)"/>
      </g>
     </g>
    </g>
    <g id="xtick_4">
     <g id="line2d_4">
      <g>
       <use xlink:href="#m1f1600f214" x="222.665322" y="398.64351" style="stroke: #000000; stroke-width: 0.8"/>
      </g>
     </g>
     <g id="text_4">
      <!-- 0.13 -->
      <g transform="translate(211.532509 413.241947) scale(0.1 -0.1)">
       <defs>
        <path id="DejaVuSans-31" d="M 794 531 
L 1825 531 
L 1825 4091 
L 703 3866 
L 703 4441 
L 1819 4666 
L 2450 4666 
L 2450 531 
L 3481 531 
L 3481 0 
L 794 0 
L 794 531 
z
" transform="scale(0.015625)"/>
        <path id="DejaVuSans-33" d="M 2597 2516 
Q 3050 2419 3304 2112 
Q 3559 1806 3559 1356 
Q 3559 666 3084 287 
Q 2609 -91 1734 -91 
Q 1441 -91 1130 -33 
Q 819 25 488 141 
L 488 750 
Q 750 597 1062 519 
Q 1375 441 1716 441 
Q 2309 441 2620 675 
Q 2931 909 2931 1356 
Q 2931 1769 2642 2001 
Q 2353 2234 1838 2234 
L 1294 2234 
L 1294 2753 
L 1863 2753 
Q 2328 2753 2575 2939 
Q 2822 3125 2822 3475 
Q 2822 3834 2567 4026 
Q 2313 4219 1838 4219 
Q 1578 4219 1281 4162 
Q 984 4106 628 3988 
L 628 4550 
Q 988 4650 1302 4700 
Q 1616 4750 1894 4750 
Q 2613 4750 3031 4423 
Q 3450 4097 3450 3541 
Q 3450 3153 3228 2886 
Q 3006 2619 2597 2516 
z
" transform="scale(0.015625)"/>
       </defs>
       <use xlink:href="#DejaVuSans-30"/>
       <use xlink:href="#DejaVuSans-2e" transform="translate(63.623047 0)"/>
       <use xlink:href="#DejaVuSans-31" transform="translate(95.410156 0)"/>
       <use xlink:href="#DejaVuSans-33" transform="translate(159.033203 0)"/>
      </g>
     </g>
    </g>
    <g id="xtick_5">
     <g id="line2d_5">
      <g>
       <use xlink:href="#m1f1600f214" x="252.941138" y="398.64351" style="stroke: #000000; stroke-width: 0.8"/>
      </g>
     </g>
     <g id="text_5">
      <!-- 0.20 -->
      <g transform="translate(241.808325 413.241947) scale(0.1 -0.1)">
       <use xlink:href="#DejaVuSans-30"/>
       <use xlink:href="#DejaVuSans-2e" transform="translate(63.623047 0)"/>
       <use xlink:href="#DejaVuSans-32" transform="translate(95.410156 0)"/>
       <use xlink:href="#DejaVuSans-30" transform="translate(159.033203 0)"/>
      </g>
     </g>
    </g>
    <g id="xtick_6">
     <g id="line2d_6">
      <g>
       <use xlink:href="#m1f1600f214" x="339.443468" y="398.64351" style="stroke: #000000; stroke-width: 0.8"/>
      </g>
     </g>
     <g id="text_6">
      <!-- 0.40 -->
      <g transform="translate(328.310655 413.241947) scale(0.1 -0.1)">
       <defs>
        <path id="DejaVuSans-34" d="M 2419 4116 
L 825 1625 
L 2419 1625 
L 2419 4116 
z
M 2253 4666 
L 3047 4666 
L 3047 1625 
L 3713 1625 
L 3713 1100 
L 3047 1100 
L 3047 0 
L 2419 0 
L 2419 1100 
L 313 1100 
L 313 1709 
L 2253 4666 
z
" transform="scale(0.015625)"/>
       </defs>
       <use xlink:href="#DejaVuSans-30"/>
       <use xlink:href="#DejaVuSans-2e" transform="translate(63.623047 0)"/>
       <use xlink:href="#DejaVuSans-34" transform="translate(95.410156 0)"/>
       <use xlink:href="#DejaVuSans-30" transform="translate(159.033203 0)"/>
      </g>
     </g>
    </g>
    <g id="xtick_7">
     <g id="line2d_7">
      <g>
       <use xlink:href="#m1f1600f214" x="425.945798" y="398.64351" style="stroke: #000000; stroke-width: 0.8"/>
      </g>
     </g>
     <g id="text_7">
      <!-- 0.60 -->
      <g transform="translate(414.812986 413.241947) scale(0.1 -0.1)">
       <defs>
        <path id="DejaVuSans-36" d="M 2113 2584 
Q 1688 2584 1439 2293 
Q 1191 2003 1191 1497 
Q 1191 994 1439 701 
Q 1688 409 2113 409 
Q 2538 409 2786 701 
Q 3034 994 3034 1497 
Q 3034 2003 2786 2293 
Q 2538 2584 2113 2584 
z
M 3366 4563 
L 3366 3988 
Q 3128 4100 2886 4159 
Q 2644 4219 2406 4219 
Q 1781 4219 1451 3797 
Q 1122 3375 1075 2522 
Q 1259 2794 1537 2939 
Q 1816 3084 2150 3084 
Q 2853 3084 3261 2657 
Q 3669 2231 3669 1497 
Q 3669 778 3244 343 
Q 2819 -91 2113 -91 
Q 1303 -91 875 529 
Q 447 1150 447 2328 
Q 447 3434 972 4092 
Q 1497 4750 2381 4750 
Q 2619 4750 2861 4703 
Q 3103 4656 3366 4563 
z
" transform="scale(0.015625)"/>
       </defs>
       <use xlink:href="#DejaVuSans-30"/>
       <use xlink:href="#DejaVuSans-2e" transform="translate(63.623047 0)"/>
       <use xlink:href="#DejaVuSans-36" transform="translate(95.410156 0)"/>
       <use xlink:href="#DejaVuSans-30" transform="translate(159.033203 0)"/>
      </g>
     </g>
    </g>
    <g id="xtick_8">
     <g id="line2d_8">
      <g>
       <use xlink:href="#m1f1600f214" x="512.448129" y="398.64351" style="stroke: #000000; stroke-width: 0.8"/>
      </g>
     </g>
     <g id="text_8">
      <!-- 0.80 -->
      <g transform="translate(501.315316 413.241947) scale(0.1 -0.1)">
       <defs>
        <path id="DejaVuSans-38" d="M 2034 2216 
Q 1584 2216 1326 1975 
Q 1069 1734 1069 1313 
Q 1069 891 1326 650 
Q 1584 409 2034 409 
Q 2484 409 2743 651 
Q 3003 894 3003 1313 
Q 3003 1734 2745 1975 
Q 2488 2216 2034 2216 
z
M 1403 2484 
Q 997 2584 770 2862 
Q 544 3141 544 3541 
Q 544 4100 942 4425 
Q 1341 4750 2034 4750 
Q 2731 4750 3128 4425 
Q 3525 4100 3525 3541 
Q 3525 3141 3298 2862 
Q 3072 2584 2669 2484 
Q 3125 2378 3379 2068 
Q 3634 1759 3634 1313 
Q 3634 634 3220 271 
Q 2806 -91 2034 -91 
Q 1263 -91 848 271 
Q 434 634 434 1313 
Q 434 1759 690 2068 
Q 947 2378 1403 2484 
z
M 1172 3481 
Q 1172 3119 1398 2916 
Q 1625 2713 2034 2713 
Q 2441 2713 2670 2916 
Q 2900 3119 2900 3481 
Q 2900 3844 2670 4047 
Q 2441 4250 2034 4250 
Q 1625 4250 1398 4047 
Q 1172 3844 1172 3481 
z
" transform="scale(0.015625)"/>
       </defs>
       <use xlink:href="#DejaVuSans-30"/>
       <use xlink:href="#DejaVuSans-2e" transform="translate(63.623047 0)"/>
       <use xlink:href="#DejaVuSans-38" transform="translate(95.410156 0)"/>
       <use xlink:href="#DejaVuSans-30" transform="translate(159.033203 0)"/>
      </g>
     </g>
    </g>
    <g id="text_9">
     <!-- Time (s) -->
     <g transform="translate(293.332812 426.920073) scale(0.1 -0.1)">
      <defs>
       <path id="DejaVuSans-54" d="M -19 4666 
L 3928 4666 
L 3928 4134 
L 2272 4134 
L 2272 0 
L 1638 0 
L 1638 4134 
L -19 4134 
L -19 4666 
z
" transform="scale(0.015625)"/>
       <path id="DejaVuSans-69" d="M 603 3500 
L 1178 3500 
L 1178 0 
L 603 0 
L 603 3500 
z
M 603 4863 
L 1178 4863 
L 1178 4134 
L 603 4134 
L 603 4863 
z
" transform="scale(0.015625)"/>
       <path id="DejaVuSans-6d" d="M 3328 2828 
Q 3544 3216 3844 3400 
Q 4144 3584 4550 3584 
Q 5097 3584 5394 3201 
Q 5691 2819 5691 2113 
L 5691 0 
L 5113 0 
L 5113 2094 
Q 5113 2597 4934 2840 
Q 4756 3084 4391 3084 
Q 3944 3084 3684 2787 
Q 3425 2491 3425 1978 
L 3425 0 
L 2847 0 
L 2847 2094 
Q 2847 2600 2669 2842 
Q 2491 3084 2119 3084 
Q 1678 3084 1418 2786 
Q 1159 2488 1159 1978 
L 1159 0 
L 581 0 
L 581 3500 
L 1159 3500 
L 1159 2956 
Q 1356 3278 1631 3431 
Q 1906 3584 2284 3584 
Q 2666 3584 2933 3390 
Q 3200 3197 3328 2828 
z
" transform="scale(0.015625)"/>
       <path id="DejaVuSans-65" d="M 3597 1894 
L 3597 1613 
L 953 1613 
Q 991 1019 1311 708 
Q 1631 397 2203 397 
Q 2534 397 2845 478 
Q 3156 559 3463 722 
L 3463 178 
Q 3153 47 2828 -22 
Q 2503 -91 2169 -91 
Q 1331 -91 842 396 
Q 353 884 353 1716 
Q 353 2575 817 3079 
Q 1281 3584 2069 3584 
Q 2775 3584 3186 3129 
Q 3597 2675 3597 1894 
z
M 3022 2063 
Q 3016 2534 2758 2815 
Q 2500 3097 2075 3097 
Q 1594 3097 1305 2825 
Q 1016 2553 972 2059 
L 3022 2063 
z
" transform="scale(0.015625)"/>
       <path id="DejaVuSans-20" transform="scale(0.015625)"/>
       <path id="DejaVuSans-28" d="M 1984 4856 
Q 1566 4138 1362 3434 
Q 1159 2731 1159 2009 
Q 1159 1288 1364 580 
Q 1569 -128 1984 -844 
L 1484 -844 
Q 1016 -109 783 600 
Q 550 1309 550 2009 
Q 550 2706 781 3412 
Q 1013 4119 1484 4856 
L 1984 4856 
z
" transform="scale(0.015625)"/>
       <path id="DejaVuSans-73" d="M 2834 3397 
L 2834 2853 
Q 2591 2978 2328 3040 
Q 2066 3103 1784 3103 
Q 1356 3103 1142 2972 
Q 928 2841 928 2578 
Q 928 2378 1081 2264 
Q 1234 2150 1697 2047 
L 1894 2003 
Q 2506 1872 2764 1633 
Q 3022 1394 3022 966 
Q 3022 478 2636 193 
Q 2250 -91 1575 -91 
Q 1294 -91 989 -36 
Q 684 19 347 128 
L 347 722 
Q 666 556 975 473 
Q 1284 391 1588 391 
Q 1994 391 2212 530 
Q 2431 669 2431 922 
Q 2431 1156 2273 1281 
Q 2116 1406 1581 1522 
L 1381 1569 
Q 847 1681 609 1914 
Q 372 2147 372 2553 
Q 372 3047 722 3315 
Q 1072 3584 1716 3584 
Q 2034 3584 2315 3537 
Q 2597 3491 2834 3397 
z
" transform="scale(0.015625)"/>
       <path id="DejaVuSans-29" d="M 513 4856 
L 1013 4856 
Q 1481 4119 1714 3412 
Q 1947 2706 1947 2009 
Q 1947 1309 1714 600 
Q 1481 -109 1013 -844 
L 513 -844 
Q 928 -128 1133 580 
Q 1338 1288 1338 2009 
Q 1338 2731 1133 3434 
Q 928 4138 513 4856 
z
" transform="scale(0.015625)"/>
      </defs>
      <use xlink:href="#DejaVuSans-54"/>
      <use xlink:href="#DejaVuSans-69" transform="translate(57.958984 0)"/>
      <use xlink:href="#DejaVuSans-6d" transform="translate(85.742188 0)"/>
      <use xlink:href="#DejaVuSans-65" transform="translate(183.154297 0)"/>
      <use xlink:href="#DejaVuSans-20" transform="translate(244.677734 0)"/>
      <use xlink:href="#DejaVuSans-28" transform="translate(276.464844 0)"/>
      <use xlink:href="#DejaVuSans-73" transform="translate(315.478516 0)"/>
      <use xlink:href="#DejaVuSans-29" transform="translate(367.578125 0)"/>
     </g>
    </g>
   </g>
   <g id="matplotlib.axis_2">
    <g id="ytick_1">
     <g id="line2d_9">
      <defs>
       <path id="m7d5ae8e6c5" d="M 0 0 
L -3.5 0 
" style="stroke: #000000; stroke-width: 0.8"/>
      </defs>
      <g>
       <use xlink:href="#m7d5ae8e6c5" x="54.323678" y="393.568497" style="stroke: #000000; stroke-width: 0.8"/>
      </g>
     </g>
     <g id="text_10">
      <!-- −10.0 -->
      <g transform="translate(16.678365 397.367716) scale(0.1 -0.1)">
       <use xlink:href="#DejaVuSans-2212"/>
       <use xlink:href="#DejaVuSans-31" transform="translate(83.789062 0)"/>
       <use xlink:href="#DejaVuSans-30" transform="translate(147.412109 0)"/>
       <use xlink:href="#DejaVuSans-2e" transform="translate(211.035156 0)"/>
       <use xlink:href="#DejaVuSans-30" transform="translate(242.822266 0)"/>
      </g>
     </g>
    </g>
    <g id="ytick_2">
     <g id="line2d_10">
      <g>
       <use xlink:href="#m7d5ae8e6c5" x="54.323678" y="347.271607" style="stroke: #000000; stroke-width: 0.8"/>
      </g>
     </g>
     <g id="text_11">
      <!-- −7.5 -->
      <g transform="translate(23.040865 351.070826) scale(0.1 -0.1)">
       <defs>
        <path id="DejaVuSans-35" d="M 691 4666 
L 3169 4666 
L 3169 4134 
L 1269 4134 
L 1269 2991 
Q 1406 3038 1543 3061 
Q 1681 3084 1819 3084 
Q 2600 3084 3056 2656 
Q 3513 2228 3513 1497 
Q 3513 744 3044 326 
Q 2575 -91 1722 -91 
Q 1428 -91 1123 -41 
Q 819 9 494 109 
L 494 744 
Q 775 591 1075 516 
Q 1375 441 1709 441 
Q 2250 441 2565 725 
Q 2881 1009 2881 1497 
Q 2881 1984 2565 2268 
Q 2250 2553 1709 2553 
Q 1456 2553 1204 2497 
Q 953 2441 691 2322 
L 691 4666 
z
" transform="scale(0.015625)"/>
       </defs>
       <use xlink:href="#DejaVuSans-2212"/>
       <use xlink:href="#DejaVuSans-37" transform="translate(83.789062 0)"/>
       <use xlink:href="#DejaVuSans-2e" transform="translate(147.412109 0)"/>
       <use xlink:href="#DejaVuSans-35" transform="translate(179.199219 0)"/>
      </g>
     </g>
    </g>
    <g id="ytick_3">
     <g id="line2d_11">
      <g>
       <use xlink:href="#m7d5ae8e6c5" x="54.323678" y="300.974717" style="stroke: #000000; stroke-width: 0.8"/>
      </g>
     </g>
     <g id="text_12">
      <!-- −5.0 -->
      <g transform="translate(23.040865 304.773936) scale(0.1 -0.1)">
       <use xlink:href="#DejaVuSans-2212"/>
       <use xlink:href="#DejaVuSans-35" transform="translate(83.789062 0)"/>
       <use xlink:href="#DejaVuSans-2e" transform="translate(147.412109 0)"/>
       <use xlink:href="#DejaVuSans-30" transform="translate(179.199219 0)"/>
      </g>
     </g>
    </g>
    <g id="ytick_4">
     <g id="line2d_12">
      <g>
       <use xlink:href="#m7d5ae8e6c5" x="54.323678" y="254.677827" style="stroke: #000000; stroke-width: 0.8"/>
      </g>
     </g>
     <g id="text_13">
      <!-- −2.5 -->
      <g transform="translate(23.040865 258.477046) scale(0.1 -0.1)">
       <use xlink:href="#DejaVuSans-2212"/>
       <use xlink:href="#DejaVuSans-32" transform="translate(83.789062 0)"/>
       <use xlink:href="#DejaVuSans-2e" transform="translate(147.412109 0)"/>
       <use xlink:href="#DejaVuSans-35" transform="translate(179.199219 0)"/>
      </g>
     </g>
    </g>
    <g id="ytick_5">
     <g id="line2d_13">
      <g>
       <use xlink:href="#m7d5ae8e6c5" x="54.323678" y="208.380937" style="stroke: #000000; stroke-width: 0.8"/>
      </g>
     </g>
     <g id="text_14">
      <!-- 0.0 -->
      <g transform="translate(31.420552 212.180156) scale(0.1 -0.1)">
       <use xlink:href="#DejaVuSans-30"/>
       <use xlink:href="#DejaVuSans-2e" transform="translate(63.623047 0)"/>
       <use xlink:href="#DejaVuSans-30" transform="translate(95.410156 0)"/>
      </g>
     </g>
    </g>
    <g id="ytick_6">
     <g id="line2d_14">
      <g>
       <use xlink:href="#m7d5ae8e6c5" x="54.323678" y="162.084048" style="stroke: #000000; stroke-width: 0.8"/>
      </g>
     </g>
     <g id="text_15">
      <!-- 2.5 -->
      <g transform="translate(31.420552 165.883266) scale(0.1 -0.1)">
       <use xlink:href="#DejaVuSans-32"/>
       <use xlink:href="#DejaVuSans-2e" transform="translate(63.623047 0)"/>
       <use xlink:href="#DejaVuSans-35" transform="translate(95.410156 0)"/>
      </g>
     </g>
    </g>
    <g id="ytick_7">
     <g id="line2d_15">
      <g>
       <use xlink:href="#m7d5ae8e6c5" x="54.323678" y="115.787158" style="stroke: #000000; stroke-width: 0.8"/>
      </g>
     </g>
     <g id="text_16">
      <!-- 5.0 -->
      <g transform="translate(31.420552 119.586377) scale(0.1 -0.1)">
       <use xlink:href="#DejaVuSans-35"/>
       <use xlink:href="#DejaVuSans-2e" transform="translate(63.623047 0)"/>
       <use xlink:href="#DejaVuSans-30" transform="translate(95.410156 0)"/>
      </g>
     </g>
    </g>
    <g id="ytick_8">
     <g id="line2d_16">
      <g>
       <use xlink:href="#m7d5ae8e6c5" x="54.323678" y="69.490268" style="stroke: #000000; stroke-width: 0.8"/>
      </g>
     </g>
     <g id="text_17">
      <!-- 7.5 -->
      <g transform="translate(31.420552 73.289487) scale(0.1 -0.1)">
       <use xlink:href="#DejaVuSans-37"/>
       <use xlink:href="#DejaVuSans-2e" transform="translate(63.623047 0)"/>
       <use xlink:href="#DejaVuSans-35" transform="translate(95.410156 0)"/>
      </g>
     </g>
    </g>
    <g id="ytick_9">
     <g id="line2d_17">
      <g>
       <use xlink:href="#m7d5ae8e6c5" x="54.323678" y="23.193378" style="stroke: #000000; stroke-width: 0.8"/>
      </g>
     </g>
     <g id="text_18">
      <!-- 10.0 -->
      <g transform="translate(25.058053 26.992597) scale(0.1 -0.1)">
       <use xlink:href="#DejaVuSans-31"/>
       <use xlink:href="#DejaVuSans-30" transform="translate(63.623047 0)"/>
       <use xlink:href="#DejaVuSans-2e" transform="translate(127.246094 0)"/>
       <use xlink:href="#DejaVuSans-30" transform="translate(159.033203 0)"/>
      </g>
     </g>
    </g>
    <g id="text_19">
     <!-- µV -->
     <g transform="translate(10.598677 214.9825) rotate(-90) scale(0.1 -0.1)">
      <defs>
       <path id="DejaVuSans-b5" d="M 544 -1331 
L 544 3500 
L 1119 3500 
L 1119 1325 
Q 1119 872 1334 640 
Q 1550 409 1972 409 
Q 2434 409 2667 671 
Q 2900 934 2900 1459 
L 2900 3500 
L 3475 3500 
L 3475 806 
Q 3475 619 3529 530 
Q 3584 441 3700 441 
Q 3728 441 3778 458 
Q 3828 475 3916 513 
L 3916 50 
Q 3788 -22 3673 -56 
Q 3559 -91 3450 -91 
Q 3234 -91 3106 31 
Q 2978 153 2931 403 
Q 2775 156 2548 32 
Q 2322 -91 2016 -91 
Q 1697 -91 1473 31 
Q 1250 153 1119 397 
L 1119 -1331 
L 544 -1331 
z
" transform="scale(0.015625)"/>
       <path id="DejaVuSans-56" d="M 1831 0 
L 50 4666 
L 709 4666 
L 2188 738 
L 3669 4666 
L 4325 4666 
L 2547 0 
L 1831 0 
z
" transform="scale(0.015625)"/>
      </defs>
      <use xlink:href="#DejaVuSans-b5"/>
      <use xlink:href="#DejaVuSans-56" transform="translate(63.623047 0)"/>
     </g>
    </g>
   </g>
   <g id="patch_4">
    <path d="M 79.936477 398.64351 
L 512.448129 398.64351 
" style="fill: none; stroke: #000000; stroke-width: 0.8; stroke-linejoin: miter; stroke-linecap: square"/>
   </g>
   <g id="patch_5">
    <path d="M 54.323678 208.380937 
L 572.99976 208.380937 
" style="fill: none; stroke: #000000; stroke-width: 0.8; stroke-linejoin: miter; stroke-linecap: square"/>
   </g>
   <g id="text_20">
    <!-- F4, FC4, F3, FC3 (median) -->
    <g transform="translate(235.687031 12.118365) scale(0.12 -0.12)">
     <defs>
      <path id="DejaVuSans-46" d="M 628 4666 
L 3309 4666 
L 3309 4134 
L 1259 4134 
L 1259 2759 
L 3109 2759 
L 3109 2228 
L 1259 2228 
L 1259 0 
L 628 0 
L 628 4666 
z
" transform="scale(0.015625)"/>
      <path id="DejaVuSans-2c" d="M 750 794 
L 1409 794 
L 1409 256 
L 897 -744 
L 494 -744 
L 750 256 
L 750 794 
z
" transform="scale(0.015625)"/>
      <path id="DejaVuSans-43" d="M 4122 4306 
L 4122 3641 
Q 3803 3938 3442 4084 
Q 3081 4231 2675 4231 
Q 1875 4231 1450 3742 
Q 1025 3253 1025 2328 
Q 1025 1406 1450 917 
Q 1875 428 2675 428 
Q 3081 428 3442 575 
Q 3803 722 4122 1019 
L 4122 359 
Q 3791 134 3420 21 
Q 3050 -91 2638 -91 
Q 1578 -91 968 557 
Q 359 1206 359 2328 
Q 359 3453 968 4101 
Q 1578 4750 2638 4750 
Q 3056 4750 3426 4639 
Q 3797 4528 4122 4306 
z
" transform="scale(0.015625)"/>
      <path id="DejaVuSans-64" d="M 2906 2969 
L 2906 4863 
L 3481 4863 
L 3481 0 
L 2906 0 
L 2906 525 
Q 2725 213 2448 61 
Q 2172 -91 1784 -91 
Q 1150 -91 751 415 
Q 353 922 353 1747 
Q 353 2572 751 3078 
Q 1150 3584 1784 3584 
Q 2172 3584 2448 3432 
Q 2725 3281 2906 2969 
z
M 947 1747 
Q 947 1113 1208 752 
Q 1469 391 1925 391 
Q 2381 391 2643 752 
Q 2906 1113 2906 1747 
Q 2906 2381 2643 2742 
Q 2381 3103 1925 3103 
Q 1469 3103 1208 2742 
Q 947 2381 947 1747 
z
" transform="scale(0.015625)"/>
      <path id="DejaVuSans-61" d="M 2194 1759 
Q 1497 1759 1228 1600 
Q 959 1441 959 1056 
Q 959 750 1161 570 
Q 1363 391 1709 391 
Q 2188 391 2477 730 
Q 2766 1069 2766 1631 
L 2766 1759 
L 2194 1759 
z
M 3341 1997 
L 3341 0 
L 2766 0 
L 2766 531 
Q 2569 213 2275 61 
Q 1981 -91 1556 -91 
Q 1019 -91 701 211 
Q 384 513 384 1019 
Q 384 1609 779 1909 
Q 1175 2209 1959 2209 
L 2766 2209 
L 2766 2266 
Q 2766 2663 2505 2880 
Q 2244 3097 1772 3097 
Q 1472 3097 1187 3025 
Q 903 2953 641 2809 
L 641 3341 
Q 956 3463 1253 3523 
Q 1550 3584 1831 3584 
Q 2591 3584 2966 3190 
Q 3341 2797 3341 1997 
z
" transform="scale(0.015625)"/>
      <path id="DejaVuSans-6e" d="M 3513 2113 
L 3513 0 
L 2938 0 
L 2938 2094 
Q 2938 2591 2744 2837 
Q 2550 3084 2163 3084 
Q 1697 3084 1428 2787 
Q 1159 2491 1159 1978 
L 1159 0 
L 581 0 
L 581 3500 
L 1159 3500 
L 1159 2956 
Q 1366 3272 1645 3428 
Q 1925 3584 2291 3584 
Q 2894 3584 3203 3211 
Q 3513 2838 3513 2113 
z
" transform="scale(0.015625)"/>
     </defs>
     <use xlink:href="#DejaVuSans-46"/>
     <use xlink:href="#DejaVuSans-34" transform="translate(57.519531 0)"/>
     <use xlink:href="#DejaVuSans-2c" transform="translate(121.142578 0)"/>
     <use xlink:href="#DejaVuSans-20" transform="translate(152.929688 0)"/>
     <use xlink:href="#DejaVuSans-46" transform="translate(184.716797 0)"/>
     <use xlink:href="#DejaVuSans-43" transform="translate(242.236328 0)"/>
     <use xlink:href="#DejaVuSans-34" transform="translate(312.060547 0)"/>
     <use xlink:href="#DejaVuSans-2c" transform="translate(375.683594 0)"/>
     <use xlink:href="#DejaVuSans-20" transform="translate(407.470703 0)"/>
     <use xlink:href="#DejaVuSans-46" transform="translate(439.257812 0)"/>
     <use xlink:href="#DejaVuSans-33" transform="translate(496.777344 0)"/>
     <use xlink:href="#DejaVuSans-2c" transform="translate(560.400391 0)"/>
     <use xlink:href="#DejaVuSans-20" transform="translate(592.1875 0)"/>
     <use xlink:href="#DejaVuSans-46" transform="translate(623.974609 0)"/>
     <use xlink:href="#DejaVuSans-43" transform="translate(681.494141 0)"/>
     <use xlink:href="#DejaVuSans-33" transform="translate(751.318359 0)"/>
     <use xlink:href="#DejaVuSans-20" transform="translate(814.941406 0)"/>
     <use xlink:href="#DejaVuSans-28" transform="translate(846.728516 0)"/>
     <use xlink:href="#DejaVuSans-6d" transform="translate(885.742188 0)"/>
     <use xlink:href="#DejaVuSans-65" transform="translate(983.154297 0)"/>
     <use xlink:href="#DejaVuSans-64" transform="translate(1044.677734 0)"/>
     <use xlink:href="#DejaVuSans-69" transform="translate(1108.154297 0)"/>
     <use xlink:href="#DejaVuSans-61" transform="translate(1135.9375 0)"/>
     <use xlink:href="#DejaVuSans-6e" transform="translate(1197.216797 0)"/>
     <use xlink:href="#DejaVuSans-29" transform="translate(1260.595703 0)"/>
    </g>
   </g>
   <g id="legend_1">
    <g id="patch_6">
     <path d="M 61.323678 55.75274 
L 142.465865 55.75274 
Q 144.465865 55.75274 144.465865 53.75274 
L 144.465865 25.118365 
Q 144.465865 23.118365 142.465865 23.118365 
L 61.323678 23.118365 
Q 59.323678 23.118365 59.323678 25.118365 
L 59.323678 53.75274 
Q 59.323678 55.75274 61.323678 55.75274 
z
" style="fill: #ffffff; opacity: 0.8; stroke: #cccccc; stroke-linejoin: miter"/>
    </g>
    <g id="line2d_18">
     <path d="M 63.323678 31.216803 
L 73.323678 31.216803 
L 83.323678 31.216803 
" style="fill: none; stroke: #1f77b4; stroke-width: 1.5; stroke-linecap: square"/>
    </g>
    <g id="text_21">
     <!-- eerie -->
     <g transform="translate(91.323678 34.716803) scale(0.1 -0.1)">
      <defs>
       <path id="DejaVuSans-72" d="M 2631 2963 
Q 2534 3019 2420 3045 
Q 2306 3072 2169 3072 
Q 1681 3072 1420 2755 
Q 1159 2438 1159 1844 
L 1159 0 
L 581 0 
L 581 3500 
L 1159 3500 
L 1159 2956 
Q 1341 3275 1631 3429 
Q 1922 3584 2338 3584 
Q 2397 3584 2469 3576 
Q 2541 3569 2628 3553 
L 2631 2963 
z
" transform="scale(0.015625)"/>
      </defs>
      <use xlink:href="#DejaVuSans-65"/>
      <use xlink:href="#DejaVuSans-65" transform="translate(61.523438 0)"/>
      <use xlink:href="#DejaVuSans-72" transform="translate(123.046875 0)"/>
      <use xlink:href="#DejaVuSans-69" transform="translate(164.160156 0)"/>
      <use xlink:href="#DejaVuSans-65" transform="translate(191.943359 0)"/>
     </g>
    </g>
    <g id="line2d_19">
     <path d="M 63.323678 45.894928 
L 73.323678 45.894928 
L 83.323678 45.894928 
" style="fill: none; stroke: #ff7f0e; stroke-width: 1.5; stroke-linecap: square"/>
    </g>
    <g id="text_22">
     <!-- non_eerie -->
     <g transform="translate(91.323678 49.394928) scale(0.1 -0.1)">
      <defs>
       <path id="DejaVuSans-6f" d="M 1959 3097 
Q 1497 3097 1228 2736 
Q 959 2375 959 1747 
Q 959 1119 1226 758 
Q 1494 397 1959 397 
Q 2419 397 2687 759 
Q 2956 1122 2956 1747 
Q 2956 2369 2687 2733 
Q 2419 3097 1959 3097 
z
M 1959 3584 
Q 2709 3584 3137 3096 
Q 3566 2609 3566 1747 
Q 3566 888 3137 398 
Q 2709 -91 1959 -91 
Q 1206 -91 779 398 
Q 353 888 353 1747 
Q 353 2609 779 3096 
Q 1206 3584 1959 3584 
z
" transform="scale(0.015625)"/>
       <path id="DejaVuSans-5f" d="M 3263 -1063 
L 3263 -1509 
L -63 -1509 
L -63 -1063 
L 3263 -1063 
z
" transform="scale(0.015625)"/>
      </defs>
      <use xlink:href="#DejaVuSans-6e"/>
      <use xlink:href="#DejaVuSans-6f" transform="translate(63.378906 0)"/>
      <use xlink:href="#DejaVuSans-6e" transform="translate(124.560547 0)"/>
      <use xlink:href="#DejaVuSans-5f" transform="translate(187.939453 0)"/>
      <use xlink:href="#DejaVuSans-65" transform="translate(237.939453 0)"/>
      <use xlink:href="#DejaVuSans-65" transform="translate(299.462891 0)"/>
      <use xlink:href="#DejaVuSans-72" transform="translate(360.986328 0)"/>
      <use xlink:href="#DejaVuSans-69" transform="translate(402.099609 0)"/>
      <use xlink:href="#DejaVuSans-65" transform="translate(429.882812 0)"/>
     </g>
    </g>
   </g>
   <g id="line2d_20">
    <path d="M 54.323678 213.470483 
L 56.013176 212.301199 
L 57.702675 211.503648 
L 59.392173 210.878969 
L 61.081672 213.584319 
L 64.460669 221.044031 
L 66.150168 223.029514 
L 67.839667 222.389375 
L 69.529165 219.362632 
L 71.218664 215.154625 
L 72.908163 211.302556 
L 74.597661 208.099896 
L 76.28716 204.578656 
L 79.666157 194.563057 
L 81.355656 190.560626 
L 83.045154 189.370067 
L 84.734653 191.965157 
L 88.11365 203.10256 
L 89.803149 207.249576 
L 91.492648 209.598449 
L 93.182146 210.425013 
L 94.871645 212.624738 
L 96.561144 217.696155 
L 98.250642 224.98095 
L 99.940141 231.715892 
L 101.629639 235.302411 
L 103.319138 234.563807 
L 105.008637 230.191281 
L 106.698135 224.540496 
L 108.387634 219.905325 
L 110.077133 217.08445 
L 111.766631 216.702841 
L 113.45613 215.062768 
L 115.145629 211.542185 
L 116.835127 206.465103 
L 118.524626 200.954517 
L 120.214124 196.586878 
L 121.903623 194.415508 
L 123.593122 193.834567 
L 125.28262 193.971679 
L 126.972119 193.933728 
L 128.661618 193.271096 
L 132.040615 191.642531 
L 133.730114 192.079053 
L 135.419612 193.830003 
L 137.109111 197.740161 
L 140.488108 208.725013 
L 142.177607 213.267674 
L 143.867105 216.128506 
L 145.556604 217.315009 
L 147.246103 217.664852 
L 148.935601 218.380715 
L 150.6251 220.25619 
L 152.314599 222.987108 
L 154.004097 225.206528 
L 155.693596 225.132014 
L 157.383095 221.634057 
L 159.072593 215.028346 
L 160.762092 207.08031 
L 162.45159 200.805067 
L 164.141089 196.331301 
L 165.830588 195.016554 
L 169.209585 196.843667 
L 170.899084 196.533654 
L 172.588582 194.638996 
L 175.96758 189.185322 
L 177.657078 187.43602 
L 179.346577 186.895558 
L 181.036076 187.619878 
L 182.725574 189.723348 
L 184.415073 193.353279 
L 187.79407 204.20898 
L 189.483569 208.236801 
L 191.173067 210.383121 
L 192.862566 209.877369 
L 194.552065 207.811427 
L 196.241563 206.255544 
L 197.931062 205.419926 
L 199.620561 206.977649 
L 202.999558 216.640464 
L 204.689056 218.575807 
L 206.378555 218.21796 
L 208.068054 219.370149 
L 209.757552 221.303475 
L 211.447051 225.178634 
L 213.13655 229.775274 
L 214.826048 233.693932 
L 216.515547 237.21848 
L 218.205046 239.589797 
L 219.894544 238.725808 
L 221.584043 235.01738 
L 223.273542 226.466723 
L 224.96304 211.136503 
L 226.652539 190.603636 
L 231.721035 117.851529 
L 233.410533 97.721285 
L 235.100032 81.968361 
L 236.789531 71.318886 
L 238.479029 63.400714 
L 240.168528 57.798987 
L 241.858027 55.468021 
L 243.547525 58.067068 
L 245.237024 66.633484 
L 246.926522 80.697412 
L 248.616021 98.500847 
L 251.995018 136.585446 
L 253.684517 154.181968 
L 255.374016 174.063107 
L 258.753013 217.811083 
L 260.442512 237.708209 
L 262.13201 253.982239 
L 263.821509 266.670935 
L 268.890005 297.52213 
L 270.579503 307.496842 
L 272.269002 315.497018 
L 273.958501 319.909639 
L 275.647999 320.009743 
L 277.337498 316.223436 
L 279.026997 309.69546 
L 280.716495 301.546851 
L 282.405994 292.326554 
L 284.095493 281.998639 
L 285.784991 270.362587 
L 289.163988 245.043931 
L 290.853487 234.316792 
L 292.542986 227.293139 
L 294.232484 224.74521 
L 295.921983 225.405095 
L 297.611482 222.237925 
L 299.30098 217.770281 
L 300.990479 211.911043 
L 302.679978 204.968567 
L 306.058975 189.375486 
L 309.437972 172.740535 
L 312.816969 154.720382 
L 314.506468 145.445146 
L 316.195967 138.661236 
L 317.885465 135.462 
L 319.574964 133.531683 
L 321.264463 132.072232 
L 322.953961 129.909983 
L 324.64346 126.326545 
L 326.332959 121.730334 
L 328.022457 117.632601 
L 329.711956 115.884716 
L 331.401454 117.682721 
L 333.090953 122.950531 
L 338.159449 145.038857 
L 339.848948 149.649327 
L 341.538446 151.992827 
L 343.227945 152.501919 
L 346.606942 151.346424 
L 348.296441 151.337374 
L 349.98594 152.110689 
L 351.675438 153.09173 
L 353.364937 152.292604 
L 355.054435 149.993069 
L 356.743934 145.999945 
L 360.122931 134.438251 
L 361.81243 130.053408 
L 363.501929 127.846439 
L 365.191427 125.981103 
L 366.880926 124.87448 
L 370.259923 123.240287 
L 371.949422 122.894587 
L 373.63892 123.313715 
L 375.328419 124.695961 
L 377.017918 127.047735 
L 378.707416 130.296851 
L 380.396915 134.363832 
L 385.465411 148.366678 
L 387.15491 151.181554 
L 388.844408 151.753363 
L 390.533907 151.294274 
L 392.223406 148.99291 
L 393.912904 145.280896 
L 398.9814 132.56413 
L 400.670899 127.814989 
L 404.049896 117.060789 
L 405.739395 112.574564 
L 407.428893 110.136274 
L 409.118392 110.298425 
L 410.807891 112.619414 
L 412.497389 115.832294 
L 414.186888 118.539091 
L 415.876386 120.031851 
L 417.565885 120.732582 
L 419.255384 121.885161 
L 420.944882 124.708643 
L 422.634381 129.545198 
L 426.013378 141.17426 
L 427.702877 144.927481 
L 429.392376 146.060479 
L 431.081874 144.576963 
L 432.771373 140.816659 
L 434.460872 135.094732 
L 436.15037 127.71444 
L 437.839869 119.313234 
L 439.529367 112.000419 
L 441.218866 106.268417 
L 442.908365 102.695094 
L 444.597863 100.921661 
L 446.287362 99.640788 
L 447.976861 97.368252 
L 449.666359 93.446171 
L 451.355858 88.504931 
L 453.045357 84.020827 
L 454.734855 81.305792 
L 456.424354 80.632636 
L 459.803351 81.623153 
L 461.49285 81.167712 
L 463.182348 79.847693 
L 464.871847 78.372812 
L 466.561346 77.577919 
L 468.250844 78.014556 
L 469.940343 79.951293 
L 471.629842 83.55671 
L 473.31934 88.893092 
L 478.387836 108.827308 
L 480.077335 112.257902 
L 481.766833 112.69718 
L 485.145831 109.82689 
L 486.835329 110.550989 
L 488.524828 114.152912 
L 490.214327 119.929273 
L 491.903825 126.312925 
L 493.593324 131.913867 
L 495.282823 136.241663 
L 496.972321 139.627021 
L 498.66182 142.622329 
L 500.351318 146.73438 
L 502.040817 149.990529 
L 503.730316 151.664201 
L 505.419814 152.321938 
L 507.109313 153.473244 
L 508.798812 156.54339 
L 510.48831 161.739084 
L 512.177809 167.624719 
L 513.867308 171.790168 
L 515.556806 172.205926 
L 517.246305 168.366791 
L 518.935804 161.660689 
L 520.625302 154.26477 
L 522.314801 147.994697 
L 524.004299 143.891176 
L 525.693798 141.720796 
L 529.072795 139.430081 
L 530.762294 138.427655 
L 532.451793 138.558911 
L 534.141291 141.180066 
L 535.83079 146.001123 
L 537.520289 152.152332 
L 539.209787 157.834008 
L 540.899286 160.874048 
L 542.588784 159.555387 
L 544.278283 153.391344 
L 545.967782 143.465279 
L 547.65728 132.195266 
L 549.346779 122.439024 
L 551.036278 116.450021 
L 552.725776 115.038919 
L 554.415275 117.411115 
L 557.794272 126.205726 
L 559.483771 129.711818 
L 562.862768 134.826031 
L 564.552267 137.925867 
L 567.931264 146.28983 
L 569.620763 149.17287 
L 571.310261 150.626252 
L 572.99976 151.714586 
L 572.99976 151.714586 
" style="fill: none; stroke: #1f77b4; stroke-width: 1.5; stroke-linecap: square"/>
   </g>
   <g id="line2d_21">
    <path d="M 54.323678 200.495733 
L 56.013176 200.536861 
L 57.702675 202.571412 
L 59.392173 206.609582 
L 61.081672 211.686836 
L 62.771171 216.257092 
L 64.460669 217.292405 
L 66.150168 215.503435 
L 67.839667 212.551696 
L 69.529165 210.046707 
L 71.218664 211.3451 
L 72.908163 215.006435 
L 74.597661 216.454294 
L 76.28716 214.189949 
L 77.976658 210.32872 
L 81.355656 203.379012 
L 83.045154 201.448493 
L 84.734653 201.571505 
L 86.424152 202.899636 
L 88.11365 203.709331 
L 89.803149 202.596276 
L 93.182146 195.260435 
L 94.871645 192.858082 
L 96.561144 193.942595 
L 98.250642 196.656988 
L 99.940141 200.466058 
L 103.319138 208.98592 
L 105.008637 212.012728 
L 106.698135 213.454084 
L 108.387634 213.624873 
L 110.077133 213.589945 
L 111.766631 214.606139 
L 113.45613 217.305704 
L 115.145629 218.643016 
L 118.524626 219.725925 
L 121.903623 221.604307 
L 123.593122 219.670125 
L 125.28262 217.173931 
L 126.972119 216.553581 
L 128.661618 214.265726 
L 130.351116 213.589729 
L 132.040615 210.601646 
L 133.730114 205.572098 
L 137.109111 198.051462 
L 138.79861 194.807808 
L 140.488108 192.604511 
L 142.177607 191.995736 
L 143.867105 194.269288 
L 145.556604 197.041972 
L 147.246103 200.364712 
L 148.935601 203.333821 
L 150.6251 203.548376 
L 152.314599 201.811885 
L 154.004097 200.32903 
L 155.693596 201.900787 
L 157.383095 205.800367 
L 159.072593 210.569848 
L 160.762092 212.862655 
L 162.45159 213.658484 
L 164.141089 212.801404 
L 165.830588 210.677785 
L 167.520086 207.17272 
L 169.209585 206.050374 
L 170.899084 206.843914 
L 172.588582 206.709168 
L 174.278081 206.330224 
L 175.96758 205.14233 
L 177.657078 203.036063 
L 181.036076 197.871641 
L 182.725574 195.888632 
L 184.415073 192.764925 
L 186.104571 190.412708 
L 187.79407 188.778609 
L 189.483569 187.84837 
L 192.862566 182.19125 
L 194.552065 181.231772 
L 196.241563 182.658207 
L 197.931062 186.111774 
L 199.620561 190.48738 
L 201.310059 194.544733 
L 202.999558 197.592047 
L 204.689056 199.724413 
L 206.378555 200.872884 
L 208.068054 201.073981 
L 209.757552 201.68037 
L 211.447051 203.592285 
L 214.826048 211.900946 
L 216.515547 215.621117 
L 218.205046 216.426678 
L 219.894544 212.46142 
L 221.584043 204.851543 
L 223.273542 192.536166 
L 226.652539 160.228039 
L 228.342037 138.999743 
L 231.721035 92.449286 
L 233.410533 71.29292 
L 235.100032 53.529233 
L 236.789531 38.867453 
L 238.479029 27.81397 
L 240.168528 20.758659 
L 241.858027 18.118365 
L 243.547525 20.422008 
L 245.237024 29.505806 
L 246.926522 44.437219 
L 248.616021 62.994571 
L 250.30552 83.089419 
L 253.684517 116.530657 
L 257.063514 152.3871 
L 262.13201 210.291634 
L 263.821509 226.975923 
L 265.511008 240.627179 
L 267.200506 251.722487 
L 273.958501 291.654345 
L 275.647999 298.334415 
L 277.337498 300.873516 
L 279.026997 299.31245 
L 280.716495 294.986769 
L 284.095493 283.960512 
L 285.784991 277.867981 
L 287.47449 269.111777 
L 289.163988 254.903504 
L 290.853487 242.220161 
L 292.542986 231.460513 
L 294.232484 222.247843 
L 295.921983 215.657807 
L 300.990479 202.471897 
L 302.679978 198.133254 
L 304.369476 194.42687 
L 306.058975 189.53431 
L 307.748474 183.883626 
L 309.437972 179.340581 
L 312.816969 172.06444 
L 314.506468 167.723537 
L 316.195967 162.30367 
L 319.574964 149.433342 
L 321.264463 142.997463 
L 322.953961 137.064981 
L 324.64346 128.705549 
L 326.332959 120.946546 
L 328.022457 116.04876 
L 329.711956 114.398495 
L 331.401454 114.931416 
L 333.090953 115.887869 
L 334.780452 116.008724 
L 336.46995 115.380026 
L 338.159449 115.293332 
L 339.848948 117.247657 
L 341.538446 121.860073 
L 344.917444 135.032772 
L 346.606942 140.262909 
L 348.296441 143.354567 
L 349.98594 144.766403 
L 351.675438 145.575899 
L 353.364937 146.702999 
L 356.743934 150.166356 
L 358.433433 151.495503 
L 360.122931 152.07071 
L 363.501929 152.228046 
L 365.191427 153.090082 
L 366.880926 155.20282 
L 368.570425 158.795127 
L 370.259923 163.849473 
L 371.949422 170.089207 
L 375.328419 183.559162 
L 377.017918 189.003096 
L 378.707416 192.620486 
L 380.396915 194.384258 
L 382.086414 194.946472 
L 383.775912 197.153851 
L 385.465411 199.647886 
L 387.15491 201.923116 
L 388.844408 203.022225 
L 390.533907 201.43507 
L 392.223406 196.142105 
L 393.912904 187.606437 
L 395.602403 177.90676 
L 397.291901 169.793566 
L 398.9814 165.154006 
L 400.670899 163.881001 
L 402.360397 164.006543 
L 404.049896 162.998265 
L 405.739395 159.420167 
L 409.118392 148.41275 
L 410.807891 145.309331 
L 412.497389 145.412662 
L 414.186888 147.885623 
L 415.876386 150.983469 
L 417.565885 153.302159 
L 419.255384 154.582951 
L 424.32388 157.003987 
L 426.013378 156.437197 
L 427.702877 153.703862 
L 429.392376 148.815639 
L 432.771373 137.057817 
L 434.460872 132.161518 
L 436.15037 127.66531 
L 437.839869 122.505786 
L 439.529367 116.043424 
L 442.908365 101.781415 
L 444.597863 96.538422 
L 446.287362 93.336624 
L 447.976861 91.478889 
L 449.666359 89.847151 
L 451.355858 87.832145 
L 453.045357 86.924681 
L 454.734855 86.878092 
L 456.424354 88.190725 
L 458.113852 90.760672 
L 459.803351 93.809821 
L 461.49285 96.279581 
L 463.182348 97.347971 
L 464.871847 96.75587 
L 466.561346 94.836699 
L 468.250844 92.502333 
L 469.940343 91.187897 
L 471.629842 91.530423 
L 473.31934 94.007613 
L 475.008839 98.215474 
L 476.698338 102.870546 
L 478.387836 106.328268 
L 480.077335 107.498353 
L 481.766833 106.562669 
L 483.456332 105.029516 
L 485.145831 104.876202 
L 486.835329 107.286998 
L 490.214327 116.68532 
L 491.903825 119.71372 
L 493.593324 119.801053 
L 495.282823 117.406503 
L 496.972321 114.111361 
L 498.66182 111.529256 
L 500.351318 110.401304 
L 502.040817 110.440109 
L 503.730316 110.845539 
L 505.419814 110.977898 
L 507.109313 110.662156 
L 508.798812 110.045808 
L 510.48831 109.254053 
L 513.867308 107.277906 
L 515.556806 106.723334 
L 517.246305 107.454445 
L 518.935804 110.205104 
L 520.625302 115.146464 
L 522.314801 121.713413 
L 525.693798 135.540097 
L 527.383297 141.082483 
L 529.072795 145.260702 
L 530.762294 148.090134 
L 532.451793 149.697646 
L 534.141291 150.341217 
L 537.520289 150.608607 
L 539.209787 151.093715 
L 540.899286 151.766455 
L 542.588784 152.046392 
L 544.278283 151.342613 
L 545.967782 149.60301 
L 547.65728 147.523391 
L 549.346779 146.283798 
L 551.036278 146.873954 
L 552.725776 149.577647 
L 554.415275 153.946662 
L 557.794272 164.759109 
L 561.17327 175.735464 
L 562.862768 180.643091 
L 564.552267 184.460688 
L 566.241765 186.731916 
L 567.931264 187.495428 
L 569.620763 187.335564 
L 572.99976 186.618162 
L 572.99976 186.618162 
" style="fill: none; stroke: #ff7f0e; stroke-width: 1.5; stroke-linecap: square"/>
   </g>
  </g>
  <g id="axes_2">
   <g id="PathCollection_1">
    <defs>
     <path id="C0_0_b68f84e6c7" d="M 0 1.118034 
C 0.296506 1.118034 0.580908 1.000231 0.790569 0.790569 
C 1.000231 0.580908 1.118034 0.296506 1.118034 -0 
C 1.118034 -0.296506 1.000231 -0.580908 0.790569 -0.790569 
C 0.580908 -1.000231 0.296506 -1.118034 0 -1.118034 
C -0.296506 -1.118034 -0.580908 -1.000231 -0.790569 -0.790569 
C -1.000231 -0.580908 -1.118034 -0.296506 -1.118034 0 
C -1.118034 0.296506 -1.000231 0.580908 -0.790569 0.790569 
C -0.580908 1.000231 -0.296506 1.118034 0 1.118034 
z
"/>
    </defs>
    <g clip-path="url(#peb7b8ef4e2)">
     <use xlink:href="#C0_0_b68f84e6c7" x="535.95077" y="46.99075" style="stroke: #000000"/>
    </g>
    <g clip-path="url(#peb7b8ef4e2)">
     <use xlink:href="#C0_0_b68f84e6c7" x="538.129959" y="56.979035" style="stroke: #000000"/>
    </g>
    <g clip-path="url(#peb7b8ef4e2)">
     <use xlink:href="#C0_0_b68f84e6c7" x="504.884898" y="47.290418" style="stroke: #000000"/>
    </g>
    <g clip-path="url(#peb7b8ef4e2)">
     <use xlink:href="#C0_0_b68f84e6c7" x="502.762761" y="57.131735" style="stroke: #000000"/>
    </g>
   </g>
   <g id="matplotlib.axis_3"/>
   <g id="matplotlib.axis_4"/>
   <g id="line2d_22">
    <path d="M 559.993351 73.636224 
L 559.915677 71.164608 
L 559.682963 68.702747 
L 559.296126 66.260356 
L 558.756694 63.847075 
L 558.066795 61.472426 
L 557.229152 59.145783 
L 556.24707 56.876327 
L 555.124426 54.673014 
L 553.865651 52.54454 
L 552.475711 50.499306 
L 550.960092 48.545383 
L 549.324777 46.690481 
L 547.576218 44.941922 
L 545.721317 43.306607 
L 543.767393 41.790989 
L 541.722159 40.401049 
L 539.593685 39.142273 
L 537.390373 38.019629 
L 535.120917 37.037548 
L 532.794273 36.199905 
L 530.419625 35.510005 
L 528.006343 34.970573 
L 525.563952 34.583736 
L 523.102091 34.351022 
L 520.630476 34.273348 
L 518.15886 34.351022 
L 515.696999 34.583736 
L 513.254608 34.970573 
L 510.841326 35.510005 
L 508.466678 36.199905 
L 506.140035 37.037548 
L 503.870578 38.019629 
L 501.667266 39.142273 
L 499.538792 40.401049 
L 497.493558 41.790989 
L 495.539634 43.306607 
L 493.684733 44.941922 
L 491.936174 46.690481 
L 490.300859 48.545383 
L 488.78524 50.499306 
L 487.395301 52.54454 
L 486.136525 54.673014 
L 485.013881 56.876327 
L 484.031799 59.145783 
L 483.194156 61.472426 
L 482.504257 63.847075 
L 481.964825 66.260356 
L 481.577988 68.702747 
L 481.345274 71.164608 
L 481.2676 73.636224 
L 481.345274 76.107839 
L 481.577988 78.5697 
L 481.964825 81.012091 
L 482.504257 83.425373 
L 483.194156 85.800021 
L 484.031799 88.126665 
L 485.013881 90.396121 
L 486.136525 92.599434 
L 487.395301 94.727907 
L 488.78524 96.773142 
L 490.300859 98.727065 
L 491.936174 100.581966 
L 493.684733 102.330525 
L 495.539634 103.965841 
L 497.493558 105.481459 
L 499.538792 106.871399 
L 501.667266 108.130175 
L 503.870578 109.252818 
L 506.140035 110.2349 
L 508.466678 111.072543 
L 510.841326 111.762442 
L 513.254608 112.301875 
L 515.696999 112.688711 
L 518.15886 112.921426 
L 520.630476 112.999099 
L 523.102091 112.921426 
L 525.563952 112.688711 
L 528.006343 112.301875 
L 530.419625 111.762442 
L 532.794273 111.072543 
L 535.120917 110.2349 
L 537.390373 109.252818 
L 539.593685 108.130175 
L 541.722159 106.871399 
L 543.767393 105.481459 
L 545.721317 103.965841 
L 547.576218 102.330525 
L 549.324777 100.581966 
L 550.960092 98.727065 
L 552.475711 96.773142 
L 553.865651 94.727907 
L 555.124426 92.599434 
L 556.24707 90.396121 
L 557.229152 88.126665 
L 558.066795 85.800021 
L 558.756694 83.425373 
L 559.296126 81.012091 
L 559.682963 78.5697 
L 559.915677 76.107839 
L 559.993351 73.636224 
" style="fill: none; stroke: #000000; stroke-linecap: square"/>
   </g>
   <g id="line2d_23">
    <path d="M 512.386334 35.146354 
L 520.630476 28.368917 
L 528.874617 35.146354 
" style="fill: none; stroke: #000000; stroke-linecap: square"/>
   </g>
   <g id="line2d_24">
    <path d="M 481.503777 69.266945 
L 480.480343 67.534978 
L 479.850537 67.471997 
L 478.9137 67.763283 
L 477.968991 69.266945 
L 478.11857 74.069215 
L 477.56749 80.973464 
L 478.748376 83.972915 
L 480.480343 84.531868 
L 482.133583 83.075441 
" style="fill: none; stroke: #000000; stroke-linecap: square"/>
   </g>
   <g id="line2d_25">
    <path d="M 559.757174 69.266945 
L 560.780609 67.534978 
L 561.410415 67.471997 
L 562.347251 67.763283 
L 563.29196 69.266945 
L 563.142381 74.069215 
L 563.693461 80.973464 
L 562.512575 83.972915 
L 560.780609 84.531868 
L 559.127368 83.075441 
" style="fill: none; stroke: #000000; stroke-linecap: square"/>
   </g>
  </g>
 </g>
 <defs>
  <clipPath id="pc4b6f41417">
   <rect x="54.323678" y="18.118365" width="518.676083" height="380.525145"/>
  </clipPath>
  <clipPath id="peb7b8ef4e2">
   <rect x="473.261191" y="24.137408" width="94.738569" height="93.093201"/>
  </clipPath>
 </defs>
</svg>
