<?xml version="1.0" encoding="utf-8" standalone="no"?>
<!DOCTYPE svg PUBLIC "-//W3C//DTD SVG 1.1//EN"
  "http://www.w3.org/Graphics/SVG/1.1/DTD/svg11.dtd">
<svg xmlns:xlink="http://www.w3.org/1999/xlink" width="576pt" height="432pt" viewBox="0 0 576 432" xmlns="http://www.w3.org/2000/svg" version="1.1">
 <metadata>
  <rdf:RDF xmlns:dc="http://purl.org/dc/elements/1.1/" xmlns:cc="http://creativecommons.org/ns#" xmlns:rdf="http://www.w3.org/1999/02/22-rdf-syntax-ns#">
   <cc:Work>
    <dc:type rdf:resource="http://purl.org/dc/dcmitype/StillImage"/>
    <dc:date>2025-02-17T18:08:00.963565</dc:date>
    <dc:format>image/svg+xml</dc:format>
    <dc:creator>
     <cc:Agent>
      <dc:title>Matplotlib v3.10.0, https://matplotlib.org/</dc:title>
     </cc:Agent>
    </dc:creator>
   </cc:Work>
  </rdf:RDF>
 </metadata>
 <defs>
  <style type="text/css">*{stroke-linejoin: round; stroke-linecap: butt}</style>
 </defs>
 <g id="figure_1">
  <g id="patch_1">
   <path d="M 0 432 
L 576 432 
L 576 0 
L 0 0 
z
" style="fill: #ffffff"/>
  </g>
  <g id="axes_1">
   <g id="patch_2">
    <path d="M 38.420552 398.64351 
L 561.866948 398.64351 
L 561.866948 18.118365 
L 38.420552 18.118365 
L 38.420552 398.64351 
z
" style="fill: none; opacity: 0"/>
   </g>
   <g id="patch_3">
    <path d="M 38.420552 367.379961 
L 38.420552 49.381914 
" style="fill: none; stroke: #000000; stroke-width: 0.8; stroke-linejoin: miter; stroke-linecap: square"/>
   </g>
   <g id="LineCollection_1">
    <path d="M 156.407168 18.118365 
L 156.407168 398.64351 
" clip-path="url(#pc5c1b4ea7e)" style="fill: none; stroke-dasharray: 3.7,1.6; stroke-dashoffset: 0; stroke: #000000"/>
    <path d="M 195.645211 18.118365 
L 195.645211 398.64351 
" clip-path="url(#pc5c1b4ea7e)" style="fill: none; stroke-dasharray: 3.7,1.6; stroke-dashoffset: 0; stroke: #000000"/>
   </g>
   <g id="matplotlib.axis_1">
    <g id="xtick_1">
     <g id="line2d_1">
      <defs>
       <path id="mbac49e2ef3" d="M 0 0 
L 0 3.5 
" style="stroke: #000000; stroke-width: 0.8"/>
      </defs>
      <g>
       <use xlink:href="#mbac49e2ef3" x="38.693039" y="398.64351" style="stroke: #000000; stroke-width: 0.8"/>
      </g>
     </g>
     <g id="text_1">
      <!-- −0.20 -->
      <g transform="translate(23.370383 413.241947) scale(0.1 -0.1)">
       <defs>
        <path id="DejaVuSans-2212" d="M 678 2272 
L 4684 2272 
L 4684 1741 
L 678 1741 
L 678 2272 
z
" transform="scale(0.015625)"/>
        <path id="DejaVuSans-30" d="M 2034 4250 
Q 1547 4250 1301 3770 
Q 1056 3291 1056 2328 
Q 1056 1369 1301 889 
Q 1547 409 2034 409 
Q 2525 409 2770 889 
Q 3016 1369 3016 2328 
Q 3016 3291 2770 3770 
Q 2525 4250 2034 4250 
z
M 2034 4750 
Q 2819 4750 3233 4129 
Q 3647 3509 3647 2328 
Q 3647 1150 3233 529 
Q 2819 -91 2034 -91 
Q 1250 -91 836 529 
Q 422 1150 422 2328 
Q 422 3509 836 4129 
Q 1250 4750 2034 4750 
z
" transform="scale(0.015625)"/>
        <path id="DejaVuSans-2e" d="M 684 794 
L 1344 794 
L 1344 0 
L 684 0 
L 684 794 
z
" transform="scale(0.015625)"/>
        <path id="DejaVuSans-32" d="M 1228 531 
L 3431 531 
L 3431 0 
L 469 0 
L 469 531 
Q 828 903 1448 1529 
Q 2069 2156 2228 2338 
Q 2531 2678 2651 2914 
Q 2772 3150 2772 3378 
Q 2772 3750 2511 3984 
Q 2250 4219 1831 4219 
Q 1534 4219 1204 4116 
Q 875 4013 500 3803 
L 500 4441 
Q 881 4594 1212 4672 
Q 1544 4750 1819 4750 
Q 2544 4750 2975 4387 
Q 3406 4025 3406 3419 
Q 3406 3131 3298 2873 
Q 3191 2616 2906 2266 
Q 2828 2175 2409 1742 
Q 1991 1309 1228 531 
z
" transform="scale(0.015625)"/>
       </defs>
       <use xlink:href="#DejaVuSans-2212"/>
       <use xlink:href="#DejaVuSans-30" transform="translate(83.789062 0)"/>
       <use xlink:href="#DejaVuSans-2e" transform="translate(147.412109 0)"/>
       <use xlink:href="#DejaVuSans-32" transform="translate(179.199219 0)"/>
       <use xlink:href="#DejaVuSans-30" transform="translate(242.822266 0)"/>
      </g>
     </g>
    </g>
    <g id="xtick_2">
     <g id="line2d_2">
      <g>
       <use xlink:href="#mbac49e2ef3" x="125.88869" y="398.64351" style="stroke: #000000; stroke-width: 0.8"/>
      </g>
     </g>
     <g id="text_2">
      <!-- 0.00 -->
      <g transform="translate(114.755878 413.241947) scale(0.1 -0.1)">
       <use xlink:href="#DejaVuSans-30"/>
       <use xlink:href="#DejaVuSans-2e" transform="translate(63.623047 0)"/>
       <use xlink:href="#DejaVuSans-30" transform="translate(95.410156 0)"/>
       <use xlink:href="#DejaVuSans-30" transform="translate(159.033203 0)"/>
      </g>
     </g>
    </g>
    <g id="xtick_3">
     <g id="line2d_3">
      <g>
       <use xlink:href="#mbac49e2ef3" x="156.407168" y="398.64351" style="stroke: #000000; stroke-width: 0.8"/>
      </g>
     </g>
     <g id="text_3">
      <!-- 0.07 -->
      <g transform="translate(145.274356 413.241947) scale(0.1 -0.1)">
       <defs>
        <path id="DejaVuSans-37" d="M 525 4666 
L 3525 4666 
L 3525 4397 
L 1831 0 
L 1172 0 
L 2766 4134 
L 525 4134 
L 525 4666 
z
" transform="scale(0.015625)"/>
       </defs>
       <use xlink:href="#DejaVuSans-30"/>
       <use xlink:href="#DejaVuSans-2e" transform="translate(63.623047 0)"/>
       <use xlink:href="#DejaVuSans-30" transform="translate(95.410156 0)"/>
       <use xlink:href="#DejaVuSans-37" transform="translate(159.033203 0)"/>
      </g>
     </g>
    </g>
    <g id="xtick_4">
     <g id="line2d_4">
      <g>
       <use xlink:href="#mbac49e2ef3" x="195.645211" y="398.64351" style="stroke: #000000; stroke-width: 0.8"/>
      </g>
     </g>
     <g id="text_4">
      <!-- 0.16 -->
      <g transform="translate(184.512399 413.241947) scale(0.1 -0.1)">
       <defs>
        <path id="DejaVuSans-31" d="M 794 531 
L 1825 531 
L 1825 4091 
L 703 3866 
L 703 4441 
L 1819 4666 
L 2450 4666 
L 2450 531 
L 3481 531 
L 3481 0 
L 794 0 
L 794 531 
z
" transform="scale(0.015625)"/>
        <path id="DejaVuSans-36" d="M 2113 2584 
Q 1688 2584 1439 2293 
Q 1191 2003 1191 1497 
Q 1191 994 1439 701 
Q 1688 409 2113 409 
Q 2538 409 2786 701 
Q 3034 994 3034 1497 
Q 3034 2003 2786 2293 
Q 2538 2584 2113 2584 
z
M 3366 4563 
L 3366 3988 
Q 3128 4100 2886 4159 
Q 2644 4219 2406 4219 
Q 1781 4219 1451 3797 
Q 1122 3375 1075 2522 
Q 1259 2794 1537 2939 
Q 1816 3084 2150 3084 
Q 2853 3084 3261 2657 
Q 3669 2231 3669 1497 
Q 3669 778 3244 343 
Q 2819 -91 2113 -91 
Q 1303 -91 875 529 
Q 447 1150 447 2328 
Q 447 3434 972 4092 
Q 1497 4750 2381 4750 
Q 2619 4750 2861 4703 
Q 3103 4656 3366 4563 
z
" transform="scale(0.015625)"/>
       </defs>
       <use xlink:href="#DejaVuSans-30"/>
       <use xlink:href="#DejaVuSans-2e" transform="translate(63.623047 0)"/>
       <use xlink:href="#DejaVuSans-31" transform="translate(95.410156 0)"/>
       <use xlink:href="#DejaVuSans-36" transform="translate(159.033203 0)"/>
      </g>
     </g>
    </g>
    <g id="xtick_5">
     <g id="line2d_5">
      <g>
       <use xlink:href="#mbac49e2ef3" x="213.084342" y="398.64351" style="stroke: #000000; stroke-width: 0.8"/>
      </g>
     </g>
     <g id="text_5">
      <!-- 0.20 -->
      <g transform="translate(201.951529 413.241947) scale(0.1 -0.1)">
       <use xlink:href="#DejaVuSans-30"/>
       <use xlink:href="#DejaVuSans-2e" transform="translate(63.623047 0)"/>
       <use xlink:href="#DejaVuSans-32" transform="translate(95.410156 0)"/>
       <use xlink:href="#DejaVuSans-30" transform="translate(159.033203 0)"/>
      </g>
     </g>
    </g>
    <g id="xtick_6">
     <g id="line2d_6">
      <g>
       <use xlink:href="#mbac49e2ef3" x="300.279993" y="398.64351" style="stroke: #000000; stroke-width: 0.8"/>
      </g>
     </g>
     <g id="text_6">
      <!-- 0.40 -->
      <g transform="translate(289.147181 413.241947) scale(0.1 -0.1)">
       <defs>
        <path id="DejaVuSans-34" d="M 2419 4116 
L 825 1625 
L 2419 1625 
L 2419 4116 
z
M 2253 4666 
L 3047 4666 
L 3047 1625 
L 3713 1625 
L 3713 1100 
L 3047 1100 
L 3047 0 
L 2419 0 
L 2419 1100 
L 313 1100 
L 313 1709 
L 2253 4666 
z
" transform="scale(0.015625)"/>
       </defs>
       <use xlink:href="#DejaVuSans-30"/>
       <use xlink:href="#DejaVuSans-2e" transform="translate(63.623047 0)"/>
       <use xlink:href="#DejaVuSans-34" transform="translate(95.410156 0)"/>
       <use xlink:href="#DejaVuSans-30" transform="translate(159.033203 0)"/>
      </g>
     </g>
    </g>
    <g id="xtick_7">
     <g id="line2d_7">
      <g>
       <use xlink:href="#mbac49e2ef3" x="387.475645" y="398.64351" style="stroke: #000000; stroke-width: 0.8"/>
      </g>
     </g>
     <g id="text_7">
      <!-- 0.60 -->
      <g transform="translate(376.342832 413.241947) scale(0.1 -0.1)">
       <use xlink:href="#DejaVuSans-30"/>
       <use xlink:href="#DejaVuSans-2e" transform="translate(63.623047 0)"/>
       <use xlink:href="#DejaVuSans-36" transform="translate(95.410156 0)"/>
       <use xlink:href="#DejaVuSans-30" transform="translate(159.033203 0)"/>
      </g>
     </g>
    </g>
    <g id="xtick_8">
     <g id="line2d_8">
      <g>
       <use xlink:href="#mbac49e2ef3" x="474.671296" y="398.64351" style="stroke: #000000; stroke-width: 0.8"/>
      </g>
     </g>
     <g id="text_8">
      <!-- 0.80 -->
      <g transform="translate(463.538484 413.241947) scale(0.1 -0.1)">
       <defs>
        <path id="DejaVuSans-38" d="M 2034 2216 
Q 1584 2216 1326 1975 
Q 1069 1734 1069 1313 
Q 1069 891 1326 650 
Q 1584 409 2034 409 
Q 2484 409 2743 651 
Q 3003 894 3003 1313 
Q 3003 1734 2745 1975 
Q 2488 2216 2034 2216 
z
M 1403 2484 
Q 997 2584 770 2862 
Q 544 3141 544 3541 
Q 544 4100 942 4425 
Q 1341 4750 2034 4750 
Q 2731 4750 3128 4425 
Q 3525 4100 3525 3541 
Q 3525 3141 3298 2862 
Q 3072 2584 2669 2484 
Q 3125 2378 3379 2068 
Q 3634 1759 3634 1313 
Q 3634 634 3220 271 
Q 2806 -91 2034 -91 
Q 1263 -91 848 271 
Q 434 634 434 1313 
Q 434 1759 690 2068 
Q 947 2378 1403 2484 
z
M 1172 3481 
Q 1172 3119 1398 2916 
Q 1625 2713 2034 2713 
Q 2441 2713 2670 2916 
Q 2900 3119 2900 3481 
Q 2900 3844 2670 4047 
Q 2441 4250 2034 4250 
Q 1625 4250 1398 4047 
Q 1172 3844 1172 3481 
z
" transform="scale(0.015625)"/>
       </defs>
       <use xlink:href="#DejaVuSans-30"/>
       <use xlink:href="#DejaVuSans-2e" transform="translate(63.623047 0)"/>
       <use xlink:href="#DejaVuSans-38" transform="translate(95.410156 0)"/>
       <use xlink:href="#DejaVuSans-30" transform="translate(159.033203 0)"/>
      </g>
     </g>
    </g>
    <g id="xtick_9">
     <g id="line2d_9">
      <g>
       <use xlink:href="#mbac49e2ef3" x="561.866948" y="398.64351" style="stroke: #000000; stroke-width: 0.8"/>
      </g>
     </g>
     <g id="text_9">
      <!-- 1.00 -->
      <g transform="translate(550.734135 413.241947) scale(0.1 -0.1)">
       <use xlink:href="#DejaVuSans-31"/>
       <use xlink:href="#DejaVuSans-2e" transform="translate(63.623047 0)"/>
       <use xlink:href="#DejaVuSans-30" transform="translate(95.410156 0)"/>
       <use xlink:href="#DejaVuSans-30" transform="translate(159.033203 0)"/>
      </g>
     </g>
    </g>
    <g id="text_10">
     <!-- Time (s) -->
     <g transform="translate(279.814844 426.920073) scale(0.1 -0.1)">
      <defs>
       <path id="DejaVuSans-54" d="M -19 4666 
L 3928 4666 
L 3928 4134 
L 2272 4134 
L 2272 0 
L 1638 0 
L 1638 4134 
L -19 4134 
L -19 4666 
z
" transform="scale(0.015625)"/>
       <path id="DejaVuSans-69" d="M 603 3500 
L 1178 3500 
L 1178 0 
L 603 0 
L 603 3500 
z
M 603 4863 
L 1178 4863 
L 1178 4134 
L 603 4134 
L 603 4863 
z
" transform="scale(0.015625)"/>
       <path id="DejaVuSans-6d" d="M 3328 2828 
Q 3544 3216 3844 3400 
Q 4144 3584 4550 3584 
Q 5097 3584 5394 3201 
Q 5691 2819 5691 2113 
L 5691 0 
L 5113 0 
L 5113 2094 
Q 5113 2597 4934 2840 
Q 4756 3084 4391 3084 
Q 3944 3084 3684 2787 
Q 3425 2491 3425 1978 
L 3425 0 
L 2847 0 
L 2847 2094 
Q 2847 2600 2669 2842 
Q 2491 3084 2119 3084 
Q 1678 3084 1418 2786 
Q 1159 2488 1159 1978 
L 1159 0 
L 581 0 
L 581 3500 
L 1159 3500 
L 1159 2956 
Q 1356 3278 1631 3431 
Q 1906 3584 2284 3584 
Q 2666 3584 2933 3390 
Q 3200 3197 3328 2828 
z
" transform="scale(0.015625)"/>
       <path id="DejaVuSans-65" d="M 3597 1894 
L 3597 1613 
L 953 1613 
Q 991 1019 1311 708 
Q 1631 397 2203 397 
Q 2534 397 2845 478 
Q 3156 559 3463 722 
L 3463 178 
Q 3153 47 2828 -22 
Q 2503 -91 2169 -91 
Q 1331 -91 842 396 
Q 353 884 353 1716 
Q 353 2575 817 3079 
Q 1281 3584 2069 3584 
Q 2775 3584 3186 3129 
Q 3597 2675 3597 1894 
z
M 3022 2063 
Q 3016 2534 2758 2815 
Q 2500 3097 2075 3097 
Q 1594 3097 1305 2825 
Q 1016 2553 972 2059 
L 3022 2063 
z
" transform="scale(0.015625)"/>
       <path id="DejaVuSans-20" transform="scale(0.015625)"/>
       <path id="DejaVuSans-28" d="M 1984 4856 
Q 1566 4138 1362 3434 
Q 1159 2731 1159 2009 
Q 1159 1288 1364 580 
Q 1569 -128 1984 -844 
L 1484 -844 
Q 1016 -109 783 600 
Q 550 1309 550 2009 
Q 550 2706 781 3412 
Q 1013 4119 1484 4856 
L 1984 4856 
z
" transform="scale(0.015625)"/>
       <path id="DejaVuSans-73" d="M 2834 3397 
L 2834 2853 
Q 2591 2978 2328 3040 
Q 2066 3103 1784 3103 
Q 1356 3103 1142 2972 
Q 928 2841 928 2578 
Q 928 2378 1081 2264 
Q 1234 2150 1697 2047 
L 1894 2003 
Q 2506 1872 2764 1633 
Q 3022 1394 3022 966 
Q 3022 478 2636 193 
Q 2250 -91 1575 -91 
Q 1294 -91 989 -36 
Q 684 19 347 128 
L 347 722 
Q 666 556 975 473 
Q 1284 391 1588 391 
Q 1994 391 2212 530 
Q 2431 669 2431 922 
Q 2431 1156 2273 1281 
Q 2116 1406 1581 1522 
L 1381 1569 
Q 847 1681 609 1914 
Q 372 2147 372 2553 
Q 372 3047 722 3315 
Q 1072 3584 1716 3584 
Q 2034 3584 2315 3537 
Q 2597 3491 2834 3397 
z
" transform="scale(0.015625)"/>
       <path id="DejaVuSans-29" d="M 513 4856 
L 1013 4856 
Q 1481 4119 1714 3412 
Q 1947 2706 1947 2009 
Q 1947 1309 1714 600 
Q 1481 -109 1013 -844 
L 513 -844 
Q 928 -128 1133 580 
Q 1338 1288 1338 2009 
Q 1338 2731 1133 3434 
Q 928 4138 513 4856 
z
" transform="scale(0.015625)"/>
      </defs>
      <use xlink:href="#DejaVuSans-54"/>
      <use xlink:href="#DejaVuSans-69" transform="translate(57.958984 0)"/>
      <use xlink:href="#DejaVuSans-6d" transform="translate(85.742188 0)"/>
      <use xlink:href="#DejaVuSans-65" transform="translate(183.154297 0)"/>
      <use xlink:href="#DejaVuSans-20" transform="translate(244.677734 0)"/>
      <use xlink:href="#DejaVuSans-28" transform="translate(276.464844 0)"/>
      <use xlink:href="#DejaVuSans-73" transform="translate(315.478516 0)"/>
      <use xlink:href="#DejaVuSans-29" transform="translate(367.578125 0)"/>
     </g>
    </g>
   </g>
   <g id="matplotlib.axis_2">
    <g id="ytick_1">
     <g id="line2d_10">
      <defs>
       <path id="me5399aa04d" d="M 0 0 
L -3.5 0 
" style="stroke: #000000; stroke-width: 0.8"/>
      </defs>
      <g>
       <use xlink:href="#me5399aa04d" x="38.420552" y="367.379961" style="stroke: #000000; stroke-width: 0.8"/>
      </g>
     </g>
     <g id="text_11">
      <!-- −6 -->
      <g transform="translate(16.678365 371.17918) scale(0.1 -0.1)">
       <use xlink:href="#DejaVuSans-2212"/>
       <use xlink:href="#DejaVuSans-36" transform="translate(83.789062 0)"/>
      </g>
     </g>
    </g>
    <g id="ytick_2">
     <g id="line2d_11">
      <g>
       <use xlink:href="#me5399aa04d" x="38.420552" y="314.380286" style="stroke: #000000; stroke-width: 0.8"/>
      </g>
     </g>
     <g id="text_12">
      <!-- −4 -->
      <g transform="translate(16.678365 318.179505) scale(0.1 -0.1)">
       <use xlink:href="#DejaVuSans-2212"/>
       <use xlink:href="#DejaVuSans-34" transform="translate(83.789062 0)"/>
      </g>
     </g>
    </g>
    <g id="ytick_3">
     <g id="line2d_12">
      <g>
       <use xlink:href="#me5399aa04d" x="38.420552" y="261.380612" style="stroke: #000000; stroke-width: 0.8"/>
      </g>
     </g>
     <g id="text_13">
      <!-- −2 -->
      <g transform="translate(16.678365 265.179831) scale(0.1 -0.1)">
       <use xlink:href="#DejaVuSans-2212"/>
       <use xlink:href="#DejaVuSans-32" transform="translate(83.789062 0)"/>
      </g>
     </g>
    </g>
    <g id="ytick_4">
     <g id="line2d_13">
      <g>
       <use xlink:href="#me5399aa04d" x="38.420552" y="208.380937" style="stroke: #000000; stroke-width: 0.8"/>
      </g>
     </g>
     <g id="text_14">
      <!-- 0 -->
      <g transform="translate(25.058052 212.180156) scale(0.1 -0.1)">
       <use xlink:href="#DejaVuSans-30"/>
      </g>
     </g>
    </g>
    <g id="ytick_5">
     <g id="line2d_14">
      <g>
       <use xlink:href="#me5399aa04d" x="38.420552" y="155.381263" style="stroke: #000000; stroke-width: 0.8"/>
      </g>
     </g>
     <g id="text_15">
      <!-- 2 -->
      <g transform="translate(25.058052 159.180482) scale(0.1 -0.1)">
       <use xlink:href="#DejaVuSans-32"/>
      </g>
     </g>
    </g>
    <g id="ytick_6">
     <g id="line2d_15">
      <g>
       <use xlink:href="#me5399aa04d" x="38.420552" y="102.381589" style="stroke: #000000; stroke-width: 0.8"/>
      </g>
     </g>
     <g id="text_16">
      <!-- 4 -->
      <g transform="translate(25.058052 106.180807) scale(0.1 -0.1)">
       <use xlink:href="#DejaVuSans-34"/>
      </g>
     </g>
    </g>
    <g id="ytick_7">
     <g id="line2d_16">
      <g>
       <use xlink:href="#me5399aa04d" x="38.420552" y="49.381914" style="stroke: #000000; stroke-width: 0.8"/>
      </g>
     </g>
     <g id="text_17">
      <!-- 6 -->
      <g transform="translate(25.058052 53.181133) scale(0.1 -0.1)">
       <use xlink:href="#DejaVuSans-36"/>
      </g>
     </g>
    </g>
    <g id="text_18">
     <!-- µV -->
     <g transform="translate(10.598677 214.9825) rotate(-90) scale(0.1 -0.1)">
      <defs>
       <path id="DejaVuSans-b5" d="M 544 -1331 
L 544 3500 
L 1119 3500 
L 1119 1325 
Q 1119 872 1334 640 
Q 1550 409 1972 409 
Q 2434 409 2667 671 
Q 2900 934 2900 1459 
L 2900 3500 
L 3475 3500 
L 3475 806 
Q 3475 619 3529 530 
Q 3584 441 3700 441 
Q 3728 441 3778 458 
Q 3828 475 3916 513 
L 3916 50 
Q 3788 -22 3673 -56 
Q 3559 -91 3450 -91 
Q 3234 -91 3106 31 
Q 2978 153 2931 403 
Q 2775 156 2548 32 
Q 2322 -91 2016 -91 
Q 1697 -91 1473 31 
Q 1250 153 1119 397 
L 1119 -1331 
L 544 -1331 
z
" transform="scale(0.015625)"/>
       <path id="DejaVuSans-56" d="M 1831 0 
L 50 4666 
L 709 4666 
L 2188 738 
L 3669 4666 
L 4325 4666 
L 2547 0 
L 1831 0 
z
" transform="scale(0.015625)"/>
      </defs>
      <use xlink:href="#DejaVuSans-b5"/>
      <use xlink:href="#DejaVuSans-56" transform="translate(63.623047 0)"/>
     </g>
    </g>
   </g>
   <g id="patch_4">
    <path d="M 38.693039 398.64351 
L 561.866948 398.64351 
" style="fill: none; stroke: #000000; stroke-width: 0.8; stroke-linejoin: miter; stroke-linecap: square"/>
   </g>
   <g id="patch_5">
    <path d="M 38.420552 208.380937 
L 561.866948 208.380937 
" style="fill: none; stroke: #000000; stroke-width: 0.8; stroke-linejoin: miter; stroke-linecap: square"/>
   </g>
   <g id="text_19">
    <!-- Oz, O2 (median) -->
    <g transform="translate(250.836875 12.118365) scale(0.12 -0.12)">
     <defs>
      <path id="DejaVuSans-4f" d="M 2522 4238 
Q 1834 4238 1429 3725 
Q 1025 3213 1025 2328 
Q 1025 1447 1429 934 
Q 1834 422 2522 422 
Q 3209 422 3611 934 
Q 4013 1447 4013 2328 
Q 4013 3213 3611 3725 
Q 3209 4238 2522 4238 
z
M 2522 4750 
Q 3503 4750 4090 4092 
Q 4678 3434 4678 2328 
Q 4678 1225 4090 567 
Q 3503 -91 2522 -91 
Q 1538 -91 948 565 
Q 359 1222 359 2328 
Q 359 3434 948 4092 
Q 1538 4750 2522 4750 
z
" transform="scale(0.015625)"/>
      <path id="DejaVuSans-7a" d="M 353 3500 
L 3084 3500 
L 3084 2975 
L 922 459 
L 3084 459 
L 3084 0 
L 275 0 
L 275 525 
L 2438 3041 
L 353 3041 
L 353 3500 
z
" transform="scale(0.015625)"/>
      <path id="DejaVuSans-2c" d="M 750 794 
L 1409 794 
L 1409 256 
L 897 -744 
L 494 -744 
L 750 256 
L 750 794 
z
" transform="scale(0.015625)"/>
      <path id="DejaVuSans-64" d="M 2906 2969 
L 2906 4863 
L 3481 4863 
L 3481 0 
L 2906 0 
L 2906 525 
Q 2725 213 2448 61 
Q 2172 -91 1784 -91 
Q 1150 -91 751 415 
Q 353 922 353 1747 
Q 353 2572 751 3078 
Q 1150 3584 1784 3584 
Q 2172 3584 2448 3432 
Q 2725 3281 2906 2969 
z
M 947 1747 
Q 947 1113 1208 752 
Q 1469 391 1925 391 
Q 2381 391 2643 752 
Q 2906 1113 2906 1747 
Q 2906 2381 2643 2742 
Q 2381 3103 1925 3103 
Q 1469 3103 1208 2742 
Q 947 2381 947 1747 
z
" transform="scale(0.015625)"/>
      <path id="DejaVuSans-61" d="M 2194 1759 
Q 1497 1759 1228 1600 
Q 959 1441 959 1056 
Q 959 750 1161 570 
Q 1363 391 1709 391 
Q 2188 391 2477 730 
Q 2766 1069 2766 1631 
L 2766 1759 
L 2194 1759 
z
M 3341 1997 
L 3341 0 
L 2766 0 
L 2766 531 
Q 2569 213 2275 61 
Q 1981 -91 1556 -91 
Q 1019 -91 701 211 
Q 384 513 384 1019 
Q 384 1609 779 1909 
Q 1175 2209 1959 2209 
L 2766 2209 
L 2766 2266 
Q 2766 2663 2505 2880 
Q 2244 3097 1772 3097 
Q 1472 3097 1187 3025 
Q 903 2953 641 2809 
L 641 3341 
Q 956 3463 1253 3523 
Q 1550 3584 1831 3584 
Q 2591 3584 2966 3190 
Q 3341 2797 3341 1997 
z
" transform="scale(0.015625)"/>
      <path id="DejaVuSans-6e" d="M 3513 2113 
L 3513 0 
L 2938 0 
L 2938 2094 
Q 2938 2591 2744 2837 
Q 2550 3084 2163 3084 
Q 1697 3084 1428 2787 
Q 1159 2491 1159 1978 
L 1159 0 
L 581 0 
L 581 3500 
L 1159 3500 
L 1159 2956 
Q 1366 3272 1645 3428 
Q 1925 3584 2291 3584 
Q 2894 3584 3203 3211 
Q 3513 2838 3513 2113 
z
" transform="scale(0.015625)"/>
     </defs>
     <use xlink:href="#DejaVuSans-4f"/>
     <use xlink:href="#DejaVuSans-7a" transform="translate(78.710938 0)"/>
     <use xlink:href="#DejaVuSans-2c" transform="translate(131.201172 0)"/>
     <use xlink:href="#DejaVuSans-20" transform="translate(162.988281 0)"/>
     <use xlink:href="#DejaVuSans-4f" transform="translate(194.775391 0)"/>
     <use xlink:href="#DejaVuSans-32" transform="translate(273.486328 0)"/>
     <use xlink:href="#DejaVuSans-20" transform="translate(337.109375 0)"/>
     <use xlink:href="#DejaVuSans-28" transform="translate(368.896484 0)"/>
     <use xlink:href="#DejaVuSans-6d" transform="translate(407.910156 0)"/>
     <use xlink:href="#DejaVuSans-65" transform="translate(505.322266 0)"/>
     <use xlink:href="#DejaVuSans-64" transform="translate(566.845703 0)"/>
     <use xlink:href="#DejaVuSans-69" transform="translate(630.322266 0)"/>
     <use xlink:href="#DejaVuSans-61" transform="translate(658.105469 0)"/>
     <use xlink:href="#DejaVuSans-6e" transform="translate(719.384766 0)"/>
     <use xlink:href="#DejaVuSans-29" transform="translate(782.763672 0)"/>
    </g>
   </g>
   <g id="legend_1">
    <g id="patch_6">
     <path d="M 45.420552 55.75274 
L 126.56274 55.75274 
Q 128.56274 55.75274 128.56274 53.75274 
L 128.56274 25.118365 
Q 128.56274 23.118365 126.56274 23.118365 
L 45.420552 23.118365 
Q 43.420552 23.118365 43.420552 25.118365 
L 43.420552 53.75274 
Q 43.420552 55.75274 45.420552 55.75274 
z
" style="fill: #ffffff; opacity: 0.8; stroke: #cccccc; stroke-linejoin: miter"/>
    </g>
    <g id="line2d_17">
     <path d="M 47.420552 31.216803 
L 57.420552 31.216803 
L 67.420552 31.216803 
" style="fill: none; stroke: #1f77b4; stroke-width: 1.5; stroke-linecap: square"/>
    </g>
    <g id="text_20">
     <!-- eerie -->
     <g transform="translate(75.420552 34.716803) scale(0.1 -0.1)">
      <defs>
       <path id="DejaVuSans-72" d="M 2631 2963 
Q 2534 3019 2420 3045 
Q 2306 3072 2169 3072 
Q 1681 3072 1420 2755 
Q 1159 2438 1159 1844 
L 1159 0 
L 581 0 
L 581 3500 
L 1159 3500 
L 1159 2956 
Q 1341 3275 1631 3429 
Q 1922 3584 2338 3584 
Q 2397 3584 2469 3576 
Q 2541 3569 2628 3553 
L 2631 2963 
z
" transform="scale(0.015625)"/>
      </defs>
      <use xlink:href="#DejaVuSans-65"/>
      <use xlink:href="#DejaVuSans-65" transform="translate(61.523438 0)"/>
      <use xlink:href="#DejaVuSans-72" transform="translate(123.046875 0)"/>
      <use xlink:href="#DejaVuSans-69" transform="translate(164.160156 0)"/>
      <use xlink:href="#DejaVuSans-65" transform="translate(191.943359 0)"/>
     </g>
    </g>
    <g id="line2d_18">
     <path d="M 47.420552 45.894928 
L 57.420552 45.894928 
L 67.420552 45.894928 
" style="fill: none; stroke: #ff7f0e; stroke-width: 1.5; stroke-linecap: square"/>
    </g>
    <g id="text_21">
     <!-- non_eerie -->
     <g transform="translate(75.420552 49.394928) scale(0.1 -0.1)">
      <defs>
       <path id="DejaVuSans-6f" d="M 1959 3097 
Q 1497 3097 1228 2736 
Q 959 2375 959 1747 
Q 959 1119 1226 758 
Q 1494 397 1959 397 
Q 2419 397 2687 759 
Q 2956 1122 2956 1747 
Q 2956 2369 2687 2733 
Q 2419 3097 1959 3097 
z
M 1959 3584 
Q 2709 3584 3137 3096 
Q 3566 2609 3566 1747 
Q 3566 888 3137 398 
Q 2709 -91 1959 -91 
Q 1206 -91 779 398 
Q 353 888 353 1747 
Q 353 2609 779 3096 
Q 1206 3584 1959 3584 
z
" transform="scale(0.015625)"/>
       <path id="DejaVuSans-5f" d="M 3263 -1063 
L 3263 -1509 
L -63 -1509 
L -63 -1063 
L 3263 -1063 
z
" transform="scale(0.015625)"/>
      </defs>
      <use xlink:href="#DejaVuSans-6e"/>
      <use xlink:href="#DejaVuSans-6f" transform="translate(63.378906 0)"/>
      <use xlink:href="#DejaVuSans-6e" transform="translate(124.560547 0)"/>
      <use xlink:href="#DejaVuSans-5f" transform="translate(187.939453 0)"/>
      <use xlink:href="#DejaVuSans-65" transform="translate(237.939453 0)"/>
      <use xlink:href="#DejaVuSans-65" transform="translate(299.462891 0)"/>
      <use xlink:href="#DejaVuSans-72" transform="translate(360.986328 0)"/>
      <use xlink:href="#DejaVuSans-69" transform="translate(402.099609 0)"/>
      <use xlink:href="#DejaVuSans-65" transform="translate(429.882812 0)"/>
     </g>
    </g>
   </g>
   <g id="FillBetweenPolyCollection_1">
    <defs>
     <path id="m843b198b20" d="M 38.420552 -269.608582 
L 38.420552 -252.532627 
L 40.123593 -238.751964 
L 41.826633 -223.996345 
L 43.529673 -218.663718 
L 45.232713 -224.937233 
L 46.935753 -236.332685 
L 48.638793 -243.817769 
L 50.341833 -241.747467 
L 52.044873 -232.206485 
L 53.747913 -222.557928 
L 55.450953 -219.545363 
L 57.153993 -225.120603 
L 58.857033 -233.6005 
L 60.560073 -236.351337 
L 62.263113 -228.138421 
L 63.966154 -214.439194 
L 65.669194 -205.338053 
L 67.372234 -207.011893 
L 69.075274 -218.789045 
L 70.778314 -232.535339 
L 72.481354 -238.353351 
L 74.184394 -231.211118 
L 75.887434 -216.244909 
L 77.590474 -205.422051 
L 79.293514 -206.49499 
L 80.996554 -219.155135 
L 82.699594 -233.648427 
L 84.402634 -239.391357 
L 86.105674 -233.420791 
L 87.808714 -220.324405 
L 89.511755 -210.315673 
L 91.214795 -209.881335 
L 92.917835 -217.458444 
L 94.620875 -223.81695 
L 96.323915 -220.954701 
L 98.026955 -207.765176 
L 99.729995 -191.569441 
L 101.433035 -182.602327 
L 103.136075 -187.927734 
L 104.839115 -204.233428 
L 106.542155 -221.384762 
L 108.245195 -228.948992 
L 109.948235 -221.967148 
L 111.651275 -204.409634 
L 113.354315 -187.281448 
L 115.057356 -179.538298 
L 116.760396 -183.813335 
L 118.463436 -194.346611 
L 120.166476 -203.343129 
L 121.869516 -204.307829 
L 123.572556 -196.300502 
L 125.275596 -185.29889 
L 126.978636 -180.034424 
L 128.681676 -185.84275 
L 130.384716 -200.195303 
L 132.087756 -216.270093 
L 133.790796 -225.132973 
L 135.493836 -221.092858 
L 137.196876 -203.900702 
L 138.899916 -181.049589 
L 140.602957 -161.445548 
L 142.305997 -150.176181 
L 144.009037 -149.521377 
L 145.712077 -156.221495 
L 147.415117 -165.026947 
L 149.118157 -171.366429 
L 150.821197 -175.522725 
L 152.524237 -179.594202 
L 154.227277 -184.815144 
L 155.930317 -191.054611 
L 157.633357 -196.593118 
L 159.336397 -198.242319 
L 161.039437 -194.002671 
L 162.742477 -184.721077 
L 164.445517 -174.121185 
L 166.148558 -166.418273 
L 167.851598 -164.551796 
L 169.554638 -169.811021 
L 171.257678 -182.574853 
L 172.960718 -202.424394 
L 174.663758 -225.708951 
L 176.366798 -247.38732 
L 178.069838 -263.182916 
L 179.772878 -270.17136 
L 181.475918 -267.769463 
L 183.178958 -258.485659 
L 184.881998 -247.714032 
L 186.585038 -238.652037 
L 188.288078 -229.49908 
L 189.991118 -216.092287 
L 191.694159 -194.133228 
L 193.397199 -164.92676 
L 195.100239 -135.887504 
L 196.803279 -114.678527 
L 198.506319 -108.266541 
L 200.209359 -115.803223 
L 201.912399 -132.806194 
L 203.615439 -152.504631 
L 205.318479 -169.809028 
L 207.021519 -186.757129 
L 208.724559 -206.557427 
L 210.427599 -231.752867 
L 212.130639 -260.558 
L 213.833679 -286.594528 
L 215.536719 -303.356174 
L 217.23976 -311.134576 
L 218.9428 -314.944676 
L 220.64584 -322.148314 
L 222.34888 -338.507278 
L 224.05192 -361.758093 
L 225.75496 -383.229139 
L 227.458 -393.486773 
L 229.16104 -388.151457 
L 230.86408 -369.198316 
L 232.56712 -344.363108 
L 234.27016 -322.088318 
L 235.9732 -308.203133 
L 237.67624 -301.624491 
L 239.37928 -297.279821 
L 241.08232 -288.736638 
L 242.785361 -274.989173 
L 244.488401 -258.977206 
L 246.191441 -244.820458 
L 247.894481 -237.550851 
L 249.597521 -237.968493 
L 251.300561 -244.172608 
L 253.003601 -251.7621 
L 254.706641 -256.088873 
L 256.409681 -256.854807 
L 258.112721 -255.37386 
L 259.815761 -254.47143 
L 261.518801 -257.248292 
L 263.221841 -264.999298 
L 264.924881 -277.485965 
L 266.627921 -292.675856 
L 268.330962 -307.202809 
L 270.034002 -319.017151 
L 271.737042 -324.822718 
L 273.440082 -324.412697 
L 275.143122 -317.308992 
L 276.846162 -306.321627 
L 278.549202 -293.010068 
L 280.252242 -283.142027 
L 281.955282 -279.854047 
L 283.658322 -283.074935 
L 285.361362 -291.618099 
L 287.064402 -301.094831 
L 288.767442 -307.699733 
L 290.470482 -310.124168 
L 292.173522 -309.007923 
L 293.876563 -307.290906 
L 295.579603 -308.633041 
L 297.282643 -314.502835 
L 298.985683 -324.628002 
L 300.688723 -335.545224 
L 302.391763 -342.13304 
L 304.094803 -339.501613 
L 305.797843 -327.948849 
L 307.500883 -312.443849 
L 309.203923 -300.575076 
L 310.906963 -300.178369 
L 312.610003 -314.742091 
L 314.313043 -339.941095 
L 316.016083 -365.702884 
L 317.719123 -382.35384 
L 319.422164 -385.767234 
L 321.125204 -378.568987 
L 322.828244 -367.813677 
L 324.531284 -361.881924 
L 326.234324 -361.849628 
L 327.937364 -364.647635 
L 329.640404 -364.402764 
L 331.343444 -359.979927 
L 333.046484 -353.067338 
L 334.749524 -346.83698 
L 336.452564 -342.505333 
L 338.155604 -337.818137 
L 339.858644 -331.018212 
L 341.561684 -322.740307 
L 343.264724 -314.991455 
L 344.967765 -313.19361 
L 346.670805 -318.248578 
L 348.373845 -326.115282 
L 350.076885 -328.823867 
L 351.779925 -320.038805 
L 353.482965 -301.036424 
L 355.186005 -280.128345 
L 356.889045 -267.389023 
L 358.592085 -267.979635 
L 360.295125 -278.923945 
L 361.998165 -291.306518 
L 363.701205 -296.872037 
L 365.404245 -293.13571 
L 367.107285 -283.823336 
L 368.810326 -275.471887 
L 370.513366 -273.623901 
L 372.216406 -277.905891 
L 373.919446 -285.939233 
L 375.622486 -294.079273 
L 377.325526 -299.808863 
L 379.028566 -304.689043 
L 380.731606 -308.95828 
L 382.434646 -311.652397 
L 384.137686 -311.274337 
L 385.840726 -305.857718 
L 387.543766 -297.704812 
L 389.246806 -291.564064 
L 390.949846 -289.686247 
L 392.652886 -292.16892 
L 394.355927 -294.554399 
L 396.058967 -292.985346 
L 397.762007 -283.882557 
L 399.465047 -269.075344 
L 401.168087 -254.154468 
L 402.871127 -247.37949 
L 404.574167 -249.336545 
L 406.277207 -259.185837 
L 407.980247 -269.812218 
L 409.683287 -274.645648 
L 411.386327 -270.024475 
L 413.089367 -256.738012 
L 414.792407 -239.869749 
L 416.495447 -226.759294 
L 418.198487 -222.547495 
L 419.901528 -228.680989 
L 421.604568 -240.945779 
L 423.307608 -253.386168 
L 425.010648 -259.147366 
L 426.713688 -255.256551 
L 428.416728 -243.797155 
L 430.119768 -229.922298 
L 431.822808 -218.930283 
L 433.525848 -214.234055 
L 435.228888 -215.724367 
L 436.931928 -220.084507 
L 438.634968 -225.800787 
L 440.338008 -232.007918 
L 442.041048 -240.110035 
L 443.744088 -247.743967 
L 445.447129 -252.180285 
L 447.150169 -250.808578 
L 448.853209 -243.25407 
L 450.556249 -232.787066 
L 452.259289 -226.750511 
L 453.962329 -229.823546 
L 455.665369 -238.99194 
L 457.368409 -247.987239 
L 459.071449 -247.875982 
L 460.774489 -234.614538 
L 462.477529 -211.438641 
L 464.180569 -187.505756 
L 465.883609 -172.820308 
L 467.586649 -170.879361 
L 469.289689 -177.024112 
L 470.99273 -180.551168 
L 472.69577 -176.035884 
L 474.39881 -165.800639 
L 476.10185 -157.227087 
L 477.80489 -159.535578 
L 479.50793 -174.09739 
L 481.21097 -193.571768 
L 482.91401 -208.897454 
L 484.61705 -213.175876 
L 486.32009 -207.173959 
L 488.02313 -199.756227 
L 489.72617 -196.910142 
L 491.42921 -200.388738 
L 493.13225 -206.323647 
L 494.83529 -207.949177 
L 496.538331 -202.447531 
L 498.241371 -193.847022 
L 499.944411 -188.9707 
L 501.647451 -191.543358 
L 503.350491 -201.704856 
L 505.053531 -213.228078 
L 506.756571 -217.295444 
L 508.459611 -212.118401 
L 510.162651 -199.605451 
L 511.865691 -186.376253 
L 513.568731 -178.142192 
L 515.271771 -177.568549 
L 516.974811 -183.885728 
L 518.677851 -192.380067 
L 520.380891 -198.985601 
L 522.083932 -201.618804 
L 523.786972 -199.179123 
L 525.490012 -192.16615 
L 527.193052 -183.693421 
L 528.896092 -177.410437 
L 530.599132 -175.968659 
L 532.302172 -181.868691 
L 534.005212 -192.527148 
L 535.708252 -203.862674 
L 537.411292 -211.411293 
L 539.114332 -211.408551 
L 540.817372 -202.225946 
L 542.520412 -187.530238 
L 544.223452 -172.694498 
L 545.926492 -163.720837 
L 547.629533 -163.600542 
L 549.332573 -170.673785 
L 551.035613 -181.674589 
L 552.738653 -191.295175 
L 554.441693 -194.59679 
L 556.144733 -190.731306 
L 557.847773 -180.911971 
L 559.550813 -170.166234 
L 561.253853 -162.515897 
L 561.253853 -189.447905 
L 561.253853 -189.447905 
L 559.550813 -197.359827 
L 557.847773 -208.818182 
L 556.144733 -218.275358 
L 554.441693 -221.201646 
L 552.738653 -216.244446 
L 551.035613 -205.608922 
L 549.332573 -194.821632 
L 547.629533 -188.843034 
L 545.926492 -191.639366 
L 544.223452 -202.633573 
L 542.520412 -218.439991 
L 540.817372 -233.170185 
L 539.114332 -242.00133 
L 537.411292 -241.372166 
L 535.708252 -232.764312 
L 534.005212 -220.487468 
L 532.302172 -210.586195 
L 530.599132 -206.190582 
L 528.896092 -208.720537 
L 527.193052 -215.109031 
L 525.490012 -222.667669 
L 523.786972 -228.2308 
L 522.083932 -230.120763 
L 520.380891 -227.767617 
L 518.677851 -221.079336 
L 516.974811 -214.289386 
L 515.271771 -209.368825 
L 513.568731 -209.589718 
L 511.865691 -216.986355 
L 510.162651 -228.421639 
L 508.459611 -239.821156 
L 506.756571 -244.352961 
L 505.053531 -240.203393 
L 503.350491 -229.169443 
L 501.647451 -219.321739 
L 499.944411 -216.575845 
L 498.241371 -221.347011 
L 496.538331 -230.019612 
L 494.83529 -235.69272 
L 493.13225 -234.005928 
L 491.42921 -227.991554 
L 489.72617 -224.293818 
L 488.02313 -227.799705 
L 486.32009 -236.70983 
L 484.61705 -243.966544 
L 482.91401 -240.835709 
L 481.21097 -225.672425 
L 479.50793 -205.221921 
L 477.80489 -189.922005 
L 476.10185 -187.640048 
L 474.39881 -196.758594 
L 472.69577 -207.790762 
L 470.99273 -213.23644 
L 469.289689 -209.50062 
L 467.586649 -203.126908 
L 465.883609 -203.375455 
L 464.180569 -216.183076 
L 462.477529 -239.853595 
L 460.774489 -264.276771 
L 459.071449 -278.929132 
L 457.368409 -279.684274 
L 455.665369 -270.256156 
L 453.962329 -259.914072 
L 452.259289 -257.263726 
L 450.556249 -262.527637 
L 448.853209 -272.902343 
L 447.150169 -280.782059 
L 445.447129 -282.709522 
L 443.744088 -279.075712 
L 442.041048 -272.012744 
L 440.338008 -264.985418 
L 438.634968 -258.30482 
L 436.931928 -252.15815 
L 435.228888 -247.1277 
L 433.525848 -245.570664 
L 431.822808 -249.686 
L 430.119768 -259.015193 
L 428.416728 -272.074654 
L 426.713688 -283.857353 
L 425.010648 -288.554167 
L 423.307608 -283.218648 
L 421.604568 -270.065171 
L 419.901528 -256.211416 
L 418.198487 -248.504011 
L 416.495447 -252.200409 
L 414.792407 -265.435811 
L 413.089367 -284.158491 
L 411.386327 -299.097078 
L 409.683287 -304.660599 
L 407.980247 -298.667583 
L 406.277207 -286.707038 
L 404.574167 -276.725903 
L 402.871127 -274.704843 
L 401.168087 -283.680891 
L 399.465047 -299.066663 
L 397.762007 -314.23342 
L 396.058967 -323.70109 
L 394.355927 -324.724473 
L 392.652886 -320.841565 
L 390.949846 -318.347879 
L 389.246806 -320.935577 
L 387.543766 -328.292971 
L 385.840726 -335.954743 
L 384.137686 -341.186025 
L 382.434646 -342.162878 
L 380.731606 -338.47991 
L 379.028566 -333.269948 
L 377.325526 -328.056514 
L 375.622486 -322.715801 
L 373.919446 -315.09435 
L 372.216406 -307.426525 
L 370.513366 -302.626419 
L 368.810326 -304.57372 
L 367.107285 -313.034267 
L 365.404245 -322.358029 
L 363.701205 -325.729512 
L 361.998165 -319.976721 
L 360.295125 -306.614856 
L 358.592085 -294.509277 
L 356.889045 -293.864178 
L 355.186005 -306.551112 
L 353.482965 -327.639214 
L 351.779925 -346.875428 
L 350.076885 -357.231766 
L 348.373845 -356.303324 
L 346.670805 -349.318816 
L 344.967765 -343.697771 
L 343.264724 -345.761996 
L 341.561684 -352.276695 
L 339.858644 -359.570955 
L 338.155604 -365.044701 
L 336.452564 -368.918837 
L 334.749524 -372.683509 
L 333.046484 -378.689864 
L 331.343444 -385.551367 
L 329.640404 -389.496442 
L 327.937364 -388.733154 
L 326.234324 -386.204205 
L 324.531284 -386.390846 
L 322.828244 -392.046783 
L 321.125204 -402.093612 
L 319.422164 -410.615281 
L 317.719123 -409.144776 
L 316.016083 -393.548797 
L 314.313043 -368.209998 
L 312.610003 -342.277237 
L 310.906963 -326.343906 
L 309.203923 -325.090228 
L 307.500883 -336.41047 
L 305.797843 -351.807797 
L 304.094803 -363.885458 
L 302.391763 -366.561814 
L 300.688723 -361.301128 
L 298.985683 -351.536661 
L 297.282643 -342.226773 
L 295.579603 -335.961443 
L 293.876563 -334.321676 
L 292.173522 -335.107959 
L 290.470482 -335.664022 
L 288.767442 -333.521823 
L 287.064402 -327.982033 
L 285.361362 -319.946309 
L 283.658322 -312.48001 
L 281.955282 -309.005365 
L 280.252242 -311.829267 
L 278.549202 -320.011866 
L 276.846162 -331.309069 
L 275.143122 -342.631577 
L 273.440082 -349.673542 
L 271.737042 -349.870365 
L 270.034002 -342.598997 
L 268.330962 -329.903427 
L 266.627921 -314.690401 
L 264.924881 -299.535361 
L 263.221841 -286.431363 
L 261.518801 -278.479006 
L 259.815761 -275.880626 
L 258.112721 -277.032351 
L 256.409681 -278.801353 
L 254.706641 -277.811205 
L 253.003601 -273.025393 
L 251.300561 -266.032877 
L 249.597521 -259.886336 
L 247.894481 -259.051972 
L 246.191441 -266.61904 
L 244.488401 -281.139644 
L 242.785361 -297.902688 
L 241.08232 -312.284224 
L 239.37928 -320.97908 
L 237.67624 -325.968579 
L 235.9732 -332.829678 
L 234.27016 -345.973144 
L 232.56712 -366.914634 
L 230.86408 -390.344541 
L 229.16104 -408.725779 
L 227.458 -413.881635 
L 225.75496 -403.251918 
L 224.05192 -382.085207 
L 222.34888 -359.579274 
L 220.64584 -343.994079 
L 218.9428 -336.685669 
L 217.23976 -333.863608 
L 215.536719 -326.852428 
L 213.833679 -310.428198 
L 212.130639 -284.782687 
L 210.427599 -255.188891 
L 208.724559 -228.234734 
L 207.021519 -207.271665 
L 205.318479 -189.798477 
L 203.615439 -172.697774 
L 201.912399 -154.377469 
L 200.209359 -138.047053 
L 198.506319 -129.873224 
L 196.803279 -136.188556 
L 195.100239 -156.644308 
L 193.397199 -186.360771 
L 191.694159 -215.886522 
L 189.991118 -238.382775 
L 188.288078 -253.463711 
L 186.585038 -263.687635 
L 184.881998 -272.247261 
L 183.178958 -280.510384 
L 181.475918 -287.784234 
L 179.772878 -289.595459 
L 178.069838 -282.749518 
L 176.366798 -267.277547 
L 174.663758 -245.531307 
L 172.960718 -222.717858 
L 171.257678 -202.080912 
L 169.554638 -188.138844 
L 167.851598 -182.834033 
L 166.148558 -186.108758 
L 164.445517 -195.661392 
L 162.742477 -206.471956 
L 161.039437 -215.012763 
L 159.336397 -218.403355 
L 157.633357 -215.7693 
L 155.930317 -209.021736 
L 154.227277 -201.787894 
L 152.524237 -197.389041 
L 150.821197 -195.220954 
L 149.118157 -192.008384 
L 147.415117 -184.573419 
L 145.712077 -174.600693 
L 144.009037 -167.545426 
L 142.305997 -168.480716 
L 140.602957 -180.862527 
L 138.899916 -202.024931 
L 137.196876 -224.626808 
L 135.493836 -240.223761 
L 133.790796 -243.016656 
L 132.087756 -234.079175 
L 130.384716 -218.280141 
L 128.681676 -204.782287 
L 126.978636 -199.170885 
L 125.275596 -203.014634 
L 123.572556 -211.897045 
L 121.869516 -219.611705 
L 120.166476 -219.197731 
L 118.463436 -209.937882 
L 116.760396 -198.549132 
L 115.057356 -193.687582 
L 113.354315 -201.174748 
L 111.651275 -217.456612 
L 109.948235 -235.535541 
L 108.245195 -244.713905 
L 106.542155 -239.096058 
L 104.839115 -222.52311 
L 103.136075 -205.528816 
L 101.433035 -198.961856 
L 99.729995 -206.507508 
L 98.026955 -222.380292 
L 96.323915 -235.692658 
L 94.620875 -238.681463 
L 92.917835 -232.351991 
L 91.214795 -225.825974 
L 89.511755 -226.544798 
L 87.808714 -236.689873 
L 86.105674 -249.377746 
L 84.402634 -254.962436 
L 82.699594 -248.942046 
L 80.996554 -234.574156 
L 79.293514 -222.645512 
L 77.590474 -220.84936 
L 75.887434 -230.651539 
L 74.184394 -244.032878 
L 72.481354 -251.492777 
L 70.778314 -247.398626 
L 69.075274 -234.330971 
L 67.372234 -222.278202 
L 65.669194 -220.656386 
L 63.966154 -230.61566 
L 62.263113 -243.851579 
L 60.560073 -251.44191 
L 58.857033 -248.991431 
L 57.153993 -240.400916 
L 55.450953 -234.353114 
L 53.747913 -236.413046 
L 52.044873 -246.237686 
L 50.341833 -256.191865 
L 48.638793 -258.162224 
L 46.935753 -249.967768 
L 45.232713 -238.833581 
L 43.529673 -234.606452 
L 41.826633 -241.914144 
L 40.123593 -256.542022 
L 38.420552 -269.608582 
z
" style="stroke: #1f77b4; stroke-opacity: 0.3"/>
    </defs>
    <g>
     <use xlink:href="#m843b198b20" x="0" y="432" style="fill: #1f77b4; fill-opacity: 0.3; stroke: #1f77b4; stroke-opacity: 0.3"/>
    </g>
   </g>
   <g id="FillBetweenPolyCollection_2">
    <defs>
     <path id="m5695b1da84" d="M 38.420552 -261.412783 
L 38.420552 -250.797217 
L 40.123593 -251.184597 
L 41.826633 -249.153559 
L 43.529673 -244.548139 
L 45.232713 -239.985505 
L 46.935753 -238.77183 
L 48.638793 -240.704314 
L 50.341833 -242.375215 
L 52.044873 -239.752095 
L 53.747913 -230.250227 
L 55.450953 -215.620916 
L 57.153993 -202.304666 
L 58.857033 -196.465108 
L 60.560073 -200.936922 
L 62.263113 -213.187808 
L 63.966154 -226.612802 
L 65.669194 -234.505815 
L 67.372234 -234.253573 
L 69.075274 -228.535758 
L 70.778314 -222.527844 
L 72.481354 -220.439002 
L 74.184394 -222.945945 
L 75.887434 -227.451015 
L 77.590474 -229.979289 
L 79.293514 -229.167328 
L 80.996554 -226.55416 
L 82.699594 -226.019338 
L 84.402634 -229.993278 
L 86.105674 -238.309334 
L 87.808714 -246.424371 
L 89.511755 -249.747412 
L 91.214795 -246.067031 
L 92.917835 -236.592748 
L 94.620875 -225.08809 
L 96.323915 -216.558665 
L 98.026955 -212.737926 
L 99.729995 -212.526783 
L 101.433035 -212.758743 
L 103.136075 -210.943346 
L 104.839115 -206.066813 
L 106.542155 -197.974877 
L 108.245195 -188.448396 
L 109.948235 -180.663717 
L 111.651275 -177.00804 
L 113.354315 -179.049854 
L 115.057356 -186.707016 
L 116.760396 -197.44447 
L 118.463436 -206.885335 
L 120.166476 -209.418735 
L 121.869516 -202.314453 
L 123.572556 -188.564217 
L 125.275596 -175.447685 
L 126.978636 -170.501253 
L 128.681676 -177.115573 
L 130.384716 -191.812156 
L 132.087756 -205.993435 
L 133.790796 -211.869229 
L 135.493836 -206.591481 
L 137.196876 -194.62729 
L 138.899916 -182.849025 
L 140.602957 -176.641599 
L 142.305997 -176.375854 
L 144.009037 -178.279806 
L 145.712077 -177.545262 
L 147.415117 -172.439888 
L 149.118157 -166.039405 
L 150.821197 -162.409245 
L 152.524237 -163.110022 
L 154.227277 -167.098408 
L 155.930317 -170.241374 
L 157.633357 -170.063463 
L 159.336397 -166.308876 
L 161.039437 -160.463643 
L 162.742477 -155.217071 
L 164.445517 -151.441734 
L 166.148558 -148.882827 
L 167.851598 -148.286944 
L 169.554638 -151.711448 
L 171.257678 -161.455846 
L 172.960718 -178.990602 
L 174.663758 -203.062352 
L 176.366798 -229.017223 
L 178.069838 -250.705027 
L 179.772878 -264.299434 
L 181.475918 -269.260058 
L 183.178958 -266.810495 
L 184.881998 -257.726121 
L 186.585038 -242.113368 
L 188.288078 -220.45765 
L 189.991118 -195.11408 
L 191.694159 -170.461567 
L 193.397199 -151.094619 
L 195.100239 -140.27645 
L 196.803279 -135.090742 
L 198.506319 -131.418907 
L 200.209359 -124.587696 
L 201.912399 -115.090646 
L 203.615439 -107.782345 
L 205.318479 -109.849373 
L 207.021519 -124.905541 
L 208.724559 -150.31824 
L 210.427599 -178.784112 
L 212.130639 -202.965973 
L 213.833679 -220.865913 
L 215.536719 -235.608937 
L 217.23976 -252.697697 
L 218.9428 -274.712708 
L 220.64584 -298.962213 
L 222.34888 -319.828532 
L 224.05192 -333.113379 
L 225.75496 -338.205722 
L 227.458 -338.092594 
L 229.16104 -336.191536 
L 230.86408 -334.369857 
L 232.56712 -330.817386 
L 234.27016 -323.542769 
L 235.9732 -311.311598 
L 237.67624 -296.935655 
L 239.37928 -283.22693 
L 241.08232 -272.618986 
L 242.785361 -264.163117 
L 244.488401 -256.724854 
L 246.191441 -248.97484 
L 247.894481 -242.322661 
L 249.597521 -239.044922 
L 251.300561 -239.799654 
L 253.003601 -243.753245 
L 254.706641 -247.794908 
L 256.409681 -250.474532 
L 258.112721 -252.322328 
L 259.815761 -255.706809 
L 261.518801 -262.902014 
L 263.221841 -274.039522 
L 264.924881 -286.348718 
L 266.627921 -295.806798 
L 268.330962 -300.271148 
L 270.034002 -299.846926 
L 271.737042 -296.877356 
L 273.440082 -294.131327 
L 275.143122 -291.557595 
L 276.846162 -288.059879 
L 278.549202 -283.429579 
L 280.252242 -277.934952 
L 281.955282 -273.43544 
L 283.658322 -271.948595 
L 285.361362 -272.525968 
L 287.064402 -273.023239 
L 288.767442 -271.344264 
L 290.470482 -267.518808 
L 292.173522 -262.142353 
L 293.876563 -257.798379 
L 295.579603 -255.673124 
L 297.282643 -255.095377 
L 298.985683 -255.267394 
L 300.688723 -254.643394 
L 302.391763 -253.89214 
L 304.094803 -254.012924 
L 305.797843 -256.106075 
L 307.500883 -259.255321 
L 309.203923 -262.177073 
L 310.906963 -263.970292 
L 312.610003 -264.917767 
L 314.313043 -267.055347 
L 316.016083 -271.976168 
L 317.719123 -279.524282 
L 319.422164 -288.262142 
L 321.125204 -294.231983 
L 322.828244 -295.301274 
L 324.531284 -290.827988 
L 326.234324 -282.921679 
L 327.937364 -275.302894 
L 329.640404 -270.63141 
L 331.343444 -270.936487 
L 333.046484 -275.072803 
L 334.749524 -280.829321 
L 336.452564 -284.430916 
L 338.155604 -283.081456 
L 339.858644 -276.366112 
L 341.561684 -264.941314 
L 343.264724 -251.602651 
L 344.967765 -239.58206 
L 346.670805 -231.456969 
L 348.373845 -228.025611 
L 350.076885 -227.610452 
L 351.779925 -228.556079 
L 353.482965 -228.68745 
L 355.186005 -227.8615 
L 356.889045 -225.807882 
L 358.592085 -223.504799 
L 360.295125 -221.057685 
L 361.998165 -219.863621 
L 363.701205 -221.093953 
L 365.404245 -224.006638 
L 367.107285 -226.83002 
L 368.810326 -227.55206 
L 370.513366 -225.5306 
L 372.216406 -221.348289 
L 373.919446 -217.853632 
L 375.622486 -218.62358 
L 377.325526 -224.283127 
L 379.028566 -233.86188 
L 380.731606 -242.826911 
L 382.434646 -247.339222 
L 384.137686 -247.191086 
L 385.840726 -243.185327 
L 387.543766 -238.956987 
L 389.246806 -236.083936 
L 390.949846 -234.499972 
L 392.652886 -231.634467 
L 394.355927 -226.359872 
L 396.058967 -219.255298 
L 397.762007 -212.673599 
L 399.465047 -208.817869 
L 401.168087 -207.563858 
L 402.871127 -206.254456 
L 404.574167 -202.073295 
L 406.277207 -194.373173 
L 407.980247 -186.21662 
L 409.683287 -182.050412 
L 411.386327 -184.518454 
L 413.089367 -192.271495 
L 414.792407 -199.896022 
L 416.495447 -202.724345 
L 418.198487 -199.916575 
L 419.901528 -193.339935 
L 421.604568 -187.307139 
L 423.307608 -185.074384 
L 425.010648 -186.565347 
L 426.713688 -189.314857 
L 428.416728 -190.221869 
L 430.119768 -187.900538 
L 431.822808 -183.893283 
L 433.525848 -181.295085 
L 435.228888 -181.622213 
L 436.931928 -184.262473 
L 438.634968 -186.293984 
L 440.338008 -183.361638 
L 442.041048 -175.109865 
L 443.744088 -163.963327 
L 445.447129 -154.724896 
L 447.150169 -150.743835 
L 448.853209 -153.496942 
L 450.556249 -159.279901 
L 452.259289 -164.106928 
L 453.962329 -163.496924 
L 455.665369 -157.670249 
L 457.368409 -149.138476 
L 459.071449 -142.261541 
L 460.774489 -140.115595 
L 462.477529 -141.89957 
L 464.180569 -144.236652 
L 465.883609 -142.881393 
L 467.586649 -137.53214 
L 469.289689 -131.090944 
L 470.99273 -127.954907 
L 472.69577 -132.741555 
L 474.39881 -145.393536 
L 476.10185 -161.359425 
L 477.80489 -173.882043 
L 479.50793 -177.143817 
L 481.21097 -169.659212 
L 482.91401 -154.295395 
L 484.61705 -136.238619 
L 486.32009 -121.303226 
L 488.02313 -112.864686 
L 489.72617 -112.056625 
L 491.42921 -118.080129 
L 493.13225 -128.468465 
L 494.83529 -138.988879 
L 496.538331 -145.924058 
L 498.241371 -147.694849 
L 499.944411 -145.017569 
L 501.647451 -140.206139 
L 503.350491 -136.259079 
L 505.053531 -135.112185 
L 506.756571 -136.487565 
L 508.459611 -138.391338 
L 510.162651 -139.665556 
L 511.865691 -140.285368 
L 513.568731 -142.708653 
L 515.271771 -148.414136 
L 516.974811 -156.787792 
L 518.677851 -164.264171 
L 520.380891 -167.930403 
L 522.083932 -165.076021 
L 523.786972 -156.732918 
L 525.490012 -148.104241 
L 527.193052 -143.633945 
L 528.896092 -145.090721 
L 530.599132 -150.888155 
L 532.302172 -156.508527 
L 534.005212 -157.181033 
L 535.708252 -152.267577 
L 537.411292 -144.482955 
L 539.114332 -139.363239 
L 540.817372 -140.032638 
L 542.520412 -146.907192 
L 544.223452 -155.83071 
L 545.926492 -161.67368 
L 547.629533 -159.812196 
L 549.332573 -150.853661 
L 551.035613 -139.120401 
L 552.738653 -130.468586 
L 554.441693 -129.922525 
L 556.144733 -136.942509 
L 557.847773 -148.655047 
L 559.550813 -159.578401 
L 561.253853 -165.86864 
L 561.253853 -180.540781 
L 561.253853 -180.540781 
L 559.550813 -174.349203 
L 557.847773 -163.613698 
L 556.144733 -152.150908 
L 554.441693 -145.325382 
L 552.738653 -146.499151 
L 551.035613 -154.781339 
L 549.332573 -166.044496 
L 547.629533 -174.710303 
L 545.926492 -176.13955 
L 544.223452 -170.807615 
L 542.520412 -162.032236 
L 540.817372 -155.308659 
L 539.114332 -154.637949 
L 537.411292 -160.057976 
L 535.708252 -168.146 
L 534.005212 -173.130268 
L 532.302172 -172.446643 
L 530.599132 -167.167182 
L 528.896092 -161.757112 
L 527.193052 -160.580448 
L 525.490012 -165.594946 
L 523.786972 -174.342096 
L 522.083932 -181.813702 
L 520.380891 -184.207276 
L 518.677851 -179.524333 
L 516.974811 -171.022848 
L 515.271771 -162.867782 
L 513.568731 -157.928108 
L 511.865691 -156.191321 
L 510.162651 -155.787735 
L 508.459611 -154.81587 
L 506.756571 -152.8633 
L 505.053531 -151.254333 
L 503.350491 -152.190896 
L 501.647451 -156.335892 
L 499.944411 -161.733955 
L 498.241371 -164.824346 
L 496.538331 -163.317057 
L 494.83529 -156.076505 
L 493.13225 -145.352349 
L 491.42921 -134.985028 
L 489.72617 -128.237326 
L 488.02313 -128.568845 
L 486.32009 -136.783287 
L 484.61705 -152.077705 
L 482.91401 -169.938909 
L 481.21097 -185.486446 
L 479.50793 -192.948392 
L 477.80489 -189.648741 
L 476.10185 -176.980581 
L 474.39881 -160.996557 
L 472.69577 -147.844584 
L 470.99273 -142.664821 
L 469.289689 -145.627408 
L 467.586649 -152.425881 
L 465.883609 -157.780985 
L 464.180569 -158.679925 
L 462.477529 -156.540321 
L 460.774489 -155.133794 
L 459.071449 -157.929467 
L 457.368409 -165.502623 
L 455.665369 -174.883548 
L 453.962329 -181.301821 
L 452.259289 -181.410549 
L 450.556249 -176.291343 
L 448.853209 -169.722313 
L 447.150169 -166.742999 
L 445.447129 -170.199073 
L 443.744088 -179.372445 
L 442.041048 -190.493954 
L 440.338008 -198.519302 
L 438.634968 -201.318071 
L 436.931928 -200.028124 
L 435.228888 -197.428736 
L 433.525848 -197.129759 
L 431.822808 -199.799992 
L 430.119768 -203.977185 
L 428.416728 -206.322821 
L 426.713688 -205.633714 
L 425.010648 -202.857546 
L 423.307608 -200.428078 
L 421.604568 -201.973751 
L 419.901528 -207.668709 
L 418.198487 -214.277928 
L 416.495447 -217.614551 
L 414.792407 -214.85918 
L 413.089367 -207.874248 
L 411.386327 -200.747003 
L 409.683287 -198.400843 
L 407.980247 -202.027198 
L 406.277207 -209.957158 
L 404.574167 -217.42642 
L 402.871127 -221.718755 
L 401.168087 -223.127159 
L 399.465047 -224.260822 
L 397.762007 -227.527015 
L 396.058967 -233.750401 
L 394.355927 -241.005658 
L 392.652886 -246.373806 
L 390.949846 -249.0755 
L 389.246806 -250.966751 
L 387.543766 -253.733381 
L 385.840726 -258.297151 
L 384.137686 -261.963884 
L 382.434646 -261.582402 
L 380.731606 -256.101063 
L 379.028566 -246.952265 
L 377.325526 -237.757327 
L 375.622486 -232.763999 
L 373.919446 -232.880271 
L 372.216406 -236.669119 
L 370.513366 -240.710348 
L 368.810326 -242.53275 
L 367.107285 -241.036104 
L 365.404245 -238.143505 
L 363.701205 -235.193604 
L 361.998165 -234.281543 
L 360.295125 -234.972187 
L 358.592085 -237.064739 
L 356.889045 -239.799932 
L 355.186005 -241.954427 
L 353.482965 -242.786304 
L 351.779925 -242.427355 
L 350.076885 -241.707483 
L 348.373845 -241.958366 
L 346.670805 -245.173438 
L 344.967765 -253.008535 
L 343.264724 -265.242714 
L 341.561684 -278.919995 
L 339.858644 -290.589048 
L 338.155604 -297.594535 
L 336.452564 -298.540347 
L 334.749524 -294.813405 
L 333.046484 -288.476241 
L 331.343444 -284.436365 
L 329.640404 -284.199246 
L 327.937364 -289.29819 
L 326.234324 -297.715978 
L 324.531284 -306.143642 
L 322.828244 -310.895575 
L 321.125204 -310.169862 
L 319.422164 -303.873887 
L 317.719123 -294.440067 
L 316.016083 -285.677664 
L 314.313043 -279.87633 
L 312.610003 -277.476649 
L 310.906963 -276.519813 
L 309.203923 -274.893474 
L 307.500883 -272.062385 
L 305.797843 -269.509541 
L 304.094803 -267.846044 
L 302.391763 -267.922356 
L 300.688723 -268.778392 
L 298.985683 -269.3627 
L 297.282643 -269.345726 
L 295.579603 -269.497766 
L 293.876563 -271.2648 
L 292.173522 -275.66323 
L 290.470482 -281.113984 
L 288.767442 -285.106133 
L 287.064402 -286.784449 
L 285.361362 -286.380603 
L 283.658322 -285.658045 
L 281.955282 -286.707608 
L 280.252242 -290.656781 
L 278.549202 -295.73649 
L 276.846162 -300.666244 
L 275.143122 -304.33104 
L 273.440082 -307.149173 
L 271.737042 -310.194624 
L 270.034002 -312.934275 
L 268.330962 -313.528267 
L 266.627921 -309.602549 
L 264.924881 -300.533726 
L 263.221841 -288.170219 
L 261.518801 -276.563834 
L 259.815761 -268.706519 
L 258.112721 -264.940189 
L 256.409681 -263.097251 
L 254.706641 -260.812554 
L 253.003601 -257.104026 
L 251.300561 -253.138109 
L 249.597521 -252.568394 
L 247.894481 -255.363331 
L 246.191441 -261.649326 
L 244.488401 -269.114576 
L 242.785361 -276.681545 
L 241.08232 -285.172342 
L 239.37928 -296.008437 
L 237.67624 -309.31079 
L 235.9732 -323.637014 
L 234.27016 -335.541319 
L 232.56712 -343.236015 
L 230.86408 -347.001204 
L 229.16104 -349.282518 
L 227.458 -350.945281 
L 225.75496 -350.539932 
L 224.05192 -345.298282 
L 222.34888 -331.455708 
L 220.64584 -310.364959 
L 218.9428 -286.505237 
L 217.23976 -265.01497 
L 215.536719 -248.390806 
L 213.833679 -233.674081 
L 212.130639 -215.847178 
L 210.427599 -191.231789 
L 208.724559 -162.664785 
L 207.021519 -136.853882 
L 205.318479 -121.464479 
L 203.615439 -119.561057 
L 201.912399 -127.158643 
L 200.209359 -137.464686 
L 198.506319 -144.374221 
L 196.803279 -147.979252 
L 195.100239 -152.346802 
L 193.397199 -163.061574 
L 191.694159 -182.378523 
L 189.991118 -207.985191 
L 188.288078 -234.234177 
L 186.585038 -255.986991 
L 184.881998 -270.994714 
L 183.178958 -279.867682 
L 181.475918 -282.464094 
L 179.772878 -277.173636 
L 178.069838 -263.04044 
L 176.366798 -241.201945 
L 174.663758 -214.976298 
L 172.960718 -190.290302 
L 171.257678 -171.902391 
L 169.554638 -161.991153 
L 167.851598 -158.433669 
L 166.148558 -159.138881 
L 164.445517 -161.65491 
L 162.742477 -165.855037 
L 161.039437 -171.625683 
L 159.336397 -177.81217 
L 157.633357 -181.663418 
L 155.930317 -181.38056 
L 154.227277 -177.615691 
L 152.524237 -173.707678 
L 150.821197 -173.391989 
L 149.118157 -177.728205 
L 147.415117 -184.075872 
L 145.712077 -188.397712 
L 144.009037 -188.909683 
L 142.305997 -187.159764 
L 140.602957 -187.50616 
L 138.899916 -194.123029 
L 137.196876 -205.840582 
L 135.493836 -217.611119 
L 133.790796 -222.348773 
L 132.087756 -216.264656 
L 130.384716 -201.778565 
L 128.681676 -187.140702 
L 126.978636 -180.648864 
L 125.275596 -185.122089 
L 123.572556 -197.747827 
L 121.869516 -211.135337 
L 120.166476 -218.196892 
L 118.463436 -216.054607 
L 116.760396 -206.897408 
L 115.057356 -195.579605 
L 113.354315 -187.455325 
L 111.651275 -185.767347 
L 109.948235 -189.640252 
L 108.245195 -197.316815 
L 106.542155 -206.112106 
L 104.839115 -213.88233 
L 103.136075 -219.532003 
L 101.433035 -221.480816 
L 99.729995 -221.378877 
L 98.026955 -222.347283 
L 96.323915 -226.576011 
L 94.620875 -235.002259 
L 92.917835 -245.921463 
L 91.214795 -255.30576 
L 89.511755 -259.364899 
L 87.808714 -256.29267 
L 86.105674 -248.628416 
L 84.402634 -240.503046 
L 82.699594 -235.73444 
L 80.996554 -235.81143 
L 79.293514 -237.606232 
L 77.590474 -238.731391 
L 75.887434 -236.792464 
L 74.184394 -233.214307 
L 72.481354 -231.098891 
L 70.778314 -232.87671 
L 69.075274 -238.499631 
L 67.372234 -243.592292 
L 65.669194 -243.372995 
L 63.966154 -235.506239 
L 62.263113 -222.345812 
L 60.560073 -210.344788 
L 58.857033 -205.73905 
L 57.153993 -211.505942 
L 55.450953 -225.244598 
L 53.747913 -240.252744 
L 52.044873 -250.06739 
L 50.341833 -252.343191 
L 48.638793 -249.94249 
L 46.935753 -247.945657 
L 45.232713 -249.275634 
L 43.529673 -253.619001 
L 41.826633 -258.317967 
L 40.123593 -261.039768 
L 38.420552 -261.412783 
z
" style="stroke: #ff7f0e; stroke-opacity: 0.3"/>
    </defs>
    <g>
     <use xlink:href="#m5695b1da84" x="0" y="432" style="fill: #ff7f0e; fill-opacity: 0.3; stroke: #ff7f0e; stroke-opacity: 0.3"/>
    </g>
   </g>
   <g id="line2d_19">
    <path d="M 38.420552 170.836527 
L 40.123593 184.350225 
L 41.826633 198.974706 
L 43.529673 205.144522 
L 45.232713 199.949686 
L 46.935753 188.81062 
L 48.638793 181.087052 
L 50.341833 182.935671 
L 53.747913 202.590971 
L 55.450953 205.113077 
L 57.153993 199.02424 
L 58.857033 190.514204 
L 60.560073 188.151411 
L 62.263113 195.847057 
L 63.966154 209.269787 
L 65.669194 218.930827 
L 67.372234 217.467615 
L 69.075274 205.624892 
L 70.778314 192.076852 
L 72.481354 186.993215 
L 74.184394 194.29777 
L 75.887434 208.533186 
L 77.590474 218.918152 
L 79.293514 217.457777 
L 80.996554 205.046501 
L 82.699594 190.677598 
L 84.402634 184.599054 
L 86.105674 190.603275 
L 87.808714 203.516351 
L 89.511755 213.604354 
L 91.214795 214.286825 
L 92.917835 207.312647 
L 94.620875 201.141479 
L 96.323915 203.954545 
L 98.026955 216.946905 
L 99.729995 232.873334 
L 101.433035 241.085807 
L 103.136075 235.42361 
L 106.542155 201.918557 
L 108.245195 195.372317 
L 109.948235 203.47595 
L 113.354315 238.206245 
L 115.057356 245.421238 
L 116.760396 240.768048 
L 118.463436 229.613619 
L 120.166476 220.687777 
L 121.869516 220.161455 
L 123.572556 227.897606 
L 125.275596 237.937606 
L 126.978636 242.469524 
L 128.681676 236.88272 
L 130.384716 222.678791 
L 132.087756 206.788039 
L 133.790796 197.884088 
L 135.493836 201.67284 
L 137.196876 217.896531 
L 138.899916 240.544649 
L 140.602957 261.020134 
L 142.305997 272.570866 
L 144.009037 273.378626 
L 145.712077 266.589925 
L 147.415117 257.648456 
L 149.118157 250.734662 
L 150.821197 246.691001 
L 152.524237 243.515933 
L 154.227277 238.806746 
L 157.633357 226.037559 
L 159.336397 223.746211 
L 161.039437 227.464031 
L 162.742477 236.471175 
L 164.445517 247.423374 
L 166.148558 255.960167 
L 167.851598 258.496736 
L 169.554638 253.115002 
L 171.257678 239.759743 
L 172.960718 219.978073 
L 176.366798 174.950167 
L 178.069838 158.912123 
L 179.772878 151.986452 
L 181.475918 154.163158 
L 183.178958 162.241856 
L 184.881998 171.94816 
L 186.585038 180.903801 
L 188.288078 190.486476 
L 189.991118 204.831301 
L 191.694159 227.192823 
L 195.100239 285.806204 
L 196.803279 306.822019 
L 198.506319 313.337703 
L 200.209359 305.374226 
L 201.912399 288.502213 
L 203.615439 269.580508 
L 207.021519 235.15786 
L 208.724559 214.549655 
L 210.427599 188.380858 
L 212.130639 159.341511 
L 213.833679 133.684422 
L 215.536719 116.924861 
L 217.23976 109.551775 
L 218.9428 106.13321 
L 220.64584 98.852238 
L 222.34888 82.97355 
L 225.75496 39.190499 
L 227.458 28.557841 
L 229.16104 33.558277 
L 230.86408 52.05858 
L 232.56712 76.379734 
L 234.27016 97.810193 
L 235.9732 111.423097 
L 237.67624 118.163558 
L 239.37928 123.136822 
L 241.08232 131.56477 
L 242.785361 145.30977 
L 244.488401 161.890612 
L 246.191441 176.181837 
L 247.894481 183.669266 
L 249.597521 183.054413 
L 251.300561 176.803172 
L 253.003601 169.414777 
L 254.706641 164.778028 
L 256.409681 164.171757 
L 258.112721 165.975786 
L 259.815761 166.948261 
L 261.518801 164.076004 
L 263.221841 155.947322 
L 264.924881 143.207394 
L 268.330962 112.989675 
L 270.034002 101.106996 
L 271.737042 94.625797 
L 273.440082 94.925999 
L 275.143122 101.797495 
L 276.846162 113.160526 
L 278.549202 125.31038 
L 280.252242 134.23345 
L 281.955282 137.19902 
L 283.658322 133.780753 
L 285.361362 126.093685 
L 287.064402 117.617836 
L 288.767442 111.508131 
L 290.470482 109.221317 
L 292.173522 109.97155 
L 293.876563 111.17838 
L 295.579603 109.796825 
L 297.282643 103.929829 
L 300.688723 83.639626 
L 302.391763 77.597889 
L 304.094803 80.164635 
L 305.797843 91.770679 
L 307.500883 107.660977 
L 309.203923 119.426869 
L 310.906963 119.076497 
L 312.610003 103.78417 
L 316.016083 52.503645 
L 317.719123 36.406813 
L 319.422164 34.009744 
L 321.125204 41.905631 
L 322.828244 52.219441 
L 324.531284 58.181658 
L 326.234324 58.205172 
L 327.937364 55.720453 
L 329.640404 55.506344 
L 331.343444 59.605043 
L 333.046484 66.254247 
L 334.749524 72.271483 
L 338.155604 80.087469 
L 339.858644 86.132238 
L 341.561684 94.510212 
L 343.264724 101.774015 
L 344.967765 103.425286 
L 346.670805 98.333527 
L 348.373845 90.910945 
L 350.076885 89.038145 
L 351.779925 98.397733 
L 353.482965 117.706546 
L 355.186005 138.765514 
L 356.889045 151.514104 
L 358.592085 150.770732 
L 360.295125 139.529816 
L 361.998165 126.6508 
L 363.701205 120.688803 
L 365.404245 124.411303 
L 367.107285 133.8601 
L 368.810326 142.009022 
L 370.513366 143.807636 
L 372.216406 139.053723 
L 375.622486 123.579869 
L 377.325526 117.698447 
L 379.028566 112.811042 
L 380.731606 108.320341 
L 382.434646 105.252666 
L 384.137686 105.770239 
L 385.840726 110.936187 
L 387.543766 118.969263 
L 389.246806 125.877025 
L 390.949846 128.152287 
L 392.652886 125.740413 
L 394.355927 122.548401 
L 396.058967 123.95715 
L 397.762007 133.030349 
L 401.168087 162.849502 
L 402.871127 170.91797 
L 404.574167 168.950288 
L 406.277207 159.145822 
L 407.980247 148.001449 
L 409.683287 142.805187 
L 411.386327 147.783945 
L 413.089367 161.884054 
L 414.792407 179.3229 
L 416.495447 192.580006 
L 418.198487 196.119433 
L 419.901528 189.151253 
L 423.307608 163.427818 
L 425.010648 158.08655 
L 426.713688 162.338817 
L 428.416728 173.943868 
L 430.119768 187.532747 
L 431.822808 197.754354 
L 433.525848 201.896978 
L 435.228888 200.537742 
L 436.931928 195.980157 
L 438.634968 190.096434 
L 440.338008 183.379611 
L 443.744088 168.569125 
L 445.447129 164.466876 
L 447.150169 166.321252 
L 448.853209 174.244853 
L 450.556249 184.260706 
L 452.259289 190.095366 
L 453.962329 187.443956 
L 457.368409 168.544267 
L 459.071449 168.795085 
L 460.774489 182.888652 
L 464.180569 230.625552 
L 465.883609 244.394688 
L 467.586649 245.360663 
L 469.289689 239.197441 
L 470.99273 235.485354 
L 472.69577 240.23804 
L 474.39881 251.270183 
L 476.10185 259.884046 
L 477.80489 257.638545 
L 479.50793 243.032224 
L 481.21097 222.922387 
L 482.91401 207.635347 
L 484.61705 203.74895 
L 486.32009 209.756196 
L 488.02313 218.135866 
L 489.72617 221.46174 
L 491.42921 217.991633 
L 493.13225 212.262941 
L 494.83529 210.682402 
L 496.538331 215.92677 
L 498.241371 224.542782 
L 499.944411 229.705846 
L 501.647451 226.688922 
L 503.350491 216.563707 
L 505.053531 205.657551 
L 506.756571 201.076272 
L 508.459611 205.987138 
L 510.162651 217.863295 
L 511.865691 230.550305 
L 513.568731 238.265336 
L 515.271771 238.602112 
L 516.974811 233.041014 
L 518.677851 225.226585 
L 520.380891 218.826931 
L 522.083932 216.202412 
L 523.786972 218.17279 
L 525.490012 224.106 
L 527.193052 231.944908 
L 528.896092 238.507508 
L 530.599132 240.431597 
L 532.302172 235.749484 
L 534.005212 225.433362 
L 535.708252 213.416214 
L 537.411292 205.184111 
L 539.114332 205.045179 
L 540.817372 213.873355 
L 544.223452 243.720545 
L 545.926492 253.597315 
L 547.629533 255.129397 
L 549.332573 248.711167 
L 551.035613 237.942255 
L 552.738653 228.11529 
L 554.441693 223.899954 
L 556.144733 227.368832 
L 557.847773 236.949404 
L 559.550813 248.199378 
L 561.253853 255.863627 
L 561.253853 255.863627 
" style="fill: none; stroke: #1f77b4; stroke-width: 1.5; stroke-linecap: square"/>
   </g>
   <g id="line2d_20">
    <path d="M 38.420552 175.77469 
L 40.123593 175.976418 
L 41.826633 178.345598 
L 45.232713 187.511392 
L 46.935753 188.839099 
L 50.341833 184.652333 
L 52.044873 187.19215 
L 53.747913 196.896946 
L 55.450953 211.568022 
L 57.153993 225.059342 
L 58.857033 230.84822 
L 60.560073 226.179405 
L 62.263113 213.917292 
L 63.966154 200.705167 
L 65.669194 192.920053 
L 67.372234 192.947156 
L 70.778314 204.077082 
L 72.481354 206.033936 
L 74.184394 203.689195 
L 75.887434 199.728269 
L 77.590474 197.590519 
L 79.293514 198.596304 
L 80.996554 200.963948 
L 82.699594 201.187952 
L 84.402634 196.832292 
L 87.808714 180.726361 
L 89.511755 177.454058 
L 91.214795 181.254318 
L 92.917835 190.779989 
L 94.620875 201.950647 
L 96.323915 210.543749 
L 98.026955 214.631028 
L 99.729995 215.198486 
L 101.433035 215.066072 
L 103.136075 216.9931 
L 104.839115 222.212959 
L 106.542155 230.234132 
L 108.245195 239.290657 
L 109.948235 246.955078 
L 111.651275 250.732696 
L 113.354315 248.763064 
L 115.057356 240.945989 
L 116.760396 229.887598 
L 118.463436 220.581 
L 120.166476 218.27595 
L 121.869516 225.293781 
L 125.275596 251.676652 
L 126.978636 256.367239 
L 128.681676 249.701116 
L 132.087756 220.942365 
L 133.790796 214.9234 
L 135.493836 219.766754 
L 138.899916 243.484354 
L 140.602957 249.746525 
L 142.305997 250.014947 
L 144.009037 248.239547 
L 145.712077 248.959882 
L 147.415117 253.73732 
L 149.118157 260.146922 
L 150.821197 264.170914 
L 152.524237 263.623656 
L 154.227277 259.775901 
L 155.930317 256.242253 
L 157.633357 256.130694 
L 159.336397 259.940364 
L 162.742477 271.459558 
L 164.445517 275.614768 
L 166.148558 278.184857 
L 167.851598 278.753999 
L 169.554638 275.420417 
L 171.257678 265.439417 
L 172.960718 247.369793 
L 178.069838 175.198615 
L 179.772878 161.298893 
L 181.475918 156.129819 
L 183.178958 158.573613 
L 184.881998 167.561501 
L 186.585038 183.002309 
L 188.288078 204.691872 
L 191.694159 255.634177 
L 193.397199 274.981792 
L 195.100239 285.970579 
L 196.803279 290.629738 
L 198.506319 294.207632 
L 200.209359 301.120552 
L 201.912399 311.049738 
L 203.615439 318.497054 
L 205.318479 316.37373 
L 207.021519 301.147671 
L 208.724559 275.600529 
L 210.427599 247.105019 
L 212.130639 222.707009 
L 213.833679 204.674978 
L 215.536719 189.806661 
L 217.23976 172.908747 
L 218.9428 151.358398 
L 220.64584 127.377905 
L 222.34888 106.355678 
L 224.05192 92.839566 
L 225.75496 87.56294 
L 227.458 87.587893 
L 229.16104 89.271871 
L 230.86408 91.221331 
L 232.56712 94.866319 
L 234.27016 102.479058 
L 235.9732 114.555612 
L 239.37928 142.498868 
L 241.08232 153.209841 
L 242.785361 161.482301 
L 246.191441 176.518028 
L 247.894481 183.034783 
L 249.597521 186.4155 
L 251.300561 185.652011 
L 253.003601 181.922962 
L 254.706641 177.828953 
L 256.409681 175.207675 
L 258.112721 173.467244 
L 259.815761 169.986526 
L 261.518801 162.448499 
L 263.221841 151.034221 
L 264.924881 138.754479 
L 266.627921 129.457665 
L 268.330962 125.354938 
L 270.034002 125.872275 
L 275.143122 134.351673 
L 276.846162 137.796848 
L 278.549202 142.582122 
L 280.252242 147.902009 
L 281.955282 151.943406 
L 283.658322 153.371298 
L 287.064402 152.024468 
L 288.767442 153.523601 
L 290.470482 157.690632 
L 292.173522 163.030772 
L 293.876563 167.317654 
L 295.579603 169.341074 
L 297.282643 169.589294 
L 298.985683 169.520798 
L 300.688723 170.136545 
L 302.391763 171.038862 
L 304.094803 170.989097 
L 305.797843 169.202649 
L 309.203923 163.340833 
L 310.906963 161.698613 
L 312.610003 160.661334 
L 314.313043 158.390948 
L 316.016083 153.154321 
L 317.719123 144.95638 
L 319.422164 136.011604 
L 321.125204 129.706414 
L 322.828244 128.714467 
L 324.531284 133.387617 
L 327.937364 149.681747 
L 329.640404 154.47242 
L 331.343444 154.38147 
L 333.046484 150.127432 
L 334.749524 144.339323 
L 336.452564 140.492449 
L 338.155604 141.462074 
L 339.858644 148.360432 
L 341.561684 160.022644 
L 343.264724 173.514746 
L 344.967765 185.446131 
L 346.670805 193.441848 
L 348.373845 197.010613 
L 350.076885 197.367699 
L 351.779925 196.512177 
L 353.482965 196.147698 
L 355.186005 197.061319 
L 356.889045 199.187522 
L 358.592085 201.832505 
L 360.295125 204.042625 
L 361.998165 204.908911 
L 363.701205 203.817082 
L 367.107285 198.193517 
L 368.810326 197.053948 
L 370.513366 198.902596 
L 372.216406 202.977751 
L 373.919446 206.536344 
L 375.622486 206.311226 
L 377.325526 200.798661 
L 380.731606 182.366538 
L 382.434646 177.161525 
L 384.137686 177.281367 
L 385.840726 181.036498 
L 387.543766 185.293406 
L 389.246806 188.04664 
L 390.949846 189.811846 
L 392.652886 192.730335 
L 394.355927 198.22241 
L 396.058967 205.490816 
L 397.762007 211.977962 
L 399.465047 215.59267 
L 401.168087 216.675991 
L 402.871127 217.931762 
L 404.574167 222.193701 
L 407.980247 237.674177 
L 409.683287 241.615169 
L 411.386327 239.184403 
L 414.792407 224.55841 
L 416.495447 221.681677 
L 418.198487 224.861025 
L 419.901528 231.599074 
L 421.604568 237.466867 
L 423.307608 239.326373 
L 425.010648 237.306555 
L 426.713688 234.295838 
L 428.416728 233.515144 
L 430.119768 236.049578 
L 431.822808 240.226007 
L 433.525848 243.002962 
L 435.228888 242.597962 
L 436.931928 239.978871 
L 438.634968 238.405975 
L 440.338008 241.20244 
L 442.041048 249.260855 
L 443.744088 260.199589 
L 445.447129 269.50101 
L 447.150169 273.246872 
L 448.853209 270.604096 
L 450.556249 264.376078 
L 452.259289 259.445089 
L 453.962329 259.783378 
L 455.665369 265.986321 
L 457.368409 274.99713 
L 459.071449 282.212545 
L 460.774489 284.663735 
L 462.477529 282.981552 
L 464.180569 280.762317 
L 465.883609 281.853971 
L 467.586649 287.252711 
L 469.289689 293.958898 
L 470.99273 296.773792 
L 472.69577 291.707329 
L 474.39881 278.852604 
L 476.10185 262.854168 
L 477.80489 250.507036 
L 479.50793 247.239617 
L 481.21097 254.609083 
L 482.91401 269.934411 
L 484.61705 287.893838 
L 486.32009 303.00571 
L 488.02313 311.461135 
L 489.72617 311.939643 
L 491.42921 305.543069 
L 494.83529 284.71585 
L 496.538331 277.687321 
L 498.241371 275.945953 
L 499.944411 278.885712 
L 501.647451 283.859754 
L 503.350491 287.746779 
L 505.053531 288.793417 
L 506.756571 287.439558 
L 508.459611 285.518456 
L 510.162651 284.47397 
L 511.865691 283.945928 
L 513.568731 281.930207 
L 515.271771 276.603743 
L 518.677851 260.164322 
L 520.380891 256.206538 
L 522.083932 258.846817 
L 523.786972 266.828993 
L 525.490012 275.665517 
L 527.193052 280.429454 
L 528.896092 278.904898 
L 530.599132 273.012353 
L 532.302172 267.540633 
L 534.005212 266.828719 
L 535.708252 271.915886 
L 537.411292 279.765928 
L 539.114332 285.241542 
L 540.817372 284.534025 
L 542.520412 277.673844 
L 544.223452 268.683871 
L 545.926492 263.131553 
L 547.629533 264.866744 
L 549.332573 273.624825 
L 551.035613 285.140594 
L 552.738653 293.567814 
L 554.441693 294.562779 
L 556.144733 287.593082 
L 559.550813 265.091665 
L 561.253853 258.87676 
L 561.253853 258.87676 
" style="fill: none; stroke: #ff7f0e; stroke-width: 1.5; stroke-linecap: square"/>
   </g>
  </g>
  <g id="axes_2">
   <g id="PathCollection_1">
    <defs>
     <path id="C0_0_2945991820" d="M 0 1.118034 
C 0.296506 1.118034 0.580908 1.000231 0.790569 0.790569 
C 1.000231 0.580908 1.118034 0.296506 1.118034 -0 
C 1.118034 -0.296506 1.000231 -0.580908 0.790569 -0.790569 
C 0.580908 -1.000231 0.296506 -1.118034 0 -1.118034 
C -0.296506 -1.118034 -0.580908 -1.000231 -0.790569 -0.790569 
C -1.000231 -0.580908 -1.118034 -0.296506 -1.118034 0 
C -1.118034 0.296506 -1.000231 0.580908 -0.790569 0.790569 
C -0.580908 1.000231 -0.296506 1.118034 0 1.118034 
z
"/>
    </defs>
    <g clip-path="url(#pebdb9865b7)">
     <use xlink:href="#C0_0_2945991820" x="508.857445" y="99.041609" style="stroke: #000000"/>
    </g>
    <g clip-path="url(#pebdb9865b7)">
     <use xlink:href="#C0_0_2945991820" x="518.167044" y="98.866156" style="stroke: #000000"/>
    </g>
   </g>
   <g id="matplotlib.axis_3"/>
   <g id="matplotlib.axis_4"/>
   <g id="line2d_21">
    <path d="M 548.859194 73.63672 
L 548.781507 71.164689 
L 548.548754 68.702415 
L 548.161852 66.259613 
L 547.622329 63.845926 
L 546.932314 61.470879 
L 546.09453 59.143845 
L 545.112284 56.874007 
L 543.989451 54.670325 
L 542.730464 52.541494 
L 541.340291 50.495916 
L 539.824418 48.541664 
L 538.188828 46.686451 
L 536.439975 44.937599 
L 534.584762 43.302008 
L 532.630511 41.786136 
L 530.584933 40.395962 
L 528.456102 39.136975 
L 526.252419 38.014143 
L 523.982582 37.031896 
L 521.655547 36.194112 
L 519.2805 35.504097 
L 516.866813 34.964574 
L 514.424012 34.577673 
L 511.961737 34.344919 
L 509.489707 34.267233 
L 507.017676 34.344919 
L 504.555402 34.577673 
L 502.1126 34.964574 
L 499.698913 35.504097 
L 497.323866 36.194112 
L 494.996832 37.031896 
L 492.726994 38.014143 
L 490.523312 39.136975 
L 488.394481 40.395962 
L 486.348903 41.786136 
L 484.394651 43.302008 
L 482.539438 44.937599 
L 480.790586 46.686451 
L 479.154995 48.541664 
L 477.639123 50.495916 
L 476.248949 52.541494 
L 474.989962 54.670325 
L 473.86713 56.874007 
L 472.884883 59.143845 
L 472.047099 61.470879 
L 471.357084 63.845926 
L 470.817561 66.259613 
L 470.43066 68.702415 
L 470.197906 71.164689 
L 470.12022 73.63672 
L 470.197906 76.10875 
L 470.43066 78.571025 
L 470.817561 81.013826 
L 471.357084 83.427513 
L 472.047099 85.80256 
L 472.884883 88.129595 
L 473.86713 90.399432 
L 474.989962 92.603115 
L 476.248949 94.731946 
L 477.639123 96.777524 
L 479.154995 98.731775 
L 480.790586 100.586988 
L 482.539438 102.335841 
L 484.394651 103.971431 
L 486.348903 105.487304 
L 488.394481 106.877477 
L 490.523312 108.136464 
L 492.726994 109.259297 
L 494.996832 110.241543 
L 497.323866 111.079327 
L 499.698913 111.769342 
L 502.1126 112.308865 
L 504.555402 112.695767 
L 507.017676 112.92852 
L 509.489707 113.006207 
L 511.961737 112.92852 
L 514.424012 112.695767 
L 516.866813 112.308865 
L 519.2805 111.769342 
L 521.655547 111.079327 
L 523.982582 110.241543 
L 526.252419 109.259297 
L 528.456102 108.136464 
L 530.584933 106.877477 
L 532.630511 105.487304 
L 534.584762 103.971431 
L 536.439975 102.335841 
L 538.188828 100.586988 
L 539.824418 98.731775 
L 541.340291 96.777524 
L 542.730464 94.731946 
L 543.989451 92.603115 
L 545.112284 90.399432 
L 546.09453 88.129595 
L 546.932314 85.80256 
L 547.622329 83.427513 
L 548.161852 81.013826 
L 548.548754 78.571025 
L 548.781507 76.10875 
L 548.859194 73.63672 
" style="fill: none; stroke: #000000; stroke-linecap: square"/>
   </g>
   <g id="line2d_22">
    <path d="M 501.244181 35.140385 
L 509.489707 28.361809 
L 517.735233 35.140385 
" style="fill: none; stroke: #000000; stroke-linecap: square"/>
   </g>
   <g id="line2d_23">
    <path d="M 470.356436 69.266707 
L 469.33283 67.534449 
L 468.702918 67.471458 
L 467.765924 67.762792 
L 466.821057 69.266707 
L 466.970661 74.069784 
L 466.419488 80.975192 
L 467.600572 83.975147 
L 469.33283 84.534194 
L 470.986348 83.077523 
" style="fill: none; stroke: #000000; stroke-linecap: square"/>
   </g>
   <g id="line2d_24">
    <path d="M 548.622977 69.266707 
L 549.646584 67.534449 
L 550.276495 67.471458 
L 551.213489 67.762792 
L 552.158357 69.266707 
L 552.008753 74.069784 
L 552.559926 80.975192 
L 551.378841 83.975147 
L 549.646584 84.534194 
L 547.993065 83.077523 
" style="fill: none; stroke: #000000; stroke-linecap: square"/>
   </g>
  </g>
 </g>
 <defs>
  <clipPath id="pc5c1b4ea7e">
   <rect x="38.420552" y="18.118365" width="523.446395" height="380.525145"/>
  </clipPath>
  <clipPath id="pebdb9865b7">
   <rect x="462.112466" y="24.12959" width="94.754482" height="93.108837"/>
  </clipPath>
 </defs>
</svg>
