<?xml version="1.0" encoding="utf-8" standalone="no"?>
<!DOCTYPE svg PUBLIC "-//W3C//DTD SVG 1.1//EN"
  "http://www.w3.org/Graphics/SVG/1.1/DTD/svg11.dtd">
<svg xmlns:xlink="http://www.w3.org/1999/xlink" width="576pt" height="432pt" viewBox="0 0 576 432" xmlns="http://www.w3.org/2000/svg" version="1.1">
 <metadata>
  <rdf:RDF xmlns:dc="http://purl.org/dc/elements/1.1/" xmlns:cc="http://creativecommons.org/ns#" xmlns:rdf="http://www.w3.org/1999/02/22-rdf-syntax-ns#">
   <cc:Work>
    <dc:type rdf:resource="http://purl.org/dc/dcmitype/StillImage"/>
    <dc:date>2025-02-12T21:12:11.276998</dc:date>
    <dc:format>image/svg+xml</dc:format>
    <dc:creator>
     <cc:Agent>
      <dc:title>Matplotlib v3.10.0, https://matplotlib.org/</dc:title>
     </cc:Agent>
    </dc:creator>
   </cc:Work>
  </rdf:RDF>
 </metadata>
 <defs>
  <style type="text/css">*{stroke-linejoin: round; stroke-linecap: butt}</style>
 </defs>
 <g id="figure_1">
  <g id="patch_1">
   <path d="M 0 432 
L 576 432 
L 576 0 
L 0 0 
z
" style="fill: #ffffff"/>
  </g>
  <g id="axes_1">
   <g id="patch_2">
    <path d="M 44.783053 398.64351 
L 572.99976 398.64351 
L 572.99976 18.118365 
L 44.783053 18.118365 
L 44.783053 398.64351 
z
" style="fill: none; opacity: 0"/>
   </g>
   <g id="patch_3">
    <path d="M 44.783053 375.383006 
L 44.783053 41.378869 
" style="fill: none; stroke: #000000; stroke-width: 0.8; stroke-linejoin: miter; stroke-linecap: square"/>
   </g>
   <g id="LineCollection_1">
    <path d="M 379.194125 18.118365 
L 379.194125 398.64351 
" clip-path="url(#padbd2241e2)" style="fill: none; stroke-dasharray: 3.7,1.6; stroke-dashoffset: 0; stroke: #000000"/>
    <path d="M 489.310963 18.118365 
L 489.310963 398.64351 
" clip-path="url(#padbd2241e2)" style="fill: none; stroke-dasharray: 3.7,1.6; stroke-dashoffset: 0; stroke: #000000"/>
   </g>
   <g id="matplotlib.axis_1">
    <g id="xtick_1">
     <g id="line2d_1">
      <defs>
       <path id="me6671d5f6a" d="M 0 0 
L 0 3.5 
" style="stroke: #000000; stroke-width: 0.8"/>
      </defs>
      <g>
       <use xlink:href="#me6671d5f6a" x="70.866979" y="398.64351" style="stroke: #000000; stroke-width: 0.8"/>
      </g>
     </g>
     <g id="text_1">
      <!-- −0.20 -->
      <g transform="translate(55.544322 413.241947) scale(0.1 -0.1)">
       <defs>
        <path id="DejaVuSans-2212" d="M 678 2272 
L 4684 2272 
L 4684 1741 
L 678 1741 
L 678 2272 
z
" transform="scale(0.015625)"/>
        <path id="DejaVuSans-30" d="M 2034 4250 
Q 1547 4250 1301 3770 
Q 1056 3291 1056 2328 
Q 1056 1369 1301 889 
Q 1547 409 2034 409 
Q 2525 409 2770 889 
Q 3016 1369 3016 2328 
Q 3016 3291 2770 3770 
Q 2525 4250 2034 4250 
z
M 2034 4750 
Q 2819 4750 3233 4129 
Q 3647 3509 3647 2328 
Q 3647 1150 3233 529 
Q 2819 -91 2034 -91 
Q 1250 -91 836 529 
Q 422 1150 422 2328 
Q 422 3509 836 4129 
Q 1250 4750 2034 4750 
z
" transform="scale(0.015625)"/>
        <path id="DejaVuSans-2e" d="M 684 794 
L 1344 794 
L 1344 0 
L 684 0 
L 684 794 
z
" transform="scale(0.015625)"/>
        <path id="DejaVuSans-32" d="M 1228 531 
L 3431 531 
L 3431 0 
L 469 0 
L 469 531 
Q 828 903 1448 1529 
Q 2069 2156 2228 2338 
Q 2531 2678 2651 2914 
Q 2772 3150 2772 3378 
Q 2772 3750 2511 3984 
Q 2250 4219 1831 4219 
Q 1534 4219 1204 4116 
Q 875 4013 500 3803 
L 500 4441 
Q 881 4594 1212 4672 
Q 1544 4750 1819 4750 
Q 2544 4750 2975 4387 
Q 3406 4025 3406 3419 
Q 3406 3131 3298 2873 
Q 3191 2616 2906 2266 
Q 2828 2175 2409 1742 
Q 1991 1309 1228 531 
z
" transform="scale(0.015625)"/>
       </defs>
       <use xlink:href="#DejaVuSans-2212"/>
       <use xlink:href="#DejaVuSans-30" transform="translate(83.789062 0)"/>
       <use xlink:href="#DejaVuSans-2e" transform="translate(147.412109 0)"/>
       <use xlink:href="#DejaVuSans-32" transform="translate(179.199219 0)"/>
       <use xlink:href="#DejaVuSans-30" transform="translate(242.822266 0)"/>
      </g>
     </g>
    </g>
    <g id="xtick_2">
     <g id="line2d_2">
      <g>
       <use xlink:href="#me6671d5f6a" x="158.960449" y="398.64351" style="stroke: #000000; stroke-width: 0.8"/>
      </g>
     </g>
     <g id="text_2">
      <!-- 0.00 -->
      <g transform="translate(147.827636 413.241947) scale(0.1 -0.1)">
       <use xlink:href="#DejaVuSans-30"/>
       <use xlink:href="#DejaVuSans-2e" transform="translate(63.623047 0)"/>
       <use xlink:href="#DejaVuSans-30" transform="translate(95.410156 0)"/>
       <use xlink:href="#DejaVuSans-30" transform="translate(159.033203 0)"/>
      </g>
     </g>
    </g>
    <g id="xtick_3">
     <g id="line2d_3">
      <g>
       <use xlink:href="#me6671d5f6a" x="247.053919" y="398.64351" style="stroke: #000000; stroke-width: 0.8"/>
      </g>
     </g>
     <g id="text_3">
      <!-- 0.20 -->
      <g transform="translate(235.921107 413.241947) scale(0.1 -0.1)">
       <use xlink:href="#DejaVuSans-30"/>
       <use xlink:href="#DejaVuSans-2e" transform="translate(63.623047 0)"/>
       <use xlink:href="#DejaVuSans-32" transform="translate(95.410156 0)"/>
       <use xlink:href="#DejaVuSans-30" transform="translate(159.033203 0)"/>
      </g>
     </g>
    </g>
    <g id="xtick_4">
     <g id="line2d_4">
      <g>
       <use xlink:href="#me6671d5f6a" x="335.14739" y="398.64351" style="stroke: #000000; stroke-width: 0.8"/>
      </g>
     </g>
     <g id="text_4">
      <!-- 0.40 -->
      <g transform="translate(324.014577 413.241947) scale(0.1 -0.1)">
       <defs>
        <path id="DejaVuSans-34" d="M 2419 4116 
L 825 1625 
L 2419 1625 
L 2419 4116 
z
M 2253 4666 
L 3047 4666 
L 3047 1625 
L 3713 1625 
L 3713 1100 
L 3047 1100 
L 3047 0 
L 2419 0 
L 2419 1100 
L 313 1100 
L 313 1709 
L 2253 4666 
z
" transform="scale(0.015625)"/>
       </defs>
       <use xlink:href="#DejaVuSans-30"/>
       <use xlink:href="#DejaVuSans-2e" transform="translate(63.623047 0)"/>
       <use xlink:href="#DejaVuSans-34" transform="translate(95.410156 0)"/>
       <use xlink:href="#DejaVuSans-30" transform="translate(159.033203 0)"/>
      </g>
     </g>
    </g>
    <g id="xtick_5">
     <g id="line2d_5">
      <g>
       <use xlink:href="#me6671d5f6a" x="379.194125" y="398.64351" style="stroke: #000000; stroke-width: 0.8"/>
      </g>
     </g>
     <g id="text_5">
      <!-- 0.50 -->
      <g transform="translate(368.061313 413.241947) scale(0.1 -0.1)">
       <defs>
        <path id="DejaVuSans-35" d="M 691 4666 
L 3169 4666 
L 3169 4134 
L 1269 4134 
L 1269 2991 
Q 1406 3038 1543 3061 
Q 1681 3084 1819 3084 
Q 2600 3084 3056 2656 
Q 3513 2228 3513 1497 
Q 3513 744 3044 326 
Q 2575 -91 1722 -91 
Q 1428 -91 1123 -41 
Q 819 9 494 109 
L 494 744 
Q 775 591 1075 516 
Q 1375 441 1709 441 
Q 2250 441 2565 725 
Q 2881 1009 2881 1497 
Q 2881 1984 2565 2268 
Q 2250 2553 1709 2553 
Q 1456 2553 1204 2497 
Q 953 2441 691 2322 
L 691 4666 
z
" transform="scale(0.015625)"/>
       </defs>
       <use xlink:href="#DejaVuSans-30"/>
       <use xlink:href="#DejaVuSans-2e" transform="translate(63.623047 0)"/>
       <use xlink:href="#DejaVuSans-35" transform="translate(95.410156 0)"/>
       <use xlink:href="#DejaVuSans-30" transform="translate(159.033203 0)"/>
      </g>
     </g>
    </g>
    <g id="xtick_6">
     <g id="line2d_6">
      <g>
       <use xlink:href="#me6671d5f6a" x="423.24086" y="398.64351" style="stroke: #000000; stroke-width: 0.8"/>
      </g>
     </g>
     <g id="text_6">
      <!-- 0.60 -->
      <g transform="translate(412.108048 413.241947) scale(0.1 -0.1)">
       <defs>
        <path id="DejaVuSans-36" d="M 2113 2584 
Q 1688 2584 1439 2293 
Q 1191 2003 1191 1497 
Q 1191 994 1439 701 
Q 1688 409 2113 409 
Q 2538 409 2786 701 
Q 3034 994 3034 1497 
Q 3034 2003 2786 2293 
Q 2538 2584 2113 2584 
z
M 3366 4563 
L 3366 3988 
Q 3128 4100 2886 4159 
Q 2644 4219 2406 4219 
Q 1781 4219 1451 3797 
Q 1122 3375 1075 2522 
Q 1259 2794 1537 2939 
Q 1816 3084 2150 3084 
Q 2853 3084 3261 2657 
Q 3669 2231 3669 1497 
Q 3669 778 3244 343 
Q 2819 -91 2113 -91 
Q 1303 -91 875 529 
Q 447 1150 447 2328 
Q 447 3434 972 4092 
Q 1497 4750 2381 4750 
Q 2619 4750 2861 4703 
Q 3103 4656 3366 4563 
z
" transform="scale(0.015625)"/>
       </defs>
       <use xlink:href="#DejaVuSans-30"/>
       <use xlink:href="#DejaVuSans-2e" transform="translate(63.623047 0)"/>
       <use xlink:href="#DejaVuSans-36" transform="translate(95.410156 0)"/>
       <use xlink:href="#DejaVuSans-30" transform="translate(159.033203 0)"/>
      </g>
     </g>
    </g>
    <g id="xtick_7">
     <g id="line2d_7">
      <g>
       <use xlink:href="#me6671d5f6a" x="489.310963" y="398.64351" style="stroke: #000000; stroke-width: 0.8"/>
      </g>
     </g>
     <g id="text_7">
      <!-- 0.75 -->
      <g transform="translate(478.178151 413.241947) scale(0.1 -0.1)">
       <defs>
        <path id="DejaVuSans-37" d="M 525 4666 
L 3525 4666 
L 3525 4397 
L 1831 0 
L 1172 0 
L 2766 4134 
L 525 4134 
L 525 4666 
z
" transform="scale(0.015625)"/>
       </defs>
       <use xlink:href="#DejaVuSans-30"/>
       <use xlink:href="#DejaVuSans-2e" transform="translate(63.623047 0)"/>
       <use xlink:href="#DejaVuSans-37" transform="translate(95.410156 0)"/>
       <use xlink:href="#DejaVuSans-35" transform="translate(159.033203 0)"/>
      </g>
     </g>
    </g>
    <g id="xtick_8">
     <g id="line2d_8">
      <g>
       <use xlink:href="#me6671d5f6a" x="511.334331" y="398.64351" style="stroke: #000000; stroke-width: 0.8"/>
      </g>
     </g>
     <g id="text_8">
      <!-- 0.80 -->
      <g transform="translate(500.201518 413.241947) scale(0.1 -0.1)">
       <defs>
        <path id="DejaVuSans-38" d="M 2034 2216 
Q 1584 2216 1326 1975 
Q 1069 1734 1069 1313 
Q 1069 891 1326 650 
Q 1584 409 2034 409 
Q 2484 409 2743 651 
Q 3003 894 3003 1313 
Q 3003 1734 2745 1975 
Q 2488 2216 2034 2216 
z
M 1403 2484 
Q 997 2584 770 2862 
Q 544 3141 544 3541 
Q 544 4100 942 4425 
Q 1341 4750 2034 4750 
Q 2731 4750 3128 4425 
Q 3525 4100 3525 3541 
Q 3525 3141 3298 2862 
Q 3072 2584 2669 2484 
Q 3125 2378 3379 2068 
Q 3634 1759 3634 1313 
Q 3634 634 3220 271 
Q 2806 -91 2034 -91 
Q 1263 -91 848 271 
Q 434 634 434 1313 
Q 434 1759 690 2068 
Q 947 2378 1403 2484 
z
M 1172 3481 
Q 1172 3119 1398 2916 
Q 1625 2713 2034 2713 
Q 2441 2713 2670 2916 
Q 2900 3119 2900 3481 
Q 2900 3844 2670 4047 
Q 2441 4250 2034 4250 
Q 1625 4250 1398 4047 
Q 1172 3844 1172 3481 
z
" transform="scale(0.015625)"/>
       </defs>
       <use xlink:href="#DejaVuSans-30"/>
       <use xlink:href="#DejaVuSans-2e" transform="translate(63.623047 0)"/>
       <use xlink:href="#DejaVuSans-38" transform="translate(95.410156 0)"/>
       <use xlink:href="#DejaVuSans-30" transform="translate(159.033203 0)"/>
      </g>
     </g>
    </g>
    <g id="text_9">
     <!-- Time (s) -->
     <g transform="translate(288.5625 426.920073) scale(0.1 -0.1)">
      <defs>
       <path id="DejaVuSans-54" d="M -19 4666 
L 3928 4666 
L 3928 4134 
L 2272 4134 
L 2272 0 
L 1638 0 
L 1638 4134 
L -19 4134 
L -19 4666 
z
" transform="scale(0.015625)"/>
       <path id="DejaVuSans-69" d="M 603 3500 
L 1178 3500 
L 1178 0 
L 603 0 
L 603 3500 
z
M 603 4863 
L 1178 4863 
L 1178 4134 
L 603 4134 
L 603 4863 
z
" transform="scale(0.015625)"/>
       <path id="DejaVuSans-6d" d="M 3328 2828 
Q 3544 3216 3844 3400 
Q 4144 3584 4550 3584 
Q 5097 3584 5394 3201 
Q 5691 2819 5691 2113 
L 5691 0 
L 5113 0 
L 5113 2094 
Q 5113 2597 4934 2840 
Q 4756 3084 4391 3084 
Q 3944 3084 3684 2787 
Q 3425 2491 3425 1978 
L 3425 0 
L 2847 0 
L 2847 2094 
Q 2847 2600 2669 2842 
Q 2491 3084 2119 3084 
Q 1678 3084 1418 2786 
Q 1159 2488 1159 1978 
L 1159 0 
L 581 0 
L 581 3500 
L 1159 3500 
L 1159 2956 
Q 1356 3278 1631 3431 
Q 1906 3584 2284 3584 
Q 2666 3584 2933 3390 
Q 3200 3197 3328 2828 
z
" transform="scale(0.015625)"/>
       <path id="DejaVuSans-65" d="M 3597 1894 
L 3597 1613 
L 953 1613 
Q 991 1019 1311 708 
Q 1631 397 2203 397 
Q 2534 397 2845 478 
Q 3156 559 3463 722 
L 3463 178 
Q 3153 47 2828 -22 
Q 2503 -91 2169 -91 
Q 1331 -91 842 396 
Q 353 884 353 1716 
Q 353 2575 817 3079 
Q 1281 3584 2069 3584 
Q 2775 3584 3186 3129 
Q 3597 2675 3597 1894 
z
M 3022 2063 
Q 3016 2534 2758 2815 
Q 2500 3097 2075 3097 
Q 1594 3097 1305 2825 
Q 1016 2553 972 2059 
L 3022 2063 
z
" transform="scale(0.015625)"/>
       <path id="DejaVuSans-20" transform="scale(0.015625)"/>
       <path id="DejaVuSans-28" d="M 1984 4856 
Q 1566 4138 1362 3434 
Q 1159 2731 1159 2009 
Q 1159 1288 1364 580 
Q 1569 -128 1984 -844 
L 1484 -844 
Q 1016 -109 783 600 
Q 550 1309 550 2009 
Q 550 2706 781 3412 
Q 1013 4119 1484 4856 
L 1984 4856 
z
" transform="scale(0.015625)"/>
       <path id="DejaVuSans-73" d="M 2834 3397 
L 2834 2853 
Q 2591 2978 2328 3040 
Q 2066 3103 1784 3103 
Q 1356 3103 1142 2972 
Q 928 2841 928 2578 
Q 928 2378 1081 2264 
Q 1234 2150 1697 2047 
L 1894 2003 
Q 2506 1872 2764 1633 
Q 3022 1394 3022 966 
Q 3022 478 2636 193 
Q 2250 -91 1575 -91 
Q 1294 -91 989 -36 
Q 684 19 347 128 
L 347 722 
Q 666 556 975 473 
Q 1284 391 1588 391 
Q 1994 391 2212 530 
Q 2431 669 2431 922 
Q 2431 1156 2273 1281 
Q 2116 1406 1581 1522 
L 1381 1569 
Q 847 1681 609 1914 
Q 372 2147 372 2553 
Q 372 3047 722 3315 
Q 1072 3584 1716 3584 
Q 2034 3584 2315 3537 
Q 2597 3491 2834 3397 
z
" transform="scale(0.015625)"/>
       <path id="DejaVuSans-29" d="M 513 4856 
L 1013 4856 
Q 1481 4119 1714 3412 
Q 1947 2706 1947 2009 
Q 1947 1309 1714 600 
Q 1481 -109 1013 -844 
L 513 -844 
Q 928 -128 1133 580 
Q 1338 1288 1338 2009 
Q 1338 2731 1133 3434 
Q 928 4138 513 4856 
z
" transform="scale(0.015625)"/>
      </defs>
      <use xlink:href="#DejaVuSans-54"/>
      <use xlink:href="#DejaVuSans-69" transform="translate(57.958984 0)"/>
      <use xlink:href="#DejaVuSans-6d" transform="translate(85.742188 0)"/>
      <use xlink:href="#DejaVuSans-65" transform="translate(183.154297 0)"/>
      <use xlink:href="#DejaVuSans-20" transform="translate(244.677734 0)"/>
      <use xlink:href="#DejaVuSans-28" transform="translate(276.464844 0)"/>
      <use xlink:href="#DejaVuSans-73" transform="translate(315.478516 0)"/>
      <use xlink:href="#DejaVuSans-29" transform="translate(367.578125 0)"/>
     </g>
    </g>
   </g>
   <g id="matplotlib.axis_2">
    <g id="ytick_1">
     <g id="line2d_9">
      <defs>
       <path id="mbe9c81460c" d="M 0 0 
L -3.5 0 
" style="stroke: #000000; stroke-width: 0.8"/>
      </defs>
      <g>
       <use xlink:href="#mbe9c81460c" x="44.783053" y="375.383006" style="stroke: #000000; stroke-width: 0.8"/>
      </g>
     </g>
     <g id="text_10">
      <!-- −10 -->
      <g transform="translate(16.678365 379.182225) scale(0.1 -0.1)">
       <defs>
        <path id="DejaVuSans-31" d="M 794 531 
L 1825 531 
L 1825 4091 
L 703 3866 
L 703 4441 
L 1819 4666 
L 2450 4666 
L 2450 531 
L 3481 531 
L 3481 0 
L 794 0 
L 794 531 
z
" transform="scale(0.015625)"/>
       </defs>
       <use xlink:href="#DejaVuSans-2212"/>
       <use xlink:href="#DejaVuSans-31" transform="translate(83.789062 0)"/>
       <use xlink:href="#DejaVuSans-30" transform="translate(147.412109 0)"/>
      </g>
     </g>
    </g>
    <g id="ytick_2">
     <g id="line2d_10">
      <g>
       <use xlink:href="#mbe9c81460c" x="44.783053" y="291.881972" style="stroke: #000000; stroke-width: 0.8"/>
      </g>
     </g>
     <g id="text_11">
      <!-- −5 -->
      <g transform="translate(23.040865 295.681191) scale(0.1 -0.1)">
       <use xlink:href="#DejaVuSans-2212"/>
       <use xlink:href="#DejaVuSans-35" transform="translate(83.789062 0)"/>
      </g>
     </g>
    </g>
    <g id="ytick_3">
     <g id="line2d_11">
      <g>
       <use xlink:href="#mbe9c81460c" x="44.783053" y="208.380937" style="stroke: #000000; stroke-width: 0.8"/>
      </g>
     </g>
     <g id="text_12">
      <!-- 0 -->
      <g transform="translate(31.420553 212.180156) scale(0.1 -0.1)">
       <use xlink:href="#DejaVuSans-30"/>
      </g>
     </g>
    </g>
    <g id="ytick_4">
     <g id="line2d_12">
      <g>
       <use xlink:href="#mbe9c81460c" x="44.783053" y="124.879903" style="stroke: #000000; stroke-width: 0.8"/>
      </g>
     </g>
     <g id="text_13">
      <!-- 5 -->
      <g transform="translate(31.420553 128.679122) scale(0.1 -0.1)">
       <use xlink:href="#DejaVuSans-35"/>
      </g>
     </g>
    </g>
    <g id="ytick_5">
     <g id="line2d_13">
      <g>
       <use xlink:href="#mbe9c81460c" x="44.783053" y="41.378869" style="stroke: #000000; stroke-width: 0.8"/>
      </g>
     </g>
     <g id="text_14">
      <!-- 10 -->
      <g transform="translate(25.058053 45.178087) scale(0.1 -0.1)">
       <use xlink:href="#DejaVuSans-31"/>
       <use xlink:href="#DejaVuSans-30" transform="translate(63.623047 0)"/>
      </g>
     </g>
    </g>
    <g id="text_15">
     <!-- µV -->
     <g transform="translate(10.598678 214.9825) rotate(-90) scale(0.1 -0.1)">
      <defs>
       <path id="DejaVuSans-b5" d="M 544 -1331 
L 544 3500 
L 1119 3500 
L 1119 1325 
Q 1119 872 1334 640 
Q 1550 409 1972 409 
Q 2434 409 2667 671 
Q 2900 934 2900 1459 
L 2900 3500 
L 3475 3500 
L 3475 806 
Q 3475 619 3529 530 
Q 3584 441 3700 441 
Q 3728 441 3778 458 
Q 3828 475 3916 513 
L 3916 50 
Q 3788 -22 3673 -56 
Q 3559 -91 3450 -91 
Q 3234 -91 3106 31 
Q 2978 153 2931 403 
Q 2775 156 2548 32 
Q 2322 -91 2016 -91 
Q 1697 -91 1473 31 
Q 1250 153 1119 397 
L 1119 -1331 
L 544 -1331 
z
" transform="scale(0.015625)"/>
       <path id="DejaVuSans-56" d="M 1831 0 
L 50 4666 
L 709 4666 
L 2188 738 
L 3669 4666 
L 4325 4666 
L 2547 0 
L 1831 0 
z
" transform="scale(0.015625)"/>
      </defs>
      <use xlink:href="#DejaVuSans-b5"/>
      <use xlink:href="#DejaVuSans-56" transform="translate(63.623047 0)"/>
     </g>
    </g>
   </g>
   <g id="patch_4">
    <path d="M 70.866979 398.64351 
L 511.334331 398.64351 
" style="fill: none; stroke: #000000; stroke-width: 0.8; stroke-linejoin: miter; stroke-linecap: square"/>
   </g>
   <g id="patch_5">
    <path d="M 44.783053 208.380937 
L 572.99976 208.380937 
" style="fill: none; stroke: #000000; stroke-width: 0.8; stroke-linejoin: miter; stroke-linecap: square"/>
   </g>
   <g id="text_16">
    <!-- mno P600: P3, Pz, P4 (mean) -->
    <g transform="translate(221.798594 12.118365) scale(0.12 -0.12)">
     <defs>
      <path id="DejaVuSans-6e" d="M 3513 2113 
L 3513 0 
L 2938 0 
L 2938 2094 
Q 2938 2591 2744 2837 
Q 2550 3084 2163 3084 
Q 1697 3084 1428 2787 
Q 1159 2491 1159 1978 
L 1159 0 
L 581 0 
L 581 3500 
L 1159 3500 
L 1159 2956 
Q 1366 3272 1645 3428 
Q 1925 3584 2291 3584 
Q 2894 3584 3203 3211 
Q 3513 2838 3513 2113 
z
" transform="scale(0.015625)"/>
      <path id="DejaVuSans-6f" d="M 1959 3097 
Q 1497 3097 1228 2736 
Q 959 2375 959 1747 
Q 959 1119 1226 758 
Q 1494 397 1959 397 
Q 2419 397 2687 759 
Q 2956 1122 2956 1747 
Q 2956 2369 2687 2733 
Q 2419 3097 1959 3097 
z
M 1959 3584 
Q 2709 3584 3137 3096 
Q 3566 2609 3566 1747 
Q 3566 888 3137 398 
Q 2709 -91 1959 -91 
Q 1206 -91 779 398 
Q 353 888 353 1747 
Q 353 2609 779 3096 
Q 1206 3584 1959 3584 
z
" transform="scale(0.015625)"/>
      <path id="DejaVuSans-50" d="M 1259 4147 
L 1259 2394 
L 2053 2394 
Q 2494 2394 2734 2622 
Q 2975 2850 2975 3272 
Q 2975 3691 2734 3919 
Q 2494 4147 2053 4147 
L 1259 4147 
z
M 628 4666 
L 2053 4666 
Q 2838 4666 3239 4311 
Q 3641 3956 3641 3272 
Q 3641 2581 3239 2228 
Q 2838 1875 2053 1875 
L 1259 1875 
L 1259 0 
L 628 0 
L 628 4666 
z
" transform="scale(0.015625)"/>
      <path id="DejaVuSans-3a" d="M 750 794 
L 1409 794 
L 1409 0 
L 750 0 
L 750 794 
z
M 750 3309 
L 1409 3309 
L 1409 2516 
L 750 2516 
L 750 3309 
z
" transform="scale(0.015625)"/>
      <path id="DejaVuSans-33" d="M 2597 2516 
Q 3050 2419 3304 2112 
Q 3559 1806 3559 1356 
Q 3559 666 3084 287 
Q 2609 -91 1734 -91 
Q 1441 -91 1130 -33 
Q 819 25 488 141 
L 488 750 
Q 750 597 1062 519 
Q 1375 441 1716 441 
Q 2309 441 2620 675 
Q 2931 909 2931 1356 
Q 2931 1769 2642 2001 
Q 2353 2234 1838 2234 
L 1294 2234 
L 1294 2753 
L 1863 2753 
Q 2328 2753 2575 2939 
Q 2822 3125 2822 3475 
Q 2822 3834 2567 4026 
Q 2313 4219 1838 4219 
Q 1578 4219 1281 4162 
Q 984 4106 628 3988 
L 628 4550 
Q 988 4650 1302 4700 
Q 1616 4750 1894 4750 
Q 2613 4750 3031 4423 
Q 3450 4097 3450 3541 
Q 3450 3153 3228 2886 
Q 3006 2619 2597 2516 
z
" transform="scale(0.015625)"/>
      <path id="DejaVuSans-2c" d="M 750 794 
L 1409 794 
L 1409 256 
L 897 -744 
L 494 -744 
L 750 256 
L 750 794 
z
" transform="scale(0.015625)"/>
      <path id="DejaVuSans-7a" d="M 353 3500 
L 3084 3500 
L 3084 2975 
L 922 459 
L 3084 459 
L 3084 0 
L 275 0 
L 275 525 
L 2438 3041 
L 353 3041 
L 353 3500 
z
" transform="scale(0.015625)"/>
      <path id="DejaVuSans-61" d="M 2194 1759 
Q 1497 1759 1228 1600 
Q 959 1441 959 1056 
Q 959 750 1161 570 
Q 1363 391 1709 391 
Q 2188 391 2477 730 
Q 2766 1069 2766 1631 
L 2766 1759 
L 2194 1759 
z
M 3341 1997 
L 3341 0 
L 2766 0 
L 2766 531 
Q 2569 213 2275 61 
Q 1981 -91 1556 -91 
Q 1019 -91 701 211 
Q 384 513 384 1019 
Q 384 1609 779 1909 
Q 1175 2209 1959 2209 
L 2766 2209 
L 2766 2266 
Q 2766 2663 2505 2880 
Q 2244 3097 1772 3097 
Q 1472 3097 1187 3025 
Q 903 2953 641 2809 
L 641 3341 
Q 956 3463 1253 3523 
Q 1550 3584 1831 3584 
Q 2591 3584 2966 3190 
Q 3341 2797 3341 1997 
z
" transform="scale(0.015625)"/>
     </defs>
     <use xlink:href="#DejaVuSans-6d"/>
     <use xlink:href="#DejaVuSans-6e" transform="translate(97.412109 0)"/>
     <use xlink:href="#DejaVuSans-6f" transform="translate(160.791016 0)"/>
     <use xlink:href="#DejaVuSans-20" transform="translate(221.972656 0)"/>
     <use xlink:href="#DejaVuSans-50" transform="translate(253.759766 0)"/>
     <use xlink:href="#DejaVuSans-36" transform="translate(314.0625 0)"/>
     <use xlink:href="#DejaVuSans-30" transform="translate(377.685547 0)"/>
     <use xlink:href="#DejaVuSans-30" transform="translate(441.308594 0)"/>
     <use xlink:href="#DejaVuSans-3a" transform="translate(504.931641 0)"/>
     <use xlink:href="#DejaVuSans-20" transform="translate(538.623047 0)"/>
     <use xlink:href="#DejaVuSans-50" transform="translate(570.410156 0)"/>
     <use xlink:href="#DejaVuSans-33" transform="translate(630.712891 0)"/>
     <use xlink:href="#DejaVuSans-2c" transform="translate(694.335938 0)"/>
     <use xlink:href="#DejaVuSans-20" transform="translate(726.123047 0)"/>
     <use xlink:href="#DejaVuSans-50" transform="translate(757.910156 0)"/>
     <use xlink:href="#DejaVuSans-7a" transform="translate(818.212891 0)"/>
     <use xlink:href="#DejaVuSans-2c" transform="translate(870.703125 0)"/>
     <use xlink:href="#DejaVuSans-20" transform="translate(902.490234 0)"/>
     <use xlink:href="#DejaVuSans-50" transform="translate(934.277344 0)"/>
     <use xlink:href="#DejaVuSans-34" transform="translate(994.580078 0)"/>
     <use xlink:href="#DejaVuSans-20" transform="translate(1058.203125 0)"/>
     <use xlink:href="#DejaVuSans-28" transform="translate(1089.990234 0)"/>
     <use xlink:href="#DejaVuSans-6d" transform="translate(1129.003906 0)"/>
     <use xlink:href="#DejaVuSans-65" transform="translate(1226.416016 0)"/>
     <use xlink:href="#DejaVuSans-61" transform="translate(1287.939453 0)"/>
     <use xlink:href="#DejaVuSans-6e" transform="translate(1349.21875 0)"/>
     <use xlink:href="#DejaVuSans-29" transform="translate(1412.597656 0)"/>
    </g>
   </g>
   <g id="legend_1">
    <g id="patch_6">
     <path d="M 51.783053 55.75274 
L 132.92524 55.75274 
Q 134.92524 55.75274 134.92524 53.75274 
L 134.92524 25.118365 
Q 134.92524 23.118365 132.92524 23.118365 
L 51.783053 23.118365 
Q 49.783053 23.118365 49.783053 25.118365 
L 49.783053 53.75274 
Q 49.783053 55.75274 51.783053 55.75274 
z
" style="fill: #ffffff; opacity: 0.8; stroke: #cccccc; stroke-linejoin: miter"/>
    </g>
    <g id="line2d_14">
     <path d="M 53.783053 31.216803 
L 63.783053 31.216803 
L 73.783052 31.216803 
" style="fill: none; stroke: #1f77b4; stroke-width: 1.5; stroke-linecap: square"/>
    </g>
    <g id="text_17">
     <!-- eerie -->
     <g transform="translate(81.783052 34.716803) scale(0.1 -0.1)">
      <defs>
       <path id="DejaVuSans-72" d="M 2631 2963 
Q 2534 3019 2420 3045 
Q 2306 3072 2169 3072 
Q 1681 3072 1420 2755 
Q 1159 2438 1159 1844 
L 1159 0 
L 581 0 
L 581 3500 
L 1159 3500 
L 1159 2956 
Q 1341 3275 1631 3429 
Q 1922 3584 2338 3584 
Q 2397 3584 2469 3576 
Q 2541 3569 2628 3553 
L 2631 2963 
z
" transform="scale(0.015625)"/>
      </defs>
      <use xlink:href="#DejaVuSans-65"/>
      <use xlink:href="#DejaVuSans-65" transform="translate(61.523438 0)"/>
      <use xlink:href="#DejaVuSans-72" transform="translate(123.046875 0)"/>
      <use xlink:href="#DejaVuSans-69" transform="translate(164.160156 0)"/>
      <use xlink:href="#DejaVuSans-65" transform="translate(191.943359 0)"/>
     </g>
    </g>
    <g id="line2d_15">
     <path d="M 53.783053 45.894928 
L 63.783053 45.894928 
L 73.783052 45.894928 
" style="fill: none; stroke: #ff7f0e; stroke-width: 1.5; stroke-linecap: square"/>
    </g>
    <g id="text_18">
     <!-- non_eerie -->
     <g transform="translate(81.783052 49.394928) scale(0.1 -0.1)">
      <defs>
       <path id="DejaVuSans-5f" d="M 3263 -1063 
L 3263 -1509 
L -63 -1509 
L -63 -1063 
L 3263 -1063 
z
" transform="scale(0.015625)"/>
      </defs>
      <use xlink:href="#DejaVuSans-6e"/>
      <use xlink:href="#DejaVuSans-6f" transform="translate(63.378906 0)"/>
      <use xlink:href="#DejaVuSans-6e" transform="translate(124.560547 0)"/>
      <use xlink:href="#DejaVuSans-5f" transform="translate(187.939453 0)"/>
      <use xlink:href="#DejaVuSans-65" transform="translate(237.939453 0)"/>
      <use xlink:href="#DejaVuSans-65" transform="translate(299.462891 0)"/>
      <use xlink:href="#DejaVuSans-72" transform="translate(360.986328 0)"/>
      <use xlink:href="#DejaVuSans-69" transform="translate(402.099609 0)"/>
      <use xlink:href="#DejaVuSans-65" transform="translate(429.882812 0)"/>
     </g>
    </g>
   </g>
   <g id="line2d_16">
    <path d="M 44.783053 199.572555 
L 46.503628 198.300764 
L 48.224204 196.665439 
L 49.944779 195.220692 
L 51.665355 194.324132 
L 53.38593 194.071849 
L 55.106506 194.362846 
L 56.827082 195.009565 
L 58.547657 195.854724 
L 60.268233 196.866837 
L 65.42996 200.347634 
L 67.150535 200.573468 
L 68.871111 199.609653 
L 70.591686 197.573909 
L 72.312262 195.298146 
L 74.032838 193.961469 
L 75.753413 194.432312 
L 77.473989 196.671965 
L 79.194564 199.650985 
L 80.91514 201.976188 
L 82.635716 202.731945 
L 84.356291 202.101132 
L 86.076867 201.214934 
L 87.797442 201.367908 
L 89.518018 203.19493 
L 91.238594 206.302843 
L 92.959169 209.653568 
L 94.679745 212.281275 
L 96.40032 213.911469 
L 99.841472 215.992093 
L 101.562047 217.194501 
L 103.282623 218.112887 
L 105.003198 218.045564 
L 106.723774 216.670823 
L 108.444349 214.491171 
L 110.164925 212.692197 
L 111.885501 212.474593 
L 113.606076 214.3061 
L 117.047227 220.762356 
L 118.767803 222.68694 
L 120.488379 222.957957 
L 122.208954 222.468511 
L 123.92953 222.762421 
L 125.650105 225.014368 
L 127.370681 229.149373 
L 129.091257 233.716063 
L 130.811832 236.684242 
L 132.532408 236.638401 
L 134.252983 233.644077 
L 135.973559 229.145699 
L 137.694135 225.045139 
L 139.41471 222.585932 
L 141.135286 221.759425 
L 142.855861 221.660179 
L 144.576437 221.353331 
L 148.017588 219.938819 
L 149.738164 219.830137 
L 151.458739 220.164326 
L 153.179315 220.052672 
L 154.899891 218.512875 
L 156.620466 215.321954 
L 158.341042 211.397903 
L 160.061617 208.334548 
L 161.782193 207.354481 
L 163.502769 208.560369 
L 166.94392 213.12918 
L 168.664495 214.350392 
L 170.385071 214.726518 
L 172.105646 214.942485 
L 173.826222 215.527894 
L 177.267373 217.422159 
L 180.708524 219.093503 
L 182.4291 220.599634 
L 184.149676 222.873377 
L 185.870251 225.346634 
L 187.590827 226.952964 
L 189.311402 226.82629 
L 191.031978 224.820426 
L 192.752554 221.49197 
L 194.473129 217.489948 
L 196.193705 212.925351 
L 197.91428 207.353298 
L 199.634856 200.424935 
L 201.355432 192.771684 
L 203.076007 186.192 
L 204.796583 182.87659 
L 206.517158 184.003991 
L 208.237734 188.700242 
L 209.95831 194.153915 
L 211.678885 196.963234 
L 213.399461 194.913864 
L 215.120036 188.049856 
L 218.561188 168.791393 
L 220.281763 160.962624 
L 222.002339 155.238545 
L 223.722914 150.766551 
L 227.164066 142.801231 
L 228.884641 139.866494 
L 230.605217 138.525994 
L 234.046368 138.70842 
L 235.766943 137.233214 
L 237.487519 133.071434 
L 239.208095 126.534239 
L 240.92867 119.08546 
L 242.649246 112.377512 
L 244.369821 107.167975 
L 247.810973 98.660876 
L 251.252124 88.151486 
L 252.972699 83.969118 
L 254.693275 82.422629 
L 256.413851 83.679987 
L 258.134426 86.330639 
L 259.855002 88.180737 
L 261.575577 87.643747 
L 263.296153 84.834551 
L 265.016729 81.552827 
L 266.737304 80.123018 
L 268.45788 81.96522 
L 270.178455 86.792971 
L 273.619607 98.846073 
L 275.340182 103.450406 
L 278.781333 110.897116 
L 282.222485 119.707824 
L 283.94306 123.429157 
L 285.663636 125.368148 
L 287.384211 125.179692 
L 289.104787 123.288888 
L 292.545938 117.500832 
L 295.987089 111.960089 
L 299.42824 107.111029 
L 302.869392 102.97824 
L 308.031118 97.091671 
L 309.751694 94.928127 
L 311.47227 92.478977 
L 313.192845 89.580532 
L 318.354572 79.570674 
L 320.075148 77.224414 
L 321.795723 75.694638 
L 325.236874 73.286222 
L 328.678026 70.348993 
L 330.398601 69.568988 
L 332.119177 69.536439 
L 333.839752 69.681246 
L 335.560328 69.051231 
L 337.280904 67.064349 
L 340.722055 61.313841 
L 342.44263 59.843621 
L 344.163206 59.8913 
L 345.883782 60.518304 
L 347.604357 60.299709 
L 349.324933 58.346399 
L 351.045508 54.927854 
L 352.766084 51.160711 
L 354.48666 48.09062 
L 356.207235 45.931099 
L 357.927811 44.067082 
L 359.648386 41.832306 
L 361.368962 39.273049 
L 363.089537 37.258215 
L 364.810113 36.707503 
L 366.530689 37.623255 
L 368.251264 38.777089 
L 369.97184 38.364865 
L 371.692415 35.253528 
L 373.412991 29.828305 
L 375.133567 23.878443 
L 376.854142 19.553574 
L 378.574718 18.118365 
L 380.295293 19.407195 
L 383.736445 25.018136 
L 385.45702 27.217351 
L 387.177596 28.796861 
L 390.618747 31.663844 
L 392.339323 33.171834 
L 394.059898 34.415929 
L 395.780474 35.185096 
L 400.942201 36.299718 
L 402.662776 37.35053 
L 404.383352 39.049589 
L 409.545079 45.573968 
L 411.265654 46.617299 
L 412.98623 46.617756 
L 416.427381 45.195312 
L 418.147956 44.993325 
L 421.589108 45.736739 
L 423.309683 45.547192 
L 425.030259 44.615709 
L 426.750834 43.52918 
L 428.47141 43.244682 
L 430.191986 44.41078 
L 433.633137 49.310646 
L 435.353712 50.861218 
L 437.074288 51.05514 
L 438.794864 50.609564 
L 440.515439 50.859403 
L 442.236015 52.800412 
L 443.95659 56.329542 
L 445.677166 60.247769 
L 447.397742 63.004199 
L 449.118317 63.632714 
L 450.838893 62.340349 
L 452.559468 60.293411 
L 454.280044 58.925151 
L 456.00062 59.2049 
L 457.721195 61.282896 
L 459.441771 64.607416 
L 461.162346 68.294941 
L 462.882922 71.51558 
L 464.603498 73.719156 
L 466.324073 74.749597 
L 468.044649 74.888857 
L 469.765224 74.775442 
L 471.4858 75.166968 
L 473.206376 76.549684 
L 474.926951 78.851096 
L 476.647527 81.528374 
L 478.368102 83.995722 
L 480.088678 86.177457 
L 481.809253 88.671549 
L 483.529829 92.380812 
L 485.250405 97.78784 
L 488.691556 111.045417 
L 490.412131 116.374841 
L 492.132707 120.016092 
L 493.853283 122.756877 
L 495.573858 126.018822 
L 497.294434 130.825949 
L 500.735585 143.186724 
L 502.456161 147.882065 
L 504.176736 150.325265 
L 507.617887 151.805978 
L 509.338463 153.884347 
L 511.059039 157.833072 
L 512.779614 162.848262 
L 514.50019 167.36037 
L 516.220765 169.94667 
L 517.941341 170.113973 
L 519.661917 168.49147 
L 521.382492 166.480519 
L 523.103068 165.548827 
L 524.823643 166.595118 
L 526.544219 169.678249 
L 528.264795 174.105844 
L 529.98537 178.89647 
L 531.705946 183.242502 
L 533.426521 186.8252 
L 536.867673 192.598302 
L 538.588248 195.515058 
L 545.47055 207.953349 
L 547.191126 209.951787 
L 548.911702 210.468962 
L 550.632277 208.93445 
L 552.352853 205.347269 
L 554.073428 200.710933 
L 555.794004 196.936905 
L 557.51458 196.039577 
L 559.235155 199.026561 
L 560.955731 205.128676 
L 562.676306 212.070189 
L 564.396882 217.35373 
L 566.117458 219.71404 
L 567.838033 219.83221 
L 569.558609 219.745208 
L 571.279184 221.366965 
L 572.99976 225.093592 
L 572.99976 225.093592 
" style="fill: none; stroke: #1f77b4; stroke-width: 1.5; stroke-linecap: square"/>
   </g>
   <g id="line2d_17">
    <path d="M 44.783053 202.414122 
L 46.503628 207.512773 
L 48.224204 210.946258 
L 49.944779 211.472637 
L 51.665355 209.293379 
L 53.38593 205.943385 
L 55.106506 203.366201 
L 56.827082 202.828945 
L 58.547657 204.356385 
L 60.268233 206.92135 
L 61.988808 209.205227 
L 63.709384 210.367831 
L 65.42996 210.381053 
L 70.591686 208.433383 
L 72.312262 207.656014 
L 74.032838 206.439505 
L 77.473989 203.234448 
L 79.194564 202.362463 
L 80.91514 202.62511 
L 82.635716 203.928186 
L 86.076867 207.367863 
L 87.797442 208.592649 
L 89.518018 209.598683 
L 91.238594 210.810655 
L 94.679745 214.101872 
L 96.40032 215.204714 
L 98.120896 215.16732 
L 99.841472 213.972647 
L 103.282623 210.515652 
L 105.003198 209.53668 
L 106.723774 209.225901 
L 110.164925 209.104663 
L 111.885501 208.671878 
L 113.606076 207.871956 
L 115.326652 206.688826 
L 117.047227 205.116715 
L 118.767803 203.361678 
L 120.488379 202.061321 
L 122.208954 202.142826 
L 123.92953 204.278721 
L 125.650105 208.245343 
L 127.370681 212.757803 
L 129.091257 216.054905 
L 130.811832 216.94555 
L 132.532408 215.571538 
L 134.252983 213.348018 
L 135.973559 212.038361 
L 137.694135 212.638297 
L 139.41471 214.919661 
L 141.135286 217.847132 
L 142.855861 220.486581 
L 144.576437 222.616513 
L 148.017588 226.482733 
L 149.738164 227.843446 
L 151.458739 227.607378 
L 153.179315 225.047861 
L 154.899891 220.515471 
L 156.620466 215.467492 
L 158.341042 211.685659 
L 160.061617 210.246408 
L 161.782193 211.019261 
L 163.502769 213.03915 
L 168.664495 220.116058 
L 172.105646 225.630812 
L 173.826222 227.41463 
L 175.546798 227.623884 
L 177.267373 226.419131 
L 178.987949 224.744849 
L 180.708524 223.690945 
L 182.4291 223.694613 
L 184.149676 224.224427 
L 185.870251 224.227143 
L 187.590827 222.908769 
L 189.311402 220.239057 
L 191.031978 216.753875 
L 192.752554 212.918954 
L 194.473129 208.626778 
L 196.193705 203.322321 
L 197.91428 196.731056 
L 199.634856 189.537829 
L 201.355432 183.456216 
L 203.076007 180.46485 
L 204.796583 181.662912 
L 206.517158 186.522348 
L 208.237734 192.995652 
L 209.95831 198.480418 
L 211.678885 200.969687 
L 213.399461 199.722202 
L 215.120036 195.190187 
L 216.840612 188.406973 
L 218.561188 180.359503 
L 222.002339 163.131214 
L 223.722914 155.161045 
L 225.44349 148.639538 
L 227.164066 144.26874 
L 228.884641 142.278515 
L 230.605217 142.281607 
L 232.325792 143.417044 
L 234.046368 144.689419 
L 235.766943 145.202132 
L 237.487519 144.209083 
L 239.208095 141.104724 
L 240.92867 135.49075 
L 242.649246 127.425956 
L 246.090397 107.628342 
L 247.810973 98.907935 
L 249.531548 92.623086 
L 251.252124 88.936572 
L 252.972699 87.108359 
L 254.693275 86.084833 
L 256.413851 85.199524 
L 258.134426 84.485566 
L 259.855002 84.417732 
L 261.575577 85.332399 
L 263.296153 87.079776 
L 266.737304 91.235909 
L 268.45788 93.543264 
L 270.178455 96.78529 
L 271.899031 101.566485 
L 275.340182 114.207376 
L 277.060758 119.60612 
L 278.781333 123.03317 
L 280.501909 124.701318 
L 282.222485 125.761696 
L 283.94306 127.504274 
L 285.663636 130.450746 
L 287.384211 133.970698 
L 289.104787 136.693441 
L 290.825363 137.335251 
L 292.545938 135.40382 
L 294.266514 131.27926 
L 295.987089 125.77362 
L 299.42824 113.102287 
L 302.869392 100.403682 
L 304.589967 95.537533 
L 306.310543 92.753692 
L 308.031118 92.243178 
L 311.47227 94.296351 
L 313.192845 94.082948 
L 314.913421 92.15317 
L 318.354572 86.290746 
L 320.075148 84.510256 
L 321.795723 83.796929 
L 323.516299 83.277425 
L 325.236874 81.888247 
L 326.95745 79.173242 
L 330.398601 72.267302 
L 332.119177 70.125309 
L 333.839752 69.445327 
L 337.280904 70.031597 
L 339.001479 69.72256 
L 340.722055 68.624878 
L 344.163206 65.293467 
L 347.604357 61.940903 
L 349.324933 59.970309 
L 351.045508 57.534064 
L 352.766084 54.619747 
L 357.927811 45.177491 
L 359.648386 42.549801 
L 364.810113 35.567635 
L 369.97184 27.371443 
L 371.692415 25.278767 
L 373.412991 23.716489 
L 376.854142 20.954792 
L 378.574718 19.545852 
L 380.295293 18.757733 
L 382.015869 19.340571 
L 383.736445 21.556808 
L 385.45702 24.751308 
L 387.177596 27.551795 
L 388.898171 28.72062 
L 390.618747 28.040795 
L 392.339323 26.631154 
L 394.059898 26.302028 
L 395.780474 28.36946 
L 397.501049 32.756915 
L 399.221625 38.043112 
L 400.942201 42.469846 
L 402.662776 45.139082 
L 406.103927 48.089744 
L 407.824503 50.863047 
L 411.265654 58.842707 
L 412.98623 61.506281 
L 414.706805 62.269143 
L 418.147956 61.327945 
L 419.868532 61.929322 
L 421.589108 63.662554 
L 423.309683 65.864655 
L 425.030259 67.866607 
L 426.750834 69.623783 
L 428.47141 71.652885 
L 430.191986 74.397221 
L 431.912561 77.577179 
L 433.633137 80.16125 
L 435.353712 81.074798 
L 437.074288 80.127519 
L 438.794864 78.439176 
L 440.515439 77.876043 
L 442.236015 79.879881 
L 443.95659 84.447441 
L 445.677166 90.02056 
L 447.397742 94.383779 
L 449.118317 95.984549 
L 450.838893 94.879164 
L 452.559468 92.678782 
L 454.280044 91.593943 
L 456.00062 93.197424 
L 457.721195 97.634623 
L 461.162346 109.398833 
L 462.882922 113.18881 
L 464.603498 114.341528 
L 466.324073 113.223868 
L 468.044649 110.976438 
L 469.765224 108.96156 
L 471.4858 108.297224 
L 473.206376 109.517384 
L 474.926951 112.46688 
L 478.368102 120.468038 
L 480.088678 123.76336 
L 481.809253 126.027483 
L 485.250405 129.098894 
L 486.97098 131.313672 
L 488.691556 134.497403 
L 492.132707 142.077047 
L 493.853283 145.063891 
L 495.573858 147.087057 
L 497.294434 148.599504 
L 499.015009 150.457393 
L 500.735585 153.404631 
L 502.456161 157.574163 
L 504.176736 162.318113 
L 505.897312 166.503802 
L 507.617887 169.128394 
L 509.338463 169.860152 
L 511.059039 169.199881 
L 512.779614 168.214005 
L 514.50019 167.967036 
L 516.220765 169.043833 
L 517.941341 171.395094 
L 519.661917 174.544207 
L 523.103068 181.271969 
L 524.823643 184.281758 
L 526.544219 186.890239 
L 528.264795 189.051726 
L 531.705946 192.765163 
L 533.426521 195.219874 
L 535.147097 198.64845 
L 538.588248 207.384926 
L 540.308824 210.961962 
L 542.029399 212.919472 
L 543.749975 213.22984 
L 545.47055 212.639781 
L 547.191126 212.209472 
L 548.911702 212.656069 
L 550.632277 213.999795 
L 552.352853 215.680702 
L 554.073428 217.041427 
L 555.794004 217.758463 
L 557.51458 217.934811 
L 560.955731 217.753963 
L 562.676306 217.543732 
L 566.117458 216.901732 
L 567.838033 217.080499 
L 569.558609 218.085689 
L 571.279184 219.850459 
L 572.99976 221.809364 
L 572.99976 221.809364 
" style="fill: none; stroke: #ff7f0e; stroke-width: 1.5; stroke-linecap: square"/>
   </g>
  </g>
  <g id="axes_2">
   <g id="PathCollection_1">
    <defs>
     <path id="C0_0_cc26c841c3" d="M 0 1.118034 
C 0.296506 1.118034 0.580908 1.000231 0.790569 0.790569 
C 1.000231 0.580908 1.118034 0.296506 1.118034 -0 
C 1.118034 -0.296506 1.000231 -0.580908 0.790569 -0.790569 
C 0.580908 -1.000231 0.296506 -1.118034 0 -1.118034 
C -0.296506 -1.118034 -0.580908 -1.000231 -0.790569 -0.790569 
C -1.000231 -0.580908 -1.118034 -0.296506 -1.118034 0 
C -1.118034 0.296506 -1.000231 0.580908 -0.790569 0.790569 
C -0.580908 1.000231 -0.296506 1.118034 0 1.118034 
z
"/>
    </defs>
    <g clip-path="url(#p567b3f6095)">
     <use xlink:href="#C0_0_cc26c841c3" x="505.144531" y="86.069843" style="stroke: #000000"/>
    </g>
    <g clip-path="url(#p567b3f6095)">
     <use xlink:href="#C0_0_cc26c841c3" x="535.67649" y="86.079817" style="stroke: #000000"/>
    </g>
    <g clip-path="url(#p567b3f6095)">
     <use xlink:href="#C0_0_cc26c841c3" x="520.16282" y="85.802188" style="stroke: #000000"/>
    </g>
   </g>
   <g id="matplotlib.axis_3"/>
   <g id="matplotlib.axis_4"/>
   <g id="line2d_18">
    <path d="M 559.992051 73.636703 
L 559.914365 71.164686 
L 559.681612 68.702426 
L 559.294713 66.259638 
L 558.755193 63.845964 
L 558.065182 61.47093 
L 557.227403 59.143909 
L 556.245162 56.874084 
L 555.122335 54.670414 
L 553.863355 52.541595 
L 552.47319 50.496028 
L 550.957325 48.541787 
L 549.321744 46.686585 
L 547.572901 44.937742 
L 545.717699 43.302161 
L 543.763458 41.786296 
L 541.717892 40.396131 
L 539.589072 39.137151 
L 537.385402 38.014325 
L 535.115577 37.032084 
L 532.788556 36.194304 
L 530.413522 35.504293 
L 527.999848 34.964773 
L 525.557061 34.577874 
L 523.0948 34.345122 
L 520.622783 34.267435 
L 518.150766 34.345122 
L 515.688505 34.577874 
L 513.245718 34.964773 
L 510.832044 35.504293 
L 508.45701 36.194304 
L 506.129989 37.032084 
L 503.860164 38.014325 
L 501.656494 39.137151 
L 499.527674 40.396131 
L 497.482108 41.786296 
L 495.527867 43.302161 
L 493.672665 44.937742 
L 491.923822 46.686585 
L 490.288241 48.541787 
L 488.772376 50.496028 
L 487.382211 52.541595 
L 486.123231 54.670414 
L 485.000404 56.874084 
L 484.018163 59.143909 
L 483.180384 61.47093 
L 482.490373 63.845964 
L 481.950853 66.259638 
L 481.563954 68.702426 
L 481.331201 71.164686 
L 481.253515 73.636703 
L 481.331201 76.10872 
L 481.563954 78.570981 
L 481.950853 81.013768 
L 482.490373 83.427442 
L 483.180384 85.802476 
L 484.018163 88.129497 
L 485.000404 90.399322 
L 486.123231 92.602993 
L 487.382211 94.731812 
L 488.772376 96.777378 
L 490.288241 98.731619 
L 491.923822 100.586822 
L 493.672665 102.335664 
L 495.527867 103.971245 
L 497.482108 105.48711 
L 499.527674 106.877275 
L 501.656494 108.136256 
L 503.860164 109.259082 
L 506.129989 110.241323 
L 508.45701 111.079102 
L 510.832044 111.769113 
L 513.245718 112.308633 
L 515.688505 112.695533 
L 518.150766 112.928285 
L 520.622783 113.005971 
L 523.0948 112.928285 
L 525.557061 112.695533 
L 527.999848 112.308633 
L 530.413522 111.769113 
L 532.788556 111.079102 
L 535.115577 110.241323 
L 537.385402 109.259082 
L 539.589072 108.136256 
L 541.717892 106.877275 
L 543.763458 105.48711 
L 545.717699 103.971245 
L 547.572901 102.335664 
L 549.321744 100.586822 
L 550.957325 98.731619 
L 552.47319 96.777378 
L 553.863355 94.731812 
L 555.122335 92.602993 
L 556.245162 90.399322 
L 557.227403 88.129497 
L 558.065182 85.802476 
L 558.755193 83.427442 
L 559.294713 81.013768 
L 559.681612 78.570981 
L 559.914365 76.10872 
L 559.992051 73.636703 
" style="fill: none; stroke: #000000; stroke-linecap: square"/>
   </g>
   <g id="line2d_19">
    <path d="M 512.377303 35.140582 
L 520.622783 28.362045 
L 528.868263 35.140582 
" style="fill: none; stroke: #000000; stroke-linecap: square"/>
   </g>
   <g id="line2d_20">
    <path d="M 481.489731 69.266714 
L 480.46613 67.534467 
L 479.836221 67.471476 
L 478.899233 67.762808 
L 477.95437 69.266714 
L 478.103974 74.069765 
L 477.552804 80.975135 
L 478.733882 83.975073 
L 480.46613 84.534117 
L 482.119639 83.077454 
" style="fill: none; stroke: #000000; stroke-linecap: square"/>
   </g>
   <g id="line2d_21">
    <path d="M 559.755835 69.266714 
L 560.779436 67.534467 
L 561.409345 67.471476 
L 562.346333 67.762808 
L 563.291196 69.266714 
L 563.141592 74.069765 
L 563.692762 80.975135 
L 562.511684 83.975073 
L 560.779436 84.534117 
L 559.125927 83.077454 
" style="fill: none; stroke: #000000; stroke-linecap: square"/>
   </g>
  </g>
 </g>
 <defs>
  <clipPath id="padbd2241e2">
   <rect x="44.783053" y="18.118365" width="528.216707" height="380.525145"/>
  </clipPath>
  <clipPath id="p567b3f6095">
   <rect x="473.245806" y="24.129849" width="94.753954" height="93.108319"/>
  </clipPath>
 </defs>
</svg>
