<?xml version="1.0" encoding="utf-8" standalone="no"?>
<!DOCTYPE svg PUBLIC "-//W3C//DTD SVG 1.1//EN"
  "http://www.w3.org/Graphics/SVG/1.1/DTD/svg11.dtd">
<svg xmlns:xlink="http://www.w3.org/1999/xlink" width="576pt" height="432pt" viewBox="0 0 576 432" xmlns="http://www.w3.org/2000/svg" version="1.1">
 <metadata>
  <rdf:RDF xmlns:dc="http://purl.org/dc/elements/1.1/" xmlns:cc="http://creativecommons.org/ns#" xmlns:rdf="http://www.w3.org/1999/02/22-rdf-syntax-ns#">
   <cc:Work>
    <dc:type rdf:resource="http://purl.org/dc/dcmitype/StillImage"/>
    <dc:date>2025-02-17T18:07:19.049007</dc:date>
    <dc:format>image/svg+xml</dc:format>
    <dc:creator>
     <cc:Agent>
      <dc:title>Matplotlib v3.10.0, https://matplotlib.org/</dc:title>
     </cc:Agent>
    </dc:creator>
   </cc:Work>
  </rdf:RDF>
 </metadata>
 <defs>
  <style type="text/css">*{stroke-linejoin: round; stroke-linecap: butt}</style>
 </defs>
 <g id="figure_1">
  <g id="patch_1">
   <path d="M 0 432 
L 576 432 
L 576 0 
L 0 0 
z
" style="fill: #ffffff"/>
  </g>
  <g id="axes_1">
   <g id="patch_2">
    <path d="M 38.420552 398.64351 
L 561.866948 398.64351 
L 561.866948 18.118365 
L 38.420552 18.118365 
L 38.420552 398.64351 
z
" style="fill: none; opacity: 0"/>
   </g>
   <g id="patch_3">
    <path d="M 38.420552 392.508317 
L 38.420552 24.253558 
" style="fill: none; stroke: #000000; stroke-width: 0.8; stroke-linejoin: miter; stroke-linecap: square"/>
   </g>
   <g id="LineCollection_1">
    <path d="M 156.407168 18.118365 
L 156.407168 398.64351 
" clip-path="url(#p105bb0b327)" style="fill: none; stroke-dasharray: 3.7,1.6; stroke-dashoffset: 0; stroke: #000000"/>
    <path d="M 182.565864 18.118365 
L 182.565864 398.64351 
" clip-path="url(#p105bb0b327)" style="fill: none; stroke-dasharray: 3.7,1.6; stroke-dashoffset: 0; stroke: #000000"/>
   </g>
   <g id="matplotlib.axis_1">
    <g id="xtick_1">
     <g id="line2d_1">
      <defs>
       <path id="m2983684b6a" d="M 0 0 
L 0 3.5 
" style="stroke: #000000; stroke-width: 0.8"/>
      </defs>
      <g>
       <use xlink:href="#m2983684b6a" x="38.693039" y="398.64351" style="stroke: #000000; stroke-width: 0.8"/>
      </g>
     </g>
     <g id="text_1">
      <!-- −0.20 -->
      <g transform="translate(23.370383 413.241947) scale(0.1 -0.1)">
       <defs>
        <path id="DejaVuSans-2212" d="M 678 2272 
L 4684 2272 
L 4684 1741 
L 678 1741 
L 678 2272 
z
" transform="scale(0.015625)"/>
        <path id="DejaVuSans-30" d="M 2034 4250 
Q 1547 4250 1301 3770 
Q 1056 3291 1056 2328 
Q 1056 1369 1301 889 
Q 1547 409 2034 409 
Q 2525 409 2770 889 
Q 3016 1369 3016 2328 
Q 3016 3291 2770 3770 
Q 2525 4250 2034 4250 
z
M 2034 4750 
Q 2819 4750 3233 4129 
Q 3647 3509 3647 2328 
Q 3647 1150 3233 529 
Q 2819 -91 2034 -91 
Q 1250 -91 836 529 
Q 422 1150 422 2328 
Q 422 3509 836 4129 
Q 1250 4750 2034 4750 
z
" transform="scale(0.015625)"/>
        <path id="DejaVuSans-2e" d="M 684 794 
L 1344 794 
L 1344 0 
L 684 0 
L 684 794 
z
" transform="scale(0.015625)"/>
        <path id="DejaVuSans-32" d="M 1228 531 
L 3431 531 
L 3431 0 
L 469 0 
L 469 531 
Q 828 903 1448 1529 
Q 2069 2156 2228 2338 
Q 2531 2678 2651 2914 
Q 2772 3150 2772 3378 
Q 2772 3750 2511 3984 
Q 2250 4219 1831 4219 
Q 1534 4219 1204 4116 
Q 875 4013 500 3803 
L 500 4441 
Q 881 4594 1212 4672 
Q 1544 4750 1819 4750 
Q 2544 4750 2975 4387 
Q 3406 4025 3406 3419 
Q 3406 3131 3298 2873 
Q 3191 2616 2906 2266 
Q 2828 2175 2409 1742 
Q 1991 1309 1228 531 
z
" transform="scale(0.015625)"/>
       </defs>
       <use xlink:href="#DejaVuSans-2212"/>
       <use xlink:href="#DejaVuSans-30" transform="translate(83.789062 0)"/>
       <use xlink:href="#DejaVuSans-2e" transform="translate(147.412109 0)"/>
       <use xlink:href="#DejaVuSans-32" transform="translate(179.199219 0)"/>
       <use xlink:href="#DejaVuSans-30" transform="translate(242.822266 0)"/>
      </g>
     </g>
    </g>
    <g id="xtick_2">
     <g id="line2d_2">
      <g>
       <use xlink:href="#m2983684b6a" x="125.88869" y="398.64351" style="stroke: #000000; stroke-width: 0.8"/>
      </g>
     </g>
     <g id="text_2">
      <!-- 0.00 -->
      <g transform="translate(114.755878 413.241947) scale(0.1 -0.1)">
       <use xlink:href="#DejaVuSans-30"/>
       <use xlink:href="#DejaVuSans-2e" transform="translate(63.623047 0)"/>
       <use xlink:href="#DejaVuSans-30" transform="translate(95.410156 0)"/>
       <use xlink:href="#DejaVuSans-30" transform="translate(159.033203 0)"/>
      </g>
     </g>
    </g>
    <g id="xtick_3">
     <g id="line2d_3">
      <g>
       <use xlink:href="#m2983684b6a" x="156.407168" y="398.64351" style="stroke: #000000; stroke-width: 0.8"/>
      </g>
     </g>
     <g id="text_3">
      <!-- 0.07 -->
      <g transform="translate(145.274356 413.241947) scale(0.1 -0.1)">
       <defs>
        <path id="DejaVuSans-37" d="M 525 4666 
L 3525 4666 
L 3525 4397 
L 1831 0 
L 1172 0 
L 2766 4134 
L 525 4134 
L 525 4666 
z
" transform="scale(0.015625)"/>
       </defs>
       <use xlink:href="#DejaVuSans-30"/>
       <use xlink:href="#DejaVuSans-2e" transform="translate(63.623047 0)"/>
       <use xlink:href="#DejaVuSans-30" transform="translate(95.410156 0)"/>
       <use xlink:href="#DejaVuSans-37" transform="translate(159.033203 0)"/>
      </g>
     </g>
    </g>
    <g id="xtick_4">
     <g id="line2d_4">
      <g>
       <use xlink:href="#m2983684b6a" x="182.565864" y="398.64351" style="stroke: #000000; stroke-width: 0.8"/>
      </g>
     </g>
     <g id="text_4">
      <!-- 0.13 -->
      <g transform="translate(171.433051 413.241947) scale(0.1 -0.1)">
       <defs>
        <path id="DejaVuSans-31" d="M 794 531 
L 1825 531 
L 1825 4091 
L 703 3866 
L 703 4441 
L 1819 4666 
L 2450 4666 
L 2450 531 
L 3481 531 
L 3481 0 
L 794 0 
L 794 531 
z
" transform="scale(0.015625)"/>
        <path id="DejaVuSans-33" d="M 2597 2516 
Q 3050 2419 3304 2112 
Q 3559 1806 3559 1356 
Q 3559 666 3084 287 
Q 2609 -91 1734 -91 
Q 1441 -91 1130 -33 
Q 819 25 488 141 
L 488 750 
Q 750 597 1062 519 
Q 1375 441 1716 441 
Q 2309 441 2620 675 
Q 2931 909 2931 1356 
Q 2931 1769 2642 2001 
Q 2353 2234 1838 2234 
L 1294 2234 
L 1294 2753 
L 1863 2753 
Q 2328 2753 2575 2939 
Q 2822 3125 2822 3475 
Q 2822 3834 2567 4026 
Q 2313 4219 1838 4219 
Q 1578 4219 1281 4162 
Q 984 4106 628 3988 
L 628 4550 
Q 988 4650 1302 4700 
Q 1616 4750 1894 4750 
Q 2613 4750 3031 4423 
Q 3450 4097 3450 3541 
Q 3450 3153 3228 2886 
Q 3006 2619 2597 2516 
z
" transform="scale(0.015625)"/>
       </defs>
       <use xlink:href="#DejaVuSans-30"/>
       <use xlink:href="#DejaVuSans-2e" transform="translate(63.623047 0)"/>
       <use xlink:href="#DejaVuSans-31" transform="translate(95.410156 0)"/>
       <use xlink:href="#DejaVuSans-33" transform="translate(159.033203 0)"/>
      </g>
     </g>
    </g>
    <g id="xtick_5">
     <g id="line2d_5">
      <g>
       <use xlink:href="#m2983684b6a" x="213.084342" y="398.64351" style="stroke: #000000; stroke-width: 0.8"/>
      </g>
     </g>
     <g id="text_5">
      <!-- 0.20 -->
      <g transform="translate(201.951529 413.241947) scale(0.1 -0.1)">
       <use xlink:href="#DejaVuSans-30"/>
       <use xlink:href="#DejaVuSans-2e" transform="translate(63.623047 0)"/>
       <use xlink:href="#DejaVuSans-32" transform="translate(95.410156 0)"/>
       <use xlink:href="#DejaVuSans-30" transform="translate(159.033203 0)"/>
      </g>
     </g>
    </g>
    <g id="xtick_6">
     <g id="line2d_6">
      <g>
       <use xlink:href="#m2983684b6a" x="300.279993" y="398.64351" style="stroke: #000000; stroke-width: 0.8"/>
      </g>
     </g>
     <g id="text_6">
      <!-- 0.40 -->
      <g transform="translate(289.147181 413.241947) scale(0.1 -0.1)">
       <defs>
        <path id="DejaVuSans-34" d="M 2419 4116 
L 825 1625 
L 2419 1625 
L 2419 4116 
z
M 2253 4666 
L 3047 4666 
L 3047 1625 
L 3713 1625 
L 3713 1100 
L 3047 1100 
L 3047 0 
L 2419 0 
L 2419 1100 
L 313 1100 
L 313 1709 
L 2253 4666 
z
" transform="scale(0.015625)"/>
       </defs>
       <use xlink:href="#DejaVuSans-30"/>
       <use xlink:href="#DejaVuSans-2e" transform="translate(63.623047 0)"/>
       <use xlink:href="#DejaVuSans-34" transform="translate(95.410156 0)"/>
       <use xlink:href="#DejaVuSans-30" transform="translate(159.033203 0)"/>
      </g>
     </g>
    </g>
    <g id="xtick_7">
     <g id="line2d_7">
      <g>
       <use xlink:href="#m2983684b6a" x="387.475645" y="398.64351" style="stroke: #000000; stroke-width: 0.8"/>
      </g>
     </g>
     <g id="text_7">
      <!-- 0.60 -->
      <g transform="translate(376.342832 413.241947) scale(0.1 -0.1)">
       <defs>
        <path id="DejaVuSans-36" d="M 2113 2584 
Q 1688 2584 1439 2293 
Q 1191 2003 1191 1497 
Q 1191 994 1439 701 
Q 1688 409 2113 409 
Q 2538 409 2786 701 
Q 3034 994 3034 1497 
Q 3034 2003 2786 2293 
Q 2538 2584 2113 2584 
z
M 3366 4563 
L 3366 3988 
Q 3128 4100 2886 4159 
Q 2644 4219 2406 4219 
Q 1781 4219 1451 3797 
Q 1122 3375 1075 2522 
Q 1259 2794 1537 2939 
Q 1816 3084 2150 3084 
Q 2853 3084 3261 2657 
Q 3669 2231 3669 1497 
Q 3669 778 3244 343 
Q 2819 -91 2113 -91 
Q 1303 -91 875 529 
Q 447 1150 447 2328 
Q 447 3434 972 4092 
Q 1497 4750 2381 4750 
Q 2619 4750 2861 4703 
Q 3103 4656 3366 4563 
z
" transform="scale(0.015625)"/>
       </defs>
       <use xlink:href="#DejaVuSans-30"/>
       <use xlink:href="#DejaVuSans-2e" transform="translate(63.623047 0)"/>
       <use xlink:href="#DejaVuSans-36" transform="translate(95.410156 0)"/>
       <use xlink:href="#DejaVuSans-30" transform="translate(159.033203 0)"/>
      </g>
     </g>
    </g>
    <g id="xtick_8">
     <g id="line2d_8">
      <g>
       <use xlink:href="#m2983684b6a" x="474.671296" y="398.64351" style="stroke: #000000; stroke-width: 0.8"/>
      </g>
     </g>
     <g id="text_8">
      <!-- 0.80 -->
      <g transform="translate(463.538484 413.241947) scale(0.1 -0.1)">
       <defs>
        <path id="DejaVuSans-38" d="M 2034 2216 
Q 1584 2216 1326 1975 
Q 1069 1734 1069 1313 
Q 1069 891 1326 650 
Q 1584 409 2034 409 
Q 2484 409 2743 651 
Q 3003 894 3003 1313 
Q 3003 1734 2745 1975 
Q 2488 2216 2034 2216 
z
M 1403 2484 
Q 997 2584 770 2862 
Q 544 3141 544 3541 
Q 544 4100 942 4425 
Q 1341 4750 2034 4750 
Q 2731 4750 3128 4425 
Q 3525 4100 3525 3541 
Q 3525 3141 3298 2862 
Q 3072 2584 2669 2484 
Q 3125 2378 3379 2068 
Q 3634 1759 3634 1313 
Q 3634 634 3220 271 
Q 2806 -91 2034 -91 
Q 1263 -91 848 271 
Q 434 634 434 1313 
Q 434 1759 690 2068 
Q 947 2378 1403 2484 
z
M 1172 3481 
Q 1172 3119 1398 2916 
Q 1625 2713 2034 2713 
Q 2441 2713 2670 2916 
Q 2900 3119 2900 3481 
Q 2900 3844 2670 4047 
Q 2441 4250 2034 4250 
Q 1625 4250 1398 4047 
Q 1172 3844 1172 3481 
z
" transform="scale(0.015625)"/>
       </defs>
       <use xlink:href="#DejaVuSans-30"/>
       <use xlink:href="#DejaVuSans-2e" transform="translate(63.623047 0)"/>
       <use xlink:href="#DejaVuSans-38" transform="translate(95.410156 0)"/>
       <use xlink:href="#DejaVuSans-30" transform="translate(159.033203 0)"/>
      </g>
     </g>
    </g>
    <g id="xtick_9">
     <g id="line2d_9">
      <g>
       <use xlink:href="#m2983684b6a" x="561.866948" y="398.64351" style="stroke: #000000; stroke-width: 0.8"/>
      </g>
     </g>
     <g id="text_9">
      <!-- 1.00 -->
      <g transform="translate(550.734135 413.241947) scale(0.1 -0.1)">
       <use xlink:href="#DejaVuSans-31"/>
       <use xlink:href="#DejaVuSans-2e" transform="translate(63.623047 0)"/>
       <use xlink:href="#DejaVuSans-30" transform="translate(95.410156 0)"/>
       <use xlink:href="#DejaVuSans-30" transform="translate(159.033203 0)"/>
      </g>
     </g>
    </g>
    <g id="text_10">
     <!-- Time (s) -->
     <g transform="translate(279.814844 426.920073) scale(0.1 -0.1)">
      <defs>
       <path id="DejaVuSans-54" d="M -19 4666 
L 3928 4666 
L 3928 4134 
L 2272 4134 
L 2272 0 
L 1638 0 
L 1638 4134 
L -19 4134 
L -19 4666 
z
" transform="scale(0.015625)"/>
       <path id="DejaVuSans-69" d="M 603 3500 
L 1178 3500 
L 1178 0 
L 603 0 
L 603 3500 
z
M 603 4863 
L 1178 4863 
L 1178 4134 
L 603 4134 
L 603 4863 
z
" transform="scale(0.015625)"/>
       <path id="DejaVuSans-6d" d="M 3328 2828 
Q 3544 3216 3844 3400 
Q 4144 3584 4550 3584 
Q 5097 3584 5394 3201 
Q 5691 2819 5691 2113 
L 5691 0 
L 5113 0 
L 5113 2094 
Q 5113 2597 4934 2840 
Q 4756 3084 4391 3084 
Q 3944 3084 3684 2787 
Q 3425 2491 3425 1978 
L 3425 0 
L 2847 0 
L 2847 2094 
Q 2847 2600 2669 2842 
Q 2491 3084 2119 3084 
Q 1678 3084 1418 2786 
Q 1159 2488 1159 1978 
L 1159 0 
L 581 0 
L 581 3500 
L 1159 3500 
L 1159 2956 
Q 1356 3278 1631 3431 
Q 1906 3584 2284 3584 
Q 2666 3584 2933 3390 
Q 3200 3197 3328 2828 
z
" transform="scale(0.015625)"/>
       <path id="DejaVuSans-65" d="M 3597 1894 
L 3597 1613 
L 953 1613 
Q 991 1019 1311 708 
Q 1631 397 2203 397 
Q 2534 397 2845 478 
Q 3156 559 3463 722 
L 3463 178 
Q 3153 47 2828 -22 
Q 2503 -91 2169 -91 
Q 1331 -91 842 396 
Q 353 884 353 1716 
Q 353 2575 817 3079 
Q 1281 3584 2069 3584 
Q 2775 3584 3186 3129 
Q 3597 2675 3597 1894 
z
M 3022 2063 
Q 3016 2534 2758 2815 
Q 2500 3097 2075 3097 
Q 1594 3097 1305 2825 
Q 1016 2553 972 2059 
L 3022 2063 
z
" transform="scale(0.015625)"/>
       <path id="DejaVuSans-20" transform="scale(0.015625)"/>
       <path id="DejaVuSans-28" d="M 1984 4856 
Q 1566 4138 1362 3434 
Q 1159 2731 1159 2009 
Q 1159 1288 1364 580 
Q 1569 -128 1984 -844 
L 1484 -844 
Q 1016 -109 783 600 
Q 550 1309 550 2009 
Q 550 2706 781 3412 
Q 1013 4119 1484 4856 
L 1984 4856 
z
" transform="scale(0.015625)"/>
       <path id="DejaVuSans-73" d="M 2834 3397 
L 2834 2853 
Q 2591 2978 2328 3040 
Q 2066 3103 1784 3103 
Q 1356 3103 1142 2972 
Q 928 2841 928 2578 
Q 928 2378 1081 2264 
Q 1234 2150 1697 2047 
L 1894 2003 
Q 2506 1872 2764 1633 
Q 3022 1394 3022 966 
Q 3022 478 2636 193 
Q 2250 -91 1575 -91 
Q 1294 -91 989 -36 
Q 684 19 347 128 
L 347 722 
Q 666 556 975 473 
Q 1284 391 1588 391 
Q 1994 391 2212 530 
Q 2431 669 2431 922 
Q 2431 1156 2273 1281 
Q 2116 1406 1581 1522 
L 1381 1569 
Q 847 1681 609 1914 
Q 372 2147 372 2553 
Q 372 3047 722 3315 
Q 1072 3584 1716 3584 
Q 2034 3584 2315 3537 
Q 2597 3491 2834 3397 
z
" transform="scale(0.015625)"/>
       <path id="DejaVuSans-29" d="M 513 4856 
L 1013 4856 
Q 1481 4119 1714 3412 
Q 1947 2706 1947 2009 
Q 1947 1309 1714 600 
Q 1481 -109 1013 -844 
L 513 -844 
Q 928 -128 1133 580 
Q 1338 1288 1338 2009 
Q 1338 2731 1133 3434 
Q 928 4138 513 4856 
z
" transform="scale(0.015625)"/>
      </defs>
      <use xlink:href="#DejaVuSans-54"/>
      <use xlink:href="#DejaVuSans-69" transform="translate(57.958984 0)"/>
      <use xlink:href="#DejaVuSans-6d" transform="translate(85.742188 0)"/>
      <use xlink:href="#DejaVuSans-65" transform="translate(183.154297 0)"/>
      <use xlink:href="#DejaVuSans-20" transform="translate(244.677734 0)"/>
      <use xlink:href="#DejaVuSans-28" transform="translate(276.464844 0)"/>
      <use xlink:href="#DejaVuSans-73" transform="translate(315.478516 0)"/>
      <use xlink:href="#DejaVuSans-29" transform="translate(367.578125 0)"/>
     </g>
    </g>
   </g>
   <g id="matplotlib.axis_2">
    <g id="ytick_1">
     <g id="line2d_10">
      <defs>
       <path id="m2548390c76" d="M 0 0 
L -3.5 0 
" style="stroke: #000000; stroke-width: 0.8"/>
      </defs>
      <g>
       <use xlink:href="#m2548390c76" x="38.420552" y="392.508317" style="stroke: #000000; stroke-width: 0.8"/>
      </g>
     </g>
     <g id="text_11">
      <!-- −8 -->
      <g transform="translate(16.678365 396.307536) scale(0.1 -0.1)">
       <use xlink:href="#DejaVuSans-2212"/>
       <use xlink:href="#DejaVuSans-38" transform="translate(83.789062 0)"/>
      </g>
     </g>
    </g>
    <g id="ytick_2">
     <g id="line2d_11">
      <g>
       <use xlink:href="#m2548390c76" x="38.420552" y="346.476472" style="stroke: #000000; stroke-width: 0.8"/>
      </g>
     </g>
     <g id="text_12">
      <!-- −6 -->
      <g transform="translate(16.678365 350.275691) scale(0.1 -0.1)">
       <use xlink:href="#DejaVuSans-2212"/>
       <use xlink:href="#DejaVuSans-36" transform="translate(83.789062 0)"/>
      </g>
     </g>
    </g>
    <g id="ytick_3">
     <g id="line2d_12">
      <g>
       <use xlink:href="#m2548390c76" x="38.420552" y="300.444627" style="stroke: #000000; stroke-width: 0.8"/>
      </g>
     </g>
     <g id="text_13">
      <!-- −4 -->
      <g transform="translate(16.678365 304.243846) scale(0.1 -0.1)">
       <use xlink:href="#DejaVuSans-2212"/>
       <use xlink:href="#DejaVuSans-34" transform="translate(83.789062 0)"/>
      </g>
     </g>
    </g>
    <g id="ytick_4">
     <g id="line2d_13">
      <g>
       <use xlink:href="#m2548390c76" x="38.420552" y="254.412782" style="stroke: #000000; stroke-width: 0.8"/>
      </g>
     </g>
     <g id="text_14">
      <!-- −2 -->
      <g transform="translate(16.678365 258.212001) scale(0.1 -0.1)">
       <use xlink:href="#DejaVuSans-2212"/>
       <use xlink:href="#DejaVuSans-32" transform="translate(83.789062 0)"/>
      </g>
     </g>
    </g>
    <g id="ytick_5">
     <g id="line2d_14">
      <g>
       <use xlink:href="#m2548390c76" x="38.420552" y="208.380937" style="stroke: #000000; stroke-width: 0.8"/>
      </g>
     </g>
     <g id="text_15">
      <!-- 0 -->
      <g transform="translate(25.058052 212.180156) scale(0.1 -0.1)">
       <use xlink:href="#DejaVuSans-30"/>
      </g>
     </g>
    </g>
    <g id="ytick_6">
     <g id="line2d_15">
      <g>
       <use xlink:href="#m2548390c76" x="38.420552" y="162.349093" style="stroke: #000000; stroke-width: 0.8"/>
      </g>
     </g>
     <g id="text_16">
      <!-- 2 -->
      <g transform="translate(25.058052 166.148311) scale(0.1 -0.1)">
       <use xlink:href="#DejaVuSans-32"/>
      </g>
     </g>
    </g>
    <g id="ytick_7">
     <g id="line2d_16">
      <g>
       <use xlink:href="#m2548390c76" x="38.420552" y="116.317248" style="stroke: #000000; stroke-width: 0.8"/>
      </g>
     </g>
     <g id="text_17">
      <!-- 4 -->
      <g transform="translate(25.058052 120.116466) scale(0.1 -0.1)">
       <use xlink:href="#DejaVuSans-34"/>
      </g>
     </g>
    </g>
    <g id="ytick_8">
     <g id="line2d_17">
      <g>
       <use xlink:href="#m2548390c76" x="38.420552" y="70.285403" style="stroke: #000000; stroke-width: 0.8"/>
      </g>
     </g>
     <g id="text_18">
      <!-- 6 -->
      <g transform="translate(25.058052 74.084622) scale(0.1 -0.1)">
       <use xlink:href="#DejaVuSans-36"/>
      </g>
     </g>
    </g>
    <g id="ytick_9">
     <g id="line2d_18">
      <g>
       <use xlink:href="#m2548390c76" x="38.420552" y="24.253558" style="stroke: #000000; stroke-width: 0.8"/>
      </g>
     </g>
     <g id="text_19">
      <!-- 8 -->
      <g transform="translate(25.058052 28.052777) scale(0.1 -0.1)">
       <use xlink:href="#DejaVuSans-38"/>
      </g>
     </g>
    </g>
    <g id="text_20">
     <!-- µV -->
     <g transform="translate(10.598677 214.9825) rotate(-90) scale(0.1 -0.1)">
      <defs>
       <path id="DejaVuSans-b5" d="M 544 -1331 
L 544 3500 
L 1119 3500 
L 1119 1325 
Q 1119 872 1334 640 
Q 1550 409 1972 409 
Q 2434 409 2667 671 
Q 2900 934 2900 1459 
L 2900 3500 
L 3475 3500 
L 3475 806 
Q 3475 619 3529 530 
Q 3584 441 3700 441 
Q 3728 441 3778 458 
Q 3828 475 3916 513 
L 3916 50 
Q 3788 -22 3673 -56 
Q 3559 -91 3450 -91 
Q 3234 -91 3106 31 
Q 2978 153 2931 403 
Q 2775 156 2548 32 
Q 2322 -91 2016 -91 
Q 1697 -91 1473 31 
Q 1250 153 1119 397 
L 1119 -1331 
L 544 -1331 
z
" transform="scale(0.015625)"/>
       <path id="DejaVuSans-56" d="M 1831 0 
L 50 4666 
L 709 4666 
L 2188 738 
L 3669 4666 
L 4325 4666 
L 2547 0 
L 1831 0 
z
" transform="scale(0.015625)"/>
      </defs>
      <use xlink:href="#DejaVuSans-b5"/>
      <use xlink:href="#DejaVuSans-56" transform="translate(63.623047 0)"/>
     </g>
    </g>
   </g>
   <g id="patch_4">
    <path d="M 38.693039 398.64351 
L 561.866948 398.64351 
" style="fill: none; stroke: #000000; stroke-width: 0.8; stroke-linejoin: miter; stroke-linecap: square"/>
   </g>
   <g id="patch_5">
    <path d="M 38.420552 208.380937 
L 561.866948 208.380937 
" style="fill: none; stroke: #000000; stroke-width: 0.8; stroke-linejoin: miter; stroke-linecap: square"/>
   </g>
   <g id="text_21">
    <!-- F4, FC4, F3, FC3 (median) -->
    <g transform="translate(222.169062 12.118365) scale(0.12 -0.12)">
     <defs>
      <path id="DejaVuSans-46" d="M 628 4666 
L 3309 4666 
L 3309 4134 
L 1259 4134 
L 1259 2759 
L 3109 2759 
L 3109 2228 
L 1259 2228 
L 1259 0 
L 628 0 
L 628 4666 
z
" transform="scale(0.015625)"/>
      <path id="DejaVuSans-2c" d="M 750 794 
L 1409 794 
L 1409 256 
L 897 -744 
L 494 -744 
L 750 256 
L 750 794 
z
" transform="scale(0.015625)"/>
      <path id="DejaVuSans-43" d="M 4122 4306 
L 4122 3641 
Q 3803 3938 3442 4084 
Q 3081 4231 2675 4231 
Q 1875 4231 1450 3742 
Q 1025 3253 1025 2328 
Q 1025 1406 1450 917 
Q 1875 428 2675 428 
Q 3081 428 3442 575 
Q 3803 722 4122 1019 
L 4122 359 
Q 3791 134 3420 21 
Q 3050 -91 2638 -91 
Q 1578 -91 968 557 
Q 359 1206 359 2328 
Q 359 3453 968 4101 
Q 1578 4750 2638 4750 
Q 3056 4750 3426 4639 
Q 3797 4528 4122 4306 
z
" transform="scale(0.015625)"/>
      <path id="DejaVuSans-64" d="M 2906 2969 
L 2906 4863 
L 3481 4863 
L 3481 0 
L 2906 0 
L 2906 525 
Q 2725 213 2448 61 
Q 2172 -91 1784 -91 
Q 1150 -91 751 415 
Q 353 922 353 1747 
Q 353 2572 751 3078 
Q 1150 3584 1784 3584 
Q 2172 3584 2448 3432 
Q 2725 3281 2906 2969 
z
M 947 1747 
Q 947 1113 1208 752 
Q 1469 391 1925 391 
Q 2381 391 2643 752 
Q 2906 1113 2906 1747 
Q 2906 2381 2643 2742 
Q 2381 3103 1925 3103 
Q 1469 3103 1208 2742 
Q 947 2381 947 1747 
z
" transform="scale(0.015625)"/>
      <path id="DejaVuSans-61" d="M 2194 1759 
Q 1497 1759 1228 1600 
Q 959 1441 959 1056 
Q 959 750 1161 570 
Q 1363 391 1709 391 
Q 2188 391 2477 730 
Q 2766 1069 2766 1631 
L 2766 1759 
L 2194 1759 
z
M 3341 1997 
L 3341 0 
L 2766 0 
L 2766 531 
Q 2569 213 2275 61 
Q 1981 -91 1556 -91 
Q 1019 -91 701 211 
Q 384 513 384 1019 
Q 384 1609 779 1909 
Q 1175 2209 1959 2209 
L 2766 2209 
L 2766 2266 
Q 2766 2663 2505 2880 
Q 2244 3097 1772 3097 
Q 1472 3097 1187 3025 
Q 903 2953 641 2809 
L 641 3341 
Q 956 3463 1253 3523 
Q 1550 3584 1831 3584 
Q 2591 3584 2966 3190 
Q 3341 2797 3341 1997 
z
" transform="scale(0.015625)"/>
      <path id="DejaVuSans-6e" d="M 3513 2113 
L 3513 0 
L 2938 0 
L 2938 2094 
Q 2938 2591 2744 2837 
Q 2550 3084 2163 3084 
Q 1697 3084 1428 2787 
Q 1159 2491 1159 1978 
L 1159 0 
L 581 0 
L 581 3500 
L 1159 3500 
L 1159 2956 
Q 1366 3272 1645 3428 
Q 1925 3584 2291 3584 
Q 2894 3584 3203 3211 
Q 3513 2838 3513 2113 
z
" transform="scale(0.015625)"/>
     </defs>
     <use xlink:href="#DejaVuSans-46"/>
     <use xlink:href="#DejaVuSans-34" transform="translate(57.519531 0)"/>
     <use xlink:href="#DejaVuSans-2c" transform="translate(121.142578 0)"/>
     <use xlink:href="#DejaVuSans-20" transform="translate(152.929688 0)"/>
     <use xlink:href="#DejaVuSans-46" transform="translate(184.716797 0)"/>
     <use xlink:href="#DejaVuSans-43" transform="translate(242.236328 0)"/>
     <use xlink:href="#DejaVuSans-34" transform="translate(312.060547 0)"/>
     <use xlink:href="#DejaVuSans-2c" transform="translate(375.683594 0)"/>
     <use xlink:href="#DejaVuSans-20" transform="translate(407.470703 0)"/>
     <use xlink:href="#DejaVuSans-46" transform="translate(439.257812 0)"/>
     <use xlink:href="#DejaVuSans-33" transform="translate(496.777344 0)"/>
     <use xlink:href="#DejaVuSans-2c" transform="translate(560.400391 0)"/>
     <use xlink:href="#DejaVuSans-20" transform="translate(592.1875 0)"/>
     <use xlink:href="#DejaVuSans-46" transform="translate(623.974609 0)"/>
     <use xlink:href="#DejaVuSans-43" transform="translate(681.494141 0)"/>
     <use xlink:href="#DejaVuSans-33" transform="translate(751.318359 0)"/>
     <use xlink:href="#DejaVuSans-20" transform="translate(814.941406 0)"/>
     <use xlink:href="#DejaVuSans-28" transform="translate(846.728516 0)"/>
     <use xlink:href="#DejaVuSans-6d" transform="translate(885.742188 0)"/>
     <use xlink:href="#DejaVuSans-65" transform="translate(983.154297 0)"/>
     <use xlink:href="#DejaVuSans-64" transform="translate(1044.677734 0)"/>
     <use xlink:href="#DejaVuSans-69" transform="translate(1108.154297 0)"/>
     <use xlink:href="#DejaVuSans-61" transform="translate(1135.9375 0)"/>
     <use xlink:href="#DejaVuSans-6e" transform="translate(1197.216797 0)"/>
     <use xlink:href="#DejaVuSans-29" transform="translate(1260.595703 0)"/>
    </g>
   </g>
   <g id="legend_1">
    <g id="patch_6">
     <path d="M 45.420552 55.75274 
L 126.56274 55.75274 
Q 128.56274 55.75274 128.56274 53.75274 
L 128.56274 25.118365 
Q 128.56274 23.118365 126.56274 23.118365 
L 45.420552 23.118365 
Q 43.420552 23.118365 43.420552 25.118365 
L 43.420552 53.75274 
Q 43.420552 55.75274 45.420552 55.75274 
z
" style="fill: #ffffff; opacity: 0.8; stroke: #cccccc; stroke-linejoin: miter"/>
    </g>
    <g id="line2d_19">
     <path d="M 47.420552 31.216803 
L 57.420552 31.216803 
L 67.420552 31.216803 
" style="fill: none; stroke: #1f77b4; stroke-width: 1.5; stroke-linecap: square"/>
    </g>
    <g id="text_22">
     <!-- eerie -->
     <g transform="translate(75.420552 34.716803) scale(0.1 -0.1)">
      <defs>
       <path id="DejaVuSans-72" d="M 2631 2963 
Q 2534 3019 2420 3045 
Q 2306 3072 2169 3072 
Q 1681 3072 1420 2755 
Q 1159 2438 1159 1844 
L 1159 0 
L 581 0 
L 581 3500 
L 1159 3500 
L 1159 2956 
Q 1341 3275 1631 3429 
Q 1922 3584 2338 3584 
Q 2397 3584 2469 3576 
Q 2541 3569 2628 3553 
L 2631 2963 
z
" transform="scale(0.015625)"/>
      </defs>
      <use xlink:href="#DejaVuSans-65"/>
      <use xlink:href="#DejaVuSans-65" transform="translate(61.523438 0)"/>
      <use xlink:href="#DejaVuSans-72" transform="translate(123.046875 0)"/>
      <use xlink:href="#DejaVuSans-69" transform="translate(164.160156 0)"/>
      <use xlink:href="#DejaVuSans-65" transform="translate(191.943359 0)"/>
     </g>
    </g>
    <g id="line2d_20">
     <path d="M 47.420552 45.894928 
L 57.420552 45.894928 
L 67.420552 45.894928 
" style="fill: none; stroke: #ff7f0e; stroke-width: 1.5; stroke-linecap: square"/>
    </g>
    <g id="text_23">
     <!-- non_eerie -->
     <g transform="translate(75.420552 49.394928) scale(0.1 -0.1)">
      <defs>
       <path id="DejaVuSans-6f" d="M 1959 3097 
Q 1497 3097 1228 2736 
Q 959 2375 959 1747 
Q 959 1119 1226 758 
Q 1494 397 1959 397 
Q 2419 397 2687 759 
Q 2956 1122 2956 1747 
Q 2956 2369 2687 2733 
Q 2419 3097 1959 3097 
z
M 1959 3584 
Q 2709 3584 3137 3096 
Q 3566 2609 3566 1747 
Q 3566 888 3137 398 
Q 2709 -91 1959 -91 
Q 1206 -91 779 398 
Q 353 888 353 1747 
Q 353 2609 779 3096 
Q 1206 3584 1959 3584 
z
" transform="scale(0.015625)"/>
       <path id="DejaVuSans-5f" d="M 3263 -1063 
L 3263 -1509 
L -63 -1509 
L -63 -1063 
L 3263 -1063 
z
" transform="scale(0.015625)"/>
      </defs>
      <use xlink:href="#DejaVuSans-6e"/>
      <use xlink:href="#DejaVuSans-6f" transform="translate(63.378906 0)"/>
      <use xlink:href="#DejaVuSans-6e" transform="translate(124.560547 0)"/>
      <use xlink:href="#DejaVuSans-5f" transform="translate(187.939453 0)"/>
      <use xlink:href="#DejaVuSans-65" transform="translate(237.939453 0)"/>
      <use xlink:href="#DejaVuSans-65" transform="translate(299.462891 0)"/>
      <use xlink:href="#DejaVuSans-72" transform="translate(360.986328 0)"/>
      <use xlink:href="#DejaVuSans-69" transform="translate(402.099609 0)"/>
      <use xlink:href="#DejaVuSans-65" transform="translate(429.882812 0)"/>
     </g>
    </g>
   </g>
   <g id="FillBetweenPolyCollection_1">
    <defs>
     <path id="m55ad99dcc7" d="M 38.420552 -228.266566 
L 38.420552 -207.818128 
L 40.123593 -209.858377 
L 41.826633 -215.712252 
L 43.529673 -222.818002 
L 45.232713 -227.758954 
L 46.935753 -228.081626 
L 48.638793 -223.065481 
L 50.341833 -214.234711 
L 52.044873 -204.606356 
L 53.747913 -197.493671 
L 55.450953 -195.151014 
L 57.153993 -198.367847 
L 58.857033 -205.229393 
L 60.560073 -212.53195 
L 62.263113 -217.980711 
L 63.966154 -218.93439 
L 65.669194 -215.386961 
L 67.372234 -207.921801 
L 69.075274 -199.686471 
L 70.778314 -194.729114 
L 72.481354 -195.24683 
L 74.184394 -201.466328 
L 75.887434 -211.265203 
L 77.590474 -220.815478 
L 79.293514 -227.966705 
L 80.996554 -232.491309 
L 82.699594 -235.079112 
L 84.402634 -235.737836 
L 86.105674 -233.289355 
L 87.808714 -225.467941 
L 89.511755 -212.53084 
L 91.214795 -197.814611 
L 92.917835 -187.954257 
L 94.620875 -187.539764 
L 96.323915 -198.589997 
L 98.026955 -217.025075 
L 99.729995 -236.292574 
L 101.433035 -248.643464 
L 103.136075 -251.62128 
L 104.839115 -248.227682 
L 106.542155 -243.600578 
L 108.245195 -241.349467 
L 109.948235 -241.014488 
L 111.651275 -238.919187 
L 113.354315 -231.616713 
L 115.057356 -218.112261 
L 116.760396 -201.534531 
L 118.463436 -188.521337 
L 120.166476 -182.597955 
L 121.869516 -184.258462 
L 123.572556 -191.015168 
L 125.275596 -199.349281 
L 126.978636 -206.25014 
L 128.681676 -210.467944 
L 130.384716 -212.941915 
L 132.087756 -213.483952 
L 133.790796 -213.34717 
L 135.493836 -211.173806 
L 137.196876 -206.969949 
L 138.899916 -202.517131 
L 140.602957 -200.964515 
L 142.305997 -202.939945 
L 144.009037 -206.483552 
L 145.712077 -207.545761 
L 147.415117 -202.209934 
L 149.118157 -191.798978 
L 150.821197 -180.184555 
L 152.524237 -171.31026 
L 154.227277 -167.736727 
L 155.930317 -169.322463 
L 157.633357 -173.577703 
L 159.336397 -179.804916 
L 161.039437 -186.687111 
L 162.742477 -191.915588 
L 164.445517 -195.972747 
L 166.148558 -198.480681 
L 167.851598 -197.9082 
L 169.554638 -192.467001 
L 171.257678 -181.679174 
L 172.960718 -166.838306 
L 174.663758 -150.464563 
L 176.366798 -133.763722 
L 178.069838 -121.52847 
L 179.772878 -114.967748 
L 181.475918 -115.873749 
L 183.178958 -124.854869 
L 184.881998 -141.369854 
L 186.585038 -164.022071 
L 188.288078 -189.703755 
L 189.991118 -216.166906 
L 191.694159 -242.766832 
L 193.397199 -269.620655 
L 195.100239 -295.178267 
L 196.803279 -316.731965 
L 198.506319 -331.228083 
L 200.209359 -336.376558 
L 201.912399 -331.366603 
L 203.615439 -319.441541 
L 205.318479 -307.661369 
L 207.021519 -301.430562 
L 208.724559 -303.857731 
L 210.427599 -313.273875 
L 212.130639 -325.33009 
L 213.833679 -335.426642 
L 215.536719 -340.787352 
L 217.23976 -342.027051 
L 218.9428 -340.844005 
L 220.64584 -338.959623 
L 222.34888 -336.155733 
L 224.05192 -330.277906 
L 225.75496 -318.294678 
L 227.458 -300.422334 
L 229.16104 -277.660749 
L 230.86408 -253.609433 
L 232.56712 -234.701526 
L 234.27016 -224.848136 
L 235.9732 -227.105488 
L 237.67624 -240.465911 
L 239.37928 -261.188901 
L 241.08232 -283.137875 
L 242.785361 -300.687651 
L 244.488401 -310.817566 
L 246.191441 -314.050109 
L 247.894481 -315.407823 
L 249.597521 -318.021051 
L 251.300561 -322.9333 
L 253.003601 -327.89835 
L 254.706641 -327.662127 
L 256.409681 -320.324806 
L 258.112721 -307.836562 
L 259.815761 -294.291597 
L 261.518801 -285.326065 
L 263.221841 -284.122004 
L 264.924881 -287.333903 
L 266.627921 -290.172452 
L 268.330962 -289.099917 
L 270.034002 -282.767733 
L 271.737042 -276.738316 
L 273.440082 -276.3503 
L 275.143122 -284.790617 
L 276.846162 -300.96015 
L 278.549202 -320.623673 
L 280.252242 -340.282984 
L 281.955282 -356.873969 
L 283.658322 -368.94037 
L 285.361362 -378.421894 
L 287.064402 -385.031057 
L 288.767442 -388.43484 
L 290.470482 -388.301824 
L 292.173522 -384.56488 
L 293.876563 -378.156638 
L 295.579603 -370.829602 
L 297.282643 -362.397193 
L 298.985683 -354.570347 
L 300.688723 -345.569358 
L 302.391763 -337.738022 
L 304.094803 -332.264596 
L 305.797843 -329.382156 
L 307.500883 -329.445402 
L 309.203923 -331.148008 
L 310.906963 -333.206751 
L 312.610003 -334.172641 
L 314.313043 -334.421179 
L 316.016083 -334.414383 
L 317.719123 -336.576027 
L 319.422164 -339.643948 
L 321.125204 -343.077435 
L 322.828244 -345.321763 
L 324.531284 -345.281184 
L 326.234324 -343.864235 
L 327.937364 -341.05826 
L 329.640404 -337.300214 
L 331.343444 -332.049901 
L 333.046484 -322.90548 
L 334.749524 -310.813071 
L 336.452564 -295.834218 
L 338.155604 -282.894498 
L 339.858644 -275.201004 
L 341.561684 -275.123994 
L 343.264724 -281.40416 
L 344.967765 -291.320994 
L 346.670805 -300.091001 
L 348.373845 -305.407806 
L 350.076885 -307.536159 
L 351.779925 -310.364108 
L 353.482965 -315.323119 
L 355.186005 -323.170368 
L 356.889045 -332.668196 
L 358.592085 -340.688172 
L 360.295125 -346.653135 
L 361.998165 -350.081191 
L 363.701205 -352.346905 
L 365.404245 -353.88104 
L 367.107285 -354.210037 
L 368.810326 -354.741034 
L 370.513366 -355.726732 
L 372.216406 -355.832138 
L 373.919446 -353.658653 
L 375.622486 -348.569827 
L 377.325526 -340.220269 
L 379.028566 -330.177671 
L 380.731606 -320.418269 
L 382.434646 -314.099736 
L 384.137686 -312.750296 
L 385.840726 -316.514833 
L 387.543766 -323.136339 
L 389.246806 -327.876134 
L 390.949846 -330.080069 
L 392.652886 -329.795977 
L 394.355927 -330.216907 
L 396.058967 -335.667808 
L 397.762007 -345.188816 
L 399.465047 -354.718648 
L 401.168087 -358.631051 
L 402.871127 -353.721407 
L 404.574167 -341.497979 
L 406.277207 -327.36431 
L 407.980247 -318.40196 
L 409.683287 -317.901435 
L 411.386327 -323.019851 
L 413.089367 -326.955128 
L 414.792407 -325.242624 
L 416.495447 -317.568738 
L 418.198487 -308.739318 
L 419.901528 -303.852161 
L 421.604568 -305.006212 
L 423.307608 -310.266448 
L 425.010648 -314.637356 
L 426.713688 -314.116336 
L 428.416728 -309.248192 
L 430.119768 -301.506122 
L 431.822808 -295.945512 
L 433.525848 -293.172226 
L 435.228888 -290.601212 
L 436.931928 -285.87322 
L 438.634968 -278.507323 
L 440.338008 -271.632742 
L 442.041048 -270.578656 
L 443.744088 -278.685138 
L 445.447129 -294.117646 
L 447.150169 -311.053813 
L 448.853209 -322.475758 
L 450.556249 -323.294924 
L 452.259289 -313.567429 
L 453.962329 -297.984099 
L 455.665369 -283.803958 
L 457.368409 -276.069146 
L 459.071449 -275.648302 
L 460.774489 -279.434321 
L 462.477529 -282.817381 
L 464.180569 -282.814647 
L 465.883609 -278.488904 
L 467.586649 -270.330966 
L 469.289689 -264.529626 
L 470.99273 -264.783002 
L 472.69577 -270.050323 
L 474.39881 -279.083699 
L 476.10185 -286.355199 
L 477.80489 -287.709927 
L 479.50793 -283.866007 
L 481.21097 -277.239242 
L 482.91401 -271.865544 
L 484.61705 -270.576003 
L 486.32009 -274.483137 
L 488.02313 -279.325633 
L 489.72617 -281.243517 
L 491.42921 -278.873918 
L 493.13225 -273.159649 
L 494.83529 -268.378494 
L 496.538331 -266.252907 
L 498.241371 -267.486972 
L 499.944411 -270.047032 
L 501.647451 -271.184426 
L 503.350491 -269.139372 
L 505.053531 -263.787009 
L 506.756571 -257.236996 
L 508.459611 -249.143929 
L 510.162651 -241.934306 
L 511.865691 -235.167899 
L 513.568731 -229.576921 
L 515.271771 -225.854943 
L 516.974811 -227.57702 
L 518.677851 -235.435421 
L 520.380891 -248.095774 
L 522.083932 -262.060429 
L 523.786972 -272.923195 
L 525.490012 -278.3943 
L 527.193052 -276.729063 
L 528.896092 -271.563807 
L 530.599132 -266.024048 
L 532.302172 -261.882503 
L 534.005212 -259.128233 
L 535.708252 -256.881399 
L 537.411292 -255.131682 
L 539.114332 -253.644847 
L 540.817372 -251.631913 
L 542.520412 -248.933876 
L 544.223452 -246.687488 
L 545.926492 -243.390562 
L 547.629533 -240.147502 
L 549.332573 -237.206062 
L 551.035613 -234.370537 
L 552.738653 -231.598908 
L 554.441693 -228.419142 
L 556.144733 -225.376147 
L 557.847773 -224.032797 
L 559.550813 -227.982573 
L 561.253853 -238.58755 
L 561.253853 -266.805491 
L 561.253853 -266.805491 
L 559.550813 -255.567095 
L 557.847773 -251.335293 
L 556.144733 -252.950401 
L 554.441693 -256.166494 
L 552.738653 -258.944986 
L 551.035613 -261.213982 
L 549.332573 -263.820995 
L 547.629533 -267.717116 
L 545.926492 -271.918887 
L 544.223452 -275.598948 
L 542.520412 -278.604319 
L 540.817372 -280.420816 
L 539.114332 -281.206622 
L 537.411292 -282.528534 
L 535.708252 -284.583734 
L 534.005212 -287.086817 
L 532.302172 -290.769204 
L 530.599132 -295.449522 
L 528.896092 -300.30005 
L 527.193052 -304.76008 
L 525.490012 -305.116876 
L 523.786972 -300.592734 
L 522.083932 -290.535159 
L 520.380891 -276.476671 
L 518.677851 -263.155503 
L 516.974811 -254.562032 
L 515.271771 -252.191883 
L 513.568731 -255.630875 
L 511.865691 -262.628116 
L 510.162651 -270.493662 
L 508.459611 -277.029843 
L 506.756571 -283.229647 
L 505.053531 -289.289949 
L 503.350491 -294.409775 
L 501.647451 -296.962855 
L 499.944411 -296.588107 
L 498.241371 -294.821561 
L 496.538331 -294.480874 
L 494.83529 -296.860438 
L 493.13225 -302.300144 
L 491.42921 -308.460554 
L 489.72617 -311.335726 
L 488.02313 -309.506921 
L 486.32009 -305.292853 
L 484.61705 -301.811155 
L 482.91401 -302.421987 
L 481.21097 -306.669499 
L 479.50793 -312.109086 
L 477.80489 -315.584681 
L 476.10185 -313.95377 
L 474.39881 -307.474371 
L 472.69577 -300.033693 
L 470.99273 -294.632412 
L 469.289689 -294.221464 
L 467.586649 -299.776733 
L 465.883609 -307.089634 
L 464.180569 -311.820325 
L 462.477529 -312.483598 
L 460.774489 -309.742735 
L 459.071449 -307.147008 
L 457.368409 -308.20515 
L 455.665369 -315.740088 
L 453.962329 -329.444754 
L 452.259289 -344.635535 
L 450.556249 -354.580713 
L 448.853209 -354.537235 
L 447.150169 -343.303351 
L 445.447129 -325.310313 
L 443.744088 -308.632348 
L 442.041048 -300.299962 
L 440.338008 -301.356172 
L 438.634968 -308.350807 
L 436.931928 -315.675814 
L 435.228888 -320.42433 
L 433.525848 -322.216378 
L 431.822808 -325.127513 
L 430.119768 -330.277705 
L 428.416728 -337.616296 
L 426.713688 -343.804586 
L 425.010648 -344.562687 
L 423.307608 -340.067083 
L 421.604568 -334.104342 
L 419.901528 -331.624348 
L 418.198487 -335.864332 
L 416.495447 -344.412952 
L 414.792407 -352.423273 
L 413.089367 -355.476573 
L 411.386327 -352.724524 
L 409.683287 -348.580347 
L 407.980247 -348.858485 
L 406.277207 -357.507357 
L 404.574167 -369.833258 
L 402.871127 -381.786282 
L 401.168087 -386.589544 
L 399.465047 -383.006171 
L 397.762007 -374.926632 
L 396.058967 -366.018106 
L 394.355927 -360.64041 
L 392.652886 -358.659414 
L 390.949846 -357.534071 
L 389.246806 -354.117593 
L 387.543766 -348.902597 
L 385.840726 -343.808998 
L 384.137686 -340.979207 
L 382.434646 -342.52419 
L 380.731606 -348.669205 
L 379.028566 -358.282189 
L 377.325526 -368.607234 
L 375.622486 -376.344833 
L 373.919446 -382.00577 
L 372.216406 -385.147285 
L 370.513366 -385.699536 
L 368.810326 -384.393802 
L 367.107285 -382.784815 
L 365.404245 -381.239205 
L 363.701205 -378.94492 
L 361.998165 -377.174778 
L 360.295125 -373.27918 
L 358.592085 -366.56508 
L 356.889045 -358.015492 
L 355.186005 -350.079034 
L 353.482965 -344.246011 
L 351.779925 -340.610744 
L 350.076885 -338.191796 
L 348.373845 -334.344688 
L 346.670805 -328.020552 
L 344.967765 -318.993465 
L 343.264724 -309.42194 
L 341.561684 -304.430105 
L 339.858644 -306.645758 
L 338.155604 -314.621436 
L 336.452564 -327.808899 
L 334.749524 -341.721211 
L 333.046484 -352.858112 
L 331.343444 -360.994283 
L 329.640404 -366.565614 
L 327.937364 -370.148028 
L 326.234324 -372.531723 
L 324.531284 -373.825712 
L 322.828244 -373.427219 
L 321.125204 -371.064881 
L 319.422164 -368.082035 
L 317.719123 -365.532482 
L 316.016083 -364.936263 
L 314.313043 -365.512806 
L 312.610003 -364.855888 
L 310.906963 -362.941813 
L 309.203923 -359.811803 
L 307.500883 -357.995236 
L 305.797843 -357.832193 
L 304.094803 -360.615593 
L 302.391763 -366.436682 
L 300.688723 -373.845087 
L 298.985683 -381.812337 
L 297.282643 -390.774262 
L 295.579603 -399.083615 
L 293.876563 -405.98504 
L 292.173522 -411.258924 
L 290.470482 -413.881635 
L 288.767442 -413.645792 
L 287.064402 -410.769286 
L 285.361362 -405.461973 
L 283.658322 -397.087398 
L 281.955282 -385.273086 
L 280.252242 -368.315791 
L 278.549202 -348.257217 
L 276.846162 -328.482721 
L 275.143122 -312.53059 
L 273.440082 -304.327641 
L 271.737042 -304.920009 
L 270.034002 -310.379985 
L 268.330962 -316.332331 
L 266.627921 -318.509326 
L 264.924881 -316.655294 
L 263.221841 -313.633022 
L 261.518801 -314.285019 
L 259.815761 -320.237282 
L 258.112721 -332.25508 
L 256.409681 -344.412914 
L 254.706641 -351.781207 
L 253.003601 -352.604448 
L 251.300561 -349.576875 
L 249.597521 -346.2196 
L 247.894481 -345.087081 
L 246.191441 -343.56127 
L 244.488401 -338.863656 
L 242.785361 -328.000539 
L 241.08232 -309.262623 
L 239.37928 -286.368545 
L 237.67624 -265.656921 
L 235.9732 -253.126676 
L 234.27016 -251.857894 
L 232.56712 -262.358433 
L 230.86408 -281.740938 
L 229.16104 -304.299401 
L 227.458 -326.220978 
L 225.75496 -344.161413 
L 224.05192 -356.493121 
L 222.34888 -363.070563 
L 220.64584 -366.489928 
L 218.9428 -367.980517 
L 217.23976 -368.543858 
L 215.536719 -367.191027 
L 213.833679 -361.799845 
L 212.130639 -351.503028 
L 210.427599 -338.886145 
L 208.724559 -329.106623 
L 207.021519 -326.530465 
L 205.318479 -333.22138 
L 203.615439 -345.143233 
L 201.912399 -356.603971 
L 200.209359 -362.357561 
L 198.506319 -357.974409 
L 196.803279 -343.703661 
L 195.100239 -322.182769 
L 193.397199 -298.015146 
L 191.694159 -270.794235 
L 189.991118 -243.4296 
L 188.288078 -215.610472 
L 186.585038 -189.371209 
L 184.881998 -167.356563 
L 183.178958 -149.968668 
L 181.475918 -139.359784 
L 179.772878 -137.426561 
L 178.069838 -143.282061 
L 176.366798 -155.436502 
L 174.663758 -170.731183 
L 172.960718 -187.308199 
L 171.257678 -203.331538 
L 169.554638 -214.732343 
L 167.851598 -220.521446 
L 166.148558 -221.077751 
L 164.445517 -218.624534 
L 162.742477 -215.023949 
L 161.039437 -210.501867 
L 159.336397 -204.223692 
L 157.633357 -197.544594 
L 155.930317 -192.053673 
L 154.227277 -190.199722 
L 152.524237 -193.963018 
L 150.821197 -202.887112 
L 149.118157 -213.787779 
L 147.415117 -222.970594 
L 145.712077 -227.466028 
L 144.009037 -226.628934 
L 142.305997 -223.436732 
L 140.602957 -221.228485 
L 138.899916 -222.513441 
L 137.196876 -226.642383 
L 135.493836 -231.407817 
L 133.790796 -234.623495 
L 132.087756 -234.584316 
L 130.384716 -232.570084 
L 128.681676 -228.776298 
L 126.978636 -224.220603 
L 125.275596 -217.63457 
L 123.572556 -210.479604 
L 121.869516 -204.649213 
L 120.166476 -203.910031 
L 118.463436 -209.901623 
L 116.760396 -222.723898 
L 115.057356 -239.37812 
L 113.354315 -253.078319 
L 111.651275 -259.706834 
L 109.948235 -260.500869 
L 108.245195 -259.464663 
L 106.542155 -260.228377 
L 104.839115 -263.986604 
L 103.136075 -266.696346 
L 101.433035 -263.763246 
L 99.729995 -251.795018 
L 98.026955 -232.553076 
L 96.323915 -213.793966 
L 94.620875 -202.561481 
L 92.917835 -202.762763 
L 91.214795 -212.182925 
L 89.511755 -225.696461 
L 87.808714 -237.519368 
L 86.105674 -245.312459 
L 84.402634 -248.799581 
L 82.699594 -249.304753 
L 80.996554 -247.451664 
L 79.293514 -243.733238 
L 77.590474 -235.859891 
L 75.887434 -226.191245 
L 74.184394 -216.958277 
L 72.481354 -211.221511 
L 70.778314 -211.328006 
L 69.075274 -216.695823 
L 67.372234 -224.960883 
L 65.669194 -232.657506 
L 63.966154 -236.778085 
L 62.263113 -235.839468 
L 60.560073 -230.889773 
L 58.857033 -223.228247 
L 57.153993 -215.883698 
L 55.450953 -212.24408 
L 53.747913 -212.879817 
L 52.044873 -219.005861 
L 50.341833 -228.439891 
L 48.638793 -238.605945 
L 46.935753 -245.721842 
L 45.232713 -246.579493 
L 43.529673 -241.996443 
L 41.826633 -234.996967 
L 40.123593 -229.636064 
L 38.420552 -228.266566 
z
" style="stroke: #1f77b4; stroke-opacity: 0.3"/>
    </defs>
    <g>
     <use xlink:href="#m55ad99dcc7" x="0" y="432" style="fill: #1f77b4; fill-opacity: 0.3; stroke: #1f77b4; stroke-opacity: 0.3"/>
    </g>
   </g>
   <g id="FillBetweenPolyCollection_2">
    <defs>
     <path id="m53de79b8e2" d="M 38.420552 -213.578789 
L 38.420552 -202.819406 
L 40.123593 -203.64746 
L 41.826633 -206.913967 
L 43.529673 -210.982136 
L 45.232713 -214.581111 
L 46.935753 -216.649296 
L 48.638793 -217.717721 
L 50.341833 -218.108425 
L 52.044873 -218.854582 
L 53.747913 -221.295384 
L 55.450953 -224.771227 
L 57.153993 -228.183468 
L 58.857033 -230.736437 
L 60.560073 -231.559924 
L 62.263113 -231.569168 
L 63.966154 -232.196933 
L 65.669194 -233.623281 
L 67.372234 -234.583595 
L 69.075274 -235.1207 
L 70.778314 -234.55587 
L 72.481354 -232.957309 
L 74.184394 -230.928437 
L 75.887434 -229.509603 
L 77.590474 -228.340154 
L 79.293514 -226.523582 
L 80.996554 -223.764933 
L 82.699594 -220.093747 
L 84.402634 -216.491747 
L 86.105674 -214.039674 
L 87.808714 -212.984224 
L 89.511755 -212.602318 
L 91.214795 -212.277198 
L 92.917835 -211.897283 
L 94.620875 -213.035923 
L 96.323915 -216.744048 
L 98.026955 -222.361497 
L 99.729995 -228.235128 
L 101.433035 -231.983422 
L 103.136075 -231.121362 
L 104.839115 -225.405084 
L 106.542155 -217.060593 
L 108.245195 -209.353472 
L 109.948235 -205.07172 
L 111.651275 -204.594789 
L 113.354315 -206.404934 
L 115.057356 -207.619875 
L 116.760396 -207.241009 
L 118.463436 -205.405639 
L 120.166476 -203.242759 
L 121.869516 -202.545282 
L 123.572556 -204.90644 
L 125.275596 -210.168484 
L 126.978636 -216.0693 
L 128.681676 -221.220292 
L 130.384716 -223.694765 
L 132.087756 -222.093455 
L 133.790796 -216.409547 
L 135.493836 -208.511837 
L 137.196876 -201.132255 
L 138.899916 -197.107647 
L 140.602957 -197.697003 
L 142.305997 -201.887345 
L 144.009037 -207.853805 
L 145.712077 -212.383565 
L 147.415117 -214.062731 
L 149.118157 -212.61102 
L 150.821197 -209.062442 
L 152.524237 -205.682169 
L 154.227277 -203.813925 
L 155.930317 -203.925385 
L 157.633357 -204.950823 
L 159.336397 -206.649812 
L 161.039437 -207.623988 
L 162.742477 -207.260081 
L 164.445517 -205.249357 
L 166.148558 -202.070678 
L 167.851598 -197.089951 
L 169.554638 -190.600593 
L 171.257678 -182.707366 
L 172.960718 -174.898586 
L 174.663758 -166.503633 
L 176.366798 -158.041489 
L 178.069838 -150.362784 
L 179.772878 -145.005869 
L 181.475918 -143.163716 
L 183.178958 -147.174733 
L 184.881998 -158.017095 
L 186.585038 -174.996582 
L 188.288078 -195.677175 
L 189.991118 -217.349779 
L 191.694159 -238.469932 
L 193.397199 -259.313962 
L 195.100239 -280.300214 
L 196.803279 -303.168536 
L 198.506319 -327.74921 
L 200.209359 -351.891988 
L 201.912399 -372.414532 
L 203.615439 -385.31604 
L 205.318479 -388.984825 
L 207.021519 -384.665048 
L 208.724559 -375.717678 
L 210.427599 -365.566742 
L 212.130639 -357.625691 
L 213.833679 -352.114536 
L 215.536719 -348.705052 
L 217.23976 -346.202803 
L 218.9428 -343.119611 
L 220.64584 -338.491977 
L 222.34888 -332.076355 
L 224.05192 -323.918825 
L 225.75496 -314.812568 
L 227.458 -304.555432 
L 229.16104 -294.534531 
L 230.86408 -286.446349 
L 232.56712 -280.806253 
L 234.27016 -277.230315 
L 235.9732 -274.542125 
L 237.67624 -271.012348 
L 239.37928 -266.492961 
L 241.08232 -261.776896 
L 242.785361 -258.841129 
L 244.488401 -259.65803 
L 246.191441 -264.360458 
L 247.894481 -271.793833 
L 249.597521 -280.832156 
L 251.300561 -290.187032 
L 253.003601 -299.20968 
L 254.706641 -306.871577 
L 256.409681 -311.751869 
L 258.112721 -312.768873 
L 259.815761 -308.09635 
L 261.518801 -297.816027 
L 263.221841 -284.247465 
L 264.924881 -272.249616 
L 266.627921 -266.726441 
L 268.330962 -268.290295 
L 270.034002 -273.866242 
L 271.737042 -279.125374 
L 273.440082 -280.488655 
L 275.143122 -277.553501 
L 276.846162 -274.606682 
L 278.549202 -276.68904 
L 280.252242 -287.177707 
L 281.955282 -305.52394 
L 283.658322 -325.983572 
L 285.361362 -343.708159 
L 287.064402 -355.207577 
L 288.767442 -362.020496 
L 290.470482 -366.686212 
L 292.173522 -372.957297 
L 293.876563 -381.438849 
L 295.579603 -388.855779 
L 297.282643 -390.699498 
L 298.985683 -385.302051 
L 300.688723 -373.860657 
L 302.391763 -360.016924 
L 304.094803 -347.441118 
L 305.797843 -337.68514 
L 307.500883 -329.229811 
L 309.203923 -319.021325 
L 310.906963 -305.83377 
L 312.610003 -290.987786 
L 314.313043 -279.310294 
L 316.016083 -274.799349 
L 317.719123 -278.630568 
L 319.422164 -287.550798 
L 321.125204 -295.938206 
L 322.828244 -298.452546 
L 324.531284 -293.44856 
L 326.234324 -284.588188 
L 327.937364 -276.745838 
L 329.640404 -273.086349 
L 331.343444 -273.629896 
L 333.046484 -274.276718 
L 334.749524 -270.650863 
L 336.452564 -260.570051 
L 338.155604 -246.135103 
L 339.858644 -232.573805 
L 341.561684 -225.237904 
L 343.264724 -225.843189 
L 344.967765 -232.949695 
L 346.670805 -241.953436 
L 348.373845 -247.859824 
L 350.076885 -248.181912 
L 351.779925 -244.444831 
L 353.482965 -240.191759 
L 355.186005 -238.25561 
L 356.889045 -240.726547 
L 358.592085 -247.290858 
L 360.295125 -256.388295 
L 361.998165 -266.980531 
L 363.701205 -277.974484 
L 365.404245 -288.770232 
L 367.107285 -297.698858 
L 368.810326 -304.071108 
L 370.513366 -305.945634 
L 372.216406 -304.745483 
L 373.919446 -301.853809 
L 375.622486 -299.348359 
L 377.325526 -298.743808 
L 379.028566 -299.92434 
L 380.731606 -301.125138 
L 382.434646 -300.0177 
L 384.137686 -296.553597 
L 385.840726 -291.759855 
L 387.543766 -286.992193 
L 389.246806 -283.640798 
L 390.949846 -281.988742 
L 392.652886 -281.278972 
L 394.355927 -281.110334 
L 396.058967 -280.832657 
L 397.762007 -279.991871 
L 399.465047 -278.863304 
L 401.168087 -276.952854 
L 402.871127 -275.729558 
L 404.574167 -276.024671 
L 406.277207 -278.698329 
L 407.980247 -283.84573 
L 409.683287 -290.009787 
L 411.386327 -295.235047 
L 413.089367 -296.280368 
L 414.792407 -293.212494 
L 416.495447 -287.44289 
L 418.198487 -282.017063 
L 419.901528 -280.311539 
L 421.604568 -282.396144 
L 423.307608 -284.962884 
L 425.010648 -284.686702 
L 426.713688 -279.326111 
L 428.416728 -270.406279 
L 430.119768 -260.49111 
L 431.822808 -252.743708 
L 433.525848 -249.810021 
L 435.228888 -251.218451 
L 436.931928 -254.773549 
L 438.634968 -259.806359 
L 440.338008 -265.500367 
L 442.041048 -271.337089 
L 443.744088 -276.766523 
L 445.447129 -279.46843 
L 447.150169 -278.983331 
L 448.853209 -275.484183 
L 450.556249 -271.499735 
L 452.259289 -270.040876 
L 453.962329 -272.591993 
L 455.665369 -278.208469 
L 457.368409 -284.344345 
L 459.071449 -288.340982 
L 460.774489 -288.332729 
L 462.477529 -286.583473 
L 464.180569 -285.039101 
L 465.883609 -284.791512 
L 467.586649 -285.313421 
L 469.289689 -284.441149 
L 470.99273 -281.023171 
L 472.69577 -275.659053 
L 474.39881 -270.874071 
L 476.10185 -269.39386 
L 477.80489 -271.879773 
L 479.50793 -276.593446 
L 481.21097 -280.458066 
L 482.91401 -282.117871 
L 484.61705 -281.582551 
L 486.32009 -279.275896 
L 488.02313 -276.829821 
L 489.72617 -275.311547 
L 491.42921 -275.067797 
L 493.13225 -274.954266 
L 494.83529 -275.030729 
L 496.538331 -274.646392 
L 498.241371 -274.538234 
L 499.944411 -274.52068 
L 501.647451 -274.334074 
L 503.350491 -273.384984 
L 505.053531 -271.413717 
L 506.756571 -269.781049 
L 508.459611 -269.965683 
L 510.162651 -272.65825 
L 511.865691 -277.233706 
L 513.568731 -282.984202 
L 515.271771 -287.93308 
L 516.974811 -290.054342 
L 518.677851 -289.291973 
L 520.380891 -287.193158 
L 522.083932 -285.89682 
L 523.786972 -286.683527 
L 525.490012 -288.682317 
L 527.193052 -290.600081 
L 528.896092 -290.020653 
L 530.599132 -285.612465 
L 532.302172 -279.081115 
L 534.005212 -272.928063 
L 535.708252 -268.660823 
L 537.411292 -267.640033 
L 539.114332 -267.589289 
L 540.817372 -266.811108 
L 542.520412 -264.4575 
L 544.223452 -261.324313 
L 545.926492 -259.298382 
L 547.629533 -259.87053 
L 549.332573 -262.492715 
L 551.035613 -264.664767 
L 552.738653 -264.114182 
L 554.441693 -261.197957 
L 556.144733 -257.38081 
L 557.847773 -255.462285 
L 559.550813 -257.287614 
L 561.253853 -262.220221 
L 561.253853 -277.553404 
L 561.253853 -277.553404 
L 559.550813 -272.842679 
L 557.847773 -271.331193 
L 556.144733 -273.373054 
L 554.441693 -277.316069 
L 552.738653 -280.454645 
L 551.035613 -280.105721 
L 549.332573 -277.365176 
L 547.629533 -274.232405 
L 545.926492 -272.986971 
L 544.223452 -274.596321 
L 542.520412 -277.636211 
L 540.817372 -280.523277 
L 539.114332 -281.915983 
L 537.411292 -282.455441 
L 535.708252 -283.840121 
L 534.005212 -287.497991 
L 532.302172 -293.519976 
L 530.599132 -300.129274 
L 528.896092 -304.577507 
L 527.193052 -305.782628 
L 525.490012 -304.28103 
L 523.786972 -302.137495 
L 522.083932 -301.408977 
L 520.380891 -302.339102 
L 518.677851 -304.069158 
L 516.974811 -304.566773 
L 515.271771 -302.771652 
L 513.568731 -298.587717 
L 511.865691 -293.016286 
L 510.162651 -288.189118 
L 508.459611 -285.549358 
L 506.756571 -285.531359 
L 505.053531 -286.551244 
L 503.350491 -288.193384 
L 501.647451 -289.701714 
L 499.944411 -290.571708 
L 498.241371 -290.83361 
L 496.538331 -290.85574 
L 494.83529 -290.862357 
L 493.13225 -290.423881 
L 491.42921 -290.130403 
L 489.72617 -290.358345 
L 488.02313 -291.500611 
L 486.32009 -293.874957 
L 484.61705 -296.791507 
L 482.91401 -297.663612 
L 481.21097 -295.985485 
L 479.50793 -291.818112 
L 477.80489 -287.038117 
L 476.10185 -284.186052 
L 474.39881 -285.355451 
L 472.69577 -289.911865 
L 470.99273 -295.435921 
L 469.289689 -298.49897 
L 467.586649 -299.206423 
L 465.883609 -298.859761 
L 464.180569 -299.000996 
L 462.477529 -300.31875 
L 460.774489 -302.296621 
L 459.071449 -302.691026 
L 457.368409 -299.00267 
L 455.665369 -292.681873 
L 453.962329 -286.495573 
L 452.259289 -283.832943 
L 450.556249 -285.19891 
L 448.853209 -289.448613 
L 447.150169 -293.032039 
L 445.447129 -293.354107 
L 443.744088 -290.462973 
L 442.041048 -285.159623 
L 440.338008 -279.011679 
L 438.634968 -273.191942 
L 436.931928 -268.341068 
L 435.228888 -264.53375 
L 433.525848 -263.43975 
L 431.822808 -266.433326 
L 430.119768 -274.190196 
L 428.416728 -284.53731 
L 426.713688 -293.971402 
L 425.010648 -299.250964 
L 423.307608 -299.255085 
L 421.604568 -296.271933 
L 419.901528 -293.917985 
L 418.198487 -295.495376 
L 416.495447 -300.866572 
L 414.792407 -307.091138 
L 413.089367 -311.031543 
L 411.386327 -310.501137 
L 409.683287 -305.580617 
L 407.980247 -299.132807 
L 406.277207 -293.634573 
L 404.574167 -290.598045 
L 402.871127 -289.996607 
L 401.168087 -291.230066 
L 399.465047 -293.026544 
L 397.762007 -294.60337 
L 396.058967 -295.266365 
L 394.355927 -295.300268 
L 392.652886 -294.999853 
L 390.949846 -296.022436 
L 389.246806 -298.042042 
L 387.543766 -301.768228 
L 385.840726 -307.338574 
L 384.137686 -313.04939 
L 382.434646 -316.603017 
L 380.731606 -317.41072 
L 379.028566 -316.184278 
L 377.325526 -314.696449 
L 375.622486 -315.087954 
L 373.919446 -317.683892 
L 372.216406 -320.991464 
L 370.513366 -323.205001 
L 368.810326 -321.559123 
L 367.107285 -315.421545 
L 365.404245 -305.856561 
L 363.701205 -294.22142 
L 361.998165 -282.061013 
L 360.295125 -271.238473 
L 358.592085 -262.437135 
L 356.889045 -256.114579 
L 355.186005 -253.901972 
L 353.482965 -255.330784 
L 351.779925 -259.240156 
L 350.076885 -262.671375 
L 348.373845 -262.475513 
L 346.670805 -257.295998 
L 344.967765 -249.290667 
L 343.264724 -242.28501 
L 341.561684 -241.646411 
L 339.858644 -248.727752 
L 338.155604 -262.279473 
L 336.452564 -276.564541 
L 334.749524 -286.984322 
L 333.046484 -290.261638 
L 331.343444 -289.189927 
L 329.640404 -288.233715 
L 327.937364 -291.511568 
L 326.234324 -299.367657 
L 324.531284 -308.50404 
L 322.828244 -313.86595 
L 321.125204 -311.832101 
L 319.422164 -303.272236 
L 317.719123 -294.276207 
L 316.016083 -290.051433 
L 314.313043 -294.35065 
L 312.610003 -306.339759 
L 310.906963 -320.808795 
L 309.203923 -333.600003 
L 307.500883 -343.50916 
L 305.797843 -351.665291 
L 304.094803 -361.211128 
L 302.391763 -373.654952 
L 300.688723 -387.621304 
L 298.985683 -398.904429 
L 297.282643 -404.268755 
L 295.579603 -402.532648 
L 293.876563 -395.984557 
L 292.173522 -388.33123 
L 290.470482 -382.495652 
L 288.767442 -377.616777 
L 287.064402 -370.89893 
L 285.361362 -358.995147 
L 283.658322 -340.925217 
L 281.955282 -320.608791 
L 280.252242 -302.84373 
L 278.549202 -292.750087 
L 276.846162 -290.407773 
L 275.143122 -292.962941 
L 273.440082 -294.837335 
L 271.737042 -292.702911 
L 270.034002 -286.929113 
L 268.330962 -281.296233 
L 266.627921 -280.057238 
L 264.924881 -286.121763 
L 263.221841 -298.321937 
L 261.518801 -311.878964 
L 259.815761 -322.539801 
L 258.112721 -327.163706 
L 256.409681 -325.390045 
L 254.706641 -319.799174 
L 253.003601 -311.716848 
L 251.300561 -302.83453 
L 249.597521 -293.622334 
L 247.894481 -284.980484 
L 246.191441 -277.38506 
L 244.488401 -272.929318 
L 242.785361 -272.267181 
L 241.08232 -274.928581 
L 239.37928 -279.58345 
L 237.67624 -284.108014 
L 235.9732 -287.852026 
L 234.27016 -291.234017 
L 232.56712 -295.263276 
L 230.86408 -300.543614 
L 229.16104 -308.436786 
L 227.458 -318.449853 
L 225.75496 -328.870521 
L 224.05192 -338.763843 
L 222.34888 -346.834671 
L 220.64584 -353.175494 
L 218.9428 -357.447208 
L 217.23976 -360.294192 
L 215.536719 -362.81921 
L 213.833679 -366.291682 
L 212.130639 -371.863105 
L 210.427599 -379.732141 
L 208.724559 -389.485715 
L 207.021519 -398.218788 
L 205.318479 -402.144757 
L 203.615439 -398.651919 
L 201.912399 -386.042118 
L 200.209359 -366.548742 
L 198.506319 -342.916409 
L 196.803279 -318.890034 
L 195.100239 -295.863601 
L 193.397199 -274.024429 
L 191.694159 -252.715041 
L 189.991118 -231.097234 
L 188.288078 -209.118782 
L 186.585038 -188.51089 
L 184.881998 -171.454095 
L 183.178958 -160.550371 
L 181.475918 -156.389747 
L 179.772878 -157.542731 
L 178.069838 -163.107452 
L 176.366798 -170.61356 
L 174.663758 -179.003845 
L 172.960718 -187.466624 
L 171.257678 -195.633092 
L 169.554638 -202.798758 
L 167.851598 -209.07331 
L 166.148558 -214.062224 
L 164.445517 -217.917745 
L 162.742477 -220.042142 
L 161.039437 -220.445271 
L 159.336397 -219.990148 
L 157.633357 -218.802821 
L 155.930317 -217.53477 
L 154.227277 -217.048373 
L 152.524237 -218.16881 
L 150.821197 -221.147216 
L 149.118157 -224.599104 
L 147.415117 -226.265894 
L 145.712077 -224.611575 
L 144.009037 -219.649865 
L 142.305997 -213.588461 
L 140.602957 -209.114261 
L 138.899916 -208.716612 
L 137.196876 -213.010946 
L 135.493836 -220.05926 
L 133.790796 -227.535587 
L 132.087756 -232.866847 
L 130.384716 -234.632447 
L 128.681676 -232.400558 
L 126.978636 -227.145909 
L 125.275596 -221.084591 
L 123.572556 -215.834928 
L 121.869516 -213.115296 
L 120.166476 -213.087226 
L 118.463436 -214.558812 
L 116.760396 -216.398939 
L 115.057356 -216.544283 
L 113.354315 -215.189028 
L 111.651275 -213.889678 
L 109.948235 -214.548672 
L 108.245195 -218.721802 
L 106.542155 -225.943901 
L 104.839115 -234.019957 
L 103.136075 -239.667562 
L 101.433035 -240.717791 
L 99.729995 -237.42018 
L 98.026955 -231.463913 
L 96.323915 -225.873146 
L 94.620875 -222.227911 
L 92.917835 -220.755753 
L 91.214795 -220.538722 
L 89.511755 -220.705885 
L 87.808714 -221.317004 
L 86.105674 -222.468211 
L 84.402634 -225.473984 
L 82.699594 -229.246021 
L 80.996554 -233.166471 
L 79.293514 -236.067609 
L 77.590474 -238.179476 
L 75.887434 -239.204403 
L 74.184394 -240.376652 
L 72.481354 -241.885314 
L 70.778314 -243.44441 
L 69.075274 -244.193727 
L 67.372234 -243.562006 
L 65.669194 -242.374766 
L 63.966154 -240.831106 
L 62.263113 -239.856871 
L 60.560073 -239.776805 
L 58.857033 -239.406701 
L 57.153993 -237.782594 
L 55.450953 -235.027828 
L 53.747913 -231.32595 
L 52.044873 -228.765401 
L 50.341833 -228.191599 
L 48.638793 -228.309646 
L 46.935753 -227.761711 
L 45.232713 -225.523877 
L 43.529673 -221.989139 
L 41.826633 -217.630139 
L 40.123593 -214.359819 
L 38.420552 -213.578789 
z
" style="stroke: #ff7f0e; stroke-opacity: 0.3"/>
    </defs>
    <g>
     <use xlink:href="#m53de79b8e2" x="0" y="432" style="fill: #ff7f0e; fill-opacity: 0.3; stroke: #ff7f0e; stroke-opacity: 0.3"/>
    </g>
   </g>
   <g id="line2d_21">
    <path d="M 38.420552 214.21196 
L 40.123593 212.478437 
L 41.826633 206.815779 
L 43.529673 199.895759 
L 45.232713 195.155596 
L 46.935753 195.343993 
L 48.638793 201.213151 
L 52.044873 220.254447 
L 53.747913 226.814506 
L 55.450953 228.567252 
L 57.153993 225.144427 
L 58.857033 218.006783 
L 60.560073 210.357547 
L 62.263113 205.052243 
L 63.966154 204.20332 
L 65.669194 208.25486 
L 67.372234 215.728595 
L 69.075274 223.870585 
L 70.778314 229.097506 
L 72.481354 228.690351 
L 74.184394 222.613613 
L 77.590474 203.454615 
L 79.293514 196.274385 
L 80.996554 191.991762 
L 82.699594 189.881246 
L 84.402634 189.800921 
L 86.105674 192.699697 
L 87.808714 200.563478 
L 89.511755 213.259905 
L 91.214795 227.217713 
L 92.917835 236.816654 
L 94.620875 236.961627 
L 96.323915 225.758173 
L 99.729995 188.038202 
L 101.433035 175.937952 
L 103.136075 173.059445 
L 104.839115 176.188834 
L 106.542155 180.21507 
L 108.245195 181.67125 
L 109.948235 181.184703 
L 111.651275 182.531762 
L 113.354315 189.441979 
L 115.057356 202.927339 
L 116.760396 219.456451 
L 118.463436 232.586357 
L 120.166476 238.81511 
L 121.869516 237.635401 
L 123.572556 231.167092 
L 125.275596 223.468697 
L 126.978636 216.989879 
L 128.681676 212.582414 
L 130.384716 209.489428 
L 132.087756 207.84365 
L 133.790796 207.894068 
L 135.493836 210.344378 
L 138.899916 219.4253 
L 140.602957 220.926139 
L 142.305997 218.728704 
L 144.009037 215.542413 
L 145.712077 214.737444 
L 147.415117 219.209453 
L 149.118157 229.038231 
L 150.821197 240.36929 
L 152.524237 249.310528 
L 154.227277 253.075765 
L 155.930317 251.437136 
L 157.633357 246.251424 
L 161.039437 233.41275 
L 162.742477 228.429909 
L 164.445517 224.49472 
L 166.148558 222.289124 
L 167.851598 222.979754 
L 169.554638 228.450054 
L 171.257678 239.40932 
L 172.960718 254.641288 
L 176.366798 287.155319 
L 178.069838 299.451197 
L 179.772878 305.730008 
L 181.475918 304.250548 
L 183.178958 294.561759 
L 184.881998 277.462984 
L 186.585038 254.7614 
L 189.991118 201.958885 
L 193.397199 148.61476 
L 195.100239 123.625947 
L 196.803279 102.228884 
L 198.506319 87.68201 
L 200.209359 82.932401 
L 201.912399 88.216054 
L 205.318479 111.540702 
L 207.021519 117.599952 
L 208.724559 115.048424 
L 210.427599 105.57624 
L 212.130639 93.435114 
L 213.833679 83.410553 
L 215.536719 78.106352 
L 217.23976 76.95122 
L 218.9428 77.728287 
L 220.64584 79.339105 
L 222.34888 82.393283 
L 224.05192 88.641918 
L 225.75496 100.570836 
L 227.458 118.580994 
L 230.86408 164.059229 
L 232.56712 183.143604 
L 234.27016 193.538694 
L 235.9732 192.064673 
L 237.67624 178.946694 
L 239.37928 158.136982 
L 241.08232 135.767096 
L 242.785361 117.50715 
L 244.488401 106.845905 
L 246.191441 102.710049 
L 247.894481 101.441279 
L 249.597521 99.357171 
L 253.003601 91.333292 
L 254.706641 91.971922 
L 256.409681 99.499685 
L 259.815761 124.455791 
L 261.518801 131.693264 
L 263.221841 132.85935 
L 264.924881 129.847105 
L 266.627921 127.455693 
L 268.330962 129.288788 
L 271.737042 141.174298 
L 273.440082 141.393016 
L 275.143122 133.120027 
L 276.846162 117.156102 
L 280.252242 77.634502 
L 281.955282 61.051825 
L 283.658322 48.762507 
L 285.361362 39.862509 
L 287.064402 33.86664 
L 288.767442 30.638107 
L 290.470482 30.675746 
L 292.173522 33.787887 
L 293.876563 39.661774 
L 295.579603 46.89021 
L 298.985683 63.482641 
L 300.688723 71.72559 
L 302.391763 79.107851 
L 304.094803 84.725068 
L 305.797843 87.590606 
L 307.500883 87.736451 
L 309.203923 85.850604 
L 310.906963 83.22136 
L 312.610003 81.865427 
L 314.313043 81.545623 
L 316.016083 81.704212 
L 317.719123 80.69917 
L 319.422164 77.944046 
L 321.125204 74.633693 
L 322.828244 72.305095 
L 324.531284 71.982704 
L 326.234324 73.195942 
L 327.937364 75.730846 
L 329.640404 79.79089 
L 331.343444 85.499519 
L 333.046484 93.944301 
L 334.749524 105.703545 
L 336.452564 119.750757 
L 338.155604 132.717937 
L 339.858644 140.576288 
L 341.561684 141.628987 
L 343.264724 135.949291 
L 346.670805 118.002578 
L 348.373845 111.963479 
L 350.076885 108.692612 
L 351.779925 106.113149 
L 353.482965 101.653322 
L 355.186005 94.768474 
L 358.592085 78.187264 
L 360.295125 71.759687 
L 361.998165 67.928429 
L 363.701205 65.871699 
L 365.404245 64.215948 
L 368.810326 61.716043 
L 370.513366 60.926958 
L 372.216406 61.469827 
L 373.919446 63.988795 
L 375.622486 69.272227 
L 377.325526 77.497584 
L 380.731606 96.96761 
L 382.434646 103.209394 
L 384.137686 104.788587 
L 385.840726 101.641552 
L 387.543766 95.977566 
L 389.246806 90.851448 
L 390.949846 88.368267 
L 392.652886 88.022751 
L 394.355927 86.47676 
L 396.058967 80.97223 
L 399.465047 62.84456 
L 401.168087 59.296638 
L 402.871127 64.325476 
L 404.574167 76.478114 
L 406.277207 89.881681 
L 407.980247 98.107526 
L 409.683287 98.509589 
L 411.386327 93.892987 
L 413.089367 90.549744 
L 414.792407 92.884749 
L 416.495447 100.869406 
L 418.198487 109.762587 
L 419.901528 114.233712 
L 421.604568 112.174109 
L 423.307608 106.509186 
L 425.010648 102.042713 
L 426.713688 102.684713 
L 428.416728 108.343052 
L 430.119768 115.740109 
L 431.822808 121.533565 
L 433.525848 124.363363 
L 435.228888 126.536563 
L 436.931928 131.199139 
L 438.634968 138.470274 
L 440.338008 145.036857 
L 442.041048 145.756659 
L 443.744088 137.701218 
L 445.447129 121.69272 
L 447.150169 104.154496 
L 448.853209 92.519088 
L 450.556249 91.948488 
L 452.259289 101.872975 
L 453.962329 117.371459 
L 455.665369 131.471875 
L 457.368409 139.192199 
L 459.071449 140.157118 
L 462.477529 133.874386 
L 464.180569 134.309788 
L 465.883609 139.282503 
L 467.586649 146.505357 
L 469.289689 151.903663 
L 470.99273 151.719187 
L 472.69577 146.050355 
L 474.39881 137.926969 
L 476.10185 131.361782 
L 477.80489 129.793591 
L 479.50793 133.300372 
L 481.21097 139.403123 
L 482.91401 144.241691 
L 484.61705 144.77144 
L 486.32009 141.184981 
L 488.02313 136.851128 
L 489.72617 135.198957 
L 491.42921 137.969749 
L 494.83529 149.250441 
L 496.538331 151.52942 
L 498.241371 150.718308 
L 499.944411 148.681221 
L 501.647451 147.881768 
L 503.350491 150.114421 
L 505.053531 155.047229 
L 506.756571 161.568348 
L 510.162651 175.989974 
L 511.865691 183.381629 
L 513.568731 189.813755 
L 515.271771 193.162559 
L 516.974811 190.905873 
L 518.677851 182.509947 
L 522.083932 155.675386 
L 523.786972 144.947305 
L 525.490012 140.114009 
L 527.193052 141.072357 
L 528.896092 145.25865 
L 530.599132 150.366005 
L 532.302172 154.907051 
L 534.005212 158.462035 
L 535.708252 161.117843 
L 537.411292 163.230618 
L 539.114332 164.774789 
L 540.817372 166.093437 
L 542.520412 167.957245 
L 544.223452 170.795957 
L 545.926492 174.313488 
L 547.629533 178.091102 
L 549.332573 181.389815 
L 551.035613 184.1466 
L 552.738653 186.649025 
L 554.441693 189.571437 
L 556.144733 192.832726 
L 557.847773 194.235058 
L 559.550813 190.32405 
L 561.253853 179.423321 
L 561.253853 179.423321 
" style="fill: none; stroke: #1f77b4; stroke-width: 1.5; stroke-linecap: square"/>
   </g>
   <g id="line2d_22">
    <path d="M 38.420552 223.771498 
L 40.123593 223.050119 
L 41.826633 219.923916 
L 43.529673 215.66463 
L 45.232713 211.968623 
L 46.935753 209.798882 
L 48.638793 209.00125 
L 50.341833 208.935983 
L 52.044873 208.128781 
L 53.747913 205.731501 
L 55.450953 202.16284 
L 57.153993 198.963346 
L 58.857033 196.89056 
L 60.560073 196.232922 
L 62.263113 196.109922 
L 63.966154 195.39322 
L 65.669194 194.017054 
L 67.372234 192.865839 
L 69.075274 192.428822 
L 70.778314 193.058201 
L 72.481354 194.598791 
L 74.184394 196.352614 
L 77.590474 198.824073 
L 79.293514 200.641466 
L 80.996554 203.542599 
L 84.402634 211.105524 
L 86.105674 213.761265 
L 87.808714 214.951498 
L 89.511755 215.406191 
L 91.214795 215.615328 
L 92.917835 215.54768 
L 94.620875 214.191742 
L 96.323915 210.506206 
L 99.729995 199.077851 
L 101.433035 195.636881 
L 103.136075 196.609932 
L 104.839115 202.296083 
L 106.542155 210.575578 
L 108.245195 217.9239 
L 109.948235 222.087335 
L 111.651275 222.538953 
L 113.354315 220.911108 
L 115.057356 219.702458 
L 116.760396 220.148778 
L 120.166476 224.122843 
L 121.869516 224.334968 
L 123.572556 221.751349 
L 125.275596 216.572971 
L 126.978636 210.447875 
L 128.681676 205.192255 
L 130.384716 202.823666 
L 132.087756 204.534958 
L 133.790796 210.088192 
L 135.493836 217.65099 
L 137.196876 224.691695 
L 138.899916 228.811557 
L 140.602957 228.505119 
L 142.305997 224.231197 
L 144.009037 218.21837 
L 145.712077 213.512489 
L 147.415117 211.999448 
L 149.118157 213.495123 
L 150.821197 216.845437 
L 152.524237 219.834987 
L 154.227277 221.229596 
L 155.930317 220.969313 
L 159.336397 218.361585 
L 161.039437 217.794054 
L 162.742477 218.286306 
L 164.445517 220.246103 
L 166.148558 223.705718 
L 167.851598 228.805842 
L 169.554638 235.288336 
L 171.257678 242.771611 
L 174.663758 259.291877 
L 176.366798 267.647366 
L 178.069838 275.163693 
L 179.772878 280.613862 
L 181.475918 282.126465 
L 183.178958 278.007829 
L 184.881998 267.13998 
L 186.585038 250.213874 
L 189.991118 207.600917 
L 196.803279 120.596653 
L 200.209359 72.480691 
L 201.912399 52.676025 
L 203.615439 39.91007 
L 205.318479 36.142823 
L 207.021519 40.432071 
L 208.724559 49.332305 
L 210.427599 59.203439 
L 212.130639 67.427296 
L 213.833679 72.973907 
L 215.536719 76.213554 
L 217.23976 78.665318 
L 218.9428 81.694677 
L 220.64584 86.193002 
L 222.34888 92.554778 
L 224.05192 100.598379 
L 225.75496 110.190382 
L 229.16104 130.282647 
L 230.86408 138.344366 
L 232.56712 144.063971 
L 234.27016 147.824912 
L 235.9732 150.890349 
L 237.67624 154.500249 
L 241.08232 163.83619 
L 242.785361 166.587729 
L 244.488401 165.896013 
L 246.191441 161.243029 
L 247.894481 153.586497 
L 253.003601 126.378897 
L 254.706641 118.666932 
L 256.409681 113.444997 
L 258.112721 112.259528 
L 259.815761 116.812475 
L 261.518801 127.262288 
L 263.221841 140.809344 
L 264.924881 152.737073 
L 266.627921 158.673318 
L 268.330962 157.519324 
L 271.737042 146.194284 
L 273.440082 144.429124 
L 275.143122 146.78066 
L 276.846162 149.519337 
L 278.549202 147.357746 
L 280.252242 137.012235 
L 281.955282 119.17545 
L 283.658322 98.604714 
L 285.361362 80.76003 
L 287.064402 68.870487 
L 288.767442 62.200084 
L 290.470482 57.370621 
L 292.173522 51.358356 
L 293.876563 43.487305 
L 295.579603 36.565447 
L 297.282643 34.699303 
L 298.985683 40.054232 
L 300.688723 51.414746 
L 302.391763 65.316954 
L 304.094803 77.871538 
L 305.797843 87.500443 
L 307.500883 95.754677 
L 309.203923 105.554614 
L 310.906963 118.56572 
L 312.610003 133.22664 
L 314.313043 145.11052 
L 316.016083 149.700669 
L 317.719123 145.863545 
L 319.422164 136.705295 
L 321.125204 128.323802 
L 322.828244 126.065935 
L 324.531284 131.074005 
L 326.234324 140.070537 
L 327.937364 147.947204 
L 329.640404 151.349534 
L 333.046484 149.67939 
L 334.749524 153.249221 
L 336.452564 163.431818 
L 339.858644 191.377726 
L 341.561684 198.828708 
L 343.264724 198.120848 
L 344.967765 190.987178 
L 346.670805 182.350496 
L 348.373845 176.992282 
L 350.076885 176.720046 
L 351.779925 180.256469 
L 353.482965 184.360812 
L 355.186005 186.005315 
L 356.889045 183.493585 
L 358.592085 177.146982 
L 360.295125 168.100034 
L 361.998165 157.35843 
L 365.404245 134.644235 
L 367.107285 125.292766 
L 368.810326 119.327795 
L 370.513366 117.45745 
L 372.216406 119.068246 
L 373.919446 122.209589 
L 375.622486 124.779006 
L 377.325526 125.280765 
L 380.731606 122.935591 
L 382.434646 123.810212 
L 384.137686 127.257428 
L 387.543766 137.60541 
L 389.246806 141.308754 
L 390.949846 143.199289 
L 392.652886 143.884679 
L 394.355927 143.784553 
L 396.058967 143.922522 
L 397.762007 144.613366 
L 399.465047 145.965633 
L 401.168087 147.809164 
L 402.871127 149.0898 
L 404.574167 148.617869 
L 406.277207 145.608027 
L 407.980247 140.261115 
L 409.683287 133.866388 
L 411.386327 128.9862 
L 413.089367 128.182593 
L 414.792407 131.788209 
L 416.495447 138.026121 
L 418.198487 143.413706 
L 419.901528 145.073895 
L 421.604568 142.940289 
L 423.307608 139.876347 
L 425.010648 139.89227 
L 426.713688 145.027838 
L 428.416728 154.298076 
L 430.119768 164.50293 
L 431.822808 172.196592 
L 433.525848 175.373601 
L 435.228888 174.232804 
L 436.931928 170.446956 
L 438.634968 165.415444 
L 443.744088 148.321074 
L 445.447129 145.363019 
L 447.150169 145.98599 
L 448.853209 149.586278 
L 450.556249 153.604964 
L 452.259289 155.055169 
L 453.962329 152.287405 
L 457.368409 140.097009 
L 459.071449 136.48092 
L 460.774489 136.536554 
L 462.477529 138.372568 
L 464.180569 139.874215 
L 465.883609 140.117796 
L 467.586649 139.796256 
L 469.289689 140.626765 
L 470.99273 143.925438 
L 472.69577 149.019889 
L 474.39881 153.497723 
L 476.10185 154.841899 
L 477.80489 152.333657 
L 479.50793 147.786769 
L 481.21097 143.766433 
L 482.91401 142.045793 
L 484.61705 142.886867 
L 488.02313 147.767717 
L 489.72617 149.058426 
L 491.42921 149.273967 
L 494.83529 149.074973 
L 499.944411 149.349434 
L 501.647451 149.76445 
L 503.350491 150.853133 
L 505.053531 152.682445 
L 506.756571 154.212178 
L 508.459611 154.183286 
L 510.162651 151.750063 
L 511.865691 147.0143 
L 513.568731 141.342552 
L 515.271771 136.701268 
L 516.974811 134.606763 
L 518.677851 135.255596 
L 520.380891 137.114805 
L 522.083932 138.205961 
L 523.786972 137.429271 
L 525.490012 135.383407 
L 527.193052 133.840202 
L 528.896092 134.803553 
L 530.599132 139.138945 
L 534.005212 151.942397 
L 535.708252 155.809021 
L 537.411292 156.988613 
L 539.114332 157.157701 
L 540.817372 158.249979 
L 542.520412 160.796216 
L 544.223452 164.035247 
L 545.926492 165.753189 
L 547.629533 164.78869 
L 549.332573 162.020144 
L 551.035613 159.604532 
L 552.738653 159.680567 
L 554.441693 162.687603 
L 556.144733 166.650959 
L 557.847773 168.611951 
L 559.550813 167.049095 
L 561.253853 162.241268 
L 561.253853 162.241268 
" style="fill: none; stroke: #ff7f0e; stroke-width: 1.5; stroke-linecap: square"/>
   </g>
  </g>
  <g id="axes_2">
   <g id="PathCollection_1">
    <defs>
     <path id="C0_0_6a112de012" d="M 0 1.118034 
C 0.296506 1.118034 0.580908 1.000231 0.790569 0.790569 
C 1.000231 0.580908 1.118034 0.296506 1.118034 -0 
C 1.118034 -0.296506 1.000231 -0.580908 0.790569 -0.790569 
C 0.580908 -1.000231 0.296506 -1.118034 0 -1.118034 
C -0.296506 -1.118034 -0.580908 -1.000231 -0.790569 -0.790569 
C -1.000231 -0.580908 -1.118034 -0.296506 -1.118034 0 
C -1.118034 0.296506 -1.000231 0.580908 -0.790569 0.790569 
C -0.580908 1.000231 -0.296506 1.118034 0 1.118034 
z
"/>
    </defs>
    <g clip-path="url(#pe00081eb30)">
     <use xlink:href="#C0_0_6a112de012" x="524.812575" y="46.986771" style="stroke: #000000"/>
    </g>
    <g clip-path="url(#pe00081eb30)">
     <use xlink:href="#C0_0_6a112de012" x="526.99213" y="56.976733" style="stroke: #000000"/>
    </g>
    <g clip-path="url(#pe00081eb30)">
     <use xlink:href="#C0_0_6a112de012" x="493.741484" y="47.286489" style="stroke: #000000"/>
    </g>
    <g clip-path="url(#pe00081eb30)">
     <use xlink:href="#C0_0_6a112de012" x="491.618991" y="57.129459" style="stroke: #000000"/>
    </g>
   </g>
   <g id="matplotlib.axis_3"/>
   <g id="matplotlib.axis_4"/>
   <g id="line2d_23">
    <path d="M 548.859194 73.63672 
L 548.781507 71.164689 
L 548.548754 68.702415 
L 548.161852 66.259613 
L 547.622329 63.845926 
L 546.932314 61.470879 
L 546.09453 59.143845 
L 545.112284 56.874007 
L 543.989451 54.670325 
L 542.730464 52.541494 
L 541.340291 50.495916 
L 539.824418 48.541664 
L 538.188828 46.686451 
L 536.439975 44.937599 
L 534.584762 43.302008 
L 532.630511 41.786136 
L 530.584933 40.395962 
L 528.456102 39.136975 
L 526.252419 38.014143 
L 523.982582 37.031896 
L 521.655547 36.194112 
L 519.2805 35.504097 
L 516.866813 34.964574 
L 514.424012 34.577673 
L 511.961737 34.344919 
L 509.489707 34.267233 
L 507.017676 34.344919 
L 504.555402 34.577673 
L 502.1126 34.964574 
L 499.698913 35.504097 
L 497.323866 36.194112 
L 494.996832 37.031896 
L 492.726994 38.014143 
L 490.523312 39.136975 
L 488.394481 40.395962 
L 486.348903 41.786136 
L 484.394651 43.302008 
L 482.539438 44.937599 
L 480.790586 46.686451 
L 479.154995 48.541664 
L 477.639123 50.495916 
L 476.248949 52.541494 
L 474.989962 54.670325 
L 473.86713 56.874007 
L 472.884883 59.143845 
L 472.047099 61.470879 
L 471.357084 63.845926 
L 470.817561 66.259613 
L 470.43066 68.702415 
L 470.197906 71.164689 
L 470.12022 73.63672 
L 470.197906 76.10875 
L 470.43066 78.571025 
L 470.817561 81.013826 
L 471.357084 83.427513 
L 472.047099 85.80256 
L 472.884883 88.129595 
L 473.86713 90.399432 
L 474.989962 92.603115 
L 476.248949 94.731946 
L 477.639123 96.777524 
L 479.154995 98.731775 
L 480.790586 100.586988 
L 482.539438 102.335841 
L 484.394651 103.971431 
L 486.348903 105.487304 
L 488.394481 106.877477 
L 490.523312 108.136464 
L 492.726994 109.259297 
L 494.996832 110.241543 
L 497.323866 111.079327 
L 499.698913 111.769342 
L 502.1126 112.308865 
L 504.555402 112.695767 
L 507.017676 112.92852 
L 509.489707 113.006207 
L 511.961737 112.92852 
L 514.424012 112.695767 
L 516.866813 112.308865 
L 519.2805 111.769342 
L 521.655547 111.079327 
L 523.982582 110.241543 
L 526.252419 109.259297 
L 528.456102 108.136464 
L 530.584933 106.877477 
L 532.630511 105.487304 
L 534.584762 103.971431 
L 536.439975 102.335841 
L 538.188828 100.586988 
L 539.824418 98.731775 
L 541.340291 96.777524 
L 542.730464 94.731946 
L 543.989451 92.603115 
L 545.112284 90.399432 
L 546.09453 88.129595 
L 546.932314 85.80256 
L 547.622329 83.427513 
L 548.161852 81.013826 
L 548.548754 78.571025 
L 548.781507 76.10875 
L 548.859194 73.63672 
" style="fill: none; stroke: #000000; stroke-linecap: square"/>
   </g>
   <g id="line2d_24">
    <path d="M 501.244181 35.140385 
L 509.489707 28.361809 
L 517.735233 35.140385 
" style="fill: none; stroke: #000000; stroke-linecap: square"/>
   </g>
   <g id="line2d_25">
    <path d="M 470.356436 69.266707 
L 469.33283 67.534449 
L 468.702918 67.471458 
L 467.765924 67.762792 
L 466.821057 69.266707 
L 466.970661 74.069784 
L 466.419488 80.975192 
L 467.600572 83.975147 
L 469.33283 84.534194 
L 470.986348 83.077523 
" style="fill: none; stroke: #000000; stroke-linecap: square"/>
   </g>
   <g id="line2d_26">
    <path d="M 548.622977 69.266707 
L 549.646584 67.534449 
L 550.276495 67.471458 
L 551.213489 67.762792 
L 552.158357 69.266707 
L 552.008753 74.069784 
L 552.559926 80.975192 
L 551.378841 83.975147 
L 549.646584 84.534194 
L 547.993065 83.077523 
" style="fill: none; stroke: #000000; stroke-linecap: square"/>
   </g>
  </g>
 </g>
 <defs>
  <clipPath id="p105bb0b327">
   <rect x="38.420552" y="18.118365" width="523.446395" height="380.525145"/>
  </clipPath>
  <clipPath id="pe00081eb30">
   <rect x="462.112466" y="24.12959" width="94.754482" height="93.108837"/>
  </clipPath>
 </defs>
</svg>
