<?xml version="1.0" encoding="utf-8" standalone="no"?>
<!DOCTYPE svg PUBLIC "-//W3C//DTD SVG 1.1//EN"
  "http://www.w3.org/Graphics/SVG/1.1/DTD/svg11.dtd">
<svg xmlns:xlink="http://www.w3.org/1999/xlink" width="576pt" height="432pt" viewBox="0 0 576 432" xmlns="http://www.w3.org/2000/svg" version="1.1">
 <metadata>
  <rdf:RDF xmlns:dc="http://purl.org/dc/elements/1.1/" xmlns:cc="http://creativecommons.org/ns#" xmlns:rdf="http://www.w3.org/1999/02/22-rdf-syntax-ns#">
   <cc:Work>
    <dc:type rdf:resource="http://purl.org/dc/dcmitype/StillImage"/>
    <dc:date>2025-02-17T18:05:59.799898</dc:date>
    <dc:format>image/svg+xml</dc:format>
    <dc:creator>
     <cc:Agent>
      <dc:title>Matplotlib v3.10.0, https://matplotlib.org/</dc:title>
     </cc:Agent>
    </dc:creator>
   </cc:Work>
  </rdf:RDF>
 </metadata>
 <defs>
  <style type="text/css">*{stroke-linejoin: round; stroke-linecap: butt}</style>
 </defs>
 <g id="figure_1">
  <g id="patch_1">
   <path d="M 0 432 
L 576 432 
L 576 0 
L 0 0 
z
" style="fill: #ffffff"/>
  </g>
  <g id="axes_1">
   <g id="patch_2">
    <path d="M 38.420552 398.64351 
L 561.866948 398.64351 
L 561.866948 18.118365 
L 38.420552 18.118365 
L 38.420552 398.64351 
z
" style="fill: none; opacity: 0"/>
   </g>
   <g id="patch_3">
    <path d="M 38.420552 394.943311 
L 38.420552 21.818564 
" style="fill: none; stroke: #000000; stroke-width: 0.8; stroke-linejoin: miter; stroke-linecap: square"/>
   </g>
   <g id="LineCollection_1">
    <path d="M 156.407168 18.118365 
L 156.407168 398.64351 
" clip-path="url(#p1532861f5b)" style="fill: none; stroke-dasharray: 3.7,1.6; stroke-dashoffset: 0; stroke: #000000"/>
    <path d="M 195.645211 18.118365 
L 195.645211 398.64351 
" clip-path="url(#p1532861f5b)" style="fill: none; stroke-dasharray: 3.7,1.6; stroke-dashoffset: 0; stroke: #000000"/>
   </g>
   <g id="matplotlib.axis_1">
    <g id="xtick_1">
     <g id="line2d_1">
      <defs>
       <path id="mda411455a4" d="M 0 0 
L 0 3.5 
" style="stroke: #000000; stroke-width: 0.8"/>
      </defs>
      <g>
       <use xlink:href="#mda411455a4" x="38.693039" y="398.64351" style="stroke: #000000; stroke-width: 0.8"/>
      </g>
     </g>
     <g id="text_1">
      <!-- −0.20 -->
      <g transform="translate(23.370383 413.241947) scale(0.1 -0.1)">
       <defs>
        <path id="DejaVuSans-2212" d="M 678 2272 
L 4684 2272 
L 4684 1741 
L 678 1741 
L 678 2272 
z
" transform="scale(0.015625)"/>
        <path id="DejaVuSans-30" d="M 2034 4250 
Q 1547 4250 1301 3770 
Q 1056 3291 1056 2328 
Q 1056 1369 1301 889 
Q 1547 409 2034 409 
Q 2525 409 2770 889 
Q 3016 1369 3016 2328 
Q 3016 3291 2770 3770 
Q 2525 4250 2034 4250 
z
M 2034 4750 
Q 2819 4750 3233 4129 
Q 3647 3509 3647 2328 
Q 3647 1150 3233 529 
Q 2819 -91 2034 -91 
Q 1250 -91 836 529 
Q 422 1150 422 2328 
Q 422 3509 836 4129 
Q 1250 4750 2034 4750 
z
" transform="scale(0.015625)"/>
        <path id="DejaVuSans-2e" d="M 684 794 
L 1344 794 
L 1344 0 
L 684 0 
L 684 794 
z
" transform="scale(0.015625)"/>
        <path id="DejaVuSans-32" d="M 1228 531 
L 3431 531 
L 3431 0 
L 469 0 
L 469 531 
Q 828 903 1448 1529 
Q 2069 2156 2228 2338 
Q 2531 2678 2651 2914 
Q 2772 3150 2772 3378 
Q 2772 3750 2511 3984 
Q 2250 4219 1831 4219 
Q 1534 4219 1204 4116 
Q 875 4013 500 3803 
L 500 4441 
Q 881 4594 1212 4672 
Q 1544 4750 1819 4750 
Q 2544 4750 2975 4387 
Q 3406 4025 3406 3419 
Q 3406 3131 3298 2873 
Q 3191 2616 2906 2266 
Q 2828 2175 2409 1742 
Q 1991 1309 1228 531 
z
" transform="scale(0.015625)"/>
       </defs>
       <use xlink:href="#DejaVuSans-2212"/>
       <use xlink:href="#DejaVuSans-30" transform="translate(83.789062 0)"/>
       <use xlink:href="#DejaVuSans-2e" transform="translate(147.412109 0)"/>
       <use xlink:href="#DejaVuSans-32" transform="translate(179.199219 0)"/>
       <use xlink:href="#DejaVuSans-30" transform="translate(242.822266 0)"/>
      </g>
     </g>
    </g>
    <g id="xtick_2">
     <g id="line2d_2">
      <g>
       <use xlink:href="#mda411455a4" x="125.88869" y="398.64351" style="stroke: #000000; stroke-width: 0.8"/>
      </g>
     </g>
     <g id="text_2">
      <!-- 0.00 -->
      <g transform="translate(114.755878 413.241947) scale(0.1 -0.1)">
       <use xlink:href="#DejaVuSans-30"/>
       <use xlink:href="#DejaVuSans-2e" transform="translate(63.623047 0)"/>
       <use xlink:href="#DejaVuSans-30" transform="translate(95.410156 0)"/>
       <use xlink:href="#DejaVuSans-30" transform="translate(159.033203 0)"/>
      </g>
     </g>
    </g>
    <g id="xtick_3">
     <g id="line2d_3">
      <g>
       <use xlink:href="#mda411455a4" x="156.407168" y="398.64351" style="stroke: #000000; stroke-width: 0.8"/>
      </g>
     </g>
     <g id="text_3">
      <!-- 0.07 -->
      <g transform="translate(145.274356 413.241947) scale(0.1 -0.1)">
       <defs>
        <path id="DejaVuSans-37" d="M 525 4666 
L 3525 4666 
L 3525 4397 
L 1831 0 
L 1172 0 
L 2766 4134 
L 525 4134 
L 525 4666 
z
" transform="scale(0.015625)"/>
       </defs>
       <use xlink:href="#DejaVuSans-30"/>
       <use xlink:href="#DejaVuSans-2e" transform="translate(63.623047 0)"/>
       <use xlink:href="#DejaVuSans-30" transform="translate(95.410156 0)"/>
       <use xlink:href="#DejaVuSans-37" transform="translate(159.033203 0)"/>
      </g>
     </g>
    </g>
    <g id="xtick_4">
     <g id="line2d_4">
      <g>
       <use xlink:href="#mda411455a4" x="195.645211" y="398.64351" style="stroke: #000000; stroke-width: 0.8"/>
      </g>
     </g>
     <g id="text_4">
      <!-- 0.16 -->
      <g transform="translate(184.512399 413.241947) scale(0.1 -0.1)">
       <defs>
        <path id="DejaVuSans-31" d="M 794 531 
L 1825 531 
L 1825 4091 
L 703 3866 
L 703 4441 
L 1819 4666 
L 2450 4666 
L 2450 531 
L 3481 531 
L 3481 0 
L 794 0 
L 794 531 
z
" transform="scale(0.015625)"/>
        <path id="DejaVuSans-36" d="M 2113 2584 
Q 1688 2584 1439 2293 
Q 1191 2003 1191 1497 
Q 1191 994 1439 701 
Q 1688 409 2113 409 
Q 2538 409 2786 701 
Q 3034 994 3034 1497 
Q 3034 2003 2786 2293 
Q 2538 2584 2113 2584 
z
M 3366 4563 
L 3366 3988 
Q 3128 4100 2886 4159 
Q 2644 4219 2406 4219 
Q 1781 4219 1451 3797 
Q 1122 3375 1075 2522 
Q 1259 2794 1537 2939 
Q 1816 3084 2150 3084 
Q 2853 3084 3261 2657 
Q 3669 2231 3669 1497 
Q 3669 778 3244 343 
Q 2819 -91 2113 -91 
Q 1303 -91 875 529 
Q 447 1150 447 2328 
Q 447 3434 972 4092 
Q 1497 4750 2381 4750 
Q 2619 4750 2861 4703 
Q 3103 4656 3366 4563 
z
" transform="scale(0.015625)"/>
       </defs>
       <use xlink:href="#DejaVuSans-30"/>
       <use xlink:href="#DejaVuSans-2e" transform="translate(63.623047 0)"/>
       <use xlink:href="#DejaVuSans-31" transform="translate(95.410156 0)"/>
       <use xlink:href="#DejaVuSans-36" transform="translate(159.033203 0)"/>
      </g>
     </g>
    </g>
    <g id="xtick_5">
     <g id="line2d_5">
      <g>
       <use xlink:href="#mda411455a4" x="213.084342" y="398.64351" style="stroke: #000000; stroke-width: 0.8"/>
      </g>
     </g>
     <g id="text_5">
      <!-- 0.20 -->
      <g transform="translate(201.951529 413.241947) scale(0.1 -0.1)">
       <use xlink:href="#DejaVuSans-30"/>
       <use xlink:href="#DejaVuSans-2e" transform="translate(63.623047 0)"/>
       <use xlink:href="#DejaVuSans-32" transform="translate(95.410156 0)"/>
       <use xlink:href="#DejaVuSans-30" transform="translate(159.033203 0)"/>
      </g>
     </g>
    </g>
    <g id="xtick_6">
     <g id="line2d_6">
      <g>
       <use xlink:href="#mda411455a4" x="300.279993" y="398.64351" style="stroke: #000000; stroke-width: 0.8"/>
      </g>
     </g>
     <g id="text_6">
      <!-- 0.40 -->
      <g transform="translate(289.147181 413.241947) scale(0.1 -0.1)">
       <defs>
        <path id="DejaVuSans-34" d="M 2419 4116 
L 825 1625 
L 2419 1625 
L 2419 4116 
z
M 2253 4666 
L 3047 4666 
L 3047 1625 
L 3713 1625 
L 3713 1100 
L 3047 1100 
L 3047 0 
L 2419 0 
L 2419 1100 
L 313 1100 
L 313 1709 
L 2253 4666 
z
" transform="scale(0.015625)"/>
       </defs>
       <use xlink:href="#DejaVuSans-30"/>
       <use xlink:href="#DejaVuSans-2e" transform="translate(63.623047 0)"/>
       <use xlink:href="#DejaVuSans-34" transform="translate(95.410156 0)"/>
       <use xlink:href="#DejaVuSans-30" transform="translate(159.033203 0)"/>
      </g>
     </g>
    </g>
    <g id="xtick_7">
     <g id="line2d_7">
      <g>
       <use xlink:href="#mda411455a4" x="387.475645" y="398.64351" style="stroke: #000000; stroke-width: 0.8"/>
      </g>
     </g>
     <g id="text_7">
      <!-- 0.60 -->
      <g transform="translate(376.342832 413.241947) scale(0.1 -0.1)">
       <use xlink:href="#DejaVuSans-30"/>
       <use xlink:href="#DejaVuSans-2e" transform="translate(63.623047 0)"/>
       <use xlink:href="#DejaVuSans-36" transform="translate(95.410156 0)"/>
       <use xlink:href="#DejaVuSans-30" transform="translate(159.033203 0)"/>
      </g>
     </g>
    </g>
    <g id="xtick_8">
     <g id="line2d_8">
      <g>
       <use xlink:href="#mda411455a4" x="474.671296" y="398.64351" style="stroke: #000000; stroke-width: 0.8"/>
      </g>
     </g>
     <g id="text_8">
      <!-- 0.80 -->
      <g transform="translate(463.538484 413.241947) scale(0.1 -0.1)">
       <defs>
        <path id="DejaVuSans-38" d="M 2034 2216 
Q 1584 2216 1326 1975 
Q 1069 1734 1069 1313 
Q 1069 891 1326 650 
Q 1584 409 2034 409 
Q 2484 409 2743 651 
Q 3003 894 3003 1313 
Q 3003 1734 2745 1975 
Q 2488 2216 2034 2216 
z
M 1403 2484 
Q 997 2584 770 2862 
Q 544 3141 544 3541 
Q 544 4100 942 4425 
Q 1341 4750 2034 4750 
Q 2731 4750 3128 4425 
Q 3525 4100 3525 3541 
Q 3525 3141 3298 2862 
Q 3072 2584 2669 2484 
Q 3125 2378 3379 2068 
Q 3634 1759 3634 1313 
Q 3634 634 3220 271 
Q 2806 -91 2034 -91 
Q 1263 -91 848 271 
Q 434 634 434 1313 
Q 434 1759 690 2068 
Q 947 2378 1403 2484 
z
M 1172 3481 
Q 1172 3119 1398 2916 
Q 1625 2713 2034 2713 
Q 2441 2713 2670 2916 
Q 2900 3119 2900 3481 
Q 2900 3844 2670 4047 
Q 2441 4250 2034 4250 
Q 1625 4250 1398 4047 
Q 1172 3844 1172 3481 
z
" transform="scale(0.015625)"/>
       </defs>
       <use xlink:href="#DejaVuSans-30"/>
       <use xlink:href="#DejaVuSans-2e" transform="translate(63.623047 0)"/>
       <use xlink:href="#DejaVuSans-38" transform="translate(95.410156 0)"/>
       <use xlink:href="#DejaVuSans-30" transform="translate(159.033203 0)"/>
      </g>
     </g>
    </g>
    <g id="xtick_9">
     <g id="line2d_9">
      <g>
       <use xlink:href="#mda411455a4" x="561.866948" y="398.64351" style="stroke: #000000; stroke-width: 0.8"/>
      </g>
     </g>
     <g id="text_9">
      <!-- 1.00 -->
      <g transform="translate(550.734135 413.241947) scale(0.1 -0.1)">
       <use xlink:href="#DejaVuSans-31"/>
       <use xlink:href="#DejaVuSans-2e" transform="translate(63.623047 0)"/>
       <use xlink:href="#DejaVuSans-30" transform="translate(95.410156 0)"/>
       <use xlink:href="#DejaVuSans-30" transform="translate(159.033203 0)"/>
      </g>
     </g>
    </g>
    <g id="text_10">
     <!-- Time (s) -->
     <g transform="translate(279.814844 426.920073) scale(0.1 -0.1)">
      <defs>
       <path id="DejaVuSans-54" d="M -19 4666 
L 3928 4666 
L 3928 4134 
L 2272 4134 
L 2272 0 
L 1638 0 
L 1638 4134 
L -19 4134 
L -19 4666 
z
" transform="scale(0.015625)"/>
       <path id="DejaVuSans-69" d="M 603 3500 
L 1178 3500 
L 1178 0 
L 603 0 
L 603 3500 
z
M 603 4863 
L 1178 4863 
L 1178 4134 
L 603 4134 
L 603 4863 
z
" transform="scale(0.015625)"/>
       <path id="DejaVuSans-6d" d="M 3328 2828 
Q 3544 3216 3844 3400 
Q 4144 3584 4550 3584 
Q 5097 3584 5394 3201 
Q 5691 2819 5691 2113 
L 5691 0 
L 5113 0 
L 5113 2094 
Q 5113 2597 4934 2840 
Q 4756 3084 4391 3084 
Q 3944 3084 3684 2787 
Q 3425 2491 3425 1978 
L 3425 0 
L 2847 0 
L 2847 2094 
Q 2847 2600 2669 2842 
Q 2491 3084 2119 3084 
Q 1678 3084 1418 2786 
Q 1159 2488 1159 1978 
L 1159 0 
L 581 0 
L 581 3500 
L 1159 3500 
L 1159 2956 
Q 1356 3278 1631 3431 
Q 1906 3584 2284 3584 
Q 2666 3584 2933 3390 
Q 3200 3197 3328 2828 
z
" transform="scale(0.015625)"/>
       <path id="DejaVuSans-65" d="M 3597 1894 
L 3597 1613 
L 953 1613 
Q 991 1019 1311 708 
Q 1631 397 2203 397 
Q 2534 397 2845 478 
Q 3156 559 3463 722 
L 3463 178 
Q 3153 47 2828 -22 
Q 2503 -91 2169 -91 
Q 1331 -91 842 396 
Q 353 884 353 1716 
Q 353 2575 817 3079 
Q 1281 3584 2069 3584 
Q 2775 3584 3186 3129 
Q 3597 2675 3597 1894 
z
M 3022 2063 
Q 3016 2534 2758 2815 
Q 2500 3097 2075 3097 
Q 1594 3097 1305 2825 
Q 1016 2553 972 2059 
L 3022 2063 
z
" transform="scale(0.015625)"/>
       <path id="DejaVuSans-20" transform="scale(0.015625)"/>
       <path id="DejaVuSans-28" d="M 1984 4856 
Q 1566 4138 1362 3434 
Q 1159 2731 1159 2009 
Q 1159 1288 1364 580 
Q 1569 -128 1984 -844 
L 1484 -844 
Q 1016 -109 783 600 
Q 550 1309 550 2009 
Q 550 2706 781 3412 
Q 1013 4119 1484 4856 
L 1984 4856 
z
" transform="scale(0.015625)"/>
       <path id="DejaVuSans-73" d="M 2834 3397 
L 2834 2853 
Q 2591 2978 2328 3040 
Q 2066 3103 1784 3103 
Q 1356 3103 1142 2972 
Q 928 2841 928 2578 
Q 928 2378 1081 2264 
Q 1234 2150 1697 2047 
L 1894 2003 
Q 2506 1872 2764 1633 
Q 3022 1394 3022 966 
Q 3022 478 2636 193 
Q 2250 -91 1575 -91 
Q 1294 -91 989 -36 
Q 684 19 347 128 
L 347 722 
Q 666 556 975 473 
Q 1284 391 1588 391 
Q 1994 391 2212 530 
Q 2431 669 2431 922 
Q 2431 1156 2273 1281 
Q 2116 1406 1581 1522 
L 1381 1569 
Q 847 1681 609 1914 
Q 372 2147 372 2553 
Q 372 3047 722 3315 
Q 1072 3584 1716 3584 
Q 2034 3584 2315 3537 
Q 2597 3491 2834 3397 
z
" transform="scale(0.015625)"/>
       <path id="DejaVuSans-29" d="M 513 4856 
L 1013 4856 
Q 1481 4119 1714 3412 
Q 1947 2706 1947 2009 
Q 1947 1309 1714 600 
Q 1481 -109 1013 -844 
L 513 -844 
Q 928 -128 1133 580 
Q 1338 1288 1338 2009 
Q 1338 2731 1133 3434 
Q 928 4138 513 4856 
z
" transform="scale(0.015625)"/>
      </defs>
      <use xlink:href="#DejaVuSans-54"/>
      <use xlink:href="#DejaVuSans-69" transform="translate(57.958984 0)"/>
      <use xlink:href="#DejaVuSans-6d" transform="translate(85.742188 0)"/>
      <use xlink:href="#DejaVuSans-65" transform="translate(183.154297 0)"/>
      <use xlink:href="#DejaVuSans-20" transform="translate(244.677734 0)"/>
      <use xlink:href="#DejaVuSans-28" transform="translate(276.464844 0)"/>
      <use xlink:href="#DejaVuSans-73" transform="translate(315.478516 0)"/>
      <use xlink:href="#DejaVuSans-29" transform="translate(367.578125 0)"/>
     </g>
    </g>
   </g>
   <g id="matplotlib.axis_2">
    <g id="ytick_1">
     <g id="line2d_10">
      <defs>
       <path id="m583daba7ec" d="M 0 0 
L -3.5 0 
" style="stroke: #000000; stroke-width: 0.8"/>
      </defs>
      <g>
       <use xlink:href="#m583daba7ec" x="38.420552" y="394.943311" style="stroke: #000000; stroke-width: 0.8"/>
      </g>
     </g>
     <g id="text_11">
      <!-- −4 -->
      <g transform="translate(16.678365 398.74253) scale(0.1 -0.1)">
       <use xlink:href="#DejaVuSans-2212"/>
       <use xlink:href="#DejaVuSans-34" transform="translate(83.789062 0)"/>
      </g>
     </g>
    </g>
    <g id="ytick_2">
     <g id="line2d_11">
      <g>
       <use xlink:href="#m583daba7ec" x="38.420552" y="348.302718" style="stroke: #000000; stroke-width: 0.8"/>
      </g>
     </g>
     <g id="text_12">
      <!-- −3 -->
      <g transform="translate(16.678365 352.101936) scale(0.1 -0.1)">
       <defs>
        <path id="DejaVuSans-33" d="M 2597 2516 
Q 3050 2419 3304 2112 
Q 3559 1806 3559 1356 
Q 3559 666 3084 287 
Q 2609 -91 1734 -91 
Q 1441 -91 1130 -33 
Q 819 25 488 141 
L 488 750 
Q 750 597 1062 519 
Q 1375 441 1716 441 
Q 2309 441 2620 675 
Q 2931 909 2931 1356 
Q 2931 1769 2642 2001 
Q 2353 2234 1838 2234 
L 1294 2234 
L 1294 2753 
L 1863 2753 
Q 2328 2753 2575 2939 
Q 2822 3125 2822 3475 
Q 2822 3834 2567 4026 
Q 2313 4219 1838 4219 
Q 1578 4219 1281 4162 
Q 984 4106 628 3988 
L 628 4550 
Q 988 4650 1302 4700 
Q 1616 4750 1894 4750 
Q 2613 4750 3031 4423 
Q 3450 4097 3450 3541 
Q 3450 3153 3228 2886 
Q 3006 2619 2597 2516 
z
" transform="scale(0.015625)"/>
       </defs>
       <use xlink:href="#DejaVuSans-2212"/>
       <use xlink:href="#DejaVuSans-33" transform="translate(83.789062 0)"/>
      </g>
     </g>
    </g>
    <g id="ytick_3">
     <g id="line2d_12">
      <g>
       <use xlink:href="#m583daba7ec" x="38.420552" y="301.662124" style="stroke: #000000; stroke-width: 0.8"/>
      </g>
     </g>
     <g id="text_13">
      <!-- −2 -->
      <g transform="translate(16.678365 305.461343) scale(0.1 -0.1)">
       <use xlink:href="#DejaVuSans-2212"/>
       <use xlink:href="#DejaVuSans-32" transform="translate(83.789062 0)"/>
      </g>
     </g>
    </g>
    <g id="ytick_4">
     <g id="line2d_13">
      <g>
       <use xlink:href="#m583daba7ec" x="38.420552" y="255.021531" style="stroke: #000000; stroke-width: 0.8"/>
      </g>
     </g>
     <g id="text_14">
      <!-- −1 -->
      <g transform="translate(16.678365 258.82075) scale(0.1 -0.1)">
       <use xlink:href="#DejaVuSans-2212"/>
       <use xlink:href="#DejaVuSans-31" transform="translate(83.789062 0)"/>
      </g>
     </g>
    </g>
    <g id="ytick_5">
     <g id="line2d_14">
      <g>
       <use xlink:href="#m583daba7ec" x="38.420552" y="208.380937" style="stroke: #000000; stroke-width: 0.8"/>
      </g>
     </g>
     <g id="text_15">
      <!-- 0 -->
      <g transform="translate(25.058052 212.180156) scale(0.1 -0.1)">
       <use xlink:href="#DejaVuSans-30"/>
      </g>
     </g>
    </g>
    <g id="ytick_6">
     <g id="line2d_15">
      <g>
       <use xlink:href="#m583daba7ec" x="38.420552" y="161.740344" style="stroke: #000000; stroke-width: 0.8"/>
      </g>
     </g>
     <g id="text_16">
      <!-- 1 -->
      <g transform="translate(25.058052 165.539563) scale(0.1 -0.1)">
       <use xlink:href="#DejaVuSans-31"/>
      </g>
     </g>
    </g>
    <g id="ytick_7">
     <g id="line2d_16">
      <g>
       <use xlink:href="#m583daba7ec" x="38.420552" y="115.099751" style="stroke: #000000; stroke-width: 0.8"/>
      </g>
     </g>
     <g id="text_17">
      <!-- 2 -->
      <g transform="translate(25.058052 118.898969) scale(0.1 -0.1)">
       <use xlink:href="#DejaVuSans-32"/>
      </g>
     </g>
    </g>
    <g id="ytick_8">
     <g id="line2d_17">
      <g>
       <use xlink:href="#m583daba7ec" x="38.420552" y="68.459157" style="stroke: #000000; stroke-width: 0.8"/>
      </g>
     </g>
     <g id="text_18">
      <!-- 3 -->
      <g transform="translate(25.058052 72.258376) scale(0.1 -0.1)">
       <use xlink:href="#DejaVuSans-33"/>
      </g>
     </g>
    </g>
    <g id="ytick_9">
     <g id="line2d_18">
      <g>
       <use xlink:href="#m583daba7ec" x="38.420552" y="21.818564" style="stroke: #000000; stroke-width: 0.8"/>
      </g>
     </g>
     <g id="text_19">
      <!-- 4 -->
      <g transform="translate(25.058052 25.617783) scale(0.1 -0.1)">
       <use xlink:href="#DejaVuSans-34"/>
      </g>
     </g>
    </g>
    <g id="text_20">
     <!-- µV -->
     <g transform="translate(10.598677 214.9825) rotate(-90) scale(0.1 -0.1)">
      <defs>
       <path id="DejaVuSans-b5" d="M 544 -1331 
L 544 3500 
L 1119 3500 
L 1119 1325 
Q 1119 872 1334 640 
Q 1550 409 1972 409 
Q 2434 409 2667 671 
Q 2900 934 2900 1459 
L 2900 3500 
L 3475 3500 
L 3475 806 
Q 3475 619 3529 530 
Q 3584 441 3700 441 
Q 3728 441 3778 458 
Q 3828 475 3916 513 
L 3916 50 
Q 3788 -22 3673 -56 
Q 3559 -91 3450 -91 
Q 3234 -91 3106 31 
Q 2978 153 2931 403 
Q 2775 156 2548 32 
Q 2322 -91 2016 -91 
Q 1697 -91 1473 31 
Q 1250 153 1119 397 
L 1119 -1331 
L 544 -1331 
z
" transform="scale(0.015625)"/>
       <path id="DejaVuSans-56" d="M 1831 0 
L 50 4666 
L 709 4666 
L 2188 738 
L 3669 4666 
L 4325 4666 
L 2547 0 
L 1831 0 
z
" transform="scale(0.015625)"/>
      </defs>
      <use xlink:href="#DejaVuSans-b5"/>
      <use xlink:href="#DejaVuSans-56" transform="translate(63.623047 0)"/>
     </g>
    </g>
   </g>
   <g id="patch_4">
    <path d="M 38.693039 398.64351 
L 561.866948 398.64351 
" style="fill: none; stroke: #000000; stroke-width: 0.8; stroke-linejoin: miter; stroke-linecap: square"/>
   </g>
   <g id="patch_5">
    <path d="M 38.420552 208.380937 
L 561.866948 208.380937 
" style="fill: none; stroke: #000000; stroke-width: 0.8; stroke-linejoin: miter; stroke-linecap: square"/>
   </g>
   <g id="text_21">
    <!-- Oz, O1, O2 (median) -->
    <g transform="translate(238.4825 12.118365) scale(0.12 -0.12)">
     <defs>
      <path id="DejaVuSans-4f" d="M 2522 4238 
Q 1834 4238 1429 3725 
Q 1025 3213 1025 2328 
Q 1025 1447 1429 934 
Q 1834 422 2522 422 
Q 3209 422 3611 934 
Q 4013 1447 4013 2328 
Q 4013 3213 3611 3725 
Q 3209 4238 2522 4238 
z
M 2522 4750 
Q 3503 4750 4090 4092 
Q 4678 3434 4678 2328 
Q 4678 1225 4090 567 
Q 3503 -91 2522 -91 
Q 1538 -91 948 565 
Q 359 1222 359 2328 
Q 359 3434 948 4092 
Q 1538 4750 2522 4750 
z
" transform="scale(0.015625)"/>
      <path id="DejaVuSans-7a" d="M 353 3500 
L 3084 3500 
L 3084 2975 
L 922 459 
L 3084 459 
L 3084 0 
L 275 0 
L 275 525 
L 2438 3041 
L 353 3041 
L 353 3500 
z
" transform="scale(0.015625)"/>
      <path id="DejaVuSans-2c" d="M 750 794 
L 1409 794 
L 1409 256 
L 897 -744 
L 494 -744 
L 750 256 
L 750 794 
z
" transform="scale(0.015625)"/>
      <path id="DejaVuSans-64" d="M 2906 2969 
L 2906 4863 
L 3481 4863 
L 3481 0 
L 2906 0 
L 2906 525 
Q 2725 213 2448 61 
Q 2172 -91 1784 -91 
Q 1150 -91 751 415 
Q 353 922 353 1747 
Q 353 2572 751 3078 
Q 1150 3584 1784 3584 
Q 2172 3584 2448 3432 
Q 2725 3281 2906 2969 
z
M 947 1747 
Q 947 1113 1208 752 
Q 1469 391 1925 391 
Q 2381 391 2643 752 
Q 2906 1113 2906 1747 
Q 2906 2381 2643 2742 
Q 2381 3103 1925 3103 
Q 1469 3103 1208 2742 
Q 947 2381 947 1747 
z
" transform="scale(0.015625)"/>
      <path id="DejaVuSans-61" d="M 2194 1759 
Q 1497 1759 1228 1600 
Q 959 1441 959 1056 
Q 959 750 1161 570 
Q 1363 391 1709 391 
Q 2188 391 2477 730 
Q 2766 1069 2766 1631 
L 2766 1759 
L 2194 1759 
z
M 3341 1997 
L 3341 0 
L 2766 0 
L 2766 531 
Q 2569 213 2275 61 
Q 1981 -91 1556 -91 
Q 1019 -91 701 211 
Q 384 513 384 1019 
Q 384 1609 779 1909 
Q 1175 2209 1959 2209 
L 2766 2209 
L 2766 2266 
Q 2766 2663 2505 2880 
Q 2244 3097 1772 3097 
Q 1472 3097 1187 3025 
Q 903 2953 641 2809 
L 641 3341 
Q 956 3463 1253 3523 
Q 1550 3584 1831 3584 
Q 2591 3584 2966 3190 
Q 3341 2797 3341 1997 
z
" transform="scale(0.015625)"/>
      <path id="DejaVuSans-6e" d="M 3513 2113 
L 3513 0 
L 2938 0 
L 2938 2094 
Q 2938 2591 2744 2837 
Q 2550 3084 2163 3084 
Q 1697 3084 1428 2787 
Q 1159 2491 1159 1978 
L 1159 0 
L 581 0 
L 581 3500 
L 1159 3500 
L 1159 2956 
Q 1366 3272 1645 3428 
Q 1925 3584 2291 3584 
Q 2894 3584 3203 3211 
Q 3513 2838 3513 2113 
z
" transform="scale(0.015625)"/>
     </defs>
     <use xlink:href="#DejaVuSans-4f"/>
     <use xlink:href="#DejaVuSans-7a" transform="translate(78.710938 0)"/>
     <use xlink:href="#DejaVuSans-2c" transform="translate(131.201172 0)"/>
     <use xlink:href="#DejaVuSans-20" transform="translate(162.988281 0)"/>
     <use xlink:href="#DejaVuSans-4f" transform="translate(194.775391 0)"/>
     <use xlink:href="#DejaVuSans-31" transform="translate(273.486328 0)"/>
     <use xlink:href="#DejaVuSans-2c" transform="translate(337.109375 0)"/>
     <use xlink:href="#DejaVuSans-20" transform="translate(368.896484 0)"/>
     <use xlink:href="#DejaVuSans-4f" transform="translate(400.683594 0)"/>
     <use xlink:href="#DejaVuSans-32" transform="translate(479.394531 0)"/>
     <use xlink:href="#DejaVuSans-20" transform="translate(543.017578 0)"/>
     <use xlink:href="#DejaVuSans-28" transform="translate(574.804688 0)"/>
     <use xlink:href="#DejaVuSans-6d" transform="translate(613.818359 0)"/>
     <use xlink:href="#DejaVuSans-65" transform="translate(711.230469 0)"/>
     <use xlink:href="#DejaVuSans-64" transform="translate(772.753906 0)"/>
     <use xlink:href="#DejaVuSans-69" transform="translate(836.230469 0)"/>
     <use xlink:href="#DejaVuSans-61" transform="translate(864.013672 0)"/>
     <use xlink:href="#DejaVuSans-6e" transform="translate(925.292969 0)"/>
     <use xlink:href="#DejaVuSans-29" transform="translate(988.671875 0)"/>
    </g>
   </g>
   <g id="legend_1">
    <g id="patch_6">
     <path d="M 45.420552 55.75274 
L 126.56274 55.75274 
Q 128.56274 55.75274 128.56274 53.75274 
L 128.56274 25.118365 
Q 128.56274 23.118365 126.56274 23.118365 
L 45.420552 23.118365 
Q 43.420552 23.118365 43.420552 25.118365 
L 43.420552 53.75274 
Q 43.420552 55.75274 45.420552 55.75274 
z
" style="fill: #ffffff; opacity: 0.8; stroke: #cccccc; stroke-linejoin: miter"/>
    </g>
    <g id="line2d_19">
     <path d="M 47.420552 31.216803 
L 57.420552 31.216803 
L 67.420552 31.216803 
" style="fill: none; stroke: #1f77b4; stroke-width: 1.5; stroke-linecap: square"/>
    </g>
    <g id="text_22">
     <!-- eerie -->
     <g transform="translate(75.420552 34.716803) scale(0.1 -0.1)">
      <defs>
       <path id="DejaVuSans-72" d="M 2631 2963 
Q 2534 3019 2420 3045 
Q 2306 3072 2169 3072 
Q 1681 3072 1420 2755 
Q 1159 2438 1159 1844 
L 1159 0 
L 581 0 
L 581 3500 
L 1159 3500 
L 1159 2956 
Q 1341 3275 1631 3429 
Q 1922 3584 2338 3584 
Q 2397 3584 2469 3576 
Q 2541 3569 2628 3553 
L 2631 2963 
z
" transform="scale(0.015625)"/>
      </defs>
      <use xlink:href="#DejaVuSans-65"/>
      <use xlink:href="#DejaVuSans-65" transform="translate(61.523438 0)"/>
      <use xlink:href="#DejaVuSans-72" transform="translate(123.046875 0)"/>
      <use xlink:href="#DejaVuSans-69" transform="translate(164.160156 0)"/>
      <use xlink:href="#DejaVuSans-65" transform="translate(191.943359 0)"/>
     </g>
    </g>
    <g id="line2d_20">
     <path d="M 47.420552 45.894928 
L 57.420552 45.894928 
L 67.420552 45.894928 
" style="fill: none; stroke: #ff7f0e; stroke-width: 1.5; stroke-linecap: square"/>
    </g>
    <g id="text_23">
     <!-- non_eerie -->
     <g transform="translate(75.420552 49.394928) scale(0.1 -0.1)">
      <defs>
       <path id="DejaVuSans-6f" d="M 1959 3097 
Q 1497 3097 1228 2736 
Q 959 2375 959 1747 
Q 959 1119 1226 758 
Q 1494 397 1959 397 
Q 2419 397 2687 759 
Q 2956 1122 2956 1747 
Q 2956 2369 2687 2733 
Q 2419 3097 1959 3097 
z
M 1959 3584 
Q 2709 3584 3137 3096 
Q 3566 2609 3566 1747 
Q 3566 888 3137 398 
Q 2709 -91 1959 -91 
Q 1206 -91 779 398 
Q 353 888 353 1747 
Q 353 2609 779 3096 
Q 1206 3584 1959 3584 
z
" transform="scale(0.015625)"/>
       <path id="DejaVuSans-5f" d="M 3263 -1063 
L 3263 -1509 
L -63 -1509 
L -63 -1063 
L 3263 -1063 
z
" transform="scale(0.015625)"/>
      </defs>
      <use xlink:href="#DejaVuSans-6e"/>
      <use xlink:href="#DejaVuSans-6f" transform="translate(63.378906 0)"/>
      <use xlink:href="#DejaVuSans-6e" transform="translate(124.560547 0)"/>
      <use xlink:href="#DejaVuSans-5f" transform="translate(187.939453 0)"/>
      <use xlink:href="#DejaVuSans-65" transform="translate(237.939453 0)"/>
      <use xlink:href="#DejaVuSans-65" transform="translate(299.462891 0)"/>
      <use xlink:href="#DejaVuSans-72" transform="translate(360.986328 0)"/>
      <use xlink:href="#DejaVuSans-69" transform="translate(402.099609 0)"/>
      <use xlink:href="#DejaVuSans-65" transform="translate(429.882812 0)"/>
     </g>
    </g>
   </g>
   <g id="FillBetweenPolyCollection_1">
    <defs>
     <path id="m1527628e18" d="M 38.420552 -296.299583 
L 38.420552 -253.889274 
L 40.123593 -226.539109 
L 41.826633 -213.0417 
L 43.529673 -219.786248 
L 45.232713 -238.817128 
L 46.935753 -259.229818 
L 48.638793 -265.388144 
L 50.341833 -253.070896 
L 52.044873 -233.431664 
L 53.747913 -218.979827 
L 55.450953 -218.683169 
L 57.153993 -234.804139 
L 58.857033 -259.191921 
L 60.560073 -279.164852 
L 62.263113 -280.039049 
L 63.966154 -260.736951 
L 65.669194 -233.471567 
L 67.372234 -209.586574 
L 69.075274 -197.498552 
L 70.778314 -202.792015 
L 72.481354 -215.675215 
L 74.184394 -231.570862 
L 75.887434 -244.432878 
L 77.590474 -246.194155 
L 79.293514 -239.673465 
L 80.996554 -226.159625 
L 82.699594 -206.325512 
L 84.402634 -184.098832 
L 86.105674 -164.839808 
L 87.808714 -152.896689 
L 89.511755 -147.695794 
L 91.214795 -149.632408 
L 92.917835 -157.786111 
L 94.620875 -168.392702 
L 96.323915 -170.503292 
L 98.026955 -170.222646 
L 99.729995 -171.298793 
L 101.433035 -171.840555 
L 103.136075 -169.974578 
L 104.839115 -173.819898 
L 106.542155 -178.877754 
L 108.245195 -180.665043 
L 109.948235 -179.793479 
L 111.651275 -179.601253 
L 113.354315 -175.642592 
L 115.057356 -175.30904 
L 116.760396 -182.217527 
L 118.463436 -188.903832 
L 120.166476 -194.583076 
L 121.869516 -189.738879 
L 123.572556 -178.966964 
L 125.275596 -162.555522 
L 126.978636 -144.179735 
L 128.681676 -124.552842 
L 130.384716 -107.856414 
L 132.087756 -98.705972 
L 133.790796 -94.643916 
L 135.493836 -91.294876 
L 137.196876 -91.711537 
L 138.899916 -99.834757 
L 140.602957 -109.742999 
L 142.305997 -118.486202 
L 144.009037 -120.916401 
L 145.712077 -117.749296 
L 147.415117 -106.782749 
L 149.118157 -92.055133 
L 150.821197 -78.730827 
L 152.524237 -71.753502 
L 154.227277 -72.92841 
L 155.930317 -81.742067 
L 157.633357 -98.046421 
L 159.336397 -121.353419 
L 161.039437 -149.723834 
L 162.742477 -185.667239 
L 164.445517 -229.792393 
L 166.148558 -272.057308 
L 167.851598 -303.963502 
L 169.554638 -316.172253 
L 171.257678 -310.867799 
L 172.960718 -299.944272 
L 174.663758 -293.560912 
L 176.366798 -298.198652 
L 178.069838 -313.396325 
L 179.772878 -327.697472 
L 181.475918 -337.021335 
L 183.178958 -334.04058 
L 184.881998 -321.564109 
L 186.585038 -310.226275 
L 188.288078 -307.347 
L 189.991118 -314.53577 
L 191.694159 -320.173053 
L 193.397199 -318.224151 
L 195.100239 -306.226013 
L 196.803279 -292.366172 
L 198.506319 -287.751905 
L 200.209359 -291.594873 
L 201.912399 -297.790035 
L 203.615439 -298.03832 
L 205.318479 -285.800253 
L 207.021519 -264.646866 
L 208.724559 -240.459919 
L 210.427599 -236.364518 
L 212.130639 -251.229882 
L 213.833679 -277.290162 
L 215.536719 -298.750964 
L 217.23976 -302.435713 
L 218.9428 -286.948221 
L 220.64584 -259.134313 
L 222.34888 -234.845108 
L 224.05192 -226.6128 
L 225.75496 -237.927463 
L 227.458 -254.739778 
L 229.16104 -266.587612 
L 230.86408 -263.715719 
L 232.56712 -250.629482 
L 234.27016 -233.244827 
L 235.9732 -218.722706 
L 237.67624 -209.480037 
L 239.37928 -202.522782 
L 241.08232 -187.523137 
L 242.785361 -167.789034 
L 244.488401 -149.778207 
L 246.191441 -147.606694 
L 247.894481 -161.328818 
L 249.597521 -183.043409 
L 251.300561 -197.327369 
L 253.003601 -195.470433 
L 254.706641 -172.780108 
L 256.409681 -136.240687 
L 258.112721 -104.306945 
L 259.815761 -85.736872 
L 261.518801 -81.801919 
L 263.221841 -85.343783 
L 264.924881 -83.116137 
L 266.627921 -67.252513 
L 268.330962 -44.644464 
L 270.034002 -34.125773 
L 271.737042 -39.434954 
L 273.440082 -53.981642 
L 275.143122 -68.178444 
L 276.846162 -74.292511 
L 278.549202 -64.328641 
L 280.252242 -46.781966 
L 281.955282 -33.35649 
L 283.658322 -36.2176 
L 285.361362 -55.219039 
L 287.064402 -83.484529 
L 288.767442 -111.085147 
L 290.470482 -130.377794 
L 292.173522 -141.534393 
L 293.876563 -149.077792 
L 295.579603 -161.938725 
L 297.282643 -182.076368 
L 298.985683 -202.135835 
L 300.688723 -219.942155 
L 302.391763 -233.817962 
L 304.094803 -243.860593 
L 305.797843 -251.142616 
L 307.500883 -255.089864 
L 309.203923 -255.390224 
L 310.906963 -253.677241 
L 312.610003 -258.101913 
L 314.313043 -270.959387 
L 316.016083 -289.5612 
L 317.719123 -309.900581 
L 319.422164 -325.688675 
L 321.125204 -324.225987 
L 322.828244 -306.73512 
L 324.531284 -285.739751 
L 326.234324 -273.736819 
L 327.937364 -273.57475 
L 329.640404 -284.391921 
L 331.343444 -298.99842 
L 333.046484 -305.871553 
L 334.749524 -305.254208 
L 336.452564 -304.473293 
L 338.155604 -310.286063 
L 339.858644 -323.459103 
L 341.561684 -339.194069 
L 343.264724 -346.312708 
L 344.967765 -343.449925 
L 346.670805 -332.555899 
L 348.373845 -325.07422 
L 350.076885 -326.123736 
L 351.779925 -331.585112 
L 353.482965 -334.189959 
L 355.186005 -324.037377 
L 356.889045 -302.928604 
L 358.592085 -279.548255 
L 360.295125 -262.946803 
L 361.998165 -257.444606 
L 363.701205 -260.498616 
L 365.404245 -261.309218 
L 367.107285 -256.238171 
L 368.810326 -242.867056 
L 370.513366 -225.03097 
L 372.216406 -213.085227 
L 373.919446 -213.975087 
L 375.622486 -227.345801 
L 377.325526 -248.870902 
L 379.028566 -267.152098 
L 380.731606 -276.57508 
L 382.434646 -275.055429 
L 384.137686 -263.476968 
L 385.840726 -250.383739 
L 387.543766 -242.643418 
L 389.246806 -244.36532 
L 390.949846 -253.524598 
L 392.652886 -259.085085 
L 394.355927 -256.854494 
L 396.058967 -246.279896 
L 397.762007 -232.680796 
L 399.465047 -221.416475 
L 401.168087 -220.165653 
L 402.871127 -228.639328 
L 404.574167 -238.204875 
L 406.277207 -239.802871 
L 407.980247 -231.680644 
L 409.683287 -220.525225 
L 411.386327 -209.313263 
L 413.089367 -206.06225 
L 414.792407 -219.345515 
L 416.495447 -242.362855 
L 418.198487 -264.353885 
L 419.901528 -280.896979 
L 421.604568 -283.464928 
L 423.307608 -275.06047 
L 425.010648 -255.411356 
L 426.713688 -233.849999 
L 428.416728 -216.43647 
L 430.119768 -208.227139 
L 431.822808 -210.456953 
L 433.525848 -214.639643 
L 435.228888 -216.359145 
L 436.931928 -217.834906 
L 438.634968 -220.311485 
L 440.338008 -227.315366 
L 442.041048 -236.353442 
L 443.744088 -245.504606 
L 445.447129 -253.593047 
L 447.150169 -259.665431 
L 448.853209 -262.654775 
L 450.556249 -266.527642 
L 452.259289 -270.410503 
L 453.962329 -271.546273 
L 455.665369 -270.301187 
L 457.368409 -266.431506 
L 459.071449 -262.934188 
L 460.774489 -266.486022 
L 462.477529 -277.407096 
L 464.180569 -292.218858 
L 465.883609 -301.147953 
L 467.586649 -299.491104 
L 469.289689 -285.071125 
L 470.99273 -264.411287 
L 472.69577 -248.772824 
L 474.39881 -244.085907 
L 476.10185 -245.671836 
L 477.80489 -247.74037 
L 479.50793 -239.103767 
L 481.21097 -221.656281 
L 482.91401 -203.118464 
L 484.61705 -194.193091 
L 486.32009 -205.506357 
L 488.02313 -227.98471 
L 489.72617 -247.342498 
L 491.42921 -253.022759 
L 493.13225 -245.153308 
L 494.83529 -231.470318 
L 496.538331 -224.208121 
L 498.241371 -228.708658 
L 499.944411 -242.650456 
L 501.647451 -256.933561 
L 503.350491 -262.488575 
L 505.053531 -263.131636 
L 506.756571 -265.419529 
L 508.459611 -271.020234 
L 510.162651 -281.032267 
L 511.865691 -290.561474 
L 513.568731 -290.34988 
L 515.271771 -278.993776 
L 516.974811 -258.197855 
L 518.677851 -235.503817 
L 520.380891 -218.193678 
L 522.083932 -212.565928 
L 523.786972 -218.360004 
L 525.490012 -231.079129 
L 527.193052 -246.919382 
L 528.896092 -267.903447 
L 530.599132 -291.352414 
L 532.302172 -309.983932 
L 534.005212 -315.439353 
L 535.708252 -307.617973 
L 537.411292 -292.489818 
L 539.114332 -275.507923 
L 540.817372 -265.588578 
L 542.520412 -270.180017 
L 544.223452 -285.312514 
L 545.926492 -306.142751 
L 547.629533 -318.653221 
L 549.332573 -318.219671 
L 551.035613 -312.318646 
L 552.738653 -300.850105 
L 554.441693 -291.069147 
L 556.144733 -289.847415 
L 557.847773 -294.817864 
L 559.550813 -294.917473 
L 561.253853 -284.166819 
L 561.253853 -336.257621 
L 561.253853 -336.257621 
L 559.550813 -345.721096 
L 557.847773 -346.152241 
L 556.144733 -343.439865 
L 554.441693 -348.718689 
L 552.738653 -359.88762 
L 551.035613 -373.56053 
L 549.332573 -381.679741 
L 547.629533 -380.448447 
L 545.926492 -365.068352 
L 544.223452 -345.133288 
L 542.520412 -332.368431 
L 540.817372 -328.772208 
L 539.114332 -336.867587 
L 537.411292 -350.570193 
L 535.708252 -365.020746 
L 534.005212 -368.919799 
L 532.302172 -361.433589 
L 530.599132 -343.179652 
L 528.896092 -323.546422 
L 527.193052 -306.458502 
L 525.490012 -292.538523 
L 523.786972 -279.036034 
L 522.083932 -269.430727 
L 520.380891 -269.662835 
L 518.677851 -284.493865 
L 516.974811 -307.431751 
L 515.271771 -329.29961 
L 513.568731 -343.42472 
L 511.865691 -346.107547 
L 510.162651 -335.579407 
L 508.459611 -324.518603 
L 506.756571 -318.000816 
L 505.053531 -315.434175 
L 503.350491 -311.078052 
L 501.647451 -305.386632 
L 499.944411 -293.66393 
L 498.241371 -283.43739 
L 496.538331 -281.507076 
L 494.83529 -289.855308 
L 493.13225 -301.838213 
L 491.42921 -307.676697 
L 489.72617 -300.586161 
L 488.02313 -281.734763 
L 486.32009 -260.03663 
L 484.61705 -248.743189 
L 482.91401 -255.731301 
L 481.21097 -273.993366 
L 479.50793 -290.062134 
L 477.80489 -298.936344 
L 476.10185 -299.758242 
L 474.39881 -299.446622 
L 472.69577 -307.383311 
L 470.99273 -321.142934 
L 469.289689 -339.296497 
L 467.586649 -357.180409 
L 465.883609 -362.762768 
L 464.180569 -355.032935 
L 462.477529 -339.201029 
L 460.774489 -327.338246 
L 459.071449 -320.698478 
L 457.368409 -318.801486 
L 455.665369 -318.79143 
L 453.962329 -323.210698 
L 452.259289 -328.888342 
L 450.556249 -335.679457 
L 448.853209 -336.101616 
L 447.150169 -330.795679 
L 445.447129 -320.217096 
L 443.744088 -307.931288 
L 442.041048 -296.281414 
L 440.338008 -290.233347 
L 438.634968 -287.963624 
L 436.931928 -286.365355 
L 435.228888 -281.352885 
L 433.525848 -276.448572 
L 431.822808 -273.611844 
L 430.119768 -276.780777 
L 428.416728 -287.612007 
L 426.713688 -304.734112 
L 425.010648 -327.642889 
L 423.307608 -346.726443 
L 421.604568 -351.877985 
L 419.901528 -343.064579 
L 418.198487 -325.357408 
L 416.495447 -302.503255 
L 414.792407 -282.628331 
L 413.089367 -270.784788 
L 411.386327 -274.008394 
L 409.683287 -284.460885 
L 407.980247 -297.243376 
L 406.277207 -307.632936 
L 404.574167 -306.967791 
L 402.871127 -297.188392 
L 401.168087 -287.385379 
L 399.465047 -284.989943 
L 397.762007 -293.397676 
L 396.058967 -303.593214 
L 394.355927 -314.068914 
L 392.652886 -314.895724 
L 390.949846 -310.173258 
L 389.246806 -304.869581 
L 387.543766 -305.735482 
L 385.840726 -314.745532 
L 384.137686 -328.651764 
L 382.434646 -339.730439 
L 380.731606 -339.647904 
L 379.028566 -329.753454 
L 377.325526 -310.629367 
L 375.622486 -290.393368 
L 373.919446 -282.1996 
L 372.216406 -284.31609 
L 370.513366 -295.71244 
L 368.810326 -309.890323 
L 367.107285 -320.746814 
L 365.404245 -323.611559 
L 363.701205 -321.902763 
L 361.998165 -319.148211 
L 360.295125 -326.333106 
L 358.592085 -342.839163 
L 356.889045 -363.898634 
L 355.186005 -382.378072 
L 353.482965 -390.418947 
L 351.779925 -388.611629 
L 350.076885 -383.857968 
L 348.373845 -383.895138 
L 346.670805 -392.45922 
L 344.967765 -403.328696 
L 343.264724 -407.365336 
L 341.561684 -400.076666 
L 339.858644 -385.243272 
L 338.155604 -375.845783 
L 336.452564 -376.08893 
L 334.749524 -380.374164 
L 333.046484 -379.824652 
L 331.343444 -372.058036 
L 329.640404 -353.653311 
L 327.937364 -341.553413 
L 326.234324 -342.19471 
L 324.531284 -357.17172 
L 322.828244 -381.645762 
L 321.125204 -398.926578 
L 319.422164 -398.121126 
L 317.719123 -381.604182 
L 316.016083 -360.009629 
L 314.313043 -340.093876 
L 312.610003 -326.271807 
L 310.906963 -322.098951 
L 309.203923 -324.838098 
L 307.500883 -323.750929 
L 305.797843 -319.345522 
L 304.094803 -315.273768 
L 302.391763 -304.499097 
L 300.688723 -288.555629 
L 298.985683 -267.506103 
L 297.282643 -244.239664 
L 295.579603 -224.202022 
L 293.876563 -210.537388 
L 292.173522 -203.595882 
L 290.470482 -196.394831 
L 288.767442 -183.191915 
L 287.064402 -157.865535 
L 285.361362 -124.289505 
L 283.658322 -96.868401 
L 281.955282 -89.304624 
L 280.252242 -101.949053 
L 278.549202 -123.022463 
L 276.846162 -136.20776 
L 275.143122 -131.716061 
L 273.440082 -116.839959 
L 271.737042 -104.161351 
L 270.034002 -100.700068 
L 268.330962 -111.352186 
L 266.627921 -130.981191 
L 264.924881 -145.456759 
L 263.221841 -148.214756 
L 261.518801 -147.021753 
L 259.815761 -153.20875 
L 258.112721 -172.541708 
L 256.409681 -205.271843 
L 254.706641 -240.301232 
L 253.003601 -260.005791 
L 251.300561 -259.753774 
L 249.597521 -242.603331 
L 247.894481 -222.423742 
L 246.191441 -214.990674 
L 244.488401 -221.804027 
L 242.785361 -238.077608 
L 241.08232 -252.787893 
L 239.37928 -262.465518 
L 237.67624 -268.032863 
L 235.9732 -274.493728 
L 234.27016 -286.606058 
L 232.56712 -303.247953 
L 230.86408 -321.065496 
L 229.16104 -327.949498 
L 227.458 -318.991964 
L 225.75496 -300.794205 
L 224.05192 -290.357387 
L 222.34888 -297.424059 
L 220.64584 -318.815158 
L 218.9428 -341.635746 
L 217.23976 -355.949911 
L 215.536719 -353.186324 
L 213.833679 -334.55052 
L 212.130639 -313.040866 
L 210.427599 -302.322626 
L 208.724559 -305.387855 
L 207.021519 -323.078881 
L 205.318479 -344.25422 
L 203.615439 -357.897264 
L 201.912399 -357.713852 
L 200.209359 -349.806518 
L 198.506319 -345.78357 
L 196.803279 -353.212248 
L 195.100239 -364.120046 
L 193.397199 -371.895281 
L 191.694159 -369.617266 
L 189.991118 -363.575304 
L 188.288078 -358.688617 
L 186.585038 -361.367392 
L 184.881998 -372.954706 
L 183.178958 -387.123656 
L 181.475918 -389.833146 
L 179.772878 -379.023451 
L 178.069838 -361.230157 
L 176.366798 -345.269162 
L 174.663758 -341.059482 
L 172.960718 -345.385007 
L 171.257678 -356.258312 
L 169.554638 -361.907279 
L 167.851598 -351.346519 
L 166.148558 -321.143102 
L 164.445517 -277.704059 
L 162.742477 -232.776242 
L 161.039437 -193.927647 
L 159.336397 -164.432166 
L 157.633357 -143.277479 
L 155.930317 -128.911114 
L 154.227277 -122.790581 
L 152.524237 -121.223864 
L 150.821197 -127.232876 
L 149.118157 -139.286128 
L 147.415117 -151.891397 
L 145.712077 -162.291859 
L 144.009037 -165.637503 
L 142.305997 -160.321892 
L 140.602957 -149.766696 
L 138.899916 -140.766489 
L 137.196876 -133.810112 
L 135.493836 -134.731919 
L 133.790796 -140.595869 
L 132.087756 -149.564353 
L 130.384716 -161.772492 
L 128.681676 -174.106385 
L 126.978636 -186.757106 
L 125.275596 -201.632727 
L 123.572556 -216.840303 
L 121.869516 -229.427992 
L 120.166476 -233.492768 
L 118.463436 -228.335924 
L 116.760396 -222.350106 
L 115.057356 -213.132689 
L 113.354315 -207.630523 
L 111.651275 -209.415758 
L 109.948235 -215.604674 
L 108.245195 -221.753341 
L 106.542155 -222.76814 
L 104.839115 -218.400785 
L 103.136075 -211.603651 
L 101.433035 -208.510079 
L 99.729995 -210.103029 
L 98.026955 -213.350574 
L 96.323915 -212.462001 
L 94.620875 -205.864089 
L 92.917835 -193.849153 
L 91.214795 -186.714463 
L 89.511755 -186.701573 
L 87.808714 -193.17989 
L 86.105674 -203.236003 
L 84.402634 -220.13061 
L 82.699594 -238.552864 
L 80.996554 -256.333697 
L 79.293514 -271.100955 
L 77.590474 -278.21357 
L 75.887434 -275.840486 
L 74.184394 -265.188714 
L 72.481354 -249.557844 
L 70.778314 -237.957367 
L 69.075274 -238.106272 
L 67.372234 -256.181889 
L 65.669194 -280.400922 
L 63.966154 -302.890744 
L 62.263113 -314.182495 
L 60.560073 -310.976947 
L 58.857033 -291.680452 
L 57.153993 -267.055655 
L 55.450953 -251.375823 
L 53.747913 -252.777533 
L 52.044873 -269.669269 
L 50.341833 -291.414772 
L 48.638793 -306.229113 
L 46.935753 -303.676673 
L 45.232713 -285.044364 
L 43.529673 -265.961659 
L 41.826633 -259.022728 
L 40.123593 -271.920456 
L 38.420552 -296.299583 
z
" style="stroke: #1f77b4; stroke-opacity: 0.3"/>
    </defs>
    <g>
     <use xlink:href="#m1527628e18" x="0" y="432" style="fill: #1f77b4; fill-opacity: 0.3; stroke: #1f77b4; stroke-opacity: 0.3"/>
    </g>
   </g>
   <g id="FillBetweenPolyCollection_2">
    <defs>
     <path id="mea96d402b1" d="M 38.420552 -255.91341 
L 38.420552 -248.059054 
L 40.123593 -250.88333 
L 41.826633 -255.570274 
L 43.529673 -259.712283 
L 45.232713 -260.864931 
L 46.935753 -258.830961 
L 48.638793 -255.435386 
L 50.341833 -252.455006 
L 52.044873 -251.546166 
L 53.747913 -250.961755 
L 55.450953 -248.556953 
L 57.153993 -243.316098 
L 58.857033 -236.806147 
L 60.560073 -231.79917 
L 62.263113 -230.595263 
L 63.966154 -233.070211 
L 65.669194 -237.313332 
L 67.372234 -237.995137 
L 69.075274 -233.193089 
L 70.778314 -224.481781 
L 72.481354 -215.968145 
L 74.184394 -211.20982 
L 75.887434 -211.376176 
L 77.590474 -214.432254 
L 79.293514 -217.691294 
L 80.996554 -219.373823 
L 82.699594 -220.346442 
L 84.402634 -222.906775 
L 86.105674 -228.843477 
L 87.808714 -236.136866 
L 89.511755 -240.749524 
L 91.214795 -238.67556 
L 92.917835 -229.326572 
L 94.620875 -215.592009 
L 96.323915 -202.461833 
L 98.026955 -193.271138 
L 99.729995 -189.391937 
L 101.433035 -188.733748 
L 103.136075 -188.238443 
L 104.839115 -185.859615 
L 106.542155 -182.368137 
L 108.245195 -180.451577 
L 109.948235 -181.344167 
L 111.651275 -185.41212 
L 113.354315 -191.644976 
L 115.057356 -197.93765 
L 116.760396 -201.950078 
L 118.463436 -202.765646 
L 120.166476 -201.31777 
L 121.869516 -198.956939 
L 123.572556 -196.696022 
L 125.275596 -196.030945 
L 126.978636 -196.067406 
L 128.681676 -195.344203 
L 130.384716 -193.507198 
L 132.087756 -189.266366 
L 133.790796 -183.388244 
L 135.493836 -177.503523 
L 137.196876 -173.649705 
L 138.899916 -173.32716 
L 140.602957 -176.579358 
L 142.305997 -181.295462 
L 144.009037 -184.269818 
L 145.712077 -183.113985 
L 147.415117 -176.858233 
L 149.118157 -168.227211 
L 150.821197 -160.944075 
L 152.524237 -158.443519 
L 154.227277 -162.223543 
L 155.930317 -170.929508 
L 157.633357 -183.727881 
L 159.336397 -199.508731 
L 161.039437 -217.843835 
L 162.742477 -239.403258 
L 164.445517 -264.866147 
L 166.148558 -292.679235 
L 167.851598 -318.921295 
L 169.554638 -339.058362 
L 171.257678 -350.187952 
L 172.960718 -353.695094 
L 174.663758 -353.259879 
L 176.366798 -353.352087 
L 178.069838 -356.344523 
L 179.772878 -360.946427 
L 181.475918 -361.510986 
L 183.178958 -355.773131 
L 184.881998 -346.537701 
L 186.585038 -338.411321 
L 188.288078 -334.913749 
L 189.991118 -336.773247 
L 191.694159 -341.111364 
L 193.397199 -344.208647 
L 195.100239 -344.128005 
L 196.803279 -342.284141 
L 198.506319 -342.352551 
L 200.209359 -346.868512 
L 201.912399 -355.489369 
L 203.615439 -363.539161 
L 205.318479 -365.829315 
L 207.021519 -361.092045 
L 208.724559 -353.132831 
L 210.427599 -349.159082 
L 212.130639 -353.575685 
L 213.833679 -366.000668 
L 215.536719 -379.339872 
L 217.23976 -385.998756 
L 218.9428 -382.740787 
L 220.64584 -372.721024 
L 222.34888 -362.987715 
L 224.05192 -358.89498 
L 225.75496 -361.649704 
L 227.458 -366.260501 
L 229.16104 -366.659426 
L 230.86408 -360.2423 
L 232.56712 -348.331974 
L 234.27016 -335.85338 
L 235.9732 -326.92115 
L 237.67624 -322.232911 
L 239.37928 -318.783552 
L 241.08232 -312.279361 
L 242.785361 -301.11076 
L 244.488401 -286.15353 
L 246.191441 -271.427901 
L 247.894481 -259.990018 
L 249.597521 -254.247999 
L 251.300561 -253.906739 
L 253.003601 -256.16444 
L 254.706641 -257.393363 
L 256.409681 -254.224148 
L 258.112721 -245.192092 
L 259.815761 -231.441987 
L 261.518801 -215.417937 
L 263.221841 -199.979824 
L 264.924881 -188.11084 
L 266.627921 -181.16898 
L 268.330962 -178.034371 
L 270.034002 -176.521497 
L 271.737042 -173.752347 
L 273.440082 -167.947431 
L 275.143122 -159.2209 
L 276.846162 -150.422268 
L 278.549202 -144.806276 
L 280.252242 -144.02617 
L 281.955282 -147.841822 
L 283.658322 -154.97538 
L 285.361362 -162.720271 
L 287.064402 -170.537654 
L 288.767442 -179.230351 
L 290.470482 -188.04935 
L 292.173522 -196.491908 
L 293.876563 -202.467654 
L 295.579603 -205.339693 
L 297.282643 -206.820049 
L 298.985683 -208.155061 
L 300.688723 -212.418158 
L 302.391763 -219.987351 
L 304.094803 -229.190518 
L 305.797843 -237.062729 
L 307.500883 -241.151697 
L 309.203923 -241.288435 
L 310.906963 -241.000604 
L 312.610003 -243.055751 
L 314.313043 -247.778311 
L 316.016083 -252.621402 
L 317.719123 -254.792745 
L 319.422164 -253.373336 
L 321.125204 -248.586571 
L 322.828244 -244.231173 
L 324.531284 -243.796292 
L 326.234324 -247.890581 
L 327.937364 -253.537991 
L 329.640404 -258.130777 
L 331.343444 -259.291828 
L 333.046484 -257.144867 
L 334.749524 -254.801427 
L 336.452564 -254.998438 
L 338.155604 -258.890256 
L 339.858644 -264.475576 
L 341.561684 -269.541959 
L 343.264724 -272.527497 
L 344.967765 -273.044766 
L 346.670805 -270.296069 
L 348.373845 -265.014662 
L 350.076885 -258.035901 
L 351.779925 -251.578615 
L 353.482965 -248.345209 
L 355.186005 -249.741058 
L 356.889045 -255.356539 
L 358.592085 -262.157758 
L 360.295125 -266.405625 
L 361.998165 -265.572398 
L 363.701205 -260.247368 
L 365.404245 -253.830541 
L 367.107285 -250.019524 
L 368.810326 -250.947774 
L 370.513366 -255.82478 
L 372.216406 -262.250993 
L 373.919446 -267.505544 
L 375.622486 -271.026721 
L 377.325526 -273.306154 
L 379.028566 -274.781389 
L 380.731606 -274.903992 
L 382.434646 -272.093307 
L 384.137686 -267.040695 
L 385.840726 -261.025634 
L 387.543766 -256.05684 
L 389.246806 -254.14448 
L 390.949846 -255.645343 
L 392.652886 -259.054339 
L 394.355927 -261.172001 
L 396.058967 -260.496886 
L 397.762007 -257.5469 
L 399.465047 -253.251477 
L 401.168087 -248.612311 
L 402.871127 -243.30898 
L 404.574167 -236.821864 
L 406.277207 -230.35021 
L 407.980247 -226.370185 
L 409.683287 -227.289065 
L 411.386327 -233.414417 
L 413.089367 -242.792566 
L 414.792407 -250.322442 
L 416.495447 -251.347109 
L 418.198487 -243.876265 
L 419.901528 -231.429325 
L 421.604568 -219.867797 
L 423.307608 -214.000374 
L 425.010648 -215.275 
L 426.713688 -219.954212 
L 428.416728 -224.065485 
L 430.119768 -225.249033 
L 431.822808 -223.866909 
L 433.525848 -221.570564 
L 435.228888 -219.675983 
L 436.931928 -218.46414 
L 438.634968 -216.061869 
L 440.338008 -211.445096 
L 442.041048 -205.999213 
L 443.744088 -203.185252 
L 445.447129 -205.235369 
L 447.150169 -212.527544 
L 448.853209 -222.352362 
L 450.556249 -229.611925 
L 452.259289 -231.285785 
L 453.962329 -227.166168 
L 455.665369 -220.878416 
L 457.368409 -216.267337 
L 459.071449 -216.027378 
L 460.774489 -219.825186 
L 462.477529 -223.931171 
L 464.180569 -224.133169 
L 465.883609 -218.935226 
L 467.586649 -209.970859 
L 469.289689 -201.766822 
L 470.99273 -197.317282 
L 472.69577 -199.136077 
L 474.39881 -205.847565 
L 476.10185 -214.185776 
L 477.80489 -221.29516 
L 479.50793 -224.787146 
L 481.21097 -225.019543 
L 482.91401 -223.975344 
L 484.61705 -223.259694 
L 486.32009 -222.635067 
L 488.02313 -221.46593 
L 489.72617 -218.057278 
L 491.42921 -212.950398 
L 493.13225 -207.806997 
L 494.83529 -205.353509 
L 496.538331 -207.823269 
L 498.241371 -214.965993 
L 499.944411 -223.600714 
L 501.647451 -229.8638 
L 503.350491 -232.178319 
L 505.053531 -230.933806 
L 506.756571 -229.30548 
L 508.459611 -231.378982 
L 510.162651 -238.845272 
L 511.865691 -249.589511 
L 513.568731 -258.231566 
L 515.271771 -259.934474 
L 516.974811 -253.337483 
L 518.677851 -240.505593 
L 520.380891 -228.751145 
L 522.083932 -222.278802 
L 523.786972 -223.079675 
L 525.490012 -229.459842 
L 527.193052 -236.846505 
L 528.896092 -240.98023 
L 530.599132 -239.261018 
L 532.302172 -232.439608 
L 534.005212 -224.886125 
L 535.708252 -218.721126 
L 537.411292 -214.907848 
L 539.114332 -213.512155 
L 540.817372 -214.59763 
L 542.520412 -218.350798 
L 544.223452 -224.058442 
L 545.926492 -231.610714 
L 547.629533 -238.482149 
L 549.332573 -242.081769 
L 551.035613 -240.893146 
L 552.738653 -234.151511 
L 554.441693 -225.062643 
L 556.144733 -217.250111 
L 557.847773 -214.044986 
L 559.550813 -215.846522 
L 561.253853 -221.420295 
L 561.253853 -232.246797 
L 561.253853 -232.246797 
L 559.550813 -226.275801 
L 557.847773 -224.118725 
L 556.144733 -227.683217 
L 554.441693 -235.641322 
L 552.738653 -244.797776 
L 551.035613 -251.780238 
L 549.332573 -253.016264 
L 547.629533 -249.147843 
L 545.926492 -242.103205 
L 544.223452 -234.758792 
L 542.520412 -228.801639 
L 540.817372 -225.217491 
L 539.114332 -224.16232 
L 537.411292 -225.489652 
L 535.708252 -229.082913 
L 534.005212 -234.894844 
L 532.302172 -242.212252 
L 530.599132 -248.673522 
L 528.896092 -250.660254 
L 527.193052 -247.012715 
L 525.490012 -239.845219 
L 523.786972 -233.685293 
L 522.083932 -232.842556 
L 520.380891 -239.340601 
L 518.677851 -251.16098 
L 516.974811 -263.796891 
L 515.271771 -270.795028 
L 513.568731 -269.372592 
L 511.865691 -260.802918 
L 510.162651 -250.014512 
L 508.459611 -242.162196 
L 506.756571 -239.79317 
L 505.053531 -241.428514 
L 503.350491 -242.947022 
L 501.647451 -240.974015 
L 499.944411 -234.689542 
L 498.241371 -226.156614 
L 496.538331 -218.746118 
L 494.83529 -215.945724 
L 493.13225 -218.186245 
L 491.42921 -223.16727 
L 489.72617 -228.692507 
L 488.02313 -231.921834 
L 486.32009 -233.401253 
L 484.61705 -233.356839 
L 482.91401 -233.824735 
L 481.21097 -234.698719 
L 479.50793 -234.437447 
L 477.80489 -231.329241 
L 476.10185 -224.772824 
L 474.39881 -216.511699 
L 472.69577 -209.983443 
L 470.99273 -208.129167 
L 469.289689 -212.135402 
L 467.586649 -220.826715 
L 465.883609 -229.935642 
L 464.180569 -235.525016 
L 462.477529 -235.881106 
L 460.774489 -231.953974 
L 459.071449 -227.783469 
L 457.368409 -227.510622 
L 455.665369 -231.763779 
L 453.962329 -238.274747 
L 452.259289 -242.417103 
L 450.556249 -240.82522 
L 448.853209 -233.082282 
L 447.150169 -222.895375 
L 445.447129 -215.537172 
L 443.744088 -213.581761 
L 442.041048 -216.198491 
L 440.338008 -221.483781 
L 438.634968 -226.167147 
L 436.931928 -228.807114 
L 435.228888 -230.445425 
L 433.525848 -232.067027 
L 431.822808 -234.391255 
L 430.119768 -235.812835 
L 428.416728 -234.522431 
L 426.713688 -230.183486 
L 425.010648 -225.449992 
L 423.307608 -224.354792 
L 421.604568 -230.623392 
L 419.901528 -242.401306 
L 418.198487 -255.027174 
L 416.495447 -262.326991 
L 414.792407 -261.037427 
L 413.089367 -253.385025 
L 411.386327 -244.11272 
L 409.683287 -238.150987 
L 407.980247 -237.290254 
L 406.277207 -241.638609 
L 404.574167 -248.234108 
L 402.871127 -254.696136 
L 401.168087 -259.446334 
L 399.465047 -263.846974 
L 397.762007 -268.174921 
L 396.058967 -271.003024 
L 394.355927 -271.239346 
L 392.652886 -268.928382 
L 390.949846 -265.856742 
L 389.246806 -264.551295 
L 387.543766 -266.475023 
L 385.840726 -271.442397 
L 384.137686 -277.758454 
L 382.434646 -282.802611 
L 380.731606 -285.293182 
L 379.028566 -285.370782 
L 377.325526 -283.990454 
L 375.622486 -281.684854 
L 373.919446 -278.565465 
L 372.216406 -273.333118 
L 370.513366 -267.085749 
L 368.810326 -262.091835 
L 367.107285 -260.857231 
L 365.404245 -264.503986 
L 363.701205 -271.298719 
L 361.998165 -277.093034 
L 360.295125 -278.234057 
L 358.592085 -273.998221 
L 356.889045 -266.817997 
L 355.186005 -261.056073 
L 353.482965 -259.393712 
L 351.779925 -262.511794 
L 350.076885 -269.115658 
L 348.373845 -276.399112 
L 346.670805 -281.644859 
L 344.967765 -284.189444 
L 343.264724 -283.951652 
L 341.561684 -280.87066 
L 339.858644 -276.050637 
L 338.155604 -270.106777 
L 336.452564 -266.061606 
L 334.749524 -265.312378 
L 333.046484 -267.335582 
L 331.343444 -269.448467 
L 329.640404 -268.759156 
L 327.937364 -264.302587 
L 326.234324 -259.163228 
L 324.531284 -255.543546 
L 322.828244 -255.968653 
L 321.125204 -259.697123 
L 319.422164 -264.170578 
L 317.719123 -266.119296 
L 316.016083 -263.747287 
L 314.313043 -258.933237 
L 312.610003 -254.498984 
L 310.906963 -252.464809 
L 309.203923 -252.87116 
L 307.500883 -252.465578 
L 305.797843 -248.323062 
L 304.094803 -240.37809 
L 302.391763 -231.519614 
L 300.688723 -223.843484 
L 298.985683 -219.909815 
L 297.282643 -218.577793 
L 295.579603 -217.184537 
L 293.876563 -213.828275 
L 292.173522 -207.707584 
L 290.470482 -199.691657 
L 288.767442 -190.738865 
L 287.064402 -182.360802 
L 285.361362 -174.210174 
L 283.658322 -166.284313 
L 281.955282 -159.176325 
L 280.252242 -155.14497 
L 278.549202 -156.142165 
L 276.846162 -161.951173 
L 275.143122 -170.81177 
L 273.440082 -179.145397 
L 271.737042 -184.617637 
L 270.034002 -186.926044 
L 268.330962 -188.081812 
L 266.627921 -191.083341 
L 264.924881 -198.635028 
L 263.221841 -211.085177 
L 261.518801 -226.480926 
L 259.815761 -242.467356 
L 258.112721 -256.054959 
L 256.409681 -264.450114 
L 254.706641 -267.211255 
L 253.003601 -266.049964 
L 251.300561 -263.935897 
L 249.597521 -264.20799 
L 247.894481 -269.83265 
L 246.191441 -281.145897 
L 244.488401 -296.359435 
L 242.785361 -311.563811 
L 241.08232 -322.941833 
L 239.37928 -329.012496 
L 237.67624 -332.317107 
L 235.9732 -336.724273 
L 234.27016 -345.642295 
L 232.56712 -358.460457 
L 230.86408 -370.565296 
L 229.16104 -377.011798 
L 227.458 -376.731344 
L 225.75496 -372.300877 
L 224.05192 -369.469652 
L 222.34888 -373.107648 
L 220.64584 -382.907827 
L 218.9428 -392.910115 
L 217.23976 -396.055559 
L 215.536719 -389.466125 
L 213.833679 -375.888812 
L 212.130639 -363.142007 
L 210.427599 -358.22079 
L 208.724559 -362.450594 
L 207.021519 -370.60455 
L 205.318479 -375.763841 
L 203.615439 -373.837924 
L 201.912399 -366.176028 
L 200.209359 -357.536336 
L 198.506319 -352.447352 
L 196.803279 -351.917052 
L 195.100239 -353.59783 
L 193.397199 -354.078319 
L 191.694159 -351.494419 
L 189.991118 -347.155511 
L 188.288078 -345.306547 
L 186.585038 -348.719889 
L 184.881998 -357.105319 
L 183.178958 -366.084465 
L 181.475918 -371.271203 
L 179.772878 -370.284841 
L 178.069838 -365.144859 
L 176.366798 -361.880021 
L 174.663758 -362.119437 
L 172.960718 -362.935408 
L 171.257678 -359.607635 
L 169.554638 -348.26793 
L 167.851598 -327.971385 
L 166.148558 -301.716326 
L 164.445517 -273.867347 
L 162.742477 -248.328854 
L 161.039437 -226.652613 
L 159.336397 -208.539933 
L 157.633357 -192.734804 
L 155.930317 -179.358924 
L 154.227277 -170.060942 
L 152.524237 -166.242485 
L 150.821197 -168.860565 
L 149.118157 -176.246329 
L 147.415117 -184.91416 
L 145.712077 -191.100755 
L 144.009037 -192.378025 
L 142.305997 -189.125961 
L 140.602957 -184.332952 
L 138.899916 -180.795215 
L 137.196876 -181.560044 
L 135.493836 -185.447653 
L 133.790796 -191.066121 
L 132.087756 -196.661834 
L 130.384716 -201.04307 
L 128.681676 -202.635094 
L 126.978636 -203.150232 
L 125.275596 -202.954693 
L 123.572556 -203.76404 
L 121.869516 -205.80153 
L 120.166476 -208.026127 
L 118.463436 -209.535217 
L 116.760396 -208.927845 
L 115.057356 -204.788966 
L 113.354315 -198.313569 
L 111.651275 -191.984842 
L 109.948235 -187.922285 
L 108.245195 -186.861537 
L 106.542155 -188.588978 
L 104.839115 -191.934466 
L 103.136075 -194.171903 
L 101.433035 -194.6142 
L 99.729995 -195.332728 
L 98.026955 -199.168306 
L 96.323915 -208.299769 
L 94.620875 -222.037156 
L 92.917835 -236.101783 
L 91.214795 -245.132709 
L 89.511755 -246.736777 
L 87.808714 -241.811373 
L 86.105674 -234.421399 
L 84.402634 -228.508859 
L 82.699594 -226.290647 
L 80.996554 -225.642024 
L 79.293514 -224.21806 
L 77.590474 -220.617925 
L 75.887434 -217.440639 
L 74.184394 -217.418257 
L 72.481354 -222.459732 
L 70.778314 -231.092629 
L 69.075274 -239.608683 
L 67.372234 -244.362461 
L 65.669194 -243.550365 
L 63.966154 -239.602798 
L 62.263113 -237.456082 
L 60.560073 -238.812152 
L 58.857033 -244.051753 
L 57.153993 -250.369089 
L 55.450953 -255.172622 
L 53.747913 -257.284604 
L 52.044873 -258.448695 
L 50.341833 -259.842974 
L 48.638793 -262.797198 
L 46.935753 -266.040722 
L 45.232713 -267.717939 
L 43.529673 -266.452033 
L 41.826633 -262.399259 
L 40.123593 -258.288482 
L 38.420552 -255.91341 
z
" style="stroke: #ff7f0e; stroke-opacity: 0.3"/>
    </defs>
    <g>
     <use xlink:href="#mea96d402b1" x="0" y="432" style="fill: #ff7f0e; fill-opacity: 0.3; stroke: #ff7f0e; stroke-opacity: 0.3"/>
    </g>
   </g>
   <g id="line2d_21">
    <path d="M 38.420552 156.141984 
L 40.123593 181.683092 
L 41.826633 194.404345 
L 43.529673 188.618014 
L 46.935753 150.699562 
L 48.638793 146.16619 
L 50.341833 159.533294 
L 52.044873 180.640851 
L 53.747913 196.507574 
L 55.450953 197.192036 
L 57.153993 181.18542 
L 58.857033 157.000961 
L 60.560073 137.234679 
L 62.263113 135.28748 
L 63.966154 149.787864 
L 67.372234 199.672662 
L 69.075274 214.356703 
L 70.778314 212.123552 
L 72.481354 199.283116 
L 74.184394 183.464537 
L 75.887434 172.437059 
L 77.590474 170.120996 
L 79.293514 177.214702 
L 80.996554 190.948631 
L 86.105674 247.256442 
L 87.808714 258.17635 
L 89.511755 264.810747 
L 91.214795 264.208756 
L 92.917835 256.406857 
L 94.620875 245.406075 
L 96.323915 239.894999 
L 98.026955 239.604663 
L 99.729995 240.586186 
L 101.433035 242.221597 
L 103.136075 241.295709 
L 104.839115 236.594806 
L 106.542155 231.487828 
L 108.245195 231.009876 
L 109.948235 233.871211 
L 111.651275 237.545196 
L 113.354315 240.487218 
L 115.057356 238.349557 
L 116.760396 230.31968 
L 118.463436 222.904644 
L 120.166476 218.380034 
L 121.869516 222.270933 
L 123.572556 233.786159 
L 130.384716 297.361206 
L 132.087756 308.176319 
L 133.790796 314.01584 
L 135.493836 318.402462 
L 137.196876 318.646062 
L 138.899916 311.536313 
L 142.305997 292.412229 
L 144.009037 288.972548 
L 145.712077 292.459308 
L 147.415117 303.092252 
L 149.118157 316.592937 
L 150.821197 328.348196 
L 152.524237 335.143445 
L 154.227277 334.491625 
L 155.930317 326.683392 
L 157.633357 310.966279 
L 159.336397 288.737491 
L 161.039437 259.636819 
L 162.742477 222.434398 
L 166.148558 134.825644 
L 167.851598 104.167892 
L 169.554638 93.054265 
L 171.257678 98.195059 
L 172.960718 108.816602 
L 174.663758 114.44702 
L 176.366798 110.256055 
L 179.772878 78.469944 
L 181.475918 69.1992 
L 183.178958 72.458687 
L 184.881998 85.548099 
L 186.585038 96.603247 
L 188.288078 99.431231 
L 191.694159 87.348757 
L 193.397199 87.527696 
L 195.100239 97.484956 
L 196.803279 110.479878 
L 198.506319 116.037906 
L 200.209359 112.035139 
L 201.912399 105.342684 
L 203.615439 105.164033 
L 205.318479 117.840696 
L 208.724559 159.852553 
L 210.427599 164.039934 
L 212.130639 150.695277 
L 213.833679 126.883911 
L 215.536719 106.149644 
L 217.23976 102.061671 
L 218.9428 117.388563 
L 220.64584 143.423448 
L 222.34888 165.464909 
L 224.05192 173.008254 
L 225.75496 162.936773 
L 227.458 145.212695 
L 229.16104 134.530453 
L 230.86408 139.398317 
L 232.56712 155.218958 
L 234.27016 172.479796 
L 235.9732 185.323296 
L 237.67624 193.825964 
L 239.37928 200.010425 
L 241.08232 212.067638 
L 244.488401 246.315694 
L 246.191441 251.399584 
L 247.894481 240.904063 
L 249.597521 219.504954 
L 251.300561 203.322861 
L 253.003601 203.633842 
L 254.706641 225.60167 
L 256.409681 261.040108 
L 258.112721 293.626301 
L 259.815761 313.188966 
L 261.518801 318.666823 
L 263.221841 316.49734 
L 264.924881 319.429575 
L 266.627921 334.478018 
L 268.330962 355.23725 
L 270.034002 366.132534 
L 271.737042 361.692693 
L 275.143122 333.480411 
L 276.846162 328.197367 
L 278.549202 338.954448 
L 280.252242 357.931082 
L 281.955282 371.059924 
L 283.658322 366.329379 
L 285.361362 342.05334 
L 287.064402 311.100065 
L 288.767442 285.07446 
L 290.470482 268.816438 
L 292.173522 259.5902 
L 293.876563 253.126986 
L 295.579603 240.31122 
L 297.282643 220.439737 
L 298.985683 198.528946 
L 300.688723 178.876019 
L 302.391763 163.332206 
L 304.094803 152.874062 
L 305.797843 147.196227 
L 307.500883 143.149128 
L 309.203923 143.076311 
L 310.906963 145.396514 
L 312.610003 141.050258 
L 314.313043 127.598472 
L 316.016083 108.002349 
L 317.719123 86.201559 
L 319.422164 70.018619 
L 321.125204 70.723846 
L 322.828244 88.142359 
L 324.531284 110.383433 
L 326.234324 124.037874 
L 327.937364 124.257482 
L 329.640404 112.802583 
L 331.343444 97.400861 
L 333.046484 90.543002 
L 334.749524 90.489433 
L 336.452564 92.243393 
L 338.155604 89.156477 
L 339.858644 78.111788 
L 341.561684 62.384758 
L 343.264724 54.871646 
L 344.967765 57.993065 
L 346.670805 69.594704 
L 348.373845 77.46396 
L 350.076885 76.435396 
L 351.779925 71.402378 
L 353.482965 68.823529 
L 355.186005 77.84045 
L 356.889045 97.684918 
L 358.592085 120.39983 
L 360.295125 137.056732 
L 361.998165 143.134631 
L 363.701205 140.488859 
L 365.404245 138.97345 
L 367.107285 142.64278 
L 368.810326 154.745617 
L 370.513366 170.411941 
L 372.216406 181.996216 
L 373.919446 183.092171 
L 375.622486 172.210654 
L 379.028566 133.944891 
L 380.731606 124.236225 
L 382.434646 124.946035 
L 384.137686 136.620698 
L 385.840726 150.250623 
L 387.543766 158.426915 
L 389.246806 157.547574 
L 390.949846 150.844919 
L 392.652886 144.904929 
L 394.355927 147.26277 
L 396.058967 156.910445 
L 397.762007 169.55851 
L 399.465047 178.200577 
L 401.168087 178.124993 
L 402.871127 169.337978 
L 404.574167 159.688773 
L 406.277207 158.772431 
L 407.980247 167.490142 
L 411.386327 190.882976 
L 413.089367 193.634714 
L 414.792407 180.835323 
L 418.198487 136.446891 
L 419.901528 119.630027 
L 421.604568 113.305076 
L 423.307608 121.283916 
L 425.010648 140.950685 
L 426.713688 162.96695 
L 428.416728 179.804715 
L 430.119768 188.578853 
L 431.822808 189.785154 
L 433.525848 187.385514 
L 435.228888 184.147577 
L 436.931928 181.393401 
L 438.634968 179.085009 
L 440.338008 174.078067 
L 442.041048 166.108123 
L 445.447129 144.950863 
L 447.150169 137.169296 
L 448.853209 133.078664 
L 450.556249 131.241565 
L 452.259289 132.283931 
L 453.962329 134.632919 
L 455.665369 137.321886 
L 457.368409 138.605621 
L 459.071449 139.744335 
L 460.774489 135.22678 
L 462.477529 123.14831 
L 464.180569 108.6735 
L 465.883609 100.752147 
L 467.586649 103.91249 
L 469.289689 119.52537 
L 470.99273 138.775567 
L 472.69577 153.41723 
L 474.39881 159.942906 
L 476.10185 159.791348 
L 477.80489 159.13153 
L 479.50793 167.542111 
L 482.91401 201.675754 
L 484.61705 209.458564 
L 486.32009 198.770029 
L 488.02313 177.379798 
L 489.72617 158.566443 
L 491.42921 151.537983 
L 493.13225 158.760432 
L 494.83529 170.805964 
L 496.538331 178.27797 
L 498.241371 175.622252 
L 499.944411 163.537525 
L 501.647451 150.472114 
L 503.350491 145.038581 
L 505.053531 142.316723 
L 506.756571 140.120628 
L 508.459611 134.003587 
L 510.162651 122.609932 
L 511.865691 113.215757 
L 513.568731 114.591027 
L 515.271771 127.387565 
L 516.974811 148.854545 
L 518.677851 171.790716 
L 520.380891 187.806567 
L 522.083932 191.161524 
L 523.786972 183.403599 
L 525.490012 169.787008 
L 527.193052 155.043404 
L 528.896092 136.274668 
L 530.599132 114.917567 
L 532.302172 97.283379 
L 534.005212 90.043239 
L 535.708252 95.560874 
L 539.114332 126.099995 
L 540.817372 134.309488 
L 542.520412 130.36807 
L 544.223452 115.660797 
L 545.926492 95.573692 
L 547.629533 82.584235 
L 549.332573 82.050512 
L 551.035613 89.06514 
L 552.738653 101.40916 
L 554.441693 111.536485 
L 556.144733 114.321222 
L 557.847773 111.489495 
L 559.550813 112.046373 
L 561.253853 121.995968 
L 561.253853 121.995968 
" style="fill: none; stroke: #1f77b4; stroke-width: 1.5; stroke-linecap: square"/>
   </g>
   <g id="line2d_22">
    <path d="M 38.420552 180.095085 
L 40.123593 177.377411 
L 41.826633 172.922039 
L 43.529673 168.834262 
L 45.232713 167.718097 
L 46.935753 169.46434 
L 48.638793 172.829413 
L 50.341833 175.801781 
L 52.044873 176.982353 
L 53.747913 177.718203 
L 55.450953 180.130574 
L 57.153993 185.257828 
L 58.857033 191.663695 
L 60.560073 196.783275 
L 62.263113 198.058765 
L 63.966154 195.618539 
L 65.669194 191.517976 
L 67.372234 190.736557 
L 69.075274 195.519169 
L 72.481354 212.81561 
L 74.184394 217.751019 
L 75.887434 217.61148 
L 79.293514 211.182579 
L 80.996554 209.537084 
L 82.699594 208.611974 
L 84.402634 206.296571 
L 86.105674 200.468032 
L 87.808714 193.162209 
L 89.511755 188.307115 
L 91.214795 190.047354 
L 92.917835 199.248812 
L 96.323915 226.683321 
L 98.026955 235.814478 
L 99.729995 239.631894 
L 101.433035 240.358862 
L 103.136075 240.93852 
L 104.839115 243.098212 
L 106.542155 246.47625 
L 108.245195 248.310323 
L 109.948235 247.329453 
L 111.651275 243.351637 
L 115.057356 230.608339 
L 116.760396 226.554906 
L 118.463436 225.841091 
L 120.166476 227.26295 
L 123.572556 231.770774 
L 125.275596 232.48761 
L 126.978636 232.495243 
L 128.681676 232.984189 
L 130.384716 234.714552 
L 132.087756 239.053947 
L 135.493836 250.590213 
L 137.196876 254.328271 
L 138.899916 254.7913 
L 140.602957 251.501501 
L 142.305997 246.753951 
L 144.009037 243.63103 
L 145.712077 244.808928 
L 147.415117 251.111438 
L 149.118157 259.836709 
L 150.821197 267.217386 
L 152.524237 269.669965 
L 154.227277 265.812137 
L 155.930317 256.680649 
L 157.633357 243.711179 
L 159.336397 228.11404 
L 161.039437 209.767028 
L 162.742477 188.143842 
L 164.445517 162.654993 
L 167.851598 108.516322 
L 169.554638 88.279654 
L 171.257678 77.123633 
L 172.960718 73.688471 
L 174.663758 74.293934 
L 176.366798 74.47878 
L 178.069838 71.412976 
L 179.772878 66.339735 
L 181.475918 65.466999 
L 183.178958 70.888865 
L 184.881998 80.007189 
L 186.585038 88.322536 
L 188.288078 91.847533 
L 189.991118 90.093625 
L 191.694159 85.79914 
L 193.397199 82.76022 
L 195.100239 83.047522 
L 196.803279 84.925906 
L 198.506319 84.743737 
L 200.209359 79.760785 
L 201.912399 71.055498 
L 203.615439 63.259235 
L 205.318479 61.259331 
L 207.021519 66.266504 
L 208.724559 74.145735 
L 210.427599 78.212461 
L 212.130639 73.518564 
L 213.833679 61.024673 
L 215.536719 47.63904 
L 217.23976 41.019426 
L 218.9428 44.166716 
L 222.34888 63.740256 
L 224.05192 67.647733 
L 225.75496 65.052281 
L 227.458 60.588421 
L 229.16104 60.114699 
L 230.86408 66.546195 
L 234.27016 91.187723 
L 235.9732 100.19662 
L 237.67624 104.69425 
L 239.37928 107.945455 
L 241.08232 114.234258 
L 242.785361 125.455812 
L 246.191441 155.572633 
L 247.894481 167.012571 
L 249.597521 172.693167 
L 251.300561 173.040506 
L 253.003601 170.835173 
L 254.706641 169.667495 
L 256.409681 172.608655 
L 258.112721 181.192458 
L 259.815761 194.819985 
L 263.221841 226.369209 
L 264.924881 238.540766 
L 266.627921 245.799381 
L 268.330962 248.859708 
L 270.034002 250.121544 
L 271.737042 252.672908 
L 273.440082 258.34296 
L 276.846162 275.614331 
L 278.549202 281.34565 
L 280.252242 282.195814 
L 281.955282 278.275902 
L 283.658322 271.45053 
L 287.064402 255.308136 
L 292.173522 229.81502 
L 293.876563 223.808382 
L 295.579603 220.648167 
L 298.985683 217.866054 
L 300.688723 213.64683 
L 302.391763 206.118555 
L 304.094803 197.072216 
L 305.797843 189.275035 
L 307.500883 185.369236 
L 309.203923 185.011643 
L 310.906963 185.316779 
L 312.610003 183.300661 
L 314.313043 178.816699 
L 316.016083 173.951173 
L 317.719123 171.523344 
L 319.422164 173.228871 
L 321.125204 177.880441 
L 322.828244 181.846804 
L 324.531284 182.152292 
L 326.234324 178.290954 
L 327.937364 172.792231 
L 329.640404 168.412832 
L 331.343444 167.572476 
L 334.749524 171.88774 
L 336.452564 171.227236 
L 338.155604 167.170023 
L 339.858644 161.576685 
L 341.561684 156.665298 
L 343.264724 153.652294 
L 344.967765 153.33331 
L 346.670805 155.963478 
L 348.373845 161.25576 
L 350.076885 168.322782 
L 351.779925 174.6433 
L 353.482965 177.836855 
L 355.186005 176.351836 
L 356.889045 170.689482 
L 358.592085 163.73073 
L 360.295125 159.328954 
L 361.998165 160.328546 
L 363.701205 166.099518 
L 365.404245 172.699401 
L 367.107285 176.382431 
L 368.810326 175.142848 
L 370.513366 170.378005 
L 372.216406 164.157526 
L 373.919446 158.938886 
L 375.622486 155.435183 
L 377.325526 153.191084 
L 379.028566 151.802557 
L 380.731606 151.850136 
L 382.434646 154.309092 
L 384.137686 159.41483 
L 385.840726 165.748445 
L 387.543766 170.836123 
L 389.246806 172.632243 
L 390.949846 171.063531 
L 392.652886 167.866221 
L 394.355927 165.651322 
L 396.058967 166.035057 
L 397.762007 169.107229 
L 401.168087 177.896426 
L 402.871127 182.921059 
L 406.277207 195.800415 
L 407.980247 200.032494 
L 409.683287 199.241376 
L 411.386327 193.156592 
L 413.089367 183.85737 
L 414.792407 176.269872 
L 416.495447 175.167764 
L 418.198487 182.568527 
L 421.604568 206.656465 
L 423.307608 212.67673 
L 425.010648 211.620289 
L 426.713688 206.907313 
L 428.416728 202.667605 
L 430.119768 201.437085 
L 431.822808 202.747049 
L 433.525848 205.003087 
L 436.931928 208.219699 
L 438.634968 210.778104 
L 440.338008 215.475841 
L 442.041048 220.832124 
L 443.744088 223.525469 
L 445.447129 221.412475 
L 447.150169 214.095765 
L 448.853209 204.174058 
L 450.556249 196.535151 
L 452.259289 194.943359 
L 453.962329 199.273283 
L 455.665369 205.684103 
L 457.368409 210.165036 
L 459.071449 210.087717 
L 462.477529 201.992215 
L 464.180569 201.962262 
L 465.883609 207.446613 
L 469.289689 224.990081 
L 470.99273 229.211959 
L 472.69577 227.354984 
L 474.39881 220.749894 
L 476.10185 212.595842 
L 477.80489 205.812635 
L 479.50793 202.408293 
L 481.21097 202.170321 
L 484.61705 203.632433 
L 486.32009 203.966267 
L 488.02313 205.188086 
L 489.72617 208.545833 
L 493.13225 218.862114 
L 494.83529 221.159573 
L 496.538331 218.573389 
L 498.241371 211.400044 
L 499.944411 202.825609 
L 501.647451 196.593636 
L 503.350491 194.46389 
L 505.053531 195.869641 
L 506.756571 197.518993 
L 508.459611 195.239935 
L 510.162651 187.509454 
L 511.865691 176.732223 
L 513.568731 168.139035 
L 515.271771 166.430303 
L 516.974811 173.342961 
L 520.380891 197.979409 
L 522.083932 204.546528 
L 523.786972 203.594175 
L 525.490012 197.192909 
L 527.193052 189.826576 
L 528.896092 186.132714 
L 530.599132 188.104317 
L 532.302172 194.654894 
L 534.005212 202.124363 
L 535.708252 208.060626 
L 537.411292 211.71154 
L 539.114332 213.172358 
L 540.817372 212.10143 
L 542.520412 208.409653 
L 544.223452 202.537661 
L 547.629533 188.054525 
L 549.332573 184.298008 
L 551.035613 185.609678 
L 552.738653 192.372089 
L 554.441693 201.631388 
L 556.144733 209.547522 
L 557.847773 212.970069 
L 559.550813 210.953132 
L 561.253853 205.130372 
L 561.253853 205.130372 
" style="fill: none; stroke: #ff7f0e; stroke-width: 1.5; stroke-linecap: square"/>
   </g>
  </g>
  <g id="axes_2">
   <g id="PathCollection_1">
    <defs>
     <path id="C0_0_b8a860e934" d="M 0 1.118034 
C 0.296506 1.118034 0.580908 1.000231 0.790569 0.790569 
C 1.000231 0.580908 1.118034 0.296506 1.118034 -0 
C 1.118034 -0.296506 1.000231 -0.580908 0.790569 -0.790569 
C 0.580908 -1.000231 0.296506 -1.118034 0 -1.118034 
C -0.296506 -1.118034 -0.580908 -1.000231 -0.790569 -0.790569 
C -1.000231 -0.580908 -1.118034 -0.296506 -1.118034 0 
C -1.118034 0.296506 -1.000231 0.580908 -0.790569 0.790569 
C -0.580908 1.000231 -0.296506 1.118034 0 1.118034 
z
"/>
    </defs>
    <g clip-path="url(#p9f36f0dd46)">
     <use xlink:href="#C0_0_b8a860e934" x="499.567875" y="98.954913" style="stroke: #000000"/>
    </g>
    <g clip-path="url(#p9f36f0dd46)">
     <use xlink:href="#C0_0_b8a860e934" x="508.857445" y="99.041609" style="stroke: #000000"/>
    </g>
    <g clip-path="url(#p9f36f0dd46)">
     <use xlink:href="#C0_0_b8a860e934" x="518.167044" y="98.866156" style="stroke: #000000"/>
    </g>
   </g>
   <g id="matplotlib.axis_3"/>
   <g id="matplotlib.axis_4"/>
   <g id="line2d_23">
    <path d="M 548.859194 73.63672 
L 548.781507 71.164689 
L 548.548754 68.702415 
L 548.161852 66.259613 
L 547.622329 63.845926 
L 546.932314 61.470879 
L 546.09453 59.143845 
L 545.112284 56.874007 
L 543.989451 54.670325 
L 542.730464 52.541494 
L 541.340291 50.495916 
L 539.824418 48.541664 
L 538.188828 46.686451 
L 536.439975 44.937599 
L 534.584762 43.302008 
L 532.630511 41.786136 
L 530.584933 40.395962 
L 528.456102 39.136975 
L 526.252419 38.014143 
L 523.982582 37.031896 
L 521.655547 36.194112 
L 519.2805 35.504097 
L 516.866813 34.964574 
L 514.424012 34.577673 
L 511.961737 34.344919 
L 509.489707 34.267233 
L 507.017676 34.344919 
L 504.555402 34.577673 
L 502.1126 34.964574 
L 499.698913 35.504097 
L 497.323866 36.194112 
L 494.996832 37.031896 
L 492.726994 38.014143 
L 490.523312 39.136975 
L 488.394481 40.395962 
L 486.348903 41.786136 
L 484.394651 43.302008 
L 482.539438 44.937599 
L 480.790586 46.686451 
L 479.154995 48.541664 
L 477.639123 50.495916 
L 476.248949 52.541494 
L 474.989962 54.670325 
L 473.86713 56.874007 
L 472.884883 59.143845 
L 472.047099 61.470879 
L 471.357084 63.845926 
L 470.817561 66.259613 
L 470.43066 68.702415 
L 470.197906 71.164689 
L 470.12022 73.63672 
L 470.197906 76.10875 
L 470.43066 78.571025 
L 470.817561 81.013826 
L 471.357084 83.427513 
L 472.047099 85.80256 
L 472.884883 88.129595 
L 473.86713 90.399432 
L 474.989962 92.603115 
L 476.248949 94.731946 
L 477.639123 96.777524 
L 479.154995 98.731775 
L 480.790586 100.586988 
L 482.539438 102.335841 
L 484.394651 103.971431 
L 486.348903 105.487304 
L 488.394481 106.877477 
L 490.523312 108.136464 
L 492.726994 109.259297 
L 494.996832 110.241543 
L 497.323866 111.079327 
L 499.698913 111.769342 
L 502.1126 112.308865 
L 504.555402 112.695767 
L 507.017676 112.92852 
L 509.489707 113.006207 
L 511.961737 112.92852 
L 514.424012 112.695767 
L 516.866813 112.308865 
L 519.2805 111.769342 
L 521.655547 111.079327 
L 523.982582 110.241543 
L 526.252419 109.259297 
L 528.456102 108.136464 
L 530.584933 106.877477 
L 532.630511 105.487304 
L 534.584762 103.971431 
L 536.439975 102.335841 
L 538.188828 100.586988 
L 539.824418 98.731775 
L 541.340291 96.777524 
L 542.730464 94.731946 
L 543.989451 92.603115 
L 545.112284 90.399432 
L 546.09453 88.129595 
L 546.932314 85.80256 
L 547.622329 83.427513 
L 548.161852 81.013826 
L 548.548754 78.571025 
L 548.781507 76.10875 
L 548.859194 73.63672 
" style="fill: none; stroke: #000000; stroke-linecap: square"/>
   </g>
   <g id="line2d_24">
    <path d="M 501.244181 35.140385 
L 509.489707 28.361809 
L 517.735233 35.140385 
" style="fill: none; stroke: #000000; stroke-linecap: square"/>
   </g>
   <g id="line2d_25">
    <path d="M 470.356436 69.266707 
L 469.33283 67.534449 
L 468.702918 67.471458 
L 467.765924 67.762792 
L 466.821057 69.266707 
L 466.970661 74.069784 
L 466.419488 80.975192 
L 467.600572 83.975147 
L 469.33283 84.534194 
L 470.986348 83.077523 
" style="fill: none; stroke: #000000; stroke-linecap: square"/>
   </g>
   <g id="line2d_26">
    <path d="M 548.622977 69.266707 
L 549.646584 67.534449 
L 550.276495 67.471458 
L 551.213489 67.762792 
L 552.158357 69.266707 
L 552.008753 74.069784 
L 552.559926 80.975192 
L 551.378841 83.975147 
L 549.646584 84.534194 
L 547.993065 83.077523 
" style="fill: none; stroke: #000000; stroke-linecap: square"/>
   </g>
  </g>
 </g>
 <defs>
  <clipPath id="p1532861f5b">
   <rect x="38.420552" y="18.118365" width="523.446395" height="380.525145"/>
  </clipPath>
  <clipPath id="p9f36f0dd46">
   <rect x="462.112466" y="24.12959" width="94.754482" height="93.108837"/>
  </clipPath>
 </defs>
</svg>
