<?xml version="1.0" encoding="utf-8" standalone="no"?>
<!DOCTYPE svg PUBLIC "-//W3C//DTD SVG 1.1//EN"
  "http://www.w3.org/Graphics/SVG/1.1/DTD/svg11.dtd">
<svg xmlns:xlink="http://www.w3.org/1999/xlink" width="576pt" height="432pt" viewBox="0 0 576 432" xmlns="http://www.w3.org/2000/svg" version="1.1">
 <metadata>
  <rdf:RDF xmlns:dc="http://purl.org/dc/elements/1.1/" xmlns:cc="http://creativecommons.org/ns#" xmlns:rdf="http://www.w3.org/1999/02/22-rdf-syntax-ns#">
   <cc:Work>
    <dc:type rdf:resource="http://purl.org/dc/dcmitype/StillImage"/>
    <dc:date>2025-02-17T18:07:27.035804</dc:date>
    <dc:format>image/svg+xml</dc:format>
    <dc:creator>
     <cc:Agent>
      <dc:title>Matplotlib v3.10.0, https://matplotlib.org/</dc:title>
     </cc:Agent>
    </dc:creator>
   </cc:Work>
  </rdf:RDF>
 </metadata>
 <defs>
  <style type="text/css">*{stroke-linejoin: round; stroke-linecap: butt}</style>
 </defs>
 <g id="figure_1">
  <g id="patch_1">
   <path d="M 0 432 
L 576 432 
L 576 0 
L 0 0 
z
" style="fill: #ffffff"/>
  </g>
  <g id="axes_1">
   <g id="patch_2">
    <path d="M 54.323678 398.64351 
L 561.866948 398.64351 
L 561.866948 18.118365 
L 54.323678 18.118365 
L 54.323678 398.64351 
z
" style="fill: none; opacity: 0"/>
   </g>
   <g id="patch_3">
    <path d="M 54.323678 386.971482 
L 54.323678 29.790393 
" style="fill: none; stroke: #000000; stroke-width: 0.8; stroke-linejoin: miter; stroke-linecap: square"/>
   </g>
   <g id="LineCollection_1">
    <path d="M 287.090789 18.118365 
L 287.090789 398.64351 
" clip-path="url(#p7056ff2a7d)" style="fill: none; stroke-dasharray: 3.7,1.6; stroke-dashoffset: 0; stroke: #000000"/>
    <path d="M 371.637299 18.118365 
L 371.637299 398.64351 
" clip-path="url(#p7056ff2a7d)" style="fill: none; stroke-dasharray: 3.7,1.6; stroke-dashoffset: 0; stroke: #000000"/>
   </g>
   <g id="matplotlib.axis_1">
    <g id="xtick_1">
     <g id="line2d_1">
      <defs>
       <path id="m4db18b0433" d="M 0 0 
L 0 3.5 
" style="stroke: #000000; stroke-width: 0.8"/>
      </defs>
      <g>
       <use xlink:href="#m4db18b0433" x="54.587885" y="398.64351" style="stroke: #000000; stroke-width: 0.8"/>
      </g>
     </g>
     <g id="text_1">
      <!-- −0.20 -->
      <g transform="translate(39.265229 413.241947) scale(0.1 -0.1)">
       <defs>
        <path id="DejaVuSans-2212" d="M 678 2272 
L 4684 2272 
L 4684 1741 
L 678 1741 
L 678 2272 
z
" transform="scale(0.015625)"/>
        <path id="DejaVuSans-30" d="M 2034 4250 
Q 1547 4250 1301 3770 
Q 1056 3291 1056 2328 
Q 1056 1369 1301 889 
Q 1547 409 2034 409 
Q 2525 409 2770 889 
Q 3016 1369 3016 2328 
Q 3016 3291 2770 3770 
Q 2525 4250 2034 4250 
z
M 2034 4750 
Q 2819 4750 3233 4129 
Q 3647 3509 3647 2328 
Q 3647 1150 3233 529 
Q 2819 -91 2034 -91 
Q 1250 -91 836 529 
Q 422 1150 422 2328 
Q 422 3509 836 4129 
Q 1250 4750 2034 4750 
z
" transform="scale(0.015625)"/>
        <path id="DejaVuSans-2e" d="M 684 794 
L 1344 794 
L 1344 0 
L 684 0 
L 684 794 
z
" transform="scale(0.015625)"/>
        <path id="DejaVuSans-32" d="M 1228 531 
L 3431 531 
L 3431 0 
L 469 0 
L 469 531 
Q 828 903 1448 1529 
Q 2069 2156 2228 2338 
Q 2531 2678 2651 2914 
Q 2772 3150 2772 3378 
Q 2772 3750 2511 3984 
Q 2250 4219 1831 4219 
Q 1534 4219 1204 4116 
Q 875 4013 500 3803 
L 500 4441 
Q 881 4594 1212 4672 
Q 1544 4750 1819 4750 
Q 2544 4750 2975 4387 
Q 3406 4025 3406 3419 
Q 3406 3131 3298 2873 
Q 3191 2616 2906 2266 
Q 2828 2175 2409 1742 
Q 1991 1309 1228 531 
z
" transform="scale(0.015625)"/>
       </defs>
       <use xlink:href="#DejaVuSans-2212"/>
       <use xlink:href="#DejaVuSans-30" transform="translate(83.789062 0)"/>
       <use xlink:href="#DejaVuSans-2e" transform="translate(147.412109 0)"/>
       <use xlink:href="#DejaVuSans-32" transform="translate(179.199219 0)"/>
       <use xlink:href="#DejaVuSans-30" transform="translate(242.822266 0)"/>
      </g>
     </g>
    </g>
    <g id="xtick_2">
     <g id="line2d_2">
      <g>
       <use xlink:href="#m4db18b0433" x="139.134396" y="398.64351" style="stroke: #000000; stroke-width: 0.8"/>
      </g>
     </g>
     <g id="text_2">
      <!-- 0.00 -->
      <g transform="translate(128.001583 413.241947) scale(0.1 -0.1)">
       <use xlink:href="#DejaVuSans-30"/>
       <use xlink:href="#DejaVuSans-2e" transform="translate(63.623047 0)"/>
       <use xlink:href="#DejaVuSans-30" transform="translate(95.410156 0)"/>
       <use xlink:href="#DejaVuSans-30" transform="translate(159.033203 0)"/>
      </g>
     </g>
    </g>
    <g id="xtick_3">
     <g id="line2d_3">
      <g>
       <use xlink:href="#m4db18b0433" x="223.680906" y="398.64351" style="stroke: #000000; stroke-width: 0.8"/>
      </g>
     </g>
     <g id="text_3">
      <!-- 0.20 -->
      <g transform="translate(212.548094 413.241947) scale(0.1 -0.1)">
       <use xlink:href="#DejaVuSans-30"/>
       <use xlink:href="#DejaVuSans-2e" transform="translate(63.623047 0)"/>
       <use xlink:href="#DejaVuSans-32" transform="translate(95.410156 0)"/>
       <use xlink:href="#DejaVuSans-30" transform="translate(159.033203 0)"/>
      </g>
     </g>
    </g>
    <g id="xtick_4">
     <g id="line2d_4">
      <g>
       <use xlink:href="#m4db18b0433" x="287.090789" y="398.64351" style="stroke: #000000; stroke-width: 0.8"/>
      </g>
     </g>
     <g id="text_4">
      <!-- 0.35 -->
      <g transform="translate(275.957976 413.241947) scale(0.1 -0.1)">
       <defs>
        <path id="DejaVuSans-33" d="M 2597 2516 
Q 3050 2419 3304 2112 
Q 3559 1806 3559 1356 
Q 3559 666 3084 287 
Q 2609 -91 1734 -91 
Q 1441 -91 1130 -33 
Q 819 25 488 141 
L 488 750 
Q 750 597 1062 519 
Q 1375 441 1716 441 
Q 2309 441 2620 675 
Q 2931 909 2931 1356 
Q 2931 1769 2642 2001 
Q 2353 2234 1838 2234 
L 1294 2234 
L 1294 2753 
L 1863 2753 
Q 2328 2753 2575 2939 
Q 2822 3125 2822 3475 
Q 2822 3834 2567 4026 
Q 2313 4219 1838 4219 
Q 1578 4219 1281 4162 
Q 984 4106 628 3988 
L 628 4550 
Q 988 4650 1302 4700 
Q 1616 4750 1894 4750 
Q 2613 4750 3031 4423 
Q 3450 4097 3450 3541 
Q 3450 3153 3228 2886 
Q 3006 2619 2597 2516 
z
" transform="scale(0.015625)"/>
        <path id="DejaVuSans-35" d="M 691 4666 
L 3169 4666 
L 3169 4134 
L 1269 4134 
L 1269 2991 
Q 1406 3038 1543 3061 
Q 1681 3084 1819 3084 
Q 2600 3084 3056 2656 
Q 3513 2228 3513 1497 
Q 3513 744 3044 326 
Q 2575 -91 1722 -91 
Q 1428 -91 1123 -41 
Q 819 9 494 109 
L 494 744 
Q 775 591 1075 516 
Q 1375 441 1709 441 
Q 2250 441 2565 725 
Q 2881 1009 2881 1497 
Q 2881 1984 2565 2268 
Q 2250 2553 1709 2553 
Q 1456 2553 1204 2497 
Q 953 2441 691 2322 
L 691 4666 
z
" transform="scale(0.015625)"/>
       </defs>
       <use xlink:href="#DejaVuSans-30"/>
       <use xlink:href="#DejaVuSans-2e" transform="translate(63.623047 0)"/>
       <use xlink:href="#DejaVuSans-33" transform="translate(95.410156 0)"/>
       <use xlink:href="#DejaVuSans-35" transform="translate(159.033203 0)"/>
      </g>
     </g>
    </g>
    <g id="xtick_5">
     <g id="line2d_5">
      <g>
       <use xlink:href="#m4db18b0433" x="308.227416" y="398.64351" style="stroke: #000000; stroke-width: 0.8"/>
      </g>
     </g>
     <g id="text_5">
      <!-- 0.40 -->
      <g transform="translate(297.094604 413.241947) scale(0.1 -0.1)">
       <defs>
        <path id="DejaVuSans-34" d="M 2419 4116 
L 825 1625 
L 2419 1625 
L 2419 4116 
z
M 2253 4666 
L 3047 4666 
L 3047 1625 
L 3713 1625 
L 3713 1100 
L 3047 1100 
L 3047 0 
L 2419 0 
L 2419 1100 
L 313 1100 
L 313 1709 
L 2253 4666 
z
" transform="scale(0.015625)"/>
       </defs>
       <use xlink:href="#DejaVuSans-30"/>
       <use xlink:href="#DejaVuSans-2e" transform="translate(63.623047 0)"/>
       <use xlink:href="#DejaVuSans-34" transform="translate(95.410156 0)"/>
       <use xlink:href="#DejaVuSans-30" transform="translate(159.033203 0)"/>
      </g>
     </g>
    </g>
    <g id="xtick_6">
     <g id="line2d_6">
      <g>
       <use xlink:href="#m4db18b0433" x="371.637299" y="398.64351" style="stroke: #000000; stroke-width: 0.8"/>
      </g>
     </g>
     <g id="text_6">
      <!-- 0.55 -->
      <g transform="translate(360.504487 413.241947) scale(0.1 -0.1)">
       <use xlink:href="#DejaVuSans-30"/>
       <use xlink:href="#DejaVuSans-2e" transform="translate(63.623047 0)"/>
       <use xlink:href="#DejaVuSans-35" transform="translate(95.410156 0)"/>
       <use xlink:href="#DejaVuSans-35" transform="translate(159.033203 0)"/>
      </g>
     </g>
    </g>
    <g id="xtick_7">
     <g id="line2d_7">
      <g>
       <use xlink:href="#m4db18b0433" x="392.773927" y="398.64351" style="stroke: #000000; stroke-width: 0.8"/>
      </g>
     </g>
     <g id="text_7">
      <!-- 0.60 -->
      <g transform="translate(381.641114 413.241947) scale(0.1 -0.1)">
       <defs>
        <path id="DejaVuSans-36" d="M 2113 2584 
Q 1688 2584 1439 2293 
Q 1191 2003 1191 1497 
Q 1191 994 1439 701 
Q 1688 409 2113 409 
Q 2538 409 2786 701 
Q 3034 994 3034 1497 
Q 3034 2003 2786 2293 
Q 2538 2584 2113 2584 
z
M 3366 4563 
L 3366 3988 
Q 3128 4100 2886 4159 
Q 2644 4219 2406 4219 
Q 1781 4219 1451 3797 
Q 1122 3375 1075 2522 
Q 1259 2794 1537 2939 
Q 1816 3084 2150 3084 
Q 2853 3084 3261 2657 
Q 3669 2231 3669 1497 
Q 3669 778 3244 343 
Q 2819 -91 2113 -91 
Q 1303 -91 875 529 
Q 447 1150 447 2328 
Q 447 3434 972 4092 
Q 1497 4750 2381 4750 
Q 2619 4750 2861 4703 
Q 3103 4656 3366 4563 
z
" transform="scale(0.015625)"/>
       </defs>
       <use xlink:href="#DejaVuSans-30"/>
       <use xlink:href="#DejaVuSans-2e" transform="translate(63.623047 0)"/>
       <use xlink:href="#DejaVuSans-36" transform="translate(95.410156 0)"/>
       <use xlink:href="#DejaVuSans-30" transform="translate(159.033203 0)"/>
      </g>
     </g>
    </g>
    <g id="xtick_8">
     <g id="line2d_8">
      <g>
       <use xlink:href="#m4db18b0433" x="477.320437" y="398.64351" style="stroke: #000000; stroke-width: 0.8"/>
      </g>
     </g>
     <g id="text_8">
      <!-- 0.80 -->
      <g transform="translate(466.187625 413.241947) scale(0.1 -0.1)">
       <defs>
        <path id="DejaVuSans-38" d="M 2034 2216 
Q 1584 2216 1326 1975 
Q 1069 1734 1069 1313 
Q 1069 891 1326 650 
Q 1584 409 2034 409 
Q 2484 409 2743 651 
Q 3003 894 3003 1313 
Q 3003 1734 2745 1975 
Q 2488 2216 2034 2216 
z
M 1403 2484 
Q 997 2584 770 2862 
Q 544 3141 544 3541 
Q 544 4100 942 4425 
Q 1341 4750 2034 4750 
Q 2731 4750 3128 4425 
Q 3525 4100 3525 3541 
Q 3525 3141 3298 2862 
Q 3072 2584 2669 2484 
Q 3125 2378 3379 2068 
Q 3634 1759 3634 1313 
Q 3634 634 3220 271 
Q 2806 -91 2034 -91 
Q 1263 -91 848 271 
Q 434 634 434 1313 
Q 434 1759 690 2068 
Q 947 2378 1403 2484 
z
M 1172 3481 
Q 1172 3119 1398 2916 
Q 1625 2713 2034 2713 
Q 2441 2713 2670 2916 
Q 2900 3119 2900 3481 
Q 2900 3844 2670 4047 
Q 2441 4250 2034 4250 
Q 1625 4250 1398 4047 
Q 1172 3844 1172 3481 
z
" transform="scale(0.015625)"/>
       </defs>
       <use xlink:href="#DejaVuSans-30"/>
       <use xlink:href="#DejaVuSans-2e" transform="translate(63.623047 0)"/>
       <use xlink:href="#DejaVuSans-38" transform="translate(95.410156 0)"/>
       <use xlink:href="#DejaVuSans-30" transform="translate(159.033203 0)"/>
      </g>
     </g>
    </g>
    <g id="xtick_9">
     <g id="line2d_9">
      <g>
       <use xlink:href="#m4db18b0433" x="561.866948" y="398.64351" style="stroke: #000000; stroke-width: 0.8"/>
      </g>
     </g>
     <g id="text_9">
      <!-- 1.00 -->
      <g transform="translate(550.734135 413.241947) scale(0.1 -0.1)">
       <defs>
        <path id="DejaVuSans-31" d="M 794 531 
L 1825 531 
L 1825 4091 
L 703 3866 
L 703 4441 
L 1819 4666 
L 2450 4666 
L 2450 531 
L 3481 531 
L 3481 0 
L 794 0 
L 794 531 
z
" transform="scale(0.015625)"/>
       </defs>
       <use xlink:href="#DejaVuSans-31"/>
       <use xlink:href="#DejaVuSans-2e" transform="translate(63.623047 0)"/>
       <use xlink:href="#DejaVuSans-30" transform="translate(95.410156 0)"/>
       <use xlink:href="#DejaVuSans-30" transform="translate(159.033203 0)"/>
      </g>
     </g>
    </g>
    <g id="text_10">
     <!-- Time (s) -->
     <g transform="translate(287.766406 426.920073) scale(0.1 -0.1)">
      <defs>
       <path id="DejaVuSans-54" d="M -19 4666 
L 3928 4666 
L 3928 4134 
L 2272 4134 
L 2272 0 
L 1638 0 
L 1638 4134 
L -19 4134 
L -19 4666 
z
" transform="scale(0.015625)"/>
       <path id="DejaVuSans-69" d="M 603 3500 
L 1178 3500 
L 1178 0 
L 603 0 
L 603 3500 
z
M 603 4863 
L 1178 4863 
L 1178 4134 
L 603 4134 
L 603 4863 
z
" transform="scale(0.015625)"/>
       <path id="DejaVuSans-6d" d="M 3328 2828 
Q 3544 3216 3844 3400 
Q 4144 3584 4550 3584 
Q 5097 3584 5394 3201 
Q 5691 2819 5691 2113 
L 5691 0 
L 5113 0 
L 5113 2094 
Q 5113 2597 4934 2840 
Q 4756 3084 4391 3084 
Q 3944 3084 3684 2787 
Q 3425 2491 3425 1978 
L 3425 0 
L 2847 0 
L 2847 2094 
Q 2847 2600 2669 2842 
Q 2491 3084 2119 3084 
Q 1678 3084 1418 2786 
Q 1159 2488 1159 1978 
L 1159 0 
L 581 0 
L 581 3500 
L 1159 3500 
L 1159 2956 
Q 1356 3278 1631 3431 
Q 1906 3584 2284 3584 
Q 2666 3584 2933 3390 
Q 3200 3197 3328 2828 
z
" transform="scale(0.015625)"/>
       <path id="DejaVuSans-65" d="M 3597 1894 
L 3597 1613 
L 953 1613 
Q 991 1019 1311 708 
Q 1631 397 2203 397 
Q 2534 397 2845 478 
Q 3156 559 3463 722 
L 3463 178 
Q 3153 47 2828 -22 
Q 2503 -91 2169 -91 
Q 1331 -91 842 396 
Q 353 884 353 1716 
Q 353 2575 817 3079 
Q 1281 3584 2069 3584 
Q 2775 3584 3186 3129 
Q 3597 2675 3597 1894 
z
M 3022 2063 
Q 3016 2534 2758 2815 
Q 2500 3097 2075 3097 
Q 1594 3097 1305 2825 
Q 1016 2553 972 2059 
L 3022 2063 
z
" transform="scale(0.015625)"/>
       <path id="DejaVuSans-20" transform="scale(0.015625)"/>
       <path id="DejaVuSans-28" d="M 1984 4856 
Q 1566 4138 1362 3434 
Q 1159 2731 1159 2009 
Q 1159 1288 1364 580 
Q 1569 -128 1984 -844 
L 1484 -844 
Q 1016 -109 783 600 
Q 550 1309 550 2009 
Q 550 2706 781 3412 
Q 1013 4119 1484 4856 
L 1984 4856 
z
" transform="scale(0.015625)"/>
       <path id="DejaVuSans-73" d="M 2834 3397 
L 2834 2853 
Q 2591 2978 2328 3040 
Q 2066 3103 1784 3103 
Q 1356 3103 1142 2972 
Q 928 2841 928 2578 
Q 928 2378 1081 2264 
Q 1234 2150 1697 2047 
L 1894 2003 
Q 2506 1872 2764 1633 
Q 3022 1394 3022 966 
Q 3022 478 2636 193 
Q 2250 -91 1575 -91 
Q 1294 -91 989 -36 
Q 684 19 347 128 
L 347 722 
Q 666 556 975 473 
Q 1284 391 1588 391 
Q 1994 391 2212 530 
Q 2431 669 2431 922 
Q 2431 1156 2273 1281 
Q 2116 1406 1581 1522 
L 1381 1569 
Q 847 1681 609 1914 
Q 372 2147 372 2553 
Q 372 3047 722 3315 
Q 1072 3584 1716 3584 
Q 2034 3584 2315 3537 
Q 2597 3491 2834 3397 
z
" transform="scale(0.015625)"/>
       <path id="DejaVuSans-29" d="M 513 4856 
L 1013 4856 
Q 1481 4119 1714 3412 
Q 1947 2706 1947 2009 
Q 1947 1309 1714 600 
Q 1481 -109 1013 -844 
L 513 -844 
Q 928 -128 1133 580 
Q 1338 1288 1338 2009 
Q 1338 2731 1133 3434 
Q 928 4138 513 4856 
z
" transform="scale(0.015625)"/>
      </defs>
      <use xlink:href="#DejaVuSans-54"/>
      <use xlink:href="#DejaVuSans-69" transform="translate(57.958984 0)"/>
      <use xlink:href="#DejaVuSans-6d" transform="translate(85.742188 0)"/>
      <use xlink:href="#DejaVuSans-65" transform="translate(183.154297 0)"/>
      <use xlink:href="#DejaVuSans-20" transform="translate(244.677734 0)"/>
      <use xlink:href="#DejaVuSans-28" transform="translate(276.464844 0)"/>
      <use xlink:href="#DejaVuSans-73" transform="translate(315.478516 0)"/>
      <use xlink:href="#DejaVuSans-29" transform="translate(367.578125 0)"/>
     </g>
    </g>
   </g>
   <g id="matplotlib.axis_2">
    <g id="ytick_1">
     <g id="line2d_10">
      <defs>
       <path id="m7e2415afc8" d="M 0 0 
L -3.5 0 
" style="stroke: #000000; stroke-width: 0.8"/>
      </defs>
      <g>
       <use xlink:href="#m7e2415afc8" x="54.323678" y="386.971482" style="stroke: #000000; stroke-width: 0.8"/>
      </g>
     </g>
     <g id="text_11">
      <!-- −10.0 -->
      <g transform="translate(16.678365 390.770701) scale(0.1 -0.1)">
       <use xlink:href="#DejaVuSans-2212"/>
       <use xlink:href="#DejaVuSans-31" transform="translate(83.789062 0)"/>
       <use xlink:href="#DejaVuSans-30" transform="translate(147.412109 0)"/>
       <use xlink:href="#DejaVuSans-2e" transform="translate(211.035156 0)"/>
       <use xlink:href="#DejaVuSans-30" transform="translate(242.822266 0)"/>
      </g>
     </g>
    </g>
    <g id="ytick_2">
     <g id="line2d_11">
      <g>
       <use xlink:href="#m7e2415afc8" x="54.323678" y="342.323846" style="stroke: #000000; stroke-width: 0.8"/>
      </g>
     </g>
     <g id="text_12">
      <!-- −7.5 -->
      <g transform="translate(23.040865 346.123065) scale(0.1 -0.1)">
       <defs>
        <path id="DejaVuSans-37" d="M 525 4666 
L 3525 4666 
L 3525 4397 
L 1831 0 
L 1172 0 
L 2766 4134 
L 525 4134 
L 525 4666 
z
" transform="scale(0.015625)"/>
       </defs>
       <use xlink:href="#DejaVuSans-2212"/>
       <use xlink:href="#DejaVuSans-37" transform="translate(83.789062 0)"/>
       <use xlink:href="#DejaVuSans-2e" transform="translate(147.412109 0)"/>
       <use xlink:href="#DejaVuSans-35" transform="translate(179.199219 0)"/>
      </g>
     </g>
    </g>
    <g id="ytick_3">
     <g id="line2d_12">
      <g>
       <use xlink:href="#m7e2415afc8" x="54.323678" y="297.67621" style="stroke: #000000; stroke-width: 0.8"/>
      </g>
     </g>
     <g id="text_13">
      <!-- −5.0 -->
      <g transform="translate(23.040865 301.475428) scale(0.1 -0.1)">
       <use xlink:href="#DejaVuSans-2212"/>
       <use xlink:href="#DejaVuSans-35" transform="translate(83.789062 0)"/>
       <use xlink:href="#DejaVuSans-2e" transform="translate(147.412109 0)"/>
       <use xlink:href="#DejaVuSans-30" transform="translate(179.199219 0)"/>
      </g>
     </g>
    </g>
    <g id="ytick_4">
     <g id="line2d_13">
      <g>
       <use xlink:href="#m7e2415afc8" x="54.323678" y="253.028574" style="stroke: #000000; stroke-width: 0.8"/>
      </g>
     </g>
     <g id="text_14">
      <!-- −2.5 -->
      <g transform="translate(23.040865 256.827792) scale(0.1 -0.1)">
       <use xlink:href="#DejaVuSans-2212"/>
       <use xlink:href="#DejaVuSans-32" transform="translate(83.789062 0)"/>
       <use xlink:href="#DejaVuSans-2e" transform="translate(147.412109 0)"/>
       <use xlink:href="#DejaVuSans-35" transform="translate(179.199219 0)"/>
      </g>
     </g>
    </g>
    <g id="ytick_5">
     <g id="line2d_14">
      <g>
       <use xlink:href="#m7e2415afc8" x="54.323678" y="208.380937" style="stroke: #000000; stroke-width: 0.8"/>
      </g>
     </g>
     <g id="text_15">
      <!-- 0.0 -->
      <g transform="translate(31.420552 212.180156) scale(0.1 -0.1)">
       <use xlink:href="#DejaVuSans-30"/>
       <use xlink:href="#DejaVuSans-2e" transform="translate(63.623047 0)"/>
       <use xlink:href="#DejaVuSans-30" transform="translate(95.410156 0)"/>
      </g>
     </g>
    </g>
    <g id="ytick_6">
     <g id="line2d_15">
      <g>
       <use xlink:href="#m7e2415afc8" x="54.323678" y="163.733301" style="stroke: #000000; stroke-width: 0.8"/>
      </g>
     </g>
     <g id="text_16">
      <!-- 2.5 -->
      <g transform="translate(31.420552 167.53252) scale(0.1 -0.1)">
       <use xlink:href="#DejaVuSans-32"/>
       <use xlink:href="#DejaVuSans-2e" transform="translate(63.623047 0)"/>
       <use xlink:href="#DejaVuSans-35" transform="translate(95.410156 0)"/>
      </g>
     </g>
    </g>
    <g id="ytick_7">
     <g id="line2d_16">
      <g>
       <use xlink:href="#m7e2415afc8" x="54.323678" y="119.085665" style="stroke: #000000; stroke-width: 0.8"/>
      </g>
     </g>
     <g id="text_17">
      <!-- 5.0 -->
      <g transform="translate(31.420552 122.884884) scale(0.1 -0.1)">
       <use xlink:href="#DejaVuSans-35"/>
       <use xlink:href="#DejaVuSans-2e" transform="translate(63.623047 0)"/>
       <use xlink:href="#DejaVuSans-30" transform="translate(95.410156 0)"/>
      </g>
     </g>
    </g>
    <g id="ytick_8">
     <g id="line2d_17">
      <g>
       <use xlink:href="#m7e2415afc8" x="54.323678" y="74.438029" style="stroke: #000000; stroke-width: 0.8"/>
      </g>
     </g>
     <g id="text_18">
      <!-- 7.5 -->
      <g transform="translate(31.420552 78.237248) scale(0.1 -0.1)">
       <use xlink:href="#DejaVuSans-37"/>
       <use xlink:href="#DejaVuSans-2e" transform="translate(63.623047 0)"/>
       <use xlink:href="#DejaVuSans-35" transform="translate(95.410156 0)"/>
      </g>
     </g>
    </g>
    <g id="ytick_9">
     <g id="line2d_18">
      <g>
       <use xlink:href="#m7e2415afc8" x="54.323678" y="29.790393" style="stroke: #000000; stroke-width: 0.8"/>
      </g>
     </g>
     <g id="text_19">
      <!-- 10.0 -->
      <g transform="translate(25.058053 33.589612) scale(0.1 -0.1)">
       <use xlink:href="#DejaVuSans-31"/>
       <use xlink:href="#DejaVuSans-30" transform="translate(63.623047 0)"/>
       <use xlink:href="#DejaVuSans-2e" transform="translate(127.246094 0)"/>
       <use xlink:href="#DejaVuSans-30" transform="translate(159.033203 0)"/>
      </g>
     </g>
    </g>
    <g id="text_20">
     <!-- µV -->
     <g transform="translate(10.598677 214.9825) rotate(-90) scale(0.1 -0.1)">
      <defs>
       <path id="DejaVuSans-b5" d="M 544 -1331 
L 544 3500 
L 1119 3500 
L 1119 1325 
Q 1119 872 1334 640 
Q 1550 409 1972 409 
Q 2434 409 2667 671 
Q 2900 934 2900 1459 
L 2900 3500 
L 3475 3500 
L 3475 806 
Q 3475 619 3529 530 
Q 3584 441 3700 441 
Q 3728 441 3778 458 
Q 3828 475 3916 513 
L 3916 50 
Q 3788 -22 3673 -56 
Q 3559 -91 3450 -91 
Q 3234 -91 3106 31 
Q 2978 153 2931 403 
Q 2775 156 2548 32 
Q 2322 -91 2016 -91 
Q 1697 -91 1473 31 
Q 1250 153 1119 397 
L 1119 -1331 
L 544 -1331 
z
" transform="scale(0.015625)"/>
       <path id="DejaVuSans-56" d="M 1831 0 
L 50 4666 
L 709 4666 
L 2188 738 
L 3669 4666 
L 4325 4666 
L 2547 0 
L 1831 0 
z
" transform="scale(0.015625)"/>
      </defs>
      <use xlink:href="#DejaVuSans-b5"/>
      <use xlink:href="#DejaVuSans-56" transform="translate(63.623047 0)"/>
     </g>
    </g>
   </g>
   <g id="patch_4">
    <path d="M 54.587885 398.64351 
L 561.866948 398.64351 
" style="fill: none; stroke: #000000; stroke-width: 0.8; stroke-linejoin: miter; stroke-linecap: square"/>
   </g>
   <g id="patch_5">
    <path d="M 54.323677 208.380937 
L 561.866948 208.380937 
" style="fill: none; stroke: #000000; stroke-width: 0.8; stroke-linejoin: miter; stroke-linecap: square"/>
   </g>
   <g id="text_21">
    <!-- CPz, CP4, CP3, Pz, P4, P3 (median) -->
    <g transform="translate(204.102187 12.118365) scale(0.12 -0.12)">
     <defs>
      <path id="DejaVuSans-43" d="M 4122 4306 
L 4122 3641 
Q 3803 3938 3442 4084 
Q 3081 4231 2675 4231 
Q 1875 4231 1450 3742 
Q 1025 3253 1025 2328 
Q 1025 1406 1450 917 
Q 1875 428 2675 428 
Q 3081 428 3442 575 
Q 3803 722 4122 1019 
L 4122 359 
Q 3791 134 3420 21 
Q 3050 -91 2638 -91 
Q 1578 -91 968 557 
Q 359 1206 359 2328 
Q 359 3453 968 4101 
Q 1578 4750 2638 4750 
Q 3056 4750 3426 4639 
Q 3797 4528 4122 4306 
z
" transform="scale(0.015625)"/>
      <path id="DejaVuSans-50" d="M 1259 4147 
L 1259 2394 
L 2053 2394 
Q 2494 2394 2734 2622 
Q 2975 2850 2975 3272 
Q 2975 3691 2734 3919 
Q 2494 4147 2053 4147 
L 1259 4147 
z
M 628 4666 
L 2053 4666 
Q 2838 4666 3239 4311 
Q 3641 3956 3641 3272 
Q 3641 2581 3239 2228 
Q 2838 1875 2053 1875 
L 1259 1875 
L 1259 0 
L 628 0 
L 628 4666 
z
" transform="scale(0.015625)"/>
      <path id="DejaVuSans-7a" d="M 353 3500 
L 3084 3500 
L 3084 2975 
L 922 459 
L 3084 459 
L 3084 0 
L 275 0 
L 275 525 
L 2438 3041 
L 353 3041 
L 353 3500 
z
" transform="scale(0.015625)"/>
      <path id="DejaVuSans-2c" d="M 750 794 
L 1409 794 
L 1409 256 
L 897 -744 
L 494 -744 
L 750 256 
L 750 794 
z
" transform="scale(0.015625)"/>
      <path id="DejaVuSans-64" d="M 2906 2969 
L 2906 4863 
L 3481 4863 
L 3481 0 
L 2906 0 
L 2906 525 
Q 2725 213 2448 61 
Q 2172 -91 1784 -91 
Q 1150 -91 751 415 
Q 353 922 353 1747 
Q 353 2572 751 3078 
Q 1150 3584 1784 3584 
Q 2172 3584 2448 3432 
Q 2725 3281 2906 2969 
z
M 947 1747 
Q 947 1113 1208 752 
Q 1469 391 1925 391 
Q 2381 391 2643 752 
Q 2906 1113 2906 1747 
Q 2906 2381 2643 2742 
Q 2381 3103 1925 3103 
Q 1469 3103 1208 2742 
Q 947 2381 947 1747 
z
" transform="scale(0.015625)"/>
      <path id="DejaVuSans-61" d="M 2194 1759 
Q 1497 1759 1228 1600 
Q 959 1441 959 1056 
Q 959 750 1161 570 
Q 1363 391 1709 391 
Q 2188 391 2477 730 
Q 2766 1069 2766 1631 
L 2766 1759 
L 2194 1759 
z
M 3341 1997 
L 3341 0 
L 2766 0 
L 2766 531 
Q 2569 213 2275 61 
Q 1981 -91 1556 -91 
Q 1019 -91 701 211 
Q 384 513 384 1019 
Q 384 1609 779 1909 
Q 1175 2209 1959 2209 
L 2766 2209 
L 2766 2266 
Q 2766 2663 2505 2880 
Q 2244 3097 1772 3097 
Q 1472 3097 1187 3025 
Q 903 2953 641 2809 
L 641 3341 
Q 956 3463 1253 3523 
Q 1550 3584 1831 3584 
Q 2591 3584 2966 3190 
Q 3341 2797 3341 1997 
z
" transform="scale(0.015625)"/>
      <path id="DejaVuSans-6e" d="M 3513 2113 
L 3513 0 
L 2938 0 
L 2938 2094 
Q 2938 2591 2744 2837 
Q 2550 3084 2163 3084 
Q 1697 3084 1428 2787 
Q 1159 2491 1159 1978 
L 1159 0 
L 581 0 
L 581 3500 
L 1159 3500 
L 1159 2956 
Q 1366 3272 1645 3428 
Q 1925 3584 2291 3584 
Q 2894 3584 3203 3211 
Q 3513 2838 3513 2113 
z
" transform="scale(0.015625)"/>
     </defs>
     <use xlink:href="#DejaVuSans-43"/>
     <use xlink:href="#DejaVuSans-50" transform="translate(69.824219 0)"/>
     <use xlink:href="#DejaVuSans-7a" transform="translate(130.126953 0)"/>
     <use xlink:href="#DejaVuSans-2c" transform="translate(182.617188 0)"/>
     <use xlink:href="#DejaVuSans-20" transform="translate(214.404297 0)"/>
     <use xlink:href="#DejaVuSans-43" transform="translate(246.191406 0)"/>
     <use xlink:href="#DejaVuSans-50" transform="translate(316.015625 0)"/>
     <use xlink:href="#DejaVuSans-34" transform="translate(376.318359 0)"/>
     <use xlink:href="#DejaVuSans-2c" transform="translate(439.941406 0)"/>
     <use xlink:href="#DejaVuSans-20" transform="translate(471.728516 0)"/>
     <use xlink:href="#DejaVuSans-43" transform="translate(503.515625 0)"/>
     <use xlink:href="#DejaVuSans-50" transform="translate(573.339844 0)"/>
     <use xlink:href="#DejaVuSans-33" transform="translate(633.642578 0)"/>
     <use xlink:href="#DejaVuSans-2c" transform="translate(697.265625 0)"/>
     <use xlink:href="#DejaVuSans-20" transform="translate(729.052734 0)"/>
     <use xlink:href="#DejaVuSans-50" transform="translate(760.839844 0)"/>
     <use xlink:href="#DejaVuSans-7a" transform="translate(821.142578 0)"/>
     <use xlink:href="#DejaVuSans-2c" transform="translate(873.632812 0)"/>
     <use xlink:href="#DejaVuSans-20" transform="translate(905.419922 0)"/>
     <use xlink:href="#DejaVuSans-50" transform="translate(937.207031 0)"/>
     <use xlink:href="#DejaVuSans-34" transform="translate(997.509766 0)"/>
     <use xlink:href="#DejaVuSans-2c" transform="translate(1061.132812 0)"/>
     <use xlink:href="#DejaVuSans-20" transform="translate(1092.919922 0)"/>
     <use xlink:href="#DejaVuSans-50" transform="translate(1124.707031 0)"/>
     <use xlink:href="#DejaVuSans-33" transform="translate(1185.009766 0)"/>
     <use xlink:href="#DejaVuSans-20" transform="translate(1248.632812 0)"/>
     <use xlink:href="#DejaVuSans-28" transform="translate(1280.419922 0)"/>
     <use xlink:href="#DejaVuSans-6d" transform="translate(1319.433594 0)"/>
     <use xlink:href="#DejaVuSans-65" transform="translate(1416.845703 0)"/>
     <use xlink:href="#DejaVuSans-64" transform="translate(1478.369141 0)"/>
     <use xlink:href="#DejaVuSans-69" transform="translate(1541.845703 0)"/>
     <use xlink:href="#DejaVuSans-61" transform="translate(1569.628906 0)"/>
     <use xlink:href="#DejaVuSans-6e" transform="translate(1630.908203 0)"/>
     <use xlink:href="#DejaVuSans-29" transform="translate(1694.287109 0)"/>
    </g>
   </g>
   <g id="legend_1">
    <g id="patch_6">
     <path d="M 61.323678 55.75274 
L 142.465865 55.75274 
Q 144.465865 55.75274 144.465865 53.75274 
L 144.465865 25.118365 
Q 144.465865 23.118365 142.465865 23.118365 
L 61.323678 23.118365 
Q 59.323678 23.118365 59.323678 25.118365 
L 59.323678 53.75274 
Q 59.323678 55.75274 61.323678 55.75274 
z
" style="fill: #ffffff; opacity: 0.8; stroke: #cccccc; stroke-linejoin: miter"/>
    </g>
    <g id="line2d_19">
     <path d="M 63.323678 31.216803 
L 73.323678 31.216803 
L 83.323678 31.216803 
" style="fill: none; stroke: #1f77b4; stroke-width: 1.5; stroke-linecap: square"/>
    </g>
    <g id="text_22">
     <!-- eerie -->
     <g transform="translate(91.323678 34.716803) scale(0.1 -0.1)">
      <defs>
       <path id="DejaVuSans-72" d="M 2631 2963 
Q 2534 3019 2420 3045 
Q 2306 3072 2169 3072 
Q 1681 3072 1420 2755 
Q 1159 2438 1159 1844 
L 1159 0 
L 581 0 
L 581 3500 
L 1159 3500 
L 1159 2956 
Q 1341 3275 1631 3429 
Q 1922 3584 2338 3584 
Q 2397 3584 2469 3576 
Q 2541 3569 2628 3553 
L 2631 2963 
z
" transform="scale(0.015625)"/>
      </defs>
      <use xlink:href="#DejaVuSans-65"/>
      <use xlink:href="#DejaVuSans-65" transform="translate(61.523438 0)"/>
      <use xlink:href="#DejaVuSans-72" transform="translate(123.046875 0)"/>
      <use xlink:href="#DejaVuSans-69" transform="translate(164.160156 0)"/>
      <use xlink:href="#DejaVuSans-65" transform="translate(191.943359 0)"/>
     </g>
    </g>
    <g id="line2d_20">
     <path d="M 63.323678 45.894928 
L 73.323678 45.894928 
L 83.323678 45.894928 
" style="fill: none; stroke: #ff7f0e; stroke-width: 1.5; stroke-linecap: square"/>
    </g>
    <g id="text_23">
     <!-- non_eerie -->
     <g transform="translate(91.323678 49.394928) scale(0.1 -0.1)">
      <defs>
       <path id="DejaVuSans-6f" d="M 1959 3097 
Q 1497 3097 1228 2736 
Q 959 2375 959 1747 
Q 959 1119 1226 758 
Q 1494 397 1959 397 
Q 2419 397 2687 759 
Q 2956 1122 2956 1747 
Q 2956 2369 2687 2733 
Q 2419 3097 1959 3097 
z
M 1959 3584 
Q 2709 3584 3137 3096 
Q 3566 2609 3566 1747 
Q 3566 888 3137 398 
Q 2709 -91 1959 -91 
Q 1206 -91 779 398 
Q 353 888 353 1747 
Q 353 2609 779 3096 
Q 1206 3584 1959 3584 
z
" transform="scale(0.015625)"/>
       <path id="DejaVuSans-5f" d="M 3263 -1063 
L 3263 -1509 
L -63 -1509 
L -63 -1063 
L 3263 -1063 
z
" transform="scale(0.015625)"/>
      </defs>
      <use xlink:href="#DejaVuSans-6e"/>
      <use xlink:href="#DejaVuSans-6f" transform="translate(63.378906 0)"/>
      <use xlink:href="#DejaVuSans-6e" transform="translate(124.560547 0)"/>
      <use xlink:href="#DejaVuSans-5f" transform="translate(187.939453 0)"/>
      <use xlink:href="#DejaVuSans-65" transform="translate(237.939453 0)"/>
      <use xlink:href="#DejaVuSans-65" transform="translate(299.462891 0)"/>
      <use xlink:href="#DejaVuSans-72" transform="translate(360.986328 0)"/>
      <use xlink:href="#DejaVuSans-69" transform="translate(402.099609 0)"/>
      <use xlink:href="#DejaVuSans-65" transform="translate(429.882812 0)"/>
     </g>
    </g>
   </g>
   <g id="FillBetweenPolyCollection_1">
    <defs>
     <path id="m280e3143fe" d="M 54.323677 -271.34358 
L 54.323677 -241.965663 
L 55.974977 -241.738218 
L 57.626276 -243.211098 
L 59.277575 -243.9781 
L 60.928874 -243.10384 
L 62.580173 -240.79148 
L 64.231472 -236.313331 
L 65.882771 -229.936959 
L 67.53407 -223.822397 
L 69.185369 -218.363375 
L 70.836668 -213.595532 
L 72.487967 -208.699578 
L 74.139266 -205.214768 
L 75.790565 -202.849708 
L 77.441864 -201.241859 
L 79.093163 -200.016288 
L 80.744462 -200.248048 
L 82.395761 -204.767563 
L 84.04706 -208.563078 
L 85.698359 -209.651865 
L 87.349658 -207.694618 
L 89.000957 -204.32202 
L 90.652256 -199.751559 
L 92.303555 -196.326435 
L 93.954854 -195.780375 
L 95.606153 -198.941308 
L 97.257452 -205.334982 
L 98.908751 -211.42209 
L 100.56005 -215.419679 
L 102.211349 -215.173045 
L 103.862648 -210.012862 
L 105.513947 -203.447381 
L 107.165246 -201.039674 
L 108.816546 -202.953165 
L 110.467845 -208.759952 
L 112.119144 -213.897639 
L 113.770443 -216.201657 
L 115.421742 -215.057169 
L 117.073041 -210.502974 
L 118.72434 -205.141121 
L 120.375639 -201.247797 
L 122.026938 -199.524688 
L 123.678237 -200.765071 
L 125.329536 -203.780646 
L 126.980835 -206.433499 
L 128.632134 -207.098357 
L 130.283433 -205.719401 
L 131.934732 -204.830272 
L 133.586031 -205.418771 
L 135.23733 -208.045957 
L 136.888629 -211.976015 
L 138.539928 -216.354496 
L 140.191227 -220.870171 
L 141.842526 -224.086331 
L 143.493825 -224.981925 
L 145.145124 -224.088084 
L 146.796423 -222.519777 
L 148.447722 -220.927895 
L 150.099021 -218.417395 
L 151.75032 -215.278618 
L 153.401619 -212.051987 
L 155.052918 -208.710461 
L 156.704217 -209.277698 
L 158.355516 -211.625562 
L 160.006815 -215.364533 
L 161.658114 -218.76081 
L 163.309414 -220.361132 
L 164.960713 -217.55987 
L 166.612012 -211.523766 
L 168.263311 -204.492477 
L 169.91461 -198.54792 
L 171.565909 -195.961653 
L 173.217208 -196.547616 
L 174.868507 -201.126207 
L 176.519806 -207.354336 
L 178.171105 -212.791253 
L 179.822404 -218.159363 
L 181.473703 -221.741202 
L 183.125002 -224.277563 
L 184.776301 -227.4985 
L 186.4276 -229.849264 
L 188.078899 -228.967033 
L 189.730198 -227.125329 
L 191.381497 -225.720935 
L 193.032796 -223.96165 
L 194.684095 -221.242399 
L 196.335394 -219.450273 
L 197.986693 -215.801554 
L 199.637992 -213.798803 
L 201.289291 -213.9475 
L 202.94059 -216.07525 
L 204.591889 -218.303543 
L 206.243188 -219.992792 
L 207.894487 -221.538326 
L 209.545786 -221.383284 
L 211.197085 -222.55258 
L 212.848384 -225.444252 
L 214.499683 -230.940783 
L 216.150982 -237.366179 
L 217.802282 -245.895306 
L 219.453581 -256.33402 
L 221.10488 -268.872828 
L 222.756179 -284.209923 
L 224.407478 -298.185227 
L 226.058777 -310.896378 
L 227.710076 -320.473462 
L 229.361375 -325.094034 
L 231.012674 -326.119918 
L 232.663973 -327.545839 
L 234.315272 -332.877592 
L 235.966571 -341.397849 
L 237.61787 -350.001518 
L 239.269169 -356.618676 
L 240.920468 -359.473391 
L 242.571767 -356.124723 
L 244.223066 -348.231517 
L 245.874365 -335.757519 
L 247.525664 -323.402731 
L 249.176963 -311.879237 
L 250.828262 -302.440268 
L 252.479561 -292.586043 
L 254.13086 -282.197685 
L 255.782159 -270.462539 
L 257.433458 -258.593705 
L 259.084757 -248.372577 
L 260.736056 -240.196407 
L 262.387355 -233.327876 
L 264.038654 -228.103954 
L 265.689953 -224.897995 
L 267.341252 -221.800721 
L 268.992551 -217.53979 
L 270.64385 -211.761429 
L 272.29515 -205.875708 
L 273.946449 -202.450328 
L 275.597748 -203.51126 
L 277.249047 -209.374771 
L 278.900346 -217.196094 
L 280.551645 -225.919425 
L 282.202944 -235.826097 
L 283.854243 -248.347896 
L 285.505542 -259.785548 
L 287.156841 -266.000013 
L 288.80814 -266.012141 
L 290.459439 -257.952069 
L 292.110738 -244.904366 
L 293.762037 -231.327842 
L 295.413336 -223.07493 
L 297.064635 -222.695803 
L 298.715934 -229.774285 
L 300.367233 -236.529845 
L 302.018532 -239.350014 
L 303.669831 -235.870262 
L 305.32113 -229.131712 
L 306.972429 -221.097583 
L 308.623728 -214.232375 
L 310.275027 -212.167848 
L 311.926326 -213.253953 
L 313.577625 -215.57824 
L 315.228924 -218.893092 
L 316.880223 -221.010518 
L 318.531522 -223.188269 
L 320.182821 -225.098411 
L 321.83412 -226.573675 
L 323.485419 -225.215539 
L 325.136718 -222.053346 
L 326.788018 -218.437247 
L 328.439317 -214.397729 
L 330.090616 -212.436922 
L 331.741915 -213.152822 
L 333.393214 -214.79577 
L 335.044513 -219.058684 
L 336.695812 -224.560828 
L 338.347111 -228.948508 
L 339.99841 -235.321118 
L 341.649709 -241.772438 
L 343.301008 -249.471891 
L 344.952307 -256.06628 
L 346.603606 -261.810022 
L 348.254905 -268.664453 
L 349.906204 -276.637973 
L 351.557503 -287.58342 
L 353.208802 -299.497303 
L 354.860101 -310.640509 
L 356.5114 -320.909176 
L 358.162699 -327.853335 
L 359.813998 -334.249618 
L 361.465297 -340.336163 
L 363.116596 -349.081195 
L 364.767895 -359.141232 
L 366.419194 -367.961759 
L 368.070493 -372.151418 
L 369.721792 -372.302062 
L 371.373091 -367.962968 
L 373.02439 -362.733479 
L 374.675689 -357.970346 
L 376.326988 -356.351623 
L 377.978287 -358.238427 
L 379.629586 -363.244271 
L 381.280886 -365.826218 
L 382.932185 -365.244108 
L 384.583484 -359.855196 
L 386.234783 -350.705442 
L 387.886082 -339.644852 
L 389.537381 -329.416367 
L 391.18868 -321.483244 
L 392.839979 -315.678653 
L 394.491278 -310.117817 
L 396.142577 -304.119733 
L 397.793876 -296.165012 
L 399.445175 -288.961171 
L 401.096474 -284.196275 
L 402.747773 -281.723197 
L 404.399072 -280.985478 
L 406.050371 -278.98473 
L 407.70167 -273.801685 
L 409.352969 -263.624201 
L 411.004268 -253.611894 
L 412.655567 -247.805626 
L 414.306866 -248.461329 
L 415.958165 -253.814799 
L 417.609464 -260.422318 
L 419.260763 -264.067337 
L 420.912062 -260.133653 
L 422.563361 -251.692828 
L 424.21466 -242.811143 
L 425.865959 -237.454289 
L 427.517258 -239.436013 
L 429.168557 -248.675542 
L 430.819856 -260.540062 
L 432.471155 -270.966106 
L 434.122455 -276.293077 
L 435.773754 -276.871776 
L 437.425053 -273.948838 
L 439.076352 -269.083436 
L 440.727651 -264.665776 
L 442.37895 -262.250431 
L 444.030249 -262.214351 
L 445.681548 -261.918891 
L 447.332847 -259.723446 
L 448.984146 -254.911768 
L 450.635445 -247.287781 
L 452.286744 -237.053937 
L 453.938043 -228.533559 
L 455.589342 -225.87258 
L 457.240641 -229.419771 
L 458.89194 -234.333612 
L 460.543239 -237.770332 
L 462.194538 -236.142217 
L 463.845837 -230.250536 
L 465.497136 -221.802258 
L 467.148435 -216.808277 
L 468.799734 -215.89451 
L 470.451033 -219.146068 
L 472.102332 -222.988182 
L 473.753631 -222.505794 
L 475.40493 -213.122378 
L 477.056229 -200.708058 
L 478.707528 -189.357091 
L 480.358827 -182.738576 
L 482.010126 -183.347001 
L 483.661425 -189.005867 
L 485.312724 -192.952756 
L 486.964023 -191.044899 
L 488.615323 -183.256583 
L 490.266622 -172.079961 
L 491.917921 -161.923938 
L 493.56922 -157.338303 
L 495.220519 -156.451953 
L 496.871818 -157.642646 
L 498.523117 -157.011795 
L 500.174416 -155.593765 
L 501.825715 -152.918452 
L 503.477014 -151.60977 
L 505.128313 -152.313731 
L 506.779612 -153.073065 
L 508.430911 -153.637127 
L 510.08221 -153.044677 
L 511.733509 -151.326593 
L 513.384808 -149.517854 
L 515.036107 -147.41133 
L 516.687406 -146.769997 
L 518.338705 -146.898041 
L 519.990004 -146.268295 
L 521.641303 -145.888927 
L 523.292602 -145.539748 
L 524.943901 -146.507756 
L 526.5952 -149.059801 
L 528.246499 -151.442824 
L 529.897798 -152.320282 
L 531.549097 -153.193112 
L 533.200396 -153.028793 
L 534.851695 -151.500394 
L 536.502994 -147.929789 
L 538.154293 -141.706685 
L 539.805592 -134.906639 
L 541.456891 -128.53813 
L 543.108191 -124.75576 
L 544.75949 -125.196482 
L 546.410789 -128.359032 
L 548.062088 -134.163477 
L 549.713387 -140.544317 
L 551.364686 -142.828361 
L 553.015985 -142.919707 
L 554.667284 -141.409532 
L 556.318583 -140.219491 
L 557.969882 -139.68012 
L 559.621181 -139.891809 
L 561.27248 -139.900944 
L 561.27248 -191.26165 
L 561.27248 -191.26165 
L 559.621181 -191.253735 
L 557.969882 -189.919833 
L 556.318583 -190.633932 
L 554.667284 -191.164184 
L 553.015985 -192.53481 
L 551.364686 -193.368772 
L 549.713387 -191.719617 
L 548.062088 -186.230782 
L 546.410789 -179.964933 
L 544.75949 -175.17159 
L 543.108191 -173.462656 
L 541.456891 -176.35653 
L 539.805592 -182.070517 
L 538.154293 -189.631087 
L 536.502994 -195.62957 
L 534.851695 -198.726649 
L 533.200396 -199.118847 
L 531.549097 -196.928309 
L 529.897798 -195.508718 
L 528.246499 -194.598386 
L 526.5952 -192.475665 
L 524.943901 -191.223973 
L 523.292602 -192.365811 
L 521.641303 -193.95535 
L 519.990004 -196.788766 
L 518.338705 -199.76186 
L 516.687406 -202.192954 
L 515.036107 -203.617789 
L 513.384808 -204.517409 
L 511.733509 -204.835692 
L 510.08221 -203.824442 
L 508.430911 -202.248818 
L 506.779612 -202.11209 
L 505.128313 -202.815145 
L 503.477014 -204.681366 
L 501.825715 -208.486278 
L 500.174416 -211.067174 
L 498.523117 -212.038715 
L 496.871818 -211.492556 
L 495.220519 -208.749307 
L 493.56922 -207.113685 
L 491.917921 -209.3243 
L 490.266622 -215.723597 
L 488.615323 -224.067368 
L 486.964023 -233.5519 
L 485.312724 -238.883396 
L 483.661425 -237.789314 
L 482.010126 -234.268906 
L 480.358827 -233.838972 
L 478.707528 -240.274138 
L 477.056229 -250.544462 
L 475.40493 -261.910565 
L 473.753631 -269.83028 
L 472.102332 -271.671402 
L 470.451033 -269.55885 
L 468.799734 -268.026916 
L 467.148435 -270.851495 
L 465.497136 -277.812778 
L 463.845837 -285.83113 
L 462.194538 -291.164543 
L 460.543239 -289.449395 
L 458.89194 -284.509236 
L 457.240641 -278.753733 
L 455.589342 -275.117601 
L 453.938043 -275.273687 
L 452.286744 -280.023855 
L 450.635445 -287.293027 
L 448.984146 -295.506718 
L 447.332847 -301.823557 
L 445.681548 -308.013048 
L 444.030249 -311.424016 
L 442.37895 -313.58203 
L 440.727651 -318.181481 
L 439.076352 -323.802147 
L 437.425053 -330.553479 
L 435.773754 -336.322069 
L 434.122455 -335.93016 
L 432.471155 -330.927951 
L 430.819856 -321.526109 
L 429.168557 -309.82659 
L 427.517258 -300.758465 
L 425.865959 -298.631862 
L 424.21466 -302.497278 
L 422.563361 -310.272578 
L 420.912062 -316.64744 
L 419.260763 -318.688004 
L 417.609464 -315.261236 
L 415.958165 -308.325182 
L 414.306866 -303.7987 
L 412.655567 -304.143355 
L 411.004268 -310.59672 
L 409.352969 -319.766119 
L 407.70167 -327.270571 
L 406.050371 -330.888037 
L 404.399072 -333.043909 
L 402.747773 -334.866141 
L 401.096474 -337.010411 
L 399.445175 -339.883854 
L 397.793876 -345.458368 
L 396.142577 -351.160325 
L 394.491278 -356.368041 
L 392.839979 -362.077167 
L 391.18868 -369.337388 
L 389.537381 -378.555543 
L 387.886082 -389.591468 
L 386.234783 -400.944308 
L 384.583484 -409.598669 
L 382.932185 -413.881635 
L 381.280886 -413.749098 
L 379.629586 -410.69153 
L 377.978287 -406.213235 
L 376.326988 -404.858179 
L 374.675689 -404.367302 
L 373.02439 -407.199617 
L 371.373091 -410.846179 
L 369.721792 -412.529491 
L 368.070493 -411.215319 
L 366.419194 -407.750556 
L 364.767895 -402.823606 
L 363.116596 -396.44949 
L 361.465297 -390.17149 
L 359.813998 -383.294541 
L 358.162699 -376.725714 
L 356.5114 -369.362432 
L 354.860101 -360.945499 
L 353.208802 -350.918416 
L 351.557503 -339.562765 
L 349.906204 -328.217136 
L 348.254905 -317.649871 
L 346.603606 -309.599134 
L 344.952307 -304.268579 
L 343.301008 -298.032441 
L 341.649709 -291.886524 
L 339.99841 -284.556183 
L 338.347111 -277.300728 
L 336.695812 -271.425566 
L 335.044513 -264.687182 
L 333.393214 -259.515081 
L 331.741915 -256.788363 
L 330.090616 -257.454058 
L 328.439317 -260.554184 
L 326.788018 -264.468701 
L 325.136718 -268.835312 
L 323.485419 -271.344123 
L 321.83412 -271.865242 
L 320.182821 -269.581069 
L 318.531522 -264.855137 
L 316.880223 -260.203885 
L 315.228924 -256.393639 
L 313.577625 -254.6015 
L 311.926326 -253.779739 
L 310.275027 -253.040181 
L 308.623728 -255.72382 
L 306.972429 -261.903159 
L 305.32113 -268.847501 
L 303.669831 -276.905853 
L 302.018532 -282.346075 
L 300.367233 -282.413786 
L 298.715934 -277.872906 
L 297.064635 -271.357097 
L 295.413336 -271.195193 
L 293.762037 -276.793959 
L 292.110738 -287.447228 
L 290.459439 -298.575446 
L 288.80814 -305.235283 
L 287.156841 -304.674427 
L 285.505542 -297.827174 
L 283.854243 -287.479663 
L 282.202944 -275.860376 
L 280.551645 -265.532065 
L 278.900346 -257.343248 
L 277.249047 -250.873286 
L 275.597748 -245.989701 
L 273.946449 -244.580887 
L 272.29515 -247.132219 
L 270.64385 -251.751948 
L 268.992551 -258.308378 
L 267.341252 -264.403834 
L 265.689953 -267.949601 
L 264.038654 -272.067825 
L 262.387355 -278.835271 
L 260.736056 -288.297205 
L 259.084757 -298.789839 
L 257.433458 -308.012809 
L 255.782159 -317.230962 
L 254.13086 -326.039315 
L 252.479561 -336.368993 
L 250.828262 -347.42249 
L 249.176963 -359.87115 
L 247.525664 -373.301525 
L 245.874365 -384.620433 
L 244.223066 -394.159773 
L 242.571767 -400.968737 
L 240.920468 -404.58061 
L 239.269169 -403.692526 
L 237.61787 -399.323506 
L 235.966571 -393.113879 
L 234.315272 -386.182122 
L 232.663973 -381.021432 
L 231.012674 -378.716495 
L 229.361375 -376.617091 
L 227.710076 -370.883181 
L 226.058777 -360.171821 
L 224.407478 -344.390357 
L 222.756179 -326.664626 
L 221.10488 -309.012109 
L 219.453581 -295.08776 
L 217.802282 -285.90867 
L 216.150982 -278.745639 
L 214.499683 -273.537577 
L 212.848384 -268.882986 
L 211.197085 -265.78521 
L 209.545786 -264.138481 
L 207.894487 -263.520867 
L 206.243188 -262.536858 
L 204.591889 -260.789667 
L 202.94059 -260.15448 
L 201.289291 -261.543965 
L 199.637992 -263.638785 
L 197.986693 -266.137346 
L 196.335394 -268.328087 
L 194.684095 -269.783263 
L 193.032796 -270.206368 
L 191.381497 -269.615952 
L 189.730198 -268.529963 
L 188.078899 -267.136834 
L 186.4276 -266.738456 
L 184.776301 -264.706256 
L 183.125002 -261.562308 
L 181.473703 -258.958657 
L 179.822404 -256.828595 
L 178.171105 -252.700642 
L 176.519806 -248.165296 
L 174.868507 -243.558345 
L 173.217208 -239.208261 
L 171.565909 -236.887499 
L 169.91461 -238.833813 
L 168.263311 -244.389934 
L 166.612012 -250.869963 
L 164.960713 -254.83238 
L 163.309414 -254.956585 
L 161.658114 -251.500234 
L 160.006815 -246.450839 
L 158.355516 -242.768869 
L 156.704217 -242.515449 
L 155.052918 -245.782146 
L 153.401619 -252.241503 
L 151.75032 -258.295403 
L 150.099021 -260.796503 
L 148.447722 -262.211457 
L 146.796423 -262.128523 
L 145.145124 -260.895023 
L 143.493825 -259.999188 
L 141.842526 -258.475662 
L 140.191227 -253.637575 
L 138.539928 -246.916962 
L 136.888629 -238.93611 
L 135.23733 -232.641331 
L 133.586031 -228.34101 
L 131.934732 -227.926867 
L 130.283433 -229.806444 
L 128.632134 -231.766308 
L 126.980835 -231.125629 
L 125.329536 -228.225243 
L 123.678237 -224.372652 
L 122.026938 -222.685182 
L 120.375639 -224.777317 
L 118.72434 -229.666064 
L 117.073041 -234.235474 
L 115.421742 -237.321353 
L 113.770443 -237.454093 
L 112.119144 -235.64074 
L 110.467845 -232.909296 
L 108.816546 -230.432615 
L 107.165246 -231.554897 
L 105.513947 -233.875091 
L 103.862648 -237.26844 
L 102.211349 -237.636139 
L 100.56005 -233.821518 
L 98.908751 -228.590139 
L 97.257452 -222.845311 
L 95.606153 -218.61523 
L 93.954854 -216.641343 
L 92.303555 -217.262054 
L 90.652256 -220.188945 
L 89.000957 -225.481276 
L 87.349658 -230.357305 
L 85.698359 -233.00962 
L 84.04706 -232.716965 
L 82.395761 -230.469069 
L 80.744462 -227.881996 
L 79.093163 -225.433523 
L 77.441864 -224.494186 
L 75.790565 -224.838566 
L 74.139266 -226.365686 
L 72.487967 -229.125232 
L 70.836668 -232.368878 
L 69.185369 -237.054725 
L 67.53407 -244.447194 
L 65.882771 -255.013297 
L 64.231472 -265.466622 
L 62.580173 -272.421702 
L 60.928874 -275.713768 
L 59.277575 -274.736804 
L 57.626276 -272.777832 
L 55.974977 -271.014837 
L 54.323677 -271.34358 
z
" style="stroke: #1f77b4; stroke-opacity: 0.3"/>
    </defs>
    <g>
     <use xlink:href="#m280e3143fe" x="0" y="432" style="fill: #1f77b4; fill-opacity: 0.3; stroke: #1f77b4; stroke-opacity: 0.3"/>
    </g>
   </g>
   <g id="FillBetweenPolyCollection_2">
    <defs>
     <path id="m8efab2f211" d="M 54.323677 -230.964714 
L 54.323677 -227.07123 
L 55.974977 -228.409633 
L 57.626276 -229.369743 
L 59.277575 -229.499189 
L 60.928874 -228.972552 
L 62.580173 -227.994779 
L 64.231472 -227.204745 
L 65.882771 -226.842713 
L 67.53407 -226.960008 
L 69.185369 -227.334541 
L 70.836668 -227.543505 
L 72.487967 -227.129309 
L 74.139266 -225.846603 
L 75.790565 -223.683709 
L 77.441864 -221.136093 
L 79.093163 -219.275495 
L 80.744462 -218.915729 
L 82.395761 -220.243442 
L 84.04706 -222.599093 
L 85.698359 -224.885496 
L 87.349658 -225.811977 
L 89.000957 -225.002025 
L 90.652256 -223.110681 
L 92.303555 -220.869759 
L 93.954854 -219.386287 
L 95.606153 -219.265644 
L 97.257452 -220.476299 
L 98.908751 -222.157776 
L 100.56005 -223.635987 
L 102.211349 -224.210541 
L 103.862648 -223.610928 
L 105.513947 -221.855468 
L 107.165246 -219.792694 
L 108.816546 -218.073555 
L 110.467845 -217.151371 
L 112.119144 -217.368782 
L 113.770443 -218.378315 
L 115.421742 -219.691973 
L 117.073041 -220.850396 
L 118.72434 -221.307605 
L 120.375639 -221.102198 
L 122.026938 -220.570525 
L 123.678237 -219.734376 
L 125.329536 -218.862741 
L 126.980835 -218.13768 
L 128.632134 -217.877251 
L 130.283433 -217.902842 
L 131.934732 -218.120148 
L 133.586031 -218.165831 
L 135.23733 -217.770966 
L 136.888629 -216.873907 
L 138.539928 -215.14061 
L 140.191227 -212.741358 
L 141.842526 -210.142078 
L 143.493825 -207.88134 
L 145.145124 -206.386008 
L 146.796423 -205.649453 
L 148.447722 -205.194169 
L 150.099021 -204.361061 
L 151.75032 -202.639104 
L 153.401619 -199.966259 
L 155.052918 -197.039734 
L 156.704217 -194.884413 
L 158.355516 -194.37874 
L 160.006815 -195.754518 
L 161.658114 -198.585165 
L 163.309414 -201.651788 
L 164.960713 -203.760348 
L 166.612012 -204.097252 
L 168.263311 -202.998331 
L 169.91461 -201.187402 
L 171.565909 -199.565944 
L 173.217208 -198.467641 
L 174.868507 -197.937118 
L 176.519806 -197.921936 
L 178.171105 -198.070678 
L 179.822404 -197.969765 
L 181.473703 -197.884791 
L 183.125002 -198.079712 
L 184.776301 -198.066126 
L 186.4276 -197.768055 
L 188.078899 -197.434599 
L 189.730198 -197.190852 
L 191.381497 -197.123341 
L 193.032796 -197.57627 
L 194.684095 -199.262957 
L 196.335394 -202.208926 
L 197.986693 -205.87034 
L 199.637992 -209.530773 
L 201.289291 -212.880048 
L 202.94059 -215.470632 
L 204.591889 -217.89067 
L 206.243188 -220.665346 
L 207.894487 -223.148487 
L 209.545786 -224.691042 
L 211.197085 -225.19915 
L 212.848384 -225.223489 
L 214.499683 -225.797328 
L 216.150982 -227.905537 
L 217.802282 -232.156217 
L 219.453581 -238.36077 
L 221.10488 -245.490496 
L 222.756179 -252.489456 
L 224.407478 -259.096896 
L 226.058777 -266.035769 
L 227.710076 -274.739463 
L 229.361375 -285.854189 
L 231.012674 -298.428988 
L 232.663973 -310.406367 
L 234.315272 -319.680779 
L 235.966571 -325.148353 
L 237.61787 -327.364939 
L 239.269169 -327.869907 
L 240.920468 -328.734522 
L 242.571767 -330.431684 
L 244.223066 -331.863408 
L 245.874365 -331.164776 
L 247.525664 -326.974175 
L 249.176963 -319.374913 
L 250.828262 -309.963658 
L 252.479561 -300.657118 
L 254.13086 -293.318551 
L 255.782159 -288.301775 
L 257.433458 -284.077894 
L 259.084757 -278.647632 
L 260.736056 -271.60097 
L 262.387355 -263.665833 
L 264.038654 -256.739906 
L 265.689953 -252.233615 
L 267.341252 -250.258548 
L 268.992551 -250.041916 
L 270.64385 -250.319257 
L 272.29515 -250.109299 
L 273.946449 -249.50609 
L 275.597748 -249.118705 
L 277.249047 -249.806535 
L 278.900346 -251.638358 
L 280.551645 -254.161122 
L 282.202944 -256.421906 
L 283.854243 -258.140986 
L 285.505542 -259.329449 
L 287.156841 -260.383631 
L 288.80814 -261.555898 
L 290.459439 -263.041384 
L 292.110738 -264.981116 
L 293.762037 -266.851552 
L 295.413336 -268.361249 
L 297.064635 -269.227411 
L 298.715934 -269.417557 
L 300.367233 -269.158197 
L 302.018532 -268.656845 
L 303.669831 -268.22752 
L 305.32113 -267.810824 
L 306.972429 -267.382952 
L 308.623728 -267.040102 
L 310.275027 -266.69749 
L 311.926326 -266.513789 
L 313.577625 -266.519221 
L 315.228924 -266.55926 
L 316.880223 -266.570816 
L 318.531522 -266.288002 
L 320.182821 -265.656726 
L 321.83412 -264.648524 
L 323.485419 -263.480455 
L 325.136718 -262.182277 
L 326.788018 -261.004547 
L 328.439317 -260.194963 
L 330.090616 -259.862582 
L 331.741915 -260.381286 
L 333.393214 -261.844927 
L 335.044513 -264.530897 
L 336.695812 -268.222937 
L 338.347111 -271.966297 
L 339.99841 -274.978674 
L 341.649709 -276.29912 
L 343.301008 -275.901286 
L 344.952307 -274.664783 
L 346.603606 -273.885688 
L 348.254905 -274.608995 
L 349.906204 -277.092257 
L 351.557503 -280.695824 
L 353.208802 -284.069031 
L 354.860101 -285.92986 
L 356.5114 -285.809388 
L 358.162699 -283.898284 
L 359.813998 -281.032661 
L 361.465297 -277.767468 
L 363.116596 -274.718046 
L 364.767895 -272.230441 
L 366.419194 -269.940076 
L 368.070493 -267.929295 
L 369.721792 -266.143089 
L 371.373091 -264.431762 
L 373.02439 -262.762665 
L 374.675689 -260.957211 
L 376.326988 -258.76752 
L 377.978287 -256.277807 
L 379.629586 -253.985694 
L 381.280886 -252.347904 
L 382.932185 -251.508177 
L 384.583484 -251.404299 
L 386.234783 -251.530714 
L 387.886082 -251.47949 
L 389.537381 -250.602626 
L 391.18868 -248.978045 
L 392.839979 -247.464763 
L 394.491278 -246.538172 
L 396.142577 -246.565099 
L 397.793876 -247.117026 
L 399.445175 -247.664252 
L 401.096474 -247.342503 
L 402.747773 -245.937095 
L 404.399072 -243.741972 
L 406.050371 -241.276339 
L 407.70167 -239.171235 
L 409.352969 -237.82835 
L 411.004268 -237.324523 
L 412.655567 -237.18191 
L 414.306866 -237.170665 
L 415.958165 -236.833341 
L 417.609464 -235.783042 
L 419.260763 -234.196184 
L 420.912062 -232.791952 
L 422.563361 -231.898677 
L 424.21466 -232.045595 
L 425.865959 -233.1322 
L 427.517258 -234.384372 
L 429.168557 -235.128898 
L 430.819856 -235.028116 
L 432.471155 -234.186818 
L 434.122455 -232.944362 
L 435.773754 -231.673052 
L 437.425053 -230.688979 
L 439.076352 -230.004912 
L 440.727651 -229.385425 
L 442.37895 -228.750915 
L 444.030249 -228.497761 
L 445.681548 -228.792674 
L 447.332847 -229.451424 
L 448.984146 -229.947547 
L 450.635445 -229.410822 
L 452.286744 -227.684647 
L 453.938043 -224.752517 
L 455.589342 -221.861054 
L 457.240641 -220.207555 
L 458.89194 -220.273768 
L 460.543239 -221.283556 
L 462.194538 -222.027416 
L 463.845837 -221.769183 
L 465.497136 -220.535836 
L 467.148435 -218.952249 
L 468.799734 -217.743329 
L 470.451033 -217.236444 
L 472.102332 -217.005271 
L 473.753631 -216.412215 
L 475.40493 -215.255262 
L 477.056229 -213.886459 
L 478.707528 -212.977783 
L 480.358827 -213.097234 
L 482.010126 -213.86665 
L 483.661425 -214.69448 
L 485.312724 -214.849562 
L 486.964023 -214.099812 
L 488.615323 -212.510795 
L 490.266622 -210.60037 
L 491.917921 -209.16951 
L 493.56922 -208.428496 
L 495.220519 -208.476632 
L 496.871818 -208.50337 
L 498.523117 -208.263905 
L 500.174416 -207.704544 
L 501.825715 -207.230328 
L 503.477014 -207.082627 
L 505.128313 -207.55481 
L 506.779612 -208.925763 
L 508.430911 -210.933282 
L 510.08221 -213.052436 
L 511.733509 -214.817222 
L 513.384808 -215.855901 
L 515.036107 -216.120195 
L 516.687406 -215.752348 
L 518.338705 -215.406373 
L 519.990004 -215.170854 
L 521.641303 -214.884713 
L 523.292602 -214.103949 
L 524.943901 -212.730148 
L 526.5952 -211.031722 
L 528.246499 -209.528334 
L 529.897798 -208.686134 
L 531.549097 -208.855486 
L 533.200396 -209.560125 
L 534.851695 -210.25182 
L 536.502994 -210.325163 
L 538.154293 -209.712079 
L 539.805592 -208.887648 
L 541.456891 -208.148777 
L 543.108191 -207.747638 
L 544.75949 -207.570984 
L 546.410789 -207.385287 
L 548.062088 -207.183388 
L 549.713387 -207.079277 
L 551.364686 -207.352161 
L 553.015985 -207.808831 
L 554.667284 -207.934756 
L 556.318583 -207.278232 
L 557.969882 -205.267492 
L 559.621181 -202.543963 
L 561.27248 -200.008549 
L 561.27248 -205.226803 
L 561.27248 -205.226803 
L 559.621181 -207.798665 
L 557.969882 -210.529141 
L 556.318583 -212.49835 
L 554.667284 -213.264047 
L 553.015985 -213.196014 
L 551.364686 -212.750031 
L 549.713387 -212.504731 
L 548.062088 -212.579201 
L 546.410789 -212.699159 
L 544.75949 -212.843388 
L 543.108191 -213.085011 
L 541.456891 -213.471165 
L 539.805592 -214.313207 
L 538.154293 -215.268078 
L 536.502994 -215.920455 
L 534.851695 -215.885249 
L 533.200396 -215.203798 
L 531.549097 -214.480687 
L 529.897798 -214.261683 
L 528.246499 -215.125414 
L 526.5952 -216.719167 
L 524.943901 -218.5335 
L 523.292602 -219.831573 
L 521.641303 -220.624514 
L 519.990004 -220.891118 
L 518.338705 -221.037447 
L 516.687406 -221.265158 
L 515.036107 -221.436088 
L 513.384808 -221.130016 
L 511.733509 -220.026589 
L 510.08221 -218.284906 
L 508.430911 -216.164719 
L 506.779612 -214.204617 
L 505.128313 -212.866314 
L 503.477014 -212.312995 
L 501.825715 -212.517279 
L 500.174416 -213.102323 
L 498.523117 -213.638262 
L 496.871818 -213.775946 
L 495.220519 -213.553986 
L 493.56922 -213.347385 
L 491.917921 -213.97524 
L 490.266622 -215.432854 
L 488.615323 -217.374666 
L 486.964023 -219.150595 
L 485.312724 -220.016313 
L 483.661425 -219.826376 
L 482.010126 -218.933782 
L 480.358827 -218.083207 
L 478.707528 -218.028176 
L 477.056229 -218.895499 
L 475.40493 -220.304823 
L 473.753631 -221.369721 
L 472.102332 -221.881836 
L 470.451033 -222.090772 
L 468.799734 -222.643495 
L 467.148435 -223.898808 
L 465.497136 -225.424681 
L 463.845837 -226.721348 
L 462.194538 -227.07771 
L 460.543239 -226.512517 
L 458.89194 -225.668094 
L 457.240641 -225.871242 
L 455.589342 -227.518196 
L 453.938043 -230.328003 
L 452.286744 -233.192973 
L 450.635445 -234.966335 
L 448.984146 -235.462082 
L 447.332847 -234.88854 
L 445.681548 -234.162737 
L 444.030249 -233.751533 
L 442.37895 -234.002566 
L 440.727651 -234.636339 
L 439.076352 -235.397564 
L 437.425053 -236.292655 
L 435.773754 -237.375997 
L 434.122455 -238.632097 
L 432.471155 -239.821643 
L 430.819856 -240.537989 
L 429.168557 -240.443959 
L 427.517258 -239.62719 
L 425.865959 -238.32165 
L 424.21466 -237.324205 
L 422.563361 -237.189115 
L 420.912062 -238.079664 
L 419.260763 -239.581942 
L 417.609464 -241.114618 
L 415.958165 -242.25299 
L 414.306866 -242.710278 
L 412.655567 -242.780822 
L 411.004268 -242.927897 
L 409.352969 -243.49743 
L 407.70167 -244.746342 
L 406.050371 -246.86099 
L 404.399072 -249.283216 
L 402.747773 -251.542171 
L 401.096474 -253.005865 
L 399.445175 -253.451966 
L 397.793876 -253.025812 
L 396.142577 -252.377891 
L 394.491278 -252.261175 
L 392.839979 -253.017825 
L 391.18868 -254.521756 
L 389.537381 -256.164825 
L 387.886082 -256.965056 
L 386.234783 -257.140056 
L 384.583484 -256.930877 
L 382.932185 -257.024718 
L 381.280886 -257.874664 
L 379.629586 -259.472978 
L 377.978287 -261.817893 
L 376.326988 -264.280571 
L 374.675689 -266.498215 
L 373.02439 -268.237516 
L 371.373091 -269.956767 
L 369.721792 -271.660617 
L 368.070493 -273.387038 
L 366.419194 -275.513483 
L 364.767895 -277.910243 
L 363.116596 -280.542179 
L 361.465297 -283.492012 
L 359.813998 -286.621669 
L 358.162699 -289.30168 
L 356.5114 -290.901375 
L 354.860101 -290.985401 
L 353.208802 -289.055454 
L 351.557503 -285.895269 
L 349.906204 -282.497408 
L 348.254905 -279.952373 
L 346.603606 -279.296116 
L 344.952307 -279.972323 
L 343.301008 -281.192982 
L 341.649709 -281.567834 
L 339.99841 -280.253602 
L 338.347111 -277.209873 
L 336.695812 -273.360755 
L 335.044513 -269.642441 
L 333.393214 -266.739035 
L 331.741915 -265.090846 
L 330.090616 -264.620147 
L 328.439317 -265.011008 
L 326.788018 -265.910861 
L 325.136718 -267.105825 
L 323.485419 -268.433768 
L 321.83412 -269.723117 
L 320.182821 -270.667838 
L 318.531522 -271.337234 
L 316.880223 -271.485033 
L 315.228924 -271.403421 
L 313.577625 -271.305767 
L 311.926326 -271.277755 
L 310.275027 -271.388232 
L 308.623728 -271.741623 
L 306.972429 -272.154719 
L 305.32113 -272.557023 
L 303.669831 -272.882599 
L 302.018532 -273.269549 
L 300.367233 -273.805519 
L 298.715934 -274.080072 
L 297.064635 -273.901151 
L 295.413336 -273.105771 
L 293.762037 -271.771476 
L 292.110738 -269.981465 
L 290.459439 -268.218223 
L 288.80814 -266.690487 
L 287.156841 -265.450688 
L 285.505542 -264.362399 
L 283.854243 -263.035118 
L 282.202944 -261.325842 
L 280.551645 -259.047246 
L 278.900346 -256.673903 
L 277.249047 -254.91755 
L 275.597748 -254.315451 
L 273.946449 -254.758219 
L 272.29515 -255.403953 
L 270.64385 -255.578353 
L 268.992551 -255.43058 
L 267.341252 -255.709326 
L 265.689953 -257.499918 
L 264.038654 -261.817897 
L 262.387355 -268.674632 
L 260.736056 -276.449942 
L 259.084757 -283.330783 
L 257.433458 -288.56108 
L 255.782159 -292.830333 
L 254.13086 -297.721652 
L 252.479561 -304.985466 
L 250.828262 -314.341948 
L 249.176963 -323.806979 
L 247.525664 -331.429517 
L 245.874365 -335.630538 
L 244.223066 -336.299624 
L 242.571767 -334.803154 
L 240.920468 -333.110347 
L 239.269169 -332.266794 
L 237.61787 -331.813831 
L 235.966571 -329.730465 
L 234.315272 -324.357892 
L 232.663973 -315.077559 
L 231.012674 -302.980164 
L 229.361375 -290.385872 
L 227.710076 -279.145692 
L 226.058777 -270.407842 
L 224.407478 -263.510103 
L 222.756179 -257.031712 
L 221.10488 -250.109663 
L 219.453581 -243.011149 
L 217.802282 -236.7389 
L 216.150982 -232.349 
L 214.499683 -230.264743 
L 212.848384 -229.762569 
L 211.197085 -229.714939 
L 209.545786 -229.236812 
L 207.894487 -227.608044 
L 206.243188 -224.953702 
L 204.591889 -222.149709 
L 202.94059 -219.679632 
L 201.289291 -217.083329 
L 199.637992 -213.843687 
L 197.986693 -210.191013 
L 196.335394 -206.500761 
L 194.684095 -203.603102 
L 193.032796 -202.044159 
L 191.381497 -201.682729 
L 189.730198 -201.815978 
L 188.078899 -202.274634 
L 186.4276 -202.689119 
L 184.776301 -202.949297 
L 183.125002 -202.790957 
L 181.473703 -202.499054 
L 179.822404 -202.344956 
L 178.171105 -202.414418 
L 176.519806 -202.2656 
L 174.868507 -202.348697 
L 173.217208 -202.85218 
L 171.565909 -203.95068 
L 169.91461 -205.614537 
L 168.263311 -207.360945 
L 166.612012 -208.345983 
L 164.960713 -207.816322 
L 163.309414 -205.691625 
L 161.658114 -202.554 
L 160.006815 -199.721254 
L 158.355516 -198.339701 
L 156.704217 -198.778381 
L 155.052918 -200.848123 
L 153.401619 -203.73755 
L 151.75032 -206.425261 
L 150.099021 -208.148393 
L 148.447722 -209.096694 
L 146.796423 -209.633298 
L 145.145124 -210.242941 
L 143.493825 -211.59675 
L 141.842526 -213.774485 
L 140.191227 -216.268361 
L 138.539928 -218.716332 
L 136.888629 -220.468798 
L 135.23733 -221.375656 
L 133.586031 -221.7189 
L 131.934732 -221.577127 
L 130.283433 -221.258764 
L 128.632134 -221.192345 
L 126.980835 -221.454187 
L 125.329536 -222.047017 
L 123.678237 -222.887854 
L 122.026938 -223.696888 
L 120.375639 -224.309378 
L 118.72434 -224.392422 
L 117.073041 -223.809472 
L 115.421742 -222.585409 
L 113.770443 -221.110413 
L 112.119144 -220.022365 
L 110.467845 -219.826089 
L 108.816546 -220.717673 
L 107.165246 -222.473434 
L 105.513947 -224.574425 
L 103.862648 -226.260076 
L 102.211349 -226.994099 
L 100.56005 -226.514385 
L 98.908751 -225.073073 
L 97.257452 -223.317386 
L 95.606153 -222.057404 
L 93.954854 -222.148094 
L 92.303555 -223.67671 
L 90.652256 -225.934673 
L 89.000957 -227.872363 
L 87.349658 -228.523246 
L 85.698359 -227.543493 
L 84.04706 -225.217164 
L 82.395761 -222.786912 
L 80.744462 -221.446996 
L 79.093163 -221.842688 
L 77.441864 -223.789951 
L 75.790565 -226.516791 
L 74.139266 -228.891723 
L 72.487967 -230.227778 
L 70.836668 -230.514516 
L 69.185369 -230.228789 
L 67.53407 -229.9079 
L 65.882771 -229.95701 
L 64.231472 -230.575603 
L 62.580173 -231.597822 
L 60.928874 -232.723175 
L 59.277575 -233.29219 
L 57.626276 -233.166382 
L 55.974977 -232.234445 
L 54.323677 -230.964714 
z
" style="stroke: #ff7f0e; stroke-opacity: 0.3"/>
    </defs>
    <g>
     <use xlink:href="#m8efab2f211" x="0" y="432" style="fill: #ff7f0e; fill-opacity: 0.3; stroke: #ff7f0e; stroke-opacity: 0.3"/>
    </g>
   </g>
   <g id="line2d_21">
    <path d="M 54.323677 175.133462 
L 55.974977 175.229837 
L 57.626276 173.471567 
L 59.277575 172.139728 
L 60.928874 171.947048 
L 62.580173 174.898683 
L 64.231472 180.836376 
L 67.53407 197.578271 
L 69.185369 204.334547 
L 70.836668 208.968908 
L 72.487967 213.049802 
L 74.139266 216.040583 
L 75.790565 217.95373 
L 77.441864 218.932057 
L 79.093163 218.967498 
L 80.744462 217.638115 
L 84.04706 211.042177 
L 85.698359 210.355642 
L 87.349658 212.90236 
L 89.000957 217.163724 
L 90.652256 221.824995 
L 92.303555 225.071858 
L 93.954854 225.554443 
L 95.606153 223.11706 
L 98.908751 212.124438 
L 100.56005 207.914039 
L 102.211349 206.11375 
L 103.862648 208.583073 
L 105.513947 213.294963 
L 107.165246 215.426789 
L 108.816546 215.024562 
L 112.119144 207.072334 
L 113.770443 205.060193 
L 115.421742 205.834568 
L 117.073041 209.5824 
L 118.72434 214.43086 
L 120.375639 218.6501 
L 122.026938 220.787936 
L 123.678237 219.60825 
L 125.329536 216.057101 
L 126.980835 213.302701 
L 128.632134 212.489032 
L 130.283433 214.461739 
L 131.934732 215.88271 
L 133.586031 215.260863 
L 135.23733 211.933944 
L 136.888629 206.799618 
L 138.539928 200.427432 
L 140.191227 194.698758 
L 141.842526 190.837151 
L 143.493825 189.70542 
L 145.145124 189.759706 
L 146.796423 190.079843 
L 148.447722 190.938095 
L 150.099021 192.485247 
L 151.75032 195.61738 
L 155.052918 204.946837 
L 156.704217 206.024798 
L 158.355516 204.541284 
L 160.006815 201.174599 
L 161.658114 197.238209 
L 163.309414 195.122368 
L 164.960713 196.130168 
L 166.612012 201.038187 
L 168.263311 207.778079 
L 169.91461 213.852626 
L 171.565909 216.079807 
L 173.217208 214.576117 
L 174.868507 209.746936 
L 176.519806 204.035862 
L 179.822404 194.685227 
L 183.125002 189.00731 
L 184.776301 185.773141 
L 186.4276 184.065195 
L 188.078899 184.065946 
L 189.730198 184.545988 
L 191.381497 184.43746 
L 193.032796 184.724619 
L 194.684095 185.860005 
L 196.335394 187.652001 
L 199.637992 192.657948 
L 201.289291 194.027518 
L 202.94059 193.814528 
L 204.591889 192.457331 
L 206.243188 190.506148 
L 207.894487 189.329895 
L 209.545786 188.805305 
L 211.197085 187.509002 
L 212.848384 184.177434 
L 214.499683 179.279014 
L 216.150982 173.481205 
L 217.802282 165.560808 
L 219.453581 155.733285 
L 221.10488 142.91356 
L 224.407478 110.0755 
L 226.058777 95.4493 
L 227.710076 85.398145 
L 229.361375 80.358613 
L 231.012674 78.941965 
L 232.663973 77.005282 
L 234.315272 71.53054 
L 237.61787 56.385145 
L 239.269169 50.912306 
L 240.920468 49.245923 
L 242.571767 52.662749 
L 244.223066 60.516648 
L 245.874365 71.458875 
L 250.828262 106.876172 
L 260.736056 167.327147 
L 262.387355 175.251128 
L 264.038654 181.510825 
L 267.341252 188.397336 
L 268.992551 193.555423 
L 270.64385 200.285473 
L 272.29515 206.012308 
L 273.946449 209.296241 
L 275.597748 208.539199 
L 277.249047 203.206644 
L 278.900346 195.673792 
L 280.551645 186.888478 
L 282.202944 175.953185 
L 283.854243 164.087338 
L 285.505542 153.830506 
L 287.156841 147.35986 
L 288.80814 146.976476 
L 290.459439 154.011344 
L 293.762037 177.776337 
L 295.413336 184.39141 
L 297.064635 184.190037 
L 300.367233 172.120183 
L 302.018532 170.663968 
L 303.669831 174.75484 
L 306.972429 190.035962 
L 308.623728 196.337052 
L 310.275027 198.997693 
L 311.926326 198.300178 
L 313.577625 196.927699 
L 315.228924 194.632748 
L 318.531522 188.4792 
L 320.182821 185.185882 
L 321.83412 183.217734 
L 323.485419 184.081369 
L 325.136718 186.882141 
L 326.788018 190.750248 
L 328.439317 194.960461 
L 330.090616 197.681964 
L 331.741915 197.966842 
L 333.393214 195.64609 
L 335.044513 190.662793 
L 336.695812 184.440745 
L 338.347111 179.203229 
L 343.301008 158.010711 
L 346.603606 145.765638 
L 348.254905 138.377056 
L 349.906204 128.929532 
L 354.860101 96.042371 
L 356.5114 86.993977 
L 358.162699 79.649542 
L 361.465297 66.624345 
L 364.767895 50.349614 
L 366.419194 43.845873 
L 368.070493 40.112856 
L 369.721792 39.332531 
L 371.373091 41.955708 
L 373.02439 46.399809 
L 374.675689 50.139085 
L 376.326988 51.202486 
L 377.978287 49.329565 
L 379.629586 45.075265 
L 381.280886 41.770143 
L 382.932185 41.937169 
L 384.583484 47.062478 
L 386.234783 56.168348 
L 387.886082 67.141854 
L 389.537381 77.314296 
L 391.18868 85.549091 
L 392.839979 92.105878 
L 396.142577 103.667713 
L 397.793876 110.594566 
L 399.445175 116.958716 
L 401.096474 121.106052 
L 402.747773 122.947783 
L 404.399072 124.119279 
L 406.050371 125.91536 
L 407.70167 130.646127 
L 411.004268 149.362839 
L 412.655567 155.452241 
L 414.306866 155.192138 
L 415.958165 150.032892 
L 417.609464 143.406624 
L 419.260763 140.149247 
L 420.912062 143.084192 
L 422.563361 150.537042 
L 424.21466 158.934811 
L 425.865959 163.71862 
L 427.517258 161.652921 
L 429.168557 152.919376 
L 430.819856 141.394378 
L 432.471155 131.26268 
L 434.122455 125.520924 
L 435.773754 125.302759 
L 437.425053 129.445461 
L 439.076352 135.56465 
L 440.727651 141.159622 
L 442.37895 144.554829 
L 445.681548 147.942064 
L 447.332847 151.199077 
L 448.984146 156.888521 
L 452.286744 173.580795 
L 453.938043 180.08545 
L 455.589342 181.877441 
L 457.240641 178.166598 
L 458.89194 172.393703 
L 460.543239 168.241392 
L 462.194538 168.714492 
L 463.845837 174.305425 
L 465.497136 182.533962 
L 467.148435 188.778668 
L 468.799734 190.487495 
L 470.451033 187.763333 
L 472.102332 184.41942 
L 473.753631 185.733192 
L 475.40493 194.181464 
L 477.056229 206.341763 
L 478.707528 217.382809 
L 480.358827 223.352078 
L 482.010126 223.183456 
L 483.661425 218.920127 
L 485.312724 216.23822 
L 486.964023 219.888241 
L 488.615323 227.924924 
L 490.266622 237.71137 
L 491.917921 246.019061 
L 493.56922 249.373401 
L 495.220519 249.107734 
L 496.871818 247.542181 
L 498.523117 247.313162 
L 500.174416 249.016332 
L 501.825715 251.974389 
L 503.477014 254.404209 
L 505.128313 255.269506 
L 506.779612 255.086612 
L 508.430911 254.562635 
L 510.08221 254.282765 
L 511.733509 255.011475 
L 516.687406 258.431551 
L 518.338705 259.295948 
L 519.990004 261.074938 
L 521.641303 262.551965 
L 523.292602 263.169878 
L 524.943901 263.373586 
L 526.5952 261.370883 
L 528.246499 258.943193 
L 533.200396 256.186419 
L 534.851695 256.871236 
L 536.502994 260.128337 
L 538.154293 266.157157 
L 539.805592 273.111215 
L 541.456891 279.325532 
L 543.108191 282.369872 
L 544.75949 281.540547 
L 546.410789 277.133182 
L 549.713387 265.124875 
L 551.364686 263.100032 
L 553.015985 263.881711 
L 554.667284 265.673505 
L 556.318583 266.605109 
L 557.969882 267.064599 
L 559.621181 266.103823 
L 561.27248 265.958592 
L 561.27248 265.958592 
" style="fill: none; stroke: #1f77b4; stroke-width: 1.5; stroke-linecap: square"/>
   </g>
   <g id="line2d_22">
    <path d="M 54.323677 202.912835 
L 55.974977 201.585526 
L 57.626276 200.668967 
L 59.277575 200.516744 
L 60.928874 201.108002 
L 64.231472 203.072973 
L 65.882771 203.577136 
L 67.53407 203.560354 
L 70.836668 202.9343 
L 72.487967 203.282034 
L 74.139266 204.583811 
L 75.790565 206.87344 
L 77.441864 209.52942 
L 79.093163 211.441448 
L 80.744462 211.819444 
L 82.395761 210.496294 
L 85.698359 205.779434 
L 87.349658 204.80709 
L 89.000957 205.55548 
L 90.652256 207.46323 
L 92.303555 209.742655 
L 93.954854 211.24784 
L 95.606153 211.340112 
L 97.257452 210.162235 
L 98.908751 208.460734 
L 100.56005 206.991536 
L 102.211349 206.428357 
L 103.862648 207.069831 
L 105.513947 208.782961 
L 107.165246 210.878221 
L 108.816546 212.649886 
L 110.467845 213.535735 
L 112.119144 213.344516 
L 113.770443 212.286846 
L 115.421742 210.916367 
L 117.073041 209.695032 
L 118.72434 209.154301 
L 120.375639 209.303124 
L 122.026938 209.853278 
L 125.329536 211.533529 
L 126.980835 212.236757 
L 128.632134 212.516292 
L 130.283433 212.461403 
L 131.934732 212.19469 
L 133.586031 212.112382 
L 135.23733 212.478693 
L 136.888629 213.389892 
L 138.539928 215.131229 
L 143.493825 222.302361 
L 145.145124 223.747153 
L 146.796423 224.442437 
L 148.447722 224.872376 
L 150.099021 225.72451 
L 151.75032 227.461182 
L 153.401619 230.132713 
L 155.052918 233.028998 
L 156.704217 235.143601 
L 158.355516 235.638316 
L 160.006815 234.223706 
L 163.309414 228.302939 
L 164.960713 226.157234 
L 166.612012 225.718539 
L 168.263311 226.757415 
L 171.565909 230.293591 
L 173.217208 231.361651 
L 174.868507 231.856414 
L 176.519806 231.909582 
L 178.171105 231.84242 
L 181.473703 231.870887 
L 183.125002 231.653443 
L 184.776301 231.556087 
L 186.4276 231.803821 
L 189.730198 232.551945 
L 191.381497 232.628233 
L 193.032796 232.169394 
L 194.684095 230.575864 
L 196.335394 227.669059 
L 199.637992 220.349504 
L 201.289291 217.07671 
L 207.894487 206.693545 
L 209.545786 205.140213 
L 211.197085 204.633975 
L 212.848384 204.549068 
L 214.499683 204.017991 
L 216.150982 201.919675 
L 217.802282 197.612253 
L 219.453581 191.377245 
L 222.756179 177.260527 
L 226.058777 163.746458 
L 227.710076 155.059963 
L 229.361375 143.890924 
L 232.663973 119.294217 
L 234.315272 110.023158 
L 235.966571 104.640071 
L 237.61787 102.488142 
L 239.269169 101.9433 
L 240.920468 101.114162 
L 242.571767 99.412161 
L 244.223066 97.97112 
L 245.874365 98.67907 
L 247.525664 102.885498 
L 249.176963 110.461118 
L 252.479561 129.211594 
L 254.13086 136.494554 
L 255.782159 141.450742 
L 257.433458 145.665905 
L 259.084757 150.959979 
L 260.736056 157.926769 
L 262.387355 165.792535 
L 264.038654 172.700659 
L 265.689953 177.139506 
L 267.341252 179.050184 
L 268.992551 179.267875 
L 270.64385 179.054228 
L 272.29515 179.270952 
L 273.946449 179.915592 
L 275.597748 180.252005 
L 277.249047 179.571247 
L 278.900346 177.782006 
L 282.202944 173.054739 
L 283.854243 171.330817 
L 285.505542 170.112693 
L 288.80814 167.962149 
L 290.459439 166.453824 
L 293.762037 162.737307 
L 295.413336 161.287516 
L 297.064635 160.503201 
L 298.715934 160.320599 
L 300.367233 160.584569 
L 303.669831 161.50522 
L 310.275027 162.980196 
L 311.926326 163.183401 
L 313.577625 163.191759 
L 316.880223 162.989979 
L 318.531522 163.221143 
L 320.182821 163.869078 
L 321.83412 164.834705 
L 326.788018 168.510391 
L 328.439317 169.394399 
L 330.090616 169.77185 
L 331.741915 169.30228 
L 333.393214 167.747665 
L 335.044513 164.942487 
L 338.347111 157.41053 
L 339.99841 154.400057 
L 341.649709 153.117239 
L 343.301008 153.589052 
L 344.952307 154.771471 
L 346.603606 155.504671 
L 348.254905 154.789435 
L 349.906204 152.212753 
L 351.557503 148.656568 
L 353.208802 145.414029 
L 354.860101 143.636193 
L 356.5114 143.750696 
L 358.162699 145.478936 
L 359.813998 148.263933 
L 363.116596 154.415915 
L 364.767895 156.999254 
L 366.419194 159.317155 
L 368.070493 161.398586 
L 371.373091 164.903561 
L 374.675689 168.375203 
L 376.326988 170.5421 
L 379.629586 175.277801 
L 381.280886 176.924184 
L 382.932185 177.735456 
L 384.583484 177.806957 
L 386.234783 177.634012 
L 387.886082 177.748136 
L 389.537381 178.653107 
L 392.839979 181.794075 
L 394.491278 182.633504 
L 396.142577 182.550289 
L 399.445175 181.456853 
L 401.096474 181.823533 
L 402.747773 183.241021 
L 407.70167 190.067763 
L 409.352969 191.404535 
L 411.004268 191.975859 
L 414.306866 192.058648 
L 415.958165 192.480097 
L 417.609464 193.569524 
L 420.912062 196.626783 
L 422.563361 197.509757 
L 424.21466 197.35703 
L 425.865959 196.338516 
L 427.517258 195.069894 
L 429.168557 194.270248 
L 430.819856 194.260841 
L 432.471155 195.029745 
L 435.773754 197.45587 
L 437.425053 198.468857 
L 440.727651 199.914857 
L 442.37895 200.577887 
L 444.030249 200.860346 
L 445.681548 200.476158 
L 447.332847 199.789125 
L 448.984146 199.295065 
L 450.635445 199.796965 
L 452.286744 201.610894 
L 455.589342 207.330542 
L 457.240641 208.939246 
L 458.89194 209.07217 
L 460.543239 208.203567 
L 462.194538 207.483578 
L 463.845837 207.802236 
L 465.497136 209.048886 
L 467.148435 210.616193 
L 468.799734 211.778976 
L 470.451033 212.346053 
L 472.102332 212.563357 
L 473.753631 213.116121 
L 475.40493 214.246721 
L 477.056229 215.595838 
L 478.707528 216.498264 
L 480.358827 216.442307 
L 483.661425 214.770902 
L 485.312724 214.627461 
L 486.964023 215.424294 
L 488.615323 217.115748 
L 490.266622 219.046515 
L 491.917921 220.515722 
L 493.56922 221.139892 
L 496.871818 220.901445 
L 498.523117 221.081438 
L 501.825715 222.17654 
L 503.477014 222.347576 
L 505.128313 221.849892 
L 506.779612 220.510684 
L 508.430911 218.577209 
L 510.08221 216.41278 
L 511.733509 214.622177 
L 513.384808 213.541156 
L 515.036107 213.244658 
L 521.641303 214.368986 
L 523.292602 215.128634 
L 524.943901 216.454767 
L 526.5952 218.227499 
L 528.246499 219.81567 
L 529.897798 220.668808 
L 531.549097 220.520602 
L 534.851695 218.99108 
L 536.502994 218.906066 
L 538.154293 219.514397 
L 539.805592 220.431297 
L 541.456891 221.183123 
L 543.108191 221.587623 
L 546.410789 221.952151 
L 549.713387 222.177789 
L 551.364686 221.948068 
L 553.015985 221.552072 
L 554.667284 221.481551 
L 556.318583 222.218335 
L 557.969882 224.15801 
L 561.27248 229.403601 
L 561.27248 229.403601 
" style="fill: none; stroke: #ff7f0e; stroke-width: 1.5; stroke-linecap: square"/>
   </g>
  </g>
  <g id="axes_2">
   <g id="PathCollection_1">
    <defs>
     <path id="C0_0_c15d36659c" d="M 0 1.118034 
C 0.296506 1.118034 0.580908 1.000231 0.790569 0.790569 
C 1.000231 0.580908 1.118034 0.296506 1.118034 -0 
C 1.118034 -0.296506 1.000231 -0.580908 0.790569 -0.790569 
C 0.580908 -1.000231 0.296506 -1.118034 0 -1.118034 
C -0.296506 -1.118034 -0.580908 -1.000231 -0.790569 -0.790569 
C -1.000231 -0.580908 -1.118034 -0.296506 -1.118034 0 
C -1.118034 0.296506 -1.000231 0.580908 -0.790569 0.790569 
C -0.580908 1.000231 -0.296506 1.118034 0 1.118034 
z
"/>
    </defs>
    <g clip-path="url(#p815a5f08f9)">
     <use xlink:href="#C0_0_c15d36659c" x="509.100419" y="76.412725" style="stroke: #000000"/>
    </g>
    <g clip-path="url(#p815a5f08f9)">
     <use xlink:href="#C0_0_c15d36659c" x="527.452898" y="76.962832" style="stroke: #000000"/>
    </g>
    <g clip-path="url(#p815a5f08f9)">
     <use xlink:href="#C0_0_c15d36659c" x="491.321581" y="76.939536" style="stroke: #000000"/>
    </g>
    <g clip-path="url(#p815a5f08f9)">
     <use xlink:href="#C0_0_c15d36659c" x="494.028997" y="86.065614" style="stroke: #000000"/>
    </g>
    <g clip-path="url(#p815a5f08f9)">
     <use xlink:href="#C0_0_c15d36659c" x="524.552562" y="86.075585" style="stroke: #000000"/>
    </g>
    <g clip-path="url(#p815a5f08f9)">
     <use xlink:href="#C0_0_c15d36659c" x="509.043157" y="85.798032" style="stroke: #000000"/>
    </g>
   </g>
   <g id="matplotlib.axis_3"/>
   <g id="matplotlib.axis_4"/>
   <g id="line2d_23">
    <path d="M 548.86144 73.635892 
L 548.783775 71.164554 
L 548.551086 68.70297 
L 548.164293 66.260854 
L 547.624922 63.847844 
L 546.9351 61.473463 
L 546.097551 59.147081 
L 545.11558 56.87788 
L 543.993063 54.674816 
L 542.734429 52.546582 
L 541.344645 50.501577 
L 539.829197 48.547874 
L 538.194066 46.693181 
L 536.445704 44.944819 
L 534.591011 43.309688 
L 532.637308 41.79424 
L 530.592304 40.404456 
L 528.46407 39.145822 
L 526.261005 38.023305 
L 523.991804 37.041334 
L 521.665422 36.203785 
L 519.291041 35.513964 
L 516.878031 34.974592 
L 514.435915 34.587799 
L 511.974331 34.35511 
L 509.502994 34.277446 
L 507.031656 34.35511 
L 504.570072 34.587799 
L 502.127956 34.974592 
L 499.714946 35.513964 
L 497.340565 36.203785 
L 495.014183 37.041334 
L 492.744982 38.023305 
L 490.541918 39.145822 
L 488.413684 40.404456 
L 486.368679 41.79424 
L 484.414976 43.309688 
L 482.560283 44.944819 
L 480.811921 46.693181 
L 479.17679 48.547874 
L 477.661342 50.501577 
L 476.271558 52.546582 
L 475.012924 54.674816 
L 473.890407 56.87788 
L 472.908436 59.147081 
L 472.070887 61.473463 
L 471.381065 63.847844 
L 470.841694 66.260854 
L 470.454901 68.70297 
L 470.222212 71.164554 
L 470.144548 73.635892 
L 470.222212 76.107229 
L 470.454901 78.568813 
L 470.841694 81.010929 
L 471.381065 83.423939 
L 472.070887 85.79832 
L 472.908436 88.124702 
L 473.890407 90.393903 
L 475.012924 92.596968 
L 476.271558 94.725202 
L 477.661342 96.770206 
L 479.17679 98.723909 
L 480.811921 100.578602 
L 482.560283 102.326964 
L 484.414976 103.962095 
L 486.368679 105.477543 
L 488.413684 106.867327 
L 490.541918 108.125961 
L 492.744982 109.248478 
L 495.014183 110.230449 
L 497.340565 111.067998 
L 499.714946 111.75782 
L 502.127956 112.297191 
L 504.570072 112.683985 
L 507.031656 112.916673 
L 509.502994 112.994338 
L 511.974331 112.916673 
L 514.435915 112.683985 
L 516.878031 112.297191 
L 519.291041 111.75782 
L 521.665422 111.067998 
L 523.991804 110.230449 
L 526.261005 109.248478 
L 528.46407 108.125961 
L 530.592304 106.867327 
L 532.637308 105.477543 
L 534.591011 103.962095 
L 536.445704 102.326964 
L 538.194066 100.578602 
L 539.829197 98.723909 
L 541.344645 96.770206 
L 542.734429 94.725202 
L 543.993063 92.596968 
L 545.11558 90.393903 
L 546.097551 88.124702 
L 546.9351 85.79832 
L 547.624922 83.423939 
L 548.164293 81.010929 
L 548.551086 78.568813 
L 548.783775 76.107229 
L 548.86144 73.635892 
" style="fill: none; stroke: #000000; stroke-linecap: square"/>
   </g>
   <g id="line2d_24">
    <path d="M 501.25978 35.150353 
L 509.502994 28.373679 
L 517.746207 35.150353 
" style="fill: none; stroke: #000000; stroke-linecap: square"/>
   </g>
   <g id="line2d_25">
    <path d="M 470.380698 69.267104 
L 469.357379 67.535332 
L 468.727643 67.472359 
L 467.790912 67.763611 
L 466.84631 69.267104 
L 466.995872 74.068834 
L 466.444854 80.972306 
L 467.625607 83.97142 
L 469.357379 84.530309 
L 471.010433 83.074047 
" style="fill: none; stroke: #000000; stroke-linecap: square"/>
   </g>
   <g id="line2d_26">
    <path d="M 548.625289 69.267104 
L 549.648608 67.535332 
L 550.278344 67.472359 
L 551.215075 67.763611 
L 552.159677 69.267104 
L 552.010115 74.068834 
L 552.561134 80.972306 
L 551.38038 83.97142 
L 549.648608 84.530309 
L 547.995554 83.074047 
" style="fill: none; stroke: #000000; stroke-linecap: square"/>
   </g>
  </g>
 </g>
 <defs>
  <clipPath id="p7056ff2a7d">
   <rect x="54.323678" y="18.118365" width="507.54327" height="380.525145"/>
  </clipPath>
  <clipPath id="p815a5f08f9">
   <rect x="462.13904" y="24.142646" width="94.727908" height="93.082725"/>
  </clipPath>
 </defs>
</svg>
