<?xml version="1.0" encoding="utf-8" standalone="no"?>
<!DOCTYPE svg PUBLIC "-//W3C//DTD SVG 1.1//EN"
  "http://www.w3.org/Graphics/SVG/1.1/DTD/svg11.dtd">
<svg xmlns:xlink="http://www.w3.org/1999/xlink" width="576pt" height="432pt" viewBox="0 0 576 432" xmlns="http://www.w3.org/2000/svg" version="1.1">
 <metadata>
  <rdf:RDF xmlns:dc="http://purl.org/dc/elements/1.1/" xmlns:cc="http://creativecommons.org/ns#" xmlns:rdf="http://www.w3.org/1999/02/22-rdf-syntax-ns#">
   <cc:Work>
    <dc:type rdf:resource="http://purl.org/dc/dcmitype/StillImage"/>
    <dc:date>2025-02-20T17:26:01.890157</dc:date>
    <dc:format>image/svg+xml</dc:format>
    <dc:creator>
     <cc:Agent>
      <dc:title>Matplotlib v3.10.0, https://matplotlib.org/</dc:title>
     </cc:Agent>
    </dc:creator>
   </cc:Work>
  </rdf:RDF>
 </metadata>
 <defs>
  <style type="text/css">*{stroke-linejoin: round; stroke-linecap: butt}</style>
 </defs>
 <g id="figure_1">
  <g id="patch_1">
   <path d="M 0 432 
L 576 432 
L 576 0 
L 0 0 
z
" style="fill: #ffffff"/>
  </g>
  <g id="axes_1">
   <g id="patch_2">
    <path d="M 47.961178 398.64351 
L 561.866947 398.64351 
L 561.866947 18.118365 
L 47.961178 18.118365 
L 47.961178 398.64351 
z
" style="fill: none; opacity: 0"/>
   </g>
   <g id="patch_3">
    <path d="M 47.961178 364.440325 
L 47.961178 52.32155 
" style="fill: none; stroke: #000000; stroke-width: 0.8; stroke-linejoin: miter; stroke-linecap: square"/>
   </g>
   <g id="LineCollection_1">
    <path d="M 262.244635 18.118365 
L 262.244635 398.64351 
" clip-path="url(#p1340e4fed4)" style="fill: none; stroke-dasharray: 3.7,1.6; stroke-dashoffset: 0; stroke: #000000"/>
    <path d="M 326.449416 18.118365 
L 326.449416 398.64351 
" clip-path="url(#p1340e4fed4)" style="fill: none; stroke-dasharray: 3.7,1.6; stroke-dashoffset: 0; stroke: #000000"/>
   </g>
   <g id="matplotlib.axis_1">
    <g id="xtick_1">
     <g id="line2d_1">
      <defs>
       <path id="m40b34e0975" d="M 0 0 
L 0 3.5 
" style="stroke: #000000; stroke-width: 0.8"/>
      </defs>
      <g>
       <use xlink:href="#m40b34e0975" x="48.228697" y="398.64351" style="stroke: #000000; stroke-width: 0.8"/>
      </g>
     </g>
     <g id="text_1">
      <!-- −0.20 -->
      <g transform="translate(32.906041 413.241947) scale(0.1 -0.1)">
       <defs>
        <path id="DejaVuSans-2212" d="M 678 2272 
L 4684 2272 
L 4684 1741 
L 678 1741 
L 678 2272 
z
" transform="scale(0.015625)"/>
        <path id="DejaVuSans-30" d="M 2034 4250 
Q 1547 4250 1301 3770 
Q 1056 3291 1056 2328 
Q 1056 1369 1301 889 
Q 1547 409 2034 409 
Q 2525 409 2770 889 
Q 3016 1369 3016 2328 
Q 3016 3291 2770 3770 
Q 2525 4250 2034 4250 
z
M 2034 4750 
Q 2819 4750 3233 4129 
Q 3647 3509 3647 2328 
Q 3647 1150 3233 529 
Q 2819 -91 2034 -91 
Q 1250 -91 836 529 
Q 422 1150 422 2328 
Q 422 3509 836 4129 
Q 1250 4750 2034 4750 
z
" transform="scale(0.015625)"/>
        <path id="DejaVuSans-2e" d="M 684 794 
L 1344 794 
L 1344 0 
L 684 0 
L 684 794 
z
" transform="scale(0.015625)"/>
        <path id="DejaVuSans-32" d="M 1228 531 
L 3431 531 
L 3431 0 
L 469 0 
L 469 531 
Q 828 903 1448 1529 
Q 2069 2156 2228 2338 
Q 2531 2678 2651 2914 
Q 2772 3150 2772 3378 
Q 2772 3750 2511 3984 
Q 2250 4219 1831 4219 
Q 1534 4219 1204 4116 
Q 875 4013 500 3803 
L 500 4441 
Q 881 4594 1212 4672 
Q 1544 4750 1819 4750 
Q 2544 4750 2975 4387 
Q 3406 4025 3406 3419 
Q 3406 3131 3298 2873 
Q 3191 2616 2906 2266 
Q 2828 2175 2409 1742 
Q 1991 1309 1228 531 
z
" transform="scale(0.015625)"/>
       </defs>
       <use xlink:href="#DejaVuSans-2212"/>
       <use xlink:href="#DejaVuSans-30" transform="translate(83.789062 0)"/>
       <use xlink:href="#DejaVuSans-2e" transform="translate(147.412109 0)"/>
       <use xlink:href="#DejaVuSans-32" transform="translate(179.199219 0)"/>
       <use xlink:href="#DejaVuSans-30" transform="translate(242.822266 0)"/>
      </g>
     </g>
    </g>
    <g id="xtick_2">
     <g id="line2d_2">
      <g>
       <use xlink:href="#m40b34e0975" x="133.835072" y="398.64351" style="stroke: #000000; stroke-width: 0.8"/>
      </g>
     </g>
     <g id="text_2">
      <!-- 0.00 -->
      <g transform="translate(122.70226 413.241947) scale(0.1 -0.1)">
       <use xlink:href="#DejaVuSans-30"/>
       <use xlink:href="#DejaVuSans-2e" transform="translate(63.623047 0)"/>
       <use xlink:href="#DejaVuSans-30" transform="translate(95.410156 0)"/>
       <use xlink:href="#DejaVuSans-30" transform="translate(159.033203 0)"/>
      </g>
     </g>
    </g>
    <g id="xtick_3">
     <g id="line2d_3">
      <g>
       <use xlink:href="#m40b34e0975" x="219.441447" y="398.64351" style="stroke: #000000; stroke-width: 0.8"/>
      </g>
     </g>
     <g id="text_3">
      <!-- 0.20 -->
      <g transform="translate(208.308635 413.241947) scale(0.1 -0.1)">
       <use xlink:href="#DejaVuSans-30"/>
       <use xlink:href="#DejaVuSans-2e" transform="translate(63.623047 0)"/>
       <use xlink:href="#DejaVuSans-32" transform="translate(95.410156 0)"/>
       <use xlink:href="#DejaVuSans-30" transform="translate(159.033203 0)"/>
      </g>
     </g>
    </g>
    <g id="xtick_4">
     <g id="line2d_4">
      <g>
       <use xlink:href="#m40b34e0975" x="262.244635" y="398.64351" style="stroke: #000000; stroke-width: 0.8"/>
      </g>
     </g>
     <g id="text_4">
      <!-- 0.30 -->
      <g transform="translate(251.111822 413.241947) scale(0.1 -0.1)">
       <defs>
        <path id="DejaVuSans-33" d="M 2597 2516 
Q 3050 2419 3304 2112 
Q 3559 1806 3559 1356 
Q 3559 666 3084 287 
Q 2609 -91 1734 -91 
Q 1441 -91 1130 -33 
Q 819 25 488 141 
L 488 750 
Q 750 597 1062 519 
Q 1375 441 1716 441 
Q 2309 441 2620 675 
Q 2931 909 2931 1356 
Q 2931 1769 2642 2001 
Q 2353 2234 1838 2234 
L 1294 2234 
L 1294 2753 
L 1863 2753 
Q 2328 2753 2575 2939 
Q 2822 3125 2822 3475 
Q 2822 3834 2567 4026 
Q 2313 4219 1838 4219 
Q 1578 4219 1281 4162 
Q 984 4106 628 3988 
L 628 4550 
Q 988 4650 1302 4700 
Q 1616 4750 1894 4750 
Q 2613 4750 3031 4423 
Q 3450 4097 3450 3541 
Q 3450 3153 3228 2886 
Q 3006 2619 2597 2516 
z
" transform="scale(0.015625)"/>
       </defs>
       <use xlink:href="#DejaVuSans-30"/>
       <use xlink:href="#DejaVuSans-2e" transform="translate(63.623047 0)"/>
       <use xlink:href="#DejaVuSans-33" transform="translate(95.410156 0)"/>
       <use xlink:href="#DejaVuSans-30" transform="translate(159.033203 0)"/>
      </g>
     </g>
    </g>
    <g id="xtick_5">
     <g id="line2d_5">
      <g>
       <use xlink:href="#m40b34e0975" x="305.047822" y="398.64351" style="stroke: #000000; stroke-width: 0.8"/>
      </g>
     </g>
     <g id="text_5">
      <!-- 0.40 -->
      <g transform="translate(293.91501 413.241947) scale(0.1 -0.1)">
       <defs>
        <path id="DejaVuSans-34" d="M 2419 4116 
L 825 1625 
L 2419 1625 
L 2419 4116 
z
M 2253 4666 
L 3047 4666 
L 3047 1625 
L 3713 1625 
L 3713 1100 
L 3047 1100 
L 3047 0 
L 2419 0 
L 2419 1100 
L 313 1100 
L 313 1709 
L 2253 4666 
z
" transform="scale(0.015625)"/>
       </defs>
       <use xlink:href="#DejaVuSans-30"/>
       <use xlink:href="#DejaVuSans-2e" transform="translate(63.623047 0)"/>
       <use xlink:href="#DejaVuSans-34" transform="translate(95.410156 0)"/>
       <use xlink:href="#DejaVuSans-30" transform="translate(159.033203 0)"/>
      </g>
     </g>
    </g>
    <g id="xtick_6">
     <g id="line2d_6">
      <g>
       <use xlink:href="#m40b34e0975" x="326.449416" y="398.64351" style="stroke: #000000; stroke-width: 0.8"/>
      </g>
     </g>
     <g id="text_6">
      <!-- 0.45 -->
      <g transform="translate(315.316604 413.241947) scale(0.1 -0.1)">
       <defs>
        <path id="DejaVuSans-35" d="M 691 4666 
L 3169 4666 
L 3169 4134 
L 1269 4134 
L 1269 2991 
Q 1406 3038 1543 3061 
Q 1681 3084 1819 3084 
Q 2600 3084 3056 2656 
Q 3513 2228 3513 1497 
Q 3513 744 3044 326 
Q 2575 -91 1722 -91 
Q 1428 -91 1123 -41 
Q 819 9 494 109 
L 494 744 
Q 775 591 1075 516 
Q 1375 441 1709 441 
Q 2250 441 2565 725 
Q 2881 1009 2881 1497 
Q 2881 1984 2565 2268 
Q 2250 2553 1709 2553 
Q 1456 2553 1204 2497 
Q 953 2441 691 2322 
L 691 4666 
z
" transform="scale(0.015625)"/>
       </defs>
       <use xlink:href="#DejaVuSans-30"/>
       <use xlink:href="#DejaVuSans-2e" transform="translate(63.623047 0)"/>
       <use xlink:href="#DejaVuSans-34" transform="translate(95.410156 0)"/>
       <use xlink:href="#DejaVuSans-35" transform="translate(159.033203 0)"/>
      </g>
     </g>
    </g>
    <g id="xtick_7">
     <g id="line2d_7">
      <g>
       <use xlink:href="#m40b34e0975" x="390.654197" y="398.64351" style="stroke: #000000; stroke-width: 0.8"/>
      </g>
     </g>
     <g id="text_7">
      <!-- 0.60 -->
      <g transform="translate(379.521385 413.241947) scale(0.1 -0.1)">
       <defs>
        <path id="DejaVuSans-36" d="M 2113 2584 
Q 1688 2584 1439 2293 
Q 1191 2003 1191 1497 
Q 1191 994 1439 701 
Q 1688 409 2113 409 
Q 2538 409 2786 701 
Q 3034 994 3034 1497 
Q 3034 2003 2786 2293 
Q 2538 2584 2113 2584 
z
M 3366 4563 
L 3366 3988 
Q 3128 4100 2886 4159 
Q 2644 4219 2406 4219 
Q 1781 4219 1451 3797 
Q 1122 3375 1075 2522 
Q 1259 2794 1537 2939 
Q 1816 3084 2150 3084 
Q 2853 3084 3261 2657 
Q 3669 2231 3669 1497 
Q 3669 778 3244 343 
Q 2819 -91 2113 -91 
Q 1303 -91 875 529 
Q 447 1150 447 2328 
Q 447 3434 972 4092 
Q 1497 4750 2381 4750 
Q 2619 4750 2861 4703 
Q 3103 4656 3366 4563 
z
" transform="scale(0.015625)"/>
       </defs>
       <use xlink:href="#DejaVuSans-30"/>
       <use xlink:href="#DejaVuSans-2e" transform="translate(63.623047 0)"/>
       <use xlink:href="#DejaVuSans-36" transform="translate(95.410156 0)"/>
       <use xlink:href="#DejaVuSans-30" transform="translate(159.033203 0)"/>
      </g>
     </g>
    </g>
    <g id="xtick_8">
     <g id="line2d_8">
      <g>
       <use xlink:href="#m40b34e0975" x="476.260572" y="398.64351" style="stroke: #000000; stroke-width: 0.8"/>
      </g>
     </g>
     <g id="text_8">
      <!-- 0.80 -->
      <g transform="translate(465.12776 413.241947) scale(0.1 -0.1)">
       <defs>
        <path id="DejaVuSans-38" d="M 2034 2216 
Q 1584 2216 1326 1975 
Q 1069 1734 1069 1313 
Q 1069 891 1326 650 
Q 1584 409 2034 409 
Q 2484 409 2743 651 
Q 3003 894 3003 1313 
Q 3003 1734 2745 1975 
Q 2488 2216 2034 2216 
z
M 1403 2484 
Q 997 2584 770 2862 
Q 544 3141 544 3541 
Q 544 4100 942 4425 
Q 1341 4750 2034 4750 
Q 2731 4750 3128 4425 
Q 3525 4100 3525 3541 
Q 3525 3141 3298 2862 
Q 3072 2584 2669 2484 
Q 3125 2378 3379 2068 
Q 3634 1759 3634 1313 
Q 3634 634 3220 271 
Q 2806 -91 2034 -91 
Q 1263 -91 848 271 
Q 434 634 434 1313 
Q 434 1759 690 2068 
Q 947 2378 1403 2484 
z
M 1172 3481 
Q 1172 3119 1398 2916 
Q 1625 2713 2034 2713 
Q 2441 2713 2670 2916 
Q 2900 3119 2900 3481 
Q 2900 3844 2670 4047 
Q 2441 4250 2034 4250 
Q 1625 4250 1398 4047 
Q 1172 3844 1172 3481 
z
" transform="scale(0.015625)"/>
       </defs>
       <use xlink:href="#DejaVuSans-30"/>
       <use xlink:href="#DejaVuSans-2e" transform="translate(63.623047 0)"/>
       <use xlink:href="#DejaVuSans-38" transform="translate(95.410156 0)"/>
       <use xlink:href="#DejaVuSans-30" transform="translate(159.033203 0)"/>
      </g>
     </g>
    </g>
    <g id="xtick_9">
     <g id="line2d_9">
      <g>
       <use xlink:href="#m40b34e0975" x="561.866947" y="398.64351" style="stroke: #000000; stroke-width: 0.8"/>
      </g>
     </g>
     <g id="text_9">
      <!-- 1.00 -->
      <g transform="translate(550.734135 413.241947) scale(0.1 -0.1)">
       <defs>
        <path id="DejaVuSans-31" d="M 794 531 
L 1825 531 
L 1825 4091 
L 703 3866 
L 703 4441 
L 1819 4666 
L 2450 4666 
L 2450 531 
L 3481 531 
L 3481 0 
L 794 0 
L 794 531 
z
" transform="scale(0.015625)"/>
       </defs>
       <use xlink:href="#DejaVuSans-31"/>
       <use xlink:href="#DejaVuSans-2e" transform="translate(63.623047 0)"/>
       <use xlink:href="#DejaVuSans-30" transform="translate(95.410156 0)"/>
       <use xlink:href="#DejaVuSans-30" transform="translate(159.033203 0)"/>
      </g>
     </g>
    </g>
    <g id="text_10">
     <!-- Time (s) -->
     <g transform="translate(284.585156 426.920073) scale(0.1 -0.1)">
      <defs>
       <path id="DejaVuSans-54" d="M -19 4666 
L 3928 4666 
L 3928 4134 
L 2272 4134 
L 2272 0 
L 1638 0 
L 1638 4134 
L -19 4134 
L -19 4666 
z
" transform="scale(0.015625)"/>
       <path id="DejaVuSans-69" d="M 603 3500 
L 1178 3500 
L 1178 0 
L 603 0 
L 603 3500 
z
M 603 4863 
L 1178 4863 
L 1178 4134 
L 603 4134 
L 603 4863 
z
" transform="scale(0.015625)"/>
       <path id="DejaVuSans-6d" d="M 3328 2828 
Q 3544 3216 3844 3400 
Q 4144 3584 4550 3584 
Q 5097 3584 5394 3201 
Q 5691 2819 5691 2113 
L 5691 0 
L 5113 0 
L 5113 2094 
Q 5113 2597 4934 2840 
Q 4756 3084 4391 3084 
Q 3944 3084 3684 2787 
Q 3425 2491 3425 1978 
L 3425 0 
L 2847 0 
L 2847 2094 
Q 2847 2600 2669 2842 
Q 2491 3084 2119 3084 
Q 1678 3084 1418 2786 
Q 1159 2488 1159 1978 
L 1159 0 
L 581 0 
L 581 3500 
L 1159 3500 
L 1159 2956 
Q 1356 3278 1631 3431 
Q 1906 3584 2284 3584 
Q 2666 3584 2933 3390 
Q 3200 3197 3328 2828 
z
" transform="scale(0.015625)"/>
       <path id="DejaVuSans-65" d="M 3597 1894 
L 3597 1613 
L 953 1613 
Q 991 1019 1311 708 
Q 1631 397 2203 397 
Q 2534 397 2845 478 
Q 3156 559 3463 722 
L 3463 178 
Q 3153 47 2828 -22 
Q 2503 -91 2169 -91 
Q 1331 -91 842 396 
Q 353 884 353 1716 
Q 353 2575 817 3079 
Q 1281 3584 2069 3584 
Q 2775 3584 3186 3129 
Q 3597 2675 3597 1894 
z
M 3022 2063 
Q 3016 2534 2758 2815 
Q 2500 3097 2075 3097 
Q 1594 3097 1305 2825 
Q 1016 2553 972 2059 
L 3022 2063 
z
" transform="scale(0.015625)"/>
       <path id="DejaVuSans-20" transform="scale(0.015625)"/>
       <path id="DejaVuSans-28" d="M 1984 4856 
Q 1566 4138 1362 3434 
Q 1159 2731 1159 2009 
Q 1159 1288 1364 580 
Q 1569 -128 1984 -844 
L 1484 -844 
Q 1016 -109 783 600 
Q 550 1309 550 2009 
Q 550 2706 781 3412 
Q 1013 4119 1484 4856 
L 1984 4856 
z
" transform="scale(0.015625)"/>
       <path id="DejaVuSans-73" d="M 2834 3397 
L 2834 2853 
Q 2591 2978 2328 3040 
Q 2066 3103 1784 3103 
Q 1356 3103 1142 2972 
Q 928 2841 928 2578 
Q 928 2378 1081 2264 
Q 1234 2150 1697 2047 
L 1894 2003 
Q 2506 1872 2764 1633 
Q 3022 1394 3022 966 
Q 3022 478 2636 193 
Q 2250 -91 1575 -91 
Q 1294 -91 989 -36 
Q 684 19 347 128 
L 347 722 
Q 666 556 975 473 
Q 1284 391 1588 391 
Q 1994 391 2212 530 
Q 2431 669 2431 922 
Q 2431 1156 2273 1281 
Q 2116 1406 1581 1522 
L 1381 1569 
Q 847 1681 609 1914 
Q 372 2147 372 2553 
Q 372 3047 722 3315 
Q 1072 3584 1716 3584 
Q 2034 3584 2315 3537 
Q 2597 3491 2834 3397 
z
" transform="scale(0.015625)"/>
       <path id="DejaVuSans-29" d="M 513 4856 
L 1013 4856 
Q 1481 4119 1714 3412 
Q 1947 2706 1947 2009 
Q 1947 1309 1714 600 
Q 1481 -109 1013 -844 
L 513 -844 
Q 928 -128 1133 580 
Q 1338 1288 1338 2009 
Q 1338 2731 1133 3434 
Q 928 4138 513 4856 
z
" transform="scale(0.015625)"/>
      </defs>
      <use xlink:href="#DejaVuSans-54"/>
      <use xlink:href="#DejaVuSans-69" transform="translate(57.958984 0)"/>
      <use xlink:href="#DejaVuSans-6d" transform="translate(85.742188 0)"/>
      <use xlink:href="#DejaVuSans-65" transform="translate(183.154297 0)"/>
      <use xlink:href="#DejaVuSans-20" transform="translate(244.677734 0)"/>
      <use xlink:href="#DejaVuSans-28" transform="translate(276.464844 0)"/>
      <use xlink:href="#DejaVuSans-73" transform="translate(315.478516 0)"/>
      <use xlink:href="#DejaVuSans-29" transform="translate(367.578125 0)"/>
     </g>
    </g>
   </g>
   <g id="matplotlib.axis_2">
    <g id="ytick_1">
     <g id="line2d_10">
      <defs>
       <path id="m747ee2b7e8" d="M 0 0 
L -3.5 0 
" style="stroke: #000000; stroke-width: 0.8"/>
      </defs>
      <g>
       <use xlink:href="#m747ee2b7e8" x="47.961178" y="364.440325" style="stroke: #000000; stroke-width: 0.8"/>
      </g>
     </g>
     <g id="text_11">
      <!-- −7.5 -->
      <g transform="translate(16.678365 368.239544) scale(0.1 -0.1)">
       <defs>
        <path id="DejaVuSans-37" d="M 525 4666 
L 3525 4666 
L 3525 4397 
L 1831 0 
L 1172 0 
L 2766 4134 
L 525 4134 
L 525 4666 
z
" transform="scale(0.015625)"/>
       </defs>
       <use xlink:href="#DejaVuSans-2212"/>
       <use xlink:href="#DejaVuSans-37" transform="translate(83.789062 0)"/>
       <use xlink:href="#DejaVuSans-2e" transform="translate(147.412109 0)"/>
       <use xlink:href="#DejaVuSans-35" transform="translate(179.199219 0)"/>
      </g>
     </g>
    </g>
    <g id="ytick_2">
     <g id="line2d_11">
      <g>
       <use xlink:href="#m747ee2b7e8" x="47.961178" y="312.420529" style="stroke: #000000; stroke-width: 0.8"/>
      </g>
     </g>
     <g id="text_12">
      <!-- −5.0 -->
      <g transform="translate(16.678365 316.219748) scale(0.1 -0.1)">
       <use xlink:href="#DejaVuSans-2212"/>
       <use xlink:href="#DejaVuSans-35" transform="translate(83.789062 0)"/>
       <use xlink:href="#DejaVuSans-2e" transform="translate(147.412109 0)"/>
       <use xlink:href="#DejaVuSans-30" transform="translate(179.199219 0)"/>
      </g>
     </g>
    </g>
    <g id="ytick_3">
     <g id="line2d_12">
      <g>
       <use xlink:href="#m747ee2b7e8" x="47.961178" y="260.400733" style="stroke: #000000; stroke-width: 0.8"/>
      </g>
     </g>
     <g id="text_13">
      <!-- −2.5 -->
      <g transform="translate(16.678365 264.199952) scale(0.1 -0.1)">
       <use xlink:href="#DejaVuSans-2212"/>
       <use xlink:href="#DejaVuSans-32" transform="translate(83.789062 0)"/>
       <use xlink:href="#DejaVuSans-2e" transform="translate(147.412109 0)"/>
       <use xlink:href="#DejaVuSans-35" transform="translate(179.199219 0)"/>
      </g>
     </g>
    </g>
    <g id="ytick_4">
     <g id="line2d_13">
      <g>
       <use xlink:href="#m747ee2b7e8" x="47.961178" y="208.380937" style="stroke: #000000; stroke-width: 0.8"/>
      </g>
     </g>
     <g id="text_14">
      <!-- 0.0 -->
      <g transform="translate(25.058053 212.180156) scale(0.1 -0.1)">
       <use xlink:href="#DejaVuSans-30"/>
       <use xlink:href="#DejaVuSans-2e" transform="translate(63.623047 0)"/>
       <use xlink:href="#DejaVuSans-30" transform="translate(95.410156 0)"/>
      </g>
     </g>
    </g>
    <g id="ytick_5">
     <g id="line2d_14">
      <g>
       <use xlink:href="#m747ee2b7e8" x="47.961178" y="156.361142" style="stroke: #000000; stroke-width: 0.8"/>
      </g>
     </g>
     <g id="text_15">
      <!-- 2.5 -->
      <g transform="translate(25.058053 160.16036) scale(0.1 -0.1)">
       <use xlink:href="#DejaVuSans-32"/>
       <use xlink:href="#DejaVuSans-2e" transform="translate(63.623047 0)"/>
       <use xlink:href="#DejaVuSans-35" transform="translate(95.410156 0)"/>
      </g>
     </g>
    </g>
    <g id="ytick_6">
     <g id="line2d_15">
      <g>
       <use xlink:href="#m747ee2b7e8" x="47.961178" y="104.341346" style="stroke: #000000; stroke-width: 0.8"/>
      </g>
     </g>
     <g id="text_16">
      <!-- 5.0 -->
      <g transform="translate(25.058053 108.140565) scale(0.1 -0.1)">
       <use xlink:href="#DejaVuSans-35"/>
       <use xlink:href="#DejaVuSans-2e" transform="translate(63.623047 0)"/>
       <use xlink:href="#DejaVuSans-30" transform="translate(95.410156 0)"/>
      </g>
     </g>
    </g>
    <g id="ytick_7">
     <g id="line2d_16">
      <g>
       <use xlink:href="#m747ee2b7e8" x="47.961178" y="52.32155" style="stroke: #000000; stroke-width: 0.8"/>
      </g>
     </g>
     <g id="text_17">
      <!-- 7.5 -->
      <g transform="translate(25.058053 56.120769) scale(0.1 -0.1)">
       <use xlink:href="#DejaVuSans-37"/>
       <use xlink:href="#DejaVuSans-2e" transform="translate(63.623047 0)"/>
       <use xlink:href="#DejaVuSans-35" transform="translate(95.410156 0)"/>
      </g>
     </g>
    </g>
    <g id="text_18">
     <!-- µV -->
     <g transform="translate(10.598678 214.9825) rotate(-90) scale(0.1 -0.1)">
      <defs>
       <path id="DejaVuSans-b5" d="M 544 -1331 
L 544 3500 
L 1119 3500 
L 1119 1325 
Q 1119 872 1334 640 
Q 1550 409 1972 409 
Q 2434 409 2667 671 
Q 2900 934 2900 1459 
L 2900 3500 
L 3475 3500 
L 3475 806 
Q 3475 619 3529 530 
Q 3584 441 3700 441 
Q 3728 441 3778 458 
Q 3828 475 3916 513 
L 3916 50 
Q 3788 -22 3673 -56 
Q 3559 -91 3450 -91 
Q 3234 -91 3106 31 
Q 2978 153 2931 403 
Q 2775 156 2548 32 
Q 2322 -91 2016 -91 
Q 1697 -91 1473 31 
Q 1250 153 1119 397 
L 1119 -1331 
L 544 -1331 
z
" transform="scale(0.015625)"/>
       <path id="DejaVuSans-56" d="M 1831 0 
L 50 4666 
L 709 4666 
L 2188 738 
L 3669 4666 
L 4325 4666 
L 2547 0 
L 1831 0 
z
" transform="scale(0.015625)"/>
      </defs>
      <use xlink:href="#DejaVuSans-b5"/>
      <use xlink:href="#DejaVuSans-56" transform="translate(63.623047 0)"/>
     </g>
    </g>
   </g>
   <g id="patch_4">
    <path d="M 48.228697 398.64351 
L 561.866947 398.64351 
" style="fill: none; stroke: #000000; stroke-width: 0.8; stroke-linejoin: miter; stroke-linecap: square"/>
   </g>
   <g id="patch_5">
    <path d="M 47.961178 208.380937 
L 561.866947 208.380937 
" style="fill: none; stroke: #000000; stroke-width: 0.8; stroke-linejoin: miter; stroke-linecap: square"/>
   </g>
   <g id="text_19">
    <!-- F3, F7 (median) -->
    <g transform="translate(257.483125 12.118365) scale(0.12 -0.12)">
     <defs>
      <path id="DejaVuSans-46" d="M 628 4666 
L 3309 4666 
L 3309 4134 
L 1259 4134 
L 1259 2759 
L 3109 2759 
L 3109 2228 
L 1259 2228 
L 1259 0 
L 628 0 
L 628 4666 
z
" transform="scale(0.015625)"/>
      <path id="DejaVuSans-2c" d="M 750 794 
L 1409 794 
L 1409 256 
L 897 -744 
L 494 -744 
L 750 256 
L 750 794 
z
" transform="scale(0.015625)"/>
      <path id="DejaVuSans-64" d="M 2906 2969 
L 2906 4863 
L 3481 4863 
L 3481 0 
L 2906 0 
L 2906 525 
Q 2725 213 2448 61 
Q 2172 -91 1784 -91 
Q 1150 -91 751 415 
Q 353 922 353 1747 
Q 353 2572 751 3078 
Q 1150 3584 1784 3584 
Q 2172 3584 2448 3432 
Q 2725 3281 2906 2969 
z
M 947 1747 
Q 947 1113 1208 752 
Q 1469 391 1925 391 
Q 2381 391 2643 752 
Q 2906 1113 2906 1747 
Q 2906 2381 2643 2742 
Q 2381 3103 1925 3103 
Q 1469 3103 1208 2742 
Q 947 2381 947 1747 
z
" transform="scale(0.015625)"/>
      <path id="DejaVuSans-61" d="M 2194 1759 
Q 1497 1759 1228 1600 
Q 959 1441 959 1056 
Q 959 750 1161 570 
Q 1363 391 1709 391 
Q 2188 391 2477 730 
Q 2766 1069 2766 1631 
L 2766 1759 
L 2194 1759 
z
M 3341 1997 
L 3341 0 
L 2766 0 
L 2766 531 
Q 2569 213 2275 61 
Q 1981 -91 1556 -91 
Q 1019 -91 701 211 
Q 384 513 384 1019 
Q 384 1609 779 1909 
Q 1175 2209 1959 2209 
L 2766 2209 
L 2766 2266 
Q 2766 2663 2505 2880 
Q 2244 3097 1772 3097 
Q 1472 3097 1187 3025 
Q 903 2953 641 2809 
L 641 3341 
Q 956 3463 1253 3523 
Q 1550 3584 1831 3584 
Q 2591 3584 2966 3190 
Q 3341 2797 3341 1997 
z
" transform="scale(0.015625)"/>
      <path id="DejaVuSans-6e" d="M 3513 2113 
L 3513 0 
L 2938 0 
L 2938 2094 
Q 2938 2591 2744 2837 
Q 2550 3084 2163 3084 
Q 1697 3084 1428 2787 
Q 1159 2491 1159 1978 
L 1159 0 
L 581 0 
L 581 3500 
L 1159 3500 
L 1159 2956 
Q 1366 3272 1645 3428 
Q 1925 3584 2291 3584 
Q 2894 3584 3203 3211 
Q 3513 2838 3513 2113 
z
" transform="scale(0.015625)"/>
     </defs>
     <use xlink:href="#DejaVuSans-46"/>
     <use xlink:href="#DejaVuSans-33" transform="translate(57.519531 0)"/>
     <use xlink:href="#DejaVuSans-2c" transform="translate(121.142578 0)"/>
     <use xlink:href="#DejaVuSans-20" transform="translate(152.929688 0)"/>
     <use xlink:href="#DejaVuSans-46" transform="translate(184.716797 0)"/>
     <use xlink:href="#DejaVuSans-37" transform="translate(242.236328 0)"/>
     <use xlink:href="#DejaVuSans-20" transform="translate(305.859375 0)"/>
     <use xlink:href="#DejaVuSans-28" transform="translate(337.646484 0)"/>
     <use xlink:href="#DejaVuSans-6d" transform="translate(376.660156 0)"/>
     <use xlink:href="#DejaVuSans-65" transform="translate(474.072266 0)"/>
     <use xlink:href="#DejaVuSans-64" transform="translate(535.595703 0)"/>
     <use xlink:href="#DejaVuSans-69" transform="translate(599.072266 0)"/>
     <use xlink:href="#DejaVuSans-61" transform="translate(626.855469 0)"/>
     <use xlink:href="#DejaVuSans-6e" transform="translate(688.134766 0)"/>
     <use xlink:href="#DejaVuSans-29" transform="translate(751.513672 0)"/>
    </g>
   </g>
   <g id="legend_1">
    <g id="patch_6">
     <path d="M 54.961178 55.75274 
L 136.103365 55.75274 
Q 138.103365 55.75274 138.103365 53.75274 
L 138.103365 25.118365 
Q 138.103365 23.118365 136.103365 23.118365 
L 54.961178 23.118365 
Q 52.961178 23.118365 52.961178 25.118365 
L 52.961178 53.75274 
Q 52.961178 55.75274 54.961178 55.75274 
z
" style="fill: #ffffff; opacity: 0.8; stroke: #cccccc; stroke-linejoin: miter"/>
    </g>
    <g id="line2d_17">
     <path d="M 56.961178 31.216803 
L 66.961178 31.216803 
L 76.961178 31.216803 
" style="fill: none; stroke: #1f77b4; stroke-width: 1.5; stroke-linecap: square"/>
    </g>
    <g id="text_20">
     <!-- eerie -->
     <g transform="translate(84.961178 34.716803) scale(0.1 -0.1)">
      <defs>
       <path id="DejaVuSans-72" d="M 2631 2963 
Q 2534 3019 2420 3045 
Q 2306 3072 2169 3072 
Q 1681 3072 1420 2755 
Q 1159 2438 1159 1844 
L 1159 0 
L 581 0 
L 581 3500 
L 1159 3500 
L 1159 2956 
Q 1341 3275 1631 3429 
Q 1922 3584 2338 3584 
Q 2397 3584 2469 3576 
Q 2541 3569 2628 3553 
L 2631 2963 
z
" transform="scale(0.015625)"/>
      </defs>
      <use xlink:href="#DejaVuSans-65"/>
      <use xlink:href="#DejaVuSans-65" transform="translate(61.523438 0)"/>
      <use xlink:href="#DejaVuSans-72" transform="translate(123.046875 0)"/>
      <use xlink:href="#DejaVuSans-69" transform="translate(164.160156 0)"/>
      <use xlink:href="#DejaVuSans-65" transform="translate(191.943359 0)"/>
     </g>
    </g>
    <g id="line2d_18">
     <path d="M 56.961178 45.894928 
L 66.961178 45.894928 
L 76.961178 45.894928 
" style="fill: none; stroke: #ff7f0e; stroke-width: 1.5; stroke-linecap: square"/>
    </g>
    <g id="text_21">
     <!-- non_eerie -->
     <g transform="translate(84.961178 49.394928) scale(0.1 -0.1)">
      <defs>
       <path id="DejaVuSans-6f" d="M 1959 3097 
Q 1497 3097 1228 2736 
Q 959 2375 959 1747 
Q 959 1119 1226 758 
Q 1494 397 1959 397 
Q 2419 397 2687 759 
Q 2956 1122 2956 1747 
Q 2956 2369 2687 2733 
Q 2419 3097 1959 3097 
z
M 1959 3584 
Q 2709 3584 3137 3096 
Q 3566 2609 3566 1747 
Q 3566 888 3137 398 
Q 2709 -91 1959 -91 
Q 1206 -91 779 398 
Q 353 888 353 1747 
Q 353 2609 779 3096 
Q 1206 3584 1959 3584 
z
" transform="scale(0.015625)"/>
       <path id="DejaVuSans-5f" d="M 3263 -1063 
L 3263 -1509 
L -63 -1509 
L -63 -1063 
L 3263 -1063 
z
" transform="scale(0.015625)"/>
      </defs>
      <use xlink:href="#DejaVuSans-6e"/>
      <use xlink:href="#DejaVuSans-6f" transform="translate(63.378906 0)"/>
      <use xlink:href="#DejaVuSans-6e" transform="translate(124.560547 0)"/>
      <use xlink:href="#DejaVuSans-5f" transform="translate(187.939453 0)"/>
      <use xlink:href="#DejaVuSans-65" transform="translate(237.939453 0)"/>
      <use xlink:href="#DejaVuSans-65" transform="translate(299.462891 0)"/>
      <use xlink:href="#DejaVuSans-72" transform="translate(360.986328 0)"/>
      <use xlink:href="#DejaVuSans-69" transform="translate(402.099609 0)"/>
      <use xlink:href="#DejaVuSans-65" transform="translate(429.882812 0)"/>
     </g>
    </g>
   </g>
   <g id="FillBetweenPolyCollection_1">
    <defs>
     <path id="m837d4e4bdd" d="M 47.961178 -215.604183 
L 47.961178 -201.308626 
L 49.633177 -210.949251 
L 51.305177 -219.440242 
L 52.977176 -224.569731 
L 54.649176 -225.660681 
L 56.321175 -223.684845 
L 57.993175 -219.705615 
L 59.665174 -214.858561 
L 61.337174 -210.126712 
L 63.009173 -205.899187 
L 64.681173 -202.580984 
L 66.353172 -200.795811 
L 68.025172 -200.102028 
L 69.697171 -200.198671 
L 71.369171 -200.309115 
L 73.04117 -199.866989 
L 74.71317 -198.771072 
L 76.385169 -197.86004 
L 78.057169 -198.270914 
L 79.729168 -200.973738 
L 81.401168 -205.107225 
L 83.073167 -209.659519 
L 84.745167 -213.97779 
L 86.417166 -217.114111 
L 88.089166 -218.923251 
L 89.761165 -219.349072 
L 91.433165 -218.944707 
L 93.105164 -218.376027 
L 94.777164 -218.465819 
L 96.449163 -219.344673 
L 98.121163 -221.10186 
L 99.793162 -223.718802 
L 101.465162 -226.088402 
L 103.137161 -227.693213 
L 104.809161 -227.930398 
L 106.48116 -226.328503 
L 108.15316 -224.033528 
L 109.825159 -222.051227 
L 111.497159 -221.707881 
L 113.169158 -223.360437 
L 114.841158 -226.128642 
L 116.513157 -228.723622 
L 118.185157 -229.985224 
L 119.857157 -230.466237 
L 121.529156 -230.499842 
L 123.201156 -230.972695 
L 124.873155 -232.091865 
L 126.545155 -233.169693 
L 128.217154 -233.799589 
L 129.889154 -233.118676 
L 131.561153 -231.613866 
L 133.233153 -229.448189 
L 134.905152 -227.509057 
L 136.577152 -226.795823 
L 138.249151 -227.530517 
L 139.921151 -229.624892 
L 141.59315 -232.331439 
L 143.26515 -235.459358 
L 144.937149 -238.479372 
L 146.609149 -241.554363 
L 148.281148 -244.40372 
L 149.953148 -246.654917 
L 151.625147 -247.751025 
L 153.297147 -247.74585 
L 154.969146 -247.57135 
L 156.641146 -248.024288 
L 158.313145 -249.542029 
L 159.985145 -252.28781 
L 161.657144 -255.714805 
L 163.329144 -258.849504 
L 165.001143 -260.047353 
L 166.673143 -257.835361 
L 168.345142 -251.915896 
L 170.017142 -242.098972 
L 171.689141 -229.718355 
L 173.361141 -216.096058 
L 175.03314 -202.473463 
L 176.70514 -190.020538 
L 178.377139 -178.839671 
L 180.049139 -168.971062 
L 181.721138 -159.34454 
L 183.393138 -150.660158 
L 185.065137 -144.124462 
L 186.737137 -141.998769 
L 188.409137 -146.526345 
L 190.081136 -158.635075 
L 191.753136 -176.843618 
L 193.425135 -198.420193 
L 195.097135 -220.533834 
L 196.769134 -240.810191 
L 198.441134 -258.971808 
L 200.113133 -275.208879 
L 201.785133 -288.833396 
L 203.457132 -298.089936 
L 205.129132 -301.700963 
L 206.801131 -299.277979 
L 208.473131 -291.600643 
L 210.14513 -281.539721 
L 211.81713 -271.773827 
L 213.489129 -263.591672 
L 215.161129 -255.676772 
L 216.833128 -247.07264 
L 218.505128 -236.674256 
L 220.177127 -224.983654 
L 221.849127 -213.480461 
L 223.521126 -203.521485 
L 225.193126 -194.998934 
L 226.865125 -186.286609 
L 228.537125 -177.169763 
L 230.209124 -166.599677 
L 231.881124 -156.586926 
L 233.553123 -149.172139 
L 235.225123 -145.225556 
L 236.897122 -145.865455 
L 238.569122 -148.242352 
L 240.241121 -151.157319 
L 241.913121 -152.866755 
L 243.58512 -153.752676 
L 245.25712 -154.875572 
L 246.929119 -156.856979 
L 248.601119 -159.384871 
L 250.273118 -162.116742 
L 251.945118 -164.362864 
L 253.617117 -166.872496 
L 255.289117 -170.823202 
L 256.961116 -177.140611 
L 258.633116 -185.533628 
L 260.305116 -194.492715 
L 261.977115 -202.373572 
L 263.649115 -207.835014 
L 265.321114 -210.35601 
L 266.993114 -210.645313 
L 268.665113 -209.693016 
L 270.337113 -208.206076 
L 272.009112 -207.171926 
L 273.681112 -206.260245 
L 275.353111 -204.962917 
L 277.025111 -204.321809 
L 278.69711 -203.839365 
L 280.36911 -204.022627 
L 282.041109 -204.693838 
L 283.713109 -205.655431 
L 285.385108 -206.559736 
L 287.057108 -207.485933 
L 288.729107 -207.851313 
L 290.401107 -207.488907 
L 292.073106 -205.446237 
L 293.745106 -201.09531 
L 295.417105 -195.426147 
L 297.089105 -188.785891 
L 298.761104 -182.124888 
L 300.433104 -176.387667 
L 302.105103 -172.901288 
L 303.777103 -171.838957 
L 305.449102 -173.169787 
L 307.121102 -177.269006 
L 308.793101 -181.971513 
L 310.465101 -186.947806 
L 312.1371 -190.743831 
L 313.8091 -193.219795 
L 315.481099 -195.026244 
L 317.153099 -197.981973 
L 318.825098 -202.635708 
L 320.497098 -209.935886 
L 322.169097 -218.525927 
L 323.841097 -227.217121 
L 325.513096 -234.724148 
L 327.185096 -240.966763 
L 328.857096 -246.646976 
L 330.529095 -251.909632 
L 332.201095 -256.977693 
L 333.873094 -261.1102 
L 335.545094 -263.32151 
L 337.217093 -263.472188 
L 338.889093 -261.694449 
L 340.561092 -259.963505 
L 342.233092 -259.87524 
L 343.905091 -262.547803 
L 345.577091 -267.200356 
L 347.24909 -272.056282 
L 348.92109 -275.703459 
L 350.593089 -277.281094 
L 352.265089 -277.293694 
L 353.937088 -276.967945 
L 355.609088 -277.802208 
L 357.281087 -280.235249 
L 358.953087 -284.273051 
L 360.625086 -289.305705 
L 362.297086 -294.426078 
L 363.969085 -299.080719 
L 365.641085 -303.262872 
L 367.313084 -307.346589 
L 368.985084 -310.745354 
L 370.657083 -313.58148 
L 372.329083 -315.856979 
L 374.001082 -318.287067 
L 375.673082 -320.70641 
L 377.345081 -323.842377 
L 379.017081 -328.671147 
L 380.68908 -334.475948 
L 382.36108 -340.051065 
L 384.033079 -344.448119 
L 385.705079 -347.124999 
L 387.377078 -348.875777 
L 389.049078 -350.43838 
L 390.721077 -352.838938 
L 392.393077 -356.957279 
L 394.065076 -361.331111 
L 395.737076 -365.141385 
L 397.409076 -367.846513 
L 399.081075 -368.521331 
L 400.753075 -366.98043 
L 402.425074 -363.704377 
L 404.097074 -359.589108 
L 405.769073 -355.694244 
L 407.441073 -352.930872 
L 409.113072 -352.819898 
L 410.785072 -355.021928 
L 412.457071 -359.222246 
L 414.129071 -363.58198 
L 415.80107 -367.542958 
L 417.47307 -369.906462 
L 419.145069 -371.285519 
L 420.817069 -372.265741 
L 422.489068 -373.554305 
L 424.161068 -375.893821 
L 425.833067 -378.825612 
L 427.505067 -381.383589 
L 429.177066 -383.501457 
L 430.849066 -385.533272 
L 432.521065 -387.439001 
L 434.193065 -389.434793 
L 435.865064 -391.237892 
L 437.537064 -391.095628 
L 439.209063 -388.661459 
L 440.881063 -384.700186 
L 442.553062 -381.798333 
L 444.225062 -380.82011 
L 445.897061 -382.607257 
L 447.569061 -385.188917 
L 449.24106 -386.699541 
L 450.91306 -385.829633 
L 452.585059 -382.067109 
L 454.257059 -377.465462 
L 455.929058 -374.190873 
L 457.601058 -373.883701 
L 459.273057 -375.476562 
L 460.945057 -377.114534 
L 462.617056 -377.639353 
L 464.289056 -375.379924 
L 465.961055 -371.509617 
L 467.633055 -367.1177 
L 469.305055 -362.946497 
L 470.977054 -359.291135 
L 472.649054 -356.611612 
L 474.321053 -354.681856 
L 475.993053 -354.120717 
L 477.665052 -355.355666 
L 479.337052 -357.47524 
L 481.009051 -359.693927 
L 482.681051 -360.466701 
L 484.35305 -358.740632 
L 486.02505 -355.65661 
L 487.697049 -352.608092 
L 489.369049 -351.099985 
L 491.041048 -351.544545 
L 492.713048 -353.399349 
L 494.385047 -355.115941 
L 496.057047 -355.68638 
L 497.729046 -354.715474 
L 499.401046 -352.722933 
L 501.073045 -351.446787 
L 502.745045 -352.372454 
L 504.417044 -355.404816 
L 506.089044 -358.815173 
L 507.761043 -360.887207 
L 509.433043 -360.596557 
L 511.105042 -357.711486 
L 512.777042 -353.509023 
L 514.449041 -350.344831 
L 516.121041 -349.65493 
L 517.79304 -351.134774 
L 519.46504 -353.439463 
L 521.137039 -355.056191 
L 522.809039 -354.760226 
L 524.481038 -352.622529 
L 526.153038 -349.912928 
L 527.825037 -347.060917 
L 529.497037 -345.136326 
L 531.169036 -344.515534 
L 532.841036 -344.559569 
L 534.513035 -344.569139 
L 536.185035 -344.035474 
L 537.857035 -342.184777 
L 539.529034 -338.726348 
L 541.201034 -334.198445 
L 542.873033 -329.459691 
L 544.545033 -325.472719 
L 546.217032 -323.397518 
L 547.889032 -323.923307 
L 549.561031 -326.390113 
L 551.233031 -328.919356 
L 552.90503 -329.999555 
L 554.57703 -328.3863 
L 556.249029 -324.486455 
L 557.921029 -319.241775 
L 559.593028 -313.939174 
L 561.265028 -309.740937 
L 561.265028 -332.909915 
L 561.265028 -332.909915 
L 559.593028 -336.988494 
L 557.921029 -341.563058 
L 556.249029 -346.00738 
L 554.57703 -349.081386 
L 552.90503 -349.923879 
L 551.233031 -348.590007 
L 549.561031 -345.89239 
L 547.889032 -343.895903 
L 546.217032 -343.581326 
L 544.545033 -345.43236 
L 542.873033 -349.226395 
L 541.201034 -353.770129 
L 539.529034 -357.985148 
L 537.857035 -361.209576 
L 536.185035 -363.56924 
L 534.513035 -364.398056 
L 532.841036 -365.056142 
L 531.169036 -365.627214 
L 529.497037 -366.820407 
L 527.825037 -369.157704 
L 526.153038 -372.240302 
L 524.481038 -375.529861 
L 522.809039 -377.108668 
L 521.137039 -376.751282 
L 519.46504 -374.60224 
L 517.79304 -372.10434 
L 516.121041 -370.772254 
L 514.449041 -371.520475 
L 512.777042 -374.842658 
L 511.105042 -379.135272 
L 509.433043 -382.179202 
L 507.761043 -382.611778 
L 506.089044 -380.385848 
L 504.417044 -376.842665 
L 502.745045 -373.675692 
L 501.073045 -372.615649 
L 499.401046 -373.561653 
L 497.729046 -375.328576 
L 496.057047 -376.771959 
L 494.385047 -376.589539 
L 492.713048 -374.734726 
L 491.041048 -372.931138 
L 489.369049 -372.473007 
L 487.697049 -373.763643 
L 486.02505 -376.226297 
L 484.35305 -378.84442 
L 482.681051 -380.451727 
L 481.009051 -380.313948 
L 479.337052 -379.114648 
L 477.665052 -377.574079 
L 475.993053 -376.689388 
L 474.321053 -377.459549 
L 472.649054 -379.227824 
L 470.977054 -381.961178 
L 469.305055 -385.694306 
L 467.633055 -390.176325 
L 465.961055 -395.010188 
L 464.289056 -399.113139 
L 462.617056 -401.739554 
L 460.945057 -401.819829 
L 459.273057 -400.35167 
L 457.601058 -399.264662 
L 455.929058 -399.592776 
L 454.257059 -402.418777 
L 452.585059 -406.893819 
L 450.91306 -410.348221 
L 449.24106 -411.295037 
L 447.569061 -409.705883 
L 445.897061 -406.613805 
L 444.225062 -404.781258 
L 442.553062 -405.255916 
L 440.881063 -408.053125 
L 439.209063 -411.500453 
L 437.537064 -413.872927 
L 435.865064 -413.881635 
L 434.193065 -412.48782 
L 432.521065 -410.353367 
L 430.849066 -408.453383 
L 429.177066 -406.547288 
L 427.505067 -404.78274 
L 425.833067 -402.337665 
L 424.161068 -399.710636 
L 422.489068 -397.486359 
L 420.817069 -396.129498 
L 419.145069 -395.140974 
L 417.47307 -394.083598 
L 415.80107 -391.482929 
L 414.129071 -387.424438 
L 412.457071 -382.591511 
L 410.785072 -378.644028 
L 409.113072 -376.067272 
L 407.441073 -376.226601 
L 405.769073 -378.932 
L 404.097074 -382.764122 
L 402.425074 -386.573989 
L 400.753075 -389.436502 
L 399.081075 -391.070204 
L 397.409076 -390.857851 
L 395.737076 -388.187229 
L 394.065076 -383.927612 
L 392.393077 -379.338641 
L 390.721077 -376.093236 
L 389.049078 -373.805024 
L 387.377078 -372.095339 
L 385.705079 -370.373867 
L 384.033079 -367.231009 
L 382.36108 -362.241182 
L 380.68908 -356.1822 
L 379.017081 -349.925875 
L 377.345081 -344.792024 
L 375.673082 -341.575116 
L 374.001082 -339.60723 
L 372.329083 -338.212543 
L 370.657083 -336.586244 
L 368.985084 -334.130454 
L 367.313084 -330.552471 
L 365.641085 -326.487931 
L 363.969085 -321.888765 
L 362.297086 -316.856919 
L 360.625086 -312.537151 
L 358.953087 -307.683548 
L 357.281087 -303.541744 
L 355.609088 -300.767007 
L 353.937088 -300.022893 
L 352.265089 -300.038673 
L 350.593089 -299.769909 
L 348.92109 -297.971539 
L 347.24909 -294.879328 
L 345.577091 -290.012731 
L 343.905091 -285.89886 
L 342.233092 -283.47901 
L 340.561092 -283.326171 
L 338.889093 -284.626424 
L 337.217093 -285.905242 
L 335.545094 -285.688444 
L 333.873094 -283.289615 
L 332.201095 -278.927202 
L 330.529095 -273.673909 
L 328.857096 -267.864959 
L 327.185096 -262.537107 
L 325.513096 -256.300105 
L 323.841097 -248.566007 
L 322.169097 -239.737326 
L 320.497098 -231.035354 
L 318.825098 -223.991181 
L 317.153099 -218.349345 
L 315.481099 -215.190216 
L 313.8091 -213.021244 
L 312.1371 -210.769578 
L 310.465101 -207.099904 
L 308.793101 -202.239595 
L 307.121102 -197.138565 
L 305.449102 -193.448573 
L 303.777103 -192.130132 
L 302.105103 -193.196192 
L 300.433104 -197.137785 
L 298.761104 -203.088601 
L 297.089105 -210.294309 
L 295.417105 -217.311888 
L 293.745106 -223.188849 
L 292.073106 -227.959305 
L 290.401107 -231.229232 
L 288.729107 -232.854861 
L 287.057108 -232.638762 
L 285.385108 -231.388484 
L 283.713109 -229.620959 
L 282.041109 -227.95329 
L 280.36911 -226.848432 
L 278.69711 -227.035826 
L 277.025111 -227.697588 
L 275.353111 -228.966367 
L 273.681112 -230.337252 
L 272.009112 -231.725429 
L 270.337113 -232.933601 
L 268.665113 -234.709262 
L 266.993114 -235.625213 
L 265.321114 -235.857828 
L 263.649115 -233.444366 
L 261.977115 -227.87413 
L 260.305116 -219.226553 
L 258.633116 -209.385834 
L 256.961116 -200.644778 
L 255.289117 -193.76288 
L 253.617117 -189.887642 
L 251.945118 -186.951672 
L 250.273118 -184.653298 
L 248.601119 -182.058083 
L 246.929119 -179.353695 
L 245.25712 -177.601846 
L 243.58512 -176.416051 
L 241.913121 -174.998075 
L 240.241121 -172.366979 
L 238.569122 -169.110657 
L 236.897122 -166.093965 
L 235.225123 -165.660063 
L 233.553123 -169.033023 
L 231.881124 -176.756411 
L 230.209124 -187.392769 
L 228.537125 -198.114424 
L 226.865125 -207.745034 
L 225.193126 -216.702231 
L 223.521126 -225.467519 
L 221.849127 -235.862879 
L 220.177127 -246.757183 
L 218.505128 -257.955995 
L 216.833128 -267.754904 
L 215.161129 -276.116539 
L 213.489129 -283.942431 
L 211.81713 -292.299354 
L 210.14513 -301.855307 
L 208.473131 -311.220951 
L 206.801131 -317.801561 
L 205.129132 -319.676006 
L 203.457132 -316.273287 
L 201.785133 -307.36698 
L 200.113133 -294.7635 
L 198.441134 -278.875036 
L 196.769134 -260.318436 
L 195.097135 -239.21407 
L 193.425135 -216.874553 
L 191.753136 -195.006216 
L 190.081136 -176.594575 
L 188.409137 -164.547844 
L 186.737137 -160.113378 
L 185.065137 -161.916427 
L 183.393138 -168.401012 
L 181.721138 -177.183392 
L 180.049139 -186.61225 
L 178.377139 -196.941196 
L 176.70514 -208.398136 
L 175.03314 -220.65065 
L 173.361141 -233.599146 
L 171.689141 -246.464514 
L 170.017142 -257.833288 
L 168.345142 -266.756116 
L 166.673143 -272.396283 
L 165.001143 -274.311793 
L 163.329144 -273.09784 
L 161.657144 -269.703573 
L 159.985145 -265.558193 
L 158.313145 -262.588759 
L 156.641146 -261.125658 
L 154.969146 -260.735648 
L 153.297147 -261.065329 
L 151.625147 -260.829995 
L 149.953148 -259.72202 
L 148.281148 -257.985557 
L 146.609149 -255.546285 
L 144.937149 -252.85234 
L 143.26515 -250.269086 
L 141.59315 -247.437548 
L 139.921151 -244.65224 
L 138.249151 -241.956225 
L 136.577152 -240.35312 
L 134.905152 -240.014349 
L 133.233153 -240.950172 
L 131.561153 -242.687697 
L 129.889154 -243.986065 
L 128.217154 -243.95587 
L 126.545155 -242.6692 
L 124.873155 -240.953443 
L 123.201156 -239.997361 
L 121.529156 -239.571167 
L 119.857157 -239.470943 
L 118.185157 -238.929727 
L 116.513157 -237.754905 
L 114.841158 -236.978751 
L 113.169158 -236.511405 
L 111.497159 -236.484127 
L 109.825159 -237.112241 
L 108.15316 -238.498065 
L 106.48116 -239.862234 
L 104.809161 -240.163554 
L 103.137161 -238.884707 
L 101.465162 -236.042206 
L 99.793162 -233.225332 
L 98.121163 -230.688439 
L 96.449163 -228.853314 
L 94.777164 -227.913304 
L 93.105164 -227.652682 
L 91.433165 -228.129219 
L 89.761165 -229.190422 
L 88.089166 -229.14478 
L 86.417166 -228.072421 
L 84.745167 -225.060369 
L 83.073167 -220.08393 
L 81.401168 -214.617542 
L 79.729168 -210.098789 
L 78.057169 -208.050134 
L 76.385169 -207.757659 
L 74.71317 -208.5535 
L 73.04117 -209.497506 
L 71.369171 -209.745821 
L 69.697171 -209.399974 
L 68.025172 -209.582031 
L 66.353172 -210.828592 
L 64.681173 -213.432561 
L 63.009173 -217.576943 
L 61.337174 -222.465197 
L 59.665174 -227.548141 
L 57.993175 -232.314206 
L 56.321175 -236.395129 
L 54.649176 -238.766123 
L 52.977176 -237.946682 
L 51.305177 -233.319298 
L 49.633177 -225.194759 
L 47.961178 -215.604183 
z
" style="stroke: #1f77b4; stroke-opacity: 0.3"/>
    </defs>
    <g>
     <use xlink:href="#m837d4e4bdd" x="0" y="432" style="fill: #1f77b4; fill-opacity: 0.3; stroke: #1f77b4; stroke-opacity: 0.3"/>
    </g>
   </g>
   <g id="FillBetweenPolyCollection_2">
    <defs>
     <path id="mde510c8463" d="M 47.961178 -210.834243 
L 47.961178 -207.11878 
L 49.633177 -208.688703 
L 51.305177 -209.796201 
L 52.977176 -210.316202 
L 54.649176 -210.550398 
L 56.321175 -210.759914 
L 57.993175 -211.398201 
L 59.665174 -212.514895 
L 61.337174 -213.84614 
L 63.009173 -214.994452 
L 64.681173 -215.81249 
L 66.353172 -216.605652 
L 68.025172 -217.881641 
L 69.697171 -220.125778 
L 71.369171 -223.18246 
L 73.04117 -226.309837 
L 74.71317 -228.249809 
L 76.385169 -228.180103 
L 78.057169 -226.104273 
L 79.729168 -223.027417 
L 81.401168 -220.157091 
L 83.073167 -218.591692 
L 84.745167 -218.481086 
L 86.417166 -219.177712 
L 88.089166 -220.033198 
L 89.761165 -220.494156 
L 91.433165 -220.664119 
L 93.105164 -220.739292 
L 94.777164 -220.939192 
L 96.449163 -221.326319 
L 98.121163 -221.655542 
L 99.793162 -221.784029 
L 101.465162 -221.814194 
L 103.137161 -221.914738 
L 104.809161 -222.091539 
L 106.48116 -222.148794 
L 108.15316 -222.023444 
L 109.825159 -221.686118 
L 111.497159 -221.683194 
L 113.169158 -222.707778 
L 114.841158 -225.137077 
L 116.513157 -228.580754 
L 118.185157 -232.108007 
L 119.857157 -234.635025 
L 121.529156 -235.563012 
L 123.201156 -235.077444 
L 124.873155 -233.987488 
L 126.545155 -232.90387 
L 128.217154 -232.073488 
L 129.889154 -231.455829 
L 131.561153 -230.987957 
L 133.233153 -230.855156 
L 134.905152 -231.83411 
L 136.577152 -234.28339 
L 138.249151 -237.913765 
L 139.921151 -241.849008 
L 141.59315 -244.758363 
L 143.26515 -245.979158 
L 144.937149 -245.821718 
L 146.609149 -245.207268 
L 148.281148 -245.317696 
L 149.953148 -246.505942 
L 151.625147 -248.238799 
L 153.297147 -249.720019 
L 154.969146 -250.195906 
L 156.641146 -249.755003 
L 158.313145 -249.005552 
L 159.985145 -248.642821 
L 161.657144 -248.975828 
L 163.329144 -249.522379 
L 165.001143 -249.226164 
L 166.673143 -247.239064 
L 168.345142 -243.399152 
L 170.017142 -238.228729 
L 171.689141 -232.627936 
L 173.361141 -227.182553 
L 175.03314 -221.887608 
L 176.70514 -215.931589 
L 178.377139 -208.446088 
L 180.049139 -199.178532 
L 181.721138 -188.590354 
L 183.393138 -177.878115 
L 185.065137 -168.715543 
L 186.737137 -163.004646 
L 188.409137 -161.781289 
L 190.081136 -166.167137 
L 191.753136 -176.527172 
L 193.425135 -192.748285 
L 195.097135 -214.098354 
L 196.769134 -238.831844 
L 198.441134 -264.323187 
L 200.113133 -288.026199 
L 201.785133 -307.345465 
L 203.457132 -320.849306 
L 205.129132 -328.195724 
L 206.801131 -329.960321 
L 208.473131 -327.509827 
L 210.14513 -321.975489 
L 211.81713 -313.974988 
L 213.489129 -304.143212 
L 215.161129 -292.87347 
L 216.833128 -280.935974 
L 218.505128 -268.779695 
L 220.177127 -256.761381 
L 221.849127 -245.160132 
L 223.521126 -233.679759 
L 225.193126 -222.17043 
L 226.865125 -210.50518 
L 228.537125 -198.985266 
L 230.209124 -188.079128 
L 231.881124 -178.19377 
L 233.553123 -169.721557 
L 235.225123 -162.788791 
L 236.897122 -157.316309 
L 238.569122 -153.422137 
L 240.241121 -151.011992 
L 241.913121 -149.81439 
L 243.58512 -149.537819 
L 245.25712 -149.743759 
L 246.929119 -150.488235 
L 248.601119 -151.893091 
L 250.273118 -154.299364 
L 251.945118 -157.689402 
L 253.617117 -161.897019 
L 255.289117 -166.366957 
L 256.961116 -170.565324 
L 258.633116 -173.950268 
L 260.305116 -176.343843 
L 261.977115 -177.462466 
L 263.649115 -177.422327 
L 265.321114 -176.114104 
L 266.993114 -174.045836 
L 268.665113 -171.844326 
L 270.337113 -170.592481 
L 272.009112 -170.947876 
L 273.681112 -172.935895 
L 275.353111 -175.861587 
L 277.025111 -178.782121 
L 278.69711 -181.048701 
L 280.36911 -182.493373 
L 282.041109 -183.52536 
L 283.713109 -184.950875 
L 285.385108 -186.980421 
L 287.057108 -189.500868 
L 288.729107 -191.76703 
L 290.401107 -193.425501 
L 292.073106 -194.382708 
L 293.745106 -194.734139 
L 295.417105 -195.088007 
L 297.089105 -195.468075 
L 298.761104 -195.458891 
L 300.433104 -194.80461 
L 302.105103 -193.290172 
L 303.777103 -191.349061 
L 305.449102 -189.907431 
L 307.121102 -189.826017 
L 308.793101 -191.553655 
L 310.465101 -194.7226 
L 312.1371 -198.615898 
L 313.8091 -202.125919 
L 315.481099 -204.687998 
L 317.153099 -206.381889 
L 318.825098 -207.764973 
L 320.497098 -209.319935 
L 322.169097 -211.47802 
L 323.841097 -214.042985 
L 325.513096 -216.608464 
L 327.185096 -218.573409 
L 328.857096 -219.745852 
L 330.529095 -220.073585 
L 332.201095 -220.019287 
L 333.873094 -219.825547 
L 335.545094 -219.863336 
L 337.217093 -220.175194 
L 338.889093 -220.782374 
L 340.561092 -221.721049 
L 342.233092 -222.912959 
L 343.905091 -224.137522 
L 345.577091 -225.167072 
L 347.24909 -225.764265 
L 348.92109 -225.816331 
L 350.593089 -225.611372 
L 352.265089 -225.633217 
L 353.937088 -226.502738 
L 355.609088 -228.637978 
L 357.281087 -232.300999 
L 358.953087 -236.986446 
L 360.625086 -242.139177 
L 362.297086 -247.181508 
L 363.969085 -251.873353 
L 365.641085 -255.983706 
L 367.313084 -259.535585 
L 368.985084 -262.585148 
L 370.657083 -265.280675 
L 372.329083 -267.576907 
L 374.001082 -269.744055 
L 375.673082 -272.016385 
L 377.345081 -274.645508 
L 379.017081 -277.956228 
L 380.68908 -281.908386 
L 382.36108 -286.257315 
L 384.033079 -290.71663 
L 385.705079 -294.850323 
L 387.377078 -298.604561 
L 389.049078 -301.797874 
L 390.721077 -304.29767 
L 392.393077 -306.026582 
L 394.065076 -306.935804 
L 395.737076 -307.188173 
L 397.409076 -307.317367 
L 399.081075 -307.969483 
L 400.753075 -309.537387 
L 402.425074 -311.995854 
L 404.097074 -314.742047 
L 405.769073 -316.698704 
L 407.441073 -317.698897 
L 409.113072 -317.913207 
L 410.785072 -318.131096 
L 412.457071 -319.150769 
L 414.129071 -320.845049 
L 415.80107 -323.063366 
L 417.47307 -324.791065 
L 419.145069 -325.956269 
L 420.817069 -326.890296 
L 422.489068 -328.471894 
L 424.161068 -330.971564 
L 425.833067 -333.934764 
L 427.505067 -336.268994 
L 429.177066 -337.256198 
L 430.849066 -336.616956 
L 432.521065 -335.34588 
L 434.193065 -334.371224 
L 435.865064 -334.54614 
L 437.537064 -335.653031 
L 439.209063 -336.596055 
L 440.881063 -336.51487 
L 442.553062 -335.084479 
L 444.225062 -332.827712 
L 445.897061 -330.658677 
L 447.569061 -329.697115 
L 449.24106 -330.117368 
L 450.91306 -331.6115 
L 452.585059 -333.372863 
L 454.257059 -334.646741 
L 455.929058 -335.044143 
L 457.601058 -334.495949 
L 459.273057 -333.03978 
L 460.945057 -331.17393 
L 462.617056 -329.345304 
L 464.289056 -327.943588 
L 465.961055 -327.188807 
L 467.633055 -326.874614 
L 469.305055 -326.559687 
L 470.977054 -325.987908 
L 472.649054 -325.244589 
L 474.321053 -324.680808 
L 475.993053 -324.814371 
L 477.665052 -325.809273 
L 479.337052 -327.488942 
L 481.009051 -329.223037 
L 482.681051 -330.390559 
L 484.35305 -330.59984 
L 486.02505 -329.936062 
L 487.697049 -328.812537 
L 489.369049 -327.611402 
L 491.041048 -326.745221 
L 492.713048 -326.486007 
L 494.385047 -326.83424 
L 496.057047 -327.670819 
L 497.729046 -328.473043 
L 499.401046 -328.870772 
L 501.073045 -328.640283 
L 502.745045 -327.866145 
L 504.417044 -326.896633 
L 506.089044 -325.972421 
L 507.761043 -325.363723 
L 509.433043 -324.917828 
L 511.105042 -324.273899 
L 512.777042 -323.27846 
L 514.449041 -322.157532 
L 516.121041 -321.317702 
L 517.79304 -321.032761 
L 519.46504 -321.608431 
L 521.137039 -322.696838 
L 522.809039 -323.732851 
L 524.481038 -324.177252 
L 526.153038 -323.782094 
L 527.825037 -322.637711 
L 529.497037 -321.04021 
L 531.169036 -319.302648 
L 532.841036 -317.638559 
L 534.513035 -316.425876 
L 536.185035 -315.798491 
L 537.857035 -315.897238 
L 539.529034 -316.429944 
L 541.201034 -317.096679 
L 542.873033 -317.248799 
L 544.545033 -316.263672 
L 546.217032 -314.418926 
L 547.889032 -312.109438 
L 549.561031 -309.954552 
L 551.233031 -308.856143 
L 552.90503 -308.919073 
L 554.57703 -309.40923 
L 556.249029 -309.490724 
L 557.921029 -308.626757 
L 559.593028 -306.776007 
L 561.265028 -304.745317 
L 561.265028 -310.675325 
L 561.265028 -310.675325 
L 559.593028 -312.738555 
L 557.921029 -314.465131 
L 556.249029 -315.416076 
L 554.57703 -315.478068 
L 552.90503 -315.078718 
L 551.233031 -315.138617 
L 549.561031 -316.219593 
L 547.889032 -318.207937 
L 546.217032 -320.612252 
L 544.545033 -322.552423 
L 542.873033 -323.537644 
L 541.201034 -323.533751 
L 539.529034 -322.96616 
L 537.857035 -322.374862 
L 536.185035 -322.318932 
L 534.513035 -322.886222 
L 532.841036 -324.165713 
L 531.169036 -325.665001 
L 529.497037 -327.483174 
L 527.825037 -329.061657 
L 526.153038 -330.120707 
L 524.481038 -330.42611 
L 522.809039 -329.916338 
L 521.137039 -328.873887 
L 519.46504 -327.806534 
L 517.79304 -327.254351 
L 516.121041 -327.527503 
L 514.449041 -328.557947 
L 512.777042 -329.842914 
L 511.105042 -330.915749 
L 509.433043 -331.506512 
L 507.761043 -332.064933 
L 506.089044 -332.797155 
L 504.417044 -333.693178 
L 502.745045 -334.765341 
L 501.073045 -335.550232 
L 499.401046 -335.660843 
L 497.729046 -335.126019 
L 496.057047 -334.344958 
L 494.385047 -333.516917 
L 492.713048 -333.165196 
L 491.041048 -333.43082 
L 489.369049 -334.265829 
L 487.697049 -335.43875 
L 486.02505 -336.495327 
L 484.35305 -337.051976 
L 482.681051 -336.745019 
L 481.009051 -335.503548 
L 479.337052 -333.772455 
L 477.665052 -332.175735 
L 475.993053 -331.200301 
L 474.321053 -331.191282 
L 472.649054 -331.782313 
L 470.977054 -332.551041 
L 469.305055 -333.155593 
L 467.633055 -333.581329 
L 465.961055 -333.996633 
L 464.289056 -334.792213 
L 462.617056 -336.083624 
L 460.945057 -337.946152 
L 459.273057 -339.78774 
L 457.601058 -341.216683 
L 455.929058 -341.86557 
L 454.257059 -341.458749 
L 452.585059 -340.10049 
L 450.91306 -338.335054 
L 449.24106 -336.759563 
L 447.569061 -336.258328 
L 445.897061 -337.252529 
L 444.225062 -339.374504 
L 442.553062 -341.769526 
L 440.881063 -343.431359 
L 439.209063 -343.635396 
L 437.537064 -342.705377 
L 435.865064 -341.653334 
L 434.193065 -341.481517 
L 432.521065 -342.541368 
L 430.849066 -343.789911 
L 429.177066 -344.333613 
L 427.505067 -343.302488 
L 425.833067 -340.772203 
L 424.161068 -337.863744 
L 422.489068 -335.369053 
L 420.817069 -333.831232 
L 419.145069 -332.827586 
L 417.47307 -331.61454 
L 415.80107 -329.792412 
L 414.129071 -327.539172 
L 412.457071 -325.524679 
L 410.785072 -324.461377 
L 409.113072 -324.190649 
L 407.441073 -324.031255 
L 405.769073 -323.154067 
L 404.097074 -321.254155 
L 402.425074 -318.726443 
L 400.753075 -316.265524 
L 399.081075 -314.667516 
L 397.409076 -313.894703 
L 395.737076 -313.720234 
L 394.065076 -313.47524 
L 392.393077 -312.605656 
L 390.721077 -310.871694 
L 389.049078 -308.281082 
L 387.377078 -305.118223 
L 385.705079 -301.273845 
L 384.033079 -297.159532 
L 382.36108 -292.696781 
L 380.68908 -288.493734 
L 379.017081 -284.636311 
L 377.345081 -281.358962 
L 375.673082 -278.731322 
L 374.001082 -276.410334 
L 372.329083 -274.146236 
L 370.657083 -271.677381 
L 368.985084 -268.904373 
L 367.313084 -265.874877 
L 365.641085 -262.472044 
L 363.969085 -258.466037 
L 362.297086 -253.745917 
L 360.625086 -248.604167 
L 358.953087 -243.398167 
L 357.281087 -238.676456 
L 355.609088 -235.042675 
L 353.937088 -232.802372 
L 352.265089 -231.887857 
L 350.593089 -231.784177 
L 348.92109 -231.878067 
L 347.24909 -231.881706 
L 345.577091 -231.514521 
L 343.905091 -230.604761 
L 342.233092 -229.493589 
L 340.561092 -228.229146 
L 338.889093 -227.068516 
L 337.217093 -226.260202 
L 335.545094 -225.886187 
L 333.873094 -225.836913 
L 332.201095 -226.068583 
L 330.529095 -226.137653 
L 328.857096 -225.836242 
L 327.185096 -224.705394 
L 325.513096 -222.66421 
L 323.841097 -220.087138 
L 322.169097 -217.465003 
L 320.497098 -215.294495 
L 318.825098 -213.75497 
L 317.153099 -212.455374 
L 315.481099 -210.68931 
L 313.8091 -207.980649 
L 312.1371 -204.41423 
L 310.465101 -200.583707 
L 308.793101 -197.528252 
L 307.121102 -195.949331 
L 305.449102 -196.024785 
L 303.777103 -197.576835 
L 302.105103 -199.47771 
L 300.433104 -200.88285 
L 298.761104 -201.462263 
L 297.089105 -201.392486 
L 295.417105 -201.030782 
L 293.745106 -200.711742 
L 292.073106 -200.260328 
L 290.401107 -199.331472 
L 288.729107 -197.669526 
L 287.057108 -195.476809 
L 285.385108 -192.996363 
L 283.713109 -191.10494 
L 282.041109 -189.779418 
L 280.36911 -188.653958 
L 278.69711 -187.10367 
L 277.025111 -184.672054 
L 275.353111 -181.642441 
L 273.681112 -178.578269 
L 272.009112 -176.578492 
L 270.337113 -176.221387 
L 268.665113 -177.434683 
L 266.993114 -179.605857 
L 265.321114 -181.713255 
L 263.649115 -183.061181 
L 261.977115 -183.287223 
L 260.305116 -182.256784 
L 258.633116 -179.902627 
L 256.961116 -176.452234 
L 255.289117 -172.176073 
L 253.617117 -167.566485 
L 251.945118 -163.300246 
L 250.273118 -159.759785 
L 248.601119 -157.453703 
L 246.929119 -156.012649 
L 245.25712 -155.207123 
L 243.58512 -155.014581 
L 241.913121 -155.402023 
L 240.241121 -156.582732 
L 238.569122 -158.979284 
L 236.897122 -162.828125 
L 235.225123 -168.241155 
L 233.553123 -175.263921 
L 231.881124 -183.763666 
L 230.209124 -193.542921 
L 228.537125 -204.377072 
L 226.865125 -215.876298 
L 225.193126 -227.525618 
L 223.521126 -239.10789 
L 221.849127 -250.488245 
L 220.177127 -262.046776 
L 218.505128 -273.923871 
L 216.833128 -286.133409 
L 215.161129 -298.25403 
L 213.489129 -309.597866 
L 211.81713 -319.521628 
L 210.14513 -327.492677 
L 208.473131 -333.08082 
L 206.801131 -335.435329 
L 205.129132 -333.536161 
L 203.457132 -326.289063 
L 201.785133 -312.816083 
L 200.113133 -293.488135 
L 198.441134 -269.681936 
L 196.769134 -244.022838 
L 195.097135 -219.222252 
L 193.425135 -197.790089 
L 191.753136 -181.526355 
L 190.081136 -171.097833 
L 188.409137 -166.762686 
L 186.737137 -168.007391 
L 185.065137 -173.904497 
L 183.393138 -183.01595 
L 181.721138 -193.654471 
L 180.049139 -204.295654 
L 178.377139 -213.505102 
L 176.70514 -220.842125 
L 175.03314 -226.699182 
L 173.361141 -231.895567 
L 171.689141 -237.258715 
L 170.017142 -242.845881 
L 168.345142 -247.954194 
L 166.673143 -251.682154 
L 165.001143 -253.483283 
L 163.329144 -253.66738 
L 161.657144 -253.038053 
L 159.985145 -252.551669 
L 158.313145 -252.884123 
L 156.641146 -253.84393 
L 154.969146 -254.383302 
L 153.297147 -254.025698 
L 151.625147 -252.547019 
L 149.953148 -250.625973 
L 148.281148 -249.312887 
L 146.609149 -249.158573 
L 144.937149 -249.594862 
L 143.26515 -249.729883 
L 141.59315 -248.48284 
L 139.921151 -245.527919 
L 138.249151 -241.720779 
L 136.577152 -237.996439 
L 134.905152 -235.456952 
L 133.233153 -234.383252 
L 131.561153 -234.344336 
L 129.889154 -234.776529 
L 128.217154 -235.367137 
L 126.545155 -236.176181 
L 124.873155 -237.148572 
L 123.201156 -238.15071 
L 121.529156 -238.481354 
L 119.857157 -237.461938 
L 118.185157 -234.88121 
L 116.513157 -231.29983 
L 114.841158 -227.819259 
L 113.169158 -225.351396 
L 111.497159 -224.248014 
L 109.825159 -224.213371 
L 108.15316 -224.622091 
L 106.48116 -224.828139 
L 104.809161 -224.741685 
L 103.137161 -224.526339 
L 101.465162 -224.382178 
L 99.793162 -224.329349 
L 98.121163 -224.094865 
L 96.449163 -223.726917 
L 94.777164 -223.35845 
L 93.105164 -223.060728 
L 91.433165 -222.986839 
L 89.761165 -222.885772 
L 88.089166 -222.455503 
L 86.417166 -221.648196 
L 84.745167 -221.005873 
L 83.073167 -221.221269 
L 81.401168 -222.833408 
L 79.729168 -225.674396 
L 78.057169 -228.854768 
L 76.385169 -231.016514 
L 74.71317 -231.237075 
L 73.04117 -229.527181 
L 71.369171 -226.459498 
L 69.697171 -223.306037 
L 68.025172 -220.915978 
L 66.353172 -219.493443 
L 64.681173 -218.66406 
L 63.009173 -217.813221 
L 61.337174 -216.730973 
L 59.665174 -215.409612 
L 57.993175 -214.285002 
L 56.321175 -213.67647 
L 54.649176 -213.628623 
L 52.977176 -213.650331 
L 51.305177 -213.203113 
L 49.633177 -212.227195 
L 47.961178 -210.834243 
z
" style="stroke: #ff7f0e; stroke-opacity: 0.3"/>
    </defs>
    <g>
     <use xlink:href="#mde510c8463" x="0" y="432" style="fill: #ff7f0e; fill-opacity: 0.3; stroke: #ff7f0e; stroke-opacity: 0.3"/>
    </g>
   </g>
   <g id="line2d_19">
    <path d="M 47.961178 223.377885 
L 49.633177 213.794998 
L 51.305177 205.509848 
L 52.977176 200.607429 
L 54.649176 199.669377 
L 56.321175 201.929068 
L 57.993175 206.050434 
L 63.009173 220.263997 
L 64.681173 223.941349 
L 66.353172 226.329319 
L 68.025172 227.264149 
L 69.697171 227.178103 
L 71.369171 226.929479 
L 73.04117 227.286858 
L 76.385169 229.225192 
L 78.057169 228.883767 
L 79.729168 226.497103 
L 81.401168 222.214766 
L 83.073167 217.083862 
L 84.745167 212.476115 
L 86.417166 209.385083 
L 88.089166 208.027485 
L 89.761165 207.966352 
L 93.105164 208.917605 
L 94.777164 208.814406 
L 96.449163 207.884938 
L 98.121163 206.042312 
L 101.465162 200.743914 
L 103.137161 198.686934 
L 104.809161 198.023601 
L 106.48116 198.928685 
L 109.825159 202.535645 
L 111.497159 203.158453 
L 113.169158 202.339415 
L 116.513157 198.679845 
L 118.185157 197.504666 
L 119.857157 197.118437 
L 121.529156 197.025459 
L 123.201156 196.560728 
L 124.873155 195.447881 
L 126.545155 194.059235 
L 128.217154 193.165665 
L 129.889154 193.419014 
L 131.561153 194.840819 
L 133.233153 196.773476 
L 134.905152 198.227894 
L 136.577152 198.421238 
L 138.249151 197.177781 
L 139.921151 194.858654 
L 148.281148 180.838452 
L 149.953148 178.802105 
L 151.625147 177.725055 
L 153.297147 177.614454 
L 154.969146 177.912464 
L 156.641146 177.67069 
L 158.313145 176.074753 
L 159.985145 172.959985 
L 161.657144 169.065396 
L 163.329144 165.763697 
L 165.001143 164.567036 
L 166.673143 166.647443 
L 168.345142 172.495052 
L 170.017142 181.865682 
L 171.689141 193.867765 
L 175.03314 220.545861 
L 176.70514 232.908484 
L 178.377139 243.992925 
L 181.721138 263.660124 
L 183.393138 272.413354 
L 185.065137 278.966253 
L 186.737137 281.040015 
L 188.409137 276.475475 
L 190.081136 264.482448 
L 191.753136 246.24272 
L 196.769134 181.44686 
L 198.441134 163.08689 
L 200.113133 147.181012 
L 201.785133 134.115753 
L 203.457132 125.047808 
L 205.129132 121.364301 
L 206.801131 123.615492 
L 208.473131 130.713376 
L 211.81713 149.851075 
L 213.489129 158.23952 
L 215.161129 165.938051 
L 216.833128 174.334856 
L 218.505128 184.394463 
L 221.849127 207.170737 
L 223.521126 217.335093 
L 228.537125 244.396346 
L 231.881124 265.291388 
L 233.553123 272.986393 
L 235.225123 276.570321 
L 236.897122 276.153919 
L 238.569122 273.390228 
L 240.241121 270.326481 
L 241.913121 268.183688 
L 245.25712 265.602873 
L 246.929119 263.66452 
L 253.617117 253.59989 
L 255.289117 249.410521 
L 256.961116 242.830807 
L 258.633116 234.084986 
L 260.305116 224.613642 
L 261.977115 216.396183 
L 263.649115 210.919611 
L 265.321114 208.513215 
L 266.993114 208.451107 
L 268.665113 209.558338 
L 272.009112 212.219332 
L 277.025111 215.740718 
L 278.69711 216.39721 
L 280.36911 216.382588 
L 282.041109 215.662913 
L 283.713109 214.435724 
L 285.385108 213.035276 
L 287.057108 211.908136 
L 288.729107 211.560104 
L 290.401107 212.519546 
L 292.073106 215.201038 
L 293.745106 219.713389 
L 295.417105 225.77429 
L 298.761104 239.464194 
L 300.433104 245.145982 
L 302.105103 248.842953 
L 303.777103 249.990005 
L 305.449102 248.468441 
L 307.121102 244.74314 
L 310.465101 234.98735 
L 312.1371 231.223014 
L 313.8091 228.681554 
L 315.481099 226.560447 
L 317.153099 223.504672 
L 318.825098 218.402489 
L 320.497098 211.071466 
L 323.841097 193.724404 
L 325.513096 186.189533 
L 327.185096 179.966638 
L 330.529095 169.160384 
L 332.201095 163.952582 
L 333.873094 159.626476 
L 335.545094 157.210928 
L 337.217093 157.120114 
L 340.561092 160.202415 
L 342.233092 160.068397 
L 343.905091 157.499297 
L 345.577091 153.062523 
L 347.24909 148.302676 
L 348.92109 144.775725 
L 350.593089 143.183436 
L 352.265089 143.076763 
L 353.937088 143.197378 
L 355.609088 142.289767 
L 357.281087 139.71996 
L 358.953087 135.67081 
L 363.969085 121.059439 
L 365.641085 116.614768 
L 367.313084 112.544679 
L 368.985084 109.044248 
L 370.657083 106.346001 
L 372.329083 104.451039 
L 374.001082 102.88073 
L 375.673082 100.769828 
L 377.345081 97.288236 
L 379.017081 92.17836 
L 382.36108 80.031855 
L 384.033079 75.346028 
L 385.705079 72.418754 
L 387.377078 70.768378 
L 389.049078 69.277848 
L 390.721077 66.890614 
L 392.393077 63.240317 
L 394.065076 58.834319 
L 395.737076 54.762662 
L 397.409076 52.124599 
L 399.081075 51.572945 
L 400.753075 53.169364 
L 402.425074 56.424213 
L 405.769073 64.303852 
L 407.441073 66.764563 
L 409.113072 67.018458 
L 410.785072 64.808827 
L 412.457071 60.718321 
L 414.129071 55.989813 
L 415.80107 51.980539 
L 417.47307 49.453377 
L 419.145069 48.230088 
L 420.817069 47.426788 
L 422.489068 46.110274 
L 424.161068 43.953247 
L 427.505067 38.823811 
L 429.177066 36.76754 
L 430.849066 34.904054 
L 434.193065 30.680822 
L 435.865064 29.181094 
L 437.537064 29.386094 
L 439.209063 31.667677 
L 440.881063 35.173984 
L 442.553062 38.106666 
L 444.225062 38.857485 
L 445.897061 37.148687 
L 447.569061 34.367124 
L 449.24106 32.727869 
L 450.91306 33.780937 
L 452.585059 37.377225 
L 454.257059 41.756757 
L 455.929058 44.766271 
L 457.601058 45.273607 
L 459.273057 43.819467 
L 460.945057 42.167224 
L 462.617056 42.071445 
L 464.289056 44.283577 
L 465.961055 48.324752 
L 469.305055 57.525484 
L 470.977054 61.205864 
L 472.649054 63.995049 
L 474.321053 65.763166 
L 475.993053 66.268758 
L 477.665052 65.409372 
L 481.009051 61.939464 
L 482.681051 61.549316 
L 484.35305 63.035461 
L 487.697049 68.811464 
L 489.369049 70.31521 
L 491.041048 69.807353 
L 494.385047 66.094408 
L 496.057047 65.636822 
L 497.729046 66.849463 
L 499.401046 68.781187 
L 501.073045 69.852208 
L 502.745045 68.865906 
L 504.417044 65.888268 
L 506.089044 62.319206 
L 507.761043 60.101454 
L 509.433043 60.579631 
L 511.105042 63.655438 
L 512.777042 67.84168 
L 514.449041 71.098525 
L 516.121041 72.019656 
L 517.79304 70.583033 
L 519.46504 68.037298 
L 521.137039 66.128096 
L 522.809039 66.07007 
L 524.481038 67.993018 
L 527.825037 74.099305 
L 529.497037 76.249581 
L 531.169036 77.289818 
L 534.513035 77.803697 
L 536.185035 78.607885 
L 537.857035 80.535186 
L 539.529034 83.7998 
L 541.201034 88.181962 
L 542.873033 92.900957 
L 544.545033 96.784258 
L 546.217032 98.723608 
L 547.889032 98.254196 
L 549.561031 95.961743 
L 551.233031 93.319773 
L 552.90503 92.025752 
L 554.57703 93.169447 
L 556.249029 96.735263 
L 559.593028 106.813254 
L 561.265028 111.020735 
L 561.265028 111.020735 
" style="fill: none; stroke: #1f77b4; stroke-width: 1.5; stroke-linecap: square"/>
   </g>
   <g id="line2d_20">
    <path d="M 47.961178 223.040326 
L 49.633177 221.541743 
L 51.305177 220.482225 
L 52.977176 220.017392 
L 56.321175 219.762846 
L 57.993175 219.146627 
L 59.665174 218.031136 
L 61.337174 216.714192 
L 63.009173 215.58179 
L 66.353172 213.970413 
L 68.025172 212.612853 
L 69.697171 210.2808 
L 73.04117 204.086971 
L 74.71317 202.234774 
L 76.385169 202.391341 
L 78.057169 204.499556 
L 79.729168 207.625263 
L 81.401168 210.473469 
L 83.073167 212.080926 
L 84.745167 212.27117 
L 86.417166 211.577507 
L 88.089166 210.755915 
L 89.761165 210.283506 
L 94.777164 209.832614 
L 98.121163 209.11015 
L 101.465162 208.90104 
L 106.48116 208.5156 
L 108.15316 208.685283 
L 109.825159 209.022777 
L 111.497159 209.004958 
L 113.169158 207.956182 
L 114.841158 205.529403 
L 118.185157 198.536009 
L 119.857157 195.992936 
L 121.529156 195.001221 
L 123.201156 195.365562 
L 126.545155 197.431518 
L 128.217154 198.218647 
L 129.889154 198.841582 
L 131.561153 199.334131 
L 133.233153 199.369678 
L 134.905152 198.344781 
L 136.577152 195.857477 
L 139.921151 188.292953 
L 141.59315 185.381349 
L 143.26515 184.120566 
L 144.937149 184.24969 
L 146.609149 184.763365 
L 148.281148 184.601422 
L 149.953148 183.364556 
L 151.625147 181.521814 
L 153.297147 180.015491 
L 154.969146 179.548371 
L 156.641146 180.086257 
L 158.313145 180.938335 
L 159.985145 181.307248 
L 161.657144 180.934659 
L 163.329144 180.355032 
L 165.001143 180.593232 
L 166.673143 182.522315 
L 168.345142 186.332727 
L 170.017142 191.46516 
L 173.361141 202.419028 
L 175.03314 207.733123 
L 176.70514 213.677219 
L 178.377139 221.093954 
L 180.049139 230.344287 
L 183.393138 251.648392 
L 185.065137 260.736295 
L 186.737137 266.541533 
L 188.409137 267.7173 
L 190.081136 263.354925 
L 191.753136 252.998195 
L 193.425135 236.735745 
L 195.097135 215.385539 
L 200.113133 141.231096 
L 201.785133 121.853438 
L 203.457132 108.360638 
L 205.129132 101.039042 
L 206.801131 99.178625 
L 208.473131 101.600557 
L 210.14513 107.20318 
L 211.81713 115.21234 
L 213.489129 125.094406 
L 215.161129 136.3544 
L 221.849127 184.188752 
L 230.209124 241.145625 
L 231.881124 250.99187 
L 233.553123 259.50513 
L 235.225123 266.516607 
L 236.897122 271.945076 
L 238.569122 275.785485 
L 240.241121 278.158846 
L 241.913121 279.333789 
L 243.58512 279.667852 
L 245.25712 279.442036 
L 246.929119 278.705843 
L 248.601119 277.271507 
L 250.273118 274.876847 
L 251.945118 271.433982 
L 256.961116 258.423059 
L 258.633116 254.997867 
L 260.305116 252.662774 
L 261.977115 251.561373 
L 263.649115 251.742674 
L 265.321114 253.088169 
L 268.665113 257.307338 
L 270.337113 258.535952 
L 272.009112 258.213385 
L 273.681112 256.272233 
L 277.025111 250.299033 
L 278.69711 247.967506 
L 280.36911 246.476143 
L 282.041109 245.373255 
L 283.713109 244.008392 
L 285.385108 242.024821 
L 288.729107 237.302203 
L 290.401107 235.63044 
L 292.073106 234.707722 
L 295.417105 233.904372 
L 297.089105 233.56182 
L 298.761104 233.495406 
L 300.433104 234.126331 
L 302.105103 235.599537 
L 303.777103 237.511959 
L 305.449102 238.989829 
L 307.121102 239.126818 
L 308.793101 237.477012 
L 310.465101 234.309567 
L 312.1371 230.47153 
L 313.8091 226.93448 
L 315.481099 224.304341 
L 317.153099 222.569586 
L 318.825098 221.22159 
L 320.497098 219.639636 
L 322.169097 217.482183 
L 325.513096 212.307527 
L 327.185096 210.306092 
L 328.857096 209.172528 
L 330.529095 208.842173 
L 335.545094 209.177404 
L 337.217093 208.794645 
L 338.889093 208.047149 
L 340.561092 207.006849 
L 343.905091 204.607035 
L 345.577091 203.666583 
L 347.24909 203.172689 
L 348.92109 203.151892 
L 350.593089 203.349576 
L 352.265089 203.271507 
L 353.937088 202.330338 
L 355.609088 200.093072 
L 357.281087 196.479375 
L 358.953087 191.795166 
L 362.297086 181.475661 
L 363.969085 176.807999 
L 365.641085 172.745729 
L 367.313084 169.240154 
L 368.985084 166.184297 
L 370.657083 163.49266 
L 374.001082 158.883416 
L 375.673082 156.603797 
L 377.345081 153.958857 
L 379.017081 150.710751 
L 380.68908 146.832786 
L 385.705079 133.981176 
L 387.377078 130.242826 
L 389.049078 127.034184 
L 390.721077 124.464655 
L 392.393077 122.685955 
L 394.065076 121.767824 
L 395.737076 121.514601 
L 397.409076 121.398866 
L 399.081075 120.742059 
L 400.753075 119.11118 
L 404.097074 114.010156 
L 405.769073 112.037491 
L 407.441073 111.112075 
L 410.785072 110.668576 
L 412.457071 109.659172 
L 414.129071 107.799277 
L 415.80107 105.626713 
L 417.47307 103.835118 
L 419.145069 102.663338 
L 420.817069 101.678694 
L 422.489068 100.142611 
L 424.161068 97.686523 
L 425.833067 94.734341 
L 427.505067 92.302887 
L 429.177066 91.308065 
L 430.849066 91.874152 
L 432.521065 93.20859 
L 434.193065 94.144607 
L 435.865064 93.960307 
L 439.209063 91.899681 
L 440.881063 91.995994 
L 442.553062 93.498218 
L 444.225062 95.840857 
L 445.897061 97.956543 
L 447.569061 98.926165 
L 449.24106 98.46867 
L 450.91306 96.977634 
L 452.585059 95.217695 
L 454.257059 93.924048 
L 455.929058 93.539497 
L 457.601058 94.165259 
L 459.273057 95.607879 
L 462.617056 99.287185 
L 464.289056 100.655266 
L 465.961055 101.439065 
L 469.305055 102.145562 
L 470.977054 102.709391 
L 472.649054 103.463395 
L 474.321053 104.032733 
L 475.993053 103.942464 
L 477.665052 102.971164 
L 481.009051 99.584154 
L 482.681051 98.367657 
L 484.35305 98.059372 
L 486.02505 98.644093 
L 489.369049 100.987629 
L 491.041048 101.839522 
L 492.713048 102.083572 
L 494.385047 101.703049 
L 497.729046 100.116558 
L 499.401046 99.710846 
L 501.073045 99.928436 
L 502.745045 100.705062 
L 506.089044 102.617717 
L 507.761043 103.242355 
L 509.433043 103.733723 
L 511.105042 104.390097 
L 512.777042 105.382538 
L 514.449041 106.563131 
L 516.121041 107.505537 
L 517.79304 107.779475 
L 519.46504 107.246855 
L 522.809039 105.144059 
L 524.481038 104.65508 
L 526.153038 104.990471 
L 527.825037 106.094566 
L 529.497037 107.698261 
L 532.841036 111.097421 
L 534.513035 112.320453 
L 536.185035 112.92984 
L 537.857035 112.865341 
L 541.201034 111.723697 
L 542.873033 111.700534 
L 544.545033 112.657187 
L 546.217032 114.574077 
L 547.889032 116.924213 
L 549.561031 118.927923 
L 551.233031 119.982981 
L 552.90503 120.035378 
L 554.57703 119.637189 
L 556.249029 119.607461 
L 557.921029 120.513863 
L 559.593028 122.288372 
L 561.265028 124.296762 
L 561.265028 124.296762 
" style="fill: none; stroke: #ff7f0e; stroke-width: 1.5; stroke-linecap: square"/>
   </g>
  </g>
  <g id="axes_2">
   <g id="PathCollection_1">
    <defs>
     <path id="C0_0_49d0e5a56e" d="M 0 1.118034 
C 0.296506 1.118034 0.580908 1.000231 0.790569 0.790569 
C 1.000231 0.580908 1.118034 0.296506 1.118034 -0 
C 1.118034 -0.296506 1.000231 -0.580908 0.790569 -0.790569 
C 0.580908 -1.000231 0.296506 -1.118034 0 -1.118034 
C -0.296506 -1.118034 -0.580908 -1.000231 -0.790569 -0.790569 
C -1.000231 -0.580908 -1.118034 -0.296506 -1.118034 0 
C -1.118034 0.296506 -1.000231 0.580908 -0.790569 0.790569 
C -0.580908 1.000231 -0.296506 1.118034 0 1.118034 
z
"/>
    </defs>
    <g clip-path="url(#p4befe4df68)">
     <use xlink:href="#C0_0_49d0e5a56e" x="483.618697" y="47.306771" style="stroke: #000000"/>
    </g>
    <g clip-path="url(#p4befe4df68)">
     <use xlink:href="#C0_0_49d0e5a56e" x="493.76288" y="47.294419" style="stroke: #000000"/>
    </g>
   </g>
   <g id="matplotlib.axis_3"/>
   <g id="matplotlib.axis_4"/>
   <g id="line2d_21">
    <path d="M 548.861908 73.635719 
L 548.784248 71.164526 
L 548.551573 68.703086 
L 548.164802 66.261113 
L 547.625462 63.848244 
L 546.935681 61.474002 
L 546.098181 59.147756 
L 545.116268 56.878688 
L 543.993816 54.675752 
L 542.735255 52.547643 
L 541.345553 50.502758 
L 539.830194 48.549169 
L 538.195158 46.694585 
L 536.446899 44.946325 
L 534.592314 43.311289 
L 532.638725 41.79593 
L 530.593841 40.406228 
L 528.465731 39.147667 
L 526.262795 38.025216 
L 523.993727 37.043302 
L 521.667482 36.205802 
L 519.293239 35.516021 
L 516.88037 34.976681 
L 514.438397 34.58991 
L 511.976957 34.357236 
L 509.505764 34.279575 
L 507.034572 34.357236 
L 504.573132 34.58991 
L 502.131159 34.976681 
L 499.71829 35.516021 
L 497.344047 36.205802 
L 495.017802 37.043302 
L 492.748734 38.025216 
L 490.545798 39.147667 
L 488.417688 40.406228 
L 486.372804 41.79593 
L 484.419214 43.311289 
L 482.56463 44.946325 
L 480.816371 46.694585 
L 479.181335 48.549169 
L 477.665976 50.502758 
L 476.276273 52.547643 
L 475.017713 54.675752 
L 473.895261 56.878688 
L 472.913348 59.147756 
L 472.075848 61.474002 
L 471.386067 63.848244 
L 470.846726 66.261113 
L 470.459956 68.703086 
L 470.227281 71.164526 
L 470.149621 73.635719 
L 470.227281 76.106912 
L 470.459956 78.568352 
L 470.846726 81.010325 
L 471.386067 83.423194 
L 472.075848 85.797436 
L 472.913348 88.123682 
L 473.895261 90.39275 
L 475.017713 92.595686 
L 476.276273 94.723795 
L 477.665976 96.76868 
L 479.181335 98.722269 
L 480.816371 100.576853 
L 482.56463 102.325113 
L 484.419214 103.960149 
L 486.372804 105.475508 
L 488.417688 106.86521 
L 490.545798 108.12377 
L 492.748734 109.246222 
L 495.017802 110.228136 
L 497.344047 111.065636 
L 499.71829 111.755417 
L 502.131159 112.294757 
L 504.573132 112.681527 
L 507.034572 112.914202 
L 509.505764 112.991862 
L 511.976957 112.914202 
L 514.438397 112.681527 
L 516.88037 112.294757 
L 519.293239 111.755417 
L 521.667482 111.065636 
L 523.993727 110.228136 
L 526.262795 109.246222 
L 528.465731 108.12377 
L 530.593841 106.86521 
L 532.638725 105.475508 
L 534.592314 103.960149 
L 536.446899 102.325113 
L 538.195158 100.576853 
L 539.830194 98.722269 
L 541.345553 96.76868 
L 542.735255 94.723795 
L 543.993816 92.595686 
L 545.116268 90.39275 
L 546.098181 88.123682 
L 546.935681 85.797436 
L 547.625462 83.423194 
L 548.164802 81.010325 
L 548.551573 78.568352 
L 548.784248 76.106912 
L 548.861908 73.635719 
" style="fill: none; stroke: #000000; stroke-linecap: square"/>
   </g>
   <g id="line2d_22">
    <path d="M 501.263033 35.152431 
L 509.505764 28.376154 
L 517.748496 35.152431 
" style="fill: none; stroke: #000000; stroke-linecap: square"/>
   </g>
   <g id="line2d_23">
    <path d="M 470.385758 69.267187 
L 469.362498 67.535517 
L 468.7328 67.472547 
L 467.796124 67.763782 
L 466.851576 69.267187 
L 467.001129 74.068636 
L 466.450143 80.971704 
L 467.630828 83.970642 
L 469.362498 84.529499 
L 471.015456 83.073322 
" style="fill: none; stroke: #000000; stroke-linecap: square"/>
   </g>
   <g id="line2d_24">
    <path d="M 548.625771 69.267187 
L 549.649031 67.535517 
L 550.278729 67.472547 
L 551.215405 67.763782 
L 552.159953 69.267187 
L 552.010399 74.068636 
L 552.561385 80.971704 
L 551.380701 83.970642 
L 549.649031 84.529499 
L 547.996073 83.073322 
" style="fill: none; stroke: #000000; stroke-linecap: square"/>
   </g>
  </g>
 </g>
 <defs>
  <clipPath id="p1340e4fed4">
   <rect x="47.961178" y="18.118365" width="513.90577" height="380.525145"/>
  </clipPath>
  <clipPath id="p4befe4df68">
   <rect x="462.144581" y="24.145368" width="94.722366" height="93.077279"/>
  </clipPath>
 </defs>
</svg>
