<?xml version="1.0" encoding="utf-8" standalone="no"?>
<!DOCTYPE svg PUBLIC "-//W3C//DTD SVG 1.1//EN"
  "http://www.w3.org/Graphics/SVG/1.1/DTD/svg11.dtd">
<svg xmlns:xlink="http://www.w3.org/1999/xlink" width="576pt" height="432pt" viewBox="0 0 576 432" xmlns="http://www.w3.org/2000/svg" version="1.1">
 <metadata>
  <rdf:RDF xmlns:dc="http://purl.org/dc/elements/1.1/" xmlns:cc="http://creativecommons.org/ns#" xmlns:rdf="http://www.w3.org/1999/02/22-rdf-syntax-ns#">
   <cc:Work>
    <dc:type rdf:resource="http://purl.org/dc/dcmitype/StillImage"/>
    <dc:date>2025-02-14T14:08:12.378995</dc:date>
    <dc:format>image/svg+xml</dc:format>
    <dc:creator>
     <cc:Agent>
      <dc:title>Matplotlib v3.10.0, https://matplotlib.org/</dc:title>
     </cc:Agent>
    </dc:creator>
   </cc:Work>
  </rdf:RDF>
 </metadata>
 <defs>
  <style type="text/css">*{stroke-linejoin: round; stroke-linecap: butt}</style>
 </defs>
 <g id="figure_1">
  <g id="patch_1">
   <path d="M 0 432 
L 576 432 
L 576 0 
L 0 0 
z
" style="fill: #ffffff"/>
  </g>
  <g id="axes_1">
   <g id="patch_2">
    <path d="M 54.323678 398.64351 
L 572.99976 398.64351 
L 572.99976 18.118365 
L 54.323678 18.118365 
L 54.323678 398.64351 
z
" style="fill: none; opacity: 0"/>
   </g>
   <g id="patch_3">
    <path d="M 54.323678 397.146885 
L 54.323678 19.61499 
" style="fill: none; stroke: #000000; stroke-width: 0.8; stroke-linejoin: miter; stroke-linecap: square"/>
   </g>
   <g id="LineCollection_1">
    <path d="M 317.817885 18.118365 
L 317.817885 398.64351 
" clip-path="url(#pb83788c4ef)" style="fill: none; stroke-dasharray: 3.7,1.6; stroke-dashoffset: 0; stroke: #000000"/>
    <path d="M 404.320216 18.118365 
L 404.320216 398.64351 
" clip-path="url(#pb83788c4ef)" style="fill: none; stroke-dasharray: 3.7,1.6; stroke-dashoffset: 0; stroke: #000000"/>
   </g>
   <g id="matplotlib.axis_1">
    <g id="xtick_1">
     <g id="line2d_1">
      <defs>
       <path id="m8afe562ac2" d="M 0 0 
L 0 3.5 
" style="stroke: #000000; stroke-width: 0.8"/>
      </defs>
      <g>
       <use xlink:href="#m8afe562ac2" x="79.936477" y="398.64351" style="stroke: #000000; stroke-width: 0.8"/>
      </g>
     </g>
     <g id="text_1">
      <!-- −0.20 -->
      <g transform="translate(64.613821 413.241947) scale(0.1 -0.1)">
       <defs>
        <path id="DejaVuSans-2212" d="M 678 2272 
L 4684 2272 
L 4684 1741 
L 678 1741 
L 678 2272 
z
" transform="scale(0.015625)"/>
        <path id="DejaVuSans-30" d="M 2034 4250 
Q 1547 4250 1301 3770 
Q 1056 3291 1056 2328 
Q 1056 1369 1301 889 
Q 1547 409 2034 409 
Q 2525 409 2770 889 
Q 3016 1369 3016 2328 
Q 3016 3291 2770 3770 
Q 2525 4250 2034 4250 
z
M 2034 4750 
Q 2819 4750 3233 4129 
Q 3647 3509 3647 2328 
Q 3647 1150 3233 529 
Q 2819 -91 2034 -91 
Q 1250 -91 836 529 
Q 422 1150 422 2328 
Q 422 3509 836 4129 
Q 1250 4750 2034 4750 
z
" transform="scale(0.015625)"/>
        <path id="DejaVuSans-2e" d="M 684 794 
L 1344 794 
L 1344 0 
L 684 0 
L 684 794 
z
" transform="scale(0.015625)"/>
        <path id="DejaVuSans-32" d="M 1228 531 
L 3431 531 
L 3431 0 
L 469 0 
L 469 531 
Q 828 903 1448 1529 
Q 2069 2156 2228 2338 
Q 2531 2678 2651 2914 
Q 2772 3150 2772 3378 
Q 2772 3750 2511 3984 
Q 2250 4219 1831 4219 
Q 1534 4219 1204 4116 
Q 875 4013 500 3803 
L 500 4441 
Q 881 4594 1212 4672 
Q 1544 4750 1819 4750 
Q 2544 4750 2975 4387 
Q 3406 4025 3406 3419 
Q 3406 3131 3298 2873 
Q 3191 2616 2906 2266 
Q 2828 2175 2409 1742 
Q 1991 1309 1228 531 
z
" transform="scale(0.015625)"/>
       </defs>
       <use xlink:href="#DejaVuSans-2212"/>
       <use xlink:href="#DejaVuSans-30" transform="translate(83.789062 0)"/>
       <use xlink:href="#DejaVuSans-2e" transform="translate(147.412109 0)"/>
       <use xlink:href="#DejaVuSans-32" transform="translate(179.199219 0)"/>
       <use xlink:href="#DejaVuSans-30" transform="translate(242.822266 0)"/>
      </g>
     </g>
    </g>
    <g id="xtick_2">
     <g id="line2d_2">
      <g>
       <use xlink:href="#m8afe562ac2" x="166.438807" y="398.64351" style="stroke: #000000; stroke-width: 0.8"/>
      </g>
     </g>
     <g id="text_2">
      <!-- 0.00 -->
      <g transform="translate(155.305995 413.241947) scale(0.1 -0.1)">
       <use xlink:href="#DejaVuSans-30"/>
       <use xlink:href="#DejaVuSans-2e" transform="translate(63.623047 0)"/>
       <use xlink:href="#DejaVuSans-30" transform="translate(95.410156 0)"/>
       <use xlink:href="#DejaVuSans-30" transform="translate(159.033203 0)"/>
      </g>
     </g>
    </g>
    <g id="xtick_3">
     <g id="line2d_3">
      <g>
       <use xlink:href="#m8afe562ac2" x="252.941138" y="398.64351" style="stroke: #000000; stroke-width: 0.8"/>
      </g>
     </g>
     <g id="text_3">
      <!-- 0.20 -->
      <g transform="translate(241.808325 413.241947) scale(0.1 -0.1)">
       <use xlink:href="#DejaVuSans-30"/>
       <use xlink:href="#DejaVuSans-2e" transform="translate(63.623047 0)"/>
       <use xlink:href="#DejaVuSans-32" transform="translate(95.410156 0)"/>
       <use xlink:href="#DejaVuSans-30" transform="translate(159.033203 0)"/>
      </g>
     </g>
    </g>
    <g id="xtick_4">
     <g id="line2d_4">
      <g>
       <use xlink:href="#m8afe562ac2" x="317.817885" y="398.64351" style="stroke: #000000; stroke-width: 0.8"/>
      </g>
     </g>
     <g id="text_4">
      <!-- 0.35 -->
      <g transform="translate(306.685073 413.241947) scale(0.1 -0.1)">
       <defs>
        <path id="DejaVuSans-33" d="M 2597 2516 
Q 3050 2419 3304 2112 
Q 3559 1806 3559 1356 
Q 3559 666 3084 287 
Q 2609 -91 1734 -91 
Q 1441 -91 1130 -33 
Q 819 25 488 141 
L 488 750 
Q 750 597 1062 519 
Q 1375 441 1716 441 
Q 2309 441 2620 675 
Q 2931 909 2931 1356 
Q 2931 1769 2642 2001 
Q 2353 2234 1838 2234 
L 1294 2234 
L 1294 2753 
L 1863 2753 
Q 2328 2753 2575 2939 
Q 2822 3125 2822 3475 
Q 2822 3834 2567 4026 
Q 2313 4219 1838 4219 
Q 1578 4219 1281 4162 
Q 984 4106 628 3988 
L 628 4550 
Q 988 4650 1302 4700 
Q 1616 4750 1894 4750 
Q 2613 4750 3031 4423 
Q 3450 4097 3450 3541 
Q 3450 3153 3228 2886 
Q 3006 2619 2597 2516 
z
" transform="scale(0.015625)"/>
        <path id="DejaVuSans-35" d="M 691 4666 
L 3169 4666 
L 3169 4134 
L 1269 4134 
L 1269 2991 
Q 1406 3038 1543 3061 
Q 1681 3084 1819 3084 
Q 2600 3084 3056 2656 
Q 3513 2228 3513 1497 
Q 3513 744 3044 326 
Q 2575 -91 1722 -91 
Q 1428 -91 1123 -41 
Q 819 9 494 109 
L 494 744 
Q 775 591 1075 516 
Q 1375 441 1709 441 
Q 2250 441 2565 725 
Q 2881 1009 2881 1497 
Q 2881 1984 2565 2268 
Q 2250 2553 1709 2553 
Q 1456 2553 1204 2497 
Q 953 2441 691 2322 
L 691 4666 
z
" transform="scale(0.015625)"/>
       </defs>
       <use xlink:href="#DejaVuSans-30"/>
       <use xlink:href="#DejaVuSans-2e" transform="translate(63.623047 0)"/>
       <use xlink:href="#DejaVuSans-33" transform="translate(95.410156 0)"/>
       <use xlink:href="#DejaVuSans-35" transform="translate(159.033203 0)"/>
      </g>
     </g>
    </g>
    <g id="xtick_5">
     <g id="line2d_5">
      <g>
       <use xlink:href="#m8afe562ac2" x="339.443468" y="398.64351" style="stroke: #000000; stroke-width: 0.8"/>
      </g>
     </g>
     <g id="text_5">
      <!-- 0.40 -->
      <g transform="translate(328.310655 413.241947) scale(0.1 -0.1)">
       <defs>
        <path id="DejaVuSans-34" d="M 2419 4116 
L 825 1625 
L 2419 1625 
L 2419 4116 
z
M 2253 4666 
L 3047 4666 
L 3047 1625 
L 3713 1625 
L 3713 1100 
L 3047 1100 
L 3047 0 
L 2419 0 
L 2419 1100 
L 313 1100 
L 313 1709 
L 2253 4666 
z
" transform="scale(0.015625)"/>
       </defs>
       <use xlink:href="#DejaVuSans-30"/>
       <use xlink:href="#DejaVuSans-2e" transform="translate(63.623047 0)"/>
       <use xlink:href="#DejaVuSans-34" transform="translate(95.410156 0)"/>
       <use xlink:href="#DejaVuSans-30" transform="translate(159.033203 0)"/>
      </g>
     </g>
    </g>
    <g id="xtick_6">
     <g id="line2d_6">
      <g>
       <use xlink:href="#m8afe562ac2" x="404.320216" y="398.64351" style="stroke: #000000; stroke-width: 0.8"/>
      </g>
     </g>
     <g id="text_6">
      <!-- 0.55 -->
      <g transform="translate(393.187403 413.241947) scale(0.1 -0.1)">
       <use xlink:href="#DejaVuSans-30"/>
       <use xlink:href="#DejaVuSans-2e" transform="translate(63.623047 0)"/>
       <use xlink:href="#DejaVuSans-35" transform="translate(95.410156 0)"/>
       <use xlink:href="#DejaVuSans-35" transform="translate(159.033203 0)"/>
      </g>
     </g>
    </g>
    <g id="xtick_7">
     <g id="line2d_7">
      <g>
       <use xlink:href="#m8afe562ac2" x="425.945798" y="398.64351" style="stroke: #000000; stroke-width: 0.8"/>
      </g>
     </g>
     <g id="text_7">
      <!-- 0.60 -->
      <g transform="translate(414.812986 413.241947) scale(0.1 -0.1)">
       <defs>
        <path id="DejaVuSans-36" d="M 2113 2584 
Q 1688 2584 1439 2293 
Q 1191 2003 1191 1497 
Q 1191 994 1439 701 
Q 1688 409 2113 409 
Q 2538 409 2786 701 
Q 3034 994 3034 1497 
Q 3034 2003 2786 2293 
Q 2538 2584 2113 2584 
z
M 3366 4563 
L 3366 3988 
Q 3128 4100 2886 4159 
Q 2644 4219 2406 4219 
Q 1781 4219 1451 3797 
Q 1122 3375 1075 2522 
Q 1259 2794 1537 2939 
Q 1816 3084 2150 3084 
Q 2853 3084 3261 2657 
Q 3669 2231 3669 1497 
Q 3669 778 3244 343 
Q 2819 -91 2113 -91 
Q 1303 -91 875 529 
Q 447 1150 447 2328 
Q 447 3434 972 4092 
Q 1497 4750 2381 4750 
Q 2619 4750 2861 4703 
Q 3103 4656 3366 4563 
z
" transform="scale(0.015625)"/>
       </defs>
       <use xlink:href="#DejaVuSans-30"/>
       <use xlink:href="#DejaVuSans-2e" transform="translate(63.623047 0)"/>
       <use xlink:href="#DejaVuSans-36" transform="translate(95.410156 0)"/>
       <use xlink:href="#DejaVuSans-30" transform="translate(159.033203 0)"/>
      </g>
     </g>
    </g>
    <g id="xtick_8">
     <g id="line2d_8">
      <g>
       <use xlink:href="#m8afe562ac2" x="512.448129" y="398.64351" style="stroke: #000000; stroke-width: 0.8"/>
      </g>
     </g>
     <g id="text_8">
      <!-- 0.80 -->
      <g transform="translate(501.315316 413.241947) scale(0.1 -0.1)">
       <defs>
        <path id="DejaVuSans-38" d="M 2034 2216 
Q 1584 2216 1326 1975 
Q 1069 1734 1069 1313 
Q 1069 891 1326 650 
Q 1584 409 2034 409 
Q 2484 409 2743 651 
Q 3003 894 3003 1313 
Q 3003 1734 2745 1975 
Q 2488 2216 2034 2216 
z
M 1403 2484 
Q 997 2584 770 2862 
Q 544 3141 544 3541 
Q 544 4100 942 4425 
Q 1341 4750 2034 4750 
Q 2731 4750 3128 4425 
Q 3525 4100 3525 3541 
Q 3525 3141 3298 2862 
Q 3072 2584 2669 2484 
Q 3125 2378 3379 2068 
Q 3634 1759 3634 1313 
Q 3634 634 3220 271 
Q 2806 -91 2034 -91 
Q 1263 -91 848 271 
Q 434 634 434 1313 
Q 434 1759 690 2068 
Q 947 2378 1403 2484 
z
M 1172 3481 
Q 1172 3119 1398 2916 
Q 1625 2713 2034 2713 
Q 2441 2713 2670 2916 
Q 2900 3119 2900 3481 
Q 2900 3844 2670 4047 
Q 2441 4250 2034 4250 
Q 1625 4250 1398 4047 
Q 1172 3844 1172 3481 
z
" transform="scale(0.015625)"/>
       </defs>
       <use xlink:href="#DejaVuSans-30"/>
       <use xlink:href="#DejaVuSans-2e" transform="translate(63.623047 0)"/>
       <use xlink:href="#DejaVuSans-38" transform="translate(95.410156 0)"/>
       <use xlink:href="#DejaVuSans-30" transform="translate(159.033203 0)"/>
      </g>
     </g>
    </g>
    <g id="text_9">
     <!-- Time (s) -->
     <g transform="translate(293.332812 426.920073) scale(0.1 -0.1)">
      <defs>
       <path id="DejaVuSans-54" d="M -19 4666 
L 3928 4666 
L 3928 4134 
L 2272 4134 
L 2272 0 
L 1638 0 
L 1638 4134 
L -19 4134 
L -19 4666 
z
" transform="scale(0.015625)"/>
       <path id="DejaVuSans-69" d="M 603 3500 
L 1178 3500 
L 1178 0 
L 603 0 
L 603 3500 
z
M 603 4863 
L 1178 4863 
L 1178 4134 
L 603 4134 
L 603 4863 
z
" transform="scale(0.015625)"/>
       <path id="DejaVuSans-6d" d="M 3328 2828 
Q 3544 3216 3844 3400 
Q 4144 3584 4550 3584 
Q 5097 3584 5394 3201 
Q 5691 2819 5691 2113 
L 5691 0 
L 5113 0 
L 5113 2094 
Q 5113 2597 4934 2840 
Q 4756 3084 4391 3084 
Q 3944 3084 3684 2787 
Q 3425 2491 3425 1978 
L 3425 0 
L 2847 0 
L 2847 2094 
Q 2847 2600 2669 2842 
Q 2491 3084 2119 3084 
Q 1678 3084 1418 2786 
Q 1159 2488 1159 1978 
L 1159 0 
L 581 0 
L 581 3500 
L 1159 3500 
L 1159 2956 
Q 1356 3278 1631 3431 
Q 1906 3584 2284 3584 
Q 2666 3584 2933 3390 
Q 3200 3197 3328 2828 
z
" transform="scale(0.015625)"/>
       <path id="DejaVuSans-65" d="M 3597 1894 
L 3597 1613 
L 953 1613 
Q 991 1019 1311 708 
Q 1631 397 2203 397 
Q 2534 397 2845 478 
Q 3156 559 3463 722 
L 3463 178 
Q 3153 47 2828 -22 
Q 2503 -91 2169 -91 
Q 1331 -91 842 396 
Q 353 884 353 1716 
Q 353 2575 817 3079 
Q 1281 3584 2069 3584 
Q 2775 3584 3186 3129 
Q 3597 2675 3597 1894 
z
M 3022 2063 
Q 3016 2534 2758 2815 
Q 2500 3097 2075 3097 
Q 1594 3097 1305 2825 
Q 1016 2553 972 2059 
L 3022 2063 
z
" transform="scale(0.015625)"/>
       <path id="DejaVuSans-20" transform="scale(0.015625)"/>
       <path id="DejaVuSans-28" d="M 1984 4856 
Q 1566 4138 1362 3434 
Q 1159 2731 1159 2009 
Q 1159 1288 1364 580 
Q 1569 -128 1984 -844 
L 1484 -844 
Q 1016 -109 783 600 
Q 550 1309 550 2009 
Q 550 2706 781 3412 
Q 1013 4119 1484 4856 
L 1984 4856 
z
" transform="scale(0.015625)"/>
       <path id="DejaVuSans-73" d="M 2834 3397 
L 2834 2853 
Q 2591 2978 2328 3040 
Q 2066 3103 1784 3103 
Q 1356 3103 1142 2972 
Q 928 2841 928 2578 
Q 928 2378 1081 2264 
Q 1234 2150 1697 2047 
L 1894 2003 
Q 2506 1872 2764 1633 
Q 3022 1394 3022 966 
Q 3022 478 2636 193 
Q 2250 -91 1575 -91 
Q 1294 -91 989 -36 
Q 684 19 347 128 
L 347 722 
Q 666 556 975 473 
Q 1284 391 1588 391 
Q 1994 391 2212 530 
Q 2431 669 2431 922 
Q 2431 1156 2273 1281 
Q 2116 1406 1581 1522 
L 1381 1569 
Q 847 1681 609 1914 
Q 372 2147 372 2553 
Q 372 3047 722 3315 
Q 1072 3584 1716 3584 
Q 2034 3584 2315 3537 
Q 2597 3491 2834 3397 
z
" transform="scale(0.015625)"/>
       <path id="DejaVuSans-29" d="M 513 4856 
L 1013 4856 
Q 1481 4119 1714 3412 
Q 1947 2706 1947 2009 
Q 1947 1309 1714 600 
Q 1481 -109 1013 -844 
L 513 -844 
Q 928 -128 1133 580 
Q 1338 1288 1338 2009 
Q 1338 2731 1133 3434 
Q 928 4138 513 4856 
z
" transform="scale(0.015625)"/>
      </defs>
      <use xlink:href="#DejaVuSans-54"/>
      <use xlink:href="#DejaVuSans-69" transform="translate(57.958984 0)"/>
      <use xlink:href="#DejaVuSans-6d" transform="translate(85.742188 0)"/>
      <use xlink:href="#DejaVuSans-65" transform="translate(183.154297 0)"/>
      <use xlink:href="#DejaVuSans-20" transform="translate(244.677734 0)"/>
      <use xlink:href="#DejaVuSans-28" transform="translate(276.464844 0)"/>
      <use xlink:href="#DejaVuSans-73" transform="translate(315.478516 0)"/>
      <use xlink:href="#DejaVuSans-29" transform="translate(367.578125 0)"/>
     </g>
    </g>
   </g>
   <g id="matplotlib.axis_2">
    <g id="ytick_1">
     <g id="line2d_9">
      <defs>
       <path id="m3d938b2809" d="M 0 0 
L -3.5 0 
" style="stroke: #000000; stroke-width: 0.8"/>
      </defs>
      <g>
       <use xlink:href="#m3d938b2809" x="54.323678" y="397.146885" style="stroke: #000000; stroke-width: 0.8"/>
      </g>
     </g>
     <g id="text_10">
      <!-- −10.0 -->
      <g transform="translate(16.678365 400.946104) scale(0.1 -0.1)">
       <defs>
        <path id="DejaVuSans-31" d="M 794 531 
L 1825 531 
L 1825 4091 
L 703 3866 
L 703 4441 
L 1819 4666 
L 2450 4666 
L 2450 531 
L 3481 531 
L 3481 0 
L 794 0 
L 794 531 
z
" transform="scale(0.015625)"/>
       </defs>
       <use xlink:href="#DejaVuSans-2212"/>
       <use xlink:href="#DejaVuSans-31" transform="translate(83.789062 0)"/>
       <use xlink:href="#DejaVuSans-30" transform="translate(147.412109 0)"/>
       <use xlink:href="#DejaVuSans-2e" transform="translate(211.035156 0)"/>
       <use xlink:href="#DejaVuSans-30" transform="translate(242.822266 0)"/>
      </g>
     </g>
    </g>
    <g id="ytick_2">
     <g id="line2d_10">
      <g>
       <use xlink:href="#m3d938b2809" x="54.323678" y="349.955398" style="stroke: #000000; stroke-width: 0.8"/>
      </g>
     </g>
     <g id="text_11">
      <!-- −7.5 -->
      <g transform="translate(23.040865 353.754617) scale(0.1 -0.1)">
       <defs>
        <path id="DejaVuSans-37" d="M 525 4666 
L 3525 4666 
L 3525 4397 
L 1831 0 
L 1172 0 
L 2766 4134 
L 525 4134 
L 525 4666 
z
" transform="scale(0.015625)"/>
       </defs>
       <use xlink:href="#DejaVuSans-2212"/>
       <use xlink:href="#DejaVuSans-37" transform="translate(83.789062 0)"/>
       <use xlink:href="#DejaVuSans-2e" transform="translate(147.412109 0)"/>
       <use xlink:href="#DejaVuSans-35" transform="translate(179.199219 0)"/>
      </g>
     </g>
    </g>
    <g id="ytick_3">
     <g id="line2d_11">
      <g>
       <use xlink:href="#m3d938b2809" x="54.323678" y="302.763911" style="stroke: #000000; stroke-width: 0.8"/>
      </g>
     </g>
     <g id="text_12">
      <!-- −5.0 -->
      <g transform="translate(23.040865 306.56313) scale(0.1 -0.1)">
       <use xlink:href="#DejaVuSans-2212"/>
       <use xlink:href="#DejaVuSans-35" transform="translate(83.789062 0)"/>
       <use xlink:href="#DejaVuSans-2e" transform="translate(147.412109 0)"/>
       <use xlink:href="#DejaVuSans-30" transform="translate(179.199219 0)"/>
      </g>
     </g>
    </g>
    <g id="ytick_4">
     <g id="line2d_12">
      <g>
       <use xlink:href="#m3d938b2809" x="54.323678" y="255.572424" style="stroke: #000000; stroke-width: 0.8"/>
      </g>
     </g>
     <g id="text_13">
      <!-- −2.5 -->
      <g transform="translate(23.040865 259.371643) scale(0.1 -0.1)">
       <use xlink:href="#DejaVuSans-2212"/>
       <use xlink:href="#DejaVuSans-32" transform="translate(83.789062 0)"/>
       <use xlink:href="#DejaVuSans-2e" transform="translate(147.412109 0)"/>
       <use xlink:href="#DejaVuSans-35" transform="translate(179.199219 0)"/>
      </g>
     </g>
    </g>
    <g id="ytick_5">
     <g id="line2d_13">
      <g>
       <use xlink:href="#m3d938b2809" x="54.323678" y="208.380937" style="stroke: #000000; stroke-width: 0.8"/>
      </g>
     </g>
     <g id="text_14">
      <!-- 0.0 -->
      <g transform="translate(31.420552 212.180156) scale(0.1 -0.1)">
       <use xlink:href="#DejaVuSans-30"/>
       <use xlink:href="#DejaVuSans-2e" transform="translate(63.623047 0)"/>
       <use xlink:href="#DejaVuSans-30" transform="translate(95.410156 0)"/>
      </g>
     </g>
    </g>
    <g id="ytick_6">
     <g id="line2d_14">
      <g>
       <use xlink:href="#m3d938b2809" x="54.323678" y="161.189451" style="stroke: #000000; stroke-width: 0.8"/>
      </g>
     </g>
     <g id="text_15">
      <!-- 2.5 -->
      <g transform="translate(31.420552 164.988669) scale(0.1 -0.1)">
       <use xlink:href="#DejaVuSans-32"/>
       <use xlink:href="#DejaVuSans-2e" transform="translate(63.623047 0)"/>
       <use xlink:href="#DejaVuSans-35" transform="translate(95.410156 0)"/>
      </g>
     </g>
    </g>
    <g id="ytick_7">
     <g id="line2d_15">
      <g>
       <use xlink:href="#m3d938b2809" x="54.323678" y="113.997964" style="stroke: #000000; stroke-width: 0.8"/>
      </g>
     </g>
     <g id="text_16">
      <!-- 5.0 -->
      <g transform="translate(31.420552 117.797182) scale(0.1 -0.1)">
       <use xlink:href="#DejaVuSans-35"/>
       <use xlink:href="#DejaVuSans-2e" transform="translate(63.623047 0)"/>
       <use xlink:href="#DejaVuSans-30" transform="translate(95.410156 0)"/>
      </g>
     </g>
    </g>
    <g id="ytick_8">
     <g id="line2d_16">
      <g>
       <use xlink:href="#m3d938b2809" x="54.323678" y="66.806477" style="stroke: #000000; stroke-width: 0.8"/>
      </g>
     </g>
     <g id="text_17">
      <!-- 7.5 -->
      <g transform="translate(31.420552 70.605695) scale(0.1 -0.1)">
       <use xlink:href="#DejaVuSans-37"/>
       <use xlink:href="#DejaVuSans-2e" transform="translate(63.623047 0)"/>
       <use xlink:href="#DejaVuSans-35" transform="translate(95.410156 0)"/>
      </g>
     </g>
    </g>
    <g id="ytick_9">
     <g id="line2d_17">
      <g>
       <use xlink:href="#m3d938b2809" x="54.323678" y="19.61499" style="stroke: #000000; stroke-width: 0.8"/>
      </g>
     </g>
     <g id="text_18">
      <!-- 10.0 -->
      <g transform="translate(25.058053 23.414208) scale(0.1 -0.1)">
       <use xlink:href="#DejaVuSans-31"/>
       <use xlink:href="#DejaVuSans-30" transform="translate(63.623047 0)"/>
       <use xlink:href="#DejaVuSans-2e" transform="translate(127.246094 0)"/>
       <use xlink:href="#DejaVuSans-30" transform="translate(159.033203 0)"/>
      </g>
     </g>
    </g>
    <g id="text_19">
     <!-- µV -->
     <g transform="translate(10.598677 214.9825) rotate(-90) scale(0.1 -0.1)">
      <defs>
       <path id="DejaVuSans-b5" d="M 544 -1331 
L 544 3500 
L 1119 3500 
L 1119 1325 
Q 1119 872 1334 640 
Q 1550 409 1972 409 
Q 2434 409 2667 671 
Q 2900 934 2900 1459 
L 2900 3500 
L 3475 3500 
L 3475 806 
Q 3475 619 3529 530 
Q 3584 441 3700 441 
Q 3728 441 3778 458 
Q 3828 475 3916 513 
L 3916 50 
Q 3788 -22 3673 -56 
Q 3559 -91 3450 -91 
Q 3234 -91 3106 31 
Q 2978 153 2931 403 
Q 2775 156 2548 32 
Q 2322 -91 2016 -91 
Q 1697 -91 1473 31 
Q 1250 153 1119 397 
L 1119 -1331 
L 544 -1331 
z
" transform="scale(0.015625)"/>
       <path id="DejaVuSans-56" d="M 1831 0 
L 50 4666 
L 709 4666 
L 2188 738 
L 3669 4666 
L 4325 4666 
L 2547 0 
L 1831 0 
z
" transform="scale(0.015625)"/>
      </defs>
      <use xlink:href="#DejaVuSans-b5"/>
      <use xlink:href="#DejaVuSans-56" transform="translate(63.623047 0)"/>
     </g>
    </g>
   </g>
   <g id="patch_4">
    <path d="M 79.936477 398.64351 
L 512.448129 398.64351 
" style="fill: none; stroke: #000000; stroke-width: 0.8; stroke-linejoin: miter; stroke-linecap: square"/>
   </g>
   <g id="patch_5">
    <path d="M 54.323678 208.380937 
L 572.99976 208.380937 
" style="fill: none; stroke: #000000; stroke-width: 0.8; stroke-linejoin: miter; stroke-linecap: square"/>
   </g>
   <g id="text_20">
    <!-- CPz, CP4, CP3, Pz, P4, P3 (median) -->
    <g transform="translate(209.668594 12.118365) scale(0.12 -0.12)">
     <defs>
      <path id="DejaVuSans-43" d="M 4122 4306 
L 4122 3641 
Q 3803 3938 3442 4084 
Q 3081 4231 2675 4231 
Q 1875 4231 1450 3742 
Q 1025 3253 1025 2328 
Q 1025 1406 1450 917 
Q 1875 428 2675 428 
Q 3081 428 3442 575 
Q 3803 722 4122 1019 
L 4122 359 
Q 3791 134 3420 21 
Q 3050 -91 2638 -91 
Q 1578 -91 968 557 
Q 359 1206 359 2328 
Q 359 3453 968 4101 
Q 1578 4750 2638 4750 
Q 3056 4750 3426 4639 
Q 3797 4528 4122 4306 
z
" transform="scale(0.015625)"/>
      <path id="DejaVuSans-50" d="M 1259 4147 
L 1259 2394 
L 2053 2394 
Q 2494 2394 2734 2622 
Q 2975 2850 2975 3272 
Q 2975 3691 2734 3919 
Q 2494 4147 2053 4147 
L 1259 4147 
z
M 628 4666 
L 2053 4666 
Q 2838 4666 3239 4311 
Q 3641 3956 3641 3272 
Q 3641 2581 3239 2228 
Q 2838 1875 2053 1875 
L 1259 1875 
L 1259 0 
L 628 0 
L 628 4666 
z
" transform="scale(0.015625)"/>
      <path id="DejaVuSans-7a" d="M 353 3500 
L 3084 3500 
L 3084 2975 
L 922 459 
L 3084 459 
L 3084 0 
L 275 0 
L 275 525 
L 2438 3041 
L 353 3041 
L 353 3500 
z
" transform="scale(0.015625)"/>
      <path id="DejaVuSans-2c" d="M 750 794 
L 1409 794 
L 1409 256 
L 897 -744 
L 494 -744 
L 750 256 
L 750 794 
z
" transform="scale(0.015625)"/>
      <path id="DejaVuSans-64" d="M 2906 2969 
L 2906 4863 
L 3481 4863 
L 3481 0 
L 2906 0 
L 2906 525 
Q 2725 213 2448 61 
Q 2172 -91 1784 -91 
Q 1150 -91 751 415 
Q 353 922 353 1747 
Q 353 2572 751 3078 
Q 1150 3584 1784 3584 
Q 2172 3584 2448 3432 
Q 2725 3281 2906 2969 
z
M 947 1747 
Q 947 1113 1208 752 
Q 1469 391 1925 391 
Q 2381 391 2643 752 
Q 2906 1113 2906 1747 
Q 2906 2381 2643 2742 
Q 2381 3103 1925 3103 
Q 1469 3103 1208 2742 
Q 947 2381 947 1747 
z
" transform="scale(0.015625)"/>
      <path id="DejaVuSans-61" d="M 2194 1759 
Q 1497 1759 1228 1600 
Q 959 1441 959 1056 
Q 959 750 1161 570 
Q 1363 391 1709 391 
Q 2188 391 2477 730 
Q 2766 1069 2766 1631 
L 2766 1759 
L 2194 1759 
z
M 3341 1997 
L 3341 0 
L 2766 0 
L 2766 531 
Q 2569 213 2275 61 
Q 1981 -91 1556 -91 
Q 1019 -91 701 211 
Q 384 513 384 1019 
Q 384 1609 779 1909 
Q 1175 2209 1959 2209 
L 2766 2209 
L 2766 2266 
Q 2766 2663 2505 2880 
Q 2244 3097 1772 3097 
Q 1472 3097 1187 3025 
Q 903 2953 641 2809 
L 641 3341 
Q 956 3463 1253 3523 
Q 1550 3584 1831 3584 
Q 2591 3584 2966 3190 
Q 3341 2797 3341 1997 
z
" transform="scale(0.015625)"/>
      <path id="DejaVuSans-6e" d="M 3513 2113 
L 3513 0 
L 2938 0 
L 2938 2094 
Q 2938 2591 2744 2837 
Q 2550 3084 2163 3084 
Q 1697 3084 1428 2787 
Q 1159 2491 1159 1978 
L 1159 0 
L 581 0 
L 581 3500 
L 1159 3500 
L 1159 2956 
Q 1366 3272 1645 3428 
Q 1925 3584 2291 3584 
Q 2894 3584 3203 3211 
Q 3513 2838 3513 2113 
z
" transform="scale(0.015625)"/>
     </defs>
     <use xlink:href="#DejaVuSans-43"/>
     <use xlink:href="#DejaVuSans-50" transform="translate(69.824219 0)"/>
     <use xlink:href="#DejaVuSans-7a" transform="translate(130.126953 0)"/>
     <use xlink:href="#DejaVuSans-2c" transform="translate(182.617188 0)"/>
     <use xlink:href="#DejaVuSans-20" transform="translate(214.404297 0)"/>
     <use xlink:href="#DejaVuSans-43" transform="translate(246.191406 0)"/>
     <use xlink:href="#DejaVuSans-50" transform="translate(316.015625 0)"/>
     <use xlink:href="#DejaVuSans-34" transform="translate(376.318359 0)"/>
     <use xlink:href="#DejaVuSans-2c" transform="translate(439.941406 0)"/>
     <use xlink:href="#DejaVuSans-20" transform="translate(471.728516 0)"/>
     <use xlink:href="#DejaVuSans-43" transform="translate(503.515625 0)"/>
     <use xlink:href="#DejaVuSans-50" transform="translate(573.339844 0)"/>
     <use xlink:href="#DejaVuSans-33" transform="translate(633.642578 0)"/>
     <use xlink:href="#DejaVuSans-2c" transform="translate(697.265625 0)"/>
     <use xlink:href="#DejaVuSans-20" transform="translate(729.052734 0)"/>
     <use xlink:href="#DejaVuSans-50" transform="translate(760.839844 0)"/>
     <use xlink:href="#DejaVuSans-7a" transform="translate(821.142578 0)"/>
     <use xlink:href="#DejaVuSans-2c" transform="translate(873.632812 0)"/>
     <use xlink:href="#DejaVuSans-20" transform="translate(905.419922 0)"/>
     <use xlink:href="#DejaVuSans-50" transform="translate(937.207031 0)"/>
     <use xlink:href="#DejaVuSans-34" transform="translate(997.509766 0)"/>
     <use xlink:href="#DejaVuSans-2c" transform="translate(1061.132812 0)"/>
     <use xlink:href="#DejaVuSans-20" transform="translate(1092.919922 0)"/>
     <use xlink:href="#DejaVuSans-50" transform="translate(1124.707031 0)"/>
     <use xlink:href="#DejaVuSans-33" transform="translate(1185.009766 0)"/>
     <use xlink:href="#DejaVuSans-20" transform="translate(1248.632812 0)"/>
     <use xlink:href="#DejaVuSans-28" transform="translate(1280.419922 0)"/>
     <use xlink:href="#DejaVuSans-6d" transform="translate(1319.433594 0)"/>
     <use xlink:href="#DejaVuSans-65" transform="translate(1416.845703 0)"/>
     <use xlink:href="#DejaVuSans-64" transform="translate(1478.369141 0)"/>
     <use xlink:href="#DejaVuSans-69" transform="translate(1541.845703 0)"/>
     <use xlink:href="#DejaVuSans-61" transform="translate(1569.628906 0)"/>
     <use xlink:href="#DejaVuSans-6e" transform="translate(1630.908203 0)"/>
     <use xlink:href="#DejaVuSans-29" transform="translate(1694.287109 0)"/>
    </g>
   </g>
   <g id="legend_1">
    <g id="patch_6">
     <path d="M 61.323678 55.75274 
L 142.465865 55.75274 
Q 144.465865 55.75274 144.465865 53.75274 
L 144.465865 25.118365 
Q 144.465865 23.118365 142.465865 23.118365 
L 61.323678 23.118365 
Q 59.323678 23.118365 59.323678 25.118365 
L 59.323678 53.75274 
Q 59.323678 55.75274 61.323678 55.75274 
z
" style="fill: #ffffff; opacity: 0.8; stroke: #cccccc; stroke-linejoin: miter"/>
    </g>
    <g id="line2d_18">
     <path d="M 63.323678 31.216803 
L 73.323678 31.216803 
L 83.323678 31.216803 
" style="fill: none; stroke: #1f77b4; stroke-width: 1.5; stroke-linecap: square"/>
    </g>
    <g id="text_21">
     <!-- eerie -->
     <g transform="translate(91.323678 34.716803) scale(0.1 -0.1)">
      <defs>
       <path id="DejaVuSans-72" d="M 2631 2963 
Q 2534 3019 2420 3045 
Q 2306 3072 2169 3072 
Q 1681 3072 1420 2755 
Q 1159 2438 1159 1844 
L 1159 0 
L 581 0 
L 581 3500 
L 1159 3500 
L 1159 2956 
Q 1341 3275 1631 3429 
Q 1922 3584 2338 3584 
Q 2397 3584 2469 3576 
Q 2541 3569 2628 3553 
L 2631 2963 
z
" transform="scale(0.015625)"/>
      </defs>
      <use xlink:href="#DejaVuSans-65"/>
      <use xlink:href="#DejaVuSans-65" transform="translate(61.523438 0)"/>
      <use xlink:href="#DejaVuSans-72" transform="translate(123.046875 0)"/>
      <use xlink:href="#DejaVuSans-69" transform="translate(164.160156 0)"/>
      <use xlink:href="#DejaVuSans-65" transform="translate(191.943359 0)"/>
     </g>
    </g>
    <g id="line2d_19">
     <path d="M 63.323678 45.894928 
L 73.323678 45.894928 
L 83.323678 45.894928 
" style="fill: none; stroke: #ff7f0e; stroke-width: 1.5; stroke-linecap: square"/>
    </g>
    <g id="text_22">
     <!-- non_eerie -->
     <g transform="translate(91.323678 49.394928) scale(0.1 -0.1)">
      <defs>
       <path id="DejaVuSans-6f" d="M 1959 3097 
Q 1497 3097 1228 2736 
Q 959 2375 959 1747 
Q 959 1119 1226 758 
Q 1494 397 1959 397 
Q 2419 397 2687 759 
Q 2956 1122 2956 1747 
Q 2956 2369 2687 2733 
Q 2419 3097 1959 3097 
z
M 1959 3584 
Q 2709 3584 3137 3096 
Q 3566 2609 3566 1747 
Q 3566 888 3137 398 
Q 2709 -91 1959 -91 
Q 1206 -91 779 398 
Q 353 888 353 1747 
Q 353 2609 779 3096 
Q 1206 3584 1959 3584 
z
" transform="scale(0.015625)"/>
       <path id="DejaVuSans-5f" d="M 3263 -1063 
L 3263 -1509 
L -63 -1509 
L -63 -1063 
L 3263 -1063 
z
" transform="scale(0.015625)"/>
      </defs>
      <use xlink:href="#DejaVuSans-6e"/>
      <use xlink:href="#DejaVuSans-6f" transform="translate(63.378906 0)"/>
      <use xlink:href="#DejaVuSans-6e" transform="translate(124.560547 0)"/>
      <use xlink:href="#DejaVuSans-5f" transform="translate(187.939453 0)"/>
      <use xlink:href="#DejaVuSans-65" transform="translate(237.939453 0)"/>
      <use xlink:href="#DejaVuSans-65" transform="translate(299.462891 0)"/>
      <use xlink:href="#DejaVuSans-72" transform="translate(360.986328 0)"/>
      <use xlink:href="#DejaVuSans-69" transform="translate(402.099609 0)"/>
      <use xlink:href="#DejaVuSans-65" transform="translate(429.882812 0)"/>
     </g>
    </g>
   </g>
   <g id="line2d_20">
    <path d="M 54.323678 187.783507 
L 56.013176 183.799486 
L 57.702675 182.610904 
L 59.392173 186.317828 
L 62.771171 202.177001 
L 64.460669 207.853938 
L 66.150168 209.751087 
L 67.839667 210.319915 
L 69.529165 213.580594 
L 71.218664 217.483929 
L 72.908163 221.710845 
L 74.597661 225.142887 
L 76.28716 226.681708 
L 77.976658 226.911435 
L 79.666157 225.696363 
L 81.355656 221.991159 
L 86.424152 212.674186 
L 88.11365 210.826151 
L 89.803149 209.58771 
L 91.492648 207.796281 
L 94.871645 202.573859 
L 98.250642 198.835403 
L 103.319138 192.579083 
L 105.008637 193.085988 
L 106.698135 196.458889 
L 108.387634 200.604935 
L 110.077133 203.004402 
L 111.766631 207.851473 
L 113.45613 210.824933 
L 115.145629 211.265983 
L 116.835127 210.731587 
L 118.524626 209.908486 
L 120.214124 211.461696 
L 121.903623 212.107775 
L 123.593122 211.214293 
L 125.28262 209.816549 
L 126.972119 209.544863 
L 128.661618 211.474391 
L 130.351116 215.305841 
L 132.040615 219.52528 
L 133.730114 222.431765 
L 135.419612 223.222447 
L 137.109111 222.39389 
L 138.79861 221.194199 
L 140.488108 220.602558 
L 142.177607 220.635098 
L 143.867105 220.479142 
L 145.556604 219.270436 
L 147.246103 216.888788 
L 148.935601 213.00565 
L 150.6251 210.739059 
L 152.314599 210.742744 
L 154.004097 212.350147 
L 155.693596 214.349187 
L 157.383095 215.958714 
L 159.072593 217.39782 
L 160.762092 219.562394 
L 162.45159 223.114329 
L 164.141089 227.671225 
L 165.830588 231.758996 
L 167.520086 231.129536 
L 170.899084 224.888001 
L 172.588582 221.042005 
L 174.278081 219.113424 
L 175.96758 221.251463 
L 177.657078 227.75117 
L 179.346577 235.122946 
L 181.036076 240.97071 
L 182.725574 243.809712 
L 184.415073 243.603517 
L 186.104571 241.431126 
L 189.483569 235.835307 
L 192.862566 230.494302 
L 194.552065 228.11744 
L 196.241563 227.141238 
L 197.931062 228.223911 
L 199.620561 232.138154 
L 202.999558 245.030876 
L 204.689056 247.647015 
L 206.378555 246.795533 
L 208.068054 243.879743 
L 209.757552 241.26472 
L 211.447051 238.268892 
L 213.13655 237.110744 
L 214.826048 237.162671 
L 216.515547 235.026388 
L 218.205046 234.02847 
L 219.894544 234.81466 
L 221.584043 237.887208 
L 224.96304 248.498778 
L 226.652539 251.310541 
L 228.342037 249.759173 
L 230.031536 244.148142 
L 231.721035 238.008502 
L 233.410533 242.384697 
L 235.100032 244.222901 
L 236.789531 238.109662 
L 238.479029 227.200296 
L 240.168528 209.895373 
L 243.547525 163.82065 
L 245.237024 145.323189 
L 246.926522 130.554452 
L 248.616021 118.505219 
L 250.30552 103.84876 
L 253.684517 65.444773 
L 255.374016 50.516713 
L 257.063514 42.184613 
L 258.753013 44.010805 
L 260.442512 51.223501 
L 262.13201 59.442078 
L 263.821509 69.664483 
L 265.511008 76.033189 
L 267.200506 76.865278 
L 268.890005 76.028243 
L 270.579503 81.667162 
L 272.269002 95.250949 
L 277.337498 145.484758 
L 280.716495 173.820251 
L 284.095493 194.221923 
L 285.784991 205.067179 
L 287.47449 214.546786 
L 289.163988 220.758872 
L 290.853487 222.725263 
L 292.542986 220.63942 
L 294.232484 214.937087 
L 295.921983 205.158685 
L 300.990479 181.581725 
L 302.679978 172.819341 
L 304.369476 166.146385 
L 306.058975 162.516501 
L 307.748474 157.429333 
L 311.127471 142.406654 
L 312.816969 135.740777 
L 314.506468 132.213284 
L 316.195967 130.242549 
L 317.885465 128.975198 
L 319.574964 127.080347 
L 321.264463 123.482216 
L 322.953961 118.051902 
L 326.332959 105.299869 
L 331.401454 88.25836 
L 334.780452 75.860234 
L 336.46995 71.708234 
L 338.159449 70.568147 
L 339.848948 72.32038 
L 341.538446 75.518034 
L 343.227945 78.167917 
L 344.917444 78.765026 
L 346.606942 76.980248 
L 348.296441 73.58677 
L 349.98594 69.776332 
L 351.675438 66.445542 
L 353.364937 63.841141 
L 356.743934 59.42428 
L 358.433433 56.604125 
L 360.122931 53.022373 
L 361.81243 48.844462 
L 363.501929 43.492354 
L 365.191427 38.575106 
L 366.880926 35.670983 
L 368.570425 34.962865 
L 370.259923 34.884004 
L 371.949422 32.598258 
L 373.63892 28.943898 
L 375.328419 24.436535 
L 377.017918 20.316762 
L 378.707416 18.118365 
L 380.396915 18.773398 
L 382.086414 22.123984 
L 383.775912 27.099315 
L 385.465411 32.42529 
L 387.15491 37.250934 
L 388.844408 41.326831 
L 390.533907 42.862288 
L 392.223406 44.969748 
L 393.912904 47.699952 
L 395.602403 51.028942 
L 397.291901 55.237624 
L 398.9814 60.724194 
L 400.670899 67.311864 
L 402.360397 73.3504 
L 404.049896 74.201697 
L 405.739395 71.572216 
L 407.428893 66.397175 
L 409.118392 60.769195 
L 410.807891 56.895186 
L 412.497389 55.906056 
L 414.186888 56.818633 
L 415.876386 58.586436 
L 417.565885 60.5731 
L 419.255384 59.934382 
L 420.944882 57.639162 
L 424.32388 51.525583 
L 426.013378 49.05444 
L 427.702877 47.577123 
L 429.392376 47.660979 
L 431.081874 49.974885 
L 432.771373 54.837056 
L 434.460872 61.745958 
L 436.15037 69.347787 
L 437.839869 76.043071 
L 439.529367 80.855646 
L 441.218866 84.004199 
L 442.908365 86.71359 
L 444.597863 90.391161 
L 446.287362 95.7504 
L 449.666359 109.354572 
L 451.355858 115.324453 
L 453.045357 119.58298 
L 454.734855 121.785971 
L 456.424354 121.791337 
L 458.113852 119.53344 
L 459.803351 115.228763 
L 463.182348 104.433274 
L 464.871847 101.109662 
L 466.561346 100.708352 
L 468.250844 102.867884 
L 469.940343 105.956032 
L 471.629842 107.980292 
L 473.31934 108.386234 
L 475.008839 107.902158 
L 476.698338 106.006581 
L 478.387836 103.668557 
L 480.077335 101.58347 
L 481.766833 101.815386 
L 483.456332 103.136492 
L 485.145831 103.289068 
L 486.835329 102.033008 
L 488.524828 102.143723 
L 490.214327 106.640707 
L 491.903825 112.526923 
L 493.593324 119.217626 
L 495.282823 126.443547 
L 496.972321 134.380289 
L 498.66182 143.256304 
L 502.040817 162.015973 
L 503.730316 169.807105 
L 505.419814 175.66879 
L 508.798812 184.878138 
L 510.48831 190.498503 
L 512.177809 196.579807 
L 513.867308 201.112746 
L 515.556806 201.740908 
L 517.246305 197.371381 
L 518.935804 189.13075 
L 520.625302 179.91331 
L 522.314801 172.807853 
L 524.004299 169.464582 
L 525.693798 169.518818 
L 527.383297 171.324967 
L 530.762294 175.29109 
L 532.451793 177.670094 
L 534.141291 181.190896 
L 537.520289 189.90047 
L 539.209787 192.659801 
L 540.899286 193.493739 
L 544.278283 192.874475 
L 545.967782 193.433187 
L 547.65728 194.34486 
L 549.346779 194.323198 
L 551.036278 192.42792 
L 552.725776 189.080588 
L 554.415275 186.114584 
L 556.104774 185.700366 
L 557.794272 188.894736 
L 559.483771 194.866706 
L 561.17327 201.699725 
L 562.862768 206.651983 
L 564.552267 208.161277 
L 567.931264 207.046558 
L 569.620763 207.660988 
L 571.310261 207.332176 
L 572.99976 205.836084 
L 572.99976 205.836084 
" style="fill: none; stroke: #1f77b4; stroke-width: 1.5; stroke-linecap: square"/>
   </g>
   <g id="line2d_21">
    <path d="M 54.323678 194.591876 
L 56.013176 192.521585 
L 57.702675 189.059394 
L 59.392173 186.170004 
L 61.081672 185.456311 
L 62.771171 186.254179 
L 64.460669 188.379087 
L 66.150168 190.982425 
L 67.839667 192.348038 
L 69.529165 191.945625 
L 71.218664 192.619854 
L 72.908163 194.183226 
L 76.28716 198.779709 
L 77.976658 198.616787 
L 79.666157 197.460426 
L 81.355656 196.678053 
L 83.045154 197.596281 
L 84.734653 201.625131 
L 88.11365 214.228845 
L 89.803149 218.534088 
L 91.492648 220.786702 
L 93.182146 222.551304 
L 94.871645 225.484109 
L 96.561144 229.76888 
L 98.250642 234.808565 
L 99.940141 238.200187 
L 101.629639 239.563401 
L 103.319138 235.903339 
L 105.008637 229.735756 
L 106.698135 224.992471 
L 108.387634 223.800906 
L 110.077133 224.078215 
L 111.766631 225.832177 
L 113.45613 227.04643 
L 115.145629 226.351153 
L 116.835127 222.128501 
L 118.524626 218.653023 
L 120.214124 216.092268 
L 121.903623 215.205382 
L 123.593122 215.055222 
L 125.28262 214.402265 
L 126.972119 212.278678 
L 128.661618 208.116193 
L 130.351116 204.612215 
L 132.040615 202.341024 
L 133.730114 199.315736 
L 135.419612 199.010529 
L 137.109111 200.433857 
L 138.79861 201.045909 
L 142.177607 200.433232 
L 143.867105 200.769251 
L 150.6251 208.041069 
L 154.004097 214.128004 
L 155.693596 216.103283 
L 157.383095 216.462019 
L 159.072593 215.216728 
L 162.45159 210.816823 
L 164.141089 209.314002 
L 165.830588 208.940372 
L 167.520086 209.113453 
L 169.209585 208.955587 
L 172.588582 207.810964 
L 174.278081 208.014823 
L 175.96758 209.765488 
L 177.657078 215.099393 
L 181.036076 229.399562 
L 182.725574 235.540898 
L 184.415073 239.28905 
L 186.104571 240.040026 
L 187.79407 238.000803 
L 191.173067 230.057057 
L 192.862566 227.255628 
L 194.552065 226.690603 
L 196.241563 228.229498 
L 197.931062 230.75158 
L 199.620561 232.797448 
L 201.310059 233.479497 
L 202.999558 232.992016 
L 204.689056 231.602724 
L 206.378555 228.692943 
L 208.068054 227.583202 
L 209.757552 227.153107 
L 211.447051 225.313753 
L 213.13655 220.5189 
L 214.826048 212.974698 
L 216.515547 210.863009 
L 218.205046 210.29322 
L 219.894544 211.495063 
L 221.584043 213.58556 
L 223.273542 215.407651 
L 226.652539 217.67492 
L 228.342037 219.588873 
L 230.031536 222.053388 
L 231.721035 224.218447 
L 233.410533 231.345533 
L 235.100032 234.196038 
L 236.789531 227.958719 
L 240.168528 192.495535 
L 243.547525 158.353662 
L 245.237024 141.922644 
L 248.616021 119.346203 
L 250.30552 110.064793 
L 251.995018 103.815499 
L 253.684517 95.195345 
L 255.374016 87.726439 
L 257.063514 79.318578 
L 260.442512 60.227 
L 262.13201 56.677517 
L 263.821509 60.389735 
L 265.511008 69.494912 
L 268.890005 92.950983 
L 270.579503 101.636177 
L 273.958501 120.965054 
L 279.026997 154.919409 
L 280.716495 165.180742 
L 282.405994 174.4638 
L 285.784991 191.206908 
L 287.47449 197.537418 
L 289.163988 201.4063 
L 290.853487 202.411318 
L 292.542986 200.825027 
L 294.232484 197.63905 
L 295.921983 194.044661 
L 299.30098 185.028983 
L 302.679978 176.808379 
L 306.058975 164.702102 
L 307.748474 160.220137 
L 311.127471 155.542391 
L 312.816969 152.522496 
L 314.506468 148.302718 
L 316.195967 142.956762 
L 317.885465 137.042703 
L 319.574964 131.952004 
L 321.264463 127.362456 
L 324.64346 118.987225 
L 326.332959 113.733497 
L 334.780452 90.113203 
L 336.46995 86.840276 
L 338.159449 85.796607 
L 339.848948 86.869357 
L 341.538446 88.870061 
L 343.227945 90.225302 
L 344.917444 89.9949 
L 348.296441 86.948119 
L 349.98594 86.606511 
L 351.675438 87.599987 
L 353.364937 88.351138 
L 355.054435 87.442309 
L 356.743934 84.587359 
L 358.433433 80.595626 
L 360.122931 77.534796 
L 361.81243 77.555985 
L 363.501929 81.485092 
L 366.880926 95.185806 
L 368.570425 99.938517 
L 370.259923 101.357725 
L 371.949422 100.080292 
L 373.63892 98.294807 
L 375.328419 97.878857 
L 377.017918 99.447488 
L 378.707416 101.576265 
L 380.396915 103.931639 
L 382.086414 105.981878 
L 383.775912 107.82984 
L 385.465411 109.894616 
L 387.15491 112.254758 
L 388.844408 114.236795 
L 390.533907 114.668538 
L 392.223406 112.693781 
L 393.912904 108.635934 
L 395.602403 104.217775 
L 397.291901 101.831505 
L 398.9814 103.237061 
L 400.670899 108.453095 
L 402.360397 115.551742 
L 404.049896 121.592396 
L 405.739395 124.114984 
L 407.428893 122.407412 
L 409.118392 117.745279 
L 410.807891 112.558797 
L 412.497389 109.050582 
L 414.186888 108.089052 
L 415.876386 109.032 
L 417.565885 110.449189 
L 419.255384 111.218204 
L 420.944882 111.268038 
L 422.634381 111.527834 
L 424.32388 113.148683 
L 426.013378 116.612237 
L 429.392376 125.784664 
L 431.081874 128.772435 
L 432.771373 129.867685 
L 434.460872 129.888968 
L 436.15037 130.384527 
L 437.839869 132.697654 
L 439.529367 137.859773 
L 442.908365 151.765553 
L 444.597863 157.413318 
L 446.287362 161.197705 
L 447.976861 163.44019 
L 449.666359 164.687225 
L 451.355858 165.015511 
L 453.045357 163.876952 
L 454.734855 160.627767 
L 456.424354 155.388538 
L 458.113852 149.456275 
L 459.803351 144.870625 
L 461.49285 143.281858 
L 463.182348 144.924304 
L 466.561346 151.931141 
L 468.250844 154.032768 
L 469.940343 154.982049 
L 471.629842 156.154787 
L 473.31934 158.881215 
L 475.008839 163.546687 
L 476.698338 169.07387 
L 478.387836 173.816741 
L 480.077335 176.70008 
L 481.766833 177.70698 
L 483.456332 177.884386 
L 485.145831 178.693153 
L 486.835329 181.170493 
L 488.524828 185.402989 
L 491.903825 196.021939 
L 493.593324 200.800938 
L 495.282823 204.905087 
L 496.972321 208.532916 
L 498.66182 211.814356 
L 500.351318 214.546891 
L 502.040817 216.223472 
L 503.730316 216.340979 
L 505.419814 217.015772 
L 507.109313 216.259942 
L 508.798812 214.317478 
L 513.867308 206.636847 
L 515.556806 205.072017 
L 517.246305 205.351532 
L 518.935804 208.38986 
L 520.625302 214.407902 
L 524.004299 230.194743 
L 525.693798 235.320027 
L 527.383297 236.21908 
L 529.072795 234.457467 
L 532.451793 228.580398 
L 534.141291 227.672569 
L 535.83079 228.826418 
L 537.520289 230.574862 
L 539.209787 230.936466 
L 540.899286 228.816452 
L 544.278283 220.461505 
L 545.967782 217.39986 
L 547.65728 216.439451 
L 549.346779 217.192813 
L 551.036278 215.883234 
L 552.725776 211.568297 
L 554.415275 205.315501 
L 556.104774 199.494805 
L 557.794272 196.15145 
L 559.483771 195.688455 
L 561.17327 196.786153 
L 562.862768 197.586337 
L 564.552267 197.162238 
L 566.241765 196.159765 
L 567.931264 196.116015 
L 569.620763 198.019467 
L 571.310261 201.278634 
L 572.99976 203.975885 
L 572.99976 203.975885 
" style="fill: none; stroke: #ff7f0e; stroke-width: 1.5; stroke-linecap: square"/>
   </g>
  </g>
  <g id="axes_2">
   <g id="PathCollection_1">
    <defs>
     <path id="C0_0_7e32dcc203" d="M 0 1.118034 
C 0.296506 1.118034 0.580908 1.000231 0.790569 0.790569 
C 1.000231 0.580908 1.118034 0.296506 1.118034 -0 
C 1.118034 -0.296506 1.000231 -0.580908 0.790569 -0.790569 
C 0.580908 -1.000231 0.296506 -1.118034 0 -1.118034 
C -0.296506 -1.118034 -0.580908 -1.000231 -0.790569 -0.790569 
C -1.000231 -0.580908 -1.118034 -0.296506 -1.118034 0 
C -1.118034 0.296506 -1.000231 0.580908 -0.790569 0.790569 
C -0.580908 1.000231 -0.296506 1.118034 0 1.118034 
z
"/>
    </defs>
    <g clip-path="url(#pf03f044098)">
     <use xlink:href="#C0_0_7e32dcc203" x="520.227856" y="76.41337" style="stroke: #000000"/>
    </g>
    <g clip-path="url(#pf03f044098)">
     <use xlink:href="#C0_0_7e32dcc203" x="538.5824" y="76.963538" style="stroke: #000000"/>
    </g>
    <g clip-path="url(#pf03f044098)">
     <use xlink:href="#C0_0_7e32dcc203" x="502.447017" y="76.94024" style="stroke: #000000"/>
    </g>
    <g clip-path="url(#pf03f044098)">
     <use xlink:href="#C0_0_7e32dcc203" x="505.154737" y="86.067345" style="stroke: #000000"/>
    </g>
    <g clip-path="url(#pf03f044098)">
     <use xlink:href="#C0_0_7e32dcc203" x="535.681738" y="86.077318" style="stroke: #000000"/>
    </g>
    <g clip-path="url(#pf03f044098)">
     <use xlink:href="#C0_0_7e32dcc203" x="520.170587" y="85.799733" style="stroke: #000000"/>
    </g>
   </g>
   <g id="matplotlib.axis_3"/>
   <g id="matplotlib.axis_4"/>
   <g id="line2d_22">
    <path d="M 559.993351 73.636224 
L 559.915677 71.164608 
L 559.682963 68.702747 
L 559.296126 66.260356 
L 558.756694 63.847075 
L 558.066795 61.472426 
L 557.229152 59.145783 
L 556.24707 56.876327 
L 555.124426 54.673014 
L 553.865651 52.54454 
L 552.475711 50.499306 
L 550.960092 48.545383 
L 549.324777 46.690481 
L 547.576218 44.941922 
L 545.721317 43.306607 
L 543.767393 41.790989 
L 541.722159 40.401049 
L 539.593685 39.142273 
L 537.390373 38.019629 
L 535.120917 37.037548 
L 532.794273 36.199905 
L 530.419625 35.510005 
L 528.006343 34.970573 
L 525.563952 34.583736 
L 523.102091 34.351022 
L 520.630476 34.273348 
L 518.15886 34.351022 
L 515.696999 34.583736 
L 513.254608 34.970573 
L 510.841326 35.510005 
L 508.466678 36.199905 
L 506.140035 37.037548 
L 503.870578 38.019629 
L 501.667266 39.142273 
L 499.538792 40.401049 
L 497.493558 41.790989 
L 495.539634 43.306607 
L 493.684733 44.941922 
L 491.936174 46.690481 
L 490.300859 48.545383 
L 488.78524 50.499306 
L 487.395301 52.54454 
L 486.136525 54.673014 
L 485.013881 56.876327 
L 484.031799 59.145783 
L 483.194156 61.472426 
L 482.504257 63.847075 
L 481.964825 66.260356 
L 481.577988 68.702747 
L 481.345274 71.164608 
L 481.2676 73.636224 
L 481.345274 76.107839 
L 481.577988 78.5697 
L 481.964825 81.012091 
L 482.504257 83.425373 
L 483.194156 85.800021 
L 484.031799 88.126665 
L 485.013881 90.396121 
L 486.136525 92.599434 
L 487.395301 94.727907 
L 488.78524 96.773142 
L 490.300859 98.727065 
L 491.936174 100.581966 
L 493.684733 102.330525 
L 495.539634 103.965841 
L 497.493558 105.481459 
L 499.538792 106.871399 
L 501.667266 108.130175 
L 503.870578 109.252818 
L 506.140035 110.2349 
L 508.466678 111.072543 
L 510.841326 111.762442 
L 513.254608 112.301875 
L 515.696999 112.688711 
L 518.15886 112.921426 
L 520.630476 112.999099 
L 523.102091 112.921426 
L 525.563952 112.688711 
L 528.006343 112.301875 
L 530.419625 111.762442 
L 532.794273 111.072543 
L 535.120917 110.2349 
L 537.390373 109.252818 
L 539.593685 108.130175 
L 541.722159 106.871399 
L 543.767393 105.481459 
L 545.721317 103.965841 
L 547.576218 102.330525 
L 549.324777 100.581966 
L 550.960092 98.727065 
L 552.475711 96.773142 
L 553.865651 94.727907 
L 555.124426 92.599434 
L 556.24707 90.396121 
L 557.229152 88.126665 
L 558.066795 85.800021 
L 558.756694 83.425373 
L 559.296126 81.012091 
L 559.682963 78.5697 
L 559.915677 76.107839 
L 559.993351 73.636224 
" style="fill: none; stroke: #000000; stroke-linecap: square"/>
   </g>
   <g id="line2d_23">
    <path d="M 512.386334 35.146354 
L 520.630476 28.368917 
L 528.874617 35.146354 
" style="fill: none; stroke: #000000; stroke-linecap: square"/>
   </g>
   <g id="line2d_24">
    <path d="M 481.503777 69.266945 
L 480.480343 67.534978 
L 479.850537 67.471997 
L 478.9137 67.763283 
L 477.968991 69.266945 
L 478.11857 74.069215 
L 477.56749 80.973464 
L 478.748376 83.972915 
L 480.480343 84.531868 
L 482.133583 83.075441 
" style="fill: none; stroke: #000000; stroke-linecap: square"/>
   </g>
   <g id="line2d_25">
    <path d="M 559.757174 69.266945 
L 560.780609 67.534978 
L 561.410415 67.471997 
L 562.347251 67.763283 
L 563.29196 69.266945 
L 563.142381 74.069215 
L 563.693461 80.973464 
L 562.512575 83.972915 
L 560.780609 84.531868 
L 559.127368 83.075441 
" style="fill: none; stroke: #000000; stroke-linecap: square"/>
   </g>
  </g>
 </g>
 <defs>
  <clipPath id="pb83788c4ef">
   <rect x="54.323678" y="18.118365" width="518.676083" height="380.525145"/>
  </clipPath>
  <clipPath id="pf03f044098">
   <rect x="473.261191" y="24.137408" width="94.738569" height="93.093201"/>
  </clipPath>
 </defs>
</svg>
