<?xml version="1.0" encoding="utf-8" standalone="no"?>
<!DOCTYPE svg PUBLIC "-//W3C//DTD SVG 1.1//EN"
  "http://www.w3.org/Graphics/SVG/1.1/DTD/svg11.dtd">
<svg xmlns:xlink="http://www.w3.org/1999/xlink" width="576pt" height="432pt" viewBox="0 0 576 432" xmlns="http://www.w3.org/2000/svg" version="1.1">
 <metadata>
  <rdf:RDF xmlns:dc="http://purl.org/dc/elements/1.1/" xmlns:cc="http://creativecommons.org/ns#" xmlns:rdf="http://www.w3.org/1999/02/22-rdf-syntax-ns#">
   <cc:Work>
    <dc:type rdf:resource="http://purl.org/dc/dcmitype/StillImage"/>
    <dc:date>2025-02-20T17:26:17.168438</dc:date>
    <dc:format>image/svg+xml</dc:format>
    <dc:creator>
     <cc:Agent>
      <dc:title>Matplotlib v3.10.0, https://matplotlib.org/</dc:title>
     </cc:Agent>
    </dc:creator>
   </cc:Work>
  </rdf:RDF>
 </metadata>
 <defs>
  <style type="text/css">*{stroke-linejoin: round; stroke-linecap: butt}</style>
 </defs>
 <g id="figure_1">
  <g id="patch_1">
   <path d="M 0 432 
L 576 432 
L 576 0 
L 0 0 
z
" style="fill: #ffffff"/>
  </g>
  <g id="axes_1">
   <g id="patch_2">
    <path d="M 38.420552 398.64351 
L 561.866948 398.64351 
L 561.866948 18.118365 
L 38.420552 18.118365 
L 38.420552 398.64351 
z
" style="fill: none; opacity: 0"/>
   </g>
   <g id="patch_3">
    <path d="M 38.420552 377.680848 
L 38.420552 39.081027 
" style="fill: none; stroke: #000000; stroke-width: 0.8; stroke-linejoin: miter; stroke-linecap: square"/>
   </g>
   <g id="LineCollection_1">
    <path d="M 156.407168 18.118365 
L 156.407168 398.64351 
" clip-path="url(#pa4bc10d439)" style="fill: none; stroke-dasharray: 3.7,1.6; stroke-dashoffset: 0; stroke: #000000"/>
    <path d="M 195.645211 18.118365 
L 195.645211 398.64351 
" clip-path="url(#pa4bc10d439)" style="fill: none; stroke-dasharray: 3.7,1.6; stroke-dashoffset: 0; stroke: #000000"/>
   </g>
   <g id="matplotlib.axis_1">
    <g id="xtick_1">
     <g id="line2d_1">
      <defs>
       <path id="m6b7f8d6eae" d="M 0 0 
L 0 3.5 
" style="stroke: #000000; stroke-width: 0.8"/>
      </defs>
      <g>
       <use xlink:href="#m6b7f8d6eae" x="38.693039" y="398.64351" style="stroke: #000000; stroke-width: 0.8"/>
      </g>
     </g>
     <g id="text_1">
      <!-- −0.20 -->
      <g transform="translate(23.370383 413.241947) scale(0.1 -0.1)">
       <defs>
        <path id="DejaVuSans-2212" d="M 678 2272 
L 4684 2272 
L 4684 1741 
L 678 1741 
L 678 2272 
z
" transform="scale(0.015625)"/>
        <path id="DejaVuSans-30" d="M 2034 4250 
Q 1547 4250 1301 3770 
Q 1056 3291 1056 2328 
Q 1056 1369 1301 889 
Q 1547 409 2034 409 
Q 2525 409 2770 889 
Q 3016 1369 3016 2328 
Q 3016 3291 2770 3770 
Q 2525 4250 2034 4250 
z
M 2034 4750 
Q 2819 4750 3233 4129 
Q 3647 3509 3647 2328 
Q 3647 1150 3233 529 
Q 2819 -91 2034 -91 
Q 1250 -91 836 529 
Q 422 1150 422 2328 
Q 422 3509 836 4129 
Q 1250 4750 2034 4750 
z
" transform="scale(0.015625)"/>
        <path id="DejaVuSans-2e" d="M 684 794 
L 1344 794 
L 1344 0 
L 684 0 
L 684 794 
z
" transform="scale(0.015625)"/>
        <path id="DejaVuSans-32" d="M 1228 531 
L 3431 531 
L 3431 0 
L 469 0 
L 469 531 
Q 828 903 1448 1529 
Q 2069 2156 2228 2338 
Q 2531 2678 2651 2914 
Q 2772 3150 2772 3378 
Q 2772 3750 2511 3984 
Q 2250 4219 1831 4219 
Q 1534 4219 1204 4116 
Q 875 4013 500 3803 
L 500 4441 
Q 881 4594 1212 4672 
Q 1544 4750 1819 4750 
Q 2544 4750 2975 4387 
Q 3406 4025 3406 3419 
Q 3406 3131 3298 2873 
Q 3191 2616 2906 2266 
Q 2828 2175 2409 1742 
Q 1991 1309 1228 531 
z
" transform="scale(0.015625)"/>
       </defs>
       <use xlink:href="#DejaVuSans-2212"/>
       <use xlink:href="#DejaVuSans-30" transform="translate(83.789062 0)"/>
       <use xlink:href="#DejaVuSans-2e" transform="translate(147.412109 0)"/>
       <use xlink:href="#DejaVuSans-32" transform="translate(179.199219 0)"/>
       <use xlink:href="#DejaVuSans-30" transform="translate(242.822266 0)"/>
      </g>
     </g>
    </g>
    <g id="xtick_2">
     <g id="line2d_2">
      <g>
       <use xlink:href="#m6b7f8d6eae" x="125.88869" y="398.64351" style="stroke: #000000; stroke-width: 0.8"/>
      </g>
     </g>
     <g id="text_2">
      <!-- 0.00 -->
      <g transform="translate(114.755878 413.241947) scale(0.1 -0.1)">
       <use xlink:href="#DejaVuSans-30"/>
       <use xlink:href="#DejaVuSans-2e" transform="translate(63.623047 0)"/>
       <use xlink:href="#DejaVuSans-30" transform="translate(95.410156 0)"/>
       <use xlink:href="#DejaVuSans-30" transform="translate(159.033203 0)"/>
      </g>
     </g>
    </g>
    <g id="xtick_3">
     <g id="line2d_3">
      <g>
       <use xlink:href="#m6b7f8d6eae" x="156.407168" y="398.64351" style="stroke: #000000; stroke-width: 0.8"/>
      </g>
     </g>
     <g id="text_3">
      <!-- 0.07 -->
      <g transform="translate(145.274356 413.241947) scale(0.1 -0.1)">
       <defs>
        <path id="DejaVuSans-37" d="M 525 4666 
L 3525 4666 
L 3525 4397 
L 1831 0 
L 1172 0 
L 2766 4134 
L 525 4134 
L 525 4666 
z
" transform="scale(0.015625)"/>
       </defs>
       <use xlink:href="#DejaVuSans-30"/>
       <use xlink:href="#DejaVuSans-2e" transform="translate(63.623047 0)"/>
       <use xlink:href="#DejaVuSans-30" transform="translate(95.410156 0)"/>
       <use xlink:href="#DejaVuSans-37" transform="translate(159.033203 0)"/>
      </g>
     </g>
    </g>
    <g id="xtick_4">
     <g id="line2d_4">
      <g>
       <use xlink:href="#m6b7f8d6eae" x="195.645211" y="398.64351" style="stroke: #000000; stroke-width: 0.8"/>
      </g>
     </g>
     <g id="text_4">
      <!-- 0.16 -->
      <g transform="translate(184.512399 413.241947) scale(0.1 -0.1)">
       <defs>
        <path id="DejaVuSans-31" d="M 794 531 
L 1825 531 
L 1825 4091 
L 703 3866 
L 703 4441 
L 1819 4666 
L 2450 4666 
L 2450 531 
L 3481 531 
L 3481 0 
L 794 0 
L 794 531 
z
" transform="scale(0.015625)"/>
        <path id="DejaVuSans-36" d="M 2113 2584 
Q 1688 2584 1439 2293 
Q 1191 2003 1191 1497 
Q 1191 994 1439 701 
Q 1688 409 2113 409 
Q 2538 409 2786 701 
Q 3034 994 3034 1497 
Q 3034 2003 2786 2293 
Q 2538 2584 2113 2584 
z
M 3366 4563 
L 3366 3988 
Q 3128 4100 2886 4159 
Q 2644 4219 2406 4219 
Q 1781 4219 1451 3797 
Q 1122 3375 1075 2522 
Q 1259 2794 1537 2939 
Q 1816 3084 2150 3084 
Q 2853 3084 3261 2657 
Q 3669 2231 3669 1497 
Q 3669 778 3244 343 
Q 2819 -91 2113 -91 
Q 1303 -91 875 529 
Q 447 1150 447 2328 
Q 447 3434 972 4092 
Q 1497 4750 2381 4750 
Q 2619 4750 2861 4703 
Q 3103 4656 3366 4563 
z
" transform="scale(0.015625)"/>
       </defs>
       <use xlink:href="#DejaVuSans-30"/>
       <use xlink:href="#DejaVuSans-2e" transform="translate(63.623047 0)"/>
       <use xlink:href="#DejaVuSans-31" transform="translate(95.410156 0)"/>
       <use xlink:href="#DejaVuSans-36" transform="translate(159.033203 0)"/>
      </g>
     </g>
    </g>
    <g id="xtick_5">
     <g id="line2d_5">
      <g>
       <use xlink:href="#m6b7f8d6eae" x="213.084342" y="398.64351" style="stroke: #000000; stroke-width: 0.8"/>
      </g>
     </g>
     <g id="text_5">
      <!-- 0.20 -->
      <g transform="translate(201.951529 413.241947) scale(0.1 -0.1)">
       <use xlink:href="#DejaVuSans-30"/>
       <use xlink:href="#DejaVuSans-2e" transform="translate(63.623047 0)"/>
       <use xlink:href="#DejaVuSans-32" transform="translate(95.410156 0)"/>
       <use xlink:href="#DejaVuSans-30" transform="translate(159.033203 0)"/>
      </g>
     </g>
    </g>
    <g id="xtick_6">
     <g id="line2d_6">
      <g>
       <use xlink:href="#m6b7f8d6eae" x="300.279993" y="398.64351" style="stroke: #000000; stroke-width: 0.8"/>
      </g>
     </g>
     <g id="text_6">
      <!-- 0.40 -->
      <g transform="translate(289.147181 413.241947) scale(0.1 -0.1)">
       <defs>
        <path id="DejaVuSans-34" d="M 2419 4116 
L 825 1625 
L 2419 1625 
L 2419 4116 
z
M 2253 4666 
L 3047 4666 
L 3047 1625 
L 3713 1625 
L 3713 1100 
L 3047 1100 
L 3047 0 
L 2419 0 
L 2419 1100 
L 313 1100 
L 313 1709 
L 2253 4666 
z
" transform="scale(0.015625)"/>
       </defs>
       <use xlink:href="#DejaVuSans-30"/>
       <use xlink:href="#DejaVuSans-2e" transform="translate(63.623047 0)"/>
       <use xlink:href="#DejaVuSans-34" transform="translate(95.410156 0)"/>
       <use xlink:href="#DejaVuSans-30" transform="translate(159.033203 0)"/>
      </g>
     </g>
    </g>
    <g id="xtick_7">
     <g id="line2d_7">
      <g>
       <use xlink:href="#m6b7f8d6eae" x="387.475645" y="398.64351" style="stroke: #000000; stroke-width: 0.8"/>
      </g>
     </g>
     <g id="text_7">
      <!-- 0.60 -->
      <g transform="translate(376.342832 413.241947) scale(0.1 -0.1)">
       <use xlink:href="#DejaVuSans-30"/>
       <use xlink:href="#DejaVuSans-2e" transform="translate(63.623047 0)"/>
       <use xlink:href="#DejaVuSans-36" transform="translate(95.410156 0)"/>
       <use xlink:href="#DejaVuSans-30" transform="translate(159.033203 0)"/>
      </g>
     </g>
    </g>
    <g id="xtick_8">
     <g id="line2d_8">
      <g>
       <use xlink:href="#m6b7f8d6eae" x="474.671296" y="398.64351" style="stroke: #000000; stroke-width: 0.8"/>
      </g>
     </g>
     <g id="text_8">
      <!-- 0.80 -->
      <g transform="translate(463.538484 413.241947) scale(0.1 -0.1)">
       <defs>
        <path id="DejaVuSans-38" d="M 2034 2216 
Q 1584 2216 1326 1975 
Q 1069 1734 1069 1313 
Q 1069 891 1326 650 
Q 1584 409 2034 409 
Q 2484 409 2743 651 
Q 3003 894 3003 1313 
Q 3003 1734 2745 1975 
Q 2488 2216 2034 2216 
z
M 1403 2484 
Q 997 2584 770 2862 
Q 544 3141 544 3541 
Q 544 4100 942 4425 
Q 1341 4750 2034 4750 
Q 2731 4750 3128 4425 
Q 3525 4100 3525 3541 
Q 3525 3141 3298 2862 
Q 3072 2584 2669 2484 
Q 3125 2378 3379 2068 
Q 3634 1759 3634 1313 
Q 3634 634 3220 271 
Q 2806 -91 2034 -91 
Q 1263 -91 848 271 
Q 434 634 434 1313 
Q 434 1759 690 2068 
Q 947 2378 1403 2484 
z
M 1172 3481 
Q 1172 3119 1398 2916 
Q 1625 2713 2034 2713 
Q 2441 2713 2670 2916 
Q 2900 3119 2900 3481 
Q 2900 3844 2670 4047 
Q 2441 4250 2034 4250 
Q 1625 4250 1398 4047 
Q 1172 3844 1172 3481 
z
" transform="scale(0.015625)"/>
       </defs>
       <use xlink:href="#DejaVuSans-30"/>
       <use xlink:href="#DejaVuSans-2e" transform="translate(63.623047 0)"/>
       <use xlink:href="#DejaVuSans-38" transform="translate(95.410156 0)"/>
       <use xlink:href="#DejaVuSans-30" transform="translate(159.033203 0)"/>
      </g>
     </g>
    </g>
    <g id="xtick_9">
     <g id="line2d_9">
      <g>
       <use xlink:href="#m6b7f8d6eae" x="561.866948" y="398.64351" style="stroke: #000000; stroke-width: 0.8"/>
      </g>
     </g>
     <g id="text_9">
      <!-- 1.00 -->
      <g transform="translate(550.734135 413.241947) scale(0.1 -0.1)">
       <use xlink:href="#DejaVuSans-31"/>
       <use xlink:href="#DejaVuSans-2e" transform="translate(63.623047 0)"/>
       <use xlink:href="#DejaVuSans-30" transform="translate(95.410156 0)"/>
       <use xlink:href="#DejaVuSans-30" transform="translate(159.033203 0)"/>
      </g>
     </g>
    </g>
    <g id="text_10">
     <!-- Time (s) -->
     <g transform="translate(279.814844 426.920073) scale(0.1 -0.1)">
      <defs>
       <path id="DejaVuSans-54" d="M -19 4666 
L 3928 4666 
L 3928 4134 
L 2272 4134 
L 2272 0 
L 1638 0 
L 1638 4134 
L -19 4134 
L -19 4666 
z
" transform="scale(0.015625)"/>
       <path id="DejaVuSans-69" d="M 603 3500 
L 1178 3500 
L 1178 0 
L 603 0 
L 603 3500 
z
M 603 4863 
L 1178 4863 
L 1178 4134 
L 603 4134 
L 603 4863 
z
" transform="scale(0.015625)"/>
       <path id="DejaVuSans-6d" d="M 3328 2828 
Q 3544 3216 3844 3400 
Q 4144 3584 4550 3584 
Q 5097 3584 5394 3201 
Q 5691 2819 5691 2113 
L 5691 0 
L 5113 0 
L 5113 2094 
Q 5113 2597 4934 2840 
Q 4756 3084 4391 3084 
Q 3944 3084 3684 2787 
Q 3425 2491 3425 1978 
L 3425 0 
L 2847 0 
L 2847 2094 
Q 2847 2600 2669 2842 
Q 2491 3084 2119 3084 
Q 1678 3084 1418 2786 
Q 1159 2488 1159 1978 
L 1159 0 
L 581 0 
L 581 3500 
L 1159 3500 
L 1159 2956 
Q 1356 3278 1631 3431 
Q 1906 3584 2284 3584 
Q 2666 3584 2933 3390 
Q 3200 3197 3328 2828 
z
" transform="scale(0.015625)"/>
       <path id="DejaVuSans-65" d="M 3597 1894 
L 3597 1613 
L 953 1613 
Q 991 1019 1311 708 
Q 1631 397 2203 397 
Q 2534 397 2845 478 
Q 3156 559 3463 722 
L 3463 178 
Q 3153 47 2828 -22 
Q 2503 -91 2169 -91 
Q 1331 -91 842 396 
Q 353 884 353 1716 
Q 353 2575 817 3079 
Q 1281 3584 2069 3584 
Q 2775 3584 3186 3129 
Q 3597 2675 3597 1894 
z
M 3022 2063 
Q 3016 2534 2758 2815 
Q 2500 3097 2075 3097 
Q 1594 3097 1305 2825 
Q 1016 2553 972 2059 
L 3022 2063 
z
" transform="scale(0.015625)"/>
       <path id="DejaVuSans-20" transform="scale(0.015625)"/>
       <path id="DejaVuSans-28" d="M 1984 4856 
Q 1566 4138 1362 3434 
Q 1159 2731 1159 2009 
Q 1159 1288 1364 580 
Q 1569 -128 1984 -844 
L 1484 -844 
Q 1016 -109 783 600 
Q 550 1309 550 2009 
Q 550 2706 781 3412 
Q 1013 4119 1484 4856 
L 1984 4856 
z
" transform="scale(0.015625)"/>
       <path id="DejaVuSans-73" d="M 2834 3397 
L 2834 2853 
Q 2591 2978 2328 3040 
Q 2066 3103 1784 3103 
Q 1356 3103 1142 2972 
Q 928 2841 928 2578 
Q 928 2378 1081 2264 
Q 1234 2150 1697 2047 
L 1894 2003 
Q 2506 1872 2764 1633 
Q 3022 1394 3022 966 
Q 3022 478 2636 193 
Q 2250 -91 1575 -91 
Q 1294 -91 989 -36 
Q 684 19 347 128 
L 347 722 
Q 666 556 975 473 
Q 1284 391 1588 391 
Q 1994 391 2212 530 
Q 2431 669 2431 922 
Q 2431 1156 2273 1281 
Q 2116 1406 1581 1522 
L 1381 1569 
Q 847 1681 609 1914 
Q 372 2147 372 2553 
Q 372 3047 722 3315 
Q 1072 3584 1716 3584 
Q 2034 3584 2315 3537 
Q 2597 3491 2834 3397 
z
" transform="scale(0.015625)"/>
       <path id="DejaVuSans-29" d="M 513 4856 
L 1013 4856 
Q 1481 4119 1714 3412 
Q 1947 2706 1947 2009 
Q 1947 1309 1714 600 
Q 1481 -109 1013 -844 
L 513 -844 
Q 928 -128 1133 580 
Q 1338 1288 1338 2009 
Q 1338 2731 1133 3434 
Q 928 4138 513 4856 
z
" transform="scale(0.015625)"/>
      </defs>
      <use xlink:href="#DejaVuSans-54"/>
      <use xlink:href="#DejaVuSans-69" transform="translate(57.958984 0)"/>
      <use xlink:href="#DejaVuSans-6d" transform="translate(85.742188 0)"/>
      <use xlink:href="#DejaVuSans-65" transform="translate(183.154297 0)"/>
      <use xlink:href="#DejaVuSans-20" transform="translate(244.677734 0)"/>
      <use xlink:href="#DejaVuSans-28" transform="translate(276.464844 0)"/>
      <use xlink:href="#DejaVuSans-73" transform="translate(315.478516 0)"/>
      <use xlink:href="#DejaVuSans-29" transform="translate(367.578125 0)"/>
     </g>
    </g>
   </g>
   <g id="matplotlib.axis_2">
    <g id="ytick_1">
     <g id="line2d_10">
      <defs>
       <path id="m59b6fea077" d="M 0 0 
L -3.5 0 
" style="stroke: #000000; stroke-width: 0.8"/>
      </defs>
      <g>
       <use xlink:href="#m59b6fea077" x="38.420552" y="377.680848" style="stroke: #000000; stroke-width: 0.8"/>
      </g>
     </g>
     <g id="text_11">
      <!-- −6 -->
      <g transform="translate(16.678365 381.480067) scale(0.1 -0.1)">
       <use xlink:href="#DejaVuSans-2212"/>
       <use xlink:href="#DejaVuSans-36" transform="translate(83.789062 0)"/>
      </g>
     </g>
    </g>
    <g id="ytick_2">
     <g id="line2d_11">
      <g>
       <use xlink:href="#m59b6fea077" x="38.420552" y="321.247545" style="stroke: #000000; stroke-width: 0.8"/>
      </g>
     </g>
     <g id="text_12">
      <!-- −4 -->
      <g transform="translate(16.678365 325.046763) scale(0.1 -0.1)">
       <use xlink:href="#DejaVuSans-2212"/>
       <use xlink:href="#DejaVuSans-34" transform="translate(83.789062 0)"/>
      </g>
     </g>
    </g>
    <g id="ytick_3">
     <g id="line2d_12">
      <g>
       <use xlink:href="#m59b6fea077" x="38.420552" y="264.814241" style="stroke: #000000; stroke-width: 0.8"/>
      </g>
     </g>
     <g id="text_13">
      <!-- −2 -->
      <g transform="translate(16.678365 268.61346) scale(0.1 -0.1)">
       <use xlink:href="#DejaVuSans-2212"/>
       <use xlink:href="#DejaVuSans-32" transform="translate(83.789062 0)"/>
      </g>
     </g>
    </g>
    <g id="ytick_4">
     <g id="line2d_13">
      <g>
       <use xlink:href="#m59b6fea077" x="38.420552" y="208.380937" style="stroke: #000000; stroke-width: 0.8"/>
      </g>
     </g>
     <g id="text_14">
      <!-- 0 -->
      <g transform="translate(25.058052 212.180156) scale(0.1 -0.1)">
       <use xlink:href="#DejaVuSans-30"/>
      </g>
     </g>
    </g>
    <g id="ytick_5">
     <g id="line2d_14">
      <g>
       <use xlink:href="#m59b6fea077" x="38.420552" y="151.947634" style="stroke: #000000; stroke-width: 0.8"/>
      </g>
     </g>
     <g id="text_15">
      <!-- 2 -->
      <g transform="translate(25.058052 155.746853) scale(0.1 -0.1)">
       <use xlink:href="#DejaVuSans-32"/>
      </g>
     </g>
    </g>
    <g id="ytick_6">
     <g id="line2d_15">
      <g>
       <use xlink:href="#m59b6fea077" x="38.420552" y="95.51433" style="stroke: #000000; stroke-width: 0.8"/>
      </g>
     </g>
     <g id="text_16">
      <!-- 4 -->
      <g transform="translate(25.058052 99.313549) scale(0.1 -0.1)">
       <use xlink:href="#DejaVuSans-34"/>
      </g>
     </g>
    </g>
    <g id="ytick_7">
     <g id="line2d_16">
      <g>
       <use xlink:href="#m59b6fea077" x="38.420552" y="39.081027" style="stroke: #000000; stroke-width: 0.8"/>
      </g>
     </g>
     <g id="text_17">
      <!-- 6 -->
      <g transform="translate(25.058052 42.880245) scale(0.1 -0.1)">
       <use xlink:href="#DejaVuSans-36"/>
      </g>
     </g>
    </g>
    <g id="text_18">
     <!-- µV -->
     <g transform="translate(10.598677 214.9825) rotate(-90) scale(0.1 -0.1)">
      <defs>
       <path id="DejaVuSans-b5" d="M 544 -1331 
L 544 3500 
L 1119 3500 
L 1119 1325 
Q 1119 872 1334 640 
Q 1550 409 1972 409 
Q 2434 409 2667 671 
Q 2900 934 2900 1459 
L 2900 3500 
L 3475 3500 
L 3475 806 
Q 3475 619 3529 530 
Q 3584 441 3700 441 
Q 3728 441 3778 458 
Q 3828 475 3916 513 
L 3916 50 
Q 3788 -22 3673 -56 
Q 3559 -91 3450 -91 
Q 3234 -91 3106 31 
Q 2978 153 2931 403 
Q 2775 156 2548 32 
Q 2322 -91 2016 -91 
Q 1697 -91 1473 31 
Q 1250 153 1119 397 
L 1119 -1331 
L 544 -1331 
z
" transform="scale(0.015625)"/>
       <path id="DejaVuSans-56" d="M 1831 0 
L 50 4666 
L 709 4666 
L 2188 738 
L 3669 4666 
L 4325 4666 
L 2547 0 
L 1831 0 
z
" transform="scale(0.015625)"/>
      </defs>
      <use xlink:href="#DejaVuSans-b5"/>
      <use xlink:href="#DejaVuSans-56" transform="translate(63.623047 0)"/>
     </g>
    </g>
   </g>
   <g id="patch_4">
    <path d="M 38.693039 398.64351 
L 561.866948 398.64351 
" style="fill: none; stroke: #000000; stroke-width: 0.8; stroke-linejoin: miter; stroke-linecap: square"/>
   </g>
   <g id="patch_5">
    <path d="M 38.420552 208.380937 
L 561.866948 208.380937 
" style="fill: none; stroke: #000000; stroke-width: 0.8; stroke-linejoin: miter; stroke-linecap: square"/>
   </g>
   <g id="text_19">
    <!-- Oz, O1 (median) -->
    <g transform="translate(250.836875 12.118365) scale(0.12 -0.12)">
     <defs>
      <path id="DejaVuSans-4f" d="M 2522 4238 
Q 1834 4238 1429 3725 
Q 1025 3213 1025 2328 
Q 1025 1447 1429 934 
Q 1834 422 2522 422 
Q 3209 422 3611 934 
Q 4013 1447 4013 2328 
Q 4013 3213 3611 3725 
Q 3209 4238 2522 4238 
z
M 2522 4750 
Q 3503 4750 4090 4092 
Q 4678 3434 4678 2328 
Q 4678 1225 4090 567 
Q 3503 -91 2522 -91 
Q 1538 -91 948 565 
Q 359 1222 359 2328 
Q 359 3434 948 4092 
Q 1538 4750 2522 4750 
z
" transform="scale(0.015625)"/>
      <path id="DejaVuSans-7a" d="M 353 3500 
L 3084 3500 
L 3084 2975 
L 922 459 
L 3084 459 
L 3084 0 
L 275 0 
L 275 525 
L 2438 3041 
L 353 3041 
L 353 3500 
z
" transform="scale(0.015625)"/>
      <path id="DejaVuSans-2c" d="M 750 794 
L 1409 794 
L 1409 256 
L 897 -744 
L 494 -744 
L 750 256 
L 750 794 
z
" transform="scale(0.015625)"/>
      <path id="DejaVuSans-64" d="M 2906 2969 
L 2906 4863 
L 3481 4863 
L 3481 0 
L 2906 0 
L 2906 525 
Q 2725 213 2448 61 
Q 2172 -91 1784 -91 
Q 1150 -91 751 415 
Q 353 922 353 1747 
Q 353 2572 751 3078 
Q 1150 3584 1784 3584 
Q 2172 3584 2448 3432 
Q 2725 3281 2906 2969 
z
M 947 1747 
Q 947 1113 1208 752 
Q 1469 391 1925 391 
Q 2381 391 2643 752 
Q 2906 1113 2906 1747 
Q 2906 2381 2643 2742 
Q 2381 3103 1925 3103 
Q 1469 3103 1208 2742 
Q 947 2381 947 1747 
z
" transform="scale(0.015625)"/>
      <path id="DejaVuSans-61" d="M 2194 1759 
Q 1497 1759 1228 1600 
Q 959 1441 959 1056 
Q 959 750 1161 570 
Q 1363 391 1709 391 
Q 2188 391 2477 730 
Q 2766 1069 2766 1631 
L 2766 1759 
L 2194 1759 
z
M 3341 1997 
L 3341 0 
L 2766 0 
L 2766 531 
Q 2569 213 2275 61 
Q 1981 -91 1556 -91 
Q 1019 -91 701 211 
Q 384 513 384 1019 
Q 384 1609 779 1909 
Q 1175 2209 1959 2209 
L 2766 2209 
L 2766 2266 
Q 2766 2663 2505 2880 
Q 2244 3097 1772 3097 
Q 1472 3097 1187 3025 
Q 903 2953 641 2809 
L 641 3341 
Q 956 3463 1253 3523 
Q 1550 3584 1831 3584 
Q 2591 3584 2966 3190 
Q 3341 2797 3341 1997 
z
" transform="scale(0.015625)"/>
      <path id="DejaVuSans-6e" d="M 3513 2113 
L 3513 0 
L 2938 0 
L 2938 2094 
Q 2938 2591 2744 2837 
Q 2550 3084 2163 3084 
Q 1697 3084 1428 2787 
Q 1159 2491 1159 1978 
L 1159 0 
L 581 0 
L 581 3500 
L 1159 3500 
L 1159 2956 
Q 1366 3272 1645 3428 
Q 1925 3584 2291 3584 
Q 2894 3584 3203 3211 
Q 3513 2838 3513 2113 
z
" transform="scale(0.015625)"/>
     </defs>
     <use xlink:href="#DejaVuSans-4f"/>
     <use xlink:href="#DejaVuSans-7a" transform="translate(78.710938 0)"/>
     <use xlink:href="#DejaVuSans-2c" transform="translate(131.201172 0)"/>
     <use xlink:href="#DejaVuSans-20" transform="translate(162.988281 0)"/>
     <use xlink:href="#DejaVuSans-4f" transform="translate(194.775391 0)"/>
     <use xlink:href="#DejaVuSans-31" transform="translate(273.486328 0)"/>
     <use xlink:href="#DejaVuSans-20" transform="translate(337.109375 0)"/>
     <use xlink:href="#DejaVuSans-28" transform="translate(368.896484 0)"/>
     <use xlink:href="#DejaVuSans-6d" transform="translate(407.910156 0)"/>
     <use xlink:href="#DejaVuSans-65" transform="translate(505.322266 0)"/>
     <use xlink:href="#DejaVuSans-64" transform="translate(566.845703 0)"/>
     <use xlink:href="#DejaVuSans-69" transform="translate(630.322266 0)"/>
     <use xlink:href="#DejaVuSans-61" transform="translate(658.105469 0)"/>
     <use xlink:href="#DejaVuSans-6e" transform="translate(719.384766 0)"/>
     <use xlink:href="#DejaVuSans-29" transform="translate(782.763672 0)"/>
    </g>
   </g>
   <g id="legend_1">
    <g id="patch_6">
     <path d="M 45.420552 55.75274 
L 126.56274 55.75274 
Q 128.56274 55.75274 128.56274 53.75274 
L 128.56274 25.118365 
Q 128.56274 23.118365 126.56274 23.118365 
L 45.420552 23.118365 
Q 43.420552 23.118365 43.420552 25.118365 
L 43.420552 53.75274 
Q 43.420552 55.75274 45.420552 55.75274 
z
" style="fill: #ffffff; opacity: 0.8; stroke: #cccccc; stroke-linejoin: miter"/>
    </g>
    <g id="line2d_17">
     <path d="M 47.420552 31.216803 
L 57.420552 31.216803 
L 67.420552 31.216803 
" style="fill: none; stroke: #1f77b4; stroke-width: 1.5; stroke-linecap: square"/>
    </g>
    <g id="text_20">
     <!-- eerie -->
     <g transform="translate(75.420552 34.716803) scale(0.1 -0.1)">
      <defs>
       <path id="DejaVuSans-72" d="M 2631 2963 
Q 2534 3019 2420 3045 
Q 2306 3072 2169 3072 
Q 1681 3072 1420 2755 
Q 1159 2438 1159 1844 
L 1159 0 
L 581 0 
L 581 3500 
L 1159 3500 
L 1159 2956 
Q 1341 3275 1631 3429 
Q 1922 3584 2338 3584 
Q 2397 3584 2469 3576 
Q 2541 3569 2628 3553 
L 2631 2963 
z
" transform="scale(0.015625)"/>
      </defs>
      <use xlink:href="#DejaVuSans-65"/>
      <use xlink:href="#DejaVuSans-65" transform="translate(61.523438 0)"/>
      <use xlink:href="#DejaVuSans-72" transform="translate(123.046875 0)"/>
      <use xlink:href="#DejaVuSans-69" transform="translate(164.160156 0)"/>
      <use xlink:href="#DejaVuSans-65" transform="translate(191.943359 0)"/>
     </g>
    </g>
    <g id="line2d_18">
     <path d="M 47.420552 45.894928 
L 57.420552 45.894928 
L 67.420552 45.894928 
" style="fill: none; stroke: #ff7f0e; stroke-width: 1.5; stroke-linecap: square"/>
    </g>
    <g id="text_21">
     <!-- non_eerie -->
     <g transform="translate(75.420552 49.394928) scale(0.1 -0.1)">
      <defs>
       <path id="DejaVuSans-6f" d="M 1959 3097 
Q 1497 3097 1228 2736 
Q 959 2375 959 1747 
Q 959 1119 1226 758 
Q 1494 397 1959 397 
Q 2419 397 2687 759 
Q 2956 1122 2956 1747 
Q 2956 2369 2687 2733 
Q 2419 3097 1959 3097 
z
M 1959 3584 
Q 2709 3584 3137 3096 
Q 3566 2609 3566 1747 
Q 3566 888 3137 398 
Q 2709 -91 1959 -91 
Q 1206 -91 779 398 
Q 353 888 353 1747 
Q 353 2609 779 3096 
Q 1206 3584 1959 3584 
z
" transform="scale(0.015625)"/>
       <path id="DejaVuSans-5f" d="M 3263 -1063 
L 3263 -1509 
L -63 -1509 
L -63 -1063 
L 3263 -1063 
z
" transform="scale(0.015625)"/>
      </defs>
      <use xlink:href="#DejaVuSans-6e"/>
      <use xlink:href="#DejaVuSans-6f" transform="translate(63.378906 0)"/>
      <use xlink:href="#DejaVuSans-6e" transform="translate(124.560547 0)"/>
      <use xlink:href="#DejaVuSans-5f" transform="translate(187.939453 0)"/>
      <use xlink:href="#DejaVuSans-65" transform="translate(237.939453 0)"/>
      <use xlink:href="#DejaVuSans-65" transform="translate(299.462891 0)"/>
      <use xlink:href="#DejaVuSans-72" transform="translate(360.986328 0)"/>
      <use xlink:href="#DejaVuSans-69" transform="translate(402.099609 0)"/>
      <use xlink:href="#DejaVuSans-65" transform="translate(429.882812 0)"/>
     </g>
    </g>
   </g>
   <g id="FillBetweenPolyCollection_1">
    <defs>
     <path id="maa2c42b04e" d="M 38.420552 -286.231256 
L 38.420552 -238.836445 
L 40.123593 -227.839322 
L 41.826633 -220.748777 
L 43.529673 -216.125299 
L 45.232713 -214.143099 
L 46.935753 -214.809068 
L 48.638793 -216.07493 
L 50.341833 -216.289129 
L 52.044873 -215.952689 
L 53.747913 -214.619909 
L 55.450953 -214.858994 
L 57.153993 -217.354519 
L 58.857033 -219.791219 
L 60.560073 -219.879421 
L 62.263113 -220.075098 
L 63.966154 -219.209808 
L 65.669194 -220.204331 
L 67.372234 -222.822296 
L 69.075274 -223.681492 
L 70.778314 -224.235556 
L 72.481354 -220.549228 
L 74.184394 -213.858094 
L 75.887434 -202.648056 
L 77.590474 -189.716654 
L 79.293514 -179.74294 
L 80.996554 -177.625981 
L 82.699594 -183.974485 
L 84.402634 -195.801325 
L 86.105674 -207.109147 
L 87.808714 -206.151832 
L 89.511755 -191.293599 
L 91.214795 -170.988515 
L 92.917835 -155.386263 
L 94.620875 -151.475387 
L 96.323915 -161.190837 
L 98.026955 -179.442333 
L 99.729995 -197.157095 
L 101.433035 -205.035395 
L 103.136075 -205.154417 
L 104.839115 -199.796802 
L 106.542155 -195.542776 
L 108.245195 -193.715041 
L 109.948235 -196.284123 
L 111.651275 -203.729869 
L 113.354315 -211.823978 
L 115.057356 -215.405705 
L 116.760396 -212.970267 
L 118.463436 -207.55541 
L 120.166476 -202.250496 
L 121.869516 -201.404782 
L 123.572556 -207.396669 
L 125.275596 -221.396371 
L 126.978636 -240.24986 
L 128.681676 -256.61583 
L 130.384716 -265.298005 
L 132.087756 -259.772471 
L 133.790796 -243.124541 
L 135.493836 -225.437013 
L 137.196876 -213.66453 
L 138.899916 -209.774976 
L 140.602957 -213.686861 
L 142.305997 -222.59296 
L 144.009037 -231.432016 
L 145.712077 -234.364176 
L 147.415117 -229.819383 
L 149.118157 -221.318982 
L 150.821197 -211.113424 
L 152.524237 -203.748806 
L 154.227277 -198.183254 
L 155.930317 -192.915213 
L 157.633357 -186.828576 
L 159.336397 -183.136006 
L 161.039437 -184.553792 
L 162.742477 -192.434759 
L 164.445517 -207.60752 
L 166.148558 -227.095831 
L 167.851598 -245.200299 
L 169.554638 -259.674442 
L 171.257678 -268.374245 
L 172.960718 -274.468357 
L 174.663758 -279.997333 
L 176.366798 -287.230591 
L 178.069838 -294.195833 
L 179.772878 -298.870425 
L 181.475918 -294.942039 
L 183.178958 -281.26059 
L 184.881998 -261.634538 
L 186.585038 -240.204396 
L 188.288078 -222.43214 
L 189.991118 -210.447032 
L 191.694159 -198.389637 
L 193.397199 -178.872736 
L 195.100239 -152.260127 
L 196.803279 -130.802559 
L 198.506319 -124.807404 
L 200.209359 -140.317354 
L 201.912399 -171.553172 
L 203.615439 -203.220317 
L 205.318479 -218.638367 
L 207.021519 -213.554559 
L 208.724559 -196.870364 
L 210.427599 -188.997993 
L 212.130639 -202.923161 
L 213.833679 -238.3643 
L 215.536719 -283.97473 
L 217.23976 -323.413213 
L 218.9428 -343.676034 
L 220.64584 -345.50204 
L 222.34888 -340.205786 
L 224.05192 -337.591846 
L 225.75496 -339.042619 
L 227.458 -339.039001 
L 229.16104 -331.48749 
L 230.86408 -314.74029 
L 232.56712 -290.60329 
L 234.27016 -266.799197 
L 235.9732 -247.967875 
L 237.67624 -231.831177 
L 239.37928 -213.651688 
L 241.08232 -195.800105 
L 242.785361 -184.068334 
L 244.488401 -183.414252 
L 246.191441 -196.907487 
L 247.894481 -222.094726 
L 249.597521 -247.677718 
L 251.300561 -263.794416 
L 253.003601 -267.398494 
L 254.706641 -261.085012 
L 256.409681 -252.80229 
L 258.112721 -246.538866 
L 259.815761 -240.663296 
L 261.518801 -230.039185 
L 263.221841 -211.65344 
L 264.924881 -186.803903 
L 266.627921 -162.692185 
L 268.330962 -148.699546 
L 270.034002 -146.445543 
L 271.737042 -152.027673 
L 273.440082 -154.461412 
L 275.143122 -154.815184 
L 276.846162 -152.493273 
L 278.549202 -147.251302 
L 280.252242 -139.659453 
L 281.955282 -132.651817 
L 283.658322 -130.2408 
L 285.361362 -127.732146 
L 287.064402 -129.295493 
L 288.767442 -131.700363 
L 290.470482 -134.247152 
L 292.173522 -135.893473 
L 293.876563 -136.712239 
L 295.579603 -136.99515 
L 297.282643 -133.71513 
L 298.985683 -132.400871 
L 300.688723 -130.448276 
L 302.391763 -132.452954 
L 304.094803 -138.512716 
L 305.797843 -146.220181 
L 307.500883 -154.429732 
L 309.203923 -160.799263 
L 310.906963 -162.63819 
L 312.610003 -158.825624 
L 314.313043 -152.122736 
L 316.016083 -147.482934 
L 317.719123 -149.272359 
L 319.422164 -159.062721 
L 321.125204 -175.064063 
L 322.828244 -188.75207 
L 324.531284 -199.106561 
L 326.234324 -206.105666 
L 327.937364 -213.00262 
L 329.640404 -223.71714 
L 331.343444 -238.518028 
L 333.046484 -250.53821 
L 334.749524 -256.801657 
L 336.452564 -255.525268 
L 338.155604 -250.270325 
L 339.858644 -248.297272 
L 341.561684 -251.62409 
L 343.264724 -262.123662 
L 344.967765 -274.087959 
L 346.670805 -280.748666 
L 348.373845 -279.485868 
L 350.076885 -270.478394 
L 351.779925 -260.711329 
L 353.482965 -255.626366 
L 355.186005 -258.756528 
L 356.889045 -267.893417 
L 358.592085 -277.160899 
L 360.295125 -286.118628 
L 361.998165 -290.290675 
L 363.701205 -289.923446 
L 365.404245 -287.264051 
L 367.107285 -283.034471 
L 368.810326 -282.799015 
L 370.513366 -286.760659 
L 372.216406 -293.593037 
L 373.919446 -299.3294 
L 375.622486 -300.505885 
L 377.325526 -294.049171 
L 379.028566 -282.477642 
L 380.731606 -268.153873 
L 382.434646 -258.744959 
L 384.137686 -259.027455 
L 385.840726 -265.439345 
L 387.543766 -275.39832 
L 389.246806 -283.317287 
L 390.949846 -284.808873 
L 392.652886 -280.14889 
L 394.355927 -271.156175 
L 396.058967 -262.227074 
L 397.762007 -253.615118 
L 399.465047 -247.314816 
L 401.168087 -244.078349 
L 402.871127 -244.408068 
L 404.574167 -247.396329 
L 406.277207 -253.5421 
L 407.980247 -258.944651 
L 409.683287 -265.738403 
L 411.386327 -274.522378 
L 413.089367 -283.263047 
L 414.792407 -286.640021 
L 416.495447 -284.560558 
L 418.198487 -275.674989 
L 419.901528 -263.128345 
L 421.604568 -251.08316 
L 423.307608 -247.589252 
L 425.010648 -253.270359 
L 426.713688 -264.214778 
L 428.416728 -271.602179 
L 430.119768 -272.696415 
L 431.822808 -267.480559 
L 433.525848 -257.814424 
L 435.228888 -245.657557 
L 436.931928 -237.749963 
L 438.634968 -237.572297 
L 440.338008 -242.753935 
L 442.041048 -248.973501 
L 443.744088 -252.164748 
L 445.447129 -249.112506 
L 447.150169 -239.417944 
L 448.853209 -224.696782 
L 450.556249 -211.883889 
L 452.259289 -205.620458 
L 453.962329 -206.819335 
L 455.665369 -212.850609 
L 457.368409 -215.839205 
L 459.071449 -211.077052 
L 460.774489 -196.128747 
L 462.477529 -178.272291 
L 464.180569 -164.680989 
L 465.883609 -163.056736 
L 467.586649 -171.825162 
L 469.289689 -186.421141 
L 470.99273 -194.844672 
L 472.69577 -187.483491 
L 474.39881 -172.124059 
L 476.10185 -159.49434 
L 477.80489 -157.946537 
L 479.50793 -169.341969 
L 481.21097 -186.214001 
L 482.91401 -196.255961 
L 484.61705 -190.893649 
L 486.32009 -173.055833 
L 488.02313 -150.080687 
L 489.72617 -136.941791 
L 491.42921 -137.663704 
L 493.13225 -146.234546 
L 494.83529 -152.832432 
L 496.538331 -148.652477 
L 498.241371 -134.289723 
L 499.944411 -117.039682 
L 501.647451 -109.107974 
L 503.350491 -113.698421 
L 505.053531 -126.883035 
L 506.756571 -139.440575 
L 508.459611 -143.108089 
L 510.162651 -138.149329 
L 511.865691 -128.875382 
L 513.568731 -125.442014 
L 515.271771 -130.212979 
L 516.974811 -139.05682 
L 518.677851 -146.154017 
L 520.380891 -147.502855 
L 522.083932 -144.202815 
L 523.786972 -140.584028 
L 525.490012 -137.551588 
L 527.193052 -136.567398 
L 528.896092 -140.396851 
L 530.599132 -147.446696 
L 532.302172 -157.406557 
L 534.005212 -165.662796 
L 535.708252 -167.192151 
L 537.411292 -161.562559 
L 539.114332 -147.149823 
L 540.817372 -127.63455 
L 542.520412 -112.596437 
L 544.223452 -109.746232 
L 545.926492 -119.676075 
L 547.629533 -134.791194 
L 549.332573 -144.042182 
L 551.035613 -138.67331 
L 552.738653 -119.491686 
L 554.441693 -100.500207 
L 556.144733 -92.382968 
L 557.847773 -99.426621 
L 559.550813 -117.232364 
L 561.253853 -134.851817 
L 561.253853 -200.348183 
L 561.253853 -200.348183 
L 559.550813 -184.690398 
L 557.847773 -167.946523 
L 556.144733 -161.384492 
L 554.441693 -168.736915 
L 552.738653 -186.080925 
L 551.035613 -202.278462 
L 549.332573 -208.404115 
L 547.629533 -200.978348 
L 545.926492 -186.836253 
L 544.223452 -177.276954 
L 542.520412 -182.164847 
L 540.817372 -200.179943 
L 539.114332 -224.026202 
L 537.411292 -241.537951 
L 535.708252 -245.00725 
L 534.005212 -239.265511 
L 532.302172 -227.661522 
L 530.599132 -218.969133 
L 528.896092 -213.51219 
L 527.193052 -211.631694 
L 525.490012 -210.846838 
L 523.786972 -209.697449 
L 522.083932 -209.158845 
L 520.380891 -206.007221 
L 518.677851 -201.625471 
L 516.974811 -194.940579 
L 515.271771 -191.383415 
L 513.568731 -192.327152 
L 511.865691 -197.331937 
L 510.162651 -203.619887 
L 508.459611 -205.939647 
L 506.756571 -201.333962 
L 505.053531 -189.601872 
L 503.350491 -176.030286 
L 501.647451 -172.091784 
L 499.944411 -181.045511 
L 498.241371 -201.505521 
L 496.538331 -221.80422 
L 494.83529 -230.428022 
L 493.13225 -226.642577 
L 491.42921 -219.148879 
L 489.72617 -218.068062 
L 488.02313 -231.116645 
L 486.32009 -250.98621 
L 484.61705 -270.568873 
L 482.91401 -277.002232 
L 481.21097 -265.339137 
L 479.50793 -244.141021 
L 477.80489 -227.997408 
L 476.10185 -226.970785 
L 474.39881 -237.607709 
L 472.69577 -249.097584 
L 470.99273 -252.703878 
L 469.289689 -248.537962 
L 467.586649 -237.407926 
L 465.883609 -229.380186 
L 464.180569 -230.858238 
L 462.477529 -242.233362 
L 460.774489 -256.234205 
L 459.071449 -264.582052 
L 457.368409 -262.552057 
L 455.665369 -256.779301 
L 453.962329 -256.3321 
L 452.259289 -266.069734 
L 450.556249 -282.894661 
L 448.853209 -301.643245 
L 447.150169 -315.575947 
L 445.447129 -321.39743 
L 443.744088 -321.173687 
L 442.041048 -316.621325 
L 440.338008 -311.838032 
L 438.634968 -311.614502 
L 436.931928 -313.716386 
L 435.228888 -320.333766 
L 433.525848 -328.622069 
L 431.822808 -337.749438 
L 430.119768 -342.105112 
L 428.416728 -339.42606 
L 426.713688 -331.000899 
L 425.010648 -322.29231 
L 423.307608 -318.138337 
L 421.604568 -323.265148 
L 419.901528 -336.15876 
L 418.198487 -352.092737 
L 416.495447 -365.915418 
L 414.792407 -370.138148 
L 413.089367 -366.747937 
L 411.386327 -359.916633 
L 409.683287 -351.379954 
L 407.980247 -344.567306 
L 406.277207 -338.325278 
L 404.574167 -333.323304 
L 402.871127 -327.263506 
L 401.168087 -322.511323 
L 399.465047 -321.677484 
L 397.762007 -327.04973 
L 396.058967 -336.522284 
L 394.355927 -346.517357 
L 392.652886 -353.70909 
L 390.949846 -354.964397 
L 389.246806 -350.496755 
L 387.543766 -344.049162 
L 385.840726 -337.855675 
L 384.137686 -335.935301 
L 382.434646 -339.714887 
L 380.731606 -348.640809 
L 379.028566 -360.177863 
L 377.325526 -370.316029 
L 375.622486 -378.327151 
L 373.919446 -381.127735 
L 372.216406 -380.776554 
L 370.513366 -377.764901 
L 368.810326 -373.388982 
L 367.107285 -370.439908 
L 365.404245 -368.091695 
L 363.701205 -368.189085 
L 361.998165 -364.958969 
L 360.295125 -360.461973 
L 358.592085 -352.540391 
L 356.889045 -343.328079 
L 355.186005 -335.540895 
L 353.482965 -330.930807 
L 351.779925 -333.119331 
L 350.076885 -339.455178 
L 348.373845 -344.824844 
L 346.670805 -343.234807 
L 344.967765 -333.398799 
L 343.264724 -322.114568 
L 341.561684 -313.962404 
L 339.858644 -313.486974 
L 338.155604 -321.650492 
L 336.452564 -330.2324 
L 334.749524 -332.047825 
L 333.046484 -322.44375 
L 331.343444 -305.425496 
L 329.640404 -286.899348 
L 327.937364 -272.159365 
L 326.234324 -265.804519 
L 324.531284 -262.789306 
L 322.828244 -257.595115 
L 321.125204 -245.78963 
L 319.422164 -231.810635 
L 317.719123 -221.492636 
L 316.016083 -217.858266 
L 314.313043 -222.138933 
L 312.610003 -230.802553 
L 310.906963 -234.883914 
L 309.203923 -234.595831 
L 307.500883 -228.118186 
L 305.797843 -215.671295 
L 304.094803 -204.566987 
L 302.391763 -199.283427 
L 300.688723 -200.73759 
L 298.985683 -205.448721 
L 297.282643 -210.086643 
L 295.579603 -214.468825 
L 293.876563 -214.44852 
L 292.173522 -210.11934 
L 290.470482 -204.043739 
L 288.767442 -199.583765 
L 287.064402 -196.75741 
L 285.361362 -196.369543 
L 283.658322 -198.512521 
L 281.955282 -200.939817 
L 280.252242 -205.77026 
L 278.549202 -211.517409 
L 276.846162 -218.141866 
L 275.143122 -220.989344 
L 273.440082 -219.352002 
L 271.737042 -216.023404 
L 270.034002 -216.776989 
L 268.330962 -223.196799 
L 266.627921 -236.656126 
L 264.924881 -258.302026 
L 263.221841 -282.151722 
L 261.518801 -302.445516 
L 259.815761 -313.27553 
L 258.112721 -318.010324 
L 256.409681 -322.857701 
L 254.706641 -326.945197 
L 253.003601 -326.948554 
L 251.300561 -320.831251 
L 249.597521 -305.192119 
L 247.894481 -281.212437 
L 246.191441 -256.585368 
L 244.488401 -242.95894 
L 242.785361 -246.710019 
L 241.08232 -263.077322 
L 239.37928 -285.139975 
L 237.67624 -303.241301 
L 235.9732 -316.664024 
L 234.27016 -331.04421 
L 232.56712 -349.66202 
L 230.86408 -370.882806 
L 229.16104 -391.092537 
L 227.458 -404.098564 
L 225.75496 -407.438057 
L 224.05192 -406.998728 
L 222.34888 -409.137181 
L 220.64584 -413.881635 
L 218.9428 -410.974302 
L 217.23976 -390.943101 
L 215.536719 -352.415872 
L 213.833679 -305.177923 
L 212.130639 -265.970244 
L 210.427599 -250.183618 
L 208.724559 -258.825116 
L 207.021519 -274.128469 
L 205.318479 -279.115964 
L 203.615439 -263.992065 
L 201.912399 -231.057603 
L 200.209359 -196.162954 
L 198.506319 -176.874303 
L 196.803279 -180.641801 
L 195.100239 -203.001472 
L 193.397199 -229.00199 
L 191.694159 -252.646477 
L 189.991118 -269.164953 
L 188.288078 -283.26505 
L 186.585038 -298.906496 
L 184.881998 -318.527699 
L 183.178958 -337.790576 
L 181.475918 -350.528625 
L 179.772878 -351.466109 
L 178.069838 -342.872305 
L 176.366798 -332.319435 
L 174.663758 -327.254599 
L 172.960718 -325.347749 
L 171.257678 -322.935995 
L 169.554638 -314.837569 
L 167.851598 -298.333086 
L 166.148558 -277.691579 
L 164.445517 -257.68239 
L 162.742477 -244.002898 
L 161.039437 -237.112454 
L 159.336397 -236.417888 
L 157.633357 -239.10058 
L 155.930317 -244.206171 
L 154.227277 -249.39765 
L 152.524237 -254.733312 
L 150.821197 -260.893784 
L 149.118157 -267.149976 
L 147.415117 -273.99411 
L 145.712077 -277.795478 
L 144.009037 -278.437455 
L 142.305997 -274.617405 
L 140.602957 -264.894164 
L 138.899916 -257.786312 
L 137.196876 -259.333318 
L 135.493836 -270.307882 
L 133.790796 -285.44298 
L 132.087756 -295.843009 
L 130.384716 -297.859943 
L 128.681676 -290.643377 
L 126.978636 -276.093011 
L 125.275596 -257.458399 
L 123.572556 -242.39748 
L 121.869516 -235.115536 
L 120.166476 -235.08872 
L 118.463436 -239.179108 
L 116.760396 -242.848346 
L 115.057356 -243.86691 
L 113.354315 -242.49678 
L 111.651275 -238.4842 
L 109.948235 -233.585565 
L 108.245195 -231.042869 
L 106.542155 -233.790782 
L 104.839115 -242.278838 
L 103.136075 -248.169802 
L 101.433035 -245.082364 
L 99.729995 -233.617633 
L 98.026955 -217.493001 
L 96.323915 -202.91451 
L 94.620875 -197.305112 
L 92.917835 -206.374543 
L 91.214795 -221.922225 
L 89.511755 -237.817499 
L 87.808714 -244.706253 
L 86.105674 -240.097568 
L 84.402634 -228.881737 
L 82.699594 -216.71419 
L 80.996554 -211.578352 
L 79.293514 -218.588256 
L 77.590474 -234.211583 
L 75.887434 -249.993867 
L 74.184394 -259.526347 
L 72.481354 -263.141972 
L 70.778314 -261.064216 
L 69.075274 -256.802276 
L 67.372234 -255.513891 
L 65.669194 -256.768527 
L 63.966154 -258.327998 
L 62.263113 -257.92233 
L 60.560073 -255.607871 
L 58.857033 -251.67855 
L 57.153993 -249.593886 
L 55.450953 -248.928505 
L 53.747913 -248.628076 
L 52.044873 -251.931145 
L 50.341833 -257.809194 
L 48.638793 -262.51476 
L 46.935753 -264.093313 
L 45.232713 -259.67346 
L 43.529673 -254.397797 
L 41.826633 -255.090976 
L 40.123593 -265.971636 
L 38.420552 -286.231256 
z
" style="stroke: #1f77b4; stroke-opacity: 0.3"/>
    </defs>
    <g>
     <use xlink:href="#maa2c42b04e" x="0" y="432" style="fill: #1f77b4; fill-opacity: 0.3; stroke: #1f77b4; stroke-opacity: 0.3"/>
    </g>
   </g>
   <g id="FillBetweenPolyCollection_2">
    <defs>
     <path id="me5ee8b00a3" d="M 38.420552 -234.414754 
L 38.420552 -229.352993 
L 40.123593 -230.423723 
L 41.826633 -230.89537 
L 43.529673 -230.671353 
L 45.232713 -229.907091 
L 46.935753 -229.243848 
L 48.638793 -229.135592 
L 50.341833 -229.373402 
L 52.044873 -230.078185 
L 53.747913 -230.660159 
L 55.450953 -230.894955 
L 57.153993 -230.50843 
L 58.857033 -229.445456 
L 60.560073 -227.924074 
L 62.263113 -226.215947 
L 63.966154 -225.148061 
L 65.669194 -225.351328 
L 67.372234 -227.275148 
L 69.075274 -230.199132 
L 70.778314 -232.302558 
L 72.481354 -232.132366 
L 74.184394 -229.168278 
L 75.887434 -224.347232 
L 77.590474 -219.486065 
L 79.293514 -216.410521 
L 80.996554 -216.444629 
L 82.699594 -219.340946 
L 84.402634 -224.012621 
L 86.105674 -228.083115 
L 87.808714 -229.55632 
L 89.511755 -227.346803 
L 91.214795 -222.029666 
L 92.917835 -215.286802 
L 94.620875 -209.654848 
L 96.323915 -207.043439 
L 98.026955 -208.575392 
L 99.729995 -213.413343 
L 101.433035 -219.507501 
L 103.136075 -224.252375 
L 104.839115 -225.619846 
L 106.542155 -223.372359 
L 108.245195 -218.774843 
L 109.948235 -213.680745 
L 111.651275 -210.093994 
L 113.354315 -208.67175 
L 115.057356 -208.772723 
L 116.760396 -209.116194 
L 118.463436 -208.992213 
L 120.166476 -208.058672 
L 121.869516 -206.734153 
L 123.572556 -205.283178 
L 125.275596 -203.891594 
L 126.978636 -202.160314 
L 128.681676 -199.75832 
L 130.384716 -196.750989 
L 132.087756 -193.484374 
L 133.790796 -190.796329 
L 135.493836 -188.950348 
L 137.196876 -187.57491 
L 138.899916 -186.244947 
L 140.602957 -184.418262 
L 142.305997 -182.343274 
L 144.009037 -180.817217 
L 145.712077 -180.35923 
L 147.415117 -180.983342 
L 149.118157 -182.190511 
L 150.821197 -182.827934 
L 152.524237 -182.208042 
L 154.227277 -181.036595 
L 155.930317 -180.771336 
L 157.633357 -182.434091 
L 159.336397 -185.880668 
L 161.039437 -190.468275 
L 162.742477 -195.321391 
L 164.445517 -199.941103 
L 166.148558 -205.554895 
L 167.851598 -213.035991 
L 169.554638 -223.129558 
L 171.257678 -235.075108 
L 172.960718 -246.687551 
L 174.663758 -256.004191 
L 176.366798 -261.668656 
L 178.069838 -263.506259 
L 179.772878 -262.438516 
L 181.475918 -259.027862 
L 183.178958 -253.807678 
L 184.881998 -245.97501 
L 186.585038 -235.225289 
L 188.288078 -221.29495 
L 189.991118 -205.447237 
L 191.694159 -188.888658 
L 193.397199 -173.216694 
L 195.100239 -159.851768 
L 196.803279 -149.638441 
L 198.506319 -143.134134 
L 200.209359 -140.629932 
L 201.912399 -142.510925 
L 203.615439 -149.299896 
L 205.318479 -160.510384 
L 207.021519 -175.272903 
L 208.724559 -191.555521 
L 210.427599 -207.471313 
L 212.130639 -222.20639 
L 213.833679 -236.440678 
L 215.536719 -252.396216 
L 217.23976 -272.175329 
L 218.9428 -295.794069 
L 220.64584 -319.704979 
L 222.34888 -338.736066 
L 224.05192 -348.697438 
L 225.75496 -349.243859 
L 227.458 -343.990922 
L 229.16104 -339.062353 
L 230.86408 -338.27717 
L 232.56712 -340.981139 
L 234.27016 -342.102664 
L 235.9732 -335.763893 
L 237.67624 -319.844988 
L 239.37928 -298.412456 
L 241.08232 -279.617847 
L 242.785361 -270.466518 
L 244.488401 -272.818836 
L 246.191441 -282.258208 
L 247.894481 -291.088932 
L 249.597521 -293.662827 
L 251.300561 -288.941247 
L 253.003601 -280.667303 
L 254.706641 -274.11324 
L 256.409681 -271.531066 
L 258.112721 -272.001653 
L 259.815761 -271.858345 
L 261.518801 -268.536922 
L 263.221841 -261.312647 
L 264.924881 -252.135805 
L 266.627921 -243.460003 
L 268.330962 -236.151636 
L 270.034002 -229.283198 
L 271.737042 -221.025312 
L 273.440082 -211.15904 
L 275.143122 -200.46871 
L 276.846162 -191.328526 
L 278.549202 -185.904789 
L 280.252242 -184.610353 
L 281.955282 -186.457492 
L 283.658322 -189.59454 
L 285.361362 -192.375824 
L 287.064402 -194.125187 
L 288.767442 -194.9955 
L 290.470482 -195.120154 
L 292.173522 -195.272995 
L 293.876563 -196.25255 
L 295.579603 -198.358094 
L 297.282643 -201.153824 
L 298.985683 -203.954468 
L 300.688723 -205.414749 
L 302.391763 -205.264894 
L 304.094803 -204.024676 
L 305.797843 -203.575925 
L 307.500883 -205.121343 
L 309.203923 -209.237387 
L 310.906963 -214.788262 
L 312.610003 -220.119651 
L 314.313043 -223.092596 
L 316.016083 -222.815479 
L 317.719123 -220.373463 
L 319.422164 -217.830266 
L 321.125204 -217.236811 
L 322.828244 -219.753899 
L 324.531284 -225.082049 
L 326.234324 -232.192907 
L 327.937364 -240.163438 
L 329.640404 -247.92963 
L 331.343444 -254.827663 
L 333.046484 -259.532311 
L 334.749524 -261.686829 
L 336.452564 -261.12372 
L 338.155604 -258.580048 
L 339.858644 -255.582304 
L 341.561684 -254.126712 
L 343.264724 -255.395391 
L 344.967765 -258.984768 
L 346.670805 -263.084269 
L 348.373845 -265.27095 
L 350.076885 -263.764385 
L 351.779925 -257.960364 
L 353.482965 -249.271886 
L 355.186005 -240.084372 
L 356.889045 -232.684379 
L 358.592085 -228.04129 
L 360.295125 -225.939727 
L 361.998165 -225.324429 
L 363.701205 -224.867535 
L 365.404245 -223.982034 
L 367.107285 -222.131059 
L 368.810326 -219.433117 
L 370.513366 -215.922558 
L 372.216406 -212.372742 
L 373.919446 -210.08431 
L 375.622486 -210.082202 
L 377.325526 -213.079328 
L 379.028566 -218.114899 
L 380.731606 -223.002281 
L 382.434646 -224.752848 
L 384.137686 -221.948585 
L 385.840726 -214.97182 
L 387.543766 -206.43454 
L 389.246806 -199.512808 
L 390.949846 -196.750656 
L 392.652886 -198.275008 
L 394.355927 -201.914763 
L 396.058967 -204.813227 
L 397.762007 -204.866418 
L 399.465047 -202.359357 
L 401.168087 -198.815234 
L 402.871127 -196.225994 
L 404.574167 -195.802878 
L 406.277207 -197.17561 
L 407.980247 -198.882057 
L 409.683287 -199.459684 
L 411.386327 -198.229116 
L 413.089367 -195.821632 
L 414.792407 -193.681401 
L 416.495447 -193.252793 
L 418.198487 -195.64108 
L 419.901528 -200.027819 
L 421.604568 -204.654955 
L 423.307608 -207.538494 
L 425.010648 -207.45823 
L 426.713688 -204.354744 
L 428.416728 -199.815015 
L 430.119768 -194.690577 
L 431.822808 -190.031125 
L 433.525848 -185.857762 
L 435.228888 -182.118243 
L 436.931928 -179.251439 
L 438.634968 -177.962518 
L 440.338008 -179.120219 
L 442.041048 -182.133672 
L 443.744088 -184.985388 
L 445.447129 -185.243179 
L 447.150169 -181.144288 
L 448.853209 -173.999158 
L 450.556249 -166.873583 
L 452.259289 -163.130258 
L 453.962329 -163.610217 
L 455.665369 -166.958695 
L 457.368409 -170.151324 
L 459.071449 -170.35347 
L 460.774489 -167.430074 
L 462.477529 -163.344492 
L 464.180569 -160.467211 
L 465.883609 -159.757218 
L 467.586649 -159.909644 
L 469.289689 -159.217326 
L 470.99273 -157.428145 
L 472.69577 -155.737769 
L 474.39881 -156.743618 
L 476.10185 -161.030954 
L 477.80489 -166.613398 
L 479.50793 -170.502616 
L 481.21097 -170.42465 
L 482.91401 -167.288558 
L 484.61705 -163.944293 
L 486.32009 -163.236732 
L 488.02313 -166.281376 
L 489.72617 -170.947485 
L 491.42921 -174.120606 
L 493.13225 -174.047619 
L 494.83529 -170.899927 
L 496.538331 -167.393352 
L 498.241371 -165.467821 
L 499.944411 -165.713991 
L 501.647451 -166.651845 
L 503.350491 -166.811938 
L 505.053531 -166.015384 
L 506.756571 -165.412161 
L 508.459611 -166.13916 
L 510.162651 -168.664662 
L 511.865691 -171.781026 
L 513.568731 -173.550143 
L 515.271771 -173.270771 
L 516.974811 -171.442059 
L 518.677851 -169.508422 
L 520.380891 -168.404522 
L 522.083932 -166.977868 
L 523.786972 -164.049619 
L 525.490012 -159.270676 
L 527.193052 -153.860838 
L 528.896092 -150.410739 
L 530.599132 -150.728834 
L 532.302172 -154.347301 
L 534.005212 -158.760382 
L 535.708252 -161.2953 
L 537.411292 -160.909956 
L 539.114332 -158.698277 
L 540.817372 -156.740889 
L 542.520412 -156.697114 
L 544.223452 -158.049211 
L 545.926492 -159.097049 
L 547.629533 -158.354802 
L 549.332573 -156.233355 
L 551.035613 -154.554821 
L 552.738653 -155.013096 
L 554.441693 -157.145046 
L 556.144733 -158.71341 
L 557.847773 -157.002063 
L 559.550813 -151.906384 
L 561.253853 -145.557812 
L 561.253853 -152.855643 
L 561.253853 -152.855643 
L 559.550813 -159.050543 
L 557.847773 -164.404604 
L 556.144733 -166.332303 
L 554.441693 -164.985052 
L 552.738653 -162.895226 
L 551.035613 -162.222634 
L 549.332573 -163.468667 
L 547.629533 -165.255413 
L 545.926492 -166.069718 
L 544.223452 -165.393831 
L 542.520412 -164.203019 
L 540.817372 -164.450991 
L 539.114332 -166.423147 
L 537.411292 -168.472899 
L 535.708252 -168.805368 
L 534.005212 -166.248452 
L 532.302172 -161.866159 
L 530.599132 -158.442783 
L 528.896092 -158.340111 
L 527.193052 -162.056372 
L 525.490012 -167.453773 
L 523.786972 -171.877646 
L 522.083932 -174.452491 
L 520.380891 -175.575532 
L 518.677851 -176.846715 
L 516.974811 -178.968732 
L 515.271771 -181.14666 
L 513.568731 -181.915114 
L 511.865691 -180.271645 
L 510.162651 -176.978677 
L 508.459611 -173.803739 
L 506.756571 -172.526143 
L 505.053531 -173.039194 
L 503.350491 -173.992516 
L 501.647451 -173.989168 
L 499.944411 -173.351651 
L 498.241371 -173.280245 
L 496.538331 -175.024621 
L 494.83529 -178.421478 
L 493.13225 -181.48156 
L 491.42921 -181.740649 
L 489.72617 -178.521913 
L 488.02313 -174.037828 
L 486.32009 -171.001026 
L 484.61705 -171.734914 
L 482.91401 -175.354163 
L 481.21097 -178.531005 
L 479.50793 -178.52243 
L 477.80489 -174.618155 
L 476.10185 -169.204738 
L 474.39881 -165.213128 
L 472.69577 -164.135419 
L 470.99273 -165.562214 
L 469.289689 -167.375607 
L 467.586649 -167.841453 
L 465.883609 -167.712654 
L 464.180569 -168.342504 
L 462.477529 -171.173632 
L 460.774489 -175.489504 
L 459.071449 -178.719483 
L 457.368409 -178.70583 
L 455.665369 -175.724111 
L 453.962329 -172.235982 
L 452.259289 -171.663151 
L 450.556249 -175.470849 
L 448.853209 -182.571688 
L 447.150169 -189.741887 
L 445.447129 -193.847152 
L 443.744088 -193.699947 
L 442.041048 -190.722749 
L 440.338008 -187.582086 
L 438.634968 -186.156065 
L 436.931928 -187.283181 
L 435.228888 -190.361209 
L 433.525848 -194.401601 
L 431.822808 -198.935874 
L 430.119768 -204.018966 
L 428.416728 -209.227674 
L 426.713688 -213.741027 
L 425.010648 -216.330557 
L 423.307608 -215.999192 
L 421.604568 -213.066681 
L 419.901528 -208.541743 
L 418.198487 -204.421572 
L 416.495447 -202.351935 
L 414.792407 -202.571466 
L 413.089367 -204.51074 
L 411.386327 -206.656149 
L 409.683287 -207.725069 
L 407.980247 -207.077824 
L 406.277207 -205.385015 
L 404.574167 -204.054728 
L 402.871127 -204.783748 
L 401.168087 -207.44173 
L 399.465047 -211.057973 
L 397.762007 -213.497401 
L 396.058967 -213.428013 
L 394.355927 -210.660559 
L 392.652886 -206.998883 
L 390.949846 -205.354463 
L 389.246806 -207.835705 
L 387.543766 -214.52411 
L 385.840726 -223.02962 
L 384.137686 -229.964783 
L 382.434646 -232.687591 
L 380.731606 -230.892461 
L 379.028566 -226.364231 
L 377.325526 -221.579255 
L 375.622486 -218.706074 
L 373.919446 -218.738502 
L 372.216406 -221.044652 
L 370.513366 -224.435964 
L 368.810326 -227.813695 
L 367.107285 -230.390643 
L 365.404245 -231.979697 
L 363.701205 -232.504733 
L 361.998165 -232.898653 
L 360.295125 -233.917636 
L 358.592085 -236.308512 
L 356.889045 -241.243251 
L 355.186005 -248.758835 
L 353.482965 -257.747482 
L 351.779925 -266.2881 
L 350.076885 -271.797899 
L 348.373845 -273.369081 
L 346.670805 -271.28091 
L 344.967765 -267.375369 
L 343.264724 -263.856276 
L 341.561684 -262.275052 
L 339.858644 -263.313134 
L 338.155604 -265.950524 
L 336.452564 -268.636738 
L 334.749524 -269.516293 
L 333.046484 -267.809729 
L 331.343444 -263.243783 
L 329.640404 -256.440958 
L 327.937364 -248.315344 
L 326.234324 -239.964106 
L 324.531284 -232.395647 
L 322.828244 -227.003122 
L 321.125204 -224.816173 
L 319.422164 -225.565682 
L 317.719123 -228.105846 
L 316.016083 -230.321498 
L 314.313043 -230.32793 
L 312.610003 -227.525051 
L 310.906963 -222.226282 
L 309.203923 -216.459503 
L 307.500883 -212.391554 
L 305.797843 -210.944491 
L 304.094803 -211.555554 
L 302.391763 -212.387308 
L 300.688723 -212.605843 
L 298.985683 -211.365336 
L 297.282643 -208.95685 
L 295.579603 -206.145314 
L 293.876563 -204.177247 
L 292.173522 -203.102383 
L 290.470482 -202.87369 
L 288.767442 -202.794138 
L 287.064402 -202.064507 
L 285.361362 -200.333077 
L 283.658322 -197.662359 
L 281.955282 -194.533383 
L 280.252242 -192.84341 
L 278.549202 -194.097062 
L 276.846162 -199.652942 
L 275.143122 -208.682633 
L 273.440082 -219.218111 
L 271.737042 -228.987935 
L 270.034002 -236.914929 
L 268.330962 -243.504682 
L 266.627921 -250.573716 
L 264.924881 -259.190128 
L 263.221841 -268.442763 
L 261.518801 -276.035146 
L 259.815761 -279.789152 
L 258.112721 -279.731792 
L 256.409681 -279.094759 
L 254.706641 -281.506521 
L 253.003601 -288.100241 
L 251.300561 -296.269036 
L 249.597521 -300.898936 
L 247.894481 -298.535409 
L 246.191441 -289.658131 
L 244.488401 -280.32275 
L 242.785361 -278.124235 
L 241.08232 -287.328404 
L 239.37928 -306.2332 
L 237.67624 -327.438634 
L 235.9732 -343.008079 
L 234.27016 -349.18138 
L 232.56712 -348.057033 
L 230.86408 -345.139175 
L 229.16104 -345.899952 
L 227.458 -351.013492 
L 225.75496 -356.306153 
L 224.05192 -355.84787 
L 222.34888 -345.768366 
L 220.64584 -326.61033 
L 218.9428 -302.756547 
L 217.23976 -279.360439 
L 215.536719 -259.338963 
L 213.833679 -243.264637 
L 212.130639 -229.057965 
L 210.427599 -214.380733 
L 208.724559 -198.527495 
L 207.021519 -182.096444 
L 205.318479 -167.410252 
L 203.615439 -156.222677 
L 201.912399 -149.536175 
L 200.209359 -147.570053 
L 198.506319 -149.915644 
L 196.803279 -156.331244 
L 195.100239 -166.384927 
L 193.397199 -179.786597 
L 191.694159 -195.401929 
L 189.991118 -212.061896 
L 188.288078 -227.950415 
L 186.585038 -241.707528 
L 184.881998 -252.447379 
L 183.178958 -260.171706 
L 181.475918 -265.62936 
L 179.772878 -269.117045 
L 178.069838 -270.469835 
L 176.366798 -268.788825 
L 174.663758 -263.095447 
L 172.960718 -253.601715 
L 171.257678 -241.628419 
L 169.554638 -229.682996 
L 167.851598 -219.485087 
L 166.148558 -211.824675 
L 164.445517 -206.219748 
L 162.742477 -201.484894 
L 161.039437 -196.542222 
L 159.336397 -191.748378 
L 157.633357 -188.36809 
L 155.930317 -186.929177 
L 154.227277 -187.248764 
L 152.524237 -188.072344 
L 150.821197 -188.409666 
L 149.118157 -187.817756 
L 147.415117 -186.515138 
L 145.712077 -185.665817 
L 144.009037 -186.270541 
L 142.305997 -188.154962 
L 140.602957 -190.560538 
L 138.899916 -192.497657 
L 137.196876 -193.74345 
L 135.493836 -194.707246 
L 133.790796 -196.45502 
L 132.087756 -199.020123 
L 130.384716 -202.156773 
L 128.681676 -205.008741 
L 126.978636 -207.240529 
L 125.275596 -208.897744 
L 123.572556 -210.150829 
L 121.869516 -211.462456 
L 120.166476 -212.988927 
L 118.463436 -213.93004 
L 116.760396 -214.112652 
L 115.057356 -213.514992 
L 113.354315 -213.398798 
L 111.651275 -214.855888 
L 109.948235 -218.27377 
L 108.245195 -223.013584 
L 106.542155 -227.512121 
L 104.839115 -229.629737 
L 103.136075 -228.166588 
L 101.433035 -223.460314 
L 99.729995 -217.266402 
L 98.026955 -212.41781 
L 96.323915 -210.842835 
L 94.620875 -213.42532 
L 92.917835 -219.264896 
L 91.214795 -226.152411 
L 89.511755 -231.578695 
L 87.808714 -233.746718 
L 86.105674 -232.221865 
L 84.402634 -228.07929 
L 82.699594 -223.295729 
L 80.996554 -220.186073 
L 79.293514 -220.294531 
L 77.590474 -223.813764 
L 75.887434 -229.188063 
L 74.184394 -234.156989 
L 72.481354 -236.711728 
L 70.778314 -236.500475 
L 69.075274 -234.466343 
L 67.372234 -231.70223 
L 65.669194 -229.73152 
L 63.966154 -229.215439 
L 62.263113 -230.08797 
L 60.560073 -231.933521 
L 58.857033 -233.674317 
L 57.153993 -234.861153 
L 55.450953 -235.408315 
L 53.747913 -235.358614 
L 52.044873 -234.847438 
L 50.341833 -234.03128 
L 48.638793 -233.596813 
L 46.935753 -233.775304 
L 45.232713 -234.455165 
L 43.529673 -235.315428 
L 41.826633 -235.72457 
L 40.123593 -235.307568 
L 38.420552 -234.414754 
z
" style="stroke: #ff7f0e; stroke-opacity: 0.3"/>
    </defs>
    <g>
     <use xlink:href="#me5ee8b00a3" x="0" y="432" style="fill: #ff7f0e; fill-opacity: 0.3; stroke: #ff7f0e; stroke-opacity: 0.3"/>
    </g>
   </g>
   <g id="line2d_19">
    <path d="M 38.420552 169.826714 
L 40.123593 184.667735 
L 41.826633 193.416908 
L 43.529673 195.643237 
L 45.232713 193.985796 
L 46.935753 192.075729 
L 48.638793 192.272592 
L 50.341833 194.746295 
L 52.044873 197.991222 
L 53.747913 200.193659 
L 55.450953 200.386858 
L 57.153993 198.734543 
L 58.857033 196.228462 
L 60.560073 194.026735 
L 62.263113 192.9295 
L 63.966154 192.957457 
L 65.669194 193.355222 
L 67.372234 193.002517 
L 69.075274 191.336471 
L 70.778314 189.274164 
L 72.481354 189.357804 
L 74.184394 194.465687 
L 75.887434 205.651077 
L 77.590474 220.399309 
L 79.293514 233.041641 
L 80.996554 237.621771 
L 82.699594 231.847135 
L 84.402634 219.338383 
L 86.105674 208.282162 
L 87.808714 206.671592 
L 89.511755 217.21585 
L 91.214795 235.356037 
L 92.917835 251.677517 
L 94.620875 257.461421 
L 96.323915 249.860747 
L 99.729995 216.148513 
L 101.433035 206.013224 
L 103.136075 205.246598 
L 104.839115 210.823352 
L 106.542155 217.050717 
L 108.245195 219.350769 
L 109.948235 216.473371 
L 113.354315 204.779417 
L 115.057356 202.39039 
L 116.760396 204.257184 
L 120.166476 213.456046 
L 121.869516 213.742037 
L 123.572556 206.89645 
L 125.275596 192.635642 
L 126.978636 174.303012 
L 128.681676 158.073383 
L 130.384716 150.272624 
L 132.087756 154.022199 
L 133.790796 167.206765 
L 135.493836 183.374744 
L 137.196876 195.172697 
L 138.899916 198.135294 
L 140.602957 192.768722 
L 142.305997 183.709297 
L 144.009037 176.703386 
L 145.712077 175.335939 
L 147.415117 179.701182 
L 152.524237 202.390635 
L 155.930317 213.61441 
L 157.633357 218.719514 
L 159.336397 222.023892 
L 161.039437 220.963507 
L 162.742477 213.230846 
L 164.445517 198.508709 
L 167.851598 159.896397 
L 169.554638 144.984175 
L 171.257678 136.379396 
L 172.960718 132.291405 
L 174.663758 128.648634 
L 176.366798 122.211791 
L 178.069838 113.602035 
L 179.772878 107.441546 
L 181.475918 109.367795 
L 183.178958 121.776892 
L 186.585038 162.137009 
L 188.288078 178.61291 
L 189.991118 191.639538 
L 191.694159 206.614184 
L 193.397199 228.331312 
L 195.100239 254.983038 
L 196.803279 276.761348 
L 198.506319 281.521469 
L 200.209359 263.80937 
L 203.615439 198.43629 
L 205.318479 183.067897 
L 207.021519 188.656277 
L 208.724559 204.513577 
L 210.427599 212.079993 
L 212.130639 197.376056 
L 213.833679 160.273449 
L 215.536719 114.014001 
L 217.23976 75.844674 
L 218.9428 55.984789 
L 220.64584 52.757487 
L 222.34888 56.679802 
L 224.05192 59.221889 
L 225.75496 59.003042 
L 227.458 61.11888 
L 229.16104 71.117395 
L 230.86408 89.627076 
L 232.56712 111.931417 
L 234.27016 132.277303 
L 239.37928 182.425547 
L 241.08232 202.014992 
L 242.785361 216.697845 
L 244.488401 218.641412 
L 246.191441 204.762719 
L 249.597521 154.755167 
L 251.300561 138.403035 
L 253.003601 133.992368 
L 254.706641 137.77498 
L 256.409681 143.708573 
L 258.112721 148.783019 
L 259.815761 154.922366 
L 261.518801 166.425303 
L 263.221841 185.392935 
L 264.924881 209.069332 
L 266.627921 231.020734 
L 268.330962 245.306998 
L 270.034002 250.086547 
L 271.737042 248.189364 
L 273.440082 244.729575 
L 275.143122 243.777475 
L 276.846162 246.642448 
L 278.549202 252.249125 
L 280.252242 258.687426 
L 281.955282 264.434085 
L 283.658322 268.599991 
L 285.361362 270.584312 
L 287.064402 269.941366 
L 288.767442 266.8566 
L 290.470482 262.381372 
L 292.173522 258.263411 
L 293.876563 256.227468 
L 295.579603 257.105078 
L 297.282643 260.460276 
L 298.985683 264.600245 
L 300.688723 267.246329 
L 302.391763 266.303681 
L 304.094803 260.769542 
L 305.797843 251.51206 
L 307.500883 241.346806 
L 309.203923 234.24088 
L 310.906963 233.265078 
L 312.610003 238.431944 
L 314.313043 246.059919 
L 316.016083 250.457854 
L 317.719123 247.364928 
L 319.422164 236.649509 
L 321.125204 222.399495 
L 322.828244 209.99075 
L 324.531284 202.111104 
L 326.234324 196.848446 
L 327.937364 189.525817 
L 329.640404 176.911927 
L 331.343444 160.419345 
L 333.046484 145.645168 
L 334.749524 138.529637 
L 336.452564 140.73137 
L 338.155604 148.069728 
L 339.858644 153.225552 
L 341.561684 150.815631 
L 343.264724 140.945401 
L 344.967765 128.950248 
L 346.670805 121.442027 
L 348.373845 121.844933 
L 350.076885 128.452826 
L 351.779925 136.01869 
L 353.482965 139.354988 
L 355.186005 136.34882 
L 356.889045 128.451032 
L 358.592085 119.079731 
L 360.295125 111.461392 
L 361.998165 107.191901 
L 363.701205 106.085749 
L 365.404245 106.653086 
L 367.107285 106.96485 
L 368.810326 105.496786 
L 370.513366 101.827079 
L 372.216406 97.081812 
L 373.919446 93.800538 
L 375.622486 94.865798 
L 377.325526 101.674367 
L 379.028566 112.991878 
L 380.731606 125.177537 
L 382.434646 133.79127 
L 384.137686 135.897029 
L 385.840726 131.477911 
L 387.543766 123.441988 
L 389.246806 116.03056 
L 390.949846 112.917273 
L 392.652886 115.713051 
L 394.355927 123.486611 
L 396.058967 133.483221 
L 397.762007 142.419954 
L 399.465047 147.862356 
L 401.168087 149.037217 
L 402.871127 146.849257 
L 404.574167 142.839629 
L 406.277207 138.01093 
L 407.980247 132.26519 
L 409.683287 124.874153 
L 411.386327 115.985682 
L 413.089367 107.77882 
L 414.792407 103.950236 
L 416.495447 107.650955 
L 418.198487 118.892486 
L 419.901528 133.725008 
L 421.604568 145.882057 
L 423.307608 150.157222 
L 425.010648 145.539336 
L 426.713688 135.702267 
L 428.416728 126.833602 
L 430.119768 123.958677 
L 431.822808 128.481086 
L 433.525848 138.064124 
L 435.228888 148.380912 
L 436.931928 155.511535 
L 438.634968 157.487793 
L 440.338008 154.68868 
L 442.041048 149.467184 
L 443.744088 145.416057 
L 445.447129 146.303982 
L 447.150169 154.315175 
L 448.853209 168.534353 
L 450.556249 184.594539 
L 452.259289 196.484481 
L 453.962329 200.211266 
L 455.665369 196.860086 
L 457.368409 192.532132 
L 459.071449 194.421606 
L 460.774489 205.624313 
L 462.477529 222.219822 
L 464.180569 235.346677 
L 465.883609 237.433937 
L 467.586649 228.002923 
L 469.289689 214.60922 
L 470.99273 207.795714 
L 472.69577 213.31763 
L 474.39881 227.577059 
L 476.10185 239.770795 
L 477.80489 239.820079 
L 479.50793 226.12264 
L 481.21097 207.240584 
L 482.91401 196.220726 
L 484.61705 201.442819 
L 486.32009 220.639738 
L 488.02313 242.584889 
L 489.72617 255.28685 
L 491.42921 254.461797 
L 493.13225 246.020792 
L 494.83529 241.173627 
L 496.538331 247.760776 
L 499.944411 282.376809 
L 501.647451 291.020317 
L 503.350491 286.547609 
L 506.756571 261.225262 
L 508.459611 256.812318 
L 510.162651 260.931299 
L 511.865691 268.458414 
L 513.568731 272.928914 
L 515.271771 271.309833 
L 518.677851 258.87881 
L 520.380891 255.365489 
L 522.083932 255.216651 
L 523.786972 256.918248 
L 525.490012 258.437837 
L 527.193052 258.26175 
L 528.896092 255.335881 
L 530.599132 248.962436 
L 534.005212 230.188765 
L 535.708252 225.802021 
L 537.411292 231.328 
L 539.114332 247.408507 
L 540.817372 268.458828 
L 542.520412 284.702776 
L 544.223452 288.105833 
L 545.926492 278.215253 
L 547.629533 263.320677 
L 549.332573 255.267468 
L 551.035613 261.42842 
L 554.441693 298.166024 
L 556.144733 306.103478 
L 557.847773 298.531738 
L 561.253853 263.887264 
L 561.253853 263.887264 
" style="fill: none; stroke: #1f77b4; stroke-width: 1.5; stroke-linecap: square"/>
   </g>
   <g id="line2d_20">
    <path d="M 38.420552 200.061219 
L 40.123593 199.101005 
L 41.826633 198.635834 
L 43.529673 198.968407 
L 46.935753 200.504056 
L 48.638793 200.674867 
L 50.341833 200.275595 
L 53.747913 199.050897 
L 55.450953 198.910203 
L 57.153993 199.348551 
L 58.857033 200.44786 
L 62.263113 203.80876 
L 63.966154 204.833669 
L 65.669194 204.446068 
L 67.372234 202.492282 
L 69.075274 199.708438 
L 70.778314 197.555396 
L 72.481354 197.526366 
L 74.184394 200.287441 
L 77.590474 210.30425 
L 79.293514 213.605879 
L 80.996554 213.708096 
L 82.699594 210.678584 
L 84.402634 205.978652 
L 86.105674 201.85217 
L 87.808714 200.36012 
L 89.511755 202.53441 
L 91.214795 207.916131 
L 92.917835 214.69863 
L 94.620875 220.433238 
L 96.323915 222.998396 
L 98.026955 221.471695 
L 99.729995 216.601696 
L 101.433035 210.521144 
L 103.136075 205.817102 
L 104.839115 204.367192 
L 106.542155 206.531205 
L 108.245195 211.094641 
L 109.948235 216.015595 
L 111.651275 219.537363 
L 113.354315 220.989132 
L 115.057356 220.900048 
L 116.760396 220.434389 
L 118.463436 220.545753 
L 120.166476 221.476506 
L 125.275596 225.65803 
L 126.978636 227.307674 
L 128.681676 229.639531 
L 133.790796 238.461906 
L 135.493836 240.213904 
L 138.899916 242.686523 
L 140.602957 244.5429 
L 142.305997 246.727239 
L 144.009037 248.452515 
L 145.712077 248.980911 
L 147.415117 248.25591 
L 149.118157 247.060185 
L 150.821197 246.448639 
L 152.524237 246.90732 
L 154.227277 247.892154 
L 155.930317 248.154784 
L 157.633357 246.627915 
L 159.336397 243.166372 
L 162.742477 233.69338 
L 164.445517 228.867579 
L 166.148558 223.281886 
L 167.851598 215.719672 
L 169.554638 205.593995 
L 172.960718 181.916077 
L 174.663758 172.511391 
L 176.366798 166.842939 
L 178.069838 165.031772 
L 179.772878 166.273737 
L 181.475918 169.71929 
L 183.178958 175.124505 
L 184.881998 182.901278 
L 186.585038 193.625232 
L 188.288078 207.34853 
L 193.397199 255.60157 
L 195.100239 268.933824 
L 196.803279 279.037393 
L 198.506319 285.464652 
L 200.209359 287.884114 
L 201.912399 285.922431 
L 203.615439 279.261596 
L 205.318479 268.060067 
L 207.021519 253.365232 
L 210.427599 221.060649 
L 215.536719 176.135514 
L 217.23976 156.285072 
L 220.64584 108.839504 
L 222.34888 89.733703 
L 224.05192 79.693364 
L 225.75496 79.250224 
L 229.16104 89.597849 
L 230.86408 90.342164 
L 232.56712 87.516639 
L 234.27016 86.297449 
L 235.9732 92.555641 
L 237.67624 108.306608 
L 239.37928 129.594436 
L 241.08232 148.442486 
L 242.785361 157.69167 
L 244.488401 155.444747 
L 247.894481 137.203125 
L 249.597521 134.683353 
L 251.300561 139.39135 
L 253.003601 147.551325 
L 254.706641 154.134502 
L 256.409681 156.532927 
L 258.112721 155.983941 
L 259.815761 156.038565 
L 261.518801 159.619529 
L 263.221841 167.046385 
L 266.627921 184.937182 
L 271.737042 206.919937 
L 273.440082 216.784758 
L 275.143122 227.359861 
L 276.846162 236.360864 
L 278.549202 241.81203 
L 280.252242 243.168919 
L 281.955282 241.410175 
L 283.658322 238.307728 
L 285.361362 235.453725 
L 287.064402 233.68233 
L 288.767442 233.017647 
L 290.470482 232.932059 
L 292.173522 232.714771 
L 293.876563 231.717682 
L 295.579603 229.672274 
L 298.985683 224.329736 
L 300.688723 222.91051 
L 302.391763 223.060192 
L 304.094803 224.15455 
L 305.797843 224.697316 
L 307.500883 223.16363 
L 309.203923 219.049293 
L 310.906963 213.345442 
L 312.610003 208.080119 
L 314.313043 205.189859 
L 316.016083 205.398728 
L 319.422164 210.349796 
L 321.125204 211.037273 
L 322.828244 208.699464 
L 324.531284 203.377114 
L 326.234324 195.981911 
L 329.640404 179.745005 
L 331.343444 173.003937 
L 333.046484 168.344673 
L 334.749524 166.368044 
L 336.452564 167.105026 
L 338.155604 169.714218 
L 339.858644 172.541408 
L 341.561684 173.793592 
L 343.264724 172.425675 
L 344.967765 168.830281 
L 346.670805 164.789923 
L 348.373845 162.701457 
L 350.076885 164.362077 
L 351.779925 170.070982 
L 356.889045 194.97548 
L 358.592085 199.832252 
L 360.295125 202.208913 
L 361.998165 203.022925 
L 363.701205 203.367794 
L 365.404245 204.105037 
L 367.107285 205.721349 
L 368.810326 208.372829 
L 372.216406 215.331044 
L 373.919446 217.687231 
L 375.622486 217.630417 
L 377.325526 214.651831 
L 380.731606 204.940998 
L 382.434646 203.185104 
L 384.137686 206.052974 
L 385.840726 213.044365 
L 387.543766 221.557816 
L 389.246806 228.232325 
L 390.949846 230.791384 
L 392.652886 229.24057 
L 394.355927 225.684675 
L 396.058967 222.929205 
L 397.762007 222.838437 
L 399.465047 225.39401 
L 401.168087 228.978633 
L 402.871127 231.587961 
L 404.574167 232.085653 
L 406.277207 230.787429 
L 407.980247 229.092432 
L 409.683287 228.486716 
L 411.386327 229.624758 
L 413.089367 231.935813 
L 414.792407 233.964907 
L 416.495447 234.190539 
L 418.198487 231.896801 
L 419.901528 227.654693 
L 421.604568 223.11156 
L 423.307608 220.181382 
L 425.010648 220.098527 
L 426.713688 222.876394 
L 428.416728 227.48845 
L 431.822808 237.496123 
L 433.525848 241.892741 
L 435.228888 245.815154 
L 436.931928 248.815749 
L 438.634968 249.988391 
L 440.338008 248.696362 
L 443.744088 242.609798 
L 445.447129 242.498448 
L 447.150169 246.566898 
L 450.556249 260.819101 
L 452.259289 264.620033 
L 453.962329 263.93579 
L 455.665369 260.418446 
L 457.368409 257.347997 
L 459.071449 257.283766 
L 460.774489 260.351459 
L 462.477529 264.499636 
L 464.180569 267.370113 
L 465.883609 268.176632 
L 467.586649 268.056159 
L 469.289689 268.682439 
L 470.99273 270.447683 
L 472.69577 271.884361 
L 474.39881 270.918074 
L 476.10185 266.862998 
L 477.80489 261.40173 
L 479.50793 257.579031 
L 481.21097 257.503405 
L 482.91401 260.624356 
L 484.61705 264.06286 
L 486.32009 264.775197 
L 488.02313 261.877537 
L 489.72617 257.254428 
L 491.42921 254.028357 
L 493.13225 254.163175 
L 494.83529 257.134413 
L 496.538331 260.627025 
L 498.241371 262.514101 
L 499.944411 262.407985 
L 501.647451 261.592488 
L 503.350491 261.529776 
L 505.053531 262.407924 
L 506.756571 263.005349 
L 508.459611 261.956046 
L 510.162651 259.12775 
L 511.865691 255.934423 
L 513.568731 254.225263 
L 515.271771 254.792323 
L 518.677851 258.821321 
L 522.083932 261.283173 
L 523.786972 263.97817 
L 525.490012 268.684469 
L 527.193052 274.075713 
L 528.896092 277.633374 
L 530.599132 277.504593 
L 532.302172 274.01058 
L 534.005212 269.557749 
L 535.708252 266.913797 
L 537.411292 267.253768 
L 539.114332 269.476515 
L 540.817372 271.352028 
L 542.520412 271.463443 
L 544.223452 270.254378 
L 545.926492 269.421624 
L 547.629533 270.208798 
L 549.332573 272.165452 
L 551.035613 273.550668 
L 552.738653 272.971479 
L 554.441693 270.897815 
L 556.144733 269.575577 
L 557.847773 271.29827 
L 559.550813 276.411544 
L 561.253853 282.72129 
L 561.253853 282.72129 
" style="fill: none; stroke: #ff7f0e; stroke-width: 1.5; stroke-linecap: square"/>
   </g>
  </g>
  <g id="axes_2">
   <g id="PathCollection_1">
    <defs>
     <path id="C0_0_fa3ec1ea68" d="M 0 1.118034 
C 0.296506 1.118034 0.580908 1.000231 0.790569 0.790569 
C 1.000231 0.580908 1.118034 0.296506 1.118034 -0 
C 1.118034 -0.296506 1.000231 -0.580908 0.790569 -0.790569 
C 0.580908 -1.000231 0.296506 -1.118034 0 -1.118034 
C -0.296506 -1.118034 -0.580908 -1.000231 -0.790569 -0.790569 
C -1.000231 -0.580908 -1.118034 -0.296506 -1.118034 0 
C -1.118034 0.296506 -1.000231 0.580908 -0.790569 0.790569 
C -0.580908 1.000231 -0.296506 1.118034 0 1.118034 
z
"/>
    </defs>
    <g clip-path="url(#paa2b997d44)">
     <use xlink:href="#C0_0_fa3ec1ea68" x="499.567875" y="98.954913" style="stroke: #000000"/>
    </g>
    <g clip-path="url(#paa2b997d44)">
     <use xlink:href="#C0_0_fa3ec1ea68" x="508.857445" y="99.041609" style="stroke: #000000"/>
    </g>
   </g>
   <g id="matplotlib.axis_3"/>
   <g id="matplotlib.axis_4"/>
   <g id="line2d_21">
    <path d="M 548.859194 73.63672 
L 548.781507 71.164689 
L 548.548754 68.702415 
L 548.161852 66.259613 
L 547.622329 63.845926 
L 546.932314 61.470879 
L 546.09453 59.143845 
L 545.112284 56.874007 
L 543.989451 54.670325 
L 542.730464 52.541494 
L 541.340291 50.495916 
L 539.824418 48.541664 
L 538.188828 46.686451 
L 536.439975 44.937599 
L 534.584762 43.302008 
L 532.630511 41.786136 
L 530.584933 40.395962 
L 528.456102 39.136975 
L 526.252419 38.014143 
L 523.982582 37.031896 
L 521.655547 36.194112 
L 519.2805 35.504097 
L 516.866813 34.964574 
L 514.424012 34.577673 
L 511.961737 34.344919 
L 509.489707 34.267233 
L 507.017676 34.344919 
L 504.555402 34.577673 
L 502.1126 34.964574 
L 499.698913 35.504097 
L 497.323866 36.194112 
L 494.996832 37.031896 
L 492.726994 38.014143 
L 490.523312 39.136975 
L 488.394481 40.395962 
L 486.348903 41.786136 
L 484.394651 43.302008 
L 482.539438 44.937599 
L 480.790586 46.686451 
L 479.154995 48.541664 
L 477.639123 50.495916 
L 476.248949 52.541494 
L 474.989962 54.670325 
L 473.86713 56.874007 
L 472.884883 59.143845 
L 472.047099 61.470879 
L 471.357084 63.845926 
L 470.817561 66.259613 
L 470.43066 68.702415 
L 470.197906 71.164689 
L 470.12022 73.63672 
L 470.197906 76.10875 
L 470.43066 78.571025 
L 470.817561 81.013826 
L 471.357084 83.427513 
L 472.047099 85.80256 
L 472.884883 88.129595 
L 473.86713 90.399432 
L 474.989962 92.603115 
L 476.248949 94.731946 
L 477.639123 96.777524 
L 479.154995 98.731775 
L 480.790586 100.586988 
L 482.539438 102.335841 
L 484.394651 103.971431 
L 486.348903 105.487304 
L 488.394481 106.877477 
L 490.523312 108.136464 
L 492.726994 109.259297 
L 494.996832 110.241543 
L 497.323866 111.079327 
L 499.698913 111.769342 
L 502.1126 112.308865 
L 504.555402 112.695767 
L 507.017676 112.92852 
L 509.489707 113.006207 
L 511.961737 112.92852 
L 514.424012 112.695767 
L 516.866813 112.308865 
L 519.2805 111.769342 
L 521.655547 111.079327 
L 523.982582 110.241543 
L 526.252419 109.259297 
L 528.456102 108.136464 
L 530.584933 106.877477 
L 532.630511 105.487304 
L 534.584762 103.971431 
L 536.439975 102.335841 
L 538.188828 100.586988 
L 539.824418 98.731775 
L 541.340291 96.777524 
L 542.730464 94.731946 
L 543.989451 92.603115 
L 545.112284 90.399432 
L 546.09453 88.129595 
L 546.932314 85.80256 
L 547.622329 83.427513 
L 548.161852 81.013826 
L 548.548754 78.571025 
L 548.781507 76.10875 
L 548.859194 73.63672 
" style="fill: none; stroke: #000000; stroke-linecap: square"/>
   </g>
   <g id="line2d_22">
    <path d="M 501.244181 35.140385 
L 509.489707 28.361809 
L 517.735233 35.140385 
" style="fill: none; stroke: #000000; stroke-linecap: square"/>
   </g>
   <g id="line2d_23">
    <path d="M 470.356436 69.266707 
L 469.33283 67.534449 
L 468.702918 67.471458 
L 467.765924 67.762792 
L 466.821057 69.266707 
L 466.970661 74.069784 
L 466.419488 80.975192 
L 467.600572 83.975147 
L 469.33283 84.534194 
L 470.986348 83.077523 
" style="fill: none; stroke: #000000; stroke-linecap: square"/>
   </g>
   <g id="line2d_24">
    <path d="M 548.622977 69.266707 
L 549.646584 67.534449 
L 550.276495 67.471458 
L 551.213489 67.762792 
L 552.158357 69.266707 
L 552.008753 74.069784 
L 552.559926 80.975192 
L 551.378841 83.975147 
L 549.646584 84.534194 
L 547.993065 83.077523 
" style="fill: none; stroke: #000000; stroke-linecap: square"/>
   </g>
  </g>
 </g>
 <defs>
  <clipPath id="pa4bc10d439">
   <rect x="38.420552" y="18.118365" width="523.446395" height="380.525145"/>
  </clipPath>
  <clipPath id="paa2b997d44">
   <rect x="462.112466" y="24.12959" width="94.754482" height="93.108837"/>
  </clipPath>
 </defs>
</svg>
