<?xml version="1.0" encoding="utf-8" standalone="no"?>
<!DOCTYPE svg PUBLIC "-//W3C//DTD SVG 1.1//EN"
  "http://www.w3.org/Graphics/SVG/1.1/DTD/svg11.dtd">
<svg xmlns:xlink="http://www.w3.org/1999/xlink" width="576pt" height="432pt" viewBox="0 0 576 432" xmlns="http://www.w3.org/2000/svg" version="1.1">
 <metadata>
  <rdf:RDF xmlns:dc="http://purl.org/dc/elements/1.1/" xmlns:cc="http://creativecommons.org/ns#" xmlns:rdf="http://www.w3.org/1999/02/22-rdf-syntax-ns#">
   <cc:Work>
    <dc:type rdf:resource="http://purl.org/dc/dcmitype/StillImage"/>
    <dc:date>2025-02-20T17:23:33.799444</dc:date>
    <dc:format>image/svg+xml</dc:format>
    <dc:creator>
     <cc:Agent>
      <dc:title>Matplotlib v3.10.0, https://matplotlib.org/</dc:title>
     </cc:Agent>
    </dc:creator>
   </cc:Work>
  </rdf:RDF>
 </metadata>
 <defs>
  <style type="text/css">*{stroke-linejoin: round; stroke-linecap: butt}</style>
 </defs>
 <g id="figure_1">
  <g id="patch_1">
   <path d="M 0 432 
L 576 432 
L 576 0 
L 0 0 
z
" style="fill: #ffffff"/>
  </g>
  <g id="axes_1">
   <g id="patch_2">
    <path d="M 44.783053 398.64351 
L 561.866947 398.64351 
L 561.866947 18.118365 
L 44.783053 18.118365 
L 44.783053 398.64351 
z
" style="fill: none; opacity: 0"/>
   </g>
   <g id="patch_3">
    <path d="M 44.783053 372.098851 
L 44.783053 44.663024 
" style="fill: none; stroke: #000000; stroke-width: 0.8; stroke-linejoin: miter; stroke-linecap: square"/>
   </g>
   <g id="LineCollection_1">
    <path d="M 182.869486 18.118365 
L 182.869486 398.64351 
" clip-path="url(#p8fc9c9c3c5)" style="fill: none; stroke-dasharray: 3.7,1.6; stroke-dashoffset: 0; stroke: #000000"/>
    <path d="M 225.937379 18.118365 
L 225.937379 398.64351 
" clip-path="url(#p8fc9c9c3c5)" style="fill: none; stroke-dasharray: 3.7,1.6; stroke-dashoffset: 0; stroke: #000000"/>
   </g>
   <g id="matplotlib.axis_1">
    <g id="xtick_1">
     <g id="line2d_1">
      <defs>
       <path id="m7be486e718" d="M 0 0 
L 0 3.5 
" style="stroke: #000000; stroke-width: 0.8"/>
      </defs>
      <g>
       <use xlink:href="#m7be486e718" x="45.052227" y="398.64351" style="stroke: #000000; stroke-width: 0.8"/>
      </g>
     </g>
     <g id="text_1">
      <!-- −0.20 -->
      <g transform="translate(29.729571 413.241947) scale(0.1 -0.1)">
       <defs>
        <path id="DejaVuSans-2212" d="M 678 2272 
L 4684 2272 
L 4684 1741 
L 678 1741 
L 678 2272 
z
" transform="scale(0.015625)"/>
        <path id="DejaVuSans-30" d="M 2034 4250 
Q 1547 4250 1301 3770 
Q 1056 3291 1056 2328 
Q 1056 1369 1301 889 
Q 1547 409 2034 409 
Q 2525 409 2770 889 
Q 3016 1369 3016 2328 
Q 3016 3291 2770 3770 
Q 2525 4250 2034 4250 
z
M 2034 4750 
Q 2819 4750 3233 4129 
Q 3647 3509 3647 2328 
Q 3647 1150 3233 529 
Q 2819 -91 2034 -91 
Q 1250 -91 836 529 
Q 422 1150 422 2328 
Q 422 3509 836 4129 
Q 1250 4750 2034 4750 
z
" transform="scale(0.015625)"/>
        <path id="DejaVuSans-2e" d="M 684 794 
L 1344 794 
L 1344 0 
L 684 0 
L 684 794 
z
" transform="scale(0.015625)"/>
        <path id="DejaVuSans-32" d="M 1228 531 
L 3431 531 
L 3431 0 
L 469 0 
L 469 531 
Q 828 903 1448 1529 
Q 2069 2156 2228 2338 
Q 2531 2678 2651 2914 
Q 2772 3150 2772 3378 
Q 2772 3750 2511 3984 
Q 2250 4219 1831 4219 
Q 1534 4219 1204 4116 
Q 875 4013 500 3803 
L 500 4441 
Q 881 4594 1212 4672 
Q 1544 4750 1819 4750 
Q 2544 4750 2975 4387 
Q 3406 4025 3406 3419 
Q 3406 3131 3298 2873 
Q 3191 2616 2906 2266 
Q 2828 2175 2409 1742 
Q 1991 1309 1228 531 
z
" transform="scale(0.015625)"/>
       </defs>
       <use xlink:href="#DejaVuSans-2212"/>
       <use xlink:href="#DejaVuSans-30" transform="translate(83.789062 0)"/>
       <use xlink:href="#DejaVuSans-2e" transform="translate(147.412109 0)"/>
       <use xlink:href="#DejaVuSans-32" transform="translate(179.199219 0)"/>
       <use xlink:href="#DejaVuSans-30" transform="translate(242.822266 0)"/>
      </g>
     </g>
    </g>
    <g id="xtick_2">
     <g id="line2d_2">
      <g>
       <use xlink:href="#m7be486e718" x="131.188014" y="398.64351" style="stroke: #000000; stroke-width: 0.8"/>
      </g>
     </g>
     <g id="text_2">
      <!-- 0.00 -->
      <g transform="translate(120.055201 413.241947) scale(0.1 -0.1)">
       <use xlink:href="#DejaVuSans-30"/>
       <use xlink:href="#DejaVuSans-2e" transform="translate(63.623047 0)"/>
       <use xlink:href="#DejaVuSans-30" transform="translate(95.410156 0)"/>
       <use xlink:href="#DejaVuSans-30" transform="translate(159.033203 0)"/>
      </g>
     </g>
    </g>
    <g id="xtick_3">
     <g id="line2d_3">
      <g>
       <use xlink:href="#m7be486e718" x="182.869486" y="398.64351" style="stroke: #000000; stroke-width: 0.8"/>
      </g>
     </g>
     <g id="text_3">
      <!-- 0.12 -->
      <g transform="translate(171.736673 413.241947) scale(0.1 -0.1)">
       <defs>
        <path id="DejaVuSans-31" d="M 794 531 
L 1825 531 
L 1825 4091 
L 703 3866 
L 703 4441 
L 1819 4666 
L 2450 4666 
L 2450 531 
L 3481 531 
L 3481 0 
L 794 0 
L 794 531 
z
" transform="scale(0.015625)"/>
       </defs>
       <use xlink:href="#DejaVuSans-30"/>
       <use xlink:href="#DejaVuSans-2e" transform="translate(63.623047 0)"/>
       <use xlink:href="#DejaVuSans-31" transform="translate(95.410156 0)"/>
       <use xlink:href="#DejaVuSans-32" transform="translate(159.033203 0)"/>
      </g>
     </g>
    </g>
    <g id="xtick_4">
     <g id="line2d_4">
      <g>
       <use xlink:href="#m7be486e718" x="217.3238" y="398.64351" style="stroke: #000000; stroke-width: 0.8"/>
      </g>
     </g>
     <g id="text_4">
      <!-- 0.20 -->
      <g transform="translate(206.190988 413.241947) scale(0.1 -0.1)">
       <use xlink:href="#DejaVuSans-30"/>
       <use xlink:href="#DejaVuSans-2e" transform="translate(63.623047 0)"/>
       <use xlink:href="#DejaVuSans-32" transform="translate(95.410156 0)"/>
       <use xlink:href="#DejaVuSans-30" transform="translate(159.033203 0)"/>
      </g>
     </g>
    </g>
    <g id="xtick_5">
     <g id="line2d_5">
      <g>
       <use xlink:href="#m7be486e718" x="225.937379" y="398.64351" style="stroke: #000000; stroke-width: 0.8"/>
      </g>
     </g>
     <g id="text_5">
      <!-- 0.22 -->
      <g transform="translate(214.804567 413.241947) scale(0.1 -0.1)">
       <use xlink:href="#DejaVuSans-30"/>
       <use xlink:href="#DejaVuSans-2e" transform="translate(63.623047 0)"/>
       <use xlink:href="#DejaVuSans-32" transform="translate(95.410156 0)"/>
       <use xlink:href="#DejaVuSans-32" transform="translate(159.033203 0)"/>
      </g>
     </g>
    </g>
    <g id="xtick_6">
     <g id="line2d_6">
      <g>
       <use xlink:href="#m7be486e718" x="303.459587" y="398.64351" style="stroke: #000000; stroke-width: 0.8"/>
      </g>
     </g>
     <g id="text_6">
      <!-- 0.40 -->
      <g transform="translate(292.326775 413.241947) scale(0.1 -0.1)">
       <defs>
        <path id="DejaVuSans-34" d="M 2419 4116 
L 825 1625 
L 2419 1625 
L 2419 4116 
z
M 2253 4666 
L 3047 4666 
L 3047 1625 
L 3713 1625 
L 3713 1100 
L 3047 1100 
L 3047 0 
L 2419 0 
L 2419 1100 
L 313 1100 
L 313 1709 
L 2253 4666 
z
" transform="scale(0.015625)"/>
       </defs>
       <use xlink:href="#DejaVuSans-30"/>
       <use xlink:href="#DejaVuSans-2e" transform="translate(63.623047 0)"/>
       <use xlink:href="#DejaVuSans-34" transform="translate(95.410156 0)"/>
       <use xlink:href="#DejaVuSans-30" transform="translate(159.033203 0)"/>
      </g>
     </g>
    </g>
    <g id="xtick_7">
     <g id="line2d_7">
      <g>
       <use xlink:href="#m7be486e718" x="389.595374" y="398.64351" style="stroke: #000000; stroke-width: 0.8"/>
      </g>
     </g>
     <g id="text_7">
      <!-- 0.60 -->
      <g transform="translate(378.462561 413.241947) scale(0.1 -0.1)">
       <defs>
        <path id="DejaVuSans-36" d="M 2113 2584 
Q 1688 2584 1439 2293 
Q 1191 2003 1191 1497 
Q 1191 994 1439 701 
Q 1688 409 2113 409 
Q 2538 409 2786 701 
Q 3034 994 3034 1497 
Q 3034 2003 2786 2293 
Q 2538 2584 2113 2584 
z
M 3366 4563 
L 3366 3988 
Q 3128 4100 2886 4159 
Q 2644 4219 2406 4219 
Q 1781 4219 1451 3797 
Q 1122 3375 1075 2522 
Q 1259 2794 1537 2939 
Q 1816 3084 2150 3084 
Q 2853 3084 3261 2657 
Q 3669 2231 3669 1497 
Q 3669 778 3244 343 
Q 2819 -91 2113 -91 
Q 1303 -91 875 529 
Q 447 1150 447 2328 
Q 447 3434 972 4092 
Q 1497 4750 2381 4750 
Q 2619 4750 2861 4703 
Q 3103 4656 3366 4563 
z
" transform="scale(0.015625)"/>
       </defs>
       <use xlink:href="#DejaVuSans-30"/>
       <use xlink:href="#DejaVuSans-2e" transform="translate(63.623047 0)"/>
       <use xlink:href="#DejaVuSans-36" transform="translate(95.410156 0)"/>
       <use xlink:href="#DejaVuSans-30" transform="translate(159.033203 0)"/>
      </g>
     </g>
    </g>
    <g id="xtick_8">
     <g id="line2d_8">
      <g>
       <use xlink:href="#m7be486e718" x="475.731161" y="398.64351" style="stroke: #000000; stroke-width: 0.8"/>
      </g>
     </g>
     <g id="text_8">
      <!-- 0.80 -->
      <g transform="translate(464.598348 413.241947) scale(0.1 -0.1)">
       <defs>
        <path id="DejaVuSans-38" d="M 2034 2216 
Q 1584 2216 1326 1975 
Q 1069 1734 1069 1313 
Q 1069 891 1326 650 
Q 1584 409 2034 409 
Q 2484 409 2743 651 
Q 3003 894 3003 1313 
Q 3003 1734 2745 1975 
Q 2488 2216 2034 2216 
z
M 1403 2484 
Q 997 2584 770 2862 
Q 544 3141 544 3541 
Q 544 4100 942 4425 
Q 1341 4750 2034 4750 
Q 2731 4750 3128 4425 
Q 3525 4100 3525 3541 
Q 3525 3141 3298 2862 
Q 3072 2584 2669 2484 
Q 3125 2378 3379 2068 
Q 3634 1759 3634 1313 
Q 3634 634 3220 271 
Q 2806 -91 2034 -91 
Q 1263 -91 848 271 
Q 434 634 434 1313 
Q 434 1759 690 2068 
Q 947 2378 1403 2484 
z
M 1172 3481 
Q 1172 3119 1398 2916 
Q 1625 2713 2034 2713 
Q 2441 2713 2670 2916 
Q 2900 3119 2900 3481 
Q 2900 3844 2670 4047 
Q 2441 4250 2034 4250 
Q 1625 4250 1398 4047 
Q 1172 3844 1172 3481 
z
" transform="scale(0.015625)"/>
       </defs>
       <use xlink:href="#DejaVuSans-30"/>
       <use xlink:href="#DejaVuSans-2e" transform="translate(63.623047 0)"/>
       <use xlink:href="#DejaVuSans-38" transform="translate(95.410156 0)"/>
       <use xlink:href="#DejaVuSans-30" transform="translate(159.033203 0)"/>
      </g>
     </g>
    </g>
    <g id="xtick_9">
     <g id="line2d_9">
      <g>
       <use xlink:href="#m7be486e718" x="561.866947" y="398.64351" style="stroke: #000000; stroke-width: 0.8"/>
      </g>
     </g>
     <g id="text_9">
      <!-- 1.00 -->
      <g transform="translate(550.734135 413.241947) scale(0.1 -0.1)">
       <use xlink:href="#DejaVuSans-31"/>
       <use xlink:href="#DejaVuSans-2e" transform="translate(63.623047 0)"/>
       <use xlink:href="#DejaVuSans-30" transform="translate(95.410156 0)"/>
       <use xlink:href="#DejaVuSans-30" transform="translate(159.033203 0)"/>
      </g>
     </g>
    </g>
    <g id="text_10">
     <!-- Time (s) -->
     <g transform="translate(282.996094 426.920073) scale(0.1 -0.1)">
      <defs>
       <path id="DejaVuSans-54" d="M -19 4666 
L 3928 4666 
L 3928 4134 
L 2272 4134 
L 2272 0 
L 1638 0 
L 1638 4134 
L -19 4134 
L -19 4666 
z
" transform="scale(0.015625)"/>
       <path id="DejaVuSans-69" d="M 603 3500 
L 1178 3500 
L 1178 0 
L 603 0 
L 603 3500 
z
M 603 4863 
L 1178 4863 
L 1178 4134 
L 603 4134 
L 603 4863 
z
" transform="scale(0.015625)"/>
       <path id="DejaVuSans-6d" d="M 3328 2828 
Q 3544 3216 3844 3400 
Q 4144 3584 4550 3584 
Q 5097 3584 5394 3201 
Q 5691 2819 5691 2113 
L 5691 0 
L 5113 0 
L 5113 2094 
Q 5113 2597 4934 2840 
Q 4756 3084 4391 3084 
Q 3944 3084 3684 2787 
Q 3425 2491 3425 1978 
L 3425 0 
L 2847 0 
L 2847 2094 
Q 2847 2600 2669 2842 
Q 2491 3084 2119 3084 
Q 1678 3084 1418 2786 
Q 1159 2488 1159 1978 
L 1159 0 
L 581 0 
L 581 3500 
L 1159 3500 
L 1159 2956 
Q 1356 3278 1631 3431 
Q 1906 3584 2284 3584 
Q 2666 3584 2933 3390 
Q 3200 3197 3328 2828 
z
" transform="scale(0.015625)"/>
       <path id="DejaVuSans-65" d="M 3597 1894 
L 3597 1613 
L 953 1613 
Q 991 1019 1311 708 
Q 1631 397 2203 397 
Q 2534 397 2845 478 
Q 3156 559 3463 722 
L 3463 178 
Q 3153 47 2828 -22 
Q 2503 -91 2169 -91 
Q 1331 -91 842 396 
Q 353 884 353 1716 
Q 353 2575 817 3079 
Q 1281 3584 2069 3584 
Q 2775 3584 3186 3129 
Q 3597 2675 3597 1894 
z
M 3022 2063 
Q 3016 2534 2758 2815 
Q 2500 3097 2075 3097 
Q 1594 3097 1305 2825 
Q 1016 2553 972 2059 
L 3022 2063 
z
" transform="scale(0.015625)"/>
       <path id="DejaVuSans-20" transform="scale(0.015625)"/>
       <path id="DejaVuSans-28" d="M 1984 4856 
Q 1566 4138 1362 3434 
Q 1159 2731 1159 2009 
Q 1159 1288 1364 580 
Q 1569 -128 1984 -844 
L 1484 -844 
Q 1016 -109 783 600 
Q 550 1309 550 2009 
Q 550 2706 781 3412 
Q 1013 4119 1484 4856 
L 1984 4856 
z
" transform="scale(0.015625)"/>
       <path id="DejaVuSans-73" d="M 2834 3397 
L 2834 2853 
Q 2591 2978 2328 3040 
Q 2066 3103 1784 3103 
Q 1356 3103 1142 2972 
Q 928 2841 928 2578 
Q 928 2378 1081 2264 
Q 1234 2150 1697 2047 
L 1894 2003 
Q 2506 1872 2764 1633 
Q 3022 1394 3022 966 
Q 3022 478 2636 193 
Q 2250 -91 1575 -91 
Q 1294 -91 989 -36 
Q 684 19 347 128 
L 347 722 
Q 666 556 975 473 
Q 1284 391 1588 391 
Q 1994 391 2212 530 
Q 2431 669 2431 922 
Q 2431 1156 2273 1281 
Q 2116 1406 1581 1522 
L 1381 1569 
Q 847 1681 609 1914 
Q 372 2147 372 2553 
Q 372 3047 722 3315 
Q 1072 3584 1716 3584 
Q 2034 3584 2315 3537 
Q 2597 3491 2834 3397 
z
" transform="scale(0.015625)"/>
       <path id="DejaVuSans-29" d="M 513 4856 
L 1013 4856 
Q 1481 4119 1714 3412 
Q 1947 2706 1947 2009 
Q 1947 1309 1714 600 
Q 1481 -109 1013 -844 
L 513 -844 
Q 928 -128 1133 580 
Q 1338 1288 1338 2009 
Q 1338 2731 1133 3434 
Q 928 4138 513 4856 
z
" transform="scale(0.015625)"/>
      </defs>
      <use xlink:href="#DejaVuSans-54"/>
      <use xlink:href="#DejaVuSans-69" transform="translate(57.958984 0)"/>
      <use xlink:href="#DejaVuSans-6d" transform="translate(85.742188 0)"/>
      <use xlink:href="#DejaVuSans-65" transform="translate(183.154297 0)"/>
      <use xlink:href="#DejaVuSans-20" transform="translate(244.677734 0)"/>
      <use xlink:href="#DejaVuSans-28" transform="translate(276.464844 0)"/>
      <use xlink:href="#DejaVuSans-73" transform="translate(315.478516 0)"/>
      <use xlink:href="#DejaVuSans-29" transform="translate(367.578125 0)"/>
     </g>
    </g>
   </g>
   <g id="matplotlib.axis_2">
    <g id="ytick_1">
     <g id="line2d_10">
      <defs>
       <path id="m8507e38973" d="M 0 0 
L -3.5 0 
" style="stroke: #000000; stroke-width: 0.8"/>
      </defs>
      <g>
       <use xlink:href="#m8507e38973" x="44.783053" y="372.098851" style="stroke: #000000; stroke-width: 0.8"/>
      </g>
     </g>
     <g id="text_11">
      <!-- −10 -->
      <g transform="translate(16.678365 375.89807) scale(0.1 -0.1)">
       <use xlink:href="#DejaVuSans-2212"/>
       <use xlink:href="#DejaVuSans-31" transform="translate(83.789062 0)"/>
       <use xlink:href="#DejaVuSans-30" transform="translate(147.412109 0)"/>
      </g>
     </g>
    </g>
    <g id="ytick_2">
     <g id="line2d_11">
      <g>
       <use xlink:href="#m8507e38973" x="44.783053" y="290.239894" style="stroke: #000000; stroke-width: 0.8"/>
      </g>
     </g>
     <g id="text_12">
      <!-- −5 -->
      <g transform="translate(23.040865 294.039113) scale(0.1 -0.1)">
       <defs>
        <path id="DejaVuSans-35" d="M 691 4666 
L 3169 4666 
L 3169 4134 
L 1269 4134 
L 1269 2991 
Q 1406 3038 1543 3061 
Q 1681 3084 1819 3084 
Q 2600 3084 3056 2656 
Q 3513 2228 3513 1497 
Q 3513 744 3044 326 
Q 2575 -91 1722 -91 
Q 1428 -91 1123 -41 
Q 819 9 494 109 
L 494 744 
Q 775 591 1075 516 
Q 1375 441 1709 441 
Q 2250 441 2565 725 
Q 2881 1009 2881 1497 
Q 2881 1984 2565 2268 
Q 2250 2553 1709 2553 
Q 1456 2553 1204 2497 
Q 953 2441 691 2322 
L 691 4666 
z
" transform="scale(0.015625)"/>
       </defs>
       <use xlink:href="#DejaVuSans-2212"/>
       <use xlink:href="#DejaVuSans-35" transform="translate(83.789062 0)"/>
      </g>
     </g>
    </g>
    <g id="ytick_3">
     <g id="line2d_12">
      <g>
       <use xlink:href="#m8507e38973" x="44.783053" y="208.380937" style="stroke: #000000; stroke-width: 0.8"/>
      </g>
     </g>
     <g id="text_13">
      <!-- 0 -->
      <g transform="translate(31.420553 212.180156) scale(0.1 -0.1)">
       <use xlink:href="#DejaVuSans-30"/>
      </g>
     </g>
    </g>
    <g id="ytick_4">
     <g id="line2d_13">
      <g>
       <use xlink:href="#m8507e38973" x="44.783053" y="126.521981" style="stroke: #000000; stroke-width: 0.8"/>
      </g>
     </g>
     <g id="text_14">
      <!-- 5 -->
      <g transform="translate(31.420553 130.3212) scale(0.1 -0.1)">
       <use xlink:href="#DejaVuSans-35"/>
      </g>
     </g>
    </g>
    <g id="ytick_5">
     <g id="line2d_14">
      <g>
       <use xlink:href="#m8507e38973" x="44.783053" y="44.663024" style="stroke: #000000; stroke-width: 0.8"/>
      </g>
     </g>
     <g id="text_15">
      <!-- 10 -->
      <g transform="translate(25.058053 48.462243) scale(0.1 -0.1)">
       <use xlink:href="#DejaVuSans-31"/>
       <use xlink:href="#DejaVuSans-30" transform="translate(63.623047 0)"/>
      </g>
     </g>
    </g>
    <g id="text_16">
     <!-- µV -->
     <g transform="translate(10.598678 214.9825) rotate(-90) scale(0.1 -0.1)">
      <defs>
       <path id="DejaVuSans-b5" d="M 544 -1331 
L 544 3500 
L 1119 3500 
L 1119 1325 
Q 1119 872 1334 640 
Q 1550 409 1972 409 
Q 2434 409 2667 671 
Q 2900 934 2900 1459 
L 2900 3500 
L 3475 3500 
L 3475 806 
Q 3475 619 3529 530 
Q 3584 441 3700 441 
Q 3728 441 3778 458 
Q 3828 475 3916 513 
L 3916 50 
Q 3788 -22 3673 -56 
Q 3559 -91 3450 -91 
Q 3234 -91 3106 31 
Q 2978 153 2931 403 
Q 2775 156 2548 32 
Q 2322 -91 2016 -91 
Q 1697 -91 1473 31 
Q 1250 153 1119 397 
L 1119 -1331 
L 544 -1331 
z
" transform="scale(0.015625)"/>
       <path id="DejaVuSans-56" d="M 1831 0 
L 50 4666 
L 709 4666 
L 2188 738 
L 3669 4666 
L 4325 4666 
L 2547 0 
L 1831 0 
z
" transform="scale(0.015625)"/>
      </defs>
      <use xlink:href="#DejaVuSans-b5"/>
      <use xlink:href="#DejaVuSans-56" transform="translate(63.623047 0)"/>
     </g>
    </g>
   </g>
   <g id="patch_4">
    <path d="M 45.052227 398.64351 
L 561.866947 398.64351 
" style="fill: none; stroke: #000000; stroke-width: 0.8; stroke-linejoin: miter; stroke-linecap: square"/>
   </g>
   <g id="patch_5">
    <path d="M 44.783052 208.380937 
L 561.866947 208.380937 
" style="fill: none; stroke: #000000; stroke-width: 0.8; stroke-linejoin: miter; stroke-linecap: square"/>
   </g>
   <g id="text_17">
    <!-- F3, F7 (median) -->
    <g transform="translate(255.894062 12.118365) scale(0.12 -0.12)">
     <defs>
      <path id="DejaVuSans-46" d="M 628 4666 
L 3309 4666 
L 3309 4134 
L 1259 4134 
L 1259 2759 
L 3109 2759 
L 3109 2228 
L 1259 2228 
L 1259 0 
L 628 0 
L 628 4666 
z
" transform="scale(0.015625)"/>
      <path id="DejaVuSans-33" d="M 2597 2516 
Q 3050 2419 3304 2112 
Q 3559 1806 3559 1356 
Q 3559 666 3084 287 
Q 2609 -91 1734 -91 
Q 1441 -91 1130 -33 
Q 819 25 488 141 
L 488 750 
Q 750 597 1062 519 
Q 1375 441 1716 441 
Q 2309 441 2620 675 
Q 2931 909 2931 1356 
Q 2931 1769 2642 2001 
Q 2353 2234 1838 2234 
L 1294 2234 
L 1294 2753 
L 1863 2753 
Q 2328 2753 2575 2939 
Q 2822 3125 2822 3475 
Q 2822 3834 2567 4026 
Q 2313 4219 1838 4219 
Q 1578 4219 1281 4162 
Q 984 4106 628 3988 
L 628 4550 
Q 988 4650 1302 4700 
Q 1616 4750 1894 4750 
Q 2613 4750 3031 4423 
Q 3450 4097 3450 3541 
Q 3450 3153 3228 2886 
Q 3006 2619 2597 2516 
z
" transform="scale(0.015625)"/>
      <path id="DejaVuSans-2c" d="M 750 794 
L 1409 794 
L 1409 256 
L 897 -744 
L 494 -744 
L 750 256 
L 750 794 
z
" transform="scale(0.015625)"/>
      <path id="DejaVuSans-37" d="M 525 4666 
L 3525 4666 
L 3525 4397 
L 1831 0 
L 1172 0 
L 2766 4134 
L 525 4134 
L 525 4666 
z
" transform="scale(0.015625)"/>
      <path id="DejaVuSans-64" d="M 2906 2969 
L 2906 4863 
L 3481 4863 
L 3481 0 
L 2906 0 
L 2906 525 
Q 2725 213 2448 61 
Q 2172 -91 1784 -91 
Q 1150 -91 751 415 
Q 353 922 353 1747 
Q 353 2572 751 3078 
Q 1150 3584 1784 3584 
Q 2172 3584 2448 3432 
Q 2725 3281 2906 2969 
z
M 947 1747 
Q 947 1113 1208 752 
Q 1469 391 1925 391 
Q 2381 391 2643 752 
Q 2906 1113 2906 1747 
Q 2906 2381 2643 2742 
Q 2381 3103 1925 3103 
Q 1469 3103 1208 2742 
Q 947 2381 947 1747 
z
" transform="scale(0.015625)"/>
      <path id="DejaVuSans-61" d="M 2194 1759 
Q 1497 1759 1228 1600 
Q 959 1441 959 1056 
Q 959 750 1161 570 
Q 1363 391 1709 391 
Q 2188 391 2477 730 
Q 2766 1069 2766 1631 
L 2766 1759 
L 2194 1759 
z
M 3341 1997 
L 3341 0 
L 2766 0 
L 2766 531 
Q 2569 213 2275 61 
Q 1981 -91 1556 -91 
Q 1019 -91 701 211 
Q 384 513 384 1019 
Q 384 1609 779 1909 
Q 1175 2209 1959 2209 
L 2766 2209 
L 2766 2266 
Q 2766 2663 2505 2880 
Q 2244 3097 1772 3097 
Q 1472 3097 1187 3025 
Q 903 2953 641 2809 
L 641 3341 
Q 956 3463 1253 3523 
Q 1550 3584 1831 3584 
Q 2591 3584 2966 3190 
Q 3341 2797 3341 1997 
z
" transform="scale(0.015625)"/>
      <path id="DejaVuSans-6e" d="M 3513 2113 
L 3513 0 
L 2938 0 
L 2938 2094 
Q 2938 2591 2744 2837 
Q 2550 3084 2163 3084 
Q 1697 3084 1428 2787 
Q 1159 2491 1159 1978 
L 1159 0 
L 581 0 
L 581 3500 
L 1159 3500 
L 1159 2956 
Q 1366 3272 1645 3428 
Q 1925 3584 2291 3584 
Q 2894 3584 3203 3211 
Q 3513 2838 3513 2113 
z
" transform="scale(0.015625)"/>
     </defs>
     <use xlink:href="#DejaVuSans-46"/>
     <use xlink:href="#DejaVuSans-33" transform="translate(57.519531 0)"/>
     <use xlink:href="#DejaVuSans-2c" transform="translate(121.142578 0)"/>
     <use xlink:href="#DejaVuSans-20" transform="translate(152.929688 0)"/>
     <use xlink:href="#DejaVuSans-46" transform="translate(184.716797 0)"/>
     <use xlink:href="#DejaVuSans-37" transform="translate(242.236328 0)"/>
     <use xlink:href="#DejaVuSans-20" transform="translate(305.859375 0)"/>
     <use xlink:href="#DejaVuSans-28" transform="translate(337.646484 0)"/>
     <use xlink:href="#DejaVuSans-6d" transform="translate(376.660156 0)"/>
     <use xlink:href="#DejaVuSans-65" transform="translate(474.072266 0)"/>
     <use xlink:href="#DejaVuSans-64" transform="translate(535.595703 0)"/>
     <use xlink:href="#DejaVuSans-69" transform="translate(599.072266 0)"/>
     <use xlink:href="#DejaVuSans-61" transform="translate(626.855469 0)"/>
     <use xlink:href="#DejaVuSans-6e" transform="translate(688.134766 0)"/>
     <use xlink:href="#DejaVuSans-29" transform="translate(751.513672 0)"/>
    </g>
   </g>
   <g id="legend_1">
    <g id="patch_6">
     <path d="M 51.783053 55.75274 
L 132.92524 55.75274 
Q 134.92524 55.75274 134.92524 53.75274 
L 134.92524 25.118365 
Q 134.92524 23.118365 132.92524 23.118365 
L 51.783053 23.118365 
Q 49.783053 23.118365 49.783053 25.118365 
L 49.783053 53.75274 
Q 49.783053 55.75274 51.783053 55.75274 
z
" style="fill: #ffffff; opacity: 0.8; stroke: #cccccc; stroke-linejoin: miter"/>
    </g>
    <g id="line2d_15">
     <path d="M 53.783053 31.216803 
L 63.783053 31.216803 
L 73.783052 31.216803 
" style="fill: none; stroke: #1f77b4; stroke-width: 1.5; stroke-linecap: square"/>
    </g>
    <g id="text_18">
     <!-- eerie -->
     <g transform="translate(81.783052 34.716803) scale(0.1 -0.1)">
      <defs>
       <path id="DejaVuSans-72" d="M 2631 2963 
Q 2534 3019 2420 3045 
Q 2306 3072 2169 3072 
Q 1681 3072 1420 2755 
Q 1159 2438 1159 1844 
L 1159 0 
L 581 0 
L 581 3500 
L 1159 3500 
L 1159 2956 
Q 1341 3275 1631 3429 
Q 1922 3584 2338 3584 
Q 2397 3584 2469 3576 
Q 2541 3569 2628 3553 
L 2631 2963 
z
" transform="scale(0.015625)"/>
      </defs>
      <use xlink:href="#DejaVuSans-65"/>
      <use xlink:href="#DejaVuSans-65" transform="translate(61.523438 0)"/>
      <use xlink:href="#DejaVuSans-72" transform="translate(123.046875 0)"/>
      <use xlink:href="#DejaVuSans-69" transform="translate(164.160156 0)"/>
      <use xlink:href="#DejaVuSans-65" transform="translate(191.943359 0)"/>
     </g>
    </g>
    <g id="line2d_16">
     <path d="M 53.783053 45.894928 
L 63.783053 45.894928 
L 73.783052 45.894928 
" style="fill: none; stroke: #ff7f0e; stroke-width: 1.5; stroke-linecap: square"/>
    </g>
    <g id="text_19">
     <!-- non_eerie -->
     <g transform="translate(81.783052 49.394928) scale(0.1 -0.1)">
      <defs>
       <path id="DejaVuSans-6f" d="M 1959 3097 
Q 1497 3097 1228 2736 
Q 959 2375 959 1747 
Q 959 1119 1226 758 
Q 1494 397 1959 397 
Q 2419 397 2687 759 
Q 2956 1122 2956 1747 
Q 2956 2369 2687 2733 
Q 2419 3097 1959 3097 
z
M 1959 3584 
Q 2709 3584 3137 3096 
Q 3566 2609 3566 1747 
Q 3566 888 3137 398 
Q 2709 -91 1959 -91 
Q 1206 -91 779 398 
Q 353 888 353 1747 
Q 353 2609 779 3096 
Q 1206 3584 1959 3584 
z
" transform="scale(0.015625)"/>
       <path id="DejaVuSans-5f" d="M 3263 -1063 
L 3263 -1509 
L -63 -1509 
L -63 -1063 
L 3263 -1063 
z
" transform="scale(0.015625)"/>
      </defs>
      <use xlink:href="#DejaVuSans-6e"/>
      <use xlink:href="#DejaVuSans-6f" transform="translate(63.378906 0)"/>
      <use xlink:href="#DejaVuSans-6e" transform="translate(124.560547 0)"/>
      <use xlink:href="#DejaVuSans-5f" transform="translate(187.939453 0)"/>
      <use xlink:href="#DejaVuSans-65" transform="translate(237.939453 0)"/>
      <use xlink:href="#DejaVuSans-65" transform="translate(299.462891 0)"/>
      <use xlink:href="#DejaVuSans-72" transform="translate(360.986328 0)"/>
      <use xlink:href="#DejaVuSans-69" transform="translate(402.099609 0)"/>
      <use xlink:href="#DejaVuSans-65" transform="translate(429.882812 0)"/>
     </g>
    </g>
   </g>
   <g id="FillBetweenPolyCollection_1">
    <defs>
     <path id="m23aae957f6" d="M 44.783052 -234.66562 
L 44.783052 -206.010398 
L 46.465392 -206.862442 
L 48.147732 -209.019522 
L 49.830071 -212.636122 
L 51.512411 -216.525034 
L 53.19475 -219.632272 
L 54.87709 -220.951528 
L 56.55943 -219.152101 
L 58.241769 -215.098976 
L 59.924109 -209.963634 
L 61.606448 -203.932333 
L 63.288788 -198.920343 
L 64.971128 -196.218012 
L 66.653467 -195.761614 
L 68.335807 -198.399669 
L 70.018146 -201.949222 
L 71.700486 -206.160251 
L 73.382825 -211.174943 
L 75.065165 -215.382013 
L 76.747505 -218.937701 
L 78.429844 -220.760498 
L 80.112184 -220.344239 
L 81.794523 -217.907181 
L 83.476863 -214.057698 
L 85.159203 -210.047062 
L 86.841542 -206.793817 
L 88.523882 -205.227706 
L 90.206221 -207.8354 
L 91.888561 -213.48621 
L 93.5709 -220.931793 
L 95.25324 -226.236123 
L 96.93558 -226.246188 
L 98.617919 -221.222417 
L 100.300259 -213.399077 
L 101.982598 -206.225043 
L 103.664938 -201.000982 
L 105.347278 -198.996651 
L 107.029617 -199.815646 
L 108.711957 -202.48906 
L 110.394296 -205.246579 
L 112.076636 -206.459598 
L 113.758976 -205.821665 
L 115.441315 -205.632934 
L 117.123655 -206.470851 
L 118.805994 -208.393376 
L 120.488334 -211.823005 
L 122.170673 -216.109945 
L 123.853013 -219.48042 
L 125.535353 -220.537687 
L 127.217692 -218.148442 
L 128.900032 -213.957327 
L 130.582371 -208.005275 
L 132.264711 -203.417408 
L 133.947051 -201.584173 
L 135.62939 -201.580118 
L 137.31173 -202.143794 
L 138.994069 -201.130083 
L 140.676409 -197.923961 
L 142.358748 -193.910536 
L 144.041088 -190.728892 
L 145.723428 -190.881862 
L 147.405767 -195.016756 
L 149.088107 -201.041851 
L 150.770446 -204.847385 
L 152.452786 -204.221033 
L 154.135126 -199.472346 
L 155.817465 -194.935062 
L 157.499805 -192.612063 
L 159.182144 -194.47375 
L 160.864484 -199.279369 
L 162.546823 -203.966055 
L 164.229163 -205.765186 
L 165.911503 -204.737188 
L 167.593842 -202.601725 
L 169.276182 -199.243902 
L 170.958521 -193.297515 
L 172.640861 -184.296059 
L 174.323201 -171.102319 
L 176.00554 -156.133217 
L 177.68788 -141.180738 
L 179.370219 -130.184521 
L 181.052559 -125.111159 
L 182.734899 -125.920977 
L 184.417238 -130.051144 
L 186.099578 -135.448873 
L 187.781917 -140.843395 
L 189.464257 -146.965929 
L 191.146596 -155.462978 
L 192.828936 -166.622597 
L 194.511276 -179.608781 
L 196.193615 -193.718365 
L 197.875955 -206.482123 
L 199.558294 -217.647731 
L 201.240634 -225.018917 
L 202.922974 -229.387569 
L 204.605313 -232.705119 
L 206.287653 -234.928445 
L 207.969992 -235.958985 
L 209.652332 -235.445018 
L 211.334671 -233.812483 
L 213.017011 -230.368226 
L 214.699351 -225.899601 
L 216.38169 -220.360082 
L 218.06403 -214.925109 
L 219.746369 -210.611759 
L 221.428709 -208.348516 
L 223.111049 -206.551321 
L 224.793388 -204.355264 
L 226.475728 -199.69566 
L 228.158067 -193.020878 
L 229.840407 -186.833746 
L 231.522746 -183.884901 
L 233.205086 -186.546562 
L 234.887426 -194.797627 
L 236.569765 -205.944235 
L 238.252105 -217.207071 
L 239.934444 -225.835759 
L 241.616784 -231.450695 
L 243.299124 -235.505184 
L 244.981463 -239.744213 
L 246.663803 -244.140536 
L 248.346142 -248.319621 
L 250.028482 -250.265284 
L 251.710822 -250.443494 
L 253.393161 -249.882918 
L 255.075501 -250.723435 
L 256.75784 -252.847465 
L 258.44018 -255.669032 
L 260.122519 -258.579036 
L 261.804859 -260.073394 
L 263.487199 -260.447687 
L 265.169538 -260.788036 
L 266.851878 -260.149536 
L 268.534217 -261.788481 
L 270.216557 -264.466076 
L 271.898897 -267.192312 
L 273.581236 -269.92439 
L 275.263576 -271.049026 
L 276.945915 -271.048053 
L 278.628255 -270.282717 
L 280.310594 -269.327792 
L 281.992934 -268.282738 
L 283.675274 -267.963655 
L 285.357613 -267.522316 
L 287.039953 -266.031605 
L 288.722292 -263.512112 
L 290.404632 -260.967741 
L 292.086972 -257.411128 
L 293.769311 -253.914971 
L 295.451651 -249.97292 
L 297.13399 -248.400547 
L 298.81633 -248.055916 
L 300.498669 -249.871392 
L 302.181009 -252.987495 
L 303.863349 -256.541781 
L 305.545688 -259.002514 
L 307.228028 -261.47571 
L 308.910367 -261.776697 
L 310.592707 -259.352618 
L 312.275047 -255.495981 
L 313.957386 -251.197387 
L 315.639726 -248.993354 
L 317.322065 -250.50989 
L 319.004405 -255.633489 
L 320.686745 -262.334431 
L 322.369084 -267.912249 
L 324.051424 -270.777844 
L 325.733763 -269.60002 
L 327.416103 -266.028243 
L 329.098442 -262.923738 
L 330.780782 -261.098279 
L 332.463122 -262.343722 
L 334.145461 -263.105784 
L 335.827801 -263.355909 
L 337.51014 -261.424124 
L 339.19248 -258.076961 
L 340.87482 -256.025998 
L 342.557159 -258.032843 
L 344.239499 -262.900879 
L 345.921838 -271.113251 
L 347.604178 -279.509316 
L 349.286517 -286.062123 
L 350.968857 -290.04218 
L 352.651197 -293.071259 
L 354.333536 -294.201861 
L 356.015876 -295.864099 
L 357.698215 -297.780428 
L 359.380555 -299.905158 
L 361.062895 -303.595862 
L 362.745234 -308.41625 
L 364.427574 -315.32915 
L 366.109913 -324.306003 
L 367.792253 -332.104786 
L 369.474593 -336.554639 
L 371.156932 -335.28962 
L 372.839272 -329.231776 
L 374.521611 -322.144647 
L 376.203951 -317.664479 
L 377.88629 -318.812683 
L 379.56863 -324.864162 
L 381.25097 -332.052111 
L 382.933309 -337.267488 
L 384.615649 -337.766297 
L 386.297988 -334.295845 
L 387.980328 -329.929118 
L 389.662668 -326.763097 
L 391.345007 -326.52013 
L 393.027347 -327.827055 
L 394.709686 -328.027954 
L 396.392026 -326.163344 
L 398.074365 -321.235016 
L 399.756705 -315.141095 
L 401.439045 -312.525437 
L 403.121384 -314.895445 
L 404.803724 -322.485545 
L 406.486063 -332.581099 
L 408.168403 -341.283271 
L 409.850743 -345.00318 
L 411.533082 -344.415702 
L 413.215422 -340.935637 
L 414.897761 -338.977465 
L 416.580101 -339.7641 
L 418.26244 -343.914774 
L 419.94478 -349.240471 
L 421.62712 -354.441034 
L 423.309459 -357.893852 
L 424.991799 -360.388207 
L 426.674138 -362.2665 
L 428.356478 -364.166285 
L 430.038818 -363.468228 
L 431.721157 -359.550761 
L 433.403497 -353.551239 
L 435.085836 -347.699859 
L 436.768176 -343.821682 
L 438.450516 -344.541396 
L 440.132855 -348.764724 
L 441.815195 -353.427627 
L 443.497534 -355.193908 
L 445.179874 -353.036004 
L 446.862213 -347.57621 
L 448.544553 -341.782553 
L 450.226893 -338.133106 
L 451.909232 -338.811842 
L 453.591572 -343.23507 
L 455.273911 -350.658784 
L 456.956251 -359.377253 
L 458.638591 -367.868833 
L 460.32093 -373.182058 
L 462.00327 -376.052095 
L 463.685609 -375.385196 
L 465.367949 -372.194194 
L 467.050288 -367.245988 
L 468.732628 -362.255276 
L 470.414968 -357.874388 
L 472.097307 -355.171932 
L 473.779647 -352.842532 
L 475.461986 -349.873869 
L 477.144326 -345.902067 
L 478.826666 -342.643872 
L 480.509005 -341.236732 
L 482.191345 -341.262225 
L 483.873684 -342.716616 
L 485.556024 -344.643325 
L 487.238363 -344.580532 
L 488.920703 -342.609798 
L 490.603043 -339.281924 
L 492.285382 -335.309734 
L 493.967722 -332.012134 
L 495.650061 -329.317639 
L 497.332401 -327.840317 
L 499.014741 -326.43466 
L 500.69708 -325.140792 
L 502.37942 -323.775864 
L 504.061759 -323.949807 
L 505.744099 -323.086021 
L 507.426439 -322.216212 
L 509.108778 -319.01786 
L 510.791118 -314.589136 
L 512.473457 -309.716015 
L 514.155797 -306.595649 
L 515.838136 -306.164434 
L 517.520476 -308.317681 
L 519.202816 -311.122555 
L 520.885155 -315.085388 
L 522.567495 -319.380487 
L 524.249834 -323.798552 
L 525.932174 -328.099492 
L 527.614514 -330.857017 
L 529.296853 -330.14236 
L 530.979193 -326.158696 
L 532.661532 -321.11666 
L 534.343872 -317.052989 
L 536.026211 -316.045688 
L 537.708551 -318.50039 
L 539.390891 -321.968846 
L 541.07323 -322.497981 
L 542.75557 -320.642644 
L 544.437909 -315.238075 
L 546.120249 -308.225068 
L 547.802589 -302.509321 
L 549.484928 -299.340242 
L 551.167268 -299.206614 
L 552.849607 -299.590928 
L 554.531947 -299.233143 
L 556.214286 -298.604535 
L 557.896626 -298.263743 
L 559.578966 -299.629715 
L 561.261305 -302.342339 
L 561.261305 -335.174415 
L 561.261305 -335.174415 
L 559.578966 -334.625178 
L 557.896626 -335.230392 
L 556.214286 -336.29395 
L 554.531947 -336.613741 
L 552.849607 -336.758963 
L 551.167268 -336.779397 
L 549.484928 -337.604381 
L 547.802589 -339.151446 
L 546.120249 -342.449825 
L 544.437909 -346.469798 
L 542.75557 -349.179185 
L 541.07323 -350.900327 
L 539.390891 -350.963086 
L 537.708551 -351.075988 
L 536.026211 -352.546453 
L 534.343872 -355.181576 
L 532.661532 -358.307074 
L 530.979193 -360.927559 
L 529.296853 -363.079314 
L 527.614514 -363.350508 
L 525.932174 -362.43136 
L 524.249834 -359.798956 
L 522.567495 -355.838867 
L 520.885155 -351.01269 
L 519.202816 -346.043245 
L 517.520476 -342.812347 
L 515.838136 -342.384196 
L 514.155797 -343.848314 
L 512.473457 -347.185131 
L 510.791118 -351.576039 
L 509.108778 -356.732474 
L 507.426439 -361.375147 
L 505.744099 -364.791713 
L 504.061759 -366.791451 
L 502.37942 -367.056496 
L 500.69708 -367.619228 
L 499.014741 -368.09417 
L 497.332401 -368.621278 
L 495.650061 -370.177483 
L 493.967722 -373.009392 
L 492.285382 -377.762787 
L 490.603043 -383.15677 
L 488.920703 -387.269327 
L 487.238363 -389.400021 
L 485.556024 -388.702517 
L 483.873684 -387.46963 
L 482.191345 -386.484436 
L 480.509005 -387.632784 
L 478.826666 -389.440186 
L 477.144326 -391.203841 
L 475.461986 -393.194601 
L 473.779647 -394.906815 
L 472.097307 -397.059241 
L 470.414968 -399.102956 
L 468.732628 -402.408628 
L 467.050288 -406.839979 
L 465.367949 -411.032327 
L 463.685609 -413.403544 
L 462.00327 -413.881635 
L 460.32093 -411.566997 
L 458.638591 -407.286712 
L 456.956251 -401.179408 
L 455.273911 -394.071785 
L 453.591572 -386.803535 
L 451.909232 -381.318333 
L 450.226893 -379.360932 
L 448.544553 -380.834839 
L 446.862213 -384.856738 
L 445.179874 -389.093954 
L 443.497534 -391.611524 
L 441.815195 -390.192208 
L 440.132855 -386.890442 
L 438.450516 -384.728863 
L 436.768176 -384.887447 
L 435.085836 -388.090513 
L 433.403497 -392.279078 
L 431.721157 -396.765769 
L 430.038818 -399.690222 
L 428.356478 -402.511402 
L 426.674138 -403.457917 
L 424.991799 -403.106898 
L 423.309459 -401.381981 
L 421.62712 -396.713457 
L 419.94478 -390.825082 
L 418.26244 -383.143919 
L 416.580101 -377.747881 
L 414.897761 -375.205482 
L 413.215422 -376.484905 
L 411.533082 -379.211607 
L 409.850743 -380.071346 
L 408.168403 -376.504388 
L 406.486063 -368.830698 
L 404.803724 -359.299683 
L 403.121384 -352.024865 
L 401.439045 -350.25637 
L 399.756705 -354.429266 
L 398.074365 -361.607812 
L 396.392026 -368.044183 
L 394.709686 -371.134188 
L 393.027347 -371.042836 
L 391.345007 -369.196397 
L 389.662668 -368.104682 
L 387.980328 -369.66168 
L 386.297988 -373.234468 
L 384.615649 -375.098584 
L 382.933309 -374.543929 
L 381.25097 -369.343877 
L 379.56863 -362.044527 
L 377.88629 -355.205311 
L 376.203951 -353.101548 
L 374.521611 -355.347068 
L 372.839272 -361.715038 
L 371.156932 -368.132813 
L 369.474593 -371.191767 
L 367.792253 -368.480359 
L 366.109913 -361.135128 
L 364.427574 -352.516263 
L 362.745234 -345.02373 
L 361.062895 -341.053842 
L 359.380555 -340.062171 
L 357.698215 -340.838158 
L 356.015876 -340.504003 
L 354.333536 -339.308479 
L 352.651197 -337.314353 
L 350.968857 -333.696422 
L 349.286517 -328.197666 
L 347.604178 -321.053317 
L 345.921838 -313.133277 
L 344.239499 -304.742554 
L 342.557159 -298.261553 
L 340.87482 -296.259617 
L 339.19248 -298.165248 
L 337.51014 -301.232714 
L 335.827801 -304.670403 
L 334.145461 -305.846247 
L 332.463122 -305.503656 
L 330.780782 -305.479783 
L 329.098442 -306.703889 
L 327.416103 -309.451381 
L 325.733763 -311.580244 
L 324.051424 -312.163389 
L 322.369084 -309.207682 
L 320.686745 -304.045832 
L 319.004405 -297.99586 
L 317.322065 -293.923744 
L 315.639726 -292.461423 
L 313.957386 -294.137141 
L 312.275047 -297.432123 
L 310.592707 -300.453015 
L 308.910367 -301.802342 
L 307.228028 -301.472767 
L 305.545688 -298.942122 
L 303.863349 -294.184528 
L 302.181009 -288.406878 
L 300.498669 -284.791069 
L 298.81633 -284.47713 
L 297.13399 -286.463073 
L 295.451651 -290.421137 
L 293.769311 -295.667691 
L 292.086972 -300.258447 
L 290.404632 -303.749683 
L 288.722292 -305.507538 
L 287.039953 -307.296105 
L 285.357613 -309.838479 
L 283.675274 -312.595455 
L 281.992934 -314.632029 
L 280.310594 -315.261111 
L 278.628255 -314.637722 
L 276.945915 -312.093683 
L 275.263576 -309.287505 
L 273.581236 -306.76832 
L 271.898897 -304.312546 
L 270.216557 -301.912568 
L 268.534217 -299.586395 
L 266.851878 -298.574463 
L 265.169538 -297.801511 
L 263.487199 -297.664865 
L 261.804859 -296.450732 
L 260.122519 -294.367461 
L 258.44018 -290.987396 
L 256.75784 -286.632858 
L 255.075501 -284.893071 
L 253.393161 -284.846753 
L 251.710822 -285.314507 
L 250.028482 -285.087842 
L 248.346142 -282.544954 
L 246.663803 -278.397573 
L 244.981463 -274.806022 
L 243.299124 -271.291853 
L 241.616784 -268.637732 
L 239.934444 -264.762745 
L 238.252105 -257.880215 
L 236.569765 -247.55988 
L 234.887426 -235.687009 
L 233.205086 -225.273587 
L 231.522746 -219.39142 
L 229.840407 -219.279119 
L 228.158067 -223.656441 
L 226.475728 -230.195091 
L 224.793388 -236.851662 
L 223.111049 -244.526013 
L 221.428709 -249.814371 
L 219.746369 -253.673241 
L 218.06403 -257.368069 
L 216.38169 -260.584028 
L 214.699351 -264.26445 
L 213.017011 -267.469113 
L 211.334671 -270.604175 
L 209.652332 -274.192714 
L 207.969992 -275.777139 
L 206.287653 -276.482136 
L 204.605313 -274.875212 
L 202.922974 -271.108691 
L 201.240634 -264.939427 
L 199.558294 -257.71691 
L 197.875955 -247.159654 
L 196.193615 -232.421801 
L 194.511276 -215.463151 
L 192.828936 -199.179038 
L 191.146596 -186.765977 
L 189.464257 -179.548263 
L 187.781917 -175.642705 
L 186.099578 -173.14869 
L 184.417238 -170.647927 
L 182.734899 -167.25725 
L 181.052559 -166.164865 
L 179.370219 -169.19329 
L 177.68788 -176.973854 
L 176.00554 -189.43395 
L 174.323201 -202.884739 
L 172.640861 -214.666642 
L 170.958521 -223.808215 
L 169.276182 -230.441064 
L 167.593842 -235.228974 
L 165.911503 -238.136092 
L 164.229163 -237.841946 
L 162.546823 -235.303921 
L 160.864484 -231.113331 
L 159.182144 -228.562164 
L 157.499805 -228.236768 
L 155.817465 -231.082633 
L 154.135126 -236.651203 
L 152.452786 -240.855946 
L 150.770446 -241.741731 
L 149.088107 -237.466349 
L 147.405767 -230.899824 
L 145.723428 -224.901718 
L 144.041088 -222.069083 
L 142.358748 -223.650077 
L 140.676409 -227.570243 
L 138.994069 -230.61111 
L 137.31173 -231.577607 
L 135.62939 -230.582771 
L 133.947051 -230.352599 
L 132.264711 -230.812806 
L 130.582371 -232.418214 
L 128.900032 -235.420884 
L 127.217692 -238.75063 
L 125.535353 -241.359712 
L 123.853013 -242.061591 
L 122.170673 -240.91268 
L 120.488334 -239.231749 
L 118.805994 -236.534408 
L 117.123655 -233.766152 
L 115.441315 -231.46653 
L 113.758976 -230.221269 
L 112.076636 -229.726844 
L 110.394296 -228.686782 
L 108.711957 -226.767637 
L 107.029617 -224.090877 
L 105.347278 -222.576266 
L 103.664938 -223.570669 
L 101.982598 -228.566784 
L 100.300259 -237.254607 
L 98.617919 -245.901971 
L 96.93558 -250.547861 
L 95.25324 -249.553372 
L 93.5709 -244.890296 
L 91.888561 -238.307013 
L 90.206221 -231.538844 
L 88.523882 -227.416401 
L 86.841542 -228.259931 
L 85.159203 -233.448688 
L 83.476863 -239.751523 
L 81.794523 -244.697389 
L 80.112184 -246.725796 
L 78.429844 -246.069007 
L 76.747505 -243.755398 
L 75.065165 -241.662927 
L 73.382825 -240.16885 
L 71.700486 -238.461306 
L 70.018146 -236.745088 
L 68.335807 -235.41332 
L 66.653467 -232.979863 
L 64.971128 -231.3771 
L 63.288788 -230.432839 
L 61.606448 -231.632954 
L 59.924109 -233.830173 
L 58.241769 -237.599793 
L 56.55943 -240.616712 
L 54.87709 -241.923614 
L 53.19475 -241.407861 
L 51.512411 -239.16351 
L 49.830071 -236.355139 
L 48.147732 -234.233322 
L 46.465392 -234.15938 
L 44.783052 -234.66562 
z
" style="stroke: #1f77b4; stroke-opacity: 0.3"/>
    </defs>
    <g>
     <use xlink:href="#m23aae957f6" x="0" y="432" style="fill: #1f77b4; fill-opacity: 0.3; stroke: #1f77b4; stroke-opacity: 0.3"/>
    </g>
   </g>
   <g id="FillBetweenPolyCollection_2">
    <defs>
     <path id="md1518d0234" d="M 44.783052 -221.668691 
L 44.783052 -217.48844 
L 46.465392 -220.327207 
L 48.147732 -221.39962 
L 49.830071 -220.850158 
L 51.512411 -219.627453 
L 53.19475 -218.302217 
L 54.87709 -217.279333 
L 56.55943 -216.372094 
L 58.241769 -215.361214 
L 59.924109 -214.180757 
L 61.606448 -213.54329 
L 63.288788 -213.899531 
L 64.971128 -215.627576 
L 66.653467 -218.693324 
L 68.335807 -222.450048 
L 70.018146 -226.171532 
L 71.700486 -229.165632 
L 73.382825 -231.022566 
L 75.065165 -231.605202 
L 76.747505 -230.691678 
L 78.429844 -228.689465 
L 80.112184 -226.108294 
L 81.794523 -223.790733 
L 83.476863 -222.116839 
L 85.159203 -220.923546 
L 86.841542 -219.209045 
L 88.523882 -216.243963 
L 90.206221 -211.632913 
L 91.888561 -206.344357 
L 93.5709 -202.113818 
L 95.25324 -200.862432 
L 96.93558 -203.056182 
L 98.617919 -207.785248 
L 100.300259 -213.240129 
L 101.982598 -217.464136 
L 103.664938 -219.712066 
L 105.347278 -220.895095 
L 107.029617 -222.47665 
L 108.711957 -225.574264 
L 110.394296 -229.804918 
L 112.076636 -233.853493 
L 113.758976 -235.863077 
L 115.441315 -235.397735 
L 117.123655 -233.232161 
L 118.805994 -231.013832 
L 120.488334 -229.975974 
L 122.170673 -230.409227 
L 123.853013 -231.55243 
L 125.535353 -231.854388 
L 127.217692 -230.613839 
L 128.900032 -227.804203 
L 130.582371 -224.388151 
L 132.264711 -221.514542 
L 133.947051 -219.920572 
L 135.62939 -219.453807 
L 137.31173 -219.579322 
L 138.994069 -219.657739 
L 140.676409 -219.303793 
L 142.358748 -218.734014 
L 144.041088 -218.406604 
L 145.723428 -218.375865 
L 147.405767 -218.787744 
L 149.088107 -219.513624 
L 150.770446 -220.438729 
L 152.452786 -221.199626 
L 154.135126 -221.65092 
L 155.817465 -221.438674 
L 157.499805 -220.811009 
L 159.182144 -220.075739 
L 160.864484 -219.839106 
L 162.546823 -220.692576 
L 164.229163 -222.431482 
L 165.911503 -224.362695 
L 167.593842 -225.320119 
L 169.276182 -224.420987 
L 170.958521 -221.155484 
L 172.640861 -216.188581 
L 174.323201 -210.340686 
L 176.00554 -204.514085 
L 177.68788 -199.053049 
L 179.370219 -193.898792 
L 181.052559 -188.458611 
L 182.734899 -182.435198 
L 184.417238 -176.364198 
L 186.099578 -171.179262 
L 187.781917 -168.427174 
L 189.464257 -169.772138 
L 191.146596 -175.944285 
L 192.828936 -186.73037 
L 194.511276 -200.642409 
L 196.193615 -215.126188 
L 197.875955 -227.749856 
L 199.558294 -236.64673 
L 201.240634 -241.215282 
L 202.922974 -242.326646 
L 204.605313 -241.306908 
L 206.287653 -239.42737 
L 207.969992 -237.786491 
L 209.652332 -236.371988 
L 211.334671 -235.023325 
L 213.017011 -233.490956 
L 214.699351 -231.83261 
L 216.38169 -230.260729 
L 218.06403 -228.858949 
L 219.746369 -227.774626 
L 221.428709 -227.088499 
L 223.111049 -226.731493 
L 224.793388 -226.689547 
L 226.475728 -226.868614 
L 228.158067 -227.107181 
L 229.840407 -227.193577 
L 231.522746 -226.834355 
L 233.205086 -226.019291 
L 234.887426 -224.597185 
L 236.569765 -222.999831 
L 238.252105 -221.107029 
L 239.934444 -219.348267 
L 241.616784 -217.763655 
L 243.299124 -216.699166 
L 244.981463 -216.689079 
L 246.663803 -217.814338 
L 248.346142 -219.960702 
L 250.028482 -222.416087 
L 251.710822 -224.126316 
L 253.393161 -224.050025 
L 255.075501 -221.984984 
L 256.75784 -218.165537 
L 258.44018 -213.850342 
L 260.122519 -210.239472 
L 261.804859 -208.41251 
L 263.487199 -208.540215 
L 265.169538 -210.317251 
L 266.851878 -212.88046 
L 268.534217 -215.299463 
L 270.216557 -217.27319 
L 271.898897 -218.542437 
L 273.581236 -219.300147 
L 275.263576 -219.881064 
L 276.945915 -220.6639 
L 278.628255 -221.455685 
L 280.310594 -222.367295 
L 281.992934 -222.692779 
L 283.675274 -222.183178 
L 285.357613 -220.858958 
L 287.039953 -218.848179 
L 288.722292 -216.581904 
L 290.404632 -214.341973 
L 292.086972 -212.187627 
L 293.769311 -210.020814 
L 295.451651 -208.05756 
L 297.13399 -206.513672 
L 298.81633 -205.952944 
L 300.498669 -206.485199 
L 302.181009 -207.972362 
L 303.863349 -209.743721 
L 305.545688 -210.806796 
L 307.228028 -210.808357 
L 308.910367 -209.844823 
L 310.592707 -208.912417 
L 312.275047 -208.580213 
L 313.957386 -209.196661 
L 315.639726 -210.624221 
L 317.322065 -212.372875 
L 319.004405 -214.076658 
L 320.686745 -215.782546 
L 322.369084 -217.563177 
L 324.051424 -219.485822 
L 325.733763 -221.576548 
L 327.416103 -223.65584 
L 329.098442 -225.274843 
L 330.780782 -226.398254 
L 332.463122 -227.111262 
L 334.145461 -227.645152 
L 335.827801 -228.225547 
L 337.51014 -228.872571 
L 339.19248 -229.744682 
L 340.87482 -230.821145 
L 342.557159 -232.101057 
L 344.239499 -233.429312 
L 345.921838 -234.614199 
L 347.604178 -235.50928 
L 349.286517 -235.984066 
L 350.968857 -236.394223 
L 352.651197 -237.113698 
L 354.333536 -238.698251 
L 356.015876 -241.247803 
L 357.698215 -244.216027 
L 359.380555 -247.062639 
L 361.062895 -249.224514 
L 362.745234 -250.527721 
L 364.427574 -251.267921 
L 366.109913 -251.912615 
L 367.792253 -252.798854 
L 369.474593 -254.052669 
L 371.156932 -255.520449 
L 372.839272 -257.059248 
L 374.521611 -258.715025 
L 376.203951 -260.376776 
L 377.88629 -262.063677 
L 379.56863 -263.817428 
L 381.25097 -265.627177 
L 382.933309 -267.653099 
L 384.615649 -270.117473 
L 386.297988 -272.822862 
L 387.980328 -275.452839 
L 389.662668 -277.386508 
L 391.345007 -278.067476 
L 393.027347 -277.541054 
L 394.709686 -276.263193 
L 396.392026 -275.126331 
L 398.074365 -274.687927 
L 399.756705 -274.825553 
L 401.439045 -275.145236 
L 403.121384 -275.060864 
L 404.803724 -274.417314 
L 406.486063 -273.515678 
L 408.168403 -272.698864 
L 409.850743 -272.114619 
L 411.533082 -271.506443 
L 413.215422 -270.440567 
L 414.897761 -268.772868 
L 416.580101 -267.05979 
L 418.26244 -266.258953 
L 419.94478 -266.86788 
L 421.62712 -269.130046 
L 423.309459 -272.246495 
L 424.991799 -275.291835 
L 426.674138 -277.261607 
L 428.356478 -278.126854 
L 430.038818 -278.655832 
L 431.721157 -279.725199 
L 433.403497 -281.830645 
L 435.085836 -284.832379 
L 436.768176 -288.074219 
L 438.450516 -290.387424 
L 440.132855 -291.210191 
L 441.815195 -290.111694 
L 443.497534 -287.420181 
L 445.179874 -283.934804 
L 446.862213 -280.360849 
L 448.544553 -277.557089 
L 450.226893 -275.753345 
L 451.909232 -274.988424 
L 453.591572 -275.21342 
L 455.273911 -275.986189 
L 456.956251 -276.635803 
L 458.638591 -276.628537 
L 460.32093 -275.824392 
L 462.00327 -274.300381 
L 463.685609 -272.695133 
L 465.367949 -271.423325 
L 467.050288 -270.947898 
L 468.732628 -271.179534 
L 470.414968 -271.85419 
L 472.097307 -272.908093 
L 473.779647 -274.373279 
L 475.461986 -276.108303 
L 477.144326 -278.176158 
L 478.826666 -280.196642 
L 480.509005 -281.722613 
L 482.191345 -282.418377 
L 483.873684 -282.185594 
L 485.556024 -281.458996 
L 487.238363 -280.98173 
L 488.920703 -281.089967 
L 490.603043 -281.793362 
L 492.285382 -282.672459 
L 493.967722 -283.188049 
L 495.650061 -283.105758 
L 497.332401 -282.642618 
L 499.014741 -282.277702 
L 500.69708 -282.157767 
L 502.37942 -282.155009 
L 504.061759 -281.984225 
L 505.744099 -281.441709 
L 507.426439 -280.853299 
L 509.108778 -280.657843 
L 510.791118 -281.145516 
L 512.473457 -282.140465 
L 514.155797 -283.043403 
L 515.838136 -283.364826 
L 517.520476 -283.148829 
L 519.202816 -282.648572 
L 520.885155 -282.479431 
L 522.567495 -282.737944 
L 524.249834 -283.034447 
L 525.932174 -282.569882 
L 527.614514 -280.770936 
L 529.296853 -277.92131 
L 530.979193 -275.156633 
L 532.661532 -273.647523 
L 534.343872 -274.030051 
L 536.026211 -275.717229 
L 537.708551 -277.702866 
L 539.390891 -278.953863 
L 541.07323 -279.257035 
L 542.75557 -278.950444 
L 544.437909 -278.733191 
L 546.120249 -278.902694 
L 547.802589 -279.088239 
L 549.484928 -278.634763 
L 551.167268 -277.094169 
L 552.849607 -275.214454 
L 554.531947 -273.871653 
L 556.214286 -274.176653 
L 557.896626 -276.366493 
L 559.578966 -279.580151 
L 561.261305 -282.57144 
L 561.261305 -288.863094 
L 561.261305 -288.863094 
L 559.578966 -285.720456 
L 557.896626 -282.347722 
L 556.214286 -280.131886 
L 554.531947 -279.638492 
L 552.849607 -280.815596 
L 551.167268 -282.748676 
L 549.484928 -284.213209 
L 547.802589 -284.658158 
L 546.120249 -284.489537 
L 544.437909 -284.344568 
L 542.75557 -284.500184 
L 541.07323 -284.830457 
L 539.390891 -284.589086 
L 537.708551 -283.249438 
L 536.026211 -281.20943 
L 534.343872 -279.440044 
L 532.661532 -279.111414 
L 530.979193 -280.744438 
L 529.296853 -283.692478 
L 527.614514 -286.530867 
L 525.932174 -288.354646 
L 524.249834 -288.822084 
L 522.567495 -288.401874 
L 520.885155 -287.908116 
L 519.202816 -287.949777 
L 517.520476 -288.444132 
L 515.838136 -288.81762 
L 514.155797 -288.487621 
L 512.473457 -287.61602 
L 510.791118 -286.619734 
L 509.108778 -286.254991 
L 507.426439 -286.606389 
L 505.744099 -287.190144 
L 504.061759 -287.62175 
L 502.37942 -287.760349 
L 500.69708 -287.816197 
L 499.014741 -287.919594 
L 497.332401 -288.366082 
L 495.650061 -288.821572 
L 493.967722 -288.831886 
L 492.285382 -288.312871 
L 490.603043 -287.3953 
L 488.920703 -286.717806 
L 487.238363 -286.606376 
L 485.556024 -287.143923 
L 483.873684 -287.739186 
L 482.191345 -287.846476 
L 480.509005 -287.176144 
L 478.826666 -285.624578 
L 477.144326 -283.600127 
L 475.461986 -281.666191 
L 473.779647 -280.000519 
L 472.097307 -278.696645 
L 470.414968 -277.625199 
L 468.732628 -276.850252 
L 467.050288 -276.5992 
L 465.367949 -277.100987 
L 463.685609 -278.293306 
L 462.00327 -279.815681 
L 460.32093 -281.196265 
L 458.638591 -281.945232 
L 456.956251 -282.100795 
L 455.273911 -281.640578 
L 453.591572 -281.087143 
L 451.909232 -280.947197 
L 450.226893 -281.632302 
L 448.544553 -283.503408 
L 446.862213 -286.222192 
L 445.179874 -289.547964 
L 443.497534 -292.974892 
L 441.815195 -295.588399 
L 440.132855 -296.811105 
L 438.450516 -296.058901 
L 436.768176 -293.703484 
L 435.085836 -290.496725 
L 433.403497 -287.422269 
L 431.721157 -285.29149 
L 430.038818 -284.287346 
L 428.356478 -283.889486 
L 426.674138 -282.954895 
L 424.991799 -281.057243 
L 423.309459 -278.05216 
L 421.62712 -274.888496 
L 419.94478 -272.581516 
L 418.26244 -272.035731 
L 416.580101 -273.03573 
L 414.897761 -274.719916 
L 413.215422 -276.385762 
L 411.533082 -277.494912 
L 409.850743 -278.053976 
L 408.168403 -278.759517 
L 406.486063 -279.518191 
L 404.803724 -280.426391 
L 403.121384 -281.077821 
L 401.439045 -281.079119 
L 399.756705 -280.684686 
L 398.074365 -280.412982 
L 396.392026 -280.836502 
L 394.709686 -281.928543 
L 393.027347 -283.219603 
L 391.345007 -283.844969 
L 389.662668 -283.190356 
L 387.980328 -281.331266 
L 386.297988 -278.650174 
L 384.615649 -275.838815 
L 382.933309 -273.389673 
L 381.25097 -271.267735 
L 379.56863 -269.478055 
L 377.88629 -267.693752 
L 376.203951 -266.079116 
L 374.521611 -264.391187 
L 372.839272 -262.783071 
L 371.156932 -261.084416 
L 369.474593 -259.653627 
L 367.792253 -258.256806 
L 366.109913 -257.323946 
L 364.427574 -256.635809 
L 362.745234 -255.966374 
L 361.062895 -254.730676 
L 359.380555 -252.693731 
L 357.698215 -249.909832 
L 356.015876 -246.891758 
L 354.333536 -244.380073 
L 352.651197 -242.671425 
L 350.968857 -241.835584 
L 349.286517 -241.31497 
L 347.604178 -240.679742 
L 345.921838 -239.692738 
L 344.239499 -238.449495 
L 342.557159 -237.180449 
L 340.87482 -235.960628 
L 339.19248 -234.983455 
L 337.51014 -234.179001 
L 335.827801 -233.536382 
L 334.145461 -233.018497 
L 332.463122 -232.427165 
L 330.780782 -231.596836 
L 329.098442 -230.496391 
L 327.416103 -228.90499 
L 325.733763 -227.023604 
L 324.051424 -224.982268 
L 322.369084 -223.047711 
L 320.686745 -221.322663 
L 319.004405 -219.562172 
L 317.322065 -217.744676 
L 315.639726 -215.893977 
L 313.957386 -214.471348 
L 312.275047 -213.807871 
L 310.592707 -214.12882 
L 308.910367 -215.104008 
L 307.228028 -216.031515 
L 305.545688 -216.115891 
L 303.863349 -215.137606 
L 302.181009 -213.540763 
L 300.498669 -212.006418 
L 298.81633 -211.328271 
L 297.13399 -211.746645 
L 295.451651 -213.269291 
L 293.769311 -215.247095 
L 292.086972 -217.37776 
L 290.404632 -219.61075 
L 288.722292 -221.803561 
L 287.039953 -223.932906 
L 285.357613 -225.910862 
L 283.675274 -227.213766 
L 281.992934 -227.699377 
L 280.310594 -227.387545 
L 278.628255 -226.558114 
L 276.945915 -225.606181 
L 275.263576 -224.848099 
L 273.581236 -224.142312 
L 271.898897 -223.252043 
L 270.216557 -222.006815 
L 268.534217 -220.069225 
L 266.851878 -217.627165 
L 265.169538 -215.14099 
L 263.487199 -213.421883 
L 261.804859 -213.31602 
L 260.122519 -215.215042 
L 258.44018 -218.738402 
L 256.75784 -223.108795 
L 255.075501 -226.974087 
L 253.393161 -229.149576 
L 251.710822 -229.323814 
L 250.028482 -227.722681 
L 248.346142 -225.40937 
L 246.663803 -223.288422 
L 244.981463 -222.159442 
L 243.299124 -222.105755 
L 241.616784 -223.070617 
L 239.934444 -224.559027 
L 238.252105 -226.298946 
L 236.569765 -228.009259 
L 234.887426 -229.674124 
L 233.205086 -230.938291 
L 231.522746 -231.638909 
L 229.840407 -231.81882 
L 228.158067 -231.718231 
L 226.475728 -231.616866 
L 224.793388 -231.476542 
L 223.111049 -231.679974 
L 221.428709 -232.043576 
L 219.746369 -232.705687 
L 218.06403 -233.581902 
L 216.38169 -234.708538 
L 214.699351 -236.201478 
L 213.017011 -237.909116 
L 211.334671 -239.567496 
L 209.652332 -241.075725 
L 207.969992 -242.734328 
L 206.287653 -244.522928 
L 204.605313 -246.321621 
L 202.922974 -247.384695 
L 201.240634 -246.25737 
L 199.558294 -241.581027 
L 197.875955 -232.767875 
L 196.193615 -220.25145 
L 194.511276 -205.709823 
L 192.828936 -191.749409 
L 191.146596 -180.764873 
L 189.464257 -174.384334 
L 187.781917 -173.022758 
L 186.099578 -175.759262 
L 184.417238 -181.097751 
L 182.734899 -187.214938 
L 181.052559 -193.160785 
L 179.370219 -198.445208 
L 177.68788 -203.583287 
L 176.00554 -208.956896 
L 174.323201 -214.819467 
L 172.640861 -220.854601 
L 170.958521 -225.823069 
L 169.276182 -228.980863 
L 167.593842 -229.804909 
L 165.911503 -228.726783 
L 164.229163 -226.803259 
L 162.546823 -225.126614 
L 160.864484 -224.447514 
L 159.182144 -224.680874 
L 157.499805 -225.395933 
L 155.817465 -225.9601 
L 154.135126 -226.12436 
L 152.452786 -225.725934 
L 150.770446 -225.053822 
L 149.088107 -224.254469 
L 147.405767 -223.569558 
L 145.723428 -223.117672 
L 144.041088 -223.101358 
L 142.358748 -223.451362 
L 140.676409 -223.932573 
L 138.994069 -224.284101 
L 137.31173 -224.389 
L 135.62939 -224.318338 
L 133.947051 -224.616623 
L 132.264711 -225.968985 
L 130.582371 -228.481954 
L 128.900032 -231.635338 
L 127.217692 -234.280487 
L 125.535353 -235.561283 
L 123.853013 -235.184658 
L 122.170673 -234.097153 
L 120.488334 -233.610031 
L 118.805994 -234.758445 
L 117.123655 -237.081955 
L 115.441315 -239.097045 
L 113.758976 -239.298709 
L 112.076636 -237.094148 
L 110.394296 -233.049709 
L 108.711957 -228.975613 
L 107.029617 -226.047662 
L 105.347278 -224.585018 
L 103.664938 -223.448838 
L 101.982598 -221.178598 
L 100.300259 -216.997505 
L 98.617919 -211.472697 
L 96.93558 -206.60952 
L 95.25324 -204.409709 
L 93.5709 -205.851234 
L 91.888561 -209.999665 
L 90.206221 -215.214966 
L 88.523882 -219.722881 
L 86.841542 -222.693027 
L 85.159203 -224.358005 
L 83.476863 -225.621791 
L 81.794523 -227.387257 
L 80.112184 -229.746217 
L 78.429844 -232.292735 
L 76.747505 -234.273859 
L 75.065165 -235.102774 
L 73.382825 -234.670451 
L 71.700486 -232.888934 
L 70.018146 -229.854147 
L 68.335807 -226.108915 
L 66.653467 -222.351036 
L 64.971128 -219.217452 
L 63.288788 -217.49696 
L 61.606448 -217.222261 
L 59.924109 -217.926125 
L 58.241769 -219.070894 
L 56.55943 -220.212665 
L 54.87709 -221.221955 
L 53.19475 -222.296084 
L 51.512411 -223.722054 
L 49.830071 -225.139984 
L 48.147732 -225.707808 
L 46.465392 -224.556104 
L 44.783052 -221.668691 
z
" style="stroke: #ff7f0e; stroke-opacity: 0.3"/>
    </defs>
    <g>
     <use xlink:href="#md1518d0234" x="0" y="432" style="fill: #ff7f0e; fill-opacity: 0.3; stroke: #ff7f0e; stroke-opacity: 0.3"/>
    </g>
   </g>
   <g id="line2d_17">
    <path d="M 44.783052 211.79704 
L 46.465392 211.733872 
L 48.147732 210.210335 
L 49.830071 207.365146 
L 51.512411 204.071884 
L 53.19475 201.500151 
L 54.87709 200.678827 
L 56.55943 202.13713 
L 58.241769 205.64873 
L 61.606448 214.73233 
L 63.288788 217.743148 
L 64.971128 218.672479 
L 66.653467 217.623923 
L 68.335807 215.238326 
L 73.382825 206.18663 
L 76.747505 200.338331 
L 78.429844 198.383235 
L 80.112184 198.155193 
L 81.794523 200.29493 
L 83.476863 204.647693 
L 85.159203 209.985571 
L 86.841542 214.265091 
L 88.523882 215.422125 
L 90.206221 212.452809 
L 91.888561 206.127726 
L 93.5709 198.907188 
L 95.25324 193.960539 
L 96.93558 193.651655 
L 98.617919 198.372539 
L 101.982598 214.299916 
L 103.664938 219.651995 
L 105.347278 221.208907 
L 107.029617 219.741921 
L 108.711957 217.147389 
L 110.394296 215.147742 
L 112.076636 214.406956 
L 113.758976 214.412353 
L 115.441315 214.10049 
L 117.123655 212.63855 
L 118.805994 209.889092 
L 122.170673 203.182441 
L 123.853013 201.219465 
L 125.535353 201.291345 
L 127.217692 203.582303 
L 128.900032 207.525463 
L 130.582371 211.83683 
L 132.264711 215.021815 
L 133.947051 216.21255 
L 137.31173 215.346102 
L 138.994069 216.477008 
L 140.676409 219.630931 
L 142.358748 223.439378 
L 144.041088 225.436982 
L 145.723428 223.755266 
L 147.405767 218.635393 
L 149.088107 212.579039 
L 150.770446 208.907463 
L 152.452786 209.60194 
L 154.135126 213.9757 
L 155.817465 219.124979 
L 157.499805 221.876173 
L 159.182144 220.821364 
L 160.864484 216.985139 
L 162.546823 212.841162 
L 164.229163 210.587686 
L 165.911503 210.98148 
L 167.593842 213.54713 
L 169.276182 217.731942 
L 170.958521 223.837053 
L 172.640861 232.838222 
L 174.323201 245.164547 
L 177.68788 273.210518 
L 179.370219 282.857555 
L 181.052559 286.827935 
L 182.734899 285.771638 
L 184.417238 282.011453 
L 187.781917 273.784497 
L 189.464257 268.804242 
L 191.146596 261.000258 
L 192.828936 249.397912 
L 197.875955 205.260624 
L 199.558294 194.200684 
L 201.240634 186.303041 
L 202.922974 181.008103 
L 204.605313 177.6642 
L 206.287653 175.941361 
L 207.969992 175.770522 
L 209.652332 177.059885 
L 211.334671 179.577673 
L 213.017011 182.983592 
L 216.38169 191.213217 
L 218.06403 195.383437 
L 219.746369 199.158397 
L 223.111049 206.104529 
L 224.793388 210.681842 
L 226.475728 216.711341 
L 228.158067 223.428493 
L 229.840407 228.71737 
L 231.522746 230.000012 
L 233.205086 225.707009 
L 234.887426 216.420894 
L 236.569765 204.773537 
L 238.252105 194.022092 
L 239.934444 186.271125 
L 241.616784 181.555358 
L 244.981463 174.891196 
L 248.346142 166.950826 
L 250.028482 164.558452 
L 251.710822 164.009136 
L 253.393161 164.390122 
L 255.075501 164.159969 
L 256.75784 162.312873 
L 260.122519 155.799228 
L 261.804859 153.586298 
L 263.487199 152.796494 
L 265.169538 152.715582 
L 266.851878 152.248916 
L 268.534217 150.728619 
L 270.216557 148.275625 
L 271.898897 145.516541 
L 273.581236 143.041212 
L 275.263576 141.103295 
L 276.945915 139.711363 
L 278.628255 138.885132 
L 280.310594 138.806541 
L 281.992934 139.623717 
L 283.675274 141.219147 
L 288.722292 147.173539 
L 290.404632 149.531043 
L 292.086972 152.728335 
L 295.451651 161.000309 
L 297.13399 164.221804 
L 298.81633 165.404738 
L 300.498669 164.150416 
L 302.181009 160.881503 
L 305.545688 152.6012 
L 307.228028 149.978535 
L 308.910367 149.547346 
L 310.592707 151.5046 
L 313.957386 159.093489 
L 315.639726 161.268607 
L 317.322065 160.215904 
L 319.004405 155.788274 
L 320.686745 149.507831 
L 322.369084 143.912452 
L 324.051424 141.187749 
L 325.733763 141.906231 
L 329.098442 147.518043 
L 330.780782 148.529528 
L 332.463122 147.831414 
L 334.145461 146.952006 
L 335.827801 147.63102 
L 337.51014 150.35644 
L 339.19248 153.78374 
L 340.87482 155.480299 
L 342.557159 153.451196 
L 344.239499 147.417978 
L 347.604178 130.406595 
L 349.286517 123.665165 
L 350.968857 119.23944 
L 352.651197 116.578774 
L 354.333536 114.87233 
L 356.015876 113.679456 
L 359.380555 111.979877 
L 361.062895 110.000569 
L 362.745234 105.663929 
L 364.427574 98.542657 
L 366.109913 89.892334 
L 367.792253 82.447339 
L 369.474593 79.090221 
L 371.156932 81.08125 
L 372.839272 87.021971 
L 374.521611 93.409204 
L 376.203951 96.49759 
L 377.88629 94.390893 
L 379.56863 88.068118 
L 381.25097 80.690564 
L 382.933309 75.71628 
L 384.615649 74.921683 
L 386.297988 77.592613 
L 387.980328 81.24981 
L 389.662668 83.388708 
L 391.345007 83.116554 
L 393.027347 81.657041 
L 394.709686 81.443672 
L 396.392026 84.368656 
L 398.074365 90.266686 
L 399.756705 96.709761 
L 401.439045 100.241859 
L 403.121384 98.385339 
L 404.803724 91.232885 
L 406.486063 81.562078 
L 408.168403 73.336063 
L 409.850743 69.456421 
L 411.533082 70.192764 
L 413.215422 73.230222 
L 414.897761 75.233037 
L 416.580101 73.887211 
L 418.26244 69.088858 
L 419.94478 62.587616 
L 421.62712 56.582719 
L 423.309459 52.355579 
L 424.991799 49.901259 
L 426.674138 48.677751 
L 428.356478 48.527243 
L 430.038818 49.965575 
L 431.721157 53.518887 
L 435.085836 63.954345 
L 436.768176 66.965844 
L 438.450516 66.555032 
L 440.132855 63.4237 
L 441.815195 59.942477 
L 443.497534 58.727094 
L 445.179874 61.017206 
L 448.544553 70.941256 
L 450.226893 73.511305 
L 451.909232 72.17598 
L 453.591572 67.115065 
L 455.273911 59.683528 
L 456.956251 51.616647 
L 458.638591 44.412291 
L 460.32093 39.186995 
L 462.00327 36.665896 
L 463.685609 37.128706 
L 465.367949 40.213478 
L 468.732628 49.66158 
L 470.414968 53.516781 
L 472.097307 56.147811 
L 475.461986 60.271682 
L 478.826666 65.577395 
L 480.509005 67.273055 
L 482.191345 67.336126 
L 483.873684 66.026444 
L 485.556024 64.534258 
L 487.238363 64.293446 
L 488.920703 66.109158 
L 490.603043 69.756438 
L 492.285382 74.200432 
L 493.967722 78.27252 
L 495.650061 81.283095 
L 497.332401 83.180034 
L 499.014741 84.282402 
L 500.69708 84.924728 
L 504.061759 85.897904 
L 505.744099 87.080993 
L 507.426439 89.508374 
L 509.108778 93.424878 
L 512.473457 103.101431 
L 514.155797 106.3598 
L 515.838136 107.257913 
L 517.520476 105.769424 
L 519.202816 102.513502 
L 520.885155 98.307906 
L 524.249834 89.486611 
L 525.932174 86.040411 
L 527.614514 84.335613 
L 529.296853 85.100283 
L 530.979193 88.271861 
L 532.661532 92.651647 
L 534.343872 96.3571 
L 536.026211 97.869056 
L 537.708551 97.049826 
L 539.390891 95.310385 
L 541.07323 94.750374 
L 542.75557 96.810048 
L 544.437909 101.336232 
L 546.120249 106.764706 
L 547.802589 111.212452 
L 549.484928 113.64336 
L 551.167268 114.34401 
L 552.849607 114.389369 
L 554.531947 114.689133 
L 556.214286 115.376309 
L 557.896626 115.884534 
L 559.578966 115.524188 
L 561.261305 113.936596 
L 561.261305 113.936596 
" style="fill: none; stroke: #1f77b4; stroke-width: 1.5; stroke-linecap: square"/>
   </g>
   <g id="line2d_18">
    <path d="M 44.783052 212.3978 
L 46.465392 209.539443 
L 48.147732 208.453834 
L 49.830071 208.98942 
L 53.19475 211.704231 
L 54.87709 212.750272 
L 56.55943 213.65837 
L 59.924109 215.85294 
L 61.606448 216.599346 
L 63.288788 216.294256 
L 64.971128 214.549302 
L 66.653467 211.502082 
L 70.018146 204.020781 
L 71.700486 200.996205 
L 73.382825 199.113585 
L 75.065165 198.612346 
L 76.747505 199.510575 
L 78.429844 201.533548 
L 81.794523 206.442705 
L 83.476863 208.152902 
L 85.159203 209.409261 
L 86.841542 211.049815 
L 88.523882 214.017324 
L 90.206221 218.582269 
L 91.888561 223.863279 
L 93.5709 228.056296 
L 95.25324 229.39017 
L 96.93558 227.191195 
L 98.617919 222.362703 
L 100.300259 216.89737 
L 101.982598 212.678416 
L 103.664938 210.387665 
L 105.347278 209.231245 
L 107.029617 207.679098 
L 108.711957 204.687777 
L 112.076636 196.560504 
L 113.758976 194.42686 
L 115.441315 194.765708 
L 117.123655 196.86613 
L 118.805994 199.144964 
L 120.488334 200.219906 
L 122.170673 199.784658 
L 123.853013 198.707365 
L 125.535353 198.345566 
L 127.217692 199.586746 
L 128.900032 202.312206 
L 130.582371 205.560006 
L 132.264711 208.206998 
L 133.947051 209.65617 
L 135.62939 210.044589 
L 138.994069 210.014967 
L 140.676409 210.367289 
L 142.358748 210.865079 
L 144.041088 211.198603 
L 145.723428 211.157767 
L 147.405767 210.723257 
L 152.452786 208.447064 
L 154.135126 208.068309 
L 155.817465 208.220254 
L 159.182144 209.583891 
L 160.864484 209.813163 
L 162.546823 209.056604 
L 164.229163 207.35075 
L 165.911503 205.408053 
L 167.593842 204.369961 
L 169.276182 205.258697 
L 170.958521 208.440391 
L 172.640861 213.472341 
L 176.00554 225.257994 
L 182.734899 247.134794 
L 184.417238 253.262655 
L 186.099578 258.487918 
L 187.781917 261.204657 
L 189.464257 259.861389 
L 191.146596 253.600248 
L 192.828936 242.730527 
L 197.875955 201.711175 
L 199.558294 192.853192 
L 201.240634 188.245441 
L 202.922974 187.170462 
L 204.605313 188.212235 
L 207.969992 191.71077 
L 213.017011 196.214838 
L 216.38169 199.517376 
L 218.06403 200.823695 
L 219.746369 201.771448 
L 221.428709 202.411346 
L 223.111049 202.800145 
L 224.793388 202.946865 
L 226.475728 202.858844 
L 229.840407 202.531244 
L 231.522746 202.78578 
L 233.205086 203.571289 
L 234.887426 204.868972 
L 238.252105 208.323626 
L 239.934444 210.099364 
L 241.616784 211.629044 
L 243.299124 212.589684 
L 244.981463 212.602416 
L 246.663803 211.435995 
L 248.346142 209.2712 
L 250.028482 206.831356 
L 251.710822 205.187483 
L 253.393161 205.292302 
L 255.075501 207.501108 
L 256.75784 211.337088 
L 258.44018 215.678465 
L 260.122519 219.236493 
L 261.804859 221.078313 
L 263.487199 220.946437 
L 265.169538 219.237244 
L 268.534217 214.237879 
L 270.216557 212.280075 
L 271.898897 211.008771 
L 273.581236 210.236828 
L 275.263576 209.619929 
L 276.945915 208.875791 
L 280.310594 207.133032 
L 281.992934 206.785151 
L 283.675274 207.242427 
L 285.357613 208.55934 
L 287.039953 210.501931 
L 293.769311 219.366271 
L 295.451651 221.373109 
L 297.13399 222.8572 
L 298.81633 223.382168 
L 300.498669 222.742765 
L 302.181009 221.221489 
L 303.863349 219.53976 
L 305.545688 218.505535 
L 307.228028 218.537732 
L 308.910367 219.41249 
L 310.592707 220.420187 
L 312.275047 220.801741 
L 313.957386 220.193754 
L 315.639726 218.757638 
L 320.686745 213.505745 
L 322.369084 211.783488 
L 324.051424 209.843799 
L 327.416103 205.712183 
L 329.098442 204.081452 
L 330.780782 202.960203 
L 332.463122 202.241063 
L 335.827801 201.117235 
L 337.51014 200.430349 
L 339.19248 199.598011 
L 340.87482 198.586522 
L 344.239499 196.04573 
L 345.921838 194.800133 
L 347.604178 193.874222 
L 350.968857 192.896399 
L 352.651197 192.075469 
L 354.333536 190.419394 
L 356.015876 187.865917 
L 359.380555 182.008812 
L 361.062895 179.92434 
L 362.745234 178.693986 
L 366.109913 177.353868 
L 367.792253 176.421181 
L 369.474593 175.136543 
L 372.839272 172.04424 
L 377.88629 167.045504 
L 381.25097 163.446692 
L 382.933309 161.368207 
L 384.615649 158.916545 
L 387.980328 153.538594 
L 389.662668 151.663563 
L 391.345007 151.02994 
L 393.027347 151.63092 
L 396.392026 154.027696 
L 398.074365 154.482171 
L 399.756705 154.290004 
L 401.439045 153.9503 
L 403.121384 154.002233 
L 404.803724 154.618983 
L 408.168403 156.330422 
L 411.533082 157.478311 
L 413.215422 158.529792 
L 416.580101 161.876536 
L 418.26244 162.810931 
L 419.94478 162.207788 
L 421.62712 159.981057 
L 424.991799 153.87287 
L 426.674138 151.905269 
L 428.356478 151.00844 
L 430.038818 150.519938 
L 431.721157 149.516787 
L 433.403497 147.41296 
L 436.768176 141.111497 
L 438.450516 138.741568 
L 440.132855 138.018172 
L 441.815195 139.157405 
L 443.497534 141.809787 
L 446.862213 148.703047 
L 448.544553 151.509909 
L 450.226893 153.29221 
L 451.909232 153.972085 
L 453.591572 153.762838 
L 455.273911 153.111667 
L 456.956251 152.58155 
L 458.638591 152.644226 
L 460.32093 153.490854 
L 465.367949 157.741682 
L 467.050288 158.251733 
L 468.732628 158.03555 
L 470.414968 157.279303 
L 472.097307 156.175255 
L 473.779647 154.786433 
L 475.461986 153.069137 
L 478.826666 149.045127 
L 480.509005 147.4882 
L 482.191345 146.793236 
L 483.873684 146.992738 
L 485.556024 147.665039 
L 487.238363 148.17419 
L 488.920703 148.05945 
L 490.603043 147.340167 
L 492.285382 146.462723 
L 493.967722 145.943944 
L 495.650061 145.997763 
L 499.014741 146.803223 
L 500.69708 146.9403 
L 502.37942 146.951226 
L 504.061759 147.140051 
L 507.426439 148.264831 
L 509.108778 148.52167 
L 510.791118 148.106863 
L 514.155797 146.270008 
L 515.838136 145.927268 
L 517.520476 146.221572 
L 519.202816 146.707921 
L 520.885155 146.819263 
L 524.249834 146.001081 
L 525.932174 146.455702 
L 527.614514 148.301458 
L 530.979193 154.04487 
L 532.661532 155.574909 
L 534.343872 155.231435 
L 536.026211 153.474033 
L 537.708551 151.439148 
L 539.390891 150.149297 
L 541.07323 149.887898 
L 542.75557 150.188423 
L 544.437909 150.369272 
L 547.802589 150.041666 
L 549.484928 150.582179 
L 551.167268 152.069724 
L 552.849607 153.977247 
L 554.531947 155.216155 
L 556.214286 154.822638 
L 557.896626 152.619114 
L 561.261305 146.333557 
L 561.261305 146.333557 
" style="fill: none; stroke: #ff7f0e; stroke-width: 1.5; stroke-linecap: square"/>
   </g>
  </g>
  <g id="axes_2">
   <g id="PathCollection_1">
    <defs>
     <path id="C0_0_151d77c871" d="M 0 1.118034 
C 0.296506 1.118034 0.580908 1.000231 0.790569 0.790569 
C 1.000231 0.580908 1.118034 0.296506 1.118034 -0 
C 1.118034 -0.296506 1.000231 -0.580908 0.790569 -0.790569 
C 0.580908 -1.000231 0.296506 -1.118034 0 -1.118034 
C -0.296506 -1.118034 -0.580908 -1.000231 -0.790569 -0.790569 
C -1.000231 -0.580908 -1.118034 -0.296506 -1.118034 0 
C -1.118034 0.296506 -1.000231 0.580908 -0.790569 0.790569 
C -0.580908 1.000231 -0.296506 1.118034 0 1.118034 
z
"/>
    </defs>
    <g clip-path="url(#pddced08ed8)">
     <use xlink:href="#C0_0_151d77c871" x="483.602109" y="47.301477" style="stroke: #000000"/>
    </g>
    <g clip-path="url(#pddced08ed8)">
     <use xlink:href="#C0_0_151d77c871" x="493.748589" y="47.289122" style="stroke: #000000"/>
    </g>
   </g>
   <g id="matplotlib.axis_3"/>
   <g id="matplotlib.axis_4"/>
   <g id="line2d_19">
    <path d="M 548.860095 73.636387 
L 548.782417 71.164635 
L 548.54969 68.702638 
L 548.162832 66.260111 
L 547.623369 63.846696 
L 546.933432 61.471916 
L 546.095742 59.145144 
L 545.113607 56.875562 
L 543.990901 54.672127 
L 542.732055 52.543535 
L 541.342038 50.498188 
L 539.826336 48.544156 
L 538.19093 46.689152 
L 536.442274 44.940496 
L 534.58727 43.30509 
L 532.633238 41.789388 
L 530.587891 40.399371 
L 528.459299 39.140526 
L 526.255865 38.017819 
L 523.986282 37.035684 
L 521.65951 36.197994 
L 519.28473 35.508057 
L 516.871315 34.968594 
L 514.428789 34.581736 
L 511.966791 34.349009 
L 509.495039 34.271331 
L 507.023286 34.349009 
L 504.561289 34.581736 
L 502.118763 34.968594 
L 499.705347 35.508057 
L 497.330567 36.197994 
L 495.003795 37.035684 
L 492.734213 38.017819 
L 490.530778 39.140526 
L 488.402187 40.399371 
L 486.356839 41.789388 
L 484.402808 43.30509 
L 482.547803 44.940496 
L 480.799148 46.689152 
L 479.163742 48.544156 
L 477.648039 50.498188 
L 476.258022 52.543535 
L 474.999177 54.672127 
L 473.876471 56.875562 
L 472.894335 59.145144 
L 472.056645 61.471916 
L 471.366708 63.846696 
L 470.827246 66.260111 
L 470.440388 68.702638 
L 470.20766 71.164635 
L 470.129982 73.636387 
L 470.20766 76.10814 
L 470.440388 78.570137 
L 470.827246 81.012663 
L 471.366708 83.426079 
L 472.056645 85.800859 
L 472.894335 88.127631 
L 473.876471 90.397213 
L 474.999177 92.600648 
L 476.258022 94.729239 
L 477.648039 96.774587 
L 479.163742 98.728619 
L 480.799148 100.583623 
L 482.547803 102.332278 
L 484.402808 103.967685 
L 486.356839 105.483387 
L 488.402187 106.873404 
L 490.530778 108.132249 
L 492.734213 109.254955 
L 495.003795 110.237091 
L 497.330567 111.074781 
L 499.705347 111.764718 
L 502.118763 112.30418 
L 504.561289 112.691038 
L 507.023286 112.923766 
L 509.495039 113.001444 
L 511.966791 112.923766 
L 514.428789 112.691038 
L 516.871315 112.30418 
L 519.28473 111.764718 
L 521.65951 111.074781 
L 523.986282 110.237091 
L 526.255865 109.254955 
L 528.459299 108.132249 
L 530.587891 106.873404 
L 532.633238 105.483387 
L 534.58727 103.967685 
L 536.442274 102.332278 
L 538.19093 100.583623 
L 539.826336 98.728619 
L 541.342038 96.774587 
L 542.732055 94.729239 
L 543.990901 92.600648 
L 545.113607 90.397213 
L 546.095742 88.127631 
L 546.933432 85.800859 
L 547.623369 83.426079 
L 548.162832 81.012663 
L 548.54969 78.570137 
L 548.782417 76.10814 
L 548.860095 73.636387 
" style="fill: none; stroke: #000000; stroke-linecap: square"/>
   </g>
   <g id="line2d_20">
    <path d="M 501.250441 35.144385 
L 509.495039 28.366573 
L 517.739637 35.144385 
" style="fill: none; stroke: #000000; stroke-linecap: square"/>
   </g>
   <g id="line2d_21">
    <path d="M 470.366173 69.266866 
L 469.342681 67.534804 
L 468.71284 67.47182 
L 467.775952 67.763121 
L 466.831191 69.266866 
L 466.980778 74.069403 
L 466.429667 80.974034 
L 467.610619 83.973651 
L 469.342681 84.532635 
L 470.996014 83.076128 
" style="fill: none; stroke: #000000; stroke-linecap: square"/>
   </g>
   <g id="line2d_22">
    <path d="M 548.623905 69.266866 
L 549.647396 67.534804 
L 550.277237 67.47182 
L 551.214125 67.763121 
L 552.158887 69.266866 
L 552.0093 74.069403 
L 552.56041 80.974034 
L 551.379459 83.973651 
L 549.647396 84.532635 
L 547.994064 83.076128 
" style="fill: none; stroke: #000000; stroke-linecap: square"/>
   </g>
  </g>
 </g>
 <defs>
  <clipPath id="p8fc9c9c3c5">
   <rect x="44.783053" y="18.118365" width="517.083895" height="380.525145"/>
  </clipPath>
  <clipPath id="pddced08ed8">
   <rect x="462.12313" y="24.134829" width="94.743817" height="93.098358"/>
  </clipPath>
 </defs>
</svg>
