<?xml version="1.0" encoding="utf-8" standalone="no"?>
<!DOCTYPE svg PUBLIC "-//W3C//DTD SVG 1.1//EN"
  "http://www.w3.org/Graphics/SVG/1.1/DTD/svg11.dtd">
<svg xmlns:xlink="http://www.w3.org/1999/xlink" width="576pt" height="432pt" viewBox="0 0 576 432" xmlns="http://www.w3.org/2000/svg" version="1.1">
 <metadata>
  <rdf:RDF xmlns:dc="http://purl.org/dc/elements/1.1/" xmlns:cc="http://creativecommons.org/ns#" xmlns:rdf="http://www.w3.org/1999/02/22-rdf-syntax-ns#">
   <cc:Work>
    <dc:type rdf:resource="http://purl.org/dc/dcmitype/StillImage"/>
    <dc:date>2025-02-20T17:24:36.748070</dc:date>
    <dc:format>image/svg+xml</dc:format>
    <dc:creator>
     <cc:Agent>
      <dc:title>Matplotlib v3.10.0, https://matplotlib.org/</dc:title>
     </cc:Agent>
    </dc:creator>
   </cc:Work>
  </rdf:RDF>
 </metadata>
 <defs>
  <style type="text/css">*{stroke-linejoin: round; stroke-linecap: butt}</style>
 </defs>
 <g id="figure_1">
  <g id="patch_1">
   <path d="M 0 432 
L 576 432 
L 576 0 
L 0 0 
z
" style="fill: #ffffff"/>
  </g>
  <g id="axes_1">
   <g id="patch_2">
    <path d="M 38.420552 398.64351 
L 561.866948 398.64351 
L 561.866948 18.118365 
L 38.420552 18.118365 
L 38.420552 398.64351 
z
" style="fill: none; opacity: 0"/>
   </g>
   <g id="patch_3">
    <path d="M 38.420552 380.486723 
L 38.420552 36.275152 
" style="fill: none; stroke: #000000; stroke-width: 0.8; stroke-linejoin: miter; stroke-linecap: square"/>
   </g>
   <g id="LineCollection_1">
    <path d="M 256.682167 18.118365 
L 256.682167 398.64351 
" clip-path="url(#p5ec7667418)" style="fill: none; stroke-dasharray: 3.7,1.6; stroke-dashoffset: 0; stroke: #000000"/>
    <path d="M 322.078906 18.118365 
L 322.078906 398.64351 
" clip-path="url(#p5ec7667418)" style="fill: none; stroke-dasharray: 3.7,1.6; stroke-dashoffset: 0; stroke: #000000"/>
   </g>
   <g id="matplotlib.axis_1">
    <g id="xtick_1">
     <g id="line2d_1">
      <defs>
       <path id="mb4af18a9e8" d="M 0 0 
L 0 3.5 
" style="stroke: #000000; stroke-width: 0.8"/>
      </defs>
      <g>
       <use xlink:href="#mb4af18a9e8" x="38.693039" y="398.64351" style="stroke: #000000; stroke-width: 0.8"/>
      </g>
     </g>
     <g id="text_1">
      <!-- −0.20 -->
      <g transform="translate(23.370383 413.241947) scale(0.1 -0.1)">
       <defs>
        <path id="DejaVuSans-2212" d="M 678 2272 
L 4684 2272 
L 4684 1741 
L 678 1741 
L 678 2272 
z
" transform="scale(0.015625)"/>
        <path id="DejaVuSans-30" d="M 2034 4250 
Q 1547 4250 1301 3770 
Q 1056 3291 1056 2328 
Q 1056 1369 1301 889 
Q 1547 409 2034 409 
Q 2525 409 2770 889 
Q 3016 1369 3016 2328 
Q 3016 3291 2770 3770 
Q 2525 4250 2034 4250 
z
M 2034 4750 
Q 2819 4750 3233 4129 
Q 3647 3509 3647 2328 
Q 3647 1150 3233 529 
Q 2819 -91 2034 -91 
Q 1250 -91 836 529 
Q 422 1150 422 2328 
Q 422 3509 836 4129 
Q 1250 4750 2034 4750 
z
" transform="scale(0.015625)"/>
        <path id="DejaVuSans-2e" d="M 684 794 
L 1344 794 
L 1344 0 
L 684 0 
L 684 794 
z
" transform="scale(0.015625)"/>
        <path id="DejaVuSans-32" d="M 1228 531 
L 3431 531 
L 3431 0 
L 469 0 
L 469 531 
Q 828 903 1448 1529 
Q 2069 2156 2228 2338 
Q 2531 2678 2651 2914 
Q 2772 3150 2772 3378 
Q 2772 3750 2511 3984 
Q 2250 4219 1831 4219 
Q 1534 4219 1204 4116 
Q 875 4013 500 3803 
L 500 4441 
Q 881 4594 1212 4672 
Q 1544 4750 1819 4750 
Q 2544 4750 2975 4387 
Q 3406 4025 3406 3419 
Q 3406 3131 3298 2873 
Q 3191 2616 2906 2266 
Q 2828 2175 2409 1742 
Q 1991 1309 1228 531 
z
" transform="scale(0.015625)"/>
       </defs>
       <use xlink:href="#DejaVuSans-2212"/>
       <use xlink:href="#DejaVuSans-30" transform="translate(83.789062 0)"/>
       <use xlink:href="#DejaVuSans-2e" transform="translate(147.412109 0)"/>
       <use xlink:href="#DejaVuSans-32" transform="translate(179.199219 0)"/>
       <use xlink:href="#DejaVuSans-30" transform="translate(242.822266 0)"/>
      </g>
     </g>
    </g>
    <g id="xtick_2">
     <g id="line2d_2">
      <g>
       <use xlink:href="#mb4af18a9e8" x="125.88869" y="398.64351" style="stroke: #000000; stroke-width: 0.8"/>
      </g>
     </g>
     <g id="text_2">
      <!-- 0.00 -->
      <g transform="translate(114.755878 413.241947) scale(0.1 -0.1)">
       <use xlink:href="#DejaVuSans-30"/>
       <use xlink:href="#DejaVuSans-2e" transform="translate(63.623047 0)"/>
       <use xlink:href="#DejaVuSans-30" transform="translate(95.410156 0)"/>
       <use xlink:href="#DejaVuSans-30" transform="translate(159.033203 0)"/>
      </g>
     </g>
    </g>
    <g id="xtick_3">
     <g id="line2d_3">
      <g>
       <use xlink:href="#mb4af18a9e8" x="213.084342" y="398.64351" style="stroke: #000000; stroke-width: 0.8"/>
      </g>
     </g>
     <g id="text_3">
      <!-- 0.20 -->
      <g transform="translate(201.951529 413.241947) scale(0.1 -0.1)">
       <use xlink:href="#DejaVuSans-30"/>
       <use xlink:href="#DejaVuSans-2e" transform="translate(63.623047 0)"/>
       <use xlink:href="#DejaVuSans-32" transform="translate(95.410156 0)"/>
       <use xlink:href="#DejaVuSans-30" transform="translate(159.033203 0)"/>
      </g>
     </g>
    </g>
    <g id="xtick_4">
     <g id="line2d_4">
      <g>
       <use xlink:href="#mb4af18a9e8" x="256.682167" y="398.64351" style="stroke: #000000; stroke-width: 0.8"/>
      </g>
     </g>
     <g id="text_4">
      <!-- 0.30 -->
      <g transform="translate(245.549355 413.241947) scale(0.1 -0.1)">
       <defs>
        <path id="DejaVuSans-33" d="M 2597 2516 
Q 3050 2419 3304 2112 
Q 3559 1806 3559 1356 
Q 3559 666 3084 287 
Q 2609 -91 1734 -91 
Q 1441 -91 1130 -33 
Q 819 25 488 141 
L 488 750 
Q 750 597 1062 519 
Q 1375 441 1716 441 
Q 2309 441 2620 675 
Q 2931 909 2931 1356 
Q 2931 1769 2642 2001 
Q 2353 2234 1838 2234 
L 1294 2234 
L 1294 2753 
L 1863 2753 
Q 2328 2753 2575 2939 
Q 2822 3125 2822 3475 
Q 2822 3834 2567 4026 
Q 2313 4219 1838 4219 
Q 1578 4219 1281 4162 
Q 984 4106 628 3988 
L 628 4550 
Q 988 4650 1302 4700 
Q 1616 4750 1894 4750 
Q 2613 4750 3031 4423 
Q 3450 4097 3450 3541 
Q 3450 3153 3228 2886 
Q 3006 2619 2597 2516 
z
" transform="scale(0.015625)"/>
       </defs>
       <use xlink:href="#DejaVuSans-30"/>
       <use xlink:href="#DejaVuSans-2e" transform="translate(63.623047 0)"/>
       <use xlink:href="#DejaVuSans-33" transform="translate(95.410156 0)"/>
       <use xlink:href="#DejaVuSans-30" transform="translate(159.033203 0)"/>
      </g>
     </g>
    </g>
    <g id="xtick_5">
     <g id="line2d_5">
      <g>
       <use xlink:href="#mb4af18a9e8" x="300.279993" y="398.64351" style="stroke: #000000; stroke-width: 0.8"/>
      </g>
     </g>
     <g id="text_5">
      <!-- 0.40 -->
      <g transform="translate(289.147181 413.241947) scale(0.1 -0.1)">
       <defs>
        <path id="DejaVuSans-34" d="M 2419 4116 
L 825 1625 
L 2419 1625 
L 2419 4116 
z
M 2253 4666 
L 3047 4666 
L 3047 1625 
L 3713 1625 
L 3713 1100 
L 3047 1100 
L 3047 0 
L 2419 0 
L 2419 1100 
L 313 1100 
L 313 1709 
L 2253 4666 
z
" transform="scale(0.015625)"/>
       </defs>
       <use xlink:href="#DejaVuSans-30"/>
       <use xlink:href="#DejaVuSans-2e" transform="translate(63.623047 0)"/>
       <use xlink:href="#DejaVuSans-34" transform="translate(95.410156 0)"/>
       <use xlink:href="#DejaVuSans-30" transform="translate(159.033203 0)"/>
      </g>
     </g>
    </g>
    <g id="xtick_6">
     <g id="line2d_6">
      <g>
       <use xlink:href="#mb4af18a9e8" x="322.078906" y="398.64351" style="stroke: #000000; stroke-width: 0.8"/>
      </g>
     </g>
     <g id="text_6">
      <!-- 0.45 -->
      <g transform="translate(310.946094 413.241947) scale(0.1 -0.1)">
       <defs>
        <path id="DejaVuSans-35" d="M 691 4666 
L 3169 4666 
L 3169 4134 
L 1269 4134 
L 1269 2991 
Q 1406 3038 1543 3061 
Q 1681 3084 1819 3084 
Q 2600 3084 3056 2656 
Q 3513 2228 3513 1497 
Q 3513 744 3044 326 
Q 2575 -91 1722 -91 
Q 1428 -91 1123 -41 
Q 819 9 494 109 
L 494 744 
Q 775 591 1075 516 
Q 1375 441 1709 441 
Q 2250 441 2565 725 
Q 2881 1009 2881 1497 
Q 2881 1984 2565 2268 
Q 2250 2553 1709 2553 
Q 1456 2553 1204 2497 
Q 953 2441 691 2322 
L 691 4666 
z
" transform="scale(0.015625)"/>
       </defs>
       <use xlink:href="#DejaVuSans-30"/>
       <use xlink:href="#DejaVuSans-2e" transform="translate(63.623047 0)"/>
       <use xlink:href="#DejaVuSans-34" transform="translate(95.410156 0)"/>
       <use xlink:href="#DejaVuSans-35" transform="translate(159.033203 0)"/>
      </g>
     </g>
    </g>
    <g id="xtick_7">
     <g id="line2d_7">
      <g>
       <use xlink:href="#mb4af18a9e8" x="387.475645" y="398.64351" style="stroke: #000000; stroke-width: 0.8"/>
      </g>
     </g>
     <g id="text_7">
      <!-- 0.60 -->
      <g transform="translate(376.342832 413.241947) scale(0.1 -0.1)">
       <defs>
        <path id="DejaVuSans-36" d="M 2113 2584 
Q 1688 2584 1439 2293 
Q 1191 2003 1191 1497 
Q 1191 994 1439 701 
Q 1688 409 2113 409 
Q 2538 409 2786 701 
Q 3034 994 3034 1497 
Q 3034 2003 2786 2293 
Q 2538 2584 2113 2584 
z
M 3366 4563 
L 3366 3988 
Q 3128 4100 2886 4159 
Q 2644 4219 2406 4219 
Q 1781 4219 1451 3797 
Q 1122 3375 1075 2522 
Q 1259 2794 1537 2939 
Q 1816 3084 2150 3084 
Q 2853 3084 3261 2657 
Q 3669 2231 3669 1497 
Q 3669 778 3244 343 
Q 2819 -91 2113 -91 
Q 1303 -91 875 529 
Q 447 1150 447 2328 
Q 447 3434 972 4092 
Q 1497 4750 2381 4750 
Q 2619 4750 2861 4703 
Q 3103 4656 3366 4563 
z
" transform="scale(0.015625)"/>
       </defs>
       <use xlink:href="#DejaVuSans-30"/>
       <use xlink:href="#DejaVuSans-2e" transform="translate(63.623047 0)"/>
       <use xlink:href="#DejaVuSans-36" transform="translate(95.410156 0)"/>
       <use xlink:href="#DejaVuSans-30" transform="translate(159.033203 0)"/>
      </g>
     </g>
    </g>
    <g id="xtick_8">
     <g id="line2d_8">
      <g>
       <use xlink:href="#mb4af18a9e8" x="474.671296" y="398.64351" style="stroke: #000000; stroke-width: 0.8"/>
      </g>
     </g>
     <g id="text_8">
      <!-- 0.80 -->
      <g transform="translate(463.538484 413.241947) scale(0.1 -0.1)">
       <defs>
        <path id="DejaVuSans-38" d="M 2034 2216 
Q 1584 2216 1326 1975 
Q 1069 1734 1069 1313 
Q 1069 891 1326 650 
Q 1584 409 2034 409 
Q 2484 409 2743 651 
Q 3003 894 3003 1313 
Q 3003 1734 2745 1975 
Q 2488 2216 2034 2216 
z
M 1403 2484 
Q 997 2584 770 2862 
Q 544 3141 544 3541 
Q 544 4100 942 4425 
Q 1341 4750 2034 4750 
Q 2731 4750 3128 4425 
Q 3525 4100 3525 3541 
Q 3525 3141 3298 2862 
Q 3072 2584 2669 2484 
Q 3125 2378 3379 2068 
Q 3634 1759 3634 1313 
Q 3634 634 3220 271 
Q 2806 -91 2034 -91 
Q 1263 -91 848 271 
Q 434 634 434 1313 
Q 434 1759 690 2068 
Q 947 2378 1403 2484 
z
M 1172 3481 
Q 1172 3119 1398 2916 
Q 1625 2713 2034 2713 
Q 2441 2713 2670 2916 
Q 2900 3119 2900 3481 
Q 2900 3844 2670 4047 
Q 2441 4250 2034 4250 
Q 1625 4250 1398 4047 
Q 1172 3844 1172 3481 
z
" transform="scale(0.015625)"/>
       </defs>
       <use xlink:href="#DejaVuSans-30"/>
       <use xlink:href="#DejaVuSans-2e" transform="translate(63.623047 0)"/>
       <use xlink:href="#DejaVuSans-38" transform="translate(95.410156 0)"/>
       <use xlink:href="#DejaVuSans-30" transform="translate(159.033203 0)"/>
      </g>
     </g>
    </g>
    <g id="xtick_9">
     <g id="line2d_9">
      <g>
       <use xlink:href="#mb4af18a9e8" x="561.866948" y="398.64351" style="stroke: #000000; stroke-width: 0.8"/>
      </g>
     </g>
     <g id="text_9">
      <!-- 1.00 -->
      <g transform="translate(550.734135 413.241947) scale(0.1 -0.1)">
       <defs>
        <path id="DejaVuSans-31" d="M 794 531 
L 1825 531 
L 1825 4091 
L 703 3866 
L 703 4441 
L 1819 4666 
L 2450 4666 
L 2450 531 
L 3481 531 
L 3481 0 
L 794 0 
L 794 531 
z
" transform="scale(0.015625)"/>
       </defs>
       <use xlink:href="#DejaVuSans-31"/>
       <use xlink:href="#DejaVuSans-2e" transform="translate(63.623047 0)"/>
       <use xlink:href="#DejaVuSans-30" transform="translate(95.410156 0)"/>
       <use xlink:href="#DejaVuSans-30" transform="translate(159.033203 0)"/>
      </g>
     </g>
    </g>
    <g id="text_10">
     <!-- Time (s) -->
     <g transform="translate(279.814844 426.920073) scale(0.1 -0.1)">
      <defs>
       <path id="DejaVuSans-54" d="M -19 4666 
L 3928 4666 
L 3928 4134 
L 2272 4134 
L 2272 0 
L 1638 0 
L 1638 4134 
L -19 4134 
L -19 4666 
z
" transform="scale(0.015625)"/>
       <path id="DejaVuSans-69" d="M 603 3500 
L 1178 3500 
L 1178 0 
L 603 0 
L 603 3500 
z
M 603 4863 
L 1178 4863 
L 1178 4134 
L 603 4134 
L 603 4863 
z
" transform="scale(0.015625)"/>
       <path id="DejaVuSans-6d" d="M 3328 2828 
Q 3544 3216 3844 3400 
Q 4144 3584 4550 3584 
Q 5097 3584 5394 3201 
Q 5691 2819 5691 2113 
L 5691 0 
L 5113 0 
L 5113 2094 
Q 5113 2597 4934 2840 
Q 4756 3084 4391 3084 
Q 3944 3084 3684 2787 
Q 3425 2491 3425 1978 
L 3425 0 
L 2847 0 
L 2847 2094 
Q 2847 2600 2669 2842 
Q 2491 3084 2119 3084 
Q 1678 3084 1418 2786 
Q 1159 2488 1159 1978 
L 1159 0 
L 581 0 
L 581 3500 
L 1159 3500 
L 1159 2956 
Q 1356 3278 1631 3431 
Q 1906 3584 2284 3584 
Q 2666 3584 2933 3390 
Q 3200 3197 3328 2828 
z
" transform="scale(0.015625)"/>
       <path id="DejaVuSans-65" d="M 3597 1894 
L 3597 1613 
L 953 1613 
Q 991 1019 1311 708 
Q 1631 397 2203 397 
Q 2534 397 2845 478 
Q 3156 559 3463 722 
L 3463 178 
Q 3153 47 2828 -22 
Q 2503 -91 2169 -91 
Q 1331 -91 842 396 
Q 353 884 353 1716 
Q 353 2575 817 3079 
Q 1281 3584 2069 3584 
Q 2775 3584 3186 3129 
Q 3597 2675 3597 1894 
z
M 3022 2063 
Q 3016 2534 2758 2815 
Q 2500 3097 2075 3097 
Q 1594 3097 1305 2825 
Q 1016 2553 972 2059 
L 3022 2063 
z
" transform="scale(0.015625)"/>
       <path id="DejaVuSans-20" transform="scale(0.015625)"/>
       <path id="DejaVuSans-28" d="M 1984 4856 
Q 1566 4138 1362 3434 
Q 1159 2731 1159 2009 
Q 1159 1288 1364 580 
Q 1569 -128 1984 -844 
L 1484 -844 
Q 1016 -109 783 600 
Q 550 1309 550 2009 
Q 550 2706 781 3412 
Q 1013 4119 1484 4856 
L 1984 4856 
z
" transform="scale(0.015625)"/>
       <path id="DejaVuSans-73" d="M 2834 3397 
L 2834 2853 
Q 2591 2978 2328 3040 
Q 2066 3103 1784 3103 
Q 1356 3103 1142 2972 
Q 928 2841 928 2578 
Q 928 2378 1081 2264 
Q 1234 2150 1697 2047 
L 1894 2003 
Q 2506 1872 2764 1633 
Q 3022 1394 3022 966 
Q 3022 478 2636 193 
Q 2250 -91 1575 -91 
Q 1294 -91 989 -36 
Q 684 19 347 128 
L 347 722 
Q 666 556 975 473 
Q 1284 391 1588 391 
Q 1994 391 2212 530 
Q 2431 669 2431 922 
Q 2431 1156 2273 1281 
Q 2116 1406 1581 1522 
L 1381 1569 
Q 847 1681 609 1914 
Q 372 2147 372 2553 
Q 372 3047 722 3315 
Q 1072 3584 1716 3584 
Q 2034 3584 2315 3537 
Q 2597 3491 2834 3397 
z
" transform="scale(0.015625)"/>
       <path id="DejaVuSans-29" d="M 513 4856 
L 1013 4856 
Q 1481 4119 1714 3412 
Q 1947 2706 1947 2009 
Q 1947 1309 1714 600 
Q 1481 -109 1013 -844 
L 513 -844 
Q 928 -128 1133 580 
Q 1338 1288 1338 2009 
Q 1338 2731 1133 3434 
Q 928 4138 513 4856 
z
" transform="scale(0.015625)"/>
      </defs>
      <use xlink:href="#DejaVuSans-54"/>
      <use xlink:href="#DejaVuSans-69" transform="translate(57.958984 0)"/>
      <use xlink:href="#DejaVuSans-6d" transform="translate(85.742188 0)"/>
      <use xlink:href="#DejaVuSans-65" transform="translate(183.154297 0)"/>
      <use xlink:href="#DejaVuSans-20" transform="translate(244.677734 0)"/>
      <use xlink:href="#DejaVuSans-28" transform="translate(276.464844 0)"/>
      <use xlink:href="#DejaVuSans-73" transform="translate(315.478516 0)"/>
      <use xlink:href="#DejaVuSans-29" transform="translate(367.578125 0)"/>
     </g>
    </g>
   </g>
   <g id="matplotlib.axis_2">
    <g id="ytick_1">
     <g id="line2d_10">
      <defs>
       <path id="m538f0bda85" d="M 0 0 
L -3.5 0 
" style="stroke: #000000; stroke-width: 0.8"/>
      </defs>
      <g>
       <use xlink:href="#m538f0bda85" x="38.420552" y="380.486723" style="stroke: #000000; stroke-width: 0.8"/>
      </g>
     </g>
     <g id="text_11">
      <!-- −6 -->
      <g transform="translate(16.678365 384.285942) scale(0.1 -0.1)">
       <use xlink:href="#DejaVuSans-2212"/>
       <use xlink:href="#DejaVuSans-36" transform="translate(83.789062 0)"/>
      </g>
     </g>
    </g>
    <g id="ytick_2">
     <g id="line2d_11">
      <g>
       <use xlink:href="#m538f0bda85" x="38.420552" y="323.118128" style="stroke: #000000; stroke-width: 0.8"/>
      </g>
     </g>
     <g id="text_12">
      <!-- −4 -->
      <g transform="translate(16.678365 326.917347) scale(0.1 -0.1)">
       <use xlink:href="#DejaVuSans-2212"/>
       <use xlink:href="#DejaVuSans-34" transform="translate(83.789062 0)"/>
      </g>
     </g>
    </g>
    <g id="ytick_3">
     <g id="line2d_12">
      <g>
       <use xlink:href="#m538f0bda85" x="38.420552" y="265.749533" style="stroke: #000000; stroke-width: 0.8"/>
      </g>
     </g>
     <g id="text_13">
      <!-- −2 -->
      <g transform="translate(16.678365 269.548752) scale(0.1 -0.1)">
       <use xlink:href="#DejaVuSans-2212"/>
       <use xlink:href="#DejaVuSans-32" transform="translate(83.789062 0)"/>
      </g>
     </g>
    </g>
    <g id="ytick_4">
     <g id="line2d_13">
      <g>
       <use xlink:href="#m538f0bda85" x="38.420552" y="208.380938" style="stroke: #000000; stroke-width: 0.8"/>
      </g>
     </g>
     <g id="text_14">
      <!-- 0 -->
      <g transform="translate(25.058052 212.180156) scale(0.1 -0.1)">
       <use xlink:href="#DejaVuSans-30"/>
      </g>
     </g>
    </g>
    <g id="ytick_5">
     <g id="line2d_14">
      <g>
       <use xlink:href="#m538f0bda85" x="38.420552" y="151.012342" style="stroke: #000000; stroke-width: 0.8"/>
      </g>
     </g>
     <g id="text_15">
      <!-- 2 -->
      <g transform="translate(25.058052 154.811561) scale(0.1 -0.1)">
       <use xlink:href="#DejaVuSans-32"/>
      </g>
     </g>
    </g>
    <g id="ytick_6">
     <g id="line2d_15">
      <g>
       <use xlink:href="#m538f0bda85" x="38.420552" y="93.643747" style="stroke: #000000; stroke-width: 0.8"/>
      </g>
     </g>
     <g id="text_16">
      <!-- 4 -->
      <g transform="translate(25.058052 97.442966) scale(0.1 -0.1)">
       <use xlink:href="#DejaVuSans-34"/>
      </g>
     </g>
    </g>
    <g id="ytick_7">
     <g id="line2d_16">
      <g>
       <use xlink:href="#m538f0bda85" x="38.420552" y="36.275152" style="stroke: #000000; stroke-width: 0.8"/>
      </g>
     </g>
     <g id="text_17">
      <!-- 6 -->
      <g transform="translate(25.058052 40.07437) scale(0.1 -0.1)">
       <use xlink:href="#DejaVuSans-36"/>
      </g>
     </g>
    </g>
    <g id="text_18">
     <!-- µV -->
     <g transform="translate(10.598677 214.9825) rotate(-90) scale(0.1 -0.1)">
      <defs>
       <path id="DejaVuSans-b5" d="M 544 -1331 
L 544 3500 
L 1119 3500 
L 1119 1325 
Q 1119 872 1334 640 
Q 1550 409 1972 409 
Q 2434 409 2667 671 
Q 2900 934 2900 1459 
L 2900 3500 
L 3475 3500 
L 3475 806 
Q 3475 619 3529 530 
Q 3584 441 3700 441 
Q 3728 441 3778 458 
Q 3828 475 3916 513 
L 3916 50 
Q 3788 -22 3673 -56 
Q 3559 -91 3450 -91 
Q 3234 -91 3106 31 
Q 2978 153 2931 403 
Q 2775 156 2548 32 
Q 2322 -91 2016 -91 
Q 1697 -91 1473 31 
Q 1250 153 1119 397 
L 1119 -1331 
L 544 -1331 
z
" transform="scale(0.015625)"/>
       <path id="DejaVuSans-56" d="M 1831 0 
L 50 4666 
L 709 4666 
L 2188 738 
L 3669 4666 
L 4325 4666 
L 2547 0 
L 1831 0 
z
" transform="scale(0.015625)"/>
      </defs>
      <use xlink:href="#DejaVuSans-b5"/>
      <use xlink:href="#DejaVuSans-56" transform="translate(63.623047 0)"/>
     </g>
    </g>
   </g>
   <g id="patch_4">
    <path d="M 38.693039 398.64351 
L 561.866948 398.64351 
" style="fill: none; stroke: #000000; stroke-width: 0.8; stroke-linejoin: miter; stroke-linecap: square"/>
   </g>
   <g id="patch_5">
    <path d="M 38.420552 208.380938 
L 561.866948 208.380938 
" style="fill: none; stroke: #000000; stroke-width: 0.8; stroke-linejoin: miter; stroke-linecap: square"/>
   </g>
   <g id="text_19">
    <!-- F3, F7 (median) -->
    <g transform="translate(252.712813 12.118365) scale(0.12 -0.12)">
     <defs>
      <path id="DejaVuSans-46" d="M 628 4666 
L 3309 4666 
L 3309 4134 
L 1259 4134 
L 1259 2759 
L 3109 2759 
L 3109 2228 
L 1259 2228 
L 1259 0 
L 628 0 
L 628 4666 
z
" transform="scale(0.015625)"/>
      <path id="DejaVuSans-2c" d="M 750 794 
L 1409 794 
L 1409 256 
L 897 -744 
L 494 -744 
L 750 256 
L 750 794 
z
" transform="scale(0.015625)"/>
      <path id="DejaVuSans-37" d="M 525 4666 
L 3525 4666 
L 3525 4397 
L 1831 0 
L 1172 0 
L 2766 4134 
L 525 4134 
L 525 4666 
z
" transform="scale(0.015625)"/>
      <path id="DejaVuSans-64" d="M 2906 2969 
L 2906 4863 
L 3481 4863 
L 3481 0 
L 2906 0 
L 2906 525 
Q 2725 213 2448 61 
Q 2172 -91 1784 -91 
Q 1150 -91 751 415 
Q 353 922 353 1747 
Q 353 2572 751 3078 
Q 1150 3584 1784 3584 
Q 2172 3584 2448 3432 
Q 2725 3281 2906 2969 
z
M 947 1747 
Q 947 1113 1208 752 
Q 1469 391 1925 391 
Q 2381 391 2643 752 
Q 2906 1113 2906 1747 
Q 2906 2381 2643 2742 
Q 2381 3103 1925 3103 
Q 1469 3103 1208 2742 
Q 947 2381 947 1747 
z
" transform="scale(0.015625)"/>
      <path id="DejaVuSans-61" d="M 2194 1759 
Q 1497 1759 1228 1600 
Q 959 1441 959 1056 
Q 959 750 1161 570 
Q 1363 391 1709 391 
Q 2188 391 2477 730 
Q 2766 1069 2766 1631 
L 2766 1759 
L 2194 1759 
z
M 3341 1997 
L 3341 0 
L 2766 0 
L 2766 531 
Q 2569 213 2275 61 
Q 1981 -91 1556 -91 
Q 1019 -91 701 211 
Q 384 513 384 1019 
Q 384 1609 779 1909 
Q 1175 2209 1959 2209 
L 2766 2209 
L 2766 2266 
Q 2766 2663 2505 2880 
Q 2244 3097 1772 3097 
Q 1472 3097 1187 3025 
Q 903 2953 641 2809 
L 641 3341 
Q 956 3463 1253 3523 
Q 1550 3584 1831 3584 
Q 2591 3584 2966 3190 
Q 3341 2797 3341 1997 
z
" transform="scale(0.015625)"/>
      <path id="DejaVuSans-6e" d="M 3513 2113 
L 3513 0 
L 2938 0 
L 2938 2094 
Q 2938 2591 2744 2837 
Q 2550 3084 2163 3084 
Q 1697 3084 1428 2787 
Q 1159 2491 1159 1978 
L 1159 0 
L 581 0 
L 581 3500 
L 1159 3500 
L 1159 2956 
Q 1366 3272 1645 3428 
Q 1925 3584 2291 3584 
Q 2894 3584 3203 3211 
Q 3513 2838 3513 2113 
z
" transform="scale(0.015625)"/>
     </defs>
     <use xlink:href="#DejaVuSans-46"/>
     <use xlink:href="#DejaVuSans-33" transform="translate(57.519531 0)"/>
     <use xlink:href="#DejaVuSans-2c" transform="translate(121.142578 0)"/>
     <use xlink:href="#DejaVuSans-20" transform="translate(152.929688 0)"/>
     <use xlink:href="#DejaVuSans-46" transform="translate(184.716797 0)"/>
     <use xlink:href="#DejaVuSans-37" transform="translate(242.236328 0)"/>
     <use xlink:href="#DejaVuSans-20" transform="translate(305.859375 0)"/>
     <use xlink:href="#DejaVuSans-28" transform="translate(337.646484 0)"/>
     <use xlink:href="#DejaVuSans-6d" transform="translate(376.660156 0)"/>
     <use xlink:href="#DejaVuSans-65" transform="translate(474.072266 0)"/>
     <use xlink:href="#DejaVuSans-64" transform="translate(535.595703 0)"/>
     <use xlink:href="#DejaVuSans-69" transform="translate(599.072266 0)"/>
     <use xlink:href="#DejaVuSans-61" transform="translate(626.855469 0)"/>
     <use xlink:href="#DejaVuSans-6e" transform="translate(688.134766 0)"/>
     <use xlink:href="#DejaVuSans-29" transform="translate(751.513672 0)"/>
    </g>
   </g>
   <g id="legend_1">
    <g id="patch_6">
     <path d="M 45.420552 55.75274 
L 126.56274 55.75274 
Q 128.56274 55.75274 128.56274 53.75274 
L 128.56274 25.118365 
Q 128.56274 23.118365 126.56274 23.118365 
L 45.420552 23.118365 
Q 43.420552 23.118365 43.420552 25.118365 
L 43.420552 53.75274 
Q 43.420552 55.75274 45.420552 55.75274 
z
" style="fill: #ffffff; opacity: 0.8; stroke: #cccccc; stroke-linejoin: miter"/>
    </g>
    <g id="line2d_17">
     <path d="M 47.420552 31.216803 
L 57.420552 31.216803 
L 67.420552 31.216803 
" style="fill: none; stroke: #1f77b4; stroke-width: 1.5; stroke-linecap: square"/>
    </g>
    <g id="text_20">
     <!-- eerie -->
     <g transform="translate(75.420552 34.716803) scale(0.1 -0.1)">
      <defs>
       <path id="DejaVuSans-72" d="M 2631 2963 
Q 2534 3019 2420 3045 
Q 2306 3072 2169 3072 
Q 1681 3072 1420 2755 
Q 1159 2438 1159 1844 
L 1159 0 
L 581 0 
L 581 3500 
L 1159 3500 
L 1159 2956 
Q 1341 3275 1631 3429 
Q 1922 3584 2338 3584 
Q 2397 3584 2469 3576 
Q 2541 3569 2628 3553 
L 2631 2963 
z
" transform="scale(0.015625)"/>
      </defs>
      <use xlink:href="#DejaVuSans-65"/>
      <use xlink:href="#DejaVuSans-65" transform="translate(61.523438 0)"/>
      <use xlink:href="#DejaVuSans-72" transform="translate(123.046875 0)"/>
      <use xlink:href="#DejaVuSans-69" transform="translate(164.160156 0)"/>
      <use xlink:href="#DejaVuSans-65" transform="translate(191.943359 0)"/>
     </g>
    </g>
    <g id="line2d_18">
     <path d="M 47.420552 45.894928 
L 57.420552 45.894928 
L 67.420552 45.894928 
" style="fill: none; stroke: #ff7f0e; stroke-width: 1.5; stroke-linecap: square"/>
    </g>
    <g id="text_21">
     <!-- non_eerie -->
     <g transform="translate(75.420552 49.394928) scale(0.1 -0.1)">
      <defs>
       <path id="DejaVuSans-6f" d="M 1959 3097 
Q 1497 3097 1228 2736 
Q 959 2375 959 1747 
Q 959 1119 1226 758 
Q 1494 397 1959 397 
Q 2419 397 2687 759 
Q 2956 1122 2956 1747 
Q 2956 2369 2687 2733 
Q 2419 3097 1959 3097 
z
M 1959 3584 
Q 2709 3584 3137 3096 
Q 3566 2609 3566 1747 
Q 3566 888 3137 398 
Q 2709 -91 1959 -91 
Q 1206 -91 779 398 
Q 353 888 353 1747 
Q 353 2609 779 3096 
Q 1206 3584 1959 3584 
z
" transform="scale(0.015625)"/>
       <path id="DejaVuSans-5f" d="M 3263 -1063 
L 3263 -1509 
L -63 -1509 
L -63 -1063 
L 3263 -1063 
z
" transform="scale(0.015625)"/>
      </defs>
      <use xlink:href="#DejaVuSans-6e"/>
      <use xlink:href="#DejaVuSans-6f" transform="translate(63.378906 0)"/>
      <use xlink:href="#DejaVuSans-6e" transform="translate(124.560547 0)"/>
      <use xlink:href="#DejaVuSans-5f" transform="translate(187.939453 0)"/>
      <use xlink:href="#DejaVuSans-65" transform="translate(237.939453 0)"/>
      <use xlink:href="#DejaVuSans-65" transform="translate(299.462891 0)"/>
      <use xlink:href="#DejaVuSans-72" transform="translate(360.986328 0)"/>
      <use xlink:href="#DejaVuSans-69" transform="translate(402.099609 0)"/>
      <use xlink:href="#DejaVuSans-65" transform="translate(429.882812 0)"/>
     </g>
    </g>
   </g>
   <g id="FillBetweenPolyCollection_1">
    <defs>
     <path id="m5071310517" d="M 38.420552 -225.797741 
L 38.420552 -184.559231 
L 40.123593 -193.00863 
L 41.826633 -192.972001 
L 43.529673 -194.91697 
L 45.232713 -204.304359 
L 46.935753 -215.336534 
L 48.638793 -219.169206 
L 50.341833 -218.618134 
L 52.044873 -218.10112 
L 53.747913 -219.886199 
L 55.450953 -222.159966 
L 57.153993 -226.572813 
L 58.857033 -232.190823 
L 60.560073 -234.363094 
L 62.263113 -228.480875 
L 63.966154 -219.109801 
L 65.669194 -210.841024 
L 67.372234 -206.150544 
L 69.075274 -204.703985 
L 70.778314 -203.765436 
L 72.481354 -200.364202 
L 74.184394 -193.474004 
L 75.887434 -186.961868 
L 77.590474 -182.711634 
L 79.293514 -182.105299 
L 80.996554 -183.521675 
L 82.699594 -185.768709 
L 84.402634 -185.723598 
L 86.105674 -183.25718 
L 87.808714 -181.816692 
L 89.511755 -184.736153 
L 91.214795 -191.725358 
L 92.917835 -198.543117 
L 94.620875 -200.203158 
L 96.323915 -198.024128 
L 98.026955 -196.689826 
L 99.729995 -199.861081 
L 101.433035 -209.775335 
L 103.136075 -221.307716 
L 104.839115 -229.619165 
L 106.542155 -227.642522 
L 108.245195 -213.696222 
L 109.948235 -194.337971 
L 111.651275 -179.382872 
L 113.354315 -172.917714 
L 115.057356 -177.102988 
L 116.760396 -191.063483 
L 118.463436 -210.071766 
L 120.166476 -222.589735 
L 121.869516 -223.074938 
L 123.572556 -207.59581 
L 125.275596 -182.713463 
L 126.978636 -155.125481 
L 128.681676 -131.890864 
L 130.384716 -118.127654 
L 132.087756 -117.234658 
L 133.790796 -125.635889 
L 135.493836 -137.646314 
L 137.196876 -145.529432 
L 138.899916 -147.619143 
L 140.602957 -143.648557 
L 142.305997 -133.230024 
L 144.009037 -118.644851 
L 145.712077 -106.84638 
L 147.415117 -104.44797 
L 149.118157 -116.19597 
L 150.821197 -140.064127 
L 152.524237 -165.267079 
L 154.227277 -183.175296 
L 155.930317 -191.484541 
L 157.633357 -187.438743 
L 159.336397 -175.352486 
L 161.039437 -159.16905 
L 162.742477 -141.666124 
L 164.445517 -124.711895 
L 166.148558 -108.405717 
L 167.851598 -95.768184 
L 169.554638 -80.862109 
L 171.257678 -64.46197 
L 172.960718 -47.620898 
L 174.663758 -35.82948 
L 176.366798 -33.35649 
L 178.069838 -43.364541 
L 179.772878 -65.136313 
L 181.475918 -95.590605 
L 183.178958 -131.059867 
L 184.881998 -164.400262 
L 186.585038 -192.791241 
L 188.288078 -212.213113 
L 189.991118 -221.181909 
L 191.694159 -221.28785 
L 193.397199 -216.036842 
L 195.100239 -210.835826 
L 196.803279 -212.542109 
L 198.506319 -221.98164 
L 200.209359 -234.801827 
L 201.912399 -245.981834 
L 203.615439 -248.657503 
L 205.318479 -244.689083 
L 207.021519 -238.743859 
L 208.724559 -233.392023 
L 210.427599 -231.902859 
L 212.130639 -233.218853 
L 213.833679 -235.758177 
L 215.536719 -239.723077 
L 217.23976 -248.618611 
L 218.9428 -263.462256 
L 220.64584 -281.371586 
L 222.34888 -297.753232 
L 224.05192 -309.758778 
L 225.75496 -320.292836 
L 227.458 -327.33264 
L 229.16104 -328.164958 
L 230.86408 -324.969029 
L 232.56712 -320.095564 
L 234.27016 -316.415959 
L 235.9732 -313.617182 
L 237.67624 -311.566637 
L 239.37928 -312.695086 
L 241.08232 -323.043914 
L 242.785361 -338.35756 
L 244.488401 -355.435739 
L 246.191441 -363.031553 
L 247.894481 -354.702194 
L 249.597521 -333.17392 
L 251.300561 -307.952813 
L 253.003601 -289.091596 
L 254.706641 -286.155352 
L 256.409681 -297.756528 
L 258.112721 -310.118132 
L 259.815761 -306.619078 
L 261.518801 -284.16747 
L 263.221841 -244.95659 
L 264.924881 -202.402186 
L 266.627921 -170.533593 
L 268.330962 -158.467117 
L 270.034002 -165.063538 
L 271.737042 -182.190076 
L 273.440082 -199.807724 
L 275.143122 -215.210625 
L 276.846162 -224.423239 
L 278.549202 -224.494226 
L 280.252242 -215.913313 
L 281.955282 -200.08277 
L 283.658322 -177.412069 
L 285.361362 -153.6807 
L 287.064402 -137.055095 
L 288.767442 -131.600405 
L 290.470482 -141.72372 
L 292.173522 -160.653519 
L 293.876563 -178.462652 
L 295.579603 -186.02162 
L 297.282643 -181.883259 
L 298.985683 -174.321529 
L 300.688723 -168.143504 
L 302.391763 -164.483849 
L 304.094803 -161.766235 
L 305.797843 -159.376726 
L 307.500883 -155.076591 
L 309.203923 -148.154284 
L 310.906963 -141.088923 
L 312.610003 -137.28627 
L 314.313043 -137.415114 
L 316.016083 -140.533741 
L 317.719123 -144.287313 
L 319.422164 -147.736208 
L 321.125204 -158.292943 
L 322.828244 -174.087582 
L 324.531284 -191.408597 
L 326.234324 -208.665088 
L 327.937364 -214.999227 
L 329.640404 -207.073665 
L 331.343444 -184.646754 
L 333.046484 -155.85445 
L 334.749524 -139.391283 
L 336.452564 -146.581887 
L 338.155604 -174.095199 
L 339.858644 -210.076292 
L 341.561684 -235.039828 
L 343.264724 -240.078152 
L 344.967765 -221.693841 
L 346.670805 -194.488159 
L 348.373845 -173.513336 
L 350.076885 -164.47181 
L 351.779925 -168.563881 
L 353.482965 -179.168414 
L 355.186005 -191.485926 
L 356.889045 -199.267645 
L 358.592085 -203.621413 
L 360.295125 -204.291087 
L 361.998165 -204.136683 
L 363.701205 -200.89669 
L 365.404245 -193.304947 
L 367.107285 -178.496121 
L 368.810326 -163.036719 
L 370.513366 -151.108944 
L 372.216406 -145.682053 
L 373.919446 -144.944942 
L 375.622486 -148.321854 
L 377.325526 -153.356357 
L 379.028566 -159.475271 
L 380.731606 -166.429237 
L 382.434646 -170.701972 
L 384.137686 -169.468529 
L 385.840726 -162.874853 
L 387.543766 -151.747006 
L 389.246806 -138.672917 
L 390.949846 -129.448371 
L 392.652886 -130.029059 
L 394.355927 -138.796148 
L 396.058967 -151.082505 
L 397.762007 -162.362342 
L 399.465047 -167.983104 
L 401.168087 -165.806559 
L 402.871127 -158.820051 
L 404.574167 -156.748955 
L 406.277207 -163.546408 
L 407.980247 -176.120749 
L 409.683287 -187.942981 
L 411.386327 -190.008561 
L 413.089367 -179.737043 
L 414.792407 -158.848662 
L 416.495447 -140.75123 
L 418.198487 -137.22331 
L 419.901528 -148.472267 
L 421.604568 -165.934387 
L 423.307608 -179.5974 
L 425.010648 -179.383186 
L 426.713688 -164.126517 
L 428.416728 -146.75299 
L 430.119768 -138.904728 
L 431.822808 -144.86163 
L 433.525848 -156.285363 
L 435.228888 -159.688668 
L 436.931928 -149.171813 
L 438.634968 -127.333194 
L 440.338008 -108.158813 
L 442.041048 -106.510228 
L 443.744088 -125.209892 
L 445.447129 -155.203751 
L 447.150169 -180.196121 
L 448.853209 -189.348318 
L 450.556249 -184.23409 
L 452.259289 -173.584688 
L 453.962329 -168.058614 
L 455.665369 -170.340255 
L 457.368409 -175.036708 
L 459.071449 -174.99221 
L 460.774489 -171.311164 
L 462.477529 -169.136777 
L 464.180569 -176.629381 
L 465.883609 -200.44552 
L 467.586649 -235.723634 
L 469.289689 -269.762493 
L 470.99273 -291.338605 
L 472.69577 -292.891189 
L 474.39881 -280.664879 
L 476.10185 -262.033856 
L 477.80489 -243.102445 
L 479.50793 -223.300176 
L 481.21097 -199.3085 
L 482.91401 -175.498092 
L 484.61705 -157.777421 
L 486.32009 -152.068005 
L 488.02313 -156.741832 
L 489.72617 -167.829466 
L 491.42921 -176.908852 
L 493.13225 -178.98862 
L 494.83529 -171.673175 
L 496.538331 -157.939542 
L 498.241371 -144.608471 
L 499.944411 -137.43438 
L 501.647451 -136.190531 
L 503.350491 -138.661826 
L 505.053531 -140.538813 
L 506.756571 -140.540408 
L 508.459611 -139.648174 
L 510.162651 -140.151895 
L 511.865691 -141.628201 
L 513.568731 -142.750125 
L 515.271771 -144.883506 
L 516.974811 -144.755514 
L 518.677851 -143.339193 
L 520.380891 -142.085071 
L 522.083932 -142.781557 
L 523.786972 -147.532151 
L 525.490012 -146.114585 
L 527.193052 -135.820663 
L 528.896092 -120.163588 
L 530.599132 -100.786605 
L 532.302172 -82.55199 
L 534.005212 -67.455903 
L 535.708252 -57.791708 
L 537.411292 -55.326153 
L 539.114332 -60.076668 
L 540.817372 -70.930618 
L 542.520412 -83.338989 
L 544.223452 -91.141216 
L 545.926492 -91.964727 
L 547.629533 -86.961045 
L 549.332573 -82.493443 
L 551.035613 -79.081737 
L 552.738653 -76.851929 
L 554.441693 -77.077802 
L 556.144733 -76.583994 
L 557.847773 -71.905364 
L 559.550813 -60.180442 
L 561.253853 -47.11007 
L 561.253853 -94.788752 
L 561.253853 -94.788752 
L 559.550813 -99.366179 
L 557.847773 -105.397106 
L 556.144733 -113.417384 
L 554.441693 -122.178809 
L 552.738653 -127.721147 
L 551.035613 -132.428648 
L 549.332573 -139.388488 
L 547.629533 -143.681841 
L 545.926492 -144.532568 
L 544.223452 -140.806899 
L 542.520412 -133.298359 
L 540.817372 -122.655494 
L 539.114332 -112.460144 
L 537.411292 -107.70526 
L 535.708252 -110.396606 
L 534.005212 -119.897066 
L 532.302172 -136.342354 
L 530.599132 -155.882172 
L 528.896092 -174.66472 
L 527.193052 -187.457849 
L 525.490012 -193.338057 
L 523.786972 -194.251172 
L 522.083932 -193.721132 
L 520.380891 -190.422232 
L 518.677851 -189.998883 
L 516.974811 -195.738017 
L 515.271771 -205.337685 
L 513.568731 -212.022757 
L 511.865691 -212.827732 
L 510.162651 -207.739137 
L 508.459611 -200.513128 
L 506.756571 -195.159796 
L 505.053531 -190.278581 
L 503.350491 -186.15454 
L 501.647451 -183.881529 
L 499.944411 -186.756577 
L 498.241371 -196.431568 
L 496.538331 -213.271644 
L 494.83529 -230.173795 
L 493.13225 -240.253275 
L 491.42921 -238.890741 
L 489.72617 -226.33252 
L 488.02313 -211.960778 
L 486.32009 -207.905953 
L 484.61705 -215.021852 
L 482.91401 -230.070957 
L 481.21097 -245.958739 
L 479.50793 -261.557453 
L 477.80489 -283.28416 
L 476.10185 -307.576681 
L 474.39881 -331.050403 
L 472.69577 -346.278634 
L 470.99273 -345.380934 
L 469.289689 -324.721122 
L 467.586649 -288.441097 
L 465.883609 -253.448731 
L 464.180569 -229.885365 
L 462.477529 -222.680256 
L 460.774489 -227.56231 
L 459.071449 -232.371473 
L 457.368409 -231.940317 
L 455.665369 -227.920387 
L 453.962329 -228.860932 
L 452.259289 -236.373623 
L 450.556249 -246.784353 
L 448.853209 -249.554987 
L 447.150169 -236.280503 
L 445.447129 -209.399447 
L 443.744088 -181.367689 
L 442.041048 -165.903176 
L 440.338008 -172.23941 
L 438.634968 -194.161251 
L 436.931928 -214.612012 
L 435.228888 -222.683866 
L 433.525848 -214.987492 
L 431.822808 -201.206928 
L 430.119768 -195.462833 
L 428.416728 -203.405604 
L 426.713688 -220.115635 
L 425.010648 -233.736922 
L 423.307608 -235.519008 
L 421.604568 -222.622455 
L 419.901528 -205.559613 
L 418.198487 -196.653412 
L 416.495447 -204.856363 
L 414.792407 -225.409946 
L 413.089367 -247.599016 
L 411.386327 -259.816153 
L 409.683287 -253.646501 
L 407.980247 -234.726272 
L 406.277207 -215.746752 
L 404.574167 -204.570217 
L 402.871127 -204.317987 
L 401.168087 -211.310004 
L 399.465047 -217.151875 
L 397.762007 -216.690433 
L 396.058967 -207.526267 
L 394.355927 -195.80779 
L 392.652886 -189.826351 
L 390.949846 -191.509771 
L 389.246806 -200.487074 
L 387.543766 -210.756706 
L 385.840726 -219.171141 
L 384.137686 -221.83796 
L 382.434646 -219.739872 
L 380.731606 -215.531181 
L 379.028566 -209.386349 
L 377.325526 -203.205199 
L 375.622486 -196.4991 
L 373.919446 -193.437867 
L 372.216406 -194.005811 
L 370.513366 -203.328756 
L 368.810326 -218.31356 
L 367.107285 -235.078588 
L 365.404245 -249.175012 
L 363.701205 -257.148203 
L 361.998165 -259.410386 
L 360.295125 -258.136259 
L 358.592085 -254.209142 
L 356.889045 -251.904586 
L 355.186005 -246.561137 
L 353.482965 -237.215084 
L 351.779925 -226.786177 
L 350.076885 -223.685941 
L 348.373845 -232.862179 
L 346.670805 -254.876284 
L 344.967765 -280.759913 
L 343.264724 -297.099277 
L 341.561684 -294.119482 
L 339.858644 -269.707685 
L 338.155604 -235.677003 
L 336.452564 -206.933408 
L 334.749524 -195.823692 
L 333.046484 -206.640862 
L 331.343444 -232.532803 
L 329.640404 -258.201171 
L 327.937364 -270.766644 
L 326.234324 -261.964045 
L 324.531284 -240.860373 
L 322.828244 -219.762796 
L 321.125204 -208.529279 
L 319.422164 -205.196145 
L 317.719123 -206.26739 
L 316.016083 -205.174973 
L 314.313043 -201.932372 
L 312.610003 -199.688419 
L 310.906963 -201.005745 
L 309.203923 -210.19115 
L 307.500883 -219.705021 
L 305.797843 -226.348624 
L 304.094803 -227.539004 
L 302.391763 -225.302059 
L 300.688723 -223.898279 
L 298.985683 -228.050704 
L 297.282643 -232.053373 
L 295.579603 -231.192756 
L 293.876563 -224.798023 
L 292.173522 -213.124022 
L 290.470482 -197.403864 
L 288.767442 -189.119176 
L 287.064402 -192.51279 
L 285.361362 -207.148899 
L 283.658322 -227.60291 
L 281.955282 -248.074359 
L 280.252242 -262.701508 
L 278.549202 -271.369492 
L 276.846162 -274.125773 
L 275.143122 -270.08032 
L 273.440082 -255.768962 
L 271.737042 -236.466942 
L 270.034002 -221.301899 
L 268.330962 -217.589155 
L 266.627921 -234.820521 
L 264.924881 -269.01173 
L 263.221841 -312.232053 
L 261.518801 -348.066538 
L 259.815761 -363.230309 
L 258.112721 -360.072722 
L 256.409681 -349.696062 
L 254.706641 -342.875048 
L 253.003601 -345.582607 
L 251.300561 -361.712887 
L 249.597521 -384.885321 
L 247.894481 -402.936277 
L 246.191441 -408.791049 
L 244.488401 -404.160622 
L 242.785361 -391.851896 
L 241.08232 -376.253924 
L 239.37928 -363.778663 
L 237.67624 -355.277312 
L 235.9732 -355.998727 
L 234.27016 -360.790126 
L 232.56712 -366.777879 
L 230.86408 -370.331057 
L 229.16104 -371.80598 
L 227.458 -370.240714 
L 225.75496 -364.222352 
L 224.05192 -353.164905 
L 222.34888 -339.430981 
L 220.64584 -329.085088 
L 218.9428 -323.379851 
L 217.23976 -317.466937 
L 215.536719 -307.673939 
L 213.833679 -295.752468 
L 212.130639 -287.217021 
L 210.427599 -282.855238 
L 208.724559 -284.75544 
L 207.021519 -289.223442 
L 205.318479 -294.97961 
L 203.615439 -296.486655 
L 201.912399 -294.740479 
L 200.209359 -287.020086 
L 198.506319 -280.098663 
L 196.803279 -274.252705 
L 195.100239 -272.549144 
L 193.397199 -272.559511 
L 191.694159 -272.135892 
L 189.991118 -268.776094 
L 188.288078 -260.050181 
L 186.585038 -241.7132 
L 184.881998 -214.789386 
L 183.178958 -182.578459 
L 181.475918 -148.961758 
L 179.772878 -117.896426 
L 178.069838 -94.902935 
L 176.366798 -83.808455 
L 174.663758 -85.737709 
L 172.960718 -95.626653 
L 171.257678 -109.317501 
L 169.554638 -125.330218 
L 167.851598 -140.295263 
L 166.148558 -151.241603 
L 164.445517 -161.912095 
L 162.742477 -176.532178 
L 161.039437 -195.218556 
L 159.336397 -213.697824 
L 157.633357 -227.867471 
L 155.930317 -231.185033 
L 154.227277 -223.212369 
L 152.524237 -205.567714 
L 150.821197 -182.288193 
L 149.118157 -161.240535 
L 147.415117 -148.849074 
L 145.712077 -148.322999 
L 144.009037 -160.226251 
L 142.305997 -180.063549 
L 140.602957 -197.386595 
L 138.899916 -203.765875 
L 137.196876 -196.266773 
L 135.493836 -181.456228 
L 133.790796 -167.859009 
L 132.087756 -162.250255 
L 130.384716 -166.43948 
L 128.681676 -179.439599 
L 126.978636 -200.225956 
L 125.275596 -224.052287 
L 123.572556 -245.076071 
L 121.869516 -258.437027 
L 120.166476 -260.150499 
L 118.463436 -251.762653 
L 116.760396 -233.175205 
L 115.057356 -214.892577 
L 113.354315 -208.474104 
L 111.651275 -218.867536 
L 109.948235 -239.833564 
L 108.245195 -259.032365 
L 106.542155 -268.909528 
L 104.839115 -269.614083 
L 103.136075 -262.753505 
L 101.433035 -253.535361 
L 99.729995 -247.227708 
L 98.026955 -244.86739 
L 96.323915 -244.383512 
L 94.620875 -239.863485 
L 92.917835 -233.201868 
L 91.214795 -225.750383 
L 89.511755 -220.160827 
L 87.808714 -218.390601 
L 86.105674 -222.760532 
L 84.402634 -229.025389 
L 82.699594 -232.992763 
L 80.996554 -231.63911 
L 79.293514 -226.340566 
L 77.590474 -223.419896 
L 75.887434 -225.873144 
L 74.184394 -232.633591 
L 72.481354 -240.692783 
L 70.778314 -245.826385 
L 69.075274 -245.347423 
L 67.372234 -243.700459 
L 65.669194 -246.940067 
L 63.966154 -253.414409 
L 62.263113 -265.267973 
L 60.560073 -275.920274 
L 58.857033 -279.471401 
L 57.153993 -273.387828 
L 55.450953 -260.495892 
L 53.747913 -250.82673 
L 52.044873 -252.32167 
L 50.341833 -257.977669 
L 48.638793 -259.406187 
L 46.935753 -254.740875 
L 45.232713 -248.171715 
L 43.529673 -240.31786 
L 41.826633 -233.602977 
L 40.123593 -230.84194 
L 38.420552 -225.797741 
z
" style="stroke: #1f77b4; stroke-opacity: 0.3"/>
    </defs>
    <g>
     <use xlink:href="#m5071310517" x="0" y="432" style="fill: #1f77b4; fill-opacity: 0.3; stroke: #1f77b4; stroke-opacity: 0.3"/>
    </g>
   </g>
   <g id="FillBetweenPolyCollection_2">
    <defs>
     <path id="m3f4e8c8371" d="M 38.420552 -212.249859 
L 38.420552 -204.853874 
L 40.123593 -202.714615 
L 41.826633 -204.312295 
L 43.529673 -209.375034 
L 45.232713 -215.316744 
L 46.935753 -218.574292 
L 48.638793 -216.750202 
L 50.341833 -209.829057 
L 52.044873 -200.023137 
L 53.747913 -191.606882 
L 55.450953 -187.950952 
L 57.153993 -191.01561 
L 58.857033 -199.420693 
L 60.560073 -210.20362 
L 62.263113 -220.293663 
L 63.966154 -227.615824 
L 65.669194 -231.751792 
L 67.372234 -232.652952 
L 69.075274 -231.246874 
L 70.778314 -228.08839 
L 72.481354 -224.09937 
L 74.184394 -220.86083 
L 75.887434 -219.993597 
L 77.590474 -222.298661 
L 79.293514 -226.866251 
L 80.996554 -232.070928 
L 82.699594 -235.095032 
L 84.402634 -234.367762 
L 86.105674 -230.523964 
L 87.808714 -226.569253 
L 89.511755 -226.20832 
L 91.214795 -230.718726 
L 92.917835 -237.975763 
L 94.620875 -243.465637 
L 96.323915 -243.335185 
L 98.026955 -236.876467 
L 99.729995 -227.251057 
L 101.433035 -219.525332 
L 103.136075 -217.629081 
L 104.839115 -222.227333 
L 106.542155 -229.685133 
L 108.245195 -234.887563 
L 109.948235 -234.71327 
L 111.651275 -230.079964 
L 113.354315 -223.809348 
L 115.057356 -219.437482 
L 116.760396 -217.831394 
L 118.463436 -216.956154 
L 120.166476 -214.711981 
L 121.869516 -209.786815 
L 123.572556 -204.597654 
L 125.275596 -202.924867 
L 126.978636 -206.868384 
L 128.681676 -215.405197 
L 130.384716 -224.633703 
L 132.087756 -230.529861 
L 133.790796 -230.57189 
L 135.493836 -226.117291 
L 137.196876 -220.715462 
L 138.899916 -217.741108 
L 140.602957 -218.297162 
L 142.305997 -220.58654 
L 144.009037 -222.407182 
L 145.712077 -222.3514 
L 147.415117 -220.753447 
L 149.118157 -218.760418 
L 150.821197 -216.607609 
L 152.524237 -213.84776 
L 154.227277 -209.579558 
L 155.930317 -203.097645 
L 157.633357 -194.516913 
L 159.336397 -184.791694 
L 161.039437 -174.993381 
L 162.742477 -165.196771 
L 164.445517 -155.231627 
L 166.148558 -144.82334 
L 167.851598 -134.09927 
L 169.554638 -123.771083 
L 171.257678 -115.199738 
L 172.960718 -109.930773 
L 174.663758 -108.597165 
L 176.366798 -111.823177 
L 178.069838 -120.204554 
L 179.772878 -133.462758 
L 181.475918 -151.062968 
L 183.178958 -172.243933 
L 184.881998 -196.281605 
L 186.585038 -222.438131 
L 188.288078 -249.717243 
L 189.991118 -276.01682 
L 191.694159 -298.062794 
L 193.397199 -311.54268 
L 195.100239 -314.20352 
L 196.803279 -307.559676 
L 198.506319 -297.079725 
L 200.209359 -289.171522 
L 201.912399 -288.593954 
L 203.615439 -295.450658 
L 205.318479 -305.043786 
L 207.021519 -311.572226 
L 208.724559 -312.109891 
L 210.427599 -307.719906 
L 212.130639 -302.48669 
L 213.833679 -300.404263 
L 215.536719 -303.099384 
L 217.23976 -308.406906 
L 218.9428 -312.881663 
L 220.64584 -313.964723 
L 222.34888 -312.308938 
L 224.05192 -309.809226 
L 225.75496 -308.039635 
L 227.458 -307.247524 
L 229.16104 -306.342619 
L 230.86408 -305.104786 
L 232.56712 -305.210422 
L 234.27016 -308.584877 
L 235.9732 -315.680693 
L 237.67624 -324.207305 
L 239.37928 -329.600967 
L 241.08232 -327.802708 
L 242.785361 -318.959109 
L 244.488401 -307.104042 
L 246.191441 -297.680896 
L 247.894481 -294.307628 
L 249.597521 -296.049125 
L 251.300561 -298.322611 
L 253.003601 -295.428766 
L 254.706641 -284.663722 
L 256.409681 -267.716486 
L 258.112721 -249.535331 
L 259.815761 -235.269096 
L 261.518801 -227.038195 
L 263.221841 -224.276061 
L 264.924881 -223.955531 
L 266.627921 -223.345845 
L 268.330962 -220.794179 
L 270.034002 -216.584782 
L 271.737042 -211.732834 
L 273.440082 -206.940498 
L 275.143122 -201.729451 
L 276.846162 -196.170058 
L 278.549202 -190.641221 
L 280.252242 -186.441742 
L 281.955282 -185.332208 
L 283.658322 -187.377692 
L 285.361362 -191.949959 
L 287.064402 -196.802654 
L 288.767442 -199.792362 
L 290.470482 -199.63617 
L 292.173522 -196.196202 
L 293.876563 -190.971867 
L 295.579603 -186.314948 
L 297.282643 -184.496219 
L 298.985683 -186.564892 
L 300.688723 -192.307476 
L 302.391763 -199.570354 
L 304.094803 -206.449789 
L 305.797843 -210.786212 
L 307.500883 -212.311261 
L 309.203923 -211.276495 
L 310.906963 -208.71678 
L 312.610003 -204.947474 
L 314.313043 -199.527001 
L 316.016083 -191.411708 
L 317.719123 -180.969228 
L 319.422164 -170.733141 
L 321.125204 -164.43706 
L 322.828244 -165.959686 
L 324.531284 -175.80261 
L 326.234324 -191.184835 
L 327.937364 -206.140922 
L 329.640404 -214.924223 
L 331.343444 -214.589488 
L 333.046484 -206.466871 
L 334.749524 -195.707837 
L 336.452564 -187.876018 
L 338.155604 -186.249554 
L 339.858644 -189.927489 
L 341.561684 -194.907586 
L 343.264724 -196.797425 
L 344.967765 -194.381757 
L 346.670805 -189.331691 
L 348.373845 -184.87456 
L 350.076885 -183.987839 
L 351.779925 -186.797377 
L 353.482965 -191.094085 
L 355.186005 -194.249623 
L 356.889045 -195.145334 
L 358.592085 -195.690842 
L 360.295125 -198.697621 
L 361.998165 -205.6673 
L 363.701205 -215.433999 
L 365.404245 -223.680495 
L 367.107285 -226.099973 
L 368.810326 -221.045201 
L 370.513366 -210.373817 
L 372.216406 -199.045957 
L 373.919446 -191.88946 
L 375.622486 -191.217726 
L 377.325526 -195.927204 
L 379.028566 -202.351093 
L 380.731606 -207.689573 
L 382.434646 -210.03415 
L 384.137686 -210.031354 
L 385.840726 -208.40593 
L 387.543766 -205.966726 
L 389.246806 -203.651253 
L 390.949846 -202.354223 
L 392.652886 -203.604037 
L 394.355927 -208.546572 
L 396.058967 -216.297512 
L 397.762007 -223.696931 
L 399.465047 -226.588086 
L 401.168087 -221.408843 
L 402.871127 -209.002541 
L 404.574167 -193.632922 
L 406.277207 -182.105604 
L 407.980247 -179.941547 
L 409.683287 -188.846171 
L 411.386327 -204.803758 
L 413.089367 -221.226911 
L 414.792407 -231.731782 
L 416.495447 -232.960781 
L 418.198487 -225.897208 
L 419.901528 -214.584769 
L 421.604568 -204.542811 
L 423.307608 -199.577849 
L 425.010648 -200.653015 
L 426.713688 -206.268929 
L 428.416728 -213.349833 
L 430.119768 -218.19954 
L 431.822808 -219.319234 
L 433.525848 -217.016332 
L 435.228888 -213.699482 
L 436.931928 -212.447453 
L 438.634968 -214.730683 
L 440.338008 -220.113611 
L 442.041048 -226.291524 
L 443.744088 -230.482625 
L 445.447129 -231.278748 
L 447.150169 -229.90558 
L 448.853209 -228.537093 
L 450.556249 -229.37341 
L 452.259289 -232.916878 
L 453.962329 -237.882389 
L 455.665369 -241.592397 
L 457.368409 -242.425617 
L 459.071449 -240.529516 
L 460.774489 -237.425136 
L 462.477529 -234.847959 
L 464.180569 -233.706016 
L 465.883609 -234.266093 
L 467.586649 -235.389279 
L 469.289689 -235.892114 
L 470.99273 -236.235789 
L 472.69577 -237.116712 
L 474.39881 -239.643141 
L 476.10185 -243.886166 
L 477.80489 -248.804159 
L 479.50793 -252.563016 
L 481.21097 -253.833771 
L 482.91401 -252.300791 
L 484.61705 -249.521125 
L 486.32009 -247.917572 
L 488.02313 -248.33225 
L 489.72617 -249.877603 
L 491.42921 -250.234495 
L 493.13225 -246.882232 
L 494.83529 -239.140158 
L 496.538331 -228.744213 
L 498.241371 -219.414259 
L 499.944411 -214.29703 
L 501.647451 -213.749615 
L 503.350491 -215.435143 
L 505.053531 -215.738455 
L 506.756571 -212.782709 
L 508.459611 -207.146577 
L 510.162651 -202.294306 
L 511.865691 -201.053294 
L 513.568731 -204.36408 
L 515.271771 -209.685893 
L 516.974811 -213.589368 
L 518.677851 -213.989771 
L 520.380891 -211.392594 
L 522.083932 -207.516793 
L 523.786972 -205.279749 
L 525.490012 -205.20036 
L 527.193052 -206.602052 
L 528.896092 -207.554719 
L 530.599132 -206.944023 
L 532.302172 -205.097112 
L 534.005212 -202.778977 
L 535.708252 -200.844634 
L 537.411292 -199.086524 
L 539.114332 -196.710985 
L 540.817372 -193.520671 
L 542.520412 -190.491391 
L 544.223452 -188.9361 
L 545.926492 -189.335275 
L 547.629533 -191.511381 
L 549.332573 -193.849446 
L 551.035613 -195.023473 
L 552.738653 -194.22651 
L 554.441693 -191.111723 
L 556.144733 -185.818139 
L 557.847773 -178.65797 
L 559.550813 -170.531788 
L 561.253853 -163.146661 
L 561.253853 -172.305409 
L 561.253853 -172.305409 
L 559.550813 -179.699573 
L 557.847773 -187.627846 
L 556.144733 -194.768348 
L 554.441693 -199.560942 
L 552.738653 -202.432035 
L 551.035613 -202.914425 
L 549.332573 -201.631589 
L 547.629533 -199.556976 
L 545.926492 -197.709757 
L 544.223452 -197.424653 
L 542.520412 -199.190902 
L 540.817372 -202.036669 
L 539.114332 -204.950942 
L 537.411292 -207.400599 
L 535.708252 -209.438399 
L 534.005212 -211.717536 
L 532.302172 -213.844901 
L 530.599132 -215.521523 
L 528.896092 -215.71686 
L 527.193052 -214.572769 
L 525.490012 -213.034637 
L 523.786972 -213.142741 
L 522.083932 -215.706924 
L 520.380891 -219.720995 
L 518.677851 -222.551301 
L 516.974811 -221.745623 
L 515.271771 -217.349392 
L 513.568731 -211.945812 
L 511.865691 -209.180054 
L 510.162651 -210.782473 
L 508.459611 -215.901304 
L 506.756571 -221.547635 
L 505.053531 -224.439373 
L 503.350491 -223.761162 
L 501.647451 -221.872018 
L 499.944411 -222.314841 
L 498.241371 -227.457143 
L 496.538331 -236.773655 
L 494.83529 -247.173419 
L 493.13225 -255.052552 
L 491.42921 -258.287302 
L 489.72617 -257.582374 
L 488.02313 -255.759335 
L 486.32009 -255.403612 
L 484.61705 -257.134782 
L 482.91401 -260.057329 
L 481.21097 -262.013742 
L 479.50793 -261.009679 
L 477.80489 -257.306114 
L 476.10185 -252.247835 
L 474.39881 -247.695937 
L 472.69577 -244.885247 
L 470.99273 -243.801263 
L 469.289689 -243.535264 
L 467.586649 -243.136387 
L 465.883609 -242.414382 
L 464.180569 -242.407425 
L 462.477529 -243.522951 
L 460.774489 -246.322093 
L 459.071449 -249.318695 
L 457.368409 -250.985511 
L 455.665369 -249.690223 
L 453.962329 -245.746239 
L 452.259289 -240.876507 
L 450.556249 -237.530373 
L 448.853209 -236.616024 
L 447.150169 -237.858828 
L 445.447129 -239.414162 
L 443.744088 -238.468778 
L 442.041048 -234.356662 
L 440.338008 -228.297273 
L 438.634968 -222.856559 
L 436.931928 -220.391826 
L 435.228888 -221.664955 
L 433.525848 -224.959991 
L 431.822808 -227.40097 
L 430.119768 -226.404649 
L 428.416728 -221.426027 
L 426.713688 -214.418726 
L 425.010648 -208.599545 
L 423.307608 -207.557781 
L 421.604568 -212.646441 
L 419.901528 -222.779868 
L 418.198487 -233.964751 
L 416.495447 -241.124606 
L 414.792407 -239.740322 
L 413.089367 -228.998288 
L 411.386327 -212.479937 
L 409.683287 -196.738806 
L 407.980247 -188.439156 
L 406.277207 -191.11613 
L 404.574167 -202.723182 
L 402.871127 -217.889213 
L 401.168087 -230.047268 
L 399.465047 -234.724351 
L 397.762007 -231.592637 
L 396.058967 -223.982792 
L 394.355927 -216.279183 
L 392.652886 -211.582546 
L 390.949846 -210.48213 
L 389.246806 -211.869505 
L 387.543766 -213.998598 
L 385.840726 -216.018454 
L 384.137686 -217.814077 
L 382.434646 -217.967658 
L 380.731606 -215.724682 
L 379.028566 -210.551603 
L 377.325526 -204.207869 
L 375.622486 -199.724349 
L 373.919446 -200.379493 
L 372.216406 -207.286803 
L 370.513366 -218.236755 
L 368.810326 -228.679226 
L 367.107285 -233.72911 
L 365.404245 -231.256687 
L 363.701205 -222.92382 
L 361.998165 -213.178406 
L 360.295125 -206.026342 
L 358.592085 -203.279973 
L 356.889045 -203.145591 
L 355.186005 -202.626207 
L 353.482965 -199.921223 
L 351.779925 -195.718055 
L 350.076885 -192.796052 
L 348.373845 -193.594926 
L 346.670805 -197.875816 
L 344.967765 -203.16782 
L 343.264724 -205.677609 
L 341.561684 -203.68483 
L 339.858644 -198.5524 
L 338.155604 -194.900976 
L 336.452564 -196.480882 
L 334.749524 -204.143087 
L 333.046484 -214.841908 
L 331.343444 -222.974778 
L 329.640404 -223.21373 
L 327.937364 -214.386896 
L 326.234324 -199.247855 
L 324.531284 -184.000887 
L 322.828244 -174.148039 
L 321.125204 -173.119629 
L 319.422164 -179.572281 
L 317.719123 -189.925134 
L 316.016083 -200.050222 
L 314.313043 -207.946669 
L 312.610003 -213.073451 
L 310.906963 -216.241567 
L 309.203923 -218.520562 
L 307.500883 -219.607932 
L 305.797843 -218.474159 
L 304.094803 -214.684525 
L 302.391763 -208.017347 
L 300.688723 -200.741828 
L 298.985683 -194.864033 
L 297.282643 -192.522633 
L 295.579603 -194.083336 
L 293.876563 -198.265948 
L 292.173522 -203.364523 
L 290.470482 -206.988319 
L 288.767442 -207.429645 
L 287.064402 -204.958097 
L 285.361362 -200.534365 
L 283.658322 -196.109408 
L 281.955282 -193.95829 
L 280.252242 -194.87868 
L 278.549202 -198.598999 
L 276.846162 -203.703844 
L 275.143122 -209.403911 
L 273.440082 -214.870302 
L 271.737042 -219.998664 
L 270.034002 -224.701383 
L 268.330962 -228.684526 
L 266.627921 -231.477347 
L 264.924881 -232.759069 
L 263.221841 -233.166865 
L 261.518801 -235.864975 
L 259.815761 -243.600134 
L 258.112721 -257.382766 
L 256.409681 -275.346688 
L 254.706641 -292.06568 
L 253.003601 -303.132778 
L 251.300561 -306.510357 
L 249.597521 -304.553228 
L 247.894481 -302.867219 
L 246.191441 -306.19427 
L 244.488401 -315.556251 
L 242.785361 -326.956438 
L 241.08232 -335.031918 
L 239.37928 -336.485859 
L 237.67624 -331.179684 
L 235.9732 -322.70504 
L 234.27016 -315.787593 
L 232.56712 -312.541426 
L 230.86408 -312.541232 
L 229.16104 -313.810475 
L 227.458 -314.799713 
L 225.75496 -315.886992 
L 224.05192 -317.402314 
L 222.34888 -319.733853 
L 220.64584 -321.221345 
L 218.9428 -319.976309 
L 217.23976 -315.538264 
L 215.536719 -310.348638 
L 213.833679 -307.477455 
L 212.130639 -309.033281 
L 210.427599 -314.146895 
L 208.724559 -318.741793 
L 207.021519 -318.193274 
L 205.318479 -311.424909 
L 203.615439 -301.649462 
L 201.912399 -294.754099 
L 200.209359 -295.529789 
L 198.506319 -303.793289 
L 196.803279 -314.74444 
L 195.100239 -321.66793 
L 193.397199 -319.197241 
L 191.694159 -305.70652 
L 189.991118 -283.626422 
L 188.288078 -257.17886 
L 186.585038 -229.790053 
L 184.881998 -203.802529 
L 183.178958 -180.082214 
L 181.475918 -158.80238 
L 179.772878 -140.833444 
L 178.069838 -127.147948 
L 176.366798 -118.691071 
L 174.663758 -115.71946 
L 172.960718 -117.403013 
L 171.257678 -122.971375 
L 169.554638 -131.539447 
L 167.851598 -141.751437 
L 166.148558 -152.342785 
L 164.445517 -162.952679 
L 162.742477 -173.068964 
L 161.039437 -182.780694 
L 159.336397 -192.472633 
L 157.633357 -201.822822 
L 155.930317 -210.24674 
L 154.227277 -216.566087 
L 152.524237 -220.737847 
L 150.821197 -223.392468 
L 149.118157 -225.786641 
L 147.415117 -228.096119 
L 145.712077 -229.751874 
L 144.009037 -229.531715 
L 142.305997 -227.445858 
L 140.602957 -224.950574 
L 138.899916 -224.643345 
L 137.196876 -227.698532 
L 135.493836 -233.062547 
L 133.790796 -237.449878 
L 132.087756 -237.243931 
L 130.384716 -231.143554 
L 128.681676 -221.658775 
L 126.978636 -213.154174 
L 125.275596 -209.434239 
L 123.572556 -211.255464 
L 121.869516 -216.339203 
L 120.166476 -221.174473 
L 118.463436 -223.675481 
L 116.760396 -224.567715 
L 115.057356 -226.232837 
L 113.354315 -230.433468 
L 111.651275 -236.540172 
L 109.948235 -241.033969 
L 108.245195 -240.862495 
L 106.542155 -235.58408 
L 104.839115 -228.285609 
L 103.136075 -223.696518 
L 101.433035 -225.250363 
L 99.729995 -232.877983 
L 98.026955 -242.678985 
L 96.323915 -249.232329 
L 94.620875 -249.280975 
L 92.917835 -243.878832 
L 91.214795 -236.871115 
L 89.511755 -232.487495 
L 87.808714 -232.650658 
L 86.105674 -236.357169 
L 84.402634 -240.462281 
L 82.699594 -241.552442 
L 80.996554 -238.539466 
L 79.293514 -233.157902 
L 77.590474 -228.151268 
L 75.887434 -226.033343 
L 74.184394 -226.994204 
L 72.481354 -230.040304 
L 70.778314 -233.667757 
L 69.075274 -236.517352 
L 67.372234 -237.984223 
L 65.669194 -237.193739 
L 63.966154 -233.384697 
L 62.263113 -226.120985 
L 60.560073 -216.139241 
L 58.857033 -205.617548 
L 57.153993 -197.72033 
L 55.450953 -194.789122 
L 53.747913 -198.157187 
L 52.044873 -206.385141 
L 50.341833 -216.213575 
L 48.638793 -223.506218 
L 46.935753 -225.518871 
L 45.232713 -222.29097 
L 43.529673 -216.505785 
L 41.826633 -211.574812 
L 40.123593 -210.127032 
L 38.420552 -212.249859 
z
" style="stroke: #ff7f0e; stroke-opacity: 0.3"/>
    </defs>
    <g>
     <use xlink:href="#m3f4e8c8371" x="0" y="432" style="fill: #ff7f0e; fill-opacity: 0.3; stroke: #ff7f0e; stroke-opacity: 0.3"/>
    </g>
   </g>
   <g id="line2d_19">
    <path d="M 38.420552 226.667756 
L 40.123593 220.511054 
L 41.826633 218.360088 
L 43.529673 213.664402 
L 46.935753 196.412233 
L 48.638793 192.360983 
L 50.341833 193.915767 
L 52.044873 197.246885 
L 53.747913 197.050759 
L 55.450953 190.999762 
L 57.153993 181.879914 
L 58.857033 175.557979 
L 60.560073 176.635726 
L 62.263113 184.960028 
L 63.966154 195.851192 
L 65.669194 203.790834 
L 67.372234 206.412392 
L 69.075274 205.793626 
L 70.778314 206.332992 
L 72.481354 210.943381 
L 74.184394 218.784991 
L 75.887434 226.023951 
L 77.590474 229.066769 
L 79.293514 227.414561 
L 80.996554 223.944638 
L 82.699594 222.528628 
L 84.402634 224.872266 
L 86.105674 229.189817 
L 87.808714 231.69958 
L 89.511755 229.52356 
L 91.214795 223.120043 
L 92.917835 215.850166 
L 94.620875 211.360933 
L 96.323915 210.639384 
L 98.026955 211.056874 
L 99.729995 208.453065 
L 101.433035 200.654575 
L 103.136075 189.831724 
L 104.839115 181.938803 
L 106.542155 183.090708 
L 108.245195 195.349114 
L 109.948235 214.664398 
L 111.651275 232.594568 
L 113.354315 240.788747 
L 115.057356 235.569974 
L 116.760396 219.931314 
L 118.463436 201.849986 
L 120.166476 190.27439 
L 121.869516 191.055725 
L 123.572556 204.838911 
L 125.275596 227.708161 
L 126.978636 253.375991 
L 128.681676 275.390025 
L 130.384716 288.896786 
L 132.087756 291.668208 
L 133.790796 284.679347 
L 137.196876 260.288437 
L 138.899916 255.418017 
L 140.602957 260.882912 
L 142.305997 275.300483 
L 144.009037 292.654187 
L 145.712077 304.752933 
L 147.415117 305.1743 
L 149.118157 292.280963 
L 150.821197 269.974021 
L 152.524237 245.777981 
L 154.227277 227.49373 
L 155.930317 220.200124 
L 157.633357 224.736322 
L 159.336397 238.150743 
L 162.742477 273.231022 
L 164.445517 288.411218 
L 167.851598 314.611534 
L 169.554638 329.279019 
L 172.960718 361.110836 
L 174.663758 371.733197 
L 176.366798 373.104557 
L 178.069838 362.654989 
L 179.772878 340.637538 
L 181.475918 310.02767 
L 184.881998 242.349133 
L 186.585038 214.849769 
L 188.288078 196.069647 
L 189.991118 186.872166 
L 191.694159 185.657923 
L 193.397199 188.584 
L 195.100239 190.885927 
L 196.803279 188.839479 
L 198.506319 181.541876 
L 200.209359 171.419571 
L 201.912399 162.740076 
L 203.615439 159.15695 
L 205.318479 161.492859 
L 208.724559 172.910685 
L 210.427599 174.770732 
L 212.130639 171.949441 
L 213.833679 165.548617 
L 215.536719 157.327234 
L 217.23976 148.248268 
L 218.9428 137.960367 
L 220.64584 125.900414 
L 224.05192 99.388486 
L 225.75496 89.056356 
L 227.458 83.142074 
L 229.16104 81.836095 
L 230.86408 84.053865 
L 232.56712 88.257192 
L 234.27016 93.03663 
L 235.9732 96.884751 
L 237.67624 97.699457 
L 239.37928 93.071899 
L 241.08232 81.843508 
L 242.785361 66.000445 
L 244.488401 51.34101 
L 246.191441 45.322107 
L 247.894481 52.915981 
L 249.597521 72.774315 
L 251.300561 96.681297 
L 253.003601 113.685498 
L 254.706641 116.717483 
L 256.409681 107.621374 
L 258.112721 96.918433 
L 259.815761 97.746796 
L 261.518801 117.875702 
L 263.221841 154.757494 
L 264.924881 196.69301 
L 266.627921 229.333601 
L 268.330962 243.370049 
L 270.034002 238.490444 
L 271.737042 221.79614 
L 273.440082 202.778208 
L 275.143122 188.483509 
L 276.846162 181.791651 
L 278.549202 183.023978 
L 280.252242 191.92058 
L 281.955282 208.115418 
L 285.361362 251.648302 
L 287.064402 267.191105 
L 288.767442 270.771104 
L 290.470482 261.825359 
L 292.173522 245.712668 
L 293.876563 230.758323 
L 295.579603 223.401062 
L 297.282643 224.672746 
L 298.985683 230.562241 
L 300.688723 235.694967 
L 302.391763 237.386775 
L 304.094803 237.149522 
L 305.797843 238.608484 
L 307.500883 244.07669 
L 309.203923 252.318784 
L 310.906963 259.503879 
L 312.610003 262.454435 
L 314.313043 261.119184 
L 316.016083 258.178413 
L 319.422164 254.083213 
L 321.125204 248.297818 
L 322.828244 235.116819 
L 326.234324 196.72003 
L 327.937364 188.890485 
L 329.640404 198.534275 
L 331.343444 222.941207 
L 333.046484 249.880034 
L 334.749524 263.902814 
L 336.452564 255.345705 
L 338.155604 226.611985 
L 339.858644 191.288993 
L 341.561684 166.421584 
L 343.264724 162.882413 
L 344.967765 179.827154 
L 346.670805 206.323985 
L 348.373845 228.585635 
L 350.076885 237.895384 
L 351.779925 234.072675 
L 355.186005 212.580486 
L 356.889045 205.666289 
L 358.592085 202.112677 
L 360.295125 200.135401 
L 361.998165 199.568367 
L 363.701205 202.375065 
L 365.404245 210.757336 
L 367.107285 224.613012 
L 368.810326 240.702098 
L 370.513366 254.301433 
L 372.216406 261.875199 
L 373.919446 262.82138 
L 375.622486 259.070373 
L 377.325526 253.125282 
L 380.731606 240.518671 
L 382.434646 235.90462 
L 384.137686 234.880563 
L 385.840726 239.424367 
L 387.543766 249.617897 
L 389.246806 262.236984 
L 390.949846 271.649773 
L 392.652886 272.855257 
L 394.355927 264.83828 
L 396.058967 251.800751 
L 397.762007 240.983015 
L 399.465047 238.016313 
L 401.168087 243.006805 
L 402.871127 250.103102 
L 404.574167 251.322398 
L 406.277207 242.084883 
L 407.980247 225.16004 
L 409.683287 209.779827 
L 411.386327 205.985647 
L 413.089367 217.726325 
L 414.792407 239.434557 
L 416.495447 258.862995 
L 418.198487 264.803079 
L 419.901528 254.641471 
L 421.604568 236.458689 
L 423.307608 223.570243 
L 425.010648 225.207429 
L 426.713688 240.044452 
L 428.416728 257.289217 
L 430.119768 264.933073 
L 431.822808 258.957876 
L 433.525848 246.607704 
L 435.228888 240.957911 
L 436.931928 250.460032 
L 438.634968 271.79627 
L 440.338008 291.511979 
L 442.041048 295.345599 
L 443.744088 278.560064 
L 445.447129 249.455312 
L 447.150169 223.366491 
L 448.853209 211.993833 
L 450.556249 216.073982 
L 452.259289 226.653467 
L 453.962329 233.306713 
L 455.665369 232.167834 
L 457.368409 227.649007 
L 459.071449 226.653644 
L 460.774489 231.022788 
L 462.477529 234.547723 
L 464.180569 227.30224 
L 465.883609 203.998646 
L 469.289689 134.966621 
L 470.99273 114.203659 
L 472.69577 112.299036 
L 474.39881 125.885476 
L 482.91401 230.621104 
L 484.61705 246.493322 
L 486.32009 252.758009 
L 488.02313 247.687373 
L 489.72617 235.540006 
L 491.42921 224.771684 
L 493.13225 222.84542 
L 494.83529 231.600861 
L 498.241371 260.976359 
L 499.944411 269.477534 
L 501.647451 271.538407 
L 503.350491 269.738384 
L 508.459611 261.264216 
L 510.162651 257.713311 
L 511.865691 254.672336 
L 513.568731 253.963214 
L 515.271771 256.410001 
L 516.974811 260.662649 
L 518.677851 263.950089 
L 520.380891 264.257156 
L 522.083932 262.042656 
L 523.786972 260.110988 
L 525.490012 262.083954 
L 527.193052 270.315535 
L 528.896092 284.653853 
L 532.302172 321.323591 
L 534.005212 336.933206 
L 535.708252 346.870693 
L 537.411292 349.547757 
L 539.114332 344.999054 
L 540.817372 335.285673 
L 542.520412 324.097695 
L 544.223452 315.461559 
L 545.926492 311.991457 
L 547.629533 313.801303 
L 549.332573 318.757478 
L 551.035613 324.061187 
L 552.738653 328.155307 
L 554.441693 331.578951 
L 556.144733 336.106883 
L 557.847773 343.025186 
L 561.253853 360.499512 
L 561.253853 360.499512 
" style="fill: none; stroke: #1f77b4; stroke-width: 1.5; stroke-linecap: square"/>
   </g>
   <g id="line2d_20">
    <path d="M 38.420552 223.257348 
L 40.123593 225.568066 
L 41.826633 224.047119 
L 43.529673 219.130516 
L 45.232713 213.340049 
L 46.935753 210.115259 
L 48.638793 211.961267 
L 50.341833 219.018931 
L 52.044873 228.774761 
L 53.747913 237.215532 
L 55.450953 240.753905 
L 57.153993 237.848025 
L 58.857033 229.578913 
L 62.263113 208.776518 
L 63.966154 201.484741 
L 65.669194 197.600011 
L 67.372234 196.70266 
L 69.075274 198.101873 
L 70.778314 201.101512 
L 72.481354 204.858066 
L 74.184394 208.058215 
L 75.887434 209.089011 
L 77.590474 206.911581 
L 79.293514 202.025364 
L 80.996554 196.643873 
L 82.699594 193.595253 
L 84.402634 194.496222 
L 87.808714 202.377016 
L 89.511755 202.759235 
L 91.214795 198.323315 
L 92.917835 191.139198 
L 94.620875 185.628815 
L 96.323915 185.751447 
L 98.026955 192.263718 
L 99.729995 201.989801 
L 101.433035 209.685104 
L 103.136075 211.340154 
L 104.839115 206.700096 
L 106.542155 199.322483 
L 108.245195 194.115535 
L 109.948235 194.099061 
L 111.651275 198.734672 
L 113.354315 204.823062 
L 115.057356 209.15553 
L 116.760396 210.864328 
L 118.463436 211.672125 
L 120.166476 214.076026 
L 123.572556 223.910309 
L 125.275596 225.750003 
L 126.978636 221.996982 
L 128.681676 213.49883 
L 130.384716 204.074814 
L 132.087756 198.149006 
L 133.790796 197.955157 
L 135.493836 202.273978 
L 137.196876 207.595982 
L 138.899916 210.628913 
L 140.602957 210.327042 
L 142.305997 208.039779 
L 144.009037 206.073238 
L 145.712077 205.904349 
L 147.415117 207.458883 
L 150.821197 212.037884 
L 152.524237 214.766248 
L 154.227277 218.962155 
L 155.930317 225.392046 
L 157.633357 233.844515 
L 162.742477 262.849325 
L 166.148558 283.241235 
L 169.554638 304.324533 
L 171.257678 312.776762 
L 172.960718 318.229144 
L 174.663758 319.711686 
L 176.366798 316.491368 
L 178.069838 308.168684 
L 179.772878 294.810962 
L 181.475918 277.047443 
L 183.178958 255.807179 
L 184.881998 231.878806 
L 189.991118 152.059179 
L 191.694159 130.056416 
L 193.397199 116.569054 
L 195.100239 113.9401 
L 196.803279 120.723435 
L 198.506319 131.589594 
L 200.209359 139.699479 
L 201.912399 140.337725 
L 203.615439 133.54987 
L 205.318479 123.857571 
L 207.021519 117.08055 
L 208.724559 116.524874 
L 210.427599 121.03844 
L 212.130639 126.292533 
L 213.833679 128.11188 
L 215.536719 125.296845 
L 217.23976 120.015685 
L 218.9428 115.724431 
L 220.64584 114.54885 
L 222.34888 116.090617 
L 224.05192 118.42423 
L 225.75496 120.044443 
L 229.16104 121.931453 
L 230.86408 123.16001 
L 232.56712 123.139478 
L 234.27016 119.836316 
L 235.9732 112.776763 
L 237.67624 104.364487 
L 239.37928 99.070024 
L 241.08232 100.625901 
L 242.785361 109.192792 
L 244.488401 120.878921 
L 246.191441 130.142368 
L 247.894481 133.442027 
L 249.597521 131.653982 
L 251.300561 129.557122 
L 253.003601 132.66116 
L 254.706641 143.602977 
L 258.112721 178.608216 
L 259.815761 192.731231 
L 261.518801 200.611538 
L 263.221841 203.270322 
L 264.924881 203.70231 
L 266.627921 204.687957 
L 268.330962 207.417416 
L 270.034002 211.542225 
L 273.440082 221.110855 
L 275.143122 226.34359 
L 278.549202 237.458878 
L 280.252242 241.420491 
L 281.955282 242.557122 
L 283.658322 240.444603 
L 287.064402 231.310063 
L 288.767442 228.471584 
L 290.470482 228.845904 
L 292.173522 232.346 
L 293.876563 237.46172 
L 295.579603 241.90769 
L 297.282643 243.531046 
L 298.985683 241.258265 
L 300.688723 235.553013 
L 302.391763 228.219855 
L 304.094803 221.592748 
L 305.797843 217.409555 
L 307.500883 216.145497 
L 309.203923 217.142913 
L 310.906963 219.483998 
L 312.610003 222.949652 
L 314.313043 228.24885 
L 316.016083 236.231392 
L 319.422164 256.854614 
L 321.125204 263.171722 
L 322.828244 261.905628 
L 324.531284 252.122511 
L 327.937364 221.687483 
L 329.640404 212.8652 
L 331.343444 213.314503 
L 333.046484 221.507005 
L 334.749524 232.320705 
L 336.452564 240.053586 
L 338.155604 241.574287 
L 339.858644 237.862649 
L 341.561684 232.898588 
L 343.264724 230.81509 
L 344.967765 233.223265 
L 346.670805 238.405263 
L 348.373845 242.818796 
L 350.076885 243.698863 
L 351.779925 240.876778 
L 353.482965 236.629617 
L 355.186005 233.655366 
L 356.889045 232.836394 
L 358.592085 232.456325 
L 360.295125 229.580804 
L 361.998165 222.588055 
L 363.701205 212.916625 
L 365.404245 204.677593 
L 367.107285 202.224622 
L 368.810326 207.310453 
L 372.216406 228.898439 
L 373.919446 235.811832 
L 375.622486 236.419936 
L 377.325526 231.931674 
L 379.028566 225.605691 
L 380.731606 220.526941 
L 382.434646 218.140479 
L 384.137686 218.231549 
L 385.840726 219.849484 
L 389.246806 224.454601 
L 390.949846 225.718668 
L 392.652886 224.4791 
L 394.355927 219.657154 
L 397.762007 204.386896 
L 399.465047 201.38174 
L 401.168087 206.197096 
L 402.871127 218.541975 
L 404.574167 233.921394 
L 406.277207 245.55137 
L 407.980247 247.810292 
L 409.683287 239.236274 
L 413.089367 206.913541 
L 414.792407 196.363683 
L 416.495447 195.082467 
L 418.198487 202.152254 
L 419.901528 213.354584 
L 421.604568 223.468757 
L 423.307608 228.568599 
L 425.010648 227.43953 
L 426.713688 221.700046 
L 428.416728 214.689208 
L 430.119768 209.767542 
L 431.822808 208.737802 
L 433.525848 211.05951 
L 435.228888 214.308765 
L 436.931928 215.588968 
L 438.634968 213.245628 
L 440.338008 207.848049 
L 442.041048 201.765007 
L 443.744088 197.645384 
L 445.447129 196.7294 
L 448.853209 199.42914 
L 450.556249 198.551196 
L 452.259289 194.981084 
L 453.962329 190.14709 
L 455.665369 186.355677 
L 457.368409 185.302602 
L 459.071449 187.062458 
L 460.774489 190.216056 
L 462.477529 192.913482 
L 464.180569 194.041006 
L 465.883609 193.730126 
L 467.586649 192.888895 
L 469.289689 192.328962 
L 470.99273 192.004744 
L 472.69577 191.009702 
L 474.39881 188.375711 
L 476.10185 183.997733 
L 477.80489 179.007383 
L 479.50793 175.270032 
L 481.21097 174.222595 
L 482.91401 175.87938 
L 484.61705 178.663967 
L 486.32009 180.418862 
L 488.02313 179.974808 
L 489.72617 178.185769 
L 491.42921 177.636377 
L 493.13225 180.95089 
L 494.83529 188.846292 
L 496.538331 199.327395 
L 498.241371 208.674811 
L 499.944411 213.800644 
L 501.647451 214.240154 
L 503.350491 212.434112 
L 505.053531 211.962324 
L 506.756571 214.952043 
L 508.459611 220.554149 
L 510.162651 225.615313 
L 511.865691 227.022423 
L 513.568731 223.99247 
L 515.271771 218.633112 
L 516.974811 214.400495 
L 518.677851 213.71174 
L 520.380891 216.443536 
L 522.083932 220.323475 
L 523.786972 222.826159 
L 525.490012 222.941908 
L 527.193052 221.570001 
L 528.896092 220.490204 
L 530.599132 220.894286 
L 532.302172 222.667234 
L 534.005212 224.89234 
L 537.411292 228.816001 
L 539.114332 231.206146 
L 542.520412 237.114039 
L 544.223452 238.765434 
L 545.926492 238.458854 
L 547.629533 236.544091 
L 549.332573 234.260919 
L 551.035613 233.007946 
L 552.738653 233.703006 
L 554.441693 236.65546 
L 556.144733 241.830064 
L 557.847773 248.919127 
L 559.550813 257.021443 
L 561.253853 264.376523 
L 561.253853 264.376523 
" style="fill: none; stroke: #ff7f0e; stroke-width: 1.5; stroke-linecap: square"/>
   </g>
  </g>
  <g id="axes_2">
   <g id="PathCollection_1">
    <defs>
     <path id="C0_0_bbcc38040a" d="M 0 1.118034 
C 0.296506 1.118034 0.580908 1.000231 0.790569 0.790569 
C 1.000231 0.580908 1.118034 0.296506 1.118034 -0 
C 1.118034 -0.296506 1.000231 -0.580908 0.790569 -0.790569 
C 0.580908 -1.000231 0.296506 -1.118034 0 -1.118034 
C -0.296506 -1.118034 -0.580908 -1.000231 -0.790569 -0.790569 
C -1.000231 -0.580908 -1.118034 -0.296506 -1.118034 0 
C -1.118034 0.296506 -1.000231 0.580908 -0.790569 0.790569 
C -0.580908 1.000231 -0.296506 1.118034 0 1.118034 
z
"/>
    </defs>
    <g clip-path="url(#peef9f8c28c)">
     <use xlink:href="#C0_0_bbcc38040a" x="483.593862" y="47.298845" style="stroke: #000000"/>
    </g>
    <g clip-path="url(#peef9f8c28c)">
     <use xlink:href="#C0_0_bbcc38040a" x="493.741484" y="47.286489" style="stroke: #000000"/>
    </g>
   </g>
   <g id="matplotlib.axis_3"/>
   <g id="matplotlib.axis_4"/>
   <g id="line2d_21">
    <path d="M 548.859194 73.63672 
L 548.781507 71.164689 
L 548.548754 68.702415 
L 548.161852 66.259613 
L 547.622329 63.845926 
L 546.932314 61.470879 
L 546.09453 59.143845 
L 545.112284 56.874007 
L 543.989451 54.670325 
L 542.730464 52.541494 
L 541.340291 50.495916 
L 539.824418 48.541664 
L 538.188828 46.686451 
L 536.439975 44.937599 
L 534.584762 43.302008 
L 532.630511 41.786136 
L 530.584933 40.395962 
L 528.456102 39.136975 
L 526.252419 38.014143 
L 523.982582 37.031896 
L 521.655547 36.194112 
L 519.2805 35.504097 
L 516.866813 34.964574 
L 514.424012 34.577673 
L 511.961737 34.344919 
L 509.489707 34.267233 
L 507.017676 34.344919 
L 504.555402 34.577673 
L 502.1126 34.964574 
L 499.698913 35.504097 
L 497.323866 36.194112 
L 494.996832 37.031896 
L 492.726994 38.014143 
L 490.523312 39.136975 
L 488.394481 40.395962 
L 486.348903 41.786136 
L 484.394651 43.302008 
L 482.539438 44.937599 
L 480.790586 46.686451 
L 479.154995 48.541664 
L 477.639123 50.495916 
L 476.248949 52.541494 
L 474.989962 54.670325 
L 473.86713 56.874007 
L 472.884883 59.143845 
L 472.047099 61.470879 
L 471.357084 63.845926 
L 470.817561 66.259613 
L 470.43066 68.702415 
L 470.197906 71.164689 
L 470.12022 73.63672 
L 470.197906 76.10875 
L 470.43066 78.571025 
L 470.817561 81.013826 
L 471.357084 83.427513 
L 472.047099 85.80256 
L 472.884883 88.129595 
L 473.86713 90.399432 
L 474.989962 92.603115 
L 476.248949 94.731946 
L 477.639123 96.777524 
L 479.154995 98.731775 
L 480.790586 100.586988 
L 482.539438 102.335841 
L 484.394651 103.971431 
L 486.348903 105.487304 
L 488.394481 106.877477 
L 490.523312 108.136464 
L 492.726994 109.259297 
L 494.996832 110.241543 
L 497.323866 111.079327 
L 499.698913 111.769342 
L 502.1126 112.308865 
L 504.555402 112.695767 
L 507.017676 112.92852 
L 509.489707 113.006207 
L 511.961737 112.92852 
L 514.424012 112.695767 
L 516.866813 112.308865 
L 519.2805 111.769342 
L 521.655547 111.079327 
L 523.982582 110.241543 
L 526.252419 109.259297 
L 528.456102 108.136464 
L 530.584933 106.877477 
L 532.630511 105.487304 
L 534.584762 103.971431 
L 536.439975 102.335841 
L 538.188828 100.586988 
L 539.824418 98.731775 
L 541.340291 96.777524 
L 542.730464 94.731946 
L 543.989451 92.603115 
L 545.112284 90.399432 
L 546.09453 88.129595 
L 546.932314 85.80256 
L 547.622329 83.427513 
L 548.161852 81.013826 
L 548.548754 78.571025 
L 548.781507 76.10875 
L 548.859194 73.63672 
" style="fill: none; stroke: #000000; stroke-linecap: square"/>
   </g>
   <g id="line2d_22">
    <path d="M 501.244181 35.140385 
L 509.489707 28.361809 
L 517.735233 35.140385 
" style="fill: none; stroke: #000000; stroke-linecap: square"/>
   </g>
   <g id="line2d_23">
    <path d="M 470.356436 69.266707 
L 469.33283 67.534449 
L 468.702918 67.471458 
L 467.765924 67.762792 
L 466.821057 69.266707 
L 466.970661 74.069784 
L 466.419488 80.975192 
L 467.600572 83.975147 
L 469.33283 84.534194 
L 470.986348 83.077523 
" style="fill: none; stroke: #000000; stroke-linecap: square"/>
   </g>
   <g id="line2d_24">
    <path d="M 548.622977 69.266707 
L 549.646584 67.534449 
L 550.276495 67.471458 
L 551.213489 67.762792 
L 552.158357 69.266707 
L 552.008753 74.069784 
L 552.559926 80.975192 
L 551.378841 83.975147 
L 549.646584 84.534194 
L 547.993065 83.077523 
" style="fill: none; stroke: #000000; stroke-linecap: square"/>
   </g>
  </g>
 </g>
 <defs>
  <clipPath id="p5ec7667418">
   <rect x="38.420552" y="18.118365" width="523.446395" height="380.525145"/>
  </clipPath>
  <clipPath id="peef9f8c28c">
   <rect x="462.112466" y="24.12959" width="94.754482" height="93.108837"/>
  </clipPath>
 </defs>
</svg>
