<?xml version="1.0" encoding="utf-8" standalone="no"?>
<!DOCTYPE svg PUBLIC "-//W3C//DTD SVG 1.1//EN"
  "http://www.w3.org/Graphics/SVG/1.1/DTD/svg11.dtd">
<svg xmlns:xlink="http://www.w3.org/1999/xlink" width="576pt" height="432pt" viewBox="0 0 576 432" xmlns="http://www.w3.org/2000/svg" version="1.1">
 <metadata>
  <rdf:RDF xmlns:dc="http://purl.org/dc/elements/1.1/" xmlns:cc="http://creativecommons.org/ns#" xmlns:rdf="http://www.w3.org/1999/02/22-rdf-syntax-ns#">
   <cc:Work>
    <dc:type rdf:resource="http://purl.org/dc/dcmitype/StillImage"/>
    <dc:date>2025-02-17T18:06:54.256057</dc:date>
    <dc:format>image/svg+xml</dc:format>
    <dc:creator>
     <cc:Agent>
      <dc:title>Matplotlib v3.10.0, https://matplotlib.org/</dc:title>
     </cc:Agent>
    </dc:creator>
   </cc:Work>
  </rdf:RDF>
 </metadata>
 <defs>
  <style type="text/css">*{stroke-linejoin: round; stroke-linecap: butt}</style>
 </defs>
 <g id="figure_1">
  <g id="patch_1">
   <path d="M 0 432 
L 576 432 
L 576 0 
L 0 0 
z
" style="fill: #ffffff"/>
  </g>
  <g id="axes_1">
   <g id="patch_2">
    <path d="M 47.961178 398.64351 
L 561.866947 398.64351 
L 561.866947 18.118365 
L 47.961178 18.118365 
L 47.961178 398.64351 
z
" style="fill: none; opacity: 0"/>
   </g>
   <g id="patch_3">
    <path d="M 47.961178 359.845582 
L 47.961178 56.916293 
" style="fill: none; stroke: #000000; stroke-width: 0.8; stroke-linejoin: miter; stroke-linecap: square"/>
   </g>
   <g id="LineCollection_1">
    <path d="M 262.244635 18.118365 
L 262.244635 398.64351 
" clip-path="url(#pf4706f705e)" style="fill: none; stroke-dasharray: 3.7,1.6; stroke-dashoffset: 0; stroke: #000000"/>
    <path d="M 326.449416 18.118365 
L 326.449416 398.64351 
" clip-path="url(#pf4706f705e)" style="fill: none; stroke-dasharray: 3.7,1.6; stroke-dashoffset: 0; stroke: #000000"/>
   </g>
   <g id="matplotlib.axis_1">
    <g id="xtick_1">
     <g id="line2d_1">
      <defs>
       <path id="m35be4f5260" d="M 0 0 
L 0 3.5 
" style="stroke: #000000; stroke-width: 0.8"/>
      </defs>
      <g>
       <use xlink:href="#m35be4f5260" x="48.228697" y="398.64351" style="stroke: #000000; stroke-width: 0.8"/>
      </g>
     </g>
     <g id="text_1">
      <!-- −0.20 -->
      <g transform="translate(32.906041 413.241947) scale(0.1 -0.1)">
       <defs>
        <path id="DejaVuSans-2212" d="M 678 2272 
L 4684 2272 
L 4684 1741 
L 678 1741 
L 678 2272 
z
" transform="scale(0.015625)"/>
        <path id="DejaVuSans-30" d="M 2034 4250 
Q 1547 4250 1301 3770 
Q 1056 3291 1056 2328 
Q 1056 1369 1301 889 
Q 1547 409 2034 409 
Q 2525 409 2770 889 
Q 3016 1369 3016 2328 
Q 3016 3291 2770 3770 
Q 2525 4250 2034 4250 
z
M 2034 4750 
Q 2819 4750 3233 4129 
Q 3647 3509 3647 2328 
Q 3647 1150 3233 529 
Q 2819 -91 2034 -91 
Q 1250 -91 836 529 
Q 422 1150 422 2328 
Q 422 3509 836 4129 
Q 1250 4750 2034 4750 
z
" transform="scale(0.015625)"/>
        <path id="DejaVuSans-2e" d="M 684 794 
L 1344 794 
L 1344 0 
L 684 0 
L 684 794 
z
" transform="scale(0.015625)"/>
        <path id="DejaVuSans-32" d="M 1228 531 
L 3431 531 
L 3431 0 
L 469 0 
L 469 531 
Q 828 903 1448 1529 
Q 2069 2156 2228 2338 
Q 2531 2678 2651 2914 
Q 2772 3150 2772 3378 
Q 2772 3750 2511 3984 
Q 2250 4219 1831 4219 
Q 1534 4219 1204 4116 
Q 875 4013 500 3803 
L 500 4441 
Q 881 4594 1212 4672 
Q 1544 4750 1819 4750 
Q 2544 4750 2975 4387 
Q 3406 4025 3406 3419 
Q 3406 3131 3298 2873 
Q 3191 2616 2906 2266 
Q 2828 2175 2409 1742 
Q 1991 1309 1228 531 
z
" transform="scale(0.015625)"/>
       </defs>
       <use xlink:href="#DejaVuSans-2212"/>
       <use xlink:href="#DejaVuSans-30" transform="translate(83.789062 0)"/>
       <use xlink:href="#DejaVuSans-2e" transform="translate(147.412109 0)"/>
       <use xlink:href="#DejaVuSans-32" transform="translate(179.199219 0)"/>
       <use xlink:href="#DejaVuSans-30" transform="translate(242.822266 0)"/>
      </g>
     </g>
    </g>
    <g id="xtick_2">
     <g id="line2d_2">
      <g>
       <use xlink:href="#m35be4f5260" x="133.835072" y="398.64351" style="stroke: #000000; stroke-width: 0.8"/>
      </g>
     </g>
     <g id="text_2">
      <!-- 0.00 -->
      <g transform="translate(122.70226 413.241947) scale(0.1 -0.1)">
       <use xlink:href="#DejaVuSans-30"/>
       <use xlink:href="#DejaVuSans-2e" transform="translate(63.623047 0)"/>
       <use xlink:href="#DejaVuSans-30" transform="translate(95.410156 0)"/>
       <use xlink:href="#DejaVuSans-30" transform="translate(159.033203 0)"/>
      </g>
     </g>
    </g>
    <g id="xtick_3">
     <g id="line2d_3">
      <g>
       <use xlink:href="#m35be4f5260" x="219.441447" y="398.64351" style="stroke: #000000; stroke-width: 0.8"/>
      </g>
     </g>
     <g id="text_3">
      <!-- 0.20 -->
      <g transform="translate(208.308635 413.241947) scale(0.1 -0.1)">
       <use xlink:href="#DejaVuSans-30"/>
       <use xlink:href="#DejaVuSans-2e" transform="translate(63.623047 0)"/>
       <use xlink:href="#DejaVuSans-32" transform="translate(95.410156 0)"/>
       <use xlink:href="#DejaVuSans-30" transform="translate(159.033203 0)"/>
      </g>
     </g>
    </g>
    <g id="xtick_4">
     <g id="line2d_4">
      <g>
       <use xlink:href="#m35be4f5260" x="262.244635" y="398.64351" style="stroke: #000000; stroke-width: 0.8"/>
      </g>
     </g>
     <g id="text_4">
      <!-- 0.30 -->
      <g transform="translate(251.111822 413.241947) scale(0.1 -0.1)">
       <defs>
        <path id="DejaVuSans-33" d="M 2597 2516 
Q 3050 2419 3304 2112 
Q 3559 1806 3559 1356 
Q 3559 666 3084 287 
Q 2609 -91 1734 -91 
Q 1441 -91 1130 -33 
Q 819 25 488 141 
L 488 750 
Q 750 597 1062 519 
Q 1375 441 1716 441 
Q 2309 441 2620 675 
Q 2931 909 2931 1356 
Q 2931 1769 2642 2001 
Q 2353 2234 1838 2234 
L 1294 2234 
L 1294 2753 
L 1863 2753 
Q 2328 2753 2575 2939 
Q 2822 3125 2822 3475 
Q 2822 3834 2567 4026 
Q 2313 4219 1838 4219 
Q 1578 4219 1281 4162 
Q 984 4106 628 3988 
L 628 4550 
Q 988 4650 1302 4700 
Q 1616 4750 1894 4750 
Q 2613 4750 3031 4423 
Q 3450 4097 3450 3541 
Q 3450 3153 3228 2886 
Q 3006 2619 2597 2516 
z
" transform="scale(0.015625)"/>
       </defs>
       <use xlink:href="#DejaVuSans-30"/>
       <use xlink:href="#DejaVuSans-2e" transform="translate(63.623047 0)"/>
       <use xlink:href="#DejaVuSans-33" transform="translate(95.410156 0)"/>
       <use xlink:href="#DejaVuSans-30" transform="translate(159.033203 0)"/>
      </g>
     </g>
    </g>
    <g id="xtick_5">
     <g id="line2d_5">
      <g>
       <use xlink:href="#m35be4f5260" x="305.047822" y="398.64351" style="stroke: #000000; stroke-width: 0.8"/>
      </g>
     </g>
     <g id="text_5">
      <!-- 0.40 -->
      <g transform="translate(293.91501 413.241947) scale(0.1 -0.1)">
       <defs>
        <path id="DejaVuSans-34" d="M 2419 4116 
L 825 1625 
L 2419 1625 
L 2419 4116 
z
M 2253 4666 
L 3047 4666 
L 3047 1625 
L 3713 1625 
L 3713 1100 
L 3047 1100 
L 3047 0 
L 2419 0 
L 2419 1100 
L 313 1100 
L 313 1709 
L 2253 4666 
z
" transform="scale(0.015625)"/>
       </defs>
       <use xlink:href="#DejaVuSans-30"/>
       <use xlink:href="#DejaVuSans-2e" transform="translate(63.623047 0)"/>
       <use xlink:href="#DejaVuSans-34" transform="translate(95.410156 0)"/>
       <use xlink:href="#DejaVuSans-30" transform="translate(159.033203 0)"/>
      </g>
     </g>
    </g>
    <g id="xtick_6">
     <g id="line2d_6">
      <g>
       <use xlink:href="#m35be4f5260" x="326.449416" y="398.64351" style="stroke: #000000; stroke-width: 0.8"/>
      </g>
     </g>
     <g id="text_6">
      <!-- 0.45 -->
      <g transform="translate(315.316604 413.241947) scale(0.1 -0.1)">
       <defs>
        <path id="DejaVuSans-35" d="M 691 4666 
L 3169 4666 
L 3169 4134 
L 1269 4134 
L 1269 2991 
Q 1406 3038 1543 3061 
Q 1681 3084 1819 3084 
Q 2600 3084 3056 2656 
Q 3513 2228 3513 1497 
Q 3513 744 3044 326 
Q 2575 -91 1722 -91 
Q 1428 -91 1123 -41 
Q 819 9 494 109 
L 494 744 
Q 775 591 1075 516 
Q 1375 441 1709 441 
Q 2250 441 2565 725 
Q 2881 1009 2881 1497 
Q 2881 1984 2565 2268 
Q 2250 2553 1709 2553 
Q 1456 2553 1204 2497 
Q 953 2441 691 2322 
L 691 4666 
z
" transform="scale(0.015625)"/>
       </defs>
       <use xlink:href="#DejaVuSans-30"/>
       <use xlink:href="#DejaVuSans-2e" transform="translate(63.623047 0)"/>
       <use xlink:href="#DejaVuSans-34" transform="translate(95.410156 0)"/>
       <use xlink:href="#DejaVuSans-35" transform="translate(159.033203 0)"/>
      </g>
     </g>
    </g>
    <g id="xtick_7">
     <g id="line2d_7">
      <g>
       <use xlink:href="#m35be4f5260" x="390.654197" y="398.64351" style="stroke: #000000; stroke-width: 0.8"/>
      </g>
     </g>
     <g id="text_7">
      <!-- 0.60 -->
      <g transform="translate(379.521385 413.241947) scale(0.1 -0.1)">
       <defs>
        <path id="DejaVuSans-36" d="M 2113 2584 
Q 1688 2584 1439 2293 
Q 1191 2003 1191 1497 
Q 1191 994 1439 701 
Q 1688 409 2113 409 
Q 2538 409 2786 701 
Q 3034 994 3034 1497 
Q 3034 2003 2786 2293 
Q 2538 2584 2113 2584 
z
M 3366 4563 
L 3366 3988 
Q 3128 4100 2886 4159 
Q 2644 4219 2406 4219 
Q 1781 4219 1451 3797 
Q 1122 3375 1075 2522 
Q 1259 2794 1537 2939 
Q 1816 3084 2150 3084 
Q 2853 3084 3261 2657 
Q 3669 2231 3669 1497 
Q 3669 778 3244 343 
Q 2819 -91 2113 -91 
Q 1303 -91 875 529 
Q 447 1150 447 2328 
Q 447 3434 972 4092 
Q 1497 4750 2381 4750 
Q 2619 4750 2861 4703 
Q 3103 4656 3366 4563 
z
" transform="scale(0.015625)"/>
       </defs>
       <use xlink:href="#DejaVuSans-30"/>
       <use xlink:href="#DejaVuSans-2e" transform="translate(63.623047 0)"/>
       <use xlink:href="#DejaVuSans-36" transform="translate(95.410156 0)"/>
       <use xlink:href="#DejaVuSans-30" transform="translate(159.033203 0)"/>
      </g>
     </g>
    </g>
    <g id="xtick_8">
     <g id="line2d_8">
      <g>
       <use xlink:href="#m35be4f5260" x="476.260572" y="398.64351" style="stroke: #000000; stroke-width: 0.8"/>
      </g>
     </g>
     <g id="text_8">
      <!-- 0.80 -->
      <g transform="translate(465.12776 413.241947) scale(0.1 -0.1)">
       <defs>
        <path id="DejaVuSans-38" d="M 2034 2216 
Q 1584 2216 1326 1975 
Q 1069 1734 1069 1313 
Q 1069 891 1326 650 
Q 1584 409 2034 409 
Q 2484 409 2743 651 
Q 3003 894 3003 1313 
Q 3003 1734 2745 1975 
Q 2488 2216 2034 2216 
z
M 1403 2484 
Q 997 2584 770 2862 
Q 544 3141 544 3541 
Q 544 4100 942 4425 
Q 1341 4750 2034 4750 
Q 2731 4750 3128 4425 
Q 3525 4100 3525 3541 
Q 3525 3141 3298 2862 
Q 3072 2584 2669 2484 
Q 3125 2378 3379 2068 
Q 3634 1759 3634 1313 
Q 3634 634 3220 271 
Q 2806 -91 2034 -91 
Q 1263 -91 848 271 
Q 434 634 434 1313 
Q 434 1759 690 2068 
Q 947 2378 1403 2484 
z
M 1172 3481 
Q 1172 3119 1398 2916 
Q 1625 2713 2034 2713 
Q 2441 2713 2670 2916 
Q 2900 3119 2900 3481 
Q 2900 3844 2670 4047 
Q 2441 4250 2034 4250 
Q 1625 4250 1398 4047 
Q 1172 3844 1172 3481 
z
" transform="scale(0.015625)"/>
       </defs>
       <use xlink:href="#DejaVuSans-30"/>
       <use xlink:href="#DejaVuSans-2e" transform="translate(63.623047 0)"/>
       <use xlink:href="#DejaVuSans-38" transform="translate(95.410156 0)"/>
       <use xlink:href="#DejaVuSans-30" transform="translate(159.033203 0)"/>
      </g>
     </g>
    </g>
    <g id="xtick_9">
     <g id="line2d_9">
      <g>
       <use xlink:href="#m35be4f5260" x="561.866947" y="398.64351" style="stroke: #000000; stroke-width: 0.8"/>
      </g>
     </g>
     <g id="text_9">
      <!-- 1.00 -->
      <g transform="translate(550.734135 413.241947) scale(0.1 -0.1)">
       <defs>
        <path id="DejaVuSans-31" d="M 794 531 
L 1825 531 
L 1825 4091 
L 703 3866 
L 703 4441 
L 1819 4666 
L 2450 4666 
L 2450 531 
L 3481 531 
L 3481 0 
L 794 0 
L 794 531 
z
" transform="scale(0.015625)"/>
       </defs>
       <use xlink:href="#DejaVuSans-31"/>
       <use xlink:href="#DejaVuSans-2e" transform="translate(63.623047 0)"/>
       <use xlink:href="#DejaVuSans-30" transform="translate(95.410156 0)"/>
       <use xlink:href="#DejaVuSans-30" transform="translate(159.033203 0)"/>
      </g>
     </g>
    </g>
    <g id="text_10">
     <!-- Time (s) -->
     <g transform="translate(284.585156 426.920073) scale(0.1 -0.1)">
      <defs>
       <path id="DejaVuSans-54" d="M -19 4666 
L 3928 4666 
L 3928 4134 
L 2272 4134 
L 2272 0 
L 1638 0 
L 1638 4134 
L -19 4134 
L -19 4666 
z
" transform="scale(0.015625)"/>
       <path id="DejaVuSans-69" d="M 603 3500 
L 1178 3500 
L 1178 0 
L 603 0 
L 603 3500 
z
M 603 4863 
L 1178 4863 
L 1178 4134 
L 603 4134 
L 603 4863 
z
" transform="scale(0.015625)"/>
       <path id="DejaVuSans-6d" d="M 3328 2828 
Q 3544 3216 3844 3400 
Q 4144 3584 4550 3584 
Q 5097 3584 5394 3201 
Q 5691 2819 5691 2113 
L 5691 0 
L 5113 0 
L 5113 2094 
Q 5113 2597 4934 2840 
Q 4756 3084 4391 3084 
Q 3944 3084 3684 2787 
Q 3425 2491 3425 1978 
L 3425 0 
L 2847 0 
L 2847 2094 
Q 2847 2600 2669 2842 
Q 2491 3084 2119 3084 
Q 1678 3084 1418 2786 
Q 1159 2488 1159 1978 
L 1159 0 
L 581 0 
L 581 3500 
L 1159 3500 
L 1159 2956 
Q 1356 3278 1631 3431 
Q 1906 3584 2284 3584 
Q 2666 3584 2933 3390 
Q 3200 3197 3328 2828 
z
" transform="scale(0.015625)"/>
       <path id="DejaVuSans-65" d="M 3597 1894 
L 3597 1613 
L 953 1613 
Q 991 1019 1311 708 
Q 1631 397 2203 397 
Q 2534 397 2845 478 
Q 3156 559 3463 722 
L 3463 178 
Q 3153 47 2828 -22 
Q 2503 -91 2169 -91 
Q 1331 -91 842 396 
Q 353 884 353 1716 
Q 353 2575 817 3079 
Q 1281 3584 2069 3584 
Q 2775 3584 3186 3129 
Q 3597 2675 3597 1894 
z
M 3022 2063 
Q 3016 2534 2758 2815 
Q 2500 3097 2075 3097 
Q 1594 3097 1305 2825 
Q 1016 2553 972 2059 
L 3022 2063 
z
" transform="scale(0.015625)"/>
       <path id="DejaVuSans-20" transform="scale(0.015625)"/>
       <path id="DejaVuSans-28" d="M 1984 4856 
Q 1566 4138 1362 3434 
Q 1159 2731 1159 2009 
Q 1159 1288 1364 580 
Q 1569 -128 1984 -844 
L 1484 -844 
Q 1016 -109 783 600 
Q 550 1309 550 2009 
Q 550 2706 781 3412 
Q 1013 4119 1484 4856 
L 1984 4856 
z
" transform="scale(0.015625)"/>
       <path id="DejaVuSans-73" d="M 2834 3397 
L 2834 2853 
Q 2591 2978 2328 3040 
Q 2066 3103 1784 3103 
Q 1356 3103 1142 2972 
Q 928 2841 928 2578 
Q 928 2378 1081 2264 
Q 1234 2150 1697 2047 
L 1894 2003 
Q 2506 1872 2764 1633 
Q 3022 1394 3022 966 
Q 3022 478 2636 193 
Q 2250 -91 1575 -91 
Q 1294 -91 989 -36 
Q 684 19 347 128 
L 347 722 
Q 666 556 975 473 
Q 1284 391 1588 391 
Q 1994 391 2212 530 
Q 2431 669 2431 922 
Q 2431 1156 2273 1281 
Q 2116 1406 1581 1522 
L 1381 1569 
Q 847 1681 609 1914 
Q 372 2147 372 2553 
Q 372 3047 722 3315 
Q 1072 3584 1716 3584 
Q 2034 3584 2315 3537 
Q 2597 3491 2834 3397 
z
" transform="scale(0.015625)"/>
       <path id="DejaVuSans-29" d="M 513 4856 
L 1013 4856 
Q 1481 4119 1714 3412 
Q 1947 2706 1947 2009 
Q 1947 1309 1714 600 
Q 1481 -109 1013 -844 
L 513 -844 
Q 928 -128 1133 580 
Q 1338 1288 1338 2009 
Q 1338 2731 1133 3434 
Q 928 4138 513 4856 
z
" transform="scale(0.015625)"/>
      </defs>
      <use xlink:href="#DejaVuSans-54"/>
      <use xlink:href="#DejaVuSans-69" transform="translate(57.958984 0)"/>
      <use xlink:href="#DejaVuSans-6d" transform="translate(85.742188 0)"/>
      <use xlink:href="#DejaVuSans-65" transform="translate(183.154297 0)"/>
      <use xlink:href="#DejaVuSans-20" transform="translate(244.677734 0)"/>
      <use xlink:href="#DejaVuSans-28" transform="translate(276.464844 0)"/>
      <use xlink:href="#DejaVuSans-73" transform="translate(315.478516 0)"/>
      <use xlink:href="#DejaVuSans-29" transform="translate(367.578125 0)"/>
     </g>
    </g>
   </g>
   <g id="matplotlib.axis_2">
    <g id="ytick_1">
     <g id="line2d_10">
      <defs>
       <path id="ma8d53ff15c" d="M 0 0 
L -3.5 0 
" style="stroke: #000000; stroke-width: 0.8"/>
      </defs>
      <g>
       <use xlink:href="#ma8d53ff15c" x="47.961178" y="359.845582" style="stroke: #000000; stroke-width: 0.8"/>
      </g>
     </g>
     <g id="text_11">
      <!-- −7.5 -->
      <g transform="translate(16.678365 363.644801) scale(0.1 -0.1)">
       <defs>
        <path id="DejaVuSans-37" d="M 525 4666 
L 3525 4666 
L 3525 4397 
L 1831 0 
L 1172 0 
L 2766 4134 
L 525 4134 
L 525 4666 
z
" transform="scale(0.015625)"/>
       </defs>
       <use xlink:href="#DejaVuSans-2212"/>
       <use xlink:href="#DejaVuSans-37" transform="translate(83.789062 0)"/>
       <use xlink:href="#DejaVuSans-2e" transform="translate(147.412109 0)"/>
       <use xlink:href="#DejaVuSans-35" transform="translate(179.199219 0)"/>
      </g>
     </g>
    </g>
    <g id="ytick_2">
     <g id="line2d_11">
      <g>
       <use xlink:href="#ma8d53ff15c" x="47.961178" y="309.357367" style="stroke: #000000; stroke-width: 0.8"/>
      </g>
     </g>
     <g id="text_12">
      <!-- −5.0 -->
      <g transform="translate(16.678365 313.156586) scale(0.1 -0.1)">
       <use xlink:href="#DejaVuSans-2212"/>
       <use xlink:href="#DejaVuSans-35" transform="translate(83.789062 0)"/>
       <use xlink:href="#DejaVuSans-2e" transform="translate(147.412109 0)"/>
       <use xlink:href="#DejaVuSans-30" transform="translate(179.199219 0)"/>
      </g>
     </g>
    </g>
    <g id="ytick_3">
     <g id="line2d_12">
      <g>
       <use xlink:href="#ma8d53ff15c" x="47.961178" y="258.869152" style="stroke: #000000; stroke-width: 0.8"/>
      </g>
     </g>
     <g id="text_13">
      <!-- −2.5 -->
      <g transform="translate(16.678365 262.668371) scale(0.1 -0.1)">
       <use xlink:href="#DejaVuSans-2212"/>
       <use xlink:href="#DejaVuSans-32" transform="translate(83.789062 0)"/>
       <use xlink:href="#DejaVuSans-2e" transform="translate(147.412109 0)"/>
       <use xlink:href="#DejaVuSans-35" transform="translate(179.199219 0)"/>
      </g>
     </g>
    </g>
    <g id="ytick_4">
     <g id="line2d_13">
      <g>
       <use xlink:href="#ma8d53ff15c" x="47.961178" y="208.380938" style="stroke: #000000; stroke-width: 0.8"/>
      </g>
     </g>
     <g id="text_14">
      <!-- 0.0 -->
      <g transform="translate(25.058053 212.180156) scale(0.1 -0.1)">
       <use xlink:href="#DejaVuSans-30"/>
       <use xlink:href="#DejaVuSans-2e" transform="translate(63.623047 0)"/>
       <use xlink:href="#DejaVuSans-30" transform="translate(95.410156 0)"/>
      </g>
     </g>
    </g>
    <g id="ytick_5">
     <g id="line2d_14">
      <g>
       <use xlink:href="#ma8d53ff15c" x="47.961178" y="157.892723" style="stroke: #000000; stroke-width: 0.8"/>
      </g>
     </g>
     <g id="text_15">
      <!-- 2.5 -->
      <g transform="translate(25.058053 161.691941) scale(0.1 -0.1)">
       <use xlink:href="#DejaVuSans-32"/>
       <use xlink:href="#DejaVuSans-2e" transform="translate(63.623047 0)"/>
       <use xlink:href="#DejaVuSans-35" transform="translate(95.410156 0)"/>
      </g>
     </g>
    </g>
    <g id="ytick_6">
     <g id="line2d_15">
      <g>
       <use xlink:href="#ma8d53ff15c" x="47.961178" y="107.404508" style="stroke: #000000; stroke-width: 0.8"/>
      </g>
     </g>
     <g id="text_16">
      <!-- 5.0 -->
      <g transform="translate(25.058053 111.203726) scale(0.1 -0.1)">
       <use xlink:href="#DejaVuSans-35"/>
       <use xlink:href="#DejaVuSans-2e" transform="translate(63.623047 0)"/>
       <use xlink:href="#DejaVuSans-30" transform="translate(95.410156 0)"/>
      </g>
     </g>
    </g>
    <g id="ytick_7">
     <g id="line2d_16">
      <g>
       <use xlink:href="#ma8d53ff15c" x="47.961178" y="56.916293" style="stroke: #000000; stroke-width: 0.8"/>
      </g>
     </g>
     <g id="text_17">
      <!-- 7.5 -->
      <g transform="translate(25.058053 60.715512) scale(0.1 -0.1)">
       <use xlink:href="#DejaVuSans-37"/>
       <use xlink:href="#DejaVuSans-2e" transform="translate(63.623047 0)"/>
       <use xlink:href="#DejaVuSans-35" transform="translate(95.410156 0)"/>
      </g>
     </g>
    </g>
    <g id="text_18">
     <!-- µV -->
     <g transform="translate(10.598678 214.9825) rotate(-90) scale(0.1 -0.1)">
      <defs>
       <path id="DejaVuSans-b5" d="M 544 -1331 
L 544 3500 
L 1119 3500 
L 1119 1325 
Q 1119 872 1334 640 
Q 1550 409 1972 409 
Q 2434 409 2667 671 
Q 2900 934 2900 1459 
L 2900 3500 
L 3475 3500 
L 3475 806 
Q 3475 619 3529 530 
Q 3584 441 3700 441 
Q 3728 441 3778 458 
Q 3828 475 3916 513 
L 3916 50 
Q 3788 -22 3673 -56 
Q 3559 -91 3450 -91 
Q 3234 -91 3106 31 
Q 2978 153 2931 403 
Q 2775 156 2548 32 
Q 2322 -91 2016 -91 
Q 1697 -91 1473 31 
Q 1250 153 1119 397 
L 1119 -1331 
L 544 -1331 
z
" transform="scale(0.015625)"/>
       <path id="DejaVuSans-56" d="M 1831 0 
L 50 4666 
L 709 4666 
L 2188 738 
L 3669 4666 
L 4325 4666 
L 2547 0 
L 1831 0 
z
" transform="scale(0.015625)"/>
      </defs>
      <use xlink:href="#DejaVuSans-b5"/>
      <use xlink:href="#DejaVuSans-56" transform="translate(63.623047 0)"/>
     </g>
    </g>
   </g>
   <g id="patch_4">
    <path d="M 48.228697 398.64351 
L 561.866947 398.64351 
" style="fill: none; stroke: #000000; stroke-width: 0.8; stroke-linejoin: miter; stroke-linecap: square"/>
   </g>
   <g id="patch_5">
    <path d="M 47.961178 208.380938 
L 561.866947 208.380938 
" style="fill: none; stroke: #000000; stroke-width: 0.8; stroke-linejoin: miter; stroke-linecap: square"/>
   </g>
   <g id="text_19">
    <!-- F3, F7 (median) -->
    <g transform="translate(257.483125 12.118365) scale(0.12 -0.12)">
     <defs>
      <path id="DejaVuSans-46" d="M 628 4666 
L 3309 4666 
L 3309 4134 
L 1259 4134 
L 1259 2759 
L 3109 2759 
L 3109 2228 
L 1259 2228 
L 1259 0 
L 628 0 
L 628 4666 
z
" transform="scale(0.015625)"/>
      <path id="DejaVuSans-2c" d="M 750 794 
L 1409 794 
L 1409 256 
L 897 -744 
L 494 -744 
L 750 256 
L 750 794 
z
" transform="scale(0.015625)"/>
      <path id="DejaVuSans-64" d="M 2906 2969 
L 2906 4863 
L 3481 4863 
L 3481 0 
L 2906 0 
L 2906 525 
Q 2725 213 2448 61 
Q 2172 -91 1784 -91 
Q 1150 -91 751 415 
Q 353 922 353 1747 
Q 353 2572 751 3078 
Q 1150 3584 1784 3584 
Q 2172 3584 2448 3432 
Q 2725 3281 2906 2969 
z
M 947 1747 
Q 947 1113 1208 752 
Q 1469 391 1925 391 
Q 2381 391 2643 752 
Q 2906 1113 2906 1747 
Q 2906 2381 2643 2742 
Q 2381 3103 1925 3103 
Q 1469 3103 1208 2742 
Q 947 2381 947 1747 
z
" transform="scale(0.015625)"/>
      <path id="DejaVuSans-61" d="M 2194 1759 
Q 1497 1759 1228 1600 
Q 959 1441 959 1056 
Q 959 750 1161 570 
Q 1363 391 1709 391 
Q 2188 391 2477 730 
Q 2766 1069 2766 1631 
L 2766 1759 
L 2194 1759 
z
M 3341 1997 
L 3341 0 
L 2766 0 
L 2766 531 
Q 2569 213 2275 61 
Q 1981 -91 1556 -91 
Q 1019 -91 701 211 
Q 384 513 384 1019 
Q 384 1609 779 1909 
Q 1175 2209 1959 2209 
L 2766 2209 
L 2766 2266 
Q 2766 2663 2505 2880 
Q 2244 3097 1772 3097 
Q 1472 3097 1187 3025 
Q 903 2953 641 2809 
L 641 3341 
Q 956 3463 1253 3523 
Q 1550 3584 1831 3584 
Q 2591 3584 2966 3190 
Q 3341 2797 3341 1997 
z
" transform="scale(0.015625)"/>
      <path id="DejaVuSans-6e" d="M 3513 2113 
L 3513 0 
L 2938 0 
L 2938 2094 
Q 2938 2591 2744 2837 
Q 2550 3084 2163 3084 
Q 1697 3084 1428 2787 
Q 1159 2491 1159 1978 
L 1159 0 
L 581 0 
L 581 3500 
L 1159 3500 
L 1159 2956 
Q 1366 3272 1645 3428 
Q 1925 3584 2291 3584 
Q 2894 3584 3203 3211 
Q 3513 2838 3513 2113 
z
" transform="scale(0.015625)"/>
     </defs>
     <use xlink:href="#DejaVuSans-46"/>
     <use xlink:href="#DejaVuSans-33" transform="translate(57.519531 0)"/>
     <use xlink:href="#DejaVuSans-2c" transform="translate(121.142578 0)"/>
     <use xlink:href="#DejaVuSans-20" transform="translate(152.929688 0)"/>
     <use xlink:href="#DejaVuSans-46" transform="translate(184.716797 0)"/>
     <use xlink:href="#DejaVuSans-37" transform="translate(242.236328 0)"/>
     <use xlink:href="#DejaVuSans-20" transform="translate(305.859375 0)"/>
     <use xlink:href="#DejaVuSans-28" transform="translate(337.646484 0)"/>
     <use xlink:href="#DejaVuSans-6d" transform="translate(376.660156 0)"/>
     <use xlink:href="#DejaVuSans-65" transform="translate(474.072266 0)"/>
     <use xlink:href="#DejaVuSans-64" transform="translate(535.595703 0)"/>
     <use xlink:href="#DejaVuSans-69" transform="translate(599.072266 0)"/>
     <use xlink:href="#DejaVuSans-61" transform="translate(626.855469 0)"/>
     <use xlink:href="#DejaVuSans-6e" transform="translate(688.134766 0)"/>
     <use xlink:href="#DejaVuSans-29" transform="translate(751.513672 0)"/>
    </g>
   </g>
   <g id="legend_1">
    <g id="patch_6">
     <path d="M 54.961178 55.75274 
L 136.103365 55.75274 
Q 138.103365 55.75274 138.103365 53.75274 
L 138.103365 25.118365 
Q 138.103365 23.118365 136.103365 23.118365 
L 54.961178 23.118365 
Q 52.961178 23.118365 52.961178 25.118365 
L 52.961178 53.75274 
Q 52.961178 55.75274 54.961178 55.75274 
z
" style="fill: #ffffff; opacity: 0.8; stroke: #cccccc; stroke-linejoin: miter"/>
    </g>
    <g id="line2d_17">
     <path d="M 56.961178 31.216803 
L 66.961178 31.216803 
L 76.961178 31.216803 
" style="fill: none; stroke: #1f77b4; stroke-width: 1.5; stroke-linecap: square"/>
    </g>
    <g id="text_20">
     <!-- eerie -->
     <g transform="translate(84.961178 34.716803) scale(0.1 -0.1)">
      <defs>
       <path id="DejaVuSans-72" d="M 2631 2963 
Q 2534 3019 2420 3045 
Q 2306 3072 2169 3072 
Q 1681 3072 1420 2755 
Q 1159 2438 1159 1844 
L 1159 0 
L 581 0 
L 581 3500 
L 1159 3500 
L 1159 2956 
Q 1341 3275 1631 3429 
Q 1922 3584 2338 3584 
Q 2397 3584 2469 3576 
Q 2541 3569 2628 3553 
L 2631 2963 
z
" transform="scale(0.015625)"/>
      </defs>
      <use xlink:href="#DejaVuSans-65"/>
      <use xlink:href="#DejaVuSans-65" transform="translate(61.523438 0)"/>
      <use xlink:href="#DejaVuSans-72" transform="translate(123.046875 0)"/>
      <use xlink:href="#DejaVuSans-69" transform="translate(164.160156 0)"/>
      <use xlink:href="#DejaVuSans-65" transform="translate(191.943359 0)"/>
     </g>
    </g>
    <g id="line2d_18">
     <path d="M 56.961178 45.894928 
L 66.961178 45.894928 
L 76.961178 45.894928 
" style="fill: none; stroke: #ff7f0e; stroke-width: 1.5; stroke-linecap: square"/>
    </g>
    <g id="text_21">
     <!-- non_eerie -->
     <g transform="translate(84.961178 49.394928) scale(0.1 -0.1)">
      <defs>
       <path id="DejaVuSans-6f" d="M 1959 3097 
Q 1497 3097 1228 2736 
Q 959 2375 959 1747 
Q 959 1119 1226 758 
Q 1494 397 1959 397 
Q 2419 397 2687 759 
Q 2956 1122 2956 1747 
Q 2956 2369 2687 2733 
Q 2419 3097 1959 3097 
z
M 1959 3584 
Q 2709 3584 3137 3096 
Q 3566 2609 3566 1747 
Q 3566 888 3137 398 
Q 2709 -91 1959 -91 
Q 1206 -91 779 398 
Q 353 888 353 1747 
Q 353 2609 779 3096 
Q 1206 3584 1959 3584 
z
" transform="scale(0.015625)"/>
       <path id="DejaVuSans-5f" d="M 3263 -1063 
L 3263 -1509 
L -63 -1509 
L -63 -1063 
L 3263 -1063 
z
" transform="scale(0.015625)"/>
      </defs>
      <use xlink:href="#DejaVuSans-6e"/>
      <use xlink:href="#DejaVuSans-6f" transform="translate(63.378906 0)"/>
      <use xlink:href="#DejaVuSans-6e" transform="translate(124.560547 0)"/>
      <use xlink:href="#DejaVuSans-5f" transform="translate(187.939453 0)"/>
      <use xlink:href="#DejaVuSans-65" transform="translate(237.939453 0)"/>
      <use xlink:href="#DejaVuSans-65" transform="translate(299.462891 0)"/>
      <use xlink:href="#DejaVuSans-72" transform="translate(360.986328 0)"/>
      <use xlink:href="#DejaVuSans-69" transform="translate(402.099609 0)"/>
      <use xlink:href="#DejaVuSans-65" transform="translate(429.882812 0)"/>
     </g>
    </g>
   </g>
   <g id="FillBetweenPolyCollection_1">
    <defs>
     <path id="m858ca8e7ee" d="M 47.961178 -243.52305 
L 47.961178 -224.150585 
L 49.633177 -229.145341 
L 51.305177 -231.394988 
L 52.977176 -231.513879 
L 54.649176 -230.066331 
L 56.321175 -229.20162 
L 57.993175 -228.355562 
L 59.665174 -226.222102 
L 61.337174 -222.311298 
L 63.009173 -216.701745 
L 64.681173 -211.264976 
L 66.353172 -207.794136 
L 68.025172 -207.70613 
L 69.697171 -210.965593 
L 71.369171 -215.696732 
L 73.04117 -219.318187 
L 74.71317 -220.545795 
L 76.385169 -219.682907 
L 78.057169 -217.987957 
L 79.729168 -217.164841 
L 81.401168 -217.431115 
L 83.073167 -215.815121 
L 84.745167 -210.949939 
L 86.417166 -202.505 
L 88.089166 -192.496058 
L 89.761165 -183.169832 
L 91.433165 -179.088282 
L 93.105164 -182.843017 
L 94.777164 -193.370798 
L 96.449163 -206.03307 
L 98.121163 -215.605072 
L 99.793162 -219.565043 
L 101.465162 -217.578852 
L 103.137161 -211.101378 
L 104.809161 -204.457133 
L 106.48116 -201.227383 
L 108.15316 -203.833975 
L 109.825159 -210.862379 
L 111.497159 -219.495648 
L 113.169158 -227.874878 
L 114.841158 -234.358509 
L 116.513157 -237.96392 
L 118.185157 -238.614277 
L 119.857157 -236.987531 
L 121.529156 -232.889402 
L 123.201156 -226.766754 
L 124.873155 -219.573643 
L 126.545155 -212.748296 
L 128.217154 -208.293305 
L 129.889154 -208.597958 
L 131.561153 -214.529296 
L 133.233153 -224.026179 
L 134.905152 -233.515385 
L 136.577152 -238.876222 
L 138.249151 -239.099967 
L 139.921151 -235.585887 
L 141.59315 -232.040636 
L 143.26515 -231.280637 
L 144.937149 -233.885028 
L 146.609149 -238.404816 
L 148.281148 -241.928365 
L 149.953148 -241.903541 
L 151.625147 -239.924571 
L 153.297147 -238.31329 
L 154.969146 -238.80763 
L 156.641146 -242.968971 
L 158.313145 -247.460733 
L 159.985145 -250.502403 
L 161.657144 -249.99775 
L 163.329144 -247.638547 
L 165.001143 -245.001369 
L 166.673143 -244.881785 
L 168.345142 -247.423898 
L 170.017142 -249.798949 
L 171.689141 -248.82192 
L 173.361141 -242.989281 
L 175.03314 -232.257554 
L 176.70514 -220.411457 
L 178.377139 -211.985157 
L 180.049139 -207.520102 
L 181.721138 -206.363631 
L 183.393138 -207.39523 
L 185.065137 -210.93825 
L 186.737137 -218.63 
L 188.409137 -232.728665 
L 190.081136 -252.381556 
L 191.753136 -275.433476 
L 193.425135 -298.101493 
L 195.097135 -315.597241 
L 196.769134 -327.715928 
L 198.441134 -336.057767 
L 200.113133 -344.795409 
L 201.785133 -357.109682 
L 203.457132 -371.459329 
L 205.129132 -383.700365 
L 206.801131 -389.043336 
L 208.473131 -387.072016 
L 210.14513 -379.914911 
L 211.81713 -372.485793 
L 213.489129 -368.414438 
L 215.161129 -367.770678 
L 216.833128 -367.249712 
L 218.505128 -363.856887 
L 220.177127 -356.749307 
L 221.849127 -347.152783 
L 223.521126 -340.121824 
L 225.193126 -338.693326 
L 226.865125 -343.931271 
L 228.537125 -350.509508 
L 230.209124 -353.492311 
L 231.881124 -351.287377 
L 233.553123 -343.10105 
L 235.225123 -332.573614 
L 236.897122 -322.995609 
L 238.569122 -315.654397 
L 240.241121 -310.85339 
L 241.913121 -307.449624 
L 243.58512 -305.020955 
L 245.25712 -304.579496 
L 246.929119 -305.880615 
L 248.601119 -309.276738 
L 250.273118 -313.969303 
L 251.945118 -318.431393 
L 253.617117 -321.295117 
L 255.289117 -322.178335 
L 256.961116 -321.70735 
L 258.633116 -319.578205 
L 260.305116 -315.843953 
L 261.977115 -308.539072 
L 263.649115 -298.627775 
L 265.321114 -288.149916 
L 266.993114 -280.890599 
L 268.665113 -280.155612 
L 270.337113 -284.895267 
L 272.009112 -289.525509 
L 273.681112 -289.2718 
L 275.353111 -280.320719 
L 277.025111 -265.12684 
L 278.69711 -249.106794 
L 280.36911 -240.026209 
L 282.041109 -242.633872 
L 283.713109 -254.241358 
L 285.385108 -266.551301 
L 287.057108 -272.062767 
L 288.729107 -267.204258 
L 290.401107 -253.265122 
L 292.073106 -238.104673 
L 293.745106 -228.917234 
L 295.417105 -229.874429 
L 297.089105 -237.52764 
L 298.761104 -245.62132 
L 300.433104 -247.388849 
L 302.105103 -241.57976 
L 303.777103 -230.52465 
L 305.449102 -219.945903 
L 307.121102 -212.19577 
L 308.793101 -208.465098 
L 310.465101 -207.247593 
L 312.1371 -205.62425 
L 313.8091 -204.733863 
L 315.481099 -205.708993 
L 317.153099 -207.859925 
L 318.825098 -212.518538 
L 320.497098 -219.141159 
L 322.169097 -226.535655 
L 323.841097 -234.310562 
L 325.513096 -240.900575 
L 327.185096 -246.541413 
L 328.857096 -250.596757 
L 330.529095 -253.091916 
L 332.201095 -255.342425 
L 333.873094 -258.31503 
L 335.545094 -263.970412 
L 337.217093 -271.976421 
L 338.889093 -280.214261 
L 340.561092 -286.518127 
L 342.233092 -289.190564 
L 343.905091 -288.504068 
L 345.577091 -287.509751 
L 347.24909 -290.115308 
L 348.92109 -296.215883 
L 350.593089 -303.471489 
L 352.265089 -306.941803 
L 353.937088 -304.680293 
L 355.609088 -297.399983 
L 357.281087 -288.012522 
L 358.953087 -281.025174 
L 360.625086 -279.25216 
L 362.297086 -281.116831 
L 363.969085 -283.416023 
L 365.641085 -283.084105 
L 367.313084 -279.527767 
L 368.985084 -275.013005 
L 370.657083 -272.609003 
L 372.329083 -274.372555 
L 374.001082 -278.70442 
L 375.673082 -283.417536 
L 377.345081 -285.178623 
L 379.017081 -284.170889 
L 380.68908 -283.203577 
L 382.36108 -285.571418 
L 384.033079 -291.764077 
L 385.705079 -300.567207 
L 387.377078 -307.994852 
L 389.049078 -310.851122 
L 390.721077 -307.764764 
L 392.393077 -299.834806 
L 394.065076 -292.669881 
L 395.737076 -290.801538 
L 397.409076 -295.628579 
L 399.081075 -303.324113 
L 400.753075 -310.296856 
L 402.425074 -312.788797 
L 404.097074 -309.211834 
L 405.769073 -301.01101 
L 407.441073 -292.313273 
L 409.113072 -286.156796 
L 410.785072 -282.452703 
L 412.457071 -279.76847 
L 414.129071 -277.051112 
L 415.80107 -273.397371 
L 417.47307 -270.071087 
L 419.145069 -269.101249 
L 420.817069 -268.635369 
L 422.489068 -269.382248 
L 424.161068 -271.271462 
L 425.833067 -274.455204 
L 427.505067 -278.424237 
L 429.177066 -282.283647 
L 430.849066 -282.995887 
L 432.521065 -279.39444 
L 434.193065 -272.703416 
L 435.865064 -265.750249 
L 437.537064 -261.785273 
L 439.209063 -261.70991 
L 440.881063 -263.588416 
L 442.553062 -264.57135 
L 444.225062 -262.210513 
L 445.897061 -256.442127 
L 447.569061 -249.361399 
L 449.24106 -244.370822 
L 450.91306 -242.849224 
L 452.585059 -245.050571 
L 454.257059 -246.437978 
L 455.929058 -245.854408 
L 457.601058 -243.086272 
L 459.273057 -240.800515 
L 460.945057 -240.062408 
L 462.617056 -241.696688 
L 464.289056 -243.56951 
L 465.961055 -244.179501 
L 467.633055 -241.714256 
L 469.305055 -238.133149 
L 470.977054 -235.789895 
L 472.649054 -235.143507 
L 474.321053 -234.944586 
L 475.993053 -232.982672 
L 477.665052 -229.01339 
L 479.337052 -223.366042 
L 481.009051 -218.547251 
L 482.681051 -216.816821 
L 484.35305 -218.590349 
L 486.02505 -222.689655 
L 487.697049 -226.369934 
L 489.369049 -228.37447 
L 491.041048 -229.05475 
L 492.713048 -229.822211 
L 494.385047 -231.212718 
L 496.057047 -233.186329 
L 497.729046 -233.729233 
L 499.401046 -231.935262 
L 501.073045 -226.940313 
L 502.745045 -221.041827 
L 504.417044 -215.99135 
L 506.089044 -214.627269 
L 507.761043 -216.745673 
L 509.433043 -219.77409 
L 511.105042 -220.753282 
L 512.777042 -219.185981 
L 514.449041 -215.996147 
L 516.121041 -212.915305 
L 517.79304 -212.752978 
L 519.46504 -215.62791 
L 521.137039 -220.484825 
L 522.809039 -224.592854 
L 524.481038 -225.901296 
L 526.153038 -223.965976 
L 527.825037 -221.072899 
L 529.497037 -219.880645 
L 531.169036 -219.888792 
L 532.841036 -219.874186 
L 534.513035 -219.365601 
L 536.185035 -218.453766 
L 537.857035 -218.756951 
L 539.529034 -221.550618 
L 541.201034 -226.613911 
L 542.873033 -233.077624 
L 544.545033 -238.535563 
L 546.217032 -242.205633 
L 547.889032 -244.766478 
L 549.561031 -249.922614 
L 551.233031 -257.637845 
L 552.90503 -264.891512 
L 554.57703 -267.640232 
L 556.249029 -263.367186 
L 557.921029 -253.890261 
L 559.593028 -243.129022 
L 561.265028 -239.102801 
L 561.265028 -269.871391 
L 561.265028 -269.871391 
L 559.593028 -273.601039 
L 557.921029 -284.153418 
L 556.249029 -293.874688 
L 554.57703 -297.533942 
L 552.90503 -294.054944 
L 551.233031 -286.444954 
L 549.561031 -279.915413 
L 547.889032 -275.85205 
L 546.217032 -272.882975 
L 544.545033 -269.00115 
L 542.873033 -263.464824 
L 541.201034 -256.604221 
L 539.529034 -249.65668 
L 537.857035 -245.716566 
L 536.185035 -245.793052 
L 534.513035 -247.66091 
L 532.841036 -249.407206 
L 531.169036 -250.058494 
L 529.497037 -250.989846 
L 527.825037 -252.274192 
L 526.153038 -254.448355 
L 524.481038 -256.140201 
L 522.809039 -255.440714 
L 521.137039 -250.970313 
L 519.46504 -244.941873 
L 517.79304 -239.493287 
L 516.121041 -237.564612 
L 514.449041 -240.275686 
L 512.777042 -244.331571 
L 511.105042 -246.425425 
L 509.433043 -245.547609 
L 507.761043 -241.837306 
L 506.089044 -239.861131 
L 504.417044 -240.641707 
L 502.745045 -245.681554 
L 501.073045 -253.157068 
L 499.401046 -259.78299 
L 497.729046 -262.354355 
L 496.057047 -261.139633 
L 494.385047 -257.886998 
L 492.713048 -256.214411 
L 491.041048 -256.716751 
L 489.369049 -257.754017 
L 487.697049 -257.442867 
L 486.02505 -254.82913 
L 484.35305 -250.967255 
L 482.681051 -248.852399 
L 481.009051 -249.617879 
L 479.337052 -254.281726 
L 477.665052 -260.321657 
L 475.993053 -265.583724 
L 474.321053 -268.828627 
L 472.649054 -270.767372 
L 470.977054 -272.15759 
L 469.305055 -273.759252 
L 467.633055 -274.728663 
L 465.961055 -275.745803 
L 464.289056 -275.169968 
L 462.617056 -273.33901 
L 460.945057 -272.394768 
L 459.273057 -273.491712 
L 457.601058 -275.818866 
L 455.929058 -277.578562 
L 454.257059 -277.472485 
L 452.585059 -275.148063 
L 450.91306 -273.283613 
L 449.24106 -274.437104 
L 447.569061 -279.87489 
L 445.897061 -287.708267 
L 444.225062 -295.018328 
L 442.553062 -298.51153 
L 440.881063 -298.873887 
L 439.209063 -297.724791 
L 437.537064 -297.971417 
L 435.865064 -300.819412 
L 434.193065 -306.45146 
L 432.521065 -311.670688 
L 430.849066 -314.622085 
L 429.177066 -314.280387 
L 427.505067 -310.903592 
L 425.833067 -306.390064 
L 424.161068 -302.414929 
L 422.489068 -299.273076 
L 420.817069 -298.442427 
L 419.145069 -299.896257 
L 417.47307 -302.417919 
L 415.80107 -304.886817 
L 414.129071 -307.096229 
L 412.457071 -308.702457 
L 410.785072 -310.636522 
L 409.113072 -314.453316 
L 407.441073 -320.315255 
L 405.769073 -327.555639 
L 404.097074 -334.668123 
L 402.425074 -338.447594 
L 400.753075 -337.272973 
L 399.081075 -332.392206 
L 397.409076 -326.46171 
L 395.737076 -322.891555 
L 394.065076 -324.479578 
L 392.393077 -330.078816 
L 390.721077 -336.473471 
L 389.049078 -339.051267 
L 387.377078 -336.131639 
L 385.705079 -327.951197 
L 384.033079 -318.433166 
L 382.36108 -312.021076 
L 380.68908 -310.759741 
L 379.017081 -312.803588 
L 377.345081 -314.455393 
L 375.673082 -312.754206 
L 374.001082 -307.757307 
L 372.329083 -301.861811 
L 370.657083 -299.070259 
L 368.985084 -300.919111 
L 367.313084 -306.055642 
L 365.641085 -310.720637 
L 363.969085 -312.725498 
L 362.297086 -311.211318 
L 360.625086 -309.394338 
L 358.953087 -310.652478 
L 357.281087 -316.688697 
L 355.609088 -325.639966 
L 353.937088 -333.137064 
L 352.265089 -335.162553 
L 350.593089 -331.063343 
L 348.92109 -323.037415 
L 347.24909 -316.8487 
L 345.577091 -314.456291 
L 343.905091 -315.085755 
L 342.233092 -316.842082 
L 340.561092 -316.509644 
L 338.889093 -311.665053 
L 337.217093 -303.969012 
L 335.545094 -295.942137 
L 333.873094 -290.518374 
L 332.201095 -286.948528 
L 330.529095 -284.37221 
L 328.857096 -281.758998 
L 327.185096 -277.583687 
L 325.513096 -272.108581 
L 323.841097 -266.046799 
L 322.169097 -259.950338 
L 320.497098 -252.815993 
L 318.825098 -245.678874 
L 317.153099 -239.029118 
L 315.481099 -234.795132 
L 313.8091 -232.487481 
L 312.1371 -231.661002 
L 310.465101 -232.624475 
L 308.793101 -235.762502 
L 307.121102 -242.298931 
L 305.449102 -252.080273 
L 303.777103 -264.025416 
L 302.105103 -274.030391 
L 300.433104 -278.660643 
L 298.761104 -275.078538 
L 297.089105 -266.484249 
L 295.417105 -259.046093 
L 293.745106 -258.576879 
L 292.073106 -267.141866 
L 290.401107 -282.465375 
L 288.729107 -296.116551 
L 287.057108 -300.976943 
L 285.385108 -295.083133 
L 283.713109 -282.502998 
L 282.041109 -271.414126 
L 280.36911 -268.107978 
L 278.69711 -275.272075 
L 277.025111 -289.13168 
L 275.353111 -303.229521 
L 273.681112 -311.64246 
L 272.009112 -312.256266 
L 270.337113 -309.254521 
L 268.665113 -307.966147 
L 266.993114 -311.803131 
L 265.321114 -320.201953 
L 263.649115 -330.420048 
L 261.977115 -339.705098 
L 260.305116 -346.164601 
L 258.633116 -349.077828 
L 256.961116 -349.875292 
L 255.289117 -349.313337 
L 253.617117 -347.350075 
L 251.945118 -343.026402 
L 250.273118 -337.632379 
L 248.601119 -332.881463 
L 246.929119 -329.979735 
L 245.25712 -330.3305 
L 243.58512 -332.908273 
L 241.913121 -335.668975 
L 240.241121 -338.689887 
L 238.569122 -342.061785 
L 236.897122 -348.540408 
L 235.225123 -357.954109 
L 233.553123 -369.222623 
L 231.881124 -378.554308 
L 230.209124 -382.660641 
L 228.537125 -380.381274 
L 226.865125 -374.158072 
L 225.193126 -368.598497 
L 223.521126 -368.314857 
L 221.849127 -374.102361 
L 220.177127 -383.072893 
L 218.505128 -391.54813 
L 216.833128 -394.840862 
L 215.161129 -394.239876 
L 213.489129 -393.718421 
L 211.81713 -397.051089 
L 210.14513 -404.400893 
L 208.473131 -411.593616 
L 206.801131 -413.881635 
L 205.129132 -408.931191 
L 203.457132 -397.64279 
L 201.785133 -383.398924 
L 200.113133 -371.337513 
L 198.441134 -362.544412 
L 196.769134 -354.676122 
L 195.097135 -343.792499 
L 193.425135 -326.667685 
L 191.753136 -303.886101 
L 190.081136 -279.218689 
L 188.409137 -257.908194 
L 186.737137 -242.923422 
L 185.065137 -235.12957 
L 183.393138 -232.088232 
L 181.721138 -231.711647 
L 180.049139 -233.603088 
L 178.377139 -238.575409 
L 176.70514 -247.104062 
L 175.03314 -257.702 
L 173.361141 -267.004357 
L 171.689141 -273.643234 
L 170.017142 -275.150199 
L 168.345142 -272.901037 
L 166.673143 -270.201674 
L 165.001143 -269.22976 
L 163.329144 -270.822955 
L 161.657144 -272.596906 
L 159.985145 -272.314198 
L 158.313145 -268.505794 
L 156.641146 -263.209684 
L 154.969146 -259.344333 
L 153.297147 -257.788162 
L 151.625147 -258.835731 
L 149.953148 -260.724516 
L 148.281148 -260.003477 
L 146.609149 -256.981537 
L 144.937149 -253.667514 
L 143.26515 -251.538371 
L 141.59315 -252.846488 
L 139.921151 -256.361659 
L 138.249151 -258.564286 
L 136.577152 -256.84722 
L 134.905152 -250.134414 
L 133.233153 -240.153999 
L 131.561153 -230.610521 
L 129.889154 -224.991161 
L 128.217154 -224.288225 
L 126.545155 -228.562885 
L 124.873155 -235.598027 
L 123.201156 -242.566854 
L 121.529156 -248.922256 
L 119.857157 -254.081618 
L 118.185157 -257.33766 
L 116.513157 -258.181429 
L 114.841158 -255.338564 
L 113.169158 -247.990281 
L 111.497159 -236.893314 
L 109.825159 -225.58289 
L 108.15316 -216.972191 
L 106.48116 -213.819572 
L 104.809161 -215.595744 
L 103.137161 -221.482887 
L 101.465162 -228.162885 
L 99.793162 -232.081132 
L 98.121163 -229.349553 
L 96.449163 -220.262266 
L 94.777164 -208.079518 
L 93.105164 -197.510325 
L 91.433165 -192.318322 
L 89.761165 -195.02594 
L 88.089166 -204.215716 
L 86.417166 -216.372162 
L 84.745167 -226.786904 
L 83.073167 -232.414792 
L 81.401168 -234.230477 
L 79.729168 -234.727556 
L 78.057169 -235.434606 
L 76.385169 -236.429576 
L 74.71317 -235.890752 
L 73.04117 -233.688168 
L 71.369171 -229.297277 
L 69.697171 -225.316655 
L 68.025172 -224.011461 
L 66.353172 -225.710727 
L 64.681173 -231.38127 
L 63.009173 -237.906807 
L 61.337174 -242.632914 
L 59.665174 -244.230538 
L 57.993175 -244.304132 
L 56.321175 -244.415243 
L 54.649176 -244.906394 
L 52.977176 -246.594776 
L 51.305177 -247.82212 
L 49.633177 -246.968363 
L 47.961178 -243.52305 
z
" style="stroke: #1f77b4; stroke-opacity: 0.3"/>
    </defs>
    <g>
     <use xlink:href="#m858ca8e7ee" x="0" y="432" style="fill: #1f77b4; fill-opacity: 0.3; stroke: #1f77b4; stroke-opacity: 0.3"/>
    </g>
   </g>
   <g id="FillBetweenPolyCollection_2">
    <defs>
     <path id="mfa26c334c0" d="M 47.961178 -210.51251 
L 47.961178 -205.8444 
L 49.633177 -205.207726 
L 51.305177 -205.870583 
L 52.977176 -206.868283 
L 54.649176 -207.247049 
L 56.321175 -206.87824 
L 57.993175 -206.16913 
L 59.665174 -206.090363 
L 61.337174 -207.345157 
L 63.009173 -210.041043 
L 64.681173 -213.563805 
L 66.353172 -216.660025 
L 68.025172 -218.347003 
L 69.697171 -218.568392 
L 71.369171 -217.698204 
L 73.04117 -216.530653 
L 74.71317 -215.664116 
L 76.385169 -215.58047 
L 78.057169 -216.266625 
L 79.729168 -217.197613 
L 81.401168 -218.076795 
L 83.073167 -218.977875 
L 84.745167 -220.120815 
L 86.417166 -221.672146 
L 88.089166 -223.830267 
L 89.761165 -226.285487 
L 91.433165 -228.579386 
L 93.105164 -230.032924 
L 94.777164 -230.331045 
L 96.449163 -229.562168 
L 98.121163 -228.241741 
L 99.793162 -227.142586 
L 101.465162 -226.854987 
L 103.137161 -227.296974 
L 104.809161 -228.000993 
L 106.48116 -228.39106 
L 108.15316 -228.376724 
L 109.825159 -228.44269 
L 111.497159 -229.163579 
L 113.169158 -231.037359 
L 114.841158 -233.599352 
L 116.513157 -235.748471 
L 118.185157 -236.360055 
L 119.857157 -235.030656 
L 121.529156 -232.271978 
L 123.201156 -229.227881 
L 124.873155 -227.083605 
L 126.545155 -226.056839 
L 128.217154 -225.622362 
L 129.889154 -225.042527 
L 131.561153 -224.0687 
L 133.233153 -223.220939 
L 134.905152 -223.079552 
L 136.577152 -224.057798 
L 138.249151 -225.712958 
L 139.921151 -227.151683 
L 141.59315 -227.789767 
L 143.26515 -227.6374 
L 144.937149 -227.46718 
L 146.609149 -227.873261 
L 148.281148 -228.950898 
L 149.953148 -230.605436 
L 151.625147 -232.142862 
L 153.297147 -233.078688 
L 154.969146 -233.992936 
L 156.641146 -235.123614 
L 158.313145 -236.491662 
L 159.985145 -237.563024 
L 161.657144 -237.737347 
L 163.329144 -236.853757 
L 165.001143 -235.182689 
L 166.673143 -233.245253 
L 168.345142 -231.283786 
L 170.017142 -228.742518 
L 171.689141 -225.103215 
L 173.361141 -219.99119 
L 175.03314 -214.050395 
L 176.70514 -208.631676 
L 178.377139 -205.215409 
L 180.049139 -204.372091 
L 181.721138 -206.079175 
L 183.393138 -210.107271 
L 185.065137 -216.44873 
L 186.737137 -225.884886 
L 188.409137 -239.464563 
L 190.081136 -257.501339 
L 191.753136 -279.169872 
L 193.425135 -301.912455 
L 195.097135 -322.757242 
L 196.769134 -339.479023 
L 198.441134 -351.085047 
L 200.113133 -357.950571 
L 201.785133 -361.468007 
L 203.457132 -362.946726 
L 205.129132 -363.602602 
L 206.801131 -364.12046 
L 208.473131 -364.791086 
L 210.14513 -365.414063 
L 211.81713 -365.745215 
L 213.489129 -365.718318 
L 215.161129 -365.50623 
L 216.833128 -365.095335 
L 218.505128 -364.424871 
L 220.177127 -363.531382 
L 221.849127 -362.150934 
L 223.521126 -359.804727 
L 225.193126 -356.348187 
L 226.865125 -352.146659 
L 228.537125 -347.561744 
L 230.209124 -342.769932 
L 231.881124 -337.392031 
L 233.553123 -330.58587 
L 235.225123 -321.593404 
L 236.897122 -310.947545 
L 238.569122 -300.307736 
L 240.241121 -291.573823 
L 241.913121 -285.982787 
L 243.58512 -283.424075 
L 245.25712 -282.437083 
L 246.929119 -281.033785 
L 248.601119 -277.878433 
L 250.273118 -273.201142 
L 251.945118 -268.398867 
L 253.617117 -264.967069 
L 255.289117 -263.757213 
L 256.961116 -264.455883 
L 258.633116 -265.684368 
L 260.305116 -266.114681 
L 261.977115 -265.093998 
L 263.649115 -262.748485 
L 265.321114 -260.123459 
L 266.993114 -258.299726 
L 268.665113 -257.991149 
L 270.337113 -259.259073 
L 272.009112 -261.714932 
L 273.681112 -264.19377 
L 275.353111 -266.000029 
L 277.025111 -266.578358 
L 278.69711 -265.610543 
L 280.36911 -263.579286 
L 282.041109 -261.301056 
L 283.713109 -259.544944 
L 285.385108 -258.675267 
L 287.057108 -259.033577 
L 288.729107 -260.04846 
L 290.401107 -261.046901 
L 292.073106 -261.372778 
L 293.745106 -260.384499 
L 295.417105 -257.624451 
L 297.089105 -253.290552 
L 298.761104 -247.477384 
L 300.433104 -241.242871 
L 302.105103 -235.457604 
L 303.777103 -230.975137 
L 305.449102 -228.037777 
L 307.121102 -225.917222 
L 308.793101 -223.481875 
L 310.465101 -219.968217 
L 312.1371 -215.154224 
L 313.8091 -209.8712 
L 315.481099 -205.498089 
L 317.153099 -203.102684 
L 318.825098 -203.075481 
L 320.497098 -204.910564 
L 322.169097 -207.794819 
L 323.841097 -210.404714 
L 325.513096 -212.049498 
L 327.185096 -212.331464 
L 328.857096 -211.537666 
L 330.529095 -210.59231 
L 332.201095 -210.332914 
L 333.873094 -211.880571 
L 335.545094 -215.362029 
L 337.217093 -219.863239 
L 338.889093 -223.996032 
L 340.561092 -226.127838 
L 342.233092 -225.825971 
L 343.905091 -223.720917 
L 345.577091 -221.295493 
L 347.24909 -219.941762 
L 348.92109 -220.045892 
L 350.593089 -221.01595 
L 352.265089 -221.91933 
L 353.937088 -221.621476 
L 355.609088 -220.824759 
L 357.281087 -219.781217 
L 358.953087 -219.637663 
L 360.625086 -220.034211 
L 362.297086 -220.625009 
L 363.969085 -220.784098 
L 365.641085 -220.152483 
L 367.313084 -218.957191 
L 368.985084 -217.891363 
L 370.657083 -217.603472 
L 372.329083 -218.234904 
L 374.001082 -219.471436 
L 375.673082 -221.247183 
L 377.345081 -223.325432 
L 379.017081 -225.778264 
L 380.68908 -228.494139 
L 382.36108 -231.2045 
L 384.033079 -233.428352 
L 385.705079 -235.008944 
L 387.377078 -236.165106 
L 389.049078 -237.043186 
L 390.721077 -237.713343 
L 392.393077 -238.09509 
L 394.065076 -237.811581 
L 395.737076 -236.738675 
L 397.409076 -235.456967 
L 399.081075 -234.389312 
L 400.753075 -233.956673 
L 402.425074 -234.005171 
L 404.097074 -234.507958 
L 405.769073 -235.205583 
L 407.441073 -236.735473 
L 409.113072 -238.874675 
L 410.785072 -241.323946 
L 412.457071 -243.181054 
L 414.129071 -243.494713 
L 415.80107 -242.142161 
L 417.47307 -240.193462 
L 419.145069 -239.243038 
L 420.817069 -240.634883 
L 422.489068 -244.259681 
L 424.161068 -248.702217 
L 425.833067 -252.374459 
L 427.505067 -254.282506 
L 429.177066 -254.600437 
L 430.849066 -254.361579 
L 432.521065 -254.36207 
L 434.193065 -254.636219 
L 435.865064 -254.399502 
L 437.537064 -253.018442 
L 439.209063 -250.742585 
L 440.881063 -248.789876 
L 442.553062 -248.478521 
L 444.225062 -250.248292 
L 445.897061 -253.319904 
L 447.569061 -255.908236 
L 449.24106 -256.42629 
L 450.91306 -255.265675 
L 452.585059 -253.795309 
L 454.257059 -253.987178 
L 455.929058 -257.094213 
L 457.601058 -262.129954 
L 459.273057 -267.22347 
L 460.945057 -270.186392 
L 462.617056 -270.345198 
L 464.289056 -268.481314 
L 465.961055 -266.987819 
L 467.633055 -267.218349 
L 469.305055 -269.350374 
L 470.977054 -272.253694 
L 472.649054 -274.295245 
L 474.321053 -274.596469 
L 475.993053 -273.819967 
L 477.665052 -273.400803 
L 479.337052 -274.520871 
L 481.009051 -276.714934 
L 482.681051 -278.552851 
L 484.35305 -278.308608 
L 486.02505 -275.567745 
L 487.697049 -271.572553 
L 489.369049 -268.719755 
L 491.041048 -268.874486 
L 492.713048 -271.956485 
L 494.385047 -276.175391 
L 496.057047 -278.999639 
L 497.729046 -278.944713 
L 499.401046 -276.491514 
L 501.073045 -273.477574 
L 502.745045 -271.839175 
L 504.417044 -272.13717 
L 506.089044 -273.0224 
L 507.761043 -273.045947 
L 509.433043 -271.29364 
L 511.105042 -268.322992 
L 512.777042 -265.657935 
L 514.449041 -264.793275 
L 516.121041 -265.793208 
L 517.79304 -267.247931 
L 519.46504 -267.913427 
L 521.137039 -267.007857 
L 522.809039 -265.312806 
L 524.481038 -264.398387 
L 526.153038 -265.180147 
L 527.825037 -267.588986 
L 529.497037 -270.443483 
L 531.169036 -271.793863 
L 532.841036 -270.777764 
L 534.513035 -267.99092 
L 536.185035 -264.919313 
L 537.857035 -263.224294 
L 539.529034 -263.314556 
L 541.201034 -264.67186 
L 542.873033 -266.053639 
L 544.545033 -266.426251 
L 546.217032 -265.377298 
L 547.889032 -263.465427 
L 549.561031 -261.878299 
L 551.233031 -261.27464 
L 552.90503 -261.473884 
L 554.57703 -261.894527 
L 556.249029 -261.711545 
L 557.921029 -260.606322 
L 559.593028 -258.746888 
L 561.265028 -257.177194 
L 561.265028 -264.214084 
L 561.265028 -264.214084 
L 559.593028 -265.599227 
L 557.921029 -267.384089 
L 556.249029 -268.421642 
L 554.57703 -268.606666 
L 552.90503 -268.203107 
L 551.233031 -268.190246 
L 549.561031 -268.913138 
L 547.889032 -270.534811 
L 546.217032 -272.249183 
L 544.545033 -273.380619 
L 542.873033 -273.261075 
L 541.201034 -271.97778 
L 539.529034 -270.68934 
L 537.857035 -270.442152 
L 536.185035 -272.16909 
L 534.513035 -275.085803 
L 532.841036 -277.636204 
L 531.169036 -278.684325 
L 529.497037 -277.435591 
L 527.825037 -274.783224 
L 526.153038 -272.274622 
L 524.481038 -271.349782 
L 522.809039 -272.261508 
L 521.137039 -273.891025 
L 519.46504 -274.786578 
L 517.79304 -274.308883 
L 516.121041 -272.876394 
L 514.449041 -272.060095 
L 512.777042 -272.889997 
L 511.105042 -275.2908 
L 509.433043 -278.030316 
L 507.761043 -279.730011 
L 506.089044 -279.807722 
L 504.417044 -278.947684 
L 502.745045 -278.735131 
L 501.073045 -280.468929 
L 499.401046 -283.410427 
L 497.729046 -285.822927 
L 496.057047 -285.96235 
L 494.385047 -283.111447 
L 492.713048 -279.024893 
L 491.041048 -275.920259 
L 489.369049 -275.646361 
L 487.697049 -278.380668 
L 486.02505 -282.229768 
L 484.35305 -284.948741 
L 482.681051 -285.118092 
L 481.009051 -283.353914 
L 479.337052 -281.015354 
L 477.665052 -279.950181 
L 475.993053 -280.320783 
L 474.321053 -281.278436 
L 472.649054 -281.097098 
L 470.977054 -279.167936 
L 469.305055 -276.306429 
L 467.633055 -274.165163 
L 465.961055 -274.023059 
L 464.289056 -275.660916 
L 462.617056 -277.237999 
L 460.945057 -277.133158 
L 459.273057 -274.292778 
L 457.601058 -269.335768 
L 455.929058 -264.26659 
L 454.257059 -261.299461 
L 452.585059 -261.18704 
L 450.91306 -262.67285 
L 449.24106 -263.737758 
L 447.569061 -263.007007 
L 445.897061 -260.399142 
L 444.225062 -257.21725 
L 442.553062 -255.360902 
L 440.881063 -255.700096 
L 439.209063 -257.820125 
L 437.537064 -260.157645 
L 435.865064 -261.49491 
L 434.193065 -261.649251 
L 432.521065 -261.359712 
L 430.849066 -261.28614 
L 429.177066 -261.66808 
L 427.505067 -261.408011 
L 425.833067 -259.578831 
L 424.161068 -255.713219 
L 422.489068 -251.047601 
L 420.817069 -247.302122 
L 419.145069 -245.781424 
L 417.47307 -246.614146 
L 415.80107 -248.677317 
L 414.129071 -250.221667 
L 412.457071 -250.133832 
L 410.785072 -248.303197 
L 409.113072 -245.762948 
L 407.441073 -243.497498 
L 405.769073 -241.875675 
L 404.097074 -240.960671 
L 402.425074 -240.460892 
L 400.753075 -240.382962 
L 399.081075 -240.80627 
L 397.409076 -241.673097 
L 395.737076 -242.826063 
L 394.065076 -243.935764 
L 392.393077 -244.468347 
L 390.721077 -244.32316 
L 389.049078 -243.679169 
L 387.377078 -242.707628 
L 385.705079 -241.515588 
L 384.033079 -239.830101 
L 382.36108 -237.648894 
L 380.68908 -234.96216 
L 379.017081 -232.163204 
L 377.345081 -229.541968 
L 375.673082 -227.454065 
L 374.001082 -225.811802 
L 372.329083 -224.710396 
L 370.657083 -224.295764 
L 368.985084 -224.648511 
L 367.313084 -225.675135 
L 365.641085 -226.776563 
L 363.969085 -227.284032 
L 362.297086 -227.107439 
L 360.625086 -226.40835 
L 358.953087 -226.058918 
L 357.281087 -226.523024 
L 355.609088 -227.624216 
L 353.937088 -228.46458 
L 352.265089 -228.493354 
L 350.593089 -227.686785 
L 348.92109 -226.684219 
L 347.24909 -226.461519 
L 345.577091 -227.809963 
L 343.905091 -230.229062 
L 342.233092 -232.293003 
L 340.561092 -232.645571 
L 338.889093 -230.454069 
L 337.217093 -226.329809 
L 335.545094 -221.77097 
L 333.873094 -218.326965 
L 332.201095 -216.781762 
L 330.529095 -216.790805 
L 328.857096 -217.753478 
L 327.185096 -218.47279 
L 325.513096 -218.230234 
L 323.841097 -216.604062 
L 322.169097 -213.987608 
L 320.497098 -211.051069 
L 318.825098 -209.184563 
L 317.153099 -209.243612 
L 315.481099 -211.759167 
L 313.8091 -216.10108 
L 312.1371 -221.169366 
L 310.465101 -225.849639 
L 308.793101 -229.446501 
L 307.121102 -231.911108 
L 305.449102 -234.309796 
L 303.777103 -237.38985 
L 302.105103 -241.734737 
L 300.433104 -247.372539 
L 298.761104 -253.564552 
L 297.089105 -259.318294 
L 295.417105 -263.741908 
L 293.745106 -266.651968 
L 292.073106 -267.732325 
L 290.401107 -267.479671 
L 288.729107 -266.331038 
L 287.057108 -265.183722 
L 285.385108 -264.862888 
L 283.713109 -265.55202 
L 282.041109 -267.402616 
L 280.36911 -269.631294 
L 278.69711 -271.703279 
L 277.025111 -272.481762 
L 275.353111 -271.90147 
L 273.681112 -269.998153 
L 272.009112 -267.348524 
L 270.337113 -264.888942 
L 268.665113 -263.65058 
L 266.993114 -264.000463 
L 265.321114 -265.908922 
L 263.649115 -268.545802 
L 261.977115 -271.060824 
L 260.305116 -272.107825 
L 258.633116 -271.590622 
L 256.961116 -270.282906 
L 255.289117 -269.701809 
L 253.617117 -270.760311 
L 251.945118 -274.062083 
L 250.273118 -278.784402 
L 248.601119 -283.410528 
L 246.929119 -286.501681 
L 245.25712 -287.935949 
L 243.58512 -288.849159 
L 241.913121 -291.315213 
L 240.241121 -296.820927 
L 238.569122 -305.53986 
L 236.897122 -316.270958 
L 235.225123 -327.011035 
L 233.553123 -336.059267 
L 231.881124 -343.157885 
L 230.209124 -348.646324 
L 228.537125 -353.390746 
L 226.865125 -357.848059 
L 225.193126 -361.973276 
L 223.521126 -365.370976 
L 221.849127 -367.763661 
L 220.177127 -369.119896 
L 218.505128 -370.056368 
L 216.833128 -370.729228 
L 215.161129 -371.31305 
L 213.489129 -371.53733 
L 211.81713 -371.299859 
L 210.14513 -370.651513 
L 208.473131 -369.949 
L 206.801131 -369.202202 
L 205.129132 -368.701936 
L 203.457132 -368.180772 
L 201.785133 -366.787774 
L 200.113133 -363.500543 
L 198.441134 -356.625343 
L 196.769134 -344.981089 
L 195.097135 -328.171004 
L 193.425135 -307.294881 
L 191.753136 -284.574373 
L 190.081136 -262.980756 
L 188.409137 -244.730962 
L 186.737137 -231.050086 
L 185.065137 -221.474368 
L 183.393138 -215.226412 
L 181.721138 -211.368907 
L 180.049139 -209.624072 
L 178.377139 -210.445998 
L 176.70514 -213.847808 
L 175.03314 -219.19863 
L 173.361141 -225.034035 
L 171.689141 -230.091368 
L 170.017142 -233.73811 
L 168.345142 -236.242004 
L 166.673143 -238.21232 
L 165.001143 -240.210152 
L 163.329144 -241.979829 
L 161.657144 -242.85764 
L 159.985145 -242.686866 
L 158.313145 -241.669801 
L 156.641146 -240.396528 
L 154.969146 -239.25506 
L 153.297147 -238.161897 
L 151.625147 -237.022635 
L 149.953148 -235.440058 
L 148.281148 -233.796216 
L 146.609149 -232.54333 
L 144.937149 -232.201521 
L 143.26515 -232.422632 
L 141.59315 -232.547739 
L 139.921151 -231.761119 
L 138.249151 -230.236406 
L 136.577152 -228.548842 
L 134.905152 -227.57823 
L 133.233153 -227.706677 
L 131.561153 -228.66037 
L 129.889154 -229.658799 
L 128.217154 -230.009526 
L 126.545155 -230.21293 
L 124.873155 -230.909706 
L 123.201156 -232.740939 
L 121.529156 -235.596349 
L 119.857157 -238.401162 
L 118.185157 -239.858158 
L 116.513157 -239.378319 
L 114.841158 -237.18619 
L 113.169158 -234.511143 
L 111.497159 -232.503261 
L 109.825159 -231.769203 
L 108.15316 -231.85266 
L 106.48116 -231.917928 
L 104.809161 -231.536117 
L 103.137161 -230.735338 
L 101.465162 -230.194347 
L 99.793162 -230.580156 
L 98.121163 -231.59846 
L 96.449163 -232.878333 
L 94.777164 -233.5582 
L 93.105164 -233.124366 
L 91.433165 -231.55587 
L 89.761165 -229.328686 
L 88.089166 -226.915116 
L 86.417166 -224.915322 
L 84.745167 -223.473304 
L 83.073167 -222.492693 
L 81.401168 -221.65599 
L 79.729168 -220.800256 
L 78.057169 -219.909315 
L 76.385169 -219.242899 
L 74.71317 -219.157455 
L 73.04117 -219.822053 
L 71.369171 -220.993716 
L 69.697171 -221.923897 
L 68.025172 -221.821444 
L 66.353172 -220.145432 
L 64.681173 -217.149912 
L 63.009173 -213.853951 
L 61.337174 -211.290093 
L 59.665174 -210.16627 
L 57.993175 -210.328862 
L 56.321175 -211.07346 
L 54.649176 -211.474191 
L 52.977176 -211.075322 
L 51.305177 -210.156782 
L 49.633177 -209.684277 
L 47.961178 -210.51251 
z
" style="stroke: #ff7f0e; stroke-opacity: 0.3"/>
    </defs>
    <g>
     <use xlink:href="#mfa26c334c0" x="0" y="432" style="fill: #ff7f0e; fill-opacity: 0.3; stroke: #ff7f0e; stroke-opacity: 0.3"/>
    </g>
   </g>
   <g id="line2d_19">
    <path d="M 47.961178 197.941686 
L 49.633177 193.852651 
L 51.305177 192.456289 
L 52.977176 193.16145 
L 54.649176 194.513591 
L 56.321175 195.382324 
L 57.993175 195.749412 
L 59.665174 196.730132 
L 61.337174 199.603292 
L 63.009173 204.634668 
L 64.681173 210.580787 
L 66.353172 215.136647 
L 68.025172 216.368962 
L 69.697171 214.019157 
L 71.369171 209.661427 
L 73.04117 205.734169 
L 74.71317 203.930947 
L 76.385169 204.219105 
L 78.057169 205.253799 
L 79.729168 205.786922 
L 81.401168 206.002281 
L 83.073167 207.66985 
L 84.745167 212.90201 
L 86.417166 222.265234 
L 88.089166 233.677918 
L 89.761165 243.039557 
L 91.433165 246.29672 
L 93.105164 241.764075 
L 94.777164 231.151981 
L 96.449163 218.792041 
L 98.121163 209.487313 
L 99.793162 206.287465 
L 101.465162 209.27617 
L 104.809161 222.101366 
L 106.48116 224.561033 
L 108.15316 221.631092 
L 109.825159 213.908771 
L 113.169158 194.073298 
L 114.841158 187.14762 
L 116.513157 183.892088 
L 118.185157 183.977949 
L 119.857157 186.596378 
L 121.529156 191.103705 
L 123.201156 197.199119 
L 126.545155 211.338677 
L 128.217154 215.734583 
L 129.889154 215.366736 
L 131.561153 209.511593 
L 134.905152 190.132258 
L 136.577152 183.987157 
L 138.249151 183.102681 
L 139.921151 186.108222 
L 141.59315 189.659357 
L 143.26515 190.637174 
L 144.937149 188.176251 
L 146.609149 184.034988 
L 148.281148 181.004992 
L 149.953148 180.783045 
L 151.625147 182.653449 
L 153.297147 184.16363 
L 154.969146 183.066688 
L 156.641146 179.081861 
L 158.313145 174.161695 
L 159.985145 171.001893 
L 161.657144 170.974874 
L 163.329144 173.151904 
L 165.001143 175.05473 
L 166.673143 174.639142 
L 168.345142 172.052623 
L 170.017142 169.762176 
L 171.689141 170.890949 
L 173.361141 177.014463 
L 175.03314 187.056248 
L 176.70514 197.968892 
L 178.377139 206.625829 
L 180.049139 211.567356 
L 181.721138 213.114347 
L 183.393138 212.119924 
L 185.065137 208.448663 
L 186.737137 200.446708 
L 188.409137 186.258887 
L 190.081136 165.843354 
L 193.425135 119.346222 
L 195.097135 101.901751 
L 196.769134 90.493473 
L 198.441134 82.43081 
L 200.113133 73.561497 
L 201.785133 61.447323 
L 203.457132 47.356078 
L 205.129132 35.551595 
L 206.801131 30.305446 
L 208.473131 32.759713 
L 211.81713 47.301579 
L 213.489129 50.877613 
L 215.161129 50.90748 
L 216.833128 50.71381 
L 218.505128 54.032802 
L 220.177127 61.873348 
L 221.849127 71.46982 
L 223.521126 78.129133 
L 225.193126 78.585921 
L 226.865125 73.440647 
L 228.537125 66.827968 
L 230.209124 63.752564 
L 231.881124 67.068859 
L 233.553123 75.983959 
L 235.225123 87.074589 
L 236.897122 96.77636 
L 238.569122 103.422242 
L 240.241121 107.553729 
L 241.913121 110.569704 
L 243.58512 113.172944 
L 245.25712 114.783419 
L 246.929119 114.255663 
L 248.601119 111.202735 
L 251.945118 101.699294 
L 253.617117 98.241679 
L 255.289117 96.471928 
L 256.961116 96.181683 
L 258.633116 97.395489 
L 260.305116 100.914574 
L 261.977115 107.672769 
L 263.649115 117.402472 
L 265.321114 127.8574 
L 266.993114 135.498127 
L 268.665113 137.661468 
L 270.337113 134.796741 
L 272.009112 130.903205 
L 273.681112 131.448168 
L 275.353111 139.851659 
L 278.69711 169.912303 
L 280.36911 178.178838 
L 282.041109 175.496578 
L 283.713109 164.055594 
L 285.385108 151.238153 
L 287.057108 145.330479 
L 288.729107 150.460912 
L 290.401107 164.198439 
L 292.073106 179.214388 
L 293.745106 187.957134 
L 295.417105 187.213176 
L 298.761104 171.506471 
L 300.433104 168.851995 
L 302.105103 173.798945 
L 303.777103 184.169157 
L 305.449102 195.619187 
L 307.121102 204.52262 
L 308.793101 209.702366 
L 310.465101 212.047063 
L 312.1371 212.922839 
L 313.8091 212.854508 
L 315.481099 211.353073 
L 317.153099 207.79386 
L 318.825098 202.171264 
L 323.841097 181.026787 
L 325.513096 174.870258 
L 327.185096 169.773621 
L 328.857096 166.013395 
L 330.529095 163.462833 
L 332.201095 161.210417 
L 333.873094 157.707633 
L 335.545094 151.758776 
L 338.889093 135.592611 
L 340.561092 130.17411 
L 342.233092 128.79589 
L 343.905091 130.213931 
L 345.577091 131.145999 
L 347.24909 128.570361 
L 348.92109 122.116128 
L 350.593089 114.64537 
L 352.265089 110.524374 
L 353.937088 112.65328 
L 355.609088 120.366427 
L 357.281087 129.778346 
L 358.953087 136.391399 
L 360.625086 138.027826 
L 363.969085 134.036341 
L 365.641085 134.9802 
L 367.313084 139.108041 
L 368.985084 143.841264 
L 370.657083 145.887096 
L 372.329083 143.698784 
L 375.673082 133.89208 
L 377.345081 132.096194 
L 379.017081 133.27744 
L 380.68908 134.782287 
L 382.36108 133.243593 
L 384.033079 127.108263 
L 385.705079 118.046572 
L 387.377078 110.07339 
L 389.049078 107.086559 
L 390.721077 110.290073 
L 392.393077 117.294829 
L 394.065076 123.537296 
L 395.737076 125.130515 
L 397.409076 121.13584 
L 399.081075 114.040381 
L 400.753075 108.083727 
L 402.425074 106.687581 
L 404.097074 110.615464 
L 407.441073 125.710705 
L 409.113072 131.66428 
L 410.785072 135.37777 
L 415.80107 142.802035 
L 417.47307 145.627727 
L 419.145069 147.878215 
L 420.817069 148.907622 
L 422.489068 148.311226 
L 424.161068 145.937489 
L 425.833067 142.028478 
L 427.505067 137.535035 
L 429.177066 134.133801 
L 430.849066 133.64228 
L 432.521065 136.922188 
L 435.865064 149.165162 
L 437.537064 152.812605 
L 439.209063 152.959563 
L 440.881063 151.219711 
L 442.553062 150.692852 
L 444.225062 153.772746 
L 445.897061 160.350349 
L 447.569061 167.83099 
L 449.24106 172.965021 
L 450.91306 174.156236 
L 452.585059 172.472398 
L 454.257059 170.586839 
L 455.929058 170.617737 
L 457.601058 172.694603 
L 459.273057 175.137057 
L 460.945057 176.071668 
L 462.617056 175.055895 
L 464.289056 173.372056 
L 465.961055 172.767732 
L 467.633055 174.000795 
L 469.305055 176.322416 
L 470.977054 178.319786 
L 474.321053 180.393177 
L 475.993053 182.866336 
L 477.665052 187.555242 
L 479.337052 193.426813 
L 481.009051 198.150374 
L 482.681051 199.673251 
L 484.35305 197.728368 
L 486.02505 193.992387 
L 487.697049 190.826954 
L 489.369049 189.562393 
L 491.041048 189.658856 
L 492.713048 189.470816 
L 494.385047 187.890412 
L 496.057047 185.526589 
L 497.729046 184.432792 
L 499.401046 186.57912 
L 501.073045 192.141711 
L 502.745045 199.035228 
L 504.417044 204.130287 
L 506.089044 205.344731 
L 507.761043 203.0454 
L 509.433043 199.820967 
L 511.105042 198.59112 
L 512.777042 200.536104 
L 514.449041 204.281589 
L 516.121041 206.882003 
L 517.79304 205.987497 
L 519.46504 201.558614 
L 521.137039 195.822799 
L 522.809039 191.735097 
L 524.481038 190.954919 
L 526.153038 192.920136 
L 527.825037 195.605638 
L 529.497037 197.284922 
L 531.169036 197.735155 
L 532.841036 197.994443 
L 534.513035 198.990329 
L 536.185035 200.283676 
L 537.857035 200.163346 
L 539.529034 197.085921 
L 541.201034 191.127494 
L 542.873033 184.185199 
L 544.545033 178.543021 
L 546.217032 174.955017 
L 547.889032 172.000316 
L 549.561031 167.387713 
L 552.90503 153.112421 
L 554.57703 149.849793 
L 556.249029 153.602179 
L 559.593028 173.708681 
L 561.265028 177.775802 
L 561.265028 177.775802 
" style="fill: none; stroke: #1f77b4; stroke-width: 1.5; stroke-linecap: square"/>
   </g>
   <g id="line2d_20">
    <path d="M 47.961178 223.75484 
L 49.633177 224.496728 
L 51.305177 223.95535 
L 52.977176 223.040016 
L 54.649176 222.636406 
L 56.321175 223.047691 
L 57.993175 223.792194 
L 59.665174 223.952655 
L 61.337174 222.757277 
L 63.009173 220.108452 
L 64.681173 216.720734 
L 66.353172 213.705929 
L 68.025172 211.980025 
L 69.697171 211.805095 
L 71.369171 212.724538 
L 73.04117 213.916691 
L 74.71317 214.645231 
L 76.385169 214.600066 
L 78.057169 213.933029 
L 84.745167 210.207981 
L 86.417166 208.707858 
L 88.089166 206.630904 
L 91.433165 201.906441 
L 93.105164 200.392982 
L 94.777164 200.043569 
L 96.449163 200.779086 
L 98.121163 202.048699 
L 99.793162 203.10119 
L 101.465162 203.400361 
L 103.137161 202.958584 
L 104.809161 202.258459 
L 106.48116 201.84463 
L 109.825159 201.834651 
L 111.497159 201.077995 
L 113.169158 199.204713 
L 114.841158 196.626187 
L 116.513157 194.468834 
L 118.185157 193.872368 
L 119.857157 195.260314 
L 123.201156 200.919034 
L 124.873155 202.922901 
L 126.545155 203.805934 
L 128.217154 204.138291 
L 129.889154 204.658231 
L 133.233153 206.513655 
L 134.905152 206.657601 
L 136.577152 205.695919 
L 138.249151 204.047069 
L 139.921151 202.554947 
L 141.59315 201.881883 
L 144.937149 202.153577 
L 146.609149 201.746008 
L 148.281148 200.546375 
L 151.625147 197.476923 
L 153.297147 196.366466 
L 154.969146 195.399499 
L 156.641146 194.248719 
L 158.313145 192.930346 
L 159.985145 191.910871 
L 161.657144 191.755582 
L 163.329144 192.676213 
L 165.001143 194.352208 
L 168.345142 198.232182 
L 170.017142 200.699767 
L 171.689141 204.358016 
L 173.361141 209.473 
L 175.03314 215.410725 
L 176.70514 220.808395 
L 178.377139 224.264564 
L 180.049139 225.07037 
L 181.721138 223.314562 
L 183.393138 219.343454 
L 185.065137 213.048739 
L 186.737137 203.589789 
L 188.409137 189.922489 
L 190.081136 171.723992 
L 195.097135 106.475198 
L 196.769134 89.741953 
L 198.441134 78.137742 
L 200.113133 71.269173 
L 201.785133 67.88307 
L 203.457132 66.505983 
L 208.473131 64.795713 
L 210.14513 64.077964 
L 211.81713 63.54507 
L 213.489129 63.406281 
L 215.161129 63.668764 
L 216.833128 64.179205 
L 218.505128 64.813994 
L 220.177127 65.667737 
L 221.849127 67.094913 
L 223.521126 69.471431 
L 225.193126 72.889114 
L 226.865125 77.056205 
L 230.209124 86.280126 
L 231.881124 91.718386 
L 233.553123 98.69995 
L 235.225123 107.74051 
L 238.569122 129.018486 
L 240.241121 137.761777 
L 241.913121 143.308766 
L 243.58512 145.813724 
L 245.25712 146.801413 
L 246.929119 148.239121 
L 248.601119 151.36081 
L 251.945118 160.795601 
L 253.617117 164.183098 
L 255.289117 165.339725 
L 256.961116 164.65788 
L 258.633116 163.421322 
L 260.305116 162.995716 
L 261.977115 164.088645 
L 263.649115 166.437707 
L 265.321114 169.085337 
L 266.993114 170.934025 
L 268.665113 171.255058 
L 270.337113 169.964774 
L 272.009112 167.574466 
L 273.681112 164.962514 
L 275.353111 163.05872 
L 277.025111 162.498432 
L 278.69711 163.418681 
L 280.36911 165.418611 
L 282.041109 167.721405 
L 283.713109 169.498432 
L 285.385108 170.215317 
L 287.057108 169.835134 
L 290.401107 167.742264 
L 292.073106 167.462058 
L 293.745106 168.525785 
L 295.417105 171.29112 
L 297.089105 175.761185 
L 298.761104 181.508556 
L 300.433104 187.719141 
L 302.105103 193.401563 
L 303.777103 197.808259 
L 305.449102 200.826106 
L 307.121102 203.056561 
L 308.793101 205.530078 
L 310.465101 209.074383 
L 312.1371 213.809964 
L 313.8091 218.995738 
L 315.481099 223.370154 
L 317.153099 225.817415 
L 318.825098 225.9041 
L 320.497098 224.03624 
L 323.841097 218.571065 
L 325.513096 216.949946 
L 327.185096 216.664964 
L 328.857096 217.41761 
L 330.529095 218.384838 
L 332.201095 218.488487 
L 333.873094 216.886652 
L 335.545094 213.436377 
L 337.217093 208.943636 
L 338.889093 204.895503 
L 340.561092 202.719803 
L 342.233092 202.981181 
L 343.905091 205.03017 
L 345.577091 207.405039 
L 347.24909 208.754737 
L 348.92109 208.624382 
L 350.593089 207.618483 
L 352.265089 206.820557 
L 353.937088 206.941482 
L 357.281087 208.78511 
L 358.953087 209.063859 
L 360.625086 208.621539 
L 362.297086 208.013596 
L 363.969085 207.928555 
L 365.641085 208.633806 
L 367.313084 209.791473 
L 368.985084 210.756676 
L 370.657083 211.024117 
L 372.329083 210.478268 
L 374.001082 209.289461 
L 375.673082 207.633691 
L 377.345081 205.549986 
L 379.017081 203.049105 
L 382.36108 197.651518 
L 384.033079 195.458781 
L 385.705079 193.847016 
L 387.377078 192.674439 
L 389.049078 191.751071 
L 390.721077 191.073026 
L 392.393077 190.85149 
L 394.065076 191.288321 
L 395.737076 192.315474 
L 397.409076 193.540983 
L 399.081075 194.496407 
L 400.753075 194.918024 
L 402.425074 194.838168 
L 404.097074 194.389172 
L 405.769073 193.509646 
L 407.441073 191.969879 
L 409.113072 189.708755 
L 410.785072 187.201708 
L 412.457071 185.406751 
L 414.129071 185.208414 
L 415.80107 186.652631 
L 417.47307 188.67157 
L 419.145069 189.606805 
L 420.817069 188.219792 
L 422.489068 184.568359 
L 424.161068 179.994521 
L 425.833067 176.244239 
L 427.505067 174.346436 
L 429.177066 174.06679 
L 430.849066 174.351875 
L 432.521065 174.331922 
L 434.193065 174.025585 
L 435.865064 174.200789 
L 437.537064 175.553578 
L 439.209063 177.862826 
L 440.881063 179.912881 
L 442.553062 180.288096 
L 444.225062 178.481152 
L 445.897061 175.4034 
L 447.569061 172.808237 
L 449.24106 172.094541 
L 450.91306 173.220828 
L 452.585059 174.655524 
L 454.257059 174.415634 
L 455.929058 171.445746 
L 459.273057 161.403268 
L 460.945057 158.443323 
L 462.617056 158.32105 
L 464.289056 160.036838 
L 465.961055 161.591314 
L 467.633055 161.379504 
L 469.305055 159.22481 
L 470.977054 156.373258 
L 472.649054 154.460477 
L 474.321053 154.239444 
L 475.993053 155.074223 
L 477.665052 155.476791 
L 479.337052 154.381356 
L 481.009051 152.1039 
L 482.681051 150.226835 
L 484.35305 150.455694 
L 486.02505 153.225795 
L 487.697049 157.192645 
L 489.369049 159.990259 
L 491.041048 159.807397 
L 492.713048 156.6708 
L 494.385047 152.455751 
L 496.057047 149.644536 
L 497.729046 149.695177 
L 499.401046 152.142413 
L 501.073045 155.119865 
L 502.745045 156.782962 
L 504.417044 156.628075 
L 506.089044 155.712072 
L 507.761043 155.670639 
L 509.433043 157.379352 
L 511.105042 160.262203 
L 512.777042 162.766764 
L 514.449041 163.597324 
L 516.121041 162.683474 
L 517.79304 161.205182 
L 519.46504 160.623228 
L 521.137039 161.539243 
L 522.809039 163.222902 
L 524.481038 164.186371 
L 526.153038 163.331399 
L 527.825037 160.83957 
L 529.497037 158.113677 
L 531.169036 156.837809 
L 532.841036 157.848611 
L 534.513035 160.603399 
L 536.185035 163.58556 
L 537.857035 165.29412 
L 539.529034 165.1666 
L 542.873033 162.462511 
L 544.545033 162.217087 
L 546.217032 163.309032 
L 547.889032 165.138234 
L 549.561031 166.742834 
L 551.233031 167.456098 
L 552.90503 167.304843 
L 554.57703 166.918209 
L 556.249029 167.071103 
L 557.921029 168.161218 
L 561.265028 171.569398 
L 561.265028 171.569398 
" style="fill: none; stroke: #ff7f0e; stroke-width: 1.5; stroke-linecap: square"/>
   </g>
  </g>
  <g id="axes_2">
   <g id="PathCollection_1">
    <defs>
     <path id="C0_0_24e7e04ea8" d="M 0 1.118034 
C 0.296506 1.118034 0.580908 1.000231 0.790569 0.790569 
C 1.000231 0.580908 1.118034 0.296506 1.118034 -0 
C 1.118034 -0.296506 1.000231 -0.580908 0.790569 -0.790569 
C 0.580908 -1.000231 0.296506 -1.118034 0 -1.118034 
C -0.296506 -1.118034 -0.580908 -1.000231 -0.790569 -0.790569 
C -1.000231 -0.580908 -1.118034 -0.296506 -1.118034 0 
C -1.118034 0.296506 -1.000231 0.580908 -0.790569 0.790569 
C -0.580908 1.000231 -0.296506 1.118034 0 1.118034 
z
"/>
    </defs>
    <g clip-path="url(#pfac88f9e23)">
     <use xlink:href="#C0_0_24e7e04ea8" x="483.618697" y="47.306771" style="stroke: #000000"/>
    </g>
    <g clip-path="url(#pfac88f9e23)">
     <use xlink:href="#C0_0_24e7e04ea8" x="493.76288" y="47.294419" style="stroke: #000000"/>
    </g>
   </g>
   <g id="matplotlib.axis_3"/>
   <g id="matplotlib.axis_4"/>
   <g id="line2d_21">
    <path d="M 548.861908 73.635719 
L 548.784248 71.164526 
L 548.551573 68.703086 
L 548.164802 66.261113 
L 547.625462 63.848244 
L 546.935681 61.474002 
L 546.098181 59.147756 
L 545.116268 56.878688 
L 543.993816 54.675752 
L 542.735255 52.547643 
L 541.345553 50.502758 
L 539.830194 48.549169 
L 538.195158 46.694585 
L 536.446899 44.946325 
L 534.592314 43.311289 
L 532.638725 41.79593 
L 530.593841 40.406228 
L 528.465731 39.147667 
L 526.262795 38.025216 
L 523.993727 37.043302 
L 521.667482 36.205802 
L 519.293239 35.516021 
L 516.88037 34.976681 
L 514.438397 34.58991 
L 511.976957 34.357236 
L 509.505764 34.279575 
L 507.034572 34.357236 
L 504.573132 34.58991 
L 502.131159 34.976681 
L 499.71829 35.516021 
L 497.344047 36.205802 
L 495.017802 37.043302 
L 492.748734 38.025216 
L 490.545798 39.147667 
L 488.417688 40.406228 
L 486.372804 41.79593 
L 484.419214 43.311289 
L 482.56463 44.946325 
L 480.816371 46.694585 
L 479.181335 48.549169 
L 477.665976 50.502758 
L 476.276273 52.547643 
L 475.017713 54.675752 
L 473.895261 56.878688 
L 472.913348 59.147756 
L 472.075848 61.474002 
L 471.386067 63.848244 
L 470.846726 66.261113 
L 470.459956 68.703086 
L 470.227281 71.164526 
L 470.149621 73.635719 
L 470.227281 76.106912 
L 470.459956 78.568352 
L 470.846726 81.010325 
L 471.386067 83.423194 
L 472.075848 85.797436 
L 472.913348 88.123682 
L 473.895261 90.39275 
L 475.017713 92.595686 
L 476.276273 94.723795 
L 477.665976 96.76868 
L 479.181335 98.722269 
L 480.816371 100.576853 
L 482.56463 102.325113 
L 484.419214 103.960149 
L 486.372804 105.475508 
L 488.417688 106.86521 
L 490.545798 108.12377 
L 492.748734 109.246222 
L 495.017802 110.228136 
L 497.344047 111.065636 
L 499.71829 111.755417 
L 502.131159 112.294757 
L 504.573132 112.681527 
L 507.034572 112.914202 
L 509.505764 112.991862 
L 511.976957 112.914202 
L 514.438397 112.681527 
L 516.88037 112.294757 
L 519.293239 111.755417 
L 521.667482 111.065636 
L 523.993727 110.228136 
L 526.262795 109.246222 
L 528.465731 108.12377 
L 530.593841 106.86521 
L 532.638725 105.475508 
L 534.592314 103.960149 
L 536.446899 102.325113 
L 538.195158 100.576853 
L 539.830194 98.722269 
L 541.345553 96.76868 
L 542.735255 94.723795 
L 543.993816 92.595686 
L 545.116268 90.39275 
L 546.098181 88.123682 
L 546.935681 85.797436 
L 547.625462 83.423194 
L 548.164802 81.010325 
L 548.551573 78.568352 
L 548.784248 76.106912 
L 548.861908 73.635719 
" style="fill: none; stroke: #000000; stroke-linecap: square"/>
   </g>
   <g id="line2d_22">
    <path d="M 501.263033 35.152431 
L 509.505764 28.376154 
L 517.748496 35.152431 
" style="fill: none; stroke: #000000; stroke-linecap: square"/>
   </g>
   <g id="line2d_23">
    <path d="M 470.385758 69.267187 
L 469.362498 67.535517 
L 468.7328 67.472547 
L 467.796124 67.763782 
L 466.851576 69.267187 
L 467.001129 74.068636 
L 466.450143 80.971704 
L 467.630828 83.970642 
L 469.362498 84.529499 
L 471.015456 83.073322 
" style="fill: none; stroke: #000000; stroke-linecap: square"/>
   </g>
   <g id="line2d_24">
    <path d="M 548.625771 69.267187 
L 549.649031 67.535517 
L 550.278729 67.472547 
L 551.215405 67.763782 
L 552.159953 69.267187 
L 552.010399 74.068636 
L 552.561385 80.971704 
L 551.380701 83.970642 
L 549.649031 84.529499 
L 547.996073 83.073322 
" style="fill: none; stroke: #000000; stroke-linecap: square"/>
   </g>
  </g>
 </g>
 <defs>
  <clipPath id="pf4706f705e">
   <rect x="47.961178" y="18.118365" width="513.90577" height="380.525145"/>
  </clipPath>
  <clipPath id="pfac88f9e23">
   <rect x="462.144581" y="24.145368" width="94.722366" height="93.077279"/>
  </clipPath>
 </defs>
</svg>
