<?xml version="1.0" encoding="utf-8" standalone="no"?>
<!DOCTYPE svg PUBLIC "-//W3C//DTD SVG 1.1//EN"
  "http://www.w3.org/Graphics/SVG/1.1/DTD/svg11.dtd">
<svg xmlns:xlink="http://www.w3.org/1999/xlink" width="576pt" height="432pt" viewBox="0 0 576 432" xmlns="http://www.w3.org/2000/svg" version="1.1">
 <metadata>
  <rdf:RDF xmlns:dc="http://purl.org/dc/elements/1.1/" xmlns:cc="http://creativecommons.org/ns#" xmlns:rdf="http://www.w3.org/1999/02/22-rdf-syntax-ns#">
   <cc:Work>
    <dc:type rdf:resource="http://purl.org/dc/dcmitype/StillImage"/>
    <dc:date>2025-02-17T18:06:05.274303</dc:date>
    <dc:format>image/svg+xml</dc:format>
    <dc:creator>
     <cc:Agent>
      <dc:title>Matplotlib v3.10.0, https://matplotlib.org/</dc:title>
     </cc:Agent>
    </dc:creator>
   </cc:Work>
  </rdf:RDF>
 </metadata>
 <defs>
  <style type="text/css">*{stroke-linejoin: round; stroke-linecap: butt}</style>
 </defs>
 <g id="figure_1">
  <g id="patch_1">
   <path d="M 0 432 
L 576 432 
L 576 0 
L 0 0 
z
" style="fill: #ffffff"/>
  </g>
  <g id="axes_1">
   <g id="patch_2">
    <path d="M 38.420552 398.64351 
L 561.866948 398.64351 
L 561.866948 18.118365 
L 38.420552 18.118365 
L 38.420552 398.64351 
z
" style="fill: none; opacity: 0"/>
   </g>
   <g id="patch_3">
    <path d="M 38.420552 383.712423 
L 38.420552 33.049452 
" style="fill: none; stroke: #000000; stroke-width: 0.8; stroke-linejoin: miter; stroke-linecap: square"/>
   </g>
   <g id="LineCollection_1">
    <path d="M 156.407168 18.118365 
L 156.407168 398.64351 
" clip-path="url(#p3dac9e1cba)" style="fill: none; stroke-dasharray: 3.7,1.6; stroke-dashoffset: 0; stroke: #000000"/>
    <path d="M 195.645211 18.118365 
L 195.645211 398.64351 
" clip-path="url(#p3dac9e1cba)" style="fill: none; stroke-dasharray: 3.7,1.6; stroke-dashoffset: 0; stroke: #000000"/>
   </g>
   <g id="matplotlib.axis_1">
    <g id="xtick_1">
     <g id="line2d_1">
      <defs>
       <path id="m33069022d7" d="M 0 0 
L 0 3.5 
" style="stroke: #000000; stroke-width: 0.8"/>
      </defs>
      <g>
       <use xlink:href="#m33069022d7" x="38.693039" y="398.64351" style="stroke: #000000; stroke-width: 0.8"/>
      </g>
     </g>
     <g id="text_1">
      <!-- −0.20 -->
      <g transform="translate(23.370383 413.241947) scale(0.1 -0.1)">
       <defs>
        <path id="DejaVuSans-2212" d="M 678 2272 
L 4684 2272 
L 4684 1741 
L 678 1741 
L 678 2272 
z
" transform="scale(0.015625)"/>
        <path id="DejaVuSans-30" d="M 2034 4250 
Q 1547 4250 1301 3770 
Q 1056 3291 1056 2328 
Q 1056 1369 1301 889 
Q 1547 409 2034 409 
Q 2525 409 2770 889 
Q 3016 1369 3016 2328 
Q 3016 3291 2770 3770 
Q 2525 4250 2034 4250 
z
M 2034 4750 
Q 2819 4750 3233 4129 
Q 3647 3509 3647 2328 
Q 3647 1150 3233 529 
Q 2819 -91 2034 -91 
Q 1250 -91 836 529 
Q 422 1150 422 2328 
Q 422 3509 836 4129 
Q 1250 4750 2034 4750 
z
" transform="scale(0.015625)"/>
        <path id="DejaVuSans-2e" d="M 684 794 
L 1344 794 
L 1344 0 
L 684 0 
L 684 794 
z
" transform="scale(0.015625)"/>
        <path id="DejaVuSans-32" d="M 1228 531 
L 3431 531 
L 3431 0 
L 469 0 
L 469 531 
Q 828 903 1448 1529 
Q 2069 2156 2228 2338 
Q 2531 2678 2651 2914 
Q 2772 3150 2772 3378 
Q 2772 3750 2511 3984 
Q 2250 4219 1831 4219 
Q 1534 4219 1204 4116 
Q 875 4013 500 3803 
L 500 4441 
Q 881 4594 1212 4672 
Q 1544 4750 1819 4750 
Q 2544 4750 2975 4387 
Q 3406 4025 3406 3419 
Q 3406 3131 3298 2873 
Q 3191 2616 2906 2266 
Q 2828 2175 2409 1742 
Q 1991 1309 1228 531 
z
" transform="scale(0.015625)"/>
       </defs>
       <use xlink:href="#DejaVuSans-2212"/>
       <use xlink:href="#DejaVuSans-30" transform="translate(83.789062 0)"/>
       <use xlink:href="#DejaVuSans-2e" transform="translate(147.412109 0)"/>
       <use xlink:href="#DejaVuSans-32" transform="translate(179.199219 0)"/>
       <use xlink:href="#DejaVuSans-30" transform="translate(242.822266 0)"/>
      </g>
     </g>
    </g>
    <g id="xtick_2">
     <g id="line2d_2">
      <g>
       <use xlink:href="#m33069022d7" x="125.88869" y="398.64351" style="stroke: #000000; stroke-width: 0.8"/>
      </g>
     </g>
     <g id="text_2">
      <!-- 0.00 -->
      <g transform="translate(114.755878 413.241947) scale(0.1 -0.1)">
       <use xlink:href="#DejaVuSans-30"/>
       <use xlink:href="#DejaVuSans-2e" transform="translate(63.623047 0)"/>
       <use xlink:href="#DejaVuSans-30" transform="translate(95.410156 0)"/>
       <use xlink:href="#DejaVuSans-30" transform="translate(159.033203 0)"/>
      </g>
     </g>
    </g>
    <g id="xtick_3">
     <g id="line2d_3">
      <g>
       <use xlink:href="#m33069022d7" x="156.407168" y="398.64351" style="stroke: #000000; stroke-width: 0.8"/>
      </g>
     </g>
     <g id="text_3">
      <!-- 0.07 -->
      <g transform="translate(145.274356 413.241947) scale(0.1 -0.1)">
       <defs>
        <path id="DejaVuSans-37" d="M 525 4666 
L 3525 4666 
L 3525 4397 
L 1831 0 
L 1172 0 
L 2766 4134 
L 525 4134 
L 525 4666 
z
" transform="scale(0.015625)"/>
       </defs>
       <use xlink:href="#DejaVuSans-30"/>
       <use xlink:href="#DejaVuSans-2e" transform="translate(63.623047 0)"/>
       <use xlink:href="#DejaVuSans-30" transform="translate(95.410156 0)"/>
       <use xlink:href="#DejaVuSans-37" transform="translate(159.033203 0)"/>
      </g>
     </g>
    </g>
    <g id="xtick_4">
     <g id="line2d_4">
      <g>
       <use xlink:href="#m33069022d7" x="195.645211" y="398.64351" style="stroke: #000000; stroke-width: 0.8"/>
      </g>
     </g>
     <g id="text_4">
      <!-- 0.16 -->
      <g transform="translate(184.512399 413.241947) scale(0.1 -0.1)">
       <defs>
        <path id="DejaVuSans-31" d="M 794 531 
L 1825 531 
L 1825 4091 
L 703 3866 
L 703 4441 
L 1819 4666 
L 2450 4666 
L 2450 531 
L 3481 531 
L 3481 0 
L 794 0 
L 794 531 
z
" transform="scale(0.015625)"/>
        <path id="DejaVuSans-36" d="M 2113 2584 
Q 1688 2584 1439 2293 
Q 1191 2003 1191 1497 
Q 1191 994 1439 701 
Q 1688 409 2113 409 
Q 2538 409 2786 701 
Q 3034 994 3034 1497 
Q 3034 2003 2786 2293 
Q 2538 2584 2113 2584 
z
M 3366 4563 
L 3366 3988 
Q 3128 4100 2886 4159 
Q 2644 4219 2406 4219 
Q 1781 4219 1451 3797 
Q 1122 3375 1075 2522 
Q 1259 2794 1537 2939 
Q 1816 3084 2150 3084 
Q 2853 3084 3261 2657 
Q 3669 2231 3669 1497 
Q 3669 778 3244 343 
Q 2819 -91 2113 -91 
Q 1303 -91 875 529 
Q 447 1150 447 2328 
Q 447 3434 972 4092 
Q 1497 4750 2381 4750 
Q 2619 4750 2861 4703 
Q 3103 4656 3366 4563 
z
" transform="scale(0.015625)"/>
       </defs>
       <use xlink:href="#DejaVuSans-30"/>
       <use xlink:href="#DejaVuSans-2e" transform="translate(63.623047 0)"/>
       <use xlink:href="#DejaVuSans-31" transform="translate(95.410156 0)"/>
       <use xlink:href="#DejaVuSans-36" transform="translate(159.033203 0)"/>
      </g>
     </g>
    </g>
    <g id="xtick_5">
     <g id="line2d_5">
      <g>
       <use xlink:href="#m33069022d7" x="213.084342" y="398.64351" style="stroke: #000000; stroke-width: 0.8"/>
      </g>
     </g>
     <g id="text_5">
      <!-- 0.20 -->
      <g transform="translate(201.951529 413.241947) scale(0.1 -0.1)">
       <use xlink:href="#DejaVuSans-30"/>
       <use xlink:href="#DejaVuSans-2e" transform="translate(63.623047 0)"/>
       <use xlink:href="#DejaVuSans-32" transform="translate(95.410156 0)"/>
       <use xlink:href="#DejaVuSans-30" transform="translate(159.033203 0)"/>
      </g>
     </g>
    </g>
    <g id="xtick_6">
     <g id="line2d_6">
      <g>
       <use xlink:href="#m33069022d7" x="300.279993" y="398.64351" style="stroke: #000000; stroke-width: 0.8"/>
      </g>
     </g>
     <g id="text_6">
      <!-- 0.40 -->
      <g transform="translate(289.147181 413.241947) scale(0.1 -0.1)">
       <defs>
        <path id="DejaVuSans-34" d="M 2419 4116 
L 825 1625 
L 2419 1625 
L 2419 4116 
z
M 2253 4666 
L 3047 4666 
L 3047 1625 
L 3713 1625 
L 3713 1100 
L 3047 1100 
L 3047 0 
L 2419 0 
L 2419 1100 
L 313 1100 
L 313 1709 
L 2253 4666 
z
" transform="scale(0.015625)"/>
       </defs>
       <use xlink:href="#DejaVuSans-30"/>
       <use xlink:href="#DejaVuSans-2e" transform="translate(63.623047 0)"/>
       <use xlink:href="#DejaVuSans-34" transform="translate(95.410156 0)"/>
       <use xlink:href="#DejaVuSans-30" transform="translate(159.033203 0)"/>
      </g>
     </g>
    </g>
    <g id="xtick_7">
     <g id="line2d_7">
      <g>
       <use xlink:href="#m33069022d7" x="387.475645" y="398.64351" style="stroke: #000000; stroke-width: 0.8"/>
      </g>
     </g>
     <g id="text_7">
      <!-- 0.60 -->
      <g transform="translate(376.342832 413.241947) scale(0.1 -0.1)">
       <use xlink:href="#DejaVuSans-30"/>
       <use xlink:href="#DejaVuSans-2e" transform="translate(63.623047 0)"/>
       <use xlink:href="#DejaVuSans-36" transform="translate(95.410156 0)"/>
       <use xlink:href="#DejaVuSans-30" transform="translate(159.033203 0)"/>
      </g>
     </g>
    </g>
    <g id="xtick_8">
     <g id="line2d_8">
      <g>
       <use xlink:href="#m33069022d7" x="474.671296" y="398.64351" style="stroke: #000000; stroke-width: 0.8"/>
      </g>
     </g>
     <g id="text_8">
      <!-- 0.80 -->
      <g transform="translate(463.538484 413.241947) scale(0.1 -0.1)">
       <defs>
        <path id="DejaVuSans-38" d="M 2034 2216 
Q 1584 2216 1326 1975 
Q 1069 1734 1069 1313 
Q 1069 891 1326 650 
Q 1584 409 2034 409 
Q 2484 409 2743 651 
Q 3003 894 3003 1313 
Q 3003 1734 2745 1975 
Q 2488 2216 2034 2216 
z
M 1403 2484 
Q 997 2584 770 2862 
Q 544 3141 544 3541 
Q 544 4100 942 4425 
Q 1341 4750 2034 4750 
Q 2731 4750 3128 4425 
Q 3525 4100 3525 3541 
Q 3525 3141 3298 2862 
Q 3072 2584 2669 2484 
Q 3125 2378 3379 2068 
Q 3634 1759 3634 1313 
Q 3634 634 3220 271 
Q 2806 -91 2034 -91 
Q 1263 -91 848 271 
Q 434 634 434 1313 
Q 434 1759 690 2068 
Q 947 2378 1403 2484 
z
M 1172 3481 
Q 1172 3119 1398 2916 
Q 1625 2713 2034 2713 
Q 2441 2713 2670 2916 
Q 2900 3119 2900 3481 
Q 2900 3844 2670 4047 
Q 2441 4250 2034 4250 
Q 1625 4250 1398 4047 
Q 1172 3844 1172 3481 
z
" transform="scale(0.015625)"/>
       </defs>
       <use xlink:href="#DejaVuSans-30"/>
       <use xlink:href="#DejaVuSans-2e" transform="translate(63.623047 0)"/>
       <use xlink:href="#DejaVuSans-38" transform="translate(95.410156 0)"/>
       <use xlink:href="#DejaVuSans-30" transform="translate(159.033203 0)"/>
      </g>
     </g>
    </g>
    <g id="xtick_9">
     <g id="line2d_9">
      <g>
       <use xlink:href="#m33069022d7" x="561.866948" y="398.64351" style="stroke: #000000; stroke-width: 0.8"/>
      </g>
     </g>
     <g id="text_9">
      <!-- 1.00 -->
      <g transform="translate(550.734135 413.241947) scale(0.1 -0.1)">
       <use xlink:href="#DejaVuSans-31"/>
       <use xlink:href="#DejaVuSans-2e" transform="translate(63.623047 0)"/>
       <use xlink:href="#DejaVuSans-30" transform="translate(95.410156 0)"/>
       <use xlink:href="#DejaVuSans-30" transform="translate(159.033203 0)"/>
      </g>
     </g>
    </g>
    <g id="text_10">
     <!-- Time (s) -->
     <g transform="translate(279.814844 426.920073) scale(0.1 -0.1)">
      <defs>
       <path id="DejaVuSans-54" d="M -19 4666 
L 3928 4666 
L 3928 4134 
L 2272 4134 
L 2272 0 
L 1638 0 
L 1638 4134 
L -19 4134 
L -19 4666 
z
" transform="scale(0.015625)"/>
       <path id="DejaVuSans-69" d="M 603 3500 
L 1178 3500 
L 1178 0 
L 603 0 
L 603 3500 
z
M 603 4863 
L 1178 4863 
L 1178 4134 
L 603 4134 
L 603 4863 
z
" transform="scale(0.015625)"/>
       <path id="DejaVuSans-6d" d="M 3328 2828 
Q 3544 3216 3844 3400 
Q 4144 3584 4550 3584 
Q 5097 3584 5394 3201 
Q 5691 2819 5691 2113 
L 5691 0 
L 5113 0 
L 5113 2094 
Q 5113 2597 4934 2840 
Q 4756 3084 4391 3084 
Q 3944 3084 3684 2787 
Q 3425 2491 3425 1978 
L 3425 0 
L 2847 0 
L 2847 2094 
Q 2847 2600 2669 2842 
Q 2491 3084 2119 3084 
Q 1678 3084 1418 2786 
Q 1159 2488 1159 1978 
L 1159 0 
L 581 0 
L 581 3500 
L 1159 3500 
L 1159 2956 
Q 1356 3278 1631 3431 
Q 1906 3584 2284 3584 
Q 2666 3584 2933 3390 
Q 3200 3197 3328 2828 
z
" transform="scale(0.015625)"/>
       <path id="DejaVuSans-65" d="M 3597 1894 
L 3597 1613 
L 953 1613 
Q 991 1019 1311 708 
Q 1631 397 2203 397 
Q 2534 397 2845 478 
Q 3156 559 3463 722 
L 3463 178 
Q 3153 47 2828 -22 
Q 2503 -91 2169 -91 
Q 1331 -91 842 396 
Q 353 884 353 1716 
Q 353 2575 817 3079 
Q 1281 3584 2069 3584 
Q 2775 3584 3186 3129 
Q 3597 2675 3597 1894 
z
M 3022 2063 
Q 3016 2534 2758 2815 
Q 2500 3097 2075 3097 
Q 1594 3097 1305 2825 
Q 1016 2553 972 2059 
L 3022 2063 
z
" transform="scale(0.015625)"/>
       <path id="DejaVuSans-20" transform="scale(0.015625)"/>
       <path id="DejaVuSans-28" d="M 1984 4856 
Q 1566 4138 1362 3434 
Q 1159 2731 1159 2009 
Q 1159 1288 1364 580 
Q 1569 -128 1984 -844 
L 1484 -844 
Q 1016 -109 783 600 
Q 550 1309 550 2009 
Q 550 2706 781 3412 
Q 1013 4119 1484 4856 
L 1984 4856 
z
" transform="scale(0.015625)"/>
       <path id="DejaVuSans-73" d="M 2834 3397 
L 2834 2853 
Q 2591 2978 2328 3040 
Q 2066 3103 1784 3103 
Q 1356 3103 1142 2972 
Q 928 2841 928 2578 
Q 928 2378 1081 2264 
Q 1234 2150 1697 2047 
L 1894 2003 
Q 2506 1872 2764 1633 
Q 3022 1394 3022 966 
Q 3022 478 2636 193 
Q 2250 -91 1575 -91 
Q 1294 -91 989 -36 
Q 684 19 347 128 
L 347 722 
Q 666 556 975 473 
Q 1284 391 1588 391 
Q 1994 391 2212 530 
Q 2431 669 2431 922 
Q 2431 1156 2273 1281 
Q 2116 1406 1581 1522 
L 1381 1569 
Q 847 1681 609 1914 
Q 372 2147 372 2553 
Q 372 3047 722 3315 
Q 1072 3584 1716 3584 
Q 2034 3584 2315 3537 
Q 2597 3491 2834 3397 
z
" transform="scale(0.015625)"/>
       <path id="DejaVuSans-29" d="M 513 4856 
L 1013 4856 
Q 1481 4119 1714 3412 
Q 1947 2706 1947 2009 
Q 1947 1309 1714 600 
Q 1481 -109 1013 -844 
L 513 -844 
Q 928 -128 1133 580 
Q 1338 1288 1338 2009 
Q 1338 2731 1133 3434 
Q 928 4138 513 4856 
z
" transform="scale(0.015625)"/>
      </defs>
      <use xlink:href="#DejaVuSans-54"/>
      <use xlink:href="#DejaVuSans-69" transform="translate(57.958984 0)"/>
      <use xlink:href="#DejaVuSans-6d" transform="translate(85.742188 0)"/>
      <use xlink:href="#DejaVuSans-65" transform="translate(183.154297 0)"/>
      <use xlink:href="#DejaVuSans-20" transform="translate(244.677734 0)"/>
      <use xlink:href="#DejaVuSans-28" transform="translate(276.464844 0)"/>
      <use xlink:href="#DejaVuSans-73" transform="translate(315.478516 0)"/>
      <use xlink:href="#DejaVuSans-29" transform="translate(367.578125 0)"/>
     </g>
    </g>
   </g>
   <g id="matplotlib.axis_2">
    <g id="ytick_1">
     <g id="line2d_10">
      <defs>
       <path id="mfd94c0ea37" d="M 0 0 
L -3.5 0 
" style="stroke: #000000; stroke-width: 0.8"/>
      </defs>
      <g>
       <use xlink:href="#mfd94c0ea37" x="38.420552" y="383.712423" style="stroke: #000000; stroke-width: 0.8"/>
      </g>
     </g>
     <g id="text_11">
      <!-- −8 -->
      <g transform="translate(16.678365 387.511641) scale(0.1 -0.1)">
       <use xlink:href="#DejaVuSans-2212"/>
       <use xlink:href="#DejaVuSans-38" transform="translate(83.789062 0)"/>
      </g>
     </g>
    </g>
    <g id="ytick_2">
     <g id="line2d_11">
      <g>
       <use xlink:href="#mfd94c0ea37" x="38.420552" y="339.879551" style="stroke: #000000; stroke-width: 0.8"/>
      </g>
     </g>
     <g id="text_12">
      <!-- −6 -->
      <g transform="translate(16.678365 343.67877) scale(0.1 -0.1)">
       <use xlink:href="#DejaVuSans-2212"/>
       <use xlink:href="#DejaVuSans-36" transform="translate(83.789062 0)"/>
      </g>
     </g>
    </g>
    <g id="ytick_3">
     <g id="line2d_12">
      <g>
       <use xlink:href="#mfd94c0ea37" x="38.420552" y="296.04668" style="stroke: #000000; stroke-width: 0.8"/>
      </g>
     </g>
     <g id="text_13">
      <!-- −4 -->
      <g transform="translate(16.678365 299.845899) scale(0.1 -0.1)">
       <use xlink:href="#DejaVuSans-2212"/>
       <use xlink:href="#DejaVuSans-34" transform="translate(83.789062 0)"/>
      </g>
     </g>
    </g>
    <g id="ytick_4">
     <g id="line2d_13">
      <g>
       <use xlink:href="#mfd94c0ea37" x="38.420552" y="252.213809" style="stroke: #000000; stroke-width: 0.8"/>
      </g>
     </g>
     <g id="text_14">
      <!-- −2 -->
      <g transform="translate(16.678365 256.013028) scale(0.1 -0.1)">
       <use xlink:href="#DejaVuSans-2212"/>
       <use xlink:href="#DejaVuSans-32" transform="translate(83.789062 0)"/>
      </g>
     </g>
    </g>
    <g id="ytick_5">
     <g id="line2d_14">
      <g>
       <use xlink:href="#mfd94c0ea37" x="38.420552" y="208.380937" style="stroke: #000000; stroke-width: 0.8"/>
      </g>
     </g>
     <g id="text_15">
      <!-- 0 -->
      <g transform="translate(25.058052 212.180156) scale(0.1 -0.1)">
       <use xlink:href="#DejaVuSans-30"/>
      </g>
     </g>
    </g>
    <g id="ytick_6">
     <g id="line2d_15">
      <g>
       <use xlink:href="#mfd94c0ea37" x="38.420552" y="164.548066" style="stroke: #000000; stroke-width: 0.8"/>
      </g>
     </g>
     <g id="text_16">
      <!-- 2 -->
      <g transform="translate(25.058052 168.347285) scale(0.1 -0.1)">
       <use xlink:href="#DejaVuSans-32"/>
      </g>
     </g>
    </g>
    <g id="ytick_7">
     <g id="line2d_16">
      <g>
       <use xlink:href="#mfd94c0ea37" x="38.420552" y="120.715195" style="stroke: #000000; stroke-width: 0.8"/>
      </g>
     </g>
     <g id="text_17">
      <!-- 4 -->
      <g transform="translate(25.058052 124.514414) scale(0.1 -0.1)">
       <use xlink:href="#DejaVuSans-34"/>
      </g>
     </g>
    </g>
    <g id="ytick_8">
     <g id="line2d_17">
      <g>
       <use xlink:href="#mfd94c0ea37" x="38.420552" y="76.882324" style="stroke: #000000; stroke-width: 0.8"/>
      </g>
     </g>
     <g id="text_18">
      <!-- 6 -->
      <g transform="translate(25.058052 80.681542) scale(0.1 -0.1)">
       <use xlink:href="#DejaVuSans-36"/>
      </g>
     </g>
    </g>
    <g id="ytick_9">
     <g id="line2d_18">
      <g>
       <use xlink:href="#mfd94c0ea37" x="38.420552" y="33.049452" style="stroke: #000000; stroke-width: 0.8"/>
      </g>
     </g>
     <g id="text_19">
      <!-- 8 -->
      <g transform="translate(25.058052 36.848671) scale(0.1 -0.1)">
       <use xlink:href="#DejaVuSans-38"/>
      </g>
     </g>
    </g>
    <g id="text_20">
     <!-- µV -->
     <g transform="translate(10.598677 214.9825) rotate(-90) scale(0.1 -0.1)">
      <defs>
       <path id="DejaVuSans-b5" d="M 544 -1331 
L 544 3500 
L 1119 3500 
L 1119 1325 
Q 1119 872 1334 640 
Q 1550 409 1972 409 
Q 2434 409 2667 671 
Q 2900 934 2900 1459 
L 2900 3500 
L 3475 3500 
L 3475 806 
Q 3475 619 3529 530 
Q 3584 441 3700 441 
Q 3728 441 3778 458 
Q 3828 475 3916 513 
L 3916 50 
Q 3788 -22 3673 -56 
Q 3559 -91 3450 -91 
Q 3234 -91 3106 31 
Q 2978 153 2931 403 
Q 2775 156 2548 32 
Q 2322 -91 2016 -91 
Q 1697 -91 1473 31 
Q 1250 153 1119 397 
L 1119 -1331 
L 544 -1331 
z
" transform="scale(0.015625)"/>
       <path id="DejaVuSans-56" d="M 1831 0 
L 50 4666 
L 709 4666 
L 2188 738 
L 3669 4666 
L 4325 4666 
L 2547 0 
L 1831 0 
z
" transform="scale(0.015625)"/>
      </defs>
      <use xlink:href="#DejaVuSans-b5"/>
      <use xlink:href="#DejaVuSans-56" transform="translate(63.623047 0)"/>
     </g>
    </g>
   </g>
   <g id="patch_4">
    <path d="M 38.693039 398.64351 
L 561.866948 398.64351 
" style="fill: none; stroke: #000000; stroke-width: 0.8; stroke-linejoin: miter; stroke-linecap: square"/>
   </g>
   <g id="patch_5">
    <path d="M 38.420552 208.380937 
L 561.866948 208.380937 
" style="fill: none; stroke: #000000; stroke-width: 0.8; stroke-linejoin: miter; stroke-linecap: square"/>
   </g>
   <g id="text_21">
    <!-- Oz, O1 (median) -->
    <g transform="translate(250.836875 12.118365) scale(0.12 -0.12)">
     <defs>
      <path id="DejaVuSans-4f" d="M 2522 4238 
Q 1834 4238 1429 3725 
Q 1025 3213 1025 2328 
Q 1025 1447 1429 934 
Q 1834 422 2522 422 
Q 3209 422 3611 934 
Q 4013 1447 4013 2328 
Q 4013 3213 3611 3725 
Q 3209 4238 2522 4238 
z
M 2522 4750 
Q 3503 4750 4090 4092 
Q 4678 3434 4678 2328 
Q 4678 1225 4090 567 
Q 3503 -91 2522 -91 
Q 1538 -91 948 565 
Q 359 1222 359 2328 
Q 359 3434 948 4092 
Q 1538 4750 2522 4750 
z
" transform="scale(0.015625)"/>
      <path id="DejaVuSans-7a" d="M 353 3500 
L 3084 3500 
L 3084 2975 
L 922 459 
L 3084 459 
L 3084 0 
L 275 0 
L 275 525 
L 2438 3041 
L 353 3041 
L 353 3500 
z
" transform="scale(0.015625)"/>
      <path id="DejaVuSans-2c" d="M 750 794 
L 1409 794 
L 1409 256 
L 897 -744 
L 494 -744 
L 750 256 
L 750 794 
z
" transform="scale(0.015625)"/>
      <path id="DejaVuSans-64" d="M 2906 2969 
L 2906 4863 
L 3481 4863 
L 3481 0 
L 2906 0 
L 2906 525 
Q 2725 213 2448 61 
Q 2172 -91 1784 -91 
Q 1150 -91 751 415 
Q 353 922 353 1747 
Q 353 2572 751 3078 
Q 1150 3584 1784 3584 
Q 2172 3584 2448 3432 
Q 2725 3281 2906 2969 
z
M 947 1747 
Q 947 1113 1208 752 
Q 1469 391 1925 391 
Q 2381 391 2643 752 
Q 2906 1113 2906 1747 
Q 2906 2381 2643 2742 
Q 2381 3103 1925 3103 
Q 1469 3103 1208 2742 
Q 947 2381 947 1747 
z
" transform="scale(0.015625)"/>
      <path id="DejaVuSans-61" d="M 2194 1759 
Q 1497 1759 1228 1600 
Q 959 1441 959 1056 
Q 959 750 1161 570 
Q 1363 391 1709 391 
Q 2188 391 2477 730 
Q 2766 1069 2766 1631 
L 2766 1759 
L 2194 1759 
z
M 3341 1997 
L 3341 0 
L 2766 0 
L 2766 531 
Q 2569 213 2275 61 
Q 1981 -91 1556 -91 
Q 1019 -91 701 211 
Q 384 513 384 1019 
Q 384 1609 779 1909 
Q 1175 2209 1959 2209 
L 2766 2209 
L 2766 2266 
Q 2766 2663 2505 2880 
Q 2244 3097 1772 3097 
Q 1472 3097 1187 3025 
Q 903 2953 641 2809 
L 641 3341 
Q 956 3463 1253 3523 
Q 1550 3584 1831 3584 
Q 2591 3584 2966 3190 
Q 3341 2797 3341 1997 
z
" transform="scale(0.015625)"/>
      <path id="DejaVuSans-6e" d="M 3513 2113 
L 3513 0 
L 2938 0 
L 2938 2094 
Q 2938 2591 2744 2837 
Q 2550 3084 2163 3084 
Q 1697 3084 1428 2787 
Q 1159 2491 1159 1978 
L 1159 0 
L 581 0 
L 581 3500 
L 1159 3500 
L 1159 2956 
Q 1366 3272 1645 3428 
Q 1925 3584 2291 3584 
Q 2894 3584 3203 3211 
Q 3513 2838 3513 2113 
z
" transform="scale(0.015625)"/>
     </defs>
     <use xlink:href="#DejaVuSans-4f"/>
     <use xlink:href="#DejaVuSans-7a" transform="translate(78.710938 0)"/>
     <use xlink:href="#DejaVuSans-2c" transform="translate(131.201172 0)"/>
     <use xlink:href="#DejaVuSans-20" transform="translate(162.988281 0)"/>
     <use xlink:href="#DejaVuSans-4f" transform="translate(194.775391 0)"/>
     <use xlink:href="#DejaVuSans-31" transform="translate(273.486328 0)"/>
     <use xlink:href="#DejaVuSans-20" transform="translate(337.109375 0)"/>
     <use xlink:href="#DejaVuSans-28" transform="translate(368.896484 0)"/>
     <use xlink:href="#DejaVuSans-6d" transform="translate(407.910156 0)"/>
     <use xlink:href="#DejaVuSans-65" transform="translate(505.322266 0)"/>
     <use xlink:href="#DejaVuSans-64" transform="translate(566.845703 0)"/>
     <use xlink:href="#DejaVuSans-69" transform="translate(630.322266 0)"/>
     <use xlink:href="#DejaVuSans-61" transform="translate(658.105469 0)"/>
     <use xlink:href="#DejaVuSans-6e" transform="translate(719.384766 0)"/>
     <use xlink:href="#DejaVuSans-29" transform="translate(782.763672 0)"/>
    </g>
   </g>
   <g id="legend_1">
    <g id="patch_6">
     <path d="M 45.420552 55.75274 
L 126.56274 55.75274 
Q 128.56274 55.75274 128.56274 53.75274 
L 128.56274 25.118365 
Q 128.56274 23.118365 126.56274 23.118365 
L 45.420552 23.118365 
Q 43.420552 23.118365 43.420552 25.118365 
L 43.420552 53.75274 
Q 43.420552 55.75274 45.420552 55.75274 
z
" style="fill: #ffffff; opacity: 0.8; stroke: #cccccc; stroke-linejoin: miter"/>
    </g>
    <g id="line2d_19">
     <path d="M 47.420552 31.216803 
L 57.420552 31.216803 
L 67.420552 31.216803 
" style="fill: none; stroke: #1f77b4; stroke-width: 1.5; stroke-linecap: square"/>
    </g>
    <g id="text_22">
     <!-- eerie -->
     <g transform="translate(75.420552 34.716803) scale(0.1 -0.1)">
      <defs>
       <path id="DejaVuSans-72" d="M 2631 2963 
Q 2534 3019 2420 3045 
Q 2306 3072 2169 3072 
Q 1681 3072 1420 2755 
Q 1159 2438 1159 1844 
L 1159 0 
L 581 0 
L 581 3500 
L 1159 3500 
L 1159 2956 
Q 1341 3275 1631 3429 
Q 1922 3584 2338 3584 
Q 2397 3584 2469 3576 
Q 2541 3569 2628 3553 
L 2631 2963 
z
" transform="scale(0.015625)"/>
      </defs>
      <use xlink:href="#DejaVuSans-65"/>
      <use xlink:href="#DejaVuSans-65" transform="translate(61.523438 0)"/>
      <use xlink:href="#DejaVuSans-72" transform="translate(123.046875 0)"/>
      <use xlink:href="#DejaVuSans-69" transform="translate(164.160156 0)"/>
      <use xlink:href="#DejaVuSans-65" transform="translate(191.943359 0)"/>
     </g>
    </g>
    <g id="line2d_20">
     <path d="M 47.420552 45.894928 
L 57.420552 45.894928 
L 67.420552 45.894928 
" style="fill: none; stroke: #ff7f0e; stroke-width: 1.5; stroke-linecap: square"/>
    </g>
    <g id="text_23">
     <!-- non_eerie -->
     <g transform="translate(75.420552 49.394928) scale(0.1 -0.1)">
      <defs>
       <path id="DejaVuSans-6f" d="M 1959 3097 
Q 1497 3097 1228 2736 
Q 959 2375 959 1747 
Q 959 1119 1226 758 
Q 1494 397 1959 397 
Q 2419 397 2687 759 
Q 2956 1122 2956 1747 
Q 2956 2369 2687 2733 
Q 2419 3097 1959 3097 
z
M 1959 3584 
Q 2709 3584 3137 3096 
Q 3566 2609 3566 1747 
Q 3566 888 3137 398 
Q 2709 -91 1959 -91 
Q 1206 -91 779 398 
Q 353 888 353 1747 
Q 353 2609 779 3096 
Q 1206 3584 1959 3584 
z
" transform="scale(0.015625)"/>
       <path id="DejaVuSans-5f" d="M 3263 -1063 
L 3263 -1509 
L -63 -1509 
L -63 -1063 
L 3263 -1063 
z
" transform="scale(0.015625)"/>
      </defs>
      <use xlink:href="#DejaVuSans-6e"/>
      <use xlink:href="#DejaVuSans-6f" transform="translate(63.378906 0)"/>
      <use xlink:href="#DejaVuSans-6e" transform="translate(124.560547 0)"/>
      <use xlink:href="#DejaVuSans-5f" transform="translate(187.939453 0)"/>
      <use xlink:href="#DejaVuSans-65" transform="translate(237.939453 0)"/>
      <use xlink:href="#DejaVuSans-65" transform="translate(299.462891 0)"/>
      <use xlink:href="#DejaVuSans-72" transform="translate(360.986328 0)"/>
      <use xlink:href="#DejaVuSans-69" transform="translate(402.099609 0)"/>
      <use xlink:href="#DejaVuSans-65" transform="translate(429.882812 0)"/>
     </g>
    </g>
   </g>
   <g id="FillBetweenPolyCollection_1">
    <defs>
     <path id="m16f6dcac6f" d="M 38.420552 -256.82785 
L 38.420552 -233.684253 
L 40.123593 -222.385654 
L 41.826633 -219.407942 
L 43.529673 -224.756726 
L 45.232713 -232.549736 
L 46.935753 -237.742155 
L 48.638793 -238.137053 
L 50.341833 -233.382355 
L 52.044873 -229.040695 
L 53.747913 -226.95934 
L 55.450953 -228.089238 
L 57.153993 -229.151428 
L 58.857033 -227.597 
L 60.560073 -222.129273 
L 62.263113 -212.893685 
L 63.966154 -204.18015 
L 65.669194 -200.506048 
L 67.372234 -203.446125 
L 69.075274 -210.467909 
L 70.778314 -217.082372 
L 72.481354 -221.642112 
L 74.184394 -223.757575 
L 75.887434 -224.164697 
L 77.590474 -223.791354 
L 79.293514 -222.600471 
L 80.996554 -223.765542 
L 82.699594 -227.991746 
L 84.402634 -233.133791 
L 86.105674 -237.526333 
L 87.808714 -238.717287 
L 89.511755 -235.254739 
L 91.214795 -226.43752 
L 92.917835 -214.045753 
L 94.620875 -201.464354 
L 96.323915 -194.937193 
L 98.026955 -196.421015 
L 99.729995 -203.147004 
L 101.433035 -208.259452 
L 103.136075 -208.153234 
L 104.839115 -203.623138 
L 106.542155 -196.114447 
L 108.245195 -190.51648 
L 109.948235 -190.315103 
L 111.651275 -194.893516 
L 113.354315 -199.355904 
L 115.057356 -200.228505 
L 116.760396 -197.704274 
L 118.463436 -195.074947 
L 120.166476 -194.181271 
L 121.869516 -194.791887 
L 123.572556 -194.425866 
L 125.275596 -192.188877 
L 126.978636 -190.720584 
L 128.681676 -191.141573 
L 130.384716 -191.521163 
L 132.087756 -191.261378 
L 133.790796 -188.414357 
L 135.493836 -180.287919 
L 137.196876 -166.965482 
L 138.899916 -153.697276 
L 140.602957 -148.70197 
L 142.305997 -155.456254 
L 144.009037 -171.535881 
L 145.712077 -188.217025 
L 147.415117 -198.89286 
L 149.118157 -200.734456 
L 150.821197 -196.649532 
L 152.524237 -192.511732 
L 154.227277 -192.904769 
L 155.930317 -199.413881 
L 157.633357 -206.075317 
L 159.336397 -206.313468 
L 161.039437 -198.554519 
L 162.742477 -189.097767 
L 164.445517 -185.740925 
L 166.148558 -192.713078 
L 167.851598 -208.621451 
L 169.554638 -226.88435 
L 171.257678 -239.561447 
L 172.960718 -240.582931 
L 174.663758 -230.264531 
L 176.366798 -214.503472 
L 178.069838 -200.774645 
L 179.772878 -191.748967 
L 181.475918 -183.576557 
L 183.178958 -172.382822 
L 184.881998 -153.921111 
L 186.585038 -128.172668 
L 188.288078 -99.481091 
L 189.991118 -73.777076 
L 191.694159 -53.357561 
L 193.397199 -40.156042 
L 195.100239 -33.35649 
L 196.803279 -33.559183 
L 198.506319 -40.10376 
L 200.209359 -51.346685 
L 201.912399 -65.610775 
L 203.615439 -80.694689 
L 205.318479 -94.484128 
L 207.021519 -107.903157 
L 208.724559 -121.814334 
L 210.427599 -136.456879 
L 212.130639 -150.140993 
L 213.833679 -162.109224 
L 215.536719 -173.351699 
L 217.23976 -186.711313 
L 218.9428 -204.122678 
L 220.64584 -223.36021 
L 222.34888 -241.12798 
L 224.05192 -250.603194 
L 225.75496 -248.018991 
L 227.458 -236.915379 
L 229.16104 -226.913555 
L 230.86408 -227.835 
L 232.56712 -242.950607 
L 234.27016 -266.281989 
L 235.9732 -285.300383 
L 237.67624 -287.228197 
L 239.37928 -270.42052 
L 241.08232 -245.243978 
L 242.785361 -225.097264 
L 244.488401 -218.857761 
L 246.191441 -227.273123 
L 247.894481 -239.537901 
L 249.597521 -243.984515 
L 251.300561 -235.156382 
L 253.003601 -218.473523 
L 254.706641 -205.068385 
L 256.409681 -200.950176 
L 258.112721 -205.784155 
L 259.815761 -213.871536 
L 261.518801 -216.565081 
L 263.221841 -211.453591 
L 264.924881 -202.978114 
L 266.627921 -196.628835 
L 268.330962 -195.036463 
L 270.034002 -195.114583 
L 271.737042 -194.297945 
L 273.440082 -190.202542 
L 275.143122 -185.765286 
L 276.846162 -184.428367 
L 278.549202 -191.213632 
L 280.252242 -204.884428 
L 281.955282 -218.487579 
L 283.658322 -226.390516 
L 285.361362 -227.262893 
L 287.064402 -224.820557 
L 288.767442 -226.378704 
L 290.470482 -237.211052 
L 292.173522 -254.47134 
L 293.876563 -270.494575 
L 295.579603 -278.308558 
L 297.282643 -275.439521 
L 298.985683 -265.741515 
L 300.688723 -254.805262 
L 302.391763 -249.808421 
L 304.094803 -254.039432 
L 305.797843 -266.328941 
L 307.500883 -280.378424 
L 309.203923 -290.915414 
L 310.906963 -296.016307 
L 312.610003 -293.372708 
L 314.313043 -283.527082 
L 316.016083 -269.390339 
L 317.719123 -256.630324 
L 319.422164 -249.733973 
L 321.125204 -251.882142 
L 322.828244 -265.108086 
L 324.531284 -285.276122 
L 326.234324 -304.158147 
L 327.937364 -312.631246 
L 329.640404 -308.506409 
L 331.343444 -296.591477 
L 333.046484 -286.668729 
L 334.749524 -286.291791 
L 336.452564 -296.34474 
L 338.155604 -310.069182 
L 339.858644 -316.548891 
L 341.561684 -309.054368 
L 343.264724 -288.972545 
L 344.967765 -266.578157 
L 346.670805 -254.206468 
L 348.373845 -257.565264 
L 350.076885 -272.733515 
L 351.779925 -287.172717 
L 353.482965 -293.160132 
L 355.186005 -288.45101 
L 356.889045 -278.036647 
L 358.592085 -267.804958 
L 360.295125 -264.196485 
L 361.998165 -267.884765 
L 363.701205 -275.806642 
L 365.404245 -281.828446 
L 367.107285 -283.743466 
L 368.810326 -282.823835 
L 370.513366 -281.377126 
L 372.216406 -278.724258 
L 373.919446 -273.28675 
L 375.622486 -264.774818 
L 377.325526 -258.46087 
L 379.028566 -258.486669 
L 380.731606 -266.67139 
L 382.434646 -279.515241 
L 384.137686 -289.144405 
L 385.840726 -287.329795 
L 387.543766 -271.591647 
L 389.246806 -248.278922 
L 390.949846 -228.887893 
L 392.652886 -220.467461 
L 394.355927 -224.13597 
L 396.058967 -233.715329 
L 397.762007 -240.484541 
L 399.465047 -237.43442 
L 401.168087 -223.746976 
L 402.871127 -206.760639 
L 404.574167 -194.435824 
L 406.277207 -191.549334 
L 407.980247 -197.798255 
L 409.683287 -208.316395 
L 411.386327 -218.872862 
L 413.089367 -223.796868 
L 414.792407 -221.143921 
L 416.495447 -212.10133 
L 418.198487 -200.846619 
L 419.901528 -193.592171 
L 421.604568 -193.056925 
L 423.307608 -198.63198 
L 425.010648 -207.51397 
L 426.713688 -213.038409 
L 428.416728 -211.030294 
L 430.119768 -202.59662 
L 431.822808 -192.94826 
L 433.525848 -187.561926 
L 435.228888 -188.207097 
L 436.931928 -194.127056 
L 438.634968 -200.355171 
L 440.338008 -201.987727 
L 442.041048 -196.439993 
L 443.744088 -187.136 
L 445.447129 -178.240112 
L 447.150169 -174.464182 
L 448.853209 -175.724134 
L 450.556249 -181.449321 
L 452.259289 -188.310983 
L 453.962329 -192.449548 
L 455.665369 -188.881044 
L 457.368409 -180.785982 
L 459.071449 -169.543089 
L 460.774489 -158.207193 
L 462.477529 -152.829839 
L 464.180569 -153.895279 
L 465.883609 -159.586843 
L 467.586649 -164.277012 
L 469.289689 -164.860184 
L 470.99273 -161.984715 
L 472.69577 -155.958148 
L 474.39881 -151.362232 
L 476.10185 -151.011015 
L 477.80489 -154.625043 
L 479.50793 -157.048428 
L 481.21097 -153.148268 
L 482.91401 -142.416475 
L 484.61705 -130.261757 
L 486.32009 -122.471623 
L 488.02313 -125.811654 
L 489.72617 -139.46301 
L 491.42921 -155.824132 
L 493.13225 -164.69028 
L 494.83529 -164.503049 
L 496.538331 -157.994913 
L 498.241371 -150.68006 
L 499.944411 -145.421229 
L 501.647451 -146.6622 
L 503.350491 -150.730969 
L 505.053531 -150.39472 
L 506.756571 -142.876292 
L 508.459611 -130.357696 
L 510.162651 -120.621467 
L 511.865691 -117.549551 
L 513.568731 -123.259066 
L 515.271771 -133.927372 
L 516.974811 -141.757975 
L 518.677851 -141.712849 
L 520.380891 -136.204742 
L 522.083932 -127.76097 
L 523.786972 -122.057285 
L 525.490012 -121.577477 
L 527.193052 -124.789145 
L 528.896092 -131.414614 
L 530.599132 -138.744377 
L 532.302172 -143.603143 
L 534.005212 -144.9532 
L 535.708252 -139.580266 
L 537.411292 -127.571566 
L 539.114332 -110.979326 
L 540.817372 -97.217116 
L 542.520412 -93.183664 
L 544.223452 -101.421904 
L 545.926492 -118.106944 
L 547.629533 -133.36243 
L 549.332573 -137.654732 
L 551.035613 -128.454039 
L 552.738653 -112.721629 
L 554.441693 -102.762579 
L 556.144733 -105.959879 
L 557.847773 -123.531127 
L 559.550813 -146.692926 
L 561.253853 -163.319314 
L 561.253853 -191.071031 
L 561.253853 -191.071031 
L 559.550813 -174.085794 
L 557.847773 -148.194554 
L 556.144733 -128.338874 
L 554.441693 -125.222585 
L 552.738653 -137.075928 
L 551.035613 -154.338314 
L 549.332573 -163.826315 
L 547.629533 -158.538999 
L 545.926492 -141.50684 
L 544.223452 -122.82443 
L 542.520412 -112.311153 
L 540.817372 -115.270622 
L 539.114332 -128.536804 
L 537.411292 -146.83818 
L 535.708252 -161.420201 
L 534.005212 -168.662124 
L 532.302172 -167.67283 
L 530.599132 -162.524238 
L 528.896092 -154.657746 
L 527.193052 -147.963876 
L 525.490012 -144.21443 
L 523.786972 -145.166702 
L 522.083932 -150.087292 
L 520.380891 -157.405027 
L 518.677851 -162.515843 
L 516.974811 -162.630667 
L 515.271771 -157.519394 
L 513.568731 -149.012799 
L 511.865691 -142.502823 
L 510.162651 -143.416175 
L 508.459611 -152.581797 
L 506.756571 -164.96027 
L 505.053531 -173.631047 
L 503.350491 -175.781355 
L 501.647451 -173.092461 
L 499.944411 -169.708834 
L 498.241371 -171.299331 
L 496.538331 -179.825752 
L 494.83529 -188.29791 
L 493.13225 -188.964742 
L 491.42921 -179.171505 
L 489.72617 -164.373374 
L 488.02313 -151.334453 
L 486.32009 -145.138376 
L 484.61705 -149.482047 
L 482.91401 -160.87199 
L 481.21097 -171.668344 
L 479.50793 -176.931552 
L 477.80489 -177.104605 
L 476.10185 -174.871946 
L 474.39881 -174.171923 
L 472.69577 -178.294424 
L 470.99273 -184.716009 
L 469.289689 -189.205194 
L 467.586649 -186.913876 
L 465.883609 -180.656166 
L 464.180569 -174.640555 
L 462.477529 -173.016982 
L 460.774489 -177.988204 
L 459.071449 -189.58669 
L 457.368409 -203.449197 
L 455.665369 -214.402343 
L 453.962329 -217.907557 
L 452.259289 -214.055994 
L 450.556249 -205.198862 
L 448.853209 -196.793096 
L 447.150169 -193.830361 
L 445.447129 -199.802385 
L 443.744088 -211.94551 
L 442.041048 -223.270347 
L 440.338008 -228.674011 
L 438.634968 -226.084247 
L 436.931928 -217.968296 
L 435.228888 -211.125797 
L 433.525848 -210.014051 
L 431.822808 -216.91123 
L 430.119768 -226.854513 
L 428.416728 -235.214445 
L 426.713688 -236.795919 
L 425.010648 -231.891725 
L 423.307608 -222.856126 
L 421.604568 -216.219819 
L 419.901528 -216.541536 
L 418.198487 -222.693139 
L 416.495447 -232.381562 
L 414.792407 -240.350991 
L 413.089367 -243.083198 
L 411.386327 -238.764809 
L 409.683287 -229.341337 
L 407.980247 -219.700171 
L 406.277207 -215.952392 
L 404.574167 -220.968804 
L 402.871127 -233.827023 
L 401.168087 -248.32816 
L 399.465047 -258.607091 
L 397.762007 -260.926994 
L 396.058967 -253.514087 
L 394.355927 -244.176269 
L 392.652886 -241.258021 
L 390.949846 -250.025846 
L 389.246806 -269.728546 
L 387.543766 -291.488748 
L 385.840726 -306.830212 
L 384.137686 -310.219252 
L 382.434646 -303.163788 
L 380.731606 -291.663927 
L 379.028566 -283.44739 
L 377.325526 -282.304707 
L 375.622486 -287.970092 
L 373.919446 -294.982703 
L 372.216406 -301.294279 
L 370.513366 -306.138691 
L 368.810326 -309.481044 
L 367.107285 -309.960073 
L 365.404245 -307.233401 
L 363.701205 -301.562907 
L 361.998165 -293.55484 
L 360.295125 -287.579462 
L 358.592085 -288.631115 
L 356.889045 -298.348034 
L 355.186005 -310.678202 
L 353.482965 -315.192498 
L 351.779925 -308.179043 
L 350.076885 -293.078956 
L 348.373845 -280.444467 
L 346.670805 -279.029955 
L 344.967765 -292.789055 
L 343.264724 -314.905164 
L 341.561684 -334.579048 
L 339.858644 -340.430691 
L 338.155604 -332.164667 
L 336.452564 -316.032877 
L 334.749524 -305.091535 
L 333.046484 -305.769244 
L 331.343444 -316.846693 
L 329.640404 -330.393475 
L 327.937364 -336.651972 
L 326.234324 -329.197378 
L 324.531284 -311.271503 
L 322.828244 -289.71015 
L 321.125204 -274.614981 
L 319.422164 -270.922105 
L 317.719123 -278.706791 
L 316.016083 -292.900641 
L 314.313043 -307.575042 
L 312.610003 -317.765885 
L 310.906963 -320.046316 
L 309.203923 -313.213963 
L 307.500883 -299.460682 
L 305.797843 -284.842175 
L 304.094803 -273.704406 
L 302.391763 -270.790376 
L 300.688723 -276.858507 
L 298.985683 -289.263462 
L 297.282643 -300.180024 
L 295.579603 -301.990164 
L 293.876563 -290.524844 
L 292.173522 -271.995011 
L 290.470482 -255.071483 
L 288.767442 -245.805325 
L 287.064402 -245.410225 
L 285.361362 -250.058717 
L 283.658322 -251.488125 
L 281.955282 -244.278366 
L 280.252242 -229.83657 
L 278.549202 -213.888329 
L 276.846162 -203.592933 
L 275.143122 -203.036242 
L 273.440082 -209.283314 
L 271.737042 -215.645643 
L 270.034002 -217.595312 
L 268.330962 -216.75257 
L 266.627921 -218.374681 
L 264.924881 -223.583392 
L 263.221841 -230.607371 
L 261.518801 -234.689105 
L 259.815761 -233.059246 
L 258.112721 -226.352642 
L 256.409681 -222.112174 
L 254.706641 -226.245961 
L 253.003601 -239.898722 
L 251.300561 -255.400635 
L 249.597521 -263.231565 
L 247.894481 -259.266878 
L 246.191441 -247.211004 
L 244.488401 -238.486193 
L 242.785361 -243.095617 
L 241.08232 -263.737926 
L 239.37928 -289.503918 
L 237.67624 -305.703621 
L 235.9732 -303.185843 
L 234.27016 -285.364408 
L 232.56712 -261.986827 
L 230.86408 -246.963632 
L 229.16104 -246.677285 
L 227.458 -258.337879 
L 225.75496 -269.880284 
L 224.05192 -271.406445 
L 222.34888 -260.812216 
L 220.64584 -241.38158 
L 218.9428 -220.937412 
L 217.23976 -203.831904 
L 215.536719 -190.937101 
L 213.833679 -180.342546 
L 212.130639 -168.453262 
L 210.427599 -155.271583 
L 208.724559 -142.274258 
L 207.021519 -128.791774 
L 205.318479 -114.155395 
L 203.615439 -99.842208 
L 201.912399 -86.127203 
L 200.209359 -72.701319 
L 198.506319 -60.89471 
L 196.803279 -53.963773 
L 195.100239 -53.047028 
L 193.397199 -58.294965 
L 191.694159 -71.81995 
L 189.991118 -93.864508 
L 188.288078 -121.194592 
L 186.585038 -149.638503 
L 184.881998 -174.603147 
L 183.178958 -192.635596 
L 181.475918 -203.279299 
L 179.772878 -210.427908 
L 178.069838 -219.549978 
L 176.366798 -232.667268 
L 174.663758 -246.993499 
L 172.960718 -257.972453 
L 171.257678 -258.718757 
L 169.554638 -247.100323 
L 167.851598 -228.036431 
L 166.148558 -209.850503 
L 164.445517 -203.369212 
L 162.742477 -208.725442 
L 161.039437 -217.978251 
L 159.336397 -223.627336 
L 157.633357 -223.462064 
L 155.930317 -218.073911 
L 154.227277 -211.906008 
L 152.524237 -211.124586 
L 150.821197 -216.136275 
L 149.118157 -221.573701 
L 147.415117 -219.93957 
L 145.712077 -209.026287 
L 144.009037 -192.174415 
L 142.305997 -177.165659 
L 140.602957 -170.895405 
L 138.899916 -175.84054 
L 137.196876 -187.348611 
L 135.493836 -200.226866 
L 133.790796 -209.531838 
L 132.087756 -212.24331 
L 130.384716 -209.920961 
L 128.681676 -208.777892 
L 126.978636 -209.612685 
L 125.275596 -211.437577 
L 123.572556 -211.323672 
L 121.869516 -210.671407 
L 120.166476 -211.941134 
L 118.463436 -213.577009 
L 116.760396 -215.588943 
L 115.057356 -215.788985 
L 113.354315 -215.070498 
L 111.651275 -212.93657 
L 109.948235 -210.830401 
L 108.245195 -210.557817 
L 106.542155 -214.313001 
L 104.839115 -221.310069 
L 103.136075 -227.155437 
L 101.433035 -227.918169 
L 99.729995 -222.507783 
L 98.026955 -216.910856 
L 96.323915 -215.757741 
L 94.620875 -220.107476 
L 92.917835 -230.853805 
L 91.214795 -245.108416 
L 89.511755 -256.288296 
L 87.808714 -260.102796 
L 86.105674 -256.635135 
L 84.402634 -250.14635 
L 82.699594 -245.153835 
L 80.996554 -242.406939 
L 79.293514 -241.675095 
L 77.590474 -241.854101 
L 75.887434 -242.143184 
L 74.184394 -242.449691 
L 72.481354 -240.428853 
L 70.778314 -235.344444 
L 69.075274 -228.148056 
L 67.372234 -221.997673 
L 65.669194 -220.545273 
L 63.966154 -223.659819 
L 62.263113 -231.552728 
L 60.560073 -240.096182 
L 58.857033 -245.559579 
L 57.153993 -245.451035 
L 55.450953 -242.621271 
L 53.747913 -241.06832 
L 52.044873 -245.642906 
L 50.341833 -254.225435 
L 48.638793 -261.199384 
L 46.935753 -262.38194 
L 45.232713 -255.722016 
L 43.529673 -245.969444 
L 41.826633 -240.780818 
L 40.123593 -244.852431 
L 38.420552 -256.82785 
z
" style="stroke: #1f77b4; stroke-opacity: 0.3"/>
    </defs>
    <g>
     <use xlink:href="#m16f6dcac6f" x="0" y="432" style="fill: #1f77b4; fill-opacity: 0.3; stroke: #1f77b4; stroke-opacity: 0.3"/>
    </g>
   </g>
   <g id="FillBetweenPolyCollection_2">
    <defs>
     <path id="m6a1acb9b9b" d="M 38.420552 -245.346119 
L 38.420552 -241.075236 
L 40.123593 -237.389806 
L 41.826633 -234.460481 
L 43.529673 -233.345811 
L 45.232713 -233.892141 
L 46.935753 -234.615801 
L 48.638793 -234.085283 
L 50.341833 -231.860219 
L 52.044873 -228.844062 
L 53.747913 -227.115009 
L 55.450953 -228.104942 
L 57.153993 -231.540525 
L 58.857033 -235.933981 
L 60.560073 -239.408727 
L 62.263113 -240.886372 
L 63.966154 -240.804333 
L 65.669194 -239.976126 
L 67.372234 -238.753113 
L 69.075274 -236.005218 
L 70.778314 -231.057573 
L 72.481354 -223.913515 
L 74.184394 -215.880675 
L 75.887434 -209.754198 
L 77.590474 -208.33487 
L 79.293514 -212.027832 
L 80.996554 -218.200686 
L 82.699594 -223.324998 
L 84.402634 -225.192083 
L 86.105674 -223.642553 
L 87.808714 -220.818008 
L 89.511755 -218.869876 
L 91.214795 -218.866429 
L 92.917835 -219.328639 
L 94.620875 -217.995684 
L 96.323915 -214.175997 
L 98.026955 -209.349973 
L 99.729995 -205.996659 
L 101.433035 -206.146692 
L 103.136075 -209.455368 
L 104.839115 -213.831099 
L 106.542155 -216.496219 
L 108.245195 -216.338532 
L 109.948235 -214.656253 
L 111.651275 -213.804542 
L 113.354315 -214.550291 
L 115.057356 -215.827906 
L 116.760396 -215.381446 
L 118.463436 -211.941808 
L 120.166476 -206.445505 
L 121.869516 -201.346556 
L 123.572556 -199.16254 
L 125.275596 -200.370955 
L 126.978636 -203.405887 
L 128.681676 -205.50102 
L 130.384716 -205.248773 
L 132.087756 -203.138696 
L 133.790796 -200.981802 
L 135.493836 -200.372584 
L 137.196876 -201.202154 
L 138.899916 -202.060474 
L 140.602957 -202.18419 
L 142.305997 -201.337159 
L 144.009037 -200.791983 
L 145.712077 -202.210297 
L 147.415117 -205.572369 
L 149.118157 -209.235691 
L 150.821197 -211.052622 
L 152.524237 -210.085688 
L 154.227277 -206.878638 
L 155.930317 -203.295721 
L 157.633357 -200.86096 
L 159.336397 -200.185574 
L 161.039437 -200.31952 
L 162.742477 -200.553809 
L 164.445517 -201.543759 
L 166.148558 -205.199548 
L 167.851598 -212.427631 
L 169.554638 -222.336085 
L 171.257678 -231.688152 
L 172.960718 -235.778595 
L 174.663758 -231.768217 
L 176.366798 -219.31389 
L 178.069838 -200.943638 
L 179.772878 -180.634756 
L 181.475918 -161.863718 
L 183.178958 -146.061421 
L 184.881998 -132.772086 
L 186.585038 -120.655482 
L 188.288078 -108.545042 
L 189.991118 -96.342512 
L 191.694159 -85.33916 
L 193.397199 -77.275522 
L 195.100239 -73.561849 
L 196.803279 -74.351319 
L 198.506319 -78.729995 
L 200.209359 -84.659652 
L 201.912399 -91.069144 
L 203.615439 -97.438002 
L 205.318479 -104.362399 
L 207.021519 -113.002835 
L 208.724559 -124.291791 
L 210.427599 -138.268507 
L 212.130639 -154.243603 
L 213.833679 -170.244915 
L 215.536719 -184.059282 
L 217.23976 -194.598193 
L 218.9428 -201.980496 
L 220.64584 -207.30845 
L 222.34888 -212.667782 
L 224.05192 -219.580961 
L 225.75496 -229.151382 
L 227.458 -240.517307 
L 229.16104 -251.068874 
L 230.86408 -258.091029 
L 232.56712 -259.410943 
L 234.27016 -255.059367 
L 235.9732 -247.301934 
L 237.67624 -239.789157 
L 239.37928 -235.550794 
L 241.08232 -235.609834 
L 242.785361 -238.416589 
L 244.488401 -240.979518 
L 246.191441 -240.875528 
L 247.894481 -237.612537 
L 249.597521 -232.203091 
L 251.300561 -226.862681 
L 253.003601 -223.35712 
L 254.706641 -221.996651 
L 256.409681 -221.551156 
L 258.112721 -220.622562 
L 259.815761 -218.467598 
L 261.518801 -215.548235 
L 263.221841 -213.503448 
L 264.924881 -213.616763 
L 266.627921 -215.817943 
L 268.330962 -219.142409 
L 270.034002 -221.958612 
L 271.737042 -222.834033 
L 273.440082 -222.043955 
L 275.143122 -220.640805 
L 276.846162 -219.817904 
L 278.549202 -220.496591 
L 280.252242 -222.240644 
L 281.955282 -224.265097 
L 283.658322 -225.854994 
L 285.361362 -226.793229 
L 287.064402 -227.432937 
L 288.767442 -228.284941 
L 290.470482 -229.675934 
L 292.173522 -230.977713 
L 293.876563 -231.416435 
L 295.579603 -230.868006 
L 297.282643 -229.745644 
L 298.985683 -229.987385 
L 300.688723 -232.800708 
L 302.391763 -238.45887 
L 304.094803 -244.742394 
L 305.797843 -248.856036 
L 307.500883 -248.240332 
L 309.203923 -242.850276 
L 310.906963 -235.193887 
L 312.610003 -229.219078 
L 314.313043 -228.379516 
L 316.016083 -233.247669 
L 317.719123 -241.384061 
L 319.422164 -248.487801 
L 321.125204 -251.649325 
L 322.828244 -250.294732 
L 324.531284 -246.48791 
L 326.234324 -243.279627 
L 327.937364 -242.695343 
L 329.640404 -245.05922 
L 331.343444 -248.757197 
L 333.046484 -251.940205 
L 334.749524 -253.398306 
L 336.452564 -253.210564 
L 338.155604 -252.073798 
L 339.858644 -250.745204 
L 341.561684 -249.700256 
L 343.264724 -249.021193 
L 344.967765 -248.908044 
L 346.670805 -249.646929 
L 348.373845 -251.212821 
L 350.076885 -252.418366 
L 351.779925 -251.771015 
L 353.482965 -248.767791 
L 355.186005 -243.967316 
L 356.889045 -239.062298 
L 358.592085 -235.412872 
L 360.295125 -233.245981 
L 361.998165 -231.970612 
L 363.701205 -229.792112 
L 365.404245 -226.31752 
L 367.107285 -222.612162 
L 368.810326 -220.587183 
L 370.513366 -221.22527 
L 372.216406 -223.736279 
L 373.919446 -225.693528 
L 375.622486 -224.923844 
L 377.325526 -221.246676 
L 379.028566 -216.90125 
L 380.731606 -214.781992 
L 382.434646 -216.90737 
L 384.137686 -222.748409 
L 385.840726 -229.078489 
L 387.543766 -232.504799 
L 389.246806 -230.662201 
L 390.949846 -224.516883 
L 392.652886 -216.9877 
L 394.355927 -210.740014 
L 396.058967 -207.651531 
L 397.762007 -207.325102 
L 399.465047 -208.433814 
L 401.168087 -209.16839 
L 402.871127 -208.765468 
L 404.574167 -206.986223 
L 406.277207 -204.443121 
L 407.980247 -201.480788 
L 409.683287 -198.309356 
L 411.386327 -195.079818 
L 413.089367 -191.812934 
L 414.792407 -188.654595 
L 416.495447 -185.440226 
L 418.198487 -182.302865 
L 419.901528 -179.377663 
L 421.604568 -176.889499 
L 423.307608 -174.961926 
L 425.010648 -173.949258 
L 426.713688 -174.32795 
L 428.416728 -175.838263 
L 430.119768 -177.99725 
L 431.822808 -179.637772 
L 433.525848 -180.146252 
L 435.228888 -179.087357 
L 436.931928 -176.835799 
L 438.634968 -174.169631 
L 440.338008 -171.82183 
L 442.041048 -170.25892 
L 443.744088 -169.272973 
L 445.447129 -168.582288 
L 447.150169 -167.713012 
L 448.853209 -167.080588 
L 450.556249 -166.987102 
L 452.259289 -167.336506 
L 453.962329 -167.50086 
L 455.665369 -166.799865 
L 457.368409 -164.557732 
L 459.071449 -160.994427 
L 460.774489 -156.919321 
L 462.477529 -153.602127 
L 464.180569 -151.895125 
L 465.883609 -151.813025 
L 467.586649 -152.511737 
L 469.289689 -153.648799 
L 470.99273 -154.890657 
L 472.69577 -155.757914 
L 474.39881 -156.489367 
L 476.10185 -157.475166 
L 477.80489 -158.587995 
L 479.50793 -159.531336 
L 481.21097 -159.699981 
L 482.91401 -159.28349 
L 484.61705 -158.627526 
L 486.32009 -157.514279 
L 488.02313 -156.110367 
L 489.72617 -155.021382 
L 491.42921 -154.714194 
L 493.13225 -155.683281 
L 494.83529 -157.582231 
L 496.538331 -159.218266 
L 498.241371 -158.824838 
L 499.944411 -155.221947 
L 501.647451 -149.03386 
L 503.350491 -142.27758 
L 505.053531 -137.987247 
L 506.756571 -137.875865 
L 508.459611 -141.916724 
L 510.162651 -148.526969 
L 511.865691 -154.871543 
L 513.568731 -158.849556 
L 515.271771 -159.863892 
L 516.974811 -158.620058 
L 518.677851 -156.156391 
L 520.380891 -153.668049 
L 522.083932 -151.40171 
L 523.786972 -149.284386 
L 525.490012 -147.153686 
L 527.193052 -145.574027 
L 528.896092 -145.604287 
L 530.599132 -147.047734 
L 532.302172 -149.597369 
L 534.005212 -152.325812 
L 535.708252 -154.365782 
L 537.411292 -155.077556 
L 539.114332 -155.160343 
L 540.817372 -155.036136 
L 542.520412 -154.943551 
L 544.223452 -154.97535 
L 545.926492 -154.730172 
L 547.629533 -153.816306 
L 549.332573 -151.87223 
L 551.035613 -149.104784 
L 552.738653 -146.910867 
L 554.441693 -147.102597 
L 556.144733 -150.315182 
L 557.847773 -155.773512 
L 559.550813 -160.92835 
L 561.253853 -162.749846 
L 561.253853 -167.508283 
L 561.253853 -167.508283 
L 559.550813 -165.497433 
L 557.847773 -160.394398 
L 556.144733 -155.125781 
L 554.441693 -151.984881 
L 552.738653 -151.900854 
L 551.035613 -154.058738 
L 549.332573 -156.846105 
L 547.629533 -158.892097 
L 545.926492 -159.635906 
L 544.223452 -159.856495 
L 542.520412 -159.886882 
L 540.817372 -160.071662 
L 539.114332 -160.486553 
L 537.411292 -160.272879 
L 535.708252 -159.184482 
L 534.005212 -156.887139 
L 532.302172 -154.013355 
L 530.599132 -151.558213 
L 528.896092 -150.330473 
L 527.193052 -150.691771 
L 525.490012 -152.004753 
L 523.786972 -153.909495 
L 522.083932 -156.293249 
L 520.380891 -158.66828 
L 518.677851 -160.979065 
L 516.974811 -163.203857 
L 515.271771 -164.624017 
L 513.568731 -163.799118 
L 511.865691 -159.999358 
L 510.162651 -153.55774 
L 508.459611 -146.72281 
L 506.756571 -142.463619 
L 505.053531 -142.709062 
L 503.350491 -147.316866 
L 501.647451 -154.131321 
L 499.944411 -160.280937 
L 498.241371 -163.826991 
L 496.538331 -164.030432 
L 494.83529 -162.248716 
L 493.13225 -160.248833 
L 491.42921 -159.280232 
L 489.72617 -159.682091 
L 488.02313 -160.99422 
L 486.32009 -162.379012 
L 484.61705 -163.552995 
L 482.91401 -164.233154 
L 481.21097 -164.327127 
L 479.50793 -163.94979 
L 477.80489 -163.311607 
L 476.10185 -162.306074 
L 474.39881 -161.215193 
L 472.69577 -160.288644 
L 470.99273 -159.591113 
L 469.289689 -158.743752 
L 467.586649 -157.518958 
L 465.883609 -156.475025 
L 464.180569 -156.617748 
L 462.477529 -158.578397 
L 460.774489 -162.084258 
L 459.071449 -166.161844 
L 457.368409 -169.605048 
L 455.665369 -171.719741 
L 453.962329 -172.278843 
L 452.259289 -172.066567 
L 450.556249 -171.778568 
L 448.853209 -171.96982 
L 447.150169 -172.56288 
L 445.447129 -173.330201 
L 443.744088 -174.058202 
L 442.041048 -174.932412 
L 440.338008 -176.59685 
L 438.634968 -179.151746 
L 436.931928 -181.853219 
L 435.228888 -184.09901 
L 433.525848 -184.961911 
L 431.822808 -183.996907 
L 430.119768 -182.254251 
L 428.416728 -180.242861 
L 426.713688 -179.081101 
L 425.010648 -178.892105 
L 423.307608 -179.790231 
L 421.604568 -181.565294 
L 419.901528 -183.948455 
L 418.198487 -186.590137 
L 416.495447 -189.518036 
L 414.792407 -192.939947 
L 413.089367 -196.572486 
L 411.386327 -200.198503 
L 409.683287 -203.290624 
L 407.980247 -206.200035 
L 406.277207 -209.06604 
L 404.574167 -211.840511 
L 402.871127 -213.799296 
L 401.168087 -214.376072 
L 399.465047 -213.602488 
L 397.762007 -212.343228 
L 396.058967 -212.439742 
L 394.355927 -215.632986 
L 392.652886 -221.711138 
L 390.949846 -229.30336 
L 389.246806 -235.238682 
L 387.543766 -236.957364 
L 385.840726 -233.723152 
L 384.137686 -227.401047 
L 382.434646 -221.50589 
L 380.731606 -219.339978 
L 379.028566 -221.667402 
L 377.325526 -226.220853 
L 375.622486 -229.912334 
L 373.919446 -230.648496 
L 372.216406 -228.629668 
L 370.513366 -226.027773 
L 368.810326 -225.424514 
L 367.107285 -227.673683 
L 365.404245 -231.386901 
L 363.701205 -235.133848 
L 361.998165 -237.176609 
L 360.295125 -238.497619 
L 358.592085 -240.40491 
L 356.889045 -244.03164 
L 355.186005 -249.134289 
L 353.482965 -254.092621 
L 351.779925 -257.085002 
L 350.076885 -257.613678 
L 348.373845 -256.382139 
L 346.670805 -254.829603 
L 344.967765 -253.940393 
L 343.264724 -254.027091 
L 341.561684 -254.777013 
L 339.858644 -255.816116 
L 338.155604 -256.853633 
L 336.452564 -257.77301 
L 334.749524 -257.945697 
L 333.046484 -256.57474 
L 331.343444 -253.680123 
L 329.640404 -250.083192 
L 327.937364 -247.762091 
L 326.234324 -248.159742 
L 324.531284 -251.3984 
L 322.828244 -255.321658 
L 321.125204 -256.473078 
L 319.422164 -253.364263 
L 317.719123 -246.029853 
L 316.016083 -237.921098 
L 314.313043 -232.962572 
L 312.610003 -233.782175 
L 310.906963 -239.861061 
L 309.203923 -247.688057 
L 307.500883 -253.338685 
L 305.797843 -253.904693 
L 304.094803 -249.56746 
L 302.391763 -243.0095 
L 300.688723 -237.496842 
L 298.985683 -234.571892 
L 297.282643 -234.428217 
L 295.579603 -235.52907 
L 293.876563 -236.229386 
L 292.173522 -235.651322 
L 290.470482 -234.481161 
L 288.767442 -233.139104 
L 287.064402 -232.399226 
L 285.361362 -231.982854 
L 283.658322 -231.065574 
L 281.955282 -229.208994 
L 280.252242 -226.68618 
L 278.549202 -224.714074 
L 276.846162 -224.169284 
L 275.143122 -225.105597 
L 273.440082 -226.708058 
L 271.737042 -227.405894 
L 270.034002 -226.275994 
L 268.330962 -223.56437 
L 266.627921 -220.313904 
L 264.924881 -218.272043 
L 263.221841 -218.378908 
L 261.518801 -220.608551 
L 259.815761 -223.513374 
L 258.112721 -225.668799 
L 256.409681 -226.556519 
L 254.706641 -226.838411 
L 253.003601 -228.209305 
L 251.300561 -231.605741 
L 249.597521 -236.794602 
L 247.894481 -242.365026 
L 246.191441 -245.601241 
L 244.488401 -245.471037 
L 242.785361 -242.603661 
L 241.08232 -239.889583 
L 239.37928 -240.029456 
L 237.67624 -244.353682 
L 235.9732 -252.077667 
L 234.27016 -259.810253 
L 232.56712 -264.153041 
L 230.86408 -262.787819 
L 229.16104 -255.811553 
L 227.458 -245.124158 
L 225.75496 -233.644488 
L 224.05192 -224.075907 
L 222.34888 -217.103551 
L 220.64584 -212.048867 
L 218.9428 -206.8157 
L 217.23976 -199.50498 
L 215.536719 -188.820062 
L 213.833679 -174.907959 
L 212.130639 -159.136475 
L 210.427599 -143.242624 
L 208.724559 -128.999662 
L 207.021519 -117.793936 
L 205.318479 -109.416317 
L 203.615439 -102.634729 
L 201.912399 -96.146227 
L 200.209359 -89.555711 
L 198.506319 -83.286313 
L 196.803279 -79.095004 
L 195.100239 -78.335277 
L 193.397199 -82.090367 
L 191.694159 -89.916327 
L 189.991118 -100.688392 
L 188.288078 -112.763604 
L 186.585038 -125.075015 
L 184.881998 -137.460138 
L 183.178958 -151.019124 
L 181.475918 -166.9605 
L 179.772878 -185.723198 
L 178.069838 -206.147752 
L 176.366798 -224.459172 
L 174.663758 -236.740574 
L 172.960718 -240.480121 
L 171.257678 -236.081096 
L 169.554638 -226.976927 
L 167.851598 -217.013761 
L 166.148558 -209.83885 
L 164.445517 -206.168163 
L 162.742477 -204.930491 
L 161.039437 -204.748211 
L 159.336397 -204.771978 
L 157.633357 -205.567075 
L 155.930317 -207.736187 
L 154.227277 -211.17005 
L 152.524237 -214.68125 
L 150.821197 -215.930503 
L 149.118157 -214.105251 
L 147.415117 -210.264191 
L 145.712077 -206.694552 
L 144.009037 -205.119077 
L 142.305997 -205.516718 
L 140.602957 -206.500997 
L 138.899916 -206.659105 
L 137.196876 -205.797587 
L 135.493836 -204.855844 
L 133.790796 -205.437735 
L 132.087756 -207.585089 
L 130.384716 -209.772382 
L 128.681676 -210.04819 
L 126.978636 -207.804715 
L 125.275596 -204.697343 
L 123.572556 -203.165767 
L 121.869516 -205.305045 
L 120.166476 -210.43768 
L 118.463436 -215.82444 
L 116.760396 -218.963965 
L 115.057356 -219.172352 
L 113.354315 -218.036095 
L 111.651275 -217.571076 
L 109.948235 -218.760027 
L 108.245195 -220.512023 
L 106.542155 -220.625628 
L 104.839115 -218.063431 
L 103.136075 -213.841078 
L 101.433035 -210.32469 
L 99.729995 -209.912965 
L 98.026955 -213.353117 
L 96.323915 -218.401367 
L 94.620875 -222.30328 
L 92.917835 -223.588083 
L 91.214795 -223.175613 
L 89.511755 -223.064528 
L 87.808714 -224.670985 
L 86.105674 -227.587588 
L 84.402634 -229.494254 
L 82.699594 -227.69457 
L 80.996554 -222.376779 
L 79.293514 -216.272432 
L 77.590474 -212.717984 
L 75.887434 -214.023003 
L 74.184394 -219.8392 
L 72.481354 -227.925671 
L 70.778314 -235.325363 
L 69.075274 -240.100328 
L 67.372234 -242.53228 
L 65.669194 -243.866656 
L 63.966154 -244.885431 
L 62.263113 -245.064413 
L 60.560073 -243.442092 
L 58.857033 -239.896781 
L 57.153993 -235.431792 
L 55.450953 -231.993164 
L 53.747913 -231.16976 
L 52.044873 -233.161086 
L 50.341833 -236.347375 
L 48.638793 -238.629064 
L 46.935753 -239.020814 
L 45.232713 -238.139096 
L 43.529673 -237.575623 
L 41.826633 -238.7092 
L 40.123593 -241.730479 
L 38.420552 -245.346119 
z
" style="stroke: #ff7f0e; stroke-opacity: 0.3"/>
    </defs>
    <g>
     <use xlink:href="#m6a1acb9b9b" x="0" y="432" style="fill: #ff7f0e; fill-opacity: 0.3; stroke: #ff7f0e; stroke-opacity: 0.3"/>
    </g>
   </g>
   <g id="line2d_21">
    <path d="M 38.420552 186.455212 
L 40.123593 198.525832 
L 41.826633 202.295805 
L 43.529673 197.32766 
L 45.232713 188.453768 
L 46.935753 182.280196 
L 48.638793 182.630876 
L 50.341833 188.397756 
L 52.044873 194.997723 
L 53.747913 198.131667 
L 55.450953 197.004201 
L 57.153993 194.631628 
L 58.857033 195.222921 
L 60.560073 200.786225 
L 62.263113 209.69389 
L 63.966154 217.812692 
L 65.669194 221.341975 
L 67.372234 219.147702 
L 69.075274 213.026874 
L 70.778314 206.1203 
L 72.481354 201.018111 
L 74.184394 198.699665 
L 75.887434 198.635129 
L 77.590474 199.527006 
L 79.293514 200.056748 
L 80.996554 199.052183 
L 82.699594 195.737211 
L 86.105674 184.937714 
L 87.808714 182.588839 
L 89.511755 186.182637 
L 91.214795 196.174068 
L 92.917835 209.619948 
L 94.620875 221.337203 
L 96.323915 226.785471 
L 98.026955 224.9013 
L 99.729995 218.883157 
L 101.433035 214.013598 
L 103.136075 214.194988 
L 104.839115 219.554267 
L 106.542155 226.649014 
L 108.245195 231.249128 
L 109.948235 231.320785 
L 113.354315 224.830685 
L 115.057356 223.852087 
L 116.760396 225.364647 
L 118.463436 227.657963 
L 120.166476 229.02138 
L 123.572556 229.45112 
L 125.275596 230.513135 
L 126.978636 231.975866 
L 128.681676 232.437073 
L 130.384716 231.375469 
L 132.087756 230.478953 
L 133.790796 233.131452 
L 135.493836 241.742437 
L 138.899916 267.414431 
L 140.602957 272.21004 
L 142.305997 265.693126 
L 144.009037 250.271223 
L 145.712077 233.289369 
L 147.415117 222.464256 
L 149.118157 220.953953 
L 150.821197 225.71997 
L 152.524237 230.141539 
L 154.227277 229.181103 
L 157.633357 217.250371 
L 159.336397 217.129998 
L 161.039437 224.134987 
L 162.742477 233.524817 
L 164.445517 237.484925 
L 166.148558 230.623982 
L 167.851598 214.080726 
L 169.554638 195.20323 
L 171.257678 183.008579 
L 172.960718 182.764319 
L 174.663758 193.205376 
L 176.366798 208.236282 
L 178.069838 221.551141 
L 179.772878 230.792054 
L 181.475918 238.52525 
L 183.178958 249.783206 
L 184.881998 268.159534 
L 186.585038 293.441685 
L 189.991118 348.468129 
L 191.694159 369.481069 
L 193.397199 383.132062 
L 195.100239 389.275377 
L 196.803279 388.476674 
L 198.506319 381.644275 
L 200.209359 370.16813 
L 210.427599 286.132617 
L 212.130639 272.825602 
L 217.23976 236.49382 
L 218.9428 219.637102 
L 220.64584 199.63009 
L 222.34888 181.247092 
L 224.05192 171.145646 
L 225.75496 173.125398 
L 229.16104 194.69744 
L 230.86408 194.512719 
L 232.56712 179.690795 
L 234.27016 156.478646 
L 235.9732 138.034074 
L 237.67624 135.922223 
L 239.37928 152.139943 
L 241.08232 177.476221 
L 242.785361 197.664884 
L 244.488401 202.995842 
L 246.191441 194.567521 
L 247.894481 182.650166 
L 249.597521 178.65039 
L 251.300561 187.061762 
L 253.003601 202.958088 
L 254.706641 216.480526 
L 256.409681 220.585823 
L 258.112721 215.755292 
L 259.815761 208.699739 
L 261.518801 206.434021 
L 263.221841 210.987085 
L 264.924881 218.775084 
L 266.627921 224.475032 
L 268.330962 225.887641 
L 270.034002 225.375545 
L 271.737042 227.040043 
L 275.143122 237.824932 
L 276.846162 238.070872 
L 278.549202 229.708185 
L 281.955282 200.64052 
L 283.658322 192.975674 
L 285.361362 193.285002 
L 287.064402 196.716287 
L 288.767442 195.752931 
L 290.470482 185.766719 
L 293.876563 151.411066 
L 295.579603 142.056228 
L 297.282643 144.032047 
L 298.985683 154.428219 
L 300.688723 166.037162 
L 302.391763 171.657843 
L 304.094803 167.911674 
L 305.797843 156.296608 
L 307.500883 141.664343 
L 309.203923 129.548385 
L 310.906963 123.936032 
L 312.610003 126.458964 
L 314.313043 136.315575 
L 317.719123 164.158619 
L 319.422164 171.549241 
L 321.125204 168.331684 
L 322.828244 154.1216 
L 324.531284 133.766623 
L 326.234324 115.779813 
L 327.937364 107.990646 
L 329.640404 112.824638 
L 331.343444 125.359102 
L 333.046484 135.976651 
L 334.749524 136.484863 
L 336.452564 125.820648 
L 338.155604 111.2127 
L 339.858644 103.659067 
L 341.561684 110.426237 
L 343.264724 129.821539 
L 344.967765 151.868751 
L 346.670805 164.810495 
L 348.373845 162.778397 
L 350.076885 149.28228 
L 351.779925 134.409024 
L 353.482965 127.785489 
L 355.186005 132.398982 
L 356.889045 143.603144 
L 358.592085 153.301499 
L 360.295125 155.874471 
L 361.998165 151.269942 
L 363.701205 143.677069 
L 365.404245 137.707215 
L 367.107285 135.306649 
L 368.810326 135.769031 
L 370.513366 137.911577 
L 372.216406 141.738815 
L 373.919446 147.882335 
L 375.622486 155.571138 
L 377.325526 161.387371 
L 379.028566 161.058737 
L 380.731606 152.952584 
L 382.434646 140.743744 
L 384.137686 132.323835 
L 385.840726 135.027262 
L 387.543766 150.529321 
L 389.246806 173.033794 
L 390.949846 192.582483 
L 392.652886 201.188088 
L 394.355927 197.643192 
L 396.058967 187.982636 
L 397.762007 181.281233 
L 399.465047 183.894169 
L 401.168087 195.922984 
L 402.871127 211.846066 
L 404.574167 224.307991 
L 406.277207 228.246261 
L 407.980247 223.221977 
L 411.386327 203.100358 
L 413.089367 198.490719 
L 414.792407 201.209132 
L 416.495447 209.785034 
L 418.198487 220.075664 
L 419.901528 227.052673 
L 421.604568 227.373199 
L 423.307608 221.350003 
L 425.010648 212.900342 
L 426.713688 207.569632 
L 428.416728 209.122291 
L 430.119768 217.127725 
L 431.822808 227.084135 
L 433.525848 233.221157 
L 435.228888 232.299762 
L 436.931928 225.72811 
L 438.634968 218.629912 
L 440.338008 216.507455 
L 442.041048 221.753776 
L 445.447129 242.624778 
L 447.150169 247.882506 
L 448.853209 245.901061 
L 450.556249 238.541938 
L 452.259289 230.523914 
L 453.962329 226.809081 
L 455.665369 230.151309 
L 457.368409 240.009911 
L 459.071449 252.811106 
L 460.774489 263.690985 
L 462.477529 268.817114 
L 464.180569 267.304097 
L 467.586649 256.262485 
L 469.289689 255.051732 
L 470.99273 258.79986 
L 472.69577 264.804268 
L 474.39881 268.914271 
L 476.10185 268.763122 
L 477.80489 265.849105 
L 479.50793 264.728775 
L 481.21097 269.52655 
L 482.91401 280.337139 
L 484.61705 292.292569 
L 486.32009 298.260392 
L 488.02313 293.705959 
L 489.72617 280.095681 
L 491.42921 264.451739 
L 493.13225 254.804464 
L 494.83529 255.036267 
L 496.538331 262.609919 
L 498.241371 270.876389 
L 499.944411 274.176873 
L 501.647451 271.88336 
L 503.350491 268.495371 
L 505.053531 269.802801 
L 506.756571 278.129082 
L 508.459611 290.307336 
L 510.162651 299.904621 
L 511.865691 301.755328 
L 513.568731 295.654961 
L 515.271771 286.277149 
L 516.974811 279.747176 
L 518.677851 279.74249 
L 520.380891 285.531169 
L 522.083932 293.17192 
L 523.786972 298.382481 
L 525.490012 298.93413 
L 527.193052 295.102991 
L 528.896092 288.538232 
L 530.599132 281.340572 
L 532.302172 275.943034 
L 534.005212 275.135277 
L 535.708252 281.375468 
L 537.411292 294.927883 
L 539.114332 312.150086 
L 540.817372 325.949563 
L 542.520412 329.263533 
L 544.223452 319.639874 
L 545.926492 301.878933 
L 547.629533 286.019629 
L 549.332573 281.489198 
L 551.035613 290.739631 
L 552.738653 307.002179 
L 554.441693 318.21754 
L 556.144733 314.752019 
L 557.847773 296.020382 
L 559.550813 271.342463 
L 561.253853 254.341887 
L 561.253853 254.341887 
" style="fill: none; stroke: #1f77b4; stroke-width: 1.5; stroke-linecap: square"/>
   </g>
   <g id="line2d_22">
    <path d="M 38.420552 188.745272 
L 40.123593 192.375441 
L 41.826633 195.384346 
L 43.529673 196.568019 
L 45.232713 196.027717 
L 46.935753 195.159954 
L 48.638793 195.608159 
L 50.341833 197.903415 
L 52.044873 200.969985 
L 53.747913 202.807217 
L 55.450953 201.954366 
L 57.153993 198.522477 
L 58.857033 194.092003 
L 60.560073 190.585914 
L 62.263113 189.042008 
L 63.966154 189.166503 
L 65.669194 190.071449 
L 67.372234 191.427911 
L 69.075274 193.964531 
L 70.778314 198.795783 
L 72.481354 206.084933 
L 74.184394 214.179225 
L 75.887434 220.127348 
L 77.590474 221.446977 
L 79.293514 217.866114 
L 80.996554 211.710198 
L 82.699594 206.497718 
L 84.402634 204.725422 
L 86.105674 206.357019 
L 87.808714 209.235222 
L 89.511755 210.995217 
L 91.214795 210.943102 
L 92.917835 210.497454 
L 94.620875 211.771271 
L 96.323915 215.604148 
L 98.026955 220.589433 
L 99.729995 223.985439 
L 101.433035 223.801733 
L 103.136075 220.339808 
L 104.839115 215.99307 
L 106.542155 213.416188 
L 108.245195 213.577617 
L 109.948235 215.251843 
L 111.651275 216.311315 
L 113.354315 215.731614 
L 115.057356 214.5265 
L 116.760396 214.867536 
L 118.463436 218.14976 
L 120.166476 223.590006 
L 121.869516 228.628931 
L 123.572556 230.762345 
L 125.275596 229.436107 
L 126.978636 226.380351 
L 128.681676 224.205467 
L 130.384716 224.457801 
L 133.790796 228.748192 
L 135.493836 229.393015 
L 137.196876 228.575217 
L 138.899916 227.618868 
L 140.602957 227.700974 
L 142.305997 228.667805 
L 144.009037 229.080097 
L 145.712077 227.522895 
L 147.415117 224.019971 
L 149.118157 220.256081 
L 150.821197 218.425033 
L 152.524237 219.567421 
L 154.227277 222.90566 
L 155.930317 226.503917 
L 157.633357 228.791641 
L 159.336397 229.538795 
L 161.039437 229.504094 
L 162.742477 229.23562 
L 164.445517 228.078404 
L 166.148558 224.427985 
L 167.851598 217.203115 
L 169.554638 207.345131 
L 171.257678 198.147709 
L 172.960718 193.915552 
L 174.663758 197.798167 
L 176.366798 210.143745 
L 178.069838 228.431579 
L 179.772878 248.721623 
L 181.475918 267.606772 
L 183.178958 283.538096 
L 184.881998 296.899552 
L 189.991118 333.42248 
L 191.694159 344.341011 
L 193.397199 352.317948 
L 195.100239 356.043513 
L 196.803279 355.285284 
L 198.506319 351.003859 
L 200.209359 344.850072 
L 205.318479 325.047361 
L 207.021519 316.608919 
L 208.724559 305.41492 
L 210.427599 291.309289 
L 213.833679 259.418806 
L 215.536719 245.506148 
L 217.23976 234.881753 
L 218.9428 227.563811 
L 222.34888 217.12472 
L 224.05192 210.148294 
L 225.75496 200.572577 
L 229.16104 178.596646 
L 230.86408 171.536101 
L 232.56712 170.175766 
L 234.27016 174.523806 
L 237.67624 189.843648 
L 239.37928 194.146064 
L 241.08232 194.198154 
L 244.488401 188.75047 
L 246.191441 188.673998 
L 247.894481 191.980114 
L 251.300561 202.782344 
L 253.003601 206.254986 
L 254.706641 207.590585 
L 256.409681 207.942222 
L 258.112721 208.850573 
L 259.815761 211.025422 
L 261.518801 213.904622 
L 263.221841 216.02182 
L 264.924881 216.09722 
L 266.627921 213.960977 
L 268.330962 210.66835 
L 270.034002 207.885827 
L 271.737042 206.827445 
L 273.440082 207.570705 
L 275.143122 209.086761 
L 276.846162 209.983175 
L 278.549202 209.418211 
L 280.252242 207.549709 
L 281.955282 205.281892 
L 283.658322 203.522015 
L 285.361362 202.564865 
L 287.064402 202.010142 
L 288.767442 201.201246 
L 292.173522 198.627204 
L 293.876563 198.158731 
L 295.579603 198.825959 
L 297.282643 199.871957 
L 298.985683 199.678062 
L 300.688723 196.805003 
L 302.391763 191.22619 
L 304.094803 184.845349 
L 305.797843 180.729627 
L 307.500883 181.328665 
L 309.203923 186.803559 
L 310.906963 194.567449 
L 312.610003 200.484795 
L 314.313043 201.264366 
L 316.016083 196.35183 
L 317.719123 188.266166 
L 319.422164 181.059259 
L 321.125204 177.874092 
L 322.828244 179.239906 
L 324.531284 183.0771 
L 326.234324 186.283361 
L 327.937364 186.749701 
L 329.640404 184.378443 
L 331.343444 180.742919 
L 333.046484 177.7181 
L 334.749524 176.338162 
L 336.452564 176.471864 
L 338.155604 177.401127 
L 341.561684 179.590874 
L 343.264724 180.361315 
L 344.967765 180.490991 
L 346.670805 179.689024 
L 348.373845 178.206867 
L 350.076885 177.054484 
L 351.779925 177.59746 
L 353.482965 180.562893 
L 356.889045 190.458528 
L 358.592085 194.157249 
L 360.295125 196.145776 
L 361.998165 197.480141 
L 363.701205 199.641098 
L 367.107285 206.888248 
L 368.810326 208.994019 
L 370.513366 208.364801 
L 372.216406 205.86138 
L 373.919446 203.850229 
L 375.622486 204.548826 
L 377.325526 208.242572 
L 379.028566 212.779076 
L 380.731606 214.956271 
L 382.434646 212.760454 
L 384.137686 206.916527 
L 385.840726 200.554268 
L 387.543766 197.277473 
L 389.246806 199.048416 
L 390.949846 205.124096 
L 392.652886 212.754454 
L 394.355927 218.920187 
L 396.058967 221.970198 
L 397.762007 222.159021 
L 399.465047 221.021478 
L 401.168087 220.242634 
L 402.871127 220.737418 
L 404.574167 222.532125 
L 406.277207 225.150081 
L 409.683287 231.197622 
L 413.089367 237.761398 
L 416.495447 244.486815 
L 418.198487 247.59407 
L 419.901528 250.405674 
L 421.604568 252.828576 
L 423.307608 254.650075 
L 425.010648 255.551942 
L 426.713688 255.282697 
L 428.416728 253.897546 
L 430.119768 251.89135 
L 431.822808 250.13828 
L 433.525848 249.519188 
L 435.228888 250.443974 
L 436.931928 252.65425 
L 438.634968 255.377422 
L 440.338008 257.774043 
L 442.041048 259.418809 
L 443.744088 260.409276 
L 447.150169 261.819119 
L 448.853209 262.410143 
L 450.556249 262.616407 
L 453.962329 262.150907 
L 455.665369 262.785579 
L 457.368409 264.902094 
L 459.071449 268.44176 
L 460.774489 272.537916 
L 462.477529 275.952639 
L 464.180569 277.774887 
L 465.883609 277.909082 
L 467.586649 276.967364 
L 469.289689 275.737235 
L 470.99273 274.728678 
L 474.39881 273.17026 
L 479.50793 270.30224 
L 481.21097 269.934591 
L 482.91401 270.137112 
L 484.61705 270.890582 
L 486.32009 272.105927 
L 488.02313 273.554499 
L 489.72617 274.746269 
L 491.42921 275.055905 
L 493.13225 274.062531 
L 494.83529 272.095575 
L 496.538331 270.431885 
L 498.241371 270.768714 
L 499.944411 274.230055 
L 501.647451 280.389715 
L 503.350491 287.132992 
L 505.053531 291.622356 
L 506.756571 291.818314 
L 508.459611 287.6672 
L 511.865691 274.660271 
L 513.568731 270.697984 
L 515.271771 269.766312 
L 516.974811 271.106521 
L 523.786972 280.352037 
L 525.490012 282.409856 
L 527.193052 283.827151 
L 528.896092 284.014713 
L 530.599132 282.6936 
L 532.302172 280.228721 
L 534.005212 277.471171 
L 535.708252 275.312264 
L 537.411292 274.234167 
L 539.114332 274.106413 
L 542.520412 274.622118 
L 544.223452 274.606974 
L 545.926492 274.745865 
L 547.629533 275.664224 
L 549.332573 277.714608 
L 551.035613 280.456468 
L 552.738653 282.57494 
L 554.441693 282.463827 
L 556.144733 279.302314 
L 559.550813 268.870518 
L 561.253853 266.869702 
L 561.253853 266.869702 
" style="fill: none; stroke: #ff7f0e; stroke-width: 1.5; stroke-linecap: square"/>
   </g>
  </g>
  <g id="axes_2">
   <g id="PathCollection_1">
    <defs>
     <path id="C0_0_bea3dc6acc" d="M 0 1.118034 
C 0.296506 1.118034 0.580908 1.000231 0.790569 0.790569 
C 1.000231 0.580908 1.118034 0.296506 1.118034 -0 
C 1.118034 -0.296506 1.000231 -0.580908 0.790569 -0.790569 
C 0.580908 -1.000231 0.296506 -1.118034 0 -1.118034 
C -0.296506 -1.118034 -0.580908 -1.000231 -0.790569 -0.790569 
C -1.000231 -0.580908 -1.118034 -0.296506 -1.118034 0 
C -1.118034 0.296506 -1.000231 0.580908 -0.790569 0.790569 
C -0.580908 1.000231 -0.296506 1.118034 0 1.118034 
z
"/>
    </defs>
    <g clip-path="url(#pa98e392ba6)">
     <use xlink:href="#C0_0_bea3dc6acc" x="499.567875" y="98.954913" style="stroke: #000000"/>
    </g>
    <g clip-path="url(#pa98e392ba6)">
     <use xlink:href="#C0_0_bea3dc6acc" x="508.857445" y="99.041609" style="stroke: #000000"/>
    </g>
   </g>
   <g id="matplotlib.axis_3"/>
   <g id="matplotlib.axis_4"/>
   <g id="line2d_23">
    <path d="M 548.859194 73.63672 
L 548.781507 71.164689 
L 548.548754 68.702415 
L 548.161852 66.259613 
L 547.622329 63.845926 
L 546.932314 61.470879 
L 546.09453 59.143845 
L 545.112284 56.874007 
L 543.989451 54.670325 
L 542.730464 52.541494 
L 541.340291 50.495916 
L 539.824418 48.541664 
L 538.188828 46.686451 
L 536.439975 44.937599 
L 534.584762 43.302008 
L 532.630511 41.786136 
L 530.584933 40.395962 
L 528.456102 39.136975 
L 526.252419 38.014143 
L 523.982582 37.031896 
L 521.655547 36.194112 
L 519.2805 35.504097 
L 516.866813 34.964574 
L 514.424012 34.577673 
L 511.961737 34.344919 
L 509.489707 34.267233 
L 507.017676 34.344919 
L 504.555402 34.577673 
L 502.1126 34.964574 
L 499.698913 35.504097 
L 497.323866 36.194112 
L 494.996832 37.031896 
L 492.726994 38.014143 
L 490.523312 39.136975 
L 488.394481 40.395962 
L 486.348903 41.786136 
L 484.394651 43.302008 
L 482.539438 44.937599 
L 480.790586 46.686451 
L 479.154995 48.541664 
L 477.639123 50.495916 
L 476.248949 52.541494 
L 474.989962 54.670325 
L 473.86713 56.874007 
L 472.884883 59.143845 
L 472.047099 61.470879 
L 471.357084 63.845926 
L 470.817561 66.259613 
L 470.43066 68.702415 
L 470.197906 71.164689 
L 470.12022 73.63672 
L 470.197906 76.10875 
L 470.43066 78.571025 
L 470.817561 81.013826 
L 471.357084 83.427513 
L 472.047099 85.80256 
L 472.884883 88.129595 
L 473.86713 90.399432 
L 474.989962 92.603115 
L 476.248949 94.731946 
L 477.639123 96.777524 
L 479.154995 98.731775 
L 480.790586 100.586988 
L 482.539438 102.335841 
L 484.394651 103.971431 
L 486.348903 105.487304 
L 488.394481 106.877477 
L 490.523312 108.136464 
L 492.726994 109.259297 
L 494.996832 110.241543 
L 497.323866 111.079327 
L 499.698913 111.769342 
L 502.1126 112.308865 
L 504.555402 112.695767 
L 507.017676 112.92852 
L 509.489707 113.006207 
L 511.961737 112.92852 
L 514.424012 112.695767 
L 516.866813 112.308865 
L 519.2805 111.769342 
L 521.655547 111.079327 
L 523.982582 110.241543 
L 526.252419 109.259297 
L 528.456102 108.136464 
L 530.584933 106.877477 
L 532.630511 105.487304 
L 534.584762 103.971431 
L 536.439975 102.335841 
L 538.188828 100.586988 
L 539.824418 98.731775 
L 541.340291 96.777524 
L 542.730464 94.731946 
L 543.989451 92.603115 
L 545.112284 90.399432 
L 546.09453 88.129595 
L 546.932314 85.80256 
L 547.622329 83.427513 
L 548.161852 81.013826 
L 548.548754 78.571025 
L 548.781507 76.10875 
L 548.859194 73.63672 
" style="fill: none; stroke: #000000; stroke-linecap: square"/>
   </g>
   <g id="line2d_24">
    <path d="M 501.244181 35.140385 
L 509.489707 28.361809 
L 517.735233 35.140385 
" style="fill: none; stroke: #000000; stroke-linecap: square"/>
   </g>
   <g id="line2d_25">
    <path d="M 470.356436 69.266707 
L 469.33283 67.534449 
L 468.702918 67.471458 
L 467.765924 67.762792 
L 466.821057 69.266707 
L 466.970661 74.069784 
L 466.419488 80.975192 
L 467.600572 83.975147 
L 469.33283 84.534194 
L 470.986348 83.077523 
" style="fill: none; stroke: #000000; stroke-linecap: square"/>
   </g>
   <g id="line2d_26">
    <path d="M 548.622977 69.266707 
L 549.646584 67.534449 
L 550.276495 67.471458 
L 551.213489 67.762792 
L 552.158357 69.266707 
L 552.008753 74.069784 
L 552.559926 80.975192 
L 551.378841 83.975147 
L 549.646584 84.534194 
L 547.993065 83.077523 
" style="fill: none; stroke: #000000; stroke-linecap: square"/>
   </g>
  </g>
 </g>
 <defs>
  <clipPath id="p3dac9e1cba">
   <rect x="38.420552" y="18.118365" width="523.446395" height="380.525145"/>
  </clipPath>
  <clipPath id="pa98e392ba6">
   <rect x="462.112466" y="24.12959" width="94.754482" height="93.108837"/>
  </clipPath>
 </defs>
</svg>
