<?xml version="1.0" encoding="utf-8" standalone="no"?>
<!DOCTYPE svg PUBLIC "-//W3C//DTD SVG 1.1//EN"
  "http://www.w3.org/Graphics/SVG/1.1/DTD/svg11.dtd">
<svg xmlns:xlink="http://www.w3.org/1999/xlink" width="576pt" height="432pt" viewBox="0 0 576 432" xmlns="http://www.w3.org/2000/svg" version="1.1">
 <metadata>
  <rdf:RDF xmlns:dc="http://purl.org/dc/elements/1.1/" xmlns:cc="http://creativecommons.org/ns#" xmlns:rdf="http://www.w3.org/1999/02/22-rdf-syntax-ns#">
   <cc:Work>
    <dc:type rdf:resource="http://purl.org/dc/dcmitype/StillImage"/>
    <dc:date>2025-02-20T17:25:23.371277</dc:date>
    <dc:format>image/svg+xml</dc:format>
    <dc:creator>
     <cc:Agent>
      <dc:title>Matplotlib v3.10.0, https://matplotlib.org/</dc:title>
     </cc:Agent>
    </dc:creator>
   </cc:Work>
  </rdf:RDF>
 </metadata>
 <defs>
  <style type="text/css">*{stroke-linejoin: round; stroke-linecap: butt}</style>
 </defs>
 <g id="figure_1">
  <g id="patch_1">
   <path d="M 0 432 
L 576 432 
L 576 0 
L 0 0 
z
" style="fill: #ffffff"/>
  </g>
  <g id="axes_1">
   <g id="patch_2">
    <path d="M 38.420552 398.64351 
L 561.866948 398.64351 
L 561.866948 18.118365 
L 38.420552 18.118365 
L 38.420552 398.64351 
z
" style="fill: none; opacity: 0"/>
   </g>
   <g id="patch_3">
    <path d="M 38.420552 358.800436 
L 38.420552 57.961439 
" style="fill: none; stroke: #000000; stroke-width: 0.8; stroke-linejoin: miter; stroke-linecap: square"/>
   </g>
   <g id="LineCollection_1">
    <path d="M 178.206081 18.118365 
L 178.206081 398.64351 
" clip-path="url(#p23dc8aa336)" style="fill: none; stroke-dasharray: 3.7,1.6; stroke-dashoffset: 0; stroke: #000000"/>
    <path d="M 221.803907 18.118365 
L 221.803907 398.64351 
" clip-path="url(#p23dc8aa336)" style="fill: none; stroke-dasharray: 3.7,1.6; stroke-dashoffset: 0; stroke: #000000"/>
   </g>
   <g id="matplotlib.axis_1">
    <g id="xtick_1">
     <g id="line2d_1">
      <defs>
       <path id="m3216c6a178" d="M 0 0 
L 0 3.5 
" style="stroke: #000000; stroke-width: 0.8"/>
      </defs>
      <g>
       <use xlink:href="#m3216c6a178" x="38.693039" y="398.64351" style="stroke: #000000; stroke-width: 0.8"/>
      </g>
     </g>
     <g id="text_1">
      <!-- −0.20 -->
      <g transform="translate(23.370383 413.241947) scale(0.1 -0.1)">
       <defs>
        <path id="DejaVuSans-2212" d="M 678 2272 
L 4684 2272 
L 4684 1741 
L 678 1741 
L 678 2272 
z
" transform="scale(0.015625)"/>
        <path id="DejaVuSans-30" d="M 2034 4250 
Q 1547 4250 1301 3770 
Q 1056 3291 1056 2328 
Q 1056 1369 1301 889 
Q 1547 409 2034 409 
Q 2525 409 2770 889 
Q 3016 1369 3016 2328 
Q 3016 3291 2770 3770 
Q 2525 4250 2034 4250 
z
M 2034 4750 
Q 2819 4750 3233 4129 
Q 3647 3509 3647 2328 
Q 3647 1150 3233 529 
Q 2819 -91 2034 -91 
Q 1250 -91 836 529 
Q 422 1150 422 2328 
Q 422 3509 836 4129 
Q 1250 4750 2034 4750 
z
" transform="scale(0.015625)"/>
        <path id="DejaVuSans-2e" d="M 684 794 
L 1344 794 
L 1344 0 
L 684 0 
L 684 794 
z
" transform="scale(0.015625)"/>
        <path id="DejaVuSans-32" d="M 1228 531 
L 3431 531 
L 3431 0 
L 469 0 
L 469 531 
Q 828 903 1448 1529 
Q 2069 2156 2228 2338 
Q 2531 2678 2651 2914 
Q 2772 3150 2772 3378 
Q 2772 3750 2511 3984 
Q 2250 4219 1831 4219 
Q 1534 4219 1204 4116 
Q 875 4013 500 3803 
L 500 4441 
Q 881 4594 1212 4672 
Q 1544 4750 1819 4750 
Q 2544 4750 2975 4387 
Q 3406 4025 3406 3419 
Q 3406 3131 3298 2873 
Q 3191 2616 2906 2266 
Q 2828 2175 2409 1742 
Q 1991 1309 1228 531 
z
" transform="scale(0.015625)"/>
       </defs>
       <use xlink:href="#DejaVuSans-2212"/>
       <use xlink:href="#DejaVuSans-30" transform="translate(83.789062 0)"/>
       <use xlink:href="#DejaVuSans-2e" transform="translate(147.412109 0)"/>
       <use xlink:href="#DejaVuSans-32" transform="translate(179.199219 0)"/>
       <use xlink:href="#DejaVuSans-30" transform="translate(242.822266 0)"/>
      </g>
     </g>
    </g>
    <g id="xtick_2">
     <g id="line2d_2">
      <g>
       <use xlink:href="#m3216c6a178" x="125.88869" y="398.64351" style="stroke: #000000; stroke-width: 0.8"/>
      </g>
     </g>
     <g id="text_2">
      <!-- 0.00 -->
      <g transform="translate(114.755878 413.241947) scale(0.1 -0.1)">
       <use xlink:href="#DejaVuSans-30"/>
       <use xlink:href="#DejaVuSans-2e" transform="translate(63.623047 0)"/>
       <use xlink:href="#DejaVuSans-30" transform="translate(95.410156 0)"/>
       <use xlink:href="#DejaVuSans-30" transform="translate(159.033203 0)"/>
      </g>
     </g>
    </g>
    <g id="xtick_3">
     <g id="line2d_3">
      <g>
       <use xlink:href="#m3216c6a178" x="178.206081" y="398.64351" style="stroke: #000000; stroke-width: 0.8"/>
      </g>
     </g>
     <g id="text_3">
      <!-- 0.12 -->
      <g transform="translate(167.073269 413.241947) scale(0.1 -0.1)">
       <defs>
        <path id="DejaVuSans-31" d="M 794 531 
L 1825 531 
L 1825 4091 
L 703 3866 
L 703 4441 
L 1819 4666 
L 2450 4666 
L 2450 531 
L 3481 531 
L 3481 0 
L 794 0 
L 794 531 
z
" transform="scale(0.015625)"/>
       </defs>
       <use xlink:href="#DejaVuSans-30"/>
       <use xlink:href="#DejaVuSans-2e" transform="translate(63.623047 0)"/>
       <use xlink:href="#DejaVuSans-31" transform="translate(95.410156 0)"/>
       <use xlink:href="#DejaVuSans-32" transform="translate(159.033203 0)"/>
      </g>
     </g>
    </g>
    <g id="xtick_4">
     <g id="line2d_4">
      <g>
       <use xlink:href="#m3216c6a178" x="213.084342" y="398.64351" style="stroke: #000000; stroke-width: 0.8"/>
      </g>
     </g>
     <g id="text_4">
      <!-- 0.20 -->
      <g transform="translate(201.951529 413.241947) scale(0.1 -0.1)">
       <use xlink:href="#DejaVuSans-30"/>
       <use xlink:href="#DejaVuSans-2e" transform="translate(63.623047 0)"/>
       <use xlink:href="#DejaVuSans-32" transform="translate(95.410156 0)"/>
       <use xlink:href="#DejaVuSans-30" transform="translate(159.033203 0)"/>
      </g>
     </g>
    </g>
    <g id="xtick_5">
     <g id="line2d_5">
      <g>
       <use xlink:href="#m3216c6a178" x="221.803907" y="398.64351" style="stroke: #000000; stroke-width: 0.8"/>
      </g>
     </g>
     <g id="text_5">
      <!-- 0.22 -->
      <g transform="translate(210.671094 413.241947) scale(0.1 -0.1)">
       <use xlink:href="#DejaVuSans-30"/>
       <use xlink:href="#DejaVuSans-2e" transform="translate(63.623047 0)"/>
       <use xlink:href="#DejaVuSans-32" transform="translate(95.410156 0)"/>
       <use xlink:href="#DejaVuSans-32" transform="translate(159.033203 0)"/>
      </g>
     </g>
    </g>
    <g id="xtick_6">
     <g id="line2d_6">
      <g>
       <use xlink:href="#m3216c6a178" x="300.279993" y="398.64351" style="stroke: #000000; stroke-width: 0.8"/>
      </g>
     </g>
     <g id="text_6">
      <!-- 0.40 -->
      <g transform="translate(289.147181 413.241947) scale(0.1 -0.1)">
       <defs>
        <path id="DejaVuSans-34" d="M 2419 4116 
L 825 1625 
L 2419 1625 
L 2419 4116 
z
M 2253 4666 
L 3047 4666 
L 3047 1625 
L 3713 1625 
L 3713 1100 
L 3047 1100 
L 3047 0 
L 2419 0 
L 2419 1100 
L 313 1100 
L 313 1709 
L 2253 4666 
z
" transform="scale(0.015625)"/>
       </defs>
       <use xlink:href="#DejaVuSans-30"/>
       <use xlink:href="#DejaVuSans-2e" transform="translate(63.623047 0)"/>
       <use xlink:href="#DejaVuSans-34" transform="translate(95.410156 0)"/>
       <use xlink:href="#DejaVuSans-30" transform="translate(159.033203 0)"/>
      </g>
     </g>
    </g>
    <g id="xtick_7">
     <g id="line2d_7">
      <g>
       <use xlink:href="#m3216c6a178" x="387.475645" y="398.64351" style="stroke: #000000; stroke-width: 0.8"/>
      </g>
     </g>
     <g id="text_7">
      <!-- 0.60 -->
      <g transform="translate(376.342832 413.241947) scale(0.1 -0.1)">
       <defs>
        <path id="DejaVuSans-36" d="M 2113 2584 
Q 1688 2584 1439 2293 
Q 1191 2003 1191 1497 
Q 1191 994 1439 701 
Q 1688 409 2113 409 
Q 2538 409 2786 701 
Q 3034 994 3034 1497 
Q 3034 2003 2786 2293 
Q 2538 2584 2113 2584 
z
M 3366 4563 
L 3366 3988 
Q 3128 4100 2886 4159 
Q 2644 4219 2406 4219 
Q 1781 4219 1451 3797 
Q 1122 3375 1075 2522 
Q 1259 2794 1537 2939 
Q 1816 3084 2150 3084 
Q 2853 3084 3261 2657 
Q 3669 2231 3669 1497 
Q 3669 778 3244 343 
Q 2819 -91 2113 -91 
Q 1303 -91 875 529 
Q 447 1150 447 2328 
Q 447 3434 972 4092 
Q 1497 4750 2381 4750 
Q 2619 4750 2861 4703 
Q 3103 4656 3366 4563 
z
" transform="scale(0.015625)"/>
       </defs>
       <use xlink:href="#DejaVuSans-30"/>
       <use xlink:href="#DejaVuSans-2e" transform="translate(63.623047 0)"/>
       <use xlink:href="#DejaVuSans-36" transform="translate(95.410156 0)"/>
       <use xlink:href="#DejaVuSans-30" transform="translate(159.033203 0)"/>
      </g>
     </g>
    </g>
    <g id="xtick_8">
     <g id="line2d_8">
      <g>
       <use xlink:href="#m3216c6a178" x="474.671296" y="398.64351" style="stroke: #000000; stroke-width: 0.8"/>
      </g>
     </g>
     <g id="text_8">
      <!-- 0.80 -->
      <g transform="translate(463.538484 413.241947) scale(0.1 -0.1)">
       <defs>
        <path id="DejaVuSans-38" d="M 2034 2216 
Q 1584 2216 1326 1975 
Q 1069 1734 1069 1313 
Q 1069 891 1326 650 
Q 1584 409 2034 409 
Q 2484 409 2743 651 
Q 3003 894 3003 1313 
Q 3003 1734 2745 1975 
Q 2488 2216 2034 2216 
z
M 1403 2484 
Q 997 2584 770 2862 
Q 544 3141 544 3541 
Q 544 4100 942 4425 
Q 1341 4750 2034 4750 
Q 2731 4750 3128 4425 
Q 3525 4100 3525 3541 
Q 3525 3141 3298 2862 
Q 3072 2584 2669 2484 
Q 3125 2378 3379 2068 
Q 3634 1759 3634 1313 
Q 3634 634 3220 271 
Q 2806 -91 2034 -91 
Q 1263 -91 848 271 
Q 434 634 434 1313 
Q 434 1759 690 2068 
Q 947 2378 1403 2484 
z
M 1172 3481 
Q 1172 3119 1398 2916 
Q 1625 2713 2034 2713 
Q 2441 2713 2670 2916 
Q 2900 3119 2900 3481 
Q 2900 3844 2670 4047 
Q 2441 4250 2034 4250 
Q 1625 4250 1398 4047 
Q 1172 3844 1172 3481 
z
" transform="scale(0.015625)"/>
       </defs>
       <use xlink:href="#DejaVuSans-30"/>
       <use xlink:href="#DejaVuSans-2e" transform="translate(63.623047 0)"/>
       <use xlink:href="#DejaVuSans-38" transform="translate(95.410156 0)"/>
       <use xlink:href="#DejaVuSans-30" transform="translate(159.033203 0)"/>
      </g>
     </g>
    </g>
    <g id="xtick_9">
     <g id="line2d_9">
      <g>
       <use xlink:href="#m3216c6a178" x="561.866948" y="398.64351" style="stroke: #000000; stroke-width: 0.8"/>
      </g>
     </g>
     <g id="text_9">
      <!-- 1.00 -->
      <g transform="translate(550.734135 413.241947) scale(0.1 -0.1)">
       <use xlink:href="#DejaVuSans-31"/>
       <use xlink:href="#DejaVuSans-2e" transform="translate(63.623047 0)"/>
       <use xlink:href="#DejaVuSans-30" transform="translate(95.410156 0)"/>
       <use xlink:href="#DejaVuSans-30" transform="translate(159.033203 0)"/>
      </g>
     </g>
    </g>
    <g id="text_10">
     <!-- Time (s) -->
     <g transform="translate(279.814844 426.920073) scale(0.1 -0.1)">
      <defs>
       <path id="DejaVuSans-54" d="M -19 4666 
L 3928 4666 
L 3928 4134 
L 2272 4134 
L 2272 0 
L 1638 0 
L 1638 4134 
L -19 4134 
L -19 4666 
z
" transform="scale(0.015625)"/>
       <path id="DejaVuSans-69" d="M 603 3500 
L 1178 3500 
L 1178 0 
L 603 0 
L 603 3500 
z
M 603 4863 
L 1178 4863 
L 1178 4134 
L 603 4134 
L 603 4863 
z
" transform="scale(0.015625)"/>
       <path id="DejaVuSans-6d" d="M 3328 2828 
Q 3544 3216 3844 3400 
Q 4144 3584 4550 3584 
Q 5097 3584 5394 3201 
Q 5691 2819 5691 2113 
L 5691 0 
L 5113 0 
L 5113 2094 
Q 5113 2597 4934 2840 
Q 4756 3084 4391 3084 
Q 3944 3084 3684 2787 
Q 3425 2491 3425 1978 
L 3425 0 
L 2847 0 
L 2847 2094 
Q 2847 2600 2669 2842 
Q 2491 3084 2119 3084 
Q 1678 3084 1418 2786 
Q 1159 2488 1159 1978 
L 1159 0 
L 581 0 
L 581 3500 
L 1159 3500 
L 1159 2956 
Q 1356 3278 1631 3431 
Q 1906 3584 2284 3584 
Q 2666 3584 2933 3390 
Q 3200 3197 3328 2828 
z
" transform="scale(0.015625)"/>
       <path id="DejaVuSans-65" d="M 3597 1894 
L 3597 1613 
L 953 1613 
Q 991 1019 1311 708 
Q 1631 397 2203 397 
Q 2534 397 2845 478 
Q 3156 559 3463 722 
L 3463 178 
Q 3153 47 2828 -22 
Q 2503 -91 2169 -91 
Q 1331 -91 842 396 
Q 353 884 353 1716 
Q 353 2575 817 3079 
Q 1281 3584 2069 3584 
Q 2775 3584 3186 3129 
Q 3597 2675 3597 1894 
z
M 3022 2063 
Q 3016 2534 2758 2815 
Q 2500 3097 2075 3097 
Q 1594 3097 1305 2825 
Q 1016 2553 972 2059 
L 3022 2063 
z
" transform="scale(0.015625)"/>
       <path id="DejaVuSans-20" transform="scale(0.015625)"/>
       <path id="DejaVuSans-28" d="M 1984 4856 
Q 1566 4138 1362 3434 
Q 1159 2731 1159 2009 
Q 1159 1288 1364 580 
Q 1569 -128 1984 -844 
L 1484 -844 
Q 1016 -109 783 600 
Q 550 1309 550 2009 
Q 550 2706 781 3412 
Q 1013 4119 1484 4856 
L 1984 4856 
z
" transform="scale(0.015625)"/>
       <path id="DejaVuSans-73" d="M 2834 3397 
L 2834 2853 
Q 2591 2978 2328 3040 
Q 2066 3103 1784 3103 
Q 1356 3103 1142 2972 
Q 928 2841 928 2578 
Q 928 2378 1081 2264 
Q 1234 2150 1697 2047 
L 1894 2003 
Q 2506 1872 2764 1633 
Q 3022 1394 3022 966 
Q 3022 478 2636 193 
Q 2250 -91 1575 -91 
Q 1294 -91 989 -36 
Q 684 19 347 128 
L 347 722 
Q 666 556 975 473 
Q 1284 391 1588 391 
Q 1994 391 2212 530 
Q 2431 669 2431 922 
Q 2431 1156 2273 1281 
Q 2116 1406 1581 1522 
L 1381 1569 
Q 847 1681 609 1914 
Q 372 2147 372 2553 
Q 372 3047 722 3315 
Q 1072 3584 1716 3584 
Q 2034 3584 2315 3537 
Q 2597 3491 2834 3397 
z
" transform="scale(0.015625)"/>
       <path id="DejaVuSans-29" d="M 513 4856 
L 1013 4856 
Q 1481 4119 1714 3412 
Q 1947 2706 1947 2009 
Q 1947 1309 1714 600 
Q 1481 -109 1013 -844 
L 513 -844 
Q 928 -128 1133 580 
Q 1338 1288 1338 2009 
Q 1338 2731 1133 3434 
Q 928 4138 513 4856 
z
" transform="scale(0.015625)"/>
      </defs>
      <use xlink:href="#DejaVuSans-54"/>
      <use xlink:href="#DejaVuSans-69" transform="translate(57.958984 0)"/>
      <use xlink:href="#DejaVuSans-6d" transform="translate(85.742188 0)"/>
      <use xlink:href="#DejaVuSans-65" transform="translate(183.154297 0)"/>
      <use xlink:href="#DejaVuSans-20" transform="translate(244.677734 0)"/>
      <use xlink:href="#DejaVuSans-28" transform="translate(276.464844 0)"/>
      <use xlink:href="#DejaVuSans-73" transform="translate(315.478516 0)"/>
      <use xlink:href="#DejaVuSans-29" transform="translate(367.578125 0)"/>
     </g>
    </g>
   </g>
   <g id="matplotlib.axis_2">
    <g id="ytick_1">
     <g id="line2d_10">
      <defs>
       <path id="md6af61dae8" d="M 0 0 
L -3.5 0 
" style="stroke: #000000; stroke-width: 0.8"/>
      </defs>
      <g>
       <use xlink:href="#md6af61dae8" x="38.420552" y="358.800436" style="stroke: #000000; stroke-width: 0.8"/>
      </g>
     </g>
     <g id="text_11">
      <!-- −6 -->
      <g transform="translate(16.678365 362.599655) scale(0.1 -0.1)">
       <use xlink:href="#DejaVuSans-2212"/>
       <use xlink:href="#DejaVuSans-36" transform="translate(83.789062 0)"/>
      </g>
     </g>
    </g>
    <g id="ytick_2">
     <g id="line2d_11">
      <g>
       <use xlink:href="#md6af61dae8" x="38.420552" y="308.660603" style="stroke: #000000; stroke-width: 0.8"/>
      </g>
     </g>
     <g id="text_12">
      <!-- −4 -->
      <g transform="translate(16.678365 312.459822) scale(0.1 -0.1)">
       <use xlink:href="#DejaVuSans-2212"/>
       <use xlink:href="#DejaVuSans-34" transform="translate(83.789062 0)"/>
      </g>
     </g>
    </g>
    <g id="ytick_3">
     <g id="line2d_12">
      <g>
       <use xlink:href="#md6af61dae8" x="38.420552" y="258.52077" style="stroke: #000000; stroke-width: 0.8"/>
      </g>
     </g>
     <g id="text_13">
      <!-- −2 -->
      <g transform="translate(16.678365 262.319989) scale(0.1 -0.1)">
       <use xlink:href="#DejaVuSans-2212"/>
       <use xlink:href="#DejaVuSans-32" transform="translate(83.789062 0)"/>
      </g>
     </g>
    </g>
    <g id="ytick_4">
     <g id="line2d_13">
      <g>
       <use xlink:href="#md6af61dae8" x="38.420552" y="208.380937" style="stroke: #000000; stroke-width: 0.8"/>
      </g>
     </g>
     <g id="text_14">
      <!-- 0 -->
      <g transform="translate(25.058052 212.180156) scale(0.1 -0.1)">
       <use xlink:href="#DejaVuSans-30"/>
      </g>
     </g>
    </g>
    <g id="ytick_5">
     <g id="line2d_14">
      <g>
       <use xlink:href="#md6af61dae8" x="38.420552" y="158.241105" style="stroke: #000000; stroke-width: 0.8"/>
      </g>
     </g>
     <g id="text_15">
      <!-- 2 -->
      <g transform="translate(25.058052 162.040323) scale(0.1 -0.1)">
       <use xlink:href="#DejaVuSans-32"/>
      </g>
     </g>
    </g>
    <g id="ytick_6">
     <g id="line2d_15">
      <g>
       <use xlink:href="#md6af61dae8" x="38.420552" y="108.101272" style="stroke: #000000; stroke-width: 0.8"/>
      </g>
     </g>
     <g id="text_16">
      <!-- 4 -->
      <g transform="translate(25.058052 111.90049) scale(0.1 -0.1)">
       <use xlink:href="#DejaVuSans-34"/>
      </g>
     </g>
    </g>
    <g id="ytick_7">
     <g id="line2d_16">
      <g>
       <use xlink:href="#md6af61dae8" x="38.420552" y="57.961439" style="stroke: #000000; stroke-width: 0.8"/>
      </g>
     </g>
     <g id="text_17">
      <!-- 6 -->
      <g transform="translate(25.058052 61.760657) scale(0.1 -0.1)">
       <use xlink:href="#DejaVuSans-36"/>
      </g>
     </g>
    </g>
    <g id="text_18">
     <!-- µV -->
     <g transform="translate(10.598677 214.9825) rotate(-90) scale(0.1 -0.1)">
      <defs>
       <path id="DejaVuSans-b5" d="M 544 -1331 
L 544 3500 
L 1119 3500 
L 1119 1325 
Q 1119 872 1334 640 
Q 1550 409 1972 409 
Q 2434 409 2667 671 
Q 2900 934 2900 1459 
L 2900 3500 
L 3475 3500 
L 3475 806 
Q 3475 619 3529 530 
Q 3584 441 3700 441 
Q 3728 441 3778 458 
Q 3828 475 3916 513 
L 3916 50 
Q 3788 -22 3673 -56 
Q 3559 -91 3450 -91 
Q 3234 -91 3106 31 
Q 2978 153 2931 403 
Q 2775 156 2548 32 
Q 2322 -91 2016 -91 
Q 1697 -91 1473 31 
Q 1250 153 1119 397 
L 1119 -1331 
L 544 -1331 
z
" transform="scale(0.015625)"/>
       <path id="DejaVuSans-56" d="M 1831 0 
L 50 4666 
L 709 4666 
L 2188 738 
L 3669 4666 
L 4325 4666 
L 2547 0 
L 1831 0 
z
" transform="scale(0.015625)"/>
      </defs>
      <use xlink:href="#DejaVuSans-b5"/>
      <use xlink:href="#DejaVuSans-56" transform="translate(63.623047 0)"/>
     </g>
    </g>
   </g>
   <g id="patch_4">
    <path d="M 38.693039 398.64351 
L 561.866948 398.64351 
" style="fill: none; stroke: #000000; stroke-width: 0.8; stroke-linejoin: miter; stroke-linecap: square"/>
   </g>
   <g id="patch_5">
    <path d="M 38.420552 208.380937 
L 561.866948 208.380937 
" style="fill: none; stroke: #000000; stroke-width: 0.8; stroke-linejoin: miter; stroke-linecap: square"/>
   </g>
   <g id="text_19">
    <!-- F3, F7 (median) -->
    <g transform="translate(252.712813 12.118365) scale(0.12 -0.12)">
     <defs>
      <path id="DejaVuSans-46" d="M 628 4666 
L 3309 4666 
L 3309 4134 
L 1259 4134 
L 1259 2759 
L 3109 2759 
L 3109 2228 
L 1259 2228 
L 1259 0 
L 628 0 
L 628 4666 
z
" transform="scale(0.015625)"/>
      <path id="DejaVuSans-33" d="M 2597 2516 
Q 3050 2419 3304 2112 
Q 3559 1806 3559 1356 
Q 3559 666 3084 287 
Q 2609 -91 1734 -91 
Q 1441 -91 1130 -33 
Q 819 25 488 141 
L 488 750 
Q 750 597 1062 519 
Q 1375 441 1716 441 
Q 2309 441 2620 675 
Q 2931 909 2931 1356 
Q 2931 1769 2642 2001 
Q 2353 2234 1838 2234 
L 1294 2234 
L 1294 2753 
L 1863 2753 
Q 2328 2753 2575 2939 
Q 2822 3125 2822 3475 
Q 2822 3834 2567 4026 
Q 2313 4219 1838 4219 
Q 1578 4219 1281 4162 
Q 984 4106 628 3988 
L 628 4550 
Q 988 4650 1302 4700 
Q 1616 4750 1894 4750 
Q 2613 4750 3031 4423 
Q 3450 4097 3450 3541 
Q 3450 3153 3228 2886 
Q 3006 2619 2597 2516 
z
" transform="scale(0.015625)"/>
      <path id="DejaVuSans-2c" d="M 750 794 
L 1409 794 
L 1409 256 
L 897 -744 
L 494 -744 
L 750 256 
L 750 794 
z
" transform="scale(0.015625)"/>
      <path id="DejaVuSans-37" d="M 525 4666 
L 3525 4666 
L 3525 4397 
L 1831 0 
L 1172 0 
L 2766 4134 
L 525 4134 
L 525 4666 
z
" transform="scale(0.015625)"/>
      <path id="DejaVuSans-64" d="M 2906 2969 
L 2906 4863 
L 3481 4863 
L 3481 0 
L 2906 0 
L 2906 525 
Q 2725 213 2448 61 
Q 2172 -91 1784 -91 
Q 1150 -91 751 415 
Q 353 922 353 1747 
Q 353 2572 751 3078 
Q 1150 3584 1784 3584 
Q 2172 3584 2448 3432 
Q 2725 3281 2906 2969 
z
M 947 1747 
Q 947 1113 1208 752 
Q 1469 391 1925 391 
Q 2381 391 2643 752 
Q 2906 1113 2906 1747 
Q 2906 2381 2643 2742 
Q 2381 3103 1925 3103 
Q 1469 3103 1208 2742 
Q 947 2381 947 1747 
z
" transform="scale(0.015625)"/>
      <path id="DejaVuSans-61" d="M 2194 1759 
Q 1497 1759 1228 1600 
Q 959 1441 959 1056 
Q 959 750 1161 570 
Q 1363 391 1709 391 
Q 2188 391 2477 730 
Q 2766 1069 2766 1631 
L 2766 1759 
L 2194 1759 
z
M 3341 1997 
L 3341 0 
L 2766 0 
L 2766 531 
Q 2569 213 2275 61 
Q 1981 -91 1556 -91 
Q 1019 -91 701 211 
Q 384 513 384 1019 
Q 384 1609 779 1909 
Q 1175 2209 1959 2209 
L 2766 2209 
L 2766 2266 
Q 2766 2663 2505 2880 
Q 2244 3097 1772 3097 
Q 1472 3097 1187 3025 
Q 903 2953 641 2809 
L 641 3341 
Q 956 3463 1253 3523 
Q 1550 3584 1831 3584 
Q 2591 3584 2966 3190 
Q 3341 2797 3341 1997 
z
" transform="scale(0.015625)"/>
      <path id="DejaVuSans-6e" d="M 3513 2113 
L 3513 0 
L 2938 0 
L 2938 2094 
Q 2938 2591 2744 2837 
Q 2550 3084 2163 3084 
Q 1697 3084 1428 2787 
Q 1159 2491 1159 1978 
L 1159 0 
L 581 0 
L 581 3500 
L 1159 3500 
L 1159 2956 
Q 1366 3272 1645 3428 
Q 1925 3584 2291 3584 
Q 2894 3584 3203 3211 
Q 3513 2838 3513 2113 
z
" transform="scale(0.015625)"/>
     </defs>
     <use xlink:href="#DejaVuSans-46"/>
     <use xlink:href="#DejaVuSans-33" transform="translate(57.519531 0)"/>
     <use xlink:href="#DejaVuSans-2c" transform="translate(121.142578 0)"/>
     <use xlink:href="#DejaVuSans-20" transform="translate(152.929688 0)"/>
     <use xlink:href="#DejaVuSans-46" transform="translate(184.716797 0)"/>
     <use xlink:href="#DejaVuSans-37" transform="translate(242.236328 0)"/>
     <use xlink:href="#DejaVuSans-20" transform="translate(305.859375 0)"/>
     <use xlink:href="#DejaVuSans-28" transform="translate(337.646484 0)"/>
     <use xlink:href="#DejaVuSans-6d" transform="translate(376.660156 0)"/>
     <use xlink:href="#DejaVuSans-65" transform="translate(474.072266 0)"/>
     <use xlink:href="#DejaVuSans-64" transform="translate(535.595703 0)"/>
     <use xlink:href="#DejaVuSans-69" transform="translate(599.072266 0)"/>
     <use xlink:href="#DejaVuSans-61" transform="translate(626.855469 0)"/>
     <use xlink:href="#DejaVuSans-6e" transform="translate(688.134766 0)"/>
     <use xlink:href="#DejaVuSans-29" transform="translate(751.513672 0)"/>
    </g>
   </g>
   <g id="legend_1">
    <g id="patch_6">
     <path d="M 45.420552 55.75274 
L 126.56274 55.75274 
Q 128.56274 55.75274 128.56274 53.75274 
L 128.56274 25.118365 
Q 128.56274 23.118365 126.56274 23.118365 
L 45.420552 23.118365 
Q 43.420552 23.118365 43.420552 25.118365 
L 43.420552 53.75274 
Q 43.420552 55.75274 45.420552 55.75274 
z
" style="fill: #ffffff; opacity: 0.8; stroke: #cccccc; stroke-linejoin: miter"/>
    </g>
    <g id="line2d_17">
     <path d="M 47.420552 31.216803 
L 57.420552 31.216803 
L 67.420552 31.216803 
" style="fill: none; stroke: #1f77b4; stroke-width: 1.5; stroke-linecap: square"/>
    </g>
    <g id="text_20">
     <!-- eerie -->
     <g transform="translate(75.420552 34.716803) scale(0.1 -0.1)">
      <defs>
       <path id="DejaVuSans-72" d="M 2631 2963 
Q 2534 3019 2420 3045 
Q 2306 3072 2169 3072 
Q 1681 3072 1420 2755 
Q 1159 2438 1159 1844 
L 1159 0 
L 581 0 
L 581 3500 
L 1159 3500 
L 1159 2956 
Q 1341 3275 1631 3429 
Q 1922 3584 2338 3584 
Q 2397 3584 2469 3576 
Q 2541 3569 2628 3553 
L 2631 2963 
z
" transform="scale(0.015625)"/>
      </defs>
      <use xlink:href="#DejaVuSans-65"/>
      <use xlink:href="#DejaVuSans-65" transform="translate(61.523438 0)"/>
      <use xlink:href="#DejaVuSans-72" transform="translate(123.046875 0)"/>
      <use xlink:href="#DejaVuSans-69" transform="translate(164.160156 0)"/>
      <use xlink:href="#DejaVuSans-65" transform="translate(191.943359 0)"/>
     </g>
    </g>
    <g id="line2d_18">
     <path d="M 47.420552 45.894928 
L 57.420552 45.894928 
L 67.420552 45.894928 
" style="fill: none; stroke: #ff7f0e; stroke-width: 1.5; stroke-linecap: square"/>
    </g>
    <g id="text_21">
     <!-- non_eerie -->
     <g transform="translate(75.420552 49.394928) scale(0.1 -0.1)">
      <defs>
       <path id="DejaVuSans-6f" d="M 1959 3097 
Q 1497 3097 1228 2736 
Q 959 2375 959 1747 
Q 959 1119 1226 758 
Q 1494 397 1959 397 
Q 2419 397 2687 759 
Q 2956 1122 2956 1747 
Q 2956 2369 2687 2733 
Q 2419 3097 1959 3097 
z
M 1959 3584 
Q 2709 3584 3137 3096 
Q 3566 2609 3566 1747 
Q 3566 888 3137 398 
Q 2709 -91 1959 -91 
Q 1206 -91 779 398 
Q 353 888 353 1747 
Q 353 2609 779 3096 
Q 1206 3584 1959 3584 
z
" transform="scale(0.015625)"/>
       <path id="DejaVuSans-5f" d="M 3263 -1063 
L 3263 -1509 
L -63 -1509 
L -63 -1063 
L 3263 -1063 
z
" transform="scale(0.015625)"/>
      </defs>
      <use xlink:href="#DejaVuSans-6e"/>
      <use xlink:href="#DejaVuSans-6f" transform="translate(63.378906 0)"/>
      <use xlink:href="#DejaVuSans-6e" transform="translate(124.560547 0)"/>
      <use xlink:href="#DejaVuSans-5f" transform="translate(187.939453 0)"/>
      <use xlink:href="#DejaVuSans-65" transform="translate(237.939453 0)"/>
      <use xlink:href="#DejaVuSans-65" transform="translate(299.462891 0)"/>
      <use xlink:href="#DejaVuSans-72" transform="translate(360.986328 0)"/>
      <use xlink:href="#DejaVuSans-69" transform="translate(402.099609 0)"/>
      <use xlink:href="#DejaVuSans-65" transform="translate(429.882812 0)"/>
     </g>
    </g>
   </g>
   <g id="FillBetweenPolyCollection_1">
    <defs>
     <path id="m72c140ab7d" d="M 38.420552 -245.410246 
L 38.420552 -233.612075 
L 40.123593 -224.751283 
L 41.826633 -214.595716 
L 43.529673 -207.57927 
L 45.232713 -207.2116 
L 46.935753 -213.035018 
L 48.638793 -220.429133 
L 50.341833 -224.091629 
L 52.044873 -220.517553 
L 53.747913 -212.085029 
L 55.450953 -203.656567 
L 57.153993 -199.43067 
L 58.857033 -201.046528 
L 60.560073 -206.194732 
L 62.263113 -211.567632 
L 63.966154 -214.624087 
L 65.669194 -216.249013 
L 67.372234 -218.449039 
L 69.075274 -222.617192 
L 70.778314 -227.641722 
L 72.481354 -231.119779 
L 74.184394 -231.523155 
L 75.887434 -228.424001 
L 77.590474 -223.577279 
L 79.293514 -219.304174 
L 80.996554 -217.420317 
L 82.699594 -217.667245 
L 84.402634 -218.969627 
L 86.105674 -220.560282 
L 87.808714 -223.000218 
L 89.511755 -226.933706 
L 91.214795 -232.667172 
L 92.917835 -239.166106 
L 94.620875 -243.306072 
L 96.323915 -243.006146 
L 98.026955 -236.862998 
L 99.729995 -226.320629 
L 101.433035 -214.873426 
L 103.136075 -206.121976 
L 104.839115 -202.270825 
L 106.542155 -203.426497 
L 108.245195 -207.987901 
L 109.948235 -213.098479 
L 111.651275 -216.245582 
L 113.354315 -215.988212 
L 115.057356 -212.813378 
L 116.760396 -210.096441 
L 118.463436 -210.761413 
L 120.166476 -216.242604 
L 121.869516 -224.53176 
L 123.572556 -232.120765 
L 125.275596 -234.590586 
L 126.978636 -229.296778 
L 128.681676 -219.335006 
L 130.384716 -209.608197 
L 132.087756 -205.939543 
L 133.790796 -210.085462 
L 135.493836 -219.457659 
L 137.196876 -228.682514 
L 138.899916 -233.375154 
L 140.602957 -231.008857 
L 142.305997 -223.826555 
L 144.009037 -215.525733 
L 145.712077 -210.52778 
L 147.415117 -211.618527 
L 149.118157 -216.905253 
L 150.821197 -225.18912 
L 152.524237 -233.895053 
L 154.227277 -240.694406 
L 155.930317 -243.946604 
L 157.633357 -243.139885 
L 159.336397 -238.677194 
L 161.039437 -232.813763 
L 162.742477 -228.884859 
L 164.445517 -229.454395 
L 166.148558 -233.936715 
L 167.851598 -239.834601 
L 169.554638 -244.268542 
L 171.257678 -245.629261 
L 172.960718 -244.442597 
L 174.663758 -243.659224 
L 176.366798 -244.494835 
L 178.069838 -245.34283 
L 179.772878 -241.752803 
L 181.475918 -229.527634 
L 183.178958 -208.05675 
L 184.881998 -181.622933 
L 186.585038 -157.291676 
L 188.288078 -142.242691 
L 189.991118 -139.416186 
L 191.694159 -145.738133 
L 193.397199 -155.853692 
L 195.100239 -165.933218 
L 196.803279 -174.782966 
L 198.506319 -184.914637 
L 200.209359 -199.231042 
L 201.912399 -217.243423 
L 203.615439 -236.489018 
L 205.318479 -252.227684 
L 207.021519 -261.933053 
L 208.724559 -267.20839 
L 210.427599 -271.134125 
L 212.130639 -277.490291 
L 213.833679 -286.708636 
L 215.536719 -295.08621 
L 217.23976 -298.951514 
L 218.9428 -296.002603 
L 220.64584 -287.165125 
L 222.34888 -277.019611 
L 224.05192 -270.994049 
L 225.75496 -271.198888 
L 227.458 -275.083808 
L 229.16104 -277.513993 
L 230.86408 -273.861343 
L 232.56712 -263.480668 
L 234.27016 -248.533026 
L 235.9732 -233.034357 
L 237.67624 -221.261865 
L 239.37928 -214.021078 
L 241.08232 -208.861723 
L 242.785361 -204.212144 
L 244.488401 -199.228095 
L 246.191441 -195.157123 
L 247.894481 -194.546222 
L 249.597521 -197.566867 
L 251.300561 -201.763553 
L 253.003601 -203.191697 
L 254.706641 -198.745062 
L 256.409681 -187.449798 
L 258.112721 -172.568494 
L 259.815761 -159.679448 
L 261.518801 -153.286729 
L 263.221841 -155.685098 
L 264.924881 -163.801609 
L 266.627921 -171.95558 
L 268.330962 -174.417365 
L 270.034002 -169.411517 
L 271.737042 -160.634141 
L 273.440082 -154.30265 
L 275.143122 -155.082776 
L 276.846162 -163.909314 
L 278.549202 -176.640811 
L 280.252242 -187.840503 
L 281.955282 -193.662665 
L 283.658322 -194.052329 
L 285.361362 -192.277914 
L 287.064402 -191.347653 
L 288.767442 -191.977677 
L 290.470482 -191.868946 
L 292.173522 -189.191479 
L 293.876563 -184.1154 
L 295.579603 -178.386973 
L 297.282643 -174.776652 
L 298.985683 -174.013263 
L 300.688723 -174.273419 
L 302.391763 -172.734741 
L 304.094803 -168.230142 
L 305.797843 -161.845389 
L 307.500883 -156.541061 
L 309.203923 -155.364158 
L 310.906963 -157.20219 
L 312.610003 -159.099869 
L 314.313043 -157.806863 
L 316.016083 -152.700327 
L 317.719123 -145.868226 
L 319.422164 -139.749263 
L 321.125204 -135.450186 
L 322.828244 -133.010619 
L 324.531284 -130.768619 
L 326.234324 -129.239651 
L 327.937364 -130.25583 
L 329.640404 -137.176239 
L 331.343444 -150.08023 
L 333.046484 -166.074383 
L 334.749524 -179.841674 
L 336.452564 -186.683466 
L 338.155604 -187.246952 
L 339.858644 -185.553509 
L 341.561684 -186.972975 
L 343.264724 -193.386249 
L 344.967765 -203.372326 
L 346.670805 -213.272742 
L 348.373845 -220.766772 
L 350.076885 -225.657212 
L 351.779925 -230.94079 
L 353.482965 -239.083465 
L 355.186005 -250.423903 
L 356.889045 -262.145359 
L 358.592085 -270.631109 
L 360.295125 -273.522796 
L 361.998165 -271.436953 
L 363.701205 -267.378273 
L 365.404245 -264.778709 
L 367.107285 -266.026753 
L 368.810326 -270.422173 
L 370.513366 -276.198425 
L 372.216406 -281.819392 
L 373.919446 -286.929102 
L 375.622486 -292.37246 
L 377.325526 -298.678477 
L 379.028566 -304.589705 
L 380.731606 -308.955166 
L 382.434646 -310.035726 
L 384.137686 -306.768958 
L 385.840726 -300.278868 
L 387.543766 -294.164782 
L 389.246806 -291.45122 
L 390.949846 -294.161062 
L 392.652886 -301.108224 
L 394.355927 -309.440128 
L 396.058967 -315.984338 
L 397.762007 -318.232621 
L 399.465047 -316.919793 
L 401.168087 -313.061818 
L 402.871127 -309.02476 
L 404.574167 -306.574649 
L 406.277207 -305.718148 
L 407.980247 -305.655156 
L 409.683287 -305.16803 
L 411.386327 -303.916282 
L 413.089367 -301.394441 
L 414.792407 -298.378783 
L 416.495447 -295.064262 
L 418.198487 -292.361095 
L 419.901528 -291.259676 
L 421.604568 -293.486076 
L 423.307608 -300.19309 
L 425.010648 -309.845272 
L 426.713688 -319.564999 
L 428.416728 -326.572596 
L 430.119768 -328.845932 
L 431.822808 -326.087339 
L 433.525848 -320.963906 
L 435.228888 -315.734133 
L 436.931928 -312.398955 
L 438.634968 -311.125155 
L 440.338008 -311.024385 
L 442.041048 -310.954263 
L 443.744088 -310.29015 
L 445.447129 -310.462821 
L 447.150169 -312.857007 
L 448.853209 -318.287144 
L 450.556249 -325.711881 
L 452.259289 -334.015728 
L 453.962329 -339.701276 
L 455.665369 -341.5228 
L 457.368409 -339.766899 
L 459.071449 -336.518685 
L 460.774489 -334.590795 
L 462.477529 -335.362326 
L 464.180569 -338.421443 
L 465.883609 -342.460456 
L 467.586649 -344.805022 
L 469.289689 -345.111987 
L 470.99273 -343.377031 
L 472.69577 -341.390901 
L 474.39881 -340.572127 
L 476.10185 -341.337351 
L 477.80489 -343.623096 
L 479.50793 -346.73479 
L 481.21097 -349.935659 
L 482.91401 -351.997529 
L 484.61705 -352.324205 
L 486.32009 -351.784225 
L 488.02313 -351.131747 
L 489.72617 -351.64047 
L 491.42921 -353.968685 
L 493.13225 -357.921287 
L 494.83529 -362.154885 
L 496.538331 -365.382372 
L 498.241371 -365.552159 
L 499.944411 -362.004183 
L 501.647451 -356.349314 
L 503.350491 -351.905028 
L 505.053531 -351.47618 
L 506.756571 -355.196152 
L 508.459611 -361.595592 
L 510.162651 -367.912966 
L 511.865691 -372.242419 
L 513.568731 -375.215083 
L 515.271771 -378.983429 
L 516.974811 -384.771591 
L 518.677851 -391.452342 
L 520.380891 -395.206921 
L 522.083932 -393.453664 
L 523.786972 -386.164533 
L 525.490012 -376.935653 
L 527.193052 -370.327182 
L 528.896092 -369.527063 
L 530.599132 -373.071705 
L 532.302172 -376.583804 
L 534.005212 -375.430258 
L 535.708252 -369.798045 
L 537.411292 -362.772729 
L 539.114332 -360.955619 
L 540.817372 -366.464208 
L 542.520412 -377.014432 
L 544.223452 -386.538288 
L 545.926492 -389.063958 
L 547.629533 -382.87652 
L 549.332573 -371.289253 
L 551.035613 -361.202253 
L 552.738653 -358.218982 
L 554.441693 -362.733248 
L 556.144733 -370.48323 
L 557.847773 -375.599875 
L 559.550813 -374.938975 
L 561.253853 -367.880335 
L 561.253853 -385.392165 
L 561.253853 -385.392165 
L 559.550813 -392.597887 
L 557.847773 -393.343059 
L 556.144733 -387.449785 
L 554.441693 -379.347676 
L 552.738653 -374.473224 
L 551.035613 -376.993493 
L 549.332573 -386.607982 
L 547.629533 -398.601319 
L 545.926492 -406.077499 
L 544.223452 -404.737621 
L 542.520412 -395.908692 
L 540.817372 -385.196196 
L 539.114332 -379.398333 
L 537.411292 -380.568663 
L 535.708252 -386.509492 
L 534.005212 -391.706227 
L 532.302172 -392.308704 
L 530.599132 -388.86807 
L 528.896092 -385.578194 
L 527.193052 -387.017842 
L 525.490012 -394.3746 
L 523.786972 -404.326928 
L 522.083932 -412.21228 
L 520.380891 -413.881635 
L 518.677851 -409.50889 
L 516.974811 -402.976297 
L 515.271771 -397.21883 
L 513.568731 -392.964958 
L 511.865691 -389.390165 
L 510.162651 -384.529626 
L 508.459611 -378.403776 
L 506.756571 -372.326692 
L 505.053531 -369.121424 
L 503.350491 -370.14533 
L 501.647451 -374.301495 
L 499.944411 -379.580792 
L 498.241371 -382.946354 
L 496.538331 -383.440158 
L 494.83529 -380.688151 
L 493.13225 -376.449344 
L 491.42921 -372.266252 
L 489.72617 -369.316392 
L 488.02313 -368.102128 
L 486.32009 -368.01957 
L 484.61705 -368.39067 
L 482.91401 -368.370547 
L 481.21097 -367.144086 
L 479.50793 -364.810217 
L 477.80489 -360.82134 
L 476.10185 -357.155257 
L 474.39881 -355.627003 
L 472.69577 -356.497389 
L 470.99273 -358.711879 
L 469.289689 -360.845753 
L 467.586649 -361.111631 
L 465.883609 -358.94983 
L 464.180569 -354.92932 
L 462.477529 -351.71916 
L 460.774489 -350.62207 
L 459.071449 -351.977154 
L 457.368409 -354.613863 
L 455.665369 -356.956367 
L 453.962329 -356.56301 
L 452.259289 -352.044879 
L 450.556249 -344.642732 
L 448.853209 -336.413568 
L 447.150169 -329.761121 
L 445.447129 -326.49181 
L 443.744088 -326.324038 
L 442.041048 -326.883806 
L 440.338008 -327.252473 
L 438.634968 -327.077232 
L 436.931928 -327.432427 
L 435.228888 -330.111091 
L 433.525848 -335.093161 
L 431.822808 -340.430697 
L 430.119768 -343.269901 
L 428.416728 -341.561124 
L 426.713688 -334.978721 
L 425.010648 -325.636854 
L 423.307608 -316.719216 
L 421.604568 -310.541052 
L 419.901528 -308.206614 
L 418.198487 -308.508775 
L 416.495447 -310.713993 
L 414.792407 -313.31294 
L 413.089367 -315.983622 
L 411.386327 -318.3985 
L 409.683287 -320.122956 
L 407.980247 -321.045258 
L 406.277207 -321.634571 
L 404.574167 -322.508453 
L 402.871127 -324.890974 
L 401.168087 -328.379932 
L 399.465047 -331.797437 
L 397.762007 -333.321021 
L 396.058967 -330.610535 
L 394.355927 -323.768419 
L 392.652886 -315.847807 
L 390.949846 -309.721161 
L 389.246806 -308.033331 
L 387.543766 -311.016922 
L 385.840726 -316.979039 
L 384.137686 -323.036656 
L 382.434646 -326.23556 
L 380.731606 -325.446427 
L 379.028566 -321.160759 
L 377.325526 -315.187687 
L 375.622486 -309.405957 
L 373.919446 -304.156223 
L 372.216406 -298.463932 
L 370.513366 -292.261436 
L 368.810326 -286.715235 
L 367.107285 -282.848586 
L 365.404245 -282.715398 
L 363.701205 -285.582539 
L 361.998165 -289.224562 
L 360.295125 -290.743699 
L 358.592085 -287.436368 
L 356.889045 -277.86764 
L 355.186005 -265.253888 
L 353.482965 -254.351315 
L 351.779925 -247.141599 
L 350.076885 -242.509233 
L 348.373845 -237.610431 
L 346.670805 -229.684149 
L 344.967765 -219.140656 
L 343.264724 -208.975938 
L 341.561684 -202.482115 
L 339.858644 -201.078955 
L 338.155604 -202.038329 
L 336.452564 -200.634345 
L 334.749524 -193.491351 
L 333.046484 -180.440913 
L 331.343444 -164.881253 
L 329.640404 -152.569608 
L 327.937364 -145.840339 
L 326.234324 -143.943503 
L 324.531284 -145.078789 
L 322.828244 -146.303072 
L 321.125204 -148.073387 
L 319.422164 -151.548628 
L 317.719123 -157.952117 
L 316.016083 -165.416807 
L 314.313043 -170.749686 
L 312.610003 -171.857904 
L 310.906963 -170.222028 
L 309.203923 -168.818207 
L 307.500883 -170.498303 
L 305.797843 -176.104142 
L 304.094803 -183.523507 
L 302.391763 -188.331382 
L 300.688723 -189.334513 
L 298.985683 -188.356121 
L 297.282643 -188.692443 
L 295.579603 -192.046248 
L 293.876563 -197.820079 
L 292.173522 -203.241168 
L 290.470482 -205.78783 
L 288.767442 -205.526381 
L 287.064402 -205.03322 
L 285.361362 -205.720741 
L 283.658322 -207.07903 
L 281.955282 -206.732269 
L 280.252242 -201.594666 
L 278.549202 -190.901866 
L 276.846162 -178.481187 
L 275.143122 -169.933188 
L 273.440082 -169.375706 
L 271.737042 -175.741979 
L 270.034002 -184.332544 
L 268.330962 -188.621586 
L 266.627921 -186.171733 
L 264.924881 -177.893279 
L 263.221841 -169.640368 
L 261.518801 -166.830743 
L 259.815761 -172.778701 
L 258.112721 -186.437844 
L 256.409681 -202.223049 
L 254.706641 -213.572852 
L 253.003601 -217.566334 
L 251.300561 -215.261798 
L 249.597521 -210.891263 
L 247.894481 -208.123803 
L 246.191441 -209.117181 
L 244.488401 -213.517281 
L 242.785361 -218.63371 
L 241.08232 -223.424705 
L 239.37928 -228.294563 
L 237.67624 -235.371378 
L 235.9732 -246.033255 
L 234.27016 -260.597569 
L 232.56712 -275.603771 
L 230.86408 -286.560623 
L 229.16104 -290.272047 
L 227.458 -288.067789 
L 225.75496 -284.499895 
L 224.05192 -284.579312 
L 222.34888 -290.489575 
L 220.64584 -300.219081 
L 218.9428 -309.467573 
L 217.23976 -312.40517 
L 215.536719 -307.835752 
L 213.833679 -298.690399 
L 212.130639 -290.06339 
L 210.427599 -284.361997 
L 208.724559 -280.891102 
L 207.021519 -275.979893 
L 205.318479 -265.807666 
L 203.615439 -249.935916 
L 201.912399 -230.350501 
L 200.209359 -211.913687 
L 198.506319 -197.593085 
L 196.803279 -187.541788 
L 195.100239 -179.144442 
L 193.397199 -169.953443 
L 191.694159 -159.862783 
L 189.991118 -153.256669 
L 188.288078 -156.133931 
L 186.585038 -170.273998 
L 184.881998 -193.822254 
L 183.178958 -220.174773 
L 181.475918 -241.565186 
L 179.772878 -253.420328 
L 178.069838 -256.77395 
L 176.366798 -255.836145 
L 174.663758 -255.250174 
L 172.960718 -256.594236 
L 171.257678 -258.141718 
L 169.554638 -257.837326 
L 167.851598 -253.894713 
L 166.148558 -247.885544 
L 164.445517 -243.398612 
L 162.742477 -242.36251 
L 161.039437 -245.688184 
L 159.336397 -251.171641 
L 157.633357 -255.949149 
L 155.930317 -257.329616 
L 154.227277 -254.392155 
L 152.524237 -247.556752 
L 150.821197 -238.055129 
L 149.118157 -228.609444 
L 147.415117 -222.5518 
L 145.712077 -222.051464 
L 144.009037 -226.987461 
L 142.305997 -235.393199 
L 140.602957 -243.33961 
L 138.899916 -245.634068 
L 137.196876 -240.647539 
L 135.493836 -230.399353 
L 133.790796 -220.610461 
L 132.087756 -216.644808 
L 130.384716 -220.429189 
L 128.681676 -229.461653 
L 126.978636 -238.669019 
L 125.275596 -243.226008 
L 123.572556 -241.24085 
L 121.869516 -234.100938 
L 120.166476 -226.070341 
L 118.463436 -220.955666 
L 116.760396 -220.519787 
L 115.057356 -222.549105 
L 113.354315 -224.751705 
L 111.651275 -225.014525 
L 109.948235 -222.142104 
L 108.245195 -216.989053 
L 106.542155 -212.534788 
L 104.839115 -211.640713 
L 103.136075 -216.085495 
L 101.433035 -224.853039 
L 99.729995 -235.833328 
L 98.026955 -245.679273 
L 96.323915 -251.289736 
L 94.620875 -251.748397 
L 92.917835 -247.91287 
L 91.214795 -241.819307 
L 89.511755 -236.392952 
L 87.808714 -232.4354 
L 86.105674 -229.730055 
L 84.402634 -227.623799 
L 82.699594 -225.769175 
L 80.996554 -225.484617 
L 79.293514 -227.855254 
L 77.590474 -232.670191 
L 75.887434 -237.972117 
L 74.184394 -241.06147 
L 72.481354 -240.083295 
L 70.778314 -235.747197 
L 69.075274 -230.945889 
L 67.372234 -227.875881 
L 65.669194 -226.347835 
L 63.966154 -224.471327 
L 62.263113 -220.481449 
L 60.560073 -214.900696 
L 58.857033 -209.555328 
L 57.153993 -207.94295 
L 55.450953 -212.286871 
L 53.747913 -221.172443 
L 52.044873 -229.930633 
L 50.341833 -233.533502 
L 48.638793 -230.791514 
L 46.935753 -223.818403 
L 45.232713 -217.952301 
L 43.529673 -218.217804 
L 41.826633 -225.561059 
L 40.123593 -235.997123 
L 38.420552 -245.410246 
z
" style="stroke: #1f77b4; stroke-opacity: 0.3"/>
    </defs>
    <g>
     <use xlink:href="#m72c140ab7d" x="0" y="432" style="fill: #1f77b4; fill-opacity: 0.3; stroke: #1f77b4; stroke-opacity: 0.3"/>
    </g>
   </g>
   <g id="FillBetweenPolyCollection_2">
    <defs>
     <path id="meac8d3507d" d="M 38.420552 -260.361231 
L 38.420552 -253.821125 
L 40.123593 -250.475841 
L 41.826633 -241.275139 
L 43.529673 -230.088909 
L 45.232713 -220.259036 
L 46.935753 -213.646156 
L 48.638793 -210.450602 
L 50.341833 -209.969502 
L 52.044873 -211.31885 
L 53.747913 -213.998931 
L 55.450953 -216.729176 
L 57.153993 -217.826753 
L 58.857033 -216.245089 
L 60.560073 -212.345116 
L 62.263113 -208.317826 
L 63.966154 -206.760579 
L 65.669194 -209.5892 
L 67.372234 -215.56481 
L 69.075274 -221.325787 
L 70.778314 -223.690883 
L 72.481354 -221.911693 
L 74.184394 -218.102637 
L 75.887434 -215.975284 
L 77.590474 -217.657617 
L 79.293514 -222.296746 
L 80.996554 -226.492379 
L 82.699594 -227.187566 
L 84.402634 -224.367022 
L 86.105674 -220.889488 
L 87.808714 -220.181482 
L 89.511755 -223.280578 
L 91.214795 -228.235867 
L 92.917835 -231.662751 
L 94.620875 -231.01043 
L 96.323915 -226.847042 
L 98.026955 -222.195444 
L 99.729995 -220.308023 
L 101.433035 -221.904883 
L 103.136075 -224.756999 
L 104.839115 -226.011221 
L 106.542155 -223.949986 
L 108.245195 -219.745817 
L 109.948235 -216.453617 
L 111.651275 -216.666677 
L 113.354315 -220.887486 
L 115.057356 -226.597961 
L 116.760396 -230.494022 
L 118.463436 -229.868742 
L 120.166476 -224.888885 
L 121.869516 -218.404696 
L 123.572556 -213.594445 
L 125.275596 -212.330868 
L 126.978636 -214.444793 
L 128.681676 -218.600981 
L 130.384716 -223.120756 
L 132.087756 -226.61385 
L 133.790796 -228.411536 
L 135.493836 -228.493502 
L 137.196876 -227.050715 
L 138.899916 -224.55793 
L 140.602957 -222.309724 
L 142.305997 -221.232571 
L 144.009037 -221.931099 
L 145.712077 -223.730926 
L 147.415117 -225.630117 
L 149.118157 -226.409141 
L 150.821197 -225.530336 
L 152.524237 -223.339936 
L 154.227277 -221.429009 
L 155.930317 -221.053415 
L 157.633357 -222.965044 
L 159.336397 -226.544153 
L 161.039437 -231.217726 
L 162.742477 -236.361766 
L 164.445517 -241.517856 
L 166.148558 -246.355045 
L 167.851598 -249.874231 
L 169.554638 -251.433363 
L 171.257678 -250.30459 
L 172.960718 -246.122213 
L 174.663758 -238.91933 
L 176.366798 -230.1418 
L 178.069838 -220.999433 
L 179.772878 -212.877881 
L 181.475918 -206.324413 
L 183.178958 -200.72416 
L 184.881998 -194.486179 
L 186.585038 -186.446317 
L 188.288078 -176.294185 
L 189.991118 -164.65085 
L 191.694159 -154.214672 
L 193.397199 -148.441483 
L 195.100239 -150.688979 
L 196.803279 -162.212962 
L 198.506319 -181.156134 
L 200.209359 -203.613898 
L 201.912399 -225.197214 
L 203.615439 -242.144115 
L 205.318479 -253.427183 
L 207.021519 -260.936948 
L 208.724559 -267.068869 
L 210.427599 -273.45165 
L 212.130639 -280.588947 
L 213.833679 -287.210246 
L 215.536719 -292.082171 
L 217.23976 -294.050979 
L 218.9428 -293.236782 
L 220.64584 -290.184322 
L 222.34888 -285.569756 
L 224.05192 -280.087599 
L 225.75496 -273.938027 
L 227.458 -268.147808 
L 229.16104 -263.145597 
L 230.86408 -259.096527 
L 232.56712 -255.982921 
L 234.27016 -252.931572 
L 235.9732 -248.455567 
L 237.67624 -242.156818 
L 239.37928 -234.536083 
L 241.08232 -226.603586 
L 242.785361 -219.692253 
L 244.488401 -213.523374 
L 246.191441 -207.048245 
L 247.894481 -199.357987 
L 249.597521 -191.41169 
L 251.300561 -185.09158 
L 253.003601 -181.906197 
L 254.706641 -182.047402 
L 256.409681 -183.615426 
L 258.112721 -183.948166 
L 259.815761 -181.712479 
L 261.518801 -177.118981 
L 263.221841 -172.678006 
L 264.924881 -171.011212 
L 266.627921 -172.913509 
L 268.330962 -176.753656 
L 270.034002 -179.22729 
L 271.737042 -178.54508 
L 273.440082 -175.68084 
L 275.143122 -173.452272 
L 276.846162 -174.736516 
L 278.549202 -180.067712 
L 280.252242 -186.70119 
L 281.955282 -190.961351 
L 283.658322 -190.212774 
L 285.361362 -185.068281 
L 287.064402 -179.577066 
L 288.767442 -177.45563 
L 290.470482 -180.43067 
L 292.173522 -187.234295 
L 293.876563 -194.616192 
L 295.579603 -199.476225 
L 297.282643 -200.646111 
L 298.985683 -199.344532 
L 300.688723 -196.768063 
L 302.391763 -194.121294 
L 304.094803 -191.306341 
L 305.797843 -188.524006 
L 307.500883 -186.147958 
L 309.203923 -184.916454 
L 310.906963 -184.975029 
L 312.610003 -185.443312 
L 314.313043 -184.649843 
L 316.016083 -180.764439 
L 317.719123 -174.223807 
L 319.422164 -167.787988 
L 321.125204 -165.224378 
L 322.828244 -168.937034 
L 324.531284 -178.233925 
L 326.234324 -189.587003 
L 327.937364 -198.440463 
L 329.640404 -201.568766 
L 331.343444 -199.317158 
L 333.046484 -195.201181 
L 334.749524 -193.459497 
L 336.452564 -196.494153 
L 338.155604 -203.754222 
L 339.858644 -212.034333 
L 341.561684 -218.348719 
L 343.264724 -221.466435 
L 344.967765 -222.413419 
L 346.670805 -223.85446 
L 348.373845 -228.198184 
L 350.076885 -235.482608 
L 351.779925 -243.975782 
L 353.482965 -250.945841 
L 355.186005 -254.717776 
L 356.889045 -256.273467 
L 358.592085 -257.338183 
L 360.295125 -259.098538 
L 361.998165 -262.438228 
L 363.701205 -266.81678 
L 365.404245 -271.401775 
L 367.107285 -275.105438 
L 368.810326 -278.188395 
L 370.513366 -281.074579 
L 372.216406 -284.518945 
L 373.919446 -288.19657 
L 375.622486 -291.458608 
L 377.325526 -293.723937 
L 379.028566 -295.05153 
L 380.731606 -296.497715 
L 382.434646 -298.9409 
L 384.137686 -303.074988 
L 385.840726 -308.453045 
L 387.543766 -313.455949 
L 389.246806 -316.789378 
L 390.949846 -317.190469 
L 392.652886 -315.14056 
L 394.355927 -312.013156 
L 396.058967 -309.772941 
L 397.762007 -310.164282 
L 399.465047 -313.845679 
L 401.168087 -319.840539 
L 402.871127 -326.167491 
L 404.574167 -330.991118 
L 406.277207 -333.25796 
L 407.980247 -333.068958 
L 409.683287 -331.263032 
L 411.386327 -329.770477 
L 413.089367 -329.833324 
L 414.792407 -332.063348 
L 416.495447 -336.0435 
L 418.198487 -341.117662 
L 419.901528 -346.244661 
L 421.604568 -350.851219 
L 423.307608 -354.606371 
L 425.010648 -357.233453 
L 426.713688 -358.128782 
L 428.416728 -357.033982 
L 430.119768 -353.996015 
L 431.822808 -350.139104 
L 433.525848 -346.922996 
L 435.228888 -346.224722 
L 436.931928 -348.566559 
L 438.634968 -353.312765 
L 440.338008 -358.372372 
L 442.041048 -361.608958 
L 443.744088 -361.478837 
L 445.447129 -358.218458 
L 447.150169 -352.931055 
L 448.853209 -347.178335 
L 450.556249 -342.462043 
L 452.259289 -339.595523 
L 453.962329 -339.040742 
L 455.665369 -340.355261 
L 457.368409 -343.089013 
L 459.071449 -346.806345 
L 460.774489 -349.669747 
L 462.477529 -350.649199 
L 464.180569 -348.90652 
L 465.883609 -345.373657 
L 467.586649 -341.39687 
L 469.289689 -339.543276 
L 470.99273 -341.643507 
L 472.69577 -346.939818 
L 474.39881 -353.093812 
L 476.10185 -356.850947 
L 477.80489 -356.133135 
L 479.50793 -351.387706 
L 481.21097 -345.470237 
L 482.91401 -342.164425 
L 484.61705 -343.008352 
L 486.32009 -347.17485 
L 488.02313 -351.525403 
L 489.72617 -353.316608 
L 491.42921 -351.526257 
L 493.13225 -348.436244 
L 494.83529 -347.145464 
L 496.538331 -350.142005 
L 498.241371 -356.793737 
L 499.944411 -364.016825 
L 501.647451 -368.575328 
L 503.350491 -369.326489 
L 505.053531 -367.289028 
L 506.756571 -364.905188 
L 508.459611 -364.110434 
L 510.162651 -364.547553 
L 511.865691 -364.930587 
L 513.568731 -364.037374 
L 515.271771 -362.28198 
L 516.974811 -361.280819 
L 518.677851 -361.872761 
L 520.380891 -363.925967 
L 522.083932 -365.22625 
L 523.786972 -363.863912 
L 525.490012 -360.198489 
L 527.193052 -356.823611 
L 528.896092 -356.518266 
L 530.599132 -360.133783 
L 532.302172 -365.548389 
L 534.005212 -368.412223 
L 535.708252 -365.395986 
L 537.411292 -356.490736 
L 539.114332 -345.253722 
L 540.817372 -337.248239 
L 542.520412 -336.090831 
L 544.223452 -342.135299 
L 545.926492 -351.516162 
L 547.629533 -358.704464 
L 549.332573 -360.074317 
L 551.035613 -355.46048 
L 552.738653 -346.99317 
L 554.441693 -339.063502 
L 556.144733 -334.914144 
L 557.847773 -335.552702 
L 559.550813 -340.520662 
L 561.253853 -347.855662 
L 561.253853 -356.940582 
L 561.253853 -356.940582 
L 559.550813 -349.489321 
L 557.847773 -344.259775 
L 556.144733 -343.480854 
L 554.441693 -347.656904 
L 552.738653 -355.784653 
L 551.035613 -364.370469 
L 549.332573 -369.321023 
L 547.629533 -368.055126 
L 545.926492 -360.726816 
L 544.223452 -351.395463 
L 542.520412 -345.204121 
L 540.817372 -346.086079 
L 539.114332 -354.139452 
L 537.411292 -365.417793 
L 535.708252 -374.553787 
L 534.005212 -377.450949 
L 532.302172 -374.530713 
L 530.599132 -369.134649 
L 528.896092 -365.746761 
L 527.193052 -366.171869 
L 525.490012 -369.634319 
L 523.786972 -373.088484 
L 522.083932 -374.256475 
L 520.380891 -372.982406 
L 518.677851 -371.358921 
L 516.974811 -370.997741 
L 515.271771 -372.130409 
L 513.568731 -373.810943 
L 511.865691 -374.52945 
L 510.162651 -373.749084 
L 508.459611 -372.84158 
L 506.756571 -373.464933 
L 505.053531 -375.825389 
L 503.350491 -377.875209 
L 501.647451 -377.557358 
L 499.944411 -373.297527 
L 498.241371 -366.32874 
L 496.538331 -359.551006 
L 494.83529 -356.265947 
L 493.13225 -357.326331 
L 491.42921 -360.260761 
L 489.72617 -362.071554 
L 488.02313 -360.538838 
L 486.32009 -356.331526 
L 484.61705 -352.436529 
L 482.91401 -352.025765 
L 481.21097 -355.765797 
L 479.50793 -361.860492 
L 477.80489 -366.648538 
L 476.10185 -367.310649 
L 474.39881 -363.0634 
L 472.69577 -356.417635 
L 470.99273 -350.835427 
L 469.289689 -348.894665 
L 467.586649 -350.637158 
L 465.883609 -354.64752 
L 464.180569 -358.569061 
L 462.477529 -360.346709 
L 460.774489 -359.323192 
L 459.071449 -356.554425 
L 457.368409 -353.195267 
L 455.665369 -350.203256 
L 453.962329 -348.809411 
L 452.259289 -349.208916 
L 450.556249 -351.825801 
L 448.853209 -356.374884 
L 447.150169 -361.90742 
L 445.447129 -366.947285 
L 443.744088 -370.108018 
L 442.041048 -370.197196 
L 440.338008 -367.211599 
L 438.634968 -362.420217 
L 436.931928 -358.176334 
L 435.228888 -356.144934 
L 433.525848 -356.746395 
L 431.822808 -359.685 
L 430.119768 -363.393513 
L 428.416728 -366.323994 
L 426.713688 -367.597528 
L 425.010648 -366.80111 
L 423.307608 -364.19086 
L 421.604568 -360.293506 
L 419.901528 -355.581199 
L 418.198487 -350.342764 
L 416.495447 -345.384348 
L 414.792407 -341.472586 
L 413.089367 -339.394992 
L 411.386327 -339.434526 
L 409.683287 -341.340044 
L 407.980247 -343.250786 
L 406.277207 -343.735058 
L 404.574167 -341.824183 
L 402.871127 -336.84577 
L 401.168087 -330.589026 
L 399.465047 -324.660569 
L 397.762007 -321.036028 
L 396.058967 -320.379404 
L 394.355927 -322.52785 
L 392.652886 -325.442256 
L 390.949846 -327.490357 
L 389.246806 -326.870424 
L 387.543766 -323.491419 
L 385.840726 -318.34377 
L 384.137686 -312.92016 
L 382.434646 -308.806963 
L 380.731606 -306.150359 
L 379.028566 -304.50104 
L 377.325526 -302.997865 
L 375.622486 -300.658601 
L 373.919446 -297.407909 
L 372.216406 -293.931132 
L 370.513366 -290.723552 
L 368.810326 -287.628681 
L 367.107285 -284.370906 
L 365.404245 -280.541477 
L 363.701205 -275.940678 
L 361.998165 -271.45553 
L 360.295125 -268.357982 
L 358.592085 -266.670514 
L 356.889045 -266.084239 
L 355.186005 -264.377181 
L 353.482965 -260.229491 
L 351.779925 -253.363437 
L 350.076885 -245.277499 
L 348.373845 -238.318831 
L 346.670805 -234.03837 
L 344.967765 -232.317296 
L 343.264724 -231.356648 
L 341.561684 -228.172559 
L 339.858644 -221.67304 
L 338.155604 -213.34693 
L 336.452564 -206.20733 
L 334.749524 -203.014743 
L 333.046484 -204.677552 
L 331.343444 -208.737322 
L 329.640404 -211.029887 
L 327.937364 -207.825528 
L 326.234324 -199.134936 
L 324.531284 -187.83519 
L 322.828244 -178.343975 
L 321.125204 -174.726739 
L 319.422164 -177.162782 
L 317.719123 -183.57768 
L 316.016083 -189.831894 
L 314.313043 -193.462398 
L 312.610003 -194.342787 
L 310.906963 -193.736171 
L 309.203923 -193.712707 
L 307.500883 -195.035557 
L 305.797843 -197.590046 
L 304.094803 -200.244448 
L 302.391763 -202.94393 
L 300.688723 -205.595705 
L 298.985683 -208.147377 
L 297.282643 -209.483674 
L 295.579603 -208.079602 
L 293.876563 -203.017561 
L 292.173522 -195.7306 
L 290.470482 -188.919408 
L 288.767442 -186.02786 
L 287.064402 -188.148044 
L 285.361362 -193.677361 
L 283.658322 -198.76306 
L 281.955282 -199.710897 
L 280.252242 -195.700953 
L 278.549202 -189.032424 
L 276.846162 -183.8209 
L 275.143122 -182.680809 
L 273.440082 -184.892151 
L 271.737042 -187.684363 
L 270.034002 -187.700626 
L 268.330962 -184.779008 
L 266.627921 -180.745771 
L 264.924881 -178.70336 
L 263.221841 -180.353327 
L 261.518801 -185.150411 
L 259.815761 -190.168238 
L 258.112721 -192.878012 
L 256.409681 -192.149472 
L 254.706641 -190.181233 
L 253.003601 -189.964982 
L 251.300561 -193.042672 
L 249.597521 -199.239426 
L 247.894481 -206.858866 
L 246.191441 -214.476955 
L 244.488401 -221.178425 
L 242.785361 -227.709555 
L 241.08232 -234.978623 
L 239.37928 -242.819029 
L 237.67624 -250.730514 
L 235.9732 -257.267822 
L 234.27016 -261.739128 
L 232.56712 -264.632355 
L 230.86408 -267.112134 
L 229.16104 -270.347094 
L 227.458 -275.38577 
L 225.75496 -281.493142 
L 224.05192 -287.666824 
L 222.34888 -293.479777 
L 220.64584 -298.137359 
L 218.9428 -301.343722 
L 217.23976 -302.212571 
L 215.536719 -300.140557 
L 213.833679 -295.080467 
L 212.130639 -288.387979 
L 210.427599 -281.51626 
L 208.724559 -275.278332 
L 207.021519 -269.165178 
L 205.318479 -261.585312 
L 203.615439 -249.881152 
L 201.912399 -232.665537 
L 200.209359 -211.560509 
L 198.506319 -189.088672 
L 196.803279 -170.272461 
L 195.100239 -158.533882 
L 193.397199 -156.150869 
L 191.694159 -161.638165 
L 189.991118 -171.981081 
L 188.288078 -183.822382 
L 186.585038 -194.345483 
L 184.881998 -202.267898 
L 183.178958 -208.53998 
L 181.475918 -214.07446 
L 179.772878 -220.538244 
L 178.069838 -228.268679 
L 176.366798 -237.003461 
L 174.663758 -245.81548 
L 172.960718 -253.201217 
L 171.257678 -257.437487 
L 169.554638 -258.56412 
L 167.851598 -256.867307 
L 166.148558 -253.119909 
L 164.445517 -248.54023 
L 162.742477 -243.486264 
L 161.039437 -238.272 
L 159.336397 -233.613059 
L 157.633357 -230.099708 
L 155.930317 -228.136295 
L 154.227277 -228.290802 
L 152.524237 -229.9056 
L 150.821197 -231.746529 
L 149.118157 -232.721897 
L 147.415117 -232.410762 
L 145.712077 -230.729338 
L 144.009037 -228.717996 
L 142.305997 -227.671018 
L 140.602957 -228.454621 
L 138.899916 -230.584179 
L 137.196876 -233.202892 
L 135.493836 -234.879659 
L 133.790796 -234.960545 
L 132.087756 -232.97286 
L 130.384716 -229.079384 
L 128.681676 -224.215307 
L 126.978636 -219.920077 
L 125.275596 -217.929217 
L 123.572556 -219.435419 
L 121.869516 -224.141197 
L 120.166476 -230.51852 
L 118.463436 -235.360238 
L 116.760396 -236.090577 
L 115.057356 -232.459445 
L 113.354315 -226.521965 
L 111.651275 -221.82291 
L 109.948235 -221.069925 
L 108.245195 -224.22717 
L 106.542155 -228.592718 
L 104.839115 -230.713726 
L 103.136075 -229.309058 
L 101.433035 -226.198821 
L 99.729995 -224.619573 
L 98.026955 -226.679301 
L 96.323915 -231.271441 
L 94.620875 -235.523819 
L 92.917835 -236.336084 
L 91.214795 -233.245291 
L 89.511755 -228.421797 
L 87.808714 -225.493855 
L 86.105674 -226.309554 
L 84.402634 -229.49314 
L 82.699594 -231.86052 
L 80.996554 -231.006938 
L 79.293514 -227.072062 
L 77.590474 -222.691298 
L 75.887434 -220.766955 
L 74.184394 -222.65654 
L 72.481354 -226.548085 
L 70.778314 -228.665254 
L 69.075274 -226.547522 
L 67.372234 -220.929888 
L 65.669194 -214.743455 
L 63.966154 -211.60206 
L 62.263113 -212.990984 
L 60.560073 -217.282871 
L 58.857033 -221.440882 
L 57.153993 -223.028532 
L 55.450953 -221.651497 
L 53.747913 -218.876403 
L 52.044873 -216.398092 
L 50.341833 -215.235954 
L 48.638793 -215.997389 
L 46.935753 -219.454189 
L 45.232713 -225.999641 
L 43.529673 -235.751041 
L 41.826633 -247.165139 
L 40.123593 -256.677258 
L 38.420552 -260.361231 
z
" style="stroke: #ff7f0e; stroke-opacity: 0.3"/>
    </defs>
    <g>
     <use xlink:href="#meac8d3507d" x="0" y="432" style="fill: #ff7f0e; fill-opacity: 0.3; stroke: #ff7f0e; stroke-opacity: 0.3"/>
    </g>
   </g>
   <g id="line2d_19">
    <path d="M 38.420552 192.382659 
L 40.123593 201.54837 
L 41.826633 212.036814 
L 43.529673 219.124458 
L 45.232713 219.436658 
L 46.935753 213.675399 
L 48.638793 206.428946 
L 50.341833 203.217333 
L 52.044873 206.831765 
L 55.450953 224.287593 
L 57.153993 228.546139 
L 58.857033 226.852481 
L 62.263113 215.879699 
L 63.966154 212.515213 
L 65.669194 210.909266 
L 67.372234 208.987436 
L 69.075274 205.201785 
L 70.778314 200.139585 
L 72.481354 196.141649 
L 74.184394 195.499646 
L 75.887434 198.648139 
L 77.590474 203.825746 
L 79.293514 208.376051 
L 80.996554 210.52805 
L 82.699594 210.242595 
L 84.402634 208.648771 
L 86.105674 206.645736 
L 87.808714 204.111017 
L 89.511755 200.218849 
L 91.214795 194.640754 
L 92.917835 188.517185 
L 94.620875 184.350051 
L 96.323915 184.715242 
L 98.026955 190.691552 
L 99.729995 200.94661 
L 101.433035 212.291356 
L 103.136075 221.148965 
L 104.839115 225.147134 
L 106.542155 223.991938 
L 108.245195 219.428622 
L 109.948235 214.3268 
L 111.651275 211.338868 
L 113.354315 211.66059 
L 115.057356 214.368218 
L 116.760396 216.796664 
L 118.463436 216.056093 
L 120.166476 210.807705 
L 121.869516 202.550428 
L 123.572556 195.212085 
L 125.275596 193.026867 
L 126.978636 197.834156 
L 130.384716 216.886187 
L 132.087756 220.659704 
L 133.790796 216.624226 
L 137.196876 197.326562 
L 138.899916 192.605482 
L 140.602957 194.960319 
L 142.305997 202.472236 
L 144.009037 210.770421 
L 145.712077 215.641859 
L 147.415117 214.959159 
L 149.118157 209.168783 
L 152.524237 191.322331 
L 154.227277 184.306238 
L 155.930317 181.084691 
L 157.633357 182.310852 
L 159.336397 187.059504 
L 161.039437 192.810762 
L 162.742477 196.426223 
L 164.445517 195.7944 
L 166.148558 191.17106 
L 167.851598 185.143803 
L 169.554638 180.935214 
L 171.257678 180.064361 
L 172.960718 181.404005 
L 174.663758 182.379951 
L 178.069838 180.716608 
L 179.772878 184.259044 
L 181.475918 196.458912 
L 183.178958 217.981589 
L 184.881998 244.447689 
L 186.585038 268.294795 
L 188.288078 282.760252 
L 189.991118 285.461522 
L 191.694159 279.112251 
L 195.100239 259.380548 
L 196.803279 250.723244 
L 198.506319 240.603869 
L 200.209359 226.382745 
L 203.615439 188.64351 
L 205.318479 172.765658 
L 207.021519 162.914049 
L 208.724559 158.032323 
L 210.427599 154.308996 
L 212.130639 148.17366 
L 215.536719 130.232054 
L 217.23976 126.019781 
L 218.9428 129.101351 
L 220.64584 138.044074 
L 222.34888 148.036994 
L 224.05192 154.012923 
L 225.75496 153.998817 
L 227.458 150.330964 
L 229.16104 148.120543 
L 230.86408 151.836344 
L 232.56712 162.578442 
L 235.9732 192.460895 
L 237.67624 203.726369 
L 239.37928 210.899278 
L 244.488401 225.819302 
L 246.191441 229.873292 
L 247.894481 230.726912 
L 249.597521 227.849058 
L 251.300561 223.44136 
L 253.003601 221.586104 
L 254.706641 225.953922 
L 256.409681 237.294491 
L 258.112721 252.461755 
L 259.815761 265.725545 
L 261.518801 271.890244 
L 263.221841 269.305823 
L 266.627921 252.86827 
L 268.330962 250.460264 
L 270.034002 255.247167 
L 271.737042 263.869242 
L 273.440082 270.209074 
L 275.143122 269.359255 
L 276.846162 260.709991 
L 278.549202 248.149674 
L 280.252242 237.282662 
L 281.955282 231.776066 
L 283.658322 231.414925 
L 285.361362 233.153136 
L 287.064402 233.972101 
L 288.767442 233.324834 
L 290.470482 233.123271 
L 292.173522 235.574601 
L 293.876563 240.85711 
L 295.579603 246.725784 
L 297.282643 250.38616 
L 298.985683 250.940125 
L 300.688723 250.289371 
L 302.391763 251.53172 
L 304.094803 256.23668 
L 305.797843 262.991013 
L 307.500883 268.447739 
L 309.203923 270.105638 
L 310.906963 268.414667 
L 312.610003 266.489823 
L 314.313043 267.5581 
L 316.016083 272.58913 
L 317.719123 279.724157 
L 319.422164 286.087216 
L 321.125204 290.121049 
L 322.828244 292.387843 
L 324.531284 294.181849 
L 326.234324 295.420572 
L 327.937364 293.924046 
L 329.640404 287.052428 
L 331.343444 274.28653 
L 333.046484 258.631428 
L 334.749524 245.229313 
L 336.452564 238.02466 
L 338.155604 237.020574 
L 339.858644 238.357379 
L 341.561684 237.116021 
L 343.264724 230.738196 
L 346.670805 210.129351 
L 348.373845 202.504963 
L 351.779925 192.782955 
L 353.482965 185.101443 
L 355.186005 174.051542 
L 356.889045 162.129596 
L 358.592085 153.189005 
L 360.295125 149.79743 
L 361.998165 151.559457 
L 363.701205 155.537258 
L 365.404245 158.191105 
L 367.107285 157.437046 
L 368.810326 153.418037 
L 377.325526 124.936175 
L 379.028566 118.90549 
L 380.731606 114.508841 
L 382.434646 113.59189 
L 384.137686 116.854036 
L 387.543766 129.167245 
L 389.246806 132.020286 
L 390.949846 129.823644 
L 392.652886 123.25547 
L 394.355927 115.04946 
L 396.058967 108.589948 
L 397.762007 106.061698 
L 399.465047 107.554979 
L 402.871127 115.135173 
L 404.574167 117.529021 
L 406.277207 118.42905 
L 407.980247 118.703365 
L 409.683287 119.326607 
L 411.386327 120.78757 
L 413.089367 123.085944 
L 416.495447 128.942934 
L 418.198487 131.380954 
L 419.901528 132.058689 
L 421.604568 129.611614 
L 423.307608 123.368125 
L 426.713688 104.681574 
L 428.416728 97.911888 
L 430.119768 95.993793 
L 431.822808 98.812186 
L 435.228888 109.19086 
L 436.931928 112.031107 
L 438.634968 112.687858 
L 440.338008 112.50722 
L 442.041048 112.787928 
L 443.744088 113.545843 
L 445.447129 113.417453 
L 447.150169 110.684085 
L 448.853209 104.699695 
L 452.259289 88.750674 
L 453.962329 83.777342 
L 455.665369 82.750548 
L 457.368409 84.859156 
L 459.071449 87.885895 
L 460.774489 89.49843 
L 462.477529 88.463518 
L 464.180569 85.198541 
L 465.883609 81.449193 
L 467.586649 79.11513 
L 469.289689 79.142605 
L 470.99273 81.038052 
L 472.69577 83.248621 
L 474.39881 84.117304 
L 476.10185 82.830504 
L 477.80489 79.787811 
L 479.50793 76.247352 
L 481.21097 73.436823 
L 482.91401 72.066299 
L 484.61705 71.982229 
L 486.32009 72.46161 
L 488.02313 72.591374 
L 489.72617 71.559822 
L 491.42921 68.920686 
L 493.13225 64.908124 
L 494.83529 60.583832 
L 496.538331 57.690298 
L 498.241371 57.812546 
L 499.944411 61.292306 
L 501.647451 66.586716 
L 503.350491 70.854786 
L 505.053531 71.536493 
L 506.756571 67.951149 
L 510.162651 55.495268 
L 511.865691 50.975251 
L 513.568731 47.695686 
L 515.271771 43.762189 
L 516.974811 37.916623 
L 518.677851 31.355798 
L 520.380891 27.41083 
L 522.083932 29.163912 
L 523.786972 36.685615 
L 525.490012 46.422459 
L 527.193052 53.339192 
L 528.896092 54.443303 
L 532.302172 47.696097 
L 534.005212 48.611265 
L 535.708252 54.217995 
L 537.411292 60.553253 
L 539.114332 62.177782 
L 540.817372 56.41331 
L 542.520412 45.752463 
L 544.223452 36.511004 
L 545.926492 34.591662 
L 547.629533 41.47109 
L 549.332573 53.195679 
L 551.035613 63.03613 
L 552.738653 65.848329 
L 554.441693 61.14276 
L 556.144733 53.065456 
L 557.847773 47.470102 
L 559.550813 48.277745 
L 561.253853 55.426458 
L 561.253853 55.426458 
" style="fill: none; stroke: #1f77b4; stroke-width: 1.5; stroke-linecap: square"/>
   </g>
   <g id="line2d_20">
    <path d="M 38.420552 174.85833 
L 40.123593 178.43288 
L 41.826633 187.714208 
L 43.529673 199.009751 
L 45.232713 208.829856 
L 46.935753 215.401926 
L 48.638793 218.667656 
L 50.341833 219.327814 
L 52.044873 218.043296 
L 55.450953 212.753029 
L 57.153993 211.572552 
L 58.857033 213.165527 
L 62.263113 221.350461 
L 63.966154 222.755764 
L 65.669194 219.837731 
L 69.075274 208.103278 
L 70.778314 205.863476 
L 72.481354 207.799108 
L 74.184394 211.563963 
L 75.887434 213.587548 
L 77.590474 211.813862 
L 79.293514 207.272593 
L 80.996554 203.194869 
L 82.699594 202.411469 
L 84.402634 205.03774 
L 86.105674 208.400918 
L 87.808714 209.200146 
L 89.511755 206.219089 
L 91.214795 201.307666 
L 92.917835 198.01002 
L 94.620875 198.753868 
L 96.323915 202.96028 
L 98.026955 207.594219 
L 99.729995 209.562492 
L 101.433035 208.040409 
L 103.136075 205.072535 
L 104.839115 203.7824 
L 106.542155 205.832444 
L 108.245195 210.053587 
L 109.948235 213.283722 
L 111.651275 212.804155 
L 113.354315 208.391917 
L 115.057356 202.545262 
L 116.760396 198.826429 
L 118.463436 199.5201 
L 120.166476 204.297838 
L 121.869516 210.634225 
L 123.572556 215.465469 
L 125.275596 216.892566 
L 126.978636 214.824788 
L 128.681676 210.584414 
L 130.384716 205.921842 
L 132.087756 202.227576 
L 133.790796 200.286876 
L 135.493836 200.307993 
L 137.196876 201.969083 
L 138.899916 204.451604 
L 140.602957 206.632293 
L 142.305997 207.540133 
L 144.009037 206.779078 
L 147.415117 203.000542 
L 149.118157 202.370898 
L 150.821197 203.381846 
L 152.524237 205.398127 
L 154.227277 207.113202 
L 155.930317 207.33313 
L 157.633357 205.516746 
L 159.336397 201.922229 
L 161.039437 197.23756 
L 164.445517 187.02653 
L 166.148558 182.367663 
L 167.851598 178.765655 
L 169.554638 177.090677 
L 171.257678 178.226437 
L 172.960718 182.570471 
L 174.663758 189.719281 
L 178.069838 207.454551 
L 179.772878 215.34202 
L 181.475918 221.792103 
L 183.178958 227.418897 
L 184.881998 233.537238 
L 186.585038 241.519848 
L 188.288078 251.881292 
L 189.991118 263.621926 
L 191.694159 274.069329 
L 193.397199 279.65223 
L 195.100239 277.27778 
L 196.803279 265.823621 
L 198.506319 246.925431 
L 201.912399 203.085465 
L 203.615439 186.10855 
L 205.318479 174.486671 
L 207.021519 166.860807 
L 210.427599 154.455439 
L 213.833679 140.747466 
L 215.536719 135.888254 
L 217.23976 133.849482 
L 218.9428 134.677838 
L 220.64584 137.800071 
L 222.34888 142.48507 
L 224.05192 148.163032 
L 227.458 160.215301 
L 229.16104 165.168094 
L 230.86408 168.808524 
L 232.56712 171.539747 
L 234.27016 174.512222 
L 235.9732 178.987954 
L 237.67624 185.441917 
L 241.08232 201.128237 
L 242.785361 208.22511 
L 246.191441 221.329824 
L 249.597521 236.570548 
L 251.300561 242.873886 
L 253.003601 246.038364 
L 254.706641 245.846353 
L 256.409681 244.078313 
L 258.112721 243.501052 
L 259.815761 245.931332 
L 263.221841 255.43196 
L 264.924881 257.121649 
L 266.627921 255.070351 
L 268.330962 251.114098 
L 270.034002 248.374839 
L 271.737042 248.816649 
L 273.440082 251.661773 
L 275.143122 253.907242 
L 276.846162 252.631584 
L 278.549202 247.382111 
L 280.252242 240.733908 
L 281.955282 236.607497 
L 283.658322 237.452953 
L 285.361362 242.455909 
L 287.064402 248.033452 
L 288.767442 250.225113 
L 290.470482 247.26463 
L 292.173522 240.496939 
L 293.876563 233.178148 
L 295.579603 228.298781 
L 297.282643 226.939867 
L 298.985683 228.280729 
L 302.391763 233.509641 
L 305.797843 239.008252 
L 307.500883 241.441178 
L 309.203923 242.766416 
L 310.906963 242.683462 
L 312.610003 242.102985 
L 314.313043 242.931378 
L 316.016083 246.706647 
L 319.422164 259.401976 
L 321.125204 261.953576 
L 322.828244 258.28429 
L 324.531284 248.979578 
L 326.234324 237.640645 
L 327.937364 228.936309 
L 329.640404 225.872817 
L 331.343444 228.052667 
L 333.046484 232.059462 
L 334.749524 233.705594 
L 336.452564 230.596833 
L 338.155604 223.397074 
L 339.858644 215.081759 
L 341.561684 208.776238 
L 343.264724 205.729489 
L 344.967765 204.710909 
L 346.670805 203.089715 
L 348.373845 198.781646 
L 350.076885 191.632262 
L 351.779925 183.403181 
L 353.482965 176.495558 
L 355.186005 172.354772 
L 356.889045 170.712327 
L 358.592085 169.937617 
L 360.295125 168.295292 
L 361.998165 165.001776 
L 365.404245 155.924663 
L 367.107285 152.032203 
L 372.216406 142.599059 
L 373.919446 139.047431 
L 375.622486 135.841752 
L 377.325526 133.53733 
L 380.731606 130.615071 
L 382.434646 128.091081 
L 384.137686 123.904752 
L 387.543766 113.332192 
L 389.246806 110.016009 
L 390.949846 109.55395 
L 392.652886 111.659349 
L 394.355927 114.798969 
L 396.058967 116.919973 
L 397.762007 116.384712 
L 399.465047 112.71791 
L 401.168087 106.804476 
L 402.871127 100.47774 
L 404.574167 95.65784 
L 406.277207 93.492913 
L 407.980247 93.920288 
L 409.683287 95.789802 
L 411.386327 97.431082 
L 413.089367 97.441032 
L 414.792407 95.274816 
L 416.495447 91.272451 
L 421.604568 76.428905 
L 423.307608 72.559507 
L 425.010648 69.929772 
L 426.713688 69.04275 
L 428.416728 70.218908 
L 430.119768 73.223981 
L 431.822808 77.037804 
L 433.525848 80.042172 
L 435.228888 80.719697 
L 436.931928 78.453942 
L 438.634968 73.997246 
L 440.338008 69.192807 
L 442.041048 66.122948 
L 443.744088 66.149738 
L 445.447129 69.343888 
L 447.150169 74.599005 
L 448.853209 80.283424 
L 450.556249 84.918602 
L 452.259289 87.631333 
L 453.962329 88.148943 
L 455.665369 86.674676 
L 457.368409 83.74857 
L 459.071449 80.263542 
L 460.774489 77.451062 
L 462.477529 76.571813 
L 464.180569 78.303795 
L 467.586649 86.115369 
L 469.289689 87.891941 
L 470.99273 85.841969 
L 472.69577 80.364833 
L 474.39881 73.977733 
L 476.10185 70.007549 
L 477.80489 70.610254 
L 479.50793 75.334215 
L 481.21097 81.274166 
L 482.91401 84.881079 
L 484.61705 84.228362 
L 486.32009 80.228549 
L 488.02313 75.93848 
L 489.72617 74.308749 
L 491.42921 76.05658 
L 493.13225 79.113766 
L 494.83529 80.183044 
L 496.538331 77.140088 
L 498.241371 70.601832 
L 499.944411 63.510503 
L 501.647451 59.010676 
L 503.350491 58.384746 
L 505.053531 60.404795 
L 506.756571 62.634803 
L 508.459611 63.398167 
L 511.865691 62.351518 
L 513.568731 63.107281 
L 515.271771 64.767174 
L 516.974811 65.861862 
L 518.677851 65.240072 
L 520.380891 63.375294 
L 522.083932 62.187838 
L 523.786972 63.442257 
L 527.193052 70.413109 
L 528.896092 70.873781 
L 530.599132 67.369017 
L 532.302172 62.048717 
L 534.005212 59.149399 
L 535.708252 62.160814 
L 537.411292 71.165064 
L 539.114332 82.403576 
L 540.817372 90.42684 
L 542.520412 91.36403 
L 544.223452 85.278249 
L 545.926492 76.01279 
L 547.629533 68.840093 
L 549.332573 67.47896 
L 551.035613 72.337982 
L 554.441693 88.757017 
L 556.144733 93.016552 
L 557.847773 92.194266 
L 559.550813 87.033162 
L 561.253853 79.754692 
L 561.253853 79.754692 
" style="fill: none; stroke: #ff7f0e; stroke-width: 1.5; stroke-linecap: square"/>
   </g>
  </g>
  <g id="axes_2">
   <g id="PathCollection_1">
    <defs>
     <path id="C0_0_7296183085" d="M 0 1.118034 
C 0.296506 1.118034 0.580908 1.000231 0.790569 0.790569 
C 1.000231 0.580908 1.118034 0.296506 1.118034 -0 
C 1.118034 -0.296506 1.000231 -0.580908 0.790569 -0.790569 
C 0.580908 -1.000231 0.296506 -1.118034 0 -1.118034 
C -0.296506 -1.118034 -0.580908 -1.000231 -0.790569 -0.790569 
C -1.000231 -0.580908 -1.118034 -0.296506 -1.118034 0 
C -1.118034 0.296506 -1.000231 0.580908 -0.790569 0.790569 
C -0.580908 1.000231 -0.296506 1.118034 0 1.118034 
z
"/>
    </defs>
    <g clip-path="url(#p105ba6f39f)">
     <use xlink:href="#C0_0_7296183085" x="483.593862" y="47.298845" style="stroke: #000000"/>
    </g>
    <g clip-path="url(#p105ba6f39f)">
     <use xlink:href="#C0_0_7296183085" x="493.741484" y="47.286489" style="stroke: #000000"/>
    </g>
   </g>
   <g id="matplotlib.axis_3"/>
   <g id="matplotlib.axis_4"/>
   <g id="line2d_21">
    <path d="M 548.859194 73.63672 
L 548.781507 71.164689 
L 548.548754 68.702415 
L 548.161852 66.259613 
L 547.622329 63.845926 
L 546.932314 61.470879 
L 546.09453 59.143845 
L 545.112284 56.874007 
L 543.989451 54.670325 
L 542.730464 52.541494 
L 541.340291 50.495916 
L 539.824418 48.541664 
L 538.188828 46.686451 
L 536.439975 44.937599 
L 534.584762 43.302008 
L 532.630511 41.786136 
L 530.584933 40.395962 
L 528.456102 39.136975 
L 526.252419 38.014143 
L 523.982582 37.031896 
L 521.655547 36.194112 
L 519.2805 35.504097 
L 516.866813 34.964574 
L 514.424012 34.577673 
L 511.961737 34.344919 
L 509.489707 34.267233 
L 507.017676 34.344919 
L 504.555402 34.577673 
L 502.1126 34.964574 
L 499.698913 35.504097 
L 497.323866 36.194112 
L 494.996832 37.031896 
L 492.726994 38.014143 
L 490.523312 39.136975 
L 488.394481 40.395962 
L 486.348903 41.786136 
L 484.394651 43.302008 
L 482.539438 44.937599 
L 480.790586 46.686451 
L 479.154995 48.541664 
L 477.639123 50.495916 
L 476.248949 52.541494 
L 474.989962 54.670325 
L 473.86713 56.874007 
L 472.884883 59.143845 
L 472.047099 61.470879 
L 471.357084 63.845926 
L 470.817561 66.259613 
L 470.43066 68.702415 
L 470.197906 71.164689 
L 470.12022 73.63672 
L 470.197906 76.10875 
L 470.43066 78.571025 
L 470.817561 81.013826 
L 471.357084 83.427513 
L 472.047099 85.80256 
L 472.884883 88.129595 
L 473.86713 90.399432 
L 474.989962 92.603115 
L 476.248949 94.731946 
L 477.639123 96.777524 
L 479.154995 98.731775 
L 480.790586 100.586988 
L 482.539438 102.335841 
L 484.394651 103.971431 
L 486.348903 105.487304 
L 488.394481 106.877477 
L 490.523312 108.136464 
L 492.726994 109.259297 
L 494.996832 110.241543 
L 497.323866 111.079327 
L 499.698913 111.769342 
L 502.1126 112.308865 
L 504.555402 112.695767 
L 507.017676 112.92852 
L 509.489707 113.006207 
L 511.961737 112.92852 
L 514.424012 112.695767 
L 516.866813 112.308865 
L 519.2805 111.769342 
L 521.655547 111.079327 
L 523.982582 110.241543 
L 526.252419 109.259297 
L 528.456102 108.136464 
L 530.584933 106.877477 
L 532.630511 105.487304 
L 534.584762 103.971431 
L 536.439975 102.335841 
L 538.188828 100.586988 
L 539.824418 98.731775 
L 541.340291 96.777524 
L 542.730464 94.731946 
L 543.989451 92.603115 
L 545.112284 90.399432 
L 546.09453 88.129595 
L 546.932314 85.80256 
L 547.622329 83.427513 
L 548.161852 81.013826 
L 548.548754 78.571025 
L 548.781507 76.10875 
L 548.859194 73.63672 
" style="fill: none; stroke: #000000; stroke-linecap: square"/>
   </g>
   <g id="line2d_22">
    <path d="M 501.244181 35.140385 
L 509.489707 28.361809 
L 517.735233 35.140385 
" style="fill: none; stroke: #000000; stroke-linecap: square"/>
   </g>
   <g id="line2d_23">
    <path d="M 470.356436 69.266707 
L 469.33283 67.534449 
L 468.702918 67.471458 
L 467.765924 67.762792 
L 466.821057 69.266707 
L 466.970661 74.069784 
L 466.419488 80.975192 
L 467.600572 83.975147 
L 469.33283 84.534194 
L 470.986348 83.077523 
" style="fill: none; stroke: #000000; stroke-linecap: square"/>
   </g>
   <g id="line2d_24">
    <path d="M 548.622977 69.266707 
L 549.646584 67.534449 
L 550.276495 67.471458 
L 551.213489 67.762792 
L 552.158357 69.266707 
L 552.008753 74.069784 
L 552.559926 80.975192 
L 551.378841 83.975147 
L 549.646584 84.534194 
L 547.993065 83.077523 
" style="fill: none; stroke: #000000; stroke-linecap: square"/>
   </g>
  </g>
 </g>
 <defs>
  <clipPath id="p23dc8aa336">
   <rect x="38.420552" y="18.118365" width="523.446395" height="380.525145"/>
  </clipPath>
  <clipPath id="p105ba6f39f">
   <rect x="462.112466" y="24.12959" width="94.754482" height="93.108837"/>
  </clipPath>
 </defs>
</svg>
