<?xml version="1.0" encoding="utf-8" standalone="no"?>
<!DOCTYPE svg PUBLIC "-//W3C//DTD SVG 1.1//EN"
  "http://www.w3.org/Graphics/SVG/1.1/DTD/svg11.dtd">
<svg xmlns:xlink="http://www.w3.org/1999/xlink" width="576pt" height="432pt" viewBox="0 0 576 432" xmlns="http://www.w3.org/2000/svg" version="1.1">
 <metadata>
  <rdf:RDF xmlns:dc="http://purl.org/dc/elements/1.1/" xmlns:cc="http://creativecommons.org/ns#" xmlns:rdf="http://www.w3.org/1999/02/22-rdf-syntax-ns#">
   <cc:Work>
    <dc:type rdf:resource="http://purl.org/dc/dcmitype/StillImage"/>
    <dc:date>2025-02-12T21:12:13.966632</dc:date>
    <dc:format>image/svg+xml</dc:format>
    <dc:creator>
     <cc:Agent>
      <dc:title>Matplotlib v3.10.0, https://matplotlib.org/</dc:title>
     </cc:Agent>
    </dc:creator>
   </cc:Work>
  </rdf:RDF>
 </metadata>
 <defs>
  <style type="text/css">*{stroke-linejoin: round; stroke-linecap: butt}</style>
 </defs>
 <g id="figure_1">
  <g id="patch_1">
   <path d="M 0 432 
L 576 432 
L 576 0 
L 0 0 
z
" style="fill: #ffffff"/>
  </g>
  <g id="axes_1">
   <g id="patch_2">
    <path d="M 38.420552 398.64351 
L 572.99976 398.64351 
L 572.99976 18.118365 
L 38.420552 18.118365 
L 38.420552 398.64351 
z
" style="fill: none; opacity: 0"/>
   </g>
   <g id="patch_3">
    <path d="M 38.420552 387.729619 
L 38.420552 29.032256 
" style="fill: none; stroke: #000000; stroke-width: 0.8; stroke-linejoin: miter; stroke-linecap: square"/>
   </g>
   <g id="LineCollection_1">
    <path d="M 332.2824 18.118365 
L 332.2824 398.64351 
" clip-path="url(#p9dd3a43fdb)" style="fill: none; stroke-dasharray: 3.7,1.6; stroke-dashoffset: 0; stroke: #000000"/>
    <path d="M 421.436978 18.118365 
L 421.436978 398.64351 
" clip-path="url(#p9dd3a43fdb)" style="fill: none; stroke-dasharray: 3.7,1.6; stroke-dashoffset: 0; stroke: #000000"/>
   </g>
   <g id="matplotlib.axis_1">
    <g id="xtick_1">
     <g id="line2d_1">
      <defs>
       <path id="m0d5df53fa5" d="M 0 0 
L 0 3.5 
" style="stroke: #000000; stroke-width: 0.8"/>
      </defs>
      <g>
       <use xlink:href="#m0d5df53fa5" x="64.818666" y="398.64351" style="stroke: #000000; stroke-width: 0.8"/>
      </g>
     </g>
     <g id="text_1">
      <!-- −0.2 -->
      <g transform="translate(52.67726 413.241947) scale(0.1 -0.1)">
       <defs>
        <path id="DejaVuSans-2212" d="M 678 2272 
L 4684 2272 
L 4684 1741 
L 678 1741 
L 678 2272 
z
" transform="scale(0.015625)"/>
        <path id="DejaVuSans-30" d="M 2034 4250 
Q 1547 4250 1301 3770 
Q 1056 3291 1056 2328 
Q 1056 1369 1301 889 
Q 1547 409 2034 409 
Q 2525 409 2770 889 
Q 3016 1369 3016 2328 
Q 3016 3291 2770 3770 
Q 2525 4250 2034 4250 
z
M 2034 4750 
Q 2819 4750 3233 4129 
Q 3647 3509 3647 2328 
Q 3647 1150 3233 529 
Q 2819 -91 2034 -91 
Q 1250 -91 836 529 
Q 422 1150 422 2328 
Q 422 3509 836 4129 
Q 1250 4750 2034 4750 
z
" transform="scale(0.015625)"/>
        <path id="DejaVuSans-2e" d="M 684 794 
L 1344 794 
L 1344 0 
L 684 0 
L 684 794 
z
" transform="scale(0.015625)"/>
        <path id="DejaVuSans-32" d="M 1228 531 
L 3431 531 
L 3431 0 
L 469 0 
L 469 531 
Q 828 903 1448 1529 
Q 2069 2156 2228 2338 
Q 2531 2678 2651 2914 
Q 2772 3150 2772 3378 
Q 2772 3750 2511 3984 
Q 2250 4219 1831 4219 
Q 1534 4219 1204 4116 
Q 875 4013 500 3803 
L 500 4441 
Q 881 4594 1212 4672 
Q 1544 4750 1819 4750 
Q 2544 4750 2975 4387 
Q 3406 4025 3406 3419 
Q 3406 3131 3298 2873 
Q 3191 2616 2906 2266 
Q 2828 2175 2409 1742 
Q 1991 1309 1228 531 
z
" transform="scale(0.015625)"/>
       </defs>
       <use xlink:href="#DejaVuSans-2212"/>
       <use xlink:href="#DejaVuSans-30" transform="translate(83.789062 0)"/>
       <use xlink:href="#DejaVuSans-2e" transform="translate(147.412109 0)"/>
       <use xlink:href="#DejaVuSans-32" transform="translate(179.199219 0)"/>
      </g>
     </g>
    </g>
    <g id="xtick_2">
     <g id="line2d_2">
      <g>
       <use xlink:href="#m0d5df53fa5" x="153.973244" y="398.64351" style="stroke: #000000; stroke-width: 0.8"/>
      </g>
     </g>
     <g id="text_2">
      <!-- 0.0 -->
      <g transform="translate(146.021681 413.241947) scale(0.1 -0.1)">
       <use xlink:href="#DejaVuSans-30"/>
       <use xlink:href="#DejaVuSans-2e" transform="translate(63.623047 0)"/>
       <use xlink:href="#DejaVuSans-30" transform="translate(95.410156 0)"/>
      </g>
     </g>
    </g>
    <g id="xtick_3">
     <g id="line2d_3">
      <g>
       <use xlink:href="#m0d5df53fa5" x="243.127822" y="398.64351" style="stroke: #000000; stroke-width: 0.8"/>
      </g>
     </g>
     <g id="text_3">
      <!-- 0.2 -->
      <g transform="translate(235.176259 413.241947) scale(0.1 -0.1)">
       <use xlink:href="#DejaVuSans-30"/>
       <use xlink:href="#DejaVuSans-2e" transform="translate(63.623047 0)"/>
       <use xlink:href="#DejaVuSans-32" transform="translate(95.410156 0)"/>
      </g>
     </g>
    </g>
    <g id="xtick_4">
     <g id="line2d_4">
      <g>
       <use xlink:href="#m0d5df53fa5" x="332.2824" y="398.64351" style="stroke: #000000; stroke-width: 0.8"/>
      </g>
     </g>
     <g id="text_4">
      <!-- 0.4 -->
      <g transform="translate(324.330837 413.241947) scale(0.1 -0.1)">
       <defs>
        <path id="DejaVuSans-34" d="M 2419 4116 
L 825 1625 
L 2419 1625 
L 2419 4116 
z
M 2253 4666 
L 3047 4666 
L 3047 1625 
L 3713 1625 
L 3713 1100 
L 3047 1100 
L 3047 0 
L 2419 0 
L 2419 1100 
L 313 1100 
L 313 1709 
L 2253 4666 
z
" transform="scale(0.015625)"/>
       </defs>
       <use xlink:href="#DejaVuSans-30"/>
       <use xlink:href="#DejaVuSans-2e" transform="translate(63.623047 0)"/>
       <use xlink:href="#DejaVuSans-34" transform="translate(95.410156 0)"/>
      </g>
     </g>
    </g>
    <g id="xtick_5">
     <g id="line2d_5">
      <g>
       <use xlink:href="#m0d5df53fa5" x="421.436978" y="398.64351" style="stroke: #000000; stroke-width: 0.8"/>
      </g>
     </g>
     <g id="text_5">
      <!-- 0.6 -->
      <g transform="translate(413.485415 413.241947) scale(0.1 -0.1)">
       <defs>
        <path id="DejaVuSans-36" d="M 2113 2584 
Q 1688 2584 1439 2293 
Q 1191 2003 1191 1497 
Q 1191 994 1439 701 
Q 1688 409 2113 409 
Q 2538 409 2786 701 
Q 3034 994 3034 1497 
Q 3034 2003 2786 2293 
Q 2538 2584 2113 2584 
z
M 3366 4563 
L 3366 3988 
Q 3128 4100 2886 4159 
Q 2644 4219 2406 4219 
Q 1781 4219 1451 3797 
Q 1122 3375 1075 2522 
Q 1259 2794 1537 2939 
Q 1816 3084 2150 3084 
Q 2853 3084 3261 2657 
Q 3669 2231 3669 1497 
Q 3669 778 3244 343 
Q 2819 -91 2113 -91 
Q 1303 -91 875 529 
Q 447 1150 447 2328 
Q 447 3434 972 4092 
Q 1497 4750 2381 4750 
Q 2619 4750 2861 4703 
Q 3103 4656 3366 4563 
z
" transform="scale(0.015625)"/>
       </defs>
       <use xlink:href="#DejaVuSans-30"/>
       <use xlink:href="#DejaVuSans-2e" transform="translate(63.623047 0)"/>
       <use xlink:href="#DejaVuSans-36" transform="translate(95.410156 0)"/>
      </g>
     </g>
    </g>
    <g id="xtick_6">
     <g id="line2d_6">
      <g>
       <use xlink:href="#m0d5df53fa5" x="510.591555" y="398.64351" style="stroke: #000000; stroke-width: 0.8"/>
      </g>
     </g>
     <g id="text_6">
      <!-- 0.8 -->
      <g transform="translate(502.639993 413.241947) scale(0.1 -0.1)">
       <defs>
        <path id="DejaVuSans-38" d="M 2034 2216 
Q 1584 2216 1326 1975 
Q 1069 1734 1069 1313 
Q 1069 891 1326 650 
Q 1584 409 2034 409 
Q 2484 409 2743 651 
Q 3003 894 3003 1313 
Q 3003 1734 2745 1975 
Q 2488 2216 2034 2216 
z
M 1403 2484 
Q 997 2584 770 2862 
Q 544 3141 544 3541 
Q 544 4100 942 4425 
Q 1341 4750 2034 4750 
Q 2731 4750 3128 4425 
Q 3525 4100 3525 3541 
Q 3525 3141 3298 2862 
Q 3072 2584 2669 2484 
Q 3125 2378 3379 2068 
Q 3634 1759 3634 1313 
Q 3634 634 3220 271 
Q 2806 -91 2034 -91 
Q 1263 -91 848 271 
Q 434 634 434 1313 
Q 434 1759 690 2068 
Q 947 2378 1403 2484 
z
M 1172 3481 
Q 1172 3119 1398 2916 
Q 1625 2713 2034 2713 
Q 2441 2713 2670 2916 
Q 2900 3119 2900 3481 
Q 2900 3844 2670 4047 
Q 2441 4250 2034 4250 
Q 1625 4250 1398 4047 
Q 1172 3844 1172 3481 
z
" transform="scale(0.015625)"/>
       </defs>
       <use xlink:href="#DejaVuSans-30"/>
       <use xlink:href="#DejaVuSans-2e" transform="translate(63.623047 0)"/>
       <use xlink:href="#DejaVuSans-38" transform="translate(95.410156 0)"/>
      </g>
     </g>
    </g>
    <g id="text_7">
     <!-- Time (s) -->
     <g transform="translate(285.38125 426.920073) scale(0.1 -0.1)">
      <defs>
       <path id="DejaVuSans-54" d="M -19 4666 
L 3928 4666 
L 3928 4134 
L 2272 4134 
L 2272 0 
L 1638 0 
L 1638 4134 
L -19 4134 
L -19 4666 
z
" transform="scale(0.015625)"/>
       <path id="DejaVuSans-69" d="M 603 3500 
L 1178 3500 
L 1178 0 
L 603 0 
L 603 3500 
z
M 603 4863 
L 1178 4863 
L 1178 4134 
L 603 4134 
L 603 4863 
z
" transform="scale(0.015625)"/>
       <path id="DejaVuSans-6d" d="M 3328 2828 
Q 3544 3216 3844 3400 
Q 4144 3584 4550 3584 
Q 5097 3584 5394 3201 
Q 5691 2819 5691 2113 
L 5691 0 
L 5113 0 
L 5113 2094 
Q 5113 2597 4934 2840 
Q 4756 3084 4391 3084 
Q 3944 3084 3684 2787 
Q 3425 2491 3425 1978 
L 3425 0 
L 2847 0 
L 2847 2094 
Q 2847 2600 2669 2842 
Q 2491 3084 2119 3084 
Q 1678 3084 1418 2786 
Q 1159 2488 1159 1978 
L 1159 0 
L 581 0 
L 581 3500 
L 1159 3500 
L 1159 2956 
Q 1356 3278 1631 3431 
Q 1906 3584 2284 3584 
Q 2666 3584 2933 3390 
Q 3200 3197 3328 2828 
z
" transform="scale(0.015625)"/>
       <path id="DejaVuSans-65" d="M 3597 1894 
L 3597 1613 
L 953 1613 
Q 991 1019 1311 708 
Q 1631 397 2203 397 
Q 2534 397 2845 478 
Q 3156 559 3463 722 
L 3463 178 
Q 3153 47 2828 -22 
Q 2503 -91 2169 -91 
Q 1331 -91 842 396 
Q 353 884 353 1716 
Q 353 2575 817 3079 
Q 1281 3584 2069 3584 
Q 2775 3584 3186 3129 
Q 3597 2675 3597 1894 
z
M 3022 2063 
Q 3016 2534 2758 2815 
Q 2500 3097 2075 3097 
Q 1594 3097 1305 2825 
Q 1016 2553 972 2059 
L 3022 2063 
z
" transform="scale(0.015625)"/>
       <path id="DejaVuSans-20" transform="scale(0.015625)"/>
       <path id="DejaVuSans-28" d="M 1984 4856 
Q 1566 4138 1362 3434 
Q 1159 2731 1159 2009 
Q 1159 1288 1364 580 
Q 1569 -128 1984 -844 
L 1484 -844 
Q 1016 -109 783 600 
Q 550 1309 550 2009 
Q 550 2706 781 3412 
Q 1013 4119 1484 4856 
L 1984 4856 
z
" transform="scale(0.015625)"/>
       <path id="DejaVuSans-73" d="M 2834 3397 
L 2834 2853 
Q 2591 2978 2328 3040 
Q 2066 3103 1784 3103 
Q 1356 3103 1142 2972 
Q 928 2841 928 2578 
Q 928 2378 1081 2264 
Q 1234 2150 1697 2047 
L 1894 2003 
Q 2506 1872 2764 1633 
Q 3022 1394 3022 966 
Q 3022 478 2636 193 
Q 2250 -91 1575 -91 
Q 1294 -91 989 -36 
Q 684 19 347 128 
L 347 722 
Q 666 556 975 473 
Q 1284 391 1588 391 
Q 1994 391 2212 530 
Q 2431 669 2431 922 
Q 2431 1156 2273 1281 
Q 2116 1406 1581 1522 
L 1381 1569 
Q 847 1681 609 1914 
Q 372 2147 372 2553 
Q 372 3047 722 3315 
Q 1072 3584 1716 3584 
Q 2034 3584 2315 3537 
Q 2597 3491 2834 3397 
z
" transform="scale(0.015625)"/>
       <path id="DejaVuSans-29" d="M 513 4856 
L 1013 4856 
Q 1481 4119 1714 3412 
Q 1947 2706 1947 2009 
Q 1947 1309 1714 600 
Q 1481 -109 1013 -844 
L 513 -844 
Q 928 -128 1133 580 
Q 1338 1288 1338 2009 
Q 1338 2731 1133 3434 
Q 928 4138 513 4856 
z
" transform="scale(0.015625)"/>
      </defs>
      <use xlink:href="#DejaVuSans-54"/>
      <use xlink:href="#DejaVuSans-69" transform="translate(57.958984 0)"/>
      <use xlink:href="#DejaVuSans-6d" transform="translate(85.742188 0)"/>
      <use xlink:href="#DejaVuSans-65" transform="translate(183.154297 0)"/>
      <use xlink:href="#DejaVuSans-20" transform="translate(244.677734 0)"/>
      <use xlink:href="#DejaVuSans-28" transform="translate(276.464844 0)"/>
      <use xlink:href="#DejaVuSans-73" transform="translate(315.478516 0)"/>
      <use xlink:href="#DejaVuSans-29" transform="translate(367.578125 0)"/>
     </g>
    </g>
   </g>
   <g id="matplotlib.axis_2">
    <g id="ytick_1">
     <g id="line2d_7">
      <defs>
       <path id="m1c8c5f85ec" d="M 0 0 
L -3.5 0 
" style="stroke: #000000; stroke-width: 0.8"/>
      </defs>
      <g>
       <use xlink:href="#m1c8c5f85ec" x="38.420552" y="387.729619" style="stroke: #000000; stroke-width: 0.8"/>
      </g>
     </g>
     <g id="text_8">
      <!-- −8 -->
      <g transform="translate(16.678365 391.528838) scale(0.1 -0.1)">
       <use xlink:href="#DejaVuSans-2212"/>
       <use xlink:href="#DejaVuSans-38" transform="translate(83.789062 0)"/>
      </g>
     </g>
    </g>
    <g id="ytick_2">
     <g id="line2d_8">
      <g>
       <use xlink:href="#m1c8c5f85ec" x="38.420552" y="342.892449" style="stroke: #000000; stroke-width: 0.8"/>
      </g>
     </g>
     <g id="text_9">
      <!-- −6 -->
      <g transform="translate(16.678365 346.691667) scale(0.1 -0.1)">
       <use xlink:href="#DejaVuSans-2212"/>
       <use xlink:href="#DejaVuSans-36" transform="translate(83.789062 0)"/>
      </g>
     </g>
    </g>
    <g id="ytick_3">
     <g id="line2d_9">
      <g>
       <use xlink:href="#m1c8c5f85ec" x="38.420552" y="298.055278" style="stroke: #000000; stroke-width: 0.8"/>
      </g>
     </g>
     <g id="text_10">
      <!-- −4 -->
      <g transform="translate(16.678365 301.854497) scale(0.1 -0.1)">
       <use xlink:href="#DejaVuSans-2212"/>
       <use xlink:href="#DejaVuSans-34" transform="translate(83.789062 0)"/>
      </g>
     </g>
    </g>
    <g id="ytick_4">
     <g id="line2d_10">
      <g>
       <use xlink:href="#m1c8c5f85ec" x="38.420552" y="253.218108" style="stroke: #000000; stroke-width: 0.8"/>
      </g>
     </g>
     <g id="text_11">
      <!-- −2 -->
      <g transform="translate(16.678365 257.017327) scale(0.1 -0.1)">
       <use xlink:href="#DejaVuSans-2212"/>
       <use xlink:href="#DejaVuSans-32" transform="translate(83.789062 0)"/>
      </g>
     </g>
    </g>
    <g id="ytick_5">
     <g id="line2d_11">
      <g>
       <use xlink:href="#m1c8c5f85ec" x="38.420552" y="208.380937" style="stroke: #000000; stroke-width: 0.8"/>
      </g>
     </g>
     <g id="text_12">
      <!-- 0 -->
      <g transform="translate(25.058052 212.180156) scale(0.1 -0.1)">
       <use xlink:href="#DejaVuSans-30"/>
      </g>
     </g>
    </g>
    <g id="ytick_6">
     <g id="line2d_12">
      <g>
       <use xlink:href="#m1c8c5f85ec" x="38.420552" y="163.543767" style="stroke: #000000; stroke-width: 0.8"/>
      </g>
     </g>
     <g id="text_13">
      <!-- 2 -->
      <g transform="translate(25.058052 167.342986) scale(0.1 -0.1)">
       <use xlink:href="#DejaVuSans-32"/>
      </g>
     </g>
    </g>
    <g id="ytick_7">
     <g id="line2d_13">
      <g>
       <use xlink:href="#m1c8c5f85ec" x="38.420552" y="118.706597" style="stroke: #000000; stroke-width: 0.8"/>
      </g>
     </g>
     <g id="text_14">
      <!-- 4 -->
      <g transform="translate(25.058052 122.505816) scale(0.1 -0.1)">
       <use xlink:href="#DejaVuSans-34"/>
      </g>
     </g>
    </g>
    <g id="ytick_8">
     <g id="line2d_14">
      <g>
       <use xlink:href="#m1c8c5f85ec" x="38.420552" y="73.869426" style="stroke: #000000; stroke-width: 0.8"/>
      </g>
     </g>
     <g id="text_15">
      <!-- 6 -->
      <g transform="translate(25.058052 77.668645) scale(0.1 -0.1)">
       <use xlink:href="#DejaVuSans-36"/>
      </g>
     </g>
    </g>
    <g id="ytick_9">
     <g id="line2d_15">
      <g>
       <use xlink:href="#m1c8c5f85ec" x="38.420552" y="29.032256" style="stroke: #000000; stroke-width: 0.8"/>
      </g>
     </g>
     <g id="text_16">
      <!-- 8 -->
      <g transform="translate(25.058052 32.831475) scale(0.1 -0.1)">
       <use xlink:href="#DejaVuSans-38"/>
      </g>
     </g>
    </g>
    <g id="text_17">
     <!-- µV -->
     <g transform="translate(10.598677 214.9825) rotate(-90) scale(0.1 -0.1)">
      <defs>
       <path id="DejaVuSans-b5" d="M 544 -1331 
L 544 3500 
L 1119 3500 
L 1119 1325 
Q 1119 872 1334 640 
Q 1550 409 1972 409 
Q 2434 409 2667 671 
Q 2900 934 2900 1459 
L 2900 3500 
L 3475 3500 
L 3475 806 
Q 3475 619 3529 530 
Q 3584 441 3700 441 
Q 3728 441 3778 458 
Q 3828 475 3916 513 
L 3916 50 
Q 3788 -22 3673 -56 
Q 3559 -91 3450 -91 
Q 3234 -91 3106 31 
Q 2978 153 2931 403 
Q 2775 156 2548 32 
Q 2322 -91 2016 -91 
Q 1697 -91 1473 31 
Q 1250 153 1119 397 
L 1119 -1331 
L 544 -1331 
z
" transform="scale(0.015625)"/>
       <path id="DejaVuSans-56" d="M 1831 0 
L 50 4666 
L 709 4666 
L 2188 738 
L 3669 4666 
L 4325 4666 
L 2547 0 
L 1831 0 
z
" transform="scale(0.015625)"/>
      </defs>
      <use xlink:href="#DejaVuSans-b5"/>
      <use xlink:href="#DejaVuSans-56" transform="translate(63.623047 0)"/>
     </g>
    </g>
   </g>
   <g id="patch_4">
    <path d="M 64.818666 398.64351 
L 510.591555 398.64351 
" style="fill: none; stroke: #000000; stroke-width: 0.8; stroke-linejoin: miter; stroke-linecap: square"/>
   </g>
   <g id="patch_5">
    <path d="M 38.420552 208.380937 
L 572.99976 208.380937 
" style="fill: none; stroke: #000000; stroke-width: 0.8; stroke-linejoin: miter; stroke-linecap: square"/>
   </g>
   <g id="text_18">
    <!-- nlk LPP: CPz, Cz, Pz (mean) -->
    <g transform="translate(224.058594 12.118365) scale(0.12 -0.12)">
     <defs>
      <path id="DejaVuSans-6e" d="M 3513 2113 
L 3513 0 
L 2938 0 
L 2938 2094 
Q 2938 2591 2744 2837 
Q 2550 3084 2163 3084 
Q 1697 3084 1428 2787 
Q 1159 2491 1159 1978 
L 1159 0 
L 581 0 
L 581 3500 
L 1159 3500 
L 1159 2956 
Q 1366 3272 1645 3428 
Q 1925 3584 2291 3584 
Q 2894 3584 3203 3211 
Q 3513 2838 3513 2113 
z
" transform="scale(0.015625)"/>
      <path id="DejaVuSans-6c" d="M 603 4863 
L 1178 4863 
L 1178 0 
L 603 0 
L 603 4863 
z
" transform="scale(0.015625)"/>
      <path id="DejaVuSans-6b" d="M 581 4863 
L 1159 4863 
L 1159 1991 
L 2875 3500 
L 3609 3500 
L 1753 1863 
L 3688 0 
L 2938 0 
L 1159 1709 
L 1159 0 
L 581 0 
L 581 4863 
z
" transform="scale(0.015625)"/>
      <path id="DejaVuSans-4c" d="M 628 4666 
L 1259 4666 
L 1259 531 
L 3531 531 
L 3531 0 
L 628 0 
L 628 4666 
z
" transform="scale(0.015625)"/>
      <path id="DejaVuSans-50" d="M 1259 4147 
L 1259 2394 
L 2053 2394 
Q 2494 2394 2734 2622 
Q 2975 2850 2975 3272 
Q 2975 3691 2734 3919 
Q 2494 4147 2053 4147 
L 1259 4147 
z
M 628 4666 
L 2053 4666 
Q 2838 4666 3239 4311 
Q 3641 3956 3641 3272 
Q 3641 2581 3239 2228 
Q 2838 1875 2053 1875 
L 1259 1875 
L 1259 0 
L 628 0 
L 628 4666 
z
" transform="scale(0.015625)"/>
      <path id="DejaVuSans-3a" d="M 750 794 
L 1409 794 
L 1409 0 
L 750 0 
L 750 794 
z
M 750 3309 
L 1409 3309 
L 1409 2516 
L 750 2516 
L 750 3309 
z
" transform="scale(0.015625)"/>
      <path id="DejaVuSans-43" d="M 4122 4306 
L 4122 3641 
Q 3803 3938 3442 4084 
Q 3081 4231 2675 4231 
Q 1875 4231 1450 3742 
Q 1025 3253 1025 2328 
Q 1025 1406 1450 917 
Q 1875 428 2675 428 
Q 3081 428 3442 575 
Q 3803 722 4122 1019 
L 4122 359 
Q 3791 134 3420 21 
Q 3050 -91 2638 -91 
Q 1578 -91 968 557 
Q 359 1206 359 2328 
Q 359 3453 968 4101 
Q 1578 4750 2638 4750 
Q 3056 4750 3426 4639 
Q 3797 4528 4122 4306 
z
" transform="scale(0.015625)"/>
      <path id="DejaVuSans-7a" d="M 353 3500 
L 3084 3500 
L 3084 2975 
L 922 459 
L 3084 459 
L 3084 0 
L 275 0 
L 275 525 
L 2438 3041 
L 353 3041 
L 353 3500 
z
" transform="scale(0.015625)"/>
      <path id="DejaVuSans-2c" d="M 750 794 
L 1409 794 
L 1409 256 
L 897 -744 
L 494 -744 
L 750 256 
L 750 794 
z
" transform="scale(0.015625)"/>
      <path id="DejaVuSans-61" d="M 2194 1759 
Q 1497 1759 1228 1600 
Q 959 1441 959 1056 
Q 959 750 1161 570 
Q 1363 391 1709 391 
Q 2188 391 2477 730 
Q 2766 1069 2766 1631 
L 2766 1759 
L 2194 1759 
z
M 3341 1997 
L 3341 0 
L 2766 0 
L 2766 531 
Q 2569 213 2275 61 
Q 1981 -91 1556 -91 
Q 1019 -91 701 211 
Q 384 513 384 1019 
Q 384 1609 779 1909 
Q 1175 2209 1959 2209 
L 2766 2209 
L 2766 2266 
Q 2766 2663 2505 2880 
Q 2244 3097 1772 3097 
Q 1472 3097 1187 3025 
Q 903 2953 641 2809 
L 641 3341 
Q 956 3463 1253 3523 
Q 1550 3584 1831 3584 
Q 2591 3584 2966 3190 
Q 3341 2797 3341 1997 
z
" transform="scale(0.015625)"/>
     </defs>
     <use xlink:href="#DejaVuSans-6e"/>
     <use xlink:href="#DejaVuSans-6c" transform="translate(63.378906 0)"/>
     <use xlink:href="#DejaVuSans-6b" transform="translate(91.162109 0)"/>
     <use xlink:href="#DejaVuSans-20" transform="translate(149.072266 0)"/>
     <use xlink:href="#DejaVuSans-4c" transform="translate(180.859375 0)"/>
     <use xlink:href="#DejaVuSans-50" transform="translate(236.572266 0)"/>
     <use xlink:href="#DejaVuSans-50" transform="translate(296.875 0)"/>
     <use xlink:href="#DejaVuSans-3a" transform="translate(357.177734 0)"/>
     <use xlink:href="#DejaVuSans-20" transform="translate(390.869141 0)"/>
     <use xlink:href="#DejaVuSans-43" transform="translate(422.65625 0)"/>
     <use xlink:href="#DejaVuSans-50" transform="translate(492.480469 0)"/>
     <use xlink:href="#DejaVuSans-7a" transform="translate(552.783203 0)"/>
     <use xlink:href="#DejaVuSans-2c" transform="translate(605.273438 0)"/>
     <use xlink:href="#DejaVuSans-20" transform="translate(637.060547 0)"/>
     <use xlink:href="#DejaVuSans-43" transform="translate(668.847656 0)"/>
     <use xlink:href="#DejaVuSans-7a" transform="translate(738.671875 0)"/>
     <use xlink:href="#DejaVuSans-2c" transform="translate(791.162109 0)"/>
     <use xlink:href="#DejaVuSans-20" transform="translate(822.949219 0)"/>
     <use xlink:href="#DejaVuSans-50" transform="translate(854.736328 0)"/>
     <use xlink:href="#DejaVuSans-7a" transform="translate(915.039062 0)"/>
     <use xlink:href="#DejaVuSans-20" transform="translate(967.529297 0)"/>
     <use xlink:href="#DejaVuSans-28" transform="translate(999.316406 0)"/>
     <use xlink:href="#DejaVuSans-6d" transform="translate(1038.330078 0)"/>
     <use xlink:href="#DejaVuSans-65" transform="translate(1135.742188 0)"/>
     <use xlink:href="#DejaVuSans-61" transform="translate(1197.265625 0)"/>
     <use xlink:href="#DejaVuSans-6e" transform="translate(1258.544922 0)"/>
     <use xlink:href="#DejaVuSans-29" transform="translate(1321.923828 0)"/>
    </g>
   </g>
   <g id="legend_1">
    <g id="patch_6">
     <path d="M 45.420552 55.75274 
L 126.56274 55.75274 
Q 128.56274 55.75274 128.56274 53.75274 
L 128.56274 25.118365 
Q 128.56274 23.118365 126.56274 23.118365 
L 45.420552 23.118365 
Q 43.420552 23.118365 43.420552 25.118365 
L 43.420552 53.75274 
Q 43.420552 55.75274 45.420552 55.75274 
z
" style="fill: #ffffff; opacity: 0.8; stroke: #cccccc; stroke-linejoin: miter"/>
    </g>
    <g id="line2d_16">
     <path d="M 47.420552 31.216803 
L 57.420552 31.216803 
L 67.420552 31.216803 
" style="fill: none; stroke: #1f77b4; stroke-width: 1.5; stroke-linecap: square"/>
    </g>
    <g id="text_19">
     <!-- eerie -->
     <g transform="translate(75.420552 34.716803) scale(0.1 -0.1)">
      <defs>
       <path id="DejaVuSans-72" d="M 2631 2963 
Q 2534 3019 2420 3045 
Q 2306 3072 2169 3072 
Q 1681 3072 1420 2755 
Q 1159 2438 1159 1844 
L 1159 0 
L 581 0 
L 581 3500 
L 1159 3500 
L 1159 2956 
Q 1341 3275 1631 3429 
Q 1922 3584 2338 3584 
Q 2397 3584 2469 3576 
Q 2541 3569 2628 3553 
L 2631 2963 
z
" transform="scale(0.015625)"/>
      </defs>
      <use xlink:href="#DejaVuSans-65"/>
      <use xlink:href="#DejaVuSans-65" transform="translate(61.523438 0)"/>
      <use xlink:href="#DejaVuSans-72" transform="translate(123.046875 0)"/>
      <use xlink:href="#DejaVuSans-69" transform="translate(164.160156 0)"/>
      <use xlink:href="#DejaVuSans-65" transform="translate(191.943359 0)"/>
     </g>
    </g>
    <g id="line2d_17">
     <path d="M 47.420552 45.894928 
L 57.420552 45.894928 
L 67.420552 45.894928 
" style="fill: none; stroke: #ff7f0e; stroke-width: 1.5; stroke-linecap: square"/>
    </g>
    <g id="text_20">
     <!-- non_eerie -->
     <g transform="translate(75.420552 49.394928) scale(0.1 -0.1)">
      <defs>
       <path id="DejaVuSans-6f" d="M 1959 3097 
Q 1497 3097 1228 2736 
Q 959 2375 959 1747 
Q 959 1119 1226 758 
Q 1494 397 1959 397 
Q 2419 397 2687 759 
Q 2956 1122 2956 1747 
Q 2956 2369 2687 2733 
Q 2419 3097 1959 3097 
z
M 1959 3584 
Q 2709 3584 3137 3096 
Q 3566 2609 3566 1747 
Q 3566 888 3137 398 
Q 2709 -91 1959 -91 
Q 1206 -91 779 398 
Q 353 888 353 1747 
Q 353 2609 779 3096 
Q 1206 3584 1959 3584 
z
" transform="scale(0.015625)"/>
       <path id="DejaVuSans-5f" d="M 3263 -1063 
L 3263 -1509 
L -63 -1509 
L -63 -1063 
L 3263 -1063 
z
" transform="scale(0.015625)"/>
      </defs>
      <use xlink:href="#DejaVuSans-6e"/>
      <use xlink:href="#DejaVuSans-6f" transform="translate(63.378906 0)"/>
      <use xlink:href="#DejaVuSans-6e" transform="translate(124.560547 0)"/>
      <use xlink:href="#DejaVuSans-5f" transform="translate(187.939453 0)"/>
      <use xlink:href="#DejaVuSans-65" transform="translate(237.939453 0)"/>
      <use xlink:href="#DejaVuSans-65" transform="translate(299.462891 0)"/>
      <use xlink:href="#DejaVuSans-72" transform="translate(360.986328 0)"/>
      <use xlink:href="#DejaVuSans-69" transform="translate(402.099609 0)"/>
      <use xlink:href="#DejaVuSans-65" transform="translate(429.882812 0)"/>
     </g>
    </g>
   </g>
   <g id="line2d_18">
    <path d="M 38.420552 183.802133 
L 40.161853 181.959164 
L 41.903153 182.4168 
L 43.644454 185.379529 
L 45.385754 188.924408 
L 47.127054 190.288206 
L 48.868355 188.044527 
L 50.609655 183.315055 
L 52.350955 179.069088 
L 54.092256 177.967204 
L 55.833556 180.476822 
L 57.574856 184.828017 
L 59.316157 188.733448 
L 62.798757 194.116109 
L 64.540058 198.847897 
L 68.022658 213.389365 
L 69.763959 217.482218 
L 71.505259 215.917172 
L 73.24656 209.609087 
L 74.98786 202.413018 
L 76.72916 198.741995 
L 78.470461 200.769675 
L 80.211761 207.249633 
L 81.953061 214.770513 
L 83.694362 220.277426 
L 85.435662 222.868878 
L 87.176962 223.625865 
L 88.918263 223.903377 
L 90.659563 223.756118 
L 92.400863 221.96707 
L 94.142164 217.583445 
L 95.883464 211.526295 
L 97.624764 206.809557 
L 99.366065 206.811096 
L 101.107365 212.895555 
L 104.589966 233.489033 
L 106.331266 239.899422 
L 108.072567 240.872128 
L 109.813867 237.682537 
L 111.555167 232.9516 
L 113.296468 228.572139 
L 115.037768 224.762624 
L 116.779068 220.684885 
L 118.520369 215.932048 
L 120.261669 211.53628 
L 122.002969 209.606015 
L 123.74427 211.915536 
L 125.48557 218.658828 
L 128.968171 237.713473 
L 130.709471 244.917001 
L 132.450771 248.263375 
L 134.192072 247.242572 
L 135.933372 242.213613 
L 139.415973 226.22359 
L 141.157273 220.43185 
L 142.898574 219.410158 
L 144.639874 223.469359 
L 146.381174 230.419911 
L 148.122475 236.595601 
L 149.863775 239.155459 
L 151.605075 237.994212 
L 153.346376 235.795244 
L 155.087676 235.994549 
L 156.828976 240.053055 
L 158.570277 246.09041 
L 160.311577 250.018593 
L 162.052877 248.489104 
L 163.794178 241.472343 
L 165.535478 232.520932 
L 167.276778 226.629496 
L 169.018079 227.058876 
L 170.759379 233.450641 
L 172.500679 242.2878 
L 174.24198 249.192524 
L 175.98328 251.325581 
L 177.724581 248.536658 
L 181.207181 236.818435 
L 182.948482 232.669453 
L 184.689782 231.228867 
L 186.431082 232.01576 
L 188.172383 233.364661 
L 189.913683 232.849668 
L 191.654983 228.146869 
L 193.396284 218.007143 
L 195.137584 202.874305 
L 198.620185 165.139021 
L 202.102785 124.297227 
L 205.585386 78.138421 
L 207.326686 58.188276 
L 209.067987 47.25624 
L 210.809287 49.455089 
L 212.550588 64.67298 
L 216.033188 112.870139 
L 217.774489 133.156795 
L 219.515789 147.188734 
L 221.257089 156.668336 
L 222.99839 164.229362 
L 224.73969 170.742821 
L 226.48099 174.544516 
L 228.222291 173.097059 
L 229.963591 165.515724 
L 233.446192 141.693523 
L 235.187492 132.264289 
L 236.928792 125.657664 
L 238.670093 119.490369 
L 240.411393 111.054119 
L 243.893994 88.493336 
L 245.635294 80.852765 
L 247.376595 79.395509 
L 249.117895 83.12031 
L 250.859195 88.075037 
L 252.600496 89.928316 
L 254.341796 86.965473 
L 256.083096 81.297028 
L 257.824397 77.494879 
L 259.565697 79.828835 
L 261.306997 89.726947 
L 263.048298 105.201056 
L 264.789598 122.266904 
L 266.530898 137.245899 
L 268.272199 148.403338 
L 270.013499 156.086825 
L 271.754799 161.615294 
L 273.4961 165.935575 
L 275.2374 169.011784 
L 276.9787 170.068064 
L 278.720001 168.458715 
L 280.461301 164.304276 
L 283.943902 152.891012 
L 285.685202 148.235088 
L 287.426503 144.892294 
L 289.167803 141.922207 
L 290.909103 137.610871 
L 292.650404 130.44433 
L 294.391704 120.281163 
L 296.133004 108.967658 
L 297.874305 99.807454 
L 299.615605 95.949067 
L 301.356905 98.432566 
L 304.839506 112.358093 
L 306.580806 115.788965 
L 308.322107 114.229143 
L 310.063407 109.553075 
L 311.804707 105.357739 
L 313.546008 104.457566 
L 315.287308 107.089269 
L 317.028609 111.264049 
L 318.769909 114.668948 
L 322.25251 118.64856 
L 323.99381 122.511501 
L 325.73511 128.803465 
L 327.476411 136.010676 
L 329.217711 141.679781 
L 330.959011 144.39413 
L 332.700312 144.868198 
L 334.441612 145.154212 
L 336.182912 146.689825 
L 337.924213 148.971446 
L 339.665513 149.989397 
L 341.406813 148.112242 
L 343.148114 143.672346 
L 344.889414 138.86687 
L 346.630714 135.890087 
L 348.372015 135.18649 
L 350.113315 135.119617 
L 351.854616 133.574436 
L 353.595916 129.942411 
L 355.337216 125.666108 
L 357.078517 122.741954 
L 358.819817 121.497863 
L 360.561117 119.642529 
L 362.302418 113.720207 
L 364.043718 101.893097 
L 367.526319 70.353758 
L 369.267619 59.847862 
L 371.008919 55.880223 
L 374.49152 56.491378 
L 376.23282 53.97706 
L 379.715421 43.346407 
L 381.456721 40.220638 
L 383.198022 39.715066 
L 384.939322 39.938763 
L 386.680623 38.630719 
L 388.421923 35.182194 
L 390.163223 31.275323 
L 391.904524 29.627021 
L 393.645824 31.889422 
L 395.387124 37.343691 
L 397.128425 43.329281 
L 398.869725 46.864296 
L 400.611025 46.288075 
L 402.352326 41.917679 
L 405.834926 28.956227 
L 407.576227 23.696832 
L 409.317527 20.220866 
L 411.058827 18.444094 
L 412.800128 18.118365 
L 414.541428 19.105518 
L 416.282728 21.493923 
L 418.024029 25.399362 
L 419.765329 30.70255 
L 421.50663 36.742734 
L 423.24793 42.269535 
L 424.98923 45.926338 
L 426.730531 46.976519 
L 428.471831 45.94721 
L 430.213131 44.727859 
L 431.954432 45.630488 
L 433.695732 50.121507 
L 435.437032 57.842682 
L 437.178333 66.769853 
L 438.919633 74.459519 
L 440.660933 79.503336 
L 442.402234 82.204947 
L 444.143534 84.063525 
L 445.884834 86.543974 
L 447.626135 90.109799 
L 449.367435 94.090802 
L 451.108735 97.460281 
L 452.850036 99.773954 
L 454.591336 101.440289 
L 456.332637 103.293571 
L 458.073937 105.833471 
L 461.556538 111.958116 
L 463.297838 114.585224 
L 465.039138 117.010019 
L 466.780439 119.973478 
L 468.521739 124.238855 
L 470.263039 130.083077 
L 475.48694 151.121478 
L 477.228241 156.424693 
L 478.969541 159.922031 
L 480.710841 161.457417 
L 482.452142 161.09932 
L 484.193442 159.164894 
L 485.934742 156.170368 
L 487.676043 152.882687 
L 489.417343 150.162903 
L 491.158644 148.771482 
L 492.899944 149.188473 
L 494.641244 151.425475 
L 496.382545 155.025595 
L 499.865145 163.033931 
L 501.606446 166.221715 
L 505.089046 171.618027 
L 506.830347 174.92541 
L 512.054248 186.640841 
L 513.795548 189.052502 
L 515.536848 190.289762 
L 517.278149 190.749919 
L 519.019449 190.968151 
L 520.760749 191.043811 
L 522.50205 190.542229 
L 524.24335 188.792165 
L 525.984651 185.480867 
L 527.725951 181.191172 
L 529.467251 177.529456 
L 531.208552 176.513332 
L 532.949852 179.587003 
L 534.691152 186.633433 
L 536.432453 195.723799 
L 538.173753 203.856982 
L 539.915053 208.528647 
L 541.656354 209.135414 
L 545.138954 205.385135 
L 546.880255 205.226601 
L 548.621555 206.217939 
L 550.362855 206.00054 
L 552.104156 202.321134 
L 553.845456 195.125353 
L 555.586756 187.221927 
L 557.328057 182.734349 
L 559.069357 184.271746 
L 560.810658 190.882748 
L 562.551958 198.587526 
L 564.293258 203.038138 
L 566.034559 202.523401 
L 567.775859 199.138053 
L 569.517159 197.068499 
L 571.25846 199.371311 
L 572.99976 205.738599 
L 572.99976 205.738599 
" style="fill: none; stroke: #1f77b4; stroke-width: 1.5; stroke-linecap: square"/>
   </g>
   <g id="line2d_19">
    <path d="M 38.420552 194.34293 
L 40.161853 193.198655 
L 41.903153 192.613412 
L 43.644454 193.078034 
L 45.385754 193.884029 
L 47.127054 193.796112 
L 48.868355 192.239902 
L 50.609655 189.999744 
L 52.350955 188.70872 
L 54.092256 189.560964 
L 55.833556 192.164545 
L 57.574856 194.541967 
L 59.316157 194.405306 
L 61.057457 190.918866 
L 62.798757 185.585432 
L 64.540058 181.636688 
L 66.281358 182.203905 
L 68.022658 188.368639 
L 71.505259 208.720741 
L 73.24656 215.733326 
L 74.98786 217.745414 
L 76.72916 215.544039 
L 78.470461 211.684926 
L 80.211761 208.919142 
L 81.953061 208.82173 
L 83.694362 211.224609 
L 85.435662 214.606906 
L 87.176962 217.108339 
L 88.918263 217.500705 
L 90.659563 215.752036 
L 92.400863 212.893128 
L 94.142164 210.479969 
L 95.883464 209.803917 
L 97.624764 211.248378 
L 101.107365 217.321483 
L 102.848665 219.50549 
L 104.589966 220.348054 
L 106.331266 220.436193 
L 108.072567 220.864733 
L 109.813867 222.459861 
L 113.296468 227.814333 
L 115.037768 229.223868 
L 116.779068 228.657984 
L 118.520369 226.541347 
L 120.261669 224.222121 
L 122.002969 223.122392 
L 123.74427 223.872046 
L 125.48557 226.061724 
L 127.22687 228.610952 
L 128.968171 230.507724 
L 130.709471 231.451212 
L 134.192072 232.198311 
L 139.415973 234.210803 
L 141.157273 234.399571 
L 142.898574 234.751084 
L 144.639874 236.149554 
L 146.381174 239.269094 
L 148.122475 244.009769 
L 149.863775 249.351874 
L 151.605075 253.733461 
L 153.346376 255.783697 
L 155.087676 254.976737 
L 156.828976 251.963492 
L 158.570277 248.296796 
L 160.311577 245.690076 
L 162.052877 245.209601 
L 163.794178 246.748001 
L 165.535478 249.140049 
L 167.276778 250.931272 
L 169.018079 251.306858 
L 170.759379 250.699233 
L 172.500679 250.451203 
L 174.24198 251.892995 
L 175.98328 255.339687 
L 177.724581 259.724795 
L 179.465881 263.196419 
L 181.207181 264.333356 
L 182.948482 263.105776 
L 184.689782 260.822166 
L 186.431082 258.979573 
L 188.172383 257.926648 
L 189.913683 256.258411 
L 191.654983 251.484618 
L 193.396284 241.625913 
L 195.137584 226.538673 
L 200.361485 171.480722 
L 202.102785 155.766157 
L 205.585386 127.035253 
L 207.326686 113.864563 
L 209.067987 103.533046 
L 210.809287 98.28892 
L 212.550588 99.455276 
L 214.291888 106.721457 
L 216.033188 118.462636 
L 221.257089 161.025895 
L 222.99839 172.695699 
L 224.73969 180.874607 
L 226.48099 184.428478 
L 228.222291 183.131322 
L 229.963591 178.075389 
L 231.704891 171.423612 
L 233.446192 165.440799 
L 235.187492 161.372913 
L 236.928792 158.940159 
L 238.670093 156.701233 
L 240.411393 153.042682 
L 242.152693 147.193937 
L 245.635294 131.749507 
L 247.376595 125.27018 
L 249.117895 121.378725 
L 250.859195 120.434501 
L 252.600496 121.869546 
L 254.341796 124.466367 
L 256.083096 126.789665 
L 257.824397 127.765372 
L 259.565697 127.258612 
L 261.306997 126.269164 
L 263.048298 126.502016 
L 264.789598 129.532134 
L 266.530898 135.844454 
L 270.013499 153.038251 
L 271.754799 159.947031 
L 273.4961 164.585139 
L 275.2374 168.017134 
L 276.9787 171.9682 
L 278.720001 177.36827 
L 280.461301 183.355748 
L 282.202602 187.626318 
L 283.943902 187.919554 
L 285.685202 183.700398 
L 289.167803 170.083135 
L 290.909103 165.973871 
L 292.650404 164.328524 
L 294.391704 162.879146 
L 296.133004 159.026319 
L 297.874305 152.021422 
L 299.615605 143.896639 
L 301.356905 138.315392 
L 303.098206 138.029295 
L 304.839506 142.802168 
L 306.580806 149.306826 
L 308.322107 153.199521 
L 310.063407 152.016915 
L 313.546008 141.220112 
L 315.287308 139.198805 
L 317.028609 142.038342 
L 318.769909 147.764716 
L 320.511209 152.585157 
L 322.25251 153.557804 
L 323.99381 150.447462 
L 325.73511 145.61919 
L 327.476411 142.264094 
L 329.217711 142.26839 
L 330.959011 145.326233 
L 332.700312 149.609068 
L 334.441612 153.262816 
L 336.182912 155.509861 
L 337.924213 156.672603 
L 341.406813 158.069557 
L 343.148114 158.736191 
L 344.889414 159.819241 
L 346.630714 162.353761 
L 348.372015 167.405105 
L 351.854616 182.685237 
L 353.595916 187.405326 
L 355.337216 186.060197 
L 357.078517 178.229024 
L 358.819817 166.813786 
L 360.561117 156.747379 
L 362.302418 152.24355 
L 364.043718 154.299438 
L 365.785018 160.13488 
L 367.526319 164.991953 
L 369.267619 165.098697 
L 371.008919 159.89655 
L 372.75022 152.157733 
L 374.49152 145.968068 
L 376.23282 144.092079 
L 377.974121 146.407577 
L 379.715421 150.31264 
L 381.456721 152.641325 
L 383.198022 151.673364 
L 384.939322 148.006185 
L 386.680623 143.814094 
L 388.421923 141.257191 
L 390.163223 141.228265 
L 391.904524 143.040536 
L 393.645824 145.268342 
L 395.387124 146.753587 
L 397.128425 147.190031 
L 398.869725 146.922906 
L 400.611025 146.310143 
L 402.352326 145.312845 
L 404.093626 143.566171 
L 405.834926 140.81626 
L 407.576227 137.441396 
L 409.317527 134.339185 
L 411.058827 132.397453 
L 412.800128 131.849545 
L 414.541428 132.030849 
L 416.282728 131.775943 
L 418.024029 130.170493 
L 419.765329 127.202786 
L 421.50663 123.840713 
L 423.24793 121.38429 
L 424.98923 120.684152 
L 426.730531 121.550515 
L 428.471831 122.863323 
L 430.213131 123.324126 
L 431.954432 122.243364 
L 435.437032 117.454723 
L 437.178333 115.995197 
L 438.919633 116.147292 
L 440.660933 117.735093 
L 442.402234 120.131258 
L 449.367435 130.56998 
L 451.108735 132.995019 
L 452.850036 134.741346 
L 454.591336 135.424648 
L 456.332637 135.113315 
L 458.073937 134.369518 
L 459.815237 133.993168 
L 461.556538 134.585447 
L 463.297838 136.239161 
L 465.039138 138.627952 
L 468.521739 143.946239 
L 470.263039 146.41018 
L 472.00434 148.545549 
L 473.74564 150.115071 
L 475.48694 150.901748 
L 478.969541 150.986725 
L 480.710841 151.810084 
L 482.452142 154.163682 
L 484.193442 157.954163 
L 485.934742 162.114105 
L 487.676043 165.118625 
L 489.417343 165.849554 
L 491.158644 164.376692 
L 492.899944 161.999416 
L 494.641244 160.571096 
L 496.382545 161.514569 
L 498.123845 165.108381 
L 499.865145 170.504761 
L 501.606446 176.316456 
L 503.347746 181.316253 
L 505.089046 184.886393 
L 506.830347 187.033323 
L 508.571647 188.096227 
L 510.312947 188.502998 
L 513.795548 188.850346 
L 515.536848 189.382062 
L 517.278149 190.318246 
L 519.019449 191.570511 
L 522.50205 194.542427 
L 524.24335 196.474525 
L 525.984651 199.034459 
L 527.725951 202.103018 
L 529.467251 204.913421 
L 531.208552 206.319153 
L 532.949852 205.446387 
L 534.691152 202.383235 
L 536.432453 198.338388 
L 538.173753 195.023078 
L 539.915053 193.717668 
L 541.656354 194.556096 
L 545.138954 198.811792 
L 546.880255 200.37117 
L 548.621555 201.48399 
L 550.362855 202.768907 
L 552.104156 204.652529 
L 555.586756 209.345688 
L 557.328057 211.234187 
L 559.069357 212.56146 
L 560.810658 213.319894 
L 562.551958 213.201422 
L 564.293258 211.615959 
L 566.034559 208.314214 
L 567.775859 204.137008 
L 569.517159 201.167459 
L 571.25846 201.859029 
L 572.99976 207.474233 
L 572.99976 207.474233 
" style="fill: none; stroke: #ff7f0e; stroke-width: 1.5; stroke-linecap: square"/>
   </g>
  </g>
  <g id="axes_2">
   <g id="PathCollection_1">
    <defs>
     <path id="C0_0_c0bdea8540" d="M 0 1.118034 
C 0.296506 1.118034 0.580908 1.000231 0.790569 0.790569 
C 1.000231 0.580908 1.118034 0.296506 1.118034 -0 
C 1.118034 -0.296506 1.000231 -0.580908 0.790569 -0.790569 
C 0.580908 -1.000231 0.296506 -1.118034 0 -1.118034 
C -0.296506 -1.118034 -0.580908 -1.000231 -0.790569 -0.790569 
C -1.000231 -0.580908 -1.118034 -0.296506 -1.118034 0 
C -1.118034 0.296506 -1.000231 0.580908 -0.790569 0.790569 
C -0.580908 1.000231 -0.296506 1.118034 0 1.118034 
z
"/>
    </defs>
    <g clip-path="url(#p1fbe2fc969)">
     <use xlink:href="#C0_0_c0bdea8540" x="520.214892" y="76.414924" style="stroke: #000000"/>
    </g>
    <g clip-path="url(#p1fbe2fc969)">
     <use xlink:href="#C0_0_c0bdea8540" x="520.157608" y="85.803835" style="stroke: #000000"/>
    </g>
    <g clip-path="url(#p1fbe2fc969)">
     <use xlink:href="#C0_0_c0bdea8540" x="520.252749" y="66.30393" style="stroke: #000000"/>
    </g>
   </g>
   <g id="matplotlib.axis_3"/>
   <g id="matplotlib.axis_4"/>
   <g id="line2d_20">
    <path d="M 559.991178 73.637025 
L 559.913484 71.164739 
L 559.680706 68.70221 
L 559.293765 66.259156 
L 558.754186 63.845219 
L 558.064099 61.469927 
L 557.226229 59.142652 
L 556.243881 56.87258 
L 555.120932 54.668669 
L 553.861815 52.539618 
L 552.471498 50.493829 
L 550.955468 48.539375 
L 549.319709 46.68397 
L 547.570676 44.934937 
L 545.715271 43.299178 
L 543.760817 41.783148 
L 541.715028 40.392831 
L 539.585977 39.133714 
L 537.382067 38.010765 
L 535.111994 37.028417 
L 532.78472 36.190547 
L 530.409427 35.50046 
L 527.99549 34.960882 
L 525.552436 34.57394 
L 523.089907 34.341162 
L 520.617621 34.263468 
L 518.145335 34.341162 
L 515.682806 34.57394 
L 513.239752 34.960882 
L 510.825816 35.50046 
L 508.450523 36.190547 
L 506.123248 37.028417 
L 503.853176 38.010765 
L 501.649265 39.133714 
L 499.520214 40.392831 
L 497.474425 41.783148 
L 495.519971 43.299178 
L 493.664567 44.934937 
L 491.915533 46.68397 
L 490.279774 48.539375 
L 488.763744 50.493829 
L 487.373427 52.539618 
L 486.11431 54.668669 
L 484.991361 56.87258 
L 484.009014 59.142652 
L 483.171143 61.469927 
L 482.481057 63.845219 
L 481.941478 66.259156 
L 481.554536 68.70221 
L 481.321759 71.164739 
L 481.244064 73.637025 
L 481.321759 76.109311 
L 481.554536 78.57184 
L 481.941478 81.014894 
L 482.481057 83.42883 
L 483.171143 85.804123 
L 484.009014 88.131398 
L 484.991361 90.40147 
L 486.11431 92.605381 
L 487.373427 94.734432 
L 488.763744 96.780221 
L 490.279774 98.734675 
L 491.915533 100.59008 
L 493.664567 102.339113 
L 495.519971 103.974872 
L 497.474425 105.490902 
L 499.520214 106.881219 
L 501.649265 108.140336 
L 503.853176 109.263285 
L 506.123248 110.245633 
L 508.450523 111.083503 
L 510.825816 111.773589 
L 513.239752 112.313168 
L 515.682806 112.70011 
L 518.145335 112.932887 
L 520.617621 113.010582 
L 523.089907 112.932887 
L 525.552436 112.70011 
L 527.99549 112.313168 
L 530.409427 111.773589 
L 532.78472 111.083503 
L 535.111994 110.245633 
L 537.382067 109.263285 
L 539.585977 108.140336 
L 541.715028 106.881219 
L 543.760817 105.490902 
L 545.715271 103.974872 
L 547.570676 102.339113 
L 549.319709 100.59008 
L 550.955468 98.734675 
L 552.471498 96.780221 
L 553.861815 94.734432 
L 555.120932 92.605381 
L 556.243881 90.40147 
L 557.226229 88.131398 
L 558.064099 85.804123 
L 558.754186 83.42883 
L 559.293765 81.014894 
L 559.680706 78.57184 
L 559.913484 76.109311 
L 559.991178 73.637025 
" style="fill: none; stroke: #000000; stroke-linecap: square"/>
   </g>
   <g id="line2d_21">
    <path d="M 512.371243 35.13671 
L 520.617621 28.357434 
L 528.864 35.13671 
" style="fill: none; stroke: #000000; stroke-linecap: square"/>
   </g>
   <g id="line2d_22">
    <path d="M 481.480305 69.26656 
L 480.456593 67.534124 
L 479.826616 67.471126 
L 478.889525 67.76249 
L 477.94456 69.26656 
L 478.094179 74.070134 
L 477.54295 80.976256 
L 478.724156 83.976521 
L 480.456593 84.535626 
L 482.110282 83.078804 
" style="fill: none; stroke: #000000; stroke-linecap: square"/>
   </g>
   <g id="line2d_23">
    <path d="M 559.754937 69.26656 
L 560.77865 67.534124 
L 561.408627 67.471126 
L 562.345717 67.76249 
L 563.290683 69.26656 
L 563.141063 74.070134 
L 563.692293 80.976256 
L 562.511086 83.976521 
L 560.77865 84.535626 
L 559.12496 83.078804 
" style="fill: none; stroke: #000000; stroke-linecap: square"/>
   </g>
  </g>
 </g>
 <defs>
  <clipPath id="p9dd3a43fdb">
   <rect x="38.420552" y="18.118365" width="534.579207" height="380.525145"/>
  </clipPath>
  <clipPath id="p1fbe2fc969">
   <rect x="473.235482" y="24.124777" width="94.764278" height="93.118463"/>
  </clipPath>
 </defs>
</svg>
