<?xml version="1.0" encoding="utf-8" standalone="no"?>
<!DOCTYPE svg PUBLIC "-//W3C//DTD SVG 1.1//EN"
  "http://www.w3.org/Graphics/SVG/1.1/DTD/svg11.dtd">
<svg xmlns:xlink="http://www.w3.org/1999/xlink" width="576pt" height="432pt" viewBox="0 0 576 432" xmlns="http://www.w3.org/2000/svg" version="1.1">
 <metadata>
  <rdf:RDF xmlns:dc="http://purl.org/dc/elements/1.1/" xmlns:cc="http://creativecommons.org/ns#" xmlns:rdf="http://www.w3.org/1999/02/22-rdf-syntax-ns#">
   <cc:Work>
    <dc:type rdf:resource="http://purl.org/dc/dcmitype/StillImage"/>
    <dc:date>2025-02-14T14:31:01.218060</dc:date>
    <dc:format>image/svg+xml</dc:format>
    <dc:creator>
     <cc:Agent>
      <dc:title>Matplotlib v3.10.0, https://matplotlib.org/</dc:title>
     </cc:Agent>
    </dc:creator>
   </cc:Work>
  </rdf:RDF>
 </metadata>
 <defs>
  <style type="text/css">*{stroke-linejoin: round; stroke-linecap: butt}</style>
 </defs>
 <g id="figure_1">
  <g id="patch_1">
   <path d="M 0 432 
L 576 432 
L 576 0 
L 0 0 
z
" style="fill: #ffffff"/>
  </g>
  <g id="axes_1">
   <g id="patch_2">
    <path d="M 38.420552 398.64351 
L 572.99976 398.64351 
L 572.99976 18.118365 
L 38.420552 18.118365 
L 38.420552 398.64351 
z
" style="fill: none; opacity: 0"/>
   </g>
   <g id="patch_3">
    <path d="M 38.420552 381.044498 
L 38.420552 35.717377 
" style="fill: none; stroke: #000000; stroke-width: 0.8; stroke-linejoin: miter; stroke-linecap: square"/>
   </g>
   <g id="LineCollection_1">
    <path d="M 185.177346 18.118365 
L 185.177346 398.64351 
" clip-path="url(#pafb160fe2b)" style="fill: none; stroke-dasharray: 3.7,1.6; stroke-dashoffset: 0; stroke: #000000"/>
    <path d="M 211.923719 18.118365 
L 211.923719 398.64351 
" clip-path="url(#pafb160fe2b)" style="fill: none; stroke-dasharray: 3.7,1.6; stroke-dashoffset: 0; stroke: #000000"/>
   </g>
   <g id="matplotlib.axis_1">
    <g id="xtick_1">
     <g id="line2d_1">
      <defs>
       <path id="mc71c59bb7e" d="M 0 0 
L 0 3.5 
" style="stroke: #000000; stroke-width: 0.8"/>
      </defs>
      <g>
       <use xlink:href="#mc71c59bb7e" x="64.818666" y="398.64351" style="stroke: #000000; stroke-width: 0.8"/>
      </g>
     </g>
     <g id="text_1">
      <!-- −0.20 -->
      <g transform="translate(49.49601 413.241947) scale(0.1 -0.1)">
       <defs>
        <path id="DejaVuSans-2212" d="M 678 2272 
L 4684 2272 
L 4684 1741 
L 678 1741 
L 678 2272 
z
" transform="scale(0.015625)"/>
        <path id="DejaVuSans-30" d="M 2034 4250 
Q 1547 4250 1301 3770 
Q 1056 3291 1056 2328 
Q 1056 1369 1301 889 
Q 1547 409 2034 409 
Q 2525 409 2770 889 
Q 3016 1369 3016 2328 
Q 3016 3291 2770 3770 
Q 2525 4250 2034 4250 
z
M 2034 4750 
Q 2819 4750 3233 4129 
Q 3647 3509 3647 2328 
Q 3647 1150 3233 529 
Q 2819 -91 2034 -91 
Q 1250 -91 836 529 
Q 422 1150 422 2328 
Q 422 3509 836 4129 
Q 1250 4750 2034 4750 
z
" transform="scale(0.015625)"/>
        <path id="DejaVuSans-2e" d="M 684 794 
L 1344 794 
L 1344 0 
L 684 0 
L 684 794 
z
" transform="scale(0.015625)"/>
        <path id="DejaVuSans-32" d="M 1228 531 
L 3431 531 
L 3431 0 
L 469 0 
L 469 531 
Q 828 903 1448 1529 
Q 2069 2156 2228 2338 
Q 2531 2678 2651 2914 
Q 2772 3150 2772 3378 
Q 2772 3750 2511 3984 
Q 2250 4219 1831 4219 
Q 1534 4219 1204 4116 
Q 875 4013 500 3803 
L 500 4441 
Q 881 4594 1212 4672 
Q 1544 4750 1819 4750 
Q 2544 4750 2975 4387 
Q 3406 4025 3406 3419 
Q 3406 3131 3298 2873 
Q 3191 2616 2906 2266 
Q 2828 2175 2409 1742 
Q 1991 1309 1228 531 
z
" transform="scale(0.015625)"/>
       </defs>
       <use xlink:href="#DejaVuSans-2212"/>
       <use xlink:href="#DejaVuSans-30" transform="translate(83.789062 0)"/>
       <use xlink:href="#DejaVuSans-2e" transform="translate(147.412109 0)"/>
       <use xlink:href="#DejaVuSans-32" transform="translate(179.199219 0)"/>
       <use xlink:href="#DejaVuSans-30" transform="translate(242.822266 0)"/>
      </g>
     </g>
    </g>
    <g id="xtick_2">
     <g id="line2d_2">
      <g>
       <use xlink:href="#mc71c59bb7e" x="153.973244" y="398.64351" style="stroke: #000000; stroke-width: 0.8"/>
      </g>
     </g>
     <g id="text_2">
      <!-- 0.00 -->
      <g transform="translate(142.840431 413.241947) scale(0.1 -0.1)">
       <use xlink:href="#DejaVuSans-30"/>
       <use xlink:href="#DejaVuSans-2e" transform="translate(63.623047 0)"/>
       <use xlink:href="#DejaVuSans-30" transform="translate(95.410156 0)"/>
       <use xlink:href="#DejaVuSans-30" transform="translate(159.033203 0)"/>
      </g>
     </g>
    </g>
    <g id="xtick_3">
     <g id="line2d_3">
      <g>
       <use xlink:href="#mc71c59bb7e" x="185.177346" y="398.64351" style="stroke: #000000; stroke-width: 0.8"/>
      </g>
     </g>
     <g id="text_3">
      <!-- 0.07 -->
      <g transform="translate(174.044534 413.241947) scale(0.1 -0.1)">
       <defs>
        <path id="DejaVuSans-37" d="M 525 4666 
L 3525 4666 
L 3525 4397 
L 1831 0 
L 1172 0 
L 2766 4134 
L 525 4134 
L 525 4666 
z
" transform="scale(0.015625)"/>
       </defs>
       <use xlink:href="#DejaVuSans-30"/>
       <use xlink:href="#DejaVuSans-2e" transform="translate(63.623047 0)"/>
       <use xlink:href="#DejaVuSans-30" transform="translate(95.410156 0)"/>
       <use xlink:href="#DejaVuSans-37" transform="translate(159.033203 0)"/>
      </g>
     </g>
    </g>
    <g id="xtick_4">
     <g id="line2d_4">
      <g>
       <use xlink:href="#mc71c59bb7e" x="211.923719" y="398.64351" style="stroke: #000000; stroke-width: 0.8"/>
      </g>
     </g>
     <g id="text_4">
      <!-- 0.13 -->
      <g transform="translate(200.790907 413.241947) scale(0.1 -0.1)">
       <defs>
        <path id="DejaVuSans-31" d="M 794 531 
L 1825 531 
L 1825 4091 
L 703 3866 
L 703 4441 
L 1819 4666 
L 2450 4666 
L 2450 531 
L 3481 531 
L 3481 0 
L 794 0 
L 794 531 
z
" transform="scale(0.015625)"/>
        <path id="DejaVuSans-33" d="M 2597 2516 
Q 3050 2419 3304 2112 
Q 3559 1806 3559 1356 
Q 3559 666 3084 287 
Q 2609 -91 1734 -91 
Q 1441 -91 1130 -33 
Q 819 25 488 141 
L 488 750 
Q 750 597 1062 519 
Q 1375 441 1716 441 
Q 2309 441 2620 675 
Q 2931 909 2931 1356 
Q 2931 1769 2642 2001 
Q 2353 2234 1838 2234 
L 1294 2234 
L 1294 2753 
L 1863 2753 
Q 2328 2753 2575 2939 
Q 2822 3125 2822 3475 
Q 2822 3834 2567 4026 
Q 2313 4219 1838 4219 
Q 1578 4219 1281 4162 
Q 984 4106 628 3988 
L 628 4550 
Q 988 4650 1302 4700 
Q 1616 4750 1894 4750 
Q 2613 4750 3031 4423 
Q 3450 4097 3450 3541 
Q 3450 3153 3228 2886 
Q 3006 2619 2597 2516 
z
" transform="scale(0.015625)"/>
       </defs>
       <use xlink:href="#DejaVuSans-30"/>
       <use xlink:href="#DejaVuSans-2e" transform="translate(63.623047 0)"/>
       <use xlink:href="#DejaVuSans-31" transform="translate(95.410156 0)"/>
       <use xlink:href="#DejaVuSans-33" transform="translate(159.033203 0)"/>
      </g>
     </g>
    </g>
    <g id="xtick_5">
     <g id="line2d_5">
      <g>
       <use xlink:href="#mc71c59bb7e" x="243.127822" y="398.64351" style="stroke: #000000; stroke-width: 0.8"/>
      </g>
     </g>
     <g id="text_5">
      <!-- 0.20 -->
      <g transform="translate(231.995009 413.241947) scale(0.1 -0.1)">
       <use xlink:href="#DejaVuSans-30"/>
       <use xlink:href="#DejaVuSans-2e" transform="translate(63.623047 0)"/>
       <use xlink:href="#DejaVuSans-32" transform="translate(95.410156 0)"/>
       <use xlink:href="#DejaVuSans-30" transform="translate(159.033203 0)"/>
      </g>
     </g>
    </g>
    <g id="xtick_6">
     <g id="line2d_6">
      <g>
       <use xlink:href="#mc71c59bb7e" x="332.2824" y="398.64351" style="stroke: #000000; stroke-width: 0.8"/>
      </g>
     </g>
     <g id="text_6">
      <!-- 0.40 -->
      <g transform="translate(321.149587 413.241947) scale(0.1 -0.1)">
       <defs>
        <path id="DejaVuSans-34" d="M 2419 4116 
L 825 1625 
L 2419 1625 
L 2419 4116 
z
M 2253 4666 
L 3047 4666 
L 3047 1625 
L 3713 1625 
L 3713 1100 
L 3047 1100 
L 3047 0 
L 2419 0 
L 2419 1100 
L 313 1100 
L 313 1709 
L 2253 4666 
z
" transform="scale(0.015625)"/>
       </defs>
       <use xlink:href="#DejaVuSans-30"/>
       <use xlink:href="#DejaVuSans-2e" transform="translate(63.623047 0)"/>
       <use xlink:href="#DejaVuSans-34" transform="translate(95.410156 0)"/>
       <use xlink:href="#DejaVuSans-30" transform="translate(159.033203 0)"/>
      </g>
     </g>
    </g>
    <g id="xtick_7">
     <g id="line2d_7">
      <g>
       <use xlink:href="#mc71c59bb7e" x="421.436978" y="398.64351" style="stroke: #000000; stroke-width: 0.8"/>
      </g>
     </g>
     <g id="text_7">
      <!-- 0.60 -->
      <g transform="translate(410.304165 413.241947) scale(0.1 -0.1)">
       <defs>
        <path id="DejaVuSans-36" d="M 2113 2584 
Q 1688 2584 1439 2293 
Q 1191 2003 1191 1497 
Q 1191 994 1439 701 
Q 1688 409 2113 409 
Q 2538 409 2786 701 
Q 3034 994 3034 1497 
Q 3034 2003 2786 2293 
Q 2538 2584 2113 2584 
z
M 3366 4563 
L 3366 3988 
Q 3128 4100 2886 4159 
Q 2644 4219 2406 4219 
Q 1781 4219 1451 3797 
Q 1122 3375 1075 2522 
Q 1259 2794 1537 2939 
Q 1816 3084 2150 3084 
Q 2853 3084 3261 2657 
Q 3669 2231 3669 1497 
Q 3669 778 3244 343 
Q 2819 -91 2113 -91 
Q 1303 -91 875 529 
Q 447 1150 447 2328 
Q 447 3434 972 4092 
Q 1497 4750 2381 4750 
Q 2619 4750 2861 4703 
Q 3103 4656 3366 4563 
z
" transform="scale(0.015625)"/>
       </defs>
       <use xlink:href="#DejaVuSans-30"/>
       <use xlink:href="#DejaVuSans-2e" transform="translate(63.623047 0)"/>
       <use xlink:href="#DejaVuSans-36" transform="translate(95.410156 0)"/>
       <use xlink:href="#DejaVuSans-30" transform="translate(159.033203 0)"/>
      </g>
     </g>
    </g>
    <g id="xtick_8">
     <g id="line2d_8">
      <g>
       <use xlink:href="#mc71c59bb7e" x="510.591555" y="398.64351" style="stroke: #000000; stroke-width: 0.8"/>
      </g>
     </g>
     <g id="text_8">
      <!-- 0.80 -->
      <g transform="translate(499.458743 413.241947) scale(0.1 -0.1)">
       <defs>
        <path id="DejaVuSans-38" d="M 2034 2216 
Q 1584 2216 1326 1975 
Q 1069 1734 1069 1313 
Q 1069 891 1326 650 
Q 1584 409 2034 409 
Q 2484 409 2743 651 
Q 3003 894 3003 1313 
Q 3003 1734 2745 1975 
Q 2488 2216 2034 2216 
z
M 1403 2484 
Q 997 2584 770 2862 
Q 544 3141 544 3541 
Q 544 4100 942 4425 
Q 1341 4750 2034 4750 
Q 2731 4750 3128 4425 
Q 3525 4100 3525 3541 
Q 3525 3141 3298 2862 
Q 3072 2584 2669 2484 
Q 3125 2378 3379 2068 
Q 3634 1759 3634 1313 
Q 3634 634 3220 271 
Q 2806 -91 2034 -91 
Q 1263 -91 848 271 
Q 434 634 434 1313 
Q 434 1759 690 2068 
Q 947 2378 1403 2484 
z
M 1172 3481 
Q 1172 3119 1398 2916 
Q 1625 2713 2034 2713 
Q 2441 2713 2670 2916 
Q 2900 3119 2900 3481 
Q 2900 3844 2670 4047 
Q 2441 4250 2034 4250 
Q 1625 4250 1398 4047 
Q 1172 3844 1172 3481 
z
" transform="scale(0.015625)"/>
       </defs>
       <use xlink:href="#DejaVuSans-30"/>
       <use xlink:href="#DejaVuSans-2e" transform="translate(63.623047 0)"/>
       <use xlink:href="#DejaVuSans-38" transform="translate(95.410156 0)"/>
       <use xlink:href="#DejaVuSans-30" transform="translate(159.033203 0)"/>
      </g>
     </g>
    </g>
    <g id="text_9">
     <!-- Time (s) -->
     <g transform="translate(285.38125 426.920073) scale(0.1 -0.1)">
      <defs>
       <path id="DejaVuSans-54" d="M -19 4666 
L 3928 4666 
L 3928 4134 
L 2272 4134 
L 2272 0 
L 1638 0 
L 1638 4134 
L -19 4134 
L -19 4666 
z
" transform="scale(0.015625)"/>
       <path id="DejaVuSans-69" d="M 603 3500 
L 1178 3500 
L 1178 0 
L 603 0 
L 603 3500 
z
M 603 4863 
L 1178 4863 
L 1178 4134 
L 603 4134 
L 603 4863 
z
" transform="scale(0.015625)"/>
       <path id="DejaVuSans-6d" d="M 3328 2828 
Q 3544 3216 3844 3400 
Q 4144 3584 4550 3584 
Q 5097 3584 5394 3201 
Q 5691 2819 5691 2113 
L 5691 0 
L 5113 0 
L 5113 2094 
Q 5113 2597 4934 2840 
Q 4756 3084 4391 3084 
Q 3944 3084 3684 2787 
Q 3425 2491 3425 1978 
L 3425 0 
L 2847 0 
L 2847 2094 
Q 2847 2600 2669 2842 
Q 2491 3084 2119 3084 
Q 1678 3084 1418 2786 
Q 1159 2488 1159 1978 
L 1159 0 
L 581 0 
L 581 3500 
L 1159 3500 
L 1159 2956 
Q 1356 3278 1631 3431 
Q 1906 3584 2284 3584 
Q 2666 3584 2933 3390 
Q 3200 3197 3328 2828 
z
" transform="scale(0.015625)"/>
       <path id="DejaVuSans-65" d="M 3597 1894 
L 3597 1613 
L 953 1613 
Q 991 1019 1311 708 
Q 1631 397 2203 397 
Q 2534 397 2845 478 
Q 3156 559 3463 722 
L 3463 178 
Q 3153 47 2828 -22 
Q 2503 -91 2169 -91 
Q 1331 -91 842 396 
Q 353 884 353 1716 
Q 353 2575 817 3079 
Q 1281 3584 2069 3584 
Q 2775 3584 3186 3129 
Q 3597 2675 3597 1894 
z
M 3022 2063 
Q 3016 2534 2758 2815 
Q 2500 3097 2075 3097 
Q 1594 3097 1305 2825 
Q 1016 2553 972 2059 
L 3022 2063 
z
" transform="scale(0.015625)"/>
       <path id="DejaVuSans-20" transform="scale(0.015625)"/>
       <path id="DejaVuSans-28" d="M 1984 4856 
Q 1566 4138 1362 3434 
Q 1159 2731 1159 2009 
Q 1159 1288 1364 580 
Q 1569 -128 1984 -844 
L 1484 -844 
Q 1016 -109 783 600 
Q 550 1309 550 2009 
Q 550 2706 781 3412 
Q 1013 4119 1484 4856 
L 1984 4856 
z
" transform="scale(0.015625)"/>
       <path id="DejaVuSans-73" d="M 2834 3397 
L 2834 2853 
Q 2591 2978 2328 3040 
Q 2066 3103 1784 3103 
Q 1356 3103 1142 2972 
Q 928 2841 928 2578 
Q 928 2378 1081 2264 
Q 1234 2150 1697 2047 
L 1894 2003 
Q 2506 1872 2764 1633 
Q 3022 1394 3022 966 
Q 3022 478 2636 193 
Q 2250 -91 1575 -91 
Q 1294 -91 989 -36 
Q 684 19 347 128 
L 347 722 
Q 666 556 975 473 
Q 1284 391 1588 391 
Q 1994 391 2212 530 
Q 2431 669 2431 922 
Q 2431 1156 2273 1281 
Q 2116 1406 1581 1522 
L 1381 1569 
Q 847 1681 609 1914 
Q 372 2147 372 2553 
Q 372 3047 722 3315 
Q 1072 3584 1716 3584 
Q 2034 3584 2315 3537 
Q 2597 3491 2834 3397 
z
" transform="scale(0.015625)"/>
       <path id="DejaVuSans-29" d="M 513 4856 
L 1013 4856 
Q 1481 4119 1714 3412 
Q 1947 2706 1947 2009 
Q 1947 1309 1714 600 
Q 1481 -109 1013 -844 
L 513 -844 
Q 928 -128 1133 580 
Q 1338 1288 1338 2009 
Q 1338 2731 1133 3434 
Q 928 4138 513 4856 
z
" transform="scale(0.015625)"/>
      </defs>
      <use xlink:href="#DejaVuSans-54"/>
      <use xlink:href="#DejaVuSans-69" transform="translate(57.958984 0)"/>
      <use xlink:href="#DejaVuSans-6d" transform="translate(85.742188 0)"/>
      <use xlink:href="#DejaVuSans-65" transform="translate(183.154297 0)"/>
      <use xlink:href="#DejaVuSans-20" transform="translate(244.677734 0)"/>
      <use xlink:href="#DejaVuSans-28" transform="translate(276.464844 0)"/>
      <use xlink:href="#DejaVuSans-73" transform="translate(315.478516 0)"/>
      <use xlink:href="#DejaVuSans-29" transform="translate(367.578125 0)"/>
     </g>
    </g>
   </g>
   <g id="matplotlib.axis_2">
    <g id="ytick_1">
     <g id="line2d_9">
      <defs>
       <path id="mdfb5ad3a77" d="M 0 0 
L -3.5 0 
" style="stroke: #000000; stroke-width: 0.8"/>
      </defs>
      <g>
       <use xlink:href="#mdfb5ad3a77" x="38.420552" y="381.044498" style="stroke: #000000; stroke-width: 0.8"/>
      </g>
     </g>
     <g id="text_10">
      <!-- −8 -->
      <g transform="translate(16.678365 384.843716) scale(0.1 -0.1)">
       <use xlink:href="#DejaVuSans-2212"/>
       <use xlink:href="#DejaVuSans-38" transform="translate(83.789062 0)"/>
      </g>
     </g>
    </g>
    <g id="ytick_2">
     <g id="line2d_10">
      <g>
       <use xlink:href="#mdfb5ad3a77" x="38.420552" y="337.878608" style="stroke: #000000; stroke-width: 0.8"/>
      </g>
     </g>
     <g id="text_11">
      <!-- −6 -->
      <g transform="translate(16.678365 341.677826) scale(0.1 -0.1)">
       <use xlink:href="#DejaVuSans-2212"/>
       <use xlink:href="#DejaVuSans-36" transform="translate(83.789062 0)"/>
      </g>
     </g>
    </g>
    <g id="ytick_3">
     <g id="line2d_11">
      <g>
       <use xlink:href="#mdfb5ad3a77" x="38.420552" y="294.712718" style="stroke: #000000; stroke-width: 0.8"/>
      </g>
     </g>
     <g id="text_12">
      <!-- −4 -->
      <g transform="translate(16.678365 298.511936) scale(0.1 -0.1)">
       <use xlink:href="#DejaVuSans-2212"/>
       <use xlink:href="#DejaVuSans-34" transform="translate(83.789062 0)"/>
      </g>
     </g>
    </g>
    <g id="ytick_4">
     <g id="line2d_12">
      <g>
       <use xlink:href="#mdfb5ad3a77" x="38.420552" y="251.546828" style="stroke: #000000; stroke-width: 0.8"/>
      </g>
     </g>
     <g id="text_13">
      <!-- −2 -->
      <g transform="translate(16.678365 255.346046) scale(0.1 -0.1)">
       <use xlink:href="#DejaVuSans-2212"/>
       <use xlink:href="#DejaVuSans-32" transform="translate(83.789062 0)"/>
      </g>
     </g>
    </g>
    <g id="ytick_5">
     <g id="line2d_13">
      <g>
       <use xlink:href="#mdfb5ad3a77" x="38.420552" y="208.380937" style="stroke: #000000; stroke-width: 0.8"/>
      </g>
     </g>
     <g id="text_14">
      <!-- 0 -->
      <g transform="translate(25.058052 212.180156) scale(0.1 -0.1)">
       <use xlink:href="#DejaVuSans-30"/>
      </g>
     </g>
    </g>
    <g id="ytick_6">
     <g id="line2d_14">
      <g>
       <use xlink:href="#mdfb5ad3a77" x="38.420552" y="165.215047" style="stroke: #000000; stroke-width: 0.8"/>
      </g>
     </g>
     <g id="text_15">
      <!-- 2 -->
      <g transform="translate(25.058052 169.014266) scale(0.1 -0.1)">
       <use xlink:href="#DejaVuSans-32"/>
      </g>
     </g>
    </g>
    <g id="ytick_7">
     <g id="line2d_15">
      <g>
       <use xlink:href="#mdfb5ad3a77" x="38.420552" y="122.049157" style="stroke: #000000; stroke-width: 0.8"/>
      </g>
     </g>
     <g id="text_16">
      <!-- 4 -->
      <g transform="translate(25.058052 125.848376) scale(0.1 -0.1)">
       <use xlink:href="#DejaVuSans-34"/>
      </g>
     </g>
    </g>
    <g id="ytick_8">
     <g id="line2d_16">
      <g>
       <use xlink:href="#mdfb5ad3a77" x="38.420552" y="78.883267" style="stroke: #000000; stroke-width: 0.8"/>
      </g>
     </g>
     <g id="text_17">
      <!-- 6 -->
      <g transform="translate(25.058052 82.682486) scale(0.1 -0.1)">
       <use xlink:href="#DejaVuSans-36"/>
      </g>
     </g>
    </g>
    <g id="ytick_9">
     <g id="line2d_17">
      <g>
       <use xlink:href="#mdfb5ad3a77" x="38.420552" y="35.717377" style="stroke: #000000; stroke-width: 0.8"/>
      </g>
     </g>
     <g id="text_18">
      <!-- 8 -->
      <g transform="translate(25.058052 39.516596) scale(0.1 -0.1)">
       <use xlink:href="#DejaVuSans-38"/>
      </g>
     </g>
    </g>
    <g id="text_19">
     <!-- µV -->
     <g transform="translate(10.598677 214.9825) rotate(-90) scale(0.1 -0.1)">
      <defs>
       <path id="DejaVuSans-b5" d="M 544 -1331 
L 544 3500 
L 1119 3500 
L 1119 1325 
Q 1119 872 1334 640 
Q 1550 409 1972 409 
Q 2434 409 2667 671 
Q 2900 934 2900 1459 
L 2900 3500 
L 3475 3500 
L 3475 806 
Q 3475 619 3529 530 
Q 3584 441 3700 441 
Q 3728 441 3778 458 
Q 3828 475 3916 513 
L 3916 50 
Q 3788 -22 3673 -56 
Q 3559 -91 3450 -91 
Q 3234 -91 3106 31 
Q 2978 153 2931 403 
Q 2775 156 2548 32 
Q 2322 -91 2016 -91 
Q 1697 -91 1473 31 
Q 1250 153 1119 397 
L 1119 -1331 
L 544 -1331 
z
" transform="scale(0.015625)"/>
       <path id="DejaVuSans-56" d="M 1831 0 
L 50 4666 
L 709 4666 
L 2188 738 
L 3669 4666 
L 4325 4666 
L 2547 0 
L 1831 0 
z
" transform="scale(0.015625)"/>
      </defs>
      <use xlink:href="#DejaVuSans-b5"/>
      <use xlink:href="#DejaVuSans-56" transform="translate(63.623047 0)"/>
     </g>
    </g>
   </g>
   <g id="patch_4">
    <path d="M 64.818666 398.64351 
L 510.591555 398.64351 
" style="fill: none; stroke: #000000; stroke-width: 0.8; stroke-linejoin: miter; stroke-linecap: square"/>
   </g>
   <g id="patch_5">
    <path d="M 38.420552 208.380937 
L 572.99976 208.380937 
" style="fill: none; stroke: #000000; stroke-width: 0.8; stroke-linejoin: miter; stroke-linecap: square"/>
   </g>
   <g id="text_20">
    <!-- FC4, F3, FC3 (median) -->
    <g transform="translate(238.817656 12.118365) scale(0.12 -0.12)">
     <defs>
      <path id="DejaVuSans-46" d="M 628 4666 
L 3309 4666 
L 3309 4134 
L 1259 4134 
L 1259 2759 
L 3109 2759 
L 3109 2228 
L 1259 2228 
L 1259 0 
L 628 0 
L 628 4666 
z
" transform="scale(0.015625)"/>
      <path id="DejaVuSans-43" d="M 4122 4306 
L 4122 3641 
Q 3803 3938 3442 4084 
Q 3081 4231 2675 4231 
Q 1875 4231 1450 3742 
Q 1025 3253 1025 2328 
Q 1025 1406 1450 917 
Q 1875 428 2675 428 
Q 3081 428 3442 575 
Q 3803 722 4122 1019 
L 4122 359 
Q 3791 134 3420 21 
Q 3050 -91 2638 -91 
Q 1578 -91 968 557 
Q 359 1206 359 2328 
Q 359 3453 968 4101 
Q 1578 4750 2638 4750 
Q 3056 4750 3426 4639 
Q 3797 4528 4122 4306 
z
" transform="scale(0.015625)"/>
      <path id="DejaVuSans-2c" d="M 750 794 
L 1409 794 
L 1409 256 
L 897 -744 
L 494 -744 
L 750 256 
L 750 794 
z
" transform="scale(0.015625)"/>
      <path id="DejaVuSans-64" d="M 2906 2969 
L 2906 4863 
L 3481 4863 
L 3481 0 
L 2906 0 
L 2906 525 
Q 2725 213 2448 61 
Q 2172 -91 1784 -91 
Q 1150 -91 751 415 
Q 353 922 353 1747 
Q 353 2572 751 3078 
Q 1150 3584 1784 3584 
Q 2172 3584 2448 3432 
Q 2725 3281 2906 2969 
z
M 947 1747 
Q 947 1113 1208 752 
Q 1469 391 1925 391 
Q 2381 391 2643 752 
Q 2906 1113 2906 1747 
Q 2906 2381 2643 2742 
Q 2381 3103 1925 3103 
Q 1469 3103 1208 2742 
Q 947 2381 947 1747 
z
" transform="scale(0.015625)"/>
      <path id="DejaVuSans-61" d="M 2194 1759 
Q 1497 1759 1228 1600 
Q 959 1441 959 1056 
Q 959 750 1161 570 
Q 1363 391 1709 391 
Q 2188 391 2477 730 
Q 2766 1069 2766 1631 
L 2766 1759 
L 2194 1759 
z
M 3341 1997 
L 3341 0 
L 2766 0 
L 2766 531 
Q 2569 213 2275 61 
Q 1981 -91 1556 -91 
Q 1019 -91 701 211 
Q 384 513 384 1019 
Q 384 1609 779 1909 
Q 1175 2209 1959 2209 
L 2766 2209 
L 2766 2266 
Q 2766 2663 2505 2880 
Q 2244 3097 1772 3097 
Q 1472 3097 1187 3025 
Q 903 2953 641 2809 
L 641 3341 
Q 956 3463 1253 3523 
Q 1550 3584 1831 3584 
Q 2591 3584 2966 3190 
Q 3341 2797 3341 1997 
z
" transform="scale(0.015625)"/>
      <path id="DejaVuSans-6e" d="M 3513 2113 
L 3513 0 
L 2938 0 
L 2938 2094 
Q 2938 2591 2744 2837 
Q 2550 3084 2163 3084 
Q 1697 3084 1428 2787 
Q 1159 2491 1159 1978 
L 1159 0 
L 581 0 
L 581 3500 
L 1159 3500 
L 1159 2956 
Q 1366 3272 1645 3428 
Q 1925 3584 2291 3584 
Q 2894 3584 3203 3211 
Q 3513 2838 3513 2113 
z
" transform="scale(0.015625)"/>
     </defs>
     <use xlink:href="#DejaVuSans-46"/>
     <use xlink:href="#DejaVuSans-43" transform="translate(57.519531 0)"/>
     <use xlink:href="#DejaVuSans-34" transform="translate(127.34375 0)"/>
     <use xlink:href="#DejaVuSans-2c" transform="translate(190.966797 0)"/>
     <use xlink:href="#DejaVuSans-20" transform="translate(222.753906 0)"/>
     <use xlink:href="#DejaVuSans-46" transform="translate(254.541016 0)"/>
     <use xlink:href="#DejaVuSans-33" transform="translate(312.060547 0)"/>
     <use xlink:href="#DejaVuSans-2c" transform="translate(375.683594 0)"/>
     <use xlink:href="#DejaVuSans-20" transform="translate(407.470703 0)"/>
     <use xlink:href="#DejaVuSans-46" transform="translate(439.257812 0)"/>
     <use xlink:href="#DejaVuSans-43" transform="translate(496.777344 0)"/>
     <use xlink:href="#DejaVuSans-33" transform="translate(566.601562 0)"/>
     <use xlink:href="#DejaVuSans-20" transform="translate(630.224609 0)"/>
     <use xlink:href="#DejaVuSans-28" transform="translate(662.011719 0)"/>
     <use xlink:href="#DejaVuSans-6d" transform="translate(701.025391 0)"/>
     <use xlink:href="#DejaVuSans-65" transform="translate(798.4375 0)"/>
     <use xlink:href="#DejaVuSans-64" transform="translate(859.960938 0)"/>
     <use xlink:href="#DejaVuSans-69" transform="translate(923.4375 0)"/>
     <use xlink:href="#DejaVuSans-61" transform="translate(951.220703 0)"/>
     <use xlink:href="#DejaVuSans-6e" transform="translate(1012.5 0)"/>
     <use xlink:href="#DejaVuSans-29" transform="translate(1075.878906 0)"/>
    </g>
   </g>
   <g id="legend_1">
    <g id="patch_6">
     <path d="M 45.420552 55.75274 
L 126.56274 55.75274 
Q 128.56274 55.75274 128.56274 53.75274 
L 128.56274 25.118365 
Q 128.56274 23.118365 126.56274 23.118365 
L 45.420552 23.118365 
Q 43.420552 23.118365 43.420552 25.118365 
L 43.420552 53.75274 
Q 43.420552 55.75274 45.420552 55.75274 
z
" style="fill: #ffffff; opacity: 0.8; stroke: #cccccc; stroke-linejoin: miter"/>
    </g>
    <g id="line2d_18">
     <path d="M 47.420552 31.216803 
L 57.420552 31.216803 
L 67.420552 31.216803 
" style="fill: none; stroke: #1f77b4; stroke-width: 1.5; stroke-linecap: square"/>
    </g>
    <g id="text_21">
     <!-- eerie -->
     <g transform="translate(75.420552 34.716803) scale(0.1 -0.1)">
      <defs>
       <path id="DejaVuSans-72" d="M 2631 2963 
Q 2534 3019 2420 3045 
Q 2306 3072 2169 3072 
Q 1681 3072 1420 2755 
Q 1159 2438 1159 1844 
L 1159 0 
L 581 0 
L 581 3500 
L 1159 3500 
L 1159 2956 
Q 1341 3275 1631 3429 
Q 1922 3584 2338 3584 
Q 2397 3584 2469 3576 
Q 2541 3569 2628 3553 
L 2631 2963 
z
" transform="scale(0.015625)"/>
      </defs>
      <use xlink:href="#DejaVuSans-65"/>
      <use xlink:href="#DejaVuSans-65" transform="translate(61.523438 0)"/>
      <use xlink:href="#DejaVuSans-72" transform="translate(123.046875 0)"/>
      <use xlink:href="#DejaVuSans-69" transform="translate(164.160156 0)"/>
      <use xlink:href="#DejaVuSans-65" transform="translate(191.943359 0)"/>
     </g>
    </g>
    <g id="line2d_19">
     <path d="M 47.420552 45.894928 
L 57.420552 45.894928 
L 67.420552 45.894928 
" style="fill: none; stroke: #ff7f0e; stroke-width: 1.5; stroke-linecap: square"/>
    </g>
    <g id="text_22">
     <!-- non_eerie -->
     <g transform="translate(75.420552 49.394928) scale(0.1 -0.1)">
      <defs>
       <path id="DejaVuSans-6f" d="M 1959 3097 
Q 1497 3097 1228 2736 
Q 959 2375 959 1747 
Q 959 1119 1226 758 
Q 1494 397 1959 397 
Q 2419 397 2687 759 
Q 2956 1122 2956 1747 
Q 2956 2369 2687 2733 
Q 2419 3097 1959 3097 
z
M 1959 3584 
Q 2709 3584 3137 3096 
Q 3566 2609 3566 1747 
Q 3566 888 3137 398 
Q 2709 -91 1959 -91 
Q 1206 -91 779 398 
Q 353 888 353 1747 
Q 353 2609 779 3096 
Q 1206 3584 1959 3584 
z
" transform="scale(0.015625)"/>
       <path id="DejaVuSans-5f" d="M 3263 -1063 
L 3263 -1509 
L -63 -1509 
L -63 -1063 
L 3263 -1063 
z
" transform="scale(0.015625)"/>
      </defs>
      <use xlink:href="#DejaVuSans-6e"/>
      <use xlink:href="#DejaVuSans-6f" transform="translate(63.378906 0)"/>
      <use xlink:href="#DejaVuSans-6e" transform="translate(124.560547 0)"/>
      <use xlink:href="#DejaVuSans-5f" transform="translate(187.939453 0)"/>
      <use xlink:href="#DejaVuSans-65" transform="translate(237.939453 0)"/>
      <use xlink:href="#DejaVuSans-65" transform="translate(299.462891 0)"/>
      <use xlink:href="#DejaVuSans-72" transform="translate(360.986328 0)"/>
      <use xlink:href="#DejaVuSans-69" transform="translate(402.099609 0)"/>
      <use xlink:href="#DejaVuSans-65" transform="translate(429.882812 0)"/>
     </g>
    </g>
   </g>
   <g id="line2d_20">
    <path d="M 38.420552 202.925853 
L 40.161853 208.46943 
L 41.903153 215.97651 
L 43.644454 219.928903 
L 45.385754 219.200288 
L 48.868355 211.427808 
L 50.609655 209.739705 
L 52.350955 210.929962 
L 55.833556 216.571961 
L 57.574856 217.656053 
L 59.316157 216.510577 
L 61.057457 213.724155 
L 62.798757 213.314902 
L 64.540058 210.647891 
L 66.281358 206.554404 
L 68.022658 205.506531 
L 69.763959 209.101475 
L 71.505259 213.718206 
L 73.24656 216.815923 
L 74.98786 216.726212 
L 76.72916 213.78471 
L 80.211761 201.752984 
L 81.953061 200.153779 
L 83.694362 201.363584 
L 85.435662 206.861769 
L 87.176962 213.320499 
L 88.918263 214.540045 
L 90.659563 209.122057 
L 92.400863 202.950137 
L 94.142164 203.32763 
L 95.883464 206.130988 
L 99.366065 210.555695 
L 101.107365 212.116396 
L 102.848665 211.744803 
L 104.589966 211.542283 
L 106.331266 214.045707 
L 108.072567 220.074142 
L 109.813867 222.672662 
L 111.555167 222.377683 
L 113.296468 210.548058 
L 115.037768 195.362399 
L 116.779068 184.550623 
L 118.520369 181.301654 
L 120.261669 184.053854 
L 122.002969 186.349589 
L 123.74427 187.15872 
L 125.48557 184.375507 
L 128.968171 179.740076 
L 130.709471 183.790484 
L 132.450771 191.029251 
L 134.192072 197.146536 
L 135.933372 198.286164 
L 137.674672 193.746814 
L 139.415973 186.386301 
L 141.157273 180.440817 
L 142.898574 178.795402 
L 144.639874 180.503436 
L 146.381174 183.660084 
L 148.122475 186.098786 
L 149.863775 186.310632 
L 151.605075 185.700234 
L 153.346376 186.446403 
L 156.828976 191.524467 
L 158.570277 190.74129 
L 160.311577 185.040796 
L 162.052877 175.951598 
L 163.794178 167.598027 
L 165.535478 163.500046 
L 167.276778 161.149547 
L 169.018079 164.988012 
L 170.759379 171.112916 
L 172.500679 176.193572 
L 174.24198 177.951222 
L 175.98328 175.936276 
L 179.465881 167.157559 
L 181.207181 165.593324 
L 182.948482 169.866232 
L 186.431082 182.913806 
L 188.172383 187.17978 
L 191.654983 183.639146 
L 193.396284 183.372918 
L 195.137584 184.773089 
L 196.878884 186.914412 
L 198.620185 188.594317 
L 200.361485 189.296854 
L 202.102785 190.239838 
L 203.844086 191.041679 
L 205.585386 194.431819 
L 207.326686 195.457349 
L 209.067987 194.672509 
L 210.809287 190.669702 
L 212.550588 181.088453 
L 214.291888 164.628511 
L 216.033188 142.252825 
L 217.774489 118.002945 
L 219.515789 97.124641 
L 221.257089 80.106306 
L 222.99839 69.712187 
L 224.73969 66.207509 
L 226.48099 67.471768 
L 228.222291 70.416149 
L 229.963591 72.790945 
L 231.704891 74.287372 
L 233.446192 76.257034 
L 235.187492 80.269664 
L 236.928792 86.729494 
L 240.411393 101.881637 
L 242.152693 107.953584 
L 243.893994 113.143878 
L 245.635294 117.021154 
L 247.376595 124.455888 
L 250.859195 145.274995 
L 252.600496 154.161844 
L 254.341796 160.887881 
L 256.083096 166.851385 
L 257.824397 173.926894 
L 261.306997 191.732295 
L 263.048298 198.626294 
L 264.789598 201.89873 
L 266.530898 202.345494 
L 268.272199 202.645501 
L 270.013499 205.3949 
L 271.754799 211.08848 
L 273.4961 217.470806 
L 275.2374 220.963849 
L 276.9787 219.169659 
L 278.720001 212.642924 
L 280.461301 204.623173 
L 282.202602 198.843552 
L 283.943902 197.064133 
L 285.685202 197.984142 
L 287.426503 198.337007 
L 289.167803 195.366294 
L 290.909103 188.779094 
L 292.650404 180.958542 
L 294.391704 175.214501 
L 296.133004 173.518873 
L 297.874305 175.257913 
L 299.615605 177.821234 
L 301.356905 178.409719 
L 303.098206 175.708933 
L 304.839506 170.342253 
L 310.063407 150.655899 
L 313.546008 135.711591 
L 315.287308 129.428629 
L 317.028609 127.250828 
L 318.769909 131.238961 
L 320.511209 141.156041 
L 322.25251 154.150626 
L 323.99381 165.944395 
L 325.73511 173.013188 
L 327.476411 174.357921 
L 329.217711 171.777557 
L 330.959011 168.55522 
L 332.700312 167.336799 
L 334.441612 168.650284 
L 336.182912 170.893753 
L 337.924213 171.666465 
L 339.665513 169.464617 
L 341.406813 164.591159 
L 343.148114 158.707839 
L 344.889414 153.343247 
L 346.630714 148.582699 
L 348.372015 142.813689 
L 350.113315 133.989548 
L 351.854616 121.58418 
L 353.595916 107.693164 
L 355.337216 96.469153 
L 357.078517 91.759122 
L 358.819817 94.44446 
L 360.561117 101.33902 
L 362.302418 106.511264 
L 364.043718 104.6364 
L 365.785018 94.270372 
L 367.526319 78.979195 
L 369.267619 65.463335 
L 371.008919 59.636046 
L 372.75022 63.258463 
L 374.49152 71.222594 
L 376.23282 79.760312 
L 377.974121 82.873783 
L 379.715421 79.420144 
L 383.198022 68.261853 
L 384.939322 66.198931 
L 388.421923 68.525879 
L 390.163223 66.236764 
L 391.904524 58.863134 
L 393.645824 47.004769 
L 395.387124 38.488703 
L 397.128425 36.37016 
L 398.869725 40.443033 
L 400.611025 47.525418 
L 402.352326 53.607624 
L 404.093626 55.5121 
L 405.834926 52.749614 
L 409.317527 42.370444 
L 411.058827 39.421932 
L 412.800128 38.333834 
L 414.541428 37.69403 
L 418.024029 35.254196 
L 419.765329 35.39884 
L 421.50663 37.860747 
L 423.24793 41.629143 
L 424.98923 43.956979 
L 426.730531 42.162553 
L 428.471831 35.750079 
L 430.213131 27.156577 
L 431.954432 20.326678 
L 433.695732 18.118365 
L 435.437032 20.467786 
L 437.178333 24.768306 
L 438.919633 28.248633 
L 440.660933 30.388401 
L 442.402234 33.396363 
L 444.143534 40.077723 
L 445.884834 50.843683 
L 447.626135 62.43824 
L 449.367435 69.66241 
L 451.108735 69.073064 
L 452.850036 61.879035 
L 454.591336 53.626246 
L 456.332637 50.50791 
L 458.073937 54.861056 
L 459.815237 63.322971 
L 461.556538 69.018451 
L 463.297838 66.481805 
L 465.039138 55.70119 
L 466.780439 42.412685 
L 468.521739 34.354093 
L 470.263039 36.117421 
L 472.00434 46.265931 
L 473.74564 58.556412 
L 475.48694 66.290997 
L 477.228241 66.491358 
L 478.969541 61.262763 
L 480.710841 55.667162 
L 482.452142 54.007501 
L 484.193442 57.391421 
L 489.417343 76.745561 
L 491.158644 82.770184 
L 492.899944 90.241635 
L 496.382545 107.725178 
L 498.123845 112.575144 
L 499.865145 111.72979 
L 501.606446 105.625502 
L 505.089046 88.556149 
L 506.830347 82.50869 
L 508.571647 78.69715 
L 510.312947 76.197725 
L 512.054248 74.611803 
L 513.795548 74.752297 
L 515.536848 77.969937 
L 517.278149 84.706668 
L 519.019449 93.579343 
L 520.760749 101.8616 
L 522.50205 107.067128 
L 524.24335 108.458582 
L 525.984651 107.353673 
L 527.725951 105.946633 
L 529.467251 105.678769 
L 531.208552 106.375559 
L 532.949852 106.747446 
L 534.691152 105.859273 
L 536.432453 104.156706 
L 538.173753 103.267626 
L 539.915053 104.780128 
L 541.656354 108.929759 
L 543.397654 114.357078 
L 545.138954 119.056668 
L 546.880255 121.689121 
L 548.621555 122.202611 
L 550.362855 121.322023 
L 552.104156 119.539614 
L 553.845456 116.57567 
L 555.586756 111.937156 
L 557.328057 106.079809 
L 559.069357 101.073891 
L 560.810658 99.801334 
L 562.551958 104.023927 
L 564.293258 112.742211 
L 566.034559 122.104645 
L 567.775859 127.38777 
L 569.517159 125.742978 
L 571.25846 118.037723 
L 572.99976 108.417728 
L 572.99976 108.417728 
" style="fill: none; stroke: #1f77b4; stroke-width: 1.5; stroke-linecap: square"/>
   </g>
   <g id="line2d_21">
    <path d="M 38.420552 202.098527 
L 40.161853 200.815688 
L 41.903153 202.243476 
L 43.644454 204.252091 
L 45.385754 207.467197 
L 47.127054 209.265804 
L 48.868355 209.591916 
L 50.609655 210.055321 
L 52.350955 212.57369 
L 54.092256 217.702791 
L 55.833556 223.83781 
L 57.574856 228.018634 
L 59.316157 231.516187 
L 61.057457 227.987689 
L 62.798757 220.638089 
L 64.540058 214.627755 
L 66.281358 213.053879 
L 68.022658 216.419499 
L 69.763959 222.523344 
L 71.505259 226.520006 
L 73.24656 225.983172 
L 74.98786 220.14405 
L 76.72916 211.380486 
L 78.470461 203.36705 
L 80.211761 199.03538 
L 81.953061 199.318012 
L 83.694362 198.192462 
L 85.435662 197.61088 
L 87.176962 193.414503 
L 88.918263 193.408201 
L 90.659563 196.411648 
L 92.400863 201.448156 
L 94.142164 205.028351 
L 95.883464 206.563797 
L 97.624764 205.761428 
L 99.366065 202.724938 
L 101.107365 201.963153 
L 102.848665 205.488965 
L 104.589966 212.172918 
L 106.331266 218.225571 
L 108.072567 219.708496 
L 109.813867 215.225661 
L 111.555167 206.967979 
L 113.296468 199.27321 
L 115.037768 195.85849 
L 116.779068 197.589626 
L 118.520369 202.235419 
L 120.261669 206.202462 
L 122.002969 206.166849 
L 123.74427 199.416342 
L 125.48557 191.223597 
L 127.22687 184.404176 
L 128.968171 181.086883 
L 130.709471 180.891754 
L 132.450771 182.530837 
L 134.192072 183.592795 
L 135.933372 182.50084 
L 137.674672 182.301803 
L 139.415973 183.453275 
L 141.157273 185.855006 
L 144.639874 191.645727 
L 148.122475 196.578079 
L 149.863775 199.145278 
L 151.605075 203.894315 
L 153.346376 210.694702 
L 155.087676 217.014036 
L 156.828976 219.589715 
L 158.570277 216.531119 
L 160.311577 208.913857 
L 162.052877 200.679008 
L 163.794178 196.526655 
L 165.535478 198.964205 
L 169.018079 213.905975 
L 170.759379 216.095902 
L 172.500679 210.825483 
L 174.24198 200.718275 
L 175.98328 189.456262 
L 177.724581 182.806348 
L 179.465881 184.58465 
L 181.207181 192.685418 
L 182.948482 201.699054 
L 184.689782 206.636466 
L 186.431082 206.029771 
L 188.172383 202.410386 
L 189.913683 199.929172 
L 191.654983 201.199032 
L 195.137584 209.864957 
L 196.878884 211.15104 
L 198.620185 208.615315 
L 200.361485 203.950701 
L 202.102785 197.884153 
L 203.844086 193.800073 
L 205.585386 191.267668 
L 207.326686 188.516552 
L 209.067987 184.315789 
L 210.809287 178.790491 
L 216.033188 160.886963 
L 217.774489 152.993047 
L 219.515789 142.567925 
L 224.73969 105.584975 
L 226.48099 96.941691 
L 228.222291 91.673998 
L 229.963591 89.94852 
L 231.704891 91.997046 
L 233.446192 97.991922 
L 236.928792 116.121057 
L 238.670093 122.142388 
L 240.411393 124.122524 
L 242.152693 123.820749 
L 243.893994 124.730064 
L 245.635294 129.881661 
L 247.376595 139.944557 
L 250.859195 165.816071 
L 252.600496 176.401309 
L 256.083096 193.30875 
L 257.824397 203.691249 
L 259.565697 216.539687 
L 261.306997 230.316519 
L 263.048298 242.52307 
L 264.789598 251.249129 
L 266.530898 256.102441 
L 268.272199 257.942503 
L 270.013499 257.889777 
L 271.754799 256.581088 
L 273.4961 253.97277 
L 275.2374 249.916196 
L 276.9787 244.719156 
L 278.720001 239.151887 
L 280.461301 234.030659 
L 282.202602 229.751495 
L 283.943902 226.213529 
L 285.685202 223.167893 
L 287.426503 220.685225 
L 289.167803 219.206614 
L 290.909103 219.147402 
L 292.650404 220.337346 
L 294.391704 221.665807 
L 296.133004 221.358479 
L 297.874305 217.771245 
L 299.615605 210.312001 
L 303.098206 189.136673 
L 304.839506 180.629503 
L 306.580806 176.36829 
L 308.322107 176.282608 
L 310.063407 178.214831 
L 311.804707 179.034225 
L 313.546008 176.427536 
L 315.287308 170.349209 
L 317.028609 163.236949 
L 318.769909 158.582911 
L 320.511209 158.874932 
L 322.25251 164.140081 
L 325.73511 179.489221 
L 327.476411 184.381496 
L 329.217711 186.535087 
L 330.959011 186.971821 
L 332.700312 186.535434 
L 334.441612 185.037624 
L 336.182912 181.640188 
L 337.924213 176.073296 
L 339.665513 169.506746 
L 341.406813 164.223566 
L 343.148114 162.19327 
L 344.889414 163.636037 
L 346.630714 166.693055 
L 348.372015 168.478135 
L 350.113315 166.728179 
L 351.854616 160.851547 
L 353.595916 151.91522 
L 355.337216 141.833545 
L 357.078517 132.514866 
L 358.819817 125.460578 
L 360.561117 121.626058 
L 362.302418 121.115039 
L 364.043718 122.782607 
L 365.785018 124.206941 
L 367.526319 122.580865 
L 369.267619 116.347565 
L 372.75022 96.588581 
L 374.49152 90.55361 
L 376.23282 90.319629 
L 379.715421 98.246224 
L 381.456721 98.11587 
L 383.198022 92.610864 
L 384.939322 83.914296 
L 386.680623 75.96025 
L 388.421923 71.646699 
L 390.163223 71.080109 
L 391.904524 71.970505 
L 393.645824 71.701106 
L 395.387124 69.32745 
L 397.128425 66.053568 
L 398.869725 64.005512 
L 400.611025 64.536889 
L 402.352326 67.334455 
L 404.093626 70.989935 
L 405.834926 74.225394 
L 407.576227 76.680049 
L 411.058827 80.61746 
L 412.800128 82.061986 
L 414.541428 82.351438 
L 416.282728 81.086149 
L 418.024029 78.644744 
L 419.765329 75.923607 
L 421.50663 73.582635 
L 423.24793 71.532575 
L 424.98923 69.075472 
L 426.730531 65.685196 
L 428.471831 61.703247 
L 430.213131 58.367778 
L 431.954432 56.067909 
L 433.695732 56.527714 
L 435.437032 60.748586 
L 437.178333 66.888557 
L 438.919633 72.438332 
L 440.660933 75.516336 
L 442.402234 75.739384 
L 444.143534 74.293455 
L 445.884834 73.271719 
L 447.626135 74.5762 
L 449.367435 75.589433 
L 451.108735 79.804581 
L 452.850036 86.392957 
L 454.591336 92.456706 
L 456.332637 94.981826 
L 458.073937 92.875226 
L 459.815237 87.914218 
L 461.556538 83.833182 
L 463.297838 83.879282 
L 465.039138 88.504579 
L 466.780439 94.953936 
L 468.521739 98.187768 
L 470.263039 98.837937 
L 473.74564 91.267557 
L 475.48694 91.638362 
L 477.228241 97.116594 
L 478.969541 103.864285 
L 480.710841 106.95158 
L 482.452142 108.933091 
L 484.193442 110.417433 
L 485.934742 112.604906 
L 487.676043 116.128687 
L 489.417343 120.362815 
L 491.158644 123.871777 
L 492.899944 125.571005 
L 494.641244 125.729037 
L 496.382545 124.827902 
L 498.123845 123.08271 
L 499.865145 126.108874 
L 503.347746 139.88395 
L 505.089046 143.595285 
L 506.830347 143.125346 
L 508.571647 140.593229 
L 510.312947 139.339236 
L 512.054248 141.369008 
L 515.536848 150.335815 
L 517.278149 151.914355 
L 519.019449 150.035954 
L 520.760749 146.288264 
L 522.50205 143.086498 
L 524.24335 141.987072 
L 525.984651 142.845502 
L 527.725951 144.321083 
L 529.467251 145.109111 
L 531.208552 144.912383 
L 532.949852 144.484904 
L 534.691152 144.931877 
L 536.432453 146.92901 
L 538.173753 150.320454 
L 539.915053 152.504229 
L 541.656354 155.944642 
L 543.397654 158.121639 
L 545.138954 156.274483 
L 546.880255 151.979701 
L 548.621555 146.733216 
L 550.362855 142.746394 
L 552.104156 141.917896 
L 553.845456 144.732598 
L 557.328057 154.565337 
L 559.069357 156.723775 
L 560.810658 155.608441 
L 564.293258 149.193699 
L 566.034559 147.583708 
L 567.775859 147.91064 
L 569.517159 149.503846 
L 572.99976 153.437282 
L 572.99976 153.437282 
" style="fill: none; stroke: #ff7f0e; stroke-width: 1.5; stroke-linecap: square"/>
   </g>
  </g>
  <g id="axes_2">
   <g id="PathCollection_1">
    <defs>
     <path id="C0_0_e3b127a2c4" d="M 0 1.118034 
C 0.296506 1.118034 0.580908 1.000231 0.790569 0.790569 
C 1.000231 0.580908 1.118034 0.296506 1.118034 -0 
C 1.118034 -0.296506 1.000231 -0.580908 0.790569 -0.790569 
C 0.580908 -1.000231 0.296506 -1.118034 0 -1.118034 
C -0.296506 -1.118034 -0.580908 -1.000231 -0.790569 -0.790569 
C -1.000231 -0.580908 -1.118034 -0.296506 -1.118034 0 
C -1.118034 0.296506 -1.000231 0.580908 -0.790569 0.790569 
C -0.580908 1.000231 -0.296506 1.118034 0 1.118034 
z
"/>
    </defs>
    <g clip-path="url(#p49b5979ddb)">
     <use xlink:href="#C0_0_e3b127a2c4" x="538.121854" y="56.975316" style="stroke: #000000"/>
    </g>
    <g clip-path="url(#p49b5979ddb)">
     <use xlink:href="#C0_0_e3b127a2c4" x="504.867771" y="47.28407" style="stroke: #000000"/>
    </g>
    <g clip-path="url(#p49b5979ddb)">
     <use xlink:href="#C0_0_e3b127a2c4" x="502.745058" y="57.128057" style="stroke: #000000"/>
    </g>
   </g>
   <g id="matplotlib.axis_3"/>
   <g id="matplotlib.axis_4"/>
   <g id="line2d_22">
    <path d="M 559.991178 73.637025 
L 559.913484 71.164739 
L 559.680706 68.70221 
L 559.293765 66.259156 
L 558.754186 63.845219 
L 558.064099 61.469927 
L 557.226229 59.142652 
L 556.243881 56.87258 
L 555.120932 54.668669 
L 553.861815 52.539618 
L 552.471498 50.493829 
L 550.955468 48.539375 
L 549.319709 46.68397 
L 547.570676 44.934937 
L 545.715271 43.299178 
L 543.760817 41.783148 
L 541.715028 40.392831 
L 539.585977 39.133714 
L 537.382067 38.010765 
L 535.111994 37.028417 
L 532.78472 36.190547 
L 530.409427 35.50046 
L 527.99549 34.960882 
L 525.552436 34.57394 
L 523.089907 34.341162 
L 520.617621 34.263468 
L 518.145335 34.341162 
L 515.682806 34.57394 
L 513.239752 34.960882 
L 510.825816 35.50046 
L 508.450523 36.190547 
L 506.123248 37.028417 
L 503.853176 38.010765 
L 501.649265 39.133714 
L 499.520214 40.392831 
L 497.474425 41.783148 
L 495.519971 43.299178 
L 493.664567 44.934937 
L 491.915533 46.68397 
L 490.279774 48.539375 
L 488.763744 50.493829 
L 487.373427 52.539618 
L 486.11431 54.668669 
L 484.991361 56.87258 
L 484.009014 59.142652 
L 483.171143 61.469927 
L 482.481057 63.845219 
L 481.941478 66.259156 
L 481.554536 68.70221 
L 481.321759 71.164739 
L 481.244064 73.637025 
L 481.321759 76.109311 
L 481.554536 78.57184 
L 481.941478 81.014894 
L 482.481057 83.42883 
L 483.171143 85.804123 
L 484.009014 88.131398 
L 484.991361 90.40147 
L 486.11431 92.605381 
L 487.373427 94.734432 
L 488.763744 96.780221 
L 490.279774 98.734675 
L 491.915533 100.59008 
L 493.664567 102.339113 
L 495.519971 103.974872 
L 497.474425 105.490902 
L 499.520214 106.881219 
L 501.649265 108.140336 
L 503.853176 109.263285 
L 506.123248 110.245633 
L 508.450523 111.083503 
L 510.825816 111.773589 
L 513.239752 112.313168 
L 515.682806 112.70011 
L 518.145335 112.932887 
L 520.617621 113.010582 
L 523.089907 112.932887 
L 525.552436 112.70011 
L 527.99549 112.313168 
L 530.409427 111.773589 
L 532.78472 111.083503 
L 535.111994 110.245633 
L 537.382067 109.263285 
L 539.585977 108.140336 
L 541.715028 106.881219 
L 543.760817 105.490902 
L 545.715271 103.974872 
L 547.570676 102.339113 
L 549.319709 100.59008 
L 550.955468 98.734675 
L 552.471498 96.780221 
L 553.861815 94.734432 
L 555.120932 92.605381 
L 556.243881 90.40147 
L 557.226229 88.131398 
L 558.064099 85.804123 
L 558.754186 83.42883 
L 559.293765 81.014894 
L 559.680706 78.57184 
L 559.913484 76.109311 
L 559.991178 73.637025 
" style="fill: none; stroke: #000000; stroke-linecap: square"/>
   </g>
   <g id="line2d_23">
    <path d="M 512.371243 35.13671 
L 520.617621 28.357434 
L 528.864 35.13671 
" style="fill: none; stroke: #000000; stroke-linecap: square"/>
   </g>
   <g id="line2d_24">
    <path d="M 481.480305 69.26656 
L 480.456593 67.534124 
L 479.826616 67.471126 
L 478.889525 67.76249 
L 477.94456 69.26656 
L 478.094179 74.070134 
L 477.54295 80.976256 
L 478.724156 83.976521 
L 480.456593 84.535626 
L 482.110282 83.078804 
" style="fill: none; stroke: #000000; stroke-linecap: square"/>
   </g>
   <g id="line2d_25">
    <path d="M 559.754937 69.26656 
L 560.77865 67.534124 
L 561.408627 67.471126 
L 562.345717 67.76249 
L 563.290683 69.26656 
L 563.141063 74.070134 
L 563.692293 80.976256 
L 562.511086 83.976521 
L 560.77865 84.535626 
L 559.12496 83.078804 
" style="fill: none; stroke: #000000; stroke-linecap: square"/>
   </g>
  </g>
 </g>
 <defs>
  <clipPath id="pafb160fe2b">
   <rect x="38.420552" y="18.118365" width="534.579207" height="380.525145"/>
  </clipPath>
  <clipPath id="p49b5979ddb">
   <rect x="473.235482" y="24.124777" width="94.764278" height="93.118463"/>
  </clipPath>
 </defs>
</svg>
