<?xml version="1.0" encoding="utf-8" standalone="no"?>
<!DOCTYPE svg PUBLIC "-//W3C//DTD SVG 1.1//EN"
  "http://www.w3.org/Graphics/SVG/1.1/DTD/svg11.dtd">
<svg xmlns:xlink="http://www.w3.org/1999/xlink" width="576pt" height="432pt" viewBox="0 0 576 432" xmlns="http://www.w3.org/2000/svg" version="1.1">
 <metadata>
  <rdf:RDF xmlns:dc="http://purl.org/dc/elements/1.1/" xmlns:cc="http://creativecommons.org/ns#" xmlns:rdf="http://www.w3.org/1999/02/22-rdf-syntax-ns#">
   <cc:Work>
    <dc:type rdf:resource="http://purl.org/dc/dcmitype/StillImage"/>
    <dc:date>2025-02-17T18:05:01.064202</dc:date>
    <dc:format>image/svg+xml</dc:format>
    <dc:creator>
     <cc:Agent>
      <dc:title>Matplotlib v3.10.0, https://matplotlib.org/</dc:title>
     </cc:Agent>
    </dc:creator>
   </cc:Work>
  </rdf:RDF>
 </metadata>
 <defs>
  <style type="text/css">*{stroke-linejoin: round; stroke-linecap: butt}</style>
 </defs>
 <g id="figure_1">
  <g id="patch_1">
   <path d="M 0 432 
L 576 432 
L 576 0 
L 0 0 
z
" style="fill: #ffffff"/>
  </g>
  <g id="axes_1">
   <g id="patch_2">
    <path d="M 38.420552 398.64351 
L 561.866948 398.64351 
L 561.866948 18.118365 
L 38.420552 18.118365 
L 38.420552 398.64351 
z
" style="fill: none; opacity: 0"/>
   </g>
   <g id="patch_3">
    <path d="M 38.420552 374.97704 
L 38.420552 41.784835 
" style="fill: none; stroke: #000000; stroke-width: 0.8; stroke-linejoin: miter; stroke-linecap: square"/>
   </g>
   <g id="LineCollection_1">
    <path d="M 178.206081 18.118365 
L 178.206081 398.64351 
" clip-path="url(#pbaca45c23a)" style="fill: none; stroke-dasharray: 3.7,1.6; stroke-dashoffset: 0; stroke: #000000"/>
    <path d="M 221.803907 18.118365 
L 221.803907 398.64351 
" clip-path="url(#pbaca45c23a)" style="fill: none; stroke-dasharray: 3.7,1.6; stroke-dashoffset: 0; stroke: #000000"/>
   </g>
   <g id="matplotlib.axis_1">
    <g id="xtick_1">
     <g id="line2d_1">
      <defs>
       <path id="me5c1eb3498" d="M 0 0 
L 0 3.5 
" style="stroke: #000000; stroke-width: 0.8"/>
      </defs>
      <g>
       <use xlink:href="#me5c1eb3498" x="38.693039" y="398.64351" style="stroke: #000000; stroke-width: 0.8"/>
      </g>
     </g>
     <g id="text_1">
      <!-- −0.20 -->
      <g transform="translate(23.370383 413.241947) scale(0.1 -0.1)">
       <defs>
        <path id="DejaVuSans-2212" d="M 678 2272 
L 4684 2272 
L 4684 1741 
L 678 1741 
L 678 2272 
z
" transform="scale(0.015625)"/>
        <path id="DejaVuSans-30" d="M 2034 4250 
Q 1547 4250 1301 3770 
Q 1056 3291 1056 2328 
Q 1056 1369 1301 889 
Q 1547 409 2034 409 
Q 2525 409 2770 889 
Q 3016 1369 3016 2328 
Q 3016 3291 2770 3770 
Q 2525 4250 2034 4250 
z
M 2034 4750 
Q 2819 4750 3233 4129 
Q 3647 3509 3647 2328 
Q 3647 1150 3233 529 
Q 2819 -91 2034 -91 
Q 1250 -91 836 529 
Q 422 1150 422 2328 
Q 422 3509 836 4129 
Q 1250 4750 2034 4750 
z
" transform="scale(0.015625)"/>
        <path id="DejaVuSans-2e" d="M 684 794 
L 1344 794 
L 1344 0 
L 684 0 
L 684 794 
z
" transform="scale(0.015625)"/>
        <path id="DejaVuSans-32" d="M 1228 531 
L 3431 531 
L 3431 0 
L 469 0 
L 469 531 
Q 828 903 1448 1529 
Q 2069 2156 2228 2338 
Q 2531 2678 2651 2914 
Q 2772 3150 2772 3378 
Q 2772 3750 2511 3984 
Q 2250 4219 1831 4219 
Q 1534 4219 1204 4116 
Q 875 4013 500 3803 
L 500 4441 
Q 881 4594 1212 4672 
Q 1544 4750 1819 4750 
Q 2544 4750 2975 4387 
Q 3406 4025 3406 3419 
Q 3406 3131 3298 2873 
Q 3191 2616 2906 2266 
Q 2828 2175 2409 1742 
Q 1991 1309 1228 531 
z
" transform="scale(0.015625)"/>
       </defs>
       <use xlink:href="#DejaVuSans-2212"/>
       <use xlink:href="#DejaVuSans-30" transform="translate(83.789062 0)"/>
       <use xlink:href="#DejaVuSans-2e" transform="translate(147.412109 0)"/>
       <use xlink:href="#DejaVuSans-32" transform="translate(179.199219 0)"/>
       <use xlink:href="#DejaVuSans-30" transform="translate(242.822266 0)"/>
      </g>
     </g>
    </g>
    <g id="xtick_2">
     <g id="line2d_2">
      <g>
       <use xlink:href="#me5c1eb3498" x="125.88869" y="398.64351" style="stroke: #000000; stroke-width: 0.8"/>
      </g>
     </g>
     <g id="text_2">
      <!-- 0.00 -->
      <g transform="translate(114.755878 413.241947) scale(0.1 -0.1)">
       <use xlink:href="#DejaVuSans-30"/>
       <use xlink:href="#DejaVuSans-2e" transform="translate(63.623047 0)"/>
       <use xlink:href="#DejaVuSans-30" transform="translate(95.410156 0)"/>
       <use xlink:href="#DejaVuSans-30" transform="translate(159.033203 0)"/>
      </g>
     </g>
    </g>
    <g id="xtick_3">
     <g id="line2d_3">
      <g>
       <use xlink:href="#me5c1eb3498" x="178.206081" y="398.64351" style="stroke: #000000; stroke-width: 0.8"/>
      </g>
     </g>
     <g id="text_3">
      <!-- 0.12 -->
      <g transform="translate(167.073269 413.241947) scale(0.1 -0.1)">
       <defs>
        <path id="DejaVuSans-31" d="M 794 531 
L 1825 531 
L 1825 4091 
L 703 3866 
L 703 4441 
L 1819 4666 
L 2450 4666 
L 2450 531 
L 3481 531 
L 3481 0 
L 794 0 
L 794 531 
z
" transform="scale(0.015625)"/>
       </defs>
       <use xlink:href="#DejaVuSans-30"/>
       <use xlink:href="#DejaVuSans-2e" transform="translate(63.623047 0)"/>
       <use xlink:href="#DejaVuSans-31" transform="translate(95.410156 0)"/>
       <use xlink:href="#DejaVuSans-32" transform="translate(159.033203 0)"/>
      </g>
     </g>
    </g>
    <g id="xtick_4">
     <g id="line2d_4">
      <g>
       <use xlink:href="#me5c1eb3498" x="213.084342" y="398.64351" style="stroke: #000000; stroke-width: 0.8"/>
      </g>
     </g>
     <g id="text_4">
      <!-- 0.20 -->
      <g transform="translate(201.951529 413.241947) scale(0.1 -0.1)">
       <use xlink:href="#DejaVuSans-30"/>
       <use xlink:href="#DejaVuSans-2e" transform="translate(63.623047 0)"/>
       <use xlink:href="#DejaVuSans-32" transform="translate(95.410156 0)"/>
       <use xlink:href="#DejaVuSans-30" transform="translate(159.033203 0)"/>
      </g>
     </g>
    </g>
    <g id="xtick_5">
     <g id="line2d_5">
      <g>
       <use xlink:href="#me5c1eb3498" x="221.803907" y="398.64351" style="stroke: #000000; stroke-width: 0.8"/>
      </g>
     </g>
     <g id="text_5">
      <!-- 0.22 -->
      <g transform="translate(210.671094 413.241947) scale(0.1 -0.1)">
       <use xlink:href="#DejaVuSans-30"/>
       <use xlink:href="#DejaVuSans-2e" transform="translate(63.623047 0)"/>
       <use xlink:href="#DejaVuSans-32" transform="translate(95.410156 0)"/>
       <use xlink:href="#DejaVuSans-32" transform="translate(159.033203 0)"/>
      </g>
     </g>
    </g>
    <g id="xtick_6">
     <g id="line2d_6">
      <g>
       <use xlink:href="#me5c1eb3498" x="300.279993" y="398.64351" style="stroke: #000000; stroke-width: 0.8"/>
      </g>
     </g>
     <g id="text_6">
      <!-- 0.40 -->
      <g transform="translate(289.147181 413.241947) scale(0.1 -0.1)">
       <defs>
        <path id="DejaVuSans-34" d="M 2419 4116 
L 825 1625 
L 2419 1625 
L 2419 4116 
z
M 2253 4666 
L 3047 4666 
L 3047 1625 
L 3713 1625 
L 3713 1100 
L 3047 1100 
L 3047 0 
L 2419 0 
L 2419 1100 
L 313 1100 
L 313 1709 
L 2253 4666 
z
" transform="scale(0.015625)"/>
       </defs>
       <use xlink:href="#DejaVuSans-30"/>
       <use xlink:href="#DejaVuSans-2e" transform="translate(63.623047 0)"/>
       <use xlink:href="#DejaVuSans-34" transform="translate(95.410156 0)"/>
       <use xlink:href="#DejaVuSans-30" transform="translate(159.033203 0)"/>
      </g>
     </g>
    </g>
    <g id="xtick_7">
     <g id="line2d_7">
      <g>
       <use xlink:href="#me5c1eb3498" x="387.475645" y="398.64351" style="stroke: #000000; stroke-width: 0.8"/>
      </g>
     </g>
     <g id="text_7">
      <!-- 0.60 -->
      <g transform="translate(376.342832 413.241947) scale(0.1 -0.1)">
       <defs>
        <path id="DejaVuSans-36" d="M 2113 2584 
Q 1688 2584 1439 2293 
Q 1191 2003 1191 1497 
Q 1191 994 1439 701 
Q 1688 409 2113 409 
Q 2538 409 2786 701 
Q 3034 994 3034 1497 
Q 3034 2003 2786 2293 
Q 2538 2584 2113 2584 
z
M 3366 4563 
L 3366 3988 
Q 3128 4100 2886 4159 
Q 2644 4219 2406 4219 
Q 1781 4219 1451 3797 
Q 1122 3375 1075 2522 
Q 1259 2794 1537 2939 
Q 1816 3084 2150 3084 
Q 2853 3084 3261 2657 
Q 3669 2231 3669 1497 
Q 3669 778 3244 343 
Q 2819 -91 2113 -91 
Q 1303 -91 875 529 
Q 447 1150 447 2328 
Q 447 3434 972 4092 
Q 1497 4750 2381 4750 
Q 2619 4750 2861 4703 
Q 3103 4656 3366 4563 
z
" transform="scale(0.015625)"/>
       </defs>
       <use xlink:href="#DejaVuSans-30"/>
       <use xlink:href="#DejaVuSans-2e" transform="translate(63.623047 0)"/>
       <use xlink:href="#DejaVuSans-36" transform="translate(95.410156 0)"/>
       <use xlink:href="#DejaVuSans-30" transform="translate(159.033203 0)"/>
      </g>
     </g>
    </g>
    <g id="xtick_8">
     <g id="line2d_8">
      <g>
       <use xlink:href="#me5c1eb3498" x="474.671296" y="398.64351" style="stroke: #000000; stroke-width: 0.8"/>
      </g>
     </g>
     <g id="text_8">
      <!-- 0.80 -->
      <g transform="translate(463.538484 413.241947) scale(0.1 -0.1)">
       <defs>
        <path id="DejaVuSans-38" d="M 2034 2216 
Q 1584 2216 1326 1975 
Q 1069 1734 1069 1313 
Q 1069 891 1326 650 
Q 1584 409 2034 409 
Q 2484 409 2743 651 
Q 3003 894 3003 1313 
Q 3003 1734 2745 1975 
Q 2488 2216 2034 2216 
z
M 1403 2484 
Q 997 2584 770 2862 
Q 544 3141 544 3541 
Q 544 4100 942 4425 
Q 1341 4750 2034 4750 
Q 2731 4750 3128 4425 
Q 3525 4100 3525 3541 
Q 3525 3141 3298 2862 
Q 3072 2584 2669 2484 
Q 3125 2378 3379 2068 
Q 3634 1759 3634 1313 
Q 3634 634 3220 271 
Q 2806 -91 2034 -91 
Q 1263 -91 848 271 
Q 434 634 434 1313 
Q 434 1759 690 2068 
Q 947 2378 1403 2484 
z
M 1172 3481 
Q 1172 3119 1398 2916 
Q 1625 2713 2034 2713 
Q 2441 2713 2670 2916 
Q 2900 3119 2900 3481 
Q 2900 3844 2670 4047 
Q 2441 4250 2034 4250 
Q 1625 4250 1398 4047 
Q 1172 3844 1172 3481 
z
" transform="scale(0.015625)"/>
       </defs>
       <use xlink:href="#DejaVuSans-30"/>
       <use xlink:href="#DejaVuSans-2e" transform="translate(63.623047 0)"/>
       <use xlink:href="#DejaVuSans-38" transform="translate(95.410156 0)"/>
       <use xlink:href="#DejaVuSans-30" transform="translate(159.033203 0)"/>
      </g>
     </g>
    </g>
    <g id="xtick_9">
     <g id="line2d_9">
      <g>
       <use xlink:href="#me5c1eb3498" x="561.866948" y="398.64351" style="stroke: #000000; stroke-width: 0.8"/>
      </g>
     </g>
     <g id="text_9">
      <!-- 1.00 -->
      <g transform="translate(550.734135 413.241947) scale(0.1 -0.1)">
       <use xlink:href="#DejaVuSans-31"/>
       <use xlink:href="#DejaVuSans-2e" transform="translate(63.623047 0)"/>
       <use xlink:href="#DejaVuSans-30" transform="translate(95.410156 0)"/>
       <use xlink:href="#DejaVuSans-30" transform="translate(159.033203 0)"/>
      </g>
     </g>
    </g>
    <g id="text_10">
     <!-- Time (s) -->
     <g transform="translate(279.814844 426.920073) scale(0.1 -0.1)">
      <defs>
       <path id="DejaVuSans-54" d="M -19 4666 
L 3928 4666 
L 3928 4134 
L 2272 4134 
L 2272 0 
L 1638 0 
L 1638 4134 
L -19 4134 
L -19 4666 
z
" transform="scale(0.015625)"/>
       <path id="DejaVuSans-69" d="M 603 3500 
L 1178 3500 
L 1178 0 
L 603 0 
L 603 3500 
z
M 603 4863 
L 1178 4863 
L 1178 4134 
L 603 4134 
L 603 4863 
z
" transform="scale(0.015625)"/>
       <path id="DejaVuSans-6d" d="M 3328 2828 
Q 3544 3216 3844 3400 
Q 4144 3584 4550 3584 
Q 5097 3584 5394 3201 
Q 5691 2819 5691 2113 
L 5691 0 
L 5113 0 
L 5113 2094 
Q 5113 2597 4934 2840 
Q 4756 3084 4391 3084 
Q 3944 3084 3684 2787 
Q 3425 2491 3425 1978 
L 3425 0 
L 2847 0 
L 2847 2094 
Q 2847 2600 2669 2842 
Q 2491 3084 2119 3084 
Q 1678 3084 1418 2786 
Q 1159 2488 1159 1978 
L 1159 0 
L 581 0 
L 581 3500 
L 1159 3500 
L 1159 2956 
Q 1356 3278 1631 3431 
Q 1906 3584 2284 3584 
Q 2666 3584 2933 3390 
Q 3200 3197 3328 2828 
z
" transform="scale(0.015625)"/>
       <path id="DejaVuSans-65" d="M 3597 1894 
L 3597 1613 
L 953 1613 
Q 991 1019 1311 708 
Q 1631 397 2203 397 
Q 2534 397 2845 478 
Q 3156 559 3463 722 
L 3463 178 
Q 3153 47 2828 -22 
Q 2503 -91 2169 -91 
Q 1331 -91 842 396 
Q 353 884 353 1716 
Q 353 2575 817 3079 
Q 1281 3584 2069 3584 
Q 2775 3584 3186 3129 
Q 3597 2675 3597 1894 
z
M 3022 2063 
Q 3016 2534 2758 2815 
Q 2500 3097 2075 3097 
Q 1594 3097 1305 2825 
Q 1016 2553 972 2059 
L 3022 2063 
z
" transform="scale(0.015625)"/>
       <path id="DejaVuSans-20" transform="scale(0.015625)"/>
       <path id="DejaVuSans-28" d="M 1984 4856 
Q 1566 4138 1362 3434 
Q 1159 2731 1159 2009 
Q 1159 1288 1364 580 
Q 1569 -128 1984 -844 
L 1484 -844 
Q 1016 -109 783 600 
Q 550 1309 550 2009 
Q 550 2706 781 3412 
Q 1013 4119 1484 4856 
L 1984 4856 
z
" transform="scale(0.015625)"/>
       <path id="DejaVuSans-73" d="M 2834 3397 
L 2834 2853 
Q 2591 2978 2328 3040 
Q 2066 3103 1784 3103 
Q 1356 3103 1142 2972 
Q 928 2841 928 2578 
Q 928 2378 1081 2264 
Q 1234 2150 1697 2047 
L 1894 2003 
Q 2506 1872 2764 1633 
Q 3022 1394 3022 966 
Q 3022 478 2636 193 
Q 2250 -91 1575 -91 
Q 1294 -91 989 -36 
Q 684 19 347 128 
L 347 722 
Q 666 556 975 473 
Q 1284 391 1588 391 
Q 1994 391 2212 530 
Q 2431 669 2431 922 
Q 2431 1156 2273 1281 
Q 2116 1406 1581 1522 
L 1381 1569 
Q 847 1681 609 1914 
Q 372 2147 372 2553 
Q 372 3047 722 3315 
Q 1072 3584 1716 3584 
Q 2034 3584 2315 3537 
Q 2597 3491 2834 3397 
z
" transform="scale(0.015625)"/>
       <path id="DejaVuSans-29" d="M 513 4856 
L 1013 4856 
Q 1481 4119 1714 3412 
Q 1947 2706 1947 2009 
Q 1947 1309 1714 600 
Q 1481 -109 1013 -844 
L 513 -844 
Q 928 -128 1133 580 
Q 1338 1288 1338 2009 
Q 1338 2731 1133 3434 
Q 928 4138 513 4856 
z
" transform="scale(0.015625)"/>
      </defs>
      <use xlink:href="#DejaVuSans-54"/>
      <use xlink:href="#DejaVuSans-69" transform="translate(57.958984 0)"/>
      <use xlink:href="#DejaVuSans-6d" transform="translate(85.742188 0)"/>
      <use xlink:href="#DejaVuSans-65" transform="translate(183.154297 0)"/>
      <use xlink:href="#DejaVuSans-20" transform="translate(244.677734 0)"/>
      <use xlink:href="#DejaVuSans-28" transform="translate(276.464844 0)"/>
      <use xlink:href="#DejaVuSans-73" transform="translate(315.478516 0)"/>
      <use xlink:href="#DejaVuSans-29" transform="translate(367.578125 0)"/>
     </g>
    </g>
   </g>
   <g id="matplotlib.axis_2">
    <g id="ytick_1">
     <g id="line2d_10">
      <defs>
       <path id="mb773a3d6d8" d="M 0 0 
L -3.5 0 
" style="stroke: #000000; stroke-width: 0.8"/>
      </defs>
      <g>
       <use xlink:href="#mb773a3d6d8" x="38.420552" y="374.97704" style="stroke: #000000; stroke-width: 0.8"/>
      </g>
     </g>
     <g id="text_11">
      <!-- −4 -->
      <g transform="translate(16.678365 378.776258) scale(0.1 -0.1)">
       <use xlink:href="#DejaVuSans-2212"/>
       <use xlink:href="#DejaVuSans-34" transform="translate(83.789062 0)"/>
      </g>
     </g>
    </g>
    <g id="ytick_2">
     <g id="line2d_11">
      <g>
       <use xlink:href="#mb773a3d6d8" x="38.420552" y="291.678989" style="stroke: #000000; stroke-width: 0.8"/>
      </g>
     </g>
     <g id="text_12">
      <!-- −2 -->
      <g transform="translate(16.678365 295.478207) scale(0.1 -0.1)">
       <use xlink:href="#DejaVuSans-2212"/>
       <use xlink:href="#DejaVuSans-32" transform="translate(83.789062 0)"/>
      </g>
     </g>
    </g>
    <g id="ytick_3">
     <g id="line2d_12">
      <g>
       <use xlink:href="#mb773a3d6d8" x="38.420552" y="208.380938" style="stroke: #000000; stroke-width: 0.8"/>
      </g>
     </g>
     <g id="text_13">
      <!-- 0 -->
      <g transform="translate(25.058052 212.180156) scale(0.1 -0.1)">
       <use xlink:href="#DejaVuSans-30"/>
      </g>
     </g>
    </g>
    <g id="ytick_4">
     <g id="line2d_13">
      <g>
       <use xlink:href="#mb773a3d6d8" x="38.420552" y="125.082886" style="stroke: #000000; stroke-width: 0.8"/>
      </g>
     </g>
     <g id="text_14">
      <!-- 2 -->
      <g transform="translate(25.058052 128.882105) scale(0.1 -0.1)">
       <use xlink:href="#DejaVuSans-32"/>
      </g>
     </g>
    </g>
    <g id="ytick_5">
     <g id="line2d_14">
      <g>
       <use xlink:href="#mb773a3d6d8" x="38.420552" y="41.784835" style="stroke: #000000; stroke-width: 0.8"/>
      </g>
     </g>
     <g id="text_15">
      <!-- 4 -->
      <g transform="translate(25.058052 45.584054) scale(0.1 -0.1)">
       <use xlink:href="#DejaVuSans-34"/>
      </g>
     </g>
    </g>
    <g id="text_16">
     <!-- µV -->
     <g transform="translate(10.598677 214.9825) rotate(-90) scale(0.1 -0.1)">
      <defs>
       <path id="DejaVuSans-b5" d="M 544 -1331 
L 544 3500 
L 1119 3500 
L 1119 1325 
Q 1119 872 1334 640 
Q 1550 409 1972 409 
Q 2434 409 2667 671 
Q 2900 934 2900 1459 
L 2900 3500 
L 3475 3500 
L 3475 806 
Q 3475 619 3529 530 
Q 3584 441 3700 441 
Q 3728 441 3778 458 
Q 3828 475 3916 513 
L 3916 50 
Q 3788 -22 3673 -56 
Q 3559 -91 3450 -91 
Q 3234 -91 3106 31 
Q 2978 153 2931 403 
Q 2775 156 2548 32 
Q 2322 -91 2016 -91 
Q 1697 -91 1473 31 
Q 1250 153 1119 397 
L 1119 -1331 
L 544 -1331 
z
" transform="scale(0.015625)"/>
       <path id="DejaVuSans-56" d="M 1831 0 
L 50 4666 
L 709 4666 
L 2188 738 
L 3669 4666 
L 4325 4666 
L 2547 0 
L 1831 0 
z
" transform="scale(0.015625)"/>
      </defs>
      <use xlink:href="#DejaVuSans-b5"/>
      <use xlink:href="#DejaVuSans-56" transform="translate(63.623047 0)"/>
     </g>
    </g>
   </g>
   <g id="patch_4">
    <path d="M 38.693039 398.64351 
L 561.866948 398.64351 
" style="fill: none; stroke: #000000; stroke-width: 0.8; stroke-linejoin: miter; stroke-linecap: square"/>
   </g>
   <g id="patch_5">
    <path d="M 38.420552 208.380938 
L 561.866948 208.380938 
" style="fill: none; stroke: #000000; stroke-width: 0.8; stroke-linejoin: miter; stroke-linecap: square"/>
   </g>
   <g id="text_17">
    <!-- F3, F7 (median) -->
    <g transform="translate(252.712813 12.118365) scale(0.12 -0.12)">
     <defs>
      <path id="DejaVuSans-46" d="M 628 4666 
L 3309 4666 
L 3309 4134 
L 1259 4134 
L 1259 2759 
L 3109 2759 
L 3109 2228 
L 1259 2228 
L 1259 0 
L 628 0 
L 628 4666 
z
" transform="scale(0.015625)"/>
      <path id="DejaVuSans-33" d="M 2597 2516 
Q 3050 2419 3304 2112 
Q 3559 1806 3559 1356 
Q 3559 666 3084 287 
Q 2609 -91 1734 -91 
Q 1441 -91 1130 -33 
Q 819 25 488 141 
L 488 750 
Q 750 597 1062 519 
Q 1375 441 1716 441 
Q 2309 441 2620 675 
Q 2931 909 2931 1356 
Q 2931 1769 2642 2001 
Q 2353 2234 1838 2234 
L 1294 2234 
L 1294 2753 
L 1863 2753 
Q 2328 2753 2575 2939 
Q 2822 3125 2822 3475 
Q 2822 3834 2567 4026 
Q 2313 4219 1838 4219 
Q 1578 4219 1281 4162 
Q 984 4106 628 3988 
L 628 4550 
Q 988 4650 1302 4700 
Q 1616 4750 1894 4750 
Q 2613 4750 3031 4423 
Q 3450 4097 3450 3541 
Q 3450 3153 3228 2886 
Q 3006 2619 2597 2516 
z
" transform="scale(0.015625)"/>
      <path id="DejaVuSans-2c" d="M 750 794 
L 1409 794 
L 1409 256 
L 897 -744 
L 494 -744 
L 750 256 
L 750 794 
z
" transform="scale(0.015625)"/>
      <path id="DejaVuSans-37" d="M 525 4666 
L 3525 4666 
L 3525 4397 
L 1831 0 
L 1172 0 
L 2766 4134 
L 525 4134 
L 525 4666 
z
" transform="scale(0.015625)"/>
      <path id="DejaVuSans-64" d="M 2906 2969 
L 2906 4863 
L 3481 4863 
L 3481 0 
L 2906 0 
L 2906 525 
Q 2725 213 2448 61 
Q 2172 -91 1784 -91 
Q 1150 -91 751 415 
Q 353 922 353 1747 
Q 353 2572 751 3078 
Q 1150 3584 1784 3584 
Q 2172 3584 2448 3432 
Q 2725 3281 2906 2969 
z
M 947 1747 
Q 947 1113 1208 752 
Q 1469 391 1925 391 
Q 2381 391 2643 752 
Q 2906 1113 2906 1747 
Q 2906 2381 2643 2742 
Q 2381 3103 1925 3103 
Q 1469 3103 1208 2742 
Q 947 2381 947 1747 
z
" transform="scale(0.015625)"/>
      <path id="DejaVuSans-61" d="M 2194 1759 
Q 1497 1759 1228 1600 
Q 959 1441 959 1056 
Q 959 750 1161 570 
Q 1363 391 1709 391 
Q 2188 391 2477 730 
Q 2766 1069 2766 1631 
L 2766 1759 
L 2194 1759 
z
M 3341 1997 
L 3341 0 
L 2766 0 
L 2766 531 
Q 2569 213 2275 61 
Q 1981 -91 1556 -91 
Q 1019 -91 701 211 
Q 384 513 384 1019 
Q 384 1609 779 1909 
Q 1175 2209 1959 2209 
L 2766 2209 
L 2766 2266 
Q 2766 2663 2505 2880 
Q 2244 3097 1772 3097 
Q 1472 3097 1187 3025 
Q 903 2953 641 2809 
L 641 3341 
Q 956 3463 1253 3523 
Q 1550 3584 1831 3584 
Q 2591 3584 2966 3190 
Q 3341 2797 3341 1997 
z
" transform="scale(0.015625)"/>
      <path id="DejaVuSans-6e" d="M 3513 2113 
L 3513 0 
L 2938 0 
L 2938 2094 
Q 2938 2591 2744 2837 
Q 2550 3084 2163 3084 
Q 1697 3084 1428 2787 
Q 1159 2491 1159 1978 
L 1159 0 
L 581 0 
L 581 3500 
L 1159 3500 
L 1159 2956 
Q 1366 3272 1645 3428 
Q 1925 3584 2291 3584 
Q 2894 3584 3203 3211 
Q 3513 2838 3513 2113 
z
" transform="scale(0.015625)"/>
     </defs>
     <use xlink:href="#DejaVuSans-46"/>
     <use xlink:href="#DejaVuSans-33" transform="translate(57.519531 0)"/>
     <use xlink:href="#DejaVuSans-2c" transform="translate(121.142578 0)"/>
     <use xlink:href="#DejaVuSans-20" transform="translate(152.929688 0)"/>
     <use xlink:href="#DejaVuSans-46" transform="translate(184.716797 0)"/>
     <use xlink:href="#DejaVuSans-37" transform="translate(242.236328 0)"/>
     <use xlink:href="#DejaVuSans-20" transform="translate(305.859375 0)"/>
     <use xlink:href="#DejaVuSans-28" transform="translate(337.646484 0)"/>
     <use xlink:href="#DejaVuSans-6d" transform="translate(376.660156 0)"/>
     <use xlink:href="#DejaVuSans-65" transform="translate(474.072266 0)"/>
     <use xlink:href="#DejaVuSans-64" transform="translate(535.595703 0)"/>
     <use xlink:href="#DejaVuSans-69" transform="translate(599.072266 0)"/>
     <use xlink:href="#DejaVuSans-61" transform="translate(626.855469 0)"/>
     <use xlink:href="#DejaVuSans-6e" transform="translate(688.134766 0)"/>
     <use xlink:href="#DejaVuSans-29" transform="translate(751.513672 0)"/>
    </g>
   </g>
   <g id="legend_1">
    <g id="patch_6">
     <path d="M 45.420552 55.75274 
L 126.56274 55.75274 
Q 128.56274 55.75274 128.56274 53.75274 
L 128.56274 25.118365 
Q 128.56274 23.118365 126.56274 23.118365 
L 45.420552 23.118365 
Q 43.420552 23.118365 43.420552 25.118365 
L 43.420552 53.75274 
Q 43.420552 55.75274 45.420552 55.75274 
z
" style="fill: #ffffff; opacity: 0.8; stroke: #cccccc; stroke-linejoin: miter"/>
    </g>
    <g id="line2d_15">
     <path d="M 47.420552 31.216803 
L 57.420552 31.216803 
L 67.420552 31.216803 
" style="fill: none; stroke: #1f77b4; stroke-width: 1.5; stroke-linecap: square"/>
    </g>
    <g id="text_18">
     <!-- eerie -->
     <g transform="translate(75.420552 34.716803) scale(0.1 -0.1)">
      <defs>
       <path id="DejaVuSans-72" d="M 2631 2963 
Q 2534 3019 2420 3045 
Q 2306 3072 2169 3072 
Q 1681 3072 1420 2755 
Q 1159 2438 1159 1844 
L 1159 0 
L 581 0 
L 581 3500 
L 1159 3500 
L 1159 2956 
Q 1341 3275 1631 3429 
Q 1922 3584 2338 3584 
Q 2397 3584 2469 3576 
Q 2541 3569 2628 3553 
L 2631 2963 
z
" transform="scale(0.015625)"/>
      </defs>
      <use xlink:href="#DejaVuSans-65"/>
      <use xlink:href="#DejaVuSans-65" transform="translate(61.523438 0)"/>
      <use xlink:href="#DejaVuSans-72" transform="translate(123.046875 0)"/>
      <use xlink:href="#DejaVuSans-69" transform="translate(164.160156 0)"/>
      <use xlink:href="#DejaVuSans-65" transform="translate(191.943359 0)"/>
     </g>
    </g>
    <g id="line2d_16">
     <path d="M 47.420552 45.894928 
L 57.420552 45.894928 
L 67.420552 45.894928 
" style="fill: none; stroke: #ff7f0e; stroke-width: 1.5; stroke-linecap: square"/>
    </g>
    <g id="text_19">
     <!-- non_eerie -->
     <g transform="translate(75.420552 49.394928) scale(0.1 -0.1)">
      <defs>
       <path id="DejaVuSans-6f" d="M 1959 3097 
Q 1497 3097 1228 2736 
Q 959 2375 959 1747 
Q 959 1119 1226 758 
Q 1494 397 1959 397 
Q 2419 397 2687 759 
Q 2956 1122 2956 1747 
Q 2956 2369 2687 2733 
Q 2419 3097 1959 3097 
z
M 1959 3584 
Q 2709 3584 3137 3096 
Q 3566 2609 3566 1747 
Q 3566 888 3137 398 
Q 2709 -91 1959 -91 
Q 1206 -91 779 398 
Q 353 888 353 1747 
Q 353 2609 779 3096 
Q 1206 3584 1959 3584 
z
" transform="scale(0.015625)"/>
       <path id="DejaVuSans-5f" d="M 3263 -1063 
L 3263 -1509 
L -63 -1509 
L -63 -1063 
L 3263 -1063 
z
" transform="scale(0.015625)"/>
      </defs>
      <use xlink:href="#DejaVuSans-6e"/>
      <use xlink:href="#DejaVuSans-6f" transform="translate(63.378906 0)"/>
      <use xlink:href="#DejaVuSans-6e" transform="translate(124.560547 0)"/>
      <use xlink:href="#DejaVuSans-5f" transform="translate(187.939453 0)"/>
      <use xlink:href="#DejaVuSans-65" transform="translate(237.939453 0)"/>
      <use xlink:href="#DejaVuSans-65" transform="translate(299.462891 0)"/>
      <use xlink:href="#DejaVuSans-72" transform="translate(360.986328 0)"/>
      <use xlink:href="#DejaVuSans-69" transform="translate(402.099609 0)"/>
      <use xlink:href="#DejaVuSans-65" transform="translate(429.882812 0)"/>
     </g>
    </g>
   </g>
   <g id="FillBetweenPolyCollection_1">
    <defs>
     <path id="m69d04eda24" d="M 38.420552 -246.572663 
L 38.420552 -218.495853 
L 40.123593 -212.814779 
L 41.826633 -203.766967 
L 43.529673 -194.189292 
L 45.232713 -189.447182 
L 46.935753 -192.677974 
L 48.638793 -203.848643 
L 50.341833 -215.339058 
L 52.044873 -218.429615 
L 53.747913 -212.955108 
L 55.450953 -204.025818 
L 57.153993 -199.343268 
L 58.857033 -201.891479 
L 60.560073 -209.13959 
L 62.263113 -214.226588 
L 63.966154 -211.565544 
L 65.669194 -200.91484 
L 67.372234 -187.385621 
L 69.075274 -177.610811 
L 70.778314 -179.258352 
L 72.481354 -190.631444 
L 74.184394 -204.182988 
L 75.887434 -213.690058 
L 77.590474 -217.492571 
L 79.293514 -220.833512 
L 80.996554 -224.591284 
L 82.699594 -229.138258 
L 84.402634 -230.955907 
L 86.105674 -229.130052 
L 87.808714 -224.834467 
L 89.511755 -222.487103 
L 91.214795 -228.173696 
L 92.917835 -242.370322 
L 94.620875 -258.53236 
L 96.323915 -267.75394 
L 98.026955 -261.147764 
L 99.729995 -239.826247 
L 101.433035 -213.688111 
L 103.136075 -195.352852 
L 104.839115 -194.674987 
L 106.542155 -208.844466 
L 108.245195 -227.975453 
L 109.948235 -237.419874 
L 111.651275 -228.81034 
L 113.354315 -204.348195 
L 115.057356 -176.784006 
L 116.760396 -161.87837 
L 118.463436 -165.490194 
L 120.166476 -184.057659 
L 121.869516 -207.960971 
L 123.572556 -226.879935 
L 125.275596 -235.89667 
L 126.978636 -240.230957 
L 128.681676 -244.527878 
L 130.384716 -252.375737 
L 132.087756 -258.981653 
L 133.790796 -259.061204 
L 135.493836 -252.625394 
L 137.196876 -243.74631 
L 138.899916 -238.749503 
L 140.602957 -242.486221 
L 142.305997 -253.82407 
L 144.009037 -265.644917 
L 145.712077 -269.296505 
L 147.415117 -262.905899 
L 149.118157 -252.203475 
L 150.821197 -246.912432 
L 152.524237 -249.465245 
L 154.227277 -257.317209 
L 155.930317 -261.046433 
L 157.633357 -252.732452 
L 159.336397 -234.179004 
L 161.039437 -213.407997 
L 162.742477 -200.725513 
L 164.445517 -198.992783 
L 166.148558 -202.684479 
L 167.851598 -202.221695 
L 169.554638 -191.087757 
L 171.257678 -171.797538 
L 172.960718 -151.885302 
L 174.663758 -143.181557 
L 176.366798 -148.371128 
L 178.069838 -163.540648 
L 179.772878 -182.180312 
L 181.475918 -198.505235 
L 183.178958 -211.778161 
L 184.881998 -223.421293 
L 186.585038 -234.353761 
L 188.288078 -243.481581 
L 189.991118 -248.494643 
L 191.694159 -249.724975 
L 193.397199 -248.421806 
L 195.100239 -250.048532 
L 196.803279 -257.432385 
L 198.506319 -268.093186 
L 200.209359 -275.747132 
L 201.912399 -277.576059 
L 203.615439 -272.707946 
L 205.318479 -264.917172 
L 207.021519 -260.114377 
L 208.724559 -262.133834 
L 210.427599 -268.481243 
L 212.130639 -272.386995 
L 213.833679 -269.736839 
L 215.536719 -258.338449 
L 217.23976 -242.308471 
L 218.9428 -229.64877 
L 220.64584 -224.208952 
L 222.34888 -225.134835 
L 224.05192 -229.281883 
L 225.75496 -235.092302 
L 227.458 -241.354889 
L 229.16104 -247.617427 
L 230.86408 -256.167125 
L 232.56712 -266.61486 
L 234.27016 -276.432165 
L 235.9732 -282.364562 
L 237.67624 -285.250656 
L 239.37928 -286.441965 
L 241.08232 -289.083004 
L 242.785361 -292.241343 
L 244.488401 -292.97646 
L 246.191441 -288.54579 
L 247.894481 -278.371343 
L 249.597521 -266.220106 
L 251.300561 -255.841118 
L 253.003601 -251.881845 
L 254.706641 -254.119701 
L 256.409681 -256.651947 
L 258.112721 -254.295489 
L 259.815761 -243.764728 
L 261.518801 -226.9427 
L 263.221841 -212.264374 
L 264.924881 -205.194752 
L 266.627921 -208.830544 
L 268.330962 -219.477097 
L 270.034002 -227.844965 
L 271.737042 -227.179131 
L 273.440082 -214.842488 
L 275.143122 -196.28061 
L 276.846162 -180.886809 
L 278.549202 -176.796217 
L 280.252242 -183.289447 
L 281.955282 -192.569682 
L 283.658322 -198.562625 
L 285.361362 -197.619636 
L 287.064402 -190.134172 
L 288.767442 -177.694936 
L 290.470482 -167.918388 
L 292.173522 -162.336402 
L 293.876563 -161.626484 
L 295.579603 -161.640602 
L 297.282643 -163.430743 
L 298.985683 -166.2614 
L 300.688723 -171.47951 
L 302.391763 -175.089189 
L 304.094803 -173.92493 
L 305.797843 -168.253408 
L 307.500883 -160.062969 
L 309.203923 -154.361911 
L 310.906963 -158.942997 
L 312.610003 -175.751506 
L 314.313043 -201.227693 
L 316.016083 -225.734659 
L 317.719123 -240.536242 
L 319.422164 -240.696038 
L 321.125204 -231.251188 
L 322.828244 -219.153166 
L 324.531284 -213.014141 
L 326.234324 -215.201866 
L 327.937364 -224.229334 
L 329.640404 -234.203113 
L 331.343444 -242.225116 
L 333.046484 -247.313772 
L 334.749524 -254.080557 
L 336.452564 -262.443801 
L 338.155604 -272.901481 
L 339.858644 -279.628296 
L 341.561684 -278.134075 
L 343.264724 -270.646145 
L 344.967765 -262.714943 
L 346.670805 -262.09264 
L 348.373845 -270.112846 
L 350.076885 -284.200424 
L 351.779925 -297.399607 
L 353.482965 -303.864161 
L 355.186005 -301.176638 
L 356.889045 -294.955678 
L 358.592085 -290.392783 
L 360.295125 -289.887658 
L 361.998165 -290.844181 
L 363.701205 -290.29778 
L 365.404245 -286.882817 
L 367.107285 -281.990678 
L 368.810326 -281.211691 
L 370.513366 -286.997871 
L 372.216406 -294.56837 
L 373.919446 -299.325266 
L 375.622486 -296.28001 
L 377.325526 -283.073874 
L 379.028566 -265.671783 
L 380.731606 -252.746275 
L 382.434646 -251.575634 
L 384.137686 -263.34464 
L 385.840726 -279.420475 
L 387.543766 -290.656901 
L 389.246806 -290.088439 
L 390.949846 -279.656378 
L 392.652886 -270.691623 
L 394.355927 -269.864159 
L 396.058967 -278.000897 
L 397.762007 -290.78623 
L 399.465047 -300.621437 
L 401.168087 -301.514752 
L 402.871127 -291.54368 
L 404.574167 -278.486086 
L 406.277207 -270.97048 
L 407.980247 -273.419992 
L 409.683287 -284.436982 
L 411.386327 -299.71915 
L 413.089367 -314.198507 
L 414.792407 -324.791283 
L 416.495447 -332.738058 
L 418.198487 -337.105205 
L 419.901528 -337.30149 
L 421.604568 -332.432994 
L 423.307608 -321.635228 
L 425.010648 -308.388211 
L 426.713688 -301.323326 
L 428.416728 -306.677701 
L 430.119768 -324.641867 
L 431.822808 -344.715152 
L 433.525848 -356.485432 
L 435.228888 -353.239557 
L 436.931928 -335.151088 
L 438.634968 -309.917433 
L 440.338008 -290.336509 
L 442.041048 -282.187525 
L 443.744088 -285.906611 
L 445.447129 -295.669533 
L 447.150169 -302.118679 
L 448.853209 -301.506408 
L 450.556249 -294.628106 
L 452.259289 -288.404678 
L 453.962329 -288.385567 
L 455.665369 -295.030763 
L 457.368409 -304.825226 
L 459.071449 -312.735694 
L 460.774489 -316.548853 
L 462.477529 -315.70979 
L 464.180569 -312.319164 
L 465.883609 -310.512452 
L 467.586649 -311.365425 
L 469.289689 -313.109604 
L 470.99273 -314.684117 
L 472.69577 -313.945929 
L 474.39881 -310.95279 
L 476.10185 -308.56984 
L 477.80489 -309.739108 
L 479.50793 -316.782574 
L 481.21097 -327.174368 
L 482.91401 -338.270995 
L 484.61705 -346.06171 
L 486.32009 -346.922652 
L 488.02313 -339.70937 
L 489.72617 -328.477359 
L 491.42921 -316.501647 
L 493.13225 -309.027146 
L 494.83529 -305.804479 
L 496.538331 -307.851764 
L 498.241371 -310.705665 
L 499.944411 -311.55151 
L 501.647451 -313.328601 
L 503.350491 -318.615549 
L 505.053531 -326.973052 
L 506.756571 -336.51121 
L 508.459611 -342.890595 
L 510.162651 -342.159968 
L 511.865691 -331.427847 
L 513.568731 -314.188607 
L 515.271771 -297.494149 
L 516.974811 -290.561512 
L 518.677851 -297.951567 
L 520.380891 -317.784937 
L 522.083932 -338.819491 
L 523.786972 -351.397379 
L 525.490012 -350.713337 
L 527.193052 -338.95336 
L 528.896092 -327.823868 
L 530.599132 -324.42605 
L 532.302172 -333.811446 
L 534.005212 -350.038609 
L 535.708252 -362.684737 
L 537.411292 -365.916449 
L 539.114332 -357.695699 
L 540.817372 -347.399713 
L 542.520412 -340.264156 
L 544.223452 -340.044619 
L 545.926492 -343.642831 
L 547.629533 -346.108786 
L 549.332573 -343.50792 
L 551.035613 -338.561136 
L 552.738653 -336.08633 
L 554.441693 -339.809087 
L 556.144733 -349.868286 
L 557.847773 -358.749291 
L 559.550813 -360.270803 
L 561.253853 -350.397143 
L 561.253853 -395.305629 
L 561.253853 -395.305629 
L 559.550813 -405.350476 
L 557.847773 -406.766781 
L 556.144733 -401.390061 
L 554.441693 -394.520533 
L 552.738653 -390.82978 
L 551.035613 -391.860419 
L 549.332573 -395.24589 
L 547.629533 -393.657032 
L 545.926492 -388.456341 
L 544.223452 -383.507523 
L 542.520412 -385.120166 
L 540.817372 -394.582605 
L 539.114332 -407.609175 
L 537.411292 -413.881635 
L 535.708252 -408.802161 
L 534.005212 -393.780286 
L 532.302172 -377.356945 
L 530.599132 -366.764623 
L 528.896092 -369.334139 
L 527.193052 -382.769973 
L 525.490012 -394.226226 
L 523.786972 -394.42728 
L 522.083932 -380.928159 
L 520.380891 -359.124749 
L 518.677851 -341.467029 
L 516.974811 -334.791165 
L 515.271771 -342.091333 
L 513.568731 -358.144225 
L 511.865691 -374.276289 
L 510.162651 -383.559803 
L 508.459611 -384.875495 
L 506.756571 -379.753816 
L 505.053531 -371.786752 
L 503.350491 -364.76344 
L 501.647451 -360.053651 
L 499.944411 -354.618892 
L 498.241371 -349.179214 
L 496.538331 -346.981686 
L 494.83529 -347.783168 
L 493.13225 -352.193628 
L 491.42921 -361.215167 
L 489.72617 -373.423365 
L 488.02313 -383.503147 
L 486.32009 -389.197381 
L 484.61705 -386.305906 
L 482.91401 -377.867443 
L 481.21097 -365.745236 
L 479.50793 -355.421681 
L 477.80489 -349.739886 
L 476.10185 -348.656094 
L 474.39881 -350.367275 
L 472.69577 -353.438707 
L 470.99273 -355.095653 
L 469.289689 -354.470454 
L 467.586649 -353.214461 
L 465.883609 -352.800119 
L 464.180569 -354.032231 
L 462.477529 -355.77551 
L 460.774489 -353.968422 
L 459.071449 -348.880707 
L 457.368409 -339.934148 
L 455.665369 -331.552739 
L 453.962329 -328.375184 
L 452.259289 -331.783963 
L 450.556249 -339.977128 
L 448.853209 -346.437656 
L 447.150169 -346.122236 
L 445.447129 -338.945122 
L 443.744088 -329.216905 
L 442.041048 -323.862017 
L 440.338008 -330.735434 
L 438.634968 -351.021201 
L 436.931928 -376.56805 
L 435.228888 -395.337139 
L 433.525848 -399.013564 
L 431.822808 -386.211164 
L 430.119768 -366.565294 
L 428.416728 -350.353672 
L 426.713688 -345.264149 
L 425.010648 -351.600011 
L 423.307608 -363.964472 
L 421.604568 -375.746309 
L 419.901528 -382.220315 
L 418.198487 -381.322448 
L 416.495447 -375.786953 
L 414.792407 -367.095116 
L 413.089367 -355.511258 
L 411.386327 -339.737872 
L 409.683287 -323.641701 
L 407.980247 -313.586019 
L 406.277207 -313.758065 
L 404.574167 -323.899199 
L 402.871127 -337.251758 
L 401.168087 -345.569831 
L 399.465047 -343.405408 
L 397.762007 -329.927901 
L 396.058967 -314.163465 
L 394.355927 -306.176591 
L 392.652886 -310.795278 
L 390.949846 -323.330689 
L 389.246806 -333.801786 
L 387.543766 -334.370468 
L 385.840726 -323.513028 
L 384.137686 -306.169405 
L 382.434646 -290.738659 
L 380.731606 -288.275653 
L 379.028566 -299.513153 
L 377.325526 -317.824121 
L 375.622486 -333.447571 
L 373.919446 -339.132567 
L 372.216406 -334.529 
L 370.513366 -324.968291 
L 368.810326 -318.178529 
L 367.107285 -316.942495 
L 365.404245 -319.623315 
L 363.701205 -322.436075 
L 361.998165 -323.620192 
L 360.295125 -324.029524 
L 358.592085 -327.046311 
L 356.889045 -333.515652 
L 355.186005 -340.599749 
L 353.482965 -342.469629 
L 351.779925 -334.242769 
L 350.076885 -319.803388 
L 348.373845 -303.783922 
L 346.670805 -294.431639 
L 344.967765 -295.295762 
L 343.264724 -304.329026 
L 341.561684 -314.215944 
L 339.858644 -317.439439 
L 338.155604 -311.770507 
L 336.452564 -300.625731 
L 334.749524 -291.009651 
L 333.046484 -284.417024 
L 331.343444 -280.337673 
L 329.640404 -275.454619 
L 327.937364 -266.826948 
L 326.234324 -256.796819 
L 324.531284 -252.277249 
L 322.828244 -257.039574 
L 321.125204 -267.941966 
L 319.422164 -277.942066 
L 317.719123 -278.277797 
L 316.016083 -263.226795 
L 314.313043 -239.361933 
L 312.610003 -215.18145 
L 310.906963 -198.953973 
L 309.203923 -194.440859 
L 307.500883 -198.617791 
L 305.797843 -206.202011 
L 304.094803 -210.43967 
L 302.391763 -209.314858 
L 300.688723 -206.116931 
L 298.985683 -202.222583 
L 297.282643 -199.934372 
L 295.579603 -198.869286 
L 293.876563 -199.093572 
L 292.173522 -200.36871 
L 290.470482 -204.378165 
L 288.767442 -210.627034 
L 287.064402 -219.550126 
L 285.361362 -228.715508 
L 283.658322 -231.185137 
L 281.955282 -226.55747 
L 280.252242 -219.391032 
L 278.549202 -214.97454 
L 276.846162 -220.402605 
L 275.143122 -233.701071 
L 273.440082 -250.263856 
L 271.737042 -261.917185 
L 270.034002 -264.302779 
L 268.330962 -256.135853 
L 266.627921 -244.40816 
L 264.924881 -239.387995 
L 263.221841 -246.456458 
L 261.518801 -261.420211 
L 259.815761 -277.3892 
L 258.112721 -287.639974 
L 256.409681 -289.748412 
L 254.706641 -286.909144 
L 253.003601 -285.491973 
L 251.300561 -290.072791 
L 249.597521 -301.613042 
L 247.894481 -314.728185 
L 246.191441 -325.588726 
L 244.488401 -329.779711 
L 242.785361 -327.93545 
L 241.08232 -323.503182 
L 239.37928 -318.204821 
L 237.67624 -315.470223 
L 235.9732 -313.481785 
L 234.27016 -310.601118 
L 232.56712 -305.48492 
L 230.86408 -296.866594 
L 229.16104 -285.55283 
L 227.458 -275.512737 
L 225.75496 -268.149239 
L 224.05192 -262.764713 
L 222.34888 -260.161611 
L 220.64584 -263.044132 
L 218.9428 -271.536931 
L 217.23976 -284.948851 
L 215.536719 -296.202212 
L 213.833679 -303.899817 
L 212.130639 -305.643056 
L 210.427599 -301.19022 
L 208.724559 -295.502396 
L 207.021519 -294.521138 
L 205.318479 -299.992839 
L 203.615439 -308.275373 
L 201.912399 -315.619422 
L 200.209359 -315.009767 
L 198.506319 -306.897711 
L 196.803279 -297.567558 
L 195.100239 -290.776872 
L 193.397199 -287.396496 
L 191.694159 -286.474101 
L 189.991118 -282.640268 
L 188.288078 -276.797779 
L 186.585038 -267.751771 
L 184.881998 -257.463569 
L 183.178958 -248.338373 
L 181.475918 -235.363192 
L 179.772878 -216.500126 
L 178.069838 -195.229972 
L 176.366798 -178.384503 
L 174.663758 -173.662601 
L 172.960718 -183.644507 
L 171.257678 -204.075152 
L 169.554638 -223.125678 
L 167.851598 -233.798872 
L 166.148558 -233.807461 
L 164.445517 -230.169847 
L 162.742477 -232.477616 
L 161.039437 -245.484417 
L 159.336397 -265.984616 
L 157.633357 -284.832243 
L 155.930317 -293.177934 
L 154.227277 -289.726447 
L 152.524237 -281.116063 
L 150.821197 -277.618714 
L 149.118157 -282.42678 
L 147.415117 -291.780192 
L 145.712077 -298.139127 
L 144.009037 -295.528072 
L 142.305997 -284.190798 
L 140.602957 -272.009563 
L 138.899916 -267.527083 
L 137.196876 -272.580976 
L 135.493836 -281.749807 
L 133.790796 -286.881985 
L 132.087756 -284.904725 
L 130.384716 -277.938904 
L 128.681676 -270.970189 
L 126.978636 -265.682301 
L 125.275596 -261.133264 
L 123.572556 -252.047066 
L 121.869516 -234.823931 
L 120.166476 -211.579865 
L 118.463436 -192.3517 
L 116.760396 -187.866992 
L 115.057356 -202.622735 
L 113.354315 -228.047603 
L 111.651275 -252.081842 
L 109.948235 -261.854713 
L 108.245195 -253.81545 
L 106.542155 -235.146327 
L 104.839115 -219.344329 
L 103.136075 -219.227069 
L 101.433035 -237.172042 
L 99.729995 -262.775815 
L 98.026955 -282.966794 
L 96.323915 -289.838379 
L 94.620875 -282.567855 
L 92.917835 -267.332995 
L 91.214795 -253.161513 
L 89.511755 -245.860751 
L 87.808714 -246.279992 
L 86.105674 -249.226063 
L 84.402634 -251.25105 
L 82.699594 -249.447958 
L 80.996554 -247.635139 
L 79.293514 -246.275032 
L 77.590474 -243.676626 
L 75.887434 -236.762091 
L 74.184394 -224.988704 
L 72.481354 -211.663164 
L 70.778314 -202.266425 
L 69.075274 -200.341674 
L 67.372234 -207.560925 
L 65.669194 -221.909511 
L 63.966154 -234.323125 
L 62.263113 -237.612353 
L 60.560073 -231.942336 
L 58.857033 -224.249795 
L 57.153993 -222.159063 
L 55.450953 -227.50972 
L 53.747913 -236.175177 
L 52.044873 -241.904001 
L 50.341833 -240.092082 
L 48.638793 -230.991149 
L 46.935753 -219.270291 
L 45.232713 -212.707271 
L 43.529673 -215.651387 
L 41.826633 -225.824846 
L 40.123593 -237.866401 
L 38.420552 -246.572663 
z
" style="stroke: #1f77b4; stroke-opacity: 0.3"/>
    </defs>
    <g>
     <use xlink:href="#m69d04eda24" x="0" y="432" style="fill: #1f77b4; fill-opacity: 0.3; stroke: #1f77b4; stroke-opacity: 0.3"/>
    </g>
   </g>
   <g id="FillBetweenPolyCollection_2">
    <defs>
     <path id="m6e5ecc63b6" d="M 38.420552 -227.490645 
L 38.420552 -219.69741 
L 40.123593 -222.836782 
L 41.826633 -226.702943 
L 43.529673 -230.191055 
L 45.232713 -231.848962 
L 46.935753 -230.896548 
L 48.638793 -227.935898 
L 50.341833 -224.986171 
L 52.044873 -224.065168 
L 53.747913 -225.626747 
L 55.450953 -228.593578 
L 57.153993 -230.612838 
L 58.857033 -229.532364 
L 60.560073 -225.216691 
L 62.263113 -219.662688 
L 63.966154 -216.222984 
L 65.669194 -216.751889 
L 67.372234 -220.669223 
L 69.075274 -224.820733 
L 70.778314 -225.655421 
L 72.481354 -221.045375 
L 74.184394 -211.760915 
L 75.887434 -201.911232 
L 77.590474 -196.416861 
L 79.293514 -198.218045 
L 80.996554 -207.298701 
L 82.699594 -219.689435 
L 84.402634 -229.792746 
L 86.105674 -234.17483 
L 87.808714 -232.505967 
L 89.511755 -228.083723 
L 91.214795 -224.727986 
L 92.917835 -224.629232 
L 94.620875 -226.785398 
L 96.323915 -228.069071 
L 98.026955 -226.168339 
L 99.729995 -220.665823 
L 101.433035 -214.538411 
L 103.136075 -211.037609 
L 104.839115 -211.566142 
L 106.542155 -214.44634 
L 108.245195 -216.590355 
L 109.948235 -215.762402 
L 111.651275 -212.545937 
L 113.354315 -209.178709 
L 115.057356 -208.792573 
L 116.760396 -211.864445 
L 118.463436 -217.309361 
L 120.166476 -222.04988 
L 121.869516 -224.032264 
L 123.572556 -222.997982 
L 125.275596 -219.951355 
L 126.978636 -215.302707 
L 128.681676 -209.86766 
L 130.384716 -203.821835 
L 132.087756 -197.985525 
L 133.790796 -194.657136 
L 135.493836 -195.799053 
L 137.196876 -201.301501 
L 138.899916 -208.480278 
L 140.602957 -212.855349 
L 142.305997 -211.571074 
L 144.009037 -204.623944 
L 145.712077 -195.728912 
L 147.415117 -188.869937 
L 149.118157 -186.898593 
L 150.821197 -188.545954 
L 152.524237 -191.044949 
L 154.227277 -192.005518 
L 155.930317 -191.835995 
L 157.633357 -192.420764 
L 159.336397 -195.283177 
L 161.039437 -199.75559 
L 162.742477 -201.488143 
L 164.445517 -196.50276 
L 166.148558 -183.371773 
L 167.851598 -165.168471 
L 169.554638 -148.02429 
L 171.257678 -136.774656 
L 172.960718 -132.792519 
L 174.663758 -134.148248 
L 176.366798 -137.345917 
L 178.069838 -140.647062 
L 179.772878 -145.033026 
L 181.475918 -154.064402 
L 183.178958 -170.238056 
L 184.881998 -192.847904 
L 186.585038 -218.192805 
L 188.288078 -240.53756 
L 189.991118 -256.730285 
L 191.694159 -266.536411 
L 193.397199 -272.554387 
L 195.100239 -277.333665 
L 196.803279 -282.069987 
L 198.506319 -286.029422 
L 200.209359 -287.277074 
L 201.912399 -284.751617 
L 203.615439 -278.207943 
L 205.318479 -269.442941 
L 207.021519 -260.346556 
L 208.724559 -252.334421 
L 210.427599 -245.780503 
L 212.130639 -240.309839 
L 213.833679 -235.666223 
L 215.536719 -231.646044 
L 217.23976 -228.528992 
L 218.9428 -226.088853 
L 220.64584 -223.7859 
L 222.34888 -220.792064 
L 224.05192 -216.455863 
L 225.75496 -211.16066 
L 227.458 -205.912212 
L 229.16104 -201.919288 
L 230.86408 -200.118576 
L 232.56712 -201.893397 
L 234.27016 -206.84204 
L 235.9732 -214.163052 
L 237.67624 -222.394864 
L 239.37928 -229.34733 
L 241.08232 -233.653955 
L 242.785361 -234.667702 
L 244.488401 -232.776508 
L 246.191441 -229.900079 
L 247.894481 -227.448821 
L 249.597521 -225.997623 
L 251.300561 -225.440246 
L 253.003601 -224.390127 
L 254.706641 -221.71725 
L 256.409681 -216.822894 
L 258.112721 -209.716013 
L 259.815761 -200.947948 
L 261.518801 -191.339042 
L 263.221841 -181.826138 
L 264.924881 -173.629862 
L 266.627921 -168.008402 
L 268.330962 -165.423046 
L 270.034002 -165.004799 
L 271.737042 -165.09997 
L 273.440082 -163.3414 
L 275.143122 -159.470014 
L 276.846162 -155.050362 
L 278.549202 -153.083501 
L 280.252242 -156.189179 
L 281.955282 -164.350083 
L 283.658322 -174.414157 
L 285.361362 -181.49108 
L 287.064402 -182.049518 
L 288.767442 -176.596828 
L 290.470482 -169.113013 
L 292.173522 -165.289755 
L 293.876563 -168.494214 
L 295.579603 -177.723138 
L 297.282643 -188.843009 
L 298.985683 -196.958286 
L 300.688723 -199.307642 
L 302.391763 -197.067233 
L 304.094803 -194.261323 
L 305.797843 -195.306176 
L 307.500883 -202.322814 
L 309.203923 -213.587696 
L 310.906963 -225.940011 
L 312.610003 -234.542945 
L 314.313043 -237.019145 
L 316.016083 -233.486308 
L 317.719123 -225.96703 
L 319.422164 -218.626209 
L 321.125204 -214.703531 
L 322.828244 -215.776809 
L 324.531284 -220.879004 
L 326.234324 -227.214081 
L 327.937364 -230.475242 
L 329.640404 -228.339182 
L 331.343444 -220.756072 
L 333.046484 -211.185317 
L 334.749524 -203.88325 
L 336.452564 -201.59692 
L 338.155604 -204.404992 
L 339.858644 -209.852313 
L 341.561684 -214.183713 
L 343.264724 -215.366487 
L 344.967765 -213.780609 
L 346.670805 -211.891304 
L 348.373845 -212.868988 
L 350.076885 -216.656323 
L 351.779925 -221.907179 
L 353.482965 -225.967744 
L 355.186005 -226.358817 
L 356.889045 -223.134316 
L 358.592085 -217.846558 
L 360.295125 -213.256996 
L 361.998165 -211.023017 
L 363.701205 -211.229829 
L 365.404245 -213.624237 
L 367.107285 -217.622695 
L 368.810326 -222.625671 
L 370.513366 -228.374622 
L 372.216406 -233.693915 
L 373.919446 -237.856692 
L 375.622486 -239.712997 
L 377.325526 -239.776388 
L 379.028566 -239.806648 
L 380.731606 -241.801385 
L 382.434646 -246.466336 
L 384.137686 -252.894921 
L 385.840726 -258.830503 
L 387.543766 -261.395548 
L 389.246806 -260.028051 
L 390.949846 -256.80677 
L 392.652886 -255.113429 
L 394.355927 -257.451569 
L 396.058967 -264.14071 
L 397.762007 -272.665148 
L 399.465047 -279.502531 
L 401.168087 -281.921528 
L 402.871127 -279.047802 
L 404.574167 -273.254692 
L 406.277207 -267.335027 
L 407.980247 -263.804585 
L 409.683287 -264.823153 
L 411.386327 -270.930277 
L 413.089367 -280.614402 
L 414.792407 -291.15142 
L 416.495447 -299.659004 
L 418.198487 -304.360402 
L 419.901528 -303.926242 
L 421.604568 -300.737658 
L 423.307608 -297.348592 
L 425.010648 -297.095323 
L 426.713688 -300.29496 
L 428.416728 -304.812791 
L 430.119768 -307.811208 
L 431.822808 -307.011948 
L 433.525848 -303.345458 
L 435.228888 -300.250158 
L 436.931928 -300.887992 
L 438.634968 -306.196005 
L 440.338008 -313.313266 
L 442.041048 -317.342892 
L 443.744088 -314.916724 
L 445.447129 -306.396725 
L 447.150169 -295.526774 
L 448.853209 -287.628 
L 450.556249 -286.449338 
L 452.259289 -291.51157 
L 453.962329 -299.26664 
L 455.665369 -304.734538 
L 457.368409 -305.100837 
L 459.071449 -300.800471 
L 460.774489 -294.77517 
L 462.477529 -291.161765 
L 464.180569 -292.122887 
L 465.883609 -297.179803 
L 467.586649 -304.09243 
L 469.289689 -309.63786 
L 470.99273 -312.111461 
L 472.69577 -311.551743 
L 474.39881 -310.317874 
L 476.10185 -310.120229 
L 477.80489 -312.136873 
L 479.50793 -315.539601 
L 481.21097 -319.037458 
L 482.91401 -320.784261 
L 484.61705 -321.104574 
L 486.32009 -320.795307 
L 488.02313 -321.328771 
L 489.72617 -322.67 
L 491.42921 -324.097232 
L 493.13225 -323.595847 
L 494.83529 -319.635546 
L 496.538331 -313.238754 
L 498.241371 -307.382854 
L 499.944411 -304.768872 
L 501.647451 -307.360342 
L 503.350491 -313.564224 
L 505.053531 -320.325785 
L 506.756571 -323.661997 
L 508.459611 -322.305786 
L 510.162651 -316.775942 
L 511.865691 -310.824104 
L 513.568731 -307.519124 
L 515.271771 -308.824622 
L 516.974811 -314.294691 
L 518.677851 -321.520999 
L 520.380891 -327.572786 
L 522.083932 -330.958299 
L 523.786972 -331.471631 
L 525.490012 -330.870562 
L 527.193052 -331.259803 
L 528.896092 -333.69244 
L 530.599132 -337.372968 
L 532.302172 -340.582378 
L 534.005212 -341.795116 
L 535.708252 -340.352957 
L 537.411292 -338.297659 
L 539.114332 -337.601248 
L 540.817372 -340.340977 
L 542.520412 -345.280716 
L 544.223452 -350.203681 
L 545.926492 -353.182584 
L 547.629533 -353.416905 
L 549.332573 -352.350876 
L 551.035613 -352.324896 
L 552.738653 -354.256368 
L 554.441693 -356.850226 
L 556.144733 -356.962638 
L 557.847773 -351.828878 
L 559.550813 -342.646308 
L 561.253853 -332.591282 
L 561.253853 -344.097856 
L 561.253853 -344.097856 
L 559.550813 -353.753566 
L 557.847773 -362.857207 
L 556.144733 -368.072822 
L 554.441693 -368.299294 
L 552.738653 -365.734484 
L 551.035613 -363.513374 
L 549.332573 -363.097663 
L 547.629533 -364.028424 
L 545.926492 -363.570447 
L 544.223452 -360.512137 
L 542.520412 -355.191749 
L 540.817372 -350.297827 
L 539.114332 -347.767649 
L 537.411292 -348.516924 
L 535.708252 -350.888546 
L 534.005212 -352.554656 
L 532.302172 -351.485617 
L 530.599132 -348.026461 
L 528.896092 -344.030973 
L 527.193052 -341.904114 
L 525.490012 -341.94984 
L 523.786972 -342.855312 
L 522.083932 -342.664708 
L 520.380891 -339.542852 
L 518.677851 -333.023672 
L 516.974811 -325.560637 
L 515.271771 -319.853432 
L 513.568731 -318.605258 
L 511.865691 -322.27159 
L 510.162651 -328.518611 
L 508.459611 -333.793682 
L 506.756571 -334.736283 
L 505.053531 -330.961567 
L 503.350491 -324.207512 
L 501.647451 -318.162389 
L 499.944411 -316.19957 
L 498.241371 -319.193122 
L 496.538331 -325.517144 
L 494.83529 -331.56118 
L 493.13225 -334.934743 
L 491.42921 -335.227453 
L 489.72617 -333.464856 
L 488.02313 -331.975616 
L 486.32009 -331.776127 
L 484.61705 -332.373524 
L 482.91401 -332.374651 
L 481.21097 -330.394873 
L 479.50793 -326.938918 
L 477.80489 -323.318177 
L 476.10185 -321.279072 
L 474.39881 -321.511358 
L 472.69577 -322.929345 
L 470.99273 -323.111054 
L 469.289689 -320.60338 
L 467.586649 -315.269004 
L 465.883609 -308.817681 
L 464.180569 -303.934377 
L 462.477529 -303.297459 
L 460.774489 -306.945247 
L 459.071449 -312.802668 
L 457.368409 -316.861517 
L 455.665369 -316.372402 
L 453.962329 -310.84876 
L 452.259289 -303.255823 
L 450.556249 -298.416209 
L 448.853209 -299.811869 
L 447.150169 -307.992493 
L 445.447129 -318.907179 
L 443.744088 -326.84181 
L 442.041048 -328.549024 
L 440.338008 -324.2069 
L 438.634968 -317.119985 
L 436.931928 -312.350566 
L 435.228888 -312.029249 
L 433.525848 -315.562328 
L 431.822808 -319.038438 
L 430.119768 -319.40112 
L 428.416728 -315.863411 
L 426.713688 -310.900247 
L 425.010648 -308.005674 
L 423.307608 -308.841888 
L 421.604568 -312.814314 
L 419.901528 -316.331488 
L 418.198487 -316.639298 
L 416.495447 -311.668781 
L 414.792407 -302.235199 
L 413.089367 -291.093586 
L 411.386327 -281.546122 
L 409.683287 -275.489575 
L 407.980247 -274.665319 
L 406.277207 -278.34358 
L 404.574167 -284.558763 
L 402.871127 -290.458484 
L 401.168087 -292.908487 
L 399.465047 -290.273206 
L 397.762007 -283.115959 
L 396.058967 -274.743806 
L 394.355927 -268.334494 
L 392.652886 -266.167203 
L 390.949846 -267.979547 
L 389.246806 -271.2438 
L 387.543766 -272.502779 
L 385.840726 -269.919803 
L 384.137686 -264.08137 
L 382.434646 -257.226134 
L 380.731606 -252.06811 
L 379.028566 -249.99414 
L 377.325526 -250.127302 
L 375.622486 -250.175216 
L 373.919446 -248.497707 
L 372.216406 -244.61325 
L 370.513366 -239.187572 
L 368.810326 -233.567038 
L 367.107285 -228.329634 
L 365.404245 -223.99029 
L 363.701205 -221.364061 
L 361.998165 -221.013609 
L 360.295125 -223.581933 
L 358.592085 -228.572651 
L 356.889045 -233.839793 
L 355.186005 -236.714525 
L 353.482965 -235.96591 
L 351.779925 -231.742549 
L 350.076885 -226.024165 
L 348.373845 -222.377859 
L 346.670805 -222.054414 
L 344.967765 -224.027098 
L 343.264724 -225.730552 
L 341.561684 -224.699557 
L 339.858644 -219.908934 
L 338.155604 -214.280555 
L 336.452564 -211.339186 
L 334.749524 -213.750349 
L 333.046484 -221.210532 
L 331.343444 -230.706404 
L 329.640404 -238.062137 
L 327.937364 -239.821675 
L 326.234324 -236.61677 
L 324.531284 -230.679179 
L 322.828244 -225.756471 
L 321.125204 -225.023279 
L 319.422164 -229.279658 
L 317.719123 -236.867522 
L 316.016083 -244.327492 
L 314.313043 -247.805443 
L 312.610003 -245.093907 
L 310.906963 -236.35983 
L 309.203923 -224.352342 
L 307.500883 -212.893502 
L 305.797843 -206.214161 
L 304.094803 -205.016445 
L 302.391763 -207.555723 
L 300.688723 -209.565119 
L 298.985683 -206.998341 
L 297.282643 -198.982028 
L 295.579603 -187.857515 
L 293.876563 -178.921008 
L 292.173522 -176.060399 
L 290.470482 -179.743953 
L 288.767442 -187.091824 
L 287.064402 -192.540903 
L 285.361362 -191.628599 
L 283.658322 -184.46927 
L 281.955282 -174.648387 
L 280.252242 -166.529515 
L 278.549202 -163.396038 
L 276.846162 -165.551506 
L 275.143122 -169.963326 
L 273.440082 -173.820335 
L 271.737042 -175.638005 
L 270.034002 -175.917272 
L 268.330962 -176.376178 
L 266.627921 -178.842439 
L 264.924881 -184.12381 
L 263.221841 -191.842143 
L 261.518801 -201.055652 
L 259.815761 -210.764304 
L 258.112721 -219.656777 
L 256.409681 -226.975984 
L 254.706641 -231.774553 
L 253.003601 -234.15635 
L 251.300561 -235.176242 
L 249.597521 -235.755127 
L 247.894481 -237.339094 
L 246.191441 -240.314442 
L 244.488401 -243.629467 
L 242.785361 -245.452726 
L 241.08232 -244.356845 
L 239.37928 -239.697564 
L 237.67624 -232.451583 
L 235.9732 -224.406784 
L 234.27016 -216.994068 
L 232.56712 -212.04638 
L 230.86408 -210.479272 
L 229.16104 -211.919762 
L 227.458 -215.61982 
L 225.75496 -220.740964 
L 224.05192 -225.755733 
L 222.34888 -230.077385 
L 220.64584 -233.18101 
L 218.9428 -235.496871 
L 217.23976 -237.473627 
L 215.536719 -240.528436 
L 213.833679 -244.423406 
L 212.130639 -249.272069 
L 210.427599 -254.923825 
L 208.724559 -261.45579 
L 207.021519 -269.377336 
L 205.318479 -278.447578 
L 203.615439 -287.229322 
L 201.912399 -293.921617 
L 200.209359 -296.821688 
L 198.506319 -295.564712 
L 196.803279 -291.443731 
L 195.100239 -286.535698 
L 193.397199 -281.965144 
L 191.694159 -276.039443 
L 189.991118 -265.873225 
L 188.288078 -249.315412 
L 186.585038 -226.915786 
L 184.881998 -201.823642 
L 183.178958 -179.141457 
L 181.475918 -162.891854 
L 179.772878 -153.725194 
L 178.069838 -149.282157 
L 176.366798 -146.176391 
L 174.663758 -143.049382 
L 172.960718 -141.445082 
L 171.257678 -145.3267 
L 169.554638 -156.910951 
L 167.851598 -174.360556 
L 166.148558 -192.377422 
L 164.445517 -205.303432 
L 162.742477 -210.37791 
L 161.039437 -208.702012 
L 159.336397 -204.340206 
L 157.633357 -201.09141 
L 155.930317 -200.211627 
L 154.227277 -200.216363 
L 152.524237 -199.197037 
L 150.821197 -196.843433 
L 149.118157 -195.449139 
L 147.415117 -197.593053 
L 145.712077 -204.324501 
L 144.009037 -213.316623 
L 142.305997 -220.063641 
L 140.602957 -220.937531 
L 138.899916 -216.24297 
L 137.196876 -208.829107 
L 135.493836 -203.18941 
L 133.790796 -201.947023 
L 132.087756 -205.361906 
L 130.384716 -211.12098 
L 128.681676 -217.352101 
L 126.978636 -222.622016 
L 125.275596 -226.708897 
L 123.572556 -229.674304 
L 121.869516 -230.657991 
L 120.166476 -228.751868 
L 118.463436 -224.082292 
L 116.760396 -218.945859 
L 115.057356 -215.848953 
L 113.354315 -216.114256 
L 111.651275 -219.342257 
L 109.948235 -222.467432 
L 108.245195 -223.003841 
L 106.542155 -220.510975 
L 104.839115 -217.559523 
L 103.136075 -217.318058 
L 101.433035 -220.793392 
L 99.729995 -226.545711 
L 98.026955 -231.622355 
L 96.323915 -233.766671 
L 94.620875 -232.587231 
L 92.917835 -230.301338 
L 91.214795 -230.273269 
L 89.511755 -233.51803 
L 87.808714 -238.110714 
L 86.105674 -239.830119 
L 84.402634 -235.589242 
L 82.699594 -225.662361 
L 80.996554 -213.392837 
L 79.293514 -204.15754 
L 77.590474 -201.906168 
L 75.887434 -207.522945 
L 74.184394 -217.445909 
L 72.481354 -226.851265 
L 70.778314 -231.512353 
L 69.075274 -230.495592 
L 67.372234 -225.9905 
L 65.669194 -222.152424 
L 63.966154 -221.779999 
L 62.263113 -225.533721 
L 60.560073 -231.296653 
L 58.857033 -235.801473 
L 57.153993 -237.073482 
L 55.450953 -235.097588 
L 53.747913 -232.175468 
L 52.044873 -230.51244 
L 50.341833 -231.503521 
L 48.638793 -234.500026 
L 46.935753 -237.404501 
L 45.232713 -238.472527 
L 43.529673 -236.974714 
L 41.826633 -233.906948 
L 40.123593 -230.416931 
L 38.420552 -227.490645 
z
" style="stroke: #ff7f0e; stroke-opacity: 0.3"/>
    </defs>
    <g>
     <use xlink:href="#m6e5ecc63b6" x="0" y="432" style="fill: #ff7f0e; fill-opacity: 0.3; stroke: #ff7f0e; stroke-opacity: 0.3"/>
    </g>
   </g>
   <g id="line2d_17">
    <path d="M 38.420552 199.589075 
L 40.123593 206.562094 
L 43.529673 227.027401 
L 45.232713 231.079429 
L 46.935753 226.169182 
L 48.638793 215.029326 
L 50.341833 204.777388 
L 52.044873 201.929059 
L 53.747913 207.581895 
L 55.450953 216.593887 
L 57.153993 221.635557 
L 58.857033 218.964373 
L 60.560073 211.404776 
L 62.263113 206.184341 
L 63.966154 209.354959 
L 65.669194 221.008081 
L 67.372234 235.013961 
L 69.075274 243.284728 
L 70.778314 241.278583 
L 72.481354 230.667394 
L 74.184394 217.369335 
L 75.887434 207.015944 
L 77.590474 201.439753 
L 80.996554 195.996193 
L 82.699594 192.820345 
L 84.402634 191.132332 
L 86.105674 192.746525 
L 87.808714 196.44773 
L 89.511755 197.642724 
L 91.214795 191.52782 
L 92.917835 177.552413 
L 94.620875 161.539282 
L 96.323915 153.1207 
L 98.026955 159.674128 
L 99.729995 180.593205 
L 101.433035 206.413408 
L 103.136075 224.001443 
L 104.839115 224.626908 
L 106.542155 209.846367 
L 108.245195 191.009548 
L 109.948235 182.295644 
L 111.651275 191.70997 
L 113.354315 215.926885 
L 115.057356 242.387341 
L 116.760396 257.150266 
L 118.463436 253.282116 
L 120.166476 234.316361 
L 121.869516 210.775898 
L 123.572556 192.617227 
L 125.275596 183.253663 
L 126.978636 179.21031 
L 128.681676 174.750002 
L 132.087756 160.563793 
L 133.790796 158.965029 
L 135.493836 164.679385 
L 137.196876 173.745831 
L 138.899916 178.734547 
L 140.602957 174.631891 
L 144.009037 152.039339 
L 145.712077 148.748835 
L 147.415117 154.953897 
L 149.118157 164.869055 
L 150.821197 170.002886 
L 152.524237 166.375209 
L 154.227277 158.116655 
L 155.930317 154.532596 
L 157.633357 162.720209 
L 159.336397 181.688216 
L 161.039437 202.783064 
L 162.742477 216.05396 
L 164.445517 217.900217 
L 166.148558 213.679485 
L 167.851598 213.452799 
L 169.554638 224.089245 
L 172.960718 263.714572 
L 174.663758 273.458861 
L 176.366798 268.621473 
L 178.069838 252.48954 
L 179.772878 232.607274 
L 181.475918 215.233815 
L 183.178958 202.08478 
L 186.585038 181.301626 
L 188.288078 172.335387 
L 189.991118 166.47169 
L 191.694159 164.427209 
L 193.397199 163.975649 
L 195.100239 161.247853 
L 196.803279 154.026153 
L 198.506319 144.137007 
L 200.209359 136.538837 
L 201.912399 135.595377 
L 203.615439 141.513525 
L 205.318479 149.854856 
L 207.021519 154.723174 
L 208.724559 153.163363 
L 210.427599 147.310084 
L 212.130639 142.833352 
L 213.833679 144.799201 
L 215.536719 154.267792 
L 217.23976 167.850233 
L 218.9428 180.211316 
L 220.64584 187.456991 
L 222.34888 188.802426 
L 224.05192 185.833161 
L 225.75496 180.451693 
L 227.458 173.478277 
L 229.16104 164.878836 
L 232.56712 145.412802 
L 234.27016 137.949813 
L 235.9732 133.590907 
L 239.37928 129.228997 
L 241.08232 125.639769 
L 242.785361 121.525929 
L 244.488401 119.99961 
L 246.191441 124.162888 
L 247.894481 134.462203 
L 249.597521 147.706176 
L 251.300561 158.546479 
L 253.003601 162.960065 
L 254.706641 161.345151 
L 256.409681 158.606766 
L 258.112721 160.986845 
L 259.815761 171.680708 
L 261.518801 188.136826 
L 263.221841 203.210184 
L 264.924881 209.752949 
L 266.627921 205.413321 
L 268.330962 194.632801 
L 270.034002 186.079327 
L 271.737042 187.119002 
L 273.440082 199.079749 
L 275.143122 216.503922 
L 276.846162 230.764885 
L 278.549202 235.614495 
L 280.252242 230.936029 
L 281.955282 222.276647 
L 283.658322 216.815979 
L 285.361362 218.756405 
L 287.064402 227.308642 
L 288.767442 238.124223 
L 290.470482 246.689363 
L 292.173522 251.031107 
L 293.876563 251.971743 
L 295.579603 251.245118 
L 297.282643 249.634419 
L 298.985683 246.810515 
L 300.688723 242.788676 
L 302.391763 239.246148 
L 304.094803 239.081443 
L 305.797843 244.000134 
L 307.500883 252.003923 
L 309.203923 257.204901 
L 310.906963 252.888657 
L 312.610003 236.205507 
L 316.016083 186.508912 
L 317.719123 172.071502 
L 319.422164 171.679991 
L 321.125204 181.640822 
L 322.828244 193.28573 
L 324.531284 198.653565 
L 326.234324 195.149708 
L 329.640404 176.735898 
L 331.343444 170.371004 
L 333.046484 165.642562 
L 334.749524 159.117157 
L 336.452564 149.256644 
L 338.155604 138.702119 
L 339.858644 132.754373 
L 341.561684 134.986412 
L 344.967765 152.367345 
L 346.670805 153.61237 
L 348.373845 144.64169 
L 350.076885 129.191684 
L 351.779925 114.978435 
L 353.482965 108.427614 
L 355.186005 110.615902 
L 356.889045 117.40543 
L 358.592085 123.162624 
L 360.295125 125.094576 
L 361.998165 124.638818 
L 363.701205 125.169277 
L 365.404245 128.278044 
L 367.107285 131.871912 
L 368.810326 131.944954 
L 370.513366 126.438127 
L 372.216406 117.968315 
L 373.919446 112.998608 
L 375.622486 117.407108 
L 377.325526 131.704006 
L 379.028566 149.62265 
L 380.731606 161.528814 
L 382.434646 160.637026 
L 384.137686 147.615217 
L 385.840726 130.414999 
L 387.543766 119.220536 
L 389.246806 119.801474 
L 390.949846 129.84268 
L 392.652886 140.741051 
L 394.355927 143.616692 
L 396.058967 135.456852 
L 397.762007 121.064541 
L 399.465047 109.556172 
L 401.168087 108.099058 
L 402.871127 117.104862 
L 404.574167 130.292606 
L 406.277207 139.014379 
L 407.980247 137.774553 
L 409.683287 127.012652 
L 413.089367 96.715801 
L 414.792407 85.229218 
L 416.495447 77.30433 
L 418.198487 72.628511 
L 419.901528 72.221541 
L 421.604568 77.740247 
L 423.307608 88.801733 
L 425.010648 101.03645 
L 426.713688 107.289571 
L 428.416728 101.992463 
L 430.119768 85.692229 
L 431.822808 66.111006 
L 433.525848 54.259984 
L 435.228888 57.855636 
L 436.931928 76.39385 
L 438.634968 101.299183 
L 440.338008 121.163021 
L 442.041048 128.544629 
L 443.744088 123.850716 
L 445.447129 114.030028 
L 447.150169 107.405121 
L 448.853209 108.323561 
L 452.259289 122.050037 
L 453.962329 123.799481 
L 455.665369 118.691344 
L 459.071449 100.572962 
L 460.774489 95.840991 
L 462.477529 95.691621 
L 464.180569 97.912523 
L 465.883609 99.592098 
L 467.586649 99.230148 
L 469.289689 97.510887 
L 470.99273 96.475868 
L 472.69577 97.663131 
L 474.39881 100.718328 
L 476.10185 103.279677 
L 477.80489 102.281 
L 479.50793 95.9289 
L 481.21097 85.150657 
L 482.91401 73.455872 
L 484.61705 65.368345 
L 486.32009 64.215615 
L 488.02313 70.517241 
L 491.42921 93.575635 
L 493.13225 102.105448 
L 494.83529 105.526711 
L 496.538331 104.627528 
L 498.241371 101.618788 
L 501.647451 94.969597 
L 503.350491 90.271994 
L 505.053531 83.110262 
L 506.756571 74.470957 
L 508.459611 68.042027 
L 510.162651 68.562039 
L 511.865691 78.547428 
L 515.271771 112.058927 
L 516.974811 119.212313 
L 518.677851 111.994075 
L 520.380891 92.968052 
L 522.083932 71.48823 
L 523.786972 58.379429 
L 525.490012 59.212835 
L 528.896092 82.983507 
L 530.599132 85.985961 
L 532.302172 76.38112 
L 534.005212 59.47637 
L 535.708252 45.357559 
L 537.411292 41.773866 
L 539.114332 49.166536 
L 540.817372 61.122629 
L 542.520412 69.517965 
L 544.223452 70.369509 
L 545.926492 65.98261 
L 547.629533 62.07785 
L 549.332573 62.555453 
L 551.035613 66.253721 
L 552.738653 68.277742 
L 554.441693 64.656508 
L 556.144733 56.366224 
L 557.847773 49.194861 
L 559.550813 49.532925 
L 561.253853 59.162155 
L 561.253853 59.162155 
" style="fill: none; stroke: #1f77b4; stroke-width: 1.5; stroke-linecap: square"/>
   </g>
   <g id="line2d_18">
    <path d="M 38.420552 208.438446 
L 40.123593 205.502643 
L 41.826633 201.768279 
L 43.529673 198.43954 
L 45.232713 196.931226 
L 46.935753 197.965033 
L 50.341833 203.790001 
L 52.044873 204.724094 
L 53.747913 203.043077 
L 55.450953 200.022065 
L 57.153993 198.132185 
L 58.857033 199.382176 
L 60.560073 203.852871 
L 62.263113 209.411343 
L 63.966154 212.978986 
L 65.669194 212.551757 
L 67.372234 208.658662 
L 69.075274 204.32293 
L 70.778314 203.361529 
L 72.481354 208.008826 
L 74.184394 217.295099 
L 75.887434 227.237333 
L 77.590474 232.823737 
L 79.293514 230.815948 
L 80.996554 221.656556 
L 82.699594 209.337177 
L 84.402634 199.198501 
L 86.105674 194.928464 
L 87.808714 196.627757 
L 89.511755 201.149126 
L 91.214795 204.489901 
L 92.917835 204.552413 
L 94.620875 202.369554 
L 96.323915 201.015352 
L 98.026955 203.046654 
L 99.729995 208.402534 
L 101.433035 214.444851 
L 103.136075 217.917483 
L 104.839115 217.452187 
L 106.542155 214.532342 
L 108.245195 212.260052 
L 109.948235 212.893372 
L 113.354315 219.300219 
L 115.057356 219.764741 
L 116.760396 216.606591 
L 118.463436 211.370866 
L 120.166476 206.753868 
L 121.869516 204.764883 
L 123.572556 205.74921 
L 125.275596 208.850855 
L 126.978636 213.203429 
L 128.681676 218.562485 
L 132.087756 230.593628 
L 133.790796 233.9359 
L 135.493836 232.770366 
L 137.196876 227.138127 
L 138.899916 219.852543 
L 140.602957 215.230492 
L 142.305997 216.387229 
L 144.009037 223.132763 
L 145.712077 232.027323 
L 147.415117 238.730674 
L 149.118157 240.89491 
L 150.821197 239.380598 
L 152.524237 237.020236 
L 154.227277 236.022032 
L 155.930317 236.172552 
L 157.633357 235.407871 
L 159.336397 232.228606 
L 161.039437 227.828525 
L 162.742477 226.098573 
L 164.445517 231.139936 
L 166.148558 244.184555 
L 169.554638 279.467316 
L 171.257678 290.913435 
L 172.960718 294.916149 
L 174.663758 293.570043 
L 178.069838 287.195668 
L 179.772878 282.725594 
L 181.475918 273.64992 
L 183.178958 257.469033 
L 184.881998 234.835663 
L 186.585038 209.697448 
L 188.288078 187.183969 
L 189.991118 170.791639 
L 191.694159 160.806085 
L 193.397199 154.870455 
L 196.803279 145.310886 
L 198.506319 141.242321 
L 200.209359 139.875917 
L 201.912399 142.605498 
L 203.615439 149.222354 
L 207.021519 167.16838 
L 208.724559 175.162944 
L 210.427599 181.770574 
L 212.130639 187.306067 
L 213.833679 192.057526 
L 215.536719 196.00231 
L 217.23976 199.022381 
L 220.64584 203.546058 
L 222.34888 206.530829 
L 224.05192 210.750396 
L 227.458 221.198844 
L 229.16104 225.178903 
L 230.86408 226.682378 
L 232.56712 224.979526 
L 234.27016 220.060962 
L 235.9732 212.74844 
L 237.67624 204.598268 
L 239.37928 197.498516 
L 241.08232 193.081765 
L 242.785361 192.036079 
L 244.488401 193.78511 
L 246.191441 196.82151 
L 247.894481 199.528754 
L 249.597521 201.0557 
L 251.300561 201.717677 
L 253.003601 202.689497 
L 254.706641 205.256125 
L 256.409681 210.140462 
L 258.112721 217.300659 
L 259.815761 226.1262 
L 263.221841 245.096308 
L 264.924881 253.046995 
L 266.627921 258.517724 
L 268.330962 261.110723 
L 270.034002 261.567048 
L 271.737042 261.710747 
L 273.440082 263.427469 
L 275.143122 267.278548 
L 276.846162 271.700422 
L 278.549202 273.650722 
L 280.252242 270.588265 
L 281.955282 262.514636 
L 283.658322 252.578204 
L 285.361362 245.523869 
L 287.064402 244.780089 
L 288.767442 250.106896 
L 290.470482 257.4626 
L 292.173522 261.384072 
L 293.876563 258.407988 
L 295.579603 249.203562 
L 297.282643 238.024859 
L 298.985683 229.914031 
L 300.688723 227.559432 
L 302.391763 229.76607 
L 304.094803 232.463961 
L 305.797843 231.327735 
L 307.500883 224.356322 
L 310.906963 200.77712 
L 312.610003 192.149993 
L 314.313043 189.643414 
L 316.016083 193.254115 
L 319.422164 207.978837 
L 321.125204 212.069155 
L 322.828244 211.196369 
L 324.531284 206.20105 
L 326.234324 200.119006 
L 327.937364 196.7859 
L 329.640404 198.847439 
L 331.343444 206.162581 
L 333.046484 215.73355 
L 334.749524 223.27599 
L 336.452564 225.683846 
L 338.155604 222.757972 
L 339.858644 217.160054 
L 341.561684 212.5798 
L 343.264724 211.332065 
L 344.967765 213.00564 
L 346.670805 214.993444 
L 348.373845 214.551264 
L 350.076885 210.813767 
L 351.779925 205.371118 
L 353.482965 201.148458 
L 355.186005 200.448891 
L 356.889045 203.546178 
L 358.592085 208.731954 
L 360.295125 213.489354 
L 361.998165 215.980534 
L 363.701205 215.695921 
L 365.404245 213.122958 
L 367.107285 208.975155 
L 368.810326 203.792717 
L 372.216406 192.789458 
L 373.919446 188.908544 
L 375.622486 187.171987 
L 379.028566 187.112635 
L 380.731606 185.114612 
L 382.434646 180.219694 
L 384.137686 173.515237 
L 385.840726 167.650008 
L 387.543766 165.106359 
L 389.246806 166.446051 
L 390.949846 169.701904 
L 392.652886 171.499873 
L 394.355927 169.182214 
L 396.058967 162.53793 
L 397.762007 153.975251 
L 399.465047 147.086325 
L 401.168087 144.648967 
L 402.871127 147.239077 
L 406.277207 159.269571 
L 407.980247 162.761193 
L 409.683287 161.706613 
L 411.386327 155.75764 
L 413.089367 146.117049 
L 414.792407 135.26998 
L 416.495447 126.260458 
L 418.198487 121.559614 
L 419.901528 121.818865 
L 423.307608 128.892768 
L 425.010648 129.515974 
L 426.713688 126.463081 
L 428.416728 121.704607 
L 430.119768 118.529376 
L 431.822808 119.071533 
L 433.525848 122.59493 
L 435.228888 125.842414 
L 436.931928 125.374754 
L 438.634968 120.282034 
L 440.338008 113.206054 
L 442.041048 108.852879 
L 443.744088 110.863662 
L 445.447129 119.247198 
L 447.150169 130.159399 
L 448.853209 138.177364 
L 450.556249 139.609169 
L 452.259289 134.630282 
L 453.962329 126.968975 
L 455.665369 121.432818 
L 457.368409 120.999269 
L 459.071449 125.308259 
L 460.774489 131.214025 
L 462.477529 134.897177 
L 464.180569 134.064641 
L 465.883609 129.063935 
L 467.586649 122.369712 
L 469.289689 116.938092 
L 470.99273 114.541229 
L 472.69577 114.927047 
L 474.39881 116.258015 
L 476.10185 116.441673 
L 477.80489 114.438353 
L 481.21097 107.372427 
L 482.91401 105.472527 
L 484.61705 105.346121 
L 486.32009 105.85007 
L 488.02313 105.528259 
L 491.42921 102.353315 
L 493.13225 102.721016 
L 494.83529 106.410367 
L 498.241371 118.914097 
L 499.944411 121.736343 
L 501.647451 119.499992 
L 503.350491 113.307834 
L 505.053531 106.521072 
L 506.756571 102.850293 
L 508.459611 104.163198 
L 510.162651 109.478094 
L 511.865691 115.629556 
L 513.568731 119.06683 
L 515.271771 117.782994 
L 516.974811 112.237366 
L 518.677851 104.883102 
L 520.380891 98.670768 
L 522.083932 95.448934 
L 523.786972 95.099795 
L 525.490012 95.863282 
L 527.193052 95.596189 
L 528.896092 93.236437 
L 530.599132 89.463803 
L 532.302172 86.191974 
L 534.005212 85.154464 
L 535.708252 86.553267 
L 537.411292 88.775347 
L 539.114332 89.398559 
L 540.817372 86.939609 
L 544.223452 76.87421 
L 545.926492 73.892771 
L 547.629533 73.619092 
L 549.332573 74.487304 
L 551.035613 74.247735 
L 552.738653 72.039372 
L 554.441693 69.449121 
L 556.144733 69.592822 
L 557.847773 74.696586 
L 561.253853 93.948904 
L 561.253853 93.948904 
" style="fill: none; stroke: #ff7f0e; stroke-width: 1.5; stroke-linecap: square"/>
   </g>
  </g>
  <g id="axes_2">
   <g id="PathCollection_1">
    <defs>
     <path id="C0_0_333f03a370" d="M 0 1.118034 
C 0.296506 1.118034 0.580908 1.000231 0.790569 0.790569 
C 1.000231 0.580908 1.118034 0.296506 1.118034 -0 
C 1.118034 -0.296506 1.000231 -0.580908 0.790569 -0.790569 
C 0.580908 -1.000231 0.296506 -1.118034 0 -1.118034 
C -0.296506 -1.118034 -0.580908 -1.000231 -0.790569 -0.790569 
C -1.000231 -0.580908 -1.118034 -0.296506 -1.118034 0 
C -1.118034 0.296506 -1.000231 0.580908 -0.790569 0.790569 
C -0.580908 1.000231 -0.296506 1.118034 0 1.118034 
z
"/>
    </defs>
    <g clip-path="url(#paf11371b61)">
     <use xlink:href="#C0_0_333f03a370" x="483.606467" y="47.302868" style="stroke: #000000"/>
    </g>
    <g clip-path="url(#paf11371b61)">
     <use xlink:href="#C0_0_333f03a370" x="493.752343" y="47.290514" style="stroke: #000000"/>
    </g>
   </g>
   <g id="matplotlib.axis_3"/>
   <g id="matplotlib.axis_4"/>
   <g id="line2d_19">
    <path d="M 548.860571 73.636212 
L 548.782898 71.164606 
L 548.550185 68.702755 
L 548.163349 66.260375 
L 547.623919 63.847103 
L 546.934023 61.472464 
L 546.096383 59.14583 
L 545.114306 56.876383 
L 543.991666 54.673079 
L 542.732896 52.544615 
L 541.342962 50.499389 
L 539.82735 48.545473 
L 538.192041 46.690579 
L 536.443489 44.942028 
L 534.588595 43.306719 
L 532.63468 41.791107 
L 530.589454 40.401173 
L 528.460989 39.142402 
L 526.257685 38.019763 
L 523.988238 37.037685 
L 521.661605 36.200045 
L 519.286966 35.510149 
L 516.873694 34.970719 
L 514.431313 34.583884 
L 511.969462 34.35117 
L 509.497857 34.273497 
L 507.026251 34.35117 
L 504.5644 34.583884 
L 502.12202 34.970719 
L 499.708748 35.510149 
L 497.334109 36.200045 
L 495.007475 37.037685 
L 492.738028 38.019763 
L 490.534724 39.142402 
L 488.40626 40.401173 
L 486.361034 41.791107 
L 484.407118 43.306719 
L 482.552224 44.942028 
L 480.803673 46.690579 
L 479.168364 48.545473 
L 477.652752 50.499389 
L 476.262818 52.544615 
L 475.004047 54.673079 
L 473.881408 56.876383 
L 472.89933 59.14583 
L 472.061691 61.472464 
L 471.371794 63.847103 
L 470.832364 66.260375 
L 470.445529 68.702755 
L 470.212815 71.164606 
L 470.135142 73.636212 
L 470.212815 76.107817 
L 470.445529 78.569668 
L 470.832364 81.012049 
L 471.371794 83.425321 
L 472.061691 85.799959 
L 472.89933 88.126593 
L 473.881408 90.39604 
L 475.004047 92.599344 
L 476.262818 94.727809 
L 477.652752 96.773035 
L 479.168364 98.72695 
L 480.803673 100.581844 
L 482.552224 102.330396 
L 484.407118 103.965705 
L 486.361034 105.481317 
L 488.40626 106.871251 
L 490.534724 108.130021 
L 492.738028 109.252661 
L 495.007475 110.234738 
L 497.334109 111.072378 
L 499.708748 111.762274 
L 502.12202 112.301704 
L 504.5644 112.68854 
L 507.026251 112.921253 
L 509.497857 112.998926 
L 511.969462 112.921253 
L 514.431313 112.68854 
L 516.873694 112.301704 
L 519.286966 111.762274 
L 521.661605 111.072378 
L 523.988238 110.234738 
L 526.257685 109.252661 
L 528.460989 108.130021 
L 530.589454 106.871251 
L 532.63468 105.481317 
L 534.588595 103.965705 
L 536.443489 102.330396 
L 538.192041 100.581844 
L 539.82735 98.72695 
L 541.342962 96.773035 
L 542.732896 94.727809 
L 543.991666 92.599344 
L 545.114306 90.39604 
L 546.096383 88.126593 
L 546.934023 85.799959 
L 547.623919 83.425321 
L 548.163349 81.012049 
L 548.550185 78.569668 
L 548.782898 76.107817 
L 548.860571 73.636212 
" style="fill: none; stroke: #000000; stroke-linecap: square"/>
   </g>
   <g id="line2d_20">
    <path d="M 501.253749 35.146499 
L 509.497857 28.36909 
L 517.741964 35.146499 
" style="fill: none; stroke: #000000; stroke-linecap: square"/>
   </g>
   <g id="line2d_21">
    <path d="M 470.371318 69.26695 
L 469.347888 67.534991 
L 468.718084 67.472011 
L 467.781252 67.763295 
L 466.836547 69.26695 
L 466.986125 74.069202 
L 466.435047 80.973422 
L 467.615928 83.972861 
L 469.347888 84.531811 
L 471.001122 83.075391 
" style="fill: none; stroke: #000000; stroke-linecap: square"/>
   </g>
   <g id="line2d_22">
    <path d="M 548.624395 69.26695 
L 549.647826 67.534991 
L 550.277629 67.472011 
L 551.214462 67.763295 
L 552.159167 69.26695 
L 552.009589 74.069202 
L 552.560667 80.973422 
L 551.379785 83.972861 
L 549.647826 84.531811 
L 547.994592 83.075391 
" style="fill: none; stroke: #000000; stroke-linecap: square"/>
   </g>
  </g>
 </g>
 <defs>
  <clipPath id="pbaca45c23a">
   <rect x="38.420552" y="18.118365" width="523.446395" height="380.525145"/>
  </clipPath>
  <clipPath id="paf11371b61">
   <rect x="462.128766" y="24.137598" width="94.738182" height="93.09282"/>
  </clipPath>
 </defs>
</svg>
