<?xml version="1.0" encoding="utf-8" standalone="no"?>
<!DOCTYPE svg PUBLIC "-//W3C//DTD SVG 1.1//EN"
  "http://www.w3.org/Graphics/SVG/1.1/DTD/svg11.dtd">
<svg xmlns:xlink="http://www.w3.org/1999/xlink" width="576pt" height="432pt" viewBox="0 0 576 432" xmlns="http://www.w3.org/2000/svg" version="1.1">
 <metadata>
  <rdf:RDF xmlns:dc="http://purl.org/dc/elements/1.1/" xmlns:cc="http://creativecommons.org/ns#" xmlns:rdf="http://www.w3.org/1999/02/22-rdf-syntax-ns#">
   <cc:Work>
    <dc:type rdf:resource="http://purl.org/dc/dcmitype/StillImage"/>
    <dc:date>2025-02-14T14:30:57.859883</dc:date>
    <dc:format>image/svg+xml</dc:format>
    <dc:creator>
     <cc:Agent>
      <dc:title>Matplotlib v3.10.0, https://matplotlib.org/</dc:title>
     </cc:Agent>
    </dc:creator>
   </cc:Work>
  </rdf:RDF>
 </metadata>
 <defs>
  <style type="text/css">*{stroke-linejoin: round; stroke-linecap: butt}</style>
 </defs>
 <g id="figure_1">
  <g id="patch_1">
   <path d="M 0 432 
L 576 432 
L 576 0 
L 0 0 
z
" style="fill: #ffffff"/>
  </g>
  <g id="axes_1">
   <g id="patch_2">
    <path d="M 44.783053 398.64351 
L 572.99976 398.64351 
L 572.99976 18.118365 
L 44.783053 18.118365 
L 44.783053 398.64351 
z
" style="fill: none; opacity: 0"/>
   </g>
   <g id="patch_3">
    <path d="M 44.783053 376.519057 
L 44.783053 40.242818 
" style="fill: none; stroke: #000000; stroke-width: 0.8; stroke-linejoin: miter; stroke-linecap: square"/>
   </g>
   <g id="LineCollection_1">
    <path d="M 335.14739 18.118365 
L 335.14739 398.64351 
" clip-path="url(#p92dc91c5dc)" style="fill: none; stroke-dasharray: 3.7,1.6; stroke-dashoffset: 0; stroke: #000000"/>
    <path d="M 423.24086 18.118365 
L 423.24086 398.64351 
" clip-path="url(#p92dc91c5dc)" style="fill: none; stroke-dasharray: 3.7,1.6; stroke-dashoffset: 0; stroke: #000000"/>
   </g>
   <g id="matplotlib.axis_1">
    <g id="xtick_1">
     <g id="line2d_1">
      <defs>
       <path id="ma0a71abff8" d="M 0 0 
L 0 3.5 
" style="stroke: #000000; stroke-width: 0.8"/>
      </defs>
      <g>
       <use xlink:href="#ma0a71abff8" x="70.866979" y="398.64351" style="stroke: #000000; stroke-width: 0.8"/>
      </g>
     </g>
     <g id="text_1">
      <!-- −0.2 -->
      <g transform="translate(58.725572 413.241947) scale(0.1 -0.1)">
       <defs>
        <path id="DejaVuSans-2212" d="M 678 2272 
L 4684 2272 
L 4684 1741 
L 678 1741 
L 678 2272 
z
" transform="scale(0.015625)"/>
        <path id="DejaVuSans-30" d="M 2034 4250 
Q 1547 4250 1301 3770 
Q 1056 3291 1056 2328 
Q 1056 1369 1301 889 
Q 1547 409 2034 409 
Q 2525 409 2770 889 
Q 3016 1369 3016 2328 
Q 3016 3291 2770 3770 
Q 2525 4250 2034 4250 
z
M 2034 4750 
Q 2819 4750 3233 4129 
Q 3647 3509 3647 2328 
Q 3647 1150 3233 529 
Q 2819 -91 2034 -91 
Q 1250 -91 836 529 
Q 422 1150 422 2328 
Q 422 3509 836 4129 
Q 1250 4750 2034 4750 
z
" transform="scale(0.015625)"/>
        <path id="DejaVuSans-2e" d="M 684 794 
L 1344 794 
L 1344 0 
L 684 0 
L 684 794 
z
" transform="scale(0.015625)"/>
        <path id="DejaVuSans-32" d="M 1228 531 
L 3431 531 
L 3431 0 
L 469 0 
L 469 531 
Q 828 903 1448 1529 
Q 2069 2156 2228 2338 
Q 2531 2678 2651 2914 
Q 2772 3150 2772 3378 
Q 2772 3750 2511 3984 
Q 2250 4219 1831 4219 
Q 1534 4219 1204 4116 
Q 875 4013 500 3803 
L 500 4441 
Q 881 4594 1212 4672 
Q 1544 4750 1819 4750 
Q 2544 4750 2975 4387 
Q 3406 4025 3406 3419 
Q 3406 3131 3298 2873 
Q 3191 2616 2906 2266 
Q 2828 2175 2409 1742 
Q 1991 1309 1228 531 
z
" transform="scale(0.015625)"/>
       </defs>
       <use xlink:href="#DejaVuSans-2212"/>
       <use xlink:href="#DejaVuSans-30" transform="translate(83.789062 0)"/>
       <use xlink:href="#DejaVuSans-2e" transform="translate(147.412109 0)"/>
       <use xlink:href="#DejaVuSans-32" transform="translate(179.199219 0)"/>
      </g>
     </g>
    </g>
    <g id="xtick_2">
     <g id="line2d_2">
      <g>
       <use xlink:href="#ma0a71abff8" x="158.960449" y="398.64351" style="stroke: #000000; stroke-width: 0.8"/>
      </g>
     </g>
     <g id="text_2">
      <!-- 0.0 -->
      <g transform="translate(151.008886 413.241947) scale(0.1 -0.1)">
       <use xlink:href="#DejaVuSans-30"/>
       <use xlink:href="#DejaVuSans-2e" transform="translate(63.623047 0)"/>
       <use xlink:href="#DejaVuSans-30" transform="translate(95.410156 0)"/>
      </g>
     </g>
    </g>
    <g id="xtick_3">
     <g id="line2d_3">
      <g>
       <use xlink:href="#ma0a71abff8" x="247.053919" y="398.64351" style="stroke: #000000; stroke-width: 0.8"/>
      </g>
     </g>
     <g id="text_3">
      <!-- 0.2 -->
      <g transform="translate(239.102357 413.241947) scale(0.1 -0.1)">
       <use xlink:href="#DejaVuSans-30"/>
       <use xlink:href="#DejaVuSans-2e" transform="translate(63.623047 0)"/>
       <use xlink:href="#DejaVuSans-32" transform="translate(95.410156 0)"/>
      </g>
     </g>
    </g>
    <g id="xtick_4">
     <g id="line2d_4">
      <g>
       <use xlink:href="#ma0a71abff8" x="335.14739" y="398.64351" style="stroke: #000000; stroke-width: 0.8"/>
      </g>
     </g>
     <g id="text_4">
      <!-- 0.4 -->
      <g transform="translate(327.195827 413.241947) scale(0.1 -0.1)">
       <defs>
        <path id="DejaVuSans-34" d="M 2419 4116 
L 825 1625 
L 2419 1625 
L 2419 4116 
z
M 2253 4666 
L 3047 4666 
L 3047 1625 
L 3713 1625 
L 3713 1100 
L 3047 1100 
L 3047 0 
L 2419 0 
L 2419 1100 
L 313 1100 
L 313 1709 
L 2253 4666 
z
" transform="scale(0.015625)"/>
       </defs>
       <use xlink:href="#DejaVuSans-30"/>
       <use xlink:href="#DejaVuSans-2e" transform="translate(63.623047 0)"/>
       <use xlink:href="#DejaVuSans-34" transform="translate(95.410156 0)"/>
      </g>
     </g>
    </g>
    <g id="xtick_5">
     <g id="line2d_5">
      <g>
       <use xlink:href="#ma0a71abff8" x="423.24086" y="398.64351" style="stroke: #000000; stroke-width: 0.8"/>
      </g>
     </g>
     <g id="text_5">
      <!-- 0.6 -->
      <g transform="translate(415.289298 413.241947) scale(0.1 -0.1)">
       <defs>
        <path id="DejaVuSans-36" d="M 2113 2584 
Q 1688 2584 1439 2293 
Q 1191 2003 1191 1497 
Q 1191 994 1439 701 
Q 1688 409 2113 409 
Q 2538 409 2786 701 
Q 3034 994 3034 1497 
Q 3034 2003 2786 2293 
Q 2538 2584 2113 2584 
z
M 3366 4563 
L 3366 3988 
Q 3128 4100 2886 4159 
Q 2644 4219 2406 4219 
Q 1781 4219 1451 3797 
Q 1122 3375 1075 2522 
Q 1259 2794 1537 2939 
Q 1816 3084 2150 3084 
Q 2853 3084 3261 2657 
Q 3669 2231 3669 1497 
Q 3669 778 3244 343 
Q 2819 -91 2113 -91 
Q 1303 -91 875 529 
Q 447 1150 447 2328 
Q 447 3434 972 4092 
Q 1497 4750 2381 4750 
Q 2619 4750 2861 4703 
Q 3103 4656 3366 4563 
z
" transform="scale(0.015625)"/>
       </defs>
       <use xlink:href="#DejaVuSans-30"/>
       <use xlink:href="#DejaVuSans-2e" transform="translate(63.623047 0)"/>
       <use xlink:href="#DejaVuSans-36" transform="translate(95.410156 0)"/>
      </g>
     </g>
    </g>
    <g id="xtick_6">
     <g id="line2d_6">
      <g>
       <use xlink:href="#ma0a71abff8" x="511.334331" y="398.64351" style="stroke: #000000; stroke-width: 0.8"/>
      </g>
     </g>
     <g id="text_6">
      <!-- 0.8 -->
      <g transform="translate(503.382768 413.241947) scale(0.1 -0.1)">
       <defs>
        <path id="DejaVuSans-38" d="M 2034 2216 
Q 1584 2216 1326 1975 
Q 1069 1734 1069 1313 
Q 1069 891 1326 650 
Q 1584 409 2034 409 
Q 2484 409 2743 651 
Q 3003 894 3003 1313 
Q 3003 1734 2745 1975 
Q 2488 2216 2034 2216 
z
M 1403 2484 
Q 997 2584 770 2862 
Q 544 3141 544 3541 
Q 544 4100 942 4425 
Q 1341 4750 2034 4750 
Q 2731 4750 3128 4425 
Q 3525 4100 3525 3541 
Q 3525 3141 3298 2862 
Q 3072 2584 2669 2484 
Q 3125 2378 3379 2068 
Q 3634 1759 3634 1313 
Q 3634 634 3220 271 
Q 2806 -91 2034 -91 
Q 1263 -91 848 271 
Q 434 634 434 1313 
Q 434 1759 690 2068 
Q 947 2378 1403 2484 
z
M 1172 3481 
Q 1172 3119 1398 2916 
Q 1625 2713 2034 2713 
Q 2441 2713 2670 2916 
Q 2900 3119 2900 3481 
Q 2900 3844 2670 4047 
Q 2441 4250 2034 4250 
Q 1625 4250 1398 4047 
Q 1172 3844 1172 3481 
z
" transform="scale(0.015625)"/>
       </defs>
       <use xlink:href="#DejaVuSans-30"/>
       <use xlink:href="#DejaVuSans-2e" transform="translate(63.623047 0)"/>
       <use xlink:href="#DejaVuSans-38" transform="translate(95.410156 0)"/>
      </g>
     </g>
    </g>
    <g id="text_7">
     <!-- Time (s) -->
     <g transform="translate(288.5625 426.920073) scale(0.1 -0.1)">
      <defs>
       <path id="DejaVuSans-54" d="M -19 4666 
L 3928 4666 
L 3928 4134 
L 2272 4134 
L 2272 0 
L 1638 0 
L 1638 4134 
L -19 4134 
L -19 4666 
z
" transform="scale(0.015625)"/>
       <path id="DejaVuSans-69" d="M 603 3500 
L 1178 3500 
L 1178 0 
L 603 0 
L 603 3500 
z
M 603 4863 
L 1178 4863 
L 1178 4134 
L 603 4134 
L 603 4863 
z
" transform="scale(0.015625)"/>
       <path id="DejaVuSans-6d" d="M 3328 2828 
Q 3544 3216 3844 3400 
Q 4144 3584 4550 3584 
Q 5097 3584 5394 3201 
Q 5691 2819 5691 2113 
L 5691 0 
L 5113 0 
L 5113 2094 
Q 5113 2597 4934 2840 
Q 4756 3084 4391 3084 
Q 3944 3084 3684 2787 
Q 3425 2491 3425 1978 
L 3425 0 
L 2847 0 
L 2847 2094 
Q 2847 2600 2669 2842 
Q 2491 3084 2119 3084 
Q 1678 3084 1418 2786 
Q 1159 2488 1159 1978 
L 1159 0 
L 581 0 
L 581 3500 
L 1159 3500 
L 1159 2956 
Q 1356 3278 1631 3431 
Q 1906 3584 2284 3584 
Q 2666 3584 2933 3390 
Q 3200 3197 3328 2828 
z
" transform="scale(0.015625)"/>
       <path id="DejaVuSans-65" d="M 3597 1894 
L 3597 1613 
L 953 1613 
Q 991 1019 1311 708 
Q 1631 397 2203 397 
Q 2534 397 2845 478 
Q 3156 559 3463 722 
L 3463 178 
Q 3153 47 2828 -22 
Q 2503 -91 2169 -91 
Q 1331 -91 842 396 
Q 353 884 353 1716 
Q 353 2575 817 3079 
Q 1281 3584 2069 3584 
Q 2775 3584 3186 3129 
Q 3597 2675 3597 1894 
z
M 3022 2063 
Q 3016 2534 2758 2815 
Q 2500 3097 2075 3097 
Q 1594 3097 1305 2825 
Q 1016 2553 972 2059 
L 3022 2063 
z
" transform="scale(0.015625)"/>
       <path id="DejaVuSans-20" transform="scale(0.015625)"/>
       <path id="DejaVuSans-28" d="M 1984 4856 
Q 1566 4138 1362 3434 
Q 1159 2731 1159 2009 
Q 1159 1288 1364 580 
Q 1569 -128 1984 -844 
L 1484 -844 
Q 1016 -109 783 600 
Q 550 1309 550 2009 
Q 550 2706 781 3412 
Q 1013 4119 1484 4856 
L 1984 4856 
z
" transform="scale(0.015625)"/>
       <path id="DejaVuSans-73" d="M 2834 3397 
L 2834 2853 
Q 2591 2978 2328 3040 
Q 2066 3103 1784 3103 
Q 1356 3103 1142 2972 
Q 928 2841 928 2578 
Q 928 2378 1081 2264 
Q 1234 2150 1697 2047 
L 1894 2003 
Q 2506 1872 2764 1633 
Q 3022 1394 3022 966 
Q 3022 478 2636 193 
Q 2250 -91 1575 -91 
Q 1294 -91 989 -36 
Q 684 19 347 128 
L 347 722 
Q 666 556 975 473 
Q 1284 391 1588 391 
Q 1994 391 2212 530 
Q 2431 669 2431 922 
Q 2431 1156 2273 1281 
Q 2116 1406 1581 1522 
L 1381 1569 
Q 847 1681 609 1914 
Q 372 2147 372 2553 
Q 372 3047 722 3315 
Q 1072 3584 1716 3584 
Q 2034 3584 2315 3537 
Q 2597 3491 2834 3397 
z
" transform="scale(0.015625)"/>
       <path id="DejaVuSans-29" d="M 513 4856 
L 1013 4856 
Q 1481 4119 1714 3412 
Q 1947 2706 1947 2009 
Q 1947 1309 1714 600 
Q 1481 -109 1013 -844 
L 513 -844 
Q 928 -128 1133 580 
Q 1338 1288 1338 2009 
Q 1338 2731 1133 3434 
Q 928 4138 513 4856 
z
" transform="scale(0.015625)"/>
      </defs>
      <use xlink:href="#DejaVuSans-54"/>
      <use xlink:href="#DejaVuSans-69" transform="translate(57.958984 0)"/>
      <use xlink:href="#DejaVuSans-6d" transform="translate(85.742188 0)"/>
      <use xlink:href="#DejaVuSans-65" transform="translate(183.154297 0)"/>
      <use xlink:href="#DejaVuSans-20" transform="translate(244.677734 0)"/>
      <use xlink:href="#DejaVuSans-28" transform="translate(276.464844 0)"/>
      <use xlink:href="#DejaVuSans-73" transform="translate(315.478516 0)"/>
      <use xlink:href="#DejaVuSans-29" transform="translate(367.578125 0)"/>
     </g>
    </g>
   </g>
   <g id="matplotlib.axis_2">
    <g id="ytick_1">
     <g id="line2d_7">
      <defs>
       <path id="mb30ffb73cb" d="M 0 0 
L -3.5 0 
" style="stroke: #000000; stroke-width: 0.8"/>
      </defs>
      <g>
       <use xlink:href="#mb30ffb73cb" x="44.783053" y="376.519057" style="stroke: #000000; stroke-width: 0.8"/>
      </g>
     </g>
     <g id="text_8">
      <!-- −10 -->
      <g transform="translate(16.678365 380.318276) scale(0.1 -0.1)">
       <defs>
        <path id="DejaVuSans-31" d="M 794 531 
L 1825 531 
L 1825 4091 
L 703 3866 
L 703 4441 
L 1819 4666 
L 2450 4666 
L 2450 531 
L 3481 531 
L 3481 0 
L 794 0 
L 794 531 
z
" transform="scale(0.015625)"/>
       </defs>
       <use xlink:href="#DejaVuSans-2212"/>
       <use xlink:href="#DejaVuSans-31" transform="translate(83.789062 0)"/>
       <use xlink:href="#DejaVuSans-30" transform="translate(147.412109 0)"/>
      </g>
     </g>
    </g>
    <g id="ytick_2">
     <g id="line2d_8">
      <g>
       <use xlink:href="#mb30ffb73cb" x="44.783053" y="292.449997" style="stroke: #000000; stroke-width: 0.8"/>
      </g>
     </g>
     <g id="text_9">
      <!-- −5 -->
      <g transform="translate(23.040865 296.249216) scale(0.1 -0.1)">
       <defs>
        <path id="DejaVuSans-35" d="M 691 4666 
L 3169 4666 
L 3169 4134 
L 1269 4134 
L 1269 2991 
Q 1406 3038 1543 3061 
Q 1681 3084 1819 3084 
Q 2600 3084 3056 2656 
Q 3513 2228 3513 1497 
Q 3513 744 3044 326 
Q 2575 -91 1722 -91 
Q 1428 -91 1123 -41 
Q 819 9 494 109 
L 494 744 
Q 775 591 1075 516 
Q 1375 441 1709 441 
Q 2250 441 2565 725 
Q 2881 1009 2881 1497 
Q 2881 1984 2565 2268 
Q 2250 2553 1709 2553 
Q 1456 2553 1204 2497 
Q 953 2441 691 2322 
L 691 4666 
z
" transform="scale(0.015625)"/>
       </defs>
       <use xlink:href="#DejaVuSans-2212"/>
       <use xlink:href="#DejaVuSans-35" transform="translate(83.789062 0)"/>
      </g>
     </g>
    </g>
    <g id="ytick_3">
     <g id="line2d_9">
      <g>
       <use xlink:href="#mb30ffb73cb" x="44.783053" y="208.380938" style="stroke: #000000; stroke-width: 0.8"/>
      </g>
     </g>
     <g id="text_10">
      <!-- 0 -->
      <g transform="translate(31.420553 212.180156) scale(0.1 -0.1)">
       <use xlink:href="#DejaVuSans-30"/>
      </g>
     </g>
    </g>
    <g id="ytick_4">
     <g id="line2d_10">
      <g>
       <use xlink:href="#mb30ffb73cb" x="44.783053" y="124.311878" style="stroke: #000000; stroke-width: 0.8"/>
      </g>
     </g>
     <g id="text_11">
      <!-- 5 -->
      <g transform="translate(31.420553 128.111096) scale(0.1 -0.1)">
       <use xlink:href="#DejaVuSans-35"/>
      </g>
     </g>
    </g>
    <g id="ytick_5">
     <g id="line2d_11">
      <g>
       <use xlink:href="#mb30ffb73cb" x="44.783053" y="40.242818" style="stroke: #000000; stroke-width: 0.8"/>
      </g>
     </g>
     <g id="text_12">
      <!-- 10 -->
      <g transform="translate(25.058053 44.042036) scale(0.1 -0.1)">
       <use xlink:href="#DejaVuSans-31"/>
       <use xlink:href="#DejaVuSans-30" transform="translate(63.623047 0)"/>
      </g>
     </g>
    </g>
    <g id="text_13">
     <!-- µV -->
     <g transform="translate(10.598678 214.9825) rotate(-90) scale(0.1 -0.1)">
      <defs>
       <path id="DejaVuSans-b5" d="M 544 -1331 
L 544 3500 
L 1119 3500 
L 1119 1325 
Q 1119 872 1334 640 
Q 1550 409 1972 409 
Q 2434 409 2667 671 
Q 2900 934 2900 1459 
L 2900 3500 
L 3475 3500 
L 3475 806 
Q 3475 619 3529 530 
Q 3584 441 3700 441 
Q 3728 441 3778 458 
Q 3828 475 3916 513 
L 3916 50 
Q 3788 -22 3673 -56 
Q 3559 -91 3450 -91 
Q 3234 -91 3106 31 
Q 2978 153 2931 403 
Q 2775 156 2548 32 
Q 2322 -91 2016 -91 
Q 1697 -91 1473 31 
Q 1250 153 1119 397 
L 1119 -1331 
L 544 -1331 
z
" transform="scale(0.015625)"/>
       <path id="DejaVuSans-56" d="M 1831 0 
L 50 4666 
L 709 4666 
L 2188 738 
L 3669 4666 
L 4325 4666 
L 2547 0 
L 1831 0 
z
" transform="scale(0.015625)"/>
      </defs>
      <use xlink:href="#DejaVuSans-b5"/>
      <use xlink:href="#DejaVuSans-56" transform="translate(63.623047 0)"/>
     </g>
    </g>
   </g>
   <g id="patch_4">
    <path d="M 70.866979 398.64351 
L 511.334331 398.64351 
" style="fill: none; stroke: #000000; stroke-width: 0.8; stroke-linejoin: miter; stroke-linecap: square"/>
   </g>
   <g id="patch_5">
    <path d="M 44.783053 208.380938 
L 572.99976 208.380938 
" style="fill: none; stroke: #000000; stroke-width: 0.8; stroke-linejoin: miter; stroke-linecap: square"/>
   </g>
   <g id="text_14">
    <!-- CPz, Cz, Pz (median) -->
    <g transform="translate(247.121406 12.118365) scale(0.12 -0.12)">
     <defs>
      <path id="DejaVuSans-43" d="M 4122 4306 
L 4122 3641 
Q 3803 3938 3442 4084 
Q 3081 4231 2675 4231 
Q 1875 4231 1450 3742 
Q 1025 3253 1025 2328 
Q 1025 1406 1450 917 
Q 1875 428 2675 428 
Q 3081 428 3442 575 
Q 3803 722 4122 1019 
L 4122 359 
Q 3791 134 3420 21 
Q 3050 -91 2638 -91 
Q 1578 -91 968 557 
Q 359 1206 359 2328 
Q 359 3453 968 4101 
Q 1578 4750 2638 4750 
Q 3056 4750 3426 4639 
Q 3797 4528 4122 4306 
z
" transform="scale(0.015625)"/>
      <path id="DejaVuSans-50" d="M 1259 4147 
L 1259 2394 
L 2053 2394 
Q 2494 2394 2734 2622 
Q 2975 2850 2975 3272 
Q 2975 3691 2734 3919 
Q 2494 4147 2053 4147 
L 1259 4147 
z
M 628 4666 
L 2053 4666 
Q 2838 4666 3239 4311 
Q 3641 3956 3641 3272 
Q 3641 2581 3239 2228 
Q 2838 1875 2053 1875 
L 1259 1875 
L 1259 0 
L 628 0 
L 628 4666 
z
" transform="scale(0.015625)"/>
      <path id="DejaVuSans-7a" d="M 353 3500 
L 3084 3500 
L 3084 2975 
L 922 459 
L 3084 459 
L 3084 0 
L 275 0 
L 275 525 
L 2438 3041 
L 353 3041 
L 353 3500 
z
" transform="scale(0.015625)"/>
      <path id="DejaVuSans-2c" d="M 750 794 
L 1409 794 
L 1409 256 
L 897 -744 
L 494 -744 
L 750 256 
L 750 794 
z
" transform="scale(0.015625)"/>
      <path id="DejaVuSans-64" d="M 2906 2969 
L 2906 4863 
L 3481 4863 
L 3481 0 
L 2906 0 
L 2906 525 
Q 2725 213 2448 61 
Q 2172 -91 1784 -91 
Q 1150 -91 751 415 
Q 353 922 353 1747 
Q 353 2572 751 3078 
Q 1150 3584 1784 3584 
Q 2172 3584 2448 3432 
Q 2725 3281 2906 2969 
z
M 947 1747 
Q 947 1113 1208 752 
Q 1469 391 1925 391 
Q 2381 391 2643 752 
Q 2906 1113 2906 1747 
Q 2906 2381 2643 2742 
Q 2381 3103 1925 3103 
Q 1469 3103 1208 2742 
Q 947 2381 947 1747 
z
" transform="scale(0.015625)"/>
      <path id="DejaVuSans-61" d="M 2194 1759 
Q 1497 1759 1228 1600 
Q 959 1441 959 1056 
Q 959 750 1161 570 
Q 1363 391 1709 391 
Q 2188 391 2477 730 
Q 2766 1069 2766 1631 
L 2766 1759 
L 2194 1759 
z
M 3341 1997 
L 3341 0 
L 2766 0 
L 2766 531 
Q 2569 213 2275 61 
Q 1981 -91 1556 -91 
Q 1019 -91 701 211 
Q 384 513 384 1019 
Q 384 1609 779 1909 
Q 1175 2209 1959 2209 
L 2766 2209 
L 2766 2266 
Q 2766 2663 2505 2880 
Q 2244 3097 1772 3097 
Q 1472 3097 1187 3025 
Q 903 2953 641 2809 
L 641 3341 
Q 956 3463 1253 3523 
Q 1550 3584 1831 3584 
Q 2591 3584 2966 3190 
Q 3341 2797 3341 1997 
z
" transform="scale(0.015625)"/>
      <path id="DejaVuSans-6e" d="M 3513 2113 
L 3513 0 
L 2938 0 
L 2938 2094 
Q 2938 2591 2744 2837 
Q 2550 3084 2163 3084 
Q 1697 3084 1428 2787 
Q 1159 2491 1159 1978 
L 1159 0 
L 581 0 
L 581 3500 
L 1159 3500 
L 1159 2956 
Q 1366 3272 1645 3428 
Q 1925 3584 2291 3584 
Q 2894 3584 3203 3211 
Q 3513 2838 3513 2113 
z
" transform="scale(0.015625)"/>
     </defs>
     <use xlink:href="#DejaVuSans-43"/>
     <use xlink:href="#DejaVuSans-50" transform="translate(69.824219 0)"/>
     <use xlink:href="#DejaVuSans-7a" transform="translate(130.126953 0)"/>
     <use xlink:href="#DejaVuSans-2c" transform="translate(182.617188 0)"/>
     <use xlink:href="#DejaVuSans-20" transform="translate(214.404297 0)"/>
     <use xlink:href="#DejaVuSans-43" transform="translate(246.191406 0)"/>
     <use xlink:href="#DejaVuSans-7a" transform="translate(316.015625 0)"/>
     <use xlink:href="#DejaVuSans-2c" transform="translate(368.505859 0)"/>
     <use xlink:href="#DejaVuSans-20" transform="translate(400.292969 0)"/>
     <use xlink:href="#DejaVuSans-50" transform="translate(432.080078 0)"/>
     <use xlink:href="#DejaVuSans-7a" transform="translate(492.382812 0)"/>
     <use xlink:href="#DejaVuSans-20" transform="translate(544.873047 0)"/>
     <use xlink:href="#DejaVuSans-28" transform="translate(576.660156 0)"/>
     <use xlink:href="#DejaVuSans-6d" transform="translate(615.673828 0)"/>
     <use xlink:href="#DejaVuSans-65" transform="translate(713.085938 0)"/>
     <use xlink:href="#DejaVuSans-64" transform="translate(774.609375 0)"/>
     <use xlink:href="#DejaVuSans-69" transform="translate(838.085938 0)"/>
     <use xlink:href="#DejaVuSans-61" transform="translate(865.869141 0)"/>
     <use xlink:href="#DejaVuSans-6e" transform="translate(927.148438 0)"/>
     <use xlink:href="#DejaVuSans-29" transform="translate(990.527344 0)"/>
    </g>
   </g>
   <g id="legend_1">
    <g id="patch_6">
     <path d="M 51.783053 55.75274 
L 132.92524 55.75274 
Q 134.92524 55.75274 134.92524 53.75274 
L 134.92524 25.118365 
Q 134.92524 23.118365 132.92524 23.118365 
L 51.783053 23.118365 
Q 49.783053 23.118365 49.783053 25.118365 
L 49.783053 53.75274 
Q 49.783053 55.75274 51.783053 55.75274 
z
" style="fill: #ffffff; opacity: 0.8; stroke: #cccccc; stroke-linejoin: miter"/>
    </g>
    <g id="line2d_12">
     <path d="M 53.783053 31.216803 
L 63.783053 31.216803 
L 73.783052 31.216803 
" style="fill: none; stroke: #1f77b4; stroke-width: 1.5; stroke-linecap: square"/>
    </g>
    <g id="text_15">
     <!-- eerie -->
     <g transform="translate(81.783052 34.716803) scale(0.1 -0.1)">
      <defs>
       <path id="DejaVuSans-72" d="M 2631 2963 
Q 2534 3019 2420 3045 
Q 2306 3072 2169 3072 
Q 1681 3072 1420 2755 
Q 1159 2438 1159 1844 
L 1159 0 
L 581 0 
L 581 3500 
L 1159 3500 
L 1159 2956 
Q 1341 3275 1631 3429 
Q 1922 3584 2338 3584 
Q 2397 3584 2469 3576 
Q 2541 3569 2628 3553 
L 2631 2963 
z
" transform="scale(0.015625)"/>
      </defs>
      <use xlink:href="#DejaVuSans-65"/>
      <use xlink:href="#DejaVuSans-65" transform="translate(61.523438 0)"/>
      <use xlink:href="#DejaVuSans-72" transform="translate(123.046875 0)"/>
      <use xlink:href="#DejaVuSans-69" transform="translate(164.160156 0)"/>
      <use xlink:href="#DejaVuSans-65" transform="translate(191.943359 0)"/>
     </g>
    </g>
    <g id="line2d_13">
     <path d="M 53.783053 45.894928 
L 63.783053 45.894928 
L 73.783052 45.894928 
" style="fill: none; stroke: #ff7f0e; stroke-width: 1.5; stroke-linecap: square"/>
    </g>
    <g id="text_16">
     <!-- non_eerie -->
     <g transform="translate(81.783052 49.394928) scale(0.1 -0.1)">
      <defs>
       <path id="DejaVuSans-6f" d="M 1959 3097 
Q 1497 3097 1228 2736 
Q 959 2375 959 1747 
Q 959 1119 1226 758 
Q 1494 397 1959 397 
Q 2419 397 2687 759 
Q 2956 1122 2956 1747 
Q 2956 2369 2687 2733 
Q 2419 3097 1959 3097 
z
M 1959 3584 
Q 2709 3584 3137 3096 
Q 3566 2609 3566 1747 
Q 3566 888 3137 398 
Q 2709 -91 1959 -91 
Q 1206 -91 779 398 
Q 353 888 353 1747 
Q 353 2609 779 3096 
Q 1206 3584 1959 3584 
z
" transform="scale(0.015625)"/>
       <path id="DejaVuSans-5f" d="M 3263 -1063 
L 3263 -1509 
L -63 -1509 
L -63 -1063 
L 3263 -1063 
z
" transform="scale(0.015625)"/>
      </defs>
      <use xlink:href="#DejaVuSans-6e"/>
      <use xlink:href="#DejaVuSans-6f" transform="translate(63.378906 0)"/>
      <use xlink:href="#DejaVuSans-6e" transform="translate(124.560547 0)"/>
      <use xlink:href="#DejaVuSans-5f" transform="translate(187.939453 0)"/>
      <use xlink:href="#DejaVuSans-65" transform="translate(237.939453 0)"/>
      <use xlink:href="#DejaVuSans-65" transform="translate(299.462891 0)"/>
      <use xlink:href="#DejaVuSans-72" transform="translate(360.986328 0)"/>
      <use xlink:href="#DejaVuSans-69" transform="translate(402.099609 0)"/>
      <use xlink:href="#DejaVuSans-65" transform="translate(429.882812 0)"/>
     </g>
    </g>
   </g>
   <g id="line2d_14">
    <path d="M 44.783053 209.658986 
L 46.503628 207.691089 
L 48.224204 210.148323 
L 51.665355 220.280536 
L 53.38593 226.137479 
L 55.106506 230.237618 
L 56.827082 232.574702 
L 58.547657 233.570907 
L 60.268233 233.064099 
L 61.988808 231.513451 
L 63.709384 226.075675 
L 65.42996 215.910964 
L 68.871111 190.056538 
L 70.591686 180.448224 
L 72.312262 175.12807 
L 74.032838 174.129445 
L 75.753413 175.942016 
L 77.473989 178.470583 
L 79.194564 180.391925 
L 80.91514 181.869932 
L 82.635716 184.184998 
L 84.356291 188.54734 
L 89.518018 208.267804 
L 91.238594 211.895102 
L 92.959169 213.153619 
L 94.679745 213.007181 
L 96.40032 212.266073 
L 98.120896 210.858307 
L 99.841472 208.129318 
L 103.282623 199.60726 
L 105.003198 197.575351 
L 106.723774 200.04366 
L 108.444349 205.320094 
L 110.164925 215.105581 
L 111.885501 223.079299 
L 113.606076 226.379405 
L 115.326652 224.469807 
L 118.767803 214.544719 
L 120.488379 211.134841 
L 122.208954 210.19752 
L 123.92953 211.394607 
L 125.650105 213.777912 
L 127.370681 216.494147 
L 129.091257 218.970258 
L 130.811832 219.772115 
L 132.532408 218.727656 
L 134.252983 216.315108 
L 135.973559 213.182676 
L 137.694135 210.796572 
L 139.41471 210.807521 
L 141.135286 214.016899 
L 144.576437 225.095744 
L 146.297013 227.781114 
L 148.017588 225.762964 
L 149.738164 221.800549 
L 151.458739 215.565299 
L 153.179315 211.532573 
L 154.899891 211.068608 
L 156.620466 212.158832 
L 158.341042 214.044128 
L 160.061617 218.947832 
L 161.782193 224.974437 
L 163.502769 230.044414 
L 165.223344 233.690818 
L 168.664495 238.839282 
L 170.385071 242.430507 
L 172.105646 247.509768 
L 173.826222 253.492535 
L 175.546798 258.928895 
L 177.267373 261.421945 
L 178.987949 261.416648 
L 180.708524 259.041226 
L 182.4291 254.598179 
L 184.149676 248.887914 
L 185.870251 241.619455 
L 187.590827 233.822287 
L 189.311402 226.955119 
L 191.031978 223.449674 
L 192.752554 224.947388 
L 194.473129 233.084209 
L 196.193705 246.543159 
L 199.634856 277.60145 
L 201.355432 289.965187 
L 203.076007 299.202232 
L 204.796583 305.768996 
L 206.517158 309.578767 
L 208.237734 309.315282 
L 209.95831 303.242348 
L 211.678885 291.01114 
L 215.120036 258.589067 
L 216.840612 246.139175 
L 218.561188 238.38103 
L 220.281763 232.989909 
L 222.002339 226.216334 
L 223.722914 216.004539 
L 225.44349 204.095974 
L 227.164066 195.63949 
L 228.884641 194.496537 
L 230.605217 202.784337 
L 232.325792 216.480205 
L 234.046368 228.933888 
L 235.766943 234.443006 
L 237.487519 231.496007 
L 239.208095 223.041452 
L 240.92867 213.835553 
L 242.649246 206.810583 
L 244.369821 201.219723 
L 246.090397 193.671771 
L 247.810973 181.036008 
L 249.531548 162.995903 
L 252.972699 122.621601 
L 254.693275 106.304537 
L 256.413851 92.83979 
L 258.134426 80.438043 
L 259.855002 69.164559 
L 261.575577 60.834004 
L 263.296153 58.06804 
L 265.016729 61.83582 
L 266.737304 69.563573 
L 268.45788 78.146161 
L 270.178455 82.392798 
L 271.899031 81.370249 
L 273.619607 76.258358 
L 275.340182 71.815191 
L 277.060758 72.130211 
L 278.781333 79.096943 
L 280.501909 91.136152 
L 282.222485 104.730922 
L 283.94306 114.693399 
L 285.663636 120.314539 
L 287.384211 122.207109 
L 289.104787 123.622114 
L 290.825363 128.324935 
L 292.545938 138.697969 
L 294.266514 154.490705 
L 295.987089 172.823332 
L 297.707665 189.448297 
L 299.42824 200.633989 
L 301.148816 204.772319 
L 302.869392 202.968186 
L 306.310543 193.830899 
L 308.031118 191.60235 
L 309.751694 191.410757 
L 311.47227 191.718408 
L 313.192845 190.964607 
L 314.913421 188.583636 
L 318.354572 181.896277 
L 320.075148 179.248173 
L 321.795723 176.908576 
L 323.516299 173.807133 
L 325.236874 168.947989 
L 326.95745 162.096091 
L 330.398601 145.946614 
L 332.119177 139.431291 
L 333.839752 135.253684 
L 335.560328 133.23667 
L 337.280904 132.117886 
L 339.001479 129.998166 
L 340.722055 125.124996 
L 342.44263 116.829969 
L 347.604357 84.649681 
L 349.324933 77.102911 
L 351.045508 71.009723 
L 352.766084 64.338503 
L 354.48666 55.347045 
L 357.927811 32.028855 
L 359.648386 22.549716 
L 361.368962 18.118365 
L 363.089537 19.762224 
L 364.810113 26.629276 
L 368.251264 46.531311 
L 369.97184 54.193091 
L 371.692415 57.628277 
L 373.412991 56.228999 
L 375.133567 50.960663 
L 376.854142 44.156803 
L 378.574718 38.647641 
L 380.295293 36.389191 
L 382.015869 37.40279 
L 383.736445 39.811365 
L 385.45702 41.145625 
L 387.177596 40.088054 
L 388.898171 37.370327 
L 390.618747 35.10983 
L 392.339323 35.125092 
L 394.059898 37.462162 
L 395.780474 40.495751 
L 397.501049 42.412347 
L 399.221625 42.891475 
L 400.942201 43.553875 
L 402.662776 46.636579 
L 404.383352 52.956565 
L 406.103927 60.80468 
L 407.824503 66.757565 
L 409.545079 67.895113 
L 411.265654 63.726928 
L 414.706805 49.131165 
L 416.427381 44.002934 
L 418.147956 41.420312 
L 419.868532 40.706892 
L 421.589108 41.498731 
L 423.309683 44.304107 
L 425.030259 49.57587 
L 426.750834 56.373736 
L 428.47141 62.022375 
L 430.191986 63.624401 
L 431.912561 60.316362 
L 433.633137 54.46249 
L 435.353712 50.491983 
L 437.074288 51.944834 
L 438.794864 58.968005 
L 440.515439 68.235061 
L 442.236015 75.392337 
L 443.95659 78.388027 
L 445.677166 79.028915 
L 447.397742 81.483128 
L 449.118317 88.96917 
L 452.559468 113.994981 
L 454.280044 122.850694 
L 456.00062 125.215139 
L 457.721195 122.447049 
L 459.441771 118.452227 
L 461.162346 116.958376 
L 462.882922 119.375766 
L 464.603498 124.623933 
L 466.324073 130.700043 
L 468.044649 136.324666 
L 471.4858 146.199722 
L 473.206376 150.197225 
L 474.926951 152.106115 
L 476.647527 150.857918 
L 478.368102 149.110447 
L 480.088678 142.874552 
L 481.809253 140.223733 
L 483.529829 142.595532 
L 485.250405 149.344119 
L 488.691556 167.069291 
L 490.412131 173.148675 
L 492.132707 175.400395 
L 493.853283 173.073026 
L 495.573858 168.738789 
L 497.294434 163.606761 
L 500.735585 147.777654 
L 502.456161 141.23711 
L 504.176736 137.287301 
L 505.897312 135.853104 
L 507.617887 135.627164 
L 509.338463 134.633552 
L 511.059039 138.282692 
L 512.779614 142.40062 
L 514.50019 149.558916 
L 516.220765 159.749631 
L 517.941341 171.597037 
L 519.661917 181.187689 
L 521.382492 186.298163 
L 523.103068 186.558023 
L 524.823643 186.049458 
L 526.544219 187.281021 
L 528.264795 193.122255 
L 531.705946 213.368035 
L 533.426521 220.406449 
L 535.147097 221.9428 
L 536.867673 218.954964 
L 538.588248 214.656853 
L 540.308824 212.219769 
L 542.029399 212.795654 
L 543.749975 215.066298 
L 545.47055 216.56285 
L 547.191126 215.548563 
L 548.911702 212.163876 
L 550.632277 206.852694 
L 552.352853 202.320361 
L 554.073428 200.733936 
L 555.794004 202.214483 
L 557.51458 206.014815 
L 559.235155 211.003321 
L 560.955731 216.697382 
L 562.676306 225.588007 
L 566.117458 249.609035 
L 567.838033 259.535797 
L 569.558609 264.896817 
L 571.279184 265.780383 
L 572.99976 264.518168 
L 572.99976 264.518168 
" style="fill: none; stroke: #1f77b4; stroke-width: 1.5; stroke-linecap: square"/>
   </g>
   <g id="line2d_15">
    <path d="M 44.783053 200.739271 
L 46.503628 201.095856 
L 48.224204 201.794132 
L 49.944779 202.767506 
L 53.38593 205.052032 
L 55.106506 205.894808 
L 56.827082 206.184154 
L 58.547657 205.752981 
L 60.268233 204.647715 
L 61.988808 203.185181 
L 63.709384 201.922862 
L 65.42996 201.506257 
L 67.150535 202.371203 
L 70.591686 206.726462 
L 72.312262 208.968976 
L 74.032838 210.838495 
L 75.753413 210.979611 
L 79.194564 209.07324 
L 80.91514 208.775966 
L 82.635716 209.488909 
L 84.356291 210.941943 
L 89.518018 213.063394 
L 91.238594 212.619988 
L 92.959169 211.014462 
L 94.679745 209.169257 
L 96.40032 207.586013 
L 98.120896 206.711232 
L 99.841472 206.803583 
L 101.562047 207.851926 
L 105.003198 211.256673 
L 106.723774 212.50405 
L 110.164925 213.351591 
L 111.885501 212.804269 
L 113.606076 211.641902 
L 115.326652 210.808918 
L 118.767803 210.74326 
L 120.488379 210.290379 
L 122.208954 209.266201 
L 123.92953 207.975066 
L 125.650105 207.149257 
L 127.370681 207.626801 
L 129.091257 209.795757 
L 132.532408 216.65555 
L 134.252983 218.660866 
L 135.973559 218.388886 
L 137.694135 216.213204 
L 139.41471 213.661647 
L 141.135286 212.608267 
L 142.855861 214.165407 
L 144.576437 218.015981 
L 146.297013 222.595992 
L 148.017588 225.757615 
L 149.738164 227.521239 
L 151.458739 227.570962 
L 153.179315 227.350887 
L 154.899891 228.197845 
L 156.620466 230.324099 
L 158.341042 232.822344 
L 160.061617 234.398658 
L 161.782193 234.376838 
L 163.502769 232.773475 
L 165.223344 232.044767 
L 166.94392 232.009505 
L 168.664495 233.233804 
L 170.385071 234.908785 
L 172.105646 235.901655 
L 173.826222 235.592255 
L 177.267373 232.939147 
L 178.987949 232.466936 
L 180.708524 233.180691 
L 182.4291 234.708714 
L 185.870251 238.057264 
L 187.590827 239.48751 
L 189.311402 242.703342 
L 191.031978 246.785354 
L 192.752554 252.389284 
L 194.473129 259.229043 
L 199.634856 282.037129 
L 201.355432 288.807804 
L 203.076007 294.173554 
L 204.796583 297.241031 
L 206.517158 297.093487 
L 208.237734 293.059579 
L 209.95831 284.983305 
L 211.678885 273.340505 
L 213.399461 259.153542 
L 218.561188 213.837313 
L 220.281763 200.686877 
L 222.002339 189.037504 
L 223.722914 179.084023 
L 225.44349 171.333368 
L 227.164066 166.814666 
L 228.884641 165.447736 
L 230.605217 167.942244 
L 232.325792 172.973088 
L 234.046368 178.574539 
L 235.766943 182.569927 
L 237.487519 183.448971 
L 239.208095 180.929306 
L 240.92867 175.851605 
L 244.369821 162.693218 
L 246.090397 155.494527 
L 247.810973 147.235123 
L 249.531548 137.257189 
L 254.693275 101.769297 
L 256.413851 92.928682 
L 258.134426 87.691964 
L 259.855002 86.077555 
L 261.575577 87.183243 
L 263.296153 89.755556 
L 265.016729 93.178215 
L 266.737304 93.56793 
L 268.45788 94.157201 
L 270.178455 94.436824 
L 271.899031 95.436099 
L 273.619607 98.065205 
L 275.340182 102.642788 
L 277.060758 108.716274 
L 278.781333 115.272212 
L 280.501909 121.309616 
L 282.222485 128.435837 
L 283.94306 130.70553 
L 285.663636 135.171458 
L 287.384211 140.584478 
L 289.104787 147.258768 
L 292.545938 162.228485 
L 294.266514 168.491929 
L 295.987089 172.772809 
L 297.707665 174.733748 
L 299.42824 174.533438 
L 301.148816 172.703415 
L 304.589967 167.235994 
L 306.310543 165.116627 
L 308.031118 164.091532 
L 309.751694 164.239356 
L 311.47227 165.313717 
L 316.633996 170.201624 
L 318.354572 171.438859 
L 320.075148 172.158133 
L 321.795723 172.178602 
L 323.516299 171.397134 
L 325.236874 169.948706 
L 328.678026 166.584728 
L 332.119177 163.823222 
L 333.839752 161.639949 
L 335.560328 158.008067 
L 337.280904 152.774833 
L 340.722055 140.514187 
L 342.44263 135.721126 
L 344.163206 132.659657 
L 345.883782 130.964338 
L 347.604357 129.716661 
L 349.324933 128.014291 
L 351.045508 125.487785 
L 354.48666 119.309694 
L 357.927811 113.947894 
L 359.648386 110.831841 
L 361.368962 106.722121 
L 364.810113 97.06666 
L 366.530689 93.959392 
L 368.251264 93.531255 
L 369.97184 95.947446 
L 371.692415 100.053753 
L 373.412991 103.700937 
L 375.133567 106.005087 
L 376.854142 107.074187 
L 378.574718 107.80604 
L 380.295293 109.184807 
L 382.015869 111.590145 
L 383.736445 114.56262 
L 385.45702 117.156925 
L 387.177596 118.628799 
L 388.898171 118.868943 
L 390.618747 118.342384 
L 394.059898 116.920733 
L 395.780474 115.965149 
L 397.501049 114.397673 
L 399.221625 112.311068 
L 400.942201 110.477145 
L 402.662776 110.026629 
L 404.383352 111.760847 
L 406.103927 115.580441 
L 407.824503 120.450419 
L 409.545079 124.914734 
L 411.265654 127.84811 
L 412.98623 128.997814 
L 414.706805 128.957785 
L 416.427381 128.697618 
L 418.147956 129.016597 
L 419.868532 130.196247 
L 421.589108 132.033737 
L 423.309683 134.095597 
L 425.030259 135.973839 
L 426.750834 137.437182 
L 428.47141 138.446594 
L 431.912561 139.910324 
L 433.633137 141.229876 
L 435.353712 143.585185 
L 437.074288 147.100541 
L 438.794864 151.291549 
L 440.515439 155.088948 
L 442.236015 156.173973 
L 443.95659 154.509229 
L 445.677166 150.473658 
L 447.397742 145.212105 
L 449.118317 140.508719 
L 450.838893 137.998426 
L 452.559468 138.466069 
L 454.280044 141.555607 
L 457.721195 150.409981 
L 459.441771 153.658791 
L 461.162346 155.775263 
L 462.882922 156.955566 
L 464.603498 157.557883 
L 466.324073 158.32835 
L 468.044649 159.780884 
L 469.765224 162.031019 
L 473.206376 167.452049 
L 474.926951 169.36379 
L 476.647527 170.001825 
L 478.368102 169.153239 
L 480.088678 166.995448 
L 483.529829 161.07481 
L 485.250405 158.870776 
L 486.97098 158.065904 
L 488.691556 158.936793 
L 490.412131 161.31712 
L 495.573858 171.043405 
L 497.294434 172.836656 
L 499.015009 173.335271 
L 500.735585 172.752361 
L 502.456161 171.678616 
L 504.176736 170.919738 
L 505.897312 171.246132 
L 507.617887 173.019653 
L 511.059039 178.962505 
L 512.779614 180.989416 
L 514.50019 181.267016 
L 516.220765 180.037046 
L 517.941341 178.471735 
L 519.661917 178.043989 
L 521.382492 179.618538 
L 523.103068 182.906052 
L 524.823643 186.651587 
L 526.544219 189.453567 
L 528.264795 190.709102 
L 529.98537 190.983528 
L 531.705946 191.576969 
L 533.426521 193.605643 
L 535.147097 197.249403 
L 536.867673 201.717176 
L 538.588248 205.871801 
L 540.308824 209.027312 
L 542.029399 211.288267 
L 545.47055 215.183855 
L 547.191126 216.90959 
L 548.911702 217.705773 
L 550.632277 217.115973 
L 552.352853 215.504861 
L 554.073428 214.08187 
L 555.794004 214.27412 
L 557.51458 216.867111 
L 559.235155 221.529624 
L 560.955731 227.045316 
L 562.676306 232.065736 
L 564.396882 235.850407 
L 566.117458 238.540833 
L 567.838033 240.87821 
L 569.558609 243.601655 
L 571.279184 246.995169 
L 572.99976 250.813648 
L 572.99976 250.813648 
" style="fill: none; stroke: #ff7f0e; stroke-width: 1.5; stroke-linecap: square"/>
   </g>
  </g>
  <g id="axes_2">
   <g id="PathCollection_1">
    <defs>
     <path id="C0_0_b2ebe0b616" d="M 0 1.118034 
C 0.296506 1.118034 0.580908 1.000231 0.790569 0.790569 
C 1.000231 0.580908 1.118034 0.296506 1.118034 -0 
C 1.118034 -0.296506 1.000231 -0.580908 0.790569 -0.790569 
C 0.580908 -1.000231 0.296506 -1.118034 0 -1.118034 
C -0.296506 -1.118034 -0.580908 -1.000231 -0.790569 -0.790569 
C -1.000231 -0.580908 -1.118034 -0.296506 -1.118034 0 
C -1.118034 0.296506 -1.000231 0.580908 -0.790569 0.790569 
C -0.580908 1.000231 -0.296506 1.118034 0 1.118034 
z
"/>
    </defs>
    <g clip-path="url(#pd8ced86617)">
     <use xlink:href="#C0_0_b2ebe0b616" x="520.220098" y="76.4143" style="stroke: #000000"/>
    </g>
    <g clip-path="url(#pd8ced86617)">
     <use xlink:href="#C0_0_b2ebe0b616" x="520.16282" y="85.802188" style="stroke: #000000"/>
    </g>
    <g clip-path="url(#pd8ced86617)">
     <use xlink:href="#C0_0_b2ebe0b616" x="520.257951" y="66.304407" style="stroke: #000000"/>
    </g>
   </g>
   <g id="matplotlib.axis_3"/>
   <g id="matplotlib.axis_4"/>
   <g id="line2d_16">
    <path d="M 559.992051 73.636703 
L 559.914365 71.164686 
L 559.681612 68.702426 
L 559.294713 66.259638 
L 558.755193 63.845964 
L 558.065182 61.47093 
L 557.227403 59.143909 
L 556.245162 56.874084 
L 555.122335 54.670414 
L 553.863355 52.541595 
L 552.47319 50.496028 
L 550.957325 48.541787 
L 549.321744 46.686585 
L 547.572901 44.937742 
L 545.717699 43.302161 
L 543.763458 41.786296 
L 541.717892 40.396131 
L 539.589072 39.137151 
L 537.385402 38.014325 
L 535.115577 37.032084 
L 532.788556 36.194304 
L 530.413522 35.504293 
L 527.999848 34.964773 
L 525.557061 34.577874 
L 523.0948 34.345122 
L 520.622783 34.267435 
L 518.150766 34.345122 
L 515.688505 34.577874 
L 513.245718 34.964773 
L 510.832044 35.504293 
L 508.45701 36.194304 
L 506.129989 37.032084 
L 503.860164 38.014325 
L 501.656494 39.137151 
L 499.527674 40.396131 
L 497.482108 41.786296 
L 495.527867 43.302161 
L 493.672665 44.937742 
L 491.923822 46.686585 
L 490.288241 48.541787 
L 488.772376 50.496028 
L 487.382211 52.541595 
L 486.123231 54.670414 
L 485.000404 56.874084 
L 484.018163 59.143909 
L 483.180384 61.47093 
L 482.490373 63.845964 
L 481.950853 66.259638 
L 481.563954 68.702426 
L 481.331201 71.164686 
L 481.253515 73.636703 
L 481.331201 76.10872 
L 481.563954 78.570981 
L 481.950853 81.013768 
L 482.490373 83.427442 
L 483.180384 85.802476 
L 484.018163 88.129497 
L 485.000404 90.399322 
L 486.123231 92.602993 
L 487.382211 94.731812 
L 488.772376 96.777378 
L 490.288241 98.731619 
L 491.923822 100.586822 
L 493.672665 102.335664 
L 495.527867 103.971245 
L 497.482108 105.48711 
L 499.527674 106.877275 
L 501.656494 108.136256 
L 503.860164 109.259082 
L 506.129989 110.241323 
L 508.45701 111.079102 
L 510.832044 111.769113 
L 513.245718 112.308633 
L 515.688505 112.695533 
L 518.150766 112.928285 
L 520.622783 113.005971 
L 523.0948 112.928285 
L 525.557061 112.695533 
L 527.999848 112.308633 
L 530.413522 111.769113 
L 532.788556 111.079102 
L 535.115577 110.241323 
L 537.385402 109.259082 
L 539.589072 108.136256 
L 541.717892 106.877275 
L 543.763458 105.48711 
L 545.717699 103.971245 
L 547.572901 102.335664 
L 549.321744 100.586822 
L 550.957325 98.731619 
L 552.47319 96.777378 
L 553.863355 94.731812 
L 555.122335 92.602993 
L 556.245162 90.399322 
L 557.227403 88.129497 
L 558.065182 85.802476 
L 558.755193 83.427442 
L 559.294713 81.013768 
L 559.681612 78.570981 
L 559.914365 76.10872 
L 559.992051 73.636703 
" style="fill: none; stroke: #000000; stroke-linecap: square"/>
   </g>
   <g id="line2d_17">
    <path d="M 512.377303 35.140582 
L 520.622783 28.362045 
L 528.868263 35.140582 
" style="fill: none; stroke: #000000; stroke-linecap: square"/>
   </g>
   <g id="line2d_18">
    <path d="M 481.489731 69.266714 
L 480.46613 67.534467 
L 479.836221 67.471476 
L 478.899233 67.762808 
L 477.95437 69.266714 
L 478.103974 74.069765 
L 477.552804 80.975135 
L 478.733882 83.975073 
L 480.46613 84.534117 
L 482.119639 83.077454 
" style="fill: none; stroke: #000000; stroke-linecap: square"/>
   </g>
   <g id="line2d_19">
    <path d="M 559.755835 69.266714 
L 560.779436 67.534467 
L 561.409345 67.471476 
L 562.346333 67.762808 
L 563.291196 69.266714 
L 563.141592 74.069765 
L 563.692762 80.975135 
L 562.511684 83.975073 
L 560.779436 84.534117 
L 559.125927 83.077454 
" style="fill: none; stroke: #000000; stroke-linecap: square"/>
   </g>
  </g>
 </g>
 <defs>
  <clipPath id="p92dc91c5dc">
   <rect x="44.783053" y="18.118365" width="528.216707" height="380.525145"/>
  </clipPath>
  <clipPath id="pd8ced86617">
   <rect x="473.245806" y="24.129849" width="94.753954" height="93.108319"/>
  </clipPath>
 </defs>
</svg>
