<?xml version="1.0" encoding="utf-8" standalone="no"?>
<!DOCTYPE svg PUBLIC "-//W3C//DTD SVG 1.1//EN"
  "http://www.w3.org/Graphics/SVG/1.1/DTD/svg11.dtd">
<svg xmlns:xlink="http://www.w3.org/1999/xlink" width="576pt" height="432pt" viewBox="0 0 576 432" xmlns="http://www.w3.org/2000/svg" version="1.1">
 <metadata>
  <rdf:RDF xmlns:dc="http://purl.org/dc/elements/1.1/" xmlns:cc="http://creativecommons.org/ns#" xmlns:rdf="http://www.w3.org/1999/02/22-rdf-syntax-ns#">
   <cc:Work>
    <dc:type rdf:resource="http://purl.org/dc/dcmitype/StillImage"/>
    <dc:date>2025-02-12T21:12:42.957693</dc:date>
    <dc:format>image/svg+xml</dc:format>
    <dc:creator>
     <cc:Agent>
      <dc:title>Matplotlib v3.10.0, https://matplotlib.org/</dc:title>
     </cc:Agent>
    </dc:creator>
   </cc:Work>
  </rdf:RDF>
 </metadata>
 <defs>
  <style type="text/css">*{stroke-linejoin: round; stroke-linecap: butt}</style>
 </defs>
 <g id="figure_1">
  <g id="patch_1">
   <path d="M 0 432 
L 576 432 
L 576 0 
L 0 0 
z
" style="fill: #ffffff"/>
  </g>
  <g id="axes_1">
   <g id="patch_2">
    <path d="M 44.783053 398.64351 
L 572.99976 398.64351 
L 572.99976 18.118365 
L 44.783053 18.118365 
L 44.783053 398.64351 
z
" style="fill: none; opacity: 0"/>
   </g>
   <g id="patch_3">
    <path d="M 44.783053 364.292923 
L 44.783053 52.468952 
" style="fill: none; stroke: #000000; stroke-width: 0.8; stroke-linejoin: miter; stroke-linecap: square"/>
   </g>
   <g id="LineCollection_1">
    <path d="M 189.793164 18.118365 
L 189.793164 398.64351 
" clip-path="url(#p5fe93f4b49)" style="fill: none; stroke-dasharray: 3.7,1.6; stroke-dashoffset: 0; stroke: #000000"/>
    <path d="M 216.221205 18.118365 
L 216.221205 398.64351 
" clip-path="url(#p5fe93f4b49)" style="fill: none; stroke-dasharray: 3.7,1.6; stroke-dashoffset: 0; stroke: #000000"/>
   </g>
   <g id="matplotlib.axis_1">
    <g id="xtick_1">
     <g id="line2d_1">
      <defs>
       <path id="mdee72d2555" d="M 0 0 
L 0 3.5 
" style="stroke: #000000; stroke-width: 0.8"/>
      </defs>
      <g>
       <use xlink:href="#mdee72d2555" x="70.866979" y="398.64351" style="stroke: #000000; stroke-width: 0.8"/>
      </g>
     </g>
     <g id="text_1">
      <!-- −0.20 -->
      <g transform="translate(55.544322 413.241947) scale(0.1 -0.1)">
       <defs>
        <path id="DejaVuSans-2212" d="M 678 2272 
L 4684 2272 
L 4684 1741 
L 678 1741 
L 678 2272 
z
" transform="scale(0.015625)"/>
        <path id="DejaVuSans-30" d="M 2034 4250 
Q 1547 4250 1301 3770 
Q 1056 3291 1056 2328 
Q 1056 1369 1301 889 
Q 1547 409 2034 409 
Q 2525 409 2770 889 
Q 3016 1369 3016 2328 
Q 3016 3291 2770 3770 
Q 2525 4250 2034 4250 
z
M 2034 4750 
Q 2819 4750 3233 4129 
Q 3647 3509 3647 2328 
Q 3647 1150 3233 529 
Q 2819 -91 2034 -91 
Q 1250 -91 836 529 
Q 422 1150 422 2328 
Q 422 3509 836 4129 
Q 1250 4750 2034 4750 
z
" transform="scale(0.015625)"/>
        <path id="DejaVuSans-2e" d="M 684 794 
L 1344 794 
L 1344 0 
L 684 0 
L 684 794 
z
" transform="scale(0.015625)"/>
        <path id="DejaVuSans-32" d="M 1228 531 
L 3431 531 
L 3431 0 
L 469 0 
L 469 531 
Q 828 903 1448 1529 
Q 2069 2156 2228 2338 
Q 2531 2678 2651 2914 
Q 2772 3150 2772 3378 
Q 2772 3750 2511 3984 
Q 2250 4219 1831 4219 
Q 1534 4219 1204 4116 
Q 875 4013 500 3803 
L 500 4441 
Q 881 4594 1212 4672 
Q 1544 4750 1819 4750 
Q 2544 4750 2975 4387 
Q 3406 4025 3406 3419 
Q 3406 3131 3298 2873 
Q 3191 2616 2906 2266 
Q 2828 2175 2409 1742 
Q 1991 1309 1228 531 
z
" transform="scale(0.015625)"/>
       </defs>
       <use xlink:href="#DejaVuSans-2212"/>
       <use xlink:href="#DejaVuSans-30" transform="translate(83.789062 0)"/>
       <use xlink:href="#DejaVuSans-2e" transform="translate(147.412109 0)"/>
       <use xlink:href="#DejaVuSans-32" transform="translate(179.199219 0)"/>
       <use xlink:href="#DejaVuSans-30" transform="translate(242.822266 0)"/>
      </g>
     </g>
    </g>
    <g id="xtick_2">
     <g id="line2d_2">
      <g>
       <use xlink:href="#mdee72d2555" x="158.960449" y="398.64351" style="stroke: #000000; stroke-width: 0.8"/>
      </g>
     </g>
     <g id="text_2">
      <!-- 0.00 -->
      <g transform="translate(147.827636 413.241947) scale(0.1 -0.1)">
       <use xlink:href="#DejaVuSans-30"/>
       <use xlink:href="#DejaVuSans-2e" transform="translate(63.623047 0)"/>
       <use xlink:href="#DejaVuSans-30" transform="translate(95.410156 0)"/>
       <use xlink:href="#DejaVuSans-30" transform="translate(159.033203 0)"/>
      </g>
     </g>
    </g>
    <g id="xtick_3">
     <g id="line2d_3">
      <g>
       <use xlink:href="#mdee72d2555" x="189.793164" y="398.64351" style="stroke: #000000; stroke-width: 0.8"/>
      </g>
     </g>
     <g id="text_3">
      <!-- 0.07 -->
      <g transform="translate(178.660351 413.241947) scale(0.1 -0.1)">
       <defs>
        <path id="DejaVuSans-37" d="M 525 4666 
L 3525 4666 
L 3525 4397 
L 1831 0 
L 1172 0 
L 2766 4134 
L 525 4134 
L 525 4666 
z
" transform="scale(0.015625)"/>
       </defs>
       <use xlink:href="#DejaVuSans-30"/>
       <use xlink:href="#DejaVuSans-2e" transform="translate(63.623047 0)"/>
       <use xlink:href="#DejaVuSans-30" transform="translate(95.410156 0)"/>
       <use xlink:href="#DejaVuSans-37" transform="translate(159.033203 0)"/>
      </g>
     </g>
    </g>
    <g id="xtick_4">
     <g id="line2d_4">
      <g>
       <use xlink:href="#mdee72d2555" x="216.221205" y="398.64351" style="stroke: #000000; stroke-width: 0.8"/>
      </g>
     </g>
     <g id="text_4">
      <!-- 0.13 -->
      <g transform="translate(205.088392 413.241947) scale(0.1 -0.1)">
       <defs>
        <path id="DejaVuSans-31" d="M 794 531 
L 1825 531 
L 1825 4091 
L 703 3866 
L 703 4441 
L 1819 4666 
L 2450 4666 
L 2450 531 
L 3481 531 
L 3481 0 
L 794 0 
L 794 531 
z
" transform="scale(0.015625)"/>
        <path id="DejaVuSans-33" d="M 2597 2516 
Q 3050 2419 3304 2112 
Q 3559 1806 3559 1356 
Q 3559 666 3084 287 
Q 2609 -91 1734 -91 
Q 1441 -91 1130 -33 
Q 819 25 488 141 
L 488 750 
Q 750 597 1062 519 
Q 1375 441 1716 441 
Q 2309 441 2620 675 
Q 2931 909 2931 1356 
Q 2931 1769 2642 2001 
Q 2353 2234 1838 2234 
L 1294 2234 
L 1294 2753 
L 1863 2753 
Q 2328 2753 2575 2939 
Q 2822 3125 2822 3475 
Q 2822 3834 2567 4026 
Q 2313 4219 1838 4219 
Q 1578 4219 1281 4162 
Q 984 4106 628 3988 
L 628 4550 
Q 988 4650 1302 4700 
Q 1616 4750 1894 4750 
Q 2613 4750 3031 4423 
Q 3450 4097 3450 3541 
Q 3450 3153 3228 2886 
Q 3006 2619 2597 2516 
z
" transform="scale(0.015625)"/>
       </defs>
       <use xlink:href="#DejaVuSans-30"/>
       <use xlink:href="#DejaVuSans-2e" transform="translate(63.623047 0)"/>
       <use xlink:href="#DejaVuSans-31" transform="translate(95.410156 0)"/>
       <use xlink:href="#DejaVuSans-33" transform="translate(159.033203 0)"/>
      </g>
     </g>
    </g>
    <g id="xtick_5">
     <g id="line2d_5">
      <g>
       <use xlink:href="#mdee72d2555" x="247.053919" y="398.64351" style="stroke: #000000; stroke-width: 0.8"/>
      </g>
     </g>
     <g id="text_5">
      <!-- 0.20 -->
      <g transform="translate(235.921107 413.241947) scale(0.1 -0.1)">
       <use xlink:href="#DejaVuSans-30"/>
       <use xlink:href="#DejaVuSans-2e" transform="translate(63.623047 0)"/>
       <use xlink:href="#DejaVuSans-32" transform="translate(95.410156 0)"/>
       <use xlink:href="#DejaVuSans-30" transform="translate(159.033203 0)"/>
      </g>
     </g>
    </g>
    <g id="xtick_6">
     <g id="line2d_6">
      <g>
       <use xlink:href="#mdee72d2555" x="335.14739" y="398.64351" style="stroke: #000000; stroke-width: 0.8"/>
      </g>
     </g>
     <g id="text_6">
      <!-- 0.40 -->
      <g transform="translate(324.014577 413.241947) scale(0.1 -0.1)">
       <defs>
        <path id="DejaVuSans-34" d="M 2419 4116 
L 825 1625 
L 2419 1625 
L 2419 4116 
z
M 2253 4666 
L 3047 4666 
L 3047 1625 
L 3713 1625 
L 3713 1100 
L 3047 1100 
L 3047 0 
L 2419 0 
L 2419 1100 
L 313 1100 
L 313 1709 
L 2253 4666 
z
" transform="scale(0.015625)"/>
       </defs>
       <use xlink:href="#DejaVuSans-30"/>
       <use xlink:href="#DejaVuSans-2e" transform="translate(63.623047 0)"/>
       <use xlink:href="#DejaVuSans-34" transform="translate(95.410156 0)"/>
       <use xlink:href="#DejaVuSans-30" transform="translate(159.033203 0)"/>
      </g>
     </g>
    </g>
    <g id="xtick_7">
     <g id="line2d_7">
      <g>
       <use xlink:href="#mdee72d2555" x="423.24086" y="398.64351" style="stroke: #000000; stroke-width: 0.8"/>
      </g>
     </g>
     <g id="text_7">
      <!-- 0.60 -->
      <g transform="translate(412.108048 413.241947) scale(0.1 -0.1)">
       <defs>
        <path id="DejaVuSans-36" d="M 2113 2584 
Q 1688 2584 1439 2293 
Q 1191 2003 1191 1497 
Q 1191 994 1439 701 
Q 1688 409 2113 409 
Q 2538 409 2786 701 
Q 3034 994 3034 1497 
Q 3034 2003 2786 2293 
Q 2538 2584 2113 2584 
z
M 3366 4563 
L 3366 3988 
Q 3128 4100 2886 4159 
Q 2644 4219 2406 4219 
Q 1781 4219 1451 3797 
Q 1122 3375 1075 2522 
Q 1259 2794 1537 2939 
Q 1816 3084 2150 3084 
Q 2853 3084 3261 2657 
Q 3669 2231 3669 1497 
Q 3669 778 3244 343 
Q 2819 -91 2113 -91 
Q 1303 -91 875 529 
Q 447 1150 447 2328 
Q 447 3434 972 4092 
Q 1497 4750 2381 4750 
Q 2619 4750 2861 4703 
Q 3103 4656 3366 4563 
z
" transform="scale(0.015625)"/>
       </defs>
       <use xlink:href="#DejaVuSans-30"/>
       <use xlink:href="#DejaVuSans-2e" transform="translate(63.623047 0)"/>
       <use xlink:href="#DejaVuSans-36" transform="translate(95.410156 0)"/>
       <use xlink:href="#DejaVuSans-30" transform="translate(159.033203 0)"/>
      </g>
     </g>
    </g>
    <g id="xtick_8">
     <g id="line2d_8">
      <g>
       <use xlink:href="#mdee72d2555" x="511.334331" y="398.64351" style="stroke: #000000; stroke-width: 0.8"/>
      </g>
     </g>
     <g id="text_8">
      <!-- 0.80 -->
      <g transform="translate(500.201518 413.241947) scale(0.1 -0.1)">
       <defs>
        <path id="DejaVuSans-38" d="M 2034 2216 
Q 1584 2216 1326 1975 
Q 1069 1734 1069 1313 
Q 1069 891 1326 650 
Q 1584 409 2034 409 
Q 2484 409 2743 651 
Q 3003 894 3003 1313 
Q 3003 1734 2745 1975 
Q 2488 2216 2034 2216 
z
M 1403 2484 
Q 997 2584 770 2862 
Q 544 3141 544 3541 
Q 544 4100 942 4425 
Q 1341 4750 2034 4750 
Q 2731 4750 3128 4425 
Q 3525 4100 3525 3541 
Q 3525 3141 3298 2862 
Q 3072 2584 2669 2484 
Q 3125 2378 3379 2068 
Q 3634 1759 3634 1313 
Q 3634 634 3220 271 
Q 2806 -91 2034 -91 
Q 1263 -91 848 271 
Q 434 634 434 1313 
Q 434 1759 690 2068 
Q 947 2378 1403 2484 
z
M 1172 3481 
Q 1172 3119 1398 2916 
Q 1625 2713 2034 2713 
Q 2441 2713 2670 2916 
Q 2900 3119 2900 3481 
Q 2900 3844 2670 4047 
Q 2441 4250 2034 4250 
Q 1625 4250 1398 4047 
Q 1172 3844 1172 3481 
z
" transform="scale(0.015625)"/>
       </defs>
       <use xlink:href="#DejaVuSans-30"/>
       <use xlink:href="#DejaVuSans-2e" transform="translate(63.623047 0)"/>
       <use xlink:href="#DejaVuSans-38" transform="translate(95.410156 0)"/>
       <use xlink:href="#DejaVuSans-30" transform="translate(159.033203 0)"/>
      </g>
     </g>
    </g>
    <g id="text_9">
     <!-- Time (s) -->
     <g transform="translate(288.5625 426.920073) scale(0.1 -0.1)">
      <defs>
       <path id="DejaVuSans-54" d="M -19 4666 
L 3928 4666 
L 3928 4134 
L 2272 4134 
L 2272 0 
L 1638 0 
L 1638 4134 
L -19 4134 
L -19 4666 
z
" transform="scale(0.015625)"/>
       <path id="DejaVuSans-69" d="M 603 3500 
L 1178 3500 
L 1178 0 
L 603 0 
L 603 3500 
z
M 603 4863 
L 1178 4863 
L 1178 4134 
L 603 4134 
L 603 4863 
z
" transform="scale(0.015625)"/>
       <path id="DejaVuSans-6d" d="M 3328 2828 
Q 3544 3216 3844 3400 
Q 4144 3584 4550 3584 
Q 5097 3584 5394 3201 
Q 5691 2819 5691 2113 
L 5691 0 
L 5113 0 
L 5113 2094 
Q 5113 2597 4934 2840 
Q 4756 3084 4391 3084 
Q 3944 3084 3684 2787 
Q 3425 2491 3425 1978 
L 3425 0 
L 2847 0 
L 2847 2094 
Q 2847 2600 2669 2842 
Q 2491 3084 2119 3084 
Q 1678 3084 1418 2786 
Q 1159 2488 1159 1978 
L 1159 0 
L 581 0 
L 581 3500 
L 1159 3500 
L 1159 2956 
Q 1356 3278 1631 3431 
Q 1906 3584 2284 3584 
Q 2666 3584 2933 3390 
Q 3200 3197 3328 2828 
z
" transform="scale(0.015625)"/>
       <path id="DejaVuSans-65" d="M 3597 1894 
L 3597 1613 
L 953 1613 
Q 991 1019 1311 708 
Q 1631 397 2203 397 
Q 2534 397 2845 478 
Q 3156 559 3463 722 
L 3463 178 
Q 3153 47 2828 -22 
Q 2503 -91 2169 -91 
Q 1331 -91 842 396 
Q 353 884 353 1716 
Q 353 2575 817 3079 
Q 1281 3584 2069 3584 
Q 2775 3584 3186 3129 
Q 3597 2675 3597 1894 
z
M 3022 2063 
Q 3016 2534 2758 2815 
Q 2500 3097 2075 3097 
Q 1594 3097 1305 2825 
Q 1016 2553 972 2059 
L 3022 2063 
z
" transform="scale(0.015625)"/>
       <path id="DejaVuSans-20" transform="scale(0.015625)"/>
       <path id="DejaVuSans-28" d="M 1984 4856 
Q 1566 4138 1362 3434 
Q 1159 2731 1159 2009 
Q 1159 1288 1364 580 
Q 1569 -128 1984 -844 
L 1484 -844 
Q 1016 -109 783 600 
Q 550 1309 550 2009 
Q 550 2706 781 3412 
Q 1013 4119 1484 4856 
L 1984 4856 
z
" transform="scale(0.015625)"/>
       <path id="DejaVuSans-73" d="M 2834 3397 
L 2834 2853 
Q 2591 2978 2328 3040 
Q 2066 3103 1784 3103 
Q 1356 3103 1142 2972 
Q 928 2841 928 2578 
Q 928 2378 1081 2264 
Q 1234 2150 1697 2047 
L 1894 2003 
Q 2506 1872 2764 1633 
Q 3022 1394 3022 966 
Q 3022 478 2636 193 
Q 2250 -91 1575 -91 
Q 1294 -91 989 -36 
Q 684 19 347 128 
L 347 722 
Q 666 556 975 473 
Q 1284 391 1588 391 
Q 1994 391 2212 530 
Q 2431 669 2431 922 
Q 2431 1156 2273 1281 
Q 2116 1406 1581 1522 
L 1381 1569 
Q 847 1681 609 1914 
Q 372 2147 372 2553 
Q 372 3047 722 3315 
Q 1072 3584 1716 3584 
Q 2034 3584 2315 3537 
Q 2597 3491 2834 3397 
z
" transform="scale(0.015625)"/>
       <path id="DejaVuSans-29" d="M 513 4856 
L 1013 4856 
Q 1481 4119 1714 3412 
Q 1947 2706 1947 2009 
Q 1947 1309 1714 600 
Q 1481 -109 1013 -844 
L 513 -844 
Q 928 -128 1133 580 
Q 1338 1288 1338 2009 
Q 1338 2731 1133 3434 
Q 928 4138 513 4856 
z
" transform="scale(0.015625)"/>
      </defs>
      <use xlink:href="#DejaVuSans-54"/>
      <use xlink:href="#DejaVuSans-69" transform="translate(57.958984 0)"/>
      <use xlink:href="#DejaVuSans-6d" transform="translate(85.742188 0)"/>
      <use xlink:href="#DejaVuSans-65" transform="translate(183.154297 0)"/>
      <use xlink:href="#DejaVuSans-20" transform="translate(244.677734 0)"/>
      <use xlink:href="#DejaVuSans-28" transform="translate(276.464844 0)"/>
      <use xlink:href="#DejaVuSans-73" transform="translate(315.478516 0)"/>
      <use xlink:href="#DejaVuSans-29" transform="translate(367.578125 0)"/>
     </g>
    </g>
   </g>
   <g id="matplotlib.axis_2">
    <g id="ytick_1">
     <g id="line2d_9">
      <defs>
       <path id="mbcc0ff1f04" d="M 0 0 
L -3.5 0 
" style="stroke: #000000; stroke-width: 0.8"/>
      </defs>
      <g>
       <use xlink:href="#mbcc0ff1f04" x="44.783053" y="364.292923" style="stroke: #000000; stroke-width: 0.8"/>
      </g>
     </g>
     <g id="text_10">
      <!-- −10 -->
      <g transform="translate(16.678365 368.092142) scale(0.1 -0.1)">
       <use xlink:href="#DejaVuSans-2212"/>
       <use xlink:href="#DejaVuSans-31" transform="translate(83.789062 0)"/>
       <use xlink:href="#DejaVuSans-30" transform="translate(147.412109 0)"/>
      </g>
     </g>
    </g>
    <g id="ytick_2">
     <g id="line2d_10">
      <g>
       <use xlink:href="#mbcc0ff1f04" x="44.783053" y="286.33693" style="stroke: #000000; stroke-width: 0.8"/>
      </g>
     </g>
     <g id="text_11">
      <!-- −5 -->
      <g transform="translate(23.040865 290.136149) scale(0.1 -0.1)">
       <defs>
        <path id="DejaVuSans-35" d="M 691 4666 
L 3169 4666 
L 3169 4134 
L 1269 4134 
L 1269 2991 
Q 1406 3038 1543 3061 
Q 1681 3084 1819 3084 
Q 2600 3084 3056 2656 
Q 3513 2228 3513 1497 
Q 3513 744 3044 326 
Q 2575 -91 1722 -91 
Q 1428 -91 1123 -41 
Q 819 9 494 109 
L 494 744 
Q 775 591 1075 516 
Q 1375 441 1709 441 
Q 2250 441 2565 725 
Q 2881 1009 2881 1497 
Q 2881 1984 2565 2268 
Q 2250 2553 1709 2553 
Q 1456 2553 1204 2497 
Q 953 2441 691 2322 
L 691 4666 
z
" transform="scale(0.015625)"/>
       </defs>
       <use xlink:href="#DejaVuSans-2212"/>
       <use xlink:href="#DejaVuSans-35" transform="translate(83.789062 0)"/>
      </g>
     </g>
    </g>
    <g id="ytick_3">
     <g id="line2d_11">
      <g>
       <use xlink:href="#mbcc0ff1f04" x="44.783053" y="208.380937" style="stroke: #000000; stroke-width: 0.8"/>
      </g>
     </g>
     <g id="text_12">
      <!-- 0 -->
      <g transform="translate(31.420553 212.180156) scale(0.1 -0.1)">
       <use xlink:href="#DejaVuSans-30"/>
      </g>
     </g>
    </g>
    <g id="ytick_4">
     <g id="line2d_12">
      <g>
       <use xlink:href="#mbcc0ff1f04" x="44.783053" y="130.424945" style="stroke: #000000; stroke-width: 0.8"/>
      </g>
     </g>
     <g id="text_13">
      <!-- 5 -->
      <g transform="translate(31.420553 134.224163) scale(0.1 -0.1)">
       <use xlink:href="#DejaVuSans-35"/>
      </g>
     </g>
    </g>
    <g id="ytick_5">
     <g id="line2d_13">
      <g>
       <use xlink:href="#mbcc0ff1f04" x="44.783053" y="52.468952" style="stroke: #000000; stroke-width: 0.8"/>
      </g>
     </g>
     <g id="text_14">
      <!-- 10 -->
      <g transform="translate(25.058053 56.26817) scale(0.1 -0.1)">
       <use xlink:href="#DejaVuSans-31"/>
       <use xlink:href="#DejaVuSans-30" transform="translate(63.623047 0)"/>
      </g>
     </g>
    </g>
    <g id="text_15">
     <!-- µV -->
     <g transform="translate(10.598678 214.9825) rotate(-90) scale(0.1 -0.1)">
      <defs>
       <path id="DejaVuSans-b5" d="M 544 -1331 
L 544 3500 
L 1119 3500 
L 1119 1325 
Q 1119 872 1334 640 
Q 1550 409 1972 409 
Q 2434 409 2667 671 
Q 2900 934 2900 1459 
L 2900 3500 
L 3475 3500 
L 3475 806 
Q 3475 619 3529 530 
Q 3584 441 3700 441 
Q 3728 441 3778 458 
Q 3828 475 3916 513 
L 3916 50 
Q 3788 -22 3673 -56 
Q 3559 -91 3450 -91 
Q 3234 -91 3106 31 
Q 2978 153 2931 403 
Q 2775 156 2548 32 
Q 2322 -91 2016 -91 
Q 1697 -91 1473 31 
Q 1250 153 1119 397 
L 1119 -1331 
L 544 -1331 
z
" transform="scale(0.015625)"/>
       <path id="DejaVuSans-56" d="M 1831 0 
L 50 4666 
L 709 4666 
L 2188 738 
L 3669 4666 
L 4325 4666 
L 2547 0 
L 1831 0 
z
" transform="scale(0.015625)"/>
      </defs>
      <use xlink:href="#DejaVuSans-b5"/>
      <use xlink:href="#DejaVuSans-56" transform="translate(63.623047 0)"/>
     </g>
    </g>
   </g>
   <g id="patch_4">
    <path d="M 70.866979 398.64351 
L 511.334331 398.64351 
" style="fill: none; stroke: #000000; stroke-width: 0.8; stroke-linejoin: miter; stroke-linecap: square"/>
   </g>
   <g id="patch_5">
    <path d="M 44.783053 208.380937 
L 572.99976 208.380937 
" style="fill: none; stroke: #000000; stroke-width: 0.8; stroke-linejoin: miter; stroke-linecap: square"/>
   </g>
   <g id="text_16">
    <!-- xyl N100: F4, FC4, F3, FC3 (mean) -->
    <g transform="translate(205.847031 12.118365) scale(0.12 -0.12)">
     <defs>
      <path id="DejaVuSans-78" d="M 3513 3500 
L 2247 1797 
L 3578 0 
L 2900 0 
L 1881 1375 
L 863 0 
L 184 0 
L 1544 1831 
L 300 3500 
L 978 3500 
L 1906 2253 
L 2834 3500 
L 3513 3500 
z
" transform="scale(0.015625)"/>
      <path id="DejaVuSans-79" d="M 2059 -325 
Q 1816 -950 1584 -1140 
Q 1353 -1331 966 -1331 
L 506 -1331 
L 506 -850 
L 844 -850 
Q 1081 -850 1212 -737 
Q 1344 -625 1503 -206 
L 1606 56 
L 191 3500 
L 800 3500 
L 1894 763 
L 2988 3500 
L 3597 3500 
L 2059 -325 
z
" transform="scale(0.015625)"/>
      <path id="DejaVuSans-6c" d="M 603 4863 
L 1178 4863 
L 1178 0 
L 603 0 
L 603 4863 
z
" transform="scale(0.015625)"/>
      <path id="DejaVuSans-4e" d="M 628 4666 
L 1478 4666 
L 3547 763 
L 3547 4666 
L 4159 4666 
L 4159 0 
L 3309 0 
L 1241 3903 
L 1241 0 
L 628 0 
L 628 4666 
z
" transform="scale(0.015625)"/>
      <path id="DejaVuSans-3a" d="M 750 794 
L 1409 794 
L 1409 0 
L 750 0 
L 750 794 
z
M 750 3309 
L 1409 3309 
L 1409 2516 
L 750 2516 
L 750 3309 
z
" transform="scale(0.015625)"/>
      <path id="DejaVuSans-46" d="M 628 4666 
L 3309 4666 
L 3309 4134 
L 1259 4134 
L 1259 2759 
L 3109 2759 
L 3109 2228 
L 1259 2228 
L 1259 0 
L 628 0 
L 628 4666 
z
" transform="scale(0.015625)"/>
      <path id="DejaVuSans-2c" d="M 750 794 
L 1409 794 
L 1409 256 
L 897 -744 
L 494 -744 
L 750 256 
L 750 794 
z
" transform="scale(0.015625)"/>
      <path id="DejaVuSans-43" d="M 4122 4306 
L 4122 3641 
Q 3803 3938 3442 4084 
Q 3081 4231 2675 4231 
Q 1875 4231 1450 3742 
Q 1025 3253 1025 2328 
Q 1025 1406 1450 917 
Q 1875 428 2675 428 
Q 3081 428 3442 575 
Q 3803 722 4122 1019 
L 4122 359 
Q 3791 134 3420 21 
Q 3050 -91 2638 -91 
Q 1578 -91 968 557 
Q 359 1206 359 2328 
Q 359 3453 968 4101 
Q 1578 4750 2638 4750 
Q 3056 4750 3426 4639 
Q 3797 4528 4122 4306 
z
" transform="scale(0.015625)"/>
      <path id="DejaVuSans-61" d="M 2194 1759 
Q 1497 1759 1228 1600 
Q 959 1441 959 1056 
Q 959 750 1161 570 
Q 1363 391 1709 391 
Q 2188 391 2477 730 
Q 2766 1069 2766 1631 
L 2766 1759 
L 2194 1759 
z
M 3341 1997 
L 3341 0 
L 2766 0 
L 2766 531 
Q 2569 213 2275 61 
Q 1981 -91 1556 -91 
Q 1019 -91 701 211 
Q 384 513 384 1019 
Q 384 1609 779 1909 
Q 1175 2209 1959 2209 
L 2766 2209 
L 2766 2266 
Q 2766 2663 2505 2880 
Q 2244 3097 1772 3097 
Q 1472 3097 1187 3025 
Q 903 2953 641 2809 
L 641 3341 
Q 956 3463 1253 3523 
Q 1550 3584 1831 3584 
Q 2591 3584 2966 3190 
Q 3341 2797 3341 1997 
z
" transform="scale(0.015625)"/>
      <path id="DejaVuSans-6e" d="M 3513 2113 
L 3513 0 
L 2938 0 
L 2938 2094 
Q 2938 2591 2744 2837 
Q 2550 3084 2163 3084 
Q 1697 3084 1428 2787 
Q 1159 2491 1159 1978 
L 1159 0 
L 581 0 
L 581 3500 
L 1159 3500 
L 1159 2956 
Q 1366 3272 1645 3428 
Q 1925 3584 2291 3584 
Q 2894 3584 3203 3211 
Q 3513 2838 3513 2113 
z
" transform="scale(0.015625)"/>
     </defs>
     <use xlink:href="#DejaVuSans-78"/>
     <use xlink:href="#DejaVuSans-79" transform="translate(59.179688 0)"/>
     <use xlink:href="#DejaVuSans-6c" transform="translate(118.359375 0)"/>
     <use xlink:href="#DejaVuSans-20" transform="translate(146.142578 0)"/>
     <use xlink:href="#DejaVuSans-4e" transform="translate(177.929688 0)"/>
     <use xlink:href="#DejaVuSans-31" transform="translate(252.734375 0)"/>
     <use xlink:href="#DejaVuSans-30" transform="translate(316.357422 0)"/>
     <use xlink:href="#DejaVuSans-30" transform="translate(379.980469 0)"/>
     <use xlink:href="#DejaVuSans-3a" transform="translate(443.603516 0)"/>
     <use xlink:href="#DejaVuSans-20" transform="translate(477.294922 0)"/>
     <use xlink:href="#DejaVuSans-46" transform="translate(509.082031 0)"/>
     <use xlink:href="#DejaVuSans-34" transform="translate(566.601562 0)"/>
     <use xlink:href="#DejaVuSans-2c" transform="translate(630.224609 0)"/>
     <use xlink:href="#DejaVuSans-20" transform="translate(662.011719 0)"/>
     <use xlink:href="#DejaVuSans-46" transform="translate(693.798828 0)"/>
     <use xlink:href="#DejaVuSans-43" transform="translate(751.318359 0)"/>
     <use xlink:href="#DejaVuSans-34" transform="translate(821.142578 0)"/>
     <use xlink:href="#DejaVuSans-2c" transform="translate(884.765625 0)"/>
     <use xlink:href="#DejaVuSans-20" transform="translate(916.552734 0)"/>
     <use xlink:href="#DejaVuSans-46" transform="translate(948.339844 0)"/>
     <use xlink:href="#DejaVuSans-33" transform="translate(1005.859375 0)"/>
     <use xlink:href="#DejaVuSans-2c" transform="translate(1069.482422 0)"/>
     <use xlink:href="#DejaVuSans-20" transform="translate(1101.269531 0)"/>
     <use xlink:href="#DejaVuSans-46" transform="translate(1133.056641 0)"/>
     <use xlink:href="#DejaVuSans-43" transform="translate(1190.576172 0)"/>
     <use xlink:href="#DejaVuSans-33" transform="translate(1260.400391 0)"/>
     <use xlink:href="#DejaVuSans-20" transform="translate(1324.023438 0)"/>
     <use xlink:href="#DejaVuSans-28" transform="translate(1355.810547 0)"/>
     <use xlink:href="#DejaVuSans-6d" transform="translate(1394.824219 0)"/>
     <use xlink:href="#DejaVuSans-65" transform="translate(1492.236328 0)"/>
     <use xlink:href="#DejaVuSans-61" transform="translate(1553.759766 0)"/>
     <use xlink:href="#DejaVuSans-6e" transform="translate(1615.039062 0)"/>
     <use xlink:href="#DejaVuSans-29" transform="translate(1678.417969 0)"/>
    </g>
   </g>
   <g id="legend_1">
    <g id="patch_6">
     <path d="M 51.783053 55.75274 
L 132.92524 55.75274 
Q 134.92524 55.75274 134.92524 53.75274 
L 134.92524 25.118365 
Q 134.92524 23.118365 132.92524 23.118365 
L 51.783053 23.118365 
Q 49.783053 23.118365 49.783053 25.118365 
L 49.783053 53.75274 
Q 49.783053 55.75274 51.783053 55.75274 
z
" style="fill: #ffffff; opacity: 0.8; stroke: #cccccc; stroke-linejoin: miter"/>
    </g>
    <g id="line2d_14">
     <path d="M 53.783053 31.216803 
L 63.783053 31.216803 
L 73.783052 31.216803 
" style="fill: none; stroke: #1f77b4; stroke-width: 1.5; stroke-linecap: square"/>
    </g>
    <g id="text_17">
     <!-- eerie -->
     <g transform="translate(81.783052 34.716803) scale(0.1 -0.1)">
      <defs>
       <path id="DejaVuSans-72" d="M 2631 2963 
Q 2534 3019 2420 3045 
Q 2306 3072 2169 3072 
Q 1681 3072 1420 2755 
Q 1159 2438 1159 1844 
L 1159 0 
L 581 0 
L 581 3500 
L 1159 3500 
L 1159 2956 
Q 1341 3275 1631 3429 
Q 1922 3584 2338 3584 
Q 2397 3584 2469 3576 
Q 2541 3569 2628 3553 
L 2631 2963 
z
" transform="scale(0.015625)"/>
      </defs>
      <use xlink:href="#DejaVuSans-65"/>
      <use xlink:href="#DejaVuSans-65" transform="translate(61.523438 0)"/>
      <use xlink:href="#DejaVuSans-72" transform="translate(123.046875 0)"/>
      <use xlink:href="#DejaVuSans-69" transform="translate(164.160156 0)"/>
      <use xlink:href="#DejaVuSans-65" transform="translate(191.943359 0)"/>
     </g>
    </g>
    <g id="line2d_15">
     <path d="M 53.783053 45.894928 
L 63.783053 45.894928 
L 73.783052 45.894928 
" style="fill: none; stroke: #ff7f0e; stroke-width: 1.5; stroke-linecap: square"/>
    </g>
    <g id="text_18">
     <!-- non_eerie -->
     <g transform="translate(81.783052 49.394928) scale(0.1 -0.1)">
      <defs>
       <path id="DejaVuSans-6f" d="M 1959 3097 
Q 1497 3097 1228 2736 
Q 959 2375 959 1747 
Q 959 1119 1226 758 
Q 1494 397 1959 397 
Q 2419 397 2687 759 
Q 2956 1122 2956 1747 
Q 2956 2369 2687 2733 
Q 2419 3097 1959 3097 
z
M 1959 3584 
Q 2709 3584 3137 3096 
Q 3566 2609 3566 1747 
Q 3566 888 3137 398 
Q 2709 -91 1959 -91 
Q 1206 -91 779 398 
Q 353 888 353 1747 
Q 353 2609 779 3096 
Q 1206 3584 1959 3584 
z
" transform="scale(0.015625)"/>
       <path id="DejaVuSans-5f" d="M 3263 -1063 
L 3263 -1509 
L -63 -1509 
L -63 -1063 
L 3263 -1063 
z
" transform="scale(0.015625)"/>
      </defs>
      <use xlink:href="#DejaVuSans-6e"/>
      <use xlink:href="#DejaVuSans-6f" transform="translate(63.378906 0)"/>
      <use xlink:href="#DejaVuSans-6e" transform="translate(124.560547 0)"/>
      <use xlink:href="#DejaVuSans-5f" transform="translate(187.939453 0)"/>
      <use xlink:href="#DejaVuSans-65" transform="translate(237.939453 0)"/>
      <use xlink:href="#DejaVuSans-65" transform="translate(299.462891 0)"/>
      <use xlink:href="#DejaVuSans-72" transform="translate(360.986328 0)"/>
      <use xlink:href="#DejaVuSans-69" transform="translate(402.099609 0)"/>
      <use xlink:href="#DejaVuSans-65" transform="translate(429.882812 0)"/>
     </g>
    </g>
   </g>
   <g id="line2d_16">
    <path d="M 44.783053 222.593982 
L 46.503628 224.883136 
L 48.224204 223.174317 
L 49.944779 218.262547 
L 51.665355 212.64807 
L 53.38593 209.137914 
L 55.106506 209.215765 
L 56.827082 212.227667 
L 58.547657 215.869072 
L 60.268233 217.655425 
L 61.988808 216.394025 
L 63.709384 212.734242 
L 65.42996 208.56863 
L 67.150535 205.756313 
L 68.871111 205.030746 
L 72.312262 206.348376 
L 74.032838 205.653656 
L 75.753413 203.312554 
L 77.473989 200.025006 
L 79.194564 197.004173 
L 80.91514 195.239289 
L 82.635716 194.980574 
L 86.076867 196.485206 
L 87.797442 196.643174 
L 91.238594 195.61846 
L 92.959169 196.107153 
L 94.679745 198.329273 
L 96.40032 202.278784 
L 99.841472 211.763744 
L 101.562047 215.187107 
L 103.282623 217.198126 
L 105.003198 218.243089 
L 108.444349 219.671086 
L 110.164925 220.063287 
L 111.885501 219.543583 
L 113.606076 217.702041 
L 115.326652 214.736 
L 117.047227 211.389746 
L 118.767803 208.509589 
L 120.488379 206.548907 
L 122.208954 205.392312 
L 125.650105 203.948635 
L 127.370681 203.476948 
L 129.091257 203.480765 
L 132.532408 204.495947 
L 134.252983 204.109899 
L 135.973559 202.15258 
L 137.694135 198.771661 
L 139.41471 195.0804 
L 141.135286 192.62531 
L 142.855861 192.463439 
L 144.576437 194.453263 
L 146.297013 197.223909 
L 148.017588 198.974174 
L 149.738164 198.589974 
L 151.458739 196.343823 
L 153.179315 193.725148 
L 154.899891 192.469009 
L 156.620466 193.406152 
L 160.061617 198.433657 
L 161.782193 199.478496 
L 163.502769 198.815497 
L 165.223344 197.596853 
L 166.94392 197.551198 
L 168.664495 199.692705 
L 172.105646 207.222325 
L 173.826222 208.990765 
L 175.546798 208.172456 
L 177.267373 205.735239 
L 178.987949 203.490875 
L 180.708524 202.724 
L 182.4291 203.228851 
L 184.149676 203.494434 
L 185.870251 201.894986 
L 187.590827 197.967242 
L 189.311402 192.827594 
L 191.031978 188.370406 
L 192.752554 185.928077 
L 194.473129 185.459457 
L 196.193705 185.847848 
L 197.91428 186.057287 
L 199.634856 186.119012 
L 201.355432 187.092166 
L 203.076007 189.916492 
L 204.796583 194.07076 
L 206.517158 197.168413 
L 208.237734 195.93669 
L 209.95831 188.002555 
L 211.678885 173.267012 
L 213.399461 153.899508 
L 216.840612 112.971604 
L 218.561188 94.555469 
L 222.002339 61.072609 
L 223.722914 46.239031 
L 225.44349 34.307692 
L 227.164066 26.536815 
L 228.884641 22.959753 
L 230.605217 22.147198 
L 232.325792 22.007661 
L 234.046368 21.067331 
L 235.766943 19.320902 
L 237.487519 18.118365 
L 239.208095 19.239239 
L 240.92867 23.858296 
L 242.649246 32.033064 
L 244.369821 42.912346 
L 247.810973 68.406055 
L 251.252124 94.209626 
L 252.972699 106.063582 
L 254.693275 116.503551 
L 256.413851 125.055451 
L 258.134426 131.476331 
L 259.855002 135.786734 
L 261.575577 138.17448 
L 263.296153 138.901642 
L 265.016729 138.30795 
L 266.737304 136.882457 
L 268.45788 135.278715 
L 270.178455 134.177307 
L 271.899031 134.059828 
L 273.619607 135.001245 
L 277.060758 138.260226 
L 278.781333 139.242097 
L 280.501909 139.12313 
L 282.222485 137.790691 
L 283.94306 135.421397 
L 285.663636 132.366049 
L 289.104787 125.823974 
L 290.825363 122.979853 
L 292.545938 120.595767 
L 295.987089 116.529645 
L 297.707665 114.042026 
L 299.42824 110.568786 
L 301.148816 105.637063 
L 302.869392 98.94712 
L 304.589967 90.488116 
L 308.031118 70.148103 
L 309.751694 60.070685 
L 311.47227 51.449469 
L 313.192845 45.031647 
L 314.913421 40.997186 
L 316.633996 38.948083 
L 318.354572 38.117569 
L 321.795723 37.442529 
L 323.516299 37.226366 
L 325.236874 37.448502 
L 326.95745 38.461915 
L 328.678026 40.359308 
L 330.398601 42.917458 
L 335.560328 51.252184 
L 339.001479 56.267524 
L 340.722055 58.358431 
L 342.44263 59.69889 
L 344.163206 59.930983 
L 345.883782 58.987629 
L 349.324933 55.350237 
L 351.045508 54.087517 
L 352.766084 53.902117 
L 354.48666 54.803652 
L 357.927811 57.996021 
L 359.648386 59.121559 
L 361.368962 59.533266 
L 363.089537 59.459952 
L 364.810113 59.512783 
L 366.530689 60.432674 
L 368.251264 62.69666 
L 369.97184 66.186085 
L 371.692415 70.078384 
L 373.412991 73.129417 
L 375.133567 74.257078 
L 376.854142 73.129031 
L 380.295293 67.534062 
L 382.015869 65.879612 
L 383.736445 66.198565 
L 385.45702 68.273022 
L 388.898171 74.095973 
L 394.059898 81.469639 
L 395.780474 84.8819 
L 399.221625 93.312659 
L 400.942201 97.495588 
L 404.383352 104.983765 
L 407.824503 111.79895 
L 409.545079 114.749362 
L 411.265654 117.252643 
L 414.706805 121.938675 
L 416.427381 124.933178 
L 421.589108 135.690724 
L 423.309683 138.239124 
L 425.030259 139.840667 
L 426.750834 140.652801 
L 428.47141 140.866363 
L 430.191986 140.583152 
L 433.633137 139.309357 
L 435.353712 139.369776 
L 437.074288 140.800216 
L 438.794864 143.805583 
L 442.236015 151.598616 
L 443.95659 154.012986 
L 445.677166 154.612545 
L 449.118317 153.239253 
L 450.838893 153.399579 
L 452.559468 154.528477 
L 454.280044 155.821448 
L 456.00062 156.199606 
L 457.721195 155.100223 
L 459.441771 152.851019 
L 461.162346 150.391434 
L 462.882922 148.561593 
L 464.603498 147.521236 
L 466.324073 146.755381 
L 468.044649 145.596981 
L 471.4858 141.919297 
L 473.206376 140.63419 
L 474.926951 140.465179 
L 476.647527 141.247839 
L 478.368102 142.340694 
L 480.088678 143.186829 
L 481.809253 143.830375 
L 483.529829 144.939783 
L 485.250405 147.341806 
L 486.97098 151.399792 
L 492.132707 167.444459 
L 493.853283 171.446466 
L 495.573858 174.469709 
L 497.294434 176.843278 
L 499.015009 178.801793 
L 500.735585 180.35174 
L 502.456161 181.426194 
L 505.897312 182.736808 
L 507.617887 183.728999 
L 509.338463 185.326888 
L 511.059039 187.460288 
L 514.50019 192.106396 
L 516.220765 194.143882 
L 517.941341 195.905829 
L 519.661917 197.362704 
L 521.382492 198.406856 
L 523.103068 198.9411 
L 524.823643 199.02299 
L 526.544219 198.92487 
L 528.264795 198.994594 
L 529.98537 199.39935 
L 531.705946 199.96974 
L 533.426521 200.284127 
L 535.147097 199.976548 
L 536.867673 199.035545 
L 538.588248 197.831165 
L 540.308824 196.843713 
L 542.029399 196.279633 
L 543.749975 195.90582 
L 545.47055 195.251491 
L 547.191126 194.032517 
L 548.911702 192.497528 
L 550.632277 191.404176 
L 552.352853 191.60656 
L 554.073428 193.516743 
L 555.794004 196.799301 
L 557.51458 200.532027 
L 559.235155 203.70722 
L 560.955731 205.755063 
L 562.676306 206.758812 
L 566.117458 207.833634 
L 567.838033 208.71141 
L 571.279184 210.768962 
L 572.99976 211.642719 
L 572.99976 211.642719 
" style="fill: none; stroke: #1f77b4; stroke-width: 1.5; stroke-linecap: square"/>
   </g>
   <g id="line2d_17">
    <path d="M 44.783053 198.080923 
L 46.503628 200.69039 
L 48.224204 203.888994 
L 49.944779 206.737614 
L 51.665355 208.644512 
L 53.38593 209.573182 
L 55.106506 209.877989 
L 56.827082 209.927851 
L 58.547657 209.825174 
L 60.268233 209.369763 
L 61.988808 208.292236 
L 63.709384 206.535872 
L 67.150535 202.345148 
L 68.871111 200.874283 
L 70.591686 200.166272 
L 72.312262 200.11984 
L 74.032838 200.458074 
L 79.194564 201.976846 
L 87.797442 204.990586 
L 89.518018 205.879829 
L 91.238594 207.027356 
L 94.679745 209.555347 
L 96.40032 210.578987 
L 98.120896 211.373972 
L 101.562047 212.601662 
L 103.282623 212.940295 
L 105.003198 212.755552 
L 106.723774 211.808929 
L 108.444349 210.189971 
L 110.164925 208.404765 
L 111.885501 207.178657 
L 113.606076 207.072878 
L 115.326652 208.164327 
L 117.047227 210.039572 
L 118.767803 212.082146 
L 120.488379 213.894323 
L 127.370681 220.253298 
L 129.091257 220.839552 
L 130.811832 220.125537 
L 134.252983 216.535411 
L 135.973559 215.792899 
L 137.694135 216.695508 
L 139.41471 218.699925 
L 141.135286 220.372638 
L 142.855861 220.241076 
L 144.576437 217.735879 
L 148.017588 209.411474 
L 149.738164 206.684955 
L 151.458739 205.928363 
L 153.179315 206.519494 
L 154.899891 207.290493 
L 156.620466 207.388623 
L 160.061617 206.180971 
L 161.782193 206.286322 
L 163.502769 207.36163 
L 168.664495 212.598158 
L 170.385071 214.448223 
L 172.105646 216.787572 
L 173.826222 219.540176 
L 175.546798 221.9534 
L 177.267373 222.878223 
L 178.987949 221.449951 
L 180.708524 217.698131 
L 182.4291 212.701038 
L 184.149676 208.122901 
L 185.870251 205.463034 
L 187.590827 205.422888 
L 189.311402 207.691439 
L 192.752554 214.782819 
L 194.473129 217.410355 
L 196.193705 218.82217 
L 199.634856 219.997683 
L 201.355432 221.332662 
L 204.796583 225.823358 
L 206.517158 226.393319 
L 208.237734 223.16447 
L 209.95831 214.556577 
L 211.678885 200.223101 
L 213.399461 181.213933 
L 220.281763 95.034665 
L 222.002339 76.528795 
L 223.722914 60.33617 
L 225.44349 47.330933 
L 227.164066 38.393053 
L 228.884641 33.803949 
L 230.605217 32.8708 
L 232.325792 34.123529 
L 235.766943 37.92869 
L 237.487519 40.180283 
L 239.208095 44.117091 
L 240.92867 51.125072 
L 242.649246 61.840534 
L 244.369821 75.762409 
L 247.810973 107.09308 
L 249.531548 121.177081 
L 251.252124 132.79463 
L 252.972699 141.668304 
L 254.693275 147.931396 
L 256.413851 151.878493 
L 258.134426 153.868045 
L 259.855002 154.357649 
L 263.296153 153.5944 
L 265.016729 154.017493 
L 266.737304 155.836463 
L 268.45788 159.086283 
L 271.899031 167.197608 
L 273.619607 170.125633 
L 275.340182 171.461203 
L 277.060758 171.298189 
L 278.781333 170.183824 
L 280.501909 168.684823 
L 282.222485 167.016119 
L 283.94306 164.995994 
L 285.663636 162.336667 
L 289.104787 155.622378 
L 290.825363 152.737444 
L 292.545938 150.766394 
L 294.266514 149.327086 
L 295.987089 147.342413 
L 297.707665 143.590984 
L 299.42824 137.424275 
L 301.148816 129.188377 
L 304.589967 111.258246 
L 306.310543 103.791932 
L 308.031118 97.875444 
L 309.751694 93.33747 
L 311.47227 89.983521 
L 313.192845 87.792296 
L 314.913421 86.775962 
L 316.633996 86.696922 
L 318.354572 86.972753 
L 320.075148 86.94541 
L 321.795723 86.335967 
L 323.516299 85.517569 
L 325.236874 85.316327 
L 326.95745 86.431933 
L 328.678026 88.891674 
L 330.398601 91.913107 
L 332.119177 94.321192 
L 333.839752 95.211723 
L 335.560328 94.459833 
L 339.001479 91.135461 
L 340.722055 90.449091 
L 342.44263 90.968689 
L 344.163206 92.439504 
L 349.324933 98.227704 
L 352.766084 101.626899 
L 354.48666 103.109374 
L 356.207235 104.302031 
L 357.927811 105.139486 
L 361.368962 106.306167 
L 363.089537 107.224559 
L 364.810113 108.665142 
L 368.251264 112.422673 
L 369.97184 113.740612 
L 371.692415 114.008451 
L 373.412991 113.085561 
L 375.133567 111.241275 
L 378.574718 106.870016 
L 380.295293 105.106005 
L 382.015869 103.691476 
L 383.736445 102.501409 
L 385.45702 101.511689 
L 387.177596 100.853994 
L 388.898171 100.708697 
L 390.618747 101.100285 
L 394.059898 102.412821 
L 395.780474 102.694402 
L 400.942201 102.654572 
L 404.383352 103.196138 
L 406.103927 103.103651 
L 407.824503 102.567885 
L 409.545079 101.801815 
L 411.265654 101.200623 
L 412.98623 101.075176 
L 414.706805 101.488844 
L 416.427381 102.322991 
L 418.147956 103.464737 
L 419.868532 104.98142 
L 421.589108 107.080395 
L 423.309683 109.889295 
L 426.750834 116.688173 
L 428.47141 119.636348 
L 430.191986 121.704599 
L 431.912561 122.844526 
L 433.633137 123.294612 
L 438.794864 123.633843 
L 440.515439 124.234423 
L 442.236015 125.462606 
L 443.95659 127.442882 
L 447.397742 132.738089 
L 449.118317 134.891782 
L 450.838893 135.960365 
L 452.559468 135.88577 
L 454.280044 135.182756 
L 456.00062 134.72549 
L 457.721195 135.348022 
L 459.441771 137.44386 
L 461.162346 140.77574 
L 462.882922 144.589068 
L 464.603498 147.958582 
L 466.324073 150.205887 
L 468.044649 151.217389 
L 469.765224 151.512849 
L 471.4858 152.001445 
L 473.206376 153.52652 
L 474.926951 156.397934 
L 478.368102 163.763186 
L 480.088678 166.154618 
L 481.809253 166.818619 
L 483.529829 166.06192 
L 485.250405 164.777434 
L 486.97098 163.860387 
L 488.691556 163.673666 
L 492.132707 164.197542 
L 495.573858 164.303331 
L 497.294434 165.185152 
L 499.015009 167.286363 
L 500.735585 170.415979 
L 502.456161 173.82097 
L 504.176736 176.713585 
L 505.897312 178.75348 
L 507.617887 180.130653 
L 509.338463 181.146857 
L 511.059039 181.696298 
L 512.779614 181.174602 
L 514.50019 178.97053 
L 516.220765 175.221921 
L 517.941341 171.161932 
L 519.661917 168.650258 
L 521.382492 169.083422 
L 523.103068 172.428441 
L 524.823643 177.123157 
L 526.544219 181.027773 
L 528.264795 182.78311 
L 529.98537 182.642051 
L 531.705946 182.155696 
L 533.426521 182.956731 
L 535.147097 185.494446 
L 536.867673 188.66417 
L 538.588248 190.598297 
L 540.308824 190.042465 
L 542.029399 187.313901 
L 543.749975 184.159007 
L 545.47055 182.61212 
L 547.191126 183.68718 
L 548.911702 186.806818 
L 550.632277 190.305034 
L 552.352853 192.602726 
L 554.073428 193.189826 
L 555.794004 192.772608 
L 557.51458 192.589718 
L 559.235155 193.4374 
L 562.676306 196.922433 
L 564.396882 197.926837 
L 567.838033 198.394243 
L 569.558609 199.720202 
L 571.279184 202.692377 
L 572.99976 206.927614 
L 572.99976 206.927614 
" style="fill: none; stroke: #ff7f0e; stroke-width: 1.5; stroke-linecap: square"/>
   </g>
  </g>
  <g id="axes_2">
   <g id="PathCollection_1">
    <defs>
     <path id="C0_0_c3f6791ca4" d="M 0 1.118034 
C 0.296506 1.118034 0.580908 1.000231 0.790569 0.790569 
C 1.000231 0.580908 1.118034 0.296506 1.118034 -0 
C 1.118034 -0.296506 1.000231 -0.580908 0.790569 -0.790569 
C 0.580908 -1.000231 0.296506 -1.118034 0 -1.118034 
C -0.296506 -1.118034 -0.580908 -1.000231 -0.790569 -0.790569 
C -1.000231 -0.580908 -1.118034 -0.296506 -1.118034 0 
C -1.118034 0.296506 -1.000231 0.580908 -0.790569 0.790569 
C -0.580908 1.000231 -0.296506 1.118034 0 1.118034 
z
"/>
    </defs>
    <g clip-path="url(#p82343161f3)">
     <use xlink:href="#C0_0_c3f6791ca4" x="535.945566" y="46.986903" style="stroke: #000000"/>
    </g>
    <g clip-path="url(#p82343161f3)">
     <use xlink:href="#C0_0_c3f6791ca4" x="538.125108" y="56.976809" style="stroke: #000000"/>
    </g>
    <g clip-path="url(#p82343161f3)">
     <use xlink:href="#C0_0_c3f6791ca4" x="504.874648" y="47.286619" style="stroke: #000000"/>
    </g>
    <g clip-path="url(#p82343161f3)">
     <use xlink:href="#C0_0_c3f6791ca4" x="502.752167" y="57.129534" style="stroke: #000000"/>
    </g>
   </g>
   <g id="matplotlib.axis_3"/>
   <g id="matplotlib.axis_4"/>
   <g id="line2d_18">
    <path d="M 559.992051 73.636703 
L 559.914365 71.164686 
L 559.681612 68.702426 
L 559.294713 66.259638 
L 558.755193 63.845964 
L 558.065182 61.47093 
L 557.227403 59.143909 
L 556.245162 56.874084 
L 555.122335 54.670414 
L 553.863355 52.541595 
L 552.47319 50.496028 
L 550.957325 48.541787 
L 549.321744 46.686585 
L 547.572901 44.937742 
L 545.717699 43.302161 
L 543.763458 41.786296 
L 541.717892 40.396131 
L 539.589072 39.137151 
L 537.385402 38.014325 
L 535.115577 37.032084 
L 532.788556 36.194304 
L 530.413522 35.504293 
L 527.999848 34.964773 
L 525.557061 34.577874 
L 523.0948 34.345122 
L 520.622783 34.267435 
L 518.150766 34.345122 
L 515.688505 34.577874 
L 513.245718 34.964773 
L 510.832044 35.504293 
L 508.45701 36.194304 
L 506.129989 37.032084 
L 503.860164 38.014325 
L 501.656494 39.137151 
L 499.527674 40.396131 
L 497.482108 41.786296 
L 495.527867 43.302161 
L 493.672665 44.937742 
L 491.923822 46.686585 
L 490.288241 48.541787 
L 488.772376 50.496028 
L 487.382211 52.541595 
L 486.123231 54.670414 
L 485.000404 56.874084 
L 484.018163 59.143909 
L 483.180384 61.47093 
L 482.490373 63.845964 
L 481.950853 66.259638 
L 481.563954 68.702426 
L 481.331201 71.164686 
L 481.253515 73.636703 
L 481.331201 76.10872 
L 481.563954 78.570981 
L 481.950853 81.013768 
L 482.490373 83.427442 
L 483.180384 85.802476 
L 484.018163 88.129497 
L 485.000404 90.399322 
L 486.123231 92.602993 
L 487.382211 94.731812 
L 488.772376 96.777378 
L 490.288241 98.731619 
L 491.923822 100.586822 
L 493.672665 102.335664 
L 495.527867 103.971245 
L 497.482108 105.48711 
L 499.527674 106.877275 
L 501.656494 108.136256 
L 503.860164 109.259082 
L 506.129989 110.241323 
L 508.45701 111.079102 
L 510.832044 111.769113 
L 513.245718 112.308633 
L 515.688505 112.695533 
L 518.150766 112.928285 
L 520.622783 113.005971 
L 523.0948 112.928285 
L 525.557061 112.695533 
L 527.999848 112.308633 
L 530.413522 111.769113 
L 532.788556 111.079102 
L 535.115577 110.241323 
L 537.385402 109.259082 
L 539.589072 108.136256 
L 541.717892 106.877275 
L 543.763458 105.48711 
L 545.717699 103.971245 
L 547.572901 102.335664 
L 549.321744 100.586822 
L 550.957325 98.731619 
L 552.47319 96.777378 
L 553.863355 94.731812 
L 555.122335 92.602993 
L 556.245162 90.399322 
L 557.227403 88.129497 
L 558.065182 85.802476 
L 558.755193 83.427442 
L 559.294713 81.013768 
L 559.681612 78.570981 
L 559.914365 76.10872 
L 559.992051 73.636703 
" style="fill: none; stroke: #000000; stroke-linecap: square"/>
   </g>
   <g id="line2d_19">
    <path d="M 512.377303 35.140582 
L 520.622783 28.362045 
L 528.868263 35.140582 
" style="fill: none; stroke: #000000; stroke-linecap: square"/>
   </g>
   <g id="line2d_20">
    <path d="M 481.489731 69.266714 
L 480.46613 67.534467 
L 479.836221 67.471476 
L 478.899233 67.762808 
L 477.95437 69.266714 
L 478.103974 74.069765 
L 477.552804 80.975135 
L 478.733882 83.975073 
L 480.46613 84.534117 
L 482.119639 83.077454 
" style="fill: none; stroke: #000000; stroke-linecap: square"/>
   </g>
   <g id="line2d_21">
    <path d="M 559.755835 69.266714 
L 560.779436 67.534467 
L 561.409345 67.471476 
L 562.346333 67.762808 
L 563.291196 69.266714 
L 563.141592 74.069765 
L 563.692762 80.975135 
L 562.511684 83.975073 
L 560.779436 84.534117 
L 559.125927 83.077454 
" style="fill: none; stroke: #000000; stroke-linecap: square"/>
   </g>
  </g>
 </g>
 <defs>
  <clipPath id="p5fe93f4b49">
   <rect x="44.783053" y="18.118365" width="528.216707" height="380.525145"/>
  </clipPath>
  <clipPath id="p82343161f3">
   <rect x="473.245806" y="24.129849" width="94.753954" height="93.108319"/>
  </clipPath>
 </defs>
</svg>
