<?xml version="1.0" encoding="utf-8" standalone="no"?>
<!DOCTYPE svg PUBLIC "-//W3C//DTD SVG 1.1//EN"
  "http://www.w3.org/Graphics/SVG/1.1/DTD/svg11.dtd">
<svg xmlns:xlink="http://www.w3.org/1999/xlink" width="576pt" height="432pt" viewBox="0 0 576 432" xmlns="http://www.w3.org/2000/svg" version="1.1">
 <metadata>
  <rdf:RDF xmlns:dc="http://purl.org/dc/elements/1.1/" xmlns:cc="http://creativecommons.org/ns#" xmlns:rdf="http://www.w3.org/1999/02/22-rdf-syntax-ns#">
   <cc:Work>
    <dc:type rdf:resource="http://purl.org/dc/dcmitype/StillImage"/>
    <dc:date>2025-02-20T17:25:04.109546</dc:date>
    <dc:format>image/svg+xml</dc:format>
    <dc:creator>
     <cc:Agent>
      <dc:title>Matplotlib v3.10.0, https://matplotlib.org/</dc:title>
     </cc:Agent>
    </dc:creator>
   </cc:Work>
  </rdf:RDF>
 </metadata>
 <defs>
  <style type="text/css">*{stroke-linejoin: round; stroke-linecap: butt}</style>
 </defs>
 <g id="figure_1">
  <g id="patch_1">
   <path d="M 0 432 
L 576 432 
L 576 0 
L 0 0 
z
" style="fill: #ffffff"/>
  </g>
  <g id="axes_1">
   <g id="patch_2">
    <path d="M 44.783053 398.64351 
L 561.866947 398.64351 
L 561.866947 18.118365 
L 44.783053 18.118365 
L 44.783053 398.64351 
z
" style="fill: none; opacity: 0"/>
   </g>
   <g id="patch_3">
    <path d="M 44.783053 369.571799 
L 44.783053 47.190076 
" style="fill: none; stroke: #000000; stroke-width: 0.8; stroke-linejoin: miter; stroke-linecap: square"/>
   </g>
   <g id="LineCollection_1">
    <path d="M 281.92564 18.118365 
L 281.92564 398.64351 
" clip-path="url(#pc96b10e6a4)" style="fill: none; stroke-dasharray: 3.7,1.6; stroke-dashoffset: 0; stroke: #000000"/>
    <path d="M 368.061427 18.118365 
L 368.061427 398.64351 
" clip-path="url(#pc96b10e6a4)" style="fill: none; stroke-dasharray: 3.7,1.6; stroke-dashoffset: 0; stroke: #000000"/>
   </g>
   <g id="matplotlib.axis_1">
    <g id="xtick_1">
     <g id="line2d_1">
      <defs>
       <path id="m450c54b7f8" d="M 0 0 
L 0 3.5 
" style="stroke: #000000; stroke-width: 0.8"/>
      </defs>
      <g>
       <use xlink:href="#m450c54b7f8" x="45.052227" y="398.64351" style="stroke: #000000; stroke-width: 0.8"/>
      </g>
     </g>
     <g id="text_1">
      <!-- −0.20 -->
      <g transform="translate(29.729571 413.241947) scale(0.1 -0.1)">
       <defs>
        <path id="DejaVuSans-2212" d="M 678 2272 
L 4684 2272 
L 4684 1741 
L 678 1741 
L 678 2272 
z
" transform="scale(0.015625)"/>
        <path id="DejaVuSans-30" d="M 2034 4250 
Q 1547 4250 1301 3770 
Q 1056 3291 1056 2328 
Q 1056 1369 1301 889 
Q 1547 409 2034 409 
Q 2525 409 2770 889 
Q 3016 1369 3016 2328 
Q 3016 3291 2770 3770 
Q 2525 4250 2034 4250 
z
M 2034 4750 
Q 2819 4750 3233 4129 
Q 3647 3509 3647 2328 
Q 3647 1150 3233 529 
Q 2819 -91 2034 -91 
Q 1250 -91 836 529 
Q 422 1150 422 2328 
Q 422 3509 836 4129 
Q 1250 4750 2034 4750 
z
" transform="scale(0.015625)"/>
        <path id="DejaVuSans-2e" d="M 684 794 
L 1344 794 
L 1344 0 
L 684 0 
L 684 794 
z
" transform="scale(0.015625)"/>
        <path id="DejaVuSans-32" d="M 1228 531 
L 3431 531 
L 3431 0 
L 469 0 
L 469 531 
Q 828 903 1448 1529 
Q 2069 2156 2228 2338 
Q 2531 2678 2651 2914 
Q 2772 3150 2772 3378 
Q 2772 3750 2511 3984 
Q 2250 4219 1831 4219 
Q 1534 4219 1204 4116 
Q 875 4013 500 3803 
L 500 4441 
Q 881 4594 1212 4672 
Q 1544 4750 1819 4750 
Q 2544 4750 2975 4387 
Q 3406 4025 3406 3419 
Q 3406 3131 3298 2873 
Q 3191 2616 2906 2266 
Q 2828 2175 2409 1742 
Q 1991 1309 1228 531 
z
" transform="scale(0.015625)"/>
       </defs>
       <use xlink:href="#DejaVuSans-2212"/>
       <use xlink:href="#DejaVuSans-30" transform="translate(83.789062 0)"/>
       <use xlink:href="#DejaVuSans-2e" transform="translate(147.412109 0)"/>
       <use xlink:href="#DejaVuSans-32" transform="translate(179.199219 0)"/>
       <use xlink:href="#DejaVuSans-30" transform="translate(242.822266 0)"/>
      </g>
     </g>
    </g>
    <g id="xtick_2">
     <g id="line2d_2">
      <g>
       <use xlink:href="#m450c54b7f8" x="131.188014" y="398.64351" style="stroke: #000000; stroke-width: 0.8"/>
      </g>
     </g>
     <g id="text_2">
      <!-- 0.00 -->
      <g transform="translate(120.055201 413.241947) scale(0.1 -0.1)">
       <use xlink:href="#DejaVuSans-30"/>
       <use xlink:href="#DejaVuSans-2e" transform="translate(63.623047 0)"/>
       <use xlink:href="#DejaVuSans-30" transform="translate(95.410156 0)"/>
       <use xlink:href="#DejaVuSans-30" transform="translate(159.033203 0)"/>
      </g>
     </g>
    </g>
    <g id="xtick_3">
     <g id="line2d_3">
      <g>
       <use xlink:href="#m450c54b7f8" x="217.3238" y="398.64351" style="stroke: #000000; stroke-width: 0.8"/>
      </g>
     </g>
     <g id="text_3">
      <!-- 0.20 -->
      <g transform="translate(206.190988 413.241947) scale(0.1 -0.1)">
       <use xlink:href="#DejaVuSans-30"/>
       <use xlink:href="#DejaVuSans-2e" transform="translate(63.623047 0)"/>
       <use xlink:href="#DejaVuSans-32" transform="translate(95.410156 0)"/>
       <use xlink:href="#DejaVuSans-30" transform="translate(159.033203 0)"/>
      </g>
     </g>
    </g>
    <g id="xtick_4">
     <g id="line2d_4">
      <g>
       <use xlink:href="#m450c54b7f8" x="281.92564" y="398.64351" style="stroke: #000000; stroke-width: 0.8"/>
      </g>
     </g>
     <g id="text_4">
      <!-- 0.35 -->
      <g transform="translate(270.792828 413.241947) scale(0.1 -0.1)">
       <defs>
        <path id="DejaVuSans-33" d="M 2597 2516 
Q 3050 2419 3304 2112 
Q 3559 1806 3559 1356 
Q 3559 666 3084 287 
Q 2609 -91 1734 -91 
Q 1441 -91 1130 -33 
Q 819 25 488 141 
L 488 750 
Q 750 597 1062 519 
Q 1375 441 1716 441 
Q 2309 441 2620 675 
Q 2931 909 2931 1356 
Q 2931 1769 2642 2001 
Q 2353 2234 1838 2234 
L 1294 2234 
L 1294 2753 
L 1863 2753 
Q 2328 2753 2575 2939 
Q 2822 3125 2822 3475 
Q 2822 3834 2567 4026 
Q 2313 4219 1838 4219 
Q 1578 4219 1281 4162 
Q 984 4106 628 3988 
L 628 4550 
Q 988 4650 1302 4700 
Q 1616 4750 1894 4750 
Q 2613 4750 3031 4423 
Q 3450 4097 3450 3541 
Q 3450 3153 3228 2886 
Q 3006 2619 2597 2516 
z
" transform="scale(0.015625)"/>
        <path id="DejaVuSans-35" d="M 691 4666 
L 3169 4666 
L 3169 4134 
L 1269 4134 
L 1269 2991 
Q 1406 3038 1543 3061 
Q 1681 3084 1819 3084 
Q 2600 3084 3056 2656 
Q 3513 2228 3513 1497 
Q 3513 744 3044 326 
Q 2575 -91 1722 -91 
Q 1428 -91 1123 -41 
Q 819 9 494 109 
L 494 744 
Q 775 591 1075 516 
Q 1375 441 1709 441 
Q 2250 441 2565 725 
Q 2881 1009 2881 1497 
Q 2881 1984 2565 2268 
Q 2250 2553 1709 2553 
Q 1456 2553 1204 2497 
Q 953 2441 691 2322 
L 691 4666 
z
" transform="scale(0.015625)"/>
       </defs>
       <use xlink:href="#DejaVuSans-30"/>
       <use xlink:href="#DejaVuSans-2e" transform="translate(63.623047 0)"/>
       <use xlink:href="#DejaVuSans-33" transform="translate(95.410156 0)"/>
       <use xlink:href="#DejaVuSans-35" transform="translate(159.033203 0)"/>
      </g>
     </g>
    </g>
    <g id="xtick_5">
     <g id="line2d_5">
      <g>
       <use xlink:href="#m450c54b7f8" x="303.459587" y="398.64351" style="stroke: #000000; stroke-width: 0.8"/>
      </g>
     </g>
     <g id="text_5">
      <!-- 0.40 -->
      <g transform="translate(292.326775 413.241947) scale(0.1 -0.1)">
       <defs>
        <path id="DejaVuSans-34" d="M 2419 4116 
L 825 1625 
L 2419 1625 
L 2419 4116 
z
M 2253 4666 
L 3047 4666 
L 3047 1625 
L 3713 1625 
L 3713 1100 
L 3047 1100 
L 3047 0 
L 2419 0 
L 2419 1100 
L 313 1100 
L 313 1709 
L 2253 4666 
z
" transform="scale(0.015625)"/>
       </defs>
       <use xlink:href="#DejaVuSans-30"/>
       <use xlink:href="#DejaVuSans-2e" transform="translate(63.623047 0)"/>
       <use xlink:href="#DejaVuSans-34" transform="translate(95.410156 0)"/>
       <use xlink:href="#DejaVuSans-30" transform="translate(159.033203 0)"/>
      </g>
     </g>
    </g>
    <g id="xtick_6">
     <g id="line2d_6">
      <g>
       <use xlink:href="#m450c54b7f8" x="368.061427" y="398.64351" style="stroke: #000000; stroke-width: 0.8"/>
      </g>
     </g>
     <g id="text_6">
      <!-- 0.55 -->
      <g transform="translate(356.928615 413.241947) scale(0.1 -0.1)">
       <use xlink:href="#DejaVuSans-30"/>
       <use xlink:href="#DejaVuSans-2e" transform="translate(63.623047 0)"/>
       <use xlink:href="#DejaVuSans-35" transform="translate(95.410156 0)"/>
       <use xlink:href="#DejaVuSans-35" transform="translate(159.033203 0)"/>
      </g>
     </g>
    </g>
    <g id="xtick_7">
     <g id="line2d_7">
      <g>
       <use xlink:href="#m450c54b7f8" x="389.595374" y="398.64351" style="stroke: #000000; stroke-width: 0.8"/>
      </g>
     </g>
     <g id="text_7">
      <!-- 0.60 -->
      <g transform="translate(378.462561 413.241947) scale(0.1 -0.1)">
       <defs>
        <path id="DejaVuSans-36" d="M 2113 2584 
Q 1688 2584 1439 2293 
Q 1191 2003 1191 1497 
Q 1191 994 1439 701 
Q 1688 409 2113 409 
Q 2538 409 2786 701 
Q 3034 994 3034 1497 
Q 3034 2003 2786 2293 
Q 2538 2584 2113 2584 
z
M 3366 4563 
L 3366 3988 
Q 3128 4100 2886 4159 
Q 2644 4219 2406 4219 
Q 1781 4219 1451 3797 
Q 1122 3375 1075 2522 
Q 1259 2794 1537 2939 
Q 1816 3084 2150 3084 
Q 2853 3084 3261 2657 
Q 3669 2231 3669 1497 
Q 3669 778 3244 343 
Q 2819 -91 2113 -91 
Q 1303 -91 875 529 
Q 447 1150 447 2328 
Q 447 3434 972 4092 
Q 1497 4750 2381 4750 
Q 2619 4750 2861 4703 
Q 3103 4656 3366 4563 
z
" transform="scale(0.015625)"/>
       </defs>
       <use xlink:href="#DejaVuSans-30"/>
       <use xlink:href="#DejaVuSans-2e" transform="translate(63.623047 0)"/>
       <use xlink:href="#DejaVuSans-36" transform="translate(95.410156 0)"/>
       <use xlink:href="#DejaVuSans-30" transform="translate(159.033203 0)"/>
      </g>
     </g>
    </g>
    <g id="xtick_8">
     <g id="line2d_8">
      <g>
       <use xlink:href="#m450c54b7f8" x="475.731161" y="398.64351" style="stroke: #000000; stroke-width: 0.8"/>
      </g>
     </g>
     <g id="text_8">
      <!-- 0.80 -->
      <g transform="translate(464.598348 413.241947) scale(0.1 -0.1)">
       <defs>
        <path id="DejaVuSans-38" d="M 2034 2216 
Q 1584 2216 1326 1975 
Q 1069 1734 1069 1313 
Q 1069 891 1326 650 
Q 1584 409 2034 409 
Q 2484 409 2743 651 
Q 3003 894 3003 1313 
Q 3003 1734 2745 1975 
Q 2488 2216 2034 2216 
z
M 1403 2484 
Q 997 2584 770 2862 
Q 544 3141 544 3541 
Q 544 4100 942 4425 
Q 1341 4750 2034 4750 
Q 2731 4750 3128 4425 
Q 3525 4100 3525 3541 
Q 3525 3141 3298 2862 
Q 3072 2584 2669 2484 
Q 3125 2378 3379 2068 
Q 3634 1759 3634 1313 
Q 3634 634 3220 271 
Q 2806 -91 2034 -91 
Q 1263 -91 848 271 
Q 434 634 434 1313 
Q 434 1759 690 2068 
Q 947 2378 1403 2484 
z
M 1172 3481 
Q 1172 3119 1398 2916 
Q 1625 2713 2034 2713 
Q 2441 2713 2670 2916 
Q 2900 3119 2900 3481 
Q 2900 3844 2670 4047 
Q 2441 4250 2034 4250 
Q 1625 4250 1398 4047 
Q 1172 3844 1172 3481 
z
" transform="scale(0.015625)"/>
       </defs>
       <use xlink:href="#DejaVuSans-30"/>
       <use xlink:href="#DejaVuSans-2e" transform="translate(63.623047 0)"/>
       <use xlink:href="#DejaVuSans-38" transform="translate(95.410156 0)"/>
       <use xlink:href="#DejaVuSans-30" transform="translate(159.033203 0)"/>
      </g>
     </g>
    </g>
    <g id="xtick_9">
     <g id="line2d_9">
      <g>
       <use xlink:href="#m450c54b7f8" x="561.866947" y="398.64351" style="stroke: #000000; stroke-width: 0.8"/>
      </g>
     </g>
     <g id="text_9">
      <!-- 1.00 -->
      <g transform="translate(550.734135 413.241947) scale(0.1 -0.1)">
       <defs>
        <path id="DejaVuSans-31" d="M 794 531 
L 1825 531 
L 1825 4091 
L 703 3866 
L 703 4441 
L 1819 4666 
L 2450 4666 
L 2450 531 
L 3481 531 
L 3481 0 
L 794 0 
L 794 531 
z
" transform="scale(0.015625)"/>
       </defs>
       <use xlink:href="#DejaVuSans-31"/>
       <use xlink:href="#DejaVuSans-2e" transform="translate(63.623047 0)"/>
       <use xlink:href="#DejaVuSans-30" transform="translate(95.410156 0)"/>
       <use xlink:href="#DejaVuSans-30" transform="translate(159.033203 0)"/>
      </g>
     </g>
    </g>
    <g id="text_10">
     <!-- Time (s) -->
     <g transform="translate(282.996094 426.920073) scale(0.1 -0.1)">
      <defs>
       <path id="DejaVuSans-54" d="M -19 4666 
L 3928 4666 
L 3928 4134 
L 2272 4134 
L 2272 0 
L 1638 0 
L 1638 4134 
L -19 4134 
L -19 4666 
z
" transform="scale(0.015625)"/>
       <path id="DejaVuSans-69" d="M 603 3500 
L 1178 3500 
L 1178 0 
L 603 0 
L 603 3500 
z
M 603 4863 
L 1178 4863 
L 1178 4134 
L 603 4134 
L 603 4863 
z
" transform="scale(0.015625)"/>
       <path id="DejaVuSans-6d" d="M 3328 2828 
Q 3544 3216 3844 3400 
Q 4144 3584 4550 3584 
Q 5097 3584 5394 3201 
Q 5691 2819 5691 2113 
L 5691 0 
L 5113 0 
L 5113 2094 
Q 5113 2597 4934 2840 
Q 4756 3084 4391 3084 
Q 3944 3084 3684 2787 
Q 3425 2491 3425 1978 
L 3425 0 
L 2847 0 
L 2847 2094 
Q 2847 2600 2669 2842 
Q 2491 3084 2119 3084 
Q 1678 3084 1418 2786 
Q 1159 2488 1159 1978 
L 1159 0 
L 581 0 
L 581 3500 
L 1159 3500 
L 1159 2956 
Q 1356 3278 1631 3431 
Q 1906 3584 2284 3584 
Q 2666 3584 2933 3390 
Q 3200 3197 3328 2828 
z
" transform="scale(0.015625)"/>
       <path id="DejaVuSans-65" d="M 3597 1894 
L 3597 1613 
L 953 1613 
Q 991 1019 1311 708 
Q 1631 397 2203 397 
Q 2534 397 2845 478 
Q 3156 559 3463 722 
L 3463 178 
Q 3153 47 2828 -22 
Q 2503 -91 2169 -91 
Q 1331 -91 842 396 
Q 353 884 353 1716 
Q 353 2575 817 3079 
Q 1281 3584 2069 3584 
Q 2775 3584 3186 3129 
Q 3597 2675 3597 1894 
z
M 3022 2063 
Q 3016 2534 2758 2815 
Q 2500 3097 2075 3097 
Q 1594 3097 1305 2825 
Q 1016 2553 972 2059 
L 3022 2063 
z
" transform="scale(0.015625)"/>
       <path id="DejaVuSans-20" transform="scale(0.015625)"/>
       <path id="DejaVuSans-28" d="M 1984 4856 
Q 1566 4138 1362 3434 
Q 1159 2731 1159 2009 
Q 1159 1288 1364 580 
Q 1569 -128 1984 -844 
L 1484 -844 
Q 1016 -109 783 600 
Q 550 1309 550 2009 
Q 550 2706 781 3412 
Q 1013 4119 1484 4856 
L 1984 4856 
z
" transform="scale(0.015625)"/>
       <path id="DejaVuSans-73" d="M 2834 3397 
L 2834 2853 
Q 2591 2978 2328 3040 
Q 2066 3103 1784 3103 
Q 1356 3103 1142 2972 
Q 928 2841 928 2578 
Q 928 2378 1081 2264 
Q 1234 2150 1697 2047 
L 1894 2003 
Q 2506 1872 2764 1633 
Q 3022 1394 3022 966 
Q 3022 478 2636 193 
Q 2250 -91 1575 -91 
Q 1294 -91 989 -36 
Q 684 19 347 128 
L 347 722 
Q 666 556 975 473 
Q 1284 391 1588 391 
Q 1994 391 2212 530 
Q 2431 669 2431 922 
Q 2431 1156 2273 1281 
Q 2116 1406 1581 1522 
L 1381 1569 
Q 847 1681 609 1914 
Q 372 2147 372 2553 
Q 372 3047 722 3315 
Q 1072 3584 1716 3584 
Q 2034 3584 2315 3537 
Q 2597 3491 2834 3397 
z
" transform="scale(0.015625)"/>
       <path id="DejaVuSans-29" d="M 513 4856 
L 1013 4856 
Q 1481 4119 1714 3412 
Q 1947 2706 1947 2009 
Q 1947 1309 1714 600 
Q 1481 -109 1013 -844 
L 513 -844 
Q 928 -128 1133 580 
Q 1338 1288 1338 2009 
Q 1338 2731 1133 3434 
Q 928 4138 513 4856 
z
" transform="scale(0.015625)"/>
      </defs>
      <use xlink:href="#DejaVuSans-54"/>
      <use xlink:href="#DejaVuSans-69" transform="translate(57.958984 0)"/>
      <use xlink:href="#DejaVuSans-6d" transform="translate(85.742188 0)"/>
      <use xlink:href="#DejaVuSans-65" transform="translate(183.154297 0)"/>
      <use xlink:href="#DejaVuSans-20" transform="translate(244.677734 0)"/>
      <use xlink:href="#DejaVuSans-28" transform="translate(276.464844 0)"/>
      <use xlink:href="#DejaVuSans-73" transform="translate(315.478516 0)"/>
      <use xlink:href="#DejaVuSans-29" transform="translate(367.578125 0)"/>
     </g>
    </g>
   </g>
   <g id="matplotlib.axis_2">
    <g id="ytick_1">
     <g id="line2d_10">
      <defs>
       <path id="mcfdaaff29d" d="M 0 0 
L -3.5 0 
" style="stroke: #000000; stroke-width: 0.8"/>
      </defs>
      <g>
       <use xlink:href="#mcfdaaff29d" x="44.783053" y="369.571799" style="stroke: #000000; stroke-width: 0.8"/>
      </g>
     </g>
     <g id="text_11">
      <!-- −10 -->
      <g transform="translate(16.678365 373.371018) scale(0.1 -0.1)">
       <use xlink:href="#DejaVuSans-2212"/>
       <use xlink:href="#DejaVuSans-31" transform="translate(83.789062 0)"/>
       <use xlink:href="#DejaVuSans-30" transform="translate(147.412109 0)"/>
      </g>
     </g>
    </g>
    <g id="ytick_2">
     <g id="line2d_11">
      <g>
       <use xlink:href="#mcfdaaff29d" x="44.783053" y="288.976368" style="stroke: #000000; stroke-width: 0.8"/>
      </g>
     </g>
     <g id="text_12">
      <!-- −5 -->
      <g transform="translate(23.040865 292.775587) scale(0.1 -0.1)">
       <use xlink:href="#DejaVuSans-2212"/>
       <use xlink:href="#DejaVuSans-35" transform="translate(83.789062 0)"/>
      </g>
     </g>
    </g>
    <g id="ytick_3">
     <g id="line2d_12">
      <g>
       <use xlink:href="#mcfdaaff29d" x="44.783053" y="208.380937" style="stroke: #000000; stroke-width: 0.8"/>
      </g>
     </g>
     <g id="text_13">
      <!-- 0 -->
      <g transform="translate(31.420553 212.180156) scale(0.1 -0.1)">
       <use xlink:href="#DejaVuSans-30"/>
      </g>
     </g>
    </g>
    <g id="ytick_4">
     <g id="line2d_13">
      <g>
       <use xlink:href="#mcfdaaff29d" x="44.783053" y="127.785507" style="stroke: #000000; stroke-width: 0.8"/>
      </g>
     </g>
     <g id="text_14">
      <!-- 5 -->
      <g transform="translate(31.420553 131.584726) scale(0.1 -0.1)">
       <use xlink:href="#DejaVuSans-35"/>
      </g>
     </g>
    </g>
    <g id="ytick_5">
     <g id="line2d_14">
      <g>
       <use xlink:href="#mcfdaaff29d" x="44.783053" y="47.190076" style="stroke: #000000; stroke-width: 0.8"/>
      </g>
     </g>
     <g id="text_15">
      <!-- 10 -->
      <g transform="translate(25.058053 50.989295) scale(0.1 -0.1)">
       <use xlink:href="#DejaVuSans-31"/>
       <use xlink:href="#DejaVuSans-30" transform="translate(63.623047 0)"/>
      </g>
     </g>
    </g>
    <g id="text_16">
     <!-- µV -->
     <g transform="translate(10.598678 214.9825) rotate(-90) scale(0.1 -0.1)">
      <defs>
       <path id="DejaVuSans-b5" d="M 544 -1331 
L 544 3500 
L 1119 3500 
L 1119 1325 
Q 1119 872 1334 640 
Q 1550 409 1972 409 
Q 2434 409 2667 671 
Q 2900 934 2900 1459 
L 2900 3500 
L 3475 3500 
L 3475 806 
Q 3475 619 3529 530 
Q 3584 441 3700 441 
Q 3728 441 3778 458 
Q 3828 475 3916 513 
L 3916 50 
Q 3788 -22 3673 -56 
Q 3559 -91 3450 -91 
Q 3234 -91 3106 31 
Q 2978 153 2931 403 
Q 2775 156 2548 32 
Q 2322 -91 2016 -91 
Q 1697 -91 1473 31 
Q 1250 153 1119 397 
L 1119 -1331 
L 544 -1331 
z
" transform="scale(0.015625)"/>
       <path id="DejaVuSans-56" d="M 1831 0 
L 50 4666 
L 709 4666 
L 2188 738 
L 3669 4666 
L 4325 4666 
L 2547 0 
L 1831 0 
z
" transform="scale(0.015625)"/>
      </defs>
      <use xlink:href="#DejaVuSans-b5"/>
      <use xlink:href="#DejaVuSans-56" transform="translate(63.623047 0)"/>
     </g>
    </g>
   </g>
   <g id="patch_4">
    <path d="M 45.052227 398.64351 
L 561.866947 398.64351 
" style="fill: none; stroke: #000000; stroke-width: 0.8; stroke-linejoin: miter; stroke-linecap: square"/>
   </g>
   <g id="patch_5">
    <path d="M 44.783052 208.380938 
L 561.866947 208.380938 
" style="fill: none; stroke: #000000; stroke-width: 0.8; stroke-linejoin: miter; stroke-linecap: square"/>
   </g>
   <g id="text_17">
    <!-- CPz, CP4, CP3, Pz, P4, P3 (median) -->
    <g transform="translate(199.331875 12.118365) scale(0.12 -0.12)">
     <defs>
      <path id="DejaVuSans-43" d="M 4122 4306 
L 4122 3641 
Q 3803 3938 3442 4084 
Q 3081 4231 2675 4231 
Q 1875 4231 1450 3742 
Q 1025 3253 1025 2328 
Q 1025 1406 1450 917 
Q 1875 428 2675 428 
Q 3081 428 3442 575 
Q 3803 722 4122 1019 
L 4122 359 
Q 3791 134 3420 21 
Q 3050 -91 2638 -91 
Q 1578 -91 968 557 
Q 359 1206 359 2328 
Q 359 3453 968 4101 
Q 1578 4750 2638 4750 
Q 3056 4750 3426 4639 
Q 3797 4528 4122 4306 
z
" transform="scale(0.015625)"/>
      <path id="DejaVuSans-50" d="M 1259 4147 
L 1259 2394 
L 2053 2394 
Q 2494 2394 2734 2622 
Q 2975 2850 2975 3272 
Q 2975 3691 2734 3919 
Q 2494 4147 2053 4147 
L 1259 4147 
z
M 628 4666 
L 2053 4666 
Q 2838 4666 3239 4311 
Q 3641 3956 3641 3272 
Q 3641 2581 3239 2228 
Q 2838 1875 2053 1875 
L 1259 1875 
L 1259 0 
L 628 0 
L 628 4666 
z
" transform="scale(0.015625)"/>
      <path id="DejaVuSans-7a" d="M 353 3500 
L 3084 3500 
L 3084 2975 
L 922 459 
L 3084 459 
L 3084 0 
L 275 0 
L 275 525 
L 2438 3041 
L 353 3041 
L 353 3500 
z
" transform="scale(0.015625)"/>
      <path id="DejaVuSans-2c" d="M 750 794 
L 1409 794 
L 1409 256 
L 897 -744 
L 494 -744 
L 750 256 
L 750 794 
z
" transform="scale(0.015625)"/>
      <path id="DejaVuSans-64" d="M 2906 2969 
L 2906 4863 
L 3481 4863 
L 3481 0 
L 2906 0 
L 2906 525 
Q 2725 213 2448 61 
Q 2172 -91 1784 -91 
Q 1150 -91 751 415 
Q 353 922 353 1747 
Q 353 2572 751 3078 
Q 1150 3584 1784 3584 
Q 2172 3584 2448 3432 
Q 2725 3281 2906 2969 
z
M 947 1747 
Q 947 1113 1208 752 
Q 1469 391 1925 391 
Q 2381 391 2643 752 
Q 2906 1113 2906 1747 
Q 2906 2381 2643 2742 
Q 2381 3103 1925 3103 
Q 1469 3103 1208 2742 
Q 947 2381 947 1747 
z
" transform="scale(0.015625)"/>
      <path id="DejaVuSans-61" d="M 2194 1759 
Q 1497 1759 1228 1600 
Q 959 1441 959 1056 
Q 959 750 1161 570 
Q 1363 391 1709 391 
Q 2188 391 2477 730 
Q 2766 1069 2766 1631 
L 2766 1759 
L 2194 1759 
z
M 3341 1997 
L 3341 0 
L 2766 0 
L 2766 531 
Q 2569 213 2275 61 
Q 1981 -91 1556 -91 
Q 1019 -91 701 211 
Q 384 513 384 1019 
Q 384 1609 779 1909 
Q 1175 2209 1959 2209 
L 2766 2209 
L 2766 2266 
Q 2766 2663 2505 2880 
Q 2244 3097 1772 3097 
Q 1472 3097 1187 3025 
Q 903 2953 641 2809 
L 641 3341 
Q 956 3463 1253 3523 
Q 1550 3584 1831 3584 
Q 2591 3584 2966 3190 
Q 3341 2797 3341 1997 
z
" transform="scale(0.015625)"/>
      <path id="DejaVuSans-6e" d="M 3513 2113 
L 3513 0 
L 2938 0 
L 2938 2094 
Q 2938 2591 2744 2837 
Q 2550 3084 2163 3084 
Q 1697 3084 1428 2787 
Q 1159 2491 1159 1978 
L 1159 0 
L 581 0 
L 581 3500 
L 1159 3500 
L 1159 2956 
Q 1366 3272 1645 3428 
Q 1925 3584 2291 3584 
Q 2894 3584 3203 3211 
Q 3513 2838 3513 2113 
z
" transform="scale(0.015625)"/>
     </defs>
     <use xlink:href="#DejaVuSans-43"/>
     <use xlink:href="#DejaVuSans-50" transform="translate(69.824219 0)"/>
     <use xlink:href="#DejaVuSans-7a" transform="translate(130.126953 0)"/>
     <use xlink:href="#DejaVuSans-2c" transform="translate(182.617188 0)"/>
     <use xlink:href="#DejaVuSans-20" transform="translate(214.404297 0)"/>
     <use xlink:href="#DejaVuSans-43" transform="translate(246.191406 0)"/>
     <use xlink:href="#DejaVuSans-50" transform="translate(316.015625 0)"/>
     <use xlink:href="#DejaVuSans-34" transform="translate(376.318359 0)"/>
     <use xlink:href="#DejaVuSans-2c" transform="translate(439.941406 0)"/>
     <use xlink:href="#DejaVuSans-20" transform="translate(471.728516 0)"/>
     <use xlink:href="#DejaVuSans-43" transform="translate(503.515625 0)"/>
     <use xlink:href="#DejaVuSans-50" transform="translate(573.339844 0)"/>
     <use xlink:href="#DejaVuSans-33" transform="translate(633.642578 0)"/>
     <use xlink:href="#DejaVuSans-2c" transform="translate(697.265625 0)"/>
     <use xlink:href="#DejaVuSans-20" transform="translate(729.052734 0)"/>
     <use xlink:href="#DejaVuSans-50" transform="translate(760.839844 0)"/>
     <use xlink:href="#DejaVuSans-7a" transform="translate(821.142578 0)"/>
     <use xlink:href="#DejaVuSans-2c" transform="translate(873.632812 0)"/>
     <use xlink:href="#DejaVuSans-20" transform="translate(905.419922 0)"/>
     <use xlink:href="#DejaVuSans-50" transform="translate(937.207031 0)"/>
     <use xlink:href="#DejaVuSans-34" transform="translate(997.509766 0)"/>
     <use xlink:href="#DejaVuSans-2c" transform="translate(1061.132812 0)"/>
     <use xlink:href="#DejaVuSans-20" transform="translate(1092.919922 0)"/>
     <use xlink:href="#DejaVuSans-50" transform="translate(1124.707031 0)"/>
     <use xlink:href="#DejaVuSans-33" transform="translate(1185.009766 0)"/>
     <use xlink:href="#DejaVuSans-20" transform="translate(1248.632812 0)"/>
     <use xlink:href="#DejaVuSans-28" transform="translate(1280.419922 0)"/>
     <use xlink:href="#DejaVuSans-6d" transform="translate(1319.433594 0)"/>
     <use xlink:href="#DejaVuSans-65" transform="translate(1416.845703 0)"/>
     <use xlink:href="#DejaVuSans-64" transform="translate(1478.369141 0)"/>
     <use xlink:href="#DejaVuSans-69" transform="translate(1541.845703 0)"/>
     <use xlink:href="#DejaVuSans-61" transform="translate(1569.628906 0)"/>
     <use xlink:href="#DejaVuSans-6e" transform="translate(1630.908203 0)"/>
     <use xlink:href="#DejaVuSans-29" transform="translate(1694.287109 0)"/>
    </g>
   </g>
   <g id="legend_1">
    <g id="patch_6">
     <path d="M 51.783053 55.75274 
L 132.92524 55.75274 
Q 134.92524 55.75274 134.92524 53.75274 
L 134.92524 25.118365 
Q 134.92524 23.118365 132.92524 23.118365 
L 51.783053 23.118365 
Q 49.783053 23.118365 49.783053 25.118365 
L 49.783053 53.75274 
Q 49.783053 55.75274 51.783053 55.75274 
z
" style="fill: #ffffff; opacity: 0.8; stroke: #cccccc; stroke-linejoin: miter"/>
    </g>
    <g id="line2d_15">
     <path d="M 53.783053 31.216803 
L 63.783053 31.216803 
L 73.783052 31.216803 
" style="fill: none; stroke: #1f77b4; stroke-width: 1.5; stroke-linecap: square"/>
    </g>
    <g id="text_18">
     <!-- eerie -->
     <g transform="translate(81.783052 34.716803) scale(0.1 -0.1)">
      <defs>
       <path id="DejaVuSans-72" d="M 2631 2963 
Q 2534 3019 2420 3045 
Q 2306 3072 2169 3072 
Q 1681 3072 1420 2755 
Q 1159 2438 1159 1844 
L 1159 0 
L 581 0 
L 581 3500 
L 1159 3500 
L 1159 2956 
Q 1341 3275 1631 3429 
Q 1922 3584 2338 3584 
Q 2397 3584 2469 3576 
Q 2541 3569 2628 3553 
L 2631 2963 
z
" transform="scale(0.015625)"/>
      </defs>
      <use xlink:href="#DejaVuSans-65"/>
      <use xlink:href="#DejaVuSans-65" transform="translate(61.523438 0)"/>
      <use xlink:href="#DejaVuSans-72" transform="translate(123.046875 0)"/>
      <use xlink:href="#DejaVuSans-69" transform="translate(164.160156 0)"/>
      <use xlink:href="#DejaVuSans-65" transform="translate(191.943359 0)"/>
     </g>
    </g>
    <g id="line2d_16">
     <path d="M 53.783053 45.894928 
L 63.783053 45.894928 
L 73.783052 45.894928 
" style="fill: none; stroke: #ff7f0e; stroke-width: 1.5; stroke-linecap: square"/>
    </g>
    <g id="text_19">
     <!-- non_eerie -->
     <g transform="translate(81.783052 49.394928) scale(0.1 -0.1)">
      <defs>
       <path id="DejaVuSans-6f" d="M 1959 3097 
Q 1497 3097 1228 2736 
Q 959 2375 959 1747 
Q 959 1119 1226 758 
Q 1494 397 1959 397 
Q 2419 397 2687 759 
Q 2956 1122 2956 1747 
Q 2956 2369 2687 2733 
Q 2419 3097 1959 3097 
z
M 1959 3584 
Q 2709 3584 3137 3096 
Q 3566 2609 3566 1747 
Q 3566 888 3137 398 
Q 2709 -91 1959 -91 
Q 1206 -91 779 398 
Q 353 888 353 1747 
Q 353 2609 779 3096 
Q 1206 3584 1959 3584 
z
" transform="scale(0.015625)"/>
       <path id="DejaVuSans-5f" d="M 3263 -1063 
L 3263 -1509 
L -63 -1509 
L -63 -1063 
L 3263 -1063 
z
" transform="scale(0.015625)"/>
      </defs>
      <use xlink:href="#DejaVuSans-6e"/>
      <use xlink:href="#DejaVuSans-6f" transform="translate(63.378906 0)"/>
      <use xlink:href="#DejaVuSans-6e" transform="translate(124.560547 0)"/>
      <use xlink:href="#DejaVuSans-5f" transform="translate(187.939453 0)"/>
      <use xlink:href="#DejaVuSans-65" transform="translate(237.939453 0)"/>
      <use xlink:href="#DejaVuSans-65" transform="translate(299.462891 0)"/>
      <use xlink:href="#DejaVuSans-72" transform="translate(360.986328 0)"/>
      <use xlink:href="#DejaVuSans-69" transform="translate(402.099609 0)"/>
      <use xlink:href="#DejaVuSans-65" transform="translate(429.882812 0)"/>
     </g>
    </g>
   </g>
   <g id="FillBetweenPolyCollection_1">
    <defs>
     <path id="m96e040e81d" d="M 44.783052 -243.286098 
L 44.783052 -229.545358 
L 46.465392 -230.214737 
L 48.147732 -232.093576 
L 49.830071 -234.712866 
L 51.512411 -235.572321 
L 53.19475 -234.706301 
L 54.87709 -232.665549 
L 56.55943 -230.184065 
L 58.241769 -228.000151 
L 59.924109 -226.541301 
L 61.606448 -225.702241 
L 63.288788 -225.706153 
L 64.971128 -224.450439 
L 66.653467 -223.093918 
L 68.335807 -221.765723 
L 70.018146 -220.827676 
L 71.700486 -220.410292 
L 73.382825 -219.654869 
L 75.065165 -218.914485 
L 76.747505 -217.005073 
L 78.429844 -214.896286 
L 80.112184 -212.299541 
L 81.794523 -210.381523 
L 83.476863 -208.355422 
L 85.159203 -205.389286 
L 86.841542 -201.875506 
L 88.523882 -198.321378 
L 90.206221 -196.803298 
L 91.888561 -198.173126 
L 93.5709 -201.564981 
L 95.25324 -205.743786 
L 96.93558 -209.940557 
L 98.617919 -213.775497 
L 100.300259 -216.729532 
L 101.982598 -220.218241 
L 103.664938 -223.820808 
L 105.347278 -226.396807 
L 107.029617 -227.350114 
L 108.711957 -226.365795 
L 110.394296 -223.375995 
L 112.076636 -219.391644 
L 113.758976 -215.35814 
L 115.441315 -213.366675 
L 117.123655 -214.411554 
L 118.805994 -216.708704 
L 120.488334 -220.218837 
L 122.170673 -222.421662 
L 123.853013 -223.111049 
L 125.535353 -221.941162 
L 127.217692 -218.911536 
L 128.900032 -215.744322 
L 130.582371 -213.017887 
L 132.264711 -211.188511 
L 133.947051 -210.690396 
L 135.62939 -211.568617 
L 137.31173 -213.628311 
L 138.994069 -215.774283 
L 140.676409 -216.50852 
L 142.358748 -214.861721 
L 144.041088 -212.252215 
L 145.723428 -209.495121 
L 147.405767 -207.180595 
L 149.088107 -205.67677 
L 150.770446 -205.630579 
L 152.452786 -205.763145 
L 154.135126 -205.942309 
L 155.817465 -205.53781 
L 157.499805 -204.542146 
L 159.182144 -204.235772 
L 160.864484 -205.400161 
L 162.546823 -207.045094 
L 164.229163 -208.585471 
L 165.911503 -210.009878 
L 167.593842 -211.206108 
L 169.276182 -211.348975 
L 170.958521 -210.892633 
L 172.640861 -211.08552 
L 174.323201 -212.44206 
L 176.00554 -214.956268 
L 177.68788 -217.910728 
L 179.370219 -220.379903 
L 181.052559 -220.979657 
L 182.734899 -218.396163 
L 184.417238 -214.689984 
L 186.099578 -211.027428 
L 187.781917 -208.043207 
L 189.464257 -208.079143 
L 191.146596 -210.967955 
L 192.828936 -215.716321 
L 194.511276 -222.820793 
L 196.193615 -230.651131 
L 197.875955 -237.220531 
L 199.558294 -242.462584 
L 201.240634 -244.951852 
L 202.922974 -244.9386 
L 204.605313 -241.178986 
L 206.287653 -235.938323 
L 207.969992 -231.842355 
L 209.652332 -230.794555 
L 211.334671 -233.737985 
L 213.017011 -241.254452 
L 214.699351 -251.921705 
L 216.38169 -264.076596 
L 218.06403 -276.736069 
L 219.746369 -288.52156 
L 221.428709 -300.173482 
L 223.111049 -311.51363 
L 224.793388 -321.426501 
L 226.475728 -329.388453 
L 228.158067 -334.173902 
L 229.840407 -336.534167 
L 231.522746 -336.951258 
L 233.205086 -336.930906 
L 234.887426 -337.458533 
L 236.569765 -338.080795 
L 238.252105 -337.574295 
L 239.934444 -335.322237 
L 241.616784 -331.20084 
L 243.299124 -326.756939 
L 244.981463 -323.647902 
L 246.663803 -322.13045 
L 248.346142 -321.958517 
L 250.028482 -322.282933 
L 251.710822 -323.322421 
L 253.393161 -325.22783 
L 255.075501 -326.637276 
L 256.75784 -328.16853 
L 258.44018 -330.159129 
L 260.122519 -333.281269 
L 261.804859 -336.749021 
L 263.487199 -340.34607 
L 265.169538 -343.940056 
L 266.851878 -348.023399 
L 268.534217 -353.758805 
L 270.216557 -360.231033 
L 271.898897 -366.424219 
L 273.581236 -370.86202 
L 275.263576 -374.134812 
L 276.945915 -376.339536 
L 278.628255 -377.916851 
L 280.310594 -377.911661 
L 281.992934 -375.909253 
L 283.675274 -371.740901 
L 285.357613 -366.308065 
L 287.039953 -361.295873 
L 288.722292 -357.304859 
L 290.404632 -355.113303 
L 292.086972 -354.301907 
L 293.769311 -352.853131 
L 295.451651 -350.905959 
L 297.13399 -348.269671 
L 298.81633 -344.048816 
L 300.498669 -340.191128 
L 302.181009 -336.103659 
L 303.863349 -331.232289 
L 305.545688 -326.981288 
L 307.228028 -324.169832 
L 308.910367 -322.94791 
L 310.592707 -324.331609 
L 312.275047 -327.725802 
L 313.957386 -332.129236 
L 315.639726 -336.129481 
L 317.322065 -338.492047 
L 319.004405 -338.258445 
L 320.686745 -337.233686 
L 322.369084 -335.970428 
L 324.051424 -335.815416 
L 325.733763 -337.736048 
L 327.416103 -340.857513 
L 329.098442 -345.597334 
L 330.780782 -351.540583 
L 332.463122 -358.691224 
L 334.145461 -367.514878 
L 335.827801 -375.997348 
L 337.51014 -382.567764 
L 339.19248 -386.332773 
L 340.87482 -387.396941 
L 342.557159 -388.016705 
L 344.239499 -389.886489 
L 345.921838 -392.846039 
L 347.604178 -396.016276 
L 349.286517 -398.269065 
L 350.968857 -397.694402 
L 352.651197 -394.495245 
L 354.333536 -389.169362 
L 356.015876 -384.601166 
L 357.698215 -382.064259 
L 359.380555 -381.657595 
L 361.062895 -382.772414 
L 362.745234 -384.347654 
L 364.427574 -385.755584 
L 366.109913 -387.201894 
L 367.792253 -389.08316 
L 369.474593 -390.779426 
L 371.156932 -390.523453 
L 372.839272 -388.435473 
L 374.521611 -385.149255 
L 376.203951 -381.723592 
L 377.88629 -378.382052 
L 379.56863 -376.148262 
L 381.25097 -375.309842 
L 382.933309 -375.235765 
L 384.615649 -374.075978 
L 386.297988 -370.904312 
L 387.980328 -367.090531 
L 389.662668 -362.843531 
L 391.345007 -359.433452 
L 393.027347 -356.479886 
L 394.709686 -353.037578 
L 396.392026 -348.159428 
L 398.074365 -342.287896 
L 399.756705 -336.696064 
L 401.439045 -332.632442 
L 403.121384 -330.001895 
L 404.803724 -327.188262 
L 406.486063 -323.590909 
L 408.168403 -318.336815 
L 409.850743 -311.619584 
L 411.533082 -305.639007 
L 413.215422 -300.713802 
L 414.897761 -296.962987 
L 416.580101 -294.568204 
L 418.26244 -292.249809 
L 419.94478 -289.443686 
L 421.62712 -287.046528 
L 423.309459 -285.422015 
L 424.991799 -283.833789 
L 426.674138 -281.567625 
L 428.356478 -278.017804 
L 430.038818 -273.292614 
L 431.721157 -269.227204 
L 433.403497 -267.231985 
L 435.085836 -267.699791 
L 436.768176 -269.844285 
L 438.450516 -272.964472 
L 440.132855 -275.593195 
L 441.815195 -277.189438 
L 443.497534 -278.098132 
L 445.179874 -278.180057 
L 446.862213 -277.64686 
L 448.544553 -276.747955 
L 450.226893 -274.372118 
L 451.909232 -271.150788 
L 453.591572 -267.952863 
L 455.273911 -266.194785 
L 456.956251 -266.08314 
L 458.638591 -268.148549 
L 460.32093 -269.80966 
L 462.00327 -269.267214 
L 463.685609 -266.241733 
L 465.367949 -262.255886 
L 467.050288 -259.010313 
L 468.732628 -256.67343 
L 470.414968 -254.85646 
L 472.097307 -254.037602 
L 473.779647 -253.933711 
L 475.461986 -254.450352 
L 477.144326 -255.016377 
L 478.826666 -255.630848 
L 480.509005 -255.933807 
L 482.191345 -255.146279 
L 483.873684 -253.519047 
L 485.556024 -251.453488 
L 487.238363 -249.83601 
L 488.920703 -248.891291 
L 490.603043 -248.519636 
L 492.285382 -248.33975 
L 493.967722 -247.422187 
L 495.650061 -245.853491 
L 497.332401 -243.409413 
L 499.014741 -241.094669 
L 500.69708 -239.144821 
L 502.37942 -237.388579 
L 504.061759 -235.72406 
L 505.744099 -234.198278 
L 507.426439 -233.018115 
L 509.108778 -232.322917 
L 510.791118 -232.796973 
L 512.473457 -233.641589 
L 514.155797 -235.1554 
L 515.838136 -235.9952 
L 517.520476 -235.88297 
L 519.202816 -234.785965 
L 520.885155 -232.880435 
L 522.567495 -231.74725 
L 524.249834 -230.799323 
L 525.932174 -229.557971 
L 527.614514 -228.412777 
L 529.296853 -227.55179 
L 530.979193 -226.587133 
L 532.661532 -225.991327 
L 534.343872 -225.964262 
L 536.026211 -226.364153 
L 537.708551 -226.570705 
L 539.390891 -226.85162 
L 541.07323 -226.63154 
L 542.75557 -226.202704 
L 544.437909 -225.874252 
L 546.120249 -226.633694 
L 547.802589 -228.723004 
L 549.484928 -231.607272 
L 551.167268 -234.135095 
L 552.849607 -235.443214 
L 554.531947 -234.860874 
L 556.214286 -232.582467 
L 557.896626 -229.644264 
L 559.578966 -227.287486 
L 561.261305 -225.407446 
L 561.261305 -239.41309 
L 561.261305 -239.41309 
L 559.578966 -241.664505 
L 557.896626 -244.09097 
L 556.214286 -246.763971 
L 554.531947 -248.677649 
L 552.849607 -249.310324 
L 551.167268 -248.133529 
L 549.484928 -245.64313 
L 547.802589 -242.859936 
L 546.120249 -241.141506 
L 544.437909 -240.874408 
L 542.75557 -241.324355 
L 541.07323 -241.964121 
L 539.390891 -242.007976 
L 537.708551 -241.618307 
L 536.026211 -241.530171 
L 534.343872 -241.313621 
L 532.661532 -241.420758 
L 530.979193 -241.20103 
L 529.296853 -241.221914 
L 527.614514 -241.429346 
L 525.932174 -241.894179 
L 524.249834 -242.906378 
L 522.567495 -243.835841 
L 520.885155 -244.97394 
L 519.202816 -247.255704 
L 517.520476 -249.083058 
L 515.838136 -250.111926 
L 514.155797 -249.74277 
L 512.473457 -248.757203 
L 510.791118 -248.330627 
L 509.108778 -248.231816 
L 507.426439 -248.815562 
L 505.744099 -249.948662 
L 504.061759 -251.175493 
L 502.37942 -252.376195 
L 500.69708 -253.452364 
L 499.014741 -254.580902 
L 497.332401 -256.536751 
L 495.650061 -258.67317 
L 493.967722 -260.23781 
L 492.285382 -261.36869 
L 490.603043 -261.368376 
L 488.920703 -261.436562 
L 487.238363 -262.330184 
L 485.556024 -264.11386 
L 483.873684 -266.357091 
L 482.191345 -268.589118 
L 480.509005 -270.023708 
L 478.826666 -269.987684 
L 477.144326 -269.480111 
L 475.461986 -268.916969 
L 473.779647 -268.290658 
L 472.097307 -267.993634 
L 470.414968 -268.317093 
L 468.732628 -269.617158 
L 467.050288 -271.999113 
L 465.367949 -275.57137 
L 463.685609 -279.971443 
L 462.00327 -283.262767 
L 460.32093 -284.473296 
L 458.638591 -282.958132 
L 456.956251 -281.498626 
L 455.273911 -281.918877 
L 453.591572 -283.784803 
L 451.909232 -287.433408 
L 450.226893 -290.706719 
L 448.544553 -293.221894 
L 446.862213 -293.885052 
L 445.179874 -293.722302 
L 443.497534 -293.207139 
L 441.815195 -292.468742 
L 440.132855 -291.156852 
L 438.450516 -289.075543 
L 436.768176 -286.7401 
L 435.085836 -284.896326 
L 433.403497 -284.536599 
L 431.721157 -286.132874 
L 430.038818 -290.18107 
L 428.356478 -294.826835 
L 426.674138 -298.304162 
L 424.991799 -300.715817 
L 423.309459 -302.069472 
L 421.62712 -303.525203 
L 419.94478 -305.799104 
L 418.26244 -308.173973 
L 416.580101 -310.250069 
L 414.897761 -312.506043 
L 413.215422 -316.232479 
L 411.533082 -321.175755 
L 409.850743 -326.856173 
L 408.168403 -333.148817 
L 406.486063 -338.434071 
L 404.803724 -342.43798 
L 403.121384 -345.653997 
L 401.439045 -348.430491 
L 399.756705 -352.358809 
L 398.074365 -357.483377 
L 396.392026 -362.632896 
L 394.709686 -366.859898 
L 393.027347 -370.047382 
L 391.345007 -373.317631 
L 389.662668 -377.280439 
L 387.980328 -381.918983 
L 386.297988 -385.916669 
L 384.615649 -388.739598 
L 382.933309 -389.912382 
L 381.25097 -389.807933 
L 379.56863 -390.444744 
L 377.88629 -392.328326 
L 376.203951 -395.719503 
L 374.521611 -399.340156 
L 372.839272 -402.253942 
L 371.156932 -404.514867 
L 369.474593 -404.810263 
L 367.792253 -403.587783 
L 366.109913 -402.903908 
L 364.427574 -401.922947 
L 362.745234 -400.526766 
L 361.062895 -399.382394 
L 359.380555 -398.708393 
L 357.698215 -399.180808 
L 356.015876 -401.409687 
L 354.333536 -405.82525 
L 352.651197 -410.788376 
L 350.968857 -413.549718 
L 349.286517 -413.881635 
L 347.604178 -411.645132 
L 345.921838 -408.643511 
L 344.239499 -405.780885 
L 342.557159 -403.835473 
L 340.87482 -402.53345 
L 339.19248 -400.655579 
L 337.51014 -396.757505 
L 335.827801 -390.482076 
L 334.145461 -382.249178 
L 332.463122 -373.917625 
L 330.780782 -366.984968 
L 329.098442 -361.175424 
L 327.416103 -356.864036 
L 325.733763 -353.445501 
L 324.051424 -351.517962 
L 322.369084 -351.258072 
L 320.686745 -351.838225 
L 319.004405 -352.725568 
L 317.322065 -353.159182 
L 315.639726 -351.365539 
L 313.957386 -347.866573 
L 312.275047 -343.977805 
L 310.592707 -341.161202 
L 308.910367 -340.243624 
L 307.228028 -341.235234 
L 305.545688 -343.232693 
L 303.863349 -346.747879 
L 302.181009 -350.783378 
L 300.498669 -354.684019 
L 298.81633 -358.345034 
L 297.13399 -362.366411 
L 295.451651 -365.430036 
L 293.769311 -367.589976 
L 292.086972 -368.825572 
L 290.404632 -369.768367 
L 288.722292 -371.729473 
L 287.039953 -375.706533 
L 285.357613 -380.581187 
L 283.675274 -385.545018 
L 281.992934 -389.557779 
L 280.310594 -391.759395 
L 278.628255 -392.106202 
L 276.945915 -390.787942 
L 275.263576 -388.408131 
L 273.581236 -384.482829 
L 271.898897 -378.989728 
L 270.216557 -372.048085 
L 268.534217 -364.996788 
L 266.851878 -359.627249 
L 265.169538 -355.742927 
L 263.487199 -352.665558 
L 261.804859 -349.399484 
L 260.122519 -345.79433 
L 258.44018 -342.821211 
L 256.75784 -340.422733 
L 255.075501 -338.974364 
L 253.393161 -337.895901 
L 251.710822 -336.681909 
L 250.028482 -336.207494 
L 248.346142 -336.356997 
L 246.663803 -336.924305 
L 244.981463 -338.374366 
L 243.299124 -341.290686 
L 241.616784 -345.558821 
L 239.934444 -349.0684 
L 238.252105 -350.697819 
L 236.569765 -351.232327 
L 234.887426 -351.034935 
L 233.205086 -350.296782 
L 231.522746 -349.868572 
L 229.840407 -349.442496 
L 228.158067 -346.889929 
L 226.475728 -341.546712 
L 224.793388 -333.45639 
L 223.111049 -323.549578 
L 221.428709 -312.217747 
L 219.746369 -300.638927 
L 218.06403 -289.061552 
L 216.38169 -276.574536 
L 214.699351 -264.248438 
L 213.017011 -253.34013 
L 211.334671 -245.955367 
L 209.652332 -242.970818 
L 207.969992 -244.442575 
L 206.287653 -248.952961 
L 204.605313 -254.164216 
L 202.922974 -257.818566 
L 201.240634 -257.931543 
L 199.558294 -255.296309 
L 197.875955 -249.977303 
L 196.193615 -243.560356 
L 194.511276 -236.782504 
L 192.828936 -230.172489 
L 191.146596 -225.241205 
L 189.464257 -222.743914 
L 187.781917 -222.454967 
L 186.099578 -225.218325 
L 184.417238 -228.302223 
L 182.734899 -231.620232 
L 181.052559 -233.854917 
L 179.370219 -232.90034 
L 177.68788 -231.011758 
L 176.00554 -228.512085 
L 174.323201 -225.700696 
L 172.640861 -224.137606 
L 170.958521 -223.652743 
L 169.276182 -223.766982 
L 167.593842 -223.741989 
L 165.911503 -222.822828 
L 164.229163 -220.866321 
L 162.546823 -218.604355 
L 160.864484 -216.673863 
L 159.182144 -215.496577 
L 157.499805 -215.968016 
L 155.817465 -217.413031 
L 154.135126 -218.088671 
L 152.452786 -217.765128 
L 150.770446 -217.166092 
L 149.088107 -216.832408 
L 147.405767 -218.245332 
L 145.723428 -220.849458 
L 144.041088 -223.970913 
L 142.358748 -226.701338 
L 140.676409 -228.600717 
L 138.994069 -228.336177 
L 137.31173 -226.000603 
L 135.62939 -223.639648 
L 133.947051 -221.968354 
L 132.264711 -222.100765 
L 130.582371 -223.371519 
L 128.900032 -226.169021 
L 127.217692 -229.749523 
L 125.535353 -232.814772 
L 123.853013 -233.871711 
L 122.170673 -232.824326 
L 120.488334 -229.892134 
L 118.805994 -226.103304 
L 117.123655 -224.112107 
L 115.441315 -223.591361 
L 113.758976 -225.89927 
L 112.076636 -230.097128 
L 110.394296 -234.220217 
L 108.711957 -236.888758 
L 107.029617 -238.000512 
L 105.347278 -236.483257 
L 103.664938 -233.013403 
L 101.982598 -228.764212 
L 100.300259 -225.473597 
L 98.617919 -222.777121 
L 96.93558 -219.37377 
L 95.25324 -215.243113 
L 93.5709 -210.748561 
L 91.888561 -206.514446 
L 90.206221 -204.575494 
L 88.523882 -205.806228 
L 86.841542 -208.922205 
L 85.159203 -212.162109 
L 83.476863 -214.965454 
L 81.794523 -217.263505 
L 80.112184 -219.488934 
L 78.429844 -222.360088 
L 76.747505 -225.308024 
L 75.065165 -227.720703 
L 73.382825 -229.072247 
L 71.700486 -230.25314 
L 70.018146 -231.169777 
L 68.335807 -232.668413 
L 66.653467 -234.194504 
L 64.971128 -235.497846 
L 63.288788 -236.49763 
L 61.606448 -236.47381 
L 59.924109 -236.716258 
L 58.241769 -238.162296 
L 56.55943 -240.575989 
L 54.87709 -243.120644 
L 53.19475 -245.368449 
L 51.512411 -246.75621 
L 49.830071 -246.234131 
L 48.147732 -244.087318 
L 46.465392 -243.036759 
L 44.783052 -243.286098 
z
" style="stroke: #1f77b4; stroke-opacity: 0.3"/>
    </defs>
    <g>
     <use xlink:href="#m96e040e81d" x="0" y="432" style="fill: #1f77b4; fill-opacity: 0.3; stroke: #1f77b4; stroke-opacity: 0.3"/>
    </g>
   </g>
   <g id="FillBetweenPolyCollection_2">
    <defs>
     <path id="mfdd39f1cde" d="M 44.783052 -222.741432 
L 44.783052 -213.760526 
L 46.465392 -212.971998 
L 48.147732 -213.133559 
L 49.830071 -213.891047 
L 51.512411 -215.033695 
L 53.19475 -216.236515 
L 54.87709 -216.823825 
L 56.55943 -217.158545 
L 58.241769 -217.433597 
L 59.924109 -218.449988 
L 61.606448 -219.382423 
L 63.288788 -220.57029 
L 64.971128 -222.952597 
L 66.653467 -225.813023 
L 68.335807 -228.360589 
L 70.018146 -229.65111 
L 71.700486 -230.433719 
L 73.382825 -229.408925 
L 75.065165 -227.491531 
L 76.747505 -226.634353 
L 78.429844 -227.030662 
L 80.112184 -228.939643 
L 81.794523 -232.647102 
L 83.476863 -236.673256 
L 85.159203 -239.263226 
L 86.841542 -239.283248 
L 88.523882 -236.569541 
L 90.206221 -232.065924 
L 91.888561 -226.682501 
L 93.5709 -222.137825 
L 95.25324 -218.505945 
L 96.93558 -216.386108 
L 98.617919 -215.067463 
L 100.300259 -214.44197 
L 101.982598 -213.662229 
L 103.664938 -213.139325 
L 105.347278 -212.60264 
L 107.029617 -212.449247 
L 108.711957 -211.953534 
L 110.394296 -212.242636 
L 112.076636 -213.35847 
L 113.758976 -215.067794 
L 115.441315 -216.476189 
L 117.123655 -216.654433 
L 118.805994 -214.657988 
L 120.488334 -211.712854 
L 122.170673 -208.540372 
L 123.853013 -206.775142 
L 125.535353 -207.149996 
L 127.217692 -209.576997 
L 128.900032 -212.803036 
L 130.582371 -215.590499 
L 132.264711 -217.473194 
L 133.947051 -218.165051 
L 135.62939 -217.648897 
L 137.31173 -216.54133 
L 138.994069 -213.790333 
L 140.676409 -209.766517 
L 142.358748 -205.782901 
L 144.041088 -203.204868 
L 145.723428 -202.251524 
L 147.405767 -204.273379 
L 149.088107 -207.373849 
L 150.770446 -210.441752 
L 152.452786 -212.505174 
L 154.135126 -213.083271 
L 155.817465 -212.368287 
L 157.499805 -212.090636 
L 159.182144 -212.354103 
L 160.864484 -214.412958 
L 162.546823 -217.102825 
L 164.229163 -219.470907 
L 165.911503 -220.801234 
L 167.593842 -221.305162 
L 169.276182 -221.318089 
L 170.958521 -221.481489 
L 172.640861 -221.430393 
L 174.323201 -221.782753 
L 176.00554 -221.624429 
L 177.68788 -221.07676 
L 179.370219 -220.298218 
L 181.052559 -218.521185 
L 182.734899 -216.588968 
L 184.417238 -215.417201 
L 186.099578 -215.904321 
L 187.781917 -218.503007 
L 189.464257 -223.572827 
L 191.146596 -229.984292 
L 192.828936 -236.073502 
L 194.511276 -240.95674 
L 196.193615 -245.042363 
L 197.875955 -246.998122 
L 199.558294 -246.799484 
L 201.240634 -244.134964 
L 202.922974 -238.738879 
L 204.605313 -231.659493 
L 206.287653 -223.853643 
L 207.969992 -216.465545 
L 209.652332 -211.84164 
L 211.334671 -211.109008 
L 213.017011 -213.827279 
L 214.699351 -219.719806 
L 216.38169 -227.237501 
L 218.06403 -236.437481 
L 219.746369 -247.583014 
L 221.428709 -260.216521 
L 223.111049 -274.008069 
L 224.793388 -286.769391 
L 226.475728 -296.792688 
L 228.158067 -304.705989 
L 229.840407 -310.123511 
L 231.522746 -314.134604 
L 233.205086 -316.872737 
L 234.887426 -319.000383 
L 236.569765 -320.296102 
L 238.252105 -321.026289 
L 239.934444 -321.70725 
L 241.616784 -322.483762 
L 243.299124 -323.389784 
L 244.981463 -323.290148 
L 246.663803 -322.410288 
L 248.346142 -320.916819 
L 250.028482 -318.90562 
L 251.710822 -317.470548 
L 253.393161 -315.23478 
L 255.075501 -313.257235 
L 256.75784 -311.606852 
L 258.44018 -310.729529 
L 260.122519 -312.273118 
L 261.804859 -316.047747 
L 263.487199 -321.161556 
L 265.169538 -326.684295 
L 266.851878 -331.105737 
L 268.534217 -333.855519 
L 270.216557 -335.457931 
L 271.898897 -336.948401 
L 273.581236 -339.265798 
L 275.263576 -341.955037 
L 276.945915 -344.49821 
L 278.628255 -346.193797 
L 280.310594 -346.59102 
L 281.992934 -346.666512 
L 283.675274 -346.698257 
L 285.357613 -347.956301 
L 287.039953 -349.622389 
L 288.722292 -350.440501 
L 290.404632 -350.382499 
L 292.086972 -350.257784 
L 293.769311 -350.207125 
L 295.451651 -351.163408 
L 297.13399 -352.924372 
L 298.81633 -355.480606 
L 300.498669 -357.591302 
L 302.181009 -358.481365 
L 303.863349 -357.453072 
L 305.545688 -354.533167 
L 307.228028 -351.172204 
L 308.910367 -347.607158 
L 310.592707 -343.930221 
L 312.275047 -340.963814 
L 313.957386 -338.95709 
L 315.639726 -337.414628 
L 317.322065 -336.364972 
L 319.004405 -336.146218 
L 320.686745 -335.776156 
L 322.369084 -334.35221 
L 324.051424 -331.911231 
L 325.733763 -328.68614 
L 327.416103 -326.024952 
L 329.098442 -324.837187 
L 330.780782 -324.509367 
L 332.463122 -324.561938 
L 334.145461 -325.9779 
L 335.827801 -328.343712 
L 337.51014 -331.863106 
L 339.19248 -336.359416 
L 340.87482 -341.048963 
L 342.557159 -345.722716 
L 344.239499 -349.791888 
L 345.921838 -353.128414 
L 347.604178 -355.986786 
L 349.286517 -358.104794 
L 350.968857 -358.853915 
L 352.651197 -358.017469 
L 354.333536 -355.896242 
L 356.015876 -352.894765 
L 357.698215 -351.137541 
L 359.380555 -351.709697 
L 361.062895 -354.46689 
L 362.745234 -358.27975 
L 364.427574 -360.412746 
L 366.109913 -360.387146 
L 367.792253 -358.72357 
L 369.474593 -356.890937 
L 371.156932 -355.859717 
L 372.839272 -356.180463 
L 374.521611 -356.289145 
L 376.203951 -355.027085 
L 377.88629 -352.15839 
L 379.56863 -348.649877 
L 381.25097 -345.641138 
L 382.933309 -343.396971 
L 384.615649 -342.387628 
L 386.297988 -341.523387 
L 387.980328 -338.970749 
L 389.662668 -333.348734 
L 391.345007 -325.837408 
L 393.027347 -317.311164 
L 394.709686 -308.17581 
L 396.392026 -300.564473 
L 398.074365 -295.313433 
L 399.756705 -293.231096 
L 401.439045 -292.942329 
L 403.121384 -293.430227 
L 404.803724 -292.544208 
L 406.486063 -290.010759 
L 408.168403 -285.600323 
L 409.850743 -280.407133 
L 411.533082 -275.769881 
L 413.215422 -273.017434 
L 414.897761 -271.582565 
L 416.580101 -270.724044 
L 418.26244 -268.804316 
L 419.94478 -264.649846 
L 421.62712 -259.374888 
L 423.309459 -254.950211 
L 424.991799 -252.391664 
L 426.674138 -252.03603 
L 428.356478 -252.576518 
L 430.038818 -252.044 
L 431.721157 -249.863136 
L 433.403497 -247.816609 
L 435.085836 -246.893072 
L 436.768176 -247.983623 
L 438.450516 -251.258281 
L 440.132855 -255.984955 
L 441.815195 -260.17204 
L 443.497534 -263.268007 
L 445.179874 -265.100511 
L 446.862213 -265.725848 
L 448.544553 -266.677878 
L 450.226893 -268.609551 
L 451.909232 -271.329103 
L 453.591572 -273.781037 
L 455.273911 -274.908862 
L 456.956251 -275.004029 
L 458.638591 -273.945077 
L 460.32093 -273.143006 
L 462.00327 -272.640593 
L 463.685609 -271.642871 
L 465.367949 -269.881239 
L 467.050288 -266.712416 
L 468.732628 -263.11204 
L 470.414968 -259.795178 
L 472.097307 -257.928907 
L 473.779647 -257.795273 
L 475.461986 -258.791603 
L 477.144326 -259.807848 
L 478.826666 -259.968915 
L 480.509005 -259.038625 
L 482.191345 -257.660827 
L 483.873684 -256.075912 
L 485.556024 -255.073962 
L 487.238363 -254.398516 
L 488.920703 -253.715125 
L 490.603043 -252.375129 
L 492.285382 -251.317085 
L 493.967722 -249.93857 
L 495.650061 -248.335576 
L 497.332401 -246.15948 
L 499.014741 -243.225943 
L 500.69708 -240.3555 
L 502.37942 -237.054857 
L 504.061759 -234.262407 
L 505.744099 -233.115183 
L 507.426439 -233.673168 
L 509.108778 -236.001789 
L 510.791118 -238.747277 
L 512.473457 -240.276611 
L 514.155797 -240.775312 
L 515.838136 -240.194992 
L 517.520476 -239.962251 
L 519.202816 -240.43265 
L 520.885155 -241.089915 
L 522.567495 -241.219014 
L 524.249834 -239.781935 
L 525.932174 -237.009069 
L 527.614514 -232.891192 
L 529.296853 -228.454161 
L 530.979193 -225.100437 
L 532.661532 -224.126624 
L 534.343872 -225.186408 
L 536.026211 -227.900888 
L 537.708551 -231.559178 
L 539.390891 -235.244699 
L 541.07323 -238.094187 
L 542.75557 -240.332538 
L 544.437909 -241.933587 
L 546.120249 -242.571793 
L 547.802589 -242.118617 
L 549.484928 -241.533811 
L 551.167268 -240.998524 
L 552.849607 -240.884001 
L 554.531947 -241.373823 
L 556.214286 -241.660686 
L 557.896626 -241.148012 
L 559.578966 -239.686053 
L 561.261305 -238.438575 
L 561.261305 -249.917807 
L 561.261305 -249.917807 
L 559.578966 -250.813156 
L 557.896626 -252.616461 
L 556.214286 -253.669995 
L 554.531947 -253.774317 
L 552.849607 -253.694839 
L 551.167268 -253.818715 
L 549.484928 -253.865012 
L 547.802589 -254.211809 
L 546.120249 -254.514046 
L 544.437909 -253.79191 
L 542.75557 -252.347304 
L 541.07323 -250.510077 
L 539.390891 -247.970688 
L 537.708551 -244.319117 
L 536.026211 -240.445324 
L 534.343872 -237.677286 
L 532.661532 -236.857392 
L 530.979193 -238.071188 
L 529.296853 -240.944301 
L 527.614514 -245.201283 
L 525.932174 -249.192942 
L 524.249834 -252.241773 
L 522.567495 -253.720437 
L 520.885155 -253.793948 
L 519.202816 -253.217953 
L 517.520476 -252.69612 
L 515.838136 -252.872675 
L 514.155797 -253.290028 
L 512.473457 -252.749755 
L 510.791118 -250.799713 
L 509.108778 -247.776006 
L 507.426439 -245.445302 
L 505.744099 -245.009733 
L 504.061759 -246.594469 
L 502.37942 -249.531329 
L 500.69708 -252.755644 
L 499.014741 -255.827245 
L 497.332401 -258.4432 
L 495.650061 -260.389109 
L 493.967722 -261.634735 
L 492.285382 -262.51611 
L 490.603043 -263.599116 
L 488.920703 -265.068576 
L 487.238363 -266.034766 
L 485.556024 -266.50161 
L 483.873684 -267.475969 
L 482.191345 -269.006117 
L 480.509005 -270.629072 
L 478.826666 -271.502795 
L 477.144326 -271.280272 
L 475.461986 -270.054724 
L 473.779647 -269.012887 
L 472.097307 -269.179969 
L 470.414968 -271.206182 
L 468.732628 -274.560219 
L 467.050288 -278.191463 
L 465.367949 -281.506047 
L 463.685609 -283.429626 
L 462.00327 -284.442174 
L 460.32093 -284.983655 
L 458.638591 -285.893567 
L 456.956251 -286.631365 
L 455.273911 -286.422885 
L 453.591572 -285.210775 
L 451.909232 -283.079288 
L 450.226893 -280.511058 
L 448.544553 -278.880295 
L 446.862213 -278.345378 
L 445.179874 -277.45507 
L 443.497534 -275.780581 
L 441.815195 -272.50883 
L 440.132855 -268.190894 
L 438.450516 -263.225545 
L 436.768176 -259.615422 
L 435.085836 -258.383208 
L 433.403497 -259.423084 
L 431.721157 -261.736837 
L 430.038818 -263.664109 
L 428.356478 -263.871 
L 426.674138 -263.119334 
L 424.991799 -263.2664 
L 423.309459 -265.722632 
L 421.62712 -270.337704 
L 419.94478 -275.504063 
L 418.26244 -279.586486 
L 416.580101 -281.725185 
L 414.897761 -282.845566 
L 413.215422 -283.824753 
L 411.533082 -286.49316 
L 409.850743 -291.210218 
L 408.168403 -296.736746 
L 406.486063 -301.607708 
L 404.803724 -305.085629 
L 403.121384 -306.349457 
L 401.439045 -305.995703 
L 399.756705 -305.947196 
L 398.074365 -308.00742 
L 396.392026 -312.681944 
L 394.709686 -320.035118 
L 393.027347 -328.91767 
L 391.345007 -337.492755 
L 389.662668 -345.175401 
L 387.980328 -350.982128 
L 386.297988 -353.805704 
L 384.615649 -354.735814 
L 382.933309 -355.446129 
L 381.25097 -357.28174 
L 379.56863 -360.08095 
L 377.88629 -363.879736 
L 376.203951 -366.963993 
L 374.521611 -368.445159 
L 372.839272 -369.091505 
L 371.156932 -369.166515 
L 369.474593 -370.017726 
L 367.792253 -371.406465 
L 366.109913 -372.873999 
L 364.427574 -372.845115 
L 362.745234 -370.815437 
L 361.062895 -367.336888 
L 359.380555 -364.513703 
L 357.698215 -364.126346 
L 356.015876 -365.81082 
L 354.333536 -368.823648 
L 352.651197 -370.941857 
L 350.968857 -371.618674 
L 349.286517 -370.639975 
L 347.604178 -368.273076 
L 345.921838 -365.092622 
L 344.239499 -361.615799 
L 342.557159 -357.64307 
L 340.87482 -353.168342 
L 339.19248 -348.857714 
L 337.51014 -344.624308 
L 335.827801 -341.536798 
L 334.145461 -339.05058 
L 332.463122 -337.660603 
L 330.780782 -337.87692 
L 329.098442 -338.406083 
L 327.416103 -339.736877 
L 325.733763 -342.25879 
L 324.051424 -344.967444 
L 322.369084 -347.490838 
L 320.686745 -348.936879 
L 319.004405 -349.691517 
L 317.322065 -349.688533 
L 315.639726 -350.536508 
L 313.957386 -352.016083 
L 312.275047 -353.688822 
L 310.592707 -355.903243 
L 308.910367 -359.002492 
L 307.228028 -362.133665 
L 305.545688 -365.462576 
L 303.863349 -368.528696 
L 302.181009 -369.963942 
L 300.498669 -369.748661 
L 298.81633 -367.947573 
L 297.13399 -365.207028 
L 295.451651 -363.192064 
L 293.769311 -362.071083 
L 292.086972 -361.593115 
L 290.404632 -361.413684 
L 288.722292 -361.174645 
L 287.039953 -359.938434 
L 285.357613 -358.24534 
L 283.675274 -357.227008 
L 281.992934 -357.415836 
L 280.310594 -357.667349 
L 278.628255 -357.517649 
L 276.945915 -355.885741 
L 275.263576 -353.191558 
L 273.581236 -350.097854 
L 271.898897 -347.563001 
L 270.216557 -345.678932 
L 268.534217 -343.962178 
L 266.851878 -341.279797 
L 265.169538 -337.251693 
L 263.487199 -332.2417 
L 261.804859 -327.299378 
L 260.122519 -323.849085 
L 258.44018 -322.635699 
L 256.75784 -323.527208 
L 255.075501 -325.051599 
L 253.393161 -326.754592 
L 251.710822 -328.332873 
L 250.028482 -329.54449 
L 248.346142 -331.15995 
L 246.663803 -332.894845 
L 244.981463 -334.309089 
L 243.299124 -334.78182 
L 241.616784 -333.754235 
L 239.934444 -332.383813 
L 238.252105 -331.38831 
L 236.569765 -330.85242 
L 234.887426 -329.370028 
L 233.205086 -327.308341 
L 231.522746 -324.776812 
L 229.840407 -321.134424 
L 228.158067 -315.607237 
L 226.475728 -307.788503 
L 224.793388 -297.868895 
L 223.111049 -285.045364 
L 221.428709 -271.027312 
L 219.746369 -258.002782 
L 218.06403 -246.99541 
L 216.38169 -237.932482 
L 214.699351 -230.344224 
L 213.017011 -224.147276 
L 211.334671 -221.351162 
L 209.652332 -222.32275 
L 207.969992 -226.998513 
L 206.287653 -234.271239 
L 204.605313 -242.305521 
L 202.922974 -249.477988 
L 201.240634 -254.75667 
L 199.558294 -257.292601 
L 197.875955 -257.625637 
L 196.193615 -255.736544 
L 194.511276 -252.076969 
L 192.828936 -247.449672 
L 191.146596 -241.039816 
L 189.464257 -234.765528 
L 187.781917 -229.482916 
L 186.099578 -226.449919 
L 184.417238 -225.794166 
L 182.734899 -226.598565 
L 181.052559 -228.408907 
L 179.370219 -230.574321 
L 177.68788 -231.593189 
L 176.00554 -232.145837 
L 174.323201 -232.51221 
L 172.640861 -232.345325 
L 170.958521 -232.652034 
L 169.276182 -233.052279 
L 167.593842 -233.509238 
L 165.911503 -233.232907 
L 164.229163 -231.775336 
L 162.546823 -228.756304 
L 160.864484 -225.748222 
L 159.182144 -223.415105 
L 157.499805 -222.798575 
L 155.817465 -222.942929 
L 154.135126 -223.395176 
L 152.452786 -222.822681 
L 150.770446 -221.233222 
L 149.088107 -218.307564 
L 147.405767 -215.31394 
L 145.723428 -213.213165 
L 144.041088 -213.647387 
L 142.358748 -216.119874 
L 140.676409 -219.764273 
L 138.994069 -223.387065 
L 137.31173 -225.770001 
L 135.62939 -226.647749 
L 133.947051 -226.534786 
L 132.264711 -225.336455 
L 130.582371 -222.833909 
L 128.900032 -219.646396 
L 127.217692 -216.458167 
L 125.535353 -214.060177 
L 123.853013 -213.705279 
L 122.170673 -215.501069 
L 120.488334 -219.022986 
L 118.805994 -221.967212 
L 117.123655 -224.198679 
L 115.441315 -224.752799 
L 113.758976 -223.79318 
L 112.076636 -222.200331 
L 110.394296 -220.797923 
L 108.711957 -220.227004 
L 107.029617 -220.153138 
L 105.347278 -220.126951 
L 103.664938 -220.969118 
L 101.982598 -221.395117 
L 100.300259 -221.771844 
L 98.617919 -221.984318 
L 96.93558 -223.255374 
L 95.25324 -225.228999 
L 93.5709 -228.907523 
L 91.888561 -233.722963 
L 90.206221 -239.004347 
L 88.523882 -243.634442 
L 86.841542 -246.194093 
L 85.159203 -245.912525 
L 83.476863 -242.994488 
L 81.794523 -238.848402 
L 80.112184 -234.90869 
L 78.429844 -232.986157 
L 76.747505 -232.712395 
L 75.065165 -233.93045 
L 73.382825 -236.053788 
L 71.700486 -237.204751 
L 70.018146 -236.621095 
L 68.335807 -235.414471 
L 66.653467 -233.469661 
L 64.971128 -231.119875 
L 63.288788 -229.49178 
L 61.606448 -228.232275 
L 59.924109 -227.255251 
L 58.241769 -226.385486 
L 56.55943 -226.006929 
L 54.87709 -225.307517 
L 53.19475 -224.333283 
L 51.512411 -223.179739 
L 49.830071 -222.178896 
L 48.147732 -221.700581 
L 46.465392 -221.915097 
L 44.783052 -222.741432 
z
" style="stroke: #ff7f0e; stroke-opacity: 0.3"/>
    </defs>
    <g>
     <use xlink:href="#mfdd39f1cde" x="0" y="432" style="fill: #ff7f0e; fill-opacity: 0.3; stroke: #ff7f0e; stroke-opacity: 0.3"/>
    </g>
   </g>
   <g id="line2d_17">
    <path d="M 44.783052 195.260044 
L 46.465392 195.232964 
L 48.147732 193.753023 
L 49.830071 191.599148 
L 51.512411 190.767082 
L 53.19475 192.003582 
L 54.87709 194.169006 
L 58.241769 198.969724 
L 59.924109 200.474621 
L 61.606448 201.051853 
L 63.288788 200.937365 
L 64.971128 201.967603 
L 66.653467 203.319213 
L 68.335807 204.817886 
L 70.018146 206.027969 
L 71.700486 206.754338 
L 73.382825 207.617359 
L 75.065165 208.860691 
L 76.747505 210.871126 
L 80.112184 216.07693 
L 83.476863 220.281601 
L 85.159203 223.256822 
L 88.523882 229.775765 
L 90.206221 231.200581 
L 91.888561 229.572649 
L 93.5709 225.773565 
L 96.93558 217.357897 
L 98.617919 213.760956 
L 100.300259 210.890189 
L 101.982598 207.47792 
L 103.664938 203.621544 
L 105.347278 200.588294 
L 107.029617 199.569058 
L 108.711957 200.532646 
L 110.394296 203.372636 
L 113.758976 211.53311 
L 115.441315 213.509798 
L 117.123655 212.728912 
L 118.805994 210.539961 
L 120.488334 206.884514 
L 122.170673 204.356115 
L 123.853013 203.515244 
L 125.535353 204.561874 
L 127.217692 207.581051 
L 128.900032 211.107212 
L 130.582371 213.935088 
L 132.264711 215.493289 
L 133.947051 215.791177 
L 135.62939 214.410855 
L 138.994069 209.78626 
L 140.676409 209.057393 
L 142.358748 210.907461 
L 144.041088 213.684787 
L 145.723428 216.726157 
L 147.405767 219.253873 
L 149.088107 220.663981 
L 150.770446 220.608123 
L 152.452786 220.148563 
L 154.135126 219.941717 
L 155.817465 220.49271 
L 157.499805 221.697839 
L 159.182144 222.028152 
L 160.864484 220.958819 
L 165.911503 215.517501 
L 167.593842 214.446273 
L 169.276182 214.396736 
L 170.958521 214.706649 
L 172.640861 214.301597 
L 174.323201 212.834866 
L 177.68788 207.649889 
L 179.370219 205.290134 
L 181.052559 204.541245 
L 182.734899 206.945705 
L 186.099578 213.816147 
L 187.781917 216.663962 
L 189.464257 216.590372 
L 191.146596 213.857406 
L 192.828936 208.801706 
L 194.511276 202.023448 
L 196.193615 194.718212 
L 197.875955 188.291562 
L 199.558294 183.242418 
L 201.240634 180.466322 
L 202.922974 180.629611 
L 204.605313 184.303465 
L 206.287653 189.732324 
L 207.969992 194.12064 
L 209.652332 195.442874 
L 211.334671 192.246654 
L 213.017011 184.576772 
L 214.699351 173.873159 
L 221.428709 126.007588 
L 223.111049 114.677777 
L 224.793388 104.555378 
L 226.475728 96.459756 
L 228.158067 91.430458 
L 229.840407 89.181321 
L 231.522746 88.748341 
L 233.205086 88.496175 
L 234.887426 87.757982 
L 236.569765 87.257305 
L 238.252105 87.837028 
L 239.934444 89.93129 
L 241.616784 93.740197 
L 243.299124 98.002952 
L 244.981463 101.003181 
L 246.663803 102.611806 
L 248.346142 102.924677 
L 250.028482 102.883169 
L 251.710822 101.972833 
L 255.075501 99.18739 
L 256.75784 97.864897 
L 258.44018 95.646321 
L 260.122519 92.462587 
L 265.169538 82.136042 
L 266.851878 78.029619 
L 268.534217 72.558427 
L 271.898897 59.267958 
L 273.581236 54.333728 
L 275.263576 50.795607 
L 276.945915 48.468408 
L 278.628255 46.973291 
L 280.310594 47.077626 
L 281.992934 49.24473 
L 283.675274 53.32057 
L 287.039953 63.501615 
L 288.722292 67.487447 
L 290.404632 69.653997 
L 292.086972 70.617452 
L 293.769311 71.961369 
L 295.451651 73.906346 
L 297.13399 76.610366 
L 300.498669 84.624565 
L 302.181009 88.637487 
L 303.863349 92.99714 
L 305.545688 96.944052 
L 307.228028 99.514729 
L 308.910367 100.629734 
L 310.592707 99.399322 
L 312.275047 96.318246 
L 313.957386 92.155097 
L 315.639726 88.506222 
L 317.322065 86.480887 
L 319.004405 86.63224 
L 320.686745 87.406289 
L 322.369084 88.332926 
L 324.051424 88.266598 
L 325.733763 86.477958 
L 327.416103 82.920774 
L 329.098442 78.578246 
L 330.780782 72.746433 
L 332.463122 65.576875 
L 335.827801 48.818469 
L 337.51014 42.50263 
L 339.19248 38.624615 
L 340.87482 37.069138 
L 342.557159 36.146864 
L 344.239499 34.123647 
L 347.604178 28.07134 
L 349.286517 25.87707 
L 350.968857 26.272883 
L 352.651197 29.274547 
L 354.333536 34.362152 
L 356.015876 38.956588 
L 357.698215 41.352631 
L 359.380555 41.928735 
L 361.062895 41.048542 
L 362.745234 39.612817 
L 366.109913 37.097798 
L 369.474593 34.305071 
L 371.156932 34.579021 
L 372.839272 36.681952 
L 374.521611 39.703059 
L 376.203951 43.314707 
L 377.88629 46.541298 
L 379.56863 48.457195 
L 381.25097 49.234722 
L 382.933309 49.326736 
L 384.615649 50.544993 
L 386.297988 53.492324 
L 387.980328 57.455492 
L 389.662668 61.770001 
L 391.345007 65.474875 
L 393.027347 68.572542 
L 394.709686 71.969673 
L 396.392026 76.553808 
L 399.756705 87.206136 
L 401.439045 91.204598 
L 403.121384 93.943252 
L 404.803724 96.987495 
L 406.486063 100.87142 
L 408.168403 106.087508 
L 411.533082 118.417364 
L 413.215422 123.360111 
L 414.897761 127.147979 
L 416.580101 129.614439 
L 418.26244 131.864441 
L 419.94478 134.349888 
L 421.62712 136.56993 
L 424.991799 139.572384 
L 426.674138 141.940337 
L 428.356478 145.476793 
L 430.038818 150.151476 
L 431.721157 154.155444 
L 433.403497 155.980424 
L 435.085836 155.642491 
L 436.768176 153.525361 
L 438.450516 150.668158 
L 440.132855 148.318547 
L 441.815195 147.055998 
L 443.497534 146.318265 
L 445.179874 145.775488 
L 446.862213 145.952057 
L 448.544553 146.915542 
L 450.226893 149.360056 
L 453.591572 156.113089 
L 455.273911 157.965704 
L 456.956251 158.049715 
L 458.638591 156.261964 
L 460.32093 154.687855 
L 462.00327 155.661226 
L 463.685609 158.775354 
L 465.367949 162.984616 
L 467.050288 166.312833 
L 468.732628 168.634002 
L 470.414968 170.102834 
L 472.097307 170.667275 
L 473.779647 170.533613 
L 477.144326 169.39901 
L 478.826666 168.881327 
L 480.509005 168.643129 
L 482.191345 169.717223 
L 483.873684 171.773811 
L 485.556024 174.030883 
L 487.238363 175.840977 
L 488.920703 176.769859 
L 490.603043 177.028566 
L 492.285382 177.138719 
L 493.967722 178.081389 
L 495.650061 179.527581 
L 499.014741 183.86123 
L 502.37942 186.791967 
L 505.744099 189.640237 
L 507.426439 190.703971 
L 509.108778 191.373649 
L 510.791118 191.213357 
L 512.473457 190.588303 
L 514.155797 189.435372 
L 515.838136 188.706034 
L 517.520476 189.237118 
L 519.202816 190.869072 
L 520.885155 193.034286 
L 522.567495 194.23159 
L 524.249834 195.233822 
L 525.932174 196.405075 
L 527.614514 197.166844 
L 529.296853 197.719574 
L 530.979193 198.07623 
L 534.343872 198.484873 
L 537.708551 197.816737 
L 539.390891 197.591828 
L 541.07323 197.841676 
L 544.437909 198.476952 
L 546.120249 197.931664 
L 547.802589 195.991456 
L 549.484928 193.268052 
L 551.167268 190.779355 
L 552.849607 189.493097 
L 554.531947 190.003608 
L 556.214286 192.346703 
L 557.896626 195.209995 
L 559.578966 197.67426 
L 561.261305 199.67031 
L 561.261305 199.67031 
" style="fill: none; stroke: #1f77b4; stroke-width: 1.5; stroke-linecap: square"/>
   </g>
   <g id="line2d_18">
    <path d="M 44.783052 213.866444 
L 46.465392 214.643799 
L 48.147732 214.758371 
L 49.830071 214.151489 
L 53.19475 211.814084 
L 54.87709 211.039301 
L 56.55943 210.535996 
L 58.241769 210.191872 
L 61.606448 208.44968 
L 63.288788 207.169503 
L 64.971128 205.092904 
L 66.653467 202.473808 
L 68.335807 200.209698 
L 70.018146 198.868668 
L 71.700486 198.255062 
L 73.382825 199.311538 
L 75.065165 201.315171 
L 76.747505 202.387638 
L 78.429844 202.037656 
L 80.112184 200.049641 
L 81.794523 196.281408 
L 83.476863 192.129686 
L 85.159203 189.311646 
L 86.841542 189.201527 
L 88.523882 191.815871 
L 90.206221 196.378094 
L 91.888561 201.762524 
L 93.5709 206.444142 
L 95.25324 210.049421 
L 96.93558 212.190235 
L 98.617919 213.436581 
L 103.664938 214.994517 
L 105.347278 215.62691 
L 108.711957 215.913669 
L 110.394296 215.40319 
L 112.076636 214.14963 
L 113.758976 212.446079 
L 115.441315 211.262224 
L 117.123655 211.437485 
L 118.805994 213.49023 
L 120.488334 216.523108 
L 122.170673 219.876115 
L 123.853013 221.700275 
L 125.535353 221.400802 
L 127.217692 218.961028 
L 130.582371 212.624138 
L 132.264711 210.517023 
L 133.947051 209.568967 
L 135.62939 209.669803 
L 137.31173 210.694675 
L 138.994069 213.283319 
L 142.358748 220.869144 
L 144.041088 223.396192 
L 145.723428 224.033735 
L 147.405767 221.973209 
L 150.770446 215.897978 
L 152.452786 213.967748 
L 154.135126 213.568202 
L 155.817465 214.136629 
L 157.499805 214.432561 
L 159.182144 213.941257 
L 160.864484 211.835837 
L 162.546823 208.878771 
L 164.229163 206.178165 
L 165.911503 204.720998 
L 167.593842 204.389223 
L 169.276182 204.642581 
L 172.640861 204.900514 
L 174.323201 204.631587 
L 176.00554 204.92701 
L 177.68788 205.468504 
L 179.370219 206.367717 
L 182.734899 210.229946 
L 184.417238 211.189227 
L 186.099578 210.556849 
L 187.781917 207.711642 
L 189.464257 202.608482 
L 192.828936 190.066907 
L 194.511276 185.273077 
L 196.193615 181.371212 
L 197.875955 179.522902 
L 199.558294 179.684585 
L 201.240634 182.211205 
L 202.922974 187.454859 
L 204.605313 194.699537 
L 206.287653 202.765947 
L 207.969992 210.070772 
L 209.652332 214.704589 
L 211.334671 215.638315 
L 213.017011 212.840221 
L 214.699351 206.760504 
L 216.38169 199.288096 
L 218.06403 190.194884 
L 219.746369 179.170296 
L 221.428709 166.385169 
L 223.111049 152.351429 
L 224.793388 139.713602 
L 226.475728 129.586502 
L 228.158067 121.745262 
L 229.840407 116.20433 
L 231.522746 112.313634 
L 233.205086 109.668491 
L 234.887426 107.626446 
L 236.569765 106.240077 
L 239.934444 104.799462 
L 241.616784 103.65474 
L 243.299124 102.781539 
L 244.981463 102.958456 
L 246.663803 104.097982 
L 250.028482 107.471517 
L 251.710822 108.876331 
L 255.075501 112.654601 
L 256.75784 114.231845 
L 258.44018 115.060614 
L 260.122519 113.713547 
L 261.804859 110.203671 
L 265.169538 99.829808 
L 266.851878 95.54289 
L 268.534217 92.894348 
L 271.898897 89.592675 
L 273.581236 87.162524 
L 276.945915 81.709132 
L 278.628255 80.07899 
L 280.310594 79.74322 
L 283.675274 79.839499 
L 285.357613 78.73663 
L 287.039953 77.15879 
L 288.722292 76.167355 
L 290.404632 76.015441 
L 292.086972 76.033642 
L 293.769311 75.785614 
L 295.451651 74.679576 
L 297.13399 72.785498 
L 298.81633 70.171852 
L 300.498669 68.250919 
L 302.181009 67.750386 
L 303.863349 69.112507 
L 305.545688 72.011088 
L 310.592707 82.055527 
L 312.275047 84.625175 
L 313.957386 86.365484 
L 315.639726 87.929129 
L 317.322065 88.845422 
L 319.004405 89.024664 
L 320.686745 89.535104 
L 322.369084 90.927556 
L 324.051424 93.318613 
L 325.733763 96.230177 
L 327.416103 98.860407 
L 329.098442 100.269178 
L 330.780782 100.710494 
L 332.463122 100.830594 
L 334.145461 99.48753 
L 335.827801 97.125992 
L 337.51014 93.668154 
L 340.87482 84.846727 
L 342.557159 80.277099 
L 344.239499 76.251455 
L 345.921838 72.762008 
L 347.604178 69.618601 
L 349.286517 67.35432 
L 350.968857 66.401859 
L 352.651197 67.125736 
L 354.333536 69.275395 
L 356.015876 72.388141 
L 357.698215 74.10631 
L 359.380555 73.628036 
L 361.062895 70.784503 
L 362.745234 67.237942 
L 364.427574 65.082284 
L 366.109913 65.006522 
L 369.474593 68.185272 
L 371.156932 68.973898 
L 372.839272 68.854724 
L 374.521611 69.193225 
L 376.203951 70.646235 
L 377.88629 73.657946 
L 379.56863 77.238388 
L 381.25097 80.272256 
L 382.933309 82.267349 
L 384.615649 83.09279 
L 386.297988 84.047463 
L 387.980328 86.776757 
L 389.662668 92.43961 
L 391.345007 100.020314 
L 394.709686 117.666398 
L 396.392026 125.100366 
L 398.074365 130.088851 
L 399.756705 132.194577 
L 401.439045 132.169185 
L 403.121384 131.736815 
L 404.803724 132.791688 
L 406.486063 135.986449 
L 408.168403 140.716888 
L 409.850743 146.127271 
L 411.533082 150.858154 
L 413.215422 153.564691 
L 414.897761 154.825212 
L 416.580101 155.640875 
L 418.26244 157.757851 
L 419.94478 161.890589 
L 421.62712 167.030147 
L 423.309459 171.636869 
L 424.991799 174.119388 
L 426.674138 174.368633 
L 428.356478 173.803923 
L 430.038818 174.179346 
L 431.721157 176.161051 
L 433.403497 178.452318 
L 435.085836 179.498562 
L 436.768176 178.246045 
L 438.450516 174.802392 
L 440.132855 170.002592 
L 441.815195 165.744225 
L 443.497534 162.542255 
L 445.179874 160.826789 
L 448.544553 159.367294 
L 450.226893 157.549237 
L 451.909232 154.781884 
L 453.591572 152.462955 
L 455.273911 151.261033 
L 456.956251 151.187838 
L 460.32093 153.069353 
L 462.00327 153.576259 
L 463.685609 154.612681 
L 465.367949 156.460546 
L 467.050288 159.564254 
L 468.732628 163.200292 
L 470.414968 166.520547 
L 472.097307 168.47839 
L 473.779647 168.525852 
L 477.144326 166.425418 
L 478.826666 166.308416 
L 480.509005 167.196991 
L 482.191345 168.597367 
L 483.873684 170.175618 
L 485.556024 171.227979 
L 487.238363 171.753281 
L 488.920703 172.646103 
L 492.285382 175.139044 
L 493.967722 176.275522 
L 495.650061 177.752768 
L 497.332401 179.813701 
L 499.014741 182.50268 
L 500.69708 185.463688 
L 502.37942 188.67379 
L 504.061759 191.477579 
L 505.744099 192.930963 
L 507.426439 192.460484 
L 509.108778 190.12091 
L 510.791118 187.369244 
L 512.473457 185.597631 
L 514.155797 185.069627 
L 517.520476 185.739767 
L 519.202816 185.266545 
L 520.885155 184.674923 
L 522.567495 184.667239 
L 524.249834 186.136123 
L 525.932174 189.080272 
L 527.614514 193.08181 
L 529.296853 197.412059 
L 530.979193 200.526644 
L 532.661532 201.50229 
L 534.343872 200.562623 
L 536.026211 197.820997 
L 539.390891 190.438537 
L 541.07323 187.643608 
L 542.75557 185.498043 
L 544.437909 184.026455 
L 546.120249 183.319629 
L 547.802589 183.649973 
L 549.484928 184.109995 
L 551.167268 184.409235 
L 552.849607 184.571038 
L 556.214286 184.240842 
L 557.896626 185.137854 
L 559.578966 186.769183 
L 561.261305 187.910847 
L 561.261305 187.910847 
" style="fill: none; stroke: #ff7f0e; stroke-width: 1.5; stroke-linecap: square"/>
   </g>
  </g>
  <g id="axes_2">
   <g id="PathCollection_1">
    <defs>
     <path id="C0_0_adf4b3af27" d="M 0 1.118034 
C 0.296506 1.118034 0.580908 1.000231 0.790569 0.790569 
C 1.000231 0.580908 1.118034 0.296506 1.118034 -0 
C 1.118034 -0.296506 1.000231 -0.580908 0.790569 -0.790569 
C 0.580908 -1.000231 0.296506 -1.118034 0 -1.118034 
C -0.296506 -1.118034 -0.580908 -1.000231 -0.790569 -0.790569 
C -1.000231 -0.580908 -1.118034 -0.296506 -1.118034 0 
C -1.118034 0.296506 -1.000231 0.580908 -0.790569 0.790569 
C -0.580908 1.000231 -0.296506 1.118034 0 1.118034 
z
"/>
    </defs>
    <g clip-path="url(#pb34c6229f7)">
     <use xlink:href="#C0_0_adf4b3af27" x="509.092397" y="76.413687" style="stroke: #000000"/>
    </g>
    <g clip-path="url(#pb34c6229f7)">
     <use xlink:href="#C0_0_adf4b3af27" x="527.447957" y="76.963886" style="stroke: #000000"/>
    </g>
    <g clip-path="url(#pb34c6229f7)">
     <use xlink:href="#C0_0_adf4b3af27" x="491.310573" y="76.940586" style="stroke: #000000"/>
    </g>
    <g clip-path="url(#pb34c6229f7)">
     <use xlink:href="#C0_0_adf4b3af27" x="494.018443" y="86.068197" style="stroke: #000000"/>
    </g>
    <g clip-path="url(#pb34c6229f7)">
     <use xlink:href="#C0_0_adf4b3af27" x="524.547135" y="86.07817" style="stroke: #000000"/>
    </g>
    <g clip-path="url(#pb34c6229f7)">
     <use xlink:href="#C0_0_adf4b3af27" x="509.035125" y="85.80057" style="stroke: #000000"/>
    </g>
   </g>
   <g id="matplotlib.axis_3"/>
   <g id="matplotlib.axis_4"/>
   <g id="line2d_19">
    <path d="M 548.860095 73.636387 
L 548.782417 71.164635 
L 548.54969 68.702638 
L 548.162832 66.260111 
L 547.623369 63.846696 
L 546.933432 61.471916 
L 546.095742 59.145144 
L 545.113607 56.875562 
L 543.990901 54.672127 
L 542.732055 52.543535 
L 541.342038 50.498188 
L 539.826336 48.544156 
L 538.19093 46.689152 
L 536.442274 44.940496 
L 534.58727 43.30509 
L 532.633238 41.789388 
L 530.587891 40.399371 
L 528.459299 39.140526 
L 526.255865 38.017819 
L 523.986282 37.035684 
L 521.65951 36.197994 
L 519.28473 35.508057 
L 516.871315 34.968594 
L 514.428789 34.581736 
L 511.966791 34.349009 
L 509.495039 34.271331 
L 507.023286 34.349009 
L 504.561289 34.581736 
L 502.118763 34.968594 
L 499.705347 35.508057 
L 497.330567 36.197994 
L 495.003795 37.035684 
L 492.734213 38.017819 
L 490.530778 39.140526 
L 488.402187 40.399371 
L 486.356839 41.789388 
L 484.402808 43.30509 
L 482.547803 44.940496 
L 480.799148 46.689152 
L 479.163742 48.544156 
L 477.648039 50.498188 
L 476.258022 52.543535 
L 474.999177 54.672127 
L 473.876471 56.875562 
L 472.894335 59.145144 
L 472.056645 61.471916 
L 471.366708 63.846696 
L 470.827246 66.260111 
L 470.440388 68.702638 
L 470.20766 71.164635 
L 470.129982 73.636387 
L 470.20766 76.10814 
L 470.440388 78.570137 
L 470.827246 81.012663 
L 471.366708 83.426079 
L 472.056645 85.800859 
L 472.894335 88.127631 
L 473.876471 90.397213 
L 474.999177 92.600648 
L 476.258022 94.729239 
L 477.648039 96.774587 
L 479.163742 98.728619 
L 480.799148 100.583623 
L 482.547803 102.332278 
L 484.402808 103.967685 
L 486.356839 105.483387 
L 488.402187 106.873404 
L 490.530778 108.132249 
L 492.734213 109.254955 
L 495.003795 110.237091 
L 497.330567 111.074781 
L 499.705347 111.764718 
L 502.118763 112.30418 
L 504.561289 112.691038 
L 507.023286 112.923766 
L 509.495039 113.001444 
L 511.966791 112.923766 
L 514.428789 112.691038 
L 516.871315 112.30418 
L 519.28473 111.764718 
L 521.65951 111.074781 
L 523.986282 110.237091 
L 526.255865 109.254955 
L 528.459299 108.132249 
L 530.587891 106.873404 
L 532.633238 105.483387 
L 534.58727 103.967685 
L 536.442274 102.332278 
L 538.19093 100.583623 
L 539.826336 98.728619 
L 541.342038 96.774587 
L 542.732055 94.729239 
L 543.990901 92.600648 
L 545.113607 90.397213 
L 546.095742 88.127631 
L 546.933432 85.800859 
L 547.623369 83.426079 
L 548.162832 81.012663 
L 548.54969 78.570137 
L 548.782417 76.10814 
L 548.860095 73.636387 
" style="fill: none; stroke: #000000; stroke-linecap: square"/>
   </g>
   <g id="line2d_20">
    <path d="M 501.250441 35.144385 
L 509.495039 28.366573 
L 517.739637 35.144385 
" style="fill: none; stroke: #000000; stroke-linecap: square"/>
   </g>
   <g id="line2d_21">
    <path d="M 470.366173 69.266866 
L 469.342681 67.534804 
L 468.71284 67.47182 
L 467.775952 67.763121 
L 466.831191 69.266866 
L 466.980778 74.069403 
L 466.429667 80.974034 
L 467.610619 83.973651 
L 469.342681 84.532635 
L 470.996014 83.076128 
" style="fill: none; stroke: #000000; stroke-linecap: square"/>
   </g>
   <g id="line2d_22">
    <path d="M 548.623905 69.266866 
L 549.647396 67.534804 
L 550.277237 67.47182 
L 551.214125 67.763121 
L 552.158887 69.266866 
L 552.0093 74.069403 
L 552.56041 80.974034 
L 551.379459 83.973651 
L 549.647396 84.532635 
L 547.994064 83.076128 
" style="fill: none; stroke: #000000; stroke-linecap: square"/>
   </g>
  </g>
 </g>
 <defs>
  <clipPath id="pc96b10e6a4">
   <rect x="44.783053" y="18.118365" width="517.083895" height="380.525145"/>
  </clipPath>
  <clipPath id="pb34c6229f7">
   <rect x="462.12313" y="24.134829" width="94.743817" height="93.098358"/>
  </clipPath>
 </defs>
</svg>
