<?xml version="1.0" encoding="utf-8" standalone="no"?>
<!DOCTYPE svg PUBLIC "-//W3C//DTD SVG 1.1//EN"
  "http://www.w3.org/Graphics/SVG/1.1/DTD/svg11.dtd">
<svg xmlns:xlink="http://www.w3.org/1999/xlink" width="576pt" height="432pt" viewBox="0 0 576 432" xmlns="http://www.w3.org/2000/svg" version="1.1">
 <metadata>
  <rdf:RDF xmlns:dc="http://purl.org/dc/elements/1.1/" xmlns:cc="http://creativecommons.org/ns#" xmlns:rdf="http://www.w3.org/1999/02/22-rdf-syntax-ns#">
   <cc:Work>
    <dc:type rdf:resource="http://purl.org/dc/dcmitype/StillImage"/>
    <dc:date>2025-02-20T17:25:40.082137</dc:date>
    <dc:format>image/svg+xml</dc:format>
    <dc:creator>
     <cc:Agent>
      <dc:title>Matplotlib v3.10.0, https://matplotlib.org/</dc:title>
     </cc:Agent>
    </dc:creator>
   </cc:Work>
  </rdf:RDF>
 </metadata>
 <defs>
  <style type="text/css">*{stroke-linejoin: round; stroke-linecap: butt}</style>
 </defs>
 <g id="figure_1">
  <g id="patch_1">
   <path d="M 0 432 
L 576 432 
L 576 0 
L 0 0 
z
" style="fill: #ffffff"/>
  </g>
  <g id="axes_1">
   <g id="patch_2">
    <path d="M 44.783053 398.64351 
L 561.866947 398.64351 
L 561.866947 18.118365 
L 44.783053 18.118365 
L 44.783053 398.64351 
z
" style="fill: none; opacity: 0"/>
   </g>
   <g id="patch_3">
    <path d="M 44.783053 361.193063 
L 44.783053 55.568812 
" style="fill: none; stroke: #000000; stroke-width: 0.8; stroke-linejoin: miter; stroke-linecap: square"/>
   </g>
   <g id="LineCollection_1">
    <path d="M 217.3238 18.118365 
L 217.3238 398.64351 
" clip-path="url(#p225512e7b5)" style="fill: none; stroke-dasharray: 3.7,1.6; stroke-dashoffset: 0; stroke: #000000"/>
    <path d="M 281.92564 18.118365 
L 281.92564 398.64351 
" clip-path="url(#p225512e7b5)" style="fill: none; stroke-dasharray: 3.7,1.6; stroke-dashoffset: 0; stroke: #000000"/>
   </g>
   <g id="matplotlib.axis_1">
    <g id="xtick_1">
     <g id="line2d_1">
      <defs>
       <path id="m64e1e53939" d="M 0 0 
L 0 3.5 
" style="stroke: #000000; stroke-width: 0.8"/>
      </defs>
      <g>
       <use xlink:href="#m64e1e53939" x="45.052227" y="398.64351" style="stroke: #000000; stroke-width: 0.8"/>
      </g>
     </g>
     <g id="text_1">
      <!-- −0.20 -->
      <g transform="translate(29.729571 413.241947) scale(0.1 -0.1)">
       <defs>
        <path id="DejaVuSans-2212" d="M 678 2272 
L 4684 2272 
L 4684 1741 
L 678 1741 
L 678 2272 
z
" transform="scale(0.015625)"/>
        <path id="DejaVuSans-30" d="M 2034 4250 
Q 1547 4250 1301 3770 
Q 1056 3291 1056 2328 
Q 1056 1369 1301 889 
Q 1547 409 2034 409 
Q 2525 409 2770 889 
Q 3016 1369 3016 2328 
Q 3016 3291 2770 3770 
Q 2525 4250 2034 4250 
z
M 2034 4750 
Q 2819 4750 3233 4129 
Q 3647 3509 3647 2328 
Q 3647 1150 3233 529 
Q 2819 -91 2034 -91 
Q 1250 -91 836 529 
Q 422 1150 422 2328 
Q 422 3509 836 4129 
Q 1250 4750 2034 4750 
z
" transform="scale(0.015625)"/>
        <path id="DejaVuSans-2e" d="M 684 794 
L 1344 794 
L 1344 0 
L 684 0 
L 684 794 
z
" transform="scale(0.015625)"/>
        <path id="DejaVuSans-32" d="M 1228 531 
L 3431 531 
L 3431 0 
L 469 0 
L 469 531 
Q 828 903 1448 1529 
Q 2069 2156 2228 2338 
Q 2531 2678 2651 2914 
Q 2772 3150 2772 3378 
Q 2772 3750 2511 3984 
Q 2250 4219 1831 4219 
Q 1534 4219 1204 4116 
Q 875 4013 500 3803 
L 500 4441 
Q 881 4594 1212 4672 
Q 1544 4750 1819 4750 
Q 2544 4750 2975 4387 
Q 3406 4025 3406 3419 
Q 3406 3131 3298 2873 
Q 3191 2616 2906 2266 
Q 2828 2175 2409 1742 
Q 1991 1309 1228 531 
z
" transform="scale(0.015625)"/>
       </defs>
       <use xlink:href="#DejaVuSans-2212"/>
       <use xlink:href="#DejaVuSans-30" transform="translate(83.789062 0)"/>
       <use xlink:href="#DejaVuSans-2e" transform="translate(147.412109 0)"/>
       <use xlink:href="#DejaVuSans-32" transform="translate(179.199219 0)"/>
       <use xlink:href="#DejaVuSans-30" transform="translate(242.822266 0)"/>
      </g>
     </g>
    </g>
    <g id="xtick_2">
     <g id="line2d_2">
      <g>
       <use xlink:href="#m64e1e53939" x="131.188014" y="398.64351" style="stroke: #000000; stroke-width: 0.8"/>
      </g>
     </g>
     <g id="text_2">
      <!-- 0.00 -->
      <g transform="translate(120.055201 413.241947) scale(0.1 -0.1)">
       <use xlink:href="#DejaVuSans-30"/>
       <use xlink:href="#DejaVuSans-2e" transform="translate(63.623047 0)"/>
       <use xlink:href="#DejaVuSans-30" transform="translate(95.410156 0)"/>
       <use xlink:href="#DejaVuSans-30" transform="translate(159.033203 0)"/>
      </g>
     </g>
    </g>
    <g id="xtick_3">
     <g id="line2d_3">
      <g>
       <use xlink:href="#m64e1e53939" x="217.3238" y="398.64351" style="stroke: #000000; stroke-width: 0.8"/>
      </g>
     </g>
     <g id="text_3">
      <!-- 0.20 -->
      <g transform="translate(206.190988 413.241947) scale(0.1 -0.1)">
       <use xlink:href="#DejaVuSans-30"/>
       <use xlink:href="#DejaVuSans-2e" transform="translate(63.623047 0)"/>
       <use xlink:href="#DejaVuSans-32" transform="translate(95.410156 0)"/>
       <use xlink:href="#DejaVuSans-30" transform="translate(159.033203 0)"/>
      </g>
     </g>
    </g>
    <g id="xtick_4">
     <g id="line2d_4">
      <g>
       <use xlink:href="#m64e1e53939" x="217.3238" y="398.64351" style="stroke: #000000; stroke-width: 0.8"/>
      </g>
     </g>
     <g id="text_4">
      <!-- 0.20 -->
      <g transform="translate(206.190988 413.241947) scale(0.1 -0.1)">
       <use xlink:href="#DejaVuSans-30"/>
       <use xlink:href="#DejaVuSans-2e" transform="translate(63.623047 0)"/>
       <use xlink:href="#DejaVuSans-32" transform="translate(95.410156 0)"/>
       <use xlink:href="#DejaVuSans-30" transform="translate(159.033203 0)"/>
      </g>
     </g>
    </g>
    <g id="xtick_5">
     <g id="line2d_5">
      <g>
       <use xlink:href="#m64e1e53939" x="281.92564" y="398.64351" style="stroke: #000000; stroke-width: 0.8"/>
      </g>
     </g>
     <g id="text_5">
      <!-- 0.35 -->
      <g transform="translate(270.792828 413.241947) scale(0.1 -0.1)">
       <defs>
        <path id="DejaVuSans-33" d="M 2597 2516 
Q 3050 2419 3304 2112 
Q 3559 1806 3559 1356 
Q 3559 666 3084 287 
Q 2609 -91 1734 -91 
Q 1441 -91 1130 -33 
Q 819 25 488 141 
L 488 750 
Q 750 597 1062 519 
Q 1375 441 1716 441 
Q 2309 441 2620 675 
Q 2931 909 2931 1356 
Q 2931 1769 2642 2001 
Q 2353 2234 1838 2234 
L 1294 2234 
L 1294 2753 
L 1863 2753 
Q 2328 2753 2575 2939 
Q 2822 3125 2822 3475 
Q 2822 3834 2567 4026 
Q 2313 4219 1838 4219 
Q 1578 4219 1281 4162 
Q 984 4106 628 3988 
L 628 4550 
Q 988 4650 1302 4700 
Q 1616 4750 1894 4750 
Q 2613 4750 3031 4423 
Q 3450 4097 3450 3541 
Q 3450 3153 3228 2886 
Q 3006 2619 2597 2516 
z
" transform="scale(0.015625)"/>
        <path id="DejaVuSans-35" d="M 691 4666 
L 3169 4666 
L 3169 4134 
L 1269 4134 
L 1269 2991 
Q 1406 3038 1543 3061 
Q 1681 3084 1819 3084 
Q 2600 3084 3056 2656 
Q 3513 2228 3513 1497 
Q 3513 744 3044 326 
Q 2575 -91 1722 -91 
Q 1428 -91 1123 -41 
Q 819 9 494 109 
L 494 744 
Q 775 591 1075 516 
Q 1375 441 1709 441 
Q 2250 441 2565 725 
Q 2881 1009 2881 1497 
Q 2881 1984 2565 2268 
Q 2250 2553 1709 2553 
Q 1456 2553 1204 2497 
Q 953 2441 691 2322 
L 691 4666 
z
" transform="scale(0.015625)"/>
       </defs>
       <use xlink:href="#DejaVuSans-30"/>
       <use xlink:href="#DejaVuSans-2e" transform="translate(63.623047 0)"/>
       <use xlink:href="#DejaVuSans-33" transform="translate(95.410156 0)"/>
       <use xlink:href="#DejaVuSans-35" transform="translate(159.033203 0)"/>
      </g>
     </g>
    </g>
    <g id="xtick_6">
     <g id="line2d_6">
      <g>
       <use xlink:href="#m64e1e53939" x="303.459587" y="398.64351" style="stroke: #000000; stroke-width: 0.8"/>
      </g>
     </g>
     <g id="text_6">
      <!-- 0.40 -->
      <g transform="translate(292.326775 413.241947) scale(0.1 -0.1)">
       <defs>
        <path id="DejaVuSans-34" d="M 2419 4116 
L 825 1625 
L 2419 1625 
L 2419 4116 
z
M 2253 4666 
L 3047 4666 
L 3047 1625 
L 3713 1625 
L 3713 1100 
L 3047 1100 
L 3047 0 
L 2419 0 
L 2419 1100 
L 313 1100 
L 313 1709 
L 2253 4666 
z
" transform="scale(0.015625)"/>
       </defs>
       <use xlink:href="#DejaVuSans-30"/>
       <use xlink:href="#DejaVuSans-2e" transform="translate(63.623047 0)"/>
       <use xlink:href="#DejaVuSans-34" transform="translate(95.410156 0)"/>
       <use xlink:href="#DejaVuSans-30" transform="translate(159.033203 0)"/>
      </g>
     </g>
    </g>
    <g id="xtick_7">
     <g id="line2d_7">
      <g>
       <use xlink:href="#m64e1e53939" x="389.595374" y="398.64351" style="stroke: #000000; stroke-width: 0.8"/>
      </g>
     </g>
     <g id="text_7">
      <!-- 0.60 -->
      <g transform="translate(378.462561 413.241947) scale(0.1 -0.1)">
       <defs>
        <path id="DejaVuSans-36" d="M 2113 2584 
Q 1688 2584 1439 2293 
Q 1191 2003 1191 1497 
Q 1191 994 1439 701 
Q 1688 409 2113 409 
Q 2538 409 2786 701 
Q 3034 994 3034 1497 
Q 3034 2003 2786 2293 
Q 2538 2584 2113 2584 
z
M 3366 4563 
L 3366 3988 
Q 3128 4100 2886 4159 
Q 2644 4219 2406 4219 
Q 1781 4219 1451 3797 
Q 1122 3375 1075 2522 
Q 1259 2794 1537 2939 
Q 1816 3084 2150 3084 
Q 2853 3084 3261 2657 
Q 3669 2231 3669 1497 
Q 3669 778 3244 343 
Q 2819 -91 2113 -91 
Q 1303 -91 875 529 
Q 447 1150 447 2328 
Q 447 3434 972 4092 
Q 1497 4750 2381 4750 
Q 2619 4750 2861 4703 
Q 3103 4656 3366 4563 
z
" transform="scale(0.015625)"/>
       </defs>
       <use xlink:href="#DejaVuSans-30"/>
       <use xlink:href="#DejaVuSans-2e" transform="translate(63.623047 0)"/>
       <use xlink:href="#DejaVuSans-36" transform="translate(95.410156 0)"/>
       <use xlink:href="#DejaVuSans-30" transform="translate(159.033203 0)"/>
      </g>
     </g>
    </g>
    <g id="xtick_8">
     <g id="line2d_8">
      <g>
       <use xlink:href="#m64e1e53939" x="475.731161" y="398.64351" style="stroke: #000000; stroke-width: 0.8"/>
      </g>
     </g>
     <g id="text_8">
      <!-- 0.80 -->
      <g transform="translate(464.598348 413.241947) scale(0.1 -0.1)">
       <defs>
        <path id="DejaVuSans-38" d="M 2034 2216 
Q 1584 2216 1326 1975 
Q 1069 1734 1069 1313 
Q 1069 891 1326 650 
Q 1584 409 2034 409 
Q 2484 409 2743 651 
Q 3003 894 3003 1313 
Q 3003 1734 2745 1975 
Q 2488 2216 2034 2216 
z
M 1403 2484 
Q 997 2584 770 2862 
Q 544 3141 544 3541 
Q 544 4100 942 4425 
Q 1341 4750 2034 4750 
Q 2731 4750 3128 4425 
Q 3525 4100 3525 3541 
Q 3525 3141 3298 2862 
Q 3072 2584 2669 2484 
Q 3125 2378 3379 2068 
Q 3634 1759 3634 1313 
Q 3634 634 3220 271 
Q 2806 -91 2034 -91 
Q 1263 -91 848 271 
Q 434 634 434 1313 
Q 434 1759 690 2068 
Q 947 2378 1403 2484 
z
M 1172 3481 
Q 1172 3119 1398 2916 
Q 1625 2713 2034 2713 
Q 2441 2713 2670 2916 
Q 2900 3119 2900 3481 
Q 2900 3844 2670 4047 
Q 2441 4250 2034 4250 
Q 1625 4250 1398 4047 
Q 1172 3844 1172 3481 
z
" transform="scale(0.015625)"/>
       </defs>
       <use xlink:href="#DejaVuSans-30"/>
       <use xlink:href="#DejaVuSans-2e" transform="translate(63.623047 0)"/>
       <use xlink:href="#DejaVuSans-38" transform="translate(95.410156 0)"/>
       <use xlink:href="#DejaVuSans-30" transform="translate(159.033203 0)"/>
      </g>
     </g>
    </g>
    <g id="xtick_9">
     <g id="line2d_9">
      <g>
       <use xlink:href="#m64e1e53939" x="561.866947" y="398.64351" style="stroke: #000000; stroke-width: 0.8"/>
      </g>
     </g>
     <g id="text_9">
      <!-- 1.00 -->
      <g transform="translate(550.734135 413.241947) scale(0.1 -0.1)">
       <defs>
        <path id="DejaVuSans-31" d="M 794 531 
L 1825 531 
L 1825 4091 
L 703 3866 
L 703 4441 
L 1819 4666 
L 2450 4666 
L 2450 531 
L 3481 531 
L 3481 0 
L 794 0 
L 794 531 
z
" transform="scale(0.015625)"/>
       </defs>
       <use xlink:href="#DejaVuSans-31"/>
       <use xlink:href="#DejaVuSans-2e" transform="translate(63.623047 0)"/>
       <use xlink:href="#DejaVuSans-30" transform="translate(95.410156 0)"/>
       <use xlink:href="#DejaVuSans-30" transform="translate(159.033203 0)"/>
      </g>
     </g>
    </g>
    <g id="text_10">
     <!-- Time (s) -->
     <g transform="translate(282.996094 426.920073) scale(0.1 -0.1)">
      <defs>
       <path id="DejaVuSans-54" d="M -19 4666 
L 3928 4666 
L 3928 4134 
L 2272 4134 
L 2272 0 
L 1638 0 
L 1638 4134 
L -19 4134 
L -19 4666 
z
" transform="scale(0.015625)"/>
       <path id="DejaVuSans-69" d="M 603 3500 
L 1178 3500 
L 1178 0 
L 603 0 
L 603 3500 
z
M 603 4863 
L 1178 4863 
L 1178 4134 
L 603 4134 
L 603 4863 
z
" transform="scale(0.015625)"/>
       <path id="DejaVuSans-6d" d="M 3328 2828 
Q 3544 3216 3844 3400 
Q 4144 3584 4550 3584 
Q 5097 3584 5394 3201 
Q 5691 2819 5691 2113 
L 5691 0 
L 5113 0 
L 5113 2094 
Q 5113 2597 4934 2840 
Q 4756 3084 4391 3084 
Q 3944 3084 3684 2787 
Q 3425 2491 3425 1978 
L 3425 0 
L 2847 0 
L 2847 2094 
Q 2847 2600 2669 2842 
Q 2491 3084 2119 3084 
Q 1678 3084 1418 2786 
Q 1159 2488 1159 1978 
L 1159 0 
L 581 0 
L 581 3500 
L 1159 3500 
L 1159 2956 
Q 1356 3278 1631 3431 
Q 1906 3584 2284 3584 
Q 2666 3584 2933 3390 
Q 3200 3197 3328 2828 
z
" transform="scale(0.015625)"/>
       <path id="DejaVuSans-65" d="M 3597 1894 
L 3597 1613 
L 953 1613 
Q 991 1019 1311 708 
Q 1631 397 2203 397 
Q 2534 397 2845 478 
Q 3156 559 3463 722 
L 3463 178 
Q 3153 47 2828 -22 
Q 2503 -91 2169 -91 
Q 1331 -91 842 396 
Q 353 884 353 1716 
Q 353 2575 817 3079 
Q 1281 3584 2069 3584 
Q 2775 3584 3186 3129 
Q 3597 2675 3597 1894 
z
M 3022 2063 
Q 3016 2534 2758 2815 
Q 2500 3097 2075 3097 
Q 1594 3097 1305 2825 
Q 1016 2553 972 2059 
L 3022 2063 
z
" transform="scale(0.015625)"/>
       <path id="DejaVuSans-20" transform="scale(0.015625)"/>
       <path id="DejaVuSans-28" d="M 1984 4856 
Q 1566 4138 1362 3434 
Q 1159 2731 1159 2009 
Q 1159 1288 1364 580 
Q 1569 -128 1984 -844 
L 1484 -844 
Q 1016 -109 783 600 
Q 550 1309 550 2009 
Q 550 2706 781 3412 
Q 1013 4119 1484 4856 
L 1984 4856 
z
" transform="scale(0.015625)"/>
       <path id="DejaVuSans-73" d="M 2834 3397 
L 2834 2853 
Q 2591 2978 2328 3040 
Q 2066 3103 1784 3103 
Q 1356 3103 1142 2972 
Q 928 2841 928 2578 
Q 928 2378 1081 2264 
Q 1234 2150 1697 2047 
L 1894 2003 
Q 2506 1872 2764 1633 
Q 3022 1394 3022 966 
Q 3022 478 2636 193 
Q 2250 -91 1575 -91 
Q 1294 -91 989 -36 
Q 684 19 347 128 
L 347 722 
Q 666 556 975 473 
Q 1284 391 1588 391 
Q 1994 391 2212 530 
Q 2431 669 2431 922 
Q 2431 1156 2273 1281 
Q 2116 1406 1581 1522 
L 1381 1569 
Q 847 1681 609 1914 
Q 372 2147 372 2553 
Q 372 3047 722 3315 
Q 1072 3584 1716 3584 
Q 2034 3584 2315 3537 
Q 2597 3491 2834 3397 
z
" transform="scale(0.015625)"/>
       <path id="DejaVuSans-29" d="M 513 4856 
L 1013 4856 
Q 1481 4119 1714 3412 
Q 1947 2706 1947 2009 
Q 1947 1309 1714 600 
Q 1481 -109 1013 -844 
L 513 -844 
Q 928 -128 1133 580 
Q 1338 1288 1338 2009 
Q 1338 2731 1133 3434 
Q 928 4138 513 4856 
z
" transform="scale(0.015625)"/>
      </defs>
      <use xlink:href="#DejaVuSans-54"/>
      <use xlink:href="#DejaVuSans-69" transform="translate(57.958984 0)"/>
      <use xlink:href="#DejaVuSans-6d" transform="translate(85.742188 0)"/>
      <use xlink:href="#DejaVuSans-65" transform="translate(183.154297 0)"/>
      <use xlink:href="#DejaVuSans-20" transform="translate(244.677734 0)"/>
      <use xlink:href="#DejaVuSans-28" transform="translate(276.464844 0)"/>
      <use xlink:href="#DejaVuSans-73" transform="translate(315.478516 0)"/>
      <use xlink:href="#DejaVuSans-29" transform="translate(367.578125 0)"/>
     </g>
    </g>
   </g>
   <g id="matplotlib.axis_2">
    <g id="ytick_1">
     <g id="line2d_10">
      <defs>
       <path id="m8b28ee0e2d" d="M 0 0 
L -3.5 0 
" style="stroke: #000000; stroke-width: 0.8"/>
      </defs>
      <g>
       <use xlink:href="#m8b28ee0e2d" x="44.783053" y="361.193063" style="stroke: #000000; stroke-width: 0.8"/>
      </g>
     </g>
     <g id="text_11">
      <!-- −10 -->
      <g transform="translate(16.678365 364.992282) scale(0.1 -0.1)">
       <use xlink:href="#DejaVuSans-2212"/>
       <use xlink:href="#DejaVuSans-31" transform="translate(83.789062 0)"/>
       <use xlink:href="#DejaVuSans-30" transform="translate(147.412109 0)"/>
      </g>
     </g>
    </g>
    <g id="ytick_2">
     <g id="line2d_11">
      <g>
       <use xlink:href="#m8b28ee0e2d" x="44.783053" y="284.787" style="stroke: #000000; stroke-width: 0.8"/>
      </g>
     </g>
     <g id="text_12">
      <!-- −5 -->
      <g transform="translate(23.040865 288.586219) scale(0.1 -0.1)">
       <use xlink:href="#DejaVuSans-2212"/>
       <use xlink:href="#DejaVuSans-35" transform="translate(83.789062 0)"/>
      </g>
     </g>
    </g>
    <g id="ytick_3">
     <g id="line2d_12">
      <g>
       <use xlink:href="#m8b28ee0e2d" x="44.783053" y="208.380937" style="stroke: #000000; stroke-width: 0.8"/>
      </g>
     </g>
     <g id="text_13">
      <!-- 0 -->
      <g transform="translate(31.420553 212.180156) scale(0.1 -0.1)">
       <use xlink:href="#DejaVuSans-30"/>
      </g>
     </g>
    </g>
    <g id="ytick_4">
     <g id="line2d_13">
      <g>
       <use xlink:href="#m8b28ee0e2d" x="44.783053" y="131.974875" style="stroke: #000000; stroke-width: 0.8"/>
      </g>
     </g>
     <g id="text_14">
      <!-- 5 -->
      <g transform="translate(31.420553 135.774094) scale(0.1 -0.1)">
       <use xlink:href="#DejaVuSans-35"/>
      </g>
     </g>
    </g>
    <g id="ytick_5">
     <g id="line2d_14">
      <g>
       <use xlink:href="#m8b28ee0e2d" x="44.783053" y="55.568812" style="stroke: #000000; stroke-width: 0.8"/>
      </g>
     </g>
     <g id="text_15">
      <!-- 10 -->
      <g transform="translate(25.058053 59.368031) scale(0.1 -0.1)">
       <use xlink:href="#DejaVuSans-31"/>
       <use xlink:href="#DejaVuSans-30" transform="translate(63.623047 0)"/>
      </g>
     </g>
    </g>
    <g id="text_16">
     <!-- µV -->
     <g transform="translate(10.598678 214.9825) rotate(-90) scale(0.1 -0.1)">
      <defs>
       <path id="DejaVuSans-b5" d="M 544 -1331 
L 544 3500 
L 1119 3500 
L 1119 1325 
Q 1119 872 1334 640 
Q 1550 409 1972 409 
Q 2434 409 2667 671 
Q 2900 934 2900 1459 
L 2900 3500 
L 3475 3500 
L 3475 806 
Q 3475 619 3529 530 
Q 3584 441 3700 441 
Q 3728 441 3778 458 
Q 3828 475 3916 513 
L 3916 50 
Q 3788 -22 3673 -56 
Q 3559 -91 3450 -91 
Q 3234 -91 3106 31 
Q 2978 153 2931 403 
Q 2775 156 2548 32 
Q 2322 -91 2016 -91 
Q 1697 -91 1473 31 
Q 1250 153 1119 397 
L 1119 -1331 
L 544 -1331 
z
" transform="scale(0.015625)"/>
       <path id="DejaVuSans-56" d="M 1831 0 
L 50 4666 
L 709 4666 
L 2188 738 
L 3669 4666 
L 4325 4666 
L 2547 0 
L 1831 0 
z
" transform="scale(0.015625)"/>
      </defs>
      <use xlink:href="#DejaVuSans-b5"/>
      <use xlink:href="#DejaVuSans-56" transform="translate(63.623047 0)"/>
     </g>
    </g>
   </g>
   <g id="patch_4">
    <path d="M 45.052227 398.64351 
L 561.866947 398.64351 
" style="fill: none; stroke: #000000; stroke-width: 0.8; stroke-linejoin: miter; stroke-linecap: square"/>
   </g>
   <g id="patch_5">
    <path d="M 44.783052 208.380937 
L 561.866947 208.380937 
" style="fill: none; stroke: #000000; stroke-width: 0.8; stroke-linejoin: miter; stroke-linecap: square"/>
   </g>
   <g id="text_17">
    <!-- Fz, FCz, Cz, CPz, Pz (median) -->
    <g transform="translate(216.537812 12.118365) scale(0.12 -0.12)">
     <defs>
      <path id="DejaVuSans-46" d="M 628 4666 
L 3309 4666 
L 3309 4134 
L 1259 4134 
L 1259 2759 
L 3109 2759 
L 3109 2228 
L 1259 2228 
L 1259 0 
L 628 0 
L 628 4666 
z
" transform="scale(0.015625)"/>
      <path id="DejaVuSans-7a" d="M 353 3500 
L 3084 3500 
L 3084 2975 
L 922 459 
L 3084 459 
L 3084 0 
L 275 0 
L 275 525 
L 2438 3041 
L 353 3041 
L 353 3500 
z
" transform="scale(0.015625)"/>
      <path id="DejaVuSans-2c" d="M 750 794 
L 1409 794 
L 1409 256 
L 897 -744 
L 494 -744 
L 750 256 
L 750 794 
z
" transform="scale(0.015625)"/>
      <path id="DejaVuSans-43" d="M 4122 4306 
L 4122 3641 
Q 3803 3938 3442 4084 
Q 3081 4231 2675 4231 
Q 1875 4231 1450 3742 
Q 1025 3253 1025 2328 
Q 1025 1406 1450 917 
Q 1875 428 2675 428 
Q 3081 428 3442 575 
Q 3803 722 4122 1019 
L 4122 359 
Q 3791 134 3420 21 
Q 3050 -91 2638 -91 
Q 1578 -91 968 557 
Q 359 1206 359 2328 
Q 359 3453 968 4101 
Q 1578 4750 2638 4750 
Q 3056 4750 3426 4639 
Q 3797 4528 4122 4306 
z
" transform="scale(0.015625)"/>
      <path id="DejaVuSans-50" d="M 1259 4147 
L 1259 2394 
L 2053 2394 
Q 2494 2394 2734 2622 
Q 2975 2850 2975 3272 
Q 2975 3691 2734 3919 
Q 2494 4147 2053 4147 
L 1259 4147 
z
M 628 4666 
L 2053 4666 
Q 2838 4666 3239 4311 
Q 3641 3956 3641 3272 
Q 3641 2581 3239 2228 
Q 2838 1875 2053 1875 
L 1259 1875 
L 1259 0 
L 628 0 
L 628 4666 
z
" transform="scale(0.015625)"/>
      <path id="DejaVuSans-64" d="M 2906 2969 
L 2906 4863 
L 3481 4863 
L 3481 0 
L 2906 0 
L 2906 525 
Q 2725 213 2448 61 
Q 2172 -91 1784 -91 
Q 1150 -91 751 415 
Q 353 922 353 1747 
Q 353 2572 751 3078 
Q 1150 3584 1784 3584 
Q 2172 3584 2448 3432 
Q 2725 3281 2906 2969 
z
M 947 1747 
Q 947 1113 1208 752 
Q 1469 391 1925 391 
Q 2381 391 2643 752 
Q 2906 1113 2906 1747 
Q 2906 2381 2643 2742 
Q 2381 3103 1925 3103 
Q 1469 3103 1208 2742 
Q 947 2381 947 1747 
z
" transform="scale(0.015625)"/>
      <path id="DejaVuSans-61" d="M 2194 1759 
Q 1497 1759 1228 1600 
Q 959 1441 959 1056 
Q 959 750 1161 570 
Q 1363 391 1709 391 
Q 2188 391 2477 730 
Q 2766 1069 2766 1631 
L 2766 1759 
L 2194 1759 
z
M 3341 1997 
L 3341 0 
L 2766 0 
L 2766 531 
Q 2569 213 2275 61 
Q 1981 -91 1556 -91 
Q 1019 -91 701 211 
Q 384 513 384 1019 
Q 384 1609 779 1909 
Q 1175 2209 1959 2209 
L 2766 2209 
L 2766 2266 
Q 2766 2663 2505 2880 
Q 2244 3097 1772 3097 
Q 1472 3097 1187 3025 
Q 903 2953 641 2809 
L 641 3341 
Q 956 3463 1253 3523 
Q 1550 3584 1831 3584 
Q 2591 3584 2966 3190 
Q 3341 2797 3341 1997 
z
" transform="scale(0.015625)"/>
      <path id="DejaVuSans-6e" d="M 3513 2113 
L 3513 0 
L 2938 0 
L 2938 2094 
Q 2938 2591 2744 2837 
Q 2550 3084 2163 3084 
Q 1697 3084 1428 2787 
Q 1159 2491 1159 1978 
L 1159 0 
L 581 0 
L 581 3500 
L 1159 3500 
L 1159 2956 
Q 1366 3272 1645 3428 
Q 1925 3584 2291 3584 
Q 2894 3584 3203 3211 
Q 3513 2838 3513 2113 
z
" transform="scale(0.015625)"/>
     </defs>
     <use xlink:href="#DejaVuSans-46"/>
     <use xlink:href="#DejaVuSans-7a" transform="translate(57.519531 0)"/>
     <use xlink:href="#DejaVuSans-2c" transform="translate(110.009766 0)"/>
     <use xlink:href="#DejaVuSans-20" transform="translate(141.796875 0)"/>
     <use xlink:href="#DejaVuSans-46" transform="translate(173.583984 0)"/>
     <use xlink:href="#DejaVuSans-43" transform="translate(231.103516 0)"/>
     <use xlink:href="#DejaVuSans-7a" transform="translate(300.927734 0)"/>
     <use xlink:href="#DejaVuSans-2c" transform="translate(353.417969 0)"/>
     <use xlink:href="#DejaVuSans-20" transform="translate(385.205078 0)"/>
     <use xlink:href="#DejaVuSans-43" transform="translate(416.992188 0)"/>
     <use xlink:href="#DejaVuSans-7a" transform="translate(486.816406 0)"/>
     <use xlink:href="#DejaVuSans-2c" transform="translate(539.306641 0)"/>
     <use xlink:href="#DejaVuSans-20" transform="translate(571.09375 0)"/>
     <use xlink:href="#DejaVuSans-43" transform="translate(602.880859 0)"/>
     <use xlink:href="#DejaVuSans-50" transform="translate(672.705078 0)"/>
     <use xlink:href="#DejaVuSans-7a" transform="translate(733.007812 0)"/>
     <use xlink:href="#DejaVuSans-2c" transform="translate(785.498047 0)"/>
     <use xlink:href="#DejaVuSans-20" transform="translate(817.285156 0)"/>
     <use xlink:href="#DejaVuSans-50" transform="translate(849.072266 0)"/>
     <use xlink:href="#DejaVuSans-7a" transform="translate(909.375 0)"/>
     <use xlink:href="#DejaVuSans-20" transform="translate(961.865234 0)"/>
     <use xlink:href="#DejaVuSans-28" transform="translate(993.652344 0)"/>
     <use xlink:href="#DejaVuSans-6d" transform="translate(1032.666016 0)"/>
     <use xlink:href="#DejaVuSans-65" transform="translate(1130.078125 0)"/>
     <use xlink:href="#DejaVuSans-64" transform="translate(1191.601562 0)"/>
     <use xlink:href="#DejaVuSans-69" transform="translate(1255.078125 0)"/>
     <use xlink:href="#DejaVuSans-61" transform="translate(1282.861328 0)"/>
     <use xlink:href="#DejaVuSans-6e" transform="translate(1344.140625 0)"/>
     <use xlink:href="#DejaVuSans-29" transform="translate(1407.519531 0)"/>
    </g>
   </g>
   <g id="legend_1">
    <g id="patch_6">
     <path d="M 51.783053 55.75274 
L 132.92524 55.75274 
Q 134.92524 55.75274 134.92524 53.75274 
L 134.92524 25.118365 
Q 134.92524 23.118365 132.92524 23.118365 
L 51.783053 23.118365 
Q 49.783053 23.118365 49.783053 25.118365 
L 49.783053 53.75274 
Q 49.783053 55.75274 51.783053 55.75274 
z
" style="fill: #ffffff; opacity: 0.8; stroke: #cccccc; stroke-linejoin: miter"/>
    </g>
    <g id="line2d_15">
     <path d="M 53.783053 31.216803 
L 63.783053 31.216803 
L 73.783052 31.216803 
" style="fill: none; stroke: #1f77b4; stroke-width: 1.5; stroke-linecap: square"/>
    </g>
    <g id="text_18">
     <!-- eerie -->
     <g transform="translate(81.783052 34.716803) scale(0.1 -0.1)">
      <defs>
       <path id="DejaVuSans-72" d="M 2631 2963 
Q 2534 3019 2420 3045 
Q 2306 3072 2169 3072 
Q 1681 3072 1420 2755 
Q 1159 2438 1159 1844 
L 1159 0 
L 581 0 
L 581 3500 
L 1159 3500 
L 1159 2956 
Q 1341 3275 1631 3429 
Q 1922 3584 2338 3584 
Q 2397 3584 2469 3576 
Q 2541 3569 2628 3553 
L 2631 2963 
z
" transform="scale(0.015625)"/>
      </defs>
      <use xlink:href="#DejaVuSans-65"/>
      <use xlink:href="#DejaVuSans-65" transform="translate(61.523438 0)"/>
      <use xlink:href="#DejaVuSans-72" transform="translate(123.046875 0)"/>
      <use xlink:href="#DejaVuSans-69" transform="translate(164.160156 0)"/>
      <use xlink:href="#DejaVuSans-65" transform="translate(191.943359 0)"/>
     </g>
    </g>
    <g id="line2d_16">
     <path d="M 53.783053 45.894928 
L 63.783053 45.894928 
L 73.783052 45.894928 
" style="fill: none; stroke: #ff7f0e; stroke-width: 1.5; stroke-linecap: square"/>
    </g>
    <g id="text_19">
     <!-- non_eerie -->
     <g transform="translate(81.783052 49.394928) scale(0.1 -0.1)">
      <defs>
       <path id="DejaVuSans-6f" d="M 1959 3097 
Q 1497 3097 1228 2736 
Q 959 2375 959 1747 
Q 959 1119 1226 758 
Q 1494 397 1959 397 
Q 2419 397 2687 759 
Q 2956 1122 2956 1747 
Q 2956 2369 2687 2733 
Q 2419 3097 1959 3097 
z
M 1959 3584 
Q 2709 3584 3137 3096 
Q 3566 2609 3566 1747 
Q 3566 888 3137 398 
Q 2709 -91 1959 -91 
Q 1206 -91 779 398 
Q 353 888 353 1747 
Q 353 2609 779 3096 
Q 1206 3584 1959 3584 
z
" transform="scale(0.015625)"/>
       <path id="DejaVuSans-5f" d="M 3263 -1063 
L 3263 -1509 
L -63 -1509 
L -63 -1063 
L 3263 -1063 
z
" transform="scale(0.015625)"/>
      </defs>
      <use xlink:href="#DejaVuSans-6e"/>
      <use xlink:href="#DejaVuSans-6f" transform="translate(63.378906 0)"/>
      <use xlink:href="#DejaVuSans-6e" transform="translate(124.560547 0)"/>
      <use xlink:href="#DejaVuSans-5f" transform="translate(187.939453 0)"/>
      <use xlink:href="#DejaVuSans-65" transform="translate(237.939453 0)"/>
      <use xlink:href="#DejaVuSans-65" transform="translate(299.462891 0)"/>
      <use xlink:href="#DejaVuSans-72" transform="translate(360.986328 0)"/>
      <use xlink:href="#DejaVuSans-69" transform="translate(402.099609 0)"/>
      <use xlink:href="#DejaVuSans-65" transform="translate(429.882812 0)"/>
     </g>
    </g>
   </g>
   <g id="FillBetweenPolyCollection_1">
    <defs>
     <path id="m27030ee30c" d="M 44.783052 -275.269618 
L 44.783052 -251.902564 
L 46.465392 -255.697904 
L 48.147732 -256.897143 
L 49.830071 -255.62358 
L 51.512411 -252.099036 
L 53.19475 -250.522655 
L 54.87709 -250.65928 
L 56.55943 -250.479805 
L 58.241769 -250.701639 
L 59.924109 -248.18492 
L 61.606448 -242.098805 
L 63.288788 -233.304086 
L 64.971128 -224.596439 
L 66.653467 -216.99426 
L 68.335807 -212.075474 
L 70.018146 -210.055187 
L 71.700486 -211.249882 
L 73.382825 -213.723025 
L 75.065165 -217.142059 
L 76.747505 -218.632319 
L 78.429844 -215.875354 
L 80.112184 -210.472769 
L 81.794523 -203.948057 
L 83.476863 -200.006647 
L 85.159203 -201.323349 
L 86.841542 -207.754143 
L 88.523882 -215.416294 
L 90.206221 -221.176992 
L 91.888561 -224.180985 
L 93.5709 -223.667973 
L 95.25324 -220.097467 
L 96.93558 -215.638483 
L 98.617919 -209.925137 
L 100.300259 -205.202156 
L 101.982598 -201.521893 
L 103.664938 -198.575428 
L 105.347278 -197.731219 
L 107.029617 -198.610445 
L 108.711957 -200.519462 
L 110.394296 -203.282995 
L 112.076636 -204.344123 
L 113.758976 -204.635661 
L 115.441315 -204.23774 
L 117.123655 -202.024098 
L 118.805994 -199.049511 
L 120.488334 -195.766319 
L 122.170673 -192.656636 
L 123.853013 -189.245483 
L 125.535353 -185.119011 
L 127.217692 -181.714103 
L 128.900032 -181.914995 
L 130.582371 -186.609869 
L 132.264711 -196.573507 
L 133.947051 -207.265326 
L 135.62939 -214.630127 
L 137.31173 -218.430499 
L 138.994069 -218.829596 
L 140.676409 -218.015568 
L 142.358748 -216.32058 
L 144.041088 -214.415681 
L 145.723428 -213.452195 
L 147.405767 -213.689856 
L 149.088107 -214.62969 
L 150.770446 -215.851917 
L 152.452786 -217.979469 
L 154.135126 -218.88335 
L 155.817465 -217.931146 
L 157.499805 -215.373654 
L 159.182144 -210.074343 
L 160.864484 -204.003005 
L 162.546823 -200.483228 
L 164.229163 -201.107355 
L 165.911503 -205.129127 
L 167.593842 -209.239679 
L 169.276182 -211.324348 
L 170.958521 -209.683307 
L 172.640861 -203.354591 
L 174.323201 -195.107392 
L 176.00554 -188.795359 
L 177.68788 -184.271558 
L 179.370219 -181.568379 
L 181.052559 -182.147133 
L 182.734899 -185.877723 
L 184.417238 -194.223699 
L 186.099578 -206.855885 
L 187.781917 -223.992358 
L 189.464257 -245.905875 
L 191.146596 -268.712346 
L 192.828936 -288.983416 
L 194.511276 -305.758835 
L 196.193615 -320.296175 
L 197.875955 -332.514176 
L 199.558294 -344.861179 
L 201.240634 -356.636815 
L 202.922974 -365.192929 
L 204.605313 -370.438334 
L 206.287653 -372.730325 
L 207.969992 -371.999617 
L 209.652332 -370.462456 
L 211.334671 -369.382041 
L 213.017011 -369.430878 
L 214.699351 -366.467334 
L 216.38169 -358.691409 
L 218.06403 -346.852137 
L 219.746369 -335.061586 
L 221.428709 -327.450512 
L 223.111049 -326.35747 
L 224.793388 -331.218636 
L 226.475728 -336.836457 
L 228.158067 -340.180364 
L 229.840407 -338.163602 
L 231.522746 -330.0713 
L 233.205086 -320.702541 
L 234.887426 -312.093262 
L 236.569765 -305.219364 
L 238.252105 -300.221173 
L 239.934444 -294.769831 
L 241.616784 -290.141116 
L 243.299124 -286.958813 
L 244.981463 -285.099601 
L 246.663803 -285.418902 
L 248.346142 -283.987201 
L 250.028482 -278.717696 
L 251.710822 -271.567817 
L 253.393161 -262.80371 
L 255.075501 -254.987692 
L 256.75784 -250.629682 
L 258.44018 -250.001573 
L 260.122519 -250.405719 
L 261.804859 -253.909326 
L 263.487199 -256.030254 
L 265.169538 -256.015592 
L 266.851878 -254.152544 
L 268.534217 -250.643239 
L 270.216557 -245.773769 
L 271.898897 -239.298232 
L 273.581236 -232.12617 
L 275.263576 -224.97483 
L 276.945915 -219.932821 
L 278.628255 -218.070441 
L 280.310594 -218.767923 
L 281.992934 -219.556504 
L 283.675274 -218.594105 
L 285.357613 -215.191907 
L 287.039953 -211.157038 
L 288.722292 -209.340547 
L 290.404632 -210.598138 
L 292.086972 -214.448148 
L 293.769311 -217.976792 
L 295.451651 -220.971097 
L 297.13399 -222.318413 
L 298.81633 -221.718689 
L 300.498669 -221.01619 
L 302.181009 -220.878504 
L 303.863349 -223.565779 
L 305.545688 -228.178446 
L 307.228028 -232.187875 
L 308.910367 -234.089348 
L 310.592707 -235.679493 
L 312.275047 -237.70736 
L 313.957386 -242.332866 
L 315.639726 -249.978009 
L 317.322065 -260.701206 
L 319.004405 -270.654306 
L 320.686745 -278.443825 
L 322.369084 -284.637007 
L 324.051424 -290.551476 
L 325.733763 -298.549566 
L 327.416103 -310.026708 
L 329.098442 -323.90234 
L 330.780782 -336.44298 
L 332.463122 -345.741282 
L 334.145461 -351.296412 
L 335.827801 -353.099507 
L 337.51014 -352.369699 
L 339.19248 -352.260007 
L 340.87482 -354.883532 
L 342.557159 -360.85194 
L 344.239499 -368.788625 
L 345.921838 -376.443979 
L 347.604178 -381.377764 
L 349.286517 -382.72091 
L 350.968857 -379.65132 
L 352.651197 -374.632441 
L 354.333536 -369.985661 
L 356.015876 -367.322339 
L 357.698215 -369.144417 
L 359.380555 -373.416105 
L 361.062895 -377.665519 
L 362.745234 -377.499781 
L 364.427574 -372.062276 
L 366.109913 -362.883016 
L 367.792253 -353.374711 
L 369.474593 -347.056206 
L 371.156932 -344.576383 
L 372.839272 -345.637933 
L 374.521611 -346.179056 
L 376.203951 -344.626116 
L 377.88629 -340.652745 
L 379.56863 -338.452696 
L 381.25097 -339.148059 
L 382.933309 -342.51694 
L 384.615649 -346.366493 
L 386.297988 -346.6645 
L 387.980328 -342.105982 
L 389.662668 -334.50813 
L 391.345007 -327.760419 
L 393.027347 -324.829021 
L 394.709686 -325.455828 
L 396.392026 -327.386504 
L 398.074365 -327.984474 
L 399.756705 -323.809824 
L 401.439045 -316.173232 
L 403.121384 -308.440924 
L 404.803724 -302.232545 
L 406.486063 -299.547073 
L 408.168403 -297.936888 
L 409.850743 -295.510203 
L 411.533082 -290.213128 
L 413.215422 -283.120959 
L 414.897761 -277.907271 
L 416.580101 -275.570218 
L 418.26244 -273.993602 
L 419.94478 -273.175123 
L 421.62712 -272.820964 
L 423.309459 -270.643722 
L 424.991799 -268.750408 
L 426.674138 -266.208041 
L 428.356478 -263.647099 
L 430.038818 -261.479929 
L 431.721157 -258.200076 
L 433.403497 -254.423653 
L 435.085836 -250.555341 
L 436.768176 -248.922197 
L 438.450516 -249.391131 
L 440.132855 -250.822103 
L 441.815195 -248.287397 
L 443.497534 -242.753919 
L 445.179874 -235.429373 
L 446.862213 -229.1689 
L 448.544553 -228.081587 
L 450.226893 -231.636994 
L 451.909232 -237.818384 
L 453.591572 -241.17431 
L 455.273911 -239.248788 
L 456.956251 -232.568676 
L 458.638591 -222.602551 
L 460.32093 -214.203606 
L 462.00327 -210.294103 
L 463.685609 -211.220209 
L 465.367949 -211.807999 
L 467.050288 -210.417684 
L 468.732628 -206.347006 
L 470.414968 -200.509184 
L 472.097307 -196.027434 
L 473.779647 -193.835016 
L 475.461986 -195.118842 
L 477.144326 -197.936292 
L 478.826666 -200.763621 
L 480.509005 -201.510184 
L 482.191345 -198.897209 
L 483.873684 -194.848675 
L 485.556024 -189.454408 
L 487.238363 -186.274008 
L 488.920703 -185.416726 
L 490.603043 -185.690537 
L 492.285382 -184.658133 
L 493.967722 -182.616705 
L 495.650061 -179.721983 
L 497.332401 -176.02803 
L 499.014741 -170.896128 
L 500.69708 -164.815236 
L 502.37942 -158.993731 
L 504.061759 -154.637745 
L 505.744099 -152.948844 
L 507.426439 -154.111016 
L 509.108778 -158.401872 
L 510.791118 -162.709852 
L 512.473457 -164.577673 
L 514.155797 -164.053977 
L 515.838136 -160.455675 
L 517.520476 -157.362918 
L 519.202816 -155.372481 
L 520.885155 -157.559506 
L 522.567495 -161.65036 
L 524.249834 -164.208499 
L 525.932174 -162.762665 
L 527.614514 -155.904457 
L 529.296853 -147.156246 
L 530.979193 -138.998391 
L 532.661532 -133.601714 
L 534.343872 -132.036544 
L 536.026211 -131.231316 
L 537.708551 -131.612775 
L 539.390891 -130.971466 
L 541.07323 -131.441294 
L 542.75557 -135.124494 
L 544.437909 -142.024511 
L 546.120249 -149.95687 
L 547.802589 -155.26283 
L 549.484928 -156.614107 
L 551.167268 -154.256017 
L 552.849607 -150.122013 
L 554.531947 -147.869901 
L 556.214286 -146.837471 
L 557.896626 -146.54518 
L 559.578966 -145.105606 
L 561.261305 -142.769018 
L 561.261305 -173.22553 
L 561.261305 -173.22553 
L 559.578966 -175.602177 
L 557.896626 -176.598079 
L 556.214286 -177.457132 
L 554.531947 -178.604819 
L 552.849607 -181.446415 
L 551.167268 -184.611005 
L 549.484928 -186.094691 
L 547.802589 -184.667196 
L 546.120249 -179.471632 
L 544.437909 -172.374084 
L 542.75557 -165.932579 
L 541.07323 -161.912288 
L 539.390891 -160.204149 
L 537.708551 -159.545955 
L 536.026211 -159.540761 
L 534.343872 -159.144076 
L 532.661532 -160.997231 
L 530.979193 -166.436131 
L 529.296853 -175.673981 
L 527.614514 -185.391473 
L 525.932174 -192.773392 
L 524.249834 -194.674864 
L 522.567495 -192.052615 
L 520.885155 -187.990135 
L 519.202816 -185.104844 
L 517.520476 -186.366911 
L 515.838136 -187.99625 
L 514.155797 -190.342024 
L 512.473457 -190.440502 
L 510.791118 -188.566537 
L 509.108778 -185.056354 
L 507.426439 -182.037606 
L 505.744099 -182.067056 
L 504.061759 -184.381316 
L 502.37942 -188.338917 
L 500.69708 -193.850161 
L 499.014741 -199.757837 
L 497.332401 -205.017708 
L 495.650061 -208.766774 
L 493.967722 -211.165124 
L 492.285382 -212.82417 
L 490.603043 -213.447877 
L 488.920703 -214.001348 
L 487.238363 -215.643897 
L 485.556024 -219.823533 
L 483.873684 -225.859964 
L 482.191345 -231.625241 
L 480.509005 -235.16217 
L 478.826666 -234.333348 
L 477.144326 -230.696408 
L 475.461986 -226.463688 
L 473.779647 -224.038795 
L 472.097307 -225.931198 
L 470.414968 -231.219102 
L 468.732628 -237.422233 
L 467.050288 -241.062309 
L 465.367949 -241.796112 
L 463.685609 -240.68662 
L 462.00327 -240.07585 
L 460.32093 -244.192109 
L 458.638591 -252.374729 
L 456.956251 -263.165394 
L 455.273911 -269.936027 
L 453.591572 -271.37928 
L 451.909232 -267.026482 
L 450.226893 -260.913757 
L 448.544553 -257.185149 
L 446.862213 -258.744198 
L 445.179874 -266.399735 
L 443.497534 -275.127918 
L 441.815195 -282.493959 
L 440.132855 -285.91801 
L 438.450516 -285.54471 
L 436.768176 -284.75389 
L 435.085836 -285.786808 
L 433.403497 -287.973234 
L 431.721157 -291.048446 
L 430.038818 -293.511537 
L 428.356478 -295.402208 
L 426.674138 -297.482272 
L 424.991799 -300.324195 
L 423.309459 -302.754633 
L 421.62712 -306.160547 
L 419.94478 -308.959723 
L 418.26244 -310.229205 
L 416.580101 -310.996478 
L 414.897761 -312.939922 
L 413.215422 -316.729388 
L 411.533082 -322.013562 
L 409.850743 -327.173372 
L 408.168403 -329.789049 
L 406.486063 -331.555446 
L 404.803724 -334.887571 
L 403.121384 -340.675026 
L 401.439045 -348.746 
L 399.756705 -356.248752 
L 398.074365 -360.787359 
L 396.392026 -359.849526 
L 394.709686 -357.963451 
L 393.027347 -357.006933 
L 391.345007 -359.104374 
L 389.662668 -365.902652 
L 387.980328 -372.800051 
L 386.297988 -375.880392 
L 384.615649 -374.110682 
L 382.933309 -370.255717 
L 381.25097 -367.151894 
L 379.56863 -367.751559 
L 377.88629 -371.98976 
L 376.203951 -377.779814 
L 374.521611 -380.839534 
L 372.839272 -379.799787 
L 371.156932 -378.207591 
L 369.474593 -379.360525 
L 367.792253 -384.09292 
L 366.109913 -392.61216 
L 364.427574 -402.430439 
L 362.745234 -409.864764 
L 361.062895 -411.331915 
L 359.380555 -407.81063 
L 357.698215 -402.889976 
L 356.015876 -400.206866 
L 354.333536 -401.251741 
L 352.651197 -405.345987 
L 350.968857 -410.292848 
L 349.286517 -413.881635 
L 347.604178 -413.363233 
L 345.921838 -408.953701 
L 344.239499 -401.713098 
L 342.557159 -394.124127 
L 340.87482 -388.021953 
L 339.19248 -385.686076 
L 337.51014 -386.568335 
L 335.827801 -388.957319 
L 334.145461 -388.441716 
L 332.463122 -382.28371 
L 330.780782 -371.537604 
L 329.098442 -357.764287 
L 327.416103 -342.684515 
L 325.733763 -330.504385 
L 324.051424 -321.852444 
L 322.369084 -315.302387 
L 320.686745 -309.337757 
L 319.004405 -301.053642 
L 317.322065 -291.537459 
L 315.639726 -282.00447 
L 313.957386 -275.676497 
L 312.275047 -271.961965 
L 310.592707 -270.477632 
L 308.910367 -268.879524 
L 307.228028 -265.441081 
L 305.545688 -260.635829 
L 303.863349 -255.570574 
L 302.181009 -252.680767 
L 300.498669 -252.665223 
L 298.81633 -254.457992 
L 297.13399 -255.928972 
L 295.451651 -255.155158 
L 293.769311 -251.950676 
L 292.086972 -247.63582 
L 290.404632 -243.804115 
L 288.722292 -241.883745 
L 287.039953 -243.288305 
L 285.357613 -246.154853 
L 283.675274 -247.865931 
L 281.992934 -247.930673 
L 280.310594 -246.660979 
L 278.628255 -246.630178 
L 276.945915 -249.378966 
L 275.263576 -255.688095 
L 273.581236 -263.938749 
L 271.898897 -271.801816 
L 270.216557 -279.461486 
L 268.534217 -283.941347 
L 266.851878 -286.338899 
L 265.169538 -286.804432 
L 263.487199 -286.47737 
L 261.804859 -285.835647 
L 260.122519 -285.141991 
L 258.44018 -285.454015 
L 256.75784 -285.92555 
L 255.075501 -288.628834 
L 253.393161 -293.4522 
L 251.710822 -299.381425 
L 250.028482 -304.527986 
L 248.346142 -309.493848 
L 246.663803 -311.388881 
L 244.981463 -312.117391 
L 243.299124 -314.744307 
L 241.616784 -318.935452 
L 239.934444 -323.408214 
L 238.252105 -327.502119 
L 236.569765 -331.747862 
L 234.887426 -337.934519 
L 233.205086 -346.799231 
L 231.522746 -356.380473 
L 229.840407 -365.665206 
L 228.158067 -368.701443 
L 226.475728 -366.408171 
L 224.793388 -360.558163 
L 223.111049 -355.705623 
L 221.428709 -356.212877 
L 219.746369 -364.227682 
L 218.06403 -376.55027 
L 216.38169 -388.592666 
L 214.699351 -397.251577 
L 213.017011 -400.391169 
L 211.334671 -401.167316 
L 209.652332 -402.739064 
L 207.969992 -405.203839 
L 206.287653 -406.762121 
L 204.605313 -405.53838 
L 202.922974 -400.172371 
L 201.240634 -390.220004 
L 199.558294 -378.565969 
L 197.875955 -366.46392 
L 196.193615 -354.802532 
L 194.511276 -341.107593 
L 192.828936 -324.089483 
L 191.146596 -303.07097 
L 189.464257 -279.241575 
L 187.781917 -255.934834 
L 186.099578 -236.553864 
L 184.417238 -222.421805 
L 182.734899 -212.815898 
L 181.052559 -208.334562 
L 179.370219 -207.2636 
L 177.68788 -210.812739 
L 176.00554 -215.632614 
L 174.323201 -221.374375 
L 172.640861 -227.504985 
L 170.958521 -232.516813 
L 169.276182 -233.375617 
L 167.593842 -231.527996 
L 165.911503 -229.128153 
L 164.229163 -227.321979 
L 162.546823 -227.868038 
L 160.864484 -231.531592 
L 159.182144 -237.07351 
L 157.499805 -241.97771 
L 155.817465 -244.126181 
L 154.135126 -245.435692 
L 152.452786 -245.712196 
L 150.770446 -245.167455 
L 149.088107 -244.129029 
L 147.405767 -243.869402 
L 145.723428 -243.232269 
L 144.041088 -243.50167 
L 142.358748 -244.015855 
L 140.676409 -244.118799 
L 138.994069 -243.400647 
L 137.31173 -240.530608 
L 135.62939 -233.888773 
L 133.947051 -224.431321 
L 132.264711 -213.719163 
L 130.582371 -204.618847 
L 128.900032 -199.68323 
L 127.217692 -198.30348 
L 125.535353 -200.600638 
L 123.853013 -203.666974 
L 122.170673 -206.708568 
L 120.488334 -210.020893 
L 118.805994 -213.434912 
L 117.123655 -217.074644 
L 115.441315 -221.339595 
L 113.758976 -223.100547 
L 112.076636 -222.393404 
L 110.394296 -219.868293 
L 108.711957 -216.310525 
L 107.029617 -214.063944 
L 105.347278 -213.956451 
L 103.664938 -214.834705 
L 101.982598 -217.670852 
L 100.300259 -220.796678 
L 98.617919 -224.987396 
L 96.93558 -230.891349 
L 95.25324 -236.394078 
L 93.5709 -240.408114 
L 91.888561 -241.660997 
L 90.206221 -239.432257 
L 88.523882 -232.623298 
L 86.841542 -224.905052 
L 85.159203 -217.766859 
L 83.476863 -215.980261 
L 81.794523 -219.070855 
L 80.112184 -224.754532 
L 78.429844 -229.825715 
L 76.747505 -232.959776 
L 75.065165 -232.437093 
L 73.382825 -229.854315 
L 71.700486 -227.450477 
L 70.018146 -226.009186 
L 68.335807 -227.590285 
L 66.653467 -232.2882 
L 64.971128 -239.714593 
L 63.288788 -249.209839 
L 61.606448 -259.440133 
L 59.924109 -267.148619 
L 58.241769 -271.123195 
L 56.55943 -272.146077 
L 54.87709 -272.246101 
L 53.19475 -271.879017 
L 51.512411 -273.138056 
L 49.830071 -277.39798 
L 48.147732 -279.919988 
L 46.465392 -278.735234 
L 44.783052 -275.269618 
z
" style="stroke: #1f77b4; stroke-opacity: 0.3"/>
    </defs>
    <g>
     <use xlink:href="#m27030ee30c" x="0" y="432" style="fill: #1f77b4; fill-opacity: 0.3; stroke: #1f77b4; stroke-opacity: 0.3"/>
    </g>
   </g>
   <g id="FillBetweenPolyCollection_2">
    <defs>
     <path id="m5a14529f36" d="M 44.783052 -222.552085 
L 44.783052 -218.096671 
L 46.465392 -218.628119 
L 48.147732 -218.192853 
L 49.830071 -216.58838 
L 51.512411 -213.894454 
L 53.19475 -210.635416 
L 54.87709 -208.294835 
L 56.55943 -207.431362 
L 58.241769 -208.59125 
L 59.924109 -211.369511 
L 61.606448 -215.213367 
L 63.288788 -218.966584 
L 64.971128 -221.689133 
L 66.653467 -223.439374 
L 68.335807 -224.279946 
L 70.018146 -224.410267 
L 71.700486 -224.726059 
L 73.382825 -225.306236 
L 75.065165 -226.573597 
L 76.747505 -227.951205 
L 78.429844 -228.954946 
L 80.112184 -229.511738 
L 81.794523 -229.75669 
L 83.476863 -229.620501 
L 85.159203 -229.395588 
L 86.841542 -229.001827 
L 88.523882 -228.694247 
L 90.206221 -228.345366 
L 91.888561 -228.171348 
L 93.5709 -227.733949 
L 95.25324 -226.937172 
L 96.93558 -225.769791 
L 98.617919 -224.435587 
L 100.300259 -222.728056 
L 101.982598 -221.367799 
L 103.664938 -220.389024 
L 105.347278 -220.165644 
L 107.029617 -220.802693 
L 108.711957 -222.094082 
L 110.394296 -223.826762 
L 112.076636 -225.518428 
L 113.758976 -226.636503 
L 115.441315 -226.171027 
L 117.123655 -224.410433 
L 118.805994 -221.647854 
L 120.488334 -219.006943 
L 122.170673 -217.158316 
L 123.853013 -216.477051 
L 125.535353 -216.801496 
L 127.217692 -217.004402 
L 128.900032 -216.749317 
L 130.582371 -216.39198 
L 132.264711 -216.400915 
L 133.947051 -217.425065 
L 135.62939 -219.373932 
L 137.31173 -221.376122 
L 138.994069 -222.308583 
L 140.676409 -221.479724 
L 142.358748 -219.433254 
L 144.041088 -217.794932 
L 145.723428 -216.702168 
L 147.405767 -216.943719 
L 149.088107 -217.802636 
L 150.770446 -218.215172 
L 152.452786 -217.645082 
L 154.135126 -216.187633 
L 155.817465 -214.259021 
L 157.499805 -212.744634 
L 159.182144 -211.703294 
L 160.864484 -211.175351 
L 162.546823 -210.46427 
L 164.229163 -209.426888 
L 165.911503 -207.67123 
L 167.593842 -205.276416 
L 169.276182 -201.984896 
L 170.958521 -197.949304 
L 172.640861 -193.228588 
L 174.323201 -188.854431 
L 176.00554 -185.601088 
L 177.68788 -184.893368 
L 179.370219 -187.009098 
L 181.052559 -192.297103 
L 182.734899 -200.759275 
L 184.417238 -212.709631 
L 186.099578 -228.401049 
L 187.781917 -247.276478 
L 189.464257 -268.353224 
L 191.146596 -289.779901 
L 192.828936 -309.763155 
L 194.511276 -326.260951 
L 196.193615 -338.485629 
L 197.875955 -346.52111 
L 199.558294 -351.410106 
L 201.240634 -354.567774 
L 202.922974 -356.960725 
L 204.605313 -358.999787 
L 206.287653 -360.373154 
L 207.969992 -360.67658 
L 209.652332 -359.719166 
L 211.334671 -357.600066 
L 213.017011 -354.327733 
L 214.699351 -350.359148 
L 216.38169 -346.601258 
L 218.06403 -343.351226 
L 219.746369 -340.675274 
L 221.428709 -338.145955 
L 223.111049 -335.156744 
L 224.793388 -331.194926 
L 226.475728 -325.914028 
L 228.158067 -319.461767 
L 229.840407 -312.435415 
L 231.522746 -305.219436 
L 233.205086 -297.719503 
L 234.887426 -289.90761 
L 236.569765 -282.141499 
L 238.252105 -274.462699 
L 239.934444 -267.582054 
L 241.616784 -261.985756 
L 243.299124 -258.052039 
L 244.981463 -254.832314 
L 246.663803 -252.053166 
L 248.346142 -249.256851 
L 250.028482 -246.694832 
L 251.710822 -245.225378 
L 253.393161 -245.305204 
L 255.075501 -246.554741 
L 256.75784 -247.945407 
L 258.44018 -248.129594 
L 260.122519 -246.754712 
L 261.804859 -244.303479 
L 263.487199 -242.018871 
L 265.169538 -241.080003 
L 266.851878 -241.972943 
L 268.534217 -244.03675 
L 270.216557 -246.428527 
L 271.898897 -248.605849 
L 273.581236 -250.127389 
L 275.263576 -251.026267 
L 276.945915 -251.871164 
L 278.628255 -252.748116 
L 280.310594 -253.954474 
L 281.992934 -255.777039 
L 283.675274 -258.396641 
L 285.357613 -261.839306 
L 287.039953 -265.476856 
L 288.722292 -268.748 
L 290.404632 -270.72538 
L 292.086972 -271.071911 
L 293.769311 -270.088672 
L 295.451651 -268.709202 
L 297.13399 -267.809199 
L 298.81633 -267.60762 
L 300.498669 -268.136811 
L 302.181009 -268.521889 
L 303.863349 -268.26878 
L 305.545688 -266.77878 
L 307.228028 -263.807083 
L 308.910367 -259.86539 
L 310.592707 -255.731728 
L 312.275047 -252.175949 
L 313.957386 -250.084031 
L 315.639726 -249.92014 
L 317.322065 -251.491313 
L 319.004405 -253.924608 
L 320.686745 -255.702081 
L 322.369084 -255.665454 
L 324.051424 -253.949021 
L 325.733763 -251.487057 
L 327.416103 -249.70563 
L 329.098442 -249.46576 
L 330.780782 -250.99752 
L 332.463122 -253.393253 
L 334.145461 -255.299813 
L 335.827801 -256.254978 
L 337.51014 -256.369206 
L 339.19248 -256.248307 
L 340.87482 -256.558986 
L 342.557159 -257.715339 
L 344.239499 -259.592862 
L 345.921838 -261.29339 
L 347.604178 -262.011533 
L 349.286517 -261.710911 
L 350.968857 -260.47896 
L 352.651197 -258.669998 
L 354.333536 -256.648865 
L 356.015876 -254.386943 
L 357.698215 -251.986005 
L 359.380555 -249.494454 
L 361.062895 -246.853149 
L 362.745234 -244.291282 
L 364.427574 -241.878199 
L 366.109913 -239.350435 
L 367.792253 -236.603667 
L 369.474593 -233.591446 
L 371.156932 -230.606 
L 372.839272 -228.348192 
L 374.521611 -226.938363 
L 376.203951 -226.712766 
L 377.88629 -227.077516 
L 379.56863 -227.445047 
L 381.25097 -227.137696 
L 382.933309 -226.018961 
L 384.615649 -224.447288 
L 386.297988 -222.864569 
L 387.980328 -221.611511 
L 389.662668 -220.571257 
L 391.345007 -219.721333 
L 393.027347 -218.619152 
L 394.709686 -217.306948 
L 396.392026 -216.110759 
L 398.074365 -215.226834 
L 399.756705 -214.982219 
L 401.439045 -215.412609 
L 403.121384 -215.996438 
L 404.803724 -216.260171 
L 406.486063 -215.638179 
L 408.168403 -214.30473 
L 409.850743 -212.657934 
L 411.533082 -211.036553 
L 413.215422 -209.689404 
L 414.897761 -208.557582 
L 416.580101 -208.078159 
L 418.26244 -208.330485 
L 419.94478 -209.769455 
L 421.62712 -212.213299 
L 423.309459 -215.284015 
L 424.991799 -218.765546 
L 426.674138 -221.92389 
L 428.356478 -224.245043 
L 430.038818 -225.198587 
L 431.721157 -224.738072 
L 433.403497 -223.561501 
L 435.085836 -221.985778 
L 436.768176 -220.616867 
L 438.450516 -219.689499 
L 440.132855 -219.433744 
L 441.815195 -219.925163 
L 443.497534 -221.128771 
L 445.179874 -223.031333 
L 446.862213 -225.005628 
L 448.544553 -226.138594 
L 450.226893 -226.234283 
L 451.909232 -225.554053 
L 453.591572 -225.033779 
L 455.273911 -225.250683 
L 456.956251 -226.71012 
L 458.638591 -228.667217 
L 460.32093 -230.693865 
L 462.00327 -232.078274 
L 463.685609 -232.871769 
L 465.367949 -233.088395 
L 467.050288 -234.001727 
L 468.732628 -235.992641 
L 470.414968 -238.88772 
L 472.097307 -241.930936 
L 473.779647 -244.134689 
L 475.461986 -245.272528 
L 477.144326 -245.832962 
L 478.826666 -246.480716 
L 480.509005 -247.699513 
L 482.191345 -248.982452 
L 483.873684 -249.315102 
L 485.556024 -248.266915 
L 487.238363 -245.952398 
L 488.920703 -243.602443 
L 490.603043 -242.543367 
L 492.285382 -243.2737 
L 493.967722 -245.073025 
L 495.650061 -246.346427 
L 497.332401 -245.79803 
L 499.014741 -243.336421 
L 500.69708 -239.856403 
L 502.37942 -236.552333 
L 504.061759 -234.458368 
L 505.744099 -233.60258 
L 507.426439 -233.024126 
L 509.108778 -232.009377 
L 510.791118 -230.092178 
L 512.473457 -228.111128 
L 514.155797 -226.541642 
L 515.838136 -225.925265 
L 517.520476 -226.386954 
L 519.202816 -227.352769 
L 520.885155 -228.06657 
L 522.567495 -228.196996 
L 524.249834 -228.14443 
L 525.932174 -228.31602 
L 527.614514 -228.693063 
L 529.296853 -228.954696 
L 530.979193 -228.224458 
L 532.661532 -225.866183 
L 534.343872 -222.059606 
L 536.026211 -217.710516 
L 537.708551 -214.031705 
L 539.390891 -211.802908 
L 541.07323 -211.081405 
L 542.75557 -211.18874 
L 544.437909 -211.459742 
L 546.120249 -211.42282 
L 547.802589 -210.937773 
L 549.484928 -210.473602 
L 551.167268 -210.254629 
L 552.849607 -209.888992 
L 554.531947 -209.315118 
L 556.214286 -208.253213 
L 557.896626 -206.682982 
L 559.578966 -205.079705 
L 561.261305 -204.043299 
L 561.261305 -210.092976 
L 561.261305 -210.092976 
L 559.578966 -211.121699 
L 557.896626 -212.861184 
L 556.214286 -214.537907 
L 554.531947 -215.648874 
L 552.849607 -216.264346 
L 551.167268 -216.432995 
L 549.484928 -216.605295 
L 547.802589 -217.077359 
L 546.120249 -217.520846 
L 544.437909 -217.653682 
L 542.75557 -217.275648 
L 541.07323 -217.187622 
L 539.390891 -217.914699 
L 537.708551 -220.270799 
L 536.026211 -224.14428 
L 534.343872 -228.555528 
L 532.661532 -232.390035 
L 530.979193 -234.674115 
L 529.296853 -235.358131 
L 527.614514 -234.957823 
L 525.932174 -234.397049 
L 524.249834 -234.11132 
L 522.567495 -234.08962 
L 520.885155 -233.871911 
L 519.202816 -233.182823 
L 517.520476 -232.253617 
L 515.838136 -231.765386 
L 514.155797 -232.299298 
L 512.473457 -233.890156 
L 510.791118 -236.070717 
L 509.108778 -237.990991 
L 507.426439 -239.09833 
L 505.744099 -239.778891 
L 504.061759 -240.811035 
L 502.37942 -242.866899 
L 500.69708 -246.097881 
L 499.014741 -249.568001 
L 497.332401 -252.084484 
L 495.650061 -252.530187 
L 493.967722 -251.285034 
L 492.285382 -249.450408 
L 490.603043 -248.713413 
L 488.920703 -249.580153 
L 487.238363 -251.748649 
L 485.556024 -254.020018 
L 483.873684 -255.16324 
L 482.191345 -254.900248 
L 480.509005 -253.637039 
L 478.826666 -252.458915 
L 477.144326 -251.583245 
L 475.461986 -250.849844 
L 473.779647 -249.745008 
L 472.097307 -247.664337 
L 470.414968 -244.669901 
L 468.732628 -241.759706 
L 467.050288 -239.69743 
L 465.367949 -238.924573 
L 463.685609 -238.741853 
L 462.00327 -238.140447 
L 460.32093 -236.864199 
L 458.638591 -234.767625 
L 456.956251 -232.755081 
L 455.273911 -231.309756 
L 453.591572 -231.097248 
L 451.909232 -231.683168 
L 450.226893 -232.24736 
L 448.544553 -232.061058 
L 446.862213 -230.811782 
L 445.179874 -228.876421 
L 443.497534 -226.941046 
L 441.815195 -225.687356 
L 440.132855 -225.21224 
L 438.450516 -225.380556 
L 436.768176 -226.268132 
L 435.085836 -227.614703 
L 433.403497 -229.123506 
L 431.721157 -230.370979 
L 430.038818 -230.781639 
L 428.356478 -229.954141 
L 426.674138 -227.715978 
L 424.991799 -224.610136 
L 423.309459 -221.093548 
L 421.62712 -217.86725 
L 419.94478 -215.534033 
L 418.26244 -214.145979 
L 416.580101 -214.000288 
L 414.897761 -214.660095 
L 413.215422 -215.941285 
L 411.533082 -217.45232 
L 409.850743 -219.040927 
L 408.168403 -220.623366 
L 406.486063 -221.856572 
L 404.803724 -222.31561 
L 403.121384 -222.044167 
L 401.439045 -221.32212 
L 399.756705 -220.821715 
L 398.074365 -221.070616 
L 396.392026 -222.055071 
L 394.709686 -223.362831 
L 393.027347 -224.854386 
L 391.345007 -226.070413 
L 389.662668 -226.865521 
L 387.980328 -227.789981 
L 386.297988 -228.878398 
L 384.615649 -230.430066 
L 382.933309 -231.947166 
L 381.25097 -233.114488 
L 379.56863 -233.353321 
L 377.88629 -233.183519 
L 376.203951 -232.894579 
L 374.521611 -233.222378 
L 372.839272 -234.508276 
L 371.156932 -236.729787 
L 369.474593 -239.696832 
L 367.792253 -242.812463 
L 366.109913 -245.611851 
L 364.427574 -248.165319 
L 362.745234 -250.542181 
L 361.062895 -253.003407 
L 359.380555 -255.590829 
L 357.698215 -258.076009 
L 356.015876 -260.48654 
L 354.333536 -262.778763 
L 352.651197 -264.788543 
L 350.968857 -266.614867 
L 349.286517 -267.816729 
L 347.604178 -268.196692 
L 345.921838 -267.446639 
L 344.239499 -265.7599 
L 342.557159 -263.878006 
L 340.87482 -262.638429 
L 339.19248 -262.294257 
L 337.51014 -262.52633 
L 335.827801 -262.401843 
L 334.145461 -261.481167 
L 332.463122 -259.610898 
L 330.780782 -257.169951 
L 329.098442 -255.471155 
L 327.416103 -255.660191 
L 325.733763 -257.568742 
L 324.051424 -260.102723 
L 322.369084 -261.940071 
L 320.686745 -262.067638 
L 319.004405 -260.29241 
L 317.322065 -257.773868 
L 315.639726 -256.058764 
L 313.957386 -256.056765 
L 312.275047 -258.041476 
L 310.592707 -261.501974 
L 308.910367 -265.669535 
L 307.228028 -269.688556 
L 305.545688 -272.646958 
L 303.863349 -274.07575 
L 302.181009 -274.312932 
L 300.498669 -273.837894 
L 298.81633 -273.214449 
L 297.13399 -273.384073 
L 295.451651 -274.449198 
L 293.769311 -275.96365 
L 292.086972 -276.933649 
L 290.404632 -276.589493 
L 288.722292 -274.689603 
L 287.039953 -271.630662 
L 285.357613 -268.198081 
L 283.675274 -264.915048 
L 281.992934 -262.33094 
L 280.310594 -260.427569 
L 278.628255 -259.054815 
L 276.945915 -257.940149 
L 275.263576 -256.846914 
L 273.581236 -255.817389 
L 271.898897 -254.269891 
L 270.216557 -252.142388 
L 268.534217 -249.7976 
L 266.851878 -247.843166 
L 265.169538 -247.075105 
L 263.487199 -248.187098 
L 261.804859 -250.441068 
L 260.122519 -252.932049 
L 258.44018 -254.258687 
L 256.75784 -253.783011 
L 255.075501 -252.205125 
L 253.393161 -250.707555 
L 251.710822 -250.621725 
L 250.028482 -252.128461 
L 248.346142 -254.784453 
L 246.663803 -257.535669 
L 244.981463 -260.219041 
L 243.299124 -263.272951 
L 241.616784 -267.338695 
L 239.934444 -272.935231 
L 238.252105 -280.018588 
L 236.569765 -287.809885 
L 234.887426 -295.699555 
L 233.205086 -303.553714 
L 231.522746 -311.07222 
L 229.840407 -318.279134 
L 228.158067 -325.335364 
L 226.475728 -331.993421 
L 224.793388 -337.333399 
L 223.111049 -341.296261 
L 221.428709 -344.232707 
L 219.746369 -346.685488 
L 218.06403 -349.343562 
L 216.38169 -352.456189 
L 214.699351 -356.0073 
L 213.017011 -359.867178 
L 211.334671 -363.104601 
L 209.652332 -365.313954 
L 207.969992 -366.287357 
L 206.287653 -365.895087 
L 204.605313 -364.633428 
L 202.922974 -362.555856 
L 201.240634 -360.150808 
L 199.558294 -357.067697 
L 197.875955 -352.207318 
L 196.193615 -344.219178 
L 194.511276 -332.128819 
L 192.828936 -315.694698 
L 191.146596 -295.734684 
L 189.464257 -274.574195 
L 187.781917 -253.589062 
L 186.099578 -234.516721 
L 184.417238 -218.726482 
L 182.734899 -206.785235 
L 181.052559 -198.148921 
L 179.370219 -192.661745 
L 177.68788 -190.360422 
L 176.00554 -190.942197 
L 174.323201 -194.147184 
L 172.640861 -198.44693 
L 170.958521 -203.12491 
L 169.276182 -207.149284 
L 167.593842 -210.431722 
L 165.911503 -212.932604 
L 164.229163 -214.759452 
L 162.546823 -215.733303 
L 160.864484 -216.311493 
L 159.182144 -216.72379 
L 157.499805 -217.59644 
L 155.817465 -219.06546 
L 154.135126 -220.954594 
L 152.452786 -222.479193 
L 150.770446 -223.216687 
L 149.088107 -222.848463 
L 147.405767 -222.066197 
L 145.723428 -221.740378 
L 144.041088 -222.715247 
L 142.358748 -224.312302 
L 140.676409 -226.261152 
L 138.994069 -226.991788 
L 137.31173 -225.9762 
L 135.62939 -223.936047 
L 133.947051 -222.009134 
L 132.264711 -220.912015 
L 130.582371 -220.857694 
L 128.900032 -221.054942 
L 127.217692 -221.28889 
L 125.535353 -220.842118 
L 123.853013 -220.480307 
L 122.170673 -221.07371 
L 120.488334 -222.898427 
L 118.805994 -225.538051 
L 117.123655 -228.243437 
L 115.441315 -230.016257 
L 113.758976 -230.444403 
L 112.076636 -229.431897 
L 110.394296 -227.680663 
L 108.711957 -225.919844 
L 107.029617 -224.547533 
L 105.347278 -223.781356 
L 103.664938 -223.890624 
L 101.982598 -224.791525 
L 100.300259 -226.082722 
L 98.617919 -227.838682 
L 96.93558 -229.273681 
L 95.25324 -230.514869 
L 93.5709 -231.319909 
L 91.888561 -231.725271 
L 90.206221 -231.931882 
L 88.523882 -232.298272 
L 86.841542 -232.577789 
L 85.159203 -232.951366 
L 83.476863 -233.149261 
L 81.794523 -233.186511 
L 80.112184 -232.88129 
L 78.429844 -232.257991 
L 76.747505 -231.29429 
L 75.065165 -229.842387 
L 73.382825 -228.621905 
L 71.700486 -228.082569 
L 70.018146 -227.945197 
L 68.335807 -227.972203 
L 66.653467 -227.195912 
L 64.971128 -225.605022 
L 63.288788 -222.750763 
L 61.606448 -218.975125 
L 59.924109 -215.078389 
L 58.241769 -212.273261 
L 56.55943 -211.323225 
L 54.87709 -212.30484 
L 53.19475 -214.864109 
L 51.512411 -218.213669 
L 49.830071 -221.005918 
L 48.147732 -222.712803 
L 46.465392 -223.112272 
L 44.783052 -222.552085 
z
" style="stroke: #ff7f0e; stroke-opacity: 0.3"/>
    </defs>
    <g>
     <use xlink:href="#m5a14529f36" x="0" y="432" style="fill: #ff7f0e; fill-opacity: 0.3; stroke: #ff7f0e; stroke-opacity: 0.3"/>
    </g>
   </g>
   <g id="line2d_17">
    <path d="M 44.783052 168.732374 
L 46.465392 164.866162 
L 48.147732 163.720207 
L 49.830071 165.667549 
L 51.512411 169.549958 
L 53.19475 170.962196 
L 54.87709 170.337877 
L 56.55943 170.420285 
L 58.241769 171.040972 
L 59.924109 174.300217 
L 61.606448 181.231165 
L 64.971128 199.925608 
L 66.653467 207.478182 
L 68.335807 212.455136 
L 70.018146 214.094086 
L 71.700486 212.889175 
L 73.382825 210.301973 
L 75.065165 207.351021 
L 76.747505 206.476402 
L 78.429844 209.33252 
L 80.112184 214.461136 
L 81.794523 220.660167 
L 83.476863 224.329369 
L 85.159203 222.923872 
L 86.841542 215.772017 
L 88.523882 207.843723 
L 90.206221 201.694318 
L 91.888561 199.059028 
L 93.5709 200.104609 
L 95.25324 203.855962 
L 96.93558 208.872391 
L 98.617919 214.69257 
L 100.300259 219.091569 
L 101.982598 222.45354 
L 103.664938 225.27912 
L 105.347278 226.118282 
L 107.029617 225.755888 
L 108.711957 223.878926 
L 110.394296 220.780146 
L 112.076636 218.874044 
L 113.758976 218.60118 
L 115.441315 219.563354 
L 118.805994 225.588034 
L 125.535353 238.984606 
L 127.217692 241.621915 
L 128.900032 240.862555 
L 130.582371 235.916492 
L 132.264711 226.622946 
L 133.947051 215.874483 
L 135.62939 207.434958 
L 137.31173 202.20982 
L 138.994069 200.538795 
L 140.676409 200.869085 
L 142.358748 201.852255 
L 144.041088 203.000833 
L 145.723428 203.769833 
L 147.405767 203.453899 
L 149.088107 202.836626 
L 150.770446 201.856889 
L 152.452786 200.378733 
L 154.135126 199.670946 
L 155.817465 200.440478 
L 157.499805 202.732474 
L 159.182144 207.681008 
L 160.864484 213.54696 
L 162.546823 217.238186 
L 164.229163 217.16283 
L 165.911503 214.380246 
L 167.593842 211.320229 
L 169.276182 209.31913 
L 170.958521 210.937103 
L 172.640861 216.439958 
L 174.323201 223.855763 
L 176.00554 229.747902 
L 177.68788 234.869402 
L 179.370219 238.198683 
L 181.052559 237.155807 
L 182.734899 232.979061 
L 184.417238 224.209427 
L 186.099578 210.901612 
L 187.781917 192.600542 
L 192.828936 126.046324 
L 194.511276 109.143199 
L 196.193615 95.050282 
L 201.240634 59.160298 
L 202.922974 49.616171 
L 204.605313 44.241004 
L 206.287653 42.844506 
L 207.969992 43.895079 
L 209.652332 45.559354 
L 211.334671 46.878891 
L 213.017011 47.506499 
L 214.699351 50.658882 
L 216.38169 58.57785 
L 219.746369 82.524815 
L 221.428709 90.420439 
L 223.111049 91.590124 
L 224.793388 86.718896 
L 226.475728 80.952268 
L 228.158067 78.165913 
L 229.840407 80.780536 
L 231.522746 89.117567 
L 233.205086 98.406998 
L 234.887426 107.044242 
L 236.569765 113.380285 
L 238.252105 117.719746 
L 241.616784 127.462343 
L 243.299124 131.09833 
L 244.981463 133.052396 
L 246.663803 133.426138 
L 248.346142 135.088116 
L 250.028482 139.637196 
L 251.710822 146.174117 
L 253.393161 154.052855 
L 255.075501 160.678572 
L 256.75784 164.236272 
L 258.44018 164.986604 
L 260.122519 164.439624 
L 261.804859 162.362858 
L 263.487199 161.111294 
L 265.169538 160.874201 
L 266.851878 161.782642 
L 268.534217 164.655658 
L 270.216557 169.518346 
L 271.898897 176.174595 
L 275.263576 191.727607 
L 276.945915 197.366929 
L 278.628255 199.512951 
L 280.310594 199.182649 
L 281.992934 197.959446 
L 283.675274 198.194444 
L 285.357613 200.693043 
L 287.039953 204.044957 
L 288.722292 205.62266 
L 290.404632 204.222936 
L 293.769311 196.36973 
L 295.451651 193.213732 
L 297.13399 192.175649 
L 298.81633 193.073354 
L 300.498669 194.642595 
L 302.181009 194.721241 
L 303.863349 192.138404 
L 307.228028 183.174929 
L 308.910367 180.402773 
L 310.592707 178.749636 
L 312.275047 176.731513 
L 313.957386 172.890121 
L 315.639726 165.969976 
L 319.004405 146.185807 
L 320.686745 138.050729 
L 324.051424 126.096678 
L 325.733763 117.774284 
L 327.416103 105.964483 
L 329.098442 91.450438 
L 330.780782 78.272651 
L 332.463122 68.400486 
L 334.145461 62.871769 
L 335.827801 61.750835 
L 337.51014 63.103553 
L 339.19248 63.525167 
L 340.87482 60.913796 
L 342.557159 55.085467 
L 345.921838 39.953133 
L 347.604178 35.266545 
L 349.286517 34.153749 
L 350.968857 37.350387 
L 352.651197 42.636589 
L 354.333536 47.154643 
L 356.015876 48.837754 
L 357.698215 46.765927 
L 359.380555 42.095593 
L 361.062895 38.44033 
L 362.745234 39.270307 
L 364.427574 45.468998 
L 367.792253 63.905956 
L 369.474593 69.394065 
L 371.156932 70.989853 
L 372.839272 69.774942 
L 374.521611 69.024639 
L 376.203951 71.394288 
L 377.88629 75.982729 
L 379.56863 79.243319 
L 381.25097 79.297935 
L 382.933309 76.084963 
L 384.615649 72.447859 
L 386.297988 71.387867 
L 387.980328 75.309317 
L 391.345007 88.877618 
L 393.027347 91.355327 
L 394.709686 90.552464 
L 396.392026 88.221563 
L 398.074365 87.645513 
L 399.756705 92.016912 
L 403.121384 107.872957 
L 404.803724 113.607931 
L 406.486063 116.609801 
L 408.168403 118.226922 
L 409.850743 120.610567 
L 411.533082 125.875184 
L 413.215422 131.632978 
L 414.897761 136.25573 
L 416.580101 138.753487 
L 418.26244 140.095553 
L 419.94478 141.054459 
L 421.62712 142.693295 
L 424.991799 147.6271 
L 426.674138 150.212363 
L 430.038818 154.607156 
L 431.721157 157.527945 
L 433.403497 160.780309 
L 435.085836 163.635645 
L 436.768176 164.770536 
L 440.132855 163.634769 
L 441.815195 166.628138 
L 443.497534 173.130405 
L 445.179874 181.441082 
L 446.862213 188.002281 
L 448.544553 189.738371 
L 450.226893 186.015629 
L 451.909232 179.645183 
L 453.591572 175.723926 
L 455.273911 177.465818 
L 456.956251 184.3737 
L 458.638591 194.633599 
L 460.32093 203.069166 
L 462.00327 206.921949 
L 465.367949 205.565276 
L 467.050288 206.318655 
L 468.732628 209.997077 
L 470.414968 216.142803 
L 472.097307 221.159194 
L 473.779647 223.257408 
L 475.461986 221.635672 
L 477.144326 217.757503 
L 478.826666 214.305931 
L 480.509005 213.574159 
L 482.191345 216.788324 
L 483.873684 221.568138 
L 485.556024 227.31394 
L 487.238363 230.934722 
L 488.920703 232.16206 
L 490.603043 232.13329 
L 492.285382 232.923026 
L 493.967722 234.83901 
L 495.650061 237.61613 
L 497.332401 241.33647 
L 499.014741 246.707976 
L 502.37942 258.124654 
L 504.061759 262.253426 
L 505.744099 264.22611 
L 507.426439 263.500212 
L 510.791118 256.39297 
L 512.473457 254.854145 
L 514.155797 255.674492 
L 515.838136 258.545898 
L 517.520476 260.977691 
L 519.202816 262.12179 
L 520.885155 259.539381 
L 522.567495 255.220109 
L 524.249834 252.28642 
L 525.932174 253.974512 
L 527.614514 261.012038 
L 529.296853 270.179708 
L 530.979193 278.582691 
L 532.661532 283.822583 
L 534.343872 285.563511 
L 536.026211 285.942939 
L 539.390891 285.564913 
L 541.07323 284.403704 
L 542.75557 280.62888 
L 544.437909 273.97532 
L 546.120249 266.494172 
L 547.802589 261.36476 
L 549.484928 260.007767 
L 551.167268 261.704287 
L 552.849607 265.420464 
L 554.531947 268.135732 
L 556.214286 269.37431 
L 557.896626 269.939854 
L 559.578966 271.445941 
L 561.261305 273.815601 
L 561.261305 273.815601 
" style="fill: none; stroke: #1f77b4; stroke-width: 1.5; stroke-linecap: square"/>
   </g>
   <g id="line2d_18">
    <path d="M 44.783052 211.714676 
L 46.465392 211.195501 
L 48.147732 211.633259 
L 49.830071 213.265402 
L 51.512411 215.9722 
L 53.19475 219.281172 
L 54.87709 221.77041 
L 56.55943 222.672242 
L 58.241769 221.60337 
L 59.924109 218.780819 
L 63.288788 211.121362 
L 64.971128 208.327385 
L 66.653467 206.708983 
L 68.335807 205.950929 
L 71.700486 205.598324 
L 73.382825 205.042134 
L 75.065165 203.765661 
L 76.747505 202.340203 
L 78.429844 201.338549 
L 80.112184 200.751701 
L 81.794523 200.519326 
L 85.159203 200.854268 
L 88.523882 201.551942 
L 90.206221 201.862136 
L 91.888561 202.041605 
L 93.5709 202.429863 
L 95.25324 203.291142 
L 96.93558 204.468019 
L 98.617919 205.871188 
L 100.300259 207.605989 
L 101.982598 208.94032 
L 103.664938 209.884767 
L 105.347278 210.044269 
L 107.029617 209.308965 
L 108.711957 207.98636 
L 112.076636 204.504545 
L 113.758976 203.410991 
L 115.441315 203.827726 
L 117.123655 205.618446 
L 120.488334 211.00469 
L 122.170673 212.855627 
L 123.853013 213.489586 
L 127.217692 212.892454 
L 130.582371 213.390747 
L 132.264711 213.338567 
L 133.947051 212.292652 
L 137.31173 208.361943 
L 138.994069 207.36664 
L 140.676409 208.109349 
L 142.358748 210.064325 
L 144.041088 211.746389 
L 145.723428 212.775028 
L 147.405767 212.523453 
L 149.088107 211.682856 
L 150.770446 211.309519 
L 152.452786 211.978849 
L 154.135126 213.477025 
L 155.817465 215.378973 
L 157.499805 216.863025 
L 159.182144 217.794896 
L 162.546823 218.9086 
L 164.229163 219.866982 
L 165.911503 221.605315 
L 167.593842 224.055977 
L 169.276182 227.353584 
L 170.958521 231.4464 
L 172.640861 236.139854 
L 174.323201 240.484044 
L 176.00554 243.692551 
L 177.68788 244.38318 
L 179.370219 242.135658 
L 181.052559 236.790139 
L 182.734899 228.219318 
L 184.417238 216.253386 
L 186.099578 200.530357 
L 187.781917 181.569498 
L 192.828936 119.312413 
L 194.511276 102.866681 
L 196.193615 90.701796 
L 197.875955 82.61392 
L 199.558294 77.710609 
L 201.240634 74.609433 
L 202.922974 72.209691 
L 204.605313 70.160458 
L 206.287653 68.818309 
L 207.969992 68.422556 
L 209.652332 69.285838 
L 211.334671 71.490892 
L 213.017011 74.827353 
L 216.38169 82.42543 
L 218.06403 85.623725 
L 219.746369 88.298867 
L 221.428709 90.743479 
L 223.111049 93.743183 
L 224.793388 97.663388 
L 226.475728 102.987082 
L 228.158067 109.544891 
L 231.522746 123.758958 
L 234.887426 139.148839 
L 238.252105 154.799044 
L 239.934444 161.780239 
L 241.616784 167.364516 
L 243.299124 171.348835 
L 244.981463 174.420586 
L 250.028482 182.506332 
L 251.710822 184.068821 
L 253.393161 184.040817 
L 256.75784 181.142251 
L 258.44018 180.811911 
L 260.122519 182.13648 
L 261.804859 184.637715 
L 263.487199 186.923136 
L 265.169538 187.909693 
L 266.851878 187.12559 
L 268.534217 185.07353 
L 270.216557 182.70025 
L 271.898897 180.604615 
L 273.581236 179.045262 
L 278.628255 176.101929 
L 280.310594 174.793871 
L 281.992934 172.92351 
L 283.675274 170.292246 
L 288.722292 160.258253 
L 290.404632 158.331866 
L 292.086972 158.013398 
L 293.769311 158.988823 
L 295.451651 160.436822 
L 297.13399 161.411371 
L 298.81633 161.55424 
L 302.181009 160.528133 
L 303.863349 160.787602 
L 305.545688 162.279112 
L 307.228028 165.21965 
L 312.275047 176.877381 
L 313.957386 178.905842 
L 315.639726 178.970373 
L 317.322065 177.290229 
L 319.004405 174.835156 
L 320.686745 173.111168 
L 322.369084 173.171179 
L 324.051424 174.916651 
L 325.733763 177.435549 
L 327.416103 179.318664 
L 329.098442 179.507984 
L 330.780782 177.898317 
L 332.463122 175.477471 
L 334.145461 173.529886 
L 335.827801 172.586577 
L 337.51014 172.491237 
L 339.19248 172.631167 
L 340.87482 172.277596 
L 342.557159 171.068429 
L 344.239499 169.195353 
L 345.921838 167.514333 
L 347.604178 166.801674 
L 349.286517 167.174068 
L 350.968857 168.387592 
L 352.651197 170.237249 
L 354.333536 172.260475 
L 357.698215 176.994844 
L 366.109913 189.502584 
L 367.792253 192.305615 
L 371.156932 198.301877 
L 372.839272 200.574108 
L 374.521611 201.86311 
L 376.203951 202.151035 
L 379.56863 201.608829 
L 381.25097 201.87704 
L 382.933309 203.004337 
L 386.297988 206.102488 
L 387.980328 207.210474 
L 391.345007 209.009793 
L 393.027347 210.215132 
L 396.392026 212.955335 
L 398.074365 213.887512 
L 399.756705 214.119689 
L 401.439045 213.693802 
L 403.121384 212.999581 
L 404.803724 212.722115 
L 406.486063 213.259206 
L 408.168403 214.54321 
L 411.533082 217.82855 
L 413.215422 219.225509 
L 414.897761 220.433554 
L 416.580101 220.928496 
L 418.26244 220.664563 
L 419.94478 219.273526 
L 421.62712 216.89957 
L 423.309459 213.805414 
L 424.991799 210.317056 
L 426.674138 207.181885 
L 428.356478 204.954538 
L 430.038818 204.085647 
L 431.721157 204.498764 
L 433.403497 205.716073 
L 435.085836 207.274182 
L 436.768176 208.663574 
L 438.450516 209.556771 
L 440.132855 209.815747 
L 441.815195 209.345111 
L 443.497534 208.066201 
L 446.862213 204.139189 
L 448.544553 202.953929 
L 450.226893 202.763829 
L 453.591572 203.99429 
L 455.273911 203.770807 
L 456.956251 202.329371 
L 460.32093 198.222005 
L 462.00327 196.838318 
L 463.685609 196.213341 
L 465.367949 195.937654 
L 467.050288 195.077507 
L 468.732628 193.087998 
L 472.097307 187.193045 
L 473.779647 185.025732 
L 475.461986 183.869222 
L 478.826666 182.521428 
L 482.191345 180.013002 
L 483.873684 179.677848 
L 485.556024 180.792349 
L 488.920703 185.32254 
L 490.603043 186.290801 
L 492.285382 185.559905 
L 493.967722 183.792809 
L 495.650061 182.542875 
L 497.332401 183.075131 
L 499.014741 185.550276 
L 502.37942 192.301647 
L 504.061759 194.396864 
L 505.744099 195.403213 
L 507.426439 196.010286 
L 509.108778 197.103286 
L 510.791118 198.965507 
L 512.473457 201.074256 
L 514.155797 202.667917 
L 515.838136 203.155748 
L 517.520476 202.676203 
L 519.202816 201.721451 
L 520.885155 201.023455 
L 522.567495 200.825124 
L 524.249834 200.787669 
L 525.932174 200.622328 
L 527.614514 200.172977 
L 529.296853 199.884985 
L 530.979193 200.644245 
L 532.661532 202.966042 
L 534.343872 206.774352 
L 536.026211 211.144906 
L 537.708551 214.873513 
L 539.390891 217.150639 
L 541.07323 217.870759 
L 542.75557 217.722975 
L 544.437909 217.463541 
L 546.120249 217.583658 
L 549.484928 218.502117 
L 552.849607 218.990873 
L 554.531947 219.556076 
L 556.214286 220.646082 
L 559.578966 223.837317 
L 561.261305 224.879746 
L 561.261305 224.879746 
" style="fill: none; stroke: #ff7f0e; stroke-width: 1.5; stroke-linecap: square"/>
   </g>
  </g>
  <g id="axes_2">
   <g id="PathCollection_1">
    <defs>
     <path id="C0_0_58b281362a" d="M 0 1.118034 
C 0.296506 1.118034 0.580908 1.000231 0.790569 0.790569 
C 1.000231 0.580908 1.118034 0.296506 1.118034 -0 
C 1.118034 -0.296506 1.000231 -0.580908 0.790569 -0.790569 
C 0.580908 -1.000231 0.296506 -1.118034 0 -1.118034 
C -0.296506 -1.118034 -0.580908 -1.000231 -0.790569 -0.790569 
C -1.000231 -0.580908 -1.118034 -0.296506 -1.118034 0 
C -1.118034 0.296506 -1.000231 0.580908 -0.790569 0.790569 
C -0.580908 1.000231 -0.296506 1.118034 0 1.118034 
z
"/>
    </defs>
    <g clip-path="url(#pbfd1770180)">
     <use xlink:href="#C0_0_58b281362a" x="509.13937" y="46.64915" style="stroke: #000000"/>
    </g>
    <g clip-path="url(#pbfd1770180)">
     <use xlink:href="#C0_0_58b281362a" x="509.147251" y="56.277599" style="stroke: #000000"/>
    </g>
    <g clip-path="url(#pbfd1770180)">
     <use xlink:href="#C0_0_58b281362a" x="509.092397" y="76.413687" style="stroke: #000000"/>
    </g>
    <g clip-path="url(#pbfd1770180)">
     <use xlink:href="#C0_0_58b281362a" x="509.035125" y="85.80057" style="stroke: #000000"/>
    </g>
    <g clip-path="url(#pbfd1770180)">
     <use xlink:href="#C0_0_58b281362a" x="509.130245" y="66.304876" style="stroke: #000000"/>
    </g>
   </g>
   <g id="matplotlib.axis_3"/>
   <g id="matplotlib.axis_4"/>
   <g id="line2d_19">
    <path d="M 548.860095 73.636387 
L 548.782417 71.164635 
L 548.54969 68.702638 
L 548.162832 66.260111 
L 547.623369 63.846696 
L 546.933432 61.471916 
L 546.095742 59.145144 
L 545.113607 56.875562 
L 543.990901 54.672127 
L 542.732055 52.543535 
L 541.342038 50.498188 
L 539.826336 48.544156 
L 538.19093 46.689152 
L 536.442274 44.940496 
L 534.58727 43.30509 
L 532.633238 41.789388 
L 530.587891 40.399371 
L 528.459299 39.140526 
L 526.255865 38.017819 
L 523.986282 37.035684 
L 521.65951 36.197994 
L 519.28473 35.508057 
L 516.871315 34.968594 
L 514.428789 34.581736 
L 511.966791 34.349009 
L 509.495039 34.271331 
L 507.023286 34.349009 
L 504.561289 34.581736 
L 502.118763 34.968594 
L 499.705347 35.508057 
L 497.330567 36.197994 
L 495.003795 37.035684 
L 492.734213 38.017819 
L 490.530778 39.140526 
L 488.402187 40.399371 
L 486.356839 41.789388 
L 484.402808 43.30509 
L 482.547803 44.940496 
L 480.799148 46.689152 
L 479.163742 48.544156 
L 477.648039 50.498188 
L 476.258022 52.543535 
L 474.999177 54.672127 
L 473.876471 56.875562 
L 472.894335 59.145144 
L 472.056645 61.471916 
L 471.366708 63.846696 
L 470.827246 66.260111 
L 470.440388 68.702638 
L 470.20766 71.164635 
L 470.129982 73.636387 
L 470.20766 76.10814 
L 470.440388 78.570137 
L 470.827246 81.012663 
L 471.366708 83.426079 
L 472.056645 85.800859 
L 472.894335 88.127631 
L 473.876471 90.397213 
L 474.999177 92.600648 
L 476.258022 94.729239 
L 477.648039 96.774587 
L 479.163742 98.728619 
L 480.799148 100.583623 
L 482.547803 102.332278 
L 484.402808 103.967685 
L 486.356839 105.483387 
L 488.402187 106.873404 
L 490.530778 108.132249 
L 492.734213 109.254955 
L 495.003795 110.237091 
L 497.330567 111.074781 
L 499.705347 111.764718 
L 502.118763 112.30418 
L 504.561289 112.691038 
L 507.023286 112.923766 
L 509.495039 113.001444 
L 511.966791 112.923766 
L 514.428789 112.691038 
L 516.871315 112.30418 
L 519.28473 111.764718 
L 521.65951 111.074781 
L 523.986282 110.237091 
L 526.255865 109.254955 
L 528.459299 108.132249 
L 530.587891 106.873404 
L 532.633238 105.483387 
L 534.58727 103.967685 
L 536.442274 102.332278 
L 538.19093 100.583623 
L 539.826336 98.728619 
L 541.342038 96.774587 
L 542.732055 94.729239 
L 543.990901 92.600648 
L 545.113607 90.397213 
L 546.095742 88.127631 
L 546.933432 85.800859 
L 547.623369 83.426079 
L 548.162832 81.012663 
L 548.54969 78.570137 
L 548.782417 76.10814 
L 548.860095 73.636387 
" style="fill: none; stroke: #000000; stroke-linecap: square"/>
   </g>
   <g id="line2d_20">
    <path d="M 501.250441 35.144385 
L 509.495039 28.366573 
L 517.739637 35.144385 
" style="fill: none; stroke: #000000; stroke-linecap: square"/>
   </g>
   <g id="line2d_21">
    <path d="M 470.366173 69.266866 
L 469.342681 67.534804 
L 468.71284 67.47182 
L 467.775952 67.763121 
L 466.831191 69.266866 
L 466.980778 74.069403 
L 466.429667 80.974034 
L 467.610619 83.973651 
L 469.342681 84.532635 
L 470.996014 83.076128 
" style="fill: none; stroke: #000000; stroke-linecap: square"/>
   </g>
   <g id="line2d_22">
    <path d="M 548.623905 69.266866 
L 549.647396 67.534804 
L 550.277237 67.47182 
L 551.214125 67.763121 
L 552.158887 69.266866 
L 552.0093 74.069403 
L 552.56041 80.974034 
L 551.379459 83.973651 
L 549.647396 84.532635 
L 547.994064 83.076128 
" style="fill: none; stroke: #000000; stroke-linecap: square"/>
   </g>
  </g>
 </g>
 <defs>
  <clipPath id="p225512e7b5">
   <rect x="44.783053" y="18.118365" width="517.083895" height="380.525145"/>
  </clipPath>
  <clipPath id="pbfd1770180">
   <rect x="462.12313" y="24.134829" width="94.743817" height="93.098358"/>
  </clipPath>
 </defs>
</svg>
