<?xml version="1.0" encoding="utf-8" standalone="no"?>
<!DOCTYPE svg PUBLIC "-//W3C//DTD SVG 1.1//EN"
  "http://www.w3.org/Graphics/SVG/1.1/DTD/svg11.dtd">
<svg xmlns:xlink="http://www.w3.org/1999/xlink" width="576pt" height="432pt" viewBox="0 0 576 432" xmlns="http://www.w3.org/2000/svg" version="1.1">
 <metadata>
  <rdf:RDF xmlns:dc="http://purl.org/dc/elements/1.1/" xmlns:cc="http://creativecommons.org/ns#" xmlns:rdf="http://www.w3.org/1999/02/22-rdf-syntax-ns#">
   <cc:Work>
    <dc:type rdf:resource="http://purl.org/dc/dcmitype/StillImage"/>
    <dc:date>2025-02-17T18:08:08.336690</dc:date>
    <dc:format>image/svg+xml</dc:format>
    <dc:creator>
     <cc:Agent>
      <dc:title>Matplotlib v3.10.0, https://matplotlib.org/</dc:title>
     </cc:Agent>
    </dc:creator>
   </cc:Work>
  </rdf:RDF>
 </metadata>
 <defs>
  <style type="text/css">*{stroke-linejoin: round; stroke-linecap: butt}</style>
 </defs>
 <g id="figure_1">
  <g id="patch_1">
   <path d="M 0 432 
L 576 432 
L 576 0 
L 0 0 
z
" style="fill: #ffffff"/>
  </g>
  <g id="axes_1">
   <g id="patch_2">
    <path d="M 38.420552 398.64351 
L 561.866948 398.64351 
L 561.866948 18.118365 
L 38.420552 18.118365 
L 38.420552 398.64351 
z
" style="fill: none; opacity: 0"/>
   </g>
   <g id="patch_3">
    <path d="M 38.420552 364.061018 
L 38.420552 52.700857 
" style="fill: none; stroke: #000000; stroke-width: 0.8; stroke-linejoin: miter; stroke-linecap: square"/>
   </g>
   <g id="LineCollection_1">
    <path d="M 278.48108 18.118365 
L 278.48108 398.64351 
" clip-path="url(#p9db1f99b5d)" style="fill: none; stroke-dasharray: 3.7,1.6; stroke-dashoffset: 0; stroke: #000000"/>
    <path d="M 365.676732 18.118365 
L 365.676732 398.64351 
" clip-path="url(#p9db1f99b5d)" style="fill: none; stroke-dasharray: 3.7,1.6; stroke-dashoffset: 0; stroke: #000000"/>
   </g>
   <g id="matplotlib.axis_1">
    <g id="xtick_1">
     <g id="line2d_1">
      <defs>
       <path id="mbd602b5641" d="M 0 0 
L 0 3.5 
" style="stroke: #000000; stroke-width: 0.8"/>
      </defs>
      <g>
       <use xlink:href="#mbd602b5641" x="38.693039" y="398.64351" style="stroke: #000000; stroke-width: 0.8"/>
      </g>
     </g>
     <g id="text_1">
      <!-- −0.20 -->
      <g transform="translate(23.370383 413.241947) scale(0.1 -0.1)">
       <defs>
        <path id="DejaVuSans-2212" d="M 678 2272 
L 4684 2272 
L 4684 1741 
L 678 1741 
L 678 2272 
z
" transform="scale(0.015625)"/>
        <path id="DejaVuSans-30" d="M 2034 4250 
Q 1547 4250 1301 3770 
Q 1056 3291 1056 2328 
Q 1056 1369 1301 889 
Q 1547 409 2034 409 
Q 2525 409 2770 889 
Q 3016 1369 3016 2328 
Q 3016 3291 2770 3770 
Q 2525 4250 2034 4250 
z
M 2034 4750 
Q 2819 4750 3233 4129 
Q 3647 3509 3647 2328 
Q 3647 1150 3233 529 
Q 2819 -91 2034 -91 
Q 1250 -91 836 529 
Q 422 1150 422 2328 
Q 422 3509 836 4129 
Q 1250 4750 2034 4750 
z
" transform="scale(0.015625)"/>
        <path id="DejaVuSans-2e" d="M 684 794 
L 1344 794 
L 1344 0 
L 684 0 
L 684 794 
z
" transform="scale(0.015625)"/>
        <path id="DejaVuSans-32" d="M 1228 531 
L 3431 531 
L 3431 0 
L 469 0 
L 469 531 
Q 828 903 1448 1529 
Q 2069 2156 2228 2338 
Q 2531 2678 2651 2914 
Q 2772 3150 2772 3378 
Q 2772 3750 2511 3984 
Q 2250 4219 1831 4219 
Q 1534 4219 1204 4116 
Q 875 4013 500 3803 
L 500 4441 
Q 881 4594 1212 4672 
Q 1544 4750 1819 4750 
Q 2544 4750 2975 4387 
Q 3406 4025 3406 3419 
Q 3406 3131 3298 2873 
Q 3191 2616 2906 2266 
Q 2828 2175 2409 1742 
Q 1991 1309 1228 531 
z
" transform="scale(0.015625)"/>
       </defs>
       <use xlink:href="#DejaVuSans-2212"/>
       <use xlink:href="#DejaVuSans-30" transform="translate(83.789062 0)"/>
       <use xlink:href="#DejaVuSans-2e" transform="translate(147.412109 0)"/>
       <use xlink:href="#DejaVuSans-32" transform="translate(179.199219 0)"/>
       <use xlink:href="#DejaVuSans-30" transform="translate(242.822266 0)"/>
      </g>
     </g>
    </g>
    <g id="xtick_2">
     <g id="line2d_2">
      <g>
       <use xlink:href="#mbd602b5641" x="125.88869" y="398.64351" style="stroke: #000000; stroke-width: 0.8"/>
      </g>
     </g>
     <g id="text_2">
      <!-- 0.00 -->
      <g transform="translate(114.755878 413.241947) scale(0.1 -0.1)">
       <use xlink:href="#DejaVuSans-30"/>
       <use xlink:href="#DejaVuSans-2e" transform="translate(63.623047 0)"/>
       <use xlink:href="#DejaVuSans-30" transform="translate(95.410156 0)"/>
       <use xlink:href="#DejaVuSans-30" transform="translate(159.033203 0)"/>
      </g>
     </g>
    </g>
    <g id="xtick_3">
     <g id="line2d_3">
      <g>
       <use xlink:href="#mbd602b5641" x="213.084342" y="398.64351" style="stroke: #000000; stroke-width: 0.8"/>
      </g>
     </g>
     <g id="text_3">
      <!-- 0.20 -->
      <g transform="translate(201.951529 413.241947) scale(0.1 -0.1)">
       <use xlink:href="#DejaVuSans-30"/>
       <use xlink:href="#DejaVuSans-2e" transform="translate(63.623047 0)"/>
       <use xlink:href="#DejaVuSans-32" transform="translate(95.410156 0)"/>
       <use xlink:href="#DejaVuSans-30" transform="translate(159.033203 0)"/>
      </g>
     </g>
    </g>
    <g id="xtick_4">
     <g id="line2d_4">
      <g>
       <use xlink:href="#mbd602b5641" x="278.48108" y="398.64351" style="stroke: #000000; stroke-width: 0.8"/>
      </g>
     </g>
     <g id="text_4">
      <!-- 0.35 -->
      <g transform="translate(267.348268 413.241947) scale(0.1 -0.1)">
       <defs>
        <path id="DejaVuSans-33" d="M 2597 2516 
Q 3050 2419 3304 2112 
Q 3559 1806 3559 1356 
Q 3559 666 3084 287 
Q 2609 -91 1734 -91 
Q 1441 -91 1130 -33 
Q 819 25 488 141 
L 488 750 
Q 750 597 1062 519 
Q 1375 441 1716 441 
Q 2309 441 2620 675 
Q 2931 909 2931 1356 
Q 2931 1769 2642 2001 
Q 2353 2234 1838 2234 
L 1294 2234 
L 1294 2753 
L 1863 2753 
Q 2328 2753 2575 2939 
Q 2822 3125 2822 3475 
Q 2822 3834 2567 4026 
Q 2313 4219 1838 4219 
Q 1578 4219 1281 4162 
Q 984 4106 628 3988 
L 628 4550 
Q 988 4650 1302 4700 
Q 1616 4750 1894 4750 
Q 2613 4750 3031 4423 
Q 3450 4097 3450 3541 
Q 3450 3153 3228 2886 
Q 3006 2619 2597 2516 
z
" transform="scale(0.015625)"/>
        <path id="DejaVuSans-35" d="M 691 4666 
L 3169 4666 
L 3169 4134 
L 1269 4134 
L 1269 2991 
Q 1406 3038 1543 3061 
Q 1681 3084 1819 3084 
Q 2600 3084 3056 2656 
Q 3513 2228 3513 1497 
Q 3513 744 3044 326 
Q 2575 -91 1722 -91 
Q 1428 -91 1123 -41 
Q 819 9 494 109 
L 494 744 
Q 775 591 1075 516 
Q 1375 441 1709 441 
Q 2250 441 2565 725 
Q 2881 1009 2881 1497 
Q 2881 1984 2565 2268 
Q 2250 2553 1709 2553 
Q 1456 2553 1204 2497 
Q 953 2441 691 2322 
L 691 4666 
z
" transform="scale(0.015625)"/>
       </defs>
       <use xlink:href="#DejaVuSans-30"/>
       <use xlink:href="#DejaVuSans-2e" transform="translate(63.623047 0)"/>
       <use xlink:href="#DejaVuSans-33" transform="translate(95.410156 0)"/>
       <use xlink:href="#DejaVuSans-35" transform="translate(159.033203 0)"/>
      </g>
     </g>
    </g>
    <g id="xtick_5">
     <g id="line2d_5">
      <g>
       <use xlink:href="#mbd602b5641" x="300.279993" y="398.64351" style="stroke: #000000; stroke-width: 0.8"/>
      </g>
     </g>
     <g id="text_5">
      <!-- 0.40 -->
      <g transform="translate(289.147181 413.241947) scale(0.1 -0.1)">
       <defs>
        <path id="DejaVuSans-34" d="M 2419 4116 
L 825 1625 
L 2419 1625 
L 2419 4116 
z
M 2253 4666 
L 3047 4666 
L 3047 1625 
L 3713 1625 
L 3713 1100 
L 3047 1100 
L 3047 0 
L 2419 0 
L 2419 1100 
L 313 1100 
L 313 1709 
L 2253 4666 
z
" transform="scale(0.015625)"/>
       </defs>
       <use xlink:href="#DejaVuSans-30"/>
       <use xlink:href="#DejaVuSans-2e" transform="translate(63.623047 0)"/>
       <use xlink:href="#DejaVuSans-34" transform="translate(95.410156 0)"/>
       <use xlink:href="#DejaVuSans-30" transform="translate(159.033203 0)"/>
      </g>
     </g>
    </g>
    <g id="xtick_6">
     <g id="line2d_6">
      <g>
       <use xlink:href="#mbd602b5641" x="365.676732" y="398.64351" style="stroke: #000000; stroke-width: 0.8"/>
      </g>
     </g>
     <g id="text_6">
      <!-- 0.55 -->
      <g transform="translate(354.543919 413.241947) scale(0.1 -0.1)">
       <use xlink:href="#DejaVuSans-30"/>
       <use xlink:href="#DejaVuSans-2e" transform="translate(63.623047 0)"/>
       <use xlink:href="#DejaVuSans-35" transform="translate(95.410156 0)"/>
       <use xlink:href="#DejaVuSans-35" transform="translate(159.033203 0)"/>
      </g>
     </g>
    </g>
    <g id="xtick_7">
     <g id="line2d_7">
      <g>
       <use xlink:href="#mbd602b5641" x="387.475645" y="398.64351" style="stroke: #000000; stroke-width: 0.8"/>
      </g>
     </g>
     <g id="text_7">
      <!-- 0.60 -->
      <g transform="translate(376.342832 413.241947) scale(0.1 -0.1)">
       <defs>
        <path id="DejaVuSans-36" d="M 2113 2584 
Q 1688 2584 1439 2293 
Q 1191 2003 1191 1497 
Q 1191 994 1439 701 
Q 1688 409 2113 409 
Q 2538 409 2786 701 
Q 3034 994 3034 1497 
Q 3034 2003 2786 2293 
Q 2538 2584 2113 2584 
z
M 3366 4563 
L 3366 3988 
Q 3128 4100 2886 4159 
Q 2644 4219 2406 4219 
Q 1781 4219 1451 3797 
Q 1122 3375 1075 2522 
Q 1259 2794 1537 2939 
Q 1816 3084 2150 3084 
Q 2853 3084 3261 2657 
Q 3669 2231 3669 1497 
Q 3669 778 3244 343 
Q 2819 -91 2113 -91 
Q 1303 -91 875 529 
Q 447 1150 447 2328 
Q 447 3434 972 4092 
Q 1497 4750 2381 4750 
Q 2619 4750 2861 4703 
Q 3103 4656 3366 4563 
z
" transform="scale(0.015625)"/>
       </defs>
       <use xlink:href="#DejaVuSans-30"/>
       <use xlink:href="#DejaVuSans-2e" transform="translate(63.623047 0)"/>
       <use xlink:href="#DejaVuSans-36" transform="translate(95.410156 0)"/>
       <use xlink:href="#DejaVuSans-30" transform="translate(159.033203 0)"/>
      </g>
     </g>
    </g>
    <g id="xtick_8">
     <g id="line2d_8">
      <g>
       <use xlink:href="#mbd602b5641" x="474.671296" y="398.64351" style="stroke: #000000; stroke-width: 0.8"/>
      </g>
     </g>
     <g id="text_8">
      <!-- 0.80 -->
      <g transform="translate(463.538484 413.241947) scale(0.1 -0.1)">
       <defs>
        <path id="DejaVuSans-38" d="M 2034 2216 
Q 1584 2216 1326 1975 
Q 1069 1734 1069 1313 
Q 1069 891 1326 650 
Q 1584 409 2034 409 
Q 2484 409 2743 651 
Q 3003 894 3003 1313 
Q 3003 1734 2745 1975 
Q 2488 2216 2034 2216 
z
M 1403 2484 
Q 997 2584 770 2862 
Q 544 3141 544 3541 
Q 544 4100 942 4425 
Q 1341 4750 2034 4750 
Q 2731 4750 3128 4425 
Q 3525 4100 3525 3541 
Q 3525 3141 3298 2862 
Q 3072 2584 2669 2484 
Q 3125 2378 3379 2068 
Q 3634 1759 3634 1313 
Q 3634 634 3220 271 
Q 2806 -91 2034 -91 
Q 1263 -91 848 271 
Q 434 634 434 1313 
Q 434 1759 690 2068 
Q 947 2378 1403 2484 
z
M 1172 3481 
Q 1172 3119 1398 2916 
Q 1625 2713 2034 2713 
Q 2441 2713 2670 2916 
Q 2900 3119 2900 3481 
Q 2900 3844 2670 4047 
Q 2441 4250 2034 4250 
Q 1625 4250 1398 4047 
Q 1172 3844 1172 3481 
z
" transform="scale(0.015625)"/>
       </defs>
       <use xlink:href="#DejaVuSans-30"/>
       <use xlink:href="#DejaVuSans-2e" transform="translate(63.623047 0)"/>
       <use xlink:href="#DejaVuSans-38" transform="translate(95.410156 0)"/>
       <use xlink:href="#DejaVuSans-30" transform="translate(159.033203 0)"/>
      </g>
     </g>
    </g>
    <g id="xtick_9">
     <g id="line2d_9">
      <g>
       <use xlink:href="#mbd602b5641" x="561.866948" y="398.64351" style="stroke: #000000; stroke-width: 0.8"/>
      </g>
     </g>
     <g id="text_9">
      <!-- 1.00 -->
      <g transform="translate(550.734135 413.241947) scale(0.1 -0.1)">
       <defs>
        <path id="DejaVuSans-31" d="M 794 531 
L 1825 531 
L 1825 4091 
L 703 3866 
L 703 4441 
L 1819 4666 
L 2450 4666 
L 2450 531 
L 3481 531 
L 3481 0 
L 794 0 
L 794 531 
z
" transform="scale(0.015625)"/>
       </defs>
       <use xlink:href="#DejaVuSans-31"/>
       <use xlink:href="#DejaVuSans-2e" transform="translate(63.623047 0)"/>
       <use xlink:href="#DejaVuSans-30" transform="translate(95.410156 0)"/>
       <use xlink:href="#DejaVuSans-30" transform="translate(159.033203 0)"/>
      </g>
     </g>
    </g>
    <g id="text_10">
     <!-- Time (s) -->
     <g transform="translate(279.814844 426.920073) scale(0.1 -0.1)">
      <defs>
       <path id="DejaVuSans-54" d="M -19 4666 
L 3928 4666 
L 3928 4134 
L 2272 4134 
L 2272 0 
L 1638 0 
L 1638 4134 
L -19 4134 
L -19 4666 
z
" transform="scale(0.015625)"/>
       <path id="DejaVuSans-69" d="M 603 3500 
L 1178 3500 
L 1178 0 
L 603 0 
L 603 3500 
z
M 603 4863 
L 1178 4863 
L 1178 4134 
L 603 4134 
L 603 4863 
z
" transform="scale(0.015625)"/>
       <path id="DejaVuSans-6d" d="M 3328 2828 
Q 3544 3216 3844 3400 
Q 4144 3584 4550 3584 
Q 5097 3584 5394 3201 
Q 5691 2819 5691 2113 
L 5691 0 
L 5113 0 
L 5113 2094 
Q 5113 2597 4934 2840 
Q 4756 3084 4391 3084 
Q 3944 3084 3684 2787 
Q 3425 2491 3425 1978 
L 3425 0 
L 2847 0 
L 2847 2094 
Q 2847 2600 2669 2842 
Q 2491 3084 2119 3084 
Q 1678 3084 1418 2786 
Q 1159 2488 1159 1978 
L 1159 0 
L 581 0 
L 581 3500 
L 1159 3500 
L 1159 2956 
Q 1356 3278 1631 3431 
Q 1906 3584 2284 3584 
Q 2666 3584 2933 3390 
Q 3200 3197 3328 2828 
z
" transform="scale(0.015625)"/>
       <path id="DejaVuSans-65" d="M 3597 1894 
L 3597 1613 
L 953 1613 
Q 991 1019 1311 708 
Q 1631 397 2203 397 
Q 2534 397 2845 478 
Q 3156 559 3463 722 
L 3463 178 
Q 3153 47 2828 -22 
Q 2503 -91 2169 -91 
Q 1331 -91 842 396 
Q 353 884 353 1716 
Q 353 2575 817 3079 
Q 1281 3584 2069 3584 
Q 2775 3584 3186 3129 
Q 3597 2675 3597 1894 
z
M 3022 2063 
Q 3016 2534 2758 2815 
Q 2500 3097 2075 3097 
Q 1594 3097 1305 2825 
Q 1016 2553 972 2059 
L 3022 2063 
z
" transform="scale(0.015625)"/>
       <path id="DejaVuSans-20" transform="scale(0.015625)"/>
       <path id="DejaVuSans-28" d="M 1984 4856 
Q 1566 4138 1362 3434 
Q 1159 2731 1159 2009 
Q 1159 1288 1364 580 
Q 1569 -128 1984 -844 
L 1484 -844 
Q 1016 -109 783 600 
Q 550 1309 550 2009 
Q 550 2706 781 3412 
Q 1013 4119 1484 4856 
L 1984 4856 
z
" transform="scale(0.015625)"/>
       <path id="DejaVuSans-73" d="M 2834 3397 
L 2834 2853 
Q 2591 2978 2328 3040 
Q 2066 3103 1784 3103 
Q 1356 3103 1142 2972 
Q 928 2841 928 2578 
Q 928 2378 1081 2264 
Q 1234 2150 1697 2047 
L 1894 2003 
Q 2506 1872 2764 1633 
Q 3022 1394 3022 966 
Q 3022 478 2636 193 
Q 2250 -91 1575 -91 
Q 1294 -91 989 -36 
Q 684 19 347 128 
L 347 722 
Q 666 556 975 473 
Q 1284 391 1588 391 
Q 1994 391 2212 530 
Q 2431 669 2431 922 
Q 2431 1156 2273 1281 
Q 2116 1406 1581 1522 
L 1381 1569 
Q 847 1681 609 1914 
Q 372 2147 372 2553 
Q 372 3047 722 3315 
Q 1072 3584 1716 3584 
Q 2034 3584 2315 3537 
Q 2597 3491 2834 3397 
z
" transform="scale(0.015625)"/>
       <path id="DejaVuSans-29" d="M 513 4856 
L 1013 4856 
Q 1481 4119 1714 3412 
Q 1947 2706 1947 2009 
Q 1947 1309 1714 600 
Q 1481 -109 1013 -844 
L 513 -844 
Q 928 -128 1133 580 
Q 1338 1288 1338 2009 
Q 1338 2731 1133 3434 
Q 928 4138 513 4856 
z
" transform="scale(0.015625)"/>
      </defs>
      <use xlink:href="#DejaVuSans-54"/>
      <use xlink:href="#DejaVuSans-69" transform="translate(57.958984 0)"/>
      <use xlink:href="#DejaVuSans-6d" transform="translate(85.742188 0)"/>
      <use xlink:href="#DejaVuSans-65" transform="translate(183.154297 0)"/>
      <use xlink:href="#DejaVuSans-20" transform="translate(244.677734 0)"/>
      <use xlink:href="#DejaVuSans-28" transform="translate(276.464844 0)"/>
      <use xlink:href="#DejaVuSans-73" transform="translate(315.478516 0)"/>
      <use xlink:href="#DejaVuSans-29" transform="translate(367.578125 0)"/>
     </g>
    </g>
   </g>
   <g id="matplotlib.axis_2">
    <g id="ytick_1">
     <g id="line2d_10">
      <defs>
       <path id="ma782dcdda2" d="M 0 0 
L -3.5 0 
" style="stroke: #000000; stroke-width: 0.8"/>
      </defs>
      <g>
       <use xlink:href="#ma782dcdda2" x="38.420552" y="364.061018" style="stroke: #000000; stroke-width: 0.8"/>
      </g>
     </g>
     <g id="text_11">
      <!-- −4 -->
      <g transform="translate(16.678365 367.860237) scale(0.1 -0.1)">
       <use xlink:href="#DejaVuSans-2212"/>
       <use xlink:href="#DejaVuSans-34" transform="translate(83.789062 0)"/>
      </g>
     </g>
    </g>
    <g id="ytick_2">
     <g id="line2d_11">
      <g>
       <use xlink:href="#ma782dcdda2" x="38.420552" y="286.220978" style="stroke: #000000; stroke-width: 0.8"/>
      </g>
     </g>
     <g id="text_12">
      <!-- −2 -->
      <g transform="translate(16.678365 290.020197) scale(0.1 -0.1)">
       <use xlink:href="#DejaVuSans-2212"/>
       <use xlink:href="#DejaVuSans-32" transform="translate(83.789062 0)"/>
      </g>
     </g>
    </g>
    <g id="ytick_3">
     <g id="line2d_12">
      <g>
       <use xlink:href="#ma782dcdda2" x="38.420552" y="208.380937" style="stroke: #000000; stroke-width: 0.8"/>
      </g>
     </g>
     <g id="text_13">
      <!-- 0 -->
      <g transform="translate(25.058052 212.180156) scale(0.1 -0.1)">
       <use xlink:href="#DejaVuSans-30"/>
      </g>
     </g>
    </g>
    <g id="ytick_4">
     <g id="line2d_13">
      <g>
       <use xlink:href="#ma782dcdda2" x="38.420552" y="130.540897" style="stroke: #000000; stroke-width: 0.8"/>
      </g>
     </g>
     <g id="text_14">
      <!-- 2 -->
      <g transform="translate(25.058052 134.340116) scale(0.1 -0.1)">
       <use xlink:href="#DejaVuSans-32"/>
      </g>
     </g>
    </g>
    <g id="ytick_5">
     <g id="line2d_14">
      <g>
       <use xlink:href="#ma782dcdda2" x="38.420552" y="52.700857" style="stroke: #000000; stroke-width: 0.8"/>
      </g>
     </g>
     <g id="text_15">
      <!-- 4 -->
      <g transform="translate(25.058052 56.500075) scale(0.1 -0.1)">
       <use xlink:href="#DejaVuSans-34"/>
      </g>
     </g>
    </g>
    <g id="text_16">
     <!-- µV -->
     <g transform="translate(10.598677 214.9825) rotate(-90) scale(0.1 -0.1)">
      <defs>
       <path id="DejaVuSans-b5" d="M 544 -1331 
L 544 3500 
L 1119 3500 
L 1119 1325 
Q 1119 872 1334 640 
Q 1550 409 1972 409 
Q 2434 409 2667 671 
Q 2900 934 2900 1459 
L 2900 3500 
L 3475 3500 
L 3475 806 
Q 3475 619 3529 530 
Q 3584 441 3700 441 
Q 3728 441 3778 458 
Q 3828 475 3916 513 
L 3916 50 
Q 3788 -22 3673 -56 
Q 3559 -91 3450 -91 
Q 3234 -91 3106 31 
Q 2978 153 2931 403 
Q 2775 156 2548 32 
Q 2322 -91 2016 -91 
Q 1697 -91 1473 31 
Q 1250 153 1119 397 
L 1119 -1331 
L 544 -1331 
z
" transform="scale(0.015625)"/>
       <path id="DejaVuSans-56" d="M 1831 0 
L 50 4666 
L 709 4666 
L 2188 738 
L 3669 4666 
L 4325 4666 
L 2547 0 
L 1831 0 
z
" transform="scale(0.015625)"/>
      </defs>
      <use xlink:href="#DejaVuSans-b5"/>
      <use xlink:href="#DejaVuSans-56" transform="translate(63.623047 0)"/>
     </g>
    </g>
   </g>
   <g id="patch_4">
    <path d="M 38.693039 398.64351 
L 561.866948 398.64351 
" style="fill: none; stroke: #000000; stroke-width: 0.8; stroke-linejoin: miter; stroke-linecap: square"/>
   </g>
   <g id="patch_5">
    <path d="M 38.420552 208.380937 
L 561.866948 208.380937 
" style="fill: none; stroke: #000000; stroke-width: 0.8; stroke-linejoin: miter; stroke-linecap: square"/>
   </g>
   <g id="text_17">
    <!-- CPz, CP4, CP3, Pz, P4, P3 (median) -->
    <g transform="translate(196.150625 12.118365) scale(0.12 -0.12)">
     <defs>
      <path id="DejaVuSans-43" d="M 4122 4306 
L 4122 3641 
Q 3803 3938 3442 4084 
Q 3081 4231 2675 4231 
Q 1875 4231 1450 3742 
Q 1025 3253 1025 2328 
Q 1025 1406 1450 917 
Q 1875 428 2675 428 
Q 3081 428 3442 575 
Q 3803 722 4122 1019 
L 4122 359 
Q 3791 134 3420 21 
Q 3050 -91 2638 -91 
Q 1578 -91 968 557 
Q 359 1206 359 2328 
Q 359 3453 968 4101 
Q 1578 4750 2638 4750 
Q 3056 4750 3426 4639 
Q 3797 4528 4122 4306 
z
" transform="scale(0.015625)"/>
      <path id="DejaVuSans-50" d="M 1259 4147 
L 1259 2394 
L 2053 2394 
Q 2494 2394 2734 2622 
Q 2975 2850 2975 3272 
Q 2975 3691 2734 3919 
Q 2494 4147 2053 4147 
L 1259 4147 
z
M 628 4666 
L 2053 4666 
Q 2838 4666 3239 4311 
Q 3641 3956 3641 3272 
Q 3641 2581 3239 2228 
Q 2838 1875 2053 1875 
L 1259 1875 
L 1259 0 
L 628 0 
L 628 4666 
z
" transform="scale(0.015625)"/>
      <path id="DejaVuSans-7a" d="M 353 3500 
L 3084 3500 
L 3084 2975 
L 922 459 
L 3084 459 
L 3084 0 
L 275 0 
L 275 525 
L 2438 3041 
L 353 3041 
L 353 3500 
z
" transform="scale(0.015625)"/>
      <path id="DejaVuSans-2c" d="M 750 794 
L 1409 794 
L 1409 256 
L 897 -744 
L 494 -744 
L 750 256 
L 750 794 
z
" transform="scale(0.015625)"/>
      <path id="DejaVuSans-64" d="M 2906 2969 
L 2906 4863 
L 3481 4863 
L 3481 0 
L 2906 0 
L 2906 525 
Q 2725 213 2448 61 
Q 2172 -91 1784 -91 
Q 1150 -91 751 415 
Q 353 922 353 1747 
Q 353 2572 751 3078 
Q 1150 3584 1784 3584 
Q 2172 3584 2448 3432 
Q 2725 3281 2906 2969 
z
M 947 1747 
Q 947 1113 1208 752 
Q 1469 391 1925 391 
Q 2381 391 2643 752 
Q 2906 1113 2906 1747 
Q 2906 2381 2643 2742 
Q 2381 3103 1925 3103 
Q 1469 3103 1208 2742 
Q 947 2381 947 1747 
z
" transform="scale(0.015625)"/>
      <path id="DejaVuSans-61" d="M 2194 1759 
Q 1497 1759 1228 1600 
Q 959 1441 959 1056 
Q 959 750 1161 570 
Q 1363 391 1709 391 
Q 2188 391 2477 730 
Q 2766 1069 2766 1631 
L 2766 1759 
L 2194 1759 
z
M 3341 1997 
L 3341 0 
L 2766 0 
L 2766 531 
Q 2569 213 2275 61 
Q 1981 -91 1556 -91 
Q 1019 -91 701 211 
Q 384 513 384 1019 
Q 384 1609 779 1909 
Q 1175 2209 1959 2209 
L 2766 2209 
L 2766 2266 
Q 2766 2663 2505 2880 
Q 2244 3097 1772 3097 
Q 1472 3097 1187 3025 
Q 903 2953 641 2809 
L 641 3341 
Q 956 3463 1253 3523 
Q 1550 3584 1831 3584 
Q 2591 3584 2966 3190 
Q 3341 2797 3341 1997 
z
" transform="scale(0.015625)"/>
      <path id="DejaVuSans-6e" d="M 3513 2113 
L 3513 0 
L 2938 0 
L 2938 2094 
Q 2938 2591 2744 2837 
Q 2550 3084 2163 3084 
Q 1697 3084 1428 2787 
Q 1159 2491 1159 1978 
L 1159 0 
L 581 0 
L 581 3500 
L 1159 3500 
L 1159 2956 
Q 1366 3272 1645 3428 
Q 1925 3584 2291 3584 
Q 2894 3584 3203 3211 
Q 3513 2838 3513 2113 
z
" transform="scale(0.015625)"/>
     </defs>
     <use xlink:href="#DejaVuSans-43"/>
     <use xlink:href="#DejaVuSans-50" transform="translate(69.824219 0)"/>
     <use xlink:href="#DejaVuSans-7a" transform="translate(130.126953 0)"/>
     <use xlink:href="#DejaVuSans-2c" transform="translate(182.617188 0)"/>
     <use xlink:href="#DejaVuSans-20" transform="translate(214.404297 0)"/>
     <use xlink:href="#DejaVuSans-43" transform="translate(246.191406 0)"/>
     <use xlink:href="#DejaVuSans-50" transform="translate(316.015625 0)"/>
     <use xlink:href="#DejaVuSans-34" transform="translate(376.318359 0)"/>
     <use xlink:href="#DejaVuSans-2c" transform="translate(439.941406 0)"/>
     <use xlink:href="#DejaVuSans-20" transform="translate(471.728516 0)"/>
     <use xlink:href="#DejaVuSans-43" transform="translate(503.515625 0)"/>
     <use xlink:href="#DejaVuSans-50" transform="translate(573.339844 0)"/>
     <use xlink:href="#DejaVuSans-33" transform="translate(633.642578 0)"/>
     <use xlink:href="#DejaVuSans-2c" transform="translate(697.265625 0)"/>
     <use xlink:href="#DejaVuSans-20" transform="translate(729.052734 0)"/>
     <use xlink:href="#DejaVuSans-50" transform="translate(760.839844 0)"/>
     <use xlink:href="#DejaVuSans-7a" transform="translate(821.142578 0)"/>
     <use xlink:href="#DejaVuSans-2c" transform="translate(873.632812 0)"/>
     <use xlink:href="#DejaVuSans-20" transform="translate(905.419922 0)"/>
     <use xlink:href="#DejaVuSans-50" transform="translate(937.207031 0)"/>
     <use xlink:href="#DejaVuSans-34" transform="translate(997.509766 0)"/>
     <use xlink:href="#DejaVuSans-2c" transform="translate(1061.132812 0)"/>
     <use xlink:href="#DejaVuSans-20" transform="translate(1092.919922 0)"/>
     <use xlink:href="#DejaVuSans-50" transform="translate(1124.707031 0)"/>
     <use xlink:href="#DejaVuSans-33" transform="translate(1185.009766 0)"/>
     <use xlink:href="#DejaVuSans-20" transform="translate(1248.632812 0)"/>
     <use xlink:href="#DejaVuSans-28" transform="translate(1280.419922 0)"/>
     <use xlink:href="#DejaVuSans-6d" transform="translate(1319.433594 0)"/>
     <use xlink:href="#DejaVuSans-65" transform="translate(1416.845703 0)"/>
     <use xlink:href="#DejaVuSans-64" transform="translate(1478.369141 0)"/>
     <use xlink:href="#DejaVuSans-69" transform="translate(1541.845703 0)"/>
     <use xlink:href="#DejaVuSans-61" transform="translate(1569.628906 0)"/>
     <use xlink:href="#DejaVuSans-6e" transform="translate(1630.908203 0)"/>
     <use xlink:href="#DejaVuSans-29" transform="translate(1694.287109 0)"/>
    </g>
   </g>
   <g id="legend_1">
    <g id="patch_6">
     <path d="M 45.420552 55.75274 
L 126.56274 55.75274 
Q 128.56274 55.75274 128.56274 53.75274 
L 128.56274 25.118365 
Q 128.56274 23.118365 126.56274 23.118365 
L 45.420552 23.118365 
Q 43.420552 23.118365 43.420552 25.118365 
L 43.420552 53.75274 
Q 43.420552 55.75274 45.420552 55.75274 
z
" style="fill: #ffffff; opacity: 0.8; stroke: #cccccc; stroke-linejoin: miter"/>
    </g>
    <g id="line2d_15">
     <path d="M 47.420552 31.216803 
L 57.420552 31.216803 
L 67.420552 31.216803 
" style="fill: none; stroke: #1f77b4; stroke-width: 1.5; stroke-linecap: square"/>
    </g>
    <g id="text_18">
     <!-- eerie -->
     <g transform="translate(75.420552 34.716803) scale(0.1 -0.1)">
      <defs>
       <path id="DejaVuSans-72" d="M 2631 2963 
Q 2534 3019 2420 3045 
Q 2306 3072 2169 3072 
Q 1681 3072 1420 2755 
Q 1159 2438 1159 1844 
L 1159 0 
L 581 0 
L 581 3500 
L 1159 3500 
L 1159 2956 
Q 1341 3275 1631 3429 
Q 1922 3584 2338 3584 
Q 2397 3584 2469 3576 
Q 2541 3569 2628 3553 
L 2631 2963 
z
" transform="scale(0.015625)"/>
      </defs>
      <use xlink:href="#DejaVuSans-65"/>
      <use xlink:href="#DejaVuSans-65" transform="translate(61.523438 0)"/>
      <use xlink:href="#DejaVuSans-72" transform="translate(123.046875 0)"/>
      <use xlink:href="#DejaVuSans-69" transform="translate(164.160156 0)"/>
      <use xlink:href="#DejaVuSans-65" transform="translate(191.943359 0)"/>
     </g>
    </g>
    <g id="line2d_16">
     <path d="M 47.420552 45.894928 
L 57.420552 45.894928 
L 67.420552 45.894928 
" style="fill: none; stroke: #ff7f0e; stroke-width: 1.5; stroke-linecap: square"/>
    </g>
    <g id="text_19">
     <!-- non_eerie -->
     <g transform="translate(75.420552 49.394928) scale(0.1 -0.1)">
      <defs>
       <path id="DejaVuSans-6f" d="M 1959 3097 
Q 1497 3097 1228 2736 
Q 959 2375 959 1747 
Q 959 1119 1226 758 
Q 1494 397 1959 397 
Q 2419 397 2687 759 
Q 2956 1122 2956 1747 
Q 2956 2369 2687 2733 
Q 2419 3097 1959 3097 
z
M 1959 3584 
Q 2709 3584 3137 3096 
Q 3566 2609 3566 1747 
Q 3566 888 3137 398 
Q 2709 -91 1959 -91 
Q 1206 -91 779 398 
Q 353 888 353 1747 
Q 353 2609 779 3096 
Q 1206 3584 1959 3584 
z
" transform="scale(0.015625)"/>
       <path id="DejaVuSans-5f" d="M 3263 -1063 
L 3263 -1509 
L -63 -1509 
L -63 -1063 
L 3263 -1063 
z
" transform="scale(0.015625)"/>
      </defs>
      <use xlink:href="#DejaVuSans-6e"/>
      <use xlink:href="#DejaVuSans-6f" transform="translate(63.378906 0)"/>
      <use xlink:href="#DejaVuSans-6e" transform="translate(124.560547 0)"/>
      <use xlink:href="#DejaVuSans-5f" transform="translate(187.939453 0)"/>
      <use xlink:href="#DejaVuSans-65" transform="translate(237.939453 0)"/>
      <use xlink:href="#DejaVuSans-65" transform="translate(299.462891 0)"/>
      <use xlink:href="#DejaVuSans-72" transform="translate(360.986328 0)"/>
      <use xlink:href="#DejaVuSans-69" transform="translate(402.099609 0)"/>
      <use xlink:href="#DejaVuSans-65" transform="translate(429.882812 0)"/>
     </g>
    </g>
   </g>
   <g id="FillBetweenPolyCollection_1">
    <defs>
     <path id="m3d74140387" d="M 38.420552 -230.261317 
L 38.420552 -211.100453 
L 40.123593 -224.320593 
L 41.826633 -235.802602 
L 43.529673 -240.149907 
L 45.232713 -236.068468 
L 46.935753 -226.039905 
L 48.638793 -213.811042 
L 50.341833 -203.522298 
L 52.044873 -199.873543 
L 53.747913 -203.817795 
L 55.450953 -212.759467 
L 57.153993 -224.180557 
L 58.857033 -232.485189 
L 60.560073 -233.809291 
L 62.263113 -228.072202 
L 63.966154 -218.109239 
L 65.669194 -209.891326 
L 67.372234 -206.927103 
L 69.075274 -210.805808 
L 70.778314 -218.835494 
L 72.481354 -227.158416 
L 74.184394 -231.06426 
L 75.887434 -225.592196 
L 77.590474 -212.967777 
L 79.293514 -198.988341 
L 80.996554 -189.027876 
L 82.699594 -186.418548 
L 84.402634 -189.974655 
L 86.105674 -198.963254 
L 87.808714 -209.026373 
L 89.511755 -216.083761 
L 91.214795 -221.281704 
L 92.917835 -224.944493 
L 94.620875 -226.953859 
L 96.323915 -225.783071 
L 98.026955 -221.976566 
L 99.729995 -217.554332 
L 101.433035 -214.871283 
L 103.136075 -217.768451 
L 104.839115 -225.448185 
L 106.542155 -234.719425 
L 108.245195 -239.364759 
L 109.948235 -235.110157 
L 111.651275 -221.309111 
L 113.354315 -205.201402 
L 115.057356 -194.349978 
L 116.760396 -191.569772 
L 118.463436 -197.325123 
L 120.166476 -207.947374 
L 121.869516 -214.852226 
L 123.572556 -216.094817 
L 125.275596 -214.748115 
L 126.978636 -213.934932 
L 128.681676 -217.403333 
L 130.384716 -225.783011 
L 132.087756 -234.946255 
L 133.790796 -237.687031 
L 135.493836 -231.131638 
L 137.196876 -216.681488 
L 138.899916 -200.020472 
L 140.602957 -187.420335 
L 142.305997 -180.977467 
L 144.009037 -180.231397 
L 145.712077 -182.418778 
L 147.415117 -183.211269 
L 149.118157 -180.288431 
L 150.821197 -172.061352 
L 152.524237 -161.501353 
L 154.227277 -152.087554 
L 155.930317 -147.160977 
L 157.633357 -149.019471 
L 159.336397 -158.55479 
L 161.039437 -174.118773 
L 162.742477 -190.460066 
L 164.445517 -203.272821 
L 166.148558 -208.834609 
L 167.851598 -207.305514 
L 169.554638 -202.272625 
L 171.257678 -198.142808 
L 172.960718 -201.536509 
L 174.663758 -213.052319 
L 176.366798 -230.731981 
L 178.069838 -246.656272 
L 179.772878 -255.723644 
L 181.475918 -256.085425 
L 183.178958 -250.967138 
L 184.881998 -247.925874 
L 186.585038 -250.797551 
L 188.288078 -260.621878 
L 189.991118 -275.456049 
L 191.694159 -289.679094 
L 193.397199 -300.632387 
L 195.100239 -307.65142 
L 196.803279 -311.484156 
L 198.506319 -314.276358 
L 200.209359 -316.979836 
L 201.912399 -319.896554 
L 203.615439 -322.368285 
L 205.318479 -326.47325 
L 207.021519 -331.912587 
L 208.724559 -336.499645 
L 210.427599 -340.513756 
L 212.130639 -340.511325 
L 213.833679 -336.91395 
L 215.536719 -331.290027 
L 217.23976 -325.836658 
L 218.9428 -323.033154 
L 220.64584 -322.872652 
L 222.34888 -323.986316 
L 224.05192 -321.807751 
L 225.75496 -315.355753 
L 227.458 -305.009213 
L 229.16104 -292.389354 
L 230.86408 -282.286191 
L 232.56712 -275.694483 
L 234.27016 -274.563996 
L 235.9732 -277.798709 
L 237.67624 -282.045063 
L 239.37928 -283.528018 
L 241.08232 -280.39846 
L 242.785361 -272.625964 
L 244.488401 -260.563011 
L 246.191441 -248.331168 
L 247.894481 -238.236251 
L 249.597521 -234.796048 
L 251.300561 -237.844062 
L 253.003601 -246.597101 
L 254.706641 -257.23889 
L 256.409681 -267.295658 
L 258.112721 -274.925306 
L 259.815761 -284.421568 
L 261.518801 -296.307575 
L 263.221841 -309.862514 
L 264.924881 -325.400349 
L 266.627921 -340.655187 
L 268.330962 -353.277384 
L 270.034002 -361.670979 
L 271.737042 -366.624273 
L 273.440082 -369.696578 
L 275.143122 -374.258699 
L 276.846162 -380.217712 
L 278.549202 -384.332339 
L 280.252242 -383.895364 
L 281.955282 -377.904423 
L 283.658322 -368.889157 
L 285.361362 -360.653758 
L 287.064402 -356.087421 
L 288.767442 -354.842942 
L 290.470482 -355.243534 
L 292.173522 -353.163327 
L 293.876563 -347.054497 
L 295.579603 -337.418704 
L 297.282643 -326.434898 
L 298.985683 -317.158427 
L 300.688723 -309.643193 
L 302.391763 -302.958699 
L 304.094803 -296.257687 
L 305.797843 -290.803712 
L 307.500883 -288.920696 
L 309.203923 -293.182243 
L 310.906963 -302.989356 
L 312.610003 -315.086211 
L 314.313043 -322.258646 
L 316.016083 -321.761361 
L 317.719123 -313.94035 
L 319.422164 -302.403032 
L 321.125204 -291.498687 
L 322.828244 -284.309362 
L 324.531284 -281.504335 
L 326.234324 -280.070777 
L 327.937364 -277.922779 
L 329.640404 -273.551998 
L 331.343444 -267.857732 
L 333.046484 -259.89364 
L 334.749524 -250.071687 
L 336.452564 -240.815852 
L 338.155604 -234.2705 
L 339.858644 -232.527879 
L 341.561684 -235.646967 
L 343.264724 -242.885587 
L 344.967765 -251.379327 
L 346.670805 -257.121961 
L 348.373845 -258.34568 
L 350.076885 -256.758906 
L 351.779925 -256.04506 
L 353.482965 -258.488261 
L 355.186005 -264.41401 
L 356.889045 -270.360459 
L 358.592085 -275.361067 
L 360.295125 -277.553881 
L 361.998165 -277.122698 
L 363.701205 -275.817474 
L 365.404245 -275.182173 
L 367.107285 -274.495689 
L 368.810326 -274.032808 
L 370.513366 -273.048373 
L 372.216406 -273.30333 
L 373.919446 -275.54944 
L 375.622486 -279.780482 
L 377.325526 -285.191334 
L 379.028566 -287.541072 
L 380.731606 -284.045844 
L 382.434646 -276.158853 
L 384.137686 -267.065332 
L 385.840726 -262.157338 
L 387.543766 -262.729152 
L 389.246806 -268.809901 
L 390.949846 -276.450764 
L 392.652886 -282.300441 
L 394.355927 -285.725894 
L 396.058967 -285.182278 
L 397.762007 -283.267979 
L 399.465047 -280.934413 
L 401.168087 -276.301601 
L 402.871127 -269.602569 
L 404.574167 -261.321649 
L 406.277207 -253.273621 
L 407.980247 -248.84373 
L 409.683287 -248.7899 
L 411.386327 -253.473089 
L 413.089367 -258.60194 
L 414.792407 -260.680613 
L 416.495447 -260.181099 
L 418.198487 -259.023933 
L 419.901528 -258.745699 
L 421.604568 -259.918505 
L 423.307608 -261.000021 
L 425.010648 -259.380817 
L 426.713688 -253.573063 
L 428.416728 -243.453973 
L 430.119768 -232.180683 
L 431.822808 -223.629906 
L 433.525848 -220.563646 
L 435.228888 -221.848004 
L 436.931928 -223.696899 
L 438.634968 -223.981839 
L 440.338008 -223.014197 
L 442.041048 -222.480355 
L 443.744088 -225.063247 
L 445.447129 -232.05958 
L 447.150169 -242.46536 
L 448.853209 -252.628915 
L 450.556249 -259.418753 
L 452.259289 -260.596928 
L 453.962329 -256.514452 
L 455.665369 -249.485384 
L 457.368409 -243.561224 
L 459.071449 -241.221835 
L 460.774489 -242.707285 
L 462.477529 -245.557367 
L 464.180569 -244.719785 
L 465.883609 -238.286472 
L 467.586649 -225.520562 
L 469.289689 -211.917256 
L 470.99273 -204.503445 
L 472.69577 -207.907681 
L 474.39881 -219.852353 
L 476.10185 -233.166064 
L 477.80489 -239.169417 
L 479.50793 -233.91087 
L 481.21097 -221.096798 
L 482.91401 -208.175165 
L 484.61705 -203.757176 
L 486.32009 -212.485163 
L 488.02313 -230.230233 
L 489.72617 -247.271097 
L 491.42921 -255.31116 
L 493.13225 -252.022962 
L 494.83529 -241.732176 
L 496.538331 -230.56568 
L 498.241371 -224.462923 
L 499.944411 -224.360831 
L 501.647451 -226.035223 
L 503.350491 -225.622268 
L 505.053531 -221.590774 
L 506.756571 -217.495913 
L 508.459611 -216.963659 
L 510.162651 -222.745822 
L 511.865691 -232.91505 
L 513.568731 -241.967356 
L 515.271771 -244.869607 
L 516.974811 -240.230334 
L 518.677851 -231.124041 
L 520.380891 -222.496939 
L 522.083932 -217.992925 
L 523.786972 -217.476392 
L 525.490012 -219.503457 
L 527.193052 -220.214442 
L 528.896092 -217.424316 
L 530.599132 -211.387644 
L 532.302172 -204.282297 
L 534.005212 -201.069273 
L 535.708252 -202.728322 
L 537.411292 -207.188971 
L 539.114332 -210.127155 
L 540.817372 -210.505916 
L 542.520412 -207.947347 
L 544.223452 -203.722928 
L 545.926492 -200.47401 
L 547.629533 -199.965519 
L 549.332573 -202.313686 
L 551.035613 -204.232122 
L 552.738653 -203.333334 
L 554.441693 -198.476664 
L 556.144733 -191.18993 
L 557.847773 -183.082586 
L 559.550813 -177.925553 
L 561.253853 -176.700078 
L 561.253853 -209.035878 
L 561.253853 -209.035878 
L 559.550813 -209.871964 
L 557.847773 -214.338692 
L 556.144733 -221.508489 
L 554.441693 -229.033174 
L 552.738653 -234.452001 
L 551.035613 -235.067844 
L 549.332573 -231.687928 
L 547.629533 -228.569053 
L 545.926492 -228.198784 
L 544.223452 -231.396841 
L 542.520412 -236.576541 
L 540.817372 -239.985461 
L 539.114332 -240.066085 
L 537.411292 -236.809673 
L 535.708252 -232.571526 
L 534.005212 -230.840775 
L 532.302172 -234.405538 
L 530.599132 -241.353166 
L 528.896092 -247.729561 
L 527.193052 -250.779044 
L 525.490012 -249.412917 
L 523.786972 -246.733692 
L 522.083932 -246.607971 
L 520.380891 -251.095425 
L 518.677851 -259.61951 
L 516.974811 -268.222257 
L 515.271771 -272.482844 
L 513.568731 -269.408891 
L 511.865691 -261.052049 
L 510.162651 -251.191522 
L 508.459611 -245.054742 
L 506.756571 -245.206094 
L 505.053531 -249.7592 
L 503.350491 -253.964022 
L 501.647451 -255.229009 
L 499.944411 -254.102052 
L 498.241371 -255.451587 
L 496.538331 -262.871322 
L 494.83529 -274.355623 
L 493.13225 -283.914279 
L 491.42921 -285.887169 
L 489.72617 -277.027344 
L 488.02313 -259.56686 
L 486.32009 -242.093399 
L 484.61705 -233.81809 
L 482.91401 -238.880539 
L 481.21097 -252.425573 
L 479.50793 -265.389241 
L 477.80489 -269.550965 
L 476.10185 -262.40256 
L 474.39881 -249.112645 
L 472.69577 -237.543195 
L 470.99273 -234.983433 
L 469.289689 -242.764108 
L 467.586649 -256.781349 
L 465.883609 -269.718549 
L 464.180569 -276.803716 
L 462.477529 -277.045158 
L 460.774489 -273.904752 
L 459.071449 -272.688712 
L 457.368409 -275.727548 
L 455.665369 -281.937707 
L 453.962329 -288.349056 
L 452.259289 -292.458607 
L 450.556249 -290.88694 
L 448.853209 -283.592905 
L 447.150169 -273.720615 
L 445.447129 -263.901559 
L 443.744088 -257.42155 
L 442.041048 -255.663788 
L 440.338008 -257.053346 
L 438.634968 -259.569907 
L 436.931928 -260.174699 
L 435.228888 -258.734706 
L 433.525848 -257.204527 
L 431.822808 -259.50492 
L 430.119768 -266.694066 
L 428.416728 -276.116047 
L 426.713688 -285.386551 
L 425.010648 -290.397481 
L 423.307608 -291.414802 
L 421.604568 -290.445404 
L 419.901528 -289.323636 
L 418.198487 -290.232766 
L 416.495447 -292.492935 
L 414.792407 -293.409335 
L 413.089367 -292.105732 
L 411.386327 -288.037001 
L 409.683287 -283.251237 
L 407.980247 -281.81555 
L 406.277207 -286.007762 
L 404.574167 -293.303754 
L 402.871127 -301.538899 
L 401.168087 -308.744297 
L 399.465047 -312.893849 
L 397.762007 -315.943283 
L 396.058967 -318.210246 
L 394.355927 -319.019349 
L 392.652886 -316.537681 
L 390.949846 -310.072225 
L 389.246806 -302.44865 
L 387.543766 -296.320849 
L 385.840726 -295.125663 
L 384.137686 -299.860179 
L 382.434646 -308.564543 
L 380.731606 -316.606902 
L 379.028566 -320.28307 
L 377.325526 -318.661323 
L 375.622486 -314.112667 
L 373.919446 -310.151424 
L 372.216406 -308.419745 
L 370.513366 -307.776118 
L 368.810326 -307.225838 
L 367.107285 -306.202363 
L 365.404245 -304.325967 
L 363.701205 -303.171794 
L 361.998165 -304.885639 
L 360.295125 -306.318713 
L 358.592085 -305.794543 
L 356.889045 -302.063621 
L 355.186005 -295.836525 
L 353.482965 -289.181888 
L 351.779925 -285.985135 
L 350.076885 -285.380897 
L 348.373845 -285.782307 
L 346.670805 -284.621541 
L 344.967765 -279.073822 
L 343.264724 -270.89439 
L 341.561684 -263.597206 
L 339.858644 -261.410625 
L 338.155604 -263.792412 
L 336.452564 -270.041749 
L 334.749524 -279.01236 
L 333.046484 -288.703592 
L 331.343444 -297.491583 
L 329.640404 -304.067794 
L 327.937364 -308.920695 
L 326.234324 -311.588664 
L 324.531284 -313.108253 
L 322.828244 -315.451151 
L 321.125204 -321.611603 
L 319.422164 -332.285522 
L 317.719123 -343.928432 
L 316.016083 -352.333274 
L 314.313043 -352.706444 
L 312.610003 -345.21135 
L 310.906963 -333.847911 
L 309.203923 -323.674665 
L 307.500883 -318.699169 
L 305.797843 -320.623842 
L 304.094803 -326.465949 
L 302.391763 -333.80396 
L 300.688723 -340.880166 
L 298.985683 -348.200063 
L 297.282643 -357.175024 
L 295.579603 -367.846086 
L 293.876563 -377.562799 
L 292.173522 -383.675449 
L 290.470482 -386.076227 
L 288.767442 -386.596266 
L 287.064402 -387.808245 
L 285.361362 -392.611675 
L 283.658322 -400.779934 
L 281.955282 -408.900398 
L 280.252242 -413.881635 
L 278.549202 -413.421569 
L 276.846162 -409.84786 
L 275.143122 -403.779109 
L 273.440082 -398.955426 
L 271.737042 -395.815453 
L 270.034002 -391.468572 
L 268.330962 -383.448816 
L 266.627921 -371.413504 
L 264.924881 -355.475745 
L 263.221841 -339.925247 
L 261.518801 -326.3269 
L 259.815761 -314.597041 
L 258.112721 -305.11423 
L 256.409681 -296.938469 
L 254.706641 -286.240063 
L 253.003601 -275.106356 
L 251.300561 -265.816617 
L 249.597521 -261.72491 
L 247.894481 -264.813785 
L 246.191441 -274.359551 
L 244.488401 -288.030959 
L 242.785361 -301.188323 
L 241.08232 -310.614948 
L 239.37928 -313.098463 
L 237.67624 -310.775683 
L 235.9732 -305.162116 
L 234.27016 -301.145476 
L 232.56712 -300.901074 
L 230.86408 -306.325869 
L 229.16104 -316.804315 
L 227.458 -330.934326 
L 225.75496 -341.244617 
L 224.05192 -347.258448 
L 222.34888 -350.851774 
L 220.64584 -351.298364 
L 218.9428 -351.85017 
L 217.23976 -354.664075 
L 215.536719 -357.521809 
L 213.833679 -361.393645 
L 212.130639 -363.448024 
L 210.427599 -362.566072 
L 208.724559 -359.381711 
L 207.021519 -354.813061 
L 205.318479 -350.18498 
L 203.615439 -346.179514 
L 201.912399 -343.0599 
L 200.209359 -340.356762 
L 198.506319 -338.445701 
L 196.803279 -336.468108 
L 195.100239 -332.4084 
L 193.397199 -325.406692 
L 191.694159 -314.535699 
L 189.991118 -300.776249 
L 188.288078 -286.774027 
L 186.585038 -275.862381 
L 184.881998 -271.907449 
L 183.178958 -274.26783 
L 181.475918 -278.265599 
L 179.772878 -277.911378 
L 178.069838 -269.335655 
L 176.366798 -254.707483 
L 174.663758 -238.16243 
L 172.960718 -226.314481 
L 171.257678 -221.04508 
L 169.554638 -222.958777 
L 167.851598 -226.624086 
L 166.148558 -227.419021 
L 164.445517 -222.052943 
L 162.742477 -210.542438 
L 161.039437 -196.143377 
L 159.336397 -182.318161 
L 157.633357 -173.804409 
L 155.930317 -170.668931 
L 154.227277 -173.841518 
L 152.524237 -181.160626 
L 150.821197 -190.425869 
L 149.118157 -198.123 
L 147.415117 -200.904282 
L 145.712077 -200.173083 
L 144.009037 -197.479252 
L 142.305997 -197.747545 
L 140.602957 -204.249862 
L 138.899916 -217.38422 
L 137.196876 -234.940959 
L 135.493836 -249.064749 
L 133.790796 -254.855065 
L 132.087756 -252.253394 
L 130.384716 -244.051204 
L 128.681676 -235.342924 
L 126.978636 -231.433127 
L 125.275596 -231.61524 
L 123.572556 -231.839452 
L 121.869516 -229.244534 
L 120.166476 -221.638573 
L 118.463436 -211.10149 
L 116.760396 -205.632579 
L 115.057356 -208.579268 
L 113.354315 -219.571127 
L 111.651275 -235.913044 
L 109.948235 -248.76129 
L 108.245195 -253.29371 
L 106.542155 -249.052167 
L 104.839115 -240.082795 
L 103.136075 -232.702014 
L 101.433035 -229.269293 
L 99.729995 -231.322158 
L 98.026955 -236.228472 
L 96.323915 -240.654736 
L 94.620875 -242.638421 
L 92.917835 -241.026331 
L 91.214795 -236.320184 
L 89.511755 -230.083189 
L 87.808714 -222.377398 
L 86.105674 -212.557137 
L 84.402634 -203.021675 
L 82.699594 -198.316654 
L 80.996554 -200.58456 
L 79.293514 -211.7804 
L 77.590474 -226.529906 
L 75.887434 -238.763231 
L 74.184394 -244.197584 
L 72.481354 -240.87702 
L 70.778314 -231.910867 
L 69.075274 -222.941232 
L 67.372234 -218.705811 
L 65.669194 -222.776766 
L 63.966154 -232.127275 
L 62.263113 -241.588756 
L 60.560073 -246.435232 
L 58.857033 -244.867169 
L 57.153993 -237.753948 
L 55.450953 -227.613961 
L 53.747913 -218.981673 
L 52.044873 -215.636972 
L 50.341833 -220.049188 
L 48.638793 -230.179668 
L 46.935753 -242.990739 
L 45.232713 -253.559789 
L 43.529673 -257.451786 
L 41.826633 -252.841897 
L 40.123593 -242.228916 
L 38.420552 -230.261317 
z
" style="stroke: #1f77b4; stroke-opacity: 0.3"/>
    </defs>
    <g>
     <use xlink:href="#m3d74140387" x="0" y="432" style="fill: #1f77b4; fill-opacity: 0.3; stroke: #1f77b4; stroke-opacity: 0.3"/>
    </g>
   </g>
   <g id="FillBetweenPolyCollection_2">
    <defs>
     <path id="m275d73e839" d="M 38.420552 -258.07279 
L 38.420552 -249.066721 
L 40.123593 -254.061783 
L 41.826633 -259.476302 
L 43.529673 -262.225346 
L 45.232713 -259.433447 
L 46.935753 -252.513686 
L 48.638793 -244.287103 
L 50.341833 -238.876686 
L 52.044873 -238.577222 
L 53.747913 -242.247538 
L 55.450953 -246.881567 
L 57.153993 -248.575073 
L 58.857033 -244.759539 
L 60.560073 -236.5981 
L 62.263113 -227.533222 
L 63.966154 -221.211702 
L 65.669194 -219.784554 
L 67.372234 -221.82999 
L 69.075274 -223.898455 
L 70.778314 -224.042865 
L 72.481354 -221.450949 
L 74.184394 -217.308731 
L 75.887434 -213.266985 
L 77.590474 -211.070986 
L 79.293514 -210.627531 
L 80.996554 -209.931359 
L 82.699594 -208.774252 
L 84.402634 -207.201181 
L 86.105674 -206.690919 
L 87.808714 -207.64486 
L 89.511755 -209.511261 
L 91.214795 -211.325442 
L 92.917835 -212.033313 
L 94.620875 -211.381689 
L 96.323915 -210.965986 
L 98.026955 -211.800182 
L 99.729995 -214.75995 
L 101.433035 -218.045509 
L 103.136075 -220.120991 
L 104.839115 -219.928382 
L 106.542155 -218.2821 
L 108.245195 -216.685428 
L 109.948235 -215.876934 
L 111.651275 -215.97073 
L 113.354315 -214.988602 
L 115.057356 -210.75084 
L 116.760396 -202.537181 
L 118.463436 -192.314736 
L 120.166476 -183.845245 
L 121.869516 -180.17917 
L 123.572556 -182.205131 
L 125.275596 -187.90004 
L 126.978636 -193.644322 
L 128.681676 -196.921125 
L 130.384716 -196.430914 
L 132.087756 -192.772842 
L 133.790796 -188.213091 
L 135.493836 -184.522842 
L 137.196876 -182.11746 
L 138.899916 -179.899307 
L 140.602957 -177.11545 
L 142.305997 -173.85078 
L 144.009037 -170.915131 
L 145.712077 -168.328179 
L 147.415117 -166.667488 
L 149.118157 -165.450621 
L 150.821197 -164.425857 
L 152.524237 -162.818302 
L 154.227277 -161.706787 
L 155.930317 -163.292211 
L 157.633357 -168.607357 
L 159.336397 -176.35089 
L 161.039437 -184.102409 
L 162.742477 -188.932718 
L 164.445517 -190.126706 
L 166.148558 -188.549722 
L 167.851598 -186.080204 
L 169.554638 -185.36046 
L 171.257678 -188.671111 
L 172.960718 -195.406458 
L 174.663758 -203.978331 
L 176.366798 -211.832865 
L 178.069838 -217.014219 
L 179.772878 -218.233078 
L 181.475918 -218.032275 
L 183.178958 -219.865514 
L 184.881998 -226.222696 
L 186.585038 -236.873392 
L 188.288078 -249.343401 
L 189.991118 -263.088316 
L 191.694159 -275.250555 
L 193.397199 -284.804033 
L 195.100239 -292.202344 
L 196.803279 -299.024773 
L 198.506319 -307.335136 
L 200.209359 -317.053664 
L 201.912399 -326.964662 
L 203.615439 -334.6622 
L 205.318479 -339.07488 
L 207.021519 -340.440624 
L 208.724559 -341.023447 
L 210.427599 -342.818131 
L 212.130639 -346.317587 
L 213.833679 -350.555141 
L 215.536719 -353.503357 
L 217.23976 -354.10112 
L 218.9428 -352.565171 
L 220.64584 -348.966128 
L 222.34888 -343.588185 
L 224.05192 -336.364862 
L 225.75496 -326.0024 
L 227.458 -313.524969 
L 229.16104 -300.621544 
L 230.86408 -288.738218 
L 232.56712 -279.021775 
L 234.27016 -272.496609 
L 235.9732 -268.109126 
L 237.67624 -264.590371 
L 239.37928 -260.971072 
L 241.08232 -257.587516 
L 242.785361 -254.949676 
L 244.488401 -253.786346 
L 246.191441 -253.914272 
L 247.894481 -254.713041 
L 249.597521 -255.961158 
L 251.300561 -256.895134 
L 253.003601 -258.871356 
L 254.706641 -262.912188 
L 256.409681 -270.397029 
L 258.112721 -280.486111 
L 259.815761 -292.508766 
L 261.518801 -304.386316 
L 263.221841 -314.777499 
L 264.924881 -322.751732 
L 266.627921 -328.660459 
L 268.330962 -333.567451 
L 270.034002 -338.23424 
L 271.737042 -342.165287 
L 273.440082 -345.6621 
L 275.143122 -348.874253 
L 276.846162 -351.768661 
L 278.549202 -354.117983 
L 280.252242 -356.000178 
L 281.955282 -357.194426 
L 283.658322 -357.236273 
L 285.361362 -355.217345 
L 287.064402 -350.65077 
L 288.767442 -343.728493 
L 290.470482 -334.240243 
L 292.173522 -323.006134 
L 293.876563 -311.306199 
L 295.579603 -300.998193 
L 297.282643 -293.900691 
L 298.985683 -291.368065 
L 300.688723 -293.498975 
L 302.391763 -298.740208 
L 304.094803 -303.981158 
L 305.797843 -306.017413 
L 307.500883 -303.103284 
L 309.203923 -295.655202 
L 310.906963 -286.604362 
L 312.610003 -279.521679 
L 314.313043 -277.075905 
L 316.016083 -279.047758 
L 317.719123 -282.98482 
L 319.422164 -286.240212 
L 321.125204 -286.406527 
L 322.828244 -283.708739 
L 324.531284 -280.104207 
L 326.234324 -277.841516 
L 327.937364 -277.555625 
L 329.640404 -277.892756 
L 331.343444 -276.455899 
L 333.046484 -271.881002 
L 334.749524 -265.797087 
L 336.452564 -261.544313 
L 338.155604 -261.862047 
L 339.858644 -267.395413 
L 341.561684 -274.851332 
L 343.264724 -280.961746 
L 344.967765 -282.231539 
L 346.670805 -278.275491 
L 348.373845 -271.643799 
L 350.076885 -266.309289 
L 351.779925 -264.73798 
L 353.482965 -266.452541 
L 355.186005 -269.024025 
L 356.889045 -269.863113 
L 358.592085 -267.549071 
L 360.295125 -263.052428 
L 361.998165 -258.978748 
L 363.701205 -258.273106 
L 365.404245 -261.318545 
L 367.107285 -267.335869 
L 368.810326 -274.260934 
L 370.513366 -278.887598 
L 372.216406 -280.495509 
L 373.919446 -278.396901 
L 375.622486 -273.966911 
L 377.325526 -269.29582 
L 379.028566 -265.442324 
L 380.731606 -263.250728 
L 382.434646 -261.544306 
L 384.137686 -259.634652 
L 385.840726 -256.572627 
L 387.543766 -253.524355 
L 389.246806 -251.074573 
L 390.949846 -249.483592 
L 392.652886 -249.00446 
L 394.355927 -248.199894 
L 396.058967 -245.264103 
L 397.762007 -240.153591 
L 399.465047 -233.659825 
L 401.168087 -227.25353 
L 402.871127 -222.631318 
L 404.574167 -219.780261 
L 406.277207 -218.029818 
L 407.980247 -215.73537 
L 409.683287 -212.795901 
L 411.386327 -210.254448 
L 413.089367 -208.945262 
L 414.792407 -208.312306 
L 416.495447 -207.606434 
L 418.198487 -206.682896 
L 419.901528 -205.378452 
L 421.604568 -204.369938 
L 423.307608 -204.454406 
L 425.010648 -206.781457 
L 426.713688 -210.510677 
L 428.416728 -214.00695 
L 430.119768 -214.730561 
L 431.822808 -211.14677 
L 433.525848 -203.985922 
L 435.228888 -195.781274 
L 436.931928 -188.55696 
L 438.634968 -183.665548 
L 440.338008 -180.296413 
L 442.041048 -177.871731 
L 443.744088 -175.622538 
L 445.447129 -173.121222 
L 447.150169 -171.357236 
L 448.853209 -170.282224 
L 450.556249 -169.743311 
L 452.259289 -169.506404 
L 453.962329 -169.34553 
L 455.665369 -168.920594 
L 457.368409 -168.764134 
L 459.071449 -168.669624 
L 460.774489 -168.496043 
L 462.477529 -167.743758 
L 464.180569 -165.417172 
L 465.883609 -161.89054 
L 467.586649 -156.754844 
L 469.289689 -151.235185 
L 470.99273 -146.230465 
L 472.69577 -141.413478 
L 474.39881 -137.398418 
L 476.10185 -133.914524 
L 477.80489 -131.549077 
L 479.50793 -130.33225 
L 481.21097 -130.348144 
L 482.91401 -130.298783 
L 484.61705 -129.680016 
L 486.32009 -128.374228 
L 488.02313 -127.316142 
L 489.72617 -126.646846 
L 491.42921 -127.377556 
L 493.13225 -130.028501 
L 494.83529 -133.91303 
L 496.538331 -138.681302 
L 498.241371 -144.224977 
L 499.944411 -148.787703 
L 501.647451 -151.726293 
L 503.350491 -152.387248 
L 505.053531 -150.13229 
L 506.756571 -144.594414 
L 508.459611 -136.832133 
L 510.162651 -128.911926 
L 511.865691 -123.343301 
L 513.568731 -121.22148 
L 515.271771 -121.958154 
L 516.974811 -124.192157 
L 518.677851 -125.505264 
L 520.380891 -124.492228 
L 522.083932 -121.018554 
L 523.786972 -116.641879 
L 525.490012 -113.385695 
L 527.193052 -112.987547 
L 528.896092 -115.76876 
L 530.599132 -121.388202 
L 532.302172 -128.665459 
L 534.005212 -135.718664 
L 535.708252 -140.238241 
L 537.411292 -140.465664 
L 539.114332 -137.224241 
L 540.817372 -131.588122 
L 542.520412 -125.49876 
L 544.223452 -121.508511 
L 545.926492 -120.045599 
L 547.629533 -120.749061 
L 549.332573 -122.446446 
L 551.035613 -124.150397 
L 552.738653 -125.511121 
L 554.441693 -126.1013 
L 556.144733 -125.767453 
L 557.847773 -124.975242 
L 559.550813 -122.603743 
L 561.253853 -119.320843 
L 561.253853 -134.273439 
L 561.253853 -134.273439 
L 559.550813 -137.642954 
L 557.847773 -139.962814 
L 556.144733 -140.511103 
L 554.441693 -140.118572 
L 552.738653 -139.38637 
L 551.035613 -138.137356 
L 549.332573 -136.549346 
L 547.629533 -134.705316 
L 545.926492 -133.712727 
L 544.223452 -134.855374 
L 542.520412 -139.328909 
L 540.817372 -145.46528 
L 539.114332 -151.388026 
L 537.411292 -154.993152 
L 535.708252 -154.67132 
L 534.005212 -149.987465 
L 532.302172 -142.584734 
L 530.599132 -134.962058 
L 528.896092 -128.92686 
L 527.193052 -125.847291 
L 525.490012 -126.681195 
L 523.786972 -129.935685 
L 522.083932 -134.661206 
L 520.380891 -138.060454 
L 518.677851 -138.997381 
L 516.974811 -137.68867 
L 515.271771 -135.38997 
L 513.568731 -134.717216 
L 511.865691 -137.068852 
L 510.162651 -142.816998 
L 508.459611 -150.932866 
L 506.756571 -158.815524 
L 505.053531 -164.187005 
L 503.350491 -166.447879 
L 501.647451 -165.50135 
L 499.944411 -162.522731 
L 498.241371 -158.494562 
L 496.538331 -153.107078 
L 494.83529 -148.275296 
L 493.13225 -144.281886 
L 491.42921 -141.581785 
L 489.72617 -140.544119 
L 488.02313 -140.870941 
L 486.32009 -142.090265 
L 484.61705 -143.444149 
L 482.91401 -144.441433 
L 481.21097 -144.91413 
L 479.50793 -145.358889 
L 477.80489 -146.330117 
L 476.10185 -148.777231 
L 474.39881 -152.575128 
L 472.69577 -157.065736 
L 470.99273 -161.749596 
L 469.289689 -167.068972 
L 467.586649 -172.657192 
L 465.883609 -177.878616 
L 464.180569 -181.532543 
L 462.477529 -183.53705 
L 460.774489 -184.608544 
L 459.071449 -184.956119 
L 457.368409 -184.717419 
L 455.665369 -184.410421 
L 453.962329 -184.097729 
L 452.259289 -183.782718 
L 450.556249 -183.808664 
L 448.853209 -184.477353 
L 447.150169 -185.75825 
L 445.447129 -187.840984 
L 443.744088 -190.169069 
L 442.041048 -192.396606 
L 440.338008 -194.889972 
L 438.634968 -198.056204 
L 436.931928 -203.076875 
L 435.228888 -209.961224 
L 433.525848 -218.190581 
L 431.822808 -225.121327 
L 430.119768 -228.486574 
L 428.416728 -228.135566 
L 426.713688 -225.020413 
L 425.010648 -221.668091 
L 423.307608 -219.696707 
L 421.604568 -219.71814 
L 419.901528 -220.817886 
L 418.198487 -221.654599 
L 416.495447 -222.113263 
L 414.792407 -222.501773 
L 413.089367 -223.18945 
L 411.386327 -224.531349 
L 409.683287 -227.117594 
L 407.980247 -229.899902 
L 406.277207 -232.54656 
L 404.574167 -235.136435 
L 402.871127 -238.238786 
L 401.168087 -242.894683 
L 399.465047 -248.996324 
L 397.762007 -255.057172 
L 396.058967 -259.918381 
L 394.355927 -263.229916 
L 392.652886 -264.452948 
L 390.949846 -265.344111 
L 389.246806 -267.16603 
L 387.543766 -269.130142 
L 385.840726 -271.848831 
L 384.137686 -274.519438 
L 382.434646 -276.475077 
L 380.731606 -278.374121 
L 379.028566 -280.937201 
L 377.325526 -284.511844 
L 375.622486 -288.98069 
L 373.919446 -292.935377 
L 372.216406 -294.943408 
L 370.513366 -293.541368 
L 368.810326 -289.24738 
L 367.107285 -283.463336 
L 365.404245 -277.744032 
L 363.701205 -274.832107 
L 361.998165 -275.27822 
L 360.295125 -278.252722 
L 358.592085 -282.313982 
L 356.889045 -284.388869 
L 355.186005 -283.523704 
L 353.482965 -281.076637 
L 351.779925 -279.900182 
L 350.076885 -281.901372 
L 348.373845 -287.131007 
L 346.670805 -293.353432 
L 344.967765 -297.026094 
L 343.264724 -295.536377 
L 341.561684 -289.668218 
L 339.858644 -282.380786 
L 338.155604 -277.440426 
L 336.452564 -277.324536 
L 334.749524 -281.368995 
L 333.046484 -287.212439 
L 331.343444 -291.90381 
L 329.640404 -293.523193 
L 327.937364 -293.452418 
L 326.234324 -293.5984 
L 324.531284 -295.470927 
L 322.828244 -298.834322 
L 321.125204 -301.026227 
L 319.422164 -301.105586 
L 317.719123 -297.825433 
L 316.016083 -294.086099 
L 314.313043 -292.499684 
L 312.610003 -294.581747 
L 310.906963 -301.25406 
L 309.203923 -310.079368 
L 307.500883 -317.291269 
L 305.797843 -320.205033 
L 304.094803 -318.234303 
L 302.391763 -313.033472 
L 300.688723 -307.966741 
L 298.985683 -305.810997 
L 297.282643 -308.024172 
L 295.579603 -315.078933 
L 293.876563 -325.608849 
L 292.173522 -337.507602 
L 290.470482 -348.677016 
L 288.767442 -358.289287 
L 287.064402 -365.199569 
L 285.361362 -369.634931 
L 283.658322 -371.886615 
L 281.955282 -371.768484 
L 280.252242 -370.311887 
L 278.549202 -368.067035 
L 276.846162 -365.851192 
L 275.143122 -363.212365 
L 273.440082 -360.057285 
L 271.737042 -356.501199 
L 270.034002 -352.625023 
L 268.330962 -347.926021 
L 266.627921 -342.826625 
L 264.924881 -336.592132 
L 263.221841 -328.446608 
L 261.518801 -318.136051 
L 259.815761 -306.235772 
L 258.112721 -294.291832 
L 256.409681 -284.262142 
L 254.706641 -276.990575 
L 253.003601 -272.789721 
L 251.300561 -270.771498 
L 249.597521 -269.487642 
L 247.894481 -268.212093 
L 246.191441 -267.309814 
L 244.488401 -266.996958 
L 242.785361 -268.262082 
L 241.08232 -271.112271 
L 239.37928 -274.444428 
L 237.67624 -277.817918 
L 235.9732 -281.21277 
L 234.27016 -286.01836 
L 232.56712 -292.834595 
L 230.86408 -302.431915 
L 229.16104 -314.156804 
L 227.458 -327.122282 
L 225.75496 -339.228683 
L 224.05192 -349.254584 
L 222.34888 -356.322234 
L 220.64584 -361.955304 
L 218.9428 -365.677173 
L 217.23976 -367.398878 
L 215.536719 -366.876295 
L 213.833679 -363.716271 
L 212.130639 -358.923267 
L 210.427599 -355.287784 
L 208.724559 -353.666873 
L 207.021519 -353.444601 
L 205.318479 -351.793153 
L 203.615439 -347.201122 
L 201.912399 -339.371681 
L 200.209359 -329.342065 
L 198.506319 -319.278172 
L 196.803279 -310.88866 
L 195.100239 -303.777426 
L 193.397199 -296.088013 
L 191.694159 -286.463026 
L 189.991118 -274.270291 
L 188.288078 -260.392981 
L 186.585038 -248.245065 
L 184.881998 -237.923436 
L 183.178958 -231.397168 
L 181.475918 -229.130687 
L 179.772878 -229.141832 
L 178.069838 -227.549909 
L 176.366798 -222.628172 
L 174.663758 -214.700503 
L 172.960718 -206.096225 
L 171.257678 -199.126605 
L 169.554638 -195.523848 
L 167.851598 -195.736151 
L 166.148558 -198.22772 
L 164.445517 -199.937775 
L 162.742477 -198.864948 
L 161.039437 -194.159685 
L 159.336397 -186.29217 
L 157.633357 -178.197345 
L 155.930317 -172.754954 
L 154.227277 -171.135865 
L 152.524237 -172.440864 
L 150.821197 -174.492997 
L 149.118157 -175.709507 
L 147.415117 -176.281724 
L 145.712077 -177.252814 
L 144.009037 -179.333366 
L 142.305997 -182.32485 
L 140.602957 -186.109714 
L 138.899916 -189.052692 
L 137.196876 -190.874804 
L 135.493836 -192.857091 
L 133.790796 -196.335444 
L 132.087756 -200.965156 
L 130.384716 -204.766729 
L 128.681676 -204.818277 
L 126.978636 -200.999489 
L 125.275596 -195.022546 
L 123.572556 -189.401715 
L 121.869516 -187.723801 
L 120.166476 -191.430368 
L 118.463436 -200.107085 
L 116.760396 -210.184983 
L 115.057356 -218.203272 
L 113.354315 -222.303049 
L 111.651275 -222.858233 
L 109.948235 -222.400264 
L 108.245195 -223.2631 
L 106.542155 -225.18547 
L 104.839115 -227.023982 
L 103.136075 -227.292379 
L 101.433035 -225.195708 
L 99.729995 -221.836068 
L 98.026955 -218.936511 
L 96.323915 -217.873524 
L 94.620875 -217.977371 
L 92.917835 -218.194806 
L 91.214795 -217.543446 
L 89.511755 -215.792454 
L 87.808714 -214.155517 
L 86.105674 -213.184853 
L 84.402634 -213.365758 
L 82.699594 -214.638837 
L 80.996554 -215.90298 
L 79.293514 -216.635481 
L 77.590474 -217.65613 
L 75.887434 -219.95244 
L 74.184394 -223.662404 
L 72.481354 -227.617792 
L 70.778314 -230.291063 
L 69.075274 -230.231455 
L 67.372234 -227.987565 
L 65.669194 -225.7656 
L 63.966154 -227.129462 
L 62.263113 -233.483315 
L 60.560073 -242.775599 
L 58.857033 -251.495385 
L 57.153993 -255.624813 
L 55.450953 -253.994249 
L 53.747913 -249.09397 
L 52.044873 -245.635241 
L 50.341833 -246.249446 
L 48.638793 -251.698007 
L 46.935753 -260.137973 
L 45.232713 -267.080894 
L 43.529673 -270.145879 
L 41.826633 -267.754625 
L 40.123593 -262.645648 
L 38.420552 -258.07279 
z
" style="stroke: #ff7f0e; stroke-opacity: 0.3"/>
    </defs>
    <g>
     <use xlink:href="#m275d73e839" x="0" y="432" style="fill: #ff7f0e; fill-opacity: 0.3; stroke: #ff7f0e; stroke-opacity: 0.3"/>
    </g>
   </g>
   <g id="line2d_17">
    <path d="M 38.420552 211.435158 
L 40.123593 198.720103 
L 41.826633 187.652883 
L 43.529673 183.015111 
L 45.232713 187.08016 
L 46.935753 197.420051 
L 48.638793 210.088661 
L 50.341833 220.367939 
L 52.044873 224.312184 
L 53.747913 220.782654 
L 55.450953 211.829225 
L 57.153993 201.20267 
L 58.857033 193.439588 
L 60.560073 191.97228 
L 62.263113 197.215242 
L 63.966154 206.860108 
L 65.669194 215.708356 
L 67.372234 219.263945 
L 69.075274 215.234654 
L 72.481354 197.685207 
L 74.184394 194.123336 
L 75.887434 199.604412 
L 77.590474 212.197247 
L 79.293514 226.571776 
L 80.996554 237.142509 
L 82.699594 239.699827 
L 84.402634 235.407791 
L 86.105674 226.269661 
L 87.808714 216.525039 
L 89.511755 208.985976 
L 91.214795 203.257468 
L 92.917835 199.005344 
L 94.620875 197.074593 
L 96.323915 198.745994 
L 98.026955 202.761149 
L 99.729995 207.59892 
L 101.433035 209.854205 
L 103.136075 206.729776 
L 104.839115 199.094478 
L 106.542155 190.183927 
L 108.245195 185.698172 
L 109.948235 189.994053 
L 111.651275 203.029541 
L 113.354315 219.303581 
L 115.057356 230.317639 
L 116.760396 233.026633 
L 118.463436 227.432681 
L 120.166476 217.198724 
L 121.869516 210.143013 
L 123.572556 208.169352 
L 125.275596 209.204308 
L 126.978636 209.653901 
L 128.681676 205.61781 
L 132.087756 188.284137 
L 133.790796 185.52508 
L 135.493836 191.821132 
L 137.196876 206.193636 
L 138.899916 223.167984 
L 140.602957 236.01996 
L 142.305997 242.559766 
L 144.009037 242.991031 
L 145.712077 240.656011 
L 147.415117 239.910941 
L 149.118157 242.641246 
L 150.821197 250.461282 
L 152.524237 260.716889 
L 154.227277 269.023047 
L 155.930317 272.962606 
L 157.633357 270.642131 
L 159.336397 261.720355 
L 162.742477 231.904936 
L 164.445517 219.717182 
L 166.148558 214.128313 
L 167.851598 215.111393 
L 169.554638 219.623108 
L 171.257678 222.561833 
L 172.960718 218.071288 
L 174.663758 205.988404 
L 176.366798 189.046301 
L 178.069838 173.581882 
L 179.772878 164.819529 
L 181.475918 164.28476 
L 183.178958 168.802652 
L 184.881998 171.570424 
L 186.585038 168.204535 
L 188.288078 158.042634 
L 191.694159 129.624475 
L 193.397199 118.795241 
L 195.100239 111.682387 
L 196.803279 107.715099 
L 198.506319 105.110704 
L 200.209359 102.855299 
L 203.615439 97.350403 
L 205.318479 93.636453 
L 208.724559 84.051076 
L 210.427599 80.458043 
L 212.130639 79.793275 
L 213.833679 82.736812 
L 215.536719 87.672139 
L 217.23976 92.095671 
L 218.9428 94.980082 
L 220.64584 95.443407 
L 222.34888 95.05395 
L 224.05192 97.424698 
L 225.75496 103.591671 
L 227.458 114.103692 
L 229.16104 127.164314 
L 230.86408 137.921226 
L 232.56712 143.869727 
L 234.27016 144.284214 
L 235.9732 140.533232 
L 237.67624 135.905668 
L 239.37928 133.996445 
L 241.08232 136.742633 
L 242.785361 145.21335 
L 246.191441 170.688352 
L 247.894481 180.432597 
L 249.597521 183.676331 
L 251.300561 180.285454 
L 253.003601 171.51833 
L 254.706641 160.471142 
L 256.409681 150.239745 
L 258.112721 141.904911 
L 259.815761 132.829227 
L 261.518801 120.876578 
L 263.221841 106.93721 
L 266.627921 76.297458 
L 268.330962 63.919237 
L 270.034002 55.915105 
L 271.737042 51.215078 
L 273.440082 47.747152 
L 275.143122 42.991079 
L 276.846162 37.082342 
L 278.549202 32.980702 
L 280.252242 33.281021 
L 281.955282 38.714448 
L 285.361362 55.243552 
L 287.064402 59.734878 
L 288.767442 61.029406 
L 290.470482 61.008488 
L 292.173522 63.453002 
L 293.876563 69.735944 
L 295.579603 79.301631 
L 297.282643 89.938469 
L 298.985683 99.023191 
L 300.688723 106.529193 
L 304.094803 120.073779 
L 305.797843 125.912027 
L 307.500883 127.845003 
L 309.203923 123.227003 
L 310.906963 113.223882 
L 312.610003 101.641097 
L 314.313043 94.04906 
L 316.016083 94.55798 
L 317.719123 102.734133 
L 319.422164 114.350326 
L 321.125204 125.048686 
L 322.828244 131.927211 
L 324.531284 134.999997 
L 326.234324 136.46171 
L 327.937364 138.64456 
L 329.640404 143.114295 
L 331.343444 149.332568 
L 333.046484 157.476096 
L 336.452564 176.358052 
L 338.155604 182.799006 
L 339.858644 184.97543 
L 341.561684 182.262469 
L 343.264724 175.012072 
L 344.967765 166.703819 
L 346.670805 160.983102 
L 348.373845 159.688952 
L 350.076885 160.825995 
L 351.779925 161.03685 
L 353.482965 158.231114 
L 356.889045 145.876743 
L 358.592085 141.295826 
L 360.295125 139.87764 
L 361.998165 141.02299 
L 363.701205 142.580244 
L 365.404245 142.510678 
L 367.107285 142.101991 
L 368.810326 141.97093 
L 370.513366 142.105288 
L 372.216406 141.269673 
L 373.919446 139.225446 
L 375.622486 134.740017 
L 377.325526 129.866876 
L 379.028566 127.994769 
L 380.731606 131.564579 
L 382.434646 139.510434 
L 384.137686 148.3762 
L 385.840726 153.182675 
L 387.543766 152.45994 
L 389.246806 146.636267 
L 390.949846 139.083857 
L 392.652886 132.801069 
L 394.355927 130.19521 
L 396.058967 130.859847 
L 397.762007 132.986589 
L 399.465047 135.431117 
L 401.168087 139.553465 
L 402.871127 146.232328 
L 406.277207 162.729295 
L 407.980247 167.226056 
L 409.683287 166.448223 
L 413.089367 156.84001 
L 414.792407 154.829756 
L 416.495447 155.763031 
L 418.198487 157.812201 
L 419.901528 158.804285 
L 423.307608 156.321998 
L 425.010648 157.384563 
L 426.713688 162.818837 
L 428.416728 172.473129 
L 430.119768 182.972121 
L 431.822808 190.870942 
L 433.525848 193.804271 
L 435.228888 192.686893 
L 436.931928 191.11434 
L 438.634968 191.105317 
L 440.338008 192.674866 
L 442.041048 193.883227 
L 443.744088 191.701384 
L 445.447129 184.749096 
L 448.853209 164.349985 
L 450.556249 157.29015 
L 452.259289 156.120583 
L 453.962329 160.170102 
L 455.665369 167.045522 
L 457.368409 173.175315 
L 459.071449 175.845692 
L 460.774489 174.353092 
L 462.477529 171.499768 
L 464.180569 172.063661 
L 465.883609 178.842213 
L 467.586649 191.455674 
L 469.289689 205.134473 
L 470.99273 212.683847 
L 472.69577 209.308758 
L 474.39881 197.633971 
L 476.10185 184.478269 
L 477.80489 177.953938 
L 479.50793 182.642218 
L 482.91401 208.589736 
L 484.61705 213.013228 
L 486.32009 204.569748 
L 489.72617 169.981366 
L 491.42921 161.582393 
L 493.13225 164.000749 
L 494.83529 174.309493 
L 496.538331 185.710014 
L 498.241371 192.431131 
L 499.944411 193.210472 
L 501.647451 191.903609 
L 503.350491 192.694144 
L 506.756571 201.011885 
L 508.459611 200.902 
L 510.162651 194.989314 
L 511.865691 185.35272 
L 513.568731 176.478899 
L 515.271771 173.465835 
L 516.974811 177.762619 
L 520.380891 195.128362 
L 522.083932 199.695984 
L 523.786972 199.979929 
L 525.490012 197.96418 
L 527.193052 196.805082 
L 528.896092 199.728823 
L 532.302172 212.194935 
L 534.005212 215.473686 
L 535.708252 213.970332 
L 537.411292 209.953609 
L 539.114332 206.876642 
L 540.817372 206.913858 
L 542.520412 210.017667 
L 544.223452 214.730458 
L 545.926492 217.944167 
L 547.629533 218.080061 
L 551.035613 213.400955 
L 552.738653 213.8573 
L 554.441693 218.948761 
L 557.847773 233.901306 
L 559.550813 238.545397 
L 561.253853 239.510932 
L 561.253853 239.510932 
" style="fill: none; stroke: #1f77b4; stroke-width: 1.5; stroke-linecap: square"/>
   </g>
   <g id="line2d_18">
    <path d="M 38.420552 178.547698 
L 40.123593 173.712361 
L 41.826633 168.460361 
L 43.529673 165.861995 
L 45.232713 168.820497 
L 46.935753 175.735773 
L 48.638793 183.881012 
L 50.341833 189.281247 
L 52.044873 189.807208 
L 53.747913 186.173933 
L 55.450953 181.522488 
L 57.153993 180.022093 
L 58.857033 183.95534 
L 60.560073 192.417594 
L 62.263113 201.639102 
L 63.966154 207.857976 
L 65.669194 209.199864 
L 69.075274 204.918154 
L 70.778314 204.757498 
L 72.481354 207.450857 
L 74.184394 211.606452 
L 75.887434 215.384044 
L 77.590474 217.577976 
L 80.996554 219.094092 
L 82.699594 220.319456 
L 84.402634 221.742045 
L 86.105674 222.064999 
L 87.808714 221.148468 
L 91.214795 217.595755 
L 92.917835 216.893631 
L 94.620875 217.385926 
L 96.323915 217.576427 
L 98.026955 216.616145 
L 99.729995 213.774636 
L 101.433035 210.452124 
L 103.136075 208.258304 
L 104.839115 208.373607 
L 108.245195 212.003225 
L 109.948235 212.773583 
L 111.651275 212.609103 
L 113.354315 213.526979 
L 115.057356 217.625221 
L 116.760396 225.638965 
L 118.463436 235.831649 
L 120.166476 244.37451 
L 121.869516 248.095319 
L 123.572556 246.241277 
L 126.978636 234.63847 
L 128.681676 231.090923 
L 130.384716 231.401878 
L 132.087756 235.101936 
L 133.790796 239.742145 
L 135.493836 243.346384 
L 138.899916 247.631013 
L 140.602957 250.402873 
L 142.305997 253.854617 
L 144.009037 256.907513 
L 145.712077 259.132345 
L 147.415117 260.455485 
L 149.118157 261.313879 
L 150.821197 262.376312 
L 152.524237 264.336693 
L 154.227277 265.533481 
L 155.930317 264.003143 
L 157.633357 258.595191 
L 161.039437 242.913875 
L 162.742477 238.136941 
L 164.445517 237.030597 
L 166.148558 238.575274 
L 167.851598 240.895995 
L 169.554638 241.372218 
L 171.257678 238.097689 
L 172.960718 231.211694 
L 174.663758 222.586703 
L 176.366798 214.639004 
L 178.069838 209.696598 
L 179.772878 208.330022 
L 181.475918 208.51171 
L 183.178958 206.412442 
L 184.881998 199.893336 
L 186.585038 189.443053 
L 188.288078 177.161225 
L 189.991118 163.341702 
L 191.694159 151.097163 
L 193.397199 141.334817 
L 198.506319 118.730059 
L 201.912399 98.892945 
L 203.615439 90.973664 
L 205.318479 86.52453 
L 207.021519 85.146194 
L 208.724559 84.750775 
L 210.427599 83.070789 
L 212.130639 79.47576 
L 213.833679 75.09042 
L 215.536719 71.916803 
L 217.23976 71.201592 
L 218.9428 72.741353 
L 220.64584 76.422382 
L 222.34888 81.923686 
L 224.05192 89.200265 
L 225.75496 99.327402 
L 230.86408 136.387873 
L 232.56712 145.842485 
L 234.27016 152.540702 
L 235.9732 157.184694 
L 239.37928 164.272806 
L 241.08232 167.594713 
L 242.785361 170.228919 
L 244.488401 171.523674 
L 246.191441 171.477948 
L 247.894481 170.466805 
L 251.300561 168.143629 
L 253.003601 166.089693 
L 254.706641 161.878985 
L 256.409681 154.576518 
L 258.112721 144.417882 
L 261.518801 120.60809 
L 263.221841 110.330549 
L 264.924881 102.324692 
L 266.627921 96.327755 
L 268.330962 91.239414 
L 270.034002 86.568805 
L 271.737042 82.393379 
L 273.440082 78.844837 
L 275.143122 75.80123 
L 276.846162 73.123291 
L 278.549202 70.790083 
L 280.252242 68.766252 
L 281.955282 67.4276 
L 283.658322 67.48119 
L 285.361362 69.652207 
L 287.064402 74.136006 
L 288.767442 81.056717 
L 290.470482 90.648101 
L 295.579603 124.02524 
L 297.282643 130.990588 
L 298.985683 133.329892 
L 300.688723 131.183193 
L 304.094803 120.690719 
L 305.797843 118.721393 
L 307.500883 121.702598 
L 309.203923 129.22859 
L 310.906963 138.289018 
L 312.610003 145.137932 
L 314.313043 147.344889 
L 316.016083 145.543851 
L 317.719123 141.696298 
L 319.422164 138.550057 
L 321.125204 138.469476 
L 322.828244 141.062833 
L 324.531284 144.396301 
L 326.234324 146.416751 
L 327.937364 146.540802 
L 329.640404 146.348372 
L 331.343444 147.965388 
L 333.046484 152.448238 
L 334.749524 158.342855 
L 336.452564 162.500774 
L 338.155604 162.241839 
L 339.858644 157.141719 
L 341.561684 149.603052 
L 343.264724 143.624931 
L 344.967765 142.40368 
L 346.670805 146.305293 
L 348.373845 152.686553 
L 350.076885 157.954334 
L 351.779925 159.816003 
L 353.482965 158.278716 
L 355.186005 155.574093 
L 356.889045 154.630916 
L 358.592085 156.866188 
L 360.295125 161.133599 
L 361.998165 164.712425 
L 363.701205 165.344607 
L 365.404245 162.357935 
L 367.107285 156.520966 
L 368.810326 150.117509 
L 370.513366 145.672653 
L 372.216406 144.18872 
L 373.919446 146.261161 
L 375.622486 150.373694 
L 377.325526 155.086063 
L 379.028566 158.627511 
L 380.731606 161.022117 
L 382.434646 162.706997 
L 384.137686 164.766947 
L 387.543766 170.480224 
L 389.246806 172.748688 
L 390.949846 174.314299 
L 392.652886 174.899798 
L 394.355927 176.093003 
L 396.058967 179.175788 
L 397.762007 184.136979 
L 401.168087 196.51367 
L 402.871127 201.312583 
L 404.574167 204.449341 
L 406.277207 206.676015 
L 407.980247 209.171548 
L 409.683287 211.981503 
L 411.386327 214.345667 
L 413.089367 215.641656 
L 416.495447 217.053354 
L 418.198487 217.722337 
L 421.604568 220.102767 
L 423.307608 219.992215 
L 425.010648 217.881577 
L 426.713688 214.265528 
L 428.416728 210.996731 
L 430.119768 210.395793 
L 431.822808 213.971914 
L 433.525848 220.930281 
L 435.228888 229.13198 
L 436.931928 236.231407 
L 438.634968 241.261883 
L 440.338008 244.36836 
L 445.447129 251.419807 
L 447.150169 253.361514 
L 448.853209 254.601807 
L 450.556249 255.164021 
L 452.259289 255.257917 
L 455.665369 255.133812 
L 459.071449 255.117912 
L 460.774489 255.400799 
L 462.477529 256.270011 
L 464.180569 258.342707 
L 465.883609 262.075821 
L 467.586649 267.164617 
L 470.99273 278.035552 
L 472.69577 282.78518 
L 474.39881 287.080665 
L 476.10185 290.479007 
L 477.80489 292.79043 
L 479.50793 293.884214 
L 482.91401 294.388483 
L 484.61705 295.254539 
L 488.02313 297.889114 
L 489.72617 298.437279 
L 491.42921 297.462756 
L 493.13225 294.721634 
L 494.83529 290.742774 
L 496.538331 285.928077 
L 498.241371 280.739752 
L 499.944411 276.311015 
L 501.647451 273.340222 
L 503.350491 272.562101 
L 505.053531 274.850961 
L 506.756571 280.323197 
L 510.162651 296.102846 
L 511.865691 301.835534 
L 513.568731 304.139714 
L 515.271771 303.389042 
L 516.974811 301.010968 
L 518.677851 299.704248 
L 520.380891 300.724938 
L 522.083932 304.150895 
L 523.786972 308.588965 
L 525.490012 311.864519 
L 527.193052 312.487658 
L 528.896092 309.503556 
L 530.599132 303.670578 
L 534.005212 289.024255 
L 535.708252 284.467033 
L 537.411292 284.229218 
L 539.114332 287.621008 
L 542.520412 299.438118 
L 544.223452 303.694085 
L 545.926492 305.02665 
L 547.629533 304.190133 
L 551.035613 300.792286 
L 552.738653 299.491654 
L 554.441693 298.813049 
L 556.144733 298.685002 
L 557.847773 299.365364 
L 559.550813 301.547102 
L 561.253853 304.883628 
L 561.253853 304.883628 
" style="fill: none; stroke: #ff7f0e; stroke-width: 1.5; stroke-linecap: square"/>
   </g>
  </g>
  <g id="axes_2">
   <g id="PathCollection_1">
    <defs>
     <path id="C0_0_44350672ec" d="M 0 1.118034 
C 0.296506 1.118034 0.580908 1.000231 0.790569 0.790569 
C 1.000231 0.580908 1.118034 0.296506 1.118034 -0 
C 1.118034 -0.296506 1.000231 -0.580908 0.790569 -0.790569 
C 0.580908 -1.000231 0.296506 -1.118034 0 -1.118034 
C -0.296506 -1.118034 -0.580908 -1.000231 -0.790569 -0.790569 
C -1.000231 -0.580908 -1.118034 -0.296506 -1.118034 0 
C -1.118034 0.296506 -1.000231 0.580908 -0.790569 0.790569 
C -0.580908 1.000231 -0.296506 1.118034 0 1.118034 
z
"/>
    </defs>
    <g clip-path="url(#pc61257a17c)">
     <use xlink:href="#C0_0_44350672ec" x="509.095239" y="76.413346" style="stroke: #000000"/>
    </g>
    <g clip-path="url(#pc61257a17c)">
     <use xlink:href="#C0_0_44350672ec" x="527.449708" y="76.963512" style="stroke: #000000"/>
    </g>
    <g clip-path="url(#pc61257a17c)">
     <use xlink:href="#C0_0_44350672ec" x="491.314473" y="76.940214" style="stroke: #000000"/>
    </g>
    <g clip-path="url(#pc61257a17c)">
     <use xlink:href="#C0_0_44350672ec" x="494.022182" y="86.067282" style="stroke: #000000"/>
    </g>
    <g clip-path="url(#pc61257a17c)">
     <use xlink:href="#C0_0_44350672ec" x="524.549058" y="86.077255" style="stroke: #000000"/>
    </g>
    <g clip-path="url(#pc61257a17c)">
     <use xlink:href="#C0_0_44350672ec" x="509.03797" y="85.799671" style="stroke: #000000"/>
    </g>
   </g>
   <g id="matplotlib.axis_3"/>
   <g id="matplotlib.axis_4"/>
   <g id="line2d_19">
    <path d="M 548.860571 73.636212 
L 548.782898 71.164606 
L 548.550185 68.702755 
L 548.163349 66.260375 
L 547.623919 63.847103 
L 546.934023 61.472464 
L 546.096383 59.14583 
L 545.114306 56.876383 
L 543.991666 54.673079 
L 542.732896 52.544615 
L 541.342962 50.499389 
L 539.82735 48.545473 
L 538.192041 46.690579 
L 536.443489 44.942028 
L 534.588595 43.306719 
L 532.63468 41.791107 
L 530.589454 40.401173 
L 528.460989 39.142402 
L 526.257685 38.019763 
L 523.988238 37.037685 
L 521.661605 36.200045 
L 519.286966 35.510149 
L 516.873694 34.970719 
L 514.431313 34.583884 
L 511.969462 34.35117 
L 509.497857 34.273497 
L 507.026251 34.35117 
L 504.5644 34.583884 
L 502.12202 34.970719 
L 499.708748 35.510149 
L 497.334109 36.200045 
L 495.007475 37.037685 
L 492.738028 38.019763 
L 490.534724 39.142402 
L 488.40626 40.401173 
L 486.361034 41.791107 
L 484.407118 43.306719 
L 482.552224 44.942028 
L 480.803673 46.690579 
L 479.168364 48.545473 
L 477.652752 50.499389 
L 476.262818 52.544615 
L 475.004047 54.673079 
L 473.881408 56.876383 
L 472.89933 59.14583 
L 472.061691 61.472464 
L 471.371794 63.847103 
L 470.832364 66.260375 
L 470.445529 68.702755 
L 470.212815 71.164606 
L 470.135142 73.636212 
L 470.212815 76.107817 
L 470.445529 78.569668 
L 470.832364 81.012049 
L 471.371794 83.425321 
L 472.061691 85.799959 
L 472.89933 88.126593 
L 473.881408 90.39604 
L 475.004047 92.599344 
L 476.262818 94.727809 
L 477.652752 96.773035 
L 479.168364 98.72695 
L 480.803673 100.581844 
L 482.552224 102.330396 
L 484.407118 103.965705 
L 486.361034 105.481317 
L 488.40626 106.871251 
L 490.534724 108.130021 
L 492.738028 109.252661 
L 495.007475 110.234738 
L 497.334109 111.072378 
L 499.708748 111.762274 
L 502.12202 112.301704 
L 504.5644 112.68854 
L 507.026251 112.921253 
L 509.497857 112.998926 
L 511.969462 112.921253 
L 514.431313 112.68854 
L 516.873694 112.301704 
L 519.286966 111.762274 
L 521.661605 111.072378 
L 523.988238 110.234738 
L 526.257685 109.252661 
L 528.460989 108.130021 
L 530.589454 106.871251 
L 532.63468 105.481317 
L 534.588595 103.965705 
L 536.443489 102.330396 
L 538.192041 100.581844 
L 539.82735 98.72695 
L 541.342962 96.773035 
L 542.732896 94.727809 
L 543.991666 92.599344 
L 545.114306 90.39604 
L 546.096383 88.126593 
L 546.934023 85.799959 
L 547.623919 83.425321 
L 548.163349 81.012049 
L 548.550185 78.569668 
L 548.782898 76.107817 
L 548.860571 73.636212 
" style="fill: none; stroke: #000000; stroke-linecap: square"/>
   </g>
   <g id="line2d_20">
    <path d="M 501.253749 35.146499 
L 509.497857 28.36909 
L 517.741964 35.146499 
" style="fill: none; stroke: #000000; stroke-linecap: square"/>
   </g>
   <g id="line2d_21">
    <path d="M 470.371318 69.26695 
L 469.347888 67.534991 
L 468.718084 67.472011 
L 467.781252 67.763295 
L 466.836547 69.26695 
L 466.986125 74.069202 
L 466.435047 80.973422 
L 467.615928 83.972861 
L 469.347888 84.531811 
L 471.001122 83.075391 
" style="fill: none; stroke: #000000; stroke-linecap: square"/>
   </g>
   <g id="line2d_22">
    <path d="M 548.624395 69.26695 
L 549.647826 67.534991 
L 550.277629 67.472011 
L 551.214462 67.763295 
L 552.159167 69.26695 
L 552.009589 74.069202 
L 552.560667 80.973422 
L 551.379785 83.972861 
L 549.647826 84.531811 
L 547.994592 83.075391 
" style="fill: none; stroke: #000000; stroke-linecap: square"/>
   </g>
  </g>
 </g>
 <defs>
  <clipPath id="p9db1f99b5d">
   <rect x="38.420552" y="18.118365" width="523.446395" height="380.525145"/>
  </clipPath>
  <clipPath id="pc61257a17c">
   <rect x="462.128766" y="24.137598" width="94.738182" height="93.09282"/>
  </clipPath>
 </defs>
</svg>
