<?xml version="1.0" encoding="utf-8" standalone="no"?>
<!DOCTYPE svg PUBLIC "-//W3C//DTD SVG 1.1//EN"
  "http://www.w3.org/Graphics/SVG/1.1/DTD/svg11.dtd">
<svg xmlns:xlink="http://www.w3.org/1999/xlink" width="576pt" height="432pt" viewBox="0 0 576 432" xmlns="http://www.w3.org/2000/svg" version="1.1">
 <metadata>
  <rdf:RDF xmlns:dc="http://purl.org/dc/elements/1.1/" xmlns:cc="http://creativecommons.org/ns#" xmlns:rdf="http://www.w3.org/1999/02/22-rdf-syntax-ns#">
   <cc:Work>
    <dc:type rdf:resource="http://purl.org/dc/dcmitype/StillImage"/>
    <dc:date>2025-02-20T17:25:19.964837</dc:date>
    <dc:format>image/svg+xml</dc:format>
    <dc:creator>
     <cc:Agent>
      <dc:title>Matplotlib v3.10.0, https://matplotlib.org/</dc:title>
     </cc:Agent>
    </dc:creator>
   </cc:Work>
  </rdf:RDF>
 </metadata>
 <defs>
  <style type="text/css">*{stroke-linejoin: round; stroke-linecap: butt}</style>
 </defs>
 <g id="figure_1">
  <g id="patch_1">
   <path d="M 0 432 
L 576 432 
L 576 0 
L 0 0 
z
" style="fill: #ffffff"/>
  </g>
  <g id="axes_1">
   <g id="patch_2">
    <path d="M 38.420552 398.64351 
L 561.866948 398.64351 
L 561.866948 18.118365 
L 38.420552 18.118365 
L 38.420552 398.64351 
z
" style="fill: none; opacity: 0"/>
   </g>
   <g id="patch_3">
    <path d="M 38.420552 372.685091 
L 38.420552 44.076784 
" style="fill: none; stroke: #000000; stroke-width: 0.8; stroke-linejoin: miter; stroke-linecap: square"/>
   </g>
   <g id="LineCollection_1">
    <path d="M 156.407168 18.118365 
L 156.407168 398.64351 
" clip-path="url(#p2c100cc8ef)" style="fill: none; stroke-dasharray: 3.7,1.6; stroke-dashoffset: 0; stroke: #000000"/>
    <path d="M 195.645211 18.118365 
L 195.645211 398.64351 
" clip-path="url(#p2c100cc8ef)" style="fill: none; stroke-dasharray: 3.7,1.6; stroke-dashoffset: 0; stroke: #000000"/>
   </g>
   <g id="matplotlib.axis_1">
    <g id="xtick_1">
     <g id="line2d_1">
      <defs>
       <path id="m7220d5864f" d="M 0 0 
L 0 3.5 
" style="stroke: #000000; stroke-width: 0.8"/>
      </defs>
      <g>
       <use xlink:href="#m7220d5864f" x="38.693039" y="398.64351" style="stroke: #000000; stroke-width: 0.8"/>
      </g>
     </g>
     <g id="text_1">
      <!-- −0.20 -->
      <g transform="translate(23.370383 413.241947) scale(0.1 -0.1)">
       <defs>
        <path id="DejaVuSans-2212" d="M 678 2272 
L 4684 2272 
L 4684 1741 
L 678 1741 
L 678 2272 
z
" transform="scale(0.015625)"/>
        <path id="DejaVuSans-30" d="M 2034 4250 
Q 1547 4250 1301 3770 
Q 1056 3291 1056 2328 
Q 1056 1369 1301 889 
Q 1547 409 2034 409 
Q 2525 409 2770 889 
Q 3016 1369 3016 2328 
Q 3016 3291 2770 3770 
Q 2525 4250 2034 4250 
z
M 2034 4750 
Q 2819 4750 3233 4129 
Q 3647 3509 3647 2328 
Q 3647 1150 3233 529 
Q 2819 -91 2034 -91 
Q 1250 -91 836 529 
Q 422 1150 422 2328 
Q 422 3509 836 4129 
Q 1250 4750 2034 4750 
z
" transform="scale(0.015625)"/>
        <path id="DejaVuSans-2e" d="M 684 794 
L 1344 794 
L 1344 0 
L 684 0 
L 684 794 
z
" transform="scale(0.015625)"/>
        <path id="DejaVuSans-32" d="M 1228 531 
L 3431 531 
L 3431 0 
L 469 0 
L 469 531 
Q 828 903 1448 1529 
Q 2069 2156 2228 2338 
Q 2531 2678 2651 2914 
Q 2772 3150 2772 3378 
Q 2772 3750 2511 3984 
Q 2250 4219 1831 4219 
Q 1534 4219 1204 4116 
Q 875 4013 500 3803 
L 500 4441 
Q 881 4594 1212 4672 
Q 1544 4750 1819 4750 
Q 2544 4750 2975 4387 
Q 3406 4025 3406 3419 
Q 3406 3131 3298 2873 
Q 3191 2616 2906 2266 
Q 2828 2175 2409 1742 
Q 1991 1309 1228 531 
z
" transform="scale(0.015625)"/>
       </defs>
       <use xlink:href="#DejaVuSans-2212"/>
       <use xlink:href="#DejaVuSans-30" transform="translate(83.789062 0)"/>
       <use xlink:href="#DejaVuSans-2e" transform="translate(147.412109 0)"/>
       <use xlink:href="#DejaVuSans-32" transform="translate(179.199219 0)"/>
       <use xlink:href="#DejaVuSans-30" transform="translate(242.822266 0)"/>
      </g>
     </g>
    </g>
    <g id="xtick_2">
     <g id="line2d_2">
      <g>
       <use xlink:href="#m7220d5864f" x="125.88869" y="398.64351" style="stroke: #000000; stroke-width: 0.8"/>
      </g>
     </g>
     <g id="text_2">
      <!-- 0.00 -->
      <g transform="translate(114.755878 413.241947) scale(0.1 -0.1)">
       <use xlink:href="#DejaVuSans-30"/>
       <use xlink:href="#DejaVuSans-2e" transform="translate(63.623047 0)"/>
       <use xlink:href="#DejaVuSans-30" transform="translate(95.410156 0)"/>
       <use xlink:href="#DejaVuSans-30" transform="translate(159.033203 0)"/>
      </g>
     </g>
    </g>
    <g id="xtick_3">
     <g id="line2d_3">
      <g>
       <use xlink:href="#m7220d5864f" x="156.407168" y="398.64351" style="stroke: #000000; stroke-width: 0.8"/>
      </g>
     </g>
     <g id="text_3">
      <!-- 0.07 -->
      <g transform="translate(145.274356 413.241947) scale(0.1 -0.1)">
       <defs>
        <path id="DejaVuSans-37" d="M 525 4666 
L 3525 4666 
L 3525 4397 
L 1831 0 
L 1172 0 
L 2766 4134 
L 525 4134 
L 525 4666 
z
" transform="scale(0.015625)"/>
       </defs>
       <use xlink:href="#DejaVuSans-30"/>
       <use xlink:href="#DejaVuSans-2e" transform="translate(63.623047 0)"/>
       <use xlink:href="#DejaVuSans-30" transform="translate(95.410156 0)"/>
       <use xlink:href="#DejaVuSans-37" transform="translate(159.033203 0)"/>
      </g>
     </g>
    </g>
    <g id="xtick_4">
     <g id="line2d_4">
      <g>
       <use xlink:href="#m7220d5864f" x="195.645211" y="398.64351" style="stroke: #000000; stroke-width: 0.8"/>
      </g>
     </g>
     <g id="text_4">
      <!-- 0.16 -->
      <g transform="translate(184.512399 413.241947) scale(0.1 -0.1)">
       <defs>
        <path id="DejaVuSans-31" d="M 794 531 
L 1825 531 
L 1825 4091 
L 703 3866 
L 703 4441 
L 1819 4666 
L 2450 4666 
L 2450 531 
L 3481 531 
L 3481 0 
L 794 0 
L 794 531 
z
" transform="scale(0.015625)"/>
        <path id="DejaVuSans-36" d="M 2113 2584 
Q 1688 2584 1439 2293 
Q 1191 2003 1191 1497 
Q 1191 994 1439 701 
Q 1688 409 2113 409 
Q 2538 409 2786 701 
Q 3034 994 3034 1497 
Q 3034 2003 2786 2293 
Q 2538 2584 2113 2584 
z
M 3366 4563 
L 3366 3988 
Q 3128 4100 2886 4159 
Q 2644 4219 2406 4219 
Q 1781 4219 1451 3797 
Q 1122 3375 1075 2522 
Q 1259 2794 1537 2939 
Q 1816 3084 2150 3084 
Q 2853 3084 3261 2657 
Q 3669 2231 3669 1497 
Q 3669 778 3244 343 
Q 2819 -91 2113 -91 
Q 1303 -91 875 529 
Q 447 1150 447 2328 
Q 447 3434 972 4092 
Q 1497 4750 2381 4750 
Q 2619 4750 2861 4703 
Q 3103 4656 3366 4563 
z
" transform="scale(0.015625)"/>
       </defs>
       <use xlink:href="#DejaVuSans-30"/>
       <use xlink:href="#DejaVuSans-2e" transform="translate(63.623047 0)"/>
       <use xlink:href="#DejaVuSans-31" transform="translate(95.410156 0)"/>
       <use xlink:href="#DejaVuSans-36" transform="translate(159.033203 0)"/>
      </g>
     </g>
    </g>
    <g id="xtick_5">
     <g id="line2d_5">
      <g>
       <use xlink:href="#m7220d5864f" x="213.084342" y="398.64351" style="stroke: #000000; stroke-width: 0.8"/>
      </g>
     </g>
     <g id="text_5">
      <!-- 0.20 -->
      <g transform="translate(201.951529 413.241947) scale(0.1 -0.1)">
       <use xlink:href="#DejaVuSans-30"/>
       <use xlink:href="#DejaVuSans-2e" transform="translate(63.623047 0)"/>
       <use xlink:href="#DejaVuSans-32" transform="translate(95.410156 0)"/>
       <use xlink:href="#DejaVuSans-30" transform="translate(159.033203 0)"/>
      </g>
     </g>
    </g>
    <g id="xtick_6">
     <g id="line2d_6">
      <g>
       <use xlink:href="#m7220d5864f" x="300.279993" y="398.64351" style="stroke: #000000; stroke-width: 0.8"/>
      </g>
     </g>
     <g id="text_6">
      <!-- 0.40 -->
      <g transform="translate(289.147181 413.241947) scale(0.1 -0.1)">
       <defs>
        <path id="DejaVuSans-34" d="M 2419 4116 
L 825 1625 
L 2419 1625 
L 2419 4116 
z
M 2253 4666 
L 3047 4666 
L 3047 1625 
L 3713 1625 
L 3713 1100 
L 3047 1100 
L 3047 0 
L 2419 0 
L 2419 1100 
L 313 1100 
L 313 1709 
L 2253 4666 
z
" transform="scale(0.015625)"/>
       </defs>
       <use xlink:href="#DejaVuSans-30"/>
       <use xlink:href="#DejaVuSans-2e" transform="translate(63.623047 0)"/>
       <use xlink:href="#DejaVuSans-34" transform="translate(95.410156 0)"/>
       <use xlink:href="#DejaVuSans-30" transform="translate(159.033203 0)"/>
      </g>
     </g>
    </g>
    <g id="xtick_7">
     <g id="line2d_7">
      <g>
       <use xlink:href="#m7220d5864f" x="387.475645" y="398.64351" style="stroke: #000000; stroke-width: 0.8"/>
      </g>
     </g>
     <g id="text_7">
      <!-- 0.60 -->
      <g transform="translate(376.342832 413.241947) scale(0.1 -0.1)">
       <use xlink:href="#DejaVuSans-30"/>
       <use xlink:href="#DejaVuSans-2e" transform="translate(63.623047 0)"/>
       <use xlink:href="#DejaVuSans-36" transform="translate(95.410156 0)"/>
       <use xlink:href="#DejaVuSans-30" transform="translate(159.033203 0)"/>
      </g>
     </g>
    </g>
    <g id="xtick_8">
     <g id="line2d_8">
      <g>
       <use xlink:href="#m7220d5864f" x="474.671296" y="398.64351" style="stroke: #000000; stroke-width: 0.8"/>
      </g>
     </g>
     <g id="text_8">
      <!-- 0.80 -->
      <g transform="translate(463.538484 413.241947) scale(0.1 -0.1)">
       <defs>
        <path id="DejaVuSans-38" d="M 2034 2216 
Q 1584 2216 1326 1975 
Q 1069 1734 1069 1313 
Q 1069 891 1326 650 
Q 1584 409 2034 409 
Q 2484 409 2743 651 
Q 3003 894 3003 1313 
Q 3003 1734 2745 1975 
Q 2488 2216 2034 2216 
z
M 1403 2484 
Q 997 2584 770 2862 
Q 544 3141 544 3541 
Q 544 4100 942 4425 
Q 1341 4750 2034 4750 
Q 2731 4750 3128 4425 
Q 3525 4100 3525 3541 
Q 3525 3141 3298 2862 
Q 3072 2584 2669 2484 
Q 3125 2378 3379 2068 
Q 3634 1759 3634 1313 
Q 3634 634 3220 271 
Q 2806 -91 2034 -91 
Q 1263 -91 848 271 
Q 434 634 434 1313 
Q 434 1759 690 2068 
Q 947 2378 1403 2484 
z
M 1172 3481 
Q 1172 3119 1398 2916 
Q 1625 2713 2034 2713 
Q 2441 2713 2670 2916 
Q 2900 3119 2900 3481 
Q 2900 3844 2670 4047 
Q 2441 4250 2034 4250 
Q 1625 4250 1398 4047 
Q 1172 3844 1172 3481 
z
" transform="scale(0.015625)"/>
       </defs>
       <use xlink:href="#DejaVuSans-30"/>
       <use xlink:href="#DejaVuSans-2e" transform="translate(63.623047 0)"/>
       <use xlink:href="#DejaVuSans-38" transform="translate(95.410156 0)"/>
       <use xlink:href="#DejaVuSans-30" transform="translate(159.033203 0)"/>
      </g>
     </g>
    </g>
    <g id="xtick_9">
     <g id="line2d_9">
      <g>
       <use xlink:href="#m7220d5864f" x="561.866948" y="398.64351" style="stroke: #000000; stroke-width: 0.8"/>
      </g>
     </g>
     <g id="text_9">
      <!-- 1.00 -->
      <g transform="translate(550.734135 413.241947) scale(0.1 -0.1)">
       <use xlink:href="#DejaVuSans-31"/>
       <use xlink:href="#DejaVuSans-2e" transform="translate(63.623047 0)"/>
       <use xlink:href="#DejaVuSans-30" transform="translate(95.410156 0)"/>
       <use xlink:href="#DejaVuSans-30" transform="translate(159.033203 0)"/>
      </g>
     </g>
    </g>
    <g id="text_10">
     <!-- Time (s) -->
     <g transform="translate(279.814844 426.920073) scale(0.1 -0.1)">
      <defs>
       <path id="DejaVuSans-54" d="M -19 4666 
L 3928 4666 
L 3928 4134 
L 2272 4134 
L 2272 0 
L 1638 0 
L 1638 4134 
L -19 4134 
L -19 4666 
z
" transform="scale(0.015625)"/>
       <path id="DejaVuSans-69" d="M 603 3500 
L 1178 3500 
L 1178 0 
L 603 0 
L 603 3500 
z
M 603 4863 
L 1178 4863 
L 1178 4134 
L 603 4134 
L 603 4863 
z
" transform="scale(0.015625)"/>
       <path id="DejaVuSans-6d" d="M 3328 2828 
Q 3544 3216 3844 3400 
Q 4144 3584 4550 3584 
Q 5097 3584 5394 3201 
Q 5691 2819 5691 2113 
L 5691 0 
L 5113 0 
L 5113 2094 
Q 5113 2597 4934 2840 
Q 4756 3084 4391 3084 
Q 3944 3084 3684 2787 
Q 3425 2491 3425 1978 
L 3425 0 
L 2847 0 
L 2847 2094 
Q 2847 2600 2669 2842 
Q 2491 3084 2119 3084 
Q 1678 3084 1418 2786 
Q 1159 2488 1159 1978 
L 1159 0 
L 581 0 
L 581 3500 
L 1159 3500 
L 1159 2956 
Q 1356 3278 1631 3431 
Q 1906 3584 2284 3584 
Q 2666 3584 2933 3390 
Q 3200 3197 3328 2828 
z
" transform="scale(0.015625)"/>
       <path id="DejaVuSans-65" d="M 3597 1894 
L 3597 1613 
L 953 1613 
Q 991 1019 1311 708 
Q 1631 397 2203 397 
Q 2534 397 2845 478 
Q 3156 559 3463 722 
L 3463 178 
Q 3153 47 2828 -22 
Q 2503 -91 2169 -91 
Q 1331 -91 842 396 
Q 353 884 353 1716 
Q 353 2575 817 3079 
Q 1281 3584 2069 3584 
Q 2775 3584 3186 3129 
Q 3597 2675 3597 1894 
z
M 3022 2063 
Q 3016 2534 2758 2815 
Q 2500 3097 2075 3097 
Q 1594 3097 1305 2825 
Q 1016 2553 972 2059 
L 3022 2063 
z
" transform="scale(0.015625)"/>
       <path id="DejaVuSans-20" transform="scale(0.015625)"/>
       <path id="DejaVuSans-28" d="M 1984 4856 
Q 1566 4138 1362 3434 
Q 1159 2731 1159 2009 
Q 1159 1288 1364 580 
Q 1569 -128 1984 -844 
L 1484 -844 
Q 1016 -109 783 600 
Q 550 1309 550 2009 
Q 550 2706 781 3412 
Q 1013 4119 1484 4856 
L 1984 4856 
z
" transform="scale(0.015625)"/>
       <path id="DejaVuSans-73" d="M 2834 3397 
L 2834 2853 
Q 2591 2978 2328 3040 
Q 2066 3103 1784 3103 
Q 1356 3103 1142 2972 
Q 928 2841 928 2578 
Q 928 2378 1081 2264 
Q 1234 2150 1697 2047 
L 1894 2003 
Q 2506 1872 2764 1633 
Q 3022 1394 3022 966 
Q 3022 478 2636 193 
Q 2250 -91 1575 -91 
Q 1294 -91 989 -36 
Q 684 19 347 128 
L 347 722 
Q 666 556 975 473 
Q 1284 391 1588 391 
Q 1994 391 2212 530 
Q 2431 669 2431 922 
Q 2431 1156 2273 1281 
Q 2116 1406 1581 1522 
L 1381 1569 
Q 847 1681 609 1914 
Q 372 2147 372 2553 
Q 372 3047 722 3315 
Q 1072 3584 1716 3584 
Q 2034 3584 2315 3537 
Q 2597 3491 2834 3397 
z
" transform="scale(0.015625)"/>
       <path id="DejaVuSans-29" d="M 513 4856 
L 1013 4856 
Q 1481 4119 1714 3412 
Q 1947 2706 1947 2009 
Q 1947 1309 1714 600 
Q 1481 -109 1013 -844 
L 513 -844 
Q 928 -128 1133 580 
Q 1338 1288 1338 2009 
Q 1338 2731 1133 3434 
Q 928 4138 513 4856 
z
" transform="scale(0.015625)"/>
      </defs>
      <use xlink:href="#DejaVuSans-54"/>
      <use xlink:href="#DejaVuSans-69" transform="translate(57.958984 0)"/>
      <use xlink:href="#DejaVuSans-6d" transform="translate(85.742188 0)"/>
      <use xlink:href="#DejaVuSans-65" transform="translate(183.154297 0)"/>
      <use xlink:href="#DejaVuSans-20" transform="translate(244.677734 0)"/>
      <use xlink:href="#DejaVuSans-28" transform="translate(276.464844 0)"/>
      <use xlink:href="#DejaVuSans-73" transform="translate(315.478516 0)"/>
      <use xlink:href="#DejaVuSans-29" transform="translate(367.578125 0)"/>
     </g>
    </g>
   </g>
   <g id="matplotlib.axis_2">
    <g id="ytick_1">
     <g id="line2d_10">
      <defs>
       <path id="m86a95c2b39" d="M 0 0 
L -3.5 0 
" style="stroke: #000000; stroke-width: 0.8"/>
      </defs>
      <g>
       <use xlink:href="#m86a95c2b39" x="38.420552" y="372.685091" style="stroke: #000000; stroke-width: 0.8"/>
      </g>
     </g>
     <g id="text_11">
      <!-- −4 -->
      <g transform="translate(16.678365 376.48431) scale(0.1 -0.1)">
       <use xlink:href="#DejaVuSans-2212"/>
       <use xlink:href="#DejaVuSans-34" transform="translate(83.789062 0)"/>
      </g>
     </g>
    </g>
    <g id="ytick_2">
     <g id="line2d_11">
      <g>
       <use xlink:href="#m86a95c2b39" x="38.420552" y="290.533014" style="stroke: #000000; stroke-width: 0.8"/>
      </g>
     </g>
     <g id="text_12">
      <!-- −2 -->
      <g transform="translate(16.678365 294.332233) scale(0.1 -0.1)">
       <use xlink:href="#DejaVuSans-2212"/>
       <use xlink:href="#DejaVuSans-32" transform="translate(83.789062 0)"/>
      </g>
     </g>
    </g>
    <g id="ytick_3">
     <g id="line2d_12">
      <g>
       <use xlink:href="#m86a95c2b39" x="38.420552" y="208.380937" style="stroke: #000000; stroke-width: 0.8"/>
      </g>
     </g>
     <g id="text_13">
      <!-- 0 -->
      <g transform="translate(25.058052 212.180156) scale(0.1 -0.1)">
       <use xlink:href="#DejaVuSans-30"/>
      </g>
     </g>
    </g>
    <g id="ytick_4">
     <g id="line2d_13">
      <g>
       <use xlink:href="#m86a95c2b39" x="38.420552" y="126.228861" style="stroke: #000000; stroke-width: 0.8"/>
      </g>
     </g>
     <g id="text_14">
      <!-- 2 -->
      <g transform="translate(25.058052 130.028079) scale(0.1 -0.1)">
       <use xlink:href="#DejaVuSans-32"/>
      </g>
     </g>
    </g>
    <g id="ytick_5">
     <g id="line2d_14">
      <g>
       <use xlink:href="#m86a95c2b39" x="38.420552" y="44.076784" style="stroke: #000000; stroke-width: 0.8"/>
      </g>
     </g>
     <g id="text_15">
      <!-- 4 -->
      <g transform="translate(25.058052 47.876003) scale(0.1 -0.1)">
       <use xlink:href="#DejaVuSans-34"/>
      </g>
     </g>
    </g>
    <g id="text_16">
     <!-- µV -->
     <g transform="translate(10.598677 214.9825) rotate(-90) scale(0.1 -0.1)">
      <defs>
       <path id="DejaVuSans-b5" d="M 544 -1331 
L 544 3500 
L 1119 3500 
L 1119 1325 
Q 1119 872 1334 640 
Q 1550 409 1972 409 
Q 2434 409 2667 671 
Q 2900 934 2900 1459 
L 2900 3500 
L 3475 3500 
L 3475 806 
Q 3475 619 3529 530 
Q 3584 441 3700 441 
Q 3728 441 3778 458 
Q 3828 475 3916 513 
L 3916 50 
Q 3788 -22 3673 -56 
Q 3559 -91 3450 -91 
Q 3234 -91 3106 31 
Q 2978 153 2931 403 
Q 2775 156 2548 32 
Q 2322 -91 2016 -91 
Q 1697 -91 1473 31 
Q 1250 153 1119 397 
L 1119 -1331 
L 544 -1331 
z
" transform="scale(0.015625)"/>
       <path id="DejaVuSans-56" d="M 1831 0 
L 50 4666 
L 709 4666 
L 2188 738 
L 3669 4666 
L 4325 4666 
L 2547 0 
L 1831 0 
z
" transform="scale(0.015625)"/>
      </defs>
      <use xlink:href="#DejaVuSans-b5"/>
      <use xlink:href="#DejaVuSans-56" transform="translate(63.623047 0)"/>
     </g>
    </g>
   </g>
   <g id="patch_4">
    <path d="M 38.693039 398.64351 
L 561.866948 398.64351 
" style="fill: none; stroke: #000000; stroke-width: 0.8; stroke-linejoin: miter; stroke-linecap: square"/>
   </g>
   <g id="patch_5">
    <path d="M 38.420552 208.380937 
L 561.866948 208.380937 
" style="fill: none; stroke: #000000; stroke-width: 0.8; stroke-linejoin: miter; stroke-linecap: square"/>
   </g>
   <g id="text_17">
    <!-- Oz, O2 (median) -->
    <g transform="translate(250.836875 12.118365) scale(0.12 -0.12)">
     <defs>
      <path id="DejaVuSans-4f" d="M 2522 4238 
Q 1834 4238 1429 3725 
Q 1025 3213 1025 2328 
Q 1025 1447 1429 934 
Q 1834 422 2522 422 
Q 3209 422 3611 934 
Q 4013 1447 4013 2328 
Q 4013 3213 3611 3725 
Q 3209 4238 2522 4238 
z
M 2522 4750 
Q 3503 4750 4090 4092 
Q 4678 3434 4678 2328 
Q 4678 1225 4090 567 
Q 3503 -91 2522 -91 
Q 1538 -91 948 565 
Q 359 1222 359 2328 
Q 359 3434 948 4092 
Q 1538 4750 2522 4750 
z
" transform="scale(0.015625)"/>
      <path id="DejaVuSans-7a" d="M 353 3500 
L 3084 3500 
L 3084 2975 
L 922 459 
L 3084 459 
L 3084 0 
L 275 0 
L 275 525 
L 2438 3041 
L 353 3041 
L 353 3500 
z
" transform="scale(0.015625)"/>
      <path id="DejaVuSans-2c" d="M 750 794 
L 1409 794 
L 1409 256 
L 897 -744 
L 494 -744 
L 750 256 
L 750 794 
z
" transform="scale(0.015625)"/>
      <path id="DejaVuSans-64" d="M 2906 2969 
L 2906 4863 
L 3481 4863 
L 3481 0 
L 2906 0 
L 2906 525 
Q 2725 213 2448 61 
Q 2172 -91 1784 -91 
Q 1150 -91 751 415 
Q 353 922 353 1747 
Q 353 2572 751 3078 
Q 1150 3584 1784 3584 
Q 2172 3584 2448 3432 
Q 2725 3281 2906 2969 
z
M 947 1747 
Q 947 1113 1208 752 
Q 1469 391 1925 391 
Q 2381 391 2643 752 
Q 2906 1113 2906 1747 
Q 2906 2381 2643 2742 
Q 2381 3103 1925 3103 
Q 1469 3103 1208 2742 
Q 947 2381 947 1747 
z
" transform="scale(0.015625)"/>
      <path id="DejaVuSans-61" d="M 2194 1759 
Q 1497 1759 1228 1600 
Q 959 1441 959 1056 
Q 959 750 1161 570 
Q 1363 391 1709 391 
Q 2188 391 2477 730 
Q 2766 1069 2766 1631 
L 2766 1759 
L 2194 1759 
z
M 3341 1997 
L 3341 0 
L 2766 0 
L 2766 531 
Q 2569 213 2275 61 
Q 1981 -91 1556 -91 
Q 1019 -91 701 211 
Q 384 513 384 1019 
Q 384 1609 779 1909 
Q 1175 2209 1959 2209 
L 2766 2209 
L 2766 2266 
Q 2766 2663 2505 2880 
Q 2244 3097 1772 3097 
Q 1472 3097 1187 3025 
Q 903 2953 641 2809 
L 641 3341 
Q 956 3463 1253 3523 
Q 1550 3584 1831 3584 
Q 2591 3584 2966 3190 
Q 3341 2797 3341 1997 
z
" transform="scale(0.015625)"/>
      <path id="DejaVuSans-6e" d="M 3513 2113 
L 3513 0 
L 2938 0 
L 2938 2094 
Q 2938 2591 2744 2837 
Q 2550 3084 2163 3084 
Q 1697 3084 1428 2787 
Q 1159 2491 1159 1978 
L 1159 0 
L 581 0 
L 581 3500 
L 1159 3500 
L 1159 2956 
Q 1366 3272 1645 3428 
Q 1925 3584 2291 3584 
Q 2894 3584 3203 3211 
Q 3513 2838 3513 2113 
z
" transform="scale(0.015625)"/>
     </defs>
     <use xlink:href="#DejaVuSans-4f"/>
     <use xlink:href="#DejaVuSans-7a" transform="translate(78.710938 0)"/>
     <use xlink:href="#DejaVuSans-2c" transform="translate(131.201172 0)"/>
     <use xlink:href="#DejaVuSans-20" transform="translate(162.988281 0)"/>
     <use xlink:href="#DejaVuSans-4f" transform="translate(194.775391 0)"/>
     <use xlink:href="#DejaVuSans-32" transform="translate(273.486328 0)"/>
     <use xlink:href="#DejaVuSans-20" transform="translate(337.109375 0)"/>
     <use xlink:href="#DejaVuSans-28" transform="translate(368.896484 0)"/>
     <use xlink:href="#DejaVuSans-6d" transform="translate(407.910156 0)"/>
     <use xlink:href="#DejaVuSans-65" transform="translate(505.322266 0)"/>
     <use xlink:href="#DejaVuSans-64" transform="translate(566.845703 0)"/>
     <use xlink:href="#DejaVuSans-69" transform="translate(630.322266 0)"/>
     <use xlink:href="#DejaVuSans-61" transform="translate(658.105469 0)"/>
     <use xlink:href="#DejaVuSans-6e" transform="translate(719.384766 0)"/>
     <use xlink:href="#DejaVuSans-29" transform="translate(782.763672 0)"/>
    </g>
   </g>
   <g id="legend_1">
    <g id="patch_6">
     <path d="M 45.420552 55.75274 
L 126.56274 55.75274 
Q 128.56274 55.75274 128.56274 53.75274 
L 128.56274 25.118365 
Q 128.56274 23.118365 126.56274 23.118365 
L 45.420552 23.118365 
Q 43.420552 23.118365 43.420552 25.118365 
L 43.420552 53.75274 
Q 43.420552 55.75274 45.420552 55.75274 
z
" style="fill: #ffffff; opacity: 0.8; stroke: #cccccc; stroke-linejoin: miter"/>
    </g>
    <g id="line2d_15">
     <path d="M 47.420552 31.216803 
L 57.420552 31.216803 
L 67.420552 31.216803 
" style="fill: none; stroke: #1f77b4; stroke-width: 1.5; stroke-linecap: square"/>
    </g>
    <g id="text_18">
     <!-- eerie -->
     <g transform="translate(75.420552 34.716803) scale(0.1 -0.1)">
      <defs>
       <path id="DejaVuSans-72" d="M 2631 2963 
Q 2534 3019 2420 3045 
Q 2306 3072 2169 3072 
Q 1681 3072 1420 2755 
Q 1159 2438 1159 1844 
L 1159 0 
L 581 0 
L 581 3500 
L 1159 3500 
L 1159 2956 
Q 1341 3275 1631 3429 
Q 1922 3584 2338 3584 
Q 2397 3584 2469 3576 
Q 2541 3569 2628 3553 
L 2631 2963 
z
" transform="scale(0.015625)"/>
      </defs>
      <use xlink:href="#DejaVuSans-65"/>
      <use xlink:href="#DejaVuSans-65" transform="translate(61.523438 0)"/>
      <use xlink:href="#DejaVuSans-72" transform="translate(123.046875 0)"/>
      <use xlink:href="#DejaVuSans-69" transform="translate(164.160156 0)"/>
      <use xlink:href="#DejaVuSans-65" transform="translate(191.943359 0)"/>
     </g>
    </g>
    <g id="line2d_16">
     <path d="M 47.420552 45.894928 
L 57.420552 45.894928 
L 67.420552 45.894928 
" style="fill: none; stroke: #ff7f0e; stroke-width: 1.5; stroke-linecap: square"/>
    </g>
    <g id="text_19">
     <!-- non_eerie -->
     <g transform="translate(75.420552 49.394928) scale(0.1 -0.1)">
      <defs>
       <path id="DejaVuSans-6f" d="M 1959 3097 
Q 1497 3097 1228 2736 
Q 959 2375 959 1747 
Q 959 1119 1226 758 
Q 1494 397 1959 397 
Q 2419 397 2687 759 
Q 2956 1122 2956 1747 
Q 2956 2369 2687 2733 
Q 2419 3097 1959 3097 
z
M 1959 3584 
Q 2709 3584 3137 3096 
Q 3566 2609 3566 1747 
Q 3566 888 3137 398 
Q 2709 -91 1959 -91 
Q 1206 -91 779 398 
Q 353 888 353 1747 
Q 353 2609 779 3096 
Q 1206 3584 1959 3584 
z
" transform="scale(0.015625)"/>
       <path id="DejaVuSans-5f" d="M 3263 -1063 
L 3263 -1509 
L -63 -1509 
L -63 -1063 
L 3263 -1063 
z
" transform="scale(0.015625)"/>
      </defs>
      <use xlink:href="#DejaVuSans-6e"/>
      <use xlink:href="#DejaVuSans-6f" transform="translate(63.378906 0)"/>
      <use xlink:href="#DejaVuSans-6e" transform="translate(124.560547 0)"/>
      <use xlink:href="#DejaVuSans-5f" transform="translate(187.939453 0)"/>
      <use xlink:href="#DejaVuSans-65" transform="translate(237.939453 0)"/>
      <use xlink:href="#DejaVuSans-65" transform="translate(299.462891 0)"/>
      <use xlink:href="#DejaVuSans-72" transform="translate(360.986328 0)"/>
      <use xlink:href="#DejaVuSans-69" transform="translate(402.099609 0)"/>
      <use xlink:href="#DejaVuSans-65" transform="translate(429.882812 0)"/>
     </g>
    </g>
   </g>
   <g id="FillBetweenPolyCollection_1">
    <defs>
     <path id="m403936d61c" d="M 38.420552 -261.315683 
L 38.420552 -240.814166 
L 40.123593 -233.043636 
L 41.826633 -222.268427 
L 43.529673 -214.836263 
L 45.232713 -215.962322 
L 46.935753 -223.58122 
L 48.638793 -231.962668 
L 50.341833 -232.93812 
L 52.044873 -224.586267 
L 53.747913 -213.468262 
L 55.450953 -207.550193 
L 57.153993 -210.280011 
L 58.857033 -219.782567 
L 60.560073 -228.733564 
L 62.263113 -230.200278 
L 63.966154 -221.904475 
L 65.669194 -208.59912 
L 67.372234 -197.863608 
L 69.075274 -197.031671 
L 70.778314 -202.93837 
L 72.481354 -207.728162 
L 74.184394 -205.365332 
L 75.887434 -194.694026 
L 77.590474 -180.0699 
L 79.293514 -169.46573 
L 80.996554 -168.270068 
L 82.699594 -177.684587 
L 84.402634 -191.811491 
L 86.105674 -206.060513 
L 87.808714 -217.434081 
L 89.511755 -225.25807 
L 91.214795 -230.788035 
L 92.917835 -235.332514 
L 94.620875 -236.531595 
L 96.323915 -231.040801 
L 98.026955 -220.57453 
L 99.729995 -209.71201 
L 101.433035 -203.392354 
L 103.136075 -203.307354 
L 104.839115 -208.815561 
L 106.542155 -215.665017 
L 108.245195 -221.231747 
L 109.948235 -224.518152 
L 111.651275 -226.812055 
L 113.354315 -228.547909 
L 115.057356 -229.929422 
L 116.760396 -229.965846 
L 118.463436 -229.40448 
L 120.166476 -228.800486 
L 121.869516 -228.387856 
L 123.572556 -227.072166 
L 125.275596 -223.893013 
L 126.978636 -216.523505 
L 128.681676 -203.280786 
L 130.384716 -187.417038 
L 132.087756 -176.112797 
L 133.790796 -177.029288 
L 135.493836 -191.821532 
L 137.196876 -214.592826 
L 138.899916 -233.773762 
L 140.602957 -239.681427 
L 142.305997 -229.289833 
L 144.009037 -207.335531 
L 145.712077 -186.590541 
L 147.415117 -178.947808 
L 149.118157 -189.176135 
L 150.821197 -209.551074 
L 152.524237 -229.510133 
L 154.227277 -237.64931 
L 155.930317 -228.882183 
L 157.633357 -207.952263 
L 159.336397 -185.107795 
L 161.039437 -168.308191 
L 162.742477 -162.360919 
L 164.445517 -163.851175 
L 166.148558 -168.505772 
L 167.851598 -171.114474 
L 169.554638 -174.044897 
L 171.257678 -184.170276 
L 172.960718 -206.290881 
L 174.663758 -241.470611 
L 176.366798 -284.928755 
L 178.069838 -323.514244 
L 179.772878 -348.084391 
L 181.475918 -353.542086 
L 183.178958 -344.893257 
L 184.881998 -331.298706 
L 186.585038 -321.227891 
L 188.288078 -318.775857 
L 189.991118 -322.933763 
L 191.694159 -328.569865 
L 193.397199 -331.204641 
L 195.100239 -328.885672 
L 196.803279 -322.509329 
L 198.506319 -314.264989 
L 200.209359 -305.129087 
L 201.912399 -294.554717 
L 203.615439 -282.064177 
L 205.318479 -266.853515 
L 207.021519 -250.720018 
L 208.724559 -236.537512 
L 210.427599 -226.033377 
L 212.130639 -219.928378 
L 213.833679 -215.363103 
L 215.536719 -210.482515 
L 217.23976 -203.734282 
L 218.9428 -197.913448 
L 220.64584 -196.017049 
L 222.34888 -200.46811 
L 224.05192 -213.091418 
L 225.75496 -229.11285 
L 227.458 -244.174813 
L 229.16104 -249.553854 
L 230.86408 -241.516975 
L 232.56712 -221.989407 
L 234.27016 -197.85962 
L 235.9732 -177.645143 
L 237.67624 -168.877804 
L 239.37928 -173.684199 
L 241.08232 -188.080292 
L 242.785361 -204.846136 
L 244.488401 -216.163157 
L 246.191441 -218.50951 
L 247.894481 -214.130071 
L 249.597521 -209.303275 
L 251.300561 -208.433714 
L 253.003601 -214.743026 
L 254.706641 -226.068369 
L 256.409681 -238.273876 
L 258.112721 -246.556603 
L 259.815761 -250.509987 
L 261.518801 -254.009051 
L 263.221841 -259.115464 
L 264.924881 -267.583302 
L 266.627921 -276.307197 
L 268.330962 -281.525889 
L 270.034002 -280.797171 
L 271.737042 -275.097678 
L 273.440082 -269.208734 
L 275.143122 -264.993079 
L 276.846162 -263.977756 
L 278.549202 -262.316846 
L 280.252242 -256.67821 
L 281.955282 -245.548088 
L 283.658322 -234.68772 
L 285.361362 -226.738433 
L 287.064402 -225.448467 
L 288.767442 -229.488975 
L 290.470482 -234.615201 
L 292.173522 -237.516472 
L 293.876563 -237.573951 
L 295.579603 -236.878722 
L 297.282643 -238.657823 
L 298.985683 -242.061861 
L 300.688723 -243.872459 
L 302.391763 -241.803233 
L 304.094803 -237.717997 
L 305.797843 -236.350555 
L 307.500883 -245.763046 
L 309.203923 -268.29347 
L 310.906963 -297.852595 
L 312.610003 -323.063339 
L 314.313043 -337.17755 
L 316.016083 -339.176908 
L 317.719123 -335.777615 
L 319.422164 -334.451054 
L 321.125204 -338.848068 
L 322.828244 -344.3608 
L 324.531284 -345.222644 
L 326.234324 -339.649314 
L 327.937364 -332.254993 
L 329.640404 -332.264925 
L 331.343444 -344.431771 
L 333.046484 -363.811575 
L 334.749524 -381.183753 
L 336.452564 -384.564152 
L 338.155604 -372.870939 
L 339.858644 -355.120247 
L 341.561684 -343.196199 
L 343.264724 -345.134873 
L 344.967765 -356.460487 
L 346.670805 -366.244836 
L 348.373845 -363.364764 
L 350.076885 -347.829339 
L 351.779925 -328.687451 
L 353.482965 -318.66593 
L 355.186005 -323.175662 
L 356.889045 -337.122509 
L 358.592085 -349.554061 
L 360.295125 -348.575031 
L 361.998165 -331.781125 
L 363.701205 -308.590562 
L 365.404245 -289.748547 
L 367.107285 -285.298653 
L 368.810326 -293.513171 
L 370.513366 -306.810088 
L 372.216406 -314.705546 
L 373.919446 -313.652432 
L 375.622486 -307.203395 
L 377.325526 -301.568606 
L 379.028566 -300.19887 
L 380.731606 -303.72983 
L 382.434646 -307.956322 
L 384.137686 -310.738025 
L 385.840726 -309.042404 
L 387.543766 -305.063468 
L 389.246806 -301.667091 
L 390.949846 -299.862628 
L 392.652886 -296.622564 
L 394.355927 -288.280705 
L 396.058967 -275.192589 
L 397.762007 -259.969505 
L 399.465047 -247.231476 
L 401.168087 -240.643189 
L 402.871127 -240.196004 
L 404.574167 -242.128406 
L 406.277207 -242.395055 
L 407.980247 -238.213791 
L 409.683287 -229.348182 
L 411.386327 -220.255341 
L 413.089367 -213.715908 
L 414.792407 -209.804867 
L 416.495447 -205.031072 
L 418.198487 -197.967515 
L 419.901528 -188.13486 
L 421.604568 -178.326271 
L 423.307608 -171.773612 
L 425.010648 -171.039552 
L 426.713688 -173.303232 
L 428.416728 -175.72254 
L 430.119768 -175.445104 
L 431.822808 -171.42742 
L 433.525848 -166.684635 
L 435.228888 -162.060314 
L 436.931928 -157.621717 
L 438.634968 -151.932795 
L 440.338008 -142.373716 
L 442.041048 -130.686657 
L 443.744088 -120.679572 
L 445.447129 -117.217336 
L 447.150169 -123.219529 
L 448.853209 -136.513148 
L 450.556249 -152.276656 
L 452.259289 -163.037029 
L 453.962329 -163.347046 
L 455.665369 -153.209498 
L 457.368409 -139.487318 
L 459.071449 -129.535961 
L 460.774489 -126.821896 
L 462.477529 -131.363053 
L 464.180569 -138.412823 
L 465.883609 -143.01736 
L 467.586649 -141.822813 
L 469.289689 -134.688513 
L 470.99273 -124.731162 
L 472.69577 -115.21138 
L 474.39881 -108.953989 
L 476.10185 -103.947599 
L 477.80489 -98.584034 
L 479.50793 -92.2367 
L 481.21097 -85.63177 
L 482.91401 -82.071994 
L 484.61705 -83.994464 
L 486.32009 -94.567697 
L 488.02313 -112.229638 
L 489.72617 -132.534487 
L 491.42921 -149.532543 
L 493.13225 -158.01856 
L 494.83529 -155.904756 
L 496.538331 -141.902919 
L 498.241371 -122.082316 
L 499.944411 -103.327627 
L 501.647451 -91.343361 
L 503.350491 -88.331537 
L 505.053531 -92.260581 
L 506.756571 -98.302391 
L 508.459611 -99.8571 
L 510.162651 -94.725277 
L 511.865691 -87.767693 
L 513.568731 -85.873254 
L 515.271771 -94.131379 
L 516.974811 -110.006265 
L 518.677851 -122.571793 
L 520.380891 -123.926021 
L 522.083932 -110.198731 
L 523.786972 -89.189932 
L 525.490012 -73.680094 
L 527.193052 -73.162159 
L 528.896092 -87.874708 
L 530.599132 -107.236274 
L 532.302172 -116.966453 
L 534.005212 -111.075488 
L 535.708252 -95.539872 
L 537.411292 -83.170554 
L 539.114332 -83.783555 
L 540.817372 -97.445911 
L 542.520412 -115.43433 
L 544.223452 -126.48752 
L 545.926492 -123.673933 
L 547.629533 -110.278277 
L 549.332573 -93.344119 
L 551.035613 -82.198656 
L 552.738653 -78.383474 
L 554.441693 -79.183121 
L 556.144733 -79.529028 
L 557.847773 -76.656583 
L 559.550813 -73.377706 
L 561.253853 -72.312876 
L 561.253853 -104.056147 
L 561.253853 -104.056147 
L 559.550813 -105.937669 
L 557.847773 -108.954668 
L 556.144733 -110.827316 
L 554.441693 -109.774906 
L 552.738653 -109.392144 
L 551.035613 -112.329143 
L 549.332573 -123.230594 
L 547.629533 -139.796142 
L 545.926492 -155.364544 
L 544.223452 -159.995051 
L 542.520412 -150.110741 
L 540.817372 -131.210614 
L 539.114332 -116.928067 
L 537.411292 -116.645938 
L 535.708252 -129.60863 
L 534.005212 -145.396827 
L 532.302172 -150.804932 
L 530.599132 -140.811912 
L 528.896092 -122.304395 
L 527.193052 -107.24502 
L 525.490012 -107.146666 
L 523.786972 -121.856362 
L 522.083932 -142.860938 
L 520.380891 -157.553832 
L 518.677851 -157.260709 
L 516.974811 -144.976574 
L 515.271771 -130.877829 
L 513.568731 -123.541398 
L 511.865691 -125.430304 
L 510.162651 -132.219727 
L 508.459611 -136.798664 
L 506.756571 -134.302582 
L 505.053531 -127.053759 
L 503.350491 -121.484598 
L 501.647451 -123.076111 
L 499.944411 -135.587377 
L 498.241371 -154.676539 
L 496.538331 -173.923047 
L 494.83529 -187.002798 
L 493.13225 -189.637144 
L 491.42921 -181.220703 
L 489.72617 -163.417852 
L 488.02313 -143.877707 
L 486.32009 -127.498389 
L 484.61705 -117.604807 
L 482.91401 -115.787897 
L 481.21097 -119.57724 
L 479.50793 -125.465876 
L 477.80489 -130.855078 
L 476.10185 -134.542478 
L 474.39881 -138.91427 
L 472.69577 -146.747297 
L 470.99273 -157.421129 
L 469.289689 -168.609288 
L 467.586649 -176.154868 
L 465.883609 -176.667787 
L 464.180569 -171.125557 
L 462.477529 -163.700027 
L 460.774489 -159.948669 
L 459.071449 -163.491372 
L 457.368409 -173.982995 
L 455.665369 -186.097205 
L 453.962329 -194.028521 
L 452.259289 -193.396174 
L 450.556249 -183.377452 
L 448.853209 -168.842573 
L 447.150169 -156.336987 
L 445.447129 -152.004984 
L 443.744088 -156.631135 
L 442.041048 -166.929281 
L 440.338008 -177.04513 
L 438.634968 -185.153352 
L 436.931928 -190.117312 
L 435.228888 -194.357004 
L 433.525848 -199.409491 
L 431.822808 -204.688927 
L 430.119768 -207.765796 
L 428.416728 -207.963251 
L 426.713688 -205.162465 
L 425.010648 -203.360863 
L 423.307608 -205.297294 
L 421.604568 -212.062842 
L 419.901528 -222.495771 
L 418.198487 -232.007845 
L 416.495447 -237.764597 
L 414.792407 -241.036869 
L 413.089367 -245.577759 
L 411.386327 -253.516586 
L 409.683287 -263.274859 
L 407.980247 -272.708821 
L 406.277207 -278.139383 
L 404.574167 -278.215926 
L 402.871127 -275.243955 
L 401.168087 -275.695824 
L 399.465047 -282.630714 
L 397.762007 -295.99124 
L 396.058967 -311.048836 
L 394.355927 -322.480616 
L 392.652886 -329.862041 
L 390.949846 -332.547079 
L 389.246806 -334.326054 
L 387.543766 -336.358818 
L 385.840726 -340.213837 
L 384.137686 -343.398938 
L 382.434646 -343.276204 
L 380.731606 -339.235954 
L 379.028566 -335.840551 
L 377.325526 -336.543181 
L 375.622486 -341.953958 
L 373.919446 -346.75895 
L 372.216406 -346.434197 
L 370.513366 -336.974718 
L 368.810326 -323.605365 
L 367.107285 -315.795222 
L 365.404245 -320.911202 
L 363.701205 -339.642591 
L 361.998165 -364.161873 
L 360.295125 -382.504518 
L 358.592085 -385.568126 
L 356.889045 -372.782543 
L 355.186005 -356.779119 
L 353.482965 -349.692136 
L 351.779925 -358.841842 
L 350.076885 -378.577948 
L 348.373845 -394.66102 
L 346.670805 -397.920779 
L 344.967765 -388.208094 
L 343.264724 -375.440936 
L 341.561684 -372.841766 
L 339.858644 -384.18622 
L 338.155604 -401.701322 
L 336.452564 -413.881635 
L 334.749524 -411.737736 
L 333.046484 -395.761621 
L 331.343444 -375.549948 
L 329.640404 -363.365579 
L 327.937364 -364.259946 
L 326.234324 -372.84668 
L 324.531284 -379.07117 
L 322.828244 -377.768696 
L 321.125204 -370.978004 
L 319.422164 -365.538884 
L 317.719123 -365.290663 
L 316.016083 -368.690951 
L 314.313043 -367.889184 
L 312.610003 -354.542114 
L 310.906963 -329.092261 
L 309.203923 -299.704607 
L 307.500883 -276.488749 
L 305.797843 -265.730009 
L 304.094803 -266.86268 
L 302.391763 -272.768535 
L 300.688723 -275.584398 
L 298.985683 -273.803942 
L 297.282643 -270.057535 
L 295.579603 -267.854044 
L 293.876563 -267.551901 
L 292.173522 -267.210188 
L 290.470482 -263.783438 
L 288.767442 -258.483237 
L 287.064402 -253.623939 
L 285.361362 -255.072301 
L 283.658322 -263.689962 
L 281.955282 -276.61908 
L 280.252242 -288.134917 
L 278.549202 -293.910016 
L 276.846162 -295.553384 
L 275.143122 -295.444718 
L 273.440082 -297.792158 
L 271.737042 -303.593781 
L 270.034002 -309.777371 
L 268.330962 -311.877065 
L 266.627921 -306.823394 
L 264.924881 -297.217474 
L 263.221841 -288.026313 
L 261.518801 -281.830833 
L 259.815761 -277.950015 
L 258.112721 -273.618198 
L 256.409681 -266.218981 
L 254.706641 -254.601868 
L 253.003601 -242.909197 
L 251.300561 -236.575447 
L 249.597521 -237.145254 
L 247.894481 -242.916655 
L 246.191441 -248.356711 
L 244.488401 -246.349055 
L 242.785361 -234.558917 
L 241.08232 -215.695603 
L 239.37928 -198.709181 
L 237.67624 -192.992338 
L 235.9732 -202.093889 
L 234.27016 -223.193552 
L 232.56712 -249.271395 
L 230.86408 -268.864749 
L 229.16104 -276.240832 
L 227.458 -271.164295 
L 225.75496 -256.89429 
L 224.05192 -240.542583 
L 222.34888 -227.495982 
L 220.64584 -221.800489 
L 218.9428 -222.699638 
L 217.23976 -227.757112 
L 215.536719 -232.963409 
L 213.833679 -237.467708 
L 212.130639 -242.084697 
L 210.427599 -248.705697 
L 208.724559 -258.838991 
L 207.021519 -272.337873 
L 205.318479 -288.007717 
L 203.615439 -302.928703 
L 201.912399 -315.748541 
L 200.209359 -326.423709 
L 198.506319 -336.193195 
L 196.803279 -345.005555 
L 195.100239 -352.443986 
L 193.397199 -355.814486 
L 191.694159 -352.708964 
L 189.991118 -345.512737 
L 188.288078 -339.61997 
L 186.585038 -340.850124 
L 184.881998 -351.657045 
L 183.178958 -367.035643 
L 181.475918 -377.230483 
L 179.772878 -371.430062 
L 178.069838 -346.940392 
L 176.366798 -308.355516 
L 174.663758 -265.852663 
L 172.960718 -229.533716 
L 171.257678 -206.505558 
L 169.554638 -196.660347 
L 167.851598 -193.873936 
L 166.148558 -190.59853 
L 164.445517 -186.540127 
L 162.742477 -185.934617 
L 161.039437 -192.346521 
L 159.336397 -208.418277 
L 157.633357 -231.242698 
L 155.930317 -250.492116 
L 154.227277 -257.446143 
L 152.524237 -248.526106 
L 150.821197 -228.628097 
L 149.118157 -209.456378 
L 147.415117 -200.955819 
L 145.712077 -209.695928 
L 144.009037 -229.48391 
L 142.305997 -249.932871 
L 140.602957 -258.801694 
L 138.899916 -252.537952 
L 137.196876 -232.630561 
L 135.493836 -209.546421 
L 133.790796 -195.618357 
L 132.087756 -194.632166 
L 130.384716 -205.260417 
L 128.681676 -220.63489 
L 126.978636 -233.982532 
L 125.275596 -242.027917 
L 123.572556 -244.192719 
L 121.869516 -243.898272 
L 120.166476 -244.042312 
L 118.463436 -246.331568 
L 116.760396 -248.608915 
L 115.057356 -249.435334 
L 113.354315 -248.162667 
L 111.651275 -246.559864 
L 109.948235 -243.971391 
L 108.245195 -239.083354 
L 106.542155 -231.270234 
L 104.839115 -223.224402 
L 103.136075 -218.147084 
L 101.433035 -219.306382 
L 99.729995 -226.719713 
L 98.026955 -237.482742 
L 96.323915 -247.248449 
L 94.620875 -252.512559 
L 92.917835 -252.964924 
L 91.214795 -249.091773 
L 89.511755 -241.341438 
L 87.808714 -232.626374 
L 86.105674 -221.829828 
L 84.402634 -208.117939 
L 82.699594 -193.859168 
L 80.996554 -184.962084 
L 79.293514 -185.930899 
L 77.590474 -195.730081 
L 75.887434 -210.18543 
L 74.184394 -221.346822 
L 72.481354 -223.006398 
L 70.778314 -218.054019 
L 69.075274 -213.570091 
L 67.372234 -216.200634 
L 65.669194 -226.485889 
L 63.966154 -240.267582 
L 62.263113 -249.692087 
L 60.560073 -248.19881 
L 58.857033 -237.705616 
L 57.153993 -225.915432 
L 55.450953 -222.534413 
L 53.747913 -229.257878 
L 52.044873 -241.272434 
L 50.341833 -249.374014 
L 48.638793 -248.899638 
L 46.935753 -241.110226 
L 45.232713 -232.664435 
L 43.529673 -230.839271 
L 41.826633 -238.904843 
L 40.123593 -251.992669 
L 38.420552 -261.315683 
z
" style="stroke: #1f77b4; stroke-opacity: 0.3"/>
    </defs>
    <g>
     <use xlink:href="#m403936d61c" x="0" y="432" style="fill: #1f77b4; fill-opacity: 0.3; stroke: #1f77b4; stroke-opacity: 0.3"/>
    </g>
   </g>
   <g id="FillBetweenPolyCollection_2">
    <defs>
     <path id="mb65ee3a542" d="M 38.420552 -283.293339 
L 38.420552 -272.05368 
L 40.123593 -272.736906 
L 41.826633 -258.448123 
L 43.529673 -237.085558 
L 45.232713 -220.1607 
L 46.935753 -216.671526 
L 48.638793 -225.82714 
L 50.341833 -239.842846 
L 52.044873 -249.122622 
L 53.747913 -247.8502 
L 55.450953 -238.023822 
L 57.153993 -225.999404 
L 58.857033 -216.928794 
L 60.560073 -213.342572 
L 62.263113 -215.313657 
L 63.966154 -221.052624 
L 65.669194 -229.312934 
L 67.372234 -237.867567 
L 69.075274 -243.449046 
L 70.778314 -244.333399 
L 72.481354 -239.656272 
L 74.184394 -230.695212 
L 75.887434 -221.862193 
L 77.590474 -217.141186 
L 79.293514 -218.402786 
L 80.996554 -222.655687 
L 82.699594 -224.632904 
L 84.402634 -220.947931 
L 86.105674 -212.080724 
L 87.808714 -202.877073 
L 89.511755 -199.18558 
L 91.214795 -202.806408 
L 92.917835 -210.403724 
L 94.620875 -216.209997 
L 96.323915 -216.040359 
L 98.026955 -211.029219 
L 99.729995 -206.082283 
L 101.433035 -205.342961 
L 103.136075 -208.173212 
L 104.839115 -210.987439 
L 106.542155 -209.339547 
L 108.245195 -201.606623 
L 109.948235 -191.436825 
L 111.651275 -185.703788 
L 113.354315 -188.33447 
L 115.057356 -197.856299 
L 116.760396 -209.160752 
L 118.463436 -215.85539 
L 120.166476 -214.495778 
L 121.869516 -207.009783 
L 123.572556 -198.436443 
L 125.275596 -193.487489 
L 126.978636 -193.276311 
L 128.681676 -196.182076 
L 130.384716 -199.563289 
L 132.087756 -200.801055 
L 133.790796 -199.101924 
L 135.493836 -196.860579 
L 137.196876 -196.150989 
L 138.899916 -198.134984 
L 140.602957 -203.019327 
L 142.305997 -208.962608 
L 144.009037 -211.709005 
L 145.712077 -209.01497 
L 147.415117 -200.310557 
L 149.118157 -189.258363 
L 150.821197 -180.833667 
L 152.524237 -178.194793 
L 154.227277 -182.284989 
L 155.930317 -190.092315 
L 157.633357 -196.958033 
L 159.336397 -198.788957 
L 161.039437 -195.519347 
L 162.742477 -191.733985 
L 164.445517 -193.110481 
L 166.148558 -202.927843 
L 167.851598 -218.490448 
L 169.554638 -234.633128 
L 171.257678 -247.819243 
L 172.960718 -257.835604 
L 174.663758 -267.968874 
L 176.366798 -282.455129 
L 178.069838 -301.447701 
L 179.772878 -322.282381 
L 181.475918 -339.367552 
L 183.178958 -349.389915 
L 184.881998 -352.823888 
L 186.585038 -353.515097 
L 188.288078 -356.036126 
L 189.991118 -360.445626 
L 191.694159 -363.703645 
L 193.397199 -362.30141 
L 195.100239 -356.05227 
L 196.803279 -347.269021 
L 198.506319 -340.486848 
L 200.209359 -337.693291 
L 201.912399 -336.307778 
L 203.615439 -329.347527 
L 205.318479 -312.289947 
L 207.021519 -284.622042 
L 208.724559 -251.726147 
L 210.427599 -222.317603 
L 212.130639 -204.101696 
L 213.833679 -199.765364 
L 215.536719 -206.867139 
L 217.23976 -218.804346 
L 218.9428 -228.880604 
L 220.64584 -233.534856 
L 222.34888 -232.973983 
L 224.05192 -230.066914 
L 225.75496 -228.508563 
L 227.458 -230.837545 
L 229.16104 -237.707624 
L 230.86408 -246.13938 
L 232.56712 -251.883015 
L 234.27016 -252.593129 
L 235.9732 -248.536592 
L 237.67624 -243.381938 
L 239.37928 -241.189571 
L 241.08232 -243.602063 
L 242.785361 -248.49435 
L 244.488401 -251.505135 
L 246.191441 -247.604182 
L 247.894481 -236.116483 
L 249.597521 -221.809318 
L 251.300561 -212.987085 
L 253.003601 -214.692042 
L 254.706641 -226.640101 
L 256.409681 -242.348236 
L 258.112721 -254.825521 
L 259.815761 -260.130234 
L 261.518801 -259.59559 
L 263.221841 -259.223901 
L 264.924881 -264.062124 
L 266.627921 -275.407526 
L 268.330962 -287.283654 
L 270.034002 -292.159883 
L 271.737042 -285.470326 
L 273.440082 -270.266091 
L 275.143122 -255.258146 
L 276.846162 -249.409962 
L 278.549202 -255.139516 
L 280.252242 -267.347413 
L 281.955282 -276.196438 
L 283.658322 -274.609313 
L 285.361362 -262.611145 
L 287.064402 -247.504072 
L 288.767442 -238.98727 
L 290.470482 -243.214556 
L 292.173522 -258.521537 
L 293.876563 -278.480024 
L 295.579603 -293.52258 
L 297.282643 -299.127721 
L 298.985683 -295.55286 
L 300.688723 -288.405446 
L 302.391763 -283.260107 
L 304.094803 -282.882023 
L 305.797843 -286.798683 
L 307.500883 -293.592209 
L 309.203923 -300.777673 
L 310.906963 -308.109449 
L 312.610003 -314.191325 
L 314.313043 -317.162741 
L 316.016083 -315.074018 
L 317.719123 -307.742412 
L 319.422164 -298.759928 
L 321.125204 -293.878309 
L 322.828244 -297.031831 
L 324.531284 -309.078746 
L 326.234324 -324.761752 
L 327.937364 -336.589822 
L 329.640404 -338.752404 
L 331.343444 -331.28922 
L 333.046484 -320.480151 
L 334.749524 -314.427628 
L 336.452564 -317.454644 
L 338.155604 -326.379929 
L 339.858644 -332.788651 
L 341.561684 -329.779246 
L 343.264724 -316.618453 
L 344.967765 -298.347399 
L 346.670805 -283.646078 
L 348.373845 -278.607486 
L 350.076885 -284.121215 
L 351.779925 -294.942882 
L 353.482965 -303.925774 
L 355.186005 -306.446923 
L 356.889045 -302.530357 
L 358.592085 -295.359225 
L 360.295125 -288.855633 
L 361.998165 -284.793785 
L 363.701205 -283.554499 
L 365.404245 -283.347182 
L 367.107285 -283.607716 
L 368.810326 -284.379441 
L 370.513366 -285.771701 
L 372.216406 -286.477287 
L 373.919446 -285.4401 
L 375.622486 -281.167457 
L 377.325526 -273.886087 
L 379.028566 -267.009906 
L 380.731606 -264.206102 
L 382.434646 -267.192272 
L 384.137686 -274.856295 
L 385.840726 -283.488832 
L 387.543766 -288.409786 
L 389.246806 -286.434854 
L 390.949846 -277.952035 
L 392.652886 -266.981222 
L 394.355927 -258.631128 
L 396.058967 -256.818115 
L 397.762007 -262.037037 
L 399.465047 -270.896514 
L 401.168087 -278.283248 
L 402.871127 -280.455114 
L 404.574167 -276.76322 
L 406.277207 -270.408804 
L 407.980247 -264.685452 
L 409.683287 -261.365186 
L 411.386327 -258.930598 
L 413.089367 -254.298689 
L 414.792407 -244.611799 
L 416.495447 -230.596889 
L 418.198487 -217.851911 
L 419.901528 -211.368225 
L 421.604568 -213.195754 
L 423.307608 -221.282362 
L 425.010648 -230.392436 
L 426.713688 -233.774474 
L 428.416728 -228.770162 
L 430.119768 -217.388299 
L 431.822808 -205.287111 
L 433.525848 -197.760241 
L 435.228888 -196.625081 
L 436.931928 -199.323146 
L 438.634968 -201.691686 
L 440.338008 -200.454054 
L 442.041048 -195.731134 
L 443.744088 -191.267642 
L 445.447129 -189.5691 
L 447.150169 -192.090284 
L 448.853209 -195.937683 
L 450.556249 -196.647521 
L 452.259289 -192.15686 
L 453.962329 -184.403617 
L 455.665369 -177.499197 
L 457.368409 -174.222566 
L 459.071449 -175.080645 
L 460.774489 -176.756842 
L 462.477529 -174.839002 
L 464.180569 -167.812448 
L 465.883609 -156.502448 
L 467.586649 -146.72198 
L 469.289689 -142.678979 
L 470.99273 -144.561045 
L 472.69577 -148.888259 
L 474.39881 -150.558066 
L 476.10185 -146.321161 
L 477.80489 -137.930826 
L 479.50793 -130.052065 
L 481.21097 -127.437845 
L 482.91401 -131.049838 
L 484.61705 -137.808692 
L 486.32009 -141.975835 
L 488.02313 -139.277288 
L 489.72617 -130.619891 
L 491.42921 -119.697707 
L 493.13225 -111.460569 
L 494.83529 -109.362455 
L 496.538331 -112.907085 
L 498.241371 -118.23507 
L 499.944411 -120.52388 
L 501.647451 -116.975309 
L 503.350491 -109.220198 
L 505.053531 -100.226979 
L 506.756571 -94.177624 
L 508.459611 -92.373132 
L 510.162651 -94.965436 
L 511.865691 -99.940291 
L 513.568731 -104.659513 
L 515.271771 -107.677625 
L 516.974811 -109.229149 
L 518.677851 -111.069271 
L 520.380891 -113.295289 
L 522.083932 -115.688439 
L 523.786972 -117.832712 
L 525.490012 -118.571431 
L 527.193052 -118.049229 
L 528.896092 -117.967246 
L 530.599132 -119.536722 
L 532.302172 -122.456943 
L 534.005212 -124.874282 
L 535.708252 -123.475211 
L 537.411292 -117.935924 
L 539.114332 -109.215344 
L 540.817372 -101.995464 
L 542.520412 -99.769753 
L 544.223452 -103.200587 
L 545.926492 -109.963073 
L 547.629533 -114.766066 
L 549.332573 -114.226537 
L 551.035613 -107.690893 
L 552.738653 -98.936003 
L 554.441693 -92.225863 
L 556.144733 -90.826679 
L 557.847773 -93.943069 
L 559.550813 -97.839454 
L 561.253853 -100.017753 
L 561.253853 -116.322223 
L 561.253853 -116.322223 
L 559.550813 -113.580266 
L 557.847773 -109.726253 
L 556.144733 -107.685233 
L 554.441693 -109.87528 
L 552.738653 -116.940151 
L 551.035613 -125.624779 
L 549.332573 -131.818291 
L 547.629533 -131.966404 
L 545.926492 -126.444765 
L 544.223452 -119.23741 
L 542.520412 -115.472616 
L 540.817372 -118.171459 
L 539.114332 -125.849787 
L 537.411292 -134.210248 
L 535.708252 -139.776548 
L 534.005212 -140.965533 
L 532.302172 -139.058799 
L 530.599132 -136.357459 
L 528.896092 -134.746485 
L 527.193052 -134.718645 
L 525.490012 -135.362764 
L 523.786972 -134.532304 
L 522.083932 -132.616805 
L 520.380891 -129.885815 
L 518.677851 -127.819004 
L 516.974811 -127.052258 
L 515.271771 -125.38853 
L 513.568731 -122.164715 
L 511.865691 -117.148597 
L 510.162651 -112.12436 
L 508.459611 -108.919826 
L 506.756571 -110.196282 
L 505.053531 -116.89722 
L 503.350491 -126.21978 
L 501.647451 -134.01659 
L 499.944411 -136.917459 
L 498.241371 -134.552097 
L 496.538331 -129.0591 
L 494.83529 -125.103605 
L 493.13225 -127.271729 
L 491.42921 -135.64986 
L 489.72617 -147.54445 
L 488.02313 -157.135308 
L 486.32009 -159.869946 
L 484.61705 -155.892341 
L 482.91401 -148.74141 
L 481.21097 -144.355986 
L 479.50793 -146.002612 
L 477.80489 -153.043187 
L 476.10185 -161.054202 
L 474.39881 -165.473217 
L 472.69577 -164.336072 
L 470.99273 -160.745441 
L 469.289689 -159.071448 
L 467.586649 -163.307705 
L 465.883609 -172.919638 
L 464.180569 -184.493629 
L 462.477529 -192.152037 
L 460.774489 -193.843231 
L 459.071449 -191.877418 
L 457.368409 -190.700045 
L 455.665369 -193.648206 
L 453.962329 -200.477037 
L 452.259289 -208.037628 
L 450.556249 -212.167919 
L 448.853209 -211.185433 
L 447.150169 -207.424833 
L 445.447129 -204.760586 
L 443.744088 -206.235525 
L 442.041048 -211.375438 
L 440.338008 -216.475593 
L 438.634968 -218.029116 
L 436.931928 -216.111565 
L 435.228888 -213.492179 
L 433.525848 -214.530324 
L 431.822808 -221.36674 
L 430.119768 -233.106262 
L 428.416728 -244.158222 
L 426.713688 -249.052157 
L 425.010648 -245.880559 
L 423.307608 -237.297827 
L 421.604568 -229.524536 
L 419.901528 -228.512159 
L 418.198487 -235.880885 
L 416.495447 -249.017111 
L 414.792407 -262.284445 
L 413.089367 -271.285479 
L 411.386327 -275.090451 
L 409.683287 -276.736492 
L 407.980247 -279.827429 
L 406.277207 -284.960694 
L 404.574167 -291.100012 
L 402.871127 -295.266469 
L 401.168087 -293.649193 
L 399.465047 -286.697928 
L 397.762007 -277.524295 
L 396.058967 -271.670946 
L 394.355927 -273.0612 
L 392.652886 -281.327403 
L 390.949846 -292.626997 
L 389.246806 -301.716689 
L 387.543766 -304.290564 
L 385.840726 -300.131414 
L 384.137686 -291.78996 
L 382.434646 -284.189143 
L 380.731606 -281.108965 
L 379.028566 -283.519083 
L 377.325526 -289.665345 
L 375.622486 -296.232197 
L 373.919446 -300.447376 
L 372.216406 -301.971659 
L 370.513366 -301.388552 
L 368.810326 -300.634192 
L 367.107285 -299.865042 
L 365.404245 -299.419807 
L 363.701205 -299.553032 
L 361.998165 -300.817877 
L 360.295125 -304.391683 
L 358.592085 -310.722559 
L 356.889045 -317.919153 
L 355.186005 -321.61945 
L 353.482965 -319.415038 
L 351.779925 -310.58242 
L 350.076885 -299.711902 
L 348.373845 -294.119104 
L 346.670805 -298.292478 
L 344.967765 -312.947921 
L 343.264724 -331.276044 
L 341.561684 -344.638781 
L 339.858644 -347.829555 
L 338.155604 -342.282097 
L 336.452564 -333.831738 
L 334.749524 -331.418214 
L 333.046484 -337.984694 
L 331.343444 -349.131345 
L 329.640404 -356.79028 
L 327.937364 -354.819987 
L 326.234324 -342.727553 
L 324.531284 -326.303691 
L 322.828244 -313.985 
L 321.125204 -310.366429 
L 319.422164 -315.933558 
L 317.719123 -325.225919 
L 316.016083 -332.717212 
L 314.313043 -334.703427 
L 312.610003 -331.421596 
L 310.906963 -324.541511 
L 309.203923 -316.211304 
L 307.500883 -308.177332 
L 305.797843 -301.397113 
L 304.094803 -297.350762 
L 302.391763 -298.25513 
L 300.688723 -303.609248 
L 298.985683 -311.215086 
L 297.282643 -314.896445 
L 295.579603 -309.388312 
L 293.876563 -294.107004 
L 292.173522 -274.04044 
L 290.470482 -258.064646 
L 288.767442 -253.998837 
L 287.064402 -262.775004 
L 285.361362 -277.985781 
L 283.658322 -289.910814 
L 281.955282 -291.353264 
L 280.252242 -282.519402 
L 278.549202 -270.651232 
L 276.846162 -265.044736 
L 275.143122 -270.931582 
L 273.440082 -285.656227 
L 271.737042 -301.188394 
L 270.034002 -308.166773 
L 268.330962 -303.927033 
L 266.627921 -291.670397 
L 264.924881 -279.771076 
L 263.221841 -273.77612 
L 261.518801 -273.734205 
L 259.815761 -274.033945 
L 258.112721 -268.921467 
L 256.409681 -256.332386 
L 254.706641 -240.27652 
L 253.003601 -228.885027 
L 251.300561 -228.271453 
L 249.597521 -237.833236 
L 247.894481 -251.672151 
L 246.191441 -262.397449 
L 244.488401 -265.812111 
L 242.785361 -262.365883 
L 241.08232 -256.902669 
L 239.37928 -255.107949 
L 237.67624 -258.288002 
L 235.9732 -264.214835 
L 234.27016 -267.921547 
L 232.56712 -266.163525 
L 230.86408 -259.318341 
L 229.16104 -250.716161 
L 227.458 -244.104753 
L 225.75496 -242.113514 
L 224.05192 -244.301598 
L 222.34888 -247.653985 
L 220.64584 -248.140965 
L 218.9428 -242.86171 
L 217.23976 -231.975683 
L 215.536719 -219.708686 
L 213.833679 -212.885845 
L 212.130639 -217.839888 
L 210.427599 -236.501949 
L 208.724559 -266.057745 
L 207.021519 -299.396245 
L 205.318479 -327.502044 
L 203.615439 -344.362641 
L 201.912399 -350.861457 
L 200.209359 -352.391335 
L 198.506319 -354.592099 
L 196.803279 -360.857293 
L 195.100239 -369.684742 
L 193.397199 -376.184355 
L 191.694159 -377.441128 
L 189.991118 -374.021488 
L 188.288078 -369.923566 
L 186.585038 -367.485772 
L 184.881998 -366.446008 
L 183.178958 -363.46666 
L 181.475918 -354.482298 
L 179.772878 -337.820921 
L 178.069838 -316.123152 
L 176.366798 -295.179567 
L 174.663758 -279.957267 
L 172.960718 -269.557291 
L 171.257678 -259.544682 
L 169.554638 -246.749477 
L 167.851598 -230.732584 
L 166.148558 -215.552284 
L 164.445517 -206.112038 
L 162.742477 -204.062075 
L 161.039437 -207.4338 
L 159.336397 -210.710161 
L 157.633357 -209.356874 
L 155.930317 -202.918505 
L 154.227277 -194.845828 
L 152.524237 -190.427987 
L 150.821197 -193.243245 
L 149.118157 -202.790964 
L 147.415117 -214.127854 
L 145.712077 -222.106026 
L 144.009037 -224.081419 
L 142.305997 -221.48447 
L 140.602957 -215.940725 
L 138.899916 -210.371003 
L 137.196876 -207.552202 
L 135.493836 -208.317079 
L 133.790796 -210.913271 
L 132.087756 -212.508449 
L 130.384716 -211.614353 
L 128.681676 -208.214513 
L 126.978636 -204.605468 
L 125.275596 -204.629865 
L 123.572556 -209.613124 
L 121.869516 -217.414673 
L 120.166476 -224.33126 
L 118.463436 -225.362149 
L 116.760396 -218.677168 
L 115.057356 -207.781984 
L 113.354315 -198.333536 
L 111.651275 -195.876172 
L 109.948235 -201.186755 
L 108.245195 -210.389262 
L 106.542155 -217.999478 
L 104.839115 -219.739409 
L 103.136075 -216.968624 
L 101.433035 -214.173699 
L 99.729995 -215.274599 
L 98.026955 -219.875106 
L 96.323915 -224.508737 
L 94.620875 -225.084396 
L 92.917835 -219.69785 
L 91.214795 -212.627772 
L 89.511755 -208.983148 
L 87.808714 -212.278365 
L 86.105674 -221.179474 
L 84.402634 -230.136899 
L 82.699594 -234.239704 
L 80.996554 -232.161506 
L 79.293514 -227.321717 
L 77.590474 -225.810511 
L 75.887434 -230.54184 
L 74.184394 -240.517441 
L 72.481354 -250.322574 
L 70.778314 -255.115161 
L 69.075274 -253.666437 
L 67.372234 -246.867927 
L 65.669194 -237.903965 
L 63.966154 -229.567817 
L 62.263113 -223.355331 
L 60.560073 -221.289086 
L 58.857033 -225.278679 
L 57.153993 -235.133091 
L 55.450953 -248.059954 
L 53.747913 -257.456405 
L 52.044873 -258.083804 
L 50.341833 -249.175633 
L 48.638793 -235.736236 
L 46.935753 -226.567026 
L 45.232713 -229.603713 
L 43.529673 -246.040519 
L 41.826633 -267.741302 
L 40.123593 -283.004393 
L 38.420552 -283.293339 
z
" style="stroke: #ff7f0e; stroke-opacity: 0.3"/>
    </defs>
    <g>
     <use xlink:href="#mb65ee3a542" x="0" y="432" style="fill: #ff7f0e; fill-opacity: 0.3; stroke: #ff7f0e; stroke-opacity: 0.3"/>
    </g>
   </g>
   <g id="line2d_17">
    <path d="M 38.420552 180.70278 
L 40.123593 189.618351 
L 41.826633 201.484789 
L 43.529673 209.037887 
L 45.232713 207.747913 
L 48.638793 191.4056 
L 50.341833 190.571462 
L 52.044873 198.65039 
L 53.747913 210.285491 
L 55.450953 217.07386 
L 57.153993 214.00319 
L 60.560073 193.41385 
L 62.263113 191.960146 
L 63.966154 200.872685 
L 65.669194 214.701547 
L 67.372234 224.97386 
L 69.075274 226.539951 
L 72.481354 216.337703 
L 74.184394 218.654262 
L 75.887434 229.592705 
L 77.590474 244.128608 
L 79.293514 254.387182 
L 80.996554 255.045102 
L 82.699594 246.197852 
L 86.105674 218.366085 
L 87.808714 207.193286 
L 89.511755 198.737415 
L 91.214795 192.132626 
L 92.917835 187.833643 
L 94.620875 187.731191 
L 96.323915 193.215888 
L 98.026955 203.216575 
L 99.729995 213.882564 
L 101.433035 220.64107 
L 103.136075 221.014207 
L 104.839115 215.90452 
L 106.542155 208.503308 
L 108.245195 202.011527 
L 109.948235 197.82224 
L 111.651275 195.458996 
L 113.354315 193.920638 
L 115.057356 192.950265 
L 116.760396 192.891028 
L 118.463436 193.900412 
L 120.166476 195.232711 
L 121.869516 196.001483 
L 123.572556 196.56052 
L 125.275596 199.159149 
L 126.978636 206.747045 
L 128.681676 220.139848 
L 130.384716 235.823329 
L 132.087756 246.599542 
L 133.790796 245.530807 
L 135.493836 230.895365 
L 137.196876 208.368108 
L 138.899916 188.920694 
L 140.602957 182.785025 
L 142.305997 193.303549 
L 145.712077 234.544529 
L 147.415117 241.968898 
L 149.118157 232.839176 
L 152.524237 192.78311 
L 154.227277 184.45559 
L 155.930317 192.134429 
L 157.633357 211.968073 
L 159.336397 234.672856 
L 161.039437 251.212808 
L 162.742477 257.692485 
L 164.445517 256.338399 
L 166.148558 252.453214 
L 167.851598 249.538577 
L 169.554638 246.115093 
L 171.257678 236.265136 
L 172.960718 214.000557 
L 174.663758 178.287236 
L 176.366798 135.396479 
L 178.069838 96.523485 
L 179.772878 72.227308 
L 181.475918 66.75865 
L 183.178958 76.090774 
L 184.881998 90.704132 
L 186.585038 101.18986 
L 188.288078 103.037873 
L 189.991118 98.001082 
L 191.694159 91.550132 
L 193.397199 88.707524 
L 195.100239 91.370423 
L 196.803279 98.220223 
L 198.506319 106.890041 
L 200.209359 116.181581 
L 201.912399 126.593677 
L 203.615439 139.320612 
L 208.724559 184.268375 
L 210.427599 194.445934 
L 212.130639 200.922329 
L 215.536719 210.457718 
L 217.23976 216.318656 
L 218.9428 221.487389 
L 220.64584 222.784162 
L 222.34888 217.28194 
L 224.05192 204.637639 
L 225.75496 188.171273 
L 227.458 174.063526 
L 229.16104 169.024028 
L 230.86408 176.951585 
L 232.56712 196.58109 
L 234.27016 221.379768 
L 235.9732 242.101019 
L 237.67624 250.999548 
L 239.37928 245.652434 
L 241.08232 230.03776 
L 242.785361 212.373678 
L 244.488401 200.660516 
L 246.191441 198.412573 
L 247.894481 203.309178 
L 249.597521 209.070412 
L 251.300561 209.666639 
L 253.003601 202.851853 
L 256.409681 179.50533 
L 258.112721 171.543149 
L 259.815761 167.381969 
L 261.518801 163.996464 
L 263.221841 158.165496 
L 266.627921 140.494884 
L 268.330962 135.576398 
L 270.034002 136.690725 
L 271.737042 142.237168 
L 273.440082 148.202656 
L 275.143122 151.380014 
L 276.846162 152.025987 
L 278.549202 153.578226 
L 280.252242 159.61573 
L 281.955282 170.59502 
L 283.658322 182.835189 
L 285.361362 191.128267 
L 287.064402 192.42856 
L 288.767442 188.108697 
L 290.470482 182.569542 
L 292.173522 179.504877 
L 293.876563 179.242763 
L 295.579603 179.211136 
L 297.282643 177.078196 
L 298.985683 173.510736 
L 300.688723 171.876909 
L 302.391763 174.708341 
L 304.094803 179.935875 
L 305.797843 180.876484 
L 307.500883 170.548391 
L 309.203923 147.482197 
L 310.906963 117.998661 
L 312.610003 92.74439 
L 314.313043 79.489661 
L 316.016083 78.251664 
L 317.719123 81.956287 
L 319.422164 82.531877 
L 321.125204 77.413502 
L 322.828244 70.988889 
L 324.531284 69.790713 
L 326.234324 75.796244 
L 327.937364 83.453289 
L 329.640404 83.703008 
L 331.343444 71.632189 
L 333.046484 51.608481 
L 334.749524 35.09878 
L 336.452564 32.403691 
L 338.155604 44.650404 
L 339.858644 62.676892 
L 341.561684 73.693303 
L 343.264724 70.956053 
L 344.967765 58.83947 
L 346.670805 49.309873 
L 348.373845 52.488705 
L 350.076885 68.671295 
L 351.779925 87.907904 
L 353.482965 97.58733 
L 355.186005 91.966207 
L 356.889045 76.574587 
L 358.592085 64.302522 
L 360.295125 66.159063 
L 361.998165 83.613019 
L 363.701205 107.951995 
L 365.404245 126.586518 
L 367.107285 131.400014 
L 368.810326 123.369819 
L 370.513366 110.672653 
L 372.216406 102.292657 
L 373.919446 102.150071 
L 377.325526 113.195024 
L 379.028566 114.308857 
L 380.731606 111.095097 
L 382.434646 107.009393 
L 384.137686 105.507723 
L 385.840726 107.441829 
L 387.543766 110.971685 
L 389.246806 113.766165 
L 390.949846 115.66468 
L 392.652886 119.032805 
L 394.355927 126.746658 
L 396.058967 139.561896 
L 397.762007 154.735222 
L 399.465047 167.464702 
L 401.168087 174.019377 
L 402.871127 174.268443 
L 404.574167 171.827779 
L 406.277207 171.587164 
L 407.980247 176.354357 
L 409.683287 185.232313 
L 411.386327 194.749528 
L 413.089367 201.926038 
L 414.792407 206.421585 
L 416.495447 210.531664 
L 418.198487 217.004733 
L 421.604568 236.306795 
L 423.307608 243.167116 
L 425.010648 245.001171 
L 426.713688 242.987864 
L 428.416728 240.486221 
L 430.119768 240.596188 
L 431.822808 244.04171 
L 435.228888 253.94689 
L 436.931928 258.09806 
L 438.634968 263.428051 
L 440.338008 271.910959 
L 442.041048 283.169297 
L 443.744088 293.558398 
L 445.447129 297.855838 
L 447.150169 292.764409 
L 448.853209 279.649507 
L 450.556249 264.318498 
L 452.259289 254.148995 
L 453.962329 253.811683 
L 455.665369 262.75412 
L 457.368409 275.726625 
L 459.071449 285.920829 
L 460.774489 288.875126 
L 462.477529 284.678319 
L 464.180569 277.455612 
L 465.883609 272.634239 
L 467.586649 273.786696 
L 469.289689 281.011832 
L 472.69577 301.243221 
L 474.39881 308.398588 
L 476.10185 313.215327 
L 477.80489 317.649505 
L 479.50793 323.253048 
L 481.21097 329.355975 
L 482.91401 333.18202 
L 484.61705 331.124547 
L 486.32009 321.073007 
L 488.02313 304.032446 
L 489.72617 284.108848 
L 491.42921 267.077096 
L 493.13225 258.401767 
L 494.83529 261.029813 
L 496.538331 274.311421 
L 499.944411 313.006779 
L 501.647451 325.327868 
L 503.350491 327.831635 
L 505.053531 322.701268 
L 506.756571 316.077447 
L 508.459611 314.126085 
L 510.162651 318.648704 
L 511.865691 325.505566 
L 513.568731 327.426402 
L 515.271771 319.78651 
L 516.974811 305.106247 
L 518.677851 292.499025 
L 520.380891 291.689104 
L 522.083932 305.508516 
L 523.786972 326.639976 
L 525.490012 342.054443 
L 527.193052 341.964541 
L 528.896092 326.941396 
L 530.599132 307.894856 
L 532.302172 298.190352 
L 534.005212 303.894655 
L 535.708252 319.573472 
L 537.411292 332.539891 
L 539.114332 332.422338 
L 540.817372 318.586576 
L 542.520412 300.274062 
L 544.223452 289.551581 
L 545.926492 292.869016 
L 547.629533 307.371342 
L 549.332573 324.253091 
L 551.035613 335.51223 
L 552.738653 339.015719 
L 554.441693 338.132101 
L 556.144733 337.660835 
L 557.847773 339.719653 
L 559.550813 342.852947 
L 561.253853 344.263471 
L 561.253853 344.263471 
" style="fill: none; stroke: #1f77b4; stroke-width: 1.5; stroke-linecap: square"/>
   </g>
   <g id="line2d_18">
    <path d="M 38.420552 154.101482 
L 40.123593 154.070396 
L 41.826633 168.861066 
L 43.529673 190.464735 
L 45.232713 206.954219 
L 46.935753 210.314492 
L 48.638793 201.140871 
L 50.341833 187.322862 
L 52.044873 178.338272 
L 53.747913 179.315641 
L 55.450953 188.881125 
L 57.153993 201.350207 
L 58.857033 210.925047 
L 60.560073 214.64443 
L 62.263113 212.618218 
L 63.966154 206.535076 
L 67.372234 189.681295 
L 69.075274 183.431572 
L 70.778314 182.162629 
L 72.481354 187.116186 
L 75.887434 205.809252 
L 77.590474 210.474337 
L 79.293514 209.081243 
L 80.996554 204.627833 
L 82.699594 202.508661 
L 84.402634 206.424075 
L 87.808714 224.377952 
L 89.511755 227.873193 
L 91.214795 224.246558 
L 92.917835 216.887057 
L 94.620875 211.507891 
L 96.323915 211.697819 
L 99.729995 221.238599 
L 101.433035 222.159657 
L 104.839115 216.485456 
L 106.542155 218.376235 
L 108.245195 226.00428 
L 109.948235 235.654286 
L 111.651275 241.262577 
L 113.354315 238.795076 
L 115.057356 229.235734 
L 116.760396 218.048402 
L 118.463436 211.476296 
L 120.166476 212.57311 
L 121.869516 219.664629 
L 123.572556 227.970831 
L 125.275596 233.011716 
L 126.978636 233.145897 
L 130.384716 226.656782 
L 132.087756 225.568226 
L 133.790796 227.03453 
L 135.493836 229.391582 
L 137.196876 230.200732 
L 138.899916 227.877624 
L 140.602957 222.664665 
L 142.305997 216.886818 
L 144.009037 213.895693 
L 145.712077 216.381996 
L 147.415117 224.610622 
L 149.118157 235.75822 
L 150.821197 244.961253 
L 152.524237 247.952363 
L 154.227277 243.796169 
L 155.930317 235.67685 
L 157.633357 228.871604 
L 159.336397 227.237413 
L 161.039437 230.405296 
L 162.742477 233.868387 
L 164.445517 232.154467 
L 166.148558 222.643385 
L 169.554638 191.264065 
L 171.257678 178.240013 
L 174.663758 157.952407 
L 176.366798 143.178341 
L 178.069838 123.371116 
L 179.772878 102.190264 
L 181.475918 85.150741 
L 183.178958 75.597248 
L 184.881998 72.459899 
L 186.585038 71.56261 
L 188.288078 69.099303 
L 189.991118 64.720935 
L 191.694159 61.409689 
L 193.397199 62.659526 
L 195.100239 69.109663 
L 196.803279 77.724403 
L 198.506319 84.233949 
L 200.209359 86.86493 
L 201.912399 88.494292 
L 203.615439 95.218818 
L 205.318479 112.240458 
L 207.021519 139.967227 
L 208.724559 172.96479 
L 210.427599 202.488582 
L 212.130639 220.911536 
L 213.833679 225.340332 
L 215.536719 218.455292 
L 217.23976 206.544753 
L 218.9428 196.089363 
L 220.64584 191.04834 
L 222.34888 191.597227 
L 224.05192 194.864711 
L 225.75496 196.820613 
L 227.458 194.490569 
L 229.16104 187.66678 
L 230.86408 179.072858 
L 232.56712 172.70596 
L 234.27016 171.502594 
L 235.9732 175.372246 
L 237.67624 180.972355 
L 239.37928 183.877018 
L 241.08232 181.773017 
L 242.785361 176.56701 
L 244.488401 173.37868 
L 246.191441 177.017853 
L 247.894481 188.166063 
L 249.597521 202.11211 
L 251.300561 211.281658 
L 253.003601 210.029359 
L 254.706641 198.464265 
L 256.409681 182.475665 
L 258.112721 169.783569 
L 259.815761 164.701311 
L 261.518801 165.370912 
L 263.221841 165.597837 
L 264.924881 159.939092 
L 268.330962 136.271182 
L 270.034002 131.750571 
L 271.737042 138.654104 
L 275.143122 168.678941 
L 276.846162 174.634171 
L 278.549202 169.071777 
L 280.252242 157.109579 
L 281.955282 148.16087 
L 283.658322 149.535835 
L 285.361362 161.412379 
L 287.064402 176.628511 
L 288.767442 185.311577 
L 290.470482 181.212446 
L 292.173522 165.461311 
L 293.876563 145.482648 
L 295.579603 130.195644 
L 297.282643 124.731845 
L 298.985683 128.258157 
L 300.688723 135.621183 
L 302.391763 141.160128 
L 304.094803 141.818352 
L 305.797843 137.796865 
L 307.500883 130.971852 
L 310.906963 115.324315 
L 312.610003 108.894507 
L 314.313043 105.823402 
L 316.016083 108.039547 
L 317.719123 115.469483 
L 319.422164 124.6754 
L 321.125204 129.914531 
L 322.828244 126.421951 
L 324.531284 113.966622 
L 326.234324 97.815525 
L 327.937364 85.978697 
L 329.640404 84.155687 
L 331.343444 91.843618 
L 333.046484 102.604879 
L 334.749524 108.542657 
L 336.452564 105.879239 
L 338.155604 97.622677 
L 339.858644 91.499775 
L 341.561684 94.473913 
L 343.264724 107.801412 
L 344.967765 126.057881 
L 346.670805 140.669426 
L 348.373845 145.366661 
L 350.076885 139.776832 
L 351.779925 129.092092 
L 353.482965 120.276783 
L 355.186005 117.803957 
L 356.889045 121.763225 
L 358.592085 128.838137 
L 360.295125 135.282471 
L 361.998165 139.090529 
L 363.701205 140.45949 
L 365.404245 140.553847 
L 367.107285 140.14845 
L 368.810326 139.352481 
L 370.513366 138.255801 
L 372.216406 137.611632 
L 373.919446 138.925397 
L 375.622486 143.233868 
L 379.028566 156.221507 
L 380.731606 158.967501 
L 382.434646 156.132697 
L 384.137686 148.623511 
L 385.840726 140.180756 
L 387.543766 135.57002 
L 389.246806 137.855874 
L 390.949846 146.602883 
L 392.652886 157.826145 
L 394.355927 166.068949 
L 396.058967 167.497129 
L 397.762007 161.996612 
L 399.465047 153.104067 
L 401.168087 145.952345 
L 402.871127 144.198959 
L 404.574167 148.000552 
L 406.277207 154.40141 
L 407.980247 159.791909 
L 409.683287 162.612222 
L 411.386327 164.495112 
L 413.089367 168.922859 
L 414.792407 178.364515 
L 418.198487 204.830743 
L 419.901528 211.97144 
L 421.604568 210.509904 
L 423.307608 202.451474 
L 425.010648 193.683964 
L 426.713688 190.450374 
L 428.416728 195.563301 
L 431.822808 218.721133 
L 433.525848 225.9608 
L 435.228888 226.871252 
L 436.931928 223.967789 
L 438.634968 221.790102 
L 440.338008 223.403958 
L 443.744088 233.180465 
L 445.447129 234.627056 
L 447.150169 232.090845 
L 448.853209 228.374581 
L 450.556249 227.526397 
L 452.259289 231.716109 
L 453.962329 239.438084 
L 455.665369 246.636487 
L 457.368409 249.739154 
L 459.071449 248.539093 
L 460.774489 246.494131 
L 462.477529 248.126557 
L 464.180569 255.586492 
L 465.883609 266.802577 
L 467.586649 276.802333 
L 469.289689 281.234635 
L 470.99273 279.56444 
L 472.69577 275.450218 
L 474.39881 274.056358 
L 476.10185 278.224798 
L 477.80489 286.398324 
L 479.50793 293.782509 
L 481.21097 295.883468 
L 482.91401 291.806588 
L 484.61705 285.032952 
L 486.32009 281.051685 
L 488.02313 283.768061 
L 489.72617 292.9003 
L 491.42921 304.271888 
L 493.13225 312.487732 
L 494.83529 314.360088 
L 496.538331 310.632467 
L 498.241371 305.310293 
L 499.944411 303.001213 
L 501.647451 306.190486 
L 503.350491 314.047141 
L 505.053531 323.114513 
L 506.756571 329.532152 
L 508.459611 331.119738 
L 510.162651 328.227758 
L 513.568731 318.363685 
L 515.271771 315.321273 
L 516.974811 313.725466 
L 518.677851 312.326211 
L 520.380891 310.221199 
L 522.083932 307.619009 
L 523.786972 305.608529 
L 525.490012 305.010447 
L 527.193052 305.471847 
L 528.896092 305.5985 
L 530.599132 304.128065 
L 532.302172 301.261625 
L 534.005212 299.063606 
L 535.708252 300.22769 
L 537.411292 305.923886 
L 539.114332 314.462936 
L 540.817372 321.869818 
L 542.520412 324.27037 
L 544.223452 320.627662 
L 545.926492 313.710141 
L 547.629533 308.519674 
L 549.332573 308.972878 
L 551.035613 315.367369 
L 552.738653 324.279778 
L 554.441693 330.978462 
L 556.144733 332.671661 
L 557.847773 330.075095 
L 559.550813 326.221305 
L 561.253853 323.713709 
L 561.253853 323.713709 
" style="fill: none; stroke: #ff7f0e; stroke-width: 1.5; stroke-linecap: square"/>
   </g>
  </g>
  <g id="axes_2">
   <g id="PathCollection_1">
    <defs>
     <path id="C0_0_355520d7e1" d="M 0 1.118034 
C 0.296506 1.118034 0.580908 1.000231 0.790569 0.790569 
C 1.000231 0.580908 1.118034 0.296506 1.118034 -0 
C 1.118034 -0.296506 1.000231 -0.580908 0.790569 -0.790569 
C 0.580908 -1.000231 0.296506 -1.118034 0 -1.118034 
C -0.296506 -1.118034 -0.580908 -1.000231 -0.790569 -0.790569 
C -1.000231 -0.580908 -1.118034 -0.296506 -1.118034 0 
C -1.118034 0.296506 -1.000231 0.580908 -0.790569 0.790569 
C -0.580908 1.000231 -0.296506 1.118034 0 1.118034 
z
"/>
    </defs>
    <g clip-path="url(#p0bd1d89112)">
     <use xlink:href="#C0_0_355520d7e1" x="508.865704" y="99.036731" style="stroke: #000000"/>
    </g>
    <g clip-path="url(#p0bd1d89112)">
     <use xlink:href="#C0_0_355520d7e1" x="518.173702" y="98.861308" style="stroke: #000000"/>
    </g>
   </g>
   <g id="matplotlib.axis_3"/>
   <g id="matplotlib.axis_4"/>
   <g id="line2d_19">
    <path d="M 548.860571 73.636212 
L 548.782898 71.164606 
L 548.550185 68.702755 
L 548.163349 66.260375 
L 547.623919 63.847103 
L 546.934023 61.472464 
L 546.096383 59.14583 
L 545.114306 56.876383 
L 543.991666 54.673079 
L 542.732896 52.544615 
L 541.342962 50.499389 
L 539.82735 48.545473 
L 538.192041 46.690579 
L 536.443489 44.942028 
L 534.588595 43.306719 
L 532.63468 41.791107 
L 530.589454 40.401173 
L 528.460989 39.142402 
L 526.257685 38.019763 
L 523.988238 37.037685 
L 521.661605 36.200045 
L 519.286966 35.510149 
L 516.873694 34.970719 
L 514.431313 34.583884 
L 511.969462 34.35117 
L 509.497857 34.273497 
L 507.026251 34.35117 
L 504.5644 34.583884 
L 502.12202 34.970719 
L 499.708748 35.510149 
L 497.334109 36.200045 
L 495.007475 37.037685 
L 492.738028 38.019763 
L 490.534724 39.142402 
L 488.40626 40.401173 
L 486.361034 41.791107 
L 484.407118 43.306719 
L 482.552224 44.942028 
L 480.803673 46.690579 
L 479.168364 48.545473 
L 477.652752 50.499389 
L 476.262818 52.544615 
L 475.004047 54.673079 
L 473.881408 56.876383 
L 472.89933 59.14583 
L 472.061691 61.472464 
L 471.371794 63.847103 
L 470.832364 66.260375 
L 470.445529 68.702755 
L 470.212815 71.164606 
L 470.135142 73.636212 
L 470.212815 76.107817 
L 470.445529 78.569668 
L 470.832364 81.012049 
L 471.371794 83.425321 
L 472.061691 85.799959 
L 472.89933 88.126593 
L 473.881408 90.39604 
L 475.004047 92.599344 
L 476.262818 94.727809 
L 477.652752 96.773035 
L 479.168364 98.72695 
L 480.803673 100.581844 
L 482.552224 102.330396 
L 484.407118 103.965705 
L 486.361034 105.481317 
L 488.40626 106.871251 
L 490.534724 108.130021 
L 492.738028 109.252661 
L 495.007475 110.234738 
L 497.334109 111.072378 
L 499.708748 111.762274 
L 502.12202 112.301704 
L 504.5644 112.68854 
L 507.026251 112.921253 
L 509.497857 112.998926 
L 511.969462 112.921253 
L 514.431313 112.68854 
L 516.873694 112.301704 
L 519.286966 111.762274 
L 521.661605 111.072378 
L 523.988238 110.234738 
L 526.257685 109.252661 
L 528.460989 108.130021 
L 530.589454 106.871251 
L 532.63468 105.481317 
L 534.588595 103.965705 
L 536.443489 102.330396 
L 538.192041 100.581844 
L 539.82735 98.72695 
L 541.342962 96.773035 
L 542.732896 94.727809 
L 543.991666 92.599344 
L 545.114306 90.39604 
L 546.096383 88.126593 
L 546.934023 85.799959 
L 547.623919 83.425321 
L 548.163349 81.012049 
L 548.550185 78.569668 
L 548.782898 76.107817 
L 548.860571 73.636212 
" style="fill: none; stroke: #000000; stroke-linecap: square"/>
   </g>
   <g id="line2d_20">
    <path d="M 501.253749 35.146499 
L 509.497857 28.36909 
L 517.741964 35.146499 
" style="fill: none; stroke: #000000; stroke-linecap: square"/>
   </g>
   <g id="line2d_21">
    <path d="M 470.371318 69.26695 
L 469.347888 67.534991 
L 468.718084 67.472011 
L 467.781252 67.763295 
L 466.836547 69.26695 
L 466.986125 74.069202 
L 466.435047 80.973422 
L 467.615928 83.972861 
L 469.347888 84.531811 
L 471.001122 83.075391 
" style="fill: none; stroke: #000000; stroke-linecap: square"/>
   </g>
   <g id="line2d_22">
    <path d="M 548.624395 69.26695 
L 549.647826 67.534991 
L 550.277629 67.472011 
L 551.214462 67.763295 
L 552.159167 69.26695 
L 552.009589 74.069202 
L 552.560667 80.973422 
L 551.379785 83.972861 
L 549.647826 84.531811 
L 547.994592 83.075391 
" style="fill: none; stroke: #000000; stroke-linecap: square"/>
   </g>
  </g>
 </g>
 <defs>
  <clipPath id="p2c100cc8ef">
   <rect x="38.420552" y="18.118365" width="523.446395" height="380.525145"/>
  </clipPath>
  <clipPath id="p0bd1d89112">
   <rect x="462.128766" y="24.137598" width="94.738182" height="93.09282"/>
  </clipPath>
 </defs>
</svg>
