<?xml version="1.0" encoding="utf-8" standalone="no"?>
<!DOCTYPE svg PUBLIC "-//W3C//DTD SVG 1.1//EN"
  "http://www.w3.org/Graphics/SVG/1.1/DTD/svg11.dtd">
<svg xmlns:xlink="http://www.w3.org/1999/xlink" width="576pt" height="432pt" viewBox="0 0 576 432" xmlns="http://www.w3.org/2000/svg" version="1.1">
 <metadata>
  <rdf:RDF xmlns:dc="http://purl.org/dc/elements/1.1/" xmlns:cc="http://creativecommons.org/ns#" xmlns:rdf="http://www.w3.org/1999/02/22-rdf-syntax-ns#">
   <cc:Work>
    <dc:type rdf:resource="http://purl.org/dc/dcmitype/StillImage"/>
    <dc:date>2025-02-20T17:24:00.894912</dc:date>
    <dc:format>image/svg+xml</dc:format>
    <dc:creator>
     <cc:Agent>
      <dc:title>Matplotlib v3.10.0, https://matplotlib.org/</dc:title>
     </cc:Agent>
    </dc:creator>
   </cc:Work>
  </rdf:RDF>
 </metadata>
 <defs>
  <style type="text/css">*{stroke-linejoin: round; stroke-linecap: butt}</style>
 </defs>
 <g id="figure_1">
  <g id="patch_1">
   <path d="M 0 432 
L 576 432 
L 576 0 
L 0 0 
z
" style="fill: #ffffff"/>
  </g>
  <g id="axes_1">
   <g id="patch_2">
    <path d="M 38.420552 398.64351 
L 561.866948 398.64351 
L 561.866948 18.118365 
L 38.420552 18.118365 
L 38.420552 398.64351 
z
" style="fill: none; opacity: 0"/>
   </g>
   <g id="patch_3">
    <path d="M 38.420552 363.130045 
L 38.420552 53.63183 
" style="fill: none; stroke: #000000; stroke-width: 0.8; stroke-linejoin: miter; stroke-linecap: square"/>
   </g>
   <g id="LineCollection_1">
    <path d="M 156.407168 18.118365 
L 156.407168 398.64351 
" clip-path="url(#p5105540f09)" style="fill: none; stroke-dasharray: 3.7,1.6; stroke-dashoffset: 0; stroke: #000000"/>
    <path d="M 195.645211 18.118365 
L 195.645211 398.64351 
" clip-path="url(#p5105540f09)" style="fill: none; stroke-dasharray: 3.7,1.6; stroke-dashoffset: 0; stroke: #000000"/>
   </g>
   <g id="matplotlib.axis_1">
    <g id="xtick_1">
     <g id="line2d_1">
      <defs>
       <path id="m4ea1005a57" d="M 0 0 
L 0 3.5 
" style="stroke: #000000; stroke-width: 0.8"/>
      </defs>
      <g>
       <use xlink:href="#m4ea1005a57" x="38.693039" y="398.64351" style="stroke: #000000; stroke-width: 0.8"/>
      </g>
     </g>
     <g id="text_1">
      <!-- −0.20 -->
      <g transform="translate(23.370383 413.241947) scale(0.1 -0.1)">
       <defs>
        <path id="DejaVuSans-2212" d="M 678 2272 
L 4684 2272 
L 4684 1741 
L 678 1741 
L 678 2272 
z
" transform="scale(0.015625)"/>
        <path id="DejaVuSans-30" d="M 2034 4250 
Q 1547 4250 1301 3770 
Q 1056 3291 1056 2328 
Q 1056 1369 1301 889 
Q 1547 409 2034 409 
Q 2525 409 2770 889 
Q 3016 1369 3016 2328 
Q 3016 3291 2770 3770 
Q 2525 4250 2034 4250 
z
M 2034 4750 
Q 2819 4750 3233 4129 
Q 3647 3509 3647 2328 
Q 3647 1150 3233 529 
Q 2819 -91 2034 -91 
Q 1250 -91 836 529 
Q 422 1150 422 2328 
Q 422 3509 836 4129 
Q 1250 4750 2034 4750 
z
" transform="scale(0.015625)"/>
        <path id="DejaVuSans-2e" d="M 684 794 
L 1344 794 
L 1344 0 
L 684 0 
L 684 794 
z
" transform="scale(0.015625)"/>
        <path id="DejaVuSans-32" d="M 1228 531 
L 3431 531 
L 3431 0 
L 469 0 
L 469 531 
Q 828 903 1448 1529 
Q 2069 2156 2228 2338 
Q 2531 2678 2651 2914 
Q 2772 3150 2772 3378 
Q 2772 3750 2511 3984 
Q 2250 4219 1831 4219 
Q 1534 4219 1204 4116 
Q 875 4013 500 3803 
L 500 4441 
Q 881 4594 1212 4672 
Q 1544 4750 1819 4750 
Q 2544 4750 2975 4387 
Q 3406 4025 3406 3419 
Q 3406 3131 3298 2873 
Q 3191 2616 2906 2266 
Q 2828 2175 2409 1742 
Q 1991 1309 1228 531 
z
" transform="scale(0.015625)"/>
       </defs>
       <use xlink:href="#DejaVuSans-2212"/>
       <use xlink:href="#DejaVuSans-30" transform="translate(83.789062 0)"/>
       <use xlink:href="#DejaVuSans-2e" transform="translate(147.412109 0)"/>
       <use xlink:href="#DejaVuSans-32" transform="translate(179.199219 0)"/>
       <use xlink:href="#DejaVuSans-30" transform="translate(242.822266 0)"/>
      </g>
     </g>
    </g>
    <g id="xtick_2">
     <g id="line2d_2">
      <g>
       <use xlink:href="#m4ea1005a57" x="125.88869" y="398.64351" style="stroke: #000000; stroke-width: 0.8"/>
      </g>
     </g>
     <g id="text_2">
      <!-- 0.00 -->
      <g transform="translate(114.755878 413.241947) scale(0.1 -0.1)">
       <use xlink:href="#DejaVuSans-30"/>
       <use xlink:href="#DejaVuSans-2e" transform="translate(63.623047 0)"/>
       <use xlink:href="#DejaVuSans-30" transform="translate(95.410156 0)"/>
       <use xlink:href="#DejaVuSans-30" transform="translate(159.033203 0)"/>
      </g>
     </g>
    </g>
    <g id="xtick_3">
     <g id="line2d_3">
      <g>
       <use xlink:href="#m4ea1005a57" x="156.407168" y="398.64351" style="stroke: #000000; stroke-width: 0.8"/>
      </g>
     </g>
     <g id="text_3">
      <!-- 0.07 -->
      <g transform="translate(145.274356 413.241947) scale(0.1 -0.1)">
       <defs>
        <path id="DejaVuSans-37" d="M 525 4666 
L 3525 4666 
L 3525 4397 
L 1831 0 
L 1172 0 
L 2766 4134 
L 525 4134 
L 525 4666 
z
" transform="scale(0.015625)"/>
       </defs>
       <use xlink:href="#DejaVuSans-30"/>
       <use xlink:href="#DejaVuSans-2e" transform="translate(63.623047 0)"/>
       <use xlink:href="#DejaVuSans-30" transform="translate(95.410156 0)"/>
       <use xlink:href="#DejaVuSans-37" transform="translate(159.033203 0)"/>
      </g>
     </g>
    </g>
    <g id="xtick_4">
     <g id="line2d_4">
      <g>
       <use xlink:href="#m4ea1005a57" x="195.645211" y="398.64351" style="stroke: #000000; stroke-width: 0.8"/>
      </g>
     </g>
     <g id="text_4">
      <!-- 0.16 -->
      <g transform="translate(184.512399 413.241947) scale(0.1 -0.1)">
       <defs>
        <path id="DejaVuSans-31" d="M 794 531 
L 1825 531 
L 1825 4091 
L 703 3866 
L 703 4441 
L 1819 4666 
L 2450 4666 
L 2450 531 
L 3481 531 
L 3481 0 
L 794 0 
L 794 531 
z
" transform="scale(0.015625)"/>
        <path id="DejaVuSans-36" d="M 2113 2584 
Q 1688 2584 1439 2293 
Q 1191 2003 1191 1497 
Q 1191 994 1439 701 
Q 1688 409 2113 409 
Q 2538 409 2786 701 
Q 3034 994 3034 1497 
Q 3034 2003 2786 2293 
Q 2538 2584 2113 2584 
z
M 3366 4563 
L 3366 3988 
Q 3128 4100 2886 4159 
Q 2644 4219 2406 4219 
Q 1781 4219 1451 3797 
Q 1122 3375 1075 2522 
Q 1259 2794 1537 2939 
Q 1816 3084 2150 3084 
Q 2853 3084 3261 2657 
Q 3669 2231 3669 1497 
Q 3669 778 3244 343 
Q 2819 -91 2113 -91 
Q 1303 -91 875 529 
Q 447 1150 447 2328 
Q 447 3434 972 4092 
Q 1497 4750 2381 4750 
Q 2619 4750 2861 4703 
Q 3103 4656 3366 4563 
z
" transform="scale(0.015625)"/>
       </defs>
       <use xlink:href="#DejaVuSans-30"/>
       <use xlink:href="#DejaVuSans-2e" transform="translate(63.623047 0)"/>
       <use xlink:href="#DejaVuSans-31" transform="translate(95.410156 0)"/>
       <use xlink:href="#DejaVuSans-36" transform="translate(159.033203 0)"/>
      </g>
     </g>
    </g>
    <g id="xtick_5">
     <g id="line2d_5">
      <g>
       <use xlink:href="#m4ea1005a57" x="213.084342" y="398.64351" style="stroke: #000000; stroke-width: 0.8"/>
      </g>
     </g>
     <g id="text_5">
      <!-- 0.20 -->
      <g transform="translate(201.951529 413.241947) scale(0.1 -0.1)">
       <use xlink:href="#DejaVuSans-30"/>
       <use xlink:href="#DejaVuSans-2e" transform="translate(63.623047 0)"/>
       <use xlink:href="#DejaVuSans-32" transform="translate(95.410156 0)"/>
       <use xlink:href="#DejaVuSans-30" transform="translate(159.033203 0)"/>
      </g>
     </g>
    </g>
    <g id="xtick_6">
     <g id="line2d_6">
      <g>
       <use xlink:href="#m4ea1005a57" x="300.279993" y="398.64351" style="stroke: #000000; stroke-width: 0.8"/>
      </g>
     </g>
     <g id="text_6">
      <!-- 0.40 -->
      <g transform="translate(289.147181 413.241947) scale(0.1 -0.1)">
       <defs>
        <path id="DejaVuSans-34" d="M 2419 4116 
L 825 1625 
L 2419 1625 
L 2419 4116 
z
M 2253 4666 
L 3047 4666 
L 3047 1625 
L 3713 1625 
L 3713 1100 
L 3047 1100 
L 3047 0 
L 2419 0 
L 2419 1100 
L 313 1100 
L 313 1709 
L 2253 4666 
z
" transform="scale(0.015625)"/>
       </defs>
       <use xlink:href="#DejaVuSans-30"/>
       <use xlink:href="#DejaVuSans-2e" transform="translate(63.623047 0)"/>
       <use xlink:href="#DejaVuSans-34" transform="translate(95.410156 0)"/>
       <use xlink:href="#DejaVuSans-30" transform="translate(159.033203 0)"/>
      </g>
     </g>
    </g>
    <g id="xtick_7">
     <g id="line2d_7">
      <g>
       <use xlink:href="#m4ea1005a57" x="387.475645" y="398.64351" style="stroke: #000000; stroke-width: 0.8"/>
      </g>
     </g>
     <g id="text_7">
      <!-- 0.60 -->
      <g transform="translate(376.342832 413.241947) scale(0.1 -0.1)">
       <use xlink:href="#DejaVuSans-30"/>
       <use xlink:href="#DejaVuSans-2e" transform="translate(63.623047 0)"/>
       <use xlink:href="#DejaVuSans-36" transform="translate(95.410156 0)"/>
       <use xlink:href="#DejaVuSans-30" transform="translate(159.033203 0)"/>
      </g>
     </g>
    </g>
    <g id="xtick_8">
     <g id="line2d_8">
      <g>
       <use xlink:href="#m4ea1005a57" x="474.671296" y="398.64351" style="stroke: #000000; stroke-width: 0.8"/>
      </g>
     </g>
     <g id="text_8">
      <!-- 0.80 -->
      <g transform="translate(463.538484 413.241947) scale(0.1 -0.1)">
       <defs>
        <path id="DejaVuSans-38" d="M 2034 2216 
Q 1584 2216 1326 1975 
Q 1069 1734 1069 1313 
Q 1069 891 1326 650 
Q 1584 409 2034 409 
Q 2484 409 2743 651 
Q 3003 894 3003 1313 
Q 3003 1734 2745 1975 
Q 2488 2216 2034 2216 
z
M 1403 2484 
Q 997 2584 770 2862 
Q 544 3141 544 3541 
Q 544 4100 942 4425 
Q 1341 4750 2034 4750 
Q 2731 4750 3128 4425 
Q 3525 4100 3525 3541 
Q 3525 3141 3298 2862 
Q 3072 2584 2669 2484 
Q 3125 2378 3379 2068 
Q 3634 1759 3634 1313 
Q 3634 634 3220 271 
Q 2806 -91 2034 -91 
Q 1263 -91 848 271 
Q 434 634 434 1313 
Q 434 1759 690 2068 
Q 947 2378 1403 2484 
z
M 1172 3481 
Q 1172 3119 1398 2916 
Q 1625 2713 2034 2713 
Q 2441 2713 2670 2916 
Q 2900 3119 2900 3481 
Q 2900 3844 2670 4047 
Q 2441 4250 2034 4250 
Q 1625 4250 1398 4047 
Q 1172 3844 1172 3481 
z
" transform="scale(0.015625)"/>
       </defs>
       <use xlink:href="#DejaVuSans-30"/>
       <use xlink:href="#DejaVuSans-2e" transform="translate(63.623047 0)"/>
       <use xlink:href="#DejaVuSans-38" transform="translate(95.410156 0)"/>
       <use xlink:href="#DejaVuSans-30" transform="translate(159.033203 0)"/>
      </g>
     </g>
    </g>
    <g id="xtick_9">
     <g id="line2d_9">
      <g>
       <use xlink:href="#m4ea1005a57" x="561.866948" y="398.64351" style="stroke: #000000; stroke-width: 0.8"/>
      </g>
     </g>
     <g id="text_9">
      <!-- 1.00 -->
      <g transform="translate(550.734135 413.241947) scale(0.1 -0.1)">
       <use xlink:href="#DejaVuSans-31"/>
       <use xlink:href="#DejaVuSans-2e" transform="translate(63.623047 0)"/>
       <use xlink:href="#DejaVuSans-30" transform="translate(95.410156 0)"/>
       <use xlink:href="#DejaVuSans-30" transform="translate(159.033203 0)"/>
      </g>
     </g>
    </g>
    <g id="text_10">
     <!-- Time (s) -->
     <g transform="translate(279.814844 426.920073) scale(0.1 -0.1)">
      <defs>
       <path id="DejaVuSans-54" d="M -19 4666 
L 3928 4666 
L 3928 4134 
L 2272 4134 
L 2272 0 
L 1638 0 
L 1638 4134 
L -19 4134 
L -19 4666 
z
" transform="scale(0.015625)"/>
       <path id="DejaVuSans-69" d="M 603 3500 
L 1178 3500 
L 1178 0 
L 603 0 
L 603 3500 
z
M 603 4863 
L 1178 4863 
L 1178 4134 
L 603 4134 
L 603 4863 
z
" transform="scale(0.015625)"/>
       <path id="DejaVuSans-6d" d="M 3328 2828 
Q 3544 3216 3844 3400 
Q 4144 3584 4550 3584 
Q 5097 3584 5394 3201 
Q 5691 2819 5691 2113 
L 5691 0 
L 5113 0 
L 5113 2094 
Q 5113 2597 4934 2840 
Q 4756 3084 4391 3084 
Q 3944 3084 3684 2787 
Q 3425 2491 3425 1978 
L 3425 0 
L 2847 0 
L 2847 2094 
Q 2847 2600 2669 2842 
Q 2491 3084 2119 3084 
Q 1678 3084 1418 2786 
Q 1159 2488 1159 1978 
L 1159 0 
L 581 0 
L 581 3500 
L 1159 3500 
L 1159 2956 
Q 1356 3278 1631 3431 
Q 1906 3584 2284 3584 
Q 2666 3584 2933 3390 
Q 3200 3197 3328 2828 
z
" transform="scale(0.015625)"/>
       <path id="DejaVuSans-65" d="M 3597 1894 
L 3597 1613 
L 953 1613 
Q 991 1019 1311 708 
Q 1631 397 2203 397 
Q 2534 397 2845 478 
Q 3156 559 3463 722 
L 3463 178 
Q 3153 47 2828 -22 
Q 2503 -91 2169 -91 
Q 1331 -91 842 396 
Q 353 884 353 1716 
Q 353 2575 817 3079 
Q 1281 3584 2069 3584 
Q 2775 3584 3186 3129 
Q 3597 2675 3597 1894 
z
M 3022 2063 
Q 3016 2534 2758 2815 
Q 2500 3097 2075 3097 
Q 1594 3097 1305 2825 
Q 1016 2553 972 2059 
L 3022 2063 
z
" transform="scale(0.015625)"/>
       <path id="DejaVuSans-20" transform="scale(0.015625)"/>
       <path id="DejaVuSans-28" d="M 1984 4856 
Q 1566 4138 1362 3434 
Q 1159 2731 1159 2009 
Q 1159 1288 1364 580 
Q 1569 -128 1984 -844 
L 1484 -844 
Q 1016 -109 783 600 
Q 550 1309 550 2009 
Q 550 2706 781 3412 
Q 1013 4119 1484 4856 
L 1984 4856 
z
" transform="scale(0.015625)"/>
       <path id="DejaVuSans-73" d="M 2834 3397 
L 2834 2853 
Q 2591 2978 2328 3040 
Q 2066 3103 1784 3103 
Q 1356 3103 1142 2972 
Q 928 2841 928 2578 
Q 928 2378 1081 2264 
Q 1234 2150 1697 2047 
L 1894 2003 
Q 2506 1872 2764 1633 
Q 3022 1394 3022 966 
Q 3022 478 2636 193 
Q 2250 -91 1575 -91 
Q 1294 -91 989 -36 
Q 684 19 347 128 
L 347 722 
Q 666 556 975 473 
Q 1284 391 1588 391 
Q 1994 391 2212 530 
Q 2431 669 2431 922 
Q 2431 1156 2273 1281 
Q 2116 1406 1581 1522 
L 1381 1569 
Q 847 1681 609 1914 
Q 372 2147 372 2553 
Q 372 3047 722 3315 
Q 1072 3584 1716 3584 
Q 2034 3584 2315 3537 
Q 2597 3491 2834 3397 
z
" transform="scale(0.015625)"/>
       <path id="DejaVuSans-29" d="M 513 4856 
L 1013 4856 
Q 1481 4119 1714 3412 
Q 1947 2706 1947 2009 
Q 1947 1309 1714 600 
Q 1481 -109 1013 -844 
L 513 -844 
Q 928 -128 1133 580 
Q 1338 1288 1338 2009 
Q 1338 2731 1133 3434 
Q 928 4138 513 4856 
z
" transform="scale(0.015625)"/>
      </defs>
      <use xlink:href="#DejaVuSans-54"/>
      <use xlink:href="#DejaVuSans-69" transform="translate(57.958984 0)"/>
      <use xlink:href="#DejaVuSans-6d" transform="translate(85.742188 0)"/>
      <use xlink:href="#DejaVuSans-65" transform="translate(183.154297 0)"/>
      <use xlink:href="#DejaVuSans-20" transform="translate(244.677734 0)"/>
      <use xlink:href="#DejaVuSans-28" transform="translate(276.464844 0)"/>
      <use xlink:href="#DejaVuSans-73" transform="translate(315.478516 0)"/>
      <use xlink:href="#DejaVuSans-29" transform="translate(367.578125 0)"/>
     </g>
    </g>
   </g>
   <g id="matplotlib.axis_2">
    <g id="ytick_1">
     <g id="line2d_10">
      <defs>
       <path id="m1c0205f135" d="M 0 0 
L -3.5 0 
" style="stroke: #000000; stroke-width: 0.8"/>
      </defs>
      <g>
       <use xlink:href="#m1c0205f135" x="38.420552" y="363.130045" style="stroke: #000000; stroke-width: 0.8"/>
      </g>
     </g>
     <g id="text_11">
      <!-- −4 -->
      <g transform="translate(16.678365 366.929264) scale(0.1 -0.1)">
       <use xlink:href="#DejaVuSans-2212"/>
       <use xlink:href="#DejaVuSans-34" transform="translate(83.789062 0)"/>
      </g>
     </g>
    </g>
    <g id="ytick_2">
     <g id="line2d_11">
      <g>
       <use xlink:href="#m1c0205f135" x="38.420552" y="285.755491" style="stroke: #000000; stroke-width: 0.8"/>
      </g>
     </g>
     <g id="text_12">
      <!-- −2 -->
      <g transform="translate(16.678365 289.55471) scale(0.1 -0.1)">
       <use xlink:href="#DejaVuSans-2212"/>
       <use xlink:href="#DejaVuSans-32" transform="translate(83.789062 0)"/>
      </g>
     </g>
    </g>
    <g id="ytick_3">
     <g id="line2d_12">
      <g>
       <use xlink:href="#m1c0205f135" x="38.420552" y="208.380937" style="stroke: #000000; stroke-width: 0.8"/>
      </g>
     </g>
     <g id="text_13">
      <!-- 0 -->
      <g transform="translate(25.058052 212.180156) scale(0.1 -0.1)">
       <use xlink:href="#DejaVuSans-30"/>
      </g>
     </g>
    </g>
    <g id="ytick_4">
     <g id="line2d_13">
      <g>
       <use xlink:href="#m1c0205f135" x="38.420552" y="131.006384" style="stroke: #000000; stroke-width: 0.8"/>
      </g>
     </g>
     <g id="text_14">
      <!-- 2 -->
      <g transform="translate(25.058052 134.805603) scale(0.1 -0.1)">
       <use xlink:href="#DejaVuSans-32"/>
      </g>
     </g>
    </g>
    <g id="ytick_5">
     <g id="line2d_14">
      <g>
       <use xlink:href="#m1c0205f135" x="38.420552" y="53.63183" style="stroke: #000000; stroke-width: 0.8"/>
      </g>
     </g>
     <g id="text_15">
      <!-- 4 -->
      <g transform="translate(25.058052 57.431049) scale(0.1 -0.1)">
       <use xlink:href="#DejaVuSans-34"/>
      </g>
     </g>
    </g>
    <g id="text_16">
     <!-- µV -->
     <g transform="translate(10.598677 214.9825) rotate(-90) scale(0.1 -0.1)">
      <defs>
       <path id="DejaVuSans-b5" d="M 544 -1331 
L 544 3500 
L 1119 3500 
L 1119 1325 
Q 1119 872 1334 640 
Q 1550 409 1972 409 
Q 2434 409 2667 671 
Q 2900 934 2900 1459 
L 2900 3500 
L 3475 3500 
L 3475 806 
Q 3475 619 3529 530 
Q 3584 441 3700 441 
Q 3728 441 3778 458 
Q 3828 475 3916 513 
L 3916 50 
Q 3788 -22 3673 -56 
Q 3559 -91 3450 -91 
Q 3234 -91 3106 31 
Q 2978 153 2931 403 
Q 2775 156 2548 32 
Q 2322 -91 2016 -91 
Q 1697 -91 1473 31 
Q 1250 153 1119 397 
L 1119 -1331 
L 544 -1331 
z
" transform="scale(0.015625)"/>
       <path id="DejaVuSans-56" d="M 1831 0 
L 50 4666 
L 709 4666 
L 2188 738 
L 3669 4666 
L 4325 4666 
L 2547 0 
L 1831 0 
z
" transform="scale(0.015625)"/>
      </defs>
      <use xlink:href="#DejaVuSans-b5"/>
      <use xlink:href="#DejaVuSans-56" transform="translate(63.623047 0)"/>
     </g>
    </g>
   </g>
   <g id="patch_4">
    <path d="M 38.693039 398.64351 
L 561.866948 398.64351 
" style="fill: none; stroke: #000000; stroke-width: 0.8; stroke-linejoin: miter; stroke-linecap: square"/>
   </g>
   <g id="patch_5">
    <path d="M 38.420552 208.380937 
L 561.866948 208.380937 
" style="fill: none; stroke: #000000; stroke-width: 0.8; stroke-linejoin: miter; stroke-linecap: square"/>
   </g>
   <g id="text_17">
    <!-- Oz, O1, O2 (median) -->
    <g transform="translate(238.4825 12.118365) scale(0.12 -0.12)">
     <defs>
      <path id="DejaVuSans-4f" d="M 2522 4238 
Q 1834 4238 1429 3725 
Q 1025 3213 1025 2328 
Q 1025 1447 1429 934 
Q 1834 422 2522 422 
Q 3209 422 3611 934 
Q 4013 1447 4013 2328 
Q 4013 3213 3611 3725 
Q 3209 4238 2522 4238 
z
M 2522 4750 
Q 3503 4750 4090 4092 
Q 4678 3434 4678 2328 
Q 4678 1225 4090 567 
Q 3503 -91 2522 -91 
Q 1538 -91 948 565 
Q 359 1222 359 2328 
Q 359 3434 948 4092 
Q 1538 4750 2522 4750 
z
" transform="scale(0.015625)"/>
      <path id="DejaVuSans-7a" d="M 353 3500 
L 3084 3500 
L 3084 2975 
L 922 459 
L 3084 459 
L 3084 0 
L 275 0 
L 275 525 
L 2438 3041 
L 353 3041 
L 353 3500 
z
" transform="scale(0.015625)"/>
      <path id="DejaVuSans-2c" d="M 750 794 
L 1409 794 
L 1409 256 
L 897 -744 
L 494 -744 
L 750 256 
L 750 794 
z
" transform="scale(0.015625)"/>
      <path id="DejaVuSans-64" d="M 2906 2969 
L 2906 4863 
L 3481 4863 
L 3481 0 
L 2906 0 
L 2906 525 
Q 2725 213 2448 61 
Q 2172 -91 1784 -91 
Q 1150 -91 751 415 
Q 353 922 353 1747 
Q 353 2572 751 3078 
Q 1150 3584 1784 3584 
Q 2172 3584 2448 3432 
Q 2725 3281 2906 2969 
z
M 947 1747 
Q 947 1113 1208 752 
Q 1469 391 1925 391 
Q 2381 391 2643 752 
Q 2906 1113 2906 1747 
Q 2906 2381 2643 2742 
Q 2381 3103 1925 3103 
Q 1469 3103 1208 2742 
Q 947 2381 947 1747 
z
" transform="scale(0.015625)"/>
      <path id="DejaVuSans-61" d="M 2194 1759 
Q 1497 1759 1228 1600 
Q 959 1441 959 1056 
Q 959 750 1161 570 
Q 1363 391 1709 391 
Q 2188 391 2477 730 
Q 2766 1069 2766 1631 
L 2766 1759 
L 2194 1759 
z
M 3341 1997 
L 3341 0 
L 2766 0 
L 2766 531 
Q 2569 213 2275 61 
Q 1981 -91 1556 -91 
Q 1019 -91 701 211 
Q 384 513 384 1019 
Q 384 1609 779 1909 
Q 1175 2209 1959 2209 
L 2766 2209 
L 2766 2266 
Q 2766 2663 2505 2880 
Q 2244 3097 1772 3097 
Q 1472 3097 1187 3025 
Q 903 2953 641 2809 
L 641 3341 
Q 956 3463 1253 3523 
Q 1550 3584 1831 3584 
Q 2591 3584 2966 3190 
Q 3341 2797 3341 1997 
z
" transform="scale(0.015625)"/>
      <path id="DejaVuSans-6e" d="M 3513 2113 
L 3513 0 
L 2938 0 
L 2938 2094 
Q 2938 2591 2744 2837 
Q 2550 3084 2163 3084 
Q 1697 3084 1428 2787 
Q 1159 2491 1159 1978 
L 1159 0 
L 581 0 
L 581 3500 
L 1159 3500 
L 1159 2956 
Q 1366 3272 1645 3428 
Q 1925 3584 2291 3584 
Q 2894 3584 3203 3211 
Q 3513 2838 3513 2113 
z
" transform="scale(0.015625)"/>
     </defs>
     <use xlink:href="#DejaVuSans-4f"/>
     <use xlink:href="#DejaVuSans-7a" transform="translate(78.710938 0)"/>
     <use xlink:href="#DejaVuSans-2c" transform="translate(131.201172 0)"/>
     <use xlink:href="#DejaVuSans-20" transform="translate(162.988281 0)"/>
     <use xlink:href="#DejaVuSans-4f" transform="translate(194.775391 0)"/>
     <use xlink:href="#DejaVuSans-31" transform="translate(273.486328 0)"/>
     <use xlink:href="#DejaVuSans-2c" transform="translate(337.109375 0)"/>
     <use xlink:href="#DejaVuSans-20" transform="translate(368.896484 0)"/>
     <use xlink:href="#DejaVuSans-4f" transform="translate(400.683594 0)"/>
     <use xlink:href="#DejaVuSans-32" transform="translate(479.394531 0)"/>
     <use xlink:href="#DejaVuSans-20" transform="translate(543.017578 0)"/>
     <use xlink:href="#DejaVuSans-28" transform="translate(574.804688 0)"/>
     <use xlink:href="#DejaVuSans-6d" transform="translate(613.818359 0)"/>
     <use xlink:href="#DejaVuSans-65" transform="translate(711.230469 0)"/>
     <use xlink:href="#DejaVuSans-64" transform="translate(772.753906 0)"/>
     <use xlink:href="#DejaVuSans-69" transform="translate(836.230469 0)"/>
     <use xlink:href="#DejaVuSans-61" transform="translate(864.013672 0)"/>
     <use xlink:href="#DejaVuSans-6e" transform="translate(925.292969 0)"/>
     <use xlink:href="#DejaVuSans-29" transform="translate(988.671875 0)"/>
    </g>
   </g>
   <g id="legend_1">
    <g id="patch_6">
     <path d="M 45.420552 55.75274 
L 126.56274 55.75274 
Q 128.56274 55.75274 128.56274 53.75274 
L 128.56274 25.118365 
Q 128.56274 23.118365 126.56274 23.118365 
L 45.420552 23.118365 
Q 43.420552 23.118365 43.420552 25.118365 
L 43.420552 53.75274 
Q 43.420552 55.75274 45.420552 55.75274 
z
" style="fill: #ffffff; opacity: 0.8; stroke: #cccccc; stroke-linejoin: miter"/>
    </g>
    <g id="line2d_15">
     <path d="M 47.420552 31.216803 
L 57.420552 31.216803 
L 67.420552 31.216803 
" style="fill: none; stroke: #1f77b4; stroke-width: 1.5; stroke-linecap: square"/>
    </g>
    <g id="text_18">
     <!-- eerie -->
     <g transform="translate(75.420552 34.716803) scale(0.1 -0.1)">
      <defs>
       <path id="DejaVuSans-72" d="M 2631 2963 
Q 2534 3019 2420 3045 
Q 2306 3072 2169 3072 
Q 1681 3072 1420 2755 
Q 1159 2438 1159 1844 
L 1159 0 
L 581 0 
L 581 3500 
L 1159 3500 
L 1159 2956 
Q 1341 3275 1631 3429 
Q 1922 3584 2338 3584 
Q 2397 3584 2469 3576 
Q 2541 3569 2628 3553 
L 2631 2963 
z
" transform="scale(0.015625)"/>
      </defs>
      <use xlink:href="#DejaVuSans-65"/>
      <use xlink:href="#DejaVuSans-65" transform="translate(61.523438 0)"/>
      <use xlink:href="#DejaVuSans-72" transform="translate(123.046875 0)"/>
      <use xlink:href="#DejaVuSans-69" transform="translate(164.160156 0)"/>
      <use xlink:href="#DejaVuSans-65" transform="translate(191.943359 0)"/>
     </g>
    </g>
    <g id="line2d_16">
     <path d="M 47.420552 45.894928 
L 57.420552 45.894928 
L 67.420552 45.894928 
" style="fill: none; stroke: #ff7f0e; stroke-width: 1.5; stroke-linecap: square"/>
    </g>
    <g id="text_19">
     <!-- non_eerie -->
     <g transform="translate(75.420552 49.394928) scale(0.1 -0.1)">
      <defs>
       <path id="DejaVuSans-6f" d="M 1959 3097 
Q 1497 3097 1228 2736 
Q 959 2375 959 1747 
Q 959 1119 1226 758 
Q 1494 397 1959 397 
Q 2419 397 2687 759 
Q 2956 1122 2956 1747 
Q 2956 2369 2687 2733 
Q 2419 3097 1959 3097 
z
M 1959 3584 
Q 2709 3584 3137 3096 
Q 3566 2609 3566 1747 
Q 3566 888 3137 398 
Q 2709 -91 1959 -91 
Q 1206 -91 779 398 
Q 353 888 353 1747 
Q 353 2609 779 3096 
Q 1206 3584 1959 3584 
z
" transform="scale(0.015625)"/>
       <path id="DejaVuSans-5f" d="M 3263 -1063 
L 3263 -1509 
L -63 -1509 
L -63 -1063 
L 3263 -1063 
z
" transform="scale(0.015625)"/>
      </defs>
      <use xlink:href="#DejaVuSans-6e"/>
      <use xlink:href="#DejaVuSans-6f" transform="translate(63.378906 0)"/>
      <use xlink:href="#DejaVuSans-6e" transform="translate(124.560547 0)"/>
      <use xlink:href="#DejaVuSans-5f" transform="translate(187.939453 0)"/>
      <use xlink:href="#DejaVuSans-65" transform="translate(237.939453 0)"/>
      <use xlink:href="#DejaVuSans-65" transform="translate(299.462891 0)"/>
      <use xlink:href="#DejaVuSans-72" transform="translate(360.986328 0)"/>
      <use xlink:href="#DejaVuSans-69" transform="translate(402.099609 0)"/>
      <use xlink:href="#DejaVuSans-65" transform="translate(429.882812 0)"/>
     </g>
    </g>
   </g>
   <g id="FillBetweenPolyCollection_1">
    <defs>
     <path id="m69d4852417" d="M 38.420552 -258.186718 
L 38.420552 -229.650319 
L 40.123593 -223.844401 
L 41.826633 -221.787788 
L 43.529673 -222.520914 
L 45.232713 -227.747506 
L 46.935753 -234.784029 
L 48.638793 -238.202393 
L 50.341833 -237.255758 
L 52.044873 -230.691962 
L 53.747913 -221.852692 
L 55.450953 -209.311298 
L 57.153993 -193.9433 
L 58.857033 -184.668442 
L 60.560073 -181.069787 
L 62.263113 -184.093197 
L 63.966154 -191.907073 
L 65.669194 -200.022779 
L 67.372234 -207.468372 
L 69.075274 -215.92964 
L 70.778314 -221.899255 
L 72.481354 -223.604095 
L 74.184394 -221.787353 
L 75.887434 -218.563844 
L 77.590474 -218.221869 
L 79.293514 -222.923636 
L 80.996554 -235.697264 
L 82.699594 -243.855429 
L 84.402634 -241.408271 
L 86.105674 -228.973244 
L 87.808714 -208.119405 
L 89.511755 -190.376157 
L 91.214795 -184.236263 
L 92.917835 -193.11906 
L 94.620875 -213.768741 
L 96.323915 -231.039947 
L 98.026955 -230.669034 
L 99.729995 -217.006344 
L 101.433035 -193.017222 
L 103.136075 -169.117691 
L 104.839115 -160.814169 
L 106.542155 -167.895556 
L 108.245195 -184.677132 
L 109.948235 -199.743534 
L 111.651275 -204.044617 
L 113.354315 -197.960382 
L 115.057356 -192.142367 
L 116.760396 -192.648493 
L 118.463436 -201.621832 
L 120.166476 -219.359363 
L 121.869516 -237.406265 
L 123.572556 -246.739564 
L 125.275596 -240.433188 
L 126.978636 -224.067239 
L 128.681676 -200.989178 
L 130.384716 -178.552525 
L 132.087756 -165.220704 
L 133.790796 -162.36854 
L 135.493836 -168.413159 
L 137.196876 -177.00754 
L 138.899916 -184.200109 
L 140.602957 -189.223138 
L 142.305997 -183.85634 
L 144.009037 -172.061969 
L 145.712077 -160.230092 
L 147.415117 -154.054445 
L 149.118157 -153.684362 
L 150.821197 -162.017931 
L 152.524237 -167.727634 
L 154.227277 -168.033671 
L 155.930317 -162.245889 
L 157.633357 -154.078309 
L 159.336397 -151.539736 
L 161.039437 -163.787703 
L 162.742477 -186.034471 
L 164.445517 -214.567452 
L 166.148558 -238.517607 
L 167.851598 -248.740383 
L 169.554638 -249.561337 
L 171.257678 -238.56246 
L 172.960718 -228.465456 
L 174.663758 -223.429494 
L 176.366798 -221.454076 
L 178.069838 -219.503758 
L 179.772878 -215.249183 
L 181.475918 -204.690681 
L 183.178958 -190.451488 
L 184.881998 -177.88481 
L 186.585038 -166.411959 
L 188.288078 -154.542012 
L 189.991118 -143.985149 
L 191.694159 -133.401558 
L 193.397199 -133.271453 
L 195.100239 -138.800419 
L 196.803279 -153.970359 
L 198.506319 -169.66113 
L 200.209359 -177.205782 
L 201.912399 -168.427166 
L 203.615439 -150.683753 
L 205.318479 -137.181419 
L 207.021519 -136.584286 
L 208.724559 -152.235024 
L 210.427599 -179.578536 
L 212.130639 -205.616055 
L 213.833679 -215.353508 
L 215.536719 -210.393362 
L 217.23976 -199.696289 
L 218.9428 -195.641713 
L 220.64584 -201.63187 
L 222.34888 -210.532704 
L 224.05192 -214.376119 
L 225.75496 -204.180878 
L 227.458 -186.082409 
L 229.16104 -164.475425 
L 230.86408 -155.231133 
L 232.56712 -162.751734 
L 234.27016 -177.140313 
L 235.9732 -194.336506 
L 237.67624 -201.889461 
L 239.37928 -197.050769 
L 241.08232 -180.076143 
L 242.785361 -157.932488 
L 244.488401 -137.598946 
L 246.191441 -122.718829 
L 247.894481 -116.36357 
L 249.597521 -114.49189 
L 251.300561 -117.537961 
L 253.003601 -120.859441 
L 254.706641 -113.650246 
L 256.409681 -98.704833 
L 258.112721 -81.428505 
L 259.815761 -69.195276 
L 261.518801 -72.307864 
L 263.221841 -84.450507 
L 264.924881 -95.544472 
L 266.627921 -94.881175 
L 268.330962 -78.177931 
L 270.034002 -57.068327 
L 271.737042 -47.16654 
L 273.440082 -59.102997 
L 275.143122 -89.578633 
L 276.846162 -123.789302 
L 278.549202 -142.076294 
L 280.252242 -134.118459 
L 281.955282 -109.78165 
L 283.658322 -90.246215 
L 285.361362 -87.921619 
L 287.064402 -108.417945 
L 288.767442 -132.675686 
L 290.470482 -142.756535 
L 292.173522 -131.260351 
L 293.876563 -108.233593 
L 295.579603 -88.394623 
L 297.282643 -86.806751 
L 298.985683 -102.424203 
L 300.688723 -120.483089 
L 302.391763 -130.953943 
L 304.094803 -123.503318 
L 305.797843 -99.993724 
L 307.500883 -82.932418 
L 309.203923 -83.881941 
L 310.906963 -106.444474 
L 312.610003 -140.093172 
L 314.313043 -169.243767 
L 316.016083 -184.441499 
L 317.719123 -183.147203 
L 319.422164 -174.479637 
L 321.125204 -162.892852 
L 322.828244 -160.097787 
L 324.531284 -166.44124 
L 326.234324 -182.740534 
L 327.937364 -201.227036 
L 329.640404 -210.691022 
L 331.343444 -213.544688 
L 333.046484 -209.473194 
L 334.749524 -207.077288 
L 336.452564 -205.023838 
L 338.155604 -203.323114 
L 339.858644 -196.662554 
L 341.561684 -185.525776 
L 343.264724 -171.023649 
L 344.967765 -157.624646 
L 346.670805 -144.860474 
L 348.373845 -138.248316 
L 350.076885 -134.991952 
L 351.779925 -133.204186 
L 353.482965 -133.715534 
L 355.186005 -137.718285 
L 356.889045 -149.497462 
L 358.592085 -161.74548 
L 360.295125 -171.353534 
L 361.998165 -175.479494 
L 363.701205 -172.853932 
L 365.404245 -165.981362 
L 367.107285 -159.274027 
L 368.810326 -156.134541 
L 370.513366 -155.996452 
L 372.216406 -150.414954 
L 373.919446 -139.686596 
L 375.622486 -124.21968 
L 377.325526 -124.161268 
L 379.028566 -137.419977 
L 380.731606 -167.847572 
L 382.434646 -204.209625 
L 384.137686 -227.231612 
L 385.840726 -227.569876 
L 387.543766 -202.167715 
L 389.246806 -165.106126 
L 390.949846 -132.854087 
L 392.652886 -120.564351 
L 394.355927 -123.66951 
L 396.058967 -135.710051 
L 397.762007 -146.223217 
L 399.465047 -154.300991 
L 401.168087 -161.027263 
L 402.871127 -166.515795 
L 404.574167 -171.064702 
L 406.277207 -175.883741 
L 407.980247 -173.223194 
L 409.683287 -162.766746 
L 411.386327 -145.417483 
L 413.089367 -125.289992 
L 414.792407 -109.730339 
L 416.495447 -104.902098 
L 418.198487 -114.409115 
L 419.901528 -137.382877 
L 421.604568 -165.928527 
L 423.307608 -188.236067 
L 425.010648 -195.398782 
L 426.713688 -187.648692 
L 428.416728 -166.177972 
L 430.119768 -138.876725 
L 431.822808 -122.81554 
L 433.525848 -125.099228 
L 435.228888 -140.475942 
L 436.931928 -156.701349 
L 438.634968 -166.252997 
L 440.338008 -158.158212 
L 442.041048 -135.771419 
L 443.744088 -106.471708 
L 445.447129 -80.71488 
L 447.150169 -66.990389 
L 448.853209 -66.591262 
L 450.556249 -78.969534 
L 452.259289 -92.319161 
L 453.962329 -98.892845 
L 455.665369 -97.397925 
L 457.368409 -94.403489 
L 459.071449 -86.06955 
L 460.774489 -81.712327 
L 462.477529 -86.960906 
L 464.180569 -99.615249 
L 465.883609 -114.301295 
L 467.586649 -122.037728 
L 469.289689 -115.878269 
L 470.99273 -94.686283 
L 472.69577 -69.268975 
L 474.39881 -49.710899 
L 476.10185 -47.233371 
L 477.80489 -60.768303 
L 479.50793 -79.220249 
L 481.21097 -89.745548 
L 482.91401 -87.650333 
L 484.61705 -75.157626 
L 486.32009 -66.099071 
L 488.02313 -67.196092 
L 489.72617 -77.194564 
L 491.42921 -91.363026 
L 493.13225 -93.596064 
L 494.83529 -81.235777 
L 496.538331 -63.419555 
L 498.241371 -51.864547 
L 499.944411 -58.761473 
L 501.647451 -77.750628 
L 503.350491 -97.988942 
L 505.053531 -105.517824 
L 506.756571 -95.458691 
L 508.459611 -78.947343 
L 510.162651 -66.335418 
L 511.865691 -61.578054 
L 513.568731 -70.770406 
L 515.271771 -85.273315 
L 516.974811 -92.386505 
L 518.677851 -91.291857 
L 520.380891 -80.74682 
L 522.083932 -68.540861 
L 523.786972 -62.681121 
L 525.490012 -69.039742 
L 527.193052 -78.535788 
L 528.896092 -81.364942 
L 530.599132 -75.683246 
L 532.302172 -65.64294 
L 534.005212 -61.834437 
L 535.708252 -68.480823 
L 537.411292 -78.038652 
L 539.114332 -85.31273 
L 540.817372 -83.283267 
L 542.520412 -69.126397 
L 544.223452 -48.633775 
L 545.926492 -33.35649 
L 547.629533 -36.661419 
L 549.332573 -55.245813 
L 551.035613 -86.923504 
L 552.738653 -114.656369 
L 554.441693 -130.109732 
L 556.144733 -135.180072 
L 557.847773 -129.351857 
L 559.550813 -118.848189 
L 561.253853 -108.442023 
L 561.253853 -143.07676 
L 561.253853 -143.07676 
L 559.550813 -151.218614 
L 557.847773 -161.667355 
L 556.144733 -166.527403 
L 554.441693 -163.210907 
L 552.738653 -146.657484 
L 551.035613 -119.339321 
L 549.332573 -86.680798 
L 547.629533 -67.578518 
L 545.926492 -63.943994 
L 544.223452 -79.082773 
L 542.520412 -101.294501 
L 540.817372 -117.878123 
L 539.114332 -121.057046 
L 537.411292 -113.94342 
L 535.708252 -103.860107 
L 534.005212 -98.324674 
L 532.302172 -102.445381 
L 530.599132 -111.262627 
L 528.896092 -113.256967 
L 527.193052 -108.1395 
L 525.490012 -96.813104 
L 523.786972 -90.427504 
L 522.083932 -94.367608 
L 520.380891 -107.549162 
L 518.677851 -120.542667 
L 516.974811 -123.89835 
L 515.271771 -115.218024 
L 513.568731 -100.39621 
L 511.865691 -91.449283 
L 510.162651 -97.062585 
L 508.459611 -111.057119 
L 506.756571 -126.333725 
L 505.053531 -135.044292 
L 503.350491 -127.926381 
L 501.647451 -109.672907 
L 499.944411 -91.646867 
L 498.241371 -83.868399 
L 496.538331 -94.348195 
L 494.83529 -111.447365 
L 493.13225 -123.229145 
L 491.42921 -118.931499 
L 489.72617 -104.452068 
L 488.02313 -93.72175 
L 486.32009 -93.830669 
L 484.61705 -105.714467 
L 482.91401 -120.251936 
L 481.21097 -121.201891 
L 479.50793 -108.052182 
L 477.80489 -88.525655 
L 476.10185 -76.165917 
L 474.39881 -78.514796 
L 472.69577 -98.696205 
L 470.99273 -123.522702 
L 469.289689 -143.313033 
L 467.586649 -148.603286 
L 465.883609 -140.967308 
L 464.180569 -126.661149 
L 462.477529 -112.298244 
L 460.774489 -108.791507 
L 459.071449 -114.280874 
L 457.368409 -123.069194 
L 455.665369 -126.499506 
L 453.962329 -127.302438 
L 452.259289 -120.271818 
L 450.556249 -106.494426 
L 448.853209 -95.665463 
L 447.150169 -96.494725 
L 445.447129 -109.132412 
L 443.744088 -136.379988 
L 442.041048 -166.780268 
L 440.338008 -187.041741 
L 438.634968 -192.908369 
L 436.931928 -184.735423 
L 435.228888 -170.280561 
L 433.525848 -156.904976 
L 431.822808 -156.165683 
L 430.119768 -170.047712 
L 428.416728 -197.437734 
L 426.713688 -218.470773 
L 425.010648 -227.200513 
L 423.307608 -219.989918 
L 421.604568 -196.563564 
L 419.901528 -168.11409 
L 418.198487 -145.624383 
L 416.495447 -137.730548 
L 414.792407 -140.365999 
L 413.089367 -154.046839 
L 411.386327 -174.640768 
L 409.683287 -192.636776 
L 407.980247 -203.443178 
L 406.277207 -205.433114 
L 404.574167 -198.536238 
L 402.871127 -192.70904 
L 401.168087 -186.8772 
L 399.465047 -181.784172 
L 397.762007 -176.797447 
L 396.058967 -168.632586 
L 394.355927 -157.089423 
L 392.652886 -151.186484 
L 390.949846 -161.218446 
L 389.246806 -192.247835 
L 387.543766 -229.755886 
L 385.840726 -254.715688 
L 384.137686 -255.471381 
L 382.434646 -234.09381 
L 380.731606 -199.273731 
L 379.028566 -167.934534 
L 377.325526 -153.377462 
L 375.622486 -152.63884 
L 373.919446 -168.419525 
L 372.216406 -179.697075 
L 370.513366 -185.376955 
L 368.810326 -186.353497 
L 367.107285 -189.130071 
L 365.404245 -195.979618 
L 363.701205 -202.052381 
L 361.998165 -205.582359 
L 360.295125 -201.343915 
L 358.592085 -191.969306 
L 356.889045 -178.194805 
L 355.186005 -165.942703 
L 353.482965 -163.68861 
L 351.779925 -163.74674 
L 350.076885 -165.518901 
L 348.373845 -169.416225 
L 346.670805 -177.700948 
L 344.967765 -189.524199 
L 343.264724 -201.280027 
L 341.561684 -217.889557 
L 339.858644 -231.8712 
L 338.155604 -240.671643 
L 336.452564 -241.828499 
L 334.749524 -242.551822 
L 333.046484 -246.845221 
L 331.343444 -248.899601 
L 329.640404 -243.308682 
L 327.937364 -231.974199 
L 326.234324 -216.298739 
L 324.531284 -201.929564 
L 322.828244 -194.221599 
L 321.125204 -194.765978 
L 319.422164 -207.413863 
L 317.719123 -217.891539 
L 316.016083 -217.938792 
L 314.313043 -200.544596 
L 312.610003 -170.052422 
L 310.906963 -134.373709 
L 309.203923 -112.310415 
L 307.500883 -110.973707 
L 305.797843 -129.291178 
L 304.094803 -153.014843 
L 302.391763 -163.795122 
L 300.688723 -155.599293 
L 298.985683 -136.100814 
L 297.282643 -115.528065 
L 295.579603 -114.64434 
L 293.876563 -134.175013 
L 292.173522 -155.920791 
L 290.470482 -168.550545 
L 288.767442 -161.642722 
L 287.064402 -139.611978 
L 285.361362 -120.115671 
L 283.658322 -120.51093 
L 281.955282 -138.994523 
L 280.252242 -161.428231 
L 278.549202 -167.91098 
L 276.846162 -150.717677 
L 275.143122 -119.383044 
L 273.440082 -90.549162 
L 271.737042 -78.70805 
L 270.034002 -88.383999 
L 268.330962 -108.711793 
L 266.627921 -123.801158 
L 264.924881 -125.251231 
L 263.221841 -115.393523 
L 261.518801 -103.854896 
L 259.815761 -98.985726 
L 258.112721 -110.819259 
L 256.409681 -127.755818 
L 254.706641 -142.385519 
L 253.003601 -149.593785 
L 251.300561 -146.64428 
L 249.597521 -143.986836 
L 247.894481 -144.821298 
L 246.191441 -149.611244 
L 244.488401 -163.111597 
L 242.785361 -182.871797 
L 241.08232 -205.459918 
L 239.37928 -222.551112 
L 237.67624 -228.309371 
L 235.9732 -219.401904 
L 234.27016 -202.398442 
L 232.56712 -187.762383 
L 230.86408 -180.865051 
L 229.16104 -190.207318 
L 227.458 -212.94544 
L 225.75496 -231.054803 
L 224.05192 -238.784961 
L 222.34888 -231.987247 
L 220.64584 -224.776793 
L 218.9428 -222.495035 
L 217.23976 -227.986438 
L 215.536719 -238.420311 
L 213.833679 -241.565186 
L 212.130639 -231.891909 
L 210.427599 -207.178644 
L 208.724559 -179.922918 
L 207.021519 -161.588876 
L 205.318479 -162.829456 
L 203.615439 -177.452721 
L 201.912399 -194.706511 
L 200.209359 -202.069588 
L 198.506319 -194.268115 
L 196.803279 -180.073511 
L 195.100239 -165.981983 
L 193.397199 -158.189863 
L 191.694159 -157.367906 
L 189.991118 -168.373245 
L 188.288078 -180.417834 
L 186.585038 -193.656976 
L 184.881998 -205.913296 
L 183.178958 -218.454167 
L 181.475918 -233.891771 
L 179.772878 -244.221268 
L 178.069838 -248.777832 
L 176.366798 -249.003317 
L 174.663758 -249.879658 
L 172.960718 -256.587812 
L 171.257678 -270.118631 
L 169.554638 -282.706453 
L 167.851598 -280.654152 
L 166.148558 -267.776609 
L 164.445517 -243.916233 
L 162.742477 -216.480304 
L 161.039437 -193.630567 
L 159.336397 -181.133497 
L 157.633357 -183.655747 
L 155.930317 -192.930343 
L 154.227277 -197.164653 
L 152.524237 -193.92954 
L 150.821197 -186.511532 
L 149.118157 -178.635428 
L 147.415117 -180.184332 
L 145.712077 -187.029919 
L 144.009037 -199.045891 
L 142.305997 -208.836746 
L 140.602957 -215.515061 
L 138.899916 -211.64419 
L 137.196876 -205.731792 
L 135.493836 -196.003475 
L 133.790796 -189.661234 
L 132.087756 -195.189958 
L 130.384716 -209.451214 
L 128.681676 -231.117629 
L 126.978636 -253.172288 
L 125.275596 -269.1836 
L 123.572556 -274.147918 
L 121.869516 -264.093626 
L 120.166476 -245.480374 
L 118.463436 -226.470464 
L 116.760396 -217.340537 
L 115.057356 -216.111248 
L 113.354315 -222.048758 
L 111.651275 -228.39063 
L 109.948235 -223.254319 
L 108.245195 -208.130952 
L 106.542155 -193.086721 
L 104.839115 -186.63001 
L 103.136075 -194.723657 
L 101.433035 -218.562813 
L 99.729995 -244.323712 
L 98.026955 -258.97441 
L 96.323915 -258.921373 
L 94.620875 -240.700777 
L 92.917835 -218.474351 
L 91.214795 -206.892595 
L 89.511755 -213.160933 
L 87.808714 -234.085007 
L 86.105674 -254.753239 
L 84.402634 -265.317245 
L 82.699594 -265.383924 
L 80.996554 -258.02914 
L 79.293514 -247.348969 
L 77.590474 -241.865747 
L 75.887434 -242.109029 
L 74.184394 -245.4748 
L 72.481354 -246.193852 
L 70.778314 -243.016268 
L 69.075274 -237.243163 
L 67.372234 -229.632889 
L 65.669194 -224.383104 
L 63.966154 -217.218889 
L 62.263113 -211.596394 
L 60.560073 -208.299095 
L 58.857033 -209.512468 
L 57.153993 -216.904601 
L 55.450953 -234.064709 
L 53.747913 -249.050273 
L 52.044873 -258.877263 
L 50.341833 -264.110752 
L 48.638793 -263.919271 
L 46.935753 -260.496179 
L 45.232713 -253.403292 
L 43.529673 -249.166683 
L 41.826633 -248.235472 
L 40.123593 -249.781952 
L 38.420552 -258.186718 
z
" style="stroke: #1f77b4; stroke-opacity: 0.3"/>
    </defs>
    <g>
     <use xlink:href="#m69d4852417" x="0" y="432" style="fill: #1f77b4; fill-opacity: 0.3; stroke: #1f77b4; stroke-opacity: 0.3"/>
    </g>
   </g>
   <g id="FillBetweenPolyCollection_2">
    <defs>
     <path id="m176183158b" d="M 38.420552 -247.541089 
L 38.420552 -231.945616 
L 40.123593 -216.565591 
L 41.826633 -204.670222 
L 43.529673 -207.198484 
L 45.232713 -220.20464 
L 46.935753 -239.321996 
L 48.638793 -255.267623 
L 50.341833 -261.968782 
L 52.044873 -257.467731 
L 53.747913 -242.513786 
L 55.450953 -225.094647 
L 57.153993 -212.526553 
L 58.857033 -208.618905 
L 60.560073 -212.45827 
L 62.263113 -221.34189 
L 63.966154 -228.028852 
L 65.669194 -226.973182 
L 67.372234 -217.727213 
L 69.075274 -207.253861 
L 70.778314 -204.496959 
L 72.481354 -218.456812 
L 74.184394 -243.727159 
L 75.887434 -269.972651 
L 77.590474 -283.737059 
L 79.293514 -274.982461 
L 80.996554 -249.342379 
L 82.699594 -217.452687 
L 84.402634 -197.967602 
L 86.105674 -197.914223 
L 87.808714 -213.835216 
L 89.511755 -234.932029 
L 91.214795 -246.195726 
L 92.917835 -238.288759 
L 94.620875 -216.993687 
L 96.323915 -193.532945 
L 98.026955 -180.401982 
L 99.729995 -182.624468 
L 101.433035 -195.073879 
L 103.136075 -208.252298 
L 104.839115 -214.924983 
L 106.542155 -209.124964 
L 108.245195 -196.267193 
L 109.948235 -185.691082 
L 111.651275 -185.081933 
L 113.354315 -192.934499 
L 115.057356 -204.392261 
L 116.760396 -209.126982 
L 118.463436 -202.763324 
L 120.166476 -190.349976 
L 121.869516 -177.650715 
L 123.572556 -172.554945 
L 125.275596 -179.047397 
L 126.978636 -191.1052 
L 128.681676 -198.095698 
L 130.384716 -194.299473 
L 132.087756 -178.664084 
L 133.790796 -159.36803 
L 135.493836 -146.600486 
L 137.196876 -147.138809 
L 138.899916 -157.480776 
L 140.602957 -171.401283 
L 142.305997 -179.741738 
L 144.009037 -178.403497 
L 145.712077 -167.729095 
L 147.415117 -159.287497 
L 149.118157 -158.238329 
L 150.821197 -165.612386 
L 152.524237 -176.838778 
L 154.227277 -186.905481 
L 155.930317 -190.353037 
L 157.633357 -188.787635 
L 159.336397 -183.15511 
L 161.039437 -181.419182 
L 162.742477 -183.177261 
L 164.445517 -186.530117 
L 166.148558 -190.346377 
L 167.851598 -194.553004 
L 169.554638 -198.492625 
L 171.257678 -204.162876 
L 172.960718 -211.457593 
L 174.663758 -217.866451 
L 176.366798 -218.847867 
L 178.069838 -215.349429 
L 179.772878 -207.486669 
L 181.475918 -196.521948 
L 183.178958 -187.47335 
L 184.881998 -179.821433 
L 186.585038 -171.911885 
L 188.288078 -160.651337 
L 189.991118 -151.290356 
L 191.694159 -144.224708 
L 193.397199 -139.809221 
L 195.100239 -138.939983 
L 196.803279 -138.443515 
L 198.506319 -138.06592 
L 200.209359 -139.489891 
L 201.912399 -145.368926 
L 203.615439 -157.263099 
L 205.318479 -176.024704 
L 207.021519 -197.646072 
L 208.724559 -214.4982 
L 210.427599 -222.928189 
L 212.130639 -223.978338 
L 213.833679 -221.348198 
L 215.536719 -218.166637 
L 217.23976 -220.399385 
L 218.9428 -226.767495 
L 220.64584 -235.652983 
L 222.34888 -245.111811 
L 224.05192 -248.896442 
L 225.75496 -246.718619 
L 227.458 -238.778336 
L 229.16104 -226.411555 
L 230.86408 -209.831242 
L 232.56712 -196.084921 
L 234.27016 -188.234477 
L 235.9732 -189.017766 
L 237.67624 -195.107851 
L 239.37928 -199.453716 
L 241.08232 -196.236208 
L 242.785361 -185.26905 
L 244.488401 -165.763965 
L 246.191441 -147.867133 
L 247.894481 -137.761262 
L 249.597521 -138.874643 
L 251.300561 -147.110307 
L 253.003601 -155.455761 
L 254.706641 -157.243558 
L 256.409681 -151.002472 
L 258.112721 -142.185175 
L 259.815761 -132.299953 
L 261.518801 -126.678057 
L 263.221841 -124.16686 
L 264.924881 -120.685771 
L 266.627921 -113.203679 
L 268.330962 -104.814777 
L 270.034002 -99.496414 
L 271.737042 -99.980101 
L 273.440082 -106.756009 
L 275.143122 -116.02326 
L 276.846162 -121.914572 
L 278.549202 -121.10919 
L 280.252242 -112.770541 
L 281.955282 -104.660543 
L 283.658322 -101.809406 
L 285.361362 -107.049026 
L 287.064402 -116.645822 
L 288.767442 -126.368945 
L 290.470482 -131.322813 
L 292.173522 -129.956491 
L 293.876563 -127.581281 
L 295.579603 -128.919476 
L 297.282643 -134.075064 
L 298.985683 -140.808299 
L 300.688723 -147.297063 
L 302.391763 -148.11932 
L 304.094803 -140.638391 
L 305.797843 -129.593948 
L 307.500883 -119.900747 
L 309.203923 -118.182753 
L 310.906963 -121.639352 
L 312.610003 -125.872037 
L 314.313043 -131.362698 
L 316.016083 -136.009887 
L 317.719123 -134.552827 
L 319.422164 -129.267011 
L 321.125204 -125.305998 
L 322.828244 -124.906482 
L 324.531284 -129.141589 
L 326.234324 -139.542615 
L 327.937364 -154.462636 
L 329.640404 -170.228738 
L 331.343444 -183.396106 
L 333.046484 -188.647406 
L 334.749524 -180.715439 
L 336.452564 -165.333435 
L 338.155604 -150.14782 
L 339.858644 -143.277468 
L 341.561684 -145.584536 
L 343.264724 -156.471477 
L 344.967765 -164.0746 
L 346.670805 -161.899047 
L 348.373845 -149.228432 
L 350.076885 -132.618998 
L 351.779925 -123.515226 
L 353.482965 -124.867786 
L 355.186005 -136.093558 
L 356.889045 -149.054328 
L 358.592085 -151.279927 
L 360.295125 -140.006944 
L 361.998165 -123.784061 
L 363.701205 -113.143749 
L 365.404245 -117.01508 
L 367.107285 -135.583245 
L 368.810326 -160.051408 
L 370.513366 -179.775858 
L 372.216406 -186.265409 
L 373.919446 -181.116367 
L 375.622486 -170.485853 
L 377.325526 -163.380789 
L 379.028566 -164.559925 
L 380.731606 -168.489982 
L 382.434646 -170.10406 
L 384.137686 -165.193141 
L 385.840726 -156.32063 
L 387.543766 -149.304726 
L 389.246806 -145.572705 
L 390.949846 -145.960666 
L 392.652886 -146.733817 
L 394.355927 -146.778206 
L 396.058967 -143.483444 
L 397.762007 -139.107573 
L 399.465047 -139.406827 
L 401.168087 -144.770027 
L 402.871127 -153.762209 
L 404.574167 -158.509764 
L 406.277207 -159.248246 
L 407.980247 -157.516423 
L 409.683287 -152.842718 
L 411.386327 -150.622767 
L 413.089367 -150.566572 
L 414.792407 -147.886072 
L 416.495447 -140.556483 
L 418.198487 -129.726746 
L 419.901528 -122.355613 
L 421.604568 -122.612677 
L 423.307608 -128.911031 
L 425.010648 -134.054388 
L 426.713688 -137.043018 
L 428.416728 -134.420589 
L 430.119768 -126.190087 
L 431.822808 -118.489461 
L 433.525848 -113.093718 
L 435.228888 -113.856229 
L 436.931928 -115.869615 
L 438.634968 -115.792041 
L 440.338008 -114.973239 
L 442.041048 -112.595443 
L 443.744088 -110.823841 
L 445.447129 -108.728931 
L 447.150169 -103.333067 
L 448.853209 -95.640769 
L 450.556249 -87.941784 
L 452.259289 -85.934433 
L 453.962329 -90.620738 
L 455.665369 -102.847467 
L 457.368409 -116.268896 
L 459.071449 -121.066873 
L 460.774489 -115.319977 
L 462.477529 -101.515086 
L 464.180569 -88.879903 
L 465.883609 -81.924662 
L 467.586649 -84.593293 
L 469.289689 -90.243341 
L 470.99273 -93.760794 
L 472.69577 -93.554538 
L 474.39881 -91.366803 
L 476.10185 -92.618773 
L 477.80489 -99.974755 
L 479.50793 -109.254921 
L 481.21097 -113.601847 
L 482.91401 -106.231557 
L 484.61705 -87.883295 
L 486.32009 -62.343974 
L 488.02313 -44.53816 
L 489.72617 -41.379017 
L 491.42921 -53.399113 
L 493.13225 -74.790362 
L 494.83529 -94.897966 
L 496.538331 -104.949488 
L 498.241371 -108.302336 
L 499.944411 -105.580866 
L 501.647451 -104.604973 
L 503.350491 -104.301615 
L 505.053531 -103.377268 
L 506.756571 -102.344197 
L 508.459611 -100.864283 
L 510.162651 -100.86663 
L 511.865691 -104.727644 
L 513.568731 -111.037909 
L 515.271771 -113.899066 
L 516.974811 -112.106042 
L 518.677851 -105.142575 
L 520.380891 -98.717185 
L 522.083932 -97.49241 
L 523.786972 -103.661069 
L 525.490012 -116.512301 
L 527.193052 -127.74292 
L 528.896092 -131.235742 
L 530.599132 -119.091761 
L 532.302172 -99.129831 
L 534.005212 -81.173198 
L 535.708252 -75.427842 
L 537.411292 -85.790261 
L 539.114332 -104.235958 
L 540.817372 -121.925361 
L 542.520412 -127.856301 
L 544.223452 -123.783952 
L 545.926492 -113.963869 
L 547.629533 -104.91439 
L 549.332573 -103.831445 
L 551.035613 -106.09233 
L 552.738653 -107.801152 
L 554.441693 -103.794746 
L 556.144733 -95.674356 
L 557.847773 -88.00742 
L 559.550813 -88.467066 
L 561.253853 -100.650792 
L 561.253853 -118.371317 
L 561.253853 -118.371317 
L 559.550813 -107.038055 
L 557.847773 -106.122121 
L 556.144733 -112.338879 
L 554.441693 -120.293451 
L 552.738653 -124.305422 
L 551.035613 -123.327176 
L 549.332573 -121.854388 
L 547.629533 -122.788093 
L 545.926492 -130.911812 
L 544.223452 -140.06829 
L 542.520412 -143.437739 
L 540.817372 -137.829469 
L 539.114332 -120.098907 
L 537.411292 -101.972486 
L 535.708252 -91.442871 
L 534.005212 -96.514666 
L 532.302172 -114.486195 
L 530.599132 -134.560898 
L 528.896092 -146.997212 
L 527.193052 -143.205519 
L 525.490012 -131.757656 
L 523.786972 -118.297603 
L 522.083932 -112.519344 
L 520.380891 -113.93598 
L 518.677851 -120.898176 
L 516.974811 -128.158123 
L 515.271771 -129.768943 
L 513.568731 -126.436568 
L 511.865691 -119.931897 
L 510.162651 -115.936114 
L 508.459611 -116.732343 
L 506.756571 -118.220533 
L 505.053531 -119.151439 
L 503.350491 -120.205907 
L 501.647451 -121.41136 
L 499.944411 -123.133342 
L 498.241371 -125.494318 
L 496.538331 -121.993881 
L 494.83529 -111.111692 
L 493.13225 -90.952643 
L 491.42921 -71.088663 
L 489.72617 -59.741701 
L 488.02313 -62.668434 
L 486.32009 -79.298851 
L 484.61705 -103.491639 
L 482.91401 -122.044218 
L 481.21097 -130.097719 
L 479.50793 -125.738405 
L 477.80489 -116.051557 
L 476.10185 -108.543311 
L 474.39881 -107.411283 
L 472.69577 -110.002001 
L 470.99273 -110.519609 
L 469.289689 -107.359526 
L 467.586649 -101.126047 
L 465.883609 -98.650641 
L 464.180569 -106.143457 
L 462.477529 -119.209201 
L 460.774489 -132.265054 
L 459.071449 -138.004383 
L 457.368409 -132.927375 
L 455.665369 -119.682856 
L 453.962329 -107.065143 
L 452.259289 -102.049853 
L 450.556249 -103.990613 
L 448.853209 -112.42537 
L 447.150169 -121.138892 
L 445.447129 -126.55145 
L 443.744088 -128.516915 
L 442.041048 -129.313014 
L 440.338008 -130.627391 
L 438.634968 -130.618694 
L 436.931928 -130.170023 
L 435.228888 -128.169289 
L 433.525848 -127.591161 
L 431.822808 -133.298164 
L 430.119768 -141.013311 
L 428.416728 -149.525643 
L 426.713688 -152.938527 
L 425.010648 -149.90106 
L 423.307608 -144.016633 
L 421.604568 -138.603323 
L 419.901528 -139.7602 
L 418.198487 -147.139912 
L 416.495447 -157.233869 
L 414.792407 -164.920226 
L 413.089367 -167.293778 
L 411.386327 -166.745119 
L 409.683287 -168.161663 
L 407.980247 -172.24715 
L 406.277207 -174.108288 
L 404.574167 -174.08652 
L 402.871127 -169.764491 
L 401.168087 -161.331569 
L 399.465047 -156.679408 
L 397.762007 -156.220874 
L 396.058967 -159.69158 
L 394.355927 -162.357683 
L 392.652886 -161.645532 
L 390.949846 -161.385299 
L 389.246806 -162.489664 
L 387.543766 -167.426184 
L 385.840726 -175.315017 
L 384.137686 -182.96032 
L 382.434646 -186.930645 
L 380.731606 -184.3087 
L 379.028566 -179.347659 
L 377.325526 -178.483618 
L 375.622486 -185.956083 
L 373.919446 -196.630198 
L 372.216406 -202.542671 
L 370.513366 -196.499506 
L 368.810326 -177.40058 
L 367.107285 -152.257746 
L 365.404245 -132.503083 
L 363.701205 -128.182474 
L 361.998165 -139.17899 
L 360.295125 -155.678166 
L 358.592085 -167.152608 
L 356.889045 -165.477155 
L 355.186005 -153.830448 
L 353.482965 -143.286361 
L 351.779925 -141.906514 
L 350.076885 -150.782833 
L 348.373845 -166.321238 
L 346.670805 -178.465584 
L 344.967765 -180.645001 
L 343.264724 -172.735572 
L 341.561684 -162.218277 
L 339.858644 -159.072913 
L 338.155604 -166.05876 
L 336.452564 -181.945902 
L 334.749524 -197.577851 
L 333.046484 -205.346114 
L 331.343444 -199.296685 
L 329.640404 -185.568435 
L 327.937364 -170.460844 
L 326.234324 -156.02932 
L 324.531284 -145.517762 
L 322.828244 -142.095337 
L 321.125204 -143.576738 
L 319.422164 -148.594265 
L 317.719123 -154.663451 
L 316.016083 -154.772502 
L 314.313043 -149.524949 
L 312.610003 -143.270073 
L 310.906963 -138.754724 
L 309.203923 -134.769086 
L 307.500883 -136.432467 
L 305.797843 -145.927742 
L 304.094803 -156.508292 
L 302.391763 -164.459287 
L 300.688723 -164.421159 
L 298.985683 -158.340879 
L 297.282643 -150.947137 
L 295.579603 -145.238653 
L 293.876563 -143.425651 
L 292.173522 -145.351376 
L 290.470482 -146.243071 
L 288.767442 -141.954111 
L 287.064402 -132.937038 
L 285.361362 -122.948026 
L 283.658322 -117.474608 
L 281.955282 -121.01134 
L 280.252242 -128.935291 
L 278.549202 -136.448043 
L 276.846162 -137.852245 
L 275.143122 -133.474296 
L 273.440082 -123.563562 
L 271.737042 -115.960819 
L 270.034002 -115.133765 
L 268.330962 -120.889683 
L 266.627921 -129.336257 
L 264.924881 -136.833285 
L 263.221841 -140.030969 
L 261.518801 -142.640608 
L 259.815761 -147.816061 
L 258.112721 -157.5601 
L 256.409681 -166.641185 
L 254.706641 -172.344095 
L 253.003601 -171.408116 
L 251.300561 -164.318042 
L 249.597521 -157.049137 
L 247.894481 -154.518246 
L 246.191441 -163.626098 
L 244.488401 -181.372451 
L 242.785361 -201.166897 
L 241.08232 -211.678967 
L 239.37928 -214.296284 
L 237.67624 -209.672355 
L 235.9732 -204.487694 
L 234.27016 -204.546405 
L 232.56712 -212.182419 
L 230.86408 -225.754727 
L 229.16104 -242.69679 
L 227.458 -255.201564 
L 225.75496 -263.274578 
L 224.05192 -265.111357 
L 222.34888 -261.091049 
L 220.64584 -252.074743 
L 218.9428 -242.831126 
L 217.23976 -235.564184 
L 215.536719 -233.261505 
L 213.833679 -236.416193 
L 212.130639 -239.084117 
L 210.427599 -237.297842 
L 208.724559 -229.280149 
L 207.021519 -212.650159 
L 205.318479 -190.681367 
L 203.615439 -171.683286 
L 201.912399 -159.810755 
L 200.209359 -154.140058 
L 198.506319 -152.776674 
L 196.803279 -153.078414 
L 195.100239 -153.995743 
L 193.397199 -154.800919 
L 191.694159 -158.696137 
L 189.991118 -165.194224 
L 188.288078 -174.792131 
L 186.585038 -187.370239 
L 184.881998 -196.339575 
L 183.178958 -204.885102 
L 181.475918 -214.287186 
L 179.772878 -224.658546 
L 178.069838 -232.150028 
L 176.366798 -235.526125 
L 174.663758 -234.93277 
L 172.960718 -229.282933 
L 171.257678 -221.867444 
L 169.554638 -215.431685 
L 167.851598 -211.261344 
L 166.148558 -205.93417 
L 164.445517 -203.03747 
L 162.742477 -199.612668 
L 161.039437 -197.553753 
L 159.336397 -198.104073 
L 157.633357 -202.712802 
L 155.930317 -204.24303 
L 154.227277 -200.977679 
L 152.524237 -191.000651 
L 150.821197 -179.691281 
L 149.118157 -172.448712 
L 147.415117 -174.253887 
L 145.712077 -182.774811 
L 144.009037 -194.247036 
L 142.305997 -196.414253 
L 140.602957 -187.509286 
L 138.899916 -172.315967 
L 137.196876 -161.704544 
L 135.493836 -160.823261 
L 133.790796 -174.430848 
L 132.087756 -194.514482 
L 130.384716 -210.715225 
L 128.681676 -214.618019 
L 126.978636 -206.978115 
L 125.275596 -193.718068 
L 123.572556 -186.757857 
L 121.869516 -192.092637 
L 120.166476 -204.743925 
L 118.463436 -217.322662 
L 116.760396 -223.786847 
L 115.057356 -219.416892 
L 113.354315 -207.671306 
L 111.651275 -199.358571 
L 109.948235 -199.669182 
L 108.245195 -209.375919 
L 106.542155 -221.993728 
L 104.839115 -228.324332 
L 103.136075 -222.057372 
L 101.433035 -209.003639 
L 99.729995 -196.641244 
L 98.026955 -195.130593 
L 96.323915 -209.349255 
L 94.620875 -232.42232 
L 92.917835 -252.582518 
L 91.214795 -259.087405 
L 89.511755 -247.185087 
L 87.808714 -226.222885 
L 86.105674 -210.237514 
L 84.402634 -210.177323 
L 82.699594 -230.553307 
L 80.996554 -263.68466 
L 79.293514 -289.87406 
L 77.590474 -297.87008 
L 75.887434 -284.149889 
L 74.184394 -258.342086 
L 72.481354 -233.857423 
L 70.778314 -219.185862 
L 69.075274 -220.578194 
L 67.372234 -229.86738 
L 65.669194 -238.741129 
L 63.966154 -240.759578 
L 62.263113 -234.839951 
L 60.560073 -226.440216 
L 58.857033 -221.564718 
L 57.153993 -225.430738 
L 55.450953 -237.889409 
L 53.747913 -255.931686 
L 52.044873 -271.252285 
L 50.341833 -275.693016 
L 48.638793 -268.375437 
L 46.935753 -251.654148 
L 45.232713 -232.605315 
L 43.529673 -219.744985 
L 41.826633 -219.089984 
L 40.123593 -232.066376 
L 38.420552 -247.541089 
z
" style="stroke: #ff7f0e; stroke-opacity: 0.3"/>
    </defs>
    <g>
     <use xlink:href="#m176183158b" x="0" y="432" style="fill: #ff7f0e; fill-opacity: 0.3; stroke: #ff7f0e; stroke-opacity: 0.3"/>
    </g>
   </g>
   <g id="line2d_17">
    <path d="M 38.420552 187.996024 
L 40.123593 195.197477 
L 41.826633 196.622074 
L 43.529673 195.84865 
L 45.232713 191.383329 
L 46.935753 184.780614 
L 48.638793 181.108019 
L 50.341833 181.407441 
L 52.044873 186.821607 
L 53.747913 196.762268 
L 55.450953 210.689903 
L 57.153993 226.527343 
L 58.857033 234.750254 
L 60.560073 237.320493 
L 62.263113 234.236335 
L 63.966154 227.514975 
L 65.669194 219.491 
L 67.372234 212.83961 
L 69.075274 205.210465 
L 70.778314 199.395731 
L 72.481354 196.98206 
L 74.184394 198.125738 
L 75.887434 201.639756 
L 77.590474 201.943901 
L 79.293514 196.835412 
L 80.996554 185.051148 
L 82.699594 177.193073 
L 84.402634 178.659928 
L 86.105674 190.524925 
L 87.808714 211.557228 
L 89.511755 230.422041 
L 91.214795 236.752289 
L 92.917835 225.912217 
L 94.620875 204.681523 
L 96.323915 187.146621 
L 98.026955 187.196534 
L 99.729995 201.461771 
L 103.136075 250.121685 
L 104.839115 258.730598 
L 106.542155 251.664151 
L 108.245195 235.500949 
L 109.948235 220.634133 
L 111.651275 215.476171 
L 115.057356 227.658951 
L 116.760396 227.055063 
L 118.463436 217.599364 
L 121.869516 181.234914 
L 123.572556 171.554436 
L 125.275596 177.207916 
L 126.978636 193.478633 
L 130.384716 238.357901 
L 132.087756 252.150123 
L 133.790796 255.965904 
L 135.493836 249.701798 
L 137.196876 240.299969 
L 138.899916 234.064514 
L 140.602957 229.680696 
L 142.305997 236.007475 
L 144.009037 246.589097 
L 145.712077 258.674641 
L 147.415117 264.977566 
L 149.118157 265.951447 
L 150.821197 257.293092 
L 152.524237 251.34848 
L 154.227277 249.776475 
L 155.930317 254.928086 
L 157.633357 263.403489 
L 159.336397 265.72924 
L 161.039437 253.299693 
L 162.742477 231.194279 
L 164.445517 202.645907 
L 166.148558 178.834076 
L 167.851598 167.174899 
L 169.554638 166.060727 
L 172.960718 189.74964 
L 174.663758 195.287798 
L 176.366798 196.741879 
L 178.069838 197.635346 
L 179.772878 202.607494 
L 181.475918 212.909821 
L 183.178958 227.900816 
L 186.585038 252.728139 
L 189.991118 276.02702 
L 191.694159 286.540492 
L 193.397199 286.065681 
L 195.100239 279.444839 
L 198.506319 250.139015 
L 200.209359 242.436697 
L 201.912399 249.99343 
L 203.615439 267.904984 
L 205.318479 281.711925 
L 207.021519 282.723891 
L 208.724559 266.007935 
L 210.427599 238.68436 
L 212.130639 213.34804 
L 213.833679 203.405158 
L 215.536719 207.589276 
L 217.23976 218.146787 
L 218.9428 222.787782 
L 220.64584 218.795651 
L 222.34888 210.418891 
L 224.05192 205.510463 
L 225.75496 214.540755 
L 227.458 233.005275 
L 229.16104 254.656834 
L 230.86408 263.788134 
L 232.56712 256.462928 
L 234.27016 242.216244 
L 235.9732 225.128516 
L 237.67624 217.18278 
L 239.37928 222.37661 
L 241.08232 239.382117 
L 242.785361 261.680863 
L 244.488401 282.072124 
L 246.191441 296.41702 
L 247.894481 302.098515 
L 249.597521 303.179029 
L 251.300561 300.00823 
L 253.003601 297.255954 
L 254.706641 304.202077 
L 256.409681 319.227907 
L 258.112721 336.130744 
L 259.815761 347.808462 
L 261.518801 343.669311 
L 263.221841 331.503688 
L 264.924881 321.05752 
L 266.627921 322.18555 
L 268.330962 338.48134 
L 270.034002 359.607564 
L 271.737042 369.660712 
L 273.440082 357.408127 
L 275.143122 327.572966 
L 276.846162 294.852135 
L 278.549202 277.357574 
L 280.252242 284.851764 
L 281.955282 308.147757 
L 283.658322 327.018462 
L 285.361362 328.365121 
L 287.064402 308.434854 
L 288.767442 284.899283 
L 290.470482 276.356623 
L 292.173522 288.456531 
L 293.876563 310.936641 
L 295.579603 330.53941 
L 297.282643 330.603338 
L 298.985683 313.09074 
L 300.688723 293.9767 
L 302.391763 284.528973 
L 304.094803 293.857091 
L 305.797843 317.46394 
L 307.500883 334.972441 
L 309.203923 333.601773 
L 310.906963 312.051133 
L 312.610003 277.602959 
L 314.313043 247.619699 
L 316.016083 231.537154 
L 317.719123 232.329131 
L 319.422164 241.269755 
L 321.125204 253.232773 
L 322.828244 254.76154 
L 324.531284 247.4348 
L 326.234324 232.092237 
L 327.937364 215.449775 
L 329.640404 205.118521 
L 331.343444 200.484258 
L 333.046484 203.84593 
L 334.749524 207.758687 
L 336.452564 208.68847 
L 338.155604 210.387781 
L 339.858644 217.790434 
L 341.561684 230.03657 
L 343.264724 245.652888 
L 346.670805 271.123931 
L 348.373845 278.621615 
L 350.076885 281.772654 
L 351.779925 283.363534 
L 353.482965 283.504484 
L 355.186005 280.474975 
L 356.889045 268.658326 
L 358.592085 255.431194 
L 360.295125 246.12493 
L 361.998165 241.998406 
L 363.701205 244.479217 
L 365.404245 250.879744 
L 367.107285 258.092608 
L 368.810326 261.077361 
L 370.513366 261.516281 
L 372.216406 266.971018 
L 373.919446 278.361375 
L 375.622486 293.777234 
L 377.325526 293.610091 
L 379.028566 279.043479 
L 380.731606 248.465025 
L 382.434646 213.101575 
L 384.137686 191.047366 
L 385.840726 191.295214 
L 387.543766 216.394715 
L 389.246806 253.48327 
L 390.949846 284.753548 
L 392.652886 296.253398 
L 394.355927 291.868286 
L 396.058967 280.044985 
L 397.762007 270.820086 
L 399.465047 264.180742 
L 402.871127 252.257261 
L 406.277207 241.591834 
L 407.980247 244.386811 
L 409.683287 254.854359 
L 411.386327 272.61743 
L 413.089367 292.826332 
L 414.792407 307.51428 
L 416.495447 311.210945 
L 418.198487 302.22421 
L 419.901528 279.776564 
L 421.604568 251.445779 
L 423.307608 228.58507 
L 425.010648 221.192296 
L 426.713688 229.744511 
L 428.416728 250.97475 
L 430.119768 277.806705 
L 431.822808 292.806243 
L 433.525848 291.024843 
L 436.931928 261.558714 
L 438.634968 253.135601 
L 440.338008 259.998054 
L 442.041048 281.284321 
L 443.744088 310.645687 
L 445.447129 336.852943 
L 447.150169 349.96339 
L 448.853209 350.84281 
L 450.556249 339.89438 
L 452.259289 326.550703 
L 453.962329 319.411629 
L 455.665369 320.148372 
L 457.368409 323.73541 
L 459.071449 332.217549 
L 460.774489 336.728788 
L 462.477529 332.53775 
L 465.883609 304.595798 
L 467.586649 296.393016 
L 469.289689 302.75026 
L 470.99273 323.216148 
L 472.69577 348.031272 
L 474.39881 368.226006 
L 476.10185 370.857847 
L 477.80489 357.523717 
L 479.50793 338.340491 
L 481.21097 326.86586 
L 482.91401 328.149231 
L 484.61705 341.676035 
L 486.32009 352.829165 
L 488.02313 352.143772 
L 489.72617 341.261537 
L 491.42921 327.349076 
L 493.13225 324.125015 
L 494.83529 336.073193 
L 496.538331 353.741224 
L 498.241371 364.838107 
L 499.944411 357.432764 
L 503.350491 319.066712 
L 505.053531 312.270213 
L 506.756571 320.976383 
L 508.459611 336.823486 
L 510.162651 350.605465 
L 511.865691 355.90215 
L 513.568731 347.195718 
L 515.271771 332.296424 
L 516.974811 324.002951 
L 518.677851 326.126723 
L 520.380891 337.547277 
L 522.083932 350.869144 
L 523.786972 355.624538 
L 525.490012 349.21496 
L 527.193052 339.214154 
L 528.896092 334.591459 
L 530.599132 338.459087 
L 532.302172 347.732754 
L 534.005212 351.954537 
L 535.708252 346.190477 
L 537.411292 336.883183 
L 539.114332 328.869379 
L 540.817372 331.170099 
L 542.520412 347.208376 
L 544.223452 368.654683 
L 545.926492 383.800226 
L 547.629533 380.351585 
L 549.332573 361.130268 
L 551.035613 328.606388 
L 552.738653 300.884204 
L 554.441693 285.148039 
L 556.144733 281.393989 
L 557.847773 286.739021 
L 559.550813 297.311333 
L 561.253853 306.343513 
L 561.253853 306.343513 
" style="fill: none; stroke: #1f77b4; stroke-width: 1.5; stroke-linecap: square"/>
   </g>
   <g id="line2d_18">
    <path d="M 38.420552 192.221927 
L 40.123593 207.673473 
L 41.826633 220.097674 
L 43.529673 218.377177 
L 45.232713 205.54222 
L 46.935753 186.476896 
L 48.638793 170.209822 
L 50.341833 163.239958 
L 52.044873 167.840352 
L 53.747913 182.928788 
L 55.450953 200.469425 
L 57.153993 213.055319 
L 58.857033 217.032316 
L 60.560073 212.697339 
L 62.263113 203.927718 
L 63.966154 197.586674 
L 65.669194 199.109202 
L 67.372234 208.255861 
L 69.075274 218.191402 
L 70.778314 220.080906 
L 72.481354 205.782847 
L 75.887434 154.946073 
L 77.590474 141.149171 
L 79.293514 149.530429 
L 80.996554 175.520974 
L 82.699594 207.996553 
L 84.402634 227.915531 
L 86.105674 227.938984 
L 87.808714 211.94556 
L 89.511755 191.040907 
L 91.214795 179.359776 
L 92.917835 186.442656 
L 94.620875 207.248363 
L 96.323915 230.644237 
L 98.026955 244.257803 
L 99.729995 242.327296 
L 103.136075 216.698232 
L 104.839115 210.209374 
L 106.542155 216.327446 
L 108.245195 229.074346 
L 109.948235 239.135561 
L 111.651275 239.873324 
L 113.354315 231.709578 
L 115.057356 220.176311 
L 116.760396 215.549687 
L 118.463436 222.067334 
L 121.869516 247.382758 
L 123.572556 252.410787 
L 125.275596 245.529712 
L 126.978636 232.819107 
L 128.681676 225.460926 
L 130.384716 229.332767 
L 132.087756 245.205522 
L 133.790796 265.089028 
L 135.493836 278.299584 
L 137.196876 277.701217 
L 138.899916 266.863019 
L 140.602957 252.288701 
L 142.305997 243.715645 
L 144.009037 245.66467 
L 145.712077 256.875068 
L 147.415117 265.26429 
L 149.118157 266.815299 
L 150.821197 259.418151 
L 152.524237 248.121683 
L 154.227277 238.191093 
L 155.930317 234.674285 
L 157.633357 236.163001 
L 159.336397 241.240969 
L 161.039437 242.699534 
L 162.742477 240.949671 
L 166.148558 233.893773 
L 167.851598 229.023358 
L 169.554638 225.088877 
L 171.257678 218.915251 
L 172.960718 211.645154 
L 174.663758 205.498809 
L 176.366798 204.659682 
L 178.069838 208.123655 
L 179.772878 215.726049 
L 181.475918 226.203082 
L 183.178958 235.709503 
L 186.585038 252.722073 
L 188.288078 264.366259 
L 189.991118 273.59119 
L 191.694159 280.491289 
L 193.397199 284.556985 
L 196.803279 286.390224 
L 198.506319 286.941668 
L 200.209359 285.412035 
L 201.912399 279.428931 
L 203.615439 267.557428 
L 205.318479 248.595111 
L 207.021519 226.940197 
L 208.724559 210.112521 
L 210.427599 201.795518 
L 212.130639 200.428872 
L 213.833679 202.976266 
L 215.536719 206.235786 
L 217.23976 204.008863 
L 218.9428 197.191881 
L 222.34888 178.744395 
L 224.05192 174.886802 
L 225.75496 176.911945 
L 227.458 185.016926 
L 229.16104 197.662204 
L 230.86408 214.418926 
L 232.56712 228.141407 
L 234.27016 235.81973 
L 235.9732 235.213797 
L 237.67624 229.461585 
L 239.37928 225.16915 
L 241.08232 228.136365 
L 242.785361 238.927781 
L 244.488401 258.43783 
L 246.191441 276.234859 
L 247.894481 285.837701 
L 249.597521 284.138452 
L 253.003601 268.744325 
L 254.706641 267.282443 
L 256.409681 273.235109 
L 258.112721 282.154025 
L 259.815761 292.052286 
L 261.518801 297.252049 
L 263.221841 299.946245 
L 264.924881 303.415475 
L 266.627921 310.798425 
L 268.330962 319.026391 
L 270.034002 324.554182 
L 271.737042 323.737779 
L 273.440082 316.561428 
L 275.143122 307.078362 
L 276.846162 301.958221 
L 278.549202 303.470717 
L 281.955282 319.509591 
L 283.658322 322.437518 
L 285.361362 317.311725 
L 288.767442 297.832061 
L 290.470482 293.195077 
L 292.173522 294.205144 
L 293.876563 296.619502 
L 295.579603 294.792421 
L 297.282643 289.513157 
L 298.985683 282.39394 
L 300.688723 276.368636 
L 302.391763 275.705836 
L 304.094803 283.300895 
L 305.797843 293.969092 
L 307.500883 303.678411 
L 309.203923 305.452837 
L 310.906963 301.736611 
L 312.610003 297.357851 
L 314.313043 291.530587 
L 316.016083 286.637575 
L 317.719123 287.320933 
L 319.422164 292.93212 
L 321.125204 297.772232 
L 322.828244 298.73053 
L 324.531284 294.631689 
L 326.234324 284.069921 
L 331.343444 240.610044 
L 333.046484 235.255435 
L 334.749524 243.06586 
L 338.155604 273.985609 
L 339.858644 281.025893 
L 341.561684 278.302779 
L 343.264724 267.049073 
L 344.967765 259.628999 
L 346.670805 261.634853 
L 348.373845 274.018974 
L 350.076885 290.424177 
L 351.779925 299.333118 
L 353.482965 297.921002 
L 355.186005 286.97303 
L 356.889045 274.61267 
L 358.592085 272.849143 
L 360.295125 284.077382 
L 361.998165 300.163616 
L 363.701205 311.282528 
L 365.404245 307.196794 
L 367.107285 288.10929 
L 368.810326 263.294351 
L 370.513366 243.846036 
L 372.216406 237.538482 
L 373.919446 242.924037 
L 375.622486 253.687854 
L 377.325526 260.785308 
L 379.028566 259.985266 
L 380.731606 255.609263 
L 382.434646 253.345687 
L 384.137686 257.490819 
L 387.543766 273.674687 
L 389.246806 278.008437 
L 390.949846 278.531156 
L 392.652886 277.769863 
L 394.355927 277.468734 
L 396.058967 280.259637 
L 397.762007 284.146388 
L 399.465047 283.584873 
L 401.168087 278.89723 
L 402.871127 270.308974 
L 404.574167 265.71618 
L 406.277207 265.074 
L 407.980247 266.825291 
L 409.683287 271.093608 
L 411.386327 272.904069 
L 413.089367 272.866098 
L 414.792407 275.290028 
L 416.495447 282.8617 
L 418.198487 293.57541 
L 419.901528 300.929865 
L 421.604568 301.391568 
L 425.010648 289.915363 
L 426.713688 286.848757 
L 428.416728 289.835475 
L 430.119768 298.258725 
L 431.822808 306.101747 
L 433.525848 311.628797 
L 435.228888 310.953771 
L 436.931928 308.763602 
L 438.634968 308.667335 
L 440.338008 309.316659 
L 442.041048 311.05459 
L 443.744088 312.248676 
L 445.447129 314.224054 
L 447.150169 319.493182 
L 450.556249 335.988521 
L 452.259289 338.070046 
L 453.962329 333.211854 
L 455.665369 320.821373 
L 457.368409 307.449631 
L 459.071449 302.361488 
L 460.774489 307.981536 
L 464.180569 334.504682 
L 465.883609 341.387425 
L 467.586649 338.737024 
L 469.289689 332.874587 
L 470.99273 329.558617 
L 472.69577 330.091781 
L 474.39881 332.443972 
L 476.10185 331.368478 
L 477.80489 324.004161 
L 479.50793 314.573193 
L 481.21097 310.348313 
L 482.91401 317.767942 
L 484.61705 336.270138 
L 486.32009 360.927904 
L 488.02313 378.160854 
L 489.72617 381.447047 
L 491.42921 369.639775 
L 494.83529 328.710714 
L 496.538331 318.144914 
L 498.241371 315.095068 
L 499.944411 317.560161 
L 501.647451 319.171568 
L 503.350491 319.877927 
L 506.756571 321.556226 
L 508.459611 323.054127 
L 510.162651 323.45159 
L 511.865691 319.695215 
L 513.568731 313.570882 
L 515.271771 310.409588 
L 516.974811 312.003749 
L 520.380891 325.627177 
L 522.083932 326.878645 
L 523.786972 321.061023 
L 525.490012 307.805949 
L 527.193052 296.265499 
L 528.896092 292.725031 
L 530.599132 305.061672 
L 532.302172 325.11535 
L 534.005212 343.074098 
L 535.708252 348.636567 
L 537.411292 338.49559 
L 540.817372 302.373501 
L 542.520412 296.597755 
L 544.223452 300.255048 
L 545.926492 309.710719 
L 547.629533 317.985401 
L 549.332573 319.06538 
L 551.035613 317.235873 
L 552.738653 315.983451 
L 554.441693 319.916977 
L 556.144733 327.909519 
L 557.847773 334.851688 
L 559.550813 334.085282 
L 561.253853 322.329152 
L 561.253853 322.329152 
" style="fill: none; stroke: #ff7f0e; stroke-width: 1.5; stroke-linecap: square"/>
   </g>
  </g>
  <g id="axes_2">
   <g id="PathCollection_1">
    <defs>
     <path id="C0_0_a65bb6fd4e" d="M 0 1.118034 
C 0.296506 1.118034 0.580908 1.000231 0.790569 0.790569 
C 1.000231 0.580908 1.118034 0.296506 1.118034 -0 
C 1.118034 -0.296506 1.000231 -0.580908 0.790569 -0.790569 
C 0.580908 -1.000231 0.296506 -1.118034 0 -1.118034 
C -0.296506 -1.118034 -0.580908 -1.000231 -0.790569 -0.790569 
C -1.000231 -0.580908 -1.118034 -0.296506 -1.118034 0 
C -1.118034 0.296506 -1.000231 0.580908 -0.790569 0.790569 
C -0.580908 1.000231 -0.296506 1.118034 0 1.118034 
z
"/>
    </defs>
    <g clip-path="url(#pa88f239507)">
     <use xlink:href="#C0_0_a65bb6fd4e" x="499.577732" y="98.950049" style="stroke: #000000"/>
    </g>
    <g clip-path="url(#pa88f239507)">
     <use xlink:href="#C0_0_a65bb6fd4e" x="508.865704" y="99.036731" style="stroke: #000000"/>
    </g>
    <g clip-path="url(#pa88f239507)">
     <use xlink:href="#C0_0_a65bb6fd4e" x="518.173702" y="98.861308" style="stroke: #000000"/>
    </g>
   </g>
   <g id="matplotlib.axis_3"/>
   <g id="matplotlib.axis_4"/>
   <g id="line2d_19">
    <path d="M 548.860571 73.636212 
L 548.782898 71.164606 
L 548.550185 68.702755 
L 548.163349 66.260375 
L 547.623919 63.847103 
L 546.934023 61.472464 
L 546.096383 59.14583 
L 545.114306 56.876383 
L 543.991666 54.673079 
L 542.732896 52.544615 
L 541.342962 50.499389 
L 539.82735 48.545473 
L 538.192041 46.690579 
L 536.443489 44.942028 
L 534.588595 43.306719 
L 532.63468 41.791107 
L 530.589454 40.401173 
L 528.460989 39.142402 
L 526.257685 38.019763 
L 523.988238 37.037685 
L 521.661605 36.200045 
L 519.286966 35.510149 
L 516.873694 34.970719 
L 514.431313 34.583884 
L 511.969462 34.35117 
L 509.497857 34.273497 
L 507.026251 34.35117 
L 504.5644 34.583884 
L 502.12202 34.970719 
L 499.708748 35.510149 
L 497.334109 36.200045 
L 495.007475 37.037685 
L 492.738028 38.019763 
L 490.534724 39.142402 
L 488.40626 40.401173 
L 486.361034 41.791107 
L 484.407118 43.306719 
L 482.552224 44.942028 
L 480.803673 46.690579 
L 479.168364 48.545473 
L 477.652752 50.499389 
L 476.262818 52.544615 
L 475.004047 54.673079 
L 473.881408 56.876383 
L 472.89933 59.14583 
L 472.061691 61.472464 
L 471.371794 63.847103 
L 470.832364 66.260375 
L 470.445529 68.702755 
L 470.212815 71.164606 
L 470.135142 73.636212 
L 470.212815 76.107817 
L 470.445529 78.569668 
L 470.832364 81.012049 
L 471.371794 83.425321 
L 472.061691 85.799959 
L 472.89933 88.126593 
L 473.881408 90.39604 
L 475.004047 92.599344 
L 476.262818 94.727809 
L 477.652752 96.773035 
L 479.168364 98.72695 
L 480.803673 100.581844 
L 482.552224 102.330396 
L 484.407118 103.965705 
L 486.361034 105.481317 
L 488.40626 106.871251 
L 490.534724 108.130021 
L 492.738028 109.252661 
L 495.007475 110.234738 
L 497.334109 111.072378 
L 499.708748 111.762274 
L 502.12202 112.301704 
L 504.5644 112.68854 
L 507.026251 112.921253 
L 509.497857 112.998926 
L 511.969462 112.921253 
L 514.431313 112.68854 
L 516.873694 112.301704 
L 519.286966 111.762274 
L 521.661605 111.072378 
L 523.988238 110.234738 
L 526.257685 109.252661 
L 528.460989 108.130021 
L 530.589454 106.871251 
L 532.63468 105.481317 
L 534.588595 103.965705 
L 536.443489 102.330396 
L 538.192041 100.581844 
L 539.82735 98.72695 
L 541.342962 96.773035 
L 542.732896 94.727809 
L 543.991666 92.599344 
L 545.114306 90.39604 
L 546.096383 88.126593 
L 546.934023 85.799959 
L 547.623919 83.425321 
L 548.163349 81.012049 
L 548.550185 78.569668 
L 548.782898 76.107817 
L 548.860571 73.636212 
" style="fill: none; stroke: #000000; stroke-linecap: square"/>
   </g>
   <g id="line2d_20">
    <path d="M 501.253749 35.146499 
L 509.497857 28.36909 
L 517.741964 35.146499 
" style="fill: none; stroke: #000000; stroke-linecap: square"/>
   </g>
   <g id="line2d_21">
    <path d="M 470.371318 69.26695 
L 469.347888 67.534991 
L 468.718084 67.472011 
L 467.781252 67.763295 
L 466.836547 69.26695 
L 466.986125 74.069202 
L 466.435047 80.973422 
L 467.615928 83.972861 
L 469.347888 84.531811 
L 471.001122 83.075391 
" style="fill: none; stroke: #000000; stroke-linecap: square"/>
   </g>
   <g id="line2d_22">
    <path d="M 548.624395 69.26695 
L 549.647826 67.534991 
L 550.277629 67.472011 
L 551.214462 67.763295 
L 552.159167 69.26695 
L 552.009589 74.069202 
L 552.560667 80.973422 
L 551.379785 83.972861 
L 549.647826 84.531811 
L 547.994592 83.075391 
" style="fill: none; stroke: #000000; stroke-linecap: square"/>
   </g>
  </g>
 </g>
 <defs>
  <clipPath id="p5105540f09">
   <rect x="38.420552" y="18.118365" width="523.446395" height="380.525145"/>
  </clipPath>
  <clipPath id="pa88f239507">
   <rect x="462.128766" y="24.137598" width="94.738182" height="93.09282"/>
  </clipPath>
 </defs>
</svg>
