<?xml version="1.0" encoding="utf-8" standalone="no"?>
<!DOCTYPE svg PUBLIC "-//W3C//DTD SVG 1.1//EN"
  "http://www.w3.org/Graphics/SVG/1.1/DTD/svg11.dtd">
<svg xmlns:xlink="http://www.w3.org/1999/xlink" width="576pt" height="432pt" viewBox="0 0 576 432" xmlns="http://www.w3.org/2000/svg" version="1.1">
 <metadata>
  <rdf:RDF xmlns:dc="http://purl.org/dc/elements/1.1/" xmlns:cc="http://creativecommons.org/ns#" xmlns:rdf="http://www.w3.org/1999/02/22-rdf-syntax-ns#">
   <cc:Work>
    <dc:type rdf:resource="http://purl.org/dc/dcmitype/StillImage"/>
    <dc:date>2025-02-20T17:25:47.234176</dc:date>
    <dc:format>image/svg+xml</dc:format>
    <dc:creator>
     <cc:Agent>
      <dc:title>Matplotlib v3.10.0, https://matplotlib.org/</dc:title>
     </cc:Agent>
    </dc:creator>
   </cc:Work>
  </rdf:RDF>
 </metadata>
 <defs>
  <style type="text/css">*{stroke-linejoin: round; stroke-linecap: butt}</style>
 </defs>
 <g id="figure_1">
  <g id="patch_1">
   <path d="M 0 432 
L 576 432 
L 576 0 
L 0 0 
z
" style="fill: #ffffff"/>
  </g>
  <g id="axes_1">
   <g id="patch_2">
    <path d="M 44.783053 398.64351 
L 561.866947 398.64351 
L 561.866947 18.118365 
L 44.783053 18.118365 
L 44.783053 398.64351 
z
" style="fill: none; opacity: 0"/>
   </g>
   <g id="patch_3">
    <path d="M 44.783053 361.906302 
L 44.783053 54.855573 
" style="fill: none; stroke: #000000; stroke-width: 0.8; stroke-linejoin: miter; stroke-linecap: square"/>
   </g>
   <g id="LineCollection_1">
    <path d="M 217.3238 18.118365 
L 217.3238 398.64351 
" clip-path="url(#p6a9706c45e)" style="fill: none; stroke-dasharray: 3.7,1.6; stroke-dashoffset: 0; stroke: #000000"/>
    <path d="M 281.92564 18.118365 
L 281.92564 398.64351 
" clip-path="url(#p6a9706c45e)" style="fill: none; stroke-dasharray: 3.7,1.6; stroke-dashoffset: 0; stroke: #000000"/>
   </g>
   <g id="matplotlib.axis_1">
    <g id="xtick_1">
     <g id="line2d_1">
      <defs>
       <path id="m919f976daf" d="M 0 0 
L 0 3.5 
" style="stroke: #000000; stroke-width: 0.8"/>
      </defs>
      <g>
       <use xlink:href="#m919f976daf" x="45.052227" y="398.64351" style="stroke: #000000; stroke-width: 0.8"/>
      </g>
     </g>
     <g id="text_1">
      <!-- −0.20 -->
      <g transform="translate(29.729571 413.241947) scale(0.1 -0.1)">
       <defs>
        <path id="DejaVuSans-2212" d="M 678 2272 
L 4684 2272 
L 4684 1741 
L 678 1741 
L 678 2272 
z
" transform="scale(0.015625)"/>
        <path id="DejaVuSans-30" d="M 2034 4250 
Q 1547 4250 1301 3770 
Q 1056 3291 1056 2328 
Q 1056 1369 1301 889 
Q 1547 409 2034 409 
Q 2525 409 2770 889 
Q 3016 1369 3016 2328 
Q 3016 3291 2770 3770 
Q 2525 4250 2034 4250 
z
M 2034 4750 
Q 2819 4750 3233 4129 
Q 3647 3509 3647 2328 
Q 3647 1150 3233 529 
Q 2819 -91 2034 -91 
Q 1250 -91 836 529 
Q 422 1150 422 2328 
Q 422 3509 836 4129 
Q 1250 4750 2034 4750 
z
" transform="scale(0.015625)"/>
        <path id="DejaVuSans-2e" d="M 684 794 
L 1344 794 
L 1344 0 
L 684 0 
L 684 794 
z
" transform="scale(0.015625)"/>
        <path id="DejaVuSans-32" d="M 1228 531 
L 3431 531 
L 3431 0 
L 469 0 
L 469 531 
Q 828 903 1448 1529 
Q 2069 2156 2228 2338 
Q 2531 2678 2651 2914 
Q 2772 3150 2772 3378 
Q 2772 3750 2511 3984 
Q 2250 4219 1831 4219 
Q 1534 4219 1204 4116 
Q 875 4013 500 3803 
L 500 4441 
Q 881 4594 1212 4672 
Q 1544 4750 1819 4750 
Q 2544 4750 2975 4387 
Q 3406 4025 3406 3419 
Q 3406 3131 3298 2873 
Q 3191 2616 2906 2266 
Q 2828 2175 2409 1742 
Q 1991 1309 1228 531 
z
" transform="scale(0.015625)"/>
       </defs>
       <use xlink:href="#DejaVuSans-2212"/>
       <use xlink:href="#DejaVuSans-30" transform="translate(83.789062 0)"/>
       <use xlink:href="#DejaVuSans-2e" transform="translate(147.412109 0)"/>
       <use xlink:href="#DejaVuSans-32" transform="translate(179.199219 0)"/>
       <use xlink:href="#DejaVuSans-30" transform="translate(242.822266 0)"/>
      </g>
     </g>
    </g>
    <g id="xtick_2">
     <g id="line2d_2">
      <g>
       <use xlink:href="#m919f976daf" x="131.188014" y="398.64351" style="stroke: #000000; stroke-width: 0.8"/>
      </g>
     </g>
     <g id="text_2">
      <!-- 0.00 -->
      <g transform="translate(120.055201 413.241947) scale(0.1 -0.1)">
       <use xlink:href="#DejaVuSans-30"/>
       <use xlink:href="#DejaVuSans-2e" transform="translate(63.623047 0)"/>
       <use xlink:href="#DejaVuSans-30" transform="translate(95.410156 0)"/>
       <use xlink:href="#DejaVuSans-30" transform="translate(159.033203 0)"/>
      </g>
     </g>
    </g>
    <g id="xtick_3">
     <g id="line2d_3">
      <g>
       <use xlink:href="#m919f976daf" x="217.3238" y="398.64351" style="stroke: #000000; stroke-width: 0.8"/>
      </g>
     </g>
     <g id="text_3">
      <!-- 0.20 -->
      <g transform="translate(206.190988 413.241947) scale(0.1 -0.1)">
       <use xlink:href="#DejaVuSans-30"/>
       <use xlink:href="#DejaVuSans-2e" transform="translate(63.623047 0)"/>
       <use xlink:href="#DejaVuSans-32" transform="translate(95.410156 0)"/>
       <use xlink:href="#DejaVuSans-30" transform="translate(159.033203 0)"/>
      </g>
     </g>
    </g>
    <g id="xtick_4">
     <g id="line2d_4">
      <g>
       <use xlink:href="#m919f976daf" x="217.3238" y="398.64351" style="stroke: #000000; stroke-width: 0.8"/>
      </g>
     </g>
     <g id="text_4">
      <!-- 0.20 -->
      <g transform="translate(206.190988 413.241947) scale(0.1 -0.1)">
       <use xlink:href="#DejaVuSans-30"/>
       <use xlink:href="#DejaVuSans-2e" transform="translate(63.623047 0)"/>
       <use xlink:href="#DejaVuSans-32" transform="translate(95.410156 0)"/>
       <use xlink:href="#DejaVuSans-30" transform="translate(159.033203 0)"/>
      </g>
     </g>
    </g>
    <g id="xtick_5">
     <g id="line2d_5">
      <g>
       <use xlink:href="#m919f976daf" x="281.92564" y="398.64351" style="stroke: #000000; stroke-width: 0.8"/>
      </g>
     </g>
     <g id="text_5">
      <!-- 0.35 -->
      <g transform="translate(270.792828 413.241947) scale(0.1 -0.1)">
       <defs>
        <path id="DejaVuSans-33" d="M 2597 2516 
Q 3050 2419 3304 2112 
Q 3559 1806 3559 1356 
Q 3559 666 3084 287 
Q 2609 -91 1734 -91 
Q 1441 -91 1130 -33 
Q 819 25 488 141 
L 488 750 
Q 750 597 1062 519 
Q 1375 441 1716 441 
Q 2309 441 2620 675 
Q 2931 909 2931 1356 
Q 2931 1769 2642 2001 
Q 2353 2234 1838 2234 
L 1294 2234 
L 1294 2753 
L 1863 2753 
Q 2328 2753 2575 2939 
Q 2822 3125 2822 3475 
Q 2822 3834 2567 4026 
Q 2313 4219 1838 4219 
Q 1578 4219 1281 4162 
Q 984 4106 628 3988 
L 628 4550 
Q 988 4650 1302 4700 
Q 1616 4750 1894 4750 
Q 2613 4750 3031 4423 
Q 3450 4097 3450 3541 
Q 3450 3153 3228 2886 
Q 3006 2619 2597 2516 
z
" transform="scale(0.015625)"/>
        <path id="DejaVuSans-35" d="M 691 4666 
L 3169 4666 
L 3169 4134 
L 1269 4134 
L 1269 2991 
Q 1406 3038 1543 3061 
Q 1681 3084 1819 3084 
Q 2600 3084 3056 2656 
Q 3513 2228 3513 1497 
Q 3513 744 3044 326 
Q 2575 -91 1722 -91 
Q 1428 -91 1123 -41 
Q 819 9 494 109 
L 494 744 
Q 775 591 1075 516 
Q 1375 441 1709 441 
Q 2250 441 2565 725 
Q 2881 1009 2881 1497 
Q 2881 1984 2565 2268 
Q 2250 2553 1709 2553 
Q 1456 2553 1204 2497 
Q 953 2441 691 2322 
L 691 4666 
z
" transform="scale(0.015625)"/>
       </defs>
       <use xlink:href="#DejaVuSans-30"/>
       <use xlink:href="#DejaVuSans-2e" transform="translate(63.623047 0)"/>
       <use xlink:href="#DejaVuSans-33" transform="translate(95.410156 0)"/>
       <use xlink:href="#DejaVuSans-35" transform="translate(159.033203 0)"/>
      </g>
     </g>
    </g>
    <g id="xtick_6">
     <g id="line2d_6">
      <g>
       <use xlink:href="#m919f976daf" x="303.459587" y="398.64351" style="stroke: #000000; stroke-width: 0.8"/>
      </g>
     </g>
     <g id="text_6">
      <!-- 0.40 -->
      <g transform="translate(292.326775 413.241947) scale(0.1 -0.1)">
       <defs>
        <path id="DejaVuSans-34" d="M 2419 4116 
L 825 1625 
L 2419 1625 
L 2419 4116 
z
M 2253 4666 
L 3047 4666 
L 3047 1625 
L 3713 1625 
L 3713 1100 
L 3047 1100 
L 3047 0 
L 2419 0 
L 2419 1100 
L 313 1100 
L 313 1709 
L 2253 4666 
z
" transform="scale(0.015625)"/>
       </defs>
       <use xlink:href="#DejaVuSans-30"/>
       <use xlink:href="#DejaVuSans-2e" transform="translate(63.623047 0)"/>
       <use xlink:href="#DejaVuSans-34" transform="translate(95.410156 0)"/>
       <use xlink:href="#DejaVuSans-30" transform="translate(159.033203 0)"/>
      </g>
     </g>
    </g>
    <g id="xtick_7">
     <g id="line2d_7">
      <g>
       <use xlink:href="#m919f976daf" x="389.595374" y="398.64351" style="stroke: #000000; stroke-width: 0.8"/>
      </g>
     </g>
     <g id="text_7">
      <!-- 0.60 -->
      <g transform="translate(378.462561 413.241947) scale(0.1 -0.1)">
       <defs>
        <path id="DejaVuSans-36" d="M 2113 2584 
Q 1688 2584 1439 2293 
Q 1191 2003 1191 1497 
Q 1191 994 1439 701 
Q 1688 409 2113 409 
Q 2538 409 2786 701 
Q 3034 994 3034 1497 
Q 3034 2003 2786 2293 
Q 2538 2584 2113 2584 
z
M 3366 4563 
L 3366 3988 
Q 3128 4100 2886 4159 
Q 2644 4219 2406 4219 
Q 1781 4219 1451 3797 
Q 1122 3375 1075 2522 
Q 1259 2794 1537 2939 
Q 1816 3084 2150 3084 
Q 2853 3084 3261 2657 
Q 3669 2231 3669 1497 
Q 3669 778 3244 343 
Q 2819 -91 2113 -91 
Q 1303 -91 875 529 
Q 447 1150 447 2328 
Q 447 3434 972 4092 
Q 1497 4750 2381 4750 
Q 2619 4750 2861 4703 
Q 3103 4656 3366 4563 
z
" transform="scale(0.015625)"/>
       </defs>
       <use xlink:href="#DejaVuSans-30"/>
       <use xlink:href="#DejaVuSans-2e" transform="translate(63.623047 0)"/>
       <use xlink:href="#DejaVuSans-36" transform="translate(95.410156 0)"/>
       <use xlink:href="#DejaVuSans-30" transform="translate(159.033203 0)"/>
      </g>
     </g>
    </g>
    <g id="xtick_8">
     <g id="line2d_8">
      <g>
       <use xlink:href="#m919f976daf" x="475.731161" y="398.64351" style="stroke: #000000; stroke-width: 0.8"/>
      </g>
     </g>
     <g id="text_8">
      <!-- 0.80 -->
      <g transform="translate(464.598348 413.241947) scale(0.1 -0.1)">
       <defs>
        <path id="DejaVuSans-38" d="M 2034 2216 
Q 1584 2216 1326 1975 
Q 1069 1734 1069 1313 
Q 1069 891 1326 650 
Q 1584 409 2034 409 
Q 2484 409 2743 651 
Q 3003 894 3003 1313 
Q 3003 1734 2745 1975 
Q 2488 2216 2034 2216 
z
M 1403 2484 
Q 997 2584 770 2862 
Q 544 3141 544 3541 
Q 544 4100 942 4425 
Q 1341 4750 2034 4750 
Q 2731 4750 3128 4425 
Q 3525 4100 3525 3541 
Q 3525 3141 3298 2862 
Q 3072 2584 2669 2484 
Q 3125 2378 3379 2068 
Q 3634 1759 3634 1313 
Q 3634 634 3220 271 
Q 2806 -91 2034 -91 
Q 1263 -91 848 271 
Q 434 634 434 1313 
Q 434 1759 690 2068 
Q 947 2378 1403 2484 
z
M 1172 3481 
Q 1172 3119 1398 2916 
Q 1625 2713 2034 2713 
Q 2441 2713 2670 2916 
Q 2900 3119 2900 3481 
Q 2900 3844 2670 4047 
Q 2441 4250 2034 4250 
Q 1625 4250 1398 4047 
Q 1172 3844 1172 3481 
z
" transform="scale(0.015625)"/>
       </defs>
       <use xlink:href="#DejaVuSans-30"/>
       <use xlink:href="#DejaVuSans-2e" transform="translate(63.623047 0)"/>
       <use xlink:href="#DejaVuSans-38" transform="translate(95.410156 0)"/>
       <use xlink:href="#DejaVuSans-30" transform="translate(159.033203 0)"/>
      </g>
     </g>
    </g>
    <g id="xtick_9">
     <g id="line2d_9">
      <g>
       <use xlink:href="#m919f976daf" x="561.866947" y="398.64351" style="stroke: #000000; stroke-width: 0.8"/>
      </g>
     </g>
     <g id="text_9">
      <!-- 1.00 -->
      <g transform="translate(550.734135 413.241947) scale(0.1 -0.1)">
       <defs>
        <path id="DejaVuSans-31" d="M 794 531 
L 1825 531 
L 1825 4091 
L 703 3866 
L 703 4441 
L 1819 4666 
L 2450 4666 
L 2450 531 
L 3481 531 
L 3481 0 
L 794 0 
L 794 531 
z
" transform="scale(0.015625)"/>
       </defs>
       <use xlink:href="#DejaVuSans-31"/>
       <use xlink:href="#DejaVuSans-2e" transform="translate(63.623047 0)"/>
       <use xlink:href="#DejaVuSans-30" transform="translate(95.410156 0)"/>
       <use xlink:href="#DejaVuSans-30" transform="translate(159.033203 0)"/>
      </g>
     </g>
    </g>
    <g id="text_10">
     <!-- Time (s) -->
     <g transform="translate(282.996094 426.920073) scale(0.1 -0.1)">
      <defs>
       <path id="DejaVuSans-54" d="M -19 4666 
L 3928 4666 
L 3928 4134 
L 2272 4134 
L 2272 0 
L 1638 0 
L 1638 4134 
L -19 4134 
L -19 4666 
z
" transform="scale(0.015625)"/>
       <path id="DejaVuSans-69" d="M 603 3500 
L 1178 3500 
L 1178 0 
L 603 0 
L 603 3500 
z
M 603 4863 
L 1178 4863 
L 1178 4134 
L 603 4134 
L 603 4863 
z
" transform="scale(0.015625)"/>
       <path id="DejaVuSans-6d" d="M 3328 2828 
Q 3544 3216 3844 3400 
Q 4144 3584 4550 3584 
Q 5097 3584 5394 3201 
Q 5691 2819 5691 2113 
L 5691 0 
L 5113 0 
L 5113 2094 
Q 5113 2597 4934 2840 
Q 4756 3084 4391 3084 
Q 3944 3084 3684 2787 
Q 3425 2491 3425 1978 
L 3425 0 
L 2847 0 
L 2847 2094 
Q 2847 2600 2669 2842 
Q 2491 3084 2119 3084 
Q 1678 3084 1418 2786 
Q 1159 2488 1159 1978 
L 1159 0 
L 581 0 
L 581 3500 
L 1159 3500 
L 1159 2956 
Q 1356 3278 1631 3431 
Q 1906 3584 2284 3584 
Q 2666 3584 2933 3390 
Q 3200 3197 3328 2828 
z
" transform="scale(0.015625)"/>
       <path id="DejaVuSans-65" d="M 3597 1894 
L 3597 1613 
L 953 1613 
Q 991 1019 1311 708 
Q 1631 397 2203 397 
Q 2534 397 2845 478 
Q 3156 559 3463 722 
L 3463 178 
Q 3153 47 2828 -22 
Q 2503 -91 2169 -91 
Q 1331 -91 842 396 
Q 353 884 353 1716 
Q 353 2575 817 3079 
Q 1281 3584 2069 3584 
Q 2775 3584 3186 3129 
Q 3597 2675 3597 1894 
z
M 3022 2063 
Q 3016 2534 2758 2815 
Q 2500 3097 2075 3097 
Q 1594 3097 1305 2825 
Q 1016 2553 972 2059 
L 3022 2063 
z
" transform="scale(0.015625)"/>
       <path id="DejaVuSans-20" transform="scale(0.015625)"/>
       <path id="DejaVuSans-28" d="M 1984 4856 
Q 1566 4138 1362 3434 
Q 1159 2731 1159 2009 
Q 1159 1288 1364 580 
Q 1569 -128 1984 -844 
L 1484 -844 
Q 1016 -109 783 600 
Q 550 1309 550 2009 
Q 550 2706 781 3412 
Q 1013 4119 1484 4856 
L 1984 4856 
z
" transform="scale(0.015625)"/>
       <path id="DejaVuSans-73" d="M 2834 3397 
L 2834 2853 
Q 2591 2978 2328 3040 
Q 2066 3103 1784 3103 
Q 1356 3103 1142 2972 
Q 928 2841 928 2578 
Q 928 2378 1081 2264 
Q 1234 2150 1697 2047 
L 1894 2003 
Q 2506 1872 2764 1633 
Q 3022 1394 3022 966 
Q 3022 478 2636 193 
Q 2250 -91 1575 -91 
Q 1294 -91 989 -36 
Q 684 19 347 128 
L 347 722 
Q 666 556 975 473 
Q 1284 391 1588 391 
Q 1994 391 2212 530 
Q 2431 669 2431 922 
Q 2431 1156 2273 1281 
Q 2116 1406 1581 1522 
L 1381 1569 
Q 847 1681 609 1914 
Q 372 2147 372 2553 
Q 372 3047 722 3315 
Q 1072 3584 1716 3584 
Q 2034 3584 2315 3537 
Q 2597 3491 2834 3397 
z
" transform="scale(0.015625)"/>
       <path id="DejaVuSans-29" d="M 513 4856 
L 1013 4856 
Q 1481 4119 1714 3412 
Q 1947 2706 1947 2009 
Q 1947 1309 1714 600 
Q 1481 -109 1013 -844 
L 513 -844 
Q 928 -128 1133 580 
Q 1338 1288 1338 2009 
Q 1338 2731 1133 3434 
Q 928 4138 513 4856 
z
" transform="scale(0.015625)"/>
      </defs>
      <use xlink:href="#DejaVuSans-54"/>
      <use xlink:href="#DejaVuSans-69" transform="translate(57.958984 0)"/>
      <use xlink:href="#DejaVuSans-6d" transform="translate(85.742188 0)"/>
      <use xlink:href="#DejaVuSans-65" transform="translate(183.154297 0)"/>
      <use xlink:href="#DejaVuSans-20" transform="translate(244.677734 0)"/>
      <use xlink:href="#DejaVuSans-28" transform="translate(276.464844 0)"/>
      <use xlink:href="#DejaVuSans-73" transform="translate(315.478516 0)"/>
      <use xlink:href="#DejaVuSans-29" transform="translate(367.578125 0)"/>
     </g>
    </g>
   </g>
   <g id="matplotlib.axis_2">
    <g id="ytick_1">
     <g id="line2d_10">
      <defs>
       <path id="m9e7ec530cb" d="M 0 0 
L -3.5 0 
" style="stroke: #000000; stroke-width: 0.8"/>
      </defs>
      <g>
       <use xlink:href="#m9e7ec530cb" x="44.783053" y="361.906302" style="stroke: #000000; stroke-width: 0.8"/>
      </g>
     </g>
     <g id="text_11">
      <!-- −10 -->
      <g transform="translate(16.678365 365.705521) scale(0.1 -0.1)">
       <use xlink:href="#DejaVuSans-2212"/>
       <use xlink:href="#DejaVuSans-31" transform="translate(83.789062 0)"/>
       <use xlink:href="#DejaVuSans-30" transform="translate(147.412109 0)"/>
      </g>
     </g>
    </g>
    <g id="ytick_2">
     <g id="line2d_11">
      <g>
       <use xlink:href="#m9e7ec530cb" x="44.783053" y="285.14362" style="stroke: #000000; stroke-width: 0.8"/>
      </g>
     </g>
     <g id="text_12">
      <!-- −5 -->
      <g transform="translate(23.040865 288.942839) scale(0.1 -0.1)">
       <use xlink:href="#DejaVuSans-2212"/>
       <use xlink:href="#DejaVuSans-35" transform="translate(83.789062 0)"/>
      </g>
     </g>
    </g>
    <g id="ytick_3">
     <g id="line2d_12">
      <g>
       <use xlink:href="#m9e7ec530cb" x="44.783053" y="208.380938" style="stroke: #000000; stroke-width: 0.8"/>
      </g>
     </g>
     <g id="text_13">
      <!-- 0 -->
      <g transform="translate(31.420553 212.180156) scale(0.1 -0.1)">
       <use xlink:href="#DejaVuSans-30"/>
      </g>
     </g>
    </g>
    <g id="ytick_4">
     <g id="line2d_13">
      <g>
       <use xlink:href="#m9e7ec530cb" x="44.783053" y="131.618255" style="stroke: #000000; stroke-width: 0.8"/>
      </g>
     </g>
     <g id="text_14">
      <!-- 5 -->
      <g transform="translate(31.420553 135.417474) scale(0.1 -0.1)">
       <use xlink:href="#DejaVuSans-35"/>
      </g>
     </g>
    </g>
    <g id="ytick_5">
     <g id="line2d_14">
      <g>
       <use xlink:href="#m9e7ec530cb" x="44.783053" y="54.855573" style="stroke: #000000; stroke-width: 0.8"/>
      </g>
     </g>
     <g id="text_15">
      <!-- 10 -->
      <g transform="translate(25.058053 58.654791) scale(0.1 -0.1)">
       <use xlink:href="#DejaVuSans-31"/>
       <use xlink:href="#DejaVuSans-30" transform="translate(63.623047 0)"/>
      </g>
     </g>
    </g>
    <g id="text_16">
     <!-- µV -->
     <g transform="translate(10.598678 214.9825) rotate(-90) scale(0.1 -0.1)">
      <defs>
       <path id="DejaVuSans-b5" d="M 544 -1331 
L 544 3500 
L 1119 3500 
L 1119 1325 
Q 1119 872 1334 640 
Q 1550 409 1972 409 
Q 2434 409 2667 671 
Q 2900 934 2900 1459 
L 2900 3500 
L 3475 3500 
L 3475 806 
Q 3475 619 3529 530 
Q 3584 441 3700 441 
Q 3728 441 3778 458 
Q 3828 475 3916 513 
L 3916 50 
Q 3788 -22 3673 -56 
Q 3559 -91 3450 -91 
Q 3234 -91 3106 31 
Q 2978 153 2931 403 
Q 2775 156 2548 32 
Q 2322 -91 2016 -91 
Q 1697 -91 1473 31 
Q 1250 153 1119 397 
L 1119 -1331 
L 544 -1331 
z
" transform="scale(0.015625)"/>
       <path id="DejaVuSans-56" d="M 1831 0 
L 50 4666 
L 709 4666 
L 2188 738 
L 3669 4666 
L 4325 4666 
L 2547 0 
L 1831 0 
z
" transform="scale(0.015625)"/>
      </defs>
      <use xlink:href="#DejaVuSans-b5"/>
      <use xlink:href="#DejaVuSans-56" transform="translate(63.623047 0)"/>
     </g>
    </g>
   </g>
   <g id="patch_4">
    <path d="M 45.052227 398.64351 
L 561.866947 398.64351 
" style="fill: none; stroke: #000000; stroke-width: 0.8; stroke-linejoin: miter; stroke-linecap: square"/>
   </g>
   <g id="patch_5">
    <path d="M 44.783052 208.380938 
L 561.866947 208.380938 
" style="fill: none; stroke: #000000; stroke-width: 0.8; stroke-linejoin: miter; stroke-linecap: square"/>
   </g>
   <g id="text_17">
    <!-- Fz, FCz, Cz, CPz, Pz (median) -->
    <g transform="translate(216.537812 12.118365) scale(0.12 -0.12)">
     <defs>
      <path id="DejaVuSans-46" d="M 628 4666 
L 3309 4666 
L 3309 4134 
L 1259 4134 
L 1259 2759 
L 3109 2759 
L 3109 2228 
L 1259 2228 
L 1259 0 
L 628 0 
L 628 4666 
z
" transform="scale(0.015625)"/>
      <path id="DejaVuSans-7a" d="M 353 3500 
L 3084 3500 
L 3084 2975 
L 922 459 
L 3084 459 
L 3084 0 
L 275 0 
L 275 525 
L 2438 3041 
L 353 3041 
L 353 3500 
z
" transform="scale(0.015625)"/>
      <path id="DejaVuSans-2c" d="M 750 794 
L 1409 794 
L 1409 256 
L 897 -744 
L 494 -744 
L 750 256 
L 750 794 
z
" transform="scale(0.015625)"/>
      <path id="DejaVuSans-43" d="M 4122 4306 
L 4122 3641 
Q 3803 3938 3442 4084 
Q 3081 4231 2675 4231 
Q 1875 4231 1450 3742 
Q 1025 3253 1025 2328 
Q 1025 1406 1450 917 
Q 1875 428 2675 428 
Q 3081 428 3442 575 
Q 3803 722 4122 1019 
L 4122 359 
Q 3791 134 3420 21 
Q 3050 -91 2638 -91 
Q 1578 -91 968 557 
Q 359 1206 359 2328 
Q 359 3453 968 4101 
Q 1578 4750 2638 4750 
Q 3056 4750 3426 4639 
Q 3797 4528 4122 4306 
z
" transform="scale(0.015625)"/>
      <path id="DejaVuSans-50" d="M 1259 4147 
L 1259 2394 
L 2053 2394 
Q 2494 2394 2734 2622 
Q 2975 2850 2975 3272 
Q 2975 3691 2734 3919 
Q 2494 4147 2053 4147 
L 1259 4147 
z
M 628 4666 
L 2053 4666 
Q 2838 4666 3239 4311 
Q 3641 3956 3641 3272 
Q 3641 2581 3239 2228 
Q 2838 1875 2053 1875 
L 1259 1875 
L 1259 0 
L 628 0 
L 628 4666 
z
" transform="scale(0.015625)"/>
      <path id="DejaVuSans-64" d="M 2906 2969 
L 2906 4863 
L 3481 4863 
L 3481 0 
L 2906 0 
L 2906 525 
Q 2725 213 2448 61 
Q 2172 -91 1784 -91 
Q 1150 -91 751 415 
Q 353 922 353 1747 
Q 353 2572 751 3078 
Q 1150 3584 1784 3584 
Q 2172 3584 2448 3432 
Q 2725 3281 2906 2969 
z
M 947 1747 
Q 947 1113 1208 752 
Q 1469 391 1925 391 
Q 2381 391 2643 752 
Q 2906 1113 2906 1747 
Q 2906 2381 2643 2742 
Q 2381 3103 1925 3103 
Q 1469 3103 1208 2742 
Q 947 2381 947 1747 
z
" transform="scale(0.015625)"/>
      <path id="DejaVuSans-61" d="M 2194 1759 
Q 1497 1759 1228 1600 
Q 959 1441 959 1056 
Q 959 750 1161 570 
Q 1363 391 1709 391 
Q 2188 391 2477 730 
Q 2766 1069 2766 1631 
L 2766 1759 
L 2194 1759 
z
M 3341 1997 
L 3341 0 
L 2766 0 
L 2766 531 
Q 2569 213 2275 61 
Q 1981 -91 1556 -91 
Q 1019 -91 701 211 
Q 384 513 384 1019 
Q 384 1609 779 1909 
Q 1175 2209 1959 2209 
L 2766 2209 
L 2766 2266 
Q 2766 2663 2505 2880 
Q 2244 3097 1772 3097 
Q 1472 3097 1187 3025 
Q 903 2953 641 2809 
L 641 3341 
Q 956 3463 1253 3523 
Q 1550 3584 1831 3584 
Q 2591 3584 2966 3190 
Q 3341 2797 3341 1997 
z
" transform="scale(0.015625)"/>
      <path id="DejaVuSans-6e" d="M 3513 2113 
L 3513 0 
L 2938 0 
L 2938 2094 
Q 2938 2591 2744 2837 
Q 2550 3084 2163 3084 
Q 1697 3084 1428 2787 
Q 1159 2491 1159 1978 
L 1159 0 
L 581 0 
L 581 3500 
L 1159 3500 
L 1159 2956 
Q 1366 3272 1645 3428 
Q 1925 3584 2291 3584 
Q 2894 3584 3203 3211 
Q 3513 2838 3513 2113 
z
" transform="scale(0.015625)"/>
     </defs>
     <use xlink:href="#DejaVuSans-46"/>
     <use xlink:href="#DejaVuSans-7a" transform="translate(57.519531 0)"/>
     <use xlink:href="#DejaVuSans-2c" transform="translate(110.009766 0)"/>
     <use xlink:href="#DejaVuSans-20" transform="translate(141.796875 0)"/>
     <use xlink:href="#DejaVuSans-46" transform="translate(173.583984 0)"/>
     <use xlink:href="#DejaVuSans-43" transform="translate(231.103516 0)"/>
     <use xlink:href="#DejaVuSans-7a" transform="translate(300.927734 0)"/>
     <use xlink:href="#DejaVuSans-2c" transform="translate(353.417969 0)"/>
     <use xlink:href="#DejaVuSans-20" transform="translate(385.205078 0)"/>
     <use xlink:href="#DejaVuSans-43" transform="translate(416.992188 0)"/>
     <use xlink:href="#DejaVuSans-7a" transform="translate(486.816406 0)"/>
     <use xlink:href="#DejaVuSans-2c" transform="translate(539.306641 0)"/>
     <use xlink:href="#DejaVuSans-20" transform="translate(571.09375 0)"/>
     <use xlink:href="#DejaVuSans-43" transform="translate(602.880859 0)"/>
     <use xlink:href="#DejaVuSans-50" transform="translate(672.705078 0)"/>
     <use xlink:href="#DejaVuSans-7a" transform="translate(733.007812 0)"/>
     <use xlink:href="#DejaVuSans-2c" transform="translate(785.498047 0)"/>
     <use xlink:href="#DejaVuSans-20" transform="translate(817.285156 0)"/>
     <use xlink:href="#DejaVuSans-50" transform="translate(849.072266 0)"/>
     <use xlink:href="#DejaVuSans-7a" transform="translate(909.375 0)"/>
     <use xlink:href="#DejaVuSans-20" transform="translate(961.865234 0)"/>
     <use xlink:href="#DejaVuSans-28" transform="translate(993.652344 0)"/>
     <use xlink:href="#DejaVuSans-6d" transform="translate(1032.666016 0)"/>
     <use xlink:href="#DejaVuSans-65" transform="translate(1130.078125 0)"/>
     <use xlink:href="#DejaVuSans-64" transform="translate(1191.601562 0)"/>
     <use xlink:href="#DejaVuSans-69" transform="translate(1255.078125 0)"/>
     <use xlink:href="#DejaVuSans-61" transform="translate(1282.861328 0)"/>
     <use xlink:href="#DejaVuSans-6e" transform="translate(1344.140625 0)"/>
     <use xlink:href="#DejaVuSans-29" transform="translate(1407.519531 0)"/>
    </g>
   </g>
   <g id="legend_1">
    <g id="patch_6">
     <path d="M 51.783053 55.75274 
L 132.92524 55.75274 
Q 134.92524 55.75274 134.92524 53.75274 
L 134.92524 25.118365 
Q 134.92524 23.118365 132.92524 23.118365 
L 51.783053 23.118365 
Q 49.783053 23.118365 49.783053 25.118365 
L 49.783053 53.75274 
Q 49.783053 55.75274 51.783053 55.75274 
z
" style="fill: #ffffff; opacity: 0.8; stroke: #cccccc; stroke-linejoin: miter"/>
    </g>
    <g id="line2d_15">
     <path d="M 53.783053 31.216803 
L 63.783053 31.216803 
L 73.783052 31.216803 
" style="fill: none; stroke: #1f77b4; stroke-width: 1.5; stroke-linecap: square"/>
    </g>
    <g id="text_18">
     <!-- eerie -->
     <g transform="translate(81.783052 34.716803) scale(0.1 -0.1)">
      <defs>
       <path id="DejaVuSans-72" d="M 2631 2963 
Q 2534 3019 2420 3045 
Q 2306 3072 2169 3072 
Q 1681 3072 1420 2755 
Q 1159 2438 1159 1844 
L 1159 0 
L 581 0 
L 581 3500 
L 1159 3500 
L 1159 2956 
Q 1341 3275 1631 3429 
Q 1922 3584 2338 3584 
Q 2397 3584 2469 3576 
Q 2541 3569 2628 3553 
L 2631 2963 
z
" transform="scale(0.015625)"/>
      </defs>
      <use xlink:href="#DejaVuSans-65"/>
      <use xlink:href="#DejaVuSans-65" transform="translate(61.523438 0)"/>
      <use xlink:href="#DejaVuSans-72" transform="translate(123.046875 0)"/>
      <use xlink:href="#DejaVuSans-69" transform="translate(164.160156 0)"/>
      <use xlink:href="#DejaVuSans-65" transform="translate(191.943359 0)"/>
     </g>
    </g>
    <g id="line2d_16">
     <path d="M 53.783053 45.894928 
L 63.783053 45.894928 
L 73.783052 45.894928 
" style="fill: none; stroke: #ff7f0e; stroke-width: 1.5; stroke-linecap: square"/>
    </g>
    <g id="text_19">
     <!-- non_eerie -->
     <g transform="translate(81.783052 49.394928) scale(0.1 -0.1)">
      <defs>
       <path id="DejaVuSans-6f" d="M 1959 3097 
Q 1497 3097 1228 2736 
Q 959 2375 959 1747 
Q 959 1119 1226 758 
Q 1494 397 1959 397 
Q 2419 397 2687 759 
Q 2956 1122 2956 1747 
Q 2956 2369 2687 2733 
Q 2419 3097 1959 3097 
z
M 1959 3584 
Q 2709 3584 3137 3096 
Q 3566 2609 3566 1747 
Q 3566 888 3137 398 
Q 2709 -91 1959 -91 
Q 1206 -91 779 398 
Q 353 888 353 1747 
Q 353 2609 779 3096 
Q 1206 3584 1959 3584 
z
" transform="scale(0.015625)"/>
       <path id="DejaVuSans-5f" d="M 3263 -1063 
L 3263 -1509 
L -63 -1509 
L -63 -1063 
L 3263 -1063 
z
" transform="scale(0.015625)"/>
      </defs>
      <use xlink:href="#DejaVuSans-6e"/>
      <use xlink:href="#DejaVuSans-6f" transform="translate(63.378906 0)"/>
      <use xlink:href="#DejaVuSans-6e" transform="translate(124.560547 0)"/>
      <use xlink:href="#DejaVuSans-5f" transform="translate(187.939453 0)"/>
      <use xlink:href="#DejaVuSans-65" transform="translate(237.939453 0)"/>
      <use xlink:href="#DejaVuSans-65" transform="translate(299.462891 0)"/>
      <use xlink:href="#DejaVuSans-72" transform="translate(360.986328 0)"/>
      <use xlink:href="#DejaVuSans-69" transform="translate(402.099609 0)"/>
      <use xlink:href="#DejaVuSans-65" transform="translate(429.882812 0)"/>
     </g>
    </g>
   </g>
   <g id="FillBetweenPolyCollection_1">
    <defs>
     <path id="m62c1fdaba9" d="M 44.783052 -224.48206 
L 44.783052 -212.475568 
L 46.465392 -217.425926 
L 48.147732 -222.648448 
L 49.830071 -227.204909 
L 51.512411 -230.304074 
L 53.19475 -231.347075 
L 54.87709 -230.973353 
L 56.55943 -230.357599 
L 58.241769 -228.84852 
L 59.924109 -226.994274 
L 61.606448 -225.317917 
L 63.288788 -223.084556 
L 64.971128 -220.701664 
L 66.653467 -217.643117 
L 68.335807 -213.845662 
L 70.018146 -210.527483 
L 71.700486 -208.104134 
L 73.382825 -207.53731 
L 75.065165 -208.23044 
L 76.747505 -209.931275 
L 78.429844 -211.586392 
L 80.112184 -212.971779 
L 81.794523 -214.248419 
L 83.476863 -215.135451 
L 85.159203 -216.264723 
L 86.841542 -217.280596 
L 88.523882 -217.935675 
L 90.206221 -218.227353 
L 91.888561 -217.637711 
L 93.5709 -216.909403 
L 95.25324 -217.601709 
L 96.93558 -219.253077 
L 98.617919 -221.686642 
L 100.300259 -224.173836 
L 101.982598 -225.011681 
L 103.664938 -224.469812 
L 105.347278 -223.173228 
L 107.029617 -222.30465 
L 108.711957 -222.463458 
L 110.394296 -223.280269 
L 112.076636 -224.469092 
L 113.758976 -225.151264 
L 115.441315 -224.210442 
L 117.123655 -221.455221 
L 118.805994 -218.475492 
L 120.488334 -216.17817 
L 122.170673 -213.620193 
L 123.853013 -211.450905 
L 125.535353 -208.436606 
L 127.217692 -204.580299 
L 128.900032 -200.014845 
L 130.582371 -196.356735 
L 132.264711 -195.125484 
L 133.947051 -195.832987 
L 135.62939 -197.566693 
L 137.31173 -199.045089 
L 138.994069 -199.063008 
L 140.676409 -199.814514 
L 142.358748 -201.384415 
L 144.041088 -205.278115 
L 145.723428 -210.914483 
L 147.405767 -217.19364 
L 149.088107 -221.211119 
L 150.770446 -222.641813 
L 152.452786 -221.661268 
L 154.135126 -218.904521 
L 155.817465 -215.480578 
L 157.499805 -212.497315 
L 159.182144 -210.217074 
L 160.864484 -208.353228 
L 162.546823 -206.138991 
L 164.229163 -203.514225 
L 165.911503 -198.884576 
L 167.593842 -193.32072 
L 169.276182 -185.427903 
L 170.958521 -176.108849 
L 172.640861 -166.907659 
L 174.323201 -158.267903 
L 176.00554 -149.587527 
L 177.68788 -141.983969 
L 179.370219 -134.998859 
L 181.052559 -129.586449 
L 182.734899 -127.099591 
L 184.417238 -129.143678 
L 186.099578 -135.821618 
L 187.781917 -147.160617 
L 189.464257 -162.752703 
L 191.146596 -180.579594 
L 192.828936 -199.512716 
L 194.511276 -216.968401 
L 196.193615 -232.60261 
L 197.875955 -245.339295 
L 199.558294 -254.506013 
L 201.240634 -259.684341 
L 202.922974 -259.877471 
L 204.605313 -256.554558 
L 206.287653 -250.313055 
L 207.969992 -242.09628 
L 209.652332 -232.746399 
L 211.334671 -222.331899 
L 213.017011 -210.490017 
L 214.699351 -197.559041 
L 216.38169 -184.539639 
L 218.06403 -172.404012 
L 219.746369 -163.102182 
L 221.428709 -156.414597 
L 223.111049 -151.073579 
L 224.793388 -145.735356 
L 226.475728 -137.95785 
L 228.158067 -127.832911 
L 229.840407 -116.506059 
L 231.522746 -105.760107 
L 233.205086 -97.90162 
L 234.887426 -93.881014 
L 236.569765 -93.973679 
L 238.252105 -96.629686 
L 239.934444 -100.044633 
L 241.616784 -103.345971 
L 243.299124 -105.81869 
L 244.981463 -108.277141 
L 246.663803 -111.085341 
L 248.346142 -114.08884 
L 250.028482 -117.552679 
L 251.710822 -121.641228 
L 253.393161 -125.878019 
L 255.075501 -128.825825 
L 256.75784 -130.500532 
L 258.44018 -131.284995 
L 260.122519 -131.539566 
L 261.804859 -131.846086 
L 263.487199 -132.751001 
L 265.169538 -133.799136 
L 266.851878 -135.000009 
L 268.534217 -136.683735 
L 270.216557 -139.215738 
L 271.898897 -143.304036 
L 273.581236 -148.553179 
L 275.263576 -154.04926 
L 276.945915 -159.033739 
L 278.628255 -163.123046 
L 280.310594 -165.802105 
L 281.992934 -167.789198 
L 283.675274 -170.073276 
L 285.357613 -173.542163 
L 287.039953 -178.085033 
L 288.722292 -182.007397 
L 290.404632 -184.652991 
L 292.086972 -185.16012 
L 293.769311 -184.236238 
L 295.451651 -183.064876 
L 297.13399 -183.048478 
L 298.81633 -185.399704 
L 300.498669 -189.390384 
L 302.181009 -195.114597 
L 303.863349 -202.455492 
L 305.545688 -210.350056 
L 307.228028 -218.36801 
L 308.910367 -224.798876 
L 310.592707 -229.606765 
L 312.275047 -232.796822 
L 313.957386 -235.107246 
L 315.639726 -238.737664 
L 317.322065 -244.50999 
L 319.004405 -253.02764 
L 320.686745 -262.625639 
L 322.369084 -271.372904 
L 324.051424 -278.646716 
L 325.733763 -283.970349 
L 327.416103 -287.305262 
L 329.098442 -289.599147 
L 330.780782 -292.722448 
L 332.463122 -296.117858 
L 334.145461 -298.943742 
L 335.827801 -300.725489 
L 337.51014 -301.88339 
L 339.19248 -303.959581 
L 340.87482 -308.031084 
L 342.557159 -315.11657 
L 344.239499 -323.599049 
L 345.921838 -331.927501 
L 347.604178 -338.241234 
L 349.286517 -342.076846 
L 350.968857 -343.441612 
L 352.651197 -343.283142 
L 354.333536 -343.751451 
L 356.015876 -345.235755 
L 357.698215 -347.232527 
L 359.380555 -348.841823 
L 361.062895 -349.245226 
L 362.745234 -349.630565 
L 364.427574 -349.595981 
L 366.109913 -349.568775 
L 367.792253 -351.28336 
L 369.474593 -354.233864 
L 371.156932 -356.947722 
L 372.839272 -358.541774 
L 374.521611 -359.642153 
L 376.203951 -361.513575 
L 377.88629 -365.046678 
L 379.56863 -369.593038 
L 381.25097 -375.263231 
L 382.933309 -380.464803 
L 384.615649 -383.601291 
L 386.297988 -385.449638 
L 387.980328 -386.41587 
L 389.662668 -387.852228 
L 391.345007 -390.113093 
L 393.027347 -392.318574 
L 394.709686 -393.463418 
L 396.392026 -392.645189 
L 398.074365 -389.323261 
L 399.756705 -384.801152 
L 401.439045 -380.791488 
L 403.121384 -378.227773 
L 404.803724 -377.288272 
L 406.486063 -377.727219 
L 408.168403 -378.57812 
L 409.850743 -379.968017 
L 411.533082 -381.097494 
L 413.215422 -382.735533 
L 414.897761 -383.780237 
L 416.580101 -384.549034 
L 418.26244 -385.01607 
L 419.94478 -385.103605 
L 421.62712 -384.865619 
L 423.309459 -384.212352 
L 424.991799 -383.906121 
L 426.674138 -384.086137 
L 428.356478 -383.914602 
L 430.038818 -383.361396 
L 431.721157 -381.611738 
L 433.403497 -379.62781 
L 435.085836 -377.501046 
L 436.768176 -375.41249 
L 438.450516 -373.310893 
L 440.132855 -371.673563 
L 441.815195 -368.790397 
L 443.497534 -364.808194 
L 445.179874 -360.058112 
L 446.862213 -355.335907 
L 448.544553 -350.271195 
L 450.226893 -346.647759 
L 451.909232 -344.084363 
L 453.591572 -343.427232 
L 455.273911 -343.172932 
L 456.956251 -342.822656 
L 458.638591 -341.774986 
L 460.32093 -339.49781 
L 462.00327 -336.883967 
L 463.685609 -334.374578 
L 465.367949 -332.071316 
L 467.050288 -329.413347 
L 468.732628 -326.18861 
L 470.414968 -321.86421 
L 472.097307 -318.007073 
L 473.779647 -315.376581 
L 475.461986 -314.911747 
L 477.144326 -316.703778 
L 478.826666 -320.039449 
L 480.509005 -323.792095 
L 482.191345 -326.235075 
L 483.873684 -327.06367 
L 485.556024 -326.607084 
L 487.238363 -325.793238 
L 488.920703 -324.995206 
L 490.603043 -324.724468 
L 492.285382 -323.911486 
L 493.967722 -322.489537 
L 495.650061 -319.543502 
L 497.332401 -315.231267 
L 499.014741 -309.206052 
L 500.69708 -303.634856 
L 502.37942 -299.936039 
L 504.061759 -297.996741 
L 505.744099 -298.633723 
L 507.426439 -301.307957 
L 509.108778 -304.741326 
L 510.791118 -307.708413 
L 512.473457 -309.631448 
L 514.155797 -310.437328 
L 515.838136 -311.269488 
L 517.520476 -312.951817 
L 519.202816 -315.551922 
L 520.885155 -318.078534 
L 522.567495 -319.607683 
L 524.249834 -318.596435 
L 525.932174 -315.223728 
L 527.614514 -311.331348 
L 529.296853 -308.556779 
L 530.979193 -308.234333 
L 532.661532 -308.347489 
L 534.343872 -307.688317 
L 536.026211 -305.200396 
L 537.708551 -300.912529 
L 539.390891 -295.874794 
L 541.07323 -291.226459 
L 542.75557 -287.548967 
L 544.437909 -285.300218 
L 546.120249 -284.016435 
L 547.802589 -283.847067 
L 549.484928 -284.820327 
L 551.167268 -287.06743 
L 552.849607 -289.639054 
L 554.531947 -291.214791 
L 556.214286 -290.682587 
L 557.896626 -287.866645 
L 559.578966 -283.82435 
L 561.261305 -280.773354 
L 561.261305 -298.520325 
L 561.261305 -298.520325 
L 559.578966 -301.58286 
L 557.896626 -305.594874 
L 556.214286 -308.237435 
L 554.531947 -308.735862 
L 552.849607 -307.111053 
L 551.167268 -304.42947 
L 549.484928 -301.991589 
L 547.802589 -301.000924 
L 546.120249 -301.535828 
L 544.437909 -303.139287 
L 542.75557 -305.897123 
L 541.07323 -310.224041 
L 539.390891 -315.611312 
L 537.708551 -321.098318 
L 536.026211 -325.328945 
L 534.343872 -328.226441 
L 532.661532 -328.961062 
L 530.979193 -329.023779 
L 529.296853 -329.803798 
L 527.614514 -332.149629 
L 525.932174 -335.760657 
L 524.249834 -339.018789 
L 522.567495 -340.292189 
L 520.885155 -339.033147 
L 519.202816 -336.641009 
L 517.520476 -333.826397 
L 515.838136 -332.349173 
L 514.155797 -331.401675 
L 512.473457 -330.963685 
L 510.791118 -329.21244 
L 509.108778 -326.348082 
L 507.426439 -322.987703 
L 505.744099 -320.641997 
L 504.061759 -319.914403 
L 502.37942 -321.161545 
L 500.69708 -324.584517 
L 499.014741 -329.294805 
L 497.332401 -334.948013 
L 495.650061 -339.984212 
L 493.967722 -343.393419 
L 492.285382 -346.156601 
L 490.603043 -347.833865 
L 488.920703 -348.550635 
L 487.238363 -349.099949 
L 485.556024 -348.672669 
L 483.873684 -347.77186 
L 482.191345 -346.264488 
L 480.509005 -343.076904 
L 478.826666 -339.275369 
L 477.144326 -336.04917 
L 475.461986 -334.207516 
L 473.779647 -335.432447 
L 472.097307 -338.597166 
L 470.414968 -343.389201 
L 468.732628 -347.621313 
L 467.050288 -350.843473 
L 465.367949 -353.074417 
L 463.685609 -355.152669 
L 462.00327 -357.100167 
L 460.32093 -359.209543 
L 458.638591 -361.273501 
L 456.956251 -362.27211 
L 455.273911 -362.899528 
L 453.591572 -363.660078 
L 451.909232 -364.656778 
L 450.226893 -367.106159 
L 448.544553 -370.640204 
L 446.862213 -374.89178 
L 445.179874 -379.616123 
L 443.497534 -384.057949 
L 441.815195 -387.388071 
L 440.132855 -389.662512 
L 438.450516 -391.484949 
L 436.768176 -393.646999 
L 435.085836 -395.975127 
L 433.403497 -398.43012 
L 431.721157 -400.549925 
L 430.038818 -402.720927 
L 428.356478 -403.575108 
L 426.674138 -403.750977 
L 424.991799 -403.606862 
L 423.309459 -403.932639 
L 421.62712 -404.990661 
L 419.94478 -405.620492 
L 418.26244 -405.787255 
L 416.580101 -405.318236 
L 414.897761 -404.281903 
L 413.215422 -402.724971 
L 411.533082 -400.907522 
L 409.850743 -399.186545 
L 408.168403 -397.704812 
L 406.486063 -396.872069 
L 404.803724 -396.930351 
L 403.121384 -398.476926 
L 401.439045 -401.95977 
L 399.756705 -406.411811 
L 398.074365 -410.477273 
L 396.392026 -413.368445 
L 394.709686 -413.881635 
L 393.027347 -412.43309 
L 391.345007 -409.955366 
L 389.662668 -407.480577 
L 387.980328 -406.259042 
L 386.297988 -405.186136 
L 384.615649 -403.862245 
L 382.933309 -401.148179 
L 381.25097 -396.716066 
L 379.56863 -391.940636 
L 377.88629 -387.14093 
L 376.203951 -383.441864 
L 374.521611 -380.912212 
L 372.839272 -379.442449 
L 371.156932 -377.857913 
L 369.474593 -375.635423 
L 367.792253 -373.103713 
L 366.109913 -371.003952 
L 364.427574 -370.264383 
L 362.745234 -370.236365 
L 361.062895 -370.132363 
L 359.380555 -369.850562 
L 357.698215 -368.557112 
L 356.015876 -366.902447 
L 354.333536 -365.609246 
L 352.651197 -365.390618 
L 350.968857 -365.481584 
L 349.286517 -364.156609 
L 347.604178 -360.902847 
L 345.921838 -355.185874 
L 344.239499 -347.120082 
L 342.557159 -338.752984 
L 340.87482 -331.631223 
L 339.19248 -327.660144 
L 337.51014 -325.504103 
L 335.827801 -323.74857 
L 334.145461 -321.726843 
L 332.463122 -318.844749 
L 330.780782 -315.474271 
L 329.098442 -312.450816 
L 327.416103 -310.329517 
L 325.733763 -307.216945 
L 324.051424 -303.122102 
L 322.369084 -296.585951 
L 320.686745 -288.475607 
L 319.004405 -278.901307 
L 317.322065 -270.210501 
L 315.639726 -263.78261 
L 313.957386 -259.210411 
L 312.275047 -256.408371 
L 310.592707 -253.522492 
L 308.910367 -248.8915 
L 307.228028 -242.42715 
L 305.545688 -234.475116 
L 303.863349 -226.171846 
L 302.181009 -218.609039 
L 300.498669 -212.56681 
L 298.81633 -207.694537 
L 297.13399 -204.994652 
L 295.451651 -204.895943 
L 293.769311 -205.744944 
L 292.086972 -206.832854 
L 290.404632 -206.417283 
L 288.722292 -204.682258 
L 287.039953 -201.732275 
L 285.357613 -197.775199 
L 283.675274 -194.402773 
L 281.992934 -191.140467 
L 280.310594 -188.227974 
L 278.628255 -185.328819 
L 276.945915 -180.989529 
L 275.263576 -175.772554 
L 273.581236 -170.260632 
L 271.898897 -164.919881 
L 270.216557 -160.390469 
L 268.534217 -157.029016 
L 266.851878 -155.158484 
L 265.169538 -153.604109 
L 263.487199 -152.501621 
L 261.804859 -151.933741 
L 260.122519 -152.372058 
L 258.44018 -152.852033 
L 256.75784 -152.222661 
L 255.075501 -150.454618 
L 253.393161 -147.436736 
L 251.710822 -142.989287 
L 250.028482 -139.072896 
L 248.346142 -134.998015 
L 246.663803 -132.264855 
L 244.981463 -130.689133 
L 243.299124 -128.830664 
L 241.616784 -126.434871 
L 239.934444 -122.813037 
L 238.252105 -118.412698 
L 236.569765 -115.103021 
L 234.887426 -113.971472 
L 233.205086 -117.062384 
L 231.522746 -124.115673 
L 229.840407 -134.229997 
L 228.158067 -145.327057 
L 226.475728 -155.639834 
L 224.793388 -163.733382 
L 223.111049 -169.471072 
L 221.428709 -175.032484 
L 219.746369 -182.138833 
L 218.06403 -191.455626 
L 216.38169 -202.786189 
L 214.699351 -215.264375 
L 213.017011 -227.904169 
L 211.334671 -239.366995 
L 209.652332 -250.045428 
L 207.969992 -259.613903 
L 206.287653 -267.833851 
L 204.605313 -273.984142 
L 202.922974 -277.212627 
L 201.240634 -277.117708 
L 199.558294 -273.026392 
L 197.875955 -265.159518 
L 196.193615 -253.469906 
L 194.511276 -239.258185 
L 192.828936 -222.266361 
L 191.146596 -203.461532 
L 189.464257 -184.983371 
L 187.781917 -168.17006 
L 186.099578 -155.298142 
L 184.417238 -147.769757 
L 182.734899 -145.210695 
L 181.052559 -147.086829 
L 179.370219 -152.397722 
L 177.68788 -159.039941 
L 176.00554 -166.535781 
L 174.323201 -175.145857 
L 172.640861 -183.713222 
L 170.958521 -192.392311 
L 169.276182 -200.907348 
L 167.593842 -207.967638 
L 165.911503 -213.229761 
L 164.229163 -217.677024 
L 162.546823 -220.364608 
L 160.864484 -222.715709 
L 159.182144 -224.942454 
L 157.499805 -227.994992 
L 155.817465 -231.11558 
L 154.135126 -234.200744 
L 152.452786 -236.870236 
L 150.770446 -237.747758 
L 149.088107 -235.591257 
L 147.405767 -230.933012 
L 145.723428 -224.771238 
L 144.041088 -219.603417 
L 142.358748 -216.557383 
L 140.676409 -215.915182 
L 138.994069 -215.554103 
L 137.31173 -215.265249 
L 135.62939 -213.365357 
L 133.947051 -211.501301 
L 132.264711 -210.474721 
L 130.582371 -210.94603 
L 128.900032 -213.488031 
L 127.217692 -216.99488 
L 125.535353 -220.065887 
L 123.853013 -222.169338 
L 122.170673 -224.008386 
L 120.488334 -225.531341 
L 118.805994 -227.306405 
L 117.123655 -229.833671 
L 115.441315 -232.710655 
L 113.758976 -234.569921 
L 112.076636 -235.12857 
L 110.394296 -235.005009 
L 108.711957 -235.164219 
L 107.029617 -235.265492 
L 105.347278 -236.052751 
L 103.664938 -236.885795 
L 101.982598 -236.569533 
L 100.300259 -234.507225 
L 98.617919 -231.161755 
L 96.93558 -228.401838 
L 95.25324 -226.735771 
L 93.5709 -225.935665 
L 91.888561 -226.597039 
L 90.206221 -227.172607 
L 88.523882 -227.115458 
L 86.841542 -226.75773 
L 85.159203 -226.26201 
L 83.476863 -225.795883 
L 81.794523 -225.189465 
L 80.112184 -223.776363 
L 78.429844 -222.166989 
L 76.747505 -220.161291 
L 75.065165 -218.547125 
L 73.382825 -217.887885 
L 71.700486 -218.534868 
L 70.018146 -221.066373 
L 68.335807 -224.441336 
L 66.653467 -227.924839 
L 64.971128 -230.735901 
L 63.288788 -233.208991 
L 61.606448 -235.625864 
L 59.924109 -237.606913 
L 58.241769 -239.518176 
L 56.55943 -240.832431 
L 54.87709 -241.461665 
L 53.19475 -241.767429 
L 51.512411 -240.628854 
L 49.830071 -237.860994 
L 48.147732 -233.490139 
L 46.465392 -228.648473 
L 44.783052 -224.48206 
z
" style="stroke: #1f77b4; stroke-opacity: 0.3"/>
    </defs>
    <g>
     <use xlink:href="#m62c1fdaba9" x="0" y="432" style="fill: #1f77b4; fill-opacity: 0.3; stroke: #1f77b4; stroke-opacity: 0.3"/>
    </g>
   </g>
   <g id="FillBetweenPolyCollection_2">
    <defs>
     <path id="medab421591" d="M 44.783052 -226.439632 
L 44.783052 -222.458728 
L 46.465392 -221.888959 
L 48.147732 -221.678135 
L 49.830071 -221.5522 
L 51.512411 -221.258858 
L 53.19475 -220.907466 
L 54.87709 -220.649027 
L 56.55943 -220.462694 
L 58.241769 -220.182342 
L 59.924109 -219.833452 
L 61.606448 -219.421225 
L 63.288788 -219.085775 
L 64.971128 -219.218709 
L 66.653467 -220.251945 
L 68.335807 -222.400658 
L 70.018146 -225.388885 
L 71.700486 -228.388638 
L 73.382825 -230.466778 
L 75.065165 -230.913098 
L 76.747505 -230.123806 
L 78.429844 -228.590798 
L 80.112184 -227.151977 
L 81.794523 -226.196084 
L 83.476863 -226.173422 
L 85.159203 -226.627573 
L 86.841542 -226.852798 
L 88.523882 -226.3855 
L 90.206221 -225.040728 
L 91.888561 -223.054377 
L 93.5709 -221.100228 
L 95.25324 -219.674633 
L 96.93558 -219.273958 
L 98.617919 -219.718656 
L 100.300259 -220.609735 
L 101.982598 -221.309819 
L 103.664938 -221.229503 
L 105.347278 -220.003477 
L 107.029617 -218.20864 
L 108.711957 -216.637006 
L 110.394296 -216.083242 
L 112.076636 -216.871176 
L 113.758976 -218.746141 
L 115.441315 -220.494929 
L 117.123655 -221.295289 
L 118.805994 -221.240809 
L 120.488334 -220.690364 
L 122.170673 -220.255221 
L 123.853013 -220.272742 
L 125.535353 -220.49708 
L 127.217692 -220.569558 
L 128.900032 -220.185113 
L 130.582371 -219.896721 
L 132.264711 -220.338806 
L 133.947051 -222.014766 
L 135.62939 -224.71114 
L 137.31173 -227.23965 
L 138.994069 -228.654507 
L 140.676409 -228.149533 
L 142.358748 -226.213348 
L 144.041088 -223.865875 
L 145.723428 -222.23479 
L 147.405767 -222.065429 
L 149.088107 -223.033928 
L 150.770446 -224.152529 
L 152.452786 -224.654616 
L 154.135126 -224.056289 
L 155.817465 -222.693172 
L 157.499805 -221.283445 
L 159.182144 -220.070974 
L 160.864484 -219.178814 
L 162.546823 -218.432537 
L 164.229163 -217.421543 
L 165.911503 -215.710497 
L 167.593842 -213.627925 
L 169.276182 -211.297368 
L 170.958521 -208.264036 
L 172.640861 -204.801355 
L 174.323201 -200.079113 
L 176.00554 -194.414716 
L 177.68788 -187.872939 
L 179.370219 -180.552174 
L 181.052559 -172.877582 
L 182.734899 -165.686486 
L 184.417238 -160.387147 
L 186.099578 -158.793318 
L 187.781917 -162.494641 
L 189.464257 -172.329801 
L 191.146596 -188.209713 
L 192.828936 -208.591951 
L 194.511276 -230.773667 
L 196.193615 -251.655742 
L 197.875955 -268.890063 
L 199.558294 -281.957229 
L 201.240634 -290.484548 
L 202.922974 -294.854784 
L 204.605313 -294.990917 
L 206.287653 -291.211634 
L 207.969992 -283.843032 
L 209.652332 -273.520984 
L 211.334671 -261.50858 
L 213.017011 -249.322742 
L 214.699351 -237.897952 
L 216.38169 -227.262233 
L 218.06403 -217.088475 
L 219.746369 -206.706936 
L 221.428709 -195.059554 
L 223.111049 -181.896896 
L 224.793388 -167.896339 
L 226.475728 -153.851141 
L 228.158067 -140.759665 
L 229.840407 -129.803224 
L 231.522746 -120.848236 
L 233.205086 -114.130482 
L 234.887426 -109.429191 
L 236.569765 -106.576447 
L 238.252105 -105.64851 
L 239.934444 -106.356176 
L 241.616784 -108.157213 
L 243.299124 -110.623638 
L 244.981463 -113.440284 
L 246.663803 -116.372531 
L 248.346142 -119.660941 
L 250.028482 -123.265235 
L 251.710822 -126.845097 
L 253.393161 -129.918527 
L 255.075501 -132.121743 
L 256.75784 -133.667128 
L 258.44018 -134.462066 
L 260.122519 -134.836745 
L 261.804859 -134.643284 
L 263.487199 -133.92694 
L 265.169538 -132.78128 
L 266.851878 -131.816292 
L 268.534217 -131.667412 
L 270.216557 -133.004074 
L 271.898897 -136.36563 
L 273.581236 -140.956882 
L 275.263576 -146.071132 
L 276.945915 -151.19105 
L 278.628255 -156.106847 
L 280.310594 -161.034723 
L 281.992934 -166.425287 
L 283.675274 -172.623557 
L 285.357613 -179.445531 
L 287.039953 -186.317501 
L 288.722292 -192.617244 
L 290.404632 -197.879526 
L 292.086972 -202.342299 
L 293.769311 -206.058683 
L 295.451651 -208.951071 
L 297.13399 -210.967086 
L 298.81633 -212.086701 
L 300.498669 -212.405282 
L 302.181009 -212.672343 
L 303.863349 -213.452966 
L 305.545688 -215.312458 
L 307.228028 -218.10566 
L 308.910367 -221.835328 
L 310.592707 -225.893813 
L 312.275047 -229.543647 
L 313.957386 -232.194368 
L 315.639726 -233.83259 
L 317.322065 -234.929272 
L 319.004405 -236.075613 
L 320.686745 -237.73423 
L 322.369084 -240.07484 
L 324.051424 -242.900645 
L 325.733763 -245.872501 
L 327.416103 -248.57739 
L 329.098442 -250.912163 
L 330.780782 -252.886587 
L 332.463122 -254.530253 
L 334.145461 -256.099185 
L 335.827801 -257.670743 
L 337.51014 -259.247193 
L 339.19248 -260.749836 
L 340.87482 -262.258865 
L 342.557159 -264.00556 
L 344.239499 -265.722542 
L 345.921838 -267.503531 
L 347.604178 -269.178894 
L 349.286517 -270.818341 
L 350.968857 -272.414809 
L 352.651197 -274.324319 
L 354.333536 -276.762957 
L 356.015876 -279.701716 
L 357.698215 -283.241023 
L 359.380555 -286.93785 
L 361.062895 -290.496896 
L 362.745234 -293.334447 
L 364.427574 -295.563909 
L 366.109913 -297.559842 
L 367.792253 -299.226115 
L 369.474593 -300.993052 
L 371.156932 -302.905245 
L 372.839272 -305.046795 
L 374.521611 -307.268207 
L 376.203951 -309.503984 
L 377.88629 -311.753967 
L 379.56863 -314.143897 
L 381.25097 -317.048832 
L 382.933309 -320.402403 
L 384.615649 -324.012815 
L 386.297988 -327.817349 
L 387.980328 -331.358818 
L 389.662668 -334.377975 
L 391.345007 -336.777252 
L 393.027347 -338.652857 
L 394.709686 -340.375434 
L 396.392026 -342.221319 
L 398.074365 -344.316526 
L 399.756705 -346.739674 
L 401.439045 -349.128842 
L 403.121384 -350.76453 
L 404.803724 -350.889589 
L 406.486063 -349.58692 
L 408.168403 -347.458206 
L 409.850743 -345.42577 
L 411.533082 -344.444019 
L 413.215422 -344.852443 
L 414.897761 -345.933055 
L 416.580101 -346.884847 
L 418.26244 -347.392626 
L 419.94478 -347.306729 
L 421.62712 -347.368647 
L 423.309459 -348.065737 
L 424.991799 -349.27258 
L 426.674138 -350.241174 
L 428.356478 -349.968615 
L 430.038818 -347.84647 
L 431.721157 -344.512266 
L 433.403497 -341.325573 
L 435.085836 -339.369486 
L 436.768176 -338.801473 
L 438.450516 -338.693514 
L 440.132855 -337.559551 
L 441.815195 -334.643425 
L 443.497534 -330.490309 
L 445.179874 -326.454267 
L 446.862213 -323.816968 
L 448.544553 -323.334008 
L 450.226893 -324.381005 
L 451.909232 -325.37931 
L 453.591572 -325.17139 
L 455.273911 -323.464144 
L 456.956251 -321.049149 
L 458.638591 -318.779598 
L 460.32093 -317.466079 
L 462.00327 -317.119377 
L 463.685609 -317.45471 
L 465.367949 -317.742251 
L 467.050288 -317.658596 
L 468.732628 -316.776668 
L 470.414968 -315.450992 
L 472.097307 -313.639748 
L 473.779647 -311.839456 
L 475.461986 -310.541339 
L 477.144326 -310.294321 
L 478.826666 -311.390138 
L 480.509005 -313.36608 
L 482.191345 -315.361821 
L 483.873684 -316.749561 
L 485.556024 -317.205854 
L 487.238363 -316.949273 
L 488.920703 -316.700953 
L 490.603043 -316.794192 
L 492.285382 -317.187367 
L 493.967722 -317.890875 
L 495.650061 -317.85142 
L 497.332401 -316.754507 
L 499.014741 -314.839977 
L 500.69708 -312.956276 
L 502.37942 -311.462498 
L 504.061759 -310.74314 
L 505.744099 -310.582427 
L 507.426439 -310.303714 
L 509.108778 -309.443319 
L 510.791118 -308.070129 
L 512.473457 -306.466792 
L 514.155797 -305.318695 
L 515.838136 -305.132593 
L 517.520476 -305.80537 
L 519.202816 -307.48888 
L 520.885155 -309.498318 
L 522.567495 -311.024683 
L 524.249834 -311.601961 
L 525.932174 -311.079179 
L 527.614514 -309.6374 
L 529.296853 -307.982305 
L 530.979193 -306.646173 
L 532.661532 -306.011362 
L 534.343872 -306.128657 
L 536.026211 -306.911402 
L 537.708551 -307.550358 
L 539.390891 -307.673795 
L 541.07323 -306.848253 
L 542.75557 -305.017231 
L 544.437909 -302.770158 
L 546.120249 -300.64735 
L 547.802589 -299.289001 
L 549.484928 -298.497358 
L 551.167268 -297.91783 
L 552.849607 -297.080249 
L 554.531947 -296.077853 
L 556.214286 -294.979045 
L 557.896626 -294.056802 
L 559.578966 -293.350449 
L 561.261305 -293.029332 
L 561.261305 -298.559932 
L 561.261305 -298.559932 
L 559.578966 -298.900994 
L 557.896626 -299.596096 
L 556.214286 -300.521099 
L 554.531947 -301.685694 
L 552.849607 -302.646679 
L 551.167268 -303.345338 
L 549.484928 -303.958837 
L 547.802589 -304.730382 
L 546.120249 -306.072274 
L 544.437909 -308.13669 
L 542.75557 -310.566149 
L 541.07323 -312.498839 
L 539.390891 -313.540239 
L 537.708551 -313.459181 
L 536.026211 -312.749504 
L 534.343872 -311.972983 
L 532.661532 -311.855335 
L 530.979193 -312.456704 
L 529.296853 -313.983237 
L 527.614514 -315.710442 
L 525.932174 -317.080413 
L 524.249834 -317.608784 
L 522.567495 -317.031399 
L 520.885155 -315.518777 
L 519.202816 -313.492929 
L 517.520476 -311.876445 
L 515.838136 -311.091436 
L 514.155797 -311.280536 
L 512.473457 -312.431375 
L 510.791118 -313.904225 
L 509.108778 -315.160839 
L 507.426439 -315.974653 
L 505.744099 -316.30289 
L 504.061759 -316.577581 
L 502.37942 -317.311151 
L 500.69708 -318.794513 
L 499.014741 -320.855359 
L 497.332401 -322.745402 
L 495.650061 -323.913889 
L 493.967722 -324.008709 
L 492.285382 -323.426673 
L 490.603043 -323.078764 
L 488.920703 -323.063083 
L 487.238363 -323.305702 
L 485.556024 -323.422964 
L 483.873684 -322.801539 
L 482.191345 -321.297907 
L 480.509005 -319.271268 
L 478.826666 -317.274427 
L 477.144326 -316.222985 
L 475.461986 -316.374491 
L 473.779647 -317.682269 
L 472.097307 -319.477412 
L 470.414968 -321.333646 
L 468.732628 -322.71434 
L 467.050288 -323.478217 
L 465.367949 -323.643401 
L 463.685609 -323.332674 
L 462.00327 -322.956111 
L 460.32093 -323.236763 
L 458.638591 -324.476725 
L 456.956251 -326.673843 
L 455.273911 -329.001405 
L 453.591572 -330.563581 
L 451.909232 -330.694103 
L 450.226893 -329.686669 
L 448.544553 -328.74784 
L 446.862213 -329.262174 
L 445.179874 -331.813065 
L 443.497534 -335.883628 
L 441.815195 -340.122632 
L 440.132855 -343.025732 
L 438.450516 -344.177421 
L 436.768176 -344.210044 
L 435.085836 -344.766907 
L 433.403497 -346.710137 
L 431.721157 -349.821876 
L 430.038818 -353.087335 
L 428.356478 -355.166835 
L 426.674138 -355.5603 
L 424.991799 -354.548314 
L 423.309459 -353.274505 
L 421.62712 -352.617878 
L 419.94478 -352.655688 
L 418.26244 -352.748874 
L 416.580101 -352.303988 
L 414.897761 -351.147605 
L 413.215422 -349.895614 
L 411.533082 -349.429913 
L 409.850743 -350.499035 
L 408.168403 -352.687291 
L 406.486063 -354.968441 
L 404.803724 -356.405104 
L 403.121384 -356.324802 
L 401.439045 -354.709946 
L 399.756705 -352.170956 
L 398.074365 -349.731321 
L 396.392026 -347.625696 
L 394.709686 -345.811148 
L 393.027347 -344.055487 
L 391.345007 -342.279922 
L 389.662668 -339.863861 
L 387.980328 -336.790252 
L 386.297988 -333.218123 
L 384.615649 -329.369112 
L 382.933309 -325.777366 
L 381.25097 -322.469476 
L 379.56863 -319.581855 
L 377.88629 -317.197263 
L 376.203951 -314.955144 
L 374.521611 -312.674283 
L 372.839272 -310.37689 
L 371.156932 -308.180788 
L 369.474593 -306.223766 
L 367.792253 -304.475116 
L 366.109913 -302.832073 
L 364.427574 -300.886113 
L 362.745234 -298.60869 
L 361.062895 -295.756614 
L 359.380555 -292.201214 
L 357.698215 -288.485491 
L 356.015876 -284.930321 
L 354.333536 -281.91944 
L 352.651197 -279.47692 
L 350.968857 -277.559536 
L 349.286517 -275.855978 
L 347.604178 -274.389632 
L 345.921838 -272.84351 
L 344.239499 -271.145512 
L 342.557159 -269.489587 
L 340.87482 -267.843386 
L 339.19248 -266.287223 
L 337.51014 -264.790022 
L 335.827801 -263.358849 
L 334.145461 -261.95437 
L 332.463122 -260.482787 
L 330.780782 -258.987239 
L 329.098442 -257.015982 
L 327.416103 -254.671933 
L 325.733763 -251.882237 
L 324.051424 -248.74831 
L 322.369084 -245.856212 
L 320.686745 -243.463182 
L 319.004405 -241.843066 
L 317.322065 -240.799243 
L 315.639726 -239.635014 
L 313.957386 -237.865696 
L 312.275047 -235.05988 
L 310.592707 -231.436072 
L 308.910367 -227.287225 
L 307.228028 -223.621968 
L 305.545688 -220.800134 
L 303.863349 -219.103127 
L 302.181009 -218.342709 
L 300.498669 -218.110269 
L 298.81633 -217.740087 
L 297.13399 -216.546372 
L 295.451651 -214.460984 
L 293.769311 -211.394602 
L 292.086972 -207.763547 
L 290.404632 -203.321441 
L 288.722292 -197.995084 
L 287.039953 -191.73846 
L 285.357613 -184.966414 
L 283.675274 -178.33571 
L 281.992934 -172.218486 
L 280.310594 -166.941661 
L 278.628255 -162.098849 
L 276.945915 -157.067341 
L 275.263576 -151.876953 
L 273.581236 -146.725882 
L 271.898897 -142.057329 
L 270.216557 -138.798888 
L 268.534217 -137.3915 
L 266.851878 -137.45841 
L 265.169538 -138.279561 
L 263.487199 -139.325794 
L 261.804859 -140.061629 
L 260.122519 -140.230749 
L 258.44018 -139.821777 
L 256.75784 -138.955129 
L 255.075501 -137.372985 
L 253.393161 -135.119539 
L 251.710822 -131.962587 
L 250.028482 -128.400485 
L 248.346142 -124.663709 
L 246.663803 -121.362063 
L 244.981463 -118.377009 
L 243.299124 -115.736486 
L 241.616784 -113.364759 
L 239.934444 -111.675336 
L 238.252105 -111.112385 
L 236.569765 -112.094505 
L 234.887426 -114.857448 
L 233.205086 -119.541576 
L 231.522746 -126.287378 
L 229.840407 -135.20641 
L 228.158067 -146.328603 
L 226.475728 -159.384524 
L 224.793388 -173.339806 
L 223.111049 -187.31135 
L 221.428709 -200.481564 
L 219.746369 -212.155329 
L 218.06403 -222.504265 
L 216.38169 -232.721881 
L 214.699351 -243.337916 
L 213.017011 -254.901167 
L 211.334671 -267.02997 
L 209.652332 -278.992808 
L 207.969992 -289.18121 
L 206.287653 -296.546733 
L 204.605313 -300.267799 
L 202.922974 -299.992575 
L 201.240634 -295.765762 
L 199.558294 -287.28967 
L 197.875955 -274.251427 
L 196.193615 -256.936616 
L 194.511276 -236.157452 
L 192.828936 -213.844443 
L 191.146596 -193.377395 
L 189.464257 -177.373075 
L 187.781917 -167.449214 
L 186.099578 -163.718221 
L 184.417238 -165.288896 
L 182.734899 -170.603619 
L 181.052559 -177.769912 
L 179.370219 -185.34984 
L 177.68788 -192.587417 
L 176.00554 -199.050601 
L 174.323201 -204.640139 
L 172.640861 -209.382635 
L 170.958521 -212.890698 
L 169.276182 -215.842734 
L 167.593842 -218.235176 
L 165.911503 -220.280831 
L 164.229163 -221.925964 
L 162.546823 -222.917861 
L 160.864484 -223.604254 
L 159.182144 -224.513274 
L 157.499805 -225.740678 
L 155.817465 -227.160505 
L 154.135126 -228.592742 
L 152.452786 -229.178233 
L 150.770446 -228.686451 
L 149.088107 -227.515342 
L 147.405767 -226.561067 
L 145.723428 -226.649812 
L 144.041088 -228.181924 
L 142.358748 -230.507859 
L 140.676409 -232.392471 
L 138.994069 -232.711543 
L 137.31173 -231.15576 
L 135.62939 -228.474344 
L 133.947051 -225.675849 
L 132.264711 -223.842311 
L 130.582371 -223.297601 
L 128.900032 -223.586675 
L 127.217692 -223.910173 
L 125.535353 -223.863125 
L 123.853013 -223.623352 
L 122.170673 -223.461424 
L 120.488334 -223.726277 
L 118.805994 -224.181975 
L 117.123655 -224.193308 
L 115.441315 -223.299371 
L 113.758976 -221.559464 
L 112.076636 -219.743614 
L 110.394296 -218.996781 
L 108.711957 -219.497672 
L 107.029617 -220.982985 
L 105.347278 -222.711666 
L 103.664938 -223.899818 
L 101.982598 -223.949344 
L 100.300259 -223.29994 
L 98.617919 -222.547441 
L 96.93558 -222.088798 
L 95.25324 -222.563134 
L 93.5709 -224.06286 
L 91.888561 -226.030684 
L 90.206221 -227.949607 
L 88.523882 -229.369716 
L 86.841542 -229.920449 
L 85.159203 -229.726157 
L 83.476863 -229.23463 
L 81.794523 -229.279404 
L 80.112184 -230.141509 
L 78.429844 -231.533152 
L 76.747505 -232.919324 
L 75.065165 -233.612576 
L 73.382825 -233.200724 
L 71.700486 -231.389051 
L 70.018146 -228.640466 
L 68.335807 -225.772552 
L 66.653467 -223.680991 
L 64.971128 -222.722764 
L 63.288788 -222.675495 
L 61.606448 -222.981768 
L 59.924109 -223.308408 
L 58.241769 -223.577481 
L 56.55943 -223.796352 
L 54.87709 -223.883113 
L 53.19475 -224.131752 
L 51.512411 -224.49448 
L 49.830071 -224.935265 
L 48.147732 -225.245779 
L 46.465392 -225.696182 
L 44.783052 -226.439632 
z
" style="stroke: #ff7f0e; stroke-opacity: 0.3"/>
    </defs>
    <g>
     <use xlink:href="#medab421591" x="0" y="432" style="fill: #ff7f0e; fill-opacity: 0.3; stroke: #ff7f0e; stroke-opacity: 0.3"/>
    </g>
   </g>
   <g id="line2d_17">
    <path d="M 44.783052 213.500845 
L 46.465392 208.849824 
L 48.147732 203.773575 
L 49.830071 199.310913 
L 51.512411 196.430433 
L 53.19475 195.296964 
L 54.87709 195.5454 
L 56.55943 196.218648 
L 58.241769 197.635446 
L 63.288788 203.956591 
L 64.971128 206.42304 
L 66.653467 209.317287 
L 68.335807 212.934247 
L 70.018146 216.217546 
L 71.700486 218.590707 
L 73.382825 219.163426 
L 75.065165 218.551112 
L 76.747505 216.876783 
L 78.429844 215.0155 
L 80.112184 213.451342 
L 81.794523 212.139621 
L 86.841542 209.774009 
L 88.523882 209.392861 
L 90.206221 209.169667 
L 93.5709 210.605224 
L 95.25324 209.876048 
L 96.93558 208.162958 
L 98.617919 205.632277 
L 100.300259 202.759468 
L 101.982598 201.289691 
L 103.664938 201.477928 
L 105.347278 202.600116 
L 107.029617 203.439224 
L 108.711957 203.297743 
L 110.394296 202.823018 
L 112.076636 202.215114 
L 113.758976 202.086092 
L 115.441315 203.590978 
L 118.805994 209.382315 
L 122.170673 213.375419 
L 123.853013 215.180623 
L 125.535353 217.753049 
L 127.217692 221.258568 
L 128.900032 225.192559 
L 130.582371 228.29794 
L 132.264711 229.087389 
L 133.947051 228.257089 
L 137.31173 224.81544 
L 140.676409 223.9729 
L 142.358748 222.886116 
L 144.041088 219.48945 
L 145.723428 213.959939 
L 147.405767 207.918074 
L 149.088107 203.593285 
L 150.770446 201.833551 
L 152.452786 202.898103 
L 154.135126 205.514345 
L 155.817465 208.826457 
L 157.499805 211.787685 
L 159.182144 214.41408 
L 162.546823 218.636116 
L 164.229163 221.487446 
L 165.911503 226.023135 
L 167.593842 231.493279 
L 169.276182 238.899945 
L 174.323201 265.407099 
L 176.00554 273.895311 
L 177.68788 281.412843 
L 179.370219 287.975405 
L 181.052559 293.129577 
L 182.734899 295.353037 
L 184.417238 293.174487 
L 186.099578 286.031031 
L 187.781917 273.857716 
L 189.464257 257.581591 
L 194.511276 203.400597 
L 196.193615 188.572281 
L 197.875955 176.485327 
L 199.558294 168.094119 
L 201.240634 163.603572 
L 202.922974 163.465082 
L 204.605313 166.85571 
L 206.287653 173.057421 
L 207.969992 181.144532 
L 209.652332 190.604607 
L 211.334671 201.086515 
L 213.017011 212.744032 
L 216.38169 237.993494 
L 218.06403 249.706355 
L 219.746369 259.018822 
L 221.428709 266.031979 
L 224.793388 277.094657 
L 226.475728 285.062225 
L 228.158067 295.244093 
L 229.840407 306.576692 
L 231.522746 316.979274 
L 233.205086 324.425194 
L 234.887426 327.819055 
L 236.569765 327.190651 
L 238.252105 324.166239 
L 239.934444 320.228426 
L 241.616784 316.835389 
L 243.299124 314.448497 
L 244.981463 312.528714 
L 246.663803 310.251923 
L 248.346142 307.363324 
L 250.028482 303.72248 
L 253.393161 295.460172 
L 255.075501 292.407779 
L 256.75784 290.710669 
L 258.44018 289.943421 
L 261.804859 290.048589 
L 263.487199 289.225051 
L 265.169538 288.236057 
L 266.851878 286.901261 
L 268.534217 285.153446 
L 270.216557 282.224584 
L 271.898897 277.741983 
L 276.945915 261.753283 
L 278.628255 257.42507 
L 280.310594 254.538747 
L 281.992934 252.015314 
L 283.675274 249.148209 
L 285.357613 245.711849 
L 287.039953 241.889392 
L 288.722292 238.583795 
L 290.404632 236.57031 
L 292.086972 236.265515 
L 293.769311 236.945361 
L 295.451651 237.917882 
L 297.13399 237.758723 
L 298.81633 235.406017 
L 300.498669 231.007434 
L 302.181009 225.189049 
L 303.863349 217.796832 
L 307.228028 201.505837 
L 308.910367 194.931368 
L 310.592707 190.156649 
L 312.275047 187.163158 
L 313.957386 184.617062 
L 315.639726 180.647189 
L 317.322065 174.494669 
L 319.004405 166.00695 
L 320.686745 156.420453 
L 322.369084 147.834109 
L 324.051424 141.036899 
L 325.733763 136.303777 
L 327.416103 133.29384 
L 329.098442 131.091893 
L 330.780782 128.05227 
L 332.463122 124.683403 
L 334.145461 121.938249 
L 335.827801 119.948041 
L 337.51014 118.33283 
L 339.19248 116.171287 
L 340.87482 112.048447 
L 342.557159 105.155646 
L 345.921838 88.268145 
L 347.604178 82.030622 
L 349.286517 78.596335 
L 350.968857 77.383756 
L 352.651197 77.424686 
L 354.333536 77.110127 
L 356.015876 75.873898 
L 359.380555 72.895523 
L 361.062895 72.313829 
L 364.427574 72.045839 
L 366.109913 71.473544 
L 367.792253 69.537637 
L 371.156932 64.197533 
L 372.839272 62.630609 
L 374.521611 61.358749 
L 376.203951 59.187483 
L 377.88629 55.75595 
L 379.56863 51.057526 
L 381.25097 45.761066 
L 382.933309 41.133036 
L 384.615649 38.121062 
L 386.297988 36.46495 
L 387.980328 35.497548 
L 389.662668 34.145497 
L 391.345007 31.921498 
L 393.027347 29.421528 
L 394.709686 28.200908 
L 396.392026 28.895067 
L 398.074365 31.777243 
L 401.439045 40.817224 
L 403.121384 43.738983 
L 404.803724 44.905238 
L 406.486063 44.705747 
L 408.168403 43.931921 
L 414.897761 37.908873 
L 416.580101 36.956034 
L 418.26244 36.524674 
L 419.94478 36.494594 
L 421.62712 36.98781 
L 423.309459 37.734628 
L 424.991799 38.087204 
L 426.674138 37.919548 
L 428.356478 38.009054 
L 430.038818 38.846947 
L 431.721157 40.567758 
L 433.403497 42.666137 
L 436.768176 47.322997 
L 440.132855 51.176716 
L 441.815195 53.774791 
L 443.497534 57.44601 
L 445.179874 61.885803 
L 448.544553 71.327021 
L 450.226893 74.959976 
L 451.909232 77.488223 
L 453.591572 78.622919 
L 456.956251 79.470128 
L 458.638591 80.580884 
L 460.32093 82.585694 
L 465.367949 89.312562 
L 467.050288 91.768607 
L 468.732628 95.04191 
L 472.097307 103.557995 
L 473.779647 106.526118 
L 475.461986 107.454816 
L 477.144326 105.708984 
L 478.826666 102.390537 
L 480.509005 98.778116 
L 482.191345 96.061119 
L 483.873684 94.857113 
L 485.556024 94.662324 
L 487.238363 94.930259 
L 488.920703 95.621315 
L 490.603043 96.158639 
L 492.285382 97.298758 
L 493.967722 99.363155 
L 495.650061 102.581139 
L 497.332401 107.075026 
L 499.014741 112.725385 
L 500.69708 117.974371 
L 502.37942 121.433402 
L 504.061759 122.959371 
L 505.744099 122.102469 
L 507.426439 119.645924 
L 509.108778 116.346424 
L 510.791118 113.430253 
L 512.473457 111.55887 
L 514.155797 110.793671 
L 515.838136 109.861846 
L 517.520476 108.213411 
L 520.885155 103.231347 
L 522.567495 101.964149 
L 524.249834 103.085823 
L 525.932174 106.33658 
L 527.614514 110.07449 
L 529.296853 112.581025 
L 530.979193 113.214111 
L 532.661532 113.065116 
L 534.343872 113.640865 
L 536.026211 116.144157 
L 537.708551 120.500831 
L 541.07323 130.773821 
L 542.75557 134.704306 
L 544.437909 137.393442 
L 546.120249 138.899451 
L 547.802589 139.21889 
L 549.484928 138.20694 
L 551.167268 136.026873 
L 552.849607 133.462193 
L 554.531947 131.988557 
L 556.214286 132.54049 
L 557.896626 135.362897 
L 559.578966 139.413257 
L 561.261305 142.599168 
L 561.261305 142.599168 
" style="fill: none; stroke: #1f77b4; stroke-width: 1.5; stroke-linecap: square"/>
   </g>
   <g id="line2d_18">
    <path d="M 44.783052 207.467136 
L 46.465392 208.167674 
L 48.147732 208.512277 
L 49.830071 208.730082 
L 53.19475 209.444852 
L 54.87709 209.723118 
L 58.241769 210.109448 
L 61.606448 210.770058 
L 63.288788 211.112984 
L 64.971128 211.041201 
L 66.653467 210.040718 
L 68.335807 207.926762 
L 71.700486 202.173738 
L 73.382825 200.221666 
L 75.065165 199.732302 
L 76.747505 200.479193 
L 80.112184 203.374471 
L 81.794523 204.227579 
L 83.476863 204.273679 
L 85.159203 203.803016 
L 86.841542 203.588805 
L 88.523882 204.113612 
L 90.206221 205.446864 
L 93.5709 209.360449 
L 95.25324 210.83237 
L 96.93558 211.290297 
L 98.617919 210.90316 
L 101.982598 209.394049 
L 103.664938 209.444364 
L 105.347278 210.620112 
L 107.029617 212.382062 
L 108.711957 213.887591 
L 110.394296 214.441464 
L 112.076636 213.663367 
L 115.441315 210.129376 
L 117.123655 209.296011 
L 118.805994 209.313585 
L 120.488334 209.837707 
L 122.170673 210.165652 
L 123.853013 210.092723 
L 125.535353 209.825186 
L 127.217692 209.731195 
L 130.582371 210.36504 
L 132.264711 209.887492 
L 133.947051 208.161877 
L 137.31173 202.77674 
L 138.994069 201.330062 
L 140.676409 201.718505 
L 142.358748 203.635064 
L 144.041088 205.94264 
L 145.723428 207.499326 
L 147.405767 207.615488 
L 149.088107 206.653042 
L 150.770446 205.454551 
L 152.452786 204.950455 
L 154.135126 205.553611 
L 159.182144 209.647442 
L 160.864484 210.579463 
L 162.546823 211.285843 
L 164.229163 212.330245 
L 165.911503 213.996493 
L 167.593842 216.046179 
L 169.276182 218.429475 
L 170.958521 221.415414 
L 172.640861 224.876358 
L 174.323201 229.597467 
L 176.00554 235.235602 
L 177.68788 241.69877 
L 182.734899 263.75084 
L 184.417238 269.026932 
L 186.099578 270.650008 
L 187.781917 266.996801 
L 189.464257 257.103782 
L 191.146596 241.194836 
L 192.828936 220.721587 
L 196.193615 177.720542 
L 197.875955 160.43072 
L 199.558294 147.369919 
L 201.240634 138.871987 
L 202.922974 134.562997 
L 204.605313 134.329727 
L 206.287653 138.035627 
L 207.969992 145.366532 
L 209.652332 155.605046 
L 214.699351 191.281616 
L 221.428709 234.09665 
L 224.793388 261.250902 
L 226.475728 275.286112 
L 228.158067 288.337721 
L 229.840407 299.387036 
L 231.522746 308.323155 
L 233.205086 315.060213 
L 234.887426 319.766392 
L 236.569765 322.571206 
L 238.252105 323.520228 
L 239.934444 322.903568 
L 241.616784 321.146344 
L 243.299124 318.80453 
L 244.981463 316.110448 
L 246.663803 313.132793 
L 248.346142 309.843448 
L 251.710822 302.544209 
L 253.393161 299.453984 
L 255.075501 297.175154 
L 256.75784 295.635109 
L 258.44018 294.680641 
L 260.122519 294.312406 
L 261.804859 294.507163 
L 263.487199 295.268328 
L 266.851878 297.290765 
L 268.534217 297.422056 
L 270.216557 296.051572 
L 271.898897 292.833001 
L 273.581236 288.18712 
L 278.628255 272.874313 
L 280.310594 268.015268 
L 281.992934 262.670762 
L 283.675274 256.49212 
L 288.722292 236.689412 
L 290.404632 231.349731 
L 292.086972 226.887464 
L 293.769311 223.209095 
L 295.451651 220.267143 
L 297.13399 218.215442 
L 298.81633 217.089667 
L 300.498669 216.686674 
L 302.181009 216.427613 
L 303.863349 215.664931 
L 305.545688 213.921714 
L 307.228028 211.059591 
L 308.910367 207.340963 
L 310.592707 203.281082 
L 312.275047 199.641718 
L 313.957386 196.932683 
L 315.639726 195.232428 
L 319.004405 192.999993 
L 320.686745 191.404947 
L 322.369084 189.057929 
L 327.416103 180.313987 
L 329.098442 177.995712 
L 330.780782 176.046537 
L 334.145461 172.950312 
L 342.557159 165.357144 
L 347.604178 160.255564 
L 350.968857 157.054197 
L 352.651197 155.141792 
L 354.333536 152.675856 
L 356.015876 149.658301 
L 361.062895 138.938634 
L 362.745234 136.053741 
L 364.427574 133.810504 
L 366.109913 131.835869 
L 369.474593 128.343288 
L 371.156932 126.437074 
L 374.521611 122.070315 
L 379.56863 115.131761 
L 381.25097 112.245248 
L 382.933309 108.922553 
L 387.980328 97.961047 
L 389.662668 94.909242 
L 391.345007 92.548578 
L 396.392026 87.122069 
L 398.074365 85.01387 
L 401.439045 80.137506 
L 403.121384 78.464922 
L 404.803724 78.34183 
L 406.486063 79.680511 
L 409.850743 84.020874 
L 411.533082 85.086673 
L 413.215422 84.64646 
L 416.580101 82.370377 
L 418.26244 81.877712 
L 421.62712 81.963951 
L 423.309459 81.328074 
L 424.991799 80.078448 
L 426.674138 79.039246 
L 428.356478 79.408816 
L 430.038818 81.558055 
L 433.403497 88.004921 
L 435.085836 89.953286 
L 436.768176 90.485108 
L 438.450516 90.562761 
L 440.132855 91.711374 
L 441.815195 94.59106 
L 445.179874 102.882703 
L 446.862213 105.473831 
L 448.544553 106.000867 
L 451.909232 104.014268 
L 453.591572 104.173031 
L 455.273911 105.769837 
L 456.956251 108.161474 
L 458.638591 110.344503 
L 460.32093 111.607808 
L 462.00327 111.915158 
L 465.367949 111.307566 
L 467.050288 111.435975 
L 468.732628 112.274269 
L 470.414968 113.667588 
L 473.779647 117.294897 
L 475.461986 118.575392 
L 477.144326 118.702005 
L 478.826666 117.589377 
L 482.191345 113.601999 
L 483.873684 112.203498 
L 485.556024 111.706787 
L 488.920703 112.128173 
L 490.603043 112.067736 
L 493.967722 111.043089 
L 495.650061 111.111379 
L 497.332401 112.20865 
L 500.69708 116.101938 
L 502.37942 117.572908 
L 504.061759 118.280372 
L 507.426439 118.78062 
L 509.108778 119.600443 
L 510.791118 120.990272 
L 512.473457 122.557904 
L 514.155797 123.708596 
L 515.838136 123.9074 
L 517.520476 123.080889 
L 519.202816 121.433612 
L 520.885155 119.442647 
L 522.567495 117.864845 
L 524.249834 117.242633 
L 525.932174 117.779897 
L 527.614514 119.195099 
L 529.296853 120.950399 
L 530.979193 122.412405 
L 532.661532 123.096814 
L 534.343872 122.968778 
L 537.708551 121.479679 
L 539.390891 121.380493 
L 541.07323 122.308093 
L 542.75557 124.225299 
L 544.437909 126.579937 
L 546.120249 128.632186 
L 547.802589 129.974516 
L 549.484928 130.775445 
L 551.167268 131.409113 
L 552.849607 132.213159 
L 557.896626 135.207611 
L 559.578966 135.900559 
L 561.261305 136.269797 
L 561.261305 136.269797 
" style="fill: none; stroke: #ff7f0e; stroke-width: 1.5; stroke-linecap: square"/>
   </g>
  </g>
  <g id="axes_2">
   <g id="PathCollection_1">
    <defs>
     <path id="C0_0_46e87ce66b" d="M 0 1.118034 
C 0.296506 1.118034 0.580908 1.000231 0.790569 0.790569 
C 1.000231 0.580908 1.118034 0.296506 1.118034 -0 
C 1.118034 -0.296506 1.000231 -0.580908 0.790569 -0.790569 
C 0.580908 -1.000231 0.296506 -1.118034 0 -1.118034 
C -0.296506 -1.118034 -0.580908 -1.000231 -0.790569 -0.790569 
C -1.000231 -0.580908 -1.118034 -0.296506 -1.118034 0 
C -1.118034 0.296506 -1.000231 0.580908 -0.790569 0.790569 
C -0.580908 1.000231 -0.296506 1.118034 0 1.118034 
z
"/>
    </defs>
    <g clip-path="url(#pc328c35e89)">
     <use xlink:href="#C0_0_46e87ce66b" x="509.13937" y="46.64915" style="stroke: #000000"/>
    </g>
    <g clip-path="url(#pc328c35e89)">
     <use xlink:href="#C0_0_46e87ce66b" x="509.147251" y="56.277599" style="stroke: #000000"/>
    </g>
    <g clip-path="url(#pc328c35e89)">
     <use xlink:href="#C0_0_46e87ce66b" x="509.092397" y="76.413687" style="stroke: #000000"/>
    </g>
    <g clip-path="url(#pc328c35e89)">
     <use xlink:href="#C0_0_46e87ce66b" x="509.035125" y="85.80057" style="stroke: #000000"/>
    </g>
    <g clip-path="url(#pc328c35e89)">
     <use xlink:href="#C0_0_46e87ce66b" x="509.130245" y="66.304876" style="stroke: #000000"/>
    </g>
   </g>
   <g id="matplotlib.axis_3"/>
   <g id="matplotlib.axis_4"/>
   <g id="line2d_19">
    <path d="M 548.860095 73.636387 
L 548.782417 71.164635 
L 548.54969 68.702638 
L 548.162832 66.260111 
L 547.623369 63.846696 
L 546.933432 61.471916 
L 546.095742 59.145144 
L 545.113607 56.875562 
L 543.990901 54.672127 
L 542.732055 52.543535 
L 541.342038 50.498188 
L 539.826336 48.544156 
L 538.19093 46.689152 
L 536.442274 44.940496 
L 534.58727 43.30509 
L 532.633238 41.789388 
L 530.587891 40.399371 
L 528.459299 39.140526 
L 526.255865 38.017819 
L 523.986282 37.035684 
L 521.65951 36.197994 
L 519.28473 35.508057 
L 516.871315 34.968594 
L 514.428789 34.581736 
L 511.966791 34.349009 
L 509.495039 34.271331 
L 507.023286 34.349009 
L 504.561289 34.581736 
L 502.118763 34.968594 
L 499.705347 35.508057 
L 497.330567 36.197994 
L 495.003795 37.035684 
L 492.734213 38.017819 
L 490.530778 39.140526 
L 488.402187 40.399371 
L 486.356839 41.789388 
L 484.402808 43.30509 
L 482.547803 44.940496 
L 480.799148 46.689152 
L 479.163742 48.544156 
L 477.648039 50.498188 
L 476.258022 52.543535 
L 474.999177 54.672127 
L 473.876471 56.875562 
L 472.894335 59.145144 
L 472.056645 61.471916 
L 471.366708 63.846696 
L 470.827246 66.260111 
L 470.440388 68.702638 
L 470.20766 71.164635 
L 470.129982 73.636387 
L 470.20766 76.10814 
L 470.440388 78.570137 
L 470.827246 81.012663 
L 471.366708 83.426079 
L 472.056645 85.800859 
L 472.894335 88.127631 
L 473.876471 90.397213 
L 474.999177 92.600648 
L 476.258022 94.729239 
L 477.648039 96.774587 
L 479.163742 98.728619 
L 480.799148 100.583623 
L 482.547803 102.332278 
L 484.402808 103.967685 
L 486.356839 105.483387 
L 488.402187 106.873404 
L 490.530778 108.132249 
L 492.734213 109.254955 
L 495.003795 110.237091 
L 497.330567 111.074781 
L 499.705347 111.764718 
L 502.118763 112.30418 
L 504.561289 112.691038 
L 507.023286 112.923766 
L 509.495039 113.001444 
L 511.966791 112.923766 
L 514.428789 112.691038 
L 516.871315 112.30418 
L 519.28473 111.764718 
L 521.65951 111.074781 
L 523.986282 110.237091 
L 526.255865 109.254955 
L 528.459299 108.132249 
L 530.587891 106.873404 
L 532.633238 105.483387 
L 534.58727 103.967685 
L 536.442274 102.332278 
L 538.19093 100.583623 
L 539.826336 98.728619 
L 541.342038 96.774587 
L 542.732055 94.729239 
L 543.990901 92.600648 
L 545.113607 90.397213 
L 546.095742 88.127631 
L 546.933432 85.800859 
L 547.623369 83.426079 
L 548.162832 81.012663 
L 548.54969 78.570137 
L 548.782417 76.10814 
L 548.860095 73.636387 
" style="fill: none; stroke: #000000; stroke-linecap: square"/>
   </g>
   <g id="line2d_20">
    <path d="M 501.250441 35.144385 
L 509.495039 28.366573 
L 517.739637 35.144385 
" style="fill: none; stroke: #000000; stroke-linecap: square"/>
   </g>
   <g id="line2d_21">
    <path d="M 470.366173 69.266866 
L 469.342681 67.534804 
L 468.71284 67.47182 
L 467.775952 67.763121 
L 466.831191 69.266866 
L 466.980778 74.069403 
L 466.429667 80.974034 
L 467.610619 83.973651 
L 469.342681 84.532635 
L 470.996014 83.076128 
" style="fill: none; stroke: #000000; stroke-linecap: square"/>
   </g>
   <g id="line2d_22">
    <path d="M 548.623905 69.266866 
L 549.647396 67.534804 
L 550.277237 67.47182 
L 551.214125 67.763121 
L 552.158887 69.266866 
L 552.0093 74.069403 
L 552.56041 80.974034 
L 551.379459 83.973651 
L 549.647396 84.532635 
L 547.994064 83.076128 
" style="fill: none; stroke: #000000; stroke-linecap: square"/>
   </g>
  </g>
 </g>
 <defs>
  <clipPath id="p6a9706c45e">
   <rect x="44.783053" y="18.118365" width="517.083895" height="380.525145"/>
  </clipPath>
  <clipPath id="pc328c35e89">
   <rect x="462.12313" y="24.134829" width="94.743817" height="93.098358"/>
  </clipPath>
 </defs>
</svg>
