<?xml version="1.0" encoding="utf-8" standalone="no"?>
<!DOCTYPE svg PUBLIC "-//W3C//DTD SVG 1.1//EN"
  "http://www.w3.org/Graphics/SVG/1.1/DTD/svg11.dtd">
<svg xmlns:xlink="http://www.w3.org/1999/xlink" width="576pt" height="432pt" viewBox="0 0 576 432" xmlns="http://www.w3.org/2000/svg" version="1.1">
 <metadata>
  <rdf:RDF xmlns:dc="http://purl.org/dc/elements/1.1/" xmlns:cc="http://creativecommons.org/ns#" xmlns:rdf="http://www.w3.org/1999/02/22-rdf-syntax-ns#">
   <cc:Work>
    <dc:type rdf:resource="http://purl.org/dc/dcmitype/StillImage"/>
    <dc:date>2025-02-17T18:04:16.867167</dc:date>
    <dc:format>image/svg+xml</dc:format>
    <dc:creator>
     <cc:Agent>
      <dc:title>Matplotlib v3.10.0, https://matplotlib.org/</dc:title>
     </cc:Agent>
    </dc:creator>
   </cc:Work>
  </rdf:RDF>
 </metadata>
 <defs>
  <style type="text/css">*{stroke-linejoin: round; stroke-linecap: butt}</style>
 </defs>
 <g id="figure_1">
  <g id="patch_1">
   <path d="M 0 432 
L 576 432 
L 576 0 
L 0 0 
z
" style="fill: #ffffff"/>
  </g>
  <g id="axes_1">
   <g id="patch_2">
    <path d="M 38.420552 398.64351 
L 561.866948 398.64351 
L 561.866948 18.118365 
L 38.420552 18.118365 
L 38.420552 398.64351 
z
" style="fill: none; opacity: 0"/>
   </g>
   <g id="patch_3">
    <path d="M 38.420552 373.604142 
L 38.420552 43.157733 
" style="fill: none; stroke: #000000; stroke-width: 0.8; stroke-linejoin: miter; stroke-linecap: square"/>
   </g>
   <g id="LineCollection_1">
    <path d="M 182.565864 18.118365 
L 182.565864 398.64351 
" clip-path="url(#p20302d6f50)" style="fill: none; stroke-dasharray: 3.7,1.6; stroke-dashoffset: 0; stroke: #000000"/>
    <path d="M 213.084342 18.118365 
L 213.084342 398.64351 
" clip-path="url(#p20302d6f50)" style="fill: none; stroke-dasharray: 3.7,1.6; stroke-dashoffset: 0; stroke: #000000"/>
   </g>
   <g id="matplotlib.axis_1">
    <g id="xtick_1">
     <g id="line2d_1">
      <defs>
       <path id="m69c1c67be3" d="M 0 0 
L 0 3.5 
" style="stroke: #000000; stroke-width: 0.8"/>
      </defs>
      <g>
       <use xlink:href="#m69c1c67be3" x="38.693039" y="398.64351" style="stroke: #000000; stroke-width: 0.8"/>
      </g>
     </g>
     <g id="text_1">
      <!-- −0.20 -->
      <g transform="translate(23.370383 413.241947) scale(0.1 -0.1)">
       <defs>
        <path id="DejaVuSans-2212" d="M 678 2272 
L 4684 2272 
L 4684 1741 
L 678 1741 
L 678 2272 
z
" transform="scale(0.015625)"/>
        <path id="DejaVuSans-30" d="M 2034 4250 
Q 1547 4250 1301 3770 
Q 1056 3291 1056 2328 
Q 1056 1369 1301 889 
Q 1547 409 2034 409 
Q 2525 409 2770 889 
Q 3016 1369 3016 2328 
Q 3016 3291 2770 3770 
Q 2525 4250 2034 4250 
z
M 2034 4750 
Q 2819 4750 3233 4129 
Q 3647 3509 3647 2328 
Q 3647 1150 3233 529 
Q 2819 -91 2034 -91 
Q 1250 -91 836 529 
Q 422 1150 422 2328 
Q 422 3509 836 4129 
Q 1250 4750 2034 4750 
z
" transform="scale(0.015625)"/>
        <path id="DejaVuSans-2e" d="M 684 794 
L 1344 794 
L 1344 0 
L 684 0 
L 684 794 
z
" transform="scale(0.015625)"/>
        <path id="DejaVuSans-32" d="M 1228 531 
L 3431 531 
L 3431 0 
L 469 0 
L 469 531 
Q 828 903 1448 1529 
Q 2069 2156 2228 2338 
Q 2531 2678 2651 2914 
Q 2772 3150 2772 3378 
Q 2772 3750 2511 3984 
Q 2250 4219 1831 4219 
Q 1534 4219 1204 4116 
Q 875 4013 500 3803 
L 500 4441 
Q 881 4594 1212 4672 
Q 1544 4750 1819 4750 
Q 2544 4750 2975 4387 
Q 3406 4025 3406 3419 
Q 3406 3131 3298 2873 
Q 3191 2616 2906 2266 
Q 2828 2175 2409 1742 
Q 1991 1309 1228 531 
z
" transform="scale(0.015625)"/>
       </defs>
       <use xlink:href="#DejaVuSans-2212"/>
       <use xlink:href="#DejaVuSans-30" transform="translate(83.789062 0)"/>
       <use xlink:href="#DejaVuSans-2e" transform="translate(147.412109 0)"/>
       <use xlink:href="#DejaVuSans-32" transform="translate(179.199219 0)"/>
       <use xlink:href="#DejaVuSans-30" transform="translate(242.822266 0)"/>
      </g>
     </g>
    </g>
    <g id="xtick_2">
     <g id="line2d_2">
      <g>
       <use xlink:href="#m69c1c67be3" x="125.88869" y="398.64351" style="stroke: #000000; stroke-width: 0.8"/>
      </g>
     </g>
     <g id="text_2">
      <!-- 0.00 -->
      <g transform="translate(114.755878 413.241947) scale(0.1 -0.1)">
       <use xlink:href="#DejaVuSans-30"/>
       <use xlink:href="#DejaVuSans-2e" transform="translate(63.623047 0)"/>
       <use xlink:href="#DejaVuSans-30" transform="translate(95.410156 0)"/>
       <use xlink:href="#DejaVuSans-30" transform="translate(159.033203 0)"/>
      </g>
     </g>
    </g>
    <g id="xtick_3">
     <g id="line2d_3">
      <g>
       <use xlink:href="#m69c1c67be3" x="182.565864" y="398.64351" style="stroke: #000000; stroke-width: 0.8"/>
      </g>
     </g>
     <g id="text_3">
      <!-- 0.13 -->
      <g transform="translate(171.433051 413.241947) scale(0.1 -0.1)">
       <defs>
        <path id="DejaVuSans-31" d="M 794 531 
L 1825 531 
L 1825 4091 
L 703 3866 
L 703 4441 
L 1819 4666 
L 2450 4666 
L 2450 531 
L 3481 531 
L 3481 0 
L 794 0 
L 794 531 
z
" transform="scale(0.015625)"/>
        <path id="DejaVuSans-33" d="M 2597 2516 
Q 3050 2419 3304 2112 
Q 3559 1806 3559 1356 
Q 3559 666 3084 287 
Q 2609 -91 1734 -91 
Q 1441 -91 1130 -33 
Q 819 25 488 141 
L 488 750 
Q 750 597 1062 519 
Q 1375 441 1716 441 
Q 2309 441 2620 675 
Q 2931 909 2931 1356 
Q 2931 1769 2642 2001 
Q 2353 2234 1838 2234 
L 1294 2234 
L 1294 2753 
L 1863 2753 
Q 2328 2753 2575 2939 
Q 2822 3125 2822 3475 
Q 2822 3834 2567 4026 
Q 2313 4219 1838 4219 
Q 1578 4219 1281 4162 
Q 984 4106 628 3988 
L 628 4550 
Q 988 4650 1302 4700 
Q 1616 4750 1894 4750 
Q 2613 4750 3031 4423 
Q 3450 4097 3450 3541 
Q 3450 3153 3228 2886 
Q 3006 2619 2597 2516 
z
" transform="scale(0.015625)"/>
       </defs>
       <use xlink:href="#DejaVuSans-30"/>
       <use xlink:href="#DejaVuSans-2e" transform="translate(63.623047 0)"/>
       <use xlink:href="#DejaVuSans-31" transform="translate(95.410156 0)"/>
       <use xlink:href="#DejaVuSans-33" transform="translate(159.033203 0)"/>
      </g>
     </g>
    </g>
    <g id="xtick_4">
     <g id="line2d_4">
      <g>
       <use xlink:href="#m69c1c67be3" x="213.084342" y="398.64351" style="stroke: #000000; stroke-width: 0.8"/>
      </g>
     </g>
     <g id="text_4">
      <!-- 0.20 -->
      <g transform="translate(201.951529 413.241947) scale(0.1 -0.1)">
       <use xlink:href="#DejaVuSans-30"/>
       <use xlink:href="#DejaVuSans-2e" transform="translate(63.623047 0)"/>
       <use xlink:href="#DejaVuSans-32" transform="translate(95.410156 0)"/>
       <use xlink:href="#DejaVuSans-30" transform="translate(159.033203 0)"/>
      </g>
     </g>
    </g>
    <g id="xtick_5">
     <g id="line2d_5">
      <g>
       <use xlink:href="#m69c1c67be3" x="213.084342" y="398.64351" style="stroke: #000000; stroke-width: 0.8"/>
      </g>
     </g>
     <g id="text_5">
      <!-- 0.20 -->
      <g transform="translate(201.951529 413.241947) scale(0.1 -0.1)">
       <use xlink:href="#DejaVuSans-30"/>
       <use xlink:href="#DejaVuSans-2e" transform="translate(63.623047 0)"/>
       <use xlink:href="#DejaVuSans-32" transform="translate(95.410156 0)"/>
       <use xlink:href="#DejaVuSans-30" transform="translate(159.033203 0)"/>
      </g>
     </g>
    </g>
    <g id="xtick_6">
     <g id="line2d_6">
      <g>
       <use xlink:href="#m69c1c67be3" x="300.279993" y="398.64351" style="stroke: #000000; stroke-width: 0.8"/>
      </g>
     </g>
     <g id="text_6">
      <!-- 0.40 -->
      <g transform="translate(289.147181 413.241947) scale(0.1 -0.1)">
       <defs>
        <path id="DejaVuSans-34" d="M 2419 4116 
L 825 1625 
L 2419 1625 
L 2419 4116 
z
M 2253 4666 
L 3047 4666 
L 3047 1625 
L 3713 1625 
L 3713 1100 
L 3047 1100 
L 3047 0 
L 2419 0 
L 2419 1100 
L 313 1100 
L 313 1709 
L 2253 4666 
z
" transform="scale(0.015625)"/>
       </defs>
       <use xlink:href="#DejaVuSans-30"/>
       <use xlink:href="#DejaVuSans-2e" transform="translate(63.623047 0)"/>
       <use xlink:href="#DejaVuSans-34" transform="translate(95.410156 0)"/>
       <use xlink:href="#DejaVuSans-30" transform="translate(159.033203 0)"/>
      </g>
     </g>
    </g>
    <g id="xtick_7">
     <g id="line2d_7">
      <g>
       <use xlink:href="#m69c1c67be3" x="387.475645" y="398.64351" style="stroke: #000000; stroke-width: 0.8"/>
      </g>
     </g>
     <g id="text_7">
      <!-- 0.60 -->
      <g transform="translate(376.342832 413.241947) scale(0.1 -0.1)">
       <defs>
        <path id="DejaVuSans-36" d="M 2113 2584 
Q 1688 2584 1439 2293 
Q 1191 2003 1191 1497 
Q 1191 994 1439 701 
Q 1688 409 2113 409 
Q 2538 409 2786 701 
Q 3034 994 3034 1497 
Q 3034 2003 2786 2293 
Q 2538 2584 2113 2584 
z
M 3366 4563 
L 3366 3988 
Q 3128 4100 2886 4159 
Q 2644 4219 2406 4219 
Q 1781 4219 1451 3797 
Q 1122 3375 1075 2522 
Q 1259 2794 1537 2939 
Q 1816 3084 2150 3084 
Q 2853 3084 3261 2657 
Q 3669 2231 3669 1497 
Q 3669 778 3244 343 
Q 2819 -91 2113 -91 
Q 1303 -91 875 529 
Q 447 1150 447 2328 
Q 447 3434 972 4092 
Q 1497 4750 2381 4750 
Q 2619 4750 2861 4703 
Q 3103 4656 3366 4563 
z
" transform="scale(0.015625)"/>
       </defs>
       <use xlink:href="#DejaVuSans-30"/>
       <use xlink:href="#DejaVuSans-2e" transform="translate(63.623047 0)"/>
       <use xlink:href="#DejaVuSans-36" transform="translate(95.410156 0)"/>
       <use xlink:href="#DejaVuSans-30" transform="translate(159.033203 0)"/>
      </g>
     </g>
    </g>
    <g id="xtick_8">
     <g id="line2d_8">
      <g>
       <use xlink:href="#m69c1c67be3" x="474.671296" y="398.64351" style="stroke: #000000; stroke-width: 0.8"/>
      </g>
     </g>
     <g id="text_8">
      <!-- 0.80 -->
      <g transform="translate(463.538484 413.241947) scale(0.1 -0.1)">
       <defs>
        <path id="DejaVuSans-38" d="M 2034 2216 
Q 1584 2216 1326 1975 
Q 1069 1734 1069 1313 
Q 1069 891 1326 650 
Q 1584 409 2034 409 
Q 2484 409 2743 651 
Q 3003 894 3003 1313 
Q 3003 1734 2745 1975 
Q 2488 2216 2034 2216 
z
M 1403 2484 
Q 997 2584 770 2862 
Q 544 3141 544 3541 
Q 544 4100 942 4425 
Q 1341 4750 2034 4750 
Q 2731 4750 3128 4425 
Q 3525 4100 3525 3541 
Q 3525 3141 3298 2862 
Q 3072 2584 2669 2484 
Q 3125 2378 3379 2068 
Q 3634 1759 3634 1313 
Q 3634 634 3220 271 
Q 2806 -91 2034 -91 
Q 1263 -91 848 271 
Q 434 634 434 1313 
Q 434 1759 690 2068 
Q 947 2378 1403 2484 
z
M 1172 3481 
Q 1172 3119 1398 2916 
Q 1625 2713 2034 2713 
Q 2441 2713 2670 2916 
Q 2900 3119 2900 3481 
Q 2900 3844 2670 4047 
Q 2441 4250 2034 4250 
Q 1625 4250 1398 4047 
Q 1172 3844 1172 3481 
z
" transform="scale(0.015625)"/>
       </defs>
       <use xlink:href="#DejaVuSans-30"/>
       <use xlink:href="#DejaVuSans-2e" transform="translate(63.623047 0)"/>
       <use xlink:href="#DejaVuSans-38" transform="translate(95.410156 0)"/>
       <use xlink:href="#DejaVuSans-30" transform="translate(159.033203 0)"/>
      </g>
     </g>
    </g>
    <g id="xtick_9">
     <g id="line2d_9">
      <g>
       <use xlink:href="#m69c1c67be3" x="561.866948" y="398.64351" style="stroke: #000000; stroke-width: 0.8"/>
      </g>
     </g>
     <g id="text_9">
      <!-- 1.00 -->
      <g transform="translate(550.734135 413.241947) scale(0.1 -0.1)">
       <use xlink:href="#DejaVuSans-31"/>
       <use xlink:href="#DejaVuSans-2e" transform="translate(63.623047 0)"/>
       <use xlink:href="#DejaVuSans-30" transform="translate(95.410156 0)"/>
       <use xlink:href="#DejaVuSans-30" transform="translate(159.033203 0)"/>
      </g>
     </g>
    </g>
    <g id="text_10">
     <!-- Time (s) -->
     <g transform="translate(279.814844 426.920073) scale(0.1 -0.1)">
      <defs>
       <path id="DejaVuSans-54" d="M -19 4666 
L 3928 4666 
L 3928 4134 
L 2272 4134 
L 2272 0 
L 1638 0 
L 1638 4134 
L -19 4134 
L -19 4666 
z
" transform="scale(0.015625)"/>
       <path id="DejaVuSans-69" d="M 603 3500 
L 1178 3500 
L 1178 0 
L 603 0 
L 603 3500 
z
M 603 4863 
L 1178 4863 
L 1178 4134 
L 603 4134 
L 603 4863 
z
" transform="scale(0.015625)"/>
       <path id="DejaVuSans-6d" d="M 3328 2828 
Q 3544 3216 3844 3400 
Q 4144 3584 4550 3584 
Q 5097 3584 5394 3201 
Q 5691 2819 5691 2113 
L 5691 0 
L 5113 0 
L 5113 2094 
Q 5113 2597 4934 2840 
Q 4756 3084 4391 3084 
Q 3944 3084 3684 2787 
Q 3425 2491 3425 1978 
L 3425 0 
L 2847 0 
L 2847 2094 
Q 2847 2600 2669 2842 
Q 2491 3084 2119 3084 
Q 1678 3084 1418 2786 
Q 1159 2488 1159 1978 
L 1159 0 
L 581 0 
L 581 3500 
L 1159 3500 
L 1159 2956 
Q 1356 3278 1631 3431 
Q 1906 3584 2284 3584 
Q 2666 3584 2933 3390 
Q 3200 3197 3328 2828 
z
" transform="scale(0.015625)"/>
       <path id="DejaVuSans-65" d="M 3597 1894 
L 3597 1613 
L 953 1613 
Q 991 1019 1311 708 
Q 1631 397 2203 397 
Q 2534 397 2845 478 
Q 3156 559 3463 722 
L 3463 178 
Q 3153 47 2828 -22 
Q 2503 -91 2169 -91 
Q 1331 -91 842 396 
Q 353 884 353 1716 
Q 353 2575 817 3079 
Q 1281 3584 2069 3584 
Q 2775 3584 3186 3129 
Q 3597 2675 3597 1894 
z
M 3022 2063 
Q 3016 2534 2758 2815 
Q 2500 3097 2075 3097 
Q 1594 3097 1305 2825 
Q 1016 2553 972 2059 
L 3022 2063 
z
" transform="scale(0.015625)"/>
       <path id="DejaVuSans-20" transform="scale(0.015625)"/>
       <path id="DejaVuSans-28" d="M 1984 4856 
Q 1566 4138 1362 3434 
Q 1159 2731 1159 2009 
Q 1159 1288 1364 580 
Q 1569 -128 1984 -844 
L 1484 -844 
Q 1016 -109 783 600 
Q 550 1309 550 2009 
Q 550 2706 781 3412 
Q 1013 4119 1484 4856 
L 1984 4856 
z
" transform="scale(0.015625)"/>
       <path id="DejaVuSans-73" d="M 2834 3397 
L 2834 2853 
Q 2591 2978 2328 3040 
Q 2066 3103 1784 3103 
Q 1356 3103 1142 2972 
Q 928 2841 928 2578 
Q 928 2378 1081 2264 
Q 1234 2150 1697 2047 
L 1894 2003 
Q 2506 1872 2764 1633 
Q 3022 1394 3022 966 
Q 3022 478 2636 193 
Q 2250 -91 1575 -91 
Q 1294 -91 989 -36 
Q 684 19 347 128 
L 347 722 
Q 666 556 975 473 
Q 1284 391 1588 391 
Q 1994 391 2212 530 
Q 2431 669 2431 922 
Q 2431 1156 2273 1281 
Q 2116 1406 1581 1522 
L 1381 1569 
Q 847 1681 609 1914 
Q 372 2147 372 2553 
Q 372 3047 722 3315 
Q 1072 3584 1716 3584 
Q 2034 3584 2315 3537 
Q 2597 3491 2834 3397 
z
" transform="scale(0.015625)"/>
       <path id="DejaVuSans-29" d="M 513 4856 
L 1013 4856 
Q 1481 4119 1714 3412 
Q 1947 2706 1947 2009 
Q 1947 1309 1714 600 
Q 1481 -109 1013 -844 
L 513 -844 
Q 928 -128 1133 580 
Q 1338 1288 1338 2009 
Q 1338 2731 1133 3434 
Q 928 4138 513 4856 
z
" transform="scale(0.015625)"/>
      </defs>
      <use xlink:href="#DejaVuSans-54"/>
      <use xlink:href="#DejaVuSans-69" transform="translate(57.958984 0)"/>
      <use xlink:href="#DejaVuSans-6d" transform="translate(85.742188 0)"/>
      <use xlink:href="#DejaVuSans-65" transform="translate(183.154297 0)"/>
      <use xlink:href="#DejaVuSans-20" transform="translate(244.677734 0)"/>
      <use xlink:href="#DejaVuSans-28" transform="translate(276.464844 0)"/>
      <use xlink:href="#DejaVuSans-73" transform="translate(315.478516 0)"/>
      <use xlink:href="#DejaVuSans-29" transform="translate(367.578125 0)"/>
     </g>
    </g>
   </g>
   <g id="matplotlib.axis_2">
    <g id="ytick_1">
     <g id="line2d_10">
      <defs>
       <path id="m9c41338ded" d="M 0 0 
L -3.5 0 
" style="stroke: #000000; stroke-width: 0.8"/>
      </defs>
      <g>
       <use xlink:href="#m9c41338ded" x="38.420552" y="373.604142" style="stroke: #000000; stroke-width: 0.8"/>
      </g>
     </g>
     <g id="text_11">
      <!-- −6 -->
      <g transform="translate(16.678365 377.403361) scale(0.1 -0.1)">
       <use xlink:href="#DejaVuSans-2212"/>
       <use xlink:href="#DejaVuSans-36" transform="translate(83.789062 0)"/>
      </g>
     </g>
    </g>
    <g id="ytick_2">
     <g id="line2d_11">
      <g>
       <use xlink:href="#m9c41338ded" x="38.420552" y="318.529741" style="stroke: #000000; stroke-width: 0.8"/>
      </g>
     </g>
     <g id="text_12">
      <!-- −4 -->
      <g transform="translate(16.678365 322.328959) scale(0.1 -0.1)">
       <use xlink:href="#DejaVuSans-2212"/>
       <use xlink:href="#DejaVuSans-34" transform="translate(83.789062 0)"/>
      </g>
     </g>
    </g>
    <g id="ytick_3">
     <g id="line2d_12">
      <g>
       <use xlink:href="#m9c41338ded" x="38.420552" y="263.455339" style="stroke: #000000; stroke-width: 0.8"/>
      </g>
     </g>
     <g id="text_13">
      <!-- −2 -->
      <g transform="translate(16.678365 267.254558) scale(0.1 -0.1)">
       <use xlink:href="#DejaVuSans-2212"/>
       <use xlink:href="#DejaVuSans-32" transform="translate(83.789062 0)"/>
      </g>
     </g>
    </g>
    <g id="ytick_4">
     <g id="line2d_13">
      <g>
       <use xlink:href="#m9c41338ded" x="38.420552" y="208.380937" style="stroke: #000000; stroke-width: 0.8"/>
      </g>
     </g>
     <g id="text_14">
      <!-- 0 -->
      <g transform="translate(25.058052 212.180156) scale(0.1 -0.1)">
       <use xlink:href="#DejaVuSans-30"/>
      </g>
     </g>
    </g>
    <g id="ytick_5">
     <g id="line2d_14">
      <g>
       <use xlink:href="#m9c41338ded" x="38.420552" y="153.306536" style="stroke: #000000; stroke-width: 0.8"/>
      </g>
     </g>
     <g id="text_15">
      <!-- 2 -->
      <g transform="translate(25.058052 157.105755) scale(0.1 -0.1)">
       <use xlink:href="#DejaVuSans-32"/>
      </g>
     </g>
    </g>
    <g id="ytick_6">
     <g id="line2d_15">
      <g>
       <use xlink:href="#m9c41338ded" x="38.420552" y="98.232134" style="stroke: #000000; stroke-width: 0.8"/>
      </g>
     </g>
     <g id="text_16">
      <!-- 4 -->
      <g transform="translate(25.058052 102.031353) scale(0.1 -0.1)">
       <use xlink:href="#DejaVuSans-34"/>
      </g>
     </g>
    </g>
    <g id="ytick_7">
     <g id="line2d_16">
      <g>
       <use xlink:href="#m9c41338ded" x="38.420552" y="43.157733" style="stroke: #000000; stroke-width: 0.8"/>
      </g>
     </g>
     <g id="text_17">
      <!-- 6 -->
      <g transform="translate(25.058052 46.956952) scale(0.1 -0.1)">
       <use xlink:href="#DejaVuSans-36"/>
      </g>
     </g>
    </g>
    <g id="text_18">
     <!-- µV -->
     <g transform="translate(10.598677 214.9825) rotate(-90) scale(0.1 -0.1)">
      <defs>
       <path id="DejaVuSans-b5" d="M 544 -1331 
L 544 3500 
L 1119 3500 
L 1119 1325 
Q 1119 872 1334 640 
Q 1550 409 1972 409 
Q 2434 409 2667 671 
Q 2900 934 2900 1459 
L 2900 3500 
L 3475 3500 
L 3475 806 
Q 3475 619 3529 530 
Q 3584 441 3700 441 
Q 3728 441 3778 458 
Q 3828 475 3916 513 
L 3916 50 
Q 3788 -22 3673 -56 
Q 3559 -91 3450 -91 
Q 3234 -91 3106 31 
Q 2978 153 2931 403 
Q 2775 156 2548 32 
Q 2322 -91 2016 -91 
Q 1697 -91 1473 31 
Q 1250 153 1119 397 
L 1119 -1331 
L 544 -1331 
z
" transform="scale(0.015625)"/>
       <path id="DejaVuSans-56" d="M 1831 0 
L 50 4666 
L 709 4666 
L 2188 738 
L 3669 4666 
L 4325 4666 
L 2547 0 
L 1831 0 
z
" transform="scale(0.015625)"/>
      </defs>
      <use xlink:href="#DejaVuSans-b5"/>
      <use xlink:href="#DejaVuSans-56" transform="translate(63.623047 0)"/>
     </g>
    </g>
   </g>
   <g id="patch_4">
    <path d="M 38.693039 398.64351 
L 561.866948 398.64351 
" style="fill: none; stroke: #000000; stroke-width: 0.8; stroke-linejoin: miter; stroke-linecap: square"/>
   </g>
   <g id="patch_5">
    <path d="M 38.420552 208.380937 
L 561.866948 208.380937 
" style="fill: none; stroke: #000000; stroke-width: 0.8; stroke-linejoin: miter; stroke-linecap: square"/>
   </g>
   <g id="text_19">
    <!-- P7, P8 (median) -->
    <g transform="translate(252.379063 12.118365) scale(0.12 -0.12)">
     <defs>
      <path id="DejaVuSans-50" d="M 1259 4147 
L 1259 2394 
L 2053 2394 
Q 2494 2394 2734 2622 
Q 2975 2850 2975 3272 
Q 2975 3691 2734 3919 
Q 2494 4147 2053 4147 
L 1259 4147 
z
M 628 4666 
L 2053 4666 
Q 2838 4666 3239 4311 
Q 3641 3956 3641 3272 
Q 3641 2581 3239 2228 
Q 2838 1875 2053 1875 
L 1259 1875 
L 1259 0 
L 628 0 
L 628 4666 
z
" transform="scale(0.015625)"/>
      <path id="DejaVuSans-37" d="M 525 4666 
L 3525 4666 
L 3525 4397 
L 1831 0 
L 1172 0 
L 2766 4134 
L 525 4134 
L 525 4666 
z
" transform="scale(0.015625)"/>
      <path id="DejaVuSans-2c" d="M 750 794 
L 1409 794 
L 1409 256 
L 897 -744 
L 494 -744 
L 750 256 
L 750 794 
z
" transform="scale(0.015625)"/>
      <path id="DejaVuSans-64" d="M 2906 2969 
L 2906 4863 
L 3481 4863 
L 3481 0 
L 2906 0 
L 2906 525 
Q 2725 213 2448 61 
Q 2172 -91 1784 -91 
Q 1150 -91 751 415 
Q 353 922 353 1747 
Q 353 2572 751 3078 
Q 1150 3584 1784 3584 
Q 2172 3584 2448 3432 
Q 2725 3281 2906 2969 
z
M 947 1747 
Q 947 1113 1208 752 
Q 1469 391 1925 391 
Q 2381 391 2643 752 
Q 2906 1113 2906 1747 
Q 2906 2381 2643 2742 
Q 2381 3103 1925 3103 
Q 1469 3103 1208 2742 
Q 947 2381 947 1747 
z
" transform="scale(0.015625)"/>
      <path id="DejaVuSans-61" d="M 2194 1759 
Q 1497 1759 1228 1600 
Q 959 1441 959 1056 
Q 959 750 1161 570 
Q 1363 391 1709 391 
Q 2188 391 2477 730 
Q 2766 1069 2766 1631 
L 2766 1759 
L 2194 1759 
z
M 3341 1997 
L 3341 0 
L 2766 0 
L 2766 531 
Q 2569 213 2275 61 
Q 1981 -91 1556 -91 
Q 1019 -91 701 211 
Q 384 513 384 1019 
Q 384 1609 779 1909 
Q 1175 2209 1959 2209 
L 2766 2209 
L 2766 2266 
Q 2766 2663 2505 2880 
Q 2244 3097 1772 3097 
Q 1472 3097 1187 3025 
Q 903 2953 641 2809 
L 641 3341 
Q 956 3463 1253 3523 
Q 1550 3584 1831 3584 
Q 2591 3584 2966 3190 
Q 3341 2797 3341 1997 
z
" transform="scale(0.015625)"/>
      <path id="DejaVuSans-6e" d="M 3513 2113 
L 3513 0 
L 2938 0 
L 2938 2094 
Q 2938 2591 2744 2837 
Q 2550 3084 2163 3084 
Q 1697 3084 1428 2787 
Q 1159 2491 1159 1978 
L 1159 0 
L 581 0 
L 581 3500 
L 1159 3500 
L 1159 2956 
Q 1366 3272 1645 3428 
Q 1925 3584 2291 3584 
Q 2894 3584 3203 3211 
Q 3513 2838 3513 2113 
z
" transform="scale(0.015625)"/>
     </defs>
     <use xlink:href="#DejaVuSans-50"/>
     <use xlink:href="#DejaVuSans-37" transform="translate(60.302734 0)"/>
     <use xlink:href="#DejaVuSans-2c" transform="translate(123.925781 0)"/>
     <use xlink:href="#DejaVuSans-20" transform="translate(155.712891 0)"/>
     <use xlink:href="#DejaVuSans-50" transform="translate(187.5 0)"/>
     <use xlink:href="#DejaVuSans-38" transform="translate(247.802734 0)"/>
     <use xlink:href="#DejaVuSans-20" transform="translate(311.425781 0)"/>
     <use xlink:href="#DejaVuSans-28" transform="translate(343.212891 0)"/>
     <use xlink:href="#DejaVuSans-6d" transform="translate(382.226562 0)"/>
     <use xlink:href="#DejaVuSans-65" transform="translate(479.638672 0)"/>
     <use xlink:href="#DejaVuSans-64" transform="translate(541.162109 0)"/>
     <use xlink:href="#DejaVuSans-69" transform="translate(604.638672 0)"/>
     <use xlink:href="#DejaVuSans-61" transform="translate(632.421875 0)"/>
     <use xlink:href="#DejaVuSans-6e" transform="translate(693.701172 0)"/>
     <use xlink:href="#DejaVuSans-29" transform="translate(757.080078 0)"/>
    </g>
   </g>
   <g id="legend_1">
    <g id="patch_6">
     <path d="M 45.420552 55.75274 
L 126.56274 55.75274 
Q 128.56274 55.75274 128.56274 53.75274 
L 128.56274 25.118365 
Q 128.56274 23.118365 126.56274 23.118365 
L 45.420552 23.118365 
Q 43.420552 23.118365 43.420552 25.118365 
L 43.420552 53.75274 
Q 43.420552 55.75274 45.420552 55.75274 
z
" style="fill: #ffffff; opacity: 0.8; stroke: #cccccc; stroke-linejoin: miter"/>
    </g>
    <g id="line2d_17">
     <path d="M 47.420552 31.216803 
L 57.420552 31.216803 
L 67.420552 31.216803 
" style="fill: none; stroke: #1f77b4; stroke-width: 1.5; stroke-linecap: square"/>
    </g>
    <g id="text_20">
     <!-- eerie -->
     <g transform="translate(75.420552 34.716803) scale(0.1 -0.1)">
      <defs>
       <path id="DejaVuSans-72" d="M 2631 2963 
Q 2534 3019 2420 3045 
Q 2306 3072 2169 3072 
Q 1681 3072 1420 2755 
Q 1159 2438 1159 1844 
L 1159 0 
L 581 0 
L 581 3500 
L 1159 3500 
L 1159 2956 
Q 1341 3275 1631 3429 
Q 1922 3584 2338 3584 
Q 2397 3584 2469 3576 
Q 2541 3569 2628 3553 
L 2631 2963 
z
" transform="scale(0.015625)"/>
      </defs>
      <use xlink:href="#DejaVuSans-65"/>
      <use xlink:href="#DejaVuSans-65" transform="translate(61.523438 0)"/>
      <use xlink:href="#DejaVuSans-72" transform="translate(123.046875 0)"/>
      <use xlink:href="#DejaVuSans-69" transform="translate(164.160156 0)"/>
      <use xlink:href="#DejaVuSans-65" transform="translate(191.943359 0)"/>
     </g>
    </g>
    <g id="line2d_18">
     <path d="M 47.420552 45.894928 
L 57.420552 45.894928 
L 67.420552 45.894928 
" style="fill: none; stroke: #ff7f0e; stroke-width: 1.5; stroke-linecap: square"/>
    </g>
    <g id="text_21">
     <!-- non_eerie -->
     <g transform="translate(75.420552 49.394928) scale(0.1 -0.1)">
      <defs>
       <path id="DejaVuSans-6f" d="M 1959 3097 
Q 1497 3097 1228 2736 
Q 959 2375 959 1747 
Q 959 1119 1226 758 
Q 1494 397 1959 397 
Q 2419 397 2687 759 
Q 2956 1122 2956 1747 
Q 2956 2369 2687 2733 
Q 2419 3097 1959 3097 
z
M 1959 3584 
Q 2709 3584 3137 3096 
Q 3566 2609 3566 1747 
Q 3566 888 3137 398 
Q 2709 -91 1959 -91 
Q 1206 -91 779 398 
Q 353 888 353 1747 
Q 353 2609 779 3096 
Q 1206 3584 1959 3584 
z
" transform="scale(0.015625)"/>
       <path id="DejaVuSans-5f" d="M 3263 -1063 
L 3263 -1509 
L -63 -1509 
L -63 -1063 
L 3263 -1063 
z
" transform="scale(0.015625)"/>
      </defs>
      <use xlink:href="#DejaVuSans-6e"/>
      <use xlink:href="#DejaVuSans-6f" transform="translate(63.378906 0)"/>
      <use xlink:href="#DejaVuSans-6e" transform="translate(124.560547 0)"/>
      <use xlink:href="#DejaVuSans-5f" transform="translate(187.939453 0)"/>
      <use xlink:href="#DejaVuSans-65" transform="translate(237.939453 0)"/>
      <use xlink:href="#DejaVuSans-65" transform="translate(299.462891 0)"/>
      <use xlink:href="#DejaVuSans-72" transform="translate(360.986328 0)"/>
      <use xlink:href="#DejaVuSans-69" transform="translate(402.099609 0)"/>
      <use xlink:href="#DejaVuSans-65" transform="translate(429.882812 0)"/>
     </g>
    </g>
   </g>
   <g id="FillBetweenPolyCollection_1">
    <defs>
     <path id="m42f803ad71" d="M 38.420552 -291.093326 
L 38.420552 -277.338844 
L 40.123593 -284.956352 
L 41.826633 -282.839132 
L 43.529673 -273.306676 
L 45.232713 -260.466522 
L 46.935753 -251.479106 
L 48.638793 -249.523 
L 50.341833 -253.042727 
L 52.044873 -255.79994 
L 53.747913 -252.125135 
L 55.450953 -240.951826 
L 57.153993 -226.842175 
L 58.857033 -216.871345 
L 60.560073 -214.455083 
L 62.263113 -219.432631 
L 63.966154 -227.302494 
L 65.669194 -232.022915 
L 67.372234 -230.539539 
L 69.075274 -224.842757 
L 70.778314 -219.443701 
L 72.481354 -218.083409 
L 74.184394 -221.004795 
L 75.887434 -225.400171 
L 77.590474 -228.505801 
L 79.293514 -228.572108 
L 80.996554 -226.810597 
L 82.699594 -225.235732 
L 84.402634 -225.289954 
L 86.105674 -227.142478 
L 87.808714 -228.779068 
L 89.511755 -227.619145 
L 91.214795 -222.605501 
L 92.917835 -213.95797 
L 94.620875 -204.451248 
L 96.323915 -196.589284 
L 98.026955 -192.111128 
L 99.729995 -191.657143 
L 101.433035 -194.343668 
L 103.136075 -197.752969 
L 104.839115 -198.949768 
L 106.542155 -197.051879 
L 108.245195 -192.611942 
L 109.948235 -188.141581 
L 111.651275 -186.431718 
L 113.354315 -188.158299 
L 115.057356 -191.584743 
L 116.760396 -193.889498 
L 118.463436 -192.268374 
L 120.166476 -186.25308 
L 121.869516 -178.155358 
L 123.572556 -171.231857 
L 125.275596 -168.116332 
L 126.978636 -169.47552 
L 128.681676 -172.988762 
L 130.384716 -175.835743 
L 132.087756 -175.47426 
L 133.790796 -172.410521 
L 135.493836 -167.536292 
L 137.196876 -163.234914 
L 138.899916 -159.40182 
L 140.602957 -155.864323 
L 142.305997 -152.881095 
L 144.009037 -151.795984 
L 145.712077 -152.890464 
L 147.415117 -155.77091 
L 149.118157 -158.868156 
L 150.821197 -160.003914 
L 152.524237 -158.03698 
L 154.227277 -154.569771 
L 155.930317 -152.385619 
L 157.633357 -153.995419 
L 159.336397 -160.415814 
L 161.039437 -170.269518 
L 162.742477 -180.331254 
L 164.445517 -189.710577 
L 166.148558 -199.100406 
L 167.851598 -210.852849 
L 169.554638 -226.959427 
L 171.257678 -246.733268 
L 172.960718 -267.938865 
L 174.663758 -287.633033 
L 176.366798 -304.853254 
L 178.069838 -320.669033 
L 179.772878 -336.725334 
L 181.475918 -353.078376 
L 183.178958 -368.445561 
L 184.881998 -378.551089 
L 186.585038 -380.152547 
L 188.288078 -371.624176 
L 189.991118 -355.300434 
L 191.694159 -334.351288 
L 193.397199 -311.96302 
L 195.100239 -288.966945 
L 196.803279 -265.625097 
L 198.506319 -242.568415 
L 200.209359 -220.63343 
L 201.912399 -202.609651 
L 203.615439 -191.19952 
L 205.318479 -188.669067 
L 207.021519 -194.577801 
L 208.724559 -206.777648 
L 210.427599 -222.346288 
L 212.130639 -239.747077 
L 213.833679 -256.924763 
L 215.536719 -273.083619 
L 217.23976 -288.378684 
L 218.9428 -302.205272 
L 220.64584 -315.268779 
L 222.34888 -327.381066 
L 224.05192 -337.986007 
L 225.75496 -345.800531 
L 227.458 -350.010722 
L 229.16104 -350.829651 
L 230.86408 -349.103448 
L 232.56712 -346.371038 
L 234.27016 -343.587073 
L 235.9732 -339.867158 
L 237.67624 -334.112779 
L 239.37928 -324.917897 
L 241.08232 -311.961656 
L 242.785361 -296.837936 
L 244.488401 -282.161951 
L 246.191441 -271.020963 
L 247.894481 -265.601747 
L 249.597521 -263.869854 
L 251.300561 -263.50384 
L 253.003601 -260.80837 
L 254.706641 -254.261007 
L 256.409681 -244.856831 
L 258.112721 -235.351364 
L 259.815761 -229.204353 
L 261.518801 -228.680913 
L 263.221841 -233.451841 
L 264.924881 -239.942895 
L 266.627921 -243.646041 
L 268.330962 -242.541887 
L 270.034002 -237.435927 
L 271.737042 -231.211475 
L 273.440082 -228.656362 
L 275.143122 -232.392197 
L 276.846162 -240.719679 
L 278.549202 -249.868183 
L 280.252242 -255.449033 
L 281.955282 -255.934354 
L 283.658322 -252.047741 
L 285.361362 -247.44337 
L 287.064402 -244.474978 
L 288.767442 -244.134111 
L 290.470482 -246.174513 
L 292.173522 -247.631409 
L 293.876563 -246.893214 
L 295.579603 -244.41596 
L 297.282643 -240.815647 
L 298.985683 -237.775528 
L 300.688723 -235.070101 
L 302.391763 -231.890574 
L 304.094803 -226.482559 
L 305.797843 -218.756921 
L 307.500883 -210.161315 
L 309.203923 -203.092744 
L 310.906963 -199.399601 
L 312.610003 -200.713894 
L 314.313043 -207.103166 
L 316.016083 -216.873022 
L 317.719123 -226.493644 
L 319.422164 -232.073847 
L 321.125204 -230.697495 
L 322.828244 -222.092731 
L 324.531284 -209.453574 
L 326.234324 -199.038236 
L 327.937364 -195.102168 
L 329.640404 -198.959184 
L 331.343444 -208.224844 
L 333.046484 -217.288229 
L 334.749524 -221.025207 
L 336.452564 -217.08599 
L 338.155604 -208.177214 
L 339.858644 -199.491362 
L 341.561684 -194.954219 
L 343.264724 -195.248262 
L 344.967765 -197.873336 
L 346.670805 -199.258179 
L 348.373845 -198.555733 
L 350.076885 -196.967564 
L 351.779925 -197.308575 
L 353.482965 -201.368421 
L 355.186005 -207.346093 
L 356.889045 -213.096327 
L 358.592085 -215.962942 
L 360.295125 -215.608721 
L 361.998165 -214.925177 
L 363.701205 -216.257445 
L 365.404245 -220.200598 
L 367.107285 -224.93585 
L 368.810326 -227.305695 
L 370.513366 -225.408488 
L 372.216406 -220.293813 
L 373.919446 -215.567085 
L 375.622486 -214.355593 
L 377.325526 -217.112691 
L 379.028566 -222.533839 
L 380.731606 -227.937182 
L 382.434646 -230.992475 
L 384.137686 -231.634867 
L 385.840726 -231.303772 
L 387.543766 -230.954811 
L 389.246806 -230.860718 
L 390.949846 -229.725262 
L 392.652886 -227.233798 
L 394.355927 -224.309903 
L 396.058967 -222.580149 
L 397.762007 -223.931785 
L 399.465047 -227.981081 
L 401.168087 -232.340423 
L 402.871127 -232.930895 
L 404.574167 -227.916763 
L 406.277207 -218.039689 
L 407.980247 -206.40373 
L 409.683287 -197.728243 
L 411.386327 -195.005644 
L 413.089367 -197.956049 
L 414.792407 -203.265883 
L 416.495447 -207.523427 
L 418.198487 -209.022542 
L 419.901528 -208.477959 
L 421.604568 -207.790456 
L 423.307608 -208.257083 
L 425.010648 -209.571131 
L 426.713688 -209.41449 
L 428.416728 -206.277414 
L 430.119768 -201.278857 
L 431.822808 -196.826552 
L 433.525848 -196.493596 
L 435.228888 -201.828982 
L 436.931928 -210.350597 
L 438.634968 -217.607961 
L 440.338008 -219.445357 
L 442.041048 -214.620521 
L 443.744088 -204.906383 
L 445.447129 -193.912473 
L 447.150169 -186.165684 
L 448.853209 -182.686179 
L 450.556249 -182.680182 
L 452.259289 -184.190374 
L 453.962329 -185.660217 
L 455.665369 -187.718558 
L 457.368409 -190.243288 
L 459.071449 -193.914995 
L 460.774489 -197.309594 
L 462.477529 -198.990339 
L 464.180569 -198.167986 
L 465.883609 -195.565933 
L 467.586649 -192.707056 
L 469.289689 -192.096181 
L 470.99273 -193.136689 
L 472.69577 -193.671829 
L 474.39881 -192.085449 
L 476.10185 -186.567224 
L 477.80489 -178.819684 
L 479.50793 -170.920187 
L 481.21097 -166.004346 
L 482.91401 -164.199674 
L 484.61705 -163.754042 
L 486.32009 -161.662082 
L 488.02313 -156.601233 
L 489.72617 -150.235079 
L 491.42921 -146.776991 
L 493.13225 -148.620206 
L 494.83529 -157.392603 
L 496.538331 -168.864193 
L 498.241371 -178.199784 
L 499.944411 -180.652895 
L 501.647451 -177.311251 
L 503.350491 -171.218171 
L 505.053531 -167.055927 
L 506.756571 -168.172995 
L 508.459611 -174.051737 
L 510.162651 -181.487167 
L 511.865691 -186.599544 
L 513.568731 -187.070998 
L 515.271771 -183.719715 
L 516.974811 -178.253606 
L 518.677851 -172.708916 
L 520.380891 -167.987026 
L 522.083932 -164.286884 
L 523.786972 -161.724343 
L 525.490012 -160.819832 
L 527.193052 -162.073149 
L 528.896092 -164.465472 
L 530.599132 -166.434011 
L 532.302172 -166.761391 
L 534.005212 -164.990134 
L 535.708252 -162.139864 
L 537.411292 -160.952041 
L 539.114332 -163.175849 
L 540.817372 -168.002509 
L 542.520412 -172.396168 
L 544.223452 -173.603323 
L 545.926492 -170.13898 
L 547.629533 -163.088031 
L 549.332573 -156.133682 
L 551.035613 -152.49819 
L 552.738653 -153.083195 
L 554.441693 -155.928065 
L 556.144733 -158.926596 
L 557.847773 -158.647351 
L 559.550813 -154.726054 
L 561.253853 -148.346734 
L 561.253853 -165.441302 
L 561.253853 -165.441302 
L 559.550813 -171.422961 
L 557.847773 -174.188937 
L 556.144733 -173.416654 
L 554.441693 -170.105517 
L 552.738653 -167.077645 
L 551.035613 -167.32671 
L 549.332573 -171.062179 
L 547.629533 -177.853136 
L 545.926492 -184.331417 
L 544.223452 -188.029048 
L 542.520412 -187.777594 
L 540.817372 -184.084489 
L 539.114332 -179.495932 
L 537.411292 -177.144571 
L 535.708252 -177.81537 
L 534.005212 -180.235221 
L 532.302172 -182.421541 
L 530.599132 -182.139369 
L 528.896092 -180.20205 
L 527.193052 -177.615093 
L 525.490012 -176.908041 
L 523.786972 -178.228413 
L 522.083932 -181.182677 
L 520.380891 -185.181064 
L 518.677851 -190.183095 
L 516.974811 -195.623419 
L 515.271771 -200.40919 
L 513.568731 -203.029277 
L 511.865691 -201.580373 
L 510.162651 -196.213173 
L 508.459611 -188.830451 
L 506.756571 -183.258104 
L 505.053531 -182.347942 
L 503.350491 -186.99847 
L 501.647451 -193.578876 
L 499.944411 -197.520822 
L 498.241371 -194.736636 
L 496.538331 -185.696481 
L 494.83529 -173.917985 
L 493.13225 -165.234233 
L 491.42921 -163.329969 
L 489.72617 -167.024599 
L 488.02313 -173.248405 
L 486.32009 -178.062319 
L 484.61705 -179.989546 
L 482.91401 -180.277005 
L 481.21097 -181.940013 
L 479.50793 -186.961395 
L 477.80489 -195.064725 
L 476.10185 -203.915645 
L 474.39881 -209.35018 
L 472.69577 -210.739937 
L 470.99273 -209.249589 
L 469.289689 -207.40916 
L 467.586649 -208.059445 
L 465.883609 -210.698661 
L 464.180569 -213.430756 
L 462.477529 -214.422176 
L 460.774489 -212.609995 
L 459.071449 -208.854804 
L 457.368409 -204.889454 
L 455.665369 -201.990571 
L 453.962329 -200.215373 
L 452.259289 -199.033313 
L 450.556249 -198.618784 
L 448.853209 -199.500297 
L 447.150169 -203.684429 
L 445.447129 -211.726625 
L 443.744088 -222.355484 
L 442.041048 -231.833934 
L 440.338008 -236.315322 
L 438.634968 -233.934733 
L 436.931928 -226.281946 
L 435.228888 -217.34597 
L 433.525848 -211.232418 
L 431.822808 -210.953208 
L 430.119768 -214.99748 
L 428.416728 -220.432812 
L 426.713688 -224.2509 
L 425.010648 -224.888933 
L 423.307608 -223.783572 
L 421.604568 -222.870661 
L 419.901528 -223.305502 
L 418.198487 -223.84819 
L 416.495447 -223.040624 
L 414.792407 -219.287676 
L 413.089367 -214.395365 
L 411.386327 -211.916408 
L 409.683287 -214.487707 
L 407.980247 -222.856893 
L 406.277207 -234.466552 
L 404.574167 -245.274236 
L 402.871127 -250.495365 
L 401.168087 -249.832383 
L 399.465047 -245.307242 
L 397.762007 -240.473961 
L 396.058967 -238.99413 
L 394.355927 -240.471559 
L 392.652886 -243.184444 
L 390.949846 -245.225454 
L 389.246806 -246.148756 
L 387.543766 -246.378203 
L 385.840726 -247.12193 
L 384.137686 -247.976924 
L 382.434646 -247.219727 
L 380.731606 -243.919505 
L 379.028566 -238.505789 
L 377.325526 -233.250655 
L 375.622486 -230.978255 
L 373.919446 -232.869944 
L 372.216406 -238.185308 
L 370.513366 -242.863232 
L 368.810326 -243.876624 
L 367.107285 -241.059404 
L 365.404245 -236.258266 
L 363.701205 -232.244975 
L 361.998165 -230.808858 
L 360.295125 -230.779958 
L 358.592085 -230.191071 
L 356.889045 -227.255614 
L 355.186005 -221.482056 
L 353.482965 -215.393455 
L 351.779925 -212.185955 
L 350.076885 -212.332528 
L 348.373845 -214.28733 
L 346.670805 -215.242327 
L 344.967765 -213.671328 
L 343.264724 -211.410507 
L 341.561684 -211.395816 
L 339.858644 -215.752405 
L 338.155604 -224.61914 
L 336.452564 -233.247415 
L 334.749524 -237.521786 
L 333.046484 -234.588396 
L 331.343444 -225.808689 
L 329.640404 -215.85482 
L 327.937364 -211.202447 
L 326.234324 -214.409777 
L 324.531284 -224.642557 
L 322.828244 -236.485065 
L 321.125204 -245.427675 
L 319.422164 -247.494707 
L 317.719123 -242.501635 
L 316.016083 -233.172643 
L 314.313043 -223.211528 
L 312.610003 -216.255072 
L 310.906963 -214.815016 
L 309.203923 -218.910276 
L 307.500883 -226.767435 
L 305.797843 -235.908847 
L 304.094803 -243.452409 
L 302.391763 -248.614995 
L 300.688723 -251.849605 
L 298.985683 -254.036194 
L 297.282643 -256.561264 
L 295.579603 -259.643826 
L 293.876563 -262.405414 
L 292.173522 -263.906619 
L 290.470482 -263.589949 
L 288.767442 -261.905092 
L 287.064402 -261.110218 
L 285.361362 -263.208542 
L 283.658322 -267.326947 
L 281.955282 -271.277402 
L 280.252242 -271.78731 
L 278.549202 -267.050147 
L 276.846162 -258.700652 
L 275.143122 -250.595159 
L 273.440082 -246.701554 
L 271.737042 -248.064833 
L 270.034002 -253.413636 
L 268.330962 -258.320502 
L 266.627921 -259.778787 
L 264.924881 -256.581858 
L 263.221841 -250.862555 
L 261.518801 -246.125556 
L 259.815761 -245.315157 
L 258.112721 -250.145782 
L 256.409681 -259.163548 
L 254.706641 -269.144379 
L 253.003601 -276.414294 
L 251.300561 -279.774356 
L 249.597521 -280.636904 
L 247.894481 -282.335288 
L 246.191441 -287.439838 
L 244.488401 -297.218916 
L 242.785361 -311.089279 
L 241.08232 -326.855046 
L 239.37928 -340.332511 
L 237.67624 -349.448929 
L 235.9732 -354.520252 
L 234.27016 -357.771689 
L 232.56712 -360.524316 
L 230.86408 -363.234597 
L 229.16104 -365.097497 
L 227.458 -364.39835 
L 225.75496 -360.178019 
L 224.05192 -352.436946 
L 222.34888 -341.780187 
L 220.64584 -329.924836 
L 218.9428 -317.372767 
L 217.23976 -304.508794 
L 215.536719 -290.135055 
L 213.833679 -274.261128 
L 212.130639 -256.846338 
L 210.427599 -238.786233 
L 208.724559 -222.818 
L 207.021519 -211.021439 
L 205.318479 -205.978413 
L 203.615439 -208.715914 
L 201.912399 -219.448396 
L 200.209359 -237.013818 
L 198.506319 -259.00006 
L 196.803279 -282.911191 
L 195.100239 -306.040811 
L 193.397199 -328.359418 
L 191.694159 -349.619557 
L 189.991118 -369.356344 
L 188.288078 -384.521312 
L 186.585038 -392.988649 
L 184.881998 -391.972327 
L 183.178958 -382.414293 
L 181.475918 -367.392138 
L 179.772878 -350.238628 
L 178.069838 -333.845137 
L 176.366798 -318.217606 
L 174.663758 -301.114074 
L 172.960718 -281.321048 
L 171.257678 -260.202422 
L 169.554638 -240.231012 
L 167.851598 -223.951824 
L 166.148558 -211.725733 
L 164.445517 -201.935774 
L 162.742477 -192.421948 
L 161.039437 -182.046807 
L 159.336397 -172.420839 
L 157.633357 -165.692989 
L 155.930317 -163.615049 
L 154.227277 -166.276211 
L 152.524237 -170.454954 
L 150.821197 -173.364232 
L 149.118157 -172.635345 
L 147.415117 -169.60177 
L 145.712077 -166.588379 
L 144.009037 -165.314424 
L 142.305997 -166.193161 
L 140.602957 -169.011972 
L 138.899916 -172.43039 
L 137.196876 -176.61464 
L 135.493836 -181.177127 
L 133.790796 -185.411507 
L 132.087756 -187.89658 
L 130.384716 -187.80012 
L 128.681676 -185.077623 
L 126.978636 -181.436918 
L 125.275596 -179.80479 
L 123.572556 -182.700995 
L 121.869516 -189.371021 
L 120.166476 -197.076555 
L 118.463436 -202.469278 
L 116.760396 -203.113597 
L 115.057356 -199.991762 
L 113.354315 -196.632108 
L 111.651275 -195.946309 
L 109.948235 -199.259766 
L 108.245195 -204.527653 
L 106.542155 -208.926091 
L 104.839115 -210.480529 
L 103.136075 -208.49729 
L 101.433035 -204.510463 
L 99.729995 -201.260768 
L 98.026955 -201.086539 
L 96.323915 -205.633907 
L 94.620875 -213.522297 
L 92.917835 -223.123311 
L 91.214795 -231.359716 
L 89.511755 -236.423682 
L 87.808714 -237.700098 
L 86.105674 -236.285537 
L 84.402634 -234.476729 
L 82.699594 -234.244935 
L 80.996554 -236.232005 
L 79.293514 -238.516253 
L 77.590474 -238.826606 
L 75.887434 -235.443198 
L 74.184394 -230.999375 
L 72.481354 -228.565487 
L 70.778314 -230.132794 
L 69.075274 -235.025558 
L 67.372234 -240.027265 
L 65.669194 -241.473117 
L 63.966154 -237.268293 
L 62.263113 -229.935505 
L 60.560073 -224.984522 
L 58.857033 -227.382152 
L 57.153993 -237.866487 
L 55.450953 -251.76255 
L 53.747913 -262.286764 
L 52.044873 -266.067611 
L 50.341833 -263.733691 
L 48.638793 -260.439512 
L 46.935753 -262.054579 
L 45.232713 -270.986265 
L 43.529673 -284.458648 
L 41.826633 -295.563922 
L 40.123593 -298.10074 
L 38.420552 -291.093326 
z
" style="stroke: #1f77b4; stroke-opacity: 0.3"/>
    </defs>
    <g>
     <use xlink:href="#m42f803ad71" x="0" y="432" style="fill: #1f77b4; fill-opacity: 0.3; stroke: #1f77b4; stroke-opacity: 0.3"/>
    </g>
   </g>
   <g id="FillBetweenPolyCollection_2">
    <defs>
     <path id="mc2e7b78eb3" d="M 38.420552 -273.276395 
L 38.420552 -263.647823 
L 40.123593 -266.617934 
L 41.826633 -270.980532 
L 43.529673 -273.334783 
L 45.232713 -270.748657 
L 46.935753 -263.085651 
L 48.638793 -252.93067 
L 50.341833 -244.686619 
L 52.044873 -241.20203 
L 53.747913 -242.436119 
L 55.450953 -246.120252 
L 57.153993 -248.491631 
L 58.857033 -247.28373 
L 60.560073 -242.293701 
L 62.263113 -235.053249 
L 63.966154 -227.82338 
L 65.669194 -222.364402 
L 67.372234 -219.300391 
L 69.075274 -217.765921 
L 70.778314 -217.561888 
L 72.481354 -217.831958 
L 74.184394 -218.078991 
L 75.887434 -218.134109 
L 77.590474 -218.429317 
L 79.293514 -219.33689 
L 80.996554 -220.883738 
L 82.699594 -223.451767 
L 84.402634 -226.624666 
L 86.105674 -229.598246 
L 87.808714 -231.156977 
L 89.511755 -229.665835 
L 91.214795 -224.440852 
L 92.917835 -215.510649 
L 94.620875 -204.473433 
L 96.323915 -194.514359 
L 98.026955 -188.202559 
L 99.729995 -186.573499 
L 101.433035 -189.493667 
L 103.136075 -195.122674 
L 104.839115 -200.451624 
L 106.542155 -203.037301 
L 108.245195 -202.012347 
L 109.948235 -197.490855 
L 111.651275 -191.131575 
L 113.354315 -185.4683 
L 115.057356 -182.328591 
L 116.760396 -182.62297 
L 118.463436 -185.887591 
L 120.166476 -191.0333 
L 121.869516 -195.827916 
L 123.572556 -198.456612 
L 125.275596 -197.909728 
L 126.978636 -194.209609 
L 128.681676 -189.086596 
L 130.384716 -184.062186 
L 132.087756 -180.617803 
L 133.790796 -179.074667 
L 135.493836 -179.388061 
L 137.196876 -180.106793 
L 138.899916 -180.811142 
L 140.602957 -181.313807 
L 142.305997 -181.821808 
L 144.009037 -183.093657 
L 145.712077 -184.936024 
L 147.415117 -186.445615 
L 149.118157 -186.334088 
L 150.821197 -184.268056 
L 152.524237 -181.460258 
L 154.227277 -179.604601 
L 155.930317 -180.994196 
L 157.633357 -186.112903 
L 159.336397 -193.804253 
L 161.039437 -202.147062 
L 162.742477 -210.080147 
L 164.445517 -217.680828 
L 166.148558 -226.921662 
L 167.851598 -239.769395 
L 169.554638 -256.392379 
L 171.257678 -275.980155 
L 172.960718 -297.065288 
L 174.663758 -318.133885 
L 176.366798 -338.548029 
L 178.069838 -358.467353 
L 179.772878 -377.459449 
L 181.475918 -392.803715 
L 183.178958 -402.224892 
L 184.881998 -403.898159 
L 186.585038 -397.488588 
L 188.288078 -384.63273 
L 189.991118 -368.282715 
L 191.694159 -349.552397 
L 193.397199 -327.807334 
L 195.100239 -302.080081 
L 196.803279 -272.21704 
L 198.506319 -241.73278 
L 200.209359 -215.108898 
L 201.912399 -197.314461 
L 203.615439 -191.127483 
L 205.318479 -195.565792 
L 207.021519 -207.108701 
L 208.724559 -221.302422 
L 210.427599 -236.601206 
L 212.130639 -253.05184 
L 213.833679 -271.577662 
L 215.536719 -291.649252 
L 217.23976 -311.220836 
L 218.9428 -327.33736 
L 220.64584 -338.204724 
L 222.34888 -344.555309 
L 224.05192 -349.299028 
L 225.75496 -355.014548 
L 227.458 -362.568154 
L 229.16104 -369.962521 
L 230.86408 -373.746847 
L 232.56712 -371.909737 
L 234.27016 -365.167066 
L 235.9732 -355.945242 
L 237.67624 -346.898151 
L 239.37928 -339.214037 
L 241.08232 -331.91017 
L 242.785361 -322.632438 
L 244.488401 -311.289191 
L 246.191441 -299.507275 
L 247.894481 -291.025049 
L 249.597521 -288.889412 
L 251.300561 -292.281935 
L 253.003601 -298.235443 
L 254.706641 -301.735722 
L 256.409681 -299.953802 
L 258.112721 -293.151706 
L 259.815761 -284.816693 
L 261.518801 -279.637105 
L 263.221841 -280.241546 
L 264.924881 -286.084203 
L 266.627921 -292.991297 
L 268.330962 -296.128524 
L 270.034002 -292.623396 
L 271.737042 -283.60266 
L 273.440082 -273.701053 
L 275.143122 -267.719383 
L 276.846162 -268.594017 
L 278.549202 -275.040696 
L 280.252242 -282.40877 
L 281.955282 -285.25967 
L 283.658322 -281.281753 
L 285.361362 -272.098084 
L 287.064402 -262.602159 
L 288.767442 -258.206834 
L 290.470482 -259.826546 
L 292.173522 -264.670813 
L 293.876563 -267.330758 
L 295.579603 -264.26822 
L 297.282643 -255.286984 
L 298.985683 -244.014489 
L 300.688723 -236.028601 
L 302.391763 -233.621003 
L 304.094803 -236.027417 
L 305.797843 -238.828377 
L 307.500883 -238.670581 
L 309.203923 -235.203177 
L 310.906963 -230.467918 
L 312.610003 -227.668937 
L 314.313043 -227.730702 
L 316.016083 -229.749642 
L 317.719123 -230.854946 
L 319.422164 -228.838189 
L 321.125204 -223.567762 
L 322.828244 -217.377391 
L 324.531284 -213.043739 
L 326.234324 -211.511868 
L 327.937364 -212.051982 
L 329.640404 -212.939368 
L 331.343444 -213.230142 
L 333.046484 -212.836624 
L 334.749524 -211.876091 
L 336.452564 -210.936866 
L 338.155604 -210.078241 
L 339.858644 -208.480428 
L 341.561684 -205.441788 
L 343.264724 -201.480444 
L 344.967765 -197.235807 
L 346.670805 -194.454751 
L 348.373845 -193.594588 
L 350.076885 -194.816903 
L 351.779925 -197.034055 
L 353.482965 -198.83688 
L 355.186005 -199.598006 
L 356.889045 -198.960813 
L 358.592085 -197.172008 
L 360.295125 -194.69495 
L 361.998165 -192.561239 
L 363.701205 -192.06211 
L 365.404245 -193.956159 
L 367.107285 -198.733386 
L 368.810326 -206.265551 
L 370.513366 -214.204889 
L 372.216406 -219.169913 
L 373.919446 -218.607248 
L 375.622486 -212.453554 
L 377.325526 -203.128875 
L 379.028566 -193.732181 
L 380.731606 -188.085727 
L 382.434646 -187.752565 
L 384.137686 -191.533028 
L 385.840726 -196.283253 
L 387.543766 -199.603747 
L 389.246806 -200.489077 
L 390.949846 -200.090216 
L 392.652886 -200.290229 
L 394.355927 -202.275346 
L 396.058967 -205.803592 
L 397.762007 -209.175541 
L 399.465047 -210.271725 
L 401.168087 -208.645602 
L 402.871127 -205.516195 
L 404.574167 -202.192268 
L 406.277207 -200.371784 
L 407.980247 -200.185255 
L 409.683287 -200.32895 
L 411.386327 -199.492909 
L 413.089367 -197.47997 
L 414.792407 -195.442082 
L 416.495447 -194.561642 
L 418.198487 -195.056039 
L 419.901528 -195.99646 
L 421.604568 -195.547945 
L 423.307608 -191.745744 
L 425.010648 -184.947222 
L 426.713688 -177.119813 
L 428.416728 -171.172117 
L 430.119768 -168.85393 
L 431.822808 -170.63359 
L 433.525848 -174.422244 
L 435.228888 -177.634046 
L 436.931928 -178.549449 
L 438.634968 -176.971442 
L 440.338008 -174.421565 
L 442.041048 -172.026362 
L 443.744088 -170.867053 
L 445.447129 -171.083557 
L 447.150169 -171.90674 
L 448.853209 -173.72034 
L 450.556249 -176.043107 
L 452.259289 -178.439008 
L 453.962329 -180.820905 
L 455.665369 -182.124177 
L 457.368409 -181.717204 
L 459.071449 -180.138971 
L 460.774489 -177.979752 
L 462.477529 -175.93309 
L 464.180569 -174.090325 
L 465.883609 -172.112231 
L 467.586649 -169.673751 
L 469.289689 -167.556238 
L 470.99273 -166.903308 
L 472.69577 -168.802283 
L 474.39881 -172.292594 
L 476.10185 -175.490201 
L 477.80489 -174.888171 
L 479.50793 -169.917093 
L 481.21097 -162.00001 
L 482.91401 -154.782221 
L 484.61705 -152.621244 
L 486.32009 -157.24622 
L 488.02313 -166.495597 
L 489.72617 -176.110954 
L 491.42921 -182.954552 
L 493.13225 -184.578254 
L 494.83529 -182.775647 
L 496.538331 -180.195719 
L 498.241371 -178.981973 
L 499.944411 -179.506608 
L 501.647451 -179.793924 
L 503.350491 -179.027386 
L 505.053531 -177.375878 
L 506.756571 -175.737643 
L 508.459611 -175.726179 
L 510.162651 -178.199466 
L 511.865691 -182.103333 
L 513.568731 -185.189674 
L 515.271771 -185.66074 
L 516.974811 -184.317063 
L 518.677851 -182.449328 
L 520.380891 -181.431925 
L 522.083932 -182.054404 
L 523.786972 -182.759722 
L 525.490012 -181.8422 
L 527.193052 -178.948782 
L 528.896092 -175.397243 
L 530.599132 -174.344435 
L 532.302172 -177.494375 
L 534.005212 -184.195162 
L 535.708252 -190.745414 
L 537.411292 -193.76056 
L 539.114332 -190.981964 
L 540.817372 -183.990247 
L 542.520412 -176.843605 
L 544.223452 -172.811968 
L 545.926492 -172.513311 
L 547.629533 -174.449151 
L 549.332573 -175.357038 
L 551.035613 -174.365377 
L 552.738653 -171.743971 
L 554.441693 -169.673306 
L 556.144733 -169.727342 
L 557.847773 -171.765102 
L 559.550813 -174.482033 
L 561.253853 -175.980951 
L 561.253853 -187.637025 
L 561.253853 -187.637025 
L 559.550813 -186.386011 
L 557.847773 -184.432041 
L 556.144733 -182.856413 
L 554.441693 -182.629103 
L 552.738653 -184.015683 
L 551.035613 -186.362471 
L 549.332573 -187.397405 
L 547.629533 -186.595715 
L 545.926492 -185.031032 
L 544.223452 -185.509777 
L 542.520412 -189.932935 
L 540.817372 -196.899194 
L 539.114332 -203.623492 
L 537.411292 -206.453321 
L 535.708252 -203.518662 
L 534.005212 -196.739262 
L 532.302172 -189.949388 
L 530.599132 -186.789452 
L 528.896092 -187.487236 
L 527.193052 -190.655325 
L 525.490012 -193.634226 
L 523.786972 -194.906244 
L 522.083932 -194.858809 
L 520.380891 -194.18712 
L 518.677851 -194.647454 
L 516.974811 -196.295726 
L 515.271771 -197.37456 
L 513.568731 -196.988945 
L 511.865691 -194.361578 
L 510.162651 -191.205976 
L 508.459611 -189.120618 
L 506.756571 -189.068439 
L 505.053531 -190.386049 
L 503.350491 -191.917512 
L 501.647451 -192.596769 
L 499.944411 -192.262656 
L 498.241371 -192.159977 
L 496.538331 -193.647678 
L 494.83529 -195.864162 
L 493.13225 -197.245661 
L 491.42921 -195.088045 
L 489.72617 -188.184632 
L 488.02313 -178.324788 
L 486.32009 -169.476292 
L 484.61705 -165.324505 
L 482.91401 -167.780508 
L 481.21097 -174.76128 
L 479.50793 -182.587044 
L 477.80489 -187.225024 
L 476.10185 -187.494417 
L 474.39881 -184.125246 
L 472.69577 -180.544928 
L 470.99273 -178.814628 
L 469.289689 -179.392086 
L 467.586649 -181.540412 
L 465.883609 -183.829035 
L 464.180569 -185.501329 
L 462.477529 -187.307286 
L 460.774489 -189.390371 
L 459.071449 -191.910096 
L 457.368409 -193.541186 
L 455.665369 -193.562705 
L 453.962329 -192.187285 
L 452.259289 -189.770988 
L 450.556249 -187.068062 
L 448.853209 -184.826529 
L 447.150169 -183.34551 
L 445.447129 -182.553911 
L 443.744088 -182.649813 
L 442.041048 -183.710389 
L 440.338008 -186.045775 
L 438.634968 -188.800877 
L 436.931928 -190.974507 
L 435.228888 -190.31354 
L 433.525848 -187.258872 
L 431.822808 -183.604358 
L 430.119768 -181.665694 
L 428.416728 -183.455025 
L 426.713688 -189.194475 
L 425.010648 -196.962965 
L 423.307608 -203.493816 
L 421.604568 -207.25158 
L 419.901528 -208.170975 
L 418.198487 -207.337511 
L 416.495447 -206.832738 
L 414.792407 -208.075219 
L 413.089367 -209.952823 
L 411.386327 -211.533451 
L 409.683287 -211.839263 
L 407.980247 -211.383841 
L 406.277207 -211.285322 
L 404.574167 -212.600676 
L 402.871127 -215.660294 
L 401.168087 -219.025555 
L 399.465047 -221.032869 
L 397.762007 -220.168832 
L 396.058967 -217.011158 
L 394.355927 -213.508945 
L 392.652886 -211.162117 
L 390.949846 -210.897008 
L 389.246806 -211.464323 
L 387.543766 -210.719143 
L 385.840726 -207.66703 
L 384.137686 -203.076783 
L 382.434646 -199.813832 
L 380.731606 -200.30171 
L 379.028566 -205.839696 
L 377.325526 -215.184832 
L 375.622486 -224.922683 
L 373.919446 -231.012379 
L 372.216406 -231.241596 
L 370.513366 -225.952523 
L 368.810326 -218.004782 
L 367.107285 -210.114948 
L 365.404245 -205.061457 
L 363.701205 -203.581008 
L 361.998165 -205.016777 
L 360.295125 -207.629524 
L 358.592085 -209.873682 
L 356.889045 -211.289344 
L 355.186005 -211.512678 
L 353.482965 -210.288597 
L 351.779925 -208.493626 
L 350.076885 -206.728058 
L 348.373845 -205.752776 
L 346.670805 -206.401386 
L 344.967765 -209.106874 
L 343.264724 -212.989879 
L 341.561684 -217.167154 
L 339.858644 -220.587645 
L 338.155604 -222.762062 
L 336.452564 -223.984835 
L 334.749524 -224.94986 
L 333.046484 -225.639634 
L 331.343444 -225.915556 
L 329.640404 -225.55148 
L 327.937364 -224.099688 
L 326.234324 -223.593358 
L 324.531284 -225.118285 
L 322.828244 -229.149449 
L 321.125204 -235.043138 
L 319.422164 -240.128496 
L 317.719123 -242.35325 
L 316.016083 -241.73687 
L 314.313043 -239.935149 
L 312.610003 -239.847393 
L 310.906963 -242.781805 
L 309.203923 -247.13144 
L 307.500883 -250.227213 
L 305.797843 -249.764112 
L 304.094803 -246.630269 
L 302.391763 -244.420138 
L 300.688723 -246.765276 
L 298.985683 -254.953853 
L 297.282643 -266.33258 
L 295.579603 -275.70472 
L 293.876563 -279.301832 
L 292.173522 -276.427827 
L 290.470482 -271.744687 
L 288.767442 -270.238293 
L 287.064402 -274.866767 
L 285.361362 -284.575255 
L 283.658322 -294.086234 
L 281.955282 -298.406584 
L 280.252242 -295.351867 
L 278.549202 -287.346253 
L 276.846162 -280.236784 
L 275.143122 -278.969518 
L 273.440082 -284.746799 
L 271.737042 -294.980463 
L 270.034002 -304.244722 
L 268.330962 -308.267426 
L 266.627921 -305.409506 
L 264.924881 -298.489082 
L 263.221841 -292.56723 
L 261.518801 -291.442446 
L 259.815761 -296.202828 
L 258.112721 -304.337246 
L 256.409681 -311.286381 
L 254.706641 -313.071272 
L 253.003601 -309.507885 
L 251.300561 -303.603517 
L 249.597521 -300.649306 
L 247.894481 -303.623458 
L 246.191441 -312.420873 
L 244.488401 -323.897382 
L 242.785361 -334.802089 
L 241.08232 -343.473223 
L 239.37928 -350.773665 
L 237.67624 -358.761411 
L 235.9732 -368.248789 
L 234.27016 -377.990778 
L 232.56712 -384.683989 
L 230.86408 -385.537131 
L 229.16104 -380.53735 
L 227.458 -372.401335 
L 225.75496 -364.634298 
L 224.05192 -359.455236 
L 222.34888 -355.938958 
L 220.64584 -350.470902 
L 218.9428 -339.949894 
L 217.23976 -323.762922 
L 215.536719 -303.896426 
L 213.833679 -283.670251 
L 212.130639 -265.198678 
L 210.427599 -249.067281 
L 208.724559 -234.057931 
L 207.021519 -219.571263 
L 205.318479 -208.094084 
L 203.615439 -203.419449 
L 201.912399 -209.662605 
L 200.209359 -227.411437 
L 198.506319 -254.456064 
L 196.803279 -285.085654 
L 195.100239 -314.744516 
L 193.397199 -340.228143 
L 191.694159 -361.893942 
L 189.991118 -380.197649 
L 188.288078 -395.948653 
L 186.585038 -407.910698 
L 184.881998 -413.881635 
L 183.178958 -411.936116 
L 181.475918 -402.111875 
L 179.772878 -386.776403 
L 178.069838 -368.22402 
L 176.366798 -348.327123 
L 174.663758 -327.891131 
L 172.960718 -307.087284 
L 171.257678 -286.244909 
L 169.554638 -266.594947 
L 167.851598 -249.834078 
L 166.148558 -236.916712 
L 164.445517 -227.06145 
L 162.742477 -219.211428 
L 161.039437 -211.033628 
L 159.336397 -202.809904 
L 157.633357 -195.036396 
L 155.930317 -189.856644 
L 154.227277 -188.626296 
L 152.524237 -190.322768 
L 150.821197 -193.328258 
L 149.118157 -195.505348 
L 147.415117 -195.657401 
L 145.712077 -194.100978 
L 144.009037 -192.069522 
L 142.305997 -190.628121 
L 140.602957 -189.878158 
L 138.899916 -189.665469 
L 137.196876 -189.404664 
L 135.493836 -188.502837 
L 133.790796 -187.93958 
L 132.087756 -188.787628 
L 130.384716 -192.041854 
L 128.681676 -196.848275 
L 126.978636 -201.828185 
L 125.275596 -205.12329 
L 123.572556 -205.808797 
L 121.869516 -203.394619 
L 120.166476 -198.74263 
L 118.463436 -193.276124 
L 116.760396 -189.532687 
L 115.057356 -189.191943 
L 113.354315 -192.49735 
L 111.651275 -198.334177 
L 109.948235 -204.667204 
L 108.245195 -209.38247 
L 106.542155 -210.743899 
L 104.839115 -207.90428 
L 103.136075 -202.509491 
L 101.433035 -196.943109 
L 99.729995 -193.799454 
L 98.026955 -195.379477 
L 96.323915 -201.822677 
L 94.620875 -211.857014 
L 92.917835 -222.588985 
L 91.214795 -231.579331 
L 89.511755 -237.171693 
L 87.808714 -238.461554 
L 86.105674 -236.693447 
L 84.402634 -233.435145 
L 82.699594 -230.114939 
L 80.996554 -227.652592 
L 79.293514 -226.238485 
L 77.590474 -225.41488 
L 75.887434 -224.746888 
L 74.184394 -224.514609 
L 72.481354 -224.399783 
L 70.778314 -224.502161 
L 69.075274 -224.857348 
L 67.372234 -226.561849 
L 65.669194 -230.122966 
L 63.966154 -235.917677 
L 62.263113 -243.57853 
L 60.560073 -250.896267 
L 58.857033 -255.515662 
L 57.153993 -256.125226 
L 55.450953 -253.606122 
L 53.747913 -249.929041 
L 52.044873 -248.764442 
L 50.341833 -252.455723 
L 48.638793 -260.816915 
L 46.935753 -270.72995 
L 45.232713 -278.526575 
L 43.529673 -281.528993 
L 41.826633 -279.719007 
L 40.123593 -275.871298 
L 38.420552 -273.276395 
z
" style="stroke: #ff7f0e; stroke-opacity: 0.3"/>
    </defs>
    <g>
     <use xlink:href="#mc2e7b78eb3" x="0" y="432" style="fill: #ff7f0e; fill-opacity: 0.3; stroke: #ff7f0e; stroke-opacity: 0.3"/>
    </g>
   </g>
   <g id="line2d_19">
    <path d="M 38.420552 147.782082 
L 40.123593 140.723921 
L 41.826633 142.846716 
L 43.529673 153.242582 
L 45.232713 166.31493 
L 46.935753 175.385752 
L 48.638793 177.149497 
L 50.341833 173.69736 
L 52.044873 171.024067 
L 53.747913 174.619139 
L 55.450953 185.48191 
L 57.153993 199.402698 
L 58.857033 209.78932 
L 60.560073 212.220873 
L 62.263113 207.284966 
L 63.966154 199.804213 
L 65.669194 195.411248 
L 67.372234 196.727501 
L 70.778314 207.233133 
L 72.481354 208.686402 
L 74.184394 205.997495 
L 75.887434 201.590587 
L 77.590474 198.599415 
L 79.293514 198.576256 
L 80.996554 200.575394 
L 82.699594 202.341178 
L 84.402634 202.172679 
L 86.105674 200.284742 
L 87.808714 198.719452 
L 89.511755 199.86006 
L 91.214795 204.973653 
L 92.917835 213.445519 
L 94.620875 223.059541 
L 96.323915 231.109486 
L 98.026955 235.467247 
L 99.729995 235.543274 
L 101.433035 232.577747 
L 103.136075 229.001622 
L 104.839115 227.422257 
L 106.542155 229.203726 
L 109.948235 238.430399 
L 111.651275 240.76313 
L 113.354315 239.52137 
L 115.057356 236.033302 
L 116.760396 233.415203 
L 118.463436 234.591684 
L 120.166476 240.229485 
L 121.869516 248.246879 
L 123.572556 255.048851 
L 125.275596 257.839707 
L 126.978636 256.380901 
L 128.681676 252.808126 
L 130.384716 250.121108 
L 132.087756 250.248903 
L 133.790796 253.130024 
L 138.899916 265.959031 
L 140.602957 269.472723 
L 142.305997 272.174846 
L 144.009037 273.302137 
L 145.712077 272.163197 
L 149.118157 266.155185 
L 150.821197 265.302491 
L 152.524237 267.553843 
L 154.227277 271.502237 
L 155.930317 274.023712 
L 157.633357 272.313043 
L 159.336397 265.676916 
L 166.148558 226.822598 
L 167.851598 214.845687 
L 169.554638 198.576551 
L 174.663758 137.623525 
L 176.366798 120.457769 
L 179.772878 88.575799 
L 181.475918 71.774528 
L 183.178958 56.56809 
L 184.881998 46.794295 
L 186.585038 45.672557 
L 188.288078 54.001276 
L 189.991118 69.824653 
L 191.694159 89.958814 
L 195.100239 134.339742 
L 200.209359 202.835056 
L 201.912399 220.718722 
L 203.615439 231.764114 
L 205.318479 234.483478 
L 207.021519 229.083295 
L 208.724559 217.249811 
L 210.427599 201.394368 
L 213.833679 166.432421 
L 215.536719 150.233423 
L 217.23976 135.518817 
L 220.64584 109.284827 
L 222.34888 97.30422 
L 224.05192 86.799507 
L 225.75496 78.969275 
L 227.458 74.787864 
L 229.16104 74.187612 
L 230.86408 76.017786 
L 234.27016 81.371013 
L 235.9732 84.574813 
L 237.67624 89.965913 
L 239.37928 99.15583 
L 241.08232 112.35556 
L 244.488401 142.175801 
L 246.191441 152.687101 
L 247.894481 158.063882 
L 249.597521 159.574201 
L 251.300561 160.213941 
L 253.003601 163.193369 
L 254.706641 170.026928 
L 258.112721 189.08886 
L 259.815761 194.707707 
L 261.518801 194.680586 
L 263.221841 189.937542 
L 264.924881 183.819179 
L 266.627921 180.316485 
L 268.330962 181.612723 
L 271.737042 192.330909 
L 273.440082 194.185128 
L 275.143122 190.443457 
L 278.549202 173.832367 
L 280.252242 168.660039 
L 281.955282 168.561111 
L 283.658322 172.283951 
L 285.361362 176.697548 
L 287.064402 179.068598 
L 288.767442 178.699255 
L 290.470482 176.941668 
L 292.173522 175.973318 
L 293.876563 177.075029 
L 295.579603 179.939352 
L 297.282643 183.288148 
L 298.985683 186.046444 
L 300.688723 188.367265 
L 302.391763 191.493323 
L 304.094803 196.723579 
L 305.797843 204.359758 
L 307.500883 213.136383 
L 309.203923 220.726751 
L 310.906963 224.631202 
L 312.610003 223.222509 
L 314.313043 216.627393 
L 317.719123 197.356035 
L 319.422164 192.153598 
L 321.125204 193.910618 
L 322.828244 202.56789 
L 324.531284 214.755041 
L 326.234324 225.089271 
L 327.937364 228.82365 
L 329.640404 224.485789 
L 333.046484 206.00051 
L 334.749524 202.725379 
L 336.452564 206.876798 
L 339.858644 224.510216 
L 341.561684 229.097259 
L 343.264724 228.898611 
L 344.967765 226.433637 
L 346.670805 224.891345 
L 348.373845 225.617475 
L 350.076885 227.244317 
L 351.779925 227.057262 
L 353.482965 223.512406 
L 356.889045 211.927645 
L 358.592085 209.015027 
L 360.295125 208.860747 
L 361.998165 209.319892 
L 363.701205 207.84307 
L 365.404245 203.751178 
L 367.107285 198.943572 
L 368.810326 196.42916 
L 370.513366 198.039054 
L 373.919446 207.670643 
L 375.622486 209.386641 
L 377.325526 206.847026 
L 380.731606 196.323732 
L 382.434646 193.209929 
L 384.137686 192.477126 
L 387.543766 193.249634 
L 389.246806 193.485221 
L 390.949846 194.460423 
L 392.652886 196.804219 
L 394.355927 199.722493 
L 396.058967 201.256536 
L 397.762007 199.754149 
L 401.168087 191.064748 
L 402.871127 190.27323 
L 404.574167 195.419025 
L 406.277207 205.756062 
L 407.980247 217.498798 
L 409.683287 226.063228 
L 411.386327 228.697161 
L 413.089367 225.9043 
L 414.792407 220.810409 
L 416.495447 216.810756 
L 418.198487 215.49703 
L 419.901528 216.054561 
L 421.604568 216.482324 
L 423.307608 215.693095 
L 425.010648 214.47654 
L 426.713688 214.873519 
L 428.416728 218.249056 
L 430.119768 223.632777 
L 431.822808 227.975228 
L 433.525848 227.947498 
L 435.228888 222.415231 
L 436.931928 213.611213 
L 438.634968 206.004965 
L 440.338008 203.840625 
L 442.041048 208.594552 
L 443.744088 218.293806 
L 445.447129 228.97566 
L 447.150169 236.987625 
L 448.853209 240.880313 
L 450.556249 241.47937 
L 452.259289 240.506969 
L 453.962329 239.129573 
L 455.665369 237.275561 
L 457.368409 234.39262 
L 460.774489 226.943445 
L 462.477529 225.210759 
L 464.180569 226.142273 
L 467.586649 231.422907 
L 469.289689 232.052085 
L 472.69577 229.714209 
L 474.39881 231.295767 
L 476.10185 236.863912 
L 479.50793 253.212859 
L 481.21097 258.300518 
L 482.91401 259.938163 
L 484.61705 260.227426 
L 486.32009 262.125851 
L 488.02313 267.041049 
L 489.72617 273.337143 
L 491.42921 277.096414 
L 493.13225 274.860543 
L 494.83529 266.225847 
L 496.538331 254.635021 
L 498.241371 245.45881 
L 499.944411 242.665308 
L 501.647451 246.429924 
L 503.350491 253.052891 
L 505.053531 257.520235 
L 506.756571 256.672139 
L 508.459611 250.865785 
L 510.162651 243.387272 
L 511.865691 238.056918 
L 513.568731 236.98954 
L 515.271771 239.911217 
L 516.974811 244.987409 
L 518.677851 250.449675 
L 520.380891 255.352166 
L 522.083932 259.380493 
L 523.786972 262.246275 
L 525.490012 263.351934 
L 527.193052 262.411705 
L 530.599132 257.923778 
L 532.302172 257.61187 
L 534.005212 259.429825 
L 535.708252 261.928492 
L 537.411292 262.796663 
L 539.114332 260.562362 
L 540.817372 256.018767 
L 542.520412 251.857421 
L 544.223452 251.0339 
L 545.926492 254.771729 
L 549.332573 268.367912 
L 551.035613 272.08141 
L 552.738653 271.749407 
L 556.144733 265.96464 
L 557.847773 265.710897 
L 559.550813 268.999726 
L 561.253853 275.022573 
L 561.253853 275.022573 
" style="fill: none; stroke: #1f77b4; stroke-width: 1.5; stroke-linecap: square"/>
   </g>
   <g id="line2d_20">
    <path d="M 38.420552 163.616751 
L 40.123593 160.72221 
L 41.826633 156.608128 
L 43.529673 154.603462 
L 45.232713 157.395254 
L 46.935753 165.168494 
L 48.638793 175.163721 
L 50.341833 183.413496 
L 52.044873 187.044167 
L 53.747913 185.828904 
L 55.450953 182.255606 
L 57.153993 179.739885 
L 58.857033 180.727818 
L 60.560073 185.609146 
L 63.966154 200.129459 
L 65.669194 205.771783 
L 67.372234 209.133414 
L 69.075274 210.617539 
L 70.778314 210.970505 
L 74.184394 210.680658 
L 75.887434 210.417536 
L 77.590474 210.011132 
L 79.293514 209.175533 
L 80.996554 207.625439 
L 82.699594 205.159759 
L 86.105674 198.800503 
L 87.808714 197.18154 
L 89.511755 198.615778 
L 91.214795 204.034658 
L 92.917835 213.019207 
L 94.620875 223.81785 
L 96.323915 233.737632 
L 98.026955 240.19872 
L 99.729995 241.810213 
L 101.433035 238.852058 
L 104.839115 227.917566 
L 106.542155 225.166191 
L 108.245195 226.304252 
L 109.948235 230.891979 
L 111.651275 237.225712 
L 113.354315 242.989457 
L 115.057356 246.156773 
L 116.760396 245.810637 
L 118.463436 242.301191 
L 120.166476 237.139873 
L 121.869516 232.371894 
L 123.572556 229.791918 
L 125.275596 230.395833 
L 126.978636 233.912015 
L 130.384716 243.983555 
L 132.087756 247.289147 
L 133.790796 248.499338 
L 135.493836 248.15585 
L 137.196876 247.280465 
L 138.899916 246.676775 
L 140.602957 246.331464 
L 142.305997 245.712554 
L 144.009037 244.327321 
L 145.712077 242.380903 
L 147.415117 240.960002 
L 149.118157 241.171964 
L 150.821197 243.303923 
L 152.524237 246.23679 
L 154.227277 247.858455 
L 155.930317 246.366728 
L 157.633357 241.274873 
L 159.336397 233.692487 
L 162.742477 217.574693 
L 164.445517 209.734412 
L 166.148558 200.231015 
L 167.851598 187.368426 
L 169.554638 170.645846 
L 172.960718 129.946488 
L 176.366798 88.468182 
L 179.772878 49.851945 
L 181.475918 34.422143 
L 183.178958 24.884934 
L 184.881998 23.145696 
L 186.585038 29.330525 
L 188.288078 41.628687 
L 189.991118 57.737621 
L 191.694159 76.409122 
L 193.397199 98.00846 
L 195.100239 123.677234 
L 200.209359 210.756849 
L 201.912399 228.54567 
L 203.615439 234.6945 
L 205.318479 230.207332 
L 207.021519 218.765137 
L 210.427599 189.086048 
L 212.130639 172.770524 
L 213.833679 154.427698 
L 217.23976 114.472823 
L 218.9428 98.256912 
L 220.64584 87.571759 
L 222.34888 81.705014 
L 224.05192 77.623226 
L 225.75496 72.249837 
L 229.16104 56.809631 
L 230.86408 52.2938 
L 232.56712 53.528736 
L 234.27016 60.283317 
L 237.67624 79.145183 
L 241.08232 94.349715 
L 242.785361 103.301041 
L 246.191441 126.092644 
L 247.894481 134.621382 
L 249.597521 137.235039 
L 251.300561 134.030495 
L 253.003601 128.308104 
L 254.706641 124.708887 
L 256.409681 126.471615 
L 258.112721 133.252879 
L 259.815761 141.479134 
L 261.518801 146.547779 
L 263.221841 145.678418 
L 264.924881 139.796693 
L 266.627921 132.928902 
L 268.330962 129.932951 
L 270.034002 133.553605 
L 271.737042 142.608187 
L 273.440082 152.682308 
L 275.143122 158.550808 
L 276.846162 157.398991 
L 278.549202 150.637267 
L 280.252242 143.040955 
L 281.955282 140.012473 
L 283.658322 144.120414 
L 287.064402 163.016526 
L 288.767442 167.775013 
L 290.470482 166.295527 
L 292.173522 161.54474 
L 293.876563 158.793913 
L 295.579603 162.064613 
L 297.282643 171.26903 
L 298.985683 182.452749 
L 300.688723 190.585384 
L 302.391763 192.91771 
L 304.094803 190.689484 
L 305.797843 187.72144 
L 307.500883 187.511416 
L 309.203923 190.819525 
L 310.906963 195.43963 
L 312.610003 198.40249 
L 314.313043 198.323633 
L 316.016083 196.422689 
L 317.719123 195.494733 
L 319.422164 197.595969 
L 321.125204 202.670323 
L 322.828244 208.637052 
L 324.531284 212.995218 
L 326.234324 214.593608 
L 327.937364 213.985401 
L 329.640404 212.773157 
L 331.343444 212.24084 
L 333.046484 212.62083 
L 336.452564 214.315101 
L 338.155604 215.374427 
L 339.858644 217.31439 
L 341.561684 220.543332 
L 344.967765 228.774435 
L 346.670805 231.432526 
L 348.373845 232.119022 
L 350.076885 231.038483 
L 351.779925 229.117326 
L 353.482965 227.376306 
L 355.186005 226.527837 
L 356.889045 226.939501 
L 358.592085 228.538283 
L 361.998165 233.292725 
L 363.701205 234.264921 
L 365.404245 232.552583 
L 367.107285 227.4588 
L 370.513366 211.899289 
L 372.216406 206.910515 
L 373.919446 207.294641 
L 375.622486 213.363018 
L 379.028566 232.20023 
L 380.731606 237.716725 
L 382.434646 238.113596 
L 384.137686 234.579468 
L 385.840726 229.917711 
L 387.543766 226.75556 
L 389.246806 225.927564 
L 390.949846 226.388704 
L 392.652886 226.201036 
L 394.355927 224.100583 
L 396.058967 220.576567 
L 397.762007 217.378486 
L 399.465047 216.335368 
L 401.168087 218.021312 
L 404.574167 224.532869 
L 406.277207 226.15172 
L 407.980247 226.218463 
L 409.683287 225.918373 
L 411.386327 226.475796 
L 413.089367 228.215253 
L 414.792407 230.221539 
L 416.495447 231.217038 
L 418.198487 230.770134 
L 419.901528 229.857424 
L 421.604568 230.494662 
L 423.307608 234.251431 
L 425.010648 240.98759 
L 426.713688 248.721549 
L 428.416728 254.576283 
L 430.119768 256.583546 
L 431.822808 254.759634 
L 433.525848 251.006699 
L 435.228888 247.945877 
L 436.931928 247.236811 
L 438.634968 248.906172 
L 440.338008 251.699866 
L 442.041048 254.07295 
L 443.744088 255.23414 
L 445.447129 255.153584 
L 447.150169 254.190271 
L 448.853209 252.615948 
L 450.556249 250.432759 
L 452.259289 247.864006 
L 453.962329 245.497908 
L 455.665369 244.158514 
L 457.368409 244.400368 
L 459.071449 245.993617 
L 462.477529 250.250482 
L 464.180569 252.053628 
L 465.883609 254.035286 
L 467.586649 256.365937 
L 469.289689 258.453953 
L 470.99273 259.027873 
L 472.69577 257.162582 
L 474.39881 253.536886 
L 476.10185 250.462864 
L 477.80489 250.74781 
L 479.50793 255.64492 
L 481.21097 263.533178 
L 482.91401 270.571465 
L 484.61705 272.761129 
L 486.32009 268.45266 
L 488.02313 259.42209 
L 489.72617 249.642339 
L 491.42921 242.993123 
L 493.13225 241.020643 
L 494.83529 242.509922 
L 496.538331 244.88314 
L 498.241371 246.091954 
L 499.944411 245.931367 
L 501.647451 245.609848 
L 503.350491 246.326266 
L 505.053531 248.140575 
L 506.756571 249.73403 
L 508.459611 249.603549 
L 510.162651 247.288239 
L 511.865691 243.823171 
L 513.568731 241.121649 
L 515.271771 240.489453 
L 516.974811 241.734199 
L 518.677851 243.434609 
L 520.380891 244.108668 
L 523.786972 243.139929 
L 525.490012 244.275744 
L 527.193052 247.342541 
L 528.896092 250.640346 
L 530.599132 251.481259 
L 532.302172 248.132062 
L 535.708252 234.75594 
L 537.411292 231.849389 
L 539.114332 234.522261 
L 542.520412 248.564495 
L 544.223452 252.891328 
L 545.926492 253.341746 
L 547.629533 251.67323 
L 549.332573 250.63551 
L 551.035613 251.672853 
L 552.738653 254.10252 
L 554.441693 255.921516 
L 556.144733 255.720664 
L 557.847773 253.823011 
L 559.550813 251.667504 
L 561.253853 250.331968 
L 561.253853 250.331968 
" style="fill: none; stroke: #ff7f0e; stroke-width: 1.5; stroke-linecap: square"/>
   </g>
  </g>
  <g id="axes_2">
   <g id="PathCollection_1">
    <defs>
     <path id="C0_0_64d876401a" d="M 0 1.118034 
C 0.296506 1.118034 0.580908 1.000231 0.790569 0.790569 
C 1.000231 0.580908 1.118034 0.296506 1.118034 -0 
C 1.118034 -0.296506 1.000231 -0.580908 0.790569 -0.790569 
C 0.580908 -1.000231 0.296506 -1.118034 0 -1.118034 
C -0.296506 -1.118034 -0.580908 -1.000231 -0.790569 -0.790569 
C -1.000231 -0.580908 -1.118034 -0.296506 -1.118034 0 
C -1.118034 0.296506 -1.000231 0.580908 -0.790569 0.790569 
C -0.580908 1.000231 -0.296506 1.118034 0 1.118034 
z
"/>
    </defs>
    <g clip-path="url(#pd0da0dc228)">
     <use xlink:href="#C0_0_64d876401a" x="485.033956" y="87.472088" style="stroke: #000000"/>
    </g>
    <g clip-path="url(#pd0da0dc228)">
     <use xlink:href="#C0_0_64d876401a" x="532.698402" y="87.444477" style="stroke: #000000"/>
    </g>
   </g>
   <g id="matplotlib.axis_3"/>
   <g id="matplotlib.axis_4"/>
   <g id="line2d_21">
    <path d="M 548.859194 73.63672 
L 548.781507 71.164689 
L 548.548754 68.702415 
L 548.161852 66.259613 
L 547.622329 63.845926 
L 546.932314 61.470879 
L 546.09453 59.143845 
L 545.112284 56.874007 
L 543.989451 54.670325 
L 542.730464 52.541494 
L 541.340291 50.495916 
L 539.824418 48.541664 
L 538.188828 46.686451 
L 536.439975 44.937599 
L 534.584762 43.302008 
L 532.630511 41.786136 
L 530.584933 40.395962 
L 528.456102 39.136975 
L 526.252419 38.014143 
L 523.982582 37.031896 
L 521.655547 36.194112 
L 519.2805 35.504097 
L 516.866813 34.964574 
L 514.424012 34.577673 
L 511.961737 34.344919 
L 509.489707 34.267233 
L 507.017676 34.344919 
L 504.555402 34.577673 
L 502.1126 34.964574 
L 499.698913 35.504097 
L 497.323866 36.194112 
L 494.996832 37.031896 
L 492.726994 38.014143 
L 490.523312 39.136975 
L 488.394481 40.395962 
L 486.348903 41.786136 
L 484.394651 43.302008 
L 482.539438 44.937599 
L 480.790586 46.686451 
L 479.154995 48.541664 
L 477.639123 50.495916 
L 476.248949 52.541494 
L 474.989962 54.670325 
L 473.86713 56.874007 
L 472.884883 59.143845 
L 472.047099 61.470879 
L 471.357084 63.845926 
L 470.817561 66.259613 
L 470.43066 68.702415 
L 470.197906 71.164689 
L 470.12022 73.63672 
L 470.197906 76.10875 
L 470.43066 78.571025 
L 470.817561 81.013826 
L 471.357084 83.427513 
L 472.047099 85.80256 
L 472.884883 88.129595 
L 473.86713 90.399432 
L 474.989962 92.603115 
L 476.248949 94.731946 
L 477.639123 96.777524 
L 479.154995 98.731775 
L 480.790586 100.586988 
L 482.539438 102.335841 
L 484.394651 103.971431 
L 486.348903 105.487304 
L 488.394481 106.877477 
L 490.523312 108.136464 
L 492.726994 109.259297 
L 494.996832 110.241543 
L 497.323866 111.079327 
L 499.698913 111.769342 
L 502.1126 112.308865 
L 504.555402 112.695767 
L 507.017676 112.92852 
L 509.489707 113.006207 
L 511.961737 112.92852 
L 514.424012 112.695767 
L 516.866813 112.308865 
L 519.2805 111.769342 
L 521.655547 111.079327 
L 523.982582 110.241543 
L 526.252419 109.259297 
L 528.456102 108.136464 
L 530.584933 106.877477 
L 532.630511 105.487304 
L 534.584762 103.971431 
L 536.439975 102.335841 
L 538.188828 100.586988 
L 539.824418 98.731775 
L 541.340291 96.777524 
L 542.730464 94.731946 
L 543.989451 92.603115 
L 545.112284 90.399432 
L 546.09453 88.129595 
L 546.932314 85.80256 
L 547.622329 83.427513 
L 548.161852 81.013826 
L 548.548754 78.571025 
L 548.781507 76.10875 
L 548.859194 73.63672 
" style="fill: none; stroke: #000000; stroke-linecap: square"/>
   </g>
   <g id="line2d_22">
    <path d="M 501.244181 35.140385 
L 509.489707 28.361809 
L 517.735233 35.140385 
" style="fill: none; stroke: #000000; stroke-linecap: square"/>
   </g>
   <g id="line2d_23">
    <path d="M 470.356436 69.266707 
L 469.33283 67.534449 
L 468.702918 67.471458 
L 467.765924 67.762792 
L 466.821057 69.266707 
L 466.970661 74.069784 
L 466.419488 80.975192 
L 467.600572 83.975147 
L 469.33283 84.534194 
L 470.986348 83.077523 
" style="fill: none; stroke: #000000; stroke-linecap: square"/>
   </g>
   <g id="line2d_24">
    <path d="M 548.622977 69.266707 
L 549.646584 67.534449 
L 550.276495 67.471458 
L 551.213489 67.762792 
L 552.158357 69.266707 
L 552.008753 74.069784 
L 552.559926 80.975192 
L 551.378841 83.975147 
L 549.646584 84.534194 
L 547.993065 83.077523 
" style="fill: none; stroke: #000000; stroke-linecap: square"/>
   </g>
  </g>
 </g>
 <defs>
  <clipPath id="p20302d6f50">
   <rect x="38.420552" y="18.118365" width="523.446395" height="380.525145"/>
  </clipPath>
  <clipPath id="pd0da0dc228">
   <rect x="462.112466" y="24.12959" width="94.754482" height="93.108837"/>
  </clipPath>
 </defs>
</svg>
