<?xml version="1.0" encoding="utf-8" standalone="no"?>
<!DOCTYPE svg PUBLIC "-//W3C//DTD SVG 1.1//EN"
  "http://www.w3.org/Graphics/SVG/1.1/DTD/svg11.dtd">
<svg xmlns:xlink="http://www.w3.org/1999/xlink" width="576pt" height="432pt" viewBox="0 0 576 432" xmlns="http://www.w3.org/2000/svg" version="1.1">
 <metadata>
  <rdf:RDF xmlns:dc="http://purl.org/dc/elements/1.1/" xmlns:cc="http://creativecommons.org/ns#" xmlns:rdf="http://www.w3.org/1999/02/22-rdf-syntax-ns#">
   <cc:Work>
    <dc:type rdf:resource="http://purl.org/dc/dcmitype/StillImage"/>
    <dc:date>2025-02-17T18:05:26.029793</dc:date>
    <dc:format>image/svg+xml</dc:format>
    <dc:creator>
     <cc:Agent>
      <dc:title>Matplotlib v3.10.0, https://matplotlib.org/</dc:title>
     </cc:Agent>
    </dc:creator>
   </cc:Work>
  </rdf:RDF>
 </metadata>
 <defs>
  <style type="text/css">*{stroke-linejoin: round; stroke-linecap: butt}</style>
 </defs>
 <g id="figure_1">
  <g id="patch_1">
   <path d="M 0 432 
L 576 432 
L 576 0 
L 0 0 
z
" style="fill: #ffffff"/>
  </g>
  <g id="axes_1">
   <g id="patch_2">
    <path d="M 38.420552 398.64351 
L 561.866948 398.64351 
L 561.866948 18.118365 
L 38.420552 18.118365 
L 38.420552 398.64351 
z
" style="fill: none; opacity: 0"/>
   </g>
   <g id="patch_3">
    <path d="M 38.420552 395.800812 
L 38.420552 20.961063 
" style="fill: none; stroke: #000000; stroke-width: 0.8; stroke-linejoin: miter; stroke-linecap: square"/>
   </g>
   <g id="LineCollection_1">
    <path d="M 156.407168 18.118365 
L 156.407168 398.64351 
" clip-path="url(#pace7876a7a)" style="fill: none; stroke-dasharray: 3.7,1.6; stroke-dashoffset: 0; stroke: #000000"/>
    <path d="M 195.645211 18.118365 
L 195.645211 398.64351 
" clip-path="url(#pace7876a7a)" style="fill: none; stroke-dasharray: 3.7,1.6; stroke-dashoffset: 0; stroke: #000000"/>
   </g>
   <g id="matplotlib.axis_1">
    <g id="xtick_1">
     <g id="line2d_1">
      <defs>
       <path id="m0db64daab7" d="M 0 0 
L 0 3.5 
" style="stroke: #000000; stroke-width: 0.8"/>
      </defs>
      <g>
       <use xlink:href="#m0db64daab7" x="38.693039" y="398.64351" style="stroke: #000000; stroke-width: 0.8"/>
      </g>
     </g>
     <g id="text_1">
      <!-- −0.20 -->
      <g transform="translate(23.370383 413.241947) scale(0.1 -0.1)">
       <defs>
        <path id="DejaVuSans-2212" d="M 678 2272 
L 4684 2272 
L 4684 1741 
L 678 1741 
L 678 2272 
z
" transform="scale(0.015625)"/>
        <path id="DejaVuSans-30" d="M 2034 4250 
Q 1547 4250 1301 3770 
Q 1056 3291 1056 2328 
Q 1056 1369 1301 889 
Q 1547 409 2034 409 
Q 2525 409 2770 889 
Q 3016 1369 3016 2328 
Q 3016 3291 2770 3770 
Q 2525 4250 2034 4250 
z
M 2034 4750 
Q 2819 4750 3233 4129 
Q 3647 3509 3647 2328 
Q 3647 1150 3233 529 
Q 2819 -91 2034 -91 
Q 1250 -91 836 529 
Q 422 1150 422 2328 
Q 422 3509 836 4129 
Q 1250 4750 2034 4750 
z
" transform="scale(0.015625)"/>
        <path id="DejaVuSans-2e" d="M 684 794 
L 1344 794 
L 1344 0 
L 684 0 
L 684 794 
z
" transform="scale(0.015625)"/>
        <path id="DejaVuSans-32" d="M 1228 531 
L 3431 531 
L 3431 0 
L 469 0 
L 469 531 
Q 828 903 1448 1529 
Q 2069 2156 2228 2338 
Q 2531 2678 2651 2914 
Q 2772 3150 2772 3378 
Q 2772 3750 2511 3984 
Q 2250 4219 1831 4219 
Q 1534 4219 1204 4116 
Q 875 4013 500 3803 
L 500 4441 
Q 881 4594 1212 4672 
Q 1544 4750 1819 4750 
Q 2544 4750 2975 4387 
Q 3406 4025 3406 3419 
Q 3406 3131 3298 2873 
Q 3191 2616 2906 2266 
Q 2828 2175 2409 1742 
Q 1991 1309 1228 531 
z
" transform="scale(0.015625)"/>
       </defs>
       <use xlink:href="#DejaVuSans-2212"/>
       <use xlink:href="#DejaVuSans-30" transform="translate(83.789062 0)"/>
       <use xlink:href="#DejaVuSans-2e" transform="translate(147.412109 0)"/>
       <use xlink:href="#DejaVuSans-32" transform="translate(179.199219 0)"/>
       <use xlink:href="#DejaVuSans-30" transform="translate(242.822266 0)"/>
      </g>
     </g>
    </g>
    <g id="xtick_2">
     <g id="line2d_2">
      <g>
       <use xlink:href="#m0db64daab7" x="125.88869" y="398.64351" style="stroke: #000000; stroke-width: 0.8"/>
      </g>
     </g>
     <g id="text_2">
      <!-- 0.00 -->
      <g transform="translate(114.755878 413.241947) scale(0.1 -0.1)">
       <use xlink:href="#DejaVuSans-30"/>
       <use xlink:href="#DejaVuSans-2e" transform="translate(63.623047 0)"/>
       <use xlink:href="#DejaVuSans-30" transform="translate(95.410156 0)"/>
       <use xlink:href="#DejaVuSans-30" transform="translate(159.033203 0)"/>
      </g>
     </g>
    </g>
    <g id="xtick_3">
     <g id="line2d_3">
      <g>
       <use xlink:href="#m0db64daab7" x="156.407168" y="398.64351" style="stroke: #000000; stroke-width: 0.8"/>
      </g>
     </g>
     <g id="text_3">
      <!-- 0.07 -->
      <g transform="translate(145.274356 413.241947) scale(0.1 -0.1)">
       <defs>
        <path id="DejaVuSans-37" d="M 525 4666 
L 3525 4666 
L 3525 4397 
L 1831 0 
L 1172 0 
L 2766 4134 
L 525 4134 
L 525 4666 
z
" transform="scale(0.015625)"/>
       </defs>
       <use xlink:href="#DejaVuSans-30"/>
       <use xlink:href="#DejaVuSans-2e" transform="translate(63.623047 0)"/>
       <use xlink:href="#DejaVuSans-30" transform="translate(95.410156 0)"/>
       <use xlink:href="#DejaVuSans-37" transform="translate(159.033203 0)"/>
      </g>
     </g>
    </g>
    <g id="xtick_4">
     <g id="line2d_4">
      <g>
       <use xlink:href="#m0db64daab7" x="195.645211" y="398.64351" style="stroke: #000000; stroke-width: 0.8"/>
      </g>
     </g>
     <g id="text_4">
      <!-- 0.16 -->
      <g transform="translate(184.512399 413.241947) scale(0.1 -0.1)">
       <defs>
        <path id="DejaVuSans-31" d="M 794 531 
L 1825 531 
L 1825 4091 
L 703 3866 
L 703 4441 
L 1819 4666 
L 2450 4666 
L 2450 531 
L 3481 531 
L 3481 0 
L 794 0 
L 794 531 
z
" transform="scale(0.015625)"/>
        <path id="DejaVuSans-36" d="M 2113 2584 
Q 1688 2584 1439 2293 
Q 1191 2003 1191 1497 
Q 1191 994 1439 701 
Q 1688 409 2113 409 
Q 2538 409 2786 701 
Q 3034 994 3034 1497 
Q 3034 2003 2786 2293 
Q 2538 2584 2113 2584 
z
M 3366 4563 
L 3366 3988 
Q 3128 4100 2886 4159 
Q 2644 4219 2406 4219 
Q 1781 4219 1451 3797 
Q 1122 3375 1075 2522 
Q 1259 2794 1537 2939 
Q 1816 3084 2150 3084 
Q 2853 3084 3261 2657 
Q 3669 2231 3669 1497 
Q 3669 778 3244 343 
Q 2819 -91 2113 -91 
Q 1303 -91 875 529 
Q 447 1150 447 2328 
Q 447 3434 972 4092 
Q 1497 4750 2381 4750 
Q 2619 4750 2861 4703 
Q 3103 4656 3366 4563 
z
" transform="scale(0.015625)"/>
       </defs>
       <use xlink:href="#DejaVuSans-30"/>
       <use xlink:href="#DejaVuSans-2e" transform="translate(63.623047 0)"/>
       <use xlink:href="#DejaVuSans-31" transform="translate(95.410156 0)"/>
       <use xlink:href="#DejaVuSans-36" transform="translate(159.033203 0)"/>
      </g>
     </g>
    </g>
    <g id="xtick_5">
     <g id="line2d_5">
      <g>
       <use xlink:href="#m0db64daab7" x="213.084342" y="398.64351" style="stroke: #000000; stroke-width: 0.8"/>
      </g>
     </g>
     <g id="text_5">
      <!-- 0.20 -->
      <g transform="translate(201.951529 413.241947) scale(0.1 -0.1)">
       <use xlink:href="#DejaVuSans-30"/>
       <use xlink:href="#DejaVuSans-2e" transform="translate(63.623047 0)"/>
       <use xlink:href="#DejaVuSans-32" transform="translate(95.410156 0)"/>
       <use xlink:href="#DejaVuSans-30" transform="translate(159.033203 0)"/>
      </g>
     </g>
    </g>
    <g id="xtick_6">
     <g id="line2d_6">
      <g>
       <use xlink:href="#m0db64daab7" x="300.279993" y="398.64351" style="stroke: #000000; stroke-width: 0.8"/>
      </g>
     </g>
     <g id="text_6">
      <!-- 0.40 -->
      <g transform="translate(289.147181 413.241947) scale(0.1 -0.1)">
       <defs>
        <path id="DejaVuSans-34" d="M 2419 4116 
L 825 1625 
L 2419 1625 
L 2419 4116 
z
M 2253 4666 
L 3047 4666 
L 3047 1625 
L 3713 1625 
L 3713 1100 
L 3047 1100 
L 3047 0 
L 2419 0 
L 2419 1100 
L 313 1100 
L 313 1709 
L 2253 4666 
z
" transform="scale(0.015625)"/>
       </defs>
       <use xlink:href="#DejaVuSans-30"/>
       <use xlink:href="#DejaVuSans-2e" transform="translate(63.623047 0)"/>
       <use xlink:href="#DejaVuSans-34" transform="translate(95.410156 0)"/>
       <use xlink:href="#DejaVuSans-30" transform="translate(159.033203 0)"/>
      </g>
     </g>
    </g>
    <g id="xtick_7">
     <g id="line2d_7">
      <g>
       <use xlink:href="#m0db64daab7" x="387.475645" y="398.64351" style="stroke: #000000; stroke-width: 0.8"/>
      </g>
     </g>
     <g id="text_7">
      <!-- 0.60 -->
      <g transform="translate(376.342832 413.241947) scale(0.1 -0.1)">
       <use xlink:href="#DejaVuSans-30"/>
       <use xlink:href="#DejaVuSans-2e" transform="translate(63.623047 0)"/>
       <use xlink:href="#DejaVuSans-36" transform="translate(95.410156 0)"/>
       <use xlink:href="#DejaVuSans-30" transform="translate(159.033203 0)"/>
      </g>
     </g>
    </g>
    <g id="xtick_8">
     <g id="line2d_8">
      <g>
       <use xlink:href="#m0db64daab7" x="474.671296" y="398.64351" style="stroke: #000000; stroke-width: 0.8"/>
      </g>
     </g>
     <g id="text_8">
      <!-- 0.80 -->
      <g transform="translate(463.538484 413.241947) scale(0.1 -0.1)">
       <defs>
        <path id="DejaVuSans-38" d="M 2034 2216 
Q 1584 2216 1326 1975 
Q 1069 1734 1069 1313 
Q 1069 891 1326 650 
Q 1584 409 2034 409 
Q 2484 409 2743 651 
Q 3003 894 3003 1313 
Q 3003 1734 2745 1975 
Q 2488 2216 2034 2216 
z
M 1403 2484 
Q 997 2584 770 2862 
Q 544 3141 544 3541 
Q 544 4100 942 4425 
Q 1341 4750 2034 4750 
Q 2731 4750 3128 4425 
Q 3525 4100 3525 3541 
Q 3525 3141 3298 2862 
Q 3072 2584 2669 2484 
Q 3125 2378 3379 2068 
Q 3634 1759 3634 1313 
Q 3634 634 3220 271 
Q 2806 -91 2034 -91 
Q 1263 -91 848 271 
Q 434 634 434 1313 
Q 434 1759 690 2068 
Q 947 2378 1403 2484 
z
M 1172 3481 
Q 1172 3119 1398 2916 
Q 1625 2713 2034 2713 
Q 2441 2713 2670 2916 
Q 2900 3119 2900 3481 
Q 2900 3844 2670 4047 
Q 2441 4250 2034 4250 
Q 1625 4250 1398 4047 
Q 1172 3844 1172 3481 
z
" transform="scale(0.015625)"/>
       </defs>
       <use xlink:href="#DejaVuSans-30"/>
       <use xlink:href="#DejaVuSans-2e" transform="translate(63.623047 0)"/>
       <use xlink:href="#DejaVuSans-38" transform="translate(95.410156 0)"/>
       <use xlink:href="#DejaVuSans-30" transform="translate(159.033203 0)"/>
      </g>
     </g>
    </g>
    <g id="xtick_9">
     <g id="line2d_9">
      <g>
       <use xlink:href="#m0db64daab7" x="561.866948" y="398.64351" style="stroke: #000000; stroke-width: 0.8"/>
      </g>
     </g>
     <g id="text_9">
      <!-- 1.00 -->
      <g transform="translate(550.734135 413.241947) scale(0.1 -0.1)">
       <use xlink:href="#DejaVuSans-31"/>
       <use xlink:href="#DejaVuSans-2e" transform="translate(63.623047 0)"/>
       <use xlink:href="#DejaVuSans-30" transform="translate(95.410156 0)"/>
       <use xlink:href="#DejaVuSans-30" transform="translate(159.033203 0)"/>
      </g>
     </g>
    </g>
    <g id="text_10">
     <!-- Time (s) -->
     <g transform="translate(279.814844 426.920073) scale(0.1 -0.1)">
      <defs>
       <path id="DejaVuSans-54" d="M -19 4666 
L 3928 4666 
L 3928 4134 
L 2272 4134 
L 2272 0 
L 1638 0 
L 1638 4134 
L -19 4134 
L -19 4666 
z
" transform="scale(0.015625)"/>
       <path id="DejaVuSans-69" d="M 603 3500 
L 1178 3500 
L 1178 0 
L 603 0 
L 603 3500 
z
M 603 4863 
L 1178 4863 
L 1178 4134 
L 603 4134 
L 603 4863 
z
" transform="scale(0.015625)"/>
       <path id="DejaVuSans-6d" d="M 3328 2828 
Q 3544 3216 3844 3400 
Q 4144 3584 4550 3584 
Q 5097 3584 5394 3201 
Q 5691 2819 5691 2113 
L 5691 0 
L 5113 0 
L 5113 2094 
Q 5113 2597 4934 2840 
Q 4756 3084 4391 3084 
Q 3944 3084 3684 2787 
Q 3425 2491 3425 1978 
L 3425 0 
L 2847 0 
L 2847 2094 
Q 2847 2600 2669 2842 
Q 2491 3084 2119 3084 
Q 1678 3084 1418 2786 
Q 1159 2488 1159 1978 
L 1159 0 
L 581 0 
L 581 3500 
L 1159 3500 
L 1159 2956 
Q 1356 3278 1631 3431 
Q 1906 3584 2284 3584 
Q 2666 3584 2933 3390 
Q 3200 3197 3328 2828 
z
" transform="scale(0.015625)"/>
       <path id="DejaVuSans-65" d="M 3597 1894 
L 3597 1613 
L 953 1613 
Q 991 1019 1311 708 
Q 1631 397 2203 397 
Q 2534 397 2845 478 
Q 3156 559 3463 722 
L 3463 178 
Q 3153 47 2828 -22 
Q 2503 -91 2169 -91 
Q 1331 -91 842 396 
Q 353 884 353 1716 
Q 353 2575 817 3079 
Q 1281 3584 2069 3584 
Q 2775 3584 3186 3129 
Q 3597 2675 3597 1894 
z
M 3022 2063 
Q 3016 2534 2758 2815 
Q 2500 3097 2075 3097 
Q 1594 3097 1305 2825 
Q 1016 2553 972 2059 
L 3022 2063 
z
" transform="scale(0.015625)"/>
       <path id="DejaVuSans-20" transform="scale(0.015625)"/>
       <path id="DejaVuSans-28" d="M 1984 4856 
Q 1566 4138 1362 3434 
Q 1159 2731 1159 2009 
Q 1159 1288 1364 580 
Q 1569 -128 1984 -844 
L 1484 -844 
Q 1016 -109 783 600 
Q 550 1309 550 2009 
Q 550 2706 781 3412 
Q 1013 4119 1484 4856 
L 1984 4856 
z
" transform="scale(0.015625)"/>
       <path id="DejaVuSans-73" d="M 2834 3397 
L 2834 2853 
Q 2591 2978 2328 3040 
Q 2066 3103 1784 3103 
Q 1356 3103 1142 2972 
Q 928 2841 928 2578 
Q 928 2378 1081 2264 
Q 1234 2150 1697 2047 
L 1894 2003 
Q 2506 1872 2764 1633 
Q 3022 1394 3022 966 
Q 3022 478 2636 193 
Q 2250 -91 1575 -91 
Q 1294 -91 989 -36 
Q 684 19 347 128 
L 347 722 
Q 666 556 975 473 
Q 1284 391 1588 391 
Q 1994 391 2212 530 
Q 2431 669 2431 922 
Q 2431 1156 2273 1281 
Q 2116 1406 1581 1522 
L 1381 1569 
Q 847 1681 609 1914 
Q 372 2147 372 2553 
Q 372 3047 722 3315 
Q 1072 3584 1716 3584 
Q 2034 3584 2315 3537 
Q 2597 3491 2834 3397 
z
" transform="scale(0.015625)"/>
       <path id="DejaVuSans-29" d="M 513 4856 
L 1013 4856 
Q 1481 4119 1714 3412 
Q 1947 2706 1947 2009 
Q 1947 1309 1714 600 
Q 1481 -109 1013 -844 
L 513 -844 
Q 928 -128 1133 580 
Q 1338 1288 1338 2009 
Q 1338 2731 1133 3434 
Q 928 4138 513 4856 
z
" transform="scale(0.015625)"/>
      </defs>
      <use xlink:href="#DejaVuSans-54"/>
      <use xlink:href="#DejaVuSans-69" transform="translate(57.958984 0)"/>
      <use xlink:href="#DejaVuSans-6d" transform="translate(85.742188 0)"/>
      <use xlink:href="#DejaVuSans-65" transform="translate(183.154297 0)"/>
      <use xlink:href="#DejaVuSans-20" transform="translate(244.677734 0)"/>
      <use xlink:href="#DejaVuSans-28" transform="translate(276.464844 0)"/>
      <use xlink:href="#DejaVuSans-73" transform="translate(315.478516 0)"/>
      <use xlink:href="#DejaVuSans-29" transform="translate(367.578125 0)"/>
     </g>
    </g>
   </g>
   <g id="matplotlib.axis_2">
    <g id="ytick_1">
     <g id="line2d_10">
      <defs>
       <path id="me5b5cad63d" d="M 0 0 
L -3.5 0 
" style="stroke: #000000; stroke-width: 0.8"/>
      </defs>
      <g>
       <use xlink:href="#me5b5cad63d" x="38.420552" y="395.800812" style="stroke: #000000; stroke-width: 0.8"/>
      </g>
     </g>
     <g id="text_11">
      <!-- −6 -->
      <g transform="translate(16.678365 399.600031) scale(0.1 -0.1)">
       <use xlink:href="#DejaVuSans-2212"/>
       <use xlink:href="#DejaVuSans-36" transform="translate(83.789062 0)"/>
      </g>
     </g>
    </g>
    <g id="ytick_2">
     <g id="line2d_11">
      <g>
       <use xlink:href="#me5b5cad63d" x="38.420552" y="333.327521" style="stroke: #000000; stroke-width: 0.8"/>
      </g>
     </g>
     <g id="text_12">
      <!-- −4 -->
      <g transform="translate(16.678365 337.126739) scale(0.1 -0.1)">
       <use xlink:href="#DejaVuSans-2212"/>
       <use xlink:href="#DejaVuSans-34" transform="translate(83.789062 0)"/>
      </g>
     </g>
    </g>
    <g id="ytick_3">
     <g id="line2d_12">
      <g>
       <use xlink:href="#me5b5cad63d" x="38.420552" y="270.854229" style="stroke: #000000; stroke-width: 0.8"/>
      </g>
     </g>
     <g id="text_13">
      <!-- −2 -->
      <g transform="translate(16.678365 274.653448) scale(0.1 -0.1)">
       <use xlink:href="#DejaVuSans-2212"/>
       <use xlink:href="#DejaVuSans-32" transform="translate(83.789062 0)"/>
      </g>
     </g>
    </g>
    <g id="ytick_4">
     <g id="line2d_13">
      <g>
       <use xlink:href="#me5b5cad63d" x="38.420552" y="208.380938" style="stroke: #000000; stroke-width: 0.8"/>
      </g>
     </g>
     <g id="text_14">
      <!-- 0 -->
      <g transform="translate(25.058052 212.180156) scale(0.1 -0.1)">
       <use xlink:href="#DejaVuSans-30"/>
      </g>
     </g>
    </g>
    <g id="ytick_5">
     <g id="line2d_14">
      <g>
       <use xlink:href="#me5b5cad63d" x="38.420552" y="145.907646" style="stroke: #000000; stroke-width: 0.8"/>
      </g>
     </g>
     <g id="text_15">
      <!-- 2 -->
      <g transform="translate(25.058052 149.706865) scale(0.1 -0.1)">
       <use xlink:href="#DejaVuSans-32"/>
      </g>
     </g>
    </g>
    <g id="ytick_6">
     <g id="line2d_15">
      <g>
       <use xlink:href="#me5b5cad63d" x="38.420552" y="83.434354" style="stroke: #000000; stroke-width: 0.8"/>
      </g>
     </g>
     <g id="text_16">
      <!-- 4 -->
      <g transform="translate(25.058052 87.233573) scale(0.1 -0.1)">
       <use xlink:href="#DejaVuSans-34"/>
      </g>
     </g>
    </g>
    <g id="ytick_7">
     <g id="line2d_16">
      <g>
       <use xlink:href="#me5b5cad63d" x="38.420552" y="20.961063" style="stroke: #000000; stroke-width: 0.8"/>
      </g>
     </g>
     <g id="text_17">
      <!-- 6 -->
      <g transform="translate(25.058052 24.760281) scale(0.1 -0.1)">
       <use xlink:href="#DejaVuSans-36"/>
      </g>
     </g>
    </g>
    <g id="text_18">
     <!-- µV -->
     <g transform="translate(10.598677 214.9825) rotate(-90) scale(0.1 -0.1)">
      <defs>
       <path id="DejaVuSans-b5" d="M 544 -1331 
L 544 3500 
L 1119 3500 
L 1119 1325 
Q 1119 872 1334 640 
Q 1550 409 1972 409 
Q 2434 409 2667 671 
Q 2900 934 2900 1459 
L 2900 3500 
L 3475 3500 
L 3475 806 
Q 3475 619 3529 530 
Q 3584 441 3700 441 
Q 3728 441 3778 458 
Q 3828 475 3916 513 
L 3916 50 
Q 3788 -22 3673 -56 
Q 3559 -91 3450 -91 
Q 3234 -91 3106 31 
Q 2978 153 2931 403 
Q 2775 156 2548 32 
Q 2322 -91 2016 -91 
Q 1697 -91 1473 31 
Q 1250 153 1119 397 
L 1119 -1331 
L 544 -1331 
z
" transform="scale(0.015625)"/>
       <path id="DejaVuSans-56" d="M 1831 0 
L 50 4666 
L 709 4666 
L 2188 738 
L 3669 4666 
L 4325 4666 
L 2547 0 
L 1831 0 
z
" transform="scale(0.015625)"/>
      </defs>
      <use xlink:href="#DejaVuSans-b5"/>
      <use xlink:href="#DejaVuSans-56" transform="translate(63.623047 0)"/>
     </g>
    </g>
   </g>
   <g id="patch_4">
    <path d="M 38.693039 398.64351 
L 561.866948 398.64351 
" style="fill: none; stroke: #000000; stroke-width: 0.8; stroke-linejoin: miter; stroke-linecap: square"/>
   </g>
   <g id="patch_5">
    <path d="M 38.420552 208.380938 
L 561.866948 208.380938 
" style="fill: none; stroke: #000000; stroke-width: 0.8; stroke-linejoin: miter; stroke-linecap: square"/>
   </g>
   <g id="text_19">
    <!-- Oz, O1, O2 (median) -->
    <g transform="translate(238.4825 12.118365) scale(0.12 -0.12)">
     <defs>
      <path id="DejaVuSans-4f" d="M 2522 4238 
Q 1834 4238 1429 3725 
Q 1025 3213 1025 2328 
Q 1025 1447 1429 934 
Q 1834 422 2522 422 
Q 3209 422 3611 934 
Q 4013 1447 4013 2328 
Q 4013 3213 3611 3725 
Q 3209 4238 2522 4238 
z
M 2522 4750 
Q 3503 4750 4090 4092 
Q 4678 3434 4678 2328 
Q 4678 1225 4090 567 
Q 3503 -91 2522 -91 
Q 1538 -91 948 565 
Q 359 1222 359 2328 
Q 359 3434 948 4092 
Q 1538 4750 2522 4750 
z
" transform="scale(0.015625)"/>
      <path id="DejaVuSans-7a" d="M 353 3500 
L 3084 3500 
L 3084 2975 
L 922 459 
L 3084 459 
L 3084 0 
L 275 0 
L 275 525 
L 2438 3041 
L 353 3041 
L 353 3500 
z
" transform="scale(0.015625)"/>
      <path id="DejaVuSans-2c" d="M 750 794 
L 1409 794 
L 1409 256 
L 897 -744 
L 494 -744 
L 750 256 
L 750 794 
z
" transform="scale(0.015625)"/>
      <path id="DejaVuSans-64" d="M 2906 2969 
L 2906 4863 
L 3481 4863 
L 3481 0 
L 2906 0 
L 2906 525 
Q 2725 213 2448 61 
Q 2172 -91 1784 -91 
Q 1150 -91 751 415 
Q 353 922 353 1747 
Q 353 2572 751 3078 
Q 1150 3584 1784 3584 
Q 2172 3584 2448 3432 
Q 2725 3281 2906 2969 
z
M 947 1747 
Q 947 1113 1208 752 
Q 1469 391 1925 391 
Q 2381 391 2643 752 
Q 2906 1113 2906 1747 
Q 2906 2381 2643 2742 
Q 2381 3103 1925 3103 
Q 1469 3103 1208 2742 
Q 947 2381 947 1747 
z
" transform="scale(0.015625)"/>
      <path id="DejaVuSans-61" d="M 2194 1759 
Q 1497 1759 1228 1600 
Q 959 1441 959 1056 
Q 959 750 1161 570 
Q 1363 391 1709 391 
Q 2188 391 2477 730 
Q 2766 1069 2766 1631 
L 2766 1759 
L 2194 1759 
z
M 3341 1997 
L 3341 0 
L 2766 0 
L 2766 531 
Q 2569 213 2275 61 
Q 1981 -91 1556 -91 
Q 1019 -91 701 211 
Q 384 513 384 1019 
Q 384 1609 779 1909 
Q 1175 2209 1959 2209 
L 2766 2209 
L 2766 2266 
Q 2766 2663 2505 2880 
Q 2244 3097 1772 3097 
Q 1472 3097 1187 3025 
Q 903 2953 641 2809 
L 641 3341 
Q 956 3463 1253 3523 
Q 1550 3584 1831 3584 
Q 2591 3584 2966 3190 
Q 3341 2797 3341 1997 
z
" transform="scale(0.015625)"/>
      <path id="DejaVuSans-6e" d="M 3513 2113 
L 3513 0 
L 2938 0 
L 2938 2094 
Q 2938 2591 2744 2837 
Q 2550 3084 2163 3084 
Q 1697 3084 1428 2787 
Q 1159 2491 1159 1978 
L 1159 0 
L 581 0 
L 581 3500 
L 1159 3500 
L 1159 2956 
Q 1366 3272 1645 3428 
Q 1925 3584 2291 3584 
Q 2894 3584 3203 3211 
Q 3513 2838 3513 2113 
z
" transform="scale(0.015625)"/>
     </defs>
     <use xlink:href="#DejaVuSans-4f"/>
     <use xlink:href="#DejaVuSans-7a" transform="translate(78.710938 0)"/>
     <use xlink:href="#DejaVuSans-2c" transform="translate(131.201172 0)"/>
     <use xlink:href="#DejaVuSans-20" transform="translate(162.988281 0)"/>
     <use xlink:href="#DejaVuSans-4f" transform="translate(194.775391 0)"/>
     <use xlink:href="#DejaVuSans-31" transform="translate(273.486328 0)"/>
     <use xlink:href="#DejaVuSans-2c" transform="translate(337.109375 0)"/>
     <use xlink:href="#DejaVuSans-20" transform="translate(368.896484 0)"/>
     <use xlink:href="#DejaVuSans-4f" transform="translate(400.683594 0)"/>
     <use xlink:href="#DejaVuSans-32" transform="translate(479.394531 0)"/>
     <use xlink:href="#DejaVuSans-20" transform="translate(543.017578 0)"/>
     <use xlink:href="#DejaVuSans-28" transform="translate(574.804688 0)"/>
     <use xlink:href="#DejaVuSans-6d" transform="translate(613.818359 0)"/>
     <use xlink:href="#DejaVuSans-65" transform="translate(711.230469 0)"/>
     <use xlink:href="#DejaVuSans-64" transform="translate(772.753906 0)"/>
     <use xlink:href="#DejaVuSans-69" transform="translate(836.230469 0)"/>
     <use xlink:href="#DejaVuSans-61" transform="translate(864.013672 0)"/>
     <use xlink:href="#DejaVuSans-6e" transform="translate(925.292969 0)"/>
     <use xlink:href="#DejaVuSans-29" transform="translate(988.671875 0)"/>
    </g>
   </g>
   <g id="legend_1">
    <g id="patch_6">
     <path d="M 45.420552 55.75274 
L 126.56274 55.75274 
Q 128.56274 55.75274 128.56274 53.75274 
L 128.56274 25.118365 
Q 128.56274 23.118365 126.56274 23.118365 
L 45.420552 23.118365 
Q 43.420552 23.118365 43.420552 25.118365 
L 43.420552 53.75274 
Q 43.420552 55.75274 45.420552 55.75274 
z
" style="fill: #ffffff; opacity: 0.8; stroke: #cccccc; stroke-linejoin: miter"/>
    </g>
    <g id="line2d_17">
     <path d="M 47.420552 31.216803 
L 57.420552 31.216803 
L 67.420552 31.216803 
" style="fill: none; stroke: #1f77b4; stroke-width: 1.5; stroke-linecap: square"/>
    </g>
    <g id="text_20">
     <!-- eerie -->
     <g transform="translate(75.420552 34.716803) scale(0.1 -0.1)">
      <defs>
       <path id="DejaVuSans-72" d="M 2631 2963 
Q 2534 3019 2420 3045 
Q 2306 3072 2169 3072 
Q 1681 3072 1420 2755 
Q 1159 2438 1159 1844 
L 1159 0 
L 581 0 
L 581 3500 
L 1159 3500 
L 1159 2956 
Q 1341 3275 1631 3429 
Q 1922 3584 2338 3584 
Q 2397 3584 2469 3576 
Q 2541 3569 2628 3553 
L 2631 2963 
z
" transform="scale(0.015625)"/>
      </defs>
      <use xlink:href="#DejaVuSans-65"/>
      <use xlink:href="#DejaVuSans-65" transform="translate(61.523438 0)"/>
      <use xlink:href="#DejaVuSans-72" transform="translate(123.046875 0)"/>
      <use xlink:href="#DejaVuSans-69" transform="translate(164.160156 0)"/>
      <use xlink:href="#DejaVuSans-65" transform="translate(191.943359 0)"/>
     </g>
    </g>
    <g id="line2d_18">
     <path d="M 47.420552 45.894928 
L 57.420552 45.894928 
L 67.420552 45.894928 
" style="fill: none; stroke: #ff7f0e; stroke-width: 1.5; stroke-linecap: square"/>
    </g>
    <g id="text_21">
     <!-- non_eerie -->
     <g transform="translate(75.420552 49.394928) scale(0.1 -0.1)">
      <defs>
       <path id="DejaVuSans-6f" d="M 1959 3097 
Q 1497 3097 1228 2736 
Q 959 2375 959 1747 
Q 959 1119 1226 758 
Q 1494 397 1959 397 
Q 2419 397 2687 759 
Q 2956 1122 2956 1747 
Q 2956 2369 2687 2733 
Q 2419 3097 1959 3097 
z
M 1959 3584 
Q 2709 3584 3137 3096 
Q 3566 2609 3566 1747 
Q 3566 888 3137 398 
Q 2709 -91 1959 -91 
Q 1206 -91 779 398 
Q 353 888 353 1747 
Q 353 2609 779 3096 
Q 1206 3584 1959 3584 
z
" transform="scale(0.015625)"/>
       <path id="DejaVuSans-5f" d="M 3263 -1063 
L 3263 -1509 
L -63 -1509 
L -63 -1063 
L 3263 -1063 
z
" transform="scale(0.015625)"/>
      </defs>
      <use xlink:href="#DejaVuSans-6e"/>
      <use xlink:href="#DejaVuSans-6f" transform="translate(63.378906 0)"/>
      <use xlink:href="#DejaVuSans-6e" transform="translate(124.560547 0)"/>
      <use xlink:href="#DejaVuSans-5f" transform="translate(187.939453 0)"/>
      <use xlink:href="#DejaVuSans-65" transform="translate(237.939453 0)"/>
      <use xlink:href="#DejaVuSans-65" transform="translate(299.462891 0)"/>
      <use xlink:href="#DejaVuSans-72" transform="translate(360.986328 0)"/>
      <use xlink:href="#DejaVuSans-69" transform="translate(402.099609 0)"/>
      <use xlink:href="#DejaVuSans-65" transform="translate(429.882812 0)"/>
     </g>
    </g>
   </g>
   <g id="FillBetweenPolyCollection_1">
    <defs>
     <path id="m388a794074" d="M 38.420552 -241.303043 
L 38.420552 -231.410132 
L 40.123593 -233.163096 
L 41.826633 -232.267957 
L 43.529673 -229.150334 
L 45.232713 -225.321544 
L 46.935753 -221.080916 
L 48.638793 -217.065363 
L 50.341833 -213.575447 
L 52.044873 -210.209862 
L 53.747913 -209.235649 
L 55.450953 -209.844912 
L 57.153993 -211.885952 
L 58.857033 -215.434021 
L 60.560073 -219.977382 
L 62.263113 -224.49215 
L 63.966154 -228.748379 
L 65.669194 -231.878871 
L 67.372234 -233.549261 
L 69.075274 -233.395942 
L 70.778314 -232.166324 
L 72.481354 -230.622883 
L 74.184394 -229.392868 
L 75.887434 -228.835645 
L 77.590474 -227.93518 
L 79.293514 -225.960526 
L 80.996554 -222.696041 
L 82.699594 -219.497265 
L 84.402634 -217.240591 
L 86.105674 -216.394056 
L 87.808714 -215.601365 
L 89.511755 -213.438214 
L 91.214795 -209.236402 
L 92.917835 -204.615735 
L 94.620875 -201.854061 
L 96.323915 -203.287324 
L 98.026955 -209.583852 
L 99.729995 -217.912609 
L 101.433035 -224.824449 
L 103.136075 -227.911249 
L 104.839115 -226.865031 
L 106.542155 -224.165216 
L 108.245195 -221.966486 
L 109.948235 -222.102978 
L 111.651275 -223.729824 
L 113.354315 -224.538196 
L 115.057356 -222.531955 
L 116.760396 -217.783213 
L 118.463436 -212.200113 
L 120.166476 -208.432468 
L 121.869516 -208.046367 
L 123.572556 -210.272853 
L 125.275596 -213.342116 
L 126.978636 -214.534546 
L 128.681676 -213.087325 
L 130.384716 -209.773272 
L 132.087756 -206.196111 
L 133.790796 -203.994774 
L 135.493836 -204.271459 
L 137.196876 -205.826365 
L 138.899916 -207.636369 
L 140.602957 -208.132168 
L 142.305997 -206.214975 
L 144.009037 -203.188342 
L 145.712077 -200.842368 
L 147.415117 -200.307655 
L 149.118157 -202.026559 
L 150.821197 -204.766832 
L 152.524237 -206.86941 
L 154.227277 -207.480205 
L 155.930317 -206.82338 
L 157.633357 -206.470376 
L 159.336397 -209.094881 
L 161.039437 -215.922652 
L 162.742477 -225.808105 
L 164.445517 -236.292243 
L 166.148558 -244.854107 
L 167.851598 -250.548788 
L 169.554638 -253.209163 
L 171.257678 -253.529997 
L 172.960718 -251.913088 
L 174.663758 -247.783958 
L 176.366798 -239.143671 
L 178.069838 -225.999507 
L 179.772878 -209.637062 
L 181.475918 -191.050728 
L 183.178958 -172.11533 
L 184.881998 -151.870133 
L 186.585038 -130.224818 
L 188.288078 -106.039906 
L 189.991118 -80.435231 
L 191.694159 -57.479645 
L 193.397199 -41.279527 
L 195.100239 -33.517738 
L 196.803279 -33.832623 
L 198.506319 -37.873927 
L 200.209359 -41.575228 
L 201.912399 -42.504841 
L 203.615439 -42.889121 
L 205.318479 -46.16266 
L 207.021519 -56.306832 
L 208.724559 -75.291704 
L 210.427599 -100.170659 
L 212.130639 -125.979011 
L 213.833679 -148.616332 
L 215.536719 -165.733977 
L 217.23976 -179.196275 
L 218.9428 -191.786648 
L 220.64584 -205.793427 
L 222.34888 -219.587098 
L 224.05192 -230.811134 
L 225.75496 -235.858101 
L 227.458 -234.815516 
L 229.16104 -229.388615 
L 230.86408 -224.339518 
L 232.56712 -222.202928 
L 234.27016 -224.735358 
L 235.9732 -229.163244 
L 237.67624 -232.322705 
L 239.37928 -231.783802 
L 241.08232 -228.10788 
L 242.785361 -222.718473 
L 244.488401 -218.361262 
L 246.191441 -216.626489 
L 247.894481 -218.251596 
L 249.597521 -222.466369 
L 251.300561 -228.719692 
L 253.003601 -235.788085 
L 254.706641 -242.005069 
L 256.409681 -246.500171 
L 258.112721 -247.717125 
L 259.815761 -245.852223 
L 261.518801 -242.552823 
L 263.221841 -239.848843 
L 264.924881 -237.904456 
L 266.627921 -236.912786 
L 268.330962 -233.800101 
L 270.034002 -227.053219 
L 271.737042 -216.993016 
L 273.440082 -205.866418 
L 275.143122 -196.407904 
L 276.846162 -191.416124 
L 278.549202 -191.233875 
L 280.252242 -193.463857 
L 281.955282 -195.049167 
L 283.658322 -194.386218 
L 285.361362 -192.661168 
L 287.064402 -191.023141 
L 288.767442 -191.099096 
L 290.470482 -192.724243 
L 292.173522 -195.817653 
L 293.876563 -198.819512 
L 295.579603 -201.927432 
L 297.282643 -204.948808 
L 298.985683 -209.15126 
L 300.688723 -213.650833 
L 302.391763 -217.193251 
L 304.094803 -218.840445 
L 305.797843 -218.693717 
L 307.500883 -218.027804 
L 309.203923 -219.490017 
L 310.906963 -224.268481 
L 312.610003 -231.69293 
L 314.313043 -240.015536 
L 316.016083 -246.648239 
L 317.719123 -249.237582 
L 319.422164 -249.436144 
L 321.125204 -249.365897 
L 322.828244 -251.344931 
L 324.531284 -255.870823 
L 326.234324 -262.29248 
L 327.937364 -268.261639 
L 329.640404 -272.182322 
L 331.343444 -272.784809 
L 333.046484 -271.593885 
L 334.749524 -271.122447 
L 336.452564 -272.063961 
L 338.155604 -275.401811 
L 339.858644 -278.626475 
L 341.561684 -279.156405 
L 343.264724 -276.194304 
L 344.967765 -270.919821 
L 346.670805 -266.113991 
L 348.373845 -262.35499 
L 350.076885 -259.06602 
L 351.779925 -254.371284 
L 353.482965 -246.953777 
L 355.186005 -236.97934 
L 356.889045 -226.211213 
L 358.592085 -219.091187 
L 360.295125 -217.089535 
L 361.998165 -218.192305 
L 363.701205 -219.117438 
L 365.404245 -215.948849 
L 367.107285 -208.068923 
L 368.810326 -197.837808 
L 370.513366 -189.182844 
L 372.216406 -186.263861 
L 373.919446 -188.44322 
L 375.622486 -193.168603 
L 377.325526 -195.93539 
L 379.028566 -194.352271 
L 380.731606 -188.303065 
L 382.434646 -181.073508 
L 384.137686 -176.240588 
L 385.840726 -176.184907 
L 387.543766 -180.486669 
L 389.246806 -185.896171 
L 390.949846 -187.810875 
L 392.652886 -184.740508 
L 394.355927 -176.359467 
L 396.058967 -165.380635 
L 397.762007 -154.901623 
L 399.465047 -148.145852 
L 401.168087 -146.342717 
L 402.871127 -147.041758 
L 404.574167 -147.891265 
L 406.277207 -146.138672 
L 407.980247 -141.006649 
L 409.683287 -133.494471 
L 411.386327 -126.470884 
L 413.089367 -121.989983 
L 414.792407 -120.171817 
L 416.495447 -118.939115 
L 418.198487 -117.852697 
L 419.901528 -116.244438 
L 421.604568 -113.447947 
L 423.307608 -109.723552 
L 425.010648 -106.354555 
L 426.713688 -103.621127 
L 428.416728 -100.130282 
L 430.119768 -95.419754 
L 431.822808 -90.657126 
L 433.525848 -86.749851 
L 435.228888 -84.99889 
L 436.931928 -86.088956 
L 438.634968 -89.724907 
L 440.338008 -94.877074 
L 442.041048 -99.780556 
L 443.744088 -102.87282 
L 445.447129 -104.753717 
L 447.150169 -104.329648 
L 448.853209 -102.313055 
L 450.556249 -99.37749 
L 452.259289 -97.355642 
L 453.962329 -97.27808 
L 455.665369 -98.159795 
L 457.368409 -98.594153 
L 459.071449 -97.49022 
L 460.774489 -94.133092 
L 462.477529 -88.503646 
L 464.180569 -82.862552 
L 465.883609 -78.959804 
L 467.586649 -77.776217 
L 469.289689 -79.244603 
L 470.99273 -81.213419 
L 472.69577 -82.114415 
L 474.39881 -81.445078 
L 476.10185 -78.91982 
L 477.80489 -76.694406 
L 479.50793 -75.600288 
L 481.21097 -75.470723 
L 482.91401 -76.410006 
L 484.61705 -77.623409 
L 486.32009 -79.425208 
L 488.02313 -81.815619 
L 489.72617 -83.998978 
L 491.42921 -84.504433 
L 493.13225 -82.156972 
L 494.83529 -77.414624 
L 496.538331 -71.945398 
L 498.241371 -68.123868 
L 499.944411 -69.712357 
L 501.647451 -76.463645 
L 503.350491 -85.564591 
L 505.053531 -92.987065 
L 506.756571 -94.516503 
L 508.459611 -89.333475 
L 510.162651 -80.697571 
L 511.865691 -72.805655 
L 513.568731 -69.446238 
L 515.271771 -72.381655 
L 516.974811 -79.616149 
L 518.677851 -88.429272 
L 520.380891 -96.386341 
L 522.083932 -102.82906 
L 523.786972 -107.304803 
L 525.490012 -109.663414 
L 527.193052 -109.412792 
L 528.896092 -105.08133 
L 530.599132 -98.152763 
L 532.302172 -90.910329 
L 534.005212 -87.204897 
L 535.708252 -89.795967 
L 537.411292 -96.893315 
L 539.114332 -104.249864 
L 540.817372 -108.32223 
L 542.520412 -106.493734 
L 544.223452 -100.967339 
L 545.926492 -94.821549 
L 547.629533 -92.395448 
L 549.332573 -93.68778 
L 551.035613 -98.436894 
L 552.738653 -102.667651 
L 554.441693 -104.384227 
L 556.144733 -102.303554 
L 557.847773 -99.219475 
L 559.550813 -96.780678 
L 561.253853 -96.657095 
L 561.253853 -113.879026 
L 561.253853 -113.879026 
L 559.550813 -114.40455 
L 557.847773 -117.190415 
L 556.144733 -119.996994 
L 554.441693 -121.386175 
L 552.738653 -119.845969 
L 551.035613 -115.719736 
L 549.332573 -111.165529 
L 547.629533 -109.72714 
L 545.926492 -112.534176 
L 544.223452 -118.415664 
L 542.520412 -123.821769 
L 540.817372 -125.143255 
L 539.114332 -121.098203 
L 537.411292 -114.385069 
L 535.708252 -107.616736 
L 534.005212 -105.626488 
L 532.302172 -109.196281 
L 530.599132 -116.436438 
L 528.896092 -123.68125 
L 527.193052 -127.711173 
L 525.490012 -128.189477 
L 523.786972 -125.945846 
L 522.083932 -121.627418 
L 520.380891 -114.939614 
L 518.677851 -107.267173 
L 516.974811 -98.458184 
L 515.271771 -91.322185 
L 513.568731 -88.532469 
L 511.865691 -91.488082 
L 510.162651 -99.830951 
L 508.459611 -108.682689 
L 506.756571 -114.03051 
L 505.053531 -112.416484 
L 503.350491 -105.014466 
L 501.647451 -96.017124 
L 499.944411 -88.97727 
L 498.241371 -87.51476 
L 496.538331 -91.47704 
L 494.83529 -97.660894 
L 493.13225 -102.542677 
L 491.42921 -104.738864 
L 489.72617 -103.94774 
L 488.02313 -101.734341 
L 486.32009 -99.313523 
L 484.61705 -97.189904 
L 482.91401 -95.3276 
L 481.21097 -94.061865 
L 479.50793 -93.72834 
L 477.80489 -95.077518 
L 476.10185 -97.658693 
L 474.39881 -100.351176 
L 472.69577 -101.157595 
L 470.99273 -100.194996 
L 469.289689 -97.848547 
L 467.586649 -95.502982 
L 465.883609 -95.885836 
L 464.180569 -99.661264 
L 462.477529 -105.535817 
L 460.774489 -111.570234 
L 459.071449 -115.50943 
L 457.368409 -116.644885 
L 455.665369 -115.950911 
L 453.962329 -114.836576 
L 452.259289 -115.056077 
L 450.556249 -117.374357 
L 448.853209 -120.246483 
L 447.150169 -122.325131 
L 445.447129 -122.315649 
L 443.744088 -120.805385 
L 442.041048 -117.756348 
L 440.338008 -113.172049 
L 438.634968 -108.533201 
L 436.931928 -105.284313 
L 435.228888 -104.026993 
L 433.525848 -105.643355 
L 431.822808 -108.748165 
L 430.119768 -113.152098 
L 428.416728 -117.766942 
L 426.713688 -121.455733 
L 425.010648 -124.748028 
L 423.307608 -128.290527 
L 421.604568 -131.648345 
L 419.901528 -134.143574 
L 418.198487 -135.395707 
L 416.495447 -135.511026 
L 414.792407 -136.157526 
L 413.089367 -138.069052 
L 411.386327 -142.916277 
L 409.683287 -150.520731 
L 407.980247 -158.030407 
L 406.277207 -163.242227 
L 404.574167 -164.610279 
L 402.871127 -163.286731 
L 401.168087 -162.130358 
L 399.465047 -163.998703 
L 397.762007 -170.905595 
L 396.058967 -181.624643 
L 394.355927 -192.762052 
L 392.652886 -200.843924 
L 390.949846 -203.909477 
L 389.246806 -201.808229 
L 387.543766 -196.872681 
L 385.840726 -193.2946 
L 384.137686 -193.498897 
L 382.434646 -198.310488 
L 380.731606 -205.226993 
L 379.028566 -211.044372 
L 377.325526 -212.217523 
L 375.622486 -209.570747 
L 373.919446 -205.1589 
L 372.216406 -202.945381 
L 370.513366 -205.958799 
L 368.810326 -214.408115 
L 367.107285 -224.787278 
L 365.404245 -232.734379 
L 363.701205 -235.712713 
L 361.998165 -234.822332 
L 360.295125 -233.949307 
L 358.592085 -236.43648 
L 356.889045 -243.686445 
L 355.186005 -254.541892 
L 353.482965 -264.980778 
L 351.779925 -272.445797 
L 350.076885 -277.177544 
L 348.373845 -280.738666 
L 346.670805 -285.018767 
L 344.967765 -290.286573 
L 343.264724 -295.487454 
L 341.561684 -298.416333 
L 339.858644 -297.868788 
L 338.155604 -294.850614 
L 336.452564 -291.622563 
L 334.749524 -290.299725 
L 333.046484 -290.716593 
L 331.343444 -292.041537 
L 329.640404 -292.081555 
L 327.937364 -288.81149 
L 326.234324 -282.527985 
L 324.531284 -275.332417 
L 322.828244 -270.532462 
L 321.125204 -267.940825 
L 319.422164 -267.686343 
L 317.719123 -267.414138 
L 316.016083 -264.805813 
L 314.313043 -258.255326 
L 312.610003 -250.094224 
L 310.906963 -242.244066 
L 309.203923 -237.143137 
L 307.500883 -235.43559 
L 305.797843 -236.048945 
L 304.094803 -236.105049 
L 302.391763 -234.573062 
L 300.688723 -231.023472 
L 298.985683 -226.691734 
L 297.282643 -222.655337 
L 295.579603 -220.111074 
L 293.876563 -217.060291 
L 292.173522 -213.749465 
L 290.470482 -210.388514 
L 288.767442 -208.24079 
L 287.064402 -207.64152 
L 285.361362 -209.059994 
L 283.658322 -210.940663 
L 281.955282 -211.51056 
L 280.252242 -210.507357 
L 278.549202 -208.687811 
L 276.846162 -208.44599 
L 275.143122 -213.237229 
L 273.440082 -222.60117 
L 271.737042 -234.179988 
L 270.034002 -244.708219 
L 268.330962 -251.399662 
L 266.627921 -254.526615 
L 264.924881 -255.494406 
L 263.221841 -256.603789 
L 261.518801 -258.868632 
L 259.815761 -261.529347 
L 258.112721 -263.507942 
L 256.409681 -262.439826 
L 254.706641 -258.321806 
L 253.003601 -251.910628 
L 251.300561 -244.588344 
L 249.597521 -237.829215 
L 247.894481 -233.605683 
L 246.191441 -232.21769 
L 244.488401 -234.60822 
L 242.785361 -239.395689 
L 241.08232 -245.027404 
L 239.37928 -248.965145 
L 237.67624 -249.222653 
L 235.9732 -245.867299 
L 234.27016 -241.034928 
L 232.56712 -238.391686 
L 230.86408 -240.374658 
L 229.16104 -245.484829 
L 227.458 -250.367196 
L 225.75496 -250.972318 
L 224.05192 -245.889623 
L 222.34888 -234.847867 
L 220.64584 -221.09935 
L 218.9428 -207.230587 
L 217.23976 -194.174527 
L 215.536719 -180.166835 
L 213.833679 -162.947765 
L 212.130639 -140.070734 
L 210.427599 -114.043484 
L 208.724559 -89.181688 
L 207.021519 -70.588324 
L 205.318479 -59.975232 
L 203.615439 -56.268042 
L 201.912399 -55.60195 
L 200.209359 -54.48261 
L 198.506319 -50.784681 
L 196.803279 -46.636472 
L 195.100239 -46.547207 
L 193.397199 -54.30332 
L 191.694159 -70.551143 
L 189.991118 -93.286648 
L 188.288078 -118.502386 
L 186.585038 -142.588433 
L 184.881998 -164.325714 
L 183.178958 -184.210226 
L 181.475918 -203.257035 
L 179.772878 -221.670143 
L 178.069838 -238.139615 
L 176.366798 -251.19128 
L 174.663758 -259.994476 
L 172.960718 -264.395242 
L 171.257678 -266.059522 
L 169.554638 -265.618393 
L 167.851598 -263.00412 
L 166.148558 -257.541129 
L 164.445517 -249.000522 
L 162.742477 -238.562261 
L 161.039437 -228.81156 
L 159.336397 -221.695302 
L 157.633357 -218.437357 
L 155.930317 -218.04222 
L 154.227277 -218.062785 
L 152.524237 -217.014809 
L 150.821197 -214.710875 
L 149.118157 -212.026368 
L 147.415117 -210.385814 
L 145.712077 -210.718978 
L 144.009037 -212.975676 
L 142.305997 -216.027412 
L 140.602957 -218.349232 
L 138.899916 -218.724738 
L 137.196876 -217.09666 
L 135.493836 -214.944427 
L 133.790796 -213.976355 
L 132.087756 -215.608188 
L 130.384716 -218.997407 
L 128.681676 -222.398195 
L 126.978636 -223.90763 
L 125.275596 -222.395206 
L 123.572556 -219.1848 
L 121.869516 -216.376525 
L 120.166476 -216.455516 
L 118.463436 -219.75676 
L 116.760396 -224.930892 
L 115.057356 -229.688546 
L 113.354315 -232.093279 
L 111.651275 -231.539211 
L 109.948235 -229.888438 
L 108.245195 -229.816577 
L 106.542155 -231.910698 
L 104.839115 -234.871049 
L 103.136075 -235.640092 
L 101.433035 -232.292358 
L 99.729995 -225.647612 
L 98.026955 -217.448873 
L 96.323915 -211.39726 
L 94.620875 -209.546369 
L 92.917835 -211.833665 
L 91.214795 -215.928326 
L 89.511755 -219.706973 
L 87.808714 -221.721596 
L 86.105674 -222.684829 
L 84.402634 -223.661912 
L 82.699594 -225.834114 
L 80.996554 -228.992156 
L 79.293514 -232.440248 
L 77.590474 -234.833522 
L 75.887434 -236.100585 
L 74.184394 -236.608215 
L 72.481354 -237.81885 
L 70.778314 -239.129013 
L 69.075274 -240.600703 
L 67.372234 -241.157754 
L 65.669194 -240.034217 
L 63.966154 -236.649956 
L 62.263113 -232.210798 
L 60.560073 -227.43557 
L 58.857033 -222.818372 
L 57.153993 -219.688613 
L 55.450953 -218.004767 
L 53.747913 -217.055412 
L 52.044873 -218.001971 
L 50.341833 -220.592413 
L 48.638793 -224.093751 
L 46.935753 -228.465177 
L 45.232713 -233.15668 
L 43.529673 -237.548683 
L 41.826633 -241.018919 
L 40.123593 -242.644852 
L 38.420552 -241.303043 
z
" style="stroke: #1f77b4; stroke-opacity: 0.3"/>
    </defs>
    <g>
     <use xlink:href="#m388a794074" x="0" y="432" style="fill: #1f77b4; fill-opacity: 0.3; stroke: #1f77b4; stroke-opacity: 0.3"/>
    </g>
   </g>
   <g id="FillBetweenPolyCollection_2">
    <defs>
     <path id="m35312b3392" d="M 38.420552 -224.133456 
L 38.420552 -215.139056 
L 40.123593 -212.796934 
L 41.826633 -216.389455 
L 43.529673 -222.837634 
L 45.232713 -227.229359 
L 46.935753 -227.325756 
L 48.638793 -223.531511 
L 50.341833 -219.742778 
L 52.044873 -219.391939 
L 53.747913 -224.001582 
L 55.450953 -232.068021 
L 57.153993 -239.113351 
L 58.857033 -242.164113 
L 60.560073 -240.806653 
L 62.263113 -235.949381 
L 63.966154 -231.322072 
L 65.669194 -229.463347 
L 67.372234 -230.401434 
L 69.075274 -231.587049 
L 70.778314 -230.57132 
L 72.481354 -227.437167 
L 74.184394 -224.144036 
L 75.887434 -222.220001 
L 77.590474 -222.965566 
L 79.293514 -225.512048 
L 80.996554 -227.54603 
L 82.699594 -226.924036 
L 84.402634 -223.936624 
L 86.105674 -219.778912 
L 87.808714 -217.686871 
L 89.511755 -218.715861 
L 91.214795 -221.216462 
L 92.917835 -222.654509 
L 94.620875 -221.66424 
L 96.323915 -217.821646 
L 98.026955 -213.07007 
L 99.729995 -209.018606 
L 101.433035 -206.953165 
L 103.136075 -207.300973 
L 104.839115 -209.164633 
L 106.542155 -211.580121 
L 108.245195 -213.151922 
L 109.948235 -214.062255 
L 111.651275 -214.150657 
L 113.354315 -213.35368 
L 115.057356 -211.253279 
L 116.760396 -208.604139 
L 118.463436 -205.455563 
L 120.166476 -202.353061 
L 121.869516 -199.409508 
L 123.572556 -197.349199 
L 125.275596 -195.917037 
L 126.978636 -195.681729 
L 128.681676 -196.464591 
L 130.384716 -197.431727 
L 132.087756 -197.307006 
L 133.790796 -194.807104 
L 135.493836 -188.952503 
L 137.196876 -181.798338 
L 138.899916 -174.684636 
L 140.602957 -169.426737 
L 142.305997 -166.557298 
L 144.009037 -165.085987 
L 145.712077 -164.08065 
L 147.415117 -163.337163 
L 149.118157 -162.966277 
L 150.821197 -164.325761 
L 152.524237 -167.051772 
L 154.227277 -169.711314 
L 155.930317 -171.287872 
L 157.633357 -171.717802 
L 159.336397 -173.287487 
L 161.039437 -178.421919 
L 162.742477 -188.326736 
L 164.445517 -201.320421 
L 166.148558 -213.17658 
L 167.851598 -219.723864 
L 169.554638 -218.356761 
L 171.257678 -211.05638 
L 172.960718 -200.488745 
L 174.663758 -190.230498 
L 176.366798 -182.00968 
L 178.069838 -173.46537 
L 179.772878 -160.945717 
L 181.475918 -143.218858 
L 183.178958 -120.507234 
L 184.881998 -96.949192 
L 186.585038 -75.869196 
L 188.288078 -59.996224 
L 189.991118 -49.787777 
L 191.694159 -43.342467 
L 193.397199 -39.369992 
L 195.100239 -36.351188 
L 196.803279 -34.105485 
L 198.506319 -33.35649 
L 200.209359 -35.487425 
L 201.912399 -40.212761 
L 203.615439 -47.730279 
L 205.318479 -58.209349 
L 207.021519 -72.578239 
L 208.724559 -90.515568 
L 210.427599 -111.942018 
L 212.130639 -136.177824 
L 213.833679 -160.398623 
L 215.536719 -181.466401 
L 217.23976 -197.601173 
L 218.9428 -208.313807 
L 220.64584 -214.43909 
L 222.34888 -218.139714 
L 224.05192 -220.510797 
L 225.75496 -222.15389 
L 227.458 -222.553434 
L 229.16104 -220.306342 
L 230.86408 -214.828029 
L 232.56712 -206.66321 
L 234.27016 -197.796557 
L 235.9732 -190.052239 
L 237.67624 -185.245009 
L 239.37928 -183.835317 
L 241.08232 -185.294837 
L 242.785361 -188.384522 
L 244.488401 -193.38257 
L 246.191441 -199.710327 
L 247.894481 -207.37884 
L 249.597521 -215.504166 
L 251.300561 -222.712341 
L 253.003601 -229.191534 
L 254.706641 -234.325271 
L 256.409681 -238.562825 
L 258.112721 -243.210184 
L 259.815761 -248.367011 
L 261.518801 -252.833388 
L 263.221841 -254.211465 
L 264.924881 -251.404738 
L 266.627921 -244.571306 
L 268.330962 -236.143943 
L 270.034002 -228.254104 
L 271.737042 -221.737092 
L 273.440082 -216.150262 
L 275.143122 -210.016899 
L 276.846162 -203.084822 
L 278.549202 -196.072668 
L 280.252242 -191.730559 
L 281.955282 -190.052056 
L 283.658322 -190.51953 
L 285.361362 -191.305938 
L 287.064402 -191.102246 
L 288.767442 -189.007197 
L 290.470482 -186.297514 
L 292.173522 -185.057151 
L 293.876563 -185.729037 
L 295.579603 -187.896464 
L 297.282643 -189.820287 
L 298.985683 -189.548041 
L 300.688723 -188.365089 
L 302.391763 -189.086802 
L 304.094803 -192.363256 
L 305.797843 -199.282998 
L 307.500883 -207.010857 
L 309.203923 -211.7758 
L 310.906963 -211.998632 
L 312.610003 -209.116203 
L 314.313043 -205.115922 
L 316.016083 -203.140881 
L 317.719123 -203.838099 
L 319.422164 -205.95411 
L 321.125204 -208.381899 
L 322.828244 -210.113789 
L 324.531284 -211.251032 
L 326.234324 -213.549376 
L 327.937364 -219.061236 
L 329.640404 -228.695671 
L 331.343444 -239.73317 
L 333.046484 -249.971796 
L 334.749524 -257.136301 
L 336.452564 -260.506514 
L 338.155604 -260.793905 
L 339.858644 -259.416809 
L 341.561684 -256.292672 
L 343.264724 -252.044342 
L 344.967765 -247.200879 
L 346.670805 -241.859768 
L 348.373845 -236.804615 
L 350.076885 -232.706434 
L 351.779925 -227.77089 
L 353.482965 -222.538431 
L 355.186005 -217.962667 
L 356.889045 -214.412136 
L 358.592085 -212.693903 
L 360.295125 -211.816973 
L 361.998165 -210.586217 
L 363.701205 -206.690994 
L 365.404245 -199.268833 
L 367.107285 -189.320102 
L 368.810326 -180.493423 
L 370.513366 -175.636295 
L 372.216406 -175.862724 
L 373.919446 -178.240537 
L 375.622486 -179.752739 
L 377.325526 -177.537984 
L 379.028566 -172.072912 
L 380.731606 -166.324369 
L 382.434646 -162.980727 
L 384.137686 -163.319434 
L 385.840726 -165.405461 
L 387.543766 -165.553935 
L 389.246806 -161.666611 
L 390.949846 -153.723781 
L 392.652886 -144.476758 
L 394.355927 -138.162318 
L 396.058967 -136.688176 
L 397.762007 -138.31539 
L 399.465047 -140.908155 
L 401.168087 -140.062104 
L 402.871127 -135.544653 
L 404.574167 -128.826331 
L 406.277207 -122.923987 
L 407.980247 -118.389902 
L 409.683287 -114.901138 
L 411.386327 -108.675281 
L 413.089367 -99.351094 
L 414.792407 -87.94437 
L 416.495447 -78.293161 
L 418.198487 -74.620304 
L 419.901528 -78.538165 
L 421.604568 -87.202115 
L 423.307608 -97.520671 
L 425.010648 -103.87341 
L 426.713688 -104.676119 
L 428.416728 -101.599956 
L 430.119768 -95.883159 
L 431.822808 -90.643804 
L 433.525848 -86.500628 
L 435.228888 -83.452758 
L 436.931928 -81.744351 
L 438.634968 -81.619274 
L 440.338008 -83.652383 
L 442.041048 -87.61693 
L 443.744088 -92.759094 
L 445.447129 -96.320226 
L 447.150169 -96.377476 
L 448.853209 -91.601607 
L 450.556249 -84.193206 
L 452.259289 -77.350123 
L 453.962329 -73.147906 
L 455.665369 -73.320154 
L 457.368409 -75.431361 
L 459.071449 -78.223198 
L 460.774489 -79.209334 
L 462.477529 -78.474436 
L 464.180569 -76.088589 
L 465.883609 -73.379973 
L 467.586649 -71.134986 
L 469.289689 -69.10537 
L 470.99273 -67.932545 
L 472.69577 -67.712939 
L 474.39881 -68.400425 
L 476.10185 -69.212209 
L 477.80489 -68.300206 
L 479.50793 -65.535358 
L 481.21097 -62.433297 
L 482.91401 -60.893456 
L 484.61705 -61.553984 
L 486.32009 -64.772676 
L 488.02313 -69.093404 
L 489.72617 -71.79176 
L 491.42921 -69.990691 
L 493.13225 -63.96532 
L 494.83529 -55.110997 
L 496.538331 -46.251962 
L 498.241371 -38.899847 
L 499.944411 -35.542382 
L 501.647451 -35.895784 
L 503.350491 -39.596131 
L 505.053531 -44.632709 
L 506.756571 -50.089219 
L 508.459611 -54.800266 
L 510.162651 -57.137991 
L 511.865691 -57.070582 
L 513.568731 -56.740276 
L 515.271771 -57.635722 
L 516.974811 -60.793453 
L 518.677851 -67.288652 
L 520.380891 -75.22422 
L 522.083932 -81.003384 
L 523.786972 -81.429007 
L 525.490012 -76.998938 
L 527.193052 -70.44528 
L 528.896092 -64.149411 
L 530.599132 -60.903674 
L 532.302172 -61.030474 
L 534.005212 -64.103065 
L 535.708252 -68.694463 
L 537.411292 -73.592931 
L 539.114332 -78.090862 
L 540.817372 -82.177068 
L 542.520412 -84.322058 
L 544.223452 -85.649991 
L 545.926492 -85.422886 
L 547.629533 -84.275269 
L 549.332573 -81.635024 
L 551.035613 -78.403034 
L 552.738653 -74.649955 
L 554.441693 -70.952726 
L 556.144733 -67.463513 
L 557.847773 -66.327715 
L 559.550813 -68.763725 
L 561.253853 -74.515376 
L 561.253853 -91.180104 
L 561.253853 -91.180104 
L 559.550813 -84.970321 
L 557.847773 -82.097111 
L 556.144733 -83.55267 
L 554.441693 -87.394008 
L 552.738653 -91.705409 
L 551.035613 -96.297674 
L 549.332573 -99.605503 
L 547.629533 -102.254382 
L 545.926492 -103.278557 
L 544.223452 -102.979694 
L 542.520412 -101.721449 
L 540.817372 -99.757483 
L 539.114332 -96.189535 
L 537.411292 -92.077381 
L 535.708252 -86.981055 
L 534.005212 -81.987075 
L 532.302172 -78.558395 
L 530.599132 -77.805452 
L 528.896092 -81.034093 
L 527.193052 -87.364901 
L 525.490012 -94.261131 
L 523.786972 -98.551777 
L 522.083932 -97.792555 
L 520.380891 -91.94113 
L 518.677851 -84.143598 
L 516.974811 -77.199162 
L 515.271771 -73.690435 
L 513.568731 -72.603492 
L 511.865691 -72.887425 
L 510.162651 -72.750507 
L 508.459611 -70.213758 
L 506.756571 -65.565801 
L 505.053531 -59.613234 
L 503.350491 -54.522459 
L 501.647451 -50.995065 
L 499.944411 -50.999201 
L 498.241371 -54.607216 
L 496.538331 -62.332202 
L 494.83529 -71.878709 
L 493.13225 -80.586768 
L 491.42921 -86.661417 
L 489.72617 -88.042206 
L 488.02313 -84.800604 
L 486.32009 -80.362894 
L 484.61705 -76.737675 
L 482.91401 -75.83261 
L 481.21097 -77.390502 
L 479.50793 -80.391727 
L 477.80489 -83.266756 
L 476.10185 -84.627906 
L 474.39881 -83.578541 
L 472.69577 -82.55957 
L 470.99273 -82.54824 
L 469.289689 -83.507037 
L 467.586649 -85.731401 
L 465.883609 -88.388648 
L 464.180569 -91.414706 
L 462.477529 -93.830498 
L 460.774489 -94.690488 
L 459.071449 -93.441944 
L 457.368409 -90.722997 
L 455.665369 -88.6894 
L 453.962329 -89.153996 
L 452.259289 -93.14908 
L 450.556249 -100.556444 
L 448.853209 -107.995227 
L 447.150169 -113.204304 
L 445.447129 -113.437439 
L 443.744088 -109.85389 
L 442.041048 -104.379816 
L 440.338008 -100.22819 
L 438.634968 -98.520208 
L 436.931928 -98.859386 
L 435.228888 -100.881566 
L 433.525848 -103.483695 
L 431.822808 -107.383867 
L 430.119768 -112.984036 
L 428.416728 -118.902053 
L 426.713688 -122.504244 
L 425.010648 -121.818409 
L 423.307608 -115.21866 
L 421.604568 -104.618637 
L 419.901528 -95.205961 
L 418.198487 -91.414411 
L 416.495447 -95.286964 
L 414.792407 -104.921736 
L 413.089367 -116.396559 
L 411.386327 -126.021182 
L 409.683287 -132.308408 
L 407.980247 -135.216182 
L 406.277207 -139.420156 
L 404.574167 -145.233817 
L 402.871127 -152.049182 
L 401.168087 -156.907782 
L 399.465047 -158.208649 
L 397.762007 -155.901144 
L 396.058967 -153.699105 
L 394.355927 -154.823369 
L 392.652886 -160.364456 
L 390.949846 -169.394486 
L 389.246806 -177.812349 
L 387.543766 -182.153898 
L 385.840726 -182.107066 
L 384.137686 -179.717228 
L 382.434646 -179.190581 
L 380.731606 -182.370829 
L 379.028566 -188.271802 
L 377.325526 -193.66883 
L 375.622486 -196.294013 
L 373.919446 -194.715634 
L 372.216406 -192.561161 
L 370.513366 -192.378256 
L 368.810326 -197.129429 
L 367.107285 -205.836666 
L 365.404245 -215.563971 
L 363.701205 -223.171408 
L 361.998165 -227.064259 
L 360.295125 -228.376335 
L 358.592085 -229.214879 
L 356.889045 -231.073947 
L 355.186005 -234.605599 
L 353.482965 -238.985843 
L 351.779925 -244.103137 
L 350.076885 -248.487128 
L 348.373845 -252.905285 
L 346.670805 -257.82453 
L 344.967765 -263.470219 
L 343.264724 -268.466152 
L 341.561684 -273.113966 
L 339.858644 -276.73958 
L 338.155604 -278.437115 
L 336.452564 -277.977864 
L 334.749524 -274.119582 
L 333.046484 -265.979582 
L 331.343444 -255.159369 
L 329.640404 -243.979179 
L 327.937364 -234.620792 
L 326.234324 -229.492265 
L 324.531284 -227.768591 
L 322.828244 -226.784887 
L 321.125204 -225.15752 
L 319.422164 -222.55823 
L 317.719123 -219.923975 
L 316.016083 -218.887724 
L 314.313043 -220.444293 
L 312.610003 -224.309228 
L 310.906963 -227.137799 
L 309.203923 -227.211461 
L 307.500883 -223.069565 
L 305.797843 -215.565677 
L 304.094803 -208.533285 
L 302.391763 -205.241418 
L 300.688723 -204.690157 
L 298.985683 -205.65712 
L 297.282643 -206.138856 
L 295.579603 -204.752549 
L 293.876563 -202.810681 
L 292.173522 -202.134759 
L 290.470482 -203.110826 
L 288.767442 -205.002397 
L 287.064402 -206.401968 
L 285.361362 -206.340366 
L 283.658322 -205.451179 
L 281.955282 -204.647756 
L 280.252242 -206.380045 
L 278.549202 -210.593835 
L 276.846162 -217.201322 
L 275.143122 -224.289658 
L 273.440082 -230.60215 
L 271.737042 -236.478183 
L 270.034002 -243.79548 
L 268.330962 -252.097041 
L 266.627921 -260.338377 
L 264.924881 -266.804529 
L 263.221841 -269.910647 
L 261.518801 -268.453203 
L 259.815761 -263.948394 
L 258.112721 -258.814169 
L 256.409681 -253.952282 
L 254.706641 -249.817049 
L 253.003601 -244.9766 
L 251.300561 -238.816877 
L 249.597521 -231.562897 
L 247.894481 -223.509727 
L 246.191441 -215.463464 
L 244.488401 -208.649003 
L 242.785361 -203.385824 
L 241.08232 -200.301102 
L 239.37928 -199.468039 
L 237.67624 -201.418409 
L 235.9732 -206.413529 
L 234.27016 -214.213994 
L 232.56712 -223.044178 
L 230.86408 -230.872872 
L 229.16104 -236.20138 
L 227.458 -238.265328 
L 225.75496 -237.590145 
L 224.05192 -235.452612 
L 222.34888 -233.119099 
L 220.64584 -229.44632 
L 218.9428 -223.899339 
L 217.23976 -213.333432 
L 215.536719 -196.976165 
L 213.833679 -175.578672 
L 212.130639 -151.374346 
L 210.427599 -126.181706 
L 208.724559 -103.924354 
L 207.021519 -86.031079 
L 205.318479 -72.060695 
L 203.615439 -61.341605 
L 201.912399 -53.743744 
L 200.209359 -48.786106 
L 198.506319 -46.689131 
L 196.803279 -46.988802 
L 195.100239 -49.071586 
L 193.397199 -52.480616 
L 191.694159 -56.528318 
L 189.991118 -63.256435 
L 188.288078 -73.64006 
L 186.585038 -89.215367 
L 184.881998 -110.401542 
L 183.178958 -134.394462 
L 181.475918 -157.019003 
L 179.772878 -174.441408 
L 178.069838 -186.330335 
L 176.366798 -194.420055 
L 174.663758 -202.582176 
L 172.960718 -212.705113 
L 171.257678 -223.363961 
L 169.554638 -231.356606 
L 167.851598 -232.877901 
L 166.148558 -226.110164 
L 164.445517 -213.569374 
L 162.742477 -199.603706 
L 161.039437 -189.124774 
L 159.336397 -183.917336 
L 157.633357 -182.652789 
L 155.930317 -182.845022 
L 154.227277 -181.359575 
L 152.524237 -178.663304 
L 150.821197 -176.047008 
L 149.118157 -174.33414 
L 147.415117 -174.069316 
L 145.712077 -173.902979 
L 144.009037 -174.576256 
L 142.305997 -176.197137 
L 140.602957 -179.017443 
L 138.899916 -184.237476 
L 137.196876 -191.137084 
L 135.493836 -197.934702 
L 133.790796 -203.639503 
L 132.087756 -205.948926 
L 130.384716 -206.000236 
L 128.681676 -205.137154 
L 126.978636 -203.942609 
L 125.275596 -204.49751 
L 123.572556 -205.895224 
L 121.869516 -208.018084 
L 120.166476 -210.564961 
L 118.463436 -213.299477 
L 116.760396 -216.236479 
L 115.057356 -218.807617 
L 113.354315 -220.577856 
L 111.651275 -221.455828 
L 109.948235 -221.393527 
L 108.245195 -220.480491 
L 106.542155 -218.346755 
L 104.839115 -215.566499 
L 103.136075 -213.624975 
L 101.433035 -213.778413 
L 99.729995 -216.300471 
L 98.026955 -220.408612 
L 96.323915 -225.064946 
L 94.620875 -228.760524 
L 92.917835 -229.572558 
L 91.214795 -227.855035 
L 89.511755 -225.95399 
L 87.808714 -225.471515 
L 86.105674 -227.522567 
L 84.402634 -231.252715 
L 82.699594 -234.383555 
L 80.996554 -235.232631 
L 79.293514 -233.119605 
L 77.590474 -230.529004 
L 75.887434 -229.771054 
L 74.184394 -231.846961 
L 72.481354 -235.271801 
L 70.778314 -237.959806 
L 69.075274 -239.271225 
L 67.372234 -238.765981 
L 65.669194 -238.261616 
L 63.966154 -239.856547 
L 62.263113 -243.842757 
L 60.560073 -248.523405 
L 58.857033 -249.879202 
L 57.153993 -247.115242 
L 55.450953 -240.175864 
L 53.747913 -232.134669 
L 52.044873 -227.383254 
L 50.341833 -227.72062 
L 48.638793 -231.323525 
L 46.935753 -235.262146 
L 45.232713 -235.563435 
L 43.529673 -231.855998 
L 41.826633 -225.809542 
L 40.123593 -222.056255 
L 38.420552 -224.133456 
z
" style="stroke: #ff7f0e; stroke-opacity: 0.3"/>
    </defs>
    <g>
     <use xlink:href="#m35312b3392" x="0" y="432" style="fill: #ff7f0e; fill-opacity: 0.3; stroke: #ff7f0e; stroke-opacity: 0.3"/>
    </g>
   </g>
   <g id="line2d_19">
    <path d="M 38.420552 195.620119 
L 40.123593 194.105355 
L 41.826633 195.356437 
L 43.529673 198.598548 
L 45.232713 202.722361 
L 48.638793 211.456457 
L 50.341833 214.856195 
L 52.044873 217.862699 
L 53.747913 218.757401 
L 55.450953 218.043864 
L 57.153993 216.110447 
L 58.857033 212.84116 
L 63.966154 199.341364 
L 65.669194 196.052545 
L 67.372234 194.611521 
L 69.075274 194.941452 
L 70.778314 196.267374 
L 72.481354 197.749464 
L 74.184394 198.969607 
L 75.887434 199.458963 
L 77.590474 200.632815 
L 79.293514 202.935266 
L 82.699594 209.549391 
L 84.402634 211.669622 
L 87.808714 213.238314 
L 89.511755 215.423964 
L 91.214795 219.48126 
L 92.917835 223.877721 
L 94.620875 226.322078 
L 96.323915 224.683694 
L 98.026955 218.502837 
L 99.729995 210.205803 
L 101.433035 203.300116 
L 103.136075 200.105421 
L 104.839115 201.07586 
L 106.542155 204.016226 
L 108.245195 206.112521 
L 109.948235 205.993259 
L 111.651275 204.447412 
L 113.354315 203.780499 
L 115.057356 205.855843 
L 116.760396 210.506185 
L 118.463436 215.91746 
L 120.166476 219.492671 
L 121.869516 219.846935 
L 123.572556 217.402726 
L 125.275596 214.183567 
L 126.978636 212.811307 
L 128.681676 214.093675 
L 132.087756 220.978973 
L 133.790796 222.823433 
L 135.493836 222.449272 
L 137.196876 220.53647 
L 138.899916 218.868494 
L 140.602957 218.666735 
L 142.305997 220.7558 
L 144.009037 223.882414 
L 145.712077 226.308048 
L 147.415117 226.644475 
L 149.118157 224.956879 
L 150.821197 222.144099 
L 152.524237 219.964857 
L 154.227277 219.145218 
L 155.930317 219.57534 
L 157.633357 219.596014 
L 159.336397 216.686163 
L 161.039437 209.660204 
L 164.445517 189.508749 
L 166.148558 180.885886 
L 167.851598 175.200093 
L 169.554638 172.54527 
L 171.257678 172.224182 
L 172.960718 173.786297 
L 174.663758 178.002973 
L 176.366798 186.713498 
L 178.069838 199.812857 
L 179.772878 216.261767 
L 183.178958 253.828356 
L 184.881998 273.872778 
L 186.585038 295.589584 
L 191.694159 367.952732 
L 193.397199 384.27258 
L 195.100239 392.047481 
L 196.803279 391.857347 
L 198.506319 387.711166 
L 200.209359 384.129553 
L 201.912399 382.853306 
L 203.615439 382.508529 
L 205.318479 379.051594 
L 207.021519 368.595747 
L 208.724559 349.961574 
L 213.833679 276.245324 
L 215.536719 259.263214 
L 222.34888 205.018416 
L 224.05192 193.810913 
L 225.75496 188.641096 
L 227.458 189.532555 
L 230.86408 200.060356 
L 232.56712 201.971399 
L 234.27016 199.427872 
L 235.9732 194.771763 
L 237.67624 191.479001 
L 239.37928 191.814009 
L 241.08232 195.538011 
L 242.785361 201.188289 
L 244.488401 205.729557 
L 246.191441 207.738395 
L 247.894481 206.177442 
L 249.597521 201.959807 
L 251.300561 195.429565 
L 253.003601 188.351544 
L 254.706641 182.095154 
L 256.409681 177.956409 
L 258.112721 176.693571 
L 259.815761 178.443766 
L 261.518801 181.46937 
L 263.221841 184.072483 
L 264.924881 185.525952 
L 266.627921 186.46623 
L 268.330962 189.515389 
L 270.034002 196.21001 
L 271.737042 206.485502 
L 273.440082 217.842752 
L 275.143122 227.283906 
L 276.846162 232.125623 
L 278.549202 232.053137 
L 280.252242 230.005466 
L 281.955282 228.693157 
L 283.658322 229.226512 
L 285.361362 231.009963 
L 287.064402 232.616234 
L 288.767442 232.396205 
L 290.470482 230.590085 
L 295.579603 221.380123 
L 297.282643 218.492621 
L 298.985683 214.437731 
L 300.688723 210.007583 
L 302.391763 206.432877 
L 304.094803 204.909951 
L 305.797843 205.044662 
L 307.500883 205.599527 
L 309.203923 203.971442 
L 310.906963 199.182203 
L 312.610003 191.39645 
L 314.313043 183.022009 
L 316.016083 176.600335 
L 317.719123 173.897102 
L 319.422164 173.685725 
L 321.125204 173.678135 
L 322.828244 171.423328 
L 324.531284 166.452056 
L 326.234324 159.642296 
L 327.937364 153.635613 
L 329.640404 150.075552 
L 331.343444 149.677443 
L 333.046484 150.807967 
L 334.749524 151.401916 
L 336.452564 150.249306 
L 339.858644 143.73624 
L 341.561684 143.139648 
L 343.264724 146.061646 
L 346.670805 156.331056 
L 348.373845 160.415769 
L 350.076885 163.94123 
L 351.779925 168.557473 
L 353.482965 176.03788 
L 355.186005 186.23217 
L 356.889045 197.160004 
L 358.592085 204.373834 
L 360.295125 206.682585 
L 361.998165 205.786063 
L 363.701205 205.078127 
L 365.404245 208.265012 
L 367.107285 216.080828 
L 368.810326 226.124419 
L 370.513366 234.533257 
L 372.216406 237.503583 
L 373.919446 235.35135 
L 375.622486 230.848864 
L 377.325526 228.089345 
L 379.028566 229.521622 
L 380.731606 235.400739 
L 382.434646 242.426251 
L 384.137686 247.237409 
L 385.840726 247.324749 
L 387.543766 243.531003 
L 389.246806 238.409125 
L 390.949846 236.506063 
L 392.652886 239.447965 
L 394.355927 247.565273 
L 397.762007 269.242631 
L 399.465047 276.060765 
L 401.168087 277.929333 
L 404.574167 275.820652 
L 406.277207 277.3847 
L 407.980247 282.563385 
L 411.386327 297.449549 
L 413.089367 302.238525 
L 414.792407 304.068923 
L 416.495447 304.91744 
L 418.198487 305.594524 
L 419.901528 307.081756 
L 421.604568 310.009875 
L 425.010648 316.889609 
L 426.713688 319.950823 
L 428.416728 323.503737 
L 431.822808 332.399653 
L 433.525848 336.006472 
L 435.228888 337.641784 
L 436.931928 336.422345 
L 438.634968 333.040661 
L 442.041048 323.408357 
L 443.744088 320.164483 
L 445.447129 318.621287 
L 447.150169 318.997384 
L 448.853209 321.031435 
L 450.556249 323.766644 
L 452.259289 325.910297 
L 453.962329 326.030342 
L 455.665369 325.190726 
L 457.368409 324.66261 
L 459.071449 325.852686 
L 460.774489 329.472747 
L 464.180569 340.960975 
L 465.883609 344.685361 
L 467.586649 345.572809 
L 469.289689 343.654122 
L 470.99273 341.554737 
L 472.69577 340.636979 
L 474.39881 341.313141 
L 476.10185 343.936762 
L 477.80489 346.321915 
L 479.50793 347.442706 
L 481.21097 347.335026 
L 482.91401 346.377253 
L 484.61705 344.836661 
L 486.32009 342.712467 
L 488.02313 340.236876 
L 489.72617 337.978594 
L 491.42921 337.47344 
L 493.13225 339.882276 
L 494.83529 344.738678 
L 496.538331 350.388042 
L 498.241371 354.234916 
L 499.944411 352.943779 
L 501.647451 346.019354 
L 503.350491 336.795488 
L 505.053531 329.478866 
L 506.756571 327.716185 
L 508.459611 332.917122 
L 510.162651 341.8235 
L 511.865691 349.92731 
L 513.568731 353.12874 
L 515.271771 350.267398 
L 516.974811 343.28626 
L 518.677851 334.625049 
L 520.380891 326.718984 
L 522.083932 320.322586 
L 523.786972 315.712782 
L 525.490012 313.259469 
L 527.193052 313.730815 
L 528.896092 318.002015 
L 532.302172 332.361543 
L 534.005212 335.981236 
L 535.708252 333.701136 
L 539.114332 319.73868 
L 540.817372 315.764633 
L 542.520412 317.187436 
L 545.926492 328.488793 
L 547.629533 331.194208 
L 549.332573 329.620392 
L 551.035613 325.151265 
L 552.738653 321.031808 
L 554.441693 319.431179 
L 556.144733 321.002104 
L 557.847773 323.843224 
L 559.550813 326.467584 
L 561.253853 326.761929 
L 561.253853 326.761929 
" style="fill: none; stroke: #1f77b4; stroke-width: 1.5; stroke-linecap: square"/>
   </g>
   <g id="line2d_20">
    <path d="M 38.420552 212.338329 
L 40.123593 214.508343 
L 41.826633 210.861948 
L 43.529673 204.6623 
L 45.232713 200.562286 
L 46.935753 200.647384 
L 50.341833 208.229407 
L 52.044873 208.467298 
L 53.747913 203.813936 
L 55.450953 195.867659 
L 57.153993 188.827287 
L 58.857033 185.975329 
L 60.560073 187.3859 
L 62.263113 192.154173 
L 63.966154 196.340238 
L 65.669194 198.180634 
L 67.372234 197.481323 
L 69.075274 196.576162 
L 70.778314 197.771013 
L 72.481354 200.681832 
L 74.184394 203.980572 
L 75.887434 205.928902 
L 77.590474 205.151404 
L 79.293514 202.59334 
L 80.996554 200.634307 
L 82.699594 201.361891 
L 84.402634 204.462639 
L 86.105674 208.267932 
L 87.808714 210.384339 
L 89.511755 209.682668 
L 91.214795 207.470044 
L 92.917835 205.924623 
L 94.620875 206.737988 
L 96.323915 210.546098 
L 98.026955 215.251277 
L 99.729995 219.425626 
L 101.433035 221.698195 
L 103.136075 221.629781 
L 104.839115 219.721431 
L 106.542155 217.116804 
L 108.245195 215.208629 
L 109.948235 214.239586 
L 111.651275 214.170985 
L 113.354315 215.073937 
L 115.057356 217.078885 
L 116.760396 219.74308 
L 120.166476 225.546707 
L 121.869516 228.229523 
L 123.572556 230.36556 
L 125.275596 231.786907 
L 126.978636 232.238586 
L 130.384716 230.205754 
L 132.087756 230.224658 
L 133.790796 232.786248 
L 135.493836 238.558724 
L 138.899916 252.549 
L 140.602957 257.889179 
L 142.305997 260.674532 
L 144.009037 262.171141 
L 145.712077 263.025847 
L 147.415117 263.364613 
L 149.118157 263.351215 
L 150.821197 261.784905 
L 154.227277 256.375033 
L 155.930317 254.965028 
L 157.633357 254.926658 
L 159.336397 253.37364 
L 161.039437 248.280245 
L 162.742477 237.976504 
L 164.445517 224.564032 
L 166.148558 212.282531 
L 167.851598 205.727427 
L 169.554638 206.96347 
L 171.257678 214.61158 
L 174.663758 235.489988 
L 178.069838 252.019557 
L 179.772878 264.180978 
L 181.475918 281.851839 
L 186.585038 349.385932 
L 188.288078 365.161326 
L 189.991118 375.598131 
L 191.694159 382.023153 
L 193.397199 386.013721 
L 195.100239 389.192167 
L 196.803279 391.504653 
L 198.506319 392.104223 
L 200.209359 389.872527 
L 201.912399 384.975038 
L 203.615439 377.309152 
L 205.318479 366.666002 
L 207.021519 352.402958 
L 208.724559 334.449537 
L 210.427599 312.709609 
L 213.833679 263.823419 
L 215.536719 242.445179 
L 217.23976 226.149978 
L 218.9428 215.433901 
L 220.64584 209.680623 
L 222.34888 206.076304 
L 224.05192 203.625412 
L 225.75496 201.777911 
L 227.458 201.190024 
L 229.16104 203.355876 
L 230.86408 208.758176 
L 232.56712 216.790182 
L 234.27016 225.834584 
L 235.9732 233.58711 
L 237.67624 238.482325 
L 239.37928 240.247952 
L 241.08232 239.144388 
L 242.785361 235.951929 
L 244.488401 230.893276 
L 246.191441 224.156426 
L 251.300561 200.873628 
L 253.003601 194.586651 
L 254.706641 189.702686 
L 256.409681 185.548349 
L 258.112721 180.783706 
L 259.815761 175.499961 
L 261.518801 171.111171 
L 263.221841 169.734814 
L 264.924881 172.750289 
L 266.627921 179.431785 
L 270.034002 195.832231 
L 271.737042 202.516583 
L 275.143122 214.726994 
L 278.549202 228.619325 
L 280.252242 233.139958 
L 281.955282 234.863168 
L 283.658322 234.193425 
L 285.361362 233.05796 
L 287.064402 233.108914 
L 288.767442 234.760574 
L 290.470482 237.076367 
L 292.173522 238.199843 
L 293.876563 237.464763 
L 295.579603 235.465933 
L 297.282643 233.721095 
L 298.985683 234.016313 
L 300.688723 235.06578 
L 302.391763 234.499798 
L 304.094803 231.080742 
L 305.797843 224.225857 
L 307.500883 216.765688 
L 309.203923 212.314401 
L 310.906963 212.241932 
L 312.610003 215.214963 
L 314.313043 219.013956 
L 316.016083 220.876436 
L 317.719123 220.046476 
L 321.125204 214.906537 
L 322.828244 213.29386 
L 324.531284 212.360948 
L 326.234324 210.399791 
L 327.937364 204.921675 
L 329.640404 195.547985 
L 331.343444 184.38486 
L 333.046484 173.963632 
L 334.749524 166.415858 
L 336.452564 162.644711 
L 338.155604 162.205597 
L 339.858644 163.847235 
L 341.561684 167.286409 
L 343.264724 171.680363 
L 344.967765 176.630677 
L 346.670805 181.995523 
L 348.373845 186.971885 
L 351.779925 195.899722 
L 353.482965 201.067346 
L 355.186005 205.705032 
L 356.889045 209.265645 
L 358.592085 211.130684 
L 360.295125 212.050254 
L 361.998165 213.211072 
L 363.701205 216.886883 
L 365.404245 224.557954 
L 367.107285 234.288375 
L 368.810326 243.076798 
L 370.513366 247.726951 
L 372.216406 247.410326 
L 373.919446 245.133411 
L 375.622486 243.726819 
L 377.325526 246.331324 
L 379.028566 251.657296 
L 380.731606 257.538532 
L 382.434646 260.909016 
L 384.137686 260.345505 
L 385.840726 257.97294 
L 387.543766 257.730456 
L 389.246806 261.969295 
L 390.949846 270.280741 
L 392.652886 279.417873 
L 394.355927 285.484955 
L 396.058967 286.73357 
L 397.762007 284.700195 
L 399.465047 282.410072 
L 401.168087 283.473974 
L 402.871127 288.172486 
L 404.574167 294.934664 
L 406.277207 300.661775 
L 407.980247 304.915192 
L 409.683287 308.407169 
L 411.386327 314.628507 
L 413.089367 324.032724 
L 414.792407 335.674546 
L 416.495447 345.241879 
L 418.198487 348.935883 
L 419.901528 345.02366 
L 421.604568 335.949637 
L 423.307608 325.619363 
L 425.010648 319.210732 
L 426.713688 318.461521 
L 428.416728 321.817641 
L 431.822808 333.02698 
L 433.525848 337.092888 
L 435.228888 339.90027 
L 436.931928 341.513006 
L 438.634968 341.752256 
L 440.338008 339.975696 
L 442.041048 335.943134 
L 443.744088 330.553561 
L 445.447129 326.971717 
L 447.150169 327.242572 
L 448.853209 332.186326 
L 452.259289 346.627847 
L 453.962329 350.711288 
L 455.665369 350.893934 
L 457.368409 348.688167 
L 459.071449 346.105899 
L 460.774489 345.064624 
L 462.477529 345.892044 
L 464.180569 348.210348 
L 465.883609 351.07814 
L 467.586649 353.552955 
L 469.289689 355.627062 
L 470.99273 356.716664 
L 472.69577 356.785235 
L 476.10185 354.957485 
L 477.80489 356.082045 
L 479.50793 358.97578 
L 481.21097 362.103424 
L 482.91401 363.861413 
L 484.61705 363.112908 
L 486.32009 359.722616 
L 488.02313 355.203357 
L 489.72617 352.132258 
L 491.42921 353.72762 
L 493.13225 359.911214 
L 496.538331 377.766532 
L 498.241371 385.172425 
L 499.944411 388.660577 
L 501.647451 388.416165 
L 503.350491 385.020757 
L 505.053531 379.983742 
L 506.756571 374.306079 
L 508.459611 369.729313 
L 510.162651 366.998061 
L 511.865691 366.722399 
L 513.568731 367.30567 
L 515.271771 366.431843 
L 516.974811 363.158873 
L 518.677851 356.525515 
L 520.380891 348.659701 
L 522.083932 342.958362 
L 523.786972 342.131902 
L 525.490012 346.429347 
L 527.193052 353.102417 
L 528.896092 359.261923 
L 530.599132 362.477868 
L 532.302172 361.973026 
L 534.005212 358.713249 
L 539.114332 344.885017 
L 540.817372 341.146879 
L 542.520412 339.092851 
L 544.223452 337.843707 
L 545.926492 337.763835 
L 547.629533 338.963349 
L 549.332573 341.635314 
L 551.035613 344.812358 
L 554.441693 352.860638 
L 556.144733 356.401347 
L 557.847773 357.706615 
L 559.550813 355.274331 
L 561.253853 349.412636 
L 561.253853 349.412636 
" style="fill: none; stroke: #ff7f0e; stroke-width: 1.5; stroke-linecap: square"/>
   </g>
  </g>
  <g id="axes_2">
   <g id="PathCollection_1">
    <defs>
     <path id="C0_0_06f444ad35" d="M 0 1.118034 
C 0.296506 1.118034 0.580908 1.000231 0.790569 0.790569 
C 1.000231 0.580908 1.118034 0.296506 1.118034 -0 
C 1.118034 -0.296506 1.000231 -0.580908 0.790569 -0.790569 
C 0.580908 -1.000231 0.296506 -1.118034 0 -1.118034 
C -0.296506 -1.118034 -0.580908 -1.000231 -0.790569 -0.790569 
C -1.000231 -0.580908 -1.118034 -0.296506 -1.118034 0 
C -1.118034 0.296506 -1.000231 0.580908 -0.790569 0.790569 
C -0.580908 1.000231 -0.296506 1.118034 0 1.118034 
z
"/>
    </defs>
    <g clip-path="url(#p673d11e879)">
     <use xlink:href="#C0_0_06f444ad35" x="499.567875" y="98.954913" style="stroke: #000000"/>
    </g>
    <g clip-path="url(#p673d11e879)">
     <use xlink:href="#C0_0_06f444ad35" x="508.857445" y="99.041609" style="stroke: #000000"/>
    </g>
    <g clip-path="url(#p673d11e879)">
     <use xlink:href="#C0_0_06f444ad35" x="518.167044" y="98.866156" style="stroke: #000000"/>
    </g>
   </g>
   <g id="matplotlib.axis_3"/>
   <g id="matplotlib.axis_4"/>
   <g id="line2d_21">
    <path d="M 548.859194 73.63672 
L 548.781507 71.164689 
L 548.548754 68.702415 
L 548.161852 66.259613 
L 547.622329 63.845926 
L 546.932314 61.470879 
L 546.09453 59.143845 
L 545.112284 56.874007 
L 543.989451 54.670325 
L 542.730464 52.541494 
L 541.340291 50.495916 
L 539.824418 48.541664 
L 538.188828 46.686451 
L 536.439975 44.937599 
L 534.584762 43.302008 
L 532.630511 41.786136 
L 530.584933 40.395962 
L 528.456102 39.136975 
L 526.252419 38.014143 
L 523.982582 37.031896 
L 521.655547 36.194112 
L 519.2805 35.504097 
L 516.866813 34.964574 
L 514.424012 34.577673 
L 511.961737 34.344919 
L 509.489707 34.267233 
L 507.017676 34.344919 
L 504.555402 34.577673 
L 502.1126 34.964574 
L 499.698913 35.504097 
L 497.323866 36.194112 
L 494.996832 37.031896 
L 492.726994 38.014143 
L 490.523312 39.136975 
L 488.394481 40.395962 
L 486.348903 41.786136 
L 484.394651 43.302008 
L 482.539438 44.937599 
L 480.790586 46.686451 
L 479.154995 48.541664 
L 477.639123 50.495916 
L 476.248949 52.541494 
L 474.989962 54.670325 
L 473.86713 56.874007 
L 472.884883 59.143845 
L 472.047099 61.470879 
L 471.357084 63.845926 
L 470.817561 66.259613 
L 470.43066 68.702415 
L 470.197906 71.164689 
L 470.12022 73.63672 
L 470.197906 76.10875 
L 470.43066 78.571025 
L 470.817561 81.013826 
L 471.357084 83.427513 
L 472.047099 85.80256 
L 472.884883 88.129595 
L 473.86713 90.399432 
L 474.989962 92.603115 
L 476.248949 94.731946 
L 477.639123 96.777524 
L 479.154995 98.731775 
L 480.790586 100.586988 
L 482.539438 102.335841 
L 484.394651 103.971431 
L 486.348903 105.487304 
L 488.394481 106.877477 
L 490.523312 108.136464 
L 492.726994 109.259297 
L 494.996832 110.241543 
L 497.323866 111.079327 
L 499.698913 111.769342 
L 502.1126 112.308865 
L 504.555402 112.695767 
L 507.017676 112.92852 
L 509.489707 113.006207 
L 511.961737 112.92852 
L 514.424012 112.695767 
L 516.866813 112.308865 
L 519.2805 111.769342 
L 521.655547 111.079327 
L 523.982582 110.241543 
L 526.252419 109.259297 
L 528.456102 108.136464 
L 530.584933 106.877477 
L 532.630511 105.487304 
L 534.584762 103.971431 
L 536.439975 102.335841 
L 538.188828 100.586988 
L 539.824418 98.731775 
L 541.340291 96.777524 
L 542.730464 94.731946 
L 543.989451 92.603115 
L 545.112284 90.399432 
L 546.09453 88.129595 
L 546.932314 85.80256 
L 547.622329 83.427513 
L 548.161852 81.013826 
L 548.548754 78.571025 
L 548.781507 76.10875 
L 548.859194 73.63672 
" style="fill: none; stroke: #000000; stroke-linecap: square"/>
   </g>
   <g id="line2d_22">
    <path d="M 501.244181 35.140385 
L 509.489707 28.361809 
L 517.735233 35.140385 
" style="fill: none; stroke: #000000; stroke-linecap: square"/>
   </g>
   <g id="line2d_23">
    <path d="M 470.356436 69.266707 
L 469.33283 67.534449 
L 468.702918 67.471458 
L 467.765924 67.762792 
L 466.821057 69.266707 
L 466.970661 74.069784 
L 466.419488 80.975192 
L 467.600572 83.975147 
L 469.33283 84.534194 
L 470.986348 83.077523 
" style="fill: none; stroke: #000000; stroke-linecap: square"/>
   </g>
   <g id="line2d_24">
    <path d="M 548.622977 69.266707 
L 549.646584 67.534449 
L 550.276495 67.471458 
L 551.213489 67.762792 
L 552.158357 69.266707 
L 552.008753 74.069784 
L 552.559926 80.975192 
L 551.378841 83.975147 
L 549.646584 84.534194 
L 547.993065 83.077523 
" style="fill: none; stroke: #000000; stroke-linecap: square"/>
   </g>
  </g>
 </g>
 <defs>
  <clipPath id="pace7876a7a">
   <rect x="38.420552" y="18.118365" width="523.446395" height="380.525145"/>
  </clipPath>
  <clipPath id="p673d11e879">
   <rect x="462.112466" y="24.12959" width="94.754482" height="93.108837"/>
  </clipPath>
 </defs>
</svg>
