<?xml version="1.0" encoding="utf-8" standalone="no"?>
<!DOCTYPE svg PUBLIC "-//W3C//DTD SVG 1.1//EN"
  "http://www.w3.org/Graphics/SVG/1.1/DTD/svg11.dtd">
<svg xmlns:xlink="http://www.w3.org/1999/xlink" width="576pt" height="432pt" viewBox="0 0 576 432" xmlns="http://www.w3.org/2000/svg" version="1.1">
 <metadata>
  <rdf:RDF xmlns:dc="http://purl.org/dc/elements/1.1/" xmlns:cc="http://creativecommons.org/ns#" xmlns:rdf="http://www.w3.org/1999/02/22-rdf-syntax-ns#">
   <cc:Work>
    <dc:type rdf:resource="http://purl.org/dc/dcmitype/StillImage"/>
    <dc:date>2025-02-17T18:06:51.567408</dc:date>
    <dc:format>image/svg+xml</dc:format>
    <dc:creator>
     <cc:Agent>
      <dc:title>Matplotlib v3.10.0, https://matplotlib.org/</dc:title>
     </cc:Agent>
    </dc:creator>
   </cc:Work>
  </rdf:RDF>
 </metadata>
 <defs>
  <style type="text/css">*{stroke-linejoin: round; stroke-linecap: butt}</style>
 </defs>
 <g id="figure_1">
  <g id="patch_1">
   <path d="M 0 432 
L 576 432 
L 576 0 
L 0 0 
z
" style="fill: #ffffff"/>
  </g>
  <g id="axes_1">
   <g id="patch_2">
    <path d="M 44.783053 398.64351 
L 561.866947 398.64351 
L 561.866947 18.118365 
L 44.783053 18.118365 
L 44.783053 398.64351 
z
" style="fill: none; opacity: 0"/>
   </g>
   <g id="patch_3">
    <path d="M 44.783053 359.997385 
L 44.783053 56.76449 
" style="fill: none; stroke: #000000; stroke-width: 0.8; stroke-linejoin: miter; stroke-linecap: square"/>
   </g>
   <g id="LineCollection_1">
    <path d="M 195.789854 18.118365 
L 195.789854 398.64351 
" clip-path="url(#p59e596f2d6)" style="fill: none; stroke-dasharray: 3.7,1.6; stroke-dashoffset: 0; stroke: #000000"/>
    <path d="M 230.244168 18.118365 
L 230.244168 398.64351 
" clip-path="url(#p59e596f2d6)" style="fill: none; stroke-dasharray: 3.7,1.6; stroke-dashoffset: 0; stroke: #000000"/>
   </g>
   <g id="matplotlib.axis_1">
    <g id="xtick_1">
     <g id="line2d_1">
      <defs>
       <path id="m49b6e82bf1" d="M 0 0 
L 0 3.5 
" style="stroke: #000000; stroke-width: 0.8"/>
      </defs>
      <g>
       <use xlink:href="#m49b6e82bf1" x="45.052227" y="398.64351" style="stroke: #000000; stroke-width: 0.8"/>
      </g>
     </g>
     <g id="text_1">
      <!-- −0.20 -->
      <g transform="translate(29.729571 413.241947) scale(0.1 -0.1)">
       <defs>
        <path id="DejaVuSans-2212" d="M 678 2272 
L 4684 2272 
L 4684 1741 
L 678 1741 
L 678 2272 
z
" transform="scale(0.015625)"/>
        <path id="DejaVuSans-30" d="M 2034 4250 
Q 1547 4250 1301 3770 
Q 1056 3291 1056 2328 
Q 1056 1369 1301 889 
Q 1547 409 2034 409 
Q 2525 409 2770 889 
Q 3016 1369 3016 2328 
Q 3016 3291 2770 3770 
Q 2525 4250 2034 4250 
z
M 2034 4750 
Q 2819 4750 3233 4129 
Q 3647 3509 3647 2328 
Q 3647 1150 3233 529 
Q 2819 -91 2034 -91 
Q 1250 -91 836 529 
Q 422 1150 422 2328 
Q 422 3509 836 4129 
Q 1250 4750 2034 4750 
z
" transform="scale(0.015625)"/>
        <path id="DejaVuSans-2e" d="M 684 794 
L 1344 794 
L 1344 0 
L 684 0 
L 684 794 
z
" transform="scale(0.015625)"/>
        <path id="DejaVuSans-32" d="M 1228 531 
L 3431 531 
L 3431 0 
L 469 0 
L 469 531 
Q 828 903 1448 1529 
Q 2069 2156 2228 2338 
Q 2531 2678 2651 2914 
Q 2772 3150 2772 3378 
Q 2772 3750 2511 3984 
Q 2250 4219 1831 4219 
Q 1534 4219 1204 4116 
Q 875 4013 500 3803 
L 500 4441 
Q 881 4594 1212 4672 
Q 1544 4750 1819 4750 
Q 2544 4750 2975 4387 
Q 3406 4025 3406 3419 
Q 3406 3131 3298 2873 
Q 3191 2616 2906 2266 
Q 2828 2175 2409 1742 
Q 1991 1309 1228 531 
z
" transform="scale(0.015625)"/>
       </defs>
       <use xlink:href="#DejaVuSans-2212"/>
       <use xlink:href="#DejaVuSans-30" transform="translate(83.789062 0)"/>
       <use xlink:href="#DejaVuSans-2e" transform="translate(147.412109 0)"/>
       <use xlink:href="#DejaVuSans-32" transform="translate(179.199219 0)"/>
       <use xlink:href="#DejaVuSans-30" transform="translate(242.822266 0)"/>
      </g>
     </g>
    </g>
    <g id="xtick_2">
     <g id="line2d_2">
      <g>
       <use xlink:href="#m49b6e82bf1" x="131.188014" y="398.64351" style="stroke: #000000; stroke-width: 0.8"/>
      </g>
     </g>
     <g id="text_2">
      <!-- 0.00 -->
      <g transform="translate(120.055201 413.241947) scale(0.1 -0.1)">
       <use xlink:href="#DejaVuSans-30"/>
       <use xlink:href="#DejaVuSans-2e" transform="translate(63.623047 0)"/>
       <use xlink:href="#DejaVuSans-30" transform="translate(95.410156 0)"/>
       <use xlink:href="#DejaVuSans-30" transform="translate(159.033203 0)"/>
      </g>
     </g>
    </g>
    <g id="xtick_3">
     <g id="line2d_3">
      <g>
       <use xlink:href="#m49b6e82bf1" x="195.789854" y="398.64351" style="stroke: #000000; stroke-width: 0.8"/>
      </g>
     </g>
     <g id="text_3">
      <!-- 0.15 -->
      <g transform="translate(184.657041 413.241947) scale(0.1 -0.1)">
       <defs>
        <path id="DejaVuSans-31" d="M 794 531 
L 1825 531 
L 1825 4091 
L 703 3866 
L 703 4441 
L 1819 4666 
L 2450 4666 
L 2450 531 
L 3481 531 
L 3481 0 
L 794 0 
L 794 531 
z
" transform="scale(0.015625)"/>
        <path id="DejaVuSans-35" d="M 691 4666 
L 3169 4666 
L 3169 4134 
L 1269 4134 
L 1269 2991 
Q 1406 3038 1543 3061 
Q 1681 3084 1819 3084 
Q 2600 3084 3056 2656 
Q 3513 2228 3513 1497 
Q 3513 744 3044 326 
Q 2575 -91 1722 -91 
Q 1428 -91 1123 -41 
Q 819 9 494 109 
L 494 744 
Q 775 591 1075 516 
Q 1375 441 1709 441 
Q 2250 441 2565 725 
Q 2881 1009 2881 1497 
Q 2881 1984 2565 2268 
Q 2250 2553 1709 2553 
Q 1456 2553 1204 2497 
Q 953 2441 691 2322 
L 691 4666 
z
" transform="scale(0.015625)"/>
       </defs>
       <use xlink:href="#DejaVuSans-30"/>
       <use xlink:href="#DejaVuSans-2e" transform="translate(63.623047 0)"/>
       <use xlink:href="#DejaVuSans-31" transform="translate(95.410156 0)"/>
       <use xlink:href="#DejaVuSans-35" transform="translate(159.033203 0)"/>
      </g>
     </g>
    </g>
    <g id="xtick_4">
     <g id="line2d_4">
      <g>
       <use xlink:href="#m49b6e82bf1" x="217.3238" y="398.64351" style="stroke: #000000; stroke-width: 0.8"/>
      </g>
     </g>
     <g id="text_4">
      <!-- 0.20 -->
      <g transform="translate(206.190988 413.241947) scale(0.1 -0.1)">
       <use xlink:href="#DejaVuSans-30"/>
       <use xlink:href="#DejaVuSans-2e" transform="translate(63.623047 0)"/>
       <use xlink:href="#DejaVuSans-32" transform="translate(95.410156 0)"/>
       <use xlink:href="#DejaVuSans-30" transform="translate(159.033203 0)"/>
      </g>
     </g>
    </g>
    <g id="xtick_5">
     <g id="line2d_5">
      <g>
       <use xlink:href="#m49b6e82bf1" x="230.244168" y="398.64351" style="stroke: #000000; stroke-width: 0.8"/>
      </g>
     </g>
     <g id="text_5">
      <!-- 0.23 -->
      <g transform="translate(219.111356 413.241947) scale(0.1 -0.1)">
       <defs>
        <path id="DejaVuSans-33" d="M 2597 2516 
Q 3050 2419 3304 2112 
Q 3559 1806 3559 1356 
Q 3559 666 3084 287 
Q 2609 -91 1734 -91 
Q 1441 -91 1130 -33 
Q 819 25 488 141 
L 488 750 
Q 750 597 1062 519 
Q 1375 441 1716 441 
Q 2309 441 2620 675 
Q 2931 909 2931 1356 
Q 2931 1769 2642 2001 
Q 2353 2234 1838 2234 
L 1294 2234 
L 1294 2753 
L 1863 2753 
Q 2328 2753 2575 2939 
Q 2822 3125 2822 3475 
Q 2822 3834 2567 4026 
Q 2313 4219 1838 4219 
Q 1578 4219 1281 4162 
Q 984 4106 628 3988 
L 628 4550 
Q 988 4650 1302 4700 
Q 1616 4750 1894 4750 
Q 2613 4750 3031 4423 
Q 3450 4097 3450 3541 
Q 3450 3153 3228 2886 
Q 3006 2619 2597 2516 
z
" transform="scale(0.015625)"/>
       </defs>
       <use xlink:href="#DejaVuSans-30"/>
       <use xlink:href="#DejaVuSans-2e" transform="translate(63.623047 0)"/>
       <use xlink:href="#DejaVuSans-32" transform="translate(95.410156 0)"/>
       <use xlink:href="#DejaVuSans-33" transform="translate(159.033203 0)"/>
      </g>
     </g>
    </g>
    <g id="xtick_6">
     <g id="line2d_6">
      <g>
       <use xlink:href="#m49b6e82bf1" x="303.459587" y="398.64351" style="stroke: #000000; stroke-width: 0.8"/>
      </g>
     </g>
     <g id="text_6">
      <!-- 0.40 -->
      <g transform="translate(292.326775 413.241947) scale(0.1 -0.1)">
       <defs>
        <path id="DejaVuSans-34" d="M 2419 4116 
L 825 1625 
L 2419 1625 
L 2419 4116 
z
M 2253 4666 
L 3047 4666 
L 3047 1625 
L 3713 1625 
L 3713 1100 
L 3047 1100 
L 3047 0 
L 2419 0 
L 2419 1100 
L 313 1100 
L 313 1709 
L 2253 4666 
z
" transform="scale(0.015625)"/>
       </defs>
       <use xlink:href="#DejaVuSans-30"/>
       <use xlink:href="#DejaVuSans-2e" transform="translate(63.623047 0)"/>
       <use xlink:href="#DejaVuSans-34" transform="translate(95.410156 0)"/>
       <use xlink:href="#DejaVuSans-30" transform="translate(159.033203 0)"/>
      </g>
     </g>
    </g>
    <g id="xtick_7">
     <g id="line2d_7">
      <g>
       <use xlink:href="#m49b6e82bf1" x="389.595374" y="398.64351" style="stroke: #000000; stroke-width: 0.8"/>
      </g>
     </g>
     <g id="text_7">
      <!-- 0.60 -->
      <g transform="translate(378.462561 413.241947) scale(0.1 -0.1)">
       <defs>
        <path id="DejaVuSans-36" d="M 2113 2584 
Q 1688 2584 1439 2293 
Q 1191 2003 1191 1497 
Q 1191 994 1439 701 
Q 1688 409 2113 409 
Q 2538 409 2786 701 
Q 3034 994 3034 1497 
Q 3034 2003 2786 2293 
Q 2538 2584 2113 2584 
z
M 3366 4563 
L 3366 3988 
Q 3128 4100 2886 4159 
Q 2644 4219 2406 4219 
Q 1781 4219 1451 3797 
Q 1122 3375 1075 2522 
Q 1259 2794 1537 2939 
Q 1816 3084 2150 3084 
Q 2853 3084 3261 2657 
Q 3669 2231 3669 1497 
Q 3669 778 3244 343 
Q 2819 -91 2113 -91 
Q 1303 -91 875 529 
Q 447 1150 447 2328 
Q 447 3434 972 4092 
Q 1497 4750 2381 4750 
Q 2619 4750 2861 4703 
Q 3103 4656 3366 4563 
z
" transform="scale(0.015625)"/>
       </defs>
       <use xlink:href="#DejaVuSans-30"/>
       <use xlink:href="#DejaVuSans-2e" transform="translate(63.623047 0)"/>
       <use xlink:href="#DejaVuSans-36" transform="translate(95.410156 0)"/>
       <use xlink:href="#DejaVuSans-30" transform="translate(159.033203 0)"/>
      </g>
     </g>
    </g>
    <g id="xtick_8">
     <g id="line2d_8">
      <g>
       <use xlink:href="#m49b6e82bf1" x="475.731161" y="398.64351" style="stroke: #000000; stroke-width: 0.8"/>
      </g>
     </g>
     <g id="text_8">
      <!-- 0.80 -->
      <g transform="translate(464.598348 413.241947) scale(0.1 -0.1)">
       <defs>
        <path id="DejaVuSans-38" d="M 2034 2216 
Q 1584 2216 1326 1975 
Q 1069 1734 1069 1313 
Q 1069 891 1326 650 
Q 1584 409 2034 409 
Q 2484 409 2743 651 
Q 3003 894 3003 1313 
Q 3003 1734 2745 1975 
Q 2488 2216 2034 2216 
z
M 1403 2484 
Q 997 2584 770 2862 
Q 544 3141 544 3541 
Q 544 4100 942 4425 
Q 1341 4750 2034 4750 
Q 2731 4750 3128 4425 
Q 3525 4100 3525 3541 
Q 3525 3141 3298 2862 
Q 3072 2584 2669 2484 
Q 3125 2378 3379 2068 
Q 3634 1759 3634 1313 
Q 3634 634 3220 271 
Q 2806 -91 2034 -91 
Q 1263 -91 848 271 
Q 434 634 434 1313 
Q 434 1759 690 2068 
Q 947 2378 1403 2484 
z
M 1172 3481 
Q 1172 3119 1398 2916 
Q 1625 2713 2034 2713 
Q 2441 2713 2670 2916 
Q 2900 3119 2900 3481 
Q 2900 3844 2670 4047 
Q 2441 4250 2034 4250 
Q 1625 4250 1398 4047 
Q 1172 3844 1172 3481 
z
" transform="scale(0.015625)"/>
       </defs>
       <use xlink:href="#DejaVuSans-30"/>
       <use xlink:href="#DejaVuSans-2e" transform="translate(63.623047 0)"/>
       <use xlink:href="#DejaVuSans-38" transform="translate(95.410156 0)"/>
       <use xlink:href="#DejaVuSans-30" transform="translate(159.033203 0)"/>
      </g>
     </g>
    </g>
    <g id="xtick_9">
     <g id="line2d_9">
      <g>
       <use xlink:href="#m49b6e82bf1" x="561.866947" y="398.64351" style="stroke: #000000; stroke-width: 0.8"/>
      </g>
     </g>
     <g id="text_9">
      <!-- 1.00 -->
      <g transform="translate(550.734135 413.241947) scale(0.1 -0.1)">
       <use xlink:href="#DejaVuSans-31"/>
       <use xlink:href="#DejaVuSans-2e" transform="translate(63.623047 0)"/>
       <use xlink:href="#DejaVuSans-30" transform="translate(95.410156 0)"/>
       <use xlink:href="#DejaVuSans-30" transform="translate(159.033203 0)"/>
      </g>
     </g>
    </g>
    <g id="text_10">
     <!-- Time (s) -->
     <g transform="translate(282.996094 426.920073) scale(0.1 -0.1)">
      <defs>
       <path id="DejaVuSans-54" d="M -19 4666 
L 3928 4666 
L 3928 4134 
L 2272 4134 
L 2272 0 
L 1638 0 
L 1638 4134 
L -19 4134 
L -19 4666 
z
" transform="scale(0.015625)"/>
       <path id="DejaVuSans-69" d="M 603 3500 
L 1178 3500 
L 1178 0 
L 603 0 
L 603 3500 
z
M 603 4863 
L 1178 4863 
L 1178 4134 
L 603 4134 
L 603 4863 
z
" transform="scale(0.015625)"/>
       <path id="DejaVuSans-6d" d="M 3328 2828 
Q 3544 3216 3844 3400 
Q 4144 3584 4550 3584 
Q 5097 3584 5394 3201 
Q 5691 2819 5691 2113 
L 5691 0 
L 5113 0 
L 5113 2094 
Q 5113 2597 4934 2840 
Q 4756 3084 4391 3084 
Q 3944 3084 3684 2787 
Q 3425 2491 3425 1978 
L 3425 0 
L 2847 0 
L 2847 2094 
Q 2847 2600 2669 2842 
Q 2491 3084 2119 3084 
Q 1678 3084 1418 2786 
Q 1159 2488 1159 1978 
L 1159 0 
L 581 0 
L 581 3500 
L 1159 3500 
L 1159 2956 
Q 1356 3278 1631 3431 
Q 1906 3584 2284 3584 
Q 2666 3584 2933 3390 
Q 3200 3197 3328 2828 
z
" transform="scale(0.015625)"/>
       <path id="DejaVuSans-65" d="M 3597 1894 
L 3597 1613 
L 953 1613 
Q 991 1019 1311 708 
Q 1631 397 2203 397 
Q 2534 397 2845 478 
Q 3156 559 3463 722 
L 3463 178 
Q 3153 47 2828 -22 
Q 2503 -91 2169 -91 
Q 1331 -91 842 396 
Q 353 884 353 1716 
Q 353 2575 817 3079 
Q 1281 3584 2069 3584 
Q 2775 3584 3186 3129 
Q 3597 2675 3597 1894 
z
M 3022 2063 
Q 3016 2534 2758 2815 
Q 2500 3097 2075 3097 
Q 1594 3097 1305 2825 
Q 1016 2553 972 2059 
L 3022 2063 
z
" transform="scale(0.015625)"/>
       <path id="DejaVuSans-20" transform="scale(0.015625)"/>
       <path id="DejaVuSans-28" d="M 1984 4856 
Q 1566 4138 1362 3434 
Q 1159 2731 1159 2009 
Q 1159 1288 1364 580 
Q 1569 -128 1984 -844 
L 1484 -844 
Q 1016 -109 783 600 
Q 550 1309 550 2009 
Q 550 2706 781 3412 
Q 1013 4119 1484 4856 
L 1984 4856 
z
" transform="scale(0.015625)"/>
       <path id="DejaVuSans-73" d="M 2834 3397 
L 2834 2853 
Q 2591 2978 2328 3040 
Q 2066 3103 1784 3103 
Q 1356 3103 1142 2972 
Q 928 2841 928 2578 
Q 928 2378 1081 2264 
Q 1234 2150 1697 2047 
L 1894 2003 
Q 2506 1872 2764 1633 
Q 3022 1394 3022 966 
Q 3022 478 2636 193 
Q 2250 -91 1575 -91 
Q 1294 -91 989 -36 
Q 684 19 347 128 
L 347 722 
Q 666 556 975 473 
Q 1284 391 1588 391 
Q 1994 391 2212 530 
Q 2431 669 2431 922 
Q 2431 1156 2273 1281 
Q 2116 1406 1581 1522 
L 1381 1569 
Q 847 1681 609 1914 
Q 372 2147 372 2553 
Q 372 3047 722 3315 
Q 1072 3584 1716 3584 
Q 2034 3584 2315 3537 
Q 2597 3491 2834 3397 
z
" transform="scale(0.015625)"/>
       <path id="DejaVuSans-29" d="M 513 4856 
L 1013 4856 
Q 1481 4119 1714 3412 
Q 1947 2706 1947 2009 
Q 1947 1309 1714 600 
Q 1481 -109 1013 -844 
L 513 -844 
Q 928 -128 1133 580 
Q 1338 1288 1338 2009 
Q 1338 2731 1133 3434 
Q 928 4138 513 4856 
z
" transform="scale(0.015625)"/>
      </defs>
      <use xlink:href="#DejaVuSans-54"/>
      <use xlink:href="#DejaVuSans-69" transform="translate(57.958984 0)"/>
      <use xlink:href="#DejaVuSans-6d" transform="translate(85.742188 0)"/>
      <use xlink:href="#DejaVuSans-65" transform="translate(183.154297 0)"/>
      <use xlink:href="#DejaVuSans-20" transform="translate(244.677734 0)"/>
      <use xlink:href="#DejaVuSans-28" transform="translate(276.464844 0)"/>
      <use xlink:href="#DejaVuSans-73" transform="translate(315.478516 0)"/>
      <use xlink:href="#DejaVuSans-29" transform="translate(367.578125 0)"/>
     </g>
    </g>
   </g>
   <g id="matplotlib.axis_2">
    <g id="ytick_1">
     <g id="line2d_10">
      <defs>
       <path id="mb93dc41f06" d="M 0 0 
L -3.5 0 
" style="stroke: #000000; stroke-width: 0.8"/>
      </defs>
      <g>
       <use xlink:href="#mb93dc41f06" x="44.783053" y="359.997385" style="stroke: #000000; stroke-width: 0.8"/>
      </g>
     </g>
     <g id="text_11">
      <!-- −10 -->
      <g transform="translate(16.678365 363.796604) scale(0.1 -0.1)">
       <use xlink:href="#DejaVuSans-2212"/>
       <use xlink:href="#DejaVuSans-31" transform="translate(83.789062 0)"/>
       <use xlink:href="#DejaVuSans-30" transform="translate(147.412109 0)"/>
      </g>
     </g>
    </g>
    <g id="ytick_2">
     <g id="line2d_11">
      <g>
       <use xlink:href="#mb93dc41f06" x="44.783053" y="284.189161" style="stroke: #000000; stroke-width: 0.8"/>
      </g>
     </g>
     <g id="text_12">
      <!-- −5 -->
      <g transform="translate(23.040865 287.98838) scale(0.1 -0.1)">
       <use xlink:href="#DejaVuSans-2212"/>
       <use xlink:href="#DejaVuSans-35" transform="translate(83.789062 0)"/>
      </g>
     </g>
    </g>
    <g id="ytick_3">
     <g id="line2d_12">
      <g>
       <use xlink:href="#mb93dc41f06" x="44.783053" y="208.380937" style="stroke: #000000; stroke-width: 0.8"/>
      </g>
     </g>
     <g id="text_13">
      <!-- 0 -->
      <g transform="translate(31.420553 212.180156) scale(0.1 -0.1)">
       <use xlink:href="#DejaVuSans-30"/>
      </g>
     </g>
    </g>
    <g id="ytick_4">
     <g id="line2d_13">
      <g>
       <use xlink:href="#mb93dc41f06" x="44.783053" y="132.572714" style="stroke: #000000; stroke-width: 0.8"/>
      </g>
     </g>
     <g id="text_14">
      <!-- 5 -->
      <g transform="translate(31.420553 136.371932) scale(0.1 -0.1)">
       <use xlink:href="#DejaVuSans-35"/>
      </g>
     </g>
    </g>
    <g id="ytick_5">
     <g id="line2d_14">
      <g>
       <use xlink:href="#mb93dc41f06" x="44.783053" y="56.76449" style="stroke: #000000; stroke-width: 0.8"/>
      </g>
     </g>
     <g id="text_15">
      <!-- 10 -->
      <g transform="translate(25.058053 60.563709) scale(0.1 -0.1)">
       <use xlink:href="#DejaVuSans-31"/>
       <use xlink:href="#DejaVuSans-30" transform="translate(63.623047 0)"/>
      </g>
     </g>
    </g>
    <g id="text_16">
     <!-- µV -->
     <g transform="translate(10.598678 214.9825) rotate(-90) scale(0.1 -0.1)">
      <defs>
       <path id="DejaVuSans-b5" d="M 544 -1331 
L 544 3500 
L 1119 3500 
L 1119 1325 
Q 1119 872 1334 640 
Q 1550 409 1972 409 
Q 2434 409 2667 671 
Q 2900 934 2900 1459 
L 2900 3500 
L 3475 3500 
L 3475 806 
Q 3475 619 3529 530 
Q 3584 441 3700 441 
Q 3728 441 3778 458 
Q 3828 475 3916 513 
L 3916 50 
Q 3788 -22 3673 -56 
Q 3559 -91 3450 -91 
Q 3234 -91 3106 31 
Q 2978 153 2931 403 
Q 2775 156 2548 32 
Q 2322 -91 2016 -91 
Q 1697 -91 1473 31 
Q 1250 153 1119 397 
L 1119 -1331 
L 544 -1331 
z
" transform="scale(0.015625)"/>
       <path id="DejaVuSans-56" d="M 1831 0 
L 50 4666 
L 709 4666 
L 2188 738 
L 3669 4666 
L 4325 4666 
L 2547 0 
L 1831 0 
z
" transform="scale(0.015625)"/>
      </defs>
      <use xlink:href="#DejaVuSans-b5"/>
      <use xlink:href="#DejaVuSans-56" transform="translate(63.623047 0)"/>
     </g>
    </g>
   </g>
   <g id="patch_4">
    <path d="M 45.052227 398.64351 
L 561.866947 398.64351 
" style="fill: none; stroke: #000000; stroke-width: 0.8; stroke-linejoin: miter; stroke-linecap: square"/>
   </g>
   <g id="patch_5">
    <path d="M 44.783052 208.380937 
L 561.866947 208.380937 
" style="fill: none; stroke: #000000; stroke-width: 0.8; stroke-linejoin: miter; stroke-linecap: square"/>
   </g>
   <g id="text_17">
    <!-- Fz, FCz, Cz, CPz, Pz (median) -->
    <g transform="translate(216.537812 12.118365) scale(0.12 -0.12)">
     <defs>
      <path id="DejaVuSans-46" d="M 628 4666 
L 3309 4666 
L 3309 4134 
L 1259 4134 
L 1259 2759 
L 3109 2759 
L 3109 2228 
L 1259 2228 
L 1259 0 
L 628 0 
L 628 4666 
z
" transform="scale(0.015625)"/>
      <path id="DejaVuSans-7a" d="M 353 3500 
L 3084 3500 
L 3084 2975 
L 922 459 
L 3084 459 
L 3084 0 
L 275 0 
L 275 525 
L 2438 3041 
L 353 3041 
L 353 3500 
z
" transform="scale(0.015625)"/>
      <path id="DejaVuSans-2c" d="M 750 794 
L 1409 794 
L 1409 256 
L 897 -744 
L 494 -744 
L 750 256 
L 750 794 
z
" transform="scale(0.015625)"/>
      <path id="DejaVuSans-43" d="M 4122 4306 
L 4122 3641 
Q 3803 3938 3442 4084 
Q 3081 4231 2675 4231 
Q 1875 4231 1450 3742 
Q 1025 3253 1025 2328 
Q 1025 1406 1450 917 
Q 1875 428 2675 428 
Q 3081 428 3442 575 
Q 3803 722 4122 1019 
L 4122 359 
Q 3791 134 3420 21 
Q 3050 -91 2638 -91 
Q 1578 -91 968 557 
Q 359 1206 359 2328 
Q 359 3453 968 4101 
Q 1578 4750 2638 4750 
Q 3056 4750 3426 4639 
Q 3797 4528 4122 4306 
z
" transform="scale(0.015625)"/>
      <path id="DejaVuSans-50" d="M 1259 4147 
L 1259 2394 
L 2053 2394 
Q 2494 2394 2734 2622 
Q 2975 2850 2975 3272 
Q 2975 3691 2734 3919 
Q 2494 4147 2053 4147 
L 1259 4147 
z
M 628 4666 
L 2053 4666 
Q 2838 4666 3239 4311 
Q 3641 3956 3641 3272 
Q 3641 2581 3239 2228 
Q 2838 1875 2053 1875 
L 1259 1875 
L 1259 0 
L 628 0 
L 628 4666 
z
" transform="scale(0.015625)"/>
      <path id="DejaVuSans-64" d="M 2906 2969 
L 2906 4863 
L 3481 4863 
L 3481 0 
L 2906 0 
L 2906 525 
Q 2725 213 2448 61 
Q 2172 -91 1784 -91 
Q 1150 -91 751 415 
Q 353 922 353 1747 
Q 353 2572 751 3078 
Q 1150 3584 1784 3584 
Q 2172 3584 2448 3432 
Q 2725 3281 2906 2969 
z
M 947 1747 
Q 947 1113 1208 752 
Q 1469 391 1925 391 
Q 2381 391 2643 752 
Q 2906 1113 2906 1747 
Q 2906 2381 2643 2742 
Q 2381 3103 1925 3103 
Q 1469 3103 1208 2742 
Q 947 2381 947 1747 
z
" transform="scale(0.015625)"/>
      <path id="DejaVuSans-61" d="M 2194 1759 
Q 1497 1759 1228 1600 
Q 959 1441 959 1056 
Q 959 750 1161 570 
Q 1363 391 1709 391 
Q 2188 391 2477 730 
Q 2766 1069 2766 1631 
L 2766 1759 
L 2194 1759 
z
M 3341 1997 
L 3341 0 
L 2766 0 
L 2766 531 
Q 2569 213 2275 61 
Q 1981 -91 1556 -91 
Q 1019 -91 701 211 
Q 384 513 384 1019 
Q 384 1609 779 1909 
Q 1175 2209 1959 2209 
L 2766 2209 
L 2766 2266 
Q 2766 2663 2505 2880 
Q 2244 3097 1772 3097 
Q 1472 3097 1187 3025 
Q 903 2953 641 2809 
L 641 3341 
Q 956 3463 1253 3523 
Q 1550 3584 1831 3584 
Q 2591 3584 2966 3190 
Q 3341 2797 3341 1997 
z
" transform="scale(0.015625)"/>
      <path id="DejaVuSans-6e" d="M 3513 2113 
L 3513 0 
L 2938 0 
L 2938 2094 
Q 2938 2591 2744 2837 
Q 2550 3084 2163 3084 
Q 1697 3084 1428 2787 
Q 1159 2491 1159 1978 
L 1159 0 
L 581 0 
L 581 3500 
L 1159 3500 
L 1159 2956 
Q 1366 3272 1645 3428 
Q 1925 3584 2291 3584 
Q 2894 3584 3203 3211 
Q 3513 2838 3513 2113 
z
" transform="scale(0.015625)"/>
     </defs>
     <use xlink:href="#DejaVuSans-46"/>
     <use xlink:href="#DejaVuSans-7a" transform="translate(57.519531 0)"/>
     <use xlink:href="#DejaVuSans-2c" transform="translate(110.009766 0)"/>
     <use xlink:href="#DejaVuSans-20" transform="translate(141.796875 0)"/>
     <use xlink:href="#DejaVuSans-46" transform="translate(173.583984 0)"/>
     <use xlink:href="#DejaVuSans-43" transform="translate(231.103516 0)"/>
     <use xlink:href="#DejaVuSans-7a" transform="translate(300.927734 0)"/>
     <use xlink:href="#DejaVuSans-2c" transform="translate(353.417969 0)"/>
     <use xlink:href="#DejaVuSans-20" transform="translate(385.205078 0)"/>
     <use xlink:href="#DejaVuSans-43" transform="translate(416.992188 0)"/>
     <use xlink:href="#DejaVuSans-7a" transform="translate(486.816406 0)"/>
     <use xlink:href="#DejaVuSans-2c" transform="translate(539.306641 0)"/>
     <use xlink:href="#DejaVuSans-20" transform="translate(571.09375 0)"/>
     <use xlink:href="#DejaVuSans-43" transform="translate(602.880859 0)"/>
     <use xlink:href="#DejaVuSans-50" transform="translate(672.705078 0)"/>
     <use xlink:href="#DejaVuSans-7a" transform="translate(733.007812 0)"/>
     <use xlink:href="#DejaVuSans-2c" transform="translate(785.498047 0)"/>
     <use xlink:href="#DejaVuSans-20" transform="translate(817.285156 0)"/>
     <use xlink:href="#DejaVuSans-50" transform="translate(849.072266 0)"/>
     <use xlink:href="#DejaVuSans-7a" transform="translate(909.375 0)"/>
     <use xlink:href="#DejaVuSans-20" transform="translate(961.865234 0)"/>
     <use xlink:href="#DejaVuSans-28" transform="translate(993.652344 0)"/>
     <use xlink:href="#DejaVuSans-6d" transform="translate(1032.666016 0)"/>
     <use xlink:href="#DejaVuSans-65" transform="translate(1130.078125 0)"/>
     <use xlink:href="#DejaVuSans-64" transform="translate(1191.601562 0)"/>
     <use xlink:href="#DejaVuSans-69" transform="translate(1255.078125 0)"/>
     <use xlink:href="#DejaVuSans-61" transform="translate(1282.861328 0)"/>
     <use xlink:href="#DejaVuSans-6e" transform="translate(1344.140625 0)"/>
     <use xlink:href="#DejaVuSans-29" transform="translate(1407.519531 0)"/>
    </g>
   </g>
   <g id="legend_1">
    <g id="patch_6">
     <path d="M 51.783053 55.75274 
L 132.92524 55.75274 
Q 134.92524 55.75274 134.92524 53.75274 
L 134.92524 25.118365 
Q 134.92524 23.118365 132.92524 23.118365 
L 51.783053 23.118365 
Q 49.783053 23.118365 49.783053 25.118365 
L 49.783053 53.75274 
Q 49.783053 55.75274 51.783053 55.75274 
z
" style="fill: #ffffff; opacity: 0.8; stroke: #cccccc; stroke-linejoin: miter"/>
    </g>
    <g id="line2d_15">
     <path d="M 53.783053 31.216803 
L 63.783053 31.216803 
L 73.783052 31.216803 
" style="fill: none; stroke: #1f77b4; stroke-width: 1.5; stroke-linecap: square"/>
    </g>
    <g id="text_18">
     <!-- eerie -->
     <g transform="translate(81.783052 34.716803) scale(0.1 -0.1)">
      <defs>
       <path id="DejaVuSans-72" d="M 2631 2963 
Q 2534 3019 2420 3045 
Q 2306 3072 2169 3072 
Q 1681 3072 1420 2755 
Q 1159 2438 1159 1844 
L 1159 0 
L 581 0 
L 581 3500 
L 1159 3500 
L 1159 2956 
Q 1341 3275 1631 3429 
Q 1922 3584 2338 3584 
Q 2397 3584 2469 3576 
Q 2541 3569 2628 3553 
L 2631 2963 
z
" transform="scale(0.015625)"/>
      </defs>
      <use xlink:href="#DejaVuSans-65"/>
      <use xlink:href="#DejaVuSans-65" transform="translate(61.523438 0)"/>
      <use xlink:href="#DejaVuSans-72" transform="translate(123.046875 0)"/>
      <use xlink:href="#DejaVuSans-69" transform="translate(164.160156 0)"/>
      <use xlink:href="#DejaVuSans-65" transform="translate(191.943359 0)"/>
     </g>
    </g>
    <g id="line2d_16">
     <path d="M 53.783053 45.894928 
L 63.783053 45.894928 
L 73.783052 45.894928 
" style="fill: none; stroke: #ff7f0e; stroke-width: 1.5; stroke-linecap: square"/>
    </g>
    <g id="text_19">
     <!-- non_eerie -->
     <g transform="translate(81.783052 49.394928) scale(0.1 -0.1)">
      <defs>
       <path id="DejaVuSans-6f" d="M 1959 3097 
Q 1497 3097 1228 2736 
Q 959 2375 959 1747 
Q 959 1119 1226 758 
Q 1494 397 1959 397 
Q 2419 397 2687 759 
Q 2956 1122 2956 1747 
Q 2956 2369 2687 2733 
Q 2419 3097 1959 3097 
z
M 1959 3584 
Q 2709 3584 3137 3096 
Q 3566 2609 3566 1747 
Q 3566 888 3137 398 
Q 2709 -91 1959 -91 
Q 1206 -91 779 398 
Q 353 888 353 1747 
Q 353 2609 779 3096 
Q 1206 3584 1959 3584 
z
" transform="scale(0.015625)"/>
       <path id="DejaVuSans-5f" d="M 3263 -1063 
L 3263 -1509 
L -63 -1509 
L -63 -1063 
L 3263 -1063 
z
" transform="scale(0.015625)"/>
      </defs>
      <use xlink:href="#DejaVuSans-6e"/>
      <use xlink:href="#DejaVuSans-6f" transform="translate(63.378906 0)"/>
      <use xlink:href="#DejaVuSans-6e" transform="translate(124.560547 0)"/>
      <use xlink:href="#DejaVuSans-5f" transform="translate(187.939453 0)"/>
      <use xlink:href="#DejaVuSans-65" transform="translate(237.939453 0)"/>
      <use xlink:href="#DejaVuSans-65" transform="translate(299.462891 0)"/>
      <use xlink:href="#DejaVuSans-72" transform="translate(360.986328 0)"/>
      <use xlink:href="#DejaVuSans-69" transform="translate(402.099609 0)"/>
      <use xlink:href="#DejaVuSans-65" transform="translate(429.882812 0)"/>
     </g>
    </g>
   </g>
   <g id="FillBetweenPolyCollection_1">
    <defs>
     <path id="m7e3de93ba1" d="M 44.783052 -253.838691 
L 44.783052 -233.603142 
L 46.465392 -237.298747 
L 48.147732 -238.954751 
L 49.830071 -240.018619 
L 51.512411 -241.242348 
L 53.19475 -244.377013 
L 54.87709 -248.517276 
L 56.55943 -249.622252 
L 58.241769 -247.276532 
L 59.924109 -240.024869 
L 61.606448 -230.858827 
L 63.288788 -221.67539 
L 64.971128 -215.177156 
L 66.653467 -213.801306 
L 68.335807 -214.74421 
L 70.018146 -218.192666 
L 71.700486 -224.318427 
L 73.382825 -229.58207 
L 75.065165 -230.727374 
L 76.747505 -228.542999 
L 78.429844 -223.281486 
L 80.112184 -215.788507 
L 81.794523 -208.425554 
L 83.476863 -204.833577 
L 85.159203 -206.021692 
L 86.841542 -210.922977 
L 88.523882 -217.707285 
L 90.206221 -221.680617 
L 91.888561 -221.202185 
L 93.5709 -216.42877 
L 95.25324 -210.035902 
L 96.93558 -206.002838 
L 98.617919 -203.891543 
L 100.300259 -203.141705 
L 101.982598 -201.227249 
L 103.664938 -198.488662 
L 105.347278 -197.318646 
L 107.029617 -199.630287 
L 108.711957 -203.965721 
L 110.394296 -208.960687 
L 112.076636 -212.139609 
L 113.758976 -212.198986 
L 115.441315 -208.236286 
L 117.123655 -202.752428 
L 118.805994 -197.994617 
L 120.488334 -194.862293 
L 122.170673 -193.333673 
L 123.853013 -191.917722 
L 125.535353 -190.057079 
L 127.217692 -189.486487 
L 128.900032 -190.220965 
L 130.582371 -194.329344 
L 132.264711 -201.230213 
L 133.947051 -209.045171 
L 135.62939 -215.275336 
L 137.31173 -218.977372 
L 138.994069 -219.718447 
L 140.676409 -217.907873 
L 142.358748 -215.206445 
L 144.041088 -212.626797 
L 145.723428 -212.927054 
L 147.405767 -214.046907 
L 149.088107 -217.322081 
L 150.770446 -221.396686 
L 152.452786 -225.731468 
L 154.135126 -228.366913 
L 155.817465 -227.92105 
L 157.499805 -224.666451 
L 159.182144 -218.073773 
L 160.864484 -210.985405 
L 162.546823 -206.012321 
L 164.229163 -204.55377 
L 165.911503 -205.362998 
L 167.593842 -209.030596 
L 169.276182 -212.597891 
L 170.958521 -212.923167 
L 172.640861 -210.027186 
L 174.323201 -203.54916 
L 176.00554 -195.429572 
L 177.68788 -186.788009 
L 179.370219 -180.313392 
L 181.052559 -178.491838 
L 182.734899 -182.305289 
L 184.417238 -191.742975 
L 186.099578 -205.622343 
L 187.781917 -224.963867 
L 189.464257 -246.903063 
L 191.146596 -268.959166 
L 192.828936 -289.39301 
L 194.511276 -306.32611 
L 196.193615 -320.493076 
L 197.875955 -332.79381 
L 199.558294 -344.082265 
L 201.240634 -354.540573 
L 202.922974 -364.256605 
L 204.605313 -370.574823 
L 206.287653 -373.514013 
L 207.969992 -374.561696 
L 209.652332 -373.504772 
L 211.334671 -371.218864 
L 213.017011 -368.306735 
L 214.699351 -362.126351 
L 216.38169 -352.507688 
L 218.06403 -339.959383 
L 219.746369 -327.801059 
L 221.428709 -319.158199 
L 223.111049 -316.877712 
L 224.793388 -320.68856 
L 226.475728 -327.16218 
L 228.158067 -332.291325 
L 229.840407 -331.475037 
L 231.522746 -325.889476 
L 233.205086 -317.874272 
L 234.887426 -311.097298 
L 236.569765 -307.191491 
L 238.252105 -304.430965 
L 239.934444 -303.194643 
L 241.616784 -300.611199 
L 243.299124 -297.470946 
L 244.981463 -295.269329 
L 246.663803 -294.17121 
L 248.346142 -292.057166 
L 250.028482 -287.38749 
L 251.710822 -279.849447 
L 253.393161 -271.07601 
L 255.075501 -264.35459 
L 256.75784 -261.927531 
L 258.44018 -264.347147 
L 260.122519 -268.163757 
L 261.804859 -270.51519 
L 263.487199 -268.565636 
L 265.169538 -263.240339 
L 266.851878 -257.291383 
L 268.534217 -252.44038 
L 270.216557 -249.678316 
L 271.898897 -248.874737 
L 273.581236 -245.897756 
L 275.263576 -240.269665 
L 276.945915 -235.205268 
L 278.628255 -232.359041 
L 280.310594 -231.824636 
L 281.992934 -232.465497 
L 283.675274 -231.935172 
L 285.357613 -229.833461 
L 287.039953 -225.0816 
L 288.722292 -219.724387 
L 290.404632 -216.240158 
L 292.086972 -215.950799 
L 293.769311 -217.642078 
L 295.451651 -219.562301 
L 297.13399 -220.088033 
L 298.81633 -216.635332 
L 300.498669 -212.219918 
L 302.181009 -209.4923 
L 303.863349 -210.285366 
L 305.545688 -216.042934 
L 307.228028 -223.509387 
L 308.910367 -230.15789 
L 310.592707 -234.961448 
L 312.275047 -239.508043 
L 313.957386 -244.426935 
L 315.639726 -251.665497 
L 317.322065 -261.535645 
L 319.004405 -272.116486 
L 320.686745 -280.762089 
L 322.369084 -288.376936 
L 324.051424 -295.764842 
L 325.733763 -304.873891 
L 327.416103 -316.301542 
L 329.098442 -328.49949 
L 330.780782 -340.280615 
L 332.463122 -349.562899 
L 334.145461 -355.915133 
L 335.827801 -360.079448 
L 337.51014 -362.631887 
L 339.19248 -364.947127 
L 340.87482 -368.826271 
L 342.557159 -373.25058 
L 344.239499 -378.184594 
L 345.921838 -382.368979 
L 347.604178 -384.359504 
L 349.286517 -383.129062 
L 350.968857 -378.697901 
L 352.651197 -373.323995 
L 354.333536 -368.312996 
L 356.015876 -366.283572 
L 357.698215 -368.503079 
L 359.380555 -373.406164 
L 361.062895 -377.069007 
L 362.745234 -378.10334 
L 364.427574 -373.848725 
L 366.109913 -365.950891 
L 367.792253 -357.565753 
L 369.474593 -352.419798 
L 371.156932 -351.113655 
L 372.839272 -352.499028 
L 374.521611 -354.349088 
L 376.203951 -354.320701 
L 377.88629 -352.3738 
L 379.56863 -349.687629 
L 381.25097 -348.88023 
L 382.933309 -350.815036 
L 384.615649 -352.739192 
L 386.297988 -351.900529 
L 387.980328 -347.967195 
L 389.662668 -341.581764 
L 391.345007 -334.640475 
L 393.027347 -331.105319 
L 394.709686 -330.516453 
L 396.392026 -330.032076 
L 398.074365 -327.61984 
L 399.756705 -320.832516 
L 401.439045 -311.268158 
L 403.121384 -303.036003 
L 404.803724 -298.559285 
L 406.486063 -297.556326 
L 408.168403 -297.705826 
L 409.850743 -296.050882 
L 411.533082 -292.104427 
L 413.215422 -286.631671 
L 414.897761 -282.212736 
L 416.580101 -280.020824 
L 418.26244 -279.254599 
L 419.94478 -278.359664 
L 421.62712 -276.778347 
L 423.309459 -273.674854 
L 424.991799 -268.608128 
L 426.674138 -264.548629 
L 428.356478 -260.221642 
L 430.038818 -256.906563 
L 431.721157 -253.312712 
L 433.403497 -249.911277 
L 435.085836 -246.869739 
L 436.768176 -244.62333 
L 438.450516 -244.282043 
L 440.132855 -244.317735 
L 441.815195 -243.872233 
L 443.497534 -240.982251 
L 445.179874 -235.321345 
L 446.862213 -230.009231 
L 448.544553 -227.917321 
L 450.226893 -229.647937 
L 451.909232 -232.518747 
L 453.591572 -234.312905 
L 455.273911 -233.067534 
L 456.956251 -228.434323 
L 458.638591 -222.604777 
L 460.32093 -217.968629 
L 462.00327 -216.578277 
L 463.685609 -216.92398 
L 465.367949 -217.096771 
L 467.050288 -214.386338 
L 468.732628 -208.222365 
L 470.414968 -200.712263 
L 472.097307 -194.786585 
L 473.779647 -192.371151 
L 475.461986 -194.380111 
L 477.144326 -198.788999 
L 478.826666 -202.582844 
L 480.509005 -201.485711 
L 482.191345 -196.407827 
L 483.873684 -189.397462 
L 485.556024 -182.429763 
L 487.238363 -177.481298 
L 488.920703 -176.815801 
L 490.603043 -178.78893 
L 492.285382 -181.599175 
L 493.967722 -182.219743 
L 495.650061 -179.78647 
L 497.332401 -172.757434 
L 499.014741 -165.029908 
L 500.69708 -159.579913 
L 502.37942 -157.127846 
L 504.061759 -157.61627 
L 505.744099 -159.211336 
L 507.426439 -162.893963 
L 509.108778 -165.714469 
L 510.791118 -166.535915 
L 512.473457 -165.528604 
L 514.155797 -162.720587 
L 515.838136 -159.43245 
L 517.520476 -155.975117 
L 519.202816 -154.594927 
L 520.885155 -155.15575 
L 522.567495 -156.199338 
L 524.249834 -157.396145 
L 525.932174 -155.714773 
L 527.614514 -150.914611 
L 529.296853 -144.341163 
L 530.979193 -137.617569 
L 532.661532 -132.818004 
L 534.343872 -129.682574 
L 536.026211 -128.909991 
L 537.708551 -128.28759 
L 539.390891 -129.044749 
L 541.07323 -132.055857 
L 542.75557 -137.572969 
L 544.437909 -145.252054 
L 546.120249 -153.661196 
L 547.802589 -159.391962 
L 549.484928 -161.946429 
L 551.167268 -161.030525 
L 552.849607 -158.648668 
L 554.531947 -156.602385 
L 556.214286 -154.902798 
L 557.896626 -154.502221 
L 559.578966 -155.004908 
L 561.261305 -154.71852 
L 561.261305 -185.227998 
L 561.261305 -185.227998 
L 559.578966 -185.414668 
L 557.896626 -184.687789 
L 556.214286 -184.388676 
L 554.531947 -185.671311 
L 552.849607 -187.200088 
L 551.167268 -189.022014 
L 549.484928 -190.2441 
L 547.802589 -188.8982 
L 546.120249 -184.006461 
L 544.437909 -177.066043 
L 542.75557 -169.944145 
L 541.07323 -164.229455 
L 539.390891 -160.448086 
L 537.708551 -158.187503 
L 536.026211 -158.278735 
L 534.343872 -159.765935 
L 532.661532 -162.139538 
L 530.979193 -167.962171 
L 529.296853 -174.761264 
L 527.614514 -180.957425 
L 525.932174 -185.445353 
L 524.249834 -187.521916 
L 522.567495 -186.932991 
L 520.885155 -186.623938 
L 519.202816 -186.869345 
L 517.520476 -187.525013 
L 515.838136 -190.242742 
L 514.155797 -192.673207 
L 512.473457 -194.121184 
L 510.791118 -194.20923 
L 509.108778 -193.092331 
L 507.426439 -191.17661 
L 505.744099 -188.500574 
L 504.061759 -186.858529 
L 502.37942 -186.810082 
L 500.69708 -189.515084 
L 499.014741 -194.308749 
L 497.332401 -201.612573 
L 495.650061 -208.218565 
L 493.967722 -210.661004 
L 492.285382 -210.02832 
L 490.603043 -208.072431 
L 488.920703 -207.348516 
L 487.238363 -209.250788 
L 485.556024 -214.401703 
L 483.873684 -221.65591 
L 482.191345 -228.75453 
L 480.509005 -232.87557 
L 478.826666 -233.326842 
L 477.144326 -229.99057 
L 475.461986 -224.814824 
L 473.779647 -222.629506 
L 472.097307 -225.467522 
L 470.414968 -230.929578 
L 468.732628 -237.542319 
L 467.050288 -242.68647 
L 465.367949 -244.535375 
L 463.685609 -243.588977 
L 462.00327 -243.404434 
L 460.32093 -245.693179 
L 458.638591 -250.692188 
L 456.956251 -256.775256 
L 455.273911 -261.055227 
L 453.591572 -261.665585 
L 451.909232 -260.312988 
L 450.226893 -256.535343 
L 448.544553 -254.258717 
L 446.862213 -255.890897 
L 445.179874 -261.258371 
L 443.497534 -267.587386 
L 441.815195 -271.429381 
L 440.132855 -272.875041 
L 438.450516 -273.568923 
L 436.768176 -274.961445 
L 435.085836 -277.866481 
L 433.403497 -280.782296 
L 431.721157 -283.451446 
L 430.038818 -285.524812 
L 428.356478 -287.748102 
L 426.674138 -291.412383 
L 424.991799 -295.421809 
L 423.309459 -300.997698 
L 421.62712 -306.090738 
L 419.94478 -309.379872 
L 418.26244 -310.985521 
L 416.580101 -312.473472 
L 414.897761 -314.130931 
L 413.215422 -317.459391 
L 411.533082 -321.839325 
L 409.850743 -325.092652 
L 408.168403 -325.413726 
L 406.486063 -325.275254 
L 404.803724 -326.946055 
L 403.121384 -331.666361 
L 401.439045 -339.575647 
L 399.756705 -348.7126 
L 398.074365 -355.353811 
L 396.392026 -357.362962 
L 394.709686 -357.501181 
L 393.027347 -356.641145 
L 391.345007 -359.624006 
L 389.662668 -365.793974 
L 387.980328 -371.871382 
L 386.297988 -375.815491 
L 384.615649 -376.205897 
L 382.933309 -375.177211 
L 381.25097 -374.137029 
L 379.56863 -375.883505 
L 377.88629 -379.402161 
L 376.203951 -382.570689 
L 374.521611 -383.614961 
L 372.839272 -383.150671 
L 371.156932 -382.239912 
L 369.474593 -383.851832 
L 367.792253 -389.179256 
L 366.109913 -397.213193 
L 364.427574 -405.826489 
L 362.745234 -410.738419 
L 361.062895 -409.964792 
L 359.380555 -405.662164 
L 357.698215 -400.610934 
L 356.015876 -397.754038 
L 354.333536 -399.088087 
L 352.651197 -403.037008 
L 350.968857 -407.504467 
L 349.286517 -411.528491 
L 347.604178 -413.881635 
L 345.921838 -413.354469 
L 344.239499 -410.175127 
L 342.557159 -405.178769 
L 340.87482 -400.513878 
L 339.19248 -396.261016 
L 337.51014 -393.434205 
L 335.827801 -391.20156 
L 334.145461 -387.982281 
L 332.463122 -382.147896 
L 330.780782 -372.521034 
L 329.098442 -359.187507 
L 327.416103 -345.497301 
L 325.733763 -333.493443 
L 324.051424 -324.601781 
L 322.369084 -317.329136 
L 320.686745 -310.315738 
L 319.004405 -301.822362 
L 317.322065 -291.295658 
L 315.639726 -280.841952 
L 313.957386 -271.616583 
L 312.275047 -265.205737 
L 310.592707 -259.156831 
L 308.910367 -254.050923 
L 307.228028 -248.338142 
L 305.545688 -242.411659 
L 303.863349 -238.408616 
L 302.181009 -238.569514 
L 300.498669 -241.257709 
L 298.81633 -245.19984 
L 297.13399 -247.434298 
L 295.451651 -246.621175 
L 293.769311 -244.958733 
L 292.086972 -243.779514 
L 290.404632 -244.555729 
L 288.722292 -248.473825 
L 287.039953 -254.410445 
L 285.357613 -258.858357 
L 283.675274 -260.412848 
L 281.992934 -259.840721 
L 280.310594 -258.602308 
L 278.628255 -259.341769 
L 276.945915 -262.382256 
L 275.263576 -267.01753 
L 273.581236 -271.332446 
L 271.898897 -273.896335 
L 270.216557 -275.830711 
L 268.534217 -279.508482 
L 266.851878 -284.898635 
L 265.169538 -291.198503 
L 263.487199 -297.17663 
L 261.804859 -300.210363 
L 260.122519 -298.997756 
L 258.44018 -295.404748 
L 256.75784 -291.698343 
L 255.075501 -293.145215 
L 253.393161 -298.236781 
L 251.710822 -306.021454 
L 250.028482 -312.785585 
L 248.346142 -317.352463 
L 246.663803 -319.610445 
L 244.981463 -320.872657 
L 243.299124 -322.890169 
L 241.616784 -324.721365 
L 239.934444 -326.492166 
L 238.252105 -327.765582 
L 236.569765 -329.831022 
L 234.887426 -333.560132 
L 233.205086 -339.373746 
L 231.522746 -347.865465 
L 229.840407 -354.271874 
L 228.158067 -355.953828 
L 226.475728 -351.120966 
L 224.793388 -344.840803 
L 223.111049 -340.990418 
L 221.428709 -343.652407 
L 219.746369 -352.650727 
L 218.06403 -365.988513 
L 216.38169 -377.763445 
L 214.699351 -385.427228 
L 213.017011 -391.088846 
L 211.334671 -395.376106 
L 209.652332 -399.034022 
L 207.969992 -402.508676 
L 206.287653 -403.73592 
L 204.605313 -401.501415 
L 202.922974 -394.561034 
L 201.240634 -384.814269 
L 199.558294 -373.05919 
L 197.875955 -360.496782 
L 196.193615 -347.774268 
L 194.511276 -333.176339 
L 192.828936 -315.237329 
L 191.146596 -294.195872 
L 189.464257 -272.248233 
L 187.781917 -249.731765 
L 186.099578 -229.185385 
L 184.417238 -214.261855 
L 182.734899 -203.997955 
L 181.052559 -199.883922 
L 179.370219 -201.890388 
L 177.68788 -208.705712 
L 176.00554 -218.171601 
L 174.323201 -226.946023 
L 172.640861 -232.043175 
L 170.958521 -233.51868 
L 169.276182 -231.812557 
L 167.593842 -228.190644 
L 165.911503 -225.47111 
L 164.229163 -225.729868 
L 162.546823 -228.174614 
L 160.864484 -233.36146 
L 159.182144 -239.063069 
L 157.499805 -244.441238 
L 155.817465 -247.517005 
L 154.135126 -248.717151 
L 152.452786 -248.436761 
L 150.770446 -246.449046 
L 149.088107 -244.221128 
L 147.405767 -240.512311 
L 145.723428 -238.623237 
L 144.041088 -237.637502 
L 142.358748 -238.751101 
L 140.676409 -241.177155 
L 138.994069 -241.57344 
L 137.31173 -239.198464 
L 135.62939 -234.410032 
L 133.947051 -227.044726 
L 132.264711 -217.957009 
L 130.582371 -210.597704 
L 128.900032 -205.74454 
L 127.217692 -205.190045 
L 125.535353 -205.327894 
L 123.853013 -206.313113 
L 122.170673 -208.021943 
L 120.488334 -209.829237 
L 118.805994 -214.231735 
L 117.123655 -220.21897 
L 115.441315 -226.174663 
L 113.758976 -230.270976 
L 112.076636 -230.12451 
L 110.394296 -225.640562 
L 108.711957 -219.960406 
L 107.029617 -215.295803 
L 105.347278 -213.465871 
L 103.664938 -214.887866 
L 101.982598 -217.625883 
L 100.300259 -220.286176 
L 98.617919 -221.301188 
L 96.93558 -223.247607 
L 95.25324 -225.894973 
L 93.5709 -230.701556 
L 91.888561 -235.842686 
L 90.206221 -237.692185 
L 88.523882 -235.8891 
L 86.841542 -230.422614 
L 85.159203 -226.177507 
L 83.476863 -224.278379 
L 81.794523 -225.844119 
L 80.112184 -232.06357 
L 78.429844 -239.780912 
L 76.747505 -244.98402 
L 75.065165 -246.22176 
L 73.382825 -244.300645 
L 71.700486 -239.685522 
L 70.018146 -234.102473 
L 68.335807 -229.939952 
L 66.653467 -228.611019 
L 64.971128 -230.677927 
L 63.288788 -238.170537 
L 61.606448 -248.212143 
L 59.924109 -257.931998 
L 58.241769 -264.792276 
L 56.55943 -266.901236 
L 54.87709 -265.555315 
L 53.19475 -261.678676 
L 51.512411 -259.16177 
L 49.830071 -258.605615 
L 48.147732 -258.107017 
L 46.465392 -256.746578 
L 44.783052 -253.838691 
z
" style="stroke: #1f77b4; stroke-opacity: 0.3"/>
    </defs>
    <g>
     <use xlink:href="#m7e3de93ba1" x="0" y="432" style="fill: #1f77b4; fill-opacity: 0.3; stroke: #1f77b4; stroke-opacity: 0.3"/>
    </g>
   </g>
   <g id="FillBetweenPolyCollection_2">
    <defs>
     <path id="m447e5a1431" d="M 44.783052 -223.518649 
L 44.783052 -218.831547 
L 46.465392 -219.007845 
L 48.147732 -218.166337 
L 49.830071 -216.15887 
L 51.512411 -213.26158 
L 53.19475 -210.20127 
L 54.87709 -207.978054 
L 56.55943 -207.365429 
L 58.241769 -208.712165 
L 59.924109 -211.680222 
L 61.606448 -215.405112 
L 63.288788 -218.968516 
L 64.971128 -221.38432 
L 66.653467 -222.436875 
L 68.335807 -222.616493 
L 70.018146 -222.519867 
L 71.700486 -222.58694 
L 73.382825 -223.114778 
L 75.065165 -224.138101 
L 76.747505 -225.457294 
L 78.429844 -226.620286 
L 80.112184 -227.698669 
L 81.794523 -228.300094 
L 83.476863 -228.421519 
L 85.159203 -228.467327 
L 86.841542 -228.340668 
L 88.523882 -228.539028 
L 90.206221 -228.945776 
L 91.888561 -229.467477 
L 93.5709 -229.449842 
L 95.25324 -228.755862 
L 96.93558 -227.221596 
L 98.617919 -225.408795 
L 100.300259 -223.664868 
L 101.982598 -222.23741 
L 103.664938 -221.492322 
L 105.347278 -221.589911 
L 107.029617 -222.331509 
L 108.711957 -223.697412 
L 110.394296 -225.700678 
L 112.076636 -227.497652 
L 113.758976 -228.450032 
L 115.441315 -227.886747 
L 117.123655 -225.885446 
L 118.805994 -222.758061 
L 120.488334 -219.482395 
L 122.170673 -217.283431 
L 123.853013 -216.427768 
L 125.535353 -216.465183 
L 127.217692 -216.702314 
L 128.900032 -216.604618 
L 130.582371 -216.587141 
L 132.264711 -217.092985 
L 133.947051 -218.623329 
L 135.62939 -221.098831 
L 137.31173 -223.405857 
L 138.994069 -224.46666 
L 140.676409 -223.71018 
L 142.358748 -221.813206 
L 144.041088 -219.723293 
L 145.723428 -218.47614 
L 147.405767 -218.875199 
L 149.088107 -220.073457 
L 150.770446 -221.184284 
L 152.452786 -221.427264 
L 154.135126 -220.776013 
L 155.817465 -219.673433 
L 157.499805 -218.575087 
L 159.182144 -217.773881 
L 160.864484 -216.800985 
L 162.546823 -215.363527 
L 164.229163 -213.058499 
L 165.911503 -210.427222 
L 167.593842 -207.195484 
L 169.276182 -203.231918 
L 170.958521 -198.94536 
L 172.640861 -194.411277 
L 174.323201 -190.688382 
L 176.00554 -188.350345 
L 177.68788 -188.349041 
L 179.370219 -191.065933 
L 181.052559 -196.950096 
L 182.734899 -205.59135 
L 184.417238 -216.85909 
L 186.099578 -231.644077 
L 187.781917 -249.717098 
L 189.464257 -270.499982 
L 191.146596 -292.396541 
L 192.828936 -312.770808 
L 194.511276 -329.660257 
L 196.193615 -341.468566 
L 197.875955 -348.760111 
L 199.558294 -352.963829 
L 201.240634 -355.587027 
L 202.922974 -357.311724 
L 204.605313 -358.693019 
L 206.287653 -359.531839 
L 207.969992 -359.399852 
L 209.652332 -358.05873 
L 211.334671 -355.556507 
L 213.017011 -352.193543 
L 214.699351 -348.291466 
L 216.38169 -344.30901 
L 218.06403 -341.02301 
L 219.746369 -338.490226 
L 221.428709 -336.726811 
L 223.111049 -334.819211 
L 224.793388 -331.751028 
L 226.475728 -327.125353 
L 228.158067 -320.951298 
L 229.840407 -313.662348 
L 231.522746 -305.836232 
L 233.205086 -297.78156 
L 234.887426 -289.667902 
L 236.569765 -281.622206 
L 238.252105 -274.01653 
L 239.934444 -267.362451 
L 241.616784 -261.980612 
L 243.299124 -257.8009 
L 244.981463 -254.714382 
L 246.663803 -251.735247 
L 248.346142 -248.729907 
L 250.028482 -246.074431 
L 251.710822 -244.630318 
L 253.393161 -244.974395 
L 255.075501 -246.86026 
L 256.75784 -249.03229 
L 258.44018 -249.804679 
L 260.122519 -248.516633 
L 261.804859 -245.949849 
L 263.487199 -243.42806 
L 265.169538 -242.456396 
L 266.851878 -243.485249 
L 268.534217 -246.190499 
L 270.216557 -249.397602 
L 271.898897 -252.214973 
L 273.581236 -254.086129 
L 275.263576 -255.228645 
L 276.945915 -255.99293 
L 278.628255 -256.669587 
L 280.310594 -257.807999 
L 281.992934 -259.623011 
L 283.675274 -262.158947 
L 285.357613 -265.241684 
L 287.039953 -268.663014 
L 288.722292 -271.846644 
L 290.404632 -273.921145 
L 292.086972 -274.670288 
L 293.769311 -273.72037 
L 295.451651 -272.18394 
L 297.13399 -270.874673 
L 298.81633 -270.069702 
L 300.498669 -269.726178 
L 302.181009 -269.299382 
L 303.863349 -268.420094 
L 305.545688 -266.833364 
L 307.228028 -264.359655 
L 308.910367 -261.151764 
L 310.592707 -257.608517 
L 312.275047 -254.395477 
L 313.957386 -252.082385 
L 315.639726 -251.361334 
L 317.322065 -252.26369 
L 319.004405 -254.069162 
L 320.686745 -255.676422 
L 322.369084 -255.896518 
L 324.051424 -254.511789 
L 325.733763 -252.198953 
L 327.416103 -250.212735 
L 329.098442 -249.902194 
L 330.780782 -251.574934 
L 332.463122 -254.334244 
L 334.145461 -257.103437 
L 335.827801 -258.930219 
L 337.51014 -259.663846 
L 339.19248 -259.781318 
L 340.87482 -260.011615 
L 342.557159 -260.837434 
L 344.239499 -262.085019 
L 345.921838 -263.164276 
L 347.604178 -263.606851 
L 349.286517 -263.197709 
L 350.968857 -262.128307 
L 352.651197 -260.566904 
L 354.333536 -258.648568 
L 356.015876 -256.345009 
L 357.698215 -253.374541 
L 359.380555 -250.147975 
L 361.062895 -247.032164 
L 362.745234 -244.215631 
L 364.427574 -241.892072 
L 366.109913 -239.577902 
L 367.792253 -236.863446 
L 369.474593 -233.858156 
L 371.156932 -230.764909 
L 372.839272 -228.392822 
L 374.521611 -227.280645 
L 376.203951 -227.690883 
L 377.88629 -228.932357 
L 379.56863 -229.907492 
L 381.25097 -229.975668 
L 382.933309 -228.468782 
L 384.615649 -226.044705 
L 386.297988 -223.835839 
L 387.980328 -222.074969 
L 389.662668 -221.007435 
L 391.345007 -220.208923 
L 393.027347 -219.078185 
L 394.709686 -217.68034 
L 396.392026 -216.291334 
L 398.074365 -215.67074 
L 399.756705 -216.035776 
L 401.439045 -217.249789 
L 403.121384 -218.372519 
L 404.803724 -218.753809 
L 406.486063 -218.152466 
L 408.168403 -216.734258 
L 409.850743 -214.901804 
L 411.533082 -213.061658 
L 413.215422 -211.776691 
L 414.897761 -210.892541 
L 416.580101 -210.818286 
L 418.26244 -211.440226 
L 419.94478 -212.860971 
L 421.62712 -215.139846 
L 423.309459 -218.403151 
L 424.991799 -221.846227 
L 426.674138 -224.843736 
L 428.356478 -226.743548 
L 430.038818 -227.290751 
L 431.721157 -226.584914 
L 433.403497 -224.941116 
L 435.085836 -223.218935 
L 436.768176 -221.646721 
L 438.450516 -220.412408 
L 440.132855 -219.872059 
L 441.815195 -220.371197 
L 443.497534 -221.51507 
L 445.179874 -222.904969 
L 446.862213 -224.046309 
L 448.544553 -224.535361 
L 450.226893 -224.186049 
L 451.909232 -223.453528 
L 453.591572 -223.121824 
L 455.273911 -223.984183 
L 456.956251 -226.287336 
L 458.638591 -229.336413 
L 460.32093 -232.196267 
L 462.00327 -233.776614 
L 463.685609 -234.258543 
L 465.367949 -234.244983 
L 467.050288 -234.695051 
L 468.732628 -236.523104 
L 470.414968 -239.411527 
L 472.097307 -242.489329 
L 473.779647 -244.807866 
L 475.461986 -246.040427 
L 477.144326 -246.550473 
L 478.826666 -247.27528 
L 480.509005 -248.772954 
L 482.191345 -250.171952 
L 483.873684 -250.366483 
L 485.556024 -248.872495 
L 487.238363 -246.268701 
L 488.920703 -243.720556 
L 490.603043 -242.525787 
L 492.285382 -243.182903 
L 493.967722 -245.073575 
L 495.650061 -246.450459 
L 497.332401 -246.292773 
L 499.014741 -243.998409 
L 500.69708 -240.344567 
L 502.37942 -236.845553 
L 504.061759 -234.516913 
L 505.744099 -233.69348 
L 507.426439 -233.583465 
L 509.108778 -232.908473 
L 510.791118 -231.318909 
L 512.473457 -229.041405 
L 514.155797 -226.969075 
L 515.838136 -226.023202 
L 517.520476 -226.450562 
L 519.202816 -227.702758 
L 520.885155 -228.933879 
L 522.567495 -229.444771 
L 524.249834 -229.454528 
L 525.932174 -229.209152 
L 527.614514 -229.166974 
L 529.296853 -229.146939 
L 530.979193 -228.481059 
L 532.661532 -226.540469 
L 534.343872 -223.379418 
L 536.026211 -219.610638 
L 537.708551 -216.184594 
L 539.390891 -213.90781 
L 541.07323 -213.12723 
L 542.75557 -213.424749 
L 544.437909 -214.109488 
L 546.120249 -214.498686 
L 547.802589 -214.685471 
L 549.484928 -214.59322 
L 551.167268 -214.446904 
L 552.849607 -214.137302 
L 554.531947 -213.258719 
L 556.214286 -211.62534 
L 557.896626 -209.506826 
L 559.578966 -207.430248 
L 561.261305 -206.202112 
L 561.261305 -212.40738 
L 561.261305 -212.40738 
L 559.578966 -213.76606 
L 557.896626 -215.920615 
L 556.214286 -217.978532 
L 554.531947 -219.561138 
L 552.849607 -220.379851 
L 551.167268 -220.709472 
L 549.484928 -220.849193 
L 547.802589 -220.855734 
L 546.120249 -220.707049 
L 544.437909 -220.267644 
L 542.75557 -219.635005 
L 541.07323 -219.338952 
L 539.390891 -220.115125 
L 537.708551 -222.506208 
L 536.026211 -225.952934 
L 534.343872 -229.626165 
L 532.661532 -233.027367 
L 530.979193 -235.064105 
L 529.296853 -235.779455 
L 527.614514 -235.713804 
L 525.932174 -235.605331 
L 524.249834 -235.614517 
L 522.567495 -235.487504 
L 520.885155 -234.778249 
L 519.202816 -233.648533 
L 517.520476 -232.480631 
L 515.838136 -232.316256 
L 514.155797 -233.239154 
L 512.473457 -235.301553 
L 510.791118 -237.502817 
L 509.108778 -239.156972 
L 507.426439 -239.776672 
L 505.744099 -239.958896 
L 504.061759 -240.674761 
L 502.37942 -242.772763 
L 500.69708 -246.279757 
L 499.014741 -249.905957 
L 497.332401 -252.363312 
L 495.650061 -252.587791 
L 493.967722 -251.030003 
L 492.285382 -249.099572 
L 490.603043 -248.190441 
L 488.920703 -249.18701 
L 487.238363 -251.604705 
L 485.556024 -254.250402 
L 483.873684 -255.785314 
L 482.191345 -255.689504 
L 480.509005 -254.268351 
L 478.826666 -252.73442 
L 477.144326 -251.930946 
L 475.461986 -251.379193 
L 473.779647 -250.167605 
L 472.097307 -248.0037 
L 470.414968 -245.130252 
L 468.732628 -242.342583 
L 467.050288 -240.742165 
L 465.367949 -240.255788 
L 463.685609 -240.252911 
L 462.00327 -239.833126 
L 460.32093 -238.048181 
L 458.638591 -235.157921 
L 456.956251 -232.154978 
L 455.273911 -229.923817 
L 453.591572 -229.056813 
L 451.909232 -229.300131 
L 450.226893 -230.009369 
L 448.544553 -230.431306 
L 446.862213 -229.848563 
L 445.179874 -228.582393 
L 443.497534 -227.174531 
L 441.815195 -226.063097 
L 440.132855 -225.57417 
L 438.450516 -225.934476 
L 436.768176 -227.011224 
L 435.085836 -228.540613 
L 433.403497 -230.351943 
L 431.721157 -232.060742 
L 430.038818 -232.830373 
L 428.356478 -232.373353 
L 426.674138 -230.516132 
L 424.991799 -227.478089 
L 423.309459 -224.048787 
L 421.62712 -220.704748 
L 419.94478 -218.334408 
L 418.26244 -217.040988 
L 416.580101 -216.463541 
L 414.897761 -216.64196 
L 413.215422 -217.539347 
L 411.533082 -218.814723 
L 409.850743 -220.570402 
L 408.168403 -222.459462 
L 406.486063 -223.889795 
L 404.803724 -224.552162 
L 403.121384 -224.114424 
L 401.439045 -222.919768 
L 399.756705 -221.568245 
L 398.074365 -221.19421 
L 396.392026 -221.857056 
L 394.709686 -223.274355 
L 393.027347 -224.680146 
L 391.345007 -225.927012 
L 389.662668 -226.758898 
L 387.980328 -227.859853 
L 386.297988 -229.526448 
L 384.615649 -231.794663 
L 382.933309 -234.171595 
L 381.25097 -235.69377 
L 379.56863 -235.555869 
L 377.88629 -234.524936 
L 376.203951 -233.299988 
L 374.521611 -233.061154 
L 372.839272 -234.275771 
L 371.156932 -236.801969 
L 369.474593 -240.138936 
L 367.792253 -243.238554 
L 366.109913 -245.95768 
L 364.427574 -248.209103 
L 362.745234 -250.494439 
L 361.062895 -253.185882 
L 359.380555 -256.221939 
L 357.698215 -259.376059 
L 356.015876 -262.233538 
L 354.333536 -264.469326 
L 352.651197 -266.330042 
L 350.968857 -267.85881 
L 349.286517 -268.846646 
L 347.604178 -269.276103 
L 345.921838 -268.986929 
L 344.239499 -267.862584 
L 342.557159 -266.627951 
L 340.87482 -265.673902 
L 339.19248 -265.404697 
L 337.51014 -265.223323 
L 335.827801 -264.512065 
L 334.145461 -262.701114 
L 332.463122 -259.998826 
L 330.780782 -257.321088 
L 329.098442 -255.728029 
L 327.416103 -255.997144 
L 325.733763 -257.798479 
L 324.051424 -259.911307 
L 322.369084 -261.31701 
L 320.686745 -261.129391 
L 319.004405 -259.622473 
L 317.322065 -257.86108 
L 315.639726 -256.996695 
L 313.957386 -257.655152 
L 312.275047 -259.909069 
L 310.592707 -263.173836 
L 308.910367 -266.642103 
L 307.228028 -269.796562 
L 305.545688 -272.22763 
L 303.863349 -273.826352 
L 302.181009 -274.689123 
L 300.498669 -275.03259 
L 298.81633 -275.348086 
L 297.13399 -276.196743 
L 295.451651 -277.543732 
L 293.769311 -279.095531 
L 292.086972 -279.955573 
L 290.404632 -279.337966 
L 288.722292 -277.191 
L 287.039953 -273.990899 
L 285.357613 -270.662752 
L 283.675274 -267.545771 
L 281.992934 -265.176291 
L 280.310594 -263.546303 
L 278.628255 -262.463851 
L 276.945915 -261.719515 
L 275.263576 -261.022004 
L 273.581236 -259.935305 
L 271.898897 -257.951 
L 270.216557 -255.177961 
L 268.534217 -252.19856 
L 266.851878 -249.510768 
L 265.169538 -248.464603 
L 263.487199 -249.313965 
L 261.804859 -251.857349 
L 260.122519 -254.495081 
L 258.44018 -255.734037 
L 256.75784 -254.862935 
L 255.075501 -252.58443 
L 253.393161 -250.414376 
L 251.710822 -249.955599 
L 250.028482 -251.218745 
L 248.346142 -253.811159 
L 246.663803 -256.834874 
L 244.981463 -259.795763 
L 243.299124 -263.084393 
L 241.616784 -267.296601 
L 239.934444 -272.608765 
L 238.252105 -279.192752 
L 236.569765 -286.802109 
L 234.887426 -294.883786 
L 233.205086 -303.037332 
L 231.522746 -310.897221 
L 229.840407 -318.597059 
L 228.158067 -325.684534 
L 226.475728 -331.974347 
L 224.793388 -336.727398 
L 223.111049 -339.852718 
L 221.428709 -342.024494 
L 219.746369 -343.964056 
L 218.06403 -346.321233 
L 216.38169 -349.517012 
L 214.699351 -353.309413 
L 213.017011 -357.330129 
L 211.334671 -360.692164 
L 209.652332 -363.154826 
L 207.969992 -364.474129 
L 206.287653 -364.732642 
L 204.605313 -363.955018 
L 202.922974 -362.527928 
L 201.240634 -360.841078 
L 199.558294 -358.386867 
L 197.875955 -354.263281 
L 196.193615 -346.987872 
L 194.511276 -335.390537 
L 192.828936 -318.531736 
L 191.146596 -298.117326 
L 189.464257 -276.270262 
L 187.781917 -255.477982 
L 186.099578 -237.160533 
L 184.417238 -222.124734 
L 182.734899 -210.732163 
L 181.052559 -201.980049 
L 179.370219 -196.041148 
L 177.68788 -193.220107 
L 176.00554 -193.19048 
L 174.323201 -195.693871 
L 172.640861 -199.439227 
L 170.958521 -203.733211 
L 169.276182 -208.069319 
L 167.593842 -212.155524 
L 165.911503 -215.448374 
L 164.229163 -218.109636 
L 162.546823 -220.270574 
L 160.864484 -221.69609 
L 159.182144 -222.688077 
L 157.499805 -223.531369 
L 155.817465 -224.556116 
L 154.135126 -225.633911 
L 152.452786 -226.305475 
L 150.770446 -226.02326 
L 149.088107 -225.064956 
L 147.405767 -223.97215 
L 145.723428 -223.571415 
L 144.041088 -224.702737 
L 142.358748 -226.772659 
L 140.676409 -228.721303 
L 138.994069 -229.41673 
L 137.31173 -228.300448 
L 135.62939 -225.807107 
L 133.947051 -223.250323 
L 132.264711 -221.687014 
L 130.582371 -221.28793 
L 128.900032 -221.3953 
L 127.217692 -221.350888 
L 125.535353 -220.853001 
L 123.853013 -220.506479 
L 122.170673 -221.107935 
L 120.488334 -223.096778 
L 118.805994 -226.271194 
L 117.123655 -229.403044 
L 115.441315 -231.403826 
L 113.758976 -231.880848 
L 112.076636 -230.907102 
L 110.394296 -229.224392 
L 108.711957 -227.400675 
L 107.029617 -225.998991 
L 105.347278 -225.027853 
L 103.664938 -224.801594 
L 101.982598 -225.421491 
L 100.300259 -226.846255 
L 98.617919 -228.656443 
L 96.93558 -230.369831 
L 95.25324 -231.828417 
L 93.5709 -232.586959 
L 91.888561 -232.707654 
L 90.206221 -232.314911 
L 88.523882 -231.896158 
L 86.841542 -231.608708 
L 85.159203 -231.617211 
L 83.476863 -231.587307 
L 81.794523 -231.468642 
L 80.112184 -230.919191 
L 78.429844 -230.003236 
L 76.747505 -228.861748 
L 75.065165 -227.664972 
L 73.382825 -226.503853 
L 71.700486 -225.804961 
L 70.018146 -225.80328 
L 68.335807 -225.987422 
L 66.653467 -225.90144 
L 64.971128 -224.955801 
L 63.288788 -222.620997 
L 61.606448 -218.979143 
L 59.924109 -215.11709 
L 58.241769 -212.211904 
L 56.55943 -211.101889 
L 54.87709 -211.861816 
L 53.19475 -214.299103 
L 51.512411 -217.578431 
L 49.830071 -220.60996 
L 48.147732 -222.671061 
L 46.465392 -223.542534 
L 44.783052 -223.518649 
z
" style="stroke: #ff7f0e; stroke-opacity: 0.3"/>
    </defs>
    <g>
     <use xlink:href="#m447e5a1431" x="0" y="432" style="fill: #ff7f0e; fill-opacity: 0.3; stroke: #ff7f0e; stroke-opacity: 0.3"/>
    </g>
   </g>
   <g id="line2d_17">
    <path d="M 44.783052 188.14105 
L 46.465392 184.772979 
L 48.147732 183.234066 
L 49.830071 182.485943 
L 51.512411 181.523228 
L 53.19475 178.81007 
L 54.87709 175.063885 
L 56.55943 173.894683 
L 58.241769 175.944359 
L 59.924109 183.023967 
L 63.288788 202.023714 
L 64.971128 209.107117 
L 66.653467 210.749936 
L 68.335807 209.41887 
L 70.018146 205.398435 
L 71.700486 199.559026 
L 73.382825 195.063176 
L 75.065165 193.457462 
L 76.747505 195.130712 
L 78.429844 200.381658 
L 80.112184 207.812223 
L 81.794523 214.490472 
L 83.476863 217.234394 
L 85.159203 215.69207 
L 86.841542 211.242722 
L 88.523882 205.167265 
L 90.206221 202.37886 
L 91.888561 203.68643 
L 93.5709 208.483553 
L 95.25324 214.1177 
L 96.93558 217.456854 
L 98.617919 219.375436 
L 100.300259 220.590232 
L 101.982598 222.754027 
L 103.664938 225.461042 
L 105.347278 226.738181 
L 107.029617 224.618321 
L 108.711957 220.037437 
L 110.394296 214.82575 
L 112.076636 210.983841 
L 113.758976 210.890401 
L 115.441315 214.881564 
L 118.805994 226.006989 
L 120.488334 229.711794 
L 122.170673 231.432979 
L 123.853013 232.981942 
L 125.535353 234.262693 
L 127.217692 234.460727 
L 128.900032 233.655233 
L 130.582371 229.541859 
L 132.264711 222.615331 
L 133.947051 214.455963 
L 135.62939 207.799684 
L 137.31173 203.182356 
L 138.994069 201.521504 
L 140.676409 202.582362 
L 142.358748 205.225245 
L 144.041088 206.975936 
L 145.723428 206.625262 
L 147.405767 204.994074 
L 150.770446 197.90193 
L 152.452786 194.661542 
L 154.135126 193.116395 
L 155.817465 194.114567 
L 157.499805 197.478513 
L 159.182144 203.428663 
L 160.864484 209.829844 
L 162.546823 214.555022 
L 164.229163 216.670245 
L 165.911503 216.322657 
L 167.593842 213.137126 
L 169.276182 209.522376 
L 170.958521 208.688883 
L 172.640861 210.857058 
L 174.323201 216.599122 
L 176.00554 224.833786 
L 177.68788 234.031526 
L 179.370219 240.773954 
L 181.052559 242.636303 
L 182.734899 238.884849 
L 184.417238 228.976939 
L 186.099578 214.592701 
L 187.781917 194.828445 
L 191.146596 150.60008 
L 192.828936 130.056504 
L 194.511276 112.213513 
L 196.193615 97.672501 
L 197.875955 85.029269 
L 201.240634 62.150952 
L 202.922974 52.432808 
L 204.605313 46.162248 
L 206.287653 43.817171 
L 207.969992 43.648676 
L 209.652332 45.756412 
L 211.334671 48.477974 
L 213.017011 52.1656 
L 214.699351 57.996791 
L 216.38169 66.583674 
L 219.746369 91.34145 
L 221.428709 99.966699 
L 223.111049 102.665294 
L 224.793388 98.854133 
L 226.475728 92.453737 
L 228.158067 87.642371 
L 229.840407 88.992237 
L 231.522746 95.160058 
L 233.205086 103.362219 
L 234.887426 109.792193 
L 236.569765 113.484411 
L 238.252105 115.962673 
L 239.934444 117.207187 
L 241.616784 119.454623 
L 243.299124 121.903686 
L 244.981463 123.947979 
L 246.663803 125.155904 
L 248.346142 127.389279 
L 250.028482 131.902823 
L 251.710822 139.104721 
L 253.393161 147.450617 
L 255.075501 153.493636 
L 256.75784 155.360158 
L 258.44018 152.221155 
L 260.122519 148.177622 
L 261.804859 146.507507 
L 263.487199 149.079666 
L 265.169538 154.729062 
L 266.851878 160.816619 
L 268.534217 165.879111 
L 270.216557 168.980807 
L 271.898897 170.349644 
L 273.581236 173.363096 
L 276.945915 183.223384 
L 278.628255 186.33457 
L 280.310594 187.039119 
L 281.992934 186.23572 
L 283.675274 186.087647 
L 285.357613 187.927124 
L 287.039953 192.462905 
L 288.722292 198.06258 
L 290.404632 202.132859 
L 292.086972 202.853966 
L 293.769311 201.319098 
L 295.451651 199.312121 
L 297.13399 198.597533 
L 298.81633 201.330085 
L 300.498669 205.341367 
L 302.181009 207.91471 
L 303.863349 207.771137 
L 305.545688 202.745451 
L 307.228028 196.032313 
L 308.910367 189.854125 
L 312.275047 179.754642 
L 313.957386 173.928994 
L 315.639726 166.076673 
L 319.004405 145.555145 
L 320.686745 136.940909 
L 324.051424 122.147158 
L 325.733763 113.094107 
L 327.416103 101.734181 
L 330.780782 75.694783 
L 332.463122 66.009347 
L 334.145461 60.202072 
L 335.827801 56.580322 
L 339.19248 51.375688 
L 340.87482 47.762936 
L 342.557159 43.128775 
L 344.239499 37.96545 
L 345.921838 34.35697 
L 347.604178 32.99823 
L 349.286517 34.54888 
L 350.968857 38.859215 
L 352.651197 44.03802 
L 354.333536 48.429864 
L 356.015876 49.779415 
L 357.698215 47.57497 
L 359.380555 42.870013 
L 361.062895 38.684182 
L 362.745234 37.826701 
L 364.427574 42.317578 
L 367.792253 58.912626 
L 369.474593 64.300761 
L 371.156932 65.598374 
L 374.521611 62.996139 
L 376.203951 63.407872 
L 377.88629 66.084456 
L 379.56863 69.245881 
L 381.25097 70.571281 
L 382.933309 69.326394 
L 384.615649 67.731188 
L 386.297988 67.978594 
L 387.980328 71.880368 
L 391.345007 84.963298 
L 393.027347 88.067373 
L 394.709686 88.05498 
L 396.392026 88.198459 
L 398.074365 90.740248 
L 399.756705 97.733585 
L 401.439045 107.044678 
L 403.121384 115.063039 
L 404.803724 119.631169 
L 406.486063 120.822289 
L 408.168403 120.514369 
L 409.850743 121.470022 
L 411.533082 125.05018 
L 413.215422 129.895808 
L 414.897761 133.818239 
L 416.580101 135.933048 
L 418.26244 137.185378 
L 419.94478 138.636067 
L 421.62712 141.131398 
L 423.309459 145.328658 
L 424.991799 150.3327 
L 426.674138 154.39195 
L 428.356478 158.034263 
L 431.721157 163.495237 
L 433.403497 166.621943 
L 435.085836 170.085232 
L 436.768176 172.613022 
L 438.450516 173.321345 
L 440.132855 173.469861 
L 441.815195 174.337862 
L 443.497534 177.719042 
L 445.179874 183.765772 
L 446.862213 189.351987 
L 448.544553 191.300718 
L 450.226893 189.27069 
L 451.909232 186.045751 
L 453.591572 184.360049 
L 455.273911 185.488789 
L 456.956251 190.071539 
L 458.638591 195.937245 
L 460.32093 200.388417 
L 462.00327 202.225462 
L 463.685609 202.026603 
L 465.367949 201.540164 
L 467.050288 203.871229 
L 468.732628 209.366851 
L 470.414968 216.523106 
L 472.097307 222.508506 
L 473.779647 224.721274 
L 475.461986 222.600643 
L 477.144326 217.838841 
L 478.826666 213.952376 
L 480.509005 214.526587 
L 482.191345 219.374872 
L 485.556024 233.670373 
L 487.238363 238.664567 
L 488.920703 239.775062 
L 490.603043 238.489188 
L 492.285382 236.119518 
L 493.967722 235.138576 
L 495.650061 237.672736 
L 497.332401 244.379713 
L 499.014741 251.717647 
L 500.69708 256.972646 
L 502.37942 259.744678 
L 504.061759 259.701153 
L 505.744099 257.838115 
L 507.426439 254.759717 
L 509.108778 252.652437 
L 510.791118 251.511349 
L 512.473457 252.076301 
L 514.155797 253.945446 
L 517.520476 260.142104 
L 519.202816 261.248309 
L 520.885155 261.129101 
L 522.567495 260.292227 
L 524.249834 259.626604 
L 525.932174 261.369829 
L 527.614514 265.972564 
L 530.979193 279.29326 
L 532.661532 284.098731 
L 534.343872 286.721941 
L 536.026211 287.889173 
L 537.708551 288.126242 
L 539.390891 286.893635 
L 541.07323 283.730547 
L 542.75557 278.071949 
L 546.120249 263.190338 
L 547.802589 257.8815 
L 549.484928 255.738497 
L 551.167268 256.836789 
L 552.849607 259.160902 
L 554.531947 260.928987 
L 556.214286 262.139153 
L 557.896626 262.068175 
L 559.578966 261.594721 
L 561.261305 261.931188 
L 561.261305 261.931188 
" style="fill: none; stroke: #1f77b4; stroke-width: 1.5; stroke-linecap: square"/>
   </g>
   <g id="line2d_18">
    <path d="M 44.783052 210.874671 
L 46.465392 210.750082 
L 48.147732 211.615957 
L 49.830071 213.607579 
L 53.19475 219.727892 
L 54.87709 222.062998 
L 56.55943 222.757662 
L 58.241769 221.540025 
L 59.924109 218.615673 
L 63.288788 211.284133 
L 64.971128 208.88614 
L 66.653467 207.85249 
L 68.335807 207.754848 
L 70.018146 207.862511 
L 71.700486 207.81361 
L 73.382825 207.215503 
L 75.065165 206.111488 
L 78.429844 203.636036 
L 80.112184 202.637048 
L 81.794523 202.097073 
L 83.476863 201.973133 
L 86.841542 201.990349 
L 88.523882 201.795662 
L 91.888561 200.96646 
L 93.5709 201.008629 
L 95.25324 201.721963 
L 96.93558 203.22106 
L 100.300259 206.731743 
L 101.982598 208.126809 
L 103.664938 208.819845 
L 105.347278 208.654182 
L 107.029617 207.842142 
L 108.711957 206.472949 
L 112.076636 202.80106 
L 113.758976 201.818183 
L 115.441315 202.309156 
L 117.123655 204.343915 
L 120.488334 210.675139 
L 122.170673 212.775236 
L 123.853013 213.508989 
L 125.535353 213.340915 
L 127.217692 213.005427 
L 130.582371 213.162864 
L 132.264711 212.639695 
L 133.947051 211.093005 
L 137.31173 206.192188 
L 138.994069 205.147848 
L 140.676409 205.861003 
L 144.041088 209.853398 
L 145.723428 211.021773 
L 147.405767 210.659172 
L 149.088107 209.422992 
L 150.770446 208.382288 
L 152.452786 208.19766 
L 154.135126 208.834401 
L 157.499805 210.935419 
L 160.864484 212.70568 
L 162.546823 214.14969 
L 164.229163 216.370492 
L 165.911503 219.092413 
L 167.593842 222.285771 
L 169.276182 226.319418 
L 172.640861 235.082935 
L 174.323201 238.875198 
L 176.00554 241.216358 
L 177.68788 241.148817 
L 179.370219 238.338109 
L 181.052559 232.4625 
L 182.734899 223.828016 
L 184.417238 212.533982 
L 186.099578 197.602969 
L 187.781917 179.374917 
L 192.828936 116.347022 
L 194.511276 99.525406 
L 196.193615 87.816896 
L 197.875955 80.516644 
L 199.558294 76.368361 
L 201.240634 73.866121 
L 202.922974 72.07301 
L 204.605313 70.657867 
L 206.287653 69.862842 
L 207.969992 70.048378 
L 209.652332 71.319443 
L 211.334671 73.758744 
L 213.017011 77.154408 
L 216.38169 85.071882 
L 218.06403 88.332464 
L 219.746369 90.746264 
L 221.428709 92.588713 
L 223.111049 94.680296 
L 224.793388 97.797844 
L 226.475728 102.458297 
L 228.158067 108.610469 
L 229.840407 115.811556 
L 233.205086 131.49905 
L 236.569765 147.672359 
L 238.252105 155.249239 
L 239.934444 161.936319 
L 241.616784 167.311231 
L 243.299124 171.502394 
L 246.663803 177.692153 
L 248.346142 180.637197 
L 250.028482 183.220727 
L 251.710822 184.584635 
L 253.393161 184.167693 
L 255.075501 182.223341 
L 256.75784 180.02417 
L 258.44018 179.257774 
L 260.122519 180.479676 
L 263.487199 185.585036 
L 265.169538 186.5187 
L 266.851878 185.502676 
L 268.534217 182.837103 
L 270.216557 179.724658 
L 271.898897 176.923089 
L 273.581236 175.012938 
L 275.263576 173.893173 
L 278.628255 172.390905 
L 280.310594 171.289247 
L 281.992934 169.566748 
L 283.675274 167.103245 
L 285.357613 164.00503 
L 288.722292 157.492441 
L 290.404632 155.330874 
L 292.086972 154.693358 
L 293.769311 155.599981 
L 295.451651 157.190105 
L 297.13399 158.53375 
L 298.81633 159.26746 
L 302.181009 159.982464 
L 303.863349 160.83936 
L 305.545688 162.415695 
L 307.228028 164.876784 
L 308.910367 168.106059 
L 310.592707 171.637159 
L 312.275047 174.899393 
L 313.957386 177.169706 
L 315.639726 177.882163 
L 317.322065 176.99169 
L 319.004405 175.191572 
L 320.686745 173.627946 
L 322.369084 173.438309 
L 324.051424 174.870731 
L 325.733763 177.122349 
L 327.416103 179.006332 
L 329.098442 179.298421 
L 330.780782 177.698546 
L 334.145461 172.260962 
L 335.827801 170.409759 
L 337.51014 169.67747 
L 339.19248 169.520558 
L 340.87482 169.204016 
L 342.557159 168.337663 
L 344.239499 167.065224 
L 345.921838 165.964611 
L 347.604178 165.552588 
L 349.286517 166.006731 
L 350.968857 167.085908 
L 352.651197 168.604149 
L 354.333536 170.434979 
L 356.015876 172.812164 
L 357.698215 175.690604 
L 361.062895 181.85408 
L 362.745234 184.575341 
L 366.109913 189.247632 
L 367.792253 191.984468 
L 371.156932 198.301042 
L 372.839272 200.778754 
L 374.521611 201.911177 
L 376.203951 201.5691 
L 377.88629 200.323845 
L 379.56863 199.314391 
L 381.25097 199.254801 
L 382.933309 200.749382 
L 386.297988 205.39151 
L 387.980328 207.156538 
L 389.662668 208.249916 
L 391.345007 209.041996 
L 393.027347 210.137769 
L 396.392026 212.882744 
L 398.074365 213.532733 
L 399.756705 213.157139 
L 403.121384 210.714386 
L 404.803724 210.345209 
L 406.486063 211.050519 
L 408.168403 212.530237 
L 411.533082 216.085863 
L 413.215422 217.403441 
L 414.897761 218.267221 
L 416.580101 218.489456 
L 418.26244 217.97307 
L 419.94478 216.641887 
L 421.62712 214.279813 
L 426.674138 204.468557 
L 428.356478 202.558128 
L 430.038818 201.965758 
L 431.721157 202.672933 
L 436.768176 207.698811 
L 438.450516 208.809092 
L 440.132855 209.294314 
L 441.815195 208.779089 
L 443.497534 207.639757 
L 445.179874 206.252177 
L 446.862213 205.046236 
L 448.544553 204.517239 
L 450.226893 204.941863 
L 451.909232 205.698532 
L 453.591572 206.007043 
L 455.273911 205.183254 
L 456.956251 202.91261 
L 460.32093 196.938187 
L 462.00327 195.223171 
L 463.685609 194.718152 
L 465.367949 194.774183 
L 467.050288 194.287587 
L 468.732628 192.55824 
L 472.097307 186.774635 
L 473.779647 184.501253 
L 475.461986 183.331636 
L 477.144326 182.779838 
L 478.826666 182.027824 
L 482.191345 179.122786 
L 483.873684 178.969277 
L 485.556024 180.449282 
L 488.920703 185.576753 
L 490.603043 186.665955 
L 492.285382 185.878137 
L 493.967722 183.954692 
L 495.650061 182.499645 
L 497.332401 182.732102 
L 499.014741 185.07359 
L 502.37942 192.231636 
L 504.061759 194.443244 
L 505.744099 195.257457 
L 507.426439 195.45794 
L 509.108778 196.117856 
L 510.791118 197.743543 
L 512.473457 200.007081 
L 514.155797 201.98602 
L 515.838136 202.945406 
L 517.520476 202.618006 
L 520.885155 200.183538 
L 522.567495 199.57142 
L 524.249834 199.499203 
L 527.614514 199.570998 
L 529.296853 199.601205 
L 530.979193 200.281386 
L 532.661532 202.271105 
L 534.343872 205.495169 
L 536.026211 209.260658 
L 537.708551 212.65967 
L 539.390891 214.90224 
L 541.07323 215.710083 
L 542.75557 215.449913 
L 544.437909 214.842503 
L 546.120249 214.429106 
L 547.802589 214.28762 
L 551.167268 214.463329 
L 552.849607 214.805474 
L 554.531947 215.64374 
L 556.214286 217.25027 
L 559.578966 221.445178 
L 561.261305 222.717788 
L 561.261305 222.717788 
" style="fill: none; stroke: #ff7f0e; stroke-width: 1.5; stroke-linecap: square"/>
   </g>
  </g>
  <g id="axes_2">
   <g id="PathCollection_1">
    <defs>
     <path id="C0_0_47e89d3146" d="M 0 1.118034 
C 0.296506 1.118034 0.580908 1.000231 0.790569 0.790569 
C 1.000231 0.580908 1.118034 0.296506 1.118034 -0 
C 1.118034 -0.296506 1.000231 -0.580908 0.790569 -0.790569 
C 0.580908 -1.000231 0.296506 -1.118034 0 -1.118034 
C -0.296506 -1.118034 -0.580908 -1.000231 -0.790569 -0.790569 
C -1.000231 -0.580908 -1.118034 -0.296506 -1.118034 0 
C -1.118034 0.296506 -1.000231 0.580908 -0.790569 0.790569 
C -0.580908 1.000231 -0.296506 1.118034 0 1.118034 
z
"/>
    </defs>
    <g clip-path="url(#p7dc799ae8e)">
     <use xlink:href="#C0_0_47e89d3146" x="509.13937" y="46.64915" style="stroke: #000000"/>
    </g>
    <g clip-path="url(#p7dc799ae8e)">
     <use xlink:href="#C0_0_47e89d3146" x="509.147251" y="56.277599" style="stroke: #000000"/>
    </g>
    <g clip-path="url(#p7dc799ae8e)">
     <use xlink:href="#C0_0_47e89d3146" x="509.092397" y="76.413687" style="stroke: #000000"/>
    </g>
    <g clip-path="url(#p7dc799ae8e)">
     <use xlink:href="#C0_0_47e89d3146" x="509.035125" y="85.80057" style="stroke: #000000"/>
    </g>
    <g clip-path="url(#p7dc799ae8e)">
     <use xlink:href="#C0_0_47e89d3146" x="509.130245" y="66.304876" style="stroke: #000000"/>
    </g>
   </g>
   <g id="matplotlib.axis_3"/>
   <g id="matplotlib.axis_4"/>
   <g id="line2d_19">
    <path d="M 548.860095 73.636387 
L 548.782417 71.164635 
L 548.54969 68.702638 
L 548.162832 66.260111 
L 547.623369 63.846696 
L 546.933432 61.471916 
L 546.095742 59.145144 
L 545.113607 56.875562 
L 543.990901 54.672127 
L 542.732055 52.543535 
L 541.342038 50.498188 
L 539.826336 48.544156 
L 538.19093 46.689152 
L 536.442274 44.940496 
L 534.58727 43.30509 
L 532.633238 41.789388 
L 530.587891 40.399371 
L 528.459299 39.140526 
L 526.255865 38.017819 
L 523.986282 37.035684 
L 521.65951 36.197994 
L 519.28473 35.508057 
L 516.871315 34.968594 
L 514.428789 34.581736 
L 511.966791 34.349009 
L 509.495039 34.271331 
L 507.023286 34.349009 
L 504.561289 34.581736 
L 502.118763 34.968594 
L 499.705347 35.508057 
L 497.330567 36.197994 
L 495.003795 37.035684 
L 492.734213 38.017819 
L 490.530778 39.140526 
L 488.402187 40.399371 
L 486.356839 41.789388 
L 484.402808 43.30509 
L 482.547803 44.940496 
L 480.799148 46.689152 
L 479.163742 48.544156 
L 477.648039 50.498188 
L 476.258022 52.543535 
L 474.999177 54.672127 
L 473.876471 56.875562 
L 472.894335 59.145144 
L 472.056645 61.471916 
L 471.366708 63.846696 
L 470.827246 66.260111 
L 470.440388 68.702638 
L 470.20766 71.164635 
L 470.129982 73.636387 
L 470.20766 76.10814 
L 470.440388 78.570137 
L 470.827246 81.012663 
L 471.366708 83.426079 
L 472.056645 85.800859 
L 472.894335 88.127631 
L 473.876471 90.397213 
L 474.999177 92.600648 
L 476.258022 94.729239 
L 477.648039 96.774587 
L 479.163742 98.728619 
L 480.799148 100.583623 
L 482.547803 102.332278 
L 484.402808 103.967685 
L 486.356839 105.483387 
L 488.402187 106.873404 
L 490.530778 108.132249 
L 492.734213 109.254955 
L 495.003795 110.237091 
L 497.330567 111.074781 
L 499.705347 111.764718 
L 502.118763 112.30418 
L 504.561289 112.691038 
L 507.023286 112.923766 
L 509.495039 113.001444 
L 511.966791 112.923766 
L 514.428789 112.691038 
L 516.871315 112.30418 
L 519.28473 111.764718 
L 521.65951 111.074781 
L 523.986282 110.237091 
L 526.255865 109.254955 
L 528.459299 108.132249 
L 530.587891 106.873404 
L 532.633238 105.483387 
L 534.58727 103.967685 
L 536.442274 102.332278 
L 538.19093 100.583623 
L 539.826336 98.728619 
L 541.342038 96.774587 
L 542.732055 94.729239 
L 543.990901 92.600648 
L 545.113607 90.397213 
L 546.095742 88.127631 
L 546.933432 85.800859 
L 547.623369 83.426079 
L 548.162832 81.012663 
L 548.54969 78.570137 
L 548.782417 76.10814 
L 548.860095 73.636387 
" style="fill: none; stroke: #000000; stroke-linecap: square"/>
   </g>
   <g id="line2d_20">
    <path d="M 501.250441 35.144385 
L 509.495039 28.366573 
L 517.739637 35.144385 
" style="fill: none; stroke: #000000; stroke-linecap: square"/>
   </g>
   <g id="line2d_21">
    <path d="M 470.366173 69.266866 
L 469.342681 67.534804 
L 468.71284 67.47182 
L 467.775952 67.763121 
L 466.831191 69.266866 
L 466.980778 74.069403 
L 466.429667 80.974034 
L 467.610619 83.973651 
L 469.342681 84.532635 
L 470.996014 83.076128 
" style="fill: none; stroke: #000000; stroke-linecap: square"/>
   </g>
   <g id="line2d_22">
    <path d="M 548.623905 69.266866 
L 549.647396 67.534804 
L 550.277237 67.47182 
L 551.214125 67.763121 
L 552.158887 69.266866 
L 552.0093 74.069403 
L 552.56041 80.974034 
L 551.379459 83.973651 
L 549.647396 84.532635 
L 547.994064 83.076128 
" style="fill: none; stroke: #000000; stroke-linecap: square"/>
   </g>
  </g>
 </g>
 <defs>
  <clipPath id="p59e596f2d6">
   <rect x="44.783053" y="18.118365" width="517.083895" height="380.525145"/>
  </clipPath>
  <clipPath id="p7dc799ae8e">
   <rect x="462.12313" y="24.134829" width="94.743817" height="93.098358"/>
  </clipPath>
 </defs>
</svg>
