<?xml version="1.0" encoding="utf-8" standalone="no"?>
<!DOCTYPE svg PUBLIC "-//W3C//DTD SVG 1.1//EN"
  "http://www.w3.org/Graphics/SVG/1.1/DTD/svg11.dtd">
<svg xmlns:xlink="http://www.w3.org/1999/xlink" width="576pt" height="432pt" viewBox="0 0 576 432" xmlns="http://www.w3.org/2000/svg" version="1.1">
 <metadata>
  <rdf:RDF xmlns:dc="http://purl.org/dc/elements/1.1/" xmlns:cc="http://creativecommons.org/ns#" xmlns:rdf="http://www.w3.org/1999/02/22-rdf-syntax-ns#">
   <cc:Work>
    <dc:type rdf:resource="http://purl.org/dc/dcmitype/StillImage"/>
    <dc:date>2025-02-17T18:04:52.948813</dc:date>
    <dc:format>image/svg+xml</dc:format>
    <dc:creator>
     <cc:Agent>
      <dc:title>Matplotlib v3.10.0, https://matplotlib.org/</dc:title>
     </cc:Agent>
    </dc:creator>
   </cc:Work>
  </rdf:RDF>
 </metadata>
 <defs>
  <style type="text/css">*{stroke-linejoin: round; stroke-linecap: butt}</style>
 </defs>
 <g id="figure_1">
  <g id="patch_1">
   <path d="M 0 432 
L 576 432 
L 576 0 
L 0 0 
z
" style="fill: #ffffff"/>
  </g>
  <g id="axes_1">
   <g id="patch_2">
    <path d="M 44.783053 398.64351 
L 561.866947 398.64351 
L 561.866947 18.118365 
L 44.783053 18.118365 
L 44.783053 398.64351 
z
" style="fill: none; opacity: 0"/>
   </g>
   <g id="patch_3">
    <path d="M 44.783053 371.067703 
L 44.783053 45.694172 
" style="fill: none; stroke: #000000; stroke-width: 0.8; stroke-linejoin: miter; stroke-linecap: square"/>
   </g>
   <g id="LineCollection_1">
    <path d="M 260.391694 18.118365 
L 260.391694 398.64351 
" clip-path="url(#p0ef7f8b71b)" style="fill: none; stroke-dasharray: 3.7,1.6; stroke-dashoffset: 0; stroke: #000000"/>
    <path d="M 324.993534 18.118365 
L 324.993534 398.64351 
" clip-path="url(#p0ef7f8b71b)" style="fill: none; stroke-dasharray: 3.7,1.6; stroke-dashoffset: 0; stroke: #000000"/>
   </g>
   <g id="matplotlib.axis_1">
    <g id="xtick_1">
     <g id="line2d_1">
      <defs>
       <path id="mfd9bc6c835" d="M 0 0 
L 0 3.5 
" style="stroke: #000000; stroke-width: 0.8"/>
      </defs>
      <g>
       <use xlink:href="#mfd9bc6c835" x="45.052227" y="398.64351" style="stroke: #000000; stroke-width: 0.8"/>
      </g>
     </g>
     <g id="text_1">
      <!-- −0.20 -->
      <g transform="translate(29.729571 413.241947) scale(0.1 -0.1)">
       <defs>
        <path id="DejaVuSans-2212" d="M 678 2272 
L 4684 2272 
L 4684 1741 
L 678 1741 
L 678 2272 
z
" transform="scale(0.015625)"/>
        <path id="DejaVuSans-30" d="M 2034 4250 
Q 1547 4250 1301 3770 
Q 1056 3291 1056 2328 
Q 1056 1369 1301 889 
Q 1547 409 2034 409 
Q 2525 409 2770 889 
Q 3016 1369 3016 2328 
Q 3016 3291 2770 3770 
Q 2525 4250 2034 4250 
z
M 2034 4750 
Q 2819 4750 3233 4129 
Q 3647 3509 3647 2328 
Q 3647 1150 3233 529 
Q 2819 -91 2034 -91 
Q 1250 -91 836 529 
Q 422 1150 422 2328 
Q 422 3509 836 4129 
Q 1250 4750 2034 4750 
z
" transform="scale(0.015625)"/>
        <path id="DejaVuSans-2e" d="M 684 794 
L 1344 794 
L 1344 0 
L 684 0 
L 684 794 
z
" transform="scale(0.015625)"/>
        <path id="DejaVuSans-32" d="M 1228 531 
L 3431 531 
L 3431 0 
L 469 0 
L 469 531 
Q 828 903 1448 1529 
Q 2069 2156 2228 2338 
Q 2531 2678 2651 2914 
Q 2772 3150 2772 3378 
Q 2772 3750 2511 3984 
Q 2250 4219 1831 4219 
Q 1534 4219 1204 4116 
Q 875 4013 500 3803 
L 500 4441 
Q 881 4594 1212 4672 
Q 1544 4750 1819 4750 
Q 2544 4750 2975 4387 
Q 3406 4025 3406 3419 
Q 3406 3131 3298 2873 
Q 3191 2616 2906 2266 
Q 2828 2175 2409 1742 
Q 1991 1309 1228 531 
z
" transform="scale(0.015625)"/>
       </defs>
       <use xlink:href="#DejaVuSans-2212"/>
       <use xlink:href="#DejaVuSans-30" transform="translate(83.789062 0)"/>
       <use xlink:href="#DejaVuSans-2e" transform="translate(147.412109 0)"/>
       <use xlink:href="#DejaVuSans-32" transform="translate(179.199219 0)"/>
       <use xlink:href="#DejaVuSans-30" transform="translate(242.822266 0)"/>
      </g>
     </g>
    </g>
    <g id="xtick_2">
     <g id="line2d_2">
      <g>
       <use xlink:href="#mfd9bc6c835" x="131.188014" y="398.64351" style="stroke: #000000; stroke-width: 0.8"/>
      </g>
     </g>
     <g id="text_2">
      <!-- 0.00 -->
      <g transform="translate(120.055201 413.241947) scale(0.1 -0.1)">
       <use xlink:href="#DejaVuSans-30"/>
       <use xlink:href="#DejaVuSans-2e" transform="translate(63.623047 0)"/>
       <use xlink:href="#DejaVuSans-30" transform="translate(95.410156 0)"/>
       <use xlink:href="#DejaVuSans-30" transform="translate(159.033203 0)"/>
      </g>
     </g>
    </g>
    <g id="xtick_3">
     <g id="line2d_3">
      <g>
       <use xlink:href="#mfd9bc6c835" x="217.3238" y="398.64351" style="stroke: #000000; stroke-width: 0.8"/>
      </g>
     </g>
     <g id="text_3">
      <!-- 0.20 -->
      <g transform="translate(206.190988 413.241947) scale(0.1 -0.1)">
       <use xlink:href="#DejaVuSans-30"/>
       <use xlink:href="#DejaVuSans-2e" transform="translate(63.623047 0)"/>
       <use xlink:href="#DejaVuSans-32" transform="translate(95.410156 0)"/>
       <use xlink:href="#DejaVuSans-30" transform="translate(159.033203 0)"/>
      </g>
     </g>
    </g>
    <g id="xtick_4">
     <g id="line2d_4">
      <g>
       <use xlink:href="#mfd9bc6c835" x="260.391694" y="398.64351" style="stroke: #000000; stroke-width: 0.8"/>
      </g>
     </g>
     <g id="text_4">
      <!-- 0.30 -->
      <g transform="translate(249.258881 413.241947) scale(0.1 -0.1)">
       <defs>
        <path id="DejaVuSans-33" d="M 2597 2516 
Q 3050 2419 3304 2112 
Q 3559 1806 3559 1356 
Q 3559 666 3084 287 
Q 2609 -91 1734 -91 
Q 1441 -91 1130 -33 
Q 819 25 488 141 
L 488 750 
Q 750 597 1062 519 
Q 1375 441 1716 441 
Q 2309 441 2620 675 
Q 2931 909 2931 1356 
Q 2931 1769 2642 2001 
Q 2353 2234 1838 2234 
L 1294 2234 
L 1294 2753 
L 1863 2753 
Q 2328 2753 2575 2939 
Q 2822 3125 2822 3475 
Q 2822 3834 2567 4026 
Q 2313 4219 1838 4219 
Q 1578 4219 1281 4162 
Q 984 4106 628 3988 
L 628 4550 
Q 988 4650 1302 4700 
Q 1616 4750 1894 4750 
Q 2613 4750 3031 4423 
Q 3450 4097 3450 3541 
Q 3450 3153 3228 2886 
Q 3006 2619 2597 2516 
z
" transform="scale(0.015625)"/>
       </defs>
       <use xlink:href="#DejaVuSans-30"/>
       <use xlink:href="#DejaVuSans-2e" transform="translate(63.623047 0)"/>
       <use xlink:href="#DejaVuSans-33" transform="translate(95.410156 0)"/>
       <use xlink:href="#DejaVuSans-30" transform="translate(159.033203 0)"/>
      </g>
     </g>
    </g>
    <g id="xtick_5">
     <g id="line2d_5">
      <g>
       <use xlink:href="#mfd9bc6c835" x="303.459587" y="398.64351" style="stroke: #000000; stroke-width: 0.8"/>
      </g>
     </g>
     <g id="text_5">
      <!-- 0.40 -->
      <g transform="translate(292.326775 413.241947) scale(0.1 -0.1)">
       <defs>
        <path id="DejaVuSans-34" d="M 2419 4116 
L 825 1625 
L 2419 1625 
L 2419 4116 
z
M 2253 4666 
L 3047 4666 
L 3047 1625 
L 3713 1625 
L 3713 1100 
L 3047 1100 
L 3047 0 
L 2419 0 
L 2419 1100 
L 313 1100 
L 313 1709 
L 2253 4666 
z
" transform="scale(0.015625)"/>
       </defs>
       <use xlink:href="#DejaVuSans-30"/>
       <use xlink:href="#DejaVuSans-2e" transform="translate(63.623047 0)"/>
       <use xlink:href="#DejaVuSans-34" transform="translate(95.410156 0)"/>
       <use xlink:href="#DejaVuSans-30" transform="translate(159.033203 0)"/>
      </g>
     </g>
    </g>
    <g id="xtick_6">
     <g id="line2d_6">
      <g>
       <use xlink:href="#mfd9bc6c835" x="324.993534" y="398.64351" style="stroke: #000000; stroke-width: 0.8"/>
      </g>
     </g>
     <g id="text_6">
      <!-- 0.45 -->
      <g transform="translate(313.860721 413.241947) scale(0.1 -0.1)">
       <defs>
        <path id="DejaVuSans-35" d="M 691 4666 
L 3169 4666 
L 3169 4134 
L 1269 4134 
L 1269 2991 
Q 1406 3038 1543 3061 
Q 1681 3084 1819 3084 
Q 2600 3084 3056 2656 
Q 3513 2228 3513 1497 
Q 3513 744 3044 326 
Q 2575 -91 1722 -91 
Q 1428 -91 1123 -41 
Q 819 9 494 109 
L 494 744 
Q 775 591 1075 516 
Q 1375 441 1709 441 
Q 2250 441 2565 725 
Q 2881 1009 2881 1497 
Q 2881 1984 2565 2268 
Q 2250 2553 1709 2553 
Q 1456 2553 1204 2497 
Q 953 2441 691 2322 
L 691 4666 
z
" transform="scale(0.015625)"/>
       </defs>
       <use xlink:href="#DejaVuSans-30"/>
       <use xlink:href="#DejaVuSans-2e" transform="translate(63.623047 0)"/>
       <use xlink:href="#DejaVuSans-34" transform="translate(95.410156 0)"/>
       <use xlink:href="#DejaVuSans-35" transform="translate(159.033203 0)"/>
      </g>
     </g>
    </g>
    <g id="xtick_7">
     <g id="line2d_7">
      <g>
       <use xlink:href="#mfd9bc6c835" x="389.595374" y="398.64351" style="stroke: #000000; stroke-width: 0.8"/>
      </g>
     </g>
     <g id="text_7">
      <!-- 0.60 -->
      <g transform="translate(378.462561 413.241947) scale(0.1 -0.1)">
       <defs>
        <path id="DejaVuSans-36" d="M 2113 2584 
Q 1688 2584 1439 2293 
Q 1191 2003 1191 1497 
Q 1191 994 1439 701 
Q 1688 409 2113 409 
Q 2538 409 2786 701 
Q 3034 994 3034 1497 
Q 3034 2003 2786 2293 
Q 2538 2584 2113 2584 
z
M 3366 4563 
L 3366 3988 
Q 3128 4100 2886 4159 
Q 2644 4219 2406 4219 
Q 1781 4219 1451 3797 
Q 1122 3375 1075 2522 
Q 1259 2794 1537 2939 
Q 1816 3084 2150 3084 
Q 2853 3084 3261 2657 
Q 3669 2231 3669 1497 
Q 3669 778 3244 343 
Q 2819 -91 2113 -91 
Q 1303 -91 875 529 
Q 447 1150 447 2328 
Q 447 3434 972 4092 
Q 1497 4750 2381 4750 
Q 2619 4750 2861 4703 
Q 3103 4656 3366 4563 
z
" transform="scale(0.015625)"/>
       </defs>
       <use xlink:href="#DejaVuSans-30"/>
       <use xlink:href="#DejaVuSans-2e" transform="translate(63.623047 0)"/>
       <use xlink:href="#DejaVuSans-36" transform="translate(95.410156 0)"/>
       <use xlink:href="#DejaVuSans-30" transform="translate(159.033203 0)"/>
      </g>
     </g>
    </g>
    <g id="xtick_8">
     <g id="line2d_8">
      <g>
       <use xlink:href="#mfd9bc6c835" x="475.731161" y="398.64351" style="stroke: #000000; stroke-width: 0.8"/>
      </g>
     </g>
     <g id="text_8">
      <!-- 0.80 -->
      <g transform="translate(464.598348 413.241947) scale(0.1 -0.1)">
       <defs>
        <path id="DejaVuSans-38" d="M 2034 2216 
Q 1584 2216 1326 1975 
Q 1069 1734 1069 1313 
Q 1069 891 1326 650 
Q 1584 409 2034 409 
Q 2484 409 2743 651 
Q 3003 894 3003 1313 
Q 3003 1734 2745 1975 
Q 2488 2216 2034 2216 
z
M 1403 2484 
Q 997 2584 770 2862 
Q 544 3141 544 3541 
Q 544 4100 942 4425 
Q 1341 4750 2034 4750 
Q 2731 4750 3128 4425 
Q 3525 4100 3525 3541 
Q 3525 3141 3298 2862 
Q 3072 2584 2669 2484 
Q 3125 2378 3379 2068 
Q 3634 1759 3634 1313 
Q 3634 634 3220 271 
Q 2806 -91 2034 -91 
Q 1263 -91 848 271 
Q 434 634 434 1313 
Q 434 1759 690 2068 
Q 947 2378 1403 2484 
z
M 1172 3481 
Q 1172 3119 1398 2916 
Q 1625 2713 2034 2713 
Q 2441 2713 2670 2916 
Q 2900 3119 2900 3481 
Q 2900 3844 2670 4047 
Q 2441 4250 2034 4250 
Q 1625 4250 1398 4047 
Q 1172 3844 1172 3481 
z
" transform="scale(0.015625)"/>
       </defs>
       <use xlink:href="#DejaVuSans-30"/>
       <use xlink:href="#DejaVuSans-2e" transform="translate(63.623047 0)"/>
       <use xlink:href="#DejaVuSans-38" transform="translate(95.410156 0)"/>
       <use xlink:href="#DejaVuSans-30" transform="translate(159.033203 0)"/>
      </g>
     </g>
    </g>
    <g id="xtick_9">
     <g id="line2d_9">
      <g>
       <use xlink:href="#mfd9bc6c835" x="561.866947" y="398.64351" style="stroke: #000000; stroke-width: 0.8"/>
      </g>
     </g>
     <g id="text_9">
      <!-- 1.00 -->
      <g transform="translate(550.734135 413.241947) scale(0.1 -0.1)">
       <defs>
        <path id="DejaVuSans-31" d="M 794 531 
L 1825 531 
L 1825 4091 
L 703 3866 
L 703 4441 
L 1819 4666 
L 2450 4666 
L 2450 531 
L 3481 531 
L 3481 0 
L 794 0 
L 794 531 
z
" transform="scale(0.015625)"/>
       </defs>
       <use xlink:href="#DejaVuSans-31"/>
       <use xlink:href="#DejaVuSans-2e" transform="translate(63.623047 0)"/>
       <use xlink:href="#DejaVuSans-30" transform="translate(95.410156 0)"/>
       <use xlink:href="#DejaVuSans-30" transform="translate(159.033203 0)"/>
      </g>
     </g>
    </g>
    <g id="text_10">
     <!-- Time (s) -->
     <g transform="translate(282.996094 426.920073) scale(0.1 -0.1)">
      <defs>
       <path id="DejaVuSans-54" d="M -19 4666 
L 3928 4666 
L 3928 4134 
L 2272 4134 
L 2272 0 
L 1638 0 
L 1638 4134 
L -19 4134 
L -19 4666 
z
" transform="scale(0.015625)"/>
       <path id="DejaVuSans-69" d="M 603 3500 
L 1178 3500 
L 1178 0 
L 603 0 
L 603 3500 
z
M 603 4863 
L 1178 4863 
L 1178 4134 
L 603 4134 
L 603 4863 
z
" transform="scale(0.015625)"/>
       <path id="DejaVuSans-6d" d="M 3328 2828 
Q 3544 3216 3844 3400 
Q 4144 3584 4550 3584 
Q 5097 3584 5394 3201 
Q 5691 2819 5691 2113 
L 5691 0 
L 5113 0 
L 5113 2094 
Q 5113 2597 4934 2840 
Q 4756 3084 4391 3084 
Q 3944 3084 3684 2787 
Q 3425 2491 3425 1978 
L 3425 0 
L 2847 0 
L 2847 2094 
Q 2847 2600 2669 2842 
Q 2491 3084 2119 3084 
Q 1678 3084 1418 2786 
Q 1159 2488 1159 1978 
L 1159 0 
L 581 0 
L 581 3500 
L 1159 3500 
L 1159 2956 
Q 1356 3278 1631 3431 
Q 1906 3584 2284 3584 
Q 2666 3584 2933 3390 
Q 3200 3197 3328 2828 
z
" transform="scale(0.015625)"/>
       <path id="DejaVuSans-65" d="M 3597 1894 
L 3597 1613 
L 953 1613 
Q 991 1019 1311 708 
Q 1631 397 2203 397 
Q 2534 397 2845 478 
Q 3156 559 3463 722 
L 3463 178 
Q 3153 47 2828 -22 
Q 2503 -91 2169 -91 
Q 1331 -91 842 396 
Q 353 884 353 1716 
Q 353 2575 817 3079 
Q 1281 3584 2069 3584 
Q 2775 3584 3186 3129 
Q 3597 2675 3597 1894 
z
M 3022 2063 
Q 3016 2534 2758 2815 
Q 2500 3097 2075 3097 
Q 1594 3097 1305 2825 
Q 1016 2553 972 2059 
L 3022 2063 
z
" transform="scale(0.015625)"/>
       <path id="DejaVuSans-20" transform="scale(0.015625)"/>
       <path id="DejaVuSans-28" d="M 1984 4856 
Q 1566 4138 1362 3434 
Q 1159 2731 1159 2009 
Q 1159 1288 1364 580 
Q 1569 -128 1984 -844 
L 1484 -844 
Q 1016 -109 783 600 
Q 550 1309 550 2009 
Q 550 2706 781 3412 
Q 1013 4119 1484 4856 
L 1984 4856 
z
" transform="scale(0.015625)"/>
       <path id="DejaVuSans-73" d="M 2834 3397 
L 2834 2853 
Q 2591 2978 2328 3040 
Q 2066 3103 1784 3103 
Q 1356 3103 1142 2972 
Q 928 2841 928 2578 
Q 928 2378 1081 2264 
Q 1234 2150 1697 2047 
L 1894 2003 
Q 2506 1872 2764 1633 
Q 3022 1394 3022 966 
Q 3022 478 2636 193 
Q 2250 -91 1575 -91 
Q 1294 -91 989 -36 
Q 684 19 347 128 
L 347 722 
Q 666 556 975 473 
Q 1284 391 1588 391 
Q 1994 391 2212 530 
Q 2431 669 2431 922 
Q 2431 1156 2273 1281 
Q 2116 1406 1581 1522 
L 1381 1569 
Q 847 1681 609 1914 
Q 372 2147 372 2553 
Q 372 3047 722 3315 
Q 1072 3584 1716 3584 
Q 2034 3584 2315 3537 
Q 2597 3491 2834 3397 
z
" transform="scale(0.015625)"/>
       <path id="DejaVuSans-29" d="M 513 4856 
L 1013 4856 
Q 1481 4119 1714 3412 
Q 1947 2706 1947 2009 
Q 1947 1309 1714 600 
Q 1481 -109 1013 -844 
L 513 -844 
Q 928 -128 1133 580 
Q 1338 1288 1338 2009 
Q 1338 2731 1133 3434 
Q 928 4138 513 4856 
z
" transform="scale(0.015625)"/>
      </defs>
      <use xlink:href="#DejaVuSans-54"/>
      <use xlink:href="#DejaVuSans-69" transform="translate(57.958984 0)"/>
      <use xlink:href="#DejaVuSans-6d" transform="translate(85.742188 0)"/>
      <use xlink:href="#DejaVuSans-65" transform="translate(183.154297 0)"/>
      <use xlink:href="#DejaVuSans-20" transform="translate(244.677734 0)"/>
      <use xlink:href="#DejaVuSans-28" transform="translate(276.464844 0)"/>
      <use xlink:href="#DejaVuSans-73" transform="translate(315.478516 0)"/>
      <use xlink:href="#DejaVuSans-29" transform="translate(367.578125 0)"/>
     </g>
    </g>
   </g>
   <g id="matplotlib.axis_2">
    <g id="ytick_1">
     <g id="line2d_10">
      <defs>
       <path id="mfe2cfff581" d="M 0 0 
L -3.5 0 
" style="stroke: #000000; stroke-width: 0.8"/>
      </defs>
      <g>
       <use xlink:href="#mfe2cfff581" x="44.783053" y="371.067703" style="stroke: #000000; stroke-width: 0.8"/>
      </g>
     </g>
     <g id="text_11">
      <!-- −10 -->
      <g transform="translate(16.678365 374.866921) scale(0.1 -0.1)">
       <use xlink:href="#DejaVuSans-2212"/>
       <use xlink:href="#DejaVuSans-31" transform="translate(83.789062 0)"/>
       <use xlink:href="#DejaVuSans-30" transform="translate(147.412109 0)"/>
      </g>
     </g>
    </g>
    <g id="ytick_2">
     <g id="line2d_11">
      <g>
       <use xlink:href="#mfe2cfff581" x="44.783053" y="289.72432" style="stroke: #000000; stroke-width: 0.8"/>
      </g>
     </g>
     <g id="text_12">
      <!-- −5 -->
      <g transform="translate(23.040865 293.523539) scale(0.1 -0.1)">
       <use xlink:href="#DejaVuSans-2212"/>
       <use xlink:href="#DejaVuSans-35" transform="translate(83.789062 0)"/>
      </g>
     </g>
    </g>
    <g id="ytick_3">
     <g id="line2d_12">
      <g>
       <use xlink:href="#mfe2cfff581" x="44.783053" y="208.380937" style="stroke: #000000; stroke-width: 0.8"/>
      </g>
     </g>
     <g id="text_13">
      <!-- 0 -->
      <g transform="translate(31.420553 212.180156) scale(0.1 -0.1)">
       <use xlink:href="#DejaVuSans-30"/>
      </g>
     </g>
    </g>
    <g id="ytick_4">
     <g id="line2d_13">
      <g>
       <use xlink:href="#mfe2cfff581" x="44.783053" y="127.037555" style="stroke: #000000; stroke-width: 0.8"/>
      </g>
     </g>
     <g id="text_14">
      <!-- 5 -->
      <g transform="translate(31.420553 130.836774) scale(0.1 -0.1)">
       <use xlink:href="#DejaVuSans-35"/>
      </g>
     </g>
    </g>
    <g id="ytick_5">
     <g id="line2d_14">
      <g>
       <use xlink:href="#mfe2cfff581" x="44.783053" y="45.694172" style="stroke: #000000; stroke-width: 0.8"/>
      </g>
     </g>
     <g id="text_15">
      <!-- 10 -->
      <g transform="translate(25.058053 49.493391) scale(0.1 -0.1)">
       <use xlink:href="#DejaVuSans-31"/>
       <use xlink:href="#DejaVuSans-30" transform="translate(63.623047 0)"/>
      </g>
     </g>
    </g>
    <g id="text_16">
     <!-- µV -->
     <g transform="translate(10.598678 214.9825) rotate(-90) scale(0.1 -0.1)">
      <defs>
       <path id="DejaVuSans-b5" d="M 544 -1331 
L 544 3500 
L 1119 3500 
L 1119 1325 
Q 1119 872 1334 640 
Q 1550 409 1972 409 
Q 2434 409 2667 671 
Q 2900 934 2900 1459 
L 2900 3500 
L 3475 3500 
L 3475 806 
Q 3475 619 3529 530 
Q 3584 441 3700 441 
Q 3728 441 3778 458 
Q 3828 475 3916 513 
L 3916 50 
Q 3788 -22 3673 -56 
Q 3559 -91 3450 -91 
Q 3234 -91 3106 31 
Q 2978 153 2931 403 
Q 2775 156 2548 32 
Q 2322 -91 2016 -91 
Q 1697 -91 1473 31 
Q 1250 153 1119 397 
L 1119 -1331 
L 544 -1331 
z
" transform="scale(0.015625)"/>
       <path id="DejaVuSans-56" d="M 1831 0 
L 50 4666 
L 709 4666 
L 2188 738 
L 3669 4666 
L 4325 4666 
L 2547 0 
L 1831 0 
z
" transform="scale(0.015625)"/>
      </defs>
      <use xlink:href="#DejaVuSans-b5"/>
      <use xlink:href="#DejaVuSans-56" transform="translate(63.623047 0)"/>
     </g>
    </g>
   </g>
   <g id="patch_4">
    <path d="M 45.052227 398.64351 
L 561.866947 398.64351 
" style="fill: none; stroke: #000000; stroke-width: 0.8; stroke-linejoin: miter; stroke-linecap: square"/>
   </g>
   <g id="patch_5">
    <path d="M 44.783052 208.380938 
L 561.866947 208.380938 
" style="fill: none; stroke: #000000; stroke-width: 0.8; stroke-linejoin: miter; stroke-linecap: square"/>
   </g>
   <g id="text_17">
    <!-- F3, F7 (median) -->
    <g transform="translate(255.894062 12.118365) scale(0.12 -0.12)">
     <defs>
      <path id="DejaVuSans-46" d="M 628 4666 
L 3309 4666 
L 3309 4134 
L 1259 4134 
L 1259 2759 
L 3109 2759 
L 3109 2228 
L 1259 2228 
L 1259 0 
L 628 0 
L 628 4666 
z
" transform="scale(0.015625)"/>
      <path id="DejaVuSans-2c" d="M 750 794 
L 1409 794 
L 1409 256 
L 897 -744 
L 494 -744 
L 750 256 
L 750 794 
z
" transform="scale(0.015625)"/>
      <path id="DejaVuSans-37" d="M 525 4666 
L 3525 4666 
L 3525 4397 
L 1831 0 
L 1172 0 
L 2766 4134 
L 525 4134 
L 525 4666 
z
" transform="scale(0.015625)"/>
      <path id="DejaVuSans-64" d="M 2906 2969 
L 2906 4863 
L 3481 4863 
L 3481 0 
L 2906 0 
L 2906 525 
Q 2725 213 2448 61 
Q 2172 -91 1784 -91 
Q 1150 -91 751 415 
Q 353 922 353 1747 
Q 353 2572 751 3078 
Q 1150 3584 1784 3584 
Q 2172 3584 2448 3432 
Q 2725 3281 2906 2969 
z
M 947 1747 
Q 947 1113 1208 752 
Q 1469 391 1925 391 
Q 2381 391 2643 752 
Q 2906 1113 2906 1747 
Q 2906 2381 2643 2742 
Q 2381 3103 1925 3103 
Q 1469 3103 1208 2742 
Q 947 2381 947 1747 
z
" transform="scale(0.015625)"/>
      <path id="DejaVuSans-61" d="M 2194 1759 
Q 1497 1759 1228 1600 
Q 959 1441 959 1056 
Q 959 750 1161 570 
Q 1363 391 1709 391 
Q 2188 391 2477 730 
Q 2766 1069 2766 1631 
L 2766 1759 
L 2194 1759 
z
M 3341 1997 
L 3341 0 
L 2766 0 
L 2766 531 
Q 2569 213 2275 61 
Q 1981 -91 1556 -91 
Q 1019 -91 701 211 
Q 384 513 384 1019 
Q 384 1609 779 1909 
Q 1175 2209 1959 2209 
L 2766 2209 
L 2766 2266 
Q 2766 2663 2505 2880 
Q 2244 3097 1772 3097 
Q 1472 3097 1187 3025 
Q 903 2953 641 2809 
L 641 3341 
Q 956 3463 1253 3523 
Q 1550 3584 1831 3584 
Q 2591 3584 2966 3190 
Q 3341 2797 3341 1997 
z
" transform="scale(0.015625)"/>
      <path id="DejaVuSans-6e" d="M 3513 2113 
L 3513 0 
L 2938 0 
L 2938 2094 
Q 2938 2591 2744 2837 
Q 2550 3084 2163 3084 
Q 1697 3084 1428 2787 
Q 1159 2491 1159 1978 
L 1159 0 
L 581 0 
L 581 3500 
L 1159 3500 
L 1159 2956 
Q 1366 3272 1645 3428 
Q 1925 3584 2291 3584 
Q 2894 3584 3203 3211 
Q 3513 2838 3513 2113 
z
" transform="scale(0.015625)"/>
     </defs>
     <use xlink:href="#DejaVuSans-46"/>
     <use xlink:href="#DejaVuSans-33" transform="translate(57.519531 0)"/>
     <use xlink:href="#DejaVuSans-2c" transform="translate(121.142578 0)"/>
     <use xlink:href="#DejaVuSans-20" transform="translate(152.929688 0)"/>
     <use xlink:href="#DejaVuSans-46" transform="translate(184.716797 0)"/>
     <use xlink:href="#DejaVuSans-37" transform="translate(242.236328 0)"/>
     <use xlink:href="#DejaVuSans-20" transform="translate(305.859375 0)"/>
     <use xlink:href="#DejaVuSans-28" transform="translate(337.646484 0)"/>
     <use xlink:href="#DejaVuSans-6d" transform="translate(376.660156 0)"/>
     <use xlink:href="#DejaVuSans-65" transform="translate(474.072266 0)"/>
     <use xlink:href="#DejaVuSans-64" transform="translate(535.595703 0)"/>
     <use xlink:href="#DejaVuSans-69" transform="translate(599.072266 0)"/>
     <use xlink:href="#DejaVuSans-61" transform="translate(626.855469 0)"/>
     <use xlink:href="#DejaVuSans-6e" transform="translate(688.134766 0)"/>
     <use xlink:href="#DejaVuSans-29" transform="translate(751.513672 0)"/>
    </g>
   </g>
   <g id="legend_1">
    <g id="patch_6">
     <path d="M 51.783053 55.75274 
L 132.92524 55.75274 
Q 134.92524 55.75274 134.92524 53.75274 
L 134.92524 25.118365 
Q 134.92524 23.118365 132.92524 23.118365 
L 51.783053 23.118365 
Q 49.783053 23.118365 49.783053 25.118365 
L 49.783053 53.75274 
Q 49.783053 55.75274 51.783053 55.75274 
z
" style="fill: #ffffff; opacity: 0.8; stroke: #cccccc; stroke-linejoin: miter"/>
    </g>
    <g id="line2d_15">
     <path d="M 53.783053 31.216803 
L 63.783053 31.216803 
L 73.783052 31.216803 
" style="fill: none; stroke: #1f77b4; stroke-width: 1.5; stroke-linecap: square"/>
    </g>
    <g id="text_18">
     <!-- eerie -->
     <g transform="translate(81.783052 34.716803) scale(0.1 -0.1)">
      <defs>
       <path id="DejaVuSans-72" d="M 2631 2963 
Q 2534 3019 2420 3045 
Q 2306 3072 2169 3072 
Q 1681 3072 1420 2755 
Q 1159 2438 1159 1844 
L 1159 0 
L 581 0 
L 581 3500 
L 1159 3500 
L 1159 2956 
Q 1341 3275 1631 3429 
Q 1922 3584 2338 3584 
Q 2397 3584 2469 3576 
Q 2541 3569 2628 3553 
L 2631 2963 
z
" transform="scale(0.015625)"/>
      </defs>
      <use xlink:href="#DejaVuSans-65"/>
      <use xlink:href="#DejaVuSans-65" transform="translate(61.523438 0)"/>
      <use xlink:href="#DejaVuSans-72" transform="translate(123.046875 0)"/>
      <use xlink:href="#DejaVuSans-69" transform="translate(164.160156 0)"/>
      <use xlink:href="#DejaVuSans-65" transform="translate(191.943359 0)"/>
     </g>
    </g>
    <g id="line2d_16">
     <path d="M 53.783053 45.894928 
L 63.783053 45.894928 
L 73.783052 45.894928 
" style="fill: none; stroke: #ff7f0e; stroke-width: 1.5; stroke-linecap: square"/>
    </g>
    <g id="text_19">
     <!-- non_eerie -->
     <g transform="translate(81.783052 49.394928) scale(0.1 -0.1)">
      <defs>
       <path id="DejaVuSans-6f" d="M 1959 3097 
Q 1497 3097 1228 2736 
Q 959 2375 959 1747 
Q 959 1119 1226 758 
Q 1494 397 1959 397 
Q 2419 397 2687 759 
Q 2956 1122 2956 1747 
Q 2956 2369 2687 2733 
Q 2419 3097 1959 3097 
z
M 1959 3584 
Q 2709 3584 3137 3096 
Q 3566 2609 3566 1747 
Q 3566 888 3137 398 
Q 2709 -91 1959 -91 
Q 1206 -91 779 398 
Q 353 888 353 1747 
Q 353 2609 779 3096 
Q 1206 3584 1959 3584 
z
" transform="scale(0.015625)"/>
       <path id="DejaVuSans-5f" d="M 3263 -1063 
L 3263 -1509 
L -63 -1509 
L -63 -1063 
L 3263 -1063 
z
" transform="scale(0.015625)"/>
      </defs>
      <use xlink:href="#DejaVuSans-6e"/>
      <use xlink:href="#DejaVuSans-6f" transform="translate(63.378906 0)"/>
      <use xlink:href="#DejaVuSans-6e" transform="translate(124.560547 0)"/>
      <use xlink:href="#DejaVuSans-5f" transform="translate(187.939453 0)"/>
      <use xlink:href="#DejaVuSans-65" transform="translate(237.939453 0)"/>
      <use xlink:href="#DejaVuSans-65" transform="translate(299.462891 0)"/>
      <use xlink:href="#DejaVuSans-72" transform="translate(360.986328 0)"/>
      <use xlink:href="#DejaVuSans-69" transform="translate(402.099609 0)"/>
      <use xlink:href="#DejaVuSans-65" transform="translate(429.882812 0)"/>
     </g>
    </g>
   </g>
   <g id="FillBetweenPolyCollection_1">
    <defs>
     <path id="m13cec66bbc" d="M 44.783052 -226.658052 
L 44.783052 -202.141535 
L 46.465392 -201.342017 
L 48.147732 -203.396667 
L 49.830071 -208.052464 
L 51.512411 -213.279744 
L 53.19475 -218.679651 
L 54.87709 -222.51564 
L 56.55943 -223.488244 
L 58.241769 -220.915122 
L 59.924109 -216.003992 
L 61.606448 -209.877246 
L 63.288788 -203.703258 
L 64.971128 -199.498762 
L 66.653467 -197.428611 
L 68.335807 -197.453765 
L 70.018146 -198.104239 
L 71.700486 -199.92293 
L 73.382825 -201.138941 
L 75.065165 -202.595387 
L 76.747505 -203.257577 
L 78.429844 -202.297645 
L 80.112184 -200.366278 
L 81.794523 -198.83411 
L 83.476863 -199.137995 
L 85.159203 -201.595631 
L 86.841542 -205.334438 
L 88.523882 -210.078767 
L 90.206221 -216.565641 
L 91.888561 -224.751453 
L 93.5709 -232.623136 
L 95.25324 -236.959038 
L 96.93558 -236.009882 
L 98.617919 -231.272345 
L 100.300259 -225.378843 
L 101.982598 -221.008855 
L 103.664938 -219.259962 
L 105.347278 -218.909296 
L 107.029617 -218.467102 
L 108.711957 -216.133639 
L 110.394296 -212.460132 
L 112.076636 -208.010708 
L 113.758976 -204.79181 
L 115.441315 -206.014111 
L 117.123655 -210.96933 
L 118.805994 -217.7279 
L 120.488334 -223.196725 
L 122.170673 -224.855925 
L 123.853013 -223.352738 
L 125.535353 -219.69569 
L 127.217692 -215.72142 
L 128.900032 -212.428217 
L 130.582371 -210.949844 
L 132.264711 -210.075039 
L 133.947051 -210.842108 
L 135.62939 -211.8527 
L 137.31173 -212.884512 
L 138.994069 -212.372226 
L 140.676409 -209.920437 
L 142.358748 -204.602968 
L 144.041088 -198.474867 
L 145.723428 -193.87259 
L 147.405767 -193.028178 
L 149.088107 -195.052866 
L 150.770446 -197.813079 
L 152.452786 -198.296414 
L 154.135126 -195.747978 
L 155.817465 -191.964596 
L 157.499805 -188.529497 
L 159.182144 -186.527598 
L 160.864484 -187.497543 
L 162.546823 -191.67404 
L 164.229163 -195.962513 
L 165.911503 -199.622863 
L 167.593842 -202.82284 
L 169.276182 -204.143637 
L 170.958521 -201.282296 
L 172.640861 -193.883389 
L 174.323201 -181.629052 
L 176.00554 -166.913819 
L 177.68788 -152.243948 
L 179.370219 -140.375716 
L 181.052559 -133.662889 
L 182.734899 -132.166619 
L 184.417238 -134.750508 
L 186.099578 -138.58419 
L 187.781917 -142.342536 
L 189.464257 -146.128473 
L 191.146596 -151.231326 
L 192.828936 -158.68864 
L 194.511276 -168.272393 
L 196.193615 -180.77122 
L 197.875955 -195.129618 
L 199.558294 -209.438327 
L 201.240634 -220.958916 
L 202.922974 -229.12579 
L 204.605313 -233.675046 
L 206.287653 -236.672089 
L 207.969992 -238.562319 
L 209.652332 -239.905284 
L 211.334671 -240.882837 
L 213.017011 -239.44528 
L 214.699351 -235.959088 
L 216.38169 -230.331564 
L 218.06403 -225.169589 
L 219.746369 -220.978615 
L 221.428709 -219.644071 
L 223.111049 -219.184269 
L 224.793388 -219.351354 
L 226.475728 -216.721035 
L 228.158067 -212.165787 
L 229.840407 -206.895099 
L 231.522746 -202.615527 
L 233.205086 -202.581587 
L 234.887426 -207.626704 
L 236.569765 -216.259231 
L 238.252105 -226.232499 
L 239.934444 -234.421176 
L 241.616784 -241.085448 
L 243.299124 -245.316839 
L 244.981463 -248.881045 
L 246.663803 -252.898554 
L 248.346142 -257.128196 
L 250.028482 -260.492006 
L 251.710822 -262.253026 
L 253.393161 -263.499351 
L 255.075501 -264.15087 
L 256.75784 -265.376826 
L 258.44018 -267.199871 
L 260.122519 -268.446339 
L 261.804859 -269.734959 
L 263.487199 -269.745029 
L 265.169538 -268.78316 
L 266.851878 -268.559673 
L 268.534217 -269.845855 
L 270.216557 -272.477272 
L 271.898897 -276.269014 
L 273.581236 -279.67897 
L 275.263576 -281.443315 
L 276.945915 -281.756692 
L 278.628255 -281.330387 
L 280.310594 -279.110603 
L 281.992934 -276.05705 
L 283.675274 -273.937044 
L 285.357613 -272.424112 
L 287.039953 -271.579024 
L 288.722292 -271.669799 
L 290.404632 -271.528448 
L 292.086972 -271.522742 
L 293.769311 -271.205157 
L 295.451651 -270.616526 
L 297.13399 -271.351426 
L 298.81633 -272.841333 
L 300.498669 -274.04956 
L 302.181009 -274.968556 
L 303.863349 -275.441303 
L 305.545688 -276.130912 
L 307.228028 -276.329888 
L 308.910367 -276.056083 
L 310.592707 -274.579912 
L 312.275047 -273.267168 
L 313.957386 -271.554312 
L 315.639726 -270.978336 
L 317.322065 -270.94725 
L 319.004405 -273.097069 
L 320.686745 -276.462043 
L 322.369084 -279.791611 
L 324.051424 -281.928405 
L 325.733763 -282.276013 
L 327.416103 -281.849774 
L 329.098442 -281.628542 
L 330.780782 -283.325023 
L 332.463122 -286.185715 
L 334.145461 -289.052391 
L 335.827801 -289.261868 
L 337.51014 -285.998812 
L 339.19248 -280.379246 
L 340.87482 -275.687565 
L 342.557159 -273.984109 
L 344.239499 -276.805574 
L 345.921838 -284.067194 
L 347.604178 -292.812702 
L 349.286517 -300.275772 
L 350.968857 -305.206085 
L 352.651197 -305.747601 
L 354.333536 -303.447516 
L 356.015876 -299.17299 
L 357.698215 -294.846923 
L 359.380555 -294.172647 
L 361.062895 -297.641597 
L 362.745234 -305.810482 
L 364.427574 -317.205576 
L 366.109913 -328.084063 
L 367.792253 -335.591698 
L 369.474593 -336.195042 
L 371.156932 -330.441101 
L 372.839272 -322.220247 
L 374.521611 -315.03846 
L 376.203951 -313.405963 
L 377.88629 -318.532045 
L 379.56863 -327.443565 
L 381.25097 -336.367338 
L 382.933309 -342.586815 
L 384.615649 -344.400688 
L 386.297988 -343.487674 
L 387.980328 -341.972065 
L 389.662668 -341.817009 
L 391.345007 -341.862225 
L 393.027347 -341.879555 
L 394.709686 -340.228781 
L 396.392026 -336.58835 
L 398.074365 -333.070821 
L 399.756705 -331.274189 
L 401.439045 -332.050313 
L 403.121384 -336.545458 
L 404.803724 -342.985339 
L 406.486063 -350.221309 
L 408.168403 -354.697514 
L 409.850743 -357.430825 
L 411.533082 -356.985696 
L 413.215422 -354.488031 
L 414.897761 -352.14338 
L 416.580101 -351.253156 
L 418.26244 -351.578448 
L 419.94478 -352.635905 
L 421.62712 -353.996436 
L 423.309459 -355.031634 
L 424.991799 -355.802716 
L 426.674138 -356.515239 
L 428.356478 -356.419927 
L 430.038818 -356.082824 
L 431.721157 -354.987718 
L 433.403497 -352.766468 
L 435.085836 -350.97624 
L 436.768176 -350.670861 
L 438.450516 -351.951426 
L 440.132855 -355.031423 
L 441.815195 -357.545051 
L 443.497534 -358.524247 
L 445.179874 -356.657312 
L 446.862213 -353.421686 
L 448.544553 -350.542806 
L 450.226893 -350.530943 
L 451.909232 -353.697538 
L 453.591572 -360.259056 
L 455.273911 -368.223917 
L 456.956251 -374.614264 
L 458.638591 -379.147719 
L 460.32093 -379.753894 
L 462.00327 -377.112027 
L 463.685609 -371.995376 
L 465.367949 -365.791502 
L 467.050288 -360.569736 
L 468.732628 -355.771564 
L 470.414968 -353.084099 
L 472.097307 -351.623516 
L 473.779647 -351.165978 
L 475.461986 -351.956503 
L 477.144326 -352.345513 
L 478.826666 -352.873731 
L 480.509005 -353.658024 
L 482.191345 -355.446675 
L 483.873684 -357.09856 
L 485.556024 -357.605183 
L 487.238363 -357.011123 
L 488.920703 -354.815728 
L 490.603043 -351.646268 
L 492.285382 -348.896493 
L 493.967722 -347.672148 
L 495.650061 -346.849245 
L 497.332401 -346.672746 
L 499.014741 -346.608439 
L 500.69708 -346.55323 
L 502.37942 -346.130912 
L 504.061759 -345.005052 
L 505.744099 -343.143885 
L 507.426439 -339.883064 
L 509.108778 -335.201812 
L 510.791118 -329.858246 
L 512.473457 -324.905611 
L 514.155797 -322.091877 
L 515.838136 -322.336593 
L 517.520476 -325.298301 
L 519.202816 -329.568311 
L 520.885155 -334.342166 
L 522.567495 -338.354634 
L 524.249834 -342.528995 
L 525.932174 -345.577253 
L 527.614514 -347.020269 
L 529.296853 -345.262332 
L 530.979193 -340.511991 
L 532.661532 -334.657984 
L 534.343872 -330.924965 
L 536.026211 -329.798714 
L 537.708551 -331.89736 
L 539.390891 -334.558465 
L 541.07323 -335.443201 
L 542.75557 -331.59807 
L 544.437909 -325.296405 
L 546.120249 -318.653115 
L 547.802589 -314.448358 
L 549.484928 -314.224067 
L 551.167268 -316.97272 
L 552.849607 -320.150921 
L 554.531947 -321.147603 
L 556.214286 -319.366793 
L 557.896626 -316.508491 
L 559.578966 -313.952927 
L 561.261305 -314.385646 
L 561.261305 -343.761443 
L 561.261305 -343.761443 
L 559.578966 -345.67179 
L 557.896626 -349.818618 
L 556.214286 -353.621402 
L 554.531947 -355.413117 
L 552.849607 -354.068394 
L 551.167268 -350.805739 
L 549.484928 -347.862621 
L 547.802589 -348.177456 
L 546.120249 -351.755476 
L 544.437909 -356.859779 
L 542.75557 -361.700358 
L 541.07323 -365.415346 
L 539.390891 -366.074893 
L 537.708551 -366.311969 
L 536.026211 -366.882155 
L 534.343872 -368.519656 
L 532.661532 -371.041777 
L 530.979193 -373.283709 
L 529.296853 -374.262546 
L 527.614514 -374.011283 
L 525.932174 -373.440205 
L 524.249834 -371.565535 
L 522.567495 -368.901753 
L 520.885155 -364.316839 
L 519.202816 -359.930224 
L 517.520476 -356.014729 
L 515.838136 -354.710431 
L 514.155797 -354.761682 
L 512.473457 -356.903483 
L 510.791118 -360.340682 
L 509.108778 -365.038716 
L 507.426439 -370.226159 
L 505.744099 -374.572033 
L 504.061759 -378.556529 
L 502.37942 -380.986842 
L 500.69708 -381.491384 
L 499.014741 -380.673588 
L 497.332401 -378.292407 
L 495.650061 -377.680892 
L 493.967722 -379.520531 
L 492.285382 -384.287105 
L 490.603043 -389.995745 
L 488.920703 -395.287531 
L 487.238363 -398.97403 
L 485.556024 -399.864933 
L 483.873684 -398.68727 
L 482.191345 -396.690855 
L 480.509005 -395.61348 
L 478.826666 -395.605091 
L 477.144326 -395.712485 
L 475.461986 -394.222963 
L 473.779647 -391.602958 
L 472.097307 -388.641713 
L 470.414968 -385.924211 
L 468.732628 -386.294036 
L 467.050288 -390.398735 
L 465.367949 -396.973522 
L 463.685609 -404.300565 
L 462.00327 -410.811656 
L 460.32093 -413.462728 
L 458.638591 -413.881635 
L 456.956251 -410.344615 
L 455.273911 -403.843341 
L 453.591572 -396.497107 
L 451.909232 -390.463617 
L 450.226893 -386.834358 
L 448.544553 -385.978399 
L 446.862213 -386.714673 
L 445.179874 -387.606989 
L 443.497534 -388.149815 
L 441.815195 -386.659464 
L 440.132855 -383.840916 
L 438.450516 -381.630186 
L 436.768176 -380.584158 
L 435.085836 -380.835919 
L 433.403497 -382.091155 
L 431.721157 -384.259133 
L 430.038818 -385.779506 
L 428.356478 -387.195144 
L 426.674138 -388.076019 
L 424.991799 -388.671775 
L 423.309459 -389.125466 
L 421.62712 -388.76302 
L 419.94478 -387.516929 
L 418.26244 -385.870132 
L 416.580101 -385.281419 
L 414.897761 -386.184698 
L 413.215422 -388.468026 
L 411.533082 -390.594352 
L 409.850743 -391.754424 
L 408.168403 -390.419357 
L 406.486063 -386.1648 
L 404.803724 -379.420251 
L 403.121384 -372.685087 
L 401.439045 -367.620601 
L 399.756705 -366.504124 
L 398.074365 -369.175454 
L 396.392026 -373.38067 
L 394.709686 -377.515341 
L 393.027347 -378.837975 
L 391.345007 -377.678482 
L 389.662668 -375.86637 
L 387.980328 -375.120217 
L 386.297988 -376.223022 
L 384.615649 -377.983666 
L 382.933309 -377.945278 
L 381.25097 -373.649223 
L 379.56863 -365.090297 
L 377.88629 -354.686505 
L 376.203951 -347.866457 
L 374.521611 -346.709685 
L 372.839272 -351.666702 
L 371.156932 -359.461128 
L 369.474593 -365.454643 
L 367.792253 -365.20251 
L 366.109913 -358.110713 
L 364.427574 -346.6209 
L 362.745234 -334.896039 
L 361.062895 -327.491896 
L 359.380555 -325.178768 
L 357.698215 -328.465705 
L 356.015876 -334.01066 
L 354.333536 -338.987265 
L 352.651197 -340.755912 
L 350.968857 -338.715251 
L 349.286517 -332.535019 
L 347.604178 -323.03584 
L 345.921838 -313.486429 
L 344.239499 -305.744264 
L 342.557159 -302.901818 
L 340.87482 -304.63408 
L 339.19248 -309.375376 
L 337.51014 -315.371836 
L 335.827801 -318.625402 
L 334.145461 -319.379315 
L 332.463122 -317.078131 
L 330.780782 -314.013293 
L 329.098442 -311.609661 
L 327.416103 -311.418527 
L 325.733763 -311.110086 
L 324.051424 -310.342782 
L 322.369084 -308.975267 
L 320.686745 -307.30115 
L 319.004405 -307.242786 
L 317.322065 -307.906507 
L 315.639726 -309.728445 
L 313.957386 -311.390109 
L 312.275047 -312.561794 
L 310.592707 -312.8091 
L 308.910367 -312.246047 
L 307.228028 -310.466147 
L 305.545688 -308.343176 
L 303.863349 -306.654997 
L 302.181009 -303.811986 
L 300.498669 -301.803537 
L 298.81633 -301.505869 
L 297.13399 -301.970434 
L 295.451651 -303.431347 
L 293.769311 -304.717898 
L 292.086972 -304.91648 
L 290.404632 -304.092992 
L 288.722292 -304.358731 
L 287.039953 -304.949098 
L 285.357613 -307.707976 
L 283.675274 -311.661429 
L 281.992934 -314.8152 
L 280.310594 -317.587385 
L 278.628255 -318.967338 
L 276.945915 -319.387871 
L 275.263576 -318.438566 
L 273.581236 -317.062452 
L 271.898897 -314.339533 
L 270.216557 -311.293654 
L 268.534217 -308.624337 
L 266.851878 -306.40285 
L 265.169538 -305.111583 
L 263.487199 -305.880087 
L 261.804859 -306.115811 
L 260.122519 -304.759496 
L 258.44018 -302.195361 
L 256.75784 -298.959178 
L 255.075501 -297.124147 
L 253.393161 -296.075633 
L 251.710822 -294.569287 
L 250.028482 -292.247952 
L 248.346142 -287.967417 
L 246.663803 -283.242171 
L 244.981463 -279.153294 
L 243.299124 -275.667485 
L 241.616784 -272.821615 
L 239.934444 -268.744441 
L 238.252105 -262.7349 
L 236.569765 -253.613012 
L 234.887426 -243.965276 
L 233.205086 -237.121444 
L 231.522746 -234.433486 
L 229.840407 -236.022218 
L 228.158067 -240.341713 
L 226.475728 -244.417163 
L 224.793388 -247.98451 
L 223.111049 -251.049166 
L 221.428709 -254.219592 
L 219.746369 -258.15819 
L 218.06403 -262.80678 
L 216.38169 -266.823085 
L 214.699351 -270.546942 
L 213.017011 -272.200348 
L 211.334671 -273.126981 
L 209.652332 -274.042968 
L 207.969992 -274.087709 
L 206.287653 -273.17876 
L 204.605313 -270.108066 
L 202.922974 -264.973051 
L 201.240634 -256.697475 
L 199.558294 -245.612044 
L 197.875955 -231.405399 
L 196.193615 -215.003473 
L 194.511276 -198.970669 
L 192.828936 -186.003805 
L 191.146596 -177.960283 
L 189.464257 -174.840847 
L 187.781917 -173.181224 
L 186.099578 -171.538459 
L 184.417238 -169.86952 
L 182.734899 -168.475783 
L 181.052559 -169.981715 
L 179.370219 -175.462502 
L 177.68788 -185.925661 
L 176.00554 -198.499862 
L 174.323201 -212.185359 
L 172.640861 -224.097639 
L 170.958521 -232.728031 
L 169.276182 -238.388283 
L 167.593842 -239.484656 
L 165.911503 -236.592537 
L 164.229163 -230.344736 
L 162.546823 -223.595089 
L 160.864484 -218.781907 
L 159.182144 -216.97659 
L 157.499805 -218.335879 
L 155.817465 -222.199742 
L 154.135126 -226.97638 
L 152.452786 -230.312148 
L 150.770446 -231.041168 
L 149.088107 -229.241369 
L 147.405767 -227.34217 
L 145.723428 -227.263279 
L 144.041088 -228.396513 
L 142.358748 -231.391879 
L 140.676409 -234.206537 
L 138.994069 -236.634999 
L 137.31173 -237.436464 
L 135.62939 -238.154866 
L 133.947051 -238.476496 
L 132.264711 -239.007343 
L 130.582371 -239.248096 
L 128.900032 -239.286919 
L 127.217692 -239.792 
L 125.535353 -241.382061 
L 123.853013 -242.959249 
L 122.170673 -243.294989 
L 120.488334 -241.777475 
L 118.805994 -237.398886 
L 117.123655 -231.377986 
L 115.441315 -225.960605 
L 113.758976 -223.627088 
L 112.076636 -225.435214 
L 110.394296 -230.530021 
L 108.711957 -236.113182 
L 107.029617 -238.830364 
L 105.347278 -239.097566 
L 103.664938 -238.633726 
L 101.982598 -240.525894 
L 100.300259 -244.29962 
L 98.617919 -248.695913 
L 96.93558 -252.005046 
L 95.25324 -252.625775 
L 93.5709 -250.125126 
L 91.888561 -244.527031 
L 90.206221 -236.610319 
L 88.523882 -228.753625 
L 86.841542 -223.613688 
L 85.159203 -221.28964 
L 83.476863 -220.851573 
L 81.794523 -220.524583 
L 80.112184 -220.479997 
L 78.429844 -220.839384 
L 76.747505 -221.766057 
L 75.065165 -223.001913 
L 73.382825 -224.291107 
L 71.700486 -224.979137 
L 70.018146 -225.430976 
L 68.335807 -226.160017 
L 66.653467 -226.97979 
L 64.971128 -228.757052 
L 63.288788 -231.370568 
L 61.606448 -235.063723 
L 59.924109 -239.294335 
L 58.241769 -243.247012 
L 56.55943 -245.909521 
L 54.87709 -246.993931 
L 53.19475 -245.213389 
L 51.512411 -241.13286 
L 49.830071 -235.544988 
L 48.147732 -230.137252 
L 46.465392 -227.221912 
L 44.783052 -226.658052 
z
" style="stroke: #1f77b4; stroke-opacity: 0.3"/>
    </defs>
    <g>
     <use xlink:href="#m13cec66bbc" x="0" y="432" style="fill: #1f77b4; fill-opacity: 0.3; stroke: #1f77b4; stroke-opacity: 0.3"/>
    </g>
   </g>
   <g id="FillBetweenPolyCollection_2">
    <defs>
     <path id="mb8534eaa18" d="M 44.783052 -221.671861 
L 44.783052 -217.379493 
L 46.465392 -221.027214 
L 48.147732 -223.03113 
L 49.830071 -223.144525 
L 51.512411 -222.088555 
L 53.19475 -220.559749 
L 54.87709 -219.027362 
L 56.55943 -217.525164 
L 58.241769 -216.041752 
L 59.924109 -214.489522 
L 61.606448 -213.478237 
L 63.288788 -213.693986 
L 64.971128 -215.273029 
L 66.653467 -218.232712 
L 68.335807 -221.963698 
L 70.018146 -225.438167 
L 71.700486 -228.031123 
L 73.382825 -229.530311 
L 75.065165 -229.794271 
L 76.747505 -228.930692 
L 78.429844 -227.126721 
L 80.112184 -224.937482 
L 81.794523 -222.851305 
L 83.476863 -221.221291 
L 85.159203 -219.950677 
L 86.841542 -218.21415 
L 88.523882 -215.377767 
L 90.206221 -211.28112 
L 91.888561 -206.529443 
L 93.5709 -202.66772 
L 95.25324 -201.387086 
L 96.93558 -203.204152 
L 98.617919 -207.496162 
L 100.300259 -212.408789 
L 101.982598 -216.308501 
L 103.664938 -218.572216 
L 105.347278 -219.841578 
L 107.029617 -221.515836 
L 108.711957 -224.590559 
L 110.394296 -228.92741 
L 112.076636 -233.072361 
L 113.758976 -235.724911 
L 115.441315 -236.080142 
L 117.123655 -234.538659 
L 118.805994 -232.488441 
L 120.488334 -231.291207 
L 122.170673 -231.306704 
L 123.853013 -231.857024 
L 125.535353 -231.95471 
L 127.217692 -230.761087 
L 128.900032 -228.201379 
L 130.582371 -225.03013 
L 132.264711 -222.23442 
L 133.947051 -220.3374 
L 135.62939 -219.391913 
L 137.31173 -218.91467 
L 138.994069 -218.484377 
L 140.676409 -217.98624 
L 142.358748 -217.408467 
L 144.041088 -217.102519 
L 145.723428 -217.150882 
L 147.405767 -217.606834 
L 149.088107 -218.366289 
L 150.770446 -219.215629 
L 152.452786 -219.947888 
L 154.135126 -220.545736 
L 155.817465 -220.805387 
L 157.499805 -220.863948 
L 159.182144 -221.126376 
L 160.864484 -221.984281 
L 162.546823 -223.753473 
L 164.229163 -226.234807 
L 165.911503 -228.553247 
L 167.593842 -229.685379 
L 169.276182 -228.765427 
L 170.958521 -225.593554 
L 172.640861 -220.379634 
L 174.323201 -214.345265 
L 176.00554 -208.21917 
L 177.68788 -202.358155 
L 179.370219 -196.73231 
L 181.052559 -190.880472 
L 182.734899 -184.722664 
L 184.417238 -178.381313 
L 186.099578 -172.895821 
L 187.781917 -169.910186 
L 189.464257 -170.816924 
L 191.146596 -176.467187 
L 192.828936 -186.807965 
L 194.511276 -200.379249 
L 196.193615 -214.889767 
L 197.875955 -227.938486 
L 199.558294 -237.41475 
L 201.240634 -242.657217 
L 202.922974 -244.123018 
L 204.605313 -243.14193 
L 206.287653 -241.366307 
L 207.969992 -239.513657 
L 209.652332 -238.110265 
L 211.334671 -237.003286 
L 213.017011 -235.886241 
L 214.699351 -234.746531 
L 216.38169 -233.552591 
L 218.06403 -232.412987 
L 219.746369 -231.301939 
L 221.428709 -230.26075 
L 223.111049 -229.255017 
L 224.793388 -228.47926 
L 226.475728 -227.97125 
L 228.158067 -227.656907 
L 229.840407 -227.257852 
L 231.522746 -226.508437 
L 233.205086 -225.278331 
L 234.887426 -223.584582 
L 236.569765 -221.632712 
L 238.252105 -219.672963 
L 239.934444 -217.96575 
L 241.616784 -216.391532 
L 243.299124 -215.407188 
L 244.981463 -215.316669 
L 246.663803 -216.305014 
L 248.346142 -218.464692 
L 250.028482 -221.037287 
L 251.710822 -223.155204 
L 253.393161 -223.644069 
L 255.075501 -222.214178 
L 256.75784 -219.081174 
L 258.44018 -215.423982 
L 260.122519 -212.3456 
L 261.804859 -210.706665 
L 263.487199 -210.850724 
L 265.169538 -212.441416 
L 266.851878 -214.78687 
L 268.534217 -217.194179 
L 270.216557 -219.120917 
L 271.898897 -220.361943 
L 273.581236 -221.031959 
L 275.263576 -221.392705 
L 276.945915 -221.823453 
L 278.628255 -222.432143 
L 280.310594 -222.994756 
L 281.992934 -223.230942 
L 283.675274 -222.619233 
L 285.357613 -221.145346 
L 287.039953 -218.872857 
L 288.722292 -216.317912 
L 290.404632 -213.844328 
L 292.086972 -211.574715 
L 293.769311 -209.677298 
L 295.451651 -208.15621 
L 297.13399 -207.301424 
L 298.81633 -207.322816 
L 300.498669 -208.208052 
L 302.181009 -209.682651 
L 303.863349 -211.091556 
L 305.545688 -211.873217 
L 307.228028 -211.668432 
L 308.910367 -210.888843 
L 310.592707 -210.137595 
L 312.275047 -210.187185 
L 313.957386 -211.32189 
L 315.639726 -213.161773 
L 317.322065 -215.48982 
L 319.004405 -217.411936 
L 320.686745 -219.112106 
L 322.369084 -220.78212 
L 324.051424 -222.576922 
L 325.733763 -224.514078 
L 327.416103 -226.322314 
L 329.098442 -227.706041 
L 330.780782 -228.571146 
L 332.463122 -228.961631 
L 334.145461 -229.160837 
L 335.827801 -229.284937 
L 337.51014 -229.687296 
L 339.19248 -230.276349 
L 340.87482 -231.061116 
L 342.557159 -232.05931 
L 344.239499 -233.109947 
L 345.921838 -234.173007 
L 347.604178 -234.873505 
L 349.286517 -235.449673 
L 350.968857 -236.043899 
L 352.651197 -237.094014 
L 354.333536 -239.012412 
L 356.015876 -241.640382 
L 357.698215 -244.670079 
L 359.380555 -247.565841 
L 361.062895 -249.705792 
L 362.745234 -251.34451 
L 364.427574 -252.511289 
L 366.109913 -253.576683 
L 367.792253 -254.664182 
L 369.474593 -255.917836 
L 371.156932 -257.279792 
L 372.839272 -258.683648 
L 374.521611 -260.290417 
L 376.203951 -262.070498 
L 377.88629 -264.000266 
L 379.56863 -265.793903 
L 381.25097 -267.531935 
L 382.933309 -269.246536 
L 384.615649 -271.223806 
L 386.297988 -273.385346 
L 387.980328 -275.574627 
L 389.662668 -277.064242 
L 391.345007 -277.494558 
L 393.027347 -276.883585 
L 394.709686 -275.660158 
L 396.392026 -274.772031 
L 398.074365 -274.51924 
L 399.756705 -275.053926 
L 401.439045 -275.628041 
L 403.121384 -275.685223 
L 404.803724 -274.983041 
L 406.486063 -273.93756 
L 408.168403 -273.068582 
L 409.850743 -272.546688 
L 411.533082 -272.328299 
L 413.215422 -271.6727 
L 414.897761 -270.427554 
L 416.580101 -268.833731 
L 418.26244 -267.909871 
L 419.94478 -268.242389 
L 421.62712 -270.310741 
L 423.309459 -273.393061 
L 424.991799 -276.302444 
L 426.674138 -278.012761 
L 428.356478 -278.384397 
L 430.038818 -278.10365 
L 431.721157 -278.40558 
L 433.403497 -280.034462 
L 435.085836 -283.112438 
L 436.768176 -286.577478 
L 438.450516 -289.291046 
L 440.132855 -290.123908 
L 441.815195 -288.913943 
L 443.497534 -286.210461 
L 445.179874 -282.985394 
L 446.862213 -280.075337 
L 448.544553 -278.084718 
L 450.226893 -277.098368 
L 451.909232 -276.933333 
L 453.591572 -277.369438 
L 455.273911 -277.869613 
L 456.956251 -278.191937 
L 458.638591 -277.989777 
L 460.32093 -277.208761 
L 462.00327 -276.004158 
L 463.685609 -274.512166 
L 465.367949 -273.102179 
L 467.050288 -272.03157 
L 468.732628 -271.447887 
L 470.414968 -271.54518 
L 472.097307 -272.259451 
L 473.779647 -273.70975 
L 475.461986 -275.774405 
L 477.144326 -278.283941 
L 478.826666 -280.815377 
L 480.509005 -282.599397 
L 482.191345 -283.42286 
L 483.873684 -283.27649 
L 485.556024 -282.647016 
L 487.238363 -282.152477 
L 488.920703 -282.427702 
L 490.603043 -283.253731 
L 492.285382 -284.203195 
L 493.967722 -284.981834 
L 495.650061 -285.353878 
L 497.332401 -285.557002 
L 499.014741 -285.804585 
L 500.69708 -285.985783 
L 502.37942 -286.092815 
L 504.061759 -285.656923 
L 505.744099 -284.621593 
L 507.426439 -283.59033 
L 509.108778 -283.138599 
L 510.791118 -283.661055 
L 512.473457 -284.871176 
L 514.155797 -285.784652 
L 515.838136 -286.129309 
L 517.520476 -285.793083 
L 519.202816 -285.193982 
L 520.885155 -285.127839 
L 522.567495 -285.708484 
L 524.249834 -286.223322 
L 525.932174 -285.846401 
L 527.614514 -283.754205 
L 529.296853 -280.339974 
L 530.979193 -277.013458 
L 532.661532 -274.98307 
L 534.343872 -274.950502 
L 536.026211 -276.736709 
L 537.708551 -279.101619 
L 539.390891 -280.71062 
L 541.07323 -281.479821 
L 542.75557 -281.473116 
L 544.437909 -281.329076 
L 546.120249 -281.211075 
L 547.802589 -281.0348 
L 549.484928 -280.29508 
L 551.167268 -278.779732 
L 552.849607 -277.10656 
L 554.531947 -276.273696 
L 556.214286 -277.152184 
L 557.896626 -279.604191 
L 559.578966 -282.769823 
L 561.261305 -285.525278 
L 561.261305 -291.729456 
L 561.261305 -291.729456 
L 559.578966 -288.985842 
L 557.896626 -285.758387 
L 556.214286 -283.317104 
L 554.531947 -282.531991 
L 552.849607 -283.256474 
L 551.167268 -284.891842 
L 549.484928 -286.394064 
L 547.802589 -287.078123 
L 546.120249 -287.217795 
L 544.437909 -287.250862 
L 542.75557 -287.315881 
L 541.07323 -287.222144 
L 539.390891 -286.425722 
L 537.708551 -284.565866 
L 536.026211 -282.229844 
L 534.343872 -280.485556 
L 532.661532 -280.500949 
L 530.979193 -282.609673 
L 529.296853 -286.089922 
L 527.614514 -289.499097 
L 525.932174 -291.561105 
L 524.249834 -291.963666 
L 522.567495 -291.333907 
L 520.885155 -290.713136 
L 519.202816 -290.787269 
L 517.520476 -291.259524 
L 515.838136 -291.544029 
L 514.155797 -291.213043 
L 512.473457 -290.145149 
L 510.791118 -289.066964 
L 509.108778 -288.653683 
L 507.426439 -289.110176 
L 505.744099 -290.101555 
L 504.061759 -291.184909 
L 502.37942 -291.773888 
L 500.69708 -291.945147 
L 499.014741 -291.734066 
L 497.332401 -291.477339 
L 495.650061 -291.134806 
L 493.967722 -290.642997 
L 492.285382 -289.670981 
L 490.603043 -288.551901 
L 488.920703 -287.743199 
L 487.238363 -287.513403 
L 485.556024 -288.039431 
L 483.873684 -288.630325 
L 482.191345 -288.81404 
L 480.509005 -288.098214 
L 478.826666 -286.360851 
L 477.144326 -283.837053 
L 475.461986 -281.213738 
L 473.779647 -278.946915 
L 472.097307 -277.494086 
L 470.414968 -276.70424 
L 468.732628 -276.711027 
L 467.050288 -277.322916 
L 465.367949 -278.418187 
L 463.685609 -279.809158 
L 462.00327 -281.175273 
L 460.32093 -282.338496 
L 458.638591 -283.047504 
L 456.956251 -283.402249 
L 455.273911 -283.260713 
L 453.591572 -282.810787 
L 451.909232 -282.44908 
L 450.226893 -282.521792 
L 448.544553 -283.498082 
L 446.862213 -285.536093 
L 445.179874 -288.548739 
L 443.497534 -291.871592 
L 441.815195 -294.63094 
L 440.132855 -295.822361 
L 438.450516 -294.97001 
L 436.768176 -292.166374 
L 435.085836 -288.680333 
L 433.403497 -285.684657 
L 431.721157 -283.893974 
L 430.038818 -283.601148 
L 428.356478 -283.934909 
L 426.674138 -283.63494 
L 424.991799 -282.0842 
L 423.309459 -279.146283 
L 421.62712 -276.043135 
L 419.94478 -273.88166 
L 418.26244 -273.324438 
L 416.580101 -274.287616 
L 414.897761 -275.861418 
L 413.215422 -277.225607 
L 411.533082 -277.989918 
L 409.850743 -278.29693 
L 408.168403 -278.786779 
L 406.486063 -279.646788 
L 404.803724 -280.725208 
L 403.121384 -281.393238 
L 401.439045 -281.168848 
L 399.756705 -280.520982 
L 398.074365 -279.959457 
L 396.392026 -280.256223 
L 394.709686 -281.190591 
L 393.027347 -282.504947 
L 391.345007 -283.206026 
L 389.662668 -282.7592 
L 387.980328 -281.220531 
L 386.297988 -279.110261 
L 384.615649 -276.892696 
L 382.933309 -275.020906 
L 381.25097 -273.358705 
L 379.56863 -271.660961 
L 377.88629 -269.999771 
L 376.203951 -268.16118 
L 374.521611 -266.488036 
L 372.839272 -264.942278 
L 371.156932 -263.458972 
L 369.474593 -262.154021 
L 367.792253 -260.833761 
L 366.109913 -259.701094 
L 364.427574 -258.603776 
L 362.745234 -257.349209 
L 361.062895 -255.787271 
L 359.380555 -253.502989 
L 357.698215 -250.71415 
L 356.015876 -247.696326 
L 354.333536 -244.932877 
L 352.651197 -242.913908 
L 350.968857 -241.6021 
L 349.286517 -240.805825 
L 347.604178 -240.135386 
L 345.921838 -239.334972 
L 344.239499 -238.302613 
L 342.557159 -237.167558 
L 340.87482 -236.160367 
L 339.19248 -235.35913 
L 337.51014 -234.838057 
L 335.827801 -234.56768 
L 334.145461 -234.365074 
L 332.463122 -234.249161 
L 330.780782 -233.988334 
L 329.098442 -233.110462 
L 327.416103 -231.614275 
L 325.733763 -229.840768 
L 324.051424 -227.954846 
L 322.369084 -226.285224 
L 320.686745 -224.741016 
L 319.004405 -222.94449 
L 317.322065 -220.834635 
L 315.639726 -218.430744 
L 313.957386 -216.249514 
L 312.275047 -214.953454 
L 310.592707 -214.832202 
L 308.910367 -215.574532 
L 307.228028 -216.492992 
L 305.545688 -216.688219 
L 303.863349 -215.963183 
L 302.181009 -214.564437 
L 300.498669 -213.045929 
L 298.81633 -212.148419 
L 297.13399 -212.144314 
L 295.451651 -213.10773 
L 293.769311 -214.653568 
L 292.086972 -216.692672 
L 290.404632 -219.109943 
L 288.722292 -221.705104 
L 287.039953 -224.269511 
L 285.357613 -226.448147 
L 283.675274 -227.878689 
L 281.992934 -228.443044 
L 280.310594 -228.160069 
L 278.628255 -227.467006 
L 276.945915 -226.746142 
L 275.263576 -226.143144 
L 273.581236 -225.65905 
L 271.898897 -224.979383 
L 270.216557 -223.767367 
L 268.534217 -221.980635 
L 266.851878 -219.661814 
L 265.169538 -217.376828 
L 263.487199 -215.717851 
L 261.804859 -215.521686 
L 260.122519 -217.043682 
L 258.44018 -220.244779 
L 256.75784 -223.884867 
L 255.075501 -226.956669 
L 253.393161 -228.470313 
L 251.710822 -228.042581 
L 250.028482 -226.212155 
L 248.346142 -223.74774 
L 246.663803 -221.793873 
L 244.981463 -220.758149 
L 243.299124 -220.836232 
L 241.616784 -221.781373 
L 239.934444 -223.282081 
L 238.252105 -225.137679 
L 236.569765 -227.117756 
L 234.887426 -229.008583 
L 233.205086 -230.620766 
L 231.522746 -231.701563 
L 229.840407 -232.215053 
L 228.158067 -232.468995 
L 226.475728 -232.749605 
L 224.793388 -233.36388 
L 223.111049 -234.172569 
L 221.428709 -235.144737 
L 219.746369 -236.232079 
L 218.06403 -237.224287 
L 216.38169 -238.162691 
L 214.699351 -239.328719 
L 213.017011 -240.518286 
L 211.334671 -241.727347 
L 209.652332 -243.019062 
L 207.969992 -244.523181 
L 206.287653 -246.364512 
L 204.605313 -248.421432 
L 202.922974 -249.363777 
L 201.240634 -247.933808 
L 199.558294 -242.827677 
L 197.875955 -233.369772 
L 196.193615 -220.338614 
L 194.511276 -205.706737 
L 192.828936 -191.925821 
L 191.146596 -181.527901 
L 189.464257 -175.83456 
L 187.781917 -174.810742 
L 186.099578 -177.801569 
L 184.417238 -183.168549 
L 182.734899 -189.423675 
L 181.052559 -195.599835 
L 179.370219 -201.409373 
L 177.68788 -206.951265 
L 176.00554 -212.80312 
L 174.323201 -218.893309 
L 172.640861 -224.934822 
L 170.958521 -230.122633 
L 169.276182 -233.366703 
L 167.593842 -234.222601 
L 165.911503 -232.959951 
L 164.229163 -230.647267 
L 162.546823 -228.174371 
L 160.864484 -226.415649 
L 159.182144 -225.688721 
L 157.499805 -225.506199 
L 155.817465 -225.61842 
L 154.135126 -225.35227 
L 152.452786 -224.84948 
L 150.770446 -224.219669 
L 149.088107 -223.41058 
L 147.405767 -222.702013 
L 145.723428 -222.167832 
L 144.041088 -222.01888 
L 142.358748 -222.09161 
L 140.676409 -222.576912 
L 138.994069 -223.0717 
L 137.31173 -223.440413 
L 135.62939 -223.884308 
L 133.947051 -224.703171 
L 132.264711 -226.440747 
L 130.582371 -229.134344 
L 128.900032 -232.20411 
L 127.217692 -234.721407 
L 125.535353 -235.782901 
L 123.853013 -235.6837 
L 122.170673 -234.924687 
L 120.488334 -234.956069 
L 118.805994 -236.239617 
L 117.123655 -238.330307 
L 115.441315 -239.845765 
L 113.758976 -239.516979 
L 112.076636 -236.802071 
L 110.394296 -232.518291 
L 108.711957 -228.208102 
L 107.029617 -225.154099 
L 105.347278 -223.45772 
L 103.664938 -222.14107 
L 101.982598 -219.874984 
L 100.300259 -215.997171 
L 98.617919 -211.123982 
L 96.93558 -206.983576 
L 95.25324 -205.217131 
L 93.5709 -206.531686 
L 91.888561 -210.356382 
L 90.206221 -215.044974 
L 88.523882 -219.214357 
L 86.841542 -222.023751 
L 85.159203 -223.794966 
L 83.476863 -225.238231 
L 81.794523 -226.830675 
L 80.112184 -228.803845 
L 78.429844 -230.856411 
L 76.747505 -232.451913 
L 75.065165 -233.307746 
L 73.382825 -233.036554 
L 71.700486 -231.525304 
L 70.018146 -228.851704 
L 68.335807 -225.365127 
L 66.653467 -221.724708 
L 64.971128 -218.751952 
L 63.288788 -217.140887 
L 61.606448 -217.084414 
L 59.924109 -218.14145 
L 58.241769 -219.768582 
L 56.55943 -221.527084 
L 54.87709 -223.129258 
L 53.19475 -224.752517 
L 51.512411 -226.317554 
L 49.830071 -227.430327 
L 48.147732 -227.263749 
L 46.465392 -225.299959 
L 44.783052 -221.671861 
z
" style="stroke: #ff7f0e; stroke-opacity: 0.3"/>
    </defs>
    <g>
     <use xlink:href="#mb8534eaa18" x="0" y="432" style="fill: #ff7f0e; fill-opacity: 0.3; stroke: #ff7f0e; stroke-opacity: 0.3"/>
    </g>
   </g>
   <g id="line2d_17">
    <path d="M 44.783052 217.58277 
L 46.465392 217.633203 
L 48.147732 214.989038 
L 49.830071 210.203201 
L 51.512411 204.655988 
L 53.19475 199.93205 
L 54.87709 197.308957 
L 56.55943 197.416539 
L 58.241769 200.063157 
L 59.924109 204.427714 
L 61.606448 209.336477 
L 63.288788 213.706036 
L 64.971128 216.863951 
L 66.653467 218.637705 
L 68.335807 219.26865 
L 70.018146 219.201979 
L 73.382825 218.681209 
L 75.065165 218.789292 
L 76.747505 219.309978 
L 78.429844 220.189189 
L 80.112184 221.202164 
L 81.794523 221.999287 
L 83.476863 222.080166 
L 85.159203 220.844671 
L 86.841542 217.699148 
L 88.523882 212.3059 
L 90.206221 205.035327 
L 91.888561 197.159818 
L 93.5709 190.642746 
L 95.25324 187.387228 
L 96.93558 188.212984 
L 98.617919 192.314964 
L 100.300259 197.514366 
L 101.982598 201.478559 
L 103.664938 203.120677 
L 105.347278 203.20093 
L 107.029617 203.70392 
L 108.711957 206.301907 
L 112.076636 215.788627 
L 113.758976 218.178967 
L 115.441315 216.545185 
L 117.123655 211.392285 
L 118.805994 205.003819 
L 120.488334 200.064239 
L 122.170673 198.145019 
L 123.853013 199.130611 
L 127.217692 204.4676 
L 128.900032 206.539061 
L 130.582371 207.781613 
L 132.264711 208.285259 
L 133.947051 208.118789 
L 137.31173 206.916609 
L 138.994069 207.452903 
L 140.676409 209.822503 
L 142.358748 213.87323 
L 144.041088 218.301596 
L 145.723428 221.314888 
L 147.405767 221.789293 
L 149.088107 220.117582 
L 150.770446 218.091549 
L 152.452786 217.745983 
L 154.135126 220.026436 
L 157.499805 228.009217 
L 159.182144 229.675325 
L 160.864484 228.23226 
L 162.546823 224.180567 
L 164.229163 218.962751 
L 165.911503 214.184481 
L 167.593842 211.199452 
L 169.276182 211.069609 
L 170.958521 214.680818 
L 172.640861 222.579835 
L 174.323201 234.429325 
L 177.68788 262.53508 
L 179.370219 273.339969 
L 181.052559 279.388609 
L 182.734899 280.808817 
L 184.417238 279.253571 
L 189.464257 271.681767 
L 191.146596 267.291747 
L 192.828936 259.656016 
L 194.511276 248.266117 
L 196.193615 233.990035 
L 197.875955 218.733373 
L 199.558294 204.596494 
L 201.240634 193.119349 
L 202.922974 184.920518 
L 204.605313 179.720996 
L 206.287653 176.746583 
L 207.969992 175.159074 
L 209.652332 174.434152 
L 211.334671 174.564401 
L 213.017011 175.875018 
L 214.699351 178.676222 
L 216.38169 182.81065 
L 218.06403 187.467402 
L 219.746369 191.552277 
L 221.428709 194.349334 
L 224.793388 197.921568 
L 226.475728 201.021577 
L 229.840407 210.47908 
L 231.522746 213.210085 
L 233.205086 211.788161 
L 234.887426 205.763699 
L 238.252105 187.171049 
L 239.934444 179.473926 
L 241.616784 174.303197 
L 244.981463 167.41921 
L 246.663803 163.382043 
L 248.346142 158.948965 
L 250.028482 155.124194 
L 251.710822 152.640463 
L 253.393161 151.379727 
L 255.075501 150.510054 
L 256.75784 149.187153 
L 260.122519 145.273842 
L 261.804859 143.956837 
L 263.487199 143.560785 
L 265.169538 143.598987 
L 266.851878 143.212386 
L 268.534217 141.745978 
L 270.216557 139.183969 
L 271.898897 136.100996 
L 273.581236 133.272159 
L 275.263576 131.350362 
L 276.945915 130.694091 
L 278.628255 131.3795 
L 280.310594 133.278533 
L 285.357613 141.306192 
L 287.039953 142.700627 
L 288.722292 143.135439 
L 290.404632 143.122007 
L 292.086972 143.327695 
L 293.769311 144.072873 
L 295.451651 145.085523 
L 297.13399 145.714248 
L 298.81633 145.397123 
L 300.498669 144.065527 
L 303.863349 140.237201 
L 305.545688 138.746335 
L 307.228028 137.7914 
L 308.910367 137.374739 
L 310.592707 137.575307 
L 312.275047 138.492906 
L 315.639726 141.633973 
L 317.322065 142.461985 
L 319.004405 141.877977 
L 320.686745 139.963687 
L 322.369084 137.603534 
L 324.051424 135.920446 
L 325.733763 135.426032 
L 327.416103 135.595003 
L 329.098442 135.220518 
L 330.780782 133.414537 
L 332.463122 130.520468 
L 334.145461 128.13067 
L 335.827801 128.162719 
L 337.51014 131.45042 
L 339.19248 136.926493 
L 340.87482 141.96141 
L 342.557159 143.692545 
L 344.239499 140.609056 
L 345.921838 133.296928 
L 347.604178 124.037254 
L 349.286517 115.672167 
L 350.968857 110.360687 
L 352.651197 109.011532 
L 354.333536 111.232858 
L 357.698215 120.011006 
L 359.380555 121.961806 
L 361.062895 119.362349 
L 362.745234 111.516638 
L 366.109913 88.312171 
L 367.792253 80.878162 
L 369.474593 80.384764 
L 371.156932 86.337191 
L 372.839272 94.971265 
L 374.521611 101.202164 
L 376.203951 101.345997 
L 377.88629 95.074759 
L 379.56863 85.360478 
L 381.25097 76.469687 
L 382.933309 71.475042 
L 384.615649 70.724036 
L 386.297988 72.232204 
L 387.980328 73.447035 
L 389.662668 73.043926 
L 391.345007 71.633356 
L 393.027347 70.980894 
L 394.709686 72.502493 
L 396.392026 76.140198 
L 398.074365 80.239612 
L 399.756705 82.543953 
L 401.439045 81.445567 
L 403.121384 76.816535 
L 406.486063 63.388129 
L 408.168403 58.762499 
L 409.850743 57.127001 
L 411.533082 58.131472 
L 413.215422 60.489994 
L 414.897761 62.656972 
L 416.580101 63.580058 
L 418.26244 63.099779 
L 421.62712 60.473135 
L 423.309459 59.691483 
L 424.991799 59.460714 
L 426.674138 59.560353 
L 428.356478 59.870281 
L 430.038818 60.585484 
L 431.721157 61.960864 
L 435.085836 65.660807 
L 436.768176 66.311495 
L 438.450516 65.217484 
L 441.815195 60.064206 
L 443.497534 58.748225 
L 445.179874 59.494222 
L 446.862213 61.689909 
L 448.544553 63.633016 
L 450.226893 63.413308 
L 451.909232 59.981163 
L 453.591572 53.690152 
L 455.273911 46.136747 
L 456.956251 39.450011 
L 458.638591 35.423829 
L 460.32093 35.01296 
L 462.00327 38.126137 
L 463.685609 43.795557 
L 465.367949 50.495473 
L 467.050288 56.536545 
L 468.732628 60.608628 
L 470.414968 62.182711 
L 472.097307 61.670409 
L 475.461986 58.826915 
L 477.144326 58.193574 
L 478.826666 58.048351 
L 480.509005 57.671756 
L 482.191345 56.565465 
L 483.873684 54.9617 
L 485.556024 53.836269 
L 487.238363 54.309953 
L 488.920703 56.859086 
L 492.285382 65.314567 
L 493.967722 68.555644 
L 495.650061 69.993746 
L 497.332401 69.846329 
L 499.014741 68.989337 
L 500.69708 68.38707 
L 502.37942 68.70479 
L 504.061759 70.262302 
L 505.744099 73.136402 
L 507.426439 77.263718 
L 510.791118 87.555804 
L 512.473457 91.870564 
L 514.155797 94.198584 
L 515.838136 93.996058 
L 517.520476 91.512764 
L 519.202816 87.584357 
L 522.567495 79.029461 
L 524.249834 75.477098 
L 525.932174 72.888031 
L 527.614514 71.768937 
L 529.296853 72.604405 
L 530.979193 75.332678 
L 532.661532 78.989441 
L 534.343872 82.00837 
L 536.026211 83.101336 
L 537.708551 82.254216 
L 539.390891 80.928888 
L 541.07323 81.225985 
L 542.75557 84.486269 
L 546.120249 96.243055 
L 547.802589 100.034725 
L 549.484928 100.279349 
L 551.167268 97.754097 
L 552.849607 94.755136 
L 554.531947 93.619374 
L 556.214286 95.309883 
L 559.578966 102.250907 
L 561.261305 103.124245 
L 561.261305 103.124245 
" style="fill: none; stroke: #1f77b4; stroke-width: 1.5; stroke-linecap: square"/>
   </g>
   <g id="line2d_18">
    <path d="M 44.783052 212.448744 
L 46.465392 208.827096 
L 48.147732 206.867808 
L 49.830071 206.731223 
L 51.512411 207.834141 
L 59.924109 215.698018 
L 61.606448 216.736162 
L 63.288788 216.605687 
L 64.971128 214.953458 
L 66.653467 211.972546 
L 70.018146 204.854654 
L 71.700486 202.194919 
L 73.382825 200.691768 
L 75.065165 200.413055 
L 76.747505 201.248463 
L 78.429844 202.937737 
L 81.794523 207.104901 
L 83.476863 208.760336 
L 85.159203 210.151146 
L 86.841542 211.897539 
L 88.523882 214.724115 
L 90.206221 218.848556 
L 91.888561 223.558273 
L 93.5709 227.343897 
L 95.25324 228.668248 
L 96.93558 226.88252 
L 98.617919 222.694663 
L 100.300259 217.807465 
L 101.982598 213.896085 
L 103.664938 211.621095 
L 105.347278 210.323915 
L 107.029617 208.632703 
L 108.711957 205.556066 
L 112.076636 197.021231 
L 113.758976 194.36499 
L 115.441315 194.051926 
L 117.123655 195.600066 
L 118.805994 197.646509 
L 120.488334 198.880341 
L 122.170673 198.86685 
L 123.853013 198.223221 
L 125.535353 198.085386 
L 127.217692 199.278425 
L 128.900032 201.806206 
L 130.582371 204.923886 
L 132.264711 207.682272 
L 133.947051 209.515926 
L 135.62939 210.447517 
L 142.358748 212.268801 
L 144.041088 212.498373 
L 145.723428 212.353941 
L 147.405767 211.862192 
L 154.135126 209.061839 
L 155.817465 208.832104 
L 157.499805 208.795639 
L 159.182144 208.605202 
L 160.864484 207.792611 
L 162.546823 206.062667 
L 165.911503 201.241855 
L 167.593842 200.040884 
L 169.276182 200.932708 
L 170.958521 204.185491 
L 172.640861 209.31963 
L 177.68788 227.311886 
L 181.052559 238.67551 
L 184.417238 251.222984 
L 186.099578 256.624593 
L 187.781917 259.606554 
L 189.464257 258.677009 
L 191.146596 252.933319 
L 192.828936 242.539848 
L 194.511276 228.885396 
L 196.193615 214.285173 
L 197.875955 201.290645 
L 199.558294 191.843753 
L 201.240634 186.674458 
L 202.922974 185.243919 
L 204.605313 186.201582 
L 207.969992 189.973703 
L 209.652332 191.4697 
L 213.017011 193.840079 
L 218.06403 197.22845 
L 223.111049 200.357139 
L 224.793388 201.168385 
L 226.475728 201.674957 
L 229.840407 202.228175 
L 231.522746 202.855769 
L 233.205086 204.020412 
L 234.887426 205.681068 
L 239.934444 211.417105 
L 241.616784 212.945012 
L 243.299124 213.934982 
L 244.981463 214.052565 
L 246.663803 213.035116 
L 248.346142 210.964199 
L 250.028482 208.444637 
L 251.710822 206.469544 
L 253.393161 205.99389 
L 255.075501 207.455541 
L 256.75784 210.509303 
L 258.44018 214.169748 
L 260.122519 217.248632 
L 261.804859 218.854971 
L 263.487199 218.70869 
L 265.169538 217.131668 
L 268.534217 212.473027 
L 270.216557 210.615041 
L 271.898897 209.410604 
L 273.581236 208.727438 
L 276.945915 207.741606 
L 280.310594 206.444141 
L 281.992934 206.240352 
L 283.675274 206.81616 
L 285.357613 208.295266 
L 287.039953 210.492135 
L 290.404632 215.568389 
L 292.086972 217.865005 
L 293.769311 219.83624 
L 295.451651 221.366683 
L 297.13399 222.2437 
L 298.81633 222.237048 
L 300.498669 221.313881 
L 303.863349 218.390554 
L 305.545688 217.677127 
L 307.228028 217.914634 
L 308.910367 218.758657 
L 310.592707 219.47063 
L 312.275047 219.346103 
L 313.957386 218.127752 
L 315.639726 216.099132 
L 317.322065 213.82995 
L 319.004405 211.784737 
L 329.098442 201.623893 
L 330.780782 200.752789 
L 332.463122 200.368141 
L 335.827801 200.057386 
L 337.51014 199.715266 
L 339.19248 199.138321 
L 340.87482 198.32974 
L 347.604178 194.464361 
L 350.968857 193.164671 
L 352.651197 191.978039 
L 354.333536 189.997846 
L 356.015876 187.262815 
L 359.380555 181.327362 
L 361.062895 179.097239 
L 362.745234 177.543282 
L 369.474593 172.936347 
L 372.839272 170.202513 
L 374.521611 168.644928 
L 377.88629 165.024625 
L 381.25097 161.520425 
L 382.933309 159.834664 
L 384.615649 157.936229 
L 387.980328 153.636211 
L 389.662668 152.113122 
L 391.345007 151.688496 
L 393.027347 152.375554 
L 394.709686 153.609465 
L 396.392026 154.584777 
L 398.074365 154.767704 
L 401.439045 153.62977 
L 403.121384 153.551018 
L 404.803724 154.210717 
L 406.486063 155.259769 
L 408.168403 156.150306 
L 409.850743 156.626106 
L 411.533082 156.945065 
L 413.215422 157.635754 
L 414.897761 158.96581 
L 416.580101 160.56584 
L 418.26244 161.544688 
L 419.94478 161.048972 
L 421.62712 158.888671 
L 424.991799 152.869572 
L 426.674138 151.182994 
L 428.356478 150.843757 
L 430.038818 151.096321 
L 431.721157 150.789036 
L 433.403497 149.097741 
L 435.085836 146.05882 
L 436.768176 142.563236 
L 438.450516 139.879929 
L 440.132855 139.000805 
L 441.815195 140.187124 
L 443.497534 142.935755 
L 445.179874 146.278547 
L 446.862213 149.257458 
L 448.544553 151.274555 
L 450.226893 152.197043 
L 451.909232 152.263844 
L 455.273911 151.446058 
L 456.956251 151.273377 
L 458.638591 151.545065 
L 460.32093 152.314012 
L 462.00327 153.499009 
L 465.367949 156.261277 
L 467.050288 157.33347 
L 468.732628 157.925704 
L 470.414968 157.903335 
L 472.097307 157.164964 
L 473.779647 155.664886 
L 475.461986 153.473301 
L 478.826666 148.391054 
L 480.509005 146.587206 
L 482.191345 145.828973 
L 483.873684 146.037751 
L 485.556024 146.701461 
L 487.238363 147.162321 
L 488.920703 146.980792 
L 490.603043 146.178064 
L 492.285382 145.145364 
L 493.967722 144.314284 
L 495.650061 143.855676 
L 500.69708 143.16325 
L 502.37942 143.159101 
L 504.061759 143.661625 
L 507.426439 145.66635 
L 509.108778 146.121927 
L 510.791118 145.683888 
L 514.155797 143.591281 
L 515.838136 143.227013 
L 517.520476 143.568604 
L 519.202816 144.076785 
L 520.885155 144.105956 
L 524.249834 142.921552 
L 525.932174 143.335009 
L 527.614514 145.388747 
L 530.979193 152.200769 
L 532.661532 154.296334 
L 534.343872 154.296109 
L 536.026211 152.552173 
L 537.708551 150.212377 
L 539.390891 148.424641 
L 541.07323 147.662272 
L 542.75557 147.640677 
L 547.802589 147.969994 
L 549.484928 148.743464 
L 551.167268 150.234372 
L 552.849607 151.882481 
L 554.531947 152.698779 
L 556.214286 151.900756 
L 557.896626 149.477519 
L 559.578966 146.261008 
L 561.261305 143.437711 
L 561.261305 143.437711 
" style="fill: none; stroke: #ff7f0e; stroke-width: 1.5; stroke-linecap: square"/>
   </g>
  </g>
  <g id="axes_2">
   <g id="PathCollection_1">
    <defs>
     <path id="C0_0_7b95a4a18c" d="M 0 1.118034 
C 0.296506 1.118034 0.580908 1.000231 0.790569 0.790569 
C 1.000231 0.580908 1.118034 0.296506 1.118034 -0 
C 1.118034 -0.296506 1.000231 -0.580908 0.790569 -0.790569 
C 0.580908 -1.000231 0.296506 -1.118034 0 -1.118034 
C -0.296506 -1.118034 -0.580908 -1.000231 -0.790569 -0.790569 
C -1.000231 -0.580908 -1.118034 -0.296506 -1.118034 0 
C -1.118034 0.296506 -1.000231 0.580908 -0.790569 0.790569 
C -0.580908 1.000231 -0.296506 1.118034 0 1.118034 
z
"/>
    </defs>
    <g clip-path="url(#p6b59f03821)">
     <use xlink:href="#C0_0_7b95a4a18c" x="483.602109" y="47.301477" style="stroke: #000000"/>
    </g>
    <g clip-path="url(#p6b59f03821)">
     <use xlink:href="#C0_0_7b95a4a18c" x="493.748589" y="47.289122" style="stroke: #000000"/>
    </g>
   </g>
   <g id="matplotlib.axis_3"/>
   <g id="matplotlib.axis_4"/>
   <g id="line2d_19">
    <path d="M 548.860095 73.636387 
L 548.782417 71.164635 
L 548.54969 68.702638 
L 548.162832 66.260111 
L 547.623369 63.846696 
L 546.933432 61.471916 
L 546.095742 59.145144 
L 545.113607 56.875562 
L 543.990901 54.672127 
L 542.732055 52.543535 
L 541.342038 50.498188 
L 539.826336 48.544156 
L 538.19093 46.689152 
L 536.442274 44.940496 
L 534.58727 43.30509 
L 532.633238 41.789388 
L 530.587891 40.399371 
L 528.459299 39.140526 
L 526.255865 38.017819 
L 523.986282 37.035684 
L 521.65951 36.197994 
L 519.28473 35.508057 
L 516.871315 34.968594 
L 514.428789 34.581736 
L 511.966791 34.349009 
L 509.495039 34.271331 
L 507.023286 34.349009 
L 504.561289 34.581736 
L 502.118763 34.968594 
L 499.705347 35.508057 
L 497.330567 36.197994 
L 495.003795 37.035684 
L 492.734213 38.017819 
L 490.530778 39.140526 
L 488.402187 40.399371 
L 486.356839 41.789388 
L 484.402808 43.30509 
L 482.547803 44.940496 
L 480.799148 46.689152 
L 479.163742 48.544156 
L 477.648039 50.498188 
L 476.258022 52.543535 
L 474.999177 54.672127 
L 473.876471 56.875562 
L 472.894335 59.145144 
L 472.056645 61.471916 
L 471.366708 63.846696 
L 470.827246 66.260111 
L 470.440388 68.702638 
L 470.20766 71.164635 
L 470.129982 73.636387 
L 470.20766 76.10814 
L 470.440388 78.570137 
L 470.827246 81.012663 
L 471.366708 83.426079 
L 472.056645 85.800859 
L 472.894335 88.127631 
L 473.876471 90.397213 
L 474.999177 92.600648 
L 476.258022 94.729239 
L 477.648039 96.774587 
L 479.163742 98.728619 
L 480.799148 100.583623 
L 482.547803 102.332278 
L 484.402808 103.967685 
L 486.356839 105.483387 
L 488.402187 106.873404 
L 490.530778 108.132249 
L 492.734213 109.254955 
L 495.003795 110.237091 
L 497.330567 111.074781 
L 499.705347 111.764718 
L 502.118763 112.30418 
L 504.561289 112.691038 
L 507.023286 112.923766 
L 509.495039 113.001444 
L 511.966791 112.923766 
L 514.428789 112.691038 
L 516.871315 112.30418 
L 519.28473 111.764718 
L 521.65951 111.074781 
L 523.986282 110.237091 
L 526.255865 109.254955 
L 528.459299 108.132249 
L 530.587891 106.873404 
L 532.633238 105.483387 
L 534.58727 103.967685 
L 536.442274 102.332278 
L 538.19093 100.583623 
L 539.826336 98.728619 
L 541.342038 96.774587 
L 542.732055 94.729239 
L 543.990901 92.600648 
L 545.113607 90.397213 
L 546.095742 88.127631 
L 546.933432 85.800859 
L 547.623369 83.426079 
L 548.162832 81.012663 
L 548.54969 78.570137 
L 548.782417 76.10814 
L 548.860095 73.636387 
" style="fill: none; stroke: #000000; stroke-linecap: square"/>
   </g>
   <g id="line2d_20">
    <path d="M 501.250441 35.144385 
L 509.495039 28.366573 
L 517.739637 35.144385 
" style="fill: none; stroke: #000000; stroke-linecap: square"/>
   </g>
   <g id="line2d_21">
    <path d="M 470.366173 69.266866 
L 469.342681 67.534804 
L 468.71284 67.47182 
L 467.775952 67.763121 
L 466.831191 69.266866 
L 466.980778 74.069403 
L 466.429667 80.974034 
L 467.610619 83.973651 
L 469.342681 84.532635 
L 470.996014 83.076128 
" style="fill: none; stroke: #000000; stroke-linecap: square"/>
   </g>
   <g id="line2d_22">
    <path d="M 548.623905 69.266866 
L 549.647396 67.534804 
L 550.277237 67.47182 
L 551.214125 67.763121 
L 552.158887 69.266866 
L 552.0093 74.069403 
L 552.56041 80.974034 
L 551.379459 83.973651 
L 549.647396 84.532635 
L 547.994064 83.076128 
" style="fill: none; stroke: #000000; stroke-linecap: square"/>
   </g>
  </g>
 </g>
 <defs>
  <clipPath id="p0ef7f8b71b">
   <rect x="44.783053" y="18.118365" width="517.083895" height="380.525145"/>
  </clipPath>
  <clipPath id="p6b59f03821">
   <rect x="462.12313" y="24.134829" width="94.743817" height="93.098358"/>
  </clipPath>
 </defs>
</svg>
