<?xml version="1.0" encoding="utf-8" standalone="no"?>
<!DOCTYPE svg PUBLIC "-//W3C//DTD SVG 1.1//EN"
  "http://www.w3.org/Graphics/SVG/1.1/DTD/svg11.dtd">
<svg xmlns:xlink="http://www.w3.org/1999/xlink" width="576pt" height="432pt" viewBox="0 0 576 432" xmlns="http://www.w3.org/2000/svg" version="1.1">
 <metadata>
  <rdf:RDF xmlns:dc="http://purl.org/dc/elements/1.1/" xmlns:cc="http://creativecommons.org/ns#" xmlns:rdf="http://www.w3.org/1999/02/22-rdf-syntax-ns#">
   <cc:Work>
    <dc:type rdf:resource="http://purl.org/dc/dcmitype/StillImage"/>
    <dc:date>2025-02-17T18:06:49.453052</dc:date>
    <dc:format>image/svg+xml</dc:format>
    <dc:creator>
     <cc:Agent>
      <dc:title>Matplotlib v3.10.0, https://matplotlib.org/</dc:title>
     </cc:Agent>
    </dc:creator>
   </cc:Work>
  </rdf:RDF>
 </metadata>
 <defs>
  <style type="text/css">*{stroke-linejoin: round; stroke-linecap: butt}</style>
 </defs>
 <g id="figure_1">
  <g id="patch_1">
   <path d="M 0 432 
L 576 432 
L 576 0 
L 0 0 
z
" style="fill: #ffffff"/>
  </g>
  <g id="axes_1">
   <g id="patch_2">
    <path d="M 38.420552 398.64351 
L 561.866948 398.64351 
L 561.866948 18.118365 
L 38.420552 18.118365 
L 38.420552 398.64351 
z
" style="fill: none; opacity: 0"/>
   </g>
   <g id="patch_3">
    <path d="M 38.420552 370.641704 
L 38.420552 46.120171 
" style="fill: none; stroke: #000000; stroke-width: 0.8; stroke-linejoin: miter; stroke-linecap: square"/>
   </g>
   <g id="LineCollection_1">
    <path d="M 182.565864 18.118365 
L 182.565864 398.64351 
" clip-path="url(#p4c3bace445)" style="fill: none; stroke-dasharray: 3.7,1.6; stroke-dashoffset: 0; stroke: #000000"/>
    <path d="M 213.084342 18.118365 
L 213.084342 398.64351 
" clip-path="url(#p4c3bace445)" style="fill: none; stroke-dasharray: 3.7,1.6; stroke-dashoffset: 0; stroke: #000000"/>
   </g>
   <g id="matplotlib.axis_1">
    <g id="xtick_1">
     <g id="line2d_1">
      <defs>
       <path id="mb5959a5f9c" d="M 0 0 
L 0 3.5 
" style="stroke: #000000; stroke-width: 0.8"/>
      </defs>
      <g>
       <use xlink:href="#mb5959a5f9c" x="38.693039" y="398.64351" style="stroke: #000000; stroke-width: 0.8"/>
      </g>
     </g>
     <g id="text_1">
      <!-- −0.20 -->
      <g transform="translate(23.370383 413.241947) scale(0.1 -0.1)">
       <defs>
        <path id="DejaVuSans-2212" d="M 678 2272 
L 4684 2272 
L 4684 1741 
L 678 1741 
L 678 2272 
z
" transform="scale(0.015625)"/>
        <path id="DejaVuSans-30" d="M 2034 4250 
Q 1547 4250 1301 3770 
Q 1056 3291 1056 2328 
Q 1056 1369 1301 889 
Q 1547 409 2034 409 
Q 2525 409 2770 889 
Q 3016 1369 3016 2328 
Q 3016 3291 2770 3770 
Q 2525 4250 2034 4250 
z
M 2034 4750 
Q 2819 4750 3233 4129 
Q 3647 3509 3647 2328 
Q 3647 1150 3233 529 
Q 2819 -91 2034 -91 
Q 1250 -91 836 529 
Q 422 1150 422 2328 
Q 422 3509 836 4129 
Q 1250 4750 2034 4750 
z
" transform="scale(0.015625)"/>
        <path id="DejaVuSans-2e" d="M 684 794 
L 1344 794 
L 1344 0 
L 684 0 
L 684 794 
z
" transform="scale(0.015625)"/>
        <path id="DejaVuSans-32" d="M 1228 531 
L 3431 531 
L 3431 0 
L 469 0 
L 469 531 
Q 828 903 1448 1529 
Q 2069 2156 2228 2338 
Q 2531 2678 2651 2914 
Q 2772 3150 2772 3378 
Q 2772 3750 2511 3984 
Q 2250 4219 1831 4219 
Q 1534 4219 1204 4116 
Q 875 4013 500 3803 
L 500 4441 
Q 881 4594 1212 4672 
Q 1544 4750 1819 4750 
Q 2544 4750 2975 4387 
Q 3406 4025 3406 3419 
Q 3406 3131 3298 2873 
Q 3191 2616 2906 2266 
Q 2828 2175 2409 1742 
Q 1991 1309 1228 531 
z
" transform="scale(0.015625)"/>
       </defs>
       <use xlink:href="#DejaVuSans-2212"/>
       <use xlink:href="#DejaVuSans-30" transform="translate(83.789062 0)"/>
       <use xlink:href="#DejaVuSans-2e" transform="translate(147.412109 0)"/>
       <use xlink:href="#DejaVuSans-32" transform="translate(179.199219 0)"/>
       <use xlink:href="#DejaVuSans-30" transform="translate(242.822266 0)"/>
      </g>
     </g>
    </g>
    <g id="xtick_2">
     <g id="line2d_2">
      <g>
       <use xlink:href="#mb5959a5f9c" x="125.88869" y="398.64351" style="stroke: #000000; stroke-width: 0.8"/>
      </g>
     </g>
     <g id="text_2">
      <!-- 0.00 -->
      <g transform="translate(114.755878 413.241947) scale(0.1 -0.1)">
       <use xlink:href="#DejaVuSans-30"/>
       <use xlink:href="#DejaVuSans-2e" transform="translate(63.623047 0)"/>
       <use xlink:href="#DejaVuSans-30" transform="translate(95.410156 0)"/>
       <use xlink:href="#DejaVuSans-30" transform="translate(159.033203 0)"/>
      </g>
     </g>
    </g>
    <g id="xtick_3">
     <g id="line2d_3">
      <g>
       <use xlink:href="#mb5959a5f9c" x="182.565864" y="398.64351" style="stroke: #000000; stroke-width: 0.8"/>
      </g>
     </g>
     <g id="text_3">
      <!-- 0.13 -->
      <g transform="translate(171.433051 413.241947) scale(0.1 -0.1)">
       <defs>
        <path id="DejaVuSans-31" d="M 794 531 
L 1825 531 
L 1825 4091 
L 703 3866 
L 703 4441 
L 1819 4666 
L 2450 4666 
L 2450 531 
L 3481 531 
L 3481 0 
L 794 0 
L 794 531 
z
" transform="scale(0.015625)"/>
        <path id="DejaVuSans-33" d="M 2597 2516 
Q 3050 2419 3304 2112 
Q 3559 1806 3559 1356 
Q 3559 666 3084 287 
Q 2609 -91 1734 -91 
Q 1441 -91 1130 -33 
Q 819 25 488 141 
L 488 750 
Q 750 597 1062 519 
Q 1375 441 1716 441 
Q 2309 441 2620 675 
Q 2931 909 2931 1356 
Q 2931 1769 2642 2001 
Q 2353 2234 1838 2234 
L 1294 2234 
L 1294 2753 
L 1863 2753 
Q 2328 2753 2575 2939 
Q 2822 3125 2822 3475 
Q 2822 3834 2567 4026 
Q 2313 4219 1838 4219 
Q 1578 4219 1281 4162 
Q 984 4106 628 3988 
L 628 4550 
Q 988 4650 1302 4700 
Q 1616 4750 1894 4750 
Q 2613 4750 3031 4423 
Q 3450 4097 3450 3541 
Q 3450 3153 3228 2886 
Q 3006 2619 2597 2516 
z
" transform="scale(0.015625)"/>
       </defs>
       <use xlink:href="#DejaVuSans-30"/>
       <use xlink:href="#DejaVuSans-2e" transform="translate(63.623047 0)"/>
       <use xlink:href="#DejaVuSans-31" transform="translate(95.410156 0)"/>
       <use xlink:href="#DejaVuSans-33" transform="translate(159.033203 0)"/>
      </g>
     </g>
    </g>
    <g id="xtick_4">
     <g id="line2d_4">
      <g>
       <use xlink:href="#mb5959a5f9c" x="213.084342" y="398.64351" style="stroke: #000000; stroke-width: 0.8"/>
      </g>
     </g>
     <g id="text_4">
      <!-- 0.20 -->
      <g transform="translate(201.951529 413.241947) scale(0.1 -0.1)">
       <use xlink:href="#DejaVuSans-30"/>
       <use xlink:href="#DejaVuSans-2e" transform="translate(63.623047 0)"/>
       <use xlink:href="#DejaVuSans-32" transform="translate(95.410156 0)"/>
       <use xlink:href="#DejaVuSans-30" transform="translate(159.033203 0)"/>
      </g>
     </g>
    </g>
    <g id="xtick_5">
     <g id="line2d_5">
      <g>
       <use xlink:href="#mb5959a5f9c" x="213.084342" y="398.64351" style="stroke: #000000; stroke-width: 0.8"/>
      </g>
     </g>
     <g id="text_5">
      <!-- 0.20 -->
      <g transform="translate(201.951529 413.241947) scale(0.1 -0.1)">
       <use xlink:href="#DejaVuSans-30"/>
       <use xlink:href="#DejaVuSans-2e" transform="translate(63.623047 0)"/>
       <use xlink:href="#DejaVuSans-32" transform="translate(95.410156 0)"/>
       <use xlink:href="#DejaVuSans-30" transform="translate(159.033203 0)"/>
      </g>
     </g>
    </g>
    <g id="xtick_6">
     <g id="line2d_6">
      <g>
       <use xlink:href="#mb5959a5f9c" x="300.279993" y="398.64351" style="stroke: #000000; stroke-width: 0.8"/>
      </g>
     </g>
     <g id="text_6">
      <!-- 0.40 -->
      <g transform="translate(289.147181 413.241947) scale(0.1 -0.1)">
       <defs>
        <path id="DejaVuSans-34" d="M 2419 4116 
L 825 1625 
L 2419 1625 
L 2419 4116 
z
M 2253 4666 
L 3047 4666 
L 3047 1625 
L 3713 1625 
L 3713 1100 
L 3047 1100 
L 3047 0 
L 2419 0 
L 2419 1100 
L 313 1100 
L 313 1709 
L 2253 4666 
z
" transform="scale(0.015625)"/>
       </defs>
       <use xlink:href="#DejaVuSans-30"/>
       <use xlink:href="#DejaVuSans-2e" transform="translate(63.623047 0)"/>
       <use xlink:href="#DejaVuSans-34" transform="translate(95.410156 0)"/>
       <use xlink:href="#DejaVuSans-30" transform="translate(159.033203 0)"/>
      </g>
     </g>
    </g>
    <g id="xtick_7">
     <g id="line2d_7">
      <g>
       <use xlink:href="#mb5959a5f9c" x="387.475645" y="398.64351" style="stroke: #000000; stroke-width: 0.8"/>
      </g>
     </g>
     <g id="text_7">
      <!-- 0.60 -->
      <g transform="translate(376.342832 413.241947) scale(0.1 -0.1)">
       <defs>
        <path id="DejaVuSans-36" d="M 2113 2584 
Q 1688 2584 1439 2293 
Q 1191 2003 1191 1497 
Q 1191 994 1439 701 
Q 1688 409 2113 409 
Q 2538 409 2786 701 
Q 3034 994 3034 1497 
Q 3034 2003 2786 2293 
Q 2538 2584 2113 2584 
z
M 3366 4563 
L 3366 3988 
Q 3128 4100 2886 4159 
Q 2644 4219 2406 4219 
Q 1781 4219 1451 3797 
Q 1122 3375 1075 2522 
Q 1259 2794 1537 2939 
Q 1816 3084 2150 3084 
Q 2853 3084 3261 2657 
Q 3669 2231 3669 1497 
Q 3669 778 3244 343 
Q 2819 -91 2113 -91 
Q 1303 -91 875 529 
Q 447 1150 447 2328 
Q 447 3434 972 4092 
Q 1497 4750 2381 4750 
Q 2619 4750 2861 4703 
Q 3103 4656 3366 4563 
z
" transform="scale(0.015625)"/>
       </defs>
       <use xlink:href="#DejaVuSans-30"/>
       <use xlink:href="#DejaVuSans-2e" transform="translate(63.623047 0)"/>
       <use xlink:href="#DejaVuSans-36" transform="translate(95.410156 0)"/>
       <use xlink:href="#DejaVuSans-30" transform="translate(159.033203 0)"/>
      </g>
     </g>
    </g>
    <g id="xtick_8">
     <g id="line2d_8">
      <g>
       <use xlink:href="#mb5959a5f9c" x="474.671296" y="398.64351" style="stroke: #000000; stroke-width: 0.8"/>
      </g>
     </g>
     <g id="text_8">
      <!-- 0.80 -->
      <g transform="translate(463.538484 413.241947) scale(0.1 -0.1)">
       <defs>
        <path id="DejaVuSans-38" d="M 2034 2216 
Q 1584 2216 1326 1975 
Q 1069 1734 1069 1313 
Q 1069 891 1326 650 
Q 1584 409 2034 409 
Q 2484 409 2743 651 
Q 3003 894 3003 1313 
Q 3003 1734 2745 1975 
Q 2488 2216 2034 2216 
z
M 1403 2484 
Q 997 2584 770 2862 
Q 544 3141 544 3541 
Q 544 4100 942 4425 
Q 1341 4750 2034 4750 
Q 2731 4750 3128 4425 
Q 3525 4100 3525 3541 
Q 3525 3141 3298 2862 
Q 3072 2584 2669 2484 
Q 3125 2378 3379 2068 
Q 3634 1759 3634 1313 
Q 3634 634 3220 271 
Q 2806 -91 2034 -91 
Q 1263 -91 848 271 
Q 434 634 434 1313 
Q 434 1759 690 2068 
Q 947 2378 1403 2484 
z
M 1172 3481 
Q 1172 3119 1398 2916 
Q 1625 2713 2034 2713 
Q 2441 2713 2670 2916 
Q 2900 3119 2900 3481 
Q 2900 3844 2670 4047 
Q 2441 4250 2034 4250 
Q 1625 4250 1398 4047 
Q 1172 3844 1172 3481 
z
" transform="scale(0.015625)"/>
       </defs>
       <use xlink:href="#DejaVuSans-30"/>
       <use xlink:href="#DejaVuSans-2e" transform="translate(63.623047 0)"/>
       <use xlink:href="#DejaVuSans-38" transform="translate(95.410156 0)"/>
       <use xlink:href="#DejaVuSans-30" transform="translate(159.033203 0)"/>
      </g>
     </g>
    </g>
    <g id="xtick_9">
     <g id="line2d_9">
      <g>
       <use xlink:href="#mb5959a5f9c" x="561.866948" y="398.64351" style="stroke: #000000; stroke-width: 0.8"/>
      </g>
     </g>
     <g id="text_9">
      <!-- 1.00 -->
      <g transform="translate(550.734135 413.241947) scale(0.1 -0.1)">
       <use xlink:href="#DejaVuSans-31"/>
       <use xlink:href="#DejaVuSans-2e" transform="translate(63.623047 0)"/>
       <use xlink:href="#DejaVuSans-30" transform="translate(95.410156 0)"/>
       <use xlink:href="#DejaVuSans-30" transform="translate(159.033203 0)"/>
      </g>
     </g>
    </g>
    <g id="text_10">
     <!-- Time (s) -->
     <g transform="translate(279.814844 426.920073) scale(0.1 -0.1)">
      <defs>
       <path id="DejaVuSans-54" d="M -19 4666 
L 3928 4666 
L 3928 4134 
L 2272 4134 
L 2272 0 
L 1638 0 
L 1638 4134 
L -19 4134 
L -19 4666 
z
" transform="scale(0.015625)"/>
       <path id="DejaVuSans-69" d="M 603 3500 
L 1178 3500 
L 1178 0 
L 603 0 
L 603 3500 
z
M 603 4863 
L 1178 4863 
L 1178 4134 
L 603 4134 
L 603 4863 
z
" transform="scale(0.015625)"/>
       <path id="DejaVuSans-6d" d="M 3328 2828 
Q 3544 3216 3844 3400 
Q 4144 3584 4550 3584 
Q 5097 3584 5394 3201 
Q 5691 2819 5691 2113 
L 5691 0 
L 5113 0 
L 5113 2094 
Q 5113 2597 4934 2840 
Q 4756 3084 4391 3084 
Q 3944 3084 3684 2787 
Q 3425 2491 3425 1978 
L 3425 0 
L 2847 0 
L 2847 2094 
Q 2847 2600 2669 2842 
Q 2491 3084 2119 3084 
Q 1678 3084 1418 2786 
Q 1159 2488 1159 1978 
L 1159 0 
L 581 0 
L 581 3500 
L 1159 3500 
L 1159 2956 
Q 1356 3278 1631 3431 
Q 1906 3584 2284 3584 
Q 2666 3584 2933 3390 
Q 3200 3197 3328 2828 
z
" transform="scale(0.015625)"/>
       <path id="DejaVuSans-65" d="M 3597 1894 
L 3597 1613 
L 953 1613 
Q 991 1019 1311 708 
Q 1631 397 2203 397 
Q 2534 397 2845 478 
Q 3156 559 3463 722 
L 3463 178 
Q 3153 47 2828 -22 
Q 2503 -91 2169 -91 
Q 1331 -91 842 396 
Q 353 884 353 1716 
Q 353 2575 817 3079 
Q 1281 3584 2069 3584 
Q 2775 3584 3186 3129 
Q 3597 2675 3597 1894 
z
M 3022 2063 
Q 3016 2534 2758 2815 
Q 2500 3097 2075 3097 
Q 1594 3097 1305 2825 
Q 1016 2553 972 2059 
L 3022 2063 
z
" transform="scale(0.015625)"/>
       <path id="DejaVuSans-20" transform="scale(0.015625)"/>
       <path id="DejaVuSans-28" d="M 1984 4856 
Q 1566 4138 1362 3434 
Q 1159 2731 1159 2009 
Q 1159 1288 1364 580 
Q 1569 -128 1984 -844 
L 1484 -844 
Q 1016 -109 783 600 
Q 550 1309 550 2009 
Q 550 2706 781 3412 
Q 1013 4119 1484 4856 
L 1984 4856 
z
" transform="scale(0.015625)"/>
       <path id="DejaVuSans-73" d="M 2834 3397 
L 2834 2853 
Q 2591 2978 2328 3040 
Q 2066 3103 1784 3103 
Q 1356 3103 1142 2972 
Q 928 2841 928 2578 
Q 928 2378 1081 2264 
Q 1234 2150 1697 2047 
L 1894 2003 
Q 2506 1872 2764 1633 
Q 3022 1394 3022 966 
Q 3022 478 2636 193 
Q 2250 -91 1575 -91 
Q 1294 -91 989 -36 
Q 684 19 347 128 
L 347 722 
Q 666 556 975 473 
Q 1284 391 1588 391 
Q 1994 391 2212 530 
Q 2431 669 2431 922 
Q 2431 1156 2273 1281 
Q 2116 1406 1581 1522 
L 1381 1569 
Q 847 1681 609 1914 
Q 372 2147 372 2553 
Q 372 3047 722 3315 
Q 1072 3584 1716 3584 
Q 2034 3584 2315 3537 
Q 2597 3491 2834 3397 
z
" transform="scale(0.015625)"/>
       <path id="DejaVuSans-29" d="M 513 4856 
L 1013 4856 
Q 1481 4119 1714 3412 
Q 1947 2706 1947 2009 
Q 1947 1309 1714 600 
Q 1481 -109 1013 -844 
L 513 -844 
Q 928 -128 1133 580 
Q 1338 1288 1338 2009 
Q 1338 2731 1133 3434 
Q 928 4138 513 4856 
z
" transform="scale(0.015625)"/>
      </defs>
      <use xlink:href="#DejaVuSans-54"/>
      <use xlink:href="#DejaVuSans-69" transform="translate(57.958984 0)"/>
      <use xlink:href="#DejaVuSans-6d" transform="translate(85.742188 0)"/>
      <use xlink:href="#DejaVuSans-65" transform="translate(183.154297 0)"/>
      <use xlink:href="#DejaVuSans-20" transform="translate(244.677734 0)"/>
      <use xlink:href="#DejaVuSans-28" transform="translate(276.464844 0)"/>
      <use xlink:href="#DejaVuSans-73" transform="translate(315.478516 0)"/>
      <use xlink:href="#DejaVuSans-29" transform="translate(367.578125 0)"/>
     </g>
    </g>
   </g>
   <g id="matplotlib.axis_2">
    <g id="ytick_1">
     <g id="line2d_10">
      <defs>
       <path id="m817407a58d" d="M 0 0 
L -3.5 0 
" style="stroke: #000000; stroke-width: 0.8"/>
      </defs>
      <g>
       <use xlink:href="#m817407a58d" x="38.420552" y="370.641704" style="stroke: #000000; stroke-width: 0.8"/>
      </g>
     </g>
     <g id="text_11">
      <!-- −6 -->
      <g transform="translate(16.678365 374.440922) scale(0.1 -0.1)">
       <use xlink:href="#DejaVuSans-2212"/>
       <use xlink:href="#DejaVuSans-36" transform="translate(83.789062 0)"/>
      </g>
     </g>
    </g>
    <g id="ytick_2">
     <g id="line2d_11">
      <g>
       <use xlink:href="#m817407a58d" x="38.420552" y="316.554782" style="stroke: #000000; stroke-width: 0.8"/>
      </g>
     </g>
     <g id="text_12">
      <!-- −4 -->
      <g transform="translate(16.678365 320.354) scale(0.1 -0.1)">
       <use xlink:href="#DejaVuSans-2212"/>
       <use xlink:href="#DejaVuSans-34" transform="translate(83.789062 0)"/>
      </g>
     </g>
    </g>
    <g id="ytick_3">
     <g id="line2d_12">
      <g>
       <use xlink:href="#m817407a58d" x="38.420552" y="262.46786" style="stroke: #000000; stroke-width: 0.8"/>
      </g>
     </g>
     <g id="text_13">
      <!-- −2 -->
      <g transform="translate(16.678365 266.267078) scale(0.1 -0.1)">
       <use xlink:href="#DejaVuSans-2212"/>
       <use xlink:href="#DejaVuSans-32" transform="translate(83.789062 0)"/>
      </g>
     </g>
    </g>
    <g id="ytick_4">
     <g id="line2d_13">
      <g>
       <use xlink:href="#m817407a58d" x="38.420552" y="208.380937" style="stroke: #000000; stroke-width: 0.8"/>
      </g>
     </g>
     <g id="text_14">
      <!-- 0 -->
      <g transform="translate(25.058052 212.180156) scale(0.1 -0.1)">
       <use xlink:href="#DejaVuSans-30"/>
      </g>
     </g>
    </g>
    <g id="ytick_5">
     <g id="line2d_14">
      <g>
       <use xlink:href="#m817407a58d" x="38.420552" y="154.294015" style="stroke: #000000; stroke-width: 0.8"/>
      </g>
     </g>
     <g id="text_15">
      <!-- 2 -->
      <g transform="translate(25.058052 158.093234) scale(0.1 -0.1)">
       <use xlink:href="#DejaVuSans-32"/>
      </g>
     </g>
    </g>
    <g id="ytick_6">
     <g id="line2d_15">
      <g>
       <use xlink:href="#m817407a58d" x="38.420552" y="100.207093" style="stroke: #000000; stroke-width: 0.8"/>
      </g>
     </g>
     <g id="text_16">
      <!-- 4 -->
      <g transform="translate(25.058052 104.006312) scale(0.1 -0.1)">
       <use xlink:href="#DejaVuSans-34"/>
      </g>
     </g>
    </g>
    <g id="ytick_7">
     <g id="line2d_16">
      <g>
       <use xlink:href="#m817407a58d" x="38.420552" y="46.120171" style="stroke: #000000; stroke-width: 0.8"/>
      </g>
     </g>
     <g id="text_17">
      <!-- 6 -->
      <g transform="translate(25.058052 49.91939) scale(0.1 -0.1)">
       <use xlink:href="#DejaVuSans-36"/>
      </g>
     </g>
    </g>
    <g id="text_18">
     <!-- µV -->
     <g transform="translate(10.598677 214.9825) rotate(-90) scale(0.1 -0.1)">
      <defs>
       <path id="DejaVuSans-b5" d="M 544 -1331 
L 544 3500 
L 1119 3500 
L 1119 1325 
Q 1119 872 1334 640 
Q 1550 409 1972 409 
Q 2434 409 2667 671 
Q 2900 934 2900 1459 
L 2900 3500 
L 3475 3500 
L 3475 806 
Q 3475 619 3529 530 
Q 3584 441 3700 441 
Q 3728 441 3778 458 
Q 3828 475 3916 513 
L 3916 50 
Q 3788 -22 3673 -56 
Q 3559 -91 3450 -91 
Q 3234 -91 3106 31 
Q 2978 153 2931 403 
Q 2775 156 2548 32 
Q 2322 -91 2016 -91 
Q 1697 -91 1473 31 
Q 1250 153 1119 397 
L 1119 -1331 
L 544 -1331 
z
" transform="scale(0.015625)"/>
       <path id="DejaVuSans-56" d="M 1831 0 
L 50 4666 
L 709 4666 
L 2188 738 
L 3669 4666 
L 4325 4666 
L 2547 0 
L 1831 0 
z
" transform="scale(0.015625)"/>
      </defs>
      <use xlink:href="#DejaVuSans-b5"/>
      <use xlink:href="#DejaVuSans-56" transform="translate(63.623047 0)"/>
     </g>
    </g>
   </g>
   <g id="patch_4">
    <path d="M 38.693039 398.64351 
L 561.866948 398.64351 
" style="fill: none; stroke: #000000; stroke-width: 0.8; stroke-linejoin: miter; stroke-linecap: square"/>
   </g>
   <g id="patch_5">
    <path d="M 38.420552 208.380937 
L 561.866948 208.380937 
" style="fill: none; stroke: #000000; stroke-width: 0.8; stroke-linejoin: miter; stroke-linecap: square"/>
   </g>
   <g id="text_19">
    <!-- P7, P8 (median) -->
    <g transform="translate(252.379063 12.118365) scale(0.12 -0.12)">
     <defs>
      <path id="DejaVuSans-50" d="M 1259 4147 
L 1259 2394 
L 2053 2394 
Q 2494 2394 2734 2622 
Q 2975 2850 2975 3272 
Q 2975 3691 2734 3919 
Q 2494 4147 2053 4147 
L 1259 4147 
z
M 628 4666 
L 2053 4666 
Q 2838 4666 3239 4311 
Q 3641 3956 3641 3272 
Q 3641 2581 3239 2228 
Q 2838 1875 2053 1875 
L 1259 1875 
L 1259 0 
L 628 0 
L 628 4666 
z
" transform="scale(0.015625)"/>
      <path id="DejaVuSans-37" d="M 525 4666 
L 3525 4666 
L 3525 4397 
L 1831 0 
L 1172 0 
L 2766 4134 
L 525 4134 
L 525 4666 
z
" transform="scale(0.015625)"/>
      <path id="DejaVuSans-2c" d="M 750 794 
L 1409 794 
L 1409 256 
L 897 -744 
L 494 -744 
L 750 256 
L 750 794 
z
" transform="scale(0.015625)"/>
      <path id="DejaVuSans-64" d="M 2906 2969 
L 2906 4863 
L 3481 4863 
L 3481 0 
L 2906 0 
L 2906 525 
Q 2725 213 2448 61 
Q 2172 -91 1784 -91 
Q 1150 -91 751 415 
Q 353 922 353 1747 
Q 353 2572 751 3078 
Q 1150 3584 1784 3584 
Q 2172 3584 2448 3432 
Q 2725 3281 2906 2969 
z
M 947 1747 
Q 947 1113 1208 752 
Q 1469 391 1925 391 
Q 2381 391 2643 752 
Q 2906 1113 2906 1747 
Q 2906 2381 2643 2742 
Q 2381 3103 1925 3103 
Q 1469 3103 1208 2742 
Q 947 2381 947 1747 
z
" transform="scale(0.015625)"/>
      <path id="DejaVuSans-61" d="M 2194 1759 
Q 1497 1759 1228 1600 
Q 959 1441 959 1056 
Q 959 750 1161 570 
Q 1363 391 1709 391 
Q 2188 391 2477 730 
Q 2766 1069 2766 1631 
L 2766 1759 
L 2194 1759 
z
M 3341 1997 
L 3341 0 
L 2766 0 
L 2766 531 
Q 2569 213 2275 61 
Q 1981 -91 1556 -91 
Q 1019 -91 701 211 
Q 384 513 384 1019 
Q 384 1609 779 1909 
Q 1175 2209 1959 2209 
L 2766 2209 
L 2766 2266 
Q 2766 2663 2505 2880 
Q 2244 3097 1772 3097 
Q 1472 3097 1187 3025 
Q 903 2953 641 2809 
L 641 3341 
Q 956 3463 1253 3523 
Q 1550 3584 1831 3584 
Q 2591 3584 2966 3190 
Q 3341 2797 3341 1997 
z
" transform="scale(0.015625)"/>
      <path id="DejaVuSans-6e" d="M 3513 2113 
L 3513 0 
L 2938 0 
L 2938 2094 
Q 2938 2591 2744 2837 
Q 2550 3084 2163 3084 
Q 1697 3084 1428 2787 
Q 1159 2491 1159 1978 
L 1159 0 
L 581 0 
L 581 3500 
L 1159 3500 
L 1159 2956 
Q 1366 3272 1645 3428 
Q 1925 3584 2291 3584 
Q 2894 3584 3203 3211 
Q 3513 2838 3513 2113 
z
" transform="scale(0.015625)"/>
     </defs>
     <use xlink:href="#DejaVuSans-50"/>
     <use xlink:href="#DejaVuSans-37" transform="translate(60.302734 0)"/>
     <use xlink:href="#DejaVuSans-2c" transform="translate(123.925781 0)"/>
     <use xlink:href="#DejaVuSans-20" transform="translate(155.712891 0)"/>
     <use xlink:href="#DejaVuSans-50" transform="translate(187.5 0)"/>
     <use xlink:href="#DejaVuSans-38" transform="translate(247.802734 0)"/>
     <use xlink:href="#DejaVuSans-20" transform="translate(311.425781 0)"/>
     <use xlink:href="#DejaVuSans-28" transform="translate(343.212891 0)"/>
     <use xlink:href="#DejaVuSans-6d" transform="translate(382.226562 0)"/>
     <use xlink:href="#DejaVuSans-65" transform="translate(479.638672 0)"/>
     <use xlink:href="#DejaVuSans-64" transform="translate(541.162109 0)"/>
     <use xlink:href="#DejaVuSans-69" transform="translate(604.638672 0)"/>
     <use xlink:href="#DejaVuSans-61" transform="translate(632.421875 0)"/>
     <use xlink:href="#DejaVuSans-6e" transform="translate(693.701172 0)"/>
     <use xlink:href="#DejaVuSans-29" transform="translate(757.080078 0)"/>
    </g>
   </g>
   <g id="legend_1">
    <g id="patch_6">
     <path d="M 45.420552 55.75274 
L 126.56274 55.75274 
Q 128.56274 55.75274 128.56274 53.75274 
L 128.56274 25.118365 
Q 128.56274 23.118365 126.56274 23.118365 
L 45.420552 23.118365 
Q 43.420552 23.118365 43.420552 25.118365 
L 43.420552 53.75274 
Q 43.420552 55.75274 45.420552 55.75274 
z
" style="fill: #ffffff; opacity: 0.8; stroke: #cccccc; stroke-linejoin: miter"/>
    </g>
    <g id="line2d_17">
     <path d="M 47.420552 31.216803 
L 57.420552 31.216803 
L 67.420552 31.216803 
" style="fill: none; stroke: #1f77b4; stroke-width: 1.5; stroke-linecap: square"/>
    </g>
    <g id="text_20">
     <!-- eerie -->
     <g transform="translate(75.420552 34.716803) scale(0.1 -0.1)">
      <defs>
       <path id="DejaVuSans-72" d="M 2631 2963 
Q 2534 3019 2420 3045 
Q 2306 3072 2169 3072 
Q 1681 3072 1420 2755 
Q 1159 2438 1159 1844 
L 1159 0 
L 581 0 
L 581 3500 
L 1159 3500 
L 1159 2956 
Q 1341 3275 1631 3429 
Q 1922 3584 2338 3584 
Q 2397 3584 2469 3576 
Q 2541 3569 2628 3553 
L 2631 2963 
z
" transform="scale(0.015625)"/>
      </defs>
      <use xlink:href="#DejaVuSans-65"/>
      <use xlink:href="#DejaVuSans-65" transform="translate(61.523438 0)"/>
      <use xlink:href="#DejaVuSans-72" transform="translate(123.046875 0)"/>
      <use xlink:href="#DejaVuSans-69" transform="translate(164.160156 0)"/>
      <use xlink:href="#DejaVuSans-65" transform="translate(191.943359 0)"/>
     </g>
    </g>
    <g id="line2d_18">
     <path d="M 47.420552 45.894928 
L 57.420552 45.894928 
L 67.420552 45.894928 
" style="fill: none; stroke: #ff7f0e; stroke-width: 1.5; stroke-linecap: square"/>
    </g>
    <g id="text_21">
     <!-- non_eerie -->
     <g transform="translate(75.420552 49.394928) scale(0.1 -0.1)">
      <defs>
       <path id="DejaVuSans-6f" d="M 1959 3097 
Q 1497 3097 1228 2736 
Q 959 2375 959 1747 
Q 959 1119 1226 758 
Q 1494 397 1959 397 
Q 2419 397 2687 759 
Q 2956 1122 2956 1747 
Q 2956 2369 2687 2733 
Q 2419 3097 1959 3097 
z
M 1959 3584 
Q 2709 3584 3137 3096 
Q 3566 2609 3566 1747 
Q 3566 888 3137 398 
Q 2709 -91 1959 -91 
Q 1206 -91 779 398 
Q 353 888 353 1747 
Q 353 2609 779 3096 
Q 1206 3584 1959 3584 
z
" transform="scale(0.015625)"/>
       <path id="DejaVuSans-5f" d="M 3263 -1063 
L 3263 -1509 
L -63 -1509 
L -63 -1063 
L 3263 -1063 
z
" transform="scale(0.015625)"/>
      </defs>
      <use xlink:href="#DejaVuSans-6e"/>
      <use xlink:href="#DejaVuSans-6f" transform="translate(63.378906 0)"/>
      <use xlink:href="#DejaVuSans-6e" transform="translate(124.560547 0)"/>
      <use xlink:href="#DejaVuSans-5f" transform="translate(187.939453 0)"/>
      <use xlink:href="#DejaVuSans-65" transform="translate(237.939453 0)"/>
      <use xlink:href="#DejaVuSans-65" transform="translate(299.462891 0)"/>
      <use xlink:href="#DejaVuSans-72" transform="translate(360.986328 0)"/>
      <use xlink:href="#DejaVuSans-69" transform="translate(402.099609 0)"/>
      <use xlink:href="#DejaVuSans-65" transform="translate(429.882812 0)"/>
     </g>
    </g>
   </g>
   <g id="FillBetweenPolyCollection_1">
    <defs>
     <path id="mbf33d7b5ef" d="M 38.420552 -255.627472 
L 38.420552 -229.9316 
L 40.123593 -230.16527 
L 41.826633 -228.059629 
L 43.529673 -226.794265 
L 45.232713 -227.610265 
L 46.935753 -232.492228 
L 48.638793 -238.582386 
L 50.341833 -243.635316 
L 52.044873 -243.341534 
L 53.747913 -237.660098 
L 55.450953 -229.233311 
L 57.153993 -221.186606 
L 58.857033 -216.210566 
L 60.560073 -214.997408 
L 62.263113 -216.262735 
L 63.966154 -218.571773 
L 65.669194 -220.024639 
L 67.372234 -221.117864 
L 69.075274 -221.424683 
L 70.778314 -220.084747 
L 72.481354 -217.111367 
L 74.184394 -212.759392 
L 75.887434 -207.568519 
L 77.590474 -204.241926 
L 79.293514 -203.830029 
L 80.996554 -205.003878 
L 82.699594 -205.670159 
L 84.402634 -203.935598 
L 86.105674 -199.175598 
L 87.808714 -193.598392 
L 89.511755 -191.008791 
L 91.214795 -195.159165 
L 92.917835 -205.08106 
L 94.620875 -216.655187 
L 96.323915 -225.004687 
L 98.026955 -226.770253 
L 99.729995 -221.664764 
L 101.433035 -214.111384 
L 103.136075 -208.292409 
L 104.839115 -206.359704 
L 106.542155 -209.255259 
L 108.245195 -212.461469 
L 109.948235 -213.432913 
L 111.651275 -210.275998 
L 113.354315 -203.704695 
L 115.057356 -197.307926 
L 116.760396 -193.0799 
L 118.463436 -191.299778 
L 120.166476 -191.050961 
L 121.869516 -191.584891 
L 123.572556 -193.005989 
L 125.275596 -195.140893 
L 126.978636 -198.310184 
L 128.681676 -201.068546 
L 130.384716 -203.979512 
L 132.087756 -206.044451 
L 133.790796 -206.902017 
L 135.493836 -204.415443 
L 137.196876 -198.263154 
L 138.899916 -189.409805 
L 140.602957 -179.83818 
L 142.305997 -174.010432 
L 144.009037 -173.586157 
L 145.712077 -178.524656 
L 147.415117 -186.319462 
L 149.118157 -192.788073 
L 150.821197 -191.897111 
L 152.524237 -183.68418 
L 154.227277 -172.208524 
L 155.930317 -162.446892 
L 157.633357 -159.371896 
L 159.336397 -166.224311 
L 161.039437 -179.628243 
L 162.742477 -194.192504 
L 164.445517 -204.426553 
L 166.148558 -207.508528 
L 167.851598 -206.837775 
L 169.554638 -206.339139 
L 171.257678 -209.801068 
L 172.960718 -218.582917 
L 174.663758 -230.130896 
L 176.366798 -240.918057 
L 178.069838 -246.957012 
L 179.772878 -247.16325 
L 181.475918 -242.361893 
L 183.178958 -232.998692 
L 184.881998 -220.26914 
L 186.585038 -203.425174 
L 188.288078 -183.069408 
L 189.991118 -159.215394 
L 191.694159 -134.050424 
L 193.397199 -109.521025 
L 195.100239 -88.522955 
L 196.803279 -70.51223 
L 198.506319 -56.593469 
L 200.209359 -45.496317 
L 201.912399 -37.184846 
L 203.615439 -33.35649 
L 205.318479 -33.822019 
L 207.021519 -39.017246 
L 208.724559 -48.603835 
L 210.427599 -59.130093 
L 212.130639 -67.674717 
L 213.833679 -74.280377 
L 215.536719 -81.809452 
L 217.23976 -93.605117 
L 218.9428 -111.637875 
L 220.64584 -135.214406 
L 222.34888 -158.708993 
L 224.05192 -176.980152 
L 225.75496 -186.524105 
L 227.458 -189.967144 
L 229.16104 -191.719871 
L 230.86408 -196.864918 
L 232.56712 -205.007698 
L 234.27016 -212.820058 
L 235.9732 -215.812824 
L 237.67624 -212.687318 
L 239.37928 -205.909072 
L 241.08232 -197.930078 
L 242.785361 -191.114757 
L 244.488401 -185.30088 
L 246.191441 -177.362844 
L 247.894481 -164.842115 
L 249.597521 -150.172204 
L 251.300561 -137.804769 
L 253.003601 -131.44497 
L 254.706641 -132.372573 
L 256.409681 -137.806865 
L 258.112721 -142.016533 
L 259.815761 -140.533089 
L 261.518801 -132.968575 
L 263.221841 -120.97051 
L 264.924881 -109.345775 
L 266.627921 -101.662812 
L 268.330962 -99.718042 
L 270.034002 -101.107614 
L 271.737042 -103.830806 
L 273.440082 -104.564296 
L 275.143122 -101.54623 
L 276.846162 -95.533432 
L 278.549202 -87.788901 
L 280.252242 -81.050611 
L 281.955282 -77.305414 
L 283.658322 -78.575637 
L 285.361362 -84.87519 
L 287.064402 -94.357543 
L 288.767442 -104.095943 
L 290.470482 -112.882638 
L 292.173522 -119.592627 
L 293.876563 -127.074108 
L 295.579603 -137.57213 
L 297.282643 -152.81424 
L 298.985683 -171.517793 
L 300.688723 -189.552899 
L 302.391763 -203.808716 
L 304.094803 -211.508301 
L 305.797843 -213.332801 
L 307.500883 -211.900895 
L 309.203923 -211.985276 
L 310.906963 -216.139854 
L 312.610003 -223.80504 
L 314.313043 -233.129994 
L 316.016083 -240.8443 
L 317.719123 -244.525813 
L 319.422164 -244.004185 
L 321.125204 -241.716767 
L 322.828244 -239.921395 
L 324.531284 -241.50953 
L 326.234324 -245.837228 
L 327.937364 -251.226273 
L 329.640404 -254.930994 
L 331.343444 -255.648626 
L 333.046484 -252.199325 
L 334.749524 -246.781719 
L 336.452564 -242.33269 
L 338.155604 -239.51564 
L 339.858644 -239.154315 
L 341.561684 -240.13523 
L 343.264724 -241.83341 
L 344.967765 -242.958548 
L 346.670805 -243.303956 
L 348.373845 -243.90929 
L 350.076885 -244.962269 
L 351.779925 -245.809986 
L 353.482965 -246.282765 
L 355.186005 -246.456532 
L 356.889045 -245.316643 
L 358.592085 -242.795575 
L 360.295125 -238.516244 
L 361.998165 -232.505942 
L 363.701205 -225.21137 
L 365.404245 -217.886961 
L 367.107285 -212.014209 
L 368.810326 -209.628947 
L 370.513366 -210.404516 
L 372.216406 -212.381149 
L 373.919446 -213.850886 
L 375.622486 -212.930075 
L 377.325526 -212.197525 
L 379.028566 -211.719858 
L 380.731606 -211.645533 
L 382.434646 -210.497341 
L 384.137686 -207.318173 
L 385.840726 -202.589746 
L 387.543766 -196.942006 
L 389.246806 -192.673213 
L 390.949846 -191.240057 
L 392.652886 -192.703322 
L 394.355927 -195.129398 
L 396.058967 -197.135067 
L 397.762007 -197.672422 
L 399.465047 -196.45763 
L 401.168087 -194.946508 
L 402.871127 -194.510469 
L 404.574167 -195.316488 
L 406.277207 -195.554219 
L 407.980247 -194.835784 
L 409.683287 -192.337843 
L 411.386327 -190.615174 
L 413.089367 -189.797013 
L 414.792407 -190.523323 
L 416.495447 -189.917272 
L 418.198487 -186.289518 
L 419.901528 -180.268873 
L 421.604568 -174.830952 
L 423.307608 -172.385731 
L 425.010648 -174.800991 
L 426.713688 -180.060527 
L 428.416728 -184.477351 
L 430.119768 -184.670157 
L 431.822808 -182.010968 
L 433.525848 -177.583 
L 435.228888 -176.032735 
L 436.931928 -177.274175 
L 438.634968 -180.671696 
L 440.338008 -181.83595 
L 442.041048 -177.215884 
L 443.744088 -167.334736 
L 445.447129 -155.768638 
L 447.150169 -147.969585 
L 448.853209 -146.862835 
L 450.556249 -152.156158 
L 452.259289 -159.597509 
L 453.962329 -165.257431 
L 455.665369 -165.518095 
L 457.368409 -161.004602 
L 459.071449 -153.568429 
L 460.774489 -147.51564 
L 462.477529 -145.435245 
L 464.180569 -145.812172 
L 465.883609 -147.719802 
L 467.586649 -149.081766 
L 469.289689 -147.208316 
L 470.99273 -143.381639 
L 472.69577 -139.644879 
L 474.39881 -137.874688 
L 476.10185 -139.547038 
L 477.80489 -143.119985 
L 479.50793 -145.979558 
L 481.21097 -144.564622 
L 482.91401 -139.915522 
L 484.61705 -131.777603 
L 486.32009 -124.163609 
L 488.02313 -119.309187 
L 489.72617 -118.130047 
L 491.42921 -119.19284 
L 493.13225 -119.31947 
L 494.83529 -117.064598 
L 496.538331 -111.201546 
L 498.241371 -104.303179 
L 499.944411 -98.831552 
L 501.647451 -96.45476 
L 503.350491 -97.499264 
L 505.053531 -102.608305 
L 506.756571 -110.245222 
L 508.459611 -118.234013 
L 510.162651 -123.459598 
L 511.865691 -124.81883 
L 513.568731 -121.970199 
L 515.271771 -116.776045 
L 516.974811 -111.088023 
L 518.677851 -106.085702 
L 520.380891 -105.466327 
L 522.083932 -106.603427 
L 523.786972 -106.814743 
L 525.490012 -104.597542 
L 527.193052 -98.996697 
L 528.896092 -92.437118 
L 530.599132 -87.224136 
L 532.302172 -84.574609 
L 534.005212 -84.800075 
L 535.708252 -86.57199 
L 537.411292 -87.791848 
L 539.114332 -86.341501 
L 540.817372 -82.924103 
L 542.520412 -79.629786 
L 544.223452 -78.231719 
L 545.926492 -78.382352 
L 547.629533 -78.435235 
L 549.332573 -77.807041 
L 551.035613 -78.302451 
L 552.738653 -80.992765 
L 554.441693 -86.964219 
L 556.144733 -94.196378 
L 557.847773 -100.268529 
L 559.550813 -104.305955 
L 561.253853 -105.542704 
L 561.253853 -139.228683 
L 561.253853 -139.228683 
L 559.550813 -137.983957 
L 557.847773 -133.322756 
L 556.144733 -126.452774 
L 554.441693 -119.616341 
L 552.738653 -114.148922 
L 551.035613 -111.009029 
L 549.332573 -110.158028 
L 547.629533 -109.4251 
L 545.926492 -108.722983 
L 544.223452 -108.608995 
L 542.520412 -109.55463 
L 540.817372 -112.049805 
L 539.114332 -115.56876 
L 537.411292 -117.666313 
L 535.708252 -117.436662 
L 534.005212 -114.504114 
L 532.302172 -112.363779 
L 530.599132 -114.515645 
L 528.896092 -121.487071 
L 527.193052 -130.570618 
L 525.490012 -137.957742 
L 523.786972 -141.083121 
L 522.083932 -140.329535 
L 520.380891 -137.747534 
L 518.677851 -137.74231 
L 516.974811 -141.879173 
L 515.271771 -147.924357 
L 513.568731 -153.644784 
L 511.865691 -155.50839 
L 510.162651 -152.507947 
L 508.459611 -145.343438 
L 506.756571 -137.187323 
L 505.053531 -129.910769 
L 503.350491 -125.963029 
L 501.647451 -126.370064 
L 499.944411 -131.031246 
L 498.241371 -136.91949 
L 496.538331 -142.505073 
L 494.83529 -145.409164 
L 493.13225 -146.260134 
L 491.42921 -145.541259 
L 489.72617 -145.737995 
L 488.02313 -149.325043 
L 486.32009 -156.046783 
L 484.61705 -165.199843 
L 482.91401 -172.929272 
L 481.21097 -177.884766 
L 479.50793 -178.278766 
L 477.80489 -175.286854 
L 476.10185 -171.382077 
L 474.39881 -170.473504 
L 472.69577 -172.867275 
L 470.99273 -177.743305 
L 469.289689 -182.31723 
L 467.586649 -185.206167 
L 465.883609 -183.39684 
L 464.180569 -180.477587 
L 462.477529 -178.531696 
L 460.774489 -179.854559 
L 459.071449 -184.552555 
L 457.368409 -191.42696 
L 455.665369 -196.16901 
L 453.962329 -194.961505 
L 452.259289 -188.452101 
L 450.556249 -180.287695 
L 448.853209 -175.24675 
L 447.150169 -177.146217 
L 445.447129 -184.858753 
L 443.744088 -195.911711 
L 442.041048 -204.935692 
L 440.338008 -209.294673 
L 438.634968 -208.223932 
L 436.931928 -204.996343 
L 435.228888 -203.677005 
L 433.525848 -206.048112 
L 431.822808 -210.23326 
L 430.119768 -212.973361 
L 428.416728 -211.421023 
L 426.713688 -205.743094 
L 425.010648 -200.107379 
L 423.307608 -197.324676 
L 421.604568 -200.308605 
L 419.901528 -206.393489 
L 418.198487 -212.347339 
L 416.495447 -217.160082 
L 414.792407 -219.184507 
L 413.089367 -220.280215 
L 411.386327 -220.860356 
L 409.683287 -223.004222 
L 407.980247 -224.879831 
L 406.277207 -225.089314 
L 404.574167 -224.333726 
L 402.871127 -223.604547 
L 401.168087 -224.439924 
L 399.465047 -226.50684 
L 397.762007 -228.924713 
L 396.058967 -229.586011 
L 394.355927 -227.125625 
L 392.652886 -223.491783 
L 390.949846 -220.128362 
L 389.246806 -220.348374 
L 387.543766 -223.734297 
L 385.840726 -228.730073 
L 384.137686 -232.861753 
L 382.434646 -235.751771 
L 380.731606 -237.996621 
L 379.028566 -240.499947 
L 377.325526 -243.464184 
L 375.622486 -245.41753 
L 373.919446 -245.797235 
L 372.216406 -243.18631 
L 370.513366 -239.578833 
L 368.810326 -237.557156 
L 367.107285 -238.718899 
L 365.404245 -244.616534 
L 363.701205 -253.907608 
L 361.998165 -264.258165 
L 360.295125 -272.063811 
L 358.592085 -275.941691 
L 356.889045 -275.632646 
L 355.186005 -273.819952 
L 353.482965 -272.689191 
L 351.779925 -271.639873 
L 350.076885 -271.528661 
L 348.373845 -270.966085 
L 346.670805 -271.022451 
L 344.967765 -270.859908 
L 343.264724 -269.561531 
L 341.561684 -267.936716 
L 339.858644 -266.982687 
L 338.155604 -268.063185 
L 336.452564 -270.672731 
L 334.749524 -275.347504 
L 333.046484 -280.537233 
L 331.343444 -284.592854 
L 329.640404 -285.682637 
L 327.937364 -282.985545 
L 326.234324 -278.002915 
L 324.531284 -272.876797 
L 322.828244 -270.90122 
L 321.125204 -271.153664 
L 319.422164 -272.688164 
L 317.719123 -274.005615 
L 316.016083 -271.772565 
L 314.313043 -265.515691 
L 312.610003 -257.067518 
L 310.906963 -249.096183 
L 309.203923 -244.484928 
L 307.500883 -242.886436 
L 305.797843 -242.551048 
L 304.094803 -240.181058 
L 302.391763 -232.480366 
L 300.688723 -218.3245 
L 298.985683 -200.4709 
L 297.282643 -182.301028 
L 295.579603 -167.29052 
L 293.876563 -157.343477 
L 292.173522 -149.983011 
L 290.470482 -143.00571 
L 288.767442 -135.000312 
L 287.064402 -124.85898 
L 285.361362 -114.860903 
L 283.658322 -108.393341 
L 281.955282 -107.792762 
L 280.252242 -111.815236 
L 278.549202 -119.479828 
L 276.846162 -127.821793 
L 275.143122 -134.039061 
L 273.440082 -137.428812 
L 271.737042 -138.191872 
L 270.034002 -137.368689 
L 268.330962 -137.155843 
L 266.627921 -139.659358 
L 264.924881 -145.612624 
L 263.221841 -155.048615 
L 261.518801 -165.822918 
L 259.815761 -174.223395 
L 258.112721 -176.273003 
L 256.409681 -174.542297 
L 254.706641 -170.661917 
L 253.003601 -169.061835 
L 251.300561 -173.439652 
L 249.597521 -183.311922 
L 247.894481 -196.159308 
L 246.191441 -208.019417 
L 244.488401 -217.288484 
L 242.785361 -224.019595 
L 241.08232 -230.517713 
L 239.37928 -238.053026 
L 237.67624 -244.534398 
L 235.9732 -247.191422 
L 234.27016 -244.147689 
L 232.56712 -236.45382 
L 230.86408 -227.844573 
L 229.16104 -222.223758 
L 227.458 -219.2762 
L 225.75496 -215.635566 
L 224.05192 -206.61012 
L 222.34888 -189.526255 
L 220.64584 -166.111481 
L 218.9428 -142.864633 
L 217.23976 -125.035179 
L 215.536719 -113.463954 
L 213.833679 -106.755699 
L 212.130639 -101.076392 
L 210.427599 -93.199729 
L 208.724559 -82.673806 
L 207.021519 -73.53607 
L 205.318479 -68.980803 
L 203.615439 -71.237923 
L 201.912399 -77.398745 
L 200.209359 -86.781508 
L 198.506319 -96.067821 
L 196.803279 -107.340517 
L 195.100239 -122.355488 
L 193.397199 -142.147485 
L 191.694159 -167.3308 
L 189.991118 -192.845537 
L 188.288078 -216.884963 
L 186.585038 -235.701545 
L 184.881998 -250.593389 
L 183.178958 -261.77694 
L 181.475918 -270.003542 
L 179.772878 -274.193908 
L 178.069838 -273.48821 
L 176.366798 -267.387031 
L 174.663758 -257.189355 
L 172.960718 -245.751359 
L 171.257678 -235.891425 
L 169.554638 -231.159234 
L 167.851598 -230.542393 
L 166.148558 -230.729217 
L 164.445517 -227.615784 
L 162.742477 -219.769538 
L 161.039437 -208.750244 
L 159.336397 -198.583215 
L 157.633357 -193.984134 
L 155.930317 -198.27205 
L 154.227277 -209.878752 
L 152.524237 -222.262422 
L 150.821197 -229.84201 
L 149.118157 -229.486029 
L 147.415117 -223.058364 
L 145.712077 -215.558777 
L 144.009037 -210.738974 
L 142.305997 -210.273377 
L 140.602957 -214.143398 
L 138.899916 -219.865907 
L 137.196876 -224.799125 
L 135.493836 -227.660149 
L 133.790796 -228.850424 
L 132.087756 -229.352168 
L 130.384716 -227.882997 
L 128.681676 -224.956233 
L 126.978636 -221.540418 
L 125.275596 -217.988827 
L 123.572556 -214.435996 
L 121.869516 -211.23496 
L 120.166476 -208.766616 
L 118.463436 -208.109889 
L 116.760396 -210.136214 
L 115.057356 -213.988558 
L 113.354315 -219.278197 
L 111.651275 -225.034065 
L 109.948235 -229.664892 
L 108.245195 -231.837176 
L 106.542155 -231.566064 
L 104.839115 -231.371035 
L 103.136075 -233.417405 
L 101.433035 -238.948572 
L 99.729995 -244.843147 
L 98.026955 -248.957029 
L 96.323915 -246.63343 
L 94.620875 -237.120173 
L 92.917835 -224.198361 
L 91.214795 -212.850801 
L 89.511755 -208.417625 
L 87.808714 -211.362492 
L 86.105674 -217.579316 
L 84.402634 -222.983446 
L 82.699594 -225.106447 
L 80.996554 -224.427842 
L 79.293514 -223.575699 
L 77.590474 -225.730324 
L 75.887434 -230.949626 
L 74.184394 -236.810533 
L 72.481354 -241.43268 
L 70.778314 -244.34951 
L 69.075274 -244.360102 
L 67.372234 -243.301567 
L 65.669194 -240.918192 
L 63.966154 -237.935061 
L 62.263113 -234.810576 
L 60.560073 -232.572735 
L 58.857033 -233.084086 
L 57.153993 -238.591719 
L 55.450953 -247.848793 
L 53.747913 -258.068504 
L 52.044873 -265.961322 
L 50.341833 -268.52594 
L 48.638793 -265.244517 
L 46.935753 -259.308489 
L 45.232713 -254.941533 
L 43.529673 -253.7053 
L 41.826633 -254.413298 
L 40.123593 -255.950382 
L 38.420552 -255.627472 
z
" style="stroke: #1f77b4; stroke-opacity: 0.3"/>
    </defs>
    <g>
     <use xlink:href="#mbf33d7b5ef" x="0" y="432" style="fill: #1f77b4; fill-opacity: 0.3; stroke: #1f77b4; stroke-opacity: 0.3"/>
    </g>
   </g>
   <g id="FillBetweenPolyCollection_2">
    <defs>
     <path id="md7e3998890" d="M 38.420552 -237.898624 
L 38.420552 -232.115065 
L 40.123593 -235.150646 
L 41.826633 -237.929619 
L 43.529673 -238.753065 
L 45.232713 -236.677902 
L 46.935753 -232.076314 
L 48.638793 -226.99117 
L 50.341833 -223.279353 
L 52.044873 -222.276001 
L 53.747913 -223.55956 
L 55.450953 -225.742553 
L 57.153993 -226.796572 
L 58.857033 -225.707315 
L 60.560073 -222.909051 
L 62.263113 -219.847911 
L 63.966154 -218.397806 
L 65.669194 -219.791411 
L 67.372234 -223.17034 
L 69.075274 -226.642436 
L 70.778314 -228.256481 
L 72.481354 -227.095277 
L 74.184394 -223.84539 
L 75.887434 -220.232629 
L 77.590474 -218.017551 
L 79.293514 -218.078478 
L 80.996554 -219.810901 
L 82.699594 -221.632669 
L 84.402634 -222.077361 
L 86.105674 -220.635711 
L 87.808714 -218.24353 
L 89.511755 -215.873969 
L 91.214795 -214.88028 
L 92.917835 -215.326318 
L 94.620875 -216.442609 
L 96.323915 -217.280981 
L 98.026955 -217.145923 
L 99.729995 -216.256532 
L 101.433035 -215.21364 
L 103.136075 -215.124312 
L 104.839115 -216.165048 
L 106.542155 -217.69907 
L 108.245195 -219.047095 
L 109.948235 -219.641704 
L 111.651275 -219.265279 
L 113.354315 -218.453366 
L 115.057356 -217.66876 
L 116.760396 -217.373376 
L 118.463436 -217.299804 
L 120.166476 -216.854018 
L 121.869516 -215.79931 
L 123.572556 -214.342308 
L 125.275596 -213.065009 
L 126.978636 -212.527216 
L 128.681676 -212.974743 
L 130.384716 -213.830634 
L 132.087756 -214.639459 
L 133.790796 -215.088648 
L 135.493836 -214.979133 
L 137.196876 -214.643168 
L 138.899916 -214.145567 
L 140.602957 -212.92722 
L 142.305997 -210.397412 
L 144.009037 -206.652557 
L 145.712077 -202.109908 
L 147.415117 -197.849791 
L 149.118157 -194.905218 
L 150.821197 -193.421151 
L 152.524237 -193.028143 
L 154.227277 -192.987005 
L 155.930317 -193.686615 
L 157.633357 -195.910361 
L 159.336397 -200.865661 
L 161.039437 -208.771677 
L 162.742477 -218.588618 
L 164.445517 -228.336933 
L 166.148558 -236.248026 
L 167.851598 -241.745671 
L 169.554638 -245.858096 
L 171.257678 -250.224685 
L 172.960718 -255.878984 
L 174.663758 -262.478154 
L 176.366798 -267.870681 
L 178.069838 -269.382526 
L 179.772878 -265.231582 
L 181.475918 -255.123402 
L 183.178958 -239.774987 
L 184.881998 -220.867442 
L 186.585038 -199.324417 
L 188.288078 -176.237112 
L 189.991118 -152.529655 
L 191.694159 -129.857371 
L 193.397199 -109.884125 
L 195.100239 -94.381736 
L 196.803279 -83.987744 
L 198.506319 -78.016721 
L 200.209359 -75.193411 
L 201.912399 -74.448548 
L 203.615439 -75.512632 
L 205.318479 -78.986315 
L 207.021519 -84.876756 
L 208.724559 -92.572143 
L 210.427599 -100.982137 
L 212.130639 -108.734637 
L 213.833679 -115.129572 
L 215.536719 -121.201767 
L 217.23976 -128.560974 
L 218.9428 -138.530188 
L 220.64584 -151.143739 
L 222.34888 -164.656864 
L 224.05192 -176.974813 
L 225.75496 -186.209883 
L 227.458 -192.397045 
L 229.16104 -196.520432 
L 230.86408 -199.915905 
L 232.56712 -203.21357 
L 234.27016 -205.974697 
L 235.9732 -207.258266 
L 237.67624 -206.518359 
L 239.37928 -204.134627 
L 241.08232 -201.350282 
L 242.785361 -199.394511 
L 244.488401 -199.392059 
L 246.191441 -200.961816 
L 247.894481 -203.07716 
L 249.597521 -204.418135 
L 251.300561 -204.297205 
L 253.003601 -202.643324 
L 254.706641 -200.296947 
L 256.409681 -197.774198 
L 258.112721 -195.699041 
L 259.815761 -193.939712 
L 261.518801 -192.082428 
L 263.221841 -190.01342 
L 264.924881 -187.092835 
L 266.627921 -183.176515 
L 268.330962 -178.417551 
L 270.034002 -173.268871 
L 271.737042 -167.883136 
L 273.440082 -162.780094 
L 275.143122 -158.25366 
L 276.846162 -154.781246 
L 278.549202 -152.46045 
L 280.252242 -150.970285 
L 281.955282 -150.083509 
L 283.658322 -149.121573 
L 285.361362 -148.058499 
L 287.064402 -147.695795 
L 288.767442 -148.799759 
L 290.470482 -151.622306 
L 292.173522 -156.044921 
L 293.876563 -161.272492 
L 295.579603 -166.216504 
L 297.282643 -170.365072 
L 298.985683 -173.606742 
L 300.688723 -176.896216 
L 302.391763 -180.085489 
L 304.094803 -182.663688 
L 305.797843 -183.877348 
L 307.500883 -183.074652 
L 309.203923 -180.824701 
L 310.906963 -178.808486 
L 312.610003 -178.563106 
L 314.313043 -180.728088 
L 316.016083 -184.251374 
L 317.719123 -187.10238 
L 319.422164 -187.682601 
L 321.125204 -185.551507 
L 322.828244 -182.468029 
L 324.531284 -180.304315 
L 326.234324 -180.358997 
L 327.937364 -181.979506 
L 329.640404 -183.749428 
L 331.343444 -184.001228 
L 333.046484 -182.60398 
L 334.749524 -180.913105 
L 336.452564 -180.936817 
L 338.155604 -183.258045 
L 339.858644 -186.803591 
L 341.561684 -189.742218 
L 343.264724 -190.306308 
L 344.967765 -188.12115 
L 346.670805 -184.884959 
L 348.373845 -182.514553 
L 350.076885 -182.162083 
L 351.779925 -183.446335 
L 353.482965 -184.643353 
L 355.186005 -184.178712 
L 356.889045 -181.439534 
L 358.592085 -177.144535 
L 360.295125 -172.714699 
L 361.998165 -169.50045 
L 363.701205 -167.439578 
L 365.404245 -165.868186 
L 367.107285 -163.46951 
L 368.810326 -159.934039 
L 370.513366 -156.00171 
L 372.216406 -152.455348 
L 373.919446 -150.1381 
L 375.622486 -148.989215 
L 377.325526 -147.967773 
L 379.028566 -146.142635 
L 380.731606 -143.109566 
L 382.434646 -138.931351 
L 384.137686 -134.314726 
L 385.840726 -129.707107 
L 387.543766 -125.893844 
L 389.246806 -123.491369 
L 390.949846 -123.116135 
L 392.652886 -124.734579 
L 394.355927 -127.945116 
L 396.058967 -131.738297 
L 397.762007 -135.089906 
L 399.465047 -137.222771 
L 401.168087 -138.035021 
L 402.871127 -138.139073 
L 404.574167 -137.854756 
L 406.277207 -137.011929 
L 407.980247 -135.38085 
L 409.683287 -132.154518 
L 411.386327 -127.850548 
L 413.089367 -123.368594 
L 414.792407 -120.448131 
L 416.495447 -120.365168 
L 418.198487 -122.688654 
L 419.901528 -126.297972 
L 421.604568 -129.366172 
L 423.307608 -130.778588 
L 425.010648 -130.732949 
L 426.713688 -129.692131 
L 428.416728 -128.48158 
L 430.119768 -127.835025 
L 431.822808 -127.37224 
L 433.525848 -127.580926 
L 435.228888 -128.260306 
L 436.931928 -129.982756 
L 438.634968 -132.753705 
L 440.338008 -135.828911 
L 442.041048 -138.132307 
L 443.744088 -138.133646 
L 445.447129 -135.352589 
L 447.150169 -130.706745 
L 448.853209 -126.719966 
L 450.556249 -125.443308 
L 452.259289 -128.316683 
L 453.962329 -134.933972 
L 455.665369 -143.170446 
L 457.368409 -150.299482 
L 459.071449 -154.259434 
L 460.774489 -154.597241 
L 462.477529 -153.217913 
L 464.180569 -152.126438 
L 465.883609 -152.93131 
L 467.586649 -155.728855 
L 469.289689 -158.892461 
L 470.99273 -160.75256 
L 472.69577 -161.002261 
L 474.39881 -160.222458 
L 476.10185 -160.135238 
L 477.80489 -161.501671 
L 479.50793 -163.942412 
L 481.21097 -165.753588 
L 482.91401 -165.269571 
L 484.61705 -162.159919 
L 486.32009 -157.745589 
L 488.02313 -154.073853 
L 489.72617 -152.235157 
L 491.42921 -152.042941 
L 493.13225 -152.240788 
L 494.83529 -151.440293 
L 496.538331 -149.645205 
L 498.241371 -147.511319 
L 499.944411 -146.084842 
L 501.647451 -145.929748 
L 503.350491 -146.415335 
L 505.053531 -146.631698 
L 506.756571 -146.010471 
L 508.459611 -145.297958 
L 510.162651 -145.529214 
L 511.865691 -147.474686 
L 513.568731 -150.639795 
L 515.271771 -154.075877 
L 516.974811 -156.363235 
L 518.677851 -157.225437 
L 520.380891 -157.256267 
L 522.083932 -157.313229 
L 523.786972 -158.322152 
L 525.490012 -159.946623 
L 527.193052 -161.754719 
L 528.896092 -162.76979 
L 530.599132 -162.580366 
L 532.302172 -161.39693 
L 534.005212 -159.625425 
L 535.708252 -157.517665 
L 537.411292 -155.339766 
L 539.114332 -153.189052 
L 540.817372 -151.268393 
L 542.520412 -149.784464 
L 544.223452 -148.734797 
L 545.926492 -147.99454 
L 547.629533 -147.649549 
L 549.332573 -147.664868 
L 551.035613 -148.477452 
L 552.738653 -150.447551 
L 554.441693 -153.641937 
L 556.144733 -157.881396 
L 557.847773 -162.271839 
L 559.550813 -166.0375 
L 561.253853 -169.057981 
L 561.253853 -176.375656 
L 561.253853 -176.375656 
L 559.550813 -173.427424 
L 557.847773 -169.49153 
L 556.144733 -165.139246 
L 554.441693 -161.062414 
L 552.738653 -157.733125 
L 551.035613 -155.528745 
L 549.332573 -154.704628 
L 547.629533 -154.598228 
L 545.926492 -154.985954 
L 544.223452 -155.70711 
L 542.520412 -156.913596 
L 540.817372 -158.561285 
L 539.114332 -160.305 
L 537.411292 -162.304473 
L 535.708252 -164.18008 
L 534.005212 -166.04372 
L 532.302172 -167.790961 
L 530.599132 -169.014186 
L 528.896092 -169.290146 
L 527.193052 -168.507078 
L 525.490012 -166.753021 
L 523.786972 -165.146517 
L 522.083932 -164.209407 
L 520.380891 -164.134732 
L 518.677851 -164.141453 
L 516.974811 -163.331604 
L 515.271771 -161.031638 
L 513.568731 -157.633749 
L 511.865691 -154.400623 
L 510.162651 -152.48495 
L 508.459611 -152.205774 
L 506.756571 -152.890735 
L 505.053531 -153.461484 
L 503.350491 -153.227566 
L 501.647451 -152.740159 
L 499.944411 -152.768957 
L 498.241371 -154.135507 
L 496.538331 -156.418683 
L 494.83529 -158.542559 
L 493.13225 -159.452419 
L 491.42921 -159.589505 
L 489.72617 -159.782583 
L 488.02313 -161.683177 
L 486.32009 -165.448383 
L 484.61705 -169.718409 
L 482.91401 -172.707896 
L 481.21097 -173.097709 
L 479.50793 -171.261934 
L 477.80489 -168.658148 
L 476.10185 -167.105677 
L 474.39881 -167.273485 
L 472.69577 -168.136423 
L 470.99273 -168.229154 
L 469.289689 -166.503904 
L 467.586649 -163.523358 
L 465.883609 -160.870955 
L 464.180569 -160.073562 
L 462.477529 -161.137867 
L 460.774489 -162.513003 
L 459.071449 -161.973013 
L 457.368409 -158.136325 
L 455.665369 -151.05155 
L 453.962329 -142.762463 
L 452.259289 -136.169696 
L 450.556249 -133.202152 
L 448.853209 -134.518822 
L 447.150169 -138.651131 
L 445.447129 -143.170152 
L 443.744088 -145.87792 
L 442.041048 -146.03296 
L 440.338008 -143.918855 
L 438.634968 -140.86449 
L 436.931928 -138.201909 
L 435.228888 -136.439464 
L 433.525848 -135.633919 
L 431.822808 -135.425787 
L 430.119768 -135.534534 
L 428.416728 -136.246778 
L 426.713688 -137.479857 
L 425.010648 -138.583706 
L 423.307608 -138.80227 
L 421.604568 -137.200723 
L 419.901528 -134.017716 
L 418.198487 -130.357246 
L 416.495447 -128.068622 
L 414.792407 -128.305241 
L 413.089367 -131.156294 
L 411.386327 -135.663643 
L 409.683287 -140.03795 
L 407.980247 -143.19556 
L 406.277207 -144.764683 
L 404.574167 -145.484463 
L 402.871127 -145.694069 
L 401.168087 -145.570304 
L 399.465047 -144.725988 
L 397.762007 -142.602433 
L 396.058967 -139.238513 
L 394.355927 -135.371354 
L 392.652886 -132.106733 
L 390.949846 -130.401586 
L 389.246806 -130.710191 
L 387.543766 -132.894881 
L 385.840726 -136.59775 
L 384.137686 -141.100052 
L 382.434646 -145.850622 
L 380.731606 -150.031883 
L 379.028566 -152.905547 
L 377.325526 -154.619868 
L 375.622486 -155.680646 
L 373.919446 -157.096616 
L 372.216406 -159.569707 
L 370.513366 -163.267311 
L 368.810326 -167.303236 
L 367.107285 -170.90574 
L 365.404245 -173.395706 
L 363.701205 -175.124115 
L 361.998165 -177.080348 
L 360.295125 -180.385181 
L 358.592085 -184.795441 
L 356.889045 -189.098723 
L 355.186005 -191.881504 
L 353.482965 -192.136857 
L 351.779925 -190.660999 
L 350.076885 -189.424085 
L 348.373845 -189.756597 
L 346.670805 -192.237099 
L 344.967765 -195.559041 
L 343.264724 -197.752244 
L 341.561684 -197.326575 
L 339.858644 -194.252548 
L 338.155604 -190.53651 
L 336.452564 -188.208841 
L 334.749524 -188.160111 
L 333.046484 -189.626754 
L 331.343444 -190.978888 
L 329.640404 -190.970892 
L 327.937364 -189.435464 
L 326.234324 -187.72879 
L 324.531284 -187.450161 
L 322.828244 -189.396305 
L 321.125204 -192.377785 
L 319.422164 -194.49622 
L 317.719123 -194.093255 
L 316.016083 -191.347418 
L 314.313043 -187.852091 
L 312.610003 -185.513497 
L 310.906963 -185.426734 
L 309.203923 -187.23704 
L 307.500883 -189.317107 
L 305.797843 -190.135189 
L 304.094803 -188.90144 
L 302.391763 -186.569281 
L 300.688723 -183.553084 
L 298.985683 -180.422944 
L 297.282643 -177.18126 
L 295.579603 -173.088973 
L 293.876563 -168.170036 
L 292.173522 -162.934602 
L 290.470482 -158.59146 
L 288.767442 -155.761881 
L 287.064402 -154.736479 
L 285.361362 -155.121706 
L 283.658322 -156.11195 
L 281.955282 -157.140728 
L 280.252242 -158.158642 
L 278.549202 -159.508247 
L 276.846162 -161.736993 
L 275.143122 -165.186102 
L 273.440082 -169.608065 
L 271.737042 -174.650662 
L 270.034002 -179.993334 
L 268.330962 -185.092562 
L 266.627921 -189.734451 
L 264.924881 -193.630289 
L 263.221841 -196.637646 
L 261.518801 -198.731282 
L 259.815761 -200.36654 
L 258.112721 -202.070506 
L 256.409681 -204.14364 
L 254.706641 -206.778799 
L 253.003601 -209.216436 
L 251.300561 -210.908551 
L 249.597521 -211.001486 
L 247.894481 -209.550794 
L 246.191441 -207.380463 
L 244.488401 -205.676726 
L 242.785361 -205.515538 
L 241.08232 -207.188201 
L 239.37928 -210.064184 
L 237.67624 -212.673654 
L 235.9732 -213.489946 
L 234.27016 -212.256634 
L 232.56712 -209.53984 
L 230.86408 -206.120018 
L 229.16104 -202.629511 
L 227.458 -198.470222 
L 225.75496 -192.21903 
L 224.05192 -182.975716 
L 222.34888 -170.786392 
L 220.64584 -157.210333 
L 218.9428 -144.680595 
L 217.23976 -134.72197 
L 215.536719 -127.326447 
L 213.833679 -121.365486 
L 212.130639 -114.99164 
L 210.427599 -107.394035 
L 208.724559 -98.997212 
L 207.021519 -91.338391 
L 205.318479 -85.633564 
L 203.615439 -82.402702 
L 201.912399 -81.274459 
L 200.209359 -82.058686 
L 198.506319 -84.892718 
L 196.803279 -90.875867 
L 195.100239 -101.16807 
L 193.397199 -116.635476 
L 191.694159 -136.587825 
L 189.991118 -159.31569 
L 188.288078 -182.931662 
L 186.585038 -205.914569 
L 184.881998 -227.336165 
L 183.178958 -246.213062 
L 181.475918 -261.544792 
L 179.772878 -271.736681 
L 178.069838 -275.973703 
L 176.366798 -274.469928 
L 174.663758 -268.920197 
L 172.960718 -262.009035 
L 171.257678 -256.168802 
L 169.554638 -251.755769 
L 167.851598 -247.55326 
L 166.148558 -241.972167 
L 164.445517 -234.025049 
L 162.742477 -224.194176 
L 161.039437 -214.27506 
L 159.336397 -206.474828 
L 157.633357 -201.634249 
L 155.930317 -199.379524 
L 154.227277 -198.672094 
L 152.524237 -198.593706 
L 150.821197 -198.922642 
L 149.118157 -200.388196 
L 147.415117 -203.291624 
L 145.712077 -207.439601 
L 144.009037 -211.948959 
L 142.305997 -215.753662 
L 140.602957 -218.143542 
L 138.899916 -219.349772 
L 137.196876 -219.876229 
L 135.493836 -220.226345 
L 133.790796 -220.353529 
L 132.087756 -219.968916 
L 130.384716 -219.092598 
L 128.681676 -218.149444 
L 126.978636 -217.586209 
L 125.275596 -217.983672 
L 123.572556 -219.061358 
L 121.869516 -220.359699 
L 120.166476 -221.184438 
L 118.463436 -221.445572 
L 116.760396 -221.630971 
L 115.057356 -221.989273 
L 113.354315 -222.760735 
L 111.651275 -223.681103 
L 109.948235 -224.078765 
L 108.245195 -223.514454 
L 106.542155 -221.982831 
L 104.839115 -220.209436 
L 103.136075 -219.272497 
L 101.433035 -219.53759 
L 99.729995 -220.618937 
L 98.026955 -221.647835 
L 96.323915 -221.82561 
L 94.620875 -221.090822 
L 92.917835 -219.964574 
L 91.214795 -219.452428 
L 89.511755 -220.36572 
L 87.808714 -222.593218 
L 86.105674 -224.934497 
L 84.402634 -226.363443 
L 82.699594 -225.864925 
L 80.996554 -224.057091 
L 79.293514 -222.360803 
L 77.590474 -222.287456 
L 75.887434 -224.5189 
L 74.184394 -228.3147 
L 72.481354 -231.724925 
L 70.778314 -232.966316 
L 69.075274 -231.348003 
L 67.372234 -227.821762 
L 65.669194 -224.376188 
L 63.966154 -222.997934 
L 62.263113 -224.345165 
L 60.560073 -227.394744 
L 58.857033 -230.309038 
L 57.153993 -231.377097 
L 55.450953 -230.190597 
L 53.747913 -227.908253 
L 52.044873 -226.447674 
L 50.341833 -227.623314 
L 48.638793 -231.422859 
L 46.935753 -236.799361 
L 45.232713 -241.464184 
L 43.529673 -243.901414 
L 41.826633 -243.336775 
L 40.123593 -240.762232 
L 38.420552 -237.898624 
z
" style="stroke: #ff7f0e; stroke-opacity: 0.3"/>
    </defs>
    <g>
     <use xlink:href="#md7e3998890" x="0" y="432" style="fill: #ff7f0e; fill-opacity: 0.3; stroke: #ff7f0e; stroke-opacity: 0.3"/>
    </g>
   </g>
   <g id="line2d_19">
    <path d="M 38.420552 189.163727 
L 40.123593 189.228482 
L 41.826633 191.174191 
L 43.529673 192.502373 
L 45.232713 190.846178 
L 46.935753 185.852397 
L 48.638793 179.736016 
L 50.341833 176.114441 
L 52.044873 177.687228 
L 53.747913 184.550084 
L 55.450953 194.086574 
L 57.153993 202.592238 
L 58.857033 207.467695 
L 60.560073 208.327772 
L 62.263113 206.591072 
L 63.966154 204.105902 
L 65.669194 201.939424 
L 67.372234 200.328131 
L 69.075274 199.432489 
L 70.778314 199.903134 
L 72.481354 202.536184 
L 74.184394 207.301672 
L 75.887434 212.824165 
L 77.590474 216.901224 
L 79.293514 218.063758 
L 80.996554 216.968507 
L 82.699594 216.119421 
L 84.402634 218.116145 
L 86.105674 223.427242 
L 87.808714 229.437785 
L 89.511755 231.884821 
L 91.214795 227.691444 
L 92.917835 217.353023 
L 94.620875 205.006878 
L 96.323915 196.063682 
L 98.026955 194.019755 
L 99.729995 198.473178 
L 101.433035 205.70785 
L 103.136075 211.340426 
L 104.839115 213.054091 
L 106.542155 211.653841 
L 108.245195 209.944028 
L 109.948235 210.600283 
L 111.651275 214.501769 
L 115.057356 226.335817 
L 116.760396 230.484491 
L 118.463436 232.307253 
L 120.166476 232.151781 
L 121.869516 230.648984 
L 123.572556 228.274511 
L 125.275596 225.317851 
L 128.681676 218.812094 
L 130.384716 216.084915 
L 132.087756 214.287702 
L 133.790796 213.968722 
L 135.493836 215.784471 
L 137.196876 220.247263 
L 138.899916 226.996118 
L 140.602957 234.284509 
L 142.305997 239.327649 
L 144.009037 239.566158 
L 145.712077 234.484283 
L 147.415117 226.576489 
L 149.118157 220.521169 
L 150.821197 220.710954 
L 152.524237 228.41248 
L 154.227277 240.5928 
L 155.930317 251.326274 
L 157.633357 255.039237 
L 159.336397 249.690821 
L 161.039437 237.822974 
L 162.742477 224.91444 
L 164.445517 216.04335 
L 166.148558 212.975985 
L 167.851598 213.606696 
L 169.554638 213.663916 
L 171.257678 209.554927 
L 172.960718 200.526341 
L 174.663758 188.828759 
L 176.366798 178.230714 
L 178.069838 171.938934 
L 179.772878 171.270229 
L 181.475918 175.798462 
L 183.178958 184.41268 
L 184.881998 196.505216 
L 186.585038 212.34875 
L 188.288078 232.368984 
L 189.991118 256.088504 
L 193.397199 305.856661 
L 195.100239 326.540854 
L 196.803279 342.719977 
L 198.506319 355.260138 
L 200.209359 365.6079 
L 201.912399 374.240387 
L 203.615439 379.973846 
L 205.318479 380.815922 
L 207.021519 375.823206 
L 208.724559 366.416039 
L 210.427599 355.923951 
L 212.130639 347.412635 
L 213.833679 341.269925 
L 215.536719 334.624492 
L 217.23976 323.253832 
L 218.9428 304.847427 
L 222.34888 257.893111 
L 224.05192 240.299294 
L 225.75496 230.815636 
L 227.458 227.219486 
L 229.16104 224.710858 
L 230.86408 219.527323 
L 234.27016 204.129244 
L 235.9732 201.038788 
L 237.67624 203.740273 
L 239.37928 210.451837 
L 241.08232 217.987775 
L 244.488401 230.970642 
L 246.191441 239.599033 
L 247.894481 251.664473 
L 249.597521 265.441012 
L 251.300561 276.916489 
L 253.003601 282.376461 
L 254.706641 281.17099 
L 256.409681 276.42413 
L 258.112721 273.171537 
L 259.815761 275.320735 
L 261.518801 283.41611 
L 263.221841 294.729245 
L 264.924881 305.238921 
L 266.627921 311.897784 
L 268.330962 313.997513 
L 270.034002 313.004549 
L 271.737042 311.406515 
L 273.440082 311.504208 
L 275.143122 314.591215 
L 276.846162 320.701193 
L 278.549202 328.539318 
L 280.252242 335.777121 
L 281.955282 339.811267 
L 283.658322 338.778342 
L 285.361362 332.593839 
L 290.470482 304.593721 
L 293.876563 290.35698 
L 295.579603 279.881893 
L 297.282643 264.875425 
L 300.688723 228.348912 
L 302.391763 214.20951 
L 304.094803 206.418785 
L 305.797843 204.34497 
L 307.500883 204.870769 
L 309.203923 204.178003 
L 310.906963 199.810139 
L 312.610003 191.894394 
L 314.313043 182.828562 
L 316.016083 175.767552 
L 317.719123 172.778987 
L 319.422164 173.617536 
L 321.125204 176.030282 
L 322.828244 177.098482 
L 324.531284 175.009494 
L 326.234324 170.074113 
L 327.937364 164.480009 
L 329.640404 161.005481 
L 331.343444 161.335974 
L 333.046484 165.22852 
L 334.749524 170.814335 
L 336.452564 175.734517 
L 338.155604 178.447399 
L 339.858644 178.812962 
L 341.561684 177.75925 
L 343.264724 176.419226 
L 344.967765 175.455199 
L 346.670805 174.906249 
L 350.076885 173.95575 
L 355.186005 171.976209 
L 356.889045 172.079561 
L 358.592085 173.676507 
L 360.295125 177.688401 
L 361.998165 184.386513 
L 365.404245 201.061896 
L 367.107285 206.702946 
L 368.810326 208.542206 
L 370.513366 207.128278 
L 372.216406 204.491881 
L 373.919446 202.816353 
L 375.622486 203.047224 
L 379.028566 206.301659 
L 380.731606 207.500605 
L 382.434646 208.867796 
L 384.137686 211.59437 
L 385.840726 216.139486 
L 387.543766 221.387858 
L 389.246806 225.191111 
L 390.949846 225.869538 
L 392.652886 223.564894 
L 394.355927 220.245831 
L 396.058967 218.24414 
L 397.762007 218.604053 
L 399.465047 220.5219 
L 401.168087 222.195615 
L 402.871127 222.421268 
L 404.574167 221.560752 
L 406.277207 221.032624 
L 407.980247 221.949171 
L 409.683287 224.048696 
L 411.386327 225.968358 
L 413.089367 226.71301 
L 414.792407 226.785264 
L 416.495447 228.028601 
L 418.198487 231.966423 
L 421.604568 244.034133 
L 423.307608 246.472452 
L 425.010648 244.170704 
L 426.713688 238.807247 
L 428.416728 234.034758 
L 430.119768 232.931743 
L 431.822808 235.799608 
L 433.525848 240.004095 
L 435.228888 242.123769 
L 436.931928 240.668352 
L 438.634968 237.441336 
L 440.338008 236.346627 
L 442.041048 240.582233 
L 443.744088 250.15122 
L 445.447129 261.480942 
L 447.150169 269.527001 
L 448.853209 270.854639 
L 450.556249 265.707636 
L 452.259289 257.759141 
L 453.962329 251.775892 
L 455.665369 250.94525 
L 457.368409 255.271425 
L 459.071449 261.974282 
L 460.774489 267.462973 
L 462.477529 269.46357 
L 464.180569 268.099311 
L 465.883609 265.563132 
L 467.586649 264.508518 
L 469.289689 266.391762 
L 472.69577 274.962833 
L 474.39881 277.063163 
L 476.10185 275.907154 
L 477.80489 272.625518 
L 479.50793 269.886739 
L 481.21097 270.391127 
L 482.91401 275.254788 
L 486.32009 291.698293 
L 488.02313 297.614352 
L 489.72617 299.848164 
L 491.42921 299.433617 
L 493.13225 298.825784 
L 494.83529 300.339777 
L 496.538331 304.81447 
L 499.944411 317.2575 
L 501.647451 320.723566 
L 503.350491 320.178035 
L 505.053531 315.549625 
L 506.756571 308.069694 
L 508.459611 299.949973 
L 510.162651 293.724678 
L 511.865691 291.440163 
L 513.568731 293.73799 
L 515.271771 299.345334 
L 516.974811 305.546396 
L 518.677851 309.583734 
L 520.380891 310.287906 
L 522.083932 308.918506 
L 523.786972 308.354886 
L 525.490012 311.133066 
L 527.193052 317.568673 
L 528.896092 325.427548 
L 530.599132 331.447968 
L 532.302172 333.552866 
L 534.005212 332.188136 
L 535.708252 329.831758 
L 537.411292 329.097009 
L 539.114332 330.939768 
L 540.817372 334.283151 
L 542.520412 337.178436 
L 544.223452 338.470598 
L 545.926492 338.454833 
L 547.629533 338.170985 
L 549.332573 338.04843 
L 551.035613 337.282414 
L 552.738653 334.506621 
L 554.441693 329.052034 
L 557.847773 315.048419 
L 559.550813 310.587938 
L 561.253853 309.086237 
L 561.253853 309.086237 
" style="fill: none; stroke: #1f77b4; stroke-width: 1.5; stroke-linecap: square"/>
   </g>
   <g id="line2d_20">
    <path d="M 38.420552 197.002441 
L 40.123593 194.02084 
L 41.826633 191.344547 
L 43.529673 190.706998 
L 45.232713 192.975122 
L 46.935753 197.599686 
L 48.638793 202.81282 
L 50.341833 206.560791 
L 52.044873 207.612354 
L 53.747913 206.241207 
L 55.450953 204.031668 
L 57.153993 202.925009 
L 58.857033 204.025359 
L 62.263113 209.961862 
L 63.966154 211.252993 
L 65.669194 209.873143 
L 69.075274 203.014162 
L 70.778314 201.426169 
L 72.481354 202.649001 
L 74.184394 206.000979 
L 75.887434 209.668404 
L 77.590474 211.843474 
L 79.293514 211.755841 
L 82.699594 208.268462 
L 84.402634 207.833587 
L 86.105674 209.194755 
L 87.808714 211.65434 
L 89.511755 213.901121 
L 91.214795 214.889184 
L 92.917835 214.441879 
L 94.620875 213.276336 
L 96.323915 212.438732 
L 98.026955 212.585961 
L 101.433035 214.57649 
L 103.136075 214.767712 
L 104.839115 213.817157 
L 106.542155 212.153675 
L 108.245195 210.659117 
L 109.948235 210.053437 
L 111.651275 210.450581 
L 113.354315 211.369251 
L 115.057356 212.146873 
L 116.760396 212.468842 
L 118.463436 212.560109 
L 120.166476 212.932704 
L 121.869516 213.901244 
L 123.572556 215.279293 
L 125.275596 216.469796 
L 126.978636 216.891765 
L 128.681676 216.427847 
L 132.087756 214.678048 
L 133.790796 214.349722 
L 135.493836 214.439726 
L 137.196876 214.744228 
L 138.899916 215.302425 
L 140.602957 216.536252 
L 142.305997 218.974381 
L 144.009037 222.738315 
L 145.712077 227.242175 
L 147.415117 231.405937 
L 149.118157 234.306792 
L 150.821197 235.744714 
L 152.524237 236.188663 
L 154.227277 236.143538 
L 155.930317 235.469736 
L 157.633357 233.234059 
L 159.336397 228.328998 
L 161.039437 220.431268 
L 164.445517 200.764355 
L 166.148558 192.839211 
L 167.851598 187.340677 
L 169.554638 183.250016 
L 171.257678 178.824486 
L 172.960718 172.986663 
L 174.663758 166.296216 
L 176.366798 160.879917 
L 178.069838 159.357224 
L 179.772878 163.549229 
L 181.475918 173.772266 
L 183.178958 189.07671 
L 184.881998 208.057401 
L 186.585038 229.516001 
L 191.694159 298.837756 
L 193.397199 318.692102 
L 195.100239 334.123301 
L 196.803279 344.535156 
L 198.506319 350.531856 
L 200.209359 353.382502 
L 201.912399 354.134915 
L 203.615439 353.045967 
L 205.318479 349.727563 
L 207.021519 343.913648 
L 208.724559 336.127592 
L 210.427599 327.709413 
L 212.130639 320.072613 
L 215.536719 307.706465 
L 217.23976 300.388416 
L 218.9428 290.400224 
L 220.64584 277.82307 
L 222.34888 264.274609 
L 224.05192 252.023603 
L 225.75496 242.708809 
L 227.458 236.520014 
L 229.16104 232.394194 
L 232.56712 225.662171 
L 234.27016 222.872375 
L 235.9732 221.593345 
L 237.67624 222.422135 
L 239.37928 224.942 
L 241.08232 227.836671 
L 242.785361 229.634847 
L 244.488401 229.550217 
L 246.191441 227.870129 
L 247.894481 225.712611 
L 249.597521 224.332117 
L 251.300561 224.470006 
L 253.003601 226.080621 
L 256.409681 231.057884 
L 258.112721 233.179829 
L 261.518801 236.585926 
L 263.221841 238.73034 
L 264.924881 241.687293 
L 266.627921 245.551245 
L 268.330962 250.200593 
L 273.440082 265.807573 
L 275.143122 270.247155 
L 276.846162 273.658331 
L 278.549202 275.931456 
L 280.252242 277.311524 
L 285.361362 280.283943 
L 287.064402 280.699598 
L 288.767442 279.728945 
L 290.470482 276.884003 
L 292.173522 272.389216 
L 295.579603 262.265483 
L 297.282643 258.249252 
L 300.688723 251.857825 
L 302.391763 248.761673 
L 304.094803 246.181533 
L 305.797843 245.028555 
L 307.500883 245.808914 
L 309.203923 247.942931 
L 310.906963 249.862453 
L 312.610003 249.947763 
L 314.313043 247.675716 
L 316.016083 244.117964 
L 317.719123 241.322436 
L 319.422164 240.924696 
L 321.125204 243.010747 
L 322.828244 246.081513 
L 324.531284 248.121606 
L 326.234324 248.030424 
L 329.640404 244.684329 
L 331.343444 244.517781 
L 333.046484 245.896451 
L 334.749524 247.452097 
L 336.452564 247.444861 
L 338.155604 245.153052 
L 339.858644 241.524513 
L 341.561684 238.584617 
L 343.264724 238.057853 
L 344.967765 240.159676 
L 346.670805 243.469621 
L 348.373845 245.93381 
L 350.076885 246.317132 
L 353.482965 243.635626 
L 355.186005 243.997315 
L 356.889045 246.746174 
L 360.295125 255.511976 
L 361.998165 258.760458 
L 363.701205 260.765114 
L 365.404245 262.434053 
L 367.107285 264.835878 
L 368.810326 268.367472 
L 370.513366 272.464706 
L 372.216406 276.079446 
L 373.919446 278.479939 
L 375.622486 279.766018 
L 377.325526 280.768261 
L 379.028566 282.478089 
L 380.731606 285.449365 
L 382.434646 289.592383 
L 385.840726 298.885117 
L 387.543766 302.595583 
L 389.246806 304.85842 
L 390.949846 305.22961 
L 392.652886 303.603993 
L 394.355927 300.405517 
L 396.058967 296.585978 
L 397.762007 293.253706 
L 399.465047 291.144128 
L 401.168087 290.298081 
L 402.871127 290.233098 
L 404.574167 290.492703 
L 406.277207 291.148955 
L 407.980247 292.784622 
L 409.683287 295.915289 
L 413.089367 304.774905 
L 414.792407 307.654509 
L 416.495447 307.843848 
L 418.198487 305.478576 
L 419.901528 301.876179 
L 421.604568 298.744809 
L 423.307608 297.217223 
L 425.010648 297.377497 
L 428.416728 299.633444 
L 430.119768 300.362701 
L 431.822808 300.622941 
L 433.525848 300.45919 
L 435.228888 299.704815 
L 436.931928 298.018131 
L 438.634968 295.33053 
L 440.338008 292.269842 
L 442.041048 290.117073 
L 443.744088 290.195071 
L 445.447129 292.968943 
L 447.150169 297.499097 
L 448.853209 301.614686 
L 450.556249 302.903463 
L 452.259289 299.97783 
L 453.962329 293.281999 
L 455.665369 284.977366 
L 457.368409 277.878425 
L 459.071449 273.998288 
L 460.774489 273.55007 
L 462.477529 274.961583 
L 464.180569 275.97131 
L 465.883609 275.075821 
L 467.586649 272.377588 
L 469.289689 269.320646 
L 470.99273 267.50048 
L 472.69577 267.443331 
L 474.39881 268.254821 
L 476.10185 268.381383 
L 477.80489 266.911138 
L 479.50793 264.406183 
L 481.21097 262.583261 
L 482.91401 263.059645 
L 484.61705 266.12146 
L 486.32009 270.48583 
L 488.02313 274.212541 
L 489.72617 276.073871 
L 491.42921 276.309434 
L 493.13225 276.241739 
L 494.83529 277.103251 
L 496.538331 279.091745 
L 498.241371 281.320626 
L 499.944411 282.675407 
L 501.647451 282.771748 
L 503.350491 282.225445 
L 505.053531 282.023196 
L 506.756571 282.585187 
L 508.459611 283.322263 
L 510.162651 283.098027 
L 511.865691 281.190435 
L 515.271771 274.530821 
L 516.974811 272.213772 
L 518.677851 271.376558 
L 520.380891 271.42656 
L 522.083932 271.31814 
L 523.786972 270.354487 
L 527.193052 266.935181 
L 528.896092 266.013826 
L 530.599132 266.235887 
L 532.302172 267.437434 
L 534.005212 269.204725 
L 540.817372 277.060518 
L 542.520412 278.58476 
L 544.223452 279.710781 
L 545.926492 280.466408 
L 547.629533 280.883079 
L 549.332573 280.831881 
L 551.035613 279.967729 
L 552.738653 277.933317 
L 554.441693 274.650412 
L 559.550813 262.267866 
L 561.253853 259.249701 
L 561.253853 259.249701 
" style="fill: none; stroke: #ff7f0e; stroke-width: 1.5; stroke-linecap: square"/>
   </g>
  </g>
  <g id="axes_2">
   <g id="PathCollection_1">
    <defs>
     <path id="C0_0_50b26df51f" d="M 0 1.118034 
C 0.296506 1.118034 0.580908 1.000231 0.790569 0.790569 
C 1.000231 0.580908 1.118034 0.296506 1.118034 -0 
C 1.118034 -0.296506 1.000231 -0.580908 0.790569 -0.790569 
C 0.580908 -1.000231 0.296506 -1.118034 0 -1.118034 
C -0.296506 -1.118034 -0.580908 -1.000231 -0.790569 -0.790569 
C -1.000231 -0.580908 -1.118034 -0.296506 -1.118034 0 
C -1.118034 0.296506 -1.000231 0.580908 -0.790569 0.790569 
C -0.580908 1.000231 -0.296506 1.118034 0 1.118034 
z
"/>
    </defs>
    <g clip-path="url(#p29249527e7)">
     <use xlink:href="#C0_0_50b26df51f" x="485.033956" y="87.472088" style="stroke: #000000"/>
    </g>
    <g clip-path="url(#p29249527e7)">
     <use xlink:href="#C0_0_50b26df51f" x="532.698402" y="87.444477" style="stroke: #000000"/>
    </g>
   </g>
   <g id="matplotlib.axis_3"/>
   <g id="matplotlib.axis_4"/>
   <g id="line2d_21">
    <path d="M 548.859194 73.63672 
L 548.781507 71.164689 
L 548.548754 68.702415 
L 548.161852 66.259613 
L 547.622329 63.845926 
L 546.932314 61.470879 
L 546.09453 59.143845 
L 545.112284 56.874007 
L 543.989451 54.670325 
L 542.730464 52.541494 
L 541.340291 50.495916 
L 539.824418 48.541664 
L 538.188828 46.686451 
L 536.439975 44.937599 
L 534.584762 43.302008 
L 532.630511 41.786136 
L 530.584933 40.395962 
L 528.456102 39.136975 
L 526.252419 38.014143 
L 523.982582 37.031896 
L 521.655547 36.194112 
L 519.2805 35.504097 
L 516.866813 34.964574 
L 514.424012 34.577673 
L 511.961737 34.344919 
L 509.489707 34.267233 
L 507.017676 34.344919 
L 504.555402 34.577673 
L 502.1126 34.964574 
L 499.698913 35.504097 
L 497.323866 36.194112 
L 494.996832 37.031896 
L 492.726994 38.014143 
L 490.523312 39.136975 
L 488.394481 40.395962 
L 486.348903 41.786136 
L 484.394651 43.302008 
L 482.539438 44.937599 
L 480.790586 46.686451 
L 479.154995 48.541664 
L 477.639123 50.495916 
L 476.248949 52.541494 
L 474.989962 54.670325 
L 473.86713 56.874007 
L 472.884883 59.143845 
L 472.047099 61.470879 
L 471.357084 63.845926 
L 470.817561 66.259613 
L 470.43066 68.702415 
L 470.197906 71.164689 
L 470.12022 73.63672 
L 470.197906 76.10875 
L 470.43066 78.571025 
L 470.817561 81.013826 
L 471.357084 83.427513 
L 472.047099 85.80256 
L 472.884883 88.129595 
L 473.86713 90.399432 
L 474.989962 92.603115 
L 476.248949 94.731946 
L 477.639123 96.777524 
L 479.154995 98.731775 
L 480.790586 100.586988 
L 482.539438 102.335841 
L 484.394651 103.971431 
L 486.348903 105.487304 
L 488.394481 106.877477 
L 490.523312 108.136464 
L 492.726994 109.259297 
L 494.996832 110.241543 
L 497.323866 111.079327 
L 499.698913 111.769342 
L 502.1126 112.308865 
L 504.555402 112.695767 
L 507.017676 112.92852 
L 509.489707 113.006207 
L 511.961737 112.92852 
L 514.424012 112.695767 
L 516.866813 112.308865 
L 519.2805 111.769342 
L 521.655547 111.079327 
L 523.982582 110.241543 
L 526.252419 109.259297 
L 528.456102 108.136464 
L 530.584933 106.877477 
L 532.630511 105.487304 
L 534.584762 103.971431 
L 536.439975 102.335841 
L 538.188828 100.586988 
L 539.824418 98.731775 
L 541.340291 96.777524 
L 542.730464 94.731946 
L 543.989451 92.603115 
L 545.112284 90.399432 
L 546.09453 88.129595 
L 546.932314 85.80256 
L 547.622329 83.427513 
L 548.161852 81.013826 
L 548.548754 78.571025 
L 548.781507 76.10875 
L 548.859194 73.63672 
" style="fill: none; stroke: #000000; stroke-linecap: square"/>
   </g>
   <g id="line2d_22">
    <path d="M 501.244181 35.140385 
L 509.489707 28.361809 
L 517.735233 35.140385 
" style="fill: none; stroke: #000000; stroke-linecap: square"/>
   </g>
   <g id="line2d_23">
    <path d="M 470.356436 69.266707 
L 469.33283 67.534449 
L 468.702918 67.471458 
L 467.765924 67.762792 
L 466.821057 69.266707 
L 466.970661 74.069784 
L 466.419488 80.975192 
L 467.600572 83.975147 
L 469.33283 84.534194 
L 470.986348 83.077523 
" style="fill: none; stroke: #000000; stroke-linecap: square"/>
   </g>
   <g id="line2d_24">
    <path d="M 548.622977 69.266707 
L 549.646584 67.534449 
L 550.276495 67.471458 
L 551.213489 67.762792 
L 552.158357 69.266707 
L 552.008753 74.069784 
L 552.559926 80.975192 
L 551.378841 83.975147 
L 549.646584 84.534194 
L 547.993065 83.077523 
" style="fill: none; stroke: #000000; stroke-linecap: square"/>
   </g>
  </g>
 </g>
 <defs>
  <clipPath id="p4c3bace445">
   <rect x="38.420552" y="18.118365" width="523.446395" height="380.525145"/>
  </clipPath>
  <clipPath id="p29249527e7">
   <rect x="462.112466" y="24.12959" width="94.754482" height="93.108837"/>
  </clipPath>
 </defs>
</svg>
