<?xml version="1.0" encoding="utf-8" standalone="no"?>
<!DOCTYPE svg PUBLIC "-//W3C//DTD SVG 1.1//EN"
  "http://www.w3.org/Graphics/SVG/1.1/DTD/svg11.dtd">
<svg xmlns:xlink="http://www.w3.org/1999/xlink" width="576pt" height="432pt" viewBox="0 0 576 432" xmlns="http://www.w3.org/2000/svg" version="1.1">
 <metadata>
  <rdf:RDF xmlns:dc="http://purl.org/dc/elements/1.1/" xmlns:cc="http://creativecommons.org/ns#" xmlns:rdf="http://www.w3.org/1999/02/22-rdf-syntax-ns#">
   <cc:Work>
    <dc:type rdf:resource="http://purl.org/dc/dcmitype/StillImage"/>
    <dc:date>2025-02-17T18:05:29.703843</dc:date>
    <dc:format>image/svg+xml</dc:format>
    <dc:creator>
     <cc:Agent>
      <dc:title>Matplotlib v3.10.0, https://matplotlib.org/</dc:title>
     </cc:Agent>
    </dc:creator>
   </cc:Work>
  </rdf:RDF>
 </metadata>
 <defs>
  <style type="text/css">*{stroke-linejoin: round; stroke-linecap: butt}</style>
 </defs>
 <g id="figure_1">
  <g id="patch_1">
   <path d="M 0 432 
L 576 432 
L 576 0 
L 0 0 
z
" style="fill: #ffffff"/>
  </g>
  <g id="axes_1">
   <g id="patch_2">
    <path d="M 38.420552 398.64351 
L 565.048198 398.64351 
L 565.048198 18.118365 
L 38.420552 18.118365 
L 38.420552 398.64351 
z
" style="fill: none; opacity: 0"/>
   </g>
   <g id="patch_3">
    <path d="M 38.420552 395.340585 
L 38.420552 21.42129 
" style="fill: none; stroke: #000000; stroke-width: 0.8; stroke-linejoin: miter; stroke-linecap: square"/>
   </g>
   <g id="LineCollection_1">
    <path d="M 301.871446 18.118365 
L 301.871446 398.64351 
" clip-path="url(#pde6bb5e20a)" style="fill: none; stroke-dasharray: 3.7,1.6; stroke-dashoffset: 0; stroke: #000000"/>
    <path d="M 389.59703 18.118365 
L 389.59703 398.64351 
" clip-path="url(#pde6bb5e20a)" style="fill: none; stroke-dasharray: 3.7,1.6; stroke-dashoffset: 0; stroke: #000000"/>
   </g>
   <g id="matplotlib.axis_1">
    <g id="xtick_1">
     <g id="line2d_1">
      <defs>
       <path id="mea0dde6321" d="M 0 0 
L 0 3.5 
" style="stroke: #000000; stroke-width: 0.8"/>
      </defs>
      <g>
       <use xlink:href="#mea0dde6321" x="38.694695" y="398.64351" style="stroke: #000000; stroke-width: 0.8"/>
      </g>
     </g>
     <g id="text_1">
      <!-- −0.2 -->
      <g transform="translate(26.553289 413.241947) scale(0.1 -0.1)">
       <defs>
        <path id="DejaVuSans-2212" d="M 678 2272 
L 4684 2272 
L 4684 1741 
L 678 1741 
L 678 2272 
z
" transform="scale(0.015625)"/>
        <path id="DejaVuSans-30" d="M 2034 4250 
Q 1547 4250 1301 3770 
Q 1056 3291 1056 2328 
Q 1056 1369 1301 889 
Q 1547 409 2034 409 
Q 2525 409 2770 889 
Q 3016 1369 3016 2328 
Q 3016 3291 2770 3770 
Q 2525 4250 2034 4250 
z
M 2034 4750 
Q 2819 4750 3233 4129 
Q 3647 3509 3647 2328 
Q 3647 1150 3233 529 
Q 2819 -91 2034 -91 
Q 1250 -91 836 529 
Q 422 1150 422 2328 
Q 422 3509 836 4129 
Q 1250 4750 2034 4750 
z
" transform="scale(0.015625)"/>
        <path id="DejaVuSans-2e" d="M 684 794 
L 1344 794 
L 1344 0 
L 684 0 
L 684 794 
z
" transform="scale(0.015625)"/>
        <path id="DejaVuSans-32" d="M 1228 531 
L 3431 531 
L 3431 0 
L 469 0 
L 469 531 
Q 828 903 1448 1529 
Q 2069 2156 2228 2338 
Q 2531 2678 2651 2914 
Q 2772 3150 2772 3378 
Q 2772 3750 2511 3984 
Q 2250 4219 1831 4219 
Q 1534 4219 1204 4116 
Q 875 4013 500 3803 
L 500 4441 
Q 881 4594 1212 4672 
Q 1544 4750 1819 4750 
Q 2544 4750 2975 4387 
Q 3406 4025 3406 3419 
Q 3406 3131 3298 2873 
Q 3191 2616 2906 2266 
Q 2828 2175 2409 1742 
Q 1991 1309 1228 531 
z
" transform="scale(0.015625)"/>
       </defs>
       <use xlink:href="#DejaVuSans-2212"/>
       <use xlink:href="#DejaVuSans-30" transform="translate(83.789062 0)"/>
       <use xlink:href="#DejaVuSans-2e" transform="translate(147.412109 0)"/>
       <use xlink:href="#DejaVuSans-32" transform="translate(179.199219 0)"/>
      </g>
     </g>
    </g>
    <g id="xtick_2">
     <g id="line2d_2">
      <g>
       <use xlink:href="#mea0dde6321" x="126.420279" y="398.64351" style="stroke: #000000; stroke-width: 0.8"/>
      </g>
     </g>
     <g id="text_2">
      <!-- 0.0 -->
      <g transform="translate(118.468716 413.241947) scale(0.1 -0.1)">
       <use xlink:href="#DejaVuSans-30"/>
       <use xlink:href="#DejaVuSans-2e" transform="translate(63.623047 0)"/>
       <use xlink:href="#DejaVuSans-30" transform="translate(95.410156 0)"/>
      </g>
     </g>
    </g>
    <g id="xtick_3">
     <g id="line2d_3">
      <g>
       <use xlink:href="#mea0dde6321" x="214.145862" y="398.64351" style="stroke: #000000; stroke-width: 0.8"/>
      </g>
     </g>
     <g id="text_3">
      <!-- 0.2 -->
      <g transform="translate(206.1943 413.241947) scale(0.1 -0.1)">
       <use xlink:href="#DejaVuSans-30"/>
       <use xlink:href="#DejaVuSans-2e" transform="translate(63.623047 0)"/>
       <use xlink:href="#DejaVuSans-32" transform="translate(95.410156 0)"/>
      </g>
     </g>
    </g>
    <g id="xtick_4">
     <g id="line2d_4">
      <g>
       <use xlink:href="#mea0dde6321" x="301.871446" y="398.64351" style="stroke: #000000; stroke-width: 0.8"/>
      </g>
     </g>
     <g id="text_4">
      <!-- 0.4 -->
      <g transform="translate(293.919884 413.241947) scale(0.1 -0.1)">
       <defs>
        <path id="DejaVuSans-34" d="M 2419 4116 
L 825 1625 
L 2419 1625 
L 2419 4116 
z
M 2253 4666 
L 3047 4666 
L 3047 1625 
L 3713 1625 
L 3713 1100 
L 3047 1100 
L 3047 0 
L 2419 0 
L 2419 1100 
L 313 1100 
L 313 1709 
L 2253 4666 
z
" transform="scale(0.015625)"/>
       </defs>
       <use xlink:href="#DejaVuSans-30"/>
       <use xlink:href="#DejaVuSans-2e" transform="translate(63.623047 0)"/>
       <use xlink:href="#DejaVuSans-34" transform="translate(95.410156 0)"/>
      </g>
     </g>
    </g>
    <g id="xtick_5">
     <g id="line2d_5">
      <g>
       <use xlink:href="#mea0dde6321" x="389.59703" y="398.64351" style="stroke: #000000; stroke-width: 0.8"/>
      </g>
     </g>
     <g id="text_5">
      <!-- 0.6 -->
      <g transform="translate(381.645467 413.241947) scale(0.1 -0.1)">
       <defs>
        <path id="DejaVuSans-36" d="M 2113 2584 
Q 1688 2584 1439 2293 
Q 1191 2003 1191 1497 
Q 1191 994 1439 701 
Q 1688 409 2113 409 
Q 2538 409 2786 701 
Q 3034 994 3034 1497 
Q 3034 2003 2786 2293 
Q 2538 2584 2113 2584 
z
M 3366 4563 
L 3366 3988 
Q 3128 4100 2886 4159 
Q 2644 4219 2406 4219 
Q 1781 4219 1451 3797 
Q 1122 3375 1075 2522 
Q 1259 2794 1537 2939 
Q 1816 3084 2150 3084 
Q 2853 3084 3261 2657 
Q 3669 2231 3669 1497 
Q 3669 778 3244 343 
Q 2819 -91 2113 -91 
Q 1303 -91 875 529 
Q 447 1150 447 2328 
Q 447 3434 972 4092 
Q 1497 4750 2381 4750 
Q 2619 4750 2861 4703 
Q 3103 4656 3366 4563 
z
" transform="scale(0.015625)"/>
       </defs>
       <use xlink:href="#DejaVuSans-30"/>
       <use xlink:href="#DejaVuSans-2e" transform="translate(63.623047 0)"/>
       <use xlink:href="#DejaVuSans-36" transform="translate(95.410156 0)"/>
      </g>
     </g>
    </g>
    <g id="xtick_6">
     <g id="line2d_6">
      <g>
       <use xlink:href="#mea0dde6321" x="477.322614" y="398.64351" style="stroke: #000000; stroke-width: 0.8"/>
      </g>
     </g>
     <g id="text_6">
      <!-- 0.8 -->
      <g transform="translate(469.371051 413.241947) scale(0.1 -0.1)">
       <defs>
        <path id="DejaVuSans-38" d="M 2034 2216 
Q 1584 2216 1326 1975 
Q 1069 1734 1069 1313 
Q 1069 891 1326 650 
Q 1584 409 2034 409 
Q 2484 409 2743 651 
Q 3003 894 3003 1313 
Q 3003 1734 2745 1975 
Q 2488 2216 2034 2216 
z
M 1403 2484 
Q 997 2584 770 2862 
Q 544 3141 544 3541 
Q 544 4100 942 4425 
Q 1341 4750 2034 4750 
Q 2731 4750 3128 4425 
Q 3525 4100 3525 3541 
Q 3525 3141 3298 2862 
Q 3072 2584 2669 2484 
Q 3125 2378 3379 2068 
Q 3634 1759 3634 1313 
Q 3634 634 3220 271 
Q 2806 -91 2034 -91 
Q 1263 -91 848 271 
Q 434 634 434 1313 
Q 434 1759 690 2068 
Q 947 2378 1403 2484 
z
M 1172 3481 
Q 1172 3119 1398 2916 
Q 1625 2713 2034 2713 
Q 2441 2713 2670 2916 
Q 2900 3119 2900 3481 
Q 2900 3844 2670 4047 
Q 2441 4250 2034 4250 
Q 1625 4250 1398 4047 
Q 1172 3844 1172 3481 
z
" transform="scale(0.015625)"/>
       </defs>
       <use xlink:href="#DejaVuSans-30"/>
       <use xlink:href="#DejaVuSans-2e" transform="translate(63.623047 0)"/>
       <use xlink:href="#DejaVuSans-38" transform="translate(95.410156 0)"/>
      </g>
     </g>
    </g>
    <g id="xtick_7">
     <g id="line2d_7">
      <g>
       <use xlink:href="#mea0dde6321" x="565.048198" y="398.64351" style="stroke: #000000; stroke-width: 0.8"/>
      </g>
     </g>
     <g id="text_7">
      <!-- 1.0 -->
      <g transform="translate(557.096635 413.241947) scale(0.1 -0.1)">
       <defs>
        <path id="DejaVuSans-31" d="M 794 531 
L 1825 531 
L 1825 4091 
L 703 3866 
L 703 4441 
L 1819 4666 
L 2450 4666 
L 2450 531 
L 3481 531 
L 3481 0 
L 794 0 
L 794 531 
z
" transform="scale(0.015625)"/>
       </defs>
       <use xlink:href="#DejaVuSans-31"/>
       <use xlink:href="#DejaVuSans-2e" transform="translate(63.623047 0)"/>
       <use xlink:href="#DejaVuSans-30" transform="translate(95.410156 0)"/>
      </g>
     </g>
    </g>
    <g id="text_8">
     <!-- Time (s) -->
     <g transform="translate(281.405469 426.920073) scale(0.1 -0.1)">
      <defs>
       <path id="DejaVuSans-54" d="M -19 4666 
L 3928 4666 
L 3928 4134 
L 2272 4134 
L 2272 0 
L 1638 0 
L 1638 4134 
L -19 4134 
L -19 4666 
z
" transform="scale(0.015625)"/>
       <path id="DejaVuSans-69" d="M 603 3500 
L 1178 3500 
L 1178 0 
L 603 0 
L 603 3500 
z
M 603 4863 
L 1178 4863 
L 1178 4134 
L 603 4134 
L 603 4863 
z
" transform="scale(0.015625)"/>
       <path id="DejaVuSans-6d" d="M 3328 2828 
Q 3544 3216 3844 3400 
Q 4144 3584 4550 3584 
Q 5097 3584 5394 3201 
Q 5691 2819 5691 2113 
L 5691 0 
L 5113 0 
L 5113 2094 
Q 5113 2597 4934 2840 
Q 4756 3084 4391 3084 
Q 3944 3084 3684 2787 
Q 3425 2491 3425 1978 
L 3425 0 
L 2847 0 
L 2847 2094 
Q 2847 2600 2669 2842 
Q 2491 3084 2119 3084 
Q 1678 3084 1418 2786 
Q 1159 2488 1159 1978 
L 1159 0 
L 581 0 
L 581 3500 
L 1159 3500 
L 1159 2956 
Q 1356 3278 1631 3431 
Q 1906 3584 2284 3584 
Q 2666 3584 2933 3390 
Q 3200 3197 3328 2828 
z
" transform="scale(0.015625)"/>
       <path id="DejaVuSans-65" d="M 3597 1894 
L 3597 1613 
L 953 1613 
Q 991 1019 1311 708 
Q 1631 397 2203 397 
Q 2534 397 2845 478 
Q 3156 559 3463 722 
L 3463 178 
Q 3153 47 2828 -22 
Q 2503 -91 2169 -91 
Q 1331 -91 842 396 
Q 353 884 353 1716 
Q 353 2575 817 3079 
Q 1281 3584 2069 3584 
Q 2775 3584 3186 3129 
Q 3597 2675 3597 1894 
z
M 3022 2063 
Q 3016 2534 2758 2815 
Q 2500 3097 2075 3097 
Q 1594 3097 1305 2825 
Q 1016 2553 972 2059 
L 3022 2063 
z
" transform="scale(0.015625)"/>
       <path id="DejaVuSans-20" transform="scale(0.015625)"/>
       <path id="DejaVuSans-28" d="M 1984 4856 
Q 1566 4138 1362 3434 
Q 1159 2731 1159 2009 
Q 1159 1288 1364 580 
Q 1569 -128 1984 -844 
L 1484 -844 
Q 1016 -109 783 600 
Q 550 1309 550 2009 
Q 550 2706 781 3412 
Q 1013 4119 1484 4856 
L 1984 4856 
z
" transform="scale(0.015625)"/>
       <path id="DejaVuSans-73" d="M 2834 3397 
L 2834 2853 
Q 2591 2978 2328 3040 
Q 2066 3103 1784 3103 
Q 1356 3103 1142 2972 
Q 928 2841 928 2578 
Q 928 2378 1081 2264 
Q 1234 2150 1697 2047 
L 1894 2003 
Q 2506 1872 2764 1633 
Q 3022 1394 3022 966 
Q 3022 478 2636 193 
Q 2250 -91 1575 -91 
Q 1294 -91 989 -36 
Q 684 19 347 128 
L 347 722 
Q 666 556 975 473 
Q 1284 391 1588 391 
Q 1994 391 2212 530 
Q 2431 669 2431 922 
Q 2431 1156 2273 1281 
Q 2116 1406 1581 1522 
L 1381 1569 
Q 847 1681 609 1914 
Q 372 2147 372 2553 
Q 372 3047 722 3315 
Q 1072 3584 1716 3584 
Q 2034 3584 2315 3537 
Q 2597 3491 2834 3397 
z
" transform="scale(0.015625)"/>
       <path id="DejaVuSans-29" d="M 513 4856 
L 1013 4856 
Q 1481 4119 1714 3412 
Q 1947 2706 1947 2009 
Q 1947 1309 1714 600 
Q 1481 -109 1013 -844 
L 513 -844 
Q 928 -128 1133 580 
Q 1338 1288 1338 2009 
Q 1338 2731 1133 3434 
Q 928 4138 513 4856 
z
" transform="scale(0.015625)"/>
      </defs>
      <use xlink:href="#DejaVuSans-54"/>
      <use xlink:href="#DejaVuSans-69" transform="translate(57.958984 0)"/>
      <use xlink:href="#DejaVuSans-6d" transform="translate(85.742188 0)"/>
      <use xlink:href="#DejaVuSans-65" transform="translate(183.154297 0)"/>
      <use xlink:href="#DejaVuSans-20" transform="translate(244.677734 0)"/>
      <use xlink:href="#DejaVuSans-28" transform="translate(276.464844 0)"/>
      <use xlink:href="#DejaVuSans-73" transform="translate(315.478516 0)"/>
      <use xlink:href="#DejaVuSans-29" transform="translate(367.578125 0)"/>
     </g>
    </g>
   </g>
   <g id="matplotlib.axis_2">
    <g id="ytick_1">
     <g id="line2d_8">
      <defs>
       <path id="m5234a32877" d="M 0 0 
L -3.5 0 
" style="stroke: #000000; stroke-width: 0.8"/>
      </defs>
      <g>
       <use xlink:href="#m5234a32877" x="38.420552" y="395.340585" style="stroke: #000000; stroke-width: 0.8"/>
      </g>
     </g>
     <g id="text_9">
      <!-- −6 -->
      <g transform="translate(16.678365 399.139804) scale(0.1 -0.1)">
       <use xlink:href="#DejaVuSans-2212"/>
       <use xlink:href="#DejaVuSans-36" transform="translate(83.789062 0)"/>
      </g>
     </g>
    </g>
    <g id="ytick_2">
     <g id="line2d_9">
      <g>
       <use xlink:href="#m5234a32877" x="38.420552" y="333.020703" style="stroke: #000000; stroke-width: 0.8"/>
      </g>
     </g>
     <g id="text_10">
      <!-- −4 -->
      <g transform="translate(16.678365 336.819921) scale(0.1 -0.1)">
       <use xlink:href="#DejaVuSans-2212"/>
       <use xlink:href="#DejaVuSans-34" transform="translate(83.789062 0)"/>
      </g>
     </g>
    </g>
    <g id="ytick_3">
     <g id="line2d_10">
      <g>
       <use xlink:href="#m5234a32877" x="38.420552" y="270.70082" style="stroke: #000000; stroke-width: 0.8"/>
      </g>
     </g>
     <g id="text_11">
      <!-- −2 -->
      <g transform="translate(16.678365 274.500039) scale(0.1 -0.1)">
       <use xlink:href="#DejaVuSans-2212"/>
       <use xlink:href="#DejaVuSans-32" transform="translate(83.789062 0)"/>
      </g>
     </g>
    </g>
    <g id="ytick_4">
     <g id="line2d_11">
      <g>
       <use xlink:href="#m5234a32877" x="38.420552" y="208.380937" style="stroke: #000000; stroke-width: 0.8"/>
      </g>
     </g>
     <g id="text_12">
      <!-- 0 -->
      <g transform="translate(25.058052 212.180156) scale(0.1 -0.1)">
       <use xlink:href="#DejaVuSans-30"/>
      </g>
     </g>
    </g>
    <g id="ytick_5">
     <g id="line2d_12">
      <g>
       <use xlink:href="#m5234a32877" x="38.420552" y="146.061055" style="stroke: #000000; stroke-width: 0.8"/>
      </g>
     </g>
     <g id="text_13">
      <!-- 2 -->
      <g transform="translate(25.058052 149.860274) scale(0.1 -0.1)">
       <use xlink:href="#DejaVuSans-32"/>
      </g>
     </g>
    </g>
    <g id="ytick_6">
     <g id="line2d_13">
      <g>
       <use xlink:href="#m5234a32877" x="38.420552" y="83.741172" style="stroke: #000000; stroke-width: 0.8"/>
      </g>
     </g>
     <g id="text_14">
      <!-- 4 -->
      <g transform="translate(25.058052 87.540391) scale(0.1 -0.1)">
       <use xlink:href="#DejaVuSans-34"/>
      </g>
     </g>
    </g>
    <g id="ytick_7">
     <g id="line2d_14">
      <g>
       <use xlink:href="#m5234a32877" x="38.420552" y="21.42129" style="stroke: #000000; stroke-width: 0.8"/>
      </g>
     </g>
     <g id="text_15">
      <!-- 6 -->
      <g transform="translate(25.058052 25.220509) scale(0.1 -0.1)">
       <use xlink:href="#DejaVuSans-36"/>
      </g>
     </g>
    </g>
    <g id="text_16">
     <!-- µV -->
     <g transform="translate(10.598677 214.9825) rotate(-90) scale(0.1 -0.1)">
      <defs>
       <path id="DejaVuSans-b5" d="M 544 -1331 
L 544 3500 
L 1119 3500 
L 1119 1325 
Q 1119 872 1334 640 
Q 1550 409 1972 409 
Q 2434 409 2667 671 
Q 2900 934 2900 1459 
L 2900 3500 
L 3475 3500 
L 3475 806 
Q 3475 619 3529 530 
Q 3584 441 3700 441 
Q 3728 441 3778 458 
Q 3828 475 3916 513 
L 3916 50 
Q 3788 -22 3673 -56 
Q 3559 -91 3450 -91 
Q 3234 -91 3106 31 
Q 2978 153 2931 403 
Q 2775 156 2548 32 
Q 2322 -91 2016 -91 
Q 1697 -91 1473 31 
Q 1250 153 1119 397 
L 1119 -1331 
L 544 -1331 
z
" transform="scale(0.015625)"/>
       <path id="DejaVuSans-56" d="M 1831 0 
L 50 4666 
L 709 4666 
L 2188 738 
L 3669 4666 
L 4325 4666 
L 2547 0 
L 1831 0 
z
" transform="scale(0.015625)"/>
      </defs>
      <use xlink:href="#DejaVuSans-b5"/>
      <use xlink:href="#DejaVuSans-56" transform="translate(63.623047 0)"/>
     </g>
    </g>
   </g>
   <g id="patch_4">
    <path d="M 38.694695 398.64351 
L 565.048198 398.64351 
" style="fill: none; stroke: #000000; stroke-width: 0.8; stroke-linejoin: miter; stroke-linecap: square"/>
   </g>
   <g id="patch_5">
    <path d="M 38.420552 208.380937 
L 565.048198 208.380937 
" style="fill: none; stroke: #000000; stroke-width: 0.8; stroke-linejoin: miter; stroke-linecap: square"/>
   </g>
   <g id="text_17">
    <!-- CPz, Cz, Pz (median) -->
    <g transform="translate(239.964375 12.118365) scale(0.12 -0.12)">
     <defs>
      <path id="DejaVuSans-43" d="M 4122 4306 
L 4122 3641 
Q 3803 3938 3442 4084 
Q 3081 4231 2675 4231 
Q 1875 4231 1450 3742 
Q 1025 3253 1025 2328 
Q 1025 1406 1450 917 
Q 1875 428 2675 428 
Q 3081 428 3442 575 
Q 3803 722 4122 1019 
L 4122 359 
Q 3791 134 3420 21 
Q 3050 -91 2638 -91 
Q 1578 -91 968 557 
Q 359 1206 359 2328 
Q 359 3453 968 4101 
Q 1578 4750 2638 4750 
Q 3056 4750 3426 4639 
Q 3797 4528 4122 4306 
z
" transform="scale(0.015625)"/>
      <path id="DejaVuSans-50" d="M 1259 4147 
L 1259 2394 
L 2053 2394 
Q 2494 2394 2734 2622 
Q 2975 2850 2975 3272 
Q 2975 3691 2734 3919 
Q 2494 4147 2053 4147 
L 1259 4147 
z
M 628 4666 
L 2053 4666 
Q 2838 4666 3239 4311 
Q 3641 3956 3641 3272 
Q 3641 2581 3239 2228 
Q 2838 1875 2053 1875 
L 1259 1875 
L 1259 0 
L 628 0 
L 628 4666 
z
" transform="scale(0.015625)"/>
      <path id="DejaVuSans-7a" d="M 353 3500 
L 3084 3500 
L 3084 2975 
L 922 459 
L 3084 459 
L 3084 0 
L 275 0 
L 275 525 
L 2438 3041 
L 353 3041 
L 353 3500 
z
" transform="scale(0.015625)"/>
      <path id="DejaVuSans-2c" d="M 750 794 
L 1409 794 
L 1409 256 
L 897 -744 
L 494 -744 
L 750 256 
L 750 794 
z
" transform="scale(0.015625)"/>
      <path id="DejaVuSans-64" d="M 2906 2969 
L 2906 4863 
L 3481 4863 
L 3481 0 
L 2906 0 
L 2906 525 
Q 2725 213 2448 61 
Q 2172 -91 1784 -91 
Q 1150 -91 751 415 
Q 353 922 353 1747 
Q 353 2572 751 3078 
Q 1150 3584 1784 3584 
Q 2172 3584 2448 3432 
Q 2725 3281 2906 2969 
z
M 947 1747 
Q 947 1113 1208 752 
Q 1469 391 1925 391 
Q 2381 391 2643 752 
Q 2906 1113 2906 1747 
Q 2906 2381 2643 2742 
Q 2381 3103 1925 3103 
Q 1469 3103 1208 2742 
Q 947 2381 947 1747 
z
" transform="scale(0.015625)"/>
      <path id="DejaVuSans-61" d="M 2194 1759 
Q 1497 1759 1228 1600 
Q 959 1441 959 1056 
Q 959 750 1161 570 
Q 1363 391 1709 391 
Q 2188 391 2477 730 
Q 2766 1069 2766 1631 
L 2766 1759 
L 2194 1759 
z
M 3341 1997 
L 3341 0 
L 2766 0 
L 2766 531 
Q 2569 213 2275 61 
Q 1981 -91 1556 -91 
Q 1019 -91 701 211 
Q 384 513 384 1019 
Q 384 1609 779 1909 
Q 1175 2209 1959 2209 
L 2766 2209 
L 2766 2266 
Q 2766 2663 2505 2880 
Q 2244 3097 1772 3097 
Q 1472 3097 1187 3025 
Q 903 2953 641 2809 
L 641 3341 
Q 956 3463 1253 3523 
Q 1550 3584 1831 3584 
Q 2591 3584 2966 3190 
Q 3341 2797 3341 1997 
z
" transform="scale(0.015625)"/>
      <path id="DejaVuSans-6e" d="M 3513 2113 
L 3513 0 
L 2938 0 
L 2938 2094 
Q 2938 2591 2744 2837 
Q 2550 3084 2163 3084 
Q 1697 3084 1428 2787 
Q 1159 2491 1159 1978 
L 1159 0 
L 581 0 
L 581 3500 
L 1159 3500 
L 1159 2956 
Q 1366 3272 1645 3428 
Q 1925 3584 2291 3584 
Q 2894 3584 3203 3211 
Q 3513 2838 3513 2113 
z
" transform="scale(0.015625)"/>
     </defs>
     <use xlink:href="#DejaVuSans-43"/>
     <use xlink:href="#DejaVuSans-50" transform="translate(69.824219 0)"/>
     <use xlink:href="#DejaVuSans-7a" transform="translate(130.126953 0)"/>
     <use xlink:href="#DejaVuSans-2c" transform="translate(182.617188 0)"/>
     <use xlink:href="#DejaVuSans-20" transform="translate(214.404297 0)"/>
     <use xlink:href="#DejaVuSans-43" transform="translate(246.191406 0)"/>
     <use xlink:href="#DejaVuSans-7a" transform="translate(316.015625 0)"/>
     <use xlink:href="#DejaVuSans-2c" transform="translate(368.505859 0)"/>
     <use xlink:href="#DejaVuSans-20" transform="translate(400.292969 0)"/>
     <use xlink:href="#DejaVuSans-50" transform="translate(432.080078 0)"/>
     <use xlink:href="#DejaVuSans-7a" transform="translate(492.382812 0)"/>
     <use xlink:href="#DejaVuSans-20" transform="translate(544.873047 0)"/>
     <use xlink:href="#DejaVuSans-28" transform="translate(576.660156 0)"/>
     <use xlink:href="#DejaVuSans-6d" transform="translate(615.673828 0)"/>
     <use xlink:href="#DejaVuSans-65" transform="translate(713.085938 0)"/>
     <use xlink:href="#DejaVuSans-64" transform="translate(774.609375 0)"/>
     <use xlink:href="#DejaVuSans-69" transform="translate(838.085938 0)"/>
     <use xlink:href="#DejaVuSans-61" transform="translate(865.869141 0)"/>
     <use xlink:href="#DejaVuSans-6e" transform="translate(927.148438 0)"/>
     <use xlink:href="#DejaVuSans-29" transform="translate(990.527344 0)"/>
    </g>
   </g>
   <g id="legend_1">
    <g id="patch_6">
     <path d="M 45.420552 55.75274 
L 126.56274 55.75274 
Q 128.56274 55.75274 128.56274 53.75274 
L 128.56274 25.118365 
Q 128.56274 23.118365 126.56274 23.118365 
L 45.420552 23.118365 
Q 43.420552 23.118365 43.420552 25.118365 
L 43.420552 53.75274 
Q 43.420552 55.75274 45.420552 55.75274 
z
" style="fill: #ffffff; opacity: 0.8; stroke: #cccccc; stroke-linejoin: miter"/>
    </g>
    <g id="line2d_15">
     <path d="M 47.420552 31.216803 
L 57.420552 31.216803 
L 67.420552 31.216803 
" style="fill: none; stroke: #1f77b4; stroke-width: 1.5; stroke-linecap: square"/>
    </g>
    <g id="text_18">
     <!-- eerie -->
     <g transform="translate(75.420552 34.716803) scale(0.1 -0.1)">
      <defs>
       <path id="DejaVuSans-72" d="M 2631 2963 
Q 2534 3019 2420 3045 
Q 2306 3072 2169 3072 
Q 1681 3072 1420 2755 
Q 1159 2438 1159 1844 
L 1159 0 
L 581 0 
L 581 3500 
L 1159 3500 
L 1159 2956 
Q 1341 3275 1631 3429 
Q 1922 3584 2338 3584 
Q 2397 3584 2469 3576 
Q 2541 3569 2628 3553 
L 2631 2963 
z
" transform="scale(0.015625)"/>
      </defs>
      <use xlink:href="#DejaVuSans-65"/>
      <use xlink:href="#DejaVuSans-65" transform="translate(61.523438 0)"/>
      <use xlink:href="#DejaVuSans-72" transform="translate(123.046875 0)"/>
      <use xlink:href="#DejaVuSans-69" transform="translate(164.160156 0)"/>
      <use xlink:href="#DejaVuSans-65" transform="translate(191.943359 0)"/>
     </g>
    </g>
    <g id="line2d_16">
     <path d="M 47.420552 45.894928 
L 57.420552 45.894928 
L 67.420552 45.894928 
" style="fill: none; stroke: #ff7f0e; stroke-width: 1.5; stroke-linecap: square"/>
    </g>
    <g id="text_19">
     <!-- non_eerie -->
     <g transform="translate(75.420552 49.394928) scale(0.1 -0.1)">
      <defs>
       <path id="DejaVuSans-6f" d="M 1959 3097 
Q 1497 3097 1228 2736 
Q 959 2375 959 1747 
Q 959 1119 1226 758 
Q 1494 397 1959 397 
Q 2419 397 2687 759 
Q 2956 1122 2956 1747 
Q 2956 2369 2687 2733 
Q 2419 3097 1959 3097 
z
M 1959 3584 
Q 2709 3584 3137 3096 
Q 3566 2609 3566 1747 
Q 3566 888 3137 398 
Q 2709 -91 1959 -91 
Q 1206 -91 779 398 
Q 353 888 353 1747 
Q 353 2609 779 3096 
Q 1206 3584 1959 3584 
z
" transform="scale(0.015625)"/>
       <path id="DejaVuSans-5f" d="M 3263 -1063 
L 3263 -1509 
L -63 -1509 
L -63 -1063 
L 3263 -1063 
z
" transform="scale(0.015625)"/>
      </defs>
      <use xlink:href="#DejaVuSans-6e"/>
      <use xlink:href="#DejaVuSans-6f" transform="translate(63.378906 0)"/>
      <use xlink:href="#DejaVuSans-6e" transform="translate(124.560547 0)"/>
      <use xlink:href="#DejaVuSans-5f" transform="translate(187.939453 0)"/>
      <use xlink:href="#DejaVuSans-65" transform="translate(237.939453 0)"/>
      <use xlink:href="#DejaVuSans-65" transform="translate(299.462891 0)"/>
      <use xlink:href="#DejaVuSans-72" transform="translate(360.986328 0)"/>
      <use xlink:href="#DejaVuSans-69" transform="translate(402.099609 0)"/>
      <use xlink:href="#DejaVuSans-65" transform="translate(429.882812 0)"/>
     </g>
    </g>
   </g>
   <g id="FillBetweenPolyCollection_1">
    <defs>
     <path id="md20a743125" d="M 38.420552 -251.804669 
L 38.420552 -243.222714 
L 40.133943 -239.115969 
L 41.847333 -231.567772 
L 43.560723 -223.589444 
L 45.274114 -218.174386 
L 46.987504 -217.234722 
L 48.700894 -220.123597 
L 50.414285 -224.835489 
L 52.127675 -228.115049 
L 53.841065 -228.179632 
L 55.554456 -224.561519 
L 57.267846 -218.301175 
L 58.981236 -212.157528 
L 60.694627 -208.384224 
L 62.408017 -208.280119 
L 64.121407 -211.078086 
L 65.834797 -215.241986 
L 67.548188 -218.502483 
L 69.261578 -218.624619 
L 70.974968 -215.44497 
L 72.688359 -210.496729 
L 74.401749 -206.356141 
L 76.115139 -205.259969 
L 77.82853 -207.998018 
L 79.54192 -213.753149 
L 81.25531 -220.075554 
L 82.968701 -223.922817 
L 84.682091 -224.135996 
L 86.395481 -221.422751 
L 88.108871 -217.504168 
L 89.822262 -214.422738 
L 91.535652 -213.984412 
L 93.249042 -216.32432 
L 94.962433 -220.760571 
L 96.675823 -225.706212 
L 98.389213 -229.159713 
L 100.102604 -229.690417 
L 101.815994 -227.852442 
L 103.529384 -224.784767 
L 105.242775 -222.017867 
L 106.956165 -220.660502 
L 108.669555 -220.642289 
L 110.382945 -221.361079 
L 112.096336 -222.454618 
L 113.809726 -223.370638 
L 115.523116 -223.729481 
L 117.236507 -223.377872 
L 118.949897 -222.452501 
L 120.663287 -221.064424 
L 122.376678 -219.487672 
L 124.090068 -218.538254 
L 125.803458 -218.581787 
L 127.516849 -218.643029 
L 129.230239 -218.178213 
L 130.943629 -217.582192 
L 132.657019 -217.514677 
L 134.37041 -219.882854 
L 136.0838 -225.651205 
L 137.79719 -233.571942 
L 139.510581 -240.772166 
L 141.223971 -244.070857 
L 142.937361 -241.740523 
L 144.650752 -234.500964 
L 146.364142 -226.425559 
L 148.077532 -222.028225 
L 149.790923 -223.057463 
L 151.504313 -228.541011 
L 153.217703 -235.171741 
L 154.931093 -239.654255 
L 156.644484 -241.265197 
L 158.357874 -241.456151 
L 160.071264 -242.179619 
L 161.784655 -245.132634 
L 163.498045 -250.510037 
L 165.211435 -255.109527 
L 166.924826 -257.94404 
L 168.638216 -258.971321 
L 170.351606 -259.169579 
L 172.064997 -260.380671 
L 173.778387 -262.262765 
L 175.491777 -264.41505 
L 177.205167 -265.257937 
L 178.918558 -265.311301 
L 180.631948 -266.178595 
L 182.345338 -269.568747 
L 184.058729 -277.836358 
L 185.772119 -290.98925 
L 187.485509 -305.597797 
L 189.1989 -317.774601 
L 190.91229 -325.280374 
L 192.62568 -328.095067 
L 194.339071 -327.955407 
L 196.052461 -326.111619 
L 197.765851 -322.816969 
L 199.479241 -317.597423 
L 201.192632 -309.909861 
L 202.906022 -300.513552 
L 204.619412 -291.252484 
L 206.332803 -284.1997 
L 208.046193 -281.750153 
L 209.759583 -284.55522 
L 211.472974 -291.714463 
L 213.186364 -301.438606 
L 214.899754 -312.222063 
L 216.613145 -322.219462 
L 218.326535 -331.831184 
L 220.039925 -340.628559 
L 221.753315 -348.264488 
L 223.466706 -353.918101 
L 225.180096 -357.185478 
L 226.893486 -357.800402 
L 228.606877 -356.510987 
L 230.320267 -354.408028 
L 232.033657 -351.82465 
L 233.747048 -348.843723 
L 235.460438 -344.742872 
L 237.173828 -339.591843 
L 238.887219 -334.995182 
L 240.600609 -330.836592 
L 242.313999 -327.595238 
L 244.027389 -325.763203 
L 245.74078 -323.965062 
L 247.45417 -321.880492 
L 249.16756 -319.868739 
L 250.880951 -317.9045 
L 252.594341 -315.72048 
L 254.307731 -313.258358 
L 256.021122 -309.667345 
L 257.734512 -304.571996 
L 259.447902 -298.445411 
L 261.161293 -291.473508 
L 262.874683 -284.621462 
L 264.588073 -277.517122 
L 266.301463 -269.437835 
L 268.014854 -259.074659 
L 269.728244 -246.317484 
L 271.441634 -233.291891 
L 273.155025 -222.228931 
L 274.868415 -215.922664 
L 276.581805 -214.632662 
L 278.295196 -216.77896 
L 280.008586 -220.252499 
L 281.721976 -223.177038 
L 283.435367 -224.774539 
L 285.148757 -226.808101 
L 286.862147 -230.4777 
L 288.575537 -236.041009 
L 290.288928 -243.338617 
L 292.002318 -251.037643 
L 293.715708 -258.44946 
L 295.429099 -265.080406 
L 297.142489 -271.681247 
L 298.855879 -279.029382 
L 300.56927 -286.724349 
L 302.28266 -294.365402 
L 303.99605 -301.14449 
L 305.709441 -306.375175 
L 307.422831 -309.103705 
L 309.136221 -309.356804 
L 310.849611 -307.202123 
L 312.563002 -303.477385 
L 314.276392 -299.89127 
L 315.989782 -297.57337 
L 317.703173 -297.129104 
L 319.416563 -298.17621 
L 321.129953 -298.898851 
L 322.843344 -298.434466 
L 324.556734 -297.026249 
L 326.270124 -296.353052 
L 327.983515 -298.209052 
L 329.696905 -302.630529 
L 331.410295 -308.047395 
L 333.123685 -311.773874 
L 334.837076 -311.903669 
L 336.550466 -308.485213 
L 338.263856 -303.684782 
L 339.977247 -301.013208 
L 341.690637 -302.87223 
L 343.404027 -309.18363 
L 345.117418 -317.748684 
L 346.830808 -325.041656 
L 348.544198 -329.001022 
L 350.257589 -329.205717 
L 351.970979 -326.989758 
L 353.684369 -324.493433 
L 355.397759 -323.538826 
L 357.11115 -325.003255 
L 358.82454 -328.959792 
L 360.53793 -333.884399 
L 362.251321 -337.940877 
L 363.964711 -340.195423 
L 365.678101 -340.789537 
L 367.391492 -341.797251 
L 369.104882 -345.223012 
L 370.818272 -351.329175 
L 372.531663 -359.848261 
L 374.245053 -368.486893 
L 375.958443 -373.778525 
L 377.671833 -374.7203 
L 379.385224 -372.622533 
L 381.098614 -369.169235 
L 382.812004 -367.524217 
L 384.525395 -368.555473 
L 386.238785 -371.698322 
L 387.952175 -374.933974 
L 389.665566 -376.089678 
L 391.378956 -374.246035 
L 393.092346 -369.779617 
L 394.805737 -365.481362 
L 396.519127 -362.788288 
L 398.232517 -362.485294 
L 399.945907 -363.859075 
L 401.659298 -364.342355 
L 403.372688 -361.529431 
L 405.086078 -354.46217 
L 406.799469 -344.002149 
L 408.512859 -332.199457 
L 410.226249 -322.40263 
L 411.93964 -317.150247 
L 413.65303 -315.985103 
L 415.36642 -317.574616 
L 417.079811 -318.831156 
L 418.793201 -318.099402 
L 420.506591 -315.131198 
L 422.219981 -311.60433 
L 423.933372 -308.22329 
L 425.646762 -305.29205 
L 427.360152 -302.394349 
L 429.073543 -297.891511 
L 430.786933 -291.921598 
L 432.500323 -285.699402 
L 434.213714 -280.576872 
L 435.927104 -278.967328 
L 437.640494 -279.391388 
L 439.353885 -279.926772 
L 441.067275 -278.104753 
L 442.780665 -273.172575 
L 444.494055 -266.468439 
L 446.207446 -260.815752 
L 447.920836 -257.059107 
L 449.634226 -255.526497 
L 451.347617 -253.630507 
L 453.061007 -249.902129 
L 454.774397 -243.860626 
L 456.487788 -237.352496 
L 458.201178 -233.112245 
L 459.914568 -232.56079 
L 461.627959 -234.557984 
L 463.341349 -236.831032 
L 465.054739 -237.579952 
L 466.768129 -235.691883 
L 468.48152 -232.036736 
L 470.19491 -228.016361 
L 471.9083 -224.629485 
L 473.621691 -222.589171 
L 475.335081 -220.893811 
L 477.048471 -219.055079 
L 478.761862 -216.657156 
L 480.475252 -213.231125 
L 482.188642 -208.508762 
L 483.902033 -202.628581 
L 485.615423 -196.396756 
L 487.328813 -190.435118 
L 489.042203 -186.446451 
L 490.755594 -185.330989 
L 492.468984 -186.162246 
L 494.182374 -186.938202 
L 495.895765 -186.238016 
L 497.609155 -183.216663 
L 499.322545 -178.740765 
L 501.035936 -174.922488 
L 502.749326 -173.633595 
L 504.462716 -175.416105 
L 506.176107 -178.319101 
L 507.889497 -180.769135 
L 509.602887 -181.993714 
L 511.316277 -181.99834 
L 513.029668 -181.727609 
L 514.743058 -181.40243 
L 516.456448 -181.050912 
L 518.169839 -180.281468 
L 519.883229 -178.697715 
L 521.596619 -177.375576 
L 523.31001 -176.800205 
L 525.0234 -177.446349 
L 526.73679 -178.576259 
L 528.450181 -178.527822 
L 530.163571 -176.112676 
L 531.876961 -171.776502 
L 533.590351 -167.313922 
L 535.303742 -165.050791 
L 537.017132 -166.266957 
L 538.730522 -169.622135 
L 540.443913 -172.533683 
L 542.157303 -172.245104 
L 543.870693 -168.44109 
L 545.584084 -162.352701 
L 547.297474 -156.329882 
L 549.010864 -151.927374 
L 550.724255 -149.934181 
L 552.437645 -149.143076 
L 554.151035 -148.436726 
L 555.864425 -146.586591 
L 557.577816 -143.895621 
L 559.291206 -140.931619 
L 561.004596 -139.254476 
L 562.717987 -138.907634 
L 564.431377 -140.765739 
L 564.431377 -151.737391 
L 564.431377 -151.737391 
L 562.717987 -150.306015 
L 561.004596 -150.900273 
L 559.291206 -153.021696 
L 557.577816 -155.798583 
L 555.864425 -158.502242 
L 554.151035 -160.38176 
L 552.437645 -161.159365 
L 550.724255 -161.727691 
L 549.010864 -163.681504 
L 547.297474 -167.586675 
L 545.584084 -173.574434 
L 543.870693 -179.418619 
L 542.157303 -183.439575 
L 540.443913 -183.886627 
L 538.730522 -181.432527 
L 537.017132 -178.266112 
L 535.303742 -177.012624 
L 533.590351 -178.591194 
L 531.876961 -182.574133 
L 530.163571 -187.095548 
L 528.450181 -189.622069 
L 526.73679 -189.381766 
L 525.0234 -187.980378 
L 523.31001 -186.914423 
L 521.596619 -187.542631 
L 519.883229 -189.018427 
L 518.169839 -190.439205 
L 516.456448 -191.267538 
L 514.743058 -191.511824 
L 513.029668 -191.697416 
L 511.316277 -192.229949 
L 509.602887 -192.377183 
L 507.889497 -191.13907 
L 506.176107 -188.721254 
L 504.462716 -185.955675 
L 502.749326 -184.740241 
L 501.035936 -186.483837 
L 499.322545 -190.530945 
L 497.609155 -195.198059 
L 495.895765 -198.324981 
L 494.182374 -199.040031 
L 492.468984 -197.893271 
L 490.755594 -197.168302 
L 489.042203 -198.924034 
L 487.328813 -203.109415 
L 485.615423 -209.102103 
L 483.902033 -215.617703 
L 482.188642 -220.946072 
L 480.475252 -224.93867 
L 478.761862 -227.955176 
L 477.048471 -229.858507 
L 475.335081 -231.33319 
L 473.621691 -232.960568 
L 471.9083 -235.41998 
L 470.19491 -239.070008 
L 468.48152 -243.487568 
L 466.768129 -247.37894 
L 465.054739 -249.059597 
L 463.341349 -248.208992 
L 461.627959 -245.918806 
L 459.914568 -243.998977 
L 458.201178 -245.041175 
L 456.487788 -249.838857 
L 454.774397 -256.468248 
L 453.061007 -262.74028 
L 451.347617 -266.603969 
L 449.634226 -268.530936 
L 447.920836 -270.27106 
L 446.207446 -273.820695 
L 444.494055 -279.553941 
L 442.780665 -285.83197 
L 441.067275 -290.362805 
L 439.353885 -292.41578 
L 437.640494 -292.257409 
L 435.927104 -292.275004 
L 434.213714 -294.300936 
L 432.500323 -298.787191 
L 430.786933 -304.858327 
L 429.073543 -310.852127 
L 427.360152 -315.443338 
L 425.646762 -318.875798 
L 423.933372 -322.103857 
L 422.219981 -325.863708 
L 420.506591 -329.375022 
L 418.793201 -331.889812 
L 417.079811 -332.123482 
L 415.36642 -330.833649 
L 413.65303 -329.440337 
L 411.93964 -330.597568 
L 410.226249 -336.220344 
L 408.512859 -345.616627 
L 406.799469 -357.049295 
L 405.086078 -367.583301 
L 403.372688 -375.037786 
L 401.659298 -378.18033 
L 399.945907 -378.358901 
L 398.232517 -377.166108 
L 396.519127 -377.208218 
L 394.805737 -379.258719 
L 393.092346 -383.158127 
L 391.378956 -386.949177 
L 389.665566 -388.804164 
L 387.952175 -387.97754 
L 386.238785 -384.69934 
L 384.525395 -381.233032 
L 382.812004 -379.912518 
L 381.098614 -381.607586 
L 379.385224 -385.208013 
L 377.671833 -387.779689 
L 375.958443 -387.401402 
L 374.245053 -382.137641 
L 372.531663 -373.805522 
L 370.818272 -365.011062 
L 369.104882 -358.815799 
L 367.391492 -355.74182 
L 365.678101 -354.849895 
L 363.964711 -353.904416 
L 362.251321 -351.593175 
L 360.53793 -347.757079 
L 358.82454 -342.739928 
L 357.11115 -338.818201 
L 355.397759 -337.039129 
L 353.684369 -337.72583 
L 351.970979 -339.937167 
L 350.257589 -341.85763 
L 348.544198 -341.54004 
L 346.830808 -337.445738 
L 345.117418 -330.526379 
L 343.404027 -322.189229 
L 341.690637 -315.961346 
L 339.977247 -314.066246 
L 338.263856 -316.860005 
L 336.550466 -321.724123 
L 334.837076 -325.098823 
L 333.123685 -325.238148 
L 331.410295 -321.64158 
L 329.696905 -315.998264 
L 327.983515 -311.420666 
L 326.270124 -309.516421 
L 324.556734 -310.33948 
L 322.843344 -311.928609 
L 321.129953 -312.297549 
L 319.416563 -311.328907 
L 317.703173 -310.122426 
L 315.989782 -310.208343 
L 314.276392 -312.517356 
L 312.563002 -316.409667 
L 310.849611 -320.072746 
L 309.136221 -321.969597 
L 307.422831 -321.558813 
L 305.709441 -318.970407 
L 303.99605 -314.2845 
L 302.28266 -307.927967 
L 300.56927 -300.776186 
L 298.855879 -293.338593 
L 297.142489 -285.831576 
L 295.429099 -278.480755 
L 293.715708 -271.262677 
L 292.002318 -263.515815 
L 290.288928 -255.617486 
L 288.575537 -248.353159 
L 286.862147 -242.902868 
L 285.148757 -239.658657 
L 283.435367 -238.225677 
L 281.721976 -236.861351 
L 280.008586 -234.123221 
L 278.295196 -230.681518 
L 276.581805 -228.025209 
L 274.868415 -229.425523 
L 273.155025 -235.963492 
L 271.441634 -246.956352 
L 269.728244 -259.949212 
L 268.014854 -272.335315 
L 266.301463 -282.311958 
L 264.588073 -290.240354 
L 262.874683 -297.612969 
L 261.161293 -304.804225 
L 259.447902 -311.61246 
L 257.734512 -317.791111 
L 256.021122 -322.370593 
L 254.307731 -325.437844 
L 252.594341 -327.376604 
L 250.880951 -329.55025 
L 249.16756 -331.721751 
L 247.45417 -333.731062 
L 245.74078 -335.738275 
L 244.027389 -337.507933 
L 242.313999 -339.504004 
L 240.600609 -342.448804 
L 238.887219 -346.598542 
L 237.173828 -351.599862 
L 235.460438 -356.813203 
L 233.747048 -360.990849 
L 232.033657 -364.06535 
L 230.320267 -366.660004 
L 228.606877 -368.940646 
L 226.893486 -370.290512 
L 225.180096 -369.832553 
L 223.466706 -366.374648 
L 221.753315 -360.548861 
L 220.039925 -353.09655 
L 218.326535 -344.269132 
L 216.613145 -334.491879 
L 214.899754 -324.349502 
L 213.186364 -313.851719 
L 211.472974 -304.094605 
L 209.759583 -296.947308 
L 208.046193 -293.750188 
L 206.332803 -295.85183 
L 204.619412 -302.673123 
L 202.906022 -312.07931 
L 201.192632 -321.447692 
L 199.479241 -328.764562 
L 197.765851 -333.677723 
L 196.052461 -336.987315 
L 194.339071 -338.987457 
L 192.62568 -339.430421 
L 190.91229 -336.555808 
L 189.1989 -329.305033 
L 187.485509 -317.533407 
L 185.772119 -303.122218 
L 184.058729 -290.27063 
L 182.345338 -281.884942 
L 180.631948 -278.262143 
L 178.918558 -277.149277 
L 177.205167 -276.446023 
L 175.491777 -275.302003 
L 173.778387 -272.77224 
L 172.064997 -270.357046 
L 170.351606 -269.10963 
L 168.638216 -269.339511 
L 166.924826 -268.625982 
L 165.211435 -266.004167 
L 163.498045 -261.400076 
L 161.784655 -256.216278 
L 160.071264 -253.276781 
L 158.357874 -252.499923 
L 156.644484 -252.792085 
L 154.931093 -251.034411 
L 153.217703 -246.458575 
L 151.504313 -239.675464 
L 149.790923 -233.754392 
L 148.077532 -232.601926 
L 146.364142 -236.993597 
L 144.650752 -245.109544 
L 142.937361 -252.427801 
L 141.223971 -255.187497 
L 139.510581 -251.523728 
L 137.79719 -243.94581 
L 136.0838 -235.543365 
L 134.37041 -229.526129 
L 132.657019 -227.169169 
L 130.943629 -227.241297 
L 129.230239 -227.744097 
L 127.516849 -227.801422 
L 125.803458 -227.302633 
L 124.090068 -226.787268 
L 122.376678 -227.138827 
L 120.663287 -228.40707 
L 118.949897 -229.797126 
L 117.236507 -231.008432 
L 115.523116 -231.526239 
L 113.809726 -231.070262 
L 112.096336 -230.111693 
L 110.382945 -229.013968 
L 108.669555 -228.166793 
L 106.956165 -227.957905 
L 105.242775 -229.038727 
L 103.529384 -231.644648 
L 101.815994 -234.486584 
L 100.102604 -236.341735 
L 98.389213 -235.99473 
L 96.675823 -232.866102 
L 94.962433 -227.998484 
L 93.249042 -223.505725 
L 91.535652 -221.247128 
L 89.822262 -221.698858 
L 88.108871 -224.798004 
L 86.395481 -228.612937 
L 84.682091 -230.864007 
L 82.968701 -230.35462 
L 81.25531 -226.839876 
L 79.54192 -221.219601 
L 77.82853 -215.959645 
L 76.115139 -213.433286 
L 74.401749 -214.151027 
L 72.688359 -217.708588 
L 70.974968 -222.194904 
L 69.261578 -225.356672 
L 67.548188 -225.699056 
L 65.834797 -222.629626 
L 64.121407 -218.5084 
L 62.408017 -215.538077 
L 60.694627 -215.883706 
L 58.981236 -219.929203 
L 57.267846 -226.126957 
L 55.554456 -232.156417 
L 53.841065 -235.788402 
L 52.127675 -236.006059 
L 50.414285 -233.091441 
L 48.700894 -229.069341 
L 46.987504 -226.409357 
L 45.274114 -227.393126 
L 43.560723 -232.555224 
L 41.847333 -240.293024 
L 40.133943 -247.590657 
L 38.420552 -251.804669 
z
" style="stroke: #1f77b4; stroke-opacity: 0.3"/>
    </defs>
    <g>
     <use xlink:href="#md20a743125" x="0" y="432" style="fill: #1f77b4; fill-opacity: 0.3; stroke: #1f77b4; stroke-opacity: 0.3"/>
    </g>
   </g>
   <g id="FillBetweenPolyCollection_2">
    <defs>
     <path id="m1983d3a957" d="M 38.420552 -214.025046 
L 38.420552 -205.191142 
L 40.133943 -206.328081 
L 41.847333 -209.851922 
L 43.560723 -214.822245 
L 45.274114 -219.071199 
L 46.987504 -220.385808 
L 48.700894 -218.27387 
L 50.414285 -213.430397 
L 52.127675 -207.662865 
L 53.841065 -203.559316 
L 55.554456 -202.874704 
L 57.267846 -205.211099 
L 58.981236 -209.006679 
L 60.694627 -212.042999 
L 62.408017 -213.114641 
L 64.121407 -212.998492 
L 65.834797 -212.619314 
L 67.548188 -213.800439 
L 69.261578 -216.79705 
L 70.974968 -221.017105 
L 72.688359 -224.78993 
L 74.401749 -227.043815 
L 76.115139 -227.542825 
L 77.82853 -226.385437 
L 79.54192 -224.348185 
L 81.25531 -222.90201 
L 82.968701 -222.470916 
L 84.682091 -223.052505 
L 86.395481 -223.895781 
L 88.108871 -225.08699 
L 89.822262 -225.482806 
L 91.535652 -225.205343 
L 93.249042 -224.488648 
L 94.962433 -223.069072 
L 96.675823 -221.318849 
L 98.389213 -219.634572 
L 100.102604 -218.893189 
L 101.815994 -219.515123 
L 103.529384 -220.814408 
L 105.242775 -221.916859 
L 106.956165 -222.385556 
L 108.669555 -221.707925 
L 110.382945 -220.402684 
L 112.096336 -219.368331 
L 113.809726 -219.549454 
L 115.523116 -221.614724 
L 117.236507 -225.001212 
L 118.949897 -229.084358 
L 120.663287 -232.960273 
L 122.376678 -235.851926 
L 124.090068 -238.44728 
L 125.803458 -241.418175 
L 127.516849 -244.714602 
L 129.230239 -248.269118 
L 130.943629 -250.356123 
L 132.657019 -249.683381 
L 134.37041 -245.998444 
L 136.0838 -240.883254 
L 137.79719 -236.749019 
L 139.510581 -236.1789 
L 141.223971 -239.138483 
L 142.937361 -244.162876 
L 144.650752 -249.149406 
L 146.364142 -252.307377 
L 148.077532 -252.853036 
L 149.790923 -252.026452 
L 151.504313 -252.692131 
L 153.217703 -255.753316 
L 154.931093 -261.131975 
L 156.644484 -267.169856 
L 158.357874 -271.960699 
L 160.071264 -274.740021 
L 161.784655 -275.739248 
L 163.498045 -276.375094 
L 165.211435 -277.593009 
L 166.924826 -280.071596 
L 168.638216 -283.100323 
L 170.351606 -286.218656 
L 172.064997 -288.813184 
L 173.778387 -291.323776 
L 175.491777 -295.169021 
L 177.205167 -302.003586 
L 178.918558 -312.957272 
L 180.631948 -327.699591 
L 182.345338 -344.587446 
L 184.058729 -361.691699 
L 185.772119 -378.087922 
L 187.485509 -391.660157 
L 189.1989 -400.459447 
L 190.91229 -402.860516 
L 192.62568 -398.42347 
L 194.339071 -386.636413 
L 196.052461 -368.641502 
L 197.765851 -346.982103 
L 199.479241 -325.615225 
L 201.192632 -307.886527 
L 202.906022 -295.963741 
L 204.619412 -289.876498 
L 206.332803 -287.520972 
L 208.046193 -287.472674 
L 209.759583 -288.984422 
L 211.472974 -293.853559 
L 213.186364 -303.669446 
L 214.899754 -318.455156 
L 216.613145 -336.131737 
L 218.326535 -351.212138 
L 220.039925 -359.219504 
L 221.753315 -359.591233 
L 223.466706 -354.260252 
L 225.180096 -347.174205 
L 226.893486 -341.667761 
L 228.606877 -337.525526 
L 230.320267 -333.386517 
L 232.033657 -328.183946 
L 233.747048 -321.4228 
L 235.460438 -314.914082 
L 237.173828 -310.898535 
L 238.887219 -309.99557 
L 240.600609 -311.181136 
L 242.313999 -311.580977 
L 244.027389 -309.103848 
L 245.74078 -304.858157 
L 247.45417 -301.063285 
L 249.16756 -300.114557 
L 250.880951 -302.071783 
L 252.594341 -304.629207 
L 254.307731 -303.44818 
L 256.021122 -296.991822 
L 257.734512 -285.542424 
L 259.447902 -271.48094 
L 261.161293 -258.273863 
L 262.874683 -247.395435 
L 264.588073 -237.961731 
L 266.301463 -228.832848 
L 268.014854 -218.799821 
L 269.728244 -208.696897 
L 271.441634 -200.706654 
L 273.155025 -196.653188 
L 274.868415 -197.264583 
L 276.581805 -201.925835 
L 278.295196 -208.982242 
L 280.008586 -216.631909 
L 281.721976 -223.695721 
L 283.435367 -229.761331 
L 285.148757 -235.17453 
L 286.862147 -240.028541 
L 288.575537 -244.421234 
L 290.288928 -248.738124 
L 292.002318 -253.630155 
L 293.715708 -258.645317 
L 295.429099 -264.258742 
L 297.142489 -269.176841 
L 298.855879 -272.319392 
L 300.56927 -272.685443 
L 302.28266 -271.222309 
L 303.99605 -269.16821 
L 305.709441 -268.951503 
L 307.422831 -271.695119 
L 309.136221 -277.264292 
L 310.849611 -284.307098 
L 312.563002 -289.866634 
L 314.276392 -291.868204 
L 315.989782 -289.784661 
L 317.703173 -283.756084 
L 319.416563 -276.688326 
L 321.129953 -270.658981 
L 322.843344 -267.229437 
L 324.556734 -266.474342 
L 326.270124 -267.16787 
L 327.983515 -267.386622 
L 329.696905 -266.230211 
L 331.410295 -264.589193 
L 333.123685 -263.557243 
L 334.837076 -263.925424 
L 336.550466 -265.417668 
L 338.263856 -267.057772 
L 339.977247 -267.973636 
L 341.690637 -268.661817 
L 343.404027 -270.006585 
L 345.117418 -272.594735 
L 346.830808 -276.315089 
L 348.544198 -279.676487 
L 350.257589 -281.056038 
L 351.970979 -280.663669 
L 353.684369 -279.539516 
L 355.397759 -281.272587 
L 357.11115 -286.937299 
L 358.82454 -296.156183 
L 360.53793 -305.892744 
L 362.251321 -311.919766 
L 363.964711 -312.553708 
L 365.678101 -308.762121 
L 367.391492 -304.941179 
L 369.104882 -304.983577 
L 370.818272 -310.864373 
L 372.531663 -320.124093 
L 374.245053 -328.126213 
L 375.958443 -331.136712 
L 377.671833 -328.778738 
L 379.385224 -323.638702 
L 381.098614 -320.633901 
L 382.812004 -322.790829 
L 384.525395 -329.162617 
L 386.238785 -335.611529 
L 387.952175 -337.817272 
L 389.665566 -334.059251 
L 391.378956 -326.246528 
L 393.092346 -318.393457 
L 394.805737 -314.408527 
L 396.519127 -314.951448 
L 398.232517 -318.186902 
L 399.945907 -320.591676 
L 401.659298 -319.710768 
L 403.372688 -315.58607 
L 405.086078 -310.575513 
L 406.799469 -307.29762 
L 408.512859 -307.682196 
L 410.226249 -311.118335 
L 411.93964 -315.847412 
L 413.65303 -319.106961 
L 415.36642 -319.632 
L 417.079811 -316.92207 
L 418.793201 -311.900617 
L 420.506591 -305.661005 
L 422.219981 -299.424232 
L 423.933372 -293.183729 
L 425.646762 -287.679572 
L 427.360152 -283.986892 
L 429.073543 -282.63245 
L 430.786933 -283.109724 
L 432.500323 -284.356612 
L 434.213714 -284.322742 
L 435.927104 -281.301687 
L 437.640494 -275.110739 
L 439.353885 -266.620832 
L 441.067275 -258.509478 
L 442.780665 -252.480316 
L 444.494055 -249.201736 
L 446.207446 -247.013565 
L 447.920836 -243.151808 
L 449.634226 -236.308413 
L 451.347617 -227.18951 
L 453.061007 -217.841211 
L 454.774397 -210.844966 
L 456.487788 -206.992526 
L 458.201178 -205.732806 
L 459.914568 -204.993203 
L 461.627959 -203.070367 
L 463.341349 -199.476849 
L 465.054739 -195.392405 
L 466.768129 -192.321793 
L 468.48152 -190.670284 
L 470.19491 -190.00334 
L 471.9083 -188.617695 
L 473.621691 -184.928851 
L 475.335081 -178.473949 
L 477.048471 -170.519621 
L 478.761862 -163.513865 
L 480.475252 -158.619318 
L 482.188642 -156.747163 
L 483.902033 -157.334193 
L 485.615423 -159.452135 
L 487.328813 -161.684344 
L 489.042203 -162.861615 
L 490.755594 -162.995216 
L 492.468984 -162.583633 
L 494.182374 -162.578017 
L 495.895765 -163.436454 
L 497.609155 -164.877919 
L 499.322545 -166.230295 
L 501.035936 -166.834563 
L 502.749326 -165.946154 
L 504.462716 -164.621804 
L 506.176107 -163.237581 
L 507.889497 -162.406158 
L 509.602887 -161.6588 
L 511.316277 -159.919807 
L 513.029668 -157.080331 
L 514.743058 -153.640225 
L 516.456448 -151.907066 
L 518.169839 -153.181014 
L 519.883229 -158.352721 
L 521.596619 -165.187704 
L 523.31001 -170.257621 
L 525.0234 -170.988009 
L 526.73679 -167.372438 
L 528.450181 -161.745695 
L 530.163571 -157.944853 
L 531.876961 -158.618212 
L 533.590351 -163.040716 
L 535.303742 -168.50194 
L 537.017132 -171.631988 
L 538.730522 -170.974095 
L 540.443913 -167.374166 
L 542.157303 -162.96338 
L 543.870693 -159.557615 
L 545.584084 -157.498124 
L 547.297474 -156.289426 
L 549.010864 -155.256231 
L 550.724255 -153.635808 
L 552.437645 -152.357425 
L 554.151035 -152.220925 
L 555.864425 -153.780148 
L 557.577816 -156.006852 
L 559.291206 -158.09236 
L 561.004596 -158.290264 
L 562.717987 -157.219418 
L 564.431377 -155.269567 
L 564.431377 -166.747909 
L 564.431377 -166.747909 
L 562.717987 -168.48225 
L 561.004596 -169.680613 
L 559.291206 -169.315922 
L 557.577816 -167.465843 
L 555.864425 -165.282883 
L 554.151035 -163.698865 
L 552.437645 -163.464232 
L 550.724255 -164.396804 
L 549.010864 -165.977367 
L 547.297474 -167.246385 
L 545.584084 -168.335803 
L 543.870693 -170.030319 
L 542.157303 -173.25526 
L 540.443913 -177.935588 
L 538.730522 -181.665513 
L 537.017132 -182.399336 
L 535.303742 -179.481961 
L 533.590351 -174.373369 
L 531.876961 -170.306282 
L 530.163571 -169.839944 
L 528.450181 -173.236375 
L 526.73679 -178.586267 
L 525.0234 -181.826574 
L 523.31001 -180.921806 
L 521.596619 -175.914485 
L 519.883229 -169.342922 
L 518.169839 -164.338406 
L 516.456448 -163.055455 
L 514.743058 -164.937353 
L 513.029668 -168.273995 
L 511.316277 -171.438913 
L 509.602887 -173.603166 
L 507.889497 -174.795018 
L 506.176107 -176.06762 
L 504.462716 -177.495111 
L 502.749326 -178.537571 
L 501.035936 -178.904112 
L 499.322545 -178.269597 
L 497.609155 -176.783836 
L 495.895765 -175.33842 
L 494.182374 -174.507636 
L 492.468984 -174.63849 
L 490.755594 -175.075946 
L 489.042203 -175.101385 
L 487.328813 -174.201477 
L 485.615423 -172.321357 
L 483.902033 -170.18116 
L 482.188642 -169.221392 
L 480.475252 -170.623887 
L 478.761862 -175.059209 
L 477.048471 -181.918814 
L 475.335081 -189.671101 
L 473.621691 -196.239509 
L 471.9083 -200.21122 
L 470.19491 -201.587306 
L 468.48152 -202.108115 
L 466.768129 -203.544528 
L 465.054739 -206.460642 
L 463.341349 -210.483495 
L 461.627959 -214.166546 
L 459.914568 -216.22656 
L 458.201178 -216.72116 
L 456.487788 -218.025875 
L 454.774397 -221.849733 
L 453.061007 -229.388039 
L 451.347617 -239.023713 
L 449.634226 -248.23724 
L 447.920836 -255.103031 
L 446.207446 -259.014023 
L 444.494055 -261.167383 
L 442.780665 -264.355076 
L 441.067275 -270.206462 
L 439.353885 -278.393369 
L 437.640494 -287.002539 
L 435.927104 -293.234419 
L 434.213714 -295.959649 
L 432.500323 -295.608195 
L 430.786933 -294.222917 
L 429.073543 -293.856233 
L 427.360152 -295.833254 
L 425.646762 -299.843707 
L 423.933372 -305.743066 
L 422.219981 -312.082771 
L 420.506591 -318.404555 
L 418.793201 -324.222458 
L 417.079811 -328.809471 
L 415.36642 -331.364648 
L 413.65303 -330.84976 
L 411.93964 -327.527674 
L 410.226249 -323.009579 
L 408.512859 -319.588589 
L 406.799469 -319.063373 
L 405.086078 -322.006113 
L 403.372688 -327.058297 
L 401.659298 -331.223304 
L 399.945907 -332.254156 
L 398.232517 -329.914135 
L 396.519127 -326.771439 
L 394.805737 -326.166119 
L 393.092346 -329.798875 
L 391.378956 -337.223492 
L 389.665566 -344.711898 
L 387.952175 -348.479377 
L 386.238785 -346.570283 
L 384.525395 -340.511721 
L 382.812004 -334.430791 
L 381.098614 -332.176692 
L 379.385224 -335.174177 
L 377.671833 -340.112938 
L 375.958443 -342.595994 
L 374.245053 -339.671551 
L 372.531663 -331.600074 
L 370.818272 -322.199503 
L 369.104882 -316.3201 
L 367.391492 -315.952238 
L 365.678101 -319.93323 
L 363.964711 -323.957803 
L 362.251321 -323.574499 
L 360.53793 -317.57263 
L 358.82454 -308.014361 
L 357.11115 -298.761188 
L 355.397759 -293.040379 
L 353.684369 -291.51003 
L 351.970979 -292.308488 
L 350.257589 -292.77914 
L 348.544198 -291.419835 
L 346.830808 -288.172235 
L 345.117418 -284.66579 
L 343.404027 -282.17138 
L 341.690637 -281.096919 
L 339.977247 -280.766331 
L 338.263856 -280.050713 
L 336.550466 -278.810286 
L 334.837076 -277.674559 
L 333.123685 -277.525192 
L 331.410295 -278.493758 
L 329.696905 -280.026177 
L 327.983515 -280.606071 
L 326.270124 -280.021091 
L 324.556734 -279.098857 
L 322.843344 -279.54835 
L 321.129953 -282.872166 
L 319.416563 -289.196817 
L 317.703173 -296.592966 
L 315.989782 -302.437293 
L 314.276392 -304.474405 
L 312.563002 -302.011512 
L 310.849611 -296.165071 
L 309.136221 -289.202789 
L 307.422831 -283.551072 
L 305.709441 -280.944162 
L 303.99605 -281.087906 
L 302.28266 -283.313655 
L 300.56927 -284.915379 
L 298.855879 -284.689234 
L 297.142489 -281.758656 
L 295.429099 -276.815076 
L 293.715708 -271.466994 
L 292.002318 -266.224729 
L 290.288928 -261.264434 
L 288.575537 -256.548631 
L 286.862147 -251.898961 
L 285.148757 -247.093155 
L 283.435367 -241.633759 
L 281.721976 -235.494536 
L 280.008586 -228.453897 
L 278.295196 -220.897895 
L 276.581805 -213.92683 
L 274.868415 -208.953815 
L 273.155025 -207.932681 
L 271.441634 -211.936571 
L 269.728244 -219.945455 
L 268.014854 -229.663079 
L 266.301463 -239.622233 
L 264.588073 -248.862566 
L 262.874683 -258.280842 
L 261.161293 -269.593 
L 259.447902 -283.117128 
L 257.734512 -297.39422 
L 256.021122 -308.991591 
L 254.307731 -315.532933 
L 252.594341 -316.387096 
L 250.880951 -314.025864 
L 249.16756 -312.158152 
L 247.45417 -312.853863 
L 245.74078 -316.362127 
L 244.027389 -320.235085 
L 242.313999 -322.322357 
L 240.600609 -321.991176 
L 238.887219 -320.919573 
L 237.173828 -321.781314 
L 235.460438 -325.928048 
L 233.747048 -332.467766 
L 232.033657 -339.381014 
L 230.320267 -344.616487 
L 228.606877 -348.457993 
L 226.893486 -352.353356 
L 225.180096 -358.274335 
L 223.466706 -365.602102 
L 221.753315 -371.205738 
L 220.039925 -371.119962 
L 218.326535 -362.946267 
L 216.613145 -347.97303 
L 214.899754 -330.210608 
L 213.186364 -314.839739 
L 211.472974 -304.921875 
L 209.759583 -299.673888 
L 208.046193 -297.692382 
L 206.332803 -297.862497 
L 204.619412 -300.500693 
L 202.906022 -307.110906 
L 201.192632 -319.285365 
L 199.479241 -337.238823 
L 197.765851 -358.50651 
L 196.052461 -379.890499 
L 194.339071 -397.865992 
L 192.62568 -409.407915 
L 190.91229 -413.881635 
L 189.1989 -411.557152 
L 187.485509 -402.744236 
L 185.772119 -388.930579 
L 184.058729 -372.505575 
L 182.345338 -355.395935 
L 180.631948 -338.696004 
L 178.918558 -324.028517 
L 177.205167 -313.021497 
L 175.491777 -305.821214 
L 173.778387 -301.617468 
L 172.064997 -299.004903 
L 170.351606 -296.852661 
L 168.638216 -293.940032 
L 166.924826 -290.992382 
L 165.211435 -288.630433 
L 163.498045 -287.073748 
L 161.784655 -285.877325 
L 160.071264 -284.465349 
L 158.357874 -281.325407 
L 156.644484 -276.199421 
L 154.931093 -270.308922 
L 153.217703 -265.038415 
L 151.504313 -262.273792 
L 149.790923 -261.966747 
L 148.077532 -262.810552 
L 146.364142 -262.542061 
L 144.650752 -259.245158 
L 142.937361 -253.793599 
L 141.223971 -247.776101 
L 139.510581 -244.251974 
L 137.79719 -244.607548 
L 136.0838 -248.490595 
L 134.37041 -253.532455 
L 132.657019 -257.246341 
L 130.943629 -258.064149 
L 129.230239 -255.657585 
L 127.516849 -252.026354 
L 125.803458 -248.494347 
L 124.090068 -245.545209 
L 122.376678 -243.159992 
L 120.663287 -240.429089 
L 118.949897 -236.896272 
L 117.236507 -232.879731 
L 115.523116 -229.288929 
L 113.809726 -226.707144 
L 112.096336 -226.231625 
L 110.382945 -227.08448 
L 108.669555 -228.494639 
L 106.956165 -229.165955 
L 105.242775 -228.797796 
L 103.529384 -227.760652 
L 101.815994 -226.407492 
L 100.102604 -226.065181 
L 98.389213 -226.55436 
L 96.675823 -228.390788 
L 94.962433 -230.403645 
L 93.249042 -231.930572 
L 91.535652 -232.621349 
L 89.822262 -232.407495 
L 88.108871 -231.525922 
L 86.395481 -230.008855 
L 84.682091 -228.974262 
L 82.968701 -228.830525 
L 81.25531 -229.682213 
L 79.54192 -231.384772 
L 77.82853 -233.226749 
L 76.115139 -234.22713 
L 74.401749 -233.554892 
L 72.688359 -231.366777 
L 70.974968 -227.692498 
L 69.261578 -223.696927 
L 67.548188 -221.073679 
L 65.834797 -220.157642 
L 64.121407 -220.263998 
L 62.408017 -220.411875 
L 60.694627 -219.213201 
L 58.981236 -215.94342 
L 57.267846 -211.890419 
L 55.554456 -209.71227 
L 53.841065 -210.692453 
L 52.127675 -214.974691 
L 50.414285 -220.592695 
L 48.700894 -225.384285 
L 46.987504 -227.682693 
L 45.274114 -226.296162 
L 43.560723 -222.383788 
L 41.847333 -217.947638 
L 40.133943 -214.794405 
L 38.420552 -214.025046 
z
" style="stroke: #ff7f0e; stroke-opacity: 0.3"/>
    </defs>
    <g>
     <use xlink:href="#m1983d3a957" x="0" y="432" style="fill: #ff7f0e; fill-opacity: 0.3; stroke: #ff7f0e; stroke-opacity: 0.3"/>
    </g>
   </g>
   <g id="line2d_17">
    <path d="M 38.420552 184.572639 
L 40.133943 188.593129 
L 41.847333 195.965684 
L 43.560723 203.894793 
L 45.274114 209.180236 
L 46.987504 210.204218 
L 48.700894 207.386133 
L 50.414285 203.075789 
L 52.127675 199.941661 
L 53.841065 200.045139 
L 55.554456 203.679521 
L 58.981236 215.898243 
L 60.694627 219.840131 
L 62.408017 220.135016 
L 64.121407 217.266992 
L 65.834797 213.120732 
L 67.548188 210.056443 
L 69.261578 210.046363 
L 70.974968 213.202154 
L 72.688359 217.957758 
L 74.401749 221.880153 
L 76.115139 222.812097 
L 77.82853 220.125661 
L 79.54192 214.612704 
L 81.25531 208.699996 
L 82.968701 204.973511 
L 84.682091 204.658312 
L 86.395481 207.12352 
L 88.108871 210.950056 
L 89.822262 213.948323 
L 91.535652 214.505042 
L 93.249042 212.070072 
L 94.962433 207.546236 
L 96.675823 202.603214 
L 98.389213 199.385731 
L 100.102604 198.950125 
L 101.815994 200.793949 
L 103.529384 203.676705 
L 105.242775 206.25194 
L 106.956165 207.578707 
L 108.669555 207.545227 
L 110.382945 206.714051 
L 112.096336 205.635114 
L 113.809726 204.779803 
L 115.523116 204.46145 
L 117.236507 204.878497 
L 118.949897 205.955693 
L 122.376678 208.601319 
L 124.090068 209.257233 
L 127.516849 208.65054 
L 129.230239 209.00417 
L 130.943629 209.665452 
L 132.657019 209.647162 
L 134.37041 207.176044 
L 136.0838 201.278228 
L 137.79719 193.080679 
L 139.510581 185.635523 
L 141.223971 182.27769 
L 142.937361 184.80427 
L 144.650752 192.025034 
L 146.364142 200.145371 
L 148.077532 204.666082 
L 149.790923 203.458046 
L 151.504313 197.729205 
L 153.217703 191.054977 
L 154.931093 186.522187 
L 156.644484 184.98642 
L 158.357874 184.971478 
L 160.071264 184.196098 
L 161.784655 181.25966 
L 163.498045 176.053493 
L 165.211435 171.407254 
L 166.924826 168.784782 
L 168.638216 167.973807 
L 170.351606 167.967585 
L 172.064997 166.772644 
L 175.491777 162.251053 
L 177.205167 161.21355 
L 178.918558 160.996754 
L 180.631948 160.026243 
L 182.345338 156.518811 
L 184.058729 148.270744 
L 185.772119 135.203779 
L 187.485509 120.653807 
L 189.1989 108.594104 
L 190.91229 101.28767 
L 192.62568 98.382514 
L 194.339071 98.582816 
L 196.052461 100.541355 
L 197.765851 103.814086 
L 199.479241 108.90965 
L 201.192632 116.351255 
L 204.619412 135.005073 
L 206.332803 141.859407 
L 208.046193 144.153883 
L 209.759583 141.232817 
L 211.472974 134.08126 
L 213.186364 124.454427 
L 216.613145 103.72536 
L 218.326535 93.963151 
L 220.039925 85.185262 
L 221.753315 77.599899 
L 223.466706 71.787074 
L 225.180096 68.494446 
L 226.893486 67.951464 
L 228.606877 69.211864 
L 230.320267 71.452698 
L 232.033657 74.068761 
L 233.747048 77.182609 
L 235.460438 81.23213 
L 238.887219 91.084053 
L 240.600609 95.256389 
L 242.313999 98.354302 
L 244.027389 100.413575 
L 247.45417 104.062078 
L 252.594341 110.473466 
L 254.307731 112.646536 
L 256.021122 116.099247 
L 257.734512 121.005634 
L 259.447902 127.093432 
L 264.588073 148.086503 
L 266.301463 156.037662 
L 268.014854 166.299341 
L 271.441634 191.970944 
L 273.155025 202.859283 
L 274.868415 209.232964 
L 276.581805 210.557883 
L 278.295196 208.289808 
L 280.008586 204.821252 
L 281.721976 202.129092 
L 283.435367 200.515035 
L 285.148757 198.747593 
L 286.862147 195.258475 
L 288.575537 189.68879 
L 290.288928 182.419462 
L 293.715708 167.056509 
L 297.142489 153.262846 
L 302.28266 130.712163 
L 303.99605 124.176256 
L 305.709441 119.306696 
L 307.422831 116.563101 
L 309.136221 116.216577 
L 310.849611 118.213526 
L 314.276392 125.778167 
L 315.989782 128.194083 
L 317.703173 128.559327 
L 319.416563 127.334931 
L 321.129953 126.463737 
L 322.843344 126.897675 
L 324.556734 128.371854 
L 326.270124 129.140491 
L 327.983515 127.237468 
L 329.696905 122.56603 
L 331.410295 117.057859 
L 333.123685 113.408643 
L 334.837076 113.434532 
L 336.550466 117.03415 
L 338.263856 121.771407 
L 339.977247 124.479503 
L 341.690637 122.524025 
L 343.404027 116.160639 
L 345.117418 107.72516 
L 346.830808 100.515199 
L 348.544198 96.578517 
L 350.257589 96.294862 
L 351.970979 98.401254 
L 353.684369 100.831832 
L 355.397759 101.632998 
L 357.11115 99.861728 
L 358.82454 95.793622 
L 360.53793 90.935436 
L 362.251321 86.985431 
L 363.964711 84.670828 
L 365.678101 83.897302 
L 367.391492 82.96438 
L 369.104882 79.785909 
L 370.818272 73.438124 
L 374.245053 56.401204 
L 375.958443 51.210933 
L 377.671833 50.475493 
L 379.385224 52.967111 
L 381.098614 56.459489 
L 382.812004 58.228951 
L 384.525395 57.028507 
L 387.952175 50.453877 
L 389.665566 49.42896 
L 391.378956 51.463356 
L 394.805737 59.810446 
L 396.519127 62.190969 
L 398.232517 62.230559 
L 399.945907 60.995118 
L 401.659298 60.881326 
L 403.372688 63.978489 
L 405.086078 71.218032 
L 406.799469 81.678019 
L 408.512859 93.217158 
L 410.226249 102.757836 
L 411.93964 108.143569 
L 413.65303 109.299643 
L 417.079811 106.661097 
L 418.793201 107.18697 
L 420.506591 109.814118 
L 423.933372 116.935433 
L 427.360152 123.179251 
L 429.073543 127.689991 
L 432.500323 139.971157 
L 434.213714 144.616253 
L 435.927104 146.471644 
L 439.353885 145.84035 
L 441.067275 147.69253 
L 442.780665 152.467064 
L 444.494055 158.948234 
L 446.207446 164.746895 
L 447.920836 168.373947 
L 451.347617 172.157746 
L 453.061007 176.074767 
L 456.487788 188.696467 
L 458.201178 193.063427 
L 459.914568 193.894318 
L 461.627959 191.897988 
L 463.341349 189.426279 
L 465.054739 188.668006 
L 466.768129 190.586696 
L 468.48152 194.42071 
L 470.19491 198.582381 
L 471.9083 201.993994 
L 473.621691 204.210136 
L 477.048471 207.528531 
L 478.761862 209.777047 
L 480.475252 213.038565 
L 482.188642 217.460868 
L 483.902033 223.041838 
L 487.328813 235.225837 
L 489.042203 239.306647 
L 490.755594 240.763523 
L 492.468984 240.132043 
L 494.182374 239.146089 
L 495.895765 239.780444 
L 497.609155 242.888775 
L 499.322545 247.439692 
L 501.035936 251.317496 
L 502.749326 252.743614 
L 504.462716 251.393971 
L 506.176107 248.581076 
L 507.889497 246.033731 
L 509.602887 244.848404 
L 511.316277 244.858415 
L 513.029668 245.229639 
L 516.456448 245.738775 
L 518.169839 246.574863 
L 521.596619 249.617423 
L 523.31001 250.140039 
L 525.0234 249.281243 
L 526.73679 248.004437 
L 528.450181 247.99877 
L 530.163571 250.424214 
L 533.590351 259.06035 
L 535.303742 260.982844 
L 537.017132 259.686921 
L 538.730522 256.446497 
L 540.443913 253.869875 
L 542.157303 254.206268 
L 543.870693 258.023427 
L 547.297474 269.983991 
L 549.010864 274.140123 
L 550.724255 276.144114 
L 554.151035 277.71087 
L 555.864425 279.518675 
L 557.577816 282.165408 
L 559.291206 285.026025 
L 561.004596 287.060448 
L 562.717987 287.406375 
L 564.431377 285.676472 
L 564.431377 285.676472 
" style="fill: none; stroke: #1f77b4; stroke-width: 1.5; stroke-linecap: square"/>
   </g>
   <g id="line2d_18">
    <path d="M 38.420552 222.336246 
L 40.133943 221.419612 
L 41.847333 218.13474 
L 43.560723 213.474306 
L 45.274114 209.398809 
L 46.987504 207.957127 
L 48.700894 210.075821 
L 50.414285 214.974682 
L 52.127675 220.696339 
L 53.841065 224.839768 
L 55.554456 225.773725 
L 57.267846 223.447208 
L 58.981236 219.501429 
L 60.694627 216.343478 
L 62.408017 215.128714 
L 64.121407 215.188785 
L 65.834797 215.54228 
L 67.548188 214.536842 
L 69.261578 211.665592 
L 70.974968 207.595155 
L 72.688359 203.892881 
L 74.401749 201.713123 
L 76.115139 201.215054 
L 77.82853 202.416063 
L 79.54192 204.256547 
L 81.25531 205.694632 
L 82.968701 206.294842 
L 84.682091 206.09309 
L 86.395481 205.077037 
L 88.108871 203.755356 
L 89.822262 203.123397 
L 91.535652 203.074528 
L 93.249042 203.713817 
L 94.962433 205.209896 
L 96.675823 207.167175 
L 98.389213 208.930338 
L 100.102604 209.632805 
L 101.815994 209.139699 
L 105.242775 206.658919 
L 106.956165 206.228835 
L 108.669555 206.924522 
L 110.382945 208.245633 
L 112.096336 209.240335 
L 113.809726 208.9044 
L 115.523116 206.685841 
L 117.236507 203.182701 
L 118.949897 199.094383 
L 120.663287 195.472742 
L 122.376678 192.619691 
L 124.090068 190.076793 
L 125.803458 187.156459 
L 129.230239 179.949681 
L 130.943629 177.844431 
L 132.657019 178.577381 
L 134.37041 182.289964 
L 136.0838 187.381725 
L 137.79719 191.242615 
L 139.510581 191.7955 
L 141.223971 188.546653 
L 144.650752 177.755809 
L 146.364142 174.601957 
L 148.077532 174.178118 
L 149.790923 174.905719 
L 151.504313 174.470939 
L 153.217703 171.526568 
L 154.931093 166.338333 
L 156.644484 160.299489 
L 158.357874 155.322359 
L 160.071264 152.395554 
L 161.784655 151.169225 
L 163.498045 150.220373 
L 165.211435 148.919734 
L 166.924826 146.5624 
L 170.351606 140.51035 
L 173.778387 135.471921 
L 175.491777 131.508918 
L 177.205167 124.566293 
L 178.918558 113.714062 
L 180.631948 99.055295 
L 185.772119 48.763719 
L 187.485509 35.071696 
L 189.1989 26.285279 
L 190.91229 23.734571 
L 192.62568 28.217471 
L 194.339071 39.911329 
L 196.052461 57.801827 
L 199.479241 100.676283 
L 201.192632 118.410192 
L 202.906022 130.441729 
L 204.619412 136.888401 
L 206.332803 139.40625 
L 208.046193 139.634532 
L 209.759583 137.82672 
L 211.472974 132.769863 
L 213.186364 122.738948 
L 214.899754 107.630699 
L 216.613145 90.007377 
L 218.326535 74.915302 
L 220.039925 66.853695 
L 221.753315 66.692972 
L 223.466706 72.135437 
L 225.180096 79.297094 
L 226.893486 85.034532 
L 230.320267 93.046318 
L 232.033657 98.380088 
L 235.460438 111.539054 
L 237.173828 115.588428 
L 238.887219 116.448181 
L 240.600609 115.511483 
L 242.313999 115.179801 
L 244.027389 117.366261 
L 245.74078 121.501456 
L 247.45417 125.052935 
L 249.16756 125.824247 
L 250.880951 123.855071 
L 252.594341 121.518977 
L 254.307731 122.584756 
L 256.021122 129.195857 
L 257.734512 140.754216 
L 261.161293 168.093142 
L 262.874683 179.26201 
L 268.014854 207.861524 
L 269.728244 217.781582 
L 271.441634 225.718169 
L 273.155025 229.691601 
L 274.868415 228.918005 
L 276.581805 224.148726 
L 278.295196 217.096982 
L 280.008586 209.528873 
L 281.721976 202.486942 
L 283.435367 196.309735 
L 285.148757 190.863299 
L 286.862147 185.968371 
L 290.288928 177.029014 
L 293.715708 166.905849 
L 295.429099 161.490032 
L 297.142489 156.509563 
L 298.855879 153.464069 
L 300.56927 153.087123 
L 302.28266 154.673452 
L 303.99605 156.689568 
L 305.709441 156.91824 
L 307.422831 154.129615 
L 309.136221 148.477155 
L 310.849611 141.572989 
L 312.563002 135.938176 
L 314.276392 133.748989 
L 315.989782 135.944689 
L 317.703173 141.747104 
L 319.416563 148.932733 
L 321.129953 155.064248 
L 322.843344 158.475368 
L 324.556734 159.146966 
L 326.270124 158.369743 
L 327.983515 158.010989 
L 329.696905 158.861978 
L 331.410295 160.374153 
L 333.123685 161.402676 
L 334.837076 161.084424 
L 338.263856 158.215165 
L 339.977247 157.344511 
L 341.690637 156.854446 
L 343.404027 155.757793 
L 345.117418 153.302761 
L 346.830808 149.713564 
L 348.544198 146.493966 
L 350.257589 145.044349 
L 351.970979 145.465861 
L 353.684369 146.367282 
L 355.397759 144.784129 
L 357.11115 139.1099 
L 360.53793 120.141758 
L 362.251321 114.097686 
L 363.964711 113.703515 
L 367.391492 121.539222 
L 369.104882 121.338864 
L 370.818272 115.3369 
L 372.531663 105.94939 
L 374.245053 97.932024 
L 375.958443 94.988157 
L 377.671833 97.498184 
L 379.385224 102.635911 
L 381.098614 105.668522 
L 382.812004 103.496154 
L 386.238785 90.951895 
L 387.952175 88.869753 
L 389.665566 92.631241 
L 393.092346 107.899148 
L 394.805737 111.741835 
L 396.519127 111.092516 
L 398.232517 107.89354 
L 399.945907 105.582649 
L 401.659298 106.522614 
L 403.372688 110.68285 
L 405.086078 115.80199 
L 406.799469 119.035492 
L 408.512859 118.6597 
L 410.226249 115.148506 
L 411.93964 110.559712 
L 413.65303 107.296796 
L 415.36642 106.803974 
L 417.079811 109.334512 
L 418.793201 114.089271 
L 420.506591 120.013839 
L 423.933372 132.629311 
L 425.646762 138.188684 
L 427.360152 142.121002 
L 429.073543 143.770732 
L 430.786933 143.25538 
L 432.500323 141.904226 
L 434.213714 141.781848 
L 435.927104 144.715767 
L 437.640494 151.120112 
L 441.067275 167.863868 
L 442.780665 173.72222 
L 444.494055 176.928708 
L 446.207446 179.183246 
L 447.920836 182.876415 
L 449.634226 189.593013 
L 453.061007 208.424925 
L 454.774397 215.735912 
L 456.487788 219.606568 
L 458.201178 220.864844 
L 459.914568 221.53989 
L 461.627959 223.471728 
L 463.341349 227.048538 
L 465.054739 231.164845 
L 466.768129 234.260584 
L 468.48152 235.686274 
L 470.19491 236.219732 
L 471.9083 237.646301 
L 473.621691 241.495162 
L 475.335081 247.931448 
L 477.048471 255.679585 
L 478.761862 262.746773 
L 480.475252 267.467145 
L 482.188642 269.153748 
L 483.902033 268.251109 
L 487.328813 264.156381 
L 489.042203 263.109109 
L 490.755594 263.101869 
L 492.468984 263.508398 
L 494.182374 263.502526 
L 495.895765 262.697778 
L 499.322545 259.748892 
L 501.035936 259.193728 
L 502.749326 259.704439 
L 506.176107 262.509065 
L 509.602887 264.449272 
L 511.316277 266.28101 
L 513.029668 269.341555 
L 514.743058 272.792779 
L 516.456448 274.72979 
L 518.169839 273.307118 
L 519.883229 268.249934 
L 521.596619 261.568584 
L 523.31001 256.475367 
L 525.0234 255.585452 
L 526.73679 259.070772 
L 528.450181 264.467752 
L 530.163571 268.070527 
L 531.876961 267.555821 
L 533.590351 263.316771 
L 535.303742 258.023509 
L 537.017132 254.864374 
L 538.730522 255.53229 
L 540.443913 259.301392 
L 542.157303 263.887536 
L 543.870693 267.284118 
L 545.584084 269.161002 
L 549.010864 271.348543 
L 550.724255 272.844346 
L 552.437645 274.030681 
L 554.151035 273.924201 
L 555.864425 272.330317 
L 557.577816 269.973633 
L 559.291206 268.172037 
L 561.004596 267.919897 
L 562.717987 269.146996 
L 564.431377 270.965789 
L 564.431377 270.965789 
" style="fill: none; stroke: #ff7f0e; stroke-width: 1.5; stroke-linecap: square"/>
   </g>
  </g>
  <g id="axes_2">
   <g id="PathCollection_1">
    <defs>
     <path id="C0_0_18c5881885" d="M 0 1.118034 
C 0.296506 1.118034 0.580908 1.000231 0.790569 0.790569 
C 1.000231 0.580908 1.118034 0.296506 1.118034 -0 
C 1.118034 -0.296506 1.000231 -0.580908 0.790569 -0.790569 
C 0.580908 -1.000231 0.296506 -1.118034 0 -1.118034 
C -0.296506 -1.118034 -0.580908 -1.000231 -0.790569 -0.790569 
C -1.000231 -0.580908 -1.118034 -0.296506 -1.118034 0 
C -1.118034 0.296506 -1.000231 0.580908 -0.790569 0.790569 
C -0.580908 1.000231 -0.296506 1.118034 0 1.118034 
z
"/>
    </defs>
    <g clip-path="url(#p390c592eb0)">
     <use xlink:href="#C0_0_18c5881885" x="512.265629" y="76.414649" style="stroke: #000000"/>
    </g>
    <g clip-path="url(#p390c592eb0)">
     <use xlink:href="#C0_0_18c5881885" x="512.208347" y="85.803107" style="stroke: #000000"/>
    </g>
    <g clip-path="url(#p390c592eb0)">
     <use xlink:href="#C0_0_18c5881885" x="512.303484" y="66.304141" style="stroke: #000000"/>
    </g>
   </g>
   <g id="matplotlib.axis_3"/>
   <g id="matplotlib.axis_4"/>
   <g id="line2d_19">
    <path d="M 552.040001 73.636883 
L 551.96231 71.164716 
L 551.729544 68.702305 
L 551.342621 66.259369 
L 550.803068 63.845548 
L 550.113015 61.47037 
L 549.275185 59.143207 
L 548.292884 56.873244 
L 547.16999 54.66944 
L 545.910933 52.540491 
L 544.520683 50.4948 
L 543.004726 48.54044 
L 541.369045 46.685125 
L 539.620096 44.936176 
L 537.764781 43.300495 
L 535.810421 41.784539 
L 533.76473 40.394288 
L 531.635782 39.135232 
L 529.431977 38.012337 
L 527.162014 37.030037 
L 524.834851 36.192206 
L 522.459673 35.502153 
L 520.045852 34.9626 
L 517.602916 34.575677 
L 515.140506 34.342911 
L 512.668339 34.26522 
L 510.196171 34.342911 
L 507.733761 34.575677 
L 505.290825 34.9626 
L 502.877004 35.502153 
L 500.501826 36.192206 
L 498.174663 37.030037 
L 495.9047 38.012337 
L 493.700895 39.135232 
L 491.571947 40.394288 
L 489.526256 41.784539 
L 487.571896 43.300495 
L 485.716581 44.936176 
L 483.967632 46.685125 
L 482.331951 48.54044 
L 480.815994 50.4948 
L 479.425744 52.540491 
L 478.166687 54.66944 
L 477.043793 56.873244 
L 476.061492 59.143207 
L 475.223662 61.47037 
L 474.533609 63.845548 
L 473.994056 66.259369 
L 473.607133 68.702305 
L 473.374367 71.164716 
L 473.296676 73.636883 
L 473.374367 76.10905 
L 473.607133 78.571461 
L 473.994056 81.014397 
L 474.533609 83.428217 
L 475.223662 85.803396 
L 476.061492 88.130559 
L 477.043793 90.400522 
L 478.166687 92.604326 
L 479.425744 94.733275 
L 480.815994 96.778966 
L 482.331951 98.733325 
L 483.967632 100.588641 
L 485.716581 102.33759 
L 487.571896 103.97327 
L 489.526256 105.489227 
L 491.571947 106.879477 
L 493.700895 108.138534 
L 495.9047 109.261428 
L 498.174663 110.243729 
L 500.501826 111.081559 
L 502.877004 111.771612 
L 505.290825 112.311165 
L 507.733761 112.698088 
L 510.196171 112.930855 
L 512.668339 113.008546 
L 515.140506 112.930855 
L 517.602916 112.698088 
L 520.045852 112.311165 
L 522.459673 111.771612 
L 524.834851 111.081559 
L 527.162014 110.243729 
L 529.431977 109.261428 
L 531.635782 108.138534 
L 533.76473 106.879477 
L 535.810421 105.489227 
L 537.764781 103.97327 
L 539.620096 102.33759 
L 541.369045 100.588641 
L 543.004726 98.733325 
L 544.520683 96.778966 
L 545.910933 94.733275 
L 547.16999 92.604326 
L 548.292884 90.400522 
L 549.275185 88.130559 
L 550.113015 85.803396 
L 550.803068 83.428217 
L 551.342621 81.014397 
L 551.729544 78.571461 
L 551.96231 76.10905 
L 552.040001 73.636883 
" style="fill: none; stroke: #000000; stroke-linecap: square"/>
   </g>
   <g id="line2d_20">
    <path d="M 504.422357 35.13842 
L 512.668339 28.359471 
L 520.91432 35.13842 
" style="fill: none; stroke: #000000; stroke-linecap: square"/>
   </g>
   <g id="line2d_21">
    <path d="M 473.532906 69.266628 
L 472.509242 67.534275 
L 471.879296 67.47128 
L 470.94225 67.762631 
L 469.99733 69.266628 
L 470.146943 74.069971 
L 469.595739 80.975761 
L 470.776889 83.975881 
L 472.509242 84.534959 
L 474.162852 83.078208 
" style="fill: none; stroke: #000000; stroke-linecap: square"/>
   </g>
   <g id="line2d_22">
    <path d="M 551.803771 69.266628 
L 552.827435 67.534275 
L 553.457381 67.47128 
L 554.394427 67.762631 
L 555.339347 69.266628 
L 555.189734 74.069971 
L 555.740938 80.975761 
L 554.559788 83.975881 
L 552.827435 84.534959 
L 551.173825 83.078208 
" style="fill: none; stroke: #000000; stroke-linecap: square"/>
   </g>
  </g>
 </g>
 <defs>
  <clipPath id="pde6bb5e20a">
   <rect x="38.420552" y="18.118365" width="526.627645" height="380.525145"/>
  </clipPath>
  <clipPath id="p390c592eb0">
   <rect x="465.28848" y="24.127017" width="94.759718" height="93.113982"/>
  </clipPath>
 </defs>
</svg>
