<?xml version="1.0" encoding="utf-8" standalone="no"?>
<!DOCTYPE svg PUBLIC "-//W3C//DTD SVG 1.1//EN"
  "http://www.w3.org/Graphics/SVG/1.1/DTD/svg11.dtd">
<svg xmlns:xlink="http://www.w3.org/1999/xlink" width="576pt" height="432pt" viewBox="0 0 576 432" xmlns="http://www.w3.org/2000/svg" version="1.1">
 <metadata>
  <rdf:RDF xmlns:dc="http://purl.org/dc/elements/1.1/" xmlns:cc="http://creativecommons.org/ns#" xmlns:rdf="http://www.w3.org/1999/02/22-rdf-syntax-ns#">
   <cc:Work>
    <dc:type rdf:resource="http://purl.org/dc/dcmitype/StillImage"/>
    <dc:date>2025-02-12T21:11:26.650220</dc:date>
    <dc:format>image/svg+xml</dc:format>
    <dc:creator>
     <cc:Agent>
      <dc:title>Matplotlib v3.10.0, https://matplotlib.org/</dc:title>
     </cc:Agent>
    </dc:creator>
   </cc:Work>
  </rdf:RDF>
 </metadata>
 <defs>
  <style type="text/css">*{stroke-linejoin: round; stroke-linecap: butt}</style>
 </defs>
 <g id="figure_1">
  <g id="patch_1">
   <path d="M 0 432 
L 576 432 
L 576 0 
L 0 0 
z
" style="fill: #ffffff"/>
  </g>
  <g id="axes_1">
   <g id="patch_2">
    <path d="M 44.783053 398.64351 
L 572.99976 398.64351 
L 572.99976 18.118365 
L 44.783053 18.118365 
L 44.783053 398.64351 
z
" style="fill: none; opacity: 0"/>
   </g>
   <g id="patch_3">
    <path d="M 44.783053 358.557901 
L 44.783053 58.203974 
" style="fill: none; stroke: #000000; stroke-width: 0.8; stroke-linejoin: miter; stroke-linecap: square"/>
   </g>
   <g id="LineCollection_1">
    <path d="M 335.14739 18.118365 
L 335.14739 398.64351 
" clip-path="url(#pebbe61dacb)" style="fill: none; stroke-dasharray: 3.7,1.6; stroke-dashoffset: 0; stroke: #000000"/>
    <path d="M 423.24086 18.118365 
L 423.24086 398.64351 
" clip-path="url(#pebbe61dacb)" style="fill: none; stroke-dasharray: 3.7,1.6; stroke-dashoffset: 0; stroke: #000000"/>
   </g>
   <g id="matplotlib.axis_1">
    <g id="xtick_1">
     <g id="line2d_1">
      <defs>
       <path id="m4b78696787" d="M 0 0 
L 0 3.5 
" style="stroke: #000000; stroke-width: 0.8"/>
      </defs>
      <g>
       <use xlink:href="#m4b78696787" x="70.866979" y="398.64351" style="stroke: #000000; stroke-width: 0.8"/>
      </g>
     </g>
     <g id="text_1">
      <!-- −0.2 -->
      <g transform="translate(58.725572 413.241947) scale(0.1 -0.1)">
       <defs>
        <path id="DejaVuSans-2212" d="M 678 2272 
L 4684 2272 
L 4684 1741 
L 678 1741 
L 678 2272 
z
" transform="scale(0.015625)"/>
        <path id="DejaVuSans-30" d="M 2034 4250 
Q 1547 4250 1301 3770 
Q 1056 3291 1056 2328 
Q 1056 1369 1301 889 
Q 1547 409 2034 409 
Q 2525 409 2770 889 
Q 3016 1369 3016 2328 
Q 3016 3291 2770 3770 
Q 2525 4250 2034 4250 
z
M 2034 4750 
Q 2819 4750 3233 4129 
Q 3647 3509 3647 2328 
Q 3647 1150 3233 529 
Q 2819 -91 2034 -91 
Q 1250 -91 836 529 
Q 422 1150 422 2328 
Q 422 3509 836 4129 
Q 1250 4750 2034 4750 
z
" transform="scale(0.015625)"/>
        <path id="DejaVuSans-2e" d="M 684 794 
L 1344 794 
L 1344 0 
L 684 0 
L 684 794 
z
" transform="scale(0.015625)"/>
        <path id="DejaVuSans-32" d="M 1228 531 
L 3431 531 
L 3431 0 
L 469 0 
L 469 531 
Q 828 903 1448 1529 
Q 2069 2156 2228 2338 
Q 2531 2678 2651 2914 
Q 2772 3150 2772 3378 
Q 2772 3750 2511 3984 
Q 2250 4219 1831 4219 
Q 1534 4219 1204 4116 
Q 875 4013 500 3803 
L 500 4441 
Q 881 4594 1212 4672 
Q 1544 4750 1819 4750 
Q 2544 4750 2975 4387 
Q 3406 4025 3406 3419 
Q 3406 3131 3298 2873 
Q 3191 2616 2906 2266 
Q 2828 2175 2409 1742 
Q 1991 1309 1228 531 
z
" transform="scale(0.015625)"/>
       </defs>
       <use xlink:href="#DejaVuSans-2212"/>
       <use xlink:href="#DejaVuSans-30" transform="translate(83.789062 0)"/>
       <use xlink:href="#DejaVuSans-2e" transform="translate(147.412109 0)"/>
       <use xlink:href="#DejaVuSans-32" transform="translate(179.199219 0)"/>
      </g>
     </g>
    </g>
    <g id="xtick_2">
     <g id="line2d_2">
      <g>
       <use xlink:href="#m4b78696787" x="158.960449" y="398.64351" style="stroke: #000000; stroke-width: 0.8"/>
      </g>
     </g>
     <g id="text_2">
      <!-- 0.0 -->
      <g transform="translate(151.008886 413.241947) scale(0.1 -0.1)">
       <use xlink:href="#DejaVuSans-30"/>
       <use xlink:href="#DejaVuSans-2e" transform="translate(63.623047 0)"/>
       <use xlink:href="#DejaVuSans-30" transform="translate(95.410156 0)"/>
      </g>
     </g>
    </g>
    <g id="xtick_3">
     <g id="line2d_3">
      <g>
       <use xlink:href="#m4b78696787" x="247.053919" y="398.64351" style="stroke: #000000; stroke-width: 0.8"/>
      </g>
     </g>
     <g id="text_3">
      <!-- 0.2 -->
      <g transform="translate(239.102357 413.241947) scale(0.1 -0.1)">
       <use xlink:href="#DejaVuSans-30"/>
       <use xlink:href="#DejaVuSans-2e" transform="translate(63.623047 0)"/>
       <use xlink:href="#DejaVuSans-32" transform="translate(95.410156 0)"/>
      </g>
     </g>
    </g>
    <g id="xtick_4">
     <g id="line2d_4">
      <g>
       <use xlink:href="#m4b78696787" x="335.14739" y="398.64351" style="stroke: #000000; stroke-width: 0.8"/>
      </g>
     </g>
     <g id="text_4">
      <!-- 0.4 -->
      <g transform="translate(327.195827 413.241947) scale(0.1 -0.1)">
       <defs>
        <path id="DejaVuSans-34" d="M 2419 4116 
L 825 1625 
L 2419 1625 
L 2419 4116 
z
M 2253 4666 
L 3047 4666 
L 3047 1625 
L 3713 1625 
L 3713 1100 
L 3047 1100 
L 3047 0 
L 2419 0 
L 2419 1100 
L 313 1100 
L 313 1709 
L 2253 4666 
z
" transform="scale(0.015625)"/>
       </defs>
       <use xlink:href="#DejaVuSans-30"/>
       <use xlink:href="#DejaVuSans-2e" transform="translate(63.623047 0)"/>
       <use xlink:href="#DejaVuSans-34" transform="translate(95.410156 0)"/>
      </g>
     </g>
    </g>
    <g id="xtick_5">
     <g id="line2d_5">
      <g>
       <use xlink:href="#m4b78696787" x="423.24086" y="398.64351" style="stroke: #000000; stroke-width: 0.8"/>
      </g>
     </g>
     <g id="text_5">
      <!-- 0.6 -->
      <g transform="translate(415.289298 413.241947) scale(0.1 -0.1)">
       <defs>
        <path id="DejaVuSans-36" d="M 2113 2584 
Q 1688 2584 1439 2293 
Q 1191 2003 1191 1497 
Q 1191 994 1439 701 
Q 1688 409 2113 409 
Q 2538 409 2786 701 
Q 3034 994 3034 1497 
Q 3034 2003 2786 2293 
Q 2538 2584 2113 2584 
z
M 3366 4563 
L 3366 3988 
Q 3128 4100 2886 4159 
Q 2644 4219 2406 4219 
Q 1781 4219 1451 3797 
Q 1122 3375 1075 2522 
Q 1259 2794 1537 2939 
Q 1816 3084 2150 3084 
Q 2853 3084 3261 2657 
Q 3669 2231 3669 1497 
Q 3669 778 3244 343 
Q 2819 -91 2113 -91 
Q 1303 -91 875 529 
Q 447 1150 447 2328 
Q 447 3434 972 4092 
Q 1497 4750 2381 4750 
Q 2619 4750 2861 4703 
Q 3103 4656 3366 4563 
z
" transform="scale(0.015625)"/>
       </defs>
       <use xlink:href="#DejaVuSans-30"/>
       <use xlink:href="#DejaVuSans-2e" transform="translate(63.623047 0)"/>
       <use xlink:href="#DejaVuSans-36" transform="translate(95.410156 0)"/>
      </g>
     </g>
    </g>
    <g id="xtick_6">
     <g id="line2d_6">
      <g>
       <use xlink:href="#m4b78696787" x="511.334331" y="398.64351" style="stroke: #000000; stroke-width: 0.8"/>
      </g>
     </g>
     <g id="text_6">
      <!-- 0.8 -->
      <g transform="translate(503.382768 413.241947) scale(0.1 -0.1)">
       <defs>
        <path id="DejaVuSans-38" d="M 2034 2216 
Q 1584 2216 1326 1975 
Q 1069 1734 1069 1313 
Q 1069 891 1326 650 
Q 1584 409 2034 409 
Q 2484 409 2743 651 
Q 3003 894 3003 1313 
Q 3003 1734 2745 1975 
Q 2488 2216 2034 2216 
z
M 1403 2484 
Q 997 2584 770 2862 
Q 544 3141 544 3541 
Q 544 4100 942 4425 
Q 1341 4750 2034 4750 
Q 2731 4750 3128 4425 
Q 3525 4100 3525 3541 
Q 3525 3141 3298 2862 
Q 3072 2584 2669 2484 
Q 3125 2378 3379 2068 
Q 3634 1759 3634 1313 
Q 3634 634 3220 271 
Q 2806 -91 2034 -91 
Q 1263 -91 848 271 
Q 434 634 434 1313 
Q 434 1759 690 2068 
Q 947 2378 1403 2484 
z
M 1172 3481 
Q 1172 3119 1398 2916 
Q 1625 2713 2034 2713 
Q 2441 2713 2670 2916 
Q 2900 3119 2900 3481 
Q 2900 3844 2670 4047 
Q 2441 4250 2034 4250 
Q 1625 4250 1398 4047 
Q 1172 3844 1172 3481 
z
" transform="scale(0.015625)"/>
       </defs>
       <use xlink:href="#DejaVuSans-30"/>
       <use xlink:href="#DejaVuSans-2e" transform="translate(63.623047 0)"/>
       <use xlink:href="#DejaVuSans-38" transform="translate(95.410156 0)"/>
      </g>
     </g>
    </g>
    <g id="text_7">
     <!-- Time (s) -->
     <g transform="translate(288.5625 426.920073) scale(0.1 -0.1)">
      <defs>
       <path id="DejaVuSans-54" d="M -19 4666 
L 3928 4666 
L 3928 4134 
L 2272 4134 
L 2272 0 
L 1638 0 
L 1638 4134 
L -19 4134 
L -19 4666 
z
" transform="scale(0.015625)"/>
       <path id="DejaVuSans-69" d="M 603 3500 
L 1178 3500 
L 1178 0 
L 603 0 
L 603 3500 
z
M 603 4863 
L 1178 4863 
L 1178 4134 
L 603 4134 
L 603 4863 
z
" transform="scale(0.015625)"/>
       <path id="DejaVuSans-6d" d="M 3328 2828 
Q 3544 3216 3844 3400 
Q 4144 3584 4550 3584 
Q 5097 3584 5394 3201 
Q 5691 2819 5691 2113 
L 5691 0 
L 5113 0 
L 5113 2094 
Q 5113 2597 4934 2840 
Q 4756 3084 4391 3084 
Q 3944 3084 3684 2787 
Q 3425 2491 3425 1978 
L 3425 0 
L 2847 0 
L 2847 2094 
Q 2847 2600 2669 2842 
Q 2491 3084 2119 3084 
Q 1678 3084 1418 2786 
Q 1159 2488 1159 1978 
L 1159 0 
L 581 0 
L 581 3500 
L 1159 3500 
L 1159 2956 
Q 1356 3278 1631 3431 
Q 1906 3584 2284 3584 
Q 2666 3584 2933 3390 
Q 3200 3197 3328 2828 
z
" transform="scale(0.015625)"/>
       <path id="DejaVuSans-65" d="M 3597 1894 
L 3597 1613 
L 953 1613 
Q 991 1019 1311 708 
Q 1631 397 2203 397 
Q 2534 397 2845 478 
Q 3156 559 3463 722 
L 3463 178 
Q 3153 47 2828 -22 
Q 2503 -91 2169 -91 
Q 1331 -91 842 396 
Q 353 884 353 1716 
Q 353 2575 817 3079 
Q 1281 3584 2069 3584 
Q 2775 3584 3186 3129 
Q 3597 2675 3597 1894 
z
M 3022 2063 
Q 3016 2534 2758 2815 
Q 2500 3097 2075 3097 
Q 1594 3097 1305 2825 
Q 1016 2553 972 2059 
L 3022 2063 
z
" transform="scale(0.015625)"/>
       <path id="DejaVuSans-20" transform="scale(0.015625)"/>
       <path id="DejaVuSans-28" d="M 1984 4856 
Q 1566 4138 1362 3434 
Q 1159 2731 1159 2009 
Q 1159 1288 1364 580 
Q 1569 -128 1984 -844 
L 1484 -844 
Q 1016 -109 783 600 
Q 550 1309 550 2009 
Q 550 2706 781 3412 
Q 1013 4119 1484 4856 
L 1984 4856 
z
" transform="scale(0.015625)"/>
       <path id="DejaVuSans-73" d="M 2834 3397 
L 2834 2853 
Q 2591 2978 2328 3040 
Q 2066 3103 1784 3103 
Q 1356 3103 1142 2972 
Q 928 2841 928 2578 
Q 928 2378 1081 2264 
Q 1234 2150 1697 2047 
L 1894 2003 
Q 2506 1872 2764 1633 
Q 3022 1394 3022 966 
Q 3022 478 2636 193 
Q 2250 -91 1575 -91 
Q 1294 -91 989 -36 
Q 684 19 347 128 
L 347 722 
Q 666 556 975 473 
Q 1284 391 1588 391 
Q 1994 391 2212 530 
Q 2431 669 2431 922 
Q 2431 1156 2273 1281 
Q 2116 1406 1581 1522 
L 1381 1569 
Q 847 1681 609 1914 
Q 372 2147 372 2553 
Q 372 3047 722 3315 
Q 1072 3584 1716 3584 
Q 2034 3584 2315 3537 
Q 2597 3491 2834 3397 
z
" transform="scale(0.015625)"/>
       <path id="DejaVuSans-29" d="M 513 4856 
L 1013 4856 
Q 1481 4119 1714 3412 
Q 1947 2706 1947 2009 
Q 1947 1309 1714 600 
Q 1481 -109 1013 -844 
L 513 -844 
Q 928 -128 1133 580 
Q 1338 1288 1338 2009 
Q 1338 2731 1133 3434 
Q 928 4138 513 4856 
z
" transform="scale(0.015625)"/>
      </defs>
      <use xlink:href="#DejaVuSans-54"/>
      <use xlink:href="#DejaVuSans-69" transform="translate(57.958984 0)"/>
      <use xlink:href="#DejaVuSans-6d" transform="translate(85.742188 0)"/>
      <use xlink:href="#DejaVuSans-65" transform="translate(183.154297 0)"/>
      <use xlink:href="#DejaVuSans-20" transform="translate(244.677734 0)"/>
      <use xlink:href="#DejaVuSans-28" transform="translate(276.464844 0)"/>
      <use xlink:href="#DejaVuSans-73" transform="translate(315.478516 0)"/>
      <use xlink:href="#DejaVuSans-29" transform="translate(367.578125 0)"/>
     </g>
    </g>
   </g>
   <g id="matplotlib.axis_2">
    <g id="ytick_1">
     <g id="line2d_7">
      <defs>
       <path id="mafaf467840" d="M 0 0 
L -3.5 0 
" style="stroke: #000000; stroke-width: 0.8"/>
      </defs>
      <g>
       <use xlink:href="#mafaf467840" x="44.783053" y="358.557901" style="stroke: #000000; stroke-width: 0.8"/>
      </g>
     </g>
     <g id="text_8">
      <!-- −10 -->
      <g transform="translate(16.678365 362.35712) scale(0.1 -0.1)">
       <defs>
        <path id="DejaVuSans-31" d="M 794 531 
L 1825 531 
L 1825 4091 
L 703 3866 
L 703 4441 
L 1819 4666 
L 2450 4666 
L 2450 531 
L 3481 531 
L 3481 0 
L 794 0 
L 794 531 
z
" transform="scale(0.015625)"/>
       </defs>
       <use xlink:href="#DejaVuSans-2212"/>
       <use xlink:href="#DejaVuSans-31" transform="translate(83.789062 0)"/>
       <use xlink:href="#DejaVuSans-30" transform="translate(147.412109 0)"/>
      </g>
     </g>
    </g>
    <g id="ytick_2">
     <g id="line2d_8">
      <g>
       <use xlink:href="#mafaf467840" x="44.783053" y="283.469419" style="stroke: #000000; stroke-width: 0.8"/>
      </g>
     </g>
     <g id="text_9">
      <!-- −5 -->
      <g transform="translate(23.040865 287.268638) scale(0.1 -0.1)">
       <defs>
        <path id="DejaVuSans-35" d="M 691 4666 
L 3169 4666 
L 3169 4134 
L 1269 4134 
L 1269 2991 
Q 1406 3038 1543 3061 
Q 1681 3084 1819 3084 
Q 2600 3084 3056 2656 
Q 3513 2228 3513 1497 
Q 3513 744 3044 326 
Q 2575 -91 1722 -91 
Q 1428 -91 1123 -41 
Q 819 9 494 109 
L 494 744 
Q 775 591 1075 516 
Q 1375 441 1709 441 
Q 2250 441 2565 725 
Q 2881 1009 2881 1497 
Q 2881 1984 2565 2268 
Q 2250 2553 1709 2553 
Q 1456 2553 1204 2497 
Q 953 2441 691 2322 
L 691 4666 
z
" transform="scale(0.015625)"/>
       </defs>
       <use xlink:href="#DejaVuSans-2212"/>
       <use xlink:href="#DejaVuSans-35" transform="translate(83.789062 0)"/>
      </g>
     </g>
    </g>
    <g id="ytick_3">
     <g id="line2d_9">
      <g>
       <use xlink:href="#mafaf467840" x="44.783053" y="208.380937" style="stroke: #000000; stroke-width: 0.8"/>
      </g>
     </g>
     <g id="text_10">
      <!-- 0 -->
      <g transform="translate(31.420553 212.180156) scale(0.1 -0.1)">
       <use xlink:href="#DejaVuSans-30"/>
      </g>
     </g>
    </g>
    <g id="ytick_4">
     <g id="line2d_10">
      <g>
       <use xlink:href="#mafaf467840" x="44.783053" y="133.292456" style="stroke: #000000; stroke-width: 0.8"/>
      </g>
     </g>
     <g id="text_11">
      <!-- 5 -->
      <g transform="translate(31.420553 137.091675) scale(0.1 -0.1)">
       <use xlink:href="#DejaVuSans-35"/>
      </g>
     </g>
    </g>
    <g id="ytick_5">
     <g id="line2d_11">
      <g>
       <use xlink:href="#mafaf467840" x="44.783053" y="58.203974" style="stroke: #000000; stroke-width: 0.8"/>
      </g>
     </g>
     <g id="text_12">
      <!-- 10 -->
      <g transform="translate(25.058053 62.003193) scale(0.1 -0.1)">
       <use xlink:href="#DejaVuSans-31"/>
       <use xlink:href="#DejaVuSans-30" transform="translate(63.623047 0)"/>
      </g>
     </g>
    </g>
    <g id="text_13">
     <!-- µV -->
     <g transform="translate(10.598678 214.9825) rotate(-90) scale(0.1 -0.1)">
      <defs>
       <path id="DejaVuSans-b5" d="M 544 -1331 
L 544 3500 
L 1119 3500 
L 1119 1325 
Q 1119 872 1334 640 
Q 1550 409 1972 409 
Q 2434 409 2667 671 
Q 2900 934 2900 1459 
L 2900 3500 
L 3475 3500 
L 3475 806 
Q 3475 619 3529 530 
Q 3584 441 3700 441 
Q 3728 441 3778 458 
Q 3828 475 3916 513 
L 3916 50 
Q 3788 -22 3673 -56 
Q 3559 -91 3450 -91 
Q 3234 -91 3106 31 
Q 2978 153 2931 403 
Q 2775 156 2548 32 
Q 2322 -91 2016 -91 
Q 1697 -91 1473 31 
Q 1250 153 1119 397 
L 1119 -1331 
L 544 -1331 
z
" transform="scale(0.015625)"/>
       <path id="DejaVuSans-56" d="M 1831 0 
L 50 4666 
L 709 4666 
L 2188 738 
L 3669 4666 
L 4325 4666 
L 2547 0 
L 1831 0 
z
" transform="scale(0.015625)"/>
      </defs>
      <use xlink:href="#DejaVuSans-b5"/>
      <use xlink:href="#DejaVuSans-56" transform="translate(63.623047 0)"/>
     </g>
    </g>
   </g>
   <g id="patch_4">
    <path d="M 70.866979 398.64351 
L 511.334331 398.64351 
" style="fill: none; stroke: #000000; stroke-width: 0.8; stroke-linejoin: miter; stroke-linecap: square"/>
   </g>
   <g id="patch_5">
    <path d="M 44.783053 208.380937 
L 572.99976 208.380937 
" style="fill: none; stroke: #000000; stroke-width: 0.8; stroke-linejoin: miter; stroke-linecap: square"/>
   </g>
   <g id="text_14">
    <!-- amn LPP: CPz, Cz, Pz (mean) -->
    <g transform="translate(222.859844 12.118365) scale(0.12 -0.12)">
     <defs>
      <path id="DejaVuSans-61" d="M 2194 1759 
Q 1497 1759 1228 1600 
Q 959 1441 959 1056 
Q 959 750 1161 570 
Q 1363 391 1709 391 
Q 2188 391 2477 730 
Q 2766 1069 2766 1631 
L 2766 1759 
L 2194 1759 
z
M 3341 1997 
L 3341 0 
L 2766 0 
L 2766 531 
Q 2569 213 2275 61 
Q 1981 -91 1556 -91 
Q 1019 -91 701 211 
Q 384 513 384 1019 
Q 384 1609 779 1909 
Q 1175 2209 1959 2209 
L 2766 2209 
L 2766 2266 
Q 2766 2663 2505 2880 
Q 2244 3097 1772 3097 
Q 1472 3097 1187 3025 
Q 903 2953 641 2809 
L 641 3341 
Q 956 3463 1253 3523 
Q 1550 3584 1831 3584 
Q 2591 3584 2966 3190 
Q 3341 2797 3341 1997 
z
" transform="scale(0.015625)"/>
      <path id="DejaVuSans-6e" d="M 3513 2113 
L 3513 0 
L 2938 0 
L 2938 2094 
Q 2938 2591 2744 2837 
Q 2550 3084 2163 3084 
Q 1697 3084 1428 2787 
Q 1159 2491 1159 1978 
L 1159 0 
L 581 0 
L 581 3500 
L 1159 3500 
L 1159 2956 
Q 1366 3272 1645 3428 
Q 1925 3584 2291 3584 
Q 2894 3584 3203 3211 
Q 3513 2838 3513 2113 
z
" transform="scale(0.015625)"/>
      <path id="DejaVuSans-4c" d="M 628 4666 
L 1259 4666 
L 1259 531 
L 3531 531 
L 3531 0 
L 628 0 
L 628 4666 
z
" transform="scale(0.015625)"/>
      <path id="DejaVuSans-50" d="M 1259 4147 
L 1259 2394 
L 2053 2394 
Q 2494 2394 2734 2622 
Q 2975 2850 2975 3272 
Q 2975 3691 2734 3919 
Q 2494 4147 2053 4147 
L 1259 4147 
z
M 628 4666 
L 2053 4666 
Q 2838 4666 3239 4311 
Q 3641 3956 3641 3272 
Q 3641 2581 3239 2228 
Q 2838 1875 2053 1875 
L 1259 1875 
L 1259 0 
L 628 0 
L 628 4666 
z
" transform="scale(0.015625)"/>
      <path id="DejaVuSans-3a" d="M 750 794 
L 1409 794 
L 1409 0 
L 750 0 
L 750 794 
z
M 750 3309 
L 1409 3309 
L 1409 2516 
L 750 2516 
L 750 3309 
z
" transform="scale(0.015625)"/>
      <path id="DejaVuSans-43" d="M 4122 4306 
L 4122 3641 
Q 3803 3938 3442 4084 
Q 3081 4231 2675 4231 
Q 1875 4231 1450 3742 
Q 1025 3253 1025 2328 
Q 1025 1406 1450 917 
Q 1875 428 2675 428 
Q 3081 428 3442 575 
Q 3803 722 4122 1019 
L 4122 359 
Q 3791 134 3420 21 
Q 3050 -91 2638 -91 
Q 1578 -91 968 557 
Q 359 1206 359 2328 
Q 359 3453 968 4101 
Q 1578 4750 2638 4750 
Q 3056 4750 3426 4639 
Q 3797 4528 4122 4306 
z
" transform="scale(0.015625)"/>
      <path id="DejaVuSans-7a" d="M 353 3500 
L 3084 3500 
L 3084 2975 
L 922 459 
L 3084 459 
L 3084 0 
L 275 0 
L 275 525 
L 2438 3041 
L 353 3041 
L 353 3500 
z
" transform="scale(0.015625)"/>
      <path id="DejaVuSans-2c" d="M 750 794 
L 1409 794 
L 1409 256 
L 897 -744 
L 494 -744 
L 750 256 
L 750 794 
z
" transform="scale(0.015625)"/>
     </defs>
     <use xlink:href="#DejaVuSans-61"/>
     <use xlink:href="#DejaVuSans-6d" transform="translate(61.279297 0)"/>
     <use xlink:href="#DejaVuSans-6e" transform="translate(158.691406 0)"/>
     <use xlink:href="#DejaVuSans-20" transform="translate(222.070312 0)"/>
     <use xlink:href="#DejaVuSans-4c" transform="translate(253.857422 0)"/>
     <use xlink:href="#DejaVuSans-50" transform="translate(309.570312 0)"/>
     <use xlink:href="#DejaVuSans-50" transform="translate(369.873047 0)"/>
     <use xlink:href="#DejaVuSans-3a" transform="translate(430.175781 0)"/>
     <use xlink:href="#DejaVuSans-20" transform="translate(463.867188 0)"/>
     <use xlink:href="#DejaVuSans-43" transform="translate(495.654297 0)"/>
     <use xlink:href="#DejaVuSans-50" transform="translate(565.478516 0)"/>
     <use xlink:href="#DejaVuSans-7a" transform="translate(625.78125 0)"/>
     <use xlink:href="#DejaVuSans-2c" transform="translate(678.271484 0)"/>
     <use xlink:href="#DejaVuSans-20" transform="translate(710.058594 0)"/>
     <use xlink:href="#DejaVuSans-43" transform="translate(741.845703 0)"/>
     <use xlink:href="#DejaVuSans-7a" transform="translate(811.669922 0)"/>
     <use xlink:href="#DejaVuSans-2c" transform="translate(864.160156 0)"/>
     <use xlink:href="#DejaVuSans-20" transform="translate(895.947266 0)"/>
     <use xlink:href="#DejaVuSans-50" transform="translate(927.734375 0)"/>
     <use xlink:href="#DejaVuSans-7a" transform="translate(988.037109 0)"/>
     <use xlink:href="#DejaVuSans-20" transform="translate(1040.527344 0)"/>
     <use xlink:href="#DejaVuSans-28" transform="translate(1072.314453 0)"/>
     <use xlink:href="#DejaVuSans-6d" transform="translate(1111.328125 0)"/>
     <use xlink:href="#DejaVuSans-65" transform="translate(1208.740234 0)"/>
     <use xlink:href="#DejaVuSans-61" transform="translate(1270.263672 0)"/>
     <use xlink:href="#DejaVuSans-6e" transform="translate(1331.542969 0)"/>
     <use xlink:href="#DejaVuSans-29" transform="translate(1394.921875 0)"/>
    </g>
   </g>
   <g id="legend_1">
    <g id="patch_6">
     <path d="M 51.783053 55.75274 
L 132.92524 55.75274 
Q 134.92524 55.75274 134.92524 53.75274 
L 134.92524 25.118365 
Q 134.92524 23.118365 132.92524 23.118365 
L 51.783053 23.118365 
Q 49.783053 23.118365 49.783053 25.118365 
L 49.783053 53.75274 
Q 49.783053 55.75274 51.783053 55.75274 
z
" style="fill: #ffffff; opacity: 0.8; stroke: #cccccc; stroke-linejoin: miter"/>
    </g>
    <g id="line2d_12">
     <path d="M 53.783053 31.216803 
L 63.783053 31.216803 
L 73.783052 31.216803 
" style="fill: none; stroke: #1f77b4; stroke-width: 1.5; stroke-linecap: square"/>
    </g>
    <g id="text_15">
     <!-- eerie -->
     <g transform="translate(81.783052 34.716803) scale(0.1 -0.1)">
      <defs>
       <path id="DejaVuSans-72" d="M 2631 2963 
Q 2534 3019 2420 3045 
Q 2306 3072 2169 3072 
Q 1681 3072 1420 2755 
Q 1159 2438 1159 1844 
L 1159 0 
L 581 0 
L 581 3500 
L 1159 3500 
L 1159 2956 
Q 1341 3275 1631 3429 
Q 1922 3584 2338 3584 
Q 2397 3584 2469 3576 
Q 2541 3569 2628 3553 
L 2631 2963 
z
" transform="scale(0.015625)"/>
      </defs>
      <use xlink:href="#DejaVuSans-65"/>
      <use xlink:href="#DejaVuSans-65" transform="translate(61.523438 0)"/>
      <use xlink:href="#DejaVuSans-72" transform="translate(123.046875 0)"/>
      <use xlink:href="#DejaVuSans-69" transform="translate(164.160156 0)"/>
      <use xlink:href="#DejaVuSans-65" transform="translate(191.943359 0)"/>
     </g>
    </g>
    <g id="line2d_13">
     <path d="M 53.783053 45.894928 
L 63.783053 45.894928 
L 73.783052 45.894928 
" style="fill: none; stroke: #ff7f0e; stroke-width: 1.5; stroke-linecap: square"/>
    </g>
    <g id="text_16">
     <!-- non_eerie -->
     <g transform="translate(81.783052 49.394928) scale(0.1 -0.1)">
      <defs>
       <path id="DejaVuSans-6f" d="M 1959 3097 
Q 1497 3097 1228 2736 
Q 959 2375 959 1747 
Q 959 1119 1226 758 
Q 1494 397 1959 397 
Q 2419 397 2687 759 
Q 2956 1122 2956 1747 
Q 2956 2369 2687 2733 
Q 2419 3097 1959 3097 
z
M 1959 3584 
Q 2709 3584 3137 3096 
Q 3566 2609 3566 1747 
Q 3566 888 3137 398 
Q 2709 -91 1959 -91 
Q 1206 -91 779 398 
Q 353 888 353 1747 
Q 353 2609 779 3096 
Q 1206 3584 1959 3584 
z
" transform="scale(0.015625)"/>
       <path id="DejaVuSans-5f" d="M 3263 -1063 
L 3263 -1509 
L -63 -1509 
L -63 -1063 
L 3263 -1063 
z
" transform="scale(0.015625)"/>
      </defs>
      <use xlink:href="#DejaVuSans-6e"/>
      <use xlink:href="#DejaVuSans-6f" transform="translate(63.378906 0)"/>
      <use xlink:href="#DejaVuSans-6e" transform="translate(124.560547 0)"/>
      <use xlink:href="#DejaVuSans-5f" transform="translate(187.939453 0)"/>
      <use xlink:href="#DejaVuSans-65" transform="translate(237.939453 0)"/>
      <use xlink:href="#DejaVuSans-65" transform="translate(299.462891 0)"/>
      <use xlink:href="#DejaVuSans-72" transform="translate(360.986328 0)"/>
      <use xlink:href="#DejaVuSans-69" transform="translate(402.099609 0)"/>
      <use xlink:href="#DejaVuSans-65" transform="translate(429.882812 0)"/>
     </g>
    </g>
   </g>
   <g id="line2d_14">
    <path d="M 44.783053 171.041612 
L 46.503628 167.83117 
L 48.224204 165.592449 
L 49.944779 165.522472 
L 51.665355 168.211029 
L 55.106506 177.743123 
L 56.827082 180.55181 
L 58.547657 180.421271 
L 61.988808 176.001522 
L 63.709384 175.861577 
L 65.42996 178.581122 
L 67.150535 183.488273 
L 70.591686 194.827187 
L 74.032838 205.940116 
L 75.753413 211.961341 
L 77.473989 217.36395 
L 79.194564 220.557047 
L 80.91514 220.34515 
L 82.635716 216.913692 
L 84.356291 211.969219 
L 86.076867 207.904997 
L 87.797442 206.492023 
L 89.518018 207.956493 
L 92.959169 214.115064 
L 94.679745 215.994342 
L 96.40032 216.884004 
L 98.120896 217.909132 
L 99.841472 220.183025 
L 101.562047 223.913988 
L 103.282623 228.12902 
L 105.003198 231.2434 
L 106.723774 232.041281 
L 108.444349 230.458099 
L 110.164925 227.620917 
L 111.885501 225.216051 
L 113.606076 224.595261 
L 115.326652 226.163423 
L 117.047227 229.350077 
L 118.767803 233.082528 
L 120.488379 236.323981 
L 122.208954 238.424348 
L 123.92953 239.111076 
L 125.650105 238.301091 
L 127.370681 236.02125 
L 129.091257 232.535069 
L 130.811832 228.49967 
L 132.532408 224.936982 
L 134.252983 222.982705 
L 135.973559 223.458533 
L 137.694135 226.512403 
L 139.41471 231.548309 
L 141.135286 237.434288 
L 142.855861 242.831675 
L 144.576437 246.544216 
L 146.297013 247.815939 
L 148.017588 246.487726 
L 149.738164 243.032503 
L 151.458739 238.344663 
L 158.341042 218.360388 
L 161.782193 207.471533 
L 163.502769 204.010109 
L 165.223344 203.755486 
L 166.94392 207.074958 
L 170.385071 218.562607 
L 172.105646 222.175132 
L 173.826222 222.661831 
L 175.546798 220.838009 
L 177.267373 218.664443 
L 178.987949 217.982811 
L 180.708524 219.436571 
L 184.149676 225.054057 
L 185.870251 226.88496 
L 187.590827 227.943793 
L 189.311402 229.245579 
L 191.031978 231.675783 
L 192.752554 235.087947 
L 194.473129 238.182266 
L 196.193705 239.263009 
L 197.91428 237.420374 
L 199.634856 233.253416 
L 201.355432 228.565003 
L 203.076007 225.129284 
L 204.796583 223.354484 
L 206.517158 221.762134 
L 208.237734 217.639825 
L 209.95831 208.486953 
L 211.678885 193.290338 
L 213.399461 172.843333 
L 216.840612 123.820502 
L 220.281763 74.136536 
L 222.002339 52.123901 
L 223.722914 34.749914 
L 225.44349 24.56076 
L 227.164066 23.060736 
L 228.884641 29.531092 
L 230.605217 40.955417 
L 232.325792 53.284891 
L 234.046368 63.229285 
L 235.766943 69.490651 
L 237.487519 72.717472 
L 239.208095 74.354626 
L 240.92867 75.41283 
L 242.649246 76.019202 
L 244.369821 75.908819 
L 246.090397 75.259411 
L 247.810973 74.954791 
L 249.531548 76.052846 
L 251.252124 78.84742 
L 252.972699 82.443775 
L 254.693275 85.329637 
L 256.413851 86.541073 
L 258.134426 86.534063 
L 259.855002 87.034064 
L 261.575577 89.852714 
L 263.296153 95.598219 
L 266.737304 110.828707 
L 268.45788 116.888294 
L 270.178455 121.252418 
L 273.619607 128.683236 
L 275.340182 132.558669 
L 277.060758 135.22096 
L 278.781333 135.210461 
L 280.501909 132.193381 
L 282.222485 127.520032 
L 283.94306 123.553206 
L 285.663636 122.207586 
L 287.384211 123.718195 
L 289.104787 126.576538 
L 290.825363 128.673432 
L 292.545938 128.793754 
L 294.266514 127.442198 
L 295.987089 126.433794 
L 297.707665 127.673279 
L 299.42824 131.973826 
L 301.148816 138.740517 
L 304.589967 154.380654 
L 308.031118 168.358516 
L 309.751694 174.782607 
L 311.47227 180.547487 
L 313.192845 185.015635 
L 314.913421 187.715481 
L 316.633996 188.804163 
L 318.354572 189.08101 
L 320.075148 189.566022 
L 321.795723 190.99902 
L 323.516299 193.616757 
L 325.236874 197.288874 
L 326.95745 201.735449 
L 330.398601 211.214849 
L 332.119177 214.764598 
L 333.839752 216.272895 
L 335.560328 215.223268 
L 337.280904 212.013191 
L 339.001479 207.964418 
L 340.722055 204.75971 
L 342.44263 203.652204 
L 344.163206 204.905864 
L 345.883782 207.762725 
L 347.604357 210.944893 
L 349.324933 213.226501 
L 351.045508 213.776649 
L 352.766084 212.190801 
L 354.48666 208.320779 
L 356.207235 202.194098 
L 357.927811 194.076208 
L 364.810113 156.55949 
L 366.530689 149.350673 
L 368.251264 143.186886 
L 371.692415 131.934676 
L 373.412991 125.805864 
L 376.854142 112.243531 
L 378.574718 106.285676 
L 380.295293 102.433701 
L 382.015869 101.483989 
L 383.736445 103.235685 
L 387.177596 109.45457 
L 388.898171 111.132205 
L 392.339323 112.188395 
L 394.059898 114.4768 
L 395.780474 119.269456 
L 399.221625 132.932805 
L 400.942201 138.387892 
L 402.662776 141.312509 
L 404.383352 141.696459 
L 406.103927 140.158885 
L 407.824503 137.329155 
L 409.545079 133.577828 
L 414.706805 120.471491 
L 416.427381 117.318437 
L 419.868532 112.643866 
L 421.589108 109.506913 
L 425.030259 101.65721 
L 426.750834 99.614158 
L 428.47141 100.534387 
L 430.191986 104.234946 
L 431.912561 109.187407 
L 433.633137 113.454902 
L 435.353712 115.904743 
L 437.074288 116.757107 
L 438.794864 117.152752 
L 440.515439 118.073883 
L 442.236015 119.440317 
L 443.95659 120.233884 
L 445.677166 119.433476 
L 447.397742 117.062977 
L 449.118317 114.43774 
L 450.838893 113.365177 
L 452.559468 114.849952 
L 456.00062 121.853332 
L 457.721195 123.567296 
L 459.441771 122.762678 
L 461.162346 120.393956 
L 462.882922 118.319722 
L 464.603498 118.038111 
L 466.324073 119.781559 
L 468.044649 122.578 
L 469.765224 125.126808 
L 471.4858 126.804032 
L 473.206376 127.980575 
L 474.926951 129.568294 
L 476.647527 132.169579 
L 480.088678 138.723028 
L 481.809253 140.750481 
L 483.529829 141.291287 
L 486.97098 140.640588 
L 488.691556 141.281192 
L 490.412131 142.863558 
L 492.132707 144.68024 
L 493.853283 145.81135 
L 495.573858 145.79853 
L 497.294434 145.033636 
L 499.015009 144.622937 
L 500.735585 145.773897 
L 502.456161 149.0194 
L 505.897312 158.912404 
L 507.617887 162.870091 
L 509.338463 165.152507 
L 511.059039 166.437894 
L 512.779614 168.228357 
L 514.50019 171.879866 
L 516.220765 177.626129 
L 517.941341 184.255141 
L 519.661917 189.736536 
L 521.382492 192.392281 
L 523.103068 191.823326 
L 524.823643 188.992267 
L 526.544219 185.417879 
L 528.264795 182.16801 
L 533.426521 173.673044 
L 535.147097 171.599971 
L 536.867673 171.801132 
L 538.588248 175.291798 
L 540.308824 181.638911 
L 542.029399 188.890645 
L 543.749975 194.546683 
L 545.47055 197.024644 
L 547.191126 196.517748 
L 548.911702 194.683268 
L 550.632277 193.412437 
L 552.352853 193.566043 
L 554.073428 194.589086 
L 555.794004 195.138633 
L 557.51458 194.194081 
L 559.235155 191.780008 
L 560.955731 188.785425 
L 562.676306 186.171659 
L 564.396882 184.238868 
L 566.117458 182.533713 
L 567.838033 180.428998 
L 571.279184 175.214792 
L 572.99976 173.567611 
L 572.99976 173.567611 
" style="fill: none; stroke: #1f77b4; stroke-width: 1.5; stroke-linecap: square"/>
   </g>
   <g id="line2d_15">
    <path d="M 44.783053 202.157388 
L 46.503628 201.963321 
L 48.224204 201.159489 
L 51.665355 199.208425 
L 53.38593 198.701135 
L 55.106506 198.813544 
L 56.827082 199.650054 
L 58.547657 201.1392 
L 61.988808 204.679893 
L 63.709384 205.793604 
L 65.42996 206.110965 
L 67.150535 205.791977 
L 68.871111 205.24885 
L 70.591686 204.886913 
L 72.312262 204.886705 
L 77.473989 205.595631 
L 79.194564 205.512637 
L 84.356291 204.614093 
L 86.076867 204.629588 
L 87.797442 205.180665 
L 89.518018 206.397869 
L 92.959169 209.95481 
L 94.679745 211.261923 
L 96.40032 211.618403 
L 98.120896 210.965046 
L 101.562047 208.318134 
L 103.282623 207.495599 
L 105.003198 207.516858 
L 106.723774 208.403031 
L 108.444349 209.905487 
L 110.164925 211.599395 
L 111.885501 213.001238 
L 113.606076 213.754918 
L 115.326652 213.833122 
L 117.047227 213.627528 
L 118.767803 213.821276 
L 120.488379 214.991856 
L 122.208954 217.190224 
L 123.92953 219.788671 
L 125.650105 221.797421 
L 127.370681 222.446938 
L 129.091257 221.678902 
L 130.811832 220.175065 
L 132.532408 218.900076 
L 134.252983 218.47935 
L 135.973559 218.902479 
L 139.41471 220.73161 
L 141.135286 221.932582 
L 142.855861 223.766574 
L 144.576437 226.44023 
L 146.297013 229.55755 
L 148.017588 232.203606 
L 149.738164 233.523337 
L 151.458739 233.368426 
L 153.179315 232.485258 
L 154.899891 232.04925 
L 156.620466 232.868118 
L 160.061617 236.936323 
L 161.782193 238.021358 
L 163.502769 237.412191 
L 165.223344 235.29307 
L 168.664495 229.694384 
L 170.385071 227.512783 
L 172.105646 225.959899 
L 173.826222 224.997582 
L 175.546798 224.780789 
L 177.267373 225.663051 
L 178.987949 227.878941 
L 180.708524 231.20308 
L 182.4291 234.874298 
L 184.149676 237.911632 
L 185.870251 239.649519 
L 187.590827 240.140418 
L 189.311402 240.175083 
L 191.031978 240.843504 
L 192.752554 242.914054 
L 194.473129 246.38845 
L 196.193705 250.464474 
L 197.91428 253.922255 
L 199.634856 255.678776 
L 201.355432 255.17858 
L 203.076007 252.409852 
L 204.796583 247.514486 
L 206.517158 240.318705 
L 208.237734 230.064609 
L 209.95831 215.593046 
L 211.678885 195.923385 
L 213.399461 170.928487 
L 216.840612 110.730323 
L 218.561188 80.835101 
L 220.281763 54.934724 
L 222.002339 35.197085 
L 223.722914 22.8326 
L 225.44349 18.118365 
L 227.164066 20.539205 
L 228.884641 28.886271 
L 230.605217 41.30165 
L 234.046368 68.896579 
L 235.766943 79.76712 
L 237.487519 87.157736 
L 239.208095 91.325149 
L 240.92867 93.306371 
L 242.649246 94.275815 
L 246.090397 95.670378 
L 249.531548 96.729613 
L 251.252124 97.555467 
L 252.972699 99.163369 
L 254.693275 101.663782 
L 256.413851 104.58575 
L 258.134426 107.097467 
L 259.855002 108.597374 
L 261.575577 109.280983 
L 263.296153 110.234767 
L 265.016729 112.916529 
L 266.737304 118.3333 
L 268.45788 126.43056 
L 271.899031 145.706963 
L 273.619607 153.981321 
L 275.340182 160.371496 
L 277.060758 165.017489 
L 278.781333 168.222751 
L 280.501909 169.956835 
L 282.222485 169.752242 
L 283.94306 167.044711 
L 285.663636 161.731789 
L 289.104787 146.986287 
L 290.825363 140.714056 
L 292.545938 136.968468 
L 294.266514 136.089071 
L 295.987089 137.520608 
L 301.148816 145.406755 
L 304.589967 149.205133 
L 306.310543 151.707092 
L 308.031118 155.399661 
L 309.751694 160.547804 
L 311.47227 167.014955 
L 316.633996 188.37052 
L 318.354572 194.074225 
L 320.075148 198.732143 
L 321.795723 202.616568 
L 323.516299 206.001924 
L 325.236874 208.883632 
L 326.95745 210.890469 
L 328.678026 211.490266 
L 330.398601 210.399704 
L 332.119177 207.89503 
L 333.839752 204.820537 
L 335.560328 202.235252 
L 337.280904 200.926243 
L 339.001479 201.095939 
L 340.722055 202.434716 
L 342.44263 204.488744 
L 344.163206 207.017848 
L 345.883782 210.043067 
L 349.324933 217.233021 
L 351.045508 220.283272 
L 352.766084 221.907689 
L 354.48666 221.777954 
L 356.207235 220.330134 
L 357.927811 218.51408 
L 359.648386 217.099618 
L 361.368962 216.066089 
L 363.089537 214.512807 
L 364.810113 211.246582 
L 366.530689 205.639972 
L 368.251264 198.132879 
L 369.97184 190.033498 
L 371.692415 182.710798 
L 373.412991 176.769568 
L 378.574718 161.631381 
L 380.295293 156.094708 
L 382.015869 151.334769 
L 383.736445 148.312412 
L 385.45702 147.23126 
L 388.898171 147.403201 
L 390.618747 146.521556 
L 392.339323 144.665655 
L 394.059898 142.616108 
L 395.780474 141.383829 
L 397.501049 141.571724 
L 399.221625 143.099013 
L 400.942201 145.424853 
L 404.383352 150.394601 
L 406.103927 152.532443 
L 407.824503 154.165537 
L 409.545079 154.879541 
L 411.265654 154.242206 
L 412.98623 152.146094 
L 416.427381 145.750191 
L 418.147956 143.206745 
L 419.868532 141.847503 
L 421.589108 141.528467 
L 425.030259 141.868885 
L 426.750834 141.786369 
L 430.191986 141.44504 
L 431.912561 141.582135 
L 433.633137 142.033231 
L 435.353712 142.867547 
L 437.074288 144.290366 
L 438.794864 146.62475 
L 440.515439 150.148118 
L 442.236015 154.875386 
L 445.677166 166.45819 
L 447.397742 172.162706 
L 449.118317 177.115554 
L 450.838893 180.98974 
L 452.559468 183.611905 
L 454.280044 184.962277 
L 456.00062 185.191733 
L 457.721195 184.61791 
L 462.882922 181.839291 
L 466.324073 180.395478 
L 468.044649 179.390757 
L 469.765224 178.050687 
L 474.926951 173.261339 
L 476.647527 172.340319 
L 478.368102 172.345557 
L 480.088678 173.51845 
L 481.809253 175.836909 
L 483.529829 178.954852 
L 485.250405 182.315313 
L 486.97098 185.40454 
L 488.691556 188.002841 
L 492.132707 192.330291 
L 493.853283 194.424822 
L 495.573858 196.26736 
L 497.294434 197.364344 
L 499.015009 197.305867 
L 500.735585 196.062759 
L 502.456161 194.031656 
L 507.617887 187.170108 
L 509.338463 184.387525 
L 511.059039 180.988627 
L 512.779614 177.327671 
L 514.50019 174.221195 
L 516.220765 172.500766 
L 517.941341 172.451085 
L 519.661917 173.565008 
L 521.382492 174.81523 
L 523.103068 175.281992 
L 524.823643 174.719433 
L 526.544219 173.693988 
L 528.264795 173.173081 
L 529.98537 173.883779 
L 531.705946 175.855084 
L 535.147097 181.062279 
L 536.867673 183.154685 
L 540.308824 186.705687 
L 543.749975 190.58387 
L 545.47055 191.617909 
L 547.191126 191.183731 
L 548.911702 189.132945 
L 550.632277 185.865927 
L 555.794004 174.594481 
L 557.51458 171.36361 
L 559.235155 168.756857 
L 560.955731 167.211477 
L 562.676306 167.100249 
L 564.396882 168.382729 
L 567.838033 172.599927 
L 571.279184 175.873173 
L 572.99976 178.198235 
L 572.99976 178.198235 
" style="fill: none; stroke: #ff7f0e; stroke-width: 1.5; stroke-linecap: square"/>
   </g>
  </g>
  <g id="axes_2">
   <g id="PathCollection_1">
    <defs>
     <path id="C0_0_7febbf17eb" d="M 0 1.118034 
C 0.296506 1.118034 0.580908 1.000231 0.790569 0.790569 
C 1.000231 0.580908 1.118034 0.296506 1.118034 -0 
C 1.118034 -0.296506 1.000231 -0.580908 0.790569 -0.790569 
C 0.580908 -1.000231 0.296506 -1.118034 0 -1.118034 
C -0.296506 -1.118034 -0.580908 -1.000231 -0.790569 -0.790569 
C -1.000231 -0.580908 -1.118034 -0.296506 -1.118034 0 
C -1.118034 0.296506 -1.000231 0.580908 -0.790569 0.790569 
C -0.580908 1.000231 -0.296506 1.118034 0 1.118034 
z
"/>
    </defs>
    <g clip-path="url(#p1899403892)">
     <use xlink:href="#C0_0_7febbf17eb" x="520.220098" y="76.4143" style="stroke: #000000"/>
    </g>
    <g clip-path="url(#p1899403892)">
     <use xlink:href="#C0_0_7febbf17eb" x="520.16282" y="85.802188" style="stroke: #000000"/>
    </g>
    <g clip-path="url(#p1899403892)">
     <use xlink:href="#C0_0_7febbf17eb" x="520.257951" y="66.304407" style="stroke: #000000"/>
    </g>
   </g>
   <g id="matplotlib.axis_3"/>
   <g id="matplotlib.axis_4"/>
   <g id="line2d_16">
    <path d="M 559.992051 73.636703 
L 559.914365 71.164686 
L 559.681612 68.702426 
L 559.294713 66.259638 
L 558.755193 63.845964 
L 558.065182 61.47093 
L 557.227403 59.143909 
L 556.245162 56.874084 
L 555.122335 54.670414 
L 553.863355 52.541595 
L 552.47319 50.496028 
L 550.957325 48.541787 
L 549.321744 46.686585 
L 547.572901 44.937742 
L 545.717699 43.302161 
L 543.763458 41.786296 
L 541.717892 40.396131 
L 539.589072 39.137151 
L 537.385402 38.014325 
L 535.115577 37.032084 
L 532.788556 36.194304 
L 530.413522 35.504293 
L 527.999848 34.964773 
L 525.557061 34.577874 
L 523.0948 34.345122 
L 520.622783 34.267435 
L 518.150766 34.345122 
L 515.688505 34.577874 
L 513.245718 34.964773 
L 510.832044 35.504293 
L 508.45701 36.194304 
L 506.129989 37.032084 
L 503.860164 38.014325 
L 501.656494 39.137151 
L 499.527674 40.396131 
L 497.482108 41.786296 
L 495.527867 43.302161 
L 493.672665 44.937742 
L 491.923822 46.686585 
L 490.288241 48.541787 
L 488.772376 50.496028 
L 487.382211 52.541595 
L 486.123231 54.670414 
L 485.000404 56.874084 
L 484.018163 59.143909 
L 483.180384 61.47093 
L 482.490373 63.845964 
L 481.950853 66.259638 
L 481.563954 68.702426 
L 481.331201 71.164686 
L 481.253515 73.636703 
L 481.331201 76.10872 
L 481.563954 78.570981 
L 481.950853 81.013768 
L 482.490373 83.427442 
L 483.180384 85.802476 
L 484.018163 88.129497 
L 485.000404 90.399322 
L 486.123231 92.602993 
L 487.382211 94.731812 
L 488.772376 96.777378 
L 490.288241 98.731619 
L 491.923822 100.586822 
L 493.672665 102.335664 
L 495.527867 103.971245 
L 497.482108 105.48711 
L 499.527674 106.877275 
L 501.656494 108.136256 
L 503.860164 109.259082 
L 506.129989 110.241323 
L 508.45701 111.079102 
L 510.832044 111.769113 
L 513.245718 112.308633 
L 515.688505 112.695533 
L 518.150766 112.928285 
L 520.622783 113.005971 
L 523.0948 112.928285 
L 525.557061 112.695533 
L 527.999848 112.308633 
L 530.413522 111.769113 
L 532.788556 111.079102 
L 535.115577 110.241323 
L 537.385402 109.259082 
L 539.589072 108.136256 
L 541.717892 106.877275 
L 543.763458 105.48711 
L 545.717699 103.971245 
L 547.572901 102.335664 
L 549.321744 100.586822 
L 550.957325 98.731619 
L 552.47319 96.777378 
L 553.863355 94.731812 
L 555.122335 92.602993 
L 556.245162 90.399322 
L 557.227403 88.129497 
L 558.065182 85.802476 
L 558.755193 83.427442 
L 559.294713 81.013768 
L 559.681612 78.570981 
L 559.914365 76.10872 
L 559.992051 73.636703 
" style="fill: none; stroke: #000000; stroke-linecap: square"/>
   </g>
   <g id="line2d_17">
    <path d="M 512.377303 35.140582 
L 520.622783 28.362045 
L 528.868263 35.140582 
" style="fill: none; stroke: #000000; stroke-linecap: square"/>
   </g>
   <g id="line2d_18">
    <path d="M 481.489731 69.266714 
L 480.46613 67.534467 
L 479.836221 67.471476 
L 478.899233 67.762808 
L 477.95437 69.266714 
L 478.103974 74.069765 
L 477.552804 80.975135 
L 478.733882 83.975073 
L 480.46613 84.534117 
L 482.119639 83.077454 
" style="fill: none; stroke: #000000; stroke-linecap: square"/>
   </g>
   <g id="line2d_19">
    <path d="M 559.755835 69.266714 
L 560.779436 67.534467 
L 561.409345 67.471476 
L 562.346333 67.762808 
L 563.291196 69.266714 
L 563.141592 74.069765 
L 563.692762 80.975135 
L 562.511684 83.975073 
L 560.779436 84.534117 
L 559.125927 83.077454 
" style="fill: none; stroke: #000000; stroke-linecap: square"/>
   </g>
  </g>
 </g>
 <defs>
  <clipPath id="pebbe61dacb">
   <rect x="44.783053" y="18.118365" width="528.216707" height="380.525145"/>
  </clipPath>
  <clipPath id="p1899403892">
   <rect x="473.245806" y="24.129849" width="94.753954" height="93.108319"/>
  </clipPath>
 </defs>
</svg>
