<?xml version="1.0" encoding="utf-8" standalone="no"?>
<!DOCTYPE svg PUBLIC "-//W3C//DTD SVG 1.1//EN"
  "http://www.w3.org/Graphics/SVG/1.1/DTD/svg11.dtd">
<svg xmlns:xlink="http://www.w3.org/1999/xlink" width="576pt" height="432pt" viewBox="0 0 576 432" xmlns="http://www.w3.org/2000/svg" version="1.1">
 <metadata>
  <rdf:RDF xmlns:dc="http://purl.org/dc/elements/1.1/" xmlns:cc="http://creativecommons.org/ns#" xmlns:rdf="http://www.w3.org/1999/02/22-rdf-syntax-ns#">
   <cc:Work>
    <dc:type rdf:resource="http://purl.org/dc/dcmitype/StillImage"/>
    <dc:date>2025-02-14T14:07:56.212657</dc:date>
    <dc:format>image/svg+xml</dc:format>
    <dc:creator>
     <cc:Agent>
      <dc:title>Matplotlib v3.10.0, https://matplotlib.org/</dc:title>
     </cc:Agent>
    </dc:creator>
   </cc:Work>
  </rdf:RDF>
 </metadata>
 <defs>
  <style type="text/css">*{stroke-linejoin: round; stroke-linecap: butt}</style>
 </defs>
 <g id="figure_1">
  <g id="patch_1">
   <path d="M 0 432 
L 576 432 
L 576 0 
L 0 0 
z
" style="fill: #ffffff"/>
  </g>
  <g id="axes_1">
   <g id="patch_2">
    <path d="M 38.420552 398.64351 
L 572.99976 398.64351 
L 572.99976 18.118365 
L 38.420552 18.118365 
L 38.420552 398.64351 
z
" style="fill: none; opacity: 0"/>
   </g>
   <g id="patch_3">
    <path d="M 38.420552 387.324913 
L 38.420552 29.436962 
" style="fill: none; stroke: #000000; stroke-width: 0.8; stroke-linejoin: miter; stroke-linecap: square"/>
   </g>
   <g id="LineCollection_1">
    <path d="M 211.923719 18.118365 
L 211.923719 398.64351 
" clip-path="url(#pca326eeea9)" style="fill: none; stroke-dasharray: 3.7,1.6; stroke-dashoffset: 0; stroke: #000000"/>
    <path d="M 243.127822 18.118365 
L 243.127822 398.64351 
" clip-path="url(#pca326eeea9)" style="fill: none; stroke-dasharray: 3.7,1.6; stroke-dashoffset: 0; stroke: #000000"/>
   </g>
   <g id="matplotlib.axis_1">
    <g id="xtick_1">
     <g id="line2d_1">
      <defs>
       <path id="mb48c42a1dc" d="M 0 0 
L 0 3.5 
" style="stroke: #000000; stroke-width: 0.8"/>
      </defs>
      <g>
       <use xlink:href="#mb48c42a1dc" x="64.818666" y="398.64351" style="stroke: #000000; stroke-width: 0.8"/>
      </g>
     </g>
     <g id="text_1">
      <!-- −0.20 -->
      <g transform="translate(49.49601 413.241947) scale(0.1 -0.1)">
       <defs>
        <path id="DejaVuSans-2212" d="M 678 2272 
L 4684 2272 
L 4684 1741 
L 678 1741 
L 678 2272 
z
" transform="scale(0.015625)"/>
        <path id="DejaVuSans-30" d="M 2034 4250 
Q 1547 4250 1301 3770 
Q 1056 3291 1056 2328 
Q 1056 1369 1301 889 
Q 1547 409 2034 409 
Q 2525 409 2770 889 
Q 3016 1369 3016 2328 
Q 3016 3291 2770 3770 
Q 2525 4250 2034 4250 
z
M 2034 4750 
Q 2819 4750 3233 4129 
Q 3647 3509 3647 2328 
Q 3647 1150 3233 529 
Q 2819 -91 2034 -91 
Q 1250 -91 836 529 
Q 422 1150 422 2328 
Q 422 3509 836 4129 
Q 1250 4750 2034 4750 
z
" transform="scale(0.015625)"/>
        <path id="DejaVuSans-2e" d="M 684 794 
L 1344 794 
L 1344 0 
L 684 0 
L 684 794 
z
" transform="scale(0.015625)"/>
        <path id="DejaVuSans-32" d="M 1228 531 
L 3431 531 
L 3431 0 
L 469 0 
L 469 531 
Q 828 903 1448 1529 
Q 2069 2156 2228 2338 
Q 2531 2678 2651 2914 
Q 2772 3150 2772 3378 
Q 2772 3750 2511 3984 
Q 2250 4219 1831 4219 
Q 1534 4219 1204 4116 
Q 875 4013 500 3803 
L 500 4441 
Q 881 4594 1212 4672 
Q 1544 4750 1819 4750 
Q 2544 4750 2975 4387 
Q 3406 4025 3406 3419 
Q 3406 3131 3298 2873 
Q 3191 2616 2906 2266 
Q 2828 2175 2409 1742 
Q 1991 1309 1228 531 
z
" transform="scale(0.015625)"/>
       </defs>
       <use xlink:href="#DejaVuSans-2212"/>
       <use xlink:href="#DejaVuSans-30" transform="translate(83.789062 0)"/>
       <use xlink:href="#DejaVuSans-2e" transform="translate(147.412109 0)"/>
       <use xlink:href="#DejaVuSans-32" transform="translate(179.199219 0)"/>
       <use xlink:href="#DejaVuSans-30" transform="translate(242.822266 0)"/>
      </g>
     </g>
    </g>
    <g id="xtick_2">
     <g id="line2d_2">
      <g>
       <use xlink:href="#mb48c42a1dc" x="153.973244" y="398.64351" style="stroke: #000000; stroke-width: 0.8"/>
      </g>
     </g>
     <g id="text_2">
      <!-- 0.00 -->
      <g transform="translate(142.840431 413.241947) scale(0.1 -0.1)">
       <use xlink:href="#DejaVuSans-30"/>
       <use xlink:href="#DejaVuSans-2e" transform="translate(63.623047 0)"/>
       <use xlink:href="#DejaVuSans-30" transform="translate(95.410156 0)"/>
       <use xlink:href="#DejaVuSans-30" transform="translate(159.033203 0)"/>
      </g>
     </g>
    </g>
    <g id="xtick_3">
     <g id="line2d_3">
      <g>
       <use xlink:href="#mb48c42a1dc" x="211.923719" y="398.64351" style="stroke: #000000; stroke-width: 0.8"/>
      </g>
     </g>
     <g id="text_3">
      <!-- 0.13 -->
      <g transform="translate(200.790907 413.241947) scale(0.1 -0.1)">
       <defs>
        <path id="DejaVuSans-31" d="M 794 531 
L 1825 531 
L 1825 4091 
L 703 3866 
L 703 4441 
L 1819 4666 
L 2450 4666 
L 2450 531 
L 3481 531 
L 3481 0 
L 794 0 
L 794 531 
z
" transform="scale(0.015625)"/>
        <path id="DejaVuSans-33" d="M 2597 2516 
Q 3050 2419 3304 2112 
Q 3559 1806 3559 1356 
Q 3559 666 3084 287 
Q 2609 -91 1734 -91 
Q 1441 -91 1130 -33 
Q 819 25 488 141 
L 488 750 
Q 750 597 1062 519 
Q 1375 441 1716 441 
Q 2309 441 2620 675 
Q 2931 909 2931 1356 
Q 2931 1769 2642 2001 
Q 2353 2234 1838 2234 
L 1294 2234 
L 1294 2753 
L 1863 2753 
Q 2328 2753 2575 2939 
Q 2822 3125 2822 3475 
Q 2822 3834 2567 4026 
Q 2313 4219 1838 4219 
Q 1578 4219 1281 4162 
Q 984 4106 628 3988 
L 628 4550 
Q 988 4650 1302 4700 
Q 1616 4750 1894 4750 
Q 2613 4750 3031 4423 
Q 3450 4097 3450 3541 
Q 3450 3153 3228 2886 
Q 3006 2619 2597 2516 
z
" transform="scale(0.015625)"/>
       </defs>
       <use xlink:href="#DejaVuSans-30"/>
       <use xlink:href="#DejaVuSans-2e" transform="translate(63.623047 0)"/>
       <use xlink:href="#DejaVuSans-31" transform="translate(95.410156 0)"/>
       <use xlink:href="#DejaVuSans-33" transform="translate(159.033203 0)"/>
      </g>
     </g>
    </g>
    <g id="xtick_4">
     <g id="line2d_4">
      <g>
       <use xlink:href="#mb48c42a1dc" x="243.127822" y="398.64351" style="stroke: #000000; stroke-width: 0.8"/>
      </g>
     </g>
     <g id="text_4">
      <!-- 0.20 -->
      <g transform="translate(231.995009 413.241947) scale(0.1 -0.1)">
       <use xlink:href="#DejaVuSans-30"/>
       <use xlink:href="#DejaVuSans-2e" transform="translate(63.623047 0)"/>
       <use xlink:href="#DejaVuSans-32" transform="translate(95.410156 0)"/>
       <use xlink:href="#DejaVuSans-30" transform="translate(159.033203 0)"/>
      </g>
     </g>
    </g>
    <g id="xtick_5">
     <g id="line2d_5">
      <g>
       <use xlink:href="#mb48c42a1dc" x="243.127822" y="398.64351" style="stroke: #000000; stroke-width: 0.8"/>
      </g>
     </g>
     <g id="text_5">
      <!-- 0.20 -->
      <g transform="translate(231.995009 413.241947) scale(0.1 -0.1)">
       <use xlink:href="#DejaVuSans-30"/>
       <use xlink:href="#DejaVuSans-2e" transform="translate(63.623047 0)"/>
       <use xlink:href="#DejaVuSans-32" transform="translate(95.410156 0)"/>
       <use xlink:href="#DejaVuSans-30" transform="translate(159.033203 0)"/>
      </g>
     </g>
    </g>
    <g id="xtick_6">
     <g id="line2d_6">
      <g>
       <use xlink:href="#mb48c42a1dc" x="332.2824" y="398.64351" style="stroke: #000000; stroke-width: 0.8"/>
      </g>
     </g>
     <g id="text_6">
      <!-- 0.40 -->
      <g transform="translate(321.149587 413.241947) scale(0.1 -0.1)">
       <defs>
        <path id="DejaVuSans-34" d="M 2419 4116 
L 825 1625 
L 2419 1625 
L 2419 4116 
z
M 2253 4666 
L 3047 4666 
L 3047 1625 
L 3713 1625 
L 3713 1100 
L 3047 1100 
L 3047 0 
L 2419 0 
L 2419 1100 
L 313 1100 
L 313 1709 
L 2253 4666 
z
" transform="scale(0.015625)"/>
       </defs>
       <use xlink:href="#DejaVuSans-30"/>
       <use xlink:href="#DejaVuSans-2e" transform="translate(63.623047 0)"/>
       <use xlink:href="#DejaVuSans-34" transform="translate(95.410156 0)"/>
       <use xlink:href="#DejaVuSans-30" transform="translate(159.033203 0)"/>
      </g>
     </g>
    </g>
    <g id="xtick_7">
     <g id="line2d_7">
      <g>
       <use xlink:href="#mb48c42a1dc" x="421.436978" y="398.64351" style="stroke: #000000; stroke-width: 0.8"/>
      </g>
     </g>
     <g id="text_7">
      <!-- 0.60 -->
      <g transform="translate(410.304165 413.241947) scale(0.1 -0.1)">
       <defs>
        <path id="DejaVuSans-36" d="M 2113 2584 
Q 1688 2584 1439 2293 
Q 1191 2003 1191 1497 
Q 1191 994 1439 701 
Q 1688 409 2113 409 
Q 2538 409 2786 701 
Q 3034 994 3034 1497 
Q 3034 2003 2786 2293 
Q 2538 2584 2113 2584 
z
M 3366 4563 
L 3366 3988 
Q 3128 4100 2886 4159 
Q 2644 4219 2406 4219 
Q 1781 4219 1451 3797 
Q 1122 3375 1075 2522 
Q 1259 2794 1537 2939 
Q 1816 3084 2150 3084 
Q 2853 3084 3261 2657 
Q 3669 2231 3669 1497 
Q 3669 778 3244 343 
Q 2819 -91 2113 -91 
Q 1303 -91 875 529 
Q 447 1150 447 2328 
Q 447 3434 972 4092 
Q 1497 4750 2381 4750 
Q 2619 4750 2861 4703 
Q 3103 4656 3366 4563 
z
" transform="scale(0.015625)"/>
       </defs>
       <use xlink:href="#DejaVuSans-30"/>
       <use xlink:href="#DejaVuSans-2e" transform="translate(63.623047 0)"/>
       <use xlink:href="#DejaVuSans-36" transform="translate(95.410156 0)"/>
       <use xlink:href="#DejaVuSans-30" transform="translate(159.033203 0)"/>
      </g>
     </g>
    </g>
    <g id="xtick_8">
     <g id="line2d_8">
      <g>
       <use xlink:href="#mb48c42a1dc" x="510.591555" y="398.64351" style="stroke: #000000; stroke-width: 0.8"/>
      </g>
     </g>
     <g id="text_8">
      <!-- 0.80 -->
      <g transform="translate(499.458743 413.241947) scale(0.1 -0.1)">
       <defs>
        <path id="DejaVuSans-38" d="M 2034 2216 
Q 1584 2216 1326 1975 
Q 1069 1734 1069 1313 
Q 1069 891 1326 650 
Q 1584 409 2034 409 
Q 2484 409 2743 651 
Q 3003 894 3003 1313 
Q 3003 1734 2745 1975 
Q 2488 2216 2034 2216 
z
M 1403 2484 
Q 997 2584 770 2862 
Q 544 3141 544 3541 
Q 544 4100 942 4425 
Q 1341 4750 2034 4750 
Q 2731 4750 3128 4425 
Q 3525 4100 3525 3541 
Q 3525 3141 3298 2862 
Q 3072 2584 2669 2484 
Q 3125 2378 3379 2068 
Q 3634 1759 3634 1313 
Q 3634 634 3220 271 
Q 2806 -91 2034 -91 
Q 1263 -91 848 271 
Q 434 634 434 1313 
Q 434 1759 690 2068 
Q 947 2378 1403 2484 
z
M 1172 3481 
Q 1172 3119 1398 2916 
Q 1625 2713 2034 2713 
Q 2441 2713 2670 2916 
Q 2900 3119 2900 3481 
Q 2900 3844 2670 4047 
Q 2441 4250 2034 4250 
Q 1625 4250 1398 4047 
Q 1172 3844 1172 3481 
z
" transform="scale(0.015625)"/>
       </defs>
       <use xlink:href="#DejaVuSans-30"/>
       <use xlink:href="#DejaVuSans-2e" transform="translate(63.623047 0)"/>
       <use xlink:href="#DejaVuSans-38" transform="translate(95.410156 0)"/>
       <use xlink:href="#DejaVuSans-30" transform="translate(159.033203 0)"/>
      </g>
     </g>
    </g>
    <g id="text_9">
     <!-- Time (s) -->
     <g transform="translate(285.38125 426.920073) scale(0.1 -0.1)">
      <defs>
       <path id="DejaVuSans-54" d="M -19 4666 
L 3928 4666 
L 3928 4134 
L 2272 4134 
L 2272 0 
L 1638 0 
L 1638 4134 
L -19 4134 
L -19 4666 
z
" transform="scale(0.015625)"/>
       <path id="DejaVuSans-69" d="M 603 3500 
L 1178 3500 
L 1178 0 
L 603 0 
L 603 3500 
z
M 603 4863 
L 1178 4863 
L 1178 4134 
L 603 4134 
L 603 4863 
z
" transform="scale(0.015625)"/>
       <path id="DejaVuSans-6d" d="M 3328 2828 
Q 3544 3216 3844 3400 
Q 4144 3584 4550 3584 
Q 5097 3584 5394 3201 
Q 5691 2819 5691 2113 
L 5691 0 
L 5113 0 
L 5113 2094 
Q 5113 2597 4934 2840 
Q 4756 3084 4391 3084 
Q 3944 3084 3684 2787 
Q 3425 2491 3425 1978 
L 3425 0 
L 2847 0 
L 2847 2094 
Q 2847 2600 2669 2842 
Q 2491 3084 2119 3084 
Q 1678 3084 1418 2786 
Q 1159 2488 1159 1978 
L 1159 0 
L 581 0 
L 581 3500 
L 1159 3500 
L 1159 2956 
Q 1356 3278 1631 3431 
Q 1906 3584 2284 3584 
Q 2666 3584 2933 3390 
Q 3200 3197 3328 2828 
z
" transform="scale(0.015625)"/>
       <path id="DejaVuSans-65" d="M 3597 1894 
L 3597 1613 
L 953 1613 
Q 991 1019 1311 708 
Q 1631 397 2203 397 
Q 2534 397 2845 478 
Q 3156 559 3463 722 
L 3463 178 
Q 3153 47 2828 -22 
Q 2503 -91 2169 -91 
Q 1331 -91 842 396 
Q 353 884 353 1716 
Q 353 2575 817 3079 
Q 1281 3584 2069 3584 
Q 2775 3584 3186 3129 
Q 3597 2675 3597 1894 
z
M 3022 2063 
Q 3016 2534 2758 2815 
Q 2500 3097 2075 3097 
Q 1594 3097 1305 2825 
Q 1016 2553 972 2059 
L 3022 2063 
z
" transform="scale(0.015625)"/>
       <path id="DejaVuSans-20" transform="scale(0.015625)"/>
       <path id="DejaVuSans-28" d="M 1984 4856 
Q 1566 4138 1362 3434 
Q 1159 2731 1159 2009 
Q 1159 1288 1364 580 
Q 1569 -128 1984 -844 
L 1484 -844 
Q 1016 -109 783 600 
Q 550 1309 550 2009 
Q 550 2706 781 3412 
Q 1013 4119 1484 4856 
L 1984 4856 
z
" transform="scale(0.015625)"/>
       <path id="DejaVuSans-73" d="M 2834 3397 
L 2834 2853 
Q 2591 2978 2328 3040 
Q 2066 3103 1784 3103 
Q 1356 3103 1142 2972 
Q 928 2841 928 2578 
Q 928 2378 1081 2264 
Q 1234 2150 1697 2047 
L 1894 2003 
Q 2506 1872 2764 1633 
Q 3022 1394 3022 966 
Q 3022 478 2636 193 
Q 2250 -91 1575 -91 
Q 1294 -91 989 -36 
Q 684 19 347 128 
L 347 722 
Q 666 556 975 473 
Q 1284 391 1588 391 
Q 1994 391 2212 530 
Q 2431 669 2431 922 
Q 2431 1156 2273 1281 
Q 2116 1406 1581 1522 
L 1381 1569 
Q 847 1681 609 1914 
Q 372 2147 372 2553 
Q 372 3047 722 3315 
Q 1072 3584 1716 3584 
Q 2034 3584 2315 3537 
Q 2597 3491 2834 3397 
z
" transform="scale(0.015625)"/>
       <path id="DejaVuSans-29" d="M 513 4856 
L 1013 4856 
Q 1481 4119 1714 3412 
Q 1947 2706 1947 2009 
Q 1947 1309 1714 600 
Q 1481 -109 1013 -844 
L 513 -844 
Q 928 -128 1133 580 
Q 1338 1288 1338 2009 
Q 1338 2731 1133 3434 
Q 928 4138 513 4856 
z
" transform="scale(0.015625)"/>
      </defs>
      <use xlink:href="#DejaVuSans-54"/>
      <use xlink:href="#DejaVuSans-69" transform="translate(57.958984 0)"/>
      <use xlink:href="#DejaVuSans-6d" transform="translate(85.742188 0)"/>
      <use xlink:href="#DejaVuSans-65" transform="translate(183.154297 0)"/>
      <use xlink:href="#DejaVuSans-20" transform="translate(244.677734 0)"/>
      <use xlink:href="#DejaVuSans-28" transform="translate(276.464844 0)"/>
      <use xlink:href="#DejaVuSans-73" transform="translate(315.478516 0)"/>
      <use xlink:href="#DejaVuSans-29" transform="translate(367.578125 0)"/>
     </g>
    </g>
   </g>
   <g id="matplotlib.axis_2">
    <g id="ytick_1">
     <g id="line2d_9">
      <defs>
       <path id="mcbd6ea395e" d="M 0 0 
L -3.5 0 
" style="stroke: #000000; stroke-width: 0.8"/>
      </defs>
      <g>
       <use xlink:href="#mcbd6ea395e" x="38.420552" y="387.324913" style="stroke: #000000; stroke-width: 0.8"/>
      </g>
     </g>
     <g id="text_10">
      <!-- −6 -->
      <g transform="translate(16.678365 391.124132) scale(0.1 -0.1)">
       <use xlink:href="#DejaVuSans-2212"/>
       <use xlink:href="#DejaVuSans-36" transform="translate(83.789062 0)"/>
      </g>
     </g>
    </g>
    <g id="ytick_2">
     <g id="line2d_10">
      <g>
       <use xlink:href="#mcbd6ea395e" x="38.420552" y="327.676921" style="stroke: #000000; stroke-width: 0.8"/>
      </g>
     </g>
     <g id="text_11">
      <!-- −4 -->
      <g transform="translate(16.678365 331.47614) scale(0.1 -0.1)">
       <use xlink:href="#DejaVuSans-2212"/>
       <use xlink:href="#DejaVuSans-34" transform="translate(83.789062 0)"/>
      </g>
     </g>
    </g>
    <g id="ytick_3">
     <g id="line2d_11">
      <g>
       <use xlink:href="#mcbd6ea395e" x="38.420552" y="268.028929" style="stroke: #000000; stroke-width: 0.8"/>
      </g>
     </g>
     <g id="text_12">
      <!-- −2 -->
      <g transform="translate(16.678365 271.828148) scale(0.1 -0.1)">
       <use xlink:href="#DejaVuSans-2212"/>
       <use xlink:href="#DejaVuSans-32" transform="translate(83.789062 0)"/>
      </g>
     </g>
    </g>
    <g id="ytick_4">
     <g id="line2d_12">
      <g>
       <use xlink:href="#mcbd6ea395e" x="38.420552" y="208.380937" style="stroke: #000000; stroke-width: 0.8"/>
      </g>
     </g>
     <g id="text_13">
      <!-- 0 -->
      <g transform="translate(25.058052 212.180156) scale(0.1 -0.1)">
       <use xlink:href="#DejaVuSans-30"/>
      </g>
     </g>
    </g>
    <g id="ytick_5">
     <g id="line2d_13">
      <g>
       <use xlink:href="#mcbd6ea395e" x="38.420552" y="148.732946" style="stroke: #000000; stroke-width: 0.8"/>
      </g>
     </g>
     <g id="text_14">
      <!-- 2 -->
      <g transform="translate(25.058052 152.532164) scale(0.1 -0.1)">
       <use xlink:href="#DejaVuSans-32"/>
      </g>
     </g>
    </g>
    <g id="ytick_6">
     <g id="line2d_14">
      <g>
       <use xlink:href="#mcbd6ea395e" x="38.420552" y="89.084954" style="stroke: #000000; stroke-width: 0.8"/>
      </g>
     </g>
     <g id="text_15">
      <!-- 4 -->
      <g transform="translate(25.058052 92.884172) scale(0.1 -0.1)">
       <use xlink:href="#DejaVuSans-34"/>
      </g>
     </g>
    </g>
    <g id="ytick_7">
     <g id="line2d_15">
      <g>
       <use xlink:href="#mcbd6ea395e" x="38.420552" y="29.436962" style="stroke: #000000; stroke-width: 0.8"/>
      </g>
     </g>
     <g id="text_16">
      <!-- 6 -->
      <g transform="translate(25.058052 33.23618) scale(0.1 -0.1)">
       <use xlink:href="#DejaVuSans-36"/>
      </g>
     </g>
    </g>
    <g id="text_17">
     <!-- µV -->
     <g transform="translate(10.598677 214.9825) rotate(-90) scale(0.1 -0.1)">
      <defs>
       <path id="DejaVuSans-b5" d="M 544 -1331 
L 544 3500 
L 1119 3500 
L 1119 1325 
Q 1119 872 1334 640 
Q 1550 409 1972 409 
Q 2434 409 2667 671 
Q 2900 934 2900 1459 
L 2900 3500 
L 3475 3500 
L 3475 806 
Q 3475 619 3529 530 
Q 3584 441 3700 441 
Q 3728 441 3778 458 
Q 3828 475 3916 513 
L 3916 50 
Q 3788 -22 3673 -56 
Q 3559 -91 3450 -91 
Q 3234 -91 3106 31 
Q 2978 153 2931 403 
Q 2775 156 2548 32 
Q 2322 -91 2016 -91 
Q 1697 -91 1473 31 
Q 1250 153 1119 397 
L 1119 -1331 
L 544 -1331 
z
" transform="scale(0.015625)"/>
       <path id="DejaVuSans-56" d="M 1831 0 
L 50 4666 
L 709 4666 
L 2188 738 
L 3669 4666 
L 4325 4666 
L 2547 0 
L 1831 0 
z
" transform="scale(0.015625)"/>
      </defs>
      <use xlink:href="#DejaVuSans-b5"/>
      <use xlink:href="#DejaVuSans-56" transform="translate(63.623047 0)"/>
     </g>
    </g>
   </g>
   <g id="patch_4">
    <path d="M 64.818666 398.64351 
L 510.591555 398.64351 
" style="fill: none; stroke: #000000; stroke-width: 0.8; stroke-linejoin: miter; stroke-linecap: square"/>
   </g>
   <g id="patch_5">
    <path d="M 38.420552 208.380937 
L 572.99976 208.380937 
" style="fill: none; stroke: #000000; stroke-width: 0.8; stroke-linejoin: miter; stroke-linecap: square"/>
   </g>
   <g id="text_18">
    <!-- P7, P8 (median) -->
    <g transform="translate(257.945469 12.118365) scale(0.12 -0.12)">
     <defs>
      <path id="DejaVuSans-50" d="M 1259 4147 
L 1259 2394 
L 2053 2394 
Q 2494 2394 2734 2622 
Q 2975 2850 2975 3272 
Q 2975 3691 2734 3919 
Q 2494 4147 2053 4147 
L 1259 4147 
z
M 628 4666 
L 2053 4666 
Q 2838 4666 3239 4311 
Q 3641 3956 3641 3272 
Q 3641 2581 3239 2228 
Q 2838 1875 2053 1875 
L 1259 1875 
L 1259 0 
L 628 0 
L 628 4666 
z
" transform="scale(0.015625)"/>
      <path id="DejaVuSans-37" d="M 525 4666 
L 3525 4666 
L 3525 4397 
L 1831 0 
L 1172 0 
L 2766 4134 
L 525 4134 
L 525 4666 
z
" transform="scale(0.015625)"/>
      <path id="DejaVuSans-2c" d="M 750 794 
L 1409 794 
L 1409 256 
L 897 -744 
L 494 -744 
L 750 256 
L 750 794 
z
" transform="scale(0.015625)"/>
      <path id="DejaVuSans-64" d="M 2906 2969 
L 2906 4863 
L 3481 4863 
L 3481 0 
L 2906 0 
L 2906 525 
Q 2725 213 2448 61 
Q 2172 -91 1784 -91 
Q 1150 -91 751 415 
Q 353 922 353 1747 
Q 353 2572 751 3078 
Q 1150 3584 1784 3584 
Q 2172 3584 2448 3432 
Q 2725 3281 2906 2969 
z
M 947 1747 
Q 947 1113 1208 752 
Q 1469 391 1925 391 
Q 2381 391 2643 752 
Q 2906 1113 2906 1747 
Q 2906 2381 2643 2742 
Q 2381 3103 1925 3103 
Q 1469 3103 1208 2742 
Q 947 2381 947 1747 
z
" transform="scale(0.015625)"/>
      <path id="DejaVuSans-61" d="M 2194 1759 
Q 1497 1759 1228 1600 
Q 959 1441 959 1056 
Q 959 750 1161 570 
Q 1363 391 1709 391 
Q 2188 391 2477 730 
Q 2766 1069 2766 1631 
L 2766 1759 
L 2194 1759 
z
M 3341 1997 
L 3341 0 
L 2766 0 
L 2766 531 
Q 2569 213 2275 61 
Q 1981 -91 1556 -91 
Q 1019 -91 701 211 
Q 384 513 384 1019 
Q 384 1609 779 1909 
Q 1175 2209 1959 2209 
L 2766 2209 
L 2766 2266 
Q 2766 2663 2505 2880 
Q 2244 3097 1772 3097 
Q 1472 3097 1187 3025 
Q 903 2953 641 2809 
L 641 3341 
Q 956 3463 1253 3523 
Q 1550 3584 1831 3584 
Q 2591 3584 2966 3190 
Q 3341 2797 3341 1997 
z
" transform="scale(0.015625)"/>
      <path id="DejaVuSans-6e" d="M 3513 2113 
L 3513 0 
L 2938 0 
L 2938 2094 
Q 2938 2591 2744 2837 
Q 2550 3084 2163 3084 
Q 1697 3084 1428 2787 
Q 1159 2491 1159 1978 
L 1159 0 
L 581 0 
L 581 3500 
L 1159 3500 
L 1159 2956 
Q 1366 3272 1645 3428 
Q 1925 3584 2291 3584 
Q 2894 3584 3203 3211 
Q 3513 2838 3513 2113 
z
" transform="scale(0.015625)"/>
     </defs>
     <use xlink:href="#DejaVuSans-50"/>
     <use xlink:href="#DejaVuSans-37" transform="translate(60.302734 0)"/>
     <use xlink:href="#DejaVuSans-2c" transform="translate(123.925781 0)"/>
     <use xlink:href="#DejaVuSans-20" transform="translate(155.712891 0)"/>
     <use xlink:href="#DejaVuSans-50" transform="translate(187.5 0)"/>
     <use xlink:href="#DejaVuSans-38" transform="translate(247.802734 0)"/>
     <use xlink:href="#DejaVuSans-20" transform="translate(311.425781 0)"/>
     <use xlink:href="#DejaVuSans-28" transform="translate(343.212891 0)"/>
     <use xlink:href="#DejaVuSans-6d" transform="translate(382.226562 0)"/>
     <use xlink:href="#DejaVuSans-65" transform="translate(479.638672 0)"/>
     <use xlink:href="#DejaVuSans-64" transform="translate(541.162109 0)"/>
     <use xlink:href="#DejaVuSans-69" transform="translate(604.638672 0)"/>
     <use xlink:href="#DejaVuSans-61" transform="translate(632.421875 0)"/>
     <use xlink:href="#DejaVuSans-6e" transform="translate(693.701172 0)"/>
     <use xlink:href="#DejaVuSans-29" transform="translate(757.080078 0)"/>
    </g>
   </g>
   <g id="legend_1">
    <g id="patch_6">
     <path d="M 45.420552 55.75274 
L 126.56274 55.75274 
Q 128.56274 55.75274 128.56274 53.75274 
L 128.56274 25.118365 
Q 128.56274 23.118365 126.56274 23.118365 
L 45.420552 23.118365 
Q 43.420552 23.118365 43.420552 25.118365 
L 43.420552 53.75274 
Q 43.420552 55.75274 45.420552 55.75274 
z
" style="fill: #ffffff; opacity: 0.8; stroke: #cccccc; stroke-linejoin: miter"/>
    </g>
    <g id="line2d_16">
     <path d="M 47.420552 31.216803 
L 57.420552 31.216803 
L 67.420552 31.216803 
" style="fill: none; stroke: #1f77b4; stroke-width: 1.5; stroke-linecap: square"/>
    </g>
    <g id="text_19">
     <!-- eerie -->
     <g transform="translate(75.420552 34.716803) scale(0.1 -0.1)">
      <defs>
       <path id="DejaVuSans-72" d="M 2631 2963 
Q 2534 3019 2420 3045 
Q 2306 3072 2169 3072 
Q 1681 3072 1420 2755 
Q 1159 2438 1159 1844 
L 1159 0 
L 581 0 
L 581 3500 
L 1159 3500 
L 1159 2956 
Q 1341 3275 1631 3429 
Q 1922 3584 2338 3584 
Q 2397 3584 2469 3576 
Q 2541 3569 2628 3553 
L 2631 2963 
z
" transform="scale(0.015625)"/>
      </defs>
      <use xlink:href="#DejaVuSans-65"/>
      <use xlink:href="#DejaVuSans-65" transform="translate(61.523438 0)"/>
      <use xlink:href="#DejaVuSans-72" transform="translate(123.046875 0)"/>
      <use xlink:href="#DejaVuSans-69" transform="translate(164.160156 0)"/>
      <use xlink:href="#DejaVuSans-65" transform="translate(191.943359 0)"/>
     </g>
    </g>
    <g id="line2d_17">
     <path d="M 47.420552 45.894928 
L 57.420552 45.894928 
L 67.420552 45.894928 
" style="fill: none; stroke: #ff7f0e; stroke-width: 1.5; stroke-linecap: square"/>
    </g>
    <g id="text_20">
     <!-- non_eerie -->
     <g transform="translate(75.420552 49.394928) scale(0.1 -0.1)">
      <defs>
       <path id="DejaVuSans-6f" d="M 1959 3097 
Q 1497 3097 1228 2736 
Q 959 2375 959 1747 
Q 959 1119 1226 758 
Q 1494 397 1959 397 
Q 2419 397 2687 759 
Q 2956 1122 2956 1747 
Q 2956 2369 2687 2733 
Q 2419 3097 1959 3097 
z
M 1959 3584 
Q 2709 3584 3137 3096 
Q 3566 2609 3566 1747 
Q 3566 888 3137 398 
Q 2709 -91 1959 -91 
Q 1206 -91 779 398 
Q 353 888 353 1747 
Q 353 2609 779 3096 
Q 1206 3584 1959 3584 
z
" transform="scale(0.015625)"/>
       <path id="DejaVuSans-5f" d="M 3263 -1063 
L 3263 -1509 
L -63 -1509 
L -63 -1063 
L 3263 -1063 
z
" transform="scale(0.015625)"/>
      </defs>
      <use xlink:href="#DejaVuSans-6e"/>
      <use xlink:href="#DejaVuSans-6f" transform="translate(63.378906 0)"/>
      <use xlink:href="#DejaVuSans-6e" transform="translate(124.560547 0)"/>
      <use xlink:href="#DejaVuSans-5f" transform="translate(187.939453 0)"/>
      <use xlink:href="#DejaVuSans-65" transform="translate(237.939453 0)"/>
      <use xlink:href="#DejaVuSans-65" transform="translate(299.462891 0)"/>
      <use xlink:href="#DejaVuSans-72" transform="translate(360.986328 0)"/>
      <use xlink:href="#DejaVuSans-69" transform="translate(402.099609 0)"/>
      <use xlink:href="#DejaVuSans-65" transform="translate(429.882812 0)"/>
     </g>
    </g>
   </g>
   <g id="line2d_18">
    <path d="M 38.420552 194.779688 
L 40.161853 193.621339 
L 41.903153 188.747828 
L 43.644454 182.129136 
L 45.385754 176.009729 
L 47.127054 171.607301 
L 48.868355 168.725526 
L 50.609655 166.287032 
L 52.350955 163.390023 
L 54.092256 160.229762 
L 55.833556 158.051618 
L 57.574856 158.197562 
L 59.316157 161.025259 
L 61.057457 165.333074 
L 62.798757 168.995756 
L 64.540058 170.516934 
L 66.281358 170.384215 
L 68.022658 171.332386 
L 69.763959 177.079875 
L 71.505259 190.106732 
L 73.24656 209.725588 
L 74.98786 231.849463 
L 76.72916 250.602805 
L 78.470461 260.982883 
L 80.211761 261.261208 
L 81.953061 253.609115 
L 83.694362 242.70395 
L 85.435662 233.140663 
L 87.176962 227.177114 
L 90.659563 221.124964 
L 92.400863 216.112935 
L 95.883464 202.208628 
L 97.624764 199.41478 
L 99.366065 202.995536 
L 101.107365 212.409189 
L 102.848665 223.967384 
L 104.589966 232.419958 
L 106.331266 233.536338 
L 108.072567 226.398527 
L 109.813867 214.266984 
L 111.555167 203.393019 
L 113.296468 200.280685 
L 115.037768 208.567419 
L 116.779068 226.994489 
L 118.520369 249.55537 
L 120.261669 267.907943 
L 122.002969 275.156231 
L 123.74427 269.13736 
L 125.48557 253.480523 
L 127.22687 235.846216 
L 128.968171 224.077043 
L 130.709471 222.321871 
L 132.450771 229.138024 
L 134.192072 238.641086 
L 135.933372 244.024746 
L 137.674672 241.517956 
L 139.415973 232.484447 
L 141.157273 222.402097 
L 142.898574 217.443916 
L 144.639874 220.517692 
L 148.122475 237.529908 
L 149.863775 238.705596 
L 151.605075 230.203961 
L 155.087676 199.907638 
L 156.828976 191.542785 
L 158.570277 192.124044 
L 160.311577 198.213951 
L 162.052877 202.910628 
L 163.794178 200.462777 
L 165.535478 190.010722 
L 167.276778 176.061496 
L 169.018079 165.576882 
L 170.759379 163.529043 
L 172.500679 169.974704 
L 174.24198 180.377362 
L 175.98328 188.886906 
L 177.724581 192.159576 
L 181.207181 190.045393 
L 182.948482 193.101698 
L 184.689782 201.950515 
L 188.172383 226.913975 
L 189.913683 234.582333 
L 191.654983 235.378578 
L 193.396284 229.718821 
L 196.878884 210.14606 
L 198.620185 202.908329 
L 200.361485 200.049646 
L 202.102785 201.089823 
L 203.844086 203.893623 
L 205.585386 206.202854 
L 207.326686 207.462135 
L 209.067987 209.668839 
L 210.809287 216.451288 
L 212.550588 230.658462 
L 214.291888 252.010438 
L 217.774489 299.983388 
L 219.515789 318.621426 
L 222.99839 347.762406 
L 226.48099 381.560212 
L 228.222291 394.916925 
L 229.963591 398.64351 
L 231.704891 390.303173 
L 233.446192 372.264177 
L 240.411393 282.257923 
L 242.152693 254.271654 
L 247.376595 159.619923 
L 249.117895 135.749508 
L 250.859195 116.207387 
L 254.341796 80.315563 
L 256.083096 63.701318 
L 257.824397 51.180856 
L 259.565697 44.61976 
L 261.306997 43.510612 
L 263.048298 45.852384 
L 264.789598 50.351357 
L 266.530898 57.881459 
L 268.272199 70.655464 
L 270.013499 89.772632 
L 273.4961 136.554577 
L 275.2374 155.08701 
L 276.9787 166.911965 
L 278.720001 173.342888 
L 285.685202 189.290069 
L 287.426503 193.558946 
L 289.167803 199.03151 
L 290.909103 206.323103 
L 292.650404 214.358312 
L 294.391704 220.609667 
L 296.133004 222.962546 
L 297.874305 221.689835 
L 299.615605 219.497241 
L 301.356905 219.135041 
L 303.098206 220.490131 
L 304.839506 219.786862 
L 306.580806 212.337428 
L 308.322107 196.986361 
L 310.063407 178.510375 
L 311.804707 165.501523 
L 313.546008 164.707763 
L 315.287308 175.812286 
L 317.028609 190.733243 
L 318.769909 198.461817 
L 320.511209 192.257562 
L 322.25251 174.085244 
L 323.99381 153.213395 
L 325.73511 139.937673 
L 327.476411 138.907698 
L 330.959011 154.05814 
L 332.700312 153.717774 
L 334.441612 143.948876 
L 336.182912 129.904337 
L 337.924213 119.575728 
L 339.665513 118.459111 
L 341.406813 126.489021 
L 343.148114 138.76527 
L 344.889414 149.285959 
L 346.630714 154.795274 
L 348.372015 156.269722 
L 350.113315 157.345656 
L 351.854616 160.947127 
L 353.595916 166.595093 
L 355.337216 170.207451 
L 357.078517 166.600001 
L 358.819817 153.097964 
L 362.302418 109.845696 
L 364.043718 94.513553 
L 365.785018 90.623601 
L 367.526319 97.215308 
L 369.267619 108.451896 
L 371.008919 117.210934 
L 372.75022 119.251085 
L 374.49152 115.378665 
L 376.23282 110.216246 
L 377.974121 108.634385 
L 379.715421 112.263241 
L 381.456721 118.477929 
L 383.198022 122.372715 
L 384.939322 120.113557 
L 386.680623 111.438877 
L 388.421923 99.63481 
L 390.163223 89.294413 
L 391.904524 83.65414 
L 393.645824 83.173582 
L 395.387124 86.060179 
L 397.128425 89.827333 
L 398.869725 92.618687 
L 400.611025 93.668509 
L 402.352326 93.074083 
L 404.093626 91.590452 
L 405.834926 90.6171 
L 407.576227 92.223529 
L 409.317527 98.405109 
L 411.058827 109.613045 
L 412.800128 123.620922 
L 414.541428 135.902307 
L 416.282728 141.81065 
L 418.024029 139.531982 
L 421.50663 124.09636 
L 423.24793 122.583624 
L 424.98923 129.087516 
L 426.730531 140.548191 
L 428.471831 151.072503 
L 430.213131 156.144341 
L 431.954432 155.778027 
L 433.695732 154.325862 
L 435.437032 156.846882 
L 437.178333 164.840433 
L 438.919633 174.359167 
L 440.660933 178.329819 
L 442.402234 171.628598 
L 444.143534 155.345415 
L 445.884834 137.185362 
L 447.626135 127.185855 
L 449.367435 131.582192 
L 451.108735 148.803666 
L 452.850036 170.259326 
L 454.591336 185.449281 
L 456.332637 187.842331 
L 458.073937 177.894864 
L 461.556538 145.579428 
L 463.297838 133.962792 
L 465.039138 126.446209 
L 466.780439 120.924955 
L 468.521739 116.403491 
L 470.263039 114.16652 
L 472.00434 116.375784 
L 473.74564 123.49547 
L 475.48694 133.085284 
L 477.228241 141.154065 
L 478.969541 145.125834 
L 480.710841 145.867981 
L 482.452142 146.892943 
L 484.193442 151.420379 
L 487.676043 167.732522 
L 489.417343 172.141385 
L 491.158644 171.581217 
L 492.899944 169.199133 
L 494.641244 170.209222 
L 496.382545 177.709977 
L 498.123845 189.670554 
L 499.865145 199.782382 
L 501.606446 201.792474 
L 503.347746 194.173084 
L 505.089046 181.545829 
L 506.830347 171.68397 
L 508.571647 170.157693 
L 510.312947 176.587667 
L 512.054248 185.289108 
L 513.795548 189.87064 
L 515.536848 188.283361 
L 517.278149 184.459587 
L 519.019449 185.313616 
L 520.760749 195.334505 
L 524.24335 230.03654 
L 525.984651 238.950296 
L 527.725951 235.881349 
L 531.208552 213.42941 
L 532.949852 210.811416 
L 534.691152 219.464156 
L 538.173753 251.984145 
L 539.915053 262.437319 
L 541.656354 265.714778 
L 543.397654 265.275298 
L 545.138954 266.086413 
L 546.880255 270.831043 
L 548.621555 278.133029 
L 550.362855 283.865391 
L 552.104156 284.455887 
L 553.845456 279.648226 
L 555.586756 272.774095 
L 557.328057 268.412483 
L 559.069357 269.147471 
L 560.810658 273.66577 
L 562.551958 277.440906 
L 564.293258 275.558683 
L 566.034559 265.822967 
L 569.517159 234.079316 
L 571.25846 222.972948 
L 572.99976 220.419472 
L 572.99976 220.419472 
" style="fill: none; stroke: #1f77b4; stroke-width: 1.5; stroke-linecap: square"/>
   </g>
   <g id="line2d_19">
    <path d="M 38.420552 204.126363 
L 40.161853 204.906248 
L 41.903153 204.67752 
L 43.644454 203.980838 
L 45.385754 202.822006 
L 47.127054 200.967253 
L 48.868355 198.567283 
L 50.609655 196.468252 
L 52.350955 195.793492 
L 54.092256 197.115537 
L 57.574856 202.530554 
L 59.316157 203.553673 
L 61.057457 202.349779 
L 64.540058 196.807127 
L 66.281358 195.058821 
L 68.022658 194.554096 
L 69.763959 194.581771 
L 71.505259 194.321117 
L 74.98786 192.926712 
L 76.72916 193.148361 
L 78.470461 194.578822 
L 80.211761 196.881959 
L 83.694362 201.998195 
L 85.435662 204.880346 
L 87.176962 208.557725 
L 88.918263 212.85002 
L 90.659563 216.583851 
L 92.400863 218.14674 
L 94.142164 216.616659 
L 97.624764 208.540389 
L 99.366065 206.74495 
L 101.107365 208.581622 
L 102.848665 213.238173 
L 104.589966 218.278185 
L 106.331266 221.182721 
L 108.072567 220.94849 
L 109.813867 218.636471 
L 111.555167 216.556486 
L 113.296468 216.763437 
L 115.037768 219.832578 
L 118.520369 229.405588 
L 120.261669 232.455986 
L 122.002969 233.32412 
L 123.74427 232.447874 
L 125.48557 230.550359 
L 127.22687 228.103894 
L 132.450771 219.517671 
L 134.192072 218.008667 
L 135.933372 218.309698 
L 137.674672 220.298267 
L 139.415973 222.977154 
L 141.157273 224.911696 
L 142.898574 224.969103 
L 144.639874 222.934355 
L 146.381174 219.643871 
L 148.122475 216.613746 
L 149.863775 215.391192 
L 151.605075 216.913703 
L 153.346376 221.126916 
L 156.828976 232.648168 
L 158.570277 236.408963 
L 160.311577 237.2485 
L 162.052877 235.56537 
L 163.794178 233.159489 
L 165.535478 232.385786 
L 167.276778 234.785074 
L 170.759379 245.36697 
L 172.500679 247.84478 
L 174.24198 245.294244 
L 175.98328 238.313212 
L 177.724581 230.149113 
L 179.465881 224.987196 
L 181.207181 225.554473 
L 182.948482 231.510396 
L 184.689782 239.712191 
L 186.431082 246.159752 
L 188.172383 248.304851 
L 189.913683 246.265396 
L 191.654983 242.205745 
L 193.396284 238.519916 
L 195.137584 236.141994 
L 196.878884 234.223536 
L 198.620185 231.284496 
L 202.102785 222.25785 
L 203.844086 220.035322 
L 205.585386 222.153266 
L 207.326686 228.563095 
L 209.067987 236.995471 
L 210.809287 244.291123 
L 212.550588 248.355923 
L 214.291888 249.487867 
L 216.033188 250.242606 
L 217.774489 253.890202 
L 219.515789 262.482442 
L 221.257089 275.668901 
L 222.99839 290.926837 
L 224.73969 304.981143 
L 226.48099 315.487589 
L 228.222291 321.953581 
L 229.963591 325.402668 
L 231.704891 327.141568 
L 233.446192 327.49103 
L 235.187492 325.38827 
L 236.928792 319.169081 
L 238.670093 307.870676 
L 240.411393 292.057703 
L 243.893994 253.825303 
L 245.635294 233.264285 
L 247.376595 210.458931 
L 249.117895 183.840886 
L 254.341796 94.51261 
L 256.083096 73.972916 
L 257.824397 61.260787 
L 259.565697 53.593754 
L 261.306997 46.897864 
L 264.789598 31.182827 
L 266.530898 27.846095 
L 268.272199 32.793414 
L 270.013499 46.394825 
L 273.4961 82.053265 
L 275.2374 93.951861 
L 276.9787 100.241035 
L 278.720001 104.227453 
L 280.461301 109.769409 
L 282.202602 118.210424 
L 283.943902 127.505683 
L 285.685202 134.028366 
L 287.426503 135.524255 
L 289.167803 132.897028 
L 290.909103 129.526396 
L 292.650404 128.788043 
L 294.391704 131.78726 
L 296.133004 136.941389 
L 297.874305 141.548028 
L 299.615605 143.935681 
L 303.098206 144.926452 
L 304.839506 146.608146 
L 306.580806 149.326321 
L 308.322107 151.471067 
L 310.063407 151.30453 
L 311.804707 148.271584 
L 315.287308 138.484715 
L 317.028609 135.260143 
L 318.769909 134.327264 
L 320.511209 135.22174 
L 322.25251 136.809416 
L 323.99381 137.896438 
L 325.73511 137.662816 
L 327.476411 135.94953 
L 329.217711 133.363289 
L 330.959011 131.069458 
L 332.700312 130.241158 
L 334.441612 131.326705 
L 336.182912 133.635005 
L 337.924213 135.646294 
L 339.665513 136.004301 
L 341.406813 134.607679 
L 343.148114 132.896034 
L 344.889414 133.058826 
L 346.630714 136.627966 
L 348.372015 143.416883 
L 350.113315 151.585462 
L 351.854616 158.771717 
L 353.595916 163.430471 
L 355.337216 165.439354 
L 357.078517 165.656906 
L 358.819817 164.98026 
L 360.561117 163.743875 
L 362.302418 161.935565 
L 364.043718 159.912474 
L 365.785018 158.775678 
L 367.526319 159.95851 
L 369.267619 164.19164 
L 372.75022 177.319446 
L 374.49152 181.698405 
L 376.23282 182.560918 
L 377.974121 180.433265 
L 379.715421 177.244977 
L 381.456721 175.215268 
L 383.198022 175.725372 
L 384.939322 178.888903 
L 386.680623 183.883884 
L 390.163223 195.105692 
L 391.904524 199.869576 
L 393.645824 203.627661 
L 395.387124 206.365938 
L 397.128425 208.326077 
L 398.869725 210.008206 
L 400.611025 212.009101 
L 402.352326 214.710257 
L 405.834926 221.04538 
L 407.576227 223.026789 
L 409.317527 223.230476 
L 411.058827 221.657126 
L 412.800128 219.089731 
L 414.541428 216.810015 
L 416.282728 216.025638 
L 418.024029 217.311845 
L 419.765329 220.294984 
L 421.50663 223.760341 
L 423.24793 226.189583 
L 424.98923 226.532254 
L 426.730531 224.800897 
L 428.471831 222.186026 
L 430.213131 220.545697 
L 431.954432 221.536808 
L 433.695732 225.788855 
L 435.437032 232.590532 
L 437.178333 240.210915 
L 438.919633 246.689531 
L 440.660933 250.678592 
L 442.402234 251.972815 
L 444.143534 251.437955 
L 445.884834 250.466144 
L 447.626135 250.217005 
L 449.367435 251.020782 
L 451.108735 252.244863 
L 452.850036 252.748866 
L 454.591336 251.687576 
L 456.332637 249.191653 
L 458.073937 246.415059 
L 459.815237 244.833994 
L 461.556538 245.227369 
L 463.297838 247.024265 
L 465.039138 248.615326 
L 466.780439 248.474886 
L 468.521739 246.318459 
L 470.263039 243.397274 
L 472.00434 241.586849 
L 473.74564 241.9781 
L 477.228241 246.07883 
L 478.969541 246.689692 
L 480.710841 245.970197 
L 482.452142 245.498247 
L 484.193442 246.98404 
L 485.934742 250.663791 
L 487.676043 254.821211 
L 489.417343 256.915868 
L 491.158644 255.479985 
L 494.641244 247.032038 
L 496.382545 245.051836 
L 498.123845 245.979495 
L 499.865145 248.290406 
L 501.606446 249.709984 
L 503.347746 249.033973 
L 505.089046 246.957183 
L 506.830347 245.313583 
L 508.571647 245.463441 
L 510.312947 247.241739 
L 512.054248 249.27928 
L 513.795548 250.33317 
L 515.536848 250.424876 
L 517.278149 250.754593 
L 519.019449 252.525158 
L 522.50205 258.895025 
L 524.24335 260.272141 
L 525.984651 259.132285 
L 527.725951 256.486371 
L 529.467251 254.394655 
L 531.208552 254.491354 
L 532.949852 256.853184 
L 534.691152 259.968711 
L 536.432453 261.758806 
L 538.173753 260.87388 
L 539.915053 257.385871 
L 543.397654 248.032166 
L 545.138954 245.059084 
L 546.880255 244.038475 
L 548.621555 244.555337 
L 550.362855 245.705825 
L 552.104156 246.532361 
L 553.845456 246.463015 
L 557.328057 244.833002 
L 559.069357 244.98358 
L 560.810658 246.396619 
L 562.551958 248.327897 
L 564.293258 249.276279 
L 566.034559 247.963084 
L 567.775859 244.382528 
L 569.517159 240.052015 
L 571.25846 237.17299 
L 572.99976 237.200322 
L 572.99976 237.200322 
" style="fill: none; stroke: #ff7f0e; stroke-width: 1.5; stroke-linecap: square"/>
   </g>
  </g>
  <g id="axes_2">
   <g id="PathCollection_1">
    <defs>
     <path id="C0_0_82db0a95f5" d="M 0 1.118034 
C 0.296506 1.118034 0.580908 1.000231 0.790569 0.790569 
C 1.000231 0.580908 1.118034 0.296506 1.118034 -0 
C 1.118034 -0.296506 1.000231 -0.580908 0.790569 -0.790569 
C 0.580908 -1.000231 0.296506 -1.118034 0 -1.118034 
C -0.296506 -1.118034 -0.580908 -1.000231 -0.790569 -0.790569 
C -1.000231 -0.580908 -1.118034 -0.296506 -1.118034 0 
C -1.118034 0.296506 -1.000231 0.580908 -0.790569 0.790569 
C -0.580908 1.000231 -0.296506 1.118034 0 1.118034 
z
"/>
    </defs>
    <g clip-path="url(#p5dc9214b13)">
     <use xlink:href="#C0_0_82db0a95f5" x="496.159342" y="87.473824" style="stroke: #000000"/>
    </g>
    <g clip-path="url(#p5dc9214b13)">
     <use xlink:href="#C0_0_82db0a95f5" x="543.828716" y="87.446209" style="stroke: #000000"/>
    </g>
   </g>
   <g id="matplotlib.axis_3"/>
   <g id="matplotlib.axis_4"/>
   <g id="line2d_20">
    <path d="M 559.991178 73.637025 
L 559.913484 71.164739 
L 559.680706 68.70221 
L 559.293765 66.259156 
L 558.754186 63.845219 
L 558.064099 61.469927 
L 557.226229 59.142652 
L 556.243881 56.87258 
L 555.120932 54.668669 
L 553.861815 52.539618 
L 552.471498 50.493829 
L 550.955468 48.539375 
L 549.319709 46.68397 
L 547.570676 44.934937 
L 545.715271 43.299178 
L 543.760817 41.783148 
L 541.715028 40.392831 
L 539.585977 39.133714 
L 537.382067 38.010765 
L 535.111994 37.028417 
L 532.78472 36.190547 
L 530.409427 35.50046 
L 527.99549 34.960882 
L 525.552436 34.57394 
L 523.089907 34.341162 
L 520.617621 34.263468 
L 518.145335 34.341162 
L 515.682806 34.57394 
L 513.239752 34.960882 
L 510.825816 35.50046 
L 508.450523 36.190547 
L 506.123248 37.028417 
L 503.853176 38.010765 
L 501.649265 39.133714 
L 499.520214 40.392831 
L 497.474425 41.783148 
L 495.519971 43.299178 
L 493.664567 44.934937 
L 491.915533 46.68397 
L 490.279774 48.539375 
L 488.763744 50.493829 
L 487.373427 52.539618 
L 486.11431 54.668669 
L 484.991361 56.87258 
L 484.009014 59.142652 
L 483.171143 61.469927 
L 482.481057 63.845219 
L 481.941478 66.259156 
L 481.554536 68.70221 
L 481.321759 71.164739 
L 481.244064 73.637025 
L 481.321759 76.109311 
L 481.554536 78.57184 
L 481.941478 81.014894 
L 482.481057 83.42883 
L 483.171143 85.804123 
L 484.009014 88.131398 
L 484.991361 90.40147 
L 486.11431 92.605381 
L 487.373427 94.734432 
L 488.763744 96.780221 
L 490.279774 98.734675 
L 491.915533 100.59008 
L 493.664567 102.339113 
L 495.519971 103.974872 
L 497.474425 105.490902 
L 499.520214 106.881219 
L 501.649265 108.140336 
L 503.853176 109.263285 
L 506.123248 110.245633 
L 508.450523 111.083503 
L 510.825816 111.773589 
L 513.239752 112.313168 
L 515.682806 112.70011 
L 518.145335 112.932887 
L 520.617621 113.010582 
L 523.089907 112.932887 
L 525.552436 112.70011 
L 527.99549 112.313168 
L 530.409427 111.773589 
L 532.78472 111.083503 
L 535.111994 110.245633 
L 537.382067 109.263285 
L 539.585977 108.140336 
L 541.715028 106.881219 
L 543.760817 105.490902 
L 545.715271 103.974872 
L 547.570676 102.339113 
L 549.319709 100.59008 
L 550.955468 98.734675 
L 552.471498 96.780221 
L 553.861815 94.734432 
L 555.120932 92.605381 
L 556.243881 90.40147 
L 557.226229 88.131398 
L 558.064099 85.804123 
L 558.754186 83.42883 
L 559.293765 81.014894 
L 559.680706 78.57184 
L 559.913484 76.109311 
L 559.991178 73.637025 
" style="fill: none; stroke: #000000; stroke-linecap: square"/>
   </g>
   <g id="line2d_21">
    <path d="M 512.371243 35.13671 
L 520.617621 28.357434 
L 528.864 35.13671 
" style="fill: none; stroke: #000000; stroke-linecap: square"/>
   </g>
   <g id="line2d_22">
    <path d="M 481.480305 69.26656 
L 480.456593 67.534124 
L 479.826616 67.471126 
L 478.889525 67.76249 
L 477.94456 69.26656 
L 478.094179 74.070134 
L 477.54295 80.976256 
L 478.724156 83.976521 
L 480.456593 84.535626 
L 482.110282 83.078804 
" style="fill: none; stroke: #000000; stroke-linecap: square"/>
   </g>
   <g id="line2d_23">
    <path d="M 559.754937 69.26656 
L 560.77865 67.534124 
L 561.408627 67.471126 
L 562.345717 67.76249 
L 563.290683 69.26656 
L 563.141063 74.070134 
L 563.692293 80.976256 
L 562.511086 83.976521 
L 560.77865 84.535626 
L 559.12496 83.078804 
" style="fill: none; stroke: #000000; stroke-linecap: square"/>
   </g>
  </g>
 </g>
 <defs>
  <clipPath id="pca326eeea9">
   <rect x="38.420552" y="18.118365" width="534.579207" height="380.525145"/>
  </clipPath>
  <clipPath id="p5dc9214b13">
   <rect x="473.235482" y="24.124777" width="94.764278" height="93.118463"/>
  </clipPath>
 </defs>
</svg>
