<?xml version="1.0" encoding="utf-8" standalone="no"?>
<!DOCTYPE svg PUBLIC "-//W3C//DTD SVG 1.1//EN"
  "http://www.w3.org/Graphics/SVG/1.1/DTD/svg11.dtd">
<svg xmlns:xlink="http://www.w3.org/1999/xlink" width="576pt" height="432pt" viewBox="0 0 576 432" xmlns="http://www.w3.org/2000/svg" version="1.1">
 <metadata>
  <rdf:RDF xmlns:dc="http://purl.org/dc/elements/1.1/" xmlns:cc="http://creativecommons.org/ns#" xmlns:rdf="http://www.w3.org/1999/02/22-rdf-syntax-ns#">
   <cc:Work>
    <dc:type rdf:resource="http://purl.org/dc/dcmitype/StillImage"/>
    <dc:date>2025-02-12T21:11:58.370961</dc:date>
    <dc:format>image/svg+xml</dc:format>
    <dc:creator>
     <cc:Agent>
      <dc:title>Matplotlib v3.10.0, https://matplotlib.org/</dc:title>
     </cc:Agent>
    </dc:creator>
   </cc:Work>
  </rdf:RDF>
 </metadata>
 <defs>
  <style type="text/css">*{stroke-linejoin: round; stroke-linecap: butt}</style>
 </defs>
 <g id="figure_1">
  <g id="patch_1">
   <path d="M 0 432 
L 576 432 
L 576 0 
L 0 0 
z
" style="fill: #ffffff"/>
  </g>
  <g id="axes_1">
   <g id="patch_2">
    <path d="M 54.323678 398.64351 
L 572.99976 398.64351 
L 572.99976 18.118365 
L 54.323678 18.118365 
L 54.323678 398.64351 
z
" style="fill: none; opacity: 0"/>
   </g>
   <g id="patch_3">
    <path d="M 54.323678 383.295616 
L 54.323678 33.466259 
" style="fill: none; stroke: #000000; stroke-width: 0.8; stroke-linejoin: miter; stroke-linecap: square"/>
   </g>
   <g id="LineCollection_1">
    <path d="M 382.694633 18.118365 
L 382.694633 398.64351 
" clip-path="url(#pb3cb5521ed)" style="fill: none; stroke-dasharray: 3.7,1.6; stroke-dashoffset: 0; stroke: #000000"/>
    <path d="M 490.822546 18.118365 
L 490.822546 398.64351 
" clip-path="url(#pb3cb5521ed)" style="fill: none; stroke-dasharray: 3.7,1.6; stroke-dashoffset: 0; stroke: #000000"/>
   </g>
   <g id="matplotlib.axis_1">
    <g id="xtick_1">
     <g id="line2d_1">
      <defs>
       <path id="m054a42f96c" d="M 0 0 
L 0 3.5 
" style="stroke: #000000; stroke-width: 0.8"/>
      </defs>
      <g>
       <use xlink:href="#m054a42f96c" x="79.936477" y="398.64351" style="stroke: #000000; stroke-width: 0.8"/>
      </g>
     </g>
     <g id="text_1">
      <!-- −0.20 -->
      <g transform="translate(64.613821 413.241947) scale(0.1 -0.1)">
       <defs>
        <path id="DejaVuSans-2212" d="M 678 2272 
L 4684 2272 
L 4684 1741 
L 678 1741 
L 678 2272 
z
" transform="scale(0.015625)"/>
        <path id="DejaVuSans-30" d="M 2034 4250 
Q 1547 4250 1301 3770 
Q 1056 3291 1056 2328 
Q 1056 1369 1301 889 
Q 1547 409 2034 409 
Q 2525 409 2770 889 
Q 3016 1369 3016 2328 
Q 3016 3291 2770 3770 
Q 2525 4250 2034 4250 
z
M 2034 4750 
Q 2819 4750 3233 4129 
Q 3647 3509 3647 2328 
Q 3647 1150 3233 529 
Q 2819 -91 2034 -91 
Q 1250 -91 836 529 
Q 422 1150 422 2328 
Q 422 3509 836 4129 
Q 1250 4750 2034 4750 
z
" transform="scale(0.015625)"/>
        <path id="DejaVuSans-2e" d="M 684 794 
L 1344 794 
L 1344 0 
L 684 0 
L 684 794 
z
" transform="scale(0.015625)"/>
        <path id="DejaVuSans-32" d="M 1228 531 
L 3431 531 
L 3431 0 
L 469 0 
L 469 531 
Q 828 903 1448 1529 
Q 2069 2156 2228 2338 
Q 2531 2678 2651 2914 
Q 2772 3150 2772 3378 
Q 2772 3750 2511 3984 
Q 2250 4219 1831 4219 
Q 1534 4219 1204 4116 
Q 875 4013 500 3803 
L 500 4441 
Q 881 4594 1212 4672 
Q 1544 4750 1819 4750 
Q 2544 4750 2975 4387 
Q 3406 4025 3406 3419 
Q 3406 3131 3298 2873 
Q 3191 2616 2906 2266 
Q 2828 2175 2409 1742 
Q 1991 1309 1228 531 
z
" transform="scale(0.015625)"/>
       </defs>
       <use xlink:href="#DejaVuSans-2212"/>
       <use xlink:href="#DejaVuSans-30" transform="translate(83.789062 0)"/>
       <use xlink:href="#DejaVuSans-2e" transform="translate(147.412109 0)"/>
       <use xlink:href="#DejaVuSans-32" transform="translate(179.199219 0)"/>
       <use xlink:href="#DejaVuSans-30" transform="translate(242.822266 0)"/>
      </g>
     </g>
    </g>
    <g id="xtick_2">
     <g id="line2d_2">
      <g>
       <use xlink:href="#m054a42f96c" x="166.438807" y="398.64351" style="stroke: #000000; stroke-width: 0.8"/>
      </g>
     </g>
     <g id="text_2">
      <!-- 0.00 -->
      <g transform="translate(155.305995 413.241947) scale(0.1 -0.1)">
       <use xlink:href="#DejaVuSans-30"/>
       <use xlink:href="#DejaVuSans-2e" transform="translate(63.623047 0)"/>
       <use xlink:href="#DejaVuSans-30" transform="translate(95.410156 0)"/>
       <use xlink:href="#DejaVuSans-30" transform="translate(159.033203 0)"/>
      </g>
     </g>
    </g>
    <g id="xtick_3">
     <g id="line2d_3">
      <g>
       <use xlink:href="#m054a42f96c" x="252.941138" y="398.64351" style="stroke: #000000; stroke-width: 0.8"/>
      </g>
     </g>
     <g id="text_3">
      <!-- 0.20 -->
      <g transform="translate(241.808325 413.241947) scale(0.1 -0.1)">
       <use xlink:href="#DejaVuSans-30"/>
       <use xlink:href="#DejaVuSans-2e" transform="translate(63.623047 0)"/>
       <use xlink:href="#DejaVuSans-32" transform="translate(95.410156 0)"/>
       <use xlink:href="#DejaVuSans-30" transform="translate(159.033203 0)"/>
      </g>
     </g>
    </g>
    <g id="xtick_4">
     <g id="line2d_4">
      <g>
       <use xlink:href="#m054a42f96c" x="339.443468" y="398.64351" style="stroke: #000000; stroke-width: 0.8"/>
      </g>
     </g>
     <g id="text_4">
      <!-- 0.40 -->
      <g transform="translate(328.310655 413.241947) scale(0.1 -0.1)">
       <defs>
        <path id="DejaVuSans-34" d="M 2419 4116 
L 825 1625 
L 2419 1625 
L 2419 4116 
z
M 2253 4666 
L 3047 4666 
L 3047 1625 
L 3713 1625 
L 3713 1100 
L 3047 1100 
L 3047 0 
L 2419 0 
L 2419 1100 
L 313 1100 
L 313 1709 
L 2253 4666 
z
" transform="scale(0.015625)"/>
       </defs>
       <use xlink:href="#DejaVuSans-30"/>
       <use xlink:href="#DejaVuSans-2e" transform="translate(63.623047 0)"/>
       <use xlink:href="#DejaVuSans-34" transform="translate(95.410156 0)"/>
       <use xlink:href="#DejaVuSans-30" transform="translate(159.033203 0)"/>
      </g>
     </g>
    </g>
    <g id="xtick_5">
     <g id="line2d_5">
      <g>
       <use xlink:href="#m054a42f96c" x="382.694633" y="398.64351" style="stroke: #000000; stroke-width: 0.8"/>
      </g>
     </g>
     <g id="text_5">
      <!-- 0.50 -->
      <g transform="translate(371.561821 413.241947) scale(0.1 -0.1)">
       <defs>
        <path id="DejaVuSans-35" d="M 691 4666 
L 3169 4666 
L 3169 4134 
L 1269 4134 
L 1269 2991 
Q 1406 3038 1543 3061 
Q 1681 3084 1819 3084 
Q 2600 3084 3056 2656 
Q 3513 2228 3513 1497 
Q 3513 744 3044 326 
Q 2575 -91 1722 -91 
Q 1428 -91 1123 -41 
Q 819 9 494 109 
L 494 744 
Q 775 591 1075 516 
Q 1375 441 1709 441 
Q 2250 441 2565 725 
Q 2881 1009 2881 1497 
Q 2881 1984 2565 2268 
Q 2250 2553 1709 2553 
Q 1456 2553 1204 2497 
Q 953 2441 691 2322 
L 691 4666 
z
" transform="scale(0.015625)"/>
       </defs>
       <use xlink:href="#DejaVuSans-30"/>
       <use xlink:href="#DejaVuSans-2e" transform="translate(63.623047 0)"/>
       <use xlink:href="#DejaVuSans-35" transform="translate(95.410156 0)"/>
       <use xlink:href="#DejaVuSans-30" transform="translate(159.033203 0)"/>
      </g>
     </g>
    </g>
    <g id="xtick_6">
     <g id="line2d_6">
      <g>
       <use xlink:href="#m054a42f96c" x="425.945798" y="398.64351" style="stroke: #000000; stroke-width: 0.8"/>
      </g>
     </g>
     <g id="text_6">
      <!-- 0.60 -->
      <g transform="translate(414.812986 413.241947) scale(0.1 -0.1)">
       <defs>
        <path id="DejaVuSans-36" d="M 2113 2584 
Q 1688 2584 1439 2293 
Q 1191 2003 1191 1497 
Q 1191 994 1439 701 
Q 1688 409 2113 409 
Q 2538 409 2786 701 
Q 3034 994 3034 1497 
Q 3034 2003 2786 2293 
Q 2538 2584 2113 2584 
z
M 3366 4563 
L 3366 3988 
Q 3128 4100 2886 4159 
Q 2644 4219 2406 4219 
Q 1781 4219 1451 3797 
Q 1122 3375 1075 2522 
Q 1259 2794 1537 2939 
Q 1816 3084 2150 3084 
Q 2853 3084 3261 2657 
Q 3669 2231 3669 1497 
Q 3669 778 3244 343 
Q 2819 -91 2113 -91 
Q 1303 -91 875 529 
Q 447 1150 447 2328 
Q 447 3434 972 4092 
Q 1497 4750 2381 4750 
Q 2619 4750 2861 4703 
Q 3103 4656 3366 4563 
z
" transform="scale(0.015625)"/>
       </defs>
       <use xlink:href="#DejaVuSans-30"/>
       <use xlink:href="#DejaVuSans-2e" transform="translate(63.623047 0)"/>
       <use xlink:href="#DejaVuSans-36" transform="translate(95.410156 0)"/>
       <use xlink:href="#DejaVuSans-30" transform="translate(159.033203 0)"/>
      </g>
     </g>
    </g>
    <g id="xtick_7">
     <g id="line2d_7">
      <g>
       <use xlink:href="#m054a42f96c" x="490.822546" y="398.64351" style="stroke: #000000; stroke-width: 0.8"/>
      </g>
     </g>
     <g id="text_7">
      <!-- 0.75 -->
      <g transform="translate(479.689734 413.241947) scale(0.1 -0.1)">
       <defs>
        <path id="DejaVuSans-37" d="M 525 4666 
L 3525 4666 
L 3525 4397 
L 1831 0 
L 1172 0 
L 2766 4134 
L 525 4134 
L 525 4666 
z
" transform="scale(0.015625)"/>
       </defs>
       <use xlink:href="#DejaVuSans-30"/>
       <use xlink:href="#DejaVuSans-2e" transform="translate(63.623047 0)"/>
       <use xlink:href="#DejaVuSans-37" transform="translate(95.410156 0)"/>
       <use xlink:href="#DejaVuSans-35" transform="translate(159.033203 0)"/>
      </g>
     </g>
    </g>
    <g id="xtick_8">
     <g id="line2d_8">
      <g>
       <use xlink:href="#m054a42f96c" x="512.448129" y="398.64351" style="stroke: #000000; stroke-width: 0.8"/>
      </g>
     </g>
     <g id="text_8">
      <!-- 0.80 -->
      <g transform="translate(501.315316 413.241947) scale(0.1 -0.1)">
       <defs>
        <path id="DejaVuSans-38" d="M 2034 2216 
Q 1584 2216 1326 1975 
Q 1069 1734 1069 1313 
Q 1069 891 1326 650 
Q 1584 409 2034 409 
Q 2484 409 2743 651 
Q 3003 894 3003 1313 
Q 3003 1734 2745 1975 
Q 2488 2216 2034 2216 
z
M 1403 2484 
Q 997 2584 770 2862 
Q 544 3141 544 3541 
Q 544 4100 942 4425 
Q 1341 4750 2034 4750 
Q 2731 4750 3128 4425 
Q 3525 4100 3525 3541 
Q 3525 3141 3298 2862 
Q 3072 2584 2669 2484 
Q 3125 2378 3379 2068 
Q 3634 1759 3634 1313 
Q 3634 634 3220 271 
Q 2806 -91 2034 -91 
Q 1263 -91 848 271 
Q 434 634 434 1313 
Q 434 1759 690 2068 
Q 947 2378 1403 2484 
z
M 1172 3481 
Q 1172 3119 1398 2916 
Q 1625 2713 2034 2713 
Q 2441 2713 2670 2916 
Q 2900 3119 2900 3481 
Q 2900 3844 2670 4047 
Q 2441 4250 2034 4250 
Q 1625 4250 1398 4047 
Q 1172 3844 1172 3481 
z
" transform="scale(0.015625)"/>
       </defs>
       <use xlink:href="#DejaVuSans-30"/>
       <use xlink:href="#DejaVuSans-2e" transform="translate(63.623047 0)"/>
       <use xlink:href="#DejaVuSans-38" transform="translate(95.410156 0)"/>
       <use xlink:href="#DejaVuSans-30" transform="translate(159.033203 0)"/>
      </g>
     </g>
    </g>
    <g id="text_9">
     <!-- Time (s) -->
     <g transform="translate(293.332812 426.920073) scale(0.1 -0.1)">
      <defs>
       <path id="DejaVuSans-54" d="M -19 4666 
L 3928 4666 
L 3928 4134 
L 2272 4134 
L 2272 0 
L 1638 0 
L 1638 4134 
L -19 4134 
L -19 4666 
z
" transform="scale(0.015625)"/>
       <path id="DejaVuSans-69" d="M 603 3500 
L 1178 3500 
L 1178 0 
L 603 0 
L 603 3500 
z
M 603 4863 
L 1178 4863 
L 1178 4134 
L 603 4134 
L 603 4863 
z
" transform="scale(0.015625)"/>
       <path id="DejaVuSans-6d" d="M 3328 2828 
Q 3544 3216 3844 3400 
Q 4144 3584 4550 3584 
Q 5097 3584 5394 3201 
Q 5691 2819 5691 2113 
L 5691 0 
L 5113 0 
L 5113 2094 
Q 5113 2597 4934 2840 
Q 4756 3084 4391 3084 
Q 3944 3084 3684 2787 
Q 3425 2491 3425 1978 
L 3425 0 
L 2847 0 
L 2847 2094 
Q 2847 2600 2669 2842 
Q 2491 3084 2119 3084 
Q 1678 3084 1418 2786 
Q 1159 2488 1159 1978 
L 1159 0 
L 581 0 
L 581 3500 
L 1159 3500 
L 1159 2956 
Q 1356 3278 1631 3431 
Q 1906 3584 2284 3584 
Q 2666 3584 2933 3390 
Q 3200 3197 3328 2828 
z
" transform="scale(0.015625)"/>
       <path id="DejaVuSans-65" d="M 3597 1894 
L 3597 1613 
L 953 1613 
Q 991 1019 1311 708 
Q 1631 397 2203 397 
Q 2534 397 2845 478 
Q 3156 559 3463 722 
L 3463 178 
Q 3153 47 2828 -22 
Q 2503 -91 2169 -91 
Q 1331 -91 842 396 
Q 353 884 353 1716 
Q 353 2575 817 3079 
Q 1281 3584 2069 3584 
Q 2775 3584 3186 3129 
Q 3597 2675 3597 1894 
z
M 3022 2063 
Q 3016 2534 2758 2815 
Q 2500 3097 2075 3097 
Q 1594 3097 1305 2825 
Q 1016 2553 972 2059 
L 3022 2063 
z
" transform="scale(0.015625)"/>
       <path id="DejaVuSans-20" transform="scale(0.015625)"/>
       <path id="DejaVuSans-28" d="M 1984 4856 
Q 1566 4138 1362 3434 
Q 1159 2731 1159 2009 
Q 1159 1288 1364 580 
Q 1569 -128 1984 -844 
L 1484 -844 
Q 1016 -109 783 600 
Q 550 1309 550 2009 
Q 550 2706 781 3412 
Q 1013 4119 1484 4856 
L 1984 4856 
z
" transform="scale(0.015625)"/>
       <path id="DejaVuSans-73" d="M 2834 3397 
L 2834 2853 
Q 2591 2978 2328 3040 
Q 2066 3103 1784 3103 
Q 1356 3103 1142 2972 
Q 928 2841 928 2578 
Q 928 2378 1081 2264 
Q 1234 2150 1697 2047 
L 1894 2003 
Q 2506 1872 2764 1633 
Q 3022 1394 3022 966 
Q 3022 478 2636 193 
Q 2250 -91 1575 -91 
Q 1294 -91 989 -36 
Q 684 19 347 128 
L 347 722 
Q 666 556 975 473 
Q 1284 391 1588 391 
Q 1994 391 2212 530 
Q 2431 669 2431 922 
Q 2431 1156 2273 1281 
Q 2116 1406 1581 1522 
L 1381 1569 
Q 847 1681 609 1914 
Q 372 2147 372 2553 
Q 372 3047 722 3315 
Q 1072 3584 1716 3584 
Q 2034 3584 2315 3537 
Q 2597 3491 2834 3397 
z
" transform="scale(0.015625)"/>
       <path id="DejaVuSans-29" d="M 513 4856 
L 1013 4856 
Q 1481 4119 1714 3412 
Q 1947 2706 1947 2009 
Q 1947 1309 1714 600 
Q 1481 -109 1013 -844 
L 513 -844 
Q 928 -128 1133 580 
Q 1338 1288 1338 2009 
Q 1338 2731 1133 3434 
Q 928 4138 513 4856 
z
" transform="scale(0.015625)"/>
      </defs>
      <use xlink:href="#DejaVuSans-54"/>
      <use xlink:href="#DejaVuSans-69" transform="translate(57.958984 0)"/>
      <use xlink:href="#DejaVuSans-6d" transform="translate(85.742188 0)"/>
      <use xlink:href="#DejaVuSans-65" transform="translate(183.154297 0)"/>
      <use xlink:href="#DejaVuSans-20" transform="translate(244.677734 0)"/>
      <use xlink:href="#DejaVuSans-28" transform="translate(276.464844 0)"/>
      <use xlink:href="#DejaVuSans-73" transform="translate(315.478516 0)"/>
      <use xlink:href="#DejaVuSans-29" transform="translate(367.578125 0)"/>
     </g>
    </g>
   </g>
   <g id="matplotlib.axis_2">
    <g id="ytick_1">
     <g id="line2d_9">
      <defs>
       <path id="m06b91acfe2" d="M 0 0 
L -3.5 0 
" style="stroke: #000000; stroke-width: 0.8"/>
      </defs>
      <g>
       <use xlink:href="#m06b91acfe2" x="54.323678" y="383.295616" style="stroke: #000000; stroke-width: 0.8"/>
      </g>
     </g>
     <g id="text_10">
      <!-- −10.0 -->
      <g transform="translate(16.678365 387.094835) scale(0.1 -0.1)">
       <defs>
        <path id="DejaVuSans-31" d="M 794 531 
L 1825 531 
L 1825 4091 
L 703 3866 
L 703 4441 
L 1819 4666 
L 2450 4666 
L 2450 531 
L 3481 531 
L 3481 0 
L 794 0 
L 794 531 
z
" transform="scale(0.015625)"/>
       </defs>
       <use xlink:href="#DejaVuSans-2212"/>
       <use xlink:href="#DejaVuSans-31" transform="translate(83.789062 0)"/>
       <use xlink:href="#DejaVuSans-30" transform="translate(147.412109 0)"/>
       <use xlink:href="#DejaVuSans-2e" transform="translate(211.035156 0)"/>
       <use xlink:href="#DejaVuSans-30" transform="translate(242.822266 0)"/>
      </g>
     </g>
    </g>
    <g id="ytick_2">
     <g id="line2d_10">
      <g>
       <use xlink:href="#m06b91acfe2" x="54.323678" y="339.566946" style="stroke: #000000; stroke-width: 0.8"/>
      </g>
     </g>
     <g id="text_11">
      <!-- −7.5 -->
      <g transform="translate(23.040865 343.366165) scale(0.1 -0.1)">
       <use xlink:href="#DejaVuSans-2212"/>
       <use xlink:href="#DejaVuSans-37" transform="translate(83.789062 0)"/>
       <use xlink:href="#DejaVuSans-2e" transform="translate(147.412109 0)"/>
       <use xlink:href="#DejaVuSans-35" transform="translate(179.199219 0)"/>
      </g>
     </g>
    </g>
    <g id="ytick_3">
     <g id="line2d_11">
      <g>
       <use xlink:href="#m06b91acfe2" x="54.323678" y="295.838277" style="stroke: #000000; stroke-width: 0.8"/>
      </g>
     </g>
     <g id="text_12">
      <!-- −5.0 -->
      <g transform="translate(23.040865 299.637495) scale(0.1 -0.1)">
       <use xlink:href="#DejaVuSans-2212"/>
       <use xlink:href="#DejaVuSans-35" transform="translate(83.789062 0)"/>
       <use xlink:href="#DejaVuSans-2e" transform="translate(147.412109 0)"/>
       <use xlink:href="#DejaVuSans-30" transform="translate(179.199219 0)"/>
      </g>
     </g>
    </g>
    <g id="ytick_4">
     <g id="line2d_12">
      <g>
       <use xlink:href="#m06b91acfe2" x="54.323678" y="252.109607" style="stroke: #000000; stroke-width: 0.8"/>
      </g>
     </g>
     <g id="text_13">
      <!-- −2.5 -->
      <g transform="translate(23.040865 255.908826) scale(0.1 -0.1)">
       <use xlink:href="#DejaVuSans-2212"/>
       <use xlink:href="#DejaVuSans-32" transform="translate(83.789062 0)"/>
       <use xlink:href="#DejaVuSans-2e" transform="translate(147.412109 0)"/>
       <use xlink:href="#DejaVuSans-35" transform="translate(179.199219 0)"/>
      </g>
     </g>
    </g>
    <g id="ytick_5">
     <g id="line2d_13">
      <g>
       <use xlink:href="#m06b91acfe2" x="54.323678" y="208.380937" style="stroke: #000000; stroke-width: 0.8"/>
      </g>
     </g>
     <g id="text_14">
      <!-- 0.0 -->
      <g transform="translate(31.420552 212.180156) scale(0.1 -0.1)">
       <use xlink:href="#DejaVuSans-30"/>
       <use xlink:href="#DejaVuSans-2e" transform="translate(63.623047 0)"/>
       <use xlink:href="#DejaVuSans-30" transform="translate(95.410156 0)"/>
      </g>
     </g>
    </g>
    <g id="ytick_6">
     <g id="line2d_14">
      <g>
       <use xlink:href="#m06b91acfe2" x="54.323678" y="164.652268" style="stroke: #000000; stroke-width: 0.8"/>
      </g>
     </g>
     <g id="text_15">
      <!-- 2.5 -->
      <g transform="translate(31.420552 168.451487) scale(0.1 -0.1)">
       <use xlink:href="#DejaVuSans-32"/>
       <use xlink:href="#DejaVuSans-2e" transform="translate(63.623047 0)"/>
       <use xlink:href="#DejaVuSans-35" transform="translate(95.410156 0)"/>
      </g>
     </g>
    </g>
    <g id="ytick_7">
     <g id="line2d_15">
      <g>
       <use xlink:href="#m06b91acfe2" x="54.323678" y="120.923598" style="stroke: #000000; stroke-width: 0.8"/>
      </g>
     </g>
     <g id="text_16">
      <!-- 5.0 -->
      <g transform="translate(31.420552 124.722817) scale(0.1 -0.1)">
       <use xlink:href="#DejaVuSans-35"/>
       <use xlink:href="#DejaVuSans-2e" transform="translate(63.623047 0)"/>
       <use xlink:href="#DejaVuSans-30" transform="translate(95.410156 0)"/>
      </g>
     </g>
    </g>
    <g id="ytick_8">
     <g id="line2d_16">
      <g>
       <use xlink:href="#m06b91acfe2" x="54.323678" y="77.194929" style="stroke: #000000; stroke-width: 0.8"/>
      </g>
     </g>
     <g id="text_17">
      <!-- 7.5 -->
      <g transform="translate(31.420552 80.994147) scale(0.1 -0.1)">
       <use xlink:href="#DejaVuSans-37"/>
       <use xlink:href="#DejaVuSans-2e" transform="translate(63.623047 0)"/>
       <use xlink:href="#DejaVuSans-35" transform="translate(95.410156 0)"/>
      </g>
     </g>
    </g>
    <g id="ytick_9">
     <g id="line2d_17">
      <g>
       <use xlink:href="#m06b91acfe2" x="54.323678" y="33.466259" style="stroke: #000000; stroke-width: 0.8"/>
      </g>
     </g>
     <g id="text_18">
      <!-- 10.0 -->
      <g transform="translate(25.058053 37.265478) scale(0.1 -0.1)">
       <use xlink:href="#DejaVuSans-31"/>
       <use xlink:href="#DejaVuSans-30" transform="translate(63.623047 0)"/>
       <use xlink:href="#DejaVuSans-2e" transform="translate(127.246094 0)"/>
       <use xlink:href="#DejaVuSans-30" transform="translate(159.033203 0)"/>
      </g>
     </g>
    </g>
    <g id="text_19">
     <!-- µV -->
     <g transform="translate(10.598677 214.9825) rotate(-90) scale(0.1 -0.1)">
      <defs>
       <path id="DejaVuSans-b5" d="M 544 -1331 
L 544 3500 
L 1119 3500 
L 1119 1325 
Q 1119 872 1334 640 
Q 1550 409 1972 409 
Q 2434 409 2667 671 
Q 2900 934 2900 1459 
L 2900 3500 
L 3475 3500 
L 3475 806 
Q 3475 619 3529 530 
Q 3584 441 3700 441 
Q 3728 441 3778 458 
Q 3828 475 3916 513 
L 3916 50 
Q 3788 -22 3673 -56 
Q 3559 -91 3450 -91 
Q 3234 -91 3106 31 
Q 2978 153 2931 403 
Q 2775 156 2548 32 
Q 2322 -91 2016 -91 
Q 1697 -91 1473 31 
Q 1250 153 1119 397 
L 1119 -1331 
L 544 -1331 
z
" transform="scale(0.015625)"/>
       <path id="DejaVuSans-56" d="M 1831 0 
L 50 4666 
L 709 4666 
L 2188 738 
L 3669 4666 
L 4325 4666 
L 2547 0 
L 1831 0 
z
" transform="scale(0.015625)"/>
      </defs>
      <use xlink:href="#DejaVuSans-b5"/>
      <use xlink:href="#DejaVuSans-56" transform="translate(63.623047 0)"/>
     </g>
    </g>
   </g>
   <g id="patch_4">
    <path d="M 79.936477 398.64351 
L 512.448129 398.64351 
" style="fill: none; stroke: #000000; stroke-width: 0.8; stroke-linejoin: miter; stroke-linecap: square"/>
   </g>
   <g id="patch_5">
    <path d="M 54.323678 208.380937 
L 572.99976 208.380937 
" style="fill: none; stroke: #000000; stroke-width: 0.8; stroke-linejoin: miter; stroke-linecap: square"/>
   </g>
   <g id="text_20">
    <!-- ihj P600: P3, Pz, P4 (mean) -->
    <g transform="translate(232.750781 12.118365) scale(0.12 -0.12)">
     <defs>
      <path id="DejaVuSans-68" d="M 3513 2113 
L 3513 0 
L 2938 0 
L 2938 2094 
Q 2938 2591 2744 2837 
Q 2550 3084 2163 3084 
Q 1697 3084 1428 2787 
Q 1159 2491 1159 1978 
L 1159 0 
L 581 0 
L 581 4863 
L 1159 4863 
L 1159 2956 
Q 1366 3272 1645 3428 
Q 1925 3584 2291 3584 
Q 2894 3584 3203 3211 
Q 3513 2838 3513 2113 
z
" transform="scale(0.015625)"/>
      <path id="DejaVuSans-6a" d="M 603 3500 
L 1178 3500 
L 1178 -63 
Q 1178 -731 923 -1031 
Q 669 -1331 103 -1331 
L -116 -1331 
L -116 -844 
L 38 -844 
Q 366 -844 484 -692 
Q 603 -541 603 -63 
L 603 3500 
z
M 603 4863 
L 1178 4863 
L 1178 4134 
L 603 4134 
L 603 4863 
z
" transform="scale(0.015625)"/>
      <path id="DejaVuSans-50" d="M 1259 4147 
L 1259 2394 
L 2053 2394 
Q 2494 2394 2734 2622 
Q 2975 2850 2975 3272 
Q 2975 3691 2734 3919 
Q 2494 4147 2053 4147 
L 1259 4147 
z
M 628 4666 
L 2053 4666 
Q 2838 4666 3239 4311 
Q 3641 3956 3641 3272 
Q 3641 2581 3239 2228 
Q 2838 1875 2053 1875 
L 1259 1875 
L 1259 0 
L 628 0 
L 628 4666 
z
" transform="scale(0.015625)"/>
      <path id="DejaVuSans-3a" d="M 750 794 
L 1409 794 
L 1409 0 
L 750 0 
L 750 794 
z
M 750 3309 
L 1409 3309 
L 1409 2516 
L 750 2516 
L 750 3309 
z
" transform="scale(0.015625)"/>
      <path id="DejaVuSans-33" d="M 2597 2516 
Q 3050 2419 3304 2112 
Q 3559 1806 3559 1356 
Q 3559 666 3084 287 
Q 2609 -91 1734 -91 
Q 1441 -91 1130 -33 
Q 819 25 488 141 
L 488 750 
Q 750 597 1062 519 
Q 1375 441 1716 441 
Q 2309 441 2620 675 
Q 2931 909 2931 1356 
Q 2931 1769 2642 2001 
Q 2353 2234 1838 2234 
L 1294 2234 
L 1294 2753 
L 1863 2753 
Q 2328 2753 2575 2939 
Q 2822 3125 2822 3475 
Q 2822 3834 2567 4026 
Q 2313 4219 1838 4219 
Q 1578 4219 1281 4162 
Q 984 4106 628 3988 
L 628 4550 
Q 988 4650 1302 4700 
Q 1616 4750 1894 4750 
Q 2613 4750 3031 4423 
Q 3450 4097 3450 3541 
Q 3450 3153 3228 2886 
Q 3006 2619 2597 2516 
z
" transform="scale(0.015625)"/>
      <path id="DejaVuSans-2c" d="M 750 794 
L 1409 794 
L 1409 256 
L 897 -744 
L 494 -744 
L 750 256 
L 750 794 
z
" transform="scale(0.015625)"/>
      <path id="DejaVuSans-7a" d="M 353 3500 
L 3084 3500 
L 3084 2975 
L 922 459 
L 3084 459 
L 3084 0 
L 275 0 
L 275 525 
L 2438 3041 
L 353 3041 
L 353 3500 
z
" transform="scale(0.015625)"/>
      <path id="DejaVuSans-61" d="M 2194 1759 
Q 1497 1759 1228 1600 
Q 959 1441 959 1056 
Q 959 750 1161 570 
Q 1363 391 1709 391 
Q 2188 391 2477 730 
Q 2766 1069 2766 1631 
L 2766 1759 
L 2194 1759 
z
M 3341 1997 
L 3341 0 
L 2766 0 
L 2766 531 
Q 2569 213 2275 61 
Q 1981 -91 1556 -91 
Q 1019 -91 701 211 
Q 384 513 384 1019 
Q 384 1609 779 1909 
Q 1175 2209 1959 2209 
L 2766 2209 
L 2766 2266 
Q 2766 2663 2505 2880 
Q 2244 3097 1772 3097 
Q 1472 3097 1187 3025 
Q 903 2953 641 2809 
L 641 3341 
Q 956 3463 1253 3523 
Q 1550 3584 1831 3584 
Q 2591 3584 2966 3190 
Q 3341 2797 3341 1997 
z
" transform="scale(0.015625)"/>
      <path id="DejaVuSans-6e" d="M 3513 2113 
L 3513 0 
L 2938 0 
L 2938 2094 
Q 2938 2591 2744 2837 
Q 2550 3084 2163 3084 
Q 1697 3084 1428 2787 
Q 1159 2491 1159 1978 
L 1159 0 
L 581 0 
L 581 3500 
L 1159 3500 
L 1159 2956 
Q 1366 3272 1645 3428 
Q 1925 3584 2291 3584 
Q 2894 3584 3203 3211 
Q 3513 2838 3513 2113 
z
" transform="scale(0.015625)"/>
     </defs>
     <use xlink:href="#DejaVuSans-69"/>
     <use xlink:href="#DejaVuSans-68" transform="translate(27.783203 0)"/>
     <use xlink:href="#DejaVuSans-6a" transform="translate(91.162109 0)"/>
     <use xlink:href="#DejaVuSans-20" transform="translate(118.945312 0)"/>
     <use xlink:href="#DejaVuSans-50" transform="translate(150.732422 0)"/>
     <use xlink:href="#DejaVuSans-36" transform="translate(211.035156 0)"/>
     <use xlink:href="#DejaVuSans-30" transform="translate(274.658203 0)"/>
     <use xlink:href="#DejaVuSans-30" transform="translate(338.28125 0)"/>
     <use xlink:href="#DejaVuSans-3a" transform="translate(401.904297 0)"/>
     <use xlink:href="#DejaVuSans-20" transform="translate(435.595703 0)"/>
     <use xlink:href="#DejaVuSans-50" transform="translate(467.382812 0)"/>
     <use xlink:href="#DejaVuSans-33" transform="translate(527.685547 0)"/>
     <use xlink:href="#DejaVuSans-2c" transform="translate(591.308594 0)"/>
     <use xlink:href="#DejaVuSans-20" transform="translate(623.095703 0)"/>
     <use xlink:href="#DejaVuSans-50" transform="translate(654.882812 0)"/>
     <use xlink:href="#DejaVuSans-7a" transform="translate(715.185547 0)"/>
     <use xlink:href="#DejaVuSans-2c" transform="translate(767.675781 0)"/>
     <use xlink:href="#DejaVuSans-20" transform="translate(799.462891 0)"/>
     <use xlink:href="#DejaVuSans-50" transform="translate(831.25 0)"/>
     <use xlink:href="#DejaVuSans-34" transform="translate(891.552734 0)"/>
     <use xlink:href="#DejaVuSans-20" transform="translate(955.175781 0)"/>
     <use xlink:href="#DejaVuSans-28" transform="translate(986.962891 0)"/>
     <use xlink:href="#DejaVuSans-6d" transform="translate(1025.976562 0)"/>
     <use xlink:href="#DejaVuSans-65" transform="translate(1123.388672 0)"/>
     <use xlink:href="#DejaVuSans-61" transform="translate(1184.912109 0)"/>
     <use xlink:href="#DejaVuSans-6e" transform="translate(1246.191406 0)"/>
     <use xlink:href="#DejaVuSans-29" transform="translate(1309.570312 0)"/>
    </g>
   </g>
   <g id="legend_1">
    <g id="patch_6">
     <path d="M 61.323678 55.75274 
L 142.465865 55.75274 
Q 144.465865 55.75274 144.465865 53.75274 
L 144.465865 25.118365 
Q 144.465865 23.118365 142.465865 23.118365 
L 61.323678 23.118365 
Q 59.323678 23.118365 59.323678 25.118365 
L 59.323678 53.75274 
Q 59.323678 55.75274 61.323678 55.75274 
z
" style="fill: #ffffff; opacity: 0.8; stroke: #cccccc; stroke-linejoin: miter"/>
    </g>
    <g id="line2d_18">
     <path d="M 63.323678 31.216803 
L 73.323678 31.216803 
L 83.323678 31.216803 
" style="fill: none; stroke: #1f77b4; stroke-width: 1.5; stroke-linecap: square"/>
    </g>
    <g id="text_21">
     <!-- eerie -->
     <g transform="translate(91.323678 34.716803) scale(0.1 -0.1)">
      <defs>
       <path id="DejaVuSans-72" d="M 2631 2963 
Q 2534 3019 2420 3045 
Q 2306 3072 2169 3072 
Q 1681 3072 1420 2755 
Q 1159 2438 1159 1844 
L 1159 0 
L 581 0 
L 581 3500 
L 1159 3500 
L 1159 2956 
Q 1341 3275 1631 3429 
Q 1922 3584 2338 3584 
Q 2397 3584 2469 3576 
Q 2541 3569 2628 3553 
L 2631 2963 
z
" transform="scale(0.015625)"/>
      </defs>
      <use xlink:href="#DejaVuSans-65"/>
      <use xlink:href="#DejaVuSans-65" transform="translate(61.523438 0)"/>
      <use xlink:href="#DejaVuSans-72" transform="translate(123.046875 0)"/>
      <use xlink:href="#DejaVuSans-69" transform="translate(164.160156 0)"/>
      <use xlink:href="#DejaVuSans-65" transform="translate(191.943359 0)"/>
     </g>
    </g>
    <g id="line2d_19">
     <path d="M 63.323678 45.894928 
L 73.323678 45.894928 
L 83.323678 45.894928 
" style="fill: none; stroke: #ff7f0e; stroke-width: 1.5; stroke-linecap: square"/>
    </g>
    <g id="text_22">
     <!-- non_eerie -->
     <g transform="translate(91.323678 49.394928) scale(0.1 -0.1)">
      <defs>
       <path id="DejaVuSans-6f" d="M 1959 3097 
Q 1497 3097 1228 2736 
Q 959 2375 959 1747 
Q 959 1119 1226 758 
Q 1494 397 1959 397 
Q 2419 397 2687 759 
Q 2956 1122 2956 1747 
Q 2956 2369 2687 2733 
Q 2419 3097 1959 3097 
z
M 1959 3584 
Q 2709 3584 3137 3096 
Q 3566 2609 3566 1747 
Q 3566 888 3137 398 
Q 2709 -91 1959 -91 
Q 1206 -91 779 398 
Q 353 888 353 1747 
Q 353 2609 779 3096 
Q 1206 3584 1959 3584 
z
" transform="scale(0.015625)"/>
       <path id="DejaVuSans-5f" d="M 3263 -1063 
L 3263 -1509 
L -63 -1509 
L -63 -1063 
L 3263 -1063 
z
" transform="scale(0.015625)"/>
      </defs>
      <use xlink:href="#DejaVuSans-6e"/>
      <use xlink:href="#DejaVuSans-6f" transform="translate(63.378906 0)"/>
      <use xlink:href="#DejaVuSans-6e" transform="translate(124.560547 0)"/>
      <use xlink:href="#DejaVuSans-5f" transform="translate(187.939453 0)"/>
      <use xlink:href="#DejaVuSans-65" transform="translate(237.939453 0)"/>
      <use xlink:href="#DejaVuSans-65" transform="translate(299.462891 0)"/>
      <use xlink:href="#DejaVuSans-72" transform="translate(360.986328 0)"/>
      <use xlink:href="#DejaVuSans-69" transform="translate(402.099609 0)"/>
      <use xlink:href="#DejaVuSans-65" transform="translate(429.882812 0)"/>
     </g>
    </g>
   </g>
   <g id="line2d_20">
    <path d="M 54.323678 204.939746 
L 56.013176 203.698802 
L 57.702675 207.817481 
L 61.081672 221.494246 
L 62.771171 226.225788 
L 64.460669 228.930647 
L 66.150168 230.54974 
L 67.839667 231.753747 
L 69.529165 232.106833 
L 71.218664 230.2584 
L 72.908163 224.823134 
L 74.597661 215.434391 
L 77.976658 190.689078 
L 79.666157 180.426024 
L 81.355656 174.350031 
L 83.045154 172.721983 
L 84.734653 174.273816 
L 86.424152 177.002752 
L 88.11365 179.416518 
L 89.803149 181.295101 
L 91.492648 183.57565 
L 93.182146 187.426413 
L 94.871645 193.237028 
L 98.250642 206.777044 
L 99.940141 211.646642 
L 101.629639 214.434834 
L 103.319138 215.558399 
L 105.008637 215.498892 
L 106.698135 214.221536 
L 108.387634 211.338229 
L 110.077133 206.919732 
L 111.766631 202.179145 
L 113.45613 199.280958 
L 115.145629 200.177483 
L 116.835127 205.223652 
L 118.524626 212.689202 
L 120.214124 219.524345 
L 121.903623 223.078541 
L 123.593122 222.57697 
L 125.28262 219.267059 
L 126.972119 215.477737 
L 128.661618 213.200993 
L 130.351116 213.137602 
L 132.040615 214.871911 
L 135.419612 220.232581 
L 137.109111 222.533436 
L 138.79861 223.896167 
L 140.488108 223.893959 
L 142.177607 222.474956 
L 143.867105 220.361257 
L 145.556604 218.986477 
L 147.246103 219.72498 
L 148.935601 222.944622 
L 150.6251 227.473898 
L 152.314599 231.132609 
L 154.004097 231.941377 
L 155.693596 229.273658 
L 159.072593 218.822181 
L 160.762092 215.124397 
L 162.45159 214.157896 
L 164.141089 215.820002 
L 165.830588 219.303345 
L 169.209585 227.987259 
L 170.899084 231.881606 
L 174.278081 238.395226 
L 175.96758 242.171212 
L 177.657078 247.201334 
L 181.036076 259.932413 
L 182.725574 264.996113 
L 184.415073 267.255383 
L 186.104571 266.316635 
L 187.79407 262.919427 
L 189.483569 258.203494 
L 191.173067 252.865533 
L 192.862566 246.850194 
L 196.241563 232.823878 
L 197.931062 227.292547 
L 199.620561 225.595534 
L 201.310059 228.969245 
L 202.999558 236.600126 
L 204.689056 245.943734 
L 206.378555 254.221246 
L 208.068054 260.002278 
L 209.757552 263.6494 
L 211.447051 266.203094 
L 213.13655 267.805338 
L 214.826048 266.949124 
L 216.515547 261.468636 
L 218.205046 250.636034 
L 221.584043 223.24892 
L 223.273542 214.842069 
L 224.96304 212.349849 
L 226.652539 213.351628 
L 228.342037 213.813576 
L 230.031536 211.273189 
L 231.721035 206.970095 
L 233.410533 205.150644 
L 235.100032 210.001508 
L 236.789531 222.315559 
L 238.479029 238.430915 
L 240.168528 252.255874 
L 241.858027 258.881684 
L 243.547525 257.295046 
L 245.237024 250.212138 
L 248.616021 232.787729 
L 250.30552 223.045555 
L 251.995018 209.448427 
L 253.684517 190.411011 
L 257.063514 143.677599 
L 258.753013 123.076881 
L 260.442512 106.711139 
L 262.13201 93.370192 
L 265.511008 69.659233 
L 267.200506 60.665791 
L 268.890005 56.793983 
L 270.579503 59.08944 
L 273.958501 72.520945 
L 275.647999 76.030743 
L 277.337498 75.189754 
L 279.026997 72.172195 
L 280.716495 70.736824 
L 282.405994 73.805813 
L 284.095493 81.732453 
L 287.47449 102.272633 
L 289.163988 109.284439 
L 290.853487 112.799227 
L 294.232484 115.308273 
L 295.921983 118.702632 
L 297.611482 125.708899 
L 299.30098 136.496984 
L 302.679978 163.038352 
L 304.369476 173.511701 
L 306.058975 179.187765 
L 307.748474 179.81958 
L 309.437972 176.96746 
L 311.127471 173.045365 
L 312.816969 169.972153 
L 314.506468 168.199613 
L 316.195967 166.828306 
L 317.885465 164.659465 
L 319.574964 161.220888 
L 321.264463 157.153313 
L 322.953961 153.583256 
L 324.64346 151.129843 
L 326.332959 149.339614 
L 328.022457 146.884984 
L 329.711956 142.525421 
L 331.401454 136.011066 
L 333.090953 128.333165 
L 334.780452 121.238071 
L 336.46995 116.330095 
L 338.159449 114.294852 
L 339.848948 114.57559 
L 341.538446 115.582201 
L 343.227945 115.364462 
L 344.917444 112.364072 
L 346.606942 106.088301 
L 348.296441 97.286913 
L 349.98594 87.571191 
L 351.675438 78.598209 
L 353.364937 71.172303 
L 356.743934 58.359519 
L 358.433433 50.434375 
L 361.81243 30.891971 
L 363.501929 22.574781 
L 365.191427 18.118365 
L 366.880926 18.871667 
L 368.570425 24.844491 
L 370.259923 34.646189 
L 371.949422 45.737663 
L 373.63892 55.073508 
L 375.328419 59.965713 
L 377.017918 59.198123 
L 378.707416 53.786858 
L 380.396915 46.722826 
L 382.086414 41.62877 
L 383.775912 40.802976 
L 385.465411 43.9073 
L 387.15491 48.248762 
L 388.844408 50.637866 
L 390.533907 49.612317 
L 392.223406 46.380357 
L 393.912904 43.777624 
L 395.602403 44.068736 
L 397.291901 47.212863 
L 398.9814 51.132152 
L 400.670899 53.607047 
L 404.049896 54.999227 
L 405.739395 58.286325 
L 407.428893 64.872237 
L 409.118392 72.664241 
L 410.807891 77.900027 
L 412.497389 77.781529 
L 414.186888 72.484963 
L 415.876386 64.991886 
L 417.565885 58.837431 
L 419.255384 55.742701 
L 420.944882 55.101144 
L 422.634381 55.301561 
L 424.32388 55.732935 
L 426.013378 57.477585 
L 427.702877 61.925384 
L 431.081874 75.12685 
L 432.771373 77.45051 
L 434.460872 74.159923 
L 436.15037 67.478082 
L 437.839869 62.311742 
L 439.529367 62.864014 
L 441.218866 69.570695 
L 442.908365 78.802465 
L 444.597863 85.592411 
L 446.287362 87.52126 
L 447.976861 86.61701 
L 449.666359 87.680122 
L 451.355858 94.451899 
L 454.734855 119.358768 
L 456.424354 127.589219 
L 458.113852 128.656967 
L 459.803351 124.539508 
L 461.49285 120.037253 
L 463.182348 119.297881 
L 464.871847 123.219095 
L 466.561346 129.512057 
L 468.250844 135.082923 
L 469.940343 138.513764 
L 471.629842 140.757417 
L 473.31934 143.691725 
L 476.698338 152.28694 
L 478.387836 154.35463 
L 480.077335 153.048808 
L 481.766833 149.680198 
L 483.456332 147.38547 
L 485.145831 149.075055 
L 486.835329 155.453435 
L 488.524828 164.536947 
L 490.214327 172.954252 
L 491.903825 177.899711 
L 493.593324 178.430169 
L 495.282823 175.426464 
L 496.972321 170.467653 
L 500.351318 158.977192 
L 503.730316 147.107612 
L 505.419814 141.5776 
L 507.109313 136.927255 
L 508.798812 133.63432 
L 510.48831 132.261283 
L 512.177809 133.702258 
L 513.867308 138.900921 
L 515.556806 148.184084 
L 518.935804 172.736657 
L 520.625302 181.712851 
L 522.314801 185.084648 
L 524.004299 183.439754 
L 525.693798 180.236739 
L 527.383297 179.925161 
L 529.072795 185.285815 
L 530.762294 195.569492 
L 532.451793 206.853592 
L 534.141291 214.451924 
L 535.83079 215.826899 
L 537.520289 212.072269 
L 539.209787 206.991602 
L 540.899286 204.422906 
L 542.588784 205.801177 
L 544.278283 209.496406 
L 545.967782 212.320354 
L 547.65728 211.859853 
L 549.346779 208.012919 
L 551.036278 202.754854 
L 552.725776 198.504499 
L 554.415275 196.557298 
L 556.104774 196.73567 
L 557.794272 198.306298 
L 559.483771 201.200285 
L 561.17327 206.301019 
L 562.862768 214.551866 
L 566.241765 237.27281 
L 567.931264 246.415701 
L 569.620763 250.813161 
L 571.310261 250.620592 
L 572.99976 248.337508 
L 572.99976 248.337508 
" style="fill: none; stroke: #1f77b4; stroke-width: 1.5; stroke-linecap: square"/>
   </g>
   <g id="line2d_21">
    <path d="M 54.323678 198.446226 
L 56.013176 198.832186 
L 59.392173 200.075827 
L 61.081672 200.510614 
L 62.771171 200.746282 
L 64.460669 200.807459 
L 66.150168 200.71283 
L 67.839667 200.432586 
L 72.908163 198.989507 
L 74.597661 199.096272 
L 76.28716 200.007752 
L 77.976658 201.747981 
L 81.355656 206.212846 
L 83.045154 207.820568 
L 84.734653 208.536072 
L 86.424152 208.467904 
L 88.11365 208.07185 
L 89.803149 207.892895 
L 91.492648 208.331634 
L 93.182146 209.447099 
L 94.871645 210.937132 
L 96.561144 212.269776 
L 98.250642 212.88004 
L 99.940141 212.453219 
L 101.629639 211.090548 
L 103.319138 209.319389 
L 105.008637 207.914499 
L 106.698135 207.557697 
L 108.387634 208.497222 
L 110.077133 210.441846 
L 111.766631 212.69238 
L 113.45613 214.516778 
L 115.145629 215.467792 
L 116.835127 215.549118 
L 120.214124 214.653144 
L 121.903623 214.455139 
L 126.972119 214.810872 
L 128.661618 214.357066 
L 130.351116 213.411204 
L 132.040615 212.305528 
L 133.730114 211.691984 
L 135.419612 212.306732 
L 137.109111 214.501585 
L 140.488108 221.333925 
L 142.177607 223.43251 
L 143.867105 223.320204 
L 145.556604 221.283144 
L 147.246103 218.747694 
L 148.935601 217.511557 
L 150.6251 218.664503 
L 152.314599 221.937216 
L 154.004097 225.881462 
L 155.693596 228.848598 
L 157.383095 230.056245 
L 160.762092 229.981342 
L 162.45159 231.063568 
L 165.830588 235.622347 
L 167.520086 236.892653 
L 169.209585 236.596377 
L 170.899084 235.35741 
L 172.588582 234.473975 
L 174.278081 234.997441 
L 175.96758 236.996788 
L 177.657078 239.581452 
L 179.346577 241.549595 
L 181.036076 242.18878 
L 182.725574 241.655343 
L 184.415073 240.725603 
L 186.104571 240.193189 
L 187.79407 240.38653 
L 194.552065 243.200007 
L 196.241563 244.402787 
L 197.931062 246.474291 
L 199.620561 249.471958 
L 204.689056 260.122862 
L 206.378555 262.551163 
L 208.068054 263.851559 
L 209.757552 263.844655 
L 211.447051 262.322825 
L 213.13655 259.010238 
L 214.826048 253.579358 
L 216.515547 245.815313 
L 218.205046 235.850819 
L 223.273542 201.19074 
L 224.96304 191.806796 
L 226.652539 184.67307 
L 228.342037 179.80174 
L 230.031536 177.13051 
L 231.721035 176.880673 
L 233.410533 179.560642 
L 235.100032 185.54122 
L 236.789531 194.41639 
L 238.479029 204.672242 
L 240.168528 213.957387 
L 241.858027 219.909574 
L 243.547525 221.108138 
L 245.237024 217.567814 
L 246.926522 210.474694 
L 248.616021 201.349254 
L 250.30552 191.18096 
L 251.995018 180.057989 
L 253.684517 167.447799 
L 255.374016 152.909802 
L 260.442512 105.126274 
L 262.13201 93.346883 
L 263.821509 86.00631 
L 265.511008 83.217624 
L 267.200506 84.059393 
L 268.890005 86.966207 
L 270.579503 90.291847 
L 272.269002 92.895578 
L 273.958501 94.511602 
L 275.647999 95.721626 
L 277.337498 97.537749 
L 279.026997 100.767655 
L 280.716495 105.501485 
L 284.095493 116.21566 
L 285.784991 120.188238 
L 287.47449 122.797569 
L 289.163988 124.663036 
L 290.853487 126.804882 
L 292.542986 130.061825 
L 294.232484 134.689292 
L 299.30098 151.256688 
L 300.990479 154.956889 
L 302.679978 156.747265 
L 304.369476 156.512519 
L 306.058975 154.557956 
L 309.437972 148.626613 
L 311.127471 146.4915 
L 312.816969 145.682872 
L 314.506468 146.123476 
L 316.195967 147.339112 
L 319.574964 150.137816 
L 321.264463 151.276873 
L 322.953961 152.166898 
L 324.64346 152.636572 
L 326.332959 152.413995 
L 328.022457 151.340109 
L 331.401454 148.016781 
L 333.090953 147.13384 
L 334.780452 147.305279 
L 336.46995 148.06997 
L 338.159449 148.36719 
L 339.848948 147.102845 
L 341.538446 143.820471 
L 344.917444 134.016582 
L 346.606942 129.993436 
L 348.296441 127.594153 
L 349.98594 126.499767 
L 351.675438 125.748628 
L 353.364937 124.360563 
L 355.054435 121.918068 
L 360.122931 112.406419 
L 363.501929 106.946705 
L 365.191427 103.536947 
L 366.880926 99.713636 
L 368.570425 96.392509 
L 370.259923 94.811981 
L 371.949422 95.792312 
L 373.63892 99.144304 
L 375.328419 103.669987 
L 377.017918 107.810605 
L 378.707416 110.544966 
L 380.396915 111.917417 
L 382.086414 112.875306 
L 383.775912 114.507174 
L 385.465411 117.258167 
L 387.15491 120.645004 
L 388.844408 123.642152 
L 390.533907 125.451444 
L 392.223406 125.986349 
L 393.912904 125.777209 
L 397.291901 125.082748 
L 398.9814 124.349614 
L 400.670899 122.78073 
L 402.360397 120.498187 
L 404.049896 118.415009 
L 405.739395 117.813589 
L 407.428893 119.550901 
L 409.118392 123.45806 
L 410.807891 128.376128 
L 412.497389 132.78258 
L 414.186888 135.599729 
L 415.876386 136.688961 
L 417.565885 136.71609 
L 419.255384 136.603594 
L 420.944882 137.012097 
L 422.634381 138.101507 
L 429.392376 144.191136 
L 431.081874 145.091802 
L 434.460872 146.300337 
L 436.15037 147.511569 
L 437.839869 149.894929 
L 439.529367 153.599317 
L 441.218866 158.03103 
L 442.908365 161.932671 
L 444.597863 163.87842 
L 446.287362 162.989587 
L 447.976861 159.438235 
L 449.666359 154.481568 
L 451.355858 149.992716 
L 453.045357 147.683976 
L 454.734855 148.474511 
L 456.424354 152.207746 
L 459.803351 163.706775 
L 461.49285 168.545329 
L 463.182348 171.530709 
L 464.871847 172.725106 
L 468.250844 173.133521 
L 469.940343 174.327595 
L 471.629842 176.79015 
L 475.008839 183.515829 
L 476.698338 185.919579 
L 478.387836 186.66215 
L 480.077335 185.558329 
L 481.766833 182.957657 
L 485.145831 176.320062 
L 486.835329 173.998399 
L 488.524828 173.189321 
L 490.214327 174.084948 
L 491.903825 176.446342 
L 495.282823 182.949625 
L 496.972321 185.556255 
L 498.66182 186.981096 
L 500.351318 187.091208 
L 502.040817 186.166923 
L 503.730316 184.866458 
L 505.419814 184.028721 
L 507.109313 184.38473 
L 508.798812 186.174615 
L 512.177809 191.501606 
L 513.867308 192.802327 
L 515.556806 192.271133 
L 518.935804 188.690837 
L 520.625302 188.559996 
L 522.314801 190.716145 
L 525.693798 198.558446 
L 527.383297 201.261757 
L 529.072795 202.214979 
L 530.762294 202.232837 
L 532.451793 202.779225 
L 534.141291 204.946803 
L 535.83079 208.736033 
L 537.520289 213.154795 
L 539.209787 216.971015 
L 540.899286 219.545837 
L 542.588784 221.110217 
L 547.65728 224.784429 
L 549.346779 225.094587 
L 551.036278 224.177204 
L 552.725776 222.417879 
L 554.415275 220.948537 
L 556.104774 221.030336 
L 557.794272 223.284704 
L 559.483771 227.33649 
L 561.17327 232.101015 
L 562.862768 236.47287 
L 564.552267 239.920602 
L 567.931264 245.281961 
L 569.620763 248.400903 
L 571.310261 252.148059 
L 572.99976 256.209063 
L 572.99976 256.209063 
" style="fill: none; stroke: #ff7f0e; stroke-width: 1.5; stroke-linecap: square"/>
   </g>
  </g>
  <g id="axes_2">
   <g id="PathCollection_1">
    <defs>
     <path id="C0_0_02f0f6e337" d="M 0 1.118034 
C 0.296506 1.118034 0.580908 1.000231 0.790569 0.790569 
C 1.000231 0.580908 1.118034 0.296506 1.118034 -0 
C 1.118034 -0.296506 1.000231 -0.580908 0.790569 -0.790569 
C 0.580908 -1.000231 0.296506 -1.118034 0 -1.118034 
C -0.296506 -1.118034 -0.580908 -1.000231 -0.790569 -0.790569 
C -1.000231 -0.580908 -1.118034 -0.296506 -1.118034 0 
C -1.118034 0.296506 -1.000231 0.580908 -0.790569 0.790569 
C -0.580908 1.000231 -0.296506 1.118034 0 1.118034 
z
"/>
    </defs>
    <g clip-path="url(#pd02e3883fe)">
     <use xlink:href="#C0_0_02f0f6e337" x="505.154737" y="86.067345" style="stroke: #000000"/>
    </g>
    <g clip-path="url(#pd02e3883fe)">
     <use xlink:href="#C0_0_02f0f6e337" x="535.681738" y="86.077318" style="stroke: #000000"/>
    </g>
    <g clip-path="url(#pd02e3883fe)">
     <use xlink:href="#C0_0_02f0f6e337" x="520.170587" y="85.799733" style="stroke: #000000"/>
    </g>
   </g>
   <g id="matplotlib.axis_3"/>
   <g id="matplotlib.axis_4"/>
   <g id="line2d_22">
    <path d="M 559.993351 73.636224 
L 559.915677 71.164608 
L 559.682963 68.702747 
L 559.296126 66.260356 
L 558.756694 63.847075 
L 558.066795 61.472426 
L 557.229152 59.145783 
L 556.24707 56.876327 
L 555.124426 54.673014 
L 553.865651 52.54454 
L 552.475711 50.499306 
L 550.960092 48.545383 
L 549.324777 46.690481 
L 547.576218 44.941922 
L 545.721317 43.306607 
L 543.767393 41.790989 
L 541.722159 40.401049 
L 539.593685 39.142273 
L 537.390373 38.019629 
L 535.120917 37.037548 
L 532.794273 36.199905 
L 530.419625 35.510005 
L 528.006343 34.970573 
L 525.563952 34.583736 
L 523.102091 34.351022 
L 520.630476 34.273348 
L 518.15886 34.351022 
L 515.696999 34.583736 
L 513.254608 34.970573 
L 510.841326 35.510005 
L 508.466678 36.199905 
L 506.140035 37.037548 
L 503.870578 38.019629 
L 501.667266 39.142273 
L 499.538792 40.401049 
L 497.493558 41.790989 
L 495.539634 43.306607 
L 493.684733 44.941922 
L 491.936174 46.690481 
L 490.300859 48.545383 
L 488.78524 50.499306 
L 487.395301 52.54454 
L 486.136525 54.673014 
L 485.013881 56.876327 
L 484.031799 59.145783 
L 483.194156 61.472426 
L 482.504257 63.847075 
L 481.964825 66.260356 
L 481.577988 68.702747 
L 481.345274 71.164608 
L 481.2676 73.636224 
L 481.345274 76.107839 
L 481.577988 78.5697 
L 481.964825 81.012091 
L 482.504257 83.425373 
L 483.194156 85.800021 
L 484.031799 88.126665 
L 485.013881 90.396121 
L 486.136525 92.599434 
L 487.395301 94.727907 
L 488.78524 96.773142 
L 490.300859 98.727065 
L 491.936174 100.581966 
L 493.684733 102.330525 
L 495.539634 103.965841 
L 497.493558 105.481459 
L 499.538792 106.871399 
L 501.667266 108.130175 
L 503.870578 109.252818 
L 506.140035 110.2349 
L 508.466678 111.072543 
L 510.841326 111.762442 
L 513.254608 112.301875 
L 515.696999 112.688711 
L 518.15886 112.921426 
L 520.630476 112.999099 
L 523.102091 112.921426 
L 525.563952 112.688711 
L 528.006343 112.301875 
L 530.419625 111.762442 
L 532.794273 111.072543 
L 535.120917 110.2349 
L 537.390373 109.252818 
L 539.593685 108.130175 
L 541.722159 106.871399 
L 543.767393 105.481459 
L 545.721317 103.965841 
L 547.576218 102.330525 
L 549.324777 100.581966 
L 550.960092 98.727065 
L 552.475711 96.773142 
L 553.865651 94.727907 
L 555.124426 92.599434 
L 556.24707 90.396121 
L 557.229152 88.126665 
L 558.066795 85.800021 
L 558.756694 83.425373 
L 559.296126 81.012091 
L 559.682963 78.5697 
L 559.915677 76.107839 
L 559.993351 73.636224 
" style="fill: none; stroke: #000000; stroke-linecap: square"/>
   </g>
   <g id="line2d_23">
    <path d="M 512.386334 35.146354 
L 520.630476 28.368917 
L 528.874617 35.146354 
" style="fill: none; stroke: #000000; stroke-linecap: square"/>
   </g>
   <g id="line2d_24">
    <path d="M 481.503777 69.266945 
L 480.480343 67.534978 
L 479.850537 67.471997 
L 478.9137 67.763283 
L 477.968991 69.266945 
L 478.11857 74.069215 
L 477.56749 80.973464 
L 478.748376 83.972915 
L 480.480343 84.531868 
L 482.133583 83.075441 
" style="fill: none; stroke: #000000; stroke-linecap: square"/>
   </g>
   <g id="line2d_25">
    <path d="M 559.757174 69.266945 
L 560.780609 67.534978 
L 561.410415 67.471997 
L 562.347251 67.763283 
L 563.29196 69.266945 
L 563.142381 74.069215 
L 563.693461 80.973464 
L 562.512575 83.972915 
L 560.780609 84.531868 
L 559.127368 83.075441 
" style="fill: none; stroke: #000000; stroke-linecap: square"/>
   </g>
  </g>
 </g>
 <defs>
  <clipPath id="pb3cb5521ed">
   <rect x="54.323678" y="18.118365" width="518.676083" height="380.525145"/>
  </clipPath>
  <clipPath id="pd02e3883fe">
   <rect x="473.261191" y="24.137408" width="94.738569" height="93.093201"/>
  </clipPath>
 </defs>
</svg>
