<?xml version="1.0" encoding="utf-8" standalone="no"?>
<!DOCTYPE svg PUBLIC "-//W3C//DTD SVG 1.1//EN"
  "http://www.w3.org/Graphics/SVG/1.1/DTD/svg11.dtd">
<svg xmlns:xlink="http://www.w3.org/1999/xlink" width="576pt" height="432pt" viewBox="0 0 576 432" xmlns="http://www.w3.org/2000/svg" version="1.1">
 <metadata>
  <rdf:RDF xmlns:dc="http://purl.org/dc/elements/1.1/" xmlns:cc="http://creativecommons.org/ns#" xmlns:rdf="http://www.w3.org/1999/02/22-rdf-syntax-ns#">
   <cc:Work>
    <dc:type rdf:resource="http://purl.org/dc/dcmitype/StillImage"/>
    <dc:date>2025-02-20T17:25:22.290695</dc:date>
    <dc:format>image/svg+xml</dc:format>
    <dc:creator>
     <cc:Agent>
      <dc:title>Matplotlib v3.10.0, https://matplotlib.org/</dc:title>
     </cc:Agent>
    </dc:creator>
   </cc:Work>
  </rdf:RDF>
 </metadata>
 <defs>
  <style type="text/css">*{stroke-linejoin: round; stroke-linecap: butt}</style>
 </defs>
 <g id="figure_1">
  <g id="patch_1">
   <path d="M 0 432 
L 576 432 
L 576 0 
L 0 0 
z
" style="fill: #ffffff"/>
  </g>
  <g id="axes_1">
   <g id="patch_2">
    <path d="M 38.420552 398.64351 
L 561.866948 398.64351 
L 561.866948 18.118365 
L 38.420552 18.118365 
L 38.420552 398.64351 
z
" style="fill: none; opacity: 0"/>
   </g>
   <g id="patch_3">
    <path d="M 38.420552 379.439035 
L 38.420552 37.32284 
" style="fill: none; stroke: #000000; stroke-width: 0.8; stroke-linejoin: miter; stroke-linecap: square"/>
   </g>
   <g id="LineCollection_1">
    <path d="M 278.48108 18.118365 
L 278.48108 398.64351 
" clip-path="url(#p196e34b7fd)" style="fill: none; stroke-dasharray: 3.7,1.6; stroke-dashoffset: 0; stroke: #000000"/>
    <path d="M 365.676732 18.118365 
L 365.676732 398.64351 
" clip-path="url(#p196e34b7fd)" style="fill: none; stroke-dasharray: 3.7,1.6; stroke-dashoffset: 0; stroke: #000000"/>
   </g>
   <g id="matplotlib.axis_1">
    <g id="xtick_1">
     <g id="line2d_1">
      <defs>
       <path id="m685ad1c5fa" d="M 0 0 
L 0 3.5 
" style="stroke: #000000; stroke-width: 0.8"/>
      </defs>
      <g>
       <use xlink:href="#m685ad1c5fa" x="38.693039" y="398.64351" style="stroke: #000000; stroke-width: 0.8"/>
      </g>
     </g>
     <g id="text_1">
      <!-- −0.20 -->
      <g transform="translate(23.370383 413.241947) scale(0.1 -0.1)">
       <defs>
        <path id="DejaVuSans-2212" d="M 678 2272 
L 4684 2272 
L 4684 1741 
L 678 1741 
L 678 2272 
z
" transform="scale(0.015625)"/>
        <path id="DejaVuSans-30" d="M 2034 4250 
Q 1547 4250 1301 3770 
Q 1056 3291 1056 2328 
Q 1056 1369 1301 889 
Q 1547 409 2034 409 
Q 2525 409 2770 889 
Q 3016 1369 3016 2328 
Q 3016 3291 2770 3770 
Q 2525 4250 2034 4250 
z
M 2034 4750 
Q 2819 4750 3233 4129 
Q 3647 3509 3647 2328 
Q 3647 1150 3233 529 
Q 2819 -91 2034 -91 
Q 1250 -91 836 529 
Q 422 1150 422 2328 
Q 422 3509 836 4129 
Q 1250 4750 2034 4750 
z
" transform="scale(0.015625)"/>
        <path id="DejaVuSans-2e" d="M 684 794 
L 1344 794 
L 1344 0 
L 684 0 
L 684 794 
z
" transform="scale(0.015625)"/>
        <path id="DejaVuSans-32" d="M 1228 531 
L 3431 531 
L 3431 0 
L 469 0 
L 469 531 
Q 828 903 1448 1529 
Q 2069 2156 2228 2338 
Q 2531 2678 2651 2914 
Q 2772 3150 2772 3378 
Q 2772 3750 2511 3984 
Q 2250 4219 1831 4219 
Q 1534 4219 1204 4116 
Q 875 4013 500 3803 
L 500 4441 
Q 881 4594 1212 4672 
Q 1544 4750 1819 4750 
Q 2544 4750 2975 4387 
Q 3406 4025 3406 3419 
Q 3406 3131 3298 2873 
Q 3191 2616 2906 2266 
Q 2828 2175 2409 1742 
Q 1991 1309 1228 531 
z
" transform="scale(0.015625)"/>
       </defs>
       <use xlink:href="#DejaVuSans-2212"/>
       <use xlink:href="#DejaVuSans-30" transform="translate(83.789062 0)"/>
       <use xlink:href="#DejaVuSans-2e" transform="translate(147.412109 0)"/>
       <use xlink:href="#DejaVuSans-32" transform="translate(179.199219 0)"/>
       <use xlink:href="#DejaVuSans-30" transform="translate(242.822266 0)"/>
      </g>
     </g>
    </g>
    <g id="xtick_2">
     <g id="line2d_2">
      <g>
       <use xlink:href="#m685ad1c5fa" x="125.88869" y="398.64351" style="stroke: #000000; stroke-width: 0.8"/>
      </g>
     </g>
     <g id="text_2">
      <!-- 0.00 -->
      <g transform="translate(114.755878 413.241947) scale(0.1 -0.1)">
       <use xlink:href="#DejaVuSans-30"/>
       <use xlink:href="#DejaVuSans-2e" transform="translate(63.623047 0)"/>
       <use xlink:href="#DejaVuSans-30" transform="translate(95.410156 0)"/>
       <use xlink:href="#DejaVuSans-30" transform="translate(159.033203 0)"/>
      </g>
     </g>
    </g>
    <g id="xtick_3">
     <g id="line2d_3">
      <g>
       <use xlink:href="#m685ad1c5fa" x="213.084342" y="398.64351" style="stroke: #000000; stroke-width: 0.8"/>
      </g>
     </g>
     <g id="text_3">
      <!-- 0.20 -->
      <g transform="translate(201.951529 413.241947) scale(0.1 -0.1)">
       <use xlink:href="#DejaVuSans-30"/>
       <use xlink:href="#DejaVuSans-2e" transform="translate(63.623047 0)"/>
       <use xlink:href="#DejaVuSans-32" transform="translate(95.410156 0)"/>
       <use xlink:href="#DejaVuSans-30" transform="translate(159.033203 0)"/>
      </g>
     </g>
    </g>
    <g id="xtick_4">
     <g id="line2d_4">
      <g>
       <use xlink:href="#m685ad1c5fa" x="278.48108" y="398.64351" style="stroke: #000000; stroke-width: 0.8"/>
      </g>
     </g>
     <g id="text_4">
      <!-- 0.35 -->
      <g transform="translate(267.348268 413.241947) scale(0.1 -0.1)">
       <defs>
        <path id="DejaVuSans-33" d="M 2597 2516 
Q 3050 2419 3304 2112 
Q 3559 1806 3559 1356 
Q 3559 666 3084 287 
Q 2609 -91 1734 -91 
Q 1441 -91 1130 -33 
Q 819 25 488 141 
L 488 750 
Q 750 597 1062 519 
Q 1375 441 1716 441 
Q 2309 441 2620 675 
Q 2931 909 2931 1356 
Q 2931 1769 2642 2001 
Q 2353 2234 1838 2234 
L 1294 2234 
L 1294 2753 
L 1863 2753 
Q 2328 2753 2575 2939 
Q 2822 3125 2822 3475 
Q 2822 3834 2567 4026 
Q 2313 4219 1838 4219 
Q 1578 4219 1281 4162 
Q 984 4106 628 3988 
L 628 4550 
Q 988 4650 1302 4700 
Q 1616 4750 1894 4750 
Q 2613 4750 3031 4423 
Q 3450 4097 3450 3541 
Q 3450 3153 3228 2886 
Q 3006 2619 2597 2516 
z
" transform="scale(0.015625)"/>
        <path id="DejaVuSans-35" d="M 691 4666 
L 3169 4666 
L 3169 4134 
L 1269 4134 
L 1269 2991 
Q 1406 3038 1543 3061 
Q 1681 3084 1819 3084 
Q 2600 3084 3056 2656 
Q 3513 2228 3513 1497 
Q 3513 744 3044 326 
Q 2575 -91 1722 -91 
Q 1428 -91 1123 -41 
Q 819 9 494 109 
L 494 744 
Q 775 591 1075 516 
Q 1375 441 1709 441 
Q 2250 441 2565 725 
Q 2881 1009 2881 1497 
Q 2881 1984 2565 2268 
Q 2250 2553 1709 2553 
Q 1456 2553 1204 2497 
Q 953 2441 691 2322 
L 691 4666 
z
" transform="scale(0.015625)"/>
       </defs>
       <use xlink:href="#DejaVuSans-30"/>
       <use xlink:href="#DejaVuSans-2e" transform="translate(63.623047 0)"/>
       <use xlink:href="#DejaVuSans-33" transform="translate(95.410156 0)"/>
       <use xlink:href="#DejaVuSans-35" transform="translate(159.033203 0)"/>
      </g>
     </g>
    </g>
    <g id="xtick_5">
     <g id="line2d_5">
      <g>
       <use xlink:href="#m685ad1c5fa" x="300.279993" y="398.64351" style="stroke: #000000; stroke-width: 0.8"/>
      </g>
     </g>
     <g id="text_5">
      <!-- 0.40 -->
      <g transform="translate(289.147181 413.241947) scale(0.1 -0.1)">
       <defs>
        <path id="DejaVuSans-34" d="M 2419 4116 
L 825 1625 
L 2419 1625 
L 2419 4116 
z
M 2253 4666 
L 3047 4666 
L 3047 1625 
L 3713 1625 
L 3713 1100 
L 3047 1100 
L 3047 0 
L 2419 0 
L 2419 1100 
L 313 1100 
L 313 1709 
L 2253 4666 
z
" transform="scale(0.015625)"/>
       </defs>
       <use xlink:href="#DejaVuSans-30"/>
       <use xlink:href="#DejaVuSans-2e" transform="translate(63.623047 0)"/>
       <use xlink:href="#DejaVuSans-34" transform="translate(95.410156 0)"/>
       <use xlink:href="#DejaVuSans-30" transform="translate(159.033203 0)"/>
      </g>
     </g>
    </g>
    <g id="xtick_6">
     <g id="line2d_6">
      <g>
       <use xlink:href="#m685ad1c5fa" x="365.676732" y="398.64351" style="stroke: #000000; stroke-width: 0.8"/>
      </g>
     </g>
     <g id="text_6">
      <!-- 0.55 -->
      <g transform="translate(354.543919 413.241947) scale(0.1 -0.1)">
       <use xlink:href="#DejaVuSans-30"/>
       <use xlink:href="#DejaVuSans-2e" transform="translate(63.623047 0)"/>
       <use xlink:href="#DejaVuSans-35" transform="translate(95.410156 0)"/>
       <use xlink:href="#DejaVuSans-35" transform="translate(159.033203 0)"/>
      </g>
     </g>
    </g>
    <g id="xtick_7">
     <g id="line2d_7">
      <g>
       <use xlink:href="#m685ad1c5fa" x="387.475645" y="398.64351" style="stroke: #000000; stroke-width: 0.8"/>
      </g>
     </g>
     <g id="text_7">
      <!-- 0.60 -->
      <g transform="translate(376.342832 413.241947) scale(0.1 -0.1)">
       <defs>
        <path id="DejaVuSans-36" d="M 2113 2584 
Q 1688 2584 1439 2293 
Q 1191 2003 1191 1497 
Q 1191 994 1439 701 
Q 1688 409 2113 409 
Q 2538 409 2786 701 
Q 3034 994 3034 1497 
Q 3034 2003 2786 2293 
Q 2538 2584 2113 2584 
z
M 3366 4563 
L 3366 3988 
Q 3128 4100 2886 4159 
Q 2644 4219 2406 4219 
Q 1781 4219 1451 3797 
Q 1122 3375 1075 2522 
Q 1259 2794 1537 2939 
Q 1816 3084 2150 3084 
Q 2853 3084 3261 2657 
Q 3669 2231 3669 1497 
Q 3669 778 3244 343 
Q 2819 -91 2113 -91 
Q 1303 -91 875 529 
Q 447 1150 447 2328 
Q 447 3434 972 4092 
Q 1497 4750 2381 4750 
Q 2619 4750 2861 4703 
Q 3103 4656 3366 4563 
z
" transform="scale(0.015625)"/>
       </defs>
       <use xlink:href="#DejaVuSans-30"/>
       <use xlink:href="#DejaVuSans-2e" transform="translate(63.623047 0)"/>
       <use xlink:href="#DejaVuSans-36" transform="translate(95.410156 0)"/>
       <use xlink:href="#DejaVuSans-30" transform="translate(159.033203 0)"/>
      </g>
     </g>
    </g>
    <g id="xtick_8">
     <g id="line2d_8">
      <g>
       <use xlink:href="#m685ad1c5fa" x="474.671296" y="398.64351" style="stroke: #000000; stroke-width: 0.8"/>
      </g>
     </g>
     <g id="text_8">
      <!-- 0.80 -->
      <g transform="translate(463.538484 413.241947) scale(0.1 -0.1)">
       <defs>
        <path id="DejaVuSans-38" d="M 2034 2216 
Q 1584 2216 1326 1975 
Q 1069 1734 1069 1313 
Q 1069 891 1326 650 
Q 1584 409 2034 409 
Q 2484 409 2743 651 
Q 3003 894 3003 1313 
Q 3003 1734 2745 1975 
Q 2488 2216 2034 2216 
z
M 1403 2484 
Q 997 2584 770 2862 
Q 544 3141 544 3541 
Q 544 4100 942 4425 
Q 1341 4750 2034 4750 
Q 2731 4750 3128 4425 
Q 3525 4100 3525 3541 
Q 3525 3141 3298 2862 
Q 3072 2584 2669 2484 
Q 3125 2378 3379 2068 
Q 3634 1759 3634 1313 
Q 3634 634 3220 271 
Q 2806 -91 2034 -91 
Q 1263 -91 848 271 
Q 434 634 434 1313 
Q 434 1759 690 2068 
Q 947 2378 1403 2484 
z
M 1172 3481 
Q 1172 3119 1398 2916 
Q 1625 2713 2034 2713 
Q 2441 2713 2670 2916 
Q 2900 3119 2900 3481 
Q 2900 3844 2670 4047 
Q 2441 4250 2034 4250 
Q 1625 4250 1398 4047 
Q 1172 3844 1172 3481 
z
" transform="scale(0.015625)"/>
       </defs>
       <use xlink:href="#DejaVuSans-30"/>
       <use xlink:href="#DejaVuSans-2e" transform="translate(63.623047 0)"/>
       <use xlink:href="#DejaVuSans-38" transform="translate(95.410156 0)"/>
       <use xlink:href="#DejaVuSans-30" transform="translate(159.033203 0)"/>
      </g>
     </g>
    </g>
    <g id="xtick_9">
     <g id="line2d_9">
      <g>
       <use xlink:href="#m685ad1c5fa" x="561.866948" y="398.64351" style="stroke: #000000; stroke-width: 0.8"/>
      </g>
     </g>
     <g id="text_9">
      <!-- 1.00 -->
      <g transform="translate(550.734135 413.241947) scale(0.1 -0.1)">
       <defs>
        <path id="DejaVuSans-31" d="M 794 531 
L 1825 531 
L 1825 4091 
L 703 3866 
L 703 4441 
L 1819 4666 
L 2450 4666 
L 2450 531 
L 3481 531 
L 3481 0 
L 794 0 
L 794 531 
z
" transform="scale(0.015625)"/>
       </defs>
       <use xlink:href="#DejaVuSans-31"/>
       <use xlink:href="#DejaVuSans-2e" transform="translate(63.623047 0)"/>
       <use xlink:href="#DejaVuSans-30" transform="translate(95.410156 0)"/>
       <use xlink:href="#DejaVuSans-30" transform="translate(159.033203 0)"/>
      </g>
     </g>
    </g>
    <g id="text_10">
     <!-- Time (s) -->
     <g transform="translate(279.814844 426.920073) scale(0.1 -0.1)">
      <defs>
       <path id="DejaVuSans-54" d="M -19 4666 
L 3928 4666 
L 3928 4134 
L 2272 4134 
L 2272 0 
L 1638 0 
L 1638 4134 
L -19 4134 
L -19 4666 
z
" transform="scale(0.015625)"/>
       <path id="DejaVuSans-69" d="M 603 3500 
L 1178 3500 
L 1178 0 
L 603 0 
L 603 3500 
z
M 603 4863 
L 1178 4863 
L 1178 4134 
L 603 4134 
L 603 4863 
z
" transform="scale(0.015625)"/>
       <path id="DejaVuSans-6d" d="M 3328 2828 
Q 3544 3216 3844 3400 
Q 4144 3584 4550 3584 
Q 5097 3584 5394 3201 
Q 5691 2819 5691 2113 
L 5691 0 
L 5113 0 
L 5113 2094 
Q 5113 2597 4934 2840 
Q 4756 3084 4391 3084 
Q 3944 3084 3684 2787 
Q 3425 2491 3425 1978 
L 3425 0 
L 2847 0 
L 2847 2094 
Q 2847 2600 2669 2842 
Q 2491 3084 2119 3084 
Q 1678 3084 1418 2786 
Q 1159 2488 1159 1978 
L 1159 0 
L 581 0 
L 581 3500 
L 1159 3500 
L 1159 2956 
Q 1356 3278 1631 3431 
Q 1906 3584 2284 3584 
Q 2666 3584 2933 3390 
Q 3200 3197 3328 2828 
z
" transform="scale(0.015625)"/>
       <path id="DejaVuSans-65" d="M 3597 1894 
L 3597 1613 
L 953 1613 
Q 991 1019 1311 708 
Q 1631 397 2203 397 
Q 2534 397 2845 478 
Q 3156 559 3463 722 
L 3463 178 
Q 3153 47 2828 -22 
Q 2503 -91 2169 -91 
Q 1331 -91 842 396 
Q 353 884 353 1716 
Q 353 2575 817 3079 
Q 1281 3584 2069 3584 
Q 2775 3584 3186 3129 
Q 3597 2675 3597 1894 
z
M 3022 2063 
Q 3016 2534 2758 2815 
Q 2500 3097 2075 3097 
Q 1594 3097 1305 2825 
Q 1016 2553 972 2059 
L 3022 2063 
z
" transform="scale(0.015625)"/>
       <path id="DejaVuSans-20" transform="scale(0.015625)"/>
       <path id="DejaVuSans-28" d="M 1984 4856 
Q 1566 4138 1362 3434 
Q 1159 2731 1159 2009 
Q 1159 1288 1364 580 
Q 1569 -128 1984 -844 
L 1484 -844 
Q 1016 -109 783 600 
Q 550 1309 550 2009 
Q 550 2706 781 3412 
Q 1013 4119 1484 4856 
L 1984 4856 
z
" transform="scale(0.015625)"/>
       <path id="DejaVuSans-73" d="M 2834 3397 
L 2834 2853 
Q 2591 2978 2328 3040 
Q 2066 3103 1784 3103 
Q 1356 3103 1142 2972 
Q 928 2841 928 2578 
Q 928 2378 1081 2264 
Q 1234 2150 1697 2047 
L 1894 2003 
Q 2506 1872 2764 1633 
Q 3022 1394 3022 966 
Q 3022 478 2636 193 
Q 2250 -91 1575 -91 
Q 1294 -91 989 -36 
Q 684 19 347 128 
L 347 722 
Q 666 556 975 473 
Q 1284 391 1588 391 
Q 1994 391 2212 530 
Q 2431 669 2431 922 
Q 2431 1156 2273 1281 
Q 2116 1406 1581 1522 
L 1381 1569 
Q 847 1681 609 1914 
Q 372 2147 372 2553 
Q 372 3047 722 3315 
Q 1072 3584 1716 3584 
Q 2034 3584 2315 3537 
Q 2597 3491 2834 3397 
z
" transform="scale(0.015625)"/>
       <path id="DejaVuSans-29" d="M 513 4856 
L 1013 4856 
Q 1481 4119 1714 3412 
Q 1947 2706 1947 2009 
Q 1947 1309 1714 600 
Q 1481 -109 1013 -844 
L 513 -844 
Q 928 -128 1133 580 
Q 1338 1288 1338 2009 
Q 1338 2731 1133 3434 
Q 928 4138 513 4856 
z
" transform="scale(0.015625)"/>
      </defs>
      <use xlink:href="#DejaVuSans-54"/>
      <use xlink:href="#DejaVuSans-69" transform="translate(57.958984 0)"/>
      <use xlink:href="#DejaVuSans-6d" transform="translate(85.742188 0)"/>
      <use xlink:href="#DejaVuSans-65" transform="translate(183.154297 0)"/>
      <use xlink:href="#DejaVuSans-20" transform="translate(244.677734 0)"/>
      <use xlink:href="#DejaVuSans-28" transform="translate(276.464844 0)"/>
      <use xlink:href="#DejaVuSans-73" transform="translate(315.478516 0)"/>
      <use xlink:href="#DejaVuSans-29" transform="translate(367.578125 0)"/>
     </g>
    </g>
   </g>
   <g id="matplotlib.axis_2">
    <g id="ytick_1">
     <g id="line2d_10">
      <defs>
       <path id="m0b8fd1f77e" d="M 0 0 
L -3.5 0 
" style="stroke: #000000; stroke-width: 0.8"/>
      </defs>
      <g>
       <use xlink:href="#m0b8fd1f77e" x="38.420552" y="379.439035" style="stroke: #000000; stroke-width: 0.8"/>
      </g>
     </g>
     <g id="text_11">
      <!-- −8 -->
      <g transform="translate(16.678365 383.238254) scale(0.1 -0.1)">
       <use xlink:href="#DejaVuSans-2212"/>
       <use xlink:href="#DejaVuSans-38" transform="translate(83.789062 0)"/>
      </g>
     </g>
    </g>
    <g id="ytick_2">
     <g id="line2d_11">
      <g>
       <use xlink:href="#m0b8fd1f77e" x="38.420552" y="336.674511" style="stroke: #000000; stroke-width: 0.8"/>
      </g>
     </g>
     <g id="text_12">
      <!-- −6 -->
      <g transform="translate(16.678365 340.47373) scale(0.1 -0.1)">
       <use xlink:href="#DejaVuSans-2212"/>
       <use xlink:href="#DejaVuSans-36" transform="translate(83.789062 0)"/>
      </g>
     </g>
    </g>
    <g id="ytick_3">
     <g id="line2d_12">
      <g>
       <use xlink:href="#m0b8fd1f77e" x="38.420552" y="293.909986" style="stroke: #000000; stroke-width: 0.8"/>
      </g>
     </g>
     <g id="text_13">
      <!-- −4 -->
      <g transform="translate(16.678365 297.709205) scale(0.1 -0.1)">
       <use xlink:href="#DejaVuSans-2212"/>
       <use xlink:href="#DejaVuSans-34" transform="translate(83.789062 0)"/>
      </g>
     </g>
    </g>
    <g id="ytick_4">
     <g id="line2d_13">
      <g>
       <use xlink:href="#m0b8fd1f77e" x="38.420552" y="251.145462" style="stroke: #000000; stroke-width: 0.8"/>
      </g>
     </g>
     <g id="text_14">
      <!-- −2 -->
      <g transform="translate(16.678365 254.944681) scale(0.1 -0.1)">
       <use xlink:href="#DejaVuSans-2212"/>
       <use xlink:href="#DejaVuSans-32" transform="translate(83.789062 0)"/>
      </g>
     </g>
    </g>
    <g id="ytick_5">
     <g id="line2d_14">
      <g>
       <use xlink:href="#m0b8fd1f77e" x="38.420552" y="208.380937" style="stroke: #000000; stroke-width: 0.8"/>
      </g>
     </g>
     <g id="text_15">
      <!-- 0 -->
      <g transform="translate(25.058052 212.180156) scale(0.1 -0.1)">
       <use xlink:href="#DejaVuSans-30"/>
      </g>
     </g>
    </g>
    <g id="ytick_6">
     <g id="line2d_15">
      <g>
       <use xlink:href="#m0b8fd1f77e" x="38.420552" y="165.616413" style="stroke: #000000; stroke-width: 0.8"/>
      </g>
     </g>
     <g id="text_16">
      <!-- 2 -->
      <g transform="translate(25.058052 169.415632) scale(0.1 -0.1)">
       <use xlink:href="#DejaVuSans-32"/>
      </g>
     </g>
    </g>
    <g id="ytick_7">
     <g id="line2d_16">
      <g>
       <use xlink:href="#m0b8fd1f77e" x="38.420552" y="122.851889" style="stroke: #000000; stroke-width: 0.8"/>
      </g>
     </g>
     <g id="text_17">
      <!-- 4 -->
      <g transform="translate(25.058052 126.651107) scale(0.1 -0.1)">
       <use xlink:href="#DejaVuSans-34"/>
      </g>
     </g>
    </g>
    <g id="ytick_8">
     <g id="line2d_17">
      <g>
       <use xlink:href="#m0b8fd1f77e" x="38.420552" y="80.087364" style="stroke: #000000; stroke-width: 0.8"/>
      </g>
     </g>
     <g id="text_18">
      <!-- 6 -->
      <g transform="translate(25.058052 83.886583) scale(0.1 -0.1)">
       <use xlink:href="#DejaVuSans-36"/>
      </g>
     </g>
    </g>
    <g id="ytick_9">
     <g id="line2d_18">
      <g>
       <use xlink:href="#m0b8fd1f77e" x="38.420552" y="37.32284" style="stroke: #000000; stroke-width: 0.8"/>
      </g>
     </g>
     <g id="text_19">
      <!-- 8 -->
      <g transform="translate(25.058052 41.122058) scale(0.1 -0.1)">
       <use xlink:href="#DejaVuSans-38"/>
      </g>
     </g>
    </g>
    <g id="text_20">
     <!-- µV -->
     <g transform="translate(10.598677 214.9825) rotate(-90) scale(0.1 -0.1)">
      <defs>
       <path id="DejaVuSans-b5" d="M 544 -1331 
L 544 3500 
L 1119 3500 
L 1119 1325 
Q 1119 872 1334 640 
Q 1550 409 1972 409 
Q 2434 409 2667 671 
Q 2900 934 2900 1459 
L 2900 3500 
L 3475 3500 
L 3475 806 
Q 3475 619 3529 530 
Q 3584 441 3700 441 
Q 3728 441 3778 458 
Q 3828 475 3916 513 
L 3916 50 
Q 3788 -22 3673 -56 
Q 3559 -91 3450 -91 
Q 3234 -91 3106 31 
Q 2978 153 2931 403 
Q 2775 156 2548 32 
Q 2322 -91 2016 -91 
Q 1697 -91 1473 31 
Q 1250 153 1119 397 
L 1119 -1331 
L 544 -1331 
z
" transform="scale(0.015625)"/>
       <path id="DejaVuSans-56" d="M 1831 0 
L 50 4666 
L 709 4666 
L 2188 738 
L 3669 4666 
L 4325 4666 
L 2547 0 
L 1831 0 
z
" transform="scale(0.015625)"/>
      </defs>
      <use xlink:href="#DejaVuSans-b5"/>
      <use xlink:href="#DejaVuSans-56" transform="translate(63.623047 0)"/>
     </g>
    </g>
   </g>
   <g id="patch_4">
    <path d="M 38.693039 398.64351 
L 561.866948 398.64351 
" style="fill: none; stroke: #000000; stroke-width: 0.8; stroke-linejoin: miter; stroke-linecap: square"/>
   </g>
   <g id="patch_5">
    <path d="M 38.420552 208.380937 
L 561.866948 208.380937 
" style="fill: none; stroke: #000000; stroke-width: 0.8; stroke-linejoin: miter; stroke-linecap: square"/>
   </g>
   <g id="text_21">
    <!-- CPz, CP4, CP3, Pz, P4, P3 (median) -->
    <g transform="translate(196.150625 12.118365) scale(0.12 -0.12)">
     <defs>
      <path id="DejaVuSans-43" d="M 4122 4306 
L 4122 3641 
Q 3803 3938 3442 4084 
Q 3081 4231 2675 4231 
Q 1875 4231 1450 3742 
Q 1025 3253 1025 2328 
Q 1025 1406 1450 917 
Q 1875 428 2675 428 
Q 3081 428 3442 575 
Q 3803 722 4122 1019 
L 4122 359 
Q 3791 134 3420 21 
Q 3050 -91 2638 -91 
Q 1578 -91 968 557 
Q 359 1206 359 2328 
Q 359 3453 968 4101 
Q 1578 4750 2638 4750 
Q 3056 4750 3426 4639 
Q 3797 4528 4122 4306 
z
" transform="scale(0.015625)"/>
      <path id="DejaVuSans-50" d="M 1259 4147 
L 1259 2394 
L 2053 2394 
Q 2494 2394 2734 2622 
Q 2975 2850 2975 3272 
Q 2975 3691 2734 3919 
Q 2494 4147 2053 4147 
L 1259 4147 
z
M 628 4666 
L 2053 4666 
Q 2838 4666 3239 4311 
Q 3641 3956 3641 3272 
Q 3641 2581 3239 2228 
Q 2838 1875 2053 1875 
L 1259 1875 
L 1259 0 
L 628 0 
L 628 4666 
z
" transform="scale(0.015625)"/>
      <path id="DejaVuSans-7a" d="M 353 3500 
L 3084 3500 
L 3084 2975 
L 922 459 
L 3084 459 
L 3084 0 
L 275 0 
L 275 525 
L 2438 3041 
L 353 3041 
L 353 3500 
z
" transform="scale(0.015625)"/>
      <path id="DejaVuSans-2c" d="M 750 794 
L 1409 794 
L 1409 256 
L 897 -744 
L 494 -744 
L 750 256 
L 750 794 
z
" transform="scale(0.015625)"/>
      <path id="DejaVuSans-64" d="M 2906 2969 
L 2906 4863 
L 3481 4863 
L 3481 0 
L 2906 0 
L 2906 525 
Q 2725 213 2448 61 
Q 2172 -91 1784 -91 
Q 1150 -91 751 415 
Q 353 922 353 1747 
Q 353 2572 751 3078 
Q 1150 3584 1784 3584 
Q 2172 3584 2448 3432 
Q 2725 3281 2906 2969 
z
M 947 1747 
Q 947 1113 1208 752 
Q 1469 391 1925 391 
Q 2381 391 2643 752 
Q 2906 1113 2906 1747 
Q 2906 2381 2643 2742 
Q 2381 3103 1925 3103 
Q 1469 3103 1208 2742 
Q 947 2381 947 1747 
z
" transform="scale(0.015625)"/>
      <path id="DejaVuSans-61" d="M 2194 1759 
Q 1497 1759 1228 1600 
Q 959 1441 959 1056 
Q 959 750 1161 570 
Q 1363 391 1709 391 
Q 2188 391 2477 730 
Q 2766 1069 2766 1631 
L 2766 1759 
L 2194 1759 
z
M 3341 1997 
L 3341 0 
L 2766 0 
L 2766 531 
Q 2569 213 2275 61 
Q 1981 -91 1556 -91 
Q 1019 -91 701 211 
Q 384 513 384 1019 
Q 384 1609 779 1909 
Q 1175 2209 1959 2209 
L 2766 2209 
L 2766 2266 
Q 2766 2663 2505 2880 
Q 2244 3097 1772 3097 
Q 1472 3097 1187 3025 
Q 903 2953 641 2809 
L 641 3341 
Q 956 3463 1253 3523 
Q 1550 3584 1831 3584 
Q 2591 3584 2966 3190 
Q 3341 2797 3341 1997 
z
" transform="scale(0.015625)"/>
      <path id="DejaVuSans-6e" d="M 3513 2113 
L 3513 0 
L 2938 0 
L 2938 2094 
Q 2938 2591 2744 2837 
Q 2550 3084 2163 3084 
Q 1697 3084 1428 2787 
Q 1159 2491 1159 1978 
L 1159 0 
L 581 0 
L 581 3500 
L 1159 3500 
L 1159 2956 
Q 1366 3272 1645 3428 
Q 1925 3584 2291 3584 
Q 2894 3584 3203 3211 
Q 3513 2838 3513 2113 
z
" transform="scale(0.015625)"/>
     </defs>
     <use xlink:href="#DejaVuSans-43"/>
     <use xlink:href="#DejaVuSans-50" transform="translate(69.824219 0)"/>
     <use xlink:href="#DejaVuSans-7a" transform="translate(130.126953 0)"/>
     <use xlink:href="#DejaVuSans-2c" transform="translate(182.617188 0)"/>
     <use xlink:href="#DejaVuSans-20" transform="translate(214.404297 0)"/>
     <use xlink:href="#DejaVuSans-43" transform="translate(246.191406 0)"/>
     <use xlink:href="#DejaVuSans-50" transform="translate(316.015625 0)"/>
     <use xlink:href="#DejaVuSans-34" transform="translate(376.318359 0)"/>
     <use xlink:href="#DejaVuSans-2c" transform="translate(439.941406 0)"/>
     <use xlink:href="#DejaVuSans-20" transform="translate(471.728516 0)"/>
     <use xlink:href="#DejaVuSans-43" transform="translate(503.515625 0)"/>
     <use xlink:href="#DejaVuSans-50" transform="translate(573.339844 0)"/>
     <use xlink:href="#DejaVuSans-33" transform="translate(633.642578 0)"/>
     <use xlink:href="#DejaVuSans-2c" transform="translate(697.265625 0)"/>
     <use xlink:href="#DejaVuSans-20" transform="translate(729.052734 0)"/>
     <use xlink:href="#DejaVuSans-50" transform="translate(760.839844 0)"/>
     <use xlink:href="#DejaVuSans-7a" transform="translate(821.142578 0)"/>
     <use xlink:href="#DejaVuSans-2c" transform="translate(873.632812 0)"/>
     <use xlink:href="#DejaVuSans-20" transform="translate(905.419922 0)"/>
     <use xlink:href="#DejaVuSans-50" transform="translate(937.207031 0)"/>
     <use xlink:href="#DejaVuSans-34" transform="translate(997.509766 0)"/>
     <use xlink:href="#DejaVuSans-2c" transform="translate(1061.132812 0)"/>
     <use xlink:href="#DejaVuSans-20" transform="translate(1092.919922 0)"/>
     <use xlink:href="#DejaVuSans-50" transform="translate(1124.707031 0)"/>
     <use xlink:href="#DejaVuSans-33" transform="translate(1185.009766 0)"/>
     <use xlink:href="#DejaVuSans-20" transform="translate(1248.632812 0)"/>
     <use xlink:href="#DejaVuSans-28" transform="translate(1280.419922 0)"/>
     <use xlink:href="#DejaVuSans-6d" transform="translate(1319.433594 0)"/>
     <use xlink:href="#DejaVuSans-65" transform="translate(1416.845703 0)"/>
     <use xlink:href="#DejaVuSans-64" transform="translate(1478.369141 0)"/>
     <use xlink:href="#DejaVuSans-69" transform="translate(1541.845703 0)"/>
     <use xlink:href="#DejaVuSans-61" transform="translate(1569.628906 0)"/>
     <use xlink:href="#DejaVuSans-6e" transform="translate(1630.908203 0)"/>
     <use xlink:href="#DejaVuSans-29" transform="translate(1694.287109 0)"/>
    </g>
   </g>
   <g id="legend_1">
    <g id="patch_6">
     <path d="M 45.420552 55.75274 
L 126.56274 55.75274 
Q 128.56274 55.75274 128.56274 53.75274 
L 128.56274 25.118365 
Q 128.56274 23.118365 126.56274 23.118365 
L 45.420552 23.118365 
Q 43.420552 23.118365 43.420552 25.118365 
L 43.420552 53.75274 
Q 43.420552 55.75274 45.420552 55.75274 
z
" style="fill: #ffffff; opacity: 0.8; stroke: #cccccc; stroke-linejoin: miter"/>
    </g>
    <g id="line2d_19">
     <path d="M 47.420552 31.216803 
L 57.420552 31.216803 
L 67.420552 31.216803 
" style="fill: none; stroke: #1f77b4; stroke-width: 1.5; stroke-linecap: square"/>
    </g>
    <g id="text_22">
     <!-- eerie -->
     <g transform="translate(75.420552 34.716803) scale(0.1 -0.1)">
      <defs>
       <path id="DejaVuSans-72" d="M 2631 2963 
Q 2534 3019 2420 3045 
Q 2306 3072 2169 3072 
Q 1681 3072 1420 2755 
Q 1159 2438 1159 1844 
L 1159 0 
L 581 0 
L 581 3500 
L 1159 3500 
L 1159 2956 
Q 1341 3275 1631 3429 
Q 1922 3584 2338 3584 
Q 2397 3584 2469 3576 
Q 2541 3569 2628 3553 
L 2631 2963 
z
" transform="scale(0.015625)"/>
      </defs>
      <use xlink:href="#DejaVuSans-65"/>
      <use xlink:href="#DejaVuSans-65" transform="translate(61.523438 0)"/>
      <use xlink:href="#DejaVuSans-72" transform="translate(123.046875 0)"/>
      <use xlink:href="#DejaVuSans-69" transform="translate(164.160156 0)"/>
      <use xlink:href="#DejaVuSans-65" transform="translate(191.943359 0)"/>
     </g>
    </g>
    <g id="line2d_20">
     <path d="M 47.420552 45.894928 
L 57.420552 45.894928 
L 67.420552 45.894928 
" style="fill: none; stroke: #ff7f0e; stroke-width: 1.5; stroke-linecap: square"/>
    </g>
    <g id="text_23">
     <!-- non_eerie -->
     <g transform="translate(75.420552 49.394928) scale(0.1 -0.1)">
      <defs>
       <path id="DejaVuSans-6f" d="M 1959 3097 
Q 1497 3097 1228 2736 
Q 959 2375 959 1747 
Q 959 1119 1226 758 
Q 1494 397 1959 397 
Q 2419 397 2687 759 
Q 2956 1122 2956 1747 
Q 2956 2369 2687 2733 
Q 2419 3097 1959 3097 
z
M 1959 3584 
Q 2709 3584 3137 3096 
Q 3566 2609 3566 1747 
Q 3566 888 3137 398 
Q 2709 -91 1959 -91 
Q 1206 -91 779 398 
Q 353 888 353 1747 
Q 353 2609 779 3096 
Q 1206 3584 1959 3584 
z
" transform="scale(0.015625)"/>
       <path id="DejaVuSans-5f" d="M 3263 -1063 
L 3263 -1509 
L -63 -1509 
L -63 -1063 
L 3263 -1063 
z
" transform="scale(0.015625)"/>
      </defs>
      <use xlink:href="#DejaVuSans-6e"/>
      <use xlink:href="#DejaVuSans-6f" transform="translate(63.378906 0)"/>
      <use xlink:href="#DejaVuSans-6e" transform="translate(124.560547 0)"/>
      <use xlink:href="#DejaVuSans-5f" transform="translate(187.939453 0)"/>
      <use xlink:href="#DejaVuSans-65" transform="translate(237.939453 0)"/>
      <use xlink:href="#DejaVuSans-65" transform="translate(299.462891 0)"/>
      <use xlink:href="#DejaVuSans-72" transform="translate(360.986328 0)"/>
      <use xlink:href="#DejaVuSans-69" transform="translate(402.099609 0)"/>
      <use xlink:href="#DejaVuSans-65" transform="translate(429.882812 0)"/>
     </g>
    </g>
   </g>
   <g id="FillBetweenPolyCollection_1">
    <defs>
     <path id="m2d1f1b0bd6" d="M 38.420552 -254.857183 
L 38.420552 -245.466042 
L 40.123593 -239.506739 
L 41.826633 -234.209106 
L 43.529673 -231.882666 
L 45.232713 -233.339306 
L 46.935753 -237.928001 
L 48.638793 -242.320454 
L 50.341833 -242.68327 
L 52.044873 -237.769581 
L 53.747913 -230.71668 
L 55.450953 -224.682747 
L 57.153993 -221.397931 
L 58.857033 -220.886956 
L 60.560073 -221.360195 
L 62.263113 -222.059526 
L 63.966154 -222.072478 
L 65.669194 -223.001806 
L 67.372234 -226.014912 
L 69.075274 -230.692125 
L 70.778314 -233.982713 
L 72.481354 -232.20408 
L 74.184394 -225.45454 
L 75.887434 -216.193826 
L 77.590474 -207.927462 
L 79.293514 -202.549596 
L 80.996554 -201.295412 
L 82.699594 -203.217561 
L 84.402634 -206.377336 
L 86.105674 -209.818136 
L 87.808714 -213.887062 
L 89.511755 -219.155713 
L 91.214795 -224.986197 
L 92.917835 -230.255897 
L 94.620875 -232.711898 
L 96.323915 -230.533549 
L 98.026955 -223.436912 
L 99.729995 -214.181615 
L 101.433035 -205.432454 
L 103.136075 -198.96771 
L 104.839115 -195.746605 
L 106.542155 -196.199173 
L 108.245195 -200.841838 
L 109.948235 -208.706205 
L 111.651275 -216.653191 
L 113.354315 -221.678088 
L 115.057356 -221.471485 
L 116.760396 -216.351169 
L 118.463436 -209.43294 
L 120.166476 -203.794604 
L 121.869516 -202.641534 
L 123.572556 -205.328118 
L 125.275596 -208.561017 
L 126.978636 -208.012415 
L 128.681676 -203.200058 
L 130.384716 -196.425466 
L 132.087756 -192.129318 
L 133.790796 -193.939989 
L 135.493836 -201.750712 
L 137.196876 -211.169077 
L 138.899916 -216.794655 
L 140.602957 -215.419719 
L 142.305997 -209.02767 
L 144.009037 -200.119137 
L 145.712077 -193.415866 
L 147.415117 -191.595133 
L 149.118157 -194.814422 
L 150.821197 -200.409487 
L 152.524237 -205.516469 
L 154.227277 -208.566734 
L 155.930317 -208.806328 
L 157.633357 -206.400463 
L 159.336397 -203.928937 
L 161.039437 -204.324812 
L 162.742477 -209.593122 
L 164.445517 -220.447479 
L 166.148558 -237.155302 
L 167.851598 -256.585979 
L 169.554638 -277.473896 
L 171.257678 -298.584396 
L 172.960718 -320.617398 
L 174.663758 -344.076444 
L 176.366798 -368.154028 
L 178.069838 -388.79663 
L 179.772878 -400.750214 
L 181.475918 -401.257662 
L 183.178958 -390.774503 
L 184.881998 -373.328728 
L 186.585038 -353.731064 
L 188.288078 -335.95657 
L 189.991118 -322.205305 
L 191.694159 -311.738432 
L 193.397199 -302.012343 
L 195.100239 -291.766496 
L 196.803279 -282.00135 
L 198.506319 -275.93282 
L 200.209359 -276.059483 
L 201.912399 -280.554909 
L 203.615439 -285.888386 
L 205.318479 -289.64614 
L 207.021519 -292.96454 
L 208.724559 -296.983501 
L 210.427599 -303.926793 
L 212.130639 -314.184775 
L 213.833679 -325.623586 
L 215.536719 -334.435405 
L 217.23976 -337.850871 
L 218.9428 -336.36293 
L 220.64584 -333.81908 
L 222.34888 -333.515193 
L 224.05192 -338.094299 
L 225.75496 -345.279462 
L 227.458 -351.373677 
L 229.16104 -352.568464 
L 230.86408 -347.387191 
L 232.56712 -337.593255 
L 234.27016 -326.15403 
L 235.9732 -316.603975 
L 237.67624 -309.978966 
L 239.37928 -306.861986 
L 241.08232 -305.325304 
L 242.785361 -303.847128 
L 244.488401 -301.891108 
L 246.191441 -299.473843 
L 247.894481 -298.557624 
L 249.597521 -299.688266 
L 251.300561 -302.26391 
L 253.003601 -306.021082 
L 254.706641 -309.428463 
L 256.409681 -312.015066 
L 258.112721 -314.075061 
L 259.815761 -316.831157 
L 261.518801 -321.741553 
L 263.221841 -329.664993 
L 264.924881 -339.834295 
L 266.627921 -349.06093 
L 268.330962 -353.580921 
L 270.034002 -351.702096 
L 271.737042 -344.266495 
L 273.440082 -334.838461 
L 275.143122 -327.260032 
L 276.846162 -323.519163 
L 278.549202 -322.81824 
L 280.252242 -322.976737 
L 281.955282 -321.550849 
L 283.658322 -318.462854 
L 285.361362 -315.318078 
L 287.064402 -313.032537 
L 288.767442 -311.413317 
L 290.470482 -309.545134 
L 292.173522 -306.451405 
L 293.876563 -301.555948 
L 295.579603 -296.902435 
L 297.282643 -294.932869 
L 298.985683 -295.460169 
L 300.688723 -297.435145 
L 302.391763 -298.576571 
L 304.094803 -298.226983 
L 305.797843 -297.663758 
L 307.500883 -298.340586 
L 309.203923 -301.568472 
L 310.906963 -306.421846 
L 312.610003 -310.585174 
L 314.313043 -312.170815 
L 316.016083 -311.77587 
L 317.719123 -311.885634 
L 319.422164 -314.198565 
L 321.125204 -319.365205 
L 322.828244 -325.055772 
L 324.531284 -327.91146 
L 326.234324 -328.241631 
L 327.937364 -328.563171 
L 329.640404 -332.8347 
L 331.343444 -342.231898 
L 333.046484 -354.887585 
L 334.749524 -365.867557 
L 336.452564 -371.237489 
L 338.155604 -371.271563 
L 339.858644 -369.335713 
L 341.561684 -369.308171 
L 343.264724 -373.136209 
L 344.967765 -379.162928 
L 346.670805 -383.746905 
L 348.373845 -384.736368 
L 350.076885 -383.271137 
L 351.779925 -381.782494 
L 353.482965 -383.166049 
L 355.186005 -387.268104 
L 356.889045 -391.383706 
L 358.592085 -392.108568 
L 360.295125 -387.776223 
L 361.998165 -379.958216 
L 363.701205 -371.853242 
L 365.404245 -367.220149 
L 367.107285 -367.557728 
L 368.810326 -372.197025 
L 370.513366 -378.418706 
L 372.216406 -384.334104 
L 373.919446 -388.628096 
L 375.622486 -391.642014 
L 377.325526 -392.776664 
L 379.028566 -392.343326 
L 380.731606 -390.672949 
L 382.434646 -387.34777 
L 384.137686 -383.244915 
L 385.840726 -378.699014 
L 387.543766 -374.269542 
L 389.246806 -370.845809 
L 390.949846 -368.089298 
L 392.652886 -366.24053 
L 394.355927 -364.938829 
L 396.058967 -363.775314 
L 397.762007 -360.61263 
L 399.465047 -354.83699 
L 401.168087 -347.194707 
L 402.871127 -340.132857 
L 404.574167 -335.557326 
L 406.277207 -333.81878 
L 407.980247 -333.747477 
L 409.683287 -333.373954 
L 411.386327 -329.987415 
L 413.089367 -323.945406 
L 414.792407 -316.947057 
L 416.495447 -311.366276 
L 418.198487 -309.356125 
L 419.901528 -310.226046 
L 421.604568 -311.437357 
L 423.307608 -310.667112 
L 425.010648 -307.255511 
L 426.713688 -302.014494 
L 428.416728 -297.353523 
L 430.119768 -294.125382 
L 431.822808 -292.500742 
L 433.525848 -290.778833 
L 435.228888 -287.840175 
L 436.931928 -282.303931 
L 438.634968 -274.787552 
L 440.338008 -266.139204 
L 442.041048 -258.943627 
L 443.744088 -254.868739 
L 445.447129 -253.474303 
L 447.150169 -255.504021 
L 448.853209 -259.102926 
L 450.556249 -262.541362 
L 452.259289 -265.611842 
L 453.962329 -267.481848 
L 455.665369 -267.987928 
L 457.368409 -267.304331 
L 459.071449 -265.269198 
L 460.774489 -263.01798 
L 462.477529 -260.627014 
L 464.180569 -258.75793 
L 465.883609 -257.25061 
L 467.586649 -255.471295 
L 469.289689 -253.457298 
L 470.99273 -250.615578 
L 472.69577 -246.676437 
L 474.39881 -241.86829 
L 476.10185 -237.259151 
L 477.80489 -233.401959 
L 479.50793 -231.146239 
L 481.21097 -230.590742 
L 482.91401 -230.523351 
L 484.61705 -231.700704 
L 486.32009 -234.083998 
L 488.02313 -236.986177 
L 489.72617 -240.700576 
L 491.42921 -243.935651 
L 493.13225 -246.311899 
L 494.83529 -245.678644 
L 496.538331 -241.280246 
L 498.241371 -234.447187 
L 499.944411 -226.271807 
L 501.647451 -219.581044 
L 503.350491 -214.950819 
L 505.053531 -213.628804 
L 506.756571 -214.244525 
L 508.459611 -215.052337 
L 510.162651 -215.310217 
L 511.865691 -215.280708 
L 513.568731 -216.04486 
L 515.271771 -219.8135 
L 516.974811 -226.160997 
L 518.677851 -232.523068 
L 520.380891 -235.94071 
L 522.083932 -234.64416 
L 523.786972 -229.397433 
L 525.490012 -223.04636 
L 527.193052 -219.424747 
L 528.896092 -220.244644 
L 530.599132 -223.101212 
L 532.302172 -224.706126 
L 534.005212 -222.301249 
L 535.708252 -216.206948 
L 537.411292 -210.296314 
L 539.114332 -208.024872 
L 540.817372 -209.951173 
L 542.520412 -213.381005 
L 544.223452 -215.370896 
L 545.926492 -213.055705 
L 547.629533 -205.904343 
L 549.332573 -196.601737 
L 551.035613 -189.093168 
L 552.738653 -186.281842 
L 554.441693 -187.15699 
L 556.144733 -189.94445 
L 557.847773 -192.2952 
L 559.550813 -192.394787 
L 561.253853 -189.789453 
L 561.253853 -205.547681 
L 561.253853 -205.547681 
L 559.550813 -208.258351 
L 557.847773 -208.144338 
L 556.144733 -205.759246 
L 554.441693 -202.34192 
L 552.738653 -200.942963 
L 551.035613 -204.278082 
L 549.332573 -212.014609 
L 547.629533 -221.616425 
L 545.926492 -228.910276 
L 544.223452 -231.9526 
L 542.520412 -230.270324 
L 540.817372 -226.30962 
L 539.114332 -224.29777 
L 537.411292 -226.274936 
L 535.708252 -231.562682 
L 534.005212 -236.331248 
L 532.302172 -238.886269 
L 530.599132 -237.538542 
L 528.896092 -234.607609 
L 527.193052 -233.762327 
L 525.490012 -237.014554 
L 523.786972 -243.572606 
L 522.083932 -249.694177 
L 520.380891 -251.943364 
L 518.677851 -248.711373 
L 516.974811 -242.881371 
L 515.271771 -236.817726 
L 513.568731 -233.07539 
L 511.865691 -231.883829 
L 510.162651 -232.328947 
L 508.459611 -232.115775 
L 506.756571 -231.346425 
L 505.053531 -230.173002 
L 503.350491 -230.862547 
L 501.647451 -235.054435 
L 499.944411 -242.384432 
L 498.241371 -251.032648 
L 496.538331 -257.78448 
L 494.83529 -261.308697 
L 493.13225 -261.258635 
L 491.42921 -258.343437 
L 489.72617 -254.67876 
L 488.02313 -250.826797 
L 486.32009 -248.304805 
L 484.61705 -247.139255 
L 482.91401 -246.44695 
L 481.21097 -246.714519 
L 479.50793 -247.720685 
L 477.80489 -249.299908 
L 476.10185 -252.360465 
L 474.39881 -256.379603 
L 472.69577 -260.890205 
L 470.99273 -265.627945 
L 469.289689 -268.967014 
L 467.586649 -271.072906 
L 465.883609 -272.434206 
L 464.180569 -274.110009 
L 462.477529 -276.375538 
L 460.774489 -278.448042 
L 459.071449 -280.661728 
L 457.368409 -282.409787 
L 455.665369 -283.125893 
L 453.962329 -282.426906 
L 452.259289 -280.463128 
L 450.556249 -277.270066 
L 448.853209 -273.795086 
L 447.150169 -270.797867 
L 445.447129 -269.229651 
L 443.744088 -270.698237 
L 442.041048 -274.970901 
L 440.338008 -281.515752 
L 438.634968 -289.231502 
L 436.931928 -296.801513 
L 435.228888 -302.431271 
L 433.525848 -305.783199 
L 431.822808 -307.79497 
L 430.119768 -309.944737 
L 428.416728 -313.355023 
L 426.713688 -318.006356 
L 425.010648 -323.032878 
L 423.307608 -326.443323 
L 421.604568 -327.934029 
L 419.901528 -327.434505 
L 418.198487 -327.137007 
L 416.495447 -329.155388 
L 414.792407 -334.78265 
L 413.089367 -342.115235 
L 411.386327 -348.406922 
L 409.683287 -351.587225 
L 407.980247 -351.952185 
L 406.277207 -352.011073 
L 404.574167 -353.760986 
L 402.871127 -358.216454 
L 401.168087 -364.631347 
L 399.465047 -371.559099 
L 397.762007 -377.172732 
L 396.058967 -380.629425 
L 394.355927 -382.52747 
L 392.652886 -383.938556 
L 390.949846 -385.698331 
L 389.246806 -388.590444 
L 387.543766 -392.101575 
L 385.840726 -396.320944 
L 384.137686 -400.564428 
L 382.434646 -404.428133 
L 380.731606 -407.872224 
L 379.028566 -410.151192 
L 377.325526 -410.774693 
L 375.622486 -409.65822 
L 373.919446 -407.248877 
L 372.216406 -402.792417 
L 370.513366 -396.427202 
L 368.810326 -389.531055 
L 367.107285 -384.625278 
L 365.404245 -383.940075 
L 363.701205 -388.153581 
L 361.998165 -396.119423 
L 360.295125 -404.837529 
L 358.592085 -410.432212 
L 356.889045 -410.40644 
L 355.186005 -406.151018 
L 353.482965 -401.759825 
L 351.779925 -399.606101 
L 350.076885 -400.575901 
L 348.373845 -401.731027 
L 346.670805 -400.376606 
L 344.967765 -395.512628 
L 343.264724 -389.698683 
L 341.561684 -386.41722 
L 339.858644 -386.780871 
L 338.155604 -388.435557 
L 336.452564 -387.785458 
L 334.749524 -382.151598 
L 333.046484 -371.217359 
L 331.343444 -358.931804 
L 329.640404 -350.126571 
L 327.937364 -346.187464 
L 326.234324 -345.842953 
L 324.531284 -345.648182 
L 322.828244 -342.467174 
L 321.125204 -336.752798 
L 319.422164 -331.237534 
L 317.719123 -328.634571 
L 316.016083 -328.812416 
L 314.313043 -329.126933 
L 312.610003 -327.282735 
L 310.906963 -322.431505 
L 309.203923 -317.36281 
L 307.500883 -313.813911 
L 305.797843 -313.049785 
L 304.094803 -313.920613 
L 302.391763 -315.165035 
L 300.688723 -314.716741 
L 298.985683 -312.990749 
L 297.282643 -312.039259 
L 295.579603 -313.985821 
L 293.876563 -318.434001 
L 292.173522 -323.169006 
L 290.470482 -326.295131 
L 288.767442 -327.707621 
L 287.064402 -328.514762 
L 285.361362 -329.92033 
L 283.658322 -332.553098 
L 281.955282 -335.701731 
L 280.252242 -338.034047 
L 278.549202 -338.609514 
L 276.846162 -339.705162 
L 275.143122 -343.066838 
L 273.440082 -350.37009 
L 271.737042 -359.801375 
L 270.034002 -367.452799 
L 268.330962 -369.408803 
L 266.627921 -365.158826 
L 264.924881 -356.437115 
L 263.221841 -346.377383 
L 261.518801 -337.547803 
L 259.815761 -332.215265 
L 258.112721 -329.063313 
L 256.409681 -326.646546 
L 254.706641 -323.980245 
L 253.003601 -320.057422 
L 251.300561 -316.049972 
L 249.597521 -313.398591 
L 247.894481 -312.884469 
L 246.191441 -314.206336 
L 244.488401 -316.117275 
L 242.785361 -317.767105 
L 241.08232 -318.748923 
L 239.37928 -319.741983 
L 237.67624 -322.721238 
L 235.9732 -329.345477 
L 234.27016 -339.93812 
L 232.56712 -351.585012 
L 230.86408 -361.459493 
L 229.16104 -365.865692 
L 227.458 -364.245579 
L 225.75496 -358.041445 
L 224.05192 -350.984569 
L 222.34888 -346.202363 
L 220.64584 -346.595725 
L 218.9428 -349.55699 
L 217.23976 -350.865166 
L 215.536719 -347.312892 
L 213.833679 -338.617603 
L 212.130639 -327.441166 
L 210.427599 -317.072655 
L 208.724559 -309.820734 
L 207.021519 -305.138493 
L 205.318479 -301.997799 
L 203.615439 -298.721045 
L 201.912399 -293.908271 
L 200.209359 -290.027214 
L 198.506319 -290.211845 
L 196.803279 -295.767868 
L 195.100239 -305.009886 
L 193.397199 -315.323248 
L 191.694159 -325.458958 
L 189.991118 -335.820482 
L 188.288078 -349.003052 
L 186.585038 -366.244926 
L 184.881998 -385.690941 
L 183.178958 -403.091984 
L 181.475918 -413.839705 
L 179.772878 -413.881635 
L 178.069838 -401.79352 
L 176.366798 -380.806119 
L 174.663758 -356.755001 
L 172.960718 -332.736658 
L 171.257678 -310.63788 
L 169.554638 -289.57547 
L 167.851598 -268.779705 
L 166.148558 -249.584135 
L 164.445517 -233.572976 
L 162.742477 -222.699352 
L 161.039437 -217.319896 
L 159.336397 -216.400651 
L 157.633357 -217.604851 
L 155.930317 -219.21158 
L 154.227277 -219.379126 
L 152.524237 -216.641635 
L 150.821197 -211.444848 
L 149.118157 -205.422979 
L 147.415117 -202.240563 
L 145.712077 -204.046201 
L 144.009037 -210.796866 
L 142.305997 -219.570651 
L 140.602957 -225.87245 
L 138.899916 -226.615081 
L 137.196876 -220.174729 
L 135.493836 -210.581032 
L 133.790796 -203.147263 
L 132.087756 -201.621525 
L 130.384716 -205.945042 
L 128.681676 -212.699017 
L 126.978636 -217.708389 
L 125.275596 -218.297577 
L 123.572556 -215.082283 
L 121.869516 -212.459537 
L 120.166476 -213.477896 
L 118.463436 -218.698006 
L 116.760396 -225.631457 
L 115.057356 -230.914273 
L 113.354315 -230.650571 
L 111.651275 -225.653745 
L 109.948235 -217.618196 
L 108.245195 -210.004528 
L 106.542155 -204.768335 
L 104.839115 -203.516087 
L 103.136075 -206.634153 
L 101.433035 -213.424398 
L 99.729995 -222.557613 
L 98.026955 -231.913188 
L 96.323915 -239.030036 
L 94.620875 -241.7767 
L 92.917835 -240.023698 
L 91.214795 -234.603743 
L 89.511755 -228.143201 
L 87.808714 -222.160027 
L 86.105674 -217.883511 
L 84.402634 -214.425815 
L 82.699594 -211.397625 
L 80.996554 -209.972504 
L 79.293514 -211.195748 
L 77.590474 -216.462083 
L 75.887434 -224.98007 
L 74.184394 -233.825341 
L 72.481354 -239.765312 
L 70.778314 -241.250756 
L 69.075274 -238.727202 
L 67.372234 -235.012161 
L 65.669194 -231.993071 
L 63.966154 -230.835498 
L 62.263113 -230.298001 
L 60.560073 -229.73893 
L 58.857033 -228.89218 
L 57.153993 -229.822967 
L 55.450953 -233.962356 
L 53.747913 -240.788064 
L 52.044873 -247.569799 
L 50.341833 -251.320181 
L 48.638793 -250.779354 
L 46.935753 -246.515059 
L 45.232713 -241.616002 
L 43.529673 -239.995534 
L 41.826633 -242.792117 
L 40.123593 -248.815846 
L 38.420552 -254.857183 
z
" style="stroke: #1f77b4; stroke-opacity: 0.3"/>
    </defs>
    <g>
     <use xlink:href="#m2d1f1b0bd6" x="0" y="432" style="fill: #1f77b4; fill-opacity: 0.3; stroke: #1f77b4; stroke-opacity: 0.3"/>
    </g>
   </g>
   <g id="FillBetweenPolyCollection_2">
    <defs>
     <path id="m9cf66825e7" d="M 38.420552 -269.408034 
L 38.420552 -263.002568 
L 40.123593 -261.968364 
L 41.826633 -256.166464 
L 43.529673 -247.598653 
L 45.232713 -239.358935 
L 46.935753 -234.390747 
L 48.638793 -233.631792 
L 50.341833 -235.736542 
L 52.044873 -238.374613 
L 53.747913 -239.442045 
L 55.450953 -238.157711 
L 57.153993 -234.970149 
L 58.857033 -231.168258 
L 60.560073 -228.742281 
L 62.263113 -228.487232 
L 63.966154 -230.257585 
L 65.669194 -232.927387 
L 67.372234 -235.064738 
L 69.075274 -235.281471 
L 70.778314 -233.247162 
L 72.481354 -229.685749 
L 74.184394 -226.044405 
L 75.887434 -223.391448 
L 77.590474 -222.126961 
L 79.293514 -221.675503 
L 80.996554 -221.360057 
L 82.699594 -219.794941 
L 84.402634 -216.951227 
L 86.105674 -213.840802 
L 87.808714 -212.160778 
L 89.511755 -212.138671 
L 91.214795 -213.675673 
L 92.917835 -215.411627 
L 94.620875 -216.084431 
L 96.323915 -215.295137 
L 98.026955 -213.054643 
L 99.729995 -210.971275 
L 101.433035 -209.738628 
L 103.136075 -209.259536 
L 104.839115 -209.090758 
L 106.542155 -208.409599 
L 108.245195 -207.079532 
L 109.948235 -205.975494 
L 111.651275 -206.112371 
L 113.354315 -207.07628 
L 115.057356 -208.261172 
L 116.760396 -208.089752 
L 118.463436 -205.647795 
L 120.166476 -200.942652 
L 121.869516 -194.819579 
L 123.572556 -189.495277 
L 125.275596 -186.836478 
L 126.978636 -187.251606 
L 128.681676 -189.782494 
L 130.384716 -192.71979 
L 132.087756 -194.383299 
L 133.790796 -193.899459 
L 135.493836 -191.942021 
L 137.196876 -189.69463 
L 138.899916 -188.475224 
L 140.602957 -188.857019 
L 142.305997 -189.920381 
L 144.009037 -190.043845 
L 145.712077 -188.563413 
L 147.415117 -185.348572 
L 149.118157 -181.584603 
L 150.821197 -179.037826 
L 152.524237 -178.470599 
L 154.227277 -180.094735 
L 155.930317 -182.65277 
L 157.633357 -184.703993 
L 159.336397 -185.829061 
L 161.039437 -187.745126 
L 162.742477 -193.034955 
L 164.445517 -203.921737 
L 166.148558 -220.051877 
L 167.851598 -239.415232 
L 169.554638 -259.669302 
L 171.257678 -279.079603 
L 172.960718 -296.41165 
L 174.663758 -311.992925 
L 176.366798 -326.463684 
L 178.069838 -339.531477 
L 179.772878 -350.78317 
L 181.475918 -358.887412 
L 183.178958 -363.003731 
L 184.881998 -362.34701 
L 186.585038 -355.961087 
L 188.288078 -344.055349 
L 189.991118 -328.702902 
L 191.694159 -312.207456 
L 193.397199 -296.963298 
L 195.100239 -285.298034 
L 196.803279 -277.594089 
L 198.506319 -273.533907 
L 200.209359 -272.150074 
L 201.912399 -271.476515 
L 203.615439 -269.75633 
L 205.318479 -267.303676 
L 207.021519 -265.367718 
L 208.724559 -265.674729 
L 210.427599 -269.345312 
L 212.130639 -276.509102 
L 213.833679 -285.743044 
L 215.536719 -295.549384 
L 217.23976 -304.167913 
L 218.9428 -310.517917 
L 220.64584 -314.175173 
L 222.34888 -315.500261 
L 224.05192 -315.725084 
L 225.75496 -315.801151 
L 227.458 -316.504531 
L 229.16104 -318.535076 
L 230.86408 -321.138678 
L 232.56712 -322.875179 
L 234.27016 -323.026758 
L 235.9732 -320.719414 
L 237.67624 -316.98217 
L 239.37928 -312.886727 
L 241.08232 -310.09972 
L 242.785361 -308.655177 
L 244.488401 -307.231165 
L 246.191441 -304.257038 
L 247.894481 -299.050494 
L 249.597521 -292.939715 
L 251.300561 -288.294138 
L 253.003601 -287.015871 
L 254.706641 -289.345846 
L 256.409681 -293.648137 
L 258.112721 -296.991685 
L 259.815761 -297.766071 
L 261.518801 -296.703485 
L 263.221841 -296.323905 
L 264.924881 -298.970729 
L 266.627921 -304.871799 
L 268.330962 -311.30361 
L 270.034002 -314.382409 
L 271.737042 -311.668584 
L 273.440082 -304.089639 
L 275.143122 -296.134568 
L 276.846162 -291.713659 
L 278.549202 -292.479259 
L 280.252242 -297.055791 
L 281.955282 -301.448461 
L 283.658322 -302.154657 
L 285.361362 -298.564009 
L 287.064402 -292.984586 
L 288.767442 -289.033155 
L 290.470482 -288.932557 
L 292.173522 -292.933311 
L 293.876563 -298.9435 
L 295.579603 -303.964318 
L 297.282643 -306.130365 
L 298.985683 -305.854248 
L 300.688723 -304.029664 
L 302.391763 -301.867515 
L 304.094803 -300.174518 
L 305.797843 -298.867943 
L 307.500883 -298.210967 
L 309.203923 -298.275181 
L 310.906963 -298.858721 
L 312.610003 -299.386817 
L 314.313043 -298.254053 
L 316.016083 -294.111167 
L 317.719123 -286.932525 
L 319.422164 -279.088712 
L 321.125204 -274.23621 
L 322.828244 -274.811444 
L 324.531284 -281.271823 
L 326.234324 -290.477219 
L 327.937364 -298.09633 
L 329.640404 -300.62336 
L 331.343444 -297.617912 
L 333.046484 -291.925645 
L 334.749524 -287.948986 
L 336.452564 -288.744379 
L 338.155604 -293.704425 
L 339.858644 -299.7686 
L 341.561684 -303.062572 
L 343.264724 -301.851913 
L 344.967765 -296.976771 
L 346.670805 -291.517463 
L 348.373845 -288.654971 
L 350.076885 -289.610656 
L 351.779925 -293.210819 
L 353.482965 -296.949089 
L 355.186005 -299.150816 
L 356.889045 -298.614072 
L 358.592085 -296.222246 
L 360.295125 -293.33404 
L 361.998165 -290.92322 
L 363.701205 -289.117389 
L 365.404245 -287.912365 
L 367.107285 -286.9833 
L 368.810326 -286.318144 
L 370.513366 -286.602916 
L 372.216406 -288.211892 
L 373.919446 -290.793694 
L 375.622486 -292.927203 
L 377.325526 -293.928797 
L 379.028566 -293.678283 
L 380.731606 -293.082618 
L 382.434646 -293.557209 
L 384.137686 -295.631095 
L 385.840726 -299.11546 
L 387.543766 -302.835039 
L 389.246806 -305.292055 
L 390.949846 -305.702534 
L 392.652886 -304.021871 
L 394.355927 -301.862484 
L 396.058967 -300.245491 
L 397.762007 -300.263209 
L 399.465047 -301.746322 
L 401.168087 -303.438846 
L 402.871127 -304.299049 
L 404.574167 -303.952691 
L 406.277207 -302.264208 
L 407.980247 -299.719867 
L 409.683287 -296.870386 
L 411.386327 -294.069151 
L 413.089367 -291.305179 
L 414.792407 -288.371158 
L 416.495447 -285.54897 
L 418.198487 -283.203082 
L 419.901528 -282.135348 
L 421.604568 -281.956244 
L 423.307608 -282.503154 
L 425.010648 -283.287533 
L 426.713688 -283.603514 
L 428.416728 -283.082711 
L 430.119768 -281.657143 
L 431.822808 -279.58116 
L 433.525848 -276.953814 
L 435.228888 -274.295871 
L 436.931928 -271.937845 
L 438.634968 -270.26032 
L 440.338008 -269.2049 
L 442.041048 -268.801698 
L 443.744088 -268.718875 
L 445.447129 -268.169667 
L 447.150169 -266.472881 
L 448.853209 -263.82684 
L 450.556249 -260.305737 
L 452.259289 -257.066015 
L 453.962329 -255.715686 
L 455.665369 -256.130054 
L 457.368409 -258.443652 
L 459.071449 -260.683108 
L 460.774489 -261.30997 
L 462.477529 -258.964791 
L 464.180569 -253.795379 
L 465.883609 -247.257632 
L 467.586649 -241.152165 
L 469.289689 -237.085156 
L 470.99273 -235.362693 
L 472.69577 -235.118319 
L 474.39881 -234.797948 
L 476.10185 -233.47136 
L 477.80489 -231.055373 
L 479.50793 -228.256588 
L 481.21097 -226.337593 
L 482.91401 -225.852268 
L 484.61705 -226.259762 
L 486.32009 -226.708246 
L 488.02313 -225.594559 
L 489.72617 -222.301144 
L 491.42921 -217.761366 
L 493.13225 -213.748624 
L 494.83529 -211.92879 
L 496.538331 -213.139985 
L 498.241371 -216.418262 
L 499.944411 -219.731255 
L 501.647451 -221.681275 
L 503.350491 -221.339025 
L 505.053531 -220.025369 
L 506.756571 -218.674997 
L 508.459611 -218.056958 
L 510.162651 -218.283936 
L 511.865691 -218.454303 
L 513.568731 -217.649052 
L 515.271771 -215.731195 
L 516.974811 -213.345974 
L 518.677851 -211.625635 
L 520.380891 -211.035425 
L 522.083932 -211.025105 
L 523.786972 -211.384045 
L 525.490012 -212.081387 
L 527.193052 -213.81346 
L 528.896092 -217.04626 
L 530.599132 -221.260264 
L 532.302172 -224.417384 
L 534.005212 -224.206756 
L 535.708252 -219.183469 
L 537.411292 -210.744107 
L 539.114332 -201.968644 
L 540.817372 -196.216107 
L 542.520412 -195.416168 
L 544.223452 -198.885563 
L 545.926492 -203.056982 
L 547.629533 -204.261667 
L 549.332573 -200.97455 
L 551.035613 -194.091412 
L 552.738653 -186.562736 
L 554.441693 -181.341371 
L 556.144733 -179.608942 
L 557.847773 -180.919726 
L 559.550813 -183.333223 
L 561.253853 -185.620137 
L 561.253853 -194.094324 
L 561.253853 -194.094324 
L 559.550813 -191.779872 
L 557.847773 -189.244422 
L 556.144733 -188.044966 
L 554.441693 -189.803797 
L 552.738653 -195.176155 
L 551.035613 -202.864392 
L 549.332573 -209.816397 
L 547.629533 -213.113381 
L 545.926492 -211.926112 
L 544.223452 -207.869967 
L 542.520412 -204.147059 
L 540.817372 -204.575753 
L 539.114332 -210.057484 
L 537.411292 -218.905346 
L 535.708252 -227.28519 
L 534.005212 -232.174322 
L 532.302172 -232.254857 
L 530.599132 -229.117028 
L 528.896092 -225.106451 
L 527.193052 -221.812323 
L 525.490012 -220.10461 
L 523.786972 -219.477799 
L 522.083932 -219.198956 
L 520.380891 -219.218574 
L 518.677851 -220.00565 
L 516.974811 -221.767127 
L 515.271771 -224.259807 
L 513.568731 -226.270843 
L 511.865691 -226.796582 
L 510.162651 -226.291134 
L 508.459611 -225.904196 
L 506.756571 -226.463916 
L 505.053531 -228.071746 
L 503.350491 -229.608947 
L 501.647451 -229.923739 
L 499.944411 -227.95911 
L 498.241371 -224.480304 
L 496.538331 -221.235841 
L 494.83529 -220.009815 
L 493.13225 -221.803131 
L 491.42921 -225.904231 
L 489.72617 -230.427381 
L 488.02313 -233.710837 
L 486.32009 -235.079634 
L 484.61705 -234.845041 
L 482.91401 -234.519528 
L 481.21097 -235.092806 
L 479.50793 -237.127548 
L 477.80489 -239.572255 
L 476.10185 -241.775828 
L 474.39881 -242.830077 
L 472.69577 -243.228593 
L 470.99273 -243.461445 
L 469.289689 -245.366125 
L 467.586649 -249.525773 
L 465.883609 -255.705597 
L 464.180569 -262.396824 
L 462.477529 -267.775299 
L 460.774489 -269.909739 
L 459.071449 -269.164088 
L 457.368409 -266.706589 
L 455.665369 -264.250954 
L 453.962329 -263.482022 
L 452.259289 -264.874375 
L 450.556249 -268.175761 
L 448.853209 -271.806612 
L 447.150169 -274.812176 
L 445.447129 -276.308766 
L 443.744088 -276.897681 
L 442.041048 -277.137063 
L 440.338008 -277.413829 
L 438.634968 -278.408505 
L 436.931928 -280.486907 
L 435.228888 -282.96506 
L 433.525848 -285.740737 
L 431.822808 -288.265663 
L 430.119768 -290.192636 
L 428.416728 -291.501683 
L 426.713688 -291.941759 
L 425.010648 -291.665911 
L 423.307608 -291.168293 
L 421.604568 -290.613023 
L 419.901528 -291.087286 
L 418.198487 -292.372643 
L 416.495447 -294.534661 
L 414.792407 -297.388936 
L 413.089367 -300.123699 
L 411.386327 -302.485636 
L 409.683287 -304.891576 
L 407.980247 -307.837107 
L 406.277207 -310.572992 
L 404.574167 -312.260859 
L 402.871127 -312.657488 
L 401.168087 -311.787836 
L 399.465047 -310.112666 
L 397.762007 -308.819317 
L 396.058967 -308.68578 
L 394.355927 -310.187225 
L 392.652886 -312.358006 
L 390.949846 -314.162895 
L 389.246806 -313.835793 
L 387.543766 -311.412361 
L 385.840726 -307.871521 
L 384.137686 -304.380423 
L 382.434646 -302.356117 
L 380.731606 -302.103422 
L 379.028566 -302.630886 
L 377.325526 -302.714652 
L 375.622486 -301.490578 
L 373.919446 -299.160238 
L 372.216406 -296.605492 
L 370.513366 -295.052553 
L 368.810326 -294.853179 
L 367.107285 -295.340002 
L 365.404245 -296.429421 
L 363.701205 -297.991887 
L 361.998165 -299.878843 
L 360.295125 -302.307671 
L 358.592085 -305.052126 
L 356.889045 -307.285649 
L 355.186005 -307.469219 
L 353.482965 -305.101187 
L 351.779925 -301.152993 
L 350.076885 -297.216115 
L 348.373845 -296.157525 
L 346.670805 -299.19091 
L 344.967765 -304.824884 
L 343.264724 -310.050111 
L 341.561684 -311.612591 
L 339.858644 -308.294405 
L 338.155604 -302.342972 
L 336.452564 -297.273657 
L 334.749524 -296.731997 
L 333.046484 -300.608233 
L 331.343444 -306.340988 
L 329.640404 -309.563257 
L 327.937364 -307.1241 
L 326.234324 -299.476852 
L 324.531284 -290.004849 
L 322.828244 -283.220074 
L 321.125204 -282.112467 
L 319.422164 -286.805757 
L 317.719123 -294.742151 
L 316.016083 -302.402284 
L 314.313043 -307.230703 
L 312.610003 -308.668024 
L 310.906963 -307.958209 
L 309.203923 -306.841859 
L 307.500883 -306.435584 
L 305.797843 -306.897497 
L 304.094803 -308.281465 
L 302.391763 -310.288933 
L 300.688723 -312.962519 
L 298.985683 -315.311366 
L 297.282643 -315.607597 
L 295.579603 -313.152574 
L 293.876563 -307.92552 
L 292.173522 -301.81987 
L 290.470482 -297.604734 
L 288.767442 -297.672031 
L 287.064402 -301.690458 
L 285.361362 -307.108108 
L 283.658322 -310.314837 
L 281.955282 -309.32624 
L 280.252242 -304.893809 
L 278.549202 -300.582062 
L 276.846162 -300.113267 
L 275.143122 -304.737532 
L 273.440082 -312.859211 
L 271.737042 -320.222506 
L 270.034002 -323.065402 
L 268.330962 -320.225001 
L 266.627921 -313.909064 
L 264.924881 -308.129946 
L 263.221841 -305.412522 
L 261.518801 -305.672079 
L 259.815761 -306.257669 
L 258.112721 -305.039999 
L 256.409681 -301.385599 
L 254.706641 -296.874612 
L 253.003601 -294.652233 
L 251.300561 -296.10162 
L 249.597521 -300.762683 
L 247.894481 -306.649496 
L 246.191441 -311.66036 
L 244.488401 -314.694614 
L 242.785361 -316.15265 
L 241.08232 -317.708834 
L 239.37928 -320.741682 
L 237.67624 -325.06414 
L 235.9732 -328.580102 
L 234.27016 -330.724993 
L 232.56712 -330.603025 
L 230.86408 -328.887769 
L 229.16104 -326.640911 
L 227.458 -324.510223 
L 225.75496 -323.503112 
L 224.05192 -323.352402 
L 222.34888 -323.206212 
L 220.64584 -321.621047 
L 218.9428 -317.907478 
L 217.23976 -311.329815 
L 215.536719 -302.518863 
L 213.833679 -292.6521 
L 212.130639 -283.113074 
L 210.427599 -275.983233 
L 208.724559 -272.615884 
L 207.021519 -272.68412 
L 205.318479 -274.815466 
L 203.615439 -277.227463 
L 201.912399 -278.883384 
L 200.209359 -279.660073 
L 198.506319 -281.246125 
L 196.803279 -285.153522 
L 195.100239 -292.763562 
L 193.397199 -304.554341 
L 191.694159 -319.946887 
L 189.991118 -336.454626 
L 188.288078 -351.812992 
L 186.585038 -363.353113 
L 184.881998 -369.396164 
L 183.178958 -370.462273 
L 181.475918 -366.687065 
L 179.772878 -358.677392 
L 178.069838 -347.459907 
L 176.366798 -334.163816 
L 174.663758 -319.513937 
L 172.960718 -303.947626 
L 171.257678 -286.382966 
L 169.554638 -266.82105 
L 167.851598 -246.419733 
L 166.148558 -227.069244 
L 164.445517 -210.809787 
L 162.742477 -199.896207 
L 161.039437 -194.402376 
L 159.336397 -192.465992 
L 157.633357 -191.39291 
L 155.930317 -189.558885 
L 154.227277 -186.700253 
L 152.524237 -184.755241 
L 150.821197 -185.142704 
L 149.118157 -187.899431 
L 147.415117 -192.020048 
L 145.712077 -195.401299 
L 144.009037 -196.662574 
L 142.305997 -196.022728 
L 140.602957 -194.789992 
L 138.899916 -194.196732 
L 137.196876 -195.446457 
L 135.493836 -197.950662 
L 133.790796 -200.256864 
L 132.087756 -200.759323 
L 130.384716 -198.880449 
L 128.681676 -195.757119 
L 126.978636 -192.979259 
L 125.275596 -192.500319 
L 123.572556 -195.066044 
L 121.869516 -199.992204 
L 120.166476 -205.842063 
L 118.463436 -210.499987 
L 116.760396 -212.867106 
L 115.057356 -212.941973 
L 113.354315 -211.812974 
L 111.651275 -210.720402 
L 109.948235 -210.737089 
L 108.245195 -211.954735 
L 106.542155 -213.436396 
L 104.839115 -214.307579 
L 103.136075 -214.270328 
L 101.433035 -214.581174 
L 99.729995 -215.954248 
L 98.026955 -217.920734 
L 96.323915 -219.814345 
L 94.620875 -220.469484 
L 92.917835 -219.949158 
L 91.214795 -218.364813 
L 89.511755 -216.830462 
L 87.808714 -217.100761 
L 86.105674 -219.030095 
L 84.402634 -222.027401 
L 82.699594 -224.671089 
L 80.996554 -226.253824 
L 79.293514 -226.486156 
L 77.590474 -226.704292 
L 75.887434 -227.736257 
L 74.184394 -230.55562 
L 72.481354 -234.30484 
L 70.778314 -237.984392 
L 69.075274 -240.023556 
L 67.372234 -239.931325 
L 65.669194 -237.750325 
L 63.966154 -235.100779 
L 62.263113 -233.733602 
L 60.560073 -234.000444 
L 58.857033 -236.424828 
L 57.153993 -240.075236 
L 55.450953 -243.083184 
L 53.747913 -244.319806 
L 52.044873 -243.398284 
L 50.341833 -240.899506 
L 48.638793 -238.854932 
L 46.935753 -239.575444 
L 45.232713 -244.246185 
L 43.529673 -252.593068 
L 41.826633 -261.608086 
L 40.123593 -268.019508 
L 38.420552 -269.408034 
z
" style="stroke: #ff7f0e; stroke-opacity: 0.3"/>
    </defs>
    <g>
     <use xlink:href="#m9cf66825e7" x="0" y="432" style="fill: #ff7f0e; fill-opacity: 0.3; stroke: #ff7f0e; stroke-opacity: 0.3"/>
    </g>
   </g>
   <g id="line2d_21">
    <path d="M 38.420552 181.787585 
L 41.826633 193.565819 
L 43.529673 196.230842 
L 45.232713 194.592118 
L 46.935753 189.859399 
L 48.638793 185.675592 
L 50.341833 185.147812 
L 52.044873 189.402585 
L 53.747913 196.487735 
L 55.450953 202.959647 
L 57.153993 206.436902 
L 58.857033 207.150671 
L 62.263113 205.835749 
L 63.966154 205.513859 
L 65.669194 204.467822 
L 67.372234 201.372839 
L 69.075274 197.157596 
L 70.778314 194.345461 
L 72.481354 195.94822 
L 74.184394 202.091272 
L 75.887434 211.207943 
L 77.590474 219.685688 
L 79.293514 225.075428 
L 80.996554 226.426349 
L 82.699594 224.747713 
L 84.402634 221.723072 
L 86.105674 218.20993 
L 87.808714 214.049902 
L 89.511755 208.491419 
L 91.214795 202.22001 
L 92.917835 196.920625 
L 94.620875 194.737373 
L 96.323915 197.288999 
L 98.026955 204.231241 
L 101.433035 222.48913 
L 103.136075 229.199119 
L 104.839115 232.344755 
L 106.542155 231.53713 
L 108.245195 226.687767 
L 111.651275 210.893555 
L 113.354315 205.711459 
L 115.057356 205.840667 
L 116.760396 210.905888 
L 118.463436 217.896735 
L 120.166476 223.399341 
L 121.869516 224.471374 
L 123.572556 221.66204 
L 125.275596 218.559076 
L 126.978636 218.953433 
L 128.681676 223.895845 
L 130.384716 230.740927 
L 132.087756 235.03377 
L 133.790796 233.318178 
L 135.493836 225.798755 
L 137.196876 216.209945 
L 138.899916 210.262781 
L 140.602957 211.124578 
L 142.305997 217.742719 
L 144.009037 226.636568 
L 145.712077 233.278779 
L 147.415117 234.990017 
L 149.118157 231.815388 
L 150.821197 226.019296 
L 152.524237 220.768406 
L 154.227277 217.907295 
L 155.930317 218.081265 
L 159.336397 221.989775 
L 161.039437 221.315861 
L 162.742477 215.889007 
L 164.445517 204.65672 
L 166.148558 188.548101 
L 167.851598 169.261364 
L 171.257678 127.62518 
L 172.960718 105.505697 
L 176.366798 57.621638 
L 178.069838 36.918204 
L 179.772878 24.751065 
L 181.475918 24.652581 
L 183.178958 35.305545 
L 184.881998 52.549948 
L 186.585038 72.002085 
L 188.288078 89.407025 
L 189.991118 102.823084 
L 195.100239 133.670166 
L 196.803279 143.166823 
L 198.506319 148.822978 
L 200.209359 148.933519 
L 201.912399 144.707646 
L 203.615439 139.742544 
L 205.318479 136.218159 
L 207.021519 133.073692 
L 208.724559 128.860372 
L 210.427599 121.60546 
L 212.130639 111.221769 
L 213.833679 99.862706 
L 215.536719 91.166957 
L 217.23976 87.650668 
L 218.9428 88.99731 
L 220.64584 91.904156 
L 222.34888 92.097335 
L 224.05192 87.60894 
L 225.75496 80.418313 
L 227.458 74.423436 
L 229.16104 72.989382 
L 230.86408 77.706532 
L 232.56712 87.328509 
L 234.27016 98.891953 
L 235.9732 109.024713 
L 237.67624 115.667582 
L 239.37928 118.720353 
L 242.785361 121.385339 
L 244.488401 123.305261 
L 246.191441 125.434608 
L 247.894481 126.492251 
L 249.597521 125.615645 
L 251.300561 122.79896 
L 254.706641 115.523895 
L 256.409681 112.850625 
L 258.112721 110.642448 
L 259.815761 107.725162 
L 261.518801 102.432773 
L 263.221841 94.065107 
L 264.924881 83.779429 
L 266.627921 74.847506 
L 268.330962 70.516375 
L 270.034002 72.566694 
L 271.737042 80.008321 
L 273.440082 89.380933 
L 275.143122 96.837487 
L 276.846162 100.458041 
L 278.549202 101.314581 
L 280.252242 101.629947 
L 281.955282 103.38361 
L 285.361362 109.543433 
L 287.064402 111.532352 
L 288.767442 112.830584 
L 290.470482 114.552482 
L 292.173522 117.769162 
L 295.579603 126.996791 
L 297.282643 128.9864 
L 298.985683 128.206669 
L 300.688723 126.238557 
L 302.391763 125.370418 
L 304.094803 126.123467 
L 305.797843 127.057378 
L 307.500883 126.202893 
L 309.203923 122.699673 
L 310.906963 117.501235 
L 312.610003 112.984166 
L 314.313043 111.201763 
L 316.016083 111.691947 
L 317.719123 111.771354 
L 319.422164 109.165813 
L 322.828244 98.206284 
L 324.531284 95.146277 
L 327.937364 94.359995 
L 329.640404 90.431794 
L 331.343444 81.182457 
L 333.046484 68.75535 
L 334.749524 57.830194 
L 336.452564 52.341245 
L 338.155604 51.974827 
L 339.858644 53.872169 
L 341.561684 54.098076 
L 343.264724 50.51906 
L 344.967765 44.551408 
L 346.670805 39.73988 
L 348.373845 38.618907 
L 350.076885 40.059047 
L 351.779925 41.139158 
L 353.482965 39.518243 
L 356.889045 30.949312 
L 358.592085 30.511758 
L 360.295125 35.40695 
L 363.701205 51.92189 
L 365.404245 56.369851 
L 367.107285 55.780799 
L 368.810326 51.083426 
L 372.216406 38.36975 
L 373.919446 33.896456 
L 375.622486 31.411307 
L 377.325526 30.40429 
L 379.028566 30.86877 
L 380.731606 32.850394 
L 382.434646 36.115011 
L 384.137686 40.121195 
L 387.543766 48.743805 
L 389.246806 52.258605 
L 390.949846 55.108773 
L 392.652886 57.075557 
L 394.355927 58.310656 
L 396.058967 59.812077 
L 397.762007 62.982275 
L 399.465047 68.606427 
L 402.871127 82.836669 
L 404.574167 87.518784 
L 406.277207 89.209053 
L 407.980247 89.149791 
L 409.683287 89.559413 
L 411.386327 92.700723 
L 413.089367 98.922098 
L 414.792407 106.110172 
L 416.495447 111.518828 
L 418.198487 113.560151 
L 419.901528 113.087452 
L 421.604568 112.218469 
L 423.307608 113.144496 
L 425.010648 116.619143 
L 428.416728 126.640668 
L 430.119768 129.94147 
L 433.525848 133.560409 
L 435.228888 136.764966 
L 436.931928 142.359862 
L 440.338008 158.272306 
L 442.041048 165.097146 
L 443.744088 169.2862 
L 445.447129 170.582505 
L 447.150169 168.977965 
L 448.853209 165.76356 
L 450.556249 162.304001 
L 452.259289 159.180691 
L 453.962329 157.226799 
L 455.665369 156.633664 
L 457.368409 157.384188 
L 459.071449 159.256576 
L 460.774489 161.63239 
L 462.477529 163.750111 
L 464.180569 165.638083 
L 467.586649 168.787189 
L 469.289689 170.848794 
L 470.99273 173.985387 
L 474.39881 182.860776 
L 476.10185 187.228215 
L 477.80489 190.49551 
L 479.50793 192.584488 
L 481.21097 193.601589 
L 482.91401 193.726402 
L 484.61705 192.825863 
L 486.32009 190.928029 
L 488.02313 188.134042 
L 491.42921 180.813155 
L 493.13225 178.390028 
L 494.83529 178.898812 
L 496.538331 182.892762 
L 498.241371 189.745504 
L 499.944411 197.924839 
L 501.647451 205.017672 
L 503.350491 209.267964 
L 505.053531 210.288343 
L 508.459611 208.130196 
L 510.162651 207.916539 
L 511.865691 208.300223 
L 513.568731 207.365131 
L 515.271771 203.750682 
L 518.677851 191.331952 
L 520.380891 187.979006 
L 522.083932 189.701325 
L 523.786972 195.553337 
L 525.490012 201.953144 
L 527.193052 205.38031 
L 528.896092 204.607042 
L 530.599132 201.70919 
L 532.302172 200.292772 
L 534.005212 202.69042 
L 537.411292 213.426597 
L 539.114332 215.787562 
L 540.817372 213.994508 
L 542.520412 210.249233 
L 544.223452 208.339619 
L 545.926492 210.96178 
L 547.629533 218.282913 
L 549.332573 227.683045 
L 551.035613 235.165506 
L 552.738653 238.380094 
L 554.441693 237.330065 
L 556.144733 234.193942 
L 557.847773 231.728229 
L 559.550813 231.853432 
L 561.253853 234.472818 
L 561.253853 234.472818 
" style="fill: none; stroke: #1f77b4; stroke-width: 1.5; stroke-linecap: square"/>
   </g>
   <g id="line2d_22">
    <path d="M 38.420552 165.779277 
L 40.123593 167.008052 
L 41.826633 173.0879 
L 45.232713 190.11472 
L 46.935753 194.975857 
L 48.638793 195.703948 
L 50.341833 193.665896 
L 52.044873 191.118029 
L 53.747913 190.137901 
L 55.450953 191.387957 
L 57.153993 194.512823 
L 58.857033 198.143478 
L 60.560073 200.660874 
L 62.263113 200.979645 
L 63.966154 199.34562 
L 65.669194 196.715908 
L 67.372234 194.584586 
L 69.075274 194.367606 
L 70.778314 196.399212 
L 74.184394 203.708193 
L 75.887434 206.449944 
L 77.590474 207.733549 
L 80.996554 208.244157 
L 82.699594 209.775937 
L 86.105674 215.529892 
L 87.808714 217.404213 
L 89.511755 217.555201 
L 91.214795 215.9824 
L 92.917835 214.257828 
L 94.620875 213.663994 
L 96.323915 214.41409 
L 99.729995 218.580728 
L 101.433035 219.798256 
L 103.136075 220.141968 
L 104.839115 220.245233 
L 106.542155 221.018758 
L 108.245195 222.406887 
L 109.948235 223.558462 
L 111.651275 223.527535 
L 115.057356 221.352601 
L 116.760396 221.477899 
L 118.463436 223.864511 
L 120.166476 228.56607 
L 121.869516 234.524279 
L 123.572556 239.702271 
L 125.275596 242.290282 
L 126.978636 241.824275 
L 128.681676 239.168736 
L 130.384716 236.138306 
L 132.087756 234.285999 
L 133.790796 234.741172 
L 135.493836 236.897003 
L 137.196876 239.308096 
L 138.899916 240.557033 
L 140.602957 240.1993 
L 142.305997 239.057898 
L 144.009037 238.638072 
L 145.712077 240.030271 
L 147.415117 243.286574 
L 149.118157 247.214777 
L 150.821197 249.931182 
L 152.524237 250.400669 
L 154.227277 248.645208 
L 155.930317 245.977346 
L 157.633357 243.937097 
L 159.336397 242.70955 
L 161.039437 240.793447 
L 162.742477 235.374704 
L 164.445517 224.529386 
L 166.148558 208.395603 
L 169.554638 168.785214 
L 171.257678 149.387404 
L 172.960718 131.910779 
L 174.663758 116.242154 
L 176.366798 101.736777 
L 178.069838 88.444928 
L 179.772878 77.159662 
L 181.475918 69.106091 
L 183.178958 65.230438 
L 184.881998 66.093222 
L 186.585038 72.394379 
L 188.288078 84.099234 
L 189.991118 99.461752 
L 191.694159 115.988585 
L 193.397199 131.290815 
L 195.100239 142.979422 
L 196.803279 150.604011 
L 198.506319 154.582656 
L 200.209359 156.074379 
L 201.912399 156.826773 
L 203.615439 158.555637 
L 205.318479 160.953947 
L 207.021519 163.050598 
L 208.724559 162.881015 
L 210.427599 159.334386 
L 212.130639 152.239432 
L 217.23976 124.241634 
L 218.9428 117.785961 
L 220.64584 114.029393 
L 222.34888 112.555851 
L 225.75496 112.416084 
L 227.458 111.492404 
L 229.16104 109.478462 
L 230.86408 107.062795 
L 232.56712 105.288298 
L 234.27016 105.236 
L 235.9732 107.379363 
L 237.67624 111.107374 
L 239.37928 115.166266 
L 241.08232 118.052492 
L 244.488401 121.029779 
L 246.191441 124.027881 
L 247.894481 129.170136 
L 249.597521 135.232738 
L 251.300561 139.938265 
L 253.003601 141.285696 
L 254.706641 138.959697 
L 256.409681 134.61158 
L 258.112721 131.070768 
L 259.815761 130.019487 
L 261.518801 130.865079 
L 263.221841 131.133298 
L 264.924881 128.412953 
L 266.627921 122.548101 
L 268.330962 116.190078 
L 270.034002 113.219407 
L 271.737042 116.032016 
L 273.440082 123.420794 
L 275.143122 131.458508 
L 276.846162 136.03881 
L 278.549202 135.397925 
L 281.955282 126.546824 
L 283.658322 125.682603 
L 285.361362 129.05604 
L 287.064402 134.554472 
L 288.767442 138.605343 
L 290.470482 138.62441 
L 292.173522 134.491708 
L 293.876563 128.471162 
L 295.579603 123.382775 
L 297.282643 121.048247 
L 298.985683 121.477501 
L 300.688723 123.597993 
L 302.391763 125.985112 
L 304.094803 127.909936 
L 305.797843 129.114116 
L 307.500883 129.602167 
L 309.203923 129.338764 
L 310.906963 128.484381 
L 312.610003 127.958027 
L 314.313043 129.258225 
L 316.016083 133.719423 
L 317.719123 141.012288 
L 319.422164 148.862645 
L 321.125204 153.734479 
L 322.828244 152.947899 
L 324.531284 146.391415 
L 326.234324 137.013346 
L 327.937364 129.381915 
L 329.640404 126.924358 
L 331.343444 129.975187 
L 333.046484 135.671167 
L 334.749524 139.640775 
L 336.452564 138.9219 
L 338.155604 133.916017 
L 339.858644 127.949931 
L 341.561684 124.722241 
L 343.264724 126.092626 
L 344.967765 131.125625 
L 346.670805 136.654568 
L 348.373845 139.584079 
L 350.076885 138.542059 
L 353.482965 130.867291 
L 355.186005 128.645972 
L 356.889045 129.046018 
L 358.592085 131.394315 
L 360.295125 134.271006 
L 361.998165 136.682586 
L 363.701205 138.433943 
L 365.404245 139.720892 
L 367.107285 140.767833 
L 368.810326 141.365018 
L 370.513366 141.0859 
L 372.216406 139.412568 
L 373.919446 136.867896 
L 375.622486 134.660141 
L 377.325526 133.598184 
L 379.028566 133.728677 
L 380.731606 134.320829 
L 382.434646 133.994985 
L 384.137686 131.973604 
L 387.543766 124.971678 
L 389.246806 122.559654 
L 390.949846 122.275698 
L 392.652886 123.940318 
L 394.355927 126.184969 
L 396.058967 127.596501 
L 397.762007 127.485368 
L 399.465047 126.013702 
L 401.168087 124.26956 
L 402.871127 123.426081 
L 404.574167 123.932309 
L 406.277207 125.715437 
L 407.980247 128.26317 
L 411.386327 133.636232 
L 413.089367 136.206061 
L 416.495447 141.864972 
L 418.198487 144.126428 
L 419.901528 145.364172 
L 421.604568 145.567104 
L 423.307608 145.116743 
L 425.010648 144.535582 
L 426.713688 144.252661 
L 428.416728 144.751533 
L 430.119768 146.191404 
L 431.822808 148.21816 
L 436.931928 155.830477 
L 438.634968 157.631711 
L 440.338008 158.665717 
L 442.041048 159.048618 
L 443.744088 159.185506 
L 445.447129 159.742991 
L 447.150169 161.314644 
L 448.853209 164.17183 
L 450.556249 167.755067 
L 452.259289 170.963214 
L 453.962329 172.473113 
L 455.665369 171.771621 
L 459.071449 167.186293 
L 460.774489 166.506378 
L 462.477529 168.801215 
L 464.180569 173.976045 
L 467.586649 186.740875 
L 469.289689 190.906981 
L 470.99273 192.667078 
L 474.39881 193.246383 
L 476.10185 194.397346 
L 477.80489 196.630775 
L 479.50793 199.287359 
L 481.21097 201.246402 
L 482.91401 201.80384 
L 484.61705 201.37438 
L 486.32009 201.110662 
L 488.02313 202.417722 
L 489.72617 205.721365 
L 491.42921 210.287519 
L 493.13225 214.302847 
L 494.83529 216.024365 
L 496.538331 214.81856 
L 499.944411 208.110092 
L 501.647451 206.276153 
L 503.350491 206.544764 
L 506.756571 209.543002 
L 508.459611 210.039925 
L 511.865691 209.335448 
L 513.568731 210.040418 
L 515.271771 212.057817 
L 516.974811 214.475011 
L 518.677851 216.232484 
L 520.380891 216.948081 
L 522.083932 216.989262 
L 523.786972 216.697461 
L 525.490012 216.03199 
L 527.193052 214.29935 
L 528.896092 211.013997 
L 530.599132 206.78926 
L 532.302172 203.593274 
L 534.005212 203.829051 
L 535.708252 208.760357 
L 539.114332 226.008627 
L 540.817372 231.668632 
L 542.520412 232.207177 
L 544.223452 228.691352 
L 545.926492 224.562153 
L 547.629533 223.405784 
L 549.332573 226.714859 
L 551.035613 233.63167 
L 552.738653 241.214587 
L 554.441693 246.50338 
L 556.144733 248.214826 
L 557.847773 246.980251 
L 561.253853 242.209387 
L 561.253853 242.209387 
" style="fill: none; stroke: #ff7f0e; stroke-width: 1.5; stroke-linecap: square"/>
   </g>
  </g>
  <g id="axes_2">
   <g id="PathCollection_1">
    <defs>
     <path id="C0_0_963d032b18" d="M 0 1.118034 
C 0.296506 1.118034 0.580908 1.000231 0.790569 0.790569 
C 1.000231 0.580908 1.118034 0.296506 1.118034 -0 
C 1.118034 -0.296506 1.000231 -0.580908 0.790569 -0.790569 
C 0.580908 -1.000231 0.296506 -1.118034 0 -1.118034 
C -0.296506 -1.118034 -0.580908 -1.000231 -0.790569 -0.790569 
C -1.000231 -0.580908 -1.118034 -0.296506 -1.118034 0 
C -1.118034 0.296506 -1.000231 0.580908 -0.790569 0.790569 
C -0.580908 1.000231 -0.296506 1.118034 0 1.118034 
z
"/>
    </defs>
    <g clip-path="url(#p8f16b465e8)">
     <use xlink:href="#C0_0_963d032b18" x="509.08702" y="76.414332" style="stroke: #000000"/>
    </g>
    <g clip-path="url(#p8f16b465e8)">
     <use xlink:href="#C0_0_963d032b18" x="527.444646" y="76.964593" style="stroke: #000000"/>
    </g>
    <g clip-path="url(#p8f16b465e8)">
     <use xlink:href="#C0_0_963d032b18" x="491.303194" y="76.941291" style="stroke: #000000"/>
    </g>
    <g clip-path="url(#p8f16b465e8)">
     <use xlink:href="#C0_0_963d032b18" x="494.011369" y="86.069929" style="stroke: #000000"/>
    </g>
    <g clip-path="url(#p8f16b465e8)">
     <use xlink:href="#C0_0_963d032b18" x="524.543497" y="86.079903" style="stroke: #000000"/>
    </g>
    <g clip-path="url(#p8f16b465e8)">
     <use xlink:href="#C0_0_963d032b18" x="509.029741" y="85.802272" style="stroke: #000000"/>
    </g>
   </g>
   <g id="matplotlib.axis_3"/>
   <g id="matplotlib.axis_4"/>
   <g id="line2d_23">
    <path d="M 548.859194 73.63672 
L 548.781507 71.164689 
L 548.548754 68.702415 
L 548.161852 66.259613 
L 547.622329 63.845926 
L 546.932314 61.470879 
L 546.09453 59.143845 
L 545.112284 56.874007 
L 543.989451 54.670325 
L 542.730464 52.541494 
L 541.340291 50.495916 
L 539.824418 48.541664 
L 538.188828 46.686451 
L 536.439975 44.937599 
L 534.584762 43.302008 
L 532.630511 41.786136 
L 530.584933 40.395962 
L 528.456102 39.136975 
L 526.252419 38.014143 
L 523.982582 37.031896 
L 521.655547 36.194112 
L 519.2805 35.504097 
L 516.866813 34.964574 
L 514.424012 34.577673 
L 511.961737 34.344919 
L 509.489707 34.267233 
L 507.017676 34.344919 
L 504.555402 34.577673 
L 502.1126 34.964574 
L 499.698913 35.504097 
L 497.323866 36.194112 
L 494.996832 37.031896 
L 492.726994 38.014143 
L 490.523312 39.136975 
L 488.394481 40.395962 
L 486.348903 41.786136 
L 484.394651 43.302008 
L 482.539438 44.937599 
L 480.790586 46.686451 
L 479.154995 48.541664 
L 477.639123 50.495916 
L 476.248949 52.541494 
L 474.989962 54.670325 
L 473.86713 56.874007 
L 472.884883 59.143845 
L 472.047099 61.470879 
L 471.357084 63.845926 
L 470.817561 66.259613 
L 470.43066 68.702415 
L 470.197906 71.164689 
L 470.12022 73.63672 
L 470.197906 76.10875 
L 470.43066 78.571025 
L 470.817561 81.013826 
L 471.357084 83.427513 
L 472.047099 85.80256 
L 472.884883 88.129595 
L 473.86713 90.399432 
L 474.989962 92.603115 
L 476.248949 94.731946 
L 477.639123 96.777524 
L 479.154995 98.731775 
L 480.790586 100.586988 
L 482.539438 102.335841 
L 484.394651 103.971431 
L 486.348903 105.487304 
L 488.394481 106.877477 
L 490.523312 108.136464 
L 492.726994 109.259297 
L 494.996832 110.241543 
L 497.323866 111.079327 
L 499.698913 111.769342 
L 502.1126 112.308865 
L 504.555402 112.695767 
L 507.017676 112.92852 
L 509.489707 113.006207 
L 511.961737 112.92852 
L 514.424012 112.695767 
L 516.866813 112.308865 
L 519.2805 111.769342 
L 521.655547 111.079327 
L 523.982582 110.241543 
L 526.252419 109.259297 
L 528.456102 108.136464 
L 530.584933 106.877477 
L 532.630511 105.487304 
L 534.584762 103.971431 
L 536.439975 102.335841 
L 538.188828 100.586988 
L 539.824418 98.731775 
L 541.340291 96.777524 
L 542.730464 94.731946 
L 543.989451 92.603115 
L 545.112284 90.399432 
L 546.09453 88.129595 
L 546.932314 85.80256 
L 547.622329 83.427513 
L 548.161852 81.013826 
L 548.548754 78.571025 
L 548.781507 76.10875 
L 548.859194 73.63672 
" style="fill: none; stroke: #000000; stroke-linecap: square"/>
   </g>
   <g id="line2d_24">
    <path d="M 501.244181 35.140385 
L 509.489707 28.361809 
L 517.735233 35.140385 
" style="fill: none; stroke: #000000; stroke-linecap: square"/>
   </g>
   <g id="line2d_25">
    <path d="M 470.356436 69.266707 
L 469.33283 67.534449 
L 468.702918 67.471458 
L 467.765924 67.762792 
L 466.821057 69.266707 
L 466.970661 74.069784 
L 466.419488 80.975192 
L 467.600572 83.975147 
L 469.33283 84.534194 
L 470.986348 83.077523 
" style="fill: none; stroke: #000000; stroke-linecap: square"/>
   </g>
   <g id="line2d_26">
    <path d="M 548.622977 69.266707 
L 549.646584 67.534449 
L 550.276495 67.471458 
L 551.213489 67.762792 
L 552.158357 69.266707 
L 552.008753 74.069784 
L 552.559926 80.975192 
L 551.378841 83.975147 
L 549.646584 84.534194 
L 547.993065 83.077523 
" style="fill: none; stroke: #000000; stroke-linecap: square"/>
   </g>
  </g>
 </g>
 <defs>
  <clipPath id="p196e34b7fd">
   <rect x="38.420552" y="18.118365" width="523.446395" height="380.525145"/>
  </clipPath>
  <clipPath id="p8f16b465e8">
   <rect x="462.112466" y="24.12959" width="94.754482" height="93.108837"/>
  </clipPath>
 </defs>
</svg>
