<?xml version="1.0" encoding="utf-8" standalone="no"?>
<!DOCTYPE svg PUBLIC "-//W3C//DTD SVG 1.1//EN"
  "http://www.w3.org/Graphics/SVG/1.1/DTD/svg11.dtd">
<svg xmlns:xlink="http://www.w3.org/1999/xlink" width="576pt" height="432pt" viewBox="0 0 576 432" xmlns="http://www.w3.org/2000/svg" version="1.1">
 <metadata>
  <rdf:RDF xmlns:dc="http://purl.org/dc/elements/1.1/" xmlns:cc="http://creativecommons.org/ns#" xmlns:rdf="http://www.w3.org/1999/02/22-rdf-syntax-ns#">
   <cc:Work>
    <dc:type rdf:resource="http://purl.org/dc/dcmitype/StillImage"/>
    <dc:date>2025-02-17T18:06:49.981055</dc:date>
    <dc:format>image/svg+xml</dc:format>
    <dc:creator>
     <cc:Agent>
      <dc:title>Matplotlib v3.10.0, https://matplotlib.org/</dc:title>
     </cc:Agent>
    </dc:creator>
   </cc:Work>
  </rdf:RDF>
 </metadata>
 <defs>
  <style type="text/css">*{stroke-linejoin: round; stroke-linecap: butt}</style>
 </defs>
 <g id="figure_1">
  <g id="patch_1">
   <path d="M 0 432 
L 576 432 
L 576 0 
L 0 0 
z
" style="fill: #ffffff"/>
  </g>
  <g id="axes_1">
   <g id="patch_2">
    <path d="M 54.323678 398.64351 
L 561.866948 398.64351 
L 561.866948 18.118365 
L 54.323678 18.118365 
L 54.323678 398.64351 
z
" style="fill: none; opacity: 0"/>
   </g>
   <g id="patch_3">
    <path d="M 54.323678 387.965002 
L 54.323678 28.796873 
" style="fill: none; stroke: #000000; stroke-width: 0.8; stroke-linejoin: miter; stroke-linecap: square"/>
   </g>
   <g id="LineCollection_1">
    <path d="M 168.725674 18.118365 
L 168.725674 398.64351 
" clip-path="url(#pcf47bd127b)" style="fill: none; stroke-dasharray: 3.7,1.6; stroke-dashoffset: 0; stroke: #000000"/>
    <path d="M 194.089627 18.118365 
L 194.089627 398.64351 
" clip-path="url(#pcf47bd127b)" style="fill: none; stroke-dasharray: 3.7,1.6; stroke-dashoffset: 0; stroke: #000000"/>
   </g>
   <g id="matplotlib.axis_1">
    <g id="xtick_1">
     <g id="line2d_1">
      <defs>
       <path id="m54b379057e" d="M 0 0 
L 0 3.5 
" style="stroke: #000000; stroke-width: 0.8"/>
      </defs>
      <g>
       <use xlink:href="#m54b379057e" x="54.587885" y="398.64351" style="stroke: #000000; stroke-width: 0.8"/>
      </g>
     </g>
     <g id="text_1">
      <!-- −0.20 -->
      <g transform="translate(39.265229 413.241947) scale(0.1 -0.1)">
       <defs>
        <path id="DejaVuSans-2212" d="M 678 2272 
L 4684 2272 
L 4684 1741 
L 678 1741 
L 678 2272 
z
" transform="scale(0.015625)"/>
        <path id="DejaVuSans-30" d="M 2034 4250 
Q 1547 4250 1301 3770 
Q 1056 3291 1056 2328 
Q 1056 1369 1301 889 
Q 1547 409 2034 409 
Q 2525 409 2770 889 
Q 3016 1369 3016 2328 
Q 3016 3291 2770 3770 
Q 2525 4250 2034 4250 
z
M 2034 4750 
Q 2819 4750 3233 4129 
Q 3647 3509 3647 2328 
Q 3647 1150 3233 529 
Q 2819 -91 2034 -91 
Q 1250 -91 836 529 
Q 422 1150 422 2328 
Q 422 3509 836 4129 
Q 1250 4750 2034 4750 
z
" transform="scale(0.015625)"/>
        <path id="DejaVuSans-2e" d="M 684 794 
L 1344 794 
L 1344 0 
L 684 0 
L 684 794 
z
" transform="scale(0.015625)"/>
        <path id="DejaVuSans-32" d="M 1228 531 
L 3431 531 
L 3431 0 
L 469 0 
L 469 531 
Q 828 903 1448 1529 
Q 2069 2156 2228 2338 
Q 2531 2678 2651 2914 
Q 2772 3150 2772 3378 
Q 2772 3750 2511 3984 
Q 2250 4219 1831 4219 
Q 1534 4219 1204 4116 
Q 875 4013 500 3803 
L 500 4441 
Q 881 4594 1212 4672 
Q 1544 4750 1819 4750 
Q 2544 4750 2975 4387 
Q 3406 4025 3406 3419 
Q 3406 3131 3298 2873 
Q 3191 2616 2906 2266 
Q 2828 2175 2409 1742 
Q 1991 1309 1228 531 
z
" transform="scale(0.015625)"/>
       </defs>
       <use xlink:href="#DejaVuSans-2212"/>
       <use xlink:href="#DejaVuSans-30" transform="translate(83.789062 0)"/>
       <use xlink:href="#DejaVuSans-2e" transform="translate(147.412109 0)"/>
       <use xlink:href="#DejaVuSans-32" transform="translate(179.199219 0)"/>
       <use xlink:href="#DejaVuSans-30" transform="translate(242.822266 0)"/>
      </g>
     </g>
    </g>
    <g id="xtick_2">
     <g id="line2d_2">
      <g>
       <use xlink:href="#m54b379057e" x="139.134396" y="398.64351" style="stroke: #000000; stroke-width: 0.8"/>
      </g>
     </g>
     <g id="text_2">
      <!-- 0.00 -->
      <g transform="translate(128.001583 413.241947) scale(0.1 -0.1)">
       <use xlink:href="#DejaVuSans-30"/>
       <use xlink:href="#DejaVuSans-2e" transform="translate(63.623047 0)"/>
       <use xlink:href="#DejaVuSans-30" transform="translate(95.410156 0)"/>
       <use xlink:href="#DejaVuSans-30" transform="translate(159.033203 0)"/>
      </g>
     </g>
    </g>
    <g id="xtick_3">
     <g id="line2d_3">
      <g>
       <use xlink:href="#m54b379057e" x="168.725674" y="398.64351" style="stroke: #000000; stroke-width: 0.8"/>
      </g>
     </g>
     <g id="text_3">
      <!-- 0.07 -->
      <g transform="translate(157.592862 413.241947) scale(0.1 -0.1)">
       <defs>
        <path id="DejaVuSans-37" d="M 525 4666 
L 3525 4666 
L 3525 4397 
L 1831 0 
L 1172 0 
L 2766 4134 
L 525 4134 
L 525 4666 
z
" transform="scale(0.015625)"/>
       </defs>
       <use xlink:href="#DejaVuSans-30"/>
       <use xlink:href="#DejaVuSans-2e" transform="translate(63.623047 0)"/>
       <use xlink:href="#DejaVuSans-30" transform="translate(95.410156 0)"/>
       <use xlink:href="#DejaVuSans-37" transform="translate(159.033203 0)"/>
      </g>
     </g>
    </g>
    <g id="xtick_4">
     <g id="line2d_4">
      <g>
       <use xlink:href="#m54b379057e" x="194.089627" y="398.64351" style="stroke: #000000; stroke-width: 0.8"/>
      </g>
     </g>
     <g id="text_4">
      <!-- 0.13 -->
      <g transform="translate(182.956815 413.241947) scale(0.1 -0.1)">
       <defs>
        <path id="DejaVuSans-31" d="M 794 531 
L 1825 531 
L 1825 4091 
L 703 3866 
L 703 4441 
L 1819 4666 
L 2450 4666 
L 2450 531 
L 3481 531 
L 3481 0 
L 794 0 
L 794 531 
z
" transform="scale(0.015625)"/>
        <path id="DejaVuSans-33" d="M 2597 2516 
Q 3050 2419 3304 2112 
Q 3559 1806 3559 1356 
Q 3559 666 3084 287 
Q 2609 -91 1734 -91 
Q 1441 -91 1130 -33 
Q 819 25 488 141 
L 488 750 
Q 750 597 1062 519 
Q 1375 441 1716 441 
Q 2309 441 2620 675 
Q 2931 909 2931 1356 
Q 2931 1769 2642 2001 
Q 2353 2234 1838 2234 
L 1294 2234 
L 1294 2753 
L 1863 2753 
Q 2328 2753 2575 2939 
Q 2822 3125 2822 3475 
Q 2822 3834 2567 4026 
Q 2313 4219 1838 4219 
Q 1578 4219 1281 4162 
Q 984 4106 628 3988 
L 628 4550 
Q 988 4650 1302 4700 
Q 1616 4750 1894 4750 
Q 2613 4750 3031 4423 
Q 3450 4097 3450 3541 
Q 3450 3153 3228 2886 
Q 3006 2619 2597 2516 
z
" transform="scale(0.015625)"/>
       </defs>
       <use xlink:href="#DejaVuSans-30"/>
       <use xlink:href="#DejaVuSans-2e" transform="translate(63.623047 0)"/>
       <use xlink:href="#DejaVuSans-31" transform="translate(95.410156 0)"/>
       <use xlink:href="#DejaVuSans-33" transform="translate(159.033203 0)"/>
      </g>
     </g>
    </g>
    <g id="xtick_5">
     <g id="line2d_5">
      <g>
       <use xlink:href="#m54b379057e" x="223.680906" y="398.64351" style="stroke: #000000; stroke-width: 0.8"/>
      </g>
     </g>
     <g id="text_5">
      <!-- 0.20 -->
      <g transform="translate(212.548094 413.241947) scale(0.1 -0.1)">
       <use xlink:href="#DejaVuSans-30"/>
       <use xlink:href="#DejaVuSans-2e" transform="translate(63.623047 0)"/>
       <use xlink:href="#DejaVuSans-32" transform="translate(95.410156 0)"/>
       <use xlink:href="#DejaVuSans-30" transform="translate(159.033203 0)"/>
      </g>
     </g>
    </g>
    <g id="xtick_6">
     <g id="line2d_6">
      <g>
       <use xlink:href="#m54b379057e" x="308.227416" y="398.64351" style="stroke: #000000; stroke-width: 0.8"/>
      </g>
     </g>
     <g id="text_6">
      <!-- 0.40 -->
      <g transform="translate(297.094604 413.241947) scale(0.1 -0.1)">
       <defs>
        <path id="DejaVuSans-34" d="M 2419 4116 
L 825 1625 
L 2419 1625 
L 2419 4116 
z
M 2253 4666 
L 3047 4666 
L 3047 1625 
L 3713 1625 
L 3713 1100 
L 3047 1100 
L 3047 0 
L 2419 0 
L 2419 1100 
L 313 1100 
L 313 1709 
L 2253 4666 
z
" transform="scale(0.015625)"/>
       </defs>
       <use xlink:href="#DejaVuSans-30"/>
       <use xlink:href="#DejaVuSans-2e" transform="translate(63.623047 0)"/>
       <use xlink:href="#DejaVuSans-34" transform="translate(95.410156 0)"/>
       <use xlink:href="#DejaVuSans-30" transform="translate(159.033203 0)"/>
      </g>
     </g>
    </g>
    <g id="xtick_7">
     <g id="line2d_7">
      <g>
       <use xlink:href="#m54b379057e" x="392.773927" y="398.64351" style="stroke: #000000; stroke-width: 0.8"/>
      </g>
     </g>
     <g id="text_7">
      <!-- 0.60 -->
      <g transform="translate(381.641114 413.241947) scale(0.1 -0.1)">
       <defs>
        <path id="DejaVuSans-36" d="M 2113 2584 
Q 1688 2584 1439 2293 
Q 1191 2003 1191 1497 
Q 1191 994 1439 701 
Q 1688 409 2113 409 
Q 2538 409 2786 701 
Q 3034 994 3034 1497 
Q 3034 2003 2786 2293 
Q 2538 2584 2113 2584 
z
M 3366 4563 
L 3366 3988 
Q 3128 4100 2886 4159 
Q 2644 4219 2406 4219 
Q 1781 4219 1451 3797 
Q 1122 3375 1075 2522 
Q 1259 2794 1537 2939 
Q 1816 3084 2150 3084 
Q 2853 3084 3261 2657 
Q 3669 2231 3669 1497 
Q 3669 778 3244 343 
Q 2819 -91 2113 -91 
Q 1303 -91 875 529 
Q 447 1150 447 2328 
Q 447 3434 972 4092 
Q 1497 4750 2381 4750 
Q 2619 4750 2861 4703 
Q 3103 4656 3366 4563 
z
" transform="scale(0.015625)"/>
       </defs>
       <use xlink:href="#DejaVuSans-30"/>
       <use xlink:href="#DejaVuSans-2e" transform="translate(63.623047 0)"/>
       <use xlink:href="#DejaVuSans-36" transform="translate(95.410156 0)"/>
       <use xlink:href="#DejaVuSans-30" transform="translate(159.033203 0)"/>
      </g>
     </g>
    </g>
    <g id="xtick_8">
     <g id="line2d_8">
      <g>
       <use xlink:href="#m54b379057e" x="477.320437" y="398.64351" style="stroke: #000000; stroke-width: 0.8"/>
      </g>
     </g>
     <g id="text_8">
      <!-- 0.80 -->
      <g transform="translate(466.187625 413.241947) scale(0.1 -0.1)">
       <defs>
        <path id="DejaVuSans-38" d="M 2034 2216 
Q 1584 2216 1326 1975 
Q 1069 1734 1069 1313 
Q 1069 891 1326 650 
Q 1584 409 2034 409 
Q 2484 409 2743 651 
Q 3003 894 3003 1313 
Q 3003 1734 2745 1975 
Q 2488 2216 2034 2216 
z
M 1403 2484 
Q 997 2584 770 2862 
Q 544 3141 544 3541 
Q 544 4100 942 4425 
Q 1341 4750 2034 4750 
Q 2731 4750 3128 4425 
Q 3525 4100 3525 3541 
Q 3525 3141 3298 2862 
Q 3072 2584 2669 2484 
Q 3125 2378 3379 2068 
Q 3634 1759 3634 1313 
Q 3634 634 3220 271 
Q 2806 -91 2034 -91 
Q 1263 -91 848 271 
Q 434 634 434 1313 
Q 434 1759 690 2068 
Q 947 2378 1403 2484 
z
M 1172 3481 
Q 1172 3119 1398 2916 
Q 1625 2713 2034 2713 
Q 2441 2713 2670 2916 
Q 2900 3119 2900 3481 
Q 2900 3844 2670 4047 
Q 2441 4250 2034 4250 
Q 1625 4250 1398 4047 
Q 1172 3844 1172 3481 
z
" transform="scale(0.015625)"/>
       </defs>
       <use xlink:href="#DejaVuSans-30"/>
       <use xlink:href="#DejaVuSans-2e" transform="translate(63.623047 0)"/>
       <use xlink:href="#DejaVuSans-38" transform="translate(95.410156 0)"/>
       <use xlink:href="#DejaVuSans-30" transform="translate(159.033203 0)"/>
      </g>
     </g>
    </g>
    <g id="xtick_9">
     <g id="line2d_9">
      <g>
       <use xlink:href="#m54b379057e" x="561.866948" y="398.64351" style="stroke: #000000; stroke-width: 0.8"/>
      </g>
     </g>
     <g id="text_9">
      <!-- 1.00 -->
      <g transform="translate(550.734135 413.241947) scale(0.1 -0.1)">
       <use xlink:href="#DejaVuSans-31"/>
       <use xlink:href="#DejaVuSans-2e" transform="translate(63.623047 0)"/>
       <use xlink:href="#DejaVuSans-30" transform="translate(95.410156 0)"/>
       <use xlink:href="#DejaVuSans-30" transform="translate(159.033203 0)"/>
      </g>
     </g>
    </g>
    <g id="text_10">
     <!-- Time (s) -->
     <g transform="translate(287.766406 426.920073) scale(0.1 -0.1)">
      <defs>
       <path id="DejaVuSans-54" d="M -19 4666 
L 3928 4666 
L 3928 4134 
L 2272 4134 
L 2272 0 
L 1638 0 
L 1638 4134 
L -19 4134 
L -19 4666 
z
" transform="scale(0.015625)"/>
       <path id="DejaVuSans-69" d="M 603 3500 
L 1178 3500 
L 1178 0 
L 603 0 
L 603 3500 
z
M 603 4863 
L 1178 4863 
L 1178 4134 
L 603 4134 
L 603 4863 
z
" transform="scale(0.015625)"/>
       <path id="DejaVuSans-6d" d="M 3328 2828 
Q 3544 3216 3844 3400 
Q 4144 3584 4550 3584 
Q 5097 3584 5394 3201 
Q 5691 2819 5691 2113 
L 5691 0 
L 5113 0 
L 5113 2094 
Q 5113 2597 4934 2840 
Q 4756 3084 4391 3084 
Q 3944 3084 3684 2787 
Q 3425 2491 3425 1978 
L 3425 0 
L 2847 0 
L 2847 2094 
Q 2847 2600 2669 2842 
Q 2491 3084 2119 3084 
Q 1678 3084 1418 2786 
Q 1159 2488 1159 1978 
L 1159 0 
L 581 0 
L 581 3500 
L 1159 3500 
L 1159 2956 
Q 1356 3278 1631 3431 
Q 1906 3584 2284 3584 
Q 2666 3584 2933 3390 
Q 3200 3197 3328 2828 
z
" transform="scale(0.015625)"/>
       <path id="DejaVuSans-65" d="M 3597 1894 
L 3597 1613 
L 953 1613 
Q 991 1019 1311 708 
Q 1631 397 2203 397 
Q 2534 397 2845 478 
Q 3156 559 3463 722 
L 3463 178 
Q 3153 47 2828 -22 
Q 2503 -91 2169 -91 
Q 1331 -91 842 396 
Q 353 884 353 1716 
Q 353 2575 817 3079 
Q 1281 3584 2069 3584 
Q 2775 3584 3186 3129 
Q 3597 2675 3597 1894 
z
M 3022 2063 
Q 3016 2534 2758 2815 
Q 2500 3097 2075 3097 
Q 1594 3097 1305 2825 
Q 1016 2553 972 2059 
L 3022 2063 
z
" transform="scale(0.015625)"/>
       <path id="DejaVuSans-20" transform="scale(0.015625)"/>
       <path id="DejaVuSans-28" d="M 1984 4856 
Q 1566 4138 1362 3434 
Q 1159 2731 1159 2009 
Q 1159 1288 1364 580 
Q 1569 -128 1984 -844 
L 1484 -844 
Q 1016 -109 783 600 
Q 550 1309 550 2009 
Q 550 2706 781 3412 
Q 1013 4119 1484 4856 
L 1984 4856 
z
" transform="scale(0.015625)"/>
       <path id="DejaVuSans-73" d="M 2834 3397 
L 2834 2853 
Q 2591 2978 2328 3040 
Q 2066 3103 1784 3103 
Q 1356 3103 1142 2972 
Q 928 2841 928 2578 
Q 928 2378 1081 2264 
Q 1234 2150 1697 2047 
L 1894 2003 
Q 2506 1872 2764 1633 
Q 3022 1394 3022 966 
Q 3022 478 2636 193 
Q 2250 -91 1575 -91 
Q 1294 -91 989 -36 
Q 684 19 347 128 
L 347 722 
Q 666 556 975 473 
Q 1284 391 1588 391 
Q 1994 391 2212 530 
Q 2431 669 2431 922 
Q 2431 1156 2273 1281 
Q 2116 1406 1581 1522 
L 1381 1569 
Q 847 1681 609 1914 
Q 372 2147 372 2553 
Q 372 3047 722 3315 
Q 1072 3584 1716 3584 
Q 2034 3584 2315 3537 
Q 2597 3491 2834 3397 
z
" transform="scale(0.015625)"/>
       <path id="DejaVuSans-29" d="M 513 4856 
L 1013 4856 
Q 1481 4119 1714 3412 
Q 1947 2706 1947 2009 
Q 1947 1309 1714 600 
Q 1481 -109 1013 -844 
L 513 -844 
Q 928 -128 1133 580 
Q 1338 1288 1338 2009 
Q 1338 2731 1133 3434 
Q 928 4138 513 4856 
z
" transform="scale(0.015625)"/>
      </defs>
      <use xlink:href="#DejaVuSans-54"/>
      <use xlink:href="#DejaVuSans-69" transform="translate(57.958984 0)"/>
      <use xlink:href="#DejaVuSans-6d" transform="translate(85.742188 0)"/>
      <use xlink:href="#DejaVuSans-65" transform="translate(183.154297 0)"/>
      <use xlink:href="#DejaVuSans-20" transform="translate(244.677734 0)"/>
      <use xlink:href="#DejaVuSans-28" transform="translate(276.464844 0)"/>
      <use xlink:href="#DejaVuSans-73" transform="translate(315.478516 0)"/>
      <use xlink:href="#DejaVuSans-29" transform="translate(367.578125 0)"/>
     </g>
    </g>
   </g>
   <g id="matplotlib.axis_2">
    <g id="ytick_1">
     <g id="line2d_10">
      <defs>
       <path id="m436abf8045" d="M 0 0 
L -3.5 0 
" style="stroke: #000000; stroke-width: 0.8"/>
      </defs>
      <g>
       <use xlink:href="#m436abf8045" x="54.323678" y="387.965002" style="stroke: #000000; stroke-width: 0.8"/>
      </g>
     </g>
     <g id="text_11">
      <!-- −10.0 -->
      <g transform="translate(16.678365 391.764221) scale(0.1 -0.1)">
       <use xlink:href="#DejaVuSans-2212"/>
       <use xlink:href="#DejaVuSans-31" transform="translate(83.789062 0)"/>
       <use xlink:href="#DejaVuSans-30" transform="translate(147.412109 0)"/>
       <use xlink:href="#DejaVuSans-2e" transform="translate(211.035156 0)"/>
       <use xlink:href="#DejaVuSans-30" transform="translate(242.822266 0)"/>
      </g>
     </g>
    </g>
    <g id="ytick_2">
     <g id="line2d_11">
      <g>
       <use xlink:href="#m436abf8045" x="54.323678" y="343.068986" style="stroke: #000000; stroke-width: 0.8"/>
      </g>
     </g>
     <g id="text_12">
      <!-- −7.5 -->
      <g transform="translate(23.040865 346.868205) scale(0.1 -0.1)">
       <defs>
        <path id="DejaVuSans-35" d="M 691 4666 
L 3169 4666 
L 3169 4134 
L 1269 4134 
L 1269 2991 
Q 1406 3038 1543 3061 
Q 1681 3084 1819 3084 
Q 2600 3084 3056 2656 
Q 3513 2228 3513 1497 
Q 3513 744 3044 326 
Q 2575 -91 1722 -91 
Q 1428 -91 1123 -41 
Q 819 9 494 109 
L 494 744 
Q 775 591 1075 516 
Q 1375 441 1709 441 
Q 2250 441 2565 725 
Q 2881 1009 2881 1497 
Q 2881 1984 2565 2268 
Q 2250 2553 1709 2553 
Q 1456 2553 1204 2497 
Q 953 2441 691 2322 
L 691 4666 
z
" transform="scale(0.015625)"/>
       </defs>
       <use xlink:href="#DejaVuSans-2212"/>
       <use xlink:href="#DejaVuSans-37" transform="translate(83.789062 0)"/>
       <use xlink:href="#DejaVuSans-2e" transform="translate(147.412109 0)"/>
       <use xlink:href="#DejaVuSans-35" transform="translate(179.199219 0)"/>
      </g>
     </g>
    </g>
    <g id="ytick_3">
     <g id="line2d_12">
      <g>
       <use xlink:href="#m436abf8045" x="54.323678" y="298.17297" style="stroke: #000000; stroke-width: 0.8"/>
      </g>
     </g>
     <g id="text_13">
      <!-- −5.0 -->
      <g transform="translate(23.040865 301.972189) scale(0.1 -0.1)">
       <use xlink:href="#DejaVuSans-2212"/>
       <use xlink:href="#DejaVuSans-35" transform="translate(83.789062 0)"/>
       <use xlink:href="#DejaVuSans-2e" transform="translate(147.412109 0)"/>
       <use xlink:href="#DejaVuSans-30" transform="translate(179.199219 0)"/>
      </g>
     </g>
    </g>
    <g id="ytick_4">
     <g id="line2d_13">
      <g>
       <use xlink:href="#m436abf8045" x="54.323678" y="253.276954" style="stroke: #000000; stroke-width: 0.8"/>
      </g>
     </g>
     <g id="text_14">
      <!-- −2.5 -->
      <g transform="translate(23.040865 257.076172) scale(0.1 -0.1)">
       <use xlink:href="#DejaVuSans-2212"/>
       <use xlink:href="#DejaVuSans-32" transform="translate(83.789062 0)"/>
       <use xlink:href="#DejaVuSans-2e" transform="translate(147.412109 0)"/>
       <use xlink:href="#DejaVuSans-35" transform="translate(179.199219 0)"/>
      </g>
     </g>
    </g>
    <g id="ytick_5">
     <g id="line2d_14">
      <g>
       <use xlink:href="#m436abf8045" x="54.323678" y="208.380937" style="stroke: #000000; stroke-width: 0.8"/>
      </g>
     </g>
     <g id="text_15">
      <!-- 0.0 -->
      <g transform="translate(31.420552 212.180156) scale(0.1 -0.1)">
       <use xlink:href="#DejaVuSans-30"/>
       <use xlink:href="#DejaVuSans-2e" transform="translate(63.623047 0)"/>
       <use xlink:href="#DejaVuSans-30" transform="translate(95.410156 0)"/>
      </g>
     </g>
    </g>
    <g id="ytick_6">
     <g id="line2d_15">
      <g>
       <use xlink:href="#m436abf8045" x="54.323678" y="163.484921" style="stroke: #000000; stroke-width: 0.8"/>
      </g>
     </g>
     <g id="text_16">
      <!-- 2.5 -->
      <g transform="translate(31.420552 167.28414) scale(0.1 -0.1)">
       <use xlink:href="#DejaVuSans-32"/>
       <use xlink:href="#DejaVuSans-2e" transform="translate(63.623047 0)"/>
       <use xlink:href="#DejaVuSans-35" transform="translate(95.410156 0)"/>
      </g>
     </g>
    </g>
    <g id="ytick_7">
     <g id="line2d_16">
      <g>
       <use xlink:href="#m436abf8045" x="54.323678" y="118.588905" style="stroke: #000000; stroke-width: 0.8"/>
      </g>
     </g>
     <g id="text_17">
      <!-- 5.0 -->
      <g transform="translate(31.420552 122.388124) scale(0.1 -0.1)">
       <use xlink:href="#DejaVuSans-35"/>
       <use xlink:href="#DejaVuSans-2e" transform="translate(63.623047 0)"/>
       <use xlink:href="#DejaVuSans-30" transform="translate(95.410156 0)"/>
      </g>
     </g>
    </g>
    <g id="ytick_8">
     <g id="line2d_17">
      <g>
       <use xlink:href="#m436abf8045" x="54.323678" y="73.692889" style="stroke: #000000; stroke-width: 0.8"/>
      </g>
     </g>
     <g id="text_18">
      <!-- 7.5 -->
      <g transform="translate(31.420552 77.492108) scale(0.1 -0.1)">
       <use xlink:href="#DejaVuSans-37"/>
       <use xlink:href="#DejaVuSans-2e" transform="translate(63.623047 0)"/>
       <use xlink:href="#DejaVuSans-35" transform="translate(95.410156 0)"/>
      </g>
     </g>
    </g>
    <g id="ytick_9">
     <g id="line2d_18">
      <g>
       <use xlink:href="#m436abf8045" x="54.323678" y="28.796873" style="stroke: #000000; stroke-width: 0.8"/>
      </g>
     </g>
     <g id="text_19">
      <!-- 10.0 -->
      <g transform="translate(25.058053 32.596091) scale(0.1 -0.1)">
       <use xlink:href="#DejaVuSans-31"/>
       <use xlink:href="#DejaVuSans-30" transform="translate(63.623047 0)"/>
       <use xlink:href="#DejaVuSans-2e" transform="translate(127.246094 0)"/>
       <use xlink:href="#DejaVuSans-30" transform="translate(159.033203 0)"/>
      </g>
     </g>
    </g>
    <g id="text_20">
     <!-- µV -->
     <g transform="translate(10.598677 214.9825) rotate(-90) scale(0.1 -0.1)">
      <defs>
       <path id="DejaVuSans-b5" d="M 544 -1331 
L 544 3500 
L 1119 3500 
L 1119 1325 
Q 1119 872 1334 640 
Q 1550 409 1972 409 
Q 2434 409 2667 671 
Q 2900 934 2900 1459 
L 2900 3500 
L 3475 3500 
L 3475 806 
Q 3475 619 3529 530 
Q 3584 441 3700 441 
Q 3728 441 3778 458 
Q 3828 475 3916 513 
L 3916 50 
Q 3788 -22 3673 -56 
Q 3559 -91 3450 -91 
Q 3234 -91 3106 31 
Q 2978 153 2931 403 
Q 2775 156 2548 32 
Q 2322 -91 2016 -91 
Q 1697 -91 1473 31 
Q 1250 153 1119 397 
L 1119 -1331 
L 544 -1331 
z
" transform="scale(0.015625)"/>
       <path id="DejaVuSans-56" d="M 1831 0 
L 50 4666 
L 709 4666 
L 2188 738 
L 3669 4666 
L 4325 4666 
L 2547 0 
L 1831 0 
z
" transform="scale(0.015625)"/>
      </defs>
      <use xlink:href="#DejaVuSans-b5"/>
      <use xlink:href="#DejaVuSans-56" transform="translate(63.623047 0)"/>
     </g>
    </g>
   </g>
   <g id="patch_4">
    <path d="M 54.587885 398.64351 
L 561.866948 398.64351 
" style="fill: none; stroke: #000000; stroke-width: 0.8; stroke-linejoin: miter; stroke-linecap: square"/>
   </g>
   <g id="patch_5">
    <path d="M 54.323677 208.380937 
L 561.866948 208.380937 
" style="fill: none; stroke: #000000; stroke-width: 0.8; stroke-linejoin: miter; stroke-linecap: square"/>
   </g>
   <g id="text_21">
    <!-- F4, FC4, F3, FC3 (median) -->
    <g transform="translate(230.120625 12.118365) scale(0.12 -0.12)">
     <defs>
      <path id="DejaVuSans-46" d="M 628 4666 
L 3309 4666 
L 3309 4134 
L 1259 4134 
L 1259 2759 
L 3109 2759 
L 3109 2228 
L 1259 2228 
L 1259 0 
L 628 0 
L 628 4666 
z
" transform="scale(0.015625)"/>
      <path id="DejaVuSans-2c" d="M 750 794 
L 1409 794 
L 1409 256 
L 897 -744 
L 494 -744 
L 750 256 
L 750 794 
z
" transform="scale(0.015625)"/>
      <path id="DejaVuSans-43" d="M 4122 4306 
L 4122 3641 
Q 3803 3938 3442 4084 
Q 3081 4231 2675 4231 
Q 1875 4231 1450 3742 
Q 1025 3253 1025 2328 
Q 1025 1406 1450 917 
Q 1875 428 2675 428 
Q 3081 428 3442 575 
Q 3803 722 4122 1019 
L 4122 359 
Q 3791 134 3420 21 
Q 3050 -91 2638 -91 
Q 1578 -91 968 557 
Q 359 1206 359 2328 
Q 359 3453 968 4101 
Q 1578 4750 2638 4750 
Q 3056 4750 3426 4639 
Q 3797 4528 4122 4306 
z
" transform="scale(0.015625)"/>
      <path id="DejaVuSans-64" d="M 2906 2969 
L 2906 4863 
L 3481 4863 
L 3481 0 
L 2906 0 
L 2906 525 
Q 2725 213 2448 61 
Q 2172 -91 1784 -91 
Q 1150 -91 751 415 
Q 353 922 353 1747 
Q 353 2572 751 3078 
Q 1150 3584 1784 3584 
Q 2172 3584 2448 3432 
Q 2725 3281 2906 2969 
z
M 947 1747 
Q 947 1113 1208 752 
Q 1469 391 1925 391 
Q 2381 391 2643 752 
Q 2906 1113 2906 1747 
Q 2906 2381 2643 2742 
Q 2381 3103 1925 3103 
Q 1469 3103 1208 2742 
Q 947 2381 947 1747 
z
" transform="scale(0.015625)"/>
      <path id="DejaVuSans-61" d="M 2194 1759 
Q 1497 1759 1228 1600 
Q 959 1441 959 1056 
Q 959 750 1161 570 
Q 1363 391 1709 391 
Q 2188 391 2477 730 
Q 2766 1069 2766 1631 
L 2766 1759 
L 2194 1759 
z
M 3341 1997 
L 3341 0 
L 2766 0 
L 2766 531 
Q 2569 213 2275 61 
Q 1981 -91 1556 -91 
Q 1019 -91 701 211 
Q 384 513 384 1019 
Q 384 1609 779 1909 
Q 1175 2209 1959 2209 
L 2766 2209 
L 2766 2266 
Q 2766 2663 2505 2880 
Q 2244 3097 1772 3097 
Q 1472 3097 1187 3025 
Q 903 2953 641 2809 
L 641 3341 
Q 956 3463 1253 3523 
Q 1550 3584 1831 3584 
Q 2591 3584 2966 3190 
Q 3341 2797 3341 1997 
z
" transform="scale(0.015625)"/>
      <path id="DejaVuSans-6e" d="M 3513 2113 
L 3513 0 
L 2938 0 
L 2938 2094 
Q 2938 2591 2744 2837 
Q 2550 3084 2163 3084 
Q 1697 3084 1428 2787 
Q 1159 2491 1159 1978 
L 1159 0 
L 581 0 
L 581 3500 
L 1159 3500 
L 1159 2956 
Q 1366 3272 1645 3428 
Q 1925 3584 2291 3584 
Q 2894 3584 3203 3211 
Q 3513 2838 3513 2113 
z
" transform="scale(0.015625)"/>
     </defs>
     <use xlink:href="#DejaVuSans-46"/>
     <use xlink:href="#DejaVuSans-34" transform="translate(57.519531 0)"/>
     <use xlink:href="#DejaVuSans-2c" transform="translate(121.142578 0)"/>
     <use xlink:href="#DejaVuSans-20" transform="translate(152.929688 0)"/>
     <use xlink:href="#DejaVuSans-46" transform="translate(184.716797 0)"/>
     <use xlink:href="#DejaVuSans-43" transform="translate(242.236328 0)"/>
     <use xlink:href="#DejaVuSans-34" transform="translate(312.060547 0)"/>
     <use xlink:href="#DejaVuSans-2c" transform="translate(375.683594 0)"/>
     <use xlink:href="#DejaVuSans-20" transform="translate(407.470703 0)"/>
     <use xlink:href="#DejaVuSans-46" transform="translate(439.257812 0)"/>
     <use xlink:href="#DejaVuSans-33" transform="translate(496.777344 0)"/>
     <use xlink:href="#DejaVuSans-2c" transform="translate(560.400391 0)"/>
     <use xlink:href="#DejaVuSans-20" transform="translate(592.1875 0)"/>
     <use xlink:href="#DejaVuSans-46" transform="translate(623.974609 0)"/>
     <use xlink:href="#DejaVuSans-43" transform="translate(681.494141 0)"/>
     <use xlink:href="#DejaVuSans-33" transform="translate(751.318359 0)"/>
     <use xlink:href="#DejaVuSans-20" transform="translate(814.941406 0)"/>
     <use xlink:href="#DejaVuSans-28" transform="translate(846.728516 0)"/>
     <use xlink:href="#DejaVuSans-6d" transform="translate(885.742188 0)"/>
     <use xlink:href="#DejaVuSans-65" transform="translate(983.154297 0)"/>
     <use xlink:href="#DejaVuSans-64" transform="translate(1044.677734 0)"/>
     <use xlink:href="#DejaVuSans-69" transform="translate(1108.154297 0)"/>
     <use xlink:href="#DejaVuSans-61" transform="translate(1135.9375 0)"/>
     <use xlink:href="#DejaVuSans-6e" transform="translate(1197.216797 0)"/>
     <use xlink:href="#DejaVuSans-29" transform="translate(1260.595703 0)"/>
    </g>
   </g>
   <g id="legend_1">
    <g id="patch_6">
     <path d="M 61.323678 55.75274 
L 142.465865 55.75274 
Q 144.465865 55.75274 144.465865 53.75274 
L 144.465865 25.118365 
Q 144.465865 23.118365 142.465865 23.118365 
L 61.323678 23.118365 
Q 59.323678 23.118365 59.323678 25.118365 
L 59.323678 53.75274 
Q 59.323678 55.75274 61.323678 55.75274 
z
" style="fill: #ffffff; opacity: 0.8; stroke: #cccccc; stroke-linejoin: miter"/>
    </g>
    <g id="line2d_19">
     <path d="M 63.323678 31.216803 
L 73.323678 31.216803 
L 83.323678 31.216803 
" style="fill: none; stroke: #1f77b4; stroke-width: 1.5; stroke-linecap: square"/>
    </g>
    <g id="text_22">
     <!-- eerie -->
     <g transform="translate(91.323678 34.716803) scale(0.1 -0.1)">
      <defs>
       <path id="DejaVuSans-72" d="M 2631 2963 
Q 2534 3019 2420 3045 
Q 2306 3072 2169 3072 
Q 1681 3072 1420 2755 
Q 1159 2438 1159 1844 
L 1159 0 
L 581 0 
L 581 3500 
L 1159 3500 
L 1159 2956 
Q 1341 3275 1631 3429 
Q 1922 3584 2338 3584 
Q 2397 3584 2469 3576 
Q 2541 3569 2628 3553 
L 2631 2963 
z
" transform="scale(0.015625)"/>
      </defs>
      <use xlink:href="#DejaVuSans-65"/>
      <use xlink:href="#DejaVuSans-65" transform="translate(61.523438 0)"/>
      <use xlink:href="#DejaVuSans-72" transform="translate(123.046875 0)"/>
      <use xlink:href="#DejaVuSans-69" transform="translate(164.160156 0)"/>
      <use xlink:href="#DejaVuSans-65" transform="translate(191.943359 0)"/>
     </g>
    </g>
    <g id="line2d_20">
     <path d="M 63.323678 45.894928 
L 73.323678 45.894928 
L 83.323678 45.894928 
" style="fill: none; stroke: #ff7f0e; stroke-width: 1.5; stroke-linecap: square"/>
    </g>
    <g id="text_23">
     <!-- non_eerie -->
     <g transform="translate(91.323678 49.394928) scale(0.1 -0.1)">
      <defs>
       <path id="DejaVuSans-6f" d="M 1959 3097 
Q 1497 3097 1228 2736 
Q 959 2375 959 1747 
Q 959 1119 1226 758 
Q 1494 397 1959 397 
Q 2419 397 2687 759 
Q 2956 1122 2956 1747 
Q 2956 2369 2687 2733 
Q 2419 3097 1959 3097 
z
M 1959 3584 
Q 2709 3584 3137 3096 
Q 3566 2609 3566 1747 
Q 3566 888 3137 398 
Q 2709 -91 1959 -91 
Q 1206 -91 779 398 
Q 353 888 353 1747 
Q 353 2609 779 3096 
Q 1206 3584 1959 3584 
z
" transform="scale(0.015625)"/>
       <path id="DejaVuSans-5f" d="M 3263 -1063 
L 3263 -1509 
L -63 -1509 
L -63 -1063 
L 3263 -1063 
z
" transform="scale(0.015625)"/>
      </defs>
      <use xlink:href="#DejaVuSans-6e"/>
      <use xlink:href="#DejaVuSans-6f" transform="translate(63.378906 0)"/>
      <use xlink:href="#DejaVuSans-6e" transform="translate(124.560547 0)"/>
      <use xlink:href="#DejaVuSans-5f" transform="translate(187.939453 0)"/>
      <use xlink:href="#DejaVuSans-65" transform="translate(237.939453 0)"/>
      <use xlink:href="#DejaVuSans-65" transform="translate(299.462891 0)"/>
      <use xlink:href="#DejaVuSans-72" transform="translate(360.986328 0)"/>
      <use xlink:href="#DejaVuSans-69" transform="translate(402.099609 0)"/>
      <use xlink:href="#DejaVuSans-65" transform="translate(429.882812 0)"/>
     </g>
    </g>
   </g>
   <g id="FillBetweenPolyCollection_1">
    <defs>
     <path id="mb7e6d459c0" d="M 54.323677 -261.615829 
L 54.323677 -236.405038 
L 55.974977 -240.488069 
L 57.626276 -236.232446 
L 59.277575 -228.3163 
L 60.928874 -223.903526 
L 62.580173 -227.330433 
L 64.231472 -237.090989 
L 65.882771 -247.368784 
L 67.53407 -251.945279 
L 69.185369 -248.370179 
L 70.836668 -237.50257 
L 72.487967 -223.922473 
L 74.139266 -212.748823 
L 75.790565 -206.340988 
L 77.441864 -203.790817 
L 79.093163 -204.657826 
L 80.744462 -206.317593 
L 82.395761 -206.589335 
L 84.04706 -206.19645 
L 85.698359 -205.416095 
L 87.349658 -203.428678 
L 89.000957 -200.007875 
L 90.652256 -195.881566 
L 92.303555 -192.997089 
L 93.954854 -190.67778 
L 95.606153 -190.030489 
L 97.257452 -194.135113 
L 98.908751 -201.524464 
L 100.56005 -208.379657 
L 102.211349 -213.39235 
L 103.862648 -215.233272 
L 105.513947 -213.875987 
L 107.165246 -209.585083 
L 108.816546 -205.668366 
L 110.467845 -203.072499 
L 112.119144 -203.459193 
L 113.770443 -208.882681 
L 115.421742 -218.508577 
L 117.073041 -228.520184 
L 118.72434 -236.256544 
L 120.375639 -240.168078 
L 122.026938 -238.910341 
L 123.678237 -235.316389 
L 125.329536 -230.991931 
L 126.980835 -225.294243 
L 128.632134 -218.756086 
L 130.283433 -211.188544 
L 131.934732 -203.107578 
L 133.586031 -196.815802 
L 135.23733 -193.782911 
L 136.888629 -197.541469 
L 138.539928 -206.984502 
L 140.191227 -216.851909 
L 141.842526 -223.951933 
L 143.493825 -223.899769 
L 145.145124 -218.088674 
L 146.796423 -209.771593 
L 148.447722 -204.575941 
L 150.099021 -204.399762 
L 151.75032 -208.548746 
L 153.401619 -215.821303 
L 155.052918 -223.267338 
L 156.704217 -228.938907 
L 158.355516 -233.057834 
L 160.006815 -237.032332 
L 161.658114 -240.391104 
L 163.309414 -243.325189 
L 164.960713 -241.7872 
L 166.612012 -234.936428 
L 168.263311 -226.458239 
L 169.91461 -219.747608 
L 171.565909 -217.587796 
L 173.217208 -220.880884 
L 174.868507 -227.627175 
L 176.519806 -234.106691 
L 178.171105 -235.696197 
L 179.822404 -230.704084 
L 181.473703 -220.028625 
L 183.125002 -208.036706 
L 184.776301 -198.433821 
L 186.4276 -195.228905 
L 188.078899 -199.533019 
L 189.730198 -208.118303 
L 191.381497 -220.449173 
L 193.032796 -233.713105 
L 194.684095 -245.981023 
L 196.335394 -259.577838 
L 197.986693 -275.95028 
L 199.637992 -294.042958 
L 201.289291 -312.600621 
L 202.94059 -330.404429 
L 204.591889 -346.425854 
L 206.243188 -359.810805 
L 207.894487 -370.399227 
L 209.545786 -377.137878 
L 211.197085 -379.318716 
L 212.848384 -377.823941 
L 214.499683 -375.316653 
L 216.150982 -375.64925 
L 217.802282 -377.884342 
L 219.453581 -380.922824 
L 221.10488 -381.304908 
L 222.756179 -374.457534 
L 224.407478 -360.915209 
L 226.058777 -344.973128 
L 227.710076 -333.266203 
L 229.361375 -329.614666 
L 231.012674 -334.685869 
L 232.663973 -345.193935 
L 234.315272 -352.608508 
L 235.966571 -353.3441 
L 237.61787 -343.500765 
L 239.269169 -329.984381 
L 240.920468 -317.715436 
L 242.571767 -309.704301 
L 244.223066 -306.949819 
L 245.874365 -305.160349 
L 247.525664 -301.719096 
L 249.176963 -297.857567 
L 250.828262 -294.633942 
L 252.479561 -293.680872 
L 254.13086 -294.718362 
L 255.782159 -294.993488 
L 257.433458 -292.146715 
L 259.084757 -285.818552 
L 260.736056 -278.239164 
L 262.387355 -271.56295 
L 264.038654 -267.577111 
L 265.689953 -266.832726 
L 267.341252 -267.19597 
L 268.992551 -266.467483 
L 270.64385 -265.291343 
L 272.29515 -263.873406 
L 273.946449 -262.432595 
L 275.597748 -259.083986 
L 277.249047 -251.60643 
L 278.900346 -240.614171 
L 280.551645 -228.685506 
L 282.202944 -219.854383 
L 283.854243 -218.512741 
L 285.505542 -222.853652 
L 287.156841 -228.75023 
L 288.80814 -231.367091 
L 290.459439 -228.754975 
L 292.110738 -221.107653 
L 293.762037 -212.346188 
L 295.413336 -207.307343 
L 297.064635 -207.286724 
L 298.715934 -211.70262 
L 300.367233 -217.034172 
L 302.018532 -218.727162 
L 303.669831 -216.197847 
L 305.32113 -210.373392 
L 306.972429 -205.210925 
L 308.623728 -201.915003 
L 310.275027 -202.949269 
L 311.926326 -206.259989 
L 313.577625 -208.805608 
L 315.228924 -210.410107 
L 316.880223 -212.00024 
L 318.531522 -213.77557 
L 320.182821 -217.353309 
L 321.83412 -222.630426 
L 323.485419 -229.166215 
L 325.136718 -236.340632 
L 326.788018 -244.117705 
L 328.439317 -251.709691 
L 330.090616 -260.802512 
L 331.741915 -270.367259 
L 333.393214 -280.283901 
L 335.044513 -287.990334 
L 336.695812 -293.739545 
L 338.347111 -297.345124 
L 339.99841 -300.628665 
L 341.649709 -302.340852 
L 343.301008 -302.352443 
L 344.952307 -301.352897 
L 346.603606 -300.556515 
L 348.254905 -300.525667 
L 349.906204 -303.088917 
L 351.557503 -307.756406 
L 353.208802 -312.335959 
L 354.860101 -315.20557 
L 356.5114 -314.481886 
L 358.162699 -310.162074 
L 359.813998 -304.931338 
L 361.465297 -301.644898 
L 363.116596 -301.314865 
L 364.767895 -302.666396 
L 366.419194 -302.676717 
L 368.070493 -300.056928 
L 369.721792 -294.423375 
L 371.373091 -288.3596 
L 373.02439 -286.648455 
L 374.675689 -290.079479 
L 376.326988 -295.714825 
L 377.978287 -300.4205 
L 379.629586 -301.750056 
L 381.280886 -299.131703 
L 382.932185 -296.130064 
L 384.583484 -296.381287 
L 386.234783 -302.001745 
L 387.886082 -311.443144 
L 389.537381 -320.5772 
L 391.18868 -325.073032 
L 392.839979 -322.760488 
L 394.491278 -315.639099 
L 396.142577 -307.877568 
L 397.793876 -304.30295 
L 399.445175 -305.725534 
L 401.096474 -309.677845 
L 402.747773 -311.920084 
L 404.399072 -310.404045 
L 406.050371 -304.42752 
L 407.70167 -296.050471 
L 409.352969 -287.540828 
L 411.004268 -281.404215 
L 412.655567 -277.348545 
L 414.306866 -274.629406 
L 415.958165 -271.189938 
L 417.609464 -265.767329 
L 419.260763 -260.725232 
L 420.912062 -256.298017 
L 422.563361 -254.037572 
L 424.21466 -252.572259 
L 425.865959 -251.723637 
L 427.517258 -252.049953 
L 429.168557 -253.586498 
L 430.819856 -256.346484 
L 432.471155 -259.678077 
L 434.122455 -261.547123 
L 435.773754 -260.337374 
L 437.425053 -258.80029 
L 439.076352 -255.993449 
L 440.727651 -253.587781 
L 442.37895 -253.146778 
L 444.030249 -252.352215 
L 445.681548 -250.558234 
L 447.332847 -248.254456 
L 448.984146 -245.87571 
L 450.635445 -243.789076 
L 452.286744 -241.680286 
L 453.938043 -240.522087 
L 455.589342 -238.74725 
L 457.240641 -235.168595 
L 458.89194 -227.825497 
L 460.543239 -219.636241 
L 462.194538 -213.66605 
L 463.845837 -210.912304 
L 465.497136 -212.439143 
L 467.148435 -215.767336 
L 468.799734 -218.164545 
L 470.451033 -217.068047 
L 472.102332 -213.579019 
L 473.753631 -209.573389 
L 475.40493 -207.77616 
L 477.056229 -208.64311 
L 478.707528 -210.791612 
L 480.358827 -212.816639 
L 482.010126 -212.992496 
L 483.661425 -210.314425 
L 485.312724 -205.546738 
L 486.964023 -201.465466 
L 488.615323 -199.913733 
L 490.266622 -200.556645 
L 491.917921 -202.220387 
L 493.56922 -204.591312 
L 495.220519 -207.203127 
L 496.871818 -209.890919 
L 498.523117 -210.882428 
L 500.174416 -209.117674 
L 501.825715 -205.96037 
L 503.477014 -201.138819 
L 505.128313 -195.236509 
L 506.779612 -191.039139 
L 508.430911 -190.484116 
L 510.08221 -192.963631 
L 511.733509 -196.164939 
L 513.384808 -199.375676 
L 515.036107 -202.774327 
L 516.687406 -204.318522 
L 518.338705 -206.494269 
L 519.990004 -209.133005 
L 521.641303 -212.939619 
L 523.292602 -215.149905 
L 524.943901 -214.321656 
L 526.5952 -210.051585 
L 528.246499 -203.31427 
L 529.897798 -197.447013 
L 531.549097 -195.704619 
L 533.200396 -196.835333 
L 534.851695 -199.668713 
L 536.502994 -202.045002 
L 538.154293 -201.129068 
L 539.805592 -197.874845 
L 541.456891 -195.417136 
L 543.108191 -197.769081 
L 544.75949 -203.943372 
L 546.410789 -212.029977 
L 548.062088 -217.142391 
L 549.713387 -218.069262 
L 551.364686 -216.968769 
L 553.015985 -215.217592 
L 554.667284 -215.456817 
L 556.318583 -218.880134 
L 557.969882 -224.074164 
L 559.621181 -226.481959 
L 561.27248 -225.39507 
L 561.27248 -258.804536 
L 561.27248 -258.804536 
L 559.621181 -259.426386 
L 557.969882 -257.016289 
L 556.318583 -253.54596 
L 554.667284 -251.810199 
L 553.015985 -250.631164 
L 551.364686 -251.139873 
L 549.713387 -251.406789 
L 548.062088 -249.729079 
L 546.410789 -244.032024 
L 544.75949 -236.332725 
L 543.108191 -230.3158 
L 541.456891 -227.326921 
L 539.805592 -228.520916 
L 538.154293 -231.260602 
L 536.502994 -233.26006 
L 534.851695 -233.381779 
L 533.200396 -232.350568 
L 531.549097 -233.57117 
L 529.897798 -237.497265 
L 528.246499 -244.035698 
L 526.5952 -250.511356 
L 524.943901 -253.330186 
L 523.292602 -251.529708 
L 521.641303 -247.501859 
L 519.990004 -242.542766 
L 518.338705 -238.590665 
L 516.687406 -235.028874 
L 515.036107 -232.553702 
L 513.384808 -229.465116 
L 511.733509 -225.314881 
L 510.08221 -221.713068 
L 508.430911 -219.324429 
L 506.779612 -220.509998 
L 505.128313 -224.695663 
L 503.477014 -229.837999 
L 501.825715 -234.355107 
L 500.174416 -237.927183 
L 498.523117 -239.615154 
L 496.871818 -238.015454 
L 495.220519 -234.562929 
L 493.56922 -231.124976 
L 491.917921 -228.093562 
L 490.266622 -226.330479 
L 488.615323 -226.83278 
L 486.964023 -229.610958 
L 485.312724 -234.5587 
L 483.661425 -239.621734 
L 482.010126 -242.948806 
L 480.358827 -243.766505 
L 478.707528 -243.020942 
L 477.056229 -241.535207 
L 475.40493 -240.860128 
L 473.753631 -242.470133 
L 472.102332 -244.84324 
L 470.451033 -247.263334 
L 468.799734 -248.040042 
L 467.148435 -245.515079 
L 465.497136 -241.364429 
L 463.845837 -239.387462 
L 462.194538 -242.519358 
L 460.543239 -249.397886 
L 458.89194 -259.171923 
L 457.240641 -268.432697 
L 455.589342 -273.985467 
L 453.938043 -274.498665 
L 452.286744 -273.976487 
L 450.635445 -273.61078 
L 448.984146 -273.863509 
L 447.332847 -277.471664 
L 445.681548 -283.669498 
L 444.030249 -288.693553 
L 442.37895 -291.65312 
L 440.727651 -293.350175 
L 439.076352 -294.418936 
L 437.425053 -295.779801 
L 435.773754 -297.956578 
L 434.122455 -297.934959 
L 432.471155 -295.014004 
L 430.819856 -290.850964 
L 429.168557 -288.331234 
L 427.517258 -287.181264 
L 425.865959 -286.635187 
L 424.21466 -288.850639 
L 422.563361 -292.136769 
L 420.912062 -295.355974 
L 419.260763 -299.469913 
L 417.609464 -303.47793 
L 415.958165 -307.820472 
L 414.306866 -310.843258 
L 412.655567 -312.802889 
L 411.004268 -315.3185 
L 409.352969 -320.459232 
L 407.70167 -327.002343 
L 406.050371 -334.505896 
L 404.399072 -339.711077 
L 402.747773 -342.601992 
L 401.096474 -342.665959 
L 399.445175 -340.221299 
L 397.793876 -339.285904 
L 396.142577 -341.971898 
L 394.491278 -348.822949 
L 392.839979 -355.950894 
L 391.18868 -358.236073 
L 389.537381 -353.563461 
L 387.886082 -344.164654 
L 386.234783 -334.674122 
L 384.583484 -328.986905 
L 382.932185 -329.408649 
L 381.280886 -333.254204 
L 379.629586 -336.222725 
L 377.978287 -335.143409 
L 376.326988 -330.762864 
L 374.675689 -324.31716 
L 373.02439 -320.04896 
L 371.373091 -320.808498 
L 369.721792 -325.908848 
L 368.070493 -332.366024 
L 366.419194 -337.26936 
L 364.767895 -339.143965 
L 363.116596 -337.469064 
L 361.465297 -335.788417 
L 359.813998 -336.536066 
L 358.162699 -339.811577 
L 356.5114 -343.229098 
L 354.860101 -344.062644 
L 353.208802 -342.31593 
L 351.557503 -339.921915 
L 349.906204 -335.77115 
L 348.254905 -333.019852 
L 346.603606 -332.320821 
L 344.952307 -332.663525 
L 343.301008 -334.590858 
L 341.649709 -334.440884 
L 339.99841 -333.023312 
L 338.347111 -329.233806 
L 336.695812 -325.120927 
L 335.044513 -319.259827 
L 333.393214 -310.764788 
L 331.741915 -300.730467 
L 330.090616 -290.092489 
L 328.439317 -280.668077 
L 326.788018 -271.901312 
L 325.136718 -264.66578 
L 323.485419 -258.446053 
L 321.83412 -253.440644 
L 320.182821 -247.93573 
L 318.531522 -243.317054 
L 316.880223 -240.504999 
L 315.228924 -237.712239 
L 313.577625 -235.323446 
L 311.926326 -232.974958 
L 310.275027 -231.662212 
L 308.623728 -231.82602 
L 306.972429 -236.194288 
L 305.32113 -242.553317 
L 303.669831 -249.683106 
L 302.018532 -252.497032 
L 300.367233 -248.984487 
L 298.715934 -242.394056 
L 297.064635 -236.712343 
L 295.413336 -235.424308 
L 293.762037 -239.708461 
L 292.110738 -248.451732 
L 290.459439 -256.687347 
L 288.80814 -260.038939 
L 287.156841 -257.574351 
L 285.505542 -251.762041 
L 283.854243 -247.411303 
L 282.202944 -248.58637 
L 280.551645 -257.009413 
L 278.900346 -268.277495 
L 277.249047 -278.790456 
L 275.597748 -286.90815 
L 273.946449 -291.509441 
L 272.29515 -293.965809 
L 270.64385 -295.677101 
L 268.992551 -297.313855 
L 267.341252 -298.555997 
L 265.689953 -298.541605 
L 264.038654 -298.93413 
L 262.387355 -301.756039 
L 260.736056 -307.183414 
L 259.084757 -312.568486 
L 257.433458 -316.045666 
L 255.782159 -316.577038 
L 254.13086 -315.16751 
L 252.479561 -314.955689 
L 250.828262 -317.710289 
L 249.176963 -322.215026 
L 247.525664 -328.184002 
L 245.874365 -333.318503 
L 244.223066 -335.738829 
L 242.571767 -337.698393 
L 240.920468 -345.181674 
L 239.269169 -356.699252 
L 237.61787 -370.490057 
L 235.966571 -379.974536 
L 234.315272 -380.707482 
L 232.663973 -373.36269 
L 231.012674 -363.058618 
L 229.361375 -357.740982 
L 227.710076 -360.698513 
L 226.058777 -372.988959 
L 224.407478 -390.050601 
L 222.756179 -405.040187 
L 221.10488 -412.968684 
L 219.453581 -413.881635 
L 217.802282 -410.760728 
L 216.150982 -407.933676 
L 214.499683 -406.92566 
L 212.848384 -408.91886 
L 211.197085 -409.934974 
L 209.545786 -407.570486 
L 207.894487 -402.205741 
L 206.243188 -392.712008 
L 204.591889 -379.253361 
L 202.94059 -362.558135 
L 201.289291 -343.780724 
L 199.637992 -323.762737 
L 197.986693 -304.581798 
L 196.335394 -286.468394 
L 194.684095 -271.298307 
L 193.032796 -257.49825 
L 191.381497 -244.24834 
L 189.730198 -232.574914 
L 188.078899 -223.878309 
L 186.4276 -219.94142 
L 184.776301 -222.92035 
L 183.125002 -231.665999 
L 181.473703 -243.327877 
L 179.822404 -252.891207 
L 178.171105 -257.631954 
L 176.519806 -256.459498 
L 174.868507 -251.443091 
L 173.217208 -246.317569 
L 171.565909 -243.290054 
L 169.91461 -244.748986 
L 168.263311 -250.259412 
L 166.612012 -256.763764 
L 164.960713 -262.321362 
L 163.309414 -264.158672 
L 161.658114 -263.86577 
L 160.006815 -262.162594 
L 158.355516 -258.632175 
L 156.704217 -253.507101 
L 155.052918 -246.210061 
L 153.401619 -238.320571 
L 151.75032 -231.61328 
L 150.099021 -227.968831 
L 148.447722 -227.993696 
L 146.796423 -232.701793 
L 145.145124 -240.414486 
L 143.493825 -245.160502 
L 141.842526 -243.45014 
L 140.191227 -236.258008 
L 138.539928 -226.222572 
L 136.888629 -217.083812 
L 135.23733 -212.723147 
L 133.586031 -215.342954 
L 131.934732 -221.949128 
L 130.283433 -229.972987 
L 128.632134 -236.78136 
L 126.980835 -243.212205 
L 125.329536 -249.002074 
L 123.678237 -254.132666 
L 122.026938 -258.400148 
L 120.375639 -258.732452 
L 118.72434 -252.343405 
L 117.073041 -242.50858 
L 115.421742 -231.507603 
L 113.770443 -222.385939 
L 112.119144 -216.610882 
L 110.467845 -215.776745 
L 108.816546 -218.99789 
L 107.165246 -223.793703 
L 105.513947 -228.922711 
L 103.862648 -229.853905 
L 102.211349 -227.256361 
L 100.56005 -221.915436 
L 98.908751 -215.650078 
L 97.257452 -208.850123 
L 95.606153 -204.698003 
L 93.954854 -205.02511 
L 92.303555 -207.53454 
L 90.652256 -210.346382 
L 89.000957 -214.001374 
L 87.349658 -216.779173 
L 85.698359 -218.884162 
L 84.04706 -220.624756 
L 82.395761 -220.827477 
L 80.744462 -219.113845 
L 79.093163 -216.177407 
L 77.441864 -215.128772 
L 75.790565 -219.562793 
L 74.139266 -228.474482 
L 72.487967 -241.74866 
L 70.836668 -256.331916 
L 69.185369 -266.828917 
L 67.53407 -269.928018 
L 65.882771 -263.957556 
L 64.231472 -253.609031 
L 62.580173 -245.86763 
L 60.928874 -245.389524 
L 59.277575 -251.966774 
L 57.626276 -260.283472 
L 55.974977 -264.745803 
L 54.323677 -261.615829 
z
" style="stroke: #1f77b4; stroke-opacity: 0.3"/>
    </defs>
    <g>
     <use xlink:href="#mb7e6d459c0" x="0" y="432" style="fill: #1f77b4; fill-opacity: 0.3; stroke: #1f77b4; stroke-opacity: 0.3"/>
    </g>
   </g>
   <g id="FillBetweenPolyCollection_2">
    <defs>
     <path id="m812e76d1ed" d="M 54.323677 -222.353797 
L 54.323677 -218.041172 
L 55.974977 -218.445488 
L 57.626276 -217.993976 
L 59.277575 -215.773688 
L 60.928874 -211.712693 
L 62.580173 -207.075898 
L 64.231472 -203.785587 
L 65.882771 -203.404797 
L 67.53407 -206.260993 
L 69.185369 -211.310236 
L 70.836668 -216.701397 
L 72.487967 -220.790981 
L 74.139266 -222.806887 
L 75.790565 -223.139262 
L 77.441864 -222.350777 
L 79.093163 -221.725405 
L 80.744462 -221.691333 
L 82.395761 -221.90439 
L 84.04706 -221.993926 
L 85.698359 -222.122832 
L 87.349658 -222.546921 
L 89.000957 -223.348976 
L 90.652256 -224.696088 
L 92.303555 -226.420179 
L 93.954854 -227.918558 
L 95.606153 -228.919519 
L 97.257452 -229.732053 
L 98.908751 -230.629092 
L 100.56005 -231.151607 
L 102.211349 -230.933257 
L 103.862648 -230.058383 
L 105.513947 -228.645388 
L 107.165246 -227.052421 
L 108.816546 -225.737877 
L 110.467845 -224.943279 
L 112.119144 -224.42247 
L 113.770443 -223.676116 
L 115.421742 -222.99831 
L 117.073041 -223.066922 
L 118.72434 -223.768614 
L 120.375639 -225.391514 
L 122.026938 -227.117132 
L 123.678237 -227.871937 
L 125.329536 -226.511718 
L 126.980835 -223.457011 
L 128.632134 -220.132789 
L 130.283433 -218.491358 
L 131.934732 -218.599754 
L 133.586031 -219.927482 
L 135.23733 -221.339142 
L 136.888629 -221.610043 
L 138.539928 -220.699731 
L 140.191227 -220.039123 
L 141.842526 -221.101071 
L 143.493825 -223.770705 
L 145.145124 -226.565375 
L 146.796423 -228.023236 
L 148.447722 -228.099985 
L 150.099021 -227.314386 
L 151.75032 -227.00482 
L 153.401619 -228.264007 
L 155.052918 -230.858572 
L 156.704217 -233.548698 
L 158.355516 -234.934355 
L 160.006815 -234.536987 
L 161.658114 -232.803879 
L 163.309414 -230.962532 
L 164.960713 -229.745332 
L 166.612012 -229.232109 
L 168.263311 -229.164447 
L 169.91461 -228.997114 
L 171.565909 -228.159026 
L 173.217208 -226.669971 
L 174.868507 -224.274427 
L 176.519806 -220.514837 
L 178.171105 -215.311389 
L 179.822404 -208.768072 
L 181.473703 -202.10533 
L 183.125002 -197.178969 
L 184.776301 -195.740553 
L 186.4276 -198.126745 
L 188.078899 -204.456821 
L 189.730198 -214.021967 
L 191.381497 -226.871826 
L 193.032796 -243.128539 
L 194.684095 -262.072056 
L 196.335394 -282.977011 
L 197.986693 -304.054957 
L 199.637992 -323.378125 
L 201.289291 -339.521135 
L 202.94059 -351.814109 
L 204.591889 -360.363335 
L 206.243188 -366.005623 
L 207.894487 -369.203459 
L 209.545786 -370.718532 
L 211.197085 -370.882551 
L 212.848384 -370.221099 
L 214.499683 -369.422665 
L 216.150982 -368.870492 
L 217.802282 -368.414872 
L 219.453581 -367.25859 
L 221.10488 -365.003316 
L 222.756179 -362.134901 
L 224.407478 -359.605593 
L 226.058777 -358.310987 
L 227.710076 -357.767349 
L 229.361375 -357.00294 
L 231.012674 -354.591641 
L 232.663973 -349.31219 
L 234.315272 -341.5756 
L 235.966571 -333.081147 
L 237.61787 -325.251069 
L 239.269169 -318.516088 
L 240.920468 -312.163968 
L 242.571767 -305.454487 
L 244.223066 -297.4288 
L 245.874365 -288.480933 
L 247.525664 -279.912015 
L 249.176963 -272.576645 
L 250.828262 -267.205217 
L 252.479561 -263.654536 
L 254.13086 -261.590372 
L 255.782159 -260.619559 
L 257.433458 -260.551605 
L 259.084757 -261.152369 
L 260.736056 -262.057877 
L 262.387355 -262.099497 
L 264.038654 -260.169641 
L 265.689953 -256.455089 
L 267.341252 -251.848501 
L 268.992551 -248.142073 
L 270.64385 -247.081164 
L 272.29515 -249.050766 
L 273.946449 -252.779803 
L 275.597748 -256.459949 
L 277.249047 -258.462394 
L 278.900346 -258.270146 
L 280.551645 -256.732639 
L 282.202944 -255.051689 
L 283.854243 -254.381323 
L 285.505542 -255.323747 
L 287.156841 -257.627131 
L 288.80814 -261.019022 
L 290.459439 -264.590764 
L 292.110738 -267.269805 
L 293.762037 -268.358005 
L 295.413336 -267.643572 
L 297.064635 -265.583244 
L 298.715934 -262.875468 
L 300.367233 -260.132443 
L 302.018532 -257.566118 
L 303.669831 -255.047032 
L 305.32113 -252.08798 
L 306.972429 -248.668521 
L 308.623728 -244.988827 
L 310.275027 -241.251988 
L 311.926326 -237.874729 
L 313.577625 -234.195279 
L 315.228924 -229.992168 
L 316.880223 -225.384262 
L 318.531522 -221.532113 
L 320.182821 -219.592429 
L 321.83412 -220.370818 
L 323.485419 -223.053995 
L 325.136718 -226.036394 
L 326.788018 -227.129631 
L 328.439317 -225.288888 
L 330.090616 -221.695522 
L 331.741915 -218.546661 
L 333.393214 -217.890397 
L 335.044513 -220.364519 
L 336.695812 -224.429032 
L 338.347111 -228.168826 
L 339.99841 -229.915821 
L 341.649709 -229.43034 
L 343.301008 -228.541827 
L 344.952307 -228.675619 
L 346.603606 -230.193187 
L 348.254905 -232.405144 
L 349.906204 -233.742685 
L 351.557503 -233.076725 
L 353.208802 -231.036039 
L 354.860101 -228.767191 
L 356.5114 -227.757331 
L 358.162699 -228.135658 
L 359.813998 -228.834052 
L 361.465297 -228.264648 
L 363.116596 -225.684066 
L 364.767895 -221.798632 
L 366.419194 -218.160502 
L 368.070493 -216.406665 
L 369.721792 -216.78058 
L 371.373091 -218.157547 
L 373.02439 -219.020511 
L 374.675689 -218.754991 
L 376.326988 -218.259364 
L 377.978287 -218.915921 
L 379.629586 -221.285249 
L 381.280886 -225.063246 
L 382.932185 -228.430907 
L 384.583484 -229.769172 
L 386.234783 -228.618698 
L 387.886082 -226.162255 
L 389.537381 -224.352852 
L 391.18868 -224.675596 
L 392.839979 -226.959084 
L 394.491278 -229.505768 
L 396.142577 -230.645838 
L 397.793876 -229.53209 
L 399.445175 -226.968946 
L 401.096474 -224.516844 
L 402.747773 -223.738044 
L 404.399072 -224.860687 
L 406.050371 -226.768925 
L 407.70167 -228.440362 
L 409.352969 -228.890521 
L 411.004268 -228.221577 
L 412.655567 -227.058932 
L 414.306866 -225.945886 
L 415.958165 -225.26189 
L 417.609464 -224.623651 
L 419.260763 -223.870179 
L 420.912062 -223.530773 
L 422.563361 -224.038898 
L 424.21466 -226.388987 
L 425.865959 -230.331313 
L 427.517258 -235.192331 
L 429.168557 -239.568983 
L 430.819856 -242.543046 
L 432.471155 -243.651512 
L 434.122455 -243.136851 
L 435.773754 -241.942513 
L 437.425053 -240.514367 
L 439.076352 -239.346769 
L 440.727651 -238.521817 
L 442.37895 -238.53629 
L 444.030249 -239.912182 
L 445.681548 -242.463028 
L 447.332847 -245.579515 
L 448.984146 -248.037273 
L 450.635445 -248.920706 
L 452.286744 -248.136726 
L 453.938043 -246.751864 
L 455.589342 -246.310704 
L 457.240641 -247.65593 
L 458.89194 -250.949105 
L 460.543239 -255.303021 
L 462.194538 -259.058562 
L 463.845837 -261.071832 
L 465.497136 -261.319147 
L 467.148435 -261.045182 
L 468.799734 -261.743221 
L 470.451033 -263.878543 
L 472.102332 -266.462591 
L 473.753631 -268.479779 
L 475.40493 -269.090048 
L 477.056229 -268.582348 
L 478.707528 -268.018454 
L 480.358827 -268.614949 
L 482.010126 -270.779933 
L 483.661425 -272.904961 
L 485.312724 -273.613705 
L 486.964023 -272.410232 
L 488.615323 -270.113019 
L 490.266622 -268.639908 
L 491.917921 -269.331372 
L 493.56922 -272.305818 
L 495.220519 -275.872419 
L 496.871818 -277.87052 
L 498.523117 -277.126455 
L 500.174416 -274.137036 
L 501.825715 -270.463075 
L 503.477014 -267.791262 
L 505.128313 -266.585001 
L 506.779612 -266.306691 
L 508.430911 -265.778805 
L 510.08221 -264.24573 
L 511.733509 -262.094273 
L 513.384808 -260.320814 
L 515.036107 -259.915428 
L 516.687406 -260.701051 
L 518.338705 -261.805476 
L 519.990004 -262.335604 
L 521.641303 -262.193354 
L 523.292602 -262.071593 
L 524.943901 -262.791635 
L 526.5952 -264.806855 
L 528.246499 -267.625539 
L 529.897798 -269.767711 
L 531.549097 -270.000557 
L 533.200396 -267.880981 
L 534.851695 -264.219168 
L 536.502994 -260.165343 
L 538.154293 -257.463896 
L 539.805592 -256.314753 
L 541.456891 -256.43195 
L 543.108191 -256.032433 
L 544.75949 -254.645069 
L 546.410789 -252.20014 
L 548.062088 -249.718342 
L 549.713387 -248.627732 
L 551.364686 -249.503148 
L 553.015985 -251.903132 
L 554.667284 -254.439298 
L 556.318583 -255.308365 
L 557.969882 -253.82526 
L 559.621181 -250.71661 
L 561.27248 -247.944589 
L 561.27248 -254.14286 
L 561.27248 -254.14286 
L 559.621181 -256.914157 
L 557.969882 -259.939449 
L 556.318583 -261.444117 
L 554.667284 -260.578683 
L 553.015985 -258.141073 
L 551.364686 -255.724118 
L 549.713387 -254.807922 
L 548.062088 -255.829181 
L 546.410789 -258.323668 
L 544.75949 -260.961678 
L 543.108191 -262.450353 
L 541.456891 -262.724219 
L 539.805592 -262.826821 
L 538.154293 -263.877111 
L 536.502994 -266.714651 
L 534.851695 -270.719191 
L 533.200396 -274.461176 
L 531.549097 -276.621885 
L 529.897798 -276.31865 
L 528.246499 -274.039779 
L 526.5952 -271.055418 
L 524.943901 -268.91668 
L 523.292602 -268.126201 
L 521.641303 -268.422819 
L 519.990004 -268.714627 
L 518.338705 -268.330162 
L 516.687406 -267.267541 
L 515.036107 -266.284834 
L 513.384808 -266.521697 
L 511.733509 -268.156227 
L 510.08221 -270.3681 
L 508.430911 -272.002066 
L 506.779612 -272.613409 
L 505.128313 -273.062872 
L 503.477014 -274.326036 
L 501.825715 -277.013423 
L 500.174416 -280.612079 
L 498.523117 -283.642256 
L 496.871818 -284.450397 
L 495.220519 -282.523175 
L 493.56922 -279.010709 
L 491.917921 -276.29025 
L 490.266622 -275.745448 
L 488.615323 -277.253404 
L 486.964023 -279.424893 
L 485.312724 -280.443498 
L 483.661425 -279.510131 
L 482.010126 -277.300398 
L 480.358827 -275.212571 
L 478.707528 -274.600594 
L 477.056229 -275.190285 
L 475.40493 -275.802228 
L 473.753631 -275.264504 
L 472.102332 -273.286904 
L 470.451033 -270.485408 
L 468.799734 -268.314057 
L 467.148435 -267.750543 
L 465.497136 -267.912402 
L 463.845837 -267.657294 
L 462.194538 -265.751229 
L 460.543239 -261.975917 
L 458.89194 -257.478806 
L 457.240641 -254.334971 
L 455.589342 -253.026184 
L 453.938043 -253.55876 
L 452.286744 -254.919782 
L 450.635445 -255.786287 
L 448.984146 -254.935692 
L 447.332847 -252.567018 
L 445.681548 -249.45696 
L 444.030249 -246.93624 
L 442.37895 -245.4441 
L 440.727651 -245.407001 
L 439.076352 -246.093755 
L 437.425053 -247.312622 
L 435.773754 -248.778513 
L 434.122455 -250.006263 
L 432.471155 -250.349023 
L 430.819856 -248.963569 
L 429.168557 -246.000858 
L 427.517258 -241.622098 
L 425.865959 -236.909286 
L 424.21466 -232.940359 
L 422.563361 -230.608716 
L 420.912062 -229.972151 
L 419.260763 -230.370976 
L 417.609464 -231.146167 
L 415.958165 -231.789962 
L 414.306866 -232.566763 
L 412.655567 -233.635643 
L 411.004268 -234.831176 
L 409.352969 -235.414072 
L 407.70167 -234.856054 
L 406.050371 -233.218182 
L 404.399072 -231.349729 
L 402.747773 -230.295015 
L 401.096474 -230.906371 
L 399.445175 -233.253763 
L 397.793876 -235.924737 
L 396.142577 -237.250653 
L 394.491278 -236.085373 
L 392.839979 -233.509816 
L 391.18868 -231.27089 
L 389.537381 -230.916975 
L 387.886082 -232.675512 
L 386.234783 -235.231887 
L 384.583484 -236.352497 
L 382.932185 -234.999381 
L 381.280886 -231.556563 
L 379.629586 -227.665485 
L 377.978287 -225.213334 
L 376.326988 -224.724097 
L 374.675689 -225.402299 
L 373.02439 -225.839647 
L 371.373091 -225.135736 
L 369.721792 -223.783224 
L 368.070493 -223.310075 
L 366.419194 -225.014565 
L 364.767895 -228.675923 
L 363.116596 -232.589522 
L 361.465297 -234.978338 
L 359.813998 -235.403216 
L 358.162699 -234.583315 
L 356.5114 -234.06595 
L 354.860101 -235.082888 
L 353.208802 -237.43219 
L 351.557503 -239.426574 
L 349.906204 -239.851099 
L 348.254905 -238.589289 
L 346.603606 -236.329845 
L 344.952307 -234.730098 
L 343.301008 -234.628255 
L 341.649709 -235.654567 
L 339.99841 -236.060176 
L 338.347111 -234.346078 
L 336.695812 -230.675728 
L 335.044513 -226.509917 
L 333.393214 -224.092954 
L 331.741915 -224.611599 
L 330.090616 -227.714088 
L 328.439317 -231.377303 
L 326.788018 -233.319187 
L 325.136718 -232.501323 
L 323.485419 -229.600817 
L 321.83412 -226.864329 
L 320.182821 -226.084063 
L 318.531522 -227.939675 
L 316.880223 -231.683728 
L 315.228924 -236.104981 
L 313.577625 -240.193392 
L 311.926326 -243.77206 
L 310.275027 -247.267366 
L 308.623728 -250.968222 
L 306.972429 -254.7935 
L 305.32113 -258.211933 
L 303.669831 -261.142438 
L 302.018532 -263.609551 
L 300.367233 -266.265934 
L 298.715934 -269.030001 
L 297.064635 -272.017959 
L 295.413336 -274.313117 
L 293.762037 -275.054804 
L 292.110738 -273.871284 
L 290.459439 -271.191523 
L 288.80814 -267.462166 
L 287.156841 -263.982705 
L 285.505542 -261.637523 
L 283.854243 -260.71656 
L 282.202944 -261.409962 
L 280.551645 -263.053303 
L 278.900346 -264.46949 
L 277.249047 -264.64099 
L 275.597748 -262.549033 
L 273.946449 -258.854753 
L 272.29515 -255.090655 
L 270.64385 -253.267219 
L 268.992551 -254.294466 
L 267.341252 -257.916475 
L 265.689953 -262.532193 
L 264.038654 -266.374861 
L 262.387355 -268.25513 
L 260.736056 -267.986192 
L 259.084757 -266.949667 
L 257.433458 -266.350741 
L 255.782159 -266.554342 
L 254.13086 -267.559985 
L 252.479561 -269.548241 
L 250.828262 -273.098727 
L 249.176963 -278.448378 
L 247.525664 -285.678719 
L 245.874365 -294.292758 
L 244.223066 -303.290412 
L 242.571767 -311.269094 
L 240.920468 -318.103075 
L 239.269169 -324.411456 
L 237.61787 -331.159042 
L 235.966571 -339.121172 
L 234.315272 -347.793233 
L 232.663973 -355.548789 
L 231.012674 -360.872922 
L 229.361375 -363.286068 
L 227.710076 -363.793091 
L 226.058777 -364.271329 
L 224.407478 -365.45921 
L 222.756179 -367.975816 
L 221.10488 -370.802008 
L 219.453581 -373.01184 
L 217.802282 -374.132245 
L 216.150982 -374.625577 
L 214.499683 -375.124598 
L 212.848384 -375.842401 
L 211.197085 -376.420367 
L 209.545786 -376.267443 
L 207.894487 -374.810776 
L 206.243188 -371.608496 
L 204.591889 -365.93171 
L 202.94059 -357.388723 
L 201.289291 -345.117329 
L 199.637992 -328.970798 
L 197.986693 -309.754346 
L 196.335394 -288.707625 
L 194.684095 -267.85247 
L 193.032796 -248.756121 
L 191.381497 -232.523019 
L 189.730198 -219.610967 
L 188.078899 -209.996615 
L 186.4276 -203.792076 
L 184.776301 -201.511225 
L 183.125002 -202.983555 
L 181.473703 -207.861142 
L 179.822404 -214.389025 
L 178.171105 -220.970529 
L 176.519806 -226.098761 
L 174.868507 -229.579922 
L 173.217208 -231.957946 
L 171.565909 -233.549948 
L 169.91461 -234.392116 
L 168.263311 -234.732191 
L 166.612012 -234.698888 
L 164.960713 -235.075106 
L 163.309414 -236.334467 
L 161.658114 -238.096215 
L 160.006815 -239.813741 
L 158.355516 -240.06277 
L 156.704217 -238.644873 
L 155.052918 -235.981901 
L 153.401619 -233.365973 
L 151.75032 -232.190071 
L 150.099021 -232.454895 
L 148.447722 -233.220817 
L 146.796423 -233.093693 
L 145.145124 -231.429223 
L 143.493825 -228.41658 
L 141.842526 -225.633922 
L 140.191227 -224.556957 
L 138.539928 -225.122776 
L 136.888629 -225.893936 
L 135.23733 -225.649995 
L 133.586031 -224.134142 
L 131.934732 -222.808042 
L 130.283433 -222.538584 
L 128.632134 -224.17388 
L 126.980835 -227.387962 
L 125.329536 -230.294162 
L 123.678237 -231.593665 
L 122.026938 -230.703334 
L 120.375639 -228.88857 
L 118.72434 -227.267276 
L 117.073041 -226.572103 
L 115.421742 -226.479114 
L 113.770443 -227.15133 
L 112.119144 -227.838517 
L 110.467845 -228.359419 
L 108.816546 -229.147299 
L 107.165246 -230.549231 
L 105.513947 -232.074727 
L 103.862648 -233.412891 
L 102.211349 -234.154669 
L 100.56005 -234.156614 
L 98.908751 -233.486911 
L 97.257452 -232.754878 
L 95.606153 -232.262369 
L 93.954854 -231.391925 
L 92.303555 -229.927719 
L 90.652256 -228.266688 
L 89.000957 -226.927372 
L 87.349658 -226.131482 
L 85.698359 -225.726757 
L 84.04706 -225.530488 
L 82.395761 -225.384593 
L 80.744462 -225.023276 
L 79.093163 -225.110656 
L 77.441864 -225.650958 
L 75.790565 -226.467938 
L 74.139266 -226.462409 
L 72.487967 -224.62854 
L 70.836668 -220.633611 
L 69.185369 -215.055464 
L 67.53407 -210.068787 
L 65.882771 -207.411775 
L 64.231472 -207.945873 
L 62.580173 -211.339914 
L 60.928874 -216.144735 
L 59.277575 -220.322754 
L 57.626276 -222.443266 
L 55.974977 -222.798057 
L 54.323677 -222.353797 
z
" style="stroke: #ff7f0e; stroke-opacity: 0.3"/>
    </defs>
    <g>
     <use xlink:href="#m812e76d1ed" x="0" y="432" style="fill: #ff7f0e; fill-opacity: 0.3; stroke: #ff7f0e; stroke-opacity: 0.3"/>
    </g>
   </g>
   <g id="line2d_21">
    <path d="M 54.323677 182.911221 
L 55.974977 179.064237 
L 57.626276 183.336773 
L 59.277575 191.361517 
L 60.928874 196.892696 
L 62.580173 195.024411 
L 64.231472 186.410208 
L 65.882771 176.306331 
L 67.53407 170.940375 
L 69.185369 174.132058 
L 70.836668 184.865754 
L 72.487967 198.934492 
L 74.139266 211.190383 
L 75.790565 218.998334 
L 77.441864 222.54972 
L 79.093163 221.609628 
L 80.744462 219.251455 
L 82.395761 218.239562 
L 84.04706 218.376158 
L 85.698359 219.572325 
L 87.349658 221.667621 
L 89.000957 224.889963 
L 90.652256 228.709584 
L 92.303555 231.791123 
L 93.954854 234.323602 
L 95.606153 234.898278 
L 97.257452 230.476208 
L 100.56005 216.885559 
L 102.211349 211.94263 
L 103.862648 209.73043 
L 105.513947 210.960595 
L 108.816546 219.782844 
L 110.467845 222.662109 
L 112.119144 222.030915 
L 113.770443 216.56753 
L 115.421742 207.197353 
L 117.073041 196.706881 
L 118.72434 187.805101 
L 120.375639 183.074043 
L 122.026938 183.644482 
L 123.678237 187.425157 
L 125.329536 192.277678 
L 126.980835 197.928523 
L 128.632134 204.227416 
L 130.283433 211.409692 
L 131.934732 219.478301 
L 133.586031 225.933949 
L 135.23733 228.65341 
L 136.888629 224.700237 
L 140.191227 205.584307 
L 141.842526 198.500488 
L 143.493825 197.491587 
L 145.145124 202.866578 
L 146.796423 210.665296 
L 148.447722 215.646827 
L 150.099021 215.743745 
L 151.75032 211.745359 
L 156.704217 191.298117 
L 158.355516 187.003686 
L 160.006815 183.354701 
L 161.658114 180.470333 
L 163.309414 178.372788 
L 164.960713 180.080021 
L 166.612012 186.242449 
L 168.263311 193.801034 
L 169.91461 200.002431 
L 171.565909 202.052363 
L 173.217208 198.880243 
L 176.519806 186.884798 
L 178.171105 185.531138 
L 179.822404 190.417288 
L 181.473703 200.721445 
L 183.125002 212.483563 
L 184.776301 221.471336 
L 186.4276 224.518248 
L 188.078899 220.279457 
L 189.730198 211.577077 
L 191.381497 199.7884 
L 194.684095 173.958072 
L 196.335394 159.553077 
L 197.986693 142.482509 
L 202.94059 86.035648 
L 204.591889 69.676563 
L 206.243188 56.326526 
L 207.894487 46.538045 
L 209.545786 40.239275 
L 211.197085 38.005266 
L 212.848384 39.137184 
L 214.499683 40.875088 
L 216.150982 40.508244 
L 217.802282 37.79363 
L 219.453581 34.728898 
L 221.10488 34.881259 
L 222.756179 42.200136 
L 224.407478 56.49242 
L 226.058777 72.990843 
L 227.710076 84.885792 
L 229.361375 88.156683 
L 231.012674 83.006049 
L 232.663973 72.669828 
L 234.315272 65.452569 
L 235.966571 65.725909 
L 237.61787 75.409378 
L 239.269169 89.130544 
L 240.920468 100.904917 
L 242.571767 108.1033 
L 244.223066 110.589645 
L 245.874365 112.703221 
L 247.525664 117.176549 
L 249.176963 122.024434 
L 250.828262 126.042439 
L 252.479561 127.972431 
L 254.13086 127.142438 
L 255.782159 125.973589 
L 257.433458 127.996873 
L 259.084757 133.155834 
L 260.736056 139.716491 
L 262.387355 145.730365 
L 264.038654 149.232419 
L 265.689953 149.828995 
L 267.341252 149.7912 
L 268.992551 150.591231 
L 272.29515 153.678088 
L 273.946449 155.597264 
L 275.597748 159.446562 
L 277.249047 166.94695 
L 280.551645 189.529561 
L 282.202944 198.098429 
L 283.854243 199.520845 
L 285.505542 195.10767 
L 287.156841 189.43328 
L 288.80814 186.485335 
L 290.459439 189.420068 
L 292.110738 197.361052 
L 293.762037 206.120892 
L 295.413336 211.332447 
L 297.064635 210.811343 
L 298.715934 205.595203 
L 300.367233 199.444357 
L 302.018532 196.972308 
L 303.669831 199.516594 
L 306.972429 211.780042 
L 308.623728 215.276408 
L 310.275027 215.107963 
L 311.926326 212.821335 
L 313.577625 210.130118 
L 315.228924 208.088239 
L 316.880223 206.245359 
L 318.531522 203.924773 
L 320.182821 199.938774 
L 323.485419 188.724019 
L 325.136718 182.065119 
L 326.788018 174.464923 
L 328.439317 166.206961 
L 331.741915 146.687517 
L 333.393214 136.740987 
L 335.044513 128.372874 
L 336.695812 122.399555 
L 338.347111 118.314622 
L 339.99841 115.175162 
L 341.649709 113.951953 
L 343.301008 113.987798 
L 344.952307 115.10992 
L 346.603606 116.09566 
L 348.254905 115.705244 
L 349.906204 112.73144 
L 351.557503 108.198434 
L 353.208802 104.370604 
L 354.860101 102.559336 
L 356.5114 103.456751 
L 358.162699 107.065388 
L 359.813998 111.10011 
L 361.465297 113.007874 
L 363.116596 112.258312 
L 364.767895 110.878115 
L 366.419194 111.772115 
L 368.070493 115.747968 
L 369.721792 121.815305 
L 371.373091 127.295374 
L 373.02439 128.397722 
L 374.675689 124.841863 
L 376.326988 119.112118 
L 377.978287 114.292023 
L 379.629586 113.048807 
L 381.280886 115.834741 
L 382.932185 119.38447 
L 384.583484 119.120267 
L 386.234783 113.514853 
L 389.537381 94.937229 
L 391.18868 90.367923 
L 392.839979 92.567069 
L 396.142577 107.446087 
L 397.793876 110.302713 
L 399.445175 109.20636 
L 401.096474 106.284892 
L 402.747773 104.767364 
L 404.399072 106.92686 
L 406.050371 112.720114 
L 409.352969 127.985847 
L 411.004268 133.726233 
L 412.655567 137.021646 
L 414.306866 139.683119 
L 415.958165 143.085794 
L 419.260763 152.296358 
L 420.912062 156.453333 
L 422.563361 159.321309 
L 424.21466 161.361821 
L 425.865959 162.726197 
L 427.517258 162.549629 
L 429.168557 161.538569 
L 430.819856 158.805665 
L 432.471155 155.14864 
L 434.122455 153.056883 
L 435.773754 153.257351 
L 437.425053 155.157184 
L 439.076352 157.495076 
L 440.727651 159.099517 
L 442.37895 160.274916 
L 444.030249 162.310862 
L 445.681548 165.421001 
L 447.332847 169.35659 
L 448.984146 172.242518 
L 450.635445 173.375081 
L 452.286744 174.194811 
L 453.938043 174.351073 
L 455.589342 175.677721 
L 457.240641 180.169235 
L 458.89194 188.302033 
L 460.543239 197.476759 
L 462.194538 204.264876 
L 463.845837 206.966955 
L 465.497136 205.348104 
L 467.148435 201.529114 
L 468.799734 198.962331 
L 470.451033 199.6475 
L 472.102332 202.676724 
L 473.753631 206.226072 
L 475.40493 207.99317 
L 477.056229 207.224317 
L 478.707528 205.215378 
L 480.358827 203.827114 
L 482.010126 204.308897 
L 483.661425 207.383055 
L 485.312724 212.346451 
L 486.964023 216.7043 
L 488.615323 219.03669 
L 490.266622 219.178792 
L 491.917921 217.401841 
L 493.56922 214.790445 
L 495.220519 211.521924 
L 496.871818 208.583736 
L 498.523117 207.21173 
L 500.174416 209.044649 
L 501.825715 212.480512 
L 503.477014 217.134262 
L 505.128313 222.435721 
L 506.779612 226.534904 
L 508.430911 227.135799 
L 510.08221 224.878404 
L 513.384808 217.750329 
L 515.036107 214.634078 
L 516.687406 212.693572 
L 518.338705 210.011682 
L 519.990004 206.626643 
L 521.641303 202.697288 
L 523.292602 199.447511 
L 524.943901 198.722358 
L 526.5952 202.376373 
L 529.897798 214.953322 
L 531.549097 218.048045 
L 533.200396 217.905589 
L 534.851695 215.94806 
L 536.502994 214.575136 
L 538.154293 216.144873 
L 539.805592 219.517586 
L 541.456891 221.144293 
L 543.108191 218.343028 
L 544.75949 211.797602 
L 546.410789 204.010075 
L 548.062088 198.577682 
L 549.713387 197.146457 
L 553.015985 199.456072 
L 554.667284 198.496997 
L 556.318583 195.654785 
L 557.969882 191.310231 
L 559.621181 189.078771 
L 561.27248 189.654275 
L 561.27248 189.654275 
" style="fill: none; stroke: #1f77b4; stroke-width: 1.5; stroke-linecap: square"/>
   </g>
   <g id="line2d_22">
    <path d="M 54.323677 211.804708 
L 55.974977 211.399707 
L 57.626276 211.776683 
L 59.277575 213.949206 
L 60.928874 217.997914 
L 62.580173 222.707864 
L 64.231472 226.115919 
L 65.882771 226.671102 
L 67.53407 223.914622 
L 69.185369 218.839298 
L 70.836668 213.365734 
L 72.487967 209.300051 
L 74.139266 207.399902 
L 75.790565 207.208417 
L 77.441864 207.989289 
L 79.093163 208.574922 
L 80.744462 208.6666 
L 84.04706 208.21643 
L 85.698359 208.033993 
L 87.349658 207.585686 
L 89.000957 206.784257 
L 90.652256 205.427187 
L 92.303555 203.773199 
L 93.954854 202.316527 
L 95.606153 201.372074 
L 97.257452 200.734796 
L 98.908751 199.935267 
L 100.56005 199.35354 
L 102.211349 199.47022 
L 103.862648 200.265588 
L 105.513947 201.637063 
L 107.165246 203.220489 
L 108.816546 204.546287 
L 110.467845 205.298762 
L 112.119144 205.814465 
L 115.421742 207.248115 
L 117.073041 207.22549 
L 118.72434 206.499915 
L 122.026938 203.11175 
L 123.678237 202.298491 
L 125.329536 203.615921 
L 126.980835 206.609965 
L 128.632134 209.855938 
L 130.283433 211.485489 
L 131.934732 211.27472 
L 135.23733 208.513665 
L 136.888629 208.195618 
L 138.539928 209.036137 
L 140.191227 209.680889 
L 141.842526 208.620899 
L 145.145124 202.948144 
L 146.796423 201.423747 
L 148.447722 201.363699 
L 150.099021 202.165015 
L 151.75032 202.482583 
L 153.401619 201.230169 
L 156.704217 195.992404 
L 158.355516 194.589267 
L 160.006815 194.90962 
L 163.309414 198.414489 
L 164.960713 199.609032 
L 166.612012 200.097079 
L 168.263311 200.189475 
L 169.91461 200.455453 
L 171.565909 201.225298 
L 173.217208 202.701505 
L 174.868507 205.07989 
L 176.519806 208.739439 
L 178.171105 213.848396 
L 181.473703 227.085123 
L 183.125002 231.981965 
L 184.776301 233.515495 
L 186.4276 231.096841 
L 188.078899 224.849482 
L 189.730198 215.238687 
L 191.381497 202.292251 
L 193.032796 186.109946 
L 194.684095 167.089334 
L 199.637992 105.903592 
L 201.289291 89.72611 
L 202.94059 77.402026 
L 204.591889 68.827839 
L 206.243188 63.220888 
L 207.894487 60.014542 
L 209.545786 58.542051 
L 211.197085 58.408879 
L 212.848384 59.003343 
L 214.499683 59.73411 
L 217.802282 60.711993 
L 219.453581 61.84746 
L 221.10488 64.086803 
L 222.756179 66.907492 
L 224.407478 69.344003 
L 226.058777 70.657984 
L 229.361375 71.794377 
L 231.012674 74.261918 
L 232.663973 79.622047 
L 234.315272 87.304965 
L 235.966571 95.860053 
L 237.61787 103.800286 
L 242.571767 123.701664 
L 244.223066 131.720408 
L 247.525664 149.269654 
L 249.176963 156.543678 
L 250.828262 161.928289 
L 252.479561 165.492514 
L 254.13086 167.525762 
L 255.782159 168.484895 
L 257.433458 168.592783 
L 259.084757 167.935972 
L 260.736056 167.001098 
L 262.387355 166.858435 
L 264.038654 168.689109 
L 265.689953 172.532032 
L 267.341252 177.166156 
L 268.992551 180.773151 
L 270.64385 181.825828 
L 272.29515 179.92094 
L 275.597748 172.496908 
L 277.249047 170.551485 
L 278.900346 170.696485 
L 282.202944 173.755929 
L 283.854243 174.454009 
L 285.505542 173.587146 
L 287.156841 171.186483 
L 290.459439 164.24537 
L 292.110738 161.568311 
L 293.762037 160.461624 
L 295.413336 161.100356 
L 297.064635 163.238706 
L 302.018532 171.535781 
L 303.669831 174.042185 
L 305.32113 176.912466 
L 306.972429 180.337699 
L 311.926326 191.260555 
L 313.577625 194.906091 
L 315.228924 199.071352 
L 316.880223 203.583557 
L 318.531522 207.365162 
L 320.182821 209.217929 
L 321.83412 208.422565 
L 323.485419 205.746181 
L 325.136718 202.844585 
L 326.788018 201.896282 
L 328.439317 203.746539 
L 330.090616 207.381084 
L 331.741915 210.468966 
L 333.393214 211.069382 
L 335.044513 208.63344 
L 336.695812 204.546093 
L 338.347111 200.840551 
L 339.99841 199.123275 
L 341.649709 199.519845 
L 343.301008 200.523745 
L 344.952307 200.429532 
L 346.603606 198.835432 
L 348.254905 196.58328 
L 349.906204 195.294635 
L 351.557503 195.824838 
L 354.860101 200.098195 
L 356.5114 201.051702 
L 358.162699 200.576979 
L 359.813998 199.816082 
L 361.465297 200.366104 
L 363.116596 202.925538 
L 364.767895 206.873141 
L 366.419194 210.498934 
L 368.070493 212.200324 
L 369.721792 211.740653 
L 371.373091 210.358167 
L 373.02439 209.56632 
L 374.675689 209.961044 
L 376.326988 210.517733 
L 377.978287 209.97376 
L 379.629586 207.525454 
L 381.280886 203.755729 
L 382.932185 200.331785 
L 384.583484 198.99145 
L 386.234783 200.137723 
L 387.886082 202.676691 
L 389.537381 204.45757 
L 391.18868 204.104147 
L 392.839979 201.841795 
L 394.491278 199.248556 
L 396.142577 198.061545 
L 397.793876 199.23689 
L 399.445175 201.889031 
L 401.096474 204.323673 
L 402.747773 204.915556 
L 404.399072 203.837525 
L 406.050371 201.904638 
L 407.70167 200.303667 
L 409.352969 199.822684 
L 411.004268 200.527284 
L 412.655567 201.724453 
L 414.306866 202.768975 
L 419.260763 204.882215 
L 420.912062 205.271981 
L 422.563361 204.691766 
L 424.21466 202.366523 
L 425.865959 198.356022 
L 427.517258 193.582436 
L 429.168557 189.272093 
L 430.819856 186.308294 
L 432.471155 185.177125 
L 434.122455 185.531986 
L 435.773754 186.692919 
L 437.425053 188.082776 
L 439.076352 189.270603 
L 440.727651 190.055458 
L 442.37895 190.038538 
L 444.030249 188.652765 
L 445.681548 186.111431 
L 447.332847 183.017767 
L 448.984146 180.515514 
L 450.635445 179.552979 
L 452.286744 180.414249 
L 453.938043 181.833182 
L 455.589342 182.352042 
L 457.240641 181.064122 
L 458.89194 177.828154 
L 460.543239 173.415118 
L 462.194538 169.633713 
L 463.845837 167.701155 
L 465.497136 167.40939 
L 467.148435 167.646353 
L 468.799734 167.015297 
L 470.451033 164.89268 
L 472.102332 162.130698 
L 473.753631 160.092368 
L 475.40493 159.549524 
L 478.707528 160.766212 
L 480.358827 160.13028 
L 483.661425 155.859293 
L 485.312724 155.031649 
L 486.964023 156.113353 
L 488.615323 158.362446 
L 490.266622 159.836854 
L 491.917921 159.164895 
L 493.56922 156.360596 
L 495.220519 152.833432 
L 496.871818 150.886509 
L 498.523117 151.657902 
L 500.174416 154.694348 
L 501.825715 158.387456 
L 503.477014 161.084978 
L 505.128313 162.272762 
L 506.779612 162.626445 
L 508.430911 163.214233 
L 510.08221 164.72063 
L 511.733509 166.895974 
L 513.384808 168.602189 
L 515.036107 169.040303 
L 516.687406 168.26072 
L 518.338705 167.14445 
L 519.990004 166.663811 
L 523.292602 167.027851 
L 524.943901 166.239703 
L 526.5952 164.140995 
L 528.246499 161.283812 
L 529.897798 159.088061 
L 531.549097 158.812163 
L 533.200396 160.936232 
L 536.502994 168.609241 
L 538.154293 171.356697 
L 539.805592 172.5214 
L 541.456891 172.646969 
L 543.108191 172.939959 
L 544.75949 174.345662 
L 548.062088 179.292807 
L 549.713387 180.345152 
L 551.364686 179.446303 
L 554.667284 174.584895 
L 556.318583 173.721502 
L 557.969882 175.222895 
L 559.621181 178.258176 
L 561.27248 180.951551 
L 561.27248 180.951551 
" style="fill: none; stroke: #ff7f0e; stroke-width: 1.5; stroke-linecap: square"/>
   </g>
  </g>
  <g id="axes_2">
   <g id="PathCollection_1">
    <defs>
     <path id="C0_0_2876558038" d="M 0 1.118034 
C 0.296506 1.118034 0.580908 1.000231 0.790569 0.790569 
C 1.000231 0.580908 1.118034 0.296506 1.118034 -0 
C 1.118034 -0.296506 1.000231 -0.580908 0.790569 -0.790569 
C 0.580908 -1.000231 0.296506 -1.118034 0 -1.118034 
C -0.296506 -1.118034 -0.580908 -1.000231 -0.790569 -0.790569 
C -1.000231 -0.580908 -1.118034 -0.296506 -1.118034 0 
C -1.118034 0.296506 -1.000231 0.580908 -0.790569 0.790569 
C -0.580908 1.000231 -0.296506 1.118034 0 1.118034 
z
"/>
    </defs>
    <g clip-path="url(#pa87bae3365)">
     <use xlink:href="#C0_0_2876558038" x="524.821564" y="46.993416" style="stroke: #000000"/>
    </g>
    <g clip-path="url(#pa87bae3365)">
     <use xlink:href="#C0_0_2876558038" x="527.000508" y="56.980577" style="stroke: #000000"/>
    </g>
    <g clip-path="url(#pa87bae3365)">
     <use xlink:href="#C0_0_2876558038" x="493.759188" y="47.29305" style="stroke: #000000"/>
    </g>
    <g clip-path="url(#pa87bae3365)">
     <use xlink:href="#C0_0_2876558038" x="491.63729" y="57.13326" style="stroke: #000000"/>
    </g>
   </g>
   <g id="matplotlib.axis_3"/>
   <g id="matplotlib.axis_4"/>
   <g id="line2d_23">
    <path d="M 548.86144 73.635892 
L 548.783775 71.164554 
L 548.551086 68.70297 
L 548.164293 66.260854 
L 547.624922 63.847844 
L 546.9351 61.473463 
L 546.097551 59.147081 
L 545.11558 56.87788 
L 543.993063 54.674816 
L 542.734429 52.546582 
L 541.344645 50.501577 
L 539.829197 48.547874 
L 538.194066 46.693181 
L 536.445704 44.944819 
L 534.591011 43.309688 
L 532.637308 41.79424 
L 530.592304 40.404456 
L 528.46407 39.145822 
L 526.261005 38.023305 
L 523.991804 37.041334 
L 521.665422 36.203785 
L 519.291041 35.513964 
L 516.878031 34.974592 
L 514.435915 34.587799 
L 511.974331 34.35511 
L 509.502994 34.277446 
L 507.031656 34.35511 
L 504.570072 34.587799 
L 502.127956 34.974592 
L 499.714946 35.513964 
L 497.340565 36.203785 
L 495.014183 37.041334 
L 492.744982 38.023305 
L 490.541918 39.145822 
L 488.413684 40.404456 
L 486.368679 41.79424 
L 484.414976 43.309688 
L 482.560283 44.944819 
L 480.811921 46.693181 
L 479.17679 48.547874 
L 477.661342 50.501577 
L 476.271558 52.546582 
L 475.012924 54.674816 
L 473.890407 56.87788 
L 472.908436 59.147081 
L 472.070887 61.473463 
L 471.381065 63.847844 
L 470.841694 66.260854 
L 470.454901 68.70297 
L 470.222212 71.164554 
L 470.144548 73.635892 
L 470.222212 76.107229 
L 470.454901 78.568813 
L 470.841694 81.010929 
L 471.381065 83.423939 
L 472.070887 85.79832 
L 472.908436 88.124702 
L 473.890407 90.393903 
L 475.012924 92.596968 
L 476.271558 94.725202 
L 477.661342 96.770206 
L 479.17679 98.723909 
L 480.811921 100.578602 
L 482.560283 102.326964 
L 484.414976 103.962095 
L 486.368679 105.477543 
L 488.413684 106.867327 
L 490.541918 108.125961 
L 492.744982 109.248478 
L 495.014183 110.230449 
L 497.340565 111.067998 
L 499.714946 111.75782 
L 502.127956 112.297191 
L 504.570072 112.683985 
L 507.031656 112.916673 
L 509.502994 112.994338 
L 511.974331 112.916673 
L 514.435915 112.683985 
L 516.878031 112.297191 
L 519.291041 111.75782 
L 521.665422 111.067998 
L 523.991804 110.230449 
L 526.261005 109.248478 
L 528.46407 108.125961 
L 530.592304 106.867327 
L 532.637308 105.477543 
L 534.591011 103.962095 
L 536.445704 102.326964 
L 538.194066 100.578602 
L 539.829197 98.723909 
L 541.344645 96.770206 
L 542.734429 94.725202 
L 543.993063 92.596968 
L 545.11558 90.393903 
L 546.097551 88.124702 
L 546.9351 85.79832 
L 547.624922 83.423939 
L 548.164293 81.010929 
L 548.551086 78.568813 
L 548.783775 76.107229 
L 548.86144 73.635892 
" style="fill: none; stroke: #000000; stroke-linecap: square"/>
   </g>
   <g id="line2d_24">
    <path d="M 501.25978 35.150353 
L 509.502994 28.373679 
L 517.746207 35.150353 
" style="fill: none; stroke: #000000; stroke-linecap: square"/>
   </g>
   <g id="line2d_25">
    <path d="M 470.380698 69.267104 
L 469.357379 67.535332 
L 468.727643 67.472359 
L 467.790912 67.763611 
L 466.84631 69.267104 
L 466.995872 74.068834 
L 466.444854 80.972306 
L 467.625607 83.97142 
L 469.357379 84.530309 
L 471.010433 83.074047 
" style="fill: none; stroke: #000000; stroke-linecap: square"/>
   </g>
   <g id="line2d_26">
    <path d="M 548.625289 69.267104 
L 549.648608 67.535332 
L 550.278344 67.472359 
L 551.215075 67.763611 
L 552.159677 69.267104 
L 552.010115 74.068834 
L 552.561134 80.972306 
L 551.38038 83.97142 
L 549.648608 84.530309 
L 547.995554 83.074047 
" style="fill: none; stroke: #000000; stroke-linecap: square"/>
   </g>
  </g>
 </g>
 <defs>
  <clipPath id="pcf47bd127b">
   <rect x="54.323678" y="18.118365" width="507.54327" height="380.525145"/>
  </clipPath>
  <clipPath id="pa87bae3365">
   <rect x="462.13904" y="24.142646" width="94.727908" height="93.082725"/>
  </clipPath>
 </defs>
</svg>
