<?xml version="1.0" encoding="utf-8" standalone="no"?>
<!DOCTYPE svg PUBLIC "-//W3C//DTD SVG 1.1//EN"
  "http://www.w3.org/Graphics/SVG/1.1/DTD/svg11.dtd">
<svg xmlns:xlink="http://www.w3.org/1999/xlink" width="576pt" height="432pt" viewBox="0 0 576 432" xmlns="http://www.w3.org/2000/svg" version="1.1">
 <metadata>
  <rdf:RDF xmlns:dc="http://purl.org/dc/elements/1.1/" xmlns:cc="http://creativecommons.org/ns#" xmlns:rdf="http://www.w3.org/1999/02/22-rdf-syntax-ns#">
   <cc:Work>
    <dc:type rdf:resource="http://purl.org/dc/dcmitype/StillImage"/>
    <dc:date>2025-02-20T17:25:02.946662</dc:date>
    <dc:format>image/svg+xml</dc:format>
    <dc:creator>
     <cc:Agent>
      <dc:title>Matplotlib v3.10.0, https://matplotlib.org/</dc:title>
     </cc:Agent>
    </dc:creator>
   </cc:Work>
  </rdf:RDF>
 </metadata>
 <defs>
  <style type="text/css">*{stroke-linejoin: round; stroke-linecap: butt}</style>
 </defs>
 <g id="figure_1">
  <g id="patch_1">
   <path d="M 0 432 
L 576 432 
L 576 0 
L 0 0 
z
" style="fill: #ffffff"/>
  </g>
  <g id="axes_1">
   <g id="patch_2">
    <path d="M 44.783053 398.64351 
L 561.866947 398.64351 
L 561.866947 18.118365 
L 44.783053 18.118365 
L 44.783053 398.64351 
z
" style="fill: none; opacity: 0"/>
   </g>
   <g id="patch_3">
    <path d="M 44.783053 348.555148 
L 44.783053 68.206727 
" style="fill: none; stroke: #000000; stroke-width: 0.8; stroke-linejoin: miter; stroke-linecap: square"/>
   </g>
   <g id="LineCollection_1">
    <path d="M 217.3238 18.118365 
L 217.3238 398.64351 
" clip-path="url(#paed390f84a)" style="fill: none; stroke-dasharray: 3.7,1.6; stroke-dashoffset: 0; stroke: #000000"/>
    <path d="M 281.92564 18.118365 
L 281.92564 398.64351 
" clip-path="url(#paed390f84a)" style="fill: none; stroke-dasharray: 3.7,1.6; stroke-dashoffset: 0; stroke: #000000"/>
   </g>
   <g id="matplotlib.axis_1">
    <g id="xtick_1">
     <g id="line2d_1">
      <defs>
       <path id="m889a3d9193" d="M 0 0 
L 0 3.5 
" style="stroke: #000000; stroke-width: 0.8"/>
      </defs>
      <g>
       <use xlink:href="#m889a3d9193" x="45.052227" y="398.64351" style="stroke: #000000; stroke-width: 0.8"/>
      </g>
     </g>
     <g id="text_1">
      <!-- −0.20 -->
      <g transform="translate(29.729571 413.241947) scale(0.1 -0.1)">
       <defs>
        <path id="DejaVuSans-2212" d="M 678 2272 
L 4684 2272 
L 4684 1741 
L 678 1741 
L 678 2272 
z
" transform="scale(0.015625)"/>
        <path id="DejaVuSans-30" d="M 2034 4250 
Q 1547 4250 1301 3770 
Q 1056 3291 1056 2328 
Q 1056 1369 1301 889 
Q 1547 409 2034 409 
Q 2525 409 2770 889 
Q 3016 1369 3016 2328 
Q 3016 3291 2770 3770 
Q 2525 4250 2034 4250 
z
M 2034 4750 
Q 2819 4750 3233 4129 
Q 3647 3509 3647 2328 
Q 3647 1150 3233 529 
Q 2819 -91 2034 -91 
Q 1250 -91 836 529 
Q 422 1150 422 2328 
Q 422 3509 836 4129 
Q 1250 4750 2034 4750 
z
" transform="scale(0.015625)"/>
        <path id="DejaVuSans-2e" d="M 684 794 
L 1344 794 
L 1344 0 
L 684 0 
L 684 794 
z
" transform="scale(0.015625)"/>
        <path id="DejaVuSans-32" d="M 1228 531 
L 3431 531 
L 3431 0 
L 469 0 
L 469 531 
Q 828 903 1448 1529 
Q 2069 2156 2228 2338 
Q 2531 2678 2651 2914 
Q 2772 3150 2772 3378 
Q 2772 3750 2511 3984 
Q 2250 4219 1831 4219 
Q 1534 4219 1204 4116 
Q 875 4013 500 3803 
L 500 4441 
Q 881 4594 1212 4672 
Q 1544 4750 1819 4750 
Q 2544 4750 2975 4387 
Q 3406 4025 3406 3419 
Q 3406 3131 3298 2873 
Q 3191 2616 2906 2266 
Q 2828 2175 2409 1742 
Q 1991 1309 1228 531 
z
" transform="scale(0.015625)"/>
       </defs>
       <use xlink:href="#DejaVuSans-2212"/>
       <use xlink:href="#DejaVuSans-30" transform="translate(83.789062 0)"/>
       <use xlink:href="#DejaVuSans-2e" transform="translate(147.412109 0)"/>
       <use xlink:href="#DejaVuSans-32" transform="translate(179.199219 0)"/>
       <use xlink:href="#DejaVuSans-30" transform="translate(242.822266 0)"/>
      </g>
     </g>
    </g>
    <g id="xtick_2">
     <g id="line2d_2">
      <g>
       <use xlink:href="#m889a3d9193" x="131.188014" y="398.64351" style="stroke: #000000; stroke-width: 0.8"/>
      </g>
     </g>
     <g id="text_2">
      <!-- 0.00 -->
      <g transform="translate(120.055201 413.241947) scale(0.1 -0.1)">
       <use xlink:href="#DejaVuSans-30"/>
       <use xlink:href="#DejaVuSans-2e" transform="translate(63.623047 0)"/>
       <use xlink:href="#DejaVuSans-30" transform="translate(95.410156 0)"/>
       <use xlink:href="#DejaVuSans-30" transform="translate(159.033203 0)"/>
      </g>
     </g>
    </g>
    <g id="xtick_3">
     <g id="line2d_3">
      <g>
       <use xlink:href="#m889a3d9193" x="217.3238" y="398.64351" style="stroke: #000000; stroke-width: 0.8"/>
      </g>
     </g>
     <g id="text_3">
      <!-- 0.20 -->
      <g transform="translate(206.190988 413.241947) scale(0.1 -0.1)">
       <use xlink:href="#DejaVuSans-30"/>
       <use xlink:href="#DejaVuSans-2e" transform="translate(63.623047 0)"/>
       <use xlink:href="#DejaVuSans-32" transform="translate(95.410156 0)"/>
       <use xlink:href="#DejaVuSans-30" transform="translate(159.033203 0)"/>
      </g>
     </g>
    </g>
    <g id="xtick_4">
     <g id="line2d_4">
      <g>
       <use xlink:href="#m889a3d9193" x="217.3238" y="398.64351" style="stroke: #000000; stroke-width: 0.8"/>
      </g>
     </g>
     <g id="text_4">
      <!-- 0.20 -->
      <g transform="translate(206.190988 413.241947) scale(0.1 -0.1)">
       <use xlink:href="#DejaVuSans-30"/>
       <use xlink:href="#DejaVuSans-2e" transform="translate(63.623047 0)"/>
       <use xlink:href="#DejaVuSans-32" transform="translate(95.410156 0)"/>
       <use xlink:href="#DejaVuSans-30" transform="translate(159.033203 0)"/>
      </g>
     </g>
    </g>
    <g id="xtick_5">
     <g id="line2d_5">
      <g>
       <use xlink:href="#m889a3d9193" x="281.92564" y="398.64351" style="stroke: #000000; stroke-width: 0.8"/>
      </g>
     </g>
     <g id="text_5">
      <!-- 0.35 -->
      <g transform="translate(270.792828 413.241947) scale(0.1 -0.1)">
       <defs>
        <path id="DejaVuSans-33" d="M 2597 2516 
Q 3050 2419 3304 2112 
Q 3559 1806 3559 1356 
Q 3559 666 3084 287 
Q 2609 -91 1734 -91 
Q 1441 -91 1130 -33 
Q 819 25 488 141 
L 488 750 
Q 750 597 1062 519 
Q 1375 441 1716 441 
Q 2309 441 2620 675 
Q 2931 909 2931 1356 
Q 2931 1769 2642 2001 
Q 2353 2234 1838 2234 
L 1294 2234 
L 1294 2753 
L 1863 2753 
Q 2328 2753 2575 2939 
Q 2822 3125 2822 3475 
Q 2822 3834 2567 4026 
Q 2313 4219 1838 4219 
Q 1578 4219 1281 4162 
Q 984 4106 628 3988 
L 628 4550 
Q 988 4650 1302 4700 
Q 1616 4750 1894 4750 
Q 2613 4750 3031 4423 
Q 3450 4097 3450 3541 
Q 3450 3153 3228 2886 
Q 3006 2619 2597 2516 
z
" transform="scale(0.015625)"/>
        <path id="DejaVuSans-35" d="M 691 4666 
L 3169 4666 
L 3169 4134 
L 1269 4134 
L 1269 2991 
Q 1406 3038 1543 3061 
Q 1681 3084 1819 3084 
Q 2600 3084 3056 2656 
Q 3513 2228 3513 1497 
Q 3513 744 3044 326 
Q 2575 -91 1722 -91 
Q 1428 -91 1123 -41 
Q 819 9 494 109 
L 494 744 
Q 775 591 1075 516 
Q 1375 441 1709 441 
Q 2250 441 2565 725 
Q 2881 1009 2881 1497 
Q 2881 1984 2565 2268 
Q 2250 2553 1709 2553 
Q 1456 2553 1204 2497 
Q 953 2441 691 2322 
L 691 4666 
z
" transform="scale(0.015625)"/>
       </defs>
       <use xlink:href="#DejaVuSans-30"/>
       <use xlink:href="#DejaVuSans-2e" transform="translate(63.623047 0)"/>
       <use xlink:href="#DejaVuSans-33" transform="translate(95.410156 0)"/>
       <use xlink:href="#DejaVuSans-35" transform="translate(159.033203 0)"/>
      </g>
     </g>
    </g>
    <g id="xtick_6">
     <g id="line2d_6">
      <g>
       <use xlink:href="#m889a3d9193" x="303.459587" y="398.64351" style="stroke: #000000; stroke-width: 0.8"/>
      </g>
     </g>
     <g id="text_6">
      <!-- 0.40 -->
      <g transform="translate(292.326775 413.241947) scale(0.1 -0.1)">
       <defs>
        <path id="DejaVuSans-34" d="M 2419 4116 
L 825 1625 
L 2419 1625 
L 2419 4116 
z
M 2253 4666 
L 3047 4666 
L 3047 1625 
L 3713 1625 
L 3713 1100 
L 3047 1100 
L 3047 0 
L 2419 0 
L 2419 1100 
L 313 1100 
L 313 1709 
L 2253 4666 
z
" transform="scale(0.015625)"/>
       </defs>
       <use xlink:href="#DejaVuSans-30"/>
       <use xlink:href="#DejaVuSans-2e" transform="translate(63.623047 0)"/>
       <use xlink:href="#DejaVuSans-34" transform="translate(95.410156 0)"/>
       <use xlink:href="#DejaVuSans-30" transform="translate(159.033203 0)"/>
      </g>
     </g>
    </g>
    <g id="xtick_7">
     <g id="line2d_7">
      <g>
       <use xlink:href="#m889a3d9193" x="389.595374" y="398.64351" style="stroke: #000000; stroke-width: 0.8"/>
      </g>
     </g>
     <g id="text_7">
      <!-- 0.60 -->
      <g transform="translate(378.462561 413.241947) scale(0.1 -0.1)">
       <defs>
        <path id="DejaVuSans-36" d="M 2113 2584 
Q 1688 2584 1439 2293 
Q 1191 2003 1191 1497 
Q 1191 994 1439 701 
Q 1688 409 2113 409 
Q 2538 409 2786 701 
Q 3034 994 3034 1497 
Q 3034 2003 2786 2293 
Q 2538 2584 2113 2584 
z
M 3366 4563 
L 3366 3988 
Q 3128 4100 2886 4159 
Q 2644 4219 2406 4219 
Q 1781 4219 1451 3797 
Q 1122 3375 1075 2522 
Q 1259 2794 1537 2939 
Q 1816 3084 2150 3084 
Q 2853 3084 3261 2657 
Q 3669 2231 3669 1497 
Q 3669 778 3244 343 
Q 2819 -91 2113 -91 
Q 1303 -91 875 529 
Q 447 1150 447 2328 
Q 447 3434 972 4092 
Q 1497 4750 2381 4750 
Q 2619 4750 2861 4703 
Q 3103 4656 3366 4563 
z
" transform="scale(0.015625)"/>
       </defs>
       <use xlink:href="#DejaVuSans-30"/>
       <use xlink:href="#DejaVuSans-2e" transform="translate(63.623047 0)"/>
       <use xlink:href="#DejaVuSans-36" transform="translate(95.410156 0)"/>
       <use xlink:href="#DejaVuSans-30" transform="translate(159.033203 0)"/>
      </g>
     </g>
    </g>
    <g id="xtick_8">
     <g id="line2d_8">
      <g>
       <use xlink:href="#m889a3d9193" x="475.731161" y="398.64351" style="stroke: #000000; stroke-width: 0.8"/>
      </g>
     </g>
     <g id="text_8">
      <!-- 0.80 -->
      <g transform="translate(464.598348 413.241947) scale(0.1 -0.1)">
       <defs>
        <path id="DejaVuSans-38" d="M 2034 2216 
Q 1584 2216 1326 1975 
Q 1069 1734 1069 1313 
Q 1069 891 1326 650 
Q 1584 409 2034 409 
Q 2484 409 2743 651 
Q 3003 894 3003 1313 
Q 3003 1734 2745 1975 
Q 2488 2216 2034 2216 
z
M 1403 2484 
Q 997 2584 770 2862 
Q 544 3141 544 3541 
Q 544 4100 942 4425 
Q 1341 4750 2034 4750 
Q 2731 4750 3128 4425 
Q 3525 4100 3525 3541 
Q 3525 3141 3298 2862 
Q 3072 2584 2669 2484 
Q 3125 2378 3379 2068 
Q 3634 1759 3634 1313 
Q 3634 634 3220 271 
Q 2806 -91 2034 -91 
Q 1263 -91 848 271 
Q 434 634 434 1313 
Q 434 1759 690 2068 
Q 947 2378 1403 2484 
z
M 1172 3481 
Q 1172 3119 1398 2916 
Q 1625 2713 2034 2713 
Q 2441 2713 2670 2916 
Q 2900 3119 2900 3481 
Q 2900 3844 2670 4047 
Q 2441 4250 2034 4250 
Q 1625 4250 1398 4047 
Q 1172 3844 1172 3481 
z
" transform="scale(0.015625)"/>
       </defs>
       <use xlink:href="#DejaVuSans-30"/>
       <use xlink:href="#DejaVuSans-2e" transform="translate(63.623047 0)"/>
       <use xlink:href="#DejaVuSans-38" transform="translate(95.410156 0)"/>
       <use xlink:href="#DejaVuSans-30" transform="translate(159.033203 0)"/>
      </g>
     </g>
    </g>
    <g id="xtick_9">
     <g id="line2d_9">
      <g>
       <use xlink:href="#m889a3d9193" x="561.866947" y="398.64351" style="stroke: #000000; stroke-width: 0.8"/>
      </g>
     </g>
     <g id="text_9">
      <!-- 1.00 -->
      <g transform="translate(550.734135 413.241947) scale(0.1 -0.1)">
       <defs>
        <path id="DejaVuSans-31" d="M 794 531 
L 1825 531 
L 1825 4091 
L 703 3866 
L 703 4441 
L 1819 4666 
L 2450 4666 
L 2450 531 
L 3481 531 
L 3481 0 
L 794 0 
L 794 531 
z
" transform="scale(0.015625)"/>
       </defs>
       <use xlink:href="#DejaVuSans-31"/>
       <use xlink:href="#DejaVuSans-2e" transform="translate(63.623047 0)"/>
       <use xlink:href="#DejaVuSans-30" transform="translate(95.410156 0)"/>
       <use xlink:href="#DejaVuSans-30" transform="translate(159.033203 0)"/>
      </g>
     </g>
    </g>
    <g id="text_10">
     <!-- Time (s) -->
     <g transform="translate(282.996094 426.920073) scale(0.1 -0.1)">
      <defs>
       <path id="DejaVuSans-54" d="M -19 4666 
L 3928 4666 
L 3928 4134 
L 2272 4134 
L 2272 0 
L 1638 0 
L 1638 4134 
L -19 4134 
L -19 4666 
z
" transform="scale(0.015625)"/>
       <path id="DejaVuSans-69" d="M 603 3500 
L 1178 3500 
L 1178 0 
L 603 0 
L 603 3500 
z
M 603 4863 
L 1178 4863 
L 1178 4134 
L 603 4134 
L 603 4863 
z
" transform="scale(0.015625)"/>
       <path id="DejaVuSans-6d" d="M 3328 2828 
Q 3544 3216 3844 3400 
Q 4144 3584 4550 3584 
Q 5097 3584 5394 3201 
Q 5691 2819 5691 2113 
L 5691 0 
L 5113 0 
L 5113 2094 
Q 5113 2597 4934 2840 
Q 4756 3084 4391 3084 
Q 3944 3084 3684 2787 
Q 3425 2491 3425 1978 
L 3425 0 
L 2847 0 
L 2847 2094 
Q 2847 2600 2669 2842 
Q 2491 3084 2119 3084 
Q 1678 3084 1418 2786 
Q 1159 2488 1159 1978 
L 1159 0 
L 581 0 
L 581 3500 
L 1159 3500 
L 1159 2956 
Q 1356 3278 1631 3431 
Q 1906 3584 2284 3584 
Q 2666 3584 2933 3390 
Q 3200 3197 3328 2828 
z
" transform="scale(0.015625)"/>
       <path id="DejaVuSans-65" d="M 3597 1894 
L 3597 1613 
L 953 1613 
Q 991 1019 1311 708 
Q 1631 397 2203 397 
Q 2534 397 2845 478 
Q 3156 559 3463 722 
L 3463 178 
Q 3153 47 2828 -22 
Q 2503 -91 2169 -91 
Q 1331 -91 842 396 
Q 353 884 353 1716 
Q 353 2575 817 3079 
Q 1281 3584 2069 3584 
Q 2775 3584 3186 3129 
Q 3597 2675 3597 1894 
z
M 3022 2063 
Q 3016 2534 2758 2815 
Q 2500 3097 2075 3097 
Q 1594 3097 1305 2825 
Q 1016 2553 972 2059 
L 3022 2063 
z
" transform="scale(0.015625)"/>
       <path id="DejaVuSans-20" transform="scale(0.015625)"/>
       <path id="DejaVuSans-28" d="M 1984 4856 
Q 1566 4138 1362 3434 
Q 1159 2731 1159 2009 
Q 1159 1288 1364 580 
Q 1569 -128 1984 -844 
L 1484 -844 
Q 1016 -109 783 600 
Q 550 1309 550 2009 
Q 550 2706 781 3412 
Q 1013 4119 1484 4856 
L 1984 4856 
z
" transform="scale(0.015625)"/>
       <path id="DejaVuSans-73" d="M 2834 3397 
L 2834 2853 
Q 2591 2978 2328 3040 
Q 2066 3103 1784 3103 
Q 1356 3103 1142 2972 
Q 928 2841 928 2578 
Q 928 2378 1081 2264 
Q 1234 2150 1697 2047 
L 1894 2003 
Q 2506 1872 2764 1633 
Q 3022 1394 3022 966 
Q 3022 478 2636 193 
Q 2250 -91 1575 -91 
Q 1294 -91 989 -36 
Q 684 19 347 128 
L 347 722 
Q 666 556 975 473 
Q 1284 391 1588 391 
Q 1994 391 2212 530 
Q 2431 669 2431 922 
Q 2431 1156 2273 1281 
Q 2116 1406 1581 1522 
L 1381 1569 
Q 847 1681 609 1914 
Q 372 2147 372 2553 
Q 372 3047 722 3315 
Q 1072 3584 1716 3584 
Q 2034 3584 2315 3537 
Q 2597 3491 2834 3397 
z
" transform="scale(0.015625)"/>
       <path id="DejaVuSans-29" d="M 513 4856 
L 1013 4856 
Q 1481 4119 1714 3412 
Q 1947 2706 1947 2009 
Q 1947 1309 1714 600 
Q 1481 -109 1013 -844 
L 513 -844 
Q 928 -128 1133 580 
Q 1338 1288 1338 2009 
Q 1338 2731 1133 3434 
Q 928 4138 513 4856 
z
" transform="scale(0.015625)"/>
      </defs>
      <use xlink:href="#DejaVuSans-54"/>
      <use xlink:href="#DejaVuSans-69" transform="translate(57.958984 0)"/>
      <use xlink:href="#DejaVuSans-6d" transform="translate(85.742188 0)"/>
      <use xlink:href="#DejaVuSans-65" transform="translate(183.154297 0)"/>
      <use xlink:href="#DejaVuSans-20" transform="translate(244.677734 0)"/>
      <use xlink:href="#DejaVuSans-28" transform="translate(276.464844 0)"/>
      <use xlink:href="#DejaVuSans-73" transform="translate(315.478516 0)"/>
      <use xlink:href="#DejaVuSans-29" transform="translate(367.578125 0)"/>
     </g>
    </g>
   </g>
   <g id="matplotlib.axis_2">
    <g id="ytick_1">
     <g id="line2d_10">
      <defs>
       <path id="m2b7bd4bcc8" d="M 0 0 
L -3.5 0 
" style="stroke: #000000; stroke-width: 0.8"/>
      </defs>
      <g>
       <use xlink:href="#m2b7bd4bcc8" x="44.783053" y="348.555148" style="stroke: #000000; stroke-width: 0.8"/>
      </g>
     </g>
     <g id="text_11">
      <!-- −10 -->
      <g transform="translate(16.678365 352.354367) scale(0.1 -0.1)">
       <use xlink:href="#DejaVuSans-2212"/>
       <use xlink:href="#DejaVuSans-31" transform="translate(83.789062 0)"/>
       <use xlink:href="#DejaVuSans-30" transform="translate(147.412109 0)"/>
      </g>
     </g>
    </g>
    <g id="ytick_2">
     <g id="line2d_11">
      <g>
       <use xlink:href="#m2b7bd4bcc8" x="44.783053" y="278.468043" style="stroke: #000000; stroke-width: 0.8"/>
      </g>
     </g>
     <g id="text_12">
      <!-- −5 -->
      <g transform="translate(23.040865 282.267262) scale(0.1 -0.1)">
       <use xlink:href="#DejaVuSans-2212"/>
       <use xlink:href="#DejaVuSans-35" transform="translate(83.789062 0)"/>
      </g>
     </g>
    </g>
    <g id="ytick_3">
     <g id="line2d_12">
      <g>
       <use xlink:href="#m2b7bd4bcc8" x="44.783053" y="208.380938" style="stroke: #000000; stroke-width: 0.8"/>
      </g>
     </g>
     <g id="text_13">
      <!-- 0 -->
      <g transform="translate(31.420553 212.180156) scale(0.1 -0.1)">
       <use xlink:href="#DejaVuSans-30"/>
      </g>
     </g>
    </g>
    <g id="ytick_4">
     <g id="line2d_13">
      <g>
       <use xlink:href="#m2b7bd4bcc8" x="44.783053" y="138.293832" style="stroke: #000000; stroke-width: 0.8"/>
      </g>
     </g>
     <g id="text_14">
      <!-- 5 -->
      <g transform="translate(31.420553 142.093051) scale(0.1 -0.1)">
       <use xlink:href="#DejaVuSans-35"/>
      </g>
     </g>
    </g>
    <g id="ytick_5">
     <g id="line2d_14">
      <g>
       <use xlink:href="#m2b7bd4bcc8" x="44.783053" y="68.206727" style="stroke: #000000; stroke-width: 0.8"/>
      </g>
     </g>
     <g id="text_15">
      <!-- 10 -->
      <g transform="translate(25.058053 72.005945) scale(0.1 -0.1)">
       <use xlink:href="#DejaVuSans-31"/>
       <use xlink:href="#DejaVuSans-30" transform="translate(63.623047 0)"/>
      </g>
     </g>
    </g>
    <g id="text_16">
     <!-- µV -->
     <g transform="translate(10.598678 214.9825) rotate(-90) scale(0.1 -0.1)">
      <defs>
       <path id="DejaVuSans-b5" d="M 544 -1331 
L 544 3500 
L 1119 3500 
L 1119 1325 
Q 1119 872 1334 640 
Q 1550 409 1972 409 
Q 2434 409 2667 671 
Q 2900 934 2900 1459 
L 2900 3500 
L 3475 3500 
L 3475 806 
Q 3475 619 3529 530 
Q 3584 441 3700 441 
Q 3728 441 3778 458 
Q 3828 475 3916 513 
L 3916 50 
Q 3788 -22 3673 -56 
Q 3559 -91 3450 -91 
Q 3234 -91 3106 31 
Q 2978 153 2931 403 
Q 2775 156 2548 32 
Q 2322 -91 2016 -91 
Q 1697 -91 1473 31 
Q 1250 153 1119 397 
L 1119 -1331 
L 544 -1331 
z
" transform="scale(0.015625)"/>
       <path id="DejaVuSans-56" d="M 1831 0 
L 50 4666 
L 709 4666 
L 2188 738 
L 3669 4666 
L 4325 4666 
L 2547 0 
L 1831 0 
z
" transform="scale(0.015625)"/>
      </defs>
      <use xlink:href="#DejaVuSans-b5"/>
      <use xlink:href="#DejaVuSans-56" transform="translate(63.623047 0)"/>
     </g>
    </g>
   </g>
   <g id="patch_4">
    <path d="M 45.052227 398.64351 
L 561.866947 398.64351 
" style="fill: none; stroke: #000000; stroke-width: 0.8; stroke-linejoin: miter; stroke-linecap: square"/>
   </g>
   <g id="patch_5">
    <path d="M 44.783052 208.380938 
L 561.866947 208.380938 
" style="fill: none; stroke: #000000; stroke-width: 0.8; stroke-linejoin: miter; stroke-linecap: square"/>
   </g>
   <g id="text_17">
    <!-- Fz, FCz, Cz, CPz, Pz (median) -->
    <g transform="translate(216.537812 12.118365) scale(0.12 -0.12)">
     <defs>
      <path id="DejaVuSans-46" d="M 628 4666 
L 3309 4666 
L 3309 4134 
L 1259 4134 
L 1259 2759 
L 3109 2759 
L 3109 2228 
L 1259 2228 
L 1259 0 
L 628 0 
L 628 4666 
z
" transform="scale(0.015625)"/>
      <path id="DejaVuSans-7a" d="M 353 3500 
L 3084 3500 
L 3084 2975 
L 922 459 
L 3084 459 
L 3084 0 
L 275 0 
L 275 525 
L 2438 3041 
L 353 3041 
L 353 3500 
z
" transform="scale(0.015625)"/>
      <path id="DejaVuSans-2c" d="M 750 794 
L 1409 794 
L 1409 256 
L 897 -744 
L 494 -744 
L 750 256 
L 750 794 
z
" transform="scale(0.015625)"/>
      <path id="DejaVuSans-43" d="M 4122 4306 
L 4122 3641 
Q 3803 3938 3442 4084 
Q 3081 4231 2675 4231 
Q 1875 4231 1450 3742 
Q 1025 3253 1025 2328 
Q 1025 1406 1450 917 
Q 1875 428 2675 428 
Q 3081 428 3442 575 
Q 3803 722 4122 1019 
L 4122 359 
Q 3791 134 3420 21 
Q 3050 -91 2638 -91 
Q 1578 -91 968 557 
Q 359 1206 359 2328 
Q 359 3453 968 4101 
Q 1578 4750 2638 4750 
Q 3056 4750 3426 4639 
Q 3797 4528 4122 4306 
z
" transform="scale(0.015625)"/>
      <path id="DejaVuSans-50" d="M 1259 4147 
L 1259 2394 
L 2053 2394 
Q 2494 2394 2734 2622 
Q 2975 2850 2975 3272 
Q 2975 3691 2734 3919 
Q 2494 4147 2053 4147 
L 1259 4147 
z
M 628 4666 
L 2053 4666 
Q 2838 4666 3239 4311 
Q 3641 3956 3641 3272 
Q 3641 2581 3239 2228 
Q 2838 1875 2053 1875 
L 1259 1875 
L 1259 0 
L 628 0 
L 628 4666 
z
" transform="scale(0.015625)"/>
      <path id="DejaVuSans-64" d="M 2906 2969 
L 2906 4863 
L 3481 4863 
L 3481 0 
L 2906 0 
L 2906 525 
Q 2725 213 2448 61 
Q 2172 -91 1784 -91 
Q 1150 -91 751 415 
Q 353 922 353 1747 
Q 353 2572 751 3078 
Q 1150 3584 1784 3584 
Q 2172 3584 2448 3432 
Q 2725 3281 2906 2969 
z
M 947 1747 
Q 947 1113 1208 752 
Q 1469 391 1925 391 
Q 2381 391 2643 752 
Q 2906 1113 2906 1747 
Q 2906 2381 2643 2742 
Q 2381 3103 1925 3103 
Q 1469 3103 1208 2742 
Q 947 2381 947 1747 
z
" transform="scale(0.015625)"/>
      <path id="DejaVuSans-61" d="M 2194 1759 
Q 1497 1759 1228 1600 
Q 959 1441 959 1056 
Q 959 750 1161 570 
Q 1363 391 1709 391 
Q 2188 391 2477 730 
Q 2766 1069 2766 1631 
L 2766 1759 
L 2194 1759 
z
M 3341 1997 
L 3341 0 
L 2766 0 
L 2766 531 
Q 2569 213 2275 61 
Q 1981 -91 1556 -91 
Q 1019 -91 701 211 
Q 384 513 384 1019 
Q 384 1609 779 1909 
Q 1175 2209 1959 2209 
L 2766 2209 
L 2766 2266 
Q 2766 2663 2505 2880 
Q 2244 3097 1772 3097 
Q 1472 3097 1187 3025 
Q 903 2953 641 2809 
L 641 3341 
Q 956 3463 1253 3523 
Q 1550 3584 1831 3584 
Q 2591 3584 2966 3190 
Q 3341 2797 3341 1997 
z
" transform="scale(0.015625)"/>
      <path id="DejaVuSans-6e" d="M 3513 2113 
L 3513 0 
L 2938 0 
L 2938 2094 
Q 2938 2591 2744 2837 
Q 2550 3084 2163 3084 
Q 1697 3084 1428 2787 
Q 1159 2491 1159 1978 
L 1159 0 
L 581 0 
L 581 3500 
L 1159 3500 
L 1159 2956 
Q 1366 3272 1645 3428 
Q 1925 3584 2291 3584 
Q 2894 3584 3203 3211 
Q 3513 2838 3513 2113 
z
" transform="scale(0.015625)"/>
     </defs>
     <use xlink:href="#DejaVuSans-46"/>
     <use xlink:href="#DejaVuSans-7a" transform="translate(57.519531 0)"/>
     <use xlink:href="#DejaVuSans-2c" transform="translate(110.009766 0)"/>
     <use xlink:href="#DejaVuSans-20" transform="translate(141.796875 0)"/>
     <use xlink:href="#DejaVuSans-46" transform="translate(173.583984 0)"/>
     <use xlink:href="#DejaVuSans-43" transform="translate(231.103516 0)"/>
     <use xlink:href="#DejaVuSans-7a" transform="translate(300.927734 0)"/>
     <use xlink:href="#DejaVuSans-2c" transform="translate(353.417969 0)"/>
     <use xlink:href="#DejaVuSans-20" transform="translate(385.205078 0)"/>
     <use xlink:href="#DejaVuSans-43" transform="translate(416.992188 0)"/>
     <use xlink:href="#DejaVuSans-7a" transform="translate(486.816406 0)"/>
     <use xlink:href="#DejaVuSans-2c" transform="translate(539.306641 0)"/>
     <use xlink:href="#DejaVuSans-20" transform="translate(571.09375 0)"/>
     <use xlink:href="#DejaVuSans-43" transform="translate(602.880859 0)"/>
     <use xlink:href="#DejaVuSans-50" transform="translate(672.705078 0)"/>
     <use xlink:href="#DejaVuSans-7a" transform="translate(733.007812 0)"/>
     <use xlink:href="#DejaVuSans-2c" transform="translate(785.498047 0)"/>
     <use xlink:href="#DejaVuSans-20" transform="translate(817.285156 0)"/>
     <use xlink:href="#DejaVuSans-50" transform="translate(849.072266 0)"/>
     <use xlink:href="#DejaVuSans-7a" transform="translate(909.375 0)"/>
     <use xlink:href="#DejaVuSans-20" transform="translate(961.865234 0)"/>
     <use xlink:href="#DejaVuSans-28" transform="translate(993.652344 0)"/>
     <use xlink:href="#DejaVuSans-6d" transform="translate(1032.666016 0)"/>
     <use xlink:href="#DejaVuSans-65" transform="translate(1130.078125 0)"/>
     <use xlink:href="#DejaVuSans-64" transform="translate(1191.601562 0)"/>
     <use xlink:href="#DejaVuSans-69" transform="translate(1255.078125 0)"/>
     <use xlink:href="#DejaVuSans-61" transform="translate(1282.861328 0)"/>
     <use xlink:href="#DejaVuSans-6e" transform="translate(1344.140625 0)"/>
     <use xlink:href="#DejaVuSans-29" transform="translate(1407.519531 0)"/>
    </g>
   </g>
   <g id="legend_1">
    <g id="patch_6">
     <path d="M 51.783053 55.75274 
L 132.92524 55.75274 
Q 134.92524 55.75274 134.92524 53.75274 
L 134.92524 25.118365 
Q 134.92524 23.118365 132.92524 23.118365 
L 51.783053 23.118365 
Q 49.783053 23.118365 49.783053 25.118365 
L 49.783053 53.75274 
Q 49.783053 55.75274 51.783053 55.75274 
z
" style="fill: #ffffff; opacity: 0.8; stroke: #cccccc; stroke-linejoin: miter"/>
    </g>
    <g id="line2d_15">
     <path d="M 53.783053 31.216803 
L 63.783053 31.216803 
L 73.783052 31.216803 
" style="fill: none; stroke: #1f77b4; stroke-width: 1.5; stroke-linecap: square"/>
    </g>
    <g id="text_18">
     <!-- eerie -->
     <g transform="translate(81.783052 34.716803) scale(0.1 -0.1)">
      <defs>
       <path id="DejaVuSans-72" d="M 2631 2963 
Q 2534 3019 2420 3045 
Q 2306 3072 2169 3072 
Q 1681 3072 1420 2755 
Q 1159 2438 1159 1844 
L 1159 0 
L 581 0 
L 581 3500 
L 1159 3500 
L 1159 2956 
Q 1341 3275 1631 3429 
Q 1922 3584 2338 3584 
Q 2397 3584 2469 3576 
Q 2541 3569 2628 3553 
L 2631 2963 
z
" transform="scale(0.015625)"/>
      </defs>
      <use xlink:href="#DejaVuSans-65"/>
      <use xlink:href="#DejaVuSans-65" transform="translate(61.523438 0)"/>
      <use xlink:href="#DejaVuSans-72" transform="translate(123.046875 0)"/>
      <use xlink:href="#DejaVuSans-69" transform="translate(164.160156 0)"/>
      <use xlink:href="#DejaVuSans-65" transform="translate(191.943359 0)"/>
     </g>
    </g>
    <g id="line2d_16">
     <path d="M 53.783053 45.894928 
L 63.783053 45.894928 
L 73.783052 45.894928 
" style="fill: none; stroke: #ff7f0e; stroke-width: 1.5; stroke-linecap: square"/>
    </g>
    <g id="text_19">
     <!-- non_eerie -->
     <g transform="translate(81.783052 49.394928) scale(0.1 -0.1)">
      <defs>
       <path id="DejaVuSans-6f" d="M 1959 3097 
Q 1497 3097 1228 2736 
Q 959 2375 959 1747 
Q 959 1119 1226 758 
Q 1494 397 1959 397 
Q 2419 397 2687 759 
Q 2956 1122 2956 1747 
Q 2956 2369 2687 2733 
Q 2419 3097 1959 3097 
z
M 1959 3584 
Q 2709 3584 3137 3096 
Q 3566 2609 3566 1747 
Q 3566 888 3137 398 
Q 2709 -91 1959 -91 
Q 1206 -91 779 398 
Q 353 888 353 1747 
Q 353 2609 779 3096 
Q 1206 3584 1959 3584 
z
" transform="scale(0.015625)"/>
       <path id="DejaVuSans-5f" d="M 3263 -1063 
L 3263 -1509 
L -63 -1509 
L -63 -1063 
L 3263 -1063 
z
" transform="scale(0.015625)"/>
      </defs>
      <use xlink:href="#DejaVuSans-6e"/>
      <use xlink:href="#DejaVuSans-6f" transform="translate(63.378906 0)"/>
      <use xlink:href="#DejaVuSans-6e" transform="translate(124.560547 0)"/>
      <use xlink:href="#DejaVuSans-5f" transform="translate(187.939453 0)"/>
      <use xlink:href="#DejaVuSans-65" transform="translate(237.939453 0)"/>
      <use xlink:href="#DejaVuSans-65" transform="translate(299.462891 0)"/>
      <use xlink:href="#DejaVuSans-72" transform="translate(360.986328 0)"/>
      <use xlink:href="#DejaVuSans-69" transform="translate(402.099609 0)"/>
      <use xlink:href="#DejaVuSans-65" transform="translate(429.882812 0)"/>
     </g>
    </g>
   </g>
   <g id="FillBetweenPolyCollection_1">
    <defs>
     <path id="m46227efe71" d="M 44.783052 -229.459907 
L 44.783052 -216.885395 
L 46.465392 -218.091653 
L 48.147732 -221.248946 
L 49.830071 -224.099686 
L 51.512411 -225.478694 
L 53.19475 -224.886935 
L 54.87709 -222.483015 
L 56.55943 -218.740016 
L 58.241769 -215.684354 
L 59.924109 -212.779945 
L 61.606448 -211.129816 
L 63.288788 -210.018661 
L 64.971128 -208.912742 
L 66.653467 -207.848892 
L 68.335807 -207.70629 
L 70.018146 -208.641853 
L 71.700486 -211.278457 
L 73.382825 -215.359456 
L 75.065165 -219.472211 
L 76.747505 -221.807641 
L 78.429844 -221.364017 
L 80.112184 -218.44659 
L 81.794523 -214.344505 
L 83.476863 -208.774468 
L 85.159203 -204.135579 
L 86.841542 -200.739397 
L 88.523882 -199.41628 
L 90.206221 -199.375664 
L 91.888561 -200.371607 
L 93.5709 -202.456916 
L 95.25324 -205.434402 
L 96.93558 -209.611315 
L 98.617919 -214.133483 
L 100.300259 -218.915421 
L 101.982598 -224.887344 
L 103.664938 -229.574586 
L 105.347278 -233.694099 
L 107.029617 -235.422561 
L 108.711957 -234.759367 
L 110.394296 -232.712098 
L 112.076636 -230.164276 
L 113.758976 -228.062967 
L 115.441315 -227.842064 
L 117.123655 -229.225133 
L 118.805994 -231.217203 
L 120.488334 -232.850101 
L 122.170673 -233.293931 
L 123.853013 -231.832665 
L 125.535353 -230.202138 
L 127.217692 -228.159059 
L 128.900032 -226.337779 
L 130.582371 -224.590707 
L 132.264711 -224.583759 
L 133.947051 -226.581219 
L 135.62939 -229.717441 
L 137.31173 -232.19217 
L 138.994069 -234.170386 
L 140.676409 -234.583467 
L 142.358748 -233.394035 
L 144.041088 -231.770406 
L 145.723428 -230.739561 
L 147.405767 -229.944035 
L 149.088107 -230.542268 
L 150.770446 -230.992864 
L 152.452786 -231.352761 
L 154.135126 -231.04986 
L 155.817465 -229.883986 
L 157.499805 -228.918599 
L 159.182144 -228.081109 
L 160.864484 -227.251244 
L 162.546823 -227.391643 
L 164.229163 -227.992142 
L 165.911503 -228.291397 
L 167.593842 -227.521414 
L 169.276182 -225.62098 
L 170.958521 -224.38152 
L 172.640861 -225.276858 
L 174.323201 -226.87487 
L 176.00554 -230.072966 
L 177.68788 -232.455162 
L 179.370219 -232.79586 
L 181.052559 -230.308397 
L 182.734899 -225.386006 
L 184.417238 -218.169137 
L 186.099578 -211.455847 
L 187.781917 -208.623988 
L 189.464257 -210.196198 
L 191.146596 -216.527447 
L 192.828936 -225.229018 
L 194.511276 -235.308922 
L 196.193615 -247.295974 
L 197.875955 -259.393492 
L 199.558294 -270.585295 
L 201.240634 -279.550434 
L 202.922974 -285.590791 
L 204.605313 -287.711019 
L 206.287653 -286.389174 
L 207.969992 -283.0667 
L 209.652332 -280.819933 
L 211.334671 -280.813231 
L 213.017011 -282.454435 
L 214.699351 -285.302526 
L 216.38169 -289.053776 
L 218.06403 -293.111965 
L 219.746369 -299.837269 
L 221.428709 -306.529692 
L 223.111049 -313.489479 
L 224.793388 -320.730249 
L 226.475728 -325.566093 
L 228.158067 -327.501634 
L 229.840407 -326.212556 
L 231.522746 -321.694063 
L 233.205086 -316.100664 
L 234.887426 -311.240082 
L 236.569765 -307.026519 
L 238.252105 -302.462846 
L 239.934444 -298.123985 
L 241.616784 -293.799115 
L 243.299124 -288.764736 
L 244.981463 -284.489502 
L 246.663803 -283.020477 
L 248.346142 -283.122065 
L 250.028482 -284.81059 
L 251.710822 -287.095423 
L 253.393161 -289.464991 
L 255.075501 -291.458063 
L 256.75784 -293.320811 
L 258.44018 -294.985948 
L 260.122519 -295.962879 
L 261.804859 -295.91348 
L 263.487199 -296.419663 
L 265.169538 -298.900685 
L 266.851878 -303.235251 
L 268.534217 -309.056412 
L 270.216557 -315.56411 
L 271.898897 -322.046684 
L 273.581236 -328.267145 
L 275.263576 -333.787623 
L 276.945915 -337.964088 
L 278.628255 -344.451426 
L 280.310594 -350.547999 
L 281.992934 -355.43742 
L 283.675274 -359.354352 
L 285.357613 -361.399746 
L 287.039953 -360.193618 
L 288.722292 -358.024362 
L 290.404632 -356.963871 
L 292.086972 -356.202767 
L 293.769311 -356.397239 
L 295.451651 -355.48116 
L 297.13399 -352.098993 
L 298.81633 -345.617959 
L 300.498669 -338.488773 
L 302.181009 -331.44294 
L 303.863349 -325.567197 
L 305.545688 -320.11713 
L 307.228028 -316.136423 
L 308.910367 -312.668478 
L 310.592707 -310.195596 
L 312.275047 -308.687546 
L 313.957386 -308.592068 
L 315.639726 -309.435061 
L 317.322065 -311.678918 
L 319.004405 -315.076662 
L 320.686745 -317.754311 
L 322.369084 -319.742467 
L 324.051424 -321.944745 
L 325.733763 -324.341839 
L 327.416103 -327.925167 
L 329.098442 -332.311315 
L 330.780782 -338.104738 
L 332.463122 -343.072182 
L 334.145461 -347.723579 
L 335.827801 -353.108153 
L 337.51014 -358.366204 
L 339.19248 -362.43416 
L 340.87482 -365.852307 
L 342.557159 -368.984787 
L 344.239499 -373.533837 
L 345.921838 -378.088484 
L 347.604178 -382.679935 
L 349.286517 -386.848413 
L 350.968857 -389.491229 
L 352.651197 -391.450964 
L 354.333536 -392.775117 
L 356.015876 -394.044518 
L 357.698215 -395.75252 
L 359.380555 -397.2085 
L 361.062895 -399.422451 
L 362.745234 -400.116829 
L 364.427574 -400.286731 
L 366.109913 -399.983875 
L 367.792253 -399.655027 
L 369.474593 -399.567406 
L 371.156932 -399.662604 
L 372.839272 -398.368414 
L 374.521611 -396.031972 
L 376.203951 -391.60417 
L 377.88629 -386.75456 
L 379.56863 -381.726347 
L 381.25097 -378.442444 
L 382.933309 -377.658299 
L 384.615649 -377.502261 
L 386.297988 -376.38111 
L 387.980328 -374.313842 
L 389.662668 -372.199829 
L 391.345007 -370.432361 
L 393.027347 -368.746348 
L 394.709686 -366.318604 
L 396.392026 -362.604754 
L 398.074365 -357.173882 
L 399.756705 -350.127082 
L 401.439045 -343.730323 
L 403.121384 -339.206272 
L 404.803724 -335.219231 
L 406.486063 -330.752891 
L 408.168403 -325.11862 
L 409.850743 -319.192686 
L 411.533082 -312.988877 
L 413.215422 -307.505659 
L 414.897761 -303.59353 
L 416.580101 -300.060289 
L 418.26244 -295.848689 
L 419.94478 -291.616832 
L 421.62712 -288.951322 
L 423.309459 -288.764471 
L 424.991799 -289.524808 
L 426.674138 -290.598403 
L 428.356478 -291.475484 
L 430.038818 -290.604919 
L 431.721157 -286.999543 
L 433.403497 -284.075289 
L 435.085836 -282.370483 
L 436.768176 -282.58595 
L 438.450516 -283.781898 
L 440.132855 -284.833788 
L 441.815195 -286.697955 
L 443.497534 -288.250824 
L 445.179874 -290.071301 
L 446.862213 -291.748973 
L 448.544553 -293.067474 
L 450.226893 -293.53869 
L 451.909232 -293.103245 
L 453.591572 -291.615326 
L 455.273911 -289.721798 
L 456.956251 -289.434856 
L 458.638591 -290.769909 
L 460.32093 -293.171556 
L 462.00327 -295.628727 
L 463.685609 -297.198867 
L 465.367949 -296.880031 
L 467.050288 -294.582501 
L 468.732628 -291.328015 
L 470.414968 -288.673856 
L 472.097307 -287.605124 
L 473.779647 -288.020212 
L 475.461986 -288.692181 
L 477.144326 -289.04046 
L 478.826666 -287.63741 
L 480.509005 -285.037827 
L 482.191345 -282.427268 
L 483.873684 -281.211708 
L 485.556024 -281.483476 
L 487.238363 -283.285459 
L 488.920703 -285.393045 
L 490.603043 -286.465951 
L 492.285382 -286.206141 
L 493.967722 -284.630624 
L 495.650061 -281.734977 
L 497.332401 -278.683252 
L 499.014741 -275.776067 
L 500.69708 -273.188819 
L 502.37942 -271.198873 
L 504.061759 -269.603146 
L 505.744099 -268.696056 
L 507.426439 -268.322086 
L 509.108778 -267.820188 
L 510.791118 -267.085624 
L 512.473457 -265.871467 
L 514.155797 -264.587716 
L 515.838136 -263.523645 
L 517.520476 -262.324694 
L 519.202816 -261.004557 
L 520.885155 -259.508137 
L 522.567495 -257.143368 
L 524.249834 -255.392042 
L 525.932174 -254.042038 
L 527.614514 -253.59786 
L 529.296853 -253.809666 
L 530.979193 -253.717914 
L 532.661532 -253.060498 
L 534.343872 -252.13071 
L 536.026211 -251.050673 
L 537.708551 -250.87302 
L 539.390891 -251.379874 
L 541.07323 -251.458881 
L 542.75557 -250.607867 
L 544.437909 -249.969332 
L 546.120249 -250.526487 
L 547.802589 -252.755281 
L 549.484928 -254.830821 
L 551.167268 -256.287248 
L 552.849607 -255.764277 
L 554.531947 -252.987096 
L 556.214286 -249.162562 
L 557.896626 -246.647414 
L 559.578966 -246.03632 
L 561.261305 -246.994169 
L 561.261305 -262.002612 
L 561.261305 -262.002612 
L 559.578966 -261.308509 
L 557.896626 -261.889436 
L 556.214286 -264.030709 
L 554.531947 -267.094494 
L 552.849607 -269.785792 
L 551.167268 -270.473224 
L 549.484928 -269.314971 
L 547.802589 -267.615732 
L 546.120249 -265.932332 
L 544.437909 -265.294642 
L 542.75557 -265.280388 
L 541.07323 -265.707307 
L 539.390891 -265.579915 
L 537.708551 -265.322156 
L 536.026211 -266.077425 
L 534.343872 -267.198034 
L 532.661532 -267.998966 
L 530.979193 -268.651071 
L 529.296853 -268.76197 
L 527.614514 -268.576432 
L 525.932174 -268.824607 
L 524.249834 -269.747799 
L 522.567495 -271.214484 
L 520.885155 -273.374056 
L 519.202816 -275.205158 
L 517.520476 -276.593257 
L 515.838136 -277.780108 
L 514.155797 -278.761649 
L 512.473457 -280.417084 
L 510.791118 -281.800887 
L 509.108778 -281.928015 
L 507.426439 -282.573814 
L 505.744099 -282.662205 
L 504.061759 -283.288404 
L 502.37942 -284.839471 
L 500.69708 -286.982114 
L 499.014741 -289.283699 
L 497.332401 -291.646615 
L 495.650061 -294.519742 
L 493.967722 -297.385784 
L 492.285382 -299.421493 
L 490.603043 -299.883187 
L 488.920703 -298.542479 
L 487.238363 -296.492216 
L 485.556024 -295.054731 
L 483.873684 -295.154426 
L 482.191345 -296.845775 
L 480.509005 -299.519574 
L 478.826666 -302.008695 
L 477.144326 -302.992376 
L 475.461986 -302.66801 
L 473.779647 -301.747352 
L 472.097307 -300.783785 
L 470.414968 -301.069675 
L 468.732628 -303.329523 
L 467.050288 -306.248131 
L 465.367949 -308.312274 
L 463.685609 -308.675057 
L 462.00327 -307.319477 
L 460.32093 -305.307282 
L 458.638591 -302.642658 
L 456.956251 -301.392051 
L 455.273911 -301.81314 
L 453.591572 -303.940781 
L 451.909232 -305.986511 
L 450.226893 -306.72846 
L 448.544553 -306.537995 
L 446.862213 -304.979374 
L 445.179874 -302.871072 
L 443.497534 -300.618057 
L 441.815195 -299.25333 
L 440.132855 -297.765002 
L 438.450516 -297.407744 
L 436.768176 -297.222721 
L 435.085836 -297.554102 
L 433.403497 -298.933378 
L 431.721157 -301.279293 
L 430.038818 -304.388684 
L 428.356478 -304.984707 
L 426.674138 -304.192591 
L 424.991799 -303.186582 
L 423.309459 -302.615928 
L 421.62712 -302.850475 
L 419.94478 -305.364371 
L 418.26244 -308.994007 
L 416.580101 -312.999278 
L 414.897761 -316.917533 
L 413.215422 -321.071751 
L 411.533082 -326.326964 
L 409.850743 -332.286666 
L 408.168403 -337.8671 
L 406.486063 -343.627568 
L 404.803724 -349.040139 
L 403.121384 -353.453564 
L 401.439045 -358.426408 
L 399.756705 -364.633748 
L 398.074365 -371.146283 
L 396.392026 -375.955847 
L 394.709686 -379.12424 
L 393.027347 -380.880297 
L 391.345007 -382.829269 
L 389.662668 -385.061153 
L 387.980328 -387.592791 
L 386.297988 -389.725629 
L 384.615649 -391.027013 
L 382.933309 -391.386397 
L 381.25097 -392.067831 
L 379.56863 -394.856382 
L 377.88629 -399.72924 
L 376.203951 -405.073803 
L 374.521611 -409.7981 
L 372.839272 -412.290259 
L 371.156932 -413.486198 
L 369.474593 -413.475065 
L 367.792253 -413.522746 
L 366.109913 -413.698626 
L 364.427574 -413.881635 
L 362.745234 -413.807477 
L 361.062895 -412.966784 
L 359.380555 -411.165406 
L 357.698215 -409.929257 
L 356.015876 -408.501043 
L 354.333536 -407.031943 
L 352.651197 -405.073014 
L 350.968857 -403.110311 
L 349.286517 -400.200135 
L 347.604178 -396.339671 
L 345.921838 -392.128365 
L 344.239499 -387.769477 
L 342.557159 -383.263685 
L 340.87482 -379.901675 
L 339.19248 -376.26101 
L 337.51014 -371.724132 
L 335.827801 -365.892281 
L 334.145461 -360.407169 
L 332.463122 -355.978952 
L 330.780782 -351.228115 
L 329.098442 -346.066233 
L 327.416103 -341.410572 
L 325.733763 -337.630145 
L 324.051424 -335.486424 
L 322.369084 -333.433514 
L 320.686745 -331.102725 
L 319.004405 -328.435855 
L 317.322065 -325.365113 
L 315.639726 -323.360884 
L 313.957386 -322.382397 
L 312.275047 -322.640517 
L 310.592707 -323.976187 
L 308.910367 -326.407333 
L 307.228028 -329.898939 
L 305.545688 -334.038368 
L 303.863349 -339.070946 
L 302.181009 -344.230641 
L 300.498669 -351.078626 
L 298.81633 -358.690798 
L 297.13399 -364.971827 
L 295.451651 -368.623981 
L 293.769311 -369.565423 
L 292.086972 -369.431591 
L 290.404632 -369.788065 
L 288.722292 -370.338091 
L 287.039953 -371.864813 
L 285.357613 -372.365612 
L 283.675274 -370.404983 
L 281.992934 -366.722248 
L 280.310594 -362.03149 
L 278.628255 -356.007043 
L 276.945915 -349.662376 
L 275.263576 -345.417771 
L 273.581236 -340.560425 
L 271.898897 -335.113842 
L 270.216557 -328.783538 
L 268.534217 -322.511775 
L 266.851878 -317.031798 
L 265.169538 -312.75131 
L 263.487199 -310.477899 
L 261.804859 -309.817099 
L 260.122519 -309.638943 
L 258.44018 -308.206656 
L 256.75784 -306.231111 
L 255.075501 -304.45874 
L 253.393161 -302.546563 
L 251.710822 -300.104539 
L 250.028482 -297.853328 
L 248.346142 -296.257035 
L 246.663803 -296.436307 
L 244.981463 -298.359773 
L 243.299124 -302.780901 
L 241.616784 -307.850828 
L 239.934444 -312.232242 
L 238.252105 -316.574423 
L 236.569765 -320.927839 
L 234.887426 -325.760641 
L 233.205086 -330.584642 
L 231.522746 -335.439179 
L 229.840407 -339.793644 
L 228.158067 -340.882415 
L 226.475728 -338.671787 
L 224.793388 -333.494965 
L 223.111049 -326.545011 
L 221.428709 -319.147938 
L 219.746369 -312.800039 
L 218.06403 -306.572773 
L 216.38169 -302.325642 
L 214.699351 -298.079625 
L 213.017011 -295.239085 
L 211.334671 -293.941582 
L 209.652332 -294.772946 
L 207.969992 -297.673369 
L 206.287653 -301.01383 
L 204.605313 -302.69358 
L 202.922974 -301.016322 
L 201.240634 -295.027782 
L 199.558294 -285.334221 
L 197.875955 -273.855977 
L 196.193615 -261.138255 
L 194.511276 -248.407041 
L 192.828936 -237.955629 
L 191.146596 -228.657804 
L 189.464257 -222.065287 
L 187.781917 -219.999471 
L 186.099578 -222.515979 
L 184.417238 -228.68499 
L 182.734899 -235.630044 
L 181.052559 -241.062695 
L 179.370219 -244.018658 
L 177.68788 -244.026386 
L 176.00554 -241.961135 
L 174.323201 -239.030415 
L 172.640861 -237.269694 
L 170.958521 -236.059945 
L 169.276182 -237.231444 
L 167.593842 -239.081027 
L 165.911503 -239.819948 
L 164.229163 -239.674286 
L 162.546823 -239.511428 
L 160.864484 -240.031842 
L 159.182144 -241.128203 
L 157.499805 -242.576445 
L 155.817465 -243.11266 
L 154.135126 -243.806259 
L 152.452786 -243.863135 
L 150.770446 -243.419816 
L 149.088107 -242.625448 
L 147.405767 -241.703115 
L 145.723428 -241.835447 
L 144.041088 -242.68084 
L 142.358748 -244.373523 
L 140.676409 -245.670218 
L 138.994069 -245.759901 
L 137.31173 -243.703377 
L 135.62939 -241.338309 
L 133.947051 -238.190886 
L 132.264711 -235.820357 
L 130.582371 -235.62306 
L 128.900032 -236.928032 
L 127.217692 -238.731691 
L 125.535353 -240.820635 
L 123.853013 -242.616194 
L 122.170673 -243.892773 
L 120.488334 -242.979527 
L 118.805994 -240.392012 
L 117.123655 -237.381563 
L 115.441315 -235.283464 
L 113.758976 -235.445704 
L 112.076636 -237.780651 
L 110.394296 -240.608342 
L 108.711957 -242.791787 
L 107.029617 -243.501052 
L 105.347278 -241.78245 
L 103.664938 -237.951457 
L 101.982598 -233.285222 
L 100.300259 -227.490728 
L 98.617919 -222.27964 
L 96.93558 -217.901379 
L 95.25324 -213.887103 
L 93.5709 -211.03641 
L 91.888561 -208.766545 
L 90.206221 -207.708796 
L 88.523882 -207.324586 
L 86.841542 -208.666804 
L 85.159203 -211.298375 
L 83.476863 -215.403075 
L 81.794523 -220.896345 
L 80.112184 -225.920451 
L 78.429844 -229.493808 
L 76.747505 -230.653224 
L 75.065165 -228.937503 
L 73.382825 -224.900854 
L 71.700486 -221.193714 
L 70.018146 -219.085691 
L 68.335807 -218.336416 
L 66.653467 -218.526051 
L 64.971128 -219.213445 
L 63.288788 -220.119812 
L 61.606448 -221.061694 
L 59.924109 -222.627355 
L 58.241769 -225.123196 
L 56.55943 -228.670392 
L 54.87709 -232.50343 
L 53.19475 -234.878384 
L 51.512411 -236.07691 
L 49.830071 -235.12643 
L 48.147732 -232.323582 
L 46.465392 -229.972709 
L 44.783052 -229.459907 
z
" style="stroke: #1f77b4; stroke-opacity: 0.3"/>
    </defs>
    <g>
     <use xlink:href="#m46227efe71" x="0" y="432" style="fill: #1f77b4; fill-opacity: 0.3; stroke: #1f77b4; stroke-opacity: 0.3"/>
    </g>
   </g>
   <g id="FillBetweenPolyCollection_2">
    <defs>
     <path id="mb41a17cffa" d="M 44.783052 -217.18903 
L 44.783052 -207.405939 
L 46.465392 -205.675511 
L 48.147732 -205.564894 
L 49.830071 -208.662207 
L 51.512411 -213.399897 
L 53.19475 -217.390661 
L 54.87709 -220.198151 
L 56.55943 -221.801643 
L 58.241769 -222.470712 
L 59.924109 -223.296885 
L 61.606448 -224.989425 
L 63.288788 -227.466594 
L 64.971128 -229.230389 
L 66.653467 -230.310788 
L 68.335807 -229.631261 
L 70.018146 -227.838718 
L 71.700486 -225.544322 
L 73.382825 -223.184633 
L 75.065165 -220.184927 
L 76.747505 -217.502734 
L 78.429844 -215.658649 
L 80.112184 -215.797193 
L 81.794523 -218.677579 
L 83.476863 -223.737408 
L 85.159203 -229.019255 
L 86.841542 -232.037046 
L 88.523882 -232.098846 
L 90.206221 -229.071217 
L 91.888561 -224.130274 
L 93.5709 -219.97579 
L 95.25324 -218.749739 
L 96.93558 -219.430794 
L 98.617919 -220.486148 
L 100.300259 -221.043618 
L 101.982598 -220.739399 
L 103.664938 -219.4928 
L 105.347278 -217.66047 
L 107.029617 -216.405333 
L 108.711957 -215.618622 
L 110.394296 -215.902275 
L 112.076636 -216.662181 
L 113.758976 -216.427876 
L 115.441315 -215.352679 
L 117.123655 -214.112167 
L 118.805994 -212.939097 
L 120.488334 -211.982216 
L 122.170673 -211.603039 
L 123.853013 -212.559798 
L 125.535353 -215.815116 
L 127.217692 -220.64575 
L 128.900032 -226.138956 
L 130.582371 -231.417303 
L 132.264711 -236.254139 
L 133.947051 -240.317671 
L 135.62939 -242.895517 
L 137.31173 -243.542358 
L 138.994069 -242.054828 
L 140.676409 -239.82064 
L 142.358748 -236.358922 
L 144.041088 -233.04611 
L 145.723428 -230.373585 
L 147.405767 -228.559013 
L 149.088107 -228.168132 
L 150.770446 -228.731307 
L 152.452786 -229.21954 
L 154.135126 -229.829473 
L 155.817465 -230.83502 
L 157.499805 -232.19362 
L 159.182144 -233.661458 
L 160.864484 -235.744682 
L 162.546823 -238.324742 
L 164.229163 -241.27858 
L 165.911503 -244.763806 
L 167.593842 -247.600561 
L 169.276182 -249.478576 
L 170.958521 -249.302419 
L 172.640861 -247.011667 
L 174.323201 -243.352988 
L 176.00554 -239.474747 
L 177.68788 -237.143666 
L 179.370219 -234.751945 
L 181.052559 -231.018258 
L 182.734899 -225.438844 
L 184.417238 -218.479755 
L 186.099578 -212.947235 
L 187.781917 -211.775497 
L 189.464257 -215.286102 
L 191.146596 -222.685663 
L 192.828936 -233.351755 
L 194.511276 -244.74461 
L 196.193615 -254.970998 
L 197.875955 -262.444813 
L 199.558294 -268.709413 
L 201.240634 -274.286922 
L 202.922974 -279.255457 
L 204.605313 -282.470514 
L 206.287653 -282.688962 
L 207.969992 -279.207705 
L 209.652332 -273.10839 
L 211.334671 -266.308456 
L 213.017011 -260.868137 
L 214.699351 -257.434697 
L 216.38169 -255.918773 
L 218.06403 -256.574844 
L 219.746369 -259.633005 
L 221.428709 -264.853282 
L 223.111049 -271.783079 
L 224.793388 -278.5607 
L 226.475728 -284.597826 
L 228.158067 -289.168087 
L 229.840407 -292.548758 
L 231.522746 -294.560463 
L 233.205086 -296.203338 
L 234.887426 -297.569391 
L 236.569765 -298.762718 
L 238.252105 -299.753585 
L 239.934444 -300.282235 
L 241.616784 -299.743081 
L 243.299124 -298.121057 
L 244.981463 -295.228513 
L 246.663803 -291.388694 
L 248.346142 -287.859027 
L 250.028482 -284.875522 
L 251.710822 -281.942789 
L 253.393161 -279.382331 
L 255.075501 -277.457562 
L 256.75784 -275.499762 
L 258.44018 -273.725296 
L 260.122519 -272.778956 
L 261.804859 -272.877837 
L 263.487199 -274.801391 
L 265.169538 -279.071237 
L 266.851878 -283.626613 
L 268.534217 -287.986715 
L 270.216557 -291.770639 
L 271.898897 -295.317157 
L 273.581236 -299.379067 
L 275.263576 -304.237021 
L 276.945915 -309.463902 
L 278.628255 -314.989706 
L 280.310594 -319.316804 
L 281.992934 -323.021318 
L 283.675274 -325.263932 
L 285.357613 -327.075528 
L 287.039953 -329.056879 
L 288.722292 -330.633485 
L 290.404632 -332.212249 
L 292.086972 -333.448839 
L 293.769311 -334.694868 
L 295.451651 -336.4306 
L 297.13399 -338.116757 
L 298.81633 -339.853285 
L 300.498669 -341.082222 
L 302.181009 -340.666761 
L 303.863349 -338.976478 
L 305.545688 -335.960104 
L 307.228028 -331.598663 
L 308.910367 -327.085578 
L 310.592707 -323.107338 
L 312.275047 -319.764897 
L 313.957386 -316.730317 
L 315.639726 -314.368719 
L 317.322065 -313.198999 
L 319.004405 -311.602464 
L 320.686745 -309.806128 
L 322.369084 -307.274687 
L 324.051424 -304.114486 
L 325.733763 -300.293408 
L 327.416103 -297.029692 
L 329.098442 -295.695645 
L 330.780782 -296.064327 
L 332.463122 -298.219121 
L 334.145461 -300.925286 
L 335.827801 -303.801196 
L 337.51014 -306.924155 
L 339.19248 -310.152487 
L 340.87482 -314.366434 
L 342.557159 -320.048474 
L 344.239499 -325.96708 
L 345.921838 -332.521718 
L 347.604178 -338.126293 
L 349.286517 -343.141935 
L 350.968857 -346.498524 
L 352.651197 -346.91811 
L 354.333536 -345.17958 
L 356.015876 -342.139066 
L 357.698215 -340.306966 
L 359.380555 -340.097428 
L 361.062895 -341.786173 
L 362.745234 -343.322599 
L 364.427574 -344.532483 
L 366.109913 -344.455727 
L 367.792253 -343.174028 
L 369.474593 -341.682025 
L 371.156932 -340.915273 
L 372.839272 -341.401053 
L 374.521611 -343.162965 
L 376.203951 -344.734584 
L 377.88629 -345.353349 
L 379.56863 -344.726344 
L 381.25097 -343.247237 
L 382.933309 -341.713369 
L 384.615649 -340.601526 
L 386.297988 -339.858828 
L 387.980328 -339.253156 
L 389.662668 -337.416321 
L 391.345007 -334.400342 
L 393.027347 -330.656821 
L 394.709686 -325.876575 
L 396.392026 -320.748939 
L 398.074365 -315.938823 
L 399.756705 -312.047311 
L 401.439045 -309.762576 
L 403.121384 -308.507184 
L 404.803724 -306.772631 
L 406.486063 -304.290106 
L 408.168403 -301.425632 
L 409.850743 -298.435064 
L 411.533082 -296.163934 
L 413.215422 -295.26787 
L 414.897761 -295.650936 
L 416.580101 -296.664124 
L 418.26244 -296.490581 
L 419.94478 -294.485799 
L 421.62712 -290.338042 
L 423.309459 -285.521298 
L 424.991799 -281.066168 
L 426.674138 -278.14376 
L 428.356478 -277.60025 
L 430.038818 -278.00377 
L 431.721157 -278.284018 
L 433.403497 -278.859932 
L 435.085836 -279.561671 
L 436.768176 -281.230389 
L 438.450516 -284.103767 
L 440.132855 -287.876574 
L 441.815195 -291.974081 
L 443.497534 -295.423914 
L 445.179874 -298.018763 
L 446.862213 -299.936859 
L 448.544553 -301.770487 
L 450.226893 -303.722572 
L 451.909232 -305.448767 
L 453.591572 -306.260696 
L 455.273911 -306.326939 
L 456.956251 -305.759341 
L 458.638591 -304.490203 
L 460.32093 -302.600701 
L 462.00327 -300.542669 
L 463.685609 -298.63992 
L 465.367949 -296.216759 
L 467.050288 -293.768432 
L 468.732628 -291.662019 
L 470.414968 -289.768645 
L 472.097307 -288.550372 
L 473.779647 -288.034823 
L 475.461986 -288.002138 
L 477.144326 -287.608593 
L 478.826666 -286.263251 
L 480.509005 -284.091698 
L 482.191345 -281.79653 
L 483.873684 -279.773864 
L 485.556024 -278.550856 
L 487.238363 -277.861456 
L 488.920703 -277.24578 
L 490.603043 -276.524753 
L 492.285382 -275.02464 
L 493.967722 -272.866857 
L 495.650061 -270.264452 
L 497.332401 -267.670305 
L 499.014741 -265.42699 
L 500.69708 -263.415178 
L 502.37942 -262.372746 
L 504.061759 -262.500226 
L 505.744099 -263.579536 
L 507.426439 -265.013726 
L 509.108778 -265.808597 
L 510.791118 -266.119574 
L 512.473457 -265.58789 
L 514.155797 -265.212762 
L 515.838136 -265.085845 
L 517.520476 -265.263807 
L 519.202816 -265.168619 
L 520.885155 -264.460977 
L 522.567495 -262.878784 
L 524.249834 -260.247816 
L 525.932174 -257.347333 
L 527.614514 -254.523873 
L 529.296853 -252.197739 
L 530.979193 -251.120599 
L 532.661532 -250.999536 
L 534.343872 -252.459864 
L 536.026211 -255.157432 
L 537.708551 -258.754055 
L 539.390891 -262.405734 
L 541.07323 -265.802235 
L 542.75557 -268.261882 
L 544.437909 -269.202461 
L 546.120249 -268.174542 
L 547.802589 -266.349265 
L 549.484928 -264.969191 
L 551.167268 -264.001006 
L 552.849607 -263.915475 
L 554.531947 -264.087782 
L 556.214286 -264.030099 
L 557.896626 -263.544099 
L 559.578966 -263.340293 
L 561.261305 -263.791211 
L 561.261305 -273.821809 
L 561.261305 -273.821809 
L 559.578966 -273.502882 
L 557.896626 -274.227037 
L 556.214286 -275.184606 
L 554.531947 -275.629192 
L 552.849607 -275.467122 
L 551.167268 -275.503592 
L 549.484928 -276.269178 
L 547.802589 -277.428221 
L 546.120249 -279.211111 
L 544.437909 -280.327544 
L 542.75557 -279.712452 
L 541.07323 -277.114132 
L 539.390891 -273.710203 
L 537.708551 -270.222045 
L 536.026211 -267.10374 
L 534.343872 -265.386374 
L 532.661532 -264.853649 
L 530.979193 -265.42699 
L 529.296853 -266.727602 
L 527.614514 -268.933212 
L 525.932174 -271.667373 
L 524.249834 -274.31653 
L 522.567495 -276.667686 
L 520.885155 -278.289011 
L 519.202816 -278.599369 
L 517.520476 -277.967152 
L 515.838136 -277.192993 
L 514.155797 -276.717902 
L 512.473457 -276.747318 
L 510.791118 -277.074985 
L 509.108778 -276.844275 
L 507.426439 -276.087933 
L 505.744099 -274.960317 
L 504.061759 -274.206773 
L 502.37942 -273.906724 
L 500.69708 -274.723645 
L 499.014741 -276.475484 
L 497.332401 -278.552318 
L 495.650061 -281.246 
L 493.967722 -283.853 
L 492.285382 -285.974914 
L 490.603043 -287.332546 
L 488.920703 -288.313802 
L 487.238363 -289.13065 
L 485.556024 -290.041405 
L 483.873684 -291.025899 
L 482.191345 -292.647 
L 480.509005 -294.543659 
L 478.826666 -296.867826 
L 477.144326 -298.246966 
L 475.461986 -298.535479 
L 473.779647 -298.613523 
L 472.097307 -299.343197 
L 470.414968 -300.866085 
L 468.732628 -303.090138 
L 467.050288 -305.415916 
L 465.367949 -307.842683 
L 463.685609 -309.788192 
L 462.00327 -311.42758 
L 460.32093 -313.04486 
L 458.638591 -314.620982 
L 456.956251 -315.647195 
L 455.273911 -316.365226 
L 453.591572 -316.379752 
L 451.909232 -315.317636 
L 450.226893 -313.390809 
L 448.544553 -311.336929 
L 446.862213 -309.234031 
L 445.179874 -307.073345 
L 443.497534 -304.406681 
L 441.815195 -300.840559 
L 440.132855 -296.74294 
L 438.450516 -293.510234 
L 436.768176 -291.090436 
L 435.085836 -289.68837 
L 433.403497 -289.387448 
L 431.721157 -289.055941 
L 430.038818 -288.736998 
L 428.356478 -288.266369 
L 426.674138 -288.723036 
L 424.991799 -291.540103 
L 423.309459 -295.867478 
L 421.62712 -300.67638 
L 419.94478 -304.870901 
L 418.26244 -307.240624 
L 416.580101 -307.421836 
L 414.897761 -306.17473 
L 413.215422 -305.891041 
L 411.533082 -306.962106 
L 409.850743 -309.330225 
L 408.168403 -312.560941 
L 406.486063 -315.645439 
L 404.803724 -318.067853 
L 403.121384 -319.661162 
L 401.439045 -320.977133 
L 399.756705 -323.537006 
L 398.074365 -327.567824 
L 396.392026 -332.440968 
L 394.709686 -337.653718 
L 393.027347 -341.812018 
L 391.345007 -345.189007 
L 389.662668 -347.652249 
L 387.980328 -349.271836 
L 386.297988 -350.118126 
L 384.615649 -351.004886 
L 382.933309 -352.188119 
L 381.25097 -353.4637 
L 379.56863 -354.994843 
L 377.88629 -355.589068 
L 376.203951 -355.029091 
L 374.521611 -353.540089 
L 372.839272 -351.961769 
L 371.156932 -351.637966 
L 369.474593 -352.618917 
L 367.792253 -354.078404 
L 366.109913 -355.333227 
L 364.427574 -355.290413 
L 362.745234 -354.208352 
L 361.062895 -353.076145 
L 359.380555 -351.779652 
L 357.698215 -352.47239 
L 356.015876 -354.724651 
L 354.333536 -357.577081 
L 352.651197 -359.286821 
L 350.968857 -358.767879 
L 349.286517 -355.406716 
L 347.604178 -349.959283 
L 345.921838 -343.985992 
L 344.239499 -337.572017 
L 342.557159 -331.69706 
L 340.87482 -325.747476 
L 339.19248 -321.060716 
L 337.51014 -317.728622 
L 335.827801 -314.314715 
L 334.145461 -310.982656 
L 332.463122 -307.902862 
L 330.780782 -305.708313 
L 329.098442 -305.704322 
L 327.416103 -306.859232 
L 325.733763 -309.758747 
L 324.051424 -313.663128 
L 322.369084 -316.873538 
L 320.686745 -319.553238 
L 319.004405 -321.723376 
L 317.322065 -323.233975 
L 315.639726 -324.522187 
L 313.957386 -326.713525 
L 312.275047 -329.750678 
L 310.592707 -333.051893 
L 308.910367 -336.978653 
L 307.228028 -341.779146 
L 305.545688 -345.929876 
L 303.863349 -348.662298 
L 302.181009 -350.403445 
L 300.498669 -350.923255 
L 298.81633 -349.98039 
L 297.13399 -348.25232 
L 295.451651 -346.872736 
L 293.769311 -345.115083 
L 292.086972 -343.973476 
L 290.404632 -342.743696 
L 288.722292 -341.210866 
L 287.039953 -339.084127 
L 285.357613 -336.990154 
L 283.675274 -335.229636 
L 281.992934 -333.044291 
L 280.310594 -329.760823 
L 278.628255 -325.713013 
L 276.945915 -320.279941 
L 275.263576 -314.828458 
L 273.581236 -309.372208 
L 271.898897 -305.061543 
L 270.216557 -301.571396 
L 268.534217 -297.981452 
L 266.851878 -294.098468 
L 265.169538 -289.607129 
L 263.487199 -285.513094 
L 261.804859 -283.18678 
L 260.122519 -282.656022 
L 258.44018 -283.260145 
L 256.75784 -284.940405 
L 255.075501 -287.114762 
L 253.393161 -289.125703 
L 251.710822 -291.681864 
L 250.028482 -294.630355 
L 248.346142 -297.185056 
L 246.663803 -300.501394 
L 244.981463 -304.194273 
L 243.299124 -307.180553 
L 241.616784 -309.104321 
L 239.934444 -309.818847 
L 238.252105 -309.393955 
L 236.569765 -308.243546 
L 234.887426 -306.848479 
L 233.205086 -305.630989 
L 231.522746 -304.040924 
L 229.840407 -302.06945 
L 228.158067 -298.584366 
L 226.475728 -294.166791 
L 224.793388 -288.286971 
L 223.111049 -281.341148 
L 221.428709 -274.693638 
L 219.746369 -269.607982 
L 218.06403 -266.875085 
L 216.38169 -266.111468 
L 214.699351 -267.457792 
L 213.017011 -271.171697 
L 211.334671 -276.731904 
L 209.652332 -283.789281 
L 207.969992 -290.037315 
L 206.287653 -293.569374 
L 204.605313 -293.413399 
L 202.922974 -289.91141 
L 201.240634 -284.838218 
L 199.558294 -279.002088 
L 197.875955 -272.516766 
L 196.193615 -264.965893 
L 194.511276 -254.561247 
L 192.828936 -243.016302 
L 191.146596 -231.826868 
L 189.464257 -223.940782 
L 187.781917 -220.382692 
L 186.099578 -221.610318 
L 184.417238 -227.032407 
L 182.734899 -234.22009 
L 181.052559 -239.772477 
L 179.370219 -243.443558 
L 177.68788 -245.744805 
L 176.00554 -247.814209 
L 174.323201 -251.446571 
L 172.640861 -254.909389 
L 170.958521 -257.366494 
L 169.276182 -258.057294 
L 167.593842 -256.384785 
L 165.911503 -253.820088 
L 164.229163 -250.539951 
L 162.546823 -247.656386 
L 160.864484 -245.080938 
L 159.182144 -242.975225 
L 157.499805 -240.902048 
L 155.817465 -239.305221 
L 154.135126 -238.08617 
L 152.452786 -237.480485 
L 150.770446 -237.258146 
L 149.088107 -237.232528 
L 147.405767 -237.727358 
L 145.723428 -239.466328 
L 144.041088 -241.715317 
L 142.358748 -244.674627 
L 140.676409 -247.765775 
L 138.994069 -250.06146 
L 137.31173 -251.613001 
L 135.62939 -250.987468 
L 133.947051 -248.446685 
L 132.264711 -244.267393 
L 130.582371 -238.931707 
L 128.900032 -233.119045 
L 127.217692 -227.46668 
L 125.535353 -222.768349 
L 123.853013 -219.433784 
L 122.170673 -218.356931 
L 120.488334 -218.701551 
L 118.805994 -219.51277 
L 117.123655 -220.643176 
L 115.441315 -221.751387 
L 113.758976 -222.738246 
L 112.076636 -222.958087 
L 110.394296 -222.66863 
L 108.711957 -222.554779 
L 107.029617 -222.855299 
L 105.347278 -223.95024 
L 103.664938 -225.862937 
L 101.982598 -227.581811 
L 100.300259 -228.107649 
L 98.617919 -227.754284 
L 96.93558 -226.50119 
L 95.25324 -225.463416 
L 93.5709 -226.499179 
L 91.888561 -230.632225 
L 90.206221 -235.901613 
L 88.523882 -239.053469 
L 86.841542 -238.898965 
L 85.159203 -235.688408 
L 83.476863 -230.426054 
L 81.794523 -225.127948 
L 80.112184 -222.006125 
L 78.429844 -221.761252 
L 76.747505 -223.499244 
L 75.065165 -226.001891 
L 73.382825 -229.012831 
L 71.700486 -231.28387 
L 70.018146 -233.697489 
L 68.335807 -235.740612 
L 66.653467 -236.927111 
L 64.971128 -236.3382 
L 63.288788 -234.969722 
L 61.606448 -232.533372 
L 59.924109 -230.97379 
L 58.241769 -230.214624 
L 56.55943 -229.441058 
L 54.87709 -227.738546 
L 53.19475 -225.04234 
L 51.512411 -221.696252 
L 49.830071 -217.71902 
L 48.147732 -215.192727 
L 46.465392 -215.319632 
L 44.783052 -217.18903 
z
" style="stroke: #ff7f0e; stroke-opacity: 0.3"/>
    </defs>
    <g>
     <use xlink:href="#mb41a17cffa" x="0" y="432" style="fill: #ff7f0e; fill-opacity: 0.3; stroke: #ff7f0e; stroke-opacity: 0.3"/>
    </g>
   </g>
   <g id="line2d_17">
    <path d="M 44.783052 208.907044 
L 46.465392 208.169953 
L 48.147732 205.397898 
L 49.830071 202.32253 
L 51.512411 201.298954 
L 53.19475 202.200259 
L 54.87709 204.739223 
L 56.55943 208.446968 
L 58.241769 211.607911 
L 59.924109 214.285575 
L 61.606448 215.939369 
L 63.288788 217.010442 
L 66.653467 218.868784 
L 68.335807 218.963439 
L 70.018146 218.191026 
L 71.700486 215.85055 
L 75.065165 207.779198 
L 76.747505 205.740493 
L 78.429844 206.462358 
L 80.112184 209.776075 
L 81.794523 214.473812 
L 83.476863 219.950661 
L 85.159203 224.16118 
L 86.841542 227.19117 
L 88.523882 228.487487 
L 90.206221 228.341477 
L 91.888561 227.336708 
L 93.5709 225.208694 
L 95.25324 222.211669 
L 96.93558 218.246993 
L 98.617919 213.75366 
L 100.300259 208.693592 
L 101.982598 202.737491 
L 103.664938 197.987014 
L 105.347278 194.091953 
L 107.029617 192.423835 
L 108.711957 193.182347 
L 110.394296 195.430865 
L 112.076636 198.123062 
L 113.758976 200.36407 
L 115.441315 200.545013 
L 117.123655 198.682971 
L 118.805994 196.133062 
L 120.488334 194.043792 
L 122.170673 193.39208 
L 123.853013 194.763061 
L 125.535353 196.527195 
L 127.217692 198.60696 
L 128.900032 200.436883 
L 130.582371 201.878753 
L 132.264711 201.769203 
L 133.947051 199.539249 
L 135.62939 196.420957 
L 137.31173 194.018949 
L 138.994069 192.021892 
L 140.676409 191.91855 
L 142.358748 193.189182 
L 144.041088 194.787552 
L 145.723428 195.746716 
L 147.405767 196.115482 
L 149.088107 195.440478 
L 152.452786 194.538997 
L 154.135126 194.792542 
L 155.817465 195.773574 
L 157.499805 196.581142 
L 159.182144 197.627394 
L 160.864484 198.46249 
L 162.546823 198.790204 
L 165.911503 198.436096 
L 167.593842 199.066504 
L 169.276182 200.686569 
L 170.958521 201.768041 
L 172.640861 200.800752 
L 174.323201 198.984325 
L 176.00554 196.033168 
L 177.68788 193.906563 
L 179.370219 193.748217 
L 181.052559 196.359178 
L 182.734899 201.607636 
L 184.417238 208.669991 
L 186.099578 215.218516 
L 187.781917 217.754288 
L 189.464257 215.787308 
L 191.146596 209.23118 
L 192.828936 200.252856 
L 194.511276 190.159606 
L 197.875955 165.472138 
L 199.558294 154.179188 
L 201.240634 144.797818 
L 202.922974 138.821687 
L 204.605313 136.93706 
L 206.287653 138.442158 
L 207.969992 141.676501 
L 209.652332 144.237331 
L 211.334671 144.820509 
L 213.017011 143.20469 
L 214.699351 140.384823 
L 218.06403 132.364659 
L 221.428709 119.22941 
L 224.793388 105.010799 
L 226.475728 99.885575 
L 228.158067 97.604849 
L 229.840407 98.799009 
L 231.522746 103.138487 
L 233.205086 108.485834 
L 236.569765 117.995122 
L 241.616784 130.925069 
L 243.299124 136.152105 
L 244.981463 140.424935 
L 246.663803 142.207777 
L 248.346142 142.196076 
L 250.028482 140.617509 
L 251.710822 138.483861 
L 253.393161 136.162626 
L 255.075501 134.07725 
L 258.44018 130.440183 
L 260.122519 129.187005 
L 261.804859 129.033411 
L 263.487199 128.404297 
L 265.169538 126.013089 
L 266.851878 121.674766 
L 268.534217 116.01007 
L 271.898897 103.33289 
L 273.581236 97.538101 
L 275.263576 92.530677 
L 276.945915 88.240008 
L 280.310594 75.751371 
L 281.992934 71.038399 
L 283.675274 67.241227 
L 285.357613 65.267542 
L 287.039953 66.112873 
L 288.722292 67.872594 
L 290.404632 68.69744 
L 292.086972 69.091982 
L 293.769311 68.915623 
L 295.451651 69.956395 
L 297.13399 73.337275 
L 298.81633 79.692328 
L 302.181009 94.06743 
L 305.545688 104.815326 
L 307.228028 109.035683 
L 308.910367 112.459947 
L 310.592707 115.027354 
L 312.275047 116.495512 
L 313.957386 116.509237 
L 315.639726 115.598816 
L 317.322065 113.383326 
L 319.004405 110.075936 
L 320.686745 107.344802 
L 325.733763 100.974444 
L 327.416103 97.331501 
L 329.098442 92.829864 
L 330.780782 87.221651 
L 332.463122 82.44183 
L 334.145461 78.047552 
L 337.51014 67.142071 
L 339.19248 62.782323 
L 340.87482 59.162323 
L 342.557159 55.984594 
L 349.286517 38.329963 
L 350.968857 35.316683 
L 352.651197 33.543365 
L 354.333536 31.950064 
L 356.015876 30.683066 
L 357.698215 29.163937 
L 359.380555 27.800517 
L 361.062895 25.937521 
L 362.745234 25.066724 
L 364.427574 24.941077 
L 367.792253 25.392264 
L 369.474593 25.539363 
L 371.156932 25.473483 
L 372.839272 26.766925 
L 374.521611 29.273447 
L 376.203951 33.797858 
L 379.56863 43.922863 
L 381.25097 46.868186 
L 382.933309 47.445678 
L 384.615649 47.529525 
L 386.297988 48.885348 
L 387.980328 50.949625 
L 389.662668 53.338096 
L 393.027347 57.353908 
L 394.709686 59.304555 
L 396.392026 62.793186 
L 398.074365 67.865123 
L 401.439045 80.860106 
L 403.121384 85.636513 
L 404.803724 89.956155 
L 406.486063 94.818274 
L 413.215422 117.656442 
L 414.897761 121.696915 
L 416.580101 125.416574 
L 419.94478 133.184504 
L 421.62712 135.754239 
L 423.309459 136.067305 
L 424.991799 135.288637 
L 426.674138 134.375146 
L 428.356478 133.704521 
L 430.038818 134.534188 
L 431.721157 137.803567 
L 433.403497 140.540235 
L 435.085836 142.176036 
L 436.768176 142.098312 
L 438.450516 141.48741 
L 440.132855 140.657996 
L 443.497534 137.63468 
L 446.862213 133.800527 
L 448.544553 132.232382 
L 450.226893 131.94741 
L 451.909232 132.566146 
L 453.591572 134.185125 
L 455.273911 136.222498 
L 456.956251 136.623176 
L 458.638591 135.289155 
L 462.00327 130.553181 
L 463.685609 129.135912 
L 465.367949 129.524521 
L 467.050288 131.679497 
L 468.732628 134.823162 
L 470.414968 137.264117 
L 472.097307 137.856467 
L 473.779647 137.234054 
L 475.461986 136.31289 
L 477.144326 135.985505 
L 478.826666 137.299862 
L 482.191345 142.564256 
L 483.873684 143.968634 
L 485.556024 143.667837 
L 487.238363 142.031355 
L 488.920703 139.922526 
L 490.603043 138.817647 
L 492.285382 139.274494 
L 493.967722 141.188854 
L 495.650061 144.021206 
L 497.332401 147.113278 
L 499.014741 149.793475 
L 500.69708 152.262675 
L 502.37942 154.190492 
L 504.061759 155.729009 
L 505.744099 156.434875 
L 509.108778 156.908669 
L 510.791118 157.416249 
L 512.473457 158.534703 
L 514.155797 159.894351 
L 515.838136 160.953024 
L 517.520476 162.183464 
L 519.202816 163.582928 
L 520.885155 165.474635 
L 522.567495 167.585918 
L 524.249834 169.303865 
L 525.932174 170.43816 
L 527.614514 170.774108 
L 529.296853 170.644307 
L 530.979193 170.825492 
L 532.661532 171.392636 
L 534.343872 172.286862 
L 536.026211 173.359707 
L 537.708551 173.833685 
L 539.390891 173.402226 
L 541.07323 173.351122 
L 542.75557 174.051913 
L 544.437909 174.501842 
L 546.120249 173.943391 
L 549.484928 169.959005 
L 551.167268 168.671371 
L 552.849607 169.257698 
L 554.531947 172.044926 
L 556.214286 175.493825 
L 557.896626 177.938016 
L 559.578966 178.58477 
L 561.261305 177.711231 
L 561.261305 177.711231 
" style="fill: none; stroke: #1f77b4; stroke-width: 1.5; stroke-linecap: square"/>
   </g>
   <g id="line2d_18">
    <path d="M 44.783052 219.590019 
L 46.465392 221.380915 
L 48.147732 221.511273 
L 49.830071 218.763967 
L 51.512411 214.456869 
L 53.19475 210.795342 
L 54.87709 208.048606 
L 56.55943 206.342646 
L 59.924109 204.99789 
L 61.606448 203.377735 
L 63.288788 200.936991 
L 64.971128 199.17459 
L 66.653467 198.265959 
L 68.335807 199.204804 
L 70.018146 201.148234 
L 73.382825 205.834929 
L 75.065165 208.871292 
L 76.747505 211.496222 
L 78.429844 213.273468 
L 80.112184 213.037458 
L 81.794523 210.097555 
L 85.159203 199.632958 
L 86.841542 196.558494 
L 88.523882 196.506594 
L 90.206221 199.587787 
L 91.888561 204.68461 
L 93.5709 208.763644 
L 95.25324 209.961192 
L 96.93558 208.98252 
L 98.617919 207.804982 
L 100.300259 207.425686 
L 101.982598 207.78688 
L 103.664938 209.33823 
L 105.347278 211.106791 
L 107.029617 212.2556 
L 108.711957 212.86567 
L 110.394296 212.674241 
L 112.076636 212.137263 
L 113.758976 212.418004 
L 120.488334 216.806231 
L 122.170673 217.112509 
L 123.853013 216.13457 
L 125.535353 212.804419 
L 127.217692 208.032651 
L 130.582371 196.837481 
L 132.264711 191.768605 
L 133.947051 187.756804 
L 135.62939 185.178252 
L 137.31173 184.546047 
L 138.994069 186.025374 
L 140.676409 188.355698 
L 144.041088 194.640472 
L 145.723428 197.100373 
L 147.405767 198.811668 
L 149.088107 199.216003 
L 152.452786 198.50805 
L 154.135126 197.956947 
L 155.817465 196.85015 
L 157.499805 195.442518 
L 159.182144 193.686376 
L 160.864484 191.614386 
L 162.546823 189.112659 
L 164.229163 186.213708 
L 165.911503 182.862432 
L 167.593842 180.137251 
L 169.276182 178.399609 
L 170.958521 178.772226 
L 172.640861 181.181377 
L 176.00554 188.408083 
L 179.370219 192.935659 
L 181.052559 196.560588 
L 182.734899 202.08141 
L 184.417238 209.292354 
L 186.099578 214.805685 
L 187.781917 216.085666 
L 189.464257 212.498642 
L 191.146596 204.724161 
L 196.193615 172.143377 
L 197.875955 164.585992 
L 199.558294 158.163602 
L 201.240634 152.462043 
L 202.922974 147.442608 
L 204.605313 144.00387 
L 206.287653 143.837946 
L 207.969992 147.333728 
L 209.652332 153.481203 
L 211.334671 160.375516 
L 213.017011 165.932339 
L 214.699351 169.501939 
L 216.38169 170.931839 
L 218.06403 170.075843 
L 219.746369 167.228028 
L 221.428709 162.145068 
L 224.793388 148.504342 
L 226.475728 142.543125 
L 228.158067 138.084455 
L 229.840407 134.632648 
L 231.522746 132.597931 
L 233.205086 131.061323 
L 236.569765 128.499651 
L 238.252105 127.439386 
L 239.934444 127.028356 
L 241.616784 127.610115 
L 243.299124 129.309038 
L 244.981463 132.25156 
L 246.663803 136.089091 
L 248.346142 139.42728 
L 253.393161 147.515978 
L 256.75784 151.721693 
L 258.44018 153.434269 
L 260.122519 154.332302 
L 261.804859 154.16722 
L 263.487199 151.917555 
L 265.169538 147.693319 
L 266.851878 143.156622 
L 268.534217 139.061863 
L 273.581236 127.532864 
L 276.945915 117.159545 
L 278.628255 111.684248 
L 280.310594 107.459163 
L 281.992934 103.926768 
L 283.675274 101.686064 
L 285.357613 100.003362 
L 288.722292 96.117924 
L 290.404632 94.636719 
L 292.086972 93.484655 
L 293.769311 92.177018 
L 298.81633 87.172023 
L 300.498669 86.116017 
L 302.181009 86.480024 
L 303.863349 88.214555 
L 305.545688 91.081399 
L 307.228028 95.272454 
L 308.910367 99.92497 
L 310.592707 103.812717 
L 313.957386 110.049159 
L 315.639726 112.318303 
L 317.322065 113.686581 
L 319.004405 115.216177 
L 320.686745 117.218877 
L 322.369084 119.824198 
L 324.051424 122.98718 
L 325.733763 127.016575 
L 327.416103 130.098359 
L 329.098442 131.208276 
L 330.780782 130.93188 
L 332.463122 128.823141 
L 335.827801 122.830568 
L 339.19248 116.305471 
L 340.87482 111.765114 
L 344.239499 100.003107 
L 345.921838 93.577593 
L 347.604178 87.85084 
L 349.286517 82.718986 
L 350.968857 79.379043 
L 352.651197 78.842889 
L 354.333536 80.63018 
L 356.015876 83.585999 
L 357.698215 85.756032 
L 359.380555 86.078811 
L 362.745234 83.262065 
L 364.427574 82.241359 
L 366.109913 82.236881 
L 367.792253 83.460902 
L 369.474593 84.944057 
L 371.156932 85.750502 
L 372.839272 85.353238 
L 374.521611 83.634208 
L 376.203951 82.10044 
L 377.88629 81.432635 
L 379.56863 82.021577 
L 381.25097 83.586169 
L 382.933309 84.941916 
L 384.615649 86.139341 
L 386.297988 87.030975 
L 387.980328 87.668353 
L 389.662668 89.390648 
L 391.345007 92.060062 
L 393.027347 95.634691 
L 394.709686 100.070672 
L 398.074365 110.032467 
L 399.756705 114.096579 
L 401.439045 116.352018 
L 403.121384 117.675988 
L 404.803724 119.412689 
L 406.486063 121.924528 
L 409.850743 127.926525 
L 411.533082 130.24219 
L 413.215422 131.236556 
L 414.897761 130.843164 
L 416.580101 129.792204 
L 418.26244 129.938637 
L 419.94478 132.11198 
L 421.62712 136.360715 
L 423.309459 141.169988 
L 424.991799 145.636754 
L 426.674138 148.462643 
L 428.356478 149.051808 
L 433.403497 147.782988 
L 435.085836 147.154319 
L 436.768176 145.608834 
L 438.450516 143.123955 
L 440.132855 139.553792 
L 441.815195 135.462481 
L 443.497534 131.982612 
L 445.179874 129.435754 
L 448.544553 125.405228 
L 451.909232 121.596816 
L 453.591572 120.574926 
L 455.273911 120.482199 
L 456.956251 121.117148 
L 458.638591 122.324691 
L 462.00327 125.880933 
L 463.685609 127.783325 
L 470.414968 136.800046 
L 472.097307 138.148694 
L 473.779647 138.75093 
L 475.461986 138.739931 
L 477.144326 139.028196 
L 478.826666 140.392842 
L 482.191345 144.846401 
L 483.873684 146.541441 
L 485.556024 147.56402 
L 490.603043 150.042942 
L 492.285382 151.439542 
L 493.967722 153.527409 
L 497.332401 158.78601 
L 499.014741 161.004366 
L 500.69708 162.939279 
L 502.37942 163.900321 
L 504.061759 163.7225 
L 505.744099 162.650756 
L 507.426439 161.358877 
L 509.108778 160.508299 
L 510.791118 160.28996 
L 514.155797 160.901622 
L 515.838136 160.78457 
L 519.202816 160.078313 
L 520.885155 160.561767 
L 522.567495 162.162956 
L 524.249834 164.662575 
L 527.614514 170.23578 
L 529.296853 172.512917 
L 530.979193 173.885411 
L 532.661532 174.129983 
L 534.343872 173.136256 
L 536.026211 170.931421 
L 537.708551 167.604864 
L 541.07323 160.538924 
L 542.75557 158.026603 
L 544.437909 157.258071 
L 546.120249 158.34669 
L 547.802589 160.075081 
L 549.484928 161.414483 
L 551.167268 162.272518 
L 552.849607 162.361845 
L 554.531947 162.184112 
L 556.214286 162.478369 
L 557.896626 163.205958 
L 559.578966 163.677121 
L 561.261305 163.42821 
L 561.261305 163.42821 
" style="fill: none; stroke: #ff7f0e; stroke-width: 1.5; stroke-linecap: square"/>
   </g>
  </g>
  <g id="axes_2">
   <g id="PathCollection_1">
    <defs>
     <path id="C0_0_b4cafe8589" d="M 0 1.118034 
C 0.296506 1.118034 0.580908 1.000231 0.790569 0.790569 
C 1.000231 0.580908 1.118034 0.296506 1.118034 -0 
C 1.118034 -0.296506 1.000231 -0.580908 0.790569 -0.790569 
C 0.580908 -1.000231 0.296506 -1.118034 0 -1.118034 
C -0.296506 -1.118034 -0.580908 -1.000231 -0.790569 -0.790569 
C -1.000231 -0.580908 -1.118034 -0.296506 -1.118034 0 
C -1.118034 0.296506 -1.000231 0.580908 -0.790569 0.790569 
C -0.580908 1.000231 -0.296506 1.118034 0 1.118034 
z
"/>
    </defs>
    <g clip-path="url(#p5d71bc075b)">
     <use xlink:href="#C0_0_b4cafe8589" x="509.13937" y="46.64915" style="stroke: #000000"/>
    </g>
    <g clip-path="url(#p5d71bc075b)">
     <use xlink:href="#C0_0_b4cafe8589" x="509.147251" y="56.277599" style="stroke: #000000"/>
    </g>
    <g clip-path="url(#p5d71bc075b)">
     <use xlink:href="#C0_0_b4cafe8589" x="509.092397" y="76.413687" style="stroke: #000000"/>
    </g>
    <g clip-path="url(#p5d71bc075b)">
     <use xlink:href="#C0_0_b4cafe8589" x="509.035125" y="85.80057" style="stroke: #000000"/>
    </g>
    <g clip-path="url(#p5d71bc075b)">
     <use xlink:href="#C0_0_b4cafe8589" x="509.130245" y="66.304876" style="stroke: #000000"/>
    </g>
   </g>
   <g id="matplotlib.axis_3"/>
   <g id="matplotlib.axis_4"/>
   <g id="line2d_19">
    <path d="M 548.860095 73.636387 
L 548.782417 71.164635 
L 548.54969 68.702638 
L 548.162832 66.260111 
L 547.623369 63.846696 
L 546.933432 61.471916 
L 546.095742 59.145144 
L 545.113607 56.875562 
L 543.990901 54.672127 
L 542.732055 52.543535 
L 541.342038 50.498188 
L 539.826336 48.544156 
L 538.19093 46.689152 
L 536.442274 44.940496 
L 534.58727 43.30509 
L 532.633238 41.789388 
L 530.587891 40.399371 
L 528.459299 39.140526 
L 526.255865 38.017819 
L 523.986282 37.035684 
L 521.65951 36.197994 
L 519.28473 35.508057 
L 516.871315 34.968594 
L 514.428789 34.581736 
L 511.966791 34.349009 
L 509.495039 34.271331 
L 507.023286 34.349009 
L 504.561289 34.581736 
L 502.118763 34.968594 
L 499.705347 35.508057 
L 497.330567 36.197994 
L 495.003795 37.035684 
L 492.734213 38.017819 
L 490.530778 39.140526 
L 488.402187 40.399371 
L 486.356839 41.789388 
L 484.402808 43.30509 
L 482.547803 44.940496 
L 480.799148 46.689152 
L 479.163742 48.544156 
L 477.648039 50.498188 
L 476.258022 52.543535 
L 474.999177 54.672127 
L 473.876471 56.875562 
L 472.894335 59.145144 
L 472.056645 61.471916 
L 471.366708 63.846696 
L 470.827246 66.260111 
L 470.440388 68.702638 
L 470.20766 71.164635 
L 470.129982 73.636387 
L 470.20766 76.10814 
L 470.440388 78.570137 
L 470.827246 81.012663 
L 471.366708 83.426079 
L 472.056645 85.800859 
L 472.894335 88.127631 
L 473.876471 90.397213 
L 474.999177 92.600648 
L 476.258022 94.729239 
L 477.648039 96.774587 
L 479.163742 98.728619 
L 480.799148 100.583623 
L 482.547803 102.332278 
L 484.402808 103.967685 
L 486.356839 105.483387 
L 488.402187 106.873404 
L 490.530778 108.132249 
L 492.734213 109.254955 
L 495.003795 110.237091 
L 497.330567 111.074781 
L 499.705347 111.764718 
L 502.118763 112.30418 
L 504.561289 112.691038 
L 507.023286 112.923766 
L 509.495039 113.001444 
L 511.966791 112.923766 
L 514.428789 112.691038 
L 516.871315 112.30418 
L 519.28473 111.764718 
L 521.65951 111.074781 
L 523.986282 110.237091 
L 526.255865 109.254955 
L 528.459299 108.132249 
L 530.587891 106.873404 
L 532.633238 105.483387 
L 534.58727 103.967685 
L 536.442274 102.332278 
L 538.19093 100.583623 
L 539.826336 98.728619 
L 541.342038 96.774587 
L 542.732055 94.729239 
L 543.990901 92.600648 
L 545.113607 90.397213 
L 546.095742 88.127631 
L 546.933432 85.800859 
L 547.623369 83.426079 
L 548.162832 81.012663 
L 548.54969 78.570137 
L 548.782417 76.10814 
L 548.860095 73.636387 
" style="fill: none; stroke: #000000; stroke-linecap: square"/>
   </g>
   <g id="line2d_20">
    <path d="M 501.250441 35.144385 
L 509.495039 28.366573 
L 517.739637 35.144385 
" style="fill: none; stroke: #000000; stroke-linecap: square"/>
   </g>
   <g id="line2d_21">
    <path d="M 470.366173 69.266866 
L 469.342681 67.534804 
L 468.71284 67.47182 
L 467.775952 67.763121 
L 466.831191 69.266866 
L 466.980778 74.069403 
L 466.429667 80.974034 
L 467.610619 83.973651 
L 469.342681 84.532635 
L 470.996014 83.076128 
" style="fill: none; stroke: #000000; stroke-linecap: square"/>
   </g>
   <g id="line2d_22">
    <path d="M 548.623905 69.266866 
L 549.647396 67.534804 
L 550.277237 67.47182 
L 551.214125 67.763121 
L 552.158887 69.266866 
L 552.0093 74.069403 
L 552.56041 80.974034 
L 551.379459 83.973651 
L 549.647396 84.532635 
L 547.994064 83.076128 
" style="fill: none; stroke: #000000; stroke-linecap: square"/>
   </g>
  </g>
 </g>
 <defs>
  <clipPath id="paed390f84a">
   <rect x="44.783053" y="18.118365" width="517.083895" height="380.525145"/>
  </clipPath>
  <clipPath id="p5d71bc075b">
   <rect x="462.12313" y="24.134829" width="94.743817" height="93.098358"/>
  </clipPath>
 </defs>
</svg>
