<?xml version="1.0" encoding="utf-8" standalone="no"?>
<!DOCTYPE svg PUBLIC "-//W3C//DTD SVG 1.1//EN"
  "http://www.w3.org/Graphics/SVG/1.1/DTD/svg11.dtd">
<svg xmlns:xlink="http://www.w3.org/1999/xlink" width="576pt" height="432pt" viewBox="0 0 576 432" xmlns="http://www.w3.org/2000/svg" version="1.1">
 <metadata>
  <rdf:RDF xmlns:dc="http://purl.org/dc/elements/1.1/" xmlns:cc="http://creativecommons.org/ns#" xmlns:rdf="http://www.w3.org/1999/02/22-rdf-syntax-ns#">
   <cc:Work>
    <dc:type rdf:resource="http://purl.org/dc/dcmitype/StillImage"/>
    <dc:date>2025-02-20T17:25:27.898731</dc:date>
    <dc:format>image/svg+xml</dc:format>
    <dc:creator>
     <cc:Agent>
      <dc:title>Matplotlib v3.10.0, https://matplotlib.org/</dc:title>
     </cc:Agent>
    </dc:creator>
   </cc:Work>
  </rdf:RDF>
 </metadata>
 <defs>
  <style type="text/css">*{stroke-linejoin: round; stroke-linecap: butt}</style>
 </defs>
 <g id="figure_1">
  <g id="patch_1">
   <path d="M 0 432 
L 576 432 
L 576 0 
L 0 0 
z
" style="fill: #ffffff"/>
  </g>
  <g id="axes_1">
   <g id="patch_2">
    <path d="M 44.783053 398.64351 
L 561.866947 398.64351 
L 561.866947 18.118365 
L 44.783053 18.118365 
L 44.783053 398.64351 
z
" style="fill: none; opacity: 0"/>
   </g>
   <g id="patch_3">
    <path d="M 44.783053 353.87823 
L 44.783053 62.883645 
" style="fill: none; stroke: #000000; stroke-width: 0.8; stroke-linejoin: miter; stroke-linecap: square"/>
   </g>
   <g id="LineCollection_1">
    <path d="M 247.471326 18.118365 
L 247.471326 398.64351 
" clip-path="url(#p13a9292315)" style="fill: none; stroke-dasharray: 3.7,1.6; stroke-dashoffset: 0; stroke: #000000"/>
    <path d="M 303.459587 18.118365 
L 303.459587 398.64351 
" clip-path="url(#p13a9292315)" style="fill: none; stroke-dasharray: 3.7,1.6; stroke-dashoffset: 0; stroke: #000000"/>
   </g>
   <g id="matplotlib.axis_1">
    <g id="xtick_1">
     <g id="line2d_1">
      <defs>
       <path id="m431e9d5175" d="M 0 0 
L 0 3.5 
" style="stroke: #000000; stroke-width: 0.8"/>
      </defs>
      <g>
       <use xlink:href="#m431e9d5175" x="45.052227" y="398.64351" style="stroke: #000000; stroke-width: 0.8"/>
      </g>
     </g>
     <g id="text_1">
      <!-- −0.20 -->
      <g transform="translate(29.729571 413.241947) scale(0.1 -0.1)">
       <defs>
        <path id="DejaVuSans-2212" d="M 678 2272 
L 4684 2272 
L 4684 1741 
L 678 1741 
L 678 2272 
z
" transform="scale(0.015625)"/>
        <path id="DejaVuSans-30" d="M 2034 4250 
Q 1547 4250 1301 3770 
Q 1056 3291 1056 2328 
Q 1056 1369 1301 889 
Q 1547 409 2034 409 
Q 2525 409 2770 889 
Q 3016 1369 3016 2328 
Q 3016 3291 2770 3770 
Q 2525 4250 2034 4250 
z
M 2034 4750 
Q 2819 4750 3233 4129 
Q 3647 3509 3647 2328 
Q 3647 1150 3233 529 
Q 2819 -91 2034 -91 
Q 1250 -91 836 529 
Q 422 1150 422 2328 
Q 422 3509 836 4129 
Q 1250 4750 2034 4750 
z
" transform="scale(0.015625)"/>
        <path id="DejaVuSans-2e" d="M 684 794 
L 1344 794 
L 1344 0 
L 684 0 
L 684 794 
z
" transform="scale(0.015625)"/>
        <path id="DejaVuSans-32" d="M 1228 531 
L 3431 531 
L 3431 0 
L 469 0 
L 469 531 
Q 828 903 1448 1529 
Q 2069 2156 2228 2338 
Q 2531 2678 2651 2914 
Q 2772 3150 2772 3378 
Q 2772 3750 2511 3984 
Q 2250 4219 1831 4219 
Q 1534 4219 1204 4116 
Q 875 4013 500 3803 
L 500 4441 
Q 881 4594 1212 4672 
Q 1544 4750 1819 4750 
Q 2544 4750 2975 4387 
Q 3406 4025 3406 3419 
Q 3406 3131 3298 2873 
Q 3191 2616 2906 2266 
Q 2828 2175 2409 1742 
Q 1991 1309 1228 531 
z
" transform="scale(0.015625)"/>
       </defs>
       <use xlink:href="#DejaVuSans-2212"/>
       <use xlink:href="#DejaVuSans-30" transform="translate(83.789062 0)"/>
       <use xlink:href="#DejaVuSans-2e" transform="translate(147.412109 0)"/>
       <use xlink:href="#DejaVuSans-32" transform="translate(179.199219 0)"/>
       <use xlink:href="#DejaVuSans-30" transform="translate(242.822266 0)"/>
      </g>
     </g>
    </g>
    <g id="xtick_2">
     <g id="line2d_2">
      <g>
       <use xlink:href="#m431e9d5175" x="131.188014" y="398.64351" style="stroke: #000000; stroke-width: 0.8"/>
      </g>
     </g>
     <g id="text_2">
      <!-- 0.00 -->
      <g transform="translate(120.055201 413.241947) scale(0.1 -0.1)">
       <use xlink:href="#DejaVuSans-30"/>
       <use xlink:href="#DejaVuSans-2e" transform="translate(63.623047 0)"/>
       <use xlink:href="#DejaVuSans-30" transform="translate(95.410156 0)"/>
       <use xlink:href="#DejaVuSans-30" transform="translate(159.033203 0)"/>
      </g>
     </g>
    </g>
    <g id="xtick_3">
     <g id="line2d_3">
      <g>
       <use xlink:href="#m431e9d5175" x="217.3238" y="398.64351" style="stroke: #000000; stroke-width: 0.8"/>
      </g>
     </g>
     <g id="text_3">
      <!-- 0.20 -->
      <g transform="translate(206.190988 413.241947) scale(0.1 -0.1)">
       <use xlink:href="#DejaVuSans-30"/>
       <use xlink:href="#DejaVuSans-2e" transform="translate(63.623047 0)"/>
       <use xlink:href="#DejaVuSans-32" transform="translate(95.410156 0)"/>
       <use xlink:href="#DejaVuSans-30" transform="translate(159.033203 0)"/>
      </g>
     </g>
    </g>
    <g id="xtick_4">
     <g id="line2d_4">
      <g>
       <use xlink:href="#m431e9d5175" x="247.471326" y="398.64351" style="stroke: #000000; stroke-width: 0.8"/>
      </g>
     </g>
     <g id="text_4">
      <!-- 0.27 -->
      <g transform="translate(236.338513 413.241947) scale(0.1 -0.1)">
       <defs>
        <path id="DejaVuSans-37" d="M 525 4666 
L 3525 4666 
L 3525 4397 
L 1831 0 
L 1172 0 
L 2766 4134 
L 525 4134 
L 525 4666 
z
" transform="scale(0.015625)"/>
       </defs>
       <use xlink:href="#DejaVuSans-30"/>
       <use xlink:href="#DejaVuSans-2e" transform="translate(63.623047 0)"/>
       <use xlink:href="#DejaVuSans-32" transform="translate(95.410156 0)"/>
       <use xlink:href="#DejaVuSans-37" transform="translate(159.033203 0)"/>
      </g>
     </g>
    </g>
    <g id="xtick_5">
     <g id="line2d_5">
      <g>
       <use xlink:href="#m431e9d5175" x="303.459587" y="398.64351" style="stroke: #000000; stroke-width: 0.8"/>
      </g>
     </g>
     <g id="text_5">
      <!-- 0.40 -->
      <g transform="translate(292.326775 413.241947) scale(0.1 -0.1)">
       <defs>
        <path id="DejaVuSans-34" d="M 2419 4116 
L 825 1625 
L 2419 1625 
L 2419 4116 
z
M 2253 4666 
L 3047 4666 
L 3047 1625 
L 3713 1625 
L 3713 1100 
L 3047 1100 
L 3047 0 
L 2419 0 
L 2419 1100 
L 313 1100 
L 313 1709 
L 2253 4666 
z
" transform="scale(0.015625)"/>
       </defs>
       <use xlink:href="#DejaVuSans-30"/>
       <use xlink:href="#DejaVuSans-2e" transform="translate(63.623047 0)"/>
       <use xlink:href="#DejaVuSans-34" transform="translate(95.410156 0)"/>
       <use xlink:href="#DejaVuSans-30" transform="translate(159.033203 0)"/>
      </g>
     </g>
    </g>
    <g id="xtick_6">
     <g id="line2d_6">
      <g>
       <use xlink:href="#m431e9d5175" x="389.595374" y="398.64351" style="stroke: #000000; stroke-width: 0.8"/>
      </g>
     </g>
     <g id="text_6">
      <!-- 0.60 -->
      <g transform="translate(378.462561 413.241947) scale(0.1 -0.1)">
       <defs>
        <path id="DejaVuSans-36" d="M 2113 2584 
Q 1688 2584 1439 2293 
Q 1191 2003 1191 1497 
Q 1191 994 1439 701 
Q 1688 409 2113 409 
Q 2538 409 2786 701 
Q 3034 994 3034 1497 
Q 3034 2003 2786 2293 
Q 2538 2584 2113 2584 
z
M 3366 4563 
L 3366 3988 
Q 3128 4100 2886 4159 
Q 2644 4219 2406 4219 
Q 1781 4219 1451 3797 
Q 1122 3375 1075 2522 
Q 1259 2794 1537 2939 
Q 1816 3084 2150 3084 
Q 2853 3084 3261 2657 
Q 3669 2231 3669 1497 
Q 3669 778 3244 343 
Q 2819 -91 2113 -91 
Q 1303 -91 875 529 
Q 447 1150 447 2328 
Q 447 3434 972 4092 
Q 1497 4750 2381 4750 
Q 2619 4750 2861 4703 
Q 3103 4656 3366 4563 
z
" transform="scale(0.015625)"/>
       </defs>
       <use xlink:href="#DejaVuSans-30"/>
       <use xlink:href="#DejaVuSans-2e" transform="translate(63.623047 0)"/>
       <use xlink:href="#DejaVuSans-36" transform="translate(95.410156 0)"/>
       <use xlink:href="#DejaVuSans-30" transform="translate(159.033203 0)"/>
      </g>
     </g>
    </g>
    <g id="xtick_7">
     <g id="line2d_7">
      <g>
       <use xlink:href="#m431e9d5175" x="475.731161" y="398.64351" style="stroke: #000000; stroke-width: 0.8"/>
      </g>
     </g>
     <g id="text_7">
      <!-- 0.80 -->
      <g transform="translate(464.598348 413.241947) scale(0.1 -0.1)">
       <defs>
        <path id="DejaVuSans-38" d="M 2034 2216 
Q 1584 2216 1326 1975 
Q 1069 1734 1069 1313 
Q 1069 891 1326 650 
Q 1584 409 2034 409 
Q 2484 409 2743 651 
Q 3003 894 3003 1313 
Q 3003 1734 2745 1975 
Q 2488 2216 2034 2216 
z
M 1403 2484 
Q 997 2584 770 2862 
Q 544 3141 544 3541 
Q 544 4100 942 4425 
Q 1341 4750 2034 4750 
Q 2731 4750 3128 4425 
Q 3525 4100 3525 3541 
Q 3525 3141 3298 2862 
Q 3072 2584 2669 2484 
Q 3125 2378 3379 2068 
Q 3634 1759 3634 1313 
Q 3634 634 3220 271 
Q 2806 -91 2034 -91 
Q 1263 -91 848 271 
Q 434 634 434 1313 
Q 434 1759 690 2068 
Q 947 2378 1403 2484 
z
M 1172 3481 
Q 1172 3119 1398 2916 
Q 1625 2713 2034 2713 
Q 2441 2713 2670 2916 
Q 2900 3119 2900 3481 
Q 2900 3844 2670 4047 
Q 2441 4250 2034 4250 
Q 1625 4250 1398 4047 
Q 1172 3844 1172 3481 
z
" transform="scale(0.015625)"/>
       </defs>
       <use xlink:href="#DejaVuSans-30"/>
       <use xlink:href="#DejaVuSans-2e" transform="translate(63.623047 0)"/>
       <use xlink:href="#DejaVuSans-38" transform="translate(95.410156 0)"/>
       <use xlink:href="#DejaVuSans-30" transform="translate(159.033203 0)"/>
      </g>
     </g>
    </g>
    <g id="xtick_8">
     <g id="line2d_8">
      <g>
       <use xlink:href="#m431e9d5175" x="561.866947" y="398.64351" style="stroke: #000000; stroke-width: 0.8"/>
      </g>
     </g>
     <g id="text_8">
      <!-- 1.00 -->
      <g transform="translate(550.734135 413.241947) scale(0.1 -0.1)">
       <defs>
        <path id="DejaVuSans-31" d="M 794 531 
L 1825 531 
L 1825 4091 
L 703 3866 
L 703 4441 
L 1819 4666 
L 2450 4666 
L 2450 531 
L 3481 531 
L 3481 0 
L 794 0 
L 794 531 
z
" transform="scale(0.015625)"/>
       </defs>
       <use xlink:href="#DejaVuSans-31"/>
       <use xlink:href="#DejaVuSans-2e" transform="translate(63.623047 0)"/>
       <use xlink:href="#DejaVuSans-30" transform="translate(95.410156 0)"/>
       <use xlink:href="#DejaVuSans-30" transform="translate(159.033203 0)"/>
      </g>
     </g>
    </g>
    <g id="text_9">
     <!-- Time (s) -->
     <g transform="translate(282.996094 426.920073) scale(0.1 -0.1)">
      <defs>
       <path id="DejaVuSans-54" d="M -19 4666 
L 3928 4666 
L 3928 4134 
L 2272 4134 
L 2272 0 
L 1638 0 
L 1638 4134 
L -19 4134 
L -19 4666 
z
" transform="scale(0.015625)"/>
       <path id="DejaVuSans-69" d="M 603 3500 
L 1178 3500 
L 1178 0 
L 603 0 
L 603 3500 
z
M 603 4863 
L 1178 4863 
L 1178 4134 
L 603 4134 
L 603 4863 
z
" transform="scale(0.015625)"/>
       <path id="DejaVuSans-6d" d="M 3328 2828 
Q 3544 3216 3844 3400 
Q 4144 3584 4550 3584 
Q 5097 3584 5394 3201 
Q 5691 2819 5691 2113 
L 5691 0 
L 5113 0 
L 5113 2094 
Q 5113 2597 4934 2840 
Q 4756 3084 4391 3084 
Q 3944 3084 3684 2787 
Q 3425 2491 3425 1978 
L 3425 0 
L 2847 0 
L 2847 2094 
Q 2847 2600 2669 2842 
Q 2491 3084 2119 3084 
Q 1678 3084 1418 2786 
Q 1159 2488 1159 1978 
L 1159 0 
L 581 0 
L 581 3500 
L 1159 3500 
L 1159 2956 
Q 1356 3278 1631 3431 
Q 1906 3584 2284 3584 
Q 2666 3584 2933 3390 
Q 3200 3197 3328 2828 
z
" transform="scale(0.015625)"/>
       <path id="DejaVuSans-65" d="M 3597 1894 
L 3597 1613 
L 953 1613 
Q 991 1019 1311 708 
Q 1631 397 2203 397 
Q 2534 397 2845 478 
Q 3156 559 3463 722 
L 3463 178 
Q 3153 47 2828 -22 
Q 2503 -91 2169 -91 
Q 1331 -91 842 396 
Q 353 884 353 1716 
Q 353 2575 817 3079 
Q 1281 3584 2069 3584 
Q 2775 3584 3186 3129 
Q 3597 2675 3597 1894 
z
M 3022 2063 
Q 3016 2534 2758 2815 
Q 2500 3097 2075 3097 
Q 1594 3097 1305 2825 
Q 1016 2553 972 2059 
L 3022 2063 
z
" transform="scale(0.015625)"/>
       <path id="DejaVuSans-20" transform="scale(0.015625)"/>
       <path id="DejaVuSans-28" d="M 1984 4856 
Q 1566 4138 1362 3434 
Q 1159 2731 1159 2009 
Q 1159 1288 1364 580 
Q 1569 -128 1984 -844 
L 1484 -844 
Q 1016 -109 783 600 
Q 550 1309 550 2009 
Q 550 2706 781 3412 
Q 1013 4119 1484 4856 
L 1984 4856 
z
" transform="scale(0.015625)"/>
       <path id="DejaVuSans-73" d="M 2834 3397 
L 2834 2853 
Q 2591 2978 2328 3040 
Q 2066 3103 1784 3103 
Q 1356 3103 1142 2972 
Q 928 2841 928 2578 
Q 928 2378 1081 2264 
Q 1234 2150 1697 2047 
L 1894 2003 
Q 2506 1872 2764 1633 
Q 3022 1394 3022 966 
Q 3022 478 2636 193 
Q 2250 -91 1575 -91 
Q 1294 -91 989 -36 
Q 684 19 347 128 
L 347 722 
Q 666 556 975 473 
Q 1284 391 1588 391 
Q 1994 391 2212 530 
Q 2431 669 2431 922 
Q 2431 1156 2273 1281 
Q 2116 1406 1581 1522 
L 1381 1569 
Q 847 1681 609 1914 
Q 372 2147 372 2553 
Q 372 3047 722 3315 
Q 1072 3584 1716 3584 
Q 2034 3584 2315 3537 
Q 2597 3491 2834 3397 
z
" transform="scale(0.015625)"/>
       <path id="DejaVuSans-29" d="M 513 4856 
L 1013 4856 
Q 1481 4119 1714 3412 
Q 1947 2706 1947 2009 
Q 1947 1309 1714 600 
Q 1481 -109 1013 -844 
L 513 -844 
Q 928 -128 1133 580 
Q 1338 1288 1338 2009 
Q 1338 2731 1133 3434 
Q 928 4138 513 4856 
z
" transform="scale(0.015625)"/>
      </defs>
      <use xlink:href="#DejaVuSans-54"/>
      <use xlink:href="#DejaVuSans-69" transform="translate(57.958984 0)"/>
      <use xlink:href="#DejaVuSans-6d" transform="translate(85.742188 0)"/>
      <use xlink:href="#DejaVuSans-65" transform="translate(183.154297 0)"/>
      <use xlink:href="#DejaVuSans-20" transform="translate(244.677734 0)"/>
      <use xlink:href="#DejaVuSans-28" transform="translate(276.464844 0)"/>
      <use xlink:href="#DejaVuSans-73" transform="translate(315.478516 0)"/>
      <use xlink:href="#DejaVuSans-29" transform="translate(367.578125 0)"/>
     </g>
    </g>
   </g>
   <g id="matplotlib.axis_2">
    <g id="ytick_1">
     <g id="line2d_9">
      <defs>
       <path id="mfde12bf19b" d="M 0 0 
L -3.5 0 
" style="stroke: #000000; stroke-width: 0.8"/>
      </defs>
      <g>
       <use xlink:href="#mfde12bf19b" x="44.783053" y="353.87823" style="stroke: #000000; stroke-width: 0.8"/>
      </g>
     </g>
     <g id="text_10">
      <!-- −10 -->
      <g transform="translate(16.678365 357.677449) scale(0.1 -0.1)">
       <use xlink:href="#DejaVuSans-2212"/>
       <use xlink:href="#DejaVuSans-31" transform="translate(83.789062 0)"/>
       <use xlink:href="#DejaVuSans-30" transform="translate(147.412109 0)"/>
      </g>
     </g>
    </g>
    <g id="ytick_2">
     <g id="line2d_10">
      <g>
       <use xlink:href="#mfde12bf19b" x="44.783053" y="281.129584" style="stroke: #000000; stroke-width: 0.8"/>
      </g>
     </g>
     <g id="text_11">
      <!-- −5 -->
      <g transform="translate(23.040865 284.928802) scale(0.1 -0.1)">
       <defs>
        <path id="DejaVuSans-35" d="M 691 4666 
L 3169 4666 
L 3169 4134 
L 1269 4134 
L 1269 2991 
Q 1406 3038 1543 3061 
Q 1681 3084 1819 3084 
Q 2600 3084 3056 2656 
Q 3513 2228 3513 1497 
Q 3513 744 3044 326 
Q 2575 -91 1722 -91 
Q 1428 -91 1123 -41 
Q 819 9 494 109 
L 494 744 
Q 775 591 1075 516 
Q 1375 441 1709 441 
Q 2250 441 2565 725 
Q 2881 1009 2881 1497 
Q 2881 1984 2565 2268 
Q 2250 2553 1709 2553 
Q 1456 2553 1204 2497 
Q 953 2441 691 2322 
L 691 4666 
z
" transform="scale(0.015625)"/>
       </defs>
       <use xlink:href="#DejaVuSans-2212"/>
       <use xlink:href="#DejaVuSans-35" transform="translate(83.789062 0)"/>
      </g>
     </g>
    </g>
    <g id="ytick_3">
     <g id="line2d_11">
      <g>
       <use xlink:href="#mfde12bf19b" x="44.783053" y="208.380938" style="stroke: #000000; stroke-width: 0.8"/>
      </g>
     </g>
     <g id="text_12">
      <!-- 0 -->
      <g transform="translate(31.420553 212.180156) scale(0.1 -0.1)">
       <use xlink:href="#DejaVuSans-30"/>
      </g>
     </g>
    </g>
    <g id="ytick_4">
     <g id="line2d_12">
      <g>
       <use xlink:href="#mfde12bf19b" x="44.783053" y="135.632291" style="stroke: #000000; stroke-width: 0.8"/>
      </g>
     </g>
     <g id="text_13">
      <!-- 5 -->
      <g transform="translate(31.420553 139.43151) scale(0.1 -0.1)">
       <use xlink:href="#DejaVuSans-35"/>
      </g>
     </g>
    </g>
    <g id="ytick_5">
     <g id="line2d_13">
      <g>
       <use xlink:href="#mfde12bf19b" x="44.783053" y="62.883645" style="stroke: #000000; stroke-width: 0.8"/>
      </g>
     </g>
     <g id="text_14">
      <!-- 10 -->
      <g transform="translate(25.058053 66.682864) scale(0.1 -0.1)">
       <use xlink:href="#DejaVuSans-31"/>
       <use xlink:href="#DejaVuSans-30" transform="translate(63.623047 0)"/>
      </g>
     </g>
    </g>
    <g id="text_15">
     <!-- µV -->
     <g transform="translate(10.598678 214.9825) rotate(-90) scale(0.1 -0.1)">
      <defs>
       <path id="DejaVuSans-b5" d="M 544 -1331 
L 544 3500 
L 1119 3500 
L 1119 1325 
Q 1119 872 1334 640 
Q 1550 409 1972 409 
Q 2434 409 2667 671 
Q 2900 934 2900 1459 
L 2900 3500 
L 3475 3500 
L 3475 806 
Q 3475 619 3529 530 
Q 3584 441 3700 441 
Q 3728 441 3778 458 
Q 3828 475 3916 513 
L 3916 50 
Q 3788 -22 3673 -56 
Q 3559 -91 3450 -91 
Q 3234 -91 3106 31 
Q 2978 153 2931 403 
Q 2775 156 2548 32 
Q 2322 -91 2016 -91 
Q 1697 -91 1473 31 
Q 1250 153 1119 397 
L 1119 -1331 
L 544 -1331 
z
" transform="scale(0.015625)"/>
       <path id="DejaVuSans-56" d="M 1831 0 
L 50 4666 
L 709 4666 
L 2188 738 
L 3669 4666 
L 4325 4666 
L 2547 0 
L 1831 0 
z
" transform="scale(0.015625)"/>
      </defs>
      <use xlink:href="#DejaVuSans-b5"/>
      <use xlink:href="#DejaVuSans-56" transform="translate(63.623047 0)"/>
     </g>
    </g>
   </g>
   <g id="patch_4">
    <path d="M 45.052227 398.64351 
L 561.866947 398.64351 
" style="fill: none; stroke: #000000; stroke-width: 0.8; stroke-linejoin: miter; stroke-linecap: square"/>
   </g>
   <g id="patch_5">
    <path d="M 44.783052 208.380938 
L 561.866947 208.380938 
" style="fill: none; stroke: #000000; stroke-width: 0.8; stroke-linejoin: miter; stroke-linecap: square"/>
   </g>
   <g id="text_16">
    <!-- Fz, Cz, CPz, Pz (median) -->
    <g transform="translate(231.14125 12.118365) scale(0.12 -0.12)">
     <defs>
      <path id="DejaVuSans-46" d="M 628 4666 
L 3309 4666 
L 3309 4134 
L 1259 4134 
L 1259 2759 
L 3109 2759 
L 3109 2228 
L 1259 2228 
L 1259 0 
L 628 0 
L 628 4666 
z
" transform="scale(0.015625)"/>
      <path id="DejaVuSans-7a" d="M 353 3500 
L 3084 3500 
L 3084 2975 
L 922 459 
L 3084 459 
L 3084 0 
L 275 0 
L 275 525 
L 2438 3041 
L 353 3041 
L 353 3500 
z
" transform="scale(0.015625)"/>
      <path id="DejaVuSans-2c" d="M 750 794 
L 1409 794 
L 1409 256 
L 897 -744 
L 494 -744 
L 750 256 
L 750 794 
z
" transform="scale(0.015625)"/>
      <path id="DejaVuSans-43" d="M 4122 4306 
L 4122 3641 
Q 3803 3938 3442 4084 
Q 3081 4231 2675 4231 
Q 1875 4231 1450 3742 
Q 1025 3253 1025 2328 
Q 1025 1406 1450 917 
Q 1875 428 2675 428 
Q 3081 428 3442 575 
Q 3803 722 4122 1019 
L 4122 359 
Q 3791 134 3420 21 
Q 3050 -91 2638 -91 
Q 1578 -91 968 557 
Q 359 1206 359 2328 
Q 359 3453 968 4101 
Q 1578 4750 2638 4750 
Q 3056 4750 3426 4639 
Q 3797 4528 4122 4306 
z
" transform="scale(0.015625)"/>
      <path id="DejaVuSans-50" d="M 1259 4147 
L 1259 2394 
L 2053 2394 
Q 2494 2394 2734 2622 
Q 2975 2850 2975 3272 
Q 2975 3691 2734 3919 
Q 2494 4147 2053 4147 
L 1259 4147 
z
M 628 4666 
L 2053 4666 
Q 2838 4666 3239 4311 
Q 3641 3956 3641 3272 
Q 3641 2581 3239 2228 
Q 2838 1875 2053 1875 
L 1259 1875 
L 1259 0 
L 628 0 
L 628 4666 
z
" transform="scale(0.015625)"/>
      <path id="DejaVuSans-64" d="M 2906 2969 
L 2906 4863 
L 3481 4863 
L 3481 0 
L 2906 0 
L 2906 525 
Q 2725 213 2448 61 
Q 2172 -91 1784 -91 
Q 1150 -91 751 415 
Q 353 922 353 1747 
Q 353 2572 751 3078 
Q 1150 3584 1784 3584 
Q 2172 3584 2448 3432 
Q 2725 3281 2906 2969 
z
M 947 1747 
Q 947 1113 1208 752 
Q 1469 391 1925 391 
Q 2381 391 2643 752 
Q 2906 1113 2906 1747 
Q 2906 2381 2643 2742 
Q 2381 3103 1925 3103 
Q 1469 3103 1208 2742 
Q 947 2381 947 1747 
z
" transform="scale(0.015625)"/>
      <path id="DejaVuSans-61" d="M 2194 1759 
Q 1497 1759 1228 1600 
Q 959 1441 959 1056 
Q 959 750 1161 570 
Q 1363 391 1709 391 
Q 2188 391 2477 730 
Q 2766 1069 2766 1631 
L 2766 1759 
L 2194 1759 
z
M 3341 1997 
L 3341 0 
L 2766 0 
L 2766 531 
Q 2569 213 2275 61 
Q 1981 -91 1556 -91 
Q 1019 -91 701 211 
Q 384 513 384 1019 
Q 384 1609 779 1909 
Q 1175 2209 1959 2209 
L 2766 2209 
L 2766 2266 
Q 2766 2663 2505 2880 
Q 2244 3097 1772 3097 
Q 1472 3097 1187 3025 
Q 903 2953 641 2809 
L 641 3341 
Q 956 3463 1253 3523 
Q 1550 3584 1831 3584 
Q 2591 3584 2966 3190 
Q 3341 2797 3341 1997 
z
" transform="scale(0.015625)"/>
      <path id="DejaVuSans-6e" d="M 3513 2113 
L 3513 0 
L 2938 0 
L 2938 2094 
Q 2938 2591 2744 2837 
Q 2550 3084 2163 3084 
Q 1697 3084 1428 2787 
Q 1159 2491 1159 1978 
L 1159 0 
L 581 0 
L 581 3500 
L 1159 3500 
L 1159 2956 
Q 1366 3272 1645 3428 
Q 1925 3584 2291 3584 
Q 2894 3584 3203 3211 
Q 3513 2838 3513 2113 
z
" transform="scale(0.015625)"/>
     </defs>
     <use xlink:href="#DejaVuSans-46"/>
     <use xlink:href="#DejaVuSans-7a" transform="translate(57.519531 0)"/>
     <use xlink:href="#DejaVuSans-2c" transform="translate(110.009766 0)"/>
     <use xlink:href="#DejaVuSans-20" transform="translate(141.796875 0)"/>
     <use xlink:href="#DejaVuSans-43" transform="translate(173.583984 0)"/>
     <use xlink:href="#DejaVuSans-7a" transform="translate(243.408203 0)"/>
     <use xlink:href="#DejaVuSans-2c" transform="translate(295.898438 0)"/>
     <use xlink:href="#DejaVuSans-20" transform="translate(327.685547 0)"/>
     <use xlink:href="#DejaVuSans-43" transform="translate(359.472656 0)"/>
     <use xlink:href="#DejaVuSans-50" transform="translate(429.296875 0)"/>
     <use xlink:href="#DejaVuSans-7a" transform="translate(489.599609 0)"/>
     <use xlink:href="#DejaVuSans-2c" transform="translate(542.089844 0)"/>
     <use xlink:href="#DejaVuSans-20" transform="translate(573.876953 0)"/>
     <use xlink:href="#DejaVuSans-50" transform="translate(605.664062 0)"/>
     <use xlink:href="#DejaVuSans-7a" transform="translate(665.966797 0)"/>
     <use xlink:href="#DejaVuSans-20" transform="translate(718.457031 0)"/>
     <use xlink:href="#DejaVuSans-28" transform="translate(750.244141 0)"/>
     <use xlink:href="#DejaVuSans-6d" transform="translate(789.257812 0)"/>
     <use xlink:href="#DejaVuSans-65" transform="translate(886.669922 0)"/>
     <use xlink:href="#DejaVuSans-64" transform="translate(948.193359 0)"/>
     <use xlink:href="#DejaVuSans-69" transform="translate(1011.669922 0)"/>
     <use xlink:href="#DejaVuSans-61" transform="translate(1039.453125 0)"/>
     <use xlink:href="#DejaVuSans-6e" transform="translate(1100.732422 0)"/>
     <use xlink:href="#DejaVuSans-29" transform="translate(1164.111328 0)"/>
    </g>
   </g>
   <g id="legend_1">
    <g id="patch_6">
     <path d="M 51.783053 55.75274 
L 132.92524 55.75274 
Q 134.92524 55.75274 134.92524 53.75274 
L 134.92524 25.118365 
Q 134.92524 23.118365 132.92524 23.118365 
L 51.783053 23.118365 
Q 49.783053 23.118365 49.783053 25.118365 
L 49.783053 53.75274 
Q 49.783053 55.75274 51.783053 55.75274 
z
" style="fill: #ffffff; opacity: 0.8; stroke: #cccccc; stroke-linejoin: miter"/>
    </g>
    <g id="line2d_14">
     <path d="M 53.783053 31.216803 
L 63.783053 31.216803 
L 73.783052 31.216803 
" style="fill: none; stroke: #1f77b4; stroke-width: 1.5; stroke-linecap: square"/>
    </g>
    <g id="text_17">
     <!-- eerie -->
     <g transform="translate(81.783052 34.716803) scale(0.1 -0.1)">
      <defs>
       <path id="DejaVuSans-72" d="M 2631 2963 
Q 2534 3019 2420 3045 
Q 2306 3072 2169 3072 
Q 1681 3072 1420 2755 
Q 1159 2438 1159 1844 
L 1159 0 
L 581 0 
L 581 3500 
L 1159 3500 
L 1159 2956 
Q 1341 3275 1631 3429 
Q 1922 3584 2338 3584 
Q 2397 3584 2469 3576 
Q 2541 3569 2628 3553 
L 2631 2963 
z
" transform="scale(0.015625)"/>
      </defs>
      <use xlink:href="#DejaVuSans-65"/>
      <use xlink:href="#DejaVuSans-65" transform="translate(61.523438 0)"/>
      <use xlink:href="#DejaVuSans-72" transform="translate(123.046875 0)"/>
      <use xlink:href="#DejaVuSans-69" transform="translate(164.160156 0)"/>
      <use xlink:href="#DejaVuSans-65" transform="translate(191.943359 0)"/>
     </g>
    </g>
    <g id="line2d_15">
     <path d="M 53.783053 45.894928 
L 63.783053 45.894928 
L 73.783052 45.894928 
" style="fill: none; stroke: #ff7f0e; stroke-width: 1.5; stroke-linecap: square"/>
    </g>
    <g id="text_18">
     <!-- non_eerie -->
     <g transform="translate(81.783052 49.394928) scale(0.1 -0.1)">
      <defs>
       <path id="DejaVuSans-6f" d="M 1959 3097 
Q 1497 3097 1228 2736 
Q 959 2375 959 1747 
Q 959 1119 1226 758 
Q 1494 397 1959 397 
Q 2419 397 2687 759 
Q 2956 1122 2956 1747 
Q 2956 2369 2687 2733 
Q 2419 3097 1959 3097 
z
M 1959 3584 
Q 2709 3584 3137 3096 
Q 3566 2609 3566 1747 
Q 3566 888 3137 398 
Q 2709 -91 1959 -91 
Q 1206 -91 779 398 
Q 353 888 353 1747 
Q 353 2609 779 3096 
Q 1206 3584 1959 3584 
z
" transform="scale(0.015625)"/>
       <path id="DejaVuSans-5f" d="M 3263 -1063 
L 3263 -1509 
L -63 -1509 
L -63 -1063 
L 3263 -1063 
z
" transform="scale(0.015625)"/>
      </defs>
      <use xlink:href="#DejaVuSans-6e"/>
      <use xlink:href="#DejaVuSans-6f" transform="translate(63.378906 0)"/>
      <use xlink:href="#DejaVuSans-6e" transform="translate(124.560547 0)"/>
      <use xlink:href="#DejaVuSans-5f" transform="translate(187.939453 0)"/>
      <use xlink:href="#DejaVuSans-65" transform="translate(237.939453 0)"/>
      <use xlink:href="#DejaVuSans-65" transform="translate(299.462891 0)"/>
      <use xlink:href="#DejaVuSans-72" transform="translate(360.986328 0)"/>
      <use xlink:href="#DejaVuSans-69" transform="translate(402.099609 0)"/>
      <use xlink:href="#DejaVuSans-65" transform="translate(429.882812 0)"/>
     </g>
    </g>
   </g>
   <g id="FillBetweenPolyCollection_1">
    <defs>
     <path id="m285d5d4cfe" d="M 44.783052 -247.001054 
L 44.783052 -235.920234 
L 46.465392 -240.036722 
L 48.147732 -241.606413 
L 49.830071 -239.390447 
L 51.512411 -234.026883 
L 53.19475 -227.824518 
L 54.87709 -222.95622 
L 56.55943 -220.661667 
L 58.241769 -220.266629 
L 59.924109 -219.74769 
L 61.606448 -217.054911 
L 63.288788 -212.441929 
L 64.971128 -207.380141 
L 66.653467 -204.203185 
L 68.335807 -204.505149 
L 70.018146 -207.943337 
L 71.700486 -212.18918 
L 73.382825 -215.149801 
L 75.065165 -215.810159 
L 76.747505 -214.918192 
L 78.429844 -214.207026 
L 80.112184 -215.445917 
L 81.794523 -218.718898 
L 83.476863 -223.031763 
L 85.159203 -226.561294 
L 86.841542 -227.753603 
L 88.523882 -226.533757 
L 90.206221 -224.42478 
L 91.888561 -223.239149 
L 93.5709 -223.228811 
L 95.25324 -224.591568 
L 96.93558 -226.362403 
L 98.617919 -227.153752 
L 100.300259 -226.24235 
L 101.982598 -223.637381 
L 103.664938 -220.109649 
L 105.347278 -216.731523 
L 107.029617 -214.238309 
L 108.711957 -212.736714 
L 110.394296 -211.848672 
L 112.076636 -210.886185 
L 113.758976 -209.49794 
L 115.441315 -207.571418 
L 117.123655 -205.642327 
L 118.805994 -204.865068 
L 120.488334 -205.964765 
L 122.170673 -209.500892 
L 123.853013 -214.999105 
L 125.535353 -220.506496 
L 127.217692 -224.847483 
L 128.900032 -227.050043 
L 130.582371 -227.158207 
L 132.264711 -226.607679 
L 133.947051 -226.126141 
L 135.62939 -226.469897 
L 137.31173 -227.692405 
L 138.994069 -229.123013 
L 140.676409 -230.303698 
L 142.358748 -231.266227 
L 144.041088 -232.000281 
L 145.723428 -232.046516 
L 147.405767 -231.211812 
L 149.088107 -229.14314 
L 150.770446 -225.418542 
L 152.452786 -220.983132 
L 154.135126 -216.869767 
L 155.817465 -214.281334 
L 157.499805 -213.730619 
L 159.182144 -214.666447 
L 160.864484 -215.301269 
L 162.546823 -214.010814 
L 164.229163 -210.06088 
L 165.911503 -203.564564 
L 167.593842 -196.079674 
L 169.276182 -189.661671 
L 170.958521 -185.118651 
L 172.640861 -181.953876 
L 174.323201 -178.909581 
L 176.00554 -174.875533 
L 177.68788 -169.685282 
L 179.370219 -164.769534 
L 181.052559 -161.629015 
L 182.734899 -162.016403 
L 184.417238 -166.631686 
L 186.099578 -175.320046 
L 187.781917 -188.197616 
L 189.464257 -205.210854 
L 191.146596 -226.316973 
L 192.828936 -250.644594 
L 194.511276 -276.741084 
L 196.193615 -301.976912 
L 197.875955 -323.543533 
L 199.558294 -339.849056 
L 201.240634 -350.551372 
L 202.922974 -356.156418 
L 204.605313 -357.504382 
L 206.287653 -354.743353 
L 207.969992 -348.275874 
L 209.652332 -337.543631 
L 211.334671 -323.617276 
L 213.017011 -308.055648 
L 214.699351 -292.117471 
L 216.38169 -275.969317 
L 218.06403 -259.806815 
L 219.746369 -242.496085 
L 221.428709 -224.256848 
L 223.111049 -205.43475 
L 224.793388 -187.546933 
L 226.475728 -171.47202 
L 228.158067 -157.55298 
L 229.840407 -144.282216 
L 231.522746 -131.018723 
L 233.205086 -118.266855 
L 234.887426 -107.279316 
L 236.569765 -99.593211 
L 238.252105 -96.058588 
L 239.934444 -96.113001 
L 241.616784 -98.391779 
L 243.299124 -102.04052 
L 244.981463 -107.525923 
L 246.663803 -115.568323 
L 248.346142 -126.609672 
L 250.028482 -139.490741 
L 251.710822 -152.668262 
L 253.393161 -164.658179 
L 255.075501 -174.61583 
L 256.75784 -182.704788 
L 258.44018 -190.060938 
L 260.122519 -197.528626 
L 261.804859 -205.266404 
L 263.487199 -212.787973 
L 265.169538 -220.095812 
L 266.851878 -227.055514 
L 268.534217 -233.586402 
L 270.216557 -240.444334 
L 271.898897 -247.965804 
L 273.581236 -255.535301 
L 275.263576 -263.115874 
L 276.945915 -270.894912 
L 278.628255 -279.207215 
L 280.310594 -287.938023 
L 281.992934 -296.818146 
L 283.675274 -305.459931 
L 285.357613 -313.372343 
L 287.039953 -320.484358 
L 288.722292 -326.94982 
L 290.404632 -332.734008 
L 292.086972 -337.767903 
L 293.769311 -341.702972 
L 295.451651 -343.584483 
L 297.13399 -343.053907 
L 298.81633 -339.970057 
L 300.498669 -335.06458 
L 302.181009 -329.487443 
L 303.863349 -324.724514 
L 305.545688 -321.340657 
L 307.228028 -320.652464 
L 308.910367 -322.68282 
L 310.592707 -326.702182 
L 312.275047 -331.589872 
L 313.957386 -336.13875 
L 315.639726 -340.124157 
L 317.322065 -344.040076 
L 319.004405 -348.589822 
L 320.686745 -354.350934 
L 322.369084 -361.452883 
L 324.051424 -368.866677 
L 325.733763 -375.915018 
L 327.416103 -381.574338 
L 329.098442 -385.228044 
L 330.780782 -387.3948 
L 332.463122 -388.351548 
L 334.145461 -388.681464 
L 335.827801 -387.75466 
L 337.51014 -385.511092 
L 339.19248 -381.651713 
L 340.87482 -376.622778 
L 342.557159 -370.490577 
L 344.239499 -363.615548 
L 345.921838 -356.168777 
L 347.604178 -348.718136 
L 349.286517 -341.630953 
L 350.968857 -336.171806 
L 352.651197 -332.849455 
L 354.333536 -332.21113 
L 356.015876 -334.278735 
L 357.698215 -337.527734 
L 359.380555 -341.859748 
L 361.062895 -346.299878 
L 362.745234 -350.50527 
L 364.427574 -354.474193 
L 366.109913 -358.138223 
L 367.792253 -361.55613 
L 369.474593 -364.047943 
L 371.156932 -364.924304 
L 372.839272 -363.626598 
L 374.521611 -360.210798 
L 376.203951 -356.047338 
L 377.88629 -353.033263 
L 379.56863 -351.635439 
L 381.25097 -351.674152 
L 382.933309 -351.551883 
L 384.615649 -349.795774 
L 386.297988 -345.662868 
L 387.980328 -339.398308 
L 389.662668 -332.752927 
L 391.345007 -327.772233 
L 393.027347 -325.49661 
L 394.709686 -326.082678 
L 396.392026 -328.824245 
L 398.074365 -332.768666 
L 399.756705 -337.639564 
L 401.439045 -342.724349 
L 403.121384 -347.864032 
L 404.803724 -352.26082 
L 406.486063 -355.347627 
L 408.168403 -356.791579 
L 409.850743 -356.685451 
L 411.533082 -356.431692 
L 413.215422 -356.818397 
L 414.897761 -358.261886 
L 416.580101 -360.420384 
L 418.26244 -361.906063 
L 419.94478 -361.775516 
L 421.62712 -360.000654 
L 423.309459 -357.288051 
L 424.991799 -354.617352 
L 426.674138 -352.871627 
L 428.356478 -352.196141 
L 430.038818 -352.209982 
L 431.721157 -352.033423 
L 433.403497 -349.901651 
L 435.085836 -345.095638 
L 436.768176 -338.600828 
L 438.450516 -331.205587 
L 440.132855 -324.667672 
L 441.815195 -320.702902 
L 443.497534 -319.765346 
L 445.179874 -321.224688 
L 446.862213 -323.137357 
L 448.544553 -323.59791 
L 450.226893 -321.753505 
L 451.909232 -318.005439 
L 453.591572 -314.011286 
L 455.273911 -310.465301 
L 456.956251 -307.827462 
L 458.638591 -305.259344 
L 460.32093 -301.719002 
L 462.00327 -297.279721 
L 463.685609 -292.706033 
L 465.367949 -289.048083 
L 467.050288 -287.28371 
L 468.732628 -286.847409 
L 470.414968 -286.265084 
L 472.097307 -284.513595 
L 473.779647 -281.529718 
L 475.461986 -277.548602 
L 477.144326 -274.490142 
L 478.826666 -273.933993 
L 480.509005 -275.919874 
L 482.191345 -280.176866 
L 483.873684 -285.13707 
L 485.556024 -289.485102 
L 487.238363 -292.72751 
L 488.920703 -294.937089 
L 490.603043 -296.190794 
L 492.285382 -297.353659 
L 493.967722 -298.43455 
L 495.650061 -299.064287 
L 497.332401 -298.654635 
L 499.014741 -296.936241 
L 500.69708 -293.078759 
L 502.37942 -288.142705 
L 504.061759 -284.028656 
L 505.744099 -282.527507 
L 507.426439 -285.17261 
L 509.108778 -291.783062 
L 510.791118 -300.228354 
L 512.473457 -308.057266 
L 514.155797 -312.857361 
L 515.838136 -313.337337 
L 517.520476 -310.483694 
L 519.202816 -306.777747 
L 520.885155 -303.902686 
L 522.567495 -302.500056 
L 524.249834 -301.968888 
L 525.932174 -301.156614 
L 527.614514 -298.602933 
L 529.296853 -295.326087 
L 530.979193 -292.387739 
L 532.661532 -290.671523 
L 534.343872 -290.740973 
L 536.026211 -291.560375 
L 537.708551 -291.784071 
L 539.390891 -291.01513 
L 541.07323 -289.761901 
L 542.75557 -289.251052 
L 544.437909 -290.945691 
L 546.120249 -294.817778 
L 547.802589 -299.537617 
L 549.484928 -303.105316 
L 551.167268 -303.288658 
L 552.849607 -300.615595 
L 554.531947 -296.310071 
L 556.214286 -292.253513 
L 557.896626 -289.838157 
L 559.578966 -289.589191 
L 561.261305 -290.29102 
L 561.261305 -303.206379 
L 561.261305 -303.206379 
L 559.578966 -302.737948 
L 557.896626 -303.05794 
L 556.214286 -305.460744 
L 554.531947 -309.612843 
L 552.849607 -313.902255 
L 551.167268 -316.607275 
L 549.484928 -316.125753 
L 547.802589 -312.426194 
L 546.120249 -307.438809 
L 544.437909 -303.064016 
L 542.75557 -301.097706 
L 541.07323 -301.384539 
L 539.390891 -302.763189 
L 537.708551 -303.653171 
L 536.026211 -303.482362 
L 534.343872 -303.256992 
L 532.661532 -303.768825 
L 530.979193 -305.628192 
L 529.296853 -308.712304 
L 527.614514 -311.912085 
L 525.932174 -314.38656 
L 524.249834 -315.406968 
L 522.567495 -316.129329 
L 520.885155 -317.604606 
L 519.202816 -320.811717 
L 517.520476 -324.759469 
L 515.838136 -327.484914 
L 514.155797 -326.90482 
L 512.473457 -322.307695 
L 510.791118 -314.372818 
L 509.108778 -305.481702 
L 507.426439 -298.803853 
L 505.744099 -296.020806 
L 504.061759 -297.229398 
L 502.37942 -301.008511 
L 500.69708 -305.707827 
L 499.014741 -309.357803 
L 497.332401 -311.405465 
L 495.650061 -311.953801 
L 493.967722 -311.191375 
L 492.285382 -310.55527 
L 490.603043 -309.848046 
L 488.920703 -308.987383 
L 487.238363 -306.935335 
L 485.556024 -303.772556 
L 483.873684 -299.23268 
L 482.191345 -294.467459 
L 480.509005 -290.63452 
L 478.826666 -289.109882 
L 477.144326 -290.005403 
L 475.461986 -293.041305 
L 473.779647 -296.785258 
L 472.097307 -299.573867 
L 470.414968 -300.369972 
L 468.732628 -300.141432 
L 467.050288 -300.202413 
L 465.367949 -301.894965 
L 463.685609 -305.049881 
L 462.00327 -309.478131 
L 460.32093 -313.831293 
L 458.638591 -317.206522 
L 456.956251 -319.655385 
L 455.273911 -322.332938 
L 453.591572 -325.848331 
L 451.909232 -330.213458 
L 450.226893 -334.010611 
L 448.544553 -336.041393 
L 446.862213 -335.687573 
L 445.179874 -333.737544 
L 443.497534 -331.881413 
L 441.815195 -332.246789 
L 440.132855 -336.046089 
L 438.450516 -342.760143 
L 436.768176 -350.422422 
L 435.085836 -357.168892 
L 433.403497 -361.800505 
L 431.721157 -364.025658 
L 430.038818 -364.291913 
L 428.356478 -364.200214 
L 426.674138 -364.898026 
L 424.991799 -366.712213 
L 423.309459 -369.648834 
L 421.62712 -372.511214 
L 419.94478 -373.832782 
L 418.26244 -373.818781 
L 416.580101 -372.215753 
L 414.897761 -370.32301 
L 413.215422 -368.992228 
L 411.533082 -368.793651 
L 409.850743 -369.136742 
L 408.168403 -368.904789 
L 406.486063 -367.341375 
L 404.803724 -363.933103 
L 403.121384 -359.238233 
L 401.439045 -354.023485 
L 399.756705 -348.893287 
L 398.074365 -344.224879 
L 396.392026 -340.353286 
L 394.709686 -337.658091 
L 393.027347 -337.124692 
L 391.345007 -339.258951 
L 389.662668 -344.234838 
L 387.980328 -350.847898 
L 386.297988 -356.884116 
L 384.615649 -360.969618 
L 382.933309 -362.622749 
L 381.25097 -362.925456 
L 379.56863 -363.359837 
L 377.88629 -365.047354 
L 376.203951 -368.249032 
L 374.521611 -371.988607 
L 372.839272 -374.948342 
L 371.156932 -376.435015 
L 369.474593 -375.896975 
L 367.792253 -373.809385 
L 366.109913 -370.64767 
L 364.427574 -367.315481 
L 362.745234 -363.548358 
L 361.062895 -359.741627 
L 359.380555 -355.538027 
L 357.698215 -351.323825 
L 356.015876 -347.793517 
L 354.333536 -346.208563 
L 352.651197 -347.050573 
L 350.968857 -350.437939 
L 349.286517 -355.799158 
L 347.604178 -362.355258 
L 345.921838 -369.565038 
L 344.239499 -376.834266 
L 342.557159 -384.196188 
L 340.87482 -390.674434 
L 339.19248 -396.558244 
L 337.51014 -400.956242 
L 335.827801 -404.115084 
L 334.145461 -405.132615 
L 332.463122 -404.95315 
L 330.780782 -403.59327 
L 329.098442 -400.651437 
L 327.416103 -396.345587 
L 325.733763 -390.197107 
L 324.051424 -382.597068 
L 322.369084 -374.834154 
L 320.686745 -367.77008 
L 319.004405 -362.156839 
L 317.322065 -357.62638 
L 315.639726 -353.753898 
L 313.957386 -349.671034 
L 312.275047 -344.966846 
L 310.592707 -339.952081 
L 308.910367 -335.950269 
L 307.228028 -333.864984 
L 305.545688 -334.690998 
L 303.863349 -337.95612 
L 302.181009 -343.102626 
L 300.498669 -348.748746 
L 298.81633 -353.841932 
L 297.13399 -356.902304 
L 295.451651 -357.134331 
L 293.769311 -354.857289 
L 292.086972 -350.462528 
L 290.404632 -345.091532 
L 288.722292 -339.161421 
L 287.039953 -332.874149 
L 285.357613 -325.814689 
L 283.675274 -318.09782 
L 281.992934 -309.82579 
L 280.310594 -301.442623 
L 278.628255 -293.084878 
L 276.945915 -285.431454 
L 275.263576 -277.982477 
L 273.581236 -270.317135 
L 271.898897 -262.825921 
L 270.216557 -255.369317 
L 268.534217 -248.338125 
L 266.851878 -241.699793 
L 265.169538 -234.607325 
L 263.487199 -227.064851 
L 261.804859 -219.086505 
L 260.122519 -211.154739 
L 258.44018 -203.70268 
L 256.75784 -196.337926 
L 255.075501 -188.354725 
L 253.393161 -178.343486 
L 251.710822 -165.861919 
L 250.028482 -152.272738 
L 248.346142 -139.177688 
L 246.663803 -128.132429 
L 244.981463 -120.070385 
L 243.299124 -114.28882 
L 241.616784 -110.384337 
L 239.934444 -107.993015 
L 238.252105 -107.878541 
L 236.569765 -111.506175 
L 234.887426 -119.434983 
L 233.205086 -130.278746 
L 231.522746 -143.317936 
L 229.840407 -156.568064 
L 228.158067 -170.185202 
L 226.475728 -184.774467 
L 224.793388 -200.989266 
L 223.111049 -219.272736 
L 221.428709 -238.263333 
L 219.746369 -256.666687 
L 218.06403 -274.350043 
L 216.38169 -290.744452 
L 214.699351 -306.805062 
L 213.017011 -322.666149 
L 211.334671 -337.732716 
L 209.652332 -351.058905 
L 207.969992 -361.298032 
L 206.287653 -367.673868 
L 204.605313 -370.445241 
L 202.922974 -369.548955 
L 201.240634 -364.216084 
L 199.558294 -353.672475 
L 197.875955 -337.633475 
L 196.193615 -316.34311 
L 194.511276 -291.55861 
L 192.828936 -265.482997 
L 191.146596 -240.973826 
L 189.464257 -219.118878 
L 187.781917 -201.523712 
L 186.099578 -188.157205 
L 184.417238 -179.285628 
L 182.734899 -174.650199 
L 181.052559 -174.271746 
L 179.370219 -177.371644 
L 177.68788 -182.613849 
L 176.00554 -187.948073 
L 174.323201 -192.290087 
L 172.640861 -195.197379 
L 170.958521 -198.156051 
L 169.276182 -202.572857 
L 167.593842 -208.929765 
L 165.911503 -216.475681 
L 164.229163 -223.179196 
L 162.546823 -227.562143 
L 160.864484 -228.783623 
L 159.182144 -227.642202 
L 157.499805 -226.173434 
L 155.817465 -226.44075 
L 154.135126 -228.838548 
L 152.452786 -232.763609 
L 150.770446 -237.002374 
L 149.088107 -240.334129 
L 147.405767 -241.825977 
L 145.723428 -242.270384 
L 144.041088 -242.019678 
L 142.358748 -241.558027 
L 140.676409 -240.756838 
L 138.994069 -239.703876 
L 137.31173 -238.651167 
L 135.62939 -237.495579 
L 133.947051 -237.175251 
L 132.264711 -237.351113 
L 130.582371 -237.549571 
L 128.900032 -237.144611 
L 127.217692 -234.918413 
L 125.535353 -230.708909 
L 123.853013 -225.054531 
L 122.170673 -219.587563 
L 120.488334 -215.716731 
L 118.805994 -214.279231 
L 117.123655 -214.748949 
L 115.441315 -216.715309 
L 113.758976 -219.016324 
L 112.076636 -220.564531 
L 110.394296 -221.424494 
L 108.711957 -222.297036 
L 107.029617 -223.633259 
L 105.347278 -226.007592 
L 103.664938 -229.018046 
L 101.982598 -232.45344 
L 100.300259 -234.789732 
L 98.617919 -235.384731 
L 96.93558 -234.375443 
L 95.25324 -232.279548 
L 93.5709 -230.791199 
L 91.888561 -230.756411 
L 90.206221 -231.793792 
L 88.523882 -233.904567 
L 86.841542 -235.106124 
L 85.159203 -234.051103 
L 83.476863 -230.305163 
L 81.794523 -225.764335 
L 80.112184 -222.573585 
L 78.429844 -221.71113 
L 76.747505 -222.915308 
L 75.065165 -224.324836 
L 73.382825 -224.001916 
L 71.700486 -220.91808 
L 70.018146 -216.845887 
L 68.335807 -213.634831 
L 66.653467 -213.573761 
L 64.971128 -217.043435 
L 63.288788 -222.018444 
L 61.606448 -226.470498 
L 59.924109 -228.755436 
L 58.241769 -229.106844 
L 56.55943 -229.969359 
L 54.87709 -232.717673 
L 53.19475 -238.160844 
L 51.512411 -244.936996 
L 49.830071 -250.78049 
L 48.147732 -253.041325 
L 46.465392 -251.442834 
L 44.783052 -247.001054 
z
" style="stroke: #1f77b4; stroke-opacity: 0.3"/>
    </defs>
    <g>
     <use xlink:href="#m285d5d4cfe" x="0" y="432" style="fill: #1f77b4; fill-opacity: 0.3; stroke: #1f77b4; stroke-opacity: 0.3"/>
    </g>
   </g>
   <g id="FillBetweenPolyCollection_2">
    <defs>
     <path id="m4908bfbb9e" d="M 44.783052 -215.527509 
L 44.783052 -209.290753 
L 46.465392 -213.8351 
L 48.147732 -217.357252 
L 49.830071 -220.33644 
L 51.512411 -223.242715 
L 53.19475 -226.704054 
L 54.87709 -230.74545 
L 56.55943 -234.496183 
L 58.241769 -237.031023 
L 59.924109 -237.919164 
L 61.606448 -237.071884 
L 63.288788 -234.757518 
L 64.971128 -231.536105 
L 66.653467 -227.768306 
L 68.335807 -224.352486 
L 70.018146 -221.685194 
L 71.700486 -219.798918 
L 73.382825 -218.722413 
L 75.065165 -217.855914 
L 76.747505 -216.209397 
L 78.429844 -213.917179 
L 80.112184 -211.006757 
L 81.794523 -208.459776 
L 83.476863 -207.055133 
L 85.159203 -207.415203 
L 86.841542 -209.245329 
L 88.523882 -211.396319 
L 90.206221 -212.618764 
L 91.888561 -213.213013 
L 93.5709 -213.440489 
L 95.25324 -214.27277 
L 96.93558 -216.129845 
L 98.617919 -219.195105 
L 100.300259 -222.876923 
L 101.982598 -226.312047 
L 103.664938 -228.67156 
L 105.347278 -229.336398 
L 107.029617 -228.119158 
L 108.711957 -225.788261 
L 110.394296 -222.847341 
L 112.076636 -220.639048 
L 113.758976 -219.718451 
L 115.441315 -220.239818 
L 117.123655 -221.369208 
L 118.805994 -221.915762 
L 120.488334 -221.191318 
L 122.170673 -219.447067 
L 123.853013 -217.252509 
L 125.535353 -216.004319 
L 127.217692 -216.323581 
L 128.900032 -218.023886 
L 130.582371 -219.77728 
L 132.264711 -220.359456 
L 133.947051 -219.241879 
L 135.62939 -217.224081 
L 137.31173 -215.785607 
L 138.994069 -216.10138 
L 140.676409 -218.65332 
L 142.358748 -222.428957 
L 144.041088 -226.382878 
L 145.723428 -229.073667 
L 147.405767 -230.156009 
L 149.088107 -230.390315 
L 150.770446 -230.93963 
L 152.452786 -232.931919 
L 154.135126 -236.480185 
L 155.817465 -240.456683 
L 157.499805 -243.587691 
L 159.182144 -244.861868 
L 160.864484 -243.884924 
L 162.546823 -240.889113 
L 164.229163 -236.590335 
L 165.911503 -231.716157 
L 167.593842 -226.870918 
L 169.276182 -222.144525 
L 170.958521 -217.420489 
L 172.640861 -212.586776 
L 174.323201 -207.400543 
L 176.00554 -201.737427 
L 177.68788 -195.924907 
L 179.370219 -190.662305 
L 181.052559 -186.916758 
L 182.734899 -186.226601 
L 184.417238 -190.058414 
L 186.099578 -199.145198 
L 187.781917 -213.339098 
L 189.464257 -232.300532 
L 191.146596 -254.850985 
L 192.828936 -279.512418 
L 194.511276 -305.167049 
L 196.193615 -330.586035 
L 197.875955 -354.442247 
L 199.558294 -374.961888 
L 201.240634 -390.754818 
L 202.922974 -401.146923 
L 204.605313 -406.381248 
L 206.287653 -406.413748 
L 207.969992 -401.175956 
L 209.652332 -390.853533 
L 211.334671 -375.857246 
L 213.017011 -356.960472 
L 214.699351 -335.791852 
L 216.38169 -314.260011 
L 218.06403 -294.074434 
L 219.746369 -275.666364 
L 221.428709 -258.646777 
L 223.111049 -241.794338 
L 224.793388 -224.401959 
L 226.475728 -206.647608 
L 228.158067 -189.644629 
L 229.840407 -174.577665 
L 231.522746 -161.060062 
L 233.205086 -149.055279 
L 234.887426 -137.530605 
L 236.569765 -126.476937 
L 238.252105 -116.60593 
L 239.934444 -109.332977 
L 241.616784 -105.89228 
L 243.299124 -106.871507 
L 244.981463 -111.552876 
L 246.663803 -118.654265 
L 248.346142 -127.200615 
L 250.028482 -137.134748 
L 251.710822 -148.452647 
L 253.393161 -161.536585 
L 255.075501 -175.435608 
L 256.75784 -188.884231 
L 258.44018 -200.706787 
L 260.122519 -210.368301 
L 261.804859 -218.172255 
L 263.487199 -224.54002 
L 265.169538 -230.15581 
L 266.851878 -235.121521 
L 268.534217 -239.289535 
L 270.216557 -242.804173 
L 271.898897 -246.135089 
L 273.581236 -249.584099 
L 275.263576 -253.775006 
L 276.945915 -258.298121 
L 278.628255 -262.639203 
L 280.310594 -266.455913 
L 281.992934 -270.518856 
L 283.675274 -276.265326 
L 285.357613 -284.829107 
L 287.039953 -296.293908 
L 288.722292 -309.27265 
L 290.404632 -321.438696 
L 292.086972 -330.516098 
L 293.769311 -336.009261 
L 295.451651 -338.95792 
L 297.13399 -340.856117 
L 298.81633 -343.021722 
L 300.498669 -345.122516 
L 302.181009 -346.006877 
L 303.863349 -344.425659 
L 305.545688 -340.156684 
L 307.228028 -334.250604 
L 308.910367 -328.49073 
L 310.592707 -324.586248 
L 312.275047 -322.790665 
L 313.957386 -322.369441 
L 315.639726 -322.153632 
L 317.322065 -321.419198 
L 319.004405 -320.255007 
L 320.686745 -319.661385 
L 322.369084 -320.521928 
L 324.051424 -322.887904 
L 325.733763 -325.940424 
L 327.416103 -328.389983 
L 329.098442 -329.504076 
L 330.780782 -328.952493 
L 332.463122 -327.318315 
L 334.145461 -324.878289 
L 335.827801 -321.968719 
L 337.51014 -318.304582 
L 339.19248 -313.480066 
L 340.87482 -307.538188 
L 342.557159 -301.030977 
L 344.239499 -295.040226 
L 345.921838 -290.240888 
L 347.604178 -287.275851 
L 349.286517 -285.867435 
L 350.968857 -285.423992 
L 352.651197 -286.064473 
L 354.333536 -287.954085 
L 356.015876 -291.469847 
L 357.698215 -296.070083 
L 359.380555 -300.84175 
L 361.062895 -304.281337 
L 362.745234 -305.380537 
L 364.427574 -304.272244 
L 366.109913 -302.692507 
L 367.792253 -302.582248 
L 369.474593 -304.909065 
L 371.156932 -309.236761 
L 372.839272 -313.588299 
L 374.521611 -316.093304 
L 376.203951 -315.45663 
L 377.88629 -312.4058 
L 379.56863 -308.699513 
L 381.25097 -305.432086 
L 382.933309 -303.09863 
L 384.615649 -301.306032 
L 386.297988 -299.283408 
L 387.980328 -297.264076 
L 389.662668 -295.733249 
L 391.345007 -295.508747 
L 393.027347 -296.815395 
L 394.709686 -299.18983 
L 396.392026 -301.728902 
L 398.074365 -304.237243 
L 399.756705 -306.860164 
L 401.439045 -310.394043 
L 403.121384 -315.400563 
L 404.803724 -321.264906 
L 406.486063 -326.850243 
L 408.168403 -330.579161 
L 409.850743 -332.696941 
L 411.533082 -333.484007 
L 413.215422 -333.700731 
L 414.897761 -333.750974 
L 416.580101 -333.31005 
L 418.26244 -331.489604 
L 419.94478 -327.826138 
L 421.62712 -323.006181 
L 423.309459 -317.950641 
L 424.991799 -314.139015 
L 426.674138 -311.747508 
L 428.356478 -310.469939 
L 430.038818 -309.932411 
L 431.721157 -309.807392 
L 433.403497 -309.228865 
L 435.085836 -308.154268 
L 436.768176 -306.31544 
L 438.450516 -303.716197 
L 440.132855 -300.768683 
L 441.815195 -298.269163 
L 443.497534 -297.291111 
L 445.179874 -297.975509 
L 446.862213 -299.741718 
L 448.544553 -301.184791 
L 450.226893 -300.776809 
L 451.909232 -298.502772 
L 453.591572 -295.238647 
L 455.273911 -292.505329 
L 456.956251 -291.716778 
L 458.638591 -292.709341 
L 460.32093 -294.57303 
L 462.00327 -296.057509 
L 463.685609 -296.127093 
L 465.367949 -295.349279 
L 467.050288 -294.243189 
L 468.732628 -293.776795 
L 470.414968 -294.308699 
L 472.097307 -295.680803 
L 473.779647 -297.693296 
L 475.461986 -300.018265 
L 477.144326 -302.006431 
L 478.826666 -303.535416 
L 480.509005 -304.272342 
L 482.191345 -303.966248 
L 483.873684 -302.083432 
L 485.556024 -298.717991 
L 487.238363 -294.388617 
L 488.920703 -289.596393 
L 490.603043 -284.745457 
L 492.285382 -280.574955 
L 493.967722 -277.402271 
L 495.650061 -275.407799 
L 497.332401 -274.306035 
L 499.014741 -273.746178 
L 500.69708 -273.113266 
L 502.37942 -272.310418 
L 504.061759 -271.379707 
L 505.744099 -270.954997 
L 507.426439 -271.630218 
L 509.108778 -273.461666 
L 510.791118 -275.674431 
L 512.473457 -277.529018 
L 514.155797 -277.934912 
L 515.838136 -277.027062 
L 517.520476 -274.75735 
L 519.202816 -271.557134 
L 520.885155 -267.630706 
L 522.567495 -263.454389 
L 524.249834 -258.902718 
L 525.932174 -254.353002 
L 527.614514 -250.531783 
L 529.296853 -248.239709 
L 530.979193 -247.26953 
L 532.661532 -247.534414 
L 534.343872 -248.226333 
L 536.026211 -249.218895 
L 537.708551 -250.503105 
L 539.390891 -252.470646 
L 541.07323 -255.771974 
L 542.75557 -260.248086 
L 544.437909 -265.119463 
L 546.120249 -269.484267 
L 547.802589 -273.087584 
L 549.484928 -275.485172 
L 551.167268 -277.234432 
L 552.849607 -278.074944 
L 554.531947 -277.566087 
L 556.214286 -275.218754 
L 557.896626 -270.550483 
L 559.578966 -264.31814 
L 561.261305 -257.829253 
L 561.261305 -265.269571 
L 561.261305 -265.269571 
L 559.578966 -271.556643 
L 557.896626 -277.740097 
L 556.214286 -282.508767 
L 554.531947 -285.077549 
L 552.849607 -285.644102 
L 551.167268 -284.855052 
L 549.484928 -283.09955 
L 547.802589 -280.617882 
L 546.120249 -276.971913 
L 544.437909 -272.598453 
L 542.75557 -267.757805 
L 541.07323 -263.389117 
L 539.390891 -259.98031 
L 537.708551 -258.146853 
L 536.026211 -256.960837 
L 534.343872 -256.008571 
L 532.661532 -255.001273 
L 530.979193 -254.626766 
L 529.296853 -255.355988 
L 527.614514 -257.309608 
L 525.932174 -260.687341 
L 524.249834 -265.105606 
L 522.567495 -269.793644 
L 520.885155 -274.181011 
L 519.202816 -278.199453 
L 517.520476 -281.600323 
L 515.838136 -284.015093 
L 514.155797 -285.130216 
L 512.473457 -284.541509 
L 510.791118 -282.737746 
L 509.108778 -280.420512 
L 507.426439 -278.693993 
L 505.744099 -278.135115 
L 504.061759 -278.641391 
L 502.37942 -279.721027 
L 500.69708 -280.755522 
L 499.014741 -281.561232 
L 497.332401 -282.173173 
L 495.650061 -283.156906 
L 493.967722 -285.05424 
L 492.285382 -287.967676 
L 490.603043 -291.958884 
L 488.920703 -296.480762 
L 487.238363 -301.203146 
L 485.556024 -305.56745 
L 483.873684 -308.927797 
L 482.191345 -310.949208 
L 480.509005 -311.450049 
L 478.826666 -310.83375 
L 477.144326 -309.23507 
L 475.461986 -307.312743 
L 473.779647 -305.331352 
L 472.097307 -303.383158 
L 470.414968 -301.707116 
L 468.732628 -300.98906 
L 467.050288 -301.277534 
L 465.367949 -302.226238 
L 463.685609 -303.189666 
L 462.00327 -303.121251 
L 460.32093 -301.840235 
L 458.638591 -300.055873 
L 456.956251 -299.125031 
L 455.273911 -300.016246 
L 453.591572 -302.684077 
L 451.909232 -305.888776 
L 450.226893 -308.092834 
L 448.544553 -308.433375 
L 446.862213 -307.111671 
L 445.179874 -305.383986 
L 443.497534 -304.635256 
L 441.815195 -305.72826 
L 440.132855 -308.198656 
L 438.450516 -311.280097 
L 436.768176 -313.875698 
L 435.085836 -315.639164 
L 433.403497 -316.694881 
L 431.721157 -317.279758 
L 430.038818 -317.627055 
L 428.356478 -318.145451 
L 426.674138 -319.499662 
L 424.991799 -321.835555 
L 423.309459 -325.618145 
L 421.62712 -330.519973 
L 419.94478 -335.2396 
L 418.26244 -338.889682 
L 416.580101 -340.754092 
L 414.897761 -341.477929 
L 413.215422 -341.489518 
L 411.533082 -341.481006 
L 409.850743 -340.937695 
L 408.168403 -339.056248 
L 406.486063 -335.378828 
L 404.803724 -329.918515 
L 403.121384 -323.913235 
L 401.439045 -318.730455 
L 399.756705 -314.855141 
L 398.074365 -312.190907 
L 396.392026 -309.750576 
L 394.709686 -307.260424 
L 393.027347 -305.0122 
L 391.345007 -303.734317 
L 389.662668 -303.848887 
L 387.980328 -305.110448 
L 386.297988 -306.880765 
L 384.615649 -308.634347 
L 382.933309 -310.346239 
L 381.25097 -312.669703 
L 379.56863 -315.824855 
L 377.88629 -319.648083 
L 376.203951 -322.671715 
L 374.521611 -323.38832 
L 372.839272 -321.110011 
L 371.156932 -316.838398 
L 369.474593 -312.568502 
L 367.792253 -310.248159 
L 366.109913 -310.376155 
L 364.427574 -312.088457 
L 362.745234 -313.244155 
L 361.062895 -312.319625 
L 359.380555 -309.088195 
L 357.698215 -304.448619 
L 356.015876 -299.807118 
L 354.333536 -295.998592 
L 352.651197 -293.961728 
L 350.968857 -293.322338 
L 349.286517 -293.754439 
L 347.604178 -295.396067 
L 345.921838 -298.494007 
L 344.239499 -303.186011 
L 342.557159 -308.979452 
L 340.87482 -315.473531 
L 339.19248 -321.083839 
L 337.51014 -325.79327 
L 335.827801 -329.662717 
L 334.145461 -332.721538 
L 332.463122 -335.222882 
L 330.780782 -336.837392 
L 329.098442 -337.126566 
L 327.416103 -335.899171 
L 325.733763 -333.48793 
L 324.051424 -330.667302 
L 322.369084 -328.45816 
L 320.686745 -327.778329 
L 319.004405 -328.541537 
L 317.322065 -329.796241 
L 315.639726 -330.612228 
L 313.957386 -330.864926 
L 312.275047 -331.350495 
L 310.592707 -332.924687 
L 308.910367 -336.75726 
L 307.228028 -342.244887 
L 305.545688 -348.202377 
L 303.863349 -352.620431 
L 302.181009 -354.196102 
L 300.498669 -353.149048 
L 298.81633 -351.083363 
L 297.13399 -348.857719 
L 295.451651 -346.815281 
L 293.769311 -343.962663 
L 292.086972 -338.544155 
L 290.404632 -329.611935 
L 288.722292 -317.443957 
L 287.039953 -304.318696 
L 285.357613 -292.587656 
L 283.675274 -283.749747 
L 281.992934 -277.9846 
L 280.310594 -274.041266 
L 278.628255 -270.191279 
L 276.945915 -265.871915 
L 275.263576 -261.470573 
L 273.581236 -257.404259 
L 271.898897 -254.103995 
L 270.216557 -250.992391 
L 268.534217 -247.472028 
L 266.851878 -243.016258 
L 265.169538 -237.876632 
L 263.487199 -232.018406 
L 261.804859 -225.506003 
L 260.122519 -217.801172 
L 258.44018 -208.027541 
L 256.75784 -196.229776 
L 255.075501 -182.874243 
L 253.393161 -169.10524 
L 251.710822 -156.145101 
L 250.028482 -144.783909 
L 248.346142 -134.881809 
L 246.663803 -126.474639 
L 244.981463 -119.375241 
L 243.299124 -114.566291 
L 241.616784 -113.328601 
L 239.934444 -116.439453 
L 238.252105 -123.78243 
L 236.569765 -133.698809 
L 234.887426 -144.900429 
L 233.205086 -156.450941 
L 231.522746 -168.465333 
L 229.840407 -181.749736 
L 228.158067 -196.988139 
L 226.475728 -214.012872 
L 224.793388 -231.662812 
L 223.111049 -249.090769 
L 221.428709 -266.328933 
L 219.746369 -283.544595 
L 218.06403 -302.260714 
L 216.38169 -322.579117 
L 214.699351 -343.972553 
L 213.017011 -364.861414 
L 211.334671 -383.398405 
L 209.652332 -398.101545 
L 207.969992 -408.362567 
L 206.287653 -413.751493 
L 204.605313 -413.881635 
L 202.922974 -408.826131 
L 201.240634 -398.740542 
L 199.558294 -383.352336 
L 197.875955 -363.206926 
L 196.193615 -339.451167 
L 194.511276 -313.829058 
L 192.828936 -287.740605 
L 191.146596 -262.689523 
L 189.464257 -240.203922 
L 187.781917 -221.191489 
L 186.099578 -206.858599 
L 184.417238 -197.734602 
L 182.734899 -193.825705 
L 181.052559 -194.345258 
L 179.370219 -198.017197 
L 177.68788 -203.517105 
L 176.00554 -209.523077 
L 174.323201 -215.199363 
L 172.640861 -220.424606 
L 170.958521 -225.201405 
L 169.276182 -229.752557 
L 167.593842 -234.309096 
L 165.911503 -238.88316 
L 164.229163 -243.614958 
L 162.546823 -247.809054 
L 160.864484 -250.717713 
L 159.182144 -251.652844 
L 157.499805 -250.52593 
L 155.817465 -247.533835 
L 154.135126 -243.58551 
L 152.452786 -240.230155 
L 150.770446 -238.291657 
L 149.088107 -237.641056 
L 147.405767 -237.414532 
L 145.723428 -236.18738 
L 144.041088 -233.290392 
L 142.358748 -229.403284 
L 140.676409 -225.444564 
L 138.994069 -223.031933 
L 137.31173 -222.724966 
L 135.62939 -224.01016 
L 133.947051 -225.938185 
L 132.264711 -226.938665 
L 130.582371 -226.259547 
L 128.900032 -224.361043 
L 127.217692 -222.465246 
L 125.535353 -221.887956 
L 123.853013 -222.864511 
L 122.170673 -224.724986 
L 120.488334 -226.390948 
L 118.805994 -227.058641 
L 117.123655 -226.594212 
L 115.441315 -225.594073 
L 113.758976 -225.346109 
L 112.076636 -226.216063 
L 110.394296 -228.53055 
L 108.711957 -231.329487 
L 107.029617 -233.677162 
L 105.347278 -234.743093 
L 103.664938 -233.961602 
L 101.982598 -231.427785 
L 100.300259 -227.969798 
L 98.617919 -224.146326 
L 96.93558 -220.971027 
L 95.25324 -219.076918 
L 93.5709 -218.312904 
L 91.888561 -218.03484 
L 90.206221 -217.36271 
L 88.523882 -215.85971 
L 86.841542 -213.86262 
L 85.159203 -212.136165 
L 83.476863 -211.645514 
L 81.794523 -213.180732 
L 80.112184 -215.935771 
L 78.429844 -219.059026 
L 76.747505 -221.645789 
L 75.065165 -223.295152 
L 73.382825 -224.329011 
L 71.700486 -225.540209 
L 70.018146 -227.380313 
L 68.335807 -230.217124 
L 66.653467 -233.594965 
L 64.971128 -237.056477 
L 63.288788 -240.201069 
L 61.606448 -242.525403 
L 59.924109 -243.480038 
L 58.241769 -242.631117 
L 56.55943 -240.13525 
L 54.87709 -236.548877 
L 53.19475 -232.746558 
L 51.512411 -229.37738 
L 49.830071 -226.415191 
L 48.147732 -223.471996 
L 46.465392 -219.924698 
L 44.783052 -215.527509 
z
" style="stroke: #ff7f0e; stroke-opacity: 0.3"/>
    </defs>
    <g>
     <use xlink:href="#m4908bfbb9e" x="0" y="432" style="fill: #ff7f0e; fill-opacity: 0.3; stroke: #ff7f0e; stroke-opacity: 0.3"/>
    </g>
   </g>
   <g id="line2d_16">
    <path d="M 44.783052 190.540841 
L 46.465392 186.255098 
L 48.147732 184.697391 
L 49.830071 187.016802 
L 51.512411 192.545908 
L 53.19475 199.092387 
L 54.87709 204.281999 
L 56.55943 206.876218 
L 58.241769 207.532939 
L 59.924109 208.054627 
L 61.606448 210.432901 
L 63.288788 214.896443 
L 64.971128 219.95284 
L 66.653467 223.225926 
L 68.335807 222.919156 
L 70.018146 219.664844 
L 71.700486 215.420443 
L 73.382825 212.500907 
L 75.065165 211.958922 
L 78.429844 214.044053 
L 80.112184 212.979824 
L 81.794523 209.510857 
L 83.476863 205.098577 
L 85.159203 201.584244 
L 86.841542 200.4923 
L 88.523882 201.719897 
L 90.206221 203.805807 
L 91.888561 205.072417 
L 93.5709 204.987492 
L 95.25324 203.557936 
L 96.93558 201.657551 
L 98.617919 200.712229 
L 100.300259 201.485997 
L 101.982598 203.996789 
L 105.347278 210.792312 
L 107.029617 213.240044 
L 108.711957 214.682876 
L 112.076636 216.37883 
L 113.758976 217.826603 
L 117.123655 221.672622 
L 118.805994 222.368889 
L 120.488334 220.996198 
L 122.170673 217.162267 
L 125.535353 206.083456 
L 127.217692 201.876618 
L 128.900032 199.780129 
L 130.582371 199.472936 
L 132.264711 199.937666 
L 133.947051 200.228597 
L 135.62939 199.786698 
L 137.31173 198.682045 
L 138.994069 197.40512 
L 140.676409 196.28231 
L 142.358748 195.465947 
L 144.041088 194.94882 
L 145.723428 194.69918 
L 147.405767 195.188935 
L 149.088107 197.024852 
L 150.770446 200.511614 
L 154.135126 209.164688 
L 155.817465 211.713575 
L 157.499805 212.147507 
L 159.182144 211.019965 
L 160.864484 210.070384 
L 162.546823 211.205716 
L 164.229163 215.43989 
L 165.911503 222.216787 
L 167.593842 229.730657 
L 169.276182 236.094081 
L 170.958521 240.533606 
L 174.323201 246.61296 
L 176.00554 250.723501 
L 179.370219 260.885454 
L 181.052559 263.915125 
L 182.734899 263.505096 
L 184.417238 258.883664 
L 186.099578 249.967749 
L 187.781917 237.015513 
L 189.464257 219.842537 
L 191.146596 198.602335 
L 192.828936 174.096911 
L 196.193615 122.86179 
L 197.875955 101.43955 
L 199.558294 85.140738 
L 201.240634 74.476575 
L 202.922974 68.970947 
L 204.605313 67.729082 
L 206.287653 70.405296 
L 207.969992 77.00061 
L 209.652332 87.455808 
L 211.334671 101.130646 
L 216.38169 148.408434 
L 219.746369 182.214985 
L 224.793388 237.797499 
L 226.475728 253.928254 
L 229.840407 281.631019 
L 233.205086 307.544644 
L 234.887426 318.521837 
L 236.569765 326.259184 
L 238.252105 329.95939 
L 239.934444 330.081905 
L 241.616784 327.84689 
L 243.299124 324.025623 
L 244.981463 318.484803 
L 246.663803 310.407976 
L 248.346142 299.463658 
L 253.393161 260.9372 
L 255.075501 250.929701 
L 256.75784 242.76187 
L 260.122519 227.975472 
L 265.169538 204.728033 
L 271.898897 176.70415 
L 278.628255 145.745449 
L 283.675274 119.958989 
L 285.357613 112.183358 
L 287.039953 105.229476 
L 288.722292 98.84985 
L 290.404632 92.97734 
L 292.086972 87.79319 
L 293.769311 83.748438 
L 295.451651 81.673946 
L 297.13399 82.09162 
L 298.81633 85.09482 
L 300.498669 89.994372 
L 302.181009 95.694069 
L 303.863349 100.841938 
L 305.545688 104.171731 
L 307.228028 104.892049 
L 308.910367 102.92073 
L 310.592707 98.893085 
L 313.957386 89.150985 
L 319.004405 76.600573 
L 320.686745 70.810776 
L 322.369084 63.661237 
L 324.051424 55.947277 
L 325.733763 48.795186 
L 327.416103 43.074398 
L 329.098442 39.117531 
L 330.780782 36.65541 
L 332.463122 35.330479 
L 334.145461 35.092863 
L 335.827801 36.131645 
L 337.51014 38.712702 
L 339.19248 42.859822 
L 340.87482 48.352173 
L 342.557159 54.810666 
L 345.921838 69.244771 
L 347.604178 76.580389 
L 349.286517 83.331681 
L 350.968857 88.719755 
L 352.651197 91.945767 
L 354.333536 92.614472 
L 356.015876 90.876016 
L 357.698215 87.458368 
L 362.745234 74.96947 
L 366.109913 67.496967 
L 367.792253 64.152665 
L 369.474593 61.773337 
L 371.156932 61.117994 
L 372.839272 62.573285 
L 374.521611 65.819774 
L 376.203951 69.69998 
L 377.88629 72.861188 
L 379.56863 74.379522 
L 382.933309 74.634247 
L 384.615649 76.322882 
L 386.297988 80.515828 
L 389.662668 93.440712 
L 391.345007 98.482385 
L 393.027347 100.686887 
L 394.709686 100.072131 
L 396.392026 97.38302 
L 398.074365 93.436396 
L 399.756705 88.748827 
L 403.121384 78.52666 
L 404.803724 73.991642 
L 406.486063 70.748877 
L 408.168403 69.149889 
L 409.850743 68.985055 
L 411.533082 69.331387 
L 413.215422 69.038043 
L 414.897761 67.631598 
L 416.580101 65.628741 
L 418.26244 64.110743 
L 419.94478 64.082171 
L 421.62712 65.736307 
L 424.991799 71.309902 
L 426.674138 73.141702 
L 428.356478 73.696462 
L 430.038818 73.559914 
L 431.721157 73.838334 
L 433.403497 75.933926 
L 435.085836 80.581484 
L 436.768176 87.312733 
L 438.450516 94.918083 
L 440.132855 101.493194 
L 441.815195 105.407625 
L 443.497534 106.024277 
L 445.179874 104.391273 
L 446.862213 102.516572 
L 448.544553 102.153125 
L 450.226893 104.140279 
L 451.909232 107.918056 
L 453.591572 112.151716 
L 455.273911 115.61706 
L 458.638591 120.790786 
L 460.32093 124.223497 
L 463.685609 133.063366 
L 465.367949 136.496573 
L 467.050288 138.257381 
L 470.414968 138.785726 
L 472.097307 140.157047 
L 473.779647 143.104216 
L 475.461986 146.921604 
L 477.144326 149.963496 
L 478.826666 150.770985 
L 480.509005 148.841193 
L 482.191345 144.80841 
L 483.873684 139.884165 
L 485.556024 135.459622 
L 487.238363 132.223692 
L 488.920703 130.208734 
L 490.603043 129.000764 
L 492.285382 127.994794 
L 493.967722 127.124175 
L 495.650061 126.574036 
L 497.332401 126.885529 
L 499.014741 128.757288 
L 500.69708 132.47615 
L 502.37942 137.31677 
L 504.061759 141.396383 
L 505.744099 142.676466 
L 507.426439 139.925909 
L 509.108778 133.317084 
L 510.791118 124.594987 
L 512.473457 116.681523 
L 514.155797 111.984322 
L 515.838136 111.504399 
L 517.520476 114.283972 
L 519.202816 118.15357 
L 520.885155 121.142065 
L 522.567495 122.61363 
L 524.249834 123.267276 
L 525.932174 124.392591 
L 527.614514 126.832833 
L 530.979193 133.204987 
L 532.661532 134.878985 
L 534.343872 135.070429 
L 536.026211 134.503806 
L 537.708551 134.242847 
L 539.390891 135.025526 
L 541.07323 136.266669 
L 542.75557 136.616095 
L 544.437909 134.683185 
L 546.120249 130.545186 
L 547.802589 125.713041 
L 549.484928 122.297495 
L 551.167268 121.917071 
L 552.849607 124.635432 
L 556.214286 133.177248 
L 557.896626 135.510196 
L 559.578966 135.876824 
L 561.261305 135.190673 
L 561.261305 135.190673 
" style="fill: none; stroke: #1f77b4; stroke-width: 1.5; stroke-linecap: square"/>
   </g>
   <g id="line2d_17">
    <path d="M 44.783052 219.59661 
L 46.465392 215.188201 
L 48.147732 211.625009 
L 51.512411 205.640548 
L 53.19475 202.195943 
L 56.55943 194.674608 
L 58.241769 192.199963 
L 59.924109 191.380776 
L 61.606448 192.204174 
L 63.288788 194.512436 
L 64.971128 197.72749 
L 68.335807 204.762041 
L 70.018146 207.510264 
L 71.700486 209.287161 
L 75.065165 211.370325 
L 76.747505 212.993262 
L 78.429844 215.513474 
L 80.112184 218.514944 
L 81.794523 221.220889 
L 83.476863 222.614669 
L 85.159203 222.168617 
L 86.841542 220.403973 
L 88.523882 218.352892 
L 90.206221 216.959722 
L 91.888561 216.319092 
L 93.5709 216.051355 
L 95.25324 215.289328 
L 96.93558 213.425642 
L 98.617919 210.360707 
L 101.982598 203.115966 
L 103.664938 200.679655 
L 105.347278 199.968866 
L 107.029617 201.058796 
L 108.711957 203.435588 
L 110.394296 206.257243 
L 112.076636 208.570517 
L 113.758976 209.548957 
L 115.441315 209.153442 
L 117.123655 208.084387 
L 118.805994 207.557525 
L 120.488334 208.18296 
L 122.170673 209.886367 
L 123.853013 211.933426 
L 125.535353 213.114523 
L 127.217692 212.68621 
L 130.582371 209.101499 
L 132.264711 208.45881 
L 133.947051 209.461485 
L 135.62939 211.386007 
L 137.31173 212.823444 
L 138.994069 212.499441 
L 140.676409 210.013701 
L 144.041088 202.180184 
L 145.723428 199.479507 
L 147.405767 198.352873 
L 149.088107 198.034867 
L 150.770446 197.361291 
L 152.452786 195.345956 
L 154.135126 191.922948 
L 155.817465 187.965889 
L 157.499805 184.843444 
L 159.182144 183.624675 
L 160.864484 184.665 
L 162.546823 187.704088 
L 164.229163 191.951125 
L 170.958521 210.740519 
L 172.640861 215.519121 
L 174.323201 220.699487 
L 179.370219 237.649551 
L 181.052559 241.388406 
L 182.734899 242.018758 
L 184.417238 238.171628 
L 186.099578 229.097156 
L 187.781917 214.801216 
L 189.464257 195.806338 
L 191.146596 173.286231 
L 194.511276 122.503143 
L 196.193615 96.974923 
L 197.875955 73.270071 
L 199.558294 52.93766 
L 201.240634 37.311288 
L 202.922974 27.006653 
L 204.605313 21.880121 
L 206.287653 22.047628 
L 207.969992 27.325457 
L 209.652332 37.566972 
L 211.334671 52.367749 
L 213.017011 71.083891 
L 218.06403 133.845267 
L 219.746369 152.332091 
L 228.158067 238.651758 
L 229.840407 253.877257 
L 231.522746 267.219916 
L 234.887426 290.709634 
L 236.569765 301.871461 
L 238.252105 311.816565 
L 239.934444 319.076765 
L 241.616784 322.322284 
L 243.299124 321.209665 
L 244.981463 316.491439 
L 246.663803 309.394541 
L 248.346142 300.847926 
L 250.028482 290.967208 
L 251.710822 279.560961 
L 255.075501 252.699292 
L 256.75784 239.301145 
L 258.44018 227.525632 
L 260.122519 217.878334 
L 261.804859 210.151181 
L 263.487199 203.68815 
L 265.169538 197.99483 
L 266.851878 192.937161 
L 268.534217 188.662313 
L 270.216557 185.168004 
L 271.898897 182.033846 
L 273.581236 178.56935 
L 275.263576 174.408977 
L 278.628255 165.571382 
L 280.310594 161.825571 
L 281.992934 157.801821 
L 283.675274 152.056351 
L 285.357613 143.348101 
L 287.039953 131.720306 
L 288.722292 118.629812 
L 290.404632 106.510674 
L 292.086972 97.381939 
L 293.769311 91.911072 
L 295.451651 89.107305 
L 297.13399 87.228988 
L 300.498669 82.903681 
L 302.181009 81.925006 
L 303.863349 83.448262 
L 305.545688 87.735378 
L 308.910367 99.330579 
L 310.592707 103.215177 
L 312.275047 104.924414 
L 313.957386 105.276357 
L 315.639726 105.482955 
L 317.322065 106.322996 
L 319.004405 107.528183 
L 320.686745 108.179435 
L 322.369084 107.491833 
L 324.051424 105.350763 
L 325.733763 102.459389 
L 327.416103 99.945825 
L 329.098442 98.70414 
L 330.780782 99.022283 
L 332.463122 100.622455 
L 334.145461 103.054682 
L 335.827801 106.080955 
L 337.51014 109.859854 
L 339.19248 114.666047 
L 340.87482 120.4865 
L 344.239499 132.731859 
L 345.921838 137.448396 
L 347.604178 140.558539 
L 349.286517 142.16663 
L 350.968857 142.579781 
L 352.651197 141.89136 
L 354.333536 139.883014 
L 356.015876 136.343684 
L 359.380555 126.848264 
L 361.062895 123.503588 
L 362.745234 122.563877 
L 364.427574 123.666108 
L 366.109913 125.273003 
L 367.792253 125.436184 
L 369.474593 123.101021 
L 372.839272 114.481244 
L 374.521611 112.13292 
L 376.203951 112.763738 
L 377.88629 115.785765 
L 379.56863 119.618854 
L 381.25097 122.889576 
L 382.933309 125.184275 
L 386.297988 128.858876 
L 387.980328 130.783398 
L 389.662668 132.201229 
L 391.345007 132.341695 
L 393.027347 131.047018 
L 394.709686 128.759121 
L 399.756705 121.076637 
L 401.439045 117.375668 
L 403.121384 112.291655 
L 404.803724 106.388776 
L 406.486063 100.925017 
L 408.168403 97.085735 
L 409.850743 95.100259 
L 411.533082 94.440083 
L 413.215422 94.27431 
L 414.897761 94.322755 
L 416.580101 94.940219 
L 418.26244 96.864779 
L 419.94478 100.486905 
L 423.309459 110.142167 
L 424.991799 114.046132 
L 426.674138 116.494758 
L 428.356478 117.724346 
L 430.038818 118.225841 
L 431.721157 118.497215 
L 433.403497 119.045099 
L 435.085836 120.103693 
L 436.768176 121.985106 
L 438.450516 124.602282 
L 440.132855 127.583203 
L 441.815195 130.080043 
L 443.497534 131.114323 
L 445.179874 130.340697 
L 446.862213 128.579181 
L 448.544553 127.227922 
L 450.226893 127.553066 
L 451.909232 129.855686 
L 453.591572 133.115052 
L 455.273911 135.730733 
L 456.956251 136.561636 
L 458.638591 135.556957 
L 460.32093 133.747873 
L 462.00327 132.451419 
L 463.685609 132.362787 
L 465.367949 133.257838 
L 467.050288 134.340889 
L 468.732628 134.70986 
L 470.414968 134.044347 
L 472.097307 132.50603 
L 473.779647 130.500887 
L 477.144326 126.297244 
L 478.826666 124.734203 
L 480.509005 124.006068 
L 482.191345 124.471533 
L 483.873684 126.384268 
L 485.556024 129.711964 
L 487.238363 134.042653 
L 490.603043 143.56106 
L 492.285382 147.611259 
L 493.967722 150.658436 
L 495.650061 152.598078 
L 497.332401 153.639179 
L 499.014741 154.2664 
L 500.69708 155.044671 
L 504.061759 157.085853 
L 505.744099 157.543689 
L 507.426439 156.868314 
L 509.108778 155.052367 
L 510.791118 152.757817 
L 512.473457 150.992514 
L 514.155797 150.482808 
L 515.838136 151.488666 
L 517.520476 153.85974 
L 519.202816 157.164514 
L 520.885155 161.08071 
L 524.249834 170.029743 
L 525.932174 174.453008 
L 527.614514 178.031863 
L 529.296853 180.2105 
L 530.979193 180.934716 
L 532.661532 180.642106 
L 534.343872 179.862219 
L 536.026211 178.925841 
L 537.708551 177.693974 
L 539.390891 175.680936 
L 541.07323 172.363395 
L 542.75557 167.923736 
L 544.437909 163.085424 
L 546.120249 158.691442 
L 547.802589 155.212812 
L 549.484928 152.736414 
L 551.167268 151.041728 
L 552.849607 150.15973 
L 554.531947 150.648299 
L 556.214286 153.169336 
L 557.896626 157.91155 
L 561.261305 170.458987 
L 561.261305 170.458987 
" style="fill: none; stroke: #ff7f0e; stroke-width: 1.5; stroke-linecap: square"/>
   </g>
  </g>
  <g id="axes_2">
   <g id="PathCollection_1">
    <defs>
     <path id="C0_0_9932fccf22" d="M 0 1.118034 
C 0.296506 1.118034 0.580908 1.000231 0.790569 0.790569 
C 1.000231 0.580908 1.118034 0.296506 1.118034 -0 
C 1.118034 -0.296506 1.000231 -0.580908 0.790569 -0.790569 
C 0.580908 -1.000231 0.296506 -1.118034 0 -1.118034 
C -0.296506 -1.118034 -0.580908 -1.000231 -0.790569 -0.790569 
C -1.000231 -0.580908 -1.118034 -0.296506 -1.118034 0 
C -1.118034 0.296506 -1.000231 0.580908 -0.790569 0.790569 
C -0.580908 1.000231 -0.296506 1.118034 0 1.118034 
z
"/>
    </defs>
    <g clip-path="url(#pf2aba61f69)">
     <use xlink:href="#C0_0_9932fccf22" x="509.13937" y="46.64915" style="stroke: #000000"/>
    </g>
    <g clip-path="url(#pf2aba61f69)">
     <use xlink:href="#C0_0_9932fccf22" x="509.092397" y="76.413687" style="stroke: #000000"/>
    </g>
    <g clip-path="url(#pf2aba61f69)">
     <use xlink:href="#C0_0_9932fccf22" x="509.035125" y="85.80057" style="stroke: #000000"/>
    </g>
    <g clip-path="url(#pf2aba61f69)">
     <use xlink:href="#C0_0_9932fccf22" x="509.130245" y="66.304876" style="stroke: #000000"/>
    </g>
   </g>
   <g id="matplotlib.axis_3"/>
   <g id="matplotlib.axis_4"/>
   <g id="line2d_18">
    <path d="M 548.860095 73.636387 
L 548.782417 71.164635 
L 548.54969 68.702638 
L 548.162832 66.260111 
L 547.623369 63.846696 
L 546.933432 61.471916 
L 546.095742 59.145144 
L 545.113607 56.875562 
L 543.990901 54.672127 
L 542.732055 52.543535 
L 541.342038 50.498188 
L 539.826336 48.544156 
L 538.19093 46.689152 
L 536.442274 44.940496 
L 534.58727 43.30509 
L 532.633238 41.789388 
L 530.587891 40.399371 
L 528.459299 39.140526 
L 526.255865 38.017819 
L 523.986282 37.035684 
L 521.65951 36.197994 
L 519.28473 35.508057 
L 516.871315 34.968594 
L 514.428789 34.581736 
L 511.966791 34.349009 
L 509.495039 34.271331 
L 507.023286 34.349009 
L 504.561289 34.581736 
L 502.118763 34.968594 
L 499.705347 35.508057 
L 497.330567 36.197994 
L 495.003795 37.035684 
L 492.734213 38.017819 
L 490.530778 39.140526 
L 488.402187 40.399371 
L 486.356839 41.789388 
L 484.402808 43.30509 
L 482.547803 44.940496 
L 480.799148 46.689152 
L 479.163742 48.544156 
L 477.648039 50.498188 
L 476.258022 52.543535 
L 474.999177 54.672127 
L 473.876471 56.875562 
L 472.894335 59.145144 
L 472.056645 61.471916 
L 471.366708 63.846696 
L 470.827246 66.260111 
L 470.440388 68.702638 
L 470.20766 71.164635 
L 470.129982 73.636387 
L 470.20766 76.10814 
L 470.440388 78.570137 
L 470.827246 81.012663 
L 471.366708 83.426079 
L 472.056645 85.800859 
L 472.894335 88.127631 
L 473.876471 90.397213 
L 474.999177 92.600648 
L 476.258022 94.729239 
L 477.648039 96.774587 
L 479.163742 98.728619 
L 480.799148 100.583623 
L 482.547803 102.332278 
L 484.402808 103.967685 
L 486.356839 105.483387 
L 488.402187 106.873404 
L 490.530778 108.132249 
L 492.734213 109.254955 
L 495.003795 110.237091 
L 497.330567 111.074781 
L 499.705347 111.764718 
L 502.118763 112.30418 
L 504.561289 112.691038 
L 507.023286 112.923766 
L 509.495039 113.001444 
L 511.966791 112.923766 
L 514.428789 112.691038 
L 516.871315 112.30418 
L 519.28473 111.764718 
L 521.65951 111.074781 
L 523.986282 110.237091 
L 526.255865 109.254955 
L 528.459299 108.132249 
L 530.587891 106.873404 
L 532.633238 105.483387 
L 534.58727 103.967685 
L 536.442274 102.332278 
L 538.19093 100.583623 
L 539.826336 98.728619 
L 541.342038 96.774587 
L 542.732055 94.729239 
L 543.990901 92.600648 
L 545.113607 90.397213 
L 546.095742 88.127631 
L 546.933432 85.800859 
L 547.623369 83.426079 
L 548.162832 81.012663 
L 548.54969 78.570137 
L 548.782417 76.10814 
L 548.860095 73.636387 
" style="fill: none; stroke: #000000; stroke-linecap: square"/>
   </g>
   <g id="line2d_19">
    <path d="M 501.250441 35.144385 
L 509.495039 28.366573 
L 517.739637 35.144385 
" style="fill: none; stroke: #000000; stroke-linecap: square"/>
   </g>
   <g id="line2d_20">
    <path d="M 470.366173 69.266866 
L 469.342681 67.534804 
L 468.71284 67.47182 
L 467.775952 67.763121 
L 466.831191 69.266866 
L 466.980778 74.069403 
L 466.429667 80.974034 
L 467.610619 83.973651 
L 469.342681 84.532635 
L 470.996014 83.076128 
" style="fill: none; stroke: #000000; stroke-linecap: square"/>
   </g>
   <g id="line2d_21">
    <path d="M 548.623905 69.266866 
L 549.647396 67.534804 
L 550.277237 67.47182 
L 551.214125 67.763121 
L 552.158887 69.266866 
L 552.0093 74.069403 
L 552.56041 80.974034 
L 551.379459 83.973651 
L 549.647396 84.532635 
L 547.994064 83.076128 
" style="fill: none; stroke: #000000; stroke-linecap: square"/>
   </g>
  </g>
 </g>
 <defs>
  <clipPath id="p13a9292315">
   <rect x="44.783053" y="18.118365" width="517.083895" height="380.525145"/>
  </clipPath>
  <clipPath id="pf2aba61f69">
   <rect x="462.12313" y="24.134829" width="94.743817" height="93.098358"/>
  </clipPath>
 </defs>
</svg>
