<?xml version="1.0" encoding="utf-8" standalone="no"?>
<!DOCTYPE svg PUBLIC "-//W3C//DTD SVG 1.1//EN"
  "http://www.w3.org/Graphics/SVG/1.1/DTD/svg11.dtd">
<svg xmlns:xlink="http://www.w3.org/1999/xlink" width="576pt" height="432pt" viewBox="0 0 576 432" xmlns="http://www.w3.org/2000/svg" version="1.1">
 <metadata>
  <rdf:RDF xmlns:dc="http://purl.org/dc/elements/1.1/" xmlns:cc="http://creativecommons.org/ns#" xmlns:rdf="http://www.w3.org/1999/02/22-rdf-syntax-ns#">
   <cc:Work>
    <dc:type rdf:resource="http://purl.org/dc/dcmitype/StillImage"/>
    <dc:date>2025-02-14T14:31:52.627237</dc:date>
    <dc:format>image/svg+xml</dc:format>
    <dc:creator>
     <cc:Agent>
      <dc:title>Matplotlib v3.10.0, https://matplotlib.org/</dc:title>
     </cc:Agent>
    </dc:creator>
   </cc:Work>
  </rdf:RDF>
 </metadata>
 <defs>
  <style type="text/css">*{stroke-linejoin: round; stroke-linecap: butt}</style>
 </defs>
 <g id="figure_1">
  <g id="patch_1">
   <path d="M 0 432 
L 576 432 
L 576 0 
L 0 0 
z
" style="fill: #ffffff"/>
  </g>
  <g id="axes_1">
   <g id="patch_2">
    <path d="M 38.420552 398.64351 
L 572.99976 398.64351 
L 572.99976 18.118365 
L 38.420552 18.118365 
L 38.420552 398.64351 
z
" style="fill: none; opacity: 0"/>
   </g>
   <g id="patch_3">
    <path d="M 38.420552 369.75244 
L 38.420552 47.009435 
" style="fill: none; stroke: #000000; stroke-width: 0.8; stroke-linejoin: miter; stroke-linecap: square"/>
   </g>
   <g id="LineCollection_1">
    <path d="M 185.177346 18.118365 
L 185.177346 398.64351 
" clip-path="url(#p8d1005e39c)" style="fill: none; stroke-dasharray: 3.7,1.6; stroke-dashoffset: 0; stroke: #000000"/>
    <path d="M 211.923719 18.118365 
L 211.923719 398.64351 
" clip-path="url(#p8d1005e39c)" style="fill: none; stroke-dasharray: 3.7,1.6; stroke-dashoffset: 0; stroke: #000000"/>
   </g>
   <g id="matplotlib.axis_1">
    <g id="xtick_1">
     <g id="line2d_1">
      <defs>
       <path id="m030fd53b97" d="M 0 0 
L 0 3.5 
" style="stroke: #000000; stroke-width: 0.8"/>
      </defs>
      <g>
       <use xlink:href="#m030fd53b97" x="64.818666" y="398.64351" style="stroke: #000000; stroke-width: 0.8"/>
      </g>
     </g>
     <g id="text_1">
      <!-- −0.20 -->
      <g transform="translate(49.49601 413.241947) scale(0.1 -0.1)">
       <defs>
        <path id="DejaVuSans-2212" d="M 678 2272 
L 4684 2272 
L 4684 1741 
L 678 1741 
L 678 2272 
z
" transform="scale(0.015625)"/>
        <path id="DejaVuSans-30" d="M 2034 4250 
Q 1547 4250 1301 3770 
Q 1056 3291 1056 2328 
Q 1056 1369 1301 889 
Q 1547 409 2034 409 
Q 2525 409 2770 889 
Q 3016 1369 3016 2328 
Q 3016 3291 2770 3770 
Q 2525 4250 2034 4250 
z
M 2034 4750 
Q 2819 4750 3233 4129 
Q 3647 3509 3647 2328 
Q 3647 1150 3233 529 
Q 2819 -91 2034 -91 
Q 1250 -91 836 529 
Q 422 1150 422 2328 
Q 422 3509 836 4129 
Q 1250 4750 2034 4750 
z
" transform="scale(0.015625)"/>
        <path id="DejaVuSans-2e" d="M 684 794 
L 1344 794 
L 1344 0 
L 684 0 
L 684 794 
z
" transform="scale(0.015625)"/>
        <path id="DejaVuSans-32" d="M 1228 531 
L 3431 531 
L 3431 0 
L 469 0 
L 469 531 
Q 828 903 1448 1529 
Q 2069 2156 2228 2338 
Q 2531 2678 2651 2914 
Q 2772 3150 2772 3378 
Q 2772 3750 2511 3984 
Q 2250 4219 1831 4219 
Q 1534 4219 1204 4116 
Q 875 4013 500 3803 
L 500 4441 
Q 881 4594 1212 4672 
Q 1544 4750 1819 4750 
Q 2544 4750 2975 4387 
Q 3406 4025 3406 3419 
Q 3406 3131 3298 2873 
Q 3191 2616 2906 2266 
Q 2828 2175 2409 1742 
Q 1991 1309 1228 531 
z
" transform="scale(0.015625)"/>
       </defs>
       <use xlink:href="#DejaVuSans-2212"/>
       <use xlink:href="#DejaVuSans-30" transform="translate(83.789062 0)"/>
       <use xlink:href="#DejaVuSans-2e" transform="translate(147.412109 0)"/>
       <use xlink:href="#DejaVuSans-32" transform="translate(179.199219 0)"/>
       <use xlink:href="#DejaVuSans-30" transform="translate(242.822266 0)"/>
      </g>
     </g>
    </g>
    <g id="xtick_2">
     <g id="line2d_2">
      <g>
       <use xlink:href="#m030fd53b97" x="153.973244" y="398.64351" style="stroke: #000000; stroke-width: 0.8"/>
      </g>
     </g>
     <g id="text_2">
      <!-- 0.00 -->
      <g transform="translate(142.840431 413.241947) scale(0.1 -0.1)">
       <use xlink:href="#DejaVuSans-30"/>
       <use xlink:href="#DejaVuSans-2e" transform="translate(63.623047 0)"/>
       <use xlink:href="#DejaVuSans-30" transform="translate(95.410156 0)"/>
       <use xlink:href="#DejaVuSans-30" transform="translate(159.033203 0)"/>
      </g>
     </g>
    </g>
    <g id="xtick_3">
     <g id="line2d_3">
      <g>
       <use xlink:href="#m030fd53b97" x="185.177346" y="398.64351" style="stroke: #000000; stroke-width: 0.8"/>
      </g>
     </g>
     <g id="text_3">
      <!-- 0.07 -->
      <g transform="translate(174.044534 413.241947) scale(0.1 -0.1)">
       <defs>
        <path id="DejaVuSans-37" d="M 525 4666 
L 3525 4666 
L 3525 4397 
L 1831 0 
L 1172 0 
L 2766 4134 
L 525 4134 
L 525 4666 
z
" transform="scale(0.015625)"/>
       </defs>
       <use xlink:href="#DejaVuSans-30"/>
       <use xlink:href="#DejaVuSans-2e" transform="translate(63.623047 0)"/>
       <use xlink:href="#DejaVuSans-30" transform="translate(95.410156 0)"/>
       <use xlink:href="#DejaVuSans-37" transform="translate(159.033203 0)"/>
      </g>
     </g>
    </g>
    <g id="xtick_4">
     <g id="line2d_4">
      <g>
       <use xlink:href="#m030fd53b97" x="211.923719" y="398.64351" style="stroke: #000000; stroke-width: 0.8"/>
      </g>
     </g>
     <g id="text_4">
      <!-- 0.13 -->
      <g transform="translate(200.790907 413.241947) scale(0.1 -0.1)">
       <defs>
        <path id="DejaVuSans-31" d="M 794 531 
L 1825 531 
L 1825 4091 
L 703 3866 
L 703 4441 
L 1819 4666 
L 2450 4666 
L 2450 531 
L 3481 531 
L 3481 0 
L 794 0 
L 794 531 
z
" transform="scale(0.015625)"/>
        <path id="DejaVuSans-33" d="M 2597 2516 
Q 3050 2419 3304 2112 
Q 3559 1806 3559 1356 
Q 3559 666 3084 287 
Q 2609 -91 1734 -91 
Q 1441 -91 1130 -33 
Q 819 25 488 141 
L 488 750 
Q 750 597 1062 519 
Q 1375 441 1716 441 
Q 2309 441 2620 675 
Q 2931 909 2931 1356 
Q 2931 1769 2642 2001 
Q 2353 2234 1838 2234 
L 1294 2234 
L 1294 2753 
L 1863 2753 
Q 2328 2753 2575 2939 
Q 2822 3125 2822 3475 
Q 2822 3834 2567 4026 
Q 2313 4219 1838 4219 
Q 1578 4219 1281 4162 
Q 984 4106 628 3988 
L 628 4550 
Q 988 4650 1302 4700 
Q 1616 4750 1894 4750 
Q 2613 4750 3031 4423 
Q 3450 4097 3450 3541 
Q 3450 3153 3228 2886 
Q 3006 2619 2597 2516 
z
" transform="scale(0.015625)"/>
       </defs>
       <use xlink:href="#DejaVuSans-30"/>
       <use xlink:href="#DejaVuSans-2e" transform="translate(63.623047 0)"/>
       <use xlink:href="#DejaVuSans-31" transform="translate(95.410156 0)"/>
       <use xlink:href="#DejaVuSans-33" transform="translate(159.033203 0)"/>
      </g>
     </g>
    </g>
    <g id="xtick_5">
     <g id="line2d_5">
      <g>
       <use xlink:href="#m030fd53b97" x="243.127822" y="398.64351" style="stroke: #000000; stroke-width: 0.8"/>
      </g>
     </g>
     <g id="text_5">
      <!-- 0.20 -->
      <g transform="translate(231.995009 413.241947) scale(0.1 -0.1)">
       <use xlink:href="#DejaVuSans-30"/>
       <use xlink:href="#DejaVuSans-2e" transform="translate(63.623047 0)"/>
       <use xlink:href="#DejaVuSans-32" transform="translate(95.410156 0)"/>
       <use xlink:href="#DejaVuSans-30" transform="translate(159.033203 0)"/>
      </g>
     </g>
    </g>
    <g id="xtick_6">
     <g id="line2d_6">
      <g>
       <use xlink:href="#m030fd53b97" x="332.2824" y="398.64351" style="stroke: #000000; stroke-width: 0.8"/>
      </g>
     </g>
     <g id="text_6">
      <!-- 0.40 -->
      <g transform="translate(321.149587 413.241947) scale(0.1 -0.1)">
       <defs>
        <path id="DejaVuSans-34" d="M 2419 4116 
L 825 1625 
L 2419 1625 
L 2419 4116 
z
M 2253 4666 
L 3047 4666 
L 3047 1625 
L 3713 1625 
L 3713 1100 
L 3047 1100 
L 3047 0 
L 2419 0 
L 2419 1100 
L 313 1100 
L 313 1709 
L 2253 4666 
z
" transform="scale(0.015625)"/>
       </defs>
       <use xlink:href="#DejaVuSans-30"/>
       <use xlink:href="#DejaVuSans-2e" transform="translate(63.623047 0)"/>
       <use xlink:href="#DejaVuSans-34" transform="translate(95.410156 0)"/>
       <use xlink:href="#DejaVuSans-30" transform="translate(159.033203 0)"/>
      </g>
     </g>
    </g>
    <g id="xtick_7">
     <g id="line2d_7">
      <g>
       <use xlink:href="#m030fd53b97" x="421.436978" y="398.64351" style="stroke: #000000; stroke-width: 0.8"/>
      </g>
     </g>
     <g id="text_7">
      <!-- 0.60 -->
      <g transform="translate(410.304165 413.241947) scale(0.1 -0.1)">
       <defs>
        <path id="DejaVuSans-36" d="M 2113 2584 
Q 1688 2584 1439 2293 
Q 1191 2003 1191 1497 
Q 1191 994 1439 701 
Q 1688 409 2113 409 
Q 2538 409 2786 701 
Q 3034 994 3034 1497 
Q 3034 2003 2786 2293 
Q 2538 2584 2113 2584 
z
M 3366 4563 
L 3366 3988 
Q 3128 4100 2886 4159 
Q 2644 4219 2406 4219 
Q 1781 4219 1451 3797 
Q 1122 3375 1075 2522 
Q 1259 2794 1537 2939 
Q 1816 3084 2150 3084 
Q 2853 3084 3261 2657 
Q 3669 2231 3669 1497 
Q 3669 778 3244 343 
Q 2819 -91 2113 -91 
Q 1303 -91 875 529 
Q 447 1150 447 2328 
Q 447 3434 972 4092 
Q 1497 4750 2381 4750 
Q 2619 4750 2861 4703 
Q 3103 4656 3366 4563 
z
" transform="scale(0.015625)"/>
       </defs>
       <use xlink:href="#DejaVuSans-30"/>
       <use xlink:href="#DejaVuSans-2e" transform="translate(63.623047 0)"/>
       <use xlink:href="#DejaVuSans-36" transform="translate(95.410156 0)"/>
       <use xlink:href="#DejaVuSans-30" transform="translate(159.033203 0)"/>
      </g>
     </g>
    </g>
    <g id="xtick_8">
     <g id="line2d_8">
      <g>
       <use xlink:href="#m030fd53b97" x="510.591555" y="398.64351" style="stroke: #000000; stroke-width: 0.8"/>
      </g>
     </g>
     <g id="text_8">
      <!-- 0.80 -->
      <g transform="translate(499.458743 413.241947) scale(0.1 -0.1)">
       <defs>
        <path id="DejaVuSans-38" d="M 2034 2216 
Q 1584 2216 1326 1975 
Q 1069 1734 1069 1313 
Q 1069 891 1326 650 
Q 1584 409 2034 409 
Q 2484 409 2743 651 
Q 3003 894 3003 1313 
Q 3003 1734 2745 1975 
Q 2488 2216 2034 2216 
z
M 1403 2484 
Q 997 2584 770 2862 
Q 544 3141 544 3541 
Q 544 4100 942 4425 
Q 1341 4750 2034 4750 
Q 2731 4750 3128 4425 
Q 3525 4100 3525 3541 
Q 3525 3141 3298 2862 
Q 3072 2584 2669 2484 
Q 3125 2378 3379 2068 
Q 3634 1759 3634 1313 
Q 3634 634 3220 271 
Q 2806 -91 2034 -91 
Q 1263 -91 848 271 
Q 434 634 434 1313 
Q 434 1759 690 2068 
Q 947 2378 1403 2484 
z
M 1172 3481 
Q 1172 3119 1398 2916 
Q 1625 2713 2034 2713 
Q 2441 2713 2670 2916 
Q 2900 3119 2900 3481 
Q 2900 3844 2670 4047 
Q 2441 4250 2034 4250 
Q 1625 4250 1398 4047 
Q 1172 3844 1172 3481 
z
" transform="scale(0.015625)"/>
       </defs>
       <use xlink:href="#DejaVuSans-30"/>
       <use xlink:href="#DejaVuSans-2e" transform="translate(63.623047 0)"/>
       <use xlink:href="#DejaVuSans-38" transform="translate(95.410156 0)"/>
       <use xlink:href="#DejaVuSans-30" transform="translate(159.033203 0)"/>
      </g>
     </g>
    </g>
    <g id="text_9">
     <!-- Time (s) -->
     <g transform="translate(285.38125 426.920073) scale(0.1 -0.1)">
      <defs>
       <path id="DejaVuSans-54" d="M -19 4666 
L 3928 4666 
L 3928 4134 
L 2272 4134 
L 2272 0 
L 1638 0 
L 1638 4134 
L -19 4134 
L -19 4666 
z
" transform="scale(0.015625)"/>
       <path id="DejaVuSans-69" d="M 603 3500 
L 1178 3500 
L 1178 0 
L 603 0 
L 603 3500 
z
M 603 4863 
L 1178 4863 
L 1178 4134 
L 603 4134 
L 603 4863 
z
" transform="scale(0.015625)"/>
       <path id="DejaVuSans-6d" d="M 3328 2828 
Q 3544 3216 3844 3400 
Q 4144 3584 4550 3584 
Q 5097 3584 5394 3201 
Q 5691 2819 5691 2113 
L 5691 0 
L 5113 0 
L 5113 2094 
Q 5113 2597 4934 2840 
Q 4756 3084 4391 3084 
Q 3944 3084 3684 2787 
Q 3425 2491 3425 1978 
L 3425 0 
L 2847 0 
L 2847 2094 
Q 2847 2600 2669 2842 
Q 2491 3084 2119 3084 
Q 1678 3084 1418 2786 
Q 1159 2488 1159 1978 
L 1159 0 
L 581 0 
L 581 3500 
L 1159 3500 
L 1159 2956 
Q 1356 3278 1631 3431 
Q 1906 3584 2284 3584 
Q 2666 3584 2933 3390 
Q 3200 3197 3328 2828 
z
" transform="scale(0.015625)"/>
       <path id="DejaVuSans-65" d="M 3597 1894 
L 3597 1613 
L 953 1613 
Q 991 1019 1311 708 
Q 1631 397 2203 397 
Q 2534 397 2845 478 
Q 3156 559 3463 722 
L 3463 178 
Q 3153 47 2828 -22 
Q 2503 -91 2169 -91 
Q 1331 -91 842 396 
Q 353 884 353 1716 
Q 353 2575 817 3079 
Q 1281 3584 2069 3584 
Q 2775 3584 3186 3129 
Q 3597 2675 3597 1894 
z
M 3022 2063 
Q 3016 2534 2758 2815 
Q 2500 3097 2075 3097 
Q 1594 3097 1305 2825 
Q 1016 2553 972 2059 
L 3022 2063 
z
" transform="scale(0.015625)"/>
       <path id="DejaVuSans-20" transform="scale(0.015625)"/>
       <path id="DejaVuSans-28" d="M 1984 4856 
Q 1566 4138 1362 3434 
Q 1159 2731 1159 2009 
Q 1159 1288 1364 580 
Q 1569 -128 1984 -844 
L 1484 -844 
Q 1016 -109 783 600 
Q 550 1309 550 2009 
Q 550 2706 781 3412 
Q 1013 4119 1484 4856 
L 1984 4856 
z
" transform="scale(0.015625)"/>
       <path id="DejaVuSans-73" d="M 2834 3397 
L 2834 2853 
Q 2591 2978 2328 3040 
Q 2066 3103 1784 3103 
Q 1356 3103 1142 2972 
Q 928 2841 928 2578 
Q 928 2378 1081 2264 
Q 1234 2150 1697 2047 
L 1894 2003 
Q 2506 1872 2764 1633 
Q 3022 1394 3022 966 
Q 3022 478 2636 193 
Q 2250 -91 1575 -91 
Q 1294 -91 989 -36 
Q 684 19 347 128 
L 347 722 
Q 666 556 975 473 
Q 1284 391 1588 391 
Q 1994 391 2212 530 
Q 2431 669 2431 922 
Q 2431 1156 2273 1281 
Q 2116 1406 1581 1522 
L 1381 1569 
Q 847 1681 609 1914 
Q 372 2147 372 2553 
Q 372 3047 722 3315 
Q 1072 3584 1716 3584 
Q 2034 3584 2315 3537 
Q 2597 3491 2834 3397 
z
" transform="scale(0.015625)"/>
       <path id="DejaVuSans-29" d="M 513 4856 
L 1013 4856 
Q 1481 4119 1714 3412 
Q 1947 2706 1947 2009 
Q 1947 1309 1714 600 
Q 1481 -109 1013 -844 
L 513 -844 
Q 928 -128 1133 580 
Q 1338 1288 1338 2009 
Q 1338 2731 1133 3434 
Q 928 4138 513 4856 
z
" transform="scale(0.015625)"/>
      </defs>
      <use xlink:href="#DejaVuSans-54"/>
      <use xlink:href="#DejaVuSans-69" transform="translate(57.958984 0)"/>
      <use xlink:href="#DejaVuSans-6d" transform="translate(85.742188 0)"/>
      <use xlink:href="#DejaVuSans-65" transform="translate(183.154297 0)"/>
      <use xlink:href="#DejaVuSans-20" transform="translate(244.677734 0)"/>
      <use xlink:href="#DejaVuSans-28" transform="translate(276.464844 0)"/>
      <use xlink:href="#DejaVuSans-73" transform="translate(315.478516 0)"/>
      <use xlink:href="#DejaVuSans-29" transform="translate(367.578125 0)"/>
     </g>
    </g>
   </g>
   <g id="matplotlib.axis_2">
    <g id="ytick_1">
     <g id="line2d_9">
      <defs>
       <path id="m0d57925b55" d="M 0 0 
L -3.5 0 
" style="stroke: #000000; stroke-width: 0.8"/>
      </defs>
      <g>
       <use xlink:href="#m0d57925b55" x="38.420552" y="369.75244" style="stroke: #000000; stroke-width: 0.8"/>
      </g>
     </g>
     <g id="text_10">
      <!-- −6 -->
      <g transform="translate(16.678365 373.551658) scale(0.1 -0.1)">
       <use xlink:href="#DejaVuSans-2212"/>
       <use xlink:href="#DejaVuSans-36" transform="translate(83.789062 0)"/>
      </g>
     </g>
    </g>
    <g id="ytick_2">
     <g id="line2d_10">
      <g>
       <use xlink:href="#m0d57925b55" x="38.420552" y="315.961939" style="stroke: #000000; stroke-width: 0.8"/>
      </g>
     </g>
     <g id="text_11">
      <!-- −4 -->
      <g transform="translate(16.678365 319.761158) scale(0.1 -0.1)">
       <use xlink:href="#DejaVuSans-2212"/>
       <use xlink:href="#DejaVuSans-34" transform="translate(83.789062 0)"/>
      </g>
     </g>
    </g>
    <g id="ytick_3">
     <g id="line2d_11">
      <g>
       <use xlink:href="#m0d57925b55" x="38.420552" y="262.171438" style="stroke: #000000; stroke-width: 0.8"/>
      </g>
     </g>
     <g id="text_12">
      <!-- −2 -->
      <g transform="translate(16.678365 265.970657) scale(0.1 -0.1)">
       <use xlink:href="#DejaVuSans-2212"/>
       <use xlink:href="#DejaVuSans-32" transform="translate(83.789062 0)"/>
      </g>
     </g>
    </g>
    <g id="ytick_4">
     <g id="line2d_12">
      <g>
       <use xlink:href="#m0d57925b55" x="38.420552" y="208.380937" style="stroke: #000000; stroke-width: 0.8"/>
      </g>
     </g>
     <g id="text_13">
      <!-- 0 -->
      <g transform="translate(25.058052 212.180156) scale(0.1 -0.1)">
       <use xlink:href="#DejaVuSans-30"/>
      </g>
     </g>
    </g>
    <g id="ytick_5">
     <g id="line2d_13">
      <g>
       <use xlink:href="#m0d57925b55" x="38.420552" y="154.590437" style="stroke: #000000; stroke-width: 0.8"/>
      </g>
     </g>
     <g id="text_14">
      <!-- 2 -->
      <g transform="translate(25.058052 158.389656) scale(0.1 -0.1)">
       <use xlink:href="#DejaVuSans-32"/>
      </g>
     </g>
    </g>
    <g id="ytick_6">
     <g id="line2d_14">
      <g>
       <use xlink:href="#m0d57925b55" x="38.420552" y="100.799936" style="stroke: #000000; stroke-width: 0.8"/>
      </g>
     </g>
     <g id="text_15">
      <!-- 4 -->
      <g transform="translate(25.058052 104.599155) scale(0.1 -0.1)">
       <use xlink:href="#DejaVuSans-34"/>
      </g>
     </g>
    </g>
    <g id="ytick_7">
     <g id="line2d_15">
      <g>
       <use xlink:href="#m0d57925b55" x="38.420552" y="47.009435" style="stroke: #000000; stroke-width: 0.8"/>
      </g>
     </g>
     <g id="text_16">
      <!-- 6 -->
      <g transform="translate(25.058052 50.808654) scale(0.1 -0.1)">
       <use xlink:href="#DejaVuSans-36"/>
      </g>
     </g>
    </g>
    <g id="text_17">
     <!-- µV -->
     <g transform="translate(10.598677 214.9825) rotate(-90) scale(0.1 -0.1)">
      <defs>
       <path id="DejaVuSans-b5" d="M 544 -1331 
L 544 3500 
L 1119 3500 
L 1119 1325 
Q 1119 872 1334 640 
Q 1550 409 1972 409 
Q 2434 409 2667 671 
Q 2900 934 2900 1459 
L 2900 3500 
L 3475 3500 
L 3475 806 
Q 3475 619 3529 530 
Q 3584 441 3700 441 
Q 3728 441 3778 458 
Q 3828 475 3916 513 
L 3916 50 
Q 3788 -22 3673 -56 
Q 3559 -91 3450 -91 
Q 3234 -91 3106 31 
Q 2978 153 2931 403 
Q 2775 156 2548 32 
Q 2322 -91 2016 -91 
Q 1697 -91 1473 31 
Q 1250 153 1119 397 
L 1119 -1331 
L 544 -1331 
z
" transform="scale(0.015625)"/>
       <path id="DejaVuSans-56" d="M 1831 0 
L 50 4666 
L 709 4666 
L 2188 738 
L 3669 4666 
L 4325 4666 
L 2547 0 
L 1831 0 
z
" transform="scale(0.015625)"/>
      </defs>
      <use xlink:href="#DejaVuSans-b5"/>
      <use xlink:href="#DejaVuSans-56" transform="translate(63.623047 0)"/>
     </g>
    </g>
   </g>
   <g id="patch_4">
    <path d="M 64.818666 398.64351 
L 510.591555 398.64351 
" style="fill: none; stroke: #000000; stroke-width: 0.8; stroke-linejoin: miter; stroke-linecap: square"/>
   </g>
   <g id="patch_5">
    <path d="M 38.420552 208.380937 
L 572.99976 208.380937 
" style="fill: none; stroke: #000000; stroke-width: 0.8; stroke-linejoin: miter; stroke-linecap: square"/>
   </g>
   <g id="text_18">
    <!-- F4, FC4, F3, FC3 (median) -->
    <g transform="translate(227.735469 12.118365) scale(0.12 -0.12)">
     <defs>
      <path id="DejaVuSans-46" d="M 628 4666 
L 3309 4666 
L 3309 4134 
L 1259 4134 
L 1259 2759 
L 3109 2759 
L 3109 2228 
L 1259 2228 
L 1259 0 
L 628 0 
L 628 4666 
z
" transform="scale(0.015625)"/>
      <path id="DejaVuSans-2c" d="M 750 794 
L 1409 794 
L 1409 256 
L 897 -744 
L 494 -744 
L 750 256 
L 750 794 
z
" transform="scale(0.015625)"/>
      <path id="DejaVuSans-43" d="M 4122 4306 
L 4122 3641 
Q 3803 3938 3442 4084 
Q 3081 4231 2675 4231 
Q 1875 4231 1450 3742 
Q 1025 3253 1025 2328 
Q 1025 1406 1450 917 
Q 1875 428 2675 428 
Q 3081 428 3442 575 
Q 3803 722 4122 1019 
L 4122 359 
Q 3791 134 3420 21 
Q 3050 -91 2638 -91 
Q 1578 -91 968 557 
Q 359 1206 359 2328 
Q 359 3453 968 4101 
Q 1578 4750 2638 4750 
Q 3056 4750 3426 4639 
Q 3797 4528 4122 4306 
z
" transform="scale(0.015625)"/>
      <path id="DejaVuSans-64" d="M 2906 2969 
L 2906 4863 
L 3481 4863 
L 3481 0 
L 2906 0 
L 2906 525 
Q 2725 213 2448 61 
Q 2172 -91 1784 -91 
Q 1150 -91 751 415 
Q 353 922 353 1747 
Q 353 2572 751 3078 
Q 1150 3584 1784 3584 
Q 2172 3584 2448 3432 
Q 2725 3281 2906 2969 
z
M 947 1747 
Q 947 1113 1208 752 
Q 1469 391 1925 391 
Q 2381 391 2643 752 
Q 2906 1113 2906 1747 
Q 2906 2381 2643 2742 
Q 2381 3103 1925 3103 
Q 1469 3103 1208 2742 
Q 947 2381 947 1747 
z
" transform="scale(0.015625)"/>
      <path id="DejaVuSans-61" d="M 2194 1759 
Q 1497 1759 1228 1600 
Q 959 1441 959 1056 
Q 959 750 1161 570 
Q 1363 391 1709 391 
Q 2188 391 2477 730 
Q 2766 1069 2766 1631 
L 2766 1759 
L 2194 1759 
z
M 3341 1997 
L 3341 0 
L 2766 0 
L 2766 531 
Q 2569 213 2275 61 
Q 1981 -91 1556 -91 
Q 1019 -91 701 211 
Q 384 513 384 1019 
Q 384 1609 779 1909 
Q 1175 2209 1959 2209 
L 2766 2209 
L 2766 2266 
Q 2766 2663 2505 2880 
Q 2244 3097 1772 3097 
Q 1472 3097 1187 3025 
Q 903 2953 641 2809 
L 641 3341 
Q 956 3463 1253 3523 
Q 1550 3584 1831 3584 
Q 2591 3584 2966 3190 
Q 3341 2797 3341 1997 
z
" transform="scale(0.015625)"/>
      <path id="DejaVuSans-6e" d="M 3513 2113 
L 3513 0 
L 2938 0 
L 2938 2094 
Q 2938 2591 2744 2837 
Q 2550 3084 2163 3084 
Q 1697 3084 1428 2787 
Q 1159 2491 1159 1978 
L 1159 0 
L 581 0 
L 581 3500 
L 1159 3500 
L 1159 2956 
Q 1366 3272 1645 3428 
Q 1925 3584 2291 3584 
Q 2894 3584 3203 3211 
Q 3513 2838 3513 2113 
z
" transform="scale(0.015625)"/>
     </defs>
     <use xlink:href="#DejaVuSans-46"/>
     <use xlink:href="#DejaVuSans-34" transform="translate(57.519531 0)"/>
     <use xlink:href="#DejaVuSans-2c" transform="translate(121.142578 0)"/>
     <use xlink:href="#DejaVuSans-20" transform="translate(152.929688 0)"/>
     <use xlink:href="#DejaVuSans-46" transform="translate(184.716797 0)"/>
     <use xlink:href="#DejaVuSans-43" transform="translate(242.236328 0)"/>
     <use xlink:href="#DejaVuSans-34" transform="translate(312.060547 0)"/>
     <use xlink:href="#DejaVuSans-2c" transform="translate(375.683594 0)"/>
     <use xlink:href="#DejaVuSans-20" transform="translate(407.470703 0)"/>
     <use xlink:href="#DejaVuSans-46" transform="translate(439.257812 0)"/>
     <use xlink:href="#DejaVuSans-33" transform="translate(496.777344 0)"/>
     <use xlink:href="#DejaVuSans-2c" transform="translate(560.400391 0)"/>
     <use xlink:href="#DejaVuSans-20" transform="translate(592.1875 0)"/>
     <use xlink:href="#DejaVuSans-46" transform="translate(623.974609 0)"/>
     <use xlink:href="#DejaVuSans-43" transform="translate(681.494141 0)"/>
     <use xlink:href="#DejaVuSans-33" transform="translate(751.318359 0)"/>
     <use xlink:href="#DejaVuSans-20" transform="translate(814.941406 0)"/>
     <use xlink:href="#DejaVuSans-28" transform="translate(846.728516 0)"/>
     <use xlink:href="#DejaVuSans-6d" transform="translate(885.742188 0)"/>
     <use xlink:href="#DejaVuSans-65" transform="translate(983.154297 0)"/>
     <use xlink:href="#DejaVuSans-64" transform="translate(1044.677734 0)"/>
     <use xlink:href="#DejaVuSans-69" transform="translate(1108.154297 0)"/>
     <use xlink:href="#DejaVuSans-61" transform="translate(1135.9375 0)"/>
     <use xlink:href="#DejaVuSans-6e" transform="translate(1197.216797 0)"/>
     <use xlink:href="#DejaVuSans-29" transform="translate(1260.595703 0)"/>
    </g>
   </g>
   <g id="legend_1">
    <g id="patch_6">
     <path d="M 45.420552 55.75274 
L 126.56274 55.75274 
Q 128.56274 55.75274 128.56274 53.75274 
L 128.56274 25.118365 
Q 128.56274 23.118365 126.56274 23.118365 
L 45.420552 23.118365 
Q 43.420552 23.118365 43.420552 25.118365 
L 43.420552 53.75274 
Q 43.420552 55.75274 45.420552 55.75274 
z
" style="fill: #ffffff; opacity: 0.8; stroke: #cccccc; stroke-linejoin: miter"/>
    </g>
    <g id="line2d_16">
     <path d="M 47.420552 31.216803 
L 57.420552 31.216803 
L 67.420552 31.216803 
" style="fill: none; stroke: #1f77b4; stroke-width: 1.5; stroke-linecap: square"/>
    </g>
    <g id="text_19">
     <!-- eerie -->
     <g transform="translate(75.420552 34.716803) scale(0.1 -0.1)">
      <defs>
       <path id="DejaVuSans-72" d="M 2631 2963 
Q 2534 3019 2420 3045 
Q 2306 3072 2169 3072 
Q 1681 3072 1420 2755 
Q 1159 2438 1159 1844 
L 1159 0 
L 581 0 
L 581 3500 
L 1159 3500 
L 1159 2956 
Q 1341 3275 1631 3429 
Q 1922 3584 2338 3584 
Q 2397 3584 2469 3576 
Q 2541 3569 2628 3553 
L 2631 2963 
z
" transform="scale(0.015625)"/>
      </defs>
      <use xlink:href="#DejaVuSans-65"/>
      <use xlink:href="#DejaVuSans-65" transform="translate(61.523438 0)"/>
      <use xlink:href="#DejaVuSans-72" transform="translate(123.046875 0)"/>
      <use xlink:href="#DejaVuSans-69" transform="translate(164.160156 0)"/>
      <use xlink:href="#DejaVuSans-65" transform="translate(191.943359 0)"/>
     </g>
    </g>
    <g id="line2d_17">
     <path d="M 47.420552 45.894928 
L 57.420552 45.894928 
L 67.420552 45.894928 
" style="fill: none; stroke: #ff7f0e; stroke-width: 1.5; stroke-linecap: square"/>
    </g>
    <g id="text_20">
     <!-- non_eerie -->
     <g transform="translate(75.420552 49.394928) scale(0.1 -0.1)">
      <defs>
       <path id="DejaVuSans-6f" d="M 1959 3097 
Q 1497 3097 1228 2736 
Q 959 2375 959 1747 
Q 959 1119 1226 758 
Q 1494 397 1959 397 
Q 2419 397 2687 759 
Q 2956 1122 2956 1747 
Q 2956 2369 2687 2733 
Q 2419 3097 1959 3097 
z
M 1959 3584 
Q 2709 3584 3137 3096 
Q 3566 2609 3566 1747 
Q 3566 888 3137 398 
Q 2709 -91 1959 -91 
Q 1206 -91 779 398 
Q 353 888 353 1747 
Q 353 2609 779 3096 
Q 1206 3584 1959 3584 
z
" transform="scale(0.015625)"/>
       <path id="DejaVuSans-5f" d="M 3263 -1063 
L 3263 -1509 
L -63 -1509 
L -63 -1063 
L 3263 -1063 
z
" transform="scale(0.015625)"/>
      </defs>
      <use xlink:href="#DejaVuSans-6e"/>
      <use xlink:href="#DejaVuSans-6f" transform="translate(63.378906 0)"/>
      <use xlink:href="#DejaVuSans-6e" transform="translate(124.560547 0)"/>
      <use xlink:href="#DejaVuSans-5f" transform="translate(187.939453 0)"/>
      <use xlink:href="#DejaVuSans-65" transform="translate(237.939453 0)"/>
      <use xlink:href="#DejaVuSans-65" transform="translate(299.462891 0)"/>
      <use xlink:href="#DejaVuSans-72" transform="translate(360.986328 0)"/>
      <use xlink:href="#DejaVuSans-69" transform="translate(402.099609 0)"/>
      <use xlink:href="#DejaVuSans-65" transform="translate(429.882812 0)"/>
     </g>
    </g>
   </g>
   <g id="line2d_18">
    <path d="M 38.420552 199.664054 
L 40.161853 202.909659 
L 41.903153 202.11668 
L 43.644454 199.492106 
L 45.385754 192.28578 
L 47.127054 183.828051 
L 48.868355 180.853383 
L 50.609655 184.275404 
L 52.350955 190.735217 
L 54.092256 198.540983 
L 55.833556 202.497825 
L 57.574856 200.579514 
L 59.316157 197.339031 
L 61.057457 195.292497 
L 62.798757 196.426704 
L 64.540058 204.614504 
L 66.281358 216.184861 
L 68.022658 225.38909 
L 69.763959 228.184044 
L 71.505259 223.828228 
L 74.98786 209.176326 
L 76.72916 205.531946 
L 78.470461 206.171473 
L 80.211761 208.096733 
L 81.953061 208.180038 
L 83.694362 204.676529 
L 87.176962 191.95748 
L 88.918263 187.065089 
L 90.659563 186.300618 
L 92.400863 189.311062 
L 94.142164 193.680696 
L 95.883464 197.531521 
L 99.366065 203.533369 
L 101.107365 207.600359 
L 102.848665 213.757487 
L 104.589966 220.688053 
L 106.331266 226.470252 
L 108.072567 230.055817 
L 109.813867 230.734693 
L 111.555167 228.338926 
L 113.296468 225.543836 
L 115.037768 224.315908 
L 116.779068 225.335954 
L 118.520369 227.070375 
L 120.261669 229.329073 
L 122.002969 230.347596 
L 123.74427 229.959968 
L 125.48557 229.909446 
L 127.22687 232.063963 
L 128.968171 237.093994 
L 132.450771 250.530932 
L 134.192072 254.71368 
L 135.933372 255.653948 
L 137.674672 254.006028 
L 139.415973 251.357438 
L 141.157273 249.204435 
L 142.898574 248.159955 
L 146.381174 247.448055 
L 148.122475 246.448525 
L 149.863775 245.021019 
L 151.605075 243.855341 
L 153.346376 243.608372 
L 155.087676 244.384427 
L 156.828976 245.805181 
L 158.570277 248.02543 
L 160.311577 247.251003 
L 163.794178 239.27232 
L 165.535478 233.876626 
L 167.276778 227.335732 
L 170.759379 213.401597 
L 172.500679 208.771555 
L 174.24198 208.0771 
L 175.98328 212.20707 
L 177.724581 220.17151 
L 179.465881 229.052746 
L 181.207181 235.179421 
L 182.948482 236.025527 
L 184.689782 231.757685 
L 186.431082 225.3364 
L 188.172383 220.954987 
L 189.913683 221.644969 
L 191.654983 227.204416 
L 193.396284 231.583026 
L 195.137584 237.866105 
L 196.878884 241.998692 
L 198.620185 242.459981 
L 200.361485 242.28369 
L 202.102785 245.247854 
L 203.844086 253.456518 
L 205.585386 265.996745 
L 207.326686 279.347866 
L 209.067987 289.035434 
L 210.809287 291.134225 
L 212.550588 281.723712 
L 214.291888 264.191713 
L 216.033188 243.677121 
L 221.257089 168.04123 
L 222.99839 148.868629 
L 224.73969 135.175011 
L 226.48099 125.550419 
L 228.222291 117.287476 
L 229.963591 109.964228 
L 231.704891 103.747954 
L 233.446192 100.149561 
L 235.187492 101.54056 
L 236.928792 108.138641 
L 238.670093 117.684239 
L 240.411393 126.415943 
L 242.152693 131.04307 
L 243.893994 130.420978 
L 245.635294 125.285778 
L 247.376595 118.995038 
L 249.117895 114.523929 
L 250.859195 112.299488 
L 252.600496 111.556439 
L 256.083096 111.620812 
L 257.824397 111.17442 
L 259.565697 109.371505 
L 261.306997 105.081927 
L 263.048298 97.525332 
L 266.530898 76.457162 
L 268.272199 68.58355 
L 270.013499 66.562287 
L 271.754799 71.435298 
L 273.4961 81.813153 
L 276.9787 106.94905 
L 278.720001 116.923817 
L 280.461301 124.61408 
L 285.685202 144.491593 
L 287.426503 151.400177 
L 289.167803 157.795038 
L 290.909103 163.432586 
L 294.391704 173.310726 
L 296.133004 177.650143 
L 297.874305 180.68845 
L 299.615605 181.122694 
L 301.356905 177.843432 
L 303.098206 170.557521 
L 304.839506 160.082799 
L 306.580806 148.114403 
L 308.322107 137.087303 
L 310.063407 127.912446 
L 311.804707 121.055313 
L 313.546008 116.15787 
L 315.287308 111.623811 
L 317.028609 105.799274 
L 318.769909 99.095142 
L 322.25251 83.654942 
L 323.99381 76.966662 
L 325.73511 72.896354 
L 327.476411 72.6009 
L 329.217711 76.490177 
L 330.959011 83.074049 
L 334.441612 99.713388 
L 336.182912 105.97827 
L 337.924213 108.954888 
L 339.665513 110.120234 
L 343.148114 110.757861 
L 344.889414 111.775701 
L 346.630714 113.733955 
L 350.113315 118.523513 
L 351.854616 120.015978 
L 353.595916 120.484652 
L 355.337216 120.155288 
L 357.078517 119.410615 
L 358.819817 118.384041 
L 360.561117 116.707122 
L 362.302418 113.659332 
L 364.043718 108.740388 
L 365.785018 102.214004 
L 367.526319 95.204192 
L 369.267619 89.159388 
L 371.008919 85.706258 
L 372.75022 83.888858 
L 374.49152 81.061947 
L 376.23282 75.681551 
L 379.715421 59.834925 
L 381.456721 53.12435 
L 383.198022 49.215816 
L 384.939322 48.411338 
L 386.680623 49.52425 
L 388.421923 50.833676 
L 390.163223 51.31484 
L 391.904524 51.241306 
L 393.645824 51.753542 
L 395.387124 53.819436 
L 397.128425 57.380948 
L 398.869725 61.315142 
L 400.611025 64.192727 
L 402.352326 65.244645 
L 404.093626 64.835553 
L 405.834926 64.21285 
L 407.576227 64.784748 
L 409.317527 67.405036 
L 411.058827 72.011614 
L 412.800128 77.728148 
L 414.541428 82.645504 
L 416.282728 86.863629 
L 418.024029 88.181552 
L 419.765329 86.798622 
L 423.24793 81.068696 
L 424.98923 80.025603 
L 426.730531 81.437267 
L 428.471831 84.772432 
L 430.213131 88.683093 
L 431.954432 91.873915 
L 433.695732 93.902435 
L 435.437032 95.346303 
L 437.178333 97.279553 
L 438.919633 100.489458 
L 440.660933 104.970495 
L 444.143534 114.803952 
L 445.884834 118.761396 
L 447.626135 119.459814 
L 449.367435 119.334239 
L 451.108735 120.471692 
L 452.850036 124.327654 
L 454.591336 130.992714 
L 456.332637 138.169896 
L 459.815237 149.398394 
L 461.556538 154.094489 
L 463.297838 155.408852 
L 465.039138 154.069316 
L 466.780439 153.039991 
L 468.521739 152.492207 
L 470.263039 153.553638 
L 473.74564 160.103421 
L 475.48694 163.107544 
L 477.228241 165.788644 
L 478.969541 169.129081 
L 480.710841 175.491695 
L 482.452142 183.906172 
L 484.193442 194.031358 
L 487.676043 217.787368 
L 489.417343 225.963139 
L 491.158644 230.038733 
L 492.899944 231.306024 
L 494.641244 231.935895 
L 496.382545 233.748369 
L 498.123845 237.30345 
L 501.606446 250.292963 
L 503.347746 254.625548 
L 505.089046 255.800086 
L 506.830347 254.010275 
L 510.312947 247.301827 
L 512.054248 246.031785 
L 513.795548 247.847527 
L 515.536848 252.852875 
L 519.019449 267.812807 
L 520.760749 273.450631 
L 522.50205 275.595136 
L 524.24335 273.909293 
L 525.984651 269.954685 
L 527.725951 266.658136 
L 529.467251 266.95684 
L 531.208552 272.281276 
L 532.949852 281.725805 
L 534.691152 292.396326 
L 536.432453 300.80034 
L 538.173753 304.549256 
L 539.915053 303.407372 
L 541.656354 299.160035 
L 543.397654 294.444178 
L 545.138954 291.306111 
L 546.880255 290.319246 
L 548.621555 290.70339 
L 550.362855 291.237053 
L 552.104156 291.219617 
L 553.845456 290.822738 
L 555.586756 290.697251 
L 559.069357 291.737309 
L 560.810658 291.24176 
L 562.551958 288.725635 
L 564.293258 284.245262 
L 566.034559 279.135393 
L 567.775859 275.365571 
L 569.517159 274.374588 
L 571.25846 276.121343 
L 572.99976 278.995954 
L 572.99976 278.995954 
" style="fill: none; stroke: #1f77b4; stroke-width: 1.5; stroke-linecap: square"/>
   </g>
   <g id="line2d_19">
    <path d="M 38.420552 215.573979 
L 40.161853 215.14912 
L 41.903153 212.649491 
L 43.644454 208.305253 
L 45.385754 203.040212 
L 47.127054 198.743536 
L 48.868355 197.726444 
L 50.609655 200.728316 
L 52.350955 207.397467 
L 54.092256 215.496557 
L 55.833556 220.438506 
L 57.574856 219.616188 
L 59.316157 213.373227 
L 62.798757 197.673881 
L 64.540058 192.637928 
L 66.281358 190.805584 
L 68.022658 194.348499 
L 69.763959 201.231453 
L 71.505259 209.044754 
L 73.24656 214.449518 
L 74.98786 217.066799 
L 76.72916 219.123621 
L 78.470461 219.957986 
L 80.211761 219.344226 
L 81.953061 217.476524 
L 83.694362 215.031339 
L 85.435662 211.128586 
L 87.176962 204.948219 
L 88.918263 195.984674 
L 90.659563 186.26273 
L 92.400863 178.663424 
L 94.142164 175.643678 
L 95.883464 179.210162 
L 97.624764 188.783428 
L 99.366065 200.502734 
L 101.107365 209.625228 
L 102.848665 213.118878 
L 104.589966 212.921617 
L 106.331266 208.715195 
L 108.072567 207.72173 
L 109.813867 212.250677 
L 113.296468 229.5273 
L 115.037768 234.955992 
L 116.779068 233.16443 
L 118.520369 225.92844 
L 120.261669 216.558914 
L 122.002969 208.622969 
L 123.74427 205.227806 
L 125.48557 205.718485 
L 127.22687 208.307561 
L 128.968171 211.594549 
L 130.709471 215.438834 
L 134.192072 225.981973 
L 135.933372 230.103979 
L 137.674672 231.850877 
L 139.415973 231.663965 
L 141.157273 230.507166 
L 144.639874 226.125552 
L 146.381174 224.337876 
L 148.122475 222.197544 
L 149.863775 218.663711 
L 151.605075 213.411551 
L 153.346376 207.427422 
L 155.087676 202.626473 
L 156.828976 200.755086 
L 158.570277 202.384382 
L 160.311577 206.576658 
L 162.052877 211.400857 
L 163.794178 214.824966 
L 165.535478 215.457529 
L 167.276778 212.975433 
L 169.018079 208.169437 
L 170.759379 202.819526 
L 172.500679 198.421941 
L 174.24198 198.616538 
L 175.98328 203.844453 
L 177.724581 211.992868 
L 179.465881 219.372911 
L 181.207181 222.177814 
L 182.948482 218.541821 
L 184.689782 209.836562 
L 186.431082 199.822713 
L 188.172383 193.644521 
L 189.913683 194.197773 
L 191.654983 199.730974 
L 195.137584 216.956211 
L 198.620185 234.645989 
L 200.361485 245.257687 
L 202.102785 258.76575 
L 203.844086 273.53782 
L 205.585386 285.868969 
L 207.326686 292.020403 
L 209.067987 290.169317 
L 210.809287 281.125091 
L 212.550588 267.444996 
L 216.033188 235.365332 
L 217.774489 218.350421 
L 219.515789 200.008216 
L 221.257089 178.985194 
L 224.73969 133.109483 
L 226.48099 115.681413 
L 228.222291 102.556721 
L 229.963591 94.490527 
L 231.704891 91.160333 
L 233.446192 91.330704 
L 235.187492 92.797167 
L 236.928792 96.722748 
L 238.670093 101.127236 
L 240.411393 107.140494 
L 243.893994 122.91303 
L 245.635294 128.424296 
L 247.376595 126.147681 
L 249.117895 120.771827 
L 250.859195 111.473885 
L 252.600496 100.104179 
L 254.341796 89.889224 
L 256.083096 82.908628 
L 257.824397 79.14248 
L 259.565697 76.920481 
L 261.306997 74.370434 
L 263.048298 70.708506 
L 264.789598 66.591521 
L 266.530898 63.357504 
L 268.272199 61.886986 
L 270.013499 61.955384 
L 271.754799 62.497035 
L 273.4961 62.486571 
L 276.9787 60.760264 
L 278.720001 60.912823 
L 280.461301 63.214441 
L 282.202602 68.204027 
L 283.943902 75.823156 
L 285.685202 85.588938 
L 289.167803 108.799125 
L 290.909103 120.433801 
L 292.650404 130.522204 
L 294.391704 137.839924 
L 296.133004 141.561369 
L 297.874305 139.726591 
L 299.615605 133.21243 
L 303.098206 115.652733 
L 304.839506 109.427116 
L 306.580806 105.805667 
L 308.322107 102.96348 
L 310.063407 98.079995 
L 311.804707 88.280811 
L 315.287308 59.305599 
L 317.028609 47.144968 
L 318.769909 39.888865 
L 320.511209 36.974195 
L 322.25251 35.594997 
L 323.99381 32.751613 
L 325.73511 27.434494 
L 327.476411 21.443371 
L 329.217711 18.118365 
L 330.959011 19.901256 
L 332.700312 26.533066 
L 334.441612 35.093148 
L 336.182912 42.006224 
L 337.924213 45.457183 
L 339.665513 46.57338 
L 341.406813 46.362391 
L 343.148114 49.01945 
L 344.889414 56.939739 
L 346.630714 69.507492 
L 348.372015 84.685137 
L 350.113315 95.521604 
L 351.854616 101.565112 
L 353.595916 104.461883 
L 357.078517 108.269517 
L 358.819817 109.628661 
L 360.561117 109.019943 
L 362.302418 105.528876 
L 364.043718 99.561913 
L 365.785018 92.611724 
L 367.526319 86.271119 
L 369.267619 81.20156 
L 371.008919 76.807037 
L 372.75022 71.837833 
L 374.49152 64.851452 
L 376.23282 56.674652 
L 377.974121 50.714211 
L 379.715421 46.685205 
L 381.456721 46.177885 
L 383.198022 48.09894 
L 384.939322 50.406334 
L 386.680623 50.936936 
L 388.421923 48.73262 
L 390.163223 45.900158 
L 391.904524 44.31215 
L 393.645824 44.845508 
L 397.128425 49.099742 
L 398.869725 49.593246 
L 400.611025 47.761242 
L 402.352326 46.967416 
L 404.093626 42.969911 
L 405.834926 40.094647 
L 407.576227 39.443121 
L 409.317527 40.858017 
L 411.058827 43.100807 
L 412.800128 44.568268 
L 414.541428 43.307575 
L 416.282728 39.096792 
L 418.024029 33.350901 
L 419.765329 28.510886 
L 421.50663 25.207786 
L 423.24793 22.764264 
L 424.98923 22.737973 
L 426.730531 29.373446 
L 430.213131 49.07059 
L 431.954432 53.769443 
L 433.695732 55.245432 
L 435.437032 53.243713 
L 437.178333 46.861466 
L 438.919633 41.279632 
L 440.660933 40.122088 
L 442.402234 42.543533 
L 444.143534 47.420223 
L 445.884834 53.167925 
L 447.626135 58.299427 
L 449.367435 62.105614 
L 451.108735 64.638356 
L 452.850036 66.522754 
L 454.591336 68.066371 
L 456.332637 67.708826 
L 458.073937 66.887131 
L 459.815237 67.580799 
L 461.556538 70.60464 
L 463.297838 76.977638 
L 465.039138 86.501586 
L 468.521739 108.275682 
L 470.263039 116.750501 
L 472.00434 122.718752 
L 477.228241 135.903034 
L 480.710841 146.636793 
L 482.452142 151.368616 
L 484.193442 155.273105 
L 485.934742 158.490998 
L 487.676043 161.131285 
L 489.417343 163.045457 
L 491.158644 164.016473 
L 494.641244 164.410005 
L 496.382545 165.746982 
L 498.123845 169.049417 
L 499.865145 174.265153 
L 503.347746 186.570704 
L 505.089046 191.798363 
L 506.830347 196.219362 
L 510.312947 204.229224 
L 512.054248 207.959304 
L 513.795548 210.74492 
L 515.536848 212.764524 
L 517.278149 215.571773 
L 519.019449 219.780142 
L 520.760749 224.498386 
L 522.50205 228.843937 
L 524.24335 231.981926 
L 525.984651 233.036306 
L 527.725951 233.09246 
L 529.467251 234.688925 
L 531.208552 238.933001 
L 534.691152 252.047381 
L 536.432453 255.325601 
L 538.173753 252.890845 
L 539.915053 245.881999 
L 541.656354 237.23954 
L 543.397654 230.508652 
L 545.138954 228.08657 
L 546.880255 230.312122 
L 548.621555 235.697601 
L 550.362855 241.968125 
L 552.104156 247.070658 
L 553.845456 249.774541 
L 555.586756 249.859843 
L 557.328057 248.043442 
L 559.069357 245.866506 
L 560.810658 245.303779 
L 562.551958 248.037449 
L 564.293258 254.580334 
L 567.775859 272.812859 
L 569.517159 279.154163 
L 571.25846 281.19996 
L 572.99976 279.453604 
L 572.99976 279.453604 
" style="fill: none; stroke: #ff7f0e; stroke-width: 1.5; stroke-linecap: square"/>
   </g>
  </g>
  <g id="axes_2">
   <g id="PathCollection_1">
    <defs>
     <path id="C0_0_119ff87cb0" d="M 0 1.118034 
C 0.296506 1.118034 0.580908 1.000231 0.790569 0.790569 
C 1.000231 0.580908 1.118034 0.296506 1.118034 -0 
C 1.118034 -0.296506 1.000231 -0.580908 0.790569 -0.790569 
C 0.580908 -1.000231 0.296506 -1.118034 0 -1.118034 
C -0.296506 -1.118034 -0.580908 -1.000231 -0.790569 -0.790569 
C -1.000231 -0.580908 -1.118034 -0.296506 -1.118034 0 
C -1.118034 0.296506 -1.000231 0.580908 -0.790569 0.790569 
C -0.580908 1.000231 -0.296506 1.118034 0 1.118034 
z
"/>
    </defs>
    <g clip-path="url(#pafe4b52d0b)">
     <use xlink:href="#C0_0_119ff87cb0" x="535.942073" y="46.984321" style="stroke: #000000"/>
    </g>
    <g clip-path="url(#pafe4b52d0b)">
     <use xlink:href="#C0_0_119ff87cb0" x="538.121854" y="56.975316" style="stroke: #000000"/>
    </g>
    <g clip-path="url(#pafe4b52d0b)">
     <use xlink:href="#C0_0_119ff87cb0" x="504.867771" y="47.28407" style="stroke: #000000"/>
    </g>
    <g clip-path="url(#pafe4b52d0b)">
     <use xlink:href="#C0_0_119ff87cb0" x="502.745058" y="57.128057" style="stroke: #000000"/>
    </g>
   </g>
   <g id="matplotlib.axis_3"/>
   <g id="matplotlib.axis_4"/>
   <g id="line2d_20">
    <path d="M 559.991178 73.637025 
L 559.913484 71.164739 
L 559.680706 68.70221 
L 559.293765 66.259156 
L 558.754186 63.845219 
L 558.064099 61.469927 
L 557.226229 59.142652 
L 556.243881 56.87258 
L 555.120932 54.668669 
L 553.861815 52.539618 
L 552.471498 50.493829 
L 550.955468 48.539375 
L 549.319709 46.68397 
L 547.570676 44.934937 
L 545.715271 43.299178 
L 543.760817 41.783148 
L 541.715028 40.392831 
L 539.585977 39.133714 
L 537.382067 38.010765 
L 535.111994 37.028417 
L 532.78472 36.190547 
L 530.409427 35.50046 
L 527.99549 34.960882 
L 525.552436 34.57394 
L 523.089907 34.341162 
L 520.617621 34.263468 
L 518.145335 34.341162 
L 515.682806 34.57394 
L 513.239752 34.960882 
L 510.825816 35.50046 
L 508.450523 36.190547 
L 506.123248 37.028417 
L 503.853176 38.010765 
L 501.649265 39.133714 
L 499.520214 40.392831 
L 497.474425 41.783148 
L 495.519971 43.299178 
L 493.664567 44.934937 
L 491.915533 46.68397 
L 490.279774 48.539375 
L 488.763744 50.493829 
L 487.373427 52.539618 
L 486.11431 54.668669 
L 484.991361 56.87258 
L 484.009014 59.142652 
L 483.171143 61.469927 
L 482.481057 63.845219 
L 481.941478 66.259156 
L 481.554536 68.70221 
L 481.321759 71.164739 
L 481.244064 73.637025 
L 481.321759 76.109311 
L 481.554536 78.57184 
L 481.941478 81.014894 
L 482.481057 83.42883 
L 483.171143 85.804123 
L 484.009014 88.131398 
L 484.991361 90.40147 
L 486.11431 92.605381 
L 487.373427 94.734432 
L 488.763744 96.780221 
L 490.279774 98.734675 
L 491.915533 100.59008 
L 493.664567 102.339113 
L 495.519971 103.974872 
L 497.474425 105.490902 
L 499.520214 106.881219 
L 501.649265 108.140336 
L 503.853176 109.263285 
L 506.123248 110.245633 
L 508.450523 111.083503 
L 510.825816 111.773589 
L 513.239752 112.313168 
L 515.682806 112.70011 
L 518.145335 112.932887 
L 520.617621 113.010582 
L 523.089907 112.932887 
L 525.552436 112.70011 
L 527.99549 112.313168 
L 530.409427 111.773589 
L 532.78472 111.083503 
L 535.111994 110.245633 
L 537.382067 109.263285 
L 539.585977 108.140336 
L 541.715028 106.881219 
L 543.760817 105.490902 
L 545.715271 103.974872 
L 547.570676 102.339113 
L 549.319709 100.59008 
L 550.955468 98.734675 
L 552.471498 96.780221 
L 553.861815 94.734432 
L 555.120932 92.605381 
L 556.243881 90.40147 
L 557.226229 88.131398 
L 558.064099 85.804123 
L 558.754186 83.42883 
L 559.293765 81.014894 
L 559.680706 78.57184 
L 559.913484 76.109311 
L 559.991178 73.637025 
" style="fill: none; stroke: #000000; stroke-linecap: square"/>
   </g>
   <g id="line2d_21">
    <path d="M 512.371243 35.13671 
L 520.617621 28.357434 
L 528.864 35.13671 
" style="fill: none; stroke: #000000; stroke-linecap: square"/>
   </g>
   <g id="line2d_22">
    <path d="M 481.480305 69.26656 
L 480.456593 67.534124 
L 479.826616 67.471126 
L 478.889525 67.76249 
L 477.94456 69.26656 
L 478.094179 74.070134 
L 477.54295 80.976256 
L 478.724156 83.976521 
L 480.456593 84.535626 
L 482.110282 83.078804 
" style="fill: none; stroke: #000000; stroke-linecap: square"/>
   </g>
   <g id="line2d_23">
    <path d="M 559.754937 69.26656 
L 560.77865 67.534124 
L 561.408627 67.471126 
L 562.345717 67.76249 
L 563.290683 69.26656 
L 563.141063 74.070134 
L 563.692293 80.976256 
L 562.511086 83.976521 
L 560.77865 84.535626 
L 559.12496 83.078804 
" style="fill: none; stroke: #000000; stroke-linecap: square"/>
   </g>
  </g>
 </g>
 <defs>
  <clipPath id="p8d1005e39c">
   <rect x="38.420552" y="18.118365" width="534.579207" height="380.525145"/>
  </clipPath>
  <clipPath id="pafe4b52d0b">
   <rect x="473.235482" y="24.124777" width="94.764278" height="93.118463"/>
  </clipPath>
 </defs>
</svg>
